<?xml version="1.0" encoding="UTF-8"?>
<svg id="svg3141" width="405.18mm" height="81.856mm" version="1.1" viewBox="0 0 405.18 81.856" xmlns="http://www.w3.org/2000/svg">
 <g id="ignore0">
  <path id="path26-3" d="m293.7 69.38c.0171-.0506 1.1665-2.5372 1.4843-2.6456.28712-.0971.87074.13257 1.1216.25669.74894.37046 1.451.8004 2.1914 1.1666.42119.20834.87475.29396.93935.78935.0333.25852-.19989.51511-.45468.48058-.51432-.0714-.96452-.58927-1.4717-.7014-.15823-.034-.65382-.0961-.65269.16716.002.48229.55409.68143.97196.88813.0674.0333.49168.20189.5262.30456.0714.20949-.45563 1.1974-.58442 1.24" style="clip-rule:evenodd;fill-rule:evenodd;fill:#cc3131;stroke-linecap:round;stroke-linejoin:round;stroke-miterlimit:1.5;stroke-width:.26458"/>
  <path id="path30-2" d="m293.7 69.38c.0171-.0506 1.1665-2.5372 1.4843-2.6456.28712-.0971.87074.13257 1.1216.25669.74894.37046 1.451.8004 2.1914 1.1666.42119.20834.87475.29396.93935.78935.0333.25852-.19989.51511-.45468.48058-.51432-.0714-.96452-.58927-1.4717-.7014-.15823-.034-.65382-.0961-.65269.16716.002.48229.55409.68143.97196.88813.0674.0333.49168.20189.5262.30456.0714.20949-.45563 1.1974-.58442 1.24" style="clip-rule:evenodd;fill:none;stroke-linecap:round;stroke-linejoin:round;stroke-miterlimit:1.5;stroke-width:.26458px;stroke:#000000"/>
  <path id="path34-2" d="m293.7 69.38-4.9156 10.639 3.8804 1.701-.45488-1.94 1.2112.43675-.39059-2.0676 1.417.0279-.48469-1.881 1.5134-.16351-.32653-2.1953 1.3991.0633-.29063-2.2661 1.5847-.30533z" style="clip-rule:evenodd;fill-rule:evenodd;fill:#808080;stroke-linecap:round;stroke-linejoin:round;stroke-miterlimit:1.5;stroke-width:.26458px;stroke:#000000"/>
  <path id="path279" d="m39.641 8.84c1.2122-1.3016 2.1497-2.1125 2.6927-3.6432.13201-.37224.50632-1.0875.50632-1.0875v.81559c0 1.5936.16877 3.1611.16877 4.7574 0 .32921.16877 1.7911.16877 1.6312" style="clip-rule:evenodd;fill:none;stroke-linecap:round;stroke-linejoin:round;stroke-miterlimit:1.5;stroke-width:.71235;stroke:#000000"/>
  <path id="path283" d="m35.805 9.52c.25409 1.4837 1.0237 3.068 1.8389 3.5932 4.9802 3.2089 12.326-2.4121 11.103-7.7883-1.193-5.244-10.443-5.3425-12.743-1.2234-.85381 1.5289-.67232 3.0173-.67232 4.2872" style="clip-rule:evenodd;fill:none;stroke-linecap:round;stroke-linejoin:round;stroke-miterlimit:1.5;stroke-width:.71235;stroke:#000000"/>
  <path id="path287" d="m126.97 5.6c-.85642-1.5281 2.0283-3.0726 3.1979-2.1185 1.7471 1.425.21144 4.9742-1.071 6.6232-.54593.70187-3.806.95614-3.0105.55841 2.0469-1.0234 6.4623 1.8971 6.4623-1.0658" style="clip-rule:evenodd;fill:none;stroke-linecap:round;stroke-linejoin:round;stroke-miterlimit:1.5;stroke-width:.79375;stroke:#000000"/>
  <path id="path291" d="m122.69 7.58c-.83466 1.9222 3.3364 7.1152 6.7188 6.4095 5.153-1.0751 8.5445-5.7604 4.6239-11.26-3.442-4.8278-9.7733-1.2773-10.892 2.3451" style="clip-rule:evenodd;fill:none;stroke-linecap:round;stroke-linejoin:round;stroke-miterlimit:1.5;stroke-width:.79375;stroke:#000000"/>
  <path id="path295" d="m213.1 4.67c4.1224-3.1584 5.8733.9931 1.0548 3.0587-.31218.13382 4.5648-1.3105 4.3151 2.215-.1673 2.3646-2.5978 3.07-4.1797 1.7139" style="clip-rule:evenodd;fill:none;stroke-linecap:round;stroke-linejoin:round;stroke-miterlimit:1.5;stroke-width:.73495;stroke:#000000"/>
  <path id="path299" d="m209.2 7.29c-.056.95895.0353 1.8003.24521 2.5335 1.7758 6.2045 12.04 4.6633 13.385 1.2059 2.8007-7.2036-10.885-15.507-13.63-3.7394" style="clip-rule:evenodd;fill:none;stroke-linecap:round;stroke-linejoin:round;stroke-miterlimit:1.5;stroke-width:.73495;stroke:#000000"/>
  <path id="path303" d="m306.07 3.79c-.53634-.11538-4.5281 3.8498-4.5281 3.8498s4.4087.0436 5.3875-.0942c.17323-.0244 1.3808-.26993.79916-.26993" style="clip-rule:evenodd;fill:none;stroke-linecap:round;stroke-linejoin:round;stroke-miterlimit:1.5;stroke-width:.72932;stroke:#000000"/>
  <path id="path307" d="m305.86 3.59c1.0013-.50124.69535 10.708.69535 7.7202" style="clip-rule:evenodd;fill:none;stroke-linecap:round;stroke-linejoin:round;stroke-miterlimit:1.5;stroke-width:.72932;stroke:#000000"/>
  <path id="path311" d="m298.44 9.43c.2745 1.2227.87083 2.3484 2.1649 3.2639 3.2444 2.2958 9.6801 1.6986 11.191-1.8896.60117-1.4274.57796-3.7029-.1487-4.9812-1.1099-1.9523-2.941-4.2396-5.9263-4.4667-3.4461-.2618-8.3781 2.7697-7.3542 6.2087" style="clip-rule:evenodd;fill:none;stroke-linecap:round;stroke-linejoin:round;stroke-miterlimit:1.5;stroke-width:.72932;stroke:#000000"/>
  <path id="path4272-7-0-7" d="m302.6 78.32c-.0316.19936-.66051-1.0467-.66051-.84479 0 .17673-.0105 1.0938-.13557 1.2186-.0684.0686-.40925-.40925-.47372-.47395-.0784-.0784-.81255-.35575-.81255-.2707 0 .0594.61958 1.3539.47395 1.3539-.1445 0-1.1095-.65068-1.354-.40627-.35071.35072 4.9249 1.7547 5.1689 1.8361" style="clip-rule:evenodd;fill:#28170b;stroke-linecap:round;stroke-linejoin:round;stroke-miterlimit:1.5;stroke-width:.22863"/>
  <path id="path4260-6-6-3" d="m301.67 57.89c-.2643.37792-1.0636.66165-.2707.54162.33609-.11203.87999-.543.87999-.88022 0-.11775-.13534.60289-.13534 1.2863 0 .44172.20302-.85278.20302.13558 0 .27161-.20394.81232.0677.81232.43646-.70578.10769-.89417.59878-.3642.5869.61478 1.837 1.6491 1.6354 1.4474-3.0437 3.2641-2.7916 8.5885-3.8588 12.944.48127 1.7646 1.3192 3.586 2.0986 5.1451 1.0604 1.8441 1.3853 1.7422 2.9381 2.2826 3.7792.6836 8.818.7195 10.039-3.2292 1.3585-3.3739 1.594-6.3888.55466-10.186-.56746-1.9319-2.054-5.1995-3.1018-6.6497.70144-.20531 1.3439-.7666 1.6162-1.3978.15227.0679.41291.58437.65114.34614.0624-.0629-.0848-.68566.0677-.60929.12324.0615.56632.5167.74465.33837.0828-.0828-.0677-1.2186.0677-1.1509 1.9852 1.4442.23023.45245-.26223-1.3588-.56083-1.6212-.74534-5.0383-.60313-6.7658.57683-.10585.78443-.69594.89371-1.0444.11455-1.6948-2.4118-1.9779-2.6839-.91909-.0926.41154.13467.82604.0455.54917-2.2278-.99111-7.756-1.1827-9.275.6093v-.81255c0-1.3478-3.9484-.93166-2.0309 1.6249.26727.35666.81232.27092.81232.27092.0805 1.3626-.7275 6.5822-1.6925 7.034z" style="clip-rule:evenodd;fill:#6d3f20;stroke-linecap:round;stroke-linejoin:round;stroke-miterlimit:1.5;stroke-width:.22863"/>
  <path id="path1758" d="m315.25 47.96c-.0768 0-.20264.0309-.44158.0393-.47789.0157-.89649.22382-.99872.62125-.0478.21051-.0115.42102.0236.53958-6.7266-1.4216-10.171.37263-10.467 1.6665-.2589 1.1336.0683 2.8951-.61338 4.5726-.34662.85172-.52446 1.6399-1.084 2.4971-.26435.37807-1.0634.66117-.2704.5414.28492-.095.71622-.4192.84144-.72166-.0399.23229-.0974.6769-.0974 1.1282 0 .44099.20325-.85353.20325.1349 0 .27161-.20386.8124.0678.8124 5.2906-4.3112-2.361-12.485 12.315-10.186-.0351-.11857-.0714-.32908-.0242-.54019.0883-.34359.41558-.54322.81119-.60189-.14759-.418-.13852-.50329-.26616-.50329zm-14.1 23.049c-.56075.91282-.95455 1.6308-.36113 2.8098.48091 1.7645 1.3193 3.5859 2.099 5.1454 1.0646 1.6653 1.3411 1.6073 2.7512 2.2043-.27342-.26374-.55712-.64061-.95153-1.257-.77973-1.5589-1.6175-3.3803-2.099-5.1454-.28794-1.0568-.41921-2.0767-.33815-3.1818.37384-3.6392 3.4819-8.2426 6.132-10.258-5.1031-2.9629-6.3456 4.7764-6.7847 8.4373-.0581.48393-.42405.94004-.44764 1.2455z" style="clip-rule:evenodd;fill:#613719;stroke-linecap:round;stroke-linejoin:round;stroke-miterlimit:1.5;stroke-width:.060491"/>
  <path id="path1761" d="m314.81 48c-.47789.0157-.89649.22382-.99872.62125-.0478.21051-.0115.42102.0236.53958-.0599-.026-.12219-.052-.18692-.0768-3.7166 12.488 4.1328 32.67-8.2172 31.997.12521.0514.24983.10284.39682.16635 3.7789.68356 8.8178.71985 10.039-3.229 1.358-3.3736 1.594-6.3885.5541-10.186-.56741-1.9321-2.0537-5.1998-3.1014-6.6504.70109-.20506 1.3441-.76582 1.6157-1.3974.15244.0677.41316.58435.6515.34601.0629-.0629-.0847-.68537.0678-.60915.1234.0617.5662.5166.74465.33815.0829-.0829-.0678-1.2183.0677-1.1506 1.9847 1.4439.22986.45187-.26254-1.3592-.56075-1.6212-.74525-5.0383-.6031-6.7654.57709-.10586.78458-.69626.89407-1.0447.0714-1.0592-.88862-1.5667-1.6853-1.5401z" style="clip-rule:evenodd;fill:#613719;stroke-linecap:round;stroke-linejoin:round;stroke-miterlimit:1.5;stroke-width:.060491"/>
  <path id="path4260-6-61" d="m301.67 57.89c-.2643.37792-1.0636.66165-.2707.54162.33609-.11203.87999-.543.87999-.88022 0-.11775-.13534.60289-.13534 1.2863 0 .44172.20302-.85278.20302.13558 0 .27161-.20394.81232.0677.81232.43646-.70578.10769-.89417.59878-.3642.5869.61478 1.837 1.6491 1.6354 1.4474-1.3276 1.0069-1.5695 2.953-2.2401 4.6864-.54871 1.9895-.9431 3.258-1.2149 5.2697-.68726 1.3421-.78328 1.5828-.40376 2.988.48127 1.7646 1.3192 3.586 2.0986 5.1451 1.1134 1.7412 1.351 1.5908 2.9381 2.2826 3.7792.6836 8.818.7195 10.039-3.2292 1.3583-3.3739 1.594-6.3888.55466-10.186-.56746-1.9319-2.054-5.1995-3.1018-6.6497.70144-.20531 1.3439-.7666 1.6162-1.3978.15227.0679.41291.58437.65114.34614.0624-.0629-.0848-.68566.0677-.60929.12324.0615.56632.5167.74465.33837.0828-.0828-.0679-1.2186.0677-1.1509 1.9852 1.4442.23023.45245-.26223-1.3588-.56083-1.6212-.74556-5.0383-.60336-6.7658.57684-.10585.78466-.69594.89394-1.0444.11455-1.6948-2.4118-1.9779-2.6841-.91909-.0924.41154.13466.82604.0455.54917-2.2278-.99111-7.7558-1.1827-9.2748.6093v-.81255c0-1.3478-3.9484-.93166-2.0309 1.6249.26727.35666.81232.27092.81232.27092.0805 1.3626-.7275 6.5822-1.6925 7.034z" style="clip-rule:evenodd;fill:none;stroke-linecap:round;stroke-linejoin:round;stroke-width:.13032px;stroke:#000000"/>
  <path id="path4274-1-1-5" d="m307.56 79.03c-1.4406.35894-1.2812 1.8304-.3386 2.3016 1.9079.37084 6.0175.63307 8.1241-.0677 5.3961-1.3752 10.761-4.0172 12.592-9.3425.2012-.60381.96962-2.8677.6093-3.5881-1.5787-5.4171-7.9702-3.8586-9.4104 1.0154-.60816 2.4331-2.0341 7.9458-4.1295 9.3427-.96824.64542-5.5493.65045-6.7702.40627-.329-.0658-.67697-.0677-.67697-.0677z" style="clip-rule:evenodd;fill:#28170b;stroke-linecap:round;stroke-linejoin:round;stroke-miterlimit:1.5;stroke-width:.22863"/>
  <path id="path4272-7-2" d="m302.6 78.32c-.0316.19936-.66051-1.0467-.66051-.84479 0 .17673-.0105 1.0938-.13557 1.2186-.0684.0686-.40925-.40925-.47372-.47395-.0784-.0784-.81255-.35575-.81255-.2707 0 .0594.61958 1.3539.47395 1.3539-.1445 0-1.1095-.65068-1.354-.40627-.35071.35072 4.5461 1.7547 4.79 1.8361" style="clip-rule:evenodd;fill:none;stroke-linecap:round;stroke-linejoin:round;stroke-width:.13032px;stroke:#000000"/>
  <path id="path4274-1-2" d="m307.56 79.03c-1.4406.35894-1.2812 1.8304-.3386 2.3016 1.9079.37084 6.0175.63307 8.1241-.0677 5.3961-1.3752 10.761-4.0172 12.592-9.3425.2012-.60381.96962-2.8677.6093-3.5881-1.5787-5.4171-7.9702-3.8586-9.4104 1.0154-.60816 2.4331-2.0341 7.9458-4.1295 9.3427-.96824.64542-5.5493.65045-6.7702.40627-.329-.0658-.67697-.0677-.67697-.0677z" style="clip-rule:evenodd;fill:none;stroke-linecap:round;stroke-linejoin:round;stroke-width:.13032px;stroke:#000000"/>
  <path id="path4276-7-4" d="m324.42 65.26c-.0768.002-.13901.072-.13901.1573 0 .022.004.0437.0121.0636.23937.63102.50161 1.2286.76499 1.8089-.18153.45269-.3386.90926-.5263 1.345-.19525.45383-.3921.90469-.58964 1.3549-.131-.40216-.26178-.80363-.3905-1.2085-.046-.14472-.16072-.68268-.26155-1.1466-.0155-.0743-.0775-.12598-.14586-.12163-.0745.005-.13375.0741-.13375.15706 0 .0128.001.0256.004.0382.1006.46206.20485.97121.2707 1.1786.16027.50436.3226 1.0005.48424 1.4982-.58278 1.321-1.1797 2.6276-1.8082 3.9249-.14655-1.3896-.34272-2.7856-.29082-4.1265.0338-.0773.0691-.15364.10243-.23138.23754-.55214.45726-1.3055.71469-2.0268.25744-.72109.55557-1.4065.91269-1.8032.0277-.0297.0432-.0706.0432-.1134 0-.0862-.0638-.15706-.14129-.15706h-.005v.00045c-.0368.001-.0718.0183-.0974.0478-.41451.46046-.71355 1.1765-.97556 1.9102-.18931.5311-.35712 1.0707-.52036 1.5263-.0281-.0478-.0777-.0748-.12918-.0702-.0668.006-.12071.0647-.12826.13877-.0272.23206-.0441.46549-.0549.69961-.50573 1.1539-1.0508 2.2799-1.6176 3.3936-.0254-.0197-.0558-.0297-.0867-.0286-.008-.00023-.0153.00023-.0229.001-.099.0135-.15592.0908-.19456.1621-.0384.0713-.0665.15432-.0928.254-.0414.15639-.075.3617-.10632.58827-.22245.42708-.44811.85347-.674 1.2796-.0137-.004-.0277-.006-.0418-.006-.0567.002-.10723.0409-.12804.0997-.0341.0924-.0901.28488-.15821.52562-.0576.10837-.11431.21651-.17216.32511-.0642.12095-.51876.97351-.96573 1.7959-.2236.41107-.44582.81529-.61547 1.1148-.0142.0249-.0208.0366-.0343.0599-.00023.00069-.00046.00069-.001.001-.006.005-.0117.011-.0167.0174-.0306.0338-.0448.0569-.0716.0981-.027.0409-.0572.0908-.0864.13855-.029.048-.0558.094-.0761.13169-.0103.0188-.0185.0348-.0267.0537-.004.01-.009.0167-.0142.043-.001.007-.003.0155-.003.0272-.00023.006 0 .0208 0 .0208 0 .00022.003.0295.003.0297l.0153.0402c.00023.00023.0334.043.0334.0432l.0473.0283c.00023 0 .0421.007.0421.007.00045 0 .0361-.005.0363-.005.00023 0 .0178-.007.0242-.01.0126-.007.0204-.0126.0265-.0176.0128-.0101.0194-.0162.0256-.0231.0121-.0137.0208-.0263.0309-.0407.0201-.0283.0432-.064.0706-.10905.0556-.0903.12849-.21697.21446-.36833.17147-.3027.3937-.70623.61752-1.1182.25516-.46938.36444-.67697.55054-1.025-.16347.61021-.32145 1.2113-.32145 1.2113-.005.0158-.007.0322-.007.0489 0 .0862.0638.15707.14153.15707.0645 0 .12117-.0492.13694-.11866 0 0 .17262-.65708.36147-1.3576.0944-.35049.19227-.71081.27504-1.0057.01-.0352.0119-.0384.0213-.0718.21788-.40994.43577-.81964.65159-1.23-.0441.49521-.0805 1.0437-.11248 1.5782-.046.76545-.0834 1.4966-.12598 1.9664-.0139.15501-.0281.21994-.0421.30476-.0675.013-.11683.0787-.11683.15478 0 .0158.002.0316.006.0466.01.0368.0194.0681.0334.0992.0139.0313.0256.0709.0903.10311.0325.016.0816.0194.11729.005.0359-.0144.0569-.0366.0706-.0551.0279-.037.0361-.0658.0455-.0958.0368-.12003.0544-.29013.0761-.5318.0439-.48332.0823-1.2129.12803-1.9765.046-.76362.0995-1.5606.17262-2.1642.005-.0453.0117-.0807.0176-.12369.63902-1.2284 1.2609-2.4671 1.8377-3.7404.0178 1.319.21857 2.6539.34408 3.9551-.0869.17673-.1733.35369-.26155.52997-.42799.85598-.82512 1.7636-1.3999 2.4664-.0226.0286-.0352.0654-.0352.10357 0 .0864.064.1573.14152.1573.0393 0 .0768-.0181.10357-.0498.61227-.74853 1.014-1.679 1.4365-2.5241.0208-.0416.0409-.0832.0617-.12484.01.12895.0217.25836.0288.38639.00023.086.064.15684.14152.15684.0775 0 .14153-.0709.14153-.1573 0-.006-.00046-.0128-.001-.0192-.0162-.28648-.0398-.57409-.0663-.86239.65845-1.3427 1.2799-2.6958 1.8855-4.0614.24257.75654.47532 1.516.67445 2.2929-.28647.6413-.5718 1.2819-.86856 1.9113-.0139.0249-.0213.0537-.0213.0828 0 .0862.0638.1573.14152.1573.056 0 .10677-.037.1294-.0937.26476-.56174.51968-1.1299.77346-1.6983.0151.006.0309.009.0469.009.0777 0 .14152-.0711.14152-.1573 0-.0139-.002-.0281-.005-.0416-.0114-.0466-.024-.0926-.0357-.139.45063-1.0074.90697-2.0087 1.4218-2.9662.26361.71744.4728 1.4493.583 2.2275-.002.0325-.001.035-.005.0713-.005.0539-.0123.1102.007.18404.01.0368.0293.0825.0672.1166s.0889.0478.13031.0478c.0775 0 .1413-.0711.1413-.15707 0-.006-.00046-.0123-.00092-.0183-.0117-.10814-.0501-.20211-.0652-.30819.006-.062.0247-.10837-.002-.18794-.0103-.0316-.0293-.0585-.0544-.0773-.29584-1.7099-1.0165-3.1967-1.7303-4.7678.0576-.13901.11706-.27619.18154-.41016.0117-.0236.0178-.0498.0178-.0764 0-.0864-.0638-.1573-.14152-.1573-.006 0-.0119.00046-.0178.001-.0464.007-.0869.0384-.10814.0848-.032.0665-.0624.13352-.0924.20051-.22772-.50801-.45155-1.0259-.65686-1.5668-.0219-.0604-.0752-.0994-.13352-.0983zm.80477 2.3938c.33197.72361.6596 1.4271.93921 2.1375-.51327.93281-.96321 1.9042-1.401 2.8791-.20759-.76934-.44514-1.5192-.68703-2.2664.23892-.54253.47578-1.0869.71127-1.634.16004-.37175.29607-.74762.43759-1.1162z" style="clip-rule:evenodd;fill:#442c1b;stroke-linecap:round;stroke-linejoin:round;stroke-miterlimit:1.5;stroke-width:.22863"/>
  <path id="path4292-0-2-2" d="m314.66 62.12c1.533 1.3668 5.2441 5.0207 3.3883 6.8765-.18862.18862-1.7883.98745-2.0988.67697-.58369-.58369-2.1187-5.8147-2.5049-6.973-.0389-.85964.27641-1.188 1.2154-.58049z" style="clip-rule:evenodd;fill:#643110;stroke-linecap:round;stroke-linejoin:round;stroke-miterlimit:1.5;stroke-width:.22863"/>
  <path id="path1770" d="m313.86 61.81c-.21111.0151-.33088.16696-.3817.42284.14821.0478.32121.13369.52567.26556 1.5329 1.3665 5.2422 5.0184 3.3906 6.8748.32302-.15123.591-.30669.66117-.37686 1.8559-1.8559-1.8553-5.5102-3.3881-6.8767-.35206-.22805-.61641-.32423-.80757-.30972z" style="clip-rule:evenodd;fill:#572e13;stroke-linecap:round;stroke-linejoin:round;stroke-miterlimit:1.5;stroke-width:.060491"/>
  <path id="path4292-0-6" d="m314.66 62.12c1.533 1.3668 5.2441 5.0207 3.3883 6.8765-.18862.18862-1.7883.98745-2.0988.67697-.58369-.58369-2.1187-5.8147-2.5049-6.973-.0389-.85964.27641-1.188 1.2154-.58049z" style="clip-rule:evenodd;fill:none;stroke-linecap:round;stroke-linejoin:round;stroke-width:.13032px;stroke:#000000"/>
  <path id="path1775" d="m304.68 64.43c-.10059 3.4593-1.8193 7.0221-9.0946 4.9497-.15704-.173 1.3149-.064 1.317-.10038.00046-.008-.27588-.005-.29696-.017-.34982-.19777-.93676-.34986-1.2142-.65592-.0209-.0231 1.9556.19818 1.9572.17056.00099-.0173-.70349-.19638-.76239-.21958-.23069-.0905-.92709-.96302-.89696-.98946.0217-.019 1.9479.90405 2.2073 1.0058 4.2116.47978 2.9221-3.4986 4.1843-5.2428.26164-.99076 2.9782-3.3098 2.5993 1.099z" style="clip-rule:evenodd;fill:#643110;stroke-linecap:round;stroke-linejoin:round;stroke-miterlimit:1.5;stroke-width:.22677"/>
  <path id="path1778" d="m304.74 64.52c-.22252 3.5106-2.066 7.0732-9.2647 4.7292-.15087-.18089 1.3166-.0218 1.3199-.0587.00075-.008-.27556-.0143-.29622-.027-.34268-.21238-.92396-.38614-1.1905-.70614-.0201-.0241 1.9476.26551 1.9502.2375.002-.0175-.69621-.22257-.75427-.24807-.22739-.0995-.89269-1.0087-.86163-1.0345.0224-.0186 1.9151.98227 2.1708 1.0942 4.1927.62564 3.044-3.4579 4.3672-5.1881.29645-.99781 3.0934-3.2642 2.5593 1.2017z" style="clip-rule:evenodd;fill:none;stroke-linecap:round;stroke-linejoin:round;stroke-width:.13032px;stroke:#000000"/>
  <path id="path2147" d="m306.07 36.56c2.559-3.9121 9.8839-.19069 2.5302 2.7833-.25643.25642 0 2.1273 0 2.5302" style="-inkscape-stroke:none;fill:none;font-variation-settings:normal;stop-color:#000000;stroke-linecap:round;stroke-linejoin:round;stroke-miterlimit:1.5;stroke-width:.72932;stroke:#000000"/>
  <path id="path2625" d="m308.57 43.89c.0447.98404.0894.67093.0894.67093" style="-inkscape-stroke:none;fill:none;font-variation-settings:normal;stop-color:#000000;stroke-linecap:round;stroke-linejoin:round;stroke-miterlimit:1.5;stroke-width:.72932;stroke:#000000"/>
 </g>
 <g id="container0">
  <rect id="rect1-0-6-3" x="320.98" y="49.64" width="84.197" height="16.699" ry="8.3495" style="-inkscape-stroke:none;fill:none;font-variation-settings:normal;stop-color:#000000;stroke-linecap:round;stroke-linejoin:round;stroke-miterlimit:1.5;stroke-width:.42857"/>
 </g>
 <g id="container1">
  <rect id="rect1-0-6-3-8" x="340.15" y="32.96" width="64.461" height="16.699" ry="8.1597" style="-inkscape-stroke:none;fill:none;font-variation-settings:normal;stop-color:#000000;stroke-linecap:round;stroke-linejoin:round;stroke-miterlimit:1.5;stroke-width:.42857"/>
 </g>
 <g id="container2">
  <rect id="rect1-0-6-3-2" x="375.37" y="16.43" width="29.29" height="16.699" ry="8.0965" style="-inkscape-stroke:none;fill:none;font-variation-settings:normal;stop-color:#000000;stroke-linecap:round;stroke-linejoin:round;stroke-miterlimit:1.5;stroke-width:.42857"/>
 </g>
 <g id="container3">
  <rect id="rect1-0-6-3-2-3" x="357.13" y=".1" width="47.761" height="16.32" ry="8.0965" style="-inkscape-stroke:none;fill:none;font-variation-settings:normal;stop-color:#000000;stroke-linecap:round;stroke-linejoin:round;stroke-miterlimit:1.5;stroke-width:.42857"/>
 </g>
 <g id="container4">
  <rect id="rect1-0-6" x="263.14" y="16.14" width="84.197" height="16.699" ry="8.3495" style="-inkscape-stroke:none;fill:#ffe4c7;font-variation-settings:normal;stop-color:#000000;stroke-linecap:round;stroke-linejoin:round;stroke-miterlimit:1.5;stroke-width:.42857"/>
 </g>
 <g id="container5">
  <rect id="rect1-0-8" x="174.1" y="16.14" width="84.197" height="16.699" ry="8.3495" style="-inkscape-stroke:none;fill:#ffe4c7;font-variation-settings:normal;stop-color:#000000;stroke-linecap:round;stroke-linejoin:round;stroke-miterlimit:1.5;stroke-width:.42857"/>
 </g>
 <g id="container6">
  <rect id="rect1-0" x="87.053" y="16.14" width="84.197" height="16.699" ry="8.3495" style="-inkscape-stroke:none;fill:#ffe4c7;font-variation-settings:normal;stop-color:#000000;stroke-linecap:round;stroke-linejoin:round;stroke-miterlimit:1.5;stroke-width:.42857"/>
 </g>
 <g id="container7">
  <rect id="rect1" x="-1.77e-6" y="16.14" width="84.197" height="16.699" ry="8.3495" style="-inkscape-stroke:none;fill:#ffe4c7;font-variation-settings:normal;stop-color:#000000;stroke-linecap:round;stroke-linejoin:round;stroke-miterlimit:1.5;stroke-width:.42857"/>
 </g>
 <g id="draggable0">
  <path id="path994" d="m328.61 51.97c2.6874-.0288-.98026-.28557 0 0 5.2024 1.5157 10.558 1.2806 15.979.92541 4.1886-.27467 8.406.32494 12.595-.004 8.796-.69073 30.356.43075 33.787.56322 4.0305.15565 4.8747-.92905 4.8747-.92905l2.0438-.57732c3.7137.24133 6.8066 6.3607 4.1417 8.8561-.59334.55422-3.8956.96816-4.5234.95688-1.8836-.0371-3.7825.0906-4.4769.1092-8.4125.2393-46.766 1.378-56.315 1.8749-6.0527.31421-3.3866.52092-9.1992.29646-1.0481-.72136-1.1464-2.356-2.0801-3.1054-3.4217-2.7454-3.8814-3.5543 3.1737-8.9666z" style="clip-rule:evenodd;fill-rule:evenodd;fill:#9d9d9d;stroke-linecap:round;stroke-linejoin:round;stroke-miterlimit:1.5;stroke-width:.33435"/>
  <path id="path996" d="m336.71 63.75c-2.017.094-7.4971.547-7.8746.0428-2.8078-3.7495-.9642-12.032-.23097-11.818 5.2024 1.5157 10.558 1.2806 15.979.92541 4.1886-.27467 8.406.32494 12.595-.004 3.6812-.28907 9.5978-.26064 15.485-.12051 8.1818.19502 16.309.60678 18.302.68373 4.0305.15565 4.9092-.92934 4.9092-.92934l2.0404-.57745c3.7172.24146 6.8066 6.361 4.1418 8.8545-.59333.55422-3.8956.9714-4.5234.95688-1.8801-.0369-3.7806.13933-4.477.11244-8.8226-.35043-48.185 1.4983-56.346 1.8737z" style="clip-rule:evenodd;fill-rule:evenodd;fill:#b2aaa6;stroke-linecap:round;stroke-linejoin:round;stroke-miterlimit:1.5;stroke-width:.33435"/>
  <path id="path998" d="m327.88 54.19c-.28021-.0818-.25248-2.5109.72778-2.2253 5.2024 1.5157 10.558 1.2806 15.979.92541 4.1886-.27467 8.406.32494 12.595-.004 8.796-.69073 30.384.77776 33.814.91024 4.027.15551 4.8473-1.2761 4.8473-1.2761l2.0404-.57745c3.5794.23257 6.5786 5.9138 4.4164 8.562.005-.94496-.33574-1.6701-.6033-2.6317-1.1541-4.1555-6.743-3.5744-11.428-1.8517-2.3773.87408-15.164-.45103-25.149-.88946-3.381-.14872-6.441-.19556-8.6662-.0208-4.1892.32879-8.4066-.27081-12.595.004-5.4209.35515-10.776.59027-15.979-.92508z" style="clip-rule:evenodd;fill-rule:evenodd;fill:#c5c5c5;stroke-linecap:round;stroke-linejoin:round;stroke-miterlimit:1.5;stroke-width:.33435"/>
  <path id="path1000" d="m328.21 52.2c-1.1976-.0462-3.2863 1.3891-4.2191 2.6208-1.8009 2.3789-1.8856 8.7295 4.6087 8.9712 4.1624.155 3.9338-11.425-.38956-11.592z" style="clip-rule:evenodd;fill-rule:evenodd;fill:#fae0d2;stroke-linecap:round;stroke-linejoin:round;stroke-miterlimit:1.5;stroke-width:.35397"/>
  <path id="path1004" d="m358.8 52.84c.10659 1.1991.0839 2.4015-.0159 3.5964-.0603.69572-.15149 1.389-.26114 2.0823-.063.39847-.13529.79964-.23847 1.193-.0631.23657-.13551.47318-.22339.70458-.0382.0958-.0763.19152-.11758.2873-.0296.0612-.0654.12245-.10118.18104-.0476.0852-.10144.16777-.15526.25035-.015.0187-.027.0373-.042.056-.006.008-.012.0186-.021.0266-.027.0373-.0601.0746-.0996.10407-.0122.008-.0366.0188-.0521.0109-.0249-.0131-.0349-.0502-.0414-.0714-.01-.0185-.0131-.0397-.0197-.0609-.01-.0371-.0137-.0716-.0175-.10872-.001-.0637.00059-.1274.009-.18849.0105-.0956.0271-.19125.0499-.28427.0623-.27638.15253-.5476.22726-.82139.0458-.17543.0916-.35616.0973-.53667.004-.13538-.0237-.26794-.0479-.40317-.0346-.19621-.0786-.39503-.1286-.59116-.29232-1.0892-.80545-2.1295-1.3366-3.1484-.13761-.26465-.27522-.5293-.41591-.79394-.0865-.16939-.17299-.34143-.26562-.51078-.14069-.26464-.28754-.52924-.43742-.79117l-.0223-.037c.6866-.0118 1.3759-.0421 2.0617-.0963.49823-.0373 1.0365-.0721 1.6089-.0991zm-9.3842.0227c1.47.045 2.9405.1138 4.4068.12692l.003.0133c.0126.17245.0313.34221.0501.51462.008.0902.019.18303.0239.2759.005.11145.004.22292.007.33439.004.21231.005.42728.006.64226.005.58919.005 1.1784-.002 1.7703-.005.69541-.019 1.3909-.0423 2.089-.009.34774-.0234.69552-.0536 1.0407-.0174.21509-.0409.4302-.0736.64537-.0191.12485-.0382.25235-.0697.37462-.0171.0691-.0343.13555-.0607.20205-.0146.0425-.0323.0824-.0561.1224-.0119.0213-.0269.04-.0451.056-.0968.0881-.24298.0173-.32743-.0486-.0156-.0105-.0313-.0237-.0469-.0369-.0188-.0185-.0376-.0343-.0565-.0554-.0251-.0238-.0471-.0475-.0692-.0739-.0346-.037-.0631-.0766-.0946-.11361-.038-.0529-.076-.10574-.11403-.16127-.038-.0555-.073-.11107-.11111-.16925-.089-.14283-.17195-.28835-.2518-.43389-.0575-.10319-.11183-.2064-.17539-.30691-.0413-.0661-.0888-.12956-.13313-.19301-.0698-.10578-.13966-.21156-.20332-.31738-.2005-.33066-.37652-.66941-.53725-1.0136-.13818-.29385-.26415-.59307-.38093-.895-.14568-.36281-.27916-.731-.41258-1.0965-.18252-.5139-.36505-1.0278-.56292-1.539-.0583-.14565-.11652-.28865-.17788-.43429-.0228-.0609-.0547-.12179-.0775-.18271-.0488-.13509-.0855-.27556-.1282-.41334-.069-.21991-.1379-.43717-.20996-.65706zm-15.472.10676c.89799.0879 1.7984.14134 2.7044.16818l-1.6653 7.1409-.0132-.67408c-.016-.82004-.10273-1.6317-.11871-2.4491-.0286-1.4649-.35454-2.8539-.90725-4.1859zm8.8787.11813c.0683.6605.11827 1.3238.082 1.9875-.0458.80976-.19029 1.6095-.25762 2.4193-.0144.20976-.0257.4195-.0277.63184-.003.15661.003.31052-.00011.46713-.0122.32122-.0429.64254-.0458.96371.00055.18579.0134.37151.0109.55731-.002.0425-.0109-.0849-.0179-.1273-.004-.0478-.011-.0928-.0181-.14057-.0251-.183-.0503-.36599-.0755-.55164-.0782-.53305-.19634-1.0632-.33292-1.5906-.0599-.22792-.12287-.45583-.18579-.68109-.0497-.17755-.0962-.35247-.15199-.52733-.0724-.23582-.15695-.46626-.25072-.694-.37518-.91626-.90023-1.7786-1.4648-2.6168l-.038-.0555c.92034-.029 1.8404-.0739 2.7664-.12676zm17.786-.36639c1.85-.0527 3.9534-.0643 6.1682-.0474l-.006.0133c-.30558 1.0687-.62657 2.1374-1.0436 3.1775-.24671.61447-.52441 1.2185-.84868 1.8042-.19923.36472-.40462.72948-.64737 1.0732-.14681.21049-.30922.41045-.4841.60251-.0693.0774-.14794.15211-.2203.23213-.0874.0987-.15917.2079-.26525.29608-.0516.0401-.11233.0829-.18306.0886-.0983.0112-.17684-.0654-.23038-.12613-.13549-.15584-.20097-.35454-.2508-.54006-.0729-.26235-.11195-.52755-.14182-.79546-.0405-.33685-.0593-.67117-.0752-1.0082-.006-.13533-.008-.27333-.0141-.40866-.005-.12206-.0109-.24413-.0287-.36612-.10551-.67091-.32461-1.3226-.61417-1.9554-.31519-.68303-.70382-1.3418-1.0893-1.9978zm10.928.0219c2.2555.0486 4.5298.11563 6.6934.1886l-.0145.0452c-.25536.95956-.55091 1.9114-.90529 2.8476-.22571.58516-.46693 1.1651-.74845 1.732-.0859.173-.17803.34603-.27639.51378-.0656.10918-.13438.21573-.20935.31966-.17071.24778-.3693.48775-.61491.68551-.15765.12827-.34025.24075-.54534.30559-.18066.0541-.37744.0711-.56587.0429-.0711-.0129-.15748-.0204-.21379-.0652-.0719-.0553-.11357-.13739-.14889-.21151-.0737-.14823-.12607-.30453-.17225-.46087-.18408-.59351-.28527-1.2008-.42639-1.8025-.0372-.16966-.10513-.3365-.16691-.50337-.10097-.28078-.20804-.55887-.32128-.83693-.37868-.93747-.82469-1.8533-1.335-2.7476zm12.297.39915c1.606.0681 3.0363.12919 4.217.18371l-.003.003c-.18983.37263-.30216.77137-.38363 1.1726-.11563.54474-.17567 1.0971-.2388 1.6495-.0365.33728-.0637.67982-.14653 1.012-.0228.0957-.0455.19135-.0714.28439-.0172.0665-.0374.13291-.0577.19938-.0378.11699-.0786.23134-.13189.34311-.0355.0772-.0771.15171-.13125.21837-.0511.064-.13286.13609-.23485.11808-.0649-.0103-.1273-.0524-.17417-.0866-.0562-.0395-.10329-.0844-.15037-.12922-.0723-.0739-.13548-.15584-.19565-.24044-.0981-.13217-.18088-.27238-.25754-.41263-.14372-.26196-.26907-.52934-.40052-.79402-.21469-.42613-.42024-.85762-.61963-1.2892-.33439-.72007-.65656-1.4455-.99095-2.1656zm-38.767-.27671c1.3077-.0656 2.617-.0516 3.9266-.0164l-.0145.0452c-.0172.0638-.0313.13288-.0609.19409-.0207.0452-.0538.0852-.0807.12784-.0538.0852-.10437.17575-.1488.26624-.13329.27146-.22634.55331-.29152.84297-.21563.94342-.135 1.917-.181 2.8728-.009.16726-.0458.33467-.0889.49681-.0457.18074-.0976.3615-.18677.52921-.0119.0239-.0238.0452-.0356.0692-.009.0133-.018.0266-.0269.04-.048.064-.12639.15199-.23167.12337-.065-.0182-.12151-.071-.16853-.11319-.14739-.13455-.23401-.3119-.29595-.48673-.12731-.36822-.15331-.75293-.24988-1.124-.0502-.20409-.14308-.38672-.2331-.57997-.12539-.27003-.24771-.54008-.37619-.81009-.38892-.83125-.79924-1.6544-1.2463-2.4641zm48.759.6541c-.009.46718-.0156.93434-.0681 1.3991-.0104.0983-.0301.19391-.0436.28954-.052.33471-.11622.67214-.19909 1.0017-.0485.19933-.10319.39338-.17024.58751-.038.10637-.082.21544-.13549.31659-.0326.0665-.0714.13045-.1195.1891-.027.0347-.0572.0667-.0906.0934-.0244.0134-.0487.0295-.0732.0376-.0582.0189-.11379.009-.16661-.015-.0993-.0393-.17458-.10786-.24071-.18181-.0158-.0185-.0316-.0396-.0474-.0608-.0221-.0291-.0443-.0608-.0665-.0952-.0255-.045-.0541-.0899-.0796-.13492-.0288-.0556-.0577-.11381-.0865-.17204-.0416-.0794-.0802-.16146-.12791-.24082-.0605-.10053-.12096-.20105-.1815-.30423-.54806-.93653-1.0564-1.8919-1.7235-2.772l-.0284-.037c.32367.0141.59186.0259.79527.0328.93703.0373 1.9127.003 2.8537-.0715z" style="clip-rule:evenodd;fill-rule:evenodd;fill:#9f928b;stroke-linecap:round;stroke-linejoin:round;stroke-miterlimit:1.5;stroke-width:.2859"/>
  <path id="path1008" d="m383.96 53.42c1.4892.0794 2.8274.15689 3.9466.21706l-.009.0186c-.14046.37766-.2283.76831-.29761 1.1615-.0858.4968-.13761.99607-.19561 1.4954l5e-5.003c-.63435.006-1.3429-.003-2.1194-.0228l-.0258-.0582c-.45243-.9291-.86817-1.8717-1.2992-2.8089zm-12.358-.5554c2.2159.0727 4.4476.16651 6.5716.26359l-.0144.0532c-.24439.89049-.52281 1.7732-.85077 2.6429l-.0176.0452c-1.4248-.093-2.8958-.19102-4.3761-.289l-.0161-.0371c-.36881-.90568-.79583-1.7951-1.284-2.6603zm22.216.95477c-.007.25484-.0146.51233-.0312.76722-.0148.18853-.0295.37971-.0659.56835l1e-4.005c-.75531.12096-1.4792.27359-2.1471.45511l-.0511-.0926c-.3379-.5847-.67889-1.1694-1.0718-1.7299l-.0127-.0185c.21891.0121.40692.019.55798.0261.92775.0347 1.8912.003 2.823-.0687zm-59.875-.8501c.89799.0879 1.7984.14134 2.7044.16818l-.002.0319c-.01.29201-.0225.58403-.0476.87347-.0408.43551-.10012.86581-.17486 1.2962l-.009.0345c-.58539-.01-1.1741-.0333-1.76-.0672-.15424-.8007-.39426-1.577-.71095-2.337zm26.671-.23503c1.8441-.042 3.9386-.035 6.1415.003l-.0201.0744c-.22496.78156-.46229 1.5605-.73679 2.3291l-.0116.0346c-.28979-.0143-.57959-.0286-.86625-.0403-1.1375-.0495-2.2378-.0885-3.2823-.11191l-.016-.0318c-.33225-.76787-.75923-1.498-1.1893-2.2282zm-11.199.12827c1.47.045 2.9405.1138 4.4068.12692l.003.0133c.0126.17245.0313.34221.0501.51462.008.0902.019.18303.0239.2759.006.16452.006.32908.01.49362.002.26805.004.53611.006.80417l-.00065.12475c-1.2257.007-2.4553-.0316-3.6851-.0752l-.0293-.0795c-.0878-.23574-.17861-.47145-.27254-.70715-.0355-.0847-.0711-.17213-.10974-.25685-.0129-.0291-.029-.0662-.042-.098-.0458-.13776-.0855-.27556-.1282-.41334-.069-.21991-.1379-.43717-.20996-.65706zm-6.5929.22489c.0453.42441.0813.84887.0926 1.2735.005.27335-.002.54677-.0179.81758l5e-5.003c-.52912.0321-1.0552.0616-1.5814.0884l-.0224-.0423c-.34337-.70676-.7631-1.3812-1.2072-2.0423l-.038-.0555c.92034-.029 1.8404-.0739 2.7664-.12676zm15.977-.24757c.0633.71892.0805 1.4381.0637 2.1575l.00026.0133c-.87749.0155-1.6869.0465-2.4065.10355-.0615.006-.12606.0113-.1876.0143l-.006-.0106c-.13761-.26465-.27522-.5293-.41591-.79394-.0865-.16939-.17299-.34143-.26562-.51078-.14069-.26464-.28754-.52924-.43742-.79117l-.0223-.037c.6866-.0118 1.3759-.0421 2.0617-.0963.49823-.0373 1.0366-.0694 1.6089-.0965zm-13.733.0255c1.3077-.0656 2.617-.0516 3.9266-.0164l-.0145.0452c-.0172.0638-.0313.13288-.0609.19409-.0178.0346-.0418.0666-.0628.0985-.0299.0479-.0597.0959-.0864.14645-.0655.11715-.12468.23956-.17465.36193-.1794.43362-.26286.89059-.30937 1.3474l-.002.0319c-.69954-.02-1.402-.0321-2.1011-.0309l-.01-.0238c-.34671-.72001-.70568-1.4373-1.0952-2.1412z" style="clip-rule:evenodd;fill-rule:evenodd;fill:#b9b0ac;stroke-linecap:round;stroke-linejoin:round;stroke-miterlimit:1.5;stroke-width:.2859"/>
  <path id="path1012" d="m329.39 52.45c-1.1127-.68663-2.067-.17916-4.2467 1.4485-3.4336 2.5639-2.1951 7.6287 1.7593 9.771 4.6994 2.5494 6.1175-8.9788 2.4874-11.22z" style="clip-rule:evenodd;fill:none;stroke-linecap:round;stroke-linejoin:round;stroke-miterlimit:1.5;stroke-width:.26189px;stroke:#000000"/>
  <path id="path1016" d="m328.61 51.97c5.2024 1.5157 10.558 1.2806 15.979.92541 4.1886-.27467 8.406.32494 12.595-.004 8.796-.69073 30.36.52299 33.791.65546 4.0305.15565 4.9189-1.0217 4.9189-1.0217l2.0438-.57732c3.7137.24133 6.8066 6.361 4.1417 8.8552-.59333.55422-3.8956.96817-4.5234.95689-1.8836-.0371-3.786.0905-4.4805.1123-4.2218.11905-10.71.4294-21.724.74008-14.048.39776-35.402 1.1327-40.755 1.4123" style="clip-rule:evenodd;fill:none;stroke-linecap:round;stroke-linejoin:round;stroke-miterlimit:1.5;stroke-width:.26413px;stroke:#000000"/>
  <path id="path1018" d="m328.16 54.82c.43866-.0319.64121 1.727.73778 2.0357.51645 1.6529 1.6358 3.4908-.42778 4.6384-.2879.15925-.64156.30153-.99197.33709-.77659.0769-1.1496-.37937-1.4448-.91054-.51105-.92357-.88778-1.7351-.85726-2.7371.0127-.41735.0821-1.3451.65952-1.5145.29779-.0873.46647.13207.68744.26622.54702.33184 1.2814 1.4382.47476 1.8656" style="clip-rule:evenodd;fill:none;stroke-linecap:round;stroke-linejoin:round;stroke-miterlimit:1.5;stroke-width:.26189px;stroke:#000000"/>
  <g id="text1662-9-2" transform="rotate(-3.4224 -1929.4 -1671.5)" style="clip-rule:evenodd;fill-rule:evenodd;stop-color:#000000;stroke-linecap:round;stroke-linejoin:round;stroke-miterlimit:1.5;stroke-width:.26458" aria-label="4 m">
   <path id="path3863" d="m253.94 193.77v-.96209h-1.9568v-.80229l2.0742-3.0363h.76968v3.033h.59356v.80555h-.59356v.96209zm0-1.7676v-1.6339l-1.0991 1.6339z" style="clip-rule:evenodd;fill-rule:evenodd;stop-color:#000000;stroke-linecap:round;stroke-linejoin:round;stroke-miterlimit:1.5;stroke-width:.26458"/>
   <path id="path3865" d="m255.58 193.77z" style="clip-rule:evenodd;fill-rule:evenodd;stop-color:#000000;stroke-linecap:round;stroke-linejoin:round;stroke-miterlimit:1.5;stroke-width:.26458"/>
   <path id="path3867" d="m257.1 190.31h.84469v.47289q.45332-.55116 1.0795-.55116.33266 0 .57726.13697.2446.13698.40114.41419.2283-.27721.49246-.41419.26417-.13697.56422-.13697.38157 0 .64574.15654.26417.15329.39462.45333.0946.22177.0946.71749v2.2144h-.91644v-1.9796q0-.51529-.0946-.66531-.1272-.19568-.39136-.19568-.19242 0-.36201.1174-.16959.11741-.2446.34571-.075.22503-.075.71423v1.6633h-.91644v-1.8981q0-.50551-.0489-.65227t-.15328-.2185q-.1011-.0718-.27722-.0718-.21198 0-.38157.11414-.16959.11415-.2446.3294-.0718.21525-.0718.71423v1.6828h-.91644z" style="clip-rule:evenodd;fill-rule:evenodd;stop-color:#000000;stroke-linecap:round;stroke-linejoin:round;stroke-miterlimit:1.5;stroke-width:.26458"/>
  </g>
 </g>
 <g id="draggable1">
  <path id="path1168" d="m348.2 35.28c1.9143.0317-.68182-.30625 0 0 3.6185 1.6254 7.4434 1.5117 11.321 1.28 2.9964-.1793 5.9648.51223 8.9646.27907 6.2987-.48993 21.581 1.1106 24.016 1.3195 2.86.24545 3.521-.81521 3.521-.81521l1.4867-.52871c2.6298.32361 4.4913 6.4838 2.456 8.9077-.45306.5383-2.8263.87613-3.2726.85081-1.3385-.0792-2.6972.005-3.1924.008-6.0007.0492-33.361.32113-40.185.60124-4.3253.17679-2.4393.44242-6.5638.0885-.70591-.74152-.68511-2.3708-1.308-3.1376-2.2829-2.8094-2.5651-3.6249 2.7567-8.8534z" style="clip-rule:evenodd;fill-rule:evenodd;fill:#9d9d9d;stroke-linecap:round;stroke-linejoin:round;stroke-miterlimit:1.5;stroke-width:.28166"/>
  <path id="path1170" d="m353.31 47.19c-1.4408.0482-5.3663.37605-5.607-.13424-1.7902-3.795-.0182-11.997.49181-11.768 3.6185 1.6254 7.4434 1.5117 11.321 1.28 2.9964-.1793 5.9648.51223 8.9646.27907 2.6361-.20503 6.8455-.0438 11.028.22787 5.8124.37788 11.574.97024 12.988 1.0916 2.86.24545 3.5456-.81472 3.5456-.81472l1.4842-.52892c2.6322.32382 4.4912 6.4841 2.4562 8.9061-.45307.5383-2.8266.87935-3.2726.85081-1.3361-.079-2.6985.0538-3.1926.0113-6.2598-.54696-34.378.40899-40.207.59935z" style="clip-rule:evenodd;fill-rule:evenodd;fill:#b2aaa6;stroke-linecap:round;stroke-linejoin:round;stroke-miterlimit:1.5;stroke-width:.28166"/>
  <path id="path1172" d="m347.56 37.48c-.1949-.0877-.0403-2.5048.64153-2.1985 3.6185 1.6254 7.4434 1.5117 11.321 1.28 2.9964-.1793 5.9648.51223 8.9646.27907 6.2987-.48993 21.582 1.4566 24.016 1.6655 2.8575.24523 3.5208-1.1612 3.5208-1.1612l1.4842-.52892c2.5346.31188 4.3538 6.0339 2.6679 8.6211.0557-.94042-.14622-1.6698-.28327-2.633-.59065-4.162-4.6007-3.7091-8.0307-2.0997-1.7405.81659-10.768-.78952-17.85-1.4502-2.3981-.22397-4.5734-.33932-6.1668-.21537-2.9998.23316-5.9682-.45837-8.9646-.27907-3.8779.23173-7.7026.34546-11.321-1.2796z" style="clip-rule:evenodd;fill-rule:evenodd;fill:#c5c5c5;stroke-linecap:round;stroke-linejoin:round;stroke-miterlimit:1.5;stroke-width:.28166"/>
  <path id="path1174" d="m347.9 35.5c-.8498-.0729-2.4161 1.3088-3.1484 2.5138-1.4138 2.3273-1.8267 8.6463 2.782 9.0328 2.9539.24775 3.4342-11.283.36637-11.547z" style="clip-rule:evenodd;fill-rule:evenodd;fill:#fae0d2;stroke-linecap:round;stroke-linejoin:round;stroke-miterlimit:1.5;stroke-width:.29818"/>
  <path id="path1178" d="m369.64 36.83c.009 1.1959-.0736 2.3922-.21103 3.5792-.0816.69111-.18494 1.379-.30147 2.0667-.067.39519-.14069.79286-.23597 1.1821-.0581.23404-.12272.46793-.19811.69626-.0325.0945-.065.18891-.0996.28332-.0245.0602-.0533.12041-.0821.17792-.0386.0837-.0815.1647-.12441.24569-.0117.0182-.0213.0365-.033.0548-.005.008-.01.0183-.0164.0261-.0213.0365-.047.073-.0767.10134-.009.008-.0271.0179-.0377.01-.017-.0136-.022-.0508-.0255-.072-.006-.0187-.007-.0399-.0106-.0611-.005-.0372-.006-.0716-.006-.10861.003-.0634.007-.12679.0166-.18742.0128-.0949.0299-.18974.0513-.28181.0597-.27368.13897-.54161.20736-.81244.0424-.17358.085-.35244.099-.53198.01-.13466-.002-.26721-.0117-.40235-.0138-.19608-.034-.39495-.0587-.59128-.14758-1.0907-.45503-2.1376-.77652-3.1637-.0832-.26651-.16649-.53301-.25193-.79957-.0521-.17054-.10416-.34372-.16069-.51436-.0854-.26656-.17526-.53322-.26739-.79729l-.0138-.0374c.48933.004.98162-.011 1.4727-.0496.35667-.0259.74173-.0485 1.1506-.0625zm-6.6802-.18821c1.0438.0778 2.0865.17932 3.1294.22532l.002.0133c-6e-4.17193.003.34131.007.51334.00063.09.003.1826.002.27515-.002.11104-.009.22198-.0139.33296-.009.21141-.02.42541-.0311.63941-.0289.58655-.0622 1.173-.1 1.762-.0421.69205-.0908 1.3839-.14612 2.0783-.0254.34592-.0553.69173-.0959 1.0346-.0243.21369-.053.42727-.0882.64069-.0205.12384-.0412.25032-.0704.3713-.016.0684-.0319.13415-.0544.19974-.0127.042-.0275.0814-.0467.12057-.01.0209-.0214.0392-.0352.0547-.0738.0855-.1739.0117-.23034-.0558-.0105-.0108-.0209-.0243-.0313-.0378-.0124-.0188-.0249-.035-.0371-.0564-.0165-.0242-.0309-.0483-.0452-.0751-.0226-.0376-.0406-.0777-.061-.1152-.0241-.0535-.0482-.10696-.0722-.16308-.024-.0561-.0458-.11219-.0697-.17095-.0554-.14417-.10637-.29087-.15512-.43751-.0352-.10401-.0681-.20796-.10779-.30942-.0258-.0667-.056-.13095-.084-.1951-.0438-.10685-.0876-.21371-.12709-.32046-.12434-.33361-.23081-.67474-.32609-1.0209-.082-.29558-.15507-.59623-.22142-.89936-.0836-.36439-.15811-.73385-.23277-1.1007-.10137-.51559-.20275-1.0312-.31519-1.5444-.0334-.14628-.0669-.28992-.1025-.43626-.0128-.0611-.0322-.12244-.045-.18359-.0273-.13555-.0455-.27619-.0683-.41428-.0369-.22043-.0739-.43822-.11295-.65871zm-11.017-.24124c.63424.10768 1.2721.18107 1.9155.22814l-1.5817 7.07.0281-.67122c.0341-.81656.0175-1.6264.0515-2.4403.061-1.4587-.0939-2.8485-.4133-4.1866zm6.3127.317c.012.65894.0107 1.3202-.052 1.98-.0775.80495-.2248 1.5977-.31769 2.4022-.0219.20845-.0416.41695-.0548.62826-.0109.15581-.0151.30913-.026.46494-.0265.31944-.0662.63857-.0861.95816-.01.18493-.0111.37007-.0232.55495-.004.0422-.003-.0847-.006-.12711-2e-4-.0476-.003-.0926-.005-.14032-.008-.1827-.0155-.3654-.0231-.55075-.026-.53231-.0807-1.0627-.14863-1.5907-.03-.2282-.0621-.45646-.0944-.68207-.0255-.17784-.0489-.35298-.0789-.52828-.0384-.23634-.0858-.4676-.13991-.69638-.21616-.9204-.54197-1.7905-.89728-2.6375l-.024-.0561c.65664-.008 1.314-.0322 1.976-.064zm12.679.0348c1.3196-.0109 2.8173.0248 4.3927.0914l-.005.0131c-.27683 1.0568-.56463 2.1133-.91918 3.1392-.2097.60605-.4409 1.201-.7042 1.7767-.16205.35854-.32848.71697-.52035 1.0536-.11617.20621-.24286.40159-.37799.58882-.0536.0754-.11374.14807-.16968.2261-.0677.0963-.12484.20335-.20523.28873-.0389.0388-.0845.08-.13521.0841-.0706.009-.12223-.069-.15697-.13071-.0878-.15816-.12334-.3574-.14851-.54316-.0373-.26277-.0504-.5276-.0568-.79492-.0101-.33619-.005-.66936.002-1.0051.003-.13482.009-.27224.0126-.40706.003-.12162.006-.24323-.00011-.36505-.0378-.67014-.15759-1.3237-.32855-1.96-.1864-.68691-.42643-1.3513-.66437-2.013zm7.7766.26722c1.6026.099 3.2176.21683 4.7534.33806l-.0128.0447c-.23502.94933-.49822 1.89-.80242 2.8139-.19314.57735-.39703 1.1492-.62886 1.7071-.0708.17026-.14593.34041-.22525.50517-.0528.1072-.10762.2117-.16674.31345-.13526.24279-.28993.47718-.47572.6685-.11932.12413-.25553.23198-.40509.2919-.13159.0498-.27259.0623-.40514.03-.0499-.0144-.11094-.0238-.14854-.0697-.0481-.0567-.0732-.1393-.0942-.21387-.0443-.14918-.0728-.30593-.097-.46258-.0981-.59486-.13636-1.2015-.20339-1.8036-.017-.1697-.0561-.33728-.0908-.50475-.0563-.28174-.11704-.56093-.18219-.84023-.21746-.94159-.48405-1.8632-.79758-2.7648zm8.7298.67349c1.1392.10384 2.1538.19678 2.9911.27756l-.002.003c-.1558.36663-.25788.76098-.33815 1.1585-.11254.53959-.18595 1.088-.26154 1.6364-.0447.33488-.0831.6752-.16049 1.004-.0215.0947-.043.18943-.0666.28145-.0159.0658-.034.13145-.0521.19715-.0334.1156-.0688.2285-.11292.33855-.0295.076-.0633.14927-.10554.21439-.0399.0625-.10212.13248-.17371.11226-.0456-.0117-.0877-.055-.11915-.0901-.0378-.0406-.0688-.0863-.0998-.132-.0473-.0752-.0878-.15816-.12591-.24371-.0625-.13375-.11361-.27517-.16038-.41648-.0878-.26397-.16211-.5329-.24097-.79931-.12914-.42895-.25148-.86304-.36943-1.297-.19802-.72422-.38704-1.4535-.58505-2.1777zm-27.576-1.1462c.93437-.0359 1.8654.007 2.7956.0719l-.0128.0447c-.0158.0631-.0296.13155-.0541.19181-.0172.0446-.043.0836-.0645.12543-.043.0836-.084.17259-.12069.26165-.10994.2672-.19181.54564-.25428.83248-.20586.93415-.20253 1.905-.28834 2.8553-.0157.16627-.0512.33208-.0908.49249-.0426.17887-.0896.35762-.16231.52254-.01.0236-.0194.0445-.0292.0681-.007.0131-.0143.0261-.0214.0392-.0377.0626-.0984.14843-.17173.11759-.0453-.0196-.0825-.0734-.11366-.11645-.0974-.13723-.14924-.31569-.18361-.4911-.0702-.36936-.0673-.75285-.11545-1.1243-.0244-.20427-.0804-.38812-.13369-.58249-.0743-.27159-.14632-.54311-.22277-.81475-.23065-.83609-.47698-1.6646-.75018-2.4806zm34.667 1.7462c-.0326.46478-.063.92962-.12617 1.391-.0129.0976-.0322.19233-.0471.28721-.0556.33197-.12004.66638-.19732.99255-.0456.1973-.0953.38922-.15378.58093-.0329.10502-.0704.21259-.11401.31207-.0269.0655-.058.12823-.0956.18553-.0212.0339-.0444.0651-.0697.0909-.0181.0128-.0363.0282-.0542.0358-.0424.0175-.0815.006-.11775-.0187-.0685-.0413-.11826-.11127-.16122-.18636-.0102-.0188-.0203-.0402-.0303-.0616-.0141-.0294-.0282-.0615-.0421-.0962-.0157-.0453-.0335-.0907-.0492-.13608-.0174-.056-.0347-.11457-.052-.17318-.0252-.08-.0481-.1625-.0777-.24256-.0375-.10142-.0749-.20283-.11229-.30688-.33807-.94446-.64686-1.9067-1.0728-2.7978l-.0182-.0375c.22959.0213.41981.0391.5642.0505.66484.0581 1.3612.0456 2.035-.007z" style="clip-rule:evenodd;fill-rule:evenodd;fill:#9f928b;stroke-linecap:round;stroke-linejoin:round;stroke-miterlimit:1.5;stroke-width:.24084"/>
  <path id="path1182" d="m387.51 37.97c1.0555.11243 2.0036.21966 2.7968.30468l-.007.0183c-.12094.37274-.20515.75959-.27631 1.1494-.0886.49254-.15325.98831-.22225 1.484l-.00011.003c-.45183-.008-.95562-.0333-1.5072-.0703l-.0151-.0585c-.27042-.93492-.51398-1.8824-.76872-2.8249zm-8.765-.83039c1.5731.12211 3.1562.26563 4.6626.40996l-.0132.0526c-.22338.88083-.47055 1.7532-.75225 2.6114l-.015.0446c-1.0089-.12455-2.0504-.25516-3.0985-.38594l-.009-.0373c-.21221-.90973-.46675-1.8046-.76613-2.6767zm15.759 1.4493c-.0194.25348-.0388.50961-.0648.76293-.021.18731-.0421.37726-.0784.56421l-.00023.005c-.54428.10342-1.068.23908-1.5534.40475l-.0312-.0933c-.20803-.58955-.41826-1.1792-.66675-1.7459l-.008-.0187c.15513.0169.28856.028.39568.0385.65837.0554 1.3458.0453 2.013-.005zm-42.568-2.191c.63424.10768 1.2721.18107 1.9155.22814l-.004.0317c-.0231.29042-.0484.58079-.0824.86831-.0532.43255-.11932.85951-.19642 1.2862l-.008.0342c-.41608-.0231-.8338-.0595-1.2489-.10645-.0653-.80042-.19304-1.5785-.37624-2.342zm18.995.36513c1.3148-.00043 2.8051.0536 4.3709.14113l-.0185.0736c-.2035.77285-.41567 1.5428-.6537 2.3016l-.0102.0342c-.20546-.0208-.41092-.0415-.6143-.0596-.80682-.0748-1.5878-.13834-2.3299-.18511l-.01-.032c-.19384-.77173-.45719-1.5081-.72274-2.2445zm-7.978-.12389c1.0438.0778 2.0865.17932 3.1294.22532l.002.0133c-6e-4.17193.003.34131.007.51334.00063.09.003.1826.002.27515-.005.16389-.0137.32768-.0205.49152-.0134.26685-.0267.5337-.04.80055l-.007.12415c-.87273-.0208-1.7458-.0865-2.6186-.1576l-.0164-.0797c-.0494-.23661-.10095-.47326-.15471-.70997-.0206-.0851-.0411-.17291-.0638-.2581-.008-.0293-.017-.0665-.0244-.0985-.025-.13814-.0455-.27619-.0683-.41428-.0369-.22043-.0739-.43822-.11295-.65871zm-4.7048.0758c.009.42344.0107.84673-.005 1.2696-.0114.27219-.0315.54417-.0581.81335l-.00011.003c-.37838.0201-.75445.0376-1.1304.0524l-.0136-.0426c-.20515-.71116-.46644-1.3919-.74582-2.0599l-.024-.0561c.65664-.008 1.314-.0322 1.976-.064zm11.385.11245c.005.71698-.0226 1.4332-.0744 2.1488l-.00055.0132c-.62539-.004-1.2032.008-1.7185.049-.0441.004-.0903.008-.13431.01l-.004-.0107c-.0832-.26651-.16649-.53301-.25193-.79957-.0521-.17054-.10416-.34372-.16069-.51436-.0854-.26656-.17526-.53322-.26739-.79729l-.0138-.0374c.48933.004.98162-.011 1.4727-.0496.35667-.0259.74162-.0458 1.1505-.0599zm-9.7756-.28309c.93437-.0359 1.8654.007 2.7956.0719l-.0128.0447c-.0158.0631-.0296.13155-.0541.19181-.0146.034-.0335.0653-.0501.0967-.0239.047-.0478.0941-.0697.14383-.0531.11512-.10203.23564-.14439.35631-.15176.42756-.23654.88051-.295 1.3341l-.004.0317c-.49677-.0356-.99607-.0634-1.4937-.0779l-.006-.0239c-.20678-.72443-.42245-1.4464-.66059-2.1557z" style="clip-rule:evenodd;fill-rule:evenodd;fill:#b9b0ac;stroke-linecap:round;stroke-linejoin:round;stroke-miterlimit:1.5;stroke-width:.24084"/>
  <path id="path1186" d="m348.73 35.78c-.75379-.7084-1.4612-.22475-3.1029 1.3463-2.5862 2.4748-1.9859 7.5437.70965 9.7648 3.2031 2.643 4.8525-8.7994 2.3933-11.111z" style="clip-rule:evenodd;fill:none;stroke-linecap:round;stroke-linejoin:round;stroke-miterlimit:1.5;stroke-width:.26315px;stroke:#000000"/>
  <path id="path1190" d="m348.2 35.28c3.6185 1.6254 7.4434 1.5117 11.321 1.28 2.9964-.1793 5.9648.51223 8.9646.27907 6.2987-.48993 21.579 1.2025 24.013 1.4114 2.86.24545 3.5577-.90643 3.5577-.90643l1.4867-.52871c2.6298.32362 4.4912 6.4841 2.4561 8.9067-.45306.5383-2.8263.87613-3.2726.8508-1.3385-.0792-2.6996.005-3.1951.0112-3.0114.0237-7.6467.18682-15.503.24866-10.021.0804-25.26.33223-29.085.49034" style="clip-rule:evenodd;fill:none;stroke-linecap:round;stroke-linejoin:round;stroke-miterlimit:1.5;stroke-width:.25912px;stroke:#000000"/>
  <path id="path1192" d="m347.72 38.11c.31398-.0219.36048 1.7334.41207 2.0427.2758 1.6568.97044 3.5112-.562 4.607-.21375.15205-.47336.28571-.72473.31323-.55699.0591-.79717-.40341-.97776-.93873-.31245-.93072-.53552-1.7469-.45816-2.7435.0322-.41511.13308-1.3369.55349-1.4926.21679-.0802.32466.14193.47449.28041.3709.34257.83212 1.4602.23431 1.8675" style="clip-rule:evenodd;fill:none;stroke-linecap:round;stroke-linejoin:round;stroke-miterlimit:1.5;stroke-width:.26315px;stroke:#000000"/>
  <g id="text1662-9" transform="rotate(-.48054 -14040 -11546)" style="clip-rule:evenodd;fill-rule:evenodd;stop-color:#000000;stroke-linecap:round;stroke-linejoin:round;stroke-miterlimit:1.5;stroke-width:.26458" aria-label="3 m">
   <path id="path3837" d="m272.42 162.98.88709-.10763q.0424.33918.22829.51855.1859.17938.45006.17938.28374 0 .47616-.21525.19568-.21525.19568-.58052 0-.3457-.1859-.5479-.18589-.20221-.45332-.20221-.17611 0-.42072.0685l.10111-.74684q.37179.01.56747-.15981.19568-.17285.19568-.45659 0-.24134-.1435-.38483-.1435-.1435-.38158-.1435-.23481 0-.40114.16306-.16633.16307-.2022.47616l-.84469-.1435q.0881-.43376.26417-.6914.17937-.26091.49572-.40767.31961-.15002.71423-.15002.6751 0 1.0828.43049.33592.35223.33592.79577 0 .62944-.68815 1.0045.41093.0881.65553.39462.24786.30657.24786.74033 0 .62944-.45984 1.073-.45985.44354-1.1447.44354-.64901 0-1.0762-.37179-.42724-.37506-.49573-.9784z" style="clip-rule:evenodd;fill-rule:evenodd;stop-color:#000000;stroke-linecap:round;stroke-linejoin:round;stroke-miterlimit:1.5;stroke-width:.26458"/>
   <path id="path3839" d="m275.88 164.25z" style="clip-rule:evenodd;fill-rule:evenodd;stop-color:#000000;stroke-linecap:round;stroke-linejoin:round;stroke-miterlimit:1.5;stroke-width:.26458"/>
   <path id="path3841" d="m277.4 160.79h.84468v.47289q.45333-.55117 1.0795-.55117.33265 0 .57725.13698t.40115.41419q.22829-.27721.49246-.41419t.56421-.13698q.38158 0 .64575.15655.26417.15328.39462.45332.0946.22177.0946.7175v2.2144h-.91644v-1.9796q0-.51529-.0946-.66531-.12719-.19568-.39136-.19568-.19242 0-.36201.11741t-.2446.3457q-.075.22503-.075.71423v1.6633h-.91643v-1.8981q0-.50551-.0489-.65227t-.15329-.21851q-.1011-.0718-.27721-.0718-.21199 0-.38158.11415t-.2446.32939q-.0718.21525-.0718.71424v1.6828h-.91643z" style="clip-rule:evenodd;fill-rule:evenodd;stop-color:#000000;stroke-linecap:round;stroke-linejoin:round;stroke-miterlimit:1.5;stroke-width:.26458"/>
  </g>
 </g>
 <g id="draggable2">
  <path id="path134" d="m380.09 19.98c.27952-.33521 1.5104-.54309 2.129-.53857.36779.005.7137-.008.86174-.002 5.7824.22356 11.938-.1464 14.998.28234 2.0712.29027 3.9573 3.8234 3.8743 5.4112-.19895 3.8114-1.026 3.5984-3.94 4.3491-4.3351 1.1162-11.94.79311-16.128.63119-4.5466 2.2463-4.758-6.5739-1.7953-10.133z" style="clip-rule:evenodd;fill-rule:evenodd;fill:#b2aaa6;stroke-linecap:round;stroke-linejoin:round;stroke-miterlimit:1.5;stroke-width:.30942"/>
  <path id="path138" d="m378.19 27.39c-.30349-2.3886.38126-5.5894 1.8984-7.4128.27952-.33521 1.5104-.54309 2.129-.53857.36779.005.7137-.008.86174-.002 5.7824.22356 11.902-.0346 14.961.39411 2.0712.29027 3.9573 3.8234 3.8743 5.4112-.0492.94237-.13697 1.6407-.28504 2.1653-.49222-1.7329-2.0436-4.0792-3.7153-4.3152-3.0598-.42551-8.3441-1.3089-14.126-1.5325-.14833-.006-1.329 1.1451-1.697 1.1438-.61851-.008-1.8493.20013-2.1289.53534-.88285 1.0621-1.484 2.5911-1.7723 4.1516z" style="clip-rule:evenodd;fill-rule:evenodd;fill:#c0c0c0;stroke-linecap:round;stroke-linejoin:round;stroke-miterlimit:1.5;stroke-width:.30942"/>
  <path id="path142" d="m380.85 19.45c-1.028-.0397-2.3581 2.4886-2.4604 4.4224-.13743 2.6053-.64523 8.0521 4.5261 6.1352 5.4303-2.0134 1.6467-10.414-2.0658-10.558z" style="clip-rule:evenodd;fill-rule:evenodd;fill:#d6a058;stroke-linecap:round;stroke-linejoin:round;stroke-miterlimit:1.5;stroke-width:.30003"/>
  <path id="path146" d="m383.84 21.02c-1.2695-1.4299-5.4913-4.303-5.6442 5.8322-.0522 3.4582 2.0664 3.6565 2.876 3.5552 5.6018-.69536 5.1203-6.7321 2.7682-9.3874z" style="clip-rule:evenodd;fill-rule:evenodd;fill:#fae0d2;stroke-linecap:round;stroke-linejoin:round;stroke-miterlimit:1.5;stroke-width:.26301px;stroke:#000000"/>
  <path id="path150" d="m381.82 29.17c1.0324-.99264 3.4162-3.9856 2.1818-5.3809-.66547-.74854-1.821-1.4047-2.8942-.93702-.92428.40294-2.07 2.4916-1.5053 3.4021.52.84255 1.5935.54115 2.1666-.15736" style="clip-rule:evenodd;fill:none;stroke-linecap:round;stroke-linejoin:round;stroke-miterlimit:1.5;stroke-width:.26301px;stroke:#000000"/>
  <path id="path154" d="m395.68 19.54c.0502.0708.0952.14136.13999.21458.67365 1.1355 1.5305 2.3257 1.854 3.6171.1077.43311.0582.89191.0808 1.335.0122.23348-.0273.70591-.0273.70591s.0896-.12628.0933-.0838c.0367.35093.0413.71385.0911 1.0679.004.0293.0613.39954.0296.39832-.69534-.0269-.4907-.73123-.68338-1.3636-.19013-.62958-.42795-1.2584-.74449-1.8372-.91994-1.6825-2.3913-2.8674-3.7632-4.0934 1.0591.001 2.0464.0103 2.9296.0391zm-3.1838-.0384c.23391.38768.42664.74464.63003 1.1682.56311 1.1868 1.0668 2.4031 1.5869 3.6068.16282.37698.31762.75631.48858 1.1283.11496.24539.51384.95454.37183.72399-1.3499-2.2049-2.7106-3.9918-4.6534-5.7218-.22022-.19386-.4266-.40307-.64143-.59937-.0793-.0719-.15951-.18887-.24267-.298.84747-.004 1.6711-.01 2.4601-.008zm-5.8838.0108c.0375.0571.0725.11137.10247.15754.80379 1.2623 1.7184 2.4654 2.5846 3.6904.29369.41647.8109.80452.79117 1.3148-.011.28554-.47726-.3256-.68975-.51386-.92682-.81959-1.8808-1.6905-2.7384-2.5869-.65381-.68987-1.2781-1.3892-1.9026-2.0859.61917.0107 1.2384.0188 1.8525.024zm3.0026-.00041c.0766.27833.37224.71341.46444.86261.48245.8077.97955 1.5789 1.5026 2.3643.23534.35067.4843.69127.71415 1.047.11487.17919.36045.67589.15322.62551-.45391-.10758-.76661-.58038-1.0753-.88358-1.2498-1.2319-2.0186-2.6464-3.115-4.0101.45546-.00093.90837-.005 1.3559-.006z" style="clip-rule:evenodd;fill-rule:evenodd;fill:#a79992;stroke-linecap:round;stroke-linejoin:round;stroke-miterlimit:1.5;stroke-width:.26458"/>
  <path id="path156" d="m392.83 19.57c1.0587.0118 2.0428.034 2.923.0733.025.038.0475.0733.0698.11126.61642 1.0406 1.3873 2.1269 1.7606 3.2931-.47141-.0659-.99001-.14418-1.5483-.22402-.88585-1.2628-2.0737-2.2487-3.2052-3.2536zm-.29377-.003c.21896.36327.40173.70396.59282 1.1032.29141.61232.56391 1.2345.83641 1.8567-.35294-.0481-.71647-.0965-1.0879-.14532-.59067-.6795-1.2328-1.3292-1.9546-1.974-.22022-.19386-.4266-.40307-.64143-.59937-.069-.0636-.13938-.16161-.21248-.25711.85245.004 1.6784.009 2.4672.0159zm-2.9066-.0171c.0898.27885.36553.68138.45265.82509.36555.61253.73984 1.2042 1.1274 1.7964-.36109-.0431-.7301-.0865-1.1045-.12743-.60915-.81789-1.1562-1.6678-1.8255-2.5039.45525.004.90532.006 1.35.01zm-3.0069-.0262c.035.0543.0675.10322.095.14665.47433.74384.98394 1.4652 1.5016 2.1842-.45911-.0416-.92361-.0807-1.3962-.11752-.0508-.0549-.10431-.10995-.15789-.16233-.65391-.68723-1.2755-1.3891-1.9-2.0831.62172.0134 1.2409.0241 1.8575.0321z" style="clip-rule:evenodd;fill-rule:evenodd;fill:#9b9696;stroke-linecap:round;stroke-linejoin:round;stroke-miterlimit:1.5;stroke-width:.26458"/>
  <path id="path158" d="m381.01 19.12c-.14739.41469 1.6709.29743 2.0682.31279 5.7824.22356 11.823-.23818 14.883.19057 2.0708.29026 3.9573 3.8234 3.8743 5.4112-.19925 3.8114-1.0258 3.5951-3.94 4.3491-4.3354 1.1162-9.7534.71594-13.607.7545-.8438.006-2.0228.31631-2.7751.28723" style="clip-rule:evenodd;fill:none;stroke-linecap:round;stroke-linejoin:round;stroke-miterlimit:1.5;stroke-width:.26301px;stroke:#000000"/>
  <g id="text1662" transform="rotate(-3.019 -2193.8 -1887.1)" style="clip-rule:evenodd;fill-rule:evenodd;stop-color:#000000;stroke-linecap:round;stroke-linejoin:round;stroke-miterlimit:1.5;stroke-width:.26458" aria-label="1 m">
   <path id="path3811" d="m285.51 160.12h-.91643v-3.4538q-.50225.46963-1.1839.69466v-.83164q.35875-.11741.77946-.44354.42071-.3294.57726-.76641h.74358z" style="clip-rule:evenodd;fill-rule:evenodd;stop-color:#000000;stroke-linecap:round;stroke-linejoin:round;stroke-miterlimit:1.5;stroke-width:.26458"/>
   <path id="path3813" d="m286.59 160.12z" style="clip-rule:evenodd;fill-rule:evenodd;stop-color:#000000;stroke-linecap:round;stroke-linejoin:round;stroke-miterlimit:1.5;stroke-width:.26458"/>
   <path id="path3815" d="m288.11 156.66h.84469v.4729q.45333-.55117 1.0795-.55117.33266 0 .57726.13698.2446.13697.40114.41419.2283-.27722.49247-.41419.26416-.13698.56421-.13698.38157 0 .64574.15655.26417.15328.39462.45332.0946.22177.0946.7175v2.2144h-.91643v-1.9796q0-.51529-.0946-.66531-.12719-.19568-.39136-.19568-.19242 0-.36201.11741t-.2446.3457q-.075.22503-.075.71423v1.6633h-.91644v-1.8981q0-.50551-.0489-.65227t-.15328-.21851q-.1011-.0718-.27721-.0718-.21199 0-.38158.11415-.16959.11414-.2446.32939-.0718.21525-.0718.71423v1.6829h-.91644z" style="clip-rule:evenodd;fill-rule:evenodd;stop-color:#000000;stroke-linecap:round;stroke-linejoin:round;stroke-miterlimit:1.5;stroke-width:.26458"/>
  </g>
 </g>
 <g id="draggable3">
  <path id="path546" d="m363.5 2.89c3.898 1.39 8.0041 1.2226 12.166.94882 3.216-.21175 6.4086.35503 9.6279.0951 2.7005-.21828 5.4089-.60522 7.643-.37383 1.8189.18871 5.7977-.0182 5.7977-.0182 1.1824.10193 2.2268 1.1179 2.8848 2.4264.91565 1.8211 1.0836 4.2092-.17861 5.4887-.48232.48874-3.028.8314-3.5074.81645-1.4352-.0476-2.896.0511-3.428.0651-3.2338.0729-11.601.45821-20.036.64859-10.759.2413-5.9703.44267-10.076.64974-4.643.23237-1.6271-11.009-.89263-10.747z" style="clip-rule:evenodd;fill-rule:evenodd;fill:#b2aaa6;stroke-linecap:round;stroke-linejoin:round;stroke-miterlimit:1.5;stroke-width:.27589"/>
  <path id="path550" d="m391.02 3.81c1.0773-.007 2.2055-.0199 3.3557-.0597.41904.99386.72764 2.0008.93546 3.0559.0137.0729.30659 1.6432-.0918 1.72-.19488.0395-.39213-.51699-.41339-.55887-.22112-.50364-.53175-1.1368-.93523-1.5659-.8805-.93388-1.8543-1.7654-2.8507-2.5914zm-23.169.0457c.73902.0823 1.4797.12915 2.2281.14969.22766.70446.40167 1.4201.46891 2.1748.0626.69802.17616 1.392.0197 2.0877-.0373.1644-.0773.33126-.13174.49386-.0493.14351-.2164.51317-.28335.37818-.66394-1.3548-1.405-3.3315-2.3017-5.2842zm8.3881-.0511c.25632.97314.4682 1.9785.34848 2.9284-.0747.5866-.36938 1.2277-.65025 1.769-.0804.14925-.27575.43706-.43242.34047-.74575-.46289-.82278-1.6051-1.158-2.2942-.41435-.84974-.90316-1.716-1.4284-2.5645.91149-.0344 1.8251-.0902 2.7443-.15095.19297-.011.38594-.022.57622-.0282zm3.1258.04c1.2129.0551 2.4239.13621 3.6383.15102.2342.81777.41521 1.6609.39104 2.4895-.0122.32441-.60263 2.0962-1.4739 1.5333-.45305-.29268-.74081-1.0094-.97811-1.399-.55229-.89491-1.0159-1.8613-1.5774-2.7748zm5.7291.0994c.0652-.004.13049-.009.19565-.0158 1.018-.0805 2.2569-.10194 3.6327-.10895.055.11883.1045.2402.15409.36629.13959.35731.31435.92159.38631 1.2976.12326.64164-.0916 1.1146-.23945 1.7248-.0226.093-.12338.48886-.32894.46245-.61691-.0863-1.0242-.89372-1.3121-1.2675-.70642-.91354-1.6069-1.6765-2.4882-2.459z" style="clip-rule:evenodd;fill-rule:evenodd;fill:#b2aaa6;stroke-linecap:round;stroke-linejoin:round;stroke-miterlimit:1.5;stroke-width:.25917"/>
  <path id="path554" d="m362.87 4.86c-.20994-.075-.0626-2.2372.67185-1.9753 3.898 1.39 8.0041 1.2226 12.166.94882 3.216-.21175 6.4086.35503 9.6279.0951 6.7594-.5461 13.281-.38084 13.281-.38084 2.6056-.0521 4.8744 5.0384 3.0841 7.3804.0527-.84263.14616-.54209-.009-1.3994-.21528-1.2026-1.9023-2.0208-4.1426-2.5731-4.6653-1.1504-11.731-1.1454-12.886-1.0521-3.2192.25992-6.4119-.30685-9.6279-.0951-4.1621.27375-8.268.44116-12.166-.94853z" style="clip-rule:evenodd;fill-rule:evenodd;fill:#c5c5c5;stroke-linecap:round;stroke-linejoin:round;stroke-miterlimit:1.5;stroke-width:.27589"/>
  <path id="path558" d="m391.02 3.81c1.0773-.007 2.2055-.0199 3.3557-.0597.41904.99386.72764 2.0008.93546 3.0559.0137.0729.30659 1.6432-.0918 1.72-.19488.0395-.39213-.51699-.41339-.55887-.22112-.50364-.53175-1.1368-.93523-1.5659-.8805-.93388-1.8543-1.7654-2.8507-2.5914zm-23.169.0457c.73902.0823 1.4797.12915 2.2281.14969.22766.70446.40167 1.4201.46891 2.1748.0626.69802.17616 1.392.0197 2.0877-.0373.1644-.0773.33126-.13174.49386-.0493.14351-.2164.51317-.28335.37818-.66394-1.3548-1.405-3.3315-2.3017-5.2842zm8.3881-.0511c.25632.97314.4682 1.9785.34848 2.9284-.0747.5866-.36938 1.2277-.65025 1.769-.0804.14925-.27575.43706-.43242.34047-.74575-.46289-.82278-1.6051-1.158-2.2942-.41435-.84974-.90316-1.716-1.4284-2.5645.91149-.0344 1.8251-.0902 2.7443-.15095.19297-.011.38594-.022.57622-.0282zm3.1258.04c1.2129.0551 2.4239.13621 3.6383.15102.2342.81777.41521 1.6609.39104 2.4895-.0122.32441-.60263 2.0962-1.4739 1.5333-.45305-.29268-.74081-1.0094-.97811-1.399-.55229-.89491-1.0159-1.8613-1.5774-2.7748zm5.7291.0994c.0652-.004.13049-.009.19565-.0158 1.018-.0805 2.2569-.10194 3.6327-.10895.055.11883.1045.2402.15409.36629.13959.35731.31435.92159.38631 1.2976.12326.64164-.0916 1.1146-.23945 1.7248-.0226.093-.12338.48886-.32894.46245-.61691-.0863-1.0242-.89372-1.3121-1.2675-.70642-.91354-1.6069-1.6765-2.4882-2.459z" style="clip-rule:evenodd;fill-rule:evenodd;fill:#988c8c;stroke-linecap:round;stroke-linejoin:round;stroke-miterlimit:1.5;stroke-width:.25917"/>
  <path id="path562" d="m364.05 3.15c-.90302-.51336-1.5923.0105-3.1303 1.6191-2.4227 2.5339-1.0833 6.8872 2.1029 8.4496 3.7866 1.8598 3.9735-8.3934 1.0274-10.069z" style="clip-rule:evenodd;fill-rule:evenodd;fill:#fae0d2;stroke-linecap:round;stroke-linejoin:round;stroke-miterlimit:1.5;stroke-width:.25978"/>
  <path id="path566" d="m364.05 3.15c-.90302-.51336-1.5923.0105-3.1303 1.6191-2.4227 2.5339-1.0833 6.8872 2.1029 8.4496 3.7866 1.8598 3.9735-8.3934 1.0274-10.069z" style="clip-rule:evenodd;fill-rule:evenodd;fill:#fae0d2;stroke-linecap:round;stroke-linejoin:round;stroke-miterlimit:1.5;stroke-width:.26498px;stroke:#000000"/>
  <path id="path570" d="m361.7 11.54c-.29124.0135-.22598-1.5308-.25454-1.8038-.15251-1.4619-.67955-3.1052.80287-4.0407.20673-.12978.45466-.24255.68845-.26214.51789-.0417.71114.36934.84488.84336.23111.82412.38675 1.5459.2539 2.4208-.0553.36442-.20528 1.1731-.60304 1.3023-.2051.0665-.29101-.13076-.4208-.25528-.32133-.30802-.67828-1.2992-.10123-1.6464" style="clip-rule:evenodd;fill-rule:evenodd;fill:#fae0d2;stroke-linecap:round;stroke-linejoin:round;stroke-miterlimit:1.5;stroke-width:.27082px;stroke:#000000"/>
  <path id="path576" d="m390.79 3.62c1.2693-.0461 2.4541-.0705 3.4942-.0832.42396.97004.74307 1.9506.96692 2.9745-.48296-.0765-.97706-.14553-1.4737-.20502-.92135-.96566-1.9473-1.8262-2.9874-2.6863zm-1.9222.0792c.0734.15843.14403.31931.20921.48747.13959.35731.31435.92159.38631 1.2976.031.16454.0417.32029.0351.46713-.85992-.0405-1.6596-.0641-2.3594-.0768-.6195-.68932-1.3389-1.3021-2.0445-1.9295.0652-.004.13049-.009.19565-.0158 1.2137-.0963 2.4166-.17337 3.5776-.23013zm-9.5023.14654c1.2129.0551 2.4239.13621 3.6383.15102.18598.64669.33841 1.311.37985 1.9719-.95171.0216-1.9052-.0112-2.8562-.0559-.3834-.68519-.74753-1.3899-1.1619-2.067zm-11.514.0111c.73902.0823 1.4797.12915 2.2281.14969.20878.64831.37226 1.3028.45155 1.9908-.59134.00036-1.1774-.0113-1.764-.0395-.28668-.68361-.59125-1.3927-.9157-2.1011zm8.3881-.0511c.17177.64716.32121 1.3069.36795 1.9557-.53738-.001-1.0771.0138-1.6161.048-.32906.0225-.65819.0427-.98732.0629-.33327-.63007-.70078-1.2638-1.085-1.8874.91149-.0344 1.8251-.0902 2.7443-.15095.19297-.011.38594-.022.57622-.0282z" style="clip-rule:evenodd;fill-rule:evenodd;fill:#a6a5a5;stroke-linecap:round;stroke-linejoin:round;stroke-miterlimit:1.5;stroke-width:.25917"/>
  <path id="path580" d="m363.5 2.89c3.898 1.39 8.0041 1.2226 12.166.94882 3.216-.21175 6.4086.35503 9.6279.0951 2.7005-.21828 5.4089-.60522 7.643-.37383 1.8189.18871 5.7977-.0182 5.7977-.0182 1.1824.10193 2.2268 1.1179 2.8848 2.4264.91565 1.8211 1.0836 4.2092-.17861 5.4887-.48232.48874-3.028.8314-3.5074.81645-1.4352-.0476-2.896.0511-3.428.0651-3.2338.0729-11.601.45821-20.036.64859-10.759.2413-5.9703.44267-10.076.64974" style="clip-rule:evenodd;fill:none;stroke-linecap:round;stroke-linejoin:round;stroke-miterlimit:1.5;stroke-width:.26761px;stroke:#000000"/>
  <g id="text1662-6" transform="rotate(-1.3654 -4909.9 -4101.7)" style="clip-rule:evenodd;fill-rule:evenodd;stop-color:#000000;stroke-linecap:round;stroke-linejoin:round;stroke-miterlimit:1.5;stroke-width:.26458" aria-label="2 m">
   <path id="path3785" d="m281.75 134.28v.85121h-3.2124q.0522-.48268.31309-.91318.2609-.43376 1.0306-1.148.61965-.57726.75989-.78272.18916-.28374.18916-.56095 0-.30657-.16633-.46963-.16307-.16633-.45333-.16633-.28699 0-.45658.17285t-.19568.57399l-.91318-.0913q.0815-.75663.51203-1.086.4305-.32939 1.0762-.32939.70771 0 1.1121.38157.4044.38158.4044.94905 0 .32287-.1174.61639-.11415.29026-.36527.60987-.16633.21199-.60009.60987-.43376.39789-.55117.52834-.11414.13046-.18589.25439z" style="clip-rule:evenodd;fill-rule:evenodd;stop-color:#000000;stroke-linecap:round;stroke-linejoin:round;stroke-miterlimit:1.5;stroke-width:.26458"/>
   <path id="path3787" d="m282.09 135.13z" style="clip-rule:evenodd;fill-rule:evenodd;stop-color:#000000;stroke-linecap:round;stroke-linejoin:round;stroke-miterlimit:1.5;stroke-width:.26458"/>
   <path id="path3789" d="m283.61 131.66h.84468v.4729q.45333-.55117 1.0795-.55117.33265 0 .57725.13698.2446.13697.40115.41419.22829-.27722.49246-.41419.26417-.13698.56421-.13698.38158 0 .64575.15655.26417.15328.39462.45332.0946.22177.0946.7175v2.2144h-.91644v-1.9796q0-.51529-.0946-.66531-.12719-.19568-.39136-.19568-.19242 0-.36201.11741t-.2446.3457q-.075.22503-.075.71423v1.6633h-.91643v-1.8981q0-.50551-.0489-.65227t-.15329-.21851q-.1011-.0718-.27721-.0718-.21199 0-.38158.11415-.16959.11414-.2446.32939-.0718.21525-.0718.71423v1.6829h-.91643z" style="clip-rule:evenodd;fill-rule:evenodd;stop-color:#000000;stroke-linecap:round;stroke-linejoin:round;stroke-miterlimit:1.5;stroke-width:.26458"/>
  </g>
 </g>
</svg>
