<?xml version="1.0" encoding="UTF-8"?>
<svg width="932.66" height="465.05" style="clip-rule:evenodd;fill-rule:evenodd;stroke-linecap:round;stroke-linejoin:round;stroke-miterlimit:1.5" version="1.1" viewBox="0 0 932.66 465.05" xml:space="preserve" xmlns="http://www.w3.org/2000/svg">
    <path d="m444.29 319.93-43.539 79.371" style="fill:none;stroke-width:6.71px;stroke:#987360"/><path d="m246.23 319.93-43.539 79.371" style="fill:none;stroke-width:6.71px;stroke:#987360"/><path d="m846.86 319.93-43.539 79.371" style="fill:none;stroke-width:6.71px;stroke:#987360"/><path d="m601.66 319.93-43.539 79.371" style="fill:none;stroke-width:6.71px;stroke:#987360"/><path d="m267.99 319.93-43.539 79.371" style="fill:none;stroke-width:6.71px;stroke:#987360"/><path d="m868.63 319.93-43.539 79.371" style="fill:none;stroke-width:6.71px;stroke:#987360"/><path d="m624.14 319.93-43.539 79.371" style="fill:none;stroke-width:6.71px;stroke:#987360"/><path d="m289.76 319.93-43.539 79.371" style="fill:none;stroke-width:6.71px;stroke:#987360"/><path d="m890.4 319.93-43.539 79.371" style="fill:none;stroke-width:6.71px;stroke:#987360"/><path d="m646.62 319.93-43.539 79.371" style="fill:none;stroke-width:6.71px;stroke:#987360"/><path d="m311.53 319.93-43.539 79.371" style="fill:none;stroke-width:6.71px;stroke:#987360"/><path d="m912.17 319.93-43.539 79.371" style="fill:none;stroke-width:6.71px;stroke:#987360"/><path d="m669.1 319.93-43.539 79.371" style="fill:none;stroke-width:6.71px;stroke:#987360"/><path d="m51.683 319.93-43.539 79.371" style="fill:none;stroke-width:6.71px;stroke:#987360"/><path d="m333.3 319.93-43.539 79.371" style="fill:none;stroke-width:6.71px;stroke:#987360"/><path d="m691.58 319.93-43.539 79.371" style="fill:none;stroke-width:6.71px;stroke:#987360"/><path d="m73.452 319.93-43.539 79.371" style="fill:none;stroke-width:6.71px;stroke:#987360"/><path d="m355.07 319.93-43.539 79.371" style="fill:none;stroke-width:6.71px;stroke:#987360"/><path d="m714.07 319.93-43.539 79.371" style="fill:none;stroke-width:6.71px;stroke:#987360"/><path d="m95.221 319.93-43.539 79.371" style="fill:none;stroke-width:6.71px;stroke:#987360"/><path d="m376.84 319.93-43.539 79.371" style="fill:none;stroke-width:6.71px;stroke:#987360"/><path d="m736.55 319.93-43.539 79.371" style="fill:none;stroke-width:6.71px;stroke:#987360"/><path d="m116.99 319.93-43.539 79.371" style="fill:none;stroke-width:6.71px;stroke:#987360"/><path d="m399.32 319.93-43.539 79.371" style="fill:none;stroke-width:6.71px;stroke:#987360"/><path d="m759.03 319.93-43.539 79.371" style="fill:none;stroke-width:6.71px;stroke:#987360"/><path d="m138.76 319.93-43.539 79.371" style="fill:none;stroke-width:6.71px;stroke:#987360"/><path d="m421.8 319.93-43.539 79.371" style="fill:none;stroke-width:6.71px;stroke:#987360"/><path d="m781.51 319.93-43.539 79.371" style="fill:none;stroke-width:6.71px;stroke:#987360"/><path d="m160.53 319.93-43.539 79.371" style="fill:none;stroke-width:6.71px;stroke:#987360"/><path d="m182.3 319.93-43.539 79.371" style="fill:none;stroke-width:6.71px;stroke:#987360"/><path d="m466.77 319.93-43.539 79.371" style="fill:none;stroke-width:6.71px;stroke:#987360"/><path d="m204.07 319.93-43.539 79.371" style="fill:none;stroke-width:6.71px;stroke:#987360"/><path d="m803.99 319.93-43.539 79.371" style="fill:none;stroke-width:6.71px;stroke:#987360"/><path d="m555.43 318.3-43.539 79.371" style="fill:none;stroke-width:6.71px;stroke:#987360"/><path d="m803.13 318.3-43.539 79.371" style="fill:none;stroke-width:6.71px;stroke:#987360"/><path d="m510.47 318.3-43.539 79.371" style="fill:none;stroke-width:6.71px;stroke:#987360"/><path d="m489.25 319.93-43.539 79.371" style="fill:none;stroke-width:6.71px;stroke:#987360"/><path d="m225.84 319.93-43.539 79.371" style="fill:none;stroke-width:6.71px;stroke:#987360"/><path d="m826.47 319.93-43.539 79.371" style="fill:none;stroke-width:6.71px;stroke:#987360"/><path d="m579.18 319.93-43.539 79.371" style="fill:none;stroke-width:6.71px;stroke:#987360"/><path d="m922.63 333.68h-905.6" style="fill:none;stroke-width:6.0659px;stroke:#808080"/><path d="m3.0329 380.33h894.62" style="fill:none;stroke-width:6.0659px;stroke:#808080"/><path d="m902.4 263.17c0-2.455-1.993-4.448-4.448-4.448h-56.111c-2.455 0-9.906 12.487-9.906 14.942l5.458 13.864c0 2.455 1.993 4.448 4.448 4.448l53.38 10.751c2.456 0 7.179-12.744 7.179-15.199z" style="clip-rule:evenodd;fill-rule:evenodd;fill:#a1a1a1;stroke-linecap:round;stroke-linejoin:round;stroke-miterlimit:1.5"/><path d="m897.06 278.91c0-4.588-3.725-8.313-8.314-8.313h-48.379c-4.589 0-8.314 3.725-8.314 8.313v16.628c0 4.588 3.725 8.313 8.314 8.313h48.379c4.589 0 8.314-3.725 8.314-8.313z" style="clip-rule:evenodd;fill-rule:evenodd;fill:#808080;stroke-linecap:round;stroke-linejoin:round;stroke-miterlimit:1.5"/><path d="m33.434 360.24c-5.8093-2.9178-9.6063-24.004-9.4504-29.895.065-2.4581 4.0043-13.923 2.6345-17.244-2.0135-4.8819 11.013-32.691 15.3-29.394 0 0 34.172-2.5359 56.147-5.5646 4.9416-.6811 19.978-1.0242 20.121-.2002 0 0 .95979.043 1.0812-3.6329.0105-.3225-3.5475-.5899-4.535-1.643-2.7054-2.8849.72816-7.2488 3.0217-6.9599 2.4827.3129 15.384.6373 18.805.5548 10.098-.2428 19.619-1.3754 29.578-2.0696 7.8342-.546 23.601 1.0952 23.601 1.0952 3.4036-.3658 5.1347.4358 5.5752 2.1383-.50207 3.7609-2.2917 7.5324-4.8729 6.6199 0 0 .0431 24.659.0431 38.436 0 4.2558-.29262 8.219.22486 12.417.17557 1.4177 0 7.3963 0 7.1285l-1.0842 24.501c7.9346.7568-146.69 1.7916-156.19 3.7126zm149.7-85.617-55.11-.2101-3.0975 40.389c19.364-2.7417 38.709-2.6041 58.041-.636z" style="clip-rule:evenodd;fill-rule:evenodd;fill:#227339;stroke-linecap:round;stroke-linejoin:round;stroke-miterlimit:1.5;stroke-width:.30966"/><path d="m217.16 234.68 1.94 82.99.03 2.26-28.91 35.84.15-80.3z" style="clip-rule:evenodd;fill-rule:evenodd;fill:#227339;stroke-linecap:round;stroke-linejoin:round;stroke-miterlimit:1.5"/><path d="m24.689 328c-.503-3.1775-.7525-5.9014-.7103-7.5024.065-2.4581 4.6653-16.518 5.6497-19.976.74634-2.6224 9.3549-18.76 10.794-17.794 0 0 45.122-1.4002 67.098-4.4289 4.9413-.6808 10.666-.1227 10.666-.1227l-.15647 7.659s-5.7243-.5581-10.666.123c-11.932 1.6443-53.35 2.5194-57.699 3.2821-7.5022 1.3159-19.84 20.874-20.037 25.197-.0961 2.1085-4.3767 9.4967-4.9394 13.563z" style="clip-rule:evenodd;fill-rule:evenodd;fill:#225831;stroke-linecap:round;stroke-linejoin:round;stroke-miterlimit:1.5;stroke-width:.30966"/><path d="m192.68 274.04 1.5638-1.1568 23.66-37.825c1.2986-1.3729 1.375-3.5512 1.1246-5.6933-.11097-.951-3.9504-2.0239-4.0368-1.6765l-71.866-1.5989c-3.7568-.085-6.6212 1.6175-8.7471 4.8022l-20.889 38.097z" style="clip-rule:evenodd;fill-rule:evenodd;fill:#4b4b4b;stroke-linecap:round;stroke-linejoin:round;stroke-miterlimit:1.5;stroke-width:.68026"/><path d="m120.41 327.66c0-5.417-1.5226-10.683-1.8201-16.096-.47097-8.5671.15062-17.604.45495-26.214.12998-3.6749.10626-7.3614.22762-11.038.0105-.3225-3.5475-.5899-4.535-1.643-2.7054-2.8849.72816-7.2488 3.0217-6.9599 2.4827.3129 15.384.6373 18.805.5548 10.098-.2428 19.619-1.3754 29.578-2.0696 7.8342-.546 23.601 1.0952 23.601 1.0952 3.4036-.3658 5.1347.4358 5.5752 2.1383-.50207 3.7609-2.2116 7.5442-4.7928 6.6321 0 0-.037 24.647-.037 38.424 0 4.2558-.29262 8.219.22486 12.417.17557 1.4177 0 7.3963 0 7.1285l-1.0842 24.501c7.9346.7568-146.69 1.7916-156.19 3.7126" style="clip-rule:evenodd;fill:none;stroke-linecap:round;stroke-linejoin:round;stroke-miterlimit:1.5;stroke-width:1.0002px;stroke:#000000"/><path d="m216.67 238.89c.22-.21.19-.23.67-.23.25 0-.2.84-.22.87-.27.55-.31 1.49-.21 2.06.45 2.56.49 4.91.21 7.49-.73 6.82-1.38 13.82-.82 20.67.99 12.21.5 24.47 2.02 36.64.46 3.66.3 9.61.3 13.32 0 1.37-.55 1.48-1.15 1.95-1.21.94-21.87 26.29-26.32 32.16" style="clip-rule:evenodd;fill:none;stroke-linecap:round;stroke-linejoin:round;stroke-miterlimit:1.5;stroke-width:1px;stroke:#000000"/><path d="m149.32 287.02c.179-.02.693-.17.513-.17" style="clip-rule:evenodd;fill:none;stroke-linecap:round;stroke-linejoin:round;stroke-miterlimit:1.5;stroke-width:.5px;stroke:#000000"/><path d="m118.19 277.97c-.14354-.824-19.778.6914-24.719 1.3725-21.976 3.0287-53.346 3.421-53.346 3.421-.7793-.5233-5.5961 6.7951-9.7692 14.344-1.4357 2.5976-2.7457 8.1668-3.7991 14.029-1.5392 8.5631-2.531 17.75-2.5695 19.209-.15586 5.8908 3.6411 26.977 9.4504 29.895" style="clip-rule:evenodd;fill:none;stroke-linecap:round;stroke-linejoin:round;stroke-miterlimit:1.5;stroke-width:1.0002px;stroke:#000000"/><path d="m127.95 273.93-3.2472 40.9c18.38-3.109 39.666-1.5207 58.572-.9143l-.5144-39.188z" style="clip-rule:evenodd;fill-rule:evenodd;fill:#416495;stroke-linecap:round;stroke-linejoin:round;stroke-miterlimit:1.5;stroke-width:1.0002px;stroke:#000000"/><ellipse cx="169.7" cy="360.23" rx="2.5874" ry="2.5963" style="clip-rule:evenodd;fill-rule:evenodd;fill:#ffffff;stroke-linecap:round;stroke-linejoin:round;stroke-miterlimit:1.5;stroke-width:.30966"/><ellipse cx="93.208" cy="360.23" rx="2.5874" ry="2.5963" style="clip-rule:evenodd;fill-rule:evenodd;fill:#ffffff;stroke-linecap:round;stroke-linejoin:round;stroke-miterlimit:1.5;stroke-width:.30966"/><ellipse cx="56.463" cy="360.23" rx="2.5874" ry="2.5963" style="clip-rule:evenodd;fill-rule:evenodd;fill:#ffffff;stroke-linecap:round;stroke-linejoin:round;stroke-miterlimit:1.5;stroke-width:.30966"/><ellipse cx="131.29" cy="360.23" rx="2.5874" ry="2.5963" style="clip-rule:evenodd;fill-rule:evenodd;fill:#ffffff;stroke-linecap:round;stroke-linejoin:round;stroke-miterlimit:1.5;stroke-width:.30966"/><ellipse cx="92.872" cy="360.23" rx="2.5874" ry="2.5963" style="clip-rule:evenodd;fill-rule:evenodd;fill:#ffffff;stroke-linecap:round;stroke-linejoin:round;stroke-miterlimit:1.5;stroke-width:.30966"/><ellipse cx="56.126" cy="360.23" rx="2.5874" ry="2.5963" style="clip-rule:evenodd;fill-rule:evenodd;fill:#ffffff;stroke-linecap:round;stroke-linejoin:round;stroke-miterlimit:1.5;stroke-width:.30966"/><path d="m119.25 274.77c.005-.1563.009-.3124.0144-.4687.0108-.3229-3.5472-.5902-4.5347-1.6435-2.7054-2.8846.72787-7.2485 3.0217-6.9596 2.4824.3129 15.384.6372 18.805.5548 10.098-.2428 19.618-1.3754 29.578-2.0696 7.8346-.5459 23.602 1.0952 23.602 1.0952 3.4015-.3657 5.1331.4359 5.5769 2.1382-.50553 3.7609-2.2943 7.5323-4.8746 6.62v.7332h-7.3039v-.1552l-55.11-.2103-.0279.3655z" style="clip-rule:evenodd;fill-rule:evenodd;fill:#4b4b4b;stroke-linecap:round;stroke-linejoin:round;stroke-miterlimit:1.5;stroke-width:.23067"/><path d="m162.47 345.81c-10.522 4.54-10.707 16.06-5.5679 23.82 2.2414 3.39 6.7814 7.4 12.749 7.19 7.0241-.25 11.221-5.37 12.749-9.55 1.3277-3.65 2.5127-7.83 1.6133-11.6-1.1136-4.66-7.224-11.41-14.791-11.64-2.5412-.08-4.6399.95-6.7528 1.78z" style="clip-rule:evenodd;fill-rule:evenodd;fill:#808080;stroke-linecap:round;stroke-linejoin:round;stroke-miterlimit:1.5;stroke-width:.96783px;stroke:#000000"/><path d="m169.1 360.29c-.05-3.61-2.38.74-1.14 1.36 1.99.99 2.72-1.94 1.7-2.45s-1.51.99-1.51 1.69" style="clip-rule:evenodd;fill:none;stroke-linecap:round;stroke-linejoin:round;stroke-miterlimit:1.5;stroke-width:1px;stroke:#000000"/><path d="m85.977 345.81c-10.522 4.54-10.707 16.06-5.5679 23.82 2.2414 3.39 6.7814 7.4 12.749 7.19 7.0241-.25 11.221-5.37 12.749-9.55 1.3277-3.65 2.5127-7.83 1.6133-11.6-1.1136-4.66-7.224-11.41-14.791-11.64-2.5412-.08-4.6399.95-6.7528 1.78z" style="clip-rule:evenodd;fill-rule:evenodd;fill:#808080;stroke-linecap:round;stroke-linejoin:round;stroke-miterlimit:1.5;stroke-width:.96783px;stroke:#000000"/><path d="m92.606 360.29c-.05-3.61-2.38.74-1.14 1.36 1.99.99 2.72-1.94 1.7-2.45s-1.51.99-1.51 1.69" style="clip-rule:evenodd;fill:none;stroke-linecap:round;stroke-linejoin:round;stroke-miterlimit:1.5;stroke-width:1px;stroke:#000000"/><path d="m49.231 345.81c-10.522 4.54-10.707 16.06-5.5679 23.82 2.2414 3.39 6.7814 7.4 12.749 7.19 7.0241-.25 11.221-5.37 12.749-9.55 1.3277-3.65 2.5127-7.83 1.6133-11.6-1.1136-4.66-7.224-11.41-14.791-11.64-2.5412-.08-4.6399.95-6.7528 1.78z" style="clip-rule:evenodd;fill-rule:evenodd;fill:#808080;stroke-linecap:round;stroke-linejoin:round;stroke-miterlimit:1.5;stroke-width:.96783px;stroke:#000000"/><path d="m55.86 360.29c-.05-3.61-2.38.74-1.14 1.36 1.99.99 2.72-1.94 1.7-2.45s-1.51.99-1.51 1.69" style="clip-rule:evenodd;fill:none;stroke-linecap:round;stroke-linejoin:round;stroke-miterlimit:1.5;stroke-width:1px;stroke:#000000"/><path d="m124.75 345.81c-10.522 4.54-10.707 16.06-5.5679 23.82 2.2414 3.39 6.7814 7.4 12.749 7.19 7.0241-.25 11.221-5.37 12.749-9.55 1.3277-3.65 2.5127-7.83 1.6133-11.6-1.1136-4.66-7.224-11.41-14.791-11.64-2.5412-.08-4.6399.95-6.7528 1.78z" style="clip-rule:evenodd;fill-rule:evenodd;fill:#808080;stroke-linecap:round;stroke-linejoin:round;stroke-miterlimit:1.5;stroke-width:.96783px;stroke:#000000"/><path d="m124.75 345.81c-10.522 4.54-10.707 16.06-5.5679 23.82 2.2414 3.39 6.7814 7.4 12.749 7.19 7.0241-.25 11.221-5.37 12.749-9.55 1.3277-3.65 2.5127-7.83 1.6133-11.6-1.1136-4.66-7.224-11.41-14.791-11.64-2.5412-.08-4.6399.95-6.7528 1.78z" style="clip-rule:evenodd;fill-rule:evenodd;fill:#808080;stroke-linecap:round;stroke-linejoin:round;stroke-miterlimit:1.5;stroke-width:.96783px;stroke:#000000"/><path d="m124.75 345.81c-10.522 4.54-10.707 16.06-5.5679 23.82 2.2414 3.39 6.7814 7.4 12.749 7.19 7.0241-.25 11.221-5.37 12.749-9.55 1.3277-3.65 2.5127-7.83 1.6133-11.6-1.1136-4.66-7.224-11.41-14.791-11.64-2.5412-.08-4.6399.95-6.7528 1.78z" style="clip-rule:evenodd;fill-rule:evenodd;fill:#808080;stroke-linecap:round;stroke-linejoin:round;stroke-miterlimit:1.5;stroke-width:.96783px;stroke:#000000"/><path d="m131.38 360.29c-.05-3.61-2.38.74-1.14 1.36 1.99.99 2.72-1.94 1.7-2.45s-1.51.99-1.51 1.69" style="clip-rule:evenodd;fill:none;stroke-linecap:round;stroke-linejoin:round;stroke-miterlimit:1.5;stroke-width:1px;stroke:#000000"/><path d="m219.88 344.02c.12-.09.46 11.97 0 11.04" style="clip-rule:evenodd;fill:none;stroke-linecap:round;stroke-linejoin:round;stroke-miterlimit:1.5;stroke-width:1px;stroke:#000000"/><path d="m230.84 357.15c-.89-2.03-9.01-.7-10.96-.7" style="clip-rule:evenodd;fill:none;stroke-linecap:round;stroke-linejoin:round;stroke-miterlimit:1.5;stroke-width:1px;stroke:#000000"/><path d="m216.37 229.36-21.05 34.71" style="clip-rule:evenodd;fill:none;stroke-linecap:round;stroke-linejoin:round;stroke-miterlimit:1.5;stroke-width:.5px;stroke:#000000"/><path d="m141.45 226.08c.198.18 74.061 1.23 75.531 2.1 1.66.99 3.26 3.23.67 6.77-6.34 8.67-20.09 32.01-21.06 33.29" style="clip-rule:evenodd;fill:none;stroke-linecap:round;stroke-linejoin:round;stroke-miterlimit:1.5;stroke-width:.5px;stroke:#000000"/><path d="m140.52 226.38c-.146-1.32-5.817 3.35-6.762 5.62-.906 2.18-18.252 33.49-18.042 33.28" style="clip-rule:evenodd;fill:none;stroke-linecap:round;stroke-linejoin:round;stroke-miterlimit:1.5;stroke-width:.5px;stroke:#000000"/><path d="m47.542 267.89v26.027c-.96313.1317 1.4103 5.1836 3.941 5.6165 4.3576.7456 6.6192 1.0252 10.387.9554 2.3971-.044 7.9622-9.3093 7.1158-9.6169l-2.4895-22.982h1.4364c.58119 0 1.0531-.5337 1.0531-1.1907l.40628-4.318c.27296-.1859-1.5454.9012-3.9573 1.4541-1.8314.4196-4.2264.3255-5.0276.3267-2.8954 0-6.7197-.059-9.8627.519-3.9587.7272-6.7314-2.9864-5.5221-2.8276.34667.046-.22535 2.0022.0303 2.4638v2.382c0 .657.47187 1.1907 1.0527 1.1907z" style="clip-rule:evenodd;fill-rule:evenodd;fill:#4b4b4b;stroke-linecap:round;stroke-linejoin:round;stroke-miterlimit:1.5;stroke-width:.99772px;stroke:#000000"/><path d="m49.665 268.58c-.007.28 1.922.48 2.339.51 2.31.14 5.218 1.07 7.307-.29" style="clip-rule:evenodd;fill:none;stroke-linecap:round;stroke-linejoin:round;stroke-miterlimit:1.5;stroke-width:.5px;stroke:#000000"/><path d="m68.985 260.86c-.637-2.14-6.524-4.6-10.523-3.81-3.447.68-7.636.12-9.021.66-2.585 1.03-4.699 2.6-4.389 5.07.432 3.46 16.971 1.15 18.426.96 1.967-.25 3.918.2 5.586-1.13.672-.53.134-1.03-.079-1.75z" style="clip-rule:evenodd;fill-rule:evenodd;fill:#313131;stroke-linecap:round;stroke-linejoin:round;stroke-miterlimit:1.5;stroke-width:1px;stroke:#000000"/><path d="m65.049 270.03s-1.8406-1.8582-2.0144-.7121c-.9134 6.0146 1.2015 16.382-2.6482 25.408.98923 3.6493 5.0118-1.4888 6.689-3.2433l-.82277-10.311z" style="clip-rule:evenodd;fill-rule:evenodd;fill:#6d6d6d;stroke-linecap:round;stroke-linejoin:round;stroke-miterlimit:1.5;stroke-width:.37508"/><path d="m180.63 365.11c.034-.42-.27959-.7895-.69954-.8242l-134.69-11.139c-.42027-.035-.7888.2783-.82282.6984l-.1233 1.5228c-.034.4201.27934.7887.69961.8234l134.69 11.139c.41995.035.78874-.2774.82275-.6975z" style="clip-rule:evenodd;fill-rule:evenodd;fill:#730f0f;stroke-linecap:round;stroke-linejoin:round;stroke-miterlimit:1.5;stroke-width:.29743"/><path d="m883.81 6.6669-28.725-.1006-8.0678 5.7466 6.7802 249.04 24.461 5.4092 5.3116-5.4092z" style="-inkscape-stroke:none;clip-rule:evenodd;fill:none;font-variation-settings:normal;stop-color:#000000;stroke-linecap:round;stroke-linejoin:round;stroke-miterlimit:1.5;stroke-width:6.6494px;stroke:#aa0000"/><path d="m905.45 320.3 25.601-46.671-.2529-51.144-120.64 42.84-.3438 51.89z" style="clip-rule:evenodd;fill-rule:evenodd;fill:#abc837;stroke-linecap:round;stroke-linejoin:round;stroke-miterlimit:1.5;stroke-width:.68026"/><rect x="848.41" y="13.588" width="29.478" height="253.52" style="-inkscape-stroke:none;clip-rule:evenodd;fill:none;font-variation-settings:normal;stop-color:#000000;stroke-linecap:round;stroke-linejoin:round;stroke-miterlimit:1.5;stroke-width:6.6494px;stroke:#aa0000"/><path d="m905.45 320.3 25.601-46.671-.2529-51.144-24.471 46.973z" style="clip-rule:evenodd;fill-rule:evenodd;fill:#bcd35f;stroke-linecap:round;stroke-linejoin:round;stroke-miterlimit:1.5;stroke-width:.68026"/><path d="m875.88 264.9-25.033-25.284 25.033-14.956-25.033-23.923 25.033-16.316-25.033-22.563 25.033-17.676-25.033-21.202 25.033-19.037-25.033-19.843 25.033-20.396-25.033-18.482 25.033-21.756" style="-inkscape-stroke:none;clip-rule:evenodd;fill:none;font-variation-settings:normal;stop-color:#000000;stroke-linecap:round;stroke-linejoin:round;stroke-miterlimit:1.5;stroke-width:6.6494px;stroke:#aa0000"/><path d="m905.45 268.76 25.601-46.671-96.071-2.2878-25.165 45.874z" style="clip-rule:evenodd;fill-rule:evenodd;fill:#cdde87;stroke-linecap:round;stroke-linejoin:round;stroke-miterlimit:1.5;stroke-width:.68026"/><path d="m904.9 270.91c-.47-2.88-.05 8.64-.05 11.51 0 8.17.36 16.32 0 24.49-.14 3.21.19 6.66-.02 9.87" style="clip-rule:evenodd;fill:none;stroke-linecap:round;stroke-linejoin:round;stroke-miterlimit:1.5;stroke-width:1px;stroke:#000000"/><path d="m929.36 227.54c-.02-.34-.02-1.36-.02-1.02 0 3.61-.17 7.2-.17 10.81 0 9.15.32 18.23.51 27.36.04 2.06-.57 8.82-.6 8.79" style="clip-rule:evenodd;fill:none;stroke-linecap:round;stroke-linejoin:round;stroke-miterlimit:1.5;stroke-width:1px;stroke:#000000"/><path d="m797.01 422.98c-.065-.663-7.483 7.462-8.003 8.121-1.768 2.239-26.293-2.126-28.848-.849" style="clip-rule:evenodd;fill:none;stroke-linecap:round;stroke-linejoin:round;stroke-miterlimit:1.5;stroke-width:1px;stroke:#000000"/><path d="m888.29 261.8c1.17.204-8.5399 8.102-8.6599 8.062-1.8-.602-28.59.402-30.69-.648" style="clip-rule:evenodd;fill:none;stroke-linecap:round;stroke-linejoin:round;stroke-miterlimit:1.5;stroke-width:1px;stroke:#000000"/><path d="m928.22 278.17c-1.72 2.58-4.91 9.17-6.48 11.85-3.93 6.7-7.77 13.7-11.32 20.61-.09.18-2.66 5.04-2.87 5.4-.33.6-2.68 3.71-2.02 3.38" style="clip-rule:evenodd;fill:none;stroke-linecap:round;stroke-linejoin:round;stroke-miterlimit:1.5;stroke-width:1px;stroke:#000000"/><path d="m884.69 14.124c-1.51 13.554 2.35 214.26.31 246.2" style="clip-rule:evenodd;fill:none;stroke-linecap:round;stroke-linejoin:round;stroke-miterlimit:1.5;stroke-width:1px;stroke:#000000"/><path d="m928.43 229.28c.16-.27.35-.95.57-.73.44.44-1.19 2.59-1.35 2.87-1.97 3.46-3.84 6.97-5.74 10.47-3.1 5.69-14.25 28.26-14.59 27.58" style="clip-rule:evenodd;fill:none;stroke-linecap:round;stroke-linejoin:round;stroke-miterlimit:1.5;stroke-width:1px;stroke:#000000"/><path d="m846.11 97.75c.68 10.77 1.81 151.08-.33 169.27" style="clip-rule:evenodd;fill:none;stroke-linecap:round;stroke-linejoin:round;stroke-miterlimit:1.5;stroke-width:1px;stroke:#000000"/><path d="m836.32 222.35c-.34 0-27.9 38.68-23.01 41.58" style="clip-rule:evenodd;fill:none;stroke-linecap:round;stroke-linejoin:round;stroke-miterlimit:1.5;stroke-width:1px;stroke:#000000"/><path d="m926.67 225.38c2.37-2.38-83.76-3.03-88.02-3.03" style="clip-rule:evenodd;fill:none;stroke-linecap:round;stroke-linejoin:round;stroke-miterlimit:1.5;stroke-width:1px;stroke:#000000"/><path d="m809.82 268.54c1.33-.67 0 36.14 0 45.75" style="clip-rule:evenodd;fill:none;stroke-linecap:round;stroke-linejoin:round;stroke-miterlimit:1.5;stroke-width:1px;stroke:#000000"/><path d="m809.7 421.57-4.86 9.735" style="clip-rule:evenodd;fill:none;stroke-linecap:round;stroke-linejoin:round;stroke-miterlimit:1.5;stroke-width:1px;stroke:#000000"/><path d="m325.41 355.06 25.6-46.674-.2529-11.557-146.58 42.839-.34357 12.305z" style="clip-rule:evenodd;fill-rule:evenodd;fill:#7b513a;stroke-linecap:round;stroke-linejoin:round;stroke-miterlimit:1.5;stroke-width:.68026"/><path d="m325.55 355.06 25.6-46.674-.132-12.087-25.788 46.427z" style="clip-rule:evenodd;fill-rule:evenodd;fill:#593f32;stroke-linecap:round;stroke-linejoin:round;stroke-miterlimit:1.5;stroke-width:.68026"/><path d="m325.55 342.77 25.6-46.674-122.16-2.2871-25.165 45.874z" style="clip-rule:evenodd;fill-rule:evenodd;fill:#987360;stroke-linecap:round;stroke-linejoin:round;stroke-miterlimit:1.5;stroke-width:.68026"/><path d="m293.87 348.35c-10.522 4.54-10.707 16.06-5.5678 23.82 2.2414 3.39 6.7814 7.4 12.749 7.19 7.0241-.25 11.221-5.37 12.749-9.55 1.3277-3.65 2.5127-7.83 1.6132-11.6-1.1135-4.66-7.2239-11.41-14.79-11.64-2.5413-.08-4.6399.95-6.7529 1.78z" style="clip-rule:evenodd;fill-rule:evenodd;fill:#808080;stroke-linecap:round;stroke-linejoin:round;stroke-miterlimit:1.5;stroke-width:.96783px;stroke:#000000"/><path d="m224.2 345.62c-10.522 4.54-10.707 16.06-5.5678 23.82 2.2414 3.39 6.7814 7.4 12.749 7.19 7.0241-.25 11.221-5.37 12.749-9.55 1.3277-3.65 2.5127-7.83 1.6132-11.6-1.1135-4.66-7.2239-11.41-14.79-11.64-2.5413-.08-4.6399.95-6.7529 1.78z" style="clip-rule:evenodd;fill-rule:evenodd;fill:#808080;stroke-linecap:round;stroke-linejoin:round;stroke-miterlimit:1.5;stroke-width:.96783px;stroke:#000000"/><path d="m230.83 360.1c-.05-3.61-2.38.74-1.14 1.36 1.99.99 2.72-1.94 1.7-2.45s-1.51.99-1.51 1.69" style="clip-rule:evenodd;fill:none;stroke-linecap:round;stroke-linejoin:round;stroke-miterlimit:1.5;stroke-width:1px;stroke:#000000"/><path d="m301.72 363.35c.49-1.92-2.38.03-1.62.79 1.46 1.45 3.26-1.04 1.14-1.75-1.01-.34.5 2.04.41.93" style="clip-rule:evenodd;fill:none;stroke-linecap:round;stroke-linejoin:round;stroke-miterlimit:1.5;stroke-width:1px;stroke:#000000"/><path d="m323.53 343.26c1.31.51-117.46-2.88-118.16-3.74" style="clip-rule:evenodd;fill:none;stroke-linecap:round;stroke-linejoin:round;stroke-miterlimit:1.5;stroke-width:1px;stroke:#000000"/><path d="m341.66 295.67c1.94 1.33 9.47-1.34 9.52.74.07 3.22-.27 10.91-.26 11.06.08 2.02-3.94 8.34-5.16 10.26-3.9 6.13-18.47 35.64-19.5 35.64" style="clip-rule:evenodd;fill:none;stroke-linecap:round;stroke-linejoin:round;stroke-miterlimit:1.5;stroke-width:1px;stroke:#000000"/><path d="m349.82 298.68c-.08-.21-4.95 9.05-6.37 11.18-4.89 7.34-8.12 15.43-12.07 23.33-1.11 2.22-2.16 4.36-3.39 6.52-.29.51-2.55 4.17-1.76 3.39" style="clip-rule:evenodd;fill:none;stroke-linecap:round;stroke-linejoin:round;stroke-miterlimit:1.5;stroke-width:1px;stroke:#000000"/><path d="m204.06 339.52c.12-.09.46 11.97 0 11.04" style="clip-rule:evenodd;fill:none;stroke-linecap:round;stroke-linejoin:round;stroke-miterlimit:1.5;stroke-width:1px;stroke:#000000"/><path d="m219.87 313.61c.9.35-.37.9-.94 1.54-1.56 1.76-2.77 3.73-3.8 5.84-2.07 4.28-11.13 17.6-10.84 17.6" style="clip-rule:evenodd;fill:none;stroke-linecap:round;stroke-linejoin:round;stroke-miterlimit:1.5;stroke-width:1px;stroke:#000000"/><path d="m284.79 354.09c.18-.43-35.45-1.11-37.42-1.44" style="clip-rule:evenodd;fill:none;stroke-linecap:round;stroke-linejoin:round;stroke-miterlimit:1.5;stroke-width:1px;stroke:#000000"/><path d="m215.02 352.65c-.89-2.03-9.01-.7-10.96-.7" style="clip-rule:evenodd;fill:none;stroke-linecap:round;stroke-linejoin:round;stroke-miterlimit:1.5;stroke-width:1px;stroke:#000000"/><path d="m325.03 354.91c-2.31-.36-6.6.41-8.84-.15" style="clip-rule:evenodd;fill:none;stroke-linecap:round;stroke-linejoin:round;stroke-miterlimit:1.5;stroke-width:1px;stroke:#000000"/><path d="m58.751 258.29c1.903.23 2.743-2.21 3.344-3.68 1.362-3.33 1.718-6.72 1.531-10.28-.062-1.18-1.76-2.04-.875-1.86 2.213.44 2.286.13 4.594-1.31 1.228-.77 3.105-1.56 4.048-2.74 1.124-1.4 1.173-3.01 1.641-4.7.844-3.04 2.355-5.75 2.954-8.86.321-1.67-.287-3.64.437-3.17 3.158 2.04 5.945 3.26 9.737 3.72 2.259.26 4.849.61 7.11.1 2.13-.47 3.762-1.73 5.579-2.84 3.224-1.97 6.688-3.9 9.408-6.56 4.755-4.66.685-7.07 2.594-7.38 3.531-.6 6.799-2.32 9.987-4.33 3.659-2.3 6.868-5 4.157-9.52-.533-.88-1.034-1.43-1.75-2.18-6.278-6.63-16.629-5.19-24.833-6.13-3.388-.39-8.285-1.28-11.596-.11-3.66 1.29-5.405 4.28-7.22 7.55-.555 1-2.299 2.86-2.954 2.41-1.072-.75-2.083-1.47-3.274-2.01-4.342-1.95-9.539-2.4-14.191-1.42-6.231 1.31-9.872 7.13-12.29 12.51-1.04 2.31-1.782 7.17-3.939 8.75-3.518 2.57-9.068-1.61-12.26 2.29-2.796 3.42-1.098 10.14.664 13.57.789 1.54 2.932 4.22 2.932 6.19 0 .97-1.189 1.27-1.947 1.47-1.456.38-4.216.65-4.595 2.51-.47 2.31 1.263 4.68 2.407 6.46 3.168 4.93 9.094 8.3 14.878 8.97 2.685.31 5.299-.88 7.986-.88" style="clip-rule:evenodd;fill-rule:evenodd;fill:#d9d9d9;stroke-linecap:round;stroke-linejoin:round;stroke-miterlimit:1.5"/><path d="m32.328 249.4c3.77 5 12.59-16.19 11.177-24.65-.832-4.97 19.241-18.16 25.471-19.47 4.652-.98 9.849-.52 14.191 1.43 1.191.54 2.203 1.26 3.275 2 .654.46 2.398-1.4 2.953-2.4 1.816-3.27 3.56-6.26 7.22-7.55 3.311-1.17 8.208-.28 11.596.11 6.304.72 13.876.04 19.894 2.69.226-1.17-.014-2.49-.931-4.02-.533-.88-1.034-1.43-1.75-2.18-6.278-6.63-16.629-5.19-24.833-6.13-3.388-.39-8.285-1.28-11.596-.11-3.66 1.29-5.405 4.28-7.22 7.55-.555 1-2.299 2.86-2.954 2.41-1.072-.75-2.083-1.47-3.274-2.01-4.342-1.95-9.539-2.4-14.191-1.42-6.231 1.31-9.872 7.13-12.29 12.51-1.04 2.31-1.782 7.17-3.939 8.75-3.518 2.57-9.068-1.61-12.26 2.29-2.796 3.42-1.098 10.14.664 13.57.789 1.54 2.932 4.22 2.932 6.19 0 .97-1.189 1.27-1.947 1.47-1.456.38-4.216.65-4.595 2.51-.47 2.31 1.133 4.77 2.407 6.46z" style="clip-rule:evenodd;fill-rule:evenodd;fill:#e5e5e5;stroke-linecap:round;stroke-linejoin:round;stroke-miterlimit:1.5"/><path d="m811.37 424.36c0-2.455-1.993-4.448-4.448-4.448h-56.111c-2.455 0-9.906 12.487-9.906 14.942l5.458 13.864c0 2.455 1.993 4.448 4.448 4.448l53.38 10.751c2.456 0 7.179-12.744 7.179-15.199z" style="clip-rule:evenodd;fill-rule:evenodd;fill:#a1a1a1;stroke-linecap:round;stroke-linejoin:round;stroke-miterlimit:1.5"/><path d="m794.91 167.86-28.726-.1006-8.0678 5.7466 6.7802 249.04 24.461 5.4092 5.3117-5.4092z" style="-inkscape-stroke:none;clip-rule:evenodd;fill:none;font-variation-settings:normal;stop-color:#000000;stroke-linecap:round;stroke-linejoin:round;stroke-miterlimit:1.5;stroke-width:6.6494px;stroke:#aa0000"/><rect x="759.51" y="174.78" width="29.478" height="253.52" style="-inkscape-stroke:none;clip-rule:evenodd;fill:none;font-variation-settings:normal;stop-color:#000000;stroke-linecap:round;stroke-linejoin:round;stroke-miterlimit:1.5;stroke-width:6.6494px;stroke:#aa0000"/><path d="m786.98 426.1-25.033-25.284 25.033-14.956-25.033-23.923 25.033-16.316-25.033-22.563 25.033-17.676-25.033-21.202 25.033-19.037-25.033-19.843 25.033-20.396-25.033-18.482 25.033-21.756" style="-inkscape-stroke:none;clip-rule:evenodd;fill:none;font-variation-settings:normal;stop-color:#000000;stroke-linecap:round;stroke-linejoin:round;stroke-miterlimit:1.5;stroke-width:6.6494px;stroke:#aa0000"/><path d="m806.02 436.24c0-2.455-1.993-4.448-4.448-4.448h-56.111c-2.455 0-4.448 1.993-4.448 4.448v24.358c0 2.455 1.993 4.448 4.448 4.448h56.111c2.455 0 4.448-1.993 4.448-4.448z" style="clip-rule:evenodd;fill-rule:evenodd;fill:#808080;stroke-linecap:round;stroke-linejoin:round;stroke-miterlimit:1.5"/><path d="m852.48 4.3381-93.518 170.48" style="clip-rule:evenodd;fill:none;stroke-linecap:round;stroke-linejoin:round;stroke-miterlimit:1.5;stroke-width:8.6763px;stroke:#808080"/><path d="m879.13 249.06c-1.54 1.56.4-9.77-.31-11.18-.25-.51-16.57.89-16.59.64-.05-.97-1.47 9.34-1.47 10.44" style="clip-rule:evenodd;fill:none;stroke-linecap:round;stroke-linejoin:round;stroke-miterlimit:1.5;stroke-width:3.66px;stroke:#000000"/><path d="m866.63 273.61c-4e-4 0-.9295.2471-1.0313.3164-.1018.069-.1393.1046-.1718.1328-.065.056-.088.082-.1094.1035-.043.043-.065.067-.09.094-.049.054-.099.1098-.1621.1816-.1258.1436-.2962.3422-.5117.5938-.4309.5031-1.036 1.2155-1.7598 2.0703-1.4475 1.7094-3.3665 3.9843-5.2832 6.2597-1.9166 2.2755-3.8307 4.5501-5.2656 6.2539-.7174.852-1.3147 1.5622-1.7324 2.0567-.2088.2472-.3746.4412-.4844.5703-.051.06-.085.1025-.1094.1309.011-.012.022-.024.074-.074 0 0 .1317.027.1484.027a1.83 1.83 0 00-.5293 2.1211s2.8427.5606 2.8965.5097c.054-.051.065-.064.078-.078.026-.028.034-.038.043-.049.019-.021.033-.037.051-.057.035-.04.079-.092.1367-.1601.1152-.1355.2801-.3313.4902-.5801.4202-.4975 1.0185-1.2061 1.7363-2.0586 1.4358-1.7049 3.3498-3.9794 5.2657-6.2539 1.6183-1.9213 3.1231-3.7055 4.457-5.2832-.015.2643-.013.3896-.029.6699-.2051 3.4382-.5573 8.0484-.9336 12.648-.3763 4.6-.7764 9.193-1.084 12.615-.1538 1.7111-.2853 3.1301-.3769 4.1094-.046.4896-.081.8698-.1055 1.1191-.012.1247-.022.2167-.027.2676 0 .025-.01.045 0 .031 8e-4-.01-.01.015.019-.1132 0-.012.3658-.1387.5215-.2032a1.83 1.83 0 00-.5567.5567c0 .054.7441 1.4765.7442 1.4765 1e-4 1e-4 2.8678-1.0569 2.8808-1.123.026-.1323.021-.1185.024-.1387.01-.04.01-.064.01-.1.01-.071.019-.1694.031-.2988.025-.2588.061-.6421.1074-1.1348.092-.9854.2228-2.4061.377-4.1211.3083-3.43.7104-8.0308 1.0878-12.644.3775-4.6137.7292-9.237.9375-12.728.1042-1.7458.1727-3.2047.1895-4.2696.01-.5324.01-.9569-.019-1.3339-.014-.1885-.024-.3517-.09-.6172-.033-.1328-.062-.2899-.2344-.5781-.172-.2883-.7218-.918-1.6054-.918zm-1.5254 37.057s.05.1007.059.1172a1.83 1.83 0 00-.1-.1016c0-4e-4.041-.016.041-.016z" style="-inkscape-stroke:none;clip-rule:nonzero;color:#000000;fill-rule:nonzero;fill:#000000;stroke-linecap:butt;stroke-linejoin:miter;stroke-miterlimit:1.5"/><path d="m874.28 311.35-19.65 1.48" style="clip-rule:evenodd;fill:none;stroke-linecap:round;stroke-linejoin:round;stroke-miterlimit:1.5;stroke-width:3.66px;stroke:#000000"/><path d="m906.32 271.87 25.601-46.671-.2529-51.144-120.64 42.84-.3438 51.89z" style="clip-rule:evenodd;fill-rule:evenodd;fill:#abc837;stroke-linecap:round;stroke-linejoin:round;stroke-miterlimit:1.5;stroke-width:.68026"/><path d="m907.06 272.29 25.601-46.671-.2529-51.144-24.471 46.973z" style="clip-rule:evenodd;fill-rule:evenodd;fill:#bcd35f;stroke-linecap:round;stroke-linejoin:round;stroke-miterlimit:1.5;stroke-width:.68026"/><path d="m906.07 220.73 25.601-46.671-96.071-2.2878-25.165 45.874z" style="clip-rule:evenodd;fill-rule:evenodd;fill:#cdde87;stroke-linecap:round;stroke-linejoin:round;stroke-miterlimit:1.5;stroke-width:.68026"/><path d="m905.52 222.89c-.4701-2.88-.05 8.64-.05 11.51 0 8.17.3601 16.32 0 24.49-.1399 3.21.19 6.66-.02 9.87" style="clip-rule:evenodd;fill:none;stroke-linecap:round;stroke-linejoin:round;stroke-miterlimit:1.5;stroke-width:1px;stroke:#000000"/><path d="m929.98 179.52c-.02-.34-.02-1.36-.02-1.02 0 3.61-.17 7.2-.17 10.81 0 9.15.3199 18.23.5099 27.36.04 2.06-.5699 8.82-.6 8.79" style="clip-rule:evenodd;fill:none;stroke-linecap:round;stroke-linejoin:round;stroke-miterlimit:1.5;stroke-width:1px;stroke:#000000"/><path d="m929.36 227.54c-1.72 2.58-4.91 9.17-6.48 11.85-3.93 6.7-7.77 13.7-11.32 20.61-.09.18-2.66 5.04-2.87 5.4-.33.6-2.68 3.71-2.02 3.38" style="clip-rule:evenodd;fill:none;stroke-linecap:round;stroke-linejoin:round;stroke-miterlimit:1.5;stroke-width:1px;stroke:#000000"/><path d="m929.05 181.26c.1601-.27.35-.95.5701-.73.44.44-1.1901 2.59-1.35 2.87-1.9701 3.46-3.8401 6.97-5.7401 10.47-3.1 5.69-14.25 28.26-14.59 27.58" style="clip-rule:evenodd;fill:none;stroke-linecap:round;stroke-linejoin:round;stroke-miterlimit:1.5;stroke-width:1px;stroke:#000000"/><path d="m836.94 174.33c-.34 0-27.9 38.68-23.01 41.58" style="clip-rule:evenodd;fill:none;stroke-linecap:round;stroke-linejoin:round;stroke-miterlimit:1.5;stroke-width:1px;stroke:#000000"/><path d="m927.29 177.36c2.3699-2.38-83.76-3.03-88.02-3.03" style="clip-rule:evenodd;fill:none;stroke-linecap:round;stroke-linejoin:round;stroke-miterlimit:1.5;stroke-width:1px;stroke:#000000"/><path d="m900.66 222.21c-1.38-.2-89.06-1.04-86.73-3.37" style="clip-rule:evenodd;fill:none;stroke-linecap:round;stroke-linejoin:round;stroke-miterlimit:1.5;stroke-width:1px;stroke:#000000"/><path d="m793.34 175.42c-.82-1.821-.187 3.991-.187 5.989v18.853c.414 15.314 1.726 30.594 2.49 45.888 1.43 28.589 3.03 57.884 1.068 86.44-1.279 18.607-.413 69.118-.413 87.813" style="clip-rule:evenodd;fill:none;stroke-linecap:round;stroke-linejoin:round;stroke-miterlimit:1.5;stroke-width:1px;stroke:#000000"/><path d="m788.9 383.61c.139-.724-.604 3.465-.63 3.636-.356 2.286-1.017 38.123-1.099 41.247-.014.522-.546 3.848-.1 4.294.02.02.4-.272.4-.399" style="clip-rule:evenodd;fill:none;stroke-linecap:round;stroke-linejoin:round;stroke-miterlimit:1.5;stroke-width:1px;stroke:#000000"/><path d="m756.95 177.81c-.1-1.289.233-5.132-.08-3.878-1.511 6.045-1.166 13.892-1.067 19.921.068 4.151.239 8.3.355 12.45.485 17.212 1.647 34.346 1.423 51.579-.213 16.459 1.449 33.737 0 50.157-1.818 20.608 1.292 44.575.415 65.31-.697 16.473 3.558 39.692.325 55.857" style="clip-rule:evenodd;fill:none;stroke-linecap:round;stroke-linejoin:round;stroke-miterlimit:1.5;stroke-width:1px;stroke:#000000"/><path d="m456.23 355.06 25.6-46.674-.2529-11.557-146.58 42.839-.3436 12.305z" style="clip-rule:evenodd;fill-rule:evenodd;fill:#7b513a;stroke-linecap:round;stroke-linejoin:round;stroke-miterlimit:1.5;stroke-width:.68026"/><path d="m456.37 355.06 25.6-46.674-.132-12.087-25.788 46.427z" style="clip-rule:evenodd;fill-rule:evenodd;fill:#593f32;stroke-linecap:round;stroke-linejoin:round;stroke-miterlimit:1.5;stroke-width:.68026"/><path d="m456.37 342.77 25.6-46.674-122.16-2.2871-25.165 45.874z" style="clip-rule:evenodd;fill-rule:evenodd;fill:#987360;stroke-linecap:round;stroke-linejoin:round;stroke-miterlimit:1.5;stroke-width:.68026"/><path d="m424.69 348.35c-10.522 4.54-10.708 16.06-5.5679 23.82 2.2414 3.39 6.7814 7.4 12.749 7.19 7.0241-.25 11.221-5.37 12.749-9.55 1.3277-3.65 2.5127-7.83 1.6132-11.6-1.1135-4.66-7.2239-11.41-14.79-11.64-2.5412-.08-4.6399.95-6.7528 1.78z" style="clip-rule:evenodd;fill-rule:evenodd;fill:#808080;stroke-linecap:round;stroke-linejoin:round;stroke-miterlimit:1.5;stroke-width:.96783px;stroke:#000000"/><path d="m355.02 345.62c-10.522 4.54-10.708 16.06-5.5679 23.82 2.2414 3.39 6.7814 7.4 12.749 7.19 7.0241-.25 11.221-5.37 12.749-9.55 1.3277-3.65 2.5127-7.83 1.6132-11.6-1.1135-4.66-7.2239-11.41-14.79-11.64-2.5412-.08-4.6399.95-6.7528 1.78z" style="clip-rule:evenodd;fill-rule:evenodd;fill:#808080;stroke-linecap:round;stroke-linejoin:round;stroke-miterlimit:1.5;stroke-width:.96783px;stroke:#000000"/><path d="m361.65 360.1c-.05-3.61-2.38.74-1.14 1.36 1.99.99 2.72-1.94 1.7-2.45s-1.51.99-1.51 1.69" style="clip-rule:evenodd;fill:none;stroke-linecap:round;stroke-linejoin:round;stroke-miterlimit:1.5;stroke-width:1px;stroke:#000000"/><path d="m432.54 363.35c.49-1.92-2.38.03-1.62.79 1.46 1.45 3.26-1.04 1.14-1.75-1.01-.34.5 2.04.41.93" style="clip-rule:evenodd;fill:none;stroke-linecap:round;stroke-linejoin:round;stroke-miterlimit:1.5;stroke-width:1px;stroke:#000000"/><path d="m454.35 343.26c1.31.51-117.46-2.88-118.16-3.74" style="clip-rule:evenodd;fill:none;stroke-linecap:round;stroke-linejoin:round;stroke-miterlimit:1.5;stroke-width:1px;stroke:#000000"/><path d="m472.48 295.67c1.94 1.33 9.47-1.34 9.52.74.07 3.22-.27 10.91-.26 11.06.08 2.02-3.94 8.34-5.16 10.26-3.9 6.13-18.47 35.64-19.5 35.64" style="clip-rule:evenodd;fill:none;stroke-linecap:round;stroke-linejoin:round;stroke-miterlimit:1.5;stroke-width:1px;stroke:#000000"/><path d="m480.64 298.68c-.08-.21-4.95 9.05-6.37 11.18-4.89 7.34-8.12 15.43-12.07 23.33-1.11 2.22-2.16 4.36-3.39 6.52-.29.51-2.55 4.17-1.76 3.39" style="clip-rule:evenodd;fill:none;stroke-linecap:round;stroke-linejoin:round;stroke-miterlimit:1.5;stroke-width:1px;stroke:#000000"/><path d="m334.88 339.52c.12-.09.46 11.97 0 11.04" style="clip-rule:evenodd;fill:none;stroke-linecap:round;stroke-linejoin:round;stroke-miterlimit:1.5;stroke-width:1px;stroke:#000000"/><path d="m350.69 313.61c.9.35-.37.9-.94 1.54-1.56 1.76-2.77 3.73-3.8 5.84-2.07 4.28-11.13 17.6-10.84 17.6" style="clip-rule:evenodd;fill:none;stroke-linecap:round;stroke-linejoin:round;stroke-miterlimit:1.5;stroke-width:1px;stroke:#000000"/><path d="m415.61 354.09c.18-.43-35.45-1.11-37.42-1.44" style="clip-rule:evenodd;fill:none;stroke-linecap:round;stroke-linejoin:round;stroke-miterlimit:1.5;stroke-width:1px;stroke:#000000"/><path d="m345.84 352.65c-.89-2.03-9.01-.7-10.96-.7" style="clip-rule:evenodd;fill:none;stroke-linecap:round;stroke-linejoin:round;stroke-miterlimit:1.5;stroke-width:1px;stroke:#000000"/><path d="m455.85 354.91c-2.31-.36-6.6.41-8.84-.15" style="clip-rule:evenodd;fill:none;stroke-linecap:round;stroke-linejoin:round;stroke-miterlimit:1.5;stroke-width:1px;stroke:#000000"/><path d="m592.37 355.06 25.6-46.674-.2529-11.557-146.58 42.839-.3436 12.305z" style="clip-rule:evenodd;fill-rule:evenodd;fill:#7b513a;stroke-linecap:round;stroke-linejoin:round;stroke-miterlimit:1.5;stroke-width:.68026"/><path d="m592.52 355.06 25.6-46.674-.1319-12.087-25.788 46.427z" style="clip-rule:evenodd;fill-rule:evenodd;fill:#593f32;stroke-linecap:round;stroke-linejoin:round;stroke-miterlimit:1.5;stroke-width:.68026"/><path d="m592.52 342.77 25.6-46.674-122.16-2.2871-25.165 45.874z" style="clip-rule:evenodd;fill-rule:evenodd;fill:#987360;stroke-linecap:round;stroke-linejoin:round;stroke-miterlimit:1.5;stroke-width:.68026"/><path d="m906.07 220.73 25.601-46.671-.2529-51.144-120.64 42.84-.3438 51.89z" style="clip-rule:evenodd;fill-rule:evenodd;fill:#abc837;stroke-linecap:round;stroke-linejoin:round;stroke-miterlimit:1.5;stroke-width:.68026"/><path d="m906.07 220.73 25.601-46.671-.2529-51.144-24.471 46.973z" style="clip-rule:evenodd;fill-rule:evenodd;fill:#bcd35f;stroke-linecap:round;stroke-linejoin:round;stroke-miterlimit:1.5;stroke-width:.68026"/><path d="m906.07 169.19 25.601-46.671-96.071-2.2878-25.165 45.874z" style="clip-rule:evenodd;fill-rule:evenodd;fill:#cdde87;stroke-linecap:round;stroke-linejoin:round;stroke-miterlimit:1.5;stroke-width:.68026"/><path d="m560.84 348.35c-10.522 4.54-10.707 16.06-5.5678 23.82 2.2414 3.39 6.7814 7.4 12.749 7.19 7.0241-.25 11.221-5.37 12.749-9.55 1.3277-3.65 2.5127-7.83 1.6132-11.6-1.1135-4.66-7.2239-11.41-14.79-11.64-2.5413-.08-4.6399.95-6.7529 1.78z" style="clip-rule:evenodd;fill-rule:evenodd;fill:#808080;stroke-linecap:round;stroke-linejoin:round;stroke-miterlimit:1.5;stroke-width:.96783px;stroke:#000000"/><path d="m491.17 345.62c-10.522 4.54-10.707 16.06-5.5678 23.82 2.2414 3.39 6.7814 7.4 12.749 7.19 7.0241-.25 11.221-5.37 12.749-9.55 1.3277-3.65 2.5127-7.83 1.6132-11.6-1.1135-4.66-7.2239-11.41-14.79-11.64-2.5413-.08-4.6399.95-6.7529 1.78z" style="clip-rule:evenodd;fill-rule:evenodd;fill:#808080;stroke-linecap:round;stroke-linejoin:round;stroke-miterlimit:1.5;stroke-width:.96783px;stroke:#000000"/><path d="m497.8 360.1c-.05-3.61-2.38.74-1.14 1.36 1.99.99 2.72-1.94 1.7-2.45s-1.51.99-1.51 1.69" style="clip-rule:evenodd;fill:none;stroke-linecap:round;stroke-linejoin:round;stroke-miterlimit:1.5;stroke-width:1px;stroke:#000000"/><path d="m568.69 363.35c.49-1.92-2.38.03-1.62.79 1.46 1.45 3.26-1.04 1.14-1.75-1.01-.34.5 2.04.41.93" style="clip-rule:evenodd;fill:none;stroke-linecap:round;stroke-linejoin:round;stroke-miterlimit:1.5;stroke-width:1px;stroke:#000000"/><path d="m905.51 171.35c-.47-2.88-.05 8.64-.05 11.51 0 8.17.36 16.32 0 24.49-.14 3.21.19 6.66-.02 9.87" style="clip-rule:evenodd;fill:none;stroke-linecap:round;stroke-linejoin:round;stroke-miterlimit:1.5;stroke-width:1px;stroke:#000000"/><path d="m929.97 127.98c-.02-.34-.02-1.36-.02-1.02 0 3.61-.17 7.2-.17 10.81 0 9.15.32 18.23.51 27.36.04 2.06-.57 8.82-.6 8.79" style="clip-rule:evenodd;fill:none;stroke-linecap:round;stroke-linejoin:round;stroke-miterlimit:1.5;stroke-width:1px;stroke:#000000"/><path d="m590.5 343.26c1.31.51-117.46-2.88-118.16-3.74" style="clip-rule:evenodd;fill:none;stroke-linecap:round;stroke-linejoin:round;stroke-miterlimit:1.5;stroke-width:1px;stroke:#000000"/><path d="m608.63 295.67c1.94 1.33 9.47-1.34 9.52.74.07 3.22-.27 10.91-.26 11.06.08 2.02-3.94 8.34-5.16 10.26-3.9 6.13-18.47 35.64-19.5 35.64" style="clip-rule:evenodd;fill:none;stroke-linecap:round;stroke-linejoin:round;stroke-miterlimit:1.5;stroke-width:1px;stroke:#000000"/><path d="m616.79 298.68c-.08-.21-4.95 9.05-6.37 11.18-4.89 7.34-8.12 15.43-12.07 23.33-1.11 2.22-2.16 4.36-3.39 6.52-.29.51-2.55 4.17-1.76 3.39" style="clip-rule:evenodd;fill:none;stroke-linecap:round;stroke-linejoin:round;stroke-miterlimit:1.5;stroke-width:1px;stroke:#000000"/><path d="m471.03 339.52c.12-.09.46 11.97 0 11.04" style="clip-rule:evenodd;fill:none;stroke-linecap:round;stroke-linejoin:round;stroke-miterlimit:1.5;stroke-width:1px;stroke:#000000"/><path d="m486.84 313.61c.9.35-.37.9-.94 1.54-1.56 1.76-2.77 3.73-3.8 5.84-2.07 4.28-11.13 17.6-10.84 17.6" style="clip-rule:evenodd;fill:none;stroke-linecap:round;stroke-linejoin:round;stroke-miterlimit:1.5;stroke-width:1px;stroke:#000000"/><path d="m551.76 354.09c.18-.43-35.45-1.11-37.42-1.44" style="clip-rule:evenodd;fill:none;stroke-linecap:round;stroke-linejoin:round;stroke-miterlimit:1.5;stroke-width:1px;stroke:#000000"/><path d="m481.99 352.65c-.89-2.03-9.01-.7-10.96-.7" style="clip-rule:evenodd;fill:none;stroke-linecap:round;stroke-linejoin:round;stroke-miterlimit:1.5;stroke-width:1px;stroke:#000000"/><path d="m592 354.91c-2.31-.36-6.6.41-8.84-.15" style="clip-rule:evenodd;fill:none;stroke-linecap:round;stroke-linejoin:round;stroke-miterlimit:1.5;stroke-width:1px;stroke:#000000"/><path d="m928.83 178.61c-1.72 2.58-4.91 9.17-6.48 11.85-3.93 6.7-7.77 13.7-11.32 20.61-.09.18-2.66 5.04-2.87 5.4-.33.6-2.68 3.71-2.02 3.38" style="clip-rule:evenodd;fill:none;stroke-linecap:round;stroke-linejoin:round;stroke-miterlimit:1.5;stroke-width:1px;stroke:#000000"/><path d="m929.04 129.72c.16-.27.35-.95.57-.73.44.44-1.19 2.59-1.35 2.87-1.97 3.46-3.84 6.97-5.74 10.47-3.1 5.69-14.25 28.26-14.59 27.58" style="clip-rule:evenodd;fill:none;stroke-linecap:round;stroke-linejoin:round;stroke-miterlimit:1.5;stroke-width:1px;stroke:#000000"/><path d="m836.93 122.79c-.34 0-27.9 38.68-23.01 41.58" style="clip-rule:evenodd;fill:none;stroke-linecap:round;stroke-linejoin:round;stroke-miterlimit:1.5;stroke-width:1px;stroke:#000000"/><path d="m927.28 125.82c2.37-2.38-83.76-3.03-88.02-3.03" style="clip-rule:evenodd;fill:none;stroke-linecap:round;stroke-linejoin:round;stroke-miterlimit:1.5;stroke-width:1px;stroke:#000000"/><path d="m900.65 170.67c-1.38-.2-89.06-1.04-86.73-3.37" style="clip-rule:evenodd;fill:none;stroke-linecap:round;stroke-linejoin:round;stroke-miterlimit:1.5;stroke-width:1px;stroke:#000000"/><path d="m810.43 168.98c1.33-.67 0 36.14 0 45.75" style="clip-rule:evenodd;fill:none;stroke-linecap:round;stroke-linejoin:round;stroke-miterlimit:1.5;stroke-width:1px;stroke:#000000"/><path d="m859.08 175.81c-1.2931.1153-2.5542.4238-3.7168.9238-.6058.2618-2.1078.9979-3.5625 1.836-.7274.419-1.3954.8265-1.9649 1.3008-.2847.2371-.5714.4159-.873 1.0488-.1508.3164-.319.8798-.1075 1.5195.2116.6397.7523 1.0489 1.1153 1.209a1.83 1.83 0 002.414-.9355 1.83 1.83 0 00.043-.1915c.278-.2035.6664-.4723 1.1992-.7793 1.2878-.7418 2.9852-1.5601 3.1895-1.6484 1.5342-.6587 3.5879-.859 5.4023-.4668 1.8159.3925 3.3304 1.313 4.1914 2.7481.2708.4509.2848.7888.018 1.4981-.2672.7093-.903 1.6378-1.7383 2.5371-1.6706 1.7984-4.0565 3.4895-5.2851 4.3086-.3453.2302-1.4876.6995-2.4356.9941-.9437.2933-1.7137.4749-1.7207.4766h-.01a1.8302 1.8302 0 00.832 3.5645h.01c.013 0 1.9941-.3808 2.3906-.3808 2.2521 0 4.0207-.5006 4.9375-.1329 3.3912 1.3549 5.1945 5.5399 4.5059 8.959-.3761 1.8875-2.3821 4.1317-4.9766 5.4922-2.5944 1.3605-5.5926 1.7467-7.4179.9629-5.243-2.2418-6.8945-5.2022-7.3242-10.779a1.83 1.83 0 00-1.9668-1.6836 1.83 1.83 0 00-1.6836 1.9648c.4902 6.362 3.3181 11.203 9.5332 13.861 3.3446 1.4361 7.2625.6435 10.561-1.086 3.298-1.7295 6.1613-4.4851 6.8652-8.0176 1.0292-5.1194-1.466-10.971-6.7324-13.076-.1766-.071-.3412-.071-.5156-.125 1.0274-.8099 2.1296-1.7553 3.1172-2.8184 1.0272-1.1058 1.949-2.3206 2.4824-3.7363s.5895-3.1848-.3047-4.6739c-1.479-2.4649-3.9775-3.8839-6.5566-4.4414-1.2896-.2787-2.6151-.3575-3.9082-.2421z" style="-inkscape-stroke:none;clip-rule:nonzero;color:#000000;fill-rule:nonzero;fill:#000000;stroke-linecap:butt;stroke-linejoin:miter;stroke-miterlimit:1.5"/><path d="m879.75 149.5c-1.54 1.56.4-9.77-.31-11.18-.25-.51-16.57.89-16.59.64-.05-.97-1.47 9.34-1.47 10.44" style="clip-rule:evenodd;fill:none;stroke-linecap:round;stroke-linejoin:round;stroke-miterlimit:1.5;stroke-width:3.66px;stroke:#000000"/><path d="m905.77 170.17 25.601-46.671-.2529-51.144-120.64 42.84-.34376 51.89z" style="clip-rule:evenodd;fill-rule:evenodd;fill:#abc837;stroke-linecap:round;stroke-linejoin:round;stroke-miterlimit:1.5;stroke-width:.68026"/><path d="m726.1 355.06 25.6-46.674-.2529-11.557-146.58 42.839-.3436 12.305z" style="clip-rule:evenodd;fill-rule:evenodd;fill:#7b513a;stroke-linecap:round;stroke-linejoin:round;stroke-miterlimit:1.5;stroke-width:.68026"/><path d="m726.24 355.06 25.6-46.674-.1319-12.087-25.788 46.427z" style="clip-rule:evenodd;fill-rule:evenodd;fill:#593f32;stroke-linecap:round;stroke-linejoin:round;stroke-miterlimit:1.5;stroke-width:.68026"/><path d="m726.24 342.77 25.6-46.674-122.16-2.2871-25.165 45.874z" style="clip-rule:evenodd;fill-rule:evenodd;fill:#987360;stroke-linecap:round;stroke-linejoin:round;stroke-miterlimit:1.5;stroke-width:.68026"/><path d="m694.56 348.35c-10.522 4.54-10.707 16.06-5.5678 23.82 2.2414 3.39 6.7814 7.4 12.749 7.19 7.0241-.25 11.221-5.37 12.749-9.55 1.3277-3.65 2.5127-7.83 1.6132-11.6-1.1135-4.66-7.2239-11.41-14.79-11.64-2.5413-.08-4.6399.95-6.7529 1.78z" style="clip-rule:evenodd;fill-rule:evenodd;fill:#808080;stroke-linecap:round;stroke-linejoin:round;stroke-miterlimit:1.5;stroke-width:.96783px;stroke:#000000"/><path d="m624.89 345.62c-10.522 4.54-10.707 16.06-5.5678 23.82 2.2414 3.39 6.7814 7.4 12.749 7.19 7.0241-.25 11.221-5.37 12.749-9.55 1.3277-3.65 2.5127-7.83 1.6132-11.6-1.1135-4.66-7.2239-11.41-14.79-11.64-2.5413-.08-4.6399.95-6.7529 1.78z" style="clip-rule:evenodd;fill-rule:evenodd;fill:#808080;stroke-linecap:round;stroke-linejoin:round;stroke-miterlimit:1.5;stroke-width:.96783px;stroke:#000000"/><path d="m631.52 360.1c-.05-3.61-2.38.74-1.14 1.36 1.99.99 2.72-1.94 1.7-2.45s-1.51.99-1.51 1.69" style="clip-rule:evenodd;fill:none;stroke-linecap:round;stroke-linejoin:round;stroke-miterlimit:1.5;stroke-width:1px;stroke:#000000"/><path d="m702.41 363.35c.49-1.92-2.38.03-1.62.79 1.46 1.45 3.26-1.04 1.14-1.75-1.01-.34.5 2.04.41.93" style="clip-rule:evenodd;fill:none;stroke-linecap:round;stroke-linejoin:round;stroke-miterlimit:1.5;stroke-width:1px;stroke:#000000"/><path d="m724.22 343.26c1.31.51-117.46-2.88-118.16-3.74" style="clip-rule:evenodd;fill:none;stroke-linecap:round;stroke-linejoin:round;stroke-miterlimit:1.5;stroke-width:1px;stroke:#000000"/><path d="m742.35 295.67c1.94 1.33 9.47-1.34 9.52.74.07 3.22-.27 10.91-.26 11.06.08 2.02-3.94 8.34-5.16 10.26-3.9 6.13-18.47 35.64-19.5 35.64" style="clip-rule:evenodd;fill:none;stroke-linecap:round;stroke-linejoin:round;stroke-miterlimit:1.5;stroke-width:1px;stroke:#000000"/><path d="m750.51 298.68c-.08-.21-4.95 9.05-6.37 11.18-4.89 7.34-8.12 15.43-12.07 23.33-1.11 2.22-2.16 4.36-3.39 6.52-.29.51-2.55 4.17-1.76 3.39" style="clip-rule:evenodd;fill:none;stroke-linecap:round;stroke-linejoin:round;stroke-miterlimit:1.5;stroke-width:1px;stroke:#000000"/><path d="m604.75 339.52c.12-.09.46 11.97 0 11.04" style="clip-rule:evenodd;fill:none;stroke-linecap:round;stroke-linejoin:round;stroke-miterlimit:1.5;stroke-width:1px;stroke:#000000"/><path d="m620.56 313.61c.9.35-.37.9-.94 1.54-1.56 1.76-2.77 3.73-3.8 5.84-2.07 4.28-11.13 17.6-10.84 17.6" style="clip-rule:evenodd;fill:none;stroke-linecap:round;stroke-linejoin:round;stroke-miterlimit:1.5;stroke-width:1px;stroke:#000000"/><path d="m685.48 354.09c.18-.43-35.45-1.11-37.42-1.44" style="clip-rule:evenodd;fill:none;stroke-linecap:round;stroke-linejoin:round;stroke-miterlimit:1.5;stroke-width:1px;stroke:#000000"/><path d="m615.71 352.65c-.89-2.03-9.01-.7-10.96-.7" style="clip-rule:evenodd;fill:none;stroke-linecap:round;stroke-linejoin:round;stroke-miterlimit:1.5;stroke-width:1px;stroke:#000000"/><path d="m725.72 354.91c-2.31-.36-6.6.41-8.84-.15" style="clip-rule:evenodd;fill:none;stroke-linecap:round;stroke-linejoin:round;stroke-miterlimit:1.5;stroke-width:1px;stroke:#000000"/><path d="m810.44 220.52c1.33-.67 0 36.14 0 45.75" style="clip-rule:evenodd;fill:none;stroke-linecap:round;stroke-linejoin:round;stroke-miterlimit:1.5;stroke-width:1px;stroke:#000000"/><path d="m861.65 228.18c-1.899.1114-3.7679.5642-5.3828 1.2226-1.6121.6573-2.9845 1.4353-3.9043 2.7207-.7598 1.0504-1.0925 2.1932-1.1328 3.6387-.02.7236.042 1.5624.6484 2.3906.6063.8283 1.8597 1.2755 2.8867 1.1465a1.83 1.83 0 001.5879-2.0449 1.83 1.83 0 00-1.4551-1.4258c.035-.5402.4802-1.6322.4297-1.5625a1.8302 1.8302 0 00.01-.012c.1751-.2455 1.0835-.961 2.3145-1.4629s2.77-.8742 4.2148-.959c1.4448-.085 2.7754.1341 3.6485.5918.873.4578 1.3723 1.0066 1.578 2.2481.2808 1.6876-.5027 4.3516-2.1542 7.2734-1.6516 2.9218-4.0637 6.0766-6.5273 8.9648-2.4637 2.8882-4.9752 5.5167-6.8477 7.4747-.9364.9789-1.7082 1.7856-2.2656 2.4101-.2787.3123-.4989.5669-.7012.8516-.1011.1423-.2018.2741-.3223.5625-.06.1442-.1383.3287-.1562.6777-.018.349.099.9835.5449 1.4297 4e-4 4e-4.5229.3687.6348.4121.1118.043.1721.058.2207.07.097.024.1401.031.1777.037.075.012.1132.015.1543.02.082.01.159.013.2539.019.1898.013.4406.026.7578.041.6346.03 1.527.062 2.5996.096 2.1453.067 5.0129.1319 7.961.1426 2.9481.011 5.9703-.031 8.4512-.1777 1.2404-.073 2.3433-.1705 3.2695-.3125s1.5928-.1849 2.4687-.7676a1.83 1.83 0 00.5098-2.5371 1.83 1.83 0 00-2.5371-.5118c.2859-.1901-.2573.086-.9961.1993-.7389.1132-1.7573.2081-2.9297.2773-2.3448.1383-5.3183.1805-8.2226.1699-2.8243-.01-5.5491-.073-7.6446-.1367.1658-.1736.2371-.2562.416-.4433 1.8731-1.9586 4.4375-4.6409 6.9864-7.629 2.5488-2.988 5.0856-6.2748 6.9297-9.5371 1.844-3.2622 3.1024-6.5234 2.5781-9.6757-.3742-2.2586-1.7748-3.9912-3.4902-4.8907-1.7154-.8994-3.6637-1.1134-5.5625-1.0019z" style="-inkscape-stroke:none;clip-rule:nonzero;color:#000000;fill-rule:nonzero;fill:#000000;stroke-linecap:butt;stroke-linejoin:miter;stroke-miterlimit:1.5"/>
<path d="m900.04 270.23c-1.38-.2-89.06-1.04-86.73-3.37" style="clip-rule:evenodd;fill:none;stroke-linecap:round;stroke-linejoin:round;stroke-miterlimit:1.5;stroke-width:1px;stroke:#000000"/><g><path d="m825.1 201.21-9.3496.88086a1.1501 1.1501 0 00-.76367.39258l-2.8906 3.3476a1.1501 1.1501 0 00-.27734.80664l.78711 16.492a1.1501 1.1501 0 001.0664 1.0918l3.043.21679 1.9766 6.0996c.35967 2.2751.45711 3.4299-.32422 4.7012-.45539.73974-.51142.74086-1.2578.71874-.4928-.0148-.44492.0107-.78321-.53906-.3043-.4944-.45998-1.0037-.45312-1.3438.007-.34007.0606-.52748.47461-.81445.42737-.29558.46149-.47121.58593-.73633.12445-.26511.23407-.58831.20703-1.0195-.027-.43122-.28393-.98815-.7246-1.2988-.44067-.31067-.94056-.40073-1.4824-.40039.14486 0-.18134-.0187-.46875-.0195-.2874-.00084-.6527.0122-1.0723.14258-.41956.13034-.95061.42908-1.248.99609-.26268.50077-.2689 1.0814-.13281 1.6465-.032 1.9502.3483 4.1082 1.3711 5.7676.7732 1.2568 2.0418 2.2421 3.6133 2.2891 1.8263.055 3.3708-1.0624 4.3184-2.6055 1.3051-2.1235 1.7632-5.1117 1.293-7.9941a1.1501 1.1501 0 00-.0234-.10156l-.48437-5.1055 1.209.0859a1.1501 1.1501 0 001.0098-.46484l2.6465-3.6035a1.1501 1.1501 0 00.22071-.73437l-.83008-17.803a1.1501 1.1501 0 00-1.2559-1.0918z" style="-inkscape-stroke:none;color:#000000;fill:#ffffff;stroke-width:8.1"/><path d="m825.27 197.15c-3.4686.26718-6.9368.61082-10.397.97092-2.4103.38614-3.6355 2.6514-5.1712 4.2743-1.3172 1.2895-2.1759 3.0862-1.9064 4.9602.28272 5.498.48463 11.003.81816 16.497-.24459 1.7142 2.8927 2.9253.79573 3.9596-1.5149 1.5453-1.6946 3.7999-1.4319 5.8293.0994 4.2618 2.1577 8.9604 6.3874 10.537 3.9939 1.566 8.6205-.69684 10.576-4.3446 1.8444-3.0767 2.2072-7.0758 1.6614-10.394-.0507-.55956-.10639-1.123-.15823-1.6837 1.4853-.93365 2.2362-2.5975 3.331-3.9162 1.1567-1.3036 1.6505-3.0627 1.4129-4.7827-.28845-5.8185-.50877-11.642-.83976-17.457-.34157-2.4518-2.6034-4.4309-5.0777-4.4492z" style="-inkscape-stroke:none;color:#000000;fill:#ffffff"/></g><path d="m825.21 202.35-9.3501.88-2.8899 3.349 10.424 17.177 2.6469-3.603z" style="clip-rule:evenodd;fill-rule:evenodd;fill:#003b00;stroke-linecap:round;stroke-linejoin:round;stroke-miterlimit:1.5"/><path d="m813.09 106.77c.134-3.872.47 6.185.595 7.374.11937 1.1342.38207 3.5568.7301 6.849m1.6449 16.147c1.4338 14.705 2.966 32.462 2.966 41.492 0 5.65-.148 25.665.286 25.665" style="clip-rule:evenodd;fill:none;stroke-linecap:round;stroke-linejoin:round;stroke-miterlimit:1.5;stroke-width:1px;stroke:#000000"/><path d="m905.77 170.17 25.601-46.671-.2529-51.144-24.471 46.973z" style="clip-rule:evenodd;fill-rule:evenodd;fill:#bcd35f;stroke-linecap:round;stroke-linejoin:round;stroke-miterlimit:1.5;stroke-width:.68026"/><path d="m905.77 118.63 25.601-46.671-96.071-2.2878-25.165 45.874z" style="clip-rule:evenodd;fill-rule:evenodd;fill:#cdde87;stroke-linecap:round;stroke-linejoin:round;stroke-miterlimit:1.5;stroke-width:.68026"/><path d="m905.22 120.79c-.47-2.88-.05 8.64-.05 11.51 0 8.17.36 16.32 0 24.49-.14 3.21.19 6.66-.02 9.87" style="clip-rule:evenodd;fill:none;stroke-linecap:round;stroke-linejoin:round;stroke-miterlimit:1.5;stroke-width:1px;stroke:#000000"/><path d="m929.68 77.417c-.02-.34-.02-1.36-.02-1.02 0 3.61-.17 7.2-.17 10.81 0 9.15.32 18.23.51 27.36.04 2.06-.57 8.82-.6 8.79" style="clip-rule:evenodd;fill:none;stroke-linecap:round;stroke-linejoin:round;stroke-miterlimit:1.5;stroke-width:1px;stroke:#000000"/><path d="m928.54 128.05c-1.72 2.58-4.91 9.17-6.48 11.85-3.93 6.7-7.77 13.7-11.32 20.61-.09.18-2.66 5.04-2.87 5.4-.33.6-2.68 3.71-2.02 3.38" style="clip-rule:evenodd;fill:none;stroke-linecap:round;stroke-linejoin:round;stroke-miterlimit:1.5;stroke-width:1px;stroke:#000000"/><path d="m928.75 79.157c.16-.27.35-.95.57-.73.44.44-1.19 2.59-1.35 2.87-1.97 3.46-3.84 6.97-5.74 10.47-3.1 5.69-14.25 28.26-14.59 27.58" style="clip-rule:evenodd;fill:none;stroke-linecap:round;stroke-linejoin:round;stroke-miterlimit:1.5;stroke-width:1px;stroke:#000000"/><path d="m926.99 75.257c2.37-2.38-83.76-3.03-88.02-3.03" style="clip-rule:evenodd;fill:none;stroke-linecap:round;stroke-linejoin:round;stroke-miterlimit:1.5;stroke-width:1px;stroke:#000000"/><path d="m900.36 120.11c-1.38-.2-89.06-1.04-86.73-3.37" style="clip-rule:evenodd;fill:none;stroke-linecap:round;stroke-linejoin:round;stroke-miterlimit:1.5;stroke-width:1px;stroke:#000000"/><path d="m810.14 118.42c1.33-.67 0 36.14 0 45.75" style="clip-rule:evenodd;fill:none;stroke-linecap:round;stroke-linejoin:round;stroke-miterlimit:1.5;stroke-width:1px;stroke:#000000"/><path d="m860.97 124.18c-3e-4 0-.9445.2582-1.0352.3203-.091.062-.124.091-.1523.1152-.057.048-.075.066-.094.084-.037.035-.054.055-.074.076-.041.042-.081.085-.1328.1406-.1035.111-.2458.2638-.4258.4609-.36.3943-.8711.9603-1.5019 1.6622-1.2618 1.4036-2.997 3.3503-4.9102 5.5273-3.8264 4.3541-8.3574 9.6177-11.285 13.365-.2932.375-.5598.7826-.6934 1.3672-.1337.5846-.012 1.4115.3848 1.959.793 1.0951 1.7164 1.1467 2.582 1.2578 1.7311.2223 3.9804.054 6.7969-.1933 2.1261-.1869 4.7061-.4328 7.2558-.6602-.2172 2.5308-.4475 5.3046-.625 7.2793-.3897 4.2977-.86987 5.1437.2186 7.2439 1e-4 1e-4 2.8678-1.0569 2.8808-1.123.026-.1323.021-.1185.024-.1387.01-.04.01-.064.01-.1.18298-1.8468.36959-3.9342.5154-5.5547.1919-2.1351.4415-5.1078.6777-7.8711 3.0581-.2163 6.1903-.4021 9.1738-.33 1.0101.0241 1.8486-.77507 1.8731-1.7852.024-1.0101-.77511-1.8486-1.7852-1.873-2.9646-.072-5.9884.1182-8.9453.3164.033-.401.061-.6997.094-1.1016.3775-4.6137.7292-9.237.9375-12.728.1042-1.7458.1727-3.2047.1895-4.2696.01-.5324.01-.9569-.019-1.3339-.014-.1885-.024-.3517-.09-.6172-.033-.1328-.062-.2899-.2344-.5781-.172-.2883-.7218-.918-1.6054-.918zm-1.8535 6.6094c-.019.3431-.017.5167-.039.8886-.2051 3.4382-.5573 8.0484-.9336 12.648-.048.5932-.091 1.0364-.1406 1.6269-2.8307.2469-5.6314.5238-7.8945.7227-2.1733.1909-3.5543.1945-4.7325.166 2.8235-3.5221 6.5989-7.9692 10.018-11.859 1.4517-1.6519 2.6085-2.9473 3.7227-4.1933z" style="-inkscape-stroke:none;clip-rule:nonzero;color:#000000;fill-rule:nonzero;fill:#000000;stroke-linecap:butt;stroke-linejoin:miter;stroke-miterlimit:1.5"/><path d="m879.46 98.937c-1.54 1.56.4-9.77-.31-11.18-.25-.51-16.57.89-16.59.64-.05-.97-1.47 9.34-1.47 10.44" style="clip-rule:evenodd;fill:none;stroke-linecap:round;stroke-linejoin:round;stroke-miterlimit:1.5;stroke-width:3.66px;stroke:#000000"/><path d="m923.36 87.887-3.7747 8.8046" style="clip-rule:evenodd;fill:none;stroke-linecap:round;stroke-linejoin:round;stroke-miterlimit:1.5;stroke-width:.95779px;stroke:#000000"/><path d="m817.36 222.71 2.458 7.583c.375 2.36.515 3.932-.4751 5.543-.5969.97-1.261 1.298-2.2739 1.268-.799-.024-1.279-.359-1.727-1.087-.77-1.251-1.0101-2.766.346-3.706.227-.157.8269-1.361-.759-1.36-.276 0-2.335-.307-1.7711 1.499-.049 1.799.337 3.883 1.1981 5.28.638 1.037 1.532 1.708 2.6699 1.742 1.3621.041 2.5011-.75 3.3031-2.056 1.102-1.793 1.567-4.582 1.1389-7.206-.01-.032-.014-.063-.025-.093l-.694-7.31c-.096-.259-2.208.104-2.467.2-.259.095-1.018-.556-.922-.297z" style="clip-rule:evenodd;fill-rule:evenodd;fill:#200404;stroke-linecap:round;stroke-linejoin:round;stroke-miterlimit:1.5"/><path d="m822.58 206.1-9.732.543.905 16.427 9.658.833z" style="clip-rule:evenodd;fill-rule:evenodd;fill:#008000;stroke-linecap:round;stroke-linejoin:round;stroke-miterlimit:1.5"/><path d="m883.28 4.7602-93.248 169.99" style="clip-rule:evenodd;fill:none;stroke-linecap:round;stroke-linejoin:round;stroke-miterlimit:1.5;stroke-width:8.6784px;stroke:#808080"/><path d="m856.49 7.7837c0-2.455-1.993-4.448-4.448-4.448l-49.918-.811c-2.455 0-25.901 33.927-25.901 36.382l5.458 51.243c0 2.455 1.993 4.448 4.448 4.448l51.343 10.221c2.455 0 19.766-36.466 19.018-35.298z" style="clip-rule:evenodd;fill-rule:evenodd;fill:#d40000;stroke-linecap:round;stroke-linejoin:round;stroke-miterlimit:1.5"/><path d="m853.15 12.588.29 43.491-10.08 14.289-.24-41.989z" style="clip-rule:evenodd;fill:none;stroke-linecap:round;stroke-linejoin:round;stroke-miterlimit:1.5"/><path d="m841.34 41.302c0-4.7982-3.896-8.6945-8.696-8.6945h-47.615c-4.8 0-8.696 3.8963-8.696 8.6945v56.481c0 4.7982 3.896 8.6945 8.696 8.6945h47.615c4.8 0 8.696-3.8963 8.696-8.6945z" style="clip-rule:evenodd;fill-rule:evenodd;fill:#aa0000;stroke-linecap:round;stroke-linejoin:round;stroke-miterlimit:1.5;stroke-width:1.4904"/><path d="m853.08 5.8507c.08.198-14.75 23.507-16.93 25.691" style="clip-rule:evenodd;fill:none;stroke-linecap:round;stroke-linejoin:round;stroke-miterlimit:1.5;stroke-width:1px;stroke:#000000"/><path d="m841.77 42.507c.13-.106.96 45.589.49 50.577-.2 2.091-.79 4.219-.79 6.32" style="clip-rule:evenodd;fill:none;stroke-linecap:round;stroke-linejoin:round;stroke-miterlimit:1.5;stroke-width:1px;stroke:#000000"/><path d="m779.57 36.779c.165.048-1.722 30.796-1.411 40.43.25 7.75 1.157 14.744.388 22.434" style="clip-rule:evenodd;fill:none;stroke-linecap:round;stroke-linejoin:round;stroke-miterlimit:1.5;stroke-width:1px;stroke:#000000"/><path d="m834.48 33.674c.53-.329-39.449.513-49.89-1.575" style="clip-rule:evenodd;fill:none;stroke-linecap:round;stroke-linejoin:round;stroke-miterlimit:1.5;stroke-width:1px;stroke:#000000"/><path d="m804.11 2.3507c.039-.011-5.316 7.786-6.091 8.893-3.231 4.615-12.306 14.639-14.588 19.774" style="clip-rule:evenodd;fill:none;stroke-linecap:round;stroke-linejoin:round;stroke-miterlimit:1.5;stroke-width:1px;stroke:#000000"/><path d="m851.34 4.6767c2.54-.685-37.4.577-45.043-.296" style="clip-rule:evenodd;fill:none;stroke-linecap:round;stroke-linejoin:round;stroke-miterlimit:1.5;stroke-width:1px;stroke:#000000"/><path d="m831.51 105.09s-40.562 1.371-48.678-1.42" style="clip-rule:evenodd;fill:none;stroke-linecap:round;stroke-linejoin:round;stroke-miterlimit:1.5;stroke-width:1px;stroke:#000000"/><path d="m844.99 60.724c.22-4.646-.51-29.999-.51-29.999l8.69-15.253s1.06 28.224 1.06 35.487" style="clip-rule:evenodd;fill:none;stroke-linecap:round;stroke-linejoin:round;stroke-miterlimit:1.5;stroke-width:1px;stroke:#000000"/><path d="m853.76 50.585c1.55.119-5.25 12.251-8 13.63" style="clip-rule:evenodd;fill:none;stroke-linecap:round;stroke-linejoin:round;stroke-miterlimit:1.5;stroke-width:1px;stroke:#000000"/></svg>
