<?xml version="1.0" encoding="UTF-8"?>
<svg style="clip-rule:evenodd;fill-rule:evenodd;stroke-linecap:round;stroke-linejoin:round;stroke-miterlimit:1.5" version="1.1" viewBox="0 0 1953 1012" xml:space="preserve" xmlns="http://www.w3.org/2000/svg">
    <path d="m1064.1 315.79-43.539 79.371" style="clip-rule:evenodd;fill:none;stroke-linecap:round;stroke-linejoin:round;stroke-miterlimit:1.5;stroke-width:6.71px;stroke:#987360"/><path d="m68.149 923.92-43.539 79.371" style="clip-rule:evenodd;fill:none;stroke-linecap:round;stroke-linejoin:round;stroke-miterlimit:1.5;stroke-width:6.71px;stroke:#987360"/><path d="m350.58 920.86-44.348 82.429" style="clip-rule:evenodd;fill:none;stroke-linecap:round;stroke-linejoin:round;stroke-miterlimit:1.5;stroke-width:6.71px;stroke:#987360"/><path d="m573.06 314.2-13.292 81.907" style="clip-rule:evenodd;fill:none;stroke-linecap:round;stroke-linejoin:round;stroke-miterlimit:1.5;stroke-width:6.6935px;stroke:#987360"/><path d="m545.68 315.53 3.7166 81.638" style="clip-rule:evenodd;fill:none;stroke-linecap:round;stroke-linejoin:round;stroke-miterlimit:1.5;stroke-width:6.71px;stroke:#987360"/><path d="m522.65 322.24 15.146 76.824" style="clip-rule:evenodd;fill:none;stroke-linecap:round;stroke-linejoin:round;stroke-miterlimit:1.5;stroke-width:6.71px;stroke:#987360"/><path d="m493.56 328.71 33.808 72.74" style="clip-rule:evenodd;fill:none;stroke-linecap:round;stroke-linejoin:round;stroke-miterlimit:1.5;stroke-width:6.71px;stroke:#987360"/><path d="m471 336.31 43.205 67.867" style="clip-rule:evenodd;fill:none;stroke-linecap:round;stroke-linejoin:round;stroke-miterlimit:1.5;stroke-width:6.71px;stroke:#987360"/><path d="m451 344.27 51.518 64.296" style="clip-rule:evenodd;fill:none;stroke-linecap:round;stroke-linejoin:round;stroke-miterlimit:1.5;stroke-width:6.71px;stroke:#987360"/><path d="m427.83 354.32 61.275 58.448" style="clip-rule:evenodd;fill:none;stroke-linecap:round;stroke-linejoin:round;stroke-miterlimit:1.5;stroke-width:6.71px;stroke:#987360"/><path d="m389.86 377.81 75.428 45.99" style="clip-rule:evenodd;fill:none;stroke-linecap:round;stroke-linejoin:round;stroke-miterlimit:1.5;stroke-width:6.7126px;stroke:#987360"/><path d="m408.74 365.55 67.183 52.034" style="clip-rule:evenodd;fill:none;stroke-linecap:round;stroke-linejoin:round;stroke-miterlimit:1.5;stroke-width:6.71px;stroke:#987360"/><path d="m370.1 392.48 81.855 37.567" style="clip-rule:evenodd;fill:none;stroke-linecap:round;stroke-linejoin:round;stroke-miterlimit:1.5;stroke-width:6.4659px;stroke:#987360"/><path d="m354.83 405.34 81.648 33.268" style="clip-rule:evenodd;fill:none;stroke-linecap:round;stroke-linejoin:round;stroke-miterlimit:1.5;stroke-width:6.6708px;stroke:#987360"/><path d="m339.25 417.27 80.625 31.126" style="clip-rule:evenodd;fill:none;stroke-linecap:round;stroke-linejoin:round;stroke-miterlimit:1.5;stroke-width:6.71px;stroke:#987360"/><path d="m324.59 430.93 81.191 30.39" style="clip-rule:evenodd;fill:none;stroke-linecap:round;stroke-linejoin:round;stroke-miterlimit:1.5;stroke-width:6.71px;stroke:#987360"/><path d="m308.91 443.39 82.244 31.082" style="clip-rule:evenodd;fill:none;stroke-linecap:round;stroke-linejoin:round;stroke-miterlimit:1.5;stroke-width:6.71px;stroke:#987360"/><path d="m293.43 456 83.102 31.623" style="clip-rule:evenodd;fill:none;stroke-linecap:round;stroke-linejoin:round;stroke-miterlimit:1.5;stroke-width:6.71px;stroke:#987360"/><path d="m279.02 469.79 82.891 30.987" style="clip-rule:evenodd;fill:none;stroke-linecap:round;stroke-linejoin:round;stroke-miterlimit:1.5;stroke-width:6.71px;stroke:#987360"/><path d="m264.12 483.92 83.169 29.997" style="clip-rule:evenodd;fill:none;stroke-linecap:round;stroke-linejoin:round;stroke-miterlimit:1.5;stroke-width:6.71px;stroke:#987360"/><path d="m250.58 499.51 82.08 27.553" style="clip-rule:evenodd;fill:none;stroke-linecap:round;stroke-linejoin:round;stroke-miterlimit:1.5;stroke-width:6.71px;stroke:#987360"/><path d="m238.11 514.88 84.563 28.495" style="clip-rule:evenodd;fill:none;stroke-linecap:round;stroke-linejoin:round;stroke-miterlimit:1.5;stroke-width:6.6903px;stroke:#987360"/><path d="m228.56 529.15 84.563 28.495" style="clip-rule:evenodd;fill:none;stroke-linecap:round;stroke-linejoin:round;stroke-miterlimit:1.5;stroke-width:6.6903px;stroke:#987360"/><path d="m218.83 544.36 84.734 27.561" style="clip-rule:evenodd;fill:none;stroke-linecap:round;stroke-linejoin:round;stroke-miterlimit:1.5;stroke-width:6.6903px;stroke:#987360"/><path d="m209.58 560.24 84.419 25.942" style="clip-rule:evenodd;fill:none;stroke-linecap:round;stroke-linejoin:round;stroke-miterlimit:1.5;stroke-width:6.6903px;stroke:#987360"/><path d="m199.68 576.22 84.766 24.241" style="clip-rule:evenodd;fill:none;stroke-linecap:round;stroke-linejoin:round;stroke-miterlimit:1.5;stroke-width:6.6903px;stroke:#987360"/><path d="m191.84 590.38 83.042 24.337" style="clip-rule:evenodd;fill:none;stroke-linecap:round;stroke-linejoin:round;stroke-miterlimit:1.5;stroke-width:6.6903px;stroke:#987360"/><path d="m182.74 605.1 85.47 25.039" style="clip-rule:evenodd;fill:none;stroke-linecap:round;stroke-linejoin:round;stroke-miterlimit:1.5;stroke-width:6.6394px;stroke:#987360"/><path d="m176.37 623.19 87.459 23.375" style="clip-rule:evenodd;fill:none;stroke-linecap:round;stroke-linejoin:round;stroke-miterlimit:1.5;stroke-width:6.71px;stroke:#987360"/><path d="m170.06 642.98 87.459 23.375" style="clip-rule:evenodd;fill:none;stroke-linecap:round;stroke-linejoin:round;stroke-miterlimit:1.5;stroke-width:6.71px;stroke:#987360"/><path d="m159.66 681.76 88.101 17.6" style="clip-rule:evenodd;fill:none;stroke-linecap:round;stroke-linejoin:round;stroke-miterlimit:1.5;stroke-width:6.71px;stroke:#987360"/><path d="m156.5 702.37 86.663 14.475" style="clip-rule:evenodd;fill:none;stroke-linecap:round;stroke-linejoin:round;stroke-miterlimit:1.5;stroke-width:6.71px;stroke:#987360"/><path d="m151.85 724.02 88.011 11.215" style="clip-rule:evenodd;fill:none;stroke-linecap:round;stroke-linejoin:round;stroke-miterlimit:1.5;stroke-width:6.71px;stroke:#987360"/><path d="m149.97 746.66 88.583 2.4533" style="clip-rule:evenodd;fill:none;stroke-linecap:round;stroke-linejoin:round;stroke-miterlimit:1.5;stroke-width:6.71px;stroke:#987360"/><path d="m151.76 769.46 88.736-3.9017" style="clip-rule:evenodd;fill:none;stroke-linecap:round;stroke-linejoin:round;stroke-miterlimit:1.5;stroke-width:6.7077px;stroke:#987360"/><path d="m154.76 792.6 88.143-10.958" style="clip-rule:evenodd;fill:none;stroke-linecap:round;stroke-linejoin:round;stroke-miterlimit:1.5;stroke-width:6.7077px;stroke:#987360"/><path d="m159.59 815.44 86.99-17.946" style="clip-rule:evenodd;fill:none;stroke-linecap:round;stroke-linejoin:round;stroke-miterlimit:1.5;stroke-width:6.7077px;stroke:#987360"/><path d="m166.22 837.81 85.284-24.819" style="clip-rule:evenodd;fill:none;stroke-linecap:round;stroke-linejoin:round;stroke-miterlimit:1.5;stroke-width:6.7077px;stroke:#987360"/><path d="m176.22 859 77.975-29.39" style="clip-rule:evenodd;fill:none;stroke-linecap:round;stroke-linejoin:round;stroke-miterlimit:1.5;stroke-width:6.7077px;stroke:#987360"/><path d="m188 879.51 74.148-34.083" style="clip-rule:evenodd;fill:none;stroke-linecap:round;stroke-linejoin:round;stroke-miterlimit:1.5;stroke-width:6.7077px;stroke:#987360"/><path d="m199.53 898.71 71.456-40.189" style="clip-rule:evenodd;fill:none;stroke-linecap:round;stroke-linejoin:round;stroke-miterlimit:1.5;stroke-width:6.7077px;stroke:#987360"/><path d="m214.53 916.37 65.944-44.367" style="clip-rule:evenodd;fill:none;stroke-linecap:round;stroke-linejoin:round;stroke-miterlimit:1.5;stroke-width:6.7077px;stroke:#987360"/><path d="m235.93 928.95 55.514-45.702" style="clip-rule:evenodd;fill:none;stroke-linecap:round;stroke-linejoin:round;stroke-miterlimit:1.5;stroke-width:6.7077px;stroke:#987360"/><path d="m257.51 935.07 47.535-41.561" style="clip-rule:evenodd;fill:none;stroke-linecap:round;stroke-linejoin:round;stroke-miterlimit:1.5;stroke-width:6.7077px;stroke:#987360"/><path d="m266.38 958.34 51.054-54.297" style="clip-rule:evenodd;fill:none;stroke-linecap:round;stroke-linejoin:round;stroke-miterlimit:1.5;stroke-width:6.7077px;stroke:#987360"/><path d="m309.43 941.95 24.341-28.19" style="clip-rule:evenodd;fill:none;stroke-linecap:round;stroke-linejoin:round;stroke-miterlimit:1.5;stroke-width:6.7077px;stroke:#987360"/><path d="m164.37 662.6 87.58 19.94" style="clip-rule:evenodd;fill:none;stroke-linecap:round;stroke-linejoin:round;stroke-miterlimit:1.5;stroke-width:6.6609px;stroke:#987360"/><path d="m631.39 923.92-43.539 79.371" style="clip-rule:evenodd;fill:none;stroke-linecap:round;stroke-linejoin:round;stroke-miterlimit:1.5;stroke-width:6.71px;stroke:#987360"/><path d="m1295.2 315.79-43.539 79.371" style="clip-rule:evenodd;fill:none;stroke-linecap:round;stroke-linejoin:round;stroke-miterlimit:1.5;stroke-width:6.71px;stroke:#987360"/><path d="m913 923.92-43.539 79.371" style="clip-rule:evenodd;fill:none;stroke-linecap:round;stroke-linejoin:round;stroke-miterlimit:1.5;stroke-width:6.71px;stroke:#987360"/><path d="m1225.3 923.92-43.539 79.371" style="clip-rule:evenodd;fill:none;stroke-linecap:round;stroke-linejoin:round;stroke-miterlimit:1.5;stroke-width:6.71px;stroke:#987360"/><path d="m1466.7 315.79-43.539 79.371" style="clip-rule:evenodd;fill:none;stroke-linecap:round;stroke-linejoin:round;stroke-miterlimit:1.5;stroke-width:6.71px;stroke:#987360"/><path d="m801.4 315.79-43.539 79.371" style="clip-rule:evenodd;fill:none;stroke-linecap:round;stroke-linejoin:round;stroke-miterlimit:1.5;stroke-width:6.71px;stroke:#987360"/><path d="m1513.6 923.92-43.539 79.371" style="clip-rule:evenodd;fill:none;stroke-linecap:round;stroke-linejoin:round;stroke-miterlimit:1.5;stroke-width:6.71px;stroke:#987360"/><path d="m1751.2 318.06-46.505 77.104" style="clip-rule:evenodd;fill:none;stroke-linecap:round;stroke-linejoin:round;stroke-miterlimit:1.5;stroke-width:6.71px;stroke:#987360"/><path d="m89.918 923.92-43.539 79.371" style="clip-rule:evenodd;fill:none;stroke-linecap:round;stroke-linejoin:round;stroke-miterlimit:1.5;stroke-width:6.71px;stroke:#987360"/><path d="m371.54 923.92-43.539 79.371" style="clip-rule:evenodd;fill:none;stroke-linecap:round;stroke-linejoin:round;stroke-miterlimit:1.5;stroke-width:6.71px;stroke:#987360"/><path d="m601.68 312.48-30.742 82.63" style="clip-rule:evenodd;fill:none;stroke-linecap:round;stroke-linejoin:round;stroke-miterlimit:1.5;stroke-width:6.71px;stroke:#987360"/><path d="m653.16 923.92-43.539 79.371" style="clip-rule:evenodd;fill:none;stroke-linecap:round;stroke-linejoin:round;stroke-miterlimit:1.5;stroke-width:6.71px;stroke:#987360"/><path d="m1317 315.79-43.539 79.371" style="clip-rule:evenodd;fill:none;stroke-linecap:round;stroke-linejoin:round;stroke-miterlimit:1.5;stroke-width:6.71px;stroke:#987360"/><path d="m934.77 923.92-43.539 79.371" style="clip-rule:evenodd;fill:none;stroke-linecap:round;stroke-linejoin:round;stroke-miterlimit:1.5;stroke-width:6.71px;stroke:#987360"/><path d="m1247.6 923.92-43.539 79.371" style="clip-rule:evenodd;fill:none;stroke-linecap:round;stroke-linejoin:round;stroke-miterlimit:1.5;stroke-width:6.71px;stroke:#987360"/><path d="m1488.4 315.79-43.539 79.371" style="clip-rule:evenodd;fill:none;stroke-linecap:round;stroke-linejoin:round;stroke-miterlimit:1.5;stroke-width:6.71px;stroke:#987360"/><path d="m823.89 315.79-43.539 79.371" style="clip-rule:evenodd;fill:none;stroke-linecap:round;stroke-linejoin:round;stroke-miterlimit:1.5;stroke-width:6.71px;stroke:#987360"/><path d="m1770.7 321.75-44.221 73.409" style="clip-rule:evenodd;fill:none;stroke-linecap:round;stroke-linejoin:round;stroke-miterlimit:1.5;stroke-width:6.71px;stroke:#987360"/><path d="m111.69 923.92-43.539 79.371" style="clip-rule:evenodd;fill:none;stroke-linecap:round;stroke-linejoin:round;stroke-miterlimit:1.5;stroke-width:6.71px;stroke:#987360"/><path d="m393.31 923.92-43.539 79.371" style="clip-rule:evenodd;fill:none;stroke-linecap:round;stroke-linejoin:round;stroke-miterlimit:1.5;stroke-width:6.71px;stroke:#987360"/><path d="m627.94 315.79-43.539 79.371" style="clip-rule:evenodd;fill:none;stroke-linecap:round;stroke-linejoin:round;stroke-miterlimit:1.5;stroke-width:6.71px;stroke:#987360"/><path d="m674.92 923.92-43.539 79.371" style="clip-rule:evenodd;fill:none;stroke-linecap:round;stroke-linejoin:round;stroke-miterlimit:1.5;stroke-width:6.71px;stroke:#987360"/><path d="m1338.8 315.79-43.539 79.371" style="clip-rule:evenodd;fill:none;stroke-linecap:round;stroke-linejoin:round;stroke-miterlimit:1.5;stroke-width:6.71px;stroke:#987360"/><path d="m957.12 923.92-43.539 79.371" style="clip-rule:evenodd;fill:none;stroke-linecap:round;stroke-linejoin:round;stroke-miterlimit:1.5;stroke-width:6.71px;stroke:#987360"/><path d="m1270 923.92-43.539 79.371" style="clip-rule:evenodd;fill:none;stroke-linecap:round;stroke-linejoin:round;stroke-miterlimit:1.5;stroke-width:6.71px;stroke:#987360"/><path d="m1510.2 315.79-43.539 79.371" style="clip-rule:evenodd;fill:none;stroke-linecap:round;stroke-linejoin:round;stroke-miterlimit:1.5;stroke-width:6.71px;stroke:#987360"/><path d="m846.37 315.79-43.539 79.371" style="clip-rule:evenodd;fill:none;stroke-linecap:round;stroke-linejoin:round;stroke-miterlimit:1.5;stroke-width:6.71px;stroke:#987360"/><path d="m133.46 923.92-43.539 79.371" style="clip-rule:evenodd;fill:none;stroke-linecap:round;stroke-linejoin:round;stroke-miterlimit:1.5;stroke-width:6.71px;stroke:#987360"/><path d="m415.07 923.92-43.539 79.371" style="clip-rule:evenodd;fill:none;stroke-linecap:round;stroke-linejoin:round;stroke-miterlimit:1.5;stroke-width:6.71px;stroke:#987360"/><path d="m649.71 315.79-43.539 79.371" style="clip-rule:evenodd;fill:none;stroke-linecap:round;stroke-linejoin:round;stroke-miterlimit:1.5;stroke-width:6.71px;stroke:#987360"/><path d="m696.69 923.92-43.539 79.371" style="clip-rule:evenodd;fill:none;stroke-linecap:round;stroke-linejoin:round;stroke-miterlimit:1.5;stroke-width:6.71px;stroke:#987360"/><path d="m931.32 315.79-43.539 79.371" style="clip-rule:evenodd;fill:none;stroke-linecap:round;stroke-linejoin:round;stroke-miterlimit:1.5;stroke-width:6.71px;stroke:#987360"/><path d="m979.46 923.92-43.539 79.371" style="clip-rule:evenodd;fill:none;stroke-linecap:round;stroke-linejoin:round;stroke-miterlimit:1.5;stroke-width:6.71px;stroke:#987360"/><path d="m1292.3 923.92-43.539 79.371" style="clip-rule:evenodd;fill:none;stroke-linecap:round;stroke-linejoin:round;stroke-miterlimit:1.5;stroke-width:6.71px;stroke:#987360"/><path d="m1532 315.79-43.539 79.371" style="clip-rule:evenodd;fill:none;stroke-linecap:round;stroke-linejoin:round;stroke-miterlimit:1.5;stroke-width:6.71px;stroke:#987360"/><path d="m868.85 315.79-43.539 79.371" style="clip-rule:evenodd;fill:none;stroke-linecap:round;stroke-linejoin:round;stroke-miterlimit:1.5;stroke-width:6.71px;stroke:#987360"/><path d="m155.22 923.92-43.539 79.371" style="clip-rule:evenodd;fill:none;stroke-linecap:round;stroke-linejoin:round;stroke-miterlimit:1.5;stroke-width:6.71px;stroke:#987360"/><path d="m436.84 923.92-43.539 79.371" style="clip-rule:evenodd;fill:none;stroke-linecap:round;stroke-linejoin:round;stroke-miterlimit:1.5;stroke-width:6.71px;stroke:#987360"/><path d="m671.47 315.79-43.539 79.371" style="clip-rule:evenodd;fill:none;stroke-linecap:round;stroke-linejoin:round;stroke-miterlimit:1.5;stroke-width:6.71px;stroke:#987360"/><path d="m718.46 923.92-43.539 79.371" style="clip-rule:evenodd;fill:none;stroke-linecap:round;stroke-linejoin:round;stroke-miterlimit:1.5;stroke-width:6.71px;stroke:#987360"/><path d="m953.09 315.79-43.539 79.371" style="clip-rule:evenodd;fill:none;stroke-linecap:round;stroke-linejoin:round;stroke-miterlimit:1.5;stroke-width:6.71px;stroke:#987360"/><path d="m1001.8 923.92-43.539 79.371" style="clip-rule:evenodd;fill:none;stroke-linecap:round;stroke-linejoin:round;stroke-miterlimit:1.5;stroke-width:6.71px;stroke:#987360"/><path d="m1314.6 923.92-43.539 79.371" style="clip-rule:evenodd;fill:none;stroke-linecap:round;stroke-linejoin:round;stroke-miterlimit:1.5;stroke-width:6.71px;stroke:#987360"/><path d="m1553.7 315.79-43.539 79.371" style="clip-rule:evenodd;fill:none;stroke-linecap:round;stroke-linejoin:round;stroke-miterlimit:1.5;stroke-width:6.71px;stroke:#987360"/><path d="m891.33 315.79-43.539 79.371" style="clip-rule:evenodd;fill:none;stroke-linecap:round;stroke-linejoin:round;stroke-miterlimit:1.5;stroke-width:6.71px;stroke:#987360"/><path d="m176.99 923.92-43.539 79.371" style="clip-rule:evenodd;fill:none;stroke-linecap:round;stroke-linejoin:round;stroke-miterlimit:1.5;stroke-width:6.71px;stroke:#987360"/><path d="m458.61 923.92-43.539 79.371" style="clip-rule:evenodd;fill:none;stroke-linecap:round;stroke-linejoin:round;stroke-miterlimit:1.5;stroke-width:6.71px;stroke:#987360"/><path d="m693.24 315.79-43.539 79.371" style="clip-rule:evenodd;fill:none;stroke-linecap:round;stroke-linejoin:round;stroke-miterlimit:1.5;stroke-width:6.71px;stroke:#987360"/><path d="m740.23 923.92-43.539 79.371" style="clip-rule:evenodd;fill:none;stroke-linecap:round;stroke-linejoin:round;stroke-miterlimit:1.5;stroke-width:6.71px;stroke:#987360"/><path d="m974.86 315.79-43.539 79.371" style="clip-rule:evenodd;fill:none;stroke-linecap:round;stroke-linejoin:round;stroke-miterlimit:1.5;stroke-width:6.71px;stroke:#987360"/><path d="m1024.2 923.92-43.539 79.371" style="clip-rule:evenodd;fill:none;stroke-linecap:round;stroke-linejoin:round;stroke-miterlimit:1.5;stroke-width:6.71px;stroke:#987360"/><path d="m1337 923.92-43.539 79.371" style="clip-rule:evenodd;fill:none;stroke-linecap:round;stroke-linejoin:round;stroke-miterlimit:1.5;stroke-width:6.71px;stroke:#987360"/><path d="m1575.5 315.79-43.539 79.371" style="clip-rule:evenodd;fill:none;stroke-linecap:round;stroke-linejoin:round;stroke-miterlimit:1.5;stroke-width:6.71px;stroke:#987360"/><path d="m913.81 315.79-43.539 79.371" style="clip-rule:evenodd;fill:none;stroke-linecap:round;stroke-linejoin:round;stroke-miterlimit:1.5;stroke-width:6.71px;stroke:#987360"/><path d="m198.76 923.92-43.539 79.371" style="clip-rule:evenodd;fill:none;stroke-linecap:round;stroke-linejoin:round;stroke-miterlimit:1.5;stroke-width:6.71px;stroke:#987360"/><path d="m480.38 923.92-43.539 79.371" style="clip-rule:evenodd;fill:none;stroke-linecap:round;stroke-linejoin:round;stroke-miterlimit:1.5;stroke-width:6.71px;stroke:#987360"/><path d="m715.01 315.79-43.539 79.371" style="clip-rule:evenodd;fill:none;stroke-linecap:round;stroke-linejoin:round;stroke-miterlimit:1.5;stroke-width:6.71px;stroke:#987360"/><path d="m762 923.92-43.539 79.371" style="clip-rule:evenodd;fill:none;stroke-linecap:round;stroke-linejoin:round;stroke-miterlimit:1.5;stroke-width:6.71px;stroke:#987360"/><path d="m996.63 315.79-43.539 79.371" style="clip-rule:evenodd;fill:none;stroke-linecap:round;stroke-linejoin:round;stroke-miterlimit:1.5;stroke-width:6.71px;stroke:#987360"/><path d="m1046.5 923.92-43.539 79.371" style="clip-rule:evenodd;fill:none;stroke-linecap:round;stroke-linejoin:round;stroke-miterlimit:1.5;stroke-width:6.71px;stroke:#987360"/><path d="m1359.3 923.92-43.539 79.371" style="clip-rule:evenodd;fill:none;stroke-linecap:round;stroke-linejoin:round;stroke-miterlimit:1.5;stroke-width:6.71px;stroke:#987360"/><path d="m1597.3 315.79-43.539 79.371" style="clip-rule:evenodd;fill:none;stroke-linecap:round;stroke-linejoin:round;stroke-miterlimit:1.5;stroke-width:6.71px;stroke:#987360"/><path d="m1356.3 315.79-43.539 79.371" style="clip-rule:evenodd;fill:none;stroke-linecap:round;stroke-linejoin:round;stroke-miterlimit:1.5;stroke-width:6.71px;stroke:#987360"/><path d="m220.53 923.92-43.539 79.371" style="clip-rule:evenodd;fill:none;stroke-linecap:round;stroke-linejoin:round;stroke-miterlimit:1.5;stroke-width:6.71px;stroke:#987360"/><path d="m502.15 923.92-43.539 79.371" style="clip-rule:evenodd;fill:none;stroke-linecap:round;stroke-linejoin:round;stroke-miterlimit:1.5;stroke-width:6.71px;stroke:#987360"/><path d="m736.78 315.79-43.539 79.371" style="clip-rule:evenodd;fill:none;stroke-linecap:round;stroke-linejoin:round;stroke-miterlimit:1.5;stroke-width:6.71px;stroke:#987360"/><path d="m783.77 923.92-43.539 79.371" style="clip-rule:evenodd;fill:none;stroke-linecap:round;stroke-linejoin:round;stroke-miterlimit:1.5;stroke-width:6.71px;stroke:#987360"/><path d="m1019.1 315.79-43.539 79.371" style="clip-rule:evenodd;fill:none;stroke-linecap:round;stroke-linejoin:round;stroke-miterlimit:1.5;stroke-width:6.71px;stroke:#987360"/><path d="m1068.8 923.92-43.539 79.371" style="clip-rule:evenodd;fill:none;stroke-linecap:round;stroke-linejoin:round;stroke-miterlimit:1.5;stroke-width:6.71px;stroke:#987360"/><path d="m1381.7 923.92-43.539 79.371" style="clip-rule:evenodd;fill:none;stroke-linecap:round;stroke-linejoin:round;stroke-miterlimit:1.5;stroke-width:6.71px;stroke:#987360"/><path d="m1619 315.79-43.539 79.371" style="clip-rule:evenodd;fill:none;stroke-linecap:round;stroke-linejoin:round;stroke-miterlimit:1.5;stroke-width:6.71px;stroke:#987360"/><path d="m1378.8 315.79-43.539 79.371" style="clip-rule:evenodd;fill:none;stroke-linecap:round;stroke-linejoin:round;stroke-miterlimit:1.5;stroke-width:6.71px;stroke:#987360"/><path d="m237.27 931.18-38.507 72.111" style="clip-rule:evenodd;fill:none;stroke-linecap:round;stroke-linejoin:round;stroke-miterlimit:1.5;stroke-width:6.71px;stroke:#987360"/><path d="m523.92 923.92-43.539 79.371" style="clip-rule:evenodd;fill:none;stroke-linecap:round;stroke-linejoin:round;stroke-miterlimit:1.5;stroke-width:6.71px;stroke:#987360"/><path d="m758.55 315.79-43.539 79.371" style="clip-rule:evenodd;fill:none;stroke-linecap:round;stroke-linejoin:round;stroke-miterlimit:1.5;stroke-width:6.71px;stroke:#987360"/><path d="m805.54 923.92-43.539 79.371" style="clip-rule:evenodd;fill:none;stroke-linecap:round;stroke-linejoin:round;stroke-miterlimit:1.5;stroke-width:6.71px;stroke:#987360"/><path d="m1041.6 315.79-43.539 79.371" style="clip-rule:evenodd;fill:none;stroke-linecap:round;stroke-linejoin:round;stroke-miterlimit:1.5;stroke-width:6.71px;stroke:#987360"/><path d="m1091.2 923.92-43.539 79.371" style="clip-rule:evenodd;fill:none;stroke-linecap:round;stroke-linejoin:round;stroke-miterlimit:1.5;stroke-width:6.71px;stroke:#987360"/><path d="m1404 923.92-43.539 79.371" style="clip-rule:evenodd;fill:none;stroke-linecap:round;stroke-linejoin:round;stroke-miterlimit:1.5;stroke-width:6.71px;stroke:#987360"/><path d="m1640.8 315.79-43.539 79.371" style="clip-rule:evenodd;fill:none;stroke-linecap:round;stroke-linejoin:round;stroke-miterlimit:1.5;stroke-width:6.71px;stroke:#987360"/><path d="m1401.3 315.79-43.539 79.371" style="clip-rule:evenodd;fill:none;stroke-linecap:round;stroke-linejoin:round;stroke-miterlimit:1.5;stroke-width:6.71px;stroke:#987360"/><path d="m258.05 934.21-37.518 69.079" style="clip-rule:evenodd;fill:none;stroke-linecap:round;stroke-linejoin:round;stroke-miterlimit:1.5;stroke-width:6.71px;stroke:#987360"/><path d="m545.69 923.92-43.539 79.371" style="clip-rule:evenodd;fill:none;stroke-linecap:round;stroke-linejoin:round;stroke-miterlimit:1.5;stroke-width:6.71px;stroke:#987360"/><path d="m780.32 315.79-43.539 79.371" style="clip-rule:evenodd;fill:none;stroke-linecap:round;stroke-linejoin:round;stroke-miterlimit:1.5;stroke-width:6.71px;stroke:#987360"/><path d="m827.31 923.92-43.539 79.371" style="clip-rule:evenodd;fill:none;stroke-linecap:round;stroke-linejoin:round;stroke-miterlimit:1.5;stroke-width:6.71px;stroke:#987360"/><path d="m1427.9 923.92-43.539 79.371" style="clip-rule:evenodd;fill:none;stroke-linecap:round;stroke-linejoin:round;stroke-miterlimit:1.5;stroke-width:6.71px;stroke:#987360"/><path d="m1662.6 315.79-43.539 79.371" style="clip-rule:evenodd;fill:none;stroke-linecap:round;stroke-linejoin:round;stroke-miterlimit:1.5;stroke-width:6.71px;stroke:#987360"/><path d="m278.41 940.57-36.112 62.723" style="clip-rule:evenodd;fill:none;stroke-linecap:round;stroke-linejoin:round;stroke-miterlimit:1.5;stroke-width:6.71px;stroke:#987360"/><path d="m567.46 923.92-43.539 79.371" style="clip-rule:evenodd;fill:none;stroke-linecap:round;stroke-linejoin:round;stroke-miterlimit:1.5;stroke-width:6.71px;stroke:#987360"/><path d="m1231.3 315.79-43.539 79.371" style="clip-rule:evenodd;fill:none;stroke-linecap:round;stroke-linejoin:round;stroke-miterlimit:1.5;stroke-width:6.71px;stroke:#987360"/><path d="m849.08 923.92-43.539 79.371" style="clip-rule:evenodd;fill:none;stroke-linecap:round;stroke-linejoin:round;stroke-miterlimit:1.5;stroke-width:6.71px;stroke:#987360"/><path d="m1086.6 315.79-43.539 79.371" style="clip-rule:evenodd;fill:none;stroke-linecap:round;stroke-linejoin:round;stroke-miterlimit:1.5;stroke-width:6.71px;stroke:#987360"/><path d="m1449.7 923.92-43.539 79.371" style="clip-rule:evenodd;fill:none;stroke-linecap:round;stroke-linejoin:round;stroke-miterlimit:1.5;stroke-width:6.71px;stroke:#987360"/><path d="m1684.3 315.79-43.539 79.371" style="clip-rule:evenodd;fill:none;stroke-linecap:round;stroke-linejoin:round;stroke-miterlimit:1.5;stroke-width:6.71px;stroke:#987360"/><path d="m300.25 941.26-36.185 62.033" style="clip-rule:evenodd;fill:none;stroke-linecap:round;stroke-linejoin:round;stroke-miterlimit:1.5;stroke-width:6.71px;stroke:#987360"/><path d="m589.23 923.92-43.539 79.371" style="clip-rule:evenodd;fill:none;stroke-linecap:round;stroke-linejoin:round;stroke-miterlimit:1.5;stroke-width:6.71px;stroke:#987360"/><path d="m1253.1 315.79-43.539 79.371" style="clip-rule:evenodd;fill:none;stroke-linecap:round;stroke-linejoin:round;stroke-miterlimit:1.5;stroke-width:6.71px;stroke:#987360"/><path d="m870.85 923.92-43.539 79.371" style="clip-rule:evenodd;fill:none;stroke-linecap:round;stroke-linejoin:round;stroke-miterlimit:1.5;stroke-width:6.71px;stroke:#987360"/><path d="m1423.8 315.79-43.539 79.371" style="clip-rule:evenodd;fill:none;stroke-linecap:round;stroke-linejoin:round;stroke-miterlimit:1.5;stroke-width:6.71px;stroke:#987360"/><path d="m1176.5 315.79-43.539 79.371" style="clip-rule:evenodd;fill:none;stroke-linecap:round;stroke-linejoin:round;stroke-miterlimit:1.5;stroke-width:6.71px;stroke:#987360"/><path d="m1154 315.79-43.539 79.371" style="clip-rule:evenodd;fill:none;stroke-linecap:round;stroke-linejoin:round;stroke-miterlimit:1.5;stroke-width:6.71px;stroke:#987360"/><path d="m1131.5 315.79-43.539 79.371" style="clip-rule:evenodd;fill:none;stroke-linecap:round;stroke-linejoin:round;stroke-miterlimit:1.5;stroke-width:6.71px;stroke:#987360"/><path d="m1109 315.79-43.539 79.371" style="clip-rule:evenodd;fill:none;stroke-linecap:round;stroke-linejoin:round;stroke-miterlimit:1.5;stroke-width:6.71px;stroke:#987360"/><path d="m1471.5 923.92-43.539 79.371" style="clip-rule:evenodd;fill:none;stroke-linecap:round;stroke-linejoin:round;stroke-miterlimit:1.5;stroke-width:6.71px;stroke:#987360"/><path d="m1706.1 315.79-43.539 79.371" style="clip-rule:evenodd;fill:none;stroke-linecap:round;stroke-linejoin:round;stroke-miterlimit:1.5;stroke-width:6.71px;stroke:#987360"/><path d="m322.2 939.56-36.365 63.732" style="clip-rule:evenodd;fill:none;stroke-linecap:round;stroke-linejoin:round;stroke-miterlimit:1.5;stroke-width:6.71px;stroke:#987360"/><path d="m611 923.92-43.539 79.371" style="clip-rule:evenodd;fill:none;stroke-linecap:round;stroke-linejoin:round;stroke-miterlimit:1.5;stroke-width:6.71px;stroke:#987360"/><path d="m1274.8 315.79-43.539 79.371" style="clip-rule:evenodd;fill:none;stroke-linecap:round;stroke-linejoin:round;stroke-miterlimit:1.5;stroke-width:6.71px;stroke:#987360"/><path d="m892.62 923.92-43.539 79.371" style="clip-rule:evenodd;fill:none;stroke-linecap:round;stroke-linejoin:round;stroke-miterlimit:1.5;stroke-width:6.71px;stroke:#987360"/><path d="m1202.9 923.92-43.539 79.371" style="clip-rule:evenodd;fill:none;stroke-linecap:round;stroke-linejoin:round;stroke-miterlimit:1.5;stroke-width:6.71px;stroke:#987360"/><path d="m1180.6 923.92-43.539 79.371" style="clip-rule:evenodd;fill:none;stroke-linecap:round;stroke-linejoin:round;stroke-miterlimit:1.5;stroke-width:6.71px;stroke:#987360"/><path d="m1158.2 923.92-43.539 79.371" style="clip-rule:evenodd;fill:none;stroke-linecap:round;stroke-linejoin:round;stroke-miterlimit:1.5;stroke-width:6.71px;stroke:#987360"/><path d="m1135.9 923.92-43.539 79.371" style="clip-rule:evenodd;fill:none;stroke-linecap:round;stroke-linejoin:round;stroke-miterlimit:1.5;stroke-width:6.71px;stroke:#987360"/><path d="m1113.5 923.92-43.539 79.371" style="clip-rule:evenodd;fill:none;stroke-linecap:round;stroke-linejoin:round;stroke-miterlimit:1.5;stroke-width:6.71px;stroke:#987360"/><path d="m1755.4 922.55-43.539 79.371" style="clip-rule:evenodd;fill:none;stroke-linecap:round;stroke-linejoin:round;stroke-miterlimit:1.5;stroke-width:6.71px;stroke:#987360"/><path d="m1777.2 922.55-43.539 79.371" style="clip-rule:evenodd;fill:none;stroke-linecap:round;stroke-linejoin:round;stroke-miterlimit:1.5;stroke-width:6.71px;stroke:#987360"/><path d="m1799.5 922.55-43.539 79.371" style="clip-rule:evenodd;fill:none;stroke-linecap:round;stroke-linejoin:round;stroke-miterlimit:1.5;stroke-width:6.71px;stroke:#987360"/><path d="m1821.9 922.55-43.539 79.371" style="clip-rule:evenodd;fill:none;stroke-linecap:round;stroke-linejoin:round;stroke-miterlimit:1.5;stroke-width:6.71px;stroke:#987360"/><path d="m1844.2 922.55-43.539 79.371" style="clip-rule:evenodd;fill:none;stroke-linecap:round;stroke-linejoin:round;stroke-miterlimit:1.5;stroke-width:6.71px;stroke:#987360"/><path d="m1866.5 922.55-43.539 79.371" style="clip-rule:evenodd;fill:none;stroke-linecap:round;stroke-linejoin:round;stroke-miterlimit:1.5;stroke-width:6.71px;stroke:#987360"/><path d="m1888.9 922.55-43.539 79.371" style="clip-rule:evenodd;fill:none;stroke-linecap:round;stroke-linejoin:round;stroke-miterlimit:1.5;stroke-width:6.71px;stroke:#987360"/><path d="m1601.4 967.67-18.786 34.246" style="clip-rule:evenodd;fill:none;stroke-linecap:round;stroke-linejoin:round;stroke-miterlimit:1.5;stroke-width:6.71px;stroke:#987360"/><path d="m1911.2 922.55-43.539 79.371" style="clip-rule:evenodd;fill:none;stroke-linecap:round;stroke-linejoin:round;stroke-miterlimit:1.5;stroke-width:6.71px;stroke:#987360"/><path d="m1628.9 957.29-24.484 44.633" style="clip-rule:evenodd;fill:none;stroke-linecap:round;stroke-linejoin:round;stroke-miterlimit:1.5;stroke-width:6.71px;stroke:#987360"/><path d="m1933.6 922.55-43.539 79.371" style="clip-rule:evenodd;fill:none;stroke-linecap:round;stroke-linejoin:round;stroke-miterlimit:1.5;stroke-width:6.71px;stroke:#987360"/><path d="m1657.8 944.15-31.689 57.768" style="clip-rule:evenodd;fill:none;stroke-linecap:round;stroke-linejoin:round;stroke-miterlimit:1.5;stroke-width:6.71px;stroke:#987360"/><path d="m1688 928.92-40.046 73.003" style="clip-rule:evenodd;fill:none;stroke-linecap:round;stroke-linejoin:round;stroke-miterlimit:1.5;stroke-width:6.71px;stroke:#987360"/><path d="m1713.2 922.55-43.539 79.371" style="clip-rule:evenodd;fill:none;stroke-linecap:round;stroke-linejoin:round;stroke-miterlimit:1.5;stroke-width:6.71px;stroke:#987360"/><path d="m1735 922.55-43.539 79.371" style="clip-rule:evenodd;fill:none;stroke-linecap:round;stroke-linejoin:round;stroke-miterlimit:1.5;stroke-width:6.71px;stroke:#987360"/><path d="m1446.3 315.79-43.539 79.371" style="clip-rule:evenodd;fill:none;stroke-linecap:round;stroke-linejoin:round;stroke-miterlimit:1.5;stroke-width:6.71px;stroke:#987360"/><path d="m1204 316.62-43.539 79.371" style="clip-rule:evenodd;fill:none;stroke-linecap:round;stroke-linejoin:round;stroke-miterlimit:1.5;stroke-width:6.71px;stroke:#987360"/><path d="m1493.3 923.92-43.539 79.371" style="clip-rule:evenodd;fill:none;stroke-linecap:round;stroke-linejoin:round;stroke-miterlimit:1.5;stroke-width:6.71px;stroke:#987360"/><path d="m1727.9 315.79-43.539 79.371" style="clip-rule:evenodd;fill:none;stroke-linecap:round;stroke-linejoin:round;stroke-miterlimit:1.5;stroke-width:6.71px;stroke:#987360"/><path d="m1748.1 399.29 43.322-70.631" style="clip-rule:evenodd;fill:none;stroke-linecap:round;stroke-linejoin:round;stroke-miterlimit:1.5;stroke-width:6.46px;stroke:#987360"/><path d="m1525.6 1005.9 13.292-81.907" style="clip-rule:evenodd;fill:none;stroke-linecap:round;stroke-linejoin:round;stroke-miterlimit:1.5;stroke-width:6.6935px;stroke:#987360"/><path d="m1553 1004.6-3.7166-81.638" style="clip-rule:evenodd;fill:none;stroke-linecap:round;stroke-linejoin:round;stroke-miterlimit:1.5;stroke-width:6.71px;stroke:#987360"/><path d="m1576 997.92-15.146-76.824" style="clip-rule:evenodd;fill:none;stroke-linecap:round;stroke-linejoin:round;stroke-miterlimit:1.5;stroke-width:6.71px;stroke:#987360"/><path d="m1594.3 968.19-22.999-49.484" style="clip-rule:evenodd;fill:none;stroke-linecap:round;stroke-linejoin:round;stroke-miterlimit:1.5;stroke-width:6.71px;stroke:#987360"/><path d="m1613.5 961.61-29.06-45.647" style="clip-rule:evenodd;fill:none;stroke-linecap:round;stroke-linejoin:round;stroke-miterlimit:1.5;stroke-width:6.71px;stroke:#987360"/><path d="m1632.2 956.61-36.079-45.028" style="clip-rule:evenodd;fill:none;stroke-linecap:round;stroke-linejoin:round;stroke-miterlimit:1.5;stroke-width:6.71px;stroke:#987360"/><path d="m1650.6 946.58-41.094-39.198" style="clip-rule:evenodd;fill:none;stroke-linecap:round;stroke-linejoin:round;stroke-miterlimit:1.5;stroke-width:6.71px;stroke:#987360"/><path d="m1686.1 928.47-52.705-32.136" style="clip-rule:evenodd;fill:none;stroke-linecap:round;stroke-linejoin:round;stroke-miterlimit:1.5;stroke-width:6.7126px;stroke:#987360"/><path d="m1668.4 937.94-45.667-35.37" style="clip-rule:evenodd;fill:none;stroke-linecap:round;stroke-linejoin:round;stroke-miterlimit:1.5;stroke-width:6.71px;stroke:#987360"/><path d="m1718.2 924.21-71.527-34.11" style="clip-rule:evenodd;fill:none;stroke-linecap:round;stroke-linejoin:round;stroke-miterlimit:1.5;stroke-width:6.4659px;stroke:#987360"/><path d="m1743.8 914.81-81.648-33.268" style="clip-rule:evenodd;fill:none;stroke-linecap:round;stroke-linejoin:round;stroke-miterlimit:1.5;stroke-width:6.6708px;stroke:#987360"/><path d="m1759.4 902.88-80.624-31.126" style="clip-rule:evenodd;fill:none;stroke-linecap:round;stroke-linejoin:round;stroke-miterlimit:1.5;stroke-width:6.71px;stroke:#987360"/><path d="m1774.1 889.21-81.191-30.39" style="clip-rule:evenodd;fill:none;stroke-linecap:round;stroke-linejoin:round;stroke-miterlimit:1.5;stroke-width:6.71px;stroke:#987360"/><path d="m1789.7 876.76-82.244-31.082" style="clip-rule:evenodd;fill:none;stroke-linecap:round;stroke-linejoin:round;stroke-miterlimit:1.5;stroke-width:6.71px;stroke:#987360"/><path d="m1805.2 864.15-83.102-31.623" style="clip-rule:evenodd;fill:none;stroke-linecap:round;stroke-linejoin:round;stroke-miterlimit:1.5;stroke-width:6.71px;stroke:#987360"/><path d="m1819.6 850.37-82.891-30.987" style="clip-rule:evenodd;fill:none;stroke-linecap:round;stroke-linejoin:round;stroke-miterlimit:1.5;stroke-width:6.71px;stroke:#987360"/><path d="m1834.5 836.23-83.17-29.997" style="clip-rule:evenodd;fill:none;stroke-linecap:round;stroke-linejoin:round;stroke-miterlimit:1.5;stroke-width:6.71px;stroke:#987360"/><path d="m1848.1 820.64-82.08-27.553" style="clip-rule:evenodd;fill:none;stroke-linecap:round;stroke-linejoin:round;stroke-miterlimit:1.5;stroke-width:6.71px;stroke:#987360"/><path d="m1860.5 805.26-84.563-28.495" style="clip-rule:evenodd;fill:none;stroke-linecap:round;stroke-linejoin:round;stroke-miterlimit:1.5;stroke-width:6.6903px;stroke:#987360"/><path d="m1870.1 790.99-84.563-28.495" style="clip-rule:evenodd;fill:none;stroke-linecap:round;stroke-linejoin:round;stroke-miterlimit:1.5;stroke-width:6.6903px;stroke:#987360"/><path d="m1879.8 775.79-84.734-27.561" style="clip-rule:evenodd;fill:none;stroke-linecap:round;stroke-linejoin:round;stroke-miterlimit:1.5;stroke-width:6.6903px;stroke:#987360"/><path d="m1889.1 759.91-84.419-25.942" style="clip-rule:evenodd;fill:none;stroke-linecap:round;stroke-linejoin:round;stroke-miterlimit:1.5;stroke-width:6.6903px;stroke:#987360"/><path d="m1899 743.94-84.766-24.241" style="clip-rule:evenodd;fill:none;stroke-linecap:round;stroke-linejoin:round;stroke-miterlimit:1.5;stroke-width:6.6903px;stroke:#987360"/><path d="m1906.8 729.77-83.042-24.337" style="clip-rule:evenodd;fill:none;stroke-linecap:round;stroke-linejoin:round;stroke-miterlimit:1.5;stroke-width:6.6903px;stroke:#987360"/><path d="m1915.9 715.05-85.47-25.039" style="clip-rule:evenodd;fill:none;stroke-linecap:round;stroke-linejoin:round;stroke-miterlimit:1.5;stroke-width:6.6394px;stroke:#987360"/><path d="m1922.3 696.97-87.459-23.375" style="clip-rule:evenodd;fill:none;stroke-linecap:round;stroke-linejoin:round;stroke-miterlimit:1.5;stroke-width:6.71px;stroke:#987360"/><path d="m1928.6 677.18-87.459-23.375" style="clip-rule:evenodd;fill:none;stroke-linecap:round;stroke-linejoin:round;stroke-miterlimit:1.5;stroke-width:6.71px;stroke:#987360"/><path d="m1939 638.39-88.101-17.6" style="clip-rule:evenodd;fill:none;stroke-linecap:round;stroke-linejoin:round;stroke-miterlimit:1.5;stroke-width:6.71px;stroke:#987360"/><path d="m1942.1 617.77-86.663-14.475" style="clip-rule:evenodd;fill:none;stroke-linecap:round;stroke-linejoin:round;stroke-miterlimit:1.5;stroke-width:6.71px;stroke:#987360"/><path d="m1946.8 596.14-88.427-9.1354" style="clip-rule:evenodd;fill:none;stroke-linecap:round;stroke-linejoin:round;stroke-miterlimit:1.5;stroke-width:6.71px;stroke:#987360"/><path d="m1948.7 573.49-88.584-2.4533" style="clip-rule:evenodd;fill:none;stroke-linecap:round;stroke-linejoin:round;stroke-miterlimit:1.5;stroke-width:6.71px;stroke:#987360"/><path d="m1946.9 550.69-88.736 3.9017" style="clip-rule:evenodd;fill:none;stroke-linecap:round;stroke-linejoin:round;stroke-miterlimit:1.5;stroke-width:6.7077px;stroke:#987360"/><path d="m1943.9 527.54-88.143 10.958" style="clip-rule:evenodd;fill:none;stroke-linecap:round;stroke-linejoin:round;stroke-miterlimit:1.5;stroke-width:6.7077px;stroke:#987360"/><path d="m1939.1 504.71-86.99 17.946" style="clip-rule:evenodd;fill:none;stroke-linecap:round;stroke-linejoin:round;stroke-miterlimit:1.5;stroke-width:6.7077px;stroke:#987360"/><path d="m1932.4 482.34-85.284 24.819" style="clip-rule:evenodd;fill:none;stroke-linecap:round;stroke-linejoin:round;stroke-miterlimit:1.5;stroke-width:6.7077px;stroke:#987360"/><path d="m1922.4 461.15-77.975 29.39" style="clip-rule:evenodd;fill:none;stroke-linecap:round;stroke-linejoin:round;stroke-miterlimit:1.5;stroke-width:6.7077px;stroke:#987360"/><path d="m1910.7 440.64-74.148 34.083" style="clip-rule:evenodd;fill:none;stroke-linecap:round;stroke-linejoin:round;stroke-miterlimit:1.5;stroke-width:6.7077px;stroke:#987360"/><path d="m1899.1 421.44-71.456 40.189" style="clip-rule:evenodd;fill:none;stroke-linecap:round;stroke-linejoin:round;stroke-miterlimit:1.5;stroke-width:6.7077px;stroke:#987360"/><path d="m1884.1 403.78-65.944 44.367" style="clip-rule:evenodd;fill:none;stroke-linecap:round;stroke-linejoin:round;stroke-miterlimit:1.5;stroke-width:6.7077px;stroke:#987360"/><path d="m1869.2 388.16-62.016 48.741" style="clip-rule:evenodd;fill:none;stroke-linecap:round;stroke-linejoin:round;stroke-miterlimit:1.5;stroke-width:6.7077px;stroke:#987360"/><path d="m1855.3 370.52-61.731 56.128" style="clip-rule:evenodd;fill:none;stroke-linecap:round;stroke-linejoin:round;stroke-miterlimit:1.5;stroke-width:6.7077px;stroke:#987360"/><path d="m1836.2 354.62-54.967 61.486" style="clip-rule:evenodd;fill:none;stroke-linecap:round;stroke-linejoin:round;stroke-miterlimit:1.5;stroke-width:6.7077px;stroke:#987360"/><path d="m1814.1 339.24-49.213 67.143" style="clip-rule:evenodd;fill:none;stroke-linecap:round;stroke-linejoin:round;stroke-miterlimit:1.5;stroke-width:6.7077px;stroke:#987360"/><path d="m1934.3 657.55-87.58-19.94" style="clip-rule:evenodd;fill:none;stroke-linecap:round;stroke-linejoin:round;stroke-miterlimit:1.5;stroke-width:6.6609px;stroke:#987360"/><path d="m1497 1003.1 30.742-78.056" style="clip-rule:evenodd;fill:none;stroke-linecap:round;stroke-linejoin:round;stroke-miterlimit:1.5;stroke-width:6.71px;stroke:#987360"/><path d="m616.21 324.84c-91.094 0-184.48 36.924-262.02 96.857-38.772 29.966-73.591 65.674-102.27 105.67-28.678 39.992-51.316 84.519-65.117 131.49-13.802 46.969-17.33 91.494-12.154 131.49 5.1759 39.992 19.009 75.699 40.17 105.67 11.125 15.754 24.351 29.844 39.363 42.15h-250.82c-1.8525-.00026-3.3547 1.501-3.3555 3.3535-.00025963 1.8533 1.5022 3.3557 3.3555 3.3555h259.68c24.751 18.273 53.848 32.015 86.881 39.936h-346.55c-1.8533-.00026-3.3557 1.5022-3.3555 3.3555.00081719 1.8525 1.5029 3.3538 3.3555 3.3535h387.82c9.3619.84179 18.914 1.3555 28.74 1.3555h1058.7c9.3761 0 18.783-.63515 28.188-1.4024h407.64c2.1825.00066 3.9518-1.7687 3.9512-3.9512-4e-4-2.1817-1.7695-3.9499-3.9512-3.9492h-356.51c38.675-8.611 76.749-23.099 112.95-42.547l262.96 1.041c2.1817.008 3.9569-1.7538 3.9649-3.9356.01-2.1809-1.7547-3.955-3.9356-3.9629l-248.77-.99023c19.168-11.131 37.805-23.46 55.533-37.162 38.771-29.967 73.592-65.674 102.27-105.67 28.678-39.992 51.314-84.517 65.115-131.49 13.802-46.969 17.332-91.497 12.156-131.49-5.1754-39.992-19.01-75.7-40.17-105.67-42.32-59.933-114-96.857-205.1-96.857zm-2.7637 9.4102h1058.7c90.655 0 161.95 36.856 203.81 96.139 20.931 29.641 34.492 64.899 39.512 103.69 5.02 38.792 1.5455 80.867-11.356 124.77-12.901 43.905-34.153 85.977-61.971 124.77-27.818 38.792-62.099 74.05-100.45 103.69-22.538 17.42-46.593 32.618-71.467 45.799l-27.854-.10351c-.038-.00056-.077-.00056-.1153 0l-80.924 2.0332c53.738-13.926 105.96-40.294 151.94-76.012 34.705-26.96 65.874-59.074 91.57-95.043s46.02-76.044 58.434-118.29c11.467-39.024 14.865-76.118 11.023-109.38-3.8414-33.257-14.867-62.899-32.394-87.719-34.346-48.644-93.149-77.119-167-77.119h-1058.7c-81.663 0-165.24 33.266-234.65 87.188-34.704 26.961-65.874 59.074-91.57 95.043-25.697 35.969-46.02 76.044-58.434 118.29-11.467 39.024-14.864 76.112-11.023 109.37s14.864 62.904 32.391 87.725c23.838 33.756 59.657 57.501 103.9 69.057h-86.576c-20.033-14.215-37.464-31.148-51.371-50.842-20.931-29.642-34.493-64.899-39.514-103.69-5.0206-38.792-1.5494-80.865 11.352-124.77 12.901-43.905 34.157-85.98 61.975-124.77 27.818-38.792 62.1-74.05 100.45-103.69 76.702-59.283 169.65-96.139 260.31-96.139zm-.002 46.645h1058.7c73.431 0 131.84 28.437 165.71 76.4 17.286 24.478 28.026 53.628 31.723 85.633 3.6969 32.005.4086 66.636-10.209 102.77-11.518 39.197-30.468 76.83-55.305 111.6-24.837 34.766-55.464 66.423-89.746 93.055-68.564 53.264-151.71 86.459-232.93 86.459h-1058.7c-73.432 0-131.84-28.437-165.71-76.4-17.286-24.479-28.022-53.632-31.719-85.637-3.6963-32.005-.41053-66.632 10.207-102.77 11.518-39.198 30.468-76.83 55.305-111.6 24.837-34.766 55.463-66.423 89.744-93.055 68.563-53.264 151.71-86.459 232.93-86.459zm1028.9 560.01 12.613.0469c-55.517 26.91-115.02 42.496-173.63 42.496h-1058.7c-55.774 0-104.13-14.047-142.9-38.588h87.764c17.595-1.242 36.71 1.3137 52.375 1.3535h1058.7c11.545 0 23.123-.83104 34.699-2.125.047.0191.095.0374.1425.0547z" style="-inkscape-stroke:none;clip-rule:nonzero;color:#000000;fill-rule:nonzero;fill:#808080;font-variation-settings:normal;stop-color:#000000;stroke-linecap:butt;stroke-linejoin:miter;stroke-miterlimit:1.5;stroke-width:1.5514"/><path d="m1453.1 262.21c0-2.455-1.993-4.448-4.448-4.448h-56.111c-2.455 0-9.906 12.487-9.906 14.942l5.458 13.864c0 2.455 1.993 4.448 4.448 4.448l53.38 10.751c2.456 0 7.179-12.744 7.179-15.199z" style="fill:#a1a1a1"/><path d="m1447.8 277.96c0-4.588-3.725-8.313-8.314-8.313h-48.379c-4.589 0-8.314 3.725-8.314 8.313v16.628c0 4.588 3.725 8.313 8.314 8.313h48.379c4.589 0 8.314-3.725 8.314-8.313z" style="fill:#808080"/><path d="m718.81 359.24c-5.8093-2.9178-9.6062-24.004-9.4504-29.895.065-2.458 4.0043-13.923 2.6345-17.244-2.0135-4.8818 11.013-32.69 15.3-29.394 0 0 34.172-2.5358 56.146-5.5645 4.9416-.68112 19.978-1.0242 20.121-.20017 0 0 .95979.0433 1.0812-3.6329.0105-.3225-3.5475-.58991-4.535-1.643-2.7053-2.8848.72816-7.2486 3.0217-6.9597 2.4826.31285 15.384.63723 18.805.55473 10.098-.24281 19.619-1.3753 29.578-2.0695 7.8342-.54602 23.601 1.0952 23.601 1.0952 3.4036-.36578 5.1347.43582 5.5752 2.1383-.50207 3.7608-2.2917 7.5322-4.8729 6.6198 0 0 .0431 24.659.0431 38.436 0 4.2558-.29262 8.2189.22485 12.417.17558 1.4177 0 7.3962 0 7.1284l-1.0842 24.501c7.9346.75677-146.69 1.7915-156.19 3.7126zm149.7-85.617-55.111-.21013-3.0974 40.388c19.364-2.7416 38.709-2.604 58.04-.63598z" style="fill:#227339;stroke-width:.30966"/><path d="m902.58 233.77 1.94 82.99.03 2.26-28.91 35.84.15-80.3z" style="fill:#227339"/><path d="m710.06 327.03c-.503-3.1774-.7525-5.9013-.7103-7.5023.065-2.458 4.6653-16.518 5.6497-19.976.74633-2.6224 9.3549-18.76 10.794-17.794 0 0 45.122-1.4002 67.099-4.4289 4.9413-.68082 10.666-.12265 10.666-.12265l-.15648 7.6589s-5.7242-.55816-10.666.12296c-11.932 1.6443-53.349 2.5194-57.698 3.282-7.5021 1.3159-19.84 20.874-20.037 25.197-.0961 2.1084-4.3767 9.4965-4.9394 13.562z" style="fill:#225831;stroke-width:.30966"/><path d="m878.05 273.05 1.5638-1.1568 23.66-37.825c1.2986-1.3729 1.375-3.5512 1.1246-5.6932-.11097-.95096-3.9504-2.0239-4.0368-1.6765l-71.866-1.5989c-3.7568-.0854-6.6212 1.6175-8.7471 4.8022l-20.889 38.097z" style="fill:#4b4b4b;stroke-width:.68025"/><path d="m805.78 326.66c0-5.4169-1.5225-10.683-1.8201-16.096-.47096-8.567.15063-17.604.45495-26.214.12998-3.6749.10627-7.3613.22763-11.037.0105-.32251-3.5475-.58991-4.535-1.643-2.7053-2.8848.72816-7.2486 3.0217-6.9597 2.4826.31286 15.384.63724 18.805.55474 10.098-.24281 19.619-1.3753 29.578-2.0695 7.8342-.54602 23.601 1.0952 23.601 1.0952 3.4036-.36578 5.1347.43582 5.5752 2.1383-.50207 3.7608-2.2116 7.544-4.7928 6.6319 0 0-.037 24.647-.037 38.424 0 4.2558-.29262 8.2189.22486 12.417.17557 1.4177 0 7.3962 0 7.1285l-1.0842 24.501c7.9346.75677-146.69 1.7915-156.19 3.7126" style="fill:none;stroke-width:1.0002px;stroke:#000000"/><path d="m902.08 237.97c.22-.21.19-.23.67-.23.25 0-.2.84-.22.87-.27.55-.31 1.49-.21 2.06.45 2.56.49 4.91.21 7.49-.73 6.82-1.38 13.82-.82 20.67.99 12.21.5 24.47 2.02 36.64.46 3.66.3 9.61.3 13.32 0 1.37-.55 1.48-1.15 1.95-1.21.94-21.87 26.29-26.32 32.16" style="fill:none;stroke-width:1px;stroke:#000000"/><path d="m834.69 286.07c.179-.02.693-.17.513-.17" style="fill:none;stroke-width:.5px;stroke:#000000"/><path d="m803.56 276.97c-.14354-.82401-19.778.6914-24.719 1.3725-21.976 3.0286-53.346 3.4209-53.346 3.4209-.7793-.52329-5.5961 6.7951-9.7692 14.344-1.4357 2.5975-2.7457 8.1666-3.7991 14.028-1.5392 8.5629-2.531 17.75-2.5695 19.209-.15586 5.8907 3.6411 26.977 9.4504 29.895" style="fill:none;stroke-width:1.0002px;stroke:#000000"/><path d="m813.33 272.94-3.2471 40.899c18.38-3.109 39.667-1.5207 58.573-.91429l-.51439-39.186z" style="fill:#416495;stroke-width:1.0002px;stroke:#000000"/><ellipse cx="855.08" cy="359.28" rx="2.5874" ry="2.5962" style="fill:#ffffff;stroke-width:.30966"/><ellipse cx="778.58" cy="359.28" rx="2.5874" ry="2.5962" style="fill:#ffffff;stroke-width:.30966"/><ellipse cx="741.84" cy="359.28" rx="2.5874" ry="2.5962" style="fill:#ffffff;stroke-width:.30966"/><ellipse cx="816.66" cy="359.28" rx="2.5874" ry="2.5962" style="fill:#ffffff;stroke-width:.30966"/><ellipse cx="778.24" cy="359.28" rx="2.5874" ry="2.5962" style="fill:#ffffff;stroke-width:.30966"/><ellipse cx="741.5" cy="359.28" rx="2.5874" ry="2.5962" style="fill:#ffffff;stroke-width:.30966"/><path d="m804.63 273.81c.005-.15632.009-.31241.0144-.46873.0108-.32287-3.5472-.59015-4.5347-1.6435-2.7054-2.8847.72789-7.2487 3.0218-6.9598 2.4824.31287 15.384.63714 18.805.55479 10.098-.24285 19.619-1.3755 29.577-2.0696 7.8347-.54596 23.602 1.0952 23.602 1.0952 3.4015-.36568 5.1332.43593 5.5769 2.1382-.50554 3.761-2.2944 7.5325-4.8747 6.6201v.73322h-7.304v-.15515l-55.11-.21029-.0279.36544z" style="fill:#4b4b4b;stroke-width:.23068"/><path d="m847.94 344.87c-10.522 4.54-10.708 16.06-5.568 23.82 2.2415 3.39 6.7816 7.4 12.749 7.19 7.0243-.25 11.222-5.37 12.749-9.55 1.3278-3.65 2.5128-7.83 1.6133-11.6-1.1136-4.66-7.2242-11.41-14.791-11.64-2.5413-.08-4.64.95-6.753 1.78z" style="fill:#808080;stroke-width:.96784px;stroke:#000000"/><path d="m854.44 359.37c-.05-3.61-2.38.74-1.14 1.36 1.99.99 2.72-1.94 1.7-2.45s-1.51.99-1.51 1.69" style="fill:none;stroke-width:1px;stroke:#000000"/><path d="m771.44 344.87c-10.522 4.54-10.708 16.06-5.568 23.82 2.2415 3.39 6.7816 7.4 12.749 7.19 7.0243-.25 11.222-5.37 12.749-9.55 1.3278-3.65 2.5128-7.83 1.6133-11.6-1.1136-4.66-7.2242-11.41-14.791-11.64-2.5413-.08-4.64.95-6.753 1.78z" style="fill:#808080;stroke-width:.96784px;stroke:#000000"/><path d="m777.95 359.37c-.05-3.61-2.38.74-1.14 1.36 1.99.99 2.72-1.94 1.7-2.45s-1.51.99-1.51 1.69" style="fill:none;stroke-width:1px;stroke:#000000"/><path d="m734.7 344.87c-10.522 4.54-10.708 16.06-5.568 23.82 2.2415 3.39 6.7816 7.4 12.749 7.19 7.0243-.25 11.222-5.37 12.749-9.55 1.3278-3.65 2.5128-7.83 1.6133-11.6-1.1136-4.66-7.2242-11.41-14.791-11.64-2.5413-.08-4.64.95-6.753 1.78z" style="fill:#808080;stroke-width:.96784px;stroke:#000000"/><path d="m741.2 359.37c-.05-3.61-2.38.74-1.14 1.36 1.99.99 2.72-1.94 1.7-2.45s-1.51.99-1.51 1.69" style="fill:none;stroke-width:1px;stroke:#000000"/><path d="m810.22 344.87c-10.522 4.54-10.708 16.06-5.568 23.82 2.2415 3.39 6.7816 7.4 12.749 7.19 7.0243-.25 11.222-5.37 12.749-9.55 1.3278-3.65 2.5128-7.83 1.6133-11.6-1.1136-4.66-7.2242-11.41-14.791-11.64-2.5413-.08-4.64.95-6.753 1.78z" style="fill:#808080;stroke-width:.96784px;stroke:#000000"/><path d="m810.22 344.87c-10.522 4.54-10.708 16.06-5.568 23.82 2.2415 3.39 6.7816 7.4 12.749 7.19 7.0243-.25 11.222-5.37 12.749-9.55 1.3278-3.65 2.5128-7.83 1.6133-11.6-1.1136-4.66-7.2242-11.41-14.791-11.64-2.5413-.08-4.64.95-6.753 1.78z" style="fill:#808080;stroke-width:.96784px;stroke:#000000"/><path d="m810.22 344.87c-10.522 4.54-10.708 16.06-5.568 23.82 2.2415 3.39 6.7816 7.4 12.749 7.19 7.0243-.25 11.222-5.37 12.749-9.55 1.3278-3.65 2.5128-7.83 1.6133-11.6-1.1136-4.66-7.2242-11.41-14.791-11.64-2.5413-.08-4.64.95-6.753 1.78z" style="fill:#808080;stroke-width:.96784px;stroke:#000000"/><path d="m816.72 359.37c-.05-3.61-2.38.74-1.14 1.36 1.99.99 2.72-1.94 1.7-2.45s-1.51.99-1.51 1.69" style="fill:none;stroke-width:1px;stroke:#000000"/><path d="m905.3 343.09c.12-.09.46 11.97 0 11.04" style="fill:none;stroke-width:1px;stroke:#000000"/><path d="m916.2 356.19c-.89-2.03-9.01-.7-10.96-.7" style="fill:none;stroke-width:1px;stroke:#000000"/><path d="m901.78 228.37-21.05 34.71" style="fill:none;stroke-width:.5px;stroke:#000000"/><path d="m826.82 225.17c.198.18 74.061 1.23 75.531 2.1 1.66.99 3.26 3.23.67 6.77-6.34 8.67-20.09 32.01-21.06 33.29" style="fill:none;stroke-width:.5px;stroke:#000000"/><path d="m825.9 225.47c-.146-1.32-5.817 3.35-6.762 5.62-.906 2.18-18.252 33.49-18.042 33.28" style="fill:none;stroke-width:.5px;stroke:#000000"/><path d="m732.92 266.92v26.027c-.96314.13165 1.4103 5.1836 3.9411 5.6164 4.3576.74558 6.6193 1.0252 10.387.95541 2.3971-.0443 7.9622-9.3092 7.1158-9.6168l-2.4895-22.982h1.4364c.5812 0 1.0531-.53375 1.0531-1.1908l.40628-4.3179c.27297-.1859-1.5454.90116-3.9573 1.4541-1.8314.41967-4.2264.32552-5.0277.32672-2.8954.004-6.7198-.0586-9.8628.51899-3.9587.72723-6.7314-2.9863-5.5221-2.8275.34667.0455-.22536 2.0022.0303 2.4637v2.382c0 .65702.47187 1.1908 1.0527 1.1908z" style="fill:#4b4b4b;stroke-width:.99772px;stroke:#000000"/><path d="m735.04 267.67c-.007.28 1.922.48 2.339.51 2.31.14 5.218 1.07 7.307-.29" style="fill:none;stroke-width:.5px;stroke:#000000"/><path d="m754.36 259.87c-.637-2.14-6.524-4.6-10.523-3.81-3.447.68-7.636.12-9.021.66-2.585 1.03-4.699 2.6-4.389 5.07.432 3.46 16.971 1.15 18.426.96 1.967-.25 3.918.2 5.586-1.13.672-.53.134-1.03-.079-1.75z" style="fill:#313131;stroke-width:1px;stroke:#000000"/><path d="m750.43 269.03s-1.8406-1.8582-2.0144-.71207c-.91342 6.0145 1.2016 16.382-2.6482 25.407.98924 3.6493 5.0118-1.4888 6.6891-3.2432l-.82278-10.31z" style="fill:#6d6d6d;stroke-width:.37508"/><path d="m866.01 364.18c.034-.42008-.27959-.7895-.69954-.82423l-134.69-11.139c-.42028-.0347-.78881.27825-.82282.69834l-.1233 1.5228c-.034.42009.27933.78867.69961.82343l134.69 11.139c.41995.0347.78874-.27744.82276-.69752z" style="fill:#730f0f;stroke-width:.29743"/><rect x="819.42" y="598.44" width="1.213" height=".018" style="fill:#808080"/><path d="m1436.6 5.7123-28.725-.10061-8.0676 5.7466 6.78 249.04 24.461 5.4093 5.3116-5.4093z" style="fill:none;stroke-width:6.6972px;stroke:#aa0000"/><rect x="1401.2" y="12.634" width="29.477" height="253.52" style="fill:none;stroke-width:6.6995px;stroke:#aa0000"/><path d="m1428.7 263.95-25.033-25.284 25.033-14.956-25.033-23.923 25.033-16.316-25.033-22.563 25.033-17.676-25.033-21.203 25.033-19.037-25.033-19.843 25.033-20.397-25.033-18.482 25.033-21.756" style="fill:none;stroke-width:6.6495px;stroke:#aa0000"/><path d="m1378.9 201.02-9.35.88-2.89 3.349 10.424 17.177 2.647-3.603z" style="fill:#730f0f"/><path d="m1371.1 221.43 2.458 7.583c.375 2.36.515 3.932-.475 5.543-.597.97-1.261 1.298-2.274 1.268-.799-.024-1.279-.359-1.727-1.087-.77-1.251-1.01-2.766.346-3.706.227-.157.827-1.361-.759-1.36-.276 0-2.335-.307-1.771 1.499-.049 1.799.337 3.883 1.198 5.28.638 1.037 1.532 1.708 2.67 1.742 1.362.041 2.501-.75 3.303-2.056 1.102-1.793 1.567-4.582 1.139-7.206-.01-.032-.014-.063-.025-.093l-.694-7.31c-.096-.259-2.208.104-2.467.2-.259.095-1.018-.556-.922-.297z" style="fill:#730f0f"/><path d="m1350.1 423.69c-.065-.663-7.483 7.462-8.003 8.121-1.768 2.239-26.293-2.126-28.848-.849" style="fill:none;stroke-width:1px;stroke:#000000"/><path d="m1439 260.88c1.17.204-8.54 8.102-8.66 8.062-1.8-.602-28.59.402-30.69-.648" style="fill:none;stroke-width:1px;stroke:#000000"/><path d="m1437.5 13.205c-1.51 13.554 2.35 214.26.31 246.2" style="fill:none;stroke-width:1px;stroke:#000000"/><path d="m1430.2 265.09.36-33.081" style="fill:none;stroke-width:1px;stroke:#000000"/><path d="m1399 96.83c.68 10.77 1.81 151.08-.33 169.27" style="fill:none;stroke-width:1px;stroke:#000000"/><path d="m1376.3 204.82-9.732.543.905 16.427 9.658.833z" style="fill:#abc837"/><path d="m1362.8 422.28-4.86 9.735" style="fill:none;stroke-width:1px;stroke:#000000"/><path d="m1010.8 354.12 25.6-46.673-.2529-11.557-146.58 42.839-.34357 12.305z" style="fill:#7b513a;stroke-width:.68025"/><path d="m1010.9 354.13 25.6-46.673-.1319-12.087-25.788 46.426z" style="fill:#593f32;stroke-width:.68025"/><path d="m1010.9 341.84 25.6-46.673-122.16-2.2876-25.165 45.874z" style="fill:#987360;stroke-width:.68025"/><path d="m1000.7 342.05 25.601-46.671-.2529-51.143-120.64 42.839-.34375 51.89z" style="fill:#abc837;stroke-width:.68025"/><path d="m1000.7 342.05 25.601-46.671-.2529-51.143-24.471 46.973z" style="fill:#bcd35f;stroke-width:.68025"/><path d="m1000.7 290.51 25.601-46.671-96.071-2.2878-25.165 45.874z" style="fill:#cdde87;stroke-width:.68025"/><path d="m979.34 347.41c-10.522 4.54-10.708 16.06-5.568 23.82 2.2415 3.39 6.7816 7.4 12.749 7.19 7.0243-.25 11.222-5.37 12.749-9.55 1.3278-3.65 2.5128-7.83 1.6134-11.6-1.1136-4.66-7.2242-11.41-14.791-11.64-2.5413-.08-4.64.95-6.753 1.78z" style="fill:#808080;stroke-width:.96784px;stroke:#000000"/><path d="m909.67 344.68c-10.522 4.54-10.708 16.06-5.568 23.82 2.2415 3.39 6.7816 7.4 12.749 7.19 7.0243-.25 11.222-5.37 12.749-9.55 1.3278-3.65 2.5128-7.83 1.6133-11.6-1.1136-4.66-7.2242-11.41-14.791-11.64-2.5413-.08-4.64.95-6.753 1.78z" style="fill:#808080;stroke-width:.96784px;stroke:#000000"/><path d="m916.17 359.19c-.05-3.61-2.38.74-1.14 1.36 1.99.99 2.72-1.94 1.7-2.45s-1.51.99-1.51 1.69" style="fill:none;stroke-width:1px;stroke:#000000"/><path d="m987.07 362.39c.49-1.92-2.38.03-1.62.79 1.46 1.45 3.26-1.04 1.14-1.75-1.01-.34.5 2.04.41.93" style="fill:none;stroke-width:1px;stroke:#000000"/><path d="m1000.2 292.69c-.47-2.88-.05 8.64-.05 11.51 0 8.17.36 16.32 0 24.49-.14 3.21.19 6.66-.02 9.87" style="fill:none;stroke-width:1px;stroke:#000000"/><path d="m1024.6 249.29c-.02-.34-.02-1.36-.02-1.02 0 3.61-.17 7.2-.17 10.81 0 9.15.32 18.23.51 27.36.04 2.06-.57 8.82-.6 8.79" style="fill:none;stroke-width:1px;stroke:#000000"/><path d="m1008.9 342.29c1.31.51-117.46-2.88-118.16-3.74" style="fill:none;stroke-width:1px;stroke:#000000"/><path d="m1027.1 294.69c1.94 1.33 9.47-1.34 9.52.74.07 3.22-.27 10.91-.26 11.06.08 2.02-3.94 8.34-5.16 10.26-3.9 6.13-18.47 35.64-19.5 35.64" style="fill:none;stroke-width:1px;stroke:#000000"/><path d="m1035.2 297.69c-.08-.21-4.95 9.05-6.37 11.18-4.89 7.34-8.12 15.43-12.07 23.33-1.11 2.22-2.16 4.36-3.39 6.52-.29.51-2.55 4.17-1.76 3.39" style="fill:none;stroke-width:1px;stroke:#000000"/><path d="m889.47 338.59c.12-.09.46 11.97 0 11.04" style="fill:none;stroke-width:1px;stroke:#000000"/><path d="m905.27 312.69c.9.35-.37.9-.94 1.54-1.56 1.76-2.77 3.73-3.8 5.84-2.07 4.28-11.13 17.6-10.84 17.6" style="fill:none;stroke-width:1px;stroke:#000000"/><path d="m970.17 353.09c.18-.43-35.45-1.11-37.42-1.44" style="fill:none;stroke-width:1px;stroke:#000000"/><path d="m900.37 351.69c-.89-2.03-9.01-.7-10.96-.7" style="fill:none;stroke-width:1px;stroke:#000000"/><path d="m1010.4 353.99c-2.31-.36-6.6.41-8.84-.15" style="fill:none;stroke-width:1px;stroke:#000000"/><path d="m1023.5 299.99c-1.72 2.58-4.91 9.17-6.48 11.85-3.93 6.7-7.77 13.7-11.32 20.61-.09.18-2.66 5.04-2.87 5.4-.33.6-2.68 3.71-2.02 3.38" style="fill:none;stroke-width:1px;stroke:#000000"/><path d="m1023.7 251.09c.16-.27.35-.95.57-.73.44.44-1.19 2.59-1.35 2.87-1.97 3.46-3.84 6.97-5.74 10.47-3.1 5.69-14.25 28.26-14.59 27.58" style="fill:none;stroke-width:1px;stroke:#000000"/><path d="m931.57 244.09c-.34 0-27.9 38.68-23.01 41.58" style="fill:none;stroke-width:1px;stroke:#000000"/><path d="m1022 247.19c2.37-2.38-83.76-3.03-88.02-3.03" style="fill:none;stroke-width:1px;stroke:#000000"/><path d="m995.27 291.99c-1.38-.2-89.06-1.04-86.73-3.37" style="fill:none;stroke-width:1px;stroke:#000000"/><path d="m905.07 290.29c1.33-.67 0 36.14 0 45.75" style="fill:none;stroke-width:1px;stroke:#000000"/><path d="m955.87 296.09c-2.076.4586-2.9186 2.7277-4.433 4.0003-5.3221 6.0058-10.692 11.986-15.6 18.339-1.2796 2.2909 1.283 4.5005 3.5486 4.0439 4.2203.187 8.4073-.5952 12.605-.8434 1.4606.6469-.1194 2.9234.2303 4.2267-.2446 2.8418-.501 5.6825-.7705 8.522.6928-.7034.8362.037-.016.2403.041 2.2668 3.6265 1.0333 3.7105-.4188.4145-4.2943.776-8.5935 1.1416-12.892 3.1556-.2652 6.3328-.3272 9.4891-.3874 2.1049-.2128 1.7738-3.1639 0-3.6337-1.4518-.2473-2.9554.1724-4.4516.078-1.574.063-3.1459.166-4.7175.2713.4717-6.5908 1.2414-13.186 1.179-19.797-.1579-.9204-.9207-1.788-1.9119-1.7494zm-1.8535 6.6094c-.2688 5.0616-.6915 10.113-1.1132 15.164-4.2077.3044-8.3981.9723-12.627.8887 4.4192-5.4861 9.0413-10.805 13.74-16.053zm.3281 30.447c.322.2091-.1704.089 0 0z" style="-inkscape-stroke:none;clip-rule:nonzero;color:#000000;fill-rule:nonzero;fill:#000000;stroke-linecap:butt;stroke-linejoin:miter"/><path d="m974.36 270.9c-1.54 1.56.4-9.77-.31-11.18-.25-.51-16.57.89-16.59.64-.05-.97-1.47 9.34-1.47 10.44" style="fill:none;stroke-width:3.66px;stroke:#000000"/><path d="m744.13 257.34c1.903.23 2.743-2.21 3.344-3.68 1.362-3.33 1.718-6.72 1.531-10.28-.062-1.18-1.76-2.04-.875-1.86 2.213.44 2.286.13 4.594-1.31 1.228-.77 3.105-1.56 4.048-2.74 1.124-1.4 1.173-3.01 1.641-4.7.844-3.04 2.355-5.75 2.954-8.86.321-1.67-.287-3.64.437-3.17 3.158 2.04 5.945 3.26 9.737 3.72 2.259.26 4.849.61 7.11.1 2.13-.47 3.762-1.73 5.579-2.84 3.224-1.97 6.688-3.9 9.408-6.56 4.755-4.66.685-7.07 2.594-7.38 3.531-.6 6.799-2.32 9.987-4.33 3.659-2.3 6.868-5 4.157-9.52-.533-.88-1.034-1.43-1.75-2.18-6.278-6.63-16.629-5.19-24.833-6.13-3.388-.39-8.285-1.28-11.596-.11-3.66 1.29-5.405 4.28-7.22 7.55-.555 1-2.299 2.86-2.954 2.41-1.072-.75-2.083-1.47-3.274-2.01-4.342-1.95-9.539-2.4-14.191-1.42-6.231 1.31-9.872 7.13-12.29 12.51-1.04 2.31-1.782 7.17-3.939 8.75-3.518 2.57-9.068-1.61-12.26 2.29-2.796 3.42-1.098 10.14.664 13.57.789 1.54 2.932 4.22 2.932 6.19 0 .97-1.189 1.27-1.947 1.47-1.456.38-4.216.65-4.595 2.51-.47 2.31 1.263 4.68 2.407 6.46 3.168 4.93 9.094 8.3 14.878 8.97 2.685.31 5.299-.88 7.986-.88" style="fill:#d9d9d9"/><path d="m717.7 248.5c3.77 5 12.59-16.19 11.177-24.65-.832-4.97 19.241-18.16 25.471-19.47 4.652-.98 9.849-.52 14.191 1.43 1.191.54 2.203 1.26 3.275 2 .654.46 2.398-1.4 2.953-2.4 1.816-3.27 3.56-6.26 7.22-7.55 3.311-1.17 8.208-.28 11.596.11 6.304.72 13.876.04 19.894 2.69.226-1.17-.014-2.49-.931-4.02-.533-.88-1.034-1.43-1.75-2.18-6.278-6.63-16.629-5.19-24.833-6.13-3.388-.39-8.285-1.28-11.596-.11-3.66 1.29-5.405 4.28-7.22 7.55-.555 1-2.299 2.86-2.954 2.41-1.072-.75-2.083-1.47-3.274-2.01-4.342-1.95-9.539-2.4-14.191-1.42-6.231 1.31-9.872 7.13-12.29 12.51-1.04 2.31-1.782 7.17-3.939 8.75-3.518 2.57-9.068-1.61-12.26 2.29-2.796 3.42-1.098 10.14.664 13.57.789 1.54 2.932 4.22 2.932 6.19 0 .97-1.189 1.27-1.947 1.47-1.456.38-4.216.65-4.595 2.51-.47 2.31 1.133 4.77 2.407 6.46z" style="fill:#e5e5e5"/><path d="m1411.4 354.12 25.6-46.673-.2529-11.557-146.58 42.839-.3436 12.305z" style="fill:#7b513a;stroke-width:.68025"/><path d="m1411.6 354.13 25.6-46.673-.1319-12.087-25.788 46.426z" style="fill:#593f32;stroke-width:.68025"/><path d="m1411.6 341.84 25.6-46.673-122.16-2.2876-25.165 45.874z" style="fill:#987360;stroke-width:.68025"/><path d="m1401.4 342.05 25.601-46.671-.2529-51.143-120.64 42.839-.3438 51.89z" style="fill:#abc837;stroke-width:.68025"/><path d="m1401.4 342.05 25.601-46.671-.2529-51.143-24.471 46.973z" style="fill:#bcd35f;stroke-width:.68025"/><path d="m1401.4 290.51 25.601-46.671-96.071-2.2878-25.165 45.874z" style="fill:#cdde87;stroke-width:.68025"/><path d="m1380 347.41c-10.522 4.54-10.708 16.06-5.5681 23.82 2.2415 3.39 6.7816 7.4 12.749 7.19 7.0243-.25 11.222-5.37 12.749-9.55 1.3277-3.65 2.5127-7.83 1.6133-11.6-1.1137-4.66-7.2242-11.41-14.791-11.64-2.5413-.08-4.64.95-6.753 1.78z" style="fill:#808080;stroke-width:.96784px;stroke:#000000"/><path d="m1310.4 344.68c-10.522 4.54-10.708 16.06-5.5681 23.82 2.2415 3.39 6.7816 7.4 12.749 7.19 7.0243-.25 11.222-5.37 12.749-9.55 1.3277-3.65 2.5127-7.83 1.6133-11.6-1.1137-4.66-7.2242-11.41-14.791-11.64-2.5413-.08-4.64.95-6.753 1.78z" style="fill:#808080;stroke-width:.96784px;stroke:#000000"/><path d="m1316.9 359.19c-.05-3.61-2.38.74-1.14 1.36 1.99.99 2.72-1.94 1.7-2.45s-1.51.99-1.51 1.69" style="fill:none;stroke-width:1px;stroke:#000000"/><path d="m1387.8 362.39c.49-1.92-2.38.03-1.62.79 1.46 1.45 3.26-1.04 1.14-1.75-1.01-.34.5 2.04.41.93" style="fill:none;stroke-width:1px;stroke:#000000"/><path d="m1400.9 292.69c-.47-2.88-.05 8.64-.05 11.51 0 8.17.36 16.32 0 24.49-.14 3.21.19 6.66-.02 9.87" style="fill:none;stroke-width:1px;stroke:#000000"/><path d="m1425.3 249.29c-.02-.34-.02-1.36-.02-1.02 0 3.61-.17 7.2-.17 10.81 0 9.15.32 18.23.51 27.36.04 2.06-.57 8.82-.6 8.79" style="fill:none;stroke-width:1px;stroke:#000000"/><path d="m1409.6 342.29c1.31.51-117.46-2.88-118.16-3.74" style="fill:none;stroke-width:1px;stroke:#000000"/><path d="m1427.8 294.69c1.94 1.33 9.47-1.34 9.52.74.07 3.22-.27 10.91-.26 11.06.08 2.02-3.94 8.34-5.16 10.26-3.9 6.13-18.47 35.64-19.5 35.64" style="fill:none;stroke-width:1px;stroke:#000000"/><path d="m1435.9 297.69c-.08-.21-4.95 9.05-6.37 11.18-4.89 7.34-8.12 15.43-12.07 23.33-1.11 2.22-2.16 4.36-3.39 6.52-.29.51-2.55 4.17-1.76 3.39" style="fill:none;stroke-width:1px;stroke:#000000"/><path d="m1290.2 338.59c.12-.09.46 11.97 0 11.04" style="fill:none;stroke-width:1px;stroke:#000000"/><path d="m1306 312.69c.9.35-.37.9-.94 1.54-1.56 1.76-2.77 3.73-3.8 5.84-2.07 4.28-11.13 17.6-10.84 17.6" style="fill:none;stroke-width:1px;stroke:#000000"/><path d="m1370.9 353.09c.18-.43-35.45-1.11-37.42-1.44" style="fill:none;stroke-width:1px;stroke:#000000"/><path d="m1301.1 351.69c-.89-2.03-9.01-.7-10.96-.7" style="fill:none;stroke-width:1px;stroke:#000000"/><path d="m1411.1 353.99c-2.31-.36-6.6.41-8.84-.15" style="fill:none;stroke-width:1px;stroke:#000000"/><path d="m1424.2 299.99c-1.72 2.58-4.91 9.17-6.48 11.85-3.93 6.7-7.77 13.7-11.32 20.61-.09.18-2.66 5.04-2.87 5.4-.33.6-2.68 3.71-2.02 3.38" style="fill:none;stroke-width:1px;stroke:#000000"/><path d="m1424.4 251.09c.16-.27.35-.95.57-.73.44.44-1.19 2.59-1.35 2.87-1.97 3.46-3.84 6.97-5.74 10.47-3.1 5.69-14.25 28.26-14.59 27.58" style="fill:none;stroke-width:1px;stroke:#000000"/><path d="m1332.3 244.09c-.34 0-27.9 38.68-23.01 41.58" style="fill:none;stroke-width:1px;stroke:#000000"/><path d="m1422.7 247.19c2.37-2.38-83.76-3.03-88.02-3.03" style="fill:none;stroke-width:1px;stroke:#000000"/><path d="m1396 291.99c-1.38-.2-89.06-1.04-86.73-3.37" style="fill:none;stroke-width:1px;stroke:#000000"/><path d="m1305.8 290.29c1.33-.67 0 36.14 0 45.75" style="fill:none;stroke-width:1px;stroke:#000000"/><path d="m1375.1 270.9c-1.54 1.56.4-9.77-.31-11.18-.25-.51-16.57.89-16.59.64-.05-.97-1.47 9.34-1.47 10.44" style="fill:none;stroke-width:3.66px;stroke:#000000"/><path d="m1359.7 298.02c-3.1036.2605-6.3787 1.1194-8.7234 3.2712-1.5823 1.6267-2.2172 4.3043-1.2509 6.3906.828 1.5263 3.5333 2.18 4.4985.4602.7612-1.1608-.6712-2.2037-1.2456-2.6987.047-1.643 1.6419-2.3731 2.9579-2.9048 2.5009-.8753 5.5-1.4362 7.939-.098 1.8245 1.1924 1.4086 3.7016.8439 5.4796-1.7135 4.9806-5.1695 9.1039-8.4885 13.1-2.9893 3.5588-6.3529 6.778-9.4277 10.257-1.1252 1.0398-.6578 3.1901.9439 3.3983 6.7164.3443 13.457.4531 20.178.1409 1.9218-.2111 4.0198-.077 5.7382-1.0801 2.1738-1.3819-.4817-4.4588-2.1411-3.063-3.0456.6819-6.208.5556-9.3128.6537-3.4559.031-6.9121-.026-10.366-.1298 5.5823-5.9125 11.356-11.864 15.149-19.138 1.6045-3.141 2.7905-7.1541.9447-10.45-1.5816-2.8904-5.149-3.8423-8.2365-3.5893z" style="-inkscape-stroke:none;clip-rule:nonzero;color:#000000;fill-rule:nonzero;fill:#000000;stroke-linecap:butt;stroke-linejoin:miter"/><path d="m1364.4 425.04c0-2.455-1.993-4.448-4.448-4.448h-56.111c-2.455 0-9.906 12.487-9.906 14.942l5.458 13.864c0 2.455 1.993 4.448 4.448 4.448l53.38 10.751c2.456 0 7.179-12.744 7.179-15.199z" style="fill:#a1a1a1"/><path d="m1347.9 168.54-28.725-.10061-8.0676 5.7466 6.78 249.04 24.461 5.4093 5.3116-5.4093z" style="fill:none;stroke-width:6.6972px;stroke:#aa0000"/><rect x="1312.5" y="175.46" width="29.477" height="253.52" style="fill:none;stroke-width:6.6995px;stroke:#aa0000"/><path d="m1340 426.78-25.033-25.284 25.033-14.956-25.033-23.923 25.033-16.316-25.033-22.563 25.033-17.676-25.033-21.203 25.033-19.037-25.033-19.843 25.033-20.397-25.033-18.482 25.033-21.756" style="fill:none;stroke-width:6.6495px;stroke:#aa0000"/><path d="m1359.1 436.92c0-2.455-1.993-4.448-4.448-4.448h-56.111c-2.455 0-4.448 1.993-4.448 4.448v24.358c0 2.455 1.993 4.448 4.448 4.448h56.111c2.455 0 4.448-1.993 4.448-4.448z" style="fill:#808080"/><path d="m1405.3 3.3633-93.517 170.48" style="fill:none;stroke-width:8.6762px;stroke:#808080"/><path d="m1436.2 3.8445-93.249 170" style="fill:none;stroke-width:8.6785px;stroke:#808080"/><path d="m1409.3 6.84c0-2.455-1.993-4.448-4.448-4.448l-49.918-.811c-2.455 0-25.901 33.927-25.901 36.382l5.458 51.243c0 2.455 1.993 4.448 4.448 4.448l51.343 10.221c2.455 0 19.766-36.466 19.018-35.298z" style="fill:#d40000"/><path d="m1406 11.638.29 43.491-10.08 14.289-.24-41.989z" style="fill:none"/><path d="m1394.2 40.369c0-4.7982-3.896-8.6946-8.696-8.6946h-47.615c-4.8 0-8.696 3.8963-8.696 8.6946v56.481c0 4.7982 3.896 8.6946 8.696 8.6946h47.615c4.8 0 8.696-3.8963 8.696-8.6946z" style="fill:#aa0000;stroke-width:1.4904"/><path d="m1405.9 4.932c.08.198-14.75 23.507-16.93 25.691" style="fill:none;stroke-width:1px;stroke:#000000"/><path d="m1394.6 41.588c.13-.106.96 45.589.49 50.577-.2 2.091-.79 4.219-.79 6.32" style="fill:none;stroke-width:1px;stroke:#000000"/><path d="m1332.4 35.86c.165.048-1.722 30.796-1.411 40.43.25 7.75 1.157 14.744.388 22.434" style="fill:none;stroke-width:1px;stroke:#000000"/><path d="m1387.3 32.755c.53-.329-39.449.513-49.89-1.575" style="fill:none;stroke-width:1px;stroke:#000000"/><path d="m1357 1.432c.039-.011-5.316 7.786-6.091 8.893-3.231 4.615-12.306 14.639-14.588 19.774" style="fill:none;stroke-width:1px;stroke:#000000"/><path d="m1404.2 3.758c2.54-.685-37.4.577-45.043-.296" style="fill:none;stroke-width:1px;stroke:#000000"/><path d="m1384.4 104.17s-40.562 1.371-48.678-1.42" style="fill:none;stroke-width:1px;stroke:#000000"/><path d="m1397.8 59.805c.22-4.646-.51-29.999-.51-29.999l8.69-15.253s1.06 28.224 1.06 35.487" style="fill:none;stroke-width:1px;stroke:#000000"/><path d="m1406.6 49.666c1.55.119-5.25 12.251-8 13.63" style="fill:none;stroke-width:1px;stroke:#000000"/><path d="m1346.4 176.13c-.82-1.821-.187 3.991-.187 5.989v18.853c.414 15.314 1.726 30.594 2.49 45.888 1.43 28.589 3.03 57.884 1.068 86.44-1.279 18.607-.413 69.118-.413 87.813" style="fill:none;stroke-width:1px;stroke:#000000"/><path d="m1341.9 384.32c.139-.724-.604 3.465-.63 3.636-.356 2.286-1.017 38.123-1.099 41.247-.014.522-.546 3.848-.1 4.294.02.02.4-.272.4-.399" style="fill:none;stroke-width:1px;stroke:#000000"/><path d="m1310 178.53c-.1-1.289.233-5.132-.08-3.878-1.511 6.045-1.166 13.892-1.067 19.921.068 4.151.239 8.3.355 12.45.485 17.212 1.647 34.346 1.423 51.579-.213 16.459 1.449 33.737 0 50.157-1.818 20.608 1.292 44.575.415 65.31-.697 16.473 3.558 39.692.325 55.857" style="fill:none;stroke-width:1px;stroke:#000000"/><path d="m1141.6 354.12 25.6-46.673-.2529-11.557-146.58 42.839-.3436 12.305z" style="fill:#7b513a;stroke-width:.68025"/><path d="m1141.7 354.13 25.6-46.673-.1319-12.087-25.788 46.426z" style="fill:#593f32;stroke-width:.68025"/><path d="m1141.7 341.84 25.6-46.673-122.16-2.2876-25.165 45.874z" style="fill:#987360;stroke-width:.68025"/><path d="m1131.5 342.05 25.601-46.671-.2529-51.143-120.64 42.839-.3438 51.89z" style="fill:#abc837;stroke-width:.68025"/><path d="m1131.5 342.05 25.601-46.671-.2529-51.143-24.471 46.973z" style="fill:#bcd35f;stroke-width:.68025"/><path d="m1131.5 290.51 25.601-46.671-96.071-2.2878-25.165 45.874z" style="fill:#cdde87;stroke-width:.68025"/><path d="m1110.2 347.41c-10.522 4.54-10.708 16.06-5.5681 23.82 2.2415 3.39 6.7816 7.4 12.749 7.19 7.0243-.25 11.222-5.37 12.749-9.55 1.3277-3.65 2.5127-7.83 1.6133-11.6-1.1137-4.66-7.2242-11.41-14.791-11.64-2.5413-.08-4.64.95-6.753 1.78z" style="fill:#808080;stroke-width:.96784px;stroke:#000000"/><path d="m1040.5 344.68c-10.522 4.54-10.708 16.06-5.5681 23.82 2.2415 3.39 6.7816 7.4 12.749 7.19 7.0243-.25 11.222-5.37 12.749-9.55 1.3277-3.65 2.5127-7.83 1.6133-11.6-1.1137-4.66-7.2242-11.41-14.791-11.64-2.5413-.08-4.64.95-6.753 1.78z" style="fill:#808080;stroke-width:.96784px;stroke:#000000"/><path d="m1047 359.19c-.05-3.61-2.38.74-1.14 1.36 1.99.99 2.72-1.94 1.7-2.45s-1.51.99-1.51 1.69" style="fill:none;stroke-width:1px;stroke:#000000"/><path d="m1117.9 362.39c.49-1.92-2.38.03-1.62.79 1.46 1.45 3.26-1.04 1.14-1.75-1.01-.34.5 2.04.41.93" style="fill:none;stroke-width:1px;stroke:#000000"/><path d="m1131 292.69c-.47-2.88-.05 8.64-.05 11.51 0 8.17.36 16.32 0 24.49-.14 3.21.19 6.66-.02 9.87" style="fill:none;stroke-width:1px;stroke:#000000"/><path d="m1155.4 249.29c-.02-.34-.02-1.36-.02-1.02 0 3.61-.17 7.2-.17 10.81 0 9.15.32 18.23.51 27.36.04 2.06-.57 8.82-.6 8.79" style="fill:none;stroke-width:1px;stroke:#000000"/><path d="m1139.7 342.29c1.31.51-117.46-2.88-118.16-3.74" style="fill:none;stroke-width:1px;stroke:#000000"/><path d="m1157.9 294.69c1.94 1.33 9.47-1.34 9.52.74.07 3.22-.27 10.91-.26 11.06.08 2.02-3.94 8.34-5.16 10.26-3.9 6.13-18.47 35.64-19.5 35.64" style="fill:none;stroke-width:1px;stroke:#000000"/><path d="m1166 297.69c-.08-.21-4.95 9.05-6.37 11.18-4.89 7.34-8.12 15.43-12.07 23.33-1.11 2.22-2.16 4.36-3.39 6.52-.29.51-2.55 4.17-1.76 3.39" style="fill:none;stroke-width:1px;stroke:#000000"/><path d="m1020.3 338.59c.12-.09.46 11.97 0 11.04" style="fill:none;stroke-width:1px;stroke:#000000"/><path d="m1036.1 312.69c.9.35-.37.9-.94 1.54-1.56 1.76-2.77 3.73-3.8 5.84-2.07 4.28-11.13 17.6-10.84 17.6" style="fill:none;stroke-width:1px;stroke:#000000"/><path d="m1101 353.09c.18-.43-35.45-1.11-37.42-1.44" style="fill:none;stroke-width:1px;stroke:#000000"/><path d="m1031.2 351.69c-.89-2.03-9.01-.7-10.96-.7" style="fill:none;stroke-width:1px;stroke:#000000"/><path d="m1141.2 353.99c-2.31-.36-6.6.41-8.84-.15" style="fill:none;stroke-width:1px;stroke:#000000"/><path d="m1154.3 299.99c-1.72 2.58-4.91 9.17-6.48 11.85-3.93 6.7-7.77 13.7-11.32 20.61-.09.18-2.66 5.04-2.87 5.4-.33.6-2.68 3.71-2.02 3.38" style="fill:none;stroke-width:1px;stroke:#000000"/><path d="m1154.5 251.09c.16-.27.35-.95.57-.73.44.44-1.19 2.59-1.35 2.87-1.97 3.46-3.84 6.97-5.74 10.47-3.1 5.69-14.25 28.26-14.59 27.58" style="fill:none;stroke-width:1px;stroke:#000000"/><path d="m1062.4 244.09c-.34 0-27.9 38.68-23.01 41.58" style="fill:none;stroke-width:1px;stroke:#000000"/><path d="m1152.8 247.19c2.37-2.38-83.76-3.03-88.02-3.03" style="fill:none;stroke-width:1px;stroke:#000000"/><path d="m1126.1 291.99c-1.38-.2-89.06-1.04-86.73-3.37" style="fill:none;stroke-width:1px;stroke:#000000"/><path d="m1035.9 290.29c1.33-.67 0 36.14 0 45.75" style="fill:none;stroke-width:1px;stroke:#000000"/><path d="m1105.2 270.9c-1.54 1.56.4-9.77-.31-11.18-.25-.51-16.57.89-16.59.64-.05-.97-1.47 9.34-1.47 10.44" style="fill:none;stroke-width:3.66px;stroke:#000000"/><path d="m1092.7 295.4c-2.2625.6872-3.2462 3.205-4.9021 4.7474-3.9451 4.6669-7.8723 9.349-11.815 14.018 1.0474-.078.6887 1.8032-.3936.9259.3361 2.845 4.4085 1.3893 5.0455-.7639 3.4001-4.0313 6.79-8.071 10.196-12.098-.5994 10.007-1.5204 19.991-2.416 29.975-2.9838.4844-6.3002-.069-9.0636 1.1312-1.4589 1.996 1.1692 3.8073 3.0411 2.9933 6.0297-.4542 12.059-.9085 18.089-1.3627 3.3738-.5947.6006-5.1432-1.9693-3.5228-1.9503-.1717-5.31 1.0483-6.3473-.025.9527-11.173 2.131-22.342 2.4935-33.552 0-1.1529-.6144-2.5185-1.958-2.4666z" style="-inkscape-stroke:none;clip-rule:nonzero;color:#000000;fill-rule:nonzero;fill:#000000;stroke-linecap:butt;stroke-linejoin:miter"/><path d="m1018.3 259.84-3.7746 8.8046" style="fill:none;stroke-width:.95778px;stroke:#000000"/><path d="m1277.8 354.12 25.6-46.673-.2529-11.557-146.58 42.839-.3436 12.305z" style="fill:#7b513a;stroke-width:.68025"/><path d="m1277.9 354.13 25.6-46.673-.1319-12.087-25.788 46.426z" style="fill:#593f32;stroke-width:.68025"/><path d="m1277.9 341.84 25.6-46.673-122.16-2.2876-25.165 45.874z" style="fill:#987360;stroke-width:.68025"/><path d="m1267.7 342.05 25.601-46.671-.2529-51.143-120.64 42.839-.3438 51.89z" style="fill:#abc837;stroke-width:.68025"/><path d="m1267.7 342.05 25.601-46.671-.2529-51.143-24.471 46.973z" style="fill:#bcd35f;stroke-width:.68025"/><path d="m1267.7 290.51 25.601-46.671-96.071-2.2878-25.165 45.874z" style="fill:#cdde87;stroke-width:.68025"/><path d="m1246.3 347.41c-10.522 4.54-10.708 16.06-5.5681 23.82 2.2415 3.39 6.7816 7.4 12.749 7.19 7.0243-.25 11.222-5.37 12.749-9.55 1.3277-3.65 2.5127-7.83 1.6133-11.6-1.1137-4.66-7.2242-11.41-14.791-11.64-2.5413-.08-4.64.95-6.753 1.78z" style="fill:#808080;stroke-width:.96784px;stroke:#000000"/><path d="m1176.6 344.68c-10.522 4.54-10.708 16.06-5.5681 23.82 2.2415 3.39 6.7816 7.4 12.749 7.19 7.0243-.25 11.222-5.37 12.749-9.55 1.3277-3.65 2.5127-7.83 1.6133-11.6-1.1137-4.66-7.2242-11.41-14.791-11.64-2.5413-.08-4.64.95-6.753 1.78z" style="fill:#808080;stroke-width:.96784px;stroke:#000000"/><path d="m1183.1 359.19c-.05-3.61-2.38.74-1.14 1.36 1.99.99 2.72-1.94 1.7-2.45s-1.51.99-1.51 1.69" style="fill:none;stroke-width:1px;stroke:#000000"/><path d="m1254 362.39c.49-1.92-2.38.03-1.62.79 1.46 1.45 3.26-1.04 1.14-1.75-1.01-.34.5 2.04.41.93" style="fill:none;stroke-width:1px;stroke:#000000"/><path d="m1267.1 292.69c-.47-2.88-.05 8.64-.05 11.51 0 8.17.36 16.32 0 24.49-.14 3.21.19 6.66-.02 9.87" style="fill:none;stroke-width:1px;stroke:#000000"/><path d="m1291.5 249.29c-.02-.34-.02-1.36-.02-1.02 0 3.61-.17 7.2-.17 10.81 0 9.15.32 18.23.51 27.36.04 2.06-.57 8.82-.6 8.79" style="fill:none;stroke-width:1px;stroke:#000000"/><path d="m1275.8 342.29c1.31.51-117.46-2.88-118.16-3.74" style="fill:none;stroke-width:1px;stroke:#000000"/><path d="m1294 294.69c1.94 1.33 9.47-1.34 9.52.74.07 3.22-.27 10.91-.26 11.06.08 2.02-3.94 8.34-5.16 10.26-3.9 6.13-18.47 35.64-19.5 35.64" style="fill:none;stroke-width:1px;stroke:#000000"/><path d="m1302.1 297.69c-.08-.21-4.95 9.05-6.37 11.18-4.89 7.34-8.12 15.43-12.07 23.33-1.11 2.22-2.16 4.36-3.39 6.52-.29.51-2.55 4.17-1.76 3.39" style="fill:none;stroke-width:1px;stroke:#000000"/><path d="m1156.4 338.59c.12-.09.46 11.97 0 11.04" style="fill:none;stroke-width:1px;stroke:#000000"/><path d="m1172.2 312.69c.9.35-.37.9-.94 1.54-1.56 1.76-2.77 3.73-3.8 5.84-2.07 4.28-11.13 17.6-10.84 17.6" style="fill:none;stroke-width:1px;stroke:#000000"/><path d="m1237.1 353.09c.18-.43-35.45-1.11-37.42-1.44" style="fill:none;stroke-width:1px;stroke:#000000"/><path d="m1167.3 351.69c-.89-2.03-9.01-.7-10.96-.7" style="fill:none;stroke-width:1px;stroke:#000000"/><path d="m1277.3 353.99c-2.31-.36-6.6.41-8.84-.15" style="fill:none;stroke-width:1px;stroke:#000000"/><path d="m1290.4 299.99c-1.72 2.58-4.91 9.17-6.48 11.85-3.93 6.7-7.77 13.7-11.32 20.61-.09.18-2.66 5.04-2.87 5.4-.33.6-2.68 3.71-2.02 3.38" style="fill:none;stroke-width:1px;stroke:#000000"/><path d="m1290.6 251.09c.16-.27.35-.95.57-.73.44.44-1.19 2.59-1.35 2.87-1.97 3.46-3.84 6.97-5.74 10.47-3.1 5.69-14.25 28.26-14.59 27.58" style="fill:none;stroke-width:1px;stroke:#000000"/><path d="m1198.5 244.09c-.34 0-27.9 38.68-23.01 41.58" style="fill:none;stroke-width:1px;stroke:#000000"/><path d="m1288.9 247.19c2.37-2.38-83.76-3.03-88.02-3.03" style="fill:none;stroke-width:1px;stroke:#000000"/><path d="m1262.2 291.99c-1.38-.2-89.06-1.04-86.73-3.37" style="fill:none;stroke-width:1px;stroke:#000000"/><path d="m1172 290.29c1.33-.67 0 36.14 0 45.75" style="fill:none;stroke-width:1px;stroke:#000000"/><path d="m1220.7 297.2c-3.462.2828-6.4534 2.2465-9.3134 4.0446-1.7703 1.1-.9541 4.4463 1.32 3.8038 1.5979-1.0268 2.8925-2.4769 4.7482-3.1182 3.0235-1.5996 7.124-1.6069 9.7448.7745 1.0915.8695 1.2622 2.3285.4043 3.4265-1.4745 2.2773-3.7138 3.9382-5.8868 5.5054-1.3153.8989-2.8193 1.5142-4.3903 1.7516-1.8583.3317-2.6539 3.3394-.4387 3.6886 2.0857-.019 4.1441-.462 6.2251-.5657 2.1405-.3039 4.0235 1.057 5.1031 2.7979 1.8623 2.6668 2.1331 6.7072-.2804 9.1312-2.4069 2.7309-6.1999 4.412-9.8483 3.8644-3.4427-.9209-6.6686-3.4555-7.5942-7.0133-.6181-1.5903-.3727-3.3861-.99-4.9475-1.1466-1.7148-4.0475.015-3.3394 1.853.3733 2.8037 1.1745 5.629 2.8365 7.9677 2.2495 3.2019 5.875 5.5487 9.7933 5.9725 3.4443.1585 6.8494-1.1774 9.6343-3.1408 2.79-1.9981 4.9429-5.1487 4.9276-8.6808.157-4.6967-2.6625-9.6028-7.2225-11.157 1.004-1.4833 2.7386-2.3391 3.7358-3.8656 1.7124-2.0245 2.8138-5.1563 1.2072-7.5607-2.118-3.4497-6.4937-4.9151-10.376-4.5323z" style="-inkscape-stroke:none;clip-rule:nonzero;color:#000000;fill-rule:nonzero;fill:#000000;stroke-linecap:butt;stroke-linejoin:miter"/><path d="m1241.3 270.9c-1.54 1.56.4-9.77-.31-11.18-.25-.51-16.57.89-16.59.64-.05-.97-1.47 9.34-1.47 10.44" style="fill:none;stroke-width:3.66px;stroke:#000000"/>
<path d="m1377.6 201.44-9.3496.88086a1.1501 1.1501 0 00-.7637.39258l-2.8906 3.3476a1.1501 1.1501 0 00-.2773.80664l.7871 16.492a1.1501 1.1501 0 001.0664 1.0918l3.043.21679 1.9766 6.0996c.3597 2.2751.4571 3.4299-.3242 4.7012-.4554.73974-.5114.74086-1.2578.71874-.4928-.0148-.4449.0107-.7832-.53906-.3043-.4944-.46-1.0037-.4531-1.3438.01-.34007.061-.52748.4746-.81445.4273-.29558.4615-.47121.5859-.73633.1244-.26511.2341-.58831.207-1.0195-.027-.43122-.2839-.98815-.7246-1.2988-.4406-.31067-.9405-.40073-1.4824-.40039.1449 0-.1813-.0187-.4687-.0195-.2874-.00084-.6527.0122-1.0723.14258-.4196.13034-.9506.42908-1.248.99609-.2627.50077-.2689 1.0814-.1328 1.6465-.032 1.9502.3483 4.1082 1.3711 5.7676.7732 1.2568 2.0418 2.2421 3.6133 2.2891 1.8263.055 3.3708-1.0624 4.3184-2.6055 1.3051-2.1235 1.7632-5.1117 1.293-7.9941a1.1501 1.1501 0 00-.023-.10156l-.4844-5.1055 1.209.0859a1.1501 1.1501 0 001.0098-.46484l2.6465-3.6035a1.1501 1.1501 0 00.2207-.73437l-.8301-17.803a1.1501 1.1501 0 00-1.2559-1.0918z" style="-inkscape-stroke:none;clip-rule:evenodd;color:#000000;fill-rule:evenodd;fill:#ffffff;stroke-linecap:round;stroke-linejoin:round;stroke-miterlimit:1.5;stroke-width:8.1"/><path d="m1377.8 197.38c-3.4686.26718-6.9368.61082-10.397.97092-2.4103.38614-3.6355 2.6514-5.1712 4.2743-1.3172 1.2895-2.1759 3.0862-1.9064 4.9602.2827 5.498.4846 11.003.8182 16.497-.2446 1.7142 2.8927 2.9253.7957 3.9596-1.5149 1.5453-1.6946 3.7999-1.4319 5.8293.099 4.2618 2.1577 8.9604 6.3874 10.537 3.9939 1.566 8.6205-.69684 10.576-4.3446 1.8444-3.0767 2.2072-7.0758 1.6614-10.394-.051-.55956-.1064-1.123-.1582-1.6837 1.4853-.93365 2.2362-2.5975 3.331-3.9162 1.1567-1.3036 1.6505-3.0627 1.4129-4.7827-.2885-5.8185-.5088-11.642-.8398-17.457-.3416-2.4518-2.6034-4.4309-5.0777-4.4492z" style="-inkscape-stroke:none;clip-rule:evenodd;color:#000000;fill-rule:evenodd;fill:#ffffff;stroke-linecap:round;stroke-linejoin:round;stroke-miterlimit:1.5"/><path d="m1377.7 202.58-9.3501.88-2.8899 3.349 10.424 17.177 2.6469-3.603z" style="clip-rule:evenodd;fill-rule:evenodd;fill:#003b00;stroke-linecap:round;stroke-linejoin:round;stroke-miterlimit:1.5"/><path d="m1365.6 107c.134-3.872.47 6.185.595 7.374.1194 1.1342.3821 3.5568.7301 6.849m1.6449 16.147c1.4338 14.705 2.966 32.462 2.966 41.492 0 5.65-.148 25.665.286 25.665" style="clip-rule:evenodd;fill:none;stroke-linecap:round;stroke-linejoin:round;stroke-miterlimit:1.5;stroke-width:1px;stroke:#000000"/><path d="m1369.9 222.94 2.458 7.583c.375 2.36.515 3.932-.4751 5.543-.5969.97-1.261 1.298-2.2739 1.268-.799-.024-1.279-.359-1.727-1.087-.77-1.251-1.0101-2.766.346-3.706.227-.157.8269-1.361-.759-1.36-.276 0-2.335-.307-1.7711 1.499-.049 1.799.337 3.883 1.1981 5.28.638 1.037 1.532 1.708 2.6699 1.742 1.3621.041 2.5011-.75 3.3031-2.056 1.102-1.793 1.567-4.582 1.1389-7.206-.01-.032-.014-.063-.025-.093l-.694-7.31c-.096-.259-2.208.104-2.467.2-.259.095-1.018-.556-.922-.297z" style="clip-rule:evenodd;fill-rule:evenodd;fill:#200404;stroke-linecap:round;stroke-linejoin:round;stroke-miterlimit:1.5"/><path d="m1375.1 206.33-9.732.543.905 16.427 9.658.833z" style="clip-rule:evenodd;fill-rule:evenodd;fill:#008000;stroke-linecap:round;stroke-linejoin:round;stroke-miterlimit:1.5"/></svg>
