<?xml version="1.0" encoding="UTF-8"?>
<svg style="clip-rule:evenodd;fill-rule:evenodd;stroke-linecap:round;stroke-linejoin:round;stroke-miterlimit:1.5" version="1.1" viewBox="0 0 1773 218" xml:space="preserve" xmlns="http://www.w3.org/2000/svg">
    <g transform="translate(-657.75 -2378.5)">
        <g transform="translate(1007.4 1566.9)">
            <path d="m214.92 942.49-43.539 79.371" style="fill:none;stroke-width:6.71px;stroke:#987360"/>
        </g>
        <g transform="matrix(.96884 -.24306 .24644 .96526 293.71 1649.6)">
            <path d="m211.91 942.4-33.178 76.5" style="fill:none;stroke-width:6.71px;stroke:#987360"/>
        </g>
        <g transform="rotate(-20.221 4852 344.33)">
            <path d="m211.3 941.93-24.73 77.891" style="fill:none;stroke-width:6.71px;stroke:#987360"/>
        </g>
        <g transform="rotate(-32.158 3166.7 931.31)">
            <path d="m218.85 949.61-28.068 73.099" style="fill:none;stroke-width:6.71px;stroke:#987360"/>
        </g>
        <g transform="translate(809.3 1566.9)">
            <path d="m214.92 942.49-43.539 79.371" style="fill:none;stroke-width:6.71px;stroke:#987360"/>
        </g>
        <g transform="translate(1409.9 1566.9)">
            <path d="m214.92 942.49-43.539 79.371" style="fill:none;stroke-width:6.71px;stroke:#987360"/>
        </g>
        <g transform="translate(1713.9 1566.6)">
            <path d="m214.92 942.49-43.539 79.371" style="fill:none;stroke-width:6.71px;stroke:#987360"/>
        </g>
        <g transform="translate(1164.7 1566.9)">
            <path d="m214.92 942.49-43.539 79.371" style="fill:none;stroke-width:6.71px;stroke:#987360"/>
        </g>
        <g transform="rotate(-4.25 21604 -5677.9)">
            <path d="m210.7 938.86-36.781 80.125" style="fill:none;stroke-width:6.71px;stroke:#987360"/>
        </g>
        <g transform="translate(831.07 1566.9)">
            <path d="m214.92 942.49-43.539 79.371" style="fill:none;stroke-width:6.71px;stroke:#987360"/>
        </g>
        <g transform="translate(1431.7 1566.9)">
            <path d="m214.92 942.49-43.539 79.371" style="fill:none;stroke-width:6.71px;stroke:#987360"/>
        </g>
        <g transform="translate(1735.7 1566.6)">
            <path d="m214.92 942.49-43.539 79.371" style="fill:none;stroke-width:6.71px;stroke:#987360"/>
        </g>
        <g transform="translate(1187.2 1566.9)">
            <path d="m214.92 942.49-43.539 79.371" style="fill:none;stroke-width:6.71px;stroke:#987360"/>
        </g>
        <g transform="translate(571.22 1566.9)">
            <path d="m214.92 942.49-43.539 79.371" style="fill:none;stroke-width:6.71px;stroke:#987360"/>
        </g>
        <g transform="translate(852.84 1566.9)">
            <path d="m214.92 942.49-43.539 79.371" style="fill:none;stroke-width:6.71px;stroke:#987360"/>
        </g>
        <g transform="translate(1453.5 1566.9)">
            <path d="m214.92 942.49-43.539 79.371" style="fill:none;stroke-width:6.71px;stroke:#987360"/>
        </g>
        <g transform="translate(1757.4 1566.6)">
            <path d="m214.92 942.49-43.539 79.371" style="fill:none;stroke-width:6.71px;stroke:#987360"/>
        </g>
        <g transform="translate(1974 1567.2)">
            <path d="m214.92 942.49-43.539 79.371" style="fill:none;stroke-width:6.71px;stroke:#987360"/>
        </g>
        <g transform="translate(1209.7 1566.9)">
            <path d="m214.92 942.49-43.539 79.371" style="fill:none;stroke-width:6.71px;stroke:#987360"/>
        </g>
        <g transform="translate(592.98 1566.9)">
            <path d="m214.92 942.49-43.539 79.371" style="fill:none;stroke-width:6.71px;stroke:#987360"/>
        </g>
        <g transform="translate(874.6 1566.9)">
            <path d="m214.92 942.49-43.539 79.371" style="fill:none;stroke-width:6.71px;stroke:#987360"/>
        </g>
        <g transform="translate(1475.2 1566.9)">
            <path d="m214.92 942.49-43.539 79.371" style="fill:none;stroke-width:6.71px;stroke:#987360"/>
        </g>
        <g transform="translate(1779.2 1566.6)">
            <path d="m214.92 942.49-43.539 79.371" style="fill:none;stroke-width:6.71px;stroke:#987360"/>
        </g>
        <g transform="translate(1995.8 1567.2)">
            <path d="m214.92 942.49-43.539 79.371" style="fill:none;stroke-width:6.71px;stroke:#987360"/>
        </g>
        <g transform="translate(1232.2 1566.9)">
            <path d="m214.92 942.49-43.539 79.371" style="fill:none;stroke-width:6.71px;stroke:#987360"/>
        </g>
        <g transform="translate(614.75 1566.9)">
            <path d="m214.92 942.49-43.539 79.371" style="fill:none;stroke-width:6.71px;stroke:#987360"/>
        </g>
        <g transform="translate(896.37 1566.9)">
            <path d="m214.92 942.49-43.539 79.371" style="fill:none;stroke-width:6.71px;stroke:#987360"/>
        </g>
        <g transform="translate(1497 1566.9)">
            <path d="m214.92 942.49-43.539 79.371" style="fill:none;stroke-width:6.71px;stroke:#987360"/>
        </g>
        <g transform="translate(1801 1566.6)">
            <path d="m214.92 942.49-43.539 79.371" style="fill:none;stroke-width:6.71px;stroke:#987360"/>
        </g>
        <g transform="translate(2017.5 1567.2)">
            <path d="m214.92 942.49-43.539 79.371" style="fill:none;stroke-width:6.71px;stroke:#987360"/>
        </g>
        <g transform="translate(1254.6 1566.9)">
            <path d="m214.92 942.49-43.539 79.371" style="fill:none;stroke-width:6.71px;stroke:#987360"/>
        </g>
        <g transform="translate(636.52 1566.9)">
            <path d="m214.92 942.49-43.539 79.371" style="fill:none;stroke-width:6.71px;stroke:#987360"/>
        </g>
        <g transform="translate(918.14 1566.9)">
            <path d="m214.92 942.49-43.539 79.371" style="fill:none;stroke-width:6.71px;stroke:#987360"/>
        </g>
        <g transform="translate(1518.8 1566.9)">
            <path d="m214.92 942.49-43.539 79.371" style="fill:none;stroke-width:6.71px;stroke:#987360"/>
        </g>
        <g transform="translate(1822.8 1566.6)">
            <path d="m214.92 942.49-43.539 79.371" style="fill:none;stroke-width:6.71px;stroke:#987360"/>
        </g>
        <g transform="translate(2039.3 1567.2)">
            <path d="m214.92 942.49-43.539 79.371" style="fill:none;stroke-width:6.71px;stroke:#987360"/>
        </g>
        <g transform="translate(1277.1 1566.9)">
            <path d="m214.92 942.49-43.539 79.371" style="fill:none;stroke-width:6.71px;stroke:#987360"/>
        </g>
        <g transform="translate(658.29 1566.9)">
            <path d="m214.92 942.49-43.539 79.371" style="fill:none;stroke-width:6.71px;stroke:#987360"/>
        </g>
        <g transform="translate(939.91 1566.9)">
            <path d="m214.92 942.49-43.539 79.371" style="fill:none;stroke-width:6.71px;stroke:#987360"/>
        </g>
        <g transform="translate(1540.6 1566.9)">
            <path d="m214.92 942.49-43.539 79.371" style="fill:none;stroke-width:6.71px;stroke:#987360"/>
        </g>
        <g transform="translate(1844.5 1566.6)">
            <path d="m214.92 942.49-43.539 79.371" style="fill:none;stroke-width:6.71px;stroke:#987360"/>
        </g>
        <g transform="translate(2061.1 1567.2)">
            <path d="m214.92 942.49-43.539 79.371" style="fill:none;stroke-width:6.71px;stroke:#987360"/>
        </g>
        <g transform="translate(1299.6 1566.9)">
            <path d="m214.92 942.49-43.539 79.371" style="fill:none;stroke-width:6.71px;stroke:#987360"/>
        </g>
        <g transform="translate(680.06 1566.9)">
            <path d="m214.92 942.49-43.539 79.371" style="fill:none;stroke-width:6.71px;stroke:#987360"/>
        </g>
        <g transform="translate(962.39 1566.9)">
            <path d="m214.92 942.49-43.539 79.371" style="fill:none;stroke-width:6.71px;stroke:#987360"/>
        </g>
        <g transform="translate(1562.3 1566.9)">
            <path d="m214.92 942.49-43.539 79.371" style="fill:none;stroke-width:6.71px;stroke:#987360"/>
        </g>
        <g transform="translate(1866.3 1566.6)">
            <path d="m214.92 942.49-43.539 79.371" style="fill:none;stroke-width:6.71px;stroke:#987360"/>
        </g>
        <g transform="translate(2082.8 1567.2)">
            <path d="m214.92 942.49-43.539 79.371" style="fill:none;stroke-width:6.71px;stroke:#987360"/>
        </g>
        <g transform="translate(1322.1 1566.9)">
            <path d="m214.92 942.49-43.539 79.371" style="fill:none;stroke-width:6.71px;stroke:#987360"/>
        </g>
        <g transform="translate(701.83 1566.9)">
            <path d="m214.92 942.49-43.539 79.371" style="fill:none;stroke-width:6.71px;stroke:#987360"/>
        </g>
        <g transform="translate(984.87 1566.9)">
            <path d="m214.92 942.49-43.539 79.371" style="fill:none;stroke-width:6.71px;stroke:#987360"/>
        </g>
        <g transform="translate(1584.1 1566.9)">
            <path d="m214.92 942.49-43.539 79.371" style="fill:none;stroke-width:6.71px;stroke:#987360"/>
        </g>
        <g transform="translate(1888.1 1566.6)">
            <path d="m214.92 942.49-43.539 79.371" style="fill:none;stroke-width:6.71px;stroke:#987360"/>
        </g>
        <g transform="translate(2104.6 1567.2)">
            <path d="m214.92 942.49-43.539 79.371" style="fill:none;stroke-width:6.71px;stroke:#987360"/>
        </g>
        <g transform="translate(1344.6 1566.9)">
            <path d="m214.92 942.49-43.539 79.371" style="fill:none;stroke-width:6.71px;stroke:#987360"/>
        </g>
        <g transform="translate(723.6 1566.9)">
            <path d="m214.92 942.49-43.539 79.371" style="fill:none;stroke-width:6.71px;stroke:#987360"/>
        </g>
        <g transform="translate(1605.8 1566.9)">
            <path d="m214.92 942.49-43.539 79.371" style="fill:none;stroke-width:6.71px;stroke:#987360"/>
        </g>
        <g transform="translate(1909.8 1566.6)">
            <path d="m214.92 942.49-43.539 79.371" style="fill:none;stroke-width:6.71px;stroke:#987360"/>
        </g>
        <g transform="translate(2126.4 1567.2)">
            <path d="m214.92 942.49-43.539 79.371" style="fill:none;stroke-width:6.71px;stroke:#987360"/>
        </g>
        <g transform="translate(745.37 1566.9)">
            <path d="m214.92 942.49-43.539 79.371" style="fill:none;stroke-width:6.71px;stroke:#987360"/>
        </g>
        <g transform="translate(1029.8 1566.9)">
            <path d="m214.92 942.49-43.539 79.371" style="fill:none;stroke-width:6.71px;stroke:#987360"/>
        </g>
        <g transform="translate(1627.6 1566.9)">
            <path d="m214.92 942.49-43.539 79.371" style="fill:none;stroke-width:6.71px;stroke:#987360"/>
        </g>
        <g transform="translate(1931.6 1566.6)">
            <path d="m214.92 942.49-43.539 79.371" style="fill:none;stroke-width:6.71px;stroke:#987360"/>
        </g>
        <g transform="translate(2148.2 1567.2)">
            <path d="m214.92 942.49-43.539 79.371" style="fill:none;stroke-width:6.71px;stroke:#987360"/>
        </g>
        <g transform="translate(767.14 1566.9)">
            <path d="m214.92 942.49-43.539 79.371" style="fill:none;stroke-width:6.71px;stroke:#987360"/>
        </g>
        <g transform="translate(1367.1 1566.9)">
            <path d="m214.92 942.49-43.539 79.371" style="fill:none;stroke-width:6.71px;stroke:#987360"/>
        </g>
        <g transform="translate(1671 1566.6)">
            <path d="m214.92 942.49-43.539 79.371" style="fill:none;stroke-width:6.71px;stroke:#987360"/>
        </g>
        <g transform="translate(1119.8 1566.9)">
            <path d="m214.92 942.49-43.539 79.371" style="fill:none;stroke-width:6.71px;stroke:#987360"/>
        </g>
        <g transform="translate(1097.3 1566.9)">
            <path d="m214.92 942.49-43.539 79.371" style="fill:none;stroke-width:6.71px;stroke:#987360"/>
        </g>
        <g transform="translate(1074.8 1566.9)">
            <path d="m214.92 942.49-43.539 79.371" style="fill:none;stroke-width:6.71px;stroke:#987360"/>
        </g>
        <g transform="translate(1052.3 1566.9)">
            <path d="m214.92 942.49-43.539 79.371" style="fill:none;stroke-width:6.71px;stroke:#987360"/>
        </g>
        <g transform="translate(1649.4 1566.9)">
            <path d="m214.92 942.49-43.539 79.371" style="fill:none;stroke-width:6.71px;stroke:#987360"/>
        </g>
        <g transform="translate(1953.4 1566.6)">
            <path d="m214.92 942.49-43.539 79.371" style="fill:none;stroke-width:6.71px;stroke:#987360"/>
        </g>
        <g transform="translate(2169.9 1567.2)">
            <path d="m214.92 942.49-43.539 79.371" style="fill:none;stroke-width:6.71px;stroke:#987360"/>
        </g>
        <g transform="translate(788.91 1566.9)">
            <path d="m214.92 942.49-43.539 79.371" style="fill:none;stroke-width:6.71px;stroke:#987360"/>
        </g>
        <g transform="translate(1389.5 1566.9)">
            <path d="m214.92 942.49-43.539 79.371" style="fill:none;stroke-width:6.71px;stroke:#987360"/>
        </g>
        <g transform="translate(1693.5 1566.6)">
            <path d="m214.92 942.49-43.539 79.371" style="fill:none;stroke-width:6.71px;stroke:#987360"/>
        </g>
        <g transform="translate(1142.2 1566.9)">
            <path d="m214.92 942.49-43.539 79.371" style="fill:none;stroke-width:6.71px;stroke:#987360"/>
        </g>
        <g transform="translate(2191.7 1567.2)">
            <path d="m214.92 942.49-43.539 79.371" style="fill:none;stroke-width:6.71px;stroke:#987360"/>
        </g>
        <g transform="matrix(1 0 -.7072 2.4068 533.91 745.02)">
            <path d="m2415.6 738.8h-1654c-37.346 0-73.248 2.588-106.72 7.357" style="fill:none;stroke-width:3.91px;stroke:#808080"/>
        </g>
        <g transform="matrix(1 0 -.7072 2.4068 533.91 745.02)">
            <path d="m679.87 764.78c29.912-4.281 62.011-6.606 95.43-6.606h1627.7" style="fill:none;stroke-width:3.91px;stroke:#808080"/>
        </g>
        <g transform="translate(-102.82 891.21)">
            <g transform="matrix(.30802 0 0 .3113 717.24 1392.6)">
                <path d="m527.85 864.03c-18.86-9.373-31.187-77.109-30.681-96.032.211-7.896 13-44.725 8.553-55.393-6.537-15.682 35.754-105.01 49.671-94.422 0 0 110.94-8.146 182.28-17.875 16.043-2.188 64.858-3.29 65.324-.643 0 0 3.116.139 3.51-11.67.034-1.036-11.517-1.895-14.723-5.278-8.783-9.267 2.364-23.285 9.81-22.357 8.06 1.005 49.946 2.047 61.051 1.782 32.783-.78 63.694-4.418 96.026-6.648 25.434-1.754 76.621 3.518 76.621 3.518 11.05-1.175 16.67 1.4 18.1 6.869-1.63 12.081-7.44 24.196-15.82 21.265 0 0 .14 79.213.14 123.47 0 13.671-.95 26.402.73 39.888.57 4.554 0 23.759 0 22.899l-3.52 78.704c25.76 2.431-476.22 5.755-507.08 11.926zm486.02-275.03-178.92-.675-10.056 129.74c62.866-8.807 125.67-8.365 188.43-2.043z" style="fill:#227339"/>
            </g>
            <path d="m1063.6 1536.1 1.94 82.99.03 2.26-28.91 35.84.15-80.3z" style="fill:#227339"/>
            <g transform="matrix(.30802 0 0 .3113 763.15 1456.1)">
                <path d="m350.39 556.56c-1.633-10.207-2.443-18.957-2.306-24.1.211-7.896 15.146-53.061 18.342-64.168 2.423-8.424 30.371-60.262 35.043-57.159 0 0 146.49-4.498 217.84-14.227 16.042-2.187 34.627-.394 34.627-.394l-.508 24.603s-18.584-1.793-34.627.395c-38.738 5.282-173.2 8.093-187.32 10.543-24.356 4.227-64.411 67.055-65.05 80.94-.312 6.773-14.209 30.506-16.036 43.567z" style="fill:#225831"/>
            </g>
            <g transform="matrix(.74914 .093891 .093891 .62947 720.73 908.39)">
                <path d="m297.7 1015.2 2.362-2.19 39.859-66.035c2.045-2.486 2.591-6.028 2.685-9.445.042-1.517-4.963-2.475-5.151-1.895l-97.434 11.993c-5.093.624-9.335 3.962-12.873 9.549l-36.145 65.913z" style="fill:#4b4b4b"/>
            </g>
            <g transform="matrix(.30802 0 0 .3113 717.24 1392.6)">
                <path d="m810.21 759.37c0-17.401-4.943-34.317-5.909-51.706-1.529-27.52.489-56.549 1.477-84.208.422-11.805.345-23.647.739-35.456.034-1.036-11.517-1.895-14.723-5.278-8.783-9.267 2.364-23.285 9.81-22.357 8.06 1.005 49.946 2.047 61.051 1.782 32.783-.78 63.694-4.418 96.026-6.648 25.434-1.754 76.621 3.518 76.621 3.518 11.05-1.175 16.67 1.4 18.1 6.869-1.63 12.081-7.18 24.234-15.56 21.304 0 0-.12 79.174-.12 123.43 0 13.671-.95 26.402.73 39.888.57 4.554 0 23.759 0 22.899l-3.52 78.704c25.76 2.431-476.22 5.755-507.08 11.926" style="fill:none;stroke-width:3.23px;stroke:#000000"/>
            </g>
            <path d="m1063.1 1540.3c.22-.21.19-.23.67-.23.25 0-.2.84-.22.87-.27.55-.31 1.49-.21 2.06.45 2.56.49 4.91.21 7.49-.73 6.82-1.38 13.82-.82 20.67.99 12.21.5 24.47 2.02 36.64.46 3.66.3 9.61.3 13.32 0 1.37-.55 1.48-1.15 1.95-1.21.94-21.87 26.29-26.32 32.16" style="fill:none;stroke-width:1px;stroke:#000000"/>
            <path d="m995.71 1588.4c.179-.02.693-.17.513-.17" style="fill:none;stroke-width:.5px;stroke:#000000"/>
            <g transform="matrix(.30802 0 0 .3113 717.24 1392.6)">
                <path d="m803 599.75c-.466-2.647-64.21 2.221-80.252 4.409-71.345 9.729-173.19 10.989-173.19 10.989-2.53-1.681-18.168 21.828-31.716 46.079-4.661 8.344-8.914 26.234-12.334 45.064-4.997 27.507-8.217 57.019-8.342 61.706-.506 18.923 11.821 86.659 30.681 96.032" style="fill:none;stroke-width:3.23px;stroke:#000000"/>
            </g>
            <g transform="matrix(.30802 0 0 .3113 717.24 1392.6)">
                <path d="m834.71 586.79-10.542 131.38c59.67-9.987 128.78-4.885 190.16-2.937l-1.67-125.88z" style="fill:#416495;stroke-width:3.23px;stroke:#000000"/>
            </g>
            <g transform="matrix(.30802 0 0 .3113 717.28 1393.1)">
                <ellipse cx="970.12" cy="862.56" rx="8.4" ry="8.34" style="fill:#ffffff"/>
            </g>
            <g transform="matrix(.30802 0 0 .3113 640.78 1393.1)">
                <ellipse cx="970.12" cy="862.56" rx="8.4" ry="8.34" style="fill:#ffffff"/>
            </g>
            <g transform="matrix(.30802 0 0 .3113 604.04 1393.1)">
                <ellipse cx="970.12" cy="862.56" rx="8.4" ry="8.34" style="fill:#ffffff"/>
            </g>
            <g transform="matrix(.30802 0 0 .3113 678.86 1393.1)">
                <ellipse cx="970.12" cy="862.56" rx="8.4" ry="8.34" style="fill:#ffffff"/>
            </g>
            <g transform="matrix(.30802 0 0 .3113 640.44 1393.1)">
                <ellipse cx="970.12" cy="862.56" rx="8.4" ry="8.34" style="fill:#ffffff"/>
            </g>
            <g transform="matrix(.30802 0 0 .3113 603.7 1393.1)">
                <ellipse cx="970.12" cy="862.56" rx="8.4" ry="8.34" style="fill:#ffffff"/>
            </g>
            <g transform="matrix(.22875 0 0 .23262 767.48 1490.2)">
                <path d="m866.31 369.44c.02-.672.041-1.343.063-2.015.047-1.388-15.507-2.537-19.824-7.065-11.827-12.401 3.182-31.161 13.21-29.919 10.852 1.345 67.254 2.739 82.208 2.385 44.145-1.044 85.765-5.913 129.3-8.897 34.25-2.347 103.18 4.708 103.18 4.708 14.87-1.572 22.44 1.874 24.38 9.192-2.21 16.168-10.03 32.381-21.31 28.459v3.152h-31.93v-.667l-240.92-.904-.122 1.571z" style="fill:#4b4b4b"/>
            </g>
            <g>
                <g transform="matrix(1.4277 0 0 1 -729.7 343.8)">
                    <path d="m1217.8 1303.4c-7.37 4.54-7.5 16.06-3.9 23.82 1.57 3.39 4.75 7.4 8.93 7.19 4.92-.25 7.86-5.37 8.93-9.55.93-3.65 1.76-7.83 1.13-11.6-.78-4.66-5.06-11.41-10.36-11.64-1.78-.08-3.25.95-4.73 1.78z" style="fill:#808080;stroke-width:.81px;stroke:#000000"/>
                </g>
                <g transform="translate(-131.14 343.8)">
                    <path d="m1146.6 1317.9c-.05-3.61-2.38.74-1.14 1.36 1.99.99 2.72-1.94 1.7-2.45s-1.51.99-1.51 1.69" style="fill:none;stroke-width:1px;stroke:#000000"/>
                </g>
            </g>
            <g transform="translate(-76.495)">
                <g transform="matrix(1.4277 0 0 1 -729.7 343.8)">
                    <path d="m1217.8 1303.4c-7.37 4.54-7.5 16.06-3.9 23.82 1.57 3.39 4.75 7.4 8.93 7.19 4.92-.25 7.86-5.37 8.93-9.55.93-3.65 1.76-7.83 1.13-11.6-.78-4.66-5.06-11.41-10.36-11.64-1.78-.08-3.25.95-4.73 1.78z" style="fill:#808080;stroke-width:.81px;stroke:#000000"/>
                </g>
                <g transform="translate(-131.14 343.8)">
                    <path d="m1146.6 1317.9c-.05-3.61-2.38.74-1.14 1.36 1.99.99 2.72-1.94 1.7-2.45s-1.51.99-1.51 1.69" style="fill:none;stroke-width:1px;stroke:#000000"/>
                </g>
            </g>
            <g transform="translate(-113.24)">
                <g transform="matrix(1.4277 0 0 1 -729.7 343.8)">
                    <path d="m1217.8 1303.4c-7.37 4.54-7.5 16.06-3.9 23.82 1.57 3.39 4.75 7.4 8.93 7.19 4.92-.25 7.86-5.37 8.93-9.55.93-3.65 1.76-7.83 1.13-11.6-.78-4.66-5.06-11.41-10.36-11.64-1.78-.08-3.25.95-4.73 1.78z" style="fill:#808080;stroke-width:.81px;stroke:#000000"/>
                </g>
                <g transform="translate(-131.14 343.8)">
                    <path d="m1146.6 1317.9c-.05-3.61-2.38.74-1.14 1.36 1.99.99 2.72-1.94 1.7-2.45s-1.51.99-1.51 1.69" style="fill:none;stroke-width:1px;stroke:#000000"/>
                </g>
            </g>
            <g transform="translate(-37.72)">
                <g transform="matrix(1.4277 0 0 1 -729.7 343.8)">
                    <path d="m1217.8 1303.4c-7.37 4.54-7.5 16.06-3.9 23.82 1.57 3.39 4.75 7.4 8.93 7.19 4.92-.25 7.86-5.37 8.93-9.55.93-3.65 1.76-7.83 1.13-11.6-.78-4.66-5.06-11.41-10.36-11.64-1.78-.08-3.25.95-4.73 1.78z" style="fill:#808080;stroke-width:.81px;stroke:#000000"/>
                </g>
                <g transform="matrix(1.4277 0 0 1 -729.7 343.8)">
                    <path d="m1217.8 1303.4c-7.37 4.54-7.5 16.06-3.9 23.82 1.57 3.39 4.75 7.4 8.93 7.19 4.92-.25 7.86-5.37 8.93-9.55.93-3.65 1.76-7.83 1.13-11.6-.78-4.66-5.06-11.41-10.36-11.64-1.78-.08-3.25.95-4.73 1.78z" style="fill:#808080;stroke-width:.81px;stroke:#000000"/>
                </g>
                <g transform="matrix(1.4277 0 0 1 -729.7 343.8)">
                    <path d="m1217.8 1303.4c-7.37 4.54-7.5 16.06-3.9 23.82 1.57 3.39 4.75 7.4 8.93 7.19 4.92-.25 7.86-5.37 8.93-9.55.93-3.65 1.76-7.83 1.13-11.6-.78-4.66-5.06-11.41-10.36-11.64-1.78-.08-3.25.95-4.73 1.78z" style="fill:#808080;stroke-width:.81px;stroke:#000000"/>
                </g>
                <g transform="translate(-131.14 343.8)">
                    <path d="m1146.6 1317.9c-.05-3.61-2.38.74-1.14 1.36 1.99.99 2.72-1.94 1.7-2.45s-1.51.99-1.51 1.69" style="fill:none;stroke-width:1px;stroke:#000000"/>
                </g>
            </g>
            <g transform="translate(-53.585 348.12)">
                <path d="m1119.9 1297.3c.12-.09.46 11.97 0 11.04" style="fill:none;stroke-width:1px;stroke:#000000"/>
            </g>
            <g transform="translate(-53.585 348.12)">
                <path d="m1130.8 1310.4c-.89-2.03-9.01-.7-10.96-.7" style="fill:none;stroke-width:1px;stroke:#000000"/>
            </g>
            <path d="m1062.8 1530.7-21.05 34.71" style="fill:none;stroke-width:.5px;stroke:#000000"/>
            <path d="m987.84 1527.5c.198.18 74.061 1.23 75.531 2.1 1.66.99 3.26 3.23.67 6.77-6.34 8.67-20.09 32.01-21.06 33.29" style="fill:none;stroke-width:.5px;stroke:#000000"/>
            <path d="m986.92 1527.8c-.146-1.32-5.817 3.35-6.762 5.62-.906 2.18-18.252 33.49-18.042 33.28" style="fill:none;stroke-width:.5px;stroke:#000000"/>
            <g transform="matrix(.35267 0 0 .39892 683.71 1319.6)">
                <path d="m596.1 625.82v65.243c-2.731.33 3.999 12.994 11.175 14.079 12.356 1.869 18.769 2.57 29.452 2.395 6.797-.111 22.577-23.336 20.177-24.107l-7.059-57.61h4.073c1.648 0 2.986-1.338 2.986-2.985l1.152-10.824c.774-.466-4.382 2.259-11.221 3.645-5.193 1.052-11.984.816-14.256.819-8.21.011-19.054-.147-27.966 1.301-11.225 1.823-19.087-7.486-15.658-7.088.983.114-.639 5.019.086 6.176v5.971c0 1.647 1.338 2.985 2.985 2.985z" style="fill:#4b4b4b;stroke-width:2.66px;stroke:#000000"/>
            </g>
            <g transform="translate(-2.0955 -2.497)">
                <path d="m898.15 1572.5c-.007.28 1.922.48 2.339.51 2.31.14 5.218 1.07 7.307-.29" style="fill:none;stroke-width:.5px;stroke:#000000"/>
            </g>
            <g transform="translate(-2.0955 -2.497)">
                <path d="m917.47 1564.7c-.637-2.14-6.524-4.6-10.523-3.81-3.447.68-7.636.12-9.021.66-2.585 1.03-4.699 2.6-4.389 5.07.432 3.46 16.971 1.15 18.426.96 1.967-.25 3.918.2 5.586-1.13.672-.53.134-1.03-.079-1.75z" style="fill:#313131;stroke-width:1px;stroke:#000000"/>
            </g>
            <g transform="matrix(.35267 0 0 .39892 683.64 1317.2)">
                <path d="m645.94 637.11s-5.219-4.658-5.712-1.785c-2.59 15.077 3.407 41.065-7.509 63.69 2.805 9.148 14.211-3.732 18.967-8.13l-2.333-25.846z" style="fill:#6d6d6d"/>
            </g>
            <g transform="matrix(.32529 .026902 -.021873 .27015 762.72 1374.8)">
                <path d="m879.24 992.24c0-1.555-1.049-2.818-2.34-2.818h-414.06c-1.292 0-2.34 1.263-2.34 2.818v5.637c0 1.555 1.048 2.815 2.34 2.815h414.06c1.291 0 2.34-1.26 2.34-2.815z" style="fill:#730f0f"/>
            </g>
        </g>
        <g transform="translate(-121.94 1136.6)">
            <g transform="translate(-50.288 98.19)">
                <g transform="matrix(.74914 .093891 .093891 .62947 895.3 650.41)">
                    <path d="m336.14 1002.2 44.294-80.754 2.001-18.659-208.08 99.093-2.964 19.99z" style="fill:#7b513a"/>
                </g>
                <g transform="matrix(.74914 .093891 .093891 .62947 895.3 650.41)">
                    <path d="m336.33 1002.2 44.294-80.754 2.273-19.541-44.499 80.392z" style="fill:#593f32"/>
                </g>
                <g transform="matrix(.74914 .093891 .093891 .62947 895.3 638.12)">
                    <path d="m336.33 1002.2 44.294-80.754-165.71 21.083-43.539 79.371z" style="fill:#987360"/>
                </g>
                <g transform="matrix(.74914 .093891 .093891 .62947 911.16 638.38)">
                    <path d="m300.85 1007.4 44.294-80.75 10.033-82.745-172.8 93.831-10.996 84.074z" style="fill:#abc837"/>
                </g>
                <g transform="matrix(.74914 .093891 .093891 .62947 911.16 638.38)">
                    <path d="m300.85 1007.4 44.294-80.75 10.033-82.745-42.818 81.01z" style="fill:#bcd35f"/>
                </g>
                <g transform="matrix(.74914 .093891 .093891 .62947 911.16 586.84)">
                    <path d="m300.85 1007.4 44.294-80.75-130.22 15.789-43.539 79.371z" style="fill:#cdde87"/>
                </g>
                <g transform="matrix(1.4277 0 0 1 -528.89 2.7204)">
                    <path d="m1217.8 1303.4c-7.37 4.54-7.5 16.06-3.9 23.82 1.57 3.39 4.75 7.4 8.93 7.19 4.92-.25 7.86-5.37 8.93-9.55.93-3.65 1.76-7.83 1.13-11.6-.78-4.66-5.06-11.41-10.36-11.64-1.78-.08-3.25.95-4.73 1.78z" style="fill:#808080;stroke-width:.81px;stroke:#000000"/>
                </g>
                <g transform="matrix(1.4277 0 0 1 -598.56 -.0077164)">
                    <path d="m1217.8 1303.4c-7.37 4.54-7.5 16.06-3.9 23.82 1.57 3.39 4.75 7.4 8.93 7.19 4.92-.25 7.86-5.37 8.93-9.55.93-3.65 1.76-7.83 1.13-11.6-.78-4.66-5.06-11.41-10.36-11.64-1.78-.08-3.25.95-4.73 1.78z" style="fill:#808080;stroke-width:.81px;stroke:#000000"/>
                </g>
                <path d="m1146.6 1317.9c-.05-3.61-2.38.74-1.14 1.36 1.99.99 2.72-1.94 1.7-2.45s-1.51.99-1.51 1.69" style="fill:none;stroke-width:1px;stroke:#000000"/>
                <path d="m1217.5 1321.1c.49-1.92-2.38.03-1.62.79 1.46 1.45 3.26-1.04 1.14-1.75-1.01-.34.5 2.04.41.93" style="fill:none;stroke-width:1px;stroke:#000000"/>
                <path d="m1230.6 1251.4c-.47-2.88-.05 8.64-.05 11.51 0 8.17.36 16.32 0 24.49-.14 3.21.19 6.66-.02 9.87" style="fill:none;stroke-width:1px;stroke:#000000"/>
                <path d="m1255 1208c-.02-.34-.02-1.36-.02-1.02 0 3.61-.17 7.2-.17 10.81 0 9.15.32 18.23.51 27.36.04 2.06-.57 8.82-.6 8.79" style="fill:none;stroke-width:1px;stroke:#000000"/>
                <path d="m1239.3 1301c1.31.51-117.46-2.88-118.16-3.74" style="fill:none;stroke-width:1px;stroke:#000000"/>
                <path d="m1257.5 1253.4c1.94 1.33 9.47-1.34 9.52.74.07 3.22-.27 10.91-.26 11.06.08 2.02-3.94 8.34-5.16 10.26-3.9 6.13-18.47 35.64-19.5 35.64" style="fill:none;stroke-width:1px;stroke:#000000"/>
                <path d="m1265.6 1256.4c-.08-.21-4.95 9.05-6.37 11.18-4.89 7.34-8.12 15.43-12.07 23.33-1.11 2.22-2.16 4.36-3.39 6.52-.29.51-2.55 4.17-1.76 3.39" style="fill:none;stroke-width:1px;stroke:#000000"/>
                <path d="m1119.9 1297.3c.12-.09.46 11.97 0 11.04" style="fill:none;stroke-width:1px;stroke:#000000"/>
                <path d="m1135.7 1271.4c.9.35-.37.9-.94 1.54-1.56 1.76-2.77 3.73-3.8 5.84-2.07 4.28-11.13 17.6-10.84 17.6" style="fill:none;stroke-width:1px;stroke:#000000"/>
                <path d="m1200.6 1311.8c.18-.43-35.45-1.11-37.42-1.44" style="fill:none;stroke-width:1px;stroke:#000000"/>
                <path d="m1130.8 1310.4c-.89-2.03-9.01-.7-10.96-.7" style="fill:none;stroke-width:1px;stroke:#000000"/>
                <path d="m1240.8 1312.7c-2.31-.36-6.6.41-8.84-.15" style="fill:none;stroke-width:1px;stroke:#000000"/>
                <path d="m1253.9 1258.7c-1.72 2.58-4.91 9.17-6.48 11.85-3.93 6.7-7.77 13.7-11.32 20.61-.09.18-2.66 5.04-2.87 5.4-.33.6-2.68 3.71-2.02 3.38" style="fill:none;stroke-width:1px;stroke:#000000"/>
                <path d="m1254.1 1209.8c.16-.27.35-.95.57-.73.44.44-1.19 2.59-1.35 2.87-1.97 3.46-3.84 6.97-5.74 10.47-3.1 5.69-14.25 28.26-14.59 27.58" style="fill:none;stroke-width:1px;stroke:#000000"/>
                <path d="m1162 1202.8c-.34 0-27.9 38.68-23.01 41.58" style="fill:none;stroke-width:1px;stroke:#000000"/>
                <path d="m1252.4 1205.9c2.37-2.38-83.76-3.03-88.02-3.03" style="fill:none;stroke-width:1px;stroke:#000000"/>
                <path d="m1225.7 1250.7c-1.38-.2-89.06-1.04-86.73-3.37" style="fill:none;stroke-width:1px;stroke:#000000"/>
                <path d="m1135.5 1249c1.33-.67 0 36.14 0 45.75" style="fill:none;stroke-width:1px;stroke:#000000"/>
            </g>
            <path d="m1154.5 1327.8c-1.54 1.56.4-9.77-.31-11.18-.25-.51-16.57.89-16.59.64-.05-.97-1.47 9.34-1.47 10.44" style="fill:none;stroke-width:3.66px;stroke:#000000"/>
        </g>
        <g transform="translate(-1.204 1134)">
            <path d="m803.53 1316.9c1.903.23 2.743-2.21 3.344-3.68 1.362-3.33 1.718-6.72 1.531-10.28-.062-1.18-1.76-2.04-.875-1.86 2.213.44 2.286.13 4.594-1.31 1.228-.77 3.105-1.56 4.048-2.74 1.124-1.4 1.173-3.01 1.641-4.7.844-3.04 2.355-5.75 2.954-8.86.321-1.67-.287-3.64.437-3.17 3.158 2.04 5.945 3.26 9.737 3.72 2.259.26 4.849.61 7.11.1 2.13-.47 3.762-1.73 5.579-2.84 3.224-1.97 6.688-3.9 9.408-6.56 4.755-4.66.685-7.07 2.594-7.38 3.531-.6 6.799-2.32 9.987-4.33 3.659-2.3 6.868-5 4.157-9.52-.533-.88-1.034-1.43-1.75-2.18-6.278-6.63-16.629-5.19-24.833-6.13-3.388-.39-8.285-1.28-11.596-.11-3.66 1.29-5.405 4.28-7.22 7.55-.555 1-2.299 2.86-2.954 2.41-1.072-.75-2.083-1.47-3.274-2.01-4.342-1.95-9.539-2.4-14.191-1.42-6.231 1.31-9.872 7.13-12.29 12.51-1.04 2.31-1.782 7.17-3.939 8.75-3.518 2.57-9.068-1.61-12.26 2.29-2.796 3.42-1.098 10.14.664 13.57.789 1.54 2.932 4.22 2.932 6.19 0 .97-1.189 1.27-1.947 1.47-1.456.38-4.216.65-4.595 2.51-.47 2.31 1.263 4.68 2.407 6.46 3.168 4.93 9.094 8.3 14.878 8.97 2.685.31 5.299-.88 7.986-.88" style="fill:#d9d9d9"/>
        </g>
        <g transform="translate(.97347 1136.6)">
            <path d="m774.93 1305.4c3.77 5 12.59-16.19 11.177-24.65-.832-4.97 19.241-18.16 25.471-19.47 4.652-.98 9.849-.52 14.191 1.43 1.191.54 2.203 1.26 3.275 2 .654.46 2.398-1.4 2.953-2.4 1.816-3.27 3.56-6.26 7.22-7.55 3.311-1.17 8.208-.28 11.596.11 6.304.72 13.876.04 19.894 2.69.226-1.17-.014-2.49-.931-4.02-.533-.88-1.034-1.43-1.75-2.18-6.278-6.63-16.629-5.19-24.833-6.13-3.388-.39-8.285-1.28-11.596-.11-3.66 1.29-5.405 4.28-7.22 7.55-.555 1-2.299 2.86-2.954 2.41-1.072-.75-2.083-1.47-3.274-2.01-4.342-1.95-9.539-2.4-14.191-1.42-6.231 1.31-9.872 7.13-12.29 12.51-1.04 2.31-1.782 7.17-3.939 8.75-3.518 2.57-9.068-1.61-12.26 2.29-2.796 3.42-1.098 10.14.664 13.57.789 1.54 2.932 4.22 2.932 6.19 0 .97-1.189 1.27-1.947 1.47-1.456.38-4.216.65-4.595 2.51-.47 2.31 1.133 4.77 2.407 6.46z" style="fill:#e5e5e5"/>
        </g>
        <g transform="translate(56.95 1136.6)">
            <g transform="translate(-48.069)">
                <g transform="translate(-50.288 98.19)">
                    <g transform="matrix(.74914 .093891 .093891 .62947 895.3 650.41)">
                        <path d="m336.14 1002.2 44.294-80.754 2.001-18.659-208.08 99.093-2.964 19.99z" style="fill:#7b513a"/>
                    </g>
                    <g transform="matrix(.74914 .093891 .093891 .62947 895.3 650.41)">
                        <path d="m336.33 1002.2 44.294-80.754 2.273-19.541-44.499 80.392z" style="fill:#593f32"/>
                    </g>
                    <g transform="matrix(.74914 .093891 .093891 .62947 895.3 638.12)">
                        <path d="m336.33 1002.2 44.294-80.754-165.71 21.083-43.539 79.371z" style="fill:#987360"/>
                    </g>
                    <g transform="matrix(.74914 .093891 .093891 .62947 911.16 638.38)">
                        <path d="m300.85 1007.4 44.294-80.75 10.033-82.745-172.8 93.831-10.996 84.074z" style="fill:#abc837"/>
                    </g>
                    <g transform="matrix(.74914 .093891 .093891 .62947 911.16 638.38)">
                        <path d="m300.85 1007.4 44.294-80.75 10.033-82.745-42.818 81.01z" style="fill:#bcd35f"/>
                    </g>
                    <g transform="matrix(.74914 .093891 .093891 .62947 911.16 586.84)">
                        <path d="m300.85 1007.4 44.294-80.75-130.22 15.789-43.539 79.371z" style="fill:#cdde87"/>
                    </g>
                    <g transform="matrix(1.4277 0 0 1 -528.89 2.7204)">
                        <path d="m1217.8 1303.4c-7.37 4.54-7.5 16.06-3.9 23.82 1.57 3.39 4.75 7.4 8.93 7.19 4.92-.25 7.86-5.37 8.93-9.55.93-3.65 1.76-7.83 1.13-11.6-.78-4.66-5.06-11.41-10.36-11.64-1.78-.08-3.25.95-4.73 1.78z" style="fill:#808080;stroke-width:.81px;stroke:#000000"/>
                    </g>
                    <g transform="matrix(1.4277 0 0 1 -598.56 -.0077164)">
                        <path d="m1217.8 1303.4c-7.37 4.54-7.5 16.06-3.9 23.82 1.57 3.39 4.75 7.4 8.93 7.19 4.92-.25 7.86-5.37 8.93-9.55.93-3.65 1.76-7.83 1.13-11.6-.78-4.66-5.06-11.41-10.36-11.64-1.78-.08-3.25.95-4.73 1.78z" style="fill:#808080;stroke-width:.81px;stroke:#000000"/>
                    </g>
                    <path d="m1146.6 1317.9c-.05-3.61-2.38.74-1.14 1.36 1.99.99 2.72-1.94 1.7-2.45s-1.51.99-1.51 1.69" style="fill:none;stroke-width:1px;stroke:#000000"/>
                    <path d="m1217.5 1321.1c.49-1.92-2.38.03-1.62.79 1.46 1.45 3.26-1.04 1.14-1.75-1.01-.34.5 2.04.41.93" style="fill:none;stroke-width:1px;stroke:#000000"/>
                    <path d="m1230.6 1251.4c-.47-2.88-.05 8.64-.05 11.51 0 8.17.36 16.32 0 24.49-.14 3.21.19 6.66-.02 9.87" style="fill:none;stroke-width:1px;stroke:#000000"/>
                    <path d="m1255 1208c-.02-.34-.02-1.36-.02-1.02 0 3.61-.17 7.2-.17 10.81 0 9.15.32 18.23.51 27.36.04 2.06-.57 8.82-.6 8.79" style="fill:none;stroke-width:1px;stroke:#000000"/>
                    <path d="m1239.3 1301c1.31.51-117.46-2.88-118.16-3.74" style="fill:none;stroke-width:1px;stroke:#000000"/>
                    <path d="m1257.5 1253.4c1.94 1.33 9.47-1.34 9.52.74.07 3.22-.27 10.91-.26 11.06.08 2.02-3.94 8.34-5.16 10.26-3.9 6.13-18.47 35.64-19.5 35.64" style="fill:none;stroke-width:1px;stroke:#000000"/>
                    <path d="m1265.6 1256.4c-.08-.21-4.95 9.05-6.37 11.18-4.89 7.34-8.12 15.43-12.07 23.33-1.11 2.22-2.16 4.36-3.39 6.52-.29.51-2.55 4.17-1.76 3.39" style="fill:none;stroke-width:1px;stroke:#000000"/>
                    <path d="m1119.9 1297.3c.12-.09.46 11.97 0 11.04" style="fill:none;stroke-width:1px;stroke:#000000"/>
                    <path d="m1135.7 1271.4c.9.35-.37.9-.94 1.54-1.56 1.76-2.77 3.73-3.8 5.84-2.07 4.28-11.13 17.6-10.84 17.6" style="fill:none;stroke-width:1px;stroke:#000000"/>
                    <path d="m1200.6 1311.8c.18-.43-35.45-1.11-37.42-1.44" style="fill:none;stroke-width:1px;stroke:#000000"/>
                    <path d="m1130.8 1310.4c-.89-2.03-9.01-.7-10.96-.7" style="fill:none;stroke-width:1px;stroke:#000000"/>
                    <path d="m1240.8 1312.7c-2.31-.36-6.6.41-8.84-.15" style="fill:none;stroke-width:1px;stroke:#000000"/>
                    <path d="m1253.9 1258.7c-1.72 2.58-4.91 9.17-6.48 11.85-3.93 6.7-7.77 13.7-11.32 20.61-.09.18-2.66 5.04-2.87 5.4-.33.6-2.68 3.71-2.02 3.38" style="fill:none;stroke-width:1px;stroke:#000000"/>
                    <path d="m1254.1 1209.8c.16-.27.35-.95.57-.73.44.44-1.19 2.59-1.35 2.87-1.97 3.46-3.84 6.97-5.74 10.47-3.1 5.69-14.25 28.26-14.59 27.58" style="fill:none;stroke-width:1px;stroke:#000000"/>
                    <path d="m1162 1202.8c-.34 0-27.9 38.68-23.01 41.58" style="fill:none;stroke-width:1px;stroke:#000000"/>
                    <path d="m1252.4 1205.9c2.37-2.38-83.76-3.03-88.02-3.03" style="fill:none;stroke-width:1px;stroke:#000000"/>
                    <path d="m1225.7 1250.7c-1.38-.2-89.06-1.04-86.73-3.37" style="fill:none;stroke-width:1px;stroke:#000000"/>
                    <path d="m1135.5 1249c1.33-.67 0 36.14 0 45.75" style="fill:none;stroke-width:1px;stroke:#000000"/>
                </g>
                <path d="m1154.5 1327.8c-1.54 1.56.4-9.77-.31-11.18-.25-.51-16.57.89-16.59.64-.05-.97-1.47 9.34-1.47 10.44" style="fill:none;stroke-width:3.66px;stroke:#000000"/>
            </g>
            <g transform="matrix(.98171 .042764 .042764 .90002 -41.01 1020)">
                <path d="m1068.2 278.95-4.28 9.986" style="fill:none;stroke-width:1.02px;stroke:#000000"/>
            </g>
        </g>
        <g transform="translate(145.03 1136.6)">
            <g transform="translate(-50.288 98.19)">
                <g transform="matrix(.74914 .093891 .093891 .62947 895.3 650.41)">
                    <path d="m336.14 1002.2 44.294-80.754 2.001-18.659-208.08 99.093-2.964 19.99z" style="fill:#7b513a"/>
                </g>
                <g transform="matrix(.74914 .093891 .093891 .62947 895.3 650.41)">
                    <path d="m336.33 1002.2 44.294-80.754 2.273-19.541-44.499 80.392z" style="fill:#593f32"/>
                </g>
                <g transform="matrix(.74914 .093891 .093891 .62947 895.3 638.12)">
                    <path d="m336.33 1002.2 44.294-80.754-165.71 21.083-43.539 79.371z" style="fill:#987360"/>
                </g>
                <g transform="matrix(.74914 .093891 .093891 .62947 911.16 638.38)">
                    <path d="m300.85 1007.4 44.294-80.75 10.033-82.745-172.8 93.831-10.996 84.074z" style="fill:#abc837"/>
                </g>
                <g transform="matrix(.74914 .093891 .093891 .62947 911.16 638.38)">
                    <path d="m300.85 1007.4 44.294-80.75 10.033-82.745-42.818 81.01z" style="fill:#bcd35f"/>
                </g>
                <g transform="matrix(.74914 .093891 .093891 .62947 911.16 586.84)">
                    <path d="m300.85 1007.4 44.294-80.75-130.22 15.789-43.539 79.371z" style="fill:#cdde87"/>
                </g>
                <g transform="matrix(1.4277 0 0 1 -528.89 2.7204)">
                    <path d="m1217.8 1303.4c-7.37 4.54-7.5 16.06-3.9 23.82 1.57 3.39 4.75 7.4 8.93 7.19 4.92-.25 7.86-5.37 8.93-9.55.93-3.65 1.76-7.83 1.13-11.6-.78-4.66-5.06-11.41-10.36-11.64-1.78-.08-3.25.95-4.73 1.78z" style="fill:#808080;stroke-width:.81px;stroke:#000000"/>
                </g>
                <g transform="matrix(1.4277 0 0 1 -598.56 -.0077164)">
                    <path d="m1217.8 1303.4c-7.37 4.54-7.5 16.06-3.9 23.82 1.57 3.39 4.75 7.4 8.93 7.19 4.92-.25 7.86-5.37 8.93-9.55.93-3.65 1.76-7.83 1.13-11.6-.78-4.66-5.06-11.41-10.36-11.64-1.78-.08-3.25.95-4.73 1.78z" style="fill:#808080;stroke-width:.81px;stroke:#000000"/>
                </g>
                <path d="m1146.6 1317.9c-.05-3.61-2.38.74-1.14 1.36 1.99.99 2.72-1.94 1.7-2.45s-1.51.99-1.51 1.69" style="fill:none;stroke-width:1px;stroke:#000000"/>
                <path d="m1217.5 1321.1c.49-1.92-2.38.03-1.62.79 1.46 1.45 3.26-1.04 1.14-1.75-1.01-.34.5 2.04.41.93" style="fill:none;stroke-width:1px;stroke:#000000"/>
                <path d="m1230.6 1251.4c-.47-2.88-.05 8.64-.05 11.51 0 8.17.36 16.32 0 24.49-.14 3.21.19 6.66-.02 9.87" style="fill:none;stroke-width:1px;stroke:#000000"/>
                <path d="m1255 1208c-.02-.34-.02-1.36-.02-1.02 0 3.61-.17 7.2-.17 10.81 0 9.15.32 18.23.51 27.36.04 2.06-.57 8.82-.6 8.79" style="fill:none;stroke-width:1px;stroke:#000000"/>
                <path d="m1239.3 1301c1.31.51-117.46-2.88-118.16-3.74" style="fill:none;stroke-width:1px;stroke:#000000"/>
                <path d="m1257.5 1253.4c1.94 1.33 9.47-1.34 9.52.74.07 3.22-.27 10.91-.26 11.06.08 2.02-3.94 8.34-5.16 10.26-3.9 6.13-18.47 35.64-19.5 35.64" style="fill:none;stroke-width:1px;stroke:#000000"/>
                <path d="m1265.6 1256.4c-.08-.21-4.95 9.05-6.37 11.18-4.89 7.34-8.12 15.43-12.07 23.33-1.11 2.22-2.16 4.36-3.39 6.52-.29.51-2.55 4.17-1.76 3.39" style="fill:none;stroke-width:1px;stroke:#000000"/>
                <path d="m1119.9 1297.3c.12-.09.46 11.97 0 11.04" style="fill:none;stroke-width:1px;stroke:#000000"/>
                <path d="m1135.7 1271.4c.9.35-.37.9-.94 1.54-1.56 1.76-2.77 3.73-3.8 5.84-2.07 4.28-11.13 17.6-10.84 17.6" style="fill:none;stroke-width:1px;stroke:#000000"/>
                <path d="m1200.6 1311.8c.18-.43-35.45-1.11-37.42-1.44" style="fill:none;stroke-width:1px;stroke:#000000"/>
                <path d="m1130.8 1310.4c-.89-2.03-9.01-.7-10.96-.7" style="fill:none;stroke-width:1px;stroke:#000000"/>
                <path d="m1240.8 1312.7c-2.31-.36-6.6.41-8.84-.15" style="fill:none;stroke-width:1px;stroke:#000000"/>
                <path d="m1253.9 1258.7c-1.72 2.58-4.91 9.17-6.48 11.85-3.93 6.7-7.77 13.7-11.32 20.61-.09.18-2.66 5.04-2.87 5.4-.33.6-2.68 3.71-2.02 3.38" style="fill:none;stroke-width:1px;stroke:#000000"/>
                <path d="m1254.1 1209.8c.16-.27.35-.95.57-.73.44.44-1.19 2.59-1.35 2.87-1.97 3.46-3.84 6.97-5.74 10.47-3.1 5.69-14.25 28.26-14.59 27.58" style="fill:none;stroke-width:1px;stroke:#000000"/>
                <path d="m1162 1202.8c-.34 0-27.9 38.68-23.01 41.58" style="fill:none;stroke-width:1px;stroke:#000000"/>
                <path d="m1252.4 1205.9c2.37-2.38-83.76-3.03-88.02-3.03" style="fill:none;stroke-width:1px;stroke:#000000"/>
                <path d="m1225.7 1250.7c-1.38-.2-89.06-1.04-86.73-3.37" style="fill:none;stroke-width:1px;stroke:#000000"/>
                <path d="m1135.5 1249c1.33-.67 0 36.14 0 45.75" style="fill:none;stroke-width:1px;stroke:#000000"/>
            </g>
            <path d="m1154.5 1327.8c-1.54 1.56.4-9.77-.31-11.18-.25-.51-16.57.89-16.59.64-.05-.97-1.47 9.34-1.47 10.44" style="fill:none;stroke-width:3.66px;stroke:#000000"/>
        </g>
        <g transform="translate(60.313 1136.6)">
            <g transform="matrix(.74914 .093891 .093891 .62947 1063.4 748.6)">
                <path d="m336.14 1002.2 44.294-80.754 2.001-18.659-208.08 99.093-2.964 19.99z" style="fill:#7b513a"/>
            </g>
            <g transform="matrix(.74914 .093891 .093891 .62947 1063.4 748.6)">
                <path d="m336.33 1002.2 44.294-80.754 2.273-19.541-44.499 80.392z" style="fill:#593f32"/>
            </g>
            <g transform="matrix(.74914 .093891 .093891 .62947 1063.4 736.31)">
                <path d="m336.33 1002.2 44.294-80.754-165.71 21.083-43.539 79.371z" style="fill:#987360"/>
            </g>
            <g transform="matrix(.74914 .093891 .093891 .62947 1079.3 736.57)">
                <path d="m300.85 1007.4 44.294-80.75 10.033-82.745-172.8 93.831-10.996 84.074z" style="fill:#abc837"/>
            </g>
            <g transform="matrix(.74914 .093891 .093891 .62947 1079.3 736.57)">
                <path d="m300.85 1007.4 44.294-80.75 10.033-82.745-42.818 81.01z" style="fill:#bcd35f"/>
            </g>
            <g transform="matrix(.74914 .093891 .093891 .62947 1079.3 685.03)">
                <path d="m300.85 1007.4 44.294-80.75-130.22 15.789-43.539 79.371z" style="fill:#cdde87"/>
            </g>
            <g transform="matrix(1.4277 0 0 1 -360.74 100.91)">
                <path d="m1217.8 1303.4c-7.37 4.54-7.5 16.06-3.9 23.82 1.57 3.39 4.75 7.4 8.93 7.19 4.92-.25 7.86-5.37 8.93-9.55.93-3.65 1.76-7.83 1.13-11.6-.78-4.66-5.06-11.41-10.36-11.64-1.78-.08-3.25.95-4.73 1.78z" style="fill:#808080;stroke-width:.81px;stroke:#000000"/>
            </g>
            <g transform="matrix(1.4277 0 0 1 -430.41 98.182)">
                <path d="m1217.8 1303.4c-7.37 4.54-7.5 16.06-3.9 23.82 1.57 3.39 4.75 7.4 8.93 7.19 4.92-.25 7.86-5.37 8.93-9.55.93-3.65 1.76-7.83 1.13-11.6-.78-4.66-5.06-11.41-10.36-11.64-1.78-.08-3.25.95-4.73 1.78z" style="fill:#808080;stroke-width:.81px;stroke:#000000"/>
            </g>
            <g transform="translate(168.15 98.19)">
                <path d="m1146.6 1317.9c-.05-3.61-2.38.74-1.14 1.36 1.99.99 2.72-1.94 1.7-2.45s-1.51.99-1.51 1.69" style="fill:none;stroke-width:1px;stroke:#000000"/>
            </g>
            <g transform="translate(168.15 98.19)">
                <path d="m1217.5 1321.1c.49-1.92-2.38.03-1.62.79 1.46 1.45 3.26-1.04 1.14-1.75-1.01-.34.5 2.04.41.93" style="fill:none;stroke-width:1px;stroke:#000000"/>
            </g>
            <g transform="translate(168.15 98.19)">
                <path d="m1230.6 1251.4c-.47-2.88-.05 8.64-.05 11.51 0 8.17.36 16.32 0 24.49-.14 3.21.19 6.66-.02 9.87" style="fill:none;stroke-width:1px;stroke:#000000"/>
            </g>
            <g transform="translate(168.15 98.19)">
                <path d="m1255 1208c-.02-.34-.02-1.36-.02-1.02 0 3.61-.17 7.2-.17 10.81 0 9.15.32 18.23.51 27.36.04 2.06-.57 8.82-.6 8.79" style="fill:none;stroke-width:1px;stroke:#000000"/>
            </g>
            <g transform="translate(168.15 98.19)">
                <path d="m1239.3 1301c1.31.51-117.46-2.88-118.16-3.74" style="fill:none;stroke-width:1px;stroke:#000000"/>
            </g>
            <g transform="translate(168.15 98.19)">
                <path d="m1257.5 1253.4c1.94 1.33 9.47-1.34 9.52.74.07 3.22-.27 10.91-.26 11.06.08 2.02-3.94 8.34-5.16 10.26-3.9 6.13-18.47 35.64-19.5 35.64" style="fill:none;stroke-width:1px;stroke:#000000"/>
            </g>
            <g transform="translate(168.15 98.19)">
                <path d="m1265.6 1256.4c-.08-.21-4.95 9.05-6.37 11.18-4.89 7.34-8.12 15.43-12.07 23.33-1.11 2.22-2.16 4.36-3.39 6.52-.29.51-2.55 4.17-1.76 3.39" style="fill:none;stroke-width:1px;stroke:#000000"/>
            </g>
            <g transform="translate(168.15 98.19)">
                <path d="m1119.9 1297.3c.12-.09.46 11.97 0 11.04" style="fill:none;stroke-width:1px;stroke:#000000"/>
            </g>
            <g transform="translate(168.15 98.19)">
                <path d="m1135.7 1271.4c.9.35-.37.9-.94 1.54-1.56 1.76-2.77 3.73-3.8 5.84-2.07 4.28-11.13 17.6-10.84 17.6" style="fill:none;stroke-width:1px;stroke:#000000"/>
            </g>
            <g transform="translate(168.15 98.19)">
                <path d="m1200.6 1311.8c.18-.43-35.45-1.11-37.42-1.44" style="fill:none;stroke-width:1px;stroke:#000000"/>
            </g>
            <g transform="translate(168.15 98.19)">
                <path d="m1130.8 1310.4c-.89-2.03-9.01-.7-10.96-.7" style="fill:none;stroke-width:1px;stroke:#000000"/>
            </g>
            <g transform="translate(168.15 98.19)">
                <path d="m1240.8 1312.7c-2.31-.36-6.6.41-8.84-.15" style="fill:none;stroke-width:1px;stroke:#000000"/>
            </g>
            <g transform="translate(168.15 98.19)">
                <path d="m1253.9 1258.7c-1.72 2.58-4.91 9.17-6.48 11.85-3.93 6.7-7.77 13.7-11.32 20.61-.09.18-2.66 5.04-2.87 5.4-.33.6-2.68 3.71-2.02 3.38" style="fill:none;stroke-width:1px;stroke:#000000"/>
            </g>
            <g transform="translate(168.15 98.19)">
                <path d="m1254.1 1209.8c.16-.27.35-.95.57-.73.44.44-1.19 2.59-1.35 2.87-1.97 3.46-3.84 6.97-5.74 10.47-3.1 5.69-14.25 28.26-14.59 27.58" style="fill:none;stroke-width:1px;stroke:#000000"/>
            </g>
            <g transform="translate(168.15 98.19)">
                <path d="m1162 1202.8c-.34 0-27.9 38.68-23.01 41.58" style="fill:none;stroke-width:1px;stroke:#000000"/>
            </g>
            <g transform="translate(168.15 98.19)">
                <path d="m1252.4 1205.9c2.37-2.38-83.76-3.03-88.02-3.03" style="fill:none;stroke-width:1px;stroke:#000000"/>
            </g>
            <g transform="translate(168.15 98.19)">
                <path d="m1225.7 1250.7c-1.38-.2-89.06-1.04-86.73-3.37" style="fill:none;stroke-width:1px;stroke:#000000"/>
            </g>
            <g transform="translate(168.15 98.19)">
                <path d="m1135.5 1249c1.33-.67 0 36.14 0 45.75" style="fill:none;stroke-width:1px;stroke:#000000"/>
            </g>
            <g transform="translate(218.44)">
                <path d="m1154.5 1327.8c-1.54 1.56.4-9.77-.31-11.18-.25-.51-16.57.89-16.59.64-.05-.97-1.47 9.34-1.47 10.44" style="fill:none;stroke-width:3.66px;stroke:#000000"/>
            </g>
        </g>
        <g transform="translate(196.88 1136.6)">
            <g transform="matrix(.74914 .093891 .093891 .62947 1063.4 748.6)">
                <path d="m336.14 1002.2 44.294-80.754 2.001-18.659-208.08 99.093-2.964 19.99z" style="fill:#7b513a"/>
            </g>
            <g transform="matrix(.74914 .093891 .093891 .62947 1063.4 748.6)">
                <path d="m336.33 1002.2 44.294-80.754 2.273-19.541-44.499 80.392z" style="fill:#593f32"/>
            </g>
            <g transform="matrix(.74914 .093891 .093891 .62947 1063.4 736.31)">
                <path d="m336.33 1002.2 44.294-80.754-165.71 21.083-43.539 79.371z" style="fill:#987360"/>
            </g>
            <g transform="matrix(.74914 .093891 .093891 .62947 1079.3 736.57)">
                <path d="m300.85 1007.4 44.294-80.75 10.033-82.745-172.8 93.831-10.996 84.074z" style="fill:#abc837"/>
            </g>
            <g transform="matrix(.74914 .093891 .093891 .62947 1079.3 736.57)">
                <path d="m300.85 1007.4 44.294-80.75 10.033-82.745-42.818 81.01z" style="fill:#bcd35f"/>
            </g>
            <g transform="matrix(.74914 .093891 .093891 .62947 1079.3 685.03)">
                <path d="m300.85 1007.4 44.294-80.75-130.22 15.789-43.539 79.371z" style="fill:#cdde87"/>
            </g>
            <g transform="matrix(1.4277 0 0 1 -360.74 100.91)">
                <path d="m1217.8 1303.4c-7.37 4.54-7.5 16.06-3.9 23.82 1.57 3.39 4.75 7.4 8.93 7.19 4.92-.25 7.86-5.37 8.93-9.55.93-3.65 1.76-7.83 1.13-11.6-.78-4.66-5.06-11.41-10.36-11.64-1.78-.08-3.25.95-4.73 1.78z" style="fill:#808080;stroke-width:.81px;stroke:#000000"/>
            </g>
            <g transform="matrix(1.4277 0 0 1 -430.41 98.182)">
                <path d="m1217.8 1303.4c-7.37 4.54-7.5 16.06-3.9 23.82 1.57 3.39 4.75 7.4 8.93 7.19 4.92-.25 7.86-5.37 8.93-9.55.93-3.65 1.76-7.83 1.13-11.6-.78-4.66-5.06-11.41-10.36-11.64-1.78-.08-3.25.95-4.73 1.78z" style="fill:#808080;stroke-width:.81px;stroke:#000000"/>
            </g>
            <g transform="translate(168.15 98.19)">
                <path d="m1146.6 1317.9c-.05-3.61-2.38.74-1.14 1.36 1.99.99 2.72-1.94 1.7-2.45s-1.51.99-1.51 1.69" style="fill:none;stroke-width:1px;stroke:#000000"/>
            </g>
            <g transform="translate(168.15 98.19)">
                <path d="m1217.5 1321.1c.49-1.92-2.38.03-1.62.79 1.46 1.45 3.26-1.04 1.14-1.75-1.01-.34.5 2.04.41.93" style="fill:none;stroke-width:1px;stroke:#000000"/>
            </g>
            <g transform="translate(168.15 98.19)">
                <path d="m1230.6 1251.4c-.47-2.88-.05 8.64-.05 11.51 0 8.17.36 16.32 0 24.49-.14 3.21.19 6.66-.02 9.87" style="fill:none;stroke-width:1px;stroke:#000000"/>
            </g>
            <g transform="translate(168.15 98.19)">
                <path d="m1255 1208c-.02-.34-.02-1.36-.02-1.02 0 3.61-.17 7.2-.17 10.81 0 9.15.32 18.23.51 27.36.04 2.06-.57 8.82-.6 8.79" style="fill:none;stroke-width:1px;stroke:#000000"/>
            </g>
            <g transform="translate(168.15 98.19)">
                <path d="m1239.3 1301c1.31.51-117.46-2.88-118.16-3.74" style="fill:none;stroke-width:1px;stroke:#000000"/>
            </g>
            <g transform="translate(168.15 98.19)">
                <path d="m1257.5 1253.4c1.94 1.33 9.47-1.34 9.52.74.07 3.22-.27 10.91-.26 11.06.08 2.02-3.94 8.34-5.16 10.26-3.9 6.13-18.47 35.64-19.5 35.64" style="fill:none;stroke-width:1px;stroke:#000000"/>
            </g>
            <g transform="translate(168.15 98.19)">
                <path d="m1265.6 1256.4c-.08-.21-4.95 9.05-6.37 11.18-4.89 7.34-8.12 15.43-12.07 23.33-1.11 2.22-2.16 4.36-3.39 6.52-.29.51-2.55 4.17-1.76 3.39" style="fill:none;stroke-width:1px;stroke:#000000"/>
            </g>
            <g transform="translate(168.15 98.19)">
                <path d="m1119.9 1297.3c.12-.09.46 11.97 0 11.04" style="fill:none;stroke-width:1px;stroke:#000000"/>
            </g>
            <g transform="translate(168.15 98.19)">
                <path d="m1135.7 1271.4c.9.35-.37.9-.94 1.54-1.56 1.76-2.77 3.73-3.8 5.84-2.07 4.28-11.13 17.6-10.84 17.6" style="fill:none;stroke-width:1px;stroke:#000000"/>
            </g>
            <g transform="translate(168.15 98.19)">
                <path d="m1200.6 1311.8c.18-.43-35.45-1.11-37.42-1.44" style="fill:none;stroke-width:1px;stroke:#000000"/>
            </g>
            <g transform="translate(168.15 98.19)">
                <path d="m1130.8 1310.4c-.89-2.03-9.01-.7-10.96-.7" style="fill:none;stroke-width:1px;stroke:#000000"/>
            </g>
            <g transform="translate(168.15 98.19)">
                <path d="m1240.8 1312.7c-2.31-.36-6.6.41-8.84-.15" style="fill:none;stroke-width:1px;stroke:#000000"/>
            </g>
            <g transform="translate(168.15 98.19)">
                <path d="m1253.9 1258.7c-1.72 2.58-4.91 9.17-6.48 11.85-3.93 6.7-7.77 13.7-11.32 20.61-.09.18-2.66 5.04-2.87 5.4-.33.6-2.68 3.71-2.02 3.38" style="fill:none;stroke-width:1px;stroke:#000000"/>
            </g>
            <g transform="translate(168.15 98.19)">
                <path d="m1254.1 1209.8c.16-.27.35-.95.57-.73.44.44-1.19 2.59-1.35 2.87-1.97 3.46-3.84 6.97-5.74 10.47-3.1 5.69-14.25 28.26-14.59 27.58" style="fill:none;stroke-width:1px;stroke:#000000"/>
            </g>
            <g transform="translate(168.15 98.19)">
                <path d="m1162 1202.8c-.34 0-27.9 38.68-23.01 41.58" style="fill:none;stroke-width:1px;stroke:#000000"/>
            </g>
            <g transform="translate(168.15 98.19)">
                <path d="m1252.4 1205.9c2.37-2.38-83.76-3.03-88.02-3.03" style="fill:none;stroke-width:1px;stroke:#000000"/>
            </g>
            <g transform="translate(168.15 98.19)">
                <path d="m1225.7 1250.7c-1.38-.2-89.06-1.04-86.73-3.37" style="fill:none;stroke-width:1px;stroke:#000000"/>
            </g>
            <g transform="translate(168.15 98.19)">
                <path d="m1135.5 1249c1.33-.67 0 36.14 0 45.75" style="fill:none;stroke-width:1px;stroke:#000000"/>
            </g>
            <g transform="translate(218.44)">
                <path d="m1154.5 1327.8c-1.54 1.56.4-9.77-.31-11.18-.25-.51-16.57.89-16.59.64-.05-.97-1.47 9.34-1.47 10.44" style="fill:none;stroke-width:3.66px;stroke:#000000"/>
            </g>
        </g>
        <g transform="translate(333.44 1136.6)">
            <g transform="matrix(.74914 .093891 .093891 .62947 1063.4 748.6)">
                <path d="m336.14 1002.2 44.294-80.754 2.001-18.659-208.08 99.093-2.964 19.99z" style="fill:#7b513a"/>
            </g>
            <g transform="matrix(.74914 .093891 .093891 .62947 1063.4 748.6)">
                <path d="m336.33 1002.2 44.294-80.754 2.273-19.541-44.499 80.392z" style="fill:#593f32"/>
            </g>
            <g transform="matrix(.74914 .093891 .093891 .62947 1063.4 736.31)">
                <path d="m336.33 1002.2 44.294-80.754-165.71 21.083-43.539 79.371z" style="fill:#987360"/>
            </g>
            <g transform="matrix(.74914 .093891 .093891 .62947 1079.3 736.57)">
                <path d="m300.85 1007.4 44.294-80.75 10.033-82.745-172.8 93.831-10.996 84.074z" style="fill:#abc837"/>
            </g>
            <g transform="matrix(.74914 .093891 .093891 .62947 1079.3 736.57)">
                <path d="m300.85 1007.4 44.294-80.75 10.033-82.745-42.818 81.01z" style="fill:#bcd35f"/>
            </g>
            <g transform="matrix(.74914 .093891 .093891 .62947 1079.3 685.03)">
                <path d="m300.85 1007.4 44.294-80.75-130.22 15.789-43.539 79.371z" style="fill:#cdde87"/>
            </g>
            <g transform="matrix(1.4277 0 0 1 -360.74 100.91)">
                <path d="m1217.8 1303.4c-7.37 4.54-7.5 16.06-3.9 23.82 1.57 3.39 4.75 7.4 8.93 7.19 4.92-.25 7.86-5.37 8.93-9.55.93-3.65 1.76-7.83 1.13-11.6-.78-4.66-5.06-11.41-10.36-11.64-1.78-.08-3.25.95-4.73 1.78z" style="fill:#808080;stroke-width:.81px;stroke:#000000"/>
            </g>
            <g transform="matrix(1.4277 0 0 1 -430.41 98.182)">
                <path d="m1217.8 1303.4c-7.37 4.54-7.5 16.06-3.9 23.82 1.57 3.39 4.75 7.4 8.93 7.19 4.92-.25 7.86-5.37 8.93-9.55.93-3.65 1.76-7.83 1.13-11.6-.78-4.66-5.06-11.41-10.36-11.64-1.78-.08-3.25.95-4.73 1.78z" style="fill:#808080;stroke-width:.81px;stroke:#000000"/>
            </g>
            <g transform="translate(168.15 98.19)">
                <path d="m1146.6 1317.9c-.05-3.61-2.38.74-1.14 1.36 1.99.99 2.72-1.94 1.7-2.45s-1.51.99-1.51 1.69" style="fill:none;stroke-width:1px;stroke:#000000"/>
            </g>
            <g transform="translate(168.15 98.19)">
                <path d="m1217.5 1321.1c.49-1.92-2.38.03-1.62.79 1.46 1.45 3.26-1.04 1.14-1.75-1.01-.34.5 2.04.41.93" style="fill:none;stroke-width:1px;stroke:#000000"/>
            </g>
            <g transform="translate(168.15 98.19)">
                <path d="m1230.6 1251.4c-.47-2.88-.05 8.64-.05 11.51 0 8.17.36 16.32 0 24.49-.14 3.21.19 6.66-.02 9.87" style="fill:none;stroke-width:1px;stroke:#000000"/>
            </g>
            <g transform="translate(168.15 98.19)">
                <path d="m1255 1208c-.02-.34-.02-1.36-.02-1.02 0 3.61-.17 7.2-.17 10.81 0 9.15.32 18.23.51 27.36.04 2.06-.57 8.82-.6 8.79" style="fill:none;stroke-width:1px;stroke:#000000"/>
            </g>
            <g transform="translate(168.15 98.19)">
                <path d="m1239.3 1301c1.31.51-117.46-2.88-118.16-3.74" style="fill:none;stroke-width:1px;stroke:#000000"/>
            </g>
            <g transform="translate(168.15 98.19)">
                <path d="m1257.5 1253.4c1.94 1.33 9.47-1.34 9.52.74.07 3.22-.27 10.91-.26 11.06.08 2.02-3.94 8.34-5.16 10.26-3.9 6.13-18.47 35.64-19.5 35.64" style="fill:none;stroke-width:1px;stroke:#000000"/>
            </g>
            <g transform="translate(168.15 98.19)">
                <path d="m1265.6 1256.4c-.08-.21-4.95 9.05-6.37 11.18-4.89 7.34-8.12 15.43-12.07 23.33-1.11 2.22-2.16 4.36-3.39 6.52-.29.51-2.55 4.17-1.76 3.39" style="fill:none;stroke-width:1px;stroke:#000000"/>
            </g>
            <g transform="translate(168.15 98.19)">
                <path d="m1119.9 1297.3c.12-.09.46 11.97 0 11.04" style="fill:none;stroke-width:1px;stroke:#000000"/>
            </g>
            <g transform="translate(168.15 98.19)">
                <path d="m1135.7 1271.4c.9.35-.37.9-.94 1.54-1.56 1.76-2.77 3.73-3.8 5.84-2.07 4.28-11.13 17.6-10.84 17.6" style="fill:none;stroke-width:1px;stroke:#000000"/>
            </g>
            <g transform="translate(168.15 98.19)">
                <path d="m1200.6 1311.8c.18-.43-35.45-1.11-37.42-1.44" style="fill:none;stroke-width:1px;stroke:#000000"/>
            </g>
            <g transform="translate(168.15 98.19)">
                <path d="m1130.8 1310.4c-.89-2.03-9.01-.7-10.96-.7" style="fill:none;stroke-width:1px;stroke:#000000"/>
            </g>
            <g transform="translate(168.15 98.19)">
                <path d="m1240.8 1312.7c-2.31-.36-6.6.41-8.84-.15" style="fill:none;stroke-width:1px;stroke:#000000"/>
            </g>
            <g transform="translate(168.15 98.19)">
                <path d="m1253.9 1258.7c-1.72 2.58-4.91 9.17-6.48 11.85-3.93 6.7-7.77 13.7-11.32 20.61-.09.18-2.66 5.04-2.87 5.4-.33.6-2.68 3.71-2.02 3.38" style="fill:none;stroke-width:1px;stroke:#000000"/>
            </g>
            <g transform="translate(168.15 98.19)">
                <path d="m1254.1 1209.8c.16-.27.35-.95.57-.73.44.44-1.19 2.59-1.35 2.87-1.97 3.46-3.84 6.97-5.74 10.47-3.1 5.69-14.25 28.26-14.59 27.58" style="fill:none;stroke-width:1px;stroke:#000000"/>
            </g>
            <g transform="translate(168.15 98.19)">
                <path d="m1162 1202.8c-.34 0-27.9 38.68-23.01 41.58" style="fill:none;stroke-width:1px;stroke:#000000"/>
            </g>
            <g transform="translate(168.15 98.19)">
                <path d="m1252.4 1205.9c2.37-2.38-83.76-3.03-88.02-3.03" style="fill:none;stroke-width:1px;stroke:#000000"/>
            </g>
            <g transform="translate(168.15 98.19)">
                <path d="m1225.7 1250.7c-1.38-.2-89.06-1.04-86.73-3.37" style="fill:none;stroke-width:1px;stroke:#000000"/>
            </g>
            <g transform="translate(168.15 98.19)">
                <path d="m1135.5 1249c1.33-.67 0 36.14 0 45.75" style="fill:none;stroke-width:1px;stroke:#000000"/>
            </g>
            <g transform="translate(218.44)">
                <path d="m1154.5 1327.8c-1.54 1.56.4-9.77-.31-11.18-.25-.51-16.57.89-16.59.64-.05-.97-1.47 9.34-1.47 10.44" style="fill:none;stroke-width:3.66px;stroke:#000000"/>
            </g>
        </g>
        <g transform="translate(470 1136.6)">
            <g transform="matrix(.74914 .093891 .093891 .62947 1063.4 748.6)">
                <path d="m336.14 1002.2 44.294-80.754 2.001-18.659-208.08 99.093-2.964 19.99z" style="fill:#7b513a"/>
            </g>
            <g transform="matrix(.74914 .093891 .093891 .62947 1063.4 748.6)">
                <path d="m336.33 1002.2 44.294-80.754 2.273-19.541-44.499 80.392z" style="fill:#593f32"/>
            </g>
            <g transform="matrix(.74914 .093891 .093891 .62947 1063.4 736.31)">
                <path d="m336.33 1002.2 44.294-80.754-165.71 21.083-43.539 79.371z" style="fill:#987360"/>
            </g>
            <g transform="matrix(.74914 .093891 .093891 .62947 1079.3 736.57)">
                <path d="m300.85 1007.4 44.294-80.75 10.033-82.745-172.8 93.831-10.996 84.074z" style="fill:#abc837"/>
            </g>
            <g transform="matrix(.74914 .093891 .093891 .62947 1079.3 736.57)">
                <path d="m300.85 1007.4 44.294-80.75 10.033-82.745-42.818 81.01z" style="fill:#bcd35f"/>
            </g>
            <g transform="matrix(.74914 .093891 .093891 .62947 1079.3 685.03)">
                <path d="m300.85 1007.4 44.294-80.75-130.22 15.789-43.539 79.371z" style="fill:#cdde87"/>
            </g>
            <g transform="matrix(1.4277 0 0 1 -360.74 100.91)">
                <path d="m1217.8 1303.4c-7.37 4.54-7.5 16.06-3.9 23.82 1.57 3.39 4.75 7.4 8.93 7.19 4.92-.25 7.86-5.37 8.93-9.55.93-3.65 1.76-7.83 1.13-11.6-.78-4.66-5.06-11.41-10.36-11.64-1.78-.08-3.25.95-4.73 1.78z" style="fill:#808080;stroke-width:.81px;stroke:#000000"/>
            </g>
            <g transform="matrix(1.4277 0 0 1 -430.41 98.182)">
                <path d="m1217.8 1303.4c-7.37 4.54-7.5 16.06-3.9 23.82 1.57 3.39 4.75 7.4 8.93 7.19 4.92-.25 7.86-5.37 8.93-9.55.93-3.65 1.76-7.83 1.13-11.6-.78-4.66-5.06-11.41-10.36-11.64-1.78-.08-3.25.95-4.73 1.78z" style="fill:#808080;stroke-width:.81px;stroke:#000000"/>
            </g>
            <g transform="translate(168.15 98.19)">
                <path d="m1146.6 1317.9c-.05-3.61-2.38.74-1.14 1.36 1.99.99 2.72-1.94 1.7-2.45s-1.51.99-1.51 1.69" style="fill:none;stroke-width:1px;stroke:#000000"/>
            </g>
            <g transform="translate(168.15 98.19)">
                <path d="m1217.5 1321.1c.49-1.92-2.38.03-1.62.79 1.46 1.45 3.26-1.04 1.14-1.75-1.01-.34.5 2.04.41.93" style="fill:none;stroke-width:1px;stroke:#000000"/>
            </g>
            <g transform="translate(168.15 98.19)">
                <path d="m1230.6 1251.4c-.47-2.88-.05 8.64-.05 11.51 0 8.17.36 16.32 0 24.49-.14 3.21.19 6.66-.02 9.87" style="fill:none;stroke-width:1px;stroke:#000000"/>
            </g>
            <g transform="translate(168.15 98.19)">
                <path d="m1255 1208c-.02-.34-.02-1.36-.02-1.02 0 3.61-.17 7.2-.17 10.81 0 9.15.32 18.23.51 27.36.04 2.06-.57 8.82-.6 8.79" style="fill:none;stroke-width:1px;stroke:#000000"/>
            </g>
            <g transform="translate(168.15 98.19)">
                <path d="m1239.3 1301c1.31.51-117.46-2.88-118.16-3.74" style="fill:none;stroke-width:1px;stroke:#000000"/>
            </g>
            <g transform="translate(168.15 98.19)">
                <path d="m1257.5 1253.4c1.94 1.33 9.47-1.34 9.52.74.07 3.22-.27 10.91-.26 11.06.08 2.02-3.94 8.34-5.16 10.26-3.9 6.13-18.47 35.64-19.5 35.64" style="fill:none;stroke-width:1px;stroke:#000000"/>
            </g>
            <g transform="translate(168.15 98.19)">
                <path d="m1265.6 1256.4c-.08-.21-4.95 9.05-6.37 11.18-4.89 7.34-8.12 15.43-12.07 23.33-1.11 2.22-2.16 4.36-3.39 6.52-.29.51-2.55 4.17-1.76 3.39" style="fill:none;stroke-width:1px;stroke:#000000"/>
            </g>
            <g transform="translate(168.15 98.19)">
                <path d="m1119.9 1297.3c.12-.09.46 11.97 0 11.04" style="fill:none;stroke-width:1px;stroke:#000000"/>
            </g>
            <g transform="translate(168.15 98.19)">
                <path d="m1135.7 1271.4c.9.35-.37.9-.94 1.54-1.56 1.76-2.77 3.73-3.8 5.84-2.07 4.28-11.13 17.6-10.84 17.6" style="fill:none;stroke-width:1px;stroke:#000000"/>
            </g>
            <g transform="translate(168.15 98.19)">
                <path d="m1200.6 1311.8c.18-.43-35.45-1.11-37.42-1.44" style="fill:none;stroke-width:1px;stroke:#000000"/>
            </g>
            <g transform="translate(168.15 98.19)">
                <path d="m1130.8 1310.4c-.89-2.03-9.01-.7-10.96-.7" style="fill:none;stroke-width:1px;stroke:#000000"/>
            </g>
            <g transform="translate(168.15 98.19)">
                <path d="m1240.8 1312.7c-2.31-.36-6.6.41-8.84-.15" style="fill:none;stroke-width:1px;stroke:#000000"/>
            </g>
            <g transform="translate(168.15 98.19)">
                <path d="m1253.9 1258.7c-1.72 2.58-4.91 9.17-6.48 11.85-3.93 6.7-7.77 13.7-11.32 20.61-.09.18-2.66 5.04-2.87 5.4-.33.6-2.68 3.71-2.02 3.38" style="fill:none;stroke-width:1px;stroke:#000000"/>
            </g>
            <g transform="translate(168.15 98.19)">
                <path d="m1254.1 1209.8c.16-.27.35-.95.57-.73.44.44-1.19 2.59-1.35 2.87-1.97 3.46-3.84 6.97-5.74 10.47-3.1 5.69-14.25 28.26-14.59 27.58" style="fill:none;stroke-width:1px;stroke:#000000"/>
            </g>
            <g transform="translate(168.15 98.19)">
                <path d="m1162 1202.8c-.34 0-27.9 38.68-23.01 41.58" style="fill:none;stroke-width:1px;stroke:#000000"/>
            </g>
            <g transform="translate(168.15 98.19)">
                <path d="m1252.4 1205.9c2.37-2.38-83.76-3.03-88.02-3.03" style="fill:none;stroke-width:1px;stroke:#000000"/>
            </g>
            <g transform="translate(168.15 98.19)">
                <path d="m1225.7 1250.7c-1.38-.2-89.06-1.04-86.73-3.37" style="fill:none;stroke-width:1px;stroke:#000000"/>
            </g>
            <g transform="translate(168.15 98.19)">
                <path d="m1135.5 1249c1.33-.67 0 36.14 0 45.75" style="fill:none;stroke-width:1px;stroke:#000000"/>
            </g>
            <g transform="translate(218.44)">
                <path d="m1154.5 1327.8c-1.54 1.56.4-9.77-.31-11.18-.25-.51-16.57.89-16.59.64-.05-.97-1.47 9.34-1.47 10.44" style="fill:none;stroke-width:3.66px;stroke:#000000"/>
            </g>
        </g>
        <g transform="translate(606.56 1136.6)">
            <g transform="matrix(.74914 .093891 .093891 .62947 1063.4 748.6)">
                <path d="m336.14 1002.2 44.294-80.754 2.001-18.659-208.08 99.093-2.964 19.99z" style="fill:#7b513a"/>
            </g>
            <g transform="matrix(.74914 .093891 .093891 .62947 1063.4 748.6)">
                <path d="m336.33 1002.2 44.294-80.754 2.273-19.541-44.499 80.392z" style="fill:#593f32"/>
            </g>
            <g transform="matrix(.74914 .093891 .093891 .62947 1063.4 736.31)">
                <path d="m336.33 1002.2 44.294-80.754-165.71 21.083-43.539 79.371z" style="fill:#987360"/>
            </g>
            <g transform="matrix(.74914 .093891 .093891 .62947 1079.3 736.57)">
                <path d="m300.85 1007.4 44.294-80.75 10.033-82.745-172.8 93.831-10.996 84.074z" style="fill:#abc837"/>
            </g>
            <g transform="matrix(.74914 .093891 .093891 .62947 1079.3 736.57)">
                <path d="m300.85 1007.4 44.294-80.75 10.033-82.745-42.818 81.01z" style="fill:#bcd35f"/>
            </g>
            <g transform="matrix(.74914 .093891 .093891 .62947 1079.3 685.03)">
                <path d="m300.85 1007.4 44.294-80.75-130.22 15.789-43.539 79.371z" style="fill:#cdde87"/>
            </g>
            <g transform="matrix(1.4277 0 0 1 -360.74 100.91)">
                <path d="m1217.8 1303.4c-7.37 4.54-7.5 16.06-3.9 23.82 1.57 3.39 4.75 7.4 8.93 7.19 4.92-.25 7.86-5.37 8.93-9.55.93-3.65 1.76-7.83 1.13-11.6-.78-4.66-5.06-11.41-10.36-11.64-1.78-.08-3.25.95-4.73 1.78z" style="fill:#808080;stroke-width:.81px;stroke:#000000"/>
            </g>
            <g transform="matrix(1.4277 0 0 1 -430.41 98.182)">
                <path d="m1217.8 1303.4c-7.37 4.54-7.5 16.06-3.9 23.82 1.57 3.39 4.75 7.4 8.93 7.19 4.92-.25 7.86-5.37 8.93-9.55.93-3.65 1.76-7.83 1.13-11.6-.78-4.66-5.06-11.41-10.36-11.64-1.78-.08-3.25.95-4.73 1.78z" style="fill:#808080;stroke-width:.81px;stroke:#000000"/>
            </g>
            <g transform="translate(168.15 98.19)">
                <path d="m1146.6 1317.9c-.05-3.61-2.38.74-1.14 1.36 1.99.99 2.72-1.94 1.7-2.45s-1.51.99-1.51 1.69" style="fill:none;stroke-width:1px;stroke:#000000"/>
            </g>
            <g transform="translate(168.15 98.19)">
                <path d="m1217.5 1321.1c.49-1.92-2.38.03-1.62.79 1.46 1.45 3.26-1.04 1.14-1.75-1.01-.34.5 2.04.41.93" style="fill:none;stroke-width:1px;stroke:#000000"/>
            </g>
            <g transform="translate(168.15 98.19)">
                <path d="m1230.6 1251.4c-.47-2.88-.05 8.64-.05 11.51 0 8.17.36 16.32 0 24.49-.14 3.21.19 6.66-.02 9.87" style="fill:none;stroke-width:1px;stroke:#000000"/>
            </g>
            <g transform="translate(168.15 98.19)">
                <path d="m1255 1208c-.02-.34-.02-1.36-.02-1.02 0 3.61-.17 7.2-.17 10.81 0 9.15.32 18.23.51 27.36.04 2.06-.57 8.82-.6 8.79" style="fill:none;stroke-width:1px;stroke:#000000"/>
            </g>
            <g transform="translate(168.15 98.19)">
                <path d="m1239.3 1301c1.31.51-117.46-2.88-118.16-3.74" style="fill:none;stroke-width:1px;stroke:#000000"/>
            </g>
            <g transform="translate(168.15 98.19)">
                <path d="m1257.5 1253.4c1.94 1.33 9.47-1.34 9.52.74.07 3.22-.27 10.91-.26 11.06.08 2.02-3.94 8.34-5.16 10.26-3.9 6.13-18.47 35.64-19.5 35.64" style="fill:none;stroke-width:1px;stroke:#000000"/>
            </g>
            <g transform="translate(168.15 98.19)">
                <path d="m1265.6 1256.4c-.08-.21-4.95 9.05-6.37 11.18-4.89 7.34-8.12 15.43-12.07 23.33-1.11 2.22-2.16 4.36-3.39 6.52-.29.51-2.55 4.17-1.76 3.39" style="fill:none;stroke-width:1px;stroke:#000000"/>
            </g>
            <g transform="translate(168.15 98.19)">
                <path d="m1119.9 1297.3c.12-.09.46 11.97 0 11.04" style="fill:none;stroke-width:1px;stroke:#000000"/>
            </g>
            <g transform="translate(168.15 98.19)">
                <path d="m1135.7 1271.4c.9.35-.37.9-.94 1.54-1.56 1.76-2.77 3.73-3.8 5.84-2.07 4.28-11.13 17.6-10.84 17.6" style="fill:none;stroke-width:1px;stroke:#000000"/>
            </g>
            <g transform="translate(168.15 98.19)">
                <path d="m1200.6 1311.8c.18-.43-35.45-1.11-37.42-1.44" style="fill:none;stroke-width:1px;stroke:#000000"/>
            </g>
            <g transform="translate(168.15 98.19)">
                <path d="m1130.8 1310.4c-.89-2.03-9.01-.7-10.96-.7" style="fill:none;stroke-width:1px;stroke:#000000"/>
            </g>
            <g transform="translate(168.15 98.19)">
                <path d="m1240.8 1312.7c-2.31-.36-6.6.41-8.84-.15" style="fill:none;stroke-width:1px;stroke:#000000"/>
            </g>
            <g transform="translate(168.15 98.19)">
                <path d="m1253.9 1258.7c-1.72 2.58-4.91 9.17-6.48 11.85-3.93 6.7-7.77 13.7-11.32 20.61-.09.18-2.66 5.04-2.87 5.4-.33.6-2.68 3.71-2.02 3.38" style="fill:none;stroke-width:1px;stroke:#000000"/>
            </g>
            <g transform="translate(168.15 98.19)">
                <path d="m1254.1 1209.8c.16-.27.35-.95.57-.73.44.44-1.19 2.59-1.35 2.87-1.97 3.46-3.84 6.97-5.74 10.47-3.1 5.69-14.25 28.26-14.59 27.58" style="fill:none;stroke-width:1px;stroke:#000000"/>
            </g>
            <g transform="translate(168.15 98.19)">
                <path d="m1162 1202.8c-.34 0-27.9 38.68-23.01 41.58" style="fill:none;stroke-width:1px;stroke:#000000"/>
            </g>
            <g transform="translate(168.15 98.19)">
                <path d="m1252.4 1205.9c2.37-2.38-83.76-3.03-88.02-3.03" style="fill:none;stroke-width:1px;stroke:#000000"/>
            </g>
            <g transform="translate(168.15 98.19)">
                <path d="m1225.7 1250.7c-1.38-.2-89.06-1.04-86.73-3.37" style="fill:none;stroke-width:1px;stroke:#000000"/>
            </g>
            <g transform="translate(168.15 98.19)">
                <path d="m1135.5 1249c1.33-.67 0 36.14 0 45.75" style="fill:none;stroke-width:1px;stroke:#000000"/>
            </g>
            <g transform="translate(218.44)">
                <path d="m1154.5 1327.8c-1.54 1.56.4-9.77-.31-11.18-.25-.51-16.57.89-16.59.64-.05-.97-1.47 9.34-1.47 10.44" style="fill:none;stroke-width:3.66px;stroke:#000000"/>
            </g>
        </g>
        <g transform="translate(743.13 1136.6)">
            <g transform="matrix(.74914 .093891 .093891 .62947 1063.4 748.6)">
                <path d="m336.14 1002.2 44.294-80.754 2.001-18.659-208.08 99.093-2.964 19.99z" style="fill:#7b513a"/>
            </g>
            <g transform="matrix(.74914 .093891 .093891 .62947 1063.4 748.6)">
                <path d="m336.33 1002.2 44.294-80.754 2.273-19.541-44.499 80.392z" style="fill:#593f32"/>
            </g>
            <g transform="matrix(.74914 .093891 .093891 .62947 1063.4 736.31)">
                <path d="m336.33 1002.2 44.294-80.754-165.71 21.083-43.539 79.371z" style="fill:#987360"/>
            </g>
            <g transform="matrix(.74914 .093891 .093891 .62947 1079.3 736.57)">
                <path d="m300.85 1007.4 44.294-80.75 10.033-82.745-172.8 93.831-10.996 84.074z" style="fill:#abc837"/>
            </g>
            <g transform="matrix(.74914 .093891 .093891 .62947 1079.3 736.57)">
                <path d="m300.85 1007.4 44.294-80.75 10.033-82.745-42.818 81.01z" style="fill:#bcd35f"/>
            </g>
            <g transform="matrix(.74914 .093891 .093891 .62947 1079.3 685.03)">
                <path d="m300.85 1007.4 44.294-80.75-130.22 15.789-43.539 79.371z" style="fill:#cdde87"/>
            </g>
            <g transform="matrix(1.4277 0 0 1 -360.74 100.91)">
                <path d="m1217.8 1303.4c-7.37 4.54-7.5 16.06-3.9 23.82 1.57 3.39 4.75 7.4 8.93 7.19 4.92-.25 7.86-5.37 8.93-9.55.93-3.65 1.76-7.83 1.13-11.6-.78-4.66-5.06-11.41-10.36-11.64-1.78-.08-3.25.95-4.73 1.78z" style="fill:#808080;stroke-width:.81px;stroke:#000000"/>
            </g>
            <g transform="matrix(1.4277 0 0 1 -430.41 98.182)">
                <path d="m1217.8 1303.4c-7.37 4.54-7.5 16.06-3.9 23.82 1.57 3.39 4.75 7.4 8.93 7.19 4.92-.25 7.86-5.37 8.93-9.55.93-3.65 1.76-7.83 1.13-11.6-.78-4.66-5.06-11.41-10.36-11.64-1.78-.08-3.25.95-4.73 1.78z" style="fill:#808080;stroke-width:.81px;stroke:#000000"/>
            </g>
            <g transform="translate(168.15 98.19)">
                <path d="m1146.6 1317.9c-.05-3.61-2.38.74-1.14 1.36 1.99.99 2.72-1.94 1.7-2.45s-1.51.99-1.51 1.69" style="fill:none;stroke-width:1px;stroke:#000000"/>
            </g>
            <g transform="translate(168.15 98.19)">
                <path d="m1217.5 1321.1c.49-1.92-2.38.03-1.62.79 1.46 1.45 3.26-1.04 1.14-1.75-1.01-.34.5 2.04.41.93" style="fill:none;stroke-width:1px;stroke:#000000"/>
            </g>
            <g transform="translate(168.15 98.19)">
                <path d="m1230.6 1251.4c-.47-2.88-.05 8.64-.05 11.51 0 8.17.36 16.32 0 24.49-.14 3.21.19 6.66-.02 9.87" style="fill:none;stroke-width:1px;stroke:#000000"/>
            </g>
            <g transform="translate(168.15 98.19)">
                <path d="m1255 1208c-.02-.34-.02-1.36-.02-1.02 0 3.61-.17 7.2-.17 10.81 0 9.15.32 18.23.51 27.36.04 2.06-.57 8.82-.6 8.79" style="fill:none;stroke-width:1px;stroke:#000000"/>
            </g>
            <g transform="translate(168.15 98.19)">
                <path d="m1239.3 1301c1.31.51-117.46-2.88-118.16-3.74" style="fill:none;stroke-width:1px;stroke:#000000"/>
            </g>
            <g transform="translate(168.15 98.19)">
                <path d="m1257.5 1253.4c1.94 1.33 9.47-1.34 9.52.74.07 3.22-.27 10.91-.26 11.06.08 2.02-3.94 8.34-5.16 10.26-3.9 6.13-18.47 35.64-19.5 35.64" style="fill:none;stroke-width:1px;stroke:#000000"/>
            </g>
            <g transform="translate(168.15 98.19)">
                <path d="m1265.6 1256.4c-.08-.21-4.95 9.05-6.37 11.18-4.89 7.34-8.12 15.43-12.07 23.33-1.11 2.22-2.16 4.36-3.39 6.52-.29.51-2.55 4.17-1.76 3.39" style="fill:none;stroke-width:1px;stroke:#000000"/>
            </g>
            <g transform="translate(168.15 98.19)">
                <path d="m1119.9 1297.3c.12-.09.46 11.97 0 11.04" style="fill:none;stroke-width:1px;stroke:#000000"/>
            </g>
            <g transform="translate(168.15 98.19)">
                <path d="m1135.7 1271.4c.9.35-.37.9-.94 1.54-1.56 1.76-2.77 3.73-3.8 5.84-2.07 4.28-11.13 17.6-10.84 17.6" style="fill:none;stroke-width:1px;stroke:#000000"/>
            </g>
            <g transform="translate(168.15 98.19)">
                <path d="m1200.6 1311.8c.18-.43-35.45-1.11-37.42-1.44" style="fill:none;stroke-width:1px;stroke:#000000"/>
            </g>
            <g transform="translate(168.15 98.19)">
                <path d="m1130.8 1310.4c-.89-2.03-9.01-.7-10.96-.7" style="fill:none;stroke-width:1px;stroke:#000000"/>
            </g>
            <g transform="translate(168.15 98.19)">
                <path d="m1240.8 1312.7c-2.31-.36-6.6.41-8.84-.15" style="fill:none;stroke-width:1px;stroke:#000000"/>
            </g>
            <g transform="translate(168.15 98.19)">
                <path d="m1253.9 1258.7c-1.72 2.58-4.91 9.17-6.48 11.85-3.93 6.7-7.77 13.7-11.32 20.61-.09.18-2.66 5.04-2.87 5.4-.33.6-2.68 3.71-2.02 3.38" style="fill:none;stroke-width:1px;stroke:#000000"/>
            </g>
            <g transform="translate(168.15 98.19)">
                <path d="m1254.1 1209.8c.16-.27.35-.95.57-.73.44.44-1.19 2.59-1.35 2.87-1.97 3.46-3.84 6.97-5.74 10.47-3.1 5.69-14.25 28.26-14.59 27.58" style="fill:none;stroke-width:1px;stroke:#000000"/>
            </g>
            <g transform="translate(168.15 98.19)">
                <path d="m1162 1202.8c-.34 0-27.9 38.68-23.01 41.58" style="fill:none;stroke-width:1px;stroke:#000000"/>
            </g>
            <g transform="translate(168.15 98.19)">
                <path d="m1252.4 1205.9c2.37-2.38-83.76-3.03-88.02-3.03" style="fill:none;stroke-width:1px;stroke:#000000"/>
            </g>
            <g transform="translate(168.15 98.19)">
                <path d="m1225.7 1250.7c-1.38-.2-89.06-1.04-86.73-3.37" style="fill:none;stroke-width:1px;stroke:#000000"/>
            </g>
            <g transform="translate(168.15 98.19)">
                <path d="m1135.5 1249c1.33-.67 0 36.14 0 45.75" style="fill:none;stroke-width:1px;stroke:#000000"/>
            </g>
            <g transform="translate(218.44)">
                <path d="m1154.5 1327.8c-1.54 1.56.4-9.77-.31-11.18-.25-.51-16.57.89-16.59.64-.05-.97-1.47 9.34-1.47 10.44" style="fill:none;stroke-width:3.66px;stroke:#000000"/>
            </g>
        </g>
        <g transform="translate(879.69 1136.6)">
            <g transform="matrix(.74914 .093891 .093891 .62947 1063.4 748.6)">
                <path d="m336.14 1002.2 44.294-80.754 2.001-18.659-208.08 99.093-2.964 19.99z" style="fill:#7b513a"/>
            </g>
            <g transform="matrix(.74914 .093891 .093891 .62947 1063.4 748.6)">
                <path d="m336.33 1002.2 44.294-80.754 2.273-19.541-44.499 80.392z" style="fill:#593f32"/>
            </g>
            <g transform="matrix(.74914 .093891 .093891 .62947 1063.4 736.31)">
                <path d="m336.33 1002.2 44.294-80.754-165.71 21.083-43.539 79.371z" style="fill:#987360"/>
            </g>
            <g transform="matrix(.74914 .093891 .093891 .62947 1079.3 736.57)">
                <path d="m300.85 1007.4 44.294-80.75 10.033-82.745-172.8 93.831-10.996 84.074z" style="fill:#abc837"/>
            </g>
            <g transform="matrix(.74914 .093891 .093891 .62947 1079.3 736.57)">
                <path d="m300.85 1007.4 44.294-80.75 10.033-82.745-42.818 81.01z" style="fill:#bcd35f"/>
            </g>
            <g transform="matrix(.74914 .093891 .093891 .62947 1079.3 685.03)">
                <path d="m300.85 1007.4 44.294-80.75-130.22 15.789-43.539 79.371z" style="fill:#cdde87"/>
            </g>
            <g transform="matrix(1.4277 0 0 1 -360.74 100.91)">
                <path d="m1217.8 1303.4c-7.37 4.54-7.5 16.06-3.9 23.82 1.57 3.39 4.75 7.4 8.93 7.19 4.92-.25 7.86-5.37 8.93-9.55.93-3.65 1.76-7.83 1.13-11.6-.78-4.66-5.06-11.41-10.36-11.64-1.78-.08-3.25.95-4.73 1.78z" style="fill:#808080;stroke-width:.81px;stroke:#000000"/>
            </g>
            <g transform="matrix(1.4277 0 0 1 -430.41 98.182)">
                <path d="m1217.8 1303.4c-7.37 4.54-7.5 16.06-3.9 23.82 1.57 3.39 4.75 7.4 8.93 7.19 4.92-.25 7.86-5.37 8.93-9.55.93-3.65 1.76-7.83 1.13-11.6-.78-4.66-5.06-11.41-10.36-11.64-1.78-.08-3.25.95-4.73 1.78z" style="fill:#808080;stroke-width:.81px;stroke:#000000"/>
            </g>
            <g transform="translate(168.15 98.19)">
                <path d="m1146.6 1317.9c-.05-3.61-2.38.74-1.14 1.36 1.99.99 2.72-1.94 1.7-2.45s-1.51.99-1.51 1.69" style="fill:none;stroke-width:1px;stroke:#000000"/>
            </g>
            <g transform="translate(168.15 98.19)">
                <path d="m1217.5 1321.1c.49-1.92-2.38.03-1.62.79 1.46 1.45 3.26-1.04 1.14-1.75-1.01-.34.5 2.04.41.93" style="fill:none;stroke-width:1px;stroke:#000000"/>
            </g>
            <g transform="translate(168.15 98.19)">
                <path d="m1230.6 1251.4c-.47-2.88-.05 8.64-.05 11.51 0 8.17.36 16.32 0 24.49-.14 3.21.19 6.66-.02 9.87" style="fill:none;stroke-width:1px;stroke:#000000"/>
            </g>
            <g transform="translate(168.15 98.19)">
                <path d="m1255 1208c-.02-.34-.02-1.36-.02-1.02 0 3.61-.17 7.2-.17 10.81 0 9.15.32 18.23.51 27.36.04 2.06-.57 8.82-.6 8.79" style="fill:none;stroke-width:1px;stroke:#000000"/>
            </g>
            <g transform="translate(168.15 98.19)">
                <path d="m1239.3 1301c1.31.51-117.46-2.88-118.16-3.74" style="fill:none;stroke-width:1px;stroke:#000000"/>
            </g>
            <g transform="translate(168.15 98.19)">
                <path d="m1257.5 1253.4c1.94 1.33 9.47-1.34 9.52.74.07 3.22-.27 10.91-.26 11.06.08 2.02-3.94 8.34-5.16 10.26-3.9 6.13-18.47 35.64-19.5 35.64" style="fill:none;stroke-width:1px;stroke:#000000"/>
            </g>
            <g transform="translate(168.15 98.19)">
                <path d="m1265.6 1256.4c-.08-.21-4.95 9.05-6.37 11.18-4.89 7.34-8.12 15.43-12.07 23.33-1.11 2.22-2.16 4.36-3.39 6.52-.29.51-2.55 4.17-1.76 3.39" style="fill:none;stroke-width:1px;stroke:#000000"/>
            </g>
            <g transform="translate(168.15 98.19)">
                <path d="m1119.9 1297.3c.12-.09.46 11.97 0 11.04" style="fill:none;stroke-width:1px;stroke:#000000"/>
            </g>
            <g transform="translate(168.15 98.19)">
                <path d="m1135.7 1271.4c.9.35-.37.9-.94 1.54-1.56 1.76-2.77 3.73-3.8 5.84-2.07 4.28-11.13 17.6-10.84 17.6" style="fill:none;stroke-width:1px;stroke:#000000"/>
            </g>
            <g transform="translate(168.15 98.19)">
                <path d="m1200.6 1311.8c.18-.43-35.45-1.11-37.42-1.44" style="fill:none;stroke-width:1px;stroke:#000000"/>
            </g>
            <g transform="translate(168.15 98.19)">
                <path d="m1130.8 1310.4c-.89-2.03-9.01-.7-10.96-.7" style="fill:none;stroke-width:1px;stroke:#000000"/>
            </g>
            <g transform="translate(168.15 98.19)">
                <path d="m1240.8 1312.7c-2.31-.36-6.6.41-8.84-.15" style="fill:none;stroke-width:1px;stroke:#000000"/>
            </g>
            <g transform="translate(168.15 98.19)">
                <path d="m1253.9 1258.7c-1.72 2.58-4.91 9.17-6.48 11.85-3.93 6.7-7.77 13.7-11.32 20.61-.09.18-2.66 5.04-2.87 5.4-.33.6-2.68 3.71-2.02 3.38" style="fill:none;stroke-width:1px;stroke:#000000"/>
            </g>
            <g transform="translate(168.15 98.19)">
                <path d="m1254.1 1209.8c.16-.27.35-.95.57-.73.44.44-1.19 2.59-1.35 2.87-1.97 3.46-3.84 6.97-5.74 10.47-3.1 5.69-14.25 28.26-14.59 27.58" style="fill:none;stroke-width:1px;stroke:#000000"/>
            </g>
            <g transform="translate(168.15 98.19)">
                <path d="m1162 1202.8c-.34 0-27.9 38.68-23.01 41.58" style="fill:none;stroke-width:1px;stroke:#000000"/>
            </g>
            <g transform="translate(168.15 98.19)">
                <path d="m1252.4 1205.9c2.37-2.38-83.76-3.03-88.02-3.03" style="fill:none;stroke-width:1px;stroke:#000000"/>
            </g>
            <g transform="translate(168.15 98.19)">
                <path d="m1225.7 1250.7c-1.38-.2-89.06-1.04-86.73-3.37" style="fill:none;stroke-width:1px;stroke:#000000"/>
            </g>
            <g transform="translate(168.15 98.19)">
                <path d="m1135.5 1249c1.33-.67 0 36.14 0 45.75" style="fill:none;stroke-width:1px;stroke:#000000"/>
            </g>
            <g transform="translate(218.44)">
                <path d="m1154.5 1327.8c-1.54 1.56.4-9.77-.31-11.18-.25-.51-16.57.89-16.59.64-.05-.97-1.47 9.34-1.47 10.44" style="fill:none;stroke-width:3.66px;stroke:#000000"/>
            </g>
            <g transform="matrix(.8609 0 0 .97486 -739.97 -1074)">
                <path d="m982.45 2510.2c8.037-3.59 14.072-9.53 19.667-15.98-2.11 10.96-3.007 22.14-2.735 33.54h6.235-13.016" style="fill:none;stroke-width:3.98px;stroke:#000000"/>
            </g>
            <g transform="matrix(.8609 0 0 .97486 -189.59 -1075.3)">
                <path d="m982.45 2510.2c8.037-3.59 14.072-9.53 19.667-15.98-2.11 10.96-3.007 22.14-2.735 33.54h6.235-13.016" style="fill:none;stroke-width:3.98px;stroke:#000000"/>
            </g>
            <g transform="matrix(.90302 0 0 .87446 -778.75 -821.05)">
                <path d="m1009.7 2523.2c-10.334-15.23 8.92-44.94 18.96-25.38 4.33 8.42 3 19.77-2.53 26.04-1.45 1.64-4.69 4.51-7.08 4.81-4.6.58-6.96-1.96-9.35-5.47z" style="fill:none;stroke-width:4.12px;stroke:#000000"/>
            </g>
        </g>
        <g transform="translate(-134.67 1137)">
            <path d="m1269.5 1360.2c-1.02-.45 4.57-3.21 5.38-3.56 3.86-1.66 9.55-.88 11.89 3.02 2.33 3.88-5.01 9.11-7.56 10.81-1.41.94-4.76 1.73-4.76 1.73s1.86-.43 2.81-.43c1.76 0 3.85-.71 5.62 0 4.33 1.73 6.48 6.75 5.62 11.02-1.08 5.42-9.74 10-14.91 7.78-5.73-2.45-7.97-6.35-8.43-12.32" style="fill:none;stroke-width:3.66px;stroke:#000000"/>
        </g>
        <g transform="translate(3.8314)">
            <path d="m1284.2 2503.5c.14-11.07-15.7-13.54-20.53-7.36-7.69 9.85 11.08 24.98 20.53 7.36l-1.93 17.81c-2.56 8.82-12.67 8.62-20.5-2.03" style="fill:none;stroke-width:3.66px;stroke:#000000"/>
        </g>
        <g transform="matrix(.89416 0 0 .99978 183.2 .53868)">
            <path d="m1685.2 2492.9c-13.72 5.06-20.22 12.85-21.52 22.6 2.19 18.31 21.52 12.53 23.15 2.1-.2-10.22-13.79-17.03-23.15-2.1" style="fill:none;stroke-width:3.86px;stroke:#000000"/>
        </g>
        <path d="m1399.9 2492.9c7.24 2.07 15.17 2.26 23.99 0-8.02 14.51-11.82 25.93-12.13 34.79" style="fill:none;stroke-width:3.66px;stroke:#000000"/>
        <path d="m1423.9 2510.3h-18.44" style="fill:none;stroke-width:3.66px;stroke:#000000"/>
        <g transform="translate(680.62 1135.3)">
            <path d="m1137.8 1365.1c-2.31.29-1.4-3.31-.69-4.29 2.19-3.07 13.89-5.82 15.05 1.18 1.61 9.68-19.55 28.04-18.94 28.65.1.1 22.28.92 24.64-.65" style="fill:none;stroke-width:3.66px;stroke:#000000"/>
        </g>
        <path d="m1962.7 2501.1c-2.19 10.64-15.22 8.96-16.56 17.51-1.53 9.83 21.47 11.15 17.6.09-2.76-7.89-17.15-7.3-16.75-16.64.45-10.63 16.15-10.55 15.71-.96z" style="fill:none;stroke-width:3.66px;stroke:#000000"/>
        <g transform="matrix(.88216 0 0 .84866 250.19 379.15)">
            <path d="m2101.6 2491-21.66 1.91-1.51 17.34c8.82-5.02 16.16-7.17 20.5-1.16 6.9 9.57.69 14.37-.94 15.84-6.2 5.6-12.94 3.89-19.54.1" style="fill:none;stroke-width:4.23px;stroke:#000000"/>
        </g>
        <g transform="translate(1051.1 1236.5)">
            <path d="m1196 1277.9c-14.07-.34-30.88 3.76-27.8-.18 5.75-7.36 18.11-21.05 18.17-21.05.81 0-2.61 36.7-2.61 36.7" style="fill:none;stroke-width:3.66px;stroke:#000000"/>
        </g>
    </g>
</svg>
