<?xml version="1.0" encoding="UTF-8" standalone="no"?>
<!DOCTYPE svg PUBLIC "-//W3C//DTD SVG 1.1//EN" "http://www.w3.org/Graphics/SVG/1.1/DTD/svg11.dtd">
<svg width="100%" height="100%" viewBox="0 0 706 795" version="1.1" xmlns="http://www.w3.org/2000/svg" xmlns:xlink="http://www.w3.org/1999/xlink" xml:space="preserve" xmlns:serif="http://www.serif.com/" style="fill-rule:evenodd;clip-rule:evenodd;stroke-linejoin:round;stroke-miterlimit:2;">
    <g transform="matrix(1,0,0,1,-1703.52,-3947.82)">
        <g transform="matrix(1,0,0,1,-55.3519,18.8081)">
            <g transform="matrix(-0.9333,-0.359098,0.359098,-0.9333,2460.64,8636.04)">
                <g>
                    <path d="M1899.36,3858.07C1888.16,3857.7 1878.93,3876.5 1874.85,3884.66C1858.52,3917.32 1854.71,3949.28 1882.06,3976.64C1885.62,3980.19 1889.1,3987.2 1893.27,3989.28C1900.55,3992.92 1910.62,3988.91 1917.23,3993.32C1920.04,3995.19 1926.18,3993.45 1929.41,3993.77C1945.78,3995.41 1964.04,3994.95 1980.36,3993.32C1996.4,3991.72 2012.94,3993.37 2029.06,3992.42C2072.69,3989.85 2117.33,3989.7 2160.72,3993.32C2174.7,3994.49 2218.22,4001.79 2228.8,3993.32C2235.17,3988.23 2239.43,3978.32 2242.78,3970.78C2244.98,3965.83 2248.21,3958.95 2249.09,3953.64C2250.22,3946.89 2252.98,3939.07 2251.8,3932C2250.2,3922.38 2250.94,3904.28 2246.17,3891.26C2239.7,3873.61 2226.42,3861.22 2214.37,3853.99C2200.17,3845.47 2164.8,3847.45 2148.54,3849.49C2130.88,3851.69 2113.8,3850.39 2096.24,3850.39C2093.96,3850.39 2081.16,3852 2079.56,3850.39C2070.09,3840.92 2056.06,3828.22 2043.03,3823.33C2041.36,3822.7 2035.78,3817.92 2034.47,3817.92C2034.38,3817.92 2038.22,3827.35 2038.53,3827.84C2041.99,3833.39 2045.09,3838.49 2048.44,3844.07C2048.55,3844.26 2054.22,3854.36 2051.6,3851.74C2044.06,3844.2 2022.26,3851.67 2013.27,3850.39C1979.29,3845.53 1934.17,3858.07 1899.36,3858.07Z" style="fill:rgb(172,87,52);"/>
                    <path d="M2151.96,3843.08C2151.27,3842.68 2149.82,3844.26 2148.64,3843.66C2142.84,3840.76 2139.49,3836.71 2136.19,3831.22C2131.03,3822.6 2135.02,3794.32 2148.27,3811.97C2151.89,3816.81 2152.45,3821.87 2154.3,3827.44C2156.16,3833 2152.79,3837.93 2152.79,3842.91" style="fill:rgb(78,178,107);"/>
                    <path d="M2132.26,3841.74C2122.03,3843.59 2115.36,3838.8 2112.8,3828.57C2112.01,3825.39 2111.15,3820.36 2109.79,3817.63C2109.5,3817.06 2109.41,3815.75 2109.41,3815.75C2109.41,3815.75 2113.16,3816.5 2115.07,3816.5C2119.18,3816.5 2122.59,3816.11 2126.01,3818.39C2128.87,3820.3 2132.93,3835.61 2130.53,3838.01" style="fill:rgb(78,178,107);"/>
                    <path d="M2081.33,3840.34C2078.88,3835.29 2083.97,3819.95 2086.77,3815.75C2087.62,3814.48 2095.34,3810.3 2095.45,3810.47C2100.66,3818.27 2098.02,3832.19 2092.81,3839.14C2092.07,3840.12 2085.86,3842.08 2084.51,3841.4C2083.9,3841.1 2081.87,3838.52 2081.87,3839.14" style="fill:rgb(78,178,107);"/>
                    <path d="M2065.37,3826.05C2062.72,3812.58 2067.77,3810.68 2073.95,3801.41C2074.68,3800.31 2076.41,3794.53 2076.59,3794.62C2080.23,3796.44 2081.46,3804.27 2082.24,3808.2C2083.68,3815.37 2082.1,3824.59 2075.45,3828.57C2071.44,3830.98 2067.91,3824.98 2067.91,3826.69" style="fill:rgb(78,178,107);"/>
                    <path d="M2051.51,3809.37C2049.93,3809.08 2046.54,3809.8 2045.27,3808.96C2033.88,3801.36 2041.24,3785.13 2046.4,3776.51C2046.98,3775.56 2046.59,3772.18 2047.16,3771.61C2048.55,3770.22 2050.05,3774.29 2051.69,3775.38C2054.33,3777.14 2062.91,3788.13 2063.38,3790.47C2065.41,3800.59 2058.31,3802.34 2053.2,3807.45" style="fill:rgb(78,178,107);"/>
                    <path d="M2029.7,3832.49C2028.63,3830.41 2029.68,3827.25 2028.3,3825.18C2023.91,3818.6 2015.06,3816.31 2008.3,3814.62C2005.51,3813.92 2003.13,3814.62 2000.38,3814.62C1999.18,3814.62 1996.98,3812.29 1996.98,3813.48C1996.98,3815.56 2003.89,3820.53 2005.28,3822.16C2010.05,3827.72 2013.83,3839.08 2024.15,3836.5C2025.81,3836.08 2028.57,3833.86 2029.43,3833.86" style="fill:rgb(78,178,107);"/>
                    <path d="M1895.98,3861.03C1885.91,3860.22 1874.89,3881.97 1871.94,3889.84C1870.23,3894.41 1866.56,3899.03 1864.6,3902.95C1853.7,3924.76 1860.61,3955.13 1874.57,3973.75C1879.9,3980.86 1889.84,3993.93 1900.26,3992.63C1942.03,3987.41 1960.53,3943.87 1949.04,3905.57C1945.17,3892.7 1933.23,3880.31 1924.91,3869.91C1921.71,3865.91 1895.02,3852.95 1895.02,3863.09" style="fill:rgb(235,115,69);"/>
                    <g>
                        <path d="M2079.2,3848.35C2063.94,3833.26 2054.85,3828.81 2035.41,3814.23C2034.65,3813.66 2033.98,3813.63 2033.61,3813.64C2032.82,3813.64 2032.2,3813.93 2031.7,3814.37C2031.24,3814.77 2030.78,3815.39 2030.72,3816.38C2030.71,3816.53 2030.74,3817.49 2031.53,3818.82C2033.4,3822 2041.28,3834.18 2046.17,3842.77C2047.04,3844.29 2047.87,3845.94 2048.52,3847.28C2017.59,3847.53 1938.02,3850.51 1927.45,3851.12C1927.01,3851.15 1926.66,3851.18 1926.4,3851.2C1877.47,3849.15 1855.03,3898.57 1859.5,3939.95C1862.54,3968.03 1877.93,3992.08 1904.98,3994.31C1930.92,3996.44 2149.11,3997.29 2211.11,3998.14C2237.22,3998.5 2252.18,3973.93 2255.27,3943.93C2257.98,3917.71 2251.69,3887.55 2236.77,3867.8C2226.53,3854.24 2212.28,3845.5 2194.14,3845.87C2172.79,3846.3 2095.94,3848.15 2080.61,3848.34C2080.09,3848.35 2079.6,3848.35 2079.2,3848.35ZM1926.54,3857.05C1881.22,3854.88 1861.17,3901.11 1865.3,3939.33C1868.02,3964.48 1881.23,3986.5 1905.46,3988.49C1931.37,3990.62 2149.27,3991.46 2211.19,3992.31C2234.4,3992.62 2246.72,3970.01 2249.47,3943.33C2252.03,3918.54 2246.22,3889.99 2232.12,3871.31C2223.01,3859.25 2210.39,3851.38 2194.26,3851.7C2172.9,3852.13 2096.02,3853.98 2080.69,3854.18C2078.98,3854.2 2077.96,3854.19 2077.75,3854.17C2076.57,3854.06 2076.05,3853.46 2075.92,3853.32C2063.93,3841.33 2055.85,3836.06 2043.83,3827.56C2046.37,3831.65 2049.09,3836.11 2051.24,3839.88C2053.55,3843.93 2055.18,3847.28 2055.5,3848.78C2055.87,3850.46 2055.26,3851.54 2054.76,3852.08C2054.2,3852.69 2053.45,3853.09 2052.43,3853.09C2025.03,3853.09 1938.81,3856.3 1927.79,3856.94L1927.71,3856.95C1927.46,3857.02 1927.19,3857.06 1926.92,3857.06C1926.78,3857.06 1926.66,3857.06 1926.54,3857.05Z" style="fill:rgb(26,23,25);"/>
                        <path d="M1904.42,3865.8C1904.59,3865.71 1905.14,3865.4 1905.6,3865.27C1908.43,3864.43 1913.32,3864.39 1915.07,3864.39C1919.79,3864.39 1924.75,3867.24 1929.51,3871.88C1937,3879.19 1943.92,3890.95 1948.52,3904.01C1953.35,3917.71 1955.63,3932.85 1953.22,3945.81C1951.64,3954.27 1948.07,3961.79 1941.84,3967.29C1935.12,3973.22 1925.35,3976.79 1911.81,3976.79C1911.01,3976.79 1910.35,3977.44 1910.35,3978.25C1910.35,3979.05 1911.01,3979.71 1911.81,3979.71C1926.23,3979.71 1936.61,3975.8 1943.77,3969.48C1950.48,3963.54 1954.39,3955.46 1956.09,3946.34C1958.58,3932.92 1956.28,3917.23 1951.27,3903.04C1946.51,3889.52 1939.3,3877.37 1931.55,3869.8C1926.14,3864.52 1920.43,3861.47 1915.07,3861.47C1913.16,3861.47 1907.86,3861.56 1904.78,3862.47C1903.77,3862.77 1902.97,3863.17 1902.45,3863.63C1901.88,3864.14 1901.59,3864.74 1901.54,3865.39C1901.48,3866.19 1902.09,3866.89 1902.89,3866.95C1903.63,3867.01 1904.28,3866.5 1904.42,3865.8Z" style="fill:rgb(26,23,25);"/>
                        <path d="M1909.37,3900.64C1902.68,3900.56 1898.97,3904.66 1897.38,3910.46C1895.18,3918.48 1897.26,3929.89 1900.72,3936.51C1901.97,3938.91 1903.42,3940.69 1904.88,3941.61C1906.13,3942.39 1907.42,3942.61 1908.67,3942.24C1909.79,3941.9 1910.95,3941.05 1911.99,3939.46C1913.27,3937.52 1914.47,3934.33 1915.41,3929.58C1915.57,3928.79 1915.06,3928.02 1914.27,3927.86C1913.48,3927.7 1912.71,3928.22 1912.56,3929.01C1911.7,3933.26 1910.69,3936.12 1909.55,3937.86C1908.99,3938.72 1908.44,3939.26 1907.84,3939.44C1907.2,3939.63 1906.58,3939.31 1905.95,3938.79C1905.01,3938 1904.12,3936.73 1903.31,3935.16C1900.13,3929.08 1898.17,3918.6 1900.19,3911.23C1901.41,3906.77 1904.18,3903.49 1909.33,3903.56C1910.13,3903.57 1910.8,3902.93 1910.81,3902.12C1910.82,3901.32 1910.17,3900.66 1909.37,3900.64Z" style="fill:rgb(26,23,25);"/>
                        <path d="M1909.03,3889.53C1903.83,3884.53 1899.17,3882.95 1895.2,3883.66C1891.21,3884.38 1887.78,3887.46 1885.07,3892.22C1880.07,3901.04 1877.44,3915.75 1877.43,3930.07C1877.42,3942.11 1879.27,3953.87 1883.01,3961.6C1885.71,3967.18 1889.44,3970.7 1894.03,3971.2C1898.77,3971.72 1904.69,3968.93 1911.6,3961.04C1917.36,3954.46 1919.57,3946.62 1921.91,3938.4C1922.14,3937.62 1921.69,3936.81 1920.91,3936.59C1920.14,3936.37 1919.33,3936.82 1919.11,3937.59C1916.88,3945.39 1914.87,3952.87 1909.41,3959.12C1903.4,3965.98 1898.47,3968.75 1894.34,3968.3C1890.64,3967.9 1887.82,3964.84 1885.64,3960.33C1882.05,3952.91 1880.34,3941.62 1880.35,3930.07C1880.35,3916.3 1882.8,3902.14 1887.61,3893.66C1889.81,3889.78 1892.47,3887.12 1895.72,3886.53C1898.99,3885.94 1902.72,3887.51 1907.01,3891.64C1907.59,3892.19 1908.51,3892.18 1909.07,3891.6C1909.63,3891.02 1909.61,3890.09 1909.03,3889.53Z" style="fill:rgb(26,23,25);"/>
                        <path d="M1904.71,3882.8C1904.65,3882.24 1904.66,3881.84 1904.91,3881.6C1905.19,3881.33 1905.63,3881.31 1906.14,3881.32C1906.85,3881.32 1907.67,3881.47 1908.55,3881.72C1913.3,3883.01 1919.64,3886.84 1920.5,3887.82C1923.87,3891.68 1926.29,3896.6 1927.83,3901.45C1935.32,3925.12 1928.64,3945.69 1918.12,3966.72C1917.76,3967.44 1918.05,3968.31 1918.77,3968.67C1919.49,3969.03 1920.37,3968.74 1920.73,3968.02C1931.59,3946.29 1938.35,3925.03 1930.61,3900.57C1928.96,3895.35 1926.33,3890.06 1922.7,3885.9C1922.23,3885.37 1920.41,3884.06 1918.01,3882.71C1914.54,3880.75 1909.85,3878.64 1906.68,3878.42C1904.81,3878.29 1903.36,3878.81 1902.55,3879.88C1901.99,3880.61 1901.66,3881.64 1901.8,3883.09C1901.88,3883.89 1902.6,3884.47 1903.4,3884.39C1904.2,3884.32 1904.79,3883.6 1904.71,3882.8Z" style="fill:rgb(26,23,25);"/>
                        <path d="M1869.88,3930.18C1880.65,3931.82 1889.84,3930.03 1900.2,3927.44C1900.98,3927.25 1901.45,3926.45 1901.26,3925.67C1901.06,3924.89 1900.27,3924.42 1899.49,3924.61C1889.53,3927.1 1880.68,3928.87 1870.32,3927.3C1869.53,3927.18 1868.78,3927.73 1868.66,3928.52C1868.54,3929.32 1869.09,3930.06 1869.88,3930.18Z" style="fill:rgb(26,23,25);"/>
                        <path d="M1923.51,3918.56C1923.63,3918.64 1923.79,3918.74 1923.91,3918.83C1924.64,3919.35 1925.71,3920.11 1927.59,3920.85C1928.33,3921.15 1929.18,3920.79 1929.48,3920.04C1929.78,3919.29 1929.42,3918.45 1928.67,3918.15C1926.12,3917.12 1925.21,3916.09 1924.5,3915.77C1923.58,3915.37 1922.75,3915.32 1921.34,3916.58C1920.74,3917.11 1920.68,3918.03 1921.22,3918.64C1921.75,3919.24 1922.67,3919.29 1923.28,3918.75C1923.35,3918.69 1923.44,3918.62 1923.51,3918.56Z" style="fill:rgb(26,23,25);"/>
                        <path d="M2047.14,3849.15C2049.64,3851.47 2053.93,3855.25 2058.09,3857.91C2061.08,3859.82 2064.05,3861.12 2066.3,3861.12C2067.1,3861.12 2067.75,3860.47 2067.75,3859.66C2067.75,3858.86 2067.1,3858.2 2066.3,3858.2C2064.46,3858.2 2062.1,3857.01 2059.66,3855.45C2055.66,3852.89 2051.53,3849.24 2049.12,3847.01C2048.53,3846.46 2047.6,3846.5 2047.06,3847.09C2046.51,3847.68 2046.55,3848.61 2047.14,3849.15Z" style="fill:rgb(26,23,25);"/>
                        <path d="M2128.81,3832.44L2128.81,3832.43L2128.81,3832.44C2128.27,3831.52 2127.4,3831.5 2127.38,3831.5C2127.25,3831.51 2125.53,3831.95 2126.08,3833.47C2126.1,3833.51 2126.21,3833.77 2126.43,3834.28C2126.47,3834.37 2126.53,3834.46 2126.59,3834.54C2127.96,3837.46 2132.06,3846.17 2133.62,3848.51C2134.07,3849.18 2134.97,3849.36 2135.64,3848.91C2136.32,3848.46 2136.5,3847.56 2136.05,3846.89C2134.38,3844.39 2129.75,3834.41 2128.9,3832.62C2128.87,3832.55 2128.84,3832.5 2128.81,3832.44Z" style="fill:rgb(26,23,25);"/>
                        <path d="M2026.04,3829.07C2025.93,3828.37 2025.33,3827.83 2024.59,3827.83C2023.79,3827.83 2023.13,3828.48 2023.13,3829.28C2023.13,3830.53 2023.82,3831.42 2025.18,3831.88C2026.31,3832.26 2028.12,3832.28 2030.16,3832.09C2032.84,3831.84 2035.96,3831.27 2038.14,3831.11C2038.73,3831.06 2039.44,3831.1 2039.71,3831.12C2040.12,3831.53 2040.76,3831.67 2041.33,3831.42C2042.06,3831.09 2042.39,3830.23 2042.07,3829.49C2041.82,3828.92 2041.19,3828.36 2040.05,3828.21C2038.12,3827.95 2033.6,3828.84 2029.89,3829.18C2029.06,3829.26 2028.26,3829.31 2027.56,3829.3C2027.14,3829.29 2026.75,3829.26 2026.41,3829.19C2026.29,3829.16 2026.14,3829.11 2026.04,3829.07Z" style="fill:rgb(26,23,25);"/>
                        <path d="M2053.63,3825.02C2053.55,3824.76 2053.38,3824.17 2053.28,3823.61C2052.23,3818.14 2051.31,3804.13 2051.31,3801.65C2051.31,3800.85 2050.66,3800.2 2049.86,3800.2C2049.05,3800.2 2048.4,3800.85 2048.4,3801.65C2048.4,3804.2 2049.34,3818.56 2050.41,3824.16C2050.7,3825.64 2051.1,3826.62 2051.39,3826.96C2051.81,3827.46 2052.3,3827.58 2052.73,3827.56C2053.53,3827.52 2054.15,3826.84 2054.11,3826.03C2054.09,3825.63 2053.91,3825.27 2053.63,3825.02Z" style="fill:rgb(26,23,25);"/>
                        <path d="M2065.63,3836.21L2065.66,3836.07C2066.08,3833.89 2068.68,3822.72 2068.68,3819.81C2068.68,3819.01 2068.03,3818.35 2067.22,3818.35C2066.42,3818.35 2065.76,3819.01 2065.76,3819.81C2065.76,3822.62 2063.2,3833.41 2062.8,3835.51C2062.67,3836.16 2062.77,3836.55 2062.79,3836.61C2062.93,3837.05 2063.2,3837.27 2063.42,3837.4C2063.76,3837.6 2064.13,3837.67 2064.55,3837.56C2065.18,3837.39 2065.61,3836.83 2065.63,3836.21ZM2064.84,3834.85C2064.53,3834.69 2064.18,3834.64 2063.8,3834.74C2064.17,3834.65 2064.53,3834.7 2064.84,3834.85ZM2064.86,3834.86L2064.85,3834.86L2064.88,3834.87L2064.86,3834.86ZM2065.01,3834.95L2064.99,3834.95L2065.02,3834.96L2065.01,3834.95ZM2065.47,3835.48C2065.35,3835.24 2065.2,3835.09 2065.05,3834.98C2065.22,3835.11 2065.37,3835.28 2065.47,3835.48Z" style="fill:rgb(26,23,25);"/>
                        <path d="M2076.29,3847.1C2078.8,3844 2080.47,3840.2 2083.25,3837.42C2083.82,3836.85 2083.82,3835.93 2083.25,3835.36C2082.68,3834.79 2081.76,3834.79 2081.19,3835.36C2078.34,3838.21 2076.6,3842.09 2074.03,3845.26C2073.52,3845.88 2073.62,3846.8 2074.24,3847.31C2074.87,3847.82 2075.79,3847.72 2076.29,3847.1Z" style="fill:rgb(26,23,25);"/>
                        <path d="M2052.94,3812.56C2053.19,3812.58 2053.47,3812.59 2053.8,3812.59C2054.58,3812.59 2055.22,3811.97 2055.26,3811.2C2055.63,3811.05 2055.96,3810.9 2056.13,3810.8C2060.35,3808.26 2063.51,3802.78 2064.69,3798.06C2065.2,3796.01 2065.06,3793.2 2064.35,3790.12C2063.34,3785.73 2061.18,3780.75 2058.4,3776.73C2055.12,3771.97 2050.9,3768.62 2046.7,3768.62C2046.49,3768.62 2045.31,3768.76 2045.22,3770.06C2045.2,3770.43 2045.25,3772.31 2045.26,3772.84C2043.07,3777.22 2039.93,3783.17 2038.21,3789.09C2036.98,3793.32 2036.47,3797.54 2037.39,3801.22C2037.82,3802.93 2039.09,3804.65 2040.78,3806.22C2043.03,3808.32 2046.01,3810.19 2048.13,3811.55C2049.03,3812.13 2049.99,3812.84 2050.22,3813C2050.5,3813.55 2051.12,3813.87 2051.76,3813.76C2052.38,3813.65 2052.85,3813.15 2052.94,3812.56ZM2051.12,3810.03C2051.24,3809.85 2051.42,3809.67 2051.68,3809.51C2052.22,3809.16 2054.05,3808.65 2054.63,3808.3C2058.24,3806.13 2060.85,3801.39 2061.86,3797.35C2062.28,3795.66 2062.1,3793.33 2061.51,3790.78C2060.57,3786.72 2058.58,3782.11 2056,3778.38C2053.72,3775.09 2051.04,3772.43 2048.18,3771.72C2048.19,3772.18 2048.19,3772.64 2048.19,3772.91C2048.18,3773.43 2048.06,3773.77 2048,3773.89C2045.86,3778.16 2042.72,3784.05 2041.01,3789.91C2039.93,3793.61 2039.41,3797.29 2040.22,3800.51C2040.53,3801.76 2041.54,3802.95 2042.77,3804.09C2044.89,3806.06 2047.7,3807.81 2049.71,3809.1C2050.23,3809.43 2050.71,3809.75 2051.12,3810.03Z" style="fill:rgb(26,23,25);"/>
                        <path d="M2064.92,3827.95C2064.85,3828.58 2065.29,3829.16 2066.71,3829.16L2066.71,3829.16L2066.73,3829.16L2066.8,3829.16L2067.22,3829.16L2067.28,3829.16C2068.54,3829.16 2071.39,3829.15 2071.41,3829.14C2075.35,3828.49 2080.58,3824.85 2082.68,3821.35C2085.76,3816.23 2085.3,3811.17 2083.74,3806.27C2082.31,3801.79 2079.92,3797.47 2078.9,3793.41C2078.68,3792.55 2078.06,3790.88 2078.06,3790.88C2077.8,3790.18 2077.05,3789.79 2076.32,3789.98C2075.6,3790.17 2075.14,3790.88 2075.25,3791.61C2075.25,3791.61 2075.74,3794.39 2075.31,3795.67C2073.76,3800.31 2070.88,3803.24 2068.42,3806.41C2065.68,3809.94 2063.39,3813.71 2063.39,3819.81C2063.39,3820.87 2063.18,3824.36 2063.73,3826.16C2063.99,3827.03 2064.4,3827.62 2064.92,3827.95ZM2071.04,3826.25C2074.26,3825.66 2078.47,3822.7 2080.18,3819.85C2082.77,3815.54 2082.27,3811.28 2080.96,3807.16C2079.99,3804.11 2078.58,3801.13 2077.45,3798.25C2075.72,3802.33 2073.07,3805.19 2070.72,3808.2C2068.34,3811.26 2066.31,3814.51 2066.31,3819.81C2066.31,3820.5 2066.19,3822.32 2066.3,3823.9C2066.34,3824.37 2066.47,3824.98 2066.55,3825.32C2067.04,3825.42 2067.46,3825.76 2067.64,3826.25L2068.64,3826.25L2071.04,3826.25Z" style="fill:rgb(26,23,25);"/>
                        <path d="M2091.47,3809.94C2086.75,3811.73 2083.84,3815.74 2082.07,3820.6C2079.75,3827.02 2079.45,3834.95 2079.23,3840.59C2078.74,3840.83 2078.39,3841.33 2078.39,3841.91C2078.39,3842.63 2078.91,3843.23 2079.59,3843.35C2079.84,3843.6 2080.18,3843.76 2080.56,3843.78C2081.02,3843.8 2081.44,3843.6 2081.72,3843.28C2089.45,3842.52 2095.31,3837.1 2098.03,3830.38C2100.96,3823.13 2100.2,3814.42 2094.3,3808.52C2093.9,3808.12 2093.51,3808.04 2093.21,3808.03C2092.73,3808.01 2092.26,3808.18 2091.9,3808.68C2091.8,3808.83 2091.69,3809.03 2091.62,3809.29C2091.58,3809.42 2091.52,3809.71 2091.47,3809.94ZM2082.16,3840.29C2088.4,3839.38 2093.09,3834.82 2095.33,3829.29C2097.59,3823.7 2097.36,3817.07 2093.59,3812.12C2093.4,3812.31 2093.18,3812.43 2092.94,3812.51C2088.77,3813.9 2086.33,3817.41 2084.82,3821.6C2082.66,3827.57 2082.36,3834.91 2082.16,3840.29Z" style="fill:rgb(26,23,25);"/>
                        <path d="M2030.88,3828.34C2030.18,3822.71 2026.78,3818.31 2022.14,3815.34C2015.36,3811 2005.93,3809.76 1998.87,3812.11C1997.29,3812.64 1994.13,3813.69 1994.13,3813.69C1993.6,3813.87 1993.22,3814.33 1993.15,3814.89C1993.08,3815.44 1993.33,3815.99 1993.8,3816.29C1993.8,3816.29 1998.93,3819.61 2000.45,3822.14C2003.49,3827.2 2006.04,3830.89 2008.42,3833.47C2010.99,3836.26 2013.4,3837.79 2015.93,3838.4C2018.46,3839.01 2021.15,3838.7 2024.32,3837.63C2027.23,3836.65 2030.6,3835.02 2034.72,3832.96C2035.44,3832.6 2035.73,3831.72 2035.37,3831C2035.01,3830.28 2034.13,3829.99 2033.41,3830.35C2029.44,3832.33 2026.2,3833.92 2023.39,3834.87C2020.82,3835.73 2018.66,3836.06 2016.61,3835.56C2014.56,3835.07 2012.65,3833.75 2010.57,3831.49C2008.29,3829.03 2005.86,3825.48 2002.95,3820.64C2001.94,3818.96 1999.57,3816.95 1997.75,3815.56C1997.75,3815.56 1999.79,3814.88 1999.79,3814.88C2005.05,3813.13 2011.77,3813.64 2017.37,3816.09C2022.83,3818.48 2027.25,3822.74 2027.98,3828.7C2028.08,3829.49 2028.81,3830.06 2029.61,3829.96C2030.41,3829.86 2030.98,3829.14 2030.88,3828.34Z" style="fill:rgb(26,23,25);"/>
                        <path d="M2122.78,3841.27C2122.63,3841.21 2122.48,3841.07 2122.28,3840.9C2121.69,3840.39 2121.01,3839.6 2120.27,3838.63C2117.16,3834.53 2113.2,3827.26 2111.22,3821.75C2110.53,3819.85 2110.08,3818.17 2110.03,3816.95C2110.02,3816.7 2110.03,3816.49 2110.06,3816.29C2110.07,3816.22 2110.11,3816.12 2110.12,3816.08C2110.48,3815.74 2111.01,3815.65 2111.62,3815.64C2112.54,3815.64 2113.61,3815.88 2114.77,3816.26C2120.66,3818.23 2128.52,3823.99 2129.95,3826.15C2130.45,3826.89 2130.64,3827.88 2130.74,3828.97C2130.9,3830.94 2130.68,3833.2 2130.57,3835.19C2130.49,3836.69 2130.48,3838.06 2130.66,3839.11C2130.84,3840.09 2131.2,3840.86 2131.71,3841.37C2132.28,3841.94 2133.21,3841.94 2133.78,3841.37C2134.34,3840.8 2134.34,3839.87 2133.78,3839.3C2133.55,3839.08 2133.53,3838.68 2133.48,3838.2C2133.4,3837.39 2133.43,3836.41 2133.49,3835.35C2133.6,3833.22 2133.82,3830.82 2133.64,3828.72C2133.5,3827.09 2133.12,3825.63 2132.38,3824.53C2130.79,3822.15 2122.2,3815.67 2115.69,3813.5C2113.86,3812.89 2112.18,3812.61 2110.82,3812.77C2109.68,3812.91 2108.74,3813.33 2108.03,3814.04C2107.54,3814.53 2107.2,3815.27 2107.13,3816.28C2107.02,3817.77 2107.52,3820.07 2108.47,3822.73C2110.55,3828.5 2114.69,3836.11 2117.94,3840.39C2118.84,3841.56 2119.67,3842.5 2120.38,3843.11C2121.03,3843.68 2121.64,3844 2122.13,3844.12C2122.5,3844.21 2124.97,3844.14 2127.14,3844.15C2127.91,3844.15 2128.88,3844.23 2129.31,3844.27C2129.45,3844.39 2129.62,3844.48 2129.8,3844.53C2130.57,3844.78 2131.39,3844.35 2131.63,3843.58C2131.81,3843 2131.7,3842.46 2131.24,3841.99C2131.03,3841.78 2130.56,3841.49 2129.81,3841.37C2128.51,3841.17 2125.66,3841.25 2123.88,3841.27C2123.42,3841.28 2122.92,3841.27 2122.78,3841.27ZM2128.83,3842.78L2128.85,3842.71C2128.84,3842.73 2128.83,3842.76 2128.83,3842.78ZM2128.81,3842.85L2128.82,3842.79L2128.81,3842.84L2128.81,3842.85ZM2128.8,3842.92L2128.81,3842.86L2128.8,3842.91L2128.8,3842.92ZM2128.79,3842.98L2128.79,3842.95L2128.79,3842.97L2128.79,3842.98Z" style="fill:rgb(26,23,25);"/>
                        <path d="M2157.19,3852.03C2156.35,3850.32 2154.43,3847.6 2153.02,3845.02C2152.23,3843.57 2151.57,3842.19 2151.57,3841.12C2151.57,3840.32 2150.91,3839.67 2150.11,3839.67C2149.31,3839.67 2148.65,3840.32 2148.65,3841.12C2148.65,3842.56 2149.4,3844.46 2150.46,3846.42C2151.85,3848.96 2153.75,3851.63 2154.57,3853.31C2154.92,3854.03 2155.79,3854.33 2156.52,3853.98C2157.24,3853.62 2157.54,3852.75 2157.19,3852.03Z" style="fill:rgb(26,23,25);"/>
                        <path d="M2153.57,3843.67C2153.65,3843.58 2153.72,3843.47 2153.78,3843.36C2156.89,3837.14 2156.5,3824.66 2151.95,3815.67C2148.81,3809.45 2143.73,3804.93 2136.69,3804.93C2136.37,3804.93 2135.32,3805.11 2135.19,3806.38C2135.12,3807.06 2135.28,3810.99 2135.3,3811.44C2132.1,3818.06 2132.75,3829.94 2137.31,3837.79C2140.53,3843.33 2145.61,3846.88 2152.47,3845.62C2153.26,3845.48 2153.78,3844.72 2153.64,3843.92C2153.62,3843.84 2153.6,3843.75 2153.57,3843.67ZM2151.03,3842.89C2151,3842.61 2151.04,3842.32 2151.17,3842.05C2153.99,3836.42 2153.47,3825.12 2149.35,3816.99C2146.94,3812.23 2143.27,3808.53 2138.16,3807.93C2138.2,3809.01 2138.26,3810.49 2138.24,3811.27C2138.22,3811.91 2138.1,3812.37 2137.99,3812.57C2135.04,3818.47 2135.71,3829.23 2139.83,3836.32C2142.27,3840.53 2145.99,3843.43 2151.03,3842.89Z" style="fill:rgb(26,23,25);"/>
                        <path d="M2014.3,3822.87C2014.38,3822.88 2014.52,3822.89 2014.61,3822.91C2014.85,3822.97 2015.1,3823.07 2015.36,3823.19C2016.39,3823.67 2017.47,3824.45 2018.26,3824.97C2018.93,3825.42 2019.83,3825.24 2020.28,3824.57C2020.73,3823.9 2020.55,3822.99 2019.88,3822.54C2018.73,3821.78 2017.02,3820.59 2015.59,3820.16C2014.46,3819.81 2013.43,3819.9 2012.66,3820.42C2011.94,3820.89 2011.31,3821.82 2011.23,3823.55C2011.19,3824.35 2011.82,3825.03 2012.62,3825.07C2013.42,3825.11 2014.11,3824.48 2014.14,3823.68C2014.16,3823.37 2014.26,3823.01 2014.3,3822.87Z" style="fill:rgb(26,23,25);"/>
                        <path d="M2018.75,3831.95C2019.36,3831.82 2019.97,3831.64 2020.51,3831.38C2021.23,3831.02 2021.52,3830.14 2021.16,3829.42C2020.8,3828.7 2019.92,3828.41 2019.21,3828.77C2018.62,3829.06 2017.87,3829.16 2017.28,3829.25C2016.63,3829.35 2016.1,3829.46 2015.8,3829.59C2015.04,3829.92 2014.78,3830.48 2014.74,3830.98C2014.71,3831.33 2014.77,3831.76 2015.16,3832.22C2015.35,3832.46 2015.79,3832.82 2016.61,3833.26C2017.31,3833.64 2018.2,3833.37 2018.58,3832.66C2018.7,3832.44 2018.76,3832.19 2018.75,3831.95Z" style="fill:rgb(26,23,25);"/>
                        <path d="M2048.06,3795.47C2048.13,3795.36 2048.18,3795.24 2048.21,3795.1C2048.4,3794.32 2047.91,3793.53 2047.13,3793.34C2046.05,3793.08 2045.4,3793.26 2045.09,3793.43C2044.76,3793.62 2044.54,3793.87 2044.4,3794.16C2044.24,3794.49 2044.17,3794.91 2044.31,3795.4C2044.38,3795.64 2044.54,3795.96 2044.8,3796.3C2045.14,3796.75 2045.74,3797.34 2046.48,3797.97C2048.68,3799.88 2052.24,3802.37 2052.99,3802.87C2053.66,3803.31 2054.57,3803.13 2055.01,3802.46C2055.46,3801.79 2055.28,3800.89 2054.61,3800.44C2053.89,3799.96 2050.49,3797.59 2048.38,3795.77C2048.28,3795.68 2048.17,3795.58 2048.06,3795.47Z" style="fill:rgb(26,23,25);"/>
                        <path d="M2053.94,3785.28C2054.05,3785.12 2054.14,3784.95 2054.18,3784.75C2054.37,3783.97 2053.88,3783.18 2053.1,3782.99C2052.56,3782.87 2051.55,3782.96 2051.15,3784.28C2050.57,3786.2 2050.76,3796.58 2050.76,3797.71C2050.76,3798.51 2051.42,3799.16 2052.22,3799.16C2053.03,3799.16 2053.68,3798.51 2053.68,3797.71C2053.68,3796.72 2053.91,3786.64 2053.94,3785.28ZM2052.93,3785.86C2052.77,3785.88 2052.6,3785.87 2052.43,3785.83C2052.6,3785.87 2052.76,3785.89 2052.93,3785.86Z" style="fill:rgb(26,23,25);"/>
                        <path d="M2072.15,3814.63C2072.02,3816.83 2072.14,3816.33 2073.02,3818.1C2073.38,3818.82 2074.26,3819.11 2074.98,3818.75C2075.7,3818.39 2075.99,3817.51 2075.63,3816.79C2075.12,3815.77 2074.99,3816.07 2075.06,3814.8C2075.11,3814 2074.5,3813.31 2073.69,3813.26C2072.89,3813.21 2072.2,3813.82 2072.15,3814.63Z" style="fill:rgb(26,23,25);"/>
                    </g>
                </g>
            </g>
            <g transform="matrix(0.935928,-0.352191,0.352191,0.935928,-767.171,1227.72)">
                <g transform="matrix(0.997523,-0.274013,0.0339386,0.668485,844.799,1706.48)">
                    <g transform="matrix(0.988695,0.405268,-0.0501954,1.47534,-749.591,-2860.01)">
                        <path d="M1593.8,3923.42C1601.5,3927.3 1602.98,3944.21 1606.17,3951.39C1611.12,3962.52 1617.88,3973.02 1622.39,3984.29C1627.03,3995.89 1628.4,4008.02 1631.66,4019.97C1633.85,4028 1639.11,4033.81 1642.31,4041.28C1647.75,4053.96 1653.66,4067.21 1658.53,4080.21C1663.99,4094.76 1668.1,4109.76 1673.36,4124.23C1687.05,4161.87 1705.54,4197.77 1721.09,4234.05C1736.67,4270.41 1755.76,4323.27 1804.04,4295.68C1807.65,4293.61 1816.92,4292.53 1819.79,4289.66C1826.74,4282.7 1840.52,4278.44 1843.89,4268.34C1844.96,4265.11 1843.96,4261.19 1844.35,4257.68C1845.96,4243.23 1847.72,4229.99 1839.25,4216.44C1836.23,4211.6 1832.13,4206.97 1829.99,4201.61C1818.89,4173.87 1804.29,4147.76 1789.67,4121.45C1780.82,4105.52 1774.82,4078.89 1766.97,4061.21C1755.66,4035.78 1742.88,4010.72 1731.28,3985.21C1725.39,3972.25 1722.55,3958.75 1715.07,3946.29C1708.96,3936.11 1701.33,3926.18 1695.6,3916.17C1690.7,3907.58 1691.29,3897.47 1684.48,3889.29C1680.88,3884.96 1652.78,3867.42 1646.95,3869.37C1625.49,3876.52 1594.12,3900.23 1594.12,3925.43" style="fill:white;"/>
                    </g>
                    <path d="M654.596,3680.54C647.454,3678.5 649.038,3652.22 646.651,3645.06C645.518,3641.66 637.391,3622.72 639.88,3620.23C653.279,3606.83 727.831,3601.89 732.417,3620.23C738.51,3644.6 741.617,3670.88 747.463,3696.22C755.093,3729.28 766.994,3752.28 776.373,3785.11C788.729,3828.35 797.977,3882.68 809.907,3926.43C819.298,3960.87 819.001,3999.6 830.22,4033.26C843.05,4071.75 861.275,4108.58 870.846,4146.86C877.235,4172.42 829.094,4198.15 811.412,4204.04C796.672,4208.95 785.038,4195.94 772.29,4192.76C769.139,4191.97 754.506,4189.54 752.73,4185.98C734.982,4150.49 741.583,4108.44 733.921,4070.12C727.266,4036.85 716.248,4013.06 708.039,3980.22C703.754,3963.08 701.301,3936.68 695.693,3919.86C691.007,3905.8 678.134,3821.17 684.49,3808.46C696.211,3785.01 733.974,3746.78 724.893,3719.54C724.086,3717.12 681.874,3686.88 678.249,3688.69C670.389,3692.62 667.657,3706.4 662.45,3709.01C660.786,3709.84 663.955,3694.72 663.955,3693.96C663.955,3684.7 658.174,3679.9 653.422,3675.15" style="fill:white;"/>
                    <path d="M636.374,3596.71C638.01,3604.16 688.135,3840.37 690.343,3842.57C691.713,3843.94 734.262,3886.65 708.901,3757.22C708.87,3757.06 687.559,3677.04 687.038,3674.43C680.215,3640.32 673.685,3596.71 636.374,3596.71Z" style="fill:rgb(219,220,221);"/>
                    <path d="M687.643,3805.46C685.39,3797.24 687.502,3837.37 688.039,3841.12C691.839,3867.73 695.026,3893.83 700.053,3920.22C706.349,3953.27 716.959,3984.45 727.584,4016.33C737.689,4046.64 742.746,4079.26 751.111,4109.93C758.101,4135.56 756.099,4167.7 765.628,4191.53C767.613,4196.49 806.556,4203.85 812.182,4201.04C823.986,4195.14 813.247,4168.91 811.181,4160.99C800.933,4121.71 790.463,4082.03 781.647,4042.36C766.516,3974.27 719.771,3838.64 711.093,3769.22C708.213,3746.18 703.042,3779.78 695.047,3792.57C692.148,3797.21 690.509,3801.64 688.039,3806.58C687.311,3808.04 684.317,3812.59 684.535,3812.59" style="fill:rgb(219,220,221);"/>
                    <g transform="matrix(1,0,0,0.633234,-0.868443,1339.84)">
                        <path d="M735.173,3635.83C731.184,3637.52 728.457,3641 724.503,3642.98C719.45,3645.51 713.213,3645.14 708.486,3647.5C703.274,3650.11 692.042,3645.05 688.361,3648.73C683.655,3653.44 690.527,3667.29 691.236,3672.96C693.658,3692.34 700.166,3702.24 719.164,3705.41C721.221,3705.75 726.804,3710.03 728.2,3709.11C731.164,3707.13 732.97,3702.61 736.414,3700.89C741.237,3698.48 745.175,3696.51 747.092,3692.68C748.929,3689 745.121,3679.45 744.217,3675.84C741.798,3666.16 741.613,3655.83 739.7,3646.27C738.935,3642.44 735.182,3638.47 735.182,3635.18" style="fill:rgb(0,3,0);"/>
                    </g>
                    <path d="M730.978,3619.47C728.957,3617.48 724.87,3622.17 722.861,3623.27C718.138,3625.84 702.196,3628.48 710.95,3637.23C716.635,3642.92 730.317,3632.88 733.128,3628.2C734.235,3626.35 734.313,3619.57 731.075,3619.57" style="fill:rgb(0,3,0);"/>
                    <g transform="matrix(1,0,0,1,-3.80915,-46.5995)">
                        <path d="M702.928,3573.25C688.686,3557.76 668.862,3557.85 663.215,3559.58C653.897,3562.45 641.326,3580.95 636.535,3591.65C630.374,3605.41 635.835,3622.94 638.101,3628.39C644.474,3643.72 654.405,3651.13 661.518,3654.74C677.57,3662.88 694.758,3659.94 711.003,3649.56C722.058,3642.5 731.644,3611.67 719.725,3589.78C716.959,3584.7 708.14,3572.76 703.964,3572.76" style="fill:rgb(153,154,157);"/>
                    </g>
                    <path d="M651.896,3664.65C651.789,3664.27 679.802,3665.5 672.344,3672.96C671.101,3674.2 654.468,3680.14 652.63,3678.3C651.206,3676.88 649.347,3667.21 649.344,3667.21" style="fill:rgb(0,3,0);"/>
                    <g transform="matrix(1,0,0,0.410557,-8.06005,2237.78)">
                        <path d="M712.469,3765.74C713.672,3762.17 724.338,3763.26 727.378,3762.5C751.568,3756.45 749.118,3772.22 753.253,3792.89C754.063,3796.94 760.07,3813.36 754.485,3816.71C728.621,3832.23 736.966,3782.08 726.557,3776.87C721.026,3774.11 727.015,3783.92 727.378,3785.5C728.873,3791.97 734.488,3809.35 732.307,3815.89C731.181,3819.27 715.921,3822.88 712.593,3822.05C705.074,3820.17 709.227,3808.34 706.843,3803.57C705.286,3800.45 706.261,3796.24 704.789,3793.3C703.595,3790.91 699.227,3793.26 698.218,3791.25C698.157,3791.12 698.218,3790.97 698.218,3790.84C698.218,3790.39 710.446,3766.7 710.95,3766.19" style="fill:rgb(0,3,0);"/>
                    </g>
                    <path d="M832.444,4078.56C830.816,4081.43 808.94,4086.91 811.984,4091.47C812.61,4092.41 816.298,4092.54 817.324,4092.71C824.722,4093.94 826.713,4094.06 833.752,4089.83C839.898,4086.14 838.586,4079.56 831.288,4079.56" style="fill:rgb(0,3,0);"/>
                    <path d="M851.831,4102.17C851.821,4101.64 843.865,4107.12 841.145,4108.31C827.638,4114.22 813.544,4110.23 823.484,4126.8C827.201,4132.99 854.575,4119.48 856.341,4112.42C857.921,4106.1 851.412,4103.97 851.412,4099.69" style="fill:rgb(0,3,0);"/>
                    <path d="M747.758,4105.15C754.881,4109.37 761.458,4112.31 769.681,4109.96C772.845,4109.05 780.573,4103.59 783.645,4104.62C784.622,4104.94 788.507,4118.65 787.342,4119.81C781.206,4125.95 760.531,4132.01 751.666,4130.24C745.971,4129.1 742.739,4118.8 743.451,4113.81C743.533,4113.24 743.733,4106.42 744.273,4106.42" style="fill:rgb(0,3,0);"/>
                    <path d="M839.635,4143.11C831.826,4143.75 824.409,4150.66 816.091,4151.85C810.099,4152.7 804.023,4152.89 798.02,4153.49C795.565,4153.74 782.337,4152.82 781.592,4154.31C780.273,4156.95 783.141,4167.42 785.288,4168.28C797.207,4173.04 836.21,4169.93 843.198,4155.96C848.656,4145.04 838.68,4145.66 838.68,4143.63" style="fill:rgb(0,3,0);"/>
                    <path d="M643.073,3639.97C639.42,3636.66 644.126,3636.11 655.915,3638.46C664.014,3640.08 681.934,3631.17 678.915,3646.27C677.168,3655 653.128,3656.05 646.469,3651.61C643.38,3649.55 642.362,3645.74 642.362,3642.16C642.362,3641.2 642.853,3636.82 641.951,3636.82" style="fill:rgb(0,3,0);"/>
                    <path d="M759.034,3724.85C754.366,3727.75 742.948,3726.8 738.878,3730.87C738.414,3731.34 740.938,3740.33 741.753,3741.14C748.749,3748.14 765.446,3743.63 761.467,3731.69C760.896,3729.98 760.636,3725.93 759.414,3724.71" style="fill:rgb(0,3,0);"/>
                    <path d="M691.925,3885.64C690.76,3885.93 691.041,3884.48 692.058,3884.89C699.647,3887.92 708.423,3885.93 715.879,3884.07C724.34,3881.95 734.928,3878.08 742.575,3872.98C743.801,3872.16 748.976,3866.12 750.378,3866.82C752.193,3867.72 755.043,3874.24 755.717,3876.26C757.465,3881.51 750.952,3884.56 747.503,3886.53C741.624,3889.89 737.815,3896.54 732.718,3900.91C730.221,3903.05 727.061,3903.19 724.503,3905.01C721.291,3907.31 717.274,3910.19 714.646,3912.82C712.761,3914.7 713.359,3919 710.95,3920.21C708.336,3921.52 704.601,3918.5 702.325,3917.74C699.899,3916.94 691.925,3890.28 691.925,3885.64Z" style="fill:rgb(0,3,0);"/>
                    <path d="M800.903,3889.07C795.156,3893.71 786.111,3901.45 779.128,3903.78C776.734,3904.58 772.184,3902.25 770.914,3905.42C769.724,3908.4 777.741,3933.71 780.36,3934.58C783.294,3935.56 789.262,3932.09 792.27,3931.71C796.141,3931.22 802.133,3934.78 805.002,3930.48C813.361,3917.94 803.359,3900.73 803.359,3885.71" style="fill:rgb(0,3,0);"/>
                    <g transform="matrix(1,0,0,0.411984,-2.56853,2354.47)">
                        <path d="M730.002,3955.89C729.137,3954.72 735.14,3967.23 736.003,3971.55C738.224,3982.65 738.44,3993.01 745.45,4002.35C747.993,4005.74 754.982,4004.4 759.003,4004.4C768.298,4004.4 784.004,4007.49 790.628,3998.65C792.777,3995.79 790.651,3991.01 790.217,3987.98C788.47,3975.74 783.026,3964.24 780.36,3952.24C779.726,3949.39 777.681,3938.24 773.788,3937.46C765.075,3935.72 760.737,3946.08 755.307,3951.01C752.246,3953.8 748.48,3953.81 745.039,3955.53C740.993,3957.55 736.124,3957.03 732.307,3955.12C730.699,3954.32 728.456,3959.54 729.432,3957.58" style="fill:rgb(0,3,0);"/>
                    </g>
                    <path d="M765.069,3835.39C763.869,3834.64 765.634,3838.98 765.985,3840.12C767.122,3843.82 768.023,3849.14 770.914,3852.03C775.734,3856.85 791.478,3849.83 792.681,3843.82C793.278,3840.83 792.805,3838.44 791.86,3835.6C790.888,3832.69 791.585,3828.89 790.217,3826.16C787.704,3821.13 769.495,3834.78 764.342,3834.78" style="fill:rgb(0,3,0);"/>
                    <path d="M747.759,3834.2C748.544,3832.99 743.143,3835.49 741.753,3836.01C736.528,3837.97 730.718,3838.77 725.325,3840.12C724.781,3840.26 719.01,3842.43 720.807,3844.23C728.157,3851.58 752.439,3847.12 745.86,3833.96" style="fill:rgb(0,3,0);"/>
                    <path d="M684.747,3836.75C683.183,3830.55 695.905,3832.3 699.04,3833.55C711.769,3838.64 706.037,3856.21 696.575,3861.89C684.575,3869.09 685.075,3839.41 685.075,3834.78" style="fill:rgb(0,3,0);"/>
                    <path d="M723.298,4032.3C731.857,4037.1 741.881,4044.35 751.61,4046.3C759.287,4047.83 767.788,4045.06 775.431,4045.06C776.129,4045.06 776.991,4044.16 777.485,4044.65C781.883,4049.05 773.071,4055.03 770.092,4055.33C763.739,4055.97 757.464,4054.62 751.2,4054.1C736.998,4052.92 723.682,4052.1 723.682,4033.97" style="fill:rgb(0,3,0);"/>
                    <path d="M825.851,4000.48C824.648,4000.18 807.903,4012.25 810.342,4015.9C813.778,4021.06 827.443,4017.73 828.823,4012.21C829.234,4010.57 826.427,4003.17 825.538,4003.17" style="fill:rgb(0,3,0);"/>
                    <path d="M816.541,4058.61C808.807,4066.08 784.447,4066.44 779.538,4071.35C772.474,4078.41 787.923,4087.94 795.145,4086.14C803.208,4084.12 820.473,4077.51 825.948,4070.94C835.142,4059.91 825.547,4054.1 814.859,4059.44" style="fill:rgb(0,3,0);"/>
                </g>
                <g transform="matrix(1,0,0,1,10.6073,6.10456)">
                    <g>
                        <path d="M1836.13,4229.3C1832.68,4218.89 1710.8,3947.51 1683.73,3890.25C1680.52,3883.45 1678.47,3879.52 1678.07,3879.07C1652.83,3850.49 1614.38,3857.58 1593.43,3877.8C1579.19,3891.55 1573.05,3911.23 1583.95,3929.91C1605.53,3966.91 1704.13,4239.75 1729.14,4278.77C1743.73,4301.55 1775.06,4303.4 1800.54,4292.23C1826.07,4281.04 1845.31,4257.01 1836.13,4229.3L1836.13,4229.3ZM1673.58,3882.8C1673.81,3883.26 1675.98,3887.49 1678.46,3892.74C1705.48,3949.89 1827.15,4220.74 1830.6,4231.14L1830.6,4231.14C1838.78,4255.85 1820.97,4276.9 1798.19,4286.89C1775.36,4296.9 1747.13,4296.04 1734.05,4275.63C1709.06,4236.62 1610.56,3963.95 1588.99,3926.97C1579.57,3910.83 1585.18,3893.88 1597.48,3882C1616.31,3863.82 1650.85,3857.22 1673.58,3882.8Z" style="fill:rgb(26,23,25);"/>
                        <path d="M1585.49,3916.37C1585.66,3916.01 1585.69,3915.59 1585.53,3915.19C1584.82,3913.42 1584.26,3912.31 1583.89,3911.73C1583.6,3911.27 1583.35,3911.02 1583.18,3910.9C1582.83,3910.63 1582.49,3910.57 1582.25,3910.56C1581.83,3910.56 1581.47,3910.7 1581.18,3910.98C1581,3911.14 1580.82,3911.39 1580.73,3911.75C1580.68,3911.97 1580.64,3912.44 1580.82,3913.09C1581.69,3916.46 1588.72,3930.42 1604.89,3933.12C1619.91,3935.62 1642.07,3930.39 1657.39,3919.62C1667.82,3912.29 1675.05,3902.42 1675.05,3890.78C1675.05,3889.98 1674.4,3889.32 1673.6,3889.32C1672.79,3889.32 1672.14,3889.98 1672.14,3890.78C1672.14,3901.49 1665.31,3910.48 1655.72,3917.23C1641.02,3927.56 1619.77,3932.64 1605.37,3930.24C1594.68,3928.46 1588.38,3921.26 1585.49,3916.37Z" style="fill:rgb(26,23,25);"/>
                        <path d="M1596.95,3916.85C1597.12,3916.64 1597.32,3916.41 1597.52,3916.19C1602.04,3911.39 1617.63,3898.02 1621.86,3895.6C1622.56,3895.2 1622.8,3894.31 1622.4,3893.61C1622,3892.91 1621.11,3892.67 1620.41,3893.07C1617,3895.02 1606.33,3903.92 1599.69,3910.03C1596.73,3912.76 1594.56,3914.98 1594.06,3915.84C1593.6,3916.61 1593.76,3917.22 1593.91,3917.52C1594.12,3917.97 1594.67,3918.66 1595.89,3918.32C1596.55,3918.13 1596.98,3917.51 1596.95,3916.85Z" style="fill:rgb(26,23,25);"/>
                        <path d="M1618.94,3912.52C1618.64,3912.5 1618.34,3912.57 1618.07,3912.74C1617.39,3913.17 1617.18,3914.07 1617.61,3914.75C1617.86,3915.14 1618.27,3915.49 1619,3915.48C1619.36,3915.47 1620.22,3915.19 1621.35,3914.55C1624.17,3912.93 1629.73,3909.09 1633.49,3906.93C1634.39,3906.41 1635.17,3905.99 1635.78,3905.74C1635.98,3905.66 1636.26,3905.58 1636.29,3905.58C1637.08,3905.56 1637.71,3904.91 1637.71,3904.12C1637.71,3903.31 1637.06,3902.66 1636.25,3902.66C1635.93,3902.66 1635.47,3902.74 1634.92,3902.95C1634.06,3903.27 1632.82,3903.93 1631.4,3904.77C1627.1,3907.31 1620.93,3911.66 1618.94,3912.52ZM1620.01,3913.1L1620.03,3913.12L1620.02,3913.11L1620.01,3913.1ZM1619.95,3913.02L1619.96,3913.03L1619.95,3913.02L1619.95,3913.02Z" style="fill:rgb(26,23,25);"/>
                        <path d="M1608.8,3888.38C1602.05,3895.89 1600.54,3901.89 1602.08,3906.32C1603.63,3910.8 1608.4,3913.94 1614.85,3915.58C1626.93,3918.67 1644.9,3916.69 1655.63,3910.73C1656.34,3910.34 1656.59,3909.45 1656.2,3908.74C1655.81,3908.04 1654.92,3907.79 1654.22,3908.18C1644.05,3913.83 1627.02,3915.68 1615.57,3912.76C1610.25,3911.4 1606.12,3909.07 1604.83,3905.36C1603.53,3901.61 1605.24,3896.7 1610.97,3890.33C1611.51,3889.73 1611.46,3888.8 1610.86,3888.27C1610.26,3887.73 1609.34,3887.78 1608.8,3888.38Z" style="fill:rgb(26,23,25);"/>
                        <path d="M1631.42,3877.83C1632.65,3874.22 1634.21,3872.38 1636.17,3872.11C1638.17,3871.83 1640.32,3873.13 1642.46,3875.22C1646.85,3879.5 1650.92,3887.2 1652.71,3894.89C1653.88,3899.92 1654.08,3904.94 1652.66,3908.97C1652.39,3909.73 1652.79,3910.56 1653.55,3910.83C1654.31,3911.1 1655.14,3910.7 1655.41,3909.94C1657,3905.44 1656.85,3899.84 1655.55,3894.23C1653.63,3885.98 1649.21,3877.73 1644.5,3873.13C1641.58,3870.29 1638.49,3868.84 1635.77,3869.22C1633.01,3869.6 1630.38,3871.82 1628.66,3876.89C1628.4,3877.65 1628.81,3878.48 1629.57,3878.74C1630.33,3879 1631.16,3878.59 1631.42,3877.83Z" style="fill:rgb(26,23,25);"/>
                        <path d="M1622.08,3893C1624.29,3890.34 1626.66,3889.64 1628.66,3890.35C1631.72,3891.44 1633.68,3895.48 1632.48,3899.41C1631.56,3902.45 1628.76,3905.38 1623.34,3907.18C1622.58,3907.43 1622.17,3908.26 1622.42,3909.03C1622.67,3909.79 1623.5,3910.2 1624.27,3909.95C1630.88,3907.74 1634.14,3903.98 1635.27,3900.26C1636.96,3894.72 1633.95,3889.14 1629.63,3887.61C1626.71,3886.56 1623.09,3887.22 1619.84,3891.13C1619.32,3891.75 1619.41,3892.67 1620.03,3893.19C1620.64,3893.7 1621.57,3893.62 1622.08,3893Z" style="fill:rgb(26,23,25);"/>
                        <path d="M1639.29,3894.76C1651.75,3891.09 1665.98,3887.79 1678.93,3887.79C1679.74,3887.79 1680.39,3887.14 1680.39,3886.34C1680.39,3885.53 1679.74,3884.88 1678.93,3884.88C1665.71,3884.88 1651.19,3888.21 1638.47,3891.96C1637.7,3892.18 1637.26,3893 1637.48,3893.77C1637.71,3894.54 1638.52,3894.98 1639.29,3894.76Z" style="fill:rgb(26,23,25);"/>
                        <path d="M1597.76,3897.85C1597.65,3896.22 1599.16,3896.19 1600.82,3896.33C1604.7,3896.64 1609.85,3898.84 1610.78,3899.24C1611.52,3899.55 1612.38,3899.21 1612.7,3898.47C1613.01,3897.73 1612.67,3896.87 1611.93,3896.55C1610.92,3896.12 1605.29,3893.76 1601.06,3893.42C1598.54,3893.22 1596.48,3893.82 1595.51,3895.26C1595.04,3895.96 1594.77,3896.87 1594.85,3898.05C1594.91,3898.85 1595.6,3899.46 1596.41,3899.41C1597.21,3899.35 1597.82,3898.65 1597.76,3897.85Z" style="fill:rgb(26,23,25);"/>
                        <path d="M1615.88,3873.82C1616.2,3873.74 1616.52,3873.93 1616.88,3874.15C1617.51,3874.55 1618.15,3875.17 1618.77,3875.89C1620.92,3878.33 1622.84,3881.81 1623.51,3882.74C1623.98,3883.39 1624.89,3883.54 1625.54,3883.08C1626.2,3882.61 1626.35,3881.7 1625.88,3881.04C1625.07,3879.9 1622.43,3875.16 1619.75,3872.71C1618.2,3871.29 1616.56,3870.64 1615.17,3870.99C1614.39,3871.18 1613.92,3871.97 1614.11,3872.76C1614.31,3873.54 1615.1,3874.01 1615.88,3873.82Z" style="fill:rgb(26,23,25);"/>
                        <path d="M1643.78,3908.55C1646.4,3910.95 1646.08,3910.65 1648.78,3912.44C1649.45,3912.89 1650.36,3912.71 1650.8,3912.04C1651.25,3911.37 1651.07,3910.46 1650.4,3910.02C1647.89,3908.35 1648.18,3908.63 1645.75,3906.4C1645.16,3905.86 1644.23,3905.9 1643.69,3906.49C1643.15,3907.09 1643.19,3908.01 1643.78,3908.55Z" style="fill:rgb(26,23,25);"/>
                        <path d="M1603.73,3934.54C1615.16,3982.94 1647.66,4026.12 1665.12,4072.68C1678.73,4108.98 1687.89,4145.8 1705.19,4180.4C1707.81,4185.65 1708.89,4191.43 1709.87,4197.24C1710.89,4203.29 1711.79,4209.37 1714.03,4214.97C1718.31,4225.66 1727.71,4236.26 1736.07,4247.3C1744.14,4257.96 1751.27,4269.03 1751.27,4281.11C1751.27,4281.91 1751.92,4282.57 1752.73,4282.57C1753.53,4282.57 1754.19,4281.91 1754.19,4281.11C1754.19,4268.43 1746.87,4256.73 1738.39,4245.54C1730.2,4234.72 1720.93,4224.36 1716.74,4213.88C1714.58,4208.48 1713.73,4202.6 1712.75,4196.76C1711.72,4190.66 1710.55,4184.6 1707.8,4179.1C1690.54,4144.58 1681.42,4107.86 1667.85,4071.65C1650.43,4025.21 1617.97,3982.15 1606.57,3933.87C1606.38,3933.08 1605.6,3932.6 1604.81,3932.78C1604.03,3932.97 1603.54,3933.76 1603.73,3934.54Z" style="fill:rgb(26,23,25);"/>
                    </g>
                </g>
            </g>
            <g transform="matrix(0.142202,0.989838,-0.989838,0.142202,5710.82,2122.11)">
                <path d="M1520.01,3856.56C1507.36,3854.37 1476.15,3810.19 1465.1,3799.13C1434.6,3768.63 1407.65,3734.33 1373.17,3708.47C1366.53,3703.49 1362.89,3695.08 1356.8,3690.21C1344.65,3680.49 1313.39,3650.67 1309.58,3635.43C1305.83,3620.45 1308.55,3612.93 1315.24,3599.54C1331.17,3567.68 1345.34,3554.78 1380.12,3554.78C1385.92,3554.78 1401.54,3557.2 1407.17,3558.61C1428.62,3563.98 1457.41,3605.14 1470.31,3622.34C1476.33,3630.37 1524.83,3682.55 1540.65,3701.54C1560.13,3724.91 1588.25,3741.93 1603.23,3768.16C1623.16,3803.06 1587.91,3818.49 1569.62,3833.13C1567.68,3834.69 1522.76,3856.56 1520.01,3856.56Z" style="fill:rgb(150,163,96);"/>
                <path d="M1610.69,3863.9C1604.07,3839.79 1623.31,3806.42 1609.91,3779.62C1604.5,3768.8 1580.73,3771.64 1574.47,3777.91C1572.1,3780.28 1574.92,3786.9 1572.58,3789.24C1572.44,3789.38 1570.26,3789.34 1570.06,3789.24C1563.18,3785.8 1541.66,3783.51 1535.1,3790.07C1530.02,3795.15 1527.72,3805.96 1529.32,3812.36C1529.73,3814.01 1537.61,3817.92 1536.87,3818.65C1530.6,3824.93 1513.55,3824.37 1507.91,3835.65C1496.75,3857.98 1540.61,3867.45 1554.46,3867.45C1564.08,3867.45 1583.65,3868.96 1592.91,3865.88C1598.46,3864.03 1605.59,3863.9 1610.69,3863.9Z" style="fill:rgb(249,214,184);"/>
                <g>
                    <g transform="matrix(1,0,0,1,2.40646,-19.2183)">
                        <g transform="matrix(1.24816,0,0,1.14478,-280.793,-562.857)">
                            <path d="M1512.29,3886.01C1511.84,3886.08 1510.37,3886.28 1508.9,3886.58C1503.54,3887.65 1493.92,3889.83 1483.11,3890.91C1467.21,3892.51 1448.83,3891.6 1437.07,3881.96C1427.88,3874.42 1315.29,3735.01 1280.74,3703.43L1280.74,3703.43C1269.76,3693.4 1266.98,3679.23 1269.78,3664.71C1272.49,3650.66 1280.5,3636.28 1291.17,3625.33C1311.64,3604.33 1351.36,3604.39 1373.83,3633.1C1427.51,3701.71 1503.03,3788.4 1515.99,3809.82C1518.8,3814.46 1520.07,3822.36 1520.26,3831.41C1520.67,3851.38 1516.17,3877.15 1515.2,3882.85C1515.16,3883.11 1515.12,3883.38 1515.09,3883.56C1515.08,3883.79 1515.05,3884.02 1514.98,3884.24C1514.44,3886.12 1512.97,3886.13 1512.29,3886.01ZM1510.75,3881.07C1510.55,3881.1 1510.34,3881.13 1510.12,3881.17C1505.51,3881.98 1494.87,3884.62 1482.68,3885.84C1467.92,3887.32 1450.8,3886.84 1439.88,3877.88C1430.7,3870.36 1318.26,3731.07 1283.74,3699.53L1283.74,3699.53C1274.18,3690.8 1271.92,3678.4 1274.36,3665.76C1276.89,3652.64 1284.41,3639.26 1294.37,3629.05C1313.17,3609.76 1349.64,3610.04 1370.27,3636.41C1423.82,3704.83 1499.16,3791.26 1512.09,3812.63C1514.54,3816.68 1515.42,3823.62 1515.58,3831.52C1515.97,3850.22 1511.93,3874.11 1510.75,3881.07Z" style="fill:rgb(26,23,25);"/>
                        </g>
                        <g transform="matrix(1,0,0,1,-2.40646,19.2183)">
                            <path d="M1601.56,3803.82C1601.64,3803.65 1601.68,3803.45 1601.68,3803.25C1601.68,3802.44 1601.03,3801.79 1600.22,3801.79C1599.73,3801.79 1599.24,3801.97 1598.9,3802.56C1598.77,3802.78 1598.59,3803.43 1598.66,3804.47C1599.01,3809.01 1602.62,3826.4 1604.27,3838.33C1604.94,3843.17 1605.34,3847.06 1604.94,3848.64C1604.74,3849.42 1605.21,3850.22 1605.99,3850.41C1606.77,3850.61 1607.57,3850.14 1607.77,3849.36C1608.16,3847.79 1607.97,3844.18 1607.38,3839.61C1606.09,3829.51 1603.06,3814.43 1601.95,3807.19C1601.72,3805.68 1601.6,3804.27 1601.56,3803.82ZM1600.3,3804.7C1600.42,3804.7 1600.54,3804.68 1600.65,3804.64C1600.54,3804.68 1600.42,3804.7 1600.3,3804.7ZM1600.3,3804.7L1600.22,3804.7C1600.25,3804.7 1600.27,3804.7 1600.3,3804.7Z" style="fill:rgb(26,23,25);"/>
                        </g>
                        <g transform="matrix(1,0,0,1,-2.40646,19.2183)">
                            <path d="M1607.87,3852.95C1601.62,3852.59 1564.73,3857.56 1550.22,3863.44C1547.86,3864.4 1546.07,3865.4 1544.99,3866.38C1543.97,3867.32 1543.52,3868.32 1543.52,3869.26C1543.52,3870.06 1544.17,3870.72 1544.98,3870.72C1545.78,3870.72 1546.43,3870.06 1546.43,3869.26C1546.43,3869.11 1546.55,3868.99 1546.67,3868.84C1546.96,3868.49 1547.4,3868.14 1547.96,3867.79C1549.99,3866.51 1553.36,3865.26 1557.49,3864.06C1574.01,3859.27 1602.35,3855.56 1607.7,3855.86C1608.51,3855.9 1609.2,3855.29 1609.24,3854.48C1609.29,3853.68 1608.67,3852.99 1607.87,3852.95Z" style="fill:rgb(26,23,25);"/>
                        </g>
                        <g transform="matrix(1,0,0,1,-2.40646,19.2183)">
                            <path d="M1605.24,3851.11C1603.68,3850.83 1601.1,3849.21 1597.92,3846.87C1590.01,3841.04 1578.9,3830.6 1571.61,3821.96C1568.97,3818.84 1566.84,3815.97 1565.56,3813.65C1564.83,3812.33 1564.37,3811.24 1564.37,3810.42C1564.37,3809.62 1563.72,3808.96 1562.91,3808.96C1562.11,3808.96 1561.45,3809.62 1561.45,3810.42C1561.45,3811.59 1561.97,3813.18 1563,3815.06C1564.36,3817.51 1566.6,3820.55 1569.38,3823.84C1576.81,3832.64 1588.13,3843.27 1596.19,3849.22C1599.85,3851.92 1602.92,3853.65 1604.71,3853.98C1605.51,3854.12 1606.27,3853.6 1606.41,3852.81C1606.56,3852.01 1606.03,3851.26 1605.24,3851.11Z" style="fill:rgb(26,23,25);"/>
                        </g>
                        <path d="M1610.8,3807.03C1605.24,3787.48 1587.43,3784.79 1576.37,3790.11C1569.57,3793.38 1565.28,3799.62 1567.4,3806.91C1562.92,3805.65 1554.07,3803.45 1546.28,3803.27C1541.3,3803.16 1536.73,3803.91 1533.83,3806.06C1527.26,3810.92 1524.58,3816.05 1523.97,3820.8C1523.03,3828.12 1527.15,3834.63 1530.02,3838.18C1529.15,3838.25 1528.2,3838.38 1527.19,3838.58C1520.8,3839.86 1511.86,3843.81 1506.39,3848.91C1503,3852.06 1500.96,3855.69 1501.24,3859.37C1501.44,3861.87 1502.69,3864.45 1505.46,3866.97C1516.61,3877.06 1531.08,3878.9 1537.56,3878.9C1538.36,3878.9 1539.02,3878.25 1539.02,3877.44C1539.02,3876.64 1538.36,3875.99 1537.56,3875.99C1531.48,3875.99 1517.88,3874.28 1507.42,3864.81C1505.33,3862.91 1504.3,3861.03 1504.15,3859.14C1503.93,3856.26 1505.73,3853.51 1508.38,3851.04C1513.47,3846.29 1521.81,3842.63 1527.76,3841.44C1530.05,3840.98 1531.94,3840.84 1533.05,3841.29C1533.7,3841.56 1534.45,3841.32 1534.83,3840.72C1535.21,3840.12 1535.1,3839.34 1534.58,3838.86C1534.58,3838.86 1525.62,3830.85 1526.87,3821.17C1527.4,3817.03 1529.84,3812.64 1535.56,3808.41C1538.92,3805.92 1544.88,3805.86 1550.8,3806.5C1560.13,3807.52 1569.42,3810.56 1569.42,3810.56C1569.99,3810.74 1570.6,3810.57 1570.99,3810.12C1571.37,3809.67 1571.44,3809.03 1571.17,3808.5C1567.65,3801.66 1571.45,3795.71 1577.63,3792.74C1587.41,3788.04 1603.08,3790.55 1608,3807.83C1608.22,3808.61 1609.03,3809.05 1609.8,3808.83C1610.58,3808.61 1611.03,3807.81 1610.8,3807.03Z" style="fill:rgb(26,23,25);"/>
                    </g>
                    <path d="M1329.75,3642.64C1332.79,3649.73 1340.84,3656.29 1347.59,3659.67C1348.31,3660.03 1349.18,3659.73 1349.54,3659.01C1349.9,3658.29 1349.61,3657.42 1348.89,3657.06C1342.69,3653.96 1335.22,3648.01 1332.43,3641.49C1332.11,3640.75 1331.25,3640.41 1330.51,3640.72C1329.77,3641.04 1329.43,3641.9 1329.75,3642.64Z" style="fill:rgb(26,23,25);"/>
                    <path d="M1324.04,3616.26C1325.59,3616.77 1327.29,3618.34 1328.91,3619.48C1330.36,3620.5 1331.78,3621.19 1332.99,3621.19C1333.8,3621.19 1334.45,3620.54 1334.45,3619.73C1334.45,3618.93 1333.8,3618.28 1332.99,3618.28C1332.6,3618.28 1332.18,3618.08 1331.74,3617.83C1331.1,3617.47 1330.43,3616.99 1329.75,3616.48C1328.14,3615.28 1326.47,3613.99 1324.96,3613.49C1324.2,3613.23 1323.37,3613.65 1323.12,3614.41C1322.86,3615.18 1323.28,3616 1324.04,3616.26Z" style="fill:rgb(26,23,25);"/>
                    <path d="M1354.39,3643.33C1355.43,3643.65 1356.24,3644.52 1357.08,3645.39C1358.22,3646.56 1359.38,3647.78 1360.8,3648.48C1361.52,3648.84 1362.4,3648.55 1362.76,3647.83C1363.12,3647.11 1362.83,3646.24 1362.11,3645.88C1360.71,3645.18 1359.66,3643.81 1358.53,3642.71C1357.53,3641.73 1356.47,3640.91 1355.25,3640.54C1354.48,3640.3 1353.66,3640.74 1353.43,3641.51C1353.19,3642.28 1353.62,3643.09 1354.39,3643.33Z" style="fill:rgb(26,23,25);"/>
                    <path d="M1366.51,3680.92C1368.13,3681.12 1370.04,3681.96 1372.01,3682.98C1375.23,3684.65 1378.58,3686.85 1381.13,3688.13C1381.85,3688.49 1382.73,3688.2 1383.09,3687.48C1383.45,3686.76 1383.15,3685.88 1382.43,3685.52C1379.89,3684.25 1376.56,3682.06 1373.36,3680.39C1371.04,3679.19 1368.77,3678.26 1366.87,3678.03C1366.07,3677.93 1365.34,3678.49 1365.24,3679.29C1365.14,3680.09 1365.71,3680.82 1366.51,3680.92Z" style="fill:rgb(26,23,25);"/>
                    <path d="M1380.14,3661.84C1381.25,3661.87 1382.67,3662.88 1384.16,3664.09C1386.8,3666.22 1389.5,3669.16 1390.92,3670.57C1391.49,3671.14 1392.41,3671.14 1392.98,3670.57C1393.55,3670.01 1393.55,3669.08 1392.98,3668.51C1391.27,3666.8 1387.72,3662.94 1384.58,3660.75C1382.98,3659.63 1381.43,3658.95 1380.21,3658.92C1379.4,3658.9 1378.74,3659.54 1378.72,3660.35C1378.7,3661.15 1379.34,3661.82 1380.14,3661.84Z" style="fill:rgb(26,23,25);"/>
                    <path d="M1411.63,3698.21C1413.92,3702.35 1416.39,3703.96 1420.96,3705.49C1421.73,3705.74 1422.56,3705.33 1422.81,3704.57C1423.06,3703.8 1422.65,3702.97 1421.89,3702.72C1418.14,3701.47 1416.07,3700.2 1414.19,3696.8C1413.8,3696.1 1412.91,3695.84 1412.21,3696.23C1411.5,3696.62 1411.25,3697.51 1411.63,3698.21Z" style="fill:rgb(26,23,25);"/>
                    <path d="M1406.44,3730.08C1406.57,3729.99 1406.74,3730.08 1406.93,3730.14C1407.48,3730.31 1408.09,3730.66 1408.74,3731.12C1412.4,3733.69 1416.99,3739.34 1418.36,3740.71C1418.93,3741.28 1419.86,3741.28 1420.42,3740.71C1420.99,3740.14 1420.99,3739.22 1420.42,3738.65C1419,3737.22 1414.22,3731.4 1410.41,3728.73C1409.25,3727.91 1408.14,3727.38 1407.21,3727.21C1406.29,3727.05 1405.49,3727.21 1404.83,3727.65C1404.15,3728.09 1403.97,3729 1404.42,3729.67C1404.86,3730.34 1405.77,3730.52 1406.44,3730.08Z" style="fill:rgb(26,23,25);"/>
                    <path d="M1395.41,3685.07C1395.59,3688.17 1396.3,3691.92 1397.99,3694.9C1399.81,3698.12 1402.72,3700.48 1407.19,3700.48C1408,3700.48 1408.65,3699.83 1408.65,3699.02C1408.65,3698.22 1408,3697.56 1407.19,3697.56C1403.94,3697.56 1401.85,3695.81 1400.52,3693.46C1399.06,3690.88 1398.48,3687.61 1398.33,3684.9C1398.28,3684.1 1397.59,3683.48 1396.79,3683.53C1395.99,3683.57 1395.37,3684.26 1395.41,3685.07Z" style="fill:rgb(26,23,25);"/>
                    <path d="M1410.35,3663.86C1419.4,3663.92 1423.77,3667.85 1429.54,3673.62C1430.11,3674.19 1431.04,3674.19 1431.61,3673.62C1432.17,3673.05 1432.17,3672.13 1431.61,3671.56C1425.24,3665.19 1420.35,3661.01 1410.37,3660.94C1409.56,3660.93 1408.91,3661.58 1408.9,3662.39C1408.89,3663.19 1409.54,3663.85 1410.35,3663.86Z" style="fill:rgb(26,23,25);"/>
                    <path d="M1379.82,3625.9C1380.2,3626.09 1381.14,3626.58 1381.88,3627.13C1385.95,3630.11 1392.08,3636.35 1393.07,3637.14C1393.7,3637.64 1394.62,3637.54 1395.12,3636.91C1395.62,3636.28 1395.52,3635.36 1394.89,3634.86C1393.9,3634.06 1387.71,3627.79 1383.61,3624.78C1382.11,3623.68 1380.8,3623.01 1380,3622.92C1379.07,3622.81 1378.43,3623.15 1378.01,3623.74C1377.55,3624.4 1377.71,3625.31 1378.37,3625.77C1378.81,3626.08 1379.37,3626.11 1379.82,3625.9Z" style="fill:rgb(26,23,25);"/>
                    <path d="M1347.1,3596.03C1351.58,3601.5 1355.95,3606.22 1361.56,3610.71C1362.19,3611.21 1363.11,3611.11 1363.61,3610.48C1364.11,3609.85 1364.01,3608.93 1363.38,3608.43C1357.94,3604.08 1353.71,3599.49 1349.36,3594.18C1348.85,3593.56 1347.93,3593.47 1347.31,3593.98C1346.68,3594.49 1346.59,3595.41 1347.1,3596.03Z" style="fill:rgb(26,23,25);"/>
                    <path d="M1357.44,3628.97C1362.82,3634.36 1368.26,3637.98 1375.03,3641.37C1375.75,3641.73 1376.63,3641.44 1376.99,3640.72C1377.35,3640 1377.06,3639.12 1376.34,3638.76C1369.86,3635.52 1364.65,3632.06 1359.51,3626.91C1358.94,3626.34 1358.02,3626.34 1357.45,3626.9C1356.88,3627.47 1356.88,3628.4 1357.44,3628.97Z" style="fill:rgb(26,23,25);"/>
                    <path d="M1407.29,3651.97C1407.99,3657.03 1409.41,3658.73 1411.58,3660.5C1412.84,3661.52 1414.41,3662.55 1416.33,3664.47C1416.9,3665.04 1417.82,3665.04 1418.39,3664.47C1418.96,3663.91 1418.96,3662.98 1418.39,3662.41C1416.38,3660.4 1414.74,3659.31 1413.42,3658.24C1411.73,3656.87 1410.73,3655.5 1410.18,3651.57C1410.07,3650.77 1409.34,3650.21 1408.54,3650.32C1407.74,3650.43 1407.18,3651.17 1407.29,3651.97Z" style="fill:rgb(26,23,25);"/>
                    <path d="M1412.06,3618.9C1416.63,3622.16 1420.49,3626.95 1424.46,3630.93C1425.03,3631.5 1425.95,3631.5 1426.52,3630.93C1427.09,3630.36 1427.09,3629.44 1426.52,3628.87C1422.44,3624.78 1418.45,3619.88 1413.76,3616.53C1413.1,3616.06 1412.19,3616.22 1411.73,3616.87C1411.26,3617.53 1411.41,3618.44 1412.06,3618.9Z" style="fill:rgb(26,23,25);"/>
                    <path d="M1379.8,3601.65C1382.88,3604.12 1385.8,3605.94 1389.27,3607.92C1389.97,3608.32 1390.86,3608.07 1391.26,3607.38C1391.66,3606.68 1391.42,3605.78 1390.72,3605.39C1387.39,3603.48 1384.58,3601.75 1381.63,3599.38C1381,3598.88 1380.08,3598.98 1379.58,3599.6C1379.08,3600.23 1379.18,3601.15 1379.8,3601.65Z" style="fill:rgb(26,23,25);"/>
                    <path d="M1362.88,3575.56C1366.17,3578.07 1365.75,3577.83 1368.97,3580.51C1369.59,3581.02 1370.51,3580.94 1371.02,3580.32C1371.54,3579.7 1371.46,3578.78 1370.84,3578.27C1367.57,3575.54 1368,3575.79 1364.65,3573.24C1364.02,3572.76 1363.1,3572.88 1362.61,3573.52C1362.12,3574.16 1362.25,3575.07 1362.88,3575.56Z" style="fill:rgb(26,23,25);"/>
                    <path d="M1394.54,3571.25C1399.1,3574.31 1408.56,3584.63 1410.93,3589.37C1411.29,3590.09 1412.17,3590.38 1412.89,3590.02C1413.61,3589.66 1413.9,3588.78 1413.54,3588.06C1411.03,3583.04 1401,3572.07 1396.16,3568.83C1395.49,3568.38 1394.59,3568.56 1394.14,3569.22C1393.69,3569.89 1393.87,3570.8 1394.54,3571.25Z" style="fill:rgb(26,23,25);"/>
                    <path d="M1358.66,3591.38C1359.22,3593.61 1360.62,3595.29 1362.3,3596.78C1363.73,3598.05 1365.38,3599.17 1366.72,3600.51C1367.29,3601.08 1368.21,3601.08 1368.78,3600.51C1369.35,3599.94 1369.35,3599.01 1368.78,3598.45C1367.41,3597.07 1365.71,3595.9 1364.23,3594.59C1362.99,3593.49 1361.9,3592.3 1361.48,3590.66C1361.29,3589.88 1360.49,3589.41 1359.71,3589.61C1358.93,3589.81 1358.46,3590.6 1358.66,3591.38Z" style="fill:rgb(26,23,25);"/>
                    <path d="M1339.22,3577.7C1339.06,3577.35 1338.76,3577.05 1338.36,3576.91C1337.28,3576.54 1336.72,3577.14 1336.57,3577.32C1336.31,3577.64 1336.14,3578.05 1336.26,3578.58C1336.29,3578.74 1336.37,3579 1336.6,3579.27C1336.72,3579.42 1337.02,3579.7 1337.48,3580.04C1339.12,3581.27 1343.27,3583.95 1344.7,3584.9C1345.37,3585.35 1346.28,3585.17 1346.72,3584.5C1347.17,3583.83 1346.99,3582.92 1346.32,3582.48C1344.9,3581.53 1340.77,3578.87 1339.22,3577.7Z" style="fill:rgb(26,23,25);"/>
                    <path d="M1434.98,3649.51C1436.28,3651.44 1438.42,3653.34 1440.83,3655.21C1444.19,3657.81 1448.1,3660.36 1450.67,3662.93C1451.24,3663.5 1452.16,3663.5 1452.73,3662.93C1453.3,3662.36 1453.3,3661.44 1452.73,3660.87C1450.51,3658.65 1447.34,3656.43 1444.33,3654.2C1441.53,3652.12 1438.85,3650.04 1437.39,3647.88C1436.94,3647.21 1436.04,3647.03 1435.37,3647.48C1434.7,3647.93 1434.53,3648.84 1434.98,3649.51Z" style="fill:rgb(26,23,25);"/>
                    <path d="M1414.79,3637.3C1416.36,3638.83 1418.1,3641.09 1418.31,3641.32C1418.83,3641.93 1419.75,3642.01 1420.36,3641.48C1420.97,3640.96 1421.04,3640.04 1420.52,3639.43C1420.31,3639.18 1418.45,3636.78 1416.79,3635.18C1415.9,3634.32 1415.02,3633.69 1414.4,3633.48C1413.68,3633.25 1413.09,3633.36 1412.64,3633.65C1412.3,3633.87 1411.99,3634.21 1411.82,3634.76C1411.67,3635.24 1411.63,3636.09 1411.92,3637.41C1412.1,3638.2 1412.88,3638.69 1413.66,3638.52C1414.27,3638.38 1414.71,3637.88 1414.79,3637.3Z" style="fill:rgb(26,23,25);"/>
                    <path d="M1434.34,3604.84C1434.59,3607.4 1436.92,3610.36 1440.11,3613.2C1444.37,3617 1450.1,3620.74 1452.82,3623.47C1453.39,3624.04 1454.31,3624.04 1454.88,3623.47C1455.45,3622.9 1455.45,3621.97 1454.88,3621.41C1452.13,3618.65 1446.36,3614.86 1442.05,3611.02C1440.44,3609.59 1439.05,3608.16 1438.15,3606.78C1437.66,3606.01 1437.32,3605.27 1437.25,3604.56C1437.17,3603.76 1436.45,3603.17 1435.65,3603.25C1434.85,3603.33 1434.27,3604.04 1434.34,3604.84Z" style="fill:rgb(26,23,25);"/>
                    <path d="M1420.13,3590.24C1419.9,3589.81 1419.47,3589.51 1418.95,3589.47C1418.04,3589.41 1417.53,3589.52 1417.35,3589.59C1416.68,3589.87 1416.49,3590.36 1416.42,3590.76C1416.38,3591.08 1416.37,3591.87 1417.3,3592.38C1418.57,3593.09 1428.24,3595.47 1431.67,3597.19C1432.39,3597.55 1433.27,3597.26 1433.63,3596.54C1433.99,3595.82 1433.7,3594.94 1432.98,3594.58C1430.33,3593.26 1423.19,3591.12 1420.13,3590.24Z" style="fill:rgb(26,23,25);"/>
                    <path d="M1457.12,3651.72C1464.68,3657.91 1471.05,3664.66 1477.93,3671.54C1478.5,3672.11 1479.43,3672.11 1480,3671.54C1480.57,3670.97 1480.57,3670.05 1480,3669.48C1473.04,3662.52 1466.6,3655.71 1458.97,3649.46C1458.35,3648.95 1457.43,3649.04 1456.92,3649.67C1456.41,3650.29 1456.5,3651.21 1457.12,3651.72Z" style="fill:rgb(26,23,25);"/>
                    <path d="M1473.35,3643.23C1479.14,3649.33 1485.03,3654.38 1489.98,3661.31C1490.44,3661.97 1491.36,3662.12 1492.01,3661.65C1492.66,3661.18 1492.82,3660.27 1492.35,3659.62C1487.32,3652.58 1481.36,3647.43 1475.47,3641.22C1474.92,3640.64 1473.99,3640.61 1473.41,3641.17C1472.82,3641.72 1472.8,3642.65 1473.35,3643.23Z" style="fill:rgb(26,23,25);"/>
                    <path d="M1470.77,3687.77C1473.72,3687.64 1476.18,3689.01 1478.21,3690.95C1480.41,3693.07 1482.12,3695.86 1483.4,3698.43C1483.76,3699.15 1484.64,3699.44 1485.36,3699.08C1486.08,3698.72 1486.37,3697.84 1486.01,3697.12C1484.59,3694.28 1482.67,3691.19 1480.23,3688.85C1477.62,3686.35 1474.43,3684.69 1470.65,3684.85C1469.84,3684.89 1469.22,3685.57 1469.25,3686.37C1469.29,3687.18 1469.97,3687.8 1470.77,3687.77Z" style="fill:rgb(26,23,25);"/>
                    <path d="M1453.5,3692.05C1453.53,3691.89 1453.52,3691.72 1453.49,3691.55C1453.34,3690.76 1452.57,3690.24 1451.78,3690.39C1451.35,3690.48 1451.05,3690.68 1450.83,3690.94C1450.61,3691.19 1450.46,3691.52 1450.44,3691.94C1450.42,3692.34 1450.66,3693.17 1451.39,3694.16C1453.9,3697.62 1462.6,3706.02 1464.19,3708.01C1464.7,3708.64 1465.62,3708.74 1466.24,3708.24C1466.87,3707.74 1466.97,3706.82 1466.47,3706.19C1465.08,3704.45 1458.25,3697.81 1454.88,3693.86C1454.31,3693.19 1453.77,3692.43 1453.5,3692.05Z" style="fill:rgb(26,23,25);"/>
                    <path d="M1447.26,3723.52C1448.74,3728.11 1451.83,3731.73 1455.41,3735.01C1458.79,3738.1 1462.61,3740.88 1465.74,3744.01C1466.31,3744.58 1467.23,3744.58 1467.8,3744.01C1468.37,3743.44 1468.37,3742.51 1467.8,3741.95C1464.64,3738.79 1460.79,3735.97 1457.38,3732.86C1454.18,3729.93 1451.36,3726.73 1450.04,3722.62C1449.79,3721.86 1448.97,3721.44 1448.2,3721.68C1447.44,3721.93 1447.02,3722.75 1447.26,3723.52Z" style="fill:rgb(26,23,25);"/>
                    <path d="M1435.36,3686.7C1435.88,3686.1 1435.83,3685.2 1435.24,3684.66C1434.64,3684.12 1433.72,3684.17 1433.18,3684.76C1432.43,3685.59 1432.25,3686.58 1432.61,3687.72C1432.95,3688.77 1433.91,3690.05 1435.31,3691.34C1439.95,3695.63 1449.62,3700.79 1450.2,3701.16C1450.88,3701.59 1451.78,3701.39 1452.21,3700.71C1452.64,3700.03 1452.44,3699.13 1451.77,3698.7C1451.2,3698.34 1441.79,3693.36 1437.29,3689.2C1436.61,3688.57 1436.05,3687.97 1435.68,3687.41C1435.56,3687.22 1435.46,3687.04 1435.4,3686.87C1435.38,3686.82 1435.37,3686.74 1435.36,3686.7Z" style="fill:rgb(26,23,25);"/>
                    <path d="M1471.94,3718.68C1473.38,3722.18 1475.69,3724.95 1478.09,3727.66C1480.29,3730.17 1482.56,3732.63 1484.12,3735.74C1484.48,3736.46 1485.35,3736.75 1486.07,3736.39C1486.79,3736.03 1487.09,3735.15 1486.73,3734.43C1485.06,3731.09 1482.64,3728.43 1480.28,3725.74C1478.1,3723.26 1475.95,3720.76 1474.64,3717.57C1474.34,3716.82 1473.48,3716.47 1472.74,3716.77C1471.99,3717.08 1471.64,3717.93 1471.94,3718.68Z" style="fill:rgb(26,23,25);"/>
                    <path d="M1439.97,3741.46C1444.59,3745.52 1449.66,3748.68 1454.34,3752.69C1454.95,3753.22 1455.87,3753.15 1456.39,3752.54C1456.92,3751.93 1456.85,3751 1456.24,3750.48C1451.57,3746.48 1446.51,3743.32 1441.89,3739.27C1441.29,3738.74 1440.37,3738.8 1439.84,3739.4C1439.31,3740.01 1439.37,3740.93 1439.97,3741.46Z" style="fill:rgb(26,23,25);"/>
                    <path d="M1467.24,3774.68C1471.2,3779.12 1477.34,3781.1 1482.62,3783.74C1483.34,3784.1 1484.21,3783.81 1484.57,3783.09C1484.93,3782.37 1484.64,3781.49 1483.92,3781.14C1478.96,3778.66 1473.14,3776.91 1469.41,3772.74C1468.88,3772.14 1467.95,3772.09 1467.35,3772.62C1466.75,3773.16 1466.7,3774.08 1467.24,3774.68Z" style="fill:rgb(26,23,25);"/>
                    <path d="M1449.13,3758.86C1447.57,3761.3 1448.26,3763.47 1450.01,3765.31C1452.01,3767.42 1455.65,3769.05 1457.43,3770.07C1458.13,3770.47 1459.02,3770.23 1459.42,3769.53C1459.82,3768.83 1459.58,3767.94 1458.88,3767.54C1457.27,3766.62 1453.94,3765.22 1452.13,3763.31C1451.34,3762.48 1450.89,3761.53 1451.58,3760.43C1452.02,3759.76 1451.82,3758.85 1451.14,3758.42C1450.46,3757.99 1449.56,3758.18 1449.13,3758.86Z" style="fill:rgb(26,23,25);"/>
                    <path d="M1480.73,3754.83C1481.36,3757.02 1482.66,3758.66 1484.25,3760.16C1485.64,3761.47 1487.25,3762.65 1488.7,3764.1C1489.27,3764.67 1490.19,3764.67 1490.76,3764.1C1491.33,3763.53 1491.33,3762.61 1490.76,3762.04C1489.29,3760.57 1487.66,3759.36 1486.25,3758.04C1485.05,3756.9 1484.01,3755.68 1483.53,3754.02C1483.31,3753.25 1482.5,3752.8 1481.73,3753.02C1480.95,3753.25 1480.51,3754.06 1480.73,3754.83Z" style="fill:rgb(26,23,25);"/>
                    <path d="M1507.39,3787.88C1509.27,3793.13 1513.2,3795.78 1517.62,3798.72C1518.29,3799.17 1519.19,3798.99 1519.64,3798.32C1520.09,3797.65 1519.91,3796.74 1519.24,3796.29C1515.36,3793.71 1511.78,3791.51 1510.14,3786.9C1509.87,3786.14 1509.04,3785.74 1508.28,3786.01C1507.52,3786.28 1507.12,3787.12 1507.39,3787.88Z" style="fill:rgb(26,23,25);"/>
                    <path d="M1473.37,3790.19C1473.56,3790.3 1473.78,3790.43 1473.97,3790.56C1476,3792.02 1478.77,3794.82 1480.31,3795.85C1480.98,3796.3 1481.88,3796.12 1482.33,3795.45C1482.78,3794.78 1482.6,3793.87 1481.93,3793.42C1480.11,3792.21 1476.6,3788.58 1474.56,3787.49C1473.48,3786.91 1472.57,3786.94 1471.99,3787.24C1471.46,3787.51 1470.98,3788.03 1470.87,3789.02C1470.78,3789.82 1471.36,3790.54 1472.16,3790.63C1472.62,3790.68 1473.07,3790.5 1473.37,3790.19Z" style="fill:rgb(26,23,25);"/>
                    <path d="M1505.55,3836.23C1508.41,3837.43 1511.53,3837.79 1514.55,3838.4C1515.34,3838.56 1516.11,3838.05 1516.27,3837.26C1516.43,3836.47 1515.91,3835.7 1515.13,3835.54C1512.29,3834.97 1509.36,3834.66 1506.68,3833.54C1505.93,3833.23 1505.08,3833.58 1504.77,3834.32C1504.46,3835.07 1504.81,3835.92 1505.55,3836.23Z" style="fill:rgb(26,23,25);"/>
                    <path d="M1508.79,3763.42C1509.19,3763.63 1509.91,3764.01 1510.51,3764.39C1513.31,3766.16 1517.51,3769.28 1520.22,3770.99C1521.14,3771.56 1521.9,3771.99 1522.43,3772.19C1522.85,3772.36 1523.2,3772.42 1523.45,3772.42C1524.26,3772.42 1524.91,3771.76 1524.91,3770.96C1524.91,3770.2 1524.33,3769.57 1523.58,3769.51C1523.45,3769.44 1522.28,3768.85 1521.28,3768.2C1517.95,3766.04 1512.89,3762.26 1510.45,3760.97C1509.88,3760.66 1509.39,3760.48 1509.07,3760.41C1508.69,3760.33 1508.38,3760.36 1508.15,3760.41C1507.75,3760.52 1507.45,3760.74 1507.24,3761.03C1507.06,3761.28 1506.92,3761.6 1506.92,3762.01C1506.91,3762.81 1507.56,3763.47 1508.36,3763.48C1508.51,3763.48 1508.65,3763.46 1508.79,3763.42ZM1509.83,3762.2L1509.82,3762.26L1509.82,3762.24L1509.83,3762.2ZM1509.81,3762.33L1509.82,3762.26L1509.8,3762.33L1509.8,3762.35L1509.81,3762.33ZM1509.83,3762.12L1509.83,3762.17L1509.83,3762.14L1509.83,3762.12Z" style="fill:rgb(26,23,25);"/>
                    <path d="M1521.13,3744.4C1521.45,3746.34 1522.91,3748.55 1525.06,3750.69C1529.57,3755.21 1537.09,3759.68 1540.74,3761.5C1541.45,3761.86 1542.33,3761.57 1542.69,3760.85C1543.05,3760.13 1542.76,3759.25 1542.04,3758.89C1539.06,3757.4 1533.36,3754.07 1529.08,3750.43C1526.48,3748.22 1524.35,3745.96 1524.01,3743.93C1523.88,3743.13 1523.13,3742.59 1522.34,3742.72C1521.54,3742.85 1521,3743.61 1521.13,3744.4Z" style="fill:rgb(26,23,25);"/>
                    <path d="M1504.07,3721.43C1504.03,3723.01 1505.06,3725.09 1506.8,3727.26C1510.26,3731.58 1516.43,3736.59 1518.83,3738.99C1519.4,3739.56 1520.32,3739.56 1520.89,3738.99C1521.46,3738.42 1521.46,3737.49 1520.89,3736.92C1518.54,3734.57 1512.47,3729.68 1509.08,3725.44C1507.87,3723.93 1506.96,3722.59 1506.99,3721.5C1507.01,3720.69 1506.37,3720.03 1505.57,3720.01C1504.76,3719.99 1504.09,3720.62 1504.07,3721.43Z" style="fill:rgb(26,23,25);"/>
                    <path d="M1503.89,3707.74C1506.32,3708.44 1511.65,3711.72 1515.55,3715.29C1517.06,3716.67 1518.36,3718.1 1519.14,3719.45C1519.56,3720.16 1519.84,3720.83 1519.84,3721.45C1519.84,3722.26 1520.49,3722.91 1521.3,3722.91C1522.1,3722.91 1522.76,3722.26 1522.76,3721.45C1522.76,3719.6 1521.52,3717.34 1519.5,3715.12C1515.3,3710.49 1507.8,3705.83 1504.69,3704.94C1503.91,3704.72 1503.11,3705.17 1502.88,3705.94C1502.66,3706.72 1503.11,3707.52 1503.89,3707.74Z" style="fill:rgb(26,23,25);"/>
                    <path d="M1507.35,3691.4C1507.66,3691.44 1508.04,3691.49 1508.32,3691.57C1508.58,3691.63 1508.83,3691.68 1508.96,3691.78C1513.94,3695.4 1517.4,3700.25 1521.7,3704.55C1522.27,3705.11 1523.19,3705.11 1523.76,3704.55C1524.33,3703.98 1524.33,3703.05 1523.76,3702.48C1519.36,3698.08 1515.78,3693.13 1510.67,3689.42C1510.05,3688.97 1508.49,3688.56 1507.43,3688.46C1506.78,3688.39 1506.26,3688.47 1506.05,3688.55C1505.13,3688.89 1504.98,3689.58 1505.06,3690.15C1505.09,3690.4 1505.2,3690.99 1506.01,3691.41C1506.45,3691.63 1506.95,3691.61 1507.35,3691.4Z" style="fill:rgb(26,23,25);"/>
                    <path d="M1505.76,3675.24C1507.53,3676.38 1515.83,3683.03 1516.78,3683.83C1517.39,3684.34 1518.32,3684.26 1518.83,3683.64C1519.35,3683.02 1519.26,3682.1 1518.64,3681.59C1517.66,3680.77 1509.02,3673.86 1507.29,3672.76C1506.7,3672.38 1506.24,3672.38 1506.11,3672.39C1505.72,3672.42 1505.44,3672.58 1505.23,3672.77C1504.96,3673.02 1504.77,3673.34 1504.75,3673.8C1504.73,3674.47 1505.15,3675.05 1505.76,3675.24ZM1507.37,3674.74C1507.54,3674.52 1507.65,3674.25 1507.67,3673.91C1507.66,3674.22 1507.55,3674.51 1507.37,3674.74Z" style="fill:rgb(26,23,25);"/>
                    <path d="M1551.45,3734.3C1552.44,3734.45 1553.69,3735.34 1555.08,3736.47C1558.89,3739.58 1563.34,3744.75 1565.47,3746.88C1566.04,3747.45 1566.96,3747.45 1567.53,3746.88C1568.1,3746.31 1568.1,3745.39 1567.53,3744.82C1565.36,3742.64 1560.81,3737.38 1556.93,3734.22C1555.03,3732.66 1553.23,3731.62 1551.89,3731.42C1551.1,3731.3 1550.35,3731.84 1550.23,3732.64C1550.11,3733.43 1550.65,3734.18 1551.45,3734.3Z" style="fill:rgb(26,23,25);"/>
                    <path d="M1531.76,3739.15C1533.81,3741.06 1536.46,3742.66 1538.92,3744.43C1541.14,3746.03 1543.22,3747.75 1544.39,3750.09C1544.75,3750.81 1545.62,3751.1 1546.35,3750.74C1547.07,3750.38 1547.36,3749.5 1547,3748.78C1545.62,3746.03 1543.24,3743.94 1540.63,3742.07C1538.26,3740.37 1535.72,3738.85 1533.74,3737.01C1533.15,3736.47 1532.23,3736.5 1531.68,3737.09C1531.13,3737.68 1531.17,3738.6 1531.76,3739.15Z" style="fill:rgb(26,23,25);"/>
                    <path d="M1561.9,3755.36C1565.99,3761.17 1571.9,3766.94 1576.95,3771.99C1577.52,3772.56 1578.44,3772.56 1579.01,3771.99C1579.58,3771.42 1579.58,3770.5 1579.01,3769.93C1574.08,3764.99 1568.28,3759.37 1564.28,3753.68C1563.82,3753.02 1562.91,3752.86 1562.25,3753.32C1561.59,3753.79 1561.43,3754.7 1561.9,3755.36Z" style="fill:rgb(26,23,25);"/>
                    <path d="M1532.83,3713.02C1533.09,3712.97 1533.38,3713.12 1533.72,3713.3C1534.31,3713.62 1534.94,3714.12 1535.61,3714.72C1539.14,3717.93 1543.2,3723.89 1544.66,3725.35C1545.23,3725.92 1546.15,3725.92 1546.72,3725.35C1547.29,3724.78 1547.29,3723.86 1546.72,3723.29C1545.25,3721.82 1541.14,3715.8 1537.57,3712.56C1536.52,3711.6 1535.49,3710.87 1534.58,3710.48C1533.75,3710.12 1532.97,3710.02 1532.29,3710.15C1531.5,3710.3 1530.97,3711.06 1531.12,3711.85C1531.27,3712.64 1532.04,3713.17 1532.83,3713.02Z" style="fill:rgb(26,23,25);"/>
                    <path d="M1582.33,3754.43C1583.2,3757.63 1587.1,3762.94 1591.42,3766.64C1594.45,3769.23 1597.7,3770.98 1600.22,3770.98C1601.03,3770.98 1601.68,3770.33 1601.68,3769.52C1601.68,3768.72 1601.03,3768.07 1600.22,3768.07C1598.22,3768.07 1595.73,3766.48 1593.32,3764.42C1589.49,3761.14 1585.92,3756.51 1585.14,3753.66C1584.93,3752.88 1584.13,3752.42 1583.36,3752.64C1582.58,3752.85 1582.12,3753.65 1582.33,3754.43Z" style="fill:rgb(26,23,25);"/>
                    <path d="M1446.13,3777.06C1449.48,3783.22 1453.6,3789.27 1458.56,3794.23C1459.13,3794.8 1460.05,3794.8 1460.62,3794.23C1461.19,3793.66 1461.19,3792.74 1460.62,3792.17C1455.86,3787.4 1451.91,3781.58 1448.69,3775.66C1448.31,3774.95 1447.42,3774.69 1446.71,3775.08C1446.01,3775.46 1445.74,3776.35 1446.13,3777.06Z" style="fill:rgb(26,23,25);"/>
                    <path d="M1430.18,3751.25C1431.69,3753.12 1432.88,3755.18 1434.29,3756.97C1435.88,3758.98 1437.74,3760.67 1440.48,3761.58C1441.24,3761.84 1442.07,3761.42 1442.32,3760.66C1442.58,3759.89 1442.16,3759.07 1441.4,3758.81C1439.26,3758.1 1437.83,3756.74 1436.58,3755.16C1435.16,3753.36 1433.97,3751.3 1432.45,3749.42C1431.94,3748.79 1431.02,3748.7 1430.4,3749.2C1429.77,3749.71 1429.67,3750.63 1430.18,3751.25Z" style="fill:rgb(26,23,25);"/>
                    <path d="M1419.49,3714.26C1419.58,3714.27 1419.67,3714.34 1419.78,3714.41C1419.97,3714.53 1420.17,3714.67 1420.38,3714.85C1421,3715.38 1421.69,3716.13 1422.41,3717.02C1425.96,3721.4 1430.19,3728.98 1430.94,3731.24C1431.2,3732 1432.02,3732.42 1432.79,3732.16C1433.55,3731.91 1433.96,3731.08 1433.71,3730.32C1432.91,3727.92 1428.45,3719.84 1424.67,3715.18C1423.64,3713.9 1422.64,3712.87 1421.78,3712.24C1420.96,3711.64 1420.19,3711.37 1419.57,3711.35C1418.76,3711.33 1418.09,3711.97 1418.07,3712.77C1418.05,3713.57 1418.69,3714.24 1419.49,3714.26Z" style="fill:rgb(26,23,25);"/>
                    <path d="M1385.45,3698.77C1385.88,3703.98 1389.95,3708.35 1394.21,3711.18C1394.88,3711.63 1395.78,3711.45 1396.23,3710.78C1396.68,3710.11 1396.5,3709.2 1395.83,3708.76C1392.28,3706.39 1388.71,3702.88 1388.36,3698.53C1388.29,3697.73 1387.58,3697.14 1386.78,3697.2C1385.98,3697.27 1385.38,3697.97 1385.45,3698.77Z" style="fill:rgb(26,23,25);"/>
                    <path d="M1361.73,3664.36C1363.75,3670.26 1365.68,3675.68 1369.45,3680.71C1369.94,3681.36 1370.85,3681.49 1371.5,3681C1372.14,3680.52 1372.27,3679.61 1371.79,3678.96C1368.21,3674.19 1366.4,3669.02 1364.49,3663.41C1364.23,3662.65 1363.4,3662.24 1362.64,3662.5C1361.88,3662.76 1361.47,3663.59 1361.73,3664.36Z" style="fill:rgb(26,23,25);"/>
                    <path d="M1322.17,3631.97C1322.9,3637.64 1324.76,3640.34 1328.69,3644.28C1329.26,3644.84 1330.19,3644.84 1330.76,3644.28C1331.32,3643.71 1331.32,3642.78 1330.76,3642.21C1327.35,3638.81 1325.69,3636.5 1325.07,3631.6C1324.96,3630.8 1324.23,3630.23 1323.43,3630.33C1322.64,3630.44 1322.07,3631.17 1322.17,3631.97Z" style="fill:rgb(26,23,25);"/>
                    <path d="M1333.2,3629.02C1333.81,3633.82 1337.15,3636.75 1341.27,3638.81C1341.99,3639.17 1342.87,3638.88 1343.23,3638.16C1343.59,3637.44 1343.29,3636.56 1342.57,3636.2C1339.34,3634.59 1336.57,3632.42 1336.1,3628.66C1336,3627.86 1335.27,3627.29 1334.47,3627.39C1333.67,3627.49 1333.1,3628.22 1333.2,3629.02Z" style="fill:rgb(26,23,25);"/>
                    <path d="M1333.59,3597.35C1334.35,3604.21 1336.05,3607.28 1341.79,3611.42C1342.44,3611.89 1343.35,3611.74 1343.82,3611.09C1344.29,3610.44 1344.14,3609.53 1343.49,3609.06C1338.59,3605.52 1337.14,3602.89 1336.49,3597.03C1336.4,3596.23 1335.68,3595.65 1334.88,3595.74C1334.08,3595.83 1333.5,3596.55 1333.59,3597.35Z" style="fill:rgb(26,23,25);"/>
                    <path d="M1371.88,3564.35L1372,3564.45C1374.7,3566.66 1387.71,3579.38 1390.62,3581.32C1391.29,3581.76 1392.2,3581.58 1392.64,3580.91C1393.09,3580.24 1392.91,3579.34 1392.24,3578.89C1389.36,3576.97 1376.52,3564.37 1373.85,3562.19C1373.33,3561.77 1372.94,3561.61 1372.8,3561.58C1372.39,3561.48 1372.07,3561.57 1371.85,3561.67C1371.49,3561.83 1371.23,3562.09 1371.08,3562.47C1370.79,3563.21 1371.14,3564.05 1371.88,3564.35ZM1373.06,3564.33C1373.41,3564.17 1373.65,3563.91 1373.79,3563.55C1373.65,3563.91 1373.38,3564.17 1373.06,3564.33Z" style="fill:rgb(26,23,25);"/>
                    <path d="M1404.49,3601.57C1403.75,3605.31 1405.6,3607.74 1408.27,3609.69C1410.41,3611.26 1413.13,3612.48 1414.79,3614.14C1415.36,3614.71 1416.29,3614.71 1416.86,3614.14C1417.42,3613.57 1417.42,3612.65 1416.86,3612.08C1415.1,3610.32 1412.26,3609 1410,3607.34C1408.26,3606.07 1406.87,3604.57 1407.35,3602.13C1407.51,3601.34 1406.99,3600.58 1406.2,3600.42C1405.41,3600.26 1404.64,3600.78 1404.49,3601.57Z" style="fill:rgb(26,23,25);"/>
                    <path d="M1444.09,3625.95C1443.47,3628.69 1444.71,3631.71 1446.86,3634.58C1449.7,3638.36 1454.07,3641.94 1456.41,3644.28C1456.98,3644.84 1457.9,3644.84 1458.47,3644.28C1459.04,3643.71 1459.04,3642.78 1458.47,3642.21C1456.2,3639.95 1451.95,3636.5 1449.19,3632.83C1447.62,3630.73 1446.48,3628.59 1446.93,3626.58C1447.11,3625.8 1446.61,3625.02 1445.83,3624.84C1445.04,3624.67 1444.26,3625.16 1444.09,3625.95Z" style="fill:rgb(26,23,25);"/>
                    <path d="M1453.74,3669.66C1453.09,3670.53 1452.86,3671.37 1452.88,3672.14C1452.92,3673.24 1453.5,3674.28 1454.5,3675.18C1456.24,3676.77 1459.44,3678 1460.99,3678.93C1461.68,3679.35 1462.58,3679.12 1463,3678.43C1463.41,3677.74 1463.18,3676.85 1462.5,3676.43C1461.26,3675.69 1458.94,3674.79 1457.24,3673.63C1456.83,3673.35 1456.46,3673.06 1456.18,3672.75C1455.99,3672.53 1455.83,3672.32 1455.8,3672.08C1455.78,3671.86 1455.89,3671.65 1456.08,3671.41C1456.56,3670.76 1456.43,3669.85 1455.78,3669.36C1455.14,3668.88 1454.22,3669.01 1453.74,3669.66Z" style="fill:rgb(26,23,25);"/>
                    <path d="M1490.67,3718.45C1493.66,3721.71 1493.09,3721.53 1496.97,3723.47C1497.69,3723.83 1498.56,3723.54 1498.92,3722.82C1499.28,3722.1 1498.99,3721.22 1498.27,3720.87C1494.9,3719.18 1495.42,3719.31 1492.82,3716.48C1492.28,3715.89 1491.36,3715.85 1490.76,3716.39C1490.17,3716.93 1490.13,3717.86 1490.67,3718.45Z" style="fill:rgb(26,23,25);"/>
                </g>
            </g>
            <g transform="matrix(0.988072,-0.15399,0.15399,0.988072,45.7016,707.048)">
                <g transform="matrix(1,0,0,1,-34.5257,35.4232)">
                    <path d="M1412.92,3922.53C1412.2,3919.78 1438.15,3871.09 1429.04,3864.56C1421.74,3859.34 1411.65,3894.73 1407.52,3901.61C1391.99,3927.5 1378.02,3946.57 1351.45,3964.28C1338.7,3972.78 1324.69,3977.6 1311.2,3984.73C1278.53,4002.03 1245.54,4019.71 1214.89,4040.15C1204.91,4046.8 1189.76,4047.47 1181.25,4055.98C1173.08,4064.15 1168.35,4084.66 1166.82,4095.37C1160.47,4139.8 1179.41,4185.6 1218.04,4208.77C1264.95,4236.92 1329.37,4177.93 1370.86,4157.18C1410,4137.61 1443.88,4124.68 1481.41,4102.16C1510,4085.01 1537.6,4070.43 1558.6,4053.89C1574.67,4041.24 1587.49,4029.74 1590.34,4001.24C1592.16,3982.97 1588.8,3965 1585.83,3947.81C1581.67,3923.68 1571.82,3904.66 1557.62,3891.48C1546.55,3881.21 1532.84,3874.49 1517.1,3871.68C1488.16,3866.51 1465.32,3883.23 1439.85,3891.72C1434.41,3893.53 1412.92,3915.01 1412.92,3922.53Z" style="fill:rgb(170,148,131);"/>
                </g>
                <g transform="matrix(1,0,0,1,-34.5257,35.4232)">
                    <path d="M1485.61,3887.59C1436.31,3892.83 1417.82,3941.97 1391.69,3976.82C1387.82,3981.97 1384.05,3989.98 1378.49,3993.31C1367.24,4000.06 1351.47,4002.77 1338.25,4000.57C1333.35,3999.75 1331.25,3993.71 1325.72,3995.29C1313.06,3998.91 1299.67,4009.98 1288.12,4016.4C1259.19,4032.47 1228.54,4045.25 1199.72,4061.26C1194.54,4064.13 1188.34,4066.69 1184.54,4070.49C1180.61,4074.43 1167.51,4105.48 1177.29,4107.44C1192.37,4110.45 1236.89,4078.01 1249.85,4071.15C1268.67,4061.19 1287.72,4051.4 1306.59,4041.47C1338.9,4024.46 1371.77,4008.63 1402.9,3989.35C1417.09,3980.57 1458.36,3959.81 1467.55,3944.49C1479.08,3925.28 1467.02,3904.13 1486.68,3884.46" style="fill:rgb(218,189,164);"/>
                </g>
                <g transform="matrix(1,0,0,1,-34.5257,35.4232)">
                    <path d="M1553.16,4050.39C1540.49,4058.28 1500.96,4024.76 1496.58,4026.95C1482.47,4034.01 1475.66,4052.78 1462.93,4061.26C1450.64,4069.46 1435.18,4071.58 1422.69,4079.07C1382.75,4103.04 1345.29,4130.93 1302.63,4150.32C1296.39,4153.15 1225.27,4192.59 1223.46,4199.8C1221.93,4205.95 1238.55,4206.02 1241.94,4206.39C1261.97,4208.62 1285.32,4201.49 1303.29,4193.2C1324.74,4183.3 1343.14,4166.67 1363.98,4156.26C1391.15,4142.67 1417.55,4126.4 1443.8,4111.4C1470.83,4095.95 1500.91,4082.42 1525.61,4063.9C1530.66,4060.11 1539.41,4058.67 1543.42,4054.66" style="fill:rgb(139,122,108);"/>
                </g>
                <g transform="matrix(1,0,0,1,-34.5257,35.4232)">
                    <path d="M1496.92,3887.16C1477.34,3883.89 1475.73,3923.85 1477.45,3935.92C1479.84,3952.64 1498.89,4000.91 1507.8,4015.74C1516.69,4030.57 1547.09,4045.08 1563.87,4039.49C1579.4,4034.31 1579.5,4017.65 1583.66,4005.18C1595.76,3968.89 1579.73,3915.49 1548.04,3894.36C1543.46,3891.3 1492.62,3869.15 1492.62,3887.1" style="fill:rgb(251,215,185);"/>
                </g>
                <g transform="matrix(1.15967,0,0,1.15967,-260.094,-585.132)">
                    <path d="M1425.42,3895.63C1429.29,3885.53 1430.89,3874.32 1430.89,3869C1430.89,3868.39 1430.72,3867.74 1430.35,3867.11C1429.86,3866.28 1428.94,3865.44 1427.93,3864.91C1426.88,3864.37 1425.77,3864.19 1424.97,3864.31C1423.76,3864.5 1422.88,3865.18 1422.45,3866.36C1415.93,3884.34 1395.23,3921.97 1380.18,3937.02C1368.08,3949.12 1283.15,3996.12 1244.17,4014.46C1238.38,4017.18 1233.61,4019.27 1230.25,4020.51C1229.48,4020.79 1228.8,4021.03 1228.22,4021.22C1212.75,4022.63 1202.33,4037.45 1198.26,4057.79C1191.24,4092.88 1203.25,4144.03 1238.45,4164.15C1258.7,4175.72 1280.8,4173.77 1302.52,4165.69C1334.15,4153.94 1364.98,4129.09 1387.66,4116.14C1415.79,4100.06 1480.73,4072.71 1523.65,4044.76C1542.49,4032.49 1557.11,4020.02 1562.93,4008.38C1567.92,3998.38 1569.11,3984.97 1568.3,3970.79C1567.11,3950.12 1561.75,3927.79 1558.7,3912.52C1557.35,3905.8 1552.9,3900.93 1547.66,3896.79C1542.97,3893.09 1537.66,3889.99 1534,3886.34C1523,3875.33 1508.48,3870.82 1493.14,3870.75C1470.62,3870.65 1446.35,3880.19 1429.4,3892.29C1428.01,3893.28 1426.69,3894.41 1425.42,3895.63ZM1226.13,4026.65C1214.21,4029.3 1206.51,4042.19 1203.19,4058.78C1196.54,4092.06 1207.56,4140.7 1240.95,4159.78C1259.85,4170.58 1280.49,4168.52 1300.76,4160.98C1332.13,4149.32 1362.67,4124.62 1385.16,4111.77C1413.24,4095.72 1478.06,4068.44 1520.91,4040.55C1538.83,4028.88 1552.89,4017.2 1558.43,4006.13C1563.09,3996.82 1564.03,3984.3 1563.27,3971.08C1562.1,3950.66 1556.78,3928.59 1553.77,3913.5C1552.66,3908 1548.83,3904.14 1544.54,3900.74C1539.69,3896.91 1534.23,3893.67 1530.45,3889.89C1520.41,3879.85 1507.11,3875.84 1493.12,3875.78C1471.64,3875.68 1448.49,3884.84 1432.33,3896.38C1428.2,3899.33 1424.79,3903.64 1421.32,3907.72C1417.48,3912.23 1413.57,3916.47 1408.87,3918.82C1408.09,3919.2 1407.49,3919.1 1407.15,3919.02C1406.39,3918.84 1405.87,3918.41 1405.52,3917.79C1405.4,3917.57 1404.75,3916.4 1405.73,3915C1406.4,3914.04 1411.63,3908.24 1413.08,3906.78C1421.54,3898.33 1425.09,3880.82 1425.74,3871.8C1417.82,3891.31 1398.21,3926.1 1383.74,3940.57C1371.5,3952.81 1285.72,4000.47 1246.31,4019.01C1243.62,4020.28 1241.14,4021.41 1238.92,4022.38C1239.79,4022.95 1240.26,4024.03 1239.99,4025.1C1239.66,4026.44 1238.3,4027.27 1236.95,4026.94C1234.11,4026.24 1231.43,4026.02 1228.92,4026.23C1227.81,4026.53 1226.95,4026.66 1226.37,4026.66C1226.29,4026.66 1226.21,4026.66 1226.13,4026.65Z" style="fill:rgb(26,23,25);"/>
                    <path d="M1353.58,3977.98C1353.57,3977.91 1353.55,3977.78 1353.55,3977.68C1353.54,3977.26 1353.62,3976.73 1353.75,3976.12C1354.45,3972.86 1356.73,3967.7 1358.78,3964.18C1359.37,3963.18 1359.93,3962.31 1360.44,3961.68C1360.66,3962.04 1361.06,3962.28 1361.51,3962.28C1362.21,3962.28 1362.77,3961.72 1362.77,3961.02C1362.77,3960.25 1362.64,3959.72 1362.48,3959.39C1362.21,3958.85 1361.83,3958.59 1361.42,3958.47C1360.95,3958.33 1360.29,3958.39 1359.58,3958.95C1358.92,3959.47 1358.03,3960.59 1357.11,3962.09C1355.13,3965.29 1352.82,3970.26 1351.72,3973.95C1351.19,3975.69 1350.96,3977.18 1351.06,3978.13C1351.14,3978.84 1351.39,3979.36 1351.73,3979.69C1352.41,3980.38 1354.03,3980.95 1356.13,3981.19C1360.4,3981.69 1366.74,3981.15 1369.19,3979.93C1379.29,3974.88 1391.01,3963.84 1400.56,3951.08C1410.12,3938.29 1417.48,3923.78 1418.93,3911.88C1419.02,3911.2 1418.52,3910.57 1417.84,3910.48C1417.15,3910.4 1416.52,3910.89 1416.43,3911.58C1415.03,3923.12 1407.82,3937.17 1398.55,3949.57C1389.26,3961.99 1377.89,3972.77 1368.06,3977.68C1365.88,3978.77 1360.22,3979.14 1356.42,3978.69C1355.64,3978.6 1354.94,3978.47 1354.37,3978.3C1354.04,3978.2 1353.76,3978.11 1353.58,3977.98Z" style="fill:rgb(26,23,25);"/>
                    <path d="M1338.97,3988.09C1339.67,3987.24 1340.76,3986.73 1342.1,3986.4C1344.46,3985.82 1347.53,3985.8 1350.89,3985.91C1356.21,3986.08 1362.24,3986.58 1367.57,3985.93C1371.32,3985.48 1374.73,3984.47 1377.38,3982.48C1377.94,3982.06 1378.05,3981.27 1377.63,3980.72C1377.22,3980.16 1376.43,3980.05 1375.87,3980.47C1373.56,3982.2 1370.55,3983.04 1367.27,3983.44C1362.06,3984.07 1356.17,3983.57 1350.98,3983.4C1347.34,3983.28 1344.04,3983.33 1341.5,3983.96C1339.57,3984.44 1338.04,3985.26 1337.02,3986.49C1336.58,3987.03 1336.66,3987.82 1337.2,3988.26C1337.73,3988.7 1338.53,3988.63 1338.97,3988.09Z" style="fill:rgb(26,23,25);"/>
                    <path d="M1503.45,3877.16C1493.3,3876.78 1485.51,3879.45 1479.75,3884.27C1474,3889.07 1470.28,3896.05 1468.32,3904.38C1464.49,3920.67 1467.45,3942.24 1474.94,3962.55C1482.42,3982.83 1494.41,4001.85 1508.54,4013.13C1522.96,4024.64 1539.59,4028.16 1556.04,4017.19C1556.62,4016.81 1556.77,4016.03 1556.39,4015.45C1556,4014.87 1555.22,4014.72 1554.64,4015.1C1539.22,4025.39 1523.63,4021.95 1510.11,4011.16C1496.29,4000.14 1484.61,3981.51 1477.3,3961.68C1469.99,3941.87 1467.03,3920.85 1470.77,3904.95C1472.59,3897.19 1476.01,3890.67 1481.36,3886.19C1486.7,3881.73 1493.95,3879.32 1503.36,3879.68C1504.05,3879.7 1504.63,3879.16 1504.66,3878.47C1504.69,3877.78 1504.14,3877.19 1503.45,3877.16Z" style="fill:rgb(26,23,25);"/>
                    <path d="M1483.37,3976.09C1482.89,3976.7 1482.26,3977.47 1481.6,3978.18C1479.49,3980.43 1476.65,3983.09 1474.83,3983.87C1473.43,3984.47 1456.64,3993.02 1451.16,3997.6C1449.93,3998.63 1449.24,3999.58 1449.08,4000.21C1448.91,4000.9 1449.08,4001.47 1449.54,4001.92C1449.89,4002.28 1450.33,4002.45 1450.82,4002.47C1451.08,4002.49 1451.36,4002.45 1451.65,4002.39C1451.84,4002.36 1452.03,4002.29 1452.2,4002.29C1466.7,4002.29 1481.92,3996.07 1494.88,3996.07C1495.58,3996.07 1496.14,3995.5 1496.14,3994.81C1496.14,3994.12 1495.58,3993.55 1494.88,3993.55C1482.01,3993.55 1466.9,3999.69 1452.5,3999.77C1452.59,3999.69 1452.68,3999.6 1452.78,3999.53C1458.11,3995.07 1474.45,3986.77 1475.82,3986.18C1477.86,3985.31 1481.08,3982.41 1483.44,3979.89C1485.08,3978.14 1486.29,3976.55 1486.52,3975.94C1486.79,3975.25 1486.57,3974.77 1486.38,3974.52C1486.17,3974.23 1485.86,3974.01 1485.38,3973.98C1485.16,3973.97 1484.61,3974.06 1483.82,3974.61C1483.34,3974.95 1483.17,3975.56 1483.37,3976.09Z" style="fill:rgb(26,23,25);"/>
                    <path d="M1482.4,3896.04C1486.08,3909.44 1495.48,3934.95 1505.55,3945.02C1506.04,3945.51 1506.84,3945.51 1507.33,3945.02C1507.82,3944.53 1507.82,3943.73 1507.33,3943.24C1497.5,3933.41 1488.42,3908.45 1484.82,3895.38C1484.64,3894.71 1483.95,3894.31 1483.28,3894.5C1482.61,3894.68 1482.21,3895.37 1482.4,3896.04Z" style="fill:rgb(26,23,25);"/>
                    <path d="M1525.74,3893.08C1525.27,3905.9 1525.63,3918.86 1525.63,3931.68C1525.63,3932.38 1526.2,3932.94 1526.89,3932.94C1527.58,3932.94 1528.15,3932.38 1528.15,3931.68C1528.15,3918.89 1527.79,3905.97 1528.26,3893.18C1528.28,3892.48 1527.74,3891.9 1527.05,3891.87C1526.35,3891.85 1525.77,3892.39 1525.74,3893.08Z" style="fill:rgb(26,23,25);"/>
                    <path d="M1505.5,3997.69C1506.86,3985.74 1510.09,3974.73 1512.99,3963.11C1513.16,3962.43 1512.75,3961.75 1512.08,3961.58C1511.41,3961.41 1510.72,3961.82 1510.55,3962.49C1507.62,3974.23 1504.37,3985.34 1503,3997.4C1502.92,3998.09 1503.42,3998.72 1504.11,3998.79C1504.8,3998.87 1505.42,3998.38 1505.5,3997.69Z" style="fill:rgb(26,23,25);"/>
                    <path d="M1532.36,3958.41C1534.39,3972.73 1542.55,3986.27 1548.88,3998.93C1549.19,3999.55 1549.95,3999.8 1550.57,3999.49C1551.19,3999.18 1551.44,3998.42 1551.13,3997.8C1544.92,3985.38 1536.85,3972.11 1534.85,3958.06C1534.76,3957.37 1534.12,3956.89 1533.43,3956.99C1532.74,3957.09 1532.27,3957.72 1532.36,3958.41Z" style="fill:rgb(26,23,25);"/>
                    <path d="M1475.96,3932.53C1476.68,3932.01 1477.68,3932.05 1478.87,3932.34C1480.39,3932.71 1482.15,3933.53 1484.04,3934.63C1493.38,3940.05 1505.67,3952.07 1508.37,3954.04C1508.93,3954.45 1509.72,3954.32 1510.12,3953.76C1510.53,3953.2 1510.41,3952.41 1509.85,3952C1507.12,3950.02 1494.72,3937.92 1485.3,3932.45C1482.72,3930.96 1480.33,3929.95 1478.39,3929.7C1476.82,3929.49 1475.5,3929.75 1474.48,3930.49C1473.92,3930.9 1473.8,3931.69 1474.21,3932.25C1474.61,3932.81 1475.4,3932.93 1475.96,3932.53Z" style="fill:rgb(26,23,25);"/>
                    <path d="M1508.74,3904.11C1514.55,3917.49 1518.49,3925.38 1521.21,3940.79C1521.33,3941.47 1521.98,3941.93 1522.66,3941.81C1523.35,3941.69 1523.8,3941.04 1523.68,3940.35C1520.92,3924.71 1516.94,3916.69 1511.05,3903.11C1510.77,3902.47 1510.03,3902.18 1509.39,3902.45C1508.75,3902.73 1508.46,3903.47 1508.74,3904.11Z" style="fill:rgb(26,23,25);"/>
                    <path d="M1517.1,3917.43C1509.63,3918 1504.9,3920.36 1502.12,3923.75C1499.32,3927.18 1498.48,3931.72 1499,3936.8C1500.49,3951.13 1513.05,3969.91 1518.76,3977.77C1519.17,3978.33 1519.95,3978.45 1520.52,3978.04C1521.08,3977.64 1521.2,3976.85 1520.79,3976.29C1515.24,3968.66 1502.95,3950.46 1501.5,3936.54C1501.05,3932.19 1501.67,3928.28 1504.07,3925.34C1506.51,3922.36 1510.73,3920.44 1517.29,3919.93C1517.98,3919.88 1518.5,3919.27 1518.45,3918.58C1518.39,3917.89 1517.79,3917.37 1517.1,3917.43Z" style="fill:rgb(26,23,25);"/>
                    <path d="M1526.34,3909.32C1542.13,3929.48 1549.06,3940.09 1543.64,3967.18C1542.91,3970.81 1542.76,3973.07 1542.55,3974.76C1542.27,3976.99 1541.82,3978.1 1539.34,3980.58C1538.85,3981.07 1538.85,3981.87 1539.34,3982.36C1539.83,3982.85 1540.62,3982.85 1541.12,3982.36C1544.2,3979.28 1544.69,3977.86 1545.04,3975.07C1545.25,3973.42 1545.39,3971.22 1546.11,3967.67C1551.71,3939.64 1544.66,3928.63 1528.32,3907.76C1527.89,3907.22 1527.1,3907.12 1526.56,3907.55C1526.01,3907.98 1525.91,3908.77 1526.34,3909.32Z" style="fill:rgb(26,23,25);"/>
                    <path d="M1508.16,3898.6C1501.61,3897.23 1496.24,3898.07 1491.93,3900.49C1487.64,3902.91 1484.4,3906.91 1482.14,3911.98C1477.78,3921.77 1477.12,3935.61 1479.42,3949.16C1481.73,3962.69 1486.99,3975.91 1494.34,3984.53C1501.95,3993.45 1511.79,3997.51 1522.97,3992.4C1523.6,3992.11 1523.88,3991.36 1523.59,3990.73C1523.3,3990.1 1522.55,3989.82 1521.92,3990.11C1511.88,3994.7 1503.09,3990.91 1496.25,3982.89C1489.15,3974.58 1484.13,3961.79 1481.9,3948.74C1479.69,3935.72 1480.25,3922.41 1484.44,3913C1486.46,3908.46 1489.32,3904.85 1493.17,3902.68C1497,3900.53 1501.8,3899.84 1507.64,3901.06C1508.32,3901.2 1508.99,3900.76 1509.13,3900.09C1509.27,3899.41 1508.84,3898.74 1508.16,3898.6Z" style="fill:rgb(26,23,25);"/>
                    <path d="M1527.25,3998.28C1530.78,4002.18 1534.07,4003.32 1536.98,4002.92C1539.86,4002.52 1542.46,4000.54 1544.68,3997.8C1547.41,3994.43 1549.59,3989.94 1551.16,3986.43C1551.44,3985.79 1551.15,3985.05 1550.52,3984.77C1549.88,3984.49 1549.14,3984.77 1548.86,3985.41C1547.37,3988.74 1545.32,3993.02 1542.73,3996.22C1540.95,3998.41 1538.94,4000.11 1536.64,4000.43C1534.36,4000.74 1531.88,3999.64 1529.11,3996.59C1528.64,3996.07 1527.85,3996.03 1527.33,3996.5C1526.82,3996.97 1526.78,3997.76 1527.25,3998.28Z" style="fill:rgb(26,23,25);"/>
                    <path d="M1412.4,4078.21C1412.38,4078.18 1412.35,4078.12 1412.34,4078.08C1412.29,4077.91 1412.28,4077.72 1412.28,4077.51C1412.27,4076.11 1412.95,4074.24 1413.27,4073.7C1416.93,4067.59 1425.94,4060.53 1431.62,4056.28C1432.36,4055.72 1433.74,4055.06 1434.92,4054.41C1435.88,4053.88 1436.72,4053.34 1437.2,4052.87C1437.73,4052.34 1437.92,4051.78 1437.91,4051.31C1437.89,4050.76 1437.64,4050.14 1436.76,4049.7C1435.19,4048.92 1433,4048.87 1430.32,4049.56C1426.76,4050.48 1422.24,4052.68 1417.18,4055.68C1398.04,4067.06 1371.06,4089.99 1360.95,4095.05C1359.49,4095.77 1355.22,4097.15 1353.93,4097.67C1352.1,4098.4 1350.71,4099.64 1350.03,4100.93C1349.47,4101.98 1349.36,4103.07 1349.7,4104.06C1350.2,4105.48 1351.79,4106.86 1355.16,4107.2C1360.97,4107.78 1366.66,4106.94 1372.32,4106.31C1372.44,4106.3 1372.56,4106.28 1372.69,4106.26C1369.28,4107.52 1365.26,4108.9 1364.51,4109.27C1337.87,4122.59 1300.89,4139.01 1279.71,4160.19C1279.22,4160.68 1279.22,4161.47 1279.71,4161.97C1280.2,4162.45 1281,4162.45 1281.49,4161.97C1302.5,4140.96 1339.21,4124.73 1365.63,4111.52C1366.71,4110.98 1374.57,4108.37 1377.66,4106.98C1378.51,4106.6 1379.06,4106.24 1379.26,4106.03C1379.59,4105.68 1379.66,4105.32 1379.66,4105.06C1379.66,4104.49 1379.49,4104.06 1379.24,4103.72C1378.89,4103.25 1378.34,4102.94 1377.59,4102.85C1376.94,4102.78 1376.07,4102.89 1375.15,4103.1C1374.06,4103.35 1372.87,4103.72 1372.04,4103.81C1366.56,4104.42 1361.04,4105.26 1355.41,4104.7C1354.3,4104.59 1353.45,4104.36 1352.85,4104.02C1352.45,4103.8 1352.18,4103.54 1352.08,4103.23C1351.91,4102.75 1352.13,4102.23 1352.49,4101.73C1353,4101.03 1353.84,4100.41 1354.87,4100C1356.19,4099.48 1360.58,4098.04 1362.08,4097.29C1372.21,4092.23 1399.27,4069.25 1418.47,4057.85C1423.27,4054.99 1427.57,4052.87 1430.95,4052C1432.39,4051.62 1433.65,4051.46 1434.66,4051.64C1434.56,4051.71 1434.46,4051.78 1434.36,4051.83C1432.96,4052.66 1431.06,4053.55 1430.11,4054.26C1424.21,4058.68 1414.92,4066.07 1411.11,4072.41C1410.59,4073.28 1409.43,4076.64 1409.87,4078.57C1410.01,4079.19 1410.3,4079.7 1410.7,4080.07C1411.13,4080.47 1411.71,4080.73 1412.5,4080.73C1418.94,4080.73 1426.23,4076.74 1433.5,4071.41C1443.98,4063.73 1454.5,4053.31 1462.55,4049.28C1477.85,4041.63 1494.92,4038.46 1511.69,4036.59C1512.38,4036.51 1512.88,4035.89 1512.8,4035.2C1512.72,4034.51 1512.1,4034.01 1511.41,4034.09C1494.35,4036 1476.99,4039.25 1461.42,4047.03C1453.28,4051.1 1442.61,4061.61 1432.01,4069.38C1425.23,4074.35 1418.51,4078.22 1412.5,4078.22C1412.47,4078.22 1412.42,4078.21 1412.4,4078.21Z" style="fill:rgb(26,23,25);"/>
                    <path d="M1215.93,4055.11C1215.7,4054.77 1215.74,4054.45 1215.93,4054.15C1216.16,4053.77 1216.55,4053.43 1217,4053.08C1219.18,4051.45 1222.83,4050.14 1224.35,4049.24C1224.94,4048.88 1225.13,4048.11 1224.78,4047.51C1224.42,4046.91 1223.65,4046.72 1223.05,4047.08C1221.99,4047.72 1219.88,4048.55 1217.96,4049.56C1216.52,4050.32 1215.19,4051.17 1214.35,4052.09C1213.11,4053.45 1212.78,4054.94 1213.85,4056.52C1214.24,4057.1 1215.02,4057.24 1215.6,4056.86C1216.17,4056.47 1216.32,4055.68 1215.93,4055.11Z" style="fill:rgb(26,23,25);"/>
                    <path d="M1258.86,4030.68C1264.61,4027.7 1270.26,4025.37 1276.5,4023.58C1277.17,4023.39 1277.56,4022.69 1277.37,4022.03C1277.17,4021.36 1276.48,4020.97 1275.81,4021.16C1269.4,4022.99 1263.61,4025.39 1257.7,4028.45C1257.09,4028.77 1256.84,4029.53 1257.16,4030.14C1257.48,4030.76 1258.24,4031 1258.86,4030.68Z" style="fill:rgb(26,23,25);"/>
                    <path d="M1303.77,4009.55C1308.46,4006.53 1312.34,4004.42 1317.55,4002.19C1318.19,4001.91 1318.49,4001.18 1318.21,4000.54C1317.94,3999.9 1317.2,3999.6 1316.56,3999.88C1311.21,4002.17 1307.23,4004.33 1302.4,4007.44C1301.82,4007.82 1301.65,4008.6 1302.03,4009.18C1302.4,4009.76 1303.18,4009.93 1303.77,4009.55Z" style="fill:rgb(26,23,25);"/>
                    <path d="M1235.96,4030.97C1242.2,4028.7 1248.28,4026.09 1254.41,4023.53C1255.05,4023.27 1255.36,4022.53 1255.09,4021.89C1254.82,4021.25 1254.09,4020.94 1253.44,4021.21C1247.34,4023.75 1241.31,4026.35 1235.1,4028.61C1234.45,4028.85 1234.11,4029.57 1234.35,4030.22C1234.58,4030.87 1235.31,4031.21 1235.96,4030.97Z" style="fill:rgb(26,23,25);"/>
                    <path d="M1283.43,4010.87C1287.66,4009.52 1291.73,4007.24 1296.11,4005.78C1296.77,4005.56 1297.13,4004.85 1296.91,4004.19C1296.69,4003.53 1295.98,4003.18 1295.32,4003.4C1290.95,4004.85 1286.89,4007.13 1282.67,4008.47C1282.01,4008.69 1281.64,4009.39 1281.85,4010.06C1282.06,4010.72 1282.77,4011.08 1283.43,4010.87Z" style="fill:rgb(26,23,25);"/>
                    <path d="M1312.36,3990.33C1313.11,3990.68 1314.08,3990.83 1315.12,3990.85C1316.41,3990.88 1317.81,3990.73 1318.83,3990.73C1319.53,3990.73 1320.09,3990.17 1320.09,3989.47C1320.09,3988.78 1319.53,3988.22 1318.83,3988.22C1317.83,3988.22 1316.45,3988.37 1315.18,3988.34C1314.52,3988.32 1313.89,3988.27 1313.42,3988.05C1312.79,3987.76 1312.04,3988.04 1311.75,3988.66C1311.46,3989.3 1311.73,3990.04 1312.36,3990.33Z" style="fill:rgb(26,23,25);"/>
                    <path d="M1423.46,3931.04C1424,3930.52 1425.09,3929.45 1425.53,3929.01C1426.02,3928.52 1426.02,3927.73 1425.53,3927.24C1425.04,3926.74 1424.24,3926.74 1423.75,3927.24C1423.07,3927.92 1421.27,3929.64 1421.07,3929.93C1420.56,3930.7 1420.98,3931.29 1421.13,3931.47C1421.21,3931.57 1421.97,3932.34 1423.03,3931.58C1423.23,3931.44 1423.38,3931.25 1423.46,3931.04Z" style="fill:rgb(26,23,25);"/>
                    <path d="M1450.91,3910.83C1452.34,3909.31 1454.36,3908 1456.32,3907.02C1456.94,3906.71 1457.19,3905.95 1456.88,3905.33C1456.57,3904.71 1455.82,3904.46 1455.2,3904.77C1452.97,3905.88 1450.69,3907.39 1449.08,3909.11C1448.61,3909.61 1448.63,3910.41 1449.14,3910.88C1449.64,3911.36 1450.44,3911.33 1450.91,3910.83Z" style="fill:rgb(26,23,25);"/>
                    <path d="M1467.11,3894.07C1466.55,3894.44 1466.37,3895.19 1466.72,3895.77C1467.08,3896.37 1467.86,3896.56 1468.45,3896.2C1468.9,3895.93 1469.5,3895.51 1469.86,3895.13C1470.16,3894.81 1470.34,3894.47 1470.41,3894.2C1470.53,3893.74 1470.45,3893.32 1470.19,3892.96C1469.98,3892.65 1469.44,3892.19 1468.21,3892.19C1467.51,3892.19 1466.95,3892.75 1466.95,3893.45C1466.95,3893.67 1467.01,3893.89 1467.11,3894.07Z" style="fill:rgb(26,23,25);"/>
                    <path d="M1432.47,3905.38C1431.33,3905.81 1429.71,3906.32 1428.59,3907.19C1427.59,3907.96 1426.94,3908.98 1426.94,3910.34C1426.94,3911.04 1427.5,3911.6 1428.2,3911.6C1428.89,3911.6 1429.45,3911.04 1429.45,3910.34C1429.45,3909.64 1429.97,3909.24 1430.55,3908.9C1431.44,3908.36 1432.55,3908.04 1433.37,3907.72C1434.02,3907.48 1434.34,3906.75 1434.1,3906.1C1433.85,3905.45 1433.12,3905.13 1432.47,3905.38Z" style="fill:rgb(26,23,25);"/>
                    <path d="M1425.88,3912.4C1431.19,3909.92 1435.68,3906.81 1441.15,3904.38C1441.79,3904.1 1442.08,3903.35 1441.79,3902.72C1441.51,3902.08 1440.77,3901.8 1440.13,3902.08C1434.64,3904.52 1430.14,3907.63 1424.82,3910.12C1424.19,3910.41 1423.91,3911.16 1424.21,3911.79C1424.5,3912.42 1425.25,3912.69 1425.88,3912.4Z" style="fill:rgb(26,23,25);"/>
                </g>
            </g>
        </g>
    </g>
</svg>
