<?xml version="1.0" encoding="UTF-8" standalone="no"?>
<svg
   width="986.83063"
   height="1002.6548"
   viewBox="0 0 986.83063 1002.6548"
   version="1.1"
   xml:space="preserve"
   style="clip-rule:evenodd;fill-rule:evenodd;stroke-linecap:round;stroke-linejoin:round;stroke-miterlimit:1.5"
   id="svg714"
   sodipodi:docname="2023-LT-02-explanationD.svg"
   inkscape:version="1.1.1 (3bf5ae0d25, 2021-09-20)"
   xmlns:inkscape="http://www.inkscape.org/namespaces/inkscape"
   xmlns:sodipodi="http://sodipodi.sourceforge.net/DTD/sodipodi-0.dtd"
   xmlns="http://www.w3.org/2000/svg"
   xmlns:svg="http://www.w3.org/2000/svg"><defs
   id="defs718" /><sodipodi:namedview
   id="namedview716"
   pagecolor="#ffffff"
   bordercolor="#666666"
   borderopacity="1.0"
   inkscape:pageshadow="2"
   inkscape:pageopacity="0.0"
   inkscape:pagecheckerboard="0"
   showgrid="false"
   inkscape:zoom="0.24030748"
   inkscape:cx="-260.08345"
   inkscape:cy="626.28096"
   inkscape:window-width="2048"
   inkscape:window-height="1017"
   inkscape:window-x="-8"
   inkscape:window-y="-8"
   inkscape:window-maximized="1"
   inkscape:current-layer="g1853" />
    <g
   transform="translate(129.11132,150.64401)"
   id="g712">
        <g
   transform="translate(-1406.18,-2892.8)"
   id="g710">
            
            
            
            
            
            
            
            
            
            
            
            
            
            
            
            
            
            
            
            
            
            
            
            
            
            
            
            
            
            
            
            
            
            
            
            
            
            
            
            
            
            
            
            
            
            
            
            
            
            
            
            
            
            
            
            
            
            
            
            
            
            
            
            
            
            
            
            
            
            
            
            
            
            
            
            
            
            
            
            
            
            
            
            
            
            
            
            
            
            
            
            
            
            
            
            
            
            
            
            
            
            
            
            
            
            
            
            
            
            
            
            
            
            
            
            
            
            
            
            
            
            
            
            
            
            
            
            
            
            
            
            
            
            
            
            
            
            
            
            
            
            
            
            
            
            
            
            
            
            
            
            
            
            
            
            
            
            
            
            
            
            
            
            
            
            
            
            
            
            
            
            
            
            
            
            
            
        <g
   id="g1853"
   transform="rotate(180,1770.2827,3243.6628)"><g
     transform="rotate(166.55824,1865.9141,3599.2242)"
     id="g4">
                <path
   d="m 1899.36,3858.07 c -11.2,-0.37 -20.43,18.43 -24.51,26.59 -16.33,32.66 -20.14,64.62 7.21,91.98 3.56,3.55 7.04,10.56 11.21,12.64 7.28,3.64 17.35,-0.37 23.96,4.04 2.81,1.87 8.95,0.13 12.18,0.45 16.37,1.64 34.63,1.18 50.95,-0.45 16.04,-1.6 32.58,0.05 48.7,-0.9 43.63,-2.57 88.27,-2.72 131.66,0.9 13.98,1.17 57.5,8.47 68.08,0 6.37,-5.09 10.63,-15 13.98,-22.54 2.2,-4.95 5.43,-11.83 6.31,-17.14 1.13,-6.75 3.89,-14.57 2.71,-21.64 -1.6,-9.62 -0.86,-27.72 -5.63,-40.74 -6.47,-17.65 -19.75,-30.04 -31.8,-37.27 -14.2,-8.52 -49.57,-6.54 -65.83,-4.5 -17.66,2.2 -34.74,0.9 -52.3,0.9 -2.28,0 -15.08,1.61 -16.68,0 -9.47,-9.47 -23.5,-22.17 -36.53,-27.06 -1.67,-0.63 -7.25,-5.41 -8.56,-5.41 -0.09,0 3.75,9.43 4.06,9.92 3.46,5.55 6.56,10.65 9.91,16.23 0.11,0.19 5.78,10.29 3.16,7.67 -7.54,-7.54 -29.34,-0.07 -38.33,-1.35 -33.98,-4.86 -79.1,7.68 -113.91,7.68 z"
   style="fill:#ac5734"
   id="path2" />
            </g><g
     transform="rotate(166.55824,1865.9141,3599.2242)"
     id="g8">
                <path
   d="m 2151.96,3843.08 c -0.69,-0.4 -2.14,1.18 -3.32,0.58 -5.8,-2.9 -9.15,-6.95 -12.45,-12.44 -5.16,-8.62 -1.17,-36.9 12.08,-19.25 3.62,4.84 4.18,9.9 6.03,15.47 1.86,5.56 -1.51,10.49 -1.51,15.47"
   style="fill:#4eb26b"
   id="path6" />
            </g><g
     transform="rotate(166.55824,1865.9141,3599.2242)"
     id="g12">
                <path
   d="m 2132.26,3841.74 c -10.23,1.85 -16.9,-2.94 -19.46,-13.17 -0.79,-3.18 -1.65,-8.21 -3.01,-10.94 -0.29,-0.57 -0.38,-1.88 -0.38,-1.88 0,0 3.75,0.75 5.66,0.75 4.11,0 7.52,-0.39 10.94,1.89 2.86,1.91 6.92,17.22 4.52,19.62"
   style="fill:#4eb26b"
   id="path10" />
            </g><g
     transform="rotate(166.55824,1865.9141,3599.2242)"
     id="g16">
                <path
   d="m 2081.33,3840.34 c -2.45,-5.05 2.64,-20.39 5.44,-24.59 0.85,-1.27 8.57,-5.45 8.68,-5.28 5.21,7.8 2.57,21.72 -2.64,28.67 -0.74,0.98 -6.95,2.94 -8.3,2.26 -0.61,-0.3 -2.64,-2.88 -2.64,-2.26"
   style="fill:#4eb26b"
   id="path14" />
            </g><g
     transform="rotate(166.55824,1865.9141,3599.2242)"
     id="g20">
                <path
   d="m 2065.37,3826.05 c -2.65,-13.47 2.4,-15.37 8.58,-24.64 0.73,-1.1 2.46,-6.88 2.64,-6.79 3.64,1.82 4.87,9.65 5.65,13.58 1.44,7.17 -0.14,16.39 -6.79,20.37 -4.01,2.41 -7.54,-3.59 -7.54,-1.88"
   style="fill:#4eb26b"
   id="path18" />
            </g><g
     transform="rotate(166.55824,1865.9141,3599.2242)"
     id="g24">
                <path
   d="m 2051.51,3809.37 c -1.58,-0.29 -4.97,0.43 -6.24,-0.41 -11.39,-7.6 -4.03,-23.83 1.13,-32.45 0.58,-0.95 0.19,-4.33 0.76,-4.9 1.39,-1.39 2.89,2.68 4.53,3.77 2.64,1.76 11.22,12.75 11.69,15.09 2.03,10.12 -5.07,11.87 -10.18,16.98"
   style="fill:#4eb26b"
   id="path22" />
            </g><g
     transform="rotate(166.55824,1865.9141,3599.2242)"
     id="g28">
                <path
   d="m 2029.7,3832.49 c -1.07,-2.08 -0.02,-5.24 -1.4,-7.31 -4.39,-6.58 -13.24,-8.87 -20,-10.56 -2.79,-0.7 -5.17,0 -7.92,0 -1.2,0 -3.4,-2.33 -3.4,-1.14 0,2.08 6.91,7.05 8.3,8.68 4.77,5.56 8.55,16.92 18.87,14.34 1.66,-0.42 4.42,-2.64 5.28,-2.64"
   style="fill:#4eb26b"
   id="path26" />
            </g><g
     transform="rotate(166.55824,1865.9141,3599.2242)"
     id="g32">
                <path
   d="m 1895.98,3861.03 c -10.07,-0.81 -21.09,20.94 -24.04,28.81 -1.71,4.57 -5.38,9.19 -7.34,13.11 -10.9,21.81 -3.99,52.18 9.97,70.8 5.33,7.11 15.27,20.18 25.69,18.88 41.77,-5.22 60.27,-48.76 48.78,-87.06 -3.87,-12.87 -15.81,-25.26 -24.13,-35.66 -3.2,-4 -29.89,-16.96 -29.89,-6.82"
   style="fill:#eb7345"
   id="path30" />
            </g><g
     transform="rotate(166.55824,1865.9141,3599.2242)"
     id="g36">
                <path
   d="m 2079.2,3848.35 c -15.26,-15.09 -24.35,-19.54 -43.79,-34.12 -0.76,-0.57 -1.43,-0.6 -1.8,-0.59 -0.79,0 -1.41,0.29 -1.91,0.73 -0.46,0.4 -0.92,1.02 -0.98,2.01 -0.01,0.15 0.02,1.11 0.81,2.44 1.87,3.18 9.75,15.36 14.64,23.95 0.87,1.52 1.7,3.17 2.35,4.51 -30.93,0.25 -110.5,3.23 -121.07,3.84 -0.44,0.03 -0.79,0.06 -1.05,0.08 -48.93,-2.05 -71.37,47.37 -66.9,88.75 3.04,28.08 18.43,52.13 45.48,54.36 25.94,2.13 244.13,2.98 306.13,3.83 26.11,0.36 41.07,-24.21 44.16,-54.21 2.71,-26.22 -3.58,-56.38 -18.5,-76.13 -10.24,-13.56 -24.49,-22.3 -42.63,-21.93 -21.35,0.43 -98.2,2.28 -113.53,2.47 -0.52,0.01 -1.01,0.01 -1.41,0.01 z m -152.66,8.7 c -45.32,-2.17 -65.37,44.06 -61.24,82.28 2.72,25.15 15.93,47.17 40.16,49.16 25.91,2.13 243.81,2.97 305.73,3.82 23.21,0.31 35.53,-22.3 38.28,-48.98 2.56,-24.79 -3.25,-53.34 -17.35,-72.02 -9.11,-12.06 -21.73,-19.93 -37.86,-19.61 -21.36,0.43 -98.24,2.28 -113.57,2.48 -1.71,0.02 -2.73,0.01 -2.94,-0.01 -1.18,-0.11 -1.7,-0.71 -1.83,-0.85 -11.99,-11.99 -20.07,-17.26 -32.09,-25.76 2.54,4.09 5.26,8.55 7.41,12.32 2.31,4.05 3.94,7.4 4.26,8.9 0.37,1.68 -0.24,2.76 -0.74,3.3 -0.56,0.61 -1.31,1.01 -2.33,1.01 -27.4,0 -113.62,3.21 -124.64,3.85 l -0.08,0.01 c -0.25,0.07 -0.52,0.11 -0.79,0.11 -0.14,0 -0.26,0 -0.38,-0.01 z"
   style="fill:#1a1719"
   id="path34" />
            </g><g
     transform="rotate(166.55824,1865.9141,3599.2242)"
     id="g40">
                <path
   d="m 1904.42,3865.8 c 0.17,-0.09 0.72,-0.4 1.18,-0.53 2.83,-0.84 7.72,-0.88 9.47,-0.88 4.72,0 9.68,2.85 14.44,7.49 7.49,7.31 14.41,19.07 19.01,32.13 4.83,13.7 7.11,28.84 4.7,41.8 -1.58,8.46 -5.15,15.98 -11.38,21.48 -6.72,5.93 -16.49,9.5 -30.03,9.5 -0.8,0 -1.46,0.65 -1.46,1.46 0,0.8 0.66,1.46 1.46,1.46 14.42,0 24.8,-3.91 31.96,-10.23 6.71,-5.94 10.62,-14.02 12.32,-23.14 2.49,-13.42 0.19,-29.11 -4.82,-43.3 -4.76,-13.52 -11.97,-25.67 -19.72,-33.24 -5.41,-5.28 -11.12,-8.33 -16.48,-8.33 -1.91,0 -7.21,0.09 -10.29,1 -1.01,0.3 -1.81,0.7 -2.33,1.16 -0.57,0.51 -0.86,1.11 -0.91,1.76 -0.06,0.8 0.55,1.5 1.35,1.56 0.74,0.06 1.39,-0.45 1.53,-1.15 z"
   style="fill:#1a1719"
   id="path38" />
            </g><g
     transform="rotate(166.55824,1865.9141,3599.2242)"
     id="g44">
                <path
   d="m 1909.37,3900.64 c -6.69,-0.08 -10.4,4.02 -11.99,9.82 -2.2,8.02 -0.12,19.43 3.34,26.05 1.25,2.4 2.7,4.18 4.16,5.1 1.25,0.78 2.54,1 3.79,0.63 1.12,-0.34 2.28,-1.19 3.32,-2.78 1.28,-1.94 2.48,-5.13 3.42,-9.88 0.16,-0.79 -0.35,-1.56 -1.14,-1.72 -0.79,-0.16 -1.56,0.36 -1.71,1.15 -0.86,4.25 -1.87,7.11 -3.01,8.85 -0.56,0.86 -1.11,1.4 -1.71,1.58 -0.64,0.19 -1.26,-0.13 -1.89,-0.65 -0.94,-0.79 -1.83,-2.06 -2.64,-3.63 -3.18,-6.08 -5.14,-16.56 -3.12,-23.93 1.22,-4.46 3.99,-7.74 9.14,-7.67 0.8,0.01 1.47,-0.63 1.48,-1.44 0.01,-0.8 -0.64,-1.46 -1.44,-1.48 z"
   style="fill:#1a1719"
   id="path42" />
            </g><g
     transform="rotate(166.55824,1865.9141,3599.2242)"
     id="g48">
                <path
   d="m 1909.03,3889.53 c -5.2,-5 -9.86,-6.58 -13.83,-5.87 -3.99,0.72 -7.42,3.8 -10.13,8.56 -5,8.82 -7.63,23.53 -7.64,37.85 -0.01,12.04 1.84,23.8 5.58,31.53 2.7,5.58 6.43,9.1 11.02,9.6 4.74,0.52 10.66,-2.27 17.57,-10.16 5.76,-6.58 7.97,-14.42 10.31,-22.64 0.23,-0.78 -0.22,-1.59 -1,-1.81 -0.77,-0.22 -1.58,0.23 -1.8,1 -2.23,7.8 -4.24,15.28 -9.7,21.53 -6.01,6.86 -10.94,9.63 -15.07,9.18 -3.7,-0.4 -6.52,-3.46 -8.7,-7.97 -3.59,-7.42 -5.3,-18.71 -5.29,-30.26 0,-13.77 2.45,-27.93 7.26,-36.41 2.2,-3.88 4.86,-6.54 8.11,-7.13 3.27,-0.59 7,0.98 11.29,5.11 0.58,0.55 1.5,0.54 2.06,-0.04 0.56,-0.58 0.54,-1.51 -0.04,-2.07 z"
   style="fill:#1a1719"
   id="path46" />
            </g><g
     transform="rotate(166.55824,1865.9141,3599.2242)"
     id="g52">
                <path
   d="m 1904.71,3882.8 c -0.06,-0.56 -0.05,-0.96 0.2,-1.2 0.28,-0.27 0.72,-0.29 1.23,-0.28 0.71,0 1.53,0.15 2.41,0.4 4.75,1.29 11.09,5.12 11.95,6.1 3.37,3.86 5.79,8.78 7.33,13.63 7.49,23.67 0.81,44.24 -9.71,65.27 -0.36,0.72 -0.07,1.59 0.65,1.95 0.72,0.36 1.6,0.07 1.96,-0.65 10.86,-21.73 17.62,-42.99 9.88,-67.45 -1.65,-5.22 -4.28,-10.51 -7.91,-14.67 -0.47,-0.53 -2.29,-1.84 -4.69,-3.19 -3.47,-1.96 -8.16,-4.07 -11.33,-4.29 -1.87,-0.13 -3.32,0.39 -4.13,1.46 -0.56,0.73 -0.89,1.76 -0.75,3.21 0.08,0.8 0.8,1.38 1.6,1.3 0.8,-0.07 1.39,-0.79 1.31,-1.59 z"
   style="fill:#1a1719"
   id="path50" />
            </g><g
     transform="rotate(166.55824,1865.9141,3599.2242)"
     id="g56">
                <path
   d="m 1869.88,3930.18 c 10.77,1.64 19.96,-0.15 30.32,-2.74 0.78,-0.19 1.25,-0.99 1.06,-1.77 -0.2,-0.78 -0.99,-1.25 -1.77,-1.06 -9.96,2.49 -18.81,4.26 -29.17,2.69 -0.79,-0.12 -1.54,0.43 -1.66,1.22 -0.12,0.8 0.43,1.54 1.22,1.66 z"
   style="fill:#1a1719"
   id="path54" />
            </g><g
     transform="rotate(166.55824,1865.9141,3599.2242)"
     id="g60">
                <path
   d="m 1923.51,3918.56 c 0.12,0.08 0.28,0.18 0.4,0.27 0.73,0.52 1.8,1.28 3.68,2.02 0.74,0.3 1.59,-0.06 1.89,-0.81 0.3,-0.75 -0.06,-1.59 -0.81,-1.89 -2.55,-1.03 -3.46,-2.06 -4.17,-2.38 -0.92,-0.4 -1.75,-0.45 -3.16,0.81 -0.6,0.53 -0.66,1.45 -0.12,2.06 0.53,0.6 1.45,0.65 2.06,0.11 0.07,-0.06 0.16,-0.13 0.23,-0.19 z"
   style="fill:#1a1719"
   id="path58" />
            </g><g
     transform="rotate(166.55824,1865.9141,3599.2242)"
     id="g64">
                <path
   d="m 2047.14,3849.15 c 2.5,2.32 6.79,6.1 10.95,8.76 2.99,1.91 5.96,3.21 8.21,3.21 0.8,0 1.45,-0.65 1.45,-1.46 0,-0.8 -0.65,-1.46 -1.45,-1.46 -1.84,0 -4.2,-1.19 -6.64,-2.75 -4,-2.56 -8.13,-6.21 -10.54,-8.44 -0.59,-0.55 -1.52,-0.51 -2.06,0.08 -0.55,0.59 -0.51,1.52 0.08,2.06 z"
   style="fill:#1a1719"
   id="path62" />
            </g><g
     transform="rotate(166.55824,1865.9141,3599.2242)"
     id="g68">
                <path
   d="m 2126.59,3834.54 c 1.37,2.92 5.47,11.63 7.03,13.97 0.45,0.67 1.35,0.85 2.02,0.4 0.68,-0.45 0.86,-1.35 0.41,-2.02 -1.67,-2.5 -6.3,-12.48 -7.15,-14.27 -0.03,-0.07 -0.06,-0.12 -0.09,-0.18 v -0.01 0.01 c -0.54,-0.92 -1.41,-0.94 -1.43,-0.94 -0.13,0.01 -1.85,0.45 -1.3,1.97 0.02,0.04 0.13,0.3 0.35,0.81 0.04,0.09 0.1,0.18 0.16,0.26 z"
   style="fill:#1a1719"
   id="path66" />
            </g><g
     transform="rotate(166.55824,1865.9141,3599.2242)"
     id="g72">
                <path
   d="m 2026.04,3829.07 c -0.11,-0.7 -0.71,-1.24 -1.45,-1.24 -0.8,0 -1.46,0.65 -1.46,1.45 0,1.25 0.69,2.14 2.05,2.6 1.13,0.38 2.94,0.4 4.98,0.21 2.68,-0.25 5.8,-0.82 7.98,-0.98 0.59,-0.05 1.3,-0.01 1.57,0.01 0.41,0.41 1.05,0.55 1.62,0.3 0.73,-0.33 1.06,-1.19 0.74,-1.93 -0.25,-0.57 -0.88,-1.13 -2.02,-1.28 -1.93,-0.26 -6.45,0.63 -10.16,0.97 -0.83,0.08 -1.63,0.13 -2.33,0.12 -0.42,-0.01 -0.81,-0.04 -1.15,-0.11 -0.12,-0.03 -0.27,-0.08 -0.37,-0.12 z"
   style="fill:#1a1719"
   id="path70" />
            </g><g
     transform="rotate(166.55824,1865.9141,3599.2242)"
     id="g76">
                <path
   d="m 2053.63,3825.02 c -0.08,-0.26 -0.25,-0.85 -0.35,-1.41 -1.05,-5.47 -1.97,-19.48 -1.97,-21.96 0,-0.8 -0.65,-1.45 -1.45,-1.45 -0.81,0 -1.46,0.65 -1.46,1.45 0,2.55 0.94,16.91 2.01,22.51 0.29,1.48 0.69,2.46 0.98,2.8 0.42,0.5 0.91,0.62 1.34,0.6 0.8,-0.04 1.42,-0.72 1.38,-1.53 -0.02,-0.4 -0.2,-0.76 -0.48,-1.01 z"
   style="fill:#1a1719"
   id="path74" />
            </g><g
     transform="rotate(166.55824,1865.9141,3599.2242)"
     id="g80">
                <path
   d="m 2065.63,3836.21 0.03,-0.14 c 0.42,-2.18 3.02,-13.35 3.02,-16.26 0,-0.8 -0.65,-1.46 -1.46,-1.46 -0.8,0 -1.46,0.66 -1.46,1.46 0,2.81 -2.56,13.6 -2.96,15.7 -0.13,0.65 -0.03,1.04 -0.01,1.1 0.14,0.44 0.41,0.66 0.63,0.79 0.34,0.2 0.71,0.27 1.13,0.16 0.63,-0.17 1.06,-0.73 1.08,-1.35 z m -0.58,-1.23 c 0.17,0.13 0.32,0.3 0.42,0.5 -0.12,-0.24 -0.27,-0.39 -0.42,-0.5 z m -0.21,-0.13 c -0.31,-0.16 -0.66,-0.21 -1.04,-0.11 0.37,-0.09 0.73,-0.04 1.04,0.11 z m 0.15,0.1 0.03,0.01 -0.01,-0.01 z m -0.14,-0.09 0.03,0.01 -0.02,-0.01 z"
   style="fill:#1a1719"
   id="path78" />
            </g><g
     transform="rotate(166.55824,1865.9141,3599.2242)"
     id="g84">
                <path
   d="m 2076.29,3847.1 c 2.51,-3.1 4.18,-6.9 6.96,-9.68 0.57,-0.57 0.57,-1.49 0,-2.06 -0.57,-0.57 -1.49,-0.57 -2.06,0 -2.85,2.85 -4.59,6.73 -7.16,9.9 -0.51,0.62 -0.41,1.54 0.21,2.05 0.63,0.51 1.55,0.41 2.05,-0.21 z"
   style="fill:#1a1719"
   id="path82" />
            </g><g
     transform="rotate(166.55824,1865.9141,3599.2242)"
     id="g88">
                <path
   d="m 2045.26,3772.84 c -2.19,4.38 -5.33,10.33 -7.05,16.25 -1.23,4.23 -1.74,8.45 -0.82,12.13 0.43,1.71 1.7,3.43 3.39,5 2.25,2.1 5.23,3.97 7.35,5.33 0.9,0.58 1.86,1.29 2.09,1.45 0.28,0.55 0.9,0.87 1.54,0.76 0.62,-0.11 1.09,-0.61 1.18,-1.2 0.25,0.02 0.53,0.03 0.86,0.03 0.78,0 1.42,-0.62 1.46,-1.39 0.37,-0.15 0.7,-0.3 0.87,-0.4 4.22,-2.54 7.38,-8.02 8.56,-12.74 0.51,-2.05 0.37,-4.86 -0.34,-7.94 -1.01,-4.39 -3.17,-9.37 -5.95,-13.39 -3.28,-4.76 -7.5,-8.11 -11.7,-8.11 -0.21,0 -1.39,0.14 -1.48,1.44 -0.02,0.37 0.03,2.25 0.04,2.78 z m 2.92,-1.12 c 0.01,0.46 0.01,0.92 0.01,1.19 -0.01,0.52 -0.13,0.86 -0.19,0.98 -2.14,4.27 -5.28,10.16 -6.99,16.02 -1.08,3.7 -1.6,7.38 -0.79,10.6 0.31,1.25 1.32,2.44 2.55,3.58 2.12,1.97 4.93,3.72 6.94,5.01 0.52,0.33 1,0.65 1.41,0.93 0.12,-0.18 0.3,-0.36 0.56,-0.52 0.54,-0.35 2.37,-0.86 2.95,-1.21 3.61,-2.17 6.22,-6.91 7.23,-10.95 0.42,-1.69 0.24,-4.02 -0.35,-6.57 -0.94,-4.06 -2.93,-8.67 -5.51,-12.4 -2.28,-3.29 -4.96,-5.95 -7.82,-6.66 z"
   style="fill:#1a1719"
   id="path86" />
            </g><g
     transform="rotate(166.55824,1865.9141,3599.2242)"
     id="g92">
                <path
   d="m 2064.92,3827.95 c -0.07,0.63 0.37,1.21 1.79,1.21 h 0.57 c 1.26,0 4.11,-0.01 4.13,-0.02 3.94,-0.65 9.17,-4.29 11.27,-7.79 3.08,-5.12 2.62,-10.18 1.06,-15.08 -1.43,-4.48 -3.82,-8.8 -4.84,-12.86 -0.22,-0.86 -0.84,-2.53 -0.84,-2.53 -0.26,-0.7 -1.01,-1.09 -1.74,-0.9 -0.72,0.19 -1.18,0.9 -1.07,1.63 0,0 0.49,2.78 0.06,4.06 -1.55,4.64 -4.43,7.57 -6.89,10.74 -2.74,3.53 -5.03,7.3 -5.03,13.4 0,1.06 -0.21,4.55 0.34,6.35 0.26,0.87 0.67,1.46 1.19,1.79 z m 12.53,-29.7 c -1.73,4.08 -4.38,6.94 -6.73,9.95 -2.38,3.06 -4.41,6.31 -4.41,11.61 0,0.69 -0.12,2.51 -0.01,4.09 0.04,0.47 0.17,1.08 0.25,1.42 0.49,0.1 0.91,0.44 1.09,0.93 h 3.4 c 3.22,-0.59 7.43,-3.55 9.14,-6.4 2.59,-4.31 2.09,-8.57 0.78,-12.69 -0.97,-3.05 -2.38,-6.03 -3.51,-8.91 z"
   style="fill:#1a1719"
   id="path90" />
            </g><g
     transform="rotate(166.55824,1865.9141,3599.2242)"
     id="g96">
                <path
   d="m 2091.47,3809.94 c -4.72,1.79 -7.63,5.8 -9.4,10.66 -2.32,6.42 -2.62,14.35 -2.84,19.99 -0.49,0.24 -0.84,0.74 -0.84,1.32 0,0.72 0.52,1.32 1.2,1.44 0.25,0.25 0.59,0.41 0.97,0.43 0.46,0.02 0.88,-0.18 1.16,-0.5 7.73,-0.76 13.59,-6.18 16.31,-12.9 2.93,-7.25 2.17,-15.96 -3.73,-21.86 -0.4,-0.4 -0.79,-0.48 -1.09,-0.49 -0.48,-0.02 -0.95,0.15 -1.31,0.65 -0.1,0.15 -0.21,0.35 -0.28,0.61 -0.04,0.13 -0.1,0.42 -0.15,0.65 z m 2.12,2.18 c -0.19,0.19 -0.41,0.31 -0.65,0.39 -4.17,1.39 -6.61,4.9 -8.12,9.09 -2.16,5.97 -2.46,13.31 -2.66,18.69 6.24,-0.91 10.93,-5.47 13.17,-11 2.26,-5.59 2.03,-12.22 -1.74,-17.17 z"
   style="fill:#1a1719"
   id="path94" />
            </g><g
     transform="rotate(166.55824,1865.9141,3599.2242)"
     id="g100">
                <path
   d="m 2030.88,3828.34 c -0.7,-5.63 -4.1,-10.03 -8.74,-13 -6.78,-4.34 -16.21,-5.58 -23.27,-3.23 -1.58,0.53 -4.74,1.58 -4.74,1.58 -0.53,0.18 -0.91,0.64 -0.98,1.2 -0.07,0.55 0.18,1.1 0.65,1.4 0,0 5.13,3.32 6.65,5.85 3.04,5.06 5.59,8.75 7.97,11.33 2.57,2.79 4.98,4.32 7.51,4.93 2.53,0.61 5.22,0.3 8.39,-0.77 2.91,-0.98 6.28,-2.61 10.4,-4.67 0.72,-0.36 1.01,-1.24 0.65,-1.96 -0.36,-0.72 -1.24,-1.01 -1.96,-0.65 -3.97,1.98 -7.21,3.57 -10.02,4.52 -2.57,0.86 -4.73,1.19 -6.78,0.69 -2.05,-0.49 -3.96,-1.81 -6.04,-4.07 -2.28,-2.46 -4.71,-6.01 -7.62,-10.85 -1.01,-1.68 -3.38,-3.69 -5.2,-5.08 l 2.04,-0.68 c 5.26,-1.75 11.98,-1.24 17.58,1.21 5.46,2.39 9.88,6.65 10.61,12.61 0.1,0.79 0.83,1.36 1.63,1.26 0.8,-0.1 1.37,-0.82 1.27,-1.62 z"
   style="fill:#1a1719"
   id="path98" />
            </g><g
     transform="rotate(166.55824,1865.9141,3599.2242)"
     id="g104">
                <path
   d="m 2129.31,3844.27 c 0.14,0.12 0.31,0.21 0.49,0.26 0.77,0.25 1.59,-0.18 1.83,-0.95 0.18,-0.58 0.07,-1.12 -0.39,-1.59 -0.21,-0.21 -0.68,-0.5 -1.43,-0.62 -1.3,-0.2 -4.15,-0.12 -5.93,-0.1 -0.46,0.01 -0.96,0 -1.1,0 -0.15,-0.06 -0.3,-0.2 -0.5,-0.37 -0.59,-0.51 -1.27,-1.3 -2.01,-2.27 -3.11,-4.1 -7.07,-11.37 -9.05,-16.88 -0.69,-1.9 -1.14,-3.58 -1.19,-4.8 -0.01,-0.25 0,-0.46 0.03,-0.66 0.01,-0.07 0.05,-0.17 0.06,-0.21 0.36,-0.34 0.89,-0.43 1.5,-0.44 0.92,0 1.99,0.24 3.15,0.62 5.89,1.97 13.75,7.73 15.18,9.89 0.5,0.74 0.69,1.73 0.79,2.82 0.16,1.97 -0.06,4.23 -0.17,6.22 -0.08,1.5 -0.09,2.87 0.09,3.92 0.18,0.98 0.54,1.75 1.05,2.26 0.57,0.57 1.5,0.57 2.07,0 0.56,-0.57 0.56,-1.5 0,-2.07 -0.23,-0.22 -0.25,-0.62 -0.3,-1.1 -0.08,-0.81 -0.05,-1.79 0.01,-2.85 0.11,-2.13 0.33,-4.53 0.15,-6.63 -0.14,-1.63 -0.52,-3.09 -1.26,-4.19 -1.59,-2.38 -10.18,-8.86 -16.69,-11.03 -1.83,-0.61 -3.51,-0.89 -4.87,-0.73 -1.14,0.14 -2.08,0.56 -2.79,1.27 -0.49,0.49 -0.83,1.23 -0.9,2.24 -0.11,1.49 0.39,3.79 1.34,6.45 2.08,5.77 6.22,13.38 9.47,17.66 0.9,1.17 1.73,2.11 2.44,2.72 0.65,0.57 1.26,0.89 1.75,1.01 0.37,0.09 2.84,0.02 5.01,0.03 0.77,0 1.74,0.08 2.17,0.12 z m -0.52,-1.32 v 0.03 z m 0.01,-0.04 v 0.01 l 0.01,-0.06 z m 0.01,-0.07 v 0.01 l 0.01,-0.06 z m 0.02,-0.06 0.02,-0.07 c -0.01,0.02 -0.02,0.05 -0.02,0.07 z"
   style="fill:#1a1719"
   id="path102" />
            </g><g
     transform="rotate(166.55824,1865.9141,3599.2242)"
     id="g108">
                <path
   d="m 2157.19,3852.03 c -0.84,-1.71 -2.76,-4.43 -4.17,-7.01 -0.79,-1.45 -1.45,-2.83 -1.45,-3.9 0,-0.8 -0.66,-1.45 -1.46,-1.45 -0.8,0 -1.46,0.65 -1.46,1.45 0,1.44 0.75,3.34 1.81,5.3 1.39,2.54 3.29,5.21 4.11,6.89 0.35,0.72 1.22,1.02 1.95,0.67 0.72,-0.36 1.02,-1.23 0.67,-1.95 z"
   style="fill:#1a1719"
   id="path106" />
            </g><g
     transform="rotate(166.55824,1865.9141,3599.2242)"
     id="g112">
                <path
   d="m 2135.3,3811.44 c -3.2,6.62 -2.55,18.5 2.01,26.35 3.22,5.54 8.3,9.09 15.16,7.83 0.79,-0.14 1.31,-0.9 1.17,-1.7 -0.02,-0.08 -0.04,-0.17 -0.07,-0.25 0.08,-0.09 0.15,-0.2 0.21,-0.31 3.11,-6.22 2.72,-18.7 -1.83,-27.69 -3.14,-6.22 -8.22,-10.74 -15.26,-10.74 -0.32,0 -1.37,0.18 -1.5,1.45 -0.07,0.68 0.09,4.61 0.11,5.06 z m 15.73,31.45 c -0.03,-0.28 0.01,-0.57 0.14,-0.84 2.82,-5.63 2.3,-16.93 -1.82,-25.06 -2.41,-4.76 -6.08,-8.46 -11.19,-9.06 0.04,1.08 0.1,2.56 0.08,3.34 -0.02,0.64 -0.14,1.1 -0.25,1.3 -2.95,5.9 -2.28,16.66 1.84,23.75 2.44,4.21 6.16,7.11 11.2,6.57 z"
   style="fill:#1a1719"
   id="path110" />
            </g><g
     transform="rotate(166.55824,1865.9141,3599.2242)"
     id="g116">
                <path
   d="m 2014.3,3822.87 c 0.08,0.01 0.22,0.02 0.31,0.04 0.24,0.06 0.49,0.16 0.75,0.28 1.03,0.48 2.11,1.26 2.9,1.78 0.67,0.45 1.57,0.27 2.02,-0.4 0.45,-0.67 0.27,-1.58 -0.4,-2.03 -1.15,-0.76 -2.86,-1.95 -4.29,-2.38 -1.13,-0.35 -2.16,-0.26 -2.93,0.26 -0.72,0.47 -1.35,1.4 -1.43,3.13 -0.04,0.8 0.59,1.48 1.39,1.52 0.8,0.04 1.49,-0.59 1.52,-1.39 0.02,-0.31 0.12,-0.67 0.16,-0.81 z"
   style="fill:#1a1719"
   id="path114" />
            </g><g
     transform="rotate(166.55824,1865.9141,3599.2242)"
     id="g120">
                <path
   d="m 2018.75,3831.95 c 0.61,-0.13 1.22,-0.31 1.76,-0.57 0.72,-0.36 1.01,-1.24 0.65,-1.96 -0.36,-0.72 -1.24,-1.01 -1.95,-0.65 -0.59,0.29 -1.34,0.39 -1.93,0.48 -0.65,0.1 -1.18,0.21 -1.48,0.34 -0.76,0.33 -1.02,0.89 -1.06,1.39 -0.03,0.35 0.03,0.78 0.42,1.24 0.19,0.24 0.63,0.6 1.45,1.04 0.7,0.38 1.59,0.11 1.97,-0.6 0.12,-0.22 0.18,-0.47 0.17,-0.71 z"
   style="fill:#1a1719"
   id="path118" />
            </g><g
     transform="rotate(166.55824,1865.9141,3599.2242)"
     id="g124">
                <path
   d="m 2048.06,3795.47 c 0.07,-0.11 0.12,-0.23 0.15,-0.37 0.19,-0.78 -0.3,-1.57 -1.08,-1.76 -1.08,-0.26 -1.73,-0.08 -2.04,0.09 -0.33,0.19 -0.55,0.44 -0.69,0.73 -0.16,0.33 -0.23,0.75 -0.09,1.24 0.07,0.24 0.23,0.56 0.49,0.9 0.34,0.45 0.94,1.04 1.68,1.67 2.2,1.91 5.76,4.4 6.51,4.9 0.67,0.44 1.58,0.26 2.02,-0.41 0.45,-0.67 0.27,-1.57 -0.4,-2.02 -0.72,-0.48 -4.12,-2.85 -6.23,-4.67 -0.1,-0.09 -0.21,-0.19 -0.32,-0.3 z"
   style="fill:#1a1719"
   id="path122" />
            </g><g
     transform="rotate(166.55824,1865.9141,3599.2242)"
     id="g128">
                <path
   d="m 2053.94,3785.28 c 0.11,-0.16 0.2,-0.33 0.24,-0.53 0.19,-0.78 -0.3,-1.57 -1.08,-1.76 -0.54,-0.12 -1.55,-0.03 -1.95,1.29 -0.58,1.92 -0.39,12.3 -0.39,13.43 0,0.8 0.66,1.45 1.46,1.45 0.81,0 1.46,-0.65 1.46,-1.45 0,-0.99 0.23,-11.07 0.26,-12.43 z m -1.01,0.58 c -0.16,0.02 -0.33,0.01 -0.5,-0.03 0.17,0.04 0.33,0.06 0.5,0.03 z"
   style="fill:#1a1719"
   id="path126" />
            </g><g
     transform="rotate(166.55824,1865.9141,3599.2242)"
     id="g132">
                <path
   d="m 2072.15,3814.63 c -0.13,2.2 -0.01,1.7 0.87,3.47 0.36,0.72 1.24,1.01 1.96,0.65 0.72,-0.36 1.01,-1.24 0.65,-1.96 -0.51,-1.02 -0.64,-0.72 -0.57,-1.99 0.05,-0.8 -0.56,-1.49 -1.37,-1.54 -0.8,-0.05 -1.49,0.56 -1.54,1.37 z"
   style="fill:#1a1719"
   id="path130" />
            </g><g
     transform="matrix(-1,-2.95945e-7,9.18702e-8,-0.999997,3339.63,7197.82)"
     id="g136">
                <path
   d="m 1593.8,3923.42 c 7.7,3.88 9.18,20.79 12.37,27.97 4.95,11.13 11.71,21.63 16.22,32.9 4.64,11.6 6.01,23.73 9.27,35.68 2.19,8.03 7.45,13.84 10.65,21.31 5.44,12.68 11.35,25.93 16.22,38.93 5.46,14.55 9.57,29.55 14.83,44.02 13.69,37.64 32.18,73.54 47.73,109.82 15.58,36.36 34.67,89.22 82.95,61.63 3.61,-2.07 12.88,-3.15 15.75,-6.02 6.95,-6.96 20.73,-11.22 24.1,-21.32 1.07,-3.23 0.07,-7.15 0.46,-10.66 1.61,-14.45 3.37,-27.69 -5.1,-41.24 -3.02,-4.84 -7.12,-9.47 -9.26,-14.83 -11.1,-27.74 -25.7,-53.85 -40.32,-80.16 -8.85,-15.93 -14.85,-42.56 -22.7,-60.24 -11.31,-25.43 -24.09,-50.49 -35.69,-76 -5.89,-12.96 -8.73,-26.46 -16.21,-38.92 -6.11,-10.18 -13.74,-20.11 -19.47,-30.12 -4.9,-8.59 -4.31,-18.7 -11.12,-26.88 -3.6,-4.33 -31.7,-21.87 -37.53,-19.92 -21.46,7.15 -52.83,30.86 -52.83,56.06"
   style="fill:#ffffff"
   id="path134" />
            </g><g
     transform="matrix(-0.997523,0.274013,-0.0339386,-0.668485,2494.83,5491.34)"
     id="g140">
                <path
   d="m 654.596,3680.54 c -7.142,-2.04 -5.558,-28.32 -7.945,-35.48 -1.133,-3.4 -9.26,-22.34 -6.771,-24.83 13.399,-13.4 87.951,-18.34 92.537,0 6.093,24.37 9.2,50.65 15.046,75.99 7.63,33.06 19.531,56.06 28.91,88.89 12.356,43.24 21.604,97.57 33.534,141.32 9.391,34.44 9.094,73.17 20.313,106.83 12.83,38.49 31.055,75.32 40.626,113.6 6.389,25.56 -41.752,51.29 -59.434,57.18 -14.74,4.91 -26.374,-8.1 -39.122,-11.28 -3.151,-0.79 -17.784,-3.22 -19.56,-6.78 -17.748,-35.49 -11.147,-77.54 -18.809,-115.86 -6.655,-33.27 -17.673,-57.06 -25.882,-89.9 -4.285,-17.14 -6.738,-43.54 -12.346,-60.36 -4.686,-14.06 -17.559,-98.69 -11.203,-111.4 11.721,-23.45 49.484,-61.68 40.403,-88.92 -0.807,-2.42 -43.019,-32.66 -46.644,-30.85 -7.86,3.93 -10.592,17.71 -15.799,20.32 -1.664,0.83 1.505,-14.29 1.505,-15.05 0,-9.26 -5.781,-14.06 -10.533,-18.81"
   style="fill:#ffffff"
   id="path138" />
            </g><g
     transform="matrix(-0.997523,0.274013,-0.0339386,-0.668485,2494.83,5491.34)"
     id="g144">
                <path
   d="m 636.374,3596.71 c 1.636,7.45 51.761,243.66 53.969,245.86 1.37,1.37 43.919,44.08 18.558,-85.35 -0.031,-0.16 -21.342,-80.18 -21.863,-82.79 -6.823,-34.11 -13.353,-77.72 -50.664,-77.72 z"
   style="fill:#dbdcdd"
   id="path142" />
            </g><g
     transform="matrix(-0.997523,0.274013,-0.0339386,-0.668485,2494.83,5491.34)"
     id="g148">
                <path
   d="m 687.643,3805.46 c -2.253,-8.22 -0.141,31.91 0.396,35.66 3.8,26.61 6.987,52.71 12.014,79.1 6.296,33.05 16.906,64.23 27.531,96.11 10.105,30.31 15.162,62.93 23.527,93.6 6.99,25.63 4.988,57.77 14.517,81.6 1.985,4.96 40.928,12.32 46.554,9.51 11.804,-5.9 1.065,-32.13 -1.001,-40.05 -10.248,-39.28 -20.718,-78.96 -29.534,-118.63 -15.131,-68.09 -61.876,-203.72 -70.554,-273.14 -2.88,-23.04 -8.051,10.56 -16.046,23.35 -2.899,4.64 -4.538,9.07 -7.008,14.01 -0.728,1.46 -3.722,6.01 -3.504,6.01"
   style="fill:#dbdcdd"
   id="path146" />
            </g><g
     transform="matrix(-0.997523,0.274013,-0.0214911,-0.423307,2450.22,4595.44)"
     id="g152">
                <path
   d="m 735.173,3635.83 c -3.989,1.69 -6.716,5.17 -10.67,7.15 -5.053,2.53 -11.29,2.16 -16.017,4.52 -5.212,2.61 -16.444,-2.45 -20.125,1.23 -4.706,4.71 2.166,18.56 2.875,24.23 2.422,19.38 8.93,29.28 27.928,32.45 2.057,0.34 7.64,4.62 9.036,3.7 2.964,-1.98 4.77,-6.5 8.214,-8.22 4.823,-2.41 8.761,-4.38 10.678,-8.21 1.837,-3.68 -1.971,-13.23 -2.875,-16.84 -2.419,-9.68 -2.604,-20.01 -4.517,-29.57 -0.765,-3.83 -4.518,-7.8 -4.518,-11.09"
   style="fill:#000300"
   id="path150" />
            </g><g
     transform="matrix(-0.997523,0.274013,-0.0339386,-0.668485,2494.83,5491.34)"
     id="g156">
                <path
   d="m 730.978,3619.47 c -2.021,-1.99 -6.108,2.7 -8.117,3.8 -4.723,2.57 -20.665,5.21 -11.911,13.96 5.685,5.69 19.367,-4.35 22.178,-9.03 1.107,-1.85 1.185,-8.63 -2.053,-8.63"
   style="fill:#000300"
   id="path154" />
            </g><g
     transform="matrix(-0.997523,0.274013,-0.0339386,-0.668485,2500.21,5521.45)"
     id="g160">
                <path
   d="m 702.928,3573.25 c -14.242,-15.49 -34.066,-15.4 -39.713,-13.67 -9.318,2.87 -21.889,21.37 -26.68,32.07 -6.161,13.76 -0.7,31.29 1.566,36.74 6.373,15.33 16.304,22.74 23.417,26.35 16.052,8.14 33.24,5.2 49.485,-5.18 11.055,-7.06 20.641,-37.89 8.722,-59.78 -2.766,-5.08 -11.585,-17.02 -15.761,-17.02"
   style="fill:#999a9d"
   id="path158" />
            </g><g
     transform="matrix(-0.997523,0.274013,-0.0339386,-0.668485,2494.83,5491.34)"
     id="g164">
                <path
   d="m 651.896,3664.65 c -0.107,-0.38 27.906,0.85 20.448,8.31 -1.243,1.24 -17.876,7.18 -19.714,5.34 -1.424,-1.42 -3.283,-11.09 -3.286,-11.09"
   style="fill:#000300"
   id="path162" />
            </g><g
     transform="matrix(-0.997523,0.274013,-0.0139337,-0.274451,2426.92,3993.21)"
     id="g168">
                <path
   d="m 712.469,3765.74 c 1.203,-3.57 11.869,-2.48 14.909,-3.24 24.19,-6.05 21.74,9.72 25.875,30.39 0.81,4.05 6.817,20.47 1.232,23.82 -25.864,15.52 -17.519,-34.63 -27.928,-39.84 -5.531,-2.76 0.458,7.05 0.821,8.63 1.495,6.47 7.11,23.85 4.929,30.39 -1.126,3.38 -16.386,6.99 -19.714,6.16 -7.519,-1.88 -3.366,-13.71 -5.75,-18.48 -1.557,-3.12 -0.582,-7.33 -2.054,-10.27 -1.194,-2.39 -5.562,-0.04 -6.571,-2.05 -0.061,-0.13 0,-0.28 0,-0.41 0,-0.45 12.228,-24.14 12.732,-24.65"
   style="fill:#000300"
   id="path166" />
            </g><g
     transform="matrix(-0.997523,0.274013,-0.0339386,-0.668485,2494.83,5491.34)"
     id="g172">
                <path
   d="m 832.444,4078.56 c -1.628,2.87 -23.504,8.35 -20.46,12.91 0.626,0.94 4.314,1.07 5.34,1.24 7.398,1.23 9.389,1.35 16.428,-2.88 6.146,-3.69 4.834,-10.27 -2.464,-10.27"
   style="fill:#000300"
   id="path170" />
            </g><g
     transform="matrix(-0.997523,0.274013,-0.0339386,-0.668485,2494.83,5491.34)"
     id="g176">
                <path
   d="m 851.831,4102.17 c -0.01,-0.53 -7.966,4.95 -10.686,6.14 -13.507,5.91 -27.601,1.92 -17.661,18.49 3.717,6.19 31.091,-7.32 32.857,-14.38 1.58,-6.32 -4.929,-8.45 -4.929,-12.73"
   style="fill:#000300"
   id="path174" />
            </g><g
     transform="matrix(-0.997523,0.274013,-0.0339386,-0.668485,2494.83,5491.34)"
     id="g180">
                <path
   d="m 747.758,4105.15 c 7.123,4.22 13.7,7.16 21.923,4.81 3.164,-0.91 10.892,-6.37 13.964,-5.34 0.977,0.32 4.862,14.03 3.697,15.19 -6.136,6.14 -26.811,12.2 -35.676,10.43 -5.695,-1.14 -8.927,-11.44 -8.215,-16.43 0.082,-0.57 0.282,-7.39 0.822,-7.39"
   style="fill:#000300"
   id="path178" />
            </g><g
     transform="matrix(-0.997523,0.274013,-0.0339386,-0.668485,2494.83,5491.34)"
     id="g184">
                <path
   d="m 839.635,4143.11 c -7.809,0.64 -15.226,7.55 -23.544,8.74 -5.992,0.85 -12.068,1.04 -18.071,1.64 -2.455,0.25 -15.683,-0.67 -16.428,0.82 -1.319,2.64 1.549,13.11 3.696,13.97 11.919,4.76 50.922,1.65 57.91,-12.32 5.458,-10.92 -4.518,-10.3 -4.518,-12.33"
   style="fill:#000300"
   id="path182" />
            </g><g
     transform="matrix(-0.997523,0.274013,-0.0339386,-0.668485,2494.83,5491.34)"
     id="g188">
                <path
   d="m 643.073,3639.97 c -3.653,-3.31 1.053,-3.86 12.842,-1.51 8.099,1.62 26.019,-7.29 23,7.81 -1.747,8.73 -25.787,9.78 -32.446,5.34 -3.089,-2.06 -4.107,-5.87 -4.107,-9.45 0,-0.96 0.491,-5.34 -0.411,-5.34"
   style="fill:#000300"
   id="path186" />
            </g><g
     transform="matrix(-0.997523,0.274013,-0.0339386,-0.668485,2494.83,5491.34)"
     id="g192">
                <path
   d="m 759.034,3724.85 c -4.668,2.9 -16.086,1.95 -20.156,6.02 -0.464,0.47 2.06,9.46 2.875,10.27 6.996,7 23.693,2.49 19.714,-9.45 -0.571,-1.71 -0.831,-5.76 -2.053,-6.98"
   style="fill:#000300"
   id="path190" />
            </g><g
     transform="matrix(-0.997523,0.274013,-0.0339386,-0.668485,2494.83,5491.34)"
     id="g196">
                <path
   d="m 691.925,3885.64 c -1.165,0.29 -0.884,-1.16 0.133,-0.75 7.589,3.03 16.365,1.04 23.821,-0.82 8.461,-2.12 19.049,-5.99 26.696,-11.09 1.226,-0.82 6.401,-6.86 7.803,-6.16 1.815,0.9 4.665,7.42 5.339,9.44 1.748,5.25 -4.765,8.3 -8.214,10.27 -5.879,3.36 -9.688,10.01 -14.785,14.38 -2.497,2.14 -5.657,2.28 -8.215,4.1 -3.212,2.3 -7.229,5.18 -9.857,7.81 -1.885,1.88 -1.287,6.18 -3.696,7.39 -2.614,1.31 -6.349,-1.71 -8.625,-2.47 -2.426,-0.8 -10.4,-27.46 -10.4,-32.1 z"
   style="fill:#000300"
   id="path194" />
            </g><g
     transform="matrix(-0.997523,0.274013,-0.0339386,-0.668485,2494.83,5491.34)"
     id="g200">
                <path
   d="m 800.903,3889.07 c -5.747,4.64 -14.792,12.38 -21.775,14.71 -2.394,0.8 -6.944,-1.53 -8.214,1.64 -1.19,2.98 6.827,28.29 9.446,29.16 2.934,0.98 8.902,-2.49 11.91,-2.87 3.871,-0.49 9.863,3.07 12.732,-1.23 8.359,-12.54 -1.643,-29.75 -1.643,-44.77"
   style="fill:#000300"
   id="path198" />
            </g><g
     transform="matrix(-0.997523,0.274013,-0.0139822,-0.275405,2417.48,3916.71)"
     id="g204">
                <path
   d="m 730.002,3955.89 c -0.865,-1.17 5.138,11.34 6.001,15.66 2.221,11.1 2.437,21.46 9.447,30.8 2.543,3.39 9.532,2.05 13.553,2.05 9.295,0 25.001,3.09 31.625,-5.75 2.149,-2.86 0.023,-7.64 -0.411,-10.67 -1.747,-12.24 -7.191,-23.74 -9.857,-35.74 -0.634,-2.85 -2.679,-14 -6.572,-14.78 -8.713,-1.74 -13.051,8.62 -18.481,13.55 -3.061,2.79 -6.827,2.8 -10.268,4.52 -4.046,2.02 -8.915,1.5 -12.732,-0.41 -1.608,-0.8 -3.851,4.42 -2.875,2.46"
   style="fill:#000300"
   id="path202" />
            </g><g
     transform="matrix(-0.997523,0.274013,-0.0339386,-0.668485,2494.83,5491.34)"
     id="g208">
                <path
   d="m 765.069,3835.39 c -1.2,-0.75 0.565,3.59 0.916,4.73 1.137,3.7 2.038,9.02 4.929,11.91 4.82,4.82 20.564,-2.2 21.767,-8.21 0.597,-2.99 0.124,-5.38 -0.821,-8.22 -0.972,-2.91 -0.275,-6.71 -1.643,-9.44 -2.513,-5.03 -20.722,8.62 -25.875,8.62"
   style="fill:#000300"
   id="path206" />
            </g><g
     transform="matrix(-0.997523,0.274013,-0.0339386,-0.668485,2494.83,5491.34)"
     id="g212">
                <path
   d="m 747.759,3834.2 c 0.785,-1.21 -4.616,1.29 -6.006,1.81 -5.225,1.96 -11.035,2.76 -16.428,4.11 -0.544,0.14 -6.315,2.31 -4.518,4.11 7.35,7.35 31.632,2.89 25.053,-10.27"
   style="fill:#000300"
   id="path210" />
            </g><g
     transform="matrix(-0.997523,0.274013,-0.0339386,-0.668485,2494.83,5491.34)"
     id="g216">
                <path
   d="m 684.747,3836.75 c -1.564,-6.2 11.158,-4.45 14.293,-3.2 12.729,5.09 6.997,22.66 -2.465,28.34 -12,7.2 -11.5,-22.48 -11.5,-27.11"
   style="fill:#000300"
   id="path214" />
            </g><g
     transform="matrix(-0.997523,0.274013,-0.0339386,-0.668485,2494.83,5491.34)"
     id="g220">
                <path
   d="m 723.298,4032.3 c 8.559,4.8 18.583,12.05 28.312,14 7.677,1.53 16.178,-1.24 23.821,-1.24 0.698,0 1.56,-0.9 2.054,-0.41 4.398,4.4 -4.414,10.38 -7.393,10.68 -6.353,0.64 -12.628,-0.71 -18.892,-1.23 -14.202,-1.18 -27.518,-2 -27.518,-20.13"
   style="fill:#000300"
   id="path218" />
            </g><g
     transform="matrix(-0.997523,0.274013,-0.0339386,-0.668485,2494.83,5491.34)"
     id="g224">
                <path
   d="m 825.851,4000.48 c -1.203,-0.3 -17.948,11.77 -15.509,15.42 3.436,5.16 17.101,1.83 18.481,-3.69 0.411,-1.64 -2.396,-9.04 -3.285,-9.04"
   style="fill:#000300"
   id="path222" />
            </g><g
     transform="matrix(-0.997523,0.274013,-0.0339386,-0.668485,2494.83,5491.34)"
     id="g228">
                <path
   d="m 816.541,4058.61 c -7.734,7.47 -32.094,7.83 -37.003,12.74 -7.064,7.06 8.385,16.59 15.607,14.79 8.063,-2.02 25.328,-8.63 30.803,-15.2 9.194,-11.03 -0.401,-16.84 -11.089,-11.5"
   style="fill:#000300"
   id="path226" />
            </g><g
     transform="rotate(180,1664.51,3595.86)"
     id="g232">
                <path
   d="m 1836.13,4229.3 c -3.45,-10.41 -125.33,-281.79 -152.4,-339.05 -3.21,-6.8 -5.26,-10.73 -5.66,-11.18 -25.24,-28.58 -63.69,-21.49 -84.64,-1.27 -14.24,13.75 -20.38,33.43 -9.48,52.11 21.58,37 120.18,309.84 145.19,348.86 14.59,22.78 45.92,24.63 71.4,13.46 25.53,-11.19 44.77,-35.22 35.59,-62.93 z m -162.55,-346.5 c 0.23,0.46 2.4,4.69 4.88,9.94 27.02,57.15 148.69,328 152.14,338.4 8.18,24.71 -9.63,45.76 -32.41,55.75 -22.83,10.01 -51.06,9.15 -64.14,-11.26 -24.99,-39.01 -123.49,-311.68 -145.06,-348.66 -9.42,-16.14 -3.81,-33.09 8.49,-44.97 18.83,-18.18 53.37,-24.78 76.1,0.8 z"
   style="fill:#1a1719"
   id="path230" />
            </g><g
     transform="rotate(180,1664.51,3595.86)"
     id="g236">
                <path
   d="m 1585.49,3916.37 c 0.17,-0.36 0.2,-0.78 0.04,-1.18 -0.71,-1.77 -1.27,-2.88 -1.64,-3.46 -0.29,-0.46 -0.54,-0.71 -0.71,-0.83 -0.35,-0.27 -0.69,-0.33 -0.93,-0.34 -0.42,0 -0.78,0.14 -1.07,0.42 -0.18,0.16 -0.36,0.41 -0.45,0.77 -0.05,0.22 -0.09,0.69 0.09,1.34 0.87,3.37 7.9,17.33 24.07,20.03 15.02,2.5 37.18,-2.73 52.5,-13.5 10.43,-7.33 17.66,-17.2 17.66,-28.84 0,-0.8 -0.65,-1.46 -1.45,-1.46 -0.81,0 -1.46,0.66 -1.46,1.46 0,10.71 -6.83,19.7 -16.42,26.45 -14.7,10.33 -35.95,15.41 -50.35,13.01 -10.69,-1.78 -16.99,-8.98 -19.88,-13.87 z"
   style="fill:#1a1719"
   id="path234" />
            </g><g
     transform="rotate(180,1664.51,3595.86)"
     id="g240">
                <path
   d="m 1596.95,3916.85 c 0.17,-0.21 0.37,-0.44 0.57,-0.66 4.52,-4.8 20.11,-18.17 24.34,-20.59 0.7,-0.4 0.94,-1.29 0.54,-1.99 -0.4,-0.7 -1.29,-0.94 -1.99,-0.54 -3.41,1.95 -14.08,10.85 -20.72,16.96 -2.96,2.73 -5.13,4.95 -5.63,5.81 -0.46,0.77 -0.3,1.38 -0.15,1.68 0.21,0.45 0.76,1.14 1.98,0.8 0.66,-0.19 1.09,-0.81 1.06,-1.47 z"
   style="fill:#1a1719"
   id="path238" />
            </g><g
     transform="rotate(180,1664.51,3595.86)"
     id="g244">
                <path
   d="m 1618.94,3912.52 c -0.3,-0.02 -0.6,0.05 -0.87,0.22 -0.68,0.43 -0.89,1.33 -0.46,2.01 0.25,0.39 0.66,0.74 1.39,0.73 0.36,-0.01 1.22,-0.29 2.35,-0.93 2.82,-1.62 8.38,-5.46 12.14,-7.62 0.9,-0.52 1.68,-0.94 2.29,-1.19 0.2,-0.08 0.48,-0.16 0.51,-0.16 0.79,-0.02 1.42,-0.67 1.42,-1.46 0,-0.81 -0.65,-1.46 -1.46,-1.46 -0.32,0 -0.78,0.08 -1.33,0.29 -0.86,0.32 -2.1,0.98 -3.52,1.82 -4.3,2.54 -10.47,6.89 -12.46,7.75 z m 1.07,0.58 0.02,0.02 z m -0.06,-0.08 0.01,0.01 z"
   style="fill:#1a1719"
   id="path242" />
            </g><g
     transform="rotate(180,1664.51,3595.86)"
     id="g248">
                <path
   d="m 1608.8,3888.38 c -6.75,7.51 -8.26,13.51 -6.72,17.94 1.55,4.48 6.32,7.62 12.77,9.26 12.08,3.09 30.05,1.11 40.78,-4.85 0.71,-0.39 0.96,-1.28 0.57,-1.99 -0.39,-0.7 -1.28,-0.95 -1.98,-0.56 -10.17,5.65 -27.2,7.5 -38.65,4.58 -5.32,-1.36 -9.45,-3.69 -10.74,-7.4 -1.3,-3.75 0.41,-8.66 6.14,-15.03 0.54,-0.6 0.49,-1.53 -0.11,-2.06 -0.6,-0.54 -1.52,-0.49 -2.06,0.11 z"
   style="fill:#1a1719"
   id="path246" />
            </g><g
     transform="rotate(180,1664.51,3595.86)"
     id="g252">
                <path
   d="m 1631.42,3877.83 c 1.23,-3.61 2.79,-5.45 4.75,-5.72 2,-0.28 4.15,1.02 6.29,3.11 4.39,4.28 8.46,11.98 10.25,19.67 1.17,5.03 1.37,10.05 -0.05,14.08 -0.27,0.76 0.13,1.59 0.89,1.86 0.76,0.27 1.59,-0.13 1.86,-0.89 1.59,-4.5 1.44,-10.1 0.14,-15.71 -1.92,-8.25 -6.34,-16.5 -11.05,-21.1 -2.92,-2.84 -6.01,-4.29 -8.73,-3.91 -2.76,0.38 -5.39,2.6 -7.11,7.67 -0.26,0.76 0.15,1.59 0.91,1.85 0.76,0.26 1.59,-0.15 1.85,-0.91 z"
   style="fill:#1a1719"
   id="path250" />
            </g><g
     transform="rotate(180,1664.51,3595.86)"
     id="g256">
                <path
   d="m 1622.08,3893 c 2.21,-2.66 4.58,-3.36 6.58,-2.65 3.06,1.09 5.02,5.13 3.82,9.06 -0.92,3.04 -3.72,5.97 -9.14,7.77 -0.76,0.25 -1.17,1.08 -0.92,1.85 0.25,0.76 1.08,1.17 1.85,0.92 6.61,-2.21 9.87,-5.97 11,-9.69 1.69,-5.54 -1.32,-11.12 -5.64,-12.65 -2.92,-1.05 -6.54,-0.39 -9.79,3.52 -0.52,0.62 -0.43,1.54 0.19,2.06 0.61,0.51 1.54,0.43 2.05,-0.19 z"
   style="fill:#1a1719"
   id="path254" />
            </g><g
     transform="rotate(180,1664.51,3595.86)"
     id="g260">
                <path
   d="m 1639.29,3894.76 c 12.46,-3.67 26.69,-6.97 39.64,-6.97 0.81,0 1.46,-0.65 1.46,-1.45 0,-0.81 -0.65,-1.46 -1.46,-1.46 -13.22,0 -27.74,3.33 -40.46,7.08 -0.77,0.22 -1.21,1.04 -0.99,1.81 0.23,0.77 1.04,1.21 1.81,0.99 z"
   style="fill:#1a1719"
   id="path258" />
            </g><g
     transform="rotate(180,1664.51,3595.86)"
     id="g264">
                <path
   d="m 1597.76,3897.85 c -0.11,-1.63 1.4,-1.66 3.06,-1.52 3.88,0.31 9.03,2.51 9.96,2.91 0.74,0.31 1.6,-0.03 1.92,-0.77 0.31,-0.74 -0.03,-1.6 -0.77,-1.92 -1.01,-0.43 -6.64,-2.79 -10.87,-3.13 -2.52,-0.2 -4.58,0.4 -5.55,1.84 -0.47,0.7 -0.74,1.61 -0.66,2.79 0.06,0.8 0.75,1.41 1.56,1.36 0.8,-0.06 1.41,-0.76 1.35,-1.56 z"
   style="fill:#1a1719"
   id="path262" />
            </g><g
     transform="rotate(180,1664.51,3595.86)"
     id="g268">
                <path
   d="m 1615.88,3873.82 c 0.32,-0.08 0.64,0.11 1,0.33 0.63,0.4 1.27,1.02 1.89,1.74 2.15,2.44 4.07,5.92 4.74,6.85 0.47,0.65 1.38,0.8 2.03,0.34 0.66,-0.47 0.81,-1.38 0.34,-2.04 -0.81,-1.14 -3.45,-5.88 -6.13,-8.33 -1.55,-1.42 -3.19,-2.07 -4.58,-1.72 -0.78,0.19 -1.25,0.98 -1.06,1.77 0.2,0.78 0.99,1.25 1.77,1.06 z"
   style="fill:#1a1719"
   id="path266" />
            </g><g
     transform="rotate(180,1664.51,3595.86)"
     id="g272">
                <path
   d="m 1643.78,3908.55 c 2.62,2.4 2.3,2.1 5,3.89 0.67,0.45 1.58,0.27 2.02,-0.4 0.45,-0.67 0.27,-1.58 -0.4,-2.02 -2.51,-1.67 -2.22,-1.39 -4.65,-3.62 -0.59,-0.54 -1.52,-0.5 -2.06,0.09 -0.54,0.6 -0.5,1.52 0.09,2.06 z"
   style="fill:#1a1719"
   id="path270" />
            </g><g
     transform="rotate(180,1664.51,3595.86)"
     id="g276">
                <path
   d="m 1603.73,3934.54 c 11.43,48.4 43.93,91.58 61.39,138.14 13.61,36.3 22.77,73.12 40.07,107.72 2.62,5.25 3.7,11.03 4.68,16.84 1.02,6.05 1.92,12.13 4.16,17.73 4.28,10.69 13.68,21.29 22.04,32.33 8.07,10.66 15.2,21.73 15.2,33.81 0,0.8 0.65,1.46 1.46,1.46 0.8,0 1.46,-0.66 1.46,-1.46 0,-12.68 -7.32,-24.38 -15.8,-35.57 -8.19,-10.82 -17.46,-21.18 -21.65,-31.66 -2.16,-5.4 -3.01,-11.28 -3.99,-17.12 -1.03,-6.1 -2.2,-12.16 -4.95,-17.66 -17.26,-34.52 -26.38,-71.24 -39.95,-107.45 -17.42,-46.44 -49.88,-89.5 -61.28,-137.78 -0.19,-0.79 -0.97,-1.27 -1.76,-1.09 -0.78,0.19 -1.27,0.98 -1.08,1.76 z"
   style="fill:#1a1719"
   id="path274" />
            </g><g
     transform="rotate(180,1671.52,3595.625)"
     id="g280">
                <path
   d="m 1520.01,3856.56 c -12.65,-2.19 -43.86,-46.37 -54.91,-57.43 -30.5,-30.5 -57.45,-64.8 -91.93,-90.66 -6.64,-4.98 -10.28,-13.39 -16.37,-18.26 -12.15,-9.72 -43.41,-39.54 -47.22,-54.78 -3.75,-14.98 -1.03,-22.5 5.66,-35.89 15.93,-31.86 30.1,-44.76 64.88,-44.76 5.8,0 21.42,2.42 27.05,3.83 21.45,5.37 50.24,46.53 63.14,63.73 6.02,8.03 54.52,60.21 70.34,79.2 19.48,23.37 47.6,40.39 62.58,66.62 19.93,34.9 -15.32,50.33 -33.61,64.97 -1.94,1.56 -46.86,23.43 -49.61,23.43 z"
   style="fill:#96a360"
   id="path278" />
            </g><g
     transform="rotate(180,1671.52,3595.625)"
     id="g284">
                <path
   d="m 1610.69,3863.9 c -6.62,-24.11 12.62,-57.48 -0.78,-84.28 -5.41,-10.82 -29.18,-7.98 -35.44,-1.71 -2.37,2.37 0.45,8.99 -1.89,11.33 -0.14,0.14 -2.32,0.1 -2.52,0 -6.88,-3.44 -28.4,-5.73 -34.96,0.83 -5.08,5.08 -7.38,15.89 -5.78,22.29 0.41,1.65 8.29,5.56 7.55,6.29 -6.27,6.28 -23.32,5.72 -28.96,17 -11.16,22.33 32.7,31.8 46.55,31.8 9.62,0 29.19,1.51 38.45,-1.57 5.55,-1.85 12.68,-1.98 17.78,-1.98 z"
   style="fill:#f9d6b8"
   id="path282" />
            </g><g
     transform="matrix(-1.24816,0,0,-1.14478,3621.43,7773.32)"
     id="g288">
                <path
   d="m 1512.29,3886.01 c -0.45,0.07 -1.92,0.27 -3.39,0.57 -5.36,1.07 -14.98,3.25 -25.79,4.33 -15.9,1.6 -34.28,0.69 -46.04,-8.95 -9.19,-7.54 -121.78,-146.95 -156.33,-178.53 -10.98,-10.03 -13.76,-24.2 -10.96,-38.72 2.71,-14.05 10.72,-28.43 21.39,-39.38 20.47,-21 60.19,-20.94 82.66,7.77 53.68,68.61 129.2,155.3 142.16,176.72 2.81,4.64 4.08,12.54 4.27,21.59 0.41,19.97 -4.09,45.74 -5.06,51.44 -0.04,0.26 -0.08,0.53 -0.11,0.71 -0.01,0.23 -0.04,0.46 -0.11,0.68 -0.54,1.88 -2.01,1.89 -2.69,1.77 z m -1.54,-4.94 c -0.2,0.03 -0.41,0.06 -0.63,0.1 -4.61,0.81 -15.25,3.45 -27.44,4.67 -14.76,1.48 -31.88,1 -42.8,-7.96 -9.18,-7.52 -121.62,-146.81 -156.14,-178.35 -9.56,-8.73 -11.82,-21.13 -9.38,-33.77 2.53,-13.12 10.05,-26.5 20.01,-36.71 18.8,-19.29 55.27,-19.01 75.9,7.36 53.55,68.42 128.89,154.85 141.82,176.22 2.45,4.05 3.33,10.99 3.49,18.89 0.39,18.7 -3.65,42.59 -4.83,49.55 z"
   style="fill:#1a1719"
   id="path286" />
            </g><g
     transform="rotate(180,1671.52,3595.625)"
     id="g292">
                <path
   d="m 1601.56,3803.82 c 0.08,-0.17 0.12,-0.37 0.12,-0.57 0,-0.81 -0.65,-1.46 -1.46,-1.46 -0.49,0 -0.98,0.18 -1.32,0.77 -0.13,0.22 -0.31,0.87 -0.24,1.91 0.35,4.54 3.96,21.93 5.61,33.86 0.67,4.84 1.07,8.73 0.67,10.31 -0.2,0.78 0.27,1.58 1.05,1.77 0.78,0.2 1.58,-0.27 1.78,-1.05 0.39,-1.57 0.2,-5.18 -0.39,-9.75 -1.29,-10.1 -4.32,-25.18 -5.43,-32.42 -0.23,-1.51 -0.35,-2.92 -0.39,-3.37 z m -1.26,0.88 h -0.08 z m 0.35,-0.06 c -0.11,0.04 -0.23,0.06 -0.35,0.06 0.12,0 0.24,-0.02 0.35,-0.06 z"
   style="fill:#1a1719"
   id="path290" />
            </g><g
     transform="rotate(180,1671.52,3595.625)"
     id="g296">
                <path
   d="m 1607.87,3852.95 c -6.25,-0.36 -43.14,4.61 -57.65,10.49 -2.36,0.96 -4.15,1.96 -5.23,2.94 -1.02,0.94 -1.47,1.94 -1.47,2.88 0,0.8 0.65,1.46 1.46,1.46 0.8,0 1.45,-0.66 1.45,-1.46 0,-0.15 0.12,-0.27 0.24,-0.42 0.29,-0.35 0.73,-0.7 1.29,-1.05 2.03,-1.28 5.4,-2.53 9.53,-3.73 16.52,-4.79 44.86,-8.5 50.21,-8.2 0.81,0.04 1.5,-0.57 1.54,-1.38 0.05,-0.8 -0.57,-1.49 -1.37,-1.53 z"
   style="fill:#1a1719"
   id="path294" />
            </g><g
     transform="rotate(180,1671.52,3595.625)"
     id="g300">
                <path
   d="m 1605.24,3851.11 c -1.56,-0.28 -4.14,-1.9 -7.32,-4.24 -7.91,-5.83 -19.02,-16.27 -26.31,-24.91 -2.64,-3.12 -4.77,-5.99 -6.05,-8.31 -0.73,-1.32 -1.19,-2.41 -1.19,-3.23 0,-0.8 -0.65,-1.46 -1.46,-1.46 -0.8,0 -1.46,0.66 -1.46,1.46 0,1.17 0.52,2.76 1.55,4.64 1.36,2.45 3.6,5.49 6.38,8.78 7.43,8.8 18.75,19.43 26.81,25.38 3.66,2.7 6.73,4.43 8.52,4.76 0.8,0.14 1.56,-0.38 1.7,-1.17 0.15,-0.8 -0.38,-1.55 -1.17,-1.7 z"
   style="fill:#1a1719"
   id="path298" />
            </g><g
     transform="rotate(180,1670.315,3605.23)"
     id="g304">
                <path
   d="m 1610.8,3807.03 c -5.56,-19.55 -23.37,-22.24 -34.43,-16.92 -6.8,3.27 -11.09,9.51 -8.97,16.8 -4.48,-1.26 -13.33,-3.46 -21.12,-3.64 -4.98,-0.11 -9.55,0.64 -12.45,2.79 -6.57,4.86 -9.25,9.99 -9.86,14.74 -0.94,7.32 3.18,13.83 6.05,17.38 -0.87,0.07 -1.82,0.2 -2.83,0.4 -6.39,1.28 -15.33,5.23 -20.8,10.33 -3.39,3.15 -5.43,6.78 -5.15,10.46 0.2,2.5 1.45,5.08 4.22,7.6 11.15,10.09 25.62,11.93 32.1,11.93 0.8,0 1.46,-0.65 1.46,-1.46 0,-0.8 -0.66,-1.45 -1.46,-1.45 -6.08,0 -19.68,-1.71 -30.14,-11.18 -2.09,-1.9 -3.12,-3.78 -3.27,-5.67 -0.22,-2.88 1.58,-5.63 4.23,-8.1 5.09,-4.75 13.43,-8.41 19.38,-9.6 2.29,-0.46 4.18,-0.6 5.29,-0.15 0.65,0.27 1.4,0.03 1.78,-0.57 0.38,-0.6 0.27,-1.38 -0.25,-1.86 0,0 -8.96,-8.01 -7.71,-17.69 0.53,-4.14 2.97,-8.53 8.69,-12.76 3.36,-2.49 9.32,-2.55 15.24,-1.91 9.33,1.02 18.62,4.06 18.62,4.06 0.57,0.18 1.18,0.01 1.57,-0.44 0.38,-0.45 0.45,-1.09 0.18,-1.62 -3.52,-6.84 0.28,-12.79 6.46,-15.76 9.78,-4.7 25.45,-2.19 30.37,15.09 0.22,0.78 1.03,1.22 1.8,1 0.78,-0.22 1.23,-1.02 1,-1.8 z"
   style="fill:#1a1719"
   id="path302" />
            </g><g
     transform="rotate(180,1671.52,3595.625)"
     id="g308">
                <path
   d="m 1329.75,3642.64 c 3.04,7.09 11.09,13.65 17.84,17.03 0.72,0.36 1.59,0.06 1.95,-0.66 0.36,-0.72 0.07,-1.59 -0.65,-1.95 -6.2,-3.1 -13.67,-9.05 -16.46,-15.57 -0.32,-0.74 -1.18,-1.08 -1.92,-0.77 -0.74,0.32 -1.08,1.18 -0.76,1.92 z"
   style="fill:#1a1719"
   id="path306" />
            </g><g
     transform="rotate(180,1671.52,3595.625)"
     id="g312">
                <path
   d="m 1324.04,3616.26 c 1.55,0.51 3.25,2.08 4.87,3.22 1.45,1.02 2.87,1.71 4.08,1.71 0.81,0 1.46,-0.65 1.46,-1.46 0,-0.8 -0.65,-1.45 -1.46,-1.45 -0.39,0 -0.81,-0.2 -1.25,-0.45 -0.64,-0.36 -1.31,-0.84 -1.99,-1.35 -1.61,-1.2 -3.28,-2.49 -4.79,-2.99 -0.76,-0.26 -1.59,0.16 -1.84,0.92 -0.26,0.77 0.16,1.59 0.92,1.85 z"
   style="fill:#1a1719"
   id="path310" />
            </g><g
     transform="rotate(180,1671.52,3595.625)"
     id="g316">
                <path
   d="m 1354.39,3643.33 c 1.04,0.32 1.85,1.19 2.69,2.06 1.14,1.17 2.3,2.39 3.72,3.09 0.72,0.36 1.6,0.07 1.96,-0.65 0.36,-0.72 0.07,-1.59 -0.65,-1.95 -1.4,-0.7 -2.45,-2.07 -3.58,-3.17 -1,-0.98 -2.06,-1.8 -3.28,-2.17 -0.77,-0.24 -1.59,0.2 -1.82,0.97 -0.24,0.77 0.19,1.58 0.96,1.82 z"
   style="fill:#1a1719"
   id="path314" />
            </g><g
     transform="rotate(180,1671.52,3595.625)"
     id="g320">
                <path
   d="m 1366.51,3680.92 c 1.62,0.2 3.53,1.04 5.5,2.06 3.22,1.67 6.57,3.87 9.12,5.15 0.72,0.36 1.6,0.07 1.96,-0.65 0.36,-0.72 0.06,-1.6 -0.66,-1.96 -2.54,-1.27 -5.87,-3.46 -9.07,-5.13 -2.32,-1.2 -4.59,-2.13 -6.49,-2.36 -0.8,-0.1 -1.53,0.46 -1.63,1.26 -0.1,0.8 0.47,1.53 1.27,1.63 z"
   style="fill:#1a1719"
   id="path318" />
            </g><g
     transform="rotate(180,1671.52,3595.625)"
     id="g324">
                <path
   d="m 1380.14,3661.84 c 1.11,0.03 2.53,1.04 4.02,2.25 2.64,2.13 5.34,5.07 6.76,6.48 0.57,0.57 1.49,0.57 2.06,0 0.57,-0.56 0.57,-1.49 0,-2.06 -1.71,-1.71 -5.26,-5.57 -8.4,-7.76 -1.6,-1.12 -3.15,-1.8 -4.37,-1.83 -0.81,-0.02 -1.47,0.62 -1.49,1.43 -0.02,0.8 0.62,1.47 1.42,1.49 z"
   style="fill:#1a1719"
   id="path322" />
            </g><g
     transform="rotate(180,1671.52,3595.625)"
     id="g328">
                <path
   d="m 1411.63,3698.21 c 2.29,4.14 4.76,5.75 9.33,7.28 0.77,0.25 1.6,-0.16 1.85,-0.92 0.25,-0.77 -0.16,-1.6 -0.92,-1.85 -3.75,-1.25 -5.82,-2.52 -7.7,-5.92 -0.39,-0.7 -1.28,-0.96 -1.98,-0.57 -0.71,0.39 -0.96,1.28 -0.58,1.98 z"
   style="fill:#1a1719"
   id="path326" />
            </g><g
     transform="rotate(180,1671.52,3595.625)"
     id="g332">
                <path
   d="m 1406.44,3730.08 c 0.13,-0.09 0.3,0 0.49,0.06 0.55,0.17 1.16,0.52 1.81,0.98 3.66,2.57 8.25,8.22 9.62,9.59 0.57,0.57 1.5,0.57 2.06,0 0.57,-0.57 0.57,-1.49 0,-2.06 -1.42,-1.43 -6.2,-7.25 -10.01,-9.92 -1.16,-0.82 -2.27,-1.35 -3.2,-1.52 -0.92,-0.16 -1.72,0 -2.38,0.44 -0.68,0.44 -0.86,1.35 -0.41,2.02 0.44,0.67 1.35,0.85 2.02,0.41 z"
   style="fill:#1a1719"
   id="path330" />
            </g><g
     transform="rotate(180,1671.52,3595.625)"
     id="g336">
                <path
   d="m 1395.41,3685.07 c 0.18,3.1 0.89,6.85 2.58,9.83 1.82,3.22 4.73,5.58 9.2,5.58 0.81,0 1.46,-0.65 1.46,-1.46 0,-0.8 -0.65,-1.46 -1.46,-1.46 -3.25,0 -5.34,-1.75 -6.67,-4.1 -1.46,-2.58 -2.04,-5.85 -2.19,-8.56 -0.05,-0.8 -0.74,-1.42 -1.54,-1.37 -0.8,0.04 -1.42,0.73 -1.38,1.54 z"
   style="fill:#1a1719"
   id="path334" />
            </g><g
     transform="rotate(180,1671.52,3595.625)"
     id="g340">
                <path
   d="m 1410.35,3663.86 c 9.05,0.06 13.42,3.99 19.19,9.76 0.57,0.57 1.5,0.57 2.07,0 0.56,-0.57 0.56,-1.49 0,-2.06 -6.37,-6.37 -11.26,-10.55 -21.24,-10.62 -0.81,-0.01 -1.46,0.64 -1.47,1.45 -0.01,0.8 0.64,1.46 1.45,1.47 z"
   style="fill:#1a1719"
   id="path338" />
            </g><g
     transform="rotate(180,1671.52,3595.625)"
     id="g344">
                <path
   d="m 1379.82,3625.9 c 0.38,0.19 1.32,0.68 2.06,1.23 4.07,2.98 10.2,9.22 11.19,10.01 0.63,0.5 1.55,0.4 2.05,-0.23 0.5,-0.63 0.4,-1.55 -0.23,-2.05 -0.99,-0.8 -7.18,-7.07 -11.28,-10.08 -1.5,-1.1 -2.81,-1.77 -3.61,-1.86 -0.93,-0.11 -1.57,0.23 -1.99,0.82 -0.46,0.66 -0.3,1.57 0.36,2.03 0.44,0.31 1,0.34 1.45,0.13 z"
   style="fill:#1a1719"
   id="path342" />
            </g><g
     transform="rotate(180,1671.52,3595.625)"
     id="g348">
                <path
   d="m 1347.1,3596.03 c 4.48,5.47 8.85,10.19 14.46,14.68 0.63,0.5 1.55,0.4 2.05,-0.23 0.5,-0.63 0.4,-1.55 -0.23,-2.05 -5.44,-4.35 -9.67,-8.94 -14.02,-14.25 -0.51,-0.62 -1.43,-0.71 -2.05,-0.2 -0.63,0.51 -0.72,1.43 -0.21,2.05 z"
   style="fill:#1a1719"
   id="path346" />
            </g><g
     transform="rotate(180,1671.52,3595.625)"
     id="g352">
                <path
   d="m 1357.44,3628.97 c 5.38,5.39 10.82,9.01 17.59,12.4 0.72,0.36 1.6,0.07 1.96,-0.65 0.36,-0.72 0.07,-1.6 -0.65,-1.96 -6.48,-3.24 -11.69,-6.7 -16.83,-11.85 -0.57,-0.57 -1.49,-0.57 -2.06,-0.01 -0.57,0.57 -0.57,1.5 -0.01,2.07 z"
   style="fill:#1a1719"
   id="path350" />
            </g><g
     transform="rotate(180,1671.52,3595.625)"
     id="g356">
                <path
   d="m 1407.29,3651.97 c 0.7,5.06 2.12,6.76 4.29,8.53 1.26,1.02 2.83,2.05 4.75,3.97 0.57,0.57 1.49,0.57 2.06,0 0.57,-0.56 0.57,-1.49 0,-2.06 -2.01,-2.01 -3.65,-3.1 -4.97,-4.17 -1.69,-1.37 -2.69,-2.74 -3.24,-6.67 -0.11,-0.8 -0.84,-1.36 -1.64,-1.25 -0.8,0.11 -1.36,0.85 -1.25,1.65 z"
   style="fill:#1a1719"
   id="path354" />
            </g><g
     transform="rotate(180,1671.52,3595.625)"
     id="g360">
                <path
   d="m 1412.06,3618.9 c 4.57,3.26 8.43,8.05 12.4,12.03 0.57,0.57 1.49,0.57 2.06,0 0.57,-0.57 0.57,-1.49 0,-2.06 -4.08,-4.09 -8.07,-8.99 -12.76,-12.34 -0.66,-0.47 -1.57,-0.31 -2.03,0.34 -0.47,0.66 -0.32,1.57 0.33,2.03 z"
   style="fill:#1a1719"
   id="path358" />
            </g><g
     transform="rotate(180,1671.52,3595.625)"
     id="g364">
                <path
   d="m 1379.8,3601.65 c 3.08,2.47 6,4.29 9.47,6.27 0.7,0.4 1.59,0.15 1.99,-0.54 0.4,-0.7 0.16,-1.6 -0.54,-1.99 -3.33,-1.91 -6.14,-3.64 -9.09,-6.01 -0.63,-0.5 -1.55,-0.4 -2.05,0.22 -0.5,0.63 -0.4,1.55 0.22,2.05 z"
   style="fill:#1a1719"
   id="path362" />
            </g><g
     transform="rotate(180,1671.52,3595.625)"
     id="g368">
                <path
   d="m 1362.88,3575.56 c 3.29,2.51 2.87,2.27 6.09,4.95 0.62,0.51 1.54,0.43 2.05,-0.19 0.52,-0.62 0.44,-1.54 -0.18,-2.05 -3.27,-2.73 -2.84,-2.48 -6.19,-5.03 -0.63,-0.48 -1.55,-0.36 -2.04,0.28 -0.49,0.64 -0.36,1.55 0.27,2.04 z"
   style="fill:#1a1719"
   id="path366" />
            </g><g
     transform="rotate(180,1671.52,3595.625)"
     id="g372">
                <path
   d="m 1394.54,3571.25 c 4.56,3.06 14.02,13.38 16.39,18.12 0.36,0.72 1.24,1.01 1.96,0.65 0.72,-0.36 1.01,-1.24 0.65,-1.96 -2.51,-5.02 -12.54,-15.99 -17.38,-19.23 -0.67,-0.45 -1.57,-0.27 -2.02,0.39 -0.45,0.67 -0.27,1.58 0.4,2.03 z"
   style="fill:#1a1719"
   id="path370" />
            </g><g
     transform="rotate(180,1671.52,3595.625)"
     id="g376">
                <path
   d="m 1358.66,3591.38 c 0.56,2.23 1.96,3.91 3.64,5.4 1.43,1.27 3.08,2.39 4.42,3.73 0.57,0.57 1.49,0.57 2.06,0 0.57,-0.57 0.57,-1.5 0,-2.06 -1.37,-1.38 -3.07,-2.55 -4.55,-3.86 -1.24,-1.1 -2.33,-2.29 -2.75,-3.93 -0.19,-0.78 -0.99,-1.25 -1.77,-1.05 -0.78,0.2 -1.25,0.99 -1.05,1.77 z"
   style="fill:#1a1719"
   id="path374" />
            </g><g
     transform="rotate(180,1671.52,3595.625)"
     id="g380">
                <path
   d="m 1339.22,3577.7 c -0.16,-0.35 -0.46,-0.65 -0.86,-0.79 -1.08,-0.37 -1.64,0.23 -1.79,0.41 -0.26,0.32 -0.43,0.73 -0.31,1.26 0.03,0.16 0.11,0.42 0.34,0.69 0.12,0.15 0.42,0.43 0.88,0.77 1.64,1.23 5.79,3.91 7.22,4.86 0.67,0.45 1.58,0.27 2.02,-0.4 0.45,-0.67 0.27,-1.58 -0.4,-2.02 -1.42,-0.95 -5.55,-3.61 -7.1,-4.78 z"
   style="fill:#1a1719"
   id="path378" />
            </g><g
     transform="rotate(180,1671.52,3595.625)"
     id="g384">
                <path
   d="m 1434.98,3649.51 c 1.3,1.93 3.44,3.83 5.85,5.7 3.36,2.6 7.27,5.15 9.84,7.72 0.57,0.57 1.49,0.57 2.06,0 0.57,-0.57 0.57,-1.49 0,-2.06 -2.22,-2.22 -5.39,-4.44 -8.4,-6.67 -2.8,-2.08 -5.48,-4.16 -6.94,-6.32 -0.45,-0.67 -1.35,-0.85 -2.02,-0.4 -0.67,0.45 -0.84,1.36 -0.39,2.03 z"
   style="fill:#1a1719"
   id="path382" />
            </g><g
     transform="rotate(180,1671.52,3595.625)"
     id="g388">
                <path
   d="m 1414.79,3637.3 c 1.57,1.53 3.31,3.79 3.52,4.02 0.52,0.61 1.44,0.69 2.05,0.16 0.61,-0.52 0.68,-1.44 0.16,-2.05 -0.21,-0.25 -2.07,-2.65 -3.73,-4.25 -0.89,-0.86 -1.77,-1.49 -2.39,-1.7 -0.72,-0.23 -1.31,-0.12 -1.76,0.17 -0.34,0.22 -0.65,0.56 -0.82,1.11 -0.15,0.48 -0.19,1.33 0.1,2.65 0.18,0.79 0.96,1.28 1.74,1.11 0.61,-0.14 1.05,-0.64 1.13,-1.22 z"
   style="fill:#1a1719"
   id="path386" />
            </g><g
     transform="rotate(180,1671.52,3595.625)"
     id="g392">
                <path
   d="m 1434.34,3604.84 c 0.25,2.56 2.58,5.52 5.77,8.36 4.26,3.8 9.99,7.54 12.71,10.27 0.57,0.57 1.49,0.57 2.06,0 0.57,-0.57 0.57,-1.5 0,-2.06 -2.75,-2.76 -8.52,-6.55 -12.83,-10.39 -1.61,-1.43 -3,-2.86 -3.9,-4.24 -0.49,-0.77 -0.83,-1.51 -0.9,-2.22 -0.08,-0.8 -0.8,-1.39 -1.6,-1.31 -0.8,0.08 -1.38,0.79 -1.31,1.59 z"
   style="fill:#1a1719"
   id="path390" />
            </g><g
     transform="rotate(180,1671.52,3595.625)"
     id="g396">
                <path
   d="m 1420.13,3590.24 c -0.23,-0.43 -0.66,-0.73 -1.18,-0.77 -0.91,-0.06 -1.42,0.05 -1.6,0.12 -0.67,0.28 -0.86,0.77 -0.93,1.17 -0.04,0.32 -0.05,1.11 0.88,1.62 1.27,0.71 10.94,3.09 14.37,4.81 0.72,0.36 1.6,0.07 1.96,-0.65 0.36,-0.72 0.07,-1.6 -0.65,-1.96 -2.65,-1.32 -9.79,-3.46 -12.85,-4.34 z"
   style="fill:#1a1719"
   id="path394" />
            </g><g
     transform="rotate(180,1671.52,3595.625)"
     id="g400">
                <path
   d="m 1457.12,3651.72 c 7.56,6.19 13.93,12.94 20.81,19.82 0.57,0.57 1.5,0.57 2.07,0 0.57,-0.57 0.57,-1.49 0,-2.06 -6.96,-6.96 -13.4,-13.77 -21.03,-20.02 -0.62,-0.51 -1.54,-0.42 -2.05,0.21 -0.51,0.62 -0.42,1.54 0.2,2.05 z"
   style="fill:#1a1719"
   id="path398" />
            </g><g
     transform="rotate(180,1671.52,3595.625)"
     id="g404">
                <path
   d="m 1473.35,3643.23 c 5.79,6.1 11.68,11.15 16.63,18.08 0.46,0.66 1.38,0.81 2.03,0.34 0.65,-0.47 0.81,-1.38 0.34,-2.03 -5.03,-7.04 -10.99,-12.19 -16.88,-18.4 -0.55,-0.58 -1.48,-0.61 -2.06,-0.05 -0.59,0.55 -0.61,1.48 -0.06,2.06 z"
   style="fill:#1a1719"
   id="path402" />
            </g><g
     transform="rotate(180,1671.52,3595.625)"
     id="g408">
                <path
   d="m 1470.77,3687.77 c 2.95,-0.13 5.41,1.24 7.44,3.18 2.2,2.12 3.91,4.91 5.19,7.48 0.36,0.72 1.24,1.01 1.96,0.65 0.72,-0.36 1.01,-1.24 0.65,-1.96 -1.42,-2.84 -3.34,-5.93 -5.78,-8.27 -2.61,-2.5 -5.8,-4.16 -9.58,-4 -0.81,0.04 -1.43,0.72 -1.4,1.52 0.04,0.81 0.72,1.43 1.52,1.4 z"
   style="fill:#1a1719"
   id="path406" />
            </g><g
     transform="rotate(180,1671.52,3595.625)"
     id="g412">
                <path
   d="m 1453.5,3692.05 c 0.03,-0.16 0.02,-0.33 -0.01,-0.5 -0.15,-0.79 -0.92,-1.31 -1.71,-1.16 -0.43,0.09 -0.73,0.29 -0.95,0.55 -0.22,0.25 -0.37,0.58 -0.39,1 -0.02,0.4 0.22,1.23 0.95,2.22 2.51,3.46 11.21,11.86 12.8,13.85 0.51,0.63 1.43,0.73 2.05,0.23 0.63,-0.5 0.73,-1.42 0.23,-2.05 -1.39,-1.74 -8.22,-8.38 -11.59,-12.33 -0.57,-0.67 -1.11,-1.43 -1.38,-1.81 z"
   style="fill:#1a1719"
   id="path410" />
            </g><g
     transform="rotate(180,1671.52,3595.625)"
     id="g416">
                <path
   d="m 1447.26,3723.52 c 1.48,4.59 4.57,8.21 8.15,11.49 3.38,3.09 7.2,5.87 10.33,9 0.57,0.57 1.49,0.57 2.06,0 0.57,-0.57 0.57,-1.5 0,-2.06 -3.16,-3.16 -7.01,-5.98 -10.42,-9.09 -3.2,-2.93 -6.02,-6.13 -7.34,-10.24 -0.25,-0.76 -1.07,-1.18 -1.84,-0.94 -0.76,0.25 -1.18,1.07 -0.94,1.84 z"
   style="fill:#1a1719"
   id="path414" />
            </g><g
     transform="rotate(180,1671.52,3595.625)"
     id="g420">
                <path
   d="m 1435.36,3686.7 c 0.52,-0.6 0.47,-1.5 -0.12,-2.04 -0.6,-0.54 -1.52,-0.49 -2.06,0.1 -0.75,0.83 -0.93,1.82 -0.57,2.96 0.34,1.05 1.3,2.33 2.7,3.62 4.64,4.29 14.31,9.45 14.89,9.82 0.68,0.43 1.58,0.23 2.01,-0.45 0.43,-0.68 0.23,-1.58 -0.44,-2.01 -0.57,-0.36 -9.98,-5.34 -14.48,-9.5 -0.68,-0.63 -1.24,-1.23 -1.61,-1.79 -0.12,-0.19 -0.22,-0.37 -0.28,-0.54 -0.02,-0.05 -0.03,-0.13 -0.04,-0.17 z"
   style="fill:#1a1719"
   id="path418" />
            </g><g
     transform="rotate(180,1671.52,3595.625)"
     id="g424">
                <path
   d="m 1471.94,3718.68 c 1.44,3.5 3.75,6.27 6.15,8.98 2.2,2.51 4.47,4.97 6.03,8.08 0.36,0.72 1.23,1.01 1.95,0.65 0.72,-0.36 1.02,-1.24 0.66,-1.96 -1.67,-3.34 -4.09,-6 -6.45,-8.69 -2.18,-2.48 -4.33,-4.98 -5.64,-8.17 -0.3,-0.75 -1.16,-1.1 -1.9,-0.8 -0.75,0.31 -1.1,1.16 -0.8,1.91 z"
   style="fill:#1a1719"
   id="path422" />
            </g><g
     transform="rotate(180,1671.52,3595.625)"
     id="g428">
                <path
   d="m 1439.97,3741.46 c 4.62,4.06 9.69,7.22 14.37,11.23 0.61,0.53 1.53,0.46 2.05,-0.15 0.53,-0.61 0.46,-1.54 -0.15,-2.06 -4.67,-4 -9.73,-7.16 -14.35,-11.21 -0.6,-0.53 -1.52,-0.47 -2.05,0.13 -0.53,0.61 -0.47,1.53 0.13,2.06 z"
   style="fill:#1a1719"
   id="path426" />
            </g><g
     transform="rotate(180,1671.52,3595.625)"
     id="g432">
                <path
   d="m 1467.24,3774.68 c 3.96,4.44 10.1,6.42 15.38,9.06 0.72,0.36 1.59,0.07 1.95,-0.65 0.36,-0.72 0.07,-1.6 -0.65,-1.95 -4.96,-2.48 -10.78,-4.23 -14.51,-8.4 -0.53,-0.6 -1.46,-0.65 -2.06,-0.12 -0.6,0.54 -0.65,1.46 -0.11,2.06 z"
   style="fill:#1a1719"
   id="path430" />
            </g><g
     transform="rotate(180,1671.52,3595.625)"
     id="g436">
                <path
   d="m 1449.13,3758.86 c -1.56,2.44 -0.87,4.61 0.88,6.45 2,2.11 5.64,3.74 7.42,4.76 0.7,0.4 1.59,0.16 1.99,-0.54 0.4,-0.7 0.16,-1.59 -0.54,-1.99 -1.61,-0.92 -4.94,-2.32 -6.75,-4.23 -0.79,-0.83 -1.24,-1.78 -0.55,-2.88 0.44,-0.67 0.24,-1.58 -0.44,-2.01 -0.68,-0.43 -1.58,-0.24 -2.01,0.44 z"
   style="fill:#1a1719"
   id="path434" />
            </g><g
     transform="rotate(180,1671.52,3595.625)"
     id="g440">
                <path
   d="m 1480.73,3754.83 c 0.63,2.19 1.93,3.83 3.52,5.33 1.39,1.31 3,2.49 4.45,3.94 0.57,0.57 1.49,0.57 2.06,0 0.57,-0.57 0.57,-1.49 0,-2.06 -1.47,-1.47 -3.1,-2.68 -4.51,-4 -1.2,-1.14 -2.24,-2.36 -2.72,-4.02 -0.22,-0.77 -1.03,-1.22 -1.8,-1 -0.78,0.23 -1.22,1.04 -1,1.81 z"
   style="fill:#1a1719"
   id="path438" />
            </g><g
     transform="rotate(180,1671.52,3595.625)"
     id="g444">
                <path
   d="m 1507.39,3787.88 c 1.88,5.25 5.81,7.9 10.23,10.84 0.67,0.45 1.57,0.27 2.02,-0.4 0.45,-0.67 0.27,-1.58 -0.4,-2.03 -3.88,-2.58 -7.46,-4.78 -9.1,-9.39 -0.27,-0.76 -1.1,-1.16 -1.86,-0.89 -0.76,0.27 -1.16,1.11 -0.89,1.87 z"
   style="fill:#1a1719"
   id="path442" />
            </g><g
     transform="rotate(180,1671.52,3595.625)"
     id="g448">
                <path
   d="m 1473.37,3790.19 c 0.19,0.11 0.41,0.24 0.6,0.37 2.03,1.46 4.8,4.26 6.34,5.29 0.67,0.45 1.57,0.27 2.02,-0.4 0.45,-0.67 0.27,-1.58 -0.4,-2.03 -1.82,-1.21 -5.33,-4.84 -7.37,-5.93 -1.08,-0.58 -1.99,-0.55 -2.57,-0.25 -0.53,0.27 -1.01,0.79 -1.12,1.78 -0.09,0.8 0.49,1.52 1.29,1.61 0.46,0.05 0.91,-0.13 1.21,-0.44 z"
   style="fill:#1a1719"
   id="path446" />
            </g><g
     transform="rotate(180,1671.52,3595.625)"
     id="g452">
                <path
   d="m 1505.55,3836.23 c 2.86,1.2 5.98,1.56 9,2.17 0.79,0.16 1.56,-0.35 1.72,-1.14 0.16,-0.79 -0.36,-1.56 -1.14,-1.72 -2.84,-0.57 -5.77,-0.88 -8.45,-2 -0.75,-0.31 -1.6,0.04 -1.91,0.78 -0.31,0.75 0.04,1.6 0.78,1.91 z"
   style="fill:#1a1719"
   id="path450" />
            </g><g
     transform="rotate(180,1671.52,3595.625)"
     id="g456">
                <path
   d="m 1508.79,3763.42 c 0.4,0.21 1.12,0.59 1.72,0.97 2.8,1.77 7,4.89 9.71,6.6 0.92,0.57 1.68,1 2.21,1.2 0.42,0.17 0.77,0.23 1.02,0.23 0.81,0 1.46,-0.66 1.46,-1.46 0,-0.76 -0.58,-1.39 -1.33,-1.45 -0.13,-0.07 -1.3,-0.66 -2.3,-1.31 -3.33,-2.16 -8.39,-5.94 -10.83,-7.23 -0.57,-0.31 -1.06,-0.49 -1.38,-0.56 -0.38,-0.08 -0.69,-0.05 -0.92,0 -0.4,0.11 -0.7,0.33 -0.91,0.62 -0.18,0.25 -0.32,0.57 -0.32,0.98 -0.01,0.8 0.64,1.46 1.44,1.47 0.15,0 0.29,-0.02 0.43,-0.06 z m 1.01,-1.09 v 0.02 l 0.01,-0.02 0.01,-0.07 z m 0.03,-0.13 -0.01,0.06 v -0.02 z m 0,-0.08 v 0.05 z"
   style="fill:#1a1719"
   id="path454" />
            </g><g
     transform="rotate(180,1671.52,3595.625)"
     id="g460">
                <path
   d="m 1521.13,3744.4 c 0.32,1.94 1.78,4.15 3.93,6.29 4.51,4.52 12.03,8.99 15.68,10.81 0.71,0.36 1.59,0.07 1.95,-0.65 0.36,-0.72 0.07,-1.6 -0.65,-1.96 -2.98,-1.49 -8.68,-4.82 -12.96,-8.46 -2.6,-2.21 -4.73,-4.47 -5.07,-6.5 -0.13,-0.8 -0.88,-1.34 -1.67,-1.21 -0.8,0.13 -1.34,0.89 -1.21,1.68 z"
   style="fill:#1a1719"
   id="path458" />
            </g><g
     transform="rotate(180,1671.52,3595.625)"
     id="g464">
                <path
   d="m 1504.07,3721.43 c -0.04,1.58 0.99,3.66 2.73,5.83 3.46,4.32 9.63,9.33 12.03,11.73 0.57,0.57 1.49,0.57 2.06,0 0.57,-0.57 0.57,-1.5 0,-2.07 -2.35,-2.35 -8.42,-7.24 -11.81,-11.48 -1.21,-1.51 -2.12,-2.85 -2.09,-3.94 0.02,-0.81 -0.62,-1.47 -1.42,-1.49 -0.81,-0.02 -1.48,0.61 -1.5,1.42 z"
   style="fill:#1a1719"
   id="path462" />
            </g><g
     transform="rotate(180,1671.52,3595.625)"
     id="g468">
                <path
   d="m 1503.89,3707.74 c 2.43,0.7 7.76,3.98 11.66,7.55 1.51,1.38 2.81,2.81 3.59,4.16 0.42,0.71 0.7,1.38 0.7,2 0,0.81 0.65,1.46 1.46,1.46 0.8,0 1.46,-0.65 1.46,-1.46 0,-1.85 -1.24,-4.11 -3.26,-6.33 -4.2,-4.63 -11.7,-9.29 -14.81,-10.18 -0.78,-0.22 -1.58,0.23 -1.81,1 -0.22,0.78 0.23,1.58 1.01,1.8 z"
   style="fill:#1a1719"
   id="path466" />
            </g><g
     transform="rotate(180,1671.52,3595.625)"
     id="g472">
                <path
   d="m 1507.35,3691.4 c 0.31,0.04 0.69,0.09 0.97,0.17 0.26,0.06 0.51,0.11 0.64,0.21 4.98,3.62 8.44,8.47 12.74,12.77 0.57,0.56 1.49,0.56 2.06,0 0.57,-0.57 0.57,-1.5 0,-2.07 -4.4,-4.4 -7.98,-9.35 -13.09,-13.06 -0.62,-0.45 -2.18,-0.86 -3.24,-0.96 -0.65,-0.07 -1.17,0.01 -1.38,0.09 -0.92,0.34 -1.07,1.03 -0.99,1.6 0.03,0.25 0.14,0.84 0.95,1.26 0.44,0.22 0.94,0.2 1.34,-0.01 z"
   style="fill:#1a1719"
   id="path470" />
            </g><g
     transform="rotate(180,1671.52,3595.625)"
     id="g476">
                <path
   d="m 1505.76,3675.24 c 1.77,1.14 10.07,7.79 11.02,8.59 0.61,0.51 1.54,0.43 2.05,-0.19 0.52,-0.62 0.43,-1.54 -0.19,-2.05 -0.98,-0.82 -9.62,-7.73 -11.35,-8.83 -0.59,-0.38 -1.05,-0.38 -1.18,-0.37 -0.39,0.03 -0.67,0.19 -0.88,0.38 -0.27,0.25 -0.46,0.57 -0.48,1.03 -0.02,0.67 0.4,1.25 1.01,1.44 z m 1.61,-0.5 c 0.17,-0.22 0.28,-0.49 0.3,-0.83 -0.01,0.31 -0.12,0.6 -0.3,0.83 z"
   style="fill:#1a1719"
   id="path474" />
            </g><g
     transform="rotate(180,1671.52,3595.625)"
     id="g480">
                <path
   d="m 1551.45,3734.3 c 0.99,0.15 2.24,1.04 3.63,2.17 3.81,3.11 8.26,8.28 10.39,10.41 0.57,0.57 1.49,0.57 2.06,0 0.57,-0.57 0.57,-1.49 0,-2.06 -2.17,-2.18 -6.72,-7.44 -10.6,-10.6 -1.9,-1.56 -3.7,-2.6 -5.04,-2.8 -0.79,-0.12 -1.54,0.42 -1.66,1.22 -0.12,0.79 0.42,1.54 1.22,1.66 z"
   style="fill:#1a1719"
   id="path478" />
            </g><g
     transform="rotate(180,1671.52,3595.625)"
     id="g484">
                <path
   d="m 1531.76,3739.15 c 2.05,1.91 4.7,3.51 7.16,5.28 2.22,1.6 4.3,3.32 5.47,5.66 0.36,0.72 1.23,1.01 1.96,0.65 0.72,-0.36 1.01,-1.24 0.65,-1.96 -1.38,-2.75 -3.76,-4.84 -6.37,-6.71 -2.37,-1.7 -4.91,-3.22 -6.89,-5.06 -0.59,-0.54 -1.51,-0.51 -2.06,0.08 -0.55,0.59 -0.51,1.51 0.08,2.06 z"
   style="fill:#1a1719"
   id="path482" />
            </g><g
     transform="rotate(180,1671.52,3595.625)"
     id="g488">
                <path
   d="m 1561.9,3755.36 c 4.09,5.81 10,11.58 15.05,16.63 0.57,0.57 1.49,0.57 2.06,0 0.57,-0.57 0.57,-1.49 0,-2.06 -4.93,-4.94 -10.73,-10.56 -14.73,-16.25 -0.46,-0.66 -1.37,-0.82 -2.03,-0.36 -0.66,0.47 -0.82,1.38 -0.35,2.04 z"
   style="fill:#1a1719"
   id="path486" />
            </g><g
     transform="rotate(180,1671.52,3595.625)"
     id="g492">
                <path
   d="m 1532.83,3713.02 c 0.26,-0.05 0.55,0.1 0.89,0.28 0.59,0.32 1.22,0.82 1.89,1.42 3.53,3.21 7.59,9.17 9.05,10.63 0.57,0.57 1.49,0.57 2.06,0 0.57,-0.57 0.57,-1.49 0,-2.06 -1.47,-1.47 -5.58,-7.49 -9.15,-10.73 -1.05,-0.96 -2.08,-1.69 -2.99,-2.08 -0.83,-0.36 -1.61,-0.46 -2.29,-0.33 -0.79,0.15 -1.32,0.91 -1.17,1.7 0.15,0.79 0.92,1.32 1.71,1.17 z"
   style="fill:#1a1719"
   id="path490" />
            </g><g
     transform="rotate(180,1671.52,3595.625)"
     id="g496">
                <path
   d="m 1582.33,3754.43 c 0.87,3.2 4.77,8.51 9.09,12.21 3.03,2.59 6.28,4.34 8.8,4.34 0.81,0 1.46,-0.65 1.46,-1.46 0,-0.8 -0.65,-1.45 -1.46,-1.45 -2,0 -4.49,-1.59 -6.9,-3.65 -3.83,-3.28 -7.4,-7.91 -8.18,-10.76 -0.21,-0.78 -1.01,-1.24 -1.78,-1.02 -0.78,0.21 -1.24,1.01 -1.03,1.79 z"
   style="fill:#1a1719"
   id="path494" />
            </g><g
     transform="rotate(180,1671.52,3595.625)"
     id="g500">
                <path
   d="m 1446.13,3777.06 c 3.35,6.16 7.47,12.21 12.43,17.17 0.57,0.57 1.49,0.57 2.06,0 0.57,-0.57 0.57,-1.49 0,-2.06 -4.76,-4.77 -8.71,-10.59 -11.93,-16.51 -0.38,-0.71 -1.27,-0.97 -1.98,-0.58 -0.7,0.38 -0.97,1.27 -0.58,1.98 z"
   style="fill:#1a1719"
   id="path498" />
            </g><g
     transform="rotate(180,1671.52,3595.625)"
     id="g504">
                <path
   d="m 1430.18,3751.25 c 1.51,1.87 2.7,3.93 4.11,5.72 1.59,2.01 3.45,3.7 6.19,4.61 0.76,0.26 1.59,-0.16 1.84,-0.92 0.26,-0.77 -0.16,-1.59 -0.92,-1.85 -2.14,-0.71 -3.57,-2.07 -4.82,-3.65 -1.42,-1.8 -2.61,-3.86 -4.13,-5.74 -0.51,-0.63 -1.43,-0.72 -2.05,-0.22 -0.63,0.51 -0.73,1.43 -0.22,2.05 z"
   style="fill:#1a1719"
   id="path502" />
            </g><g
     transform="rotate(180,1671.52,3595.625)"
     id="g508">
                <path
   d="m 1419.49,3714.26 c 0.09,0.01 0.18,0.08 0.29,0.15 0.19,0.12 0.39,0.26 0.6,0.44 0.62,0.53 1.31,1.28 2.03,2.17 3.55,4.38 7.78,11.96 8.53,14.22 0.26,0.76 1.08,1.18 1.85,0.92 0.76,-0.25 1.17,-1.08 0.92,-1.84 -0.8,-2.4 -5.26,-10.48 -9.04,-15.14 -1.03,-1.28 -2.03,-2.31 -2.89,-2.94 -0.82,-0.6 -1.59,-0.87 -2.21,-0.89 -0.81,-0.02 -1.48,0.62 -1.5,1.42 -0.02,0.8 0.62,1.47 1.42,1.49 z"
   style="fill:#1a1719"
   id="path506" />
            </g><g
     transform="rotate(180,1671.52,3595.625)"
     id="g512">
                <path
   d="m 1385.45,3698.77 c 0.43,5.21 4.5,9.58 8.76,12.41 0.67,0.45 1.57,0.27 2.02,-0.4 0.45,-0.67 0.27,-1.58 -0.4,-2.02 -3.55,-2.37 -7.12,-5.88 -7.47,-10.23 -0.07,-0.8 -0.78,-1.39 -1.58,-1.33 -0.8,0.07 -1.4,0.77 -1.33,1.57 z"
   style="fill:#1a1719"
   id="path510" />
            </g><g
     transform="rotate(180,1671.52,3595.625)"
     id="g516">
                <path
   d="m 1361.73,3664.36 c 2.02,5.9 3.95,11.32 7.72,16.35 0.49,0.65 1.4,0.78 2.05,0.29 0.64,-0.48 0.77,-1.39 0.29,-2.04 -3.58,-4.77 -5.39,-9.94 -7.3,-15.55 -0.26,-0.76 -1.09,-1.17 -1.85,-0.91 -0.76,0.26 -1.17,1.09 -0.91,1.86 z"
   style="fill:#1a1719"
   id="path514" />
            </g><g
     transform="rotate(180,1671.52,3595.625)"
     id="g520">
                <path
   d="m 1322.17,3631.97 c 0.73,5.67 2.59,8.37 6.52,12.31 0.57,0.56 1.5,0.56 2.07,0 0.56,-0.57 0.56,-1.5 0,-2.07 -3.41,-3.4 -5.07,-5.71 -5.69,-10.61 -0.11,-0.8 -0.84,-1.37 -1.64,-1.27 -0.79,0.11 -1.36,0.84 -1.26,1.64 z"
   style="fill:#1a1719"
   id="path518" />
            </g><g
     transform="rotate(180,1671.52,3595.625)"
     id="g524">
                <path
   d="m 1333.2,3629.02 c 0.61,4.8 3.95,7.73 8.07,9.79 0.72,0.36 1.6,0.07 1.96,-0.65 0.36,-0.72 0.06,-1.6 -0.66,-1.96 -3.23,-1.61 -6,-3.78 -6.47,-7.54 -0.1,-0.8 -0.83,-1.37 -1.63,-1.27 -0.8,0.1 -1.37,0.83 -1.27,1.63 z"
   style="fill:#1a1719"
   id="path522" />
            </g><g
     transform="rotate(180,1671.52,3595.625)"
     id="g528">
                <path
   d="m 1333.59,3597.35 c 0.76,6.86 2.46,9.93 8.2,14.07 0.65,0.47 1.56,0.32 2.03,-0.33 0.47,-0.65 0.32,-1.56 -0.33,-2.03 -4.9,-3.54 -6.35,-6.17 -7,-12.03 -0.09,-0.8 -0.81,-1.38 -1.61,-1.29 -0.8,0.09 -1.38,0.81 -1.29,1.61 z"
   style="fill:#1a1719"
   id="path526" />
            </g><g
     transform="rotate(180,1671.52,3595.625)"
     id="g532">
                <path
   d="m 1371.88,3564.35 0.12,0.1 c 2.7,2.21 15.71,14.93 18.62,16.87 0.67,0.44 1.58,0.26 2.02,-0.41 0.45,-0.67 0.27,-1.57 -0.4,-2.02 -2.88,-1.92 -15.72,-14.52 -18.39,-16.7 -0.52,-0.42 -0.91,-0.58 -1.05,-0.61 -0.41,-0.1 -0.73,-0.01 -0.95,0.09 -0.36,0.16 -0.62,0.42 -0.77,0.8 -0.29,0.74 0.06,1.58 0.8,1.88 z m 1.18,-0.02 c 0.35,-0.16 0.59,-0.42 0.73,-0.78 -0.14,0.36 -0.41,0.62 -0.73,0.78 z"
   style="fill:#1a1719"
   id="path530" />
            </g><g
     transform="rotate(180,1671.52,3595.625)"
     id="g536">
                <path
   d="m 1404.49,3601.57 c -0.74,3.74 1.11,6.17 3.78,8.12 2.14,1.57 4.86,2.79 6.52,4.45 0.57,0.57 1.5,0.57 2.07,0 0.56,-0.57 0.56,-1.49 0,-2.06 -1.76,-1.76 -4.6,-3.08 -6.86,-4.74 -1.74,-1.27 -3.13,-2.77 -2.65,-5.21 0.16,-0.79 -0.36,-1.55 -1.15,-1.71 -0.79,-0.16 -1.56,0.36 -1.71,1.15 z"
   style="fill:#1a1719"
   id="path534" />
            </g><g
     transform="rotate(180,1671.52,3595.625)"
     id="g540">
                <path
   d="m 1444.09,3625.95 c -0.62,2.74 0.62,5.76 2.77,8.63 2.84,3.78 7.21,7.36 9.55,9.7 0.57,0.56 1.49,0.56 2.06,0 0.57,-0.57 0.57,-1.5 0,-2.07 -2.27,-2.26 -6.52,-5.71 -9.28,-9.38 -1.57,-2.1 -2.71,-4.24 -2.26,-6.25 0.18,-0.78 -0.32,-1.56 -1.1,-1.74 -0.79,-0.17 -1.57,0.32 -1.74,1.11 z"
   style="fill:#1a1719"
   id="path538" />
            </g><g
     transform="rotate(180,1671.52,3595.625)"
     id="g544">
                <path
   d="m 1453.74,3669.66 c -0.65,0.87 -0.88,1.71 -0.86,2.48 0.04,1.1 0.62,2.14 1.62,3.04 1.74,1.59 4.94,2.82 6.49,3.75 0.69,0.42 1.59,0.19 2.01,-0.5 0.41,-0.69 0.18,-1.58 -0.5,-2 -1.24,-0.74 -3.56,-1.64 -5.26,-2.8 -0.41,-0.28 -0.78,-0.57 -1.06,-0.88 -0.19,-0.22 -0.35,-0.43 -0.38,-0.67 -0.02,-0.22 0.09,-0.43 0.28,-0.67 0.48,-0.65 0.35,-1.56 -0.3,-2.05 -0.64,-0.48 -1.56,-0.35 -2.04,0.3 z"
   style="fill:#1a1719"
   id="path542" />
            </g><g
     transform="rotate(180,1671.52,3595.625)"
     id="g548">
                <path
   d="m 1490.67,3718.45 c 2.99,3.26 2.42,3.08 6.3,5.02 0.72,0.36 1.59,0.07 1.95,-0.65 0.36,-0.72 0.07,-1.6 -0.65,-1.95 -3.37,-1.69 -2.85,-1.56 -5.45,-4.39 -0.54,-0.59 -1.46,-0.63 -2.06,-0.09 -0.59,0.54 -0.63,1.47 -0.09,2.06 z"
   style="fill:#1a1719"
   id="path546" />
            </g><g
     transform="rotate(180,1645.645,3570.63)"
     id="g552">
                <path
   d="m 1412.92,3922.53 c -0.72,-2.75 25.23,-51.44 16.12,-57.97 -7.3,-5.22 -17.39,30.17 -21.52,37.05 -15.53,25.89 -29.5,44.96 -56.07,62.67 -12.75,8.5 -26.76,13.32 -40.25,20.45 -32.67,17.3 -65.66,34.98 -96.31,55.42 -9.98,6.65 -25.13,7.32 -33.64,15.83 -8.17,8.17 -12.9,28.68 -14.43,39.39 -6.35,44.43 12.59,90.23 51.22,113.4 46.91,28.15 111.33,-30.84 152.82,-51.59 39.14,-19.57 73.02,-32.5 110.55,-55.02 28.59,-17.15 56.19,-31.73 77.19,-48.27 16.07,-12.65 28.89,-24.15 31.74,-52.65 1.82,-18.27 -1.54,-36.24 -4.51,-53.43 -4.16,-24.13 -14.01,-43.15 -28.21,-56.33 -11.07,-10.27 -24.78,-16.99 -40.52,-19.8 -28.94,-5.17 -51.78,11.55 -77.25,20.04 -5.44,1.81 -26.93,23.29 -26.93,30.81 z"
   style="fill:#aa9483"
   id="path550" />
            </g><g
     transform="rotate(180,1645.645,3570.63)"
     id="g556">
                <path
   d="m 1485.61,3887.59 c -49.3,5.24 -67.79,54.38 -93.92,89.23 -3.87,5.15 -7.64,13.16 -13.2,16.49 -11.25,6.75 -27.02,9.46 -40.24,7.26 -4.9,-0.82 -7,-6.86 -12.53,-5.28 -12.66,3.62 -26.05,14.69 -37.6,21.11 -28.93,16.07 -59.58,28.85 -88.4,44.86 -5.18,2.87 -11.38,5.43 -15.18,9.23 -3.93,3.94 -17.03,34.99 -7.25,36.95 15.08,3.01 59.6,-29.43 72.56,-36.29 18.82,-9.96 37.87,-19.75 56.74,-29.68 32.31,-17.01 65.18,-32.84 96.31,-52.12 14.19,-8.78 55.46,-29.54 64.65,-44.86 11.53,-19.21 -0.53,-40.36 19.13,-60.03"
   style="fill:#dabda4"
   id="path554" />
            </g><g
     transform="rotate(180,1645.645,3570.63)"
     id="g560">
                <path
   d="m 1553.16,4050.39 c -12.67,7.89 -52.2,-25.63 -56.58,-23.44 -14.11,7.06 -20.92,25.83 -33.65,34.31 -12.29,8.2 -27.75,10.32 -40.24,17.81 -39.94,23.97 -77.4,51.86 -120.06,71.25 -6.24,2.83 -77.36,42.27 -79.17,49.48 -1.53,6.15 15.09,6.22 18.48,6.59 20.03,2.23 43.38,-4.9 61.35,-13.19 21.45,-9.9 39.85,-26.53 60.69,-36.94 27.17,-13.59 53.57,-29.86 79.82,-44.86 27.03,-15.45 57.11,-28.98 81.81,-47.5 5.05,-3.79 13.8,-5.23 17.81,-9.24"
   style="fill:#8b7a6c"
   id="path558" />
            </g><g
     transform="rotate(180,1645.645,3570.63)"
     id="g564">
                <path
   d="m 1496.92,3887.16 c -19.58,-3.27 -21.19,36.69 -19.47,48.76 2.39,16.72 21.44,64.99 30.35,79.82 8.89,14.83 39.29,29.34 56.07,23.75 15.53,-5.18 15.63,-21.84 19.79,-34.31 12.1,-36.29 -3.93,-89.69 -35.62,-110.82 -4.58,-3.06 -55.42,-25.21 -55.42,-7.26"
   style="fill:#fbd7b9"
   id="path562" />
            </g><g
     transform="matrix(-1.15967,0,0,-1.15967,3516.86,7761.82)"
     id="g568">
                <path
   d="m 1228.22,4021.22 c -15.47,1.41 -25.89,16.23 -29.96,36.57 -7.02,35.09 4.99,86.24 40.19,106.36 20.25,11.57 42.35,9.62 64.07,1.54 31.63,-11.75 62.46,-36.6 85.14,-49.55 28.13,-16.08 93.07,-43.43 135.99,-71.38 18.84,-12.27 33.46,-24.74 39.28,-36.38 4.99,-10 6.18,-23.41 5.37,-37.59 -1.19,-20.67 -6.55,-43 -9.6,-58.27 -1.35,-6.72 -5.8,-11.59 -11.04,-15.73 -4.69,-3.7 -10,-6.8 -13.66,-10.45 -11,-11.01 -25.52,-15.52 -40.86,-15.59 -22.52,-0.1 -46.79,9.44 -63.74,21.54 -1.39,0.99 -2.71,2.12 -3.98,3.34 3.87,-10.1 5.47,-21.31 5.47,-26.63 0,-0.61 -0.17,-1.26 -0.54,-1.89 -0.49,-0.83 -1.41,-1.67 -2.42,-2.2 -1.05,-0.54 -2.16,-0.72 -2.96,-0.6 -1.21,0.19 -2.09,0.87 -2.52,2.05 -6.52,17.98 -27.22,55.61 -42.27,70.66 -12.1,12.1 -97.03,59.1 -136.01,77.44 -5.79,2.72 -10.56,4.81 -13.92,6.05 -0.77,0.28 -1.45,0.52 -2.03,0.71 z m 197.52,-149.42 c -7.92,19.51 -27.53,54.3 -42,68.77 -12.24,12.24 -98.02,59.9 -137.43,78.44 -2.69,1.27 -5.17,2.4 -7.39,3.37 0.87,0.57 1.34,1.65 1.07,2.72 -0.33,1.34 -1.69,2.17 -3.04,1.84 -2.84,-0.7 -5.52,-0.92 -8.03,-0.71 -1.11,0.3 -1.97,0.43 -2.55,0.43 -0.08,0 -0.16,0 -0.24,-0.01 -11.92,2.65 -19.62,15.54 -22.94,32.13 -6.65,33.28 4.37,81.92 37.76,101 18.9,10.8 39.54,8.74 59.81,1.2 31.37,-11.66 61.91,-36.36 84.4,-49.21 28.08,-16.05 92.9,-43.33 135.75,-71.22 17.92,-11.67 31.98,-23.35 37.52,-34.42 4.66,-9.31 5.6,-21.83 4.84,-35.05 -1.17,-20.42 -6.49,-42.49 -9.5,-57.58 -1.11,-5.5 -4.94,-9.36 -9.23,-12.76 -4.85,-3.83 -10.31,-7.07 -14.09,-10.85 -10.04,-10.04 -23.34,-14.05 -37.33,-14.11 -21.48,-0.1 -44.63,9.06 -60.79,20.6 -4.13,2.95 -7.54,7.26 -11.01,11.34 -3.84,4.51 -7.75,8.75 -12.45,11.1 -0.78,0.38 -1.38,0.28 -1.72,0.2 -0.76,-0.18 -1.28,-0.61 -1.63,-1.23 -0.12,-0.22 -0.77,-1.39 0.21,-2.79 0.67,-0.96 5.9,-6.76 7.35,-8.22 8.46,-8.45 12.01,-25.96 12.66,-34.98 z"
   style="fill:#1a1719"
   id="path566" />
            </g><g
     transform="matrix(-1.15967,0,0,-1.15967,3516.86,7761.82)"
     id="g572">
                <path
   d="m 1353.58,3977.98 c -0.01,-0.07 -0.03,-0.2 -0.03,-0.3 -0.01,-0.42 0.07,-0.95 0.2,-1.56 0.7,-3.26 2.98,-8.42 5.03,-11.94 0.59,-1 1.15,-1.87 1.66,-2.5 0.22,0.36 0.62,0.6 1.07,0.6 0.7,0 1.26,-0.56 1.26,-1.26 0,-0.77 -0.13,-1.3 -0.29,-1.63 -0.27,-0.54 -0.65,-0.8 -1.06,-0.92 -0.47,-0.14 -1.13,-0.08 -1.84,0.48 -0.66,0.52 -1.55,1.64 -2.47,3.14 -1.98,3.2 -4.29,8.17 -5.39,11.86 -0.53,1.74 -0.76,3.23 -0.66,4.18 0.08,0.71 0.33,1.23 0.67,1.56 0.68,0.69 2.3,1.26 4.4,1.5 4.27,0.5 10.61,-0.04 13.06,-1.26 10.1,-5.05 21.82,-16.09 31.37,-28.85 9.56,-12.79 16.92,-27.3 18.37,-39.2 0.09,-0.68 -0.41,-1.31 -1.09,-1.4 -0.69,-0.08 -1.32,0.41 -1.41,1.1 -1.4,11.54 -8.61,25.59 -17.88,37.99 -9.29,12.42 -20.66,23.2 -30.49,28.11 -2.18,1.09 -7.84,1.46 -11.64,1.01 -0.78,-0.09 -1.48,-0.22 -2.05,-0.39 -0.33,-0.1 -0.61,-0.19 -0.79,-0.32 z"
   style="fill:#1a1719"
   id="path570" />
            </g><g
     transform="matrix(-1.15967,0,0,-1.15967,3516.86,7761.82)"
     id="g576">
                <path
   d="m 1338.97,3988.09 c 0.7,-0.85 1.79,-1.36 3.13,-1.69 2.36,-0.58 5.43,-0.6 8.79,-0.49 5.32,0.17 11.35,0.67 16.68,0.02 3.75,-0.45 7.16,-1.46 9.81,-3.45 0.56,-0.42 0.67,-1.21 0.25,-1.76 -0.41,-0.56 -1.2,-0.67 -1.76,-0.25 -2.31,1.73 -5.32,2.57 -8.6,2.97 -5.21,0.63 -11.1,0.13 -16.29,-0.04 -3.64,-0.12 -6.94,-0.07 -9.48,0.56 -1.93,0.48 -3.46,1.3 -4.48,2.53 -0.44,0.54 -0.36,1.33 0.18,1.77 0.53,0.44 1.33,0.37 1.77,-0.17 z"
   style="fill:#1a1719"
   id="path574" />
            </g><g
     transform="matrix(-1.15967,0,0,-1.15967,3516.86,7761.82)"
     id="g580">
                <path
   d="m 1503.45,3877.16 c -10.15,-0.38 -17.94,2.29 -23.7,7.11 -5.75,4.8 -9.47,11.78 -11.43,20.11 -3.83,16.29 -0.87,37.86 6.62,58.17 7.48,20.28 19.47,39.3 33.6,50.58 14.42,11.51 31.05,15.03 47.5,4.06 0.58,-0.38 0.73,-1.16 0.35,-1.74 -0.39,-0.58 -1.17,-0.73 -1.75,-0.35 -15.42,10.29 -31.01,6.85 -44.53,-3.94 -13.82,-11.02 -25.5,-29.65 -32.81,-49.48 -7.31,-19.81 -10.27,-40.83 -6.53,-56.73 1.82,-7.76 5.24,-14.28 10.59,-18.76 5.34,-4.46 12.59,-6.87 22,-6.51 0.69,0.02 1.27,-0.52 1.3,-1.21 0.03,-0.69 -0.52,-1.28 -1.21,-1.31 z"
   style="fill:#1a1719"
   id="path578" />
            </g><g
     transform="matrix(-1.15967,0,0,-1.15967,3516.86,7761.82)"
     id="g584">
                <path
   d="m 1483.37,3976.09 c -0.48,0.61 -1.11,1.38 -1.77,2.09 -2.11,2.25 -4.95,4.91 -6.77,5.69 -1.4,0.6 -18.19,9.15 -23.67,13.73 -1.23,1.03 -1.92,1.98 -2.08,2.61 -0.17,0.69 0,1.26 0.46,1.71 0.35,0.36 0.79,0.53 1.28,0.55 0.26,0.02 0.54,-0.02 0.83,-0.08 0.19,-0.03 0.38,-0.1 0.55,-0.1 14.5,0 29.72,-6.22 42.68,-6.22 0.7,0 1.26,-0.57 1.26,-1.26 0,-0.69 -0.56,-1.26 -1.26,-1.26 -12.87,0 -27.98,6.14 -42.38,6.22 0.09,-0.08 0.18,-0.17 0.28,-0.24 5.33,-4.46 21.67,-12.76 23.04,-13.35 2.04,-0.87 5.26,-3.77 7.62,-6.29 1.64,-1.75 2.85,-3.34 3.08,-3.95 0.27,-0.69 0.05,-1.17 -0.14,-1.42 -0.21,-0.29 -0.52,-0.51 -1,-0.54 -0.22,-0.01 -0.77,0.08 -1.56,0.63 -0.48,0.34 -0.65,0.95 -0.45,1.48 z"
   style="fill:#1a1719"
   id="path582" />
            </g><g
     transform="matrix(-1.15967,0,0,-1.15967,3516.86,7761.82)"
     id="g588">
                <path
   d="m 1482.4,3896.04 c 3.68,13.4 13.08,38.91 23.15,48.98 0.49,0.49 1.29,0.49 1.78,0 0.49,-0.49 0.49,-1.29 0,-1.78 -9.83,-9.83 -18.91,-34.79 -22.51,-47.86 -0.18,-0.67 -0.87,-1.07 -1.54,-0.88 -0.67,0.18 -1.07,0.87 -0.88,1.54 z"
   style="fill:#1a1719"
   id="path586" />
            </g><g
     transform="matrix(-1.15967,0,0,-1.15967,3516.86,7761.82)"
     id="g592">
                <path
   d="m 1525.74,3893.08 c -0.47,12.82 -0.11,25.78 -0.11,38.6 0,0.7 0.57,1.26 1.26,1.26 0.69,0 1.26,-0.56 1.26,-1.26 0,-12.79 -0.36,-25.71 0.11,-38.5 0.02,-0.7 -0.52,-1.28 -1.21,-1.31 -0.7,-0.02 -1.28,0.52 -1.31,1.21 z"
   style="fill:#1a1719"
   id="path590" />
            </g><g
     transform="matrix(-1.15967,0,0,-1.15967,3516.86,7761.82)"
     id="g596">
                <path
   d="m 1505.5,3997.69 c 1.36,-11.95 4.59,-22.96 7.49,-34.58 0.17,-0.68 -0.24,-1.36 -0.91,-1.53 -0.67,-0.17 -1.36,0.24 -1.53,0.91 -2.93,11.74 -6.18,22.85 -7.55,34.91 -0.08,0.69 0.42,1.32 1.11,1.39 0.69,0.08 1.31,-0.41 1.39,-1.1 z"
   style="fill:#1a1719"
   id="path594" />
            </g><g
     transform="matrix(-1.15967,0,0,-1.15967,3516.86,7761.82)"
     id="g600">
                <path
   d="m 1532.36,3958.41 c 2.03,14.32 10.19,27.86 16.52,40.52 0.31,0.62 1.07,0.87 1.69,0.56 0.62,-0.31 0.87,-1.07 0.56,-1.69 -6.21,-12.42 -14.28,-25.69 -16.28,-39.74 -0.09,-0.69 -0.73,-1.17 -1.42,-1.07 -0.69,0.1 -1.16,0.73 -1.07,1.42 z"
   style="fill:#1a1719"
   id="path598" />
            </g><g
     transform="matrix(-1.15967,0,0,-1.15967,3516.86,7761.82)"
     id="g604">
                <path
   d="m 1475.96,3932.53 c 0.72,-0.52 1.72,-0.48 2.91,-0.19 1.52,0.37 3.28,1.19 5.17,2.29 9.34,5.42 21.63,17.44 24.33,19.41 0.56,0.41 1.35,0.28 1.75,-0.28 0.41,-0.56 0.29,-1.35 -0.27,-1.76 -2.73,-1.98 -15.13,-14.08 -24.55,-19.55 -2.58,-1.49 -4.97,-2.5 -6.91,-2.75 -1.57,-0.21 -2.89,0.05 -3.91,0.79 -0.56,0.41 -0.68,1.2 -0.27,1.76 0.4,0.56 1.19,0.68 1.75,0.28 z"
   style="fill:#1a1719"
   id="path602" />
            </g><g
     transform="matrix(-1.15967,0,0,-1.15967,3516.86,7761.82)"
     id="g608">
                <path
   d="m 1508.74,3904.11 c 5.81,13.38 9.75,21.27 12.47,36.68 0.12,0.68 0.77,1.14 1.45,1.02 0.69,-0.12 1.14,-0.77 1.02,-1.46 -2.76,-15.64 -6.74,-23.66 -12.63,-37.24 -0.28,-0.64 -1.02,-0.93 -1.66,-0.66 -0.64,0.28 -0.93,1.02 -0.65,1.66 z"
   style="fill:#1a1719"
   id="path606" />
            </g><g
     transform="matrix(-1.15967,0,0,-1.15967,3516.86,7761.82)"
     id="g612">
                <path
   d="m 1517.1,3917.43 c -7.47,0.57 -12.2,2.93 -14.98,6.32 -2.8,3.43 -3.64,7.97 -3.12,13.05 1.49,14.33 14.05,33.11 19.76,40.97 0.41,0.56 1.19,0.68 1.76,0.27 0.56,-0.4 0.68,-1.19 0.27,-1.75 -5.55,-7.63 -17.84,-25.83 -19.29,-39.75 -0.45,-4.35 0.17,-8.26 2.57,-11.2 2.44,-2.98 6.66,-4.9 13.22,-5.41 0.69,-0.05 1.21,-0.66 1.16,-1.35 -0.06,-0.69 -0.66,-1.21 -1.35,-1.15 z"
   style="fill:#1a1719"
   id="path610" />
            </g><g
     transform="matrix(-1.15967,0,0,-1.15967,3516.86,7761.82)"
     id="g616">
                <path
   d="m 1526.34,3909.32 c 15.79,20.16 22.72,30.77 17.3,57.86 -0.73,3.63 -0.88,5.89 -1.09,7.58 -0.28,2.23 -0.73,3.34 -3.21,5.82 -0.49,0.49 -0.49,1.29 0,1.78 0.49,0.49 1.28,0.49 1.78,0 3.08,-3.08 3.57,-4.5 3.92,-7.29 0.21,-1.65 0.35,-3.85 1.07,-7.4 5.6,-28.03 -1.45,-39.04 -17.79,-59.91 -0.43,-0.54 -1.22,-0.64 -1.76,-0.21 -0.55,0.43 -0.65,1.22 -0.22,1.77 z"
   style="fill:#1a1719"
   id="path614" />
            </g><g
     transform="matrix(-1.15967,0,0,-1.15967,3516.86,7761.82)"
     id="g620">
                <path
   d="m 1508.16,3898.6 c -6.55,-1.37 -11.92,-0.53 -16.23,1.89 -4.29,2.42 -7.53,6.42 -9.79,11.49 -4.36,9.79 -5.02,23.63 -2.72,37.18 2.31,13.53 7.57,26.75 14.92,35.37 7.61,8.92 17.45,12.98 28.63,7.87 0.63,-0.29 0.91,-1.04 0.62,-1.67 -0.29,-0.63 -1.04,-0.91 -1.67,-0.62 -10.04,4.59 -18.83,0.8 -25.67,-7.22 -7.1,-8.31 -12.12,-21.1 -14.35,-34.15 -2.21,-13.02 -1.65,-26.33 2.54,-35.74 2.02,-4.54 4.88,-8.15 8.73,-10.32 3.83,-2.15 8.63,-2.84 14.47,-1.62 0.68,0.14 1.35,-0.3 1.49,-0.97 0.14,-0.68 -0.29,-1.35 -0.97,-1.49 z"
   style="fill:#1a1719"
   id="path618" />
            </g><g
     transform="matrix(-1.15967,0,0,-1.15967,3516.86,7761.82)"
     id="g624">
                <path
   d="m 1527.25,3998.28 c 3.53,3.9 6.82,5.04 9.73,4.64 2.88,-0.4 5.48,-2.38 7.7,-5.12 2.73,-3.37 4.91,-7.86 6.48,-11.37 0.28,-0.64 -0.01,-1.38 -0.64,-1.66 -0.64,-0.28 -1.38,0 -1.66,0.64 -1.49,3.33 -3.54,7.61 -6.13,10.81 -1.78,2.19 -3.79,3.89 -6.09,4.21 -2.28,0.31 -4.76,-0.79 -7.53,-3.84 -0.47,-0.52 -1.26,-0.56 -1.78,-0.09 -0.51,0.47 -0.55,1.26 -0.08,1.78 z"
   style="fill:#1a1719"
   id="path622" />
            </g><g
     transform="matrix(-1.15967,0,0,-1.15967,3516.86,7761.82)"
     id="g628">
                <path
   d="m 1412.4,4078.21 c -0.02,-0.03 -0.05,-0.09 -0.06,-0.13 -0.05,-0.17 -0.06,-0.36 -0.06,-0.57 -0.01,-1.4 0.67,-3.27 0.99,-3.81 3.66,-6.11 12.67,-13.17 18.35,-17.42 0.74,-0.56 2.12,-1.22 3.3,-1.87 0.96,-0.53 1.8,-1.07 2.28,-1.54 0.53,-0.53 0.72,-1.09 0.71,-1.56 -0.02,-0.55 -0.27,-1.17 -1.15,-1.61 -1.57,-0.78 -3.76,-0.83 -6.44,-0.14 -3.56,0.92 -8.08,3.12 -13.14,6.12 -19.14,11.38 -46.12,34.31 -56.23,39.37 -1.46,0.72 -5.73,2.1 -7.02,2.62 -1.83,0.73 -3.22,1.97 -3.9,3.26 -0.56,1.05 -0.67,2.14 -0.33,3.13 0.5,1.42 2.09,2.8 5.46,3.14 5.81,0.58 11.5,-0.26 17.16,-0.89 0.12,-0.01 0.24,-0.03 0.37,-0.05 -3.41,1.26 -7.43,2.64 -8.18,3.01 -26.64,13.32 -63.62,29.74 -84.8,50.92 -0.49,0.49 -0.49,1.28 0,1.78 0.49,0.48 1.29,0.48 1.78,0 21.01,-21.01 57.72,-37.24 84.14,-50.45 1.08,-0.54 8.94,-3.15 12.03,-4.54 0.85,-0.38 1.4,-0.74 1.6,-0.95 0.33,-0.35 0.4,-0.71 0.4,-0.97 0,-0.57 -0.17,-1 -0.42,-1.34 -0.35,-0.47 -0.9,-0.78 -1.65,-0.87 -0.65,-0.07 -1.52,0.04 -2.44,0.25 -1.09,0.25 -2.28,0.62 -3.11,0.71 -5.48,0.61 -11,1.45 -16.63,0.89 -1.11,-0.11 -1.96,-0.34 -2.56,-0.68 -0.4,-0.22 -0.67,-0.48 -0.77,-0.79 -0.17,-0.48 0.05,-1 0.41,-1.5 0.51,-0.7 1.35,-1.32 2.38,-1.73 1.32,-0.52 5.71,-1.96 7.21,-2.71 10.13,-5.06 37.19,-28.04 56.39,-39.44 4.8,-2.86 9.1,-4.98 12.48,-5.85 1.44,-0.38 2.7,-0.54 3.71,-0.36 -0.1,0.07 -0.2,0.14 -0.3,0.19 -1.4,0.83 -3.3,1.72 -4.25,2.43 -5.9,4.42 -15.19,11.81 -19,18.15 -0.52,0.87 -1.68,4.23 -1.24,6.16 0.14,0.62 0.43,1.13 0.83,1.5 0.43,0.4 1.01,0.66 1.8,0.66 6.44,0 13.73,-3.99 21,-9.32 10.48,-7.68 21,-18.1 29.05,-22.13 15.3,-7.65 32.37,-10.82 49.14,-12.69 0.69,-0.08 1.19,-0.7 1.11,-1.39 -0.08,-0.69 -0.7,-1.19 -1.39,-1.11 -17.06,1.91 -34.42,5.16 -49.99,12.94 -8.14,4.07 -18.81,14.58 -29.41,22.35 -6.78,4.97 -13.5,8.84 -19.51,8.84 -0.03,0 -0.08,-0.01 -0.1,-0.01 z"
   style="fill:#1a1719"
   id="path626" />
            </g><g
     transform="matrix(-1.15967,0,0,-1.15967,3516.86,7761.82)"
     id="g632">
                <path
   d="m 1215.93,4055.11 c -0.23,-0.34 -0.19,-0.66 0,-0.96 0.23,-0.38 0.62,-0.72 1.07,-1.07 2.18,-1.63 5.83,-2.94 7.35,-3.84 0.59,-0.36 0.78,-1.13 0.43,-1.73 -0.36,-0.6 -1.13,-0.79 -1.73,-0.43 -1.06,0.64 -3.17,1.47 -5.09,2.48 -1.44,0.76 -2.77,1.61 -3.61,2.53 -1.24,1.36 -1.57,2.85 -0.5,4.43 0.39,0.58 1.17,0.72 1.75,0.34 0.57,-0.39 0.72,-1.18 0.33,-1.75 z"
   style="fill:#1a1719"
   id="path630" />
            </g><g
     transform="matrix(-1.15967,0,0,-1.15967,3516.86,7761.82)"
     id="g636">
                <path
   d="m 1258.86,4030.68 c 5.75,-2.98 11.4,-5.31 17.64,-7.1 0.67,-0.19 1.06,-0.89 0.87,-1.55 -0.2,-0.67 -0.89,-1.06 -1.56,-0.87 -6.41,1.83 -12.2,4.23 -18.11,7.29 -0.61,0.32 -0.86,1.08 -0.54,1.69 0.32,0.62 1.08,0.86 1.7,0.54 z"
   style="fill:#1a1719"
   id="path634" />
            </g><g
     transform="matrix(-1.15967,0,0,-1.15967,3516.86,7761.82)"
     id="g644">
                <path
   d="m 1235.96,4030.97 c 6.24,-2.27 12.32,-4.88 18.45,-7.44 0.64,-0.26 0.95,-1 0.68,-1.64 -0.27,-0.64 -1,-0.95 -1.65,-0.68 -6.1,2.54 -12.13,5.14 -18.34,7.4 -0.65,0.24 -0.99,0.96 -0.75,1.61 0.23,0.65 0.96,0.99 1.61,0.75 z"
   style="fill:#1a1719"
   id="path642" />
            </g><g
     transform="matrix(-1.15967,0,0,-1.15967,3516.86,7761.82)"
     id="g652">
                <path
   d="m 1312.36,3990.33 c 0.75,0.35 1.72,0.5 2.76,0.52 1.29,0.03 2.69,-0.12 3.71,-0.12 0.7,0 1.26,-0.56 1.26,-1.26 0,-0.69 -0.56,-1.25 -1.26,-1.25 -1,0 -2.38,0.15 -3.65,0.12 -0.66,-0.02 -1.29,-0.07 -1.76,-0.29 -0.63,-0.29 -1.38,-0.01 -1.67,0.61 -0.29,0.64 -0.02,1.38 0.61,1.67 z"
   style="fill:#1a1719"
   id="path650" />
            </g><g
     transform="matrix(-1.15967,0,0,-1.15967,3516.86,7761.82)"
     id="g656">
                <path
   d="m 1423.46,3931.04 c 0.54,-0.52 1.63,-1.59 2.07,-2.03 0.49,-0.49 0.49,-1.28 0,-1.77 -0.49,-0.5 -1.29,-0.5 -1.78,0 -0.68,0.68 -2.48,2.4 -2.68,2.69 -0.51,0.77 -0.09,1.36 0.06,1.54 0.08,0.1 0.84,0.87 1.9,0.11 0.2,-0.14 0.35,-0.33 0.43,-0.54 z"
   style="fill:#1a1719"
   id="path654" />
            </g><g
     transform="matrix(-1.15967,0,0,-1.15967,3516.86,7761.82)"
     id="g660">
                <path
   d="m 1450.91,3910.83 c 1.43,-1.52 3.45,-2.83 5.41,-3.81 0.62,-0.31 0.87,-1.07 0.56,-1.69 -0.31,-0.62 -1.06,-0.87 -1.68,-0.56 -2.23,1.11 -4.51,2.62 -6.12,4.34 -0.47,0.5 -0.45,1.3 0.06,1.77 0.5,0.48 1.3,0.45 1.77,-0.05 z"
   style="fill:#1a1719"
   id="path658" />
            </g><g
     transform="matrix(-1.15967,0,0,-1.15967,3516.86,7761.82)"
     id="g664">
                <path
   d="m 1467.11,3894.07 c -0.56,0.37 -0.74,1.12 -0.39,1.7 0.36,0.6 1.14,0.79 1.73,0.43 0.45,-0.27 1.05,-0.69 1.41,-1.07 0.3,-0.32 0.48,-0.66 0.55,-0.93 0.12,-0.46 0.04,-0.88 -0.22,-1.24 -0.21,-0.31 -0.75,-0.77 -1.98,-0.77 -0.7,0 -1.26,0.56 -1.26,1.26 0,0.22 0.06,0.44 0.16,0.62 z"
   style="fill:#1a1719"
   id="path662" />
            </g><g
     transform="matrix(-1.15967,0,0,-1.15967,3516.86,7761.82)"
     id="g668">
                <path
   d="m 1432.47,3905.38 c -1.14,0.43 -2.76,0.94 -3.88,1.81 -1,0.77 -1.65,1.79 -1.65,3.15 0,0.7 0.56,1.26 1.26,1.26 0.69,0 1.25,-0.56 1.25,-1.26 0,-0.7 0.52,-1.1 1.1,-1.44 0.89,-0.54 2,-0.86 2.82,-1.18 0.65,-0.24 0.97,-0.97 0.73,-1.62 -0.25,-0.65 -0.98,-0.97 -1.63,-0.72 z"
   style="fill:#1a1719"
   id="path666" />
            </g><g
     transform="matrix(-1.15967,0,0,-1.15967,3516.86,7761.82)"
     id="g672">
                <path
   d="m 1425.88,3912.4 c 5.31,-2.48 9.8,-5.59 15.27,-8.02 0.64,-0.28 0.93,-1.03 0.64,-1.66 -0.28,-0.64 -1.02,-0.92 -1.66,-0.64 -5.49,2.44 -9.99,5.55 -15.31,8.04 -0.63,0.29 -0.91,1.04 -0.61,1.67 0.29,0.63 1.04,0.9 1.67,0.61 z"
   style="fill:#1a1719"
   id="path670" />
            </g><g
     id="g1857"
     transform="rotate(-180,2089.0552,3670.5833)"><path
       d="m 2067.7198,3683.668 c 10.5226,-14.0289 18.661,-22.7693 23.3754,-39.2667 1.146,-4.012 4.3953,-11.7208 4.3953,-11.7208 v 8.7906 c 0,17.1758 1.4651,34.0706 1.4651,51.2765 0,3.5483 1.4651,19.3052 1.4651,17.5812"
       style="clip-rule:evenodd;fill:none;fill-rule:evenodd;stroke:#000000;stroke-width:9.7941px;stroke-linecap:round;stroke-linejoin:round;stroke-miterlimit:1.5"
       id="path279" /><path
       d="m 2034.4219,3691.0818 c 2.2057,15.9917 8.8869,33.0671 15.9636,38.7288 43.2325,34.5864 107.0005,-25.9985 96.3815,-83.9442 -10.356,-56.5208 -90.6516,-57.5825 -110.6211,-13.1859 -7.4118,16.4793 -5.8363,32.5212 -5.8363,46.2088"
       style="clip-rule:evenodd;fill:none;fill-rule:evenodd;stroke:#000000;stroke-width:9.7941px;stroke-linecap:round;stroke-linejoin:round;stroke-miterlimit:1.5"
       id="path283" /></g><g
     id="g1950"
     transform="rotate(-180,1339.0349,3407.7797)"><path
       d="m 1320.076,3393.7888 c -7.4345,-13.2656 17.6075,-26.673 27.7609,-18.3905 15.1661,12.3705 1.8355,43.1808 -9.2976,57.495 -4.7392,6.0928 -33.0392,8.3001 -26.1339,4.8475 17.7689,-8.8844 56.0982,16.4685 56.0982,-9.2523"
       style="clip-rule:evenodd;fill:none;fill-rule:evenodd;stroke:#000000;stroke-width:9.60054px;stroke-linecap:round;stroke-linejoin:round;stroke-miterlimit:1.5"
       id="path287" /><path
       d="m 1282.8739,3410.9124 c -7.2456,16.6868 28.9629,61.7661 58.3253,55.6398 44.733,-9.3329 74.174,-50.0054 40.1393,-97.7445 -29.8798,-41.9099 -84.8409,-11.0878 -94.5496,20.3579"
       style="clip-rule:evenodd;fill:none;fill-rule:evenodd;stroke:#000000;stroke-width:9.60054px;stroke-linecap:round;stroke-linejoin:round;stroke-miterlimit:1.5"
       id="path291" /></g><g
     id="g1946"
     transform="rotate(-180,1479.5892,2811.4648)"><path
       d="m 1452.7098,2780.4946 c 35.7862,-31.9804 50.9854,10.0557 9.1567,30.9711 -2.71,1.355 39.6265,-13.2693 37.4589,22.4282 -1.4523,23.9432 -22.5514,31.0857 -36.2832,17.3539"
       style="clip-rule:evenodd;fill:none;fill-rule:evenodd;stroke:#000000;stroke-width:10.5463px;stroke-linecap:round;stroke-linejoin:round;stroke-miterlimit:1.5"
       id="path295" /><path
       d="m 1418.8687,2807.0743 c -0.4863,9.7099 0.3069,18.2291 2.1287,25.6526 15.4154,62.824 104.5209,47.2185 116.191,12.2104 24.3127,-72.9403 -94.4889,-157.019 -118.3197,-37.863"
       style="clip-rule:evenodd;fill:none;fill-rule:evenodd;stroke:#000000;stroke-width:10.5463px;stroke-linecap:round;stroke-linejoin:round;stroke-miterlimit:1.5"
       id="path299" /></g><g
     id="g1942"
     transform="rotate(-180,2192.1815,2934.5062)"><path
       d="m 2200.1895,2890.5276 c -5.0941,-1.298 -43.0078,43.3113 -43.0078,43.3113 0,0 41.8736,0.4897 51.1696,-1.06 1.6453,-0.2746 13.115,-3.0369 7.5903,-3.0369"
       style="clip-rule:evenodd;fill:none;fill-rule:evenodd;stroke:#000000;stroke-width:10.1509px;stroke-linecap:round;stroke-linejoin:round;stroke-miterlimit:1.5"
       id="path303"
       sodipodi:nodetypes="cccc" /><path
       d="m 2198.1656,2888.3247 c 9.5102,-5.6391 6.6043,120.4627 6.6043,86.8546"
       style="clip-rule:evenodd;fill:none;fill-rule:evenodd;stroke:#000000;stroke-width:10.1509px;stroke-linecap:round;stroke-linejoin:round;stroke-miterlimit:1.5"
       id="path307" /><path
       d="m 2127.7328,2953.9978 c 2.6072,13.7558 8.2711,26.4196 20.5624,36.7198 30.8145,25.8286 91.9403,19.1098 106.2909,-21.2586 5.7099,-16.0584 5.4894,-41.6582 -1.4123,-56.04 -10.542,-21.9637 -27.9337,-47.6967 -56.2875,-50.251 -32.7304,-2.9454 -79.5742,31.1599 -69.8497,69.8497"
       style="clip-rule:evenodd;fill:none;fill-rule:evenodd;stroke:#000000;stroke-width:10.1509px;stroke-linecap:round;stroke-linejoin:round;stroke-miterlimit:1.5"
       id="path311"
       sodipodi:nodetypes="cccccc" /></g></g></g>
    </g>
</svg>
