<?xml version="1.0" encoding="UTF-8" standalone="no"?>
<svg
   width="900"
   height="900"
   version="1.1"
   id="svg874"
   sodipodi:docname="Maps_Overlay.svg"
   inkscape:version="1.2.2 (732a01da63, 2022-12-09)"
   xmlns:inkscape="http://www.inkscape.org/namespaces/inkscape"
   xmlns:sodipodi="http://sodipodi.sourceforge.net/DTD/sodipodi-0.dtd"
   xmlns="http://www.w3.org/2000/svg"
   xmlns:svg="http://www.w3.org/2000/svg">
  <defs
     id="defs878" />
  <sodipodi:namedview
     id="namedview876"
     pagecolor="#ffffff"
     bordercolor="#666666"
     borderopacity="1.0"
     inkscape:showpageshadow="2"
     inkscape:pageopacity="0.0"
     inkscape:pagecheckerboard="0"
     inkscape:deskcolor="#d1d1d1"
     showgrid="true"
     inkscape:zoom="0.68116558"
     inkscape:cx="-8.0743951"
     inkscape:cy="423.53872"
     inkscape:window-width="1920"
     inkscape:window-height="1001"
     inkscape:window-x="-9"
     inkscape:window-y="-9"
     inkscape:window-maximized="1"
     inkscape:current-layer="svg874">
    <inkscape:grid
       type="xygrid"
       id="grid1150"
       spacingx="75"
       spacingy="75"
       empspacing="1"
       visible="false" />
  </sodipodi:namedview>
  <path
     style="fill:#000000;stroke:none;stroke-width:1.06509"
     d="M 0,0 V 900 H 900 V 0 Z"
     id="path844" />
  <path
     style="fill:#22b14c;stroke:none;stroke-width:1.06509"
     d="M 5.3254438,5.3254438 V 277.98817 c 38.4284022,-9.15977 82.2887572,-6.30533 121.4201162,-5.3361 86.87929,2.11953 172.8,13.67574 258.81657,26.3503 124.34911,18.31952 251.9574,44.11597 378.10651,38.58816 27.70296,-1.2142 55.66154,-3.28047 83.07692,-7.871 16.04024,-2.69468 31.91006,-8.03077 47.929,-10.1929 V 5.3254438 Z"
     id="path846" />
  <path
     style="fill:#b5e61d;stroke:none;stroke-width:1.06509"
     d="m 5.3254438,597.51479 c 27.4260352,-7.48757 53.6059172,-15.33728 82.0118342,-18.86272 60.252072,-7.49822 120.781062,-3.49349 181.065092,0.66036 81.10651,5.59171 161.90414,16.58343 242.84023,24.41183 93.62131,9.06391 189.92663,14.30414 283.31361,-0.10651 34.79645,-5.3787 66.46154,-17.14793 100.11835,-26.33964 V 324.85207 c -16.8071,2.25799 -33.19882,7.88166 -50.05918,10.36331 -43.02958,6.33728 -86.4426,8.79764 -129.94082,7.73255 -162.23432,-3.98343 -322.28521,-42.62485 -483.5503,-58.7503 -55.92781,-5.59171 -111.13136,-6.23077 -167.218935,-6.20946 -14.155029,0.0106 -28.512426,1.81065 -42.60355,3.12071 -3.631953,0.33017 -12.4402365,-0.23432 -14.8792898,2.84378 -3.3550296,4.24971 -1.0970414,16.50888 -1.0970414,21.72781 v 59.64497 z"
     id="path848" />
  <path
     style="fill:#22b14c;stroke:none;stroke-width:1.06509"
     d="M 5.3254438,894.67456 H 894.67456 V 582.60355 c -15.79527,4.31361 -30.96213,10.85325 -46.86391,15.03905 -36.82012,9.68166 -74.96095,15.28403 -112.89941,17.88284 -165.70651,11.35385 -329.21893,-25.74319 -494.20118,-32.96449 -59.62367,-2.60947 -119.79053,-6.25207 -178.934912,5.15503 -13.984615,2.70532 -28.001184,5.65562 -41.538462,10.15029 -3.866272,1.28876 -11.2473369,2.30059 -13.8142008,5.71953 -3.1952663,4.26035 -1.0970414,15.42248 -1.0970414,20.55621 v 56.44971 z"
     id="path850" />
  <path
     style="fill:#00a2e8;stroke:#000000;stroke-width:5.32544px"
     d="m 121.42012,5.3254438 c 3.41893,18.4153842 5.01657,37.0650892 9.21302,55.3846152 10.49112,45.756211 27.36213,89.723081 49.69704,131.005921 51.01775,94.32426 126.51124,172.69349 178.75384,266.27219 55.46983,99.37278 80.3929,208.38461 77.62367,321.6568 -0.92662,37.61894 -0.73491,78.20947 -9.6071,115.02959 h 45.79882 C 480.6,833.78343 480.0355,771.58225 485.86154,710.4142 c 14.16568,-148.70769 27.90532,-298.24615 67.07929,-443.07692 16.61538,-61.42367 37.99171,-122.30414 67.21775,-178.934913 9.15976,-17.75503 19.00118,-35.254438 29.59882,-52.189349 6.20946,-9.926627 14.97514,-19.949113 19.11834,-30.8875742 h -33.01775 c -3.94083,0 -9.94793,-1.0863905 -13.44142,1.0970414 -7.29586,4.5585798 -12.56805,20.2047338 -16.62604,27.6603548 -12.15266,22.345562 -23.93254,44.957397 -36.41538,67.10059 -30.41894,53.96805 -55.65089,112.1432 -69.97633,172.54438 -12.12071,51.16686 -16.77515,103.45207 -22.99527,155.50296 -4.7929,40.00473 -9.51124,81.17041 -10.97041,121.42012 -0.36213,10.02248 -1.92781,19.7787 -1.81065,29.82248 0.0319,2.42841 -0.55385,7.23196 -3.63196,7.84971 -3.41893,0.68165 -2.63077,-5.05917 -2.4497,-6.78462 0.96923,-9.68166 -3.15266,-20.49231 -5.54911,-29.82248 C 441.73491,511.8497 424.97041,473.41065 406.59763,436.68639 349.65799,322.79645 268.10414,224.20118 205.26391,113.9645 191.35385,89.573964 177.41183,65.471006 166.7929,39.408284 163.67219,31.718343 160.77515,23.932544 158.4,15.976331 157.54793,13.111243 157.2497,8.3822485 154.72544,6.4224852 148.7503,1.7680473 128.93964,5.3254438 121.42012,5.3254438 Z"
     id="path852" />
  <path
     style="fill:#000000;stroke:none;stroke-width:1.06509"
     d="m 50.059172,28.757396 v 52.18935 h 52.189348 v -52.18935 z"
     id="path854" />
  <path
     style="fill:#ed1c24;stroke:none;stroke-width:1.06509"
     d="M 55.384615,34.08284 V 75.621302 H 96.923077 V 34.08284 Z"
     id="path856" />
  <path
     style="fill:#000000;stroke:none;stroke-width:1.06509"
     d="m 279.05325,434.55621 v 48.99409 h 48.99409 v -48.99409 h -48.99409 m 283.31361,2.13018 v 55.38462 h 55.38462 v -55.38462 z"
     id="path858" />
  <path
     style="fill:#ed1c24;stroke:none;stroke-width:1.06509"
     d="m 284.3787,439.88166 v 38.34319 h 38.34319 V 439.88166 H 284.3787 m 283.31361,2.13017 v 44.73373 h 44.73373 v -44.73373 z"
     id="path860" />
  <path
     style="fill:#000000;stroke:none;stroke-width:1.06509"
     d="m 642.24852,450.53254 v 52.18935 h 52.18935 v -52.18935 z"
     id="path862" />
  <path
     style="fill:#ed1c24;stroke:none;stroke-width:1.06509"
     d="m 647.57396,455.85799 v 41.53846 h 41.53847 v -41.53846 z"
     id="path864" />
  <path
     style="fill:#000000;stroke:none;stroke-width:1.06509"
     d="m 759.40828,784.97041 v 53.25444 h 52.18935 v -53.25444 z"
     id="path866" />
  <path
     style="fill:#ed1c24;stroke:none;stroke-width:1.06509"
     d="m 764.73373,790.29586 v 42.60355 h 41.53846 v -42.60355 z"
     id="path868" />
  <path
     style="fill:#000000;stroke:none;stroke-width:1.06509"
     d="m 53.254438,835.02959 v 53.25443 h 53.254442 v -53.25443 z"
     id="path870" />
  <path
     style="fill:#ed1c24;stroke:none;stroke-width:1.06509"
     d="m 58.579882,840.35503 v 42.60355 h 42.603548 v -42.60355 z"
     id="path872" />
  <path
     d="M 0,0 V 900 M 75,0 V 900 M 150,0 V 900 M 225,0 V 900 M 300,0 V 900 M 375,0 V 900 M 450,0 V 900 M 525,0 V 900 M 600,0 V 900 M 675,0 V 900 M 750,0 V 900 M 825,0 V 900 M 900,0 V 900 M 0,0 H 900 M 0,75 H 900 M 0,150 H 900 M 0,225 H 900 M 0,300 H 900 M 0,375 H 900 M 0,450 H 900 M 0,525 H 900 M 0,600 H 900 M 0,675 H 900 M 0,750 H 900 M 0,825 H 900 M 0,900 h 900"
     style="fill:none;stroke:#000000;stroke-width:0.5px"
     id="path1162-6" />
  <g
     id="g2517">
    <path
       style="fill:none;stroke:#000000;stroke-width:4.31812;stroke-linecap:butt;stroke-linejoin:miter;stroke-dasharray:none;stroke-opacity:1"
       d="M 774.597,204.14591 V 65.349062"
       id="path833-7" />
    <path
       style="fill:none;stroke:#000000;stroke-width:4.318;stroke-linecap:butt;stroke-linejoin:miter;stroke-dasharray:none;stroke-opacity:1"
       d="M 705.19858,134.74748 H 843.99543"
       id="path835-1" />
    <text
       xml:space="preserve"
       style="font-style:normal;font-weight:normal;font-size:39.48px;line-height:1.25;font-family:sans-serif;fill:#000000;fill-opacity:1;stroke:none;stroke-width:0.616875"
       x="759.5946"
       y="47.713867"
       id="text1758-4"><tspan
         sodipodi:role="line"
         id="tspan1756-0"
         x="759.5946"
         y="47.713867"
         style="stroke-width:0.616875">N</tspan></text>
    <text
       xml:space="preserve"
       style="font-style:normal;font-weight:normal;font-size:39.48px;line-height:1.25;font-family:sans-serif;fill:#000000;fill-opacity:1;stroke:none;stroke-width:0.616875"
       x="763.68079"
       y="246.19722"
       id="text1772-4"><tspan
         sodipodi:role="line"
         id="tspan1770-7"
         x="763.68079"
         y="246.19722"
         style="stroke-width:0.616875">S</tspan></text>
    <text
       xml:space="preserve"
       style="font-style:normal;font-weight:normal;font-size:39.48px;line-height:1.25;font-family:sans-serif;fill:#000000;fill-opacity:1;stroke:none;stroke-width:0.616875"
       x="658.94299"
       y="148.84184"
       id="text1836-9"><tspan
         sodipodi:role="line"
         id="tspan1834-8"
         x="658.94299"
         y="148.84184"
         style="stroke-width:0.616875">W</tspan></text>
    <text
       xml:space="preserve"
       style="font-style:normal;font-weight:normal;font-size:39.48px;line-height:1.25;font-family:sans-serif;fill:#000000;fill-opacity:1;stroke:none;stroke-width:0.616875"
       x="855.58356"
       y="148.84184"
       id="text1850-2"><tspan
         sodipodi:role="line"
         id="tspan1848-6"
         x="855.58356"
         y="148.84184"
         style="stroke-width:0.616875">E</tspan></text>
    <path
       style="fill:none;stroke:#000000;stroke-width:4.318;stroke-linecap:butt;stroke-linejoin:miter;stroke-dasharray:none;stroke-opacity:1"
       d="M 788.9786,86.983256 774.597,62.393053 760.2154,86.983256"
       id="path2386-0"
       sodipodi:nodetypes="ccc" />
  </g>
</svg>
