<?xml version="1.0" encoding="UTF-8" standalone="no"?>
<svg
   width="100%"
   height="100%"
   viewBox="0 0 1144 274"
   version="1.1"
   xml:space="preserve"
   style="fill-rule:evenodd;clip-rule:evenodd;stroke-linejoin:round;stroke-miterlimit:2;"
   id="svg228"
   sodipodi:docname="2023-UA-01-question_compatible.svg"
   inkscape:version="1.1.1 (3bf5ae0d25, 2021-09-20)"
   xmlns:inkscape="http://www.inkscape.org/namespaces/inkscape"
   xmlns:sodipodi="http://sodipodi.sourceforge.net/DTD/sodipodi-0.dtd"
   xmlns="http://www.w3.org/2000/svg"
   xmlns:svg="http://www.w3.org/2000/svg"><defs
   id="defs232" /><sodipodi:namedview
   id="namedview230"
   pagecolor="#ffffff"
   bordercolor="#666666"
   borderopacity="1.0"
   inkscape:pageshadow="2"
   inkscape:pageopacity="0.0"
   inkscape:pagecheckerboard="0"
   showgrid="false"
   inkscape:zoom="1.0262238"
   inkscape:cx="571.51278"
   inkscape:cy="136.90971"
   inkscape:window-width="2048"
   inkscape:window-height="1017"
   inkscape:window-x="-8"
   inkscape:window-y="-8"
   inkscape:window-maximized="1"
   inkscape:current-layer="svg228" />
    <g
   transform="translate(-808.809,-963.773)"
   id="g226">
        <g
   transform="translate(0,401.869)"
   id="g24">
            <g
   transform="matrix(1.2797,0,0,1.2797,-268.506,-166.307)"
   id="g4">
                <path
   d="m 985.118,583.317 c 0,-7.876 -6.394,-14.27 -14.27,-14.27 h -52.703 c -7.875,0 -14.269,6.394 -14.269,14.27 v 52.703 c 0,7.875 6.394,14.269 14.269,14.269 h 52.703 c 7.876,0 14.27,-6.394 14.27,-14.269 z"
   style="fill:#808080"
   id="path2" />
            </g>
            <path
   d="m 985.118,583.317 c 0,-7.876 -6.394,-14.27 -14.27,-14.27 h -52.703 c -7.875,0 -14.269,6.394 -14.269,14.27 v 52.703 c 0,7.875 6.394,14.269 14.269,14.269 h 52.703 c 7.876,0 14.27,-6.394 14.27,-14.269 z"
   style="fill:#ebebeb"
   id="path6" />
            <g
   transform="translate(0.269522,-1.0044)"
   id="g10">
                <path
   d="m 900.618,642.941 c 1.64,5.461 5.067,9.25 10.652,11.022 l -7.394,9.669 c -7.23,-2.307 -10.967,-6.977 -12.196,-13.343 z"
   style="fill:#ebebeb"
   id="path8" />
            </g>
            <g
   transform="matrix(0.254196,-0.853203,0.767751,0.228737,251.454,1272.2)"
   id="g14">
                <path
   d="m 899.63,645.496 c 1.639,5.461 6.055,6.695 11.64,8.467 l -5.87,6.511 c -7.076,-1.335 -12.547,-3.641 -13.776,-10.006 z"
   style="fill:#ebebeb"
   id="path12" />
            </g>
            <g
   transform="matrix(0.718891,-0.21418,-0.246459,-0.827236,412.773,1305.93)"
   id="g18">
                <path
   d="m 900.825,645.115 c 1.639,5.461 4.86,7.076 10.445,8.848 l -5.87,6.511 c -7.076,-1.335 -12.547,-3.641 -13.776,-10.006 z"
   style="fill:#ebebeb"
   id="path16" />
            </g>
            <g
   transform="translate(8.79994,-1.41043)"
   id="g22">
                <g
   aria-label="0"
   id="text20"
   style="font-size:87.409px;font-family:ArialMT, Arial, sans-serif"><path
     d="m 915.16779,611.07925 q 0,-11.09685 2.26205,-17.84032 2.30473,-6.78614 6.78615,-10.45664 4.5241,-3.67049 11.35293,-3.67049 5.03626,0 8.83479,2.04864 3.79854,2.00597 6.27399,5.84719 2.47545,3.79853 3.88389,9.30428 1.40845,5.46306 1.40845,14.76734 0,11.01148 -2.26205,17.79763 -2.26205,6.74347 -6.78615,10.45664 -4.48142,3.6705 -11.35292,3.6705 -9.0482,0 -14.2125,-6.48739 -6.18863,-7.81047 -6.18863,-25.43738 z m 7.89584,0 q 0,15.40754 3.58513,20.52916 3.62781,5.07894 8.92016,5.07894 5.29234,0 8.87747,-5.12162 3.62782,-5.12162 3.62782,-20.48648 0,-15.45023 -3.62782,-20.52917 -3.58513,-5.07894 -8.96283,-5.07894 -5.29235,0 -8.45068,4.48142 -3.96925,5.71914 -3.96925,21.12669 z"
     style="font-size:87.409px;font-family:ArialMT, Arial, sans-serif"
     id="path1068" /></g>
            </g>
        </g>
        <g
   transform="translate(121.278,401.869)"
   id="g48">
            <g
   transform="matrix(1.2797,0,0,1.2797,-268.506,-166.307)"
   id="g28">
                <path
   d="m 985.118,583.317 c 0,-7.876 -6.394,-14.27 -14.27,-14.27 h -52.703 c -7.875,0 -14.269,6.394 -14.269,14.27 v 52.703 c 0,7.875 6.394,14.269 14.269,14.269 h 52.703 c 7.876,0 14.27,-6.394 14.27,-14.269 z"
   style="fill:#808080"
   id="path26" />
            </g>
            <path
   d="m 985.118,583.317 c 0,-7.876 -6.394,-14.27 -14.27,-14.27 h -52.703 c -7.875,0 -14.269,6.394 -14.269,14.27 v 52.703 c 0,7.875 6.394,14.269 14.269,14.269 h 52.703 c 7.876,0 14.27,-6.394 14.27,-14.269 z"
   style="fill:#ebebeb"
   id="path30" />
            <g
   transform="translate(0.269522,-1.0044)"
   id="g34">
                <path
   d="m 900.618,642.941 c 1.64,5.461 5.067,9.25 10.652,11.022 l -7.394,9.669 c -7.23,-2.307 -10.967,-6.977 -12.196,-13.343 z"
   style="fill:#ebebeb"
   id="path32" />
            </g>
            <g
   transform="matrix(0.254196,-0.853203,0.767751,0.228737,251.454,1272.2)"
   id="g38">
                <path
   d="m 899.63,645.496 c 1.639,5.461 6.055,6.695 11.64,8.467 l -5.87,6.511 c -7.076,-1.335 -12.547,-3.641 -13.776,-10.006 z"
   style="fill:#ebebeb"
   id="path36" />
            </g>
            <g
   transform="matrix(0.718891,-0.21418,-0.246459,-0.827236,412.773,1305.93)"
   id="g42">
                <path
   d="m 900.825,645.115 c 1.639,5.461 4.86,7.076 10.445,8.848 l -5.87,6.511 c -7.076,-1.335 -12.547,-3.641 -13.776,-10.006 z"
   style="fill:#ebebeb"
   id="path40" />
            </g>
            <g
   transform="translate(8.79994,-1.41043)"
   id="g46">
                <g
   aria-label="1"
   id="text44"
   style="font-size:87.409px;font-family:ArialMT, Arial, sans-serif"><path
     d="m 944.10495,641.93701 h -7.68243 v -48.95416 q -2.77421,2.64617 -7.29831,5.29234 -4.48142,2.64617 -8.06655,3.96926 v -7.42635 q 6.4447,-3.03029 11.26756,-7.34099 4.82286,-4.3107 6.82883,-8.36531 h 4.9509 z"
     style="font-size:87.409px;font-family:ArialMT, Arial, sans-serif"
     id="path1071" /></g>
            </g>
        </g>
        <g
   transform="translate(242.557,401.869)"
   id="g72">
            <g
   transform="matrix(1.2797,0,0,1.2797,-268.506,-166.307)"
   id="g52">
                <path
   d="m 985.118,583.317 c 0,-7.876 -6.394,-14.27 -14.27,-14.27 h -52.703 c -7.875,0 -14.269,6.394 -14.269,14.27 v 52.703 c 0,7.875 6.394,14.269 14.269,14.269 h 52.703 c 7.876,0 14.27,-6.394 14.27,-14.269 z"
   style="fill:#808080"
   id="path50" />
            </g>
            <path
   d="m 985.118,583.317 c 0,-7.876 -6.394,-14.27 -14.27,-14.27 h -52.703 c -7.875,0 -14.269,6.394 -14.269,14.27 v 52.703 c 0,7.875 6.394,14.269 14.269,14.269 h 52.703 c 7.876,0 14.27,-6.394 14.27,-14.269 z"
   style="fill:#ebebeb"
   id="path54" />
            <g
   transform="translate(0.269522,-1.0044)"
   id="g58">
                <path
   d="m 900.618,642.941 c 1.64,5.461 5.067,9.25 10.652,11.022 l -7.394,9.669 c -7.23,-2.307 -10.967,-6.977 -12.196,-13.343 z"
   style="fill:#ebebeb"
   id="path56" />
            </g>
            <g
   transform="matrix(0.254196,-0.853203,0.767751,0.228737,251.454,1272.2)"
   id="g62">
                <path
   d="m 899.63,645.496 c 1.639,5.461 6.055,6.695 11.64,8.467 l -5.87,6.511 c -7.076,-1.335 -12.547,-3.641 -13.776,-10.006 z"
   style="fill:#ebebeb"
   id="path60" />
            </g>
            <g
   transform="matrix(0.718891,-0.21418,-0.246459,-0.827236,412.773,1305.93)"
   id="g66">
                <path
   d="m 900.825,645.115 c 1.639,5.461 4.86,7.076 10.445,8.848 l -5.87,6.511 c -7.076,-1.335 -12.547,-3.641 -13.776,-10.006 z"
   style="fill:#ebebeb"
   id="path64" />
            </g>
            <g
   transform="translate(8.79994,-1.41043)"
   id="g70">
                <g
   aria-label="2"
   id="text68"
   style="font-size:87.409px;font-family:ArialMT, Arial, sans-serif"><path
     d="m 955.54324,634.55334 v 7.38367 h -41.35709 q -0.0854,-2.77421 0.89628,-5.33502 1.57917,-4.22534 5.03626,-8.32263 3.49978,-4.0973 10.07252,-9.475 10.20057,-8.36532 13.7857,-13.23086 3.58513,-4.90822 3.58513,-9.26159 0,-4.56678 -3.28637,-7.68244 -3.24369,-3.15833 -8.49335,-3.15833 -5.54843,0 -8.87748,3.32905 -3.32905,3.32906 -3.37173,9.21892 l -7.89584,-0.81092 q 0.81093,-8.8348 6.10327,-13.44426 5.29234,-4.65213 14.2125,-4.65213 9.00551,0 14.25518,4.99358 5.24966,4.99358 5.24966,12.37725 0,3.75585 -1.53649,7.38367 -1.53649,3.62781 -5.12162,7.63975 -3.54245,4.01193 -11.82241,11.01148 -6.91419,5.80451 -8.87747,7.89583 -1.96329,2.04865 -3.2437,4.13998 z"
     style="font-size:87.409px;font-family:ArialMT, Arial, sans-serif"
     id="path1074" /></g>
            </g>
        </g>
        <g
   transform="translate(363.835,401.869)"
   id="g96">
            <g
   transform="matrix(1.2797,0,0,1.2797,-268.506,-166.307)"
   id="g76">
                <path
   d="m 985.118,583.317 c 0,-7.876 -6.394,-14.27 -14.27,-14.27 h -52.703 c -7.875,0 -14.269,6.394 -14.269,14.27 v 52.703 c 0,7.875 6.394,14.269 14.269,14.269 h 52.703 c 7.876,0 14.27,-6.394 14.27,-14.269 z"
   style="fill:#808080"
   id="path74" />
            </g>
            <path
   d="m 985.118,583.317 c 0,-7.876 -6.394,-14.27 -14.27,-14.27 h -52.703 c -7.875,0 -14.269,6.394 -14.269,14.27 v 52.703 c 0,7.875 6.394,14.269 14.269,14.269 h 52.703 c 7.876,0 14.27,-6.394 14.27,-14.269 z"
   style="fill:#ebebeb"
   id="path78" />
            <g
   transform="translate(0.269522,-1.0044)"
   id="g82">
                <path
   d="m 900.618,642.941 c 1.64,5.461 5.067,9.25 10.652,11.022 l -7.394,9.669 c -7.23,-2.307 -10.967,-6.977 -12.196,-13.343 z"
   style="fill:#ebebeb"
   id="path80" />
            </g>
            <g
   transform="matrix(0.254196,-0.853203,0.767751,0.228737,251.454,1272.2)"
   id="g86">
                <path
   d="m 899.63,645.496 c 1.639,5.461 6.055,6.695 11.64,8.467 l -5.87,6.511 c -7.076,-1.335 -12.547,-3.641 -13.776,-10.006 z"
   style="fill:#ebebeb"
   id="path84" />
            </g>
            <g
   transform="matrix(0.718891,-0.21418,-0.246459,-0.827236,412.773,1305.93)"
   id="g90">
                <path
   d="m 900.825,645.115 c 1.639,5.461 4.86,7.076 10.445,8.848 l -5.87,6.511 c -7.076,-1.335 -12.547,-3.641 -13.776,-10.006 z"
   style="fill:#ebebeb"
   id="path88" />
            </g>
            <g
   transform="translate(8.79994,-1.41043)"
   id="g94">
                <g
   aria-label="3"
   id="text92"
   style="font-size:87.409px;font-family:ArialMT, Arial, sans-serif"><path
     d="m 915.21047,625.41978 7.68243,-1.02432 q 1.32309,6.53007 4.48142,9.43232 3.20102,2.85957 7.76779,2.85957 5.42039,0 9.13356,-3.75586 3.75586,-3.75585 3.75586,-9.30427 0,-5.29234 -3.4571,-8.70676 -3.45709,-3.45709 -8.79211,-3.45709 -2.17669,0 -5.42039,0.8536 l 0.85361,-6.74347 q 0.76824,0.0854 1.23772,0.0854 4.90822,0 8.8348,-2.56081 3.92658,-2.56081 3.92658,-7.89583 0,-4.22534 -2.85958,-6.99955 -2.85957,-2.77421 -7.38367,-2.77421 -4.48141,0 -7.46903,2.81689 -2.98761,2.81689 -3.84121,8.45068 l -7.68243,-1.36577 q 1.40844,-7.72511 6.40202,-11.95045 4.99358,-4.26801 12.41993,-4.26801 5.12162,0 9.43232,2.21936 4.3107,2.17669 6.57275,5.97523 2.30473,3.79853 2.30473,8.06655 0,4.05462 -2.17669,7.38367 -2.17669,3.32906 -6.44471,5.29234 5.54843,1.28041 8.6214,5.33503 3.07297,4.01193 3.07297,10.07252 0,8.19459 -5.97522,13.91373 -5.97523,5.67647 -15.10879,5.67647 -8.23727,0 -13.70033,-4.90822 -5.42038,-4.90822 -6.18863,-12.7187 z"
     style="font-size:87.409px;font-family:ArialMT, Arial, sans-serif"
     id="path1077" /></g>
            </g>
        </g>
        <g
   transform="translate(607.154,401.869)"
   id="g120">
            <g
   transform="matrix(1.2797,0,0,1.2797,-268.506,-166.307)"
   id="g100">
                <path
   d="m 985.118,583.317 c 0,-7.876 -6.394,-14.27 -14.27,-14.27 h -52.703 c -7.875,0 -14.269,6.394 -14.269,14.27 v 52.703 c 0,7.875 6.394,14.269 14.269,14.269 h 52.703 c 7.876,0 14.27,-6.394 14.27,-14.269 z"
   style="fill:#808080"
   id="path98" />
            </g>
            <path
   d="m 985.118,583.317 c 0,-7.876 -6.394,-14.27 -14.27,-14.27 h -52.703 c -7.875,0 -14.269,6.394 -14.269,14.27 v 52.703 c 0,7.875 6.394,14.269 14.269,14.269 h 52.703 c 7.876,0 14.27,-6.394 14.27,-14.269 z"
   style="fill:#ebebeb"
   id="path102" />
            <g
   transform="translate(0.269522,-1.0044)"
   id="g106">
                <path
   d="m 900.618,642.941 c 1.64,5.461 5.067,9.25 10.652,11.022 l -7.394,9.669 c -7.23,-2.307 -10.967,-6.977 -12.196,-13.343 z"
   style="fill:#ebebeb"
   id="path104" />
            </g>
            <g
   transform="matrix(0.254196,-0.853203,0.767751,0.228737,251.454,1272.2)"
   id="g110">
                <path
   d="m 899.63,645.496 c 1.639,5.461 6.055,6.695 11.64,8.467 l -5.87,6.511 c -7.076,-1.335 -12.547,-3.641 -13.776,-10.006 z"
   style="fill:#ebebeb"
   id="path108" />
            </g>
            <g
   transform="matrix(0.718891,-0.21418,-0.246459,-0.827236,412.773,1305.93)"
   id="g114">
                <path
   d="m 900.825,645.115 c 1.639,5.461 4.86,7.076 10.445,8.848 l -5.87,6.511 c -7.076,-1.335 -12.547,-3.641 -13.776,-10.006 z"
   style="fill:#ebebeb"
   id="path112" />
            </g>
            <g
   transform="translate(8.79994,-1.41043)"
   id="g118">
                <g
   aria-label="5"
   id="text116"
   style="font-size:87.409px;font-family:ArialMT, Arial, sans-serif"><path
     d="m 915.16779,625.54782 8.06656,-0.68288 q 0.89628,5.88987 4.13997,8.87748 3.28638,2.94493 7.89583,2.94493 5.54843,0 9.38964,-4.18266 3.84122,-4.18265 3.84122,-11.09684 0,-6.57275 -3.71318,-10.37128 -3.67049,-3.79854 -9.64572,-3.79854 -3.71317,0 -6.70078,1.70721 -2.98762,1.66452 -4.69482,4.35337 l -7.21295,-0.93896 6.06058,-32.13817 h 31.11385 v 7.34099 h -24.9679 l -3.37174,16.81599 q 5.63379,-3.92658 11.82241,-3.92658 8.1946,0 13.82838,5.67647 5.63378,5.67646 5.63378,14.59662 0,8.49335 -4.9509,14.68198 -6.0179,7.59707 -16.43187,7.59707 -8.53603,0 -13.95641,-4.78018 -5.3777,-4.78018 -6.14595,-12.67602 z"
     style="font-size:87.409px;font-family:ArialMT, Arial, sans-serif"
     id="path1080" /></g>
            </g>
        </g>
        <g
   transform="translate(485.113,401.869)"
   id="g144">
            <g
   transform="matrix(1.2797,0,0,1.2797,-268.506,-166.307)"
   id="g124">
                <path
   d="m 985.118,583.317 c 0,-7.876 -6.394,-14.27 -14.27,-14.27 h -52.703 c -7.875,0 -14.269,6.394 -14.269,14.27 v 52.703 c 0,7.875 6.394,14.269 14.269,14.269 h 52.703 c 7.876,0 14.27,-6.394 14.27,-14.269 z"
   style="fill:#808080"
   id="path122" />
            </g>
            <path
   d="m 985.118,583.317 c 0,-7.876 -6.394,-14.27 -14.27,-14.27 h -52.703 c -7.875,0 -14.269,6.394 -14.269,14.27 v 52.703 c 0,7.875 6.394,14.269 14.269,14.269 h 52.703 c 7.876,0 14.27,-6.394 14.27,-14.269 z"
   style="fill:#ebebeb"
   id="path126" />
            <g
   transform="translate(0.269522,-1.0044)"
   id="g130">
                <path
   d="m 900.618,642.941 c 1.64,5.461 5.067,9.25 10.652,11.022 l -7.394,9.669 c -7.23,-2.307 -10.967,-6.977 -12.196,-13.343 z"
   style="fill:#ebebeb"
   id="path128" />
            </g>
            <g
   transform="matrix(0.254196,-0.853203,0.767751,0.228737,251.454,1272.2)"
   id="g134">
                <path
   d="m 899.63,645.496 c 1.639,5.461 6.055,6.695 11.64,8.467 l -5.87,6.511 c -7.076,-1.335 -12.547,-3.641 -13.776,-10.006 z"
   style="fill:#ebebeb"
   id="path132" />
            </g>
            <g
   transform="matrix(0.718891,-0.21418,-0.246459,-0.827236,412.773,1305.93)"
   id="g138">
                <path
   d="m 900.825,645.115 c 1.639,5.461 4.86,7.076 10.445,8.848 l -5.87,6.511 c -7.076,-1.335 -12.547,-3.641 -13.776,-10.006 z"
   style="fill:#ebebeb"
   id="path136" />
            </g>
            <g
   transform="translate(8.79994,-1.41043)"
   id="g142">
                <g
   aria-label="4"
   id="text140"
   style="font-size:87.409px;font-family:ArialMT, Arial, sans-serif"><path
     d="m 939.79425,641.93701 v -14.98074 h -27.14459 v -7.04223 l 28.55304,-40.54616 h 6.27398 v 40.54616 h 8.45068 v 7.04223 h -8.45068 v 14.98074 z m 0,-22.02297 v -28.21159 l -19.5902,28.21159 z"
     style="font-size:87.409px;font-family:ArialMT, Arial, sans-serif"
     id="path1083" /></g>
            </g>
        </g>
        <g
   transform="translate(728.433,401.869)"
   id="g192">
            <g
   transform="matrix(1.2797,0,0,1.2797,-268.506,-166.307)"
   id="g148">
                <path
   d="m 985.118,583.317 c 0,-7.876 -6.394,-14.27 -14.27,-14.27 h -52.703 c -7.875,0 -14.269,6.394 -14.269,14.27 v 52.703 c 0,7.875 6.394,14.269 14.269,14.269 h 52.703 c 7.876,0 14.27,-6.394 14.27,-14.269 z"
   style="fill:#808080"
   id="path146" />
            </g>
            <g
   transform="matrix(1.2797,0,0,1.2797,-145.885,-166.307)"
   id="g152">
                <path
   d="m 985.118,583.317 c 0,-7.876 -6.394,-14.27 -14.27,-14.27 h -52.703 c -7.875,0 -14.269,6.394 -14.269,14.27 v 52.703 c 0,7.875 6.394,14.269 14.269,14.269 h 52.703 c 7.876,0 14.27,-6.394 14.27,-14.269 z"
   style="fill:#808080"
   id="path150" />
            </g>
            <path
   d="m 985.118,583.317 c 0,-7.876 -6.394,-14.27 -14.27,-14.27 h -52.703 c -7.875,0 -14.269,6.394 -14.269,14.27 v 52.703 c 0,7.875 6.394,14.269 14.269,14.269 h 52.703 c 7.876,0 14.27,-6.394 14.27,-14.269 z"
   style="fill:#ebebeb"
   id="path154" />
            <g
   transform="translate(122.621)"
   id="g158">
                <path
   d="m 985.118,583.317 c 0,-7.876 -6.394,-14.27 -14.27,-14.27 h -52.703 c -7.875,0 -14.269,6.394 -14.269,14.27 v 52.703 c 0,7.875 6.394,14.269 14.269,14.269 h 52.703 c 7.876,0 14.27,-6.394 14.27,-14.269 z"
   style="fill:#ebebeb"
   id="path156" />
            </g>
            <g
   transform="translate(0.269522,-1.0044)"
   id="g162">
                <path
   d="m 900.618,642.941 c 1.64,5.461 5.067,9.25 10.652,11.022 l -7.394,9.669 c -7.23,-2.307 -10.967,-6.977 -12.196,-13.343 z"
   style="fill:#ebebeb"
   id="path160" />
            </g>
            <g
   transform="translate(122.891,-1.0044)"
   id="g166">
                <path
   d="m 900.618,642.941 c 1.64,5.461 5.067,9.25 10.652,11.022 l -7.394,9.669 c -7.23,-2.307 -10.967,-6.977 -12.196,-13.343 z"
   style="fill:#ebebeb"
   id="path164" />
            </g>
            <g
   transform="matrix(0.254196,-0.853203,0.767751,0.228737,251.454,1272.2)"
   id="g170">
                <path
   d="m 899.63,645.496 c 1.639,5.461 6.055,6.695 11.64,8.467 l -5.87,6.511 c -7.076,-1.335 -12.547,-3.641 -13.776,-10.006 z"
   style="fill:#ebebeb"
   id="path168" />
            </g>
            <g
   transform="matrix(0.254196,-0.853203,0.767751,0.228737,374.075,1272.2)"
   id="g174">
                <path
   d="m 899.63,645.496 c 1.639,5.461 6.055,6.695 11.64,8.467 l -5.87,6.511 c -7.076,-1.335 -12.547,-3.641 -13.776,-10.006 z"
   style="fill:#ebebeb"
   id="path172" />
            </g>
            <g
   transform="matrix(0.718891,-0.21418,-0.246459,-0.827236,412.773,1305.93)"
   id="g178">
                <path
   d="m 900.825,645.115 c 1.639,5.461 4.86,7.076 10.445,8.848 l -5.87,6.511 c -7.076,-1.335 -12.547,-3.641 -13.776,-10.006 z"
   style="fill:#ebebeb"
   id="path176" />
            </g>
            <g
   transform="matrix(0.718891,-0.21418,-0.246459,-0.827236,535.394,1305.93)"
   id="g182">
                <path
   d="m 900.825,645.115 c 1.639,5.461 4.86,7.076 10.445,8.848 l -5.87,6.511 c -7.076,-1.335 -12.547,-3.641 -13.776,-10.006 z"
   style="fill:#ebebeb"
   id="path180" />
            </g>
            <g
   transform="translate(8.79994,-1.41043)"
   id="g186">
                <g
   aria-label="6"
   id="text184"
   style="font-size:87.409px;font-family:ArialMT, Arial, sans-serif"><path
     d="m 955.03108,594.69006 -7.63976,0.59752 q -1.02432,-4.5241 -2.90225,-6.57275 -3.11565,-3.28637 -7.68243,-3.28637 -3.67049,0 -6.44471,2.04865 -3.62781,2.64617 -5.71914,7.72511 -2.09133,5.07894 -2.17669,14.46858 2.77421,-4.22534 6.78615,-6.27399 4.01194,-2.04864 8.40799,-2.04864 7.68244,0 13.06014,5.67646 5.42038,5.63378 5.42038,14.59662 0,5.88986 -2.56081,10.9688 -2.51813,5.03626 -6.95687,7.72512 -4.43874,2.68885 -10.07252,2.68885 -9.60304,0 -15.66362,-7.04223 -6.06059,-7.08491 -6.06059,-23.30338 0,-18.13907 6.70079,-26.37635 5.84718,-7.17026 15.74898,-7.17026 7.38367,0 12.07849,4.13997 4.7375,4.13998 5.67647,11.43829 z m -31.36993,26.97387 q 0,3.96926 1.66452,7.59707 1.70721,3.62781 4.7375,5.54842 3.0303,1.87793 6.35935,1.87793 4.86554,0 8.36531,-3.92658 3.49978,-3.92657 3.49978,-10.67004 0,-6.48739 -3.4571,-10.20056 -3.45709,-3.75586 -8.70675,-3.75586 -5.20698,0 -8.8348,3.75586 -3.62781,3.71317 -3.62781,9.77376 z"
     style="font-size:87.409px;font-family:ArialMT, Arial, sans-serif"
     id="path1086" /></g>
            </g>
            <g
   transform="translate(131.421,-1.41043)"
   id="g190">
                <g
   aria-label="7"
   id="text188"
   style="font-size:87.409px;font-family:ArialMT, Arial, sans-serif"><path
     d="m 915.67995,587.56247 v -7.38367 h 40.50349 v 5.97522 q -5.97522,6.35935 -11.86509,16.90135 -5.84718,10.54201 -9.0482,21.68153 -2.30472,7.85315 -2.94493,17.20011 h -7.89583 q 0.12804,-7.38367 2.90225,-17.84031 2.77421,-10.45664 7.93851,-20.14504 5.20699,-9.73108 11.05417,-16.38919 z"
     style="font-size:87.409px;font-family:ArialMT, Arial, sans-serif"
     id="path1089" /></g>
            </g>
        </g>
        <g
   transform="translate(-69.5077,-27.5229)"
   id="g196">
            <path
   d="m 995.205,1177.55 c 0,-16.13 -13.094,-29.22 -29.222,-29.22 h -58.444 c -16.128,0 -29.222,13.09 -29.222,29.22 v 58.44 c 0,16.13 13.094,29.22 29.222,29.22 h 58.444 c 16.128,0 29.222,-13.09 29.222,-29.22 z"
   style="fill:#ffdd76"
   id="path194" />
        </g>
        <g
   transform="translate(76.1754,-27.5229)"
   id="g200">
            <path
   d="m 995.205,1177.55 c 0,-16.13 -13.094,-29.22 -29.222,-29.22 h -58.444 c -16.128,0 -29.222,13.09 -29.222,29.22 v 58.44 c 0,16.13 13.094,29.22 29.222,29.22 h 58.444 c 16.128,0 29.222,-13.09 29.222,-29.22 z"
   style="fill:#ffdd76"
   id="path198" />
        </g>
        <g
   transform="translate(223.025,-27.5229)"
   id="g204">
            <path
   d="m 995.205,1177.55 c 0,-16.13 -13.094,-29.22 -29.222,-29.22 h -58.444 c -16.128,0 -29.222,13.09 -29.222,29.22 v 58.44 c 0,16.13 13.094,29.22 29.222,29.22 h 58.444 c 16.128,0 29.222,-13.09 29.222,-29.22 z"
   style="fill:#ffdd76"
   id="path202" />
        </g>
        <g
   transform="translate(369.876,-27.5229)"
   id="g208">
            <path
   d="m 995.205,1177.55 c 0,-16.13 -13.094,-29.22 -29.222,-29.22 h -58.444 c -16.128,0 -29.222,13.09 -29.222,29.22 v 58.44 c 0,16.13 13.094,29.22 29.222,29.22 h 58.444 c 16.128,0 29.222,-13.09 29.222,-29.22 z"
   style="fill:#ffdd76"
   id="path206" />
        </g>
        <g
   transform="translate(516.726,-27.5229)"
   id="g212">
            <path
   d="m 995.205,1177.55 c 0,-16.13 -13.094,-29.22 -29.222,-29.22 h -58.444 c -16.128,0 -29.222,13.09 -29.222,29.22 v 58.44 c 0,16.13 13.094,29.22 29.222,29.22 h 58.444 c 16.128,0 29.222,-13.09 29.222,-29.22 z"
   style="fill:#ffdd76"
   id="path210" />
        </g>
        <g
   transform="translate(663.576,-27.5229)"
   id="g216">
            <path
   d="m 995.205,1177.55 c 0,-16.13 -13.094,-29.22 -29.222,-29.22 h -58.444 c -16.128,0 -29.222,13.09 -29.222,29.22 v 58.44 c 0,16.13 13.094,29.22 29.222,29.22 h 58.444 c 16.128,0 29.222,-13.09 29.222,-29.22 z"
   style="fill:#ffdd76"
   id="path214" />
        </g>
        <g
   transform="translate(810.426,-27.5229)"
   id="g220">
            <path
   d="m 995.205,1177.55 c 0,-16.13 -13.094,-29.22 -29.222,-29.22 h -58.444 c -16.128,0 -29.222,13.09 -29.222,29.22 v 58.44 c 0,16.13 13.094,29.22 29.222,29.22 h 58.444 c 16.128,0 29.222,-13.09 29.222,-29.22 z"
   style="fill:#ffdd76"
   id="path218" />
        </g>
        <g
   transform="translate(957.276,-27.5229)"
   id="g224">
            <path
   d="m 995.205,1177.55 c 0,-16.13 -13.094,-29.22 -29.222,-29.22 h -58.444 c -16.128,0 -29.222,13.09 -29.222,29.22 v 58.44 c 0,16.13 13.094,29.22 29.222,29.22 h 58.444 c 16.128,0 29.222,-13.09 29.222,-29.22 z"
   style="fill:#ffdd76"
   id="path222" />
        </g>
    </g>
</svg>
