<?xml version="1.0" encoding="UTF-8" standalone="no"?>
<!DOCTYPE svg PUBLIC "-//W3C//DTD SVG 1.1//EN" "http://www.w3.org/Graphics/SVG/1.1/DTD/svg11.dtd">
<svg width="100%" height="100%" viewBox="0 0 1144 274" version="1.1" xmlns="http://www.w3.org/2000/svg" xmlns:xlink="http://www.w3.org/1999/xlink" xml:space="preserve" xmlns:serif="http://www.serif.com/" style="fill-rule:evenodd;clip-rule:evenodd;stroke-linejoin:round;stroke-miterlimit:2;">
    <g transform="matrix(1,0,0,1,-808.809,-963.773)">
        <g transform="matrix(1,0,0,1,0,401.869)">
            <g transform="matrix(1.2797,0,0,1.2797,-268.506,-166.307)">
                <path d="M985.118,583.317C985.118,575.441 978.724,569.047 970.848,569.047L918.145,569.047C910.27,569.047 903.876,575.441 903.876,583.317L903.876,636.02C903.876,643.895 910.27,650.289 918.145,650.289L970.848,650.289C978.724,650.289 985.118,643.895 985.118,636.02L985.118,583.317Z" style="fill:rgb(128,128,128);"/>
            </g>
            <path d="M985.118,583.317C985.118,575.441 978.724,569.047 970.848,569.047L918.145,569.047C910.27,569.047 903.876,575.441 903.876,583.317L903.876,636.02C903.876,643.895 910.27,650.289 918.145,650.289L970.848,650.289C978.724,650.289 985.118,643.895 985.118,636.02L985.118,583.317Z" style="fill:rgb(235,235,235);"/>
            <g transform="matrix(1,0,0,1,0.269522,-1.0044)">
                <path d="M900.618,642.941C902.258,648.402 905.685,652.191 911.27,653.963L903.876,663.632C896.646,661.325 892.909,656.655 891.68,650.289L900.618,642.941Z" style="fill:rgb(235,235,235);"/>
            </g>
            <g transform="matrix(0.254196,-0.853203,0.767751,0.228737,251.454,1272.2)">
                <path d="M899.63,645.496C901.269,650.957 905.685,652.191 911.27,653.963L905.4,660.474C898.324,659.139 892.853,656.833 891.624,650.468L899.63,645.496Z" style="fill:rgb(235,235,235);"/>
            </g>
            <g transform="matrix(0.718891,-0.21418,-0.246459,-0.827236,412.773,1305.93)">
                <path d="M900.825,645.115C902.464,650.576 905.685,652.191 911.27,653.963L905.4,660.474C898.324,659.139 892.853,656.833 891.624,650.468L900.825,645.115Z" style="fill:rgb(235,235,235);"/>
            </g>
            <g transform="matrix(1,0,0,1,8.79994,-1.41043)">
                <text x="911.54px" y="641.937px" style="font-family:'ArialMT', 'Arial', sans-serif;font-size:87.409px;">0</text>
            </g>
        </g>
        <g transform="matrix(1,0,0,1,121.278,401.869)">
            <g transform="matrix(1.2797,0,0,1.2797,-268.506,-166.307)">
                <path d="M985.118,583.317C985.118,575.441 978.724,569.047 970.848,569.047L918.145,569.047C910.27,569.047 903.876,575.441 903.876,583.317L903.876,636.02C903.876,643.895 910.27,650.289 918.145,650.289L970.848,650.289C978.724,650.289 985.118,643.895 985.118,636.02L985.118,583.317Z" style="fill:rgb(128,128,128);"/>
            </g>
            <path d="M985.118,583.317C985.118,575.441 978.724,569.047 970.848,569.047L918.145,569.047C910.27,569.047 903.876,575.441 903.876,583.317L903.876,636.02C903.876,643.895 910.27,650.289 918.145,650.289L970.848,650.289C978.724,650.289 985.118,643.895 985.118,636.02L985.118,583.317Z" style="fill:rgb(235,235,235);"/>
            <g transform="matrix(1,0,0,1,0.269522,-1.0044)">
                <path d="M900.618,642.941C902.258,648.402 905.685,652.191 911.27,653.963L903.876,663.632C896.646,661.325 892.909,656.655 891.68,650.289L900.618,642.941Z" style="fill:rgb(235,235,235);"/>
            </g>
            <g transform="matrix(0.254196,-0.853203,0.767751,0.228737,251.454,1272.2)">
                <path d="M899.63,645.496C901.269,650.957 905.685,652.191 911.27,653.963L905.4,660.474C898.324,659.139 892.853,656.833 891.624,650.468L899.63,645.496Z" style="fill:rgb(235,235,235);"/>
            </g>
            <g transform="matrix(0.718891,-0.21418,-0.246459,-0.827236,412.773,1305.93)">
                <path d="M900.825,645.115C902.464,650.576 905.685,652.191 911.27,653.963L905.4,660.474C898.324,659.139 892.853,656.833 891.624,650.468L900.825,645.115Z" style="fill:rgb(235,235,235);"/>
            </g>
            <g transform="matrix(1,0,0,1,8.79994,-1.41043)">
                <text x="911.54px" y="641.937px" style="font-family:'ArialMT', 'Arial', sans-serif;font-size:87.409px;">1</text>
            </g>
        </g>
        <g transform="matrix(1,0,0,1,242.557,401.869)">
            <g transform="matrix(1.2797,0,0,1.2797,-268.506,-166.307)">
                <path d="M985.118,583.317C985.118,575.441 978.724,569.047 970.848,569.047L918.145,569.047C910.27,569.047 903.876,575.441 903.876,583.317L903.876,636.02C903.876,643.895 910.27,650.289 918.145,650.289L970.848,650.289C978.724,650.289 985.118,643.895 985.118,636.02L985.118,583.317Z" style="fill:rgb(128,128,128);"/>
            </g>
            <path d="M985.118,583.317C985.118,575.441 978.724,569.047 970.848,569.047L918.145,569.047C910.27,569.047 903.876,575.441 903.876,583.317L903.876,636.02C903.876,643.895 910.27,650.289 918.145,650.289L970.848,650.289C978.724,650.289 985.118,643.895 985.118,636.02L985.118,583.317Z" style="fill:rgb(235,235,235);"/>
            <g transform="matrix(1,0,0,1,0.269522,-1.0044)">
                <path d="M900.618,642.941C902.258,648.402 905.685,652.191 911.27,653.963L903.876,663.632C896.646,661.325 892.909,656.655 891.68,650.289L900.618,642.941Z" style="fill:rgb(235,235,235);"/>
            </g>
            <g transform="matrix(0.254196,-0.853203,0.767751,0.228737,251.454,1272.2)">
                <path d="M899.63,645.496C901.269,650.957 905.685,652.191 911.27,653.963L905.4,660.474C898.324,659.139 892.853,656.833 891.624,650.468L899.63,645.496Z" style="fill:rgb(235,235,235);"/>
            </g>
            <g transform="matrix(0.718891,-0.21418,-0.246459,-0.827236,412.773,1305.93)">
                <path d="M900.825,645.115C902.464,650.576 905.685,652.191 911.27,653.963L905.4,660.474C898.324,659.139 892.853,656.833 891.624,650.468L900.825,645.115Z" style="fill:rgb(235,235,235);"/>
            </g>
            <g transform="matrix(1,0,0,1,8.79994,-1.41043)">
                <text x="911.54px" y="641.937px" style="font-family:'ArialMT', 'Arial', sans-serif;font-size:87.409px;">2</text>
            </g>
        </g>
        <g transform="matrix(1,0,0,1,363.835,401.869)">
            <g transform="matrix(1.2797,0,0,1.2797,-268.506,-166.307)">
                <path d="M985.118,583.317C985.118,575.441 978.724,569.047 970.848,569.047L918.145,569.047C910.27,569.047 903.876,575.441 903.876,583.317L903.876,636.02C903.876,643.895 910.27,650.289 918.145,650.289L970.848,650.289C978.724,650.289 985.118,643.895 985.118,636.02L985.118,583.317Z" style="fill:rgb(128,128,128);"/>
            </g>
            <path d="M985.118,583.317C985.118,575.441 978.724,569.047 970.848,569.047L918.145,569.047C910.27,569.047 903.876,575.441 903.876,583.317L903.876,636.02C903.876,643.895 910.27,650.289 918.145,650.289L970.848,650.289C978.724,650.289 985.118,643.895 985.118,636.02L985.118,583.317Z" style="fill:rgb(235,235,235);"/>
            <g transform="matrix(1,0,0,1,0.269522,-1.0044)">
                <path d="M900.618,642.941C902.258,648.402 905.685,652.191 911.27,653.963L903.876,663.632C896.646,661.325 892.909,656.655 891.68,650.289L900.618,642.941Z" style="fill:rgb(235,235,235);"/>
            </g>
            <g transform="matrix(0.254196,-0.853203,0.767751,0.228737,251.454,1272.2)">
                <path d="M899.63,645.496C901.269,650.957 905.685,652.191 911.27,653.963L905.4,660.474C898.324,659.139 892.853,656.833 891.624,650.468L899.63,645.496Z" style="fill:rgb(235,235,235);"/>
            </g>
            <g transform="matrix(0.718891,-0.21418,-0.246459,-0.827236,412.773,1305.93)">
                <path d="M900.825,645.115C902.464,650.576 905.685,652.191 911.27,653.963L905.4,660.474C898.324,659.139 892.853,656.833 891.624,650.468L900.825,645.115Z" style="fill:rgb(235,235,235);"/>
            </g>
            <g transform="matrix(1,0,0,1,8.79994,-1.41043)">
                <text x="911.54px" y="641.937px" style="font-family:'ArialMT', 'Arial', sans-serif;font-size:87.409px;">3</text>
            </g>
        </g>
        <g transform="matrix(1,0,0,1,607.154,401.869)">
            <g transform="matrix(1.2797,0,0,1.2797,-268.506,-166.307)">
                <path d="M985.118,583.317C985.118,575.441 978.724,569.047 970.848,569.047L918.145,569.047C910.27,569.047 903.876,575.441 903.876,583.317L903.876,636.02C903.876,643.895 910.27,650.289 918.145,650.289L970.848,650.289C978.724,650.289 985.118,643.895 985.118,636.02L985.118,583.317Z" style="fill:rgb(128,128,128);"/>
            </g>
            <path d="M985.118,583.317C985.118,575.441 978.724,569.047 970.848,569.047L918.145,569.047C910.27,569.047 903.876,575.441 903.876,583.317L903.876,636.02C903.876,643.895 910.27,650.289 918.145,650.289L970.848,650.289C978.724,650.289 985.118,643.895 985.118,636.02L985.118,583.317Z" style="fill:rgb(235,235,235);"/>
            <g transform="matrix(1,0,0,1,0.269522,-1.0044)">
                <path d="M900.618,642.941C902.258,648.402 905.685,652.191 911.27,653.963L903.876,663.632C896.646,661.325 892.909,656.655 891.68,650.289L900.618,642.941Z" style="fill:rgb(235,235,235);"/>
            </g>
            <g transform="matrix(0.254196,-0.853203,0.767751,0.228737,251.454,1272.2)">
                <path d="M899.63,645.496C901.269,650.957 905.685,652.191 911.27,653.963L905.4,660.474C898.324,659.139 892.853,656.833 891.624,650.468L899.63,645.496Z" style="fill:rgb(235,235,235);"/>
            </g>
            <g transform="matrix(0.718891,-0.21418,-0.246459,-0.827236,412.773,1305.93)">
                <path d="M900.825,645.115C902.464,650.576 905.685,652.191 911.27,653.963L905.4,660.474C898.324,659.139 892.853,656.833 891.624,650.468L900.825,645.115Z" style="fill:rgb(235,235,235);"/>
            </g>
            <g transform="matrix(1,0,0,1,8.79994,-1.41043)">
                <text x="911.54px" y="641.937px" style="font-family:'ArialMT', 'Arial', sans-serif;font-size:87.409px;">5</text>
            </g>
        </g>
        <g transform="matrix(1,0,0,1,485.113,401.869)">
            <g transform="matrix(1.2797,0,0,1.2797,-268.506,-166.307)">
                <path d="M985.118,583.317C985.118,575.441 978.724,569.047 970.848,569.047L918.145,569.047C910.27,569.047 903.876,575.441 903.876,583.317L903.876,636.02C903.876,643.895 910.27,650.289 918.145,650.289L970.848,650.289C978.724,650.289 985.118,643.895 985.118,636.02L985.118,583.317Z" style="fill:rgb(128,128,128);"/>
            </g>
            <path d="M985.118,583.317C985.118,575.441 978.724,569.047 970.848,569.047L918.145,569.047C910.27,569.047 903.876,575.441 903.876,583.317L903.876,636.02C903.876,643.895 910.27,650.289 918.145,650.289L970.848,650.289C978.724,650.289 985.118,643.895 985.118,636.02L985.118,583.317Z" style="fill:rgb(235,235,235);"/>
            <g transform="matrix(1,0,0,1,0.269522,-1.0044)">
                <path d="M900.618,642.941C902.258,648.402 905.685,652.191 911.27,653.963L903.876,663.632C896.646,661.325 892.909,656.655 891.68,650.289L900.618,642.941Z" style="fill:rgb(235,235,235);"/>
            </g>
            <g transform="matrix(0.254196,-0.853203,0.767751,0.228737,251.454,1272.2)">
                <path d="M899.63,645.496C901.269,650.957 905.685,652.191 911.27,653.963L905.4,660.474C898.324,659.139 892.853,656.833 891.624,650.468L899.63,645.496Z" style="fill:rgb(235,235,235);"/>
            </g>
            <g transform="matrix(0.718891,-0.21418,-0.246459,-0.827236,412.773,1305.93)">
                <path d="M900.825,645.115C902.464,650.576 905.685,652.191 911.27,653.963L905.4,660.474C898.324,659.139 892.853,656.833 891.624,650.468L900.825,645.115Z" style="fill:rgb(235,235,235);"/>
            </g>
            <g transform="matrix(1,0,0,1,8.79994,-1.41043)">
                <text x="911.54px" y="641.937px" style="font-family:'ArialMT', 'Arial', sans-serif;font-size:87.409px;">4</text>
            </g>
        </g>
        <g transform="matrix(1,0,0,1,728.433,401.869)">
            <g transform="matrix(1.2797,0,0,1.2797,-268.506,-166.307)">
                <path d="M985.118,583.317C985.118,575.441 978.724,569.047 970.848,569.047L918.145,569.047C910.27,569.047 903.876,575.441 903.876,583.317L903.876,636.02C903.876,643.895 910.27,650.289 918.145,650.289L970.848,650.289C978.724,650.289 985.118,643.895 985.118,636.02L985.118,583.317Z" style="fill:rgb(128,128,128);"/>
            </g>
            <g transform="matrix(1.2797,0,0,1.2797,-145.885,-166.307)">
                <path d="M985.118,583.317C985.118,575.441 978.724,569.047 970.848,569.047L918.145,569.047C910.27,569.047 903.876,575.441 903.876,583.317L903.876,636.02C903.876,643.895 910.27,650.289 918.145,650.289L970.848,650.289C978.724,650.289 985.118,643.895 985.118,636.02L985.118,583.317Z" style="fill:rgb(128,128,128);"/>
            </g>
            <path d="M985.118,583.317C985.118,575.441 978.724,569.047 970.848,569.047L918.145,569.047C910.27,569.047 903.876,575.441 903.876,583.317L903.876,636.02C903.876,643.895 910.27,650.289 918.145,650.289L970.848,650.289C978.724,650.289 985.118,643.895 985.118,636.02L985.118,583.317Z" style="fill:rgb(235,235,235);"/>
            <g transform="matrix(1,0,0,1,122.621,0)">
                <path d="M985.118,583.317C985.118,575.441 978.724,569.047 970.848,569.047L918.145,569.047C910.27,569.047 903.876,575.441 903.876,583.317L903.876,636.02C903.876,643.895 910.27,650.289 918.145,650.289L970.848,650.289C978.724,650.289 985.118,643.895 985.118,636.02L985.118,583.317Z" style="fill:rgb(235,235,235);"/>
            </g>
            <g transform="matrix(1,0,0,1,0.269522,-1.0044)">
                <path d="M900.618,642.941C902.258,648.402 905.685,652.191 911.27,653.963L903.876,663.632C896.646,661.325 892.909,656.655 891.68,650.289L900.618,642.941Z" style="fill:rgb(235,235,235);"/>
            </g>
            <g transform="matrix(1,0,0,1,122.891,-1.0044)">
                <path d="M900.618,642.941C902.258,648.402 905.685,652.191 911.27,653.963L903.876,663.632C896.646,661.325 892.909,656.655 891.68,650.289L900.618,642.941Z" style="fill:rgb(235,235,235);"/>
            </g>
            <g transform="matrix(0.254196,-0.853203,0.767751,0.228737,251.454,1272.2)">
                <path d="M899.63,645.496C901.269,650.957 905.685,652.191 911.27,653.963L905.4,660.474C898.324,659.139 892.853,656.833 891.624,650.468L899.63,645.496Z" style="fill:rgb(235,235,235);"/>
            </g>
            <g transform="matrix(0.254196,-0.853203,0.767751,0.228737,374.075,1272.2)">
                <path d="M899.63,645.496C901.269,650.957 905.685,652.191 911.27,653.963L905.4,660.474C898.324,659.139 892.853,656.833 891.624,650.468L899.63,645.496Z" style="fill:rgb(235,235,235);"/>
            </g>
            <g transform="matrix(0.718891,-0.21418,-0.246459,-0.827236,412.773,1305.93)">
                <path d="M900.825,645.115C902.464,650.576 905.685,652.191 911.27,653.963L905.4,660.474C898.324,659.139 892.853,656.833 891.624,650.468L900.825,645.115Z" style="fill:rgb(235,235,235);"/>
            </g>
            <g transform="matrix(0.718891,-0.21418,-0.246459,-0.827236,535.394,1305.93)">
                <path d="M900.825,645.115C902.464,650.576 905.685,652.191 911.27,653.963L905.4,660.474C898.324,659.139 892.853,656.833 891.624,650.468L900.825,645.115Z" style="fill:rgb(235,235,235);"/>
            </g>
            <g transform="matrix(1,0,0,1,8.79994,-1.41043)">
                <text x="911.54px" y="641.937px" style="font-family:'ArialMT', 'Arial', sans-serif;font-size:87.409px;">6</text>
            </g>
            <g transform="matrix(1,0,0,1,131.421,-1.41043)">
                <text x="911.54px" y="641.937px" style="font-family:'ArialMT', 'Arial', sans-serif;font-size:87.409px;">7</text>
            </g>
        </g>
        <g transform="matrix(1,0,0,1,-69.5077,-27.5229)">
            <path d="M995.205,1177.55C995.205,1161.42 982.111,1148.33 965.983,1148.33L907.539,1148.33C891.411,1148.33 878.317,1161.42 878.317,1177.55L878.317,1235.99C878.317,1252.12 891.411,1265.21 907.539,1265.21L965.983,1265.21C982.111,1265.21 995.205,1252.12 995.205,1235.99L995.205,1177.55Z" style="fill:rgb(255,221,118);"/>
        </g>
        <g transform="matrix(1,0,0,1,76.1754,-27.5229)">
            <path d="M995.205,1177.55C995.205,1161.42 982.111,1148.33 965.983,1148.33L907.539,1148.33C891.411,1148.33 878.317,1161.42 878.317,1177.55L878.317,1235.99C878.317,1252.12 891.411,1265.21 907.539,1265.21L965.983,1265.21C982.111,1265.21 995.205,1252.12 995.205,1235.99L995.205,1177.55Z" style="fill:rgb(255,221,118);"/>
        </g>
        <g transform="matrix(1,0,0,1,223.025,-27.5229)">
            <path d="M995.205,1177.55C995.205,1161.42 982.111,1148.33 965.983,1148.33L907.539,1148.33C891.411,1148.33 878.317,1161.42 878.317,1177.55L878.317,1235.99C878.317,1252.12 891.411,1265.21 907.539,1265.21L965.983,1265.21C982.111,1265.21 995.205,1252.12 995.205,1235.99L995.205,1177.55Z" style="fill:rgb(255,221,118);"/>
        </g>
        <g transform="matrix(1,0,0,1,369.876,-27.5229)">
            <path d="M995.205,1177.55C995.205,1161.42 982.111,1148.33 965.983,1148.33L907.539,1148.33C891.411,1148.33 878.317,1161.42 878.317,1177.55L878.317,1235.99C878.317,1252.12 891.411,1265.21 907.539,1265.21L965.983,1265.21C982.111,1265.21 995.205,1252.12 995.205,1235.99L995.205,1177.55Z" style="fill:rgb(255,221,118);"/>
        </g>
        <g transform="matrix(1,0,0,1,516.726,-27.5229)">
            <path d="M995.205,1177.55C995.205,1161.42 982.111,1148.33 965.983,1148.33L907.539,1148.33C891.411,1148.33 878.317,1161.42 878.317,1177.55L878.317,1235.99C878.317,1252.12 891.411,1265.21 907.539,1265.21L965.983,1265.21C982.111,1265.21 995.205,1252.12 995.205,1235.99L995.205,1177.55Z" style="fill:rgb(255,221,118);"/>
        </g>
        <g transform="matrix(1,0,0,1,663.576,-27.5229)">
            <path d="M995.205,1177.55C995.205,1161.42 982.111,1148.33 965.983,1148.33L907.539,1148.33C891.411,1148.33 878.317,1161.42 878.317,1177.55L878.317,1235.99C878.317,1252.12 891.411,1265.21 907.539,1265.21L965.983,1265.21C982.111,1265.21 995.205,1252.12 995.205,1235.99L995.205,1177.55Z" style="fill:rgb(255,221,118);"/>
        </g>
        <g transform="matrix(1,0,0,1,810.426,-27.5229)">
            <path d="M995.205,1177.55C995.205,1161.42 982.111,1148.33 965.983,1148.33L907.539,1148.33C891.411,1148.33 878.317,1161.42 878.317,1177.55L878.317,1235.99C878.317,1252.12 891.411,1265.21 907.539,1265.21L965.983,1265.21C982.111,1265.21 995.205,1252.12 995.205,1235.99L995.205,1177.55Z" style="fill:rgb(255,221,118);"/>
        </g>
        <g transform="matrix(1,0,0,1,957.276,-27.5229)">
            <path d="M995.205,1177.55C995.205,1161.42 982.111,1148.33 965.983,1148.33L907.539,1148.33C891.411,1148.33 878.317,1161.42 878.317,1177.55L878.317,1235.99C878.317,1252.12 891.411,1265.21 907.539,1265.21L965.983,1265.21C982.111,1265.21 995.205,1252.12 995.205,1235.99L995.205,1177.55Z" style="fill:rgb(255,221,118);"/>
        </g>
    </g>
</svg>
