<?xml version="1.0" encoding="UTF-8" standalone="no"?>
<svg
   width="961.4823"
   height="103.96539"
   viewBox="0 0 961.4823 103.96539"
   version="1.1"
   xml:space="preserve"
   style="clip-rule:evenodd;fill-rule:evenodd;stroke-linejoin:round;stroke-miterlimit:2"
   id="svg228"
   sodipodi:docname="2023-UA-01-solution.svg"
   inkscape:version="1.1.1 (3bf5ae0d25, 2021-09-20)"
   xmlns:inkscape="http://www.inkscape.org/namespaces/inkscape"
   xmlns:sodipodi="http://sodipodi.sourceforge.net/DTD/sodipodi-0.dtd"
   xmlns="http://www.w3.org/2000/svg"
   xmlns:svg="http://www.w3.org/2000/svg"><defs
   id="defs232">
        
        
        
        
        
        
        
        
        
        
        
        
        
        
        
    
            
            
            
            
            
            
            
            
            
            
            
            
        </defs><sodipodi:namedview
   id="namedview230"
   pagecolor="#ffffff"
   bordercolor="#666666"
   borderopacity="1.0"
   inkscape:pageshadow="2"
   inkscape:pageopacity="0.0"
   inkscape:pagecheckerboard="0"
   showgrid="false"
   inkscape:zoom="1.0262238"
   inkscape:cx="386.8552"
   inkscape:cy="-32.643952"
   inkscape:window-width="2048"
   inkscape:window-height="1017"
   inkscape:window-x="-8"
   inkscape:window-y="-8"
   inkscape:window-maximized="1"
   inkscape:current-layer="svg228" />
    <g
   transform="translate(-520.67679,-561.90245)"
   id="g24">
            <g
   transform="matrix(1.2797,0,0,1.2797,-268.506,-166.307)"
   id="g4">
                <path
   d="m 985.118,583.317 c 0,-7.876 -6.394,-14.27 -14.27,-14.27 h -52.703 c -7.875,0 -14.269,6.394 -14.269,14.27 v 52.703 c 0,7.875 6.394,14.269 14.269,14.269 h 52.703 c 7.876,0 14.27,-6.394 14.27,-14.269 z"
   style="fill:#808080"
   id="path2" />
            </g>
            <path
   d="m 985.118,583.317 c 0,-7.876 -6.394,-14.27 -14.27,-14.27 h -52.703 c -7.875,0 -14.269,6.394 -14.269,14.27 v 52.703 c 0,7.875 6.394,14.269 14.269,14.269 h 52.703 c 7.876,0 14.27,-6.394 14.27,-14.269 z"
   style="fill:#ebebeb"
   id="path6" />
            <g
   transform="translate(0.269522,-1.0044)"
   id="g10">
                <path
   d="m 900.618,642.941 c 1.64,5.461 5.067,9.25 10.652,11.022 l -7.394,9.669 c -7.23,-2.307 -10.967,-6.977 -12.196,-13.343 z"
   style="fill:#ebebeb"
   id="path8" />
            </g>
            <g
   transform="matrix(0.254196,-0.853203,0.767751,0.228737,251.454,1272.2)"
   id="g14">
                <path
   d="m 899.63,645.496 c 1.639,5.461 6.055,6.695 11.64,8.467 l -5.87,6.511 c -7.076,-1.335 -12.547,-3.641 -13.776,-10.006 z"
   style="fill:#ebebeb"
   id="path12" />
            </g>
            <g
   transform="matrix(0.718891,-0.21418,-0.246459,-0.827236,412.773,1305.93)"
   id="g18">
                <path
   d="m 900.825,645.115 c 1.639,5.461 4.86,7.076 10.445,8.848 l -5.87,6.511 c -7.076,-1.335 -12.547,-3.641 -13.776,-10.006 z"
   style="fill:#ebebeb"
   id="path16" />
            </g>
            <g
   transform="translate(8.79994,-1.41043)"
   id="g22">
                <text
   x="911.53998"
   y="641.93701"
   style="font-size:87.409px;font-family:ArialMT, Arial, sans-serif"
   id="text20">0</text>
            </g>
        </g><g
   transform="translate(-643.17924,-561.90245)"
   id="g48">
            <g
   transform="matrix(1.2797,0,0,1.2797,-268.506,-166.307)"
   id="g28">
                <path
   d="m 985.118,583.317 c 0,-7.876 -6.394,-14.27 -14.27,-14.27 h -52.703 c -7.875,0 -14.269,6.394 -14.269,14.27 v 52.703 c 0,7.875 6.394,14.269 14.269,14.269 h 52.703 c 7.876,0 14.27,-6.394 14.27,-14.269 z"
   style="fill:#808080"
   id="path26" />
            </g>
            <path
   d="m 985.118,583.317 c 0,-7.876 -6.394,-14.27 -14.27,-14.27 h -52.703 c -7.875,0 -14.269,6.394 -14.269,14.27 v 52.703 c 0,7.875 6.394,14.269 14.269,14.269 h 52.703 c 7.876,0 14.27,-6.394 14.27,-14.269 z"
   style="fill:#ebebeb"
   id="path30" />
            <g
   transform="translate(0.269522,-1.0044)"
   id="g34">
                <path
   d="m 900.618,642.941 c 1.64,5.461 5.067,9.25 10.652,11.022 l -7.394,9.669 c -7.23,-2.307 -10.967,-6.977 -12.196,-13.343 z"
   style="fill:#ebebeb"
   id="path32" />
            </g>
            <g
   transform="matrix(0.254196,-0.853203,0.767751,0.228737,251.454,1272.2)"
   id="g38">
                <path
   d="m 899.63,645.496 c 1.639,5.461 6.055,6.695 11.64,8.467 l -5.87,6.511 c -7.076,-1.335 -12.547,-3.641 -13.776,-10.006 z"
   style="fill:#ebebeb"
   id="path36" />
            </g>
            <g
   transform="matrix(0.718891,-0.21418,-0.246459,-0.827236,412.773,1305.93)"
   id="g42">
                <path
   d="m 900.825,645.115 c 1.639,5.461 4.86,7.076 10.445,8.848 l -5.87,6.511 c -7.076,-1.335 -12.547,-3.641 -13.776,-10.006 z"
   style="fill:#ebebeb"
   id="path40" />
            </g>
            <g
   transform="translate(8.79994,-1.41043)"
   id="g46">
                <text
   x="911.53998"
   y="641.93701"
   style="font-size:87.409px;font-family:ArialMT, Arial, sans-serif"
   id="text44">1</text>
            </g>
        </g><g
   transform="translate(-153.16953,-561.90245)"
   id="g72">
            <g
   transform="matrix(1.2797,0,0,1.2797,-268.506,-166.307)"
   id="g52">
                <path
   d="m 985.118,583.317 c 0,-7.876 -6.394,-14.27 -14.27,-14.27 h -52.703 c -7.875,0 -14.269,6.394 -14.269,14.27 v 52.703 c 0,7.875 6.394,14.269 14.269,14.269 h 52.703 c 7.876,0 14.27,-6.394 14.27,-14.269 z"
   style="fill:#808080"
   id="path50" />
            </g>
            <path
   d="m 985.118,583.317 c 0,-7.876 -6.394,-14.27 -14.27,-14.27 h -52.703 c -7.875,0 -14.269,6.394 -14.269,14.27 v 52.703 c 0,7.875 6.394,14.269 14.269,14.269 h 52.703 c 7.876,0 14.27,-6.394 14.27,-14.269 z"
   style="fill:#ebebeb"
   id="path54" />
            <g
   transform="translate(0.269522,-1.0044)"
   id="g58">
                <path
   d="m 900.618,642.941 c 1.64,5.461 5.067,9.25 10.652,11.022 l -7.394,9.669 c -7.23,-2.307 -10.967,-6.977 -12.196,-13.343 z"
   style="fill:#ebebeb"
   id="path56" />
            </g>
            <g
   transform="matrix(0.254196,-0.853203,0.767751,0.228737,251.454,1272.2)"
   id="g62">
                <path
   d="m 899.63,645.496 c 1.639,5.461 6.055,6.695 11.64,8.467 l -5.87,6.511 c -7.076,-1.335 -12.547,-3.641 -13.776,-10.006 z"
   style="fill:#ebebeb"
   id="path60" />
            </g>
            <g
   transform="matrix(0.718891,-0.21418,-0.246459,-0.827236,412.773,1305.93)"
   id="g66">
                <path
   d="m 900.825,645.115 c 1.639,5.461 4.86,7.076 10.445,8.848 l -5.87,6.511 c -7.076,-1.335 -12.547,-3.641 -13.776,-10.006 z"
   style="fill:#ebebeb"
   id="path64" />
            </g>
            <g
   transform="translate(8.79994,-1.41043)"
   id="g70">
                <text
   x="911.53998"
   y="641.93701"
   style="font-size:87.409px;font-family:ArialMT, Arial, sans-serif"
   id="text68">2</text>
            </g>
        </g><g
   transform="translate(-30.667207,-561.90245)"
   id="g96">
            <g
   transform="matrix(1.2797,0,0,1.2797,-268.506,-166.307)"
   id="g76">
                <path
   d="m 985.118,583.317 c 0,-7.876 -6.394,-14.27 -14.27,-14.27 h -52.703 c -7.875,0 -14.269,6.394 -14.269,14.27 v 52.703 c 0,7.875 6.394,14.269 14.269,14.269 h 52.703 c 7.876,0 14.27,-6.394 14.27,-14.269 z"
   style="fill:#808080"
   id="path74" />
            </g>
            <path
   d="m 985.118,583.317 c 0,-7.876 -6.394,-14.27 -14.27,-14.27 h -52.703 c -7.875,0 -14.269,6.394 -14.269,14.27 v 52.703 c 0,7.875 6.394,14.269 14.269,14.269 h 52.703 c 7.876,0 14.27,-6.394 14.27,-14.269 z"
   style="fill:#ebebeb"
   id="path78" />
            <g
   transform="translate(0.269522,-1.0044)"
   id="g82">
                <path
   d="m 900.618,642.941 c 1.64,5.461 5.067,9.25 10.652,11.022 l -7.394,9.669 c -7.23,-2.307 -10.967,-6.977 -12.196,-13.343 z"
   style="fill:#ebebeb"
   id="path80" />
            </g>
            <g
   transform="matrix(0.254196,-0.853203,0.767751,0.228737,251.454,1272.2)"
   id="g86">
                <path
   d="m 899.63,645.496 c 1.639,5.461 6.055,6.695 11.64,8.467 l -5.87,6.511 c -7.076,-1.335 -12.547,-3.641 -13.776,-10.006 z"
   style="fill:#ebebeb"
   id="path84" />
            </g>
            <g
   transform="matrix(0.718891,-0.21418,-0.246459,-0.827236,412.773,1305.93)"
   id="g90">
                <path
   d="m 900.825,645.115 c 1.639,5.461 4.86,7.076 10.445,8.848 l -5.87,6.511 c -7.076,-1.335 -12.547,-3.641 -13.776,-10.006 z"
   style="fill:#ebebeb"
   id="path88" />
            </g>
            <g
   transform="translate(8.79994,-1.41043)"
   id="g94">
                <text
   x="911.53998"
   y="641.93701"
   style="font-size:87.409px;font-family:ArialMT, Arial, sans-serif"
   id="text92">3</text>
            </g>
        </g><g
   transform="translate(-398.17435,-561.90245)"
   id="g120">
            <g
   transform="matrix(1.2797,0,0,1.2797,-268.506,-166.307)"
   id="g100">
                <path
   d="m 985.118,583.317 c 0,-7.876 -6.394,-14.27 -14.27,-14.27 h -52.703 c -7.875,0 -14.269,6.394 -14.269,14.27 v 52.703 c 0,7.875 6.394,14.269 14.269,14.269 h 52.703 c 7.876,0 14.27,-6.394 14.27,-14.269 z"
   style="fill:#808080"
   id="path98" />
            </g>
            <path
   d="m 985.118,583.317 c 0,-7.876 -6.394,-14.27 -14.27,-14.27 h -52.703 c -7.875,0 -14.269,6.394 -14.269,14.27 v 52.703 c 0,7.875 6.394,14.269 14.269,14.269 h 52.703 c 7.876,0 14.27,-6.394 14.27,-14.269 z"
   style="fill:#ebebeb"
   id="path102" />
            <g
   transform="translate(0.269522,-1.0044)"
   id="g106">
                <path
   d="m 900.618,642.941 c 1.64,5.461 5.067,9.25 10.652,11.022 l -7.394,9.669 c -7.23,-2.307 -10.967,-6.977 -12.196,-13.343 z"
   style="fill:#ebebeb"
   id="path104" />
            </g>
            <g
   transform="matrix(0.254196,-0.853203,0.767751,0.228737,251.454,1272.2)"
   id="g110">
                <path
   d="m 899.63,645.496 c 1.639,5.461 6.055,6.695 11.64,8.467 l -5.87,6.511 c -7.076,-1.335 -12.547,-3.641 -13.776,-10.006 z"
   style="fill:#ebebeb"
   id="path108" />
            </g>
            <g
   transform="matrix(0.718891,-0.21418,-0.246459,-0.827236,412.773,1305.93)"
   id="g114">
                <path
   d="m 900.825,645.115 c 1.639,5.461 4.86,7.076 10.445,8.848 l -5.87,6.511 c -7.076,-1.335 -12.547,-3.641 -13.776,-10.006 z"
   style="fill:#ebebeb"
   id="path112" />
            </g>
            <g
   transform="translate(8.79994,-1.41043)"
   id="g118">
                <text
   x="911.53998"
   y="641.93701"
   style="font-size:87.409px;font-family:ArialMT, Arial, sans-serif"
   id="text116">5</text>
            </g>
        </g><g
   transform="translate(-765.68168,-561.90245)"
   id="g144">
            <g
   transform="matrix(1.2797,0,0,1.2797,-268.506,-166.307)"
   id="g124">
                <path
   d="m 985.118,583.317 c 0,-7.876 -6.394,-14.27 -14.27,-14.27 h -52.703 c -7.875,0 -14.269,6.394 -14.269,14.27 v 52.703 c 0,7.875 6.394,14.269 14.269,14.269 h 52.703 c 7.876,0 14.27,-6.394 14.27,-14.269 z"
   style="fill:#808080"
   id="path122" />
            </g>
            <path
   d="m 985.118,583.317 c 0,-7.876 -6.394,-14.27 -14.27,-14.27 h -52.703 c -7.875,0 -14.269,6.394 -14.269,14.27 v 52.703 c 0,7.875 6.394,14.269 14.269,14.269 h 52.703 c 7.876,0 14.27,-6.394 14.27,-14.269 z"
   style="fill:#ebebeb"
   id="path126" />
            <g
   transform="translate(0.269522,-1.0044)"
   id="g130">
                <path
   d="m 900.618,642.941 c 1.64,5.461 5.067,9.25 10.652,11.022 l -7.394,9.669 c -7.23,-2.307 -10.967,-6.977 -12.196,-13.343 z"
   style="fill:#ebebeb"
   id="path128" />
            </g>
            <g
   transform="matrix(0.254196,-0.853203,0.767751,0.228737,251.454,1272.2)"
   id="g134">
                <path
   d="m 899.63,645.496 c 1.639,5.461 6.055,6.695 11.64,8.467 l -5.87,6.511 c -7.076,-1.335 -12.547,-3.641 -13.776,-10.006 z"
   style="fill:#ebebeb"
   id="path132" />
            </g>
            <g
   transform="matrix(0.718891,-0.21418,-0.246459,-0.827236,412.773,1305.93)"
   id="g138">
                <path
   d="m 900.825,645.115 c 1.639,5.461 4.86,7.076 10.445,8.848 l -5.87,6.511 c -7.076,-1.335 -12.547,-3.641 -13.776,-10.006 z"
   style="fill:#ebebeb"
   id="path136" />
            </g>
            <g
   transform="translate(8.79994,-1.41043)"
   id="g142">
                <text
   x="911.53998"
   y="641.93701"
   style="font-size:87.409px;font-family:ArialMT, Arial, sans-serif"
   id="text140">4</text>
            </g>
        </g><g
   id="g1195"
   transform="translate(-195.29591,0.0015541)"><g
     transform="matrix(1.2797,0,0,1.2797,-348.882,-728.211)"
     id="g148">
                <path
   d="m 985.118,583.317 c 0,-7.876 -6.394,-14.27 -14.27,-14.27 h -52.703 c -7.875,0 -14.269,6.394 -14.269,14.27 v 52.703 c 0,7.875 6.394,14.269 14.269,14.269 h 52.703 c 7.876,0 14.27,-6.394 14.27,-14.269 z"
   style="fill:#808080"
   id="path146" />
            </g><path
     d="m 904.742,21.413 c 0,-7.876 -6.394,-14.27 -14.27,-14.27 h -52.703 c -7.875,0 -14.269,6.394 -14.269,14.27 v 52.703 c 0,7.875 6.394,14.269 14.269,14.269 h 52.703 c 7.876,0 14.27,-6.394 14.27,-14.269 z"
     style="fill:#ebebeb"
     id="path154" /><g
     transform="translate(-80.106478,-562.9084)"
     id="g162">
                <path
   d="m 900.618,642.941 c 1.64,5.461 5.067,9.25 10.652,11.022 l -7.394,9.669 c -7.23,-2.307 -10.967,-6.977 -12.196,-13.343 z"
   style="fill:#ebebeb"
   id="path160" />
            </g><g
     transform="matrix(0.254196,-0.853203,0.767751,0.228737,171.078,710.296)"
     id="g170">
                <path
   d="m 899.63,645.496 c 1.639,5.461 6.055,6.695 11.64,8.467 l -5.87,6.511 c -7.076,-1.335 -12.547,-3.641 -13.776,-10.006 z"
   style="fill:#ebebeb"
   id="path168" />
            </g><g
     transform="matrix(0.718891,-0.21418,-0.246459,-0.827236,332.397,744.026)"
     id="g178">
                <path
   d="m 900.825,645.115 c 1.639,5.461 4.86,7.076 10.445,8.848 l -5.87,6.511 c -7.076,-1.335 -12.547,-3.641 -13.776,-10.006 z"
   style="fill:#ebebeb"
   id="path176" />
            </g><g
     transform="translate(-71.57606,-563.31443)"
     id="g186">
                <text
   x="911.53998"
   y="641.93701"
   style="font-size:87.409px;font-family:ArialMT, Arial, sans-serif"
   id="text184">6</text>
            </g></g><g
   id="g1209"
   transform="translate(-930.42912,0.0015541)"><g
     transform="matrix(1.2797,0,0,1.2797,-226.261,-728.211)"
     id="g152">
                <path
   d="m 985.118,583.317 c 0,-7.876 -6.394,-14.27 -14.27,-14.27 h -52.703 c -7.875,0 -14.269,6.394 -14.269,14.27 v 52.703 c 0,7.875 6.394,14.269 14.269,14.269 h 52.703 c 7.876,0 14.27,-6.394 14.27,-14.269 z"
   style="fill:#808080"
   id="path150" />
            </g><g
     transform="translate(42.245,-561.904)"
     id="g158">
                <path
   d="m 985.118,583.317 c 0,-7.876 -6.394,-14.27 -14.27,-14.27 h -52.703 c -7.875,0 -14.269,6.394 -14.269,14.27 v 52.703 c 0,7.875 6.394,14.269 14.269,14.269 h 52.703 c 7.876,0 14.27,-6.394 14.27,-14.269 z"
   style="fill:#ebebeb"
   id="path156" />
            </g><g
     transform="translate(42.515,-562.9084)"
     id="g166">
                <path
   d="m 900.618,642.941 c 1.64,5.461 5.067,9.25 10.652,11.022 l -7.394,9.669 c -7.23,-2.307 -10.967,-6.977 -12.196,-13.343 z"
   style="fill:#ebebeb"
   id="path164" />
            </g><g
     transform="matrix(0.254196,-0.853203,0.767751,0.228737,293.699,710.296)"
     id="g174">
                <path
   d="m 899.63,645.496 c 1.639,5.461 6.055,6.695 11.64,8.467 l -5.87,6.511 c -7.076,-1.335 -12.547,-3.641 -13.776,-10.006 z"
   style="fill:#ebebeb"
   id="path172" />
            </g><g
     transform="matrix(0.718891,-0.21418,-0.246459,-0.827236,455.018,744.026)"
     id="g182">
                <path
   d="m 900.825,645.115 c 1.639,5.461 4.86,7.076 10.445,8.848 l -5.87,6.511 c -7.076,-1.335 -12.547,-3.641 -13.776,-10.006 z"
   style="fill:#ebebeb"
   id="path180" />
            </g><g
     transform="translate(51.045,-563.31443)"
     id="g190">
                <text
   x="911.53998"
   y="641.93701"
   style="font-size:87.409px;font-family:ArialMT, Arial, sans-serif"
   id="text188">7</text>
            </g></g>
</svg>
