<?xml version="1.0" encoding="UTF-8" standalone="no"?>
<!DOCTYPE svg PUBLIC "-//W3C//DTD SVG 1.1//EN" "http://www.w3.org/Graphics/SVG/1.1/DTD/svg11.dtd">
<svg width="100%" height="100%" viewBox="0 0 590 104" version="1.1" xmlns="http://www.w3.org/2000/svg" xmlns:xlink="http://www.w3.org/1999/xlink" xml:space="preserve" xmlns:serif="http://www.serif.com/" style="fill-rule:evenodd;clip-rule:evenodd;stroke-linejoin:round;stroke-miterlimit:2;">
    <g transform="matrix(1,0,0,1,-888.185,-561.904)">
        <g>
            <g transform="matrix(1.2797,0,0,1.2797,-268.506,-166.307)">
                <path d="M985.118,583.317C985.118,575.441 978.724,569.047 970.848,569.047L918.145,569.047C910.27,569.047 903.876,575.441 903.876,583.317L903.876,636.02C903.876,643.895 910.27,650.289 918.145,650.289L970.848,650.289C978.724,650.289 985.118,643.895 985.118,636.02L985.118,583.317Z" style="fill:rgb(128,128,128);"/>
            </g>
            <path d="M985.118,583.317C985.118,575.441 978.724,569.047 970.848,569.047L918.145,569.047C910.27,569.047 903.876,575.441 903.876,583.317L903.876,636.02C903.876,643.895 910.27,650.289 918.145,650.289L970.848,650.289C978.724,650.289 985.118,643.895 985.118,636.02L985.118,583.317Z" style="fill:rgb(235,235,235);"/>
            <g transform="matrix(1,0,0,1,0.269522,-1.0044)">
                <path d="M900.618,642.941C902.258,648.402 905.685,652.191 911.27,653.963L903.876,663.632C896.646,661.325 892.909,656.655 891.68,650.289L900.618,642.941Z" style="fill:rgb(235,235,235);"/>
            </g>
            <g transform="matrix(0.254196,-0.853203,0.767751,0.228737,251.454,1272.2)">
                <path d="M899.63,645.496C901.269,650.957 905.685,652.191 911.27,653.963L905.4,660.474C898.324,659.139 892.853,656.833 891.624,650.468L899.63,645.496Z" style="fill:rgb(235,235,235);"/>
            </g>
            <g transform="matrix(0.718891,-0.21418,-0.246459,-0.827236,412.773,1305.93)">
                <path d="M900.825,645.115C902.464,650.576 905.685,652.191 911.27,653.963L905.4,660.474C898.324,659.139 892.853,656.833 891.624,650.468L900.825,645.115Z" style="fill:rgb(235,235,235);"/>
            </g>
            <g transform="matrix(1,0,0,1,8.79994,-1.41043)">
                <text x="911.54px" y="641.937px" style="font-family:'ArialMT', 'Arial', sans-serif;font-size:87.409px;">0</text>
            </g>
        </g>
        <g transform="matrix(1,0,0,1,121.278,0)">
            <g transform="matrix(1.2797,0,0,1.2797,-268.506,-166.307)">
                <path d="M985.118,583.317C985.118,575.441 978.724,569.047 970.848,569.047L918.145,569.047C910.27,569.047 903.876,575.441 903.876,583.317L903.876,636.02C903.876,643.895 910.27,650.289 918.145,650.289L970.848,650.289C978.724,650.289 985.118,643.895 985.118,636.02L985.118,583.317Z" style="fill:rgb(128,128,128);"/>
            </g>
            <path d="M985.118,583.317C985.118,575.441 978.724,569.047 970.848,569.047L918.145,569.047C910.27,569.047 903.876,575.441 903.876,583.317L903.876,636.02C903.876,643.895 910.27,650.289 918.145,650.289L970.848,650.289C978.724,650.289 985.118,643.895 985.118,636.02L985.118,583.317Z" style="fill:rgb(235,235,235);"/>
            <g transform="matrix(1,0,0,1,0.269522,-1.0044)">
                <path d="M900.618,642.941C902.258,648.402 905.685,652.191 911.27,653.963L903.876,663.632C896.646,661.325 892.909,656.655 891.68,650.289L900.618,642.941Z" style="fill:rgb(235,235,235);"/>
            </g>
            <g transform="matrix(0.254196,-0.853203,0.767751,0.228737,251.454,1272.2)">
                <path d="M899.63,645.496C901.269,650.957 905.685,652.191 911.27,653.963L905.4,660.474C898.324,659.139 892.853,656.833 891.624,650.468L899.63,645.496Z" style="fill:rgb(235,235,235);"/>
            </g>
            <g transform="matrix(0.718891,-0.21418,-0.246459,-0.827236,412.773,1305.93)">
                <path d="M900.825,645.115C902.464,650.576 905.685,652.191 911.27,653.963L905.4,660.474C898.324,659.139 892.853,656.833 891.624,650.468L900.825,645.115Z" style="fill:rgb(235,235,235);"/>
            </g>
            <g transform="matrix(1,0,0,1,8.79994,-1.41043)">
                <text x="911.54px" y="641.937px" style="font-family:'ArialMT', 'Arial', sans-serif;font-size:87.409px;">2</text>
            </g>
        </g>
        <g transform="matrix(1,0,0,1,242.557,0)">
            <g transform="matrix(1.2797,0,0,1.2797,-268.506,-166.307)">
                <path d="M985.118,583.317C985.118,575.441 978.724,569.047 970.848,569.047L918.145,569.047C910.27,569.047 903.876,575.441 903.876,583.317L903.876,636.02C903.876,643.895 910.27,650.289 918.145,650.289L970.848,650.289C978.724,650.289 985.118,643.895 985.118,636.02L985.118,583.317Z" style="fill:rgb(128,128,128);"/>
            </g>
            <path d="M985.118,583.317C985.118,575.441 978.724,569.047 970.848,569.047L918.145,569.047C910.27,569.047 903.876,575.441 903.876,583.317L903.876,636.02C903.876,643.895 910.27,650.289 918.145,650.289L970.848,650.289C978.724,650.289 985.118,643.895 985.118,636.02L985.118,583.317Z" style="fill:rgb(235,235,235);"/>
            <g transform="matrix(1,0,0,1,0.269522,-1.0044)">
                <path d="M900.618,642.941C902.258,648.402 905.685,652.191 911.27,653.963L903.876,663.632C896.646,661.325 892.909,656.655 891.68,650.289L900.618,642.941Z" style="fill:rgb(235,235,235);"/>
            </g>
            <g transform="matrix(0.254196,-0.853203,0.767751,0.228737,251.454,1272.2)">
                <path d="M899.63,645.496C901.269,650.957 905.685,652.191 911.27,653.963L905.4,660.474C898.324,659.139 892.853,656.833 891.624,650.468L899.63,645.496Z" style="fill:rgb(235,235,235);"/>
            </g>
            <g transform="matrix(0.718891,-0.21418,-0.246459,-0.827236,412.773,1305.93)">
                <path d="M900.825,645.115C902.464,650.576 905.685,652.191 911.27,653.963L905.4,660.474C898.324,659.139 892.853,656.833 891.624,650.468L900.825,645.115Z" style="fill:rgb(235,235,235);"/>
            </g>
            <g transform="matrix(1,0,0,1,8.79994,-1.41043)">
                <text x="911.54px" y="641.937px" style="font-family:'ArialMT', 'Arial', sans-serif;font-size:87.409px;">4</text>
            </g>
        </g>
        <g transform="matrix(1,0,0,1,363.835,0)">
            <g transform="matrix(1.2797,0,0,1.2797,-268.506,-166.307)">
                <path d="M985.118,583.317C985.118,575.441 978.724,569.047 970.848,569.047L918.145,569.047C910.27,569.047 903.876,575.441 903.876,583.317L903.876,636.02C903.876,643.895 910.27,650.289 918.145,650.289L970.848,650.289C978.724,650.289 985.118,643.895 985.118,636.02L985.118,583.317Z" style="fill:rgb(128,128,128);"/>
            </g>
            <path d="M985.118,583.317C985.118,575.441 978.724,569.047 970.848,569.047L918.145,569.047C910.27,569.047 903.876,575.441 903.876,583.317L903.876,636.02C903.876,643.895 910.27,650.289 918.145,650.289L970.848,650.289C978.724,650.289 985.118,643.895 985.118,636.02L985.118,583.317Z" style="fill:rgb(235,235,235);"/>
            <g transform="matrix(1,0,0,1,0.269522,-1.0044)">
                <path d="M900.618,642.941C902.258,648.402 905.685,652.191 911.27,653.963L903.876,663.632C896.646,661.325 892.909,656.655 891.68,650.289L900.618,642.941Z" style="fill:rgb(235,235,235);"/>
            </g>
            <g transform="matrix(0.254196,-0.853203,0.767751,0.228737,251.454,1272.2)">
                <path d="M899.63,645.496C901.269,650.957 905.685,652.191 911.27,653.963L905.4,660.474C898.324,659.139 892.853,656.833 891.624,650.468L899.63,645.496Z" style="fill:rgb(235,235,235);"/>
            </g>
            <g transform="matrix(0.718891,-0.21418,-0.246459,-0.827236,412.773,1305.93)">
                <path d="M900.825,645.115C902.464,650.576 905.685,652.191 911.27,653.963L905.4,660.474C898.324,659.139 892.853,656.833 891.624,650.468L900.825,645.115Z" style="fill:rgb(235,235,235);"/>
            </g>
            <g transform="matrix(1,0,0,1,8.79994,-1.41043)">
                <text x="911.54px" y="641.937px" style="font-family:'ArialMT', 'Arial', sans-serif;font-size:87.409px;">3</text>
            </g>
        </g>
        <g transform="matrix(1,0,0,1,485.113,0)">
            <g transform="matrix(1.2797,0,0,1.2797,-268.506,-166.307)">
                <path d="M985.118,583.317C985.118,575.441 978.724,569.047 970.848,569.047L918.145,569.047C910.27,569.047 903.876,575.441 903.876,583.317L903.876,636.02C903.876,643.895 910.27,650.289 918.145,650.289L970.848,650.289C978.724,650.289 985.118,643.895 985.118,636.02L985.118,583.317Z" style="fill:rgb(128,128,128);"/>
            </g>
            <path d="M985.118,583.317C985.118,575.441 978.724,569.047 970.848,569.047L918.145,569.047C910.27,569.047 903.876,575.441 903.876,583.317L903.876,636.02C903.876,643.895 910.27,650.289 918.145,650.289L970.848,650.289C978.724,650.289 985.118,643.895 985.118,636.02L985.118,583.317Z" style="fill:rgb(235,235,235);"/>
            <g transform="matrix(1,0,0,1,0.269522,-1.0044)">
                <path d="M900.618,642.941C902.258,648.402 905.685,652.191 911.27,653.963L903.876,663.632C896.646,661.325 892.909,656.655 891.68,650.289L900.618,642.941Z" style="fill:rgb(235,235,235);"/>
            </g>
            <g transform="matrix(0.254196,-0.853203,0.767751,0.228737,251.454,1272.2)">
                <path d="M899.63,645.496C901.269,650.957 905.685,652.191 911.27,653.963L905.4,660.474C898.324,659.139 892.853,656.833 891.624,650.468L899.63,645.496Z" style="fill:rgb(235,235,235);"/>
            </g>
            <g transform="matrix(0.718891,-0.21418,-0.246459,-0.827236,412.773,1305.93)">
                <path d="M900.825,645.115C902.464,650.576 905.685,652.191 911.27,653.963L905.4,660.474C898.324,659.139 892.853,656.833 891.624,650.468L900.825,645.115Z" style="fill:rgb(235,235,235);"/>
            </g>
            <g transform="matrix(1,0,0,1,8.79994,-1.41043)">
                <text x="911.54px" y="641.937px" style="font-family:'ArialMT', 'Arial', sans-serif;font-size:87.409px;">1</text>
            </g>
        </g>
    </g>
</svg>
