<?xml version="1.0" encoding="UTF-8" standalone="no"?>
<svg
   width="100%"
   height="100%"
   viewBox="0 0 590 104"
   version="1.1"
   xml:space="preserve"
   style="fill-rule:evenodd;clip-rule:evenodd;stroke-linejoin:round;stroke-miterlimit:2;"
   id="svg124"
   sodipodi:docname="2023-UA-01-code_compatible.svg"
   inkscape:version="1.1.1 (3bf5ae0d25, 2021-09-20)"
   xmlns:inkscape="http://www.inkscape.org/namespaces/inkscape"
   xmlns:sodipodi="http://sodipodi.sourceforge.net/DTD/sodipodi-0.dtd"
   xmlns="http://www.w3.org/2000/svg"
   xmlns:svg="http://www.w3.org/2000/svg"><defs
   id="defs128" /><sodipodi:namedview
   id="namedview126"
   pagecolor="#ffffff"
   bordercolor="#666666"
   borderopacity="1.0"
   inkscape:pageshadow="2"
   inkscape:pageopacity="0.0"
   inkscape:pagecheckerboard="0"
   showgrid="false"
   inkscape:zoom="1.9898305"
   inkscape:cx="294.74872"
   inkscape:cy="52.01448"
   inkscape:window-width="2048"
   inkscape:window-height="1017"
   inkscape:window-x="-8"
   inkscape:window-y="-8"
   inkscape:window-maximized="1"
   inkscape:current-layer="g48" />
    <g
   transform="translate(-888.185,-561.904)"
   id="g122">
        <g
   id="g24">
            <g
   transform="matrix(1.2797,0,0,1.2797,-268.506,-166.307)"
   id="g4">
                <path
   d="m 985.118,583.317 c 0,-7.876 -6.394,-14.27 -14.27,-14.27 h -52.703 c -7.875,0 -14.269,6.394 -14.269,14.27 v 52.703 c 0,7.875 6.394,14.269 14.269,14.269 h 52.703 c 7.876,0 14.27,-6.394 14.27,-14.269 z"
   style="fill:#808080"
   id="path2" />
            </g>
            <path
   d="m 985.118,583.317 c 0,-7.876 -6.394,-14.27 -14.27,-14.27 h -52.703 c -7.875,0 -14.269,6.394 -14.269,14.27 v 52.703 c 0,7.875 6.394,14.269 14.269,14.269 h 52.703 c 7.876,0 14.27,-6.394 14.27,-14.269 z"
   style="fill:#ebebeb"
   id="path6" />
            <g
   transform="translate(0.269522,-1.0044)"
   id="g10">
                <path
   d="m 900.618,642.941 c 1.64,5.461 5.067,9.25 10.652,11.022 l -7.394,9.669 c -7.23,-2.307 -10.967,-6.977 -12.196,-13.343 z"
   style="fill:#ebebeb"
   id="path8" />
            </g>
            <g
   transform="matrix(0.254196,-0.853203,0.767751,0.228737,251.454,1272.2)"
   id="g14">
                <path
   d="m 899.63,645.496 c 1.639,5.461 6.055,6.695 11.64,8.467 l -5.87,6.511 c -7.076,-1.335 -12.547,-3.641 -13.776,-10.006 z"
   style="fill:#ebebeb"
   id="path12" />
            </g>
            <g
   transform="matrix(0.718891,-0.21418,-0.246459,-0.827236,412.773,1305.93)"
   id="g18">
                <path
   d="m 900.825,645.115 c 1.639,5.461 4.86,7.076 10.445,8.848 l -5.87,6.511 c -7.076,-1.335 -12.547,-3.641 -13.776,-10.006 z"
   style="fill:#ebebeb"
   id="path16" />
            </g>
            <g
   transform="translate(8.79994,-1.41043)"
   id="g22">
                <g
   aria-label="0"
   id="text20"
   style="font-size:87.409px;font-family:ArialMT, Arial, sans-serif"><path
     d="m 915.16779,611.07925 q 0,-11.09685 2.26205,-17.84032 2.30473,-6.78614 6.78615,-10.45664 4.5241,-3.67049 11.35293,-3.67049 5.03626,0 8.83479,2.04864 3.79854,2.00597 6.27399,5.84719 2.47545,3.79853 3.88389,9.30428 1.40845,5.46306 1.40845,14.76734 0,11.01148 -2.26205,17.79763 -2.26205,6.74347 -6.78615,10.45664 -4.48142,3.6705 -11.35292,3.6705 -9.0482,0 -14.2125,-6.48739 -6.18863,-7.81047 -6.18863,-25.43738 z m 7.89584,0 q 0,15.40754 3.58513,20.52916 3.62781,5.07894 8.92016,5.07894 5.29234,0 8.87747,-5.12162 3.62782,-5.12162 3.62782,-20.48648 0,-15.45023 -3.62782,-20.52917 -3.58513,-5.07894 -8.96283,-5.07894 -5.29235,0 -8.45068,4.48142 -3.96925,5.71914 -3.96925,21.12669 z"
     id="path964" /></g>
            </g>
        </g>
        <g
   transform="translate(121.278)"
   id="g48">
            <g
   transform="matrix(1.2797,0,0,1.2797,-268.506,-166.307)"
   id="g28">
                <path
   d="m 985.118,583.317 c 0,-7.876 -6.394,-14.27 -14.27,-14.27 h -52.703 c -7.875,0 -14.269,6.394 -14.269,14.27 v 52.703 c 0,7.875 6.394,14.269 14.269,14.269 h 52.703 c 7.876,0 14.27,-6.394 14.27,-14.269 z"
   style="fill:#808080"
   id="path26" />
            </g>
            <path
   d="m 985.118,583.317 c 0,-7.876 -6.394,-14.27 -14.27,-14.27 h -52.703 c -7.875,0 -14.269,6.394 -14.269,14.27 v 52.703 c 0,7.875 6.394,14.269 14.269,14.269 h 52.703 c 7.876,0 14.27,-6.394 14.27,-14.269 z"
   style="fill:#ebebeb"
   id="path30" />
            <g
   transform="translate(0.269522,-1.0044)"
   id="g34">
                <path
   d="m 900.618,642.941 c 1.64,5.461 5.067,9.25 10.652,11.022 l -7.394,9.669 c -7.23,-2.307 -10.967,-6.977 -12.196,-13.343 z"
   style="fill:#ebebeb"
   id="path32" />
            </g>
            <g
   transform="matrix(0.254196,-0.853203,0.767751,0.228737,251.454,1272.2)"
   id="g38">
                <path
   d="m 899.63,645.496 c 1.639,5.461 6.055,6.695 11.64,8.467 l -5.87,6.511 c -7.076,-1.335 -12.547,-3.641 -13.776,-10.006 z"
   style="fill:#ebebeb"
   id="path36" />
            </g>
            <g
   transform="matrix(0.718891,-0.21418,-0.246459,-0.827236,412.773,1305.93)"
   id="g42">
                <path
   d="m 900.825,645.115 c 1.639,5.461 4.86,7.076 10.445,8.848 l -5.87,6.511 c -7.076,-1.335 -12.547,-3.641 -13.776,-10.006 z"
   style="fill:#ebebeb"
   id="path40" />
            </g>
            <g
   transform="translate(8.79994,-1.41043)"
   id="g46">
                <g
   aria-label="2"
   id="text44"
   style="font-size:87.409px;font-family:ArialMT, Arial, sans-serif"><path
     d="m 955.54324,634.55334 v 7.38367 h -41.35709 q -0.0854,-2.77421 0.89628,-5.33502 1.57917,-4.22534 5.03626,-8.32263 3.49978,-4.0973 10.07252,-9.475 10.20057,-8.36532 13.7857,-13.23086 3.58513,-4.90822 3.58513,-9.26159 0,-4.56678 -3.28637,-7.68244 -3.24369,-3.15833 -8.49335,-3.15833 -5.54843,0 -8.87748,3.32905 -3.32905,3.32906 -3.37173,9.21892 l -7.89584,-0.81092 q 0.81093,-8.8348 6.10327,-13.44426 5.29234,-4.65213 14.2125,-4.65213 9.00551,0 14.25518,4.99358 5.24966,4.99358 5.24966,12.37725 0,3.75585 -1.53649,7.38367 -1.53649,3.62781 -5.12162,7.63975 -3.54245,4.01193 -11.82241,11.01148 -6.91419,5.80451 -8.87747,7.89583 -1.96329,2.04865 -3.2437,4.13998 z"
     id="path969" /></g>
            </g>
        </g>
        <g
   transform="translate(242.557)"
   id="g72">
            <g
   transform="matrix(1.2797,0,0,1.2797,-268.506,-166.307)"
   id="g52">
                <path
   d="m 985.118,583.317 c 0,-7.876 -6.394,-14.27 -14.27,-14.27 h -52.703 c -7.875,0 -14.269,6.394 -14.269,14.27 v 52.703 c 0,7.875 6.394,14.269 14.269,14.269 h 52.703 c 7.876,0 14.27,-6.394 14.27,-14.269 z"
   style="fill:#808080"
   id="path50" />
            </g>
            <path
   d="m 985.118,583.317 c 0,-7.876 -6.394,-14.27 -14.27,-14.27 h -52.703 c -7.875,0 -14.269,6.394 -14.269,14.27 v 52.703 c 0,7.875 6.394,14.269 14.269,14.269 h 52.703 c 7.876,0 14.27,-6.394 14.27,-14.269 z"
   style="fill:#ebebeb"
   id="path54" />
            <g
   transform="translate(0.269522,-1.0044)"
   id="g58">
                <path
   d="m 900.618,642.941 c 1.64,5.461 5.067,9.25 10.652,11.022 l -7.394,9.669 c -7.23,-2.307 -10.967,-6.977 -12.196,-13.343 z"
   style="fill:#ebebeb"
   id="path56" />
            </g>
            <g
   transform="matrix(0.254196,-0.853203,0.767751,0.228737,251.454,1272.2)"
   id="g62">
                <path
   d="m 899.63,645.496 c 1.639,5.461 6.055,6.695 11.64,8.467 l -5.87,6.511 c -7.076,-1.335 -12.547,-3.641 -13.776,-10.006 z"
   style="fill:#ebebeb"
   id="path60" />
            </g>
            <g
   transform="matrix(0.718891,-0.21418,-0.246459,-0.827236,412.773,1305.93)"
   id="g66">
                <path
   d="m 900.825,645.115 c 1.639,5.461 4.86,7.076 10.445,8.848 l -5.87,6.511 c -7.076,-1.335 -12.547,-3.641 -13.776,-10.006 z"
   style="fill:#ebebeb"
   id="path64" />
            </g>
            <g
   transform="translate(8.79994,-1.41043)"
   id="g70">
                <g
   aria-label="4"
   id="text68"
   style="font-size:87.409px;font-family:ArialMT, Arial, sans-serif"><path
     d="m 939.79425,641.93701 v -14.98074 h -27.14459 v -7.04223 l 28.55304,-40.54616 h 6.27398 v 40.54616 h 8.45068 v 7.04223 h -8.45068 v 14.98074 z m 0,-22.02297 v -28.21159 l -19.5902,28.21159 z"
     id="path974" /></g>
            </g>
        </g>
        <g
   transform="translate(363.835)"
   id="g96">
            <g
   transform="matrix(1.2797,0,0,1.2797,-268.506,-166.307)"
   id="g76">
                <path
   d="m 985.118,583.317 c 0,-7.876 -6.394,-14.27 -14.27,-14.27 h -52.703 c -7.875,0 -14.269,6.394 -14.269,14.27 v 52.703 c 0,7.875 6.394,14.269 14.269,14.269 h 52.703 c 7.876,0 14.27,-6.394 14.27,-14.269 z"
   style="fill:#808080"
   id="path74" />
            </g>
            <path
   d="m 985.118,583.317 c 0,-7.876 -6.394,-14.27 -14.27,-14.27 h -52.703 c -7.875,0 -14.269,6.394 -14.269,14.27 v 52.703 c 0,7.875 6.394,14.269 14.269,14.269 h 52.703 c 7.876,0 14.27,-6.394 14.27,-14.269 z"
   style="fill:#ebebeb"
   id="path78" />
            <g
   transform="translate(0.269522,-1.0044)"
   id="g82">
                <path
   d="m 900.618,642.941 c 1.64,5.461 5.067,9.25 10.652,11.022 l -7.394,9.669 c -7.23,-2.307 -10.967,-6.977 -12.196,-13.343 z"
   style="fill:#ebebeb"
   id="path80" />
            </g>
            <g
   transform="matrix(0.254196,-0.853203,0.767751,0.228737,251.454,1272.2)"
   id="g86">
                <path
   d="m 899.63,645.496 c 1.639,5.461 6.055,6.695 11.64,8.467 l -5.87,6.511 c -7.076,-1.335 -12.547,-3.641 -13.776,-10.006 z"
   style="fill:#ebebeb"
   id="path84" />
            </g>
            <g
   transform="matrix(0.718891,-0.21418,-0.246459,-0.827236,412.773,1305.93)"
   id="g90">
                <path
   d="m 900.825,645.115 c 1.639,5.461 4.86,7.076 10.445,8.848 l -5.87,6.511 c -7.076,-1.335 -12.547,-3.641 -13.776,-10.006 z"
   style="fill:#ebebeb"
   id="path88" />
            </g>
            <g
   transform="translate(8.79994,-1.41043)"
   id="g94">
                <g
   aria-label="3"
   id="text92"
   style="font-size:87.409px;font-family:ArialMT, Arial, sans-serif"><path
     d="m 915.21047,625.41978 7.68243,-1.02432 q 1.32309,6.53007 4.48142,9.43232 3.20102,2.85957 7.76779,2.85957 5.42039,0 9.13356,-3.75586 3.75586,-3.75585 3.75586,-9.30427 0,-5.29234 -3.4571,-8.70676 -3.45709,-3.45709 -8.79211,-3.45709 -2.17669,0 -5.42039,0.8536 l 0.85361,-6.74347 q 0.76824,0.0854 1.23772,0.0854 4.90822,0 8.8348,-2.56081 3.92658,-2.56081 3.92658,-7.89583 0,-4.22534 -2.85958,-6.99955 -2.85957,-2.77421 -7.38367,-2.77421 -4.48141,0 -7.46903,2.81689 -2.98761,2.81689 -3.84121,8.45068 l -7.68243,-1.36577 q 1.40844,-7.72511 6.40202,-11.95045 4.99358,-4.26801 12.41993,-4.26801 5.12162,0 9.43232,2.21936 4.3107,2.17669 6.57275,5.97523 2.30473,3.79853 2.30473,8.06655 0,4.05462 -2.17669,7.38367 -2.17669,3.32906 -6.44471,5.29234 5.54843,1.28041 8.6214,5.33503 3.07297,4.01193 3.07297,10.07252 0,8.19459 -5.97522,13.91373 -5.97523,5.67647 -15.10879,5.67647 -8.23727,0 -13.70033,-4.90822 -5.42038,-4.90822 -6.18863,-12.7187 z"
     id="path979" /></g>
            </g>
        </g>
        <g
   transform="translate(485.113)"
   id="g120">
            <g
   transform="matrix(1.2797,0,0,1.2797,-268.506,-166.307)"
   id="g100">
                <path
   d="m 985.118,583.317 c 0,-7.876 -6.394,-14.27 -14.27,-14.27 h -52.703 c -7.875,0 -14.269,6.394 -14.269,14.27 v 52.703 c 0,7.875 6.394,14.269 14.269,14.269 h 52.703 c 7.876,0 14.27,-6.394 14.27,-14.269 z"
   style="fill:#808080"
   id="path98" />
            </g>
            <path
   d="m 985.118,583.317 c 0,-7.876 -6.394,-14.27 -14.27,-14.27 h -52.703 c -7.875,0 -14.269,6.394 -14.269,14.27 v 52.703 c 0,7.875 6.394,14.269 14.269,14.269 h 52.703 c 7.876,0 14.27,-6.394 14.27,-14.269 z"
   style="fill:#ebebeb"
   id="path102" />
            <g
   transform="translate(0.269522,-1.0044)"
   id="g106">
                <path
   d="m 900.618,642.941 c 1.64,5.461 5.067,9.25 10.652,11.022 l -7.394,9.669 c -7.23,-2.307 -10.967,-6.977 -12.196,-13.343 z"
   style="fill:#ebebeb"
   id="path104" />
            </g>
            <g
   transform="matrix(0.254196,-0.853203,0.767751,0.228737,251.454,1272.2)"
   id="g110">
                <path
   d="m 899.63,645.496 c 1.639,5.461 6.055,6.695 11.64,8.467 l -5.87,6.511 c -7.076,-1.335 -12.547,-3.641 -13.776,-10.006 z"
   style="fill:#ebebeb"
   id="path108" />
            </g>
            <g
   transform="matrix(0.718891,-0.21418,-0.246459,-0.827236,412.773,1305.93)"
   id="g114">
                <path
   d="m 900.825,645.115 c 1.639,5.461 4.86,7.076 10.445,8.848 l -5.87,6.511 c -7.076,-1.335 -12.547,-3.641 -13.776,-10.006 z"
   style="fill:#ebebeb"
   id="path112" />
            </g>
            <g
   transform="translate(8.79994,-1.41043)"
   id="g118">
                <g
   aria-label="1"
   id="text116"
   style="font-size:87.409px;font-family:ArialMT, Arial, sans-serif"><path
     d="m 944.10495,641.93701 h -7.68243 v -48.95416 q -2.77421,2.64617 -7.29831,5.29234 -4.48142,2.64617 -8.06655,3.96926 v -7.42635 q 6.4447,-3.03029 11.26756,-7.34099 4.82286,-4.3107 6.82883,-8.36531 h 4.9509 z"
     id="path984" /></g>
            </g>
        </g>
    </g>
</svg>
