<?xml version="1.0" encoding="UTF-8"?>
<!--?xml version="1.0" encoding="UTF-8"?-->
<svg id="svg430" width="2674.5" height="513.47" style="clip-rule:evenodd;fill-rule:evenodd;stroke-linejoin:round;stroke-miterlimit:2" version="1.1" viewBox="0 0 2674.5 513.47" xml:space="preserve" xmlns="http://www.w3.org/2000/svg">
    
<g id="g428" class="csvg-group"><g id="g394" class="csvg-button"><path id="path368" d="m2558.5 107.31s-.5983-37.942 9.0413-23.85c3.4669 5.0676 6.4686 10.445 9.3186 15.878 2.3864 4.549 4.406 9.284 6.3712 14.028 5.4299 13.107 10.624 26.31 15.81 39.515 11.906 30.312 16.175 40.264 24.776 71.717 9.9928 36.54 7.9951 36.909 16.471 73.936 2.4059 10.509 5.2869 20.903 8.0383 31.326 2.7186 10.298 11.721 24.266 4.2526 33.316-34.419 41.711-221.37 84.955-173.07 29.918 1.6783-1.9122-.4346-9.9178.8077-12.307 2.5406-4.8871 12.008 3.172 13.544 3.5958 3.3375.92162 14.436.44825 17.805.30598 7.7632-.32821 17.704.24475 24.575-4.6512 2.7796-1.9803 5.3436-4.2798 7.6658-6.771 5.9953-6.4333 12.64-14.439 13.875-23.527 1.8699-13.767.7248-82.956 2.7403-96.691 1.7641-12.018 3.7861-11.432 6.7791-23.252 6.4367-25.42 7.9122-52.225 1.7303-77.743-3.5339-14.586-17.153-28.958-10.527-44.744z" style="clip-rule:evenodd;fill-rule:nonzero;fill:#e0e0e0;stroke-linejoin:round;stroke-miterlimit:2;stroke-width:.79512"/><path id="path370" d="m2538.4 55.435s12.278-4.2302 14.564-2.2135c4.3881 3.8709 7.389 16.141 9.4322 23.417 14.176 50.483 58.338 195.76 73.813 250.7 5.5418 19.674 9.0194 31.078-2.0811 35.33-34.005 13.028-121.42 37.01-151.27 47.474-8.1267 2.8493-11.087-21.842-11.087-21.842l-76.668-262.44c-4.728-12.664-1.6958-22.148 13.101-26.812z" style="clip-rule:evenodd;fill-rule:nonzero;fill:#323232;stroke-linejoin:round;stroke-miterlimit:2;stroke-width:.79512"/><path id="path372" d="m2598.5 249.73c-.3676-7.5157 14.792 36.826 16.567 48.453 1.5648 10.258 9.1256 21.098 9.0493 31.371-.026 3.7783-1.5111 8.0077-2.7519 11.607-3.075 8.9201-6.797 7.0289-14.794 11.048-5.9669 2.9988-36.724 11.485-40.861 10.91-3.111-.43243-5.3836-7.7664-4.2707-9.9344 1.0495-2.0449 46.272-7.415 47.338-16.764.8024-7.0359 2.1737-10.128.7475-16.735-3.061-14.18-10.315-55.446-11.024-69.955z" style="clip-rule:evenodd;fill-rule:nonzero;fill:#606060;stroke-linejoin:round;stroke-miterlimit:2;stroke-width:.79512"/><path id="path374" d="m2579.5 200.88-135.83 42.3c-1.2876.40055-2.0131 1.7552-1.6195 3.0233.3944 1.267 1.7596 1.9706 3.0471 1.5701l135.83-42.3c1.2871-.40129 2.0131-1.756 1.6187-3.023-.3936-1.268-1.7591-1.9716-3.0462-1.5703z" style="clip-rule:evenodd;fill-rule:nonzero;fill:#ffffff;stroke-linejoin:round;stroke-miterlimit:2;stroke-width:.79512"/><ellipse id="ellipse376" transform="rotate(-18.287)" cx="2281.3" cy="882.11" rx="16.12" ry="15.655" style="clip-rule:evenodd;fill-rule:evenodd;fill:#ffffff;stroke-linejoin:round;stroke-miterlimit:2;stroke-width:.71092"/><ellipse id="ellipse378" transform="rotate(-18.287)" cx="2355.3" cy="882.11" rx="16.12" ry="15.655" style="clip-rule:evenodd;fill-rule:evenodd;fill:#ffffff;stroke-linejoin:round;stroke-miterlimit:2;stroke-width:.71092"/><ellipse id="ellipse380" transform="rotate(-18.287)" cx="2355.3" cy="1036" rx="16.12" ry="15.655" style="clip-rule:evenodd;fill-rule:evenodd;fill:#ffffff;stroke-linejoin:round;stroke-miterlimit:2;stroke-width:.71092"/><ellipse id="ellipse382" transform="rotate(-18.287)" cx="2281.3" cy="925.26" rx="16.12" ry="15.655" style="clip-rule:evenodd;fill-rule:evenodd;fill:#ffffff;stroke-linejoin:round;stroke-miterlimit:2;stroke-width:.71092"/><ellipse id="ellipse384" transform="rotate(-18.287)" cx="2355.3" cy="925.26" rx="16.12" ry="15.655" style="clip-rule:evenodd;fill-rule:evenodd;fill:#ffffff;stroke-linejoin:round;stroke-miterlimit:2;stroke-width:.71092"/><ellipse id="ellipse386" transform="rotate(-18.287)" cx="2281.3" cy="968.4" rx="16.12" ry="15.655" style="clip-rule:evenodd;fill-rule:evenodd;fill:#ffffff;stroke-linejoin:round;stroke-miterlimit:2;stroke-width:.71092"/><ellipse id="ellipse388" transform="rotate(-18.287)" cx="2271.1" cy="1122.3" rx="16.12" ry="15.655" style="clip-rule:evenodd;fill-rule:evenodd;fill:#ffffff;stroke-linejoin:round;stroke-miterlimit:2;stroke-width:.71092"/><ellipse id="ellipse390" transform="rotate(-18.287)" cx="2355.3" cy="968.4" rx="16.12" ry="15.655" style="clip-rule:evenodd;fill-rule:evenodd;fill:#ffffff;stroke-linejoin:round;stroke-miterlimit:2;stroke-width:.71092"/><ellipse id="ellipse392" transform="rotate(-18.287)" cx="2315.3" cy="1079.5" rx="16.12" ry="15.655" style="clip-rule:evenodd;fill-rule:evenodd;fill:#ffffff;stroke-linejoin:round;stroke-miterlimit:2;stroke-width:.71092"/></g><g id="g426" class="csvg-button"><g id="g400" transform="translate(28.279,32.765)"><path id="path396" d="m2350.6 48.685c-16.686 15.292-16.776 40.382-8.7054 60.05 24.716 83.058 49.433 166.12 74.152 249.17 2.2269 21.743 15.73 46.967 40.397 47.344 19.198-.68738 36.751-10.403 55.311-14.823 37.499-12.079 76.125-21.365 112.36-36.936 23.494-12.25 26.147-42.583 17.616-64.985-27.125-91.947-55.347-183.59-82.807-275.42-7.273-15.807-24.814-31.335-43.384-25.091-22.061 4.7781-43.866 14.036-66.1 21.055-25.262 8.5886-50.526 17.178-75.788 25.767-6.3213 1.845-17.031 7.5899-23.04 13.866z" style="-inkscape-stroke:none;clip-rule:evenodd;color:#000000;fill-rule:evenodd;fill:#00ff00;stroke-linejoin:miter;stroke-miterlimit:2"/><path id="path398" d="m2530.2 74.542c15.956-60.029 59.465 104.22 70.033 136.62 12.865 59.407 50.317 119.43-39.318 150.62-45.032 15.666-156.07 15.698-90.926-15.062 102 3.9134 48.583-135.29 74.832-199.62 3.6363-26.308-19.757-47.457-14.626-72.559z" style="clip-rule:evenodd;fill-rule:evenodd;fill:#00be00;stroke-linejoin:round;stroke-miterlimit:2;stroke-width:.77616"/></g><path id="path402" d="m2538.4 55.435s12.278-4.2302 14.564-2.2135c4.3881 3.8709 7.389 16.141 9.4322 23.417 14.176 50.483 58.338 195.76 73.813 250.7 5.5418 19.674 9.0194 31.078-2.0811 35.33-34.005 13.028-121.42 37.01-151.27 47.474-8.1267 2.8493-11.087-21.842-11.087-21.842l-76.668-262.44c-4.728-12.664-1.6958-22.148 13.101-26.812z" style="clip-rule:evenodd;fill-rule:nonzero;fill:#323232;stroke-linejoin:round;stroke-miterlimit:2;stroke-width:.79512"/><path id="path404" d="m2598.5 249.73c-.3676-7.5157 14.792 36.826 16.567 48.453 1.5648 10.258 9.1256 21.098 9.0493 31.371-.026 3.7783-1.5111 8.0077-2.7519 11.607-3.075 8.9201-6.797 7.0289-14.794 11.048-5.9669 2.9988-36.724 11.485-40.861 10.91-3.111-.43243-5.3836-7.7664-4.2707-9.9344 1.0495-2.0449 46.272-7.415 47.338-16.764.8024-7.0359 2.1737-10.128.7475-16.735-3.061-14.18-10.315-55.446-11.024-69.955z" style="clip-rule:evenodd;fill-rule:nonzero;fill:#606060;stroke-linejoin:round;stroke-miterlimit:2;stroke-width:.79512"/><path id="path406" d="m2579.5 200.88-135.83 42.3c-1.2876.40055-2.0131 1.7552-1.6195 3.0233.3944 1.267 1.7596 1.9706 3.0471 1.5701l135.83-42.3c1.2871-.40129 2.0131-1.756 1.6187-3.023-.3936-1.268-1.7591-1.9716-3.0462-1.5703z" style="clip-rule:evenodd;fill-rule:nonzero;fill:#ffffff;stroke-linejoin:round;stroke-miterlimit:2;stroke-width:.79512"/><ellipse id="ellipse408" transform="rotate(-18.287)" cx="2281.3" cy="882.11" rx="16.12" ry="15.655" style="clip-rule:evenodd;fill-rule:evenodd;fill:#ffffff;stroke-linejoin:round;stroke-miterlimit:2;stroke-width:.71092"/><ellipse id="ellipse410" transform="rotate(-18.287)" cx="2355.3" cy="882.11" rx="16.12" ry="15.655" style="clip-rule:evenodd;fill-rule:evenodd;fill:#ffffff;stroke-linejoin:round;stroke-miterlimit:2;stroke-width:.71092"/><ellipse id="ellipse412" transform="rotate(-18.287)" cx="2355.3" cy="1036" rx="16.12" ry="15.655" style="clip-rule:evenodd;fill-rule:evenodd;fill:#ffffff;stroke-linejoin:round;stroke-miterlimit:2;stroke-width:.71092"/><ellipse id="ellipse414" transform="rotate(-18.287)" cx="2281.3" cy="925.26" rx="16.12" ry="15.655" style="clip-rule:evenodd;fill-rule:evenodd;fill:#ffffff;stroke-linejoin:round;stroke-miterlimit:2;stroke-width:.71092"/><ellipse id="ellipse416" transform="rotate(-18.287)" cx="2355.3" cy="925.26" rx="16.12" ry="15.655" style="clip-rule:evenodd;fill-rule:evenodd;fill:#ffffff;stroke-linejoin:round;stroke-miterlimit:2;stroke-width:.71092"/><ellipse id="ellipse418" transform="rotate(-18.287)" cx="2281.3" cy="968.4" rx="16.12" ry="15.655" style="clip-rule:evenodd;fill-rule:evenodd;fill:#ffffff;stroke-linejoin:round;stroke-miterlimit:2;stroke-width:.71092"/><ellipse id="ellipse420" transform="rotate(-18.287)" cx="2271.1" cy="1122.3" rx="16.12" ry="15.655" style="clip-rule:evenodd;fill-rule:evenodd;fill:#ffffff;stroke-linejoin:round;stroke-miterlimit:2;stroke-width:.71092"/><ellipse id="ellipse422" transform="rotate(-18.287)" cx="2355.3" cy="968.4" rx="16.12" ry="15.655" style="clip-rule:evenodd;fill-rule:evenodd;fill:#ffffff;stroke-linejoin:round;stroke-miterlimit:2;stroke-width:.71092"/><ellipse id="ellipse424" transform="rotate(-18.287)" cx="2315.3" cy="1079.5" rx="16.12" ry="15.655" style="clip-rule:evenodd;fill-rule:evenodd;fill:#ffffff;stroke-linejoin:round;stroke-miterlimit:2;stroke-width:.71092"/></g></g><g id="g366" class="csvg-group"><g id="g334" class="csvg-button"><path id="path310" d="m2305 229.89s20.768-31.759 20.854-14.686c.031 6.1399-.4961 12.276-1.1808 18.373-.573 5.1049-1.5537 10.158-2.5846 15.189-2.8486 13.898-5.9461 27.744-9.0506 41.587-7.1265 31.778-9.1682 42.412-19.672 73.282-12.202 35.863-14.063 35.049-27.794 70.465-3.8968 10.052-7.3354 20.275-10.898 30.449-3.5196 10.052-3.892 26.666-15.149 29.976-51.882 15.257-230.95-53.7-160.11-72.216 2.4618-.64302 5.1982-8.4575 7.5661-9.7402 4.8429-2.6237 8.1679 9.3568 9.202 10.568 2.2477 2.6337 11.705 8.4613 14.575 10.232 6.6134 4.0787 14.525 10.124 22.96 9.9201 3.4118-.0824 6.8242-.54988 10.143-1.3118 8.5707-1.9682 18.56-4.8745 24.676-11.709 9.264-10.354 47.09-68.299 56.457-78.545 8.1964-8.9651 9.5427-7.3464 18.646-15.458 19.577-17.446 35.821-38.819 45.001-63.418 5.2475-14.061 2.0228-33.596 16.357-42.957z" style="clip-rule:evenodd;fill-rule:nonzero;fill:#e0e0e0;stroke-linejoin:round;stroke-miterlimit:2;stroke-width:.79512"/><path id="path312" d="m2317.5 175.7s12.539 3.3772 13.303 6.3287c1.465 5.6651-2.9265 17.509-5.3118 24.68-16.551 49.755-61.388 194.82-79.361 248.99-6.4357 19.4-9.9468 30.794-21.523 28.095-35.465-8.2672-121.3-37.393-151.89-45.458-8.3276-2.1946 3.0585-24.303 3.0585-24.303l83.576-260.32c3.1815-13.138 11.008-19.294 25.876-14.864z" style="clip-rule:evenodd;fill-rule:nonzero;fill:#323232;stroke-linejoin:round;stroke-miterlimit:2;stroke-width:.79512"/><path id="path314" d="m2258.3 370.27c3.9076-6.4306-8.3865 38.789-13.433 49.414-4.4526 9.3726-4.2657 22.588-10.086 31.053-2.1404 3.1137-5.7391 5.7853-8.7838 8.071-7.5458 5.6643-9.5686 2.0122-18.444.85944-6.6227-.86047-36.852-11.069-39.955-13.864-2.3341-2.1015-.1062-9.4492 2.0304-10.621 2.0153-1.1054 42.478 19.79 48.601 12.644 4.6075-5.3775 7.4761-7.1703 9.9975-13.441 5.4114-13.459 22.53-51.702 30.074-64.115z" style="clip-rule:evenodd;fill-rule:nonzero;fill:#606060;stroke-linejoin:round;stroke-miterlimit:2;stroke-width:.79512"/><path id="path316" d="m2270 319.2-136.2-41.086c-1.2908-.38977-2.651.32551-3.0355 1.5964-.3836 1.2703.3529 2.6182 1.6437 3.008l136.2 41.086c1.291.38902 2.6512-.32629 3.0347-1.5966.3846-1.2709-.3519-2.6187-1.6429-3.0077z" style="clip-rule:evenodd;fill-rule:nonzero;fill:#ffffff;stroke-linejoin:round;stroke-miterlimit:2;stroke-width:.79512"/><ellipse id="ellipse318" transform="rotate(15.798)" cx="2166.3" cy="-424" rx="16.12" ry="15.655" style="clip-rule:evenodd;fill-rule:evenodd;fill:#ffffff;stroke-linejoin:round;stroke-miterlimit:2;stroke-width:.71092"/><ellipse id="ellipse320" transform="rotate(15.798)" cx="2240.3" cy="-424" rx="16.12" ry="15.655" style="clip-rule:evenodd;fill-rule:evenodd;fill:#ffffff;stroke-linejoin:round;stroke-miterlimit:2;stroke-width:.71092"/><ellipse id="ellipse322" transform="rotate(15.798)" cx="2240.3" cy="-274.94" rx="16.12" ry="15.655" style="clip-rule:evenodd;fill-rule:evenodd;fill:#ffffff;stroke-linejoin:round;stroke-miterlimit:2;stroke-width:.71092"/><ellipse id="ellipse324" transform="rotate(15.798)" cx="2202.9" cy="-385.72" rx="16.12" ry="15.655" style="clip-rule:evenodd;fill-rule:evenodd;fill:#ffffff;stroke-linejoin:round;stroke-miterlimit:2;stroke-width:.71092"/><ellipse id="ellipse326" transform="rotate(15.798)" cx="2166.3" cy="-347.45" rx="16.12" ry="15.655" style="clip-rule:evenodd;fill-rule:evenodd;fill:#ffffff;stroke-linejoin:round;stroke-miterlimit:2;stroke-width:.71092"/><ellipse id="ellipse328" transform="rotate(15.798)" cx="2156" cy="-188.64" rx="16.12" ry="15.655" style="clip-rule:evenodd;fill-rule:evenodd;fill:#ffffff;stroke-linejoin:round;stroke-miterlimit:2;stroke-width:.71092"/><ellipse id="ellipse330" transform="rotate(15.798)" cx="2240.3" cy="-347.45" rx="16.12" ry="15.655" style="clip-rule:evenodd;fill-rule:evenodd;fill:#ffffff;stroke-linejoin:round;stroke-miterlimit:2;stroke-width:.71092"/><ellipse id="ellipse332" transform="rotate(15.798)" cx="2199.3" cy="-234.95" rx="16.12" ry="15.655" style="clip-rule:evenodd;fill-rule:evenodd;fill:#ffffff;stroke-linejoin:round;stroke-miterlimit:2;stroke-width:.71092"/></g><g id="g364" class="csvg-button"><g id="g340" transform="translate(28.279,32.765)"><path id="path336" d="m2143.1 74.422c-22.406 3.2028-36.643 23.862-41.084 44.653-26.486 82.511-52.971 165.02-79.454 247.53-10.436 19.204-13.529 47.647 6.6188 61.883 16.235 10.27 36.208 12.159 54.023 18.988 37.771 11.198 74.896 25.337 113.6 32.94 26.308 3.1507 45.621-20.389 51.226-43.697 29.515-91.208 57.95-182.78 87.127-274.09 2.9197-17.153-2.7936-39.873-21.647-45.202-20.907-8.5095-44.132-13.177-66.446-19.935-25.701-7.1715-51.402-14.343-77.103-21.513-6.2593-2.0455-18.342-3.3491-26.845-1.5611z" style="-inkscape-stroke:none;clip-rule:evenodd;color:#000000;fill-rule:evenodd;fill:#00ff00;stroke-linejoin:miter;stroke-miterlimit:2"/><path id="path338" d="m2276.7 197.13c47.057-40.542-9.7482 119.59-19.318 152.31-22.916 56.298-25.887 126.99-117.48 102.13-46.015-12.489-137.68-75.143-66.55-63.761 81.987 60.811 116.48-84.248 174.45-122.53 17.853-19.663 10.482-50.325 28.887-68.148z" style="clip-rule:evenodd;fill-rule:evenodd;fill:#00be00;stroke-linejoin:round;stroke-miterlimit:2;stroke-width:.77616"/></g><path id="path342" d="m2317.5 175.7s12.539 3.3772 13.303 6.3287c1.465 5.6651-2.9265 17.509-5.3118 24.68-16.551 49.755-61.388 194.82-79.361 248.99-6.4357 19.4-9.9468 30.794-21.523 28.095-35.465-8.2672-121.3-37.393-151.89-45.458-8.3276-2.1946 3.0585-24.303 3.0585-24.303l83.576-260.32c3.1815-13.138 11.008-19.294 25.876-14.864z" style="clip-rule:evenodd;fill-rule:nonzero;fill:#323232;stroke-linejoin:round;stroke-miterlimit:2;stroke-width:.79512"/><path id="path344" d="m2258.3 370.27c3.9076-6.4306-8.3865 38.789-13.433 49.414-4.4526 9.3726-4.2657 22.588-10.086 31.053-2.1404 3.1137-5.7391 5.7853-8.7838 8.071-7.5458 5.6643-9.5686 2.0122-18.444.85944-6.6227-.86047-36.852-11.069-39.955-13.864-2.3341-2.1015-.1062-9.4492 2.0304-10.621 2.0153-1.1054 42.478 19.79 48.601 12.644 4.6075-5.3775 7.4761-7.1703 9.9975-13.441 5.4114-13.459 22.53-51.702 30.074-64.115z" style="clip-rule:evenodd;fill-rule:nonzero;fill:#606060;stroke-linejoin:round;stroke-miterlimit:2;stroke-width:.79512"/><path id="path346" d="m2270 319.2-136.2-41.086c-1.2908-.38977-2.651.32551-3.0355 1.5964-.3836 1.2703.3529 2.6182 1.6437 3.008l136.2 41.086c1.291.38902 2.6512-.32629 3.0347-1.5966.3846-1.2709-.3519-2.6187-1.6429-3.0077z" style="clip-rule:evenodd;fill-rule:nonzero;fill:#ffffff;stroke-linejoin:round;stroke-miterlimit:2;stroke-width:.79512"/><ellipse id="ellipse348" transform="rotate(15.798)" cx="2166.3" cy="-424" rx="16.12" ry="15.655" style="clip-rule:evenodd;fill-rule:evenodd;fill:#ffffff;stroke-linejoin:round;stroke-miterlimit:2;stroke-width:.71092"/><ellipse id="ellipse350" transform="rotate(15.798)" cx="2240.3" cy="-424" rx="16.12" ry="15.655" style="clip-rule:evenodd;fill-rule:evenodd;fill:#ffffff;stroke-linejoin:round;stroke-miterlimit:2;stroke-width:.71092"/><ellipse id="ellipse352" transform="rotate(15.798)" cx="2240.3" cy="-274.94" rx="16.12" ry="15.655" style="clip-rule:evenodd;fill-rule:evenodd;fill:#ffffff;stroke-linejoin:round;stroke-miterlimit:2;stroke-width:.71092"/><ellipse id="ellipse354" transform="rotate(15.798)" cx="2202.9" cy="-385.72" rx="16.12" ry="15.655" style="clip-rule:evenodd;fill-rule:evenodd;fill:#ffffff;stroke-linejoin:round;stroke-miterlimit:2;stroke-width:.71092"/><ellipse id="ellipse356" transform="rotate(15.798)" cx="2166.3" cy="-347.45" rx="16.12" ry="15.655" style="clip-rule:evenodd;fill-rule:evenodd;fill:#ffffff;stroke-linejoin:round;stroke-miterlimit:2;stroke-width:.71092"/><ellipse id="ellipse358" transform="rotate(15.798)" cx="2156" cy="-188.64" rx="16.12" ry="15.655" style="clip-rule:evenodd;fill-rule:evenodd;fill:#ffffff;stroke-linejoin:round;stroke-miterlimit:2;stroke-width:.71092"/><ellipse id="ellipse360" transform="rotate(15.798)" cx="2240.3" cy="-347.45" rx="16.12" ry="15.655" style="clip-rule:evenodd;fill-rule:evenodd;fill:#ffffff;stroke-linejoin:round;stroke-miterlimit:2;stroke-width:.71092"/><ellipse id="ellipse362" transform="rotate(15.798)" cx="2199.3" cy="-234.95" rx="16.12" ry="15.655" style="clip-rule:evenodd;fill-rule:evenodd;fill:#ffffff;stroke-linejoin:round;stroke-miterlimit:2;stroke-width:.71092"/></g></g><g id="g150" class="csvg-group"><g id="g118" class="csvg-button"><path id="path94" d="m1912 88.118s5.5631-37.536 12.79-22.068c2.5991 5.5627 4.689 11.356 6.6199 17.18 1.617 4.8758 2.8421 9.8757 4.012 14.875 3.2322 13.814 6.2159 27.685 9.1925 41.556 6.8327 31.842 9.431 42.354 12.817 74.786 3.9343 37.677 1.9033 37.717 4.2618 75.628.6696 10.76 1.8269 21.483 2.8516 32.215 1.0123 10.602 7.63 25.846-1.2069 33.565-40.729 35.577-232.22 47.928-175.64 1.4524 1.9663-1.6146 1.1797-9.8569 2.7929-12.013 3.2996-4.4103 11.335 5.0775 12.781 5.7448 3.1439 1.4507 14.172 2.7835 17.52 3.1896 7.7136.93515 17.43 3.1127 25.004-.60407 3.064-1.5032 5.9672-3.3565 8.6625-5.4381 6.9593-5.3758 14.814-12.198 17.507-20.965 4.0781-13.282 14.169-81.74 18.385-94.967 3.69-11.573 5.5902-10.667 10.46-21.845 10.474-24.04 16.277-50.251 14.315-76.433-1.1214-14.966-12.229-31.357-3.1312-45.859z" style="clip-rule:evenodd;fill-rule:nonzero;fill:#e0e0e0;stroke-linejoin:round;stroke-miterlimit:2;stroke-width:.79512"/><path id="path96" d="m1900.7 33.685s12.801-2.183 14.73.17777c3.7023 4.5313 4.6733 17.126 5.5094 24.637 5.8011 52.114 25.818 202.63 32.178 259.35 2.2778 20.312 3.8597 32.129-7.7835 34.525-35.668 7.3405-125.81 16.828-156.97 22.312-8.4813 1.4936-7.3976-23.351-7.3976-23.351l-33.092-271.4c-2.6114-13.263 1.9187-22.13 17.276-24.333z" style="clip-rule:evenodd;fill-rule:nonzero;fill:#323232;stroke-linejoin:round;stroke-miterlimit:2;stroke-width:.79512"/><path id="path98" d="m1928.4 235.14c.8563-7.4758 8.6242 38.737 8.4894 50.498-.1195 10.376 5.583 22.299 3.8418 32.423-.6401 3.7238-2.7896 7.6567-4.5978 11.007-4.481 8.3032-7.8471 5.8335-16.39 8.5026-6.3745 1.9913-38.101 5.3769-42.089 4.1384-2.9997-.93123-4.0527-8.5366-2.603-10.495 1.3673-1.8476 46.862.18767 49.43-8.8651 1.9328-6.8126 3.7873-9.6417 3.4516-16.392-.7209-14.488-1.1862-56.385.4671-70.816z" style="clip-rule:evenodd;fill-rule:nonzero;fill:#606060;stroke-linejoin:round;stroke-miterlimit:2;stroke-width:.79512"/><path id="path100" d="m1917.7 183.87-140.89 19.712c-1.3353.18643-2.271 1.4055-2.0881 2.7206.1834 1.3142 1.4166 2.2299 2.752 2.0434l140.89-19.712c1.3352-.18721 2.271-1.4063 2.0875-2.7205-.1828-1.3151-1.416-2.2308-2.7513-2.0436z" style="clip-rule:evenodd;fill-rule:nonzero;fill:#ffffff;stroke-linejoin:round;stroke-miterlimit:2;stroke-width:.79512"/><ellipse id="ellipse102" transform="rotate(-8.9536)" cx="1760.8" cy="362.06" rx="16.12" ry="15.656" style="clip-rule:evenodd;fill-rule:evenodd;fill:#ffffff;stroke-linejoin:round;stroke-miterlimit:2;stroke-width:.71092"/><ellipse id="ellipse104" transform="rotate(-8.9536)" cx="1834.8" cy="362.06" rx="16.12" ry="15.656" style="clip-rule:evenodd;fill-rule:evenodd;fill:#ffffff;stroke-linejoin:round;stroke-miterlimit:2;stroke-width:.71092"/><ellipse id="ellipse106" transform="rotate(-8.9536)" cx="1834.8" cy="516" rx="16.12" ry="15.656" style="clip-rule:evenodd;fill-rule:evenodd;fill:#ffffff;stroke-linejoin:round;stroke-miterlimit:2;stroke-width:.71092"/><ellipse id="ellipse108" transform="rotate(-8.9536)" cx="1760.8" cy="405.21" rx="16.12" ry="15.656" style="clip-rule:evenodd;fill-rule:evenodd;fill:#ffffff;stroke-linejoin:round;stroke-miterlimit:2;stroke-width:.71092"/><ellipse id="ellipse110" transform="rotate(-8.9536)" cx="1834.8" cy="405.21" rx="16.12" ry="15.656" style="clip-rule:evenodd;fill-rule:evenodd;fill:#ffffff;stroke-linejoin:round;stroke-miterlimit:2;stroke-width:.71092"/><ellipse id="ellipse112" transform="rotate(-8.9536)" cx="1760.8" cy="448.35" rx="16.12" ry="15.656" style="clip-rule:evenodd;fill-rule:evenodd;fill:#ffffff;stroke-linejoin:round;stroke-miterlimit:2;stroke-width:.71092"/><ellipse id="ellipse114" transform="rotate(-8.9536)" cx="1750.5" cy="602.29" rx="16.12" ry="15.656" style="clip-rule:evenodd;fill-rule:evenodd;fill:#ffffff;stroke-linejoin:round;stroke-miterlimit:2;stroke-width:.71092"/><ellipse id="ellipse116" transform="rotate(-8.9536)" cx="1834.8" cy="448.36" rx="16.12" ry="15.656" style="clip-rule:evenodd;fill-rule:evenodd;fill:#ffffff;stroke-linejoin:round;stroke-miterlimit:2;stroke-width:.71092"/></g><g id="g148" class="csvg-button"><g id="g124" transform="translate(28.279,32.765)"><path id="path120" d="m1711 .15748c-18.985 12.322-23.223 37.052-18.516 57.783 10.64 86.002 21.28 172.01 31.923 258.01-1.3996 21.812 7.7459 48.921 32.011 53.372 19.048 2.4971 37.965-4.1823 57.001-5.4716 38.98-5.7111 78.61-8.482 116.92-17.846 25.196-8.1962 32.83-37.672 28.121-61.177-11.545-95.167-24.224-190.21-36.118-285.32-4.5588-16.792-19.291-35.007-38.638-31.92-22.547 1.064-45.583 6.5885-68.672 9.8332-26.335 4.2925-52.671 8.5856-79.005 12.879-6.5394.77418-18.052 4.6689-25.016 9.8644z" style="-inkscape-stroke:none;clip-rule:evenodd;color:#000000;fill-rule:evenodd;fill:#00ff00;stroke-linejoin:miter;stroke-miterlimit:2"/><path id="path122" d="m1883.8 55.355c25.664-56.564 41.41 112.62 46.474 146.32 2.8631 60.716 29.873 126.11-63.685 142.04-47.003 8.0034-156.51-10.328-87.182-29.892 99.951 20.728 70.288-125.39 106.81-184.5 7.9371-25.345-11.637-50.071-2.4251-73.978z" style="clip-rule:evenodd;fill-rule:evenodd;fill:#00be00;stroke-linejoin:round;stroke-miterlimit:2;stroke-width:.77616"/></g><path id="path126" d="m1900.7 33.685s12.801-2.183 14.73.17777c3.7023 4.5313 4.6733 17.126 5.5094 24.637 5.8011 52.114 25.818 202.63 32.178 259.35 2.2778 20.312 3.8597 32.129-7.7835 34.525-35.668 7.3405-125.81 16.828-156.97 22.312-8.4813 1.4936-7.3976-23.351-7.3976-23.351l-33.092-271.4c-2.6114-13.263 1.9187-22.13 17.276-24.333z" style="clip-rule:evenodd;fill-rule:nonzero;fill:#323232;stroke-linejoin:round;stroke-miterlimit:2;stroke-width:.79512"/><path id="path128" d="m1928.4 235.14c.8563-7.4758 8.6242 38.737 8.4894 50.498-.1195 10.376 5.583 22.299 3.8418 32.423-.6401 3.7238-2.7896 7.6567-4.5978 11.007-4.481 8.3032-7.8471 5.8335-16.39 8.5026-6.3745 1.9913-38.101 5.3769-42.089 4.1384-2.9997-.93123-4.0527-8.5366-2.603-10.495 1.3673-1.8476 46.862.18767 49.43-8.8651 1.9328-6.8126 3.7873-9.6417 3.4516-16.392-.7209-14.488-1.1862-56.385.4671-70.816z" style="clip-rule:evenodd;fill-rule:nonzero;fill:#606060;stroke-linejoin:round;stroke-miterlimit:2;stroke-width:.79512"/><path id="path130" d="m1917.7 183.87-140.89 19.712c-1.3353.18643-2.271 1.4055-2.0881 2.7206.1834 1.3142 1.4166 2.2299 2.752 2.0434l140.89-19.712c1.3352-.18721 2.271-1.4063 2.0875-2.7205-.1828-1.3151-1.416-2.2308-2.7513-2.0436z" style="clip-rule:evenodd;fill-rule:nonzero;fill:#ffffff;stroke-linejoin:round;stroke-miterlimit:2;stroke-width:.79512"/><ellipse id="ellipse132" transform="rotate(-8.9536)" cx="1760.8" cy="362.06" rx="16.12" ry="15.656" style="clip-rule:evenodd;fill-rule:evenodd;fill:#ffffff;stroke-linejoin:round;stroke-miterlimit:2;stroke-width:.71092"/><ellipse id="ellipse134" transform="rotate(-8.9536)" cx="1834.8" cy="362.06" rx="16.12" ry="15.656" style="clip-rule:evenodd;fill-rule:evenodd;fill:#ffffff;stroke-linejoin:round;stroke-miterlimit:2;stroke-width:.71092"/><ellipse id="ellipse136" transform="rotate(-8.9536)" cx="1834.8" cy="516" rx="16.12" ry="15.656" style="clip-rule:evenodd;fill-rule:evenodd;fill:#ffffff;stroke-linejoin:round;stroke-miterlimit:2;stroke-width:.71092"/><ellipse id="ellipse138" transform="rotate(-8.9536)" cx="1760.8" cy="405.21" rx="16.12" ry="15.656" style="clip-rule:evenodd;fill-rule:evenodd;fill:#ffffff;stroke-linejoin:round;stroke-miterlimit:2;stroke-width:.71092"/><ellipse id="ellipse140" transform="rotate(-8.9536)" cx="1834.8" cy="405.21" rx="16.12" ry="15.656" style="clip-rule:evenodd;fill-rule:evenodd;fill:#ffffff;stroke-linejoin:round;stroke-miterlimit:2;stroke-width:.71092"/><ellipse id="ellipse142" transform="rotate(-8.9536)" cx="1760.8" cy="448.35" rx="16.12" ry="15.656" style="clip-rule:evenodd;fill-rule:evenodd;fill:#ffffff;stroke-linejoin:round;stroke-miterlimit:2;stroke-width:.71092"/><ellipse id="ellipse144" transform="rotate(-8.9536)" cx="1750.5" cy="602.29" rx="16.12" ry="15.656" style="clip-rule:evenodd;fill-rule:evenodd;fill:#ffffff;stroke-linejoin:round;stroke-miterlimit:2;stroke-width:.71092"/><ellipse id="ellipse146" transform="rotate(-8.9536)" cx="1834.8" cy="448.36" rx="16.12" ry="15.656" style="clip-rule:evenodd;fill-rule:evenodd;fill:#ffffff;stroke-linejoin:round;stroke-miterlimit:2;stroke-width:.71092"/></g></g><g id="g38" class="csvg-group"><g id="g16" class="csvg-button"><path id="path2" d="m1669.1 204.72s21.864-31.014 21.354-13.949c-.1833 6.1372-.9245 12.251-1.8217 18.321-.751 5.0817-1.9077 10.098-3.1136 15.089-3.3321 13.79-6.9114 27.519-10.497 41.246-8.232 31.509-10.644 42.066-22.219 72.55-13.446 35.415-15.278 34.536-30.238 69.452-4.2454 9.9098-8.039 20.006-11.955 30.05-3.8684 9.9232-4.8207 26.514-16.186 29.429-52.384 13.435-228.94-61.732-157.49-77.763 2.4827-.55666 5.4904-8.2708 7.9016-9.4701 4.9317-2.453 7.8361 9.6363 8.8273 10.883 2.1543 2.7106 11.402 8.8649 14.209 10.734 6.4669 4.3072 14.163 10.625 22.6 10.716 3.4125.0368 6.8393-.31122 10.183-.95677 8.6343-1.6678 18.719-4.2234 25.07-10.84 9.6201-10.024 49.446-66.613 59.165-76.526 8.5044-8.6734 9.7933-7.0087 19.174-14.798 20.174-16.752 37.155-37.545 47.188-61.808 5.7353-13.869 3.1948-33.505 17.847-42.36z" style="clip-rule:evenodd;fill-rule:nonzero;fill:#e0e0e0;stroke-linejoin:round;stroke-miterlimit:2;stroke-width:.79512"/><path id="path4" d="m1683.5 150.99s12.414 3.813 13.074 6.7894c1.2662 5.7128-3.5361 17.396-6.1704 24.48-18.278 49.147-68.154 192.56-88.008 246.07-7.1093 19.163-11.016 30.428-22.491 27.326-35.154-9.5007-119.92-41.607-150.21-50.734-8.2459-2.484 3.9053-24.181 3.9053-24.181l92.616-257.24c3.6383-13.019 11.675-18.898 26.38-13.951z" style="clip-rule:evenodd;fill-rule:nonzero;fill:#323232;stroke-linejoin:round;stroke-miterlimit:2;stroke-width:.79512"/><path id="path6" d="m1617.5 343.37c4.1297-6.2902-9.736 38.473-15.15 48.914-4.7773 9.2114-5.052 22.425-11.164 30.682-2.2478 3.037-5.9377 5.5814-9.0603 7.7593-7.739 5.3974-9.6331 1.6768-18.463.21472-6.5885-1.0912-36.443-12.349-39.447-15.25-2.2594-2.1818.224-9.4471 2.4-10.544 2.0527-1.0344 41.761 21.262 48.13 14.334 4.7926-5.2133 7.7221-6.9048 10.461-13.084 5.8781-13.262 24.322-50.884 32.294-63.026z" style="clip-rule:evenodd;fill-rule:nonzero;fill:#606060;stroke-linejoin:round;stroke-miterlimit:2;stroke-width:.79512"/><path id="path8" d="m1631 292.75-134.68-45.817c-1.2763-.43462-2.6607.23274-3.0895 1.4894-.4276 1.2562.2614 2.6289 1.5377 3.0635l134.68 45.817c1.2766.43387 2.661-.2335 3.0888-1.4896.4286-1.2567-.2604-2.6294-1.537-3.0632z" style="clip-rule:evenodd;fill-rule:nonzero;fill:#ffffff;stroke-linejoin:round;stroke-miterlimit:2;stroke-width:.79512"/><ellipse id="ellipse10" transform="rotate(17.799)" cx="1611.5" cy="-183.92" rx="16.12" ry="15.655" style="clip-rule:evenodd;fill-rule:evenodd;fill:#ffffff;stroke-linejoin:round;stroke-miterlimit:2;stroke-width:.71092"/><ellipse id="ellipse12" transform="rotate(17.799)" cx="1574.1" cy="-294.71" rx="16.12" ry="15.655" style="clip-rule:evenodd;fill-rule:evenodd;fill:#ffffff;stroke-linejoin:round;stroke-miterlimit:2;stroke-width:.71092"/><ellipse id="ellipse14" transform="rotate(17.799)" cx="1527.3" cy="-97.627" rx="16.12" ry="15.655" style="clip-rule:evenodd;fill-rule:evenodd;fill:#ffffff;stroke-linejoin:round;stroke-miterlimit:2;stroke-width:.71092"/></g><g id="g36" class="csvg-button"><g id="g22" transform="translate(28.279,32.765)"><path id="path18" d="m1509.8 46.497c-22.467 2.7377-37.13 23.098-42.001 43.792-28.19 81.944-56.38 163.89-84.566 245.83-10.832 18.984-14.514 47.357 5.3349 62.007 16.019 10.605 35.948 12.907 53.618 20.104 37.531 11.978 74.355 26.884 112.89 35.287 26.237 3.6952 46.034-19.439 52.12-42.626 31.399-90.577 61.726-181.54 92.788-272.22 3.2745-17.089-1.9668-39.922-20.705-45.641-20.726-8.9409-43.849-14.088-66.019-21.308-25.546-7.7026-51.094-15.405-76.64-23.107-6.2156-2.1748-18.269-3.7285-26.807-2.1171z" style="-inkscape-stroke:none;clip-rule:evenodd;color:#000000;fill-rule:evenodd;fill:#00ff00;stroke-linejoin:miter;stroke-miterlimit:2"/><path id="path20" d="m1640.8 171.95c47.887-39.559-12.224 119.37-22.47 151.87-24.078 55.811-28.514 126.42-119.57 99.672-45.746-13.44-136.1-77.98-65.214-65.126 80.709 62.497 118.2-81.816 176.96-118.89 18.256-19.289 11.522-50.097 30.293-67.535z" style="clip-rule:evenodd;fill-rule:evenodd;fill:#00be00;stroke-linejoin:round;stroke-miterlimit:2;stroke-width:.77616"/></g><path id="path24" d="m1683.5 150.99s12.414 3.813 13.074 6.7894c1.2662 5.7128-3.5361 17.396-6.1704 24.48-18.278 49.147-68.154 192.56-88.008 246.07-7.1093 19.163-11.016 30.428-22.491 27.326-35.154-9.5007-119.92-41.607-150.21-50.734-8.2459-2.484 3.9053-24.181 3.9053-24.181l92.616-257.24c3.6383-13.019 11.675-18.898 26.38-13.951z" style="clip-rule:evenodd;fill-rule:nonzero;fill:#323232;stroke-linejoin:round;stroke-miterlimit:2;stroke-width:.79512"/><path id="path26" d="m1617.5 343.37c4.1297-6.2902-9.736 38.473-15.15 48.914-4.7773 9.2114-5.052 22.425-11.164 30.682-2.2478 3.037-5.9377 5.5814-9.0603 7.7593-7.739 5.3974-9.6331 1.6768-18.463.21472-6.5885-1.0912-36.443-12.349-39.447-15.25-2.2594-2.1818.224-9.4471 2.4-10.544 2.0527-1.0344 41.761 21.262 48.13 14.334 4.7926-5.2133 7.7221-6.9048 10.461-13.084 5.8781-13.262 24.322-50.884 32.294-63.026z" style="clip-rule:evenodd;fill-rule:nonzero;fill:#606060;stroke-linejoin:round;stroke-miterlimit:2;stroke-width:.79512"/><path id="path28" d="m1631 292.75-134.68-45.817c-1.2763-.43462-2.6607.23274-3.0895 1.4894-.4276 1.2562.2614 2.6289 1.5377 3.0635l134.68 45.817c1.2766.43387 2.661-.2335 3.0888-1.4896.4286-1.2567-.2604-2.6294-1.537-3.0632z" style="clip-rule:evenodd;fill-rule:nonzero;fill:#ffffff;stroke-linejoin:round;stroke-miterlimit:2;stroke-width:.79512"/><ellipse id="ellipse30" transform="rotate(17.799)" cx="1611.5" cy="-183.92" rx="16.12" ry="15.655" style="clip-rule:evenodd;fill-rule:evenodd;fill:#ffffff;stroke-linejoin:round;stroke-miterlimit:2;stroke-width:.71092"/><ellipse id="ellipse32" transform="rotate(17.799)" cx="1574.1" cy="-294.71" rx="16.12" ry="15.655" style="clip-rule:evenodd;fill-rule:evenodd;fill:#ffffff;stroke-linejoin:round;stroke-miterlimit:2;stroke-width:.71092"/><ellipse id="ellipse34" transform="rotate(17.799)" cx="1527.3" cy="-97.627" rx="16.12" ry="15.655" style="clip-rule:evenodd;fill-rule:evenodd;fill:#ffffff;stroke-linejoin:round;stroke-miterlimit:2;stroke-width:.71092"/></g></g><g id="g92" class="csvg-group"><g id="g62" class="csvg-button"><path id="path40" d="m1213.5 119.54s.7701-37.938 9.8955-23.508c3.2818 5.1893 6.0878 10.671 8.7399 16.204 2.2207 4.6321 4.0684 9.4368 5.8613 14.248 4.9535 13.294 9.668 26.676 14.375 40.059 10.806 30.722 14.713 40.821 22.174 72.564 8.6689 36.877 6.659 37.173 13.794 74.482 2.0254 10.589 4.5298 21.08 6.9038 31.595 2.3453 10.389 10.838 24.673 3.0485 33.448-35.901 40.443-224.29 76.917-174.04 23.658 1.7462-1.8504-.077-9.9269 1.2508-12.27 2.7152-4.7923 11.886 3.6029 13.405 4.0819 3.3021 1.0414 14.41.96845 17.782.94778 7.7697-.048 17.683.88292 24.727-3.7621 2.849-1.8787 5.4945-4.0844 7.9048-6.4902 6.2234-6.2129 13.153-13.974 14.715-23.011 2.3652-13.691 3.7154-82.876 6.2249-96.53 2.1963-11.947 4.196-11.288 7.6132-22.992 7.3491-25.171 9.7902-51.906 4.5321-77.63-3.0056-14.704-16.097-29.558-8.9069-45.095z" style="clip-rule:evenodd;fill-rule:nonzero;fill:#e0e0e0;stroke-linejoin:round;stroke-miterlimit:2;stroke-width:.79512"/><path id="path42" d="m1195.4 66.986s12.422-3.7848 14.634-1.687c4.2457 4.0266 6.802 16.397 8.5816 23.742 12.347 50.962 51.242 197.73 64.726 253.19 4.8288 19.861 7.8929 31.383-3.3537 35.232-34.453 11.793-122.67 32.608-152.89 41.989-8.2243 2.5545-10.292-22.228-10.292-22.228l-67.156-265.03c-4.2681-12.827-.896-22.195 14.059-26.323z" style="clip-rule:evenodd;fill-rule:nonzero;fill:#323232;stroke-linejoin:round;stroke-miterlimit:2;stroke-width:.79512"/><path id="path44" d="m1248.4 263.32c-.097-7.5241 13.455 37.335 14.809 49.019 1.1941 10.308 8.359 21.413 7.9124 31.676-.1641 3.7749-1.7988 7.948-3.1685 11.5-3.3947 8.8034-7.0462 6.7792-15.183 10.508-6.0715 2.7817-37.115 10.153-41.228 9.4292-3.0932-.54431-5.0999-7.9554-3.9097-10.082 1.1228-2.0058 46.509-5.7417 47.912-15.047 1.0556-7.0023 2.5373-10.043 1.3503-16.697-2.5477-14.281-8.3091-55.782-8.4945-70.307z" style="clip-rule:evenodd;fill-rule:nonzero;fill:#606060;stroke-linejoin:round;stroke-miterlimit:2;stroke-width:.79512"/><path id="path46" d="m1231.2 213.82-137.26 37.375c-1.3011.35386-2.075 1.6815-1.7274 2.9629.3485 1.2804 1.6875 2.0328 2.9886 1.6789l137.26-37.375c1.3009-.35462 2.0748-1.6823 1.7266-2.9627-.3478-1.2814-1.6868-2.0338-2.9877-1.6791z" style="clip-rule:evenodd;fill-rule:nonzero;fill:#ffffff;stroke-linejoin:round;stroke-miterlimit:2;stroke-width:.79512"/><ellipse id="ellipse48" transform="rotate(-16.221)" cx="1017.6" cy="433.64" rx="16.12" ry="15.656" style="clip-rule:evenodd;fill-rule:evenodd;fill:#ffffff;stroke-linejoin:round;stroke-miterlimit:2;stroke-width:.71092"/><ellipse id="ellipse50" transform="rotate(-16.221)" cx="1091.5" cy="436.08" rx="16.12" ry="15.656" style="clip-rule:evenodd;fill-rule:evenodd;fill:#ffffff;stroke-linejoin:round;stroke-miterlimit:2;stroke-width:.71092"/><ellipse id="ellipse52" transform="rotate(-16.221)" cx="1091.5" cy="585.14" rx="16.12" ry="15.656" style="clip-rule:evenodd;fill-rule:evenodd;fill:#ffffff;stroke-linejoin:round;stroke-miterlimit:2;stroke-width:.71092"/><ellipse id="ellipse54" transform="rotate(-16.221)" cx="1051.7" cy="474.35" rx="16.12" ry="15.656" style="clip-rule:evenodd;fill-rule:evenodd;fill:#ffffff;stroke-linejoin:round;stroke-miterlimit:2;stroke-width:.71092"/><ellipse id="ellipse56" transform="rotate(-16.221)" cx="1017.6" cy="517.5" rx="16.12" ry="15.656" style="clip-rule:evenodd;fill-rule:evenodd;fill:#ffffff;stroke-linejoin:round;stroke-miterlimit:2;stroke-width:.71092"/><ellipse id="ellipse58" transform="rotate(-16.221)" cx="1007.3" cy="671.43" rx="16.12" ry="15.656" style="clip-rule:evenodd;fill-rule:evenodd;fill:#ffffff;stroke-linejoin:round;stroke-miterlimit:2;stroke-width:.71092"/><ellipse id="ellipse60" transform="rotate(-16.221)" cx="1091.5" cy="515.06" rx="16.12" ry="15.656" style="clip-rule:evenodd;fill-rule:evenodd;fill:#ffffff;stroke-linejoin:round;stroke-miterlimit:2;stroke-width:.71092"/></g><g id="g90" class="csvg-button"><g id="g68" transform="translate(28.279,32.765)"><path id="path64" d="m1006.7 54.703c-17.207 14.703-18.168 39.775-10.786 59.711 21.816 83.866 43.634 167.73 65.453 251.6 1.4704 21.807 14.089 47.485 38.728 48.718 19.211-.0202 37.09-9.1207 55.792-12.893 37.896-10.769 76.821-18.709 113.58-33.012 23.905-11.427 27.61-41.649 19.862-64.335-23.915-92.834-48.938-185.4-73.192-278.13-6.7197-16.05-23.711-32.178-42.487-26.583-22.214 4.0091-44.327 12.504-66.791 18.746-25.545 7.7061-51.092 15.413-76.637 23.12-6.3815 1.6243-17.284 6.9939-23.507 13.057z" style="-inkscape-stroke:none;clip-rule:evenodd;color:#000000;fill-rule:evenodd;fill:#00ff00;stroke-linejoin:miter;stroke-miterlimit:2"/><path id="path66" d="m1185.2 86.781c18.031-59.439 55.809 106.22 65.246 138.97 10.794 59.818 46.139 121.11-44.524 149.16-45.549 14.093-156.52 10.268-90.348-18.211 101.81 7.4534 53.252-133.52 81.719-196.9 4.5479-26.166-18.097-48.114-12.097-73.023z" style="clip-rule:evenodd;fill-rule:evenodd;fill:#00be00;stroke-linejoin:round;stroke-miterlimit:2;stroke-width:.77616"/></g><path id="path70" d="m1195.4 66.986s12.422-3.7848 14.634-1.687c4.2457 4.0266 6.802 16.397 8.5816 23.742 12.347 50.962 51.242 197.73 64.726 253.19 4.8288 19.861 7.8929 31.383-3.3537 35.232-34.453 11.793-122.67 32.608-152.89 41.989-8.2243 2.5545-10.292-22.228-10.292-22.228l-67.156-265.03c-4.2681-12.827-.896-22.195 14.059-26.323z" style="clip-rule:evenodd;fill-rule:nonzero;fill:#323232;stroke-linejoin:round;stroke-miterlimit:2;stroke-width:.79512"/><path id="path72" d="m1248.4 263.32c-.097-7.5241 13.455 37.335 14.809 49.019 1.1941 10.308 8.359 21.413 7.9124 31.676-.1641 3.7749-1.7988 7.948-3.1685 11.5-3.3947 8.8034-7.0462 6.7792-15.183 10.508-6.0715 2.7817-37.115 10.153-41.228 9.4292-3.0932-.54431-5.0999-7.9554-3.9097-10.082 1.1228-2.0058 46.509-5.7417 47.912-15.047 1.0556-7.0023 2.5373-10.043 1.3503-16.697-2.5477-14.281-8.3091-55.782-8.4945-70.307z" style="clip-rule:evenodd;fill-rule:nonzero;fill:#606060;stroke-linejoin:round;stroke-miterlimit:2;stroke-width:.79512"/><path id="path74" d="m1231.2 213.82-137.26 37.375c-1.3011.35386-2.075 1.6815-1.7274 2.9629.3485 1.2804 1.6875 2.0328 2.9886 1.6789l137.26-37.375c1.3009-.35462 2.0748-1.6823 1.7266-2.9627-.3478-1.2814-1.6868-2.0338-2.9877-1.6791z" style="clip-rule:evenodd;fill-rule:nonzero;fill:#ffffff;stroke-linejoin:round;stroke-miterlimit:2;stroke-width:.79512"/><ellipse id="ellipse76" transform="rotate(-16.221)" cx="1017.6" cy="433.64" rx="16.12" ry="15.656" style="clip-rule:evenodd;fill-rule:evenodd;fill:#ffffff;stroke-linejoin:round;stroke-miterlimit:2;stroke-width:.71092"/><ellipse id="ellipse78" transform="rotate(-16.221)" cx="1091.5" cy="436.08" rx="16.12" ry="15.656" style="clip-rule:evenodd;fill-rule:evenodd;fill:#ffffff;stroke-linejoin:round;stroke-miterlimit:2;stroke-width:.71092"/><ellipse id="ellipse80" transform="rotate(-16.221)" cx="1091.5" cy="585.14" rx="16.12" ry="15.656" style="clip-rule:evenodd;fill-rule:evenodd;fill:#ffffff;stroke-linejoin:round;stroke-miterlimit:2;stroke-width:.71092"/><ellipse id="ellipse82" transform="rotate(-16.221)" cx="1051.7" cy="474.35" rx="16.12" ry="15.656" style="clip-rule:evenodd;fill-rule:evenodd;fill:#ffffff;stroke-linejoin:round;stroke-miterlimit:2;stroke-width:.71092"/><ellipse id="ellipse84" transform="rotate(-16.221)" cx="1017.6" cy="517.5" rx="16.12" ry="15.656" style="clip-rule:evenodd;fill-rule:evenodd;fill:#ffffff;stroke-linejoin:round;stroke-miterlimit:2;stroke-width:.71092"/><ellipse id="ellipse86" transform="rotate(-16.221)" cx="1007.3" cy="671.43" rx="16.12" ry="15.656" style="clip-rule:evenodd;fill-rule:evenodd;fill:#ffffff;stroke-linejoin:round;stroke-miterlimit:2;stroke-width:.71092"/><ellipse id="ellipse88" transform="rotate(-16.221)" cx="1091.5" cy="515.06" rx="16.12" ry="15.656" style="clip-rule:evenodd;fill-rule:evenodd;fill:#ffffff;stroke-linejoin:round;stroke-miterlimit:2;stroke-width:.71092"/></g></g><g id="g196" class="csvg-group"><g id="g170" class="csvg-button"><path id="path152" d="m924.54 199.54s18.448-33.16 19.753-16.137c.4694 6.122.38131 12.28.13364 18.41-.20719 5.1328-.82476 10.243-1.494 15.334-1.8493 14.066-3.9508 28.098-6.0593 42.127-4.8403 32.205-6.1178 42.958-14.392 74.499-9.6106 36.642-11.525 35.963-22.693 72.269-3.1694 10.305-5.8697 20.747-8.697 31.149-2.7931 10.278-1.9787 26.876-12.971 30.981-50.661 18.921-234.2-37.079-164.85-60.604 2.4095-.81706 4.5813-8.8069 6.8515-10.255 4.6434-2.9627 8.8149 8.7499 9.9328 9.8846 2.4299 2.4665 12.279 7.6043 15.268 9.1653 6.8876 3.5963 15.211 9.0616 23.61 8.2561 3.3972-.32567 6.7675-1.0355 10.024-2.0324 8.4084-2.5749 18.165-6.1868 23.778-13.44 8.5014-10.989 42.095-71.485 50.707-82.374 7.5357-9.5273 8.9939-8.0087 17.495-16.75 18.282-18.799 32.959-41.277 40.36-66.468 4.2305-14.399-.38034-33.655 13.249-44.015z" style="clip-rule:evenodd;fill-rule:nonzero;fill:#e0e0e0;stroke-linejoin:round;stroke-miterlimit:2;stroke-width:.79512"/><path id="path154" d="m933.11 144.6s12.748 2.4736 13.72 5.3631c1.8657 5.5461-1.6692 17.674-3.5367 24.997-12.958 50.81-47.327 198.71-61.387 254.02-5.0347 19.809-7.7235 31.425-19.463 29.559-35.964-5.7149-123.66-28.64-154.75-34.501-8.463-1.5946 1.3161-24.459 1.3161-24.459l64.783-265.62c2.2357-13.332 9.6027-20.03 24.75-16.673z" style="clip-rule:evenodd;fill-rule:nonzero;fill:#323232;stroke-linejoin:round;stroke-miterlimit:2;stroke-width:.79512"/><path id="path156" d="m887.99 342.89c3.4387-6.693-5.5966 39.289-9.872 50.246-3.7723 9.6665-2.6427 22.834-7.8438 31.693-1.9127 3.2585-5.3115 6.1802-8.1854 8.6773-7.1222 6.1885-9.4005 2.69-18.336 2.1737-6.6671-.38561-37.548-8.4106-40.843-10.977-2.4782-1.9296-.78037-9.4175 1.2671-10.739 1.9313-1.2464 43.782 16.708 49.379 9.1434 4.212-5.6926 6.9453-7.6856 9.0128-14.121 4.437-13.811 18.782-53.178 25.421-66.098z" style="clip-rule:evenodd;fill-rule:nonzero;fill:#606060;stroke-linejoin:round;stroke-miterlimit:2;stroke-width:.79512"/><path id="path158" d="m896.01 291.12-138.78-31.26c-1.3153-.29665-2.621.5139-2.9138 1.809-.29186 1.2945.53895 2.5863 1.8542 2.883l138.78 31.26c1.3155.29589 2.6212-.51466 2.9131-1.8091.29283-1.2951-.53807-2.5869-1.8534-2.8828z" style="clip-rule:evenodd;fill-rule:nonzero;fill:#ffffff;stroke-linejoin:round;stroke-miterlimit:2;stroke-width:.79512"/><ellipse id="ellipse160" transform="rotate(11.705)" cx="831.55" cy="-7.4187" rx="16.12" ry="15.656" style="clip-rule:evenodd;fill-rule:evenodd;fill:#ffffff;stroke-linejoin:round;stroke-miterlimit:2;stroke-width:.71092"/><ellipse id="ellipse162" transform="rotate(11.705)" cx="905.52" cy="-7.4181" rx="16.12" ry="15.656" style="clip-rule:evenodd;fill-rule:evenodd;fill:#ffffff;stroke-linejoin:round;stroke-miterlimit:2;stroke-width:.71092"/><ellipse id="ellipse164" transform="rotate(11.705)" cx="863.79" cy="181.55" rx="16.12" ry="15.656" style="clip-rule:evenodd;fill-rule:evenodd;fill:#ffffff;stroke-linejoin:round;stroke-miterlimit:2;stroke-width:.71092"/><ellipse id="ellipse166" transform="rotate(11.705)" cx="831.55" cy="66.689" rx="16.12" ry="15.656" style="clip-rule:evenodd;fill-rule:evenodd;fill:#ffffff;stroke-linejoin:round;stroke-miterlimit:2;stroke-width:.71092"/><ellipse id="ellipse168" transform="rotate(11.705)" cx="905.52" cy="66.689" rx="16.12" ry="15.656" style="clip-rule:evenodd;fill-rule:evenodd;fill:#ffffff;stroke-linejoin:round;stroke-miterlimit:2;stroke-width:.71092"/></g><g id="g194" class="csvg-button"><g id="g176" transform="translate(28.279,32.765)"><path id="path172" d="m754.22 53.92c-22.12 4.7941-34.846 26.417-37.792 47.472-20.528 84.191-41.055 168.38-61.58 252.57-9.0382 19.9-10.093 48.491 11.02 61.252 16.927 9.0851 36.983 9.543 55.241 15.083 38.474 8.4731 76.514 19.926 115.66 24.747 26.466 1.2646 44.049-23.594 47.975-47.242 22.929-93.082 44.754-186.45 67.338-279.61 1.6877-17.318-5.633-39.572-24.818-43.541-21.461-6.9952-44.96-9.9926-67.7-15.14-26.147-5.3185-52.295-10.637-78.442-15.954-6.3894-1.5935-18.535-2.0311-26.888.35935z" style="-inkscape-stroke:none;clip-rule:evenodd;color:#000000;fill-rule:evenodd;fill:#00ff00;stroke-linejoin:miter;stroke-miterlimit:2"/><path id="path174" d="m896.26 166.78c44.043-43.798-1.1858 119.98-8.3954 153.3-18.839 57.791-16.756 128.51-109.89 110.25-46.789-9.1727-142.7-65.122-70.932-58.847 86.119 54.803 110.16-92.348 165.26-134.67 16.404-20.887 6.8622-50.945 23.948-70.037z" style="clip-rule:evenodd;fill-rule:evenodd;fill:#00be00;stroke-linejoin:round;stroke-miterlimit:2;stroke-width:.77616"/></g><path id="path178" d="m933.11 144.6s12.748 2.4736 13.72 5.3631c1.8657 5.5461-1.6692 17.674-3.5367 24.997-12.958 50.81-47.327 198.71-61.387 254.02-5.0347 19.809-7.7235 31.425-19.463 29.559-35.964-5.7149-123.66-28.64-154.75-34.501-8.463-1.5946 1.3161-24.459 1.3161-24.459l64.783-265.62c2.2357-13.332 9.6027-20.03 24.75-16.673z" style="clip-rule:evenodd;fill-rule:nonzero;fill:#323232;stroke-linejoin:round;stroke-miterlimit:2;stroke-width:.79512"/><path id="path180" d="m887.99 342.89c3.4387-6.693-5.5966 39.289-9.872 50.246-3.7723 9.6665-2.6427 22.834-7.8438 31.693-1.9127 3.2585-5.3115 6.1802-8.1854 8.6773-7.1222 6.1885-9.4005 2.69-18.336 2.1737-6.6671-.38561-37.548-8.4106-40.843-10.977-2.4782-1.9296-.78037-9.4175 1.2671-10.739 1.9313-1.2464 43.782 16.708 49.379 9.1434 4.212-5.6926 6.9453-7.6856 9.0128-14.121 4.437-13.811 18.782-53.178 25.421-66.098z" style="clip-rule:evenodd;fill-rule:nonzero;fill:#606060;stroke-linejoin:round;stroke-miterlimit:2;stroke-width:.79512"/><path id="path182" d="m896.01 291.12-138.78-31.26c-1.3153-.29665-2.621.5139-2.9138 1.809-.29186 1.2945.53895 2.5863 1.8542 2.883l138.78 31.26c1.3155.29589 2.6212-.51466 2.9131-1.8091.29283-1.2951-.53807-2.5869-1.8534-2.8828z" style="clip-rule:evenodd;fill-rule:nonzero;fill:#ffffff;stroke-linejoin:round;stroke-miterlimit:2;stroke-width:.79512"/><ellipse id="ellipse184" transform="rotate(11.705)" cx="831.55" cy="-7.4187" rx="16.12" ry="15.656" style="clip-rule:evenodd;fill-rule:evenodd;fill:#ffffff;stroke-linejoin:round;stroke-miterlimit:2;stroke-width:.71092"/><ellipse id="ellipse186" transform="rotate(11.705)" cx="905.52" cy="-7.4181" rx="16.12" ry="15.656" style="clip-rule:evenodd;fill-rule:evenodd;fill:#ffffff;stroke-linejoin:round;stroke-miterlimit:2;stroke-width:.71092"/><ellipse id="ellipse188" transform="rotate(11.705)" cx="863.79" cy="181.55" rx="16.12" ry="15.656" style="clip-rule:evenodd;fill-rule:evenodd;fill:#ffffff;stroke-linejoin:round;stroke-miterlimit:2;stroke-width:.71092"/><ellipse id="ellipse190" transform="rotate(11.705)" cx="831.55" cy="66.689" rx="16.12" ry="15.656" style="clip-rule:evenodd;fill-rule:evenodd;fill:#ffffff;stroke-linejoin:round;stroke-miterlimit:2;stroke-width:.71092"/><ellipse id="ellipse192" transform="rotate(11.705)" cx="905.52" cy="66.689" rx="16.12" ry="15.656" style="clip-rule:evenodd;fill-rule:evenodd;fill:#ffffff;stroke-linejoin:round;stroke-miterlimit:2;stroke-width:.71092"/></g></g><g id="g246" class="csvg-group"><g id="g218" class="csvg-button"><path id="path198" d="m513.95 130.26s2.0858-37.889 10.705-23.151c3.0998 5.3 5.714 10.876 8.1726 16.498 2.0587 4.7064 3.7386 9.5723 5.3635 14.443 4.4894 13.458 8.7368 26.995 12.977 40.534 9.7335 31.078 13.288 41.307 19.643 73.29 7.3844 37.155 5.3656 37.382 11.202 74.915 1.6569 10.653 3.7958 21.224 5.8034 31.816 1.9837 10.464 9.9757 25.034 1.8866 33.533-37.283 39.173-226.82 69.09-174.76 17.606 1.8095-1.7887.26776-9.9236 1.6758-12.219 2.8798-4.6952 11.754 4.013 13.256 4.5444 3.264 1.1553 14.368 1.4678 17.739 1.5641 7.7669.22155 17.642 1.4958 24.843-2.9021 2.9126-1.7788 5.633-3.8913 8.1253-6.2121 6.4352-5.9933 13.629-13.509 15.504-22.487 2.8387-13.601 6.5881-82.697 9.5697-96.256 2.6095-11.864 4.585-11.136 8.4063-22.714 8.2178-24.901 11.585-51.535 7.2223-77.426-2.4937-14.799-15.062-30.099-7.3373-45.377z" style="clip-rule:evenodd;fill-rule:nonzero;fill:#e0e0e0;stroke-linejoin:round;stroke-miterlimit:2;stroke-width:.79512"/><path id="path200" d="m497.63 77.104s12.546-3.3516 14.684-1.1783c4.1035 4.1714 6.2292 16.623 7.7528 24.026 10.571 51.359 44.352 199.39 55.904 255.29 4.1369 20.016 6.7994 31.638-4.574 35.095-34.841 10.591-123.73 28.333-154.25 36.66-8.308 2.2676-9.5147-22.571-9.5147-22.571l-57.922-267.2c-3.8207-12.967-.12553-22.213 14.964-25.819z" style="clip-rule:evenodd;fill-rule:nonzero;fill:#323232;stroke-linejoin:round;stroke-miterlimit:2;stroke-width:.79512"/><path id="path202" d="m543.78 275.16c.16475-7.5229 12.152 37.779 13.1 49.503.83568 10.343 7.611 21.69 6.8087 31.932-.29478 3.7669-2.0734 7.8809-3.5656 11.383-3.698 8.6803-7.277 6.5308-15.538 9.9746-6.1643 2.5694-37.445 8.8597-41.53 7.9933-3.0725-.6513-4.8209-8.1276-3.5575-10.211 1.1915-1.9656 46.68-4.1248 48.405-13.375 1.2979-6.9615 2.8842-9.9493 1.9287-16.64-2.0507-14.361-6.369-56.037-6.0504-70.559z" style="clip-rule:evenodd;fill-rule:nonzero;fill:#606060;stroke-linejoin:round;stroke-miterlimit:2;stroke-width:.79512"/><path id="path204" d="m528.36 225.09-138.48 32.591c-1.3125.3085-2.1322 1.6085-1.8291 2.9012.30366 1.2918 1.6159 2.0901 2.9284 1.7816l138.48-32.591c1.3124-.30927 2.132-1.6093 1.8283-2.901-.30307-1.2927-1.6153-2.091-2.9276-1.7818z" style="clip-rule:evenodd;fill-rule:nonzero;fill:#ffffff;stroke-linejoin:round;stroke-miterlimit:2;stroke-width:.79512"/><ellipse id="ellipse206" transform="matrix(.9693 -.24586 .24586 .96931 0 0)" cx="341.62" cy="383.99" rx="16.12" ry="15.656" style="clip-rule:evenodd;fill-rule:evenodd;fill:#ffffff;stroke-linejoin:round;stroke-miterlimit:2;stroke-width:.71092"/><ellipse id="ellipse208" transform="matrix(.9693 -.24586 .24586 .96931 0 0)" cx="425.88" cy="383.99" rx="16.12" ry="15.656" style="clip-rule:evenodd;fill-rule:evenodd;fill:#ffffff;stroke-linejoin:round;stroke-miterlimit:2;stroke-width:.71092"/><ellipse id="ellipse210" transform="matrix(.9693 -.24586 .24586 .96931 0 0)" cx="386.03" cy="273.21" rx="16.12" ry="15.656" style="clip-rule:evenodd;fill-rule:evenodd;fill:#ffffff;stroke-linejoin:round;stroke-miterlimit:2;stroke-width:.71092"/><ellipse id="ellipse212" transform="matrix(.9693 -.24586 .24586 .96931 0 0)" cx="384.15" cy="426.34" rx="16.12" ry="15.656" style="clip-rule:evenodd;fill-rule:evenodd;fill:#ffffff;stroke-linejoin:round;stroke-miterlimit:2;stroke-width:.71092"/><ellipse id="ellipse214" transform="matrix(.9693 -.24586 .24586 .96931 0 0)" cx="341.62" cy="470.29" rx="16.12" ry="15.656" style="clip-rule:evenodd;fill-rule:evenodd;fill:#ffffff;stroke-linejoin:round;stroke-miterlimit:2;stroke-width:.71092"/><ellipse id="ellipse216" transform="matrix(.9693 -.24586 .24586 .96931 0 0)" cx="425.88" cy="470.29" rx="16.12" ry="15.656" style="clip-rule:evenodd;fill-rule:evenodd;fill:#ffffff;stroke-linejoin:round;stroke-miterlimit:2;stroke-width:.71092"/></g><g id="g244" class="csvg-button"><g id="g224" transform="translate(28.279,32.765)"><path id="path220" d="m310.16 51.626c-18.299 13.32-21.208 38.241-15.399 58.691 15.225 85.309 30.452 170.62 45.68 255.93-.23064 21.855 10.352 48.437 34.82 51.583 19.154 1.4745 37.687-6.2073 56.626-8.5132 38.619-7.7883 78.044-12.675 115.8-24.075 24.722-9.5324 30.767-39.375 24.807-62.594-16.62-94.413-34.365-188.64-51.33-282.98-5.4506-16.524-21.136-33.925-40.29-29.808-22.458 2.2687-45.165 9.0177-68.047 13.493-26.068 5.6952-52.136 11.391-78.203 17.087-6.4886 1.1229-17.776 5.6279-24.452 11.189z" style="-inkscape-stroke:none;clip-rule:evenodd;color:#000000;fill-rule:evenodd;fill:#00ff00;stroke-linejoin:miter;stroke-miterlimit:2"/><path id="path222" d="m485.68 97.499c22.601-57.856 47.376 110.24 54.236 143.63 6.1072 60.476 36.576 124.33-55.995 145.24-46.508 10.506-156.84-1.9403-88.657-25.185 100.92 15.352 63.48-128.98 96.791-189.95 6.5698-25.733-14.299-49.376-6.3794-73.743z" style="clip-rule:evenodd;fill-rule:evenodd;fill:#00be00;stroke-linejoin:round;stroke-miterlimit:2;stroke-width:.77616"/></g><path id="path226" d="m497.63 77.104s12.546-3.3516 14.684-1.1783c4.1035 4.1714 6.2292 16.623 7.7528 24.026 10.571 51.359 44.352 199.39 55.904 255.29 4.1369 20.016 6.7994 31.638-4.574 35.095-34.841 10.591-123.73 28.333-154.25 36.66-8.308 2.2676-9.5147-22.571-9.5147-22.571l-57.922-267.2c-3.8207-12.967-.12553-22.213 14.964-25.819z" style="clip-rule:evenodd;fill-rule:nonzero;fill:#323232;stroke-linejoin:round;stroke-miterlimit:2;stroke-width:.79512"/><path id="path228" d="m543.78 275.16c.16475-7.5229 12.152 37.779 13.1 49.503.83568 10.343 7.611 21.69 6.8087 31.932-.29478 3.7669-2.0734 7.8809-3.5656 11.383-3.698 8.6803-7.277 6.5308-15.538 9.9746-6.1643 2.5694-37.445 8.8597-41.53 7.9933-3.0725-.6513-4.8209-8.1276-3.5575-10.211 1.1915-1.9656 46.68-4.1248 48.405-13.375 1.2979-6.9615 2.8842-9.9493 1.9287-16.64-2.0507-14.361-6.369-56.037-6.0504-70.559z" style="clip-rule:evenodd;fill-rule:nonzero;fill:#606060;stroke-linejoin:round;stroke-miterlimit:2;stroke-width:.79512"/><path id="path230" d="m528.36 225.09-138.48 32.591c-1.3125.3085-2.1322 1.6085-1.8291 2.9012.30366 1.2918 1.6159 2.0901 2.9284 1.7816l138.48-32.591c1.3124-.30927 2.132-1.6093 1.8283-2.901-.30307-1.2927-1.6153-2.091-2.9276-1.7818z" style="clip-rule:evenodd;fill-rule:nonzero;fill:#ffffff;stroke-linejoin:round;stroke-miterlimit:2;stroke-width:.79512"/><ellipse id="ellipse232" transform="matrix(.9693 -.24586 .24586 .96931 0 0)" cx="341.62" cy="383.99" rx="16.12" ry="15.656" style="clip-rule:evenodd;fill-rule:evenodd;fill:#ffffff;stroke-linejoin:round;stroke-miterlimit:2;stroke-width:.71092"/><ellipse id="ellipse234" transform="matrix(.9693 -.24586 .24586 .96931 0 0)" cx="425.88" cy="383.99" rx="16.12" ry="15.656" style="clip-rule:evenodd;fill-rule:evenodd;fill:#ffffff;stroke-linejoin:round;stroke-miterlimit:2;stroke-width:.71092"/><ellipse id="ellipse236" transform="matrix(.9693 -.24586 .24586 .96931 0 0)" cx="386.03" cy="273.21" rx="16.12" ry="15.656" style="clip-rule:evenodd;fill-rule:evenodd;fill:#ffffff;stroke-linejoin:round;stroke-miterlimit:2;stroke-width:.71092"/><ellipse id="ellipse238" transform="matrix(.9693 -.24586 .24586 .96931 0 0)" cx="384.15" cy="426.34" rx="16.12" ry="15.656" style="clip-rule:evenodd;fill-rule:evenodd;fill:#ffffff;stroke-linejoin:round;stroke-miterlimit:2;stroke-width:.71092"/><ellipse id="ellipse240" transform="matrix(.9693 -.24586 .24586 .96931 0 0)" cx="341.62" cy="470.29" rx="16.12" ry="15.656" style="clip-rule:evenodd;fill-rule:evenodd;fill:#ffffff;stroke-linejoin:round;stroke-miterlimit:2;stroke-width:.71092"/><ellipse id="ellipse242" transform="matrix(.9693 -.24586 .24586 .96931 0 0)" cx="425.88" cy="470.29" rx="16.12" ry="15.656" style="clip-rule:evenodd;fill-rule:evenodd;fill:#ffffff;stroke-linejoin:round;stroke-miterlimit:2;stroke-width:.71092"/></g></g><g id="g308" class="csvg-group"><g id="g274" class="csvg-button"><path id="path248" d="m193.45 144.99s-1.444-37.919 8.5075-24.046c3.5789 4.989 6.6999 10.298 9.6702 15.667 2.4871 4.4947 4.6119 9.1835 6.6824 13.882 5.7205 12.983 11.207 26.067 16.687 39.153 12.579 30.04 17.069 39.894 26.368 71.147 10.805 36.308 8.8159 36.721 18.115 73.55 2.6396 10.453 5.7516 20.78 8.7348 31.139 2.9474 10.235 12.259 23.999 4.9943 33.213-33.481 42.468-219.42 89.868-172.36 33.769 1.6354-1.9491-.65547-9.9056.53316-12.322 2.4311-4.9425 12.076 2.9035 13.621 3.293 3.3572.84699 14.442.12624 17.807-.0909 7.7538-.50118 17.705-.1499 24.465-5.1979 2.7347-2.0417 5.247-4.3979 7.5129-6.9402 5.8504-6.5654 12.315-14.717 13.347-23.83 1.5626-13.805-1.1247-82.951.58405-96.728 1.4958-12.055 3.5305-11.514 6.2592-23.397 5.8685-25.557 6.746-52.389-.003-77.762-3.8581-14.504-17.794-28.569-11.522-44.499z" style="clip-rule:evenodd;fill-rule:nonzero;fill:#e0e0e0;stroke-linejoin:round;stroke-miterlimit:2;stroke-width:.79512"/><path id="path250" d="m172.26 93.584s12.18-4.5029 14.511-2.5377c4.4733 3.7721 7.7469 15.973 9.9518 23.201 15.298 50.155 62.688 194.41 79.384 248.99 5.979 19.545 9.7099 30.869-1.293 35.368-33.707 13.783-120.56 39.708-150.18 50.835-8.0613 3.0298-11.571-21.59-11.571-21.59l-82.5-260.66c-5.0091-12.556-2.1891-22.105 12.5-27.098z" style="clip-rule:evenodd;fill-rule:nonzero;fill:#323232;stroke-linejoin:round;stroke-miterlimit:2;stroke-width:.79512"/><path id="path252" d="m236.61 286.49c-.53494-7.5057 15.61 36.487 17.643 48.072 1.7932 10.22 9.5936 20.889 9.7464 31.161.0566 3.778-1.3321 8.0394-2.4924 11.666-2.8754 8.9864-6.6387 7.1787-14.544 11.375-5.8988 3.1311-36.459 12.301-40.608 11.818-3.1197-.36299-5.5552-7.6445-4.491-9.8367 1.0038-2.0678 46.095-8.4446 46.952-17.815.64532-7.052 1.9472-10.174.37411-16.748-3.3763-14.108-11.549-55.203-12.581-69.692z" style="clip-rule:evenodd;fill-rule:nonzero;fill:#606060;stroke-linejoin:round;stroke-miterlimit:2;stroke-width:.79512"/><path id="path254" d="m216.6 238.08-134.85 45.318c-1.2782.42914-1.9735 1.7997-1.5516 3.0586.42239 1.258 1.8031 1.9309 3.0813 1.5018l134.85-45.318c1.278-.42989 1.9732-1.8004 1.5508-3.0584-.4219-1.259-1.8026-1.9319-3.0805-1.502z" style="clip-rule:evenodd;fill-rule:nonzero;fill:#ffffff;stroke-linejoin:round;stroke-miterlimit:2;stroke-width:.79512"/><ellipse id="ellipse256" transform="rotate(-19.565)" cx="19.483" cy="186.15" rx="16.12" ry="15.656" style="clip-rule:evenodd;fill-rule:evenodd;fill:#ffffff;stroke-linejoin:round;stroke-miterlimit:2;stroke-width:.71092"/><ellipse id="ellipse258" transform="rotate(-19.565)" cx="9.1982" cy="332.77" rx="16.12" ry="15.656" style="clip-rule:evenodd;fill-rule:evenodd;fill:#ffffff;stroke-linejoin:round;stroke-miterlimit:2;stroke-width:.71092"/><ellipse id="ellipse260" transform="rotate(-19.565)" cx="93.453" cy="186.15" rx="16.12" ry="15.656" style="clip-rule:evenodd;fill-rule:evenodd;fill:#ffffff;stroke-linejoin:round;stroke-miterlimit:2;stroke-width:.71092"/><ellipse id="ellipse262" transform="rotate(-19.565)" cx="93.453" cy="332.77" rx="16.12" ry="15.656" style="clip-rule:evenodd;fill-rule:evenodd;fill:#ffffff;stroke-linejoin:round;stroke-miterlimit:2;stroke-width:.71092"/><ellipse id="ellipse264" transform="rotate(-19.565)" cx="59.331" cy="221.98" rx="16.12" ry="15.656" style="clip-rule:evenodd;fill-rule:evenodd;fill:#ffffff;stroke-linejoin:round;stroke-miterlimit:2;stroke-width:.71092"/><ellipse id="ellipse266" transform="rotate(-19.565)" cx="19.483" cy="257.82" rx="16.12" ry="15.656" style="clip-rule:evenodd;fill-rule:evenodd;fill:#ffffff;stroke-linejoin:round;stroke-miterlimit:2;stroke-width:.71092"/><ellipse id="ellipse268" transform="rotate(-19.565)" cx="9.1978" cy="419.07" rx="16.12" ry="15.656" style="clip-rule:evenodd;fill-rule:evenodd;fill:#ffffff;stroke-linejoin:round;stroke-miterlimit:2;stroke-width:.71092"/><ellipse id="ellipse270" transform="rotate(-19.565)" cx="93.453" cy="257.82" rx="16.12" ry="15.656" style="clip-rule:evenodd;fill-rule:evenodd;fill:#ffffff;stroke-linejoin:round;stroke-miterlimit:2;stroke-width:.71092"/><ellipse id="ellipse272" transform="rotate(-19.565)" cx="93.453" cy="419.07" rx="16.12" ry="15.656" style="clip-rule:evenodd;fill-rule:evenodd;fill:#ffffff;stroke-linejoin:round;stroke-miterlimit:2;stroke-width:.71092"/></g><g id="g306" class="csvg-button"><g id="g280" transform="translate(28.279,32.765)"><path id="path276" d="m-14.531 87.359c-16.602 15.383-16.554 40.473-8.3759 60.097 25.171 82.921 50.344 165.84 75.518 248.76 2.3462 21.73 15.987 46.88 40.656 47.121 19.195-.7927 36.693-10.605 55.229-15.126 37.432-12.284 76.006-21.783 112.16-37.552 23.426-12.379 25.913-42.726 17.259-65.081-27.629-91.797-56.354-183.28-84.317-274.96-7.3596-15.767-24.986-31.198-43.521-24.853-22.034 4.8991-43.788 14.277-65.983 21.417-25.215 8.7271-50.431 17.455-75.645 26.183-6.3111 1.8796-16.989 7.6833-22.963 13.992z" style="-inkscape-stroke:none;clip-rule:evenodd;color:#000000;fill-rule:evenodd;fill:#00ff00;stroke-linejoin:miter;stroke-miterlimit:2"/><path id="path278" d="m165.18 112.23c15.626-60.116 60.035 103.89 70.781 136.24 13.191 59.335 50.971 119.15-38.491 150.83-44.946 15.913-155.98 16.554-91.007-14.563 102.02 3.3537 47.84-135.56 73.735-200.03 3.4919-26.328-20.017-47.348-15.024-72.477z" style="clip-rule:evenodd;fill-rule:evenodd;fill:#00be00;stroke-linejoin:round;stroke-miterlimit:2;stroke-width:.77616"/></g><path id="path282" d="m172.26 93.584s12.18-4.5029 14.511-2.5377c4.4733 3.7721 7.7469 15.973 9.9518 23.201 15.298 50.155 62.688 194.41 79.384 248.99 5.979 19.545 9.7099 30.869-1.293 35.368-33.707 13.783-120.56 39.708-150.18 50.835-8.0613 3.0298-11.571-21.59-11.571-21.59l-82.5-260.66c-5.0091-12.556-2.1891-22.105 12.5-27.098z" style="clip-rule:evenodd;fill-rule:nonzero;fill:#323232;stroke-linejoin:round;stroke-miterlimit:2;stroke-width:.79512"/><path id="path284" d="m236.61 286.49c-.53494-7.5057 15.61 36.487 17.643 48.072 1.7932 10.22 9.5936 20.889 9.7464 31.161.0566 3.778-1.3321 8.0394-2.4924 11.666-2.8754 8.9864-6.6387 7.1787-14.544 11.375-5.8988 3.1311-36.459 12.301-40.608 11.818-3.1197-.36299-5.5552-7.6445-4.491-9.8367 1.0038-2.0678 46.095-8.4446 46.952-17.815.64532-7.052 1.9472-10.174.37411-16.748-3.3763-14.108-11.549-55.203-12.581-69.692z" style="clip-rule:evenodd;fill-rule:nonzero;fill:#606060;stroke-linejoin:round;stroke-miterlimit:2;stroke-width:.79512"/><path id="path286" d="m216.6 238.08-134.85 45.318c-1.2782.42914-1.9735 1.7997-1.5516 3.0586.42239 1.258 1.8031 1.9309 3.0813 1.5018l134.85-45.318c1.278-.42989 1.9732-1.8004 1.5508-3.0584-.4219-1.259-1.8026-1.9319-3.0805-1.502z" style="clip-rule:evenodd;fill-rule:nonzero;fill:#ffffff;stroke-linejoin:round;stroke-miterlimit:2;stroke-width:.79512"/><ellipse id="ellipse288" transform="rotate(-19.565)" cx="19.483" cy="186.15" rx="16.12" ry="15.656" style="clip-rule:evenodd;fill-rule:evenodd;fill:#ffffff;stroke-linejoin:round;stroke-miterlimit:2;stroke-width:.71092"/><ellipse id="ellipse290" transform="rotate(-19.565)" cx="9.1982" cy="332.77" rx="16.12" ry="15.656" style="clip-rule:evenodd;fill-rule:evenodd;fill:#ffffff;stroke-linejoin:round;stroke-miterlimit:2;stroke-width:.71092"/><ellipse id="ellipse292" transform="rotate(-19.565)" cx="93.453" cy="186.15" rx="16.12" ry="15.656" style="clip-rule:evenodd;fill-rule:evenodd;fill:#ffffff;stroke-linejoin:round;stroke-miterlimit:2;stroke-width:.71092"/><ellipse id="ellipse294" transform="rotate(-19.565)" cx="93.453" cy="332.77" rx="16.12" ry="15.656" style="clip-rule:evenodd;fill-rule:evenodd;fill:#ffffff;stroke-linejoin:round;stroke-miterlimit:2;stroke-width:.71092"/><ellipse id="ellipse296" transform="rotate(-19.565)" cx="59.331" cy="221.98" rx="16.12" ry="15.656" style="clip-rule:evenodd;fill-rule:evenodd;fill:#ffffff;stroke-linejoin:round;stroke-miterlimit:2;stroke-width:.71092"/><ellipse id="ellipse298" transform="rotate(-19.565)" cx="19.483" cy="257.82" rx="16.12" ry="15.656" style="clip-rule:evenodd;fill-rule:evenodd;fill:#ffffff;stroke-linejoin:round;stroke-miterlimit:2;stroke-width:.71092"/><ellipse id="ellipse300" transform="rotate(-19.565)" cx="9.1978" cy="419.07" rx="16.12" ry="15.656" style="clip-rule:evenodd;fill-rule:evenodd;fill:#ffffff;stroke-linejoin:round;stroke-miterlimit:2;stroke-width:.71092"/><ellipse id="ellipse302" transform="rotate(-19.565)" cx="93.453" cy="257.82" rx="16.12" ry="15.656" style="clip-rule:evenodd;fill-rule:evenodd;fill:#ffffff;stroke-linejoin:round;stroke-miterlimit:2;stroke-width:.71092"/><ellipse id="ellipse304" transform="rotate(-19.565)" cx="93.453" cy="419.07" rx="16.12" ry="15.656" style="clip-rule:evenodd;fill-rule:evenodd;fill:#ffffff;stroke-linejoin:round;stroke-miterlimit:2;stroke-width:.71092"/></g></g></svg>
