<?xml version="1.0" encoding="UTF-8" standalone="no"?>
<!-- Created with Inkscape (http://www.inkscape.org/) -->

<svg
   width="14.028413mm"
   height="14.028413mm"
   viewBox="0 0 14.028413 14.028413"
   version="1.1"
   id="svg13953"
   inkscape:version="1.1.1 (3bf5ae0d25, 2021-09-20)"
   sodipodi:docname="2023-BR-05-mark.svg"
   xmlns:inkscape="http://www.inkscape.org/namespaces/inkscape"
   xmlns:sodipodi="http://sodipodi.sourceforge.net/DTD/sodipodi-0.dtd"
   xmlns="http://www.w3.org/2000/svg"
   xmlns:svg="http://www.w3.org/2000/svg">
  <sodipodi:namedview
     id="namedview13955"
     pagecolor="#ffffff"
     bordercolor="#666666"
     borderopacity="1.0"
     inkscape:pageshadow="2"
     inkscape:pageopacity="0.0"
     inkscape:pagecheckerboard="0"
     inkscape:document-units="mm"
     showgrid="false"
     inkscape:zoom="1.8116734"
     inkscape:cx="86.936199"
     inkscape:cy="70.928899"
     inkscape:window-width="2048"
     inkscape:window-height="1017"
     inkscape:window-x="-8"
     inkscape:window-y="-8"
     inkscape:window-maximized="1"
     inkscape:current-layer="g2782-3-8" />
  <defs
     id="defs13950" />
  <g
     inkscape:label="Ebene 1"
     inkscape:groupmode="layer"
     id="layer1"
     transform="translate(-37.184683,-80.144347)">
    <g
       transform="matrix(0.05102049,0,0,0.05102049,-19.820933,50.859057)"
       id="g2782-3-8"
       style="clip-rule:evenodd;fill-rule:evenodd;stroke-linecap:round;stroke-linejoin:round;stroke-miterlimit:1.5">
      <circle
         style="clip-rule:evenodd;fill:#e1c44d;fill-opacity:1;fill-rule:evenodd;stroke:none;stroke-width:4.0121;stroke-linecap:round;stroke-linejoin:round;stroke-miterlimit:1.5"
         id="path31-6-4-2"
         cx="1254.7865"
         cy="711.46899"
         r="137.47823" />
      <g
         transform="translate(377.743,-152.961)"
         id="g2752-8-2" />
      <g
         transform="translate(370.411,-158.705)"
         id="g2756-3-6">
        <path
           id="path2754-6-4"
           style="color:#000000;clip-rule:nonzero;fill:#000000;fill-rule:nonzero;stroke-linecap:butt;stroke-linejoin:miter;-inkscape-stroke:none"
           d="m 801.22587,844.70689 c -12.16086,1.14661 -1.19756,12.4946 -4.38642,19.13773 -1.23869,6.26621 -9.63601,14.02372 -12.8167,4.39547 -6.58214,-8.63327 -14.83363,4.03991 -7.74908,9.24194 3.89489,7.4762 13.92041,7.85857 19.63591,7.04564 13.90379,25.22597 31.50889,50.47082 57.96287,63.67337 18.61581,9.48898 41.81414,7.77104 59.19615,-3.65634 25.57521,-16.3927 41.46404,-43.54841 54.09478,-70.39836 6.35224,4.75258 17.4984,-0.40308 16.35508,-8.62079 -1.37359,-6.43048 -8.88962,-2.76051 -11.61593,-2.17562 -7.59579,-3.02991 -2.08054,-13.64827 -9.66695,-16.50632 -10.07492,-0.59193 -7.48211,11.52434 -4.77349,17.86431 -0.23356,7.14984 -6.3023,14.627 -9.35804,21.64326 -11.87064,21.12489 -26.81025,42.70503 -49.69715,52.78331 -16.60093,7.45942 -36.19247,2.84364 -50.24665,-7.87744 -19.46129,-14.32218 -32.98113,-35.01869 -44.12384,-56.10879 6.10667,-8.28954 7.05,-20.50185 0.88467,-29.02094 -1.01018,-0.89085 -2.35996,-1.36156 -3.69521,-1.42043 z"
           sodipodi:nodetypes="cccccccccccccccccc" />
      </g>
      <g
         transform="translate(370.411,-158.705)"
         id="g2760-6-2" />
      <g
         transform="translate(370.411,-158.705)"
         id="g2764-3-3" />
      <g
         transform="matrix(1.15883,0.166494,-0.130207,0.906258,338.085,-224.758)"
         id="g2774-2-8">
        <path
           d="m 869.504,799.274 c -1.805,-10.161 -6.141,-10.649 -10.394,-8.475 -4.071,2.081 -10.67,15.448 -8.726,31.466 0.124,1.026 4.466,20.356 7.59,23.425 3.166,3.111 6.477,3.001 9.142,1.224 3.288,-2.192 5.76,-6.773 6.67,-12.886 1.589,-10.672 -2.737,-26.054 -4.282,-34.754 z"
           id="path2772-5-2" />
      </g>
      <g
         transform="matrix(1.12555,0.0769653,-0.0626527,0.916245,362.512,-157.878)"
         id="g2778-2-6">
        <path
           d="m 869.353,799.775 c -1.202,-2.709 -4.424,-9.405 -10.243,-8.976 -1.654,0.122 -4.843,3.495 -6.463,7.385 -3.453,8.286 -5.253,25.164 -2.101,33.044 0.384,0.959 4.304,11.393 7.428,14.462 3.166,3.111 6.477,3.001 9.142,1.224 3.288,-2.192 5.76,-6.773 6.67,-12.886 1.589,-10.672 -0.99,-26.494 -4.433,-34.253 z"
           id="path2776-1-9" />
      </g>
    </g>
  </g>
</svg>
