<?xml version="1.0" encoding="UTF-8" standalone="no"?>
<svg
   width="272.97308mm"
   height="169.65602mm"
   viewBox="0 0 272.97308 169.65602"
   version="1.1"
   id="svg5"
   sodipodi:docname="juicecarts-challenge.svg"
   inkscape:version="1.1.1 (3bf5ae0d25, 2021-09-20)"
   xmlns:inkscape="http://www.inkscape.org/namespaces/inkscape"
   xmlns:sodipodi="http://sodipodi.sourceforge.net/DTD/sodipodi-0.dtd"
   xmlns="http://www.w3.org/2000/svg"
   xmlns:svg="http://www.w3.org/2000/svg">
  <sodipodi:namedview
     id="namedview122"
     pagecolor="#ffffff"
     bordercolor="#666666"
     borderopacity="1.0"
     inkscape:pageshadow="2"
     inkscape:pageopacity="0.0"
     inkscape:pagecheckerboard="0"
     inkscape:document-units="mm"
     showgrid="false"
     inkscape:zoom="0.41097404"
     inkscape:cx="-434.334"
     inkscape:cy="193.44288"
     inkscape:window-width="2048"
     inkscape:window-height="1017"
     inkscape:window-x="-8"
     inkscape:window-y="-8"
     inkscape:window-maximized="1"
     inkscape:current-layer="svg5" />
  <defs
     id="defs2">
    <rect
       x="763.61896"
       y="580.28662"
       width="1365.9062"
       height="586.85291"
       id="rect23072" />
    <rect
       x="636.99652"
       y="246.60364"
       width="177.00856"
       height="195.63341"
       id="rect17804" />
    <clipPath
       id="clip0">
      <rect
         x="3643"
         y="183"
         width="207"
         height="220"
         id="rect17627" />
    </clipPath>
    <clipPath
       id="clip1">
      <rect
         x="3688"
         y="202"
         width="124"
         height="150"
         id="rect17630" />
    </clipPath>
    <clipPath
       id="clip2">
      <rect
         x="3688"
         y="202"
         width="124"
         height="150"
         id="rect17633" />
    </clipPath>
    <clipPath
       id="clip3">
      <rect
         x="3688"
         y="202"
         width="124"
         height="150"
         id="rect17636" />
    </clipPath>
    <clipPath
       id="clip4">
      <rect
         x="3688"
         y="202"
         width="124"
         height="150"
         id="rect17639" />
    </clipPath>
    <clipPath
       id="clip0-1">
      <rect
         x="3643"
         y="183"
         width="207"
         height="220"
         id="rect17627-9" />
    </clipPath>
    <clipPath
       id="clip1-8">
      <rect
         x="3688"
         y="202"
         width="124"
         height="150"
         id="rect17630-0" />
    </clipPath>
    <clipPath
       id="clip2-5">
      <rect
         x="3688"
         y="202"
         width="124"
         height="150"
         id="rect17633-2" />
    </clipPath>
    <clipPath
       id="clip3-5">
      <rect
         x="3688"
         y="202"
         width="124"
         height="150"
         id="rect17636-5" />
    </clipPath>
    <clipPath
       id="clip4-0">
      <rect
         x="3688"
         y="202"
         width="124"
         height="150"
         id="rect17639-1" />
    </clipPath>
    <clipPath
       id="clip0-13">
      <rect
         x="3643"
         y="183"
         width="207"
         height="220"
         id="rect17627-8" />
    </clipPath>
    <clipPath
       id="clip1-7">
      <rect
         x="3688"
         y="202"
         width="124"
         height="150"
         id="rect17630-3" />
    </clipPath>
    <clipPath
       id="clip2-0">
      <rect
         x="3688"
         y="202"
         width="124"
         height="150"
         id="rect17633-0" />
    </clipPath>
    <clipPath
       id="clip3-2">
      <rect
         x="3688"
         y="202"
         width="124"
         height="150"
         id="rect17636-9" />
    </clipPath>
    <clipPath
       id="clip4-6">
      <rect
         x="3688"
         y="202"
         width="124"
         height="150"
         id="rect17639-3" />
    </clipPath>
  </defs>
  <path
     style="fill:none;stroke:#000000;stroke-width:1.065;stroke-linecap:butt;stroke-linejoin:miter;stroke-miterlimit:4;stroke-dasharray:none;stroke-opacity:1"
     d="m 130.12286,74.215161 63.91293,0.81122"
     id="path665" />
  <path
     style="fill:none;stroke:#000000;stroke-width:1.065;stroke-linecap:butt;stroke-linejoin:miter;stroke-miterlimit:4;stroke-dasharray:none;stroke-opacity:1"
     d="M 6.965869,71.377881 35.275411,37.607631 94.074695,46.325159 75.144573,7.6761757"
     id="path647" />
  <path
     style="fill:none;stroke:#000000;stroke-width:1.065;stroke-linecap:butt;stroke-linejoin:miter;stroke-miterlimit:4;stroke-dasharray:none;stroke-opacity:1"
     d="M 94.074695,46.325157 132.69382,11.133711 155.92441,35.679053 201.42817,8.2873127"
     id="path649" />
  <path
     style="fill:none;stroke:#000000;stroke-width:1.065;stroke-linecap:butt;stroke-linejoin:miter;stroke-miterlimit:4;stroke-dasharray:none;stroke-opacity:1"
     d="m 132.69381,11.133711 68.73435,-2.8463983 16.51475,35.8280873 49.1808,1.25708"
     id="path651" />
  <path
     style="fill:none;stroke:#000000;stroke-width:1.065;stroke-linecap:butt;stroke-linejoin:miter;stroke-miterlimit:4;stroke-dasharray:none;stroke-opacity:1"
     d="m 217.94292,44.115399 6.33339,57.873741 38.48637,13.57192"
     id="path653" />
  <path
     style="fill:none;stroke:#000000;stroke-width:1.065;stroke-linecap:butt;stroke-linejoin:miter;stroke-miterlimit:4;stroke-dasharray:none;stroke-opacity:1"
     d="m 224.2763,101.98914 -30.24052,-26.962759 -12.8223,36.673669 24.88062,45.50181"
     id="path655" />
  <path
     style="fill:none;stroke:#000000;stroke-width:1.065;stroke-linecap:butt;stroke-linejoin:miter;stroke-miterlimit:4;stroke-dasharray:none;stroke-opacity:1"
     d="m 194.03578,75.026381 -38.11138,-39.34733 -25.80154,38.04291 v 0.4932 l -11.09679,39.455329 -40.683673,19.11006"
     id="path657" />
  <path
     style="fill:none;stroke:#000000;stroke-width:1.065;stroke-linecap:butt;stroke-linejoin:miter;stroke-miterlimit:4;stroke-dasharray:none;stroke-opacity:1"
     d="M 94.074695,46.325157 58.833316,95.927971 35.275411,37.607631"
     id="path659" />
  <path
     style="fill:none;stroke:#000000;stroke-width:1.065;stroke-linecap:butt;stroke-linejoin:miter;stroke-miterlimit:4;stroke-dasharray:none;stroke-opacity:1"
     d="M 24.327255,109.5007 58.833316,95.927971 78.342397,132.78055 41.041438,161.76217 Z"
     id="path661" />
  <path
     style="fill:none;stroke:#000000;stroke-width:1.065;stroke-linecap:butt;stroke-linejoin:miter;stroke-miterlimit:4;stroke-dasharray:none;stroke-opacity:1"
     d="m 206.09411,157.20186 56.66856,-41.6408"
     id="path663" />
  <path
     style="fill:none;stroke:#000000;stroke-width:1.065;stroke-linecap:butt;stroke-linejoin:miter;stroke-miterlimit:4;stroke-dasharray:none;stroke-opacity:1"
     d="M 94.074695,46.325157 155.9244,35.679051"
     id="path667" />
  <path
     style="fill:none;stroke:#000000;stroke-width:1.065;stroke-linecap:butt;stroke-linejoin:miter;stroke-miterlimit:4;stroke-dasharray:none;stroke-opacity:1"
     d="m 58.833316,95.927971 38.540239,-8.79617 32.749305,-12.91664"
     id="path840" />
  <path
     style="fill:none;stroke:#000000;stroke-width:1.065;stroke-linecap:butt;stroke-linejoin:miter;stroke-miterlimit:4;stroke-dasharray:none;stroke-opacity:1"
     d="m 119.02607,113.67049 32.48703,11.65831 -0.2466,0.2466 29.94698,-13.87535"
     id="path842" />
  <path
     style="fill:none;stroke:#000000;stroke-width:1.065;stroke-linecap:butt;stroke-linejoin:miter;stroke-miterlimit:4;stroke-dasharray:none;stroke-opacity:1"
     d="m 267.12373,45.37248 -3.81167,40.110691"
     id="path2456" />
  <path
     style="fill:none;stroke:#000000;stroke-width:1.065;stroke-linecap:butt;stroke-linejoin:miter;stroke-miterlimit:4;stroke-dasharray:none;stroke-opacity:1"
     d="m 263.31205,85.483171 -0.54938,30.077889"
     id="path2458" />
  <path
     style="fill:none;stroke:#000000;stroke-width:1.065;stroke-linecap:butt;stroke-linejoin:miter;stroke-miterlimit:4;stroke-dasharray:none;stroke-opacity:1"
     d="m 78.342397,132.78055 40.288103,13.407 0.39557,-32.51706"
     id="path23320" />
  <circle
     style="fill:#e1c44d;fill-rule:evenodd;stroke:none;stroke-width:0.233468;fill-opacity:1"
     id="path31"
     cx="35.539921"
     cy="37.501869"
     r="8" />
  <circle
     style="fill:#e1c44d;fill-rule:evenodd;stroke:none;stroke-width:0.233468;fill-opacity:1"
     id="path31-1"
     cx="8"
     cy="70.743561"
     r="8" />
  <circle
     style="fill:#e1c44d;fill-rule:evenodd;stroke:none;stroke-width:0.233468;fill-opacity:1"
     id="path31-1-9"
     cx="117.56516"
     cy="145.21991"
     r="8" />
  <circle
     style="fill:#e1c44d;fill-opacity:1;fill-rule:evenodd;stroke:none;stroke-width:0.233468"
     id="path31-9"
     cx="25.119534"
     cy="110.54417"
     r="8" />
  <circle
     style="fill:#e1c44d;fill-rule:evenodd;stroke:none;stroke-width:0.233468;fill-opacity:1"
     id="path31-6"
     cx="41.829712"
     cy="161.65602"
     r="8" />
  <circle
     style="fill:#e1c44d;fill-opacity:1;fill-rule:evenodd;stroke:none;stroke-width:0.233468"
     id="path31-6-8"
     cx="92.746552"
     cy="45.125"
     r="8" />
  <circle
     style="fill:#e1c44d;fill-rule:evenodd;stroke:none;stroke-width:0.233468;fill-opacity:1"
     id="path31-6-9"
     cx="59.529449"
     cy="92.857147"
     r="8" />
  <circle
     style="fill:#e1c44d;fill-rule:evenodd;stroke:none;stroke-width:0.233468;fill-opacity:1"
     id="path31-6-5"
     cx="120.93923"
     cy="112.95488"
     r="8" />
  <circle
     style="fill:#e1c44d;fill-rule:evenodd;stroke:none;stroke-width:0.233468;fill-opacity:1"
     id="path31-6-55"
     cx="181.79073"
     cy="110.7218"
     r="8" />
  <circle
     style="fill:#e1c44d;fill-rule:evenodd;stroke:none;stroke-width:0.233468;fill-opacity:1"
     id="path31-6-50"
     cx="206.35463"
     cy="157.05827"
     r="8" />
  <circle
     style="font-variation-settings:normal;opacity:1;vector-effect:none;fill:#e1c44d;fill-opacity:1;fill-rule:evenodd;stroke:none;stroke-width:0.233468;stroke-linecap:butt;stroke-linejoin:miter;stroke-miterlimit:4;stroke-dasharray:none;stroke-dashoffset:0;stroke-opacity:1;-inkscape-stroke:none;stop-color:#000000;stop-opacity:1"
     id="path31-6-2"
     cx="154.99373"
     cy="34.238724"
     r="8" />
  <circle
     style="fill:#e1c44d;fill-opacity:1;fill-rule:evenodd;stroke:none;stroke-width:0.233468"
     id="path31-6-6"
     cx="193.5144"
     cy="76.109024"
     r="8" />
  <circle
     style="fill:#e1c44d;fill-opacity:1;fill-rule:evenodd;stroke:none;stroke-width:0.233468"
     id="path31-6-0"
     cx="218.07831"
     cy="43.729324"
     r="8" />
  <circle
     style="fill:#e1c44d;fill-rule:evenodd;stroke:none;stroke-width:0.233468;fill-opacity:1"
     id="path31-6-92"
     cx="264.97308"
     cy="44.845863"
     r="8" />
  <circle
     style="fill:#e1c44d;fill-rule:evenodd;stroke:none;stroke-width:0.233468;fill-opacity:1"
     id="path31-6-90"
     cx="262.18173"
     cy="115.18797"
     r="8" />
  <circle
     style="fill:#e1c44d;fill-rule:evenodd;stroke:none;stroke-width:0.233468;fill-opacity:1"
     id="path31-6-4"
     cx="75.719299"
     cy="8"
     r="8" />
  <circle
     style="fill:#e1c44d;fill-rule:evenodd;stroke:none;stroke-width:0.233468;fill-opacity:1"
     id="path31-6-4-3"
     cx="151.08583"
     cy="124.67857"
     r="8" />
  <circle
     style="fill:#e1c44d;fill-rule:evenodd;stroke:none;stroke-width:0.233468;fill-opacity:1"
     id="path31-6-4-6"
     cx="96.933586"
     cy="87.274437"
     r="8" />
  <circle
     style="fill:#e1c44d;fill-rule:evenodd;stroke:none;stroke-width:0.233468;fill-opacity:1"
     id="path31-6-4-2"
     cx="262.73999"
     cy="84.483093"
     r="8" />
  <circle
     style="fill:#e1c44d;fill-rule:evenodd;stroke:none;stroke-width:0.233468;fill-opacity:1"
     id="path31-6-28"
     cx="134.33772"
     cy="10.791351"
     r="8" />
  <circle
     style="fill:#e1c44d;fill-rule:evenodd;stroke:none;stroke-width:0.233468;fill-opacity:1"
     id="path31-6-3"
     cx="200.77193"
     cy="9.1165428"
     r="8" />
  <circle
     style="fill:#e1c44d;fill-rule:evenodd;stroke:none;stroke-width:0.233468;fill-opacity:1"
     id="path31-6-3-8"
     cx="130.84634"
     cy="72.64164"
     r="8" />
  <circle
     style="fill:#e1c44d;fill-rule:evenodd;stroke:none;stroke-width:0.233468;fill-opacity:1"
     id="path31-6-3-0"
     cx="76.835846"
     cy="133.6109"
     r="8" />
  <circle
     style="fill:#e1c44d;fill-rule:evenodd;stroke:none;stroke-width:0.233468;fill-opacity:1"
     id="path31-6-3-87"
     cx="224.77756"
     cy="100.67293"
     r="8" />
  <text
     transform="matrix(0.26458333,0,0,0.26458333,-12.487465,-40.569549)"
     id="text17802"
     style="font-style:normal;font-weight:normal;font-size:40px;line-height:1.25;font-family:sans-serif;white-space:pre;shape-inside:url(#rect17804);fill:#000000;fill-opacity:1;stroke:none"
     xml:space="preserve" />
  <text
     transform="matrix(0.26458333,0,0,0.26458333,-12.487465,-40.569549)"
     id="text23070"
     style="font-style:normal;font-weight:normal;font-size:40px;line-height:1.25;font-family:sans-serif;white-space:pre;shape-inside:url(#rect23072);fill:#000000;fill-opacity:1;stroke:none"
     xml:space="preserve" />
  <g
     id="g6540"
     transform="translate(3,2.9999967)">
    <circle
       style="font-variation-settings:normal;vector-effect:none;fill:#264e8a;fill-opacity:1;stroke:none;stroke-width:0.233468;stroke-linecap:butt;stroke-linejoin:miter;stroke-miterlimit:4;stroke-dasharray:none;stroke-dashoffset:0;stroke-opacity:1;-inkscape-stroke:none;paint-order:fill markers stroke;stop-color:#000000"
       id="path2496"
       cx="89.746552"
       cy="42.125004"
       r="10" />
    <path
       id="path5183"
       style="color:#000000;fill:#d5f6ff;stroke-width:1;stroke-linecap:round;stroke-linejoin:round;-inkscape-stroke:none"
       d="m 89.654514,34.786472 c -0.293739,0.268298 -0.399289,0.761012 -0.629742,1.092614 -0.509498,1.045177 -1.069199,2.064312 -1.647084,3.071972 -0.585379,1.19992 -1.372629,2.2976 -1.865416,3.541517 -0.556134,1.45954 -0.680623,3.250637 0.309988,4.560764 1.157371,1.512011 3.264708,1.913018 5.055227,1.59364 1.683183,-0.277573 3.39502,-1.340193 3.875002,-3.06155 0.405275,-1.449788 -0.03812,-3.031376 -0.927769,-4.213024 -1.417243,-2.077085 -2.891586,-4.164777 -3.746167,-6.550693 -0.151944,-0.199837 -0.249716,-0.155629 -0.424039,-0.03524 z"
       sodipodi:nodetypes="cccccccccc" />
    <path
       style="font-variation-settings:normal;vector-effect:none;fill:#264e8a;fill-opacity:1;stroke:none;stroke-width:0.233468;stroke-linecap:butt;stroke-linejoin:miter;stroke-miterlimit:4;stroke-dasharray:none;stroke-dashoffset:0;stroke-opacity:1;-inkscape-stroke:none;paint-order:fill markers stroke;stop-color:#000000"
       d="m 93.359958,42.893209 c 1.616928,3.855154 -1.870316,4.540873 -3.385791,4.353159 1.849585,-0.899709 2.822014,-2.470185 3.385791,-4.353159 z"
       id="path5531"
       sodipodi:nodetypes="ccc" />
  </g>
  <g
     id="g6545"
     transform="translate(3,2.9999967)">
    <circle
       style="font-variation-settings:normal;vector-effect:none;fill:#264e8a;fill-opacity:1;stroke:none;stroke-width:0.233468;stroke-linecap:butt;stroke-linejoin:miter;stroke-miterlimit:4;stroke-dasharray:none;stroke-dashoffset:0;stroke-opacity:1;-inkscape-stroke:none;paint-order:fill markers stroke;stop-color:#000000"
       id="path2496-6"
       cx="22.119534"
       cy="107.54417"
       r="10" />
    <path
       id="path5183-1"
       style="color:#000000;fill:#d5f6ff;stroke-width:1;stroke-linecap:round;stroke-linejoin:round;-inkscape-stroke:none"
       d="m 22.027496,100.20564 c -0.293739,0.26829 -0.399289,0.76101 -0.629742,1.09261 -0.509498,1.04518 -1.069199,2.06431 -1.647084,3.07197 -0.585379,1.19992 -1.372629,2.2976 -1.865416,3.54152 -0.556134,1.45954 -0.680623,3.25063 0.309988,4.56076 1.157371,1.51201 3.264708,1.91302 5.055227,1.59364 1.683183,-0.27757 3.39502,-1.34019 3.875002,-3.06155 0.405275,-1.44979 -0.03812,-3.03137 -0.927769,-4.21302 -1.417243,-2.07709 -2.891586,-4.16478 -3.746167,-6.55069 -0.151944,-0.19984 -0.249716,-0.15563 -0.424039,-0.0352 z"
       sodipodi:nodetypes="cccccccccc" />
    <path
       style="font-variation-settings:normal;vector-effect:none;fill:#264e8a;fill-opacity:1;stroke:none;stroke-width:0.233468;stroke-linecap:butt;stroke-linejoin:miter;stroke-miterlimit:4;stroke-dasharray:none;stroke-dashoffset:0;stroke-opacity:1;-inkscape-stroke:none;paint-order:fill markers stroke;stop-color:#000000"
       d="m 25.73294,108.31237 c 1.616928,3.85516 -1.870316,4.54088 -3.385791,4.35316 1.849585,-0.89971 2.822014,-2.47018 3.385791,-4.35316 z"
       id="path5531-0"
       sodipodi:nodetypes="ccc" />
  </g>
  <g
     id="g6535"
     transform="translate(3,2.9999967)">
    <circle
       style="font-variation-settings:normal;vector-effect:none;fill:#264e8a;fill-opacity:1;stroke:none;stroke-width:0.233468;stroke-linecap:butt;stroke-linejoin:miter;stroke-miterlimit:4;stroke-dasharray:none;stroke-dashoffset:0;stroke-opacity:1;-inkscape-stroke:none;paint-order:fill markers stroke;stop-color:#000000"
       id="path2496-0"
       cx="215.07831"
       cy="40.729328"
       r="10" />
    <path
       id="path5183-7"
       style="color:#000000;fill:#d5f6ff;stroke-width:1;stroke-linecap:round;stroke-linejoin:round;-inkscape-stroke:none"
       d="m 214.98627,33.390796 c -0.29373,0.268298 -0.39928,0.761012 -0.62974,1.092614 -0.5095,1.045177 -1.0692,2.064312 -1.64708,3.071972 -0.58538,1.19992 -1.37263,2.2976 -1.86542,3.541517 -0.55613,1.45954 -0.68062,3.250637 0.30999,4.560764 1.15737,1.512011 3.26471,1.913018 5.05523,1.59364 1.68318,-0.277573 3.39502,-1.340193 3.875,-3.06155 0.40528,-1.449788 -0.0381,-3.031376 -0.92777,-4.213024 -1.41724,-2.077085 -2.89158,-4.164776 -3.74617,-6.550693 -0.15194,-0.199837 -0.24971,-0.155629 -0.42404,-0.03524 z"
       sodipodi:nodetypes="cccccccccc" />
    <path
       style="font-variation-settings:normal;vector-effect:none;fill:#264e8a;fill-opacity:1;stroke:none;stroke-width:0.233468;stroke-linecap:butt;stroke-linejoin:miter;stroke-miterlimit:4;stroke-dasharray:none;stroke-dashoffset:0;stroke-opacity:1;-inkscape-stroke:none;paint-order:fill markers stroke;stop-color:#000000"
       d="m 218.69172,41.497533 c 1.61693,3.855154 -1.87032,4.540873 -3.38579,4.353159 1.84958,-0.899709 2.82201,-2.470185 3.38579,-4.353159 z"
       id="path5531-2"
       sodipodi:nodetypes="ccc" />
  </g>
</svg>
