<?xml version="1.0" encoding="UTF-8" standalone="no"?>
<!-- Created with Inkscape (http://www.inkscape.org/) -->

<svg
   width="18.908424mm"
   height="32.732925mm"
   viewBox="0 0 18.908424 32.732925"
   version="1.1"
   id="svg8884"
   inkscape:version="1.1.1 (3bf5ae0d25, 2021-09-20)"
   sodipodi:docname="2023-LT-01-informatics02.svg"
   xmlns:inkscape="http://www.inkscape.org/namespaces/inkscape"
   xmlns:sodipodi="http://sodipodi.sourceforge.net/DTD/sodipodi-0.dtd"
   xmlns="http://www.w3.org/2000/svg"
   xmlns:svg="http://www.w3.org/2000/svg">
  <sodipodi:namedview
     id="namedview8886"
     pagecolor="#ffffff"
     bordercolor="#666666"
     borderopacity="1.0"
     inkscape:pageshadow="2"
     inkscape:pageopacity="0.0"
     inkscape:pagecheckerboard="0"
     inkscape:document-units="mm"
     showgrid="false"
     inkscape:zoom="10.248373"
     inkscape:cx="66.205634"
     inkscape:cy="103.77257"
     inkscape:window-width="2048"
     inkscape:window-height="1017"
     inkscape:window-x="-8"
     inkscape:window-y="-8"
     inkscape:window-maximized="1"
     inkscape:current-layer="layer1" />
  <defs
     id="defs8881" />
  <g
     inkscape:label="Ebene 1"
     inkscape:groupmode="layer"
     id="layer1"
     transform="translate(-40.527707,-63.769836)">
    <g
       id="_876261952-7"
       style="clip-rule:evenodd;fill-rule:evenodd;image-rendering:optimizeQuality;shape-rendering:geometricPrecision;text-rendering:geometricPrecision"
       transform="matrix(0.00999986,0,0,0.00999986,23.464408,63.423225)" />
    <path
       class="fil19"
       d="m 44.03412,91.982825 c -0.189997,0.149998 -0.439994,0.219997 -0.69999,0.269996 -0.349995,0.06 -0.73999,0.09 -1.099985,0.129998 -0.659991,0.09 -1.229983,0.279996 -1.519979,0.779989 -0.259996,0.469994 -0.299995,1.249983 0.219997,2.619963 0.05,0.139999 0.199998,0.229997 0.349995,0.209998 0.06,0.07 0.149998,0.119998 0.249997,0.119998 h 16.649767 c 0.379994,0 0.70999,-0.149998 0.829988,-0.379995 0.979986,-1.819974 0.09,-3.239954 -0.999986,-4.25994 -0.01,-0.03 -0.02,-0.09 -0.03,-0.139998 -0.02,-0.169998 -0.01,-0.399995 0,-0.659991 0.07,-1.269982 0.389994,-3.289954 0.209997,-4.119942 -0.789989,-3.689949 -2.19997,-7.299898 -2.769962,-11.019846 -0.09,-0.599992 -0.409994,-1.189983 -0.759989,-1.789975 -0.299996,-0.519993 -0.619991,-1.049985 -0.73999,-1.609977 -0.09,-0.419995 -0.369994,-1.129985 -0.489993,-1.799975 -0.07,-0.359995 -0.1,-0.70999 0.03,-0.959987 0.299996,-0.549992 0.989986,-1.239982 1.38998,-1.999972 0.319996,-0.589992 0.459994,-1.219983 0.229997,-1.849974 -0.129998,-0.379995 -0.449993,-0.71999 -0.899987,-0.999986 -0.589992,-0.369995 -1.42998,-0.619991 -2.279968,-0.70999 -0.859988,-0.1 -1.739976,-0.03 -2.409967,0.239997 -0.499993,0.199997 -0.889987,0.509993 -1.109984,0.919987 -0.249996,0.469993 -0.239997,0.969986 -0.09,1.469979 0.139998,0.439994 0.389995,0.889988 0.649991,1.329982 0.229997,0.389994 0.469994,0.779989 0.599992,1.149984 0.109998,0.299995 0.149998,0.579991 0.02,0.829988 -0.539992,0.989986 -1.069985,1.669977 -1.569978,2.339967 -0.799988,1.049985 -1.519978,2.089971 -2.08997,4.199941 -0.409995,1.519979 -1.229983,3.009958 -1.499979,4.499937 -0.309996,1.739976 -0.149998,3.58995 -0.429994,5.379925 -0.199997,1.339981 -0.389995,3.239955 -0.1,4.599936 0.02,0.08 0.1,0.439993 0.139998,0.789989 0.02,0.139998 0.02,0.349995 0.02,0.419994 z m 14.389798,3.409952 c 0.789989,-1.479979 -0.01,-2.619963 -0.899987,-3.449952 -0.07,-0.07 -0.139998,-0.179997 -0.179997,-0.349995 -0.05,-0.209997 -0.06,-0.549992 -0.04,-0.959986 0.07,-1.209983 0.399995,-3.149956 0.229997,-3.939945 -0.799989,-3.699948 -2.209969,-7.329898 -2.779961,-11.059845 -0.08,-0.519993 -0.379995,-1.029986 -0.679991,-1.549979 -0.329995,-0.589991 -0.67999,-1.179983 -0.809988,-1.809974 -0.09,-0.419994 -0.369995,-1.139984 -0.499993,-1.819975 -0.1,-0.529992 -0.09,-1.039985 0.1,-1.39998 0.259997,-0.469994 0.779989,-1.029986 1.189984,-1.649977 0.329995,-0.519993 0.599991,-1.079985 0.389994,-1.649977 -0.09,-0.249997 -0.309995,-0.469994 -0.609991,-0.649991 C 53.31399,64.783205 52.574,64.563209 51.834011,64.48321 c -0.74999,-0.08 -1.499979,-0.03 -2.079971,0.209997 -0.339995,0.129998 -0.619991,0.329995 -0.769989,0.609991 -0.159998,0.299996 -0.139998,0.619992 -0.04,0.939987 0.119998,0.389995 0.349995,0.789989 0.579992,1.179984 0.309996,0.529992 0.619991,1.049985 0.73999,1.539978 0.1,0.389995 0.08,0.759989 -0.1,1.109984 -0.559992,1.029986 -1.109984,1.729976 -1.629977,2.429966 -0.74999,0.989987 -1.43998,1.969973 -1.969973,3.959945 -0.409994,1.509979 -1.229982,2.979958 -1.489979,4.449938 -0.309995,1.739975 -0.149998,3.57995 -0.429994,5.359925 -0.189997,1.279982 -0.379994,3.069957 -0.109998,4.359939 0.03,0.109998 0.169998,0.739989 0.189997,1.179983 0,0.169998 -0.01,0.319996 -0.05,0.419994 -0.03,0.09 -0.08,0.159998 -0.129998,0.209997 -0.229997,0.209997 -0.529993,0.339995 -0.859988,0.429994 -0.419994,0.1 -0.909987,0.129998 -1.359981,0.189998 -0.429994,0.05 -0.829989,0.109998 -1.019986,0.439993 -0.09,0.159998 -0.119998,0.369995 -0.1,0.669991 0.03,0.329995 0.129998,0.73999 0.319995,1.259982 h 0.01 16.649767 c 0.07,0 0.129998,-0.01 0.189997,-0.02 0.02,0 0.04,-0.01 0.05,-0.02 z"
       id="path180-2"
       style="clip-rule:evenodd;fill:#000000;fill-rule:evenodd;stroke-width:0.00999985;image-rendering:optimizeQuality;shape-rendering:geometricPrecision;text-rendering:geometricPrecision;font-variation-settings:normal;opacity:1;vector-effect:none;fill-opacity:1;stroke-linecap:round;stroke-linejoin:round;stroke-miterlimit:4;stroke-dasharray:none;stroke-dashoffset:0;stroke-opacity:1;-inkscape-stroke:none;stop-color:#000000;stop-opacity:1" />
    <path
       class="fil19"
       d="m 43.864122,92.712814 c 1.389981,0.269997 2.929959,0.169998 4.499937,0.05 1.539979,-0.129998 3.109957,-0.269996 4.569936,-0.1 0.679991,0.07 1.45998,0.319996 2.219969,0.549992 0.789989,0.229997 1.549979,0.439994 2.17997,0.439994 0.09,0 0.169997,-0.07 0.169997,-0.169997 0,-0.09 -0.08,-0.169998 -0.169997,-0.169998 -0.599992,0 -1.329982,-0.209997 -2.089971,-0.429994 -0.779989,-0.229997 -1.579978,-0.479993 -2.269968,-0.559992 -1.47998,-0.169998 -3.069957,-0.03 -4.639935,0.1 -1.529979,0.119998 -3.049958,0.229996 -4.409939,-0.04 -0.09,-0.02 -0.179997,0.04 -0.189997,0.129998 -0.02,0.1 0.04,0.189998 0.129998,0.199997 z"
       id="path182-1"
       style="clip-rule:evenodd;fill:#000000;fill-rule:evenodd;stroke-width:0.00999985;image-rendering:optimizeQuality;shape-rendering:geometricPrecision;text-rendering:geometricPrecision;font-variation-settings:normal;opacity:1;vector-effect:none;fill-opacity:1;stroke-linecap:round;stroke-linejoin:round;stroke-miterlimit:4;stroke-dasharray:none;stroke-dashoffset:0;stroke-opacity:1;-inkscape-stroke:none;stop-color:#000000;stop-opacity:1" />
  </g>
</svg>
