<?xml version="1.0" encoding="UTF-8" standalone="no"?>
<!-- Created with Inkscape (http://www.inkscape.org/) -->

<svg
   width="27.885477mm"
   height="25.316422mm"
   viewBox="0 0 27.885477 25.316422"
   version="1.1"
   id="svg10306"
   inkscape:version="1.1.1 (3bf5ae0d25, 2021-09-20)"
   sodipodi:docname="2023-LT-01-informatics03.svg"
   xmlns:inkscape="http://www.inkscape.org/namespaces/inkscape"
   xmlns:sodipodi="http://sodipodi.sourceforge.net/DTD/sodipodi-0.dtd"
   xmlns="http://www.w3.org/2000/svg"
   xmlns:svg="http://www.w3.org/2000/svg">
  <sodipodi:namedview
     id="namedview10308"
     pagecolor="#ffffff"
     bordercolor="#666666"
     borderopacity="1.0"
     inkscape:pageshadow="2"
     inkscape:pageopacity="0.0"
     inkscape:pagecheckerboard="0"
     inkscape:document-units="mm"
     showgrid="false"
     inkscape:zoom="1.8116734"
     inkscape:cx="129.16235"
     inkscape:cy="6.8996982"
     inkscape:window-width="2048"
     inkscape:window-height="1017"
     inkscape:window-x="-8"
     inkscape:window-y="-8"
     inkscape:window-maximized="1"
     inkscape:current-layer="_876252480" />
  <defs
     id="defs10303" />
  <g
     inkscape:label="Ebene 1"
     inkscape:groupmode="layer"
     id="layer1"
     transform="translate(-78.479025,-67.80711)">
    <g
       id="_876252480"
       style="clip-rule:evenodd;fill-rule:evenodd;image-rendering:optimizeQuality;shape-rendering:geometricPrecision;text-rendering:geometricPrecision"
       transform="matrix(0.00999986,0,0,0.00999986,-80.778484,15.994661)">
      <path
         id="path11036"
         style="color:#000000;clip-rule:nonzero;fill:#000000;fill-rule:nonzero;stroke-width:0.0377947;stroke-linecap:round;stroke-linejoin:round;-inkscape-stroke:none;shape-rendering:auto"
         d="m 387.85157,350.52734 c -2.26768,-8.46602 -0.49222,-15.30642 2.41797,-21.99609 3.06138,-7.02982 7.29519,-13.90977 9.86524,-22.22461 1.36061,-4.42198 0.79341,-10.88438 -0.41602,-17.04492 -1.36061,-6.87865 -3.5148,-13.38034 -4.42187,-16.10156 1.54958,-0.52913 4.04289,-1.70028 5.55468,-4.11914 3.06138,-4.87553 -0.30207,-11.03482 -6.04687,-12.13086 -2.34328,-0.45354 -5.10094,-0.0771 -7.93555,1.69922 -0.0976,0.061 0.0131,0.20695 -0.0606,0.2871 -0.10155,-0.17461 -0.25054,-0.31683 -0.42968,-0.41015 -8.46557,0.18717 -17.76052,-1.43551 -26.98047,-2.01172 -1.72873,-0.10804 -3.45709,-0.17957 -5.17774,-0.19336 h 4e-5 c -7.36982,-0.0591 -14.60052,0.95373 -21.18554,4.57617 -0.10421,0.007 -0.14877,-0.16659 -0.25,-0.13086 -3.70389,1.17164 -5.10253,0.41564 -5.48047,0.11328 -3.85507,-3.25034 -7.93667,-4.15803 -10.99805,-3.6289 -2.26768,0.41574 -4.00699,1.58898 -4.91406,3.25195 -1.32282,2.38107 -0.9078,5.93352 2.94726,9.59961 -5.51803,4.76214 -27.55197,26.15339 -12.62304,53.66797 4.34639,8.01248 8.73066,12.69868 12.8125,24.03711 0.0762,1.39561 2.64345,2.22034 2.41794,-0.86913 -4.15743,-11.48961 -8.57802,-16.25109 -13,-24.37696 -15.94939,-29.4799 13.15234,-51.40039 13.15234,-51.40039 0.34015,-0.22676 0.5293,-0.60642 0.5293,-0.98437 0,-0.41574 -0.18983,-0.79276 -0.49219,-1.01953 -1.88974,-1.54959 -3.0614,-3.06058 -3.55274,-4.45899 -0.45353,-1.13384 -0.41447,-2.15553 0.0391,-2.94922 0.56692,-1.05825 1.73831,-1.70028 3.13672,-1.96484 2.49445,-0.45354 5.78169,0.41492 8.88085,3.06055 0.52913,0.41574 2.53354,2.0406 7.9004,0.33984 0.12916,-0.0359 0.0529,-0.23064 0.1582,-0.30078 0.0485,-0.003 0.0968,-0.008 0.14453,-0.0176 5.72919,-3.21297 12.06812,-4.29897 18.70117,-4.40234 v 1e-5 c 2.21102,-0.0345 4.45637,0.0401 6.7207,0.18164 9.05729,0.56605 18.3911,2.2095 27.16016,2.01562 0.17054,-0.008 0.33664,-0.057 0.48438,-0.14257 0.39572,0.289 0.85978,0.57176 1.31836,0.28515 2.19209,-1.32281 4.27179,-1.70021 6.08593,-1.32226 3.93066,0.75589 6.46221,4.8765 4.34571,8.24023 -1.73856,2.79681 -5.25391,3.36328 -5.25391,3.36328 -0.37795,0.0756 -0.71728,0.30116 -0.90625,0.60352 -0.18897,0.34015 -0.22735,0.7575 -0.0762,1.09765 0,0 3.02316,8.20164 4.76172,17.00782 1.13384,5.7448 1.73941,11.71504 0.49218,15.79687 -2.53224,8.23926 -6.76616,15.00475 -9.75195,21.95899 -3.13696,7.21879 -4.98791,14.55162 -2.53125,23.66015 1.44718,2.10326 2.45707,-0.64258 2.45707,-0.64258 z"
         transform="matrix(26.458704,0,0,26.458704,8077.9615,-1599.4885)"
         sodipodi:nodetypes="ccccccccccssscccccccccccsccccccccsscccccccccccccc" />
      <g
         id="g793">
        <g
           id="g723">
          <path
             class="fil19"
             d="m 17136,6016 c 0,-8 -4,-14 -11,-17 -5,-1 -11,-3 -14,-4 -6,0 -10,1 -12,3 -6,3 -9,8 -9,15 0,2 1,10 12,19 67,50 91,112 121,179 34,77 62,188 56,289 -3,66 -20,127 -60,172 -40,47 -111,90 -193,124 -125,52 -274,83 -386,71 -38,-4 -107,-13 -170,-33 -40,-13 -77,-31 -100,-56 -6,-6 -17,-7 -24,0 -7,6 -7,17 -1,24 27,28 69,49 114,64 65,21 138,31 178,35 116,13 272,-19 402,-73 87,-37 162,-84 206,-134 44,-50 65,-119 68,-192 6,-107 -23,-224 -59,-304 -30,-68 -56,-130 -118,-182 z"
             id="path721" />
        </g>
        <path
           class="fil19"
           d="m 16658,5928 c -38,-36 -93,-36 -150,-17 -79,27 -160,89 -192,127 -141,165 -185,371 -120,573 28,84 41,145 131,188 8,5 19,1 23,-7 4,-9 0,-19 -8,-23 -79,-39 -89,-94 -113,-168 -62,-191 -21,-386 112,-541 30,-35 105,-92 178,-116 44,-15 87,-19 116,8 6,7 17,6 24,0 6,-7 6,-18 -1,-24 z"
           id="path725" />
        <g
           id="g729">
          <path
             class="fil19"
             d="m 16722,6066 c -128,221 -235,606 -169,833 2,9 12,14 21,11 9,-2 14,-12 11,-21 -64,-219 42,-592 166,-806 5,-8 2,-19 -6,-23 -8,-5 -18,-2 -23,6 z"
             id="path727" />
        </g>
        <g
           id="g733">
          <path
             class="fil19"
             d="m 16883,6870 v 0 -1 c 0,-19 -9,-23 -17,-20 -9,-3 -17,1 -17,20 v 1 5 c 0,1 0,1 0,2 1,27 8,78 5,119 -1,13 -3,26 -8,36 -2,6 -6,11 -11,13 -16,6 -37,6 -60,5 -37,-3 -78,-12 -103,-15 -66,-7 -107,-21 -128,-49 -20,-28 -19,-68 -8,-123 2,-9 -4,-18 -13,-20 -9,-2 -18,4 -20,13 -14,68 -11,116 14,150 25,33 72,54 151,63 26,2 67,11 104,14 29,3 55,2 75,-6 19,-7 32,-27 37,-54 10,-49 -1,-125 -1,-153 z"
             id="path731" />
        </g>
        <g
           id="g737">
          <path
             class="fil19"
             d="m 16701,6892 c 3,-4 3,-10 1,-16 -5,-11 -13,-12 -16,-12 -6,-1 -12,1 -16,9 -1,1 -2,3 -3,7 0,3 0,9 0,18 2,34 11,113 11,139 0,10 8,17 17,17 10,0 17,-7 17,-17 0,-28 -10,-114 -11,-145 z"
             id="path735" />
        </g>
        <g
           id="g741">
          <path
             class="fil19"
             d="m 17609,5800 c -3,-3 -7,-4 -12,-4 -4,-2 -48,-19 -55,-21 -39,-11 -89,-11 -128,0 -29,8 -51,15 -74,31 -31,21 -44,43 -46,64 -2,22 8,43 27,61 31,32 89,56 143,62 33,3 59,-3 83,-12 22,-7 43,-18 67,-24 21,-5 57,-28 72,-51 9,-14 12,-28 6,-40 -4,-10 -13,-21 -24,-31 -14,-12 -30,-24 -41,-32 -5,-5 -12,-6 -18,-3 z m -4,28 c -1,1 -2,1 -3,1 -3,1 -9,1 -17,-1 -15,-5 -46,-19 -52,-20 -33,-9 -76,-10 -109,0 -26,7 -45,12 -65,26 -19,13 -30,26 -31,39 -1,12 6,24 17,34 26,27 76,47 122,52 33,4 58,-5 82,-14 18,-8 36,-16 57,-21 13,-3 34,-16 47,-31 3,-3 5,-6 7,-9 1,-2 2,-3 1,-5 -2,-6 -9,-12 -16,-18 -13,-12 -30,-24 -40,-33 z"
             id="path739" />
        </g>
        <g
           id="g745">
          <path
             class="fil19"
             d="m 16553,5702 c -1,-1 -1,-2 -2,-2 -5,-8 -16,-9 -24,-4 -27,21 -39,44 -42,66 -3,23 5,45 20,64 41,52 143,78 221,9 32,-28 22,-68 -12,-100 -25,-24 -63,-44 -99,-47 -23,-3 -45,1 -62,14 z m -10,26 c -15,12 -23,25 -24,38 -2,14 3,27 13,39 32,40 111,58 171,4 17,-14 5,-33 -12,-50 -20,-19 -51,-35 -79,-38 -17,-1 -32,1 -43,11 -7,7 -18,6 -24,-1 -1,-1 -2,-2 -2,-3 z"
             id="path743" />
        </g>
        <g
           id="g749">
          <path
             class="fil19"
             d="m 17529,5610 c 2,-5 7,-5 13,-6 11,-2 25,-1 37,-1 63,0 109,25 151,57 8,6 19,4 24,-3 6,-8 4,-19 -3,-24 -48,-37 -101,-64 -172,-64 -17,0 -37,-1 -52,3 -15,5 -26,13 -30,28 -3,9 2,19 11,21 9,3 19,-2 21,-11 z"
             id="path747" />
        </g>
        <g
           id="g753">
          <path
             class="fil19"
             d="m 16610,5594 c 15,-11 33,-16 52,-19 21,-3 44,-4 66,-6 9,-1 16,-10 15,-19 -1,-9 -10,-16 -19,-15 -48,6 -97,5 -134,31 -8,6 -9,16 -4,24 5,7 16,9 24,4 z"
             id="path751" />
        </g>
        <path
           class="fil19"
           d="m 17420,5797 c -23,6 -39,1 -57,17 -71,67 10,182 102,165 82,-15 94,-126 43,-173 -8,-8 -66,-39 -66,-24 m -22,15 z"
           id="path755" />
        <path
           class="fil19"
           d="m 16620,5717 c 7,-19 37,20 39,24 18,33 -19,159 -64,149 -111,-26 -117,-223 9,-184 m 16,11 z"
           id="path757" />
        <path
           class="fil19"
           d="m 16869,5898 c -53,-8 -89,-34 -146,-19 -49,12 -97,25 -142,49 -63,33 -32,112 9,146 77,65 226,116 330,99 83,-12 198,-80 136,-167 -47,-66 -145,-71 -191,-135 m 4,27 z"
           id="path759" />
        <path
           class="fil19"
           d="m 16439,5572 c 10,-16 38,-47 45,-53 20,-16 58,-54 95,-82 22,-17 43,-30 60,-30 9,0 17,-8 17,-17 0,-9 -8,-17 -17,-17 -17,0 -38,9 -60,23 -44,28 -93,78 -116,97 -9,7 -47,50 -56,67 -5,11 -2,19 0,23 4,4 9,8 17,7 9,-1 16,-9 15,-18 z m -16,-16 c 1,0 3,0 4,1 -1,-1 -3,-1 -4,-1 z m -1,0 h 1 z"
           id="path761" />
        <path
           class="fil19"
           d="m 16509,5457 c 1,2 3,9 4,12 4,7 11,13 24,14 9,0 17,-8 17,-17 0,-8 -5,-14 -11,-16 -1,-1 -1,-3 -1,-3 -2,-4 -4,-8 -6,-11 -7,-9 -16,-14 -24,-19 -8,-4 -16,-6 -20,-16 -14,-28 20,-49 48,-38 9,3 19,-2 22,-10 3,-9 -1,-19 -10,-22 -56,-21 -119,27 -91,85 7,15 18,22 29,28 7,4 14,7 19,13 z"
           id="path763" />
        <path
           class="fil19"
           d="m 18378,5386 c 26,20 41,49 53,80 12,35 21,72 33,103 3,9 13,13 22,10 8,-4 13,-14 9,-22 -11,-31 -20,-68 -33,-102 -13,-38 -32,-73 -64,-96 -8,-6 -18,-4 -24,4 -5,7 -4,18 4,23 z"
           id="path765" />
        <path
           class="fil19"
           d="m 18457,5416 c 8,-42 55,-54 90,-47 15,3 29,9 33,20 5,12 -1,27 -20,46 -12,13 -27,23 -43,32 -8,5 -10,16 -6,24 5,8 16,10 24,5 18,-11 35,-23 50,-38 31,-33 35,-61 27,-81 -8,-21 -31,-36 -58,-42 -52,-9 -120,14 -130,75 -2,9 5,18 14,20 9,1 18,-5 19,-14 z"
           id="path767" />
      </g>
    </g>
  </g>
</svg>
