<?xml version="1.0" encoding="UTF-8" standalone="no"?>
<svg
   version="1.1"
   id="svg833"
   width="1322.0234"
   height="250"
   viewBox="0 0 1652.5293 312.5"
   sodipodi:docname="2023-SK-02_mounds.svg"
   inkscape:version="1.1.1 (3bf5ae0d25, 2021-09-20)"
   xmlns:inkscape="http://www.inkscape.org/namespaces/inkscape"
   xmlns:sodipodi="http://sodipodi.sourceforge.net/DTD/sodipodi-0.dtd"
   xmlns="http://www.w3.org/2000/svg"
   xmlns:svg="http://www.w3.org/2000/svg"
   xmlns:rdf="http://www.w3.org/1999/02/22-rdf-syntax-ns#"
   xmlns:cc="http://creativecommons.org/ns#"
   xmlns:dc="http://purl.org/dc/elements/1.1/">
  <metadata
     id="metadata839">
    <rdf:RDF>
      <cc:Work
         rdf:about="">
        <dc:format>image/svg+xml</dc:format>
        <dc:type
           rdf:resource="http://purl.org/dc/dcmitype/StillImage" />
      </cc:Work>
    </rdf:RDF>
  </metadata>
  <defs
     id="defs837" />
  <sodipodi:namedview
     pagecolor="#ffffff"
     bordercolor="#666666"
     borderopacity="1"
     objecttolerance="10"
     gridtolerance="10"
     guidetolerance="10"
     inkscape:pageopacity="0"
     inkscape:pageshadow="2"
     inkscape:window-width="2048"
     inkscape:window-height="1017"
     id="namedview835"
     showgrid="false"
     inkscape:zoom="1.0790903"
     inkscape:cx="620.89333"
     inkscape:cy="298.86284"
     inkscape:window-x="-8"
     inkscape:window-y="-8"
     inkscape:window-maximized="1"
     inkscape:current-layer="g841"
     inkscape:document-rotation="0"
     inkscape:showpageshadow="2"
     inkscape:pagecheckerboard="0"
     inkscape:deskcolor="#d1d1d1" />
  <g
     inkscape:groupmode="layer"
     inkscape:label="Image"
     id="g841"
     transform="translate(429.27832,-101.53016)">
    <g
       id="g874"
       transform="translate(0,145.32154)">
      <g
         transform="matrix(0.44361875,0,0,0.52751,-617.07384,-190.5131)"
         id="g34"
         style="clip-rule:evenodd;fill-rule:evenodd;stroke-linejoin:round;stroke-miterlimit:2">
        <path
           d="m 1363.19,870.546 c -0.97,-18.147 -31.39,-40.997 -44.17,-54.78 -23.03,-24.855 -164.73,-80.114 -205.11,-95.532 -65.88,-25.156 -97.73,-93.381 -160.154,-121.756 -9.386,-4.266 -23.409,1.125 -33.717,-0.937 -23.847,-4.769 -45.51,-13.748 -70.244,-14.985 -26.047,-1.302 -122.93,22.609 -142.361,40.273 -13.743,12.494 -19.667,30.651 -30.907,44.956 -21.184,26.962 -46.621,52.657 -74.927,72.117 -68.747,47.264 -109.887,62.37 -161.093,130.644 z"
           style="fill:#aa6941"
           id="path32" />
      </g>
      <g
         transform="matrix(0.44361875,0,0,0.52751,-207.75384,-190.5131)"
         id="g38"
         style="clip-rule:evenodd;fill-rule:evenodd;stroke-linejoin:round;stroke-miterlimit:2">
        <path
           d="m 1363.19,870.546 c -0.97,-18.147 -31.39,-40.997 -44.17,-54.78 -23.03,-24.855 -164.73,-80.114 -205.11,-95.532 -65.88,-25.156 -97.73,-93.381 -160.154,-121.756 -9.386,-4.266 -23.409,1.125 -33.717,-0.937 -23.847,-4.769 -45.51,-13.748 -70.244,-14.985 -26.047,-1.302 -122.93,22.609 -142.361,40.273 -13.743,12.494 -19.667,30.651 -30.907,44.956 -21.184,26.962 -46.621,52.657 -74.927,72.117 -68.747,47.264 -109.887,62.37 -161.093,130.644 z"
           style="fill:#aa6941"
           id="path36" />
      </g>
      <g
         transform="matrix(0.44361875,0,0,0.52751,201.56616,-190.5131)"
         id="g42"
         style="clip-rule:evenodd;fill-rule:evenodd;stroke-linejoin:round;stroke-miterlimit:2">
        <path
           d="m 1363.19,870.546 c -0.97,-18.147 -31.39,-40.997 -44.17,-54.78 -23.03,-24.855 -164.73,-80.114 -205.11,-95.532 -65.88,-25.156 -97.73,-93.381 -160.154,-121.756 -9.386,-4.266 -23.409,1.125 -33.717,-0.937 -23.847,-4.769 -45.51,-13.748 -70.244,-14.985 -26.047,-1.302 -122.93,22.609 -142.361,40.273 -13.743,12.494 -19.667,30.651 -30.907,44.956 -21.184,26.962 -46.621,52.657 -74.927,72.117 -68.747,47.264 -109.887,62.37 -161.093,130.644 z"
           style="fill:#aa6941"
           id="path40" />
      </g>
      <g
         transform="matrix(0.44361875,0,0,0.52751,610.88366,-190.5131)"
         id="g46"
         style="clip-rule:evenodd;fill-rule:evenodd;stroke-linejoin:round;stroke-miterlimit:2">
        <path
           d="m 1363.19,870.546 c -0.97,-18.147 -31.39,-40.997 -44.17,-54.78 -23.03,-24.855 -164.73,-80.114 -205.11,-95.532 -65.88,-25.156 -97.73,-93.381 -160.154,-121.756 -9.386,-4.266 -23.409,1.125 -33.717,-0.937 -23.847,-4.769 -45.51,-13.748 -70.244,-14.985 -26.047,-1.302 -122.93,22.609 -142.361,40.273 -13.743,12.494 -19.667,30.651 -30.907,44.956 -21.184,26.962 -46.621,52.657 -74.927,72.117 -68.747,47.264 -109.887,62.37 -161.093,130.644 z"
           style="fill:#aa6941"
           id="path44" />
      </g>
      <g
         transform="matrix(0.52751,0,0,0.52751,-692.54134,-184.24576)"
         id="g50"
         style="clip-rule:evenodd;fill-rule:evenodd;stroke-linejoin:round;stroke-miterlimit:2">
        <path
           d="m 730.26,621.436 c 2.179,2.156 4.691,4.315 8.314,5.996 39.363,18.258 49.091,6.099 75.823,40.567 5.809,7.49 3.522,33.541 4.872,34.703 3.35,2.884 10.833,2.591 14.913,4.119 9.983,3.741 24.291,18.969 28.598,27.522 8.512,16.906 -41.674,18.615 -30.009,33.657 6.002,7.739 -28.451,45.707 -17.543,51.016 4.91,2.39 16.579,19.164 21.764,21.362 21.207,8.987 290.408,18.287 290.408,18.287 0,0 -30.27,-142.454 -47.57,-150.313 -55.41,-25.155 -82.192,-93.381 -134.69,-121.756 -7.893,-4.266 -19.686,1.125 -28.354,-0.936 -20.055,-4.77 -38.273,-13.749 -59.073,-14.986 -21.905,-1.302 -103.381,22.609 -119.721,40.273 -2.943,3.181 -5.459,6.729 -7.732,10.489 z"
           style="fill:#955935"
           id="path48" />
      </g>
      <g
         transform="matrix(0.52751,0,0,0.52751,-283.22134,-184.24576)"
         id="g54"
         style="clip-rule:evenodd;fill-rule:evenodd;stroke-linejoin:round;stroke-miterlimit:2">
        <path
           d="m 730.26,621.436 c 2.179,2.156 4.691,4.315 8.314,5.996 39.363,18.258 49.091,6.099 75.823,40.567 5.809,7.49 3.522,33.541 4.872,34.703 3.35,2.884 10.833,2.591 14.913,4.119 9.983,3.741 24.291,18.969 28.598,27.522 8.512,16.906 -41.674,18.615 -30.009,33.657 6.002,7.739 -28.451,45.707 -17.543,51.016 4.91,2.39 16.579,19.164 21.764,21.362 21.207,8.987 290.408,18.287 290.408,18.287 0,0 -30.27,-142.454 -47.57,-150.313 -55.41,-25.155 -82.192,-93.381 -134.69,-121.756 -7.893,-4.266 -19.686,1.125 -28.354,-0.936 -20.055,-4.77 -38.273,-13.749 -59.073,-14.986 -21.905,-1.302 -103.381,22.609 -119.721,40.273 -2.943,3.181 -5.459,6.729 -7.732,10.489 z"
           style="fill:#955935"
           id="path52" />
      </g>
      <g
         transform="matrix(0.52751,0,0,0.52751,126.09991,-184.24576)"
         id="g58"
         style="clip-rule:evenodd;fill-rule:evenodd;stroke-linejoin:round;stroke-miterlimit:2">
        <path
           d="m 730.26,621.436 c 2.179,2.156 4.691,4.315 8.314,5.996 39.363,18.258 49.091,6.099 75.823,40.567 5.809,7.49 3.522,33.541 4.872,34.703 3.35,2.884 10.833,2.591 14.913,4.119 9.983,3.741 24.291,18.969 28.598,27.522 8.512,16.906 -41.674,18.615 -30.009,33.657 6.002,7.739 -28.451,45.707 -17.543,51.016 4.91,2.39 16.579,19.164 21.764,21.362 21.207,8.987 290.408,18.287 290.408,18.287 0,0 -30.27,-142.454 -47.57,-150.313 -55.41,-25.155 -82.192,-93.381 -134.69,-121.756 -7.893,-4.266 -19.686,1.125 -28.354,-0.936 -20.055,-4.77 -38.273,-13.749 -59.073,-14.986 -21.905,-1.302 -103.381,22.609 -119.721,40.273 -2.943,3.181 -5.459,6.729 -7.732,10.489 z"
           style="fill:#955935"
           id="path56" />
      </g>
      <g
         transform="matrix(0.52751,0,0,0.52751,535.42116,-184.24576)"
         id="g62"
         style="clip-rule:evenodd;fill-rule:evenodd;stroke-linejoin:round;stroke-miterlimit:2">
        <path
           d="m 730.26,621.436 c 2.179,2.156 4.691,4.315 8.314,5.996 39.363,18.258 49.091,6.099 75.823,40.567 5.809,7.49 3.522,33.541 4.872,34.703 3.35,2.884 10.833,2.591 14.913,4.119 9.983,3.741 24.291,18.969 28.598,27.522 8.512,16.906 -41.674,18.615 -30.009,33.657 6.002,7.739 -28.451,45.707 -17.543,51.016 4.91,2.39 16.579,19.164 21.764,21.362 21.207,8.987 290.408,18.287 290.408,18.287 0,0 -30.27,-142.454 -47.57,-150.313 -55.41,-25.155 -82.192,-93.381 -134.69,-121.756 -7.893,-4.266 -19.686,1.125 -28.354,-0.936 -20.055,-4.77 -38.273,-13.749 -59.073,-14.986 -21.905,-1.302 -103.381,22.609 -119.721,40.273 -2.943,3.181 -5.459,6.729 -7.732,10.489 z"
           style="fill:#955935"
           id="path60" />
      </g>
      <g
         transform="matrix(0.52751,0,0,0.52751,-692.54134,-184.24576)"
         id="g66"
         style="clip-rule:evenodd;fill-rule:evenodd;stroke-linejoin:round;stroke-miterlimit:2">
        <path
           d="m 852.878,570.722 c 0.105,0.214 0.212,0.431 0.32,0.646 2.396,4.792 22.219,20.954 42.348,25.591 21.141,4.871 26.11,28.575 27.242,30.69 7.431,13.889 21.38,8.666 28.874,15.352 37.198,33.188 66.328,93.558 96.348,135.353 23.49,32.717 51.8,59.74 81.16,80.311 h 160.29 c -0.82,-18.148 -26.4,-40.998 -37.14,-54.781 -19.37,-24.855 -138.54,-80.114 -172.49,-95.532 -55.41,-25.155 -82.192,-93.381 -134.69,-121.756 -7.893,-4.266 -19.686,1.125 -28.354,-0.936 -20.055,-4.77 -38.273,-13.749 -59.073,-14.986 -1.385,-0.082 -3.007,-0.064 -4.835,0.048 z"
           style="fill:#855233"
           id="path64" />
      </g>
      <g
         transform="matrix(0.52751,0,0,0.52751,-283.22134,-184.24576)"
         id="g70"
         style="clip-rule:evenodd;fill-rule:evenodd;stroke-linejoin:round;stroke-miterlimit:2">
        <path
           d="m 852.878,570.722 c 0.105,0.214 0.212,0.431 0.32,0.646 2.396,4.792 22.219,20.954 42.348,25.591 21.141,4.871 26.11,28.575 27.242,30.69 7.431,13.889 21.38,8.666 28.874,15.352 37.198,33.188 66.328,93.558 96.348,135.353 23.49,32.717 51.8,59.74 81.16,80.311 h 160.29 c -0.82,-18.148 -26.4,-40.998 -37.14,-54.781 -19.37,-24.855 -138.54,-80.114 -172.49,-95.532 -55.41,-25.155 -82.192,-93.381 -134.69,-121.756 -7.893,-4.266 -19.686,1.125 -28.354,-0.936 -20.055,-4.77 -38.273,-13.749 -59.073,-14.986 -1.385,-0.082 -3.007,-0.064 -4.835,0.048 z"
           style="fill:#855233"
           id="path68" />
      </g>
      <g
         transform="matrix(0.52751,0,0,0.52751,126.09991,-184.24576)"
         id="g74"
         style="clip-rule:evenodd;fill-rule:evenodd;stroke-linejoin:round;stroke-miterlimit:2">
        <path
           d="m 852.878,570.722 c 0.105,0.214 0.212,0.431 0.32,0.646 2.396,4.792 22.219,20.954 42.348,25.591 21.141,4.871 26.11,28.575 27.242,30.69 7.431,13.889 21.38,8.666 28.874,15.352 37.198,33.188 66.328,93.558 96.348,135.353 23.49,32.717 51.8,59.74 81.16,80.311 h 160.29 c -0.82,-18.148 -26.4,-40.998 -37.14,-54.781 -19.37,-24.855 -138.54,-80.114 -172.49,-95.532 -55.41,-25.155 -82.192,-93.381 -134.69,-121.756 -7.893,-4.266 -19.686,1.125 -28.354,-0.936 -20.055,-4.77 -38.273,-13.749 -59.073,-14.986 -1.385,-0.082 -3.007,-0.064 -4.835,0.048 z"
           style="fill:#855233"
           id="path72" />
      </g>
      <g
         transform="matrix(0.52751,0,0,0.52751,535.42116,-184.24576)"
         id="g78"
         style="clip-rule:evenodd;fill-rule:evenodd;stroke-linejoin:round;stroke-miterlimit:2">
        <path
           d="m 852.878,570.722 c 0.105,0.214 0.212,0.431 0.32,0.646 2.396,4.792 22.219,20.954 42.348,25.591 21.141,4.871 26.11,28.575 27.242,30.69 7.431,13.889 21.38,8.666 28.874,15.352 37.198,33.188 66.328,93.558 96.348,135.353 23.49,32.717 51.8,59.74 81.16,80.311 h 160.29 c -0.82,-18.148 -26.4,-40.998 -37.14,-54.781 -19.37,-24.855 -138.54,-80.114 -172.49,-95.532 -55.41,-25.155 -82.192,-93.381 -134.69,-121.756 -7.893,-4.266 -19.686,1.125 -28.354,-0.936 -20.055,-4.77 -38.273,-13.749 -59.073,-14.986 -1.385,-0.082 -3.007,-0.064 -4.835,0.048 z"
           style="fill:#855233"
           id="path76" />
      </g>
      <g
         transform="matrix(0.44361875,0,0,0.52751,-617.07384,-198.1352)"
         id="g82"
         style="clip-rule:evenodd;fill-rule:evenodd;stroke-linejoin:round;stroke-miterlimit:2">
        <path
           d="m 945.905,611.338 c 29.225,13.374 51.027,36.305 73.545,58.583 25.66,25.393 52.14,50.02 87.36,63.469 27.96,10.677 108.54,38.14 159.74,63.852 12.16,6.106 22.57,12.043 29.85,17.635 3.21,2.458 5.78,4.602 6.93,6.766 16.85,31.837 34.98,45.543 52.97,48.253 13.24,1.993 27.95,-1.283 44.56,-10.69 30.44,-17.251 71.35,-57.834 135.25,-108.822 27.77,-22.159 55.53,-46.747 77.44,-74.633 10.74,-13.666 16.06,-31.175 29.18,-43.11 6.69,-6.076 24.43,-12.35 44.26,-18.414 32.05,-9.796 70,-17.971 84.47,-17.247 23.72,1.186 44.42,10.044 67.29,14.618 5.93,1.186 29.43,-0.286 29.84,-0.26 29.23,13.374 51.03,36.305 73.54,58.583 25.67,25.393 52.14,50.02 87.37,63.469 27.97,10.683 105.1,40.671 156.68,66.152 19.46,9.618 35.21,18.135 41.6,24.715 0.86,1.441 13.32,22.023 26.84,32.387 13.8,10.586 31.52,16.436 52.91,9.562 19.23,-6.183 42.29,-22.24 65.29,-41.57 31.05,-26.1 62.58,-58.117 85.03,-73.547 29.59,-20.342 56.24,-47.154 78.38,-75.338 10.74,-13.666 16.06,-31.175 29.19,-43.11 6.68,-6.076 24.42,-12.35 44.26,-18.414 32.04,-9.796 70,-17.971 84.47,-17.247 23.72,1.186 44.42,10.044 67.29,14.618 5.92,1.186 29.43,-0.286 29.84,-0.26 29.22,13.374 51.02,36.305 73.54,58.583 25.67,25.393 52.14,50.02 87.36,63.469 27.98,10.683 105.11,40.671 156.68,66.152 19.6,9.684 35.43,18.252 41.74,24.851 0.5,0.912 9.32,16.882 18.11,26.334 13.86,14.91 33.96,25.391 62.26,15.558 18.44,-6.407 41.48,-22.724 64.62,-42.137 31.43,-26.373 63.64,-58.413 84.94,-73.059 29.59,-20.342 56.25,-47.154 78.39,-75.338 10.74,-13.666 16.06,-31.175 29.19,-43.11 6.68,-6.076 24.42,-12.35 44.26,-18.414 32.04,-9.796 69.99,-17.971 84.47,-17.247 23.72,1.186 44.41,10.044 67.28,14.618 5.93,1.186 29.43,-0.286 29.85,-0.26 29.22,13.374 51.02,36.305 73.54,58.583 25.66,25.393 52.13,50.02 87.36,63.469 27.97,10.683 105.1,40.671 156.68,66.152 19.86,9.81 35.84,18.476 41.98,25.106 6.52,7.036 17.52,15.81 27.04,25.118 6.56,6.415 13.18,12.696 13.52,19.081 0.43,7.967 8.47,14.142 17.94,13.783 9.47,-0.36 16.82,-7.12 16.39,-15.087 -0.53,-9.815 -6.65,-20.436 -15.84,-30.484 -10.22,-11.172 -24.26,-21.887 -31.94,-30.175 -7.68,-8.284 -26.88,-20.002 -51.68,-32.258 -52.64,-26.005 -131.33,-56.646 -159.88,-67.548 -30.66,-11.707 -53.05,-33.77 -75.39,-55.872 -25.41,-25.138 -50.66,-50.421 -83.7,-65.439 -6.52,-2.961 -33.28,-1.355 -37.92,-2.282 -24.82,-4.965 -47.45,-14.065 -73.2,-15.352 -16.78,-0.84 -61.09,7.576 -98.24,18.934 -26.3,8.041 -48.89,17.894 -57.75,25.95 -14.36,13.053 -20.89,31.857 -32.63,46.803 -20.22,25.74 -44.44,50.318 -71.47,68.896 -21.89,15.055 -55.15,47.865 -87.46,74.974 -19.36,16.242 -38.05,30.526 -53.47,35.887 -10.22,3.549 -17.07,-1.268 -22.07,-6.649 -9.42,-10.136 -14.79,-22.764 -17.83,-26.044 -7.68,-8.284 -26.87,-20.002 -51.68,-32.258 -52.64,-26.005 -131.33,-56.646 -159.88,-67.548 -30.66,-11.707 -53.05,-33.77 -75.39,-55.872 -25.4,-25.138 -50.66,-50.421 -83.7,-65.439 -6.52,-2.961 -33.27,-1.355 -37.91,-2.282 -24.83,-4.965 -47.45,-14.065 -73.2,-15.352 -16.79,-0.84 -61.09,7.576 -98.25,18.934 -26.3,8.041 -48.88,17.894 -57.74,25.95 -14.36,13.053 -20.89,31.857 -32.63,46.803 -20.23,25.74 -44.45,50.318 -71.47,68.896 -23.07,15.863 -55.65,48.649 -87.57,75.481 -18.99,15.959 -37.39,29.911 -53.27,35.017 -9.8,3.15 -16.8,-2.63 -22.26,-8.182 -9.79,-9.953 -15.66,-21.907 -17.74,-24.148 -7.67,-8.284 -26.87,-20.002 -51.68,-32.258 -52.63,-26.005 -131.33,-56.646 -159.88,-67.548 -30.65,-11.707 -53.05,-33.77 -75.38,-55.872 -25.41,-25.138 -50.67,-50.421 -83.71,-65.439 -6.51,-2.961 -33.27,-1.355 -37.91,-2.282 -24.82,-4.965 -47.45,-14.065 -73.2,-15.352 -16.78,-0.84 -61.09,7.576 -98.24,18.934 -26.31,8.041 -48.89,17.894 -57.75,25.95 -14.36,13.053 -20.89,31.857 -32.63,46.803 -20.46,26.037 -46.49,48.911 -72.42,69.601 -30.13,24.039 -88.51,71.274 -91.64,76.88 -12.77,22.921 -61.66,46.649 -69.89,27.752 -3.14,-7.219 -10.67,-13.709 -16.21,-24.164 -5.61,-10.603 -24.38,-24.31 -50.55,-37.457 -52.31,-26.272 -134.59,-54.446 -163.15,-65.354 -30.66,-11.707 -53.05,-33.77 -75.39,-55.872 -25.4,-25.138 -50.665,-50.421 -83.704,-65.439 -6.515,-2.961 -33.274,-1.355 -37.912,-2.282 -24.825,-4.965 -47.451,-14.065 -73.199,-15.352 -16.784,-0.84 -61.089,7.576 -98.247,18.934 -26.302,8.041 -48.884,17.894 -57.746,25.95 -14.358,13.053 -20.886,31.857 -32.63,46.803 -20.224,25.74 -44.444,50.318 -71.467,68.896 -70.437,48.426 -112.285,64.169 -164.75,134.122 -5.059,6.745 -2.654,15.675 5.366,19.93 8.021,4.254 18.64,2.232 23.699,-4.513 49.946,-66.596 90.379,-81.065 157.435,-127.166 29.588,-20.342 56.242,-47.154 78.387,-75.338 10.737,-13.666 16.056,-31.175 29.185,-43.11 6.684,-6.076 24.423,-12.35 44.26,-18.414 32.044,-9.796 69.995,-17.971 84.468,-17.247 23.72,1.186 44.419,10.044 67.289,14.618 5.926,1.186 29.429,-0.286 29.841,-0.26 z"
           style="fill:#4d311f"
           id="path80" />
      </g>
    </g>
  </g>
</svg>
