<?xml version="1.0" encoding="UTF-8" standalone="no"?>
<svg
   version="1.1"
   id="svg833"
   width="2458.7739"
   height="965.05969"
   viewBox="0 0 3073.4674 1206.3246"
   sodipodi:docname="2023-SK-02_explanation.svg"
   inkscape:version="1.1.1 (3bf5ae0d25, 2021-09-20)"
   xmlns:inkscape="http://www.inkscape.org/namespaces/inkscape"
   xmlns:sodipodi="http://sodipodi.sourceforge.net/DTD/sodipodi-0.dtd"
   xmlns="http://www.w3.org/2000/svg"
   xmlns:svg="http://www.w3.org/2000/svg"
   xmlns:rdf="http://www.w3.org/1999/02/22-rdf-syntax-ns#"
   xmlns:cc="http://creativecommons.org/ns#"
   xmlns:dc="http://purl.org/dc/elements/1.1/">
  <metadata
     id="metadata839">
    <rdf:RDF>
      <cc:Work
         rdf:about="">
        <dc:format>image/svg+xml</dc:format>
        <dc:type
           rdf:resource="http://purl.org/dc/dcmitype/StillImage" />
      </cc:Work>
    </rdf:RDF>
  </metadata>
  <defs
     id="defs837" />
  <sodipodi:namedview
     pagecolor="#ffffff"
     bordercolor="#666666"
     borderopacity="1"
     objecttolerance="10"
     gridtolerance="10"
     guidetolerance="10"
     inkscape:pageopacity="0"
     inkscape:pageshadow="2"
     inkscape:window-width="2048"
     inkscape:window-height="1017"
     id="namedview835"
     showgrid="false"
     inkscape:zoom="0.33224978"
     inkscape:cx="1200.9037"
     inkscape:cy="814.14651"
     inkscape:window-x="-8"
     inkscape:window-y="-8"
     inkscape:window-maximized="1"
     inkscape:current-layer="g2158"
     inkscape:document-rotation="0"
     inkscape:showpageshadow="2"
     inkscape:pagecheckerboard="0"
     inkscape:deskcolor="#d1d1d1"
     fit-margin-left="0.5"
     fit-margin-right="0.5"
     fit-margin-top="0.5"
     fit-margin-bottom="0.5" />
  <g
     inkscape:groupmode="layer"
     inkscape:label="Image"
     id="g841"
     transform="translate(1474.0428,758.11656)">
    <g
       id="g2158">
      <text
         xml:space="preserve"
         style="font-size:146.036px;line-height:1.25;font-family:sans-serif;stroke-width:5.47634"
         x="-1303.0356"
         y="-649.10547"
         id="text7524"><tspan
           sodipodi:role="line"
           id="tspan7522"
           style="stroke-width:5.47634"
           x="-1303.0356"
           y="-649.10547">1</tspan></text>
      <text
         xml:space="preserve"
         style="font-size:146.036px;line-height:1.25;font-family:sans-serif;stroke-width:5.47634"
         x="-801.05743"
         y="-648.37518"
         id="text8672"><tspan
           sodipodi:role="line"
           id="tspan8670"
           style="stroke-width:5.47634"
           x="-801.05743"
           y="-648.37518">2</tspan></text>
      <text
         xml:space="preserve"
         style="font-size:146.036px;line-height:1.25;font-family:sans-serif;stroke-width:5.47634"
         x="693.61328"
         y="302.56396"
         id="text8672-6"><tspan
           sodipodi:role="line"
           id="tspan8670-69"
           style="stroke-width:5.47634"
           x="693.61328"
           y="302.56396">2</tspan></text>
      <text
         xml:space="preserve"
         style="font-size:146.036px;line-height:1.25;font-family:sans-serif;stroke-width:5.47634"
         x="-308.17242"
         y="-649.10547"
         id="text9600"><tspan
           sodipodi:role="line"
           id="tspan9598"
           style="stroke-width:5.47634"
           x="-308.17242"
           y="-649.10547">3</tspan></text>
      <text
         xml:space="preserve"
         style="font-size:146.036px;line-height:1.25;font-family:sans-serif;stroke-width:5.47634"
         x="627.97968"
         y="19.362801"
         id="text9600-9"><tspan
           sodipodi:role="line"
           id="tspan9598-0"
           style="stroke-width:5.47634"
           x="627.97968"
           y="19.362801">3</tspan></text>
      <text
         xml:space="preserve"
         style="font-size:146.036px;line-height:1.25;font-family:sans-serif;stroke-width:5.47634"
         x="52.426838"
         y="-648.81348"
         id="text10660"><tspan
           sodipodi:role="line"
           id="tspan10658"
           style="stroke-width:5.47634"
           x="52.426838"
           y="-648.81348">4</tspan></text>
      <text
         xml:space="preserve"
         style="font-size:146.036px;line-height:1.25;font-family:sans-serif;stroke-width:5.47634"
         x="54.489216"
         y="169.92331"
         id="text10660-1"><tspan
           sodipodi:role="line"
           id="tspan10658-07"
           style="stroke-width:5.47634"
           x="54.489216"
           y="169.92331">4</tspan></text>
      <text
         xml:space="preserve"
         style="font-size:146.036px;line-height:1.25;font-family:sans-serif;stroke-width:5.47634"
         x="577.92242"
         y="-649.83575"
         id="text11368"><tspan
           sodipodi:role="line"
           id="tspan11366"
           style="stroke-width:5.47634"
           x="577.92242"
           y="-649.83575">5</tspan></text>
      <text
         xml:space="preserve"
         style="font-size:146.036px;line-height:1.25;font-family:sans-serif;stroke-width:5.47634"
         x="-222.40416"
         y="83.68544"
         id="text11368-0"><tspan
           sodipodi:role="line"
           id="tspan11366-90"
           style="stroke-width:5.47634"
           x="-222.40416"
           y="83.68544">5</tspan></text>
      <text
         xml:space="preserve"
         style="font-size:146.036px;line-height:1.25;font-family:sans-serif;stroke-width:5.47634"
         x="1133.7841"
         y="-649.10547"
         id="text12120"><tspan
           sodipodi:role="line"
           id="tspan12118"
           style="stroke-width:5.47634"
           x="1133.7841"
           y="-649.10547">6</tspan></text>
      <text
         xml:space="preserve"
         style="font-size:146.036px;line-height:1.25;font-family:sans-serif;stroke-width:5.47634"
         x="-651.96002"
         y="95.289261"
         id="text12120-2"><tspan
           sodipodi:role="line"
           id="tspan12118-4"
           style="stroke-width:5.47634"
           x="-651.96002"
           y="95.289261">6</tspan></text>
      <text
         xml:space="preserve"
         style="font-size:146.036px;line-height:1.25;font-family:sans-serif;stroke-width:5.47634"
         x="1518.3657"
         y="-647.03766"
         id="text13102"><tspan
           sodipodi:role="line"
           id="tspan13100"
           style="stroke-width:5.47634"
           x="1518.3657"
           y="-647.03766">7</tspan></text>
      <path
         d="m -1099.9959,-457.91446 c 4.7587,-10.79039 9.5912,-25.08609 13.0212,-38.01197 2.1438,-8.07585 3.7413,-15.60695 4.3725,-21.37158 0.2113,-1.92462 0.1875,-4.23499 0.1513,-5.48013 -1.7225,-1.84512 -2.4913,-4.50611 -1.8075,-7.12693 1.0612,-4.07098 5.2287,-6.51357 9.2987,-5.45168 3.0013,0.78323 5.87,2.97562 7.1563,7.56792 1.5775,5.63409 -0.2125,19.85197 -4.4375,35.77188 -5.9538,22.43598 -16.1138,48.51534 -23.2713,57.13844 -2.28,2.74802 -4.6862,4.28436 -6.9312,4.99061 -1.905,1.01252 -4.5513,1.27192 -8.1025,-0.0159 -1.245,-0.45186 -2.9888,-1.27526 -5.1163,-2.4133 -12.445,-4.90358 -23.25,-12.7242 -32.4125,-21.30296 -8.7962,-6.59222 -17.525,-13.82961 -24.3662,-20.73312 -5.2938,-5.34289 -9.4875,-10.53517 -11.97,-15.08814 -2.2788,-4.17808 -3.2275,-8.06329 -3.0475,-11.35522 0.2787,-5.08349 2.83,-7.25663 4.4375,-8.18463 2.1675,-1.251 7.3687,-2.26268 12.2412,3.41075 4.065,4.73371 11.9025,17.86628 23.6213,31.17206 1.8037,2.04678 3.7025,4.10193 5.7,6.12864 9.8862,7.30098 20.2587,14.10156 27.3362,18.5901 -1.2175,-8.59466 -4.5337,-22.5205 -13.2837,-45.82339 -25.345,-67.50292 -85.59,-90.54389 -140.0425,-88.37075 -79.01,3.15385 -148.7188,48.91114 -191.5375,134.07447 -1.8888,3.75886 -6.475,5.27596 -10.2338,3.38565 -3.7575,-1.88947 -5.275,-6.47507 -3.385,-10.23309 45.65,-90.79743 120.3113,-139.09604 204.5488,-142.45826 60.3225,-2.40828 126.8437,23.46272 154.9212,98.24318 7.4763,19.91055 11.255,33.51088 13.1388,42.94735 z"
         style="clip-rule:evenodd;fill:#00079d;fill-rule:evenodd;stroke-width:1.02273;stroke-linejoin:round;stroke-miterlimit:2"
         id="path93" />
      <text
         xml:space="preserve"
         style="font-size:146.036px;line-height:1.25;font-family:sans-serif;stroke-width:5.47634"
         x="332.11432"
         y="237.67899"
         id="text7524-0"><tspan
           sodipodi:role="line"
           id="tspan7522-5"
           style="stroke-width:5.47634"
           x="332.11432"
           y="237.67899">1</tspan></text>
      <path
         d="m 553.77634,216.04621 c 4.75875,-10.79039 9.59125,-25.08609 13.02125,-38.01197 2.14375,-8.07585 3.74125,-15.60695 4.3725,-21.37158 0.21125,-1.92462 0.1875,-4.23499 0.15125,-5.48013 -1.7225,-1.84512 -2.49125,-4.50611 -1.8075,-7.12693 1.06125,-4.07098 5.22875,-6.51357 9.29875,-5.45168 3.00125,0.78323 5.87,2.97562 7.15625,7.56792 1.5775,5.63409 -0.2125,19.85197 -4.4375,35.77188 -5.95375,22.43598 -16.11375,48.51534 -23.27125,57.13844 -2.28,2.74802 -4.68625,4.28436 -6.93125,4.99061 -1.905,1.01252 -4.55125,1.27192 -8.1025,-0.0159 -1.245,-0.45186 -2.98875,-1.27526 -5.11625,-2.4133 -12.445,-4.90358 -23.25,-12.7242 -32.4125,-21.30296 -8.79625,-6.59222 -17.525,-13.82961 -24.36625,-20.73312 -5.29375,-5.34289 -9.4875,-10.53517 -11.97,-15.08814 -2.27875,-4.17808 -3.2275,-8.06329 -3.0475,-11.35522 0.27875,-5.08349 2.83,-7.25663 4.4375,-8.18463 2.1675,-1.251 7.36875,-2.26268 12.24125,3.41075 4.065,4.73371 11.9025,17.86628 23.62125,31.17206 1.80375,2.04678 3.7025,4.10193 5.7,6.12864 9.88625,7.30098 20.25875,14.10156 27.33625,18.5901 -1.2175,-8.59466 -4.53375,-22.5205 -13.28375,-45.82339 -25.345,-67.50292 -85.59,-90.54389 -140.0425,-88.37075 -79.01,3.15385 -148.71875,48.91114 -191.5375,134.07447 -1.88875,3.75886 -6.475,5.27596 -10.23375,3.38565 -3.7575,-1.88947 -5.275,-6.47507 -3.385,-10.23309 45.65,-90.79743 120.31125,-139.09604 204.54875,-142.45826 60.3225,-2.40828 126.84375,23.46272 154.92125,98.24318 7.47625,19.91055 11.255,33.51088 13.13875,42.94735 z"
         style="clip-rule:evenodd;fill:#00079d;fill-rule:evenodd;stroke-width:1.02273;stroke-linejoin:round;stroke-miterlimit:2"
         id="path93-1" />
      <path
         d="m -1333.0902,-255.58045 c 0.4303,-9.57272 13.9252,-21.62633 19.5947,-28.897 10.2165,-13.11126 73.0773,-42.26093 90.9906,-50.39408 29.2256,-13.27004 43.3549,-49.25941 71.0473,-64.22751 4.1638,-2.25036 10.3847,0.59345 14.9575,-0.49428 10.579,-2.51569 20.1891,-7.2522 31.1616,-7.90473 11.5549,-0.68682 54.534,11.92647 63.154,21.24441 6.0966,6.59071 8.7246,16.1687 13.7109,23.71474 9.3976,14.22272 20.6819,27.77709 33.23902,38.04243 30.49746,24.93224 48.74793,32.9008 71.46388,68.91602 z"
         style="font-variation-settings:normal;clip-rule:evenodd;vector-effect:none;fill:#855233;fill-opacity:1;fill-rule:evenodd;stroke-width:0.527509;stroke-linecap:butt;stroke-linejoin:miter;stroke-miterlimit:2;stroke-dasharray:none;stroke-dashoffset:0;stroke-opacity:1;-inkscape-stroke:none;stop-color:#000000"
         id="path85" />
      <path
         d="m -1038.1055,-380.72098 c -1.1494,1.13732 -2.4746,2.27621 -4.3857,3.16295 -20.7644,9.63128 -25.896,3.21729 -39.9974,21.3995 -3.0643,3.95105 -1.8579,17.69322 -2.57,18.30618 -1.7672,1.52134 -5.7146,1.36678 -7.8668,2.17282 -5.2661,1.97341 -12.8137,10.00633 -15.0857,14.51813 -4.4902,8.91808 21.9834,9.81959 15.83,17.7544 -3.1661,4.0824 15.0082,24.1109 9.2541,26.91145 -2.59,1.26075 -8.7456,10.1092 -11.4807,11.26867 -11.1869,4.74073 -153.1931,9.64657 -153.1931,9.64657 0,0 15.9677,-75.14591 25.0936,-79.29161 29.2294,-13.26951 43.3571,-49.25941 71.0503,-64.2275 4.1637,-2.25036 10.3846,0.59344 14.9571,-0.49375 10.5792,-2.51623 20.1894,-7.25274 31.1616,-7.90527 11.5551,-0.68682 54.5345,11.92648 63.154,21.24441 1.5525,1.67801 2.8797,3.54962 4.0787,5.53305 z"
         style="clip-rule:evenodd;fill:#955935;fill-rule:evenodd;stroke-width:0.52751;stroke-linejoin:round;stroke-miterlimit:2"
         id="path101" />
      <path
         d="m -1102.7877,-407.47312 c -0.055,0.11289 -0.1119,0.22736 -0.1688,0.34077 -1.2639,2.52783 -11.7208,11.05345 -22.339,13.49951 -11.1521,2.5695 -13.7733,15.0736 -14.3704,16.18928 -3.92,7.32659 -11.2782,4.57141 -15.2314,8.09834 -19.6223,17.507 -34.9887,49.35278 -50.8245,71.40006 -12.3912,17.25854 -27.325,31.51345 -42.8127,42.36485 h -84.5546 c 0.4326,-9.57325 13.9263,-21.62685 19.5917,-28.89752 10.2179,-13.11126 73.0813,-42.26094 90.9902,-50.39409 29.2294,-13.26951 43.3571,-49.25941 71.0503,-64.2275 4.1637,-2.25036 10.3846,0.59344 14.9571,-0.49375 10.5792,-2.51623 20.1894,-7.25274 31.1616,-7.90527 0.7306,-0.0433 1.5862,-0.0338 2.5505,0.0253 z"
         style="font-variation-settings:normal;clip-rule:evenodd;vector-effect:none;fill:#aa6941;fill-opacity:1;fill-rule:evenodd;stroke-width:0.483749;stroke-linecap:butt;stroke-linejoin:miter;stroke-miterlimit:2;stroke-dasharray:none;stroke-dashoffset:0;stroke-opacity:1;-inkscape-stroke:none;stop-color:#000000"
         id="path109" />
      <path
         d="m -1147.9747,-392.31526 c -12.9648,7.05492 -22.6366,19.15125 -32.626,30.90312 -11.3832,13.39506 -23.1303,26.38605 -38.7545,33.48053 -12.3504,5.60901 -57.3821,31.55354 -85.6761,51.93916 -7.0358,5.06884 -13.0158,9.76738 -17.0926,13.70366 -1.9386,1.87055 -3.4336,3.3692 -4.0059,4.65685 -1.7124,3.84291 -6.2195,5.57367 -10.0613,3.86296 -3.8462,-1.71124 -5.5763,-6.2204 -3.8639,-10.06331 2.3689,-5.32416 12.2838,-14.5656 26.1114,-24.52816 29.1458,-20.99859 75.5616,-47.67371 88.2846,-53.451 13.6013,-6.17556 23.5339,-17.81402 33.4444,-29.47304 11.2679,-13.26055 22.4759,-26.59758 37.1327,-34.51973 2.8901,-1.56196 14.7609,-0.71478 16.8184,-1.20378 11.0129,-2.61908 21.0502,-7.41943 32.4725,-8.09833 7.4457,-0.44311 27.1002,3.99641 43.5842,9.98787 11.668,4.24171 21.6858,9.43927 25.6172,13.68889 6.3695,6.88559 9.2654,16.80488 14.4753,24.68905 8.9717,13.57811 19.7162,26.54325 31.70407,36.34333 31.24718,25.5452 49.81174,33.84979 73.08619,70.75069 2.24427,3.55806 1.17737,8.26872 -2.38046,10.51328 -3.55826,2.24403 -8.26905,1.1774 -10.51332,-2.38065 -22.15698,-35.13006 -40.09382,-42.7626 -69.84108,-67.08134 -13.1258,-10.73061 -24.95,-24.87421 -34.774,-39.74155 -4.7631,-7.20895 -7.1227,-16.44512 -12.947,-22.74096 -2.9651,-3.20515 -10.8345,-6.51474 -19.6346,-9.71357 -14.2153,-5.16748 -31.0511,-9.47988 -37.4715,-9.09796 -10.5227,0.62563 -19.7051,5.29831 -29.8507,7.71114 -2.6289,0.62563 -13.0553,-0.15087 -13.238,-0.13715 z"
         style="clip-rule:evenodd;fill:#4d311f;fill-rule:evenodd;stroke-width:0.483749;stroke-linejoin:round;stroke-miterlimit:2"
         id="path117" />
      <path
         d="m -766.85893,-494.50177 c 5.47283,-4.45495 18.84646,1.75234 21.35372,6.76205 5.31586,10.62449 13.7515,18.6198 16.42864,26.14584 12.71301,35.73706 0.28509,70.56855 -35.47383,101.7184 -1.30598,1.13786 -4.33941,4.04984 -7.54578,3.65384 -2.94197,-0.36244 -6.07536,-3.93331 -7.17626,-5.19771 -16.90878,-19.42899 -33.65935,-39.0017 -27.43856,-79.70951 2.19456,-19.20915 10.02366,-33.41187 21.90577,-43.11621 5.23873,-4.27922 12.39497,-5.73743 17.9463,-10.2567 z"
         style="clip-rule:evenodd;fill:#9f7f6b;fill-rule:evenodd;stroke-width:0.966492;stroke-linejoin:round;stroke-miterlimit:2"
         id="path2" />
      <path
         d="m -766.98749,-357.88481 c -1.44153,1.00719 -3.24623,1.89389 -5.10869,1.66317 -2.94197,-0.36244 -6.07536,-3.93331 -7.17626,-5.19771 -16.90878,-19.42899 -33.65935,-39.0017 -27.43856,-79.70951 2.19456,-19.20915 10.02366,-33.41187 21.90577,-43.11621 5.23873,-4.27922 12.39497,-5.73743 17.9463,-10.2567 1.85666,-1.5117 4.62292,-1.79576 7.56655,-1.31481 -0.15573,0.1023 -0.30602,0.2124 -0.45137,0.33115 -5.55133,4.51928 -12.70707,5.97666 -17.94713,10.2562 -11.88161,9.70352 -16.1382,24.79288 -18.33144,44.0017 -1.36221,41.07162 6.95678,59.39471 23.86556,78.8237 0.85096,0.97745 2.9159,3.33296 5.16927,4.51902 z"
         style="clip-rule:evenodd;fill:#78665b;fill-rule:evenodd;stroke-width:0.966492;stroke-linejoin:round;stroke-miterlimit:2"
         id="path6" />
      <path
         d="m -786.16235,-369.47629 c -14.18271,-17.14088 -25.91618,-36.52948 -20.54865,-71.65257 2.19456,-19.20915 10.02366,-33.41187 21.90577,-43.11621 5.23873,-4.27922 12.39497,-5.73743 17.9463,-10.2567 5.47283,-4.45495 18.84646,1.75234 21.35372,6.76205 5.31586,10.62449 13.7515,18.6198 16.42864,26.14584 9.91608,27.8752 4.5362,55.19904 -15.28246,80.65679 2.67935,-7.48441 4.98289,-15.04048 7.43684,-22.61167 1.58252,-4.8821 3.671,-10.02501 4.16647,-15.18123 0.33828,-3.52154 -0.72113,-6.94603 -0.66352,-10.45563 0.13144,-7.98447 -0.35287,-15.85145 -1.60221,-23.70151 -0.9035,-5.68025 -0.77647,-11.12738 -2.59324,-16.65225 -0.10985,-0.33544 -0.34379,-1.04996 -0.6667,-1.85452 -7.07927,0.18735 -13.65026,5.05634 -20.6023,4.49253 -5.98752,-0.48478 -5.09862,-7.00156 -7.8137,-10.19596 -0.69959,-0.82251 -1.85235,-1.32399 -3.188,-1.64471 -2.73524,-0.65531 -22.93411,5.09844 -23.9709,9.67828 -0.53796,2.37354 -0.17755,4.74877 -0.83114,7.1472 -0.49171,1.80271 -1.94804,3.38849 -2.52235,5.24739 -2.92265,9.46467 -5.79578,19.30282 -5.57125,29.41238 0.078,3.51147 2.01108,7.0549 2.58613,10.5273 0.87026,5.25562 0.72166,10.91003 2.30666,16.04144 3.27356,10.59559 7.8427,20.85601 11.72589,31.21176 z"
         style="clip-rule:evenodd;fill:#c09578;fill-rule:evenodd;stroke-width:0.966492;stroke-linejoin:round;stroke-miterlimit:2"
         id="path10" />
      <path
         d="m -786.16235,-369.47629 c -14.18271,-17.14088 -25.91618,-36.52948 -20.54865,-71.65257 2.19456,-19.20915 10.02366,-33.41187 21.90577,-43.11621 3.83159,-3.12918 8.6875,-4.74994 13.1926,-7.16279 1.55851,-0.83466 -1.42609,2.37919 -6.07825,6.17863 -3.86835,3.16002 -6.92816,6.88989 -9.37104,11.14589 -3.59905,1.5921 -6.42351,3.38096 -6.79437,5.01958 -0.53796,2.37354 -0.17755,4.74877 -0.83114,7.1472 -0.49171,1.80271 -1.94804,3.38849 -2.52235,5.24739 -2.92265,9.46467 -5.79578,19.30282 -5.57125,29.41238 0.078,3.51147 2.01108,7.0549 2.58613,10.5273 0.87026,5.25562 0.72166,10.91003 2.30666,16.04144 3.27356,10.59559 7.8427,20.85601 11.72589,31.21176 z"
         style="clip-rule:evenodd;fill:#856651;fill-rule:evenodd;stroke-width:0.966492;stroke-linejoin:round;stroke-miterlimit:2"
         id="path14" />
      <path
         d="m -775.75755,-487.00748 c -17.07995,40.21852 -19.85133,78.92272 -5.95787,120.22414 0.41481,1.23308 3.91186,3.78921 3.52182,2.13273 -8.57166,-36.46518 -7.92576,-83.18844 6.82327,-120.62885 0.47669,-1.21071 -0.11956,-2.58078 -1.32944,-3.05696 -1.2107,-0.47669 -2.5811,0.11823 -3.05778,1.32894 z"
         style="clip-rule:evenodd;fill:#dabc9f;fill-rule:evenodd;stroke-width:0.966492;stroke-linejoin:round;stroke-miterlimit:2"
         id="path18" />
      <path
         d="m -754.62622,-487.06909 c 11.45106,36.40104 11.16937,72.81875 -6.06537,114.00563 -0.50184,1.19999 -2.0613,5.14468 -0.86181,5.64734 1.20082,0.50234 4.6804,-2.63888 5.21119,-3.82698 18.88772,-42.2615 19.07638,-79.71969 6.21303,-117.24037 -0.42195,-1.23062 -1.71461,-1.93207 -2.95571,-1.54133 -1.24193,0.39025 -1.93207,1.71461 -1.54133,2.95571 z"
         style="clip-rule:evenodd;fill:#dabc9f;fill-rule:evenodd;stroke-width:0.966492;stroke-linejoin:round;stroke-miterlimit:2"
         id="path22" />
      <path
         d="m -767.03842,-458.67638 c -2.86031,31.46986 -6.07762,63.33706 -6.6066,93.22223 -0.023,1.30124 2.08441,4.64631 4.12214,2.59118 0.91658,-0.92397 1.94843,-2.18943 2.05998,-3.48566 2.59082,-30.17775 4.16648,-60.94427 5.13131,-92.06601 0.0408,-1.30066 -0.92333,-2.41217 -2.22188,-2.48445 -1.29938,-0.0728 -2.413,0.92283 -2.48495,2.22271 z"
         style="clip-rule:evenodd;fill:#dabc9f;fill-rule:evenodd;stroke-width:0.966492;stroke-linejoin:round;stroke-miterlimit:2"
         id="path26" />
      <path
         d="m 635.62043,214.99582 c 6.35181,-3.07457 17.93607,6.04625 19.22199,11.49877 2.72572,11.56324 9.09293,21.2866 9.96456,29.22692 4.13963,37.70439 -15.97708,68.7367 -57.94941,90.81239 -1.53296,0.80645 -5.15556,2.94142 -8.1845,1.81753 -2.77938,-1.03034 -5.00601,-5.22693 -5.78608,-6.7109 -11.97892,-22.80127 -23.77078,-45.70596 -8.34078,-83.88631 6.56012,-18.18715 17.45011,-30.20465 31.24798,-36.91118 6.08353,-2.95748 13.38322,-2.72813 19.82624,-5.84722 z"
         style="clip-rule:evenodd;fill:#9f7f6b;fill-rule:evenodd;stroke-width:0.966492;stroke-linejoin:round;stroke-miterlimit:2"
         id="path2-2" />
      <path
         d="m 604.02748,347.9097 c -1.63476,0.64807 -3.59518,1.09523 -5.35441,0.44173 -2.77938,-1.03034 -5.00601,-5.22693 -5.78608,-6.7109 -11.97892,-22.80127 -23.77078,-45.70596 -8.34078,-83.88631 6.56012,-18.18715 17.45011,-30.20465 31.24798,-36.91118 6.08353,-2.95748 13.38322,-2.72813 19.82624,-5.84722 2.15493,-1.0434 4.91224,-0.68265 7.66594,0.4634 -0.1751,0.0637 -0.34671,0.1362 -0.51551,0.21828 -6.44302,3.11908 -13.74203,2.88905 -19.82693,5.84654 -13.79719,6.70584 -21.41496,20.40902 -27.97371,38.59615 -10.78587,39.65348 -6.91104,59.40005 5.06788,82.20132 0.60294,1.14718 2.06979,3.91498 3.98938,5.58819 z"
         style="clip-rule:evenodd;fill:#78665b;fill-rule:evenodd;stroke-width:0.966492;stroke-linejoin:round;stroke-miterlimit:2"
         id="path6-7" />
      <path
         d="m 588.03815,332.21323 c -9.85319,-19.94678 -16.80525,-41.51668 -3.49194,-74.45901 6.56012,-18.18715 17.45011,-30.20465 31.24798,-36.91118 6.08353,-2.95748 13.38322,-2.72813 19.82624,-5.84722 6.35181,-3.07457 17.93607,6.04625 19.22199,11.49877 2.72572,11.56324 9.09293,21.2866 9.96456,29.22692 3.22878,29.4097 -8.30012,54.75965 -33.44972,74.96791 4.33124,-6.66601 8.31328,-13.48832 12.44516,-20.2907 2.6645,-4.38631 5.88141,-8.90988 7.55123,-13.81333 1.14033,-3.34893 0.89818,-6.92536 1.76263,-10.32732 1.96702,-7.7395 3.30778,-15.5065 3.90019,-23.43325 0.42916,-5.73562 1.80745,-11.00703 1.31211,-16.80181 -0.0296,-0.35172 -0.0927,-1.10091 -0.22161,-1.95822 -6.93207,-1.44829 -14.44788,1.77624 -21.08312,-0.37372 -5.71486,-1.8509 -3.34882,-7.9877 -5.2551,-11.72158 -0.49133,-0.96154 -1.49758,-1.71505 -2.72344,-2.3348 -2.51075,-1.26771 -23.4918,-0.32121 -25.55561,3.89667 -1.07021,2.18581 -1.26659,4.58019 -2.45506,6.76358 -0.89371,1.64098 -2.67614,2.84867 -3.66318,4.5253 -5.02412,8.53699 -10.08608,17.44882 -12.19619,27.33826 -0.73295,3.43501 0.332,7.32842 0.0918,10.83991 -0.3637,5.31476 -1.81072,10.78289 -1.45029,16.14141 0.74499,11.06471 2.82792,22.10168 4.22139,33.07341 z"
         style="clip-rule:evenodd;fill:#c09578;fill-rule:evenodd;stroke-width:0.966492;stroke-linejoin:round;stroke-miterlimit:2"
         id="path10-7" />
      <path
         d="m 588.03815,332.21323 c -9.85319,-19.94678 -16.80525,-41.51668 -3.49194,-74.45901 6.56012,-18.18715 17.45011,-30.20465 31.24798,-36.91118 4.44933,-2.16247 9.54799,-2.62117 14.48772,-3.93145 1.70886,-0.45324 -1.93576,1.98674 -7.33798,4.61245 -4.4922,2.18403 -8.32886,5.10882 -11.68636,8.68771 -3.86899,0.72029 -7.02955,1.81048 -7.76787,3.31961 -1.07021,2.18581 -1.26659,4.58019 -2.45506,6.76358 -0.89371,1.64098 -2.67614,2.84867 -3.66318,4.5253 -5.02412,8.53699 -10.08608,17.44882 -12.19619,27.33826 -0.73295,3.43501 0.332,7.32842 0.0918,10.83991 -0.3637,5.31476 -1.81072,10.78289 -1.45029,16.14141 0.74499,11.06471 2.82792,22.10168 4.22139,33.07341 z"
         style="clip-rule:evenodd;fill:#856651;fill-rule:evenodd;stroke-width:0.966492;stroke-linejoin:round;stroke-miterlimit:2"
         id="path14-9" />
      <path
         d="m 625.23487,220.23892 c -25.88447,35.20296 -37.49631,72.2281 -33.48965,115.61914 0.11964,1.29547 2.93389,4.58836 2.93589,2.88659 0.0581,-37.45904 11.44866,-82.77719 34.42499,-115.81364 0.74274,-1.06835 0.4781,-2.53892 -0.58956,-3.28097 -1.06835,-0.74274 -2.53893,-0.47947 -3.28167,0.58888 z"
         style="clip-rule:evenodd;fill:#dabc9f;fill-rule:evenodd;stroke-width:0.966492;stroke-linejoin:round;stroke-miterlimit:2"
         id="path18-28" />
      <path
         d="m 645.8122,225.04629 c 2.75867,38.05985 -5.90377,73.43344 -32.16192,109.54307 -0.76474,1.05213 -3.19088,4.53155 -2.13942,5.29698 1.05282,0.76542 5.16238,-1.48986 5.95256,-2.52375 28.11421,-36.77461 36.92577,-73.18214 33.05068,-112.65682 -0.12715,-1.29472 -1.22348,-2.27506 -2.52121,-2.18069 -1.29842,0.0937 -2.27506,1.22347 -2.18069,2.52121 z"
         style="clip-rule:evenodd;fill:#dabc9f;fill-rule:evenodd;stroke-width:0.966492;stroke-linejoin:round;stroke-miterlimit:2"
         id="path22-5" />
      <path
         d="m 627.19388,249.81656 c -10.03205,29.96484 -20.50303,60.2341 -27.90142,89.19386 -0.32216,1.26094 0.95815,5.00149 3.41445,3.47098 1.10477,-0.68801 2.40035,-1.68176 2.80747,-2.91745 9.47218,-28.76954 18.09213,-58.34585 26.19947,-88.40853 0.33929,-1.2563 -0.34289,-2.55999 -1.58987,-2.92942 -1.24768,-0.37011 -2.56068,0.34221 -2.9301,1.59056 z"
         style="clip-rule:evenodd;fill:#dabc9f;fill-rule:evenodd;stroke-width:0.966492;stroke-linejoin:round;stroke-miterlimit:2"
         id="path26-9" />
      <path
         d="m 90.444571,-494.50177 c 5.472834,-4.45495 18.846459,1.75234 21.353719,6.76205 5.31586,10.62449 13.7515,18.6198 16.42864,26.14584 12.71301,35.73706 0.28509,70.56855 -35.473826,101.7184 -1.305984,1.13786 -4.339412,4.04984 -7.545785,3.65384 -2.941968,-0.36244 -6.075355,-3.93331 -7.176257,-5.19771 -16.908785,-19.42899 -33.659351,-39.0017 -27.438567,-79.70951 2.194564,-19.20915 10.023666,-33.41187 21.905774,-43.11621 5.238734,-4.27922 12.39497,-5.73743 17.946302,-10.2567 z"
         style="clip-rule:evenodd;fill:#9f7f6b;fill-rule:evenodd;stroke-width:0.966492;stroke-linejoin:round;stroke-miterlimit:2"
         id="path2-8" />
      <path
         d="m 90.316012,-357.88481 c -1.441533,1.00719 -3.246236,1.89389 -5.108693,1.66317 -2.941968,-0.36244 -6.075355,-3.93331 -7.176257,-5.19771 -16.908785,-19.42899 -33.659351,-39.0017 -27.438567,-79.70951 2.194564,-19.20915 10.023666,-33.41187 21.905774,-43.11621 5.238734,-4.27922 12.39497,-5.73743 17.946302,-10.2567 1.856654,-1.5117 4.622915,-1.79576 7.566553,-1.31481 -0.155729,0.1023 -0.30602,0.2124 -0.451375,0.33115 -5.551332,4.51928 -12.707068,5.97666 -17.947129,10.2562 -11.881607,9.70352 -16.138204,24.79288 -18.33144,44.0017 -1.362215,41.07162 6.956775,59.39471 23.86556,78.8237 0.850959,0.97745 2.915897,3.33296 5.169272,4.51902 z"
         style="clip-rule:evenodd;fill:#78665b;fill-rule:evenodd;stroke-width:0.966492;stroke-linejoin:round;stroke-miterlimit:2"
         id="path6-1" />
      <path
         d="m 71.141151,-369.47629 c -14.182713,-17.14088 -25.916176,-36.52948 -20.548656,-71.65257 2.194564,-19.20915 10.023666,-33.41187 21.905774,-43.11621 5.238734,-4.27922 12.39497,-5.73743 17.946302,-10.2567 5.472834,-4.45495 18.846459,1.75234 21.353719,6.76205 5.31586,10.62449 13.7515,18.6198 16.42864,26.14584 9.91608,27.8752 4.5362,55.19904 -15.28246,80.65679 2.67935,-7.48441 4.98289,-15.04048 7.43684,-22.61167 1.58252,-4.8821 3.671,-10.02501 4.16647,-15.18123 0.33828,-3.52154 -0.72113,-6.94603 -0.66352,-10.45563 0.13144,-7.98447 -0.35287,-15.85145 -1.60221,-23.70151 -0.9035,-5.68025 -0.77647,-11.12738 -2.59324,-16.65225 -0.10985,-0.33544 -0.34379,-1.04996 -0.6667,-1.85452 -7.07927,0.18735 -13.65026,5.05634 -20.602303,4.49253 -5.987519,-0.48478 -5.09862,-7.00156 -7.813693,-10.19596 -0.699596,-0.82251 -1.85235,-1.32399 -3.188006,-1.64471 -2.735236,-0.65531 -22.934112,5.09844 -23.970899,9.67828 -0.537963,2.37354 -0.177549,4.74877 -0.831144,7.1472 -0.491703,1.80271 -1.948034,3.38849 -2.522347,5.24739 -2.92265,9.46467 -5.795775,19.30282 -5.571249,29.41238 0.07796,3.51147 2.011077,7.0549 2.58613,10.5273 0.870261,5.25562 0.721662,10.91003 2.306663,16.04144 3.273562,10.59559 7.842699,20.85601 11.725889,31.21176 z"
         style="clip-rule:evenodd;fill:#c09578;fill-rule:evenodd;stroke-width:0.966492;stroke-linejoin:round;stroke-miterlimit:2"
         id="path10-2" />
      <path
         d="m 71.141151,-369.47629 c -14.182713,-17.14088 -25.916176,-36.52948 -20.548656,-71.65257 2.194564,-19.20915 10.023666,-33.41187 21.905774,-43.11621 3.83159,-3.12918 8.687502,-4.74994 13.192603,-7.16279 1.558513,-0.83466 -1.426093,2.37919 -6.078252,6.17863 -3.868349,3.16002 -6.928161,6.88989 -9.371037,11.14589 -3.599051,1.5921 -6.423513,3.38096 -6.794374,5.01958 -0.537963,2.37354 -0.177549,4.74877 -0.831144,7.1472 -0.491703,1.80271 -1.948034,3.38849 -2.522347,5.24739 -2.92265,9.46467 -5.795775,19.30282 -5.571249,29.41238 0.07796,3.51147 2.011077,7.0549 2.58613,10.5273 0.870261,5.25562 0.721662,10.91003 2.306663,16.04144 3.273562,10.59559 7.842699,20.85601 11.725889,31.21176 z"
         style="clip-rule:evenodd;fill:#856651;fill-rule:evenodd;stroke-width:0.966492;stroke-linejoin:round;stroke-miterlimit:2"
         id="path14-5" />
      <path
         d="m 81.545947,-487.00748 c -17.079945,40.21852 -19.851328,78.92272 -5.957869,120.22414 0.41481,1.23308 3.911866,3.78921 3.521827,2.13273 -8.571665,-36.46518 -7.925764,-83.18844 6.823266,-120.62885 0.476685,-1.21071 -0.119563,-2.58078 -1.329439,-3.05696 -1.210703,-0.47669 -2.581099,0.11823 -3.057785,1.32894 z"
         style="clip-rule:evenodd;fill:#dabc9f;fill-rule:evenodd;stroke-width:0.966492;stroke-linejoin:round;stroke-miterlimit:2"
         id="path18-6" />
      <path
         d="m 102.67728,-487.06909 c 11.45106,36.40104 11.16937,72.81875 -6.065373,114.00563 -0.501836,1.19999 -2.061299,5.14468 -0.861807,5.64734 1.200818,0.50234 4.6804,-2.63888 5.21119,-3.82698 18.88772,-42.2615 19.07638,-79.71969 6.21303,-117.24037 -0.42195,-1.23062 -1.71461,-1.93207 -2.95571,-1.54133 -1.24193,0.39025 -1.93207,1.71461 -1.54133,2.95571 z"
         style="clip-rule:evenodd;fill:#dabc9f;fill-rule:evenodd;stroke-width:0.966492;stroke-linejoin:round;stroke-miterlimit:2"
         id="path22-1" />
      <path
         d="m 90.26508,-458.67638 c -2.860312,31.46986 -6.077624,63.33706 -6.606598,93.22223 -0.02306,1.30124 2.084411,4.64631 4.122135,2.59118 0.916583,-0.92397 1.948435,-2.18943 2.059984,-3.48566 2.590817,-30.17775 4.166481,-60.94427 5.131304,-92.06601 0.04079,-1.30066 -0.923327,-2.41217 -2.221876,-2.48445 -1.299375,-0.0728 -2.413,0.92283 -2.484949,2.22271 z"
         style="clip-rule:evenodd;fill:#dabc9f;fill-rule:evenodd;stroke-width:0.966492;stroke-linejoin:round;stroke-miterlimit:2"
         id="path26-2" />
      <path
         d="m 99.940685,195.55735 c 2.993795,-6.39028 17.736125,-6.60983 22.170925,-3.18696 9.40391,7.2598 20.47549,10.79607 26.15656,16.41157 26.97699,26.66458 30.91641,63.43641 12.24232,107.02874 -0.68193,1.59226 -2.14894,5.53297 -5.20893,6.56936 -2.80727,0.95174 -7.1809,-0.90316 -8.7218,-1.56368 -23.67078,-10.15317 -47.261495,-20.50453 -59.344665,-59.8723 -6.3691,-18.25492 -5.48812,-34.44863 0.99775,-48.35158 2.85929,-6.1303 8.67129,-10.55283 11.70784,-17.03515 z"
         style="clip-rule:evenodd;fill:#9f7f6b;fill-rule:evenodd;stroke-width:0.966492;stroke-linejoin:round;stroke-miterlimit:2"
         id="path2-8-3" />
      <path
         d="m 159.18031,318.66251 c -0.86078,1.53346 -2.10102,3.11618 -3.87875,3.71755 -2.80727,0.95174 -7.1809,-0.90316 -8.7218,-1.56368 -23.67078,-10.15317 -47.261495,-20.50453 -59.344665,-59.8723 -6.3691,-18.25492 -5.48812,-34.44863 0.99775,-48.35158 2.85929,-6.1303 8.67129,-10.55283 11.70784,-17.03515 1.015485,-2.16823 3.383605,-3.62592 6.243865,-4.47164 -0.0958,0.15979 -0.18335,0.32426 -0.26267,0.49437 -3.03655,6.48232 -8.848465,10.90389 -11.708805,17.03505 -6.48578,13.902 -3.76383,29.34216 2.60632,47.59621 16.617295,37.58456 32.070865,50.47364 55.741645,60.62681 1.19112,0.51066 4.07437,1.7351 6.61927,1.82436 z"
         style="clip-rule:evenodd;fill:#78665b;fill-rule:evenodd;stroke-width:0.966492;stroke-linejoin:round;stroke-miterlimit:2"
         id="path6-1-4" />
      <path
         d="m 136.87363,316.55302 c -20.22133,-9.27669 -39.213215,-21.64198 -49.638535,-55.60894 -6.3691,-18.25492 -5.48812,-34.44863 0.99775,-48.35158 2.85929,-6.1303 8.67129,-10.55283 11.70784,-17.03515 2.993795,-6.39028 17.736125,-6.60983 22.170925,-3.18696 9.40391,7.2598 20.47549,10.79607 26.15656,16.41157 21.04212,20.79867 28.0678,47.74631 21.27789,79.28634 -0.83846,-7.90521 -2.04654,-15.71168 -3.12572,-23.59713 -0.69575,-5.0848 -1.0491,-10.62433 -2.84304,-15.48374 -1.2253,-3.31879 -3.66733,-5.94291 -5.14023,-9.12899 -3.3506,-7.24862 -7.20475,-14.1239 -11.7406,-20.65156 -3.28164,-4.7236 -5.53382,-9.68496 -9.57053,-13.87182 -0.24468,-0.2544 -0.76582,-0.79632 -1.40622,-1.38069 -6.29481,3.24445 -10.09781,10.48476 -16.6044,12.99737 -5.60351,2.16474 -7.63421,-4.09104 -11.4675,-5.78859 -0.98747,-0.43688 -2.24362,-0.38772 -3.58597,-0.0963 -2.7483,0.59814 -18.441395,14.5562 -17.385435,19.13165 0.54669,2.37155 1.90327,4.3543 2.35662,6.79851 0.34034,1.83731 -0.28239,3.89832 0.008,5.82213 1.47968,9.79451 3.16623,19.90389 7.76072,28.91191 1.59584,3.12887 4.876475,5.48052 6.903055,8.35823 3.06722,4.35558 5.39003,9.513 9.04704,13.44617 7.55188,8.12107 16.12506,15.37738 24.12182,23.01757 z"
         style="clip-rule:evenodd;fill:#c09578;fill-rule:evenodd;stroke-width:0.966492;stroke-linejoin:round;stroke-miterlimit:2"
         id="path10-2-4" />
      <path
         d="m 136.87363,316.55302 c -20.22133,-9.27669 -39.213215,-21.64198 -49.638535,-55.60894 -6.3691,-18.25492 -5.48812,-34.44863 0.99775,-48.35158 2.09155,-4.48311 5.76104,-8.05265 8.77043,-12.18318 1.0411,-1.42889 -0.25078,2.7625 -2.7902,8.20581 -2.11126,4.52686 -3.2467,9.21569 -3.59788,14.11037 -2.54991,2.99765 -4.31667,5.83599 -3.93878,7.473 0.54669,2.37155 1.90327,4.3543 2.35662,6.79851 0.34034,1.83731 -0.28239,3.89832 0.008,5.82213 1.47968,9.79451 3.16623,19.90389 7.76072,28.91191 1.59584,3.12887 4.876475,5.48052 6.903055,8.35823 3.06722,4.35558 5.39003,9.513 9.04704,13.44617 7.55188,8.12107 16.12506,15.37738 24.12182,23.01757 z"
         style="clip-rule:evenodd;fill:#856651;fill-rule:evenodd;stroke-width:0.966492;stroke-linejoin:round;stroke-miterlimit:2"
         id="path14-5-0" />
      <path
         d="m 95.181805,206.17352 c 2.08987,43.645 16.409375,79.7095 46.867115,110.87297 0.90935,0.9304 5.16965,1.71332 4.09867,0.39081 -23.56328,-29.11966 -43.28119,-71.48338 -46.263495,-111.61348 -0.0967,-1.29756 -1.22895,-2.27252 -2.52556,-2.17577 -1.29757,0.0967 -2.27339,1.2279 -2.17673,2.52547 z"
         style="clip-rule:evenodd;fill:#dabc9f;fill-rule:evenodd;stroke-width:0.966492;stroke-linejoin:round;stroke-miterlimit:2"
         id="path18-6-5" />
      <path
         d="m 114.18779,196.93719 c 26.12885,27.81089 41.69738,60.73428 44.06855,105.31873 0.0694,1.29885 0.3786,5.52932 1.67736,5.46093 1.29981,-0.0693 3.06907,-4.41029 3.03096,-5.71101 -1.34923,-46.27051 -17.45362,-80.09063 -45.34094,-108.29638 -0.9147,-0.92508 -2.38375,-0.99526 -3.33183,-0.1041 -0.94904,0.89106 -0.99525,2.38375 -0.1041,3.33183 z"
         style="clip-rule:evenodd;fill:#dabc9f;fill-rule:evenodd;stroke-width:0.966492;stroke-linejoin:round;stroke-miterlimit:2"
         id="path22-1-3" />
      <path
         d="m 115.34393,227.90284 c 11.09633,29.58724 22.04375,59.68747 34.5514,86.83452 0.54457,1.18203 3.89606,3.27927 4.83853,0.54292 0.42412,-1.23044 0.80371,-2.81852 0.34101,-4.03449 -10.77769,-28.30637 -22.72551,-56.70198 -35.37784,-85.15215 -0.52835,-1.18922 -1.87964,-1.77146 -3.08062,-1.27239 -1.20196,0.49899 -1.77243,1.87955 -1.27248,3.08159 z"
         style="clip-rule:evenodd;fill:#dabc9f;fill-rule:evenodd;stroke-width:0.966492;stroke-linejoin:round;stroke-miterlimit:2"
         id="path26-2-6" />
      <path
         d="m -745.59365,220.70545 c 2.99379,-6.39028 17.73612,-6.60983 22.17092,-3.18696 9.40391,7.2598 20.47549,10.79607 26.15656,16.41157 26.97699,26.66458 30.91641,63.43641 12.24232,107.02874 -0.68193,1.59226 -2.14894,5.53297 -5.20893,6.56936 -2.80727,0.95174 -7.1809,-0.90316 -8.7218,-1.56368 -23.67078,-10.15317 -47.26149,-20.50453 -59.34466,-59.8723 -6.3691,-18.25492 -5.48812,-34.44863 0.99775,-48.35158 2.85929,-6.1303 8.67129,-10.55283 11.70784,-17.03515 z"
         style="clip-rule:evenodd;fill:#9f7f6b;fill-rule:evenodd;stroke-width:0.966492;stroke-linejoin:round;stroke-miterlimit:2"
         id="path2-8-3-6" />
      <path
         d="m -686.35403,343.81061 c -0.86078,1.53346 -2.10102,3.11618 -3.87875,3.71755 -2.80727,0.95174 -7.1809,-0.90316 -8.7218,-1.56368 -23.67078,-10.15317 -47.26149,-20.50453 -59.34466,-59.8723 -6.3691,-18.25492 -5.48812,-34.44863 0.99775,-48.35158 2.85929,-6.1303 8.67129,-10.55283 11.70784,-17.03515 1.01548,-2.16823 3.3836,-3.62592 6.24386,-4.47164 -0.0958,0.15979 -0.18335,0.32426 -0.26267,0.49437 -3.03655,6.48232 -8.84846,10.90389 -11.7088,17.03505 -6.48578,13.902 -3.76383,29.34216 2.60632,47.59621 16.61729,37.58456 32.07086,50.47364 55.74164,60.62681 1.19112,0.51066 4.07437,1.7351 6.61927,1.82436 z"
         style="clip-rule:evenodd;fill:#78665b;fill-rule:evenodd;stroke-width:0.966492;stroke-linejoin:round;stroke-miterlimit:2"
         id="path6-1-4-8" />
      <path
         d="m -708.66071,341.70112 c -20.22133,-9.27669 -39.21321,-21.64198 -49.63853,-55.60894 -6.3691,-18.25492 -5.48812,-34.44863 0.99775,-48.35158 2.85929,-6.1303 8.67129,-10.55283 11.70784,-17.03515 2.99379,-6.39028 17.73612,-6.60983 22.17092,-3.18696 9.40391,7.2598 20.47549,10.79607 26.15656,16.41157 21.04212,20.79867 28.0678,47.74631 21.27789,79.28634 -0.83846,-7.90521 -2.04654,-15.71168 -3.12572,-23.59713 -0.69575,-5.0848 -1.0491,-10.62433 -2.84304,-15.48374 -1.2253,-3.31879 -3.66733,-5.94291 -5.14023,-9.12899 -3.3506,-7.24862 -7.20475,-14.1239 -11.7406,-20.65156 -3.28164,-4.7236 -5.53382,-9.68496 -9.57053,-13.87182 -0.24468,-0.2544 -0.76582,-0.79632 -1.40622,-1.38069 -6.29481,3.24445 -10.09781,10.48476 -16.6044,12.99737 -5.60351,2.16474 -7.63421,-4.09104 -11.4675,-5.78859 -0.98747,-0.43688 -2.24362,-0.38772 -3.58597,-0.0963 -2.7483,0.59814 -18.44139,14.5562 -17.38543,19.13165 0.54669,2.37155 1.90327,4.3543 2.35662,6.79851 0.34034,1.83731 -0.28239,3.89832 0.008,5.82213 1.47968,9.79451 3.16623,19.90389 7.76072,28.91191 1.59584,3.12887 4.87647,5.48052 6.90305,8.35823 3.06722,4.35558 5.39003,9.513 9.04704,13.44617 7.55188,8.12107 16.12506,15.37738 24.12182,23.01757 z"
         style="clip-rule:evenodd;fill:#c09578;fill-rule:evenodd;stroke-width:0.966492;stroke-linejoin:round;stroke-miterlimit:2"
         id="path10-2-4-9" />
      <path
         d="m -708.66071,341.70112 c -20.22133,-9.27669 -39.21321,-21.64198 -49.63853,-55.60894 -6.3691,-18.25492 -5.48812,-34.44863 0.99775,-48.35158 2.09155,-4.48311 5.76104,-8.05265 8.77043,-12.18318 1.0411,-1.42889 -0.25078,2.7625 -2.7902,8.20581 -2.11126,4.52686 -3.2467,9.21569 -3.59788,14.11037 -2.54991,2.99765 -4.31667,5.83599 -3.93878,7.473 0.54669,2.37155 1.90327,4.3543 2.35662,6.79851 0.34034,1.83731 -0.28239,3.89832 0.008,5.82213 1.47968,9.79451 3.16623,19.90389 7.76072,28.91191 1.59584,3.12887 4.87647,5.48052 6.90305,8.35823 3.06722,4.35558 5.39003,9.513 9.04704,13.44617 7.55188,8.12107 16.12506,15.37738 24.12182,23.01757 z"
         style="clip-rule:evenodd;fill:#856651;fill-rule:evenodd;stroke-width:0.966492;stroke-linejoin:round;stroke-miterlimit:2"
         id="path14-5-0-1" />
      <path
         d="m -750.35253,231.32162 c 2.08987,43.645 16.40937,79.7095 46.86711,110.87297 0.90935,0.9304 5.16965,1.71332 4.09867,0.39081 -23.56328,-29.11966 -43.28119,-71.48338 -46.26349,-111.61348 -0.0967,-1.29756 -1.22895,-2.27252 -2.52556,-2.17577 -1.29757,0.0967 -2.27339,1.2279 -2.17673,2.52547 z"
         style="clip-rule:evenodd;fill:#dabc9f;fill-rule:evenodd;stroke-width:0.966492;stroke-linejoin:round;stroke-miterlimit:2"
         id="path18-6-5-7" />
      <path
         d="m -731.34655,222.08529 c 26.12885,27.81089 41.69738,60.73428 44.06855,105.31873 0.0694,1.29885 0.3786,5.52932 1.67736,5.46093 1.29981,-0.0693 3.06907,-4.41029 3.03096,-5.71101 -1.34923,-46.27051 -17.45362,-80.09063 -45.34094,-108.29638 -0.9147,-0.92508 -2.38375,-0.99526 -3.33183,-0.1041 -0.94904,0.89106 -0.99525,2.38375 -0.1041,3.33183 z"
         style="clip-rule:evenodd;fill:#dabc9f;fill-rule:evenodd;stroke-width:0.966492;stroke-linejoin:round;stroke-miterlimit:2"
         id="path22-1-3-7" />
      <path
         d="m -730.19041,253.05094 c 11.09633,29.58724 22.04375,59.68747 34.5514,86.83452 0.54457,1.18203 3.89606,3.27927 4.83853,0.54292 0.42412,-1.23044 0.80371,-2.81852 0.34101,-4.03449 -10.77769,-28.30637 -22.72551,-56.70198 -35.37784,-85.15215 -0.52835,-1.18922 -1.87964,-1.77146 -3.08062,-1.27239 -1.20196,0.49899 -1.77243,1.87955 -1.27248,3.08159 z"
         style="clip-rule:evenodd;fill:#dabc9f;fill-rule:evenodd;stroke-width:0.966492;stroke-linejoin:round;stroke-miterlimit:2"
         id="path26-2-6-3" />
      <path
         d="m 1548.128,-494.50177 c 5.4728,-4.45495 18.8464,1.75234 21.3537,6.76205 5.3158,10.62449 13.7515,18.6198 16.4286,26.14584 12.713,35.73706 0.2851,70.56855 -35.4738,101.7184 -1.306,1.13786 -4.3394,4.04984 -7.5458,3.65384 -2.9419,-0.36244 -6.0753,-3.93331 -7.1762,-5.19771 -16.9088,-19.42899 -33.6594,-39.0017 -27.4386,-79.70951 2.1946,-19.20915 10.0237,-33.41187 21.9058,-43.11621 5.2387,-4.27922 12.3949,-5.73743 17.9463,-10.2567 z"
         style="clip-rule:evenodd;fill:#9f7f6b;fill-rule:evenodd;stroke-width:0.966492;stroke-linejoin:round;stroke-miterlimit:2"
         id="path2-6" />
      <path
         d="m 1547.9994,-357.88481 c -1.4415,1.00719 -3.2462,1.89389 -5.1087,1.66317 -2.9419,-0.36244 -6.0753,-3.93331 -7.1762,-5.19771 -16.9088,-19.42899 -33.6594,-39.0017 -27.4386,-79.70951 2.1946,-19.20915 10.0237,-33.41187 21.9058,-43.11621 5.2387,-4.27922 12.3949,-5.73743 17.9463,-10.2567 1.8566,-1.5117 4.6229,-1.79576 7.5665,-1.31481 -0.1557,0.1023 -0.306,0.2124 -0.4514,0.33115 -5.5513,4.51928 -12.707,5.97666 -17.9471,10.2562 -11.8816,9.70352 -16.1382,24.79288 -18.3314,44.0017 -1.3622,41.07162 6.9568,59.39471 23.8655,78.8237 0.851,0.97745 2.9159,3.33296 5.1693,4.51902 z"
         style="clip-rule:evenodd;fill:#78665b;fill-rule:evenodd;stroke-width:0.966492;stroke-linejoin:round;stroke-miterlimit:2"
         id="path6-3" />
      <path
         d="m 1528.8246,-369.47629 c -14.1828,-17.14088 -25.9162,-36.52948 -20.5487,-71.65257 2.1946,-19.20915 10.0237,-33.41187 21.9058,-43.11621 5.2387,-4.27922 12.3949,-5.73743 17.9463,-10.2567 5.4728,-4.45495 18.8464,1.75234 21.3537,6.76205 5.3158,10.62449 13.7515,18.6198 16.4286,26.14584 9.9161,27.8752 4.5362,55.19904 -15.2824,80.65679 2.6793,-7.48441 4.9829,-15.04048 7.4368,-22.61167 1.5825,-4.8821 3.671,-10.02501 4.1665,-15.18123 0.3383,-3.52154 -0.7212,-6.94603 -0.6635,-10.45563 0.1314,-7.98447 -0.3529,-15.85145 -1.6023,-23.70151 -0.9035,-5.68025 -0.7764,-11.12738 -2.5932,-16.65225 -0.1098,-0.33544 -0.3438,-1.04996 -0.6667,-1.85452 -7.0793,0.18735 -13.6502,5.05634 -20.6023,4.49253 -5.9875,-0.48478 -5.0986,-7.00156 -7.8137,-10.19596 -0.6996,-0.82251 -1.8523,-1.32399 -3.188,-1.64471 -2.7352,-0.65531 -22.9341,5.09844 -23.9709,9.67828 -0.538,2.37354 -0.1775,4.74877 -0.8311,7.1472 -0.4917,1.80271 -1.9481,3.38849 -2.5224,5.24739 -2.9226,9.46467 -5.7958,19.30282 -5.5712,29.41238 0.078,3.51147 2.011,7.0549 2.5861,10.5273 0.8703,5.25562 0.7217,10.91003 2.3067,16.04144 3.2735,10.59559 7.8427,20.85601 11.7259,31.21176 z"
         style="clip-rule:evenodd;fill:#c09578;fill-rule:evenodd;stroke-width:0.966492;stroke-linejoin:round;stroke-miterlimit:2"
         id="path10-25" />
      <path
         d="m 1528.8246,-369.47629 c -14.1828,-17.14088 -25.9162,-36.52948 -20.5487,-71.65257 2.1946,-19.20915 10.0237,-33.41187 21.9058,-43.11621 3.8316,-3.12918 8.6875,-4.74994 13.1926,-7.16279 1.5585,-0.83466 -1.4261,2.37919 -6.0783,6.17863 -3.8683,3.16002 -6.9281,6.88989 -9.371,11.14589 -3.5991,1.5921 -6.4235,3.38096 -6.7944,5.01958 -0.538,2.37354 -0.1775,4.74877 -0.8311,7.1472 -0.4917,1.80271 -1.9481,3.38849 -2.5224,5.24739 -2.9226,9.46467 -5.7958,19.30282 -5.5712,29.41238 0.078,3.51147 2.011,7.0549 2.5861,10.5273 0.8703,5.25562 0.7217,10.91003 2.3067,16.04144 3.2735,10.59559 7.8427,20.85601 11.7259,31.21176 z"
         style="clip-rule:evenodd;fill:#856651;fill-rule:evenodd;stroke-width:0.966492;stroke-linejoin:round;stroke-miterlimit:2"
         id="path14-8" />
      <path
         d="m 1539.2293,-487.00748 c -17.0799,40.21852 -19.8513,78.92272 -5.9578,120.22414 0.4148,1.23308 3.9118,3.78921 3.5218,2.13273 -8.5717,-36.46518 -7.9258,-83.18844 6.8233,-120.62885 0.4767,-1.21071 -0.1196,-2.58078 -1.3295,-3.05696 -1.2107,-0.47669 -2.5811,0.11823 -3.0578,1.32894 z"
         style="clip-rule:evenodd;fill:#dabc9f;fill-rule:evenodd;stroke-width:0.966492;stroke-linejoin:round;stroke-miterlimit:2"
         id="path18-2" />
      <path
         d="m 1560.3607,-487.06909 c 11.451,36.40104 11.1693,72.81875 -6.0654,114.00563 -0.5018,1.19999 -2.0613,5.14468 -0.8618,5.64734 1.2008,0.50234 4.6804,-2.63888 5.2112,-3.82698 18.8877,-42.2615 19.0764,-79.71969 6.213,-117.24037 -0.4219,-1.23062 -1.7146,-1.93207 -2.9557,-1.54133 -1.2419,0.39025 -1.9321,1.71461 -1.5413,2.95571 z"
         style="clip-rule:evenodd;fill:#dabc9f;fill-rule:evenodd;stroke-width:0.966492;stroke-linejoin:round;stroke-miterlimit:2"
         id="path22-6" />
      <path
         d="m 1547.9485,-458.67638 c -2.8603,31.46986 -6.0776,63.33706 -6.6066,93.22223 -0.023,1.30124 2.0844,4.64631 4.1221,2.59118 0.9166,-0.92397 1.9485,-2.18943 2.06,-3.48566 2.5908,-30.17775 4.1665,-60.94427 5.1313,-92.06601 0.041,-1.30066 -0.9233,-2.41217 -2.2219,-2.48445 -1.2993,-0.0728 -2.413,0.92283 -2.4849,2.22271 z"
         style="clip-rule:evenodd;fill:#dabc9f;fill-rule:evenodd;stroke-width:0.966492;stroke-linejoin:round;stroke-miterlimit:2"
         id="path26-7" />
      <path
         d="m -199.17318,-258.08046 c -0.43031,-9.57272 -13.92519,-21.62633 -19.59464,-28.897 -10.21654,-13.11126 -73.07731,-42.26093 -90.99064,-50.39408 -29.2256,-13.27004 -43.35486,-49.25941 -71.04732,-64.22751 -4.1638,-2.25036 -10.38467,0.59345 -14.95749,-0.49428 -10.57898,-2.51569 -20.18909,-7.2522 -31.16155,-7.90473 -11.55494,-0.68682 -54.53406,11.92647 -63.15401,21.24441 -6.09666,6.59071 -8.72465,16.1687 -13.71093,23.71474 -9.39762,14.22272 -20.68195,27.77709 -33.23902,38.04243 -30.49746,24.93224 -48.74793,32.9008 -71.46388,68.91602 z"
         style="clip-rule:evenodd;fill:#aa6941;fill-rule:evenodd;stroke-width:0.483749;stroke-linejoin:round;stroke-miterlimit:2"
         id="path85-8" />
      <path
         d="m -432.26745,-460.41448 c -4.75875,-10.79039 -9.59125,-25.08609 -13.02125,-38.01197 -2.14375,-8.07585 -3.74125,-15.60695 -4.3725,-21.37158 -0.21125,-1.92462 -0.1875,-4.23499 -0.15125,-5.48013 1.7225,-1.84512 2.49125,-4.50611 1.8075,-7.12693 -1.06125,-4.07098 -5.22875,-6.51357 -9.29875,-5.45168 -3.00125,0.78323 -5.87,2.97562 -7.15625,7.56792 -1.5775,5.63409 0.2125,19.85197 4.4375,35.77188 5.95375,22.43598 16.11375,48.51534 23.27125,57.13844 2.28,2.74802 4.68625,4.28436 6.93125,4.99061 1.905,1.01252 4.55125,1.27192 8.1025,-0.0159 1.245,-0.45186 2.98875,-1.27526 5.11625,-2.4133 12.445,-4.90358 23.25,-12.7242 32.4125,-21.30296 8.79625,-6.59222 17.525,-13.82961 24.36625,-20.73312 5.29375,-5.34289 9.4875,-10.53517 11.97,-15.08814 2.27875,-4.17808 3.2275,-8.06329 3.0475,-11.35522 -0.27875,-5.08349 -2.83,-7.25663 -4.4375,-8.18463 -2.1675,-1.251 -7.36875,-2.26268 -12.24125,3.41075 -4.065,4.73371 -11.9025,17.86628 -23.62125,31.17206 -1.80375,2.04678 -3.7025,4.10193 -5.7,6.12864 -9.88625,7.30098 -20.25875,14.10156 -27.33625,18.5901 1.2175,-8.59466 4.53375,-22.5205 13.28375,-45.82339 25.345,-67.50292 85.59,-90.54389 140.0425,-88.37075 79.01,3.15385 148.71875,48.91114 191.5375,134.07447 1.88875,3.75886 6.475,5.27596 10.23375,3.38565 3.7575,-1.88947 5.275,-6.47507 3.385,-10.23309 -45.65,-90.79743 -120.31125,-139.09604 -204.54875,-142.45826 -60.3225,-2.40828 -126.84375,23.46272 -154.92125,98.24318 -7.47625,19.91055 -11.255,33.51088 -13.13875,42.94735 z"
         style="clip-rule:evenodd;fill:#00079d;fill-rule:evenodd;stroke-width:1.02273;stroke-linejoin:round;stroke-miterlimit:2"
         id="path93-0" />
      <path
         d="m -256.15096,227.4748 c -4.75875,-10.79039 -9.59125,-25.08609 -13.02125,-38.01197 -2.14375,-8.07585 -3.74125,-15.60695 -4.3725,-21.37158 -0.21125,-1.92462 -0.1875,-4.23499 -0.15125,-5.48013 1.7225,-1.84512 2.49125,-4.50611 1.8075,-7.12693 -1.06125,-4.07098 -5.22875,-6.51357 -9.29875,-5.45168 -3.00125,0.78323 -5.87,2.97562 -7.15625,7.56792 -1.5775,5.63409 0.2125,19.85197 4.4375,35.77188 5.95375,22.43598 16.11375,48.51534 23.27125,57.13844 2.28,2.74802 4.68625,4.28436 6.93125,4.99061 1.905,1.01252 4.55125,1.27192 8.1025,-0.0159 1.245,-0.45186 2.98875,-1.27526 5.11625,-2.4133 12.445,-4.90358 23.25,-12.7242 32.4125,-21.30296 8.79625,-6.59222 17.525,-13.82961 24.36625,-20.73312 5.29375,-5.34289 9.4875,-10.53517 11.97,-15.08814 2.27875,-4.17808 3.2275,-8.06329 3.0475,-11.35522 -0.27875,-5.08349 -2.83,-7.25663 -4.4375,-8.18463 -2.1675,-1.251 -7.36875,-2.26268 -12.24125,3.41075 -4.065,4.73371 -11.9025,17.86628 -23.62125,31.17206 -1.80375,2.04678 -3.7025,4.10193 -5.7,6.12864 -9.88625,7.30098 -20.25875,14.10156 -27.33625,18.5901 1.2175,-8.59466 4.53375,-22.5205 13.28375,-45.82339 25.345,-67.50292 85.59,-90.54389 140.042495,-88.37075 38.4096,1.5332 74.621062,13.13479 106.61364,34.43744 9.73682,8.44207 15.76245,6.64649 18.08115,2.41746 C 40.500035,125.11999 11.741735,113.94071 1.6649225,108.92224 -26.22074,95.13482 -56.481652,87.5459 -88.090965,86.28427 c -60.322495,-2.40828 -126.843745,23.46272 -154.921245,98.24318 -7.47625,19.91055 -11.255,33.51088 -13.13875,42.94735 z"
         style="clip-rule:evenodd;fill:#00079d;fill-rule:evenodd;stroke-width:1.02273;stroke-linejoin:round;stroke-miterlimit:2"
         id="path93-0-6"
         sodipodi:nodetypes="ccccccccccccccccccccccccccccc" />
      <path
         d="m -639.16526,220.73345 c -4.75875,-10.79039 -9.59125,-25.08609 -13.02125,-38.01197 -2.14375,-8.07585 -3.74125,-15.60695 -4.3725,-21.37158 -0.21125,-1.92462 -0.1875,-4.23499 -0.15125,-5.48013 1.7225,-1.84512 2.49125,-4.50611 1.8075,-7.12693 -1.06125,-4.07098 -5.22875,-6.51357 -9.29875,-5.45168 -3.00125,0.78323 -5.87,2.97562 -7.15625,7.56792 -1.5775,5.63409 0.2125,19.85197 4.4375,35.77188 5.95375,22.43598 16.11375,48.51534 23.27125,57.13844 2.28,2.74802 4.68625,4.28436 6.93125,4.99061 1.905,1.01252 4.55125,1.27192 8.1025,-0.0159 1.245,-0.45186 2.98875,-1.27526 5.11625,-2.4133 12.445,-4.90358 23.25,-12.7242 32.4125,-21.30296 8.79625,-6.59222 17.525,-13.82961 24.36625,-20.73312 5.29375,-5.34289 9.4875,-10.53517 11.97,-15.08814 2.27875,-4.17808 3.2275,-8.06329 3.0475,-11.35522 -0.27875,-5.08349 -2.83,-7.25663 -4.4375,-8.18463 -2.1675,-1.251 -7.36875,-2.26268 -12.24125,3.41075 -4.065,4.73371 -11.9025,17.86628 -23.62125,31.17206 -1.80375,2.04678 -3.7025,4.10193 -5.7,6.12864 -9.88625,7.30098 -20.25875,14.10156 -27.33625,18.5901 1.2175,-8.59466 4.53375,-22.5205 13.28375,-45.82339 25.345,-67.50292 85.59,-90.54389 140.0425,-88.37075 38.4096,1.5332 74.62106,13.13479 106.61364,34.43744 9.73682,8.44207 15.76245,6.64649 18.08115,2.41746 4.50371,-13.25041 -24.25459,-24.42969 -34.3314,-29.44816 -27.88566,-13.78742 -58.14658,-21.37634 -89.75589,-22.63797 -60.3225,-2.40828 -126.84375,23.46272 -154.92125,98.24318 -7.47625,19.91055 -11.255,33.51088 -13.13875,42.94735 z"
         style="clip-rule:evenodd;fill:#00079d;fill-rule:evenodd;stroke-width:1.02273;stroke-linejoin:round;stroke-miterlimit:2"
         id="path93-0-6-2"
         sodipodi:nodetypes="ccccccccccccccccccccccccccccc" />
      <path
         d="m 286.25968,8.29421 c -1.79622,-11.6555511 -2.75421,-26.715508 -2.71313,-40.088671 0.0249,-8.355499 0.43609,-16.043179 1.3221,-21.774192 0.29532,-1.913518 0.91769,-4.138614 1.27575,-5.331713 2.14223,-1.335032 3.57505,-3.705446 3.59469,-6.413921 0.0313,-4.206914 -3.35975,-7.647118 -7.56589,-7.677559 -3.10169,-0.02226 -6.44102,1.35075 -8.87469,5.452072 -2.98525,5.031884 -4.94539,19.227307 -4.99549,35.698236 -0.0712,23.212395 2.97462,51.034718 7.64976,61.219558 1.48895,3.24546 3.41419,5.3535 5.39908,6.61803 1.57707,1.47209 4.0654,2.40919 7.82917,2.08684 1.3196,-0.11337 3.21727,-0.45616 5.56718,-1.00324 13.29107,-1.50681 25.75514,-6.25627 36.82964,-12.16404 10.20539,-4.08429 20.51298,-8.80916 28.91108,-13.7013 6.49869,-3.78647 11.89597,-7.712874 15.47473,-11.46584603 3.28473,-3.44379097 5.20901,-6.94980407 5.88926,-10.17570397 1.04971,-4.981737 -0.85035,-7.742384 -2.16203,-9.055672 -1.76871,-1.770519 -6.52937,-4.09702 -12.70699,0.117956 -5.15396,3.516948 -16.13033,14.1663619 -30.89998,23.976066 -2.27302,1.50871 -4.63996,3.00086 -7.09489,4.43991 -11.44195,4.48597 -23.22368,8.36253 -31.22337,10.8611 3.4057,-7.98447 10.22145,-20.57303003 24.71777,-40.807756 41.99076,-58.615597 106.15075,-65.236973 158.17478,-49.010519 75.48614,23.545043 130.93606,85.821405 150.19287,179.177795 0.84884,4.12017 4.88442,6.77522 9.0049,5.92486 4.11906,-0.84988 6.77433,-4.88474 5.92407,-9.00443 C 625.25071,6.65994 565.67723,-59.35565 485.19666,-84.458196 427.56464,-102.43471 356.60908,-94.708601 310.09122,-29.77361 c -12.38604,17.289025 -19.564,29.44322997 -23.83154,38.06782 z"
         style="clip-rule:evenodd;fill:#00079d;fill-rule:evenodd;stroke-width:1.02273;stroke-linejoin:round;stroke-miterlimit:2"
         id="path93-0-70" />
      <path
         d="m -494.15787,-383.22098 c 1.14945,1.13732 2.47455,2.27621 4.38572,3.16295 20.76438,9.63128 25.89599,3.21729 39.99739,21.3995 3.06431,3.95105 1.85789,17.69322 2.57003,18.30618 1.76716,1.52134 5.71452,1.36678 7.86676,2.17282 5.26613,1.97341 12.81374,10.00633 15.08573,14.51813 4.49016,8.91808 -21.98345,9.81959 -15.83005,17.7544 3.16612,4.0824 -15.00819,24.1109 -9.25411,26.91145 2.59008,1.26075 8.74559,10.1092 11.48073,11.26867 11.1869,4.74073 153.19312,9.64657 153.19312,9.64657 0,0 -15.96772,-75.14591 -25.09365,-79.29161 -29.22933,-13.26951 -43.3571,-49.25941 -71.05032,-64.2275 -4.16364,-2.25036 -10.38456,0.59344 -14.95702,-0.49375 -10.57921,-2.51623 -20.18939,-7.25274 -31.1616,-7.90527 -11.5551,-0.68682 -54.53451,11.92648 -63.15402,21.24441 -1.55246,1.67801 -2.87968,3.54962 -4.07871,5.53305 z"
         style="clip-rule:evenodd;fill:#955935;fill-rule:evenodd;stroke-width:0.52751;stroke-linejoin:round;stroke-miterlimit:2"
         id="path101-9" />
      <path
         d="m -429.47565,-409.97312 c 0.0554,0.11289 0.11184,0.22736 0.16881,0.34077 1.26391,2.52783 11.72074,11.05345 22.33899,13.49951 11.15209,2.5695 13.77329,15.0736 14.37043,16.18928 3.91992,7.32659 11.27816,4.57141 15.23132,8.09834 19.62232,17.507 34.98868,49.35278 50.82454,71.40006 12.39121,17.25854 27.32501,31.51345 42.81271,42.36485 h 84.55457 c -0.43255,-9.57325 -13.92626,-21.62685 -19.59172,-28.89752 -10.21787,-13.11126 -73.08123,-42.26094 -90.9902,-50.39409 -29.22933,-13.26951 -43.3571,-49.25941 -71.05032,-64.2275 -4.16364,-2.25036 -10.38456,0.59344 -14.95702,-0.49375 -10.57921,-2.51623 -20.18939,-7.25274 -31.1616,-7.90527 -0.7306,-0.0433 -1.58622,-0.0338 -2.55051,0.0253 z"
         style="clip-rule:evenodd;fill:#855233;fill-rule:evenodd;stroke-width:0.52751;stroke-linejoin:round;stroke-miterlimit:2"
         id="path109-5" />
      <path
         d="m -384.28863,-394.81527 c 12.96476,7.05492 22.63654,19.15125 32.62594,30.90312 11.38326,13.39506 23.13029,26.38605 38.75454,33.48053 12.35034,5.60901 57.38208,31.55354 85.67609,51.93916 7.03579,5.06884 13.01577,9.76738 17.09263,13.70366 1.93861,1.87055 3.43361,3.3692 4.00588,4.65685 1.71236,3.84291 6.21953,5.57367 10.06127,3.86296 3.84617,-1.71124 5.57629,-6.2204 3.86392,-10.06331 -2.36893,-5.32416 -12.2838,-14.5656 -26.1114,-24.52816 -29.14575,-20.99859 -75.56158,-47.67371 -88.28457,-53.451 -13.60135,-6.17556 -23.53397,-17.81402 -33.44442,-29.47304 -11.26791,-13.26055 -22.47594,-26.59758 -37.13266,-34.51973 -2.89018,-1.56196 -14.76097,-0.71478 -16.81847,-1.20378 -11.01284,-2.61908 -21.05016,-7.41943 -32.47245,-8.09833 -7.4457,-0.44311 -27.10023,3.99641 -43.58421,9.98787 -11.66806,4.24171 -21.68586,9.43927 -25.61721,13.68889 -6.36948,6.88559 -9.26542,16.80488 -14.47528,24.68905 -8.97175,13.57811 -19.71619,26.54325 -31.7041,36.34333 -31.24718,25.5452 -49.81174,33.84979 -73.08619,70.75069 -2.24427,3.55806 -1.17737,8.26872 2.38046,10.51328 3.55826,2.24403 8.26905,1.1774 10.51332,-2.38065 22.15698,-35.13006 40.09382,-42.7626 69.84111,-67.08134 13.1258,-10.73061 24.95001,-24.87421 34.77395,-39.74155 4.76313,-7.20895 7.12274,-16.44512 12.94701,-22.74096 2.96515,-3.20515 10.8345,-6.51474 19.63457,-9.71357 14.21532,-5.16748 31.05109,-9.47988 37.47158,-9.09796 10.52264,0.62563 19.70511,5.29831 29.85067,7.71114 2.62888,0.62563 13.05525,-0.15087 13.23802,-0.13715 z"
         style="clip-rule:evenodd;fill:#4d311f;fill-rule:evenodd;stroke-width:0.483749;stroke-linejoin:round;stroke-miterlimit:2"
         id="path117-8" />
      <path
         d="m 658.13044,-258.08044 c -0.43031,-9.57272 -13.92519,-21.62633 -19.59464,-28.897 -10.21654,-13.11126 -73.07732,-42.26093 -90.99064,-50.39408 -29.22561,-13.27004 -43.35486,-49.25941 -71.04732,-64.22751 -4.16381,-2.25036 -10.38467,0.59345 -14.95749,-0.49428 -10.57898,-2.51569 -20.18909,-7.2522 -31.16156,-7.90473 -11.55494,-0.68682 -54.53405,11.92647 -63.15401,21.24441 -6.09665,6.59071 -8.72465,16.1687 -13.71092,23.71474 -9.39762,14.22272 -20.68195,27.77709 -33.23903,38.04243 -30.49745,24.93224 -48.74793,32.9008 -71.46387,68.91602 z"
         style="clip-rule:evenodd;fill:#aa6941;fill-rule:evenodd;stroke-width:0.483749;stroke-linejoin:round;stroke-miterlimit:2"
         id="path85-8-6" />
      <path
         d="m 425.03617,-460.41446 c -4.75875,-10.79039 -9.59125,-25.08609 -13.02125,-38.01197 -2.14375,-8.07585 -3.74125,-15.60695 -4.3725,-21.37158 -0.21125,-1.92462 -0.1875,-4.23499 -0.15125,-5.48013 1.7225,-1.84512 2.49125,-4.50611 1.8075,-7.12693 -1.06125,-4.07098 -5.22875,-6.51357 -9.29875,-5.45168 -3.00125,0.78323 -5.87,2.97562 -7.15625,7.56792 -1.5775,5.63409 0.2125,19.85197 4.4375,35.77188 5.95375,22.43598 16.11375,48.51534 23.27125,57.13844 2.28,2.74802 4.68625,4.28436 6.93125,4.99061 1.905,1.01252 4.55125,1.27192 8.1025,-0.0159 1.245,-0.45186 2.98875,-1.27526 5.11625,-2.4133 12.445,-4.90358 23.25,-12.7242 32.4125,-21.30296 8.79625,-6.59222 17.525,-13.82961 24.36625,-20.73312 5.29375,-5.34289 9.4875,-10.53517 11.97,-15.08814 2.27875,-4.17808 3.2275,-8.06329 3.0475,-11.35522 -0.27875,-5.08349 -2.83,-7.25663 -4.4375,-8.18463 -2.1675,-1.251 -7.36875,-2.26268 -12.24125,3.41075 -4.065,4.73371 -11.9025,17.86628 -23.62125,31.17206 -1.80375,2.04678 -3.7025,4.10193 -5.7,6.12864 -9.88625,7.30098 -20.25875,14.10156 -27.33625,18.5901 1.2175,-8.59466 4.53375,-22.5205 13.28375,-45.82339 25.345,-67.50292 85.59,-90.54389 140.0425,-88.37075 79.01,3.15385 148.71875,48.91114 191.5375,134.07447 1.88875,3.75886 6.475,5.27596 10.23375,3.38565 3.7575,-1.88947 5.275,-6.47507 3.385,-10.23309 -45.65,-90.79743 -120.31125,-139.09604 -204.54875,-142.45826 -60.3225,-2.40828 -126.84375,23.46272 -154.92125,98.24318 -7.47625,19.91055 -11.255,33.51088 -13.13875,42.94735 z"
         style="clip-rule:evenodd;fill:#00079d;fill-rule:evenodd;stroke-width:1.02273;stroke-linejoin:round;stroke-miterlimit:2"
         id="path93-0-8" />
      <path
         d="m 363.14575,-383.22096 c 1.14945,1.13732 2.47455,2.27621 4.38572,3.16295 20.76438,9.63128 25.896,3.21729 39.99739,21.3995 3.06431,3.95105 1.85789,17.69322 2.57003,18.30618 1.76716,1.52134 5.71452,1.36678 7.86676,2.17282 5.26613,1.97341 12.81374,10.00633 15.08573,14.51813 4.49016,8.91808 -21.98345,9.81959 -15.83005,17.7544 3.16612,4.0824 -15.00819,24.1109 -9.25411,26.91145 2.59008,1.26075 8.74559,10.1092 11.48073,11.26867 11.18691,4.74073 153.19312,9.64657 153.19312,9.64657 0,0 -15.96772,-75.14591 -25.09365,-79.29161 -29.22932,-13.26951 -43.3571,-49.25941 -71.05032,-64.2275 -4.16363,-2.25036 -10.38456,0.59344 -14.95702,-0.49375 -10.57921,-2.51623 -20.18939,-7.25274 -31.16159,-7.90527 -11.55511,-0.68682 -54.53452,11.92648 -63.15403,21.24441 -1.55246,1.67801 -2.87968,3.54962 -4.07871,5.53305 z"
         style="clip-rule:evenodd;fill:#955935;fill-rule:evenodd;stroke-width:0.52751;stroke-linejoin:round;stroke-miterlimit:2"
         id="path101-9-5" />
      <path
         d="m 427.82797,-409.9731 c 0.0554,0.11289 0.11184,0.22736 0.16881,0.34077 1.26391,2.52783 11.72074,11.05345 22.33899,13.49951 11.15209,2.5695 13.77329,15.0736 14.37043,16.18928 3.91993,7.32659 11.27816,4.57141 15.23132,8.09834 19.62232,17.507 34.98869,49.35278 50.82454,71.40006 12.39121,17.25854 27.32501,31.51345 42.81271,42.36485 h 84.55458 c -0.43256,-9.57325 -13.92627,-21.62685 -19.59173,-28.89752 -10.21786,-13.11126 -73.08123,-42.26094 -90.9902,-50.39409 -29.22932,-13.26951 -43.3571,-49.25941 -71.05032,-64.2275 -4.16363,-2.25036 -10.38456,0.59344 -14.95702,-0.49375 -10.57921,-2.51623 -20.18939,-7.25274 -31.16159,-7.90527 -0.73061,-0.0433 -1.58623,-0.0338 -2.55052,0.0253 z"
         style="clip-rule:evenodd;fill:#855233;fill-rule:evenodd;stroke-width:0.52751;stroke-linejoin:round;stroke-miterlimit:2"
         id="path109-5-8" />
      <path
         d="m 473.01499,-394.81525 c 12.96476,7.05492 22.63653,19.15125 32.62594,30.90312 11.38326,13.39506 23.13028,26.38605 38.75453,33.48053 12.35035,5.60901 57.38209,31.55354 85.67609,51.93916 7.0358,5.06884 13.01578,9.76738 17.09263,13.70366 1.93862,1.87055 3.43361,3.3692 4.00588,4.65685 1.71237,3.84291 6.21954,5.57367 10.06127,3.86296 3.84618,-1.71124 5.57629,-6.2204 3.86392,-10.06331 -2.36892,-5.32416 -12.2838,-14.5656 -26.1114,-24.52816 -29.14575,-20.99859 -75.56158,-47.67371 -88.28456,-53.451 -13.60135,-6.17556 -23.53398,-17.81402 -33.44442,-29.47304 -11.26792,-13.26055 -22.47595,-26.59758 -37.13267,-34.51973 -2.89017,-1.56196 -14.76097,-0.71478 -16.81847,-1.20378 -11.01283,-2.61908 -21.05015,-7.41943 -32.47245,-8.09833 -7.4457,-0.44311 -27.10022,3.99641 -43.58421,9.98787 -11.66806,4.24171 -21.68586,9.43927 -25.61721,13.68889 -6.36948,6.88559 -9.26542,16.80488 -14.47528,24.68905 -8.97174,13.57811 -19.71619,26.54325 -31.7041,36.34333 -31.24717,25.5452 -49.81173,33.84979 -73.08619,70.75069 -2.24427,3.55806 -1.17736,8.26872 2.38046,10.51328 3.55827,2.24403 8.26905,1.1774 10.51332,-2.38065 22.15698,-35.13006 40.09382,-42.7626 69.84112,-67.08134 13.12579,-10.73061 24.95,-24.87421 34.77394,-39.74155 4.76314,-7.20895 7.12274,-16.44512 12.94702,-22.74096 2.96514,-3.20515 10.8345,-6.51474 19.63456,-9.71357 14.21532,-5.16748 31.0511,-9.47988 37.47159,-9.09796 10.52264,0.62563 19.7051,5.29831 29.85066,7.71114 2.62889,0.62563 13.05526,-0.15087 13.23803,-0.13715 z"
         style="clip-rule:evenodd;fill:#4d311f;fill-rule:evenodd;stroke-width:0.483749;stroke-linejoin:round;stroke-miterlimit:2"
         id="path117-8-0" />
      <path
         d="m 1258.5104,-258.08044 c -0.4303,-9.57272 -13.9252,-21.62633 -19.5947,-28.897 -10.2165,-13.11126 -73.0773,-42.26093 -90.9906,-50.39408 -29.2256,-13.27004 -43.3549,-49.25941 -71.0473,-64.22751 -4.1638,-2.25036 -10.3847,0.59345 -14.9575,-0.49428 -10.579,-2.51569 -20.1891,-7.2522 -31.1616,-7.90473 -11.5549,-0.68682 -54.53403,11.92647 -63.15398,21.24441 -6.09666,6.59071 -8.72465,16.1687 -13.71093,23.71474 -9.39762,14.22272 -20.68195,27.77709 -33.23902,38.04243 -30.49746,24.93224 -48.74793,32.9008 -71.46388,68.91602 z"
         style="clip-rule:evenodd;fill:#aa6941;fill-rule:evenodd;stroke-width:0.483749;stroke-linejoin:round;stroke-miterlimit:2"
         id="path85-8-8" />
      <path
         d="m 1025.4161,-460.41446 c -4.7587,-10.79039 -9.5912,-25.08609 -13.0212,-38.01197 -2.1438,-8.07585 -3.7413,-15.60695 -4.3725,-21.37158 -0.2113,-1.92462 -0.1875,-4.23499 -0.1513,-5.48013 1.7225,-1.84512 2.4913,-4.50611 1.8075,-7.12693 -1.0612,-4.07098 -5.2287,-6.51357 -9.2987,-5.45168 -3.00129,0.78323 -5.87004,2.97562 -7.15629,7.56792 -1.5775,5.63409 0.2125,19.85197 4.4375,35.77188 5.95379,22.43598 16.11379,48.51534 23.27129,57.13844 2.28,2.74802 4.6862,4.28436 6.9312,4.99061 1.905,1.01252 4.5513,1.27192 8.1025,-0.0159 1.245,-0.45186 2.9888,-1.27526 5.1163,-2.4133 12.445,-4.90358 23.25,-12.7242 32.4125,-21.30296 8.7962,-6.59222 17.525,-13.82961 24.3662,-20.73312 5.2938,-5.34289 9.4875,-10.53517 11.97,-15.08814 2.2788,-4.17808 3.2275,-8.06329 3.0475,-11.35522 -0.2787,-5.08349 -2.83,-7.25663 -4.4375,-8.18463 -2.1675,-1.251 -7.3687,-2.26268 -12.2412,3.41075 -4.065,4.73371 -11.9025,17.86628 -23.6213,31.17206 -1.8037,2.04678 -3.7025,4.10193 -5.7,6.12864 -9.8862,7.30098 -20.2587,14.10156 -27.3362,18.5901 1.2175,-8.59466 4.5337,-22.5205 13.2837,-45.82339 25.345,-67.50292 85.59,-90.54389 140.0425,-88.37075 79.01,3.15385 148.7188,48.91114 191.5375,134.07447 1.8888,3.75886 6.475,5.27596 10.2338,3.38565 3.7575,-1.88947 5.275,-6.47507 3.385,-10.23309 -45.65,-90.79743 -120.3113,-139.09604 -204.5488,-142.45826 -60.3225,-2.40828 -126.8437,23.46272 -154.9212,98.24318 -7.4763,19.91055 -11.255,33.51088 -13.1388,42.94735 z"
         style="clip-rule:evenodd;fill:#00079d;fill-rule:evenodd;stroke-width:1.02273;stroke-linejoin:round;stroke-miterlimit:2"
         id="path93-0-7" />
      <path
         d="m 963.52569,-383.22096 c 1.14945,1.13732 2.47455,2.27621 4.38572,3.16295 20.76438,9.63128 25.89599,3.21729 39.99739,21.3995 3.0643,3.95105 1.8579,17.69322 2.57,18.30618 1.7672,1.52134 5.7145,1.36678 7.8668,2.17282 5.2661,1.97341 12.8137,10.00633 15.0857,14.51813 4.4902,8.91808 -21.9834,9.81959 -15.83,17.7544 3.1661,4.0824 -15.0082,24.1109 -9.2541,26.91145 2.59,1.26075 8.7456,10.1092 11.4807,11.26867 11.1869,4.74073 153.1931,9.64657 153.1931,9.64657 0,0 -15.9677,-75.14591 -25.0936,-79.29161 -29.2294,-13.26951 -43.3571,-49.25941 -71.0504,-64.2275 -4.1636,-2.25036 -10.3845,0.59344 -14.957,-0.49375 -10.5792,-2.51623 -20.1894,-7.25274 -31.1616,-7.90527 -11.5551,-0.68682 -54.53449,11.92648 -63.154,21.24441 -1.55246,1.67801 -2.87968,3.54962 -4.07871,5.53305 z"
         style="clip-rule:evenodd;fill:#955935;fill-rule:evenodd;stroke-width:0.52751;stroke-linejoin:round;stroke-miterlimit:2"
         id="path101-9-9" />
      <path
         d="m 1028.2079,-409.9731 c 0.055,0.11289 0.1118,0.22736 0.1688,0.34077 1.2639,2.52783 11.7208,11.05345 22.339,13.49951 11.1521,2.5695 13.7733,15.0736 14.3704,16.18928 3.92,7.32659 11.2782,4.57141 15.2314,8.09834 19.6223,17.507 34.9886,49.35278 50.8245,71.40006 12.3912,17.25854 27.325,31.51345 42.8127,42.36485 h 84.5546 c -0.4326,-9.57325 -13.9263,-21.62685 -19.5917,-28.89752 -10.2179,-13.11126 -73.0813,-42.26094 -90.9902,-50.39409 -29.2294,-13.26951 -43.3571,-49.25941 -71.0504,-64.2275 -4.1636,-2.25036 -10.3845,0.59344 -14.957,-0.49375 -10.5792,-2.51623 -20.1894,-7.25274 -31.1616,-7.90527 -0.7306,-0.0433 -1.5862,-0.0338 -2.5505,0.0253 z"
         style="clip-rule:evenodd;fill:#855233;fill-rule:evenodd;stroke-width:0.52751;stroke-linejoin:round;stroke-miterlimit:2"
         id="path109-5-5" />
      <path
         d="m 1073.3949,-394.81525 c 12.9648,7.05492 22.6366,19.15125 32.626,30.90312 11.3832,13.39506 23.1302,26.38605 38.7545,33.48053 12.3503,5.60901 57.3821,31.55354 85.6761,51.93916 7.0358,5.06884 13.0158,9.76738 17.0926,13.70366 1.9386,1.87055 3.4336,3.3692 4.0059,4.65685 1.7124,3.84291 6.2195,5.57367 10.0613,3.86296 3.8461,-1.71124 5.5763,-6.2204 3.8639,-10.06331 -2.3689,-5.32416 -12.2838,-14.5656 -26.1114,-24.52816 -29.1458,-20.99859 -75.5616,-47.67371 -88.2846,-53.451 -13.6013,-6.17556 -23.534,-17.81402 -33.4444,-29.47304 -11.2679,-13.26055 -22.4759,-26.59758 -37.1327,-34.51973 -2.8901,-1.56196 -14.7609,-0.71478 -16.8184,-1.20378 -11.0129,-2.61908 -21.0502,-7.41943 -32.4725,-8.09833 -7.4457,-0.44311 -27.1002,3.99641 -43.58419,9.98787 -11.66806,4.24171 -21.68586,9.43927 -25.61721,13.68889 -6.36948,6.88559 -9.26542,16.80488 -14.47528,24.68905 -8.97175,13.57811 -19.71619,26.54325 -31.7041,36.34333 -31.24718,25.5452 -49.81174,33.84979 -73.08619,70.75069 -2.24427,3.55806 -1.17737,8.26872 2.38046,10.51328 3.55826,2.24403 8.26905,1.1774 10.51332,-2.38065 22.15698,-35.13006 40.09382,-42.7626 69.84111,-67.08134 13.1258,-10.73061 24.95001,-24.87421 34.77395,-39.74155 4.76313,-7.20895 7.12274,-16.44512 12.94701,-22.74096 2.96515,-3.20515 10.8345,-6.51474 19.63457,-9.71357 14.21535,-5.16748 31.05105,-9.47988 37.47155,-9.09796 10.5227,0.62563 19.7051,5.29831 29.8507,7.71114 2.6289,0.62563 13.0553,-0.15087 13.238,-0.13715 z"
         style="clip-rule:evenodd;fill:#4d311f;fill-rule:evenodd;stroke-width:0.483749;stroke-linejoin:round;stroke-miterlimit:2"
         id="path117-8-8" />
      <path
         d="m -418.79276,439.96094 c -0.43031,-9.57272 -13.92519,-21.62633 -19.59464,-28.897 -10.21654,-13.11126 -73.07731,-42.26093 -90.99064,-50.39408 -29.2256,-13.27004 -43.35486,-49.25941 -71.04732,-64.22751 -4.1638,-2.25036 -10.38467,0.59345 -14.95749,-0.49428 -10.57898,-2.51569 -20.18909,-7.2522 -31.16155,-7.90473 -11.55494,-0.68682 -54.53406,11.92647 -63.15401,21.24441 -6.09666,6.59071 -8.72465,16.1687 -13.71093,23.71474 -9.39762,14.22272 -20.68195,27.77709 -33.23902,38.04243 -30.49746,24.93224 -48.74793,32.9008 -71.46388,68.91602 z"
         style="clip-rule:evenodd;fill:#aa6941;fill-rule:evenodd;stroke-width:0.483749;stroke-linejoin:round;stroke-miterlimit:2"
         id="path32" />
      <path
         d="m -9.4727605,439.96094 c -0.43031,-9.57272 -13.9251935,-21.62633 -19.5946405,-28.897 -10.21654,-13.11126 -73.077319,-42.26093 -90.990639,-50.39408 -29.22561,-13.27004 -43.35486,-49.25941 -71.04732,-64.22751 -4.1638,-2.25036 -10.38467,0.59345 -14.95749,-0.49428 -10.57898,-2.51569 -20.18909,-7.2522 -31.16155,-7.90473 -11.55494,-0.68682 -54.53406,11.92647 -63.15401,21.24441 -6.09666,6.59071 -8.72465,16.1687 -13.71093,23.71474 -9.39762,14.22272 -20.68195,27.77709 -33.23902,38.04243 -30.49746,24.93224 -48.74793,32.9008 -71.46388,68.91602 z"
         style="clip-rule:evenodd;fill:#aa6941;fill-rule:evenodd;stroke-width:0.483749;stroke-linejoin:round;stroke-miterlimit:2"
         id="path36" />
      <path
         d="m 399.84724,439.96094 c -0.43031,-9.57272 -13.92519,-21.62633 -19.59464,-28.897 -10.21654,-13.11126 -73.07731,-42.26093 -90.99064,-50.39408 -29.2256,-13.27004 -43.35486,-49.25941 -71.04732,-64.22751 -4.1638,-2.25036 -10.38467,0.59345 -14.95749,-0.49428 -10.57898,-2.51569 -20.18909,-7.2522 -31.16155,-7.90473 -11.55494,-0.68682 -54.53406,11.92647 -63.15401,21.24441 -6.09666,6.59071 -8.72465,16.1687 -13.710935,23.71474 -9.39762,14.22272 -20.68195,27.77709 -33.23902,38.04243 -30.49746,24.93224 -48.74793,32.9008 -71.4638745,68.91602 z"
         style="clip-rule:evenodd;fill:#aa6941;fill-rule:evenodd;stroke-width:0.483749;stroke-linejoin:round;stroke-miterlimit:2"
         id="path40" />
      <path
         d="m 809.16474,439.96094 c -0.43031,-9.57272 -13.92519,-21.62633 -19.59464,-28.897 -10.21654,-13.11126 -73.07731,-42.26093 -90.99064,-50.39408 -29.2256,-13.27004 -43.35486,-49.25941 -71.04732,-64.22751 -4.1638,-2.25036 -10.38467,0.59345 -14.95749,-0.49428 -10.57898,-2.51569 -20.18909,-7.2522 -31.16155,-7.90473 -11.55494,-0.68682 -54.53406,11.92647 -63.15401,21.24441 -6.09666,6.59071 -8.72465,16.1687 -13.71093,23.71474 -9.39762,14.22272 -20.68195,27.77709 -33.23902,38.04243 -30.49746,24.93224 -48.74793,32.9008 -71.46388,68.91602 z"
         style="clip-rule:evenodd;fill:#aa6941;fill-rule:evenodd;stroke-width:0.483749;stroke-linejoin:round;stroke-miterlimit:2"
         id="path44" />
      <path
         d="m -713.77746,314.82042 c 1.14945,1.13732 2.47455,2.27621 4.38572,3.16295 20.76438,9.63128 25.89599,3.21729 39.99739,21.3995 3.06431,3.95105 1.85789,17.69322 2.57003,18.30618 1.76716,1.52134 5.71452,1.36678 7.86676,2.17282 5.26613,1.97341 12.81374,10.00633 15.08573,14.51813 4.49016,8.91808 -21.98345,9.81959 -15.83005,17.7544 3.16612,4.0824 -15.00819,24.1109 -9.25411,26.91145 2.59008,1.26075 8.74559,10.1092 11.48073,11.26867 11.1869,4.74073 153.19312,9.64657 153.19312,9.64657 0,0 -15.96772,-75.14591 -25.09365,-79.29161 -29.22933,-13.26951 -43.3571,-49.25941 -71.05032,-64.2275 -4.16364,-2.25036 -10.38456,0.59344 -14.95702,-0.49375 -10.57921,-2.51623 -20.18939,-7.25274 -31.1616,-7.90527 -11.5551,-0.68682 -54.53451,11.92648 -63.15402,21.24441 -1.55246,1.67801 -2.87968,3.54962 -4.07871,5.53305 z"
         style="clip-rule:evenodd;fill:#955935;fill-rule:evenodd;stroke-width:0.52751;stroke-linejoin:round;stroke-miterlimit:2"
         id="path48" />
      <path
         d="m -304.45745,314.82042 c 1.14945,1.13732 2.47455,2.27621 4.38572,3.16295 20.76438,9.63128 25.89599,3.21729 39.99739,21.3995 3.06431,3.95105 1.85789,17.69322 2.57003,18.30618 1.76716,1.52134 5.71452,1.36678 7.86676,2.17282 5.26613,1.97341 12.81374,10.00633 15.08573,14.51813 4.49016,8.91808 -21.98345,9.81959 -15.83005,17.7544 3.16612,4.0824 -15.00819,24.1109 -9.25411,26.91145 2.59008,1.26075 8.74559,10.1092 11.48073,11.26867 11.1869,4.74073 153.193119,9.64657 153.193119,9.64657 0,0 -15.967729,-75.14591 -25.093649,-79.29161 -29.22933,-13.26951 -43.3571,-49.25941 -71.05032,-64.2275 -4.16364,-2.25036 -10.38456,0.59344 -14.95702,-0.49375 -10.57921,-2.51623 -20.18939,-7.25274 -31.1616,-7.90527 -11.5551,-0.68682 -54.53451,11.92648 -63.15402,21.24441 -1.55246,1.67801 -2.87968,3.54962 -4.07871,5.53305 z"
         style="clip-rule:evenodd;fill:#955935;fill-rule:evenodd;stroke-width:0.52751;stroke-linejoin:round;stroke-miterlimit:2"
         id="path52" />
      <path
         d="m 104.8638,314.82042 c 1.14945,1.13732 2.47455,2.27621 4.38572,3.16295 20.76438,9.63128 25.89599,3.21729 39.99739,21.3995 3.06431,3.95105 1.85789,17.69322 2.57003,18.30618 1.76716,1.52134 5.71452,1.36678 7.86676,2.17282 5.26613,1.97341 12.81374,10.00633 15.08573,14.51813 4.49016,8.91808 -21.98345,9.81959 -15.83005,17.7544 3.16612,4.0824 -15.00819,24.1109 -9.25411,26.91145 2.59008,1.26075 8.74559,10.1092 11.48073,11.26867 11.1869,4.74073 153.19312,9.64657 153.19312,9.64657 0,0 -15.96772,-75.14591 -25.09365,-79.29161 -29.22933,-13.26951 -43.3571,-49.25941 -71.05032,-64.2275 -4.16364,-2.25036 -10.38456,0.59344 -14.95702,-0.49375 -10.57921,-2.51623 -20.18939,-7.25274 -31.1616,-7.90527 -11.5551,-0.68682 -54.53451,11.92648 -63.15402,21.24441 -1.55246,1.67801 -2.87968,3.54962 -4.07871,5.53305 z"
         style="clip-rule:evenodd;fill:#955935;fill-rule:evenodd;stroke-width:0.52751;stroke-linejoin:round;stroke-miterlimit:2"
         id="path56" />
      <path
         d="m 514.18505,314.82042 c 1.14945,1.13732 2.47455,2.27621 4.38572,3.16295 20.76438,9.63128 25.89599,3.21729 39.99739,21.3995 3.06431,3.95105 1.85789,17.69322 2.57003,18.30618 1.76716,1.52134 5.71452,1.36678 7.86676,2.17282 5.26613,1.97341 12.81374,10.00633 15.08573,14.51813 4.49016,8.91808 -21.98345,9.81959 -15.83005,17.7544 3.16612,4.0824 -15.00819,24.1109 -9.25411,26.91145 2.59008,1.26075 8.74559,10.1092 11.48073,11.26867 11.1869,4.74073 153.19312,9.64657 153.19312,9.64657 0,0 -15.96772,-75.14591 -25.09365,-79.29161 -29.22933,-13.26951 -43.3571,-49.25941 -71.05032,-64.2275 -4.16364,-2.25036 -10.38456,0.59344 -14.95702,-0.49375 -10.57921,-2.51623 -20.18939,-7.25274 -31.1616,-7.90527 -11.5551,-0.68682 -54.53451,11.92648 -63.15402,21.24441 -1.55246,1.67801 -2.87968,3.54962 -4.07871,5.53305 z"
         style="clip-rule:evenodd;fill:#955935;fill-rule:evenodd;stroke-width:0.52751;stroke-linejoin:round;stroke-miterlimit:2"
         id="path60" />
      <path
         d="m -649.09524,288.06828 c 0.0554,0.11289 0.11184,0.22736 0.16881,0.34077 1.26391,2.52783 11.72074,11.05345 22.33899,13.49951 11.15209,2.5695 13.77329,15.0736 14.37043,16.18928 3.91992,7.32659 11.27816,4.57141 15.23132,8.09834 19.62232,17.507 34.98868,49.35278 50.82454,71.40006 12.39121,17.25854 27.32501,31.51345 42.81271,42.36485 h 84.55457 c -0.43255,-9.57325 -13.92626,-21.62685 -19.59172,-28.89752 -10.21787,-13.11126 -73.08123,-42.26094 -90.9902,-50.39409 -29.22933,-13.26951 -43.3571,-49.25941 -71.05032,-64.2275 -4.16364,-2.25036 -10.38456,0.59344 -14.95702,-0.49375 -10.57921,-2.51623 -20.18939,-7.25274 -31.1616,-7.90527 -0.7306,-0.0433 -1.58622,-0.0338 -2.55051,0.0253 z"
         style="clip-rule:evenodd;fill:#855233;fill-rule:evenodd;stroke-width:0.52751;stroke-linejoin:round;stroke-miterlimit:2"
         id="path64" />
      <path
         d="m -239.77523,288.06828 c 0.0554,0.11289 0.11184,0.22736 0.16881,0.34077 1.26391,2.52783 11.72074,11.05345 22.33899,13.49951 11.15209,2.5695 13.77329,15.0736 14.37043,16.18928 3.91992,7.32659 11.27816,4.57141 15.23132,8.09834 19.62231,17.507 34.98868,49.35278 50.82453,71.40006 12.39121,17.25854 27.32502,31.51345 42.812712,42.36485 h 84.5545785 c -0.432559,-9.57325 -13.9262645,-21.62685 -19.5917225,-28.89752 -10.217868,-13.11126 -73.081238,-42.26094 -90.990198,-50.39409 -29.22933,-13.26951 -43.3571,-49.25941 -71.05032,-64.2275 -4.16364,-2.25036 -10.38456,0.59344 -14.95702,-0.49375 -10.57921,-2.51623 -20.18939,-7.25274 -31.1616,-7.90527 -0.7306,-0.0433 -1.58622,-0.0338 -2.55051,0.0253 z"
         style="clip-rule:evenodd;fill:#855233;fill-rule:evenodd;stroke-width:0.52751;stroke-linejoin:round;stroke-miterlimit:2"
         id="path68" />
      <path
         d="m 169.54602,288.06828 c 0.0554,0.11289 0.11184,0.22736 0.16881,0.34077 1.26391,2.52783 11.72074,11.05345 22.33899,13.49951 11.15209,2.5695 13.77329,15.0736 14.37043,16.18928 3.91992,7.32659 11.27816,4.57141 15.23132,8.09834 19.62232,17.507 34.98868,49.35278 50.82454,71.40006 12.39121,17.25854 27.32501,31.51345 42.81271,42.36485 h 84.55457 c -0.43255,-9.57325 -13.92626,-21.62685 -19.59172,-28.89752 -10.21787,-13.11126 -73.08123,-42.26094 -90.9902,-50.39409 -29.22933,-13.26951 -43.3571,-49.25941 -71.05032,-64.2275 -4.16364,-2.25036 -10.38456,0.59344 -14.95702,-0.49375 -10.57921,-2.51623 -20.18939,-7.25274 -31.1616,-7.90527 -0.7306,-0.0433 -1.58622,-0.0338 -2.55051,0.0253 z"
         style="clip-rule:evenodd;fill:#855233;fill-rule:evenodd;stroke-width:0.52751;stroke-linejoin:round;stroke-miterlimit:2"
         id="path72" />
      <path
         d="m 578.86727,288.06828 c 0.0554,0.11289 0.11184,0.22736 0.16881,0.34077 1.26391,2.52783 11.72074,11.05345 22.33899,13.49951 11.15209,2.5695 13.77329,15.0736 14.37043,16.18928 3.91992,7.32659 11.27816,4.57141 15.23132,8.09834 19.62232,17.507 34.98868,49.35278 50.82454,71.40006 12.39121,17.25854 27.32501,31.51345 42.81271,42.36485 h 84.55457 c -0.43255,-9.57325 -13.92626,-21.62685 -19.59172,-28.89752 -10.21787,-13.11126 -73.08123,-42.26094 -90.9902,-50.39409 -29.22933,-13.26951 -43.3571,-49.25941 -71.05032,-64.2275 -4.16364,-2.25036 -10.38456,0.59344 -14.95702,-0.49375 -10.57921,-2.51623 -20.18939,-7.25274 -31.1616,-7.90527 -0.7306,-0.0433 -1.58622,-0.0338 -2.55051,0.0253 z"
         style="clip-rule:evenodd;fill:#855233;fill-rule:evenodd;stroke-width:0.52751;stroke-linejoin:round;stroke-miterlimit:2"
         id="path76" />
      <path
         d="m -603.90821,303.22613 c 12.96476,7.05492 22.63654,19.15125 32.62594,30.90312 11.38326,13.39506 23.13029,26.38605 38.75454,33.48053 12.40358,5.63222 48.15038,20.11923 70.86366,33.68257 5.3944,3.22097 10.01247,6.3528 13.24202,9.30264 1.42401,1.29662 2.56411,2.4276 3.07428,3.56913 7.47497,16.79433 15.51778,24.02439 23.49848,25.45394 5.87351,1.05133 12.39914,-0.6768 19.76765,-5.63908 13.50376,-9.10008 31.6522,-30.50802 59.99944,-57.4047 12.31929,-11.68909 24.63415,-24.65951 34.35383,-39.36965 4.76447,-7.20895 7.12452,-16.44512 12.9448,-22.74096 2.96781,-3.20515 10.83761,-6.51474 19.63457,-9.71357 14.21798,-5.16748 31.05331,-9.47988 37.47247,-9.09796 10.52264,0.62563 19.70555,5.29831 29.85111,7.71114 2.63066,0.62563 13.0557,-0.15087 13.23758,-0.13715 12.96697,7.05492 22.63786,19.15125 32.62372,30.90312 11.38769,13.39506 23.13028,26.38605 38.75897,33.48053 12.40802,5.63539 46.624329,21.45436 69.506184,34.89584 8.632821,5.07359 15.619816,9.56639 18.45454,13.03741 0.381512,0.76014 5.909002,11.61735 11.906727,17.08447 6.121939,5.58422 13.9828635,8.67015 23.47186847,5.04405 8.53078903,-3.2616 18.76063553,-11.73183 28.96386553,-21.92859 13.77436,-13.76801 27.76166,-30.6573 37.7209,-38.79678 13.12668,-10.73061 24.94912,-24.87421 34.770845,-39.74155 4.76447,-7.20895 7.12452,-16.44512 12.94923,-22.74096 2.96338,-3.20515 10.83317,-6.51474 19.63457,-9.71357 14.21354,-5.16748 31.05331,-9.47988 37.47248,-9.09796 10.52263,0.62563 19.70554,5.29831 29.8511,7.71114 2.62622,0.62563 13.0557,-0.15087 13.23758,-0.13715 12.96254,7.05492 22.63343,19.15125 32.62373,30.90312 11.38769,13.39506 23.13028,26.38605 38.75453,33.48053 12.41245,5.63539 46.62877,21.45436 69.50619,34.89584 8.69492,5.10841 15.71741,9.62811 18.51664,13.10915 0.22181,0.48109 4.13453,8.90543 8.03394,13.89145 6.14856,7.86517 15.06529,13.39401 27.6197,8.207 8.18033,-3.37976 18.40131,-11.98714 28.66665,-22.22769 13.94293,-13.91202 28.23189,-30.81344 37.68097,-38.53935 13.12668,-10.73061 24.95356,-24.87421 34.77528,-39.74155 4.76446,-7.20895 7.12451,-16.44512 12.94923,-22.74096 2.96337,-3.20515 10.83317,-6.51474 19.63456,-9.71357 14.21355,-5.16748 31.04888,-9.47988 37.47248,-9.09796 10.52264,0.62563 19.70111,5.29831 29.84667,7.71114 2.63066,0.62563 13.0557,-0.15087 13.24202,-0.13715 12.96254,7.05492 22.63343,19.15125 32.62372,30.90312 11.38326,13.39506 23.12585,26.38605 38.75454,33.48053 12.40801,5.63539 46.62433,21.45436 69.50618,34.89584 8.81027,5.17487 15.8993,9.74628 18.62312,13.24367 2.89239,3.71156 7.7722,8.33993 11.99545,13.24999 2.91014,3.38398 5.84689,6.69727 5.99772,10.06542 0.19076,4.20267 3.75745,7.46005 7.95852,7.27067 4.20107,-0.1899 7.46167,-3.75587 7.27091,-7.95854 -0.23511,-5.17751 -2.95006,-10.7802 -7.02692,-16.08062 -4.53378,-5.89334 -10.76219,-11.54561 -14.16918,-15.91761 -3.40699,-4.36989 -11.92447,-10.55126 -22.92622,-17.01642 -23.35209,-13.7179 -58.26045,-29.88133 -70.92576,-35.63224 -13.60135,-6.17556 -23.53398,-17.81402 -33.44442,-29.47304 -11.27235,-13.26055 -22.47373,-26.59758 -37.13089,-34.51973 -2.89239,-1.56196 -14.76363,-0.71478 -16.82202,-1.20378 -11.01062,-2.61908 -21.04971,-7.41943 -32.47289,-8.09833 -7.44393,-0.44311 -27.10067,3.99641 -43.58111,9.98787 -11.66717,4.24171 -21.68852,9.43927 -25.61898,13.68889 -6.37037,6.88559 -9.2672,16.80488 -14.47528,24.68905 -8.96997,13.57811 -19.71442,26.54325 -31.70543,36.34333 -9.71082,7.94166 -24.46558,25.24926 -38.7989,39.54953 -8.58846,8.56782 -16.87969,16.10277 -23.7203,18.93075 -4.53378,1.87214 -7.57257,-0.66888 -9.79066,-3.50741 -4.17889,-5.34684 -6.56112,-12.00824 -7.90972,-13.73847 -3.407,-4.36989 -11.92004,-10.55126 -22.92622,-17.01642 -23.35209,-13.7179 -58.26045,-29.88133 -70.92577,-35.63224 -13.60135,-6.17556 -23.53397,-17.81402 -33.44441,-29.47304 -11.26792,-13.26055 -22.47373,-26.59758 -37.13089,-34.51973 -2.8924,-1.56196 -14.7592,-0.71478 -16.81759,-1.20378 -11.01505,-2.61908 -21.04971,-7.41943 -32.47289,-8.09833 -7.44836,-0.44311 -27.10067,3.99641 -43.58554,9.98787 -11.66718,4.24171 -21.68409,9.43927 -25.61455,13.68889 -6.370375,6.88559 -9.267205,16.80488 -14.475285,24.68905 -8.97441,13.57811 -19.71885,26.54325 -31.70543,36.34333 -10.23429,8.36789 -24.68739,25.66283 -38.8477,39.81698 -8.4243195,8.41853 -16.5869015,15.77835 -23.6315675,18.47182 -4.347464,1.66165 -7.4527955,-1.38735 -9.8749535,-4.31609 -4.343028,-5.25031 -6.94707,-11.55616 -7.869797,-12.73831 -3.402556,-4.36989 -11.920036,-10.55126 -22.926217,-17.01642 -23.347655,-13.7179 -58.26045,-29.88133 -70.92577,-35.63224 -13.59691,-6.17556 -23.53397,-17.81402 -33.43998,-29.47304 -11.27235,-13.26055 -22.47816,-26.59758 -37.13532,-34.51973 -2.88796,-1.56196 -14.75919,-0.71478 -16.81758,-1.20378 -11.01062,-2.61908 -21.04971,-7.41943 -32.4729,-8.09833 -7.44392,-0.44311 -27.10067,3.99641 -43.5811,9.98787 -11.67161,4.24171 -21.68852,9.43927 -25.61899,13.68889 -6.37036,6.88559 -9.26719,16.80488 -14.47528,24.68905 -9.07644,13.73478 -20.62383,25.80104 -32.12687,36.71522 -13.36623,12.68081 -39.26469,37.59775 -40.65322,40.55497 -5.66501,12.09106 -27.35353,24.60781 -31.00451,14.63946 -1.39296,-3.8081 -4.73341,-7.23164 -7.19106,-12.74675 -2.4887,-5.59319 -10.81543,-12.82377 -22.42493,-19.75895 -23.2057,-13.85874 -59.70665,-28.72081 -72.3764,-34.47488 -13.60135,-6.17556 -23.53397,-17.81402 -33.44442,-29.47304 -11.26791,-13.26055 -22.47594,-26.59758 -37.13266,-34.51973 -2.89018,-1.56196 -14.76097,-0.71478 -16.81847,-1.20378 -11.01284,-2.61908 -21.05016,-7.41943 -32.47245,-8.09833 -7.4457,-0.44311 -27.10023,3.99641 -43.58421,9.98787 -11.66806,4.24171 -21.68586,9.43927 -25.61721,13.68889 -6.36948,6.88559 -9.26542,16.80488 -14.47528,24.68905 -8.97175,13.57811 -19.71619,26.54325 -31.7041,36.34333 -31.24718,25.5452 -49.81174,33.84979 -73.08619,70.75069 -2.24427,3.55806 -1.17737,8.26872 2.38046,10.51328 3.55826,2.24403 8.26905,1.1774 10.51332,-2.38065 22.15698,-35.13006 40.09382,-42.7626 69.84111,-67.08134 13.1258,-10.73061 24.95001,-24.87421 34.77395,-39.74155 4.76313,-7.20895 7.12274,-16.44512 12.94701,-22.74096 2.96515,-3.20515 10.8345,-6.51474 19.63457,-9.71357 14.21532,-5.16748 31.05109,-9.47988 37.47158,-9.09796 10.52264,0.62563 19.70511,5.29831 29.85067,7.71114 2.62888,0.62563 13.05525,-0.15087 13.23802,-0.13715 z"
         style="clip-rule:evenodd;fill:#4d311f;fill-rule:evenodd;stroke-width:0.483749;stroke-linejoin:round;stroke-miterlimit:2"
         id="path80" />
      <text
         xml:space="preserve"
         style="font-size:146.036px;line-height:1.25;font-family:sans-serif;stroke-width:5.47634"
         x="-880.71008"
         y="297.83911"
         id="text13102-7"><tspan
           sodipodi:role="line"
           id="tspan13100-39"
           style="stroke-width:5.47634"
           x="-880.71008"
           y="297.83911">7</tspan></text>
      <text
         xml:space="preserve"
         style="font-style:normal;font-variant:normal;font-weight:normal;font-stretch:normal;font-size:125.139px;line-height:1.25;font-family:sans-serif;font-variant-ligatures:normal;font-variant-position:normal;font-variant-caps:normal;font-variant-numeric:normal;font-variant-alternates:normal;font-variant-east-asian:normal;font-feature-settings:normal;font-variation-settings:normal;text-indent:0;text-align:start;text-decoration-line:none;text-decoration-style:solid;text-decoration-color:#000000;letter-spacing:normal;word-spacing:normal;text-transform:none;writing-mode:lr-tb;direction:ltr;text-orientation:mixed;dominant-baseline:auto;baseline-shift:baseline;text-anchor:start;white-space:normal;shape-padding:0;shape-margin:0;inline-size:0;opacity:1;vector-effect:none;fill:#ffffff;fill-opacity:1;stroke:none;stroke-width:4.21322;stroke-linecap:butt;stroke-linejoin:round;stroke-miterlimit:4;stroke-dasharray:none;stroke-dashoffset:0;stroke-opacity:1;-inkscape-stroke:none;paint-order:markers fill stroke;stop-color:#000000;stop-opacity:1"
         x="-629.9234"
         y="937.86157"
         id="text4004"
         transform="translate(-58.369937,-519.31756)"><tspan
           sodipodi:role="line"
           id="tspan4002"
           style="font-style:normal;font-variant:normal;font-weight:normal;font-stretch:normal;font-size:125.139px;line-height:1.25;font-family:sans-serif;font-variant-ligatures:normal;font-variant-position:normal;font-variant-caps:normal;font-variant-numeric:normal;font-variant-alternates:normal;font-variant-east-asian:normal;font-feature-settings:normal;font-variation-settings:normal;text-indent:0;text-align:start;text-decoration-line:none;text-decoration-style:solid;text-decoration-color:#000000;letter-spacing:normal;word-spacing:normal;text-transform:none;writing-mode:lr-tb;direction:ltr;text-orientation:mixed;dominant-baseline:auto;baseline-shift:baseline;text-anchor:start;white-space:normal;shape-padding:0;shape-margin:0;inline-size:0;vector-effect:none;fill:#ffffff;fill-opacity:1;stroke:none;stroke-width:4.21322;stroke-linecap:butt;stroke-linejoin:round;stroke-miterlimit:4;stroke-dasharray:none;stroke-dashoffset:0;stroke-opacity:1;-inkscape-stroke:none;paint-order:markers fill stroke;stop-color:#000000;stop-opacity:1"
           x="-629.9234"
           y="937.86157">A</tspan></text>
      <text
         xml:space="preserve"
         style="font-style:normal;font-variant:normal;font-weight:normal;font-stretch:normal;font-size:125.139px;line-height:1.25;font-family:sans-serif;font-variant-ligatures:normal;font-variant-position:normal;font-variant-caps:normal;font-variant-numeric:normal;font-variant-alternates:normal;font-variant-east-asian:normal;font-feature-settings:normal;font-variation-settings:normal;text-indent:0;text-align:start;text-decoration-line:none;text-decoration-style:solid;text-decoration-color:#000000;letter-spacing:normal;word-spacing:normal;text-transform:none;writing-mode:lr-tb;direction:ltr;text-orientation:mixed;dominant-baseline:auto;baseline-shift:baseline;text-anchor:start;white-space:normal;shape-padding:0;shape-margin:0;inline-size:0;opacity:1;vector-effect:none;fill:#ffffff;fill-opacity:1;stroke:none;stroke-width:4.21322;stroke-linecap:butt;stroke-linejoin:round;stroke-miterlimit:4;stroke-dasharray:none;stroke-dashoffset:0;stroke-opacity:1;-inkscape-stroke:none;paint-order:markers fill stroke;stop-color:#000000;stop-opacity:1"
         x="-250.28967"
         y="937.86157"
         id="text4004-2"
         transform="translate(-18.465464,-519.31756)"><tspan
           sodipodi:role="line"
           id="tspan4002-5"
           style="font-style:normal;font-variant:normal;font-weight:normal;font-stretch:normal;font-size:125.139px;line-height:1.25;font-family:sans-serif;font-variant-ligatures:normal;font-variant-position:normal;font-variant-caps:normal;font-variant-numeric:normal;font-variant-alternates:normal;font-variant-east-asian:normal;font-feature-settings:normal;font-variation-settings:normal;text-indent:0;text-align:start;text-decoration-line:none;text-decoration-style:solid;text-decoration-color:#000000;letter-spacing:normal;word-spacing:normal;text-transform:none;writing-mode:lr-tb;direction:ltr;text-orientation:mixed;dominant-baseline:auto;baseline-shift:baseline;text-anchor:start;white-space:normal;shape-padding:0;shape-margin:0;inline-size:0;vector-effect:none;fill:#ffffff;fill-opacity:1;stroke:none;stroke-width:4.21322;stroke-linecap:butt;stroke-linejoin:round;stroke-miterlimit:4;stroke-dasharray:none;stroke-dashoffset:0;stroke-opacity:1;-inkscape-stroke:none;paint-order:markers fill stroke;stop-color:#000000;stop-opacity:1"
           x="-250.28967"
           y="937.86157">B</tspan></text>
      <text
         xml:space="preserve"
         style="font-style:normal;font-variant:normal;font-weight:normal;font-stretch:normal;font-size:125.139px;line-height:1.25;font-family:sans-serif;font-variant-ligatures:normal;font-variant-position:normal;font-variant-caps:normal;font-variant-numeric:normal;font-variant-alternates:normal;font-variant-east-asian:normal;font-feature-settings:normal;font-variation-settings:normal;text-indent:0;text-align:start;text-decoration-line:none;text-decoration-style:solid;text-decoration-color:#000000;letter-spacing:normal;word-spacing:normal;text-transform:none;writing-mode:lr-tb;direction:ltr;text-orientation:mixed;dominant-baseline:auto;baseline-shift:baseline;text-anchor:start;white-space:normal;shape-padding:0;shape-margin:0;inline-size:0;opacity:1;vector-effect:none;fill:#ffffff;fill-opacity:1;stroke:none;stroke-width:4.21322;stroke-linecap:butt;stroke-linejoin:round;stroke-miterlimit:4;stroke-dasharray:none;stroke-dashoffset:0;stroke-opacity:1;-inkscape-stroke:none;paint-order:markers fill stroke;stop-color:#000000;stop-opacity:1"
         x="111.8608"
         y="936.08948"
         id="text4004-4"
         transform="translate(20.108855,-519.31745)"><tspan
           sodipodi:role="line"
           id="tspan4002-4"
           style="font-style:normal;font-variant:normal;font-weight:normal;font-stretch:normal;font-size:125.139px;line-height:1.25;font-family:sans-serif;font-variant-ligatures:normal;font-variant-position:normal;font-variant-caps:normal;font-variant-numeric:normal;font-variant-alternates:normal;font-variant-east-asian:normal;font-feature-settings:normal;font-variation-settings:normal;text-indent:0;text-align:start;text-decoration-line:none;text-decoration-style:solid;text-decoration-color:#000000;letter-spacing:normal;word-spacing:normal;text-transform:none;writing-mode:lr-tb;direction:ltr;text-orientation:mixed;dominant-baseline:auto;baseline-shift:baseline;text-anchor:start;white-space:normal;shape-padding:0;shape-margin:0;inline-size:0;vector-effect:none;fill:#ffffff;fill-opacity:1;stroke:none;stroke-width:4.21322;stroke-linecap:butt;stroke-linejoin:round;stroke-miterlimit:4;stroke-dasharray:none;stroke-dashoffset:0;stroke-opacity:1;-inkscape-stroke:none;paint-order:markers fill stroke;stop-color:#000000;stop-opacity:1"
           x="111.8608"
           y="936.08948">C</tspan></text>
      <text
         xml:space="preserve"
         style="font-style:normal;font-weight:normal;font-size:125.139px;line-height:1.25;font-family:sans-serif;font-variation-settings:normal;vector-effect:none;fill:#ffffff;fill-opacity:1;stroke:none;stroke-width:4.21322;stroke-linecap:butt;stroke-linejoin:round;stroke-miterlimit:4;stroke-dasharray:none;stroke-dashoffset:0;stroke-opacity:1;-inkscape-stroke:none;paint-order:markers fill stroke;stop-color:#000000"
         x="541.66571"
         y="418.54401"
         id="text4004-3"><tspan
           sodipodi:role="line"
           id="tspan4002-3"
           style="font-variation-settings:normal;vector-effect:none;fill:#ffffff;fill-opacity:1;stroke:none;stroke-width:4.21322;stroke-linecap:butt;stroke-linejoin:round;stroke-miterlimit:4;stroke-dasharray:none;stroke-dashoffset:0;stroke-opacity:1;-inkscape-stroke:none;paint-order:markers fill stroke;stop-color:#000000;stop-opacity:1"
           x="541.66571"
           y="418.54401">D</tspan></text>
    </g>
  </g>
</svg>
