<?xml version="1.0" encoding="UTF-8" standalone="no"?>
<!-- Created with Inkscape (http://www.inkscape.org/) -->

<svg
   width="89.268463mm"
   height="69.883324mm"
   viewBox="0 0 89.268466 69.883324"
   version="1.1"
   id="svg6332"
   inkscape:version="1.1.1 (3bf5ae0d25, 2021-09-20)"
   sodipodi:docname="2023-SK-02_R.svg"
   xmlns:inkscape="http://www.inkscape.org/namespaces/inkscape"
   xmlns:sodipodi="http://sodipodi.sourceforge.net/DTD/sodipodi-0.dtd"
   xmlns="http://www.w3.org/2000/svg"
   xmlns:svg="http://www.w3.org/2000/svg">
  <sodipodi:namedview
     id="namedview6334"
     pagecolor="#ffffff"
     bordercolor="#666666"
     borderopacity="1.0"
     inkscape:pageshadow="2"
     inkscape:pageopacity="0.0"
     inkscape:pagecheckerboard="0"
     inkscape:document-units="mm"
     showgrid="false"
     inkscape:zoom="0.64052329"
     inkscape:cx="106.1632"
     inkscape:cy="430.11707"
     inkscape:window-width="2048"
     inkscape:window-height="1017"
     inkscape:window-x="-8"
     inkscape:window-y="-8"
     inkscape:window-maximized="1"
     inkscape:current-layer="layer1" />
  <defs
     id="defs6329" />
  <g
     inkscape:label="Ebene 1"
     inkscape:groupmode="layer"
     id="layer1"
     transform="translate(-55.742682,-34.867795)">
    <g
       id="g6189"
       transform="matrix(0.29104167,0,0,0.29104167,98.888471,270.64068)">
      <path
         d="m 77.878891,-695.00837 c 3.460909,-7.84756 6.975454,-18.24443 9.47,-27.64507 1.559091,-5.87334 2.720909,-11.3505 3.18,-15.54297 0.153636,-1.39972 0.136364,-3.07999 0.11,-3.98555 -1.252727,-1.3419 -1.811818,-3.27716 -1.314546,-5.18322 0.771819,-2.96071 3.802728,-4.73713 6.762728,-3.96485 2.182727,0.56962 4.269087,2.16408 5.204547,5.50394 1.14727,4.09752 -0.15455,14.4378 -3.227274,26.01591 -4.33,16.31708 -11.719091,35.28388 -16.924546,41.55523 -1.658182,1.99856 -3.408182,3.1159 -5.040909,3.62954 -1.385455,0.73637 -3.31,0.92503 -5.892728,-0.0116 -0.905454,-0.32863 -2.173636,-0.92746 -3.720909,-1.75512 -9.050909,-3.56624 -16.909091,-9.25397 -23.572727,-15.49307 -6.397273,-4.79434 -12.745455,-10.0579 -17.72091,-15.07863 -3.85,-3.88574 -6.9,-7.66194 -8.705454,-10.97319 -1.657273,-3.03861 -2.347273,-5.86422 -2.216364,-8.25834 0.202727,-3.69709 2.058182,-5.27756 3.227273,-5.95246 1.576364,-0.90982 5.359091,-1.64559 8.902727,2.48054 2.956364,3.4427 8.656364,12.99366 17.179091,22.67059 1.311819,1.48857 2.692728,2.98323 4.145455,4.45719 7.19,5.30981 14.733637,10.25568 19.880909,13.52007 -0.885454,-6.25066 -3.297272,-16.37854 -9.660909,-33.3261 -18.432727,-49.09302 -51.1830096,-65.8501 -83.667274,-64.26963 -57.461818,2.29371 -80.886361,35.57173 -112.027271,97.50871 -1.37364,2.73371 -4.70909,3.83705 -7.44273,2.46229 -2.73273,-1.37416 -3.83636,-4.70915 -2.46182,-7.44225 33.2,-66.0345 60.226366,-101.16076 121.490003,-103.60601 35.9625188,-1.75148 74.068183,17.06379 94.488183,71.44959 5.437273,14.4804 8.185455,24.37155 9.555455,31.23443 z"
         style="clip-rule:evenodd;fill:#00079d;fill-rule:evenodd;stroke-width:0.743807;stroke-linejoin:round;stroke-miterlimit:2"
         id="path93"
         sodipodi:nodetypes="ccccccccccccccccccccccccccccc" />
      <g
         id="g6183"
         transform="translate(0,-1.0749734)">
        <path
           id="path85-80-7"
           style="font-variation-settings:normal;clip-rule:evenodd;vector-effect:none;fill:#855233;fill-opacity:1;fill-rule:evenodd;stroke-width:0.383643;stroke-linecap:butt;stroke-linejoin:miter;stroke-miterlimit:2;stroke-dasharray:none;stroke-dashoffset:0;stroke-opacity:1;-inkscape-stroke:none;stop-color:#000000"
           d="m 73.357102,-636.91135 c -7.97999,0.47457 -14.96956,3.9197 -22.66336,5.74929 -3.32569,0.79107 -7.84891,-1.27618 -10.87712,0.36045 -20.13998,10.88589 -30.41583,37.05893 -51.670812,46.70987 -5.96358,2.70763 -4.672946,9.35185 -2.009974,15.18111 H 155.45892 c 0.66147,-2.56034 1.42574,-4.81351 -2.02548,-7.63495 -9.13242,-7.4657 -17.33973,-17.3231 -24.17435,-27.6669 -3.62639,-5.48802 -5.53767,-12.45462 -9.97159,-17.24787 -6.26906,-6.77668 -37.526808,-15.9505 -45.930398,-15.451 z"
           sodipodi:nodetypes="cccccccccc" />
        <path
           d="m 42.349182,-629.50497 c -9.42891,5.13085 -16.46293,13.92818 -23.72796,22.47499 -8.27873,9.74187 -16.822022,19.18986 -28.185112,24.34948 -3.66427,0.71622 -12.78782,0.0669 -4.5846,-10.09443 9.89189,-4.49132 17.11562,-12.95565 24.323212,-21.43494 8.19485,-9.64403 16.34614,-19.34369 27.00558,-25.10525 2.10194,-1.13597 10.73525,-0.51984 12.23161,-0.87548 8.00934,-1.90479 15.30921,-5.39595 23.61633,-5.8897 5.41505,-0.32226 19.70926,2.90649 31.697608,7.26391 8.48586,3.08488 15.77153,6.86492 18.6307,9.95556 4.63234,5.0077 6.73849,12.22173 10.52747,17.95567 6.52491,9.87499 14.33905,19.30418 23.05753,26.43151 4.36851,10.31397 -1.42812,9.33333 -7.01724,8.58326 -9.54603,-7.80408 -18.14546,-18.09033 -25.29014,-28.90295 -3.4641,-5.24287 -5.18018,-11.96009 -9.41601,-16.53887 -2.15647,-2.33102 -7.87964,-4.738 -14.27968,-7.06442 -10.338418,-3.75817 -22.582618,-6.89446 -27.252068,-6.6167 -7.65283,0.455 -14.33098,3.85332 -21.70957,5.60811 -1.91192,0.455 -9.49473,-0.10973 -9.62766,-0.0997 z"
           style="clip-rule:evenodd;fill:#4d311f;fill-rule:evenodd;stroke-width:0.351818;stroke-linejoin:round;stroke-miterlimit:2"
           id="path117-0-1"
           sodipodi:nodetypes="scccccccccccccscccss" />
      </g>
    </g>
  </g>
</svg>
