<?xml version="1.0" encoding="UTF-8" standalone="no"?>
<!DOCTYPE svg PUBLIC "-//W3C//DTD SVG 1.1//EN" "http://www.w3.org/Graphics/SVG/1.1/DTD/svg11.dtd">
<svg width="100%" height="100%" viewBox="0 0 1482 680" version="1.1" xmlns="http://www.w3.org/2000/svg" xmlns:xlink="http://www.w3.org/1999/xlink" xml:space="preserve" xmlns:serif="http://www.serif.com/" style="fill-rule:evenodd;clip-rule:evenodd;stroke-linejoin:round;stroke-miterlimit:2;">
    <g transform="matrix(1,0,0,1,-362.99,-493.059)">
        <g>
            <g transform="matrix(0.400513,-0.661376,0.661376,0.400513,1032.03,879.469)">
                <path d="M888.95,637.853C895.826,640.309 897.5,655.472 894.41,660.376C887.856,670.775 885.301,682.526 880.075,688.929C855.26,719.334 817.772,727.003 771.038,712.05C769.331,711.504 765.128,710.38 763.76,707.33C762.504,704.532 763.985,699.845 764.514,698.193C772.647,672.815 780.992,647.5 820.354,631.188C838.531,622.835 855.297,622.152 870.254,627.467C876.849,629.81 881.975,635.362 888.95,637.853Z" style="fill:rgb(159,127,107);"/>
            </g>
            <g transform="matrix(0.400513,-0.661376,0.661376,0.400513,1032.03,879.469)">
                <path d="M767.97,710.96C766.306,710.224 764.554,709.102 763.76,707.33C762.504,704.532 763.985,699.845 764.514,698.193C772.647,672.815 780.992,647.5 820.354,631.188C838.531,622.835 855.297,622.152 870.254,627.467C876.849,629.81 881.975,635.362 888.95,637.853C891.283,638.686 893.017,640.982 894.169,643.845C893.995,643.762 893.817,643.688 893.634,643.623C886.659,641.132 881.534,635.58 874.938,633.236C859.982,627.921 844.346,632.241 826.17,640.595C789.09,661.402 777.332,678.585 769.199,703.963C768.79,705.24 767.812,708.33 767.97,710.96Z" style="fill:rgb(120,102,91);"/>
            </g>
            <g transform="matrix(0.400513,-0.661376,0.661376,0.400513,1032.03,879.469)">
                <path d="M767.952,687.777C775.521,666.038 786.392,645.262 820.354,631.188C838.531,622.835 855.297,622.152 870.254,627.467C876.849,629.81 881.975,635.362 888.95,637.853C895.826,640.309 897.5,655.472 894.41,660.376C887.856,670.775 885.301,682.526 880.075,688.929C860.719,712.645 833.653,722.528 800.5,718.632C808.56,716.992 816.482,714.981 824.498,713.095C829.667,711.879 835.338,710.971 840.167,708.646C843.465,707.058 845.928,704.285 849.065,702.455C856.202,698.292 862.905,693.647 869.183,688.334C873.726,684.49 878.615,681.683 882.531,677.114C882.769,676.837 883.276,676.247 883.815,675.53C879.855,669.365 872.024,666.159 868.797,659.704C866.017,654.145 872.261,651.439 873.633,647.324C873.986,646.264 873.812,644.975 873.38,643.621C872.494,640.849 856.576,626.056 851.967,627.593C849.578,628.389 847.669,629.981 845.196,630.688C843.337,631.219 841.153,630.78 839.2,631.268C829.257,633.754 819.01,636.484 810.183,642.101C807.117,644.052 805.017,647.662 802.252,650.032C798.067,653.619 792.983,656.518 789.291,660.671C781.668,669.247 775.036,678.79 767.952,687.777Z" style="fill:rgb(192,149,120);"/>
            </g>
            <g transform="matrix(0.400513,-0.661376,0.661376,0.400513,1032.03,879.469)">
                <path d="M767.952,687.777C775.521,666.038 786.392,645.262 820.354,631.188C838.531,622.835 855.297,622.152 870.254,627.467C875.077,629.181 879.114,632.61 883.664,635.304C885.238,636.236 880.794,635.317 874.938,633.236C870.068,631.506 865.127,630.797 860.051,630.916C856.713,628.584 853.616,627.043 851.967,627.593C849.578,628.389 847.669,629.981 845.196,630.688C843.337,631.219 841.153,630.78 839.2,631.268C829.257,633.754 819.01,636.484 810.183,642.101C807.117,644.052 805.017,647.662 802.252,650.032C798.067,653.619 792.983,656.518 789.291,660.671C781.668,669.247 775.036,678.79 767.952,687.777Z" style="fill:rgb(133,102,81);"/>
            </g>
            <g transform="matrix(0.400513,-0.661376,0.661376,0.400513,1032.03,879.469)">
                <path d="M877.548,633.994C832.799,640.433 797.059,658.724 767.952,693.156C767.083,694.184 766.695,698.649 767.952,697.416C795.631,670.286 837.329,645.816 878.37,638.803C879.697,638.576 880.59,637.314 880.363,635.988C880.136,634.661 878.875,633.767 877.548,633.994Z" style="fill:rgb(218,188,159);"/>
            </g>
            <g transform="matrix(0.400513,-0.661376,0.661376,0.400513,1032.03,879.469)">
                <path d="M888.928,652.663C862.849,682.307 830.467,701.576 784.778,708.397C783.447,708.596 779.12,709.33 779.318,710.661C779.517,711.993 784.162,713.389 785.498,713.222C833.024,707.288 866.277,687.379 892.59,655.885C893.453,654.852 893.381,653.332 892.37,652.443C891.359,651.553 889.817,651.652 888.928,652.663Z" style="fill:rgb(218,188,159);"/>
            </g>
            <g transform="matrix(0.400513,-0.661376,0.661376,0.400513,1032.03,879.469)">
                <path d="M857.147,656.895C827.762,671.23 797.834,685.462 771.101,701.011C769.937,701.688 768.106,705.346 771.017,706.048C772.326,706.364 773.999,706.599 775.206,706.003C803.303,692.122 831.377,677.027 859.438,661.201C860.611,660.54 861.078,659.091 860.446,657.903C859.814,656.714 858.336,656.262 857.147,656.895Z" style="fill:rgb(218,188,159);"/>
            </g>
        </g>
        <g transform="matrix(0.354895,0,0,0.422008,212.754,799.194)">
            <path d="M1363.19,870.546C1362.22,852.399 1331.8,829.549 1319.02,815.766C1295.99,790.911 1154.29,735.652 1113.91,720.234C1048.03,695.078 1016.18,626.853 953.756,598.478C944.37,594.212 930.347,599.603 920.039,597.541C896.192,592.772 874.529,583.793 849.795,582.556C823.748,581.254 726.865,605.165 707.434,622.829C693.691,635.323 687.767,653.48 676.527,667.785C655.343,694.747 629.906,720.442 601.6,739.902C532.853,787.166 491.713,802.272 440.507,870.546L1363.19,870.546Z" style="fill:rgb(170,105,65);"/>
        </g>
        <g transform="matrix(0.354895,0,0,0.422008,540.21,799.194)">
            <path d="M1363.19,870.546C1362.22,852.399 1331.8,829.549 1319.02,815.766C1295.99,790.911 1154.29,735.652 1113.91,720.234C1048.03,695.078 1016.18,626.853 953.756,598.478C944.37,594.212 930.347,599.603 920.039,597.541C896.192,592.772 874.529,583.793 849.795,582.556C823.748,581.254 726.865,605.165 707.434,622.829C693.691,635.323 687.767,653.48 676.527,667.785C655.343,694.747 629.906,720.442 601.6,739.902C532.853,787.166 491.713,802.272 440.507,870.546L1363.19,870.546Z" style="fill:rgb(170,105,65);"/>
        </g>
        <g transform="matrix(0.354895,0,0,0.422008,867.666,799.194)">
            <path d="M1363.19,870.546C1362.22,852.399 1331.8,829.549 1319.02,815.766C1295.99,790.911 1154.29,735.652 1113.91,720.234C1048.03,695.078 1016.18,626.853 953.756,598.478C944.37,594.212 930.347,599.603 920.039,597.541C896.192,592.772 874.529,583.793 849.795,582.556C823.748,581.254 726.865,605.165 707.434,622.829C693.691,635.323 687.767,653.48 676.527,667.785C655.343,694.747 629.906,720.442 601.6,739.902C532.853,787.166 491.713,802.272 440.507,870.546L1363.19,870.546Z" style="fill:rgb(170,105,65);"/>
        </g>
        <g transform="matrix(0.354895,0,0,0.422008,1195.12,799.194)">
            <path d="M1363.19,870.546C1362.22,852.399 1331.8,829.549 1319.02,815.766C1295.99,790.911 1154.29,735.652 1113.91,720.234C1048.03,695.078 1016.18,626.853 953.756,598.478C944.37,594.212 930.347,599.603 920.039,597.541C896.192,592.772 874.529,583.793 849.795,582.556C823.748,581.254 726.865,605.165 707.434,622.829C693.691,635.323 687.767,653.48 676.527,667.785C655.343,694.747 629.906,720.442 601.6,739.902C532.853,787.166 491.713,802.272 440.507,870.546L1363.19,870.546Z" style="fill:rgb(170,105,65);"/>
        </g>
        <g transform="matrix(0.422008,0,0,0.422008,152.38,804.208)">
            <path d="M730.26,621.436C732.439,623.592 734.951,625.751 738.574,627.432C777.937,645.69 787.665,633.531 814.397,667.999C820.206,675.489 817.919,701.54 819.269,702.702C822.619,705.586 830.102,705.293 834.182,706.821C844.165,710.562 858.473,725.79 862.78,734.343C871.292,751.249 821.106,752.958 832.771,768C838.773,775.739 804.32,813.707 815.228,819.016C820.138,821.406 831.807,838.18 836.992,840.378C858.199,849.365 1127.4,858.665 1127.4,858.665C1127.4,858.665 1097.13,716.211 1079.83,708.352C1024.42,683.197 997.638,614.971 945.14,586.596C937.247,582.33 925.454,587.721 916.786,585.66C896.731,580.89 878.513,571.911 857.713,570.674C835.808,569.372 754.332,593.283 737.992,610.947C735.049,614.128 732.533,617.676 730.26,621.436Z" style="fill:rgb(149,89,53);"/>
        </g>
        <g transform="matrix(0.422008,0,0,0.422008,479.836,804.208)">
            <path d="M730.26,621.436C732.439,623.592 734.951,625.751 738.574,627.432C777.937,645.69 787.665,633.531 814.397,667.999C820.206,675.489 817.919,701.54 819.269,702.702C822.619,705.586 830.102,705.293 834.182,706.821C844.165,710.562 858.473,725.79 862.78,734.343C871.292,751.249 821.106,752.958 832.771,768C838.773,775.739 804.32,813.707 815.228,819.016C820.138,821.406 831.807,838.18 836.992,840.378C858.199,849.365 1127.4,858.665 1127.4,858.665C1127.4,858.665 1097.13,716.211 1079.83,708.352C1024.42,683.197 997.638,614.971 945.14,586.596C937.247,582.33 925.454,587.721 916.786,585.66C896.731,580.89 878.513,571.911 857.713,570.674C835.808,569.372 754.332,593.283 737.992,610.947C735.049,614.128 732.533,617.676 730.26,621.436Z" style="fill:rgb(149,89,53);"/>
        </g>
        <g transform="matrix(0.422008,0,0,0.422008,807.293,804.208)">
            <path d="M730.26,621.436C732.439,623.592 734.951,625.751 738.574,627.432C777.937,645.69 787.665,633.531 814.397,667.999C820.206,675.489 817.919,701.54 819.269,702.702C822.619,705.586 830.102,705.293 834.182,706.821C844.165,710.562 858.473,725.79 862.78,734.343C871.292,751.249 821.106,752.958 832.771,768C838.773,775.739 804.32,813.707 815.228,819.016C820.138,821.406 831.807,838.18 836.992,840.378C858.199,849.365 1127.4,858.665 1127.4,858.665C1127.4,858.665 1097.13,716.211 1079.83,708.352C1024.42,683.197 997.638,614.971 945.14,586.596C937.247,582.33 925.454,587.721 916.786,585.66C896.731,580.89 878.513,571.911 857.713,570.674C835.808,569.372 754.332,593.283 737.992,610.947C735.049,614.128 732.533,617.676 730.26,621.436Z" style="fill:rgb(149,89,53);"/>
        </g>
        <g transform="matrix(0.422008,0,0,0.422008,1134.75,804.208)">
            <path d="M730.26,621.436C732.439,623.592 734.951,625.751 738.574,627.432C777.937,645.69 787.665,633.531 814.397,667.999C820.206,675.489 817.919,701.54 819.269,702.702C822.619,705.586 830.102,705.293 834.182,706.821C844.165,710.562 858.473,725.79 862.78,734.343C871.292,751.249 821.106,752.958 832.771,768C838.773,775.739 804.32,813.707 815.228,819.016C820.138,821.406 831.807,838.18 836.992,840.378C858.199,849.365 1127.4,858.665 1127.4,858.665C1127.4,858.665 1097.13,716.211 1079.83,708.352C1024.42,683.197 997.638,614.971 945.14,586.596C937.247,582.33 925.454,587.721 916.786,585.66C896.731,580.89 878.513,571.911 857.713,570.674C835.808,569.372 754.332,593.283 737.992,610.947C735.049,614.128 732.533,617.676 730.26,621.436Z" style="fill:rgb(149,89,53);"/>
        </g>
        <g transform="matrix(0.422008,0,0,0.422008,152.38,804.208)">
            <path d="M852.878,570.722C852.983,570.936 853.09,571.153 853.198,571.368C855.594,576.16 875.417,592.322 895.546,596.959C916.687,601.83 921.656,625.534 922.788,627.649C930.219,641.538 944.168,636.315 951.662,643.001C988.86,676.189 1017.99,736.559 1048.01,778.354C1071.5,811.071 1099.81,838.094 1129.17,858.665L1289.46,858.665C1288.64,840.517 1263.06,817.667 1252.32,803.884C1232.95,779.029 1113.78,723.77 1079.83,708.352C1024.42,683.197 997.638,614.971 945.14,586.596C937.247,582.33 925.454,587.721 916.786,585.66C896.731,580.89 878.513,571.911 857.713,570.674C856.328,570.592 854.706,570.61 852.878,570.722Z" style="fill:rgb(133,82,51);"/>
        </g>
        <g transform="matrix(0.422008,0,0,0.422008,479.836,804.208)">
            <path d="M852.878,570.722C852.983,570.936 853.09,571.153 853.198,571.368C855.594,576.16 875.417,592.322 895.546,596.959C916.687,601.83 921.656,625.534 922.788,627.649C930.219,641.538 944.168,636.315 951.662,643.001C988.86,676.189 1017.99,736.559 1048.01,778.354C1071.5,811.071 1099.81,838.094 1129.17,858.665L1289.46,858.665C1288.64,840.517 1263.06,817.667 1252.32,803.884C1232.95,779.029 1113.78,723.77 1079.83,708.352C1024.42,683.197 997.638,614.971 945.14,586.596C937.247,582.33 925.454,587.721 916.786,585.66C896.731,580.89 878.513,571.911 857.713,570.674C856.328,570.592 854.706,570.61 852.878,570.722Z" style="fill:rgb(133,82,51);"/>
        </g>
        <g transform="matrix(0.422008,0,0,0.422008,807.293,804.208)">
            <path d="M852.878,570.722C852.983,570.936 853.09,571.153 853.198,571.368C855.594,576.16 875.417,592.322 895.546,596.959C916.687,601.83 921.656,625.534 922.788,627.649C930.219,641.538 944.168,636.315 951.662,643.001C988.86,676.189 1017.99,736.559 1048.01,778.354C1071.5,811.071 1099.81,838.094 1129.17,858.665L1289.46,858.665C1288.64,840.517 1263.06,817.667 1252.32,803.884C1232.95,779.029 1113.78,723.77 1079.83,708.352C1024.42,683.197 997.638,614.971 945.14,586.596C937.247,582.33 925.454,587.721 916.786,585.66C896.731,580.89 878.513,571.911 857.713,570.674C856.328,570.592 854.706,570.61 852.878,570.722Z" style="fill:rgb(133,82,51);"/>
        </g>
        <g transform="matrix(0.422008,0,0,0.422008,1134.75,804.208)">
            <path d="M852.878,570.722C852.983,570.936 853.09,571.153 853.198,571.368C855.594,576.16 875.417,592.322 895.546,596.959C916.687,601.83 921.656,625.534 922.788,627.649C930.219,641.538 944.168,636.315 951.662,643.001C988.86,676.189 1017.99,736.559 1048.01,778.354C1071.5,811.071 1099.81,838.094 1129.17,858.665L1289.46,858.665C1288.64,840.517 1263.06,817.667 1252.32,803.884C1232.95,779.029 1113.78,723.77 1079.83,708.352C1024.42,683.197 997.638,614.971 945.14,586.596C937.247,582.33 925.454,587.721 916.786,585.66C896.731,580.89 878.513,571.911 857.713,570.674C856.328,570.592 854.706,570.61 852.878,570.722Z" style="fill:rgb(133,82,51);"/>
        </g>
        <g transform="matrix(0.354895,0,0,0.422008,212.754,799.194)">
            <path d="M945.905,611.338C975.13,624.712 996.932,647.643 1019.45,669.921C1045.11,695.314 1071.59,719.941 1106.81,733.39C1134.77,744.067 1215.35,771.53 1266.55,797.242C1278.71,803.348 1289.12,809.285 1296.4,814.877C1299.61,817.335 1302.18,819.479 1303.33,821.643C1320.18,853.48 1338.31,867.186 1356.3,869.896C1369.54,871.889 1384.25,868.613 1400.86,859.206C1431.3,841.955 1472.21,801.372 1536.11,750.384C1563.88,728.225 1591.64,703.637 1613.55,675.751C1624.29,662.085 1629.61,644.576 1642.73,632.641C1649.42,626.565 1667.16,620.291 1686.99,614.227C1719.04,604.431 1756.99,596.256 1771.46,596.98C1795.18,598.166 1815.88,607.024 1838.75,611.598C1844.68,612.784 1868.18,611.312 1868.59,611.338C1897.82,624.712 1919.62,647.643 1942.13,669.921C1967.8,695.314 1994.27,719.941 2029.5,733.39C2057.47,744.073 2134.6,774.061 2186.18,799.542C2205.64,809.16 2221.39,817.677 2227.78,824.257C2228.64,825.698 2241.1,846.28 2254.62,856.644C2268.42,867.23 2286.14,873.08 2307.53,866.206C2326.76,860.023 2349.82,843.966 2372.82,824.636C2403.87,798.536 2435.4,766.519 2457.85,751.089C2487.44,730.747 2514.09,703.935 2536.23,675.751C2546.97,662.085 2552.29,644.576 2565.42,632.641C2572.1,626.565 2589.84,620.291 2609.68,614.227C2641.72,604.431 2679.68,596.256 2694.15,596.98C2717.87,598.166 2738.57,607.024 2761.44,611.598C2767.36,612.784 2790.87,611.312 2791.28,611.338C2820.5,624.712 2842.3,647.643 2864.82,669.921C2890.49,695.314 2916.96,719.941 2952.18,733.39C2980.16,744.073 3057.29,774.061 3108.86,799.542C3128.46,809.226 3144.29,817.794 3150.6,824.393C3151.1,825.305 3159.92,841.275 3168.71,850.727C3182.57,865.637 3202.67,876.118 3230.97,866.285C3249.41,859.878 3272.45,843.561 3295.59,824.148C3327.02,797.775 3359.23,765.735 3380.53,751.089C3410.12,730.747 3436.78,703.935 3458.92,675.751C3469.66,662.085 3474.98,644.576 3488.11,632.641C3494.79,626.565 3512.53,620.291 3532.37,614.227C3564.41,604.431 3602.36,596.256 3616.84,596.98C3640.56,598.166 3661.25,607.024 3684.12,611.598C3690.05,612.784 3713.55,611.312 3713.97,611.338C3743.19,624.712 3764.99,647.643 3787.51,669.921C3813.17,695.314 3839.64,719.941 3874.87,733.39C3902.84,744.073 3979.97,774.061 4031.55,799.542C4051.41,809.352 4067.39,818.018 4073.53,824.648C4080.05,831.684 4091.05,840.458 4100.57,849.766C4107.13,856.181 4113.75,862.462 4114.09,868.847C4114.52,876.814 4122.56,882.989 4132.03,882.63C4141.5,882.27 4148.85,875.51 4148.42,867.543C4147.89,857.728 4141.77,847.107 4132.58,837.059C4122.36,825.887 4108.32,815.172 4100.64,806.884C4092.96,798.6 4073.76,786.882 4048.96,774.626C3996.32,748.621 3917.63,717.98 3889.08,707.078C3858.42,695.371 3836.03,673.308 3813.69,651.206C3788.28,626.068 3763.03,600.785 3729.99,585.767C3723.47,582.806 3696.71,584.412 3692.07,583.485C3667.25,578.52 3644.62,569.42 3618.87,568.133C3602.09,567.293 3557.78,575.709 3520.63,587.067C3494.33,595.108 3471.74,604.961 3462.88,613.017C3448.52,626.07 3441.99,644.874 3430.25,659.82C3410.03,685.56 3385.81,710.138 3358.78,728.716C3336.89,743.771 3303.63,776.581 3271.32,803.69C3251.96,819.932 3233.27,834.216 3217.85,839.577C3207.63,843.126 3200.78,838.309 3195.78,832.928C3186.36,822.792 3180.99,810.164 3177.95,806.884C3170.27,798.6 3151.08,786.882 3126.27,774.626C3073.63,748.621 2994.94,717.98 2966.39,707.078C2935.73,695.371 2913.34,673.308 2891,651.206C2865.6,626.068 2840.34,600.785 2807.3,585.767C2800.78,582.806 2774.03,584.412 2769.39,583.485C2744.56,578.52 2721.94,569.42 2696.19,568.133C2679.4,567.293 2635.1,575.709 2597.94,587.067C2571.64,595.108 2549.06,604.961 2540.2,613.017C2525.84,626.07 2519.31,644.874 2507.57,659.82C2487.34,685.56 2463.12,710.138 2436.1,728.716C2413.03,744.579 2380.45,777.365 2348.53,804.197C2329.54,820.156 2311.14,834.108 2295.26,839.214C2285.46,842.364 2278.46,836.584 2273,831.032C2263.21,821.079 2257.34,809.125 2255.26,806.884C2247.59,798.6 2228.39,786.882 2203.58,774.626C2150.95,748.621 2072.25,717.98 2043.7,707.078C2013.05,695.371 1990.65,673.308 1968.32,651.206C1942.91,626.068 1917.65,600.785 1884.61,585.767C1878.1,582.806 1851.34,584.412 1846.7,583.485C1821.88,578.52 1799.25,569.42 1773.5,568.133C1756.72,567.293 1712.41,575.709 1675.26,587.067C1648.95,595.108 1626.37,604.961 1617.51,613.017C1603.15,626.07 1596.62,644.874 1584.88,659.82C1564.42,685.857 1538.39,708.731 1512.46,729.421C1482.33,753.46 1423.95,800.695 1420.82,806.301C1408.05,829.222 1359.16,852.95 1350.93,834.053C1347.79,826.834 1340.26,820.344 1334.72,809.889C1329.11,799.286 1310.34,785.579 1284.17,772.432C1231.86,746.16 1149.58,717.986 1121.02,707.078C1090.36,695.371 1067.97,673.308 1045.63,651.206C1020.23,626.068 994.965,600.785 961.926,585.767C955.411,582.806 928.652,584.412 924.014,583.485C899.189,578.52 876.563,569.42 850.815,568.133C834.031,567.293 789.726,575.709 752.568,587.067C726.266,595.108 703.684,604.961 694.822,613.017C680.464,626.07 673.936,644.874 662.192,659.82C641.968,685.56 617.748,710.138 590.725,728.716C520.288,777.142 478.44,792.885 425.975,862.838C420.916,869.583 423.321,878.513 431.341,882.768C439.362,887.022 449.981,885 455.04,878.255C504.986,811.659 545.419,797.19 612.475,751.089C642.063,730.747 668.717,703.935 690.862,675.751C701.599,662.085 706.918,644.576 720.047,632.641C726.731,626.565 744.47,620.291 764.307,614.227C796.351,604.431 834.302,596.256 848.775,596.98C872.495,598.166 893.194,607.024 916.064,611.598C921.99,612.784 945.493,611.312 945.905,611.338Z" style="fill:rgb(77,49,31);"/>
        </g>
        <g id="Layer-1" serif:id="Layer 1">
        </g>
        <g transform="matrix(0.354895,0,0,0.422008,353.319,400.623)">
            <path d="M1363.19,870.546C1362.22,852.399 1331.8,829.549 1319.02,815.766C1295.99,790.911 1154.29,735.652 1113.91,720.234C1048.03,695.078 1016.18,626.853 953.756,598.478C944.37,594.212 930.347,599.603 920.039,597.541C896.192,592.772 874.529,583.793 849.795,582.556C823.748,581.254 726.865,605.165 707.434,622.829C693.691,635.323 687.767,653.48 676.527,667.785C655.343,694.747 629.906,720.442 601.6,739.902C532.853,787.166 491.713,802.272 440.507,870.546L1363.19,870.546Z" style="fill:rgb(170,105,65);"/>
        </g>
        <g transform="matrix(0.354895,0,0,0.422008,999.122,410.396)">
            <path d="M1363.19,870.546C1362.22,852.399 1331.8,829.549 1319.02,815.766C1295.99,790.911 1154.29,735.652 1113.91,720.234C1048.03,695.078 1016.18,626.853 953.756,598.478C944.37,594.212 930.347,599.603 920.039,597.541C896.192,592.772 874.529,583.793 849.795,582.556C823.748,581.254 726.865,605.165 707.434,622.829C693.691,635.323 687.767,653.48 676.527,667.785C655.343,694.747 629.906,720.442 601.6,739.902C532.853,787.166 491.713,802.272 440.507,870.546L1363.19,870.546Z" style="fill:rgb(170,105,65);"/>
        </g>
        <g transform="matrix(1,0,0,0.669431,-24.7541,208.293)">
            <path d="M675.387,594.296C671.58,581.401 667.714,564.317 664.97,548.87C663.255,539.219 661.977,530.219 661.472,523.33C661.303,521.03 661.322,518.269 661.351,516.781C662.729,514.576 663.344,511.396 662.797,508.264C661.948,503.399 658.614,500.48 655.358,501.749C652.957,502.685 650.662,505.305 649.633,510.793C648.371,517.526 649.803,534.517 653.183,553.542C657.946,580.354 666.074,611.52 671.8,621.825C673.624,625.109 675.549,626.945 677.345,627.789C678.869,628.999 680.986,629.309 683.827,627.77C684.823,627.23 686.218,626.246 687.92,624.886C697.876,619.026 706.52,609.68 713.85,599.428C720.887,591.55 727.87,582.901 733.343,574.651C737.578,568.266 740.933,562.061 742.919,556.62C744.742,551.627 745.501,546.984 745.357,543.05C745.134,536.975 743.093,534.378 741.807,533.269C740.073,531.774 735.912,530.565 732.014,537.345C728.762,543.002 722.492,558.696 713.117,574.597C711.674,577.043 710.155,579.499 708.557,581.921C700.648,590.646 692.35,598.773 686.688,604.137C687.662,593.866 690.315,577.224 697.315,549.376C717.591,468.707 765.787,441.172 809.349,443.769C872.557,447.538 928.324,502.22 962.579,603.994C964.09,608.486 967.759,610.299 970.766,608.04C973.772,605.782 974.986,600.302 973.474,595.811C936.954,487.304 877.225,429.585 809.835,425.567C761.577,422.689 708.36,453.606 685.898,542.972C679.917,566.766 676.894,583.019 675.387,594.296Z" style="fill:rgb(0,7,157);"/>
        </g>
        <g transform="matrix(-1,0,0,0.669431,1969.5,218.066)">
            <path d="M686.688,604.137C692.349,598.774 700.646,590.647 708.557,581.921C710.155,579.499 711.674,577.043 713.117,574.597C722.492,558.696 728.762,543.002 732.014,537.345C735.912,530.565 740.073,531.774 741.807,533.269C743.093,534.378 745.134,536.975 745.357,543.05C745.501,546.984 744.742,551.627 742.919,556.62C740.933,562.061 737.578,568.266 733.343,574.651C727.87,582.901 720.887,591.55 713.85,599.428C706.52,609.679 697.875,619.025 687.92,624.886C686.218,626.246 684.823,627.23 683.827,627.77C681.071,629.263 679.036,628.658 677.992,628.055C676.018,627.369 673.846,625.507 671.8,621.825C666.074,611.52 657.946,580.354 653.183,553.542C649.803,534.517 648.371,517.526 649.633,510.793C650.662,505.305 652.957,502.685 655.358,501.749C658.614,500.48 661.948,503.399 662.797,508.264C663.344,511.396 662.729,514.576 661.351,516.781C661.322,518.269 661.303,521.03 661.472,523.33C661.977,530.219 663.255,539.219 664.97,548.87C667.714,564.317 671.58,581.401 675.387,594.296C676.894,583.019 679.917,566.766 685.898,542.972C708.36,453.606 761.577,422.689 809.835,425.567C877.225,429.585 936.954,487.304 973.474,595.811C974.986,600.302 973.772,605.782 970.766,608.04C967.759,610.299 964.09,608.486 962.579,603.994C928.324,502.22 872.557,447.538 809.349,443.769C765.787,441.172 717.591,468.707 697.315,549.376C690.315,577.224 687.662,593.866 686.688,604.137Z" style="fill:rgb(0,7,157);"/>
        </g>
        <g transform="matrix(0.422008,0,0,0.422008,292.945,405.637)">
            <path d="M730.26,621.436C732.439,623.592 734.951,625.751 738.574,627.432C777.937,645.69 787.665,633.531 814.397,667.999C820.206,675.489 817.919,701.54 819.269,702.702C822.619,705.586 830.102,705.293 834.182,706.821C844.165,710.562 858.473,725.79 862.78,734.343C871.292,751.249 821.106,752.958 832.771,768C838.773,775.739 804.32,813.707 815.228,819.016C820.138,821.406 831.807,838.18 836.992,840.378C858.199,849.365 1127.4,858.665 1127.4,858.665C1127.4,858.665 1097.13,716.211 1079.83,708.352C1024.42,683.197 997.638,614.971 945.14,586.596C937.247,582.33 925.454,587.721 916.786,585.66C896.731,580.89 878.513,571.911 857.713,570.674C835.808,569.372 754.332,593.283 737.992,610.947C735.049,614.128 732.533,617.676 730.26,621.436Z" style="fill:rgb(149,89,53);"/>
        </g>
        <g transform="matrix(0.422008,0,0,0.422008,938.748,415.41)">
            <path d="M730.26,621.436C732.439,623.592 734.951,625.751 738.574,627.432C777.937,645.69 787.665,633.531 814.397,667.999C820.206,675.489 817.919,701.54 819.269,702.702C822.619,705.586 830.102,705.293 834.182,706.821C844.165,710.562 858.473,725.79 862.78,734.343C871.292,751.249 821.106,752.958 832.771,768C838.773,775.739 804.32,813.707 815.228,819.016C820.138,821.406 831.807,838.18 836.992,840.378C858.199,849.365 1127.4,858.665 1127.4,858.665C1127.4,858.665 1097.13,716.211 1079.83,708.352C1024.42,683.197 997.638,614.971 945.14,586.596C937.247,582.33 925.454,587.721 916.786,585.66C896.731,580.89 878.513,571.911 857.713,570.674C835.808,569.372 754.332,593.283 737.992,610.947C735.049,614.128 732.533,617.676 730.26,621.436Z" style="fill:rgb(149,89,53);"/>
        </g>
        <g transform="matrix(0.422008,0,0,0.422008,292.945,405.637)">
            <path d="M852.878,570.722C852.983,570.936 853.09,571.153 853.198,571.368C855.594,576.16 875.417,592.322 895.546,596.959C916.687,601.83 921.656,625.534 922.788,627.649C930.219,641.538 944.168,636.315 951.662,643.001C988.86,676.189 1017.99,736.559 1048.01,778.354C1071.5,811.071 1099.81,838.094 1129.17,858.665L1289.46,858.665C1288.64,840.517 1263.06,817.667 1252.32,803.884C1232.95,779.029 1113.78,723.77 1079.83,708.352C1024.42,683.197 997.638,614.971 945.14,586.596C937.247,582.33 925.454,587.721 916.786,585.66C896.731,580.89 878.513,571.911 857.713,570.674C856.328,570.592 854.706,570.61 852.878,570.722Z" style="fill:rgb(133,82,51);"/>
        </g>
        <g transform="matrix(0.422008,0,0,0.422008,938.748,415.41)">
            <path d="M852.878,570.722C852.983,570.936 853.09,571.153 853.198,571.368C855.594,576.16 875.417,592.322 895.546,596.959C916.687,601.83 921.656,625.534 922.788,627.649C930.219,641.538 944.168,636.315 951.662,643.001C988.86,676.189 1017.99,736.559 1048.01,778.354C1071.5,811.071 1099.81,838.094 1129.17,858.665L1289.46,858.665C1288.64,840.517 1263.06,817.667 1252.32,803.884C1232.95,779.029 1113.78,723.77 1079.83,708.352C1024.42,683.197 997.638,614.971 945.14,586.596C937.247,582.33 925.454,587.721 916.786,585.66C896.731,580.89 878.513,571.911 857.713,570.674C856.328,570.592 854.706,570.61 852.878,570.722Z" style="fill:rgb(133,82,51);"/>
        </g>
        <g transform="matrix(0.354895,0,0,0.422008,353.319,400.623)">
            <path d="M945.905,611.338C975.13,624.712 996.932,647.643 1019.45,669.921C1045.11,695.314 1071.59,719.941 1106.81,733.39C1134.65,744.023 1236.16,793.206 1299.94,831.851C1315.8,841.46 1329.28,850.367 1338.47,857.829C1342.84,861.375 1346.21,864.216 1347.5,866.657C1351.36,873.942 1361.52,877.223 1370.18,873.98C1378.85,870.736 1382.75,862.188 1378.89,854.903C1373.55,844.81 1351.2,827.291 1320.03,808.405C1254.33,768.598 1149.7,718.03 1121.02,707.078C1090.36,695.371 1067.97,673.308 1045.63,651.206C1020.23,626.068 994.965,600.785 961.926,585.767C955.411,582.806 928.652,584.412 924.014,583.485C899.189,578.52 876.563,569.42 850.815,568.133C834.031,567.293 789.726,575.709 752.568,587.067C726.266,595.108 703.684,604.961 694.822,613.017C680.464,626.07 673.936,644.874 662.192,659.82C641.968,685.56 617.748,710.138 590.725,728.716C520.288,777.142 478.44,792.885 425.975,862.838C420.916,869.583 423.321,878.513 431.341,882.768C439.362,887.022 449.981,885 455.04,878.255C504.986,811.659 545.419,797.19 612.475,751.089C642.063,730.747 668.717,703.935 690.862,675.751C701.599,662.085 706.918,644.576 720.047,632.641C726.731,626.565 744.47,620.291 764.307,614.227C796.351,604.431 834.302,596.256 848.775,596.98C872.495,598.166 893.194,607.024 916.064,611.598C921.99,612.784 945.493,611.312 945.905,611.338Z" style="fill:rgb(77,49,31);"/>
        </g>
        <g transform="matrix(0.354895,0,0,0.422008,999.122,410.396)">
            <path d="M945.905,611.338C975.13,624.712 996.932,647.643 1019.45,669.921C1045.11,695.314 1071.59,719.941 1106.81,733.39C1134.65,744.023 1236.16,793.206 1299.94,831.851C1315.8,841.46 1329.28,850.367 1338.47,857.829C1342.84,861.375 1346.21,864.216 1347.5,866.657C1351.36,873.942 1361.52,877.223 1370.18,873.98C1378.85,870.736 1382.75,862.188 1378.89,854.903C1373.55,844.81 1351.2,827.291 1320.03,808.405C1254.33,768.598 1149.7,718.03 1121.02,707.078C1090.36,695.371 1067.97,673.308 1045.63,651.206C1020.23,626.068 994.965,600.785 961.926,585.767C955.411,582.806 928.652,584.412 924.014,583.485C899.189,578.52 876.563,569.42 850.815,568.133C834.031,567.293 789.726,575.709 752.568,587.067C726.266,595.108 703.684,604.961 694.822,613.017C680.464,626.07 673.936,644.874 662.192,659.82C641.968,685.56 617.748,710.138 590.725,728.716C520.288,777.142 478.44,792.885 425.975,862.838C420.916,869.583 423.321,878.513 431.341,882.768C439.362,887.022 449.981,885 455.04,878.255C504.986,811.659 545.419,797.19 612.475,751.089C642.063,730.747 668.717,703.935 690.862,675.751C701.599,662.085 706.918,644.576 720.047,632.641C726.731,626.565 744.47,620.291 764.307,614.227C796.351,604.431 834.302,596.256 848.775,596.98C872.495,598.166 893.194,607.024 916.064,611.598C921.99,612.784 945.493,611.312 945.905,611.338Z" style="fill:rgb(77,49,31);"/>
        </g>
    </g>
</svg>
