<?xml version="1.0" encoding="UTF-8" standalone="no"?>
<svg
   version="1.1"
   id="svg833"
   width="1323.0234"
   height="206.92934"
   viewBox="0 0 1653.7793 258.66167"
   sodipodi:docname="2023-SK-02-solution-compatible.svg"
   inkscape:version="1.1.1 (3bf5ae0d25, 2021-09-20)"
   xmlns:inkscape="http://www.inkscape.org/namespaces/inkscape"
   xmlns:sodipodi="http://sodipodi.sourceforge.net/DTD/sodipodi-0.dtd"
   xmlns="http://www.w3.org/2000/svg"
   xmlns:svg="http://www.w3.org/2000/svg"
   xmlns:rdf="http://www.w3.org/1999/02/22-rdf-syntax-ns#"
   xmlns:cc="http://creativecommons.org/ns#"
   xmlns:dc="http://purl.org/dc/elements/1.1/">
  <metadata
     id="metadata839">
    <rdf:RDF>
      <cc:Work
         rdf:about="">
        <dc:format>image/svg+xml</dc:format>
        <dc:type
           rdf:resource="http://purl.org/dc/dcmitype/StillImage" />
      </cc:Work>
    </rdf:RDF>
  </metadata>
  <defs
     id="defs837" />
  <sodipodi:namedview
     pagecolor="#ffffff"
     bordercolor="#666666"
     borderopacity="1"
     objecttolerance="10"
     gridtolerance="10"
     guidetolerance="10"
     inkscape:pageopacity="0"
     inkscape:pageshadow="2"
     inkscape:window-width="2048"
     inkscape:window-height="1017"
     id="namedview835"
     showgrid="false"
     inkscape:zoom="0.33224978"
     inkscape:cx="692.25027"
     inkscape:cy="55.681"
     inkscape:window-x="-8"
     inkscape:window-y="-8"
     inkscape:window-maximized="1"
     inkscape:current-layer="g2158"
     inkscape:document-rotation="0"
     inkscape:showpageshadow="2"
     inkscape:pagecheckerboard="0"
     inkscape:deskcolor="#d1d1d1"
     fit-margin-left="0.5"
     fit-margin-right="0.5"
     fit-margin-top="0.5"
     fit-margin-bottom="0.5" />
  <g
     inkscape:groupmode="layer"
     inkscape:label="Image"
     id="g841"
     transform="translate(836.35888,-189.54637)">
    <g
       id="g2158">
      <path
         d="m 635.62043,214.99582 c 6.35181,-3.07457 17.93607,6.04625 19.22199,11.49877 2.72572,11.56324 9.09293,21.2866 9.96456,29.22692 4.13963,37.70439 -15.97708,68.7367 -57.94941,90.81239 -1.53296,0.80645 -5.15556,2.94142 -8.1845,1.81753 -2.77938,-1.03034 -5.00601,-5.22693 -5.78608,-6.7109 -11.97892,-22.80127 -23.77078,-45.70596 -8.34078,-83.88631 6.56012,-18.18715 17.45011,-30.20465 31.24798,-36.91118 6.08353,-2.95748 13.38322,-2.72813 19.82624,-5.84722 z"
         style="clip-rule:evenodd;fill:#9f7f6b;fill-rule:evenodd;stroke-width:0.966492;stroke-linejoin:round;stroke-miterlimit:2"
         id="path2-2" />
      <path
         d="m 604.02748,347.9097 c -1.63476,0.64807 -3.59518,1.09523 -5.35441,0.44173 -2.77938,-1.03034 -5.00601,-5.22693 -5.78608,-6.7109 -11.97892,-22.80127 -23.77078,-45.70596 -8.34078,-83.88631 6.56012,-18.18715 17.45011,-30.20465 31.24798,-36.91118 6.08353,-2.95748 13.38322,-2.72813 19.82624,-5.84722 2.15493,-1.0434 4.91224,-0.68265 7.66594,0.4634 -0.1751,0.0637 -0.34671,0.1362 -0.51551,0.21828 -6.44302,3.11908 -13.74203,2.88905 -19.82693,5.84654 -13.79719,6.70584 -21.41496,20.40902 -27.97371,38.59615 -10.78587,39.65348 -6.91104,59.40005 5.06788,82.20132 0.60294,1.14718 2.06979,3.91498 3.98938,5.58819 z"
         style="clip-rule:evenodd;fill:#78665b;fill-rule:evenodd;stroke-width:0.966492;stroke-linejoin:round;stroke-miterlimit:2"
         id="path6-7" />
      <path
         d="m 588.03815,332.21323 c -9.85319,-19.94678 -16.80525,-41.51668 -3.49194,-74.45901 6.56012,-18.18715 17.45011,-30.20465 31.24798,-36.91118 6.08353,-2.95748 13.38322,-2.72813 19.82624,-5.84722 6.35181,-3.07457 17.93607,6.04625 19.22199,11.49877 2.72572,11.56324 9.09293,21.2866 9.96456,29.22692 3.22878,29.4097 -8.30012,54.75965 -33.44972,74.96791 4.33124,-6.66601 8.31328,-13.48832 12.44516,-20.2907 2.6645,-4.38631 5.88141,-8.90988 7.55123,-13.81333 1.14033,-3.34893 0.89818,-6.92536 1.76263,-10.32732 1.96702,-7.7395 3.30778,-15.5065 3.90019,-23.43325 0.42916,-5.73562 1.80745,-11.00703 1.31211,-16.80181 -0.0296,-0.35172 -0.0927,-1.10091 -0.22161,-1.95822 -6.93207,-1.44829 -14.44788,1.77624 -21.08312,-0.37372 -5.71486,-1.8509 -3.34882,-7.9877 -5.2551,-11.72158 -0.49133,-0.96154 -1.49758,-1.71505 -2.72344,-2.3348 -2.51075,-1.26771 -23.4918,-0.32121 -25.55561,3.89667 -1.07021,2.18581 -1.26659,4.58019 -2.45506,6.76358 -0.89371,1.64098 -2.67614,2.84867 -3.66318,4.5253 -5.02412,8.53699 -10.08608,17.44882 -12.19619,27.33826 -0.73295,3.43501 0.332,7.32842 0.0918,10.83991 -0.3637,5.31476 -1.81072,10.78289 -1.45029,16.14141 0.74499,11.06471 2.82792,22.10168 4.22139,33.07341 z"
         style="clip-rule:evenodd;fill:#c09578;fill-rule:evenodd;stroke-width:0.966492;stroke-linejoin:round;stroke-miterlimit:2"
         id="path10-7" />
      <path
         d="m 588.03815,332.21323 c -9.85319,-19.94678 -16.80525,-41.51668 -3.49194,-74.45901 6.56012,-18.18715 17.45011,-30.20465 31.24798,-36.91118 4.44933,-2.16247 9.54799,-2.62117 14.48772,-3.93145 1.70886,-0.45324 -1.93576,1.98674 -7.33798,4.61245 -4.4922,2.18403 -8.32886,5.10882 -11.68636,8.68771 -3.86899,0.72029 -7.02955,1.81048 -7.76787,3.31961 -1.07021,2.18581 -1.26659,4.58019 -2.45506,6.76358 -0.89371,1.64098 -2.67614,2.84867 -3.66318,4.5253 -5.02412,8.53699 -10.08608,17.44882 -12.19619,27.33826 -0.73295,3.43501 0.332,7.32842 0.0918,10.83991 -0.3637,5.31476 -1.81072,10.78289 -1.45029,16.14141 0.74499,11.06471 2.82792,22.10168 4.22139,33.07341 z"
         style="clip-rule:evenodd;fill:#856651;fill-rule:evenodd;stroke-width:0.966492;stroke-linejoin:round;stroke-miterlimit:2"
         id="path14-9" />
      <path
         d="m 625.23487,220.23892 c -25.88447,35.20296 -37.49631,72.2281 -33.48965,115.61914 0.11964,1.29547 2.93389,4.58836 2.93589,2.88659 0.0581,-37.45904 11.44866,-82.77719 34.42499,-115.81364 0.74274,-1.06835 0.4781,-2.53892 -0.58956,-3.28097 -1.06835,-0.74274 -2.53893,-0.47947 -3.28167,0.58888 z"
         style="clip-rule:evenodd;fill:#dabc9f;fill-rule:evenodd;stroke-width:0.966492;stroke-linejoin:round;stroke-miterlimit:2"
         id="path18-28" />
      <path
         d="m 645.8122,225.04629 c 2.75867,38.05985 -5.90377,73.43344 -32.16192,109.54307 -0.76474,1.05213 -3.19088,4.53155 -2.13942,5.29698 1.05282,0.76542 5.16238,-1.48986 5.95256,-2.52375 28.11421,-36.77461 36.92577,-73.18214 33.05068,-112.65682 -0.12715,-1.29472 -1.22348,-2.27506 -2.52121,-2.18069 -1.29842,0.0937 -2.27506,1.22347 -2.18069,2.52121 z"
         style="clip-rule:evenodd;fill:#dabc9f;fill-rule:evenodd;stroke-width:0.966492;stroke-linejoin:round;stroke-miterlimit:2"
         id="path22-5" />
      <path
         d="m 627.19388,249.81656 c -10.03205,29.96484 -20.50303,60.2341 -27.90142,89.19386 -0.32216,1.26094 0.95815,5.00149 3.41445,3.47098 1.10477,-0.68801 2.40035,-1.68176 2.80747,-2.91745 9.47218,-28.76954 18.09213,-58.34585 26.19947,-88.40853 0.33929,-1.2563 -0.34289,-2.55999 -1.58987,-2.92942 -1.24768,-0.37011 -2.56068,0.34221 -2.9301,1.59056 z"
         style="clip-rule:evenodd;fill:#dabc9f;fill-rule:evenodd;stroke-width:0.966492;stroke-linejoin:round;stroke-miterlimit:2"
         id="path26-9" />
      <path
         d="m 99.940685,195.55735 c 2.993795,-6.39028 17.736125,-6.60983 22.170925,-3.18696 9.40391,7.2598 20.47549,10.79607 26.15656,16.41157 26.97699,26.66458 30.91641,63.43641 12.24232,107.02874 -0.68193,1.59226 -2.14894,5.53297 -5.20893,6.56936 -2.80727,0.95174 -7.1809,-0.90316 -8.7218,-1.56368 -23.67078,-10.15317 -47.261495,-20.50453 -59.344665,-59.8723 -6.3691,-18.25492 -5.48812,-34.44863 0.99775,-48.35158 2.85929,-6.1303 8.67129,-10.55283 11.70784,-17.03515 z"
         style="clip-rule:evenodd;fill:#9f7f6b;fill-rule:evenodd;stroke-width:0.966492;stroke-linejoin:round;stroke-miterlimit:2"
         id="path2-8-3" />
      <path
         d="m 159.18031,318.66251 c -0.86078,1.53346 -2.10102,3.11618 -3.87875,3.71755 -2.80727,0.95174 -7.1809,-0.90316 -8.7218,-1.56368 -23.67078,-10.15317 -47.261495,-20.50453 -59.344665,-59.8723 -6.3691,-18.25492 -5.48812,-34.44863 0.99775,-48.35158 2.85929,-6.1303 8.67129,-10.55283 11.70784,-17.03515 1.015485,-2.16823 3.383605,-3.62592 6.243865,-4.47164 -0.0958,0.15979 -0.18335,0.32426 -0.26267,0.49437 -3.03655,6.48232 -8.848465,10.90389 -11.708805,17.03505 -6.48578,13.902 -3.76383,29.34216 2.60632,47.59621 16.617295,37.58456 32.070865,50.47364 55.741645,60.62681 1.19112,0.51066 4.07437,1.7351 6.61927,1.82436 z"
         style="clip-rule:evenodd;fill:#78665b;fill-rule:evenodd;stroke-width:0.966492;stroke-linejoin:round;stroke-miterlimit:2"
         id="path6-1-4" />
      <path
         d="m 136.87363,316.55302 c -20.22133,-9.27669 -39.213215,-21.64198 -49.638535,-55.60894 -6.3691,-18.25492 -5.48812,-34.44863 0.99775,-48.35158 2.85929,-6.1303 8.67129,-10.55283 11.70784,-17.03515 2.993795,-6.39028 17.736125,-6.60983 22.170925,-3.18696 9.40391,7.2598 20.47549,10.79607 26.15656,16.41157 21.04212,20.79867 28.0678,47.74631 21.27789,79.28634 -0.83846,-7.90521 -2.04654,-15.71168 -3.12572,-23.59713 -0.69575,-5.0848 -1.0491,-10.62433 -2.84304,-15.48374 -1.2253,-3.31879 -3.66733,-5.94291 -5.14023,-9.12899 -3.3506,-7.24862 -7.20475,-14.1239 -11.7406,-20.65156 -3.28164,-4.7236 -5.53382,-9.68496 -9.57053,-13.87182 -0.24468,-0.2544 -0.76582,-0.79632 -1.40622,-1.38069 -6.29481,3.24445 -10.09781,10.48476 -16.6044,12.99737 -5.60351,2.16474 -7.63421,-4.09104 -11.4675,-5.78859 -0.98747,-0.43688 -2.24362,-0.38772 -3.58597,-0.0963 -2.7483,0.59814 -18.441395,14.5562 -17.385435,19.13165 0.54669,2.37155 1.90327,4.3543 2.35662,6.79851 0.34034,1.83731 -0.28239,3.89832 0.008,5.82213 1.47968,9.79451 3.16623,19.90389 7.76072,28.91191 1.59584,3.12887 4.876475,5.48052 6.903055,8.35823 3.06722,4.35558 5.39003,9.513 9.04704,13.44617 7.55188,8.12107 16.12506,15.37738 24.12182,23.01757 z"
         style="clip-rule:evenodd;fill:#c09578;fill-rule:evenodd;stroke-width:0.966492;stroke-linejoin:round;stroke-miterlimit:2"
         id="path10-2-4" />
      <path
         d="m 136.87363,316.55302 c -20.22133,-9.27669 -39.213215,-21.64198 -49.638535,-55.60894 -6.3691,-18.25492 -5.48812,-34.44863 0.99775,-48.35158 2.09155,-4.48311 5.76104,-8.05265 8.77043,-12.18318 1.0411,-1.42889 -0.25078,2.7625 -2.7902,8.20581 -2.11126,4.52686 -3.2467,9.21569 -3.59788,14.11037 -2.54991,2.99765 -4.31667,5.83599 -3.93878,7.473 0.54669,2.37155 1.90327,4.3543 2.35662,6.79851 0.34034,1.83731 -0.28239,3.89832 0.008,5.82213 1.47968,9.79451 3.16623,19.90389 7.76072,28.91191 1.59584,3.12887 4.876475,5.48052 6.903055,8.35823 3.06722,4.35558 5.39003,9.513 9.04704,13.44617 7.55188,8.12107 16.12506,15.37738 24.12182,23.01757 z"
         style="clip-rule:evenodd;fill:#856651;fill-rule:evenodd;stroke-width:0.966492;stroke-linejoin:round;stroke-miterlimit:2"
         id="path14-5-0" />
      <path
         d="m 95.181805,206.17352 c 2.08987,43.645 16.409375,79.7095 46.867115,110.87297 0.90935,0.9304 5.16965,1.71332 4.09867,0.39081 -23.56328,-29.11966 -43.28119,-71.48338 -46.263495,-111.61348 -0.0967,-1.29756 -1.22895,-2.27252 -2.52556,-2.17577 -1.29757,0.0967 -2.27339,1.2279 -2.17673,2.52547 z"
         style="clip-rule:evenodd;fill:#dabc9f;fill-rule:evenodd;stroke-width:0.966492;stroke-linejoin:round;stroke-miterlimit:2"
         id="path18-6-5" />
      <path
         d="m 114.18779,196.93719 c 26.12885,27.81089 41.69738,60.73428 44.06855,105.31873 0.0694,1.29885 0.3786,5.52932 1.67736,5.46093 1.29981,-0.0693 3.06907,-4.41029 3.03096,-5.71101 -1.34923,-46.27051 -17.45362,-80.09063 -45.34094,-108.29638 -0.9147,-0.92508 -2.38375,-0.99526 -3.33183,-0.1041 -0.94904,0.89106 -0.99525,2.38375 -0.1041,3.33183 z"
         style="clip-rule:evenodd;fill:#dabc9f;fill-rule:evenodd;stroke-width:0.966492;stroke-linejoin:round;stroke-miterlimit:2"
         id="path22-1-3" />
      <path
         d="m 115.34393,227.90284 c 11.09633,29.58724 22.04375,59.68747 34.5514,86.83452 0.54457,1.18203 3.89606,3.27927 4.83853,0.54292 0.42412,-1.23044 0.80371,-2.81852 0.34101,-4.03449 -10.77769,-28.30637 -22.72551,-56.70198 -35.37784,-85.15215 -0.52835,-1.18922 -1.87964,-1.77146 -3.08062,-1.27239 -1.20196,0.49899 -1.77243,1.87955 -1.27248,3.08159 z"
         style="clip-rule:evenodd;fill:#dabc9f;fill-rule:evenodd;stroke-width:0.966492;stroke-linejoin:round;stroke-miterlimit:2"
         id="path26-2-6" />
      <path
         d="m -745.59365,220.70545 c 2.99379,-6.39028 17.73612,-6.60983 22.17092,-3.18696 9.40391,7.2598 20.47549,10.79607 26.15656,16.41157 26.97699,26.66458 30.91641,63.43641 12.24232,107.02874 -0.68193,1.59226 -2.14894,5.53297 -5.20893,6.56936 -2.80727,0.95174 -7.1809,-0.90316 -8.7218,-1.56368 -23.67078,-10.15317 -47.26149,-20.50453 -59.34466,-59.8723 -6.3691,-18.25492 -5.48812,-34.44863 0.99775,-48.35158 2.85929,-6.1303 8.67129,-10.55283 11.70784,-17.03515 z"
         style="clip-rule:evenodd;fill:#9f7f6b;fill-rule:evenodd;stroke-width:0.966492;stroke-linejoin:round;stroke-miterlimit:2"
         id="path2-8-3-6" />
      <path
         d="m -686.35403,343.81061 c -0.86078,1.53346 -2.10102,3.11618 -3.87875,3.71755 -2.80727,0.95174 -7.1809,-0.90316 -8.7218,-1.56368 -23.67078,-10.15317 -47.26149,-20.50453 -59.34466,-59.8723 -6.3691,-18.25492 -5.48812,-34.44863 0.99775,-48.35158 2.85929,-6.1303 8.67129,-10.55283 11.70784,-17.03515 1.01548,-2.16823 3.3836,-3.62592 6.24386,-4.47164 -0.0958,0.15979 -0.18335,0.32426 -0.26267,0.49437 -3.03655,6.48232 -8.84846,10.90389 -11.7088,17.03505 -6.48578,13.902 -3.76383,29.34216 2.60632,47.59621 16.61729,37.58456 32.07086,50.47364 55.74164,60.62681 1.19112,0.51066 4.07437,1.7351 6.61927,1.82436 z"
         style="clip-rule:evenodd;fill:#78665b;fill-rule:evenodd;stroke-width:0.966492;stroke-linejoin:round;stroke-miterlimit:2"
         id="path6-1-4-8" />
      <path
         d="m -708.66071,341.70112 c -20.22133,-9.27669 -39.21321,-21.64198 -49.63853,-55.60894 -6.3691,-18.25492 -5.48812,-34.44863 0.99775,-48.35158 2.85929,-6.1303 8.67129,-10.55283 11.70784,-17.03515 2.99379,-6.39028 17.73612,-6.60983 22.17092,-3.18696 9.40391,7.2598 20.47549,10.79607 26.15656,16.41157 21.04212,20.79867 28.0678,47.74631 21.27789,79.28634 -0.83846,-7.90521 -2.04654,-15.71168 -3.12572,-23.59713 -0.69575,-5.0848 -1.0491,-10.62433 -2.84304,-15.48374 -1.2253,-3.31879 -3.66733,-5.94291 -5.14023,-9.12899 -3.3506,-7.24862 -7.20475,-14.1239 -11.7406,-20.65156 -3.28164,-4.7236 -5.53382,-9.68496 -9.57053,-13.87182 -0.24468,-0.2544 -0.76582,-0.79632 -1.40622,-1.38069 -6.29481,3.24445 -10.09781,10.48476 -16.6044,12.99737 -5.60351,2.16474 -7.63421,-4.09104 -11.4675,-5.78859 -0.98747,-0.43688 -2.24362,-0.38772 -3.58597,-0.0963 -2.7483,0.59814 -18.44139,14.5562 -17.38543,19.13165 0.54669,2.37155 1.90327,4.3543 2.35662,6.79851 0.34034,1.83731 -0.28239,3.89832 0.008,5.82213 1.47968,9.79451 3.16623,19.90389 7.76072,28.91191 1.59584,3.12887 4.87647,5.48052 6.90305,8.35823 3.06722,4.35558 5.39003,9.513 9.04704,13.44617 7.55188,8.12107 16.12506,15.37738 24.12182,23.01757 z"
         style="clip-rule:evenodd;fill:#c09578;fill-rule:evenodd;stroke-width:0.966492;stroke-linejoin:round;stroke-miterlimit:2"
         id="path10-2-4-9" />
      <path
         d="m -708.66071,341.70112 c -20.22133,-9.27669 -39.21321,-21.64198 -49.63853,-55.60894 -6.3691,-18.25492 -5.48812,-34.44863 0.99775,-48.35158 2.09155,-4.48311 5.76104,-8.05265 8.77043,-12.18318 1.0411,-1.42889 -0.25078,2.7625 -2.7902,8.20581 -2.11126,4.52686 -3.2467,9.21569 -3.59788,14.11037 -2.54991,2.99765 -4.31667,5.83599 -3.93878,7.473 0.54669,2.37155 1.90327,4.3543 2.35662,6.79851 0.34034,1.83731 -0.28239,3.89832 0.008,5.82213 1.47968,9.79451 3.16623,19.90389 7.76072,28.91191 1.59584,3.12887 4.87647,5.48052 6.90305,8.35823 3.06722,4.35558 5.39003,9.513 9.04704,13.44617 7.55188,8.12107 16.12506,15.37738 24.12182,23.01757 z"
         style="clip-rule:evenodd;fill:#856651;fill-rule:evenodd;stroke-width:0.966492;stroke-linejoin:round;stroke-miterlimit:2"
         id="path14-5-0-1" />
      <path
         d="m -750.35253,231.32162 c 2.08987,43.645 16.40937,79.7095 46.86711,110.87297 0.90935,0.9304 5.16965,1.71332 4.09867,0.39081 -23.56328,-29.11966 -43.28119,-71.48338 -46.26349,-111.61348 -0.0967,-1.29756 -1.22895,-2.27252 -2.52556,-2.17577 -1.29757,0.0967 -2.27339,1.2279 -2.17673,2.52547 z"
         style="clip-rule:evenodd;fill:#dabc9f;fill-rule:evenodd;stroke-width:0.966492;stroke-linejoin:round;stroke-miterlimit:2"
         id="path18-6-5-7" />
      <path
         d="m -731.34655,222.08529 c 26.12885,27.81089 41.69738,60.73428 44.06855,105.31873 0.0694,1.29885 0.3786,5.52932 1.67736,5.46093 1.29981,-0.0693 3.06907,-4.41029 3.03096,-5.71101 -1.34923,-46.27051 -17.45362,-80.09063 -45.34094,-108.29638 -0.9147,-0.92508 -2.38375,-0.99526 -3.33183,-0.1041 -0.94904,0.89106 -0.99525,2.38375 -0.1041,3.33183 z"
         style="clip-rule:evenodd;fill:#dabc9f;fill-rule:evenodd;stroke-width:0.966492;stroke-linejoin:round;stroke-miterlimit:2"
         id="path22-1-3-7" />
      <path
         d="m -730.19041,253.05094 c 11.09633,29.58724 22.04375,59.68747 34.5514,86.83452 0.54457,1.18203 3.89606,3.27927 4.83853,0.54292 0.42412,-1.23044 0.80371,-2.81852 0.34101,-4.03449 -10.77769,-28.30637 -22.72551,-56.70198 -35.37784,-85.15215 -0.52835,-1.18922 -1.87964,-1.77146 -3.08062,-1.27239 -1.20196,0.49899 -1.77243,1.87955 -1.27248,3.08159 z"
         style="clip-rule:evenodd;fill:#dabc9f;fill-rule:evenodd;stroke-width:0.966492;stroke-linejoin:round;stroke-miterlimit:2"
         id="path26-2-6-3" />
      <path
         d="m -418.79276,439.96094 c -0.43031,-9.57272 -13.92519,-21.62633 -19.59464,-28.897 -10.21654,-13.11126 -73.07731,-42.26093 -90.99064,-50.39408 -29.2256,-13.27004 -43.35486,-49.25941 -71.04732,-64.22751 -4.1638,-2.25036 -10.38467,0.59345 -14.95749,-0.49428 -10.57898,-2.51569 -20.18909,-7.2522 -31.16155,-7.90473 -11.55494,-0.68682 -54.53406,11.92647 -63.15401,21.24441 -6.09666,6.59071 -8.72465,16.1687 -13.71093,23.71474 -9.39762,14.22272 -20.68195,27.77709 -33.23902,38.04243 -30.49746,24.93224 -48.74793,32.9008 -71.46388,68.91602 z"
         style="clip-rule:evenodd;fill:#aa6941;fill-rule:evenodd;stroke-width:0.483749;stroke-linejoin:round;stroke-miterlimit:2"
         id="path32" />
      <path
         d="m -9.4727605,439.96094 c -0.43031,-9.57272 -13.9251935,-21.62633 -19.5946405,-28.897 -10.21654,-13.11126 -73.077319,-42.26093 -90.990639,-50.39408 -29.22561,-13.27004 -43.35486,-49.25941 -71.04732,-64.22751 -4.1638,-2.25036 -10.38467,0.59345 -14.95749,-0.49428 -10.57898,-2.51569 -20.18909,-7.2522 -31.16155,-7.90473 -11.55494,-0.68682 -54.53406,11.92647 -63.15401,21.24441 -6.09666,6.59071 -8.72465,16.1687 -13.71093,23.71474 -9.39762,14.22272 -20.68195,27.77709 -33.23902,38.04243 -30.49746,24.93224 -48.74793,32.9008 -71.46388,68.91602 z"
         style="clip-rule:evenodd;fill:#aa6941;fill-rule:evenodd;stroke-width:0.483749;stroke-linejoin:round;stroke-miterlimit:2"
         id="path36" />
      <path
         d="m 399.84724,439.96094 c -0.43031,-9.57272 -13.92519,-21.62633 -19.59464,-28.897 -10.21654,-13.11126 -73.07731,-42.26093 -90.99064,-50.39408 -29.2256,-13.27004 -43.35486,-49.25941 -71.04732,-64.22751 -4.1638,-2.25036 -10.38467,0.59345 -14.95749,-0.49428 -10.57898,-2.51569 -20.18909,-7.2522 -31.16155,-7.90473 -11.55494,-0.68682 -54.53406,11.92647 -63.15401,21.24441 -6.09666,6.59071 -8.72465,16.1687 -13.710935,23.71474 -9.39762,14.22272 -20.68195,27.77709 -33.23902,38.04243 -30.49746,24.93224 -48.74793,32.9008 -71.4638745,68.91602 z"
         style="clip-rule:evenodd;fill:#aa6941;fill-rule:evenodd;stroke-width:0.483749;stroke-linejoin:round;stroke-miterlimit:2"
         id="path40" />
      <path
         d="m 809.16474,439.96094 c -0.43031,-9.57272 -13.92519,-21.62633 -19.59464,-28.897 -10.21654,-13.11126 -73.07731,-42.26093 -90.99064,-50.39408 -29.2256,-13.27004 -43.35486,-49.25941 -71.04732,-64.22751 -4.1638,-2.25036 -10.38467,0.59345 -14.95749,-0.49428 -10.57898,-2.51569 -20.18909,-7.2522 -31.16155,-7.90473 -11.55494,-0.68682 -54.53406,11.92647 -63.15401,21.24441 -6.09666,6.59071 -8.72465,16.1687 -13.71093,23.71474 -9.39762,14.22272 -20.68195,27.77709 -33.23902,38.04243 -30.49746,24.93224 -48.74793,32.9008 -71.46388,68.91602 z"
         style="clip-rule:evenodd;fill:#aa6941;fill-rule:evenodd;stroke-width:0.483749;stroke-linejoin:round;stroke-miterlimit:2"
         id="path44" />
      <path
         d="m -713.77746,314.82042 c 1.14945,1.13732 2.47455,2.27621 4.38572,3.16295 20.76438,9.63128 25.89599,3.21729 39.99739,21.3995 3.06431,3.95105 1.85789,17.69322 2.57003,18.30618 1.76716,1.52134 5.71452,1.36678 7.86676,2.17282 5.26613,1.97341 12.81374,10.00633 15.08573,14.51813 4.49016,8.91808 -21.98345,9.81959 -15.83005,17.7544 3.16612,4.0824 -15.00819,24.1109 -9.25411,26.91145 2.59008,1.26075 8.74559,10.1092 11.48073,11.26867 11.1869,4.74073 153.19312,9.64657 153.19312,9.64657 0,0 -15.96772,-75.14591 -25.09365,-79.29161 -29.22933,-13.26951 -43.3571,-49.25941 -71.05032,-64.2275 -4.16364,-2.25036 -10.38456,0.59344 -14.95702,-0.49375 -10.57921,-2.51623 -20.18939,-7.25274 -31.1616,-7.90527 -11.5551,-0.68682 -54.53451,11.92648 -63.15402,21.24441 -1.55246,1.67801 -2.87968,3.54962 -4.07871,5.53305 z"
         style="clip-rule:evenodd;fill:#955935;fill-rule:evenodd;stroke-width:0.52751;stroke-linejoin:round;stroke-miterlimit:2"
         id="path48" />
      <path
         d="m -304.45745,314.82042 c 1.14945,1.13732 2.47455,2.27621 4.38572,3.16295 20.76438,9.63128 25.89599,3.21729 39.99739,21.3995 3.06431,3.95105 1.85789,17.69322 2.57003,18.30618 1.76716,1.52134 5.71452,1.36678 7.86676,2.17282 5.26613,1.97341 12.81374,10.00633 15.08573,14.51813 4.49016,8.91808 -21.98345,9.81959 -15.83005,17.7544 3.16612,4.0824 -15.00819,24.1109 -9.25411,26.91145 2.59008,1.26075 8.74559,10.1092 11.48073,11.26867 11.1869,4.74073 153.193119,9.64657 153.193119,9.64657 0,0 -15.967729,-75.14591 -25.093649,-79.29161 -29.22933,-13.26951 -43.3571,-49.25941 -71.05032,-64.2275 -4.16364,-2.25036 -10.38456,0.59344 -14.95702,-0.49375 -10.57921,-2.51623 -20.18939,-7.25274 -31.1616,-7.90527 -11.5551,-0.68682 -54.53451,11.92648 -63.15402,21.24441 -1.55246,1.67801 -2.87968,3.54962 -4.07871,5.53305 z"
         style="clip-rule:evenodd;fill:#955935;fill-rule:evenodd;stroke-width:0.52751;stroke-linejoin:round;stroke-miterlimit:2"
         id="path52" />
      <path
         d="m 104.8638,314.82042 c 1.14945,1.13732 2.47455,2.27621 4.38572,3.16295 20.76438,9.63128 25.89599,3.21729 39.99739,21.3995 3.06431,3.95105 1.85789,17.69322 2.57003,18.30618 1.76716,1.52134 5.71452,1.36678 7.86676,2.17282 5.26613,1.97341 12.81374,10.00633 15.08573,14.51813 4.49016,8.91808 -21.98345,9.81959 -15.83005,17.7544 3.16612,4.0824 -15.00819,24.1109 -9.25411,26.91145 2.59008,1.26075 8.74559,10.1092 11.48073,11.26867 11.1869,4.74073 153.19312,9.64657 153.19312,9.64657 0,0 -15.96772,-75.14591 -25.09365,-79.29161 -29.22933,-13.26951 -43.3571,-49.25941 -71.05032,-64.2275 -4.16364,-2.25036 -10.38456,0.59344 -14.95702,-0.49375 -10.57921,-2.51623 -20.18939,-7.25274 -31.1616,-7.90527 -11.5551,-0.68682 -54.53451,11.92648 -63.15402,21.24441 -1.55246,1.67801 -2.87968,3.54962 -4.07871,5.53305 z"
         style="clip-rule:evenodd;fill:#955935;fill-rule:evenodd;stroke-width:0.52751;stroke-linejoin:round;stroke-miterlimit:2"
         id="path56" />
      <path
         d="m 514.18505,314.82042 c 1.14945,1.13732 2.47455,2.27621 4.38572,3.16295 20.76438,9.63128 25.89599,3.21729 39.99739,21.3995 3.06431,3.95105 1.85789,17.69322 2.57003,18.30618 1.76716,1.52134 5.71452,1.36678 7.86676,2.17282 5.26613,1.97341 12.81374,10.00633 15.08573,14.51813 4.49016,8.91808 -21.98345,9.81959 -15.83005,17.7544 3.16612,4.0824 -15.00819,24.1109 -9.25411,26.91145 2.59008,1.26075 8.74559,10.1092 11.48073,11.26867 11.1869,4.74073 153.19312,9.64657 153.19312,9.64657 0,0 -15.96772,-75.14591 -25.09365,-79.29161 -29.22933,-13.26951 -43.3571,-49.25941 -71.05032,-64.2275 -4.16364,-2.25036 -10.38456,0.59344 -14.95702,-0.49375 -10.57921,-2.51623 -20.18939,-7.25274 -31.1616,-7.90527 -11.5551,-0.68682 -54.53451,11.92648 -63.15402,21.24441 -1.55246,1.67801 -2.87968,3.54962 -4.07871,5.53305 z"
         style="clip-rule:evenodd;fill:#955935;fill-rule:evenodd;stroke-width:0.52751;stroke-linejoin:round;stroke-miterlimit:2"
         id="path60" />
      <path
         d="m -649.09524,288.06828 c 0.0554,0.11289 0.11184,0.22736 0.16881,0.34077 1.26391,2.52783 11.72074,11.05345 22.33899,13.49951 11.15209,2.5695 13.77329,15.0736 14.37043,16.18928 3.91992,7.32659 11.27816,4.57141 15.23132,8.09834 19.62232,17.507 34.98868,49.35278 50.82454,71.40006 12.39121,17.25854 27.32501,31.51345 42.81271,42.36485 h 84.55457 c -0.43255,-9.57325 -13.92626,-21.62685 -19.59172,-28.89752 -10.21787,-13.11126 -73.08123,-42.26094 -90.9902,-50.39409 -29.22933,-13.26951 -43.3571,-49.25941 -71.05032,-64.2275 -4.16364,-2.25036 -10.38456,0.59344 -14.95702,-0.49375 -10.57921,-2.51623 -20.18939,-7.25274 -31.1616,-7.90527 -0.7306,-0.0433 -1.58622,-0.0338 -2.55051,0.0253 z"
         style="clip-rule:evenodd;fill:#855233;fill-rule:evenodd;stroke-width:0.52751;stroke-linejoin:round;stroke-miterlimit:2"
         id="path64" />
      <path
         d="m -239.77523,288.06828 c 0.0554,0.11289 0.11184,0.22736 0.16881,0.34077 1.26391,2.52783 11.72074,11.05345 22.33899,13.49951 11.15209,2.5695 13.77329,15.0736 14.37043,16.18928 3.91992,7.32659 11.27816,4.57141 15.23132,8.09834 19.62231,17.507 34.98868,49.35278 50.82453,71.40006 12.39121,17.25854 27.32502,31.51345 42.812712,42.36485 h 84.5545785 c -0.432559,-9.57325 -13.9262645,-21.62685 -19.5917225,-28.89752 -10.217868,-13.11126 -73.081238,-42.26094 -90.990198,-50.39409 -29.22933,-13.26951 -43.3571,-49.25941 -71.05032,-64.2275 -4.16364,-2.25036 -10.38456,0.59344 -14.95702,-0.49375 -10.57921,-2.51623 -20.18939,-7.25274 -31.1616,-7.90527 -0.7306,-0.0433 -1.58622,-0.0338 -2.55051,0.0253 z"
         style="clip-rule:evenodd;fill:#855233;fill-rule:evenodd;stroke-width:0.52751;stroke-linejoin:round;stroke-miterlimit:2"
         id="path68" />
      <path
         d="m 169.54602,288.06828 c 0.0554,0.11289 0.11184,0.22736 0.16881,0.34077 1.26391,2.52783 11.72074,11.05345 22.33899,13.49951 11.15209,2.5695 13.77329,15.0736 14.37043,16.18928 3.91992,7.32659 11.27816,4.57141 15.23132,8.09834 19.62232,17.507 34.98868,49.35278 50.82454,71.40006 12.39121,17.25854 27.32501,31.51345 42.81271,42.36485 h 84.55457 c -0.43255,-9.57325 -13.92626,-21.62685 -19.59172,-28.89752 -10.21787,-13.11126 -73.08123,-42.26094 -90.9902,-50.39409 -29.22933,-13.26951 -43.3571,-49.25941 -71.05032,-64.2275 -4.16364,-2.25036 -10.38456,0.59344 -14.95702,-0.49375 -10.57921,-2.51623 -20.18939,-7.25274 -31.1616,-7.90527 -0.7306,-0.0433 -1.58622,-0.0338 -2.55051,0.0253 z"
         style="clip-rule:evenodd;fill:#855233;fill-rule:evenodd;stroke-width:0.52751;stroke-linejoin:round;stroke-miterlimit:2"
         id="path72" />
      <path
         d="m 578.86727,288.06828 c 0.0554,0.11289 0.11184,0.22736 0.16881,0.34077 1.26391,2.52783 11.72074,11.05345 22.33899,13.49951 11.15209,2.5695 13.77329,15.0736 14.37043,16.18928 3.91992,7.32659 11.27816,4.57141 15.23132,8.09834 19.62232,17.507 34.98868,49.35278 50.82454,71.40006 12.39121,17.25854 27.32501,31.51345 42.81271,42.36485 h 84.55457 c -0.43255,-9.57325 -13.92626,-21.62685 -19.59172,-28.89752 -10.21787,-13.11126 -73.08123,-42.26094 -90.9902,-50.39409 -29.22933,-13.26951 -43.3571,-49.25941 -71.05032,-64.2275 -4.16364,-2.25036 -10.38456,0.59344 -14.95702,-0.49375 -10.57921,-2.51623 -20.18939,-7.25274 -31.1616,-7.90527 -0.7306,-0.0433 -1.58622,-0.0338 -2.55051,0.0253 z"
         style="clip-rule:evenodd;fill:#855233;fill-rule:evenodd;stroke-width:0.52751;stroke-linejoin:round;stroke-miterlimit:2"
         id="path76" />
      <path
         d="m -603.90821,303.22613 c 12.96476,7.05492 22.63654,19.15125 32.62594,30.90312 11.38326,13.39506 23.13029,26.38605 38.75454,33.48053 12.40358,5.63222 48.15038,20.11923 70.86366,33.68257 5.3944,3.22097 10.01247,6.3528 13.24202,9.30264 1.42401,1.29662 2.56411,2.4276 3.07428,3.56913 7.47497,16.79433 15.51778,24.02439 23.49848,25.45394 5.87351,1.05133 12.39914,-0.6768 19.76765,-5.63908 13.50376,-9.10008 31.6522,-30.50802 59.99944,-57.4047 12.31929,-11.68909 24.63415,-24.65951 34.35383,-39.36965 4.76447,-7.20895 7.12452,-16.44512 12.9448,-22.74096 2.96781,-3.20515 10.83761,-6.51474 19.63457,-9.71357 14.21798,-5.16748 31.05331,-9.47988 37.47247,-9.09796 10.52264,0.62563 19.70555,5.29831 29.85111,7.71114 2.63066,0.62563 13.0557,-0.15087 13.23758,-0.13715 12.96697,7.05492 22.63786,19.15125 32.62372,30.90312 11.38769,13.39506 23.13028,26.38605 38.75897,33.48053 12.40802,5.63539 46.624329,21.45436 69.506184,34.89584 8.632821,5.07359 15.619816,9.56639 18.45454,13.03741 0.381512,0.76014 5.909002,11.61735 11.906727,17.08447 6.121939,5.58422 13.9828635,8.67015 23.47186847,5.04405 8.53078903,-3.2616 18.76063553,-11.73183 28.96386553,-21.92859 13.77436,-13.76801 27.76166,-30.6573 37.7209,-38.79678 13.12668,-10.73061 24.94912,-24.87421 34.770845,-39.74155 4.76447,-7.20895 7.12452,-16.44512 12.94923,-22.74096 2.96338,-3.20515 10.83317,-6.51474 19.63457,-9.71357 14.21354,-5.16748 31.05331,-9.47988 37.47248,-9.09796 10.52263,0.62563 19.70554,5.29831 29.8511,7.71114 2.62622,0.62563 13.0557,-0.15087 13.23758,-0.13715 12.96254,7.05492 22.63343,19.15125 32.62373,30.90312 11.38769,13.39506 23.13028,26.38605 38.75453,33.48053 12.41245,5.63539 46.62877,21.45436 69.50619,34.89584 8.69492,5.10841 15.71741,9.62811 18.51664,13.10915 0.22181,0.48109 4.13453,8.90543 8.03394,13.89145 6.14856,7.86517 15.06529,13.39401 27.6197,8.207 8.18033,-3.37976 18.40131,-11.98714 28.66665,-22.22769 13.94293,-13.91202 28.23189,-30.81344 37.68097,-38.53935 13.12668,-10.73061 24.95356,-24.87421 34.77528,-39.74155 4.76446,-7.20895 7.12451,-16.44512 12.94923,-22.74096 2.96337,-3.20515 10.83317,-6.51474 19.63456,-9.71357 14.21355,-5.16748 31.04888,-9.47988 37.47248,-9.09796 10.52264,0.62563 19.70111,5.29831 29.84667,7.71114 2.63066,0.62563 13.0557,-0.15087 13.24202,-0.13715 12.96254,7.05492 22.63343,19.15125 32.62372,30.90312 11.38326,13.39506 23.12585,26.38605 38.75454,33.48053 12.40801,5.63539 46.62433,21.45436 69.50618,34.89584 8.81027,5.17487 15.8993,9.74628 18.62312,13.24367 2.89239,3.71156 7.7722,8.33993 11.99545,13.24999 2.91014,3.38398 5.84689,6.69727 5.99772,10.06542 0.19076,4.20267 3.75745,7.46005 7.95852,7.27067 4.20107,-0.1899 7.46167,-3.75587 7.27091,-7.95854 -0.23511,-5.17751 -2.95006,-10.7802 -7.02692,-16.08062 -4.53378,-5.89334 -10.76219,-11.54561 -14.16918,-15.91761 -3.40699,-4.36989 -11.92447,-10.55126 -22.92622,-17.01642 -23.35209,-13.7179 -58.26045,-29.88133 -70.92576,-35.63224 -13.60135,-6.17556 -23.53398,-17.81402 -33.44442,-29.47304 -11.27235,-13.26055 -22.47373,-26.59758 -37.13089,-34.51973 -2.89239,-1.56196 -14.76363,-0.71478 -16.82202,-1.20378 -11.01062,-2.61908 -21.04971,-7.41943 -32.47289,-8.09833 -7.44393,-0.44311 -27.10067,3.99641 -43.58111,9.98787 -11.66717,4.24171 -21.68852,9.43927 -25.61898,13.68889 -6.37037,6.88559 -9.2672,16.80488 -14.47528,24.68905 -8.96997,13.57811 -19.71442,26.54325 -31.70543,36.34333 -9.71082,7.94166 -24.46558,25.24926 -38.7989,39.54953 -8.58846,8.56782 -16.87969,16.10277 -23.7203,18.93075 -4.53378,1.87214 -7.57257,-0.66888 -9.79066,-3.50741 -4.17889,-5.34684 -6.56112,-12.00824 -7.90972,-13.73847 -3.407,-4.36989 -11.92004,-10.55126 -22.92622,-17.01642 -23.35209,-13.7179 -58.26045,-29.88133 -70.92577,-35.63224 -13.60135,-6.17556 -23.53397,-17.81402 -33.44441,-29.47304 -11.26792,-13.26055 -22.47373,-26.59758 -37.13089,-34.51973 -2.8924,-1.56196 -14.7592,-0.71478 -16.81759,-1.20378 -11.01505,-2.61908 -21.04971,-7.41943 -32.47289,-8.09833 -7.44836,-0.44311 -27.10067,3.99641 -43.58554,9.98787 -11.66718,4.24171 -21.68409,9.43927 -25.61455,13.68889 -6.370375,6.88559 -9.267205,16.80488 -14.475285,24.68905 -8.97441,13.57811 -19.71885,26.54325 -31.70543,36.34333 -10.23429,8.36789 -24.68739,25.66283 -38.8477,39.81698 -8.4243195,8.41853 -16.5869015,15.77835 -23.6315675,18.47182 -4.347464,1.66165 -7.4527955,-1.38735 -9.8749535,-4.31609 -4.343028,-5.25031 -6.94707,-11.55616 -7.869797,-12.73831 -3.402556,-4.36989 -11.920036,-10.55126 -22.926217,-17.01642 -23.347655,-13.7179 -58.26045,-29.88133 -70.92577,-35.63224 -13.59691,-6.17556 -23.53397,-17.81402 -33.43998,-29.47304 -11.27235,-13.26055 -22.47816,-26.59758 -37.13532,-34.51973 -2.88796,-1.56196 -14.75919,-0.71478 -16.81758,-1.20378 -11.01062,-2.61908 -21.04971,-7.41943 -32.4729,-8.09833 -7.44392,-0.44311 -27.10067,3.99641 -43.5811,9.98787 -11.67161,4.24171 -21.68852,9.43927 -25.61899,13.68889 -6.37036,6.88559 -9.26719,16.80488 -14.47528,24.68905 -9.07644,13.73478 -20.62383,25.80104 -32.12687,36.71522 -13.36623,12.68081 -39.26469,37.59775 -40.65322,40.55497 -5.66501,12.09106 -27.35353,24.60781 -31.00451,14.63946 -1.39296,-3.8081 -4.73341,-7.23164 -7.19106,-12.74675 -2.4887,-5.59319 -10.81543,-12.82377 -22.42493,-19.75895 -23.2057,-13.85874 -59.70665,-28.72081 -72.3764,-34.47488 -13.60135,-6.17556 -23.53397,-17.81402 -33.44442,-29.47304 -11.26791,-13.26055 -22.47594,-26.59758 -37.13266,-34.51973 -2.89018,-1.56196 -14.76097,-0.71478 -16.81847,-1.20378 -11.01284,-2.61908 -21.05016,-7.41943 -32.47245,-8.09833 -7.4457,-0.44311 -27.10023,3.99641 -43.58421,9.98787 -11.66806,4.24171 -21.68586,9.43927 -25.61721,13.68889 -6.36948,6.88559 -9.26542,16.80488 -14.47528,24.68905 -8.97175,13.57811 -19.71619,26.54325 -31.7041,36.34333 -31.24718,25.5452 -49.81174,33.84979 -73.08619,70.75069 -2.24427,3.55806 -1.17737,8.26872 2.38046,10.51328 3.55826,2.24403 8.26905,1.1774 10.51332,-2.38065 22.15698,-35.13006 40.09382,-42.7626 69.84111,-67.08134 13.1258,-10.73061 24.95001,-24.87421 34.77395,-39.74155 4.76313,-7.20895 7.12274,-16.44512 12.94701,-22.74096 2.96515,-3.20515 10.8345,-6.51474 19.63457,-9.71357 14.21532,-5.16748 31.05109,-9.47988 37.47158,-9.09796 10.52264,0.62563 19.70511,5.29831 29.85067,7.71114 2.62888,0.62563 13.05525,-0.15087 13.23802,-0.13715 z"
         style="clip-rule:evenodd;fill:#4d311f;fill-rule:evenodd;stroke-width:0.483749;stroke-linejoin:round;stroke-miterlimit:2"
         id="path80" />
      <g
         aria-label="A"
         transform="translate(-58.369937,-519.31756)"
         id="text4004"
         style="font-size:125.139px;line-height:1.25;baseline-shift:baseline;opacity:1;vector-effect:none;fill:#ffffff;stroke-width:4.21322;stroke-linejoin:round;paint-order:markers fill stroke;stop-color:#000000;stop-opacity:1">
        <path
           d="m -587.15128,858.79425 -16.74223,45.39955 h 33.54556 z m -6.96575,-12.1595 h 13.9926 l 34.76762,91.22682 h -12.83164 l -8.31001,-23.40246 h -41.12234 l -8.31001,23.40246 h -13.01494 z"
           style="baseline-shift:baseline;vector-effect:none;stop-color:#000000;stop-opacity:1"
           id="path2584" />
      </g>
      <g
         aria-label="B"
         transform="translate(-18.465464,-519.31756)"
         id="text4004-2"
         style="font-size:125.139px;line-height:1.25;baseline-shift:baseline;opacity:1;vector-effect:none;fill:#ffffff;stroke-width:4.21322;stroke-linejoin:round;paint-order:markers fill stroke;stop-color:#000000;stop-opacity:1">
        <path
           d="m -225.66515,894.29511 v 33.42336 h 19.79738 q 9.95979,0 14.72583,-4.0939 4.82714,-4.15501 4.82714,-12.64833 0,-8.55442 -4.82714,-12.58722 -4.76604,-4.09391 -14.72583,-4.09391 z m 0,-37.51725 v 27.49636 h 18.2698 q 9.04325,0 13.44267,-3.36067 4.46052,-3.42177 4.46052,-10.38751 0,-6.90465 -4.46052,-10.32642 -4.39942,-3.42176 -13.44267,-3.42176 z m -12.34281,-10.14311 h 31.52916 q 14.1148,0 21.75268,5.86589 7.63787,5.86589 7.63787,16.68113 0,8.37111 -3.91059,13.32046 -3.91059,4.94934 -11.48737,6.17141 9.10435,1.95529 14.1148,8.1878 5.07155,6.17141 5.07155,15.45907 0,12.2206 -8.31001,18.88083 -8.31001,6.66023 -23.64687,6.66023 h -32.75122 z"
           style="baseline-shift:baseline;vector-effect:none;stop-color:#000000;stop-opacity:1"
           id="path2587" />
      </g>
      <g
         aria-label="C"
         transform="translate(20.108855,-519.31745)"
         id="text4004-4"
         style="font-size:125.139px;line-height:1.25;baseline-shift:baseline;opacity:1;vector-effect:none;fill:#ffffff;stroke-width:4.21322;stroke-linejoin:round;paint-order:markers fill stroke;stop-color:#000000;stop-opacity:1">
        <path
           d="m 192.45569,851.88951 v 13.01494 q -6.2325,-5.80479 -13.32046,-8.67663 -7.02684,-2.87184 -14.97024,-2.87184 -15.64237,0 -23.95238,9.59317 -8.31002,9.53208 -8.31002,27.61857 0,18.0254 8.31002,27.61857 8.31001,9.53207 23.95238,9.53207 7.9434,0 14.97024,-2.87184 7.08796,-2.87184 13.32046,-8.67663 v 12.89274 q -6.47692,4.39942 -13.74818,6.59913 -7.21015,2.19971 -15.27575,2.19971 -20.71393,0 -32.62902,-12.64833 -11.91509,-12.70943 -11.91509,-34.64542 0,-21.99709 11.91509,-34.64541 11.91509,-12.70943 32.62902,-12.70943 8.1878,0 15.39796,2.19971 7.27126,2.1386 13.62597,6.47692 z"
           style="baseline-shift:baseline;vector-effect:none;stop-color:#000000;stop-opacity:1"
           id="path2590" />
      </g>
      <g
         aria-label="D"
         id="text4004-3"
         style="font-size:125.139px;line-height:1.25;vector-effect:none;fill:#ffffff;stroke-width:4.21322;stroke-linejoin:round;paint-order:markers fill stroke;stop-color:#000000">
        <path
           d="m 566.29023,337.46029 v 70.94061 h 14.90914 q 18.88083,0 27.61857,-8.55442 8.79883,-8.55442 8.79883,-27.00754 0,-18.33091 -8.79883,-26.82423 -8.73774,-8.55442 -27.61857,-8.55442 z m -12.34281,-10.1431 h 25.35776 q 26.51871,0 38.92262,11.05964 12.40392,10.99855 12.40392,34.46211 0,23.58577 -12.46502,34.64542 -12.46502,11.05965 -38.86152,11.05965 h -25.35776 z"
           style="vector-effect:none;stop-color:#000000;stop-opacity:1"
           id="path2593" />
      </g>
    </g>
  </g>
</svg>
