<?xml version="1.0" encoding="UTF-8" standalone="no"?>
<!-- Created with Inkscape (http://www.inkscape.org/) -->

<svg
   width="98.437782mm"
   height="23.877085mm"
   viewBox="0 0 98.437782 23.877085"
   version="1.1"
   id="svg915"
   inkscape:version="1.1.1 (3bf5ae0d25, 2021-09-20)"
   sodipodi:docname="2023-DE-09-domino-example-good.svg"
   xmlns:inkscape="http://www.inkscape.org/namespaces/inkscape"
   xmlns:sodipodi="http://sodipodi.sourceforge.net/DTD/sodipodi-0.dtd"
   xmlns="http://www.w3.org/2000/svg"
   xmlns:svg="http://www.w3.org/2000/svg">
  <sodipodi:namedview
     id="namedview917"
     pagecolor="#ffffff"
     bordercolor="#666666"
     borderopacity="1.0"
     inkscape:pageshadow="2"
     inkscape:pageopacity="0.0"
     inkscape:pagecheckerboard="0"
     inkscape:document-units="mm"
     showgrid="false"
     inkscape:zoom="1.8116734"
     inkscape:cx="295.58307"
     inkscape:cy="169.1806"
     inkscape:window-width="2048"
     inkscape:window-height="1017"
     inkscape:window-x="-8"
     inkscape:window-y="-8"
     inkscape:window-maximized="1"
     inkscape:current-layer="g1269" />
  <defs
     id="defs912" />
  <g
     inkscape:label="Ebene 1"
     inkscape:groupmode="layer"
     id="layer1"
     transform="translate(-32.156633,-55.805547)">
    <g
       id="g1269"
       transform="translate(-164.04957,-0.83941349)">
      <path
         d="m 267.47523,60.19009 c 0,0 2.02433,-2.427552 2.81067,-1.345935 0.28284,0.388673 0.47228,0.788458 0.63394,1.189037 0.13547,0.334963 0.20055,0.675217 0.25612,1.014677 0.15372,0.938477 0.26352,1.878277 0.37227,2.818077 0.24923,2.157677 0.008,2.843213 0.0357,5.039784 0.0362,2.838185 0.45059,3.395662 -0.236,5.915289 -0.19474,0.715169 -0.56357,2.045229 -0.69692,2.761721 -0.13202,0.707496 -2.22144,1.115219 -3.94732,1.548871 -7.95443,1.999191 -40.15343,-0.95594 -29.18698,-3.538538 0.381,-0.08969 1.55681,0.647171 1.89336,0.518848 0.68845,-0.262731 1.78409,0.431271 2.0111,0.487363 0.49345,0.122502 2.33283,0.304271 2.8911,0.359568 1.28614,0.127265 2.87761,0.353484 4.27382,0.173038 0.56462,-0.07303 1.11204,-0.170656 1.63062,-0.284956 1.33906,-0.295011 2.87206,-0.678127 3.5822,-1.233223 1.07526,-0.840846 4.75773,-5.268648 5.85523,-6.104731 0.96017,-0.731573 1.25783,-0.655638 2.40744,-1.351227 2.47306,-1.49569 4.21323,-3.174471 4.63074,-4.917282 0.23839,-0.99642 -1.18216,-2.1717 0.7829,-3.050381 z"
         style="fill:#e0e0e0;stroke-width:0.264583"
         id="path2" />
      <path
         d="m 269.79033,75.374263 c 0,0 0.0423,1.409171 -0.2405,1.580885 -0.54266,0.329936 -1.91135,0.245269 -2.73156,0.22225 -5.68987,-0.159014 -22.17208,-0.267758 -28.36598,-0.436033 -2.21774,-0.06033 -3.51208,-0.06773 -3.59489,-1.35546 -0.25321,-3.944938 0.0807,-13.779236 -0.0408,-17.211146 -0.0333,-0.934244 2.62149,-0.4445 2.62149,-0.4445 l 29.67514,0.518848 c 1.465,-0.08149 2.35029,0.538692 2.35638,2.223029 z"
         style="fill:#323232;stroke-width:0.264583"
         id="path4" />
      <path
         d="m 247.71456,75.329813 c 0.79084,0.204258 -4.29419,0.345281 -5.55652,0.153987 -1.11363,-0.168539 -2.48126,0.265377 -3.54356,-0.07382 -0.39079,-0.124884 -0.78131,-0.415132 -1.11416,-0.659871 -0.8255,-0.606425 -0.50932,-0.931069 -0.66807,-1.889654 -0.11827,-0.715169 -0.006,-4.176977 0.18732,-4.587346 0.14526,-0.308504 0.9787,-0.307446 1.16734,-0.121973 0.17833,0.174625 -0.7239,5.035285 0.21061,5.447242 0.70353,0.310091 0.97975,0.552185 1.71053,0.617272 1.56845,0.14023 6.07986,0.719403 7.60651,1.114161 z"
         style="fill:#606060;stroke-width:0.264583"
         id="path6" />
      <path
         d="m 253.38855,74.943786 -0.003,-15.4432 c 0,-0.146315 -0.11695,-0.265112 -0.26115,-0.265377 -0.14393,0 -0.26114,0.118798 -0.26114,0.265112 l 0.003,15.4432 c 0,0.146315 0.11694,0.265113 0.26087,0.265113 0.1442,2.64e-4 0.26115,-0.118534 0.26115,-0.264848 z"
         style="fill:#ffffff;stroke-width:0.264583"
         id="path8" />
      <ellipse
         cx="66.852089"
         cy="-248.14398"
         rx="1.7499546"
         ry="1.6994193"
         style="fill:#ffffff;stroke-width:0.264583"
         transform="matrix(0.017452,0.9998477,-0.99984767,0.017454,0,0)"
         id="ellipse10" />
      <ellipse
         cx="75.998474"
         cy="-248.14395"
         rx="1.7499546"
         ry="1.6994193"
         style="fill:#ffffff;stroke-width:0.264583"
         transform="matrix(0.017452,0.9998477,-0.99984767,0.017454,0,0)"
         id="ellipse12" />
      <ellipse
         cx="66.852089"
         cy="-238.77635"
         rx="1.7499546"
         ry="1.6994193"
         style="fill:#ffffff;stroke-width:0.264583"
         transform="matrix(0.017452,0.9998477,-0.99984767,0.017454,0,0)"
         id="ellipse14" />
      <ellipse
         cx="75.998428"
         cy="-238.77634"
         rx="1.7499546"
         ry="1.6994193"
         style="fill:#ffffff;stroke-width:0.264583"
         transform="matrix(0.017452,0.9998477,-0.99984767,0.017454,0,0)"
         id="ellipse16" />
      <path
         d="m 229.65463,59.821261 c 0,0 2.02406,-2.427552 2.8104,-1.3462 0.28284,0.388938 0.47255,0.788723 0.63421,1.189038 0.1352,0.335227 0.20029,0.675216 0.25585,1.014941 0.15399,0.938213 0.26379,1.878277 0.37254,2.818077 0.24923,2.157413 0.007,2.842948 0.0354,5.039783 0.0362,2.838186 0.45059,3.395663 -0.23574,5.91529 -0.19474,0.715169 -0.56357,2.045229 -0.69718,2.761456 -0.13203,0.707761 -2.22118,1.115484 -3.94705,1.549136 -7.95444,1.998927 -40.15344,-0.95594 -29.18725,-3.538538 0.381,-0.08969 1.55707,0.647171 1.89362,0.518583 0.68818,-0.262466 1.78382,0.431536 2.0111,0.487628 0.49345,0.122502 2.33257,0.30427 2.89084,0.359568 1.28614,0.127265 2.87787,0.353484 4.27381,0.172773 0.56489,-0.07303 1.11231,-0.170391 1.63089,-0.284691 1.33906,-0.295275 2.87206,-0.678128 3.5822,-1.233223 1.07526,-0.840846 4.75774,-5.268648 5.85496,-6.104732 0.96044,-0.731572 1.2581,-0.655637 2.40771,-1.351227 2.47306,-1.495954 4.21323,-3.17447 4.63047,-4.917545 0.23866,-0.996157 -1.18189,-2.171436 0.78317,-3.050117 z"
         style="fill:#e0e0e0;stroke-width:0.264583"
         id="path18" />
      <path
         d="m 231.96947,75.005169 c 0,0 0.0426,1.409171 -0.24024,1.58115 -0.54293,0.329936 -1.91162,0.245004 -2.73156,0.22225 -5.68986,-0.159279 -22.17208,-0.268023 -28.36598,-0.436298 -2.218,-0.06006 -3.51208,-0.06747 -3.59489,-1.35546 -0.25347,-3.944938 0.0807,-13.778971 -0.0408,-17.210881 -0.0333,-0.934509 2.62149,-0.444765 2.62149,-0.444765 l 29.67514,0.519113 c 1.465,-0.08149 2.35029,0.538691 2.35638,2.222764 z"
         style="fill:#323232;stroke-width:0.264583"
         id="path20" />
      <path
         d="m 209.89396,74.960719 c 0.79084,0.204258 -4.29419,0.345281 -5.55651,0.153988 -1.1139,-0.16854 -2.48127,0.265377 -3.54357,-0.07382 -0.39079,-0.124883 -0.78131,-0.415131 -1.11442,-0.659606 -0.82524,-0.60669 -0.50933,-0.931334 -0.66781,-1.889919 -0.11827,-0.715169 -0.006,-4.176977 0.18732,-4.587081 0.14499,-0.308504 0.9787,-0.307446 1.16734,-0.122238 0.17807,0.174625 -0.7239,5.035286 0.21061,5.447242 0.70353,0.310091 0.97975,0.552185 1.71053,0.617273 1.56845,0.140229 6.07986,0.719666 7.60651,1.114161 z"
         style="fill:#606060;stroke-width:0.264583"
         id="path22" />
      <path
         d="m 215.56795,74.574692 -0.003,-15.442935 c 0,-0.146315 -0.11695,-0.265377 -0.26115,-0.265377 -0.14419,0 -0.26114,0.118798 -0.26114,0.265112 l 0.003,15.442935 c 2.7e-4,0.14658 0.11721,0.265378 0.26115,0.265378 0.14419,0 0.26114,-0.118798 0.26114,-0.265113 z"
         style="fill:#ffffff;stroke-width:0.264583"
         id="path24" />
      <ellipse
         cx="66.417908"
         cy="-226.31523"
         rx="1.7499546"
         ry="1.6994193"
         style="fill:#ffffff;stroke-width:0.264583"
         transform="matrix(0.017452,0.9998477,-0.99984767,0.017454,0,0)"
         id="ellipse26" />
      <ellipse
         cx="75.439255"
         cy="-225.71431"
         rx="1.7499546"
         ry="1.6994193"
         style="fill:#ffffff;stroke-width:0.264583"
         transform="matrix(0.017452,0.9998477,-0.99984767,0.017454,0,0)"
         id="ellipse28" />
      <ellipse
         cx="66.310722"
         cy="-218.44847"
         rx="1.7499546"
         ry="1.6994193"
         style="fill:#ffffff;stroke-width:0.264583"
         transform="matrix(0.017452,0.9998477,-0.99984767,0.017454,0,0)"
         id="ellipse30" />
      <ellipse
         cx="75.542465"
         cy="-217.89925"
         rx="1.7499546"
         ry="1.6994193"
         style="fill:#ffffff;stroke-width:0.264583"
         transform="matrix(0.017452,0.9998477,-0.99984767,0.017454,0,0)"
         id="ellipse32" />
      <g
         id="g1273"
         transform="translate(39.832636)">
        <path
           d="m 243.02667,68.721584 c -0.47413,-1.213379 -0.89985,-2.186252 -1.14459,-2.523067 -0.85619,-1.178189 -2.01744,-1.329796 -2.57624,-1.354402 -0.99881,-0.04392 -1.97036,0.229658 -2.71569,1.157817 -0.78343,0.974989 -0.70987,2.247106 0.0807,3.14325 0.55139,1.500452 2.49846,6.801908 2.86808,7.91157 0.11669,0.350044 0.20823,0.549805 0.22199,0.577321 0.88238,1.754452 2.67203,1.613165 2.99561,1.596761 0.78343,-0.03916 1.51315,-0.297392 2.1217,-0.891911 0.25532,-0.249766 0.65801,-0.694266 0.75565,-1.473994 0.064,-0.145785 0.59319,-1.346993 1.14882,-2.457979 1.82456,-3.65072 5.12286,-9.471289 7.44458,-12.251002 0.9951,-1.191683 0.68765,-2.859616 -0.68607,-3.722687 -1.37398,-0.862806 -3.29723,-0.596106 -4.29233,0.595312 -1.84335,2.207155 -4.2762,6.172994 -6.22221,9.693011 z"
           style="fill:#ffffff;stroke-width:0.264583"
           id="path34" />
        <path
           d="m 242.77368,72.255319 c -0.79481,-2.277004 -1.72694,-4.801394 -2.14154,-5.3721 -0.46937,-0.645584 -1.09458,-0.744273 -1.40071,-0.757767 -0.52572,-0.02302 -1.03637,0.121973 -1.42875,0.610394 -0.44952,0.559594 -0.3556,1.3081 0.18468,1.772444 0.3765,1.023673 2.57572,7.005108 2.97154,8.193881 0.0847,0.254264 0.14684,0.400579 0.1569,0.420687 0.45852,0.911225 1.38747,0.837936 1.55575,0.829734 0.40666,-0.02037 0.78554,-0.154517 1.10119,-0.463021 0.13573,-0.132821 0.35137,-0.371211 0.39582,-0.793486 0.0344,-0.328877 0.54663,-1.37451 1.25809,-2.797704 1.86135,-3.72401 5.23558,-9.657556 7.60386,-12.493095 0.51647,-0.618596 0.35693,-1.484578 -0.35613,-1.932517 -0.71331,-0.448204 -1.71159,-0.309563 -2.22832,0.309033 -2.35691,2.822046 -5.68748,8.579115 -7.67238,12.473517 z m -1.71874,3.898371 c -0.0302,0.08599 -0.0532,0.182562 -0.0646,0.29157 0.007,-0.07091 0.0291,-0.169068 0.0646,-0.29157 z"
           style="fill:#11510a;stroke-width:0.264583"
           id="path36" />
      </g>
    </g>
  </g>
</svg>
