<?xml version="1.0" encoding="UTF-8" standalone="no"?>
<!DOCTYPE svg PUBLIC "-//W3C//DTD SVG 1.1//EN" "http://www.w3.org/Graphics/SVG/1.1/DTD/svg11.dtd">
<svg width="100%" height="100%" viewBox="0 0 409 177" version="1.1" xmlns="http://www.w3.org/2000/svg" xmlns:xlink="http://www.w3.org/1999/xlink" xml:space="preserve" xmlns:serif="http://www.serif.com/" style="fill-rule:evenodd;clip-rule:evenodd;stroke-linejoin:round;stroke-miterlimit:2;">
    <g transform="matrix(1,0,0,1,-195.957,-507.17)">
        <g>
            <path d="M245.969,596.818C242.528,586.66 239.436,578.515 237.659,575.696C231.442,565.832 223.01,564.562 218.954,564.356C211.701,563.989 204.647,566.28 199.234,574.049C193.546,582.212 194.081,592.862 199.82,600.366C203.825,612.928 217.962,657.312 220.646,666.601C221.492,669.532 222.157,671.204 222.258,671.435C228.665,686.124 241.658,684.939 244.009,684.803C249.697,684.474 254.996,682.312 259.413,677.335C261.267,675.245 264.192,671.524 264.9,664.995C265.365,663.775 269.208,653.719 273.241,644.416C286.49,613.854 310.439,565.122 327.296,541.85C334.521,531.875 332.289,517.911 322.314,510.685C312.339,503.46 298.374,505.693 291.149,515.668C277.765,534.146 260.1,567.35 245.969,596.818Z" style="fill:white;"/>
            <path d="M244.132,626.392C238.36,607.33 231.592,586.195 228.581,581.418C225.174,576.013 220.634,575.186 218.411,575.074C214.595,574.88 210.887,576.095 208.038,580.184C204.774,584.869 205.455,591.135 209.378,595.022C212.113,603.592 228.08,653.67 230.955,663.622C231.57,665.751 232.021,666.976 232.094,667.144C235.422,674.773 242.168,674.16 243.389,674.09C246.342,673.919 249.093,672.797 251.386,670.213C252.371,669.103 253.937,667.107 254.259,663.571C254.509,660.818 258.229,652.064 263.395,640.148C276.91,608.971 301.409,559.296 318.605,535.555C322.356,530.377 321.197,523.127 316.019,519.376C310.84,515.625 303.591,516.784 299.84,521.963C282.726,545.59 258.543,593.788 244.132,626.392ZM231.652,659.03C231.432,659.749 231.266,660.559 231.183,661.471C231.237,660.877 231.394,660.056 231.652,659.03Z" style="fill:rgb(17,81,10);"/>
        </g>
        <g>
            <g transform="matrix(0.690068,0,0,0.699774,37.2926,-96.3263)">
                <path d="M651.853,1018.07C632.174,1033.24 612.542,1047.61 594.41,1061.59C583.364,1070.11 581.279,1085.99 589.799,1097.03C598.444,1108.24 614.568,1110.29 625.778,1101.64C646.971,1085.3 670.083,1068.39 693.006,1050.34C720.5,1069.63 751.207,1087.41 783.993,1104.17C796.583,1110.6 812.054,1105.68 818.489,1093.09C824.845,1080.66 819.833,1065.42 807.397,1059.07C781.143,1045.65 756.269,1031.62 733.545,1016.58C758.773,994.057 782.126,969.622 800.661,942.513C808.536,930.995 805.529,915.259 794.011,907.384C782.328,899.397 766.349,902.347 758.362,914.03C740.253,940.516 716.908,964.021 691.907,985.625C667.202,964.742 646.809,941.852 632.481,916.035C625.618,903.668 609.986,899.27 597.619,906.133C585.412,912.908 580.932,928.3 587.706,940.508C603.494,968.956 625.344,994.617 651.853,1018.07L651.853,1018.07Z" style="fill:white;"/>
            </g>
            <g transform="matrix(0.690068,0,0,0.699774,37.2926,-96.3263)">
                <path d="M673.797,1018.51C649.731,1037.57 625.251,1055.3 603.018,1072.44C597.955,1076.35 597.015,1083.63 600.92,1088.69C604.825,1093.76 612.106,1094.7 617.169,1090.79C640.882,1072.5 667.006,1053.51 692.567,1032.99C721.671,1054.31 754.801,1073.73 790.423,1091.93C796.116,1094.84 803.101,1092.58 806.011,1086.89C808.921,1081.2 806.661,1074.21 800.968,1071.3C768.405,1054.66 737.935,1037.07 710.947,1017.85C740.334,992.941 767.961,965.693 789.075,934.81C792.684,929.532 791.328,922.316 786.05,918.708C780.772,915.099 773.556,916.454 769.948,921.733C749.01,952.358 721.37,979.191 692.071,1003.67C661.829,979.64 637.084,953.03 620.224,922.65C617.121,917.059 610.063,915.039 604.472,918.141C598.881,921.244 596.861,928.302 599.964,933.893C617.456,965.414 642.816,993.29 673.797,1018.51Z" style="fill:rgb(200,33,33);"/>
            </g>
        </g>
    </g>
</svg>
