<?xml version="1.0" encoding="UTF-8" standalone="no"?>
<svg
   width="2627.1519"
   height="463.94882"
   viewBox="0 0 2627.1519 463.94882"
   version="1.1"
   xml:space="preserve"
   style="clip-rule:evenodd;fill-rule:evenodd;stroke-linejoin:round;stroke-miterlimit:2"
   id="svg354"
   sodipodi:docname="2023-DE-09-taskbody.svg"
   inkscape:version="1.1.1 (3bf5ae0d25, 2021-09-20)"
   xmlns:inkscape="http://www.inkscape.org/namespaces/inkscape"
   xmlns:sodipodi="http://sodipodi.sourceforge.net/DTD/sodipodi-0.dtd"
   xmlns="http://www.w3.org/2000/svg"
   xmlns:svg="http://www.w3.org/2000/svg"><defs
   id="defs358">
        
    
            
            
            
            
            
            
            
            
            
            
            
            
            
            
            
            
            
            
            
            
            
            
            
            
            
            
            
            
            
            
            
            
            
            
            
            
            
            
            
            
            
            
            
            
            
            
            
            
            
            
            
            
            
            
            
            
            
            
            
            
            
            
            
            
            
            
            
            
            
            
            
            
            
            
            
            
            
            
            
            
            
            
            
            
            
            
            
        
                
            
                
            
                
            
                
            
                
            
                
            
                
            
                
            
                
            
                
            
                
            
                
            
                
            
                
            
                
            
                
            
                
            
                
            
                
            
                
            
                
            
                
            
                
            
                
            
                
            
                
            
                
            
                
            
                
            
                
            
                
            
                
            
                
            
                
            
                
            
                
            
                
            
                
            
                
            
                
            
                
            
                
            
                
            
                
            
                
            
                
            
                
            
                
            
                
            
                
            
                
            
                
            
                
            
                
            
                
            
                
            
                
            
                
            
                
            
                
            
                
            
                
            
                
            
                
            
                
            
                
            
                
            
                
            
                
            
                
            
                
            
                
            
                
            
                
            
                
            
                
            
                
            
                
            
                
            
                
            
                
            
                
            
                
            
                
            
                
            
                
            
                
            </defs><sodipodi:namedview
   id="namedview356"
   pagecolor="#ffffff"
   bordercolor="#666666"
   borderopacity="1.0"
   inkscape:pageshadow="2"
   inkscape:pageopacity="0.0"
   inkscape:pagecheckerboard="0"
   showgrid="false"
   inkscape:zoom="0.27226345"
   inkscape:cx="1496.7121"
   inkscape:cy="233.22998"
   inkscape:window-width="2048"
   inkscape:window-height="1017"
   inkscape:window-x="-8"
   inkscape:window-y="-8"
   inkscape:window-maximized="1"
   inkscape:current-layer="svg354" />
    
<g
   id="g2111"
   transform="matrix(0.97546894,0,0,0.97546894,-649.21619,278.26712)"
   style="clip-rule:evenodd;fill-rule:evenodd;stroke-linejoin:round;stroke-miterlimit:2"><path
     d="m 1163.4317,-185.31538 c 0,0 2.1383,-38.84179 10.9743,-23.7332 3.1778,5.43331 5.8577,11.14972 8.3781,16.91242 2.1105,4.82473 3.8326,9.81302 5.4984,14.80641 4.6023,13.79654 8.9565,27.67435 13.3033,41.55319 9.9783,31.86002 13.6221,42.345762 20.1371,75.132625 7.5701,38.089506 5.5005,38.321628 11.4839,76.799427 1.6986,10.920743 3.8913,21.757883 5.9494,32.615786 2.0336,10.727351 10.2266,25.663676 1.934,34.376789 -38.2202,40.158613 -232.5276,70.827933 -179.1514,18.048783 1.855,-1.833688 0.2745,-10.173208 1.718,-12.526507 2.9522,-4.813268 12.0497,4.113977 13.589,4.658701 3.3461,1.184346 14.7294,1.504694 18.1849,1.60344 7.9622,0.227124 18.0858,1.533453 25.4673,-2.975057 2.9858,-1.823518 5.7746,-3.989147 8.3296,-6.368283 6.597,-6.144032 13.9722,-13.848627 15.8939,-23.052268 2.9101,-13.942575 6.7538,-84.776529 9.8104,-98.676175 2.6751,-12.161929 4.7003,-11.415929 8.6177,-23.285618 8.4245,-25.527468 11.8762,-52.831083 7.4039,-79.372813 -2.5564,-15.17142 -15.4411,-30.85565 -7.5218,-46.51765 z"
     style="fill:#e0e0e0;fill-rule:nonzero;stroke-width:0.815119"
     id="path2" /><path
     d="m 834.86653,-170.21275 c 0,0 -1.4803,-38.87243 8.72144,-24.65027 3.66888,5.11451 6.86839,10.55716 9.91341,16.06074 2.54964,4.60775 4.72787,9.41442 6.85047,14.23143 5.86436,13.30919 11.48926,26.72236 17.10691,40.13725 12.89563,30.794978 17.49805,40.896767 27.03148,72.936395 11.0767,37.221279 9.0376,37.64472 18.57056,75.400043 2.70598,10.715682 5.89625,21.302185 8.95444,31.92187 3.0215,10.49198 12.56703,24.602362 5.11994,34.04837 -34.32318,43.536382 -224.94013,92.128492 -176.69923,34.617832 1.67656,-1.99809 -0.67195,-10.15472 0.54657,-12.63195 2.49219,-5.06678 12.37983,2.97651 13.96315,3.37584 3.44166,0.86829 14.80544,0.12942 18.25524,-0.0932 7.94878,-0.51379 18.15005,-0.15367 25.08063,-5.32866 2.80344,-2.09307 5.37897,-4.50848 7.70181,-7.11472 5.99757,-6.730483 12.62496,-15.087068 13.6831,-24.429458 1.60189,-14.152658 -1.15302,-85.037334 0.59874,-99.160859 1.53339,-12.3579 3.61924,-11.803331 6.41664,-23.985661 6.01604,-26.199859 6.9157,-53.706098 -0.003,-79.717422 -3.95514,-14.86834 -18.24156,-29.28744 -11.8118,-45.61757 z"
     style="fill:#e0e0e0;fill-rule:nonzero;stroke-width:0.815119"
     id="path6" /><path
     d="m 1880.587,-196.30311 c 0,0 0.7894,-38.89257 10.1443,-24.0996 3.3643,5.31979 6.2409,10.93979 8.9597,16.6116 2.2765,4.7486 4.1707,9.67414 6.0087,14.60675 5.0781,13.62857 9.9111,27.34697 14.7368,41.06667 11.0775,31.49468 15.0829,41.8477 22.7313,74.388808 8.8869,37.803955 6.8265,38.107745 14.1411,76.3547963 2.0764,10.8552547 4.6437,21.6097897 7.0774,32.3897607 2.4043,10.650343 11.1106,25.293456 3.1252,34.288988 -36.804,41.460327 -229.9304,78.851727 -178.4173,24.252705 1.7902,-1.896902 -0.079,-10.17658 1.2823,-12.578552 2.7835,-4.912787 12.1852,3.69351 13.7425,4.184513 3.3852,1.067536 14.7727,0.992802 18.2297,0.971614 7.9651,-0.04923 18.128,0.905124 25.3487,-3.85672 2.9207,-1.925987 5.6327,-4.187063 8.1036,-6.6534 6.3799,-6.369183 13.4834,-14.324989 15.0847,-23.589747 2.4246,-14.035149 3.8088,-84.959752 6.3814,-98.957076 2.2515,-12.247416 4.3015,-11.572114 7.8047,-23.57054 7.5339,-25.804355 10.0364,-53.21126 4.646,-79.58187 -3.0811,-15.07359 -16.5022,-30.30141 -9.1308,-46.2287 z"
     style="fill:#e0e0e0;fill-rule:nonzero;stroke-width:0.815119"
     id="path10" /><path
     d="m 2347.6406,-108.99069 c 0,0 22.4138,-31.79429 21.8913,-14.29936 -0.1879,6.29154 -0.9478,12.55906 -1.8675,18.78124 -0.7699,5.209536 -1.9557,10.351793 -3.1919,15.468511 -3.4159,14.137069 -7.0852,28.211465 -10.7613,42.282831 -8.439,32.301891 -10.9114,43.1238645 -22.7779,74.374605 -13.7846,36.305673 -15.6622,35.404771 -30.9979,71.198077 -4.3522,10.159036 -8.2412,20.509276 -12.2553,30.805736 -3.9657,10.17273 -4.942,27.18057 -16.5935,30.16889 -53.7009,13.77332 -234.6928,-63.284475 -161.4495,-79.718399 2.5451,-0.57066 5.6285,-8.478767 8.1003,-9.708213 5.0557,-2.514686 8.0332,9.87862 9.0493,11.156889 2.2085,2.778739 11.6889,9.08783 14.566,11.004322 6.6295,4.415486 14.519,10.892461 23.1679,10.985361 3.4984,0.0377 7.0113,-0.31905 10.4391,-0.98084 8.8515,-1.7097 19.1902,-4.329581 25.7008,-11.112809 9.862,-10.27645 50.6899,-68.287711 60.6533,-78.450073 8.7183,-8.8915139 10.0396,-7.1849068 19.6561,-15.1698214 20.6814,-17.1728156 38.089,-38.4889026 48.375,-63.3618926 5.8795,-14.217502 3.2751,-34.347806 18.2957,-43.425054 z"
     style="fill:#e0e0e0;fill-rule:nonzero;stroke-width:0.815119"
     id="path14" /><path
     d="m 2596.6832,-228.51968 c 0,0 5.7029,-38.48028 13.1114,-22.62281 2.6644,5.70263 4.8069,11.64138 6.7864,17.61153 1.6576,4.99844 2.9135,10.12401 4.1129,15.24949 3.3134,14.16145 6.3722,28.381 9.4236,42.60091 7.0046,32.64294 9.6682,43.41946 13.139,76.666656 4.0333,38.624427 1.9512,38.665153 4.369,77.530234 0.6865,11.030707 1.8729,22.02358646 2.9233,33.02481 1.0378,10.868947 7.8219,26.495717 -1.2372,34.408896 -41.7529,36.471732 -238.0579,49.13324 -180.052,1.488953 2.0158,-1.655211 1.2094,-10.104769 2.8632,-12.315298 3.3825,-4.521203 11.62,5.2052 13.1028,5.889247 3.2229,1.487179 14.5284,2.853524 17.9602,3.269769 7.9075,0.958671 17.868,3.190988 25.6329,-0.619258 3.141,-1.541049 6.1172,-3.440899 8.8803,-5.574871 7.1343,-5.511006 15.1871,-12.504319 17.9474,-21.492104 4.1806,-13.6157055 14.5253,-83.795492 18.8477,-97.354957 3.7828,-11.864212 5.7308,-10.93503 10.7236,-22.393937 10.7375,-24.64407 16.6867,-51.51427 14.6754,-78.35489 -1.1496,-15.34226 -12.5367,-32.14545 -3.2099,-47.01237 z"
     style="fill:#e0e0e0;fill-rule:nonzero;stroke-width:0.815119"
     id="path18" /><path
     d="m 2999.5324,-83.179401 c 0,0 21.2898,-32.557609 21.3785,-15.055122 0.032,6.294274 -0.5086,12.584505 -1.2105,18.834998 -0.5874,5.233242 -1.5928,10.413771 -2.6496,15.570526 -2.9202,14.247732 -6.0956,28.441683 -9.2782,42.63282 -7.3057,32.576858 -9.3987,43.478587 -20.1666,75.124634 -12.5083,36.764895 -14.4162,35.930106 -28.4925,72.237075 -3.9948,10.30483 -7.5199,20.78455 -11.172,31.21491 -3.6081,10.30501 -3.9899,27.33655 -15.5298,30.72995 -53.1872,15.64022 -236.7596,-55.04999 -164.1349,-74.03163 2.5237,-0.65919 5.329,-8.67016 7.7564,-9.98519 4.9647,-2.68966 8.3733,9.59208 9.4334,10.83407 2.3042,2.69993 11.999,8.67411 14.9413,10.48896 6.7797,4.18126 14.8905,10.37877 23.5374,10.16958 3.4976,-0.0845 6.9958,-0.56371 10.3985,-1.3448 8.7863,-2.01774 19.0273,-4.99709 25.297,-12.00353 9.497,-10.61458 48.2741,-70.016178 57.8766,-80.520276 8.4025,-9.190574 9.7826,-7.531141 19.1143,-15.846998 20.069,-17.8845473 36.7216,-39.795521 46.1326,-65.012526 5.3795,-14.414146 2.0737,-34.441204 16.7681,-44.037451 z"
     style="fill:#e0e0e0;fill-rule:nonzero;stroke-width:0.815119"
     id="path22" /><path
     d="m 3259.3455,-208.84924 c 0,0 -0.6134,-38.89574 9.2686,-24.4497 3.5541,5.19503 6.6313,10.70766 9.553,16.27774 2.4464,4.66344 4.5168,9.51748 6.5314,14.38061 5.5664,13.4366 10.8907,26.97183 16.208,40.50861 12.2058,31.07478 16.5819,41.27665 25.3987,73.520831 10.2441,37.458947 8.1961,37.836827 16.885,75.795267 2.4664,10.7733247 5.4198,21.428315 8.2404,32.113538 2.787,10.55672 12.0154,24.876386 4.3596,34.154012 -35.285,42.760384 -226.9378,87.091002 -177.4267,30.670087 1.7205,-1.960243 -0.4455,-10.16716 0.828,-12.616607 2.6045,-5.009959 12.3102,3.251728 13.8843,3.686263 3.4214,0.944804 14.7989,0.459522 18.2527,0.313677 7.9584,-0.336464 18.149,0.250911 25.1933,-4.768191 2.8495,-2.030054 5.478,-4.387452 7.8585,-6.941267 6.1461,-6.595107 12.9581,-14.801849 14.2244,-24.118329 1.9169,-14.113431 0.743,-85.041854 2.8092,-99.122833 1.8085,-12.320633 3.8813,-11.719687 6.9496,-23.836626 6.5986,-26.059232 8.1112,-53.538552 1.7738,-79.697652 -3.6228,-14.9527 -17.584,-29.6867 -10.7918,-45.86943 z"
     style="fill:#e0e0e0;fill-rule:nonzero;stroke-width:0.815119"
     id="path26" /><path
     d="m 1584.3404,-114.29256 c 0,0 18.9118,-33.99412 20.2494,-16.54259 0.4812,6.27594 0.3909,12.58872 0.137,18.87337 -0.2124,5.26183 -0.8455,10.50091 -1.5316,15.719948 -1.8958,14.419817 -4.0502,28.804216 -6.2117,43.18633 -4.962,33.015234 -6.2716,44.0385465 -14.7535,76.372439 -9.8523,37.563903 -11.815,36.867438 -23.2641,74.086507 -3.2491,10.563666 -6.0173,21.268286 -8.9157,31.932706 -2.8633,10.53624 -2.0285,27.55161 -13.2968,31.76002 -51.9353,19.39646 -240.085,-38.01133 -169.0002,-62.128065 2.4701,-0.837613 4.6965,-9.028389 7.0238,-10.513294 4.7602,-3.037172 9.0366,8.969972 10.1826,10.133154 2.491,2.528575 12.5876,7.795565 15.6519,9.395785 7.0608,3.68671 15.5933,9.28952 24.2033,8.4637 3.4826,-0.33386 6.9377,-1.06156 10.2759,-2.08355 8.6199,-2.63969 18.6222,-6.34237 24.3759,-13.77844 8.7152,-11.265351 43.1538,-73.283149 51.982,-84.445809 7.7252,-9.7668565 9.2201,-8.2101414 17.9346,-17.1708419 18.7414,-19.2713571 33.7877,-42.3150041 41.375,-68.1394131 4.3369,-14.76134 -0.3899,-34.501386 13.5822,-45.121956 z"
     style="fill:#e0e0e0;fill-rule:nonzero;stroke-width:0.815119"
     id="path30" /><path
     d="m 1146.7004,-239.81051 c 0,0 12.8617,-3.43584 15.0534,-1.2079 4.2067,4.27634 6.3858,17.04153 7.9478,24.62992 10.8372,52.65099 45.4671,204.404648 57.3095,261.706875 4.2409,20.519618 6.9704,32.433587 -4.689,35.97743 -35.7176,10.857478 -126.8438,29.045135 -158.131,37.581725 -8.5169,2.32461 -9.754,-23.138977 -9.754,-23.138977 L 995.05882,-178.18169 c -3.9168,-13.29299 -0.12869,-22.77148 15.34028,-26.46823 z"
     style="fill:#323232;fill-rule:nonzero;stroke-width:0.815119"
     id="path34" /><path
     d="m 813.14449,-222.91643 c 0,0 12.48673,-4.61611 14.87606,-2.60147 4.58583,3.86694 7.94168,16.37441 10.20202,23.78483 15.68275,51.4162 64.2641,199.2954305 81.37987,255.249353 6.12932,20.036759 9.95408,31.645547 -1.32557,36.257475 C 883.72269,103.90323 794.68079,130.47985 764.32215,141.88677 756.0581,144.99276 752.46021,119.7543 752.46021,119.7543 L 667.8856,-147.46335 c -5.13505,-12.87153 -2.24415,-22.661 12.81443,-27.77918 z"
     style="fill:#323232;fill-rule:nonzero;stroke-width:0.815119"
     id="path38" /><path
     d="m 1861.9756,-250.18375 c 0,0 12.7348,-3.87995 15.0025,-1.72938 4.3525,4.12783 6.9731,16.80974 8.7974,24.33937 12.6571,52.24334 52.5305,202.704259 66.3535,259.561183 4.9502,20.36013 8.0913,32.172232 -3.4381,36.118427 -35.3194,12.089973 -125.7598,33.42789 -156.7321,43.04468 -8.4311,2.6187 -10.5508,-22.786669 -10.5508,-22.786669 l -68.8447,-271.695411 c -4.3755,-13.14912 -0.9186,-22.75331 14.4128,-26.98446 z"
     style="fill:#323232;fill-rule:nonzero;stroke-width:0.815119"
     id="path42" /><path
     d="m 2362.3556,-164.06322 c 0,0 12.7259,3.90888 13.4023,6.96012 1.2981,5.85645 -3.625,17.83399 -6.3256,25.09554 -18.7381,50.383104 -69.8684,197.400433 -90.2213,252.25979 -7.2881,19.64495 -11.2931,31.19279 -23.057,28.01312 -36.0385,-9.73961 -122.9378,-42.65291 -153.9894,-52.010296 -8.4533,-2.546519 4.0035,-24.789584 4.0035,-24.789584 l 94.9454,-263.71101 c 3.7298,-13.34662 11.9684,-19.37294 27.0431,-14.30234 z"
     style="fill:#323232;fill-rule:nonzero;stroke-width:0.815119"
     id="path46" /><path
     d="m 2585.0409,-284.32223 c 0,0 13.1233,-2.2379 15.1007,0.18224 3.7954,4.64525 4.7908,17.55678 5.6479,25.25669 5.947,53.42474 26.4675,207.720819 32.9874,265.8695562 2.335,20.8227498 3.9567,32.9373088 -7.9793,35.3933768 -36.565,7.525119 -128.978,17.251372 -160.918,22.873067 -8.6946,1.531155 -7.5836,-23.938228 -7.5836,-23.938228 l -33.9237,-278.221462 c -2.6771,-13.59697 1.967,-22.68673 17.7105,-24.94453 z"
     style="fill:#323232;fill-rule:nonzero;stroke-width:0.815119"
     id="path50" /><path
     d="m 3012.31,-138.73399 c 0,0 12.8546,3.46208 13.6372,6.48784 1.5018,5.80754 -3.0001,17.94969 -5.4454,25.30111 -16.9671,51.006707 -62.9321,199.719815 -81.3567,255.25642 -6.5975,19.88746 -10.1969,31.56812 -22.0646,28.80122 -36.3567,-8.47515 -124.3522,-38.3337 -155.7116,-46.60097 -8.5371,-2.24978 3.1354,-24.91426 3.1354,-24.91426 l 85.6778,-266.86563 c 3.2616,-13.46873 11.2847,-19.77907 26.5272,-15.23801 z"
     style="fill:#323232;fill-rule:nonzero;stroke-width:0.815119"
     id="path54" /><path
     d="m 3238.8083,-262.02506 c 0,0 12.5865,-4.3366 14.9303,-2.2692 4.4985,3.96822 7.5748,16.54739 9.6694,24.00635 14.5324,51.753 59.805,200.678415 75.6689,256.999969 5.6811,20.168387 9.2462,31.85958 -2.1335,36.218897 -34.8605,13.355624 -124.4728,37.940645 -155.0782,48.667944 -8.3311,2.92099 -11.3654,-22.391406 -11.3654,-22.391406 L 3091.9036,-189.829 c -4.8469,-12.9828 -1.7384,-22.70538 13.4305,-27.48659 z"
     style="fill:#323232;fill-rule:nonzero;stroke-width:0.815119"
     id="path58" /><path
     d="m 1593.1302,-170.6155 c 0,0 13.069,2.53579 14.0655,5.49798 1.9126,5.68553 -1.7112,18.11804 -3.6256,25.62525 -13.2835,52.087647 -48.5172,203.702247 -62.9311,260.41228 -5.1613,20.30765 -7.9177,32.2154 -19.9528,30.30261 -36.8687,-5.85864 -126.7711,-29.36053 -158.6406,-35.36849 -8.6758,-1.63472 1.3492,-25.074528 1.3492,-25.074528 l 66.4126,-272.300312 c 2.2919,-13.66717 9.8442,-20.53406 25.372,-17.09249 z"
     style="fill:#323232;fill-rule:nonzero;stroke-width:0.815119"
     id="path62" /><path
     d="m 1194.0125,-36.77481 c 0.1689,-7.712087 12.4574,38.7294196 13.4291,50.748057 0.8567,10.602869 7.8024,22.235769 6.9799,32.734846 -0.3022,3.861617 -2.1256,8.079063 -3.6553,11.66973 -3.791,8.89861 -7.46,6.694977 -15.9288,10.225402 -6.3193,2.633995 -38.3862,9.082509 -42.5743,8.19435 -3.1498,-0.667681 -4.9421,-8.331949 -3.647,-10.468269 1.2215,-2.015037 47.8541,-4.228564 49.6218,-13.711827 1.3305,-7.136583 2.9567,-10.199467 1.9772,-17.058804 -2.1023,-14.721794 -6.5292,-57.446097 -6.2026,-72.333485 z"
     style="fill:#606060;fill-rule:nonzero;stroke-width:0.815119"
     id="path66" /><path
     d="m 879.1171,-25.156967 c -0.54839,-7.694425 16.00225,37.404317 18.08654,49.280658 1.83825,10.477388 9.83489,21.414548 9.99149,31.944632 0.058,3.873011 -1.36564,8.241624 -2.55506,11.958896 -2.94774,9.212386 -6.80569,7.359235 -14.90974,11.661309 -6.04716,3.209802 -37.37615,12.610135 -41.62871,12.115009 -3.19818,-0.372119 -5.6949,-7.836697 -4.60397,-10.084081 1.02901,-2.119829 47.25423,-8.657019 48.13307,-18.263513 0.66155,-7.229332 1.99615,-10.430089 0.38351,-17.168718 -3.46124,-14.462737 -11.83894,-56.59087 -12.89713,-71.444192 z"
     style="fill:#606060;fill-rule:nonzero;stroke-width:0.815119"
     id="path70" /><path
     d="m 1916.3028,-48.912758 c -0.099,-7.713305 13.7933,38.273948 15.1813,50.2516327 1.2241,10.5667643 8.5692,21.9517013 8.1114,32.4729903 -0.1682,3.869788 -1.844,8.147925 -3.2482,11.789514 -3.4801,9.024765 -7.2234,6.949737 -15.5645,10.771826 -6.2242,2.851625 -38.0481,10.408651 -42.2645,9.666311 -3.171,-0.557992 -5.2281,-8.155496 -4.008,-10.335416 1.151,-2.056215 47.6787,-5.886124 49.1164,-15.425007 1.0821,-7.17841 2.6011,-10.295888 1.3842,-17.117121 -2.6118,-14.6399643 -8.518,-57.184992 -8.7081,-72.07473 z"
     style="fill:#606060;fill-rule:nonzero;stroke-width:0.815119"
     id="path74" /><path
     d="m 2294.7794,33.155278 c 4.2336,-6.448364 -9.9808,39.440317 -15.5315,50.144556 -4.8974,9.443034 -5.179,22.988826 -11.4449,31.453206 -2.3044,3.11343 -6.087,5.72171 -9.2882,7.95441 -7.9336,5.53314 -9.8753,1.71899 -18.9272,0.22012 -6.7542,-1.11865 -37.3593,-12.65973 -40.4388,-15.63401 -2.3162,-2.23662 0.2296,-9.684679 2.4604,-10.808859 2.1043,-1.060364 42.8115,21.796359 49.3398,14.694439 4.9131,-5.34443 7.9163,-7.07847 10.724,-13.413022 6.0259,-13.595565 24.9334,-52.16329 33.1064,-64.61094 z"
     style="fill:#606060;fill-rule:nonzero;stroke-width:0.815119"
     id="path78" /><path
     d="m 2613.4671,-77.795788 c 0.8778,-7.663823 8.8411,39.711296 8.7029,51.768352 -0.1225,10.636701 5.7234,22.859325 3.9384,33.2381682 -0.6562,3.8174418 -2.8598,7.8492148 -4.7134,11.2839178 -4.5937,8.512049 -8.0445,5.980197 -16.8021,8.716461 -6.5348,2.041397 -39.059,5.512155 -43.1476,4.242432 -3.0751,-0.954648 -4.1546,-8.751317 -2.6684,-10.759408 1.4017,-1.894079 48.0402,0.192394 50.6729,-9.088081 1.9814,-6.983892 3.8826,-9.8841658 3.5384,-16.8045434 -0.739,-14.8527466 -1.216,-57.8031226 0.4789,-72.5972986 z"
     style="fill:#606060;fill-rule:nonzero;stroke-width:0.815119"
     id="path82" /><path
     d="m 2951.6669,60.725376 c 4.0058,-6.592259 -8.5974,39.764784 -13.7709,50.656324 -4.5646,9.60831 -4.373,23.15566 -10.3395,31.83367 -2.1942,3.19201 -5.8834,5.9308 -9.0047,8.27393 -7.7355,5.80679 -9.8092,2.06279 -18.9079,0.88106 -6.7892,-0.88211 -37.7787,-11.34738 -40.9602,-14.21227 -2.3928,-2.15439 -0.1089,-9.68678 2.0815,-10.88819 2.0659,-1.13323 43.5465,20.28802 49.8229,12.96244 4.7233,-5.51276 7.6641,-7.35062 10.2489,-13.77934 5.5475,-13.79768 23.0966,-53.002152 30.8299,-65.727624 z"
     style="fill:#606060;fill-rule:nonzero;stroke-width:0.815119"
     id="path86" /><path
     d="m 3300.3661,-62.845075 c -0.3768,-7.704725 15.1644,37.751723 16.9834,49.67159 1.6041,10.515742 9.3551,21.628455 9.2768,32.159414 -0.027,3.873336 -1.5491,8.209116 -2.8211,11.898953 -3.1523,9.144374 -6.9679,7.205695 -15.166,11.326045 -6.117,3.074177 -37.6479,11.773772 -41.8883,11.183948 -3.1892,-0.443305 -5.519,-7.961703 -4.3781,-10.184201 1.0759,-2.096367 47.4355,-7.601426 48.5282,-17.185933 0.8225,-7.212791 2.2283,-10.38299 0.7663,-17.1559 -3.138,-14.5362965 -10.5743,-56.840702 -11.3012,-71.713916 z"
     style="fill:#606060;fill-rule:nonzero;stroke-width:0.815119"
     id="path90" /><path
     d="m 1546.871,32.661775 c 3.5252,-6.86136 -5.7373,40.277005 -10.1203,51.510027 -3.8672,9.909602 -2.7092,23.408718 -8.0411,32.490478 -1.9608,3.34048 -5.4451,6.33558 -8.3913,8.89551 -7.3013,6.34413 -9.6369,2.75766 -18.7967,2.22835 -6.8348,-0.39531 -38.4923,-8.62206 -41.8701,-11.25259 -2.5405,-1.9781 -0.8,-9.65431 1.299,-11.00899 1.9799,-1.27777 44.8835,17.12824 50.621,9.37337 4.3179,-5.8358 7.12,-7.87887 9.2394,-14.4757 4.5486,-14.158433 19.2548,-54.515495 26.0601,-67.760455 z"
     style="fill:#606060;fill-rule:nonzero;stroke-width:0.815119"
     id="path94" /><path
     d="m 1178.1971,-88.101374 -141.9593,33.410557 c -1.3455,0.316265 -2.1858,1.648946 -1.8751,2.974178 0.3113,1.324237 1.6565,2.142644 3.0021,1.826371 l 141.9592,-33.410549 c 1.3454,-0.317051 2.1856,-1.649732 1.8743,-2.973977 -0.3107,-1.325224 -1.6559,-2.143631 -3.0012,-1.82658 z"
     style="fill:#ffffff;fill-rule:nonzero;stroke-width:0.815119"
     id="path98" /><path
     d="m 858.60199,-74.790362 -138.24052,46.457175 c -1.31035,0.439932 -2.02311,1.844931 -1.5906,3.135543 0.43301,1.289587 1.8484,1.979457 3.15875,1.539525 l 138.24052,-46.457175 c 1.31008,-0.440696 2.02285,-1.845696 1.58983,-3.135277 -0.43251,-1.290624 -1.84789,-1.980495 -3.15798,-1.539791 z"
     style="fill:#ffffff;fill-rule:nonzero;stroke-width:0.815119"
     id="path102" /><path
     d="m 1898.7161,-99.658606 -140.7148,38.315033 c -1.3338,0.362757 -2.1272,1.723783 -1.7708,3.037428 0.3572,1.312643 1.7299,2.083901 3.0637,1.721137 l 140.7147,-38.315034 c 1.3336,-0.363534 2.127,-1.724561 1.77,-3.037203 -0.3565,-1.313653 -1.7292,-2.084905 -3.0628,-1.721361 z"
     style="fill:#ffffff;fill-rule:nonzero;stroke-width:0.815119"
     id="path106" /><path
     d="m 2308.5926,-18.745458 -138.0673,-46.969161 c -1.3084,-0.445548 -2.7276,0.23859 -3.1671,1.526856 -0.4384,1.287746 0.2679,2.695014 1.5763,3.140562 l 138.0673,46.969141 c 1.3087,0.444779 2.7279,-0.239368 3.1664,-1.527107 0.4394,-1.288263 -0.2669,-2.695536 -1.5756,-3.140291 z"
     style="fill:#ffffff;fill-rule:nonzero;stroke-width:0.815119"
     id="path110" /><path
     d="m 2602.4456,-130.35875 -144.4311,20.20752 c -1.3689,0.19112 -2.3282,1.44085 -2.1407,2.78904 0.1881,1.34726 1.4523,2.28596 2.8213,2.09484 l 144.431,-20.20753 c 1.3688,-0.19192 2.3281,-1.44165 2.14,-2.78892 -0.1874,-1.34818 -1.4516,-2.28688 -2.8205,-2.09495 z"
     style="fill:#ffffff;fill-rule:nonzero;stroke-width:0.815119"
     id="path114" /><path
     d="m 2963.6547,8.372515 -139.6233,-42.118937 c -1.3232,-0.39958 -2.7176,0.33369 -3.1118,1.63652 -0.3932,1.302281 0.3618,2.684018 1.685,3.083598 l 139.6232,42.118938 c 1.3235,0.398804 2.7179,-0.334491 3.1111,-1.636747 0.3942,-1.30283 -0.3608,-2.6845668 -1.6842,-3.083372 z"
     style="fill:#ffffff;fill-rule:nonzero;stroke-width:0.815119"
     id="path118" /><path
     d="m 3280.9523,-112.92251 -139.2418,43.363835 c -1.3199,0.410619 -2.0637,1.799373 -1.6602,3.099315 0.4043,1.298915 1.8039,2.02017 3.1237,1.609551 l 139.2417,-43.363841 c 1.3195,-0.41138 2.0637,-1.80014 1.6594,-3.09905 -0.4035,-1.29994 -1.8033,-2.0212 -3.1228,-1.60981 z"
     style="fill:#ffffff;fill-rule:nonzero;stroke-width:0.815119"
     id="path122" /><path
     d="m 1555.0984,-20.411388 -142.2735,-32.046167 c -1.3484,-0.304118 -2.6869,0.526814 -2.9871,1.854459 -0.2992,1.327012 0.5525,2.651346 1.9008,2.955463 l 142.2734,32.046164 c 1.3486,0.303332 2.6871,-0.527609 2.9864,-1.854601 0.3002,-1.327641 -0.5516,-2.651985 -1.9,-2.955318 z"
     style="fill:#ffffff;fill-rule:nonzero;stroke-width:0.815119"
     id="path126" /><ellipse
     cx="726.54834"
     cy="103.54575"
     rx="16.525404"
     ry="16.049206"
     style="fill:#ffffff;stroke-width:0.728795"
     id="ellipse130"
     transform="rotate(-19.56453)" /><ellipse
     cx="1743.4468"
     cy="316.19821"
     rx="16.525414"
     ry="16.049208"
     style="fill:#ffffff;stroke-width:0.728795"
     id="ellipse134"
     transform="rotate(-16.220772)" /><ellipse
     cx="2483.4958"
     cy="155.26585"
     rx="16.5254"
     ry="16.04921"
     style="fill:#ffffff;stroke-width:0.728795"
     id="ellipse138"
     transform="rotate(-8.9536213)" /><ellipse
     cx="2746.4707"
     cy="-914.7641"
     rx="16.525415"
     ry="16.049189"
     style="fill:#ffffff;stroke-width:0.728795"
     id="ellipse142"
     transform="rotate(15.797533)" /><ellipse
     cx="3043.1614"
     cy="801.27826"
     rx="16.525406"
     ry="16.0492"
     style="fill:#ffffff;stroke-width:0.728795"
     id="ellipse146"
     transform="rotate(-18.287065)" /><ellipse
     cx="1411.0947"
     cy="-448.96411"
     rx="16.525414"
     ry="16.049204"
     style="fill:#ffffff;stroke-width:0.728795"
     id="ellipse150"
     transform="rotate(11.704625)" /><ellipse
     cx="1045.6227"
     cy="241.08868"
     rx="16.525402"
     ry="16.049206"
     style="fill:#ffffff;stroke-width:0.728795"
     id="ellipse154"
     transform="matrix(0.96930489,-0.24586181,0.24586075,0.96930516,0,0)" /><ellipse
     cx="716.00476"
     cy="253.85765"
     rx="16.525404"
     ry="16.049206"
     style="fill:#ffffff;stroke-width:0.728795"
     id="ellipse158"
     transform="rotate(-19.56453)" /><ellipse
     cx="802.3783"
     cy="103.54592"
     rx="16.525404"
     ry="16.049206"
     style="fill:#ffffff;stroke-width:0.728795"
     id="ellipse162"
     transform="rotate(-19.56453)" /><ellipse
     cx="1819.2762"
     cy="318.69641"
     rx="16.525414"
     ry="16.049208"
     style="fill:#ffffff;stroke-width:0.728795"
     id="ellipse166"
     transform="rotate(-16.220772)" /><ellipse
     cx="2559.3269"
     cy="155.26585"
     rx="16.5254"
     ry="16.04921"
     style="fill:#ffffff;stroke-width:0.728795"
     id="ellipse170"
     transform="rotate(-8.9536213)" /><ellipse
     cx="2822.3054"
     cy="-914.763"
     rx="16.525415"
     ry="16.049189"
     style="fill:#ffffff;stroke-width:0.728795"
     id="ellipse174"
     transform="rotate(15.797533)" /><ellipse
     cx="3118.9985"
     cy="801.27734"
     rx="16.525406"
     ry="16.0492"
     style="fill:#ffffff;stroke-width:0.728795"
     id="ellipse178"
     transform="rotate(-18.287065)" /><ellipse
     cx="1486.9247"
     cy="-448.96353"
     rx="16.525414"
     ry="16.049204"
     style="fill:#ffffff;stroke-width:0.728795"
     id="ellipse182"
     transform="rotate(11.704625)" /><ellipse
     cx="1131.9962"
     cy="241.08871"
     rx="16.525402"
     ry="16.049206"
     style="fill:#ffffff;stroke-width:0.728795"
     id="ellipse186"
     transform="matrix(0.96930489,-0.24586181,0.24586075,0.96930516,0,0)" /><ellipse
     cx="802.37891"
     cy="253.85681"
     rx="16.525404"
     ry="16.049206"
     style="fill:#ffffff;stroke-width:0.728795"
     id="ellipse190"
     transform="rotate(-19.56453)" /><ellipse
     cx="1819.2767"
     cy="471.50668"
     rx="16.525414"
     ry="16.049208"
     style="fill:#ffffff;stroke-width:0.728795"
     id="ellipse194"
     transform="rotate(-16.220772)" /><ellipse
     cx="2160.6753"
     cy="-686.71802"
     rx="16.52541"
     ry="16.049198"
     style="fill:#ffffff;stroke-width:0.728795"
     id="ellipse198"
     transform="rotate(17.798785)" /><ellipse
     cx="2559.3262"
     cy="313.07364"
     rx="16.5254"
     ry="16.04921"
     style="fill:#ffffff;stroke-width:0.728795"
     id="ellipse202"
     transform="rotate(-8.9536213)" /><ellipse
     cx="2822.313"
     cy="-761.95483"
     rx="16.525415"
     ry="16.049189"
     style="fill:#ffffff;stroke-width:0.728795"
     id="ellipse206"
     transform="rotate(15.797533)" /><ellipse
     cx="3118.9932"
     cy="959.08368"
     rx="16.525406"
     ry="16.0492"
     style="fill:#ffffff;stroke-width:0.728795"
     id="ellipse210"
     transform="rotate(-18.287065)" /><ellipse
     cx="1091.1467"
     cy="127.514"
     rx="16.525402"
     ry="16.049206"
     style="fill:#ffffff;stroke-width:0.728795"
     id="ellipse214"
     transform="matrix(0.96930489,-0.24586181,0.24586075,0.96930516,0,0)" /><ellipse
     cx="1778.4266"
     cy="357.93073"
     rx="16.525414"
     ry="16.049208"
     style="fill:#ffffff;stroke-width:0.728795"
     id="ellipse218"
     transform="rotate(-16.220772)" /><ellipse
     cx="2122.3232"
     cy="-800.29205"
     rx="16.52541"
     ry="16.049198"
     style="fill:#ffffff;stroke-width:0.728795"
     id="ellipse222"
     transform="rotate(17.798785)" /><ellipse
     cx="2483.5029"
     cy="199.49992"
     rx="16.5254"
     ry="16.04921"
     style="fill:#ffffff;stroke-width:0.728795"
     id="ellipse226"
     transform="rotate(-8.9536213)" /><ellipse
     cx="2783.9531"
     cy="-875.52917"
     rx="16.525415"
     ry="16.049189"
     style="fill:#ffffff;stroke-width:0.728795"
     id="ellipse230"
     transform="rotate(15.797533)" /><ellipse
     cx="3043.1606"
     cy="845.51068"
     rx="16.525406"
     ry="16.0492"
     style="fill:#ffffff;stroke-width:0.728795"
     id="ellipse234"
     transform="rotate(-18.287065)" /><ellipse
     cx="1089.2167"
     cy="284.50198"
     rx="16.525402"
     ry="16.049206"
     style="fill:#ffffff;stroke-width:0.728795"
     id="ellipse238"
     transform="matrix(0.96930489,-0.24586181,0.24586075,0.96930516,0,0)" /><ellipse
     cx="1444.1442"
     cy="-255.23921"
     rx="16.525414"
     ry="16.049204"
     style="fill:#ffffff;stroke-width:0.728795"
     id="ellipse242"
     transform="rotate(11.704625)" /><ellipse
     cx="767.39789"
     cy="140.28288"
     rx="16.525404"
     ry="16.049206"
     style="fill:#ffffff;stroke-width:0.728795"
     id="ellipse246"
     transform="rotate(-19.56453)" /><ellipse
     cx="2559.324"
     cy="199.49825"
     rx="16.5254"
     ry="16.04921"
     style="fill:#ffffff;stroke-width:0.728795"
     id="ellipse250"
     transform="rotate(-8.9536213)" /><ellipse
     cx="3118.9976"
     cy="845.50989"
     rx="16.525406"
     ry="16.0492"
     style="fill:#ffffff;stroke-width:0.728795"
     id="ellipse254"
     transform="rotate(-18.287065)" /><ellipse
     cx="726.54797"
     cy="177.0181"
     rx="16.525404"
     ry="16.049206"
     style="fill:#ffffff;stroke-width:0.728795"
     id="ellipse258"
     transform="rotate(-19.56453)" /><ellipse
     cx="1743.4457"
     cy="402.16327"
     rx="16.525414"
     ry="16.049208"
     style="fill:#ffffff;stroke-width:0.728795"
     id="ellipse262"
     transform="rotate(-16.220772)" /><ellipse
     cx="2483.5"
     cy="243.73132"
     rx="16.5254"
     ry="16.04921"
     style="fill:#ffffff;stroke-width:0.728795"
     id="ellipse266"
     transform="rotate(-8.9536213)" /><ellipse
     cx="2746.4705"
     cy="-836.29456"
     rx="16.525415"
     ry="16.049189"
     style="fill:#ffffff;stroke-width:0.728795"
     id="ellipse270"
     transform="rotate(15.797533)" /><ellipse
     cx="3043.1599"
     cy="889.74316"
     rx="16.525406"
     ry="16.0492"
     style="fill:#ffffff;stroke-width:0.728795"
     id="ellipse274"
     transform="rotate(-18.287065)" /><ellipse
     cx="1411.0945"
     cy="-372.99246"
     rx="16.525414"
     ry="16.049204"
     style="fill:#ffffff;stroke-width:0.728795"
     id="ellipse278"
     transform="rotate(11.704625)" /><ellipse
     cx="1045.6217"
     cy="329.55392"
     rx="16.525402"
     ry="16.049206"
     style="fill:#ffffff;stroke-width:0.728795"
     id="ellipse282"
     transform="matrix(0.96930489,-0.24586181,0.24586075,0.96930516,0,0)" /><ellipse
     cx="716.00439"
     cy="342.3208"
     rx="16.525404"
     ry="16.049206"
     style="fill:#ffffff;stroke-width:0.728795"
     id="ellipse286"
     transform="rotate(-19.56453)" /><ellipse
     cx="1732.9023"
     cy="559.97015"
     rx="16.525414"
     ry="16.049208"
     style="fill:#ffffff;stroke-width:0.728795"
     id="ellipse290"
     transform="rotate(-16.220772)" /><ellipse
     cx="2074.3025"
     cy="-598.25305"
     rx="16.52541"
     ry="16.049198"
     style="fill:#ffffff;stroke-width:0.728795"
     id="ellipse294"
     transform="rotate(17.798785)" /><ellipse
     cx="2472.9541"
     cy="401.53879"
     rx="16.5254"
     ry="16.04921"
     style="fill:#ffffff;stroke-width:0.728795"
     id="ellipse298"
     transform="rotate(-8.9536213)" /><ellipse
     cx="2735.9285"
     cy="-673.48987"
     rx="16.525415"
     ry="16.049189"
     style="fill:#ffffff;stroke-width:0.728795"
     id="ellipse302"
     transform="rotate(15.797533)" /><ellipse
     cx="3032.6179"
     cy="1047.5513"
     rx="16.525406"
     ry="16.0492"
     style="fill:#ffffff;stroke-width:0.728795"
     id="ellipse306"
     transform="rotate(-18.287065)" /><ellipse
     cx="802.37872"
     cy="177.01855"
     rx="16.525404"
     ry="16.049206"
     style="fill:#ffffff;stroke-width:0.728795"
     id="ellipse310"
     transform="rotate(-19.56453)" /><ellipse
     cx="1819.2767"
     cy="399.66528"
     rx="16.525414"
     ry="16.049208"
     style="fill:#ffffff;stroke-width:0.728795"
     id="ellipse314"
     transform="rotate(-16.220772)" /><ellipse
     cx="2559.3311"
     cy="243.73232"
     rx="16.5254"
     ry="16.04921"
     style="fill:#ffffff;stroke-width:0.728795"
     id="ellipse318"
     transform="rotate(-8.9536213)" /><ellipse
     cx="2822.3052"
     cy="-836.2934"
     rx="16.525415"
     ry="16.049189"
     style="fill:#ffffff;stroke-width:0.728795"
     id="ellipse322"
     transform="rotate(15.797533)" /><ellipse
     cx="3118.9966"
     cy="889.74231"
     rx="16.525406"
     ry="16.0492"
     style="fill:#ffffff;stroke-width:0.728795"
     id="ellipse326"
     transform="rotate(-18.287065)" /><ellipse
     cx="1486.9253"
     cy="-372.99316"
     rx="16.525414"
     ry="16.049204"
     style="fill:#ffffff;stroke-width:0.728795"
     id="ellipse330"
     transform="rotate(11.704625)" /><ellipse
     cx="1131.9962"
     cy="329.55423"
     rx="16.525402"
     ry="16.049206"
     style="fill:#ffffff;stroke-width:0.728795"
     id="ellipse334"
     transform="matrix(0.96930489,-0.24586181,0.24586075,0.96930516,0,0)" /><ellipse
     cx="802.37878"
     cy="342.3212"
     rx="16.525404"
     ry="16.049206"
     style="fill:#ffffff;stroke-width:0.728795"
     id="ellipse338"
     transform="rotate(-19.56453)" /><ellipse
     cx="2780.2998"
     cy="-720.96307"
     rx="16.525415"
     ry="16.049189"
     style="fill:#ffffff;stroke-width:0.728795"
     id="ellipse342"
     transform="rotate(15.797533)" /><ellipse
     cx="3077.959"
     cy="1003.5989"
     rx="16.525406"
     ry="16.0492"
     style="fill:#ffffff;stroke-width:0.728795"
     id="ellipse346"
     transform="rotate(-18.287065)" /></g></svg>
