<?xml version="1.0" encoding="UTF-8" standalone="no"?>
<svg
   width="1109.6295"
   height="174.52068"
   viewBox="0 0 1109.6295 174.52067"
   version="1.1"
   xml:space="preserve"
   style="clip-rule:evenodd;fill-rule:evenodd;stroke-linejoin:round;stroke-miterlimit:2"
   id="svg5281"
   sodipodi:docname="2023-DE-09_domino_explanation_spare.svg"
   inkscape:version="1.1.1 (3bf5ae0d25, 2021-09-20)"
   xmlns:inkscape="http://www.inkscape.org/namespaces/inkscape"
   xmlns:sodipodi="http://sodipodi.sourceforge.net/DTD/sodipodi-0.dtd"
   xmlns="http://www.w3.org/2000/svg"
   xmlns:svg="http://www.w3.org/2000/svg"><defs
   id="defs5285">
        
    
            
            
            
            
            
            
            
            
            
            
            
            
            
            
            
            
            
            
            
            
            
            
            
            
            
            
            
            
            
            
            
            
            
            
            
            
            
            
            
            
            
            
            
            
            
            
            
            
            
            
            
            
            
            
            
            
            
            
            
            
            
            
            
            
            
            
            
            
            
            
            
            
            
            
            
            
            
            
            
            
            
            
            
            
            
            
            
        
                
            
                
            
                
            
                
            
                
            
                
            
                
            
                
            
                
            
                
            
                
            
                
            
                
            
                
            
                
            
                
            
                
            
                
            
                
            
                
            
                
            
                
            
                
            
                
            
                
            
                
            
                
            
                
            
                
            
                
            
                
            
                
            
                
            
                
            
                
            
                
            
                
            
                
            
                
            
                
            
                
            
                
            
                
            
                
            
                
            
                
            
                
            
                
            
                
            
                
            
                
            
                
            
                
            
                
            
                
            
                
            
                
            
                
            
                
            
                
            
                
            
                
            
                
            
                
            
                
            
                
            
                
            
                
            
                
            
                
            
                
            
                
            
                
            
                
            
                
            
                
            
                
            
                
            
                
            
                
            
                
            
                
            
                
            
                
            
                
            
                
            
                
            </defs><sodipodi:namedview
   id="namedview5283"
   pagecolor="#ffffff"
   bordercolor="#666666"
   borderopacity="1.0"
   inkscape:pageshadow="2"
   inkscape:pageopacity="0.0"
   inkscape:pagecheckerboard="0"
   showgrid="false"
   inkscape:zoom="0.81927307"
   inkscape:cx="488.848"
   inkscape:cy="103.14021"
   inkscape:window-width="1920"
   inkscape:window-height="1001"
   inkscape:window-x="-9"
   inkscape:window-y="-9"
   inkscape:window-maximized="1"
   inkscape:current-layer="svg5281" />
    <g
   id="g8140"
   transform="translate(410.13283,-46.029102)"><path
     d="m 688.15788,85.788167 c 0,0 8.97049,-12.72474 8.76135,-5.722907 -0.0752,2.51801 -0.37933,5.026402 -0.74743,7.516647 -0.3081,2.084967 -0.78266,4.143007 -1.27742,6.190822 -1.36711,5.657953 -2.83565,11.290821 -4.30691,16.922471 -3.37745,12.9279 -4.36696,17.25908 -9.11621,29.76628 -5.51687,14.53029 -6.26835,14.16973 -12.40599,28.49496 -1.74186,4.06586 -3.2983,8.20824 -4.90483,12.3291 -1.58716,4.07134 -1.9779,10.87823 -6.64104,12.07422 -21.49225,5.51237 -93.929,-25.32777 -64.61549,-31.90497 1.01861,-0.22839 2.25264,-3.39338 3.24192,-3.88543 2.02338,-1.00643 3.21505,3.95363 3.62171,4.46522 0.88389,1.11211 4.67812,3.63714 5.8296,4.40416 2.65327,1.76717 5.81081,4.35939 9.2723,4.39657 1.40013,0.0151 2.80605,-0.12769 4.17794,-0.39255 3.54252,-0.68426 7.68032,-1.73279 10.286,-4.44758 3.94697,-4.11285 20.28716,-27.33017 24.27472,-31.39736 3.48926,-3.55857 4.01807,-2.87555 7.86677,-6.07128 8.27712,-6.87292 15.24404,-15.40407 19.36068,-25.35876 2.35312,-5.690142 1.31078,-13.746708 7.32233,-17.379613 z"
     style="fill:#e0e0e0;fill-rule:nonzero;stroke-width:0.326228"
     id="path4941" /><path
     d="m 694.04714,63.746989 c 0,0 5.09316,1.564412 5.36388,2.785584 0.51953,2.343873 -1.45081,7.137535 -2.53165,10.043759 -7.49937,20.164373 -27.9628,79.003788 -36.10846,100.959648 -2.91683,7.86232 -4.51973,12.48401 -9.2279,11.21144 -14.42335,-3.898 -49.20226,-17.07059 -61.62977,-20.81561 -3.38315,-1.01917 1.60231,-9.92131 1.60231,-9.92131 L 629.51464,52.467836 c 1.4928,-5.341599 4.79006,-7.753458 10.82326,-5.7241 z"
     style="fill:#323232;fill-rule:nonzero;stroke-width:0.326228"
     id="path4973" /><path
     d="m 667.00172,142.67796 c 1.69439,-2.58077 -3.99452,15.78484 -6.21605,20.0689 -1.96001,3.7793 -2.07273,9.20061 -4.58047,12.58823 -0.92225,1.24606 -2.43614,2.28995 -3.71734,3.18352 -3.17518,2.21448 -3.95229,0.68798 -7.57506,0.0881 -2.70317,-0.44771 -14.95199,-5.06669 -16.18446,-6.25706 -0.92695,-0.89514 0.0919,-3.87601 0.98472,-4.32593 0.84219,-0.42438 17.13405,8.72336 19.74683,5.88102 1.96631,-2.13895 3.16824,-2.83295 4.29196,-5.36817 2.4117,-5.44123 9.97889,-20.87684 13.24987,-25.85865 z"
     style="fill:#606060;fill-rule:nonzero;stroke-width:0.326228"
     id="path5005" /><path
     d="m 672.53007,121.9062 -55.25744,-18.79805 c -0.52367,-0.17831 -1.09164,0.0955 -1.26753,0.61108 -0.17547,0.51539 0.1072,1.0786 0.63087,1.25692 l 55.25744,18.79804 c 0.52377,0.17801 1.09174,-0.0958 1.26722,-0.61118 0.17588,-0.51559 -0.10679,-1.07881 -0.63056,-1.25681 z"
     style="fill:#ffffff;fill-rule:nonzero;stroke-width:0.326228"
     id="path5037" /><ellipse
     cx="664.92133"
     cy="-74.772514"
     rx="6.6138148"
     ry="6.4232254"
     style="fill:#ffffff;stroke-width:0.291679"
     id="ellipse5125"
     transform="rotate(17.798785)" /><ellipse
     cx="649.57202"
     cy="-120.22719"
     rx="6.6138148"
     ry="6.4232254"
     style="fill:#ffffff;stroke-width:0.291679"
     id="ellipse5149"
     transform="rotate(17.798785)" /><ellipse
     cx="630.35309"
     cy="-39.366982"
     rx="6.6138148"
     ry="6.4232254"
     style="fill:#ffffff;stroke-width:0.291679"
     id="ellipse5221"
     transform="rotate(17.798785)" /></g><g
   id="g8191"
   transform="matrix(0.3263774,0.94523954,0.94523954,-0.3263774,-62.146733,100.23417)"><path
     d="m 82.714054,61.285816 c 0,0 -0.592448,-15.557559 3.490506,-9.865554 1.46836,2.046935 2.748872,4.225201 3.967551,6.427846 1.020417,1.844117 1.892191,3.767849 2.741702,5.695716 2.347041,5.326616 4.598242,10.694848 6.846545,16.063766 5.161102,12.324794 7.003082,16.367742 10.818562,29.19067 4.43313,14.89674 3.61704,15.06621 7.43233,30.17668 1.08299,4.28864 2.3598,8.52558 3.58375,12.7758 1.20927,4.19911 5.02959,9.84638 2.04911,13.62687 -13.73686,17.42417 -90.025748,36.87175 -70.718729,13.85478 0.670994,-0.79968 -0.268928,-4.06413 0.218749,-5.05557 0.997424,-2.02783 4.954663,1.19126 5.588344,1.35108 1.377425,0.34751 5.925448,0.0518 7.306129,-0.0373 3.181269,-0.20563 7.264028,-0.0615 10.037795,-2.13264 1.121995,-0.83769 2.152772,-1.80439 3.082422,-2.84746 2.400353,-2.69368 5.052774,-6.03816 5.476266,-9.77718 0.641107,-5.66419 -0.461464,-34.03372 0.239624,-39.68625 0.613699,-4.94589 1.448495,-4.72394 2.568075,-9.59957 2.407745,-10.48573 2.76781,-21.494301 -0.0014,-31.904579 -1.58293,-5.950619 -7.300653,-11.721445 -4.727331,-18.257105 z"
     style="fill:#e0e0e0;fill-rule:nonzero;stroke-width:0.326228"
     id="path4933" /><path
     d="m 74.02044,40.192701 c 0,0 4.99745,-1.847464 5.953712,-1.041165 1.835343,1.547635 3.178426,6.553388 4.083061,9.519191 6.276565,20.577837 25.719837,79.762203 32.569927,102.156133 2.45308,8.01913 3.98383,12.66521 -0.53052,14.511 -13.82931,5.65491 -49.465739,16.29143 -61.615902,20.85672 -3.307443,1.24308 -4.747394,-8.85788 -4.747394,-8.85788 L 15.884795,70.390603 C 13.829641,65.239149 14.98664,61.321196 21.013398,59.272794 Z"
     style="fill:#323232;fill-rule:nonzero;stroke-width:0.326228"
     id="path4965" /><path
     d="m 100.42406,119.34018 c -0.21948,-3.07947 6.40443,14.96999 7.23861,19.72315 0.73571,4.19327 3.93613,8.57055 3.9988,12.78491 0.0232,1.55006 -0.54655,3.29847 -1.02258,4.7862 -1.17975,3.68699 -2.72378,2.94532 -5.9672,4.6671 -2.42019,1.28463 -14.958712,5.04684 -16.660673,4.84868 -1.27998,-0.14893 -2.279218,-3.13641 -1.842606,-4.03586 0.41183,-0.8484 18.912129,-3.46472 19.263859,-7.30944 0.26477,-2.89333 0.7989,-4.17434 0.15349,-6.87128 -1.38526,-5.78829 -4.73819,-22.64885 -5.1617,-28.59346 z"
     style="fill:#606060;fill-rule:nonzero;stroke-width:0.326228"
     id="path4997" /><path
     d="M 92.213483,99.475852 36.886737,118.06899 c -0.524431,0.17607 -0.809693,0.73838 -0.636594,1.25491 0.1733,0.51612 0.739769,0.79222 1.2642,0.61615 l 55.326746,-18.59314 c 0.524322,-0.17637 0.809585,-0.73868 0.636284,-1.2548 -0.173099,-0.516534 -0.739567,-0.792635 -1.26389,-0.616258 z"
     style="fill:#ffffff;fill-rule:nonzero;stroke-width:0.326228"
     id="path5029" /><ellipse
     cx="10.543612"
     cy="79.186699"
     rx="6.6138124"
     ry="6.4232283"
     style="fill:#ffffff;stroke-width:0.291679"
     id="ellipse5057"
     transform="rotate(-19.56453)" /><ellipse
     cx="6.3238583"
     cy="139.34467"
     rx="6.6138124"
     ry="6.4232283"
     style="fill:#ffffff;stroke-width:0.291679"
     id="ellipse5085"
     transform="rotate(-19.56453)" /><ellipse
     cx="40.892345"
     cy="79.186775"
     rx="6.6138124"
     ry="6.4232283"
     style="fill:#ffffff;stroke-width:0.291679"
     id="ellipse5089"
     transform="rotate(-19.56453)" /><ellipse
     cx="40.892586"
     cy="139.34433"
     rx="6.6138124"
     ry="6.4232283"
     style="fill:#ffffff;stroke-width:0.291679"
     id="ellipse5117"
     transform="rotate(-19.56453)" /><ellipse
     cx="26.892456"
     cy="93.889671"
     rx="6.6138124"
     ry="6.4232283"
     style="fill:#ffffff;stroke-width:0.291679"
     id="ellipse5173"
     transform="rotate(-19.56453)" /><ellipse
     cx="10.543467"
     cy="108.59187"
     rx="6.6138124"
     ry="6.4232283"
     style="fill:#ffffff;stroke-width:0.291679"
     id="ellipse5185"
     transform="rotate(-19.56453)" /><ellipse
     cx="6.3237081"
     cy="174.74948"
     rx="6.6138124"
     ry="6.4232283"
     style="fill:#ffffff;stroke-width:0.291679"
     id="ellipse5213"
     transform="rotate(-19.56453)" /><ellipse
     cx="40.892509"
     cy="108.59206"
     rx="6.6138124"
     ry="6.4232283"
     style="fill:#ffffff;stroke-width:0.291679"
     id="ellipse5237"
     transform="rotate(-19.56453)" /><ellipse
     cx="40.892536"
     cy="174.74963"
     rx="6.6138124"
     ry="6.4232283"
     style="fill:#ffffff;stroke-width:0.291679"
     id="ellipse5265"
     transform="rotate(-19.56453)" /></g>
<g
   id="g8164"
   transform="matrix(-0.25881905,0.96592583,0.96592583,0.25881905,181.53287,-239.24298)"><path
     d="m 382.66915,83.666248 c 0,0 7.56891,-13.605156 8.10428,-6.62069 0.19258,2.511759 0.15643,5.038266 0.0548,7.553516 -0.085,2.105894 -0.33841,4.202683 -0.61298,6.291451 -0.75872,5.771113 -1.62096,11.528055 -2.48604,17.284075 -1.9859,13.21339 -2.51002,17.62515 -5.90464,30.56585 -3.94313,15.03386 -4.72864,14.75512 -9.31079,29.65097 -1.30038,4.2278 -2.40826,8.51201 -3.56823,12.78014 -1.14597,4.21682 -0.81187,11.02673 -5.32169,12.71102 -20.78559,7.76287 -96.08704,-15.21293 -67.63743,-24.86495 0.98861,-0.33523 1.87966,-3.61335 2.81111,-4.20764 1.9051,-1.21554 3.61661,3.58997 4.07528,4.0555 0.99696,1.01199 5.03781,3.11995 6.26421,3.76039 2.82588,1.4755 6.24078,3.71786 9.68665,3.38735 1.39382,-0.13362 2.77664,-0.42486 4.11266,-0.83388 3.44985,-1.05646 7.45296,-2.53835 9.75571,-5.51442 3.48803,-4.50863 17.27108,-29.32945 20.80432,-33.79698 3.09176,-3.9089 3.69009,-3.28587 7.17777,-6.87213 7.50071,-7.7128 13.52257,-16.93535 16.55913,-27.27082 1.73575,-5.9078 -0.15601,-13.808178 5.4359,-18.058752 z"
     style="fill:#e0e0e0;fill-rule:nonzero;stroke-width:0.326228"
     id="path4957" /><path
     d="m 386.18706,61.124631 c 0,0 5.23046,1.014871 5.62929,2.200401 0.76543,2.275472 -0.68487,7.251219 -1.45107,10.255763 -5.3163,20.846568 -19.41757,81.525905 -25.18632,104.222445 -2.06566,8.12755 -3.16886,12.89328 -7.98551,12.12774 -14.75567,-2.34475 -50.73646,-11.7507 -63.49132,-14.15521 -3.47223,-0.65425 0.53998,-10.03535 0.53998,-10.03535 L 320.82183,56.760137 c 0.91729,-5.469891 3.93987,-8.218164 10.15441,-6.840772 z"
     style="fill:#323232;fill-rule:nonzero;stroke-width:0.326228"
     id="path4989" /><path
     d="m 367.67314,142.48045 c 1.41083,-2.74606 -2.29619,16.1197 -4.05036,20.61539 -1.54772,3.96603 -1.08426,9.36866 -3.2182,13.00337 -0.78475,1.33693 -2.17926,2.53563 -3.35836,3.56017 -2.92214,2.53905 -3.85691,1.10367 -7.52289,0.89183 -2.73543,-0.15821 -15.40539,-3.45073 -16.75726,-4.50352 -1.01675,-0.79168 -0.32016,-3.86386 0.5199,-4.40603 0.79238,-0.51139 17.96331,6.85508 20.25958,3.75142 1.72812,-2.33561 2.84959,-3.15329 3.6978,-5.79348 1.82043,-5.6665 7.70618,-21.81824 10.42979,-27.11915 z"
     style="fill:#606060;fill-rule:nonzero;stroke-width:0.326228"
     id="path5021" /><path
     d="m 370.96589,121.23946 -56.9408,-12.82555 c -0.53965,-0.12172 -1.07534,0.21084 -1.1955,0.74219 -0.11977,0.5311 0.2211,1.06113 0.76074,1.18284 l 56.94081,12.82555 c 0.53971,0.1214 1.0754,-0.21116 1.19517,-0.74225 0.12016,-0.53135 -0.22071,-1.06138 -0.76042,-1.18278 z"
     style="fill:#ffffff;fill-rule:nonzero;stroke-width:0.326228"
     id="path5053" /><ellipse
     cx="344.81311"
     cy="-1.9631236"
     rx="6.6138158"
     ry="6.4232268"
     style="fill:#ffffff;stroke-width:0.291679"
     id="ellipse5077"
     transform="rotate(11.704625)" /><ellipse
     cx="375.16183"
     cy="-1.9629033"
     rx="6.6138158"
     ry="6.4232268"
     style="fill:#ffffff;stroke-width:0.291679"
     id="ellipse5109"
     transform="rotate(11.704625)" /><ellipse
     cx="358.04019"
     cy="75.569626"
     rx="6.6138158"
     ry="6.4232268"
     style="fill:#ffffff;stroke-width:0.291679"
     id="ellipse5169"
     transform="rotate(11.704625)" /><ellipse
     cx="344.81302"
     cy="28.442316"
     rx="6.6138158"
     ry="6.4232268"
     style="fill:#ffffff;stroke-width:0.291679"
     id="ellipse5205"
     transform="rotate(11.704625)" /><ellipse
     cx="375.16208"
     cy="28.442039"
     rx="6.6138158"
     ry="6.4232268"
     style="fill:#ffffff;stroke-width:0.291679"
     id="ellipse5257"
     transform="rotate(11.704625)" /></g><g
   id="g8176"
   transform="matrix(0.22549485,0.97424436,0.97424436,-0.22549485,200.73866,-41.314905)"><path
     d="m 214.21273,55.241426 c 0,0 0.85576,-15.545293 4.39213,-9.49852 1.2718,2.174521 2.34436,4.46235 3.3531,6.768706 0.84464,1.930956 1.53388,3.927373 2.20058,5.925836 1.84192,5.521659 3.58456,11.07585 5.32424,16.630454 3.99353,12.751046 5.45186,16.94766 8.0593,30.069648 3.02971,15.24422 2.2014,15.33712 4.59609,30.73674 0.6798,4.37071 1.55738,8.70796 2.38109,13.05352 0.81385,4.29331 4.09288,10.27114 0.77401,13.75831 -15.29651,16.07232 -93.06241,28.34682 -71.70015,7.2235 0.7424,-0.73388 0.10989,-4.07153 0.68758,-5.01337 1.18154,-1.92637 4.82253,1.6465 5.43862,1.86451 1.33917,0.474 5.89499,0.60221 7.27798,0.64173 3.18661,0.0909 7.23832,0.61372 10.19254,-1.19068 1.19498,-0.72981 2.31112,-1.59654 3.33367,-2.54872 2.64027,-2.45897 5.59199,-5.54251 6.36109,-9.226 1.16466,-5.58011 2.70301,-33.92934 3.92631,-39.49227 1.07062,-4.86746 1.88118,-4.5689 3.44897,-9.31939 3.37168,-10.216631 4.75313,-21.144109 2.9632,-31.766667 -1.0231,-6.071916 -6.17984,-12.349076 -3.01035,-18.617337 z"
     style="fill:#e0e0e0;fill-rule:nonzero;stroke-width:0.326228"
     id="path4929" /><path
     d="m 207.51651,33.431339 c 0,0 5.14749,-1.375096 6.02469,-0.483428 1.6836,1.711482 2.55572,6.820377 3.18086,9.857408 4.33727,21.072029 18.19688,81.807021 22.93644,104.740571 1.69731,8.21238 2.78972,12.9806 -1.87661,14.39892 -14.29493,4.34539 -50.76554,11.62447 -63.28734,15.04099 -3.40864,0.93036 -3.90376,-9.2607 -3.90376,-9.2607 L 146.82636,58.096483 c -1.56758,-5.320134 -0.0515,-9.113623 6.1395,-10.593142 z"
     style="fill:#323232;fill-rule:nonzero;stroke-width:0.326228"
     id="path4961" /><path
     d="m 226.4518,114.69047 c 0.0676,-3.08654 4.98569,15.50033 5.37458,20.31044 0.34288,4.24349 3.1227,8.89922 2.7935,13.10117 -0.12094,1.5455 -0.85069,3.23341 -1.4629,4.67047 -1.51725,3.56141 -2.98568,2.67947 -6.37505,4.09242 -2.5291,1.05418 -15.36296,3.63501 -17.03914,3.27955 -1.2606,-0.26722 -1.97792,-3.33462 -1.45961,-4.18962 0.48888,-0.80646 19.15224,-1.69236 19.85971,-5.48776 0.53247,-2.85621 1.18333,-4.08204 0.79132,-6.82729 -0.84141,-5.89197 -2.61312,-22.99113 -2.48241,-28.94938 z"
     style="fill:#606060;fill-rule:nonzero;stroke-width:0.326228"
     id="path4993" /><path
     d="m 220.12212,94.148509 -56.81506,13.371601 c -0.53852,0.12658 -0.8748,0.65994 -0.75045,1.19033 0.12459,0.52999 0.66295,0.85753 1.20148,0.73095 l 56.81506,-13.371599 c 0.53844,-0.126891 0.87472,-0.660258 0.75013,-1.190247 -0.12435,-0.530384 -0.66272,-0.857927 -1.20116,-0.731035 z"
     style="fill:#ffffff;fill-rule:nonzero;stroke-width:0.326228"
     id="path5025" /><ellipse
     cx="142.96382"
     cy="160.11121"
     rx="6.613812"
     ry="6.4232278"
     style="fill:#ffffff;stroke-width:0.291679"
     id="ellipse5081"
     transform="matrix(0.96930489,-0.24586181,0.24586075,0.96930516,0,0)" /><ellipse
     cx="177.53232"
     cy="160.11122"
     rx="6.613812"
     ry="6.4232278"
     style="fill:#ffffff;stroke-width:0.291679"
     id="ellipse5113"
     transform="matrix(0.96930489,-0.24586181,0.24586075,0.96930516,0,0)" /><ellipse
     cx="161.18349"
     cy="114.65624"
     rx="6.613812"
     ry="6.4232278"
     style="fill:#ffffff;stroke-width:0.291679"
     id="ellipse5141"
     transform="matrix(0.96930489,-0.24586181,0.24586075,0.96930516,0,0)" /><ellipse
     cx="160.41104"
     cy="177.48611"
     rx="6.613812"
     ry="6.4232278"
     style="fill:#ffffff;stroke-width:0.291679"
     id="ellipse5165"
     transform="matrix(0.96930489,-0.24586181,0.24586075,0.96930516,0,0)" /><ellipse
     cx="142.96342"
     cy="195.51685"
     rx="6.613812"
     ry="6.4232278"
     style="fill:#ffffff;stroke-width:0.291679"
     id="ellipse5209"
     transform="matrix(0.96930489,-0.24586181,0.24586075,0.96930516,0,0)" /><ellipse
     cx="177.53233"
     cy="195.51697"
     rx="6.613812"
     ry="6.4232278"
     style="fill:#ffffff;stroke-width:0.291679"
     id="ellipse5261"
     transform="matrix(0.96930489,-0.24586181,0.24586075,0.96930516,0,0)" /></g><g
   id="g8153"
   transform="matrix(0.25881905,0.96592583,0.96592583,-0.25881905,262.67882,-318.2779)"><path
     d="m 501.23323,50.843908 c 0,0 0.31597,-15.565617 4.05998,-9.645164 1.34647,2.129093 2.49775,4.378336 3.58588,6.64831 0.91112,1.900493 1.6692,3.871796 2.40482,5.845928 2.03237,5.454437 3.96662,10.94483 5.89795,16.435739 4.43345,12.60483 6.03648,16.748327 9.09755,29.771959 3.55671,15.12993 2.73212,15.25152 5.65957,30.55879 0.83101,4.3445 1.85852,8.64869 2.83249,12.96306 0.96229,4.26249 4.44672,10.12297 1.25082,13.72317 -14.72975,16.59329 -92.02301,31.55811 -71.40638,9.70644 0.7165,-0.75918 -0.0314,-4.07288 0.51325,-5.0342 1.114,-1.9662 4.87674,1.47822 5.50002,1.67473 1.35481,0.42725 5.91234,0.39734 7.29587,0.38886 3.18784,-0.0197 7.25524,0.36225 10.14508,-1.54354 1.16895,-0.77082 2.25435,-1.67575 3.24326,-2.66283 2.55337,-2.54908 5.39635,-5.73316 6.0372,-9.44111 0.97039,-5.61716 1.52438,-34.00267 2.55397,-39.6047 0.90113,-4.90167 1.72155,-4.6314 3.1236,-9.43342 3.01524,-10.32744 4.01678,-21.29626 1.85944,-31.850327 -1.23312,-6.032768 -6.60451,-12.127258 -3.65437,-18.501695 z"
     style="fill:#e0e0e0;fill-rule:nonzero;stroke-width:0.326228"
     id="path4937" /><path
     d="m 493.78462,29.279749 c 0,0 5.09669,-1.552835 6.00429,-0.692135 1.74195,1.652047 2.79078,6.727611 3.52089,9.741127 5.06565,20.908877 21.0238,81.126489 26.55606,103.881819 1.98118,8.14855 3.23834,12.876 -1.37598,14.45535 -14.13558,4.83866 -50.3317,13.37854 -62.72745,17.22738 -3.37431,1.04806 -4.22266,-9.1197 -4.22266,-9.1197 L 433.98666,56.035397 c -1.75119,-5.26255 -0.36764,-9.106346 5.76833,-10.799743 z"
     style="fill:#323232;fill-rule:nonzero;stroke-width:0.326228"
     id="path4969" /><path
     d="m 515.52748,109.83261 c -0.0395,-3.08703 5.52038,15.31804 6.0759,20.11176 0.48988,4.22904 3.42954,8.78553 3.2463,12.99637 -0.0673,1.54877 -0.73801,3.26097 -1.3,4.71841 -1.3928,3.6119 -2.89094,2.78143 -6.22925,4.31111 -2.491,1.14128 -15.2276,4.16576 -16.9151,3.86866 -1.26912,-0.22332 -2.09241,-3.264 -1.60408,-4.13645 0.46062,-0.82294 19.08201,-2.35575 19.65738,-6.17341 0.43308,-2.87295 1.04102,-4.12063 0.55401,-6.85063 -1.0453,-5.85922 -3.4091,-22.88663 -3.48516,-28.84582 z"
     style="fill:#606060;fill-rule:nonzero;stroke-width:0.326228"
     id="path5001" /><path
     d="m 508.48891,89.52306 -56.31698,15.33448 c -0.53381,0.14518 -0.85138,0.68989 -0.70871,1.21564 0.14291,0.52535 0.69231,0.83402 1.22611,0.68884 l 56.31698,-15.334481 c 0.53372,-0.145494 0.85129,-0.690206 0.70839,-1.215553 -0.14268,-0.52575 -0.69208,-0.834421 -1.22579,-0.688926 z"
     style="fill:#ffffff;fill-rule:nonzero;stroke-width:0.326228"
     id="path5033" /><ellipse
     cx="420.20624"
     cy="180.57559"
     rx="6.6138158"
     ry="6.4232287"
     style="fill:#ffffff;stroke-width:0.291679"
     id="ellipse5061"
     transform="rotate(-16.220772)" /><ellipse
     cx="450.55484"
     cy="181.57542"
     rx="6.6138158"
     ry="6.4232287"
     style="fill:#ffffff;stroke-width:0.291679"
     id="ellipse5093"
     transform="rotate(-16.220772)" /><ellipse
     cx="450.55502"
     cy="242.73329"
     rx="6.6138158"
     ry="6.4232287"
     style="fill:#ffffff;stroke-width:0.291679"
     id="ellipse5121"
     transform="rotate(-16.220772)" /><ellipse
     cx="434.20593"
     cy="197.27782"
     rx="6.6138158"
     ry="6.4232287"
     style="fill:#ffffff;stroke-width:0.291679"
     id="ellipse5145"
     transform="rotate(-16.220772)" /><ellipse
     cx="420.20584"
     cy="214.98061"
     rx="6.6138158"
     ry="6.4232287"
     style="fill:#ffffff;stroke-width:0.291679"
     id="ellipse5189"
     transform="rotate(-16.220772)" /><ellipse
     cx="415.98621"
     cy="278.13824"
     rx="6.6138158"
     ry="6.4232287"
     style="fill:#ffffff;stroke-width:0.291679"
     id="ellipse5217"
     transform="rotate(-16.220772)" /><ellipse
     cx="450.55502"
     cy="213.98087"
     rx="6.6138158"
     ry="6.4232287"
     style="fill:#ffffff;stroke-width:0.291679"
     id="ellipse5241"
     transform="rotate(-16.220772)" /></g><g
   id="g8131"
   transform="rotate(96.740266,678.59628,43.348469)"><path
     d="m 798.58999,130.29374 c 0,0 5.80964,14.44425 7.21351,7.58141 0.50492,-2.46801 0.78474,-4.97923 0.99816,-7.48747 0.17878,-2.10001 0.18936,-4.21203 0.17794,-6.31873 -0.0317,-5.82069 -0.16785,-11.64024 -0.30694,-17.45924 -0.31935,-13.357976 -0.28811,-17.800646 -2.0392,-31.06408 -2.03376,-15.408726 -2.84795,-15.230313 -5.53297,-30.581964 -0.76193,-4.357146 -1.32582,-8.746197 -1.94339,-13.125812 -0.61011,-4.326966 0.57226,-11.041754 -3.69176,-13.276331 -19.65272,-10.2991566 -97.23482,3.087813 -70.21418,16.218911 0.93897,0.456129 1.41344,3.819886 2.26334,4.525913 1.73828,1.444046 4.03682,-3.109955 4.55007,-3.514517 1.11559,-0.879492 5.38815,-2.466039 6.68496,-2.948221 2.98811,-1.110857 6.65641,-2.908952 10.03399,-2.150479 1.36619,0.30673 2.70179,0.768465 3.97623,1.341211 3.29081,1.479238 7.07739,3.449688 8.99023,6.690154 2.89734,4.909126 13.47105,31.257579 16.41839,36.131576 2.57911,4.264569 3.25059,3.721188 6.26284,7.715119 6.47822,8.589544 11.30054,18.49223 13.0219,29.12612 0.98397,6.07838 -1.8801,13.68047 3.13688,18.59643 z"
     style="fill:#e0e0e0;fill-rule:nonzero;stroke-width:0.326228"
     id="path4945" /><path
     d="m 783.63994,19.589169 c 0,0 5.25218,-0.895654 6.04362,0.07294 1.51898,1.859124 1.91735,7.026588 2.2604,10.108252 2.38009,21.381698 10.59285,83.134219 13.20224,106.406569 0.93451,8.3337 1.58357,13.1822 -3.19345,14.16517 -14.6341,3.01171 -51.61972,6.90436 -64.40275,9.15428 -3.47978,0.6128 -3.03514,-9.58058 -3.03514,-9.58058 L 720.93788,38.565741 c -1.07143,-5.441794 0.78722,-9.079701 7.08811,-9.983324 z"
     style="fill:#323232;fill-rule:nonzero;stroke-width:0.326228"
     id="path4977" /><path
     d="m 795.01669,102.24538 c 0.35132,-3.067229 3.53839,15.89329 3.48307,20.71878 -0.049,4.25703 2.29066,9.14878 1.57624,13.30261 -0.26263,1.52782 -1.14458,3.14142 -1.88641,4.51606 -1.83849,3.4067 -3.21955,2.3934 -6.72454,3.48851 -2.61536,0.81701 -15.63223,2.20608 -17.2686,1.69791 -1.23066,-0.38207 -1.66271,-3.50246 -1.06794,-4.30614 0.56101,-0.75805 19.22671,0.077 20.28038,-3.63724 0.793,-2.7951 1.55389,-3.95585 1.41612,-6.72553 -0.29574,-5.94438 -0.48667,-23.13402 0.19168,-29.05496 z"
     style="fill:#606060;fill-rule:nonzero;stroke-width:0.326228"
     id="path5009" /><path
     d="m 790.60565,81.208573 -57.80432,8.087474 c -0.54789,0.07649 -0.93181,0.576657 -0.85679,1.116232 0.0753,0.539204 0.58125,0.914891 1.12913,0.838398 L 790.878,83.163203 c 0.54783,-0.07681 0.93176,-0.576977 0.85645,-1.116181 -0.075,-0.539575 -0.58096,-0.915262 -1.1288,-0.838449 z"
     style="fill:#ffffff;fill-rule:nonzero;stroke-width:0.326228"
     id="path5041" /><ellipse
     cx="725.29858"
     cy="154.84003"
     rx="6.6138105"
     ry="6.4232297"
     style="fill:#ffffff;stroke-width:0.291679"
     id="ellipse5065"
     transform="rotate(-8.9536213)" /><ellipse
     cx="755.64783"
     cy="154.84003"
     rx="6.6138105"
     ry="6.4232297"
     style="fill:#ffffff;stroke-width:0.291679"
     id="ellipse5097"
     transform="rotate(-8.9536213)" /><ellipse
     cx="755.64752"
     cy="217.998"
     rx="6.6138105"
     ry="6.4232297"
     style="fill:#ffffff;stroke-width:0.291679"
     id="ellipse5129"
     transform="rotate(-8.9536213)" /><ellipse
     cx="725.30145"
     cy="172.54343"
     rx="6.6138105"
     ry="6.4232297"
     style="fill:#ffffff;stroke-width:0.291679"
     id="ellipse5153"
     transform="rotate(-8.9536213)" /><ellipse
     cx="755.64655"
     cy="172.54276"
     rx="6.6138105"
     ry="6.4232297"
     style="fill:#ffffff;stroke-width:0.291679"
     id="ellipse5177"
     transform="rotate(-8.9536213)" /><ellipse
     cx="725.30023"
     cy="190.24576"
     rx="6.6138105"
     ry="6.4232297"
     style="fill:#ffffff;stroke-width:0.291679"
     id="ellipse5193"
     transform="rotate(-8.9536213)" /><ellipse
     cx="721.07953"
     cy="253.40361"
     rx="6.6138105"
     ry="6.4232297"
     style="fill:#ffffff;stroke-width:0.291679"
     id="ellipse5225"
     transform="rotate(-8.9536213)" /><ellipse
     cx="755.64941"
     cy="190.24615"
     rx="6.6138105"
     ry="6.4232297"
     style="fill:#ffffff;stroke-width:0.291679"
     id="ellipse5245"
     transform="rotate(-8.9536213)" /></g><g
   id="g8103"
   transform="matrix(0.25881905,0.96592583,0.96592583,-0.25881905,397.73834,-852.41408)"><path
     d="m 1053.0412,45.822687 c 0,0 -0.2455,-15.56689 3.7095,-9.785283 1.4224,2.07916 2.654,4.285429 3.8233,6.514693 0.9791,1.866405 1.8077,3.809093 2.614,5.755418 2.2278,5.377611 4.3587,10.794691 6.4868,16.212393 4.885,12.43678 6.6364,16.519783 10.1651,29.424577 4.0999,14.991855 3.2802,15.143085 6.7577,30.334855 0.9871,4.31171 2.1691,8.57606 3.298,12.85251 1.1154,4.22502 4.8088,9.95605 1.7448,13.66915 -14.1218,17.1136 -90.8252,34.85564 -71.0099,12.27481 0.6886,-0.78453 -0.1783,-4.06911 0.3314,-5.04943 1.0424,-2.00509 4.9268,1.30141 5.5568,1.47532 1.3693,0.37813 5.9228,0.18391 7.3051,0.12554 3.1851,-0.13466 7.2636,0.10042 10.0829,-1.90833 1.1404,-0.81247 2.1924,-1.75595 3.1451,-2.77804 2.4598,-2.6395 5.1861,-5.92401 5.6929,-9.65266 0.7672,-5.64849 0.2974,-34.03553 1.1243,-39.67104 0.7238,-4.93097 1.5534,-4.69046 2.7814,-9.539913 2.6409,-10.429446 3.2463,-21.427247 0.7099,-31.896667 -1.4499,-5.984384 -7.0375,-11.881237 -4.3191,-18.357903 z"
     style="fill:#e0e0e0;fill-rule:nonzero;stroke-width:0.326228"
     id="path4953" /><path
     d="m 1044.8218,24.54061 c 0,0 5.0374,-1.735596 5.9754,-0.90818 1.8004,1.588164 3.0316,6.622611 3.8699,9.607842 5.8162,20.712634 23.9352,80.315698 30.2843,102.856768 2.2737,8.07181 3.7005,12.75087 -0.8539,14.49556 -13.9519,5.3452 -49.8166,15.18464 -62.0655,19.47793 -3.3343,1.16904 -4.5487,-8.96151 -4.5487,-8.96151 L 986.02748,53.434984 c -1.9398,-5.195987 -0.69574,-9.087171 5.37518,-11.000709 z"
     style="fill:#323232;fill-rule:nonzero;stroke-width:0.326228"
     id="path4985" /><path
     d="m 1069.4585,104.25661 c -0.1508,-3.0836 6.0691,15.10903 6.7971,19.87961 0.642,4.20862 3.7441,8.65616 3.7128,12.87087 -0.011,1.55019 -0.62,3.28546 -1.1291,4.76221 -1.2616,3.65977 -2.7887,2.88387 -6.0697,4.53292 -2.4482,1.23035 -15.0675,4.71211 -16.7646,4.47605 -1.2764,-0.17742 -2.2088,-3.18644 -1.7522,-4.07593 0.4306,-0.83901 18.9847,-3.04225 19.422,-6.87817 0.3292,-2.88671 0.8918,-4.15549 0.3067,-6.86615 -1.2559,-5.81773 -4.2321,-22.74884 -4.523,-28.70141 z"
     style="fill:#606060;fill-rule:nonzero;stroke-width:0.326228"
     id="path5017" /><path
     d="m 1061.6887,84.214569 -55.7274,17.355111 c -0.5283,0.16434 -0.826,0.72015 -0.6645,1.24041 0.1618,0.51986 0.722,0.80852 1.2502,0.64418 l 55.7274,-17.355116 c 0.5281,-0.164644 0.8259,-0.720452 0.6641,-1.240305 -0.1615,-0.520264 -0.7217,-0.808924 -1.2498,-0.64428 z"
     style="fill:#ffffff;fill-rule:nonzero;stroke-width:0.326228"
     id="path5049" /><ellipse
     cx="938.61182"
     cy="364.67209"
     rx="6.6138129"
     ry="6.4232259"
     style="fill:#ffffff;stroke-width:0.291679"
     id="ellipse5073"
     transform="rotate(-18.287065)" /><ellipse
     cx="968.96338"
     cy="364.67175"
     rx="6.6138129"
     ry="6.4232259"
     style="fill:#ffffff;stroke-width:0.291679"
     id="ellipse5105"
     transform="rotate(-18.287065)" /><ellipse
     cx="968.96124"
     cy="427.82913"
     rx="6.6138129"
     ry="6.4232259"
     style="fill:#ffffff;stroke-width:0.291679"
     id="ellipse5137"
     transform="rotate(-18.287065)" /><ellipse
     cx="938.61145"
     cy="382.37485"
     rx="6.6138129"
     ry="6.4232259"
     style="fill:#ffffff;stroke-width:0.291679"
     id="ellipse5161"
     transform="rotate(-18.287065)" /><ellipse
     cx="968.96301"
     cy="382.37451"
     rx="6.6138129"
     ry="6.4232259"
     style="fill:#ffffff;stroke-width:0.291679"
     id="ellipse5181"
     transform="rotate(-18.287065)" /><ellipse
     cx="938.61115"
     cy="400.07761"
     rx="6.6138129"
     ry="6.4232259"
     style="fill:#ffffff;stroke-width:0.291679"
     id="ellipse5201"
     transform="rotate(-18.287065)" /><ellipse
     cx="934.39203"
     cy="463.23569"
     rx="6.6138129"
     ry="6.4232259"
     style="fill:#ffffff;stroke-width:0.291679"
     id="ellipse5233"
     transform="rotate(-18.287065)" /><ellipse
     cx="968.96265"
     cy="400.07727"
     rx="6.6138129"
     ry="6.4232259"
     style="fill:#ffffff;stroke-width:0.291679"
     id="ellipse5253"
     transform="rotate(-18.287065)" /><ellipse
     cx="952.53851"
     cy="445.64508"
     rx="6.6138129"
     ry="6.4232259"
     style="fill:#ffffff;stroke-width:0.291679"
     id="ellipse5273"
     transform="rotate(-18.287065)" /></g><g
   id="g8117"
   transform="rotate(75,904.12865,123.51984)"><path
     d="m 920.31455,181.16721 c 0,0 -1.41644,15.50425 2.96255,10.03672 1.5748,-1.96622 2.96901,-4.07352 4.30275,-6.20845 1.11675,-1.78742 2.08929,-3.66223 3.03982,-5.54234 2.62614,-5.19469 5.15879,-10.43602 7.68856,-15.67817 5.80726,-12.03382 7.861,-15.97343 12.35095,-28.57602 5.21666,-14.64074 4.41071,-14.85323 9.02173,-29.74016 1.30886,-4.22518 2.80849,-8.388455 4.25605,-12.56781 1.43019,-4.129094 5.54453,-9.565874 2.76869,-13.499051 -12.79375,-18.127933 -87.94423,-41.592725 -69.88467,-17.584565 0.62765,0.834132 -0.48401,4.044152 -0.0496,5.060056 0.88853,2.077853 5.01086,-0.926901 5.65212,-1.052899 1.39392,-0.273993 5.91986,0.26239 7.29387,0.424632 3.16589,0.374003 7.25054,0.446558 9.9106,2.661806 1.076,0.895991 2.05407,1.915985 2.92712,3.006877 2.25417,2.817143 4.72554,6.297537 4.9502,10.053744 0.3399,5.690208 -2.26518,33.96134 -1.86475,39.6431 0.3506,4.97146 1.19599,4.79407 2.05551,9.72219 1.84844,10.59862 1.62435,21.61079 -1.69293,31.8596 -1.89614,5.85828 -7.91177,11.31786 -5.68857,17.98074 z"
     style="fill:#e0e0e0;fill-rule:nonzero;stroke-width:0.326228"
     id="path4949" /><path
     d="m 954.17247,73.884275 c 0,0 5.14468,1.385596 5.45788,2.596569 0.60107,2.324298 -1.20066,7.18384 -2.17935,10.126034 -6.79059,20.413952 -25.18671,79.932052 -32.56064,102.158962 -2.64047,7.95938 -4.081,12.63422 -8.83072,11.52685 -14.55068,-3.39193 -49.76836,-15.34195 -62.31906,-18.65068 -3.41668,-0.90041 1.25485,-9.97121 1.25485,-9.97121 L 889.28549,64.86559 c 1.30535,-5.390468 4.51637,-7.916 10.61675,-6.09857 z"
     style="fill:#323232;fill-rule:nonzero;stroke-width:0.326228"
     id="path4981" /><path
     d="m 929.90182,153.71209 c 1.60322,-2.63836 -3.44083,15.9147 -5.51139,20.27372 -1.82683,3.84545 -1.75016,9.26738 -4.13807,12.7405 -0.87816,1.27751 -2.35467,2.37363 -3.60389,3.3114 -3.09591,2.324 -3.92584,0.82557 -7.56735,0.35262 -2.71716,-0.35304 -15.1198,-4.54146 -16.39308,-5.68805 -0.95765,-0.86223 -0.0436,-3.87685 0.83304,-4.35768 0.82685,-0.45354 17.42822,8.11969 19.94015,5.18784 1.8904,-2.20632 3.06737,-2.94187 4.10186,-5.51478 2.22021,-5.52212 9.24373,-21.21257 12.33873,-26.30557 z"
     style="fill:#606060;fill-rule:nonzero;stroke-width:0.326228"
     id="path5013" /><path
     d="M 934.69961,132.75938 878.81945,115.9025 c -0.52958,-0.15992 -1.08764,0.13355 -1.24541,0.65497 -0.15737,0.5212 0.1448,1.0742 0.67438,1.23412 l 55.88015,16.85688 c 0.52967,0.15961 1.08773,-0.13387 1.2451,-0.65506 0.15778,-0.52142 -0.1444,-1.07442 -0.67406,-1.23403 z"
     style="fill:#ffffff;fill-rule:nonzero;stroke-width:0.326228"
     id="path5045" /><ellipse
     cx="892.50421"
     cy="-173.14154"
     rx="6.6138167"
     ry="6.4232206"
     style="fill:#ffffff;stroke-width:0.291679"
     id="ellipse5069"
     transform="rotate(15.797533)" /><ellipse
     cx="922.8548"
     cy="-173.14108"
     rx="6.6138167"
     ry="6.4232206"
     style="fill:#ffffff;stroke-width:0.291679"
     id="ellipse5101"
     transform="rotate(15.797533)" /><ellipse
     cx="922.85785"
     cy="-111.98407"
     rx="6.6138167"
     ry="6.4232206"
     style="fill:#ffffff;stroke-width:0.291679"
     id="ellipse5133"
     transform="rotate(15.797533)" /><ellipse
     cx="907.50543"
     cy="-157.43892"
     rx="6.6138167"
     ry="6.4232206"
     style="fill:#ffffff;stroke-width:0.291679"
     id="ellipse5157"
     transform="rotate(15.797533)" /><ellipse
     cx="892.50403"
     cy="-141.73639"
     rx="6.6138167"
     ry="6.4232206"
     style="fill:#ffffff;stroke-width:0.291679"
     id="ellipse5197"
     transform="rotate(15.797533)" /><ellipse
     cx="888.28491"
     cy="-76.578537"
     rx="6.6138167"
     ry="6.4232206"
     style="fill:#ffffff;stroke-width:0.291679"
     id="ellipse5229"
     transform="rotate(15.797533)" /><ellipse
     cx="922.85468"
     cy="-141.73593"
     rx="6.6138167"
     ry="6.4232206"
     style="fill:#ffffff;stroke-width:0.291679"
     id="ellipse5249"
     transform="rotate(15.797533)" /><ellipse
     cx="906.04321"
     cy="-95.5783"
     rx="6.6138167"
     ry="6.4232206"
     style="fill:#ffffff;stroke-width:0.291679"
     id="ellipse5269"
     transform="rotate(15.797533)" /></g></svg>
