<?xml version="1.0" encoding="utf-8"?>
<svg viewBox="-0.001 -0.2574 1417.0617 873.4666" xmlns="http://www.w3.org/2000/svg">
  <g transform="matrix(0.7761610150337219, 0, 0, 0.7761610150337219, -294.98095703125, -459.6900634765625)">
    <path d="M581.277,592.256C581.277,592.256 597.479,592.048 599.397,595.385C603.08,601.79 601.832,617.754 601.404,627.325C598.433,693.732 601.899,695.712 598.723,768C597.586,793.886 597.241,808.997 582.426,809.7C537.041,811.855 432.846,806.184 393.382,806.905C382.64,807.101 380.05,775.968 380.05,775.968L383.944,620.024C383.301,602.899 390.607,592.689 409.961,592.961L581.277,592.256Z" style="fill:rgb(50,50,50);"/>
  </g>
  <g transform="matrix(0.7761610150337219, 0, 0, 0.7761610150337219, -294.98095703125, 244.36999511718744)">
    <path d="M581.277,592.256C581.277,592.256 597.479,592.048 599.397,595.385C603.08,601.79 601.832,617.754 601.404,627.325C598.433,693.732 601.899,695.712 598.723,768C597.586,793.886 597.241,808.997 582.426,809.7C537.041,811.855 432.846,806.184 393.382,806.905C382.64,807.101 380.05,775.968 380.05,775.968L383.944,620.024C383.301,602.899 390.607,592.689 409.961,592.961L581.277,592.256Z" style="fill:rgb(50,50,50);"/>
  </g>
  <g transform="matrix(0.7761610150337219, 0, 0, 0.7761610150337219, 342.5460205078125, -459.6900634765625)">
    <path d="M581.277,592.256C581.277,592.256 597.479,592.048 599.397,595.385C603.08,601.79 601.832,617.754 601.404,627.325C598.433,693.732 601.899,695.712 598.723,768C597.586,793.886 597.241,808.997 582.426,809.7C537.041,811.855 432.846,806.184 393.382,806.905C382.64,807.101 380.05,775.968 380.05,775.968L383.944,620.024C383.301,602.899 390.607,592.689 409.961,592.961L581.277,592.256Z" style="paint-order: stroke; fill: rgb(255, 149, 0);"/>
  </g>
  <g transform="matrix(0.7761610150337219, 0, 0, 0.7761610150337219, 342.5460205078125, 244.36999511718744)">
    <path d="M581.277,592.256C581.277,592.256 597.479,592.048 599.397,595.385C603.08,601.79 601.832,617.754 601.404,627.325C598.433,693.732 601.899,695.712 598.723,768C597.586,793.886 597.241,808.997 582.426,809.7C537.041,811.855 432.846,806.184 393.382,806.905C382.64,807.101 380.05,775.968 380.05,775.968L383.944,620.024C383.301,602.899 390.607,592.689 409.961,592.961L581.277,592.256Z" style="fill:rgb(50,50,50);"/>
  </g>
  <g transform="matrix(0.7761610150337219, 0, 0, 0.7761610150337219, 949.8460693359375, -459.6900634765625)">
    <path d="M581.277,592.256C581.277,592.256 597.479,592.048 599.397,595.385C603.08,601.79 601.832,617.754 601.404,627.325C598.433,693.732 601.899,695.712 598.723,768C597.586,793.886 597.241,808.997 582.426,809.7C537.041,811.855 432.846,806.184 393.382,806.905C382.64,807.101 380.05,775.968 380.05,775.968L383.944,620.024C383.301,602.899 390.607,592.689 409.961,592.961L581.277,592.256Z" style="fill: rgb(255, 149, 0);"/>
  </g>
  <g transform="matrix(0.7761610150337219, 0, 0, 0.7761610150337219, 949.8460693359375, 244.36999511718744)">
    <path d="M581.277,592.256C581.277,592.256 597.479,592.048 599.397,595.385C603.08,601.79 601.832,617.754 601.404,627.325C598.433,693.732 601.899,695.712 598.723,768C597.586,793.886 597.241,808.997 582.426,809.7C537.041,811.855 432.846,806.184 393.382,806.905C382.64,807.101 380.05,775.968 380.05,775.968L383.944,620.024C383.301,602.899 390.607,592.689 409.961,592.961L581.277,592.256Z" style="fill:rgb(50,50,50);"/>
  </g>
  <g transform="matrix(0.7136869430541992, 0, 0, 0.6747820377349854, -229.928955078125, -229.260009765625)">
    <ellipse cx="442.199" cy="454.995" rx="21.873" ry="22.829" style="fill:white;"/>
  </g>
  <g transform="matrix(0.7136869430541992, 0, 0, 0.6747820377349854, -268.60296630859375, 435.48986816406244)">
    <ellipse cx="442.199" cy="454.995" rx="21.873" ry="22.829" style="fill:white;"/>
  </g>
  <g transform="matrix(0.7136869430541992, 0, 0, 0.6747820377349854, -187.010986328125, 435.48986816406244)">
    <ellipse cx="442.199" cy="454.995" rx="21.873" ry="22.829" style="fill:white;"/>
  </g>
  <g transform="matrix(0.7136869430541992, 0, 0, 0.6747820377349854, 365.5260009765625, 431.74987792968744)">
    <ellipse cx="442.199" cy="454.995" rx="21.873" ry="22.829" style="fill:white;"/>
  </g>
  <g transform="matrix(0.7136869430541992, 0, 0, 0.6747820377349854, 447.1160888671875, 431.74987792968744)">
    <ellipse cx="442.199" cy="454.995" rx="21.873" ry="22.829" style="fill:white;"/>
  </g>
  <g transform="matrix(0.7136869430541992, 0, 0, 0.6747820377349854, 406.7060546875, 473.42004394531244)">
    <ellipse cx="442.199" cy="454.995" rx="21.873" ry="22.829" style="fill:white;"/>
  </g>
  <g transform="matrix(0.7136869430541992, 0, 0, 0.6747820377349854, 365.5260009765625, 516.6600341796875)">
    <ellipse cx="442.199" cy="454.995" rx="21.873" ry="22.829" style="fill:white;"/>
  </g>
  <g transform="matrix(0.7136869430541992, 0, 0, 0.6747820377349854, 447.1160888671875, 516.6600341796875)">
    <ellipse cx="442.199" cy="454.995" rx="21.873" ry="22.829" style="fill:white;"/>
  </g>
  <g transform="matrix(0.7136869430541992, 0, 0, 0.6747820377349854, -268.60296630859375, 520.4000244140625)">
    <ellipse cx="442.199" cy="454.995" rx="21.873" ry="22.829" style="fill:white;"/>
  </g>
  <g transform="matrix(0.7136869430541992, 0, 0, 0.6747820377349854, -187.010986328125, 520.4000244140625)">
    <ellipse cx="442.199" cy="454.995" rx="21.873" ry="22.829" style="fill:white;"/>
  </g>
  <path d="M964.866,2126.84L975.358,2583.29" style="fill:none;stroke:black;stroke-width:12.8px;" transform="matrix(1, 0, 0, 1, -890.6939697265625, -1927.1700439453125)"/>
  <path d="M1115.25,2019.51L1477.3,2028.13" style="fill:none;stroke:black;stroke-width:12.8px;" transform="matrix(1, 0, 0, 1, -890.6939697265625, -1927.1700439453125)"/>
  <path d="M1623.48,2158.48L1621.83,2595.17" style="fill:none;stroke:black;stroke-width:12.8px;" transform="matrix(1, 0, 0, 1, -890.6939697265625, -1927.1700439453125)"/>
  <path d="M1477.56,2694.33L1109.65,2709.66" style="fill:none;stroke:black;stroke-width:12.8px;" transform="matrix(1, 0, 0, 1, -890.6939697265625, -1927.1700439453125)"/>
  <path d="M1502.23,2596.54L1079.57,2142.88" style="fill:none;stroke:black;stroke-width:12.8px;" transform="matrix(1, 0, 0, 1, -890.6939697265625, -1927.1700439453125)"/>
  <path d="M 1736.423 2703.878 L 2105.828 2713.491" style="fill: none; stroke: black; stroke-width: 12.8px; transform-origin: 1921.13px 2708.68px;" transform="matrix(1, 0, 0, 1, -890.693969726543, -1927.170043945343)"/>
  <path d="M 1740.122 2021.651 L 2109.523 2019.825" style="fill: none; stroke-width: 12.8px; stroke: rgb(252, 165, 3); transform-origin: 1924.82px 2020.74px;" transform="matrix(1, 0, 0, 1, -890.693969726652, -1927.170043945311)"/>
  <path d="M2218.01,2142.44L2211.2,2598.4" style="fill:none;stroke:black;stroke-width:12.8px;" transform="matrix(1, 0, 0, 1, -890.6939697265625, -1927.1700439453125)"/>
  <g transform="matrix(0.7136869430541992, 0, 0, 0.6747820377349854, 1051.5059814453123, 433.00988769531244)">
    <ellipse cx="442.199" cy="454.995" rx="21.873" ry="22.829" style="fill:white;"/>
  </g>
  <g transform="matrix(0.7136869430541992, 0, 0, 0.6747820377349854, 451.3060302734375, -264.9400634765625)">
    <ellipse cx="442.199" cy="454.995" rx="21.873" ry="22.829" style="fill:white;"/>
  </g>
  <g transform="matrix(0.713686943054, 0, 0, 0.67478209734, 884.161018904477, 328.581221201024)" style="transform-origin: 462.461px 451.658px;">
    <ellipse cx="442.199" cy="454.995" rx="21.873" ry="22.829" style="fill:white;"/>
  </g>
  <g transform="matrix(0.7136869430541992, 0, 0, 0.6747820377349854, 979.8759765625, 517.9200439453125)">
    <ellipse cx="442.199" cy="454.995" rx="21.873" ry="22.829" style="fill:white;"/>
  </g>
  <g transform="matrix(0.7136869430541992, 0, 0, 0.6747820377349854, 369.716064453125, -180.03002929687503)">
    <ellipse cx="442.199" cy="454.995" rx="21.873" ry="22.829" style="fill:white;"/>
  </g>
  <g transform="matrix(0.7136869430541992, 0, 0, 0.6747820377349854, 1057.7559814453123, -262.60009765625)">
    <ellipse cx="442.199" cy="454.995" rx="21.873" ry="22.829" style="fill:white;"/>
  </g>
  <g transform="matrix(0.7136869430541992, 0, 0, 0.6747820377349854, 976.76513671875, -220.45556640625003)">
    <ellipse cx="442.199" cy="454.995" rx="21.873" ry="22.829" style="fill:white;"/>
  </g>
  <g transform="matrix(0.7136869430541992, 0, 0, 0.6747820377349854, 976.166015625, -177.69006347656253)">
    <ellipse cx="442.199" cy="454.995" rx="21.873" ry="22.829" style="fill:white;"/>
  </g>
  <g transform="matrix(0.7136869430541992, 0, 0, 0.6747820377349854, 1057.2440185546873, -221.12854003906253)">
    <ellipse cx="442.199" cy="454.995" rx="21.873" ry="22.829" style="fill:white;"/>
  </g>
  <g transform="matrix(0.7136869430541992, 0, 0, 0.6747820377349854, 1058.4124755859373, -178.29809570312503)">
    <ellipse cx="442.199" cy="454.995" rx="21.873" ry="22.829" style="fill:white;"/>
  </g>
  <g transform="matrix(0.7136869430541992, 0, 0, 0.6747820377349854, 976.770263671875, -261.9610595703125)">
    <ellipse cx="442.199" cy="454.995" rx="21.873" ry="22.829" style="fill:white;"/>
  </g>
  <g transform="matrix(0.33627504110336304, 0, 0, 0.3334619998931885, 910.888427734375, -197.71582031250003)" style="">
    <path d="M581.277,592.256C581.277,592.256 597.479,592.048 599.397,595.385C603.08,601.79 601.832,617.754 601.404,627.325C598.433,693.732 601.899,695.712 598.723,768C597.586,793.886 597.241,808.997 582.426,809.7C537.041,811.855 432.846,806.184 393.382,806.905C382.64,807.101 380.05,775.968 380.05,775.968L383.944,620.024C383.301,602.899 390.607,592.689 409.961,592.961L581.277,592.256Z" style="fill: rgb(253, 165, 4);"/>
  </g>
  <g transform="matrix(0.3092080056667328, 0, 0, 0.2899070084095001, 957.640869140625, -113.03991699218753)" style="">
    <ellipse cx="442.199" cy="454.995" rx="21.873" ry="22.829" style="fill:white;"/>
  </g>
  <g transform="matrix(0.3092080056667328, 0, 0, 0.2899070084095001, 922.55126953125, -94.93334960937503)" style="">
    <ellipse cx="442.199" cy="454.995" rx="21.873" ry="22.829" style="fill:white;"/>
  </g>
  <g transform="matrix(0.3092080056667328, 0, 0, 0.2899070084095001, 922.2916259765625, -76.56005859375003)" style="">
    <ellipse cx="442.199" cy="454.995" rx="21.873" ry="22.829" style="fill:white;"/>
  </g>
  <g transform="matrix(0.3092080056667328, 0, 0, 0.2899070084095001, 957.4190673828125, -95.22253417968753)" style="">
    <ellipse cx="442.199" cy="454.995" rx="21.873" ry="22.829" style="fill:white;"/>
  </g>
  <g transform="matrix(0.3092080056667328, 0, 0, 0.2899070084095001, 957.92529296875, -76.82128906250003)" style="">
    <ellipse cx="442.199" cy="454.995" rx="21.873" ry="22.829" style="fill:white;"/>
  </g>
  <g transform="matrix(0.3092080056667328, 0, 0, 0.2899070084095001, 922.553466796875, -112.76538085937503)" style="">
    <ellipse cx="442.199" cy="454.995" rx="21.873" ry="22.829" style="fill:white;"/>
  </g>
  <g transform="matrix(0.29829901456832886, 0, 0, 0.329365998506546, 867.2838134765625, -195.32556152343753)" style="">
    <path d="M581.277,592.256C581.277,592.256 597.479,592.048 599.397,595.385C603.08,601.79 601.832,617.754 601.404,627.325C598.433,693.732 601.899,695.712 598.723,768C597.586,793.886 597.241,808.997 582.426,809.7C537.041,811.855 432.846,806.184 393.382,806.905C382.64,807.101 380.05,775.968 380.05,775.968L383.944,620.024C383.301,602.899 390.607,592.689 409.961,592.961L581.277,592.256Z" style="fill: rgb(253, 165, 4);"/>
  </g>
  <g transform="matrix(0.2587449848651886, 0, 0, 0.2863450050354004, 908.064208984375, -108.91906738281253)" style="">
    <ellipse cx="442.199" cy="454.995" rx="21.873" ry="22.829" style="fill:white;"/>
  </g>
  <g transform="matrix(0.2587449848651886, 0, 0, 0.2863450050354004, 888.4814453125, -80.15673828125003)" style="">
    <ellipse cx="442.199" cy="454.995" rx="21.873" ry="22.829" style="fill:white;"/>
  </g>
  <path d="M 1932.965 1933.778 L 1932.631 1991.974" style="fill: none; stroke-width: 2px; stroke: rgb(251, 251, 251); transform-origin: 1932.8px 1962.88px;" transform="matrix(-1, 0, 0, -1, -890.694091794988, -1927.170043945453)"/>
</svg>