<?xml version="1.0" encoding="utf-8"?>
<svg viewBox="627.2184 175.3525 83.4749 140.4621" xmlns="http://www.w3.org/2000/svg">
  <g transform="matrix(0.3288423717021942, 0, 0, 0.3236343264579773, 500.6034240722656, 30.762569427490234)">
    <path d="M606.295,517.181C606.295,517.181 620.44,471.272 626.343,492.069C628.466,499.548 629.917,507.215 631.166,514.889C632.212,521.314 632.751,527.817 633.222,534.309C634.523,552.246 635.507,570.205 636.482,588.163C638.72,629.387 639.881,643.064 637.756,684.346C635.289,732.305 632.778,731.954 628.323,779.896C627.059,793.503 626.403,807.16 625.582,820.801C624.771,834.278 629.967,854.673 617.577,862.596C560.472,899.113 322.07,876.798 400.831,829.761C403.568,828.127 404.199,817.65 406.606,815.268C411.529,810.396 419.59,823.863 421.243,824.984C424.836,827.421 438.169,831.266 442.216,832.435C451.541,835.128 463.093,839.772 473.15,836.612C477.218,835.334 481.156,833.586 484.882,831.511C494.503,826.152 505.509,819.159 510.53,808.711C518.135,792.883 543.865,709.144 551.63,693.412C558.425,679.647 560.591,681.157 568.764,668.12C586.341,640.082 598.583,608.403 601.249,575.228C602.773,556.265 592.266,533.547 606.295,517.181Z" style="fill:rgb(224,224,224);"/>
  </g>
  <g transform="matrix(0.3288423717021942, 0, 0, 0.3236343264579773, 505.06390380859375, 45.31641769409181)">
    <path d="M589.299,401.802C589.299,401.802 605.5,401.594 607.419,404.931C611.102,411.336 609.853,427.3 609.425,436.871C606.455,503.278 601.899,695.712 598.723,768C597.586,793.886 597.241,808.997 582.426,809.7C537.041,811.855 424.097,805.95 384.633,806.67C373.89,806.867 380.05,775.968 380.05,775.968L391.966,429.57C391.323,412.445 398.628,402.235 417.983,402.507L589.299,401.802Z" style="fill:rgb(50,50,50);"/>
  </g>
  <g transform="matrix(0.3288423717021942, 0, 0, 0.3236343264579773, 506.89630126953125, 45.216762542724624)">
    <path d="M578.789,659.87C581.296,650.677 581.896,710.082 579.446,724.784C577.284,737.754 581.997,753.81 577.885,766.145C576.373,770.682 572.96,775.183 570.081,779.022C562.946,788.536 559.277,784.779 548.23,786.436C539.987,787.672 500.228,785.652 495.553,783.314C492.037,781.556 492.216,771.824 494.383,769.657C496.427,767.613 552.102,779.138 557.025,768.308C560.73,760.158 563.565,756.981 564.462,748.461C566.387,730.175 573.949,677.616 578.789,659.87Z" style="fill:rgb(96,96,96);"/>
  </g>
  <g transform="matrix(0.3288423717021942, 0, 0, 0.3236343264579773, 505.06390380859375, 45.31641769409181)">
    <path d="M581.06,593.23L403.593,590.117C401.911,590.087 400.521,591.429 400.491,593.112C400.462,594.794 401.804,596.184 403.486,596.214L580.953,599.327C582.635,599.356 584.025,598.014 584.054,596.332C584.084,594.649 582.742,593.259 581.06,593.23Z" style="fill:white;"/>
  </g>
  <g transform="matrix(0.302373468875885, 0, 0, 0.28136247396469116, 519.3990478515625, 60.86264801025392)">
    <ellipse cx="442.199" cy="454.995" rx="21.873" ry="22.829" style="fill:white;"/>
  </g>
  <g transform="matrix(0.302373468875885, 0, 0, 0.28136247396469116, 549.7471313476562, 60.86264801025392)">
    <ellipse cx="442.199" cy="454.995" rx="21.873" ry="22.829" style="fill:white;"/>
  </g>
  <g transform="matrix(0.302373468875885, 0, 0, 0.28136247396469116, 549.7471313476562, 124.02037048339844)">
    <ellipse cx="442.199" cy="454.995" rx="21.873" ry="22.829" style="fill:white;"/>
  </g>
  <g transform="matrix(0.302373468875885, 0, 0, 0.28136247396469116, 519.3990478515625, 78.56543731689455)">
    <ellipse cx="442.199" cy="454.995" rx="21.873" ry="22.829" style="fill:white;"/>
  </g>
  <g transform="matrix(0.302373468875885, 0, 0, 0.28136247396469116, 549.7471313476562, 78.56543731689455)">
    <ellipse cx="442.199" cy="454.995" rx="21.873" ry="22.829" style="fill:white;"/>
  </g>
  <g transform="matrix(0.302373468875885, 0, 0, 0.28136247396469116, 519.3990478515625, 96.26824188232423)">
    <ellipse cx="442.199" cy="454.995" rx="21.873" ry="22.829" style="fill:white;"/>
  </g>
  <g transform="matrix(0.302373468875885, 0, 0, 0.28136247396469116, 515.17919921875, 159.42596435546875)">
    <ellipse cx="442.199" cy="454.995" rx="21.873" ry="22.829" style="fill:white;"/>
  </g>
  <g transform="matrix(0.302373468875885, 0, 0, 0.28136247396469116, 549.7471313476562, 96.26824188232423)">
    <ellipse cx="442.199" cy="454.995" rx="21.873" ry="22.829" style="fill:white;"/>
  </g>
</svg>