<?xml version="1.0" encoding="utf-8"?>
<svg viewBox="-0.001 704.054 172.2347 169.1552" xmlns="http://www.w3.org/2000/svg">
  <g transform="matrix(0.776161015033722, 0, 0, 0.776161015033722, -294.98095703125006, 244.3699951171875)">
    <path d="M581.277,592.256C581.277,592.256 597.479,592.048 599.397,595.385C603.08,601.79 601.832,617.754 601.404,627.325C598.433,693.732 601.899,695.712 598.723,768C597.586,793.886 597.241,808.997 582.426,809.7C537.041,811.855 432.846,806.184 393.382,806.905C382.64,807.101 380.05,775.968 380.05,775.968L383.944,620.024C383.301,602.899 390.607,592.689 409.961,592.961L581.277,592.256Z" style="fill:rgb(50,50,50);"/>
  </g>
  <g transform="matrix(0.7136869430541993, 0, 0, 0.674782156944275, -268.60296630859375, 435.4898681640625)">
    <ellipse cx="442.199" cy="454.995" rx="21.873" ry="22.829" style="fill:white;"/>
  </g>
  <g transform="matrix(0.7136869430541993, 0, 0, 0.674782156944275, -187.01098632812503, 435.4898681640625)">
    <ellipse cx="442.199" cy="454.995" rx="21.873" ry="22.829" style="fill:white;"/>
  </g>
  <g transform="matrix(0.7136869430541993, 0, 0, 0.674782156944275, -268.60296630859375, 520.4000244140625)">
    <ellipse cx="442.199" cy="454.995" rx="21.873" ry="22.829" style="fill:white;"/>
  </g>
  <g transform="matrix(0.7136869430541993, 0, 0, 0.674782156944275, -187.01098632812503, 520.4000244140625)">
    <ellipse cx="442.199" cy="454.995" rx="21.873" ry="22.829" style="fill:white;"/>
  </g>
</svg>