<?xml version="1.0" encoding="UTF-8" standalone="no"?>
<svg
   width="1134.7955"
   height="142.57916"
   viewBox="0 0 1134.7956 142.57916"
   version="1.1"
   xml:space="preserve"
   style="clip-rule:evenodd;fill-rule:evenodd;stroke-linejoin:round;stroke-miterlimit:2"
   id="svg5281"
   sodipodi:docname="2023-DE-09_domino_explanation_spare2.svg"
   inkscape:version="1.1.1 (3bf5ae0d25, 2021-09-20)"
   xmlns:inkscape="http://www.inkscape.org/namespaces/inkscape"
   xmlns:sodipodi="http://sodipodi.sourceforge.net/DTD/sodipodi-0.dtd"
   xmlns="http://www.w3.org/2000/svg"
   xmlns:svg="http://www.w3.org/2000/svg"><defs
   id="defs5285">
        
    
            
            
            
            
            
            
            
            
            
            
            
            
            
            
            
            
            
            
            
            
            
            
            
            
            
            
            
            
            
            
            
            
            
            
            
            
            
            
            
            
            
            
            
            
            
            
            
            
            
            
            
            
            
            
            
            
            
            
            
            
            
            
            
            
            
            
            
            
            
            
            
            
            
            
            
            
            
            
            
            
            
            
            
            
            
            
            
        
                
            
                
            
                
            
                
            
                
            
                
            
                
            
                
            
                
            
                
            
                
            
                
            
                
            
                
            
                
            
                
            
                
            
                
            
                
            
                
            
                
            
                
            
                
            
                
            
                
            
                
            
                
            
                
            
                
            
                
            
                
            
                
            
                
            
                
            
                
            
                
            
                
            
                
            
                
            
                
            
                
            
                
            
                
            
                
            
                
            
                
            
                
            
                
            
                
            
                
            
                
            
                
            
                
            
                
            
                
            
                
            
                
            
                
            
                
            
                
            
                
            
                
            
                
            
                
            
                
            
                
            
                
            
                
            
                
            
                
            
                
            
                
            
                
            
                
            
                
            
                
            
                
            
                
            
                
            
                
            
                
            
                
            
                
            
                
            
                
            
                
            
                
            </defs><sodipodi:namedview
   id="namedview5283"
   pagecolor="#ffffff"
   bordercolor="#666666"
   borderopacity="1.0"
   inkscape:pageshadow="2"
   inkscape:pageopacity="0.0"
   inkscape:pagecheckerboard="0"
   showgrid="false"
   inkscape:zoom="0.54698006"
   inkscape:cx="494.53357"
   inkscape:cy="103.29444"
   inkscape:window-width="2048"
   inkscape:window-height="1017"
   inkscape:window-x="-8"
   inkscape:window-y="-8"
   inkscape:window-maximized="1"
   inkscape:current-layer="svg5281" />
    <g
   id="g1952"
   transform="rotate(106.6295,228.30807,219.8978)"><path
     d="m 107.6893,139.9519 c 0,0 8.03674,13.33415 8.32927,6.3353 0.10525,-2.51693 -0.0186,-5.04066 -0.20752,-7.55087 -0.15809,-2.10167 -0.48413,-4.1884 -0.83106,-6.26637 -0.95865,-5.74129 -2.02027,-11.46482 -3.08468,-17.18734 C 109.4518,102.14615 108.77481,97.755247 104.9329,84.940207 100.47015,70.05232 99.694792,70.358173 94.598192,55.630398 93.151788,51.450299 91.895815,47.207136 90.588356,42.981858 89.296653,38.807368 89.394103,31.989964 84.828512,30.463286 63.785906,23.426827 -10.672395,49.003462 18.095207,57.661809 c 0.99965,0.300703 2.003991,3.545912 2.955517,4.1075 1.946158,1.14866 3.489773,-3.713391 3.932008,-4.194558 0.96122,-1.046002 4.926451,-3.292977 6.129841,-3.975671 2.77295,-1.572738 6.107909,-3.932345 9.563197,-3.72166 1.397622,0.08515 2.78972,0.328198 4.139138,0.69057 3.484456,0.936043 7.536605,2.278044 9.9413,5.17236 3.642475,4.384797 18.279053,28.712077 21.965289,33.054227 3.225623,3.79919 3.801956,3.15577 7.412064,6.61877 7.763992,7.447703 14.102451,16.455603 17.496089,26.679383 1.93982,5.84402 0.32352,13.80533 6.05965,17.85917 z"
     style="fill:#e0e0e0;fill-rule:nonzero;stroke-width:0.326228"
     id="path4933" /><path
     d="m 74.02044,32.222386 c 0,0 4.99745,-1.847464 5.953712,-1.041165 1.835343,1.547635 3.178426,6.553388 4.083061,9.519191 6.276565,20.577837 25.719837,79.762208 32.569927,102.156138 2.45308,8.01913 3.98383,12.66521 -0.53052,14.511 -13.82931,5.65491 -49.465739,16.29143 -61.615902,20.85672 -3.307443,1.24308 -4.747394,-8.85788 -4.747394,-8.85788 L 15.884795,62.420288 C 13.829641,57.268834 14.98664,53.350881 21.013398,51.302479 Z"
     style="fill:#323232;fill-rule:nonzero;stroke-width:0.326228"
     id="path4965" /><path
     d="m 100.42406,111.36987 c -0.21948,-3.07947 6.40443,14.96999 7.23861,19.72315 0.73571,4.19327 3.93613,8.57055 3.9988,12.78491 0.0232,1.55006 -0.54655,3.29847 -1.02258,4.7862 -1.17975,3.68699 -2.72378,2.94532 -5.9672,4.6671 -2.42019,1.28463 -14.958712,5.04684 -16.660673,4.84868 -1.27998,-0.14893 -2.279218,-3.13641 -1.842606,-4.03586 0.41183,-0.8484 18.912129,-3.46472 19.263859,-7.30944 0.26477,-2.89333 0.7989,-4.17434 0.15349,-6.87128 -1.38526,-5.78829 -4.73819,-22.64885 -5.1617,-28.59346 z"
     style="fill:#606060;fill-rule:nonzero;stroke-width:0.326228"
     id="path4997" /><path
     d="M 92.213483,91.505537 36.886737,110.09868 c -0.524431,0.17607 -0.809693,0.73838 -0.636594,1.25491 0.1733,0.51612 0.739769,0.79222 1.2642,0.61615 L 92.841089,93.376595 c 0.524322,-0.17637 0.809585,-0.73868 0.636284,-1.2548 -0.173099,-0.516534 -0.739567,-0.792635 -1.26389,-0.616258 z"
     style="fill:#ffffff;fill-rule:nonzero;stroke-width:0.326228"
     id="path5029" /><ellipse
     cx="13.212617"
     cy="71.676552"
     rx="6.6138124"
     ry="6.4232283"
     style="fill:#ffffff;stroke-width:0.291679"
     id="ellipse5057"
     transform="rotate(-19.56453)" /><ellipse
     cx="8.9928637"
     cy="131.83452"
     rx="6.6138124"
     ry="6.4232283"
     style="fill:#ffffff;stroke-width:0.291679"
     id="ellipse5085"
     transform="rotate(-19.56453)" /><ellipse
     cx="43.561352"
     cy="71.676628"
     rx="6.6138124"
     ry="6.4232283"
     style="fill:#ffffff;stroke-width:0.291679"
     id="ellipse5089"
     transform="rotate(-19.56453)" /><ellipse
     cx="43.561592"
     cy="131.83418"
     rx="6.6138124"
     ry="6.4232283"
     style="fill:#ffffff;stroke-width:0.291679"
     id="ellipse5117"
     transform="rotate(-19.56453)" /><ellipse
     cx="29.561462"
     cy="86.379524"
     rx="6.6138124"
     ry="6.4232283"
     style="fill:#ffffff;stroke-width:0.291679"
     id="ellipse5173"
     transform="rotate(-19.56453)" /><ellipse
     cx="13.212472"
     cy="101.08173"
     rx="6.6138124"
     ry="6.4232283"
     style="fill:#ffffff;stroke-width:0.291679"
     id="ellipse5185"
     transform="rotate(-19.56453)" /><ellipse
     cx="8.9927139"
     cy="167.23933"
     rx="6.6138124"
     ry="6.4232283"
     style="fill:#ffffff;stroke-width:0.291679"
     id="ellipse5213"
     transform="rotate(-19.56453)" /><ellipse
     cx="43.561516"
     cy="101.08191"
     rx="6.6138124"
     ry="6.4232283"
     style="fill:#ffffff;stroke-width:0.291679"
     id="ellipse5237"
     transform="rotate(-19.56453)" /><ellipse
     cx="43.561543"
     cy="167.23949"
     rx="6.6138124"
     ry="6.4232283"
     style="fill:#ffffff;stroke-width:0.291679"
     id="ellipse5265"
     transform="rotate(-19.56453)" /></g><g
   id="g2176"
   transform="rotate(-107.56201,705.4757,250.81107)"><path
     d="m 888.87952,70.060839 c 0,0 0.52783,-15.55986 -3.53145,-9.850956 -1.45983,2.05303 -2.73129,4.23658 -3.94081,6.444257 -1.01275,1.848341 -1.87653,3.77568 -2.71803,5.707051 -2.32489,5.336328 -4.55379,10.713854 -6.77977,16.092054 -5.10986,12.346095 -6.93503,16.396655 -10.69722,29.235315 -4.37122,14.915 -3.55443,15.08107 -7.30691,30.20725 -1.0652,4.29309 -2.32439,8.53528 -3.53067,12.79055 -1.19183,4.20409 -4.98865,9.86717 -1.99251,13.63524 13.8091,17.36695 90.17802,36.49748 70.77559,13.56093 -0.6743,-0.79689 0.25205,-4.06521 -0.23974,-5.05462 -1.00584,-2.02366 -4.94967,1.21183 -5.58268,1.37428 -1.37597,0.35322 -5.92518,0.0764 -7.30622,-0.007 -3.18208,-0.19242 -7.26421,-0.0314 -10.04655,-2.09092 -1.12546,-0.83302 -2.16024,-1.79544 -3.09421,-2.83464 -2.41153,-2.68368 -5.07781,-6.01711 -5.51683,-9.75433 -0.66462,-5.66147 0.32012,-34.03529 -0.40444,-39.68487 -0.63422,-4.94329 -1.46809,-4.71787 -2.60792,-9.5888 -2.45127,-10.47564 -2.85705,-21.4826 -0.13104,-31.904276 1.55814,-5.957089 7.25185,-11.751604 4.65141,-18.276523 z"
     style="fill:#e0e0e0;fill-rule:nonzero;stroke-width:0.326228"
     id="path4949" /><path
     d="m 954.17247,65.91396 c 0,0 5.14468,1.385596 5.45788,2.596569 0.60107,2.324298 -1.20066,7.18384 -2.17935,10.126034 -6.79059,20.413952 -25.18671,79.932057 -32.56064,102.158967 -2.64047,7.95938 -4.081,12.63422 -8.83072,11.52685 -14.55068,-3.39193 -49.76836,-15.34195 -62.31906,-18.65068 -3.41668,-0.90041 1.25485,-9.97121 1.25485,-9.97121 L 889.28549,56.895275 c 1.30535,-5.390468 4.51637,-7.916 10.61675,-6.09857 z"
     style="fill:#323232;fill-rule:nonzero;stroke-width:0.326228"
     id="path4981" /><path
     d="m 929.90182,145.74178 c 1.60322,-2.63836 -3.44083,15.9147 -5.51139,20.27372 -1.82683,3.84545 -1.75016,9.26738 -4.13807,12.7405 -0.87816,1.27751 -2.35467,2.37363 -3.60389,3.3114 -3.09591,2.324 -3.92584,0.82557 -7.56735,0.35262 -2.71716,-0.35304 -15.1198,-4.54146 -16.39308,-5.68805 -0.95765,-0.86223 -0.0436,-3.87685 0.83304,-4.35768 0.82685,-0.45354 17.42822,8.11969 19.94015,5.18784 1.8904,-2.20632 3.06737,-2.94187 4.10186,-5.51478 2.22021,-5.52212 9.24373,-21.21257 12.33873,-26.30557 z"
     style="fill:#606060;fill-rule:nonzero;stroke-width:0.326228"
     id="path5013" /><path
     d="m 934.69961,124.78907 -55.88016,-16.85688 c -0.52958,-0.15992 -1.08764,0.13355 -1.24541,0.65497 -0.15737,0.5212 0.1448,1.0742 0.67438,1.23412 l 55.88015,16.85688 c 0.52967,0.15961 1.08773,-0.13387 1.2451,-0.65506 0.15778,-0.52142 -0.1444,-1.07442 -0.67406,-1.23403 z"
     style="fill:#ffffff;fill-rule:nonzero;stroke-width:0.326228"
     id="path5045" /><ellipse
     cx="890.33441"
     cy="-180.81082"
     rx="6.6138167"
     ry="6.4232206"
     style="fill:#ffffff;stroke-width:0.291679"
     id="ellipse5069"
     transform="rotate(15.797533)" /><ellipse
     cx="920.685"
     cy="-180.81036"
     rx="6.6138167"
     ry="6.4232206"
     style="fill:#ffffff;stroke-width:0.291679"
     id="ellipse5101"
     transform="rotate(15.797533)" /><ellipse
     cx="920.68805"
     cy="-119.65334"
     rx="6.6138167"
     ry="6.4232206"
     style="fill:#ffffff;stroke-width:0.291679"
     id="ellipse5133"
     transform="rotate(15.797533)" /><ellipse
     cx="905.33563"
     cy="-165.1082"
     rx="6.6138167"
     ry="6.4232206"
     style="fill:#ffffff;stroke-width:0.291679"
     id="ellipse5157"
     transform="rotate(15.797533)" /><ellipse
     cx="890.33423"
     cy="-149.40567"
     rx="6.6138167"
     ry="6.4232206"
     style="fill:#ffffff;stroke-width:0.291679"
     id="ellipse5197"
     transform="rotate(15.797533)" /><ellipse
     cx="886.11511"
     cy="-84.24781"
     rx="6.6138167"
     ry="6.4232206"
     style="fill:#ffffff;stroke-width:0.291679"
     id="ellipse5229"
     transform="rotate(15.797533)" /><ellipse
     cx="920.68488"
     cy="-149.40521"
     rx="6.6138167"
     ry="6.4232206"
     style="fill:#ffffff;stroke-width:0.291679"
     id="ellipse5249"
     transform="rotate(15.797533)" /><ellipse
     cx="903.87341"
     cy="-103.24757"
     rx="6.6138167"
     ry="6.4232206"
     style="fill:#ffffff;stroke-width:0.291679"
     id="ellipse5269"
     transform="rotate(15.797533)" /></g><g
   id="g2162"
   transform="rotate(105.15671,843.18787,-52.056698)"><path
     d="m 1078.4232,128.05713 c 0,0 7.6452,13.56246 8.1413,6.57512 0.1785,-2.51282 0.1281,-5.03906 0.012,-7.55372 -0.097,-2.1054 -0.362,-4.2007 -0.6483,-6.28788 -0.7911,-5.76681 -1.6857,-11.51878 -2.583,-17.26988 -2.0601,-13.20199 -2.609,-17.61074 -6.0762,-30.532197 -4.0275,-15.011475 -4.8114,-14.728302 -9.4771,-29.598211 -1.3241,-4.22042 -2.4561,-8.498328 -3.64,-12.75988 -1.1696,-4.210339 -0.8738,-11.021977 -5.393,-12.68092 -20.8287,-7.64609 -96.00002,15.752104 -67.4967,25.24425 0.99043,0.32971 1.89988,3.602764 2.83469,4.191791 1.91191,1.204818 3.59637,-3.610181 4.05247,-4.078293 0.9912,-1.017558 5.02014,-3.148179 6.24294,-3.795478 2.8176,-1.491366 6.2198,-3.752846 9.6675,-3.441722 1.3946,0.125793 2.779,0.409302 4.1173,0.810793 3.4557,1.037086 7.4671,2.496484 9.7865,5.459546 3.5133,4.488985 17.4355,29.231996 20.9938,33.679647 3.1136,3.891471 3.7084,3.265121 7.2162,6.831735 7.5439,7.670559 13.6174,16.859149 16.712,27.177359 1.7688,5.898 -0.079,13.80884 5.5372,18.02794 z"
     style="fill:#e0e0e0;fill-rule:nonzero;stroke-width:0.326228"
     id="path4953" /><path
     d="m 1044.8218,16.570295 c 0,0 5.0374,-1.735596 5.9754,-0.90818 1.8004,1.588164 3.0316,6.622611 3.8699,9.607842 5.8162,20.712634 23.9352,80.315703 30.2843,102.856773 2.2737,8.07181 3.7005,12.75087 -0.8539,14.49556 -13.9519,5.3452 -49.8166,15.18464 -62.0655,19.47793 -3.3343,1.16904 -4.5487,-8.96151 -4.5487,-8.96151 L 986.02748,45.464669 c -1.9398,-5.195987 -0.69574,-9.087171 5.37518,-11.000709 z"
     style="fill:#323232;fill-rule:nonzero;stroke-width:0.326228"
     id="path4985" /><path
     d="m 1069.4585,96.286295 c -0.1508,-3.0836 6.0691,15.109035 6.7971,19.879615 0.642,4.20862 3.7441,8.65616 3.7128,12.87087 -0.011,1.55019 -0.62,3.28546 -1.1291,4.76221 -1.2616,3.65977 -2.7887,2.88387 -6.0697,4.53292 -2.4482,1.23035 -15.0675,4.71211 -16.7646,4.47605 -1.2764,-0.17742 -2.2088,-3.18644 -1.7522,-4.07593 0.4306,-0.83901 18.9847,-3.04225 19.422,-6.87817 0.3292,-2.88671 0.8918,-4.15549 0.3067,-6.86615 -1.2559,-5.81773 -4.2321,-22.74884 -4.523,-28.701415 z"
     style="fill:#606060;fill-rule:nonzero;stroke-width:0.326228"
     id="path5017" /><path
     d="m 1061.6887,76.244254 -55.7274,17.355111 c -0.5283,0.16434 -0.826,0.72015 -0.6645,1.24041 0.1618,0.51986 0.722,0.80852 1.2502,0.64418 l 55.7274,-17.355116 c 0.5281,-0.164644 0.8259,-0.720452 0.6641,-1.240305 -0.1615,-0.520264 -0.7217,-0.808924 -1.2498,-0.64428 z"
     style="fill:#ffffff;fill-rule:nonzero;stroke-width:0.326228"
     id="path5049" /><ellipse
     cx="941.11273"
     cy="357.10431"
     rx="6.6138129"
     ry="6.4232259"
     style="fill:#ffffff;stroke-width:0.291679"
     id="ellipse5073"
     transform="rotate(-18.287065)" /><ellipse
     cx="971.46429"
     cy="357.10397"
     rx="6.6138129"
     ry="6.4232259"
     style="fill:#ffffff;stroke-width:0.291679"
     id="ellipse5105"
     transform="rotate(-18.287065)" /><ellipse
     cx="971.46216"
     cy="420.26135"
     rx="6.6138129"
     ry="6.4232259"
     style="fill:#ffffff;stroke-width:0.291679"
     id="ellipse5137"
     transform="rotate(-18.287065)" /><ellipse
     cx="941.11237"
     cy="374.80707"
     rx="6.6138129"
     ry="6.4232259"
     style="fill:#ffffff;stroke-width:0.291679"
     id="ellipse5161"
     transform="rotate(-18.287065)" /><ellipse
     cx="971.46393"
     cy="374.80673"
     rx="6.6138129"
     ry="6.4232259"
     style="fill:#ffffff;stroke-width:0.291679"
     id="ellipse5181"
     transform="rotate(-18.287065)" /><ellipse
     cx="941.11206"
     cy="392.50983"
     rx="6.6138129"
     ry="6.4232259"
     style="fill:#ffffff;stroke-width:0.291679"
     id="ellipse5201"
     transform="rotate(-18.287065)" /><ellipse
     cx="936.89294"
     cy="455.66791"
     rx="6.6138129"
     ry="6.4232259"
     style="fill:#ffffff;stroke-width:0.291679"
     id="ellipse5233"
     transform="rotate(-18.287065)" /><ellipse
     cx="971.46356"
     cy="392.50949"
     rx="6.6138129"
     ry="6.4232259"
     style="fill:#ffffff;stroke-width:0.291679"
     id="ellipse5253"
     transform="rotate(-18.287065)" /><ellipse
     cx="955.03943"
     cy="438.0773"
     rx="6.6138129"
     ry="6.4232259"
     style="fill:#ffffff;stroke-width:0.291679"
     id="ellipse5273"
     transform="rotate(-18.287065)" /></g><g
   id="g2147"
   transform="rotate(-84.443507,786.37175,70.385276)"><path
     d="m 727.50367,34.930211 c 0,0 -5.20799,-14.671902 -6.89418,-7.872922 -0.60644,2.445046 -0.98974,4.942566 -1.30661,7.439847 -0.26538,2.090835 -0.36319,4.200608 -0.4388,6.30599 -0.20881,5.817032 -0.31315,11.637238 -0.41456,17.457021 -0.23275,13.35975 -0.44749,17.797338 0.75421,31.121787 1.3955,15.479586 2.21634,15.334966 4.2649,30.784436 0.58129,4.3849 0.9634,8.7935 1.39953,13.19489 0.43083,4.34847 -1.02791,11.00868 3.14016,13.4175 19.21048,11.10221 97.27938,0.93156 70.82425,-13.30454 -0.91934,-0.49453 -1.25444,-3.87501 -2.07446,-4.61555 -1.67713,-1.51462 -4.16185,2.94054 -4.69136,3.32356 -1.15097,0.83265 -5.48542,2.24135 -6.80106,2.66955 -3.03143,0.98647 -6.77088,2.63149 -10.11424,1.73414 -1.35237,-0.3629 -2.66775,-0.87942 -3.91745,-1.50432 -3.22689,-1.61392 -6.92882,-3.73911 -8.70618,-7.05583 -2.69208,-5.02462 -12.16831,-31.78739 -14.91178,-36.778981 -2.40074,-4.36747 -3.09411,-3.852292 -5.93879,-7.96725 -6.11785,-8.849829 -10.52698,-18.943276 -11.80759,-29.639185 -0.73205,-6.113843 2.44361,-13.591121 -2.36599,-18.710143 z"
     style="fill:#e0e0e0;fill-rule:nonzero;stroke-width:0.326228"
     id="path4945" /><path
     d="m 783.17046,7.6465002 c 0,0 5.25218,-0.895654 6.04362,0.07294 1.51898,1.859124 1.91735,7.0265878 2.2604,10.1082518 2.38009,21.381698 10.59285,83.134218 13.20224,106.406568 0.93451,8.3337 1.58357,13.1822 -3.19345,14.16517 -14.6341,3.01171 -51.61972,6.90436 -64.40275,9.15428 -3.47978,0.6128 -3.03514,-9.58058 -3.03514,-9.58058 L 720.4684,26.623072 c -1.07143,-5.441794 0.78722,-9.079701 7.08811,-9.983324 z"
     style="fill:#323232;fill-rule:nonzero;stroke-width:0.326228"
     id="path4977" /><path
     d="m 794.54721,90.302705 c 0.35132,-3.067223 3.53839,15.893295 3.48307,20.718785 -0.049,4.25703 2.29066,9.14878 1.57624,13.30261 -0.26263,1.52782 -1.14458,3.14142 -1.88641,4.51606 -1.83849,3.4067 -3.21955,2.3934 -6.72454,3.48851 -2.61536,0.81701 -15.63223,2.20608 -17.2686,1.69791 -1.23066,-0.38207 -1.66271,-3.50246 -1.06794,-4.30614 0.56101,-0.75805 19.22671,0.077 20.28038,-3.63724 0.793,-2.7951 1.55389,-3.95585 1.41612,-6.72553 -0.29574,-5.94438 -0.48667,-23.134025 0.19168,-29.054965 z"
     style="fill:#606060;fill-rule:nonzero;stroke-width:0.326228"
     id="path5009" /><path
     d="m 790.13617,69.265904 -57.80432,8.087474 c -0.54789,0.07649 -0.93181,0.576657 -0.85679,1.116232 0.0753,0.539204 0.58125,0.914891 1.12913,0.838398 l 57.80433,-8.087474 c 0.54783,-0.07681 0.93176,-0.576977 0.85645,-1.116181 -0.075,-0.539575 -0.58096,-0.915262 -1.1288,-0.838449 z"
     style="fill:#ffffff;fill-rule:nonzero;stroke-width:0.326228"
     id="path5041" /><ellipse
     cx="726.6936"
     cy="142.96982"
     rx="6.6138105"
     ry="6.4232297"
     style="fill:#ffffff;stroke-width:0.291679"
     id="ellipse5065"
     transform="rotate(-8.9536213)" /><ellipse
     cx="757.04285"
     cy="142.96982"
     rx="6.6138105"
     ry="6.4232297"
     style="fill:#ffffff;stroke-width:0.291679"
     id="ellipse5097"
     transform="rotate(-8.9536213)" /><ellipse
     cx="757.04254"
     cy="206.12779"
     rx="6.6138105"
     ry="6.4232297"
     style="fill:#ffffff;stroke-width:0.291679"
     id="ellipse5129"
     transform="rotate(-8.9536213)" /><ellipse
     cx="726.69647"
     cy="160.67322"
     rx="6.6138105"
     ry="6.4232297"
     style="fill:#ffffff;stroke-width:0.291679"
     id="ellipse5153"
     transform="rotate(-8.9536213)" /><ellipse
     cx="757.04156"
     cy="160.67255"
     rx="6.6138105"
     ry="6.4232297"
     style="fill:#ffffff;stroke-width:0.291679"
     id="ellipse5177"
     transform="rotate(-8.9536213)" /><ellipse
     cx="726.69525"
     cy="178.37555"
     rx="6.6138105"
     ry="6.4232297"
     style="fill:#ffffff;stroke-width:0.291679"
     id="ellipse5193"
     transform="rotate(-8.9536213)" /><ellipse
     cx="722.47455"
     cy="241.5334"
     rx="6.6138105"
     ry="6.4232297"
     style="fill:#ffffff;stroke-width:0.291679"
     id="ellipse5225"
     transform="rotate(-8.9536213)" /><ellipse
     cx="757.04443"
     cy="178.37595"
     rx="6.6138105"
     ry="6.4232297"
     style="fill:#ffffff;stroke-width:0.291679"
     id="ellipse5245"
     transform="rotate(-8.9536213)" /></g><path
   id="path5688"
   style="color:#000000;clip-rule:evenodd;fill:#ff5555;fill-rule:nonzero;stroke-width:1.5;stroke-linejoin:round;stroke-miterlimit:2;stroke-dasharray:none"
   d="m 291.37655,136.95966 c 6.10256,-9.38313 8.13138,-20.63731 11.90616,-31.05535 3.66468,-11.331742 7.32937,-22.663492 10.99405,-33.995212 2.11995,-5.8774 2.13192,-15.44716 -2.65167,-21.24549 -5.97648,-8.07234 -16.50787,-9.35575 -25.17503,-13.10644 -30.42265,-11.16618 -60.84528,-22.33236 -91.26791,-33.4985305 -8.27028,-4.97835991 -20.72807,-6.53237 -27.2657,2.07831 -4.68597,6.7573105 -5.83548,15.2587205 -9.06692,22.7524605 -5.39848,15.84567 -12.03345,31.36576 -15.92848,47.66339 -1.77552,10.76877 6.95064,19.7553 16.55961,22.828328 38.03509,14.066214 76.24678,27.670294 114.32911,41.595304 5.83153,1.24435 13.00266,-0.0337 17.56678,-4.01677 z" /><g
   id="g2133"
   transform="rotate(70.063439,796.15816,302.36723)"><path
     d="m 660.93536,162.25249 c 0,0 -1.27315,15.5167 3.05514,10.00895 1.55656,-1.9807 2.93125,-4.10078 4.24522,-6.24794 1.10019,-1.79766 2.05537,-3.68137 2.9885,-5.57019 2.57804,-5.21872 5.06216,-10.48322 7.54341,-15.74854 5.69587,-12.08697 7.71313,-16.04537 12.08648,-28.68891 5.08121,-14.68831 4.27332,-14.89336 8.74665,-29.822275 1.26976,-4.237095 2.73088,-8.414048 4.13977,-12.606598 1.392,-4.142126 5.45595,-9.616682 2.64388,-13.524055 -12.96065,-18.009016 -88.32468,-40.77871 -70.04414,-16.938344 0.63533,0.828302 -0.44663,4.048448 -0.003,5.060296 0.90766,2.069569 5.00207,-0.973141 5.64214,-1.105063 1.39132,-0.286854 5.92203,0.207713 7.29748,0.357253 3.16921,0.344741 7.25436,0.379567 9.93478,2.570158 1.08423,0.88602 2.07168,1.896928 2.95476,2.979703 2.28009,2.796219 4.78351,6.253631 5.04286,10.007615 0.39246,5.686834 -1.95138,33.980865 -1.4985,39.65868 0.39652,4.96801 1.24024,4.78283 2.14524,9.70281 1.94625,10.58111 1.82389,21.5949 -1.39858,31.87392 -1.84195,5.87555 -7.80689,11.39046 -5.52225,18.03253 z"
     style="fill:#e0e0e0;fill-rule:nonzero;stroke-width:0.326228"
     id="path4941" /><path
     d="m 694.04714,55.776674 c 0,0 5.09316,1.564412 5.36388,2.785584 0.51953,2.343873 -1.45081,7.137535 -2.53165,10.043759 -7.49937,20.164373 -27.9628,79.003793 -36.10846,100.959653 -2.91683,7.86232 -4.51973,12.48401 -9.2279,11.21144 -14.42335,-3.898 -49.20226,-17.07059 -61.62977,-20.81561 -3.38315,-1.01917 1.60231,-9.92131 1.60231,-9.92131 L 629.51464,44.497521 c 1.4928,-5.341599 4.79006,-7.753458 10.82326,-5.7241 z"
     style="fill:#323232;fill-rule:nonzero;stroke-width:0.326228"
     id="path4973" /><path
     d="m 667.00172,134.70765 c 1.69439,-2.58077 -3.99452,15.78484 -6.21605,20.0689 -1.96001,3.7793 -2.07273,9.20061 -4.58047,12.58823 -0.92225,1.24606 -2.43614,2.28995 -3.71734,3.18352 -3.17518,2.21448 -3.95229,0.68798 -7.57506,0.0881 -2.70317,-0.44771 -14.95199,-5.06669 -16.18446,-6.25706 -0.92695,-0.89514 0.0919,-3.87601 0.98472,-4.32593 0.84219,-0.42438 17.13405,8.72336 19.74683,5.88102 1.96631,-2.13895 3.16824,-2.83295 4.29196,-5.36817 2.4117,-5.44123 9.97889,-20.87684 13.24987,-25.85865 z"
     style="fill:#606060;fill-rule:nonzero;stroke-width:0.326228"
     id="path5005" /><path
     d="M 672.53007,113.93589 617.27263,95.137835 c -0.52367,-0.17831 -1.09164,0.0955 -1.26753,0.61108 -0.17547,0.51539 0.1072,1.0786 0.63087,1.25692 l 55.25744,18.798045 c 0.52377,0.17801 1.09174,-0.0958 1.26722,-0.61118 0.17588,-0.51559 -0.10679,-1.07881 -0.63056,-1.25681 z"
     style="fill:#ffffff;fill-rule:nonzero;stroke-width:0.326228"
     id="path5037" /><ellipse
     cx="662.48499"
     cy="-82.361336"
     rx="6.6138148"
     ry="6.4232254"
     style="fill:#ffffff;stroke-width:0.291679"
     id="ellipse5125"
     transform="rotate(17.798785)" /><ellipse
     cx="647.13568"
     cy="-127.81601"
     rx="6.6138148"
     ry="6.4232254"
     style="fill:#ffffff;stroke-width:0.291679"
     id="ellipse5149"
     transform="rotate(17.798785)" /><ellipse
     cx="627.91675"
     cy="-46.955803"
     rx="6.6138148"
     ry="6.4232254"
     style="fill:#ffffff;stroke-width:0.291679"
     id="ellipse5221"
     transform="rotate(17.798785)" /></g><g
   id="g2187"
   transform="rotate(97.549973,305.06585,42.229817)"><path
     d="m 386.18706,53.154316 c 0,0 5.23046,1.014871 5.62929,2.200401 0.76543,2.275472 -0.68487,7.251219 -1.45107,10.255763 -5.3163,20.846568 -19.41757,81.52591 -25.18632,104.22245 -2.06566,8.12755 -3.16886,12.89328 -7.98551,12.12774 -14.75567,-2.34475 -50.73646,-11.7507 -63.49132,-14.15521 -3.47223,-0.65425 0.53998,-10.03535 0.53998,-10.03535 L 320.82183,48.789822 c 0.91729,-5.469891 3.93987,-8.218164 10.15441,-6.840772 z"
     style="fill:#323232;fill-rule:nonzero;stroke-width:0.326228"
     id="path4989" /><path
     d="m 367.67314,134.51014 c 1.41083,-2.74606 -2.29619,16.1197 -4.05036,20.61539 -1.54772,3.96603 -1.08426,9.36866 -3.2182,13.00337 -0.78475,1.33693 -2.17926,2.53563 -3.35836,3.56017 -2.92214,2.53905 -3.85691,1.10367 -7.52289,0.89183 -2.73543,-0.15821 -15.40539,-3.45073 -16.75726,-4.50352 -1.01675,-0.79168 -0.32016,-3.86386 0.5199,-4.40603 0.79238,-0.51139 17.96331,6.85508 20.25958,3.75142 1.72812,-2.33561 2.84959,-3.15329 3.6978,-5.79348 1.82043,-5.6665 7.70618,-21.81824 10.42979,-27.11915 z"
     style="fill:#606060;fill-rule:nonzero;stroke-width:0.326228"
     id="path5021" /><path
     d="m 370.96589,113.26915 -56.9408,-12.82555 c -0.53965,-0.12172 -1.07534,0.21084 -1.1955,0.74219 -0.11977,0.5311 0.2211,1.06113 0.76074,1.18284 l 56.94081,12.82555 c 0.53971,0.1214 1.0754,-0.21116 1.19517,-0.74225 0.12016,-0.53135 -0.22071,-1.06138 -0.76042,-1.18278 z"
     style="fill:#ffffff;fill-rule:nonzero;stroke-width:0.326228"
     id="path5053" /><ellipse
     cx="343.1962"
     cy="-9.7677069"
     rx="6.6138158"
     ry="6.4232268"
     style="fill:#ffffff;stroke-width:0.291679"
     id="ellipse5077"
     transform="rotate(11.704625)" /><ellipse
     cx="373.54492"
     cy="-9.7674866"
     rx="6.6138158"
     ry="6.4232268"
     style="fill:#ffffff;stroke-width:0.291679"
     id="ellipse5109"
     transform="rotate(11.704625)" /><ellipse
     cx="356.42328"
     cy="67.765045"
     rx="6.6138158"
     ry="6.4232268"
     style="fill:#ffffff;stroke-width:0.291679"
     id="ellipse5169"
     transform="rotate(11.704625)" /><ellipse
     cx="343.19611"
     cy="20.637732"
     rx="6.6138158"
     ry="6.4232268"
     style="fill:#ffffff;stroke-width:0.291679"
     id="ellipse5205"
     transform="rotate(11.704625)" /><ellipse
     cx="373.54517"
     cy="20.637455"
     rx="6.6138158"
     ry="6.4232268"
     style="fill:#ffffff;stroke-width:0.291679"
     id="ellipse5257"
     transform="rotate(11.704625)" /></g><g
   id="g1964"
   transform="rotate(-76.38075,626.06849,-455.48457)"><path
     d="m 149.9292,61.90524 c 0,0 -7.87586,-13.429784 -8.25251,-6.434961 -0.13549,2.515477 -0.042,5.040518 0.11673,7.55281 0.13281,2.103422 0.43376,4.193919 0.75567,6.275914 0.88958,5.752391 1.88231,11.48827 2.87786,17.223172 2.28541,13.164886 2.90957,17.563615 6.59714,30.423895 4.28347,14.94047 5.06245,14.64395 9.98166,29.43193 1.39604,4.19718 2.6009,8.45513 3.85749,12.69581 1.24141,4.18972 1.06202,11.00546 5.60892,12.5869 20.95651,7.2889 95.71684,-17.39083 67.05543,-26.39435 -0.99598,-0.31271 -1.96124,-3.56974 -2.90593,-4.14273 -1.93221,-1.17197 -3.53416,3.67116 -3.98215,4.14698 -0.97372,1.03437 -4.96566,3.23354 -6.1772,3.90167 -2.79164,1.53931 -6.15477,3.85861 -9.60726,3.60644 -1.3965,-0.10195 -2.78557,-0.36171 -4.13053,-0.74029 -3.47294,-0.97786 -7.50868,-2.36847 -9.87841,-5.29148 -3.5895,-4.42826 -17.93257,-28.92972 -21.56635,-33.31588 -3.17971,-3.83768 -3.76373,-3.20124 -7.33194,-6.70738 -7.6739,-7.540487 -13.90363,-16.623933 -17.17408,-26.88779 -1.86944,-5.866858 -0.15755,-13.808159 -5.84454,-17.93066 z"
     style="fill:#e0e0e0;fill-rule:nonzero;stroke-width:0.326228"
     id="path4929" /><path
     d="m 207.51651,25.461024 c 0,0 5.14749,-1.375096 6.02469,-0.483428 1.6836,1.711482 2.55572,6.820377 3.18086,9.857408 4.33727,21.072029 18.19688,81.807026 22.93644,104.740576 1.69731,8.21238 2.78972,12.9806 -1.87661,14.39892 -14.29493,4.34539 -50.76554,11.62447 -63.28734,15.04099 -3.40864,0.93036 -3.90376,-9.2607 -3.90376,-9.2607 L 146.82636,50.126168 c -1.56758,-5.320134 -0.0515,-9.113623 6.1395,-10.593142 z"
     style="fill:#323232;fill-rule:nonzero;stroke-width:0.326228"
     id="path4961" /><path
     d="m 226.4518,106.72016 c 0.0676,-3.08654 4.98569,15.50033 5.37458,20.31044 0.34288,4.24349 3.1227,8.89922 2.7935,13.10117 -0.12094,1.5455 -0.85069,3.23341 -1.4629,4.67047 -1.51725,3.56141 -2.98568,2.67947 -6.37505,4.09242 -2.5291,1.05418 -15.36296,3.63501 -17.03914,3.27955 -1.2606,-0.26722 -1.97792,-3.33462 -1.45961,-4.18962 0.48888,-0.80646 19.15224,-1.69236 19.85971,-5.48776 0.53247,-2.85621 1.18333,-4.08204 0.79132,-6.82729 -0.84141,-5.89197 -2.61312,-22.99113 -2.48241,-28.94938 z"
     style="fill:#606060;fill-rule:nonzero;stroke-width:0.326228"
     id="path4993" /><path
     d="m 220.12212,86.178194 -56.81506,13.371601 c -0.53852,0.12658 -0.8748,0.659945 -0.75045,1.190335 0.12459,0.52999 0.66295,0.85753 1.20148,0.73095 l 56.81506,-13.371604 c 0.53844,-0.126891 0.87472,-0.660258 0.75013,-1.190247 -0.12435,-0.530384 -0.66272,-0.857927 -1.20116,-0.731035 z"
     style="fill:#ffffff;fill-rule:nonzero;stroke-width:0.326228"
     id="path5025" /><ellipse
     cx="144.92342"
     cy="152.38554"
     rx="6.613812"
     ry="6.4232278"
     style="fill:#ffffff;stroke-width:0.291679"
     id="ellipse5081"
     transform="matrix(0.96930489,-0.24586181,0.24586075,0.96930516,0,0)" /><ellipse
     cx="179.49191"
     cy="152.38556"
     rx="6.613812"
     ry="6.4232278"
     style="fill:#ffffff;stroke-width:0.291679"
     id="ellipse5113"
     transform="matrix(0.96930489,-0.24586181,0.24586075,0.96930516,0,0)" /><ellipse
     cx="163.14308"
     cy="106.93058"
     rx="6.613812"
     ry="6.4232278"
     style="fill:#ffffff;stroke-width:0.291679"
     id="ellipse5141"
     transform="matrix(0.96930489,-0.24586181,0.24586075,0.96930516,0,0)" /><ellipse
     cx="162.37064"
     cy="169.76045"
     rx="6.613812"
     ry="6.4232278"
     style="fill:#ffffff;stroke-width:0.291679"
     id="ellipse5165"
     transform="matrix(0.96930489,-0.24586181,0.24586075,0.96930516,0,0)" /><ellipse
     cx="144.92302"
     cy="187.79118"
     rx="6.613812"
     ry="6.4232278"
     style="fill:#ffffff;stroke-width:0.291679"
     id="ellipse5209"
     transform="matrix(0.96930489,-0.24586181,0.24586075,0.96930516,0,0)" /><ellipse
     cx="179.49193"
     cy="187.79131"
     rx="6.613812"
     ry="6.4232278"
     style="fill:#ffffff;stroke-width:0.291679"
     id="ellipse5261"
     transform="matrix(0.96930489,-0.24586181,0.24586075,0.96930516,0,0)" /></g><g
   id="g1857"
   transform="rotate(-74.873387,275.94944,366.03815)"><path
     d="m 437.81014,57.946284 c 0,0 -8.11526,-13.286496 -8.36649,-6.286057 -0.0904,2.517514 0.0483,5.040462 0.25205,7.549518 0.17049,2.100695 0.50884,4.185456 0.86802,6.261346 0.99248,5.735543 2.08786,11.452695 3.186,17.16883 2.52096,13.121823 3.22384,17.508659 7.14125,30.300799 4.5505,14.8613 5.32404,14.55088 10.50745,29.24833 1.47101,4.17149 2.75199,8.40716 4.08436,12.62465 1.31629,4.1668 1.25907,10.98465 5.83356,12.48437 21.08374,6.91222 95.38983,-19.10315 66.57168,-27.59166 -1.00141,-0.2948 -2.02489,-3.53401 -2.97971,-4.08999 -1.95288,-1.13716 -3.4678,3.73391 -3.90719,4.21768 -0.95502,1.05164 -4.90693,3.322 -6.10629,4.01172 -2.76362,1.58909 -6.08462,3.96827 -9.54108,3.778 -1.39809,-0.0769 -2.79159,-0.31173 -4.14313,-0.66614 -3.48992,-0.91547 -7.5499,-2.23354 -9.97162,-5.11362 -3.66829,-4.36324 -18.4481,-28.60373 -22.15988,-32.92408 -3.24798,-3.78009 -3.82051,-3.13328 -7.45097,-6.57492 -7.80779,-7.401781 -14.19926,-16.372127 -17.65312,-26.575725 -1.97425,-5.83242 -0.40495,-13.803112 -6.16489,-17.823051 z"
     style="fill:#e0e0e0;fill-rule:nonzero;stroke-width:0.326228"
     id="path4937" /><path
     d="m 493.78462,21.309434 c 0,0 5.09669,-1.552835 6.00429,-0.692135 1.74195,1.652047 2.79078,6.727611 3.52089,9.741127 5.06565,20.908877 21.0238,81.126494 26.55606,103.881824 1.98118,8.14855 3.23834,12.876 -1.37598,14.45535 -14.13558,4.83866 -50.3317,13.37854 -62.72745,17.22738 -3.37431,1.04806 -4.22266,-9.1197 -4.22266,-9.1197 L 433.98666,48.065082 c -1.75119,-5.26255 -0.36764,-9.106346 5.76833,-10.799743 z"
     style="fill:#323232;fill-rule:nonzero;stroke-width:0.326228"
     id="path4969" /><path
     d="m 515.52748,101.8623 c -0.0395,-3.087035 5.52038,15.31804 6.0759,20.11176 0.48988,4.22904 3.42954,8.78553 3.2463,12.99637 -0.0673,1.54877 -0.73801,3.26097 -1.3,4.71841 -1.3928,3.6119 -2.89094,2.78143 -6.22925,4.31111 -2.491,1.14128 -15.2276,4.16576 -16.9151,3.86866 -1.26912,-0.22332 -2.09241,-3.264 -1.60408,-4.13645 0.46062,-0.82294 19.08201,-2.35575 19.65738,-6.17341 0.43308,-2.87295 1.04102,-4.12063 0.55401,-6.85063 -1.0453,-5.85922 -3.4091,-22.88663 -3.48516,-28.84582 z"
     style="fill:#606060;fill-rule:nonzero;stroke-width:0.326228"
     id="path5001" /><path
     d="m 508.48891,81.552745 -56.31698,15.33448 c -0.53381,0.14518 -0.85138,0.68989 -0.70871,1.21564 0.14291,0.52535 0.69231,0.83402 1.22611,0.68884 l 56.31698,-15.334481 c 0.53372,-0.145494 0.85129,-0.690206 0.70839,-1.215553 -0.14268,-0.52575 -0.69208,-0.834421 -1.22579,-0.688926 z"
     style="fill:#ffffff;fill-rule:nonzero;stroke-width:0.326228"
     id="path5033" /><ellipse
     cx="422.43265"
     cy="172.92256"
     rx="6.6138158"
     ry="6.4232287"
     style="fill:#ffffff;stroke-width:0.291679"
     id="ellipse5061"
     transform="rotate(-16.220772)" /><ellipse
     cx="452.78125"
     cy="173.92239"
     rx="6.6138158"
     ry="6.4232287"
     style="fill:#ffffff;stroke-width:0.291679"
     id="ellipse5093"
     transform="rotate(-16.220772)" /><ellipse
     cx="452.78143"
     cy="235.08026"
     rx="6.6138158"
     ry="6.4232287"
     style="fill:#ffffff;stroke-width:0.291679"
     id="ellipse5121"
     transform="rotate(-16.220772)" /><ellipse
     cx="436.43234"
     cy="189.62479"
     rx="6.6138158"
     ry="6.4232287"
     style="fill:#ffffff;stroke-width:0.291679"
     id="ellipse5145"
     transform="rotate(-16.220772)" /><ellipse
     cx="422.43225"
     cy="207.32758"
     rx="6.6138158"
     ry="6.4232287"
     style="fill:#ffffff;stroke-width:0.291679"
     id="ellipse5189"
     transform="rotate(-16.220772)" /><ellipse
     cx="418.21262"
     cy="270.4852"
     rx="6.6138158"
     ry="6.4232287"
     style="fill:#ffffff;stroke-width:0.291679"
     id="ellipse5217"
     transform="rotate(-16.220772)" /><ellipse
     cx="452.78143"
     cy="206.32784"
     rx="6.6138158"
     ry="6.4232287"
     style="fill:#ffffff;stroke-width:0.291679"
     id="ellipse5241"
     transform="rotate(-16.220772)" /></g>
</svg>
