<?xml version="1.0" encoding="UTF-8" standalone="no"?>
<svg
   viewBox="-40.7949 258.2235 1198.066 144.89555"
   version="1.1"
   id="svg68"
   sodipodi:docname="2023-DE-09-domino-example-edge.svg"
   width="1198.0659"
   height="144.89555"
   inkscape:version="1.1.1 (3bf5ae0d25, 2021-09-20)"
   xmlns:inkscape="http://www.inkscape.org/namespaces/inkscape"
   xmlns:sodipodi="http://sodipodi.sourceforge.net/DTD/sodipodi-0.dtd"
   xmlns="http://www.w3.org/2000/svg"
   xmlns:svg="http://www.w3.org/2000/svg">
  <defs
     id="defs72" />
  <sodipodi:namedview
     id="namedview70"
     pagecolor="#ffffff"
     bordercolor="#666666"
     borderopacity="1.0"
     inkscape:pageshadow="2"
     inkscape:pageopacity="0.0"
     inkscape:pagecheckerboard="0"
     showgrid="false"
     inkscape:zoom="1.6876462"
     inkscape:cx="979.76696"
     inkscape:cy="23.40538"
     inkscape:window-width="2048"
     inkscape:window-height="1017"
     inkscape:window-x="-8"
     inkscape:window-y="-8"
     inkscape:window-maximized="1"
     inkscape:current-layer="svg68" />
  <path
     d="m 120.98791,306.28777 c 0,0 7.651,-9.175 10.623,-5.088 1.069,1.47 1.785,2.981 2.396,4.494 0.512,1.267 0.758,2.552 0.968,3.836 0.581,3.546 0.996,7.098 1.407,10.651 0.942,8.154 0.029,10.745 0.135,19.048 0.137,10.727 1.703,12.834 -0.892,22.357 -0.736,2.702 -2.13,7.73 -2.634,10.437 -0.499,2.675 -8.396,4.216 -14.919,5.855 -30.064002,7.555 -151.761002,-3.613 -110.3130012,-13.374 1.44,-0.339 5.8839992,2.446 7.1559992,1.96 2.602,-0.992 6.743,1.63 7.601,1.843 1.865,0.463 8.817,1.15 10.927,1.358 4.861,0.482 10.876,1.337 16.153,0.654 2.134,-0.276 4.203,-0.644 6.163,-1.076 5.061,-1.116 10.855,-2.563 13.539,-4.661 4.064,-3.179 17.982,-19.913 22.13,-23.074 3.629,-2.764 4.754,-2.477 9.099002,-5.106 9.347,-5.654 15.924,-11.999 17.502,-18.586 0.901,-3.765 -4.468,-8.207 2.959,-11.528 z"
     style="fill:#e0e0e0"
     id="path54" />
  <path
     d="m 129.73791,363.67577 c 0,0 0.16,5.326 -0.909,5.976 -2.051,1.247 -7.224,0.926 -10.324,0.84 -21.505002,-0.602 -83.800002,-1.013 -107.209002,-1.649 -8.3829992,-0.228 -13.2749992,-0.256 -13.5869992,-5.123 -0.958,-14.91 0.304,-52.078 -0.155,-65.05 -0.125,-3.531 9.908,-1.68 9.908,-1.68 l 112.1580012,1.962 c 5.538,-0.309 8.883,2.036 8.906,8.401 z"
     style="fill:#323232"
     id="path56" />
  <path
     d="m 46.302908,363.50777 c 2.989,0.772 -16.23,1.305 -21.002,0.582 -4.209,-0.637 -9.378,1.003 -13.393,-0.279 -1.476,-0.472 -2.9519992,-1.569 -4.2109992,-2.493 -3.12,-2.293 -1.925,-3.52 -2.525,-7.143 -0.447,-2.703 -0.022,-15.787 0.708,-17.337 0.549,-1.166 3.699,-1.163 4.4129992,-0.462 0.673,0.66 -2.7369992,19.031 0.796,20.588 2.658,1.172 3.702,2.087 6.465,2.333 5.928,0.53 22.978,2.72 28.749,4.211 z"
     style="fill:#606060"
     id="path58" />
  <path
     d="m 67.746908,362.04877 -0.011,-58.368 c 0,-0.553 -0.442,-1.002 -0.987,-1.003 -0.544,0 -0.986,0.449 -0.986,1.003 l 0.011,58.367 c 0,0.553 0.442,1.003 0.987,1.003 0.544,0 0.987,-0.449 0.986,-1.002 z"
     style="fill:#ffffff"
     id="path60" />
  <path
     d="m 542.83042,309.92961 c 0,0 7.651,-9.175 10.623,-5.087 1.069,1.469 1.785,2.98 2.396,4.494 0.512,1.266 0.758,2.552 0.968,3.835 0.581,3.547 0.996,7.099 1.407,10.651 0.942,8.155 0.029,10.746 0.135,19.048 0.137,10.727 1.703,12.834 -0.892,22.357 -0.736,2.703 -2.13,7.73 -2.634,10.438 -0.499,2.674 -8.396,4.215 -14.919,5.854 -30.064,7.556 -151.761,-3.613 -110.313,-13.374 1.44,-0.339 5.884,2.446 7.156,1.961 2.602,-0.993 6.743,1.63 7.601,1.842 1.865,0.463 8.817,1.15 10.927,1.359 4.861,0.481 10.876,1.336 16.153,0.654 2.134,-0.276 4.203,-0.645 6.163,-1.077 5.061,-1.115 10.855,-2.563 13.539,-4.661 4.064,-3.178 17.982,-19.913 22.13,-23.073 3.629,-2.765 4.754,-2.478 9.099,-5.107 9.347,-5.653 15.924,-11.998 17.502,-18.585 0.901,-3.766 -4.468,-8.208 2.959,-11.529 z"
     style="fill:#e0e0e0"
     id="path2" />
  <path
     d="m 551.58042,367.31861 c 0,0 0.16,5.326 -0.909,5.975 -2.051,1.247 -7.224,0.927 -10.324,0.84 -21.505,-0.601 -83.8,-1.012 -107.21,-1.648 -8.382,-0.228 -13.274,-0.256 -13.587,-5.123 -0.957,-14.91 0.305,-52.079 -0.154,-65.05 -0.126,-3.531 9.908,-1.68 9.908,-1.68 l 112.158,1.961 c 5.537,-0.308 8.883,2.036 8.906,8.402 z"
     style="fill:#323232"
     id="path4" />
  <path
     d="m 468.14442,367.15061 c 2.989,0.772 -16.23,1.305 -21.001,0.582 -4.209,-0.637 -9.378,1.003 -13.393,-0.279 -1.477,-0.472 -2.953,-1.569 -4.211,-2.494 -3.12,-2.292 -1.925,-3.519 -2.525,-7.142 -0.447,-2.703 -0.022,-15.787 0.708,-17.338 0.549,-1.166 3.699,-1.162 4.412,-0.461 0.674,0.66 -2.736,19.031 0.796,20.588 2.659,1.172 3.703,2.087 6.465,2.333 5.928,0.53 22.979,2.719 28.749,4.211 z"
     style="fill:#606060"
     id="path6" />
  <path
     d="m 489.58942,365.69161 -0.011,-58.368 c 0,-0.553 -0.442,-1.002 -0.987,-1.003 -0.544,0 -0.987,0.449 -0.987,1.002 l 0.012,58.368 c 0,0.553 0.442,1.002 0.986,1.002 0.545,10e-4 0.987,-0.448 0.987,-1.001 z"
     style="fill:#ffffff"
     id="path8" />
  <path
     d="m 399.88642,308.53561 c 0,0 7.65,-9.175 10.622,-5.088 1.069,1.47 1.786,2.981 2.397,4.494 0.511,1.267 0.757,2.552 0.967,3.836 0.582,3.546 0.997,7.099 1.408,10.651 0.942,8.154 0.028,10.745 0.134,19.048 0.137,10.727 1.703,12.834 -0.891,22.357 -0.736,2.703 -2.13,7.73 -2.635,10.437 -0.499,2.675 -8.395,4.216 -14.918,5.855 -30.064,7.555 -151.761,-3.613 -110.314,-13.374 1.44,-0.339 5.885,2.446 7.157,1.96 2.601,-0.992 6.742,1.631 7.601,1.843 1.865,0.463 8.816,1.15 10.926,1.359 4.861,0.481 10.877,1.336 16.153,0.653 2.135,-0.276 4.204,-0.644 6.164,-1.076 5.061,-1.116 10.855,-2.563 13.539,-4.661 4.064,-3.178 17.982,-19.913 22.129,-23.073 3.63,-2.765 4.755,-2.478 9.1,-5.107 9.347,-5.654 15.924,-11.998 17.501,-18.586 0.902,-3.765 -4.467,-8.207 2.96,-11.528 z"
     style="fill:#e0e0e0"
     id="path18" />
  <path
     d="m 408.63542,365.92361 c 0,0 0.161,5.326 -0.908,5.976 -2.052,1.247 -7.225,0.926 -10.324,0.84 -21.505,-0.602 -83.8,-1.013 -107.21,-1.649 -8.383,-0.227 -13.274,-0.255 -13.587,-5.123 -0.958,-14.91 0.305,-52.078 -0.154,-65.049 -0.126,-3.532 9.908,-1.681 9.908,-1.681 l 112.158,1.962 c 5.537,-0.308 8.883,2.036 8.906,8.401 z"
     style="fill:#323232"
     id="path20" />
  <path
     d="m 325.20042,365.75561 c 2.989,0.772 -16.23,1.305 -21.001,0.582 -4.21,-0.637 -9.378,1.003 -13.393,-0.279 -1.477,-0.472 -2.953,-1.569 -4.212,-2.493 -3.119,-2.293 -1.925,-3.52 -2.524,-7.143 -0.447,-2.703 -0.022,-15.787 0.708,-17.337 0.548,-1.166 3.699,-1.162 4.412,-0.462 0.673,0.66 -2.736,19.031 0.796,20.588 2.659,1.172 3.703,2.087 6.465,2.333 5.928,0.53 22.979,2.72 28.749,4.211 z"
     style="fill:#606060"
     id="path22" />
  <path
     d="m 346.64542,364.29661 -0.011,-58.367 c 0,-0.553 -0.442,-1.003 -0.987,-1.003 -0.545,0 -0.987,0.449 -0.987,1.002 l 0.011,58.367 c 10e-4,0.554 0.443,1.003 0.987,1.003 0.545,0 0.987,-0.449 0.987,-1.002 z"
     style="fill:#ffffff"
     id="path24" />
  <path
     d="m 259.94634,307.68177 c 0,0 7.65,-9.175 10.622,-5.088 1.069,1.47 1.785,2.981 2.396,4.494 0.512,1.267 0.758,2.553 0.968,3.836 0.582,3.546 0.997,7.099 1.407,10.651 0.943,8.154 0.029,10.745 0.135,19.048 0.137,10.727 1.703,12.834 -0.891,22.357 -0.737,2.703 -2.13,7.73 -2.635,10.437 -0.499,2.675 -8.395,4.216 -14.918,5.855 -30.064,7.555 -151.761,-3.613 -110.314,-13.374 1.44,-0.339 5.885,2.446 7.157,1.961 2.601,-0.993 6.742,1.63 7.601,1.842 1.865,0.463 8.816,1.15 10.926,1.359 4.861,0.481 10.877,1.336 16.153,0.653 2.135,-0.276 4.204,-0.644 6.164,-1.076 5.06,-1.116 10.854,-2.563 13.538,-4.661 4.064,-3.178 17.983,-19.913 22.13,-23.073 3.629,-2.765 4.754,-2.478 9.1,-5.107 9.347,-5.654 15.924,-11.998 17.501,-18.586 0.901,-3.765 -4.467,-8.207 2.96,-11.528 z"
     style="fill:#e0e0e0"
     id="path38" />
  <path
     d="m 268.69534,365.07077 c 0,0 0.16,5.326 -0.909,5.975 -2.051,1.247 -7.224,0.927 -10.323,0.84 -21.506,-0.601 -83.801,-1.012 -107.21,-1.648 -8.383,-0.228 -13.275,-0.256 -13.587,-5.123 -0.958,-14.91 0.305,-52.079 -0.155,-65.05 -0.125,-3.531 9.909,-1.68 9.909,-1.68 l 112.157,1.961 c 5.538,-0.308 8.884,2.036 8.907,8.402 z"
     style="fill:#323232"
     id="path40" />
  <path
     d="m 185.26034,364.90177 c 2.989,0.773 -16.23,1.306 -21.002,0.583 -4.209,-0.638 -9.377,1.003 -13.392,-0.28 -1.477,-0.471 -2.953,-1.568 -4.212,-2.493 -3.12,-2.292 -1.925,-3.52 -2.524,-7.142 -0.448,-2.704 -0.022,-15.787 0.707,-17.338 0.549,-1.166 3.699,-1.162 4.413,-0.462 0.673,0.661 -2.737,19.032 0.796,20.589 2.658,1.172 3.703,2.086 6.465,2.333 5.928,0.53 22.979,2.719 28.749,4.21 z"
     style="fill:#606060"
     id="path42" />
  <path
     d="m 206.70434,363.44277 -0.011,-58.367 c 0,-0.553 -0.442,-1.003 -0.987,-1.003 -0.544,0 -0.986,0.449 -0.986,1.002 l 0.011,58.368 c 0,0.553 0.442,1.002 0.987,1.002 0.545,10e-4 0.987,-0.448 0.986,-1.002 z"
     style="fill:#ffffff"
     id="path44" />
  <path
     d="m 964.30783,308.65248 c 0,0 7.651,-9.175 10.623,-5.087 1.069,1.469 1.785,2.98 2.396,4.494 0.512,1.266 0.758,2.552 0.968,3.835 0.581,3.547 0.996,7.099 1.407,10.651 0.942,8.155 0.029,10.746 0.135,19.048 0.137,10.727 1.703,12.834 -0.892,22.357 -0.736,2.703 -2.13,7.73 -2.634,10.438 -0.499,2.674 -8.396,4.215 -14.919,5.854 -30.064,7.556 -151.761,-3.613 -110.313,-13.374 1.44,-0.339 5.884,2.446 7.156,1.961 2.602,-0.993 6.743,1.63 7.601,1.842 1.865,0.463 8.817,1.15 10.927,1.359 4.861,0.481 10.876,1.336 16.153,0.654 2.134,-0.276 4.203,-0.645 6.163,-1.077 5.061,-1.115 10.855,-2.563 13.539,-4.661 4.064,-3.178 17.982,-19.913 22.13,-23.073 3.629,-2.765 4.754,-2.478 9.099,-5.107 9.347,-5.653 15.924,-11.998 17.502,-18.585 0.901,-3.766 -4.468,-8.208 2.959,-11.529 z"
     style="fill:#e0e0e0"
     id="path2-2" />
  <path
     d="m 977.24773,368.97441 c 0,0 0.16,5.326 -0.909,5.975 -2.051,1.247 -7.224,0.927 -10.324,0.84 -21.505,-0.601 -83.8,-1.012 -107.21,-1.648 -8.382,-0.228 -13.274,-0.256 -13.587,-5.123 -0.957,-14.91 0.305,-52.079 -0.154,-65.05 -0.126,-3.531 9.908,-1.68 9.908,-1.68 l 112.158,1.961 c 5.537,-0.308 8.883,2.036 8.906,8.402 z"
     style="fill:#323232"
     id="path4-0" />
  <path
     d="m 893.81173,368.80641 c 2.989,0.772 -16.23,1.305 -21.001,0.582 -4.209,-0.637 -9.378,1.003 -13.393,-0.279 -1.477,-0.472 -2.953,-1.569 -4.211,-2.494 -3.12,-2.292 -1.925,-3.519 -2.525,-7.142 -0.447,-2.703 -0.022,-15.787 0.708,-17.338 0.549,-1.166 3.699,-1.162 4.412,-0.461 0.674,0.66 -2.736,19.031 0.796,20.588 2.659,1.172 3.703,2.087 6.465,2.333 5.928,0.53 22.979,2.719 28.749,4.211 z"
     style="fill:#606060"
     id="path6-2" />
  <path
     d="m 915.25673,367.34741 -0.011,-58.368 c 0,-0.553 -0.442,-1.002 -0.987,-1.003 -0.544,0 -0.987,0.449 -0.987,1.002 l 0.012,58.368 c 0,0.553 0.442,1.002 0.986,1.002 0.545,10e-4 0.987,-0.448 0.987,-1.001 z"
     style="fill:#ffffff"
     id="path8-5" />
  <path
     d="m 825.55373,310.19141 c 0,0 7.65,-9.175 10.622,-5.088 1.069,1.47 1.786,2.981 2.397,4.494 0.511,1.267 0.757,2.552 0.967,3.836 0.582,3.546 0.997,7.099 1.408,10.651 0.942,8.154 0.028,10.745 0.134,19.048 0.137,10.727 1.703,12.834 -0.891,22.357 -0.736,2.703 -2.13,7.73 -2.635,10.437 -0.499,2.675 -8.395,4.216 -14.918,5.855 -30.064,7.555 -151.761,-3.613 -110.314,-13.374 1.44,-0.339 5.885,2.446 7.157,1.96 2.601,-0.992 6.742,1.631 7.601,1.843 1.865,0.463 8.816,1.15 10.926,1.359 4.861,0.481 10.877,1.336 16.153,0.653 2.135,-0.276 4.204,-0.644 6.164,-1.076 5.061,-1.116 10.855,-2.563 13.539,-4.661 4.064,-3.178 17.982,-19.913 22.129,-23.073 3.63,-2.765 4.755,-2.478 9.1,-5.107 9.347,-5.654 15.924,-11.998 17.501,-18.586 0.902,-3.765 -4.467,-8.207 2.96,-11.528 z"
     style="fill:#e0e0e0"
     id="path18-5" />
  <path
     d="m 834.30273,367.57941 c 0,0 0.161,5.326 -0.908,5.976 -2.052,1.247 -7.225,0.926 -10.324,0.84 -21.505,-0.602 -83.8,-1.013 -107.21,-1.649 -8.383,-0.227 -13.274,-0.255 -13.587,-5.123 -0.958,-14.91 0.305,-52.078 -0.154,-65.049 -0.126,-3.532 9.908,-1.681 9.908,-1.681 l 112.158,1.962 c 5.537,-0.308 8.883,2.036 8.906,8.401 z"
     style="fill:#323232"
     id="path20-2" />
  <path
     d="m 750.86773,367.41141 c 2.989,0.772 -16.23,1.305 -21.001,0.582 -4.21,-0.637 -9.378,1.003 -13.393,-0.279 -1.477,-0.472 -2.953,-1.569 -4.212,-2.493 -3.119,-2.293 -1.925,-3.52 -2.524,-7.143 -0.447,-2.703 -0.022,-15.787 0.708,-17.337 0.548,-1.166 3.699,-1.162 4.412,-0.462 0.673,0.66 -2.736,19.031 0.796,20.588 2.659,1.172 3.703,2.087 6.465,2.333 5.928,0.53 22.979,2.72 28.749,4.211 z"
     style="fill:#606060"
     id="path22-2" />
  <path
     d="m 772.31273,365.95241 -0.011,-58.367 c 0,-0.553 -0.442,-1.003 -0.987,-1.003 -0.545,0 -0.987,0.449 -0.987,1.002 l 0.011,58.367 c 10e-4,0.554 0.443,1.003 0.987,1.003 0.545,0 0.987,-0.449 0.987,-1.002 z"
     style="fill:#ffffff"
     id="path24-1" />
  <path
     d="m 682.0584,309.33757 c 0,0 7.65,-9.175 10.622,-5.088 1.069,1.47 1.785,2.981 2.396,4.494 0.512,1.267 0.758,2.553 0.968,3.836 0.582,3.546 0.997,7.099 1.407,10.651 0.943,8.154 0.029,10.745 0.135,19.048 0.137,10.727 1.703,12.834 -0.891,22.357 -0.737,2.703 -2.13,7.73 -2.635,10.437 -0.499,2.675 -8.395,4.216 -14.918,5.855 -30.064,7.555 -151.761,-3.613 -110.314,-13.374 1.44,-0.339 5.885,2.446 7.157,1.961 2.601,-0.993 6.742,1.63 7.601,1.842 1.865,0.463 8.816,1.15 10.926,1.359 4.861,0.481 10.877,1.336 16.153,0.653 2.135,-0.276 4.204,-0.644 6.164,-1.076 5.06,-1.116 10.854,-2.563 13.538,-4.661 4.064,-3.178 17.983,-19.913 22.13,-23.073 3.629,-2.765 4.754,-2.478 9.1,-5.107 9.347,-5.654 15.924,-11.998 17.501,-18.586 0.901,-3.765 -4.467,-8.207 2.96,-11.528 z"
     style="fill:#e0e0e0"
     id="path38-6" />
  <path
     d="m 690.8074,366.72657 c 0,0 0.16,5.326 -0.909,5.975 -2.051,1.247 -7.224,0.927 -10.323,0.84 -21.506,-0.601 -83.801,-1.012 -107.21,-1.648 -8.383,-0.228 -13.275,-0.256 -13.587,-5.123 -0.958,-14.91 0.305,-52.079 -0.155,-65.05 -0.125,-3.531 9.909,-1.68 9.909,-1.68 l 112.157,1.961 c 5.538,-0.308 8.884,2.036 8.907,8.402 z"
     style="fill:#323232"
     id="path40-7" />
  <path
     d="m 607.3724,366.55757 c 2.989,0.773 -16.23,1.306 -21.002,0.583 -4.209,-0.638 -9.377,1.003 -13.392,-0.28 -1.477,-0.471 -2.953,-1.568 -4.212,-2.493 -3.12,-2.292 -1.925,-3.52 -2.524,-7.142 -0.448,-2.704 -0.022,-15.787 0.707,-17.338 0.549,-1.166 3.699,-1.162 4.413,-0.462 0.673,0.661 -2.737,19.032 0.796,20.589 2.658,1.172 3.703,2.086 6.465,2.333 5.928,0.53 22.979,2.719 28.749,4.21 z"
     style="fill:#606060"
     id="path42-0" />
  <path
     d="m 628.8164,365.09857 -0.011,-58.367 c 0,-0.553 -0.442,-1.003 -0.987,-1.003 -0.544,0 -0.986,0.449 -0.986,1.002 l 0.011,58.368 c 0,0.553 0.442,1.002 0.987,1.002 0.545,10e-4 0.987,-0.448 0.986,-1.002 z"
     style="fill:#ffffff"
     id="path44-5" />
  <path
     style="fill:none;stroke:#ffffff;stroke-width:20.4251;stroke-linecap:round;stroke-linejoin:miter;stroke-miterlimit:4;stroke-dasharray:none;stroke-opacity:1"
     d="M 65.154239,268.43605 C -98.066232,300.45546 -29.249817,407.45863 94.761654,382.51959 192.03884,371.74118 138.96003,275.13741 91.966281,278.6579"
     id="path1591-7-12"
     sodipodi:nodetypes="ccc" />
  <path
     style="fill:none;stroke:#ff9500;stroke-width:8.067;stroke-linecap:round;stroke-linejoin:miter;stroke-miterlimit:4;stroke-dasharray:none;stroke-opacity:1"
     d="M 65.154239,268.43605 C -98.066232,300.45546 -29.249817,407.45863 94.761654,382.51959 192.03884,371.74118 138.96003,275.13741 91.966281,278.6579"
     id="path1591-7"
     sodipodi:nodetypes="ccc" />
  <path
     d="m 1107.2518,310.04748 c 0,0 7.651,-9.175 10.623,-5.087 1.069,1.469 1.785,2.98 2.396,4.494 0.512,1.266 0.758,2.552 0.968,3.835 0.581,3.547 0.996,7.099 1.407,10.651 0.942,8.155 0.029,10.746 0.135,19.048 0.137,10.727 1.703,12.834 -0.892,22.357 -0.736,2.703 -2.13,7.73 -2.634,10.438 -0.499,2.674 -8.396,4.215 -14.919,5.854 -30.064,7.556 -151.76097,-3.613 -110.31297,-13.374 1.44,-0.339 5.884,2.446 7.15597,1.961 2.602,-0.993 6.743,1.63 7.601,1.842 1.865,0.463 8.817,1.15 10.927,1.359 4.861,0.481 10.876,1.336 16.153,0.654 2.134,-0.276 4.203,-0.645 6.163,-1.077 5.061,-1.115 10.855,-2.563 13.539,-4.661 4.064,-3.178 17.982,-19.913 22.13,-23.073 3.629,-2.765 4.754,-2.478 9.099,-5.107 9.347,-5.653 15.924,-11.998 17.502,-18.585 0.901,-3.766 -4.468,-8.208 2.959,-11.529 z"
     style="fill:#e0e0e0"
     id="path2-2-7" />
  <path
     d="m 1120.1917,370.36941 c 0,0 0.16,5.326 -0.909,5.975 -2.051,1.247 -7.224,0.927 -10.324,0.84 -21.505,-0.601 -83.8,-1.012 -107.21,-1.648 -8.38197,-0.228 -13.27397,-0.256 -13.58697,-5.123 -0.957,-14.91 0.305,-52.079 -0.154,-65.05 -0.126,-3.531 9.908,-1.68 9.908,-1.68 l 112.15797,1.961 c 5.537,-0.308 8.883,2.036 8.906,8.402 z"
     style="fill:#323232"
     id="path4-0-0" />
  <path
     d="m 1036.7557,370.20141 c 2.989,0.772 -16.23,1.305 -21.001,0.582 -4.209,-0.637 -9.378,1.003 -13.393,-0.279 -1.477,-0.472 -2.95297,-1.569 -4.21097,-2.494 -3.12,-2.292 -1.925,-3.519 -2.525,-7.142 -0.447,-2.703 -0.022,-15.787 0.708,-17.338 0.549,-1.166 3.69897,-1.162 4.41197,-0.461 0.674,0.66 -2.73597,19.031 0.796,20.588 2.659,1.172 3.703,2.087 6.465,2.333 5.928,0.53 22.979,2.719 28.749,4.211 z"
     style="fill:#606060"
     id="path6-2-6" />
  <path
     d="m 1058.2007,368.74241 -0.011,-58.368 c 0,-0.553 -0.442,-1.002 -0.987,-1.003 -0.544,0 -0.987,0.449 -0.987,1.002 l 0.012,58.368 c 0,0.553 0.442,1.002 0.986,1.002 0.545,0.001 0.987,-0.448 0.987,-1.001 z"
     style="fill:#ffffff"
     id="path8-5-4" />
  <path
     d="m 968.49773,311.58641 c 0,0 7.65,-9.175 10.622,-5.088 1.069,1.47 1.786,2.981 2.397,4.494 0.511,1.267 0.757,2.552 0.967,3.836 0.582,3.546 0.997,7.099 1.408,10.651 0.942,8.154 0.028,10.745 0.134,19.048 0.137,10.727 1.703,12.834 -0.891,22.357 -0.736,2.703 -2.13,7.73 -2.635,10.437 -0.499,2.675 -8.395,4.216 -14.918,5.855 -30.064,7.555 -151.761,-3.613 -110.314,-13.374 1.44,-0.339 5.885,2.446 7.157,1.96 2.601,-0.992 6.742,1.631 7.601,1.843 1.865,0.463 8.816,1.15 10.926,1.359 4.861,0.481 10.877,1.336 16.153,0.653 2.135,-0.276 4.204,-0.644 6.164,-1.076 5.061,-1.116 10.855,-2.563 13.539,-4.661 4.064,-3.178 17.982,-19.913 22.129,-23.073 3.63,-2.765 4.755,-2.478 9.1,-5.107 9.347,-5.654 15.924,-11.998 17.501,-18.586 0.902,-3.765 -4.467,-8.207 2.96,-11.528 z"
     style="fill:#e0e0e0"
     id="path18-5-5" />
  <path
     d="m 977.24673,368.97441 c 0,0 0.161,5.326 -0.908,5.976 -2.052,1.247 -7.225,0.926 -10.324,0.84 -21.505,-0.602 -83.8,-1.013 -107.21,-1.649 -8.383,-0.227 -13.274,-0.255 -13.587,-5.123 -0.958,-14.91 0.305,-52.078 -0.154,-65.049 -0.126,-3.532 9.908,-1.681 9.908,-1.681 l 112.158,1.962 c 5.537,-0.308 8.883,2.036 8.906,8.401 z"
     style="fill:#323232"
     id="path20-2-1" />
  <path
     d="m 893.81173,368.80641 c 2.989,0.772 -16.23,1.305 -21.001,0.582 -4.21,-0.637 -9.378,1.003 -13.393,-0.279 -1.477,-0.472 -2.953,-1.569 -4.212,-2.493 -3.119,-2.293 -1.925,-3.52 -2.524,-7.143 -0.447,-2.703 -0.022,-15.787 0.708,-17.337 0.548,-1.166 3.699,-1.162 4.412,-0.462 0.673,0.66 -2.736,19.031 0.796,20.588 2.659,1.172 3.703,2.087 6.465,2.333 5.928,0.53 22.979,2.72 28.749,4.211 z"
     style="fill:#606060"
     id="path22-2-9" />
  <path
     d="m 915.25673,367.34741 -0.011,-58.367 c 0,-0.553 -0.442,-1.003 -0.987,-1.003 -0.545,0 -0.987,0.449 -0.987,1.002 l 0.011,58.367 c 10e-4,0.554 0.443,1.003 0.987,1.003 0.545,0 0.987,-0.449 0.987,-1.002 z"
     style="fill:#ffffff"
     id="path24-1-6" />
  <path
     style="fill:none;stroke:#ffffff;stroke-width:19.7409;stroke-linecap:round;stroke-linejoin:miter;stroke-miterlimit:4;stroke-dasharray:none;stroke-opacity:1"
     d="m 1051.7097,283.18334 c 163.2204,29.91024 94.404,129.86492 -29.6075,106.56866 -97.27715,-10.06842 -44.19835,-100.30873 2.7954,-97.02014"
     id="path1591-7-12-3-5"
     sodipodi:nodetypes="ccc" />
  <path
     style="fill:none;stroke:#ff9500;stroke-width:7.79678;stroke-linecap:round;stroke-linejoin:miter;stroke-miterlimit:4;stroke-dasharray:none;stroke-opacity:1"
     d="m 1051.7097,283.18334 c 163.2204,29.91024 94.404,129.86492 -29.6075,106.56866 -97.27715,-10.06842 -44.19835,-100.30873 2.7954,-97.02014"
     id="path1591-7-8-7"
     sodipodi:nodetypes="ccc" />
</svg>
