<?xml version="1.0" encoding="UTF-8" standalone="no"?>
<!-- Created with Inkscape (http://www.inkscape.org/) -->

<svg
   width="98.437782mm"
   height="23.877085mm"
   viewBox="0 0 98.437782 23.877085"
   version="1.1"
   id="svg915"
   inkscape:version="1.1.1 (3bf5ae0d25, 2021-09-20)"
   sodipodi:docname="2023-DE-09-domino-example-bad.svg"
   xmlns:inkscape="http://www.inkscape.org/namespaces/inkscape"
   xmlns:sodipodi="http://sodipodi.sourceforge.net/DTD/sodipodi-0.dtd"
   xmlns="http://www.w3.org/2000/svg"
   xmlns:svg="http://www.w3.org/2000/svg">
  <sodipodi:namedview
     id="namedview917"
     pagecolor="#ffffff"
     bordercolor="#666666"
     borderopacity="1.0"
     inkscape:pageshadow="2"
     inkscape:pageopacity="0.0"
     inkscape:pagecheckerboard="0"
     inkscape:document-units="mm"
     showgrid="false"
     inkscape:zoom="0.64052329"
     inkscape:cx="275.55594"
     inkscape:cy="350.49467"
     inkscape:window-width="2048"
     inkscape:window-height="1017"
     inkscape:window-x="-8"
     inkscape:window-y="-8"
     inkscape:window-maximized="1"
     inkscape:current-layer="layer1" />
  <defs
     id="defs912" />
  <g
     inkscape:label="Ebene 1"
     inkscape:groupmode="layer"
     id="layer1"
     transform="translate(-32.156633,-55.805547)">
    <path
       d="m 102.69282,60.083215 c 0,0 2.02406,-2.427552 2.81041,-1.3462 0.28284,0.388938 0.47228,0.788723 0.63394,1.189038 0.13546,0.335227 0.20055,0.675481 0.25611,1.014941 0.15399,0.938213 0.26379,1.878277 0.37227,2.818077 0.24951,2.157413 0.008,2.842948 0.0357,5.039784 0.0362,2.838185 0.45059,3.395662 -0.23574,5.915289 -0.195,0.715169 -0.56356,2.045229 -0.69718,2.761456 -0.13203,0.707761 -2.22118,1.115484 -3.94705,1.549136 -7.954436,1.998927 -40.153434,-0.95594 -29.187248,-3.538538 0.381,-0.08969 1.557072,0.647171 1.893622,0.518848 0.688182,-0.262731 1.783821,0.431271 2.011098,0.487363 0.493448,0.122502 2.332567,0.304271 2.890838,0.359568 1.286139,0.127265 2.877873,0.353484 4.273814,0.172773 0.564886,-0.07303 1.112309,-0.170391 1.630892,-0.284691 1.338792,-0.295275 2.871787,-0.678127 3.581929,-1.233223 1.075267,-0.840846 4.758002,-5.268648 5.855229,-6.104731 0.960173,-0.731573 1.257829,-0.655638 2.407708,-1.351227 2.473061,-1.495955 4.213228,-3.174471 4.630478,-4.917546 0.23838,-0.996156 -1.1819,-2.171436 0.78316,-3.050117 z"
       style="fill:#e0e0e0;stroke-width:0.264583"
       id="path38" />
    <path
       d="m 105.00766,75.267388 c 0,0 0.0423,1.409171 -0.2405,1.580885 -0.54267,0.329936 -1.91135,0.245269 -2.7313,0.22225 -5.690128,-0.159014 -22.172346,-0.267758 -28.365977,-0.436033 -2.218002,-0.06033 -3.512344,-0.06773 -3.594894,-1.35546 -0.253471,-3.944938 0.0807,-13.779236 -0.04101,-17.211146 -0.03307,-0.934244 2.621756,-0.4445 2.621756,-0.4445 l 29.674875,0.518848 c 1.46526,-0.08149 2.35056,0.538692 2.35664,2.223029 z"
       style="fill:#323232;stroke-width:0.264583"
       id="path40" />
    <path
       d="m 82.932151,75.222673 c 0.79084,0.204523 -4.294187,0.345546 -5.556779,0.154252 -1.113631,-0.168804 -2.480998,0.265377 -3.5433,-0.07408 -0.390789,-0.124619 -0.781314,-0.414867 -1.114425,-0.659606 -0.8255,-0.606425 -0.509323,-0.931334 -0.667808,-1.889654 -0.118533,-0.715434 -0.0058,-4.176977 0.18706,-4.587346 0.145257,-0.308504 0.978694,-0.307446 1.167607,-0.122238 0.178064,0.17489 -0.724165,5.03555 0.210608,5.447507 0.703263,0.310091 0.979752,0.55192 1.710531,0.617272 1.56845,0.14023 6.079861,0.719403 7.606506,1.113896 z"
       style="fill:#606060;stroke-width:0.264583"
       id="path42" />
    <path
       d="m 88.605876,74.836646 -0.0029,-15.442935 c 0,-0.146315 -0.116946,-0.265377 -0.261144,-0.265377 -0.143933,0 -0.260879,0.118798 -0.260879,0.265112 l 0.0029,15.4432 c 0,0.146315 0.116946,0.265113 0.261144,0.265113 0.144198,2.64e-4 0.261144,-0.118534 0.260879,-0.265113 z"
       style="fill:#ffffff;stroke-width:0.264583"
       id="path44" />
    <ellipse
       cx="63.869202"
       cy="-83.388237"
       rx="1.7499546"
       ry="1.6994193"
       style="fill:#ffffff;stroke-width:0.264583"
       transform="matrix(0.017452,0.9998477,-0.99984767,0.017454,0,0)"
       id="ellipse46" />
    <ellipse
       cx="73.015587"
       cy="-83.388222"
       rx="1.7499546"
       ry="1.6994193"
       style="fill:#ffffff;stroke-width:0.264583"
       transform="matrix(0.017452,0.9998477,-0.99984767,0.017454,0,0)"
       id="ellipse48" />
    <ellipse
       cx="63.869228"
       cy="-74.020615"
       rx="1.7499546"
       ry="1.6994193"
       style="fill:#ffffff;stroke-width:0.264583"
       transform="matrix(0.017452,0.9998477,-0.99984767,0.017454,0,0)"
       id="ellipse50" />
    <ellipse
       cx="75.807022"
       cy="-70.632622"
       rx="1.7499546"
       ry="1.6994193"
       style="fill:#ffffff;stroke-width:0.264583"
       transform="rotate(86.555711)"
       id="ellipse52" />
    <path
       d="m 64.871958,59.714386 c 0,0 2.024327,-2.427552 2.810669,-1.3462 0.282839,0.388938 0.472281,0.788723 0.633941,1.189038 0.135467,0.335227 0.200554,0.675216 0.256117,1.014941 0.153723,0.938213 0.263525,1.878013 0.372269,2.818077 0.249237,2.157413 0.0077,2.842948 0.03572,5.039783 0.03625,2.838186 0.450586,3.395663 -0.236008,5.91529 -0.194733,0.714904 -0.563562,2.045229 -0.696912,2.761456 -0.132027,0.707761 -2.221442,1.115484 -3.947319,1.549136 -7.954433,1.998927 -40.153431,-0.95594 -29.186981,-3.538538 0.381,-0.08969 1.556808,0.647171 1.893358,0.518583 0.688446,-0.262466 1.784086,0.431271 2.011098,0.487628 0.493448,0.122502 2.332831,0.30427 2.891102,0.359304 1.28614,0.127529 2.877609,0.353748 4.273815,0.173037 0.564621,-0.07303 1.112044,-0.170391 1.630627,-0.284691 1.339056,-0.295275 2.872052,-0.678128 3.582194,-1.233223 1.075266,-0.841111 4.757737,-5.268648 5.855229,-6.104996 0.960173,-0.731308 1.257829,-0.655373 2.407443,-1.350963 2.473061,-1.495954 4.213225,-3.174735 4.630738,-4.917545 0.238389,-0.996157 -1.182159,-2.171436 0.782902,-3.050117 z"
       style="fill:#e0e0e0;stroke-width:0.264583"
       id="path54" />
    <path
       d="m 67.187062,74.898294 c 0,0 0.04233,1.409171 -0.240506,1.58115 -0.542661,0.329936 -1.91135,0.245004 -2.731559,0.22225 -5.689864,-0.159279 -22.172083,-0.268023 -28.365714,-0.436298 -2.218002,-0.06032 -3.512343,-0.06773 -3.594893,-1.35546 -0.253471,-3.944938 0.08043,-13.778971 -0.04101,-17.211146 -0.03307,-0.934244 2.621492,-0.4445 2.621492,-0.4445 l 29.675137,0.519113 c 1.465262,-0.08176 2.350294,0.538691 2.356379,2.222764 z"
       style="fill:#323232;stroke-width:0.264583"
       id="path56" />
    <path
       d="m 45.111552,74.853844 c 0.790839,0.204258 -4.294188,0.345281 -5.556779,0.153988 -1.113631,-0.16854 -2.481263,0.265377 -3.543565,-0.07382 -0.390525,-0.124883 -0.78105,-0.415131 -1.11416,-0.659606 -0.8255,-0.60669 -0.509323,-0.931334 -0.668073,-1.889919 -0.118269,-0.715169 -0.0058,-4.176977 0.187325,-4.587081 0.145256,-0.308504 0.978694,-0.307711 1.167606,-0.122238 0.178065,0.174625 -0.724164,5.035286 0.210609,5.447242 0.703262,0.310091 0.979487,0.552185 1.710531,0.617273 1.56845,0.140229 6.079595,0.719666 7.606506,1.114161 z"
       style="fill:#606060;stroke-width:0.264583"
       id="path58" />
    <path
       d="m 50.785277,74.467817 -0.0029,-15.4432 c 0,-0.146314 -0.116945,-0.265112 -0.261143,-0.265377 -0.143934,0 -0.26088,0.118798 -0.26088,0.265377 l 0.0029,15.442935 c 0,0.146315 0.116946,0.265378 0.261144,0.265378 0.143933,0 0.261143,-0.118798 0.260879,-0.265113 z"
       style="fill:#ffffff;stroke-width:0.264583"
       id="path60" />
    <ellipse
       cx="68.037636"
       cy="-57.572075"
       rx="1.7499546"
       ry="1.6994193"
       style="fill:#ffffff;stroke-width:0.264583"
       transform="matrix(0.017452,0.9998477,-0.99984767,0.017454,0,0)"
       id="ellipse62" />
    <path
       d="m 116.46677,68.729269 c -1.48934,1.716352 -2.98027,3.346979 -4.35266,4.928658 -0.83582,0.964142 -0.89827,2.666736 -0.13547,3.799682 0.7739,1.150673 2.09127,1.287198 2.93952,0.308504 1.60417,-1.848644 3.35941,-3.767931 5.09191,-5.807604 2.35188,1.915848 4.95326,3.654425 7.71604,5.273675 1.06098,0.620977 2.27886,0.01826 2.71489,-1.35599 0.43048,-1.356519 -0.0767,-2.955131 -1.12448,-3.568435 -2.21245,-1.296723 -4.31747,-2.665148 -6.25528,-4.152371 1.88886,-2.527829 3.61342,-5.250127 4.93025,-8.232775 0.55959,-1.267354 0.21113,-2.928673 -0.77259,-3.709194 -0.99801,-0.791898 -2.27012,-0.396345 -2.83765,0.889 -1.28667,2.914121 -3.01678,5.5372 -4.89347,7.96634 -2.13704,-2.099733 -3.93885,-4.435211 -5.26997,-7.113323 -0.63765,-1.2827 -1.93093,-1.671902 -2.88475,-0.877887 -0.94166,0.78396 -1.20068,2.446602 -0.5715,3.713162 1.46685,2.950898 3.40518,5.574242 5.70521,7.938558 z"
       style="fill:#ffffff;stroke-width:0.264583"
       id="path64" />
    <path
       d="m 118.37018,68.915007 c -1.79494,2.200275 -3.63247,4.25741 -5.29405,6.238875 -0.37835,0.451908 -0.40349,1.250685 -0.0564,1.783027 0.34714,0.5334 0.9361,0.599281 1.31445,0.147373 1.77218,-2.114286 3.73248,-4.317207 5.63722,-6.683904 2.47517,2.179108 5.25912,4.130939 8.23436,5.937249 0.47546,0.288925 1.01891,0.0071 1.21285,-0.62812 0.19394,-0.635265 -0.0349,-1.386417 -0.51038,-1.675342 -2.71965,-1.651265 -5.27844,-3.416829 -7.56973,-5.377921 2.18069,-2.864643 4.20476,-5.975879 5.68272,-9.450916 0.25268,-0.593725 0.0945,-1.374246 -0.35243,-1.741223 -0.44714,-0.366977 -1.0152,-0.183092 -1.26788,0.410898 -1.46553,3.445933 -3.49329,6.511925 -5.67002,9.329472 -2.58471,-2.469091 -4.74715,-5.247481 -6.30449,-8.47672 -0.28655,-0.594254 -0.86519,-0.778934 -1.29143,-0.412486 -0.42598,0.366448 -0.53922,1.14644 -0.25268,1.740959 1.61581,3.350418 3.83593,6.263481 6.48785,8.858779 z"
       style="fill:#c82121;stroke-width:0.264583"
       id="path66" />
  </g>
</svg>
