<?xml version="1.0" encoding="utf-8"?>
<svg viewBox="-0.001 -0.2574 1424.1556 873.4666" xmlns="http://www.w3.org/2000/svg" xmlns:bx="https://boxy-svg.com">
  <g transform="matrix(1, 0, 0, 1, -890.693969726562, -1927.1700439453125)">
    <g transform="matrix(0.776161,0,0,0.776161,595.713,1467.48)">
      <path d="M581.277,592.256C581.277,592.256 597.479,592.048 599.397,595.385C603.08,601.79 601.832,617.754 601.404,627.325C598.433,693.732 601.899,695.712 598.723,768C597.586,793.886 597.241,808.997 582.426,809.7C537.041,811.855 432.846,806.184 393.382,806.905C382.64,807.101 380.05,775.968 380.05,775.968L383.944,620.024C383.301,602.899 390.607,592.689 409.961,592.961L581.277,592.256Z" style="fill:rgb(50,50,50);"/>
    </g>
    <g transform="matrix(0.776161,0,0,0.776161,595.713,2171.54)">
      <path d="M581.277,592.256C581.277,592.256 597.479,592.048 599.397,595.385C603.08,601.79 601.832,617.754 601.404,627.325C598.433,693.732 601.899,695.712 598.723,768C597.586,793.886 597.241,808.997 582.426,809.7C537.041,811.855 432.846,806.184 393.382,806.905C382.64,807.101 380.05,775.968 380.05,775.968L383.944,620.024C383.301,602.899 390.607,592.689 409.961,592.961L581.277,592.256Z" style="fill:rgb(50,50,50);"/>
    </g>
    <g transform="matrix(0.776161,0,0,0.776161,1233.24,1467.48)">
      <path d="M581.277,592.256C581.277,592.256 597.479,592.048 599.397,595.385C603.08,601.79 601.832,617.754 601.404,627.325C598.433,693.732 601.899,695.712 598.723,768C597.586,793.886 597.241,808.997 582.426,809.7C537.041,811.855 432.846,806.184 393.382,806.905C382.64,807.101 380.05,775.968 380.05,775.968L383.944,620.024C383.301,602.899 390.607,592.689 409.961,592.961L581.277,592.256Z" style="paint-order: stroke; fill: rgb(255, 149, 0);"/>
    </g>
    <g transform="matrix(0.776161,0,0,0.776161,1233.24,2171.54)">
      <path d="M581.277,592.256C581.277,592.256 597.479,592.048 599.397,595.385C603.08,601.79 601.832,617.754 601.404,627.325C598.433,693.732 601.899,695.712 598.723,768C597.586,793.886 597.241,808.997 582.426,809.7C537.041,811.855 432.846,806.184 393.382,806.905C382.64,807.101 380.05,775.968 380.05,775.968L383.944,620.024C383.301,602.899 390.607,592.689 409.961,592.961L581.277,592.256Z" style="fill:rgb(50,50,50);"/>
    </g>
    <g transform="matrix(0.776161,0,0,0.776161,1840.54,1467.48)">
      <path d="M581.277,592.256C581.277,592.256 597.479,592.048 599.397,595.385C603.08,601.79 601.832,617.754 601.404,627.325C598.433,693.732 601.899,695.712 598.723,768C597.586,793.886 597.241,808.997 582.426,809.7C537.041,811.855 432.846,806.184 393.382,806.905C382.64,807.101 380.05,775.968 380.05,775.968L383.944,620.024C383.301,602.899 390.607,592.689 409.961,592.961L581.277,592.256Z" style="fill: rgb(255, 149, 0);"/>
    </g>
    <g transform="matrix(0.776161,0,0,0.776161,1840.54,2171.54)">
      <path d="M581.277,592.256C581.277,592.256 597.479,592.048 599.397,595.385C603.08,601.79 601.832,617.754 601.404,627.325C598.433,693.732 601.899,695.712 598.723,768C597.586,793.886 597.241,808.997 582.426,809.7C537.041,811.855 432.846,806.184 393.382,806.905C382.64,807.101 380.05,775.968 380.05,775.968L383.944,620.024C383.301,602.899 390.607,592.689 409.961,592.961L581.277,592.256Z" style="fill: rgb(255, 149, 0);"/>
    </g>
    <g transform="matrix(0.713687,0,0,0.674782,660.765,1697.91)">
      <ellipse cx="442.199" cy="454.995" rx="21.873" ry="22.829" style="fill:white;"/>
    </g>
    <g transform="matrix(0.713687,0,0,0.674782,622.091,2362.66)">
      <ellipse cx="442.199" cy="454.995" rx="21.873" ry="22.829" style="fill:white;"/>
    </g>
    <g transform="matrix(0.713687,0,0,0.674782,703.683,2362.66)">
      <ellipse cx="442.199" cy="454.995" rx="21.873" ry="22.829" style="fill:white;"/>
    </g>
    <g transform="matrix(0.713687,0,0,0.674782,1256.22,2358.92)">
      <ellipse cx="442.199" cy="454.995" rx="21.873" ry="22.829" style="fill:white;"/>
    </g>
    <g transform="matrix(0.713687,0,0,0.674782,1337.81,2358.92)">
      <ellipse cx="442.199" cy="454.995" rx="21.873" ry="22.829" style="fill:white;"/>
    </g>
    <g transform="matrix(0.713687,0,0,0.674782,1297.4,2400.59)">
      <ellipse cx="442.199" cy="454.995" rx="21.873" ry="22.829" style="fill:white;"/>
    </g>
    <g transform="matrix(0.713687,0,0,0.674782,1256.22,2443.83)">
      <ellipse cx="442.199" cy="454.995" rx="21.873" ry="22.829" style="fill:white;"/>
    </g>
    <g transform="matrix(0.713687,0,0,0.674782,1337.81,2443.83)">
      <ellipse cx="442.199" cy="454.995" rx="21.873" ry="22.829" style="fill:white;"/>
    </g>
    <g transform="matrix(0.713687,0,0,0.674782,622.091,2447.57)">
      <ellipse cx="442.199" cy="454.995" rx="21.873" ry="22.829" style="fill:white;"/>
    </g>
    <g transform="matrix(0.713687,0,0,0.674782,703.683,2447.57)">
      <ellipse cx="442.199" cy="454.995" rx="21.873" ry="22.829" style="fill:white;"/>
    </g>
    <path d="M964.866,2126.84L975.358,2583.29" style="fill:none;stroke:black;stroke-width:12.8px;"/>
    <path d="M1115.25,2019.51L1477.3,2028.13" style="fill:none;stroke:black;stroke-width:12.8px;"/>
    <path d="M1623.48,2158.48L1621.83,2595.17" style="fill:none;stroke:black;stroke-width:12.8px;"/>
    <path d="M1477.56,2694.33L1109.65,2709.66" style="fill:none;stroke:black;stroke-width:12.8px;"/>
    <path d="M1502.23,2596.54L1079.57,2142.88" style="fill:none;stroke:black;stroke-width:12.8px;"/>
    <path d="M 1736.423 2703.878 L 2105.828 2713.491" style="fill: none; stroke: black; stroke-width: 12.8px; transform-box: fill-box; transform-origin: 50% 50%;"/>
    <path d="M 1740.122 2021.651 L 2109.523 2019.825" style="fill: none; stroke-width: 12.8px; transform-box: fill-box; transform-origin: 50% 50%; stroke: rgb(252, 165, 3);"/>
    <path d="M2218.01,2142.44L2211.2,2598.4" style="fill: none; stroke-width: 12.8px; stroke: rgb(253, 165, 4);"/>
    <g transform="matrix(0.713687,0,0,0.674782,1942.2,2360.18)">
      <ellipse cx="442.199" cy="454.995" rx="21.873" ry="22.829" style="fill:white;"/>
    </g>
    <g transform="matrix(0.713687,0,0,0.674782,1342,1662.23)">
      <ellipse cx="442.199" cy="454.995" rx="21.873" ry="22.829" style="fill:white;"/>
    </g>
    <g transform="matrix(0.713687, 0, 0, 0.674782, 1774.85498, 2255.751221)" style="transform-origin: 462.461px 451.658px;">
      <ellipse cx="442.199" cy="454.995" rx="21.873" ry="22.829" style="fill:white;"/>
    </g>
    <g transform="matrix(0.713687,0,0,0.674782,1870.57,2445.09)">
      <ellipse cx="442.199" cy="454.995" rx="21.873" ry="22.829" style="fill:white;"/>
    </g>
    <g transform="matrix(0.713687,0,0,0.674782,1260.41,1747.14)">
      <ellipse cx="442.199" cy="454.995" rx="21.873" ry="22.829" style="fill:white;"/>
    </g>
    <g transform="matrix(0.713687,0,0,0.674782,1948.45,1664.57)">
      <ellipse cx="442.199" cy="454.995" rx="21.873" ry="22.829" style="fill:white;"/>
    </g>
    <g transform="matrix(0.713687, 0, 0, 0.674782, 1867.459106, 1706.714478)">
      <ellipse cx="442.199" cy="454.995" rx="21.873" ry="22.829" style="fill:white;"/>
    </g>
    <g transform="matrix(0.713687,0,0,0.674782,1866.86,1749.48)">
      <ellipse cx="442.199" cy="454.995" rx="21.873" ry="22.829" style="fill:white;"/>
    </g>
    <g transform="matrix(0.713687, 0, 0, 0.674782, 1947.937988, 1706.041504)">
      <ellipse cx="442.199" cy="454.995" rx="21.873" ry="22.829" style="fill:white;"/>
    </g>
    <g transform="matrix(0.713687, 0, 0, 0.674782, 1949.106445, 1748.871948)">
      <ellipse cx="442.199" cy="454.995" rx="21.873" ry="22.829" style="fill:white;"/>
    </g>
    <g transform="matrix(0.713687, 0, 0, 0.674782, 1867.464233, 1665.208984)">
      <ellipse cx="442.199" cy="454.995" rx="21.873" ry="22.829" style="fill:white;"/>
    </g>
    <g transform="matrix(0.336275, 0, 0, 0.333462, 1801.582397, 1729.454224)" style="">
      <path d="M581.277,592.256C581.277,592.256 597.479,592.048 599.397,595.385C603.08,601.79 601.832,617.754 601.404,627.325C598.433,693.732 601.899,695.712 598.723,768C597.586,793.886 597.241,808.997 582.426,809.7C537.041,811.855 432.846,806.184 393.382,806.905C382.64,807.101 380.05,775.968 380.05,775.968L383.944,620.024C383.301,602.899 390.607,592.689 409.961,592.961L581.277,592.256Z" style="fill: rgb(253, 165, 4);"/>
    </g>
    <g transform="matrix(0.309208, 0, 0, 0.289907, 1848.334839, 1814.130127)" style="">
      <ellipse cx="442.199" cy="454.995" rx="21.873" ry="22.829" style="fill:white;"/>
    </g>
    <g transform="matrix(0.309208, 0, 0, 0.289907, 1813.245239, 1832.236694)" style="">
      <ellipse cx="442.199" cy="454.995" rx="21.873" ry="22.829" style="fill:white;"/>
    </g>
    <g transform="matrix(0.309208, 0, 0, 0.289907, 1812.985596, 1850.609985)" style="">
      <ellipse cx="442.199" cy="454.995" rx="21.873" ry="22.829" style="fill:white;"/>
    </g>
    <g transform="matrix(0.309208, 0, 0, 0.289907, 1848.113037, 1831.94751)" style="">
      <ellipse cx="442.199" cy="454.995" rx="21.873" ry="22.829" style="fill:white;"/>
    </g>
    <g transform="matrix(0.309208, 0, 0, 0.289907, 1848.619263, 1850.348755)" style="">
      <ellipse cx="442.199" cy="454.995" rx="21.873" ry="22.829" style="fill:white;"/>
    </g>
    <g transform="matrix(0.309208, 0, 0, 0.289907, 1813.247437, 1814.404663)" style="">
      <ellipse cx="442.199" cy="454.995" rx="21.873" ry="22.829" style="fill:white;"/>
    </g>
    <g transform="matrix(0.298299, 0, 0, 0.329366, 1757.977783, 1731.844482)" style="">
      <path d="M581.277,592.256C581.277,592.256 597.479,592.048 599.397,595.385C603.08,601.79 601.832,617.754 601.404,627.325C598.433,693.732 601.899,695.712 598.723,768C597.586,793.886 597.241,808.997 582.426,809.7C537.041,811.855 432.846,806.184 393.382,806.905C382.64,807.101 380.05,775.968 380.05,775.968L383.944,620.024C383.301,602.899 390.607,592.689 409.961,592.961L581.277,592.256Z" style="fill: rgb(253, 165, 4);"/>
    </g>
    <g transform="matrix(0.258745, 0, 0, 0.286345, 1798.758179, 1818.250977)" style="">
      <ellipse cx="442.199" cy="454.995" rx="21.873" ry="22.829" style="fill:white;"/>
    </g>
    <g transform="matrix(0.258745, 0, 0, 0.286345, 1779.175415, 1847.013306)" style="">
      <ellipse cx="442.199" cy="454.995" rx="21.873" ry="22.829" style="fill:white;"/>
    </g>
    <path d="M 1932.965 1933.778 L 1932.631 1991.974" style="fill: none; stroke-width: 2px; stroke: rgb(251, 251, 251); transform-box: fill-box; transform-origin: 50% 50%;" transform="matrix(-1, 0, 0, -1, 0.000001, -0.000002)"/>
    <g transform="matrix(0.005869, -0.336224, 0.333411, 0.00582, 1786.863037, 1619.905884)" style="transform-origin: 491.003px 701.223px;">
      <path d="M581.277,592.256C581.277,592.256 597.479,592.048 599.397,595.385C603.08,601.79 601.832,617.754 601.404,627.325C598.433,693.732 601.899,695.712 598.723,768C597.586,793.886 597.241,808.997 582.426,809.7C537.041,811.855 432.846,806.184 393.382,806.905C382.64,807.101 380.05,775.968 380.05,775.968L383.944,620.024C383.301,602.899 390.607,592.689 409.961,592.961L581.277,592.256Z" style="fill: rgb(253, 165, 4);"/>
    </g>
    <g transform="matrix(0.005396, -0.309161, 0.289863, 0.00506, 1818.741211, 1847.463623)" style="transform-origin: 442.199px 454.995px;">
      <ellipse cx="442.199" cy="454.995" rx="21.873" ry="22.829" style="fill:white;"/>
    </g>
    <g transform="matrix(0.005396, -0.309161, 0.289863, 0.00506, 1836.232544, 1882.86377)" style="transform-origin: 442.199px 454.995px;">
      <ellipse cx="442.199" cy="454.995" rx="21.873" ry="22.829" style="fill:white;"/>
    </g>
    <g transform="matrix(0.005396, -0.309161, 0.289863, 0.00506, 1854.598511, 1883.444214)" style="transform-origin: 442.199px 454.995px;">
      <ellipse cx="442.199" cy="454.995" rx="21.873" ry="22.829" style="fill:white;"/>
    </g>
    <g transform="matrix(0.005396, -0.309161, 0.289863, 0.00506, 1836.552124, 1847.99646)" style="transform-origin: 442.199px 454.995px;">
      <ellipse cx="442.199" cy="454.995" rx="21.873" ry="22.829" style="fill:white;"/>
    </g>
    <g transform="matrix(0.005396, -0.309161, 0.289863, 0.00506, 1854.959106, 1847.811279)" style="transform-origin: 442.199px 454.995px;">
      <ellipse cx="442.199" cy="454.995" rx="21.873" ry="22.829" style="fill:white;"/>
    </g>
    <g transform="matrix(0.005396, -0.309161, 0.289863, 0.00506, 1818.403198, 1882.550415)" style="transform-origin: 442.199px 454.995px;">
      <ellipse cx="442.199" cy="454.995" rx="21.873" ry="22.829" style="fill:white;"/>
    </g>
    <g transform="matrix(0.005206, -0.298254, 0.329316, 0.005748, 1785.2948, 1682.13916)" style="transform-origin: 491.003px 701.223px;">
      <path d="M581.277,592.256C581.277,592.256 597.479,592.048 599.397,595.385C603.08,601.79 601.832,617.754 601.404,627.325C598.433,693.732 601.899,695.712 598.723,768C597.586,793.886 597.241,808.997 582.426,809.7C537.041,811.855 432.846,806.184 393.382,806.905C382.64,807.101 380.05,775.968 380.05,775.968L383.944,620.024C383.301,602.899 390.607,592.689 409.961,592.961L581.277,592.256Z" style="fill: rgb(253, 165, 4);"/>
    </g>
    <g transform="matrix(0.004516, -0.258706, 0.286301, 0.004997, 1819.986206, 1919.387451)" style="transform-origin: 442.199px 454.995px;">
      <ellipse cx="442.199" cy="454.995" rx="21.873" ry="22.829" style="fill:white;"/>
    </g>
    <g transform="matrix(0.004516, -0.258706, 0.286301, 0.004997, 1848.402344, 1939.46936)" style="transform-origin: 442.199px 454.995px;">
      <ellipse cx="432.867" cy="465.591" rx="21.873" ry="22.829" style="fill:white;"/>
      <ellipse cx="474.969" cy="411.868" rx="21.873" ry="22.829" style="fill:white;"/>
    </g>
    <path d="M 2277.027 2325.909 L 2276.693 2384.105" style="fill: none; stroke-width: 2px; stroke: rgb(251, 251, 251); transform-origin: 2276.86px 2355.01px;" transform="matrix(-0.017452, 0.999848, -0.999848, -0.017452, -0.000106, 0.000101)"/>
  </g>
  <path d="M 926.971 84.32 H 1107.285 L 1107.285 70.787 L 1146.752 88.832 L 1107.285 106.877 L 1107.285 93.343 H 926.971 V 84.32 Z" style="stroke: rgb(253, 165, 4); fill: rgb(253, 165, 4);" transform="matrix(0.9998829960823059, -0.01528599951416254, 0.01528599951416254, 0.9998829960823059, 87.06238555908294, 20.39974594116211)" bx:shape="arrow 926.971 70.787 219.781 36.09 9.023 39.467 0 1@1382eefe"/>
  <path d="M 1326.39 321.838 H 1520.557 L 1520.557 306.838 L 1560.557 326.838 L 1520.557 346.838 L 1520.557 331.838 H 1326.39 V 321.838 Z" style="fill: rgb(253, 165, 4); stroke: rgb(253, 165, 4);" transform="matrix(-0.015762001276016235, 0.9998760223388672, -0.9998760223388672, -0.015762001276016235, 1672.0941162109384, -870.2354736328125)" bx:shape="arrow 1326.39 306.838 234.167 40 10 40 0 1@56c5d55c"/>
</svg>