<?xml version="1.0" encoding="UTF-8" standalone="no"?>
<!-- Created with Inkscape (http://www.inkscape.org/) -->

<svg
   width="348.51462mm"
   height="185.29724mm"
   viewBox="0 0 348.51462 185.29724"
   version="1.1"
   id="svg1305"
   sodipodi:docname="2023-DE-01-explanation04_compatible.svg"
   inkscape:version="1.1.1 (3bf5ae0d25, 2021-09-20)"
   xmlns:inkscape="http://www.inkscape.org/namespaces/inkscape"
   xmlns:sodipodi="http://sodipodi.sourceforge.net/DTD/sodipodi-0.dtd"
   xmlns="http://www.w3.org/2000/svg"
   xmlns:svg="http://www.w3.org/2000/svg">
  <sodipodi:namedview
     id="namedview1307"
     pagecolor="#ffffff"
     bordercolor="#666666"
     borderopacity="1.0"
     inkscape:pageshadow="2"
     inkscape:pageopacity="0.0"
     inkscape:pagecheckerboard="0"
     inkscape:document-units="mm"
     showgrid="false"
     inkscape:zoom="0.44715365"
     inkscape:cx="468.51904"
     inkscape:cy="546.79191"
     inkscape:window-width="2048"
     inkscape:window-height="1017"
     inkscape:window-x="-8"
     inkscape:window-y="-8"
     inkscape:window-maximized="1"
     inkscape:current-layer="layer1"
     inkscape:snap-nodes="true"
     inkscape:snap-bbox="true" />
  <defs
     id="defs1302" />
  <g
     inkscape:label="Ebene 1"
     inkscape:groupmode="layer"
     id="layer1"
     transform="translate(26.263628,31.100634)">
    <path
       id="path21-4-4"
       style="font-variation-settings:normal;opacity:1;vector-effect:none;fill:#999999;fill-opacity:1;stroke:none;stroke-width:0.968924;stroke-linecap:butt;stroke-linejoin:miter;stroke-miterlimit:4;stroke-dasharray:none;stroke-dashoffset:0;stroke-opacity:1;-inkscape-stroke:none;stop-color:#000000;stop-opacity:1"
       d="m 1109.9766,399.76367 3.2929,6.99805 -339.43942,157.36914 3.29101,7 339.43941,-157.37109 3.293,6.99609 16.209,-20.29883 z"
       transform="matrix(0.26458333,0,0,0.26458333,-26.263628,-31.100634)" />
    <path
       id="path41371"
       clip-path="none"
       style="font-variation-settings:normal;opacity:1;vector-effect:none;fill:#999999;fill-opacity:1;stroke:none;stroke-width:0.968924;stroke-linecap:butt;stroke-linejoin:miter;stroke-miterlimit:4;stroke-dasharray:none;stroke-dashoffset:0;stroke-opacity:1;-inkscape-stroke:none;stop-color:#000000;stop-opacity:1"
       d="m 566.16016,603.85547 v 8.97656 H 193.91797 v 8.97656 h 372.24219 v 8.97852 l 26.93164,-13.4668 z"
       transform="matrix(0.26458333,0,0,0.26458333,-26.263628,-31.100634)" />
    <path
       id="path41373-0-5"
       style="font-variation-settings:normal;opacity:1;vector-effect:none;fill:#999999;fill-opacity:1;stroke:none;stroke-width:0.968924;stroke-linecap:butt;stroke-linejoin:miter;stroke-miterlimit:4;stroke-dasharray:none;stroke-dashoffset:0;stroke-opacity:1;-inkscape-stroke:none;stop-color:#000000;stop-opacity:1"
       d="m 619.35742,163.52539 -29.41797,6.41602 5.67188,7.03906 -430.41211,357.32812 6.18359,7.25977 429.86524,-357.5957 5.59179,6.9375 z"
       transform="matrix(0.26458333,0,0,0.26458333,-26.263628,-31.100634)" />
    <path
       id="path21-0"
       style="font-variation-settings:normal;opacity:1;vector-effect:none;fill:#999999;fill-opacity:1;stroke:none;stroke-width:0.968924;stroke-linecap:butt;stroke-linejoin:miter;stroke-miterlimit:4;stroke-dasharray:none;stroke-dashoffset:0;stroke-opacity:1;-inkscape-stroke:none;stop-color:#000000;stop-opacity:1"
       d="m 778.98242,128.98047 -3.29101,6.99805 339.43949,157.36914 -3.293,6.99804 26.0859,-0.6914 -16.209,-20.30078 -3.2929,6.99609 z"
       transform="matrix(0.26458333,0,0,0.26458333,-26.263628,-31.100634)" />
    <path
       id="path41367"
       clip-path="none"
       style="font-variation-settings:normal;opacity:1;vector-effect:none;fill:#999999;fill-opacity:1;stroke:none;stroke-width:0.968924;stroke-linecap:butt;stroke-linejoin:miter;stroke-miterlimit:4;stroke-dasharray:none;stroke-dashoffset:0;stroke-opacity:1;-inkscape-stroke:none;stop-color:#000000;stop-opacity:1"
       d="m 566.16016,83.173828 v 8.976563 H 193.91797 v 8.978519 h 372.24219 v 8.97656 L 593.0918,96.638672 Z"
       transform="matrix(0.26458333,0,0,0.26458333,-26.263628,-31.100634)" />
    <path
       id="path41369"
       clip-path="none"
       style="font-variation-settings:normal;opacity:1;vector-effect:none;fill:#999999;fill-opacity:1;stroke:none;stroke-width:0.968924;stroke-linecap:butt;stroke-linejoin:miter;stroke-miterlimit:4;stroke-dasharray:none;stroke-dashoffset:0;stroke-opacity:1;-inkscape-stroke:none;stop-color:#000000;stop-opacity:1"
       d="m 165.03906,167.3457 -6.18554,5.7461 436.73242,352.6875 -5.63672,6.99218 29.41797,6.41602 -12.51758,-27.38477 -5.63477,6.99024 z"
       transform="matrix(0.26458333,0,0,0.26458333,-26.263628,-31.100634)" />
    <path
       d="m -24.667834,-5.0391744 c 0,-13.8088426 11.194256,-25.0031246 25.0031242,-25.0031246 13.8088688,0 25.0031248,11.194282 25.0031248,25.0031246 0,13.8088686 -11.194256,25.0031244 -25.0031248,25.0031244 -13.8088682,0 -25.0031242,-11.1942558 -25.0031242,-25.0031244 z"
       stroke="#000000"
       stroke-width="2.11667"
       stroke-miterlimit="8"
       fill="none"
       fill-rule="evenodd"
       id="path17" />
    <path
       d="m -25.205293,128.13514 c 0,-13.80887 11.194256,-25.00312 25.0031245,-25.00312 13.8088685,0 25.0031245,11.19425 25.0031245,25.00312 0,13.80887 -11.194256,25.00313 -25.0031245,25.00313 -13.8088685,0 -25.0031245,-11.19426 -25.0031245,-25.00313 z"
       stroke="#000000"
       stroke-width="2.11667"
       stroke-miterlimit="8"
       fill="none"
       fill-rule="evenodd"
       id="path25" />
    <path
       d="m 131.70061,-5.039175 c 0,-13.808842 11.19425,-25.003124 25.00312,-25.003124 13.80886,0 25.00312,11.194282 25.00312,25.003124 0,13.8088691 -11.19426,25.003124 -25.00312,25.003124 -13.80887,0 -25.00312,-11.1942549 -25.00312,-25.003124 z"
       stroke="#000000"
       stroke-width="2.11667"
       stroke-miterlimit="8"
       fill="none"
       fill-rule="evenodd"
       id="path17-3" />
    <path
       d="m 131.16315,128.13514 c 0,-13.80887 11.19425,-25.00312 25.00312,-25.00312 13.80887,0 25.00312,11.19425 25.00312,25.00312 0,13.80887 -11.19425,25.00313 -25.00312,25.00313 -13.80887,0 -25.00312,-11.19426 -25.00312,-25.00313 z"
       stroke="#000000"
       stroke-width="2.11667"
       stroke-miterlimit="8"
       fill="none"
       fill-rule="evenodd"
       id="path25-4" />
    <g
       aria-label="No"
       transform="matrix(0.81284933,0,0,0.81284933,149.0811,143.29173)"
       id="text2046-7-9-3"
       style="font-size:26.4583px;font-family:Calibri, Calibri_MSFontService, sans-serif;baseline-shift:baseline;vector-effect:none;stroke-width:0.264583;stop-color:#000000">
      <path
         d="m 7.5279072,-11.308192 q 0,0.258381 -0.090434,0.439249 -0.077515,0.180867 -0.2196246,0.297139 -0.1291909,0.116272 -0.2971391,0.167948 -0.1679482,0.05168 -0.3358964,0.05168 h -0.71055 q -0.3358964,0 -0.5942782,-0.06459 -0.2454628,-0.07752 -0.4780064,-0.258382 -0.2196246,-0.193786 -0.4521682,-0.516764 -0.2196246,-0.322977 -0.4909255,-0.826821 l -5.2709894,-9.508452 q -0.4134109,-0.736388 -0.839741,-1.537372 -0.4134109,-0.813903 -0.7751454,-1.576129 h -0.025838 q 0.025838,0.930175 0.038757,1.899107 0.012919,0.968931 0.012919,1.924944 v 10.089811 q 0,0.09043 -0.051676,0.180867 -0.051676,0.07752 -0.1808673,0.129191 -0.1162718,0.03876 -0.3229773,0.06459 -0.1937864,0.03876 -0.5038446,0.03876 -0.3100582,0 -0.5167636,-0.03876 -0.1937864,-0.02584 -0.3100582,-0.06459 -0.1162719,-0.05168 -0.1679482,-0.129191 -0.051676,-0.09043 -0.051676,-0.180867 V -26.15222 q 0,-0.516763 0.28422,-0.736388 0.28422,-0.219624 0.6201164,-0.219624 h 1.0593655 q 0.3746537,0 0.6201164,0.0646 0.2583819,0.0646 0.4521682,0.219625 0.2067055,0.14211 0.3875728,0.413411 0.1937864,0.258381 0.4134109,0.658873 l 4.0565948,7.338044 q 0.3746536,0.671793 0.7234691,1.317748 0.3488155,0.633035 0.6717928,1.253151 0.3229773,0.620117 0.6330355,1.227314 0.3229773,0.594278 0.6330355,1.201476 h 0.012919 q -0.025838,-1.020609 -0.038757,-2.118731 0,-1.111042 0,-2.13165 v -9.069203 q 0,-0.09043 0.051676,-0.167948 0.051676,-0.07751 0.1679482,-0.129191 0.1291909,-0.0646 0.3229773,-0.09043 0.2067055,-0.02584 0.5296828,-0.02584 0.28422,0 0.4909255,0.02584 0.2067054,0.02584 0.3229772,0.09043 0.1162719,0.05168 0.1679482,0.129191 0.051676,0.07752 0.051676,0.167948 z"
         style="baseline-shift:baseline;vector-effect:none;stop-color:#000000;stop-opacity:1"
         id="path5196" />
      <path
         d="m 22.539891,-16.656696 q 0,1.4211 -0.374653,2.622575 -0.374654,1.188557 -1.123961,2.054136 -0.736389,0.865579 -1.86035,1.356504 -1.111042,0.478007 -2.583818,0.478007 -1.434019,0 -2.506304,-0.42633 -1.059365,-0.42633 -1.769915,-1.240233 -0.71055,-0.813903 -1.059366,-1.976621 -0.348815,-1.162718 -0.348815,-2.635495 0,-1.4211 0.361734,-2.609656 0.374654,-1.201476 1.111042,-2.067055 0.749307,-0.865579 1.860349,-1.343585 1.111042,-0.478007 2.596738,-0.478007 1.434019,0 2.493384,0.42633 1.072285,0.42633 1.782835,1.240233 0.71055,0.813903 1.059366,1.976621 0.361734,1.162718 0.361734,2.622576 z m -2.247922,0.14211 q 0,-0.943094 -0.180867,-1.782835 -0.167948,-0.839741 -0.56844,-1.472776 -0.400492,-0.633036 -1.085204,-0.99477 -0.684712,-0.374654 -1.70532,-0.374654 -0.943094,0 -1.627805,0.335896 -0.671793,0.335897 -1.111042,0.956013 -0.439249,0.607197 -0.658874,1.446938 -0.206705,0.839741 -0.206705,1.834511 0,0.956013 0.167948,1.795754 0.180867,0.839741 0.581359,1.472777 0.413411,0.620116 1.098123,0.99477 0.684712,0.361734 1.70532,0.361734 0.930174,0 1.614886,-0.335896 0.684712,-0.335897 1.123961,-0.943094 0.439249,-0.607197 0.645955,-1.446938 0.206705,-0.839741 0.206705,-1.84743 z"
         style="baseline-shift:baseline;vector-effect:none;stop-color:#000000;stop-opacity:1"
         id="path5198" />
    </g>
    <path
       d="m 271.45098,61.106658 c 0,-13.808868 11.13499,-25.003126 24.87084,-25.003126 13.73584,0 24.87083,11.194257 24.87083,25.003125 0,13.808869 -11.13499,25.003125 -24.87083,25.003125 -13.73585,0 -24.87084,-11.194256 -24.87084,-25.003124 z"
       stroke="#000000"
       stroke-width="2.11667"
       stroke-miterlimit="8"
       fill="none"
       fill-rule="evenodd"
       id="path29-0"
       style="fill:#808080" />
    <g
       id="g2004">
      <circle
         style="fill:#d8dad9;fill-opacity:1;stroke:none;stroke-width:1.27278"
         id="path1051-8"
         cx="77.04554"
         cy="-5.5672255"
         r="10.197092" />
      <path
         d="m 78.275455,-12.2025 v 5.4156982 h 5.395028 v 2.4391315 h -5.395028 v 5.4156988 h -2.459802 v -5.4156988 h -5.395028 v -2.4391315 h 5.395028 V -12.2025 Z"
         style="font-size:10.5833px;font-family:sketchnote;-inkscape-font-specification:'sketchnote Bold';stroke-width:0.264583"
         id="path1499" />
    </g>
    <g
       id="g2088">
      <circle
         style="display:inline;fill:#d8dad9;fill-opacity:1;stroke:none;stroke-width:1.27278"
         id="path1051-8-2-9"
         cx="48.924606"
         cy="38.555515"
         r="10.197092" />
      <path
         d="m 54.499194,38.555535 q 0,0.478006 -0.12919,0.697631 -0.116272,0.219624 -0.348816,0.219624 H 43.840944 q -0.245463,0 -0.374654,-0.219624 -0.116272,-0.219625 -0.116272,-0.697631 0,-0.465088 0.116272,-0.684712 0.129191,-0.232544 0.374654,-0.232544 h 10.180244 q 0.232544,0 0.348816,0.219625 0.129191,0.219624 0.12919,0.697631 z"
         id="path1519"
         style="font-size:26.4583px;font-family:Calibri, Calibri_MSFontService, sans-serif;display:inline;stroke-width:0.264583" />
    </g>
    <g
       id="g2092">
      <circle
         style="fill:#d8dad9;fill-opacity:1;stroke:none;stroke-width:1.27278"
         id="path1051-8-62"
         cx="48.924606"
         cy="85.7276"
         r="10.197092" />
      <path
         d="m 54.499195,85.72762 q 0,0.478006 -0.12919,0.697631 -0.116272,0.219624 -0.348816,0.219624 H 43.840945 q -0.245463,0 -0.374654,-0.219624 -0.116272,-0.219625 -0.116272,-0.697631 0,-0.465088 0.116272,-0.684712 0.129191,-0.232544 0.374654,-0.232544 h 10.180244 q 0.232544,0 0.348816,0.219625 0.12919,0.219624 0.12919,0.697631 z"
         id="path1519-1"
         style="font-size:26.4583px;font-family:Calibri, Calibri_MSFontService, sans-serif;stroke-width:0.264583" />
    </g>
    <g
       id="g2096">
      <circle
         style="fill:#d8dad9;fill-opacity:1;stroke:none;stroke-width:1.27278"
         id="path1051-8-1-5"
         cx="79.966408"
         cy="131.99864"
         r="10.197092" />
      <path
         d="m 81.19632,125.36336 v 5.4157 h 5.395028 v 2.43913 H 81.19632 v 5.4157 h -2.459802 v -5.4157 H 73.34149 v -2.43913 h 5.395028 v -5.4157 z"
         style="font-size:10.5833px;font-family:sketchnote;-inkscape-font-specification:'sketchnote Bold';stroke-width:0.264583"
         id="path1504-3" />
    </g>
    <g
       id="g2104">
      <circle
         style="fill:#d8dad9;fill-opacity:1;stroke:none;stroke-width:1.27278"
         id="path1051-8-1-5-6"
         cx="224.65105"
         cy="23.933586"
         r="10.197092" />
      <path
         d="m 225.88096,17.298311 v 5.415699 h 5.39503 v 2.439131 h -5.39503 v 5.415699 h -2.4598 v -5.415699 h -5.39503 V 22.71401 h 5.39503 v -5.415699 z"
         style="font-size:10.5833px;font-family:sketchnote;-inkscape-font-specification:'sketchnote Bold';stroke-width:0.264583"
         id="path1504-3-3" />
    </g>
    <g
       id="g2100">
      <circle
         style="fill:#d8dad9;fill-opacity:1;stroke:none;stroke-width:1.27278"
         id="path1051-8-1-5-6-5"
         cx="224.65105"
         cy="98.116531"
         r="10.197092" />
      <path
         d="m 225.88096,91.481256 v 5.415699 h 5.39503 v 2.439131 h -5.39503 v 5.415704 h -2.4598 v -5.415704 h -5.39503 v -2.439131 h 5.39503 v -5.415699 z"
         style="font-size:10.5833px;font-family:sketchnote;-inkscape-font-specification:'sketchnote Bold';stroke-width:0.264583"
         id="path1504-3-3-0" />
    </g>
    <g
       aria-label="No"
       transform="matrix(0.81284933,0,0,0.81284933,-6.7498809,10.117406)"
       id="text2046-7-9"
       style="font-size:26.4583px;font-family:Calibri, Calibri_MSFontService, sans-serif;baseline-shift:baseline;vector-effect:none;stroke-width:0.264583;stop-color:#000000">
      <path
         d="m 7.5279072,-11.308192 q 0,0.258381 -0.090434,0.439249 -0.077515,0.180867 -0.2196246,0.297139 -0.1291909,0.116272 -0.2971391,0.167948 -0.1679482,0.05168 -0.3358964,0.05168 h -0.71055 q -0.3358964,0 -0.5942782,-0.06459 -0.2454628,-0.07752 -0.4780064,-0.258382 -0.2196246,-0.193786 -0.4521682,-0.516764 -0.2196246,-0.322977 -0.4909255,-0.826821 l -5.2709894,-9.508452 q -0.4134109,-0.736388 -0.839741,-1.537372 -0.4134109,-0.813903 -0.7751454,-1.576129 h -0.025838 q 0.025838,0.930175 0.038757,1.899107 0.012919,0.968931 0.012919,1.924944 v 10.089811 q 0,0.09043 -0.051676,0.180867 -0.051676,0.07752 -0.1808673,0.129191 -0.1162718,0.03876 -0.3229773,0.06459 -0.1937864,0.03876 -0.5038446,0.03876 -0.3100582,0 -0.5167636,-0.03876 -0.1937864,-0.02584 -0.3100582,-0.06459 -0.1162719,-0.05168 -0.1679482,-0.129191 -0.051676,-0.09043 -0.051676,-0.180867 V -26.15222 q 0,-0.516763 0.28422,-0.736388 0.28422,-0.219624 0.6201164,-0.219624 h 1.0593655 q 0.3746537,0 0.6201164,0.0646 0.2583819,0.0646 0.4521682,0.219625 0.2067055,0.14211 0.3875728,0.413411 0.1937864,0.258381 0.4134109,0.658873 l 4.0565948,7.338044 q 0.3746536,0.671793 0.7234691,1.317748 0.3488155,0.633035 0.6717928,1.253151 0.3229773,0.620117 0.6330355,1.227314 0.3229773,0.594278 0.6330355,1.201476 h 0.012919 q -0.025838,-1.020609 -0.038757,-2.118731 0,-1.111042 0,-2.13165 v -9.069203 q 0,-0.09043 0.051676,-0.167948 0.051676,-0.07751 0.1679482,-0.129191 0.1291909,-0.0646 0.3229773,-0.09043 0.2067055,-0.02584 0.5296828,-0.02584 0.28422,0 0.4909255,0.02584 0.2067054,0.02584 0.3229772,0.09043 0.1162719,0.05168 0.1679482,0.129191 0.051676,0.07752 0.051676,0.167948 z"
         style="baseline-shift:baseline;vector-effect:none;stop-color:#000000;stop-opacity:1"
         id="path5201" />
      <path
         d="m 22.539891,-16.656696 q 0,1.4211 -0.374653,2.622575 -0.374654,1.188557 -1.123961,2.054136 -0.736389,0.865579 -1.86035,1.356504 -1.111042,0.478007 -2.583818,0.478007 -1.434019,0 -2.506304,-0.42633 -1.059365,-0.42633 -1.769915,-1.240233 -0.71055,-0.813903 -1.059366,-1.976621 -0.348815,-1.162718 -0.348815,-2.635495 0,-1.4211 0.361734,-2.609656 0.374654,-1.201476 1.111042,-2.067055 0.749307,-0.865579 1.860349,-1.343585 1.111042,-0.478007 2.596738,-0.478007 1.434019,0 2.493384,0.42633 1.072285,0.42633 1.782835,1.240233 0.71055,0.813903 1.059366,1.976621 0.361734,1.162718 0.361734,2.622576 z m -2.247922,0.14211 q 0,-0.943094 -0.180867,-1.782835 -0.167948,-0.839741 -0.56844,-1.472776 -0.400492,-0.633036 -1.085204,-0.99477 -0.684712,-0.374654 -1.70532,-0.374654 -0.943094,0 -1.627805,0.335896 -0.671793,0.335897 -1.111042,0.956013 -0.439249,0.607197 -0.658874,1.446938 -0.206705,0.839741 -0.206705,1.834511 0,0.956013 0.167948,1.795754 0.180867,0.839741 0.581359,1.472777 0.413411,0.620116 1.098123,0.99477 0.684712,0.361734 1.70532,0.361734 0.930174,0 1.614886,-0.335896 0.684712,-0.335897 1.123961,-0.943094 0.439249,-0.607197 0.645955,-1.446938 0.206705,-0.839741 0.206705,-1.84743 z"
         style="baseline-shift:baseline;vector-effect:none;stop-color:#000000;stop-opacity:1"
         id="path5203" />
    </g>
    <g
       aria-label="No"
       transform="matrix(0.81284933,0,0,0.81284933,149.61856,10.117406)"
       id="text2046-7-9-9"
       style="font-size:26.4583px;font-family:Calibri, Calibri_MSFontService, sans-serif;baseline-shift:baseline;vector-effect:none;stroke-width:0.264583;stop-color:#000000">
      <path
         d="m 7.5279072,-11.308192 q 0,0.258381 -0.090434,0.439249 -0.077515,0.180867 -0.2196246,0.297139 -0.1291909,0.116272 -0.2971391,0.167948 -0.1679482,0.05168 -0.3358964,0.05168 h -0.71055 q -0.3358964,0 -0.5942782,-0.06459 -0.2454628,-0.07752 -0.4780064,-0.258382 -0.2196246,-0.193786 -0.4521682,-0.516764 -0.2196246,-0.322977 -0.4909255,-0.826821 l -5.2709894,-9.508452 q -0.4134109,-0.736388 -0.839741,-1.537372 -0.4134109,-0.813903 -0.7751454,-1.576129 h -0.025838 q 0.025838,0.930175 0.038757,1.899107 0.012919,0.968931 0.012919,1.924944 v 10.089811 q 0,0.09043 -0.051676,0.180867 -0.051676,0.07752 -0.1808673,0.129191 -0.1162718,0.03876 -0.3229773,0.06459 -0.1937864,0.03876 -0.5038446,0.03876 -0.3100582,0 -0.5167636,-0.03876 -0.1937864,-0.02584 -0.3100582,-0.06459 -0.1162719,-0.05168 -0.1679482,-0.129191 -0.051676,-0.09043 -0.051676,-0.180867 V -26.15222 q 0,-0.516763 0.28422,-0.736388 0.28422,-0.219624 0.6201164,-0.219624 h 1.0593655 q 0.3746537,0 0.6201164,0.0646 0.2583819,0.0646 0.4521682,0.219625 0.2067055,0.14211 0.3875728,0.413411 0.1937864,0.258381 0.4134109,0.658873 l 4.0565948,7.338044 q 0.3746536,0.671793 0.7234691,1.317748 0.3488155,0.633035 0.6717928,1.253151 0.3229773,0.620117 0.6330355,1.227314 0.3229773,0.594278 0.6330355,1.201476 h 0.012919 q -0.025838,-1.020609 -0.038757,-2.118731 0,-1.111042 0,-2.13165 v -9.069203 q 0,-0.09043 0.051676,-0.167948 0.051676,-0.07751 0.1679482,-0.129191 0.1291909,-0.0646 0.3229773,-0.09043 0.2067055,-0.02584 0.5296828,-0.02584 0.28422,0 0.4909255,0.02584 0.2067054,0.02584 0.3229772,0.09043 0.1162719,0.05168 0.1679482,0.129191 0.051676,0.07752 0.051676,0.167948 z"
         style="baseline-shift:baseline;vector-effect:none;stop-color:#000000;stop-opacity:1"
         id="path5206" />
      <path
         d="m 22.539891,-16.656696 q 0,1.4211 -0.374653,2.622575 -0.374654,1.188557 -1.123961,2.054136 -0.736389,0.865579 -1.86035,1.356504 -1.111042,0.478007 -2.583818,0.478007 -1.434019,0 -2.506304,-0.42633 -1.059365,-0.42633 -1.769915,-1.240233 -0.71055,-0.813903 -1.059366,-1.976621 -0.348815,-1.162718 -0.348815,-2.635495 0,-1.4211 0.361734,-2.609656 0.374654,-1.201476 1.111042,-2.067055 0.749307,-0.865579 1.860349,-1.343585 1.111042,-0.478007 2.596738,-0.478007 1.434019,0 2.493384,0.42633 1.072285,0.42633 1.782835,1.240233 0.71055,0.813903 1.059366,1.976621 0.361734,1.162718 0.361734,2.622576 z m -2.247922,0.14211 q 0,-0.943094 -0.180867,-1.782835 -0.167948,-0.839741 -0.56844,-1.472776 -0.400492,-0.633036 -1.085204,-0.99477 -0.684712,-0.374654 -1.70532,-0.374654 -0.943094,0 -1.627805,0.335896 -0.671793,0.335897 -1.111042,0.956013 -0.439249,0.607197 -0.658874,1.446938 -0.206705,0.839741 -0.206705,1.834511 0,0.956013 0.167948,1.795754 0.180867,0.839741 0.581359,1.472777 0.413411,0.620116 1.098123,0.99477 0.684712,0.361734 1.70532,0.361734 0.930174,0 1.614886,-0.335896 0.684712,-0.335897 1.123961,-0.943094 0.439249,-0.607197 0.645955,-1.446938 0.206705,-0.839741 0.206705,-1.84743 z"
         style="baseline-shift:baseline;vector-effect:none;stop-color:#000000;stop-opacity:1"
         id="path5208" />
    </g>
    <g
       aria-label="No"
       transform="matrix(0.81284933,0,0,0.81284933,-7.2873399,143.29173)"
       id="text2046-7-9-6"
       style="font-size:26.4583px;font-family:Calibri, Calibri_MSFontService, sans-serif;baseline-shift:baseline;vector-effect:none;stroke-width:0.264583;stop-color:#000000">
      <path
         d="m 7.5279072,-11.308192 q 0,0.258381 -0.090434,0.439249 -0.077515,0.180867 -0.2196246,0.297139 -0.1291909,0.116272 -0.2971391,0.167948 -0.1679482,0.05168 -0.3358964,0.05168 h -0.71055 q -0.3358964,0 -0.5942782,-0.06459 -0.2454628,-0.07752 -0.4780064,-0.258382 -0.2196246,-0.193786 -0.4521682,-0.516764 -0.2196246,-0.322977 -0.4909255,-0.826821 l -5.2709894,-9.508452 q -0.4134109,-0.736388 -0.839741,-1.537372 -0.4134109,-0.813903 -0.7751454,-1.576129 h -0.025838 q 0.025838,0.930175 0.038757,1.899107 0.012919,0.968931 0.012919,1.924944 v 10.089811 q 0,0.09043 -0.051676,0.180867 -0.051676,0.07752 -0.1808673,0.129191 -0.1162718,0.03876 -0.3229773,0.06459 -0.1937864,0.03876 -0.5038446,0.03876 -0.3100582,0 -0.5167636,-0.03876 -0.1937864,-0.02584 -0.3100582,-0.06459 -0.1162719,-0.05168 -0.1679482,-0.129191 -0.051676,-0.09043 -0.051676,-0.180867 V -26.15222 q 0,-0.516763 0.28422,-0.736388 0.28422,-0.219624 0.6201164,-0.219624 h 1.0593655 q 0.3746537,0 0.6201164,0.0646 0.2583819,0.0646 0.4521682,0.219625 0.2067055,0.14211 0.3875728,0.413411 0.1937864,0.258381 0.4134109,0.658873 l 4.0565948,7.338044 q 0.3746536,0.671793 0.7234691,1.317748 0.3488155,0.633035 0.6717928,1.253151 0.3229773,0.620117 0.6330355,1.227314 0.3229773,0.594278 0.6330355,1.201476 h 0.012919 q -0.025838,-1.020609 -0.038757,-2.118731 0,-1.111042 0,-2.13165 v -9.069203 q 0,-0.09043 0.051676,-0.167948 0.051676,-0.07751 0.1679482,-0.129191 0.1291909,-0.0646 0.3229773,-0.09043 0.2067055,-0.02584 0.5296828,-0.02584 0.28422,0 0.4909255,0.02584 0.2067054,0.02584 0.3229772,0.09043 0.1162719,0.05168 0.1679482,0.129191 0.051676,0.07752 0.051676,0.167948 z"
         style="baseline-shift:baseline;vector-effect:none;stop-color:#000000;stop-opacity:1"
         id="path5211" />
      <path
         d="m 22.539891,-16.656696 q 0,1.4211 -0.374653,2.622575 -0.374654,1.188557 -1.123961,2.054136 -0.736389,0.865579 -1.86035,1.356504 -1.111042,0.478007 -2.583818,0.478007 -1.434019,0 -2.506304,-0.42633 -1.059365,-0.42633 -1.769915,-1.240233 -0.71055,-0.813903 -1.059366,-1.976621 -0.348815,-1.162718 -0.348815,-2.635495 0,-1.4211 0.361734,-2.609656 0.374654,-1.201476 1.111042,-2.067055 0.749307,-0.865579 1.860349,-1.343585 1.111042,-0.478007 2.596738,-0.478007 1.434019,0 2.493384,0.42633 1.072285,0.42633 1.782835,1.240233 0.71055,0.813903 1.059366,1.976621 0.361734,1.162718 0.361734,2.622576 z m -2.247922,0.14211 q 0,-0.943094 -0.180867,-1.782835 -0.167948,-0.839741 -0.56844,-1.472776 -0.400492,-0.633036 -1.085204,-0.99477 -0.684712,-0.374654 -1.70532,-0.374654 -0.943094,0 -1.627805,0.335896 -0.671793,0.335897 -1.111042,0.956013 -0.439249,0.607197 -0.658874,1.446938 -0.206705,0.839741 -0.206705,1.834511 0,0.956013 0.167948,1.795754 0.180867,0.839741 0.581359,1.472777 0.413411,0.620116 1.098123,0.99477 0.684712,0.361734 1.70532,0.361734 0.930174,0 1.614886,-0.335896 0.684712,-0.335897 1.123961,-0.943094 0.439249,-0.607197 0.645955,-1.446938 0.206705,-0.839741 0.206705,-1.84743 z"
         style="baseline-shift:baseline;vector-effect:none;stop-color:#000000;stop-opacity:1"
         id="path5213" />
    </g>
    <g
       aria-label="No"
       transform="matrix(0.81284933,0,0,0.81284933,289.23664,76.263238)"
       id="text2046-7-9-7"
       style="font-size:26.4583px;font-family:Calibri, Calibri_MSFontService, sans-serif;baseline-shift:baseline;opacity:1;vector-effect:none;fill:#ffffff;stroke-width:0.264583;stop-color:#000000;stop-opacity:1">
      <path
         d="m 7.5279072,-11.308192 q 0,0.258381 -0.090434,0.439249 -0.077515,0.180867 -0.2196246,0.297139 -0.1291909,0.116272 -0.2971391,0.167948 -0.1679482,0.05168 -0.3358964,0.05168 h -0.71055 q -0.3358964,0 -0.5942782,-0.06459 -0.2454628,-0.07752 -0.4780064,-0.258382 -0.2196246,-0.193786 -0.4521682,-0.516764 -0.2196246,-0.322977 -0.4909255,-0.826821 l -5.2709894,-9.508452 q -0.4134109,-0.736388 -0.839741,-1.537372 -0.4134109,-0.813903 -0.7751454,-1.576129 h -0.025838 q 0.025838,0.930175 0.038757,1.899107 0.012919,0.968931 0.012919,1.924944 v 10.089811 q 0,0.09043 -0.051676,0.180867 -0.051676,0.07752 -0.1808673,0.129191 -0.1162718,0.03876 -0.3229773,0.06459 -0.1937864,0.03876 -0.5038446,0.03876 -0.3100582,0 -0.5167636,-0.03876 -0.1937864,-0.02584 -0.3100582,-0.06459 -0.1162719,-0.05168 -0.1679482,-0.129191 -0.051676,-0.09043 -0.051676,-0.180867 V -26.15222 q 0,-0.516763 0.28422,-0.736388 0.28422,-0.219624 0.6201164,-0.219624 h 1.0593655 q 0.3746537,0 0.6201164,0.0646 0.2583819,0.0646 0.4521682,0.219625 0.2067055,0.14211 0.3875728,0.413411 0.1937864,0.258381 0.4134109,0.658873 l 4.0565948,7.338044 q 0.3746536,0.671793 0.7234691,1.317748 0.3488155,0.633035 0.6717928,1.253151 0.3229773,0.620117 0.6330355,1.227314 0.3229773,0.594278 0.6330355,1.201476 h 0.012919 q -0.025838,-1.020609 -0.038757,-2.118731 0,-1.111042 0,-2.13165 v -9.069203 q 0,-0.09043 0.051676,-0.167948 0.051676,-0.07751 0.1679482,-0.129191 0.1291909,-0.0646 0.3229773,-0.09043 0.2067055,-0.02584 0.5296828,-0.02584 0.28422,0 0.4909255,0.02584 0.2067054,0.02584 0.3229772,0.09043 0.1162719,0.05168 0.1679482,0.129191 0.051676,0.07752 0.051676,0.167948 z"
         style="baseline-shift:baseline;vector-effect:none;stop-color:#000000;stop-opacity:1"
         id="path5216" />
      <path
         d="m 22.539891,-16.656696 q 0,1.4211 -0.374653,2.622575 -0.374654,1.188557 -1.123961,2.054136 -0.736389,0.865579 -1.86035,1.356504 -1.111042,0.478007 -2.583818,0.478007 -1.434019,0 -2.506304,-0.42633 -1.059365,-0.42633 -1.769915,-1.240233 -0.71055,-0.813903 -1.059366,-1.976621 -0.348815,-1.162718 -0.348815,-2.635495 0,-1.4211 0.361734,-2.609656 0.374654,-1.201476 1.111042,-2.067055 0.749307,-0.865579 1.860349,-1.343585 1.111042,-0.478007 2.596738,-0.478007 1.434019,0 2.493384,0.42633 1.072285,0.42633 1.782835,1.240233 0.71055,0.813903 1.059366,1.976621 0.361734,1.162718 0.361734,2.622576 z m -2.247922,0.14211 q 0,-0.943094 -0.180867,-1.782835 -0.167948,-0.839741 -0.56844,-1.472776 -0.400492,-0.633036 -1.085204,-0.99477 -0.684712,-0.374654 -1.70532,-0.374654 -0.943094,0 -1.627805,0.335896 -0.671793,0.335897 -1.111042,0.956013 -0.439249,0.607197 -0.658874,1.446938 -0.206705,0.839741 -0.206705,1.834511 0,0.956013 0.167948,1.795754 0.180867,0.839741 0.581359,1.472777 0.413411,0.620116 1.098123,0.99477 0.684712,0.361734 1.70532,0.361734 0.930174,0 1.614886,-0.335896 0.684712,-0.335897 1.123961,-0.943094 0.439249,-0.607197 0.645955,-1.446938 0.206705,-0.839741 0.206705,-1.84743 z"
         style="baseline-shift:baseline;vector-effect:none;stop-color:#000000;stop-opacity:1"
         id="path5218" />
    </g>
  </g>
</svg>
