<?xml version="1.0" encoding="UTF-8" standalone="no"?>
<svg
   id="svg3224"
   width="48.798668mm"
   height="49.77243mm"
   version="1.1"
   viewBox="0 0 48.798667 49.77243"
   sodipodi:docname="2023-CZ-03-explanation2.svg"
   inkscape:version="1.1.1 (3bf5ae0d25, 2021-09-20)"
   xmlns:inkscape="http://www.inkscape.org/namespaces/inkscape"
   xmlns:sodipodi="http://sodipodi.sourceforge.net/DTD/sodipodi-0.dtd"
   xmlns="http://www.w3.org/2000/svg"
   xmlns:svg="http://www.w3.org/2000/svg">
  <defs
     id="defs3872" />
  <sodipodi:namedview
     id="namedview3870"
     pagecolor="#ffffff"
     bordercolor="#666666"
     borderopacity="1.0"
     inkscape:pageshadow="2"
     inkscape:pageopacity="0.0"
     inkscape:pagecheckerboard="0"
     inkscape:document-units="mm"
     showgrid="false"
     inkscape:snap-others="false"
     inkscape:snap-nodes="false"
     inkscape:zoom="2.4524986"
     inkscape:cx="202.24272"
     inkscape:cy="145.76971"
     inkscape:window-width="2048"
     inkscape:window-height="1017"
     inkscape:window-x="-8"
     inkscape:window-y="-8"
     inkscape:window-maximized="1"
     inkscape:current-layer="svg3224" />
  <g
     id="g20783"
     transform="translate(-28.517363,-19.002462)">
    <path
       id="path162"
       d="m 74.644701,58.383105 c 0.78604,2.545161 -2.437581,7.08294 -4.03564,8.053948 -2.632121,1.599454 -6.761595,2.881049 -9.811883,1.513589 -1.599852,-0.717657 -2.199112,-1.879859 -2.857541,-3.353802 -0.249954,-0.558519 -0.612707,-1.104288 -0.795672,-1.690798 -0.189331,-0.604738 -0.08526,-1.345047 -0.12059,-1.965623 -0.03704,-0.65576 -0.153948,-1.306399 -0.120589,-1.965624 0.125739,-2.471947 1.08835,-4.960329 3.287163,-6.208455 2.321534,-1.317555 4.649543,-2.565481 7.306866,-2.314163 0.920365,0.08688 1.790507,0.122651 2.64507,0.495774 1.00378,0.438438 1.643681,1.422545 2.357793,2.207878 1.101299,1.209477 1.652845,3.636001 2.145023,5.227187 z"
       style="clip-rule:evenodd;fill:#fef388;fill-rule:evenodd;stroke:#aa0000;stroke-width:0.479607px" />
    <path
       id="path226"
       d="m 66.143898,60.2538 c 1.079783,0.242204 2.214054,2.234673 1.675756,3.285071 -1.795887,-0.915545 -2.063641,-1.75923 -1.675756,-3.285071 z"
       style="clip-rule:evenodd;fill:#fdc72b;fill-rule:evenodd;stroke-width:0.452334" />
    <path
       id="path290"
       d="m 65.877937,60.135263 c -0.253829,0.686838 -0.38411,0.835467 -0.837131,1.429119 -0.433806,0.568679 -1.568973,1.014936 -2.532709,1.067631 0.640468,-1.911536 1.803357,-2.654634 3.36984,-2.49675 z"
       style="clip-rule:evenodd;fill:#fdc72b;fill-rule:evenodd;stroke-width:0.452324" />
    <path
       id="path354"
       d="m 65.574123,59.677052 c -1.02669,0.110419 -1.727653,0.283653 -3.055966,-1.493169 -0.02666,-0.03598 -0.460362,-0.69644 -0.210089,-0.856804 0.182776,-0.117192 0.70921,0.03722 0.983061,0.117601 1.397741,0.410726 1.938231,1.04482 2.282984,2.232382 z"
       style="clip-rule:evenodd;fill:#fdc72b;fill-rule:evenodd;stroke-width:0.40973" />
    <path
       id="path418"
       d="m 66.370015,59.333394 c -0.100109,0.163342 -0.696649,-0.428925 -0.825048,-0.74265 -0.404421,-0.989177 -0.366927,-2.06374 0.377317,-3.274213 1.048704,1.40322 1.110662,2.933643 0.447731,4.016913 z"
       style="clip-rule:evenodd;fill:#fdc72b;fill-rule:evenodd;stroke-width:0.452324" />
    <path
       id="path482"
       d="m 68.290515,60.257784 c -0.600624,0.07687 -1.821586,-0.398673 -1.644876,-0.541834 0.940138,-0.761924 2.41975,-1.379014 3.903954,-0.848008 -0.744184,0.846285 -1.497751,1.292552 -2.259078,1.389872 z"
       style="clip-rule:evenodd;fill:#fdc72b;fill-rule:evenodd;stroke-width:0.452334" />
    <path
       id="path1030"
       d="m 65.578108,60.251808 c -0.04028,0.126974 -0.107381,0.217859 -0.152893,0.337711 -0.191692,0.504978 -0.583053,0.937349 -0.995045,1.21884 -0.410018,0.280086 -1.257389,0.219254 -0.847749,-0.758259 0.11003,-0.262564 0.704051,-0.560093 1.521757,-0.698213 0.09034,-0.01526 0.308157,-0.123438 0.308157,-0.123438 0.09308,-0.02831 0.148331,-0.02052 0.165763,0.02339 z"
       style="clip-rule:evenodd;fill:none;stroke-width:0.0293235" />
    <path
       id="path1032"
       d="m 65.578108,60.251808 c -0.04028,0.126974 -0.107381,0.217859 -0.152893,0.337711 -0.191692,0.504978 -0.583053,0.937349 -0.995045,1.21884 -0.410018,0.280086 -1.257389,0.219254 -0.847749,-0.758259 0.11003,-0.262564 0.704051,-0.560093 1.521757,-0.698213 0.09034,-0.01526 0.308157,-0.123438 0.308157,-0.123438 0.09308,-0.02831 0.148331,-0.02052 0.165763,0.02339 z"
       style="clip-rule:evenodd;fill:#613e0c;fill-rule:evenodd;stroke-width:0.0293235" />
    <path
       id="path1034"
       d="m 65.578108,60.251808 c -0.04028,0.126974 -0.107381,0.217859 -0.152893,0.337711 -0.191692,0.504978 -0.583053,0.937349 -0.995045,1.21884 -0.410018,0.280086 -1.257389,0.219254 -0.847749,-0.758259 0.11003,-0.262564 0.704051,-0.560093 1.521757,-0.698213 0.09034,-0.01526 0.308157,-0.123438 0.308157,-0.123438 0.09308,-0.02831 0.148331,-0.02052 0.165763,0.02339 z"
       style="clip-rule:evenodd;fill:#613e0c;fill-rule:evenodd;stroke-width:0.0293235" />
    <path
       id="path1036"
       d="m 65.572131,60.239854 c 0.0023,0.0035 0.0043,0.0073 0.0059,0.01145 -0.04028,0.126974 -0.107381,0.217859 -0.152893,0.337711 -0.191691,0.504978 -0.583053,0.937349 -0.995044,1.21884 -0.290296,0.198296 -0.799787,0.225709 -0.927199,-0.122083 0.161589,0.274348 0.618285,0.247543 0.890881,0.07031 0.418336,-0.271978 0.81947,-0.695304 1.022606,-1.19573 0.04646,-0.114423 0.112312,-0.201513 0.155712,-0.320429 z"
       style="clip-rule:evenodd;fill:#463012;fill-rule:evenodd;stroke-width:0.0293235" />
    <path
       id="path1038"
       d="m 63.532098,61.748961 c -0.08308,-0.143261 -0.08807,-0.36878 0.0502,-0.698791 0.11003,-0.262565 0.70405,-0.560093 1.521757,-0.698213 0.09034,-0.01526 0.308156,-0.123438 0.308156,-0.123438 0.09308,-0.02831 0.148331,-0.02052 0.165763,0.02339 -0.02011,0.06339 -0.04693,0.11782 -0.07438,0.171321 -0.01069,0.0024 -0.02193,0.0055 -0.03384,0.0091 0,0 -0.217083,0.113606 -0.308177,0.123458 -0.846554,0.09154 -1.405411,0.368441 -1.515382,0.631015 -0.08497,0.202749 -0.122193,0.433249 -0.114104,0.562195 z"
       style="clip-rule:evenodd;fill:#3a2200;fill-rule:evenodd;stroke-width:0.0293235" />
    <path
       id="path1040"
       d="m 65.133843,60.344446 c 0.101105,-0.02853 0.278074,-0.116415 0.278074,-0.116415 0.09308,-0.02831 0.14833,-0.02052 0.165762,0.02339 -0.01875,0.05906 -0.0433,0.110309 -0.06874,0.160304 -0.08836,0.0693 -0.187986,0.155593 -0.302917,0.152873 -0.03006,-7.27e-4 -0.07715,0.01229 -0.10505,-0.0025 -0.01858,-0.0099 -0.01756,-0.0453 -0.02114,-0.06193 -0.01245,-0.05744 0.01507,-0.111286 0.05402,-0.155702 z"
       style="clip-rule:evenodd;fill:#b98133;fill-rule:evenodd;stroke-width:0.0293235" />
    <path
       id="path1042"
       d="m 65.112924,60.722968 c -0.03676,-0.0111 -0.739263,0.452572 -0.78096,0.487098 -0.07579,0.06282 -0.151588,0.116485 -0.219323,0.189131 -0.07168,0.07687 -0.134505,0.170345 -0.04547,0.26365 0.101334,0.106245 0.2714,0.02241 0.372475,-0.03215 0.135362,-0.07314 0.282069,-0.188365 0.375524,-0.311105 0.0525,-0.06892 0.09601,-0.145522 0.151239,-0.212122 0.04921,-0.05933 0.118906,-0.100268 0.162585,-0.164607 0.03087,-0.04548 0.03248,-0.101553 0.02237,-0.15368 -0.0046,-0.02376 -0.01152,-0.05813 -0.03843,-0.06624 z"
       style="clip-rule:evenodd;fill:#997661;fill-rule:evenodd;stroke-width:0.0293235" />
    <path
       id="path1062"
       d="m 66.098077,59.012647 c -0.08262,-0.104502 -0.12032,-0.210986 -0.194102,-0.315827 -0.310936,-0.441655 -0.449883,-1.008063 -0.452264,-1.507015 -0.0023,-0.496541 0.522689,-1.164353 1.102993,-0.277516 0.155871,0.23822 0.06959,0.896967 -0.27405,1.65175 -0.03796,0.08338 -0.07035,0.324413 -0.07035,0.324413 -0.02868,0.09296 -0.06609,0.134375 -0.112232,0.124205 z"
       style="clip-rule:evenodd;fill:none;stroke-width:0.0293235" />
    <path
       id="path1064"
       d="m 66.098077,59.012647 c -0.08262,-0.104502 -0.12032,-0.210986 -0.194102,-0.315827 -0.310936,-0.441655 -0.449883,-1.008063 -0.452264,-1.507015 -0.0023,-0.496541 0.522689,-1.164353 1.102993,-0.277516 0.155871,0.23822 0.06959,0.896967 -0.27405,1.65175 -0.03796,0.08338 -0.07035,0.324413 -0.07035,0.324413 -0.02868,0.09296 -0.06609,0.134375 -0.112232,0.124205 z"
       style="clip-rule:evenodd;fill:#613e0c;fill-rule:evenodd;stroke-width:0.0293235" />
    <path
       id="path1066"
       d="m 66.098077,59.012647 c -0.08262,-0.104502 -0.12032,-0.210986 -0.194102,-0.315827 -0.310936,-0.441655 -0.449883,-1.008063 -0.452264,-1.507015 -0.0023,-0.496541 0.522689,-1.164353 1.102993,-0.277516 0.155871,0.23822 0.06959,0.896967 -0.27405,1.65175 -0.03796,0.08338 -0.07035,0.324413 -0.07035,0.324413 -0.02868,0.09296 -0.06609,0.134375 -0.112232,0.124205 z"
       style="clip-rule:evenodd;fill:#613e0c;fill-rule:evenodd;stroke-width:0.0293235" />
    <path
       id="path1068"
       d="m 66.111026,59.013643 c -0.0042,-5.8e-5 -0.0085,-5.44e-4 -0.01279,-0.0015 -0.08262,-0.104502 -0.12032,-0.210986 -0.194102,-0.315827 -0.310935,-0.441655 -0.449883,-1.008063 -0.452263,-1.507015 -0.0017,-0.351547 0.26103,-0.788959 0.620516,-0.699687 -0.317779,-0.01982 -0.551396,0.373511 -0.557283,0.698602 -0.0091,0.498891 0.116943,1.068328 0.417708,1.516975 0.06876,0.10258 0.104024,0.205916 0.178214,0.308486 z"
       style="clip-rule:evenodd;fill:#463012;fill-rule:evenodd;stroke-width:0.0293235" />
    <path
       id="path1070"
       d="m 66.004443,56.478543 c 0.165214,0.01142 0.354824,0.133618 0.550749,0.433029 0.155871,0.23822 0.06959,0.896967 -0.27405,1.65175 -0.03796,0.08338 -0.07036,0.324413 -0.07036,0.324413 -0.02868,0.09296 -0.06609,0.134375 -0.112232,0.124205 -0.04125,-0.05217 -0.07131,-0.104871 -0.100248,-0.157585 0.004,-0.01021 0.0078,-0.02123 0.01143,-0.03312 0,0 0.02749,-0.243459 0.07036,-0.324443 0.398375,-0.752561 0.482018,-1.370547 0.326147,-1.608817 -0.12035,-0.183952 -0.290456,-0.343907 -0.401791,-0.409441 z"
       style="clip-rule:evenodd;fill:#3a2200;fill-rule:evenodd;stroke-width:0.0293235" />
    <path
       id="path1072"
       d="m 66.269408,58.592288 c -0.033,0.09973 -0.05933,0.295566 -0.05933,0.295566 -0.02868,0.09296 -0.06609,0.134375 -0.112232,0.124205 -0.03842,-0.04861 -0.06713,-0.09766 -0.09428,-0.146737 -0.0079,-0.112022 -0.02359,-0.242881 0.04305,-0.336565 0.01744,-0.0245 0.03303,-0.07079 0.06092,-0.08562 0.01857,-0.0099 0.04736,0.01083 0.06314,0.01717 0.05456,0.02186 0.08374,0.07482 0.09873,0.131964 z"
       style="clip-rule:evenodd;fill:#b98133;fill-rule:evenodd;stroke-width:0.0293235" />
    <path
       id="path1074"
       d="m 65.968583,58.363183 c 0.02977,-0.02423 0.03921,-0.865898 0.03396,-0.919788 -0.0096,-0.09798 -0.01158,-0.190825 -0.03382,-0.287627 -0.02353,-0.10244 -0.06577,-0.206842 -0.192936,-0.185356 -0.144775,0.02443 -0.170594,0.212271 -0.18201,0.326565 -0.01524,0.153102 -0.002,0.339175 0.04735,0.485345 0.02768,0.0821 0.06677,0.161051 0.091,0.244106 0.02159,0.074 0.01646,0.154666 0.04528,0.226884 0.02038,0.05105 0.06593,0.08379 0.114772,0.104612 0.02226,0.0095 0.05461,0.02303 0.0764,0.0053 z"
       style="clip-rule:evenodd;fill:#997661;fill-rule:evenodd;stroke-width:0.0293235" />
    <path
       id="path1150"
       d="m 66.721112,45.402431 c 0.120968,0.499699 -0.09699,3.409286 0,3.604325 0.09304,0.187119 1.947395,0.18185 1.947395,0.247742 0,0.08434 -1.685717,3.196916 -2.89858,4.108854 -0.491003,0.36634 -3.213949,-3.437077 -3.033554,-3.900567 0.112013,-0.113328 1.793496,-0.245103 1.793496,-0.139685 0,0.134415 -0.266449,-2.483202 -0.162615,-3.419347 z"
       style="clip-rule:evenodd;fill:#006e1e;fill-rule:evenodd;stroke:#006e1e;stroke-width:0.482306px;stroke-linecap:round;stroke-linejoin:round;stroke-miterlimit:1.5" />
    <path
       id="path1166"
       d="m 63.590338,26.378523 c 3.430205,-0.473939 8.344613,0.519322 11.102642,3.241641 1.446452,1.428322 3.254093,7.515351 1.823778,10.871545 -1.113551,2.578729 -4.457094,6.485074 -7.264132,6.926949 -6.200685,0.416652 -10.507964,-0.638656 -12.810971,-6.241725 -1.711914,-3.308978 -1.122914,-4.415656 -1.114746,-7.071584 0.0081,-2.655929 3.961828,-7.538561 8.263629,-7.727423 z"
       style="clip-rule:evenodd;fill:#fffce3;fill-rule:evenodd;stroke:#006e1e;stroke-width:0.546934px" />
    <path
       id="path1182"
       d="m 66.14038,36.04597 c -0.150751,-0.754025 0.06485,-1.433502 0.174299,-2.13566 0.108028,-0.696181 0.631126,-1.139649 1.336979,-1.628939 0.440898,1.899483 -0.140681,3.100991 -1.511298,3.764599 z"
       style="clip-rule:evenodd;fill:#f3dfa6;fill-rule:evenodd;stroke-width:0.437511" />
    <path
       id="path1198"
       d="m 66.218077,36.316912 c 0.666327,-0.240092 0.857461,-0.236287 1.578933,-0.270922 0.691032,-0.03331 1.728451,0.528536 2.367854,1.208779 -1.813319,0.71701 -3.087643,0.319553 -3.946787,-0.937847 z"
       style="clip-rule:evenodd;fill:#f3dfa6;fill-rule:evenodd;stroke-width:0.437511" />
    <path
       id="path1214"
       d="m 66.069656,36.827916 c 0.721323,0.690862 1.286177,1.101598 0.79905,3.191338 -0.01002,0.04213 -0.228488,0.774495 -0.503056,0.689228 -0.200576,-0.06223 -0.414292,-0.54793 -0.525428,-0.800633 -0.566906,-1.290062 -0.434403,-2.084958 0.229444,-3.079873 z"
       style="clip-rule:evenodd;fill:#f3dfa6;fill-rule:evenodd;stroke-width:0.396302" />
    <path
       id="path1230"
       d="m 65.318589,36.453379 c 0.183225,-0.02769 0.116655,0.782664 -0.03548,1.073109 -0.479936,0.915485 -1.29833,1.557219 -2.657721,1.760625 0.384857,-1.650156 1.478725,-2.649454 2.693182,-2.833834 z"
       style="clip-rule:evenodd;fill:#f3dfa6;fill-rule:evenodd;stroke-width:0.437511" />
    <path
       id="path1246"
       d="m 64.805593,34.455182 c 0.431066,0.396512 0.83984,1.596167 0.623873,1.554629 -1.149411,-0.220927 -2.527828,-0.931213 -3.059651,-2.360183 1.089744,0.02339 1.889421,0.302957 2.435688,0.805604 z"
       style="clip-rule:evenodd;fill:#f3dfa6;fill-rule:evenodd;stroke-width:0.437511" />
    <path
       id="path1262"
       d="m 65.792738,31.202883 c -0.590614,-0.06739 -1.207684,0.02747 -1.728749,0.361917 -0.521095,0.334444 -0.907128,0.94736 -0.946345,1.683625 a 0.6431683,0.6431683 0 0 0 0.608175,0.676349 0.6431683,0.6431683 0 0 0 0.676349,-0.608175 c 0.0199,-0.373621 0.146578,-0.534055 0.356936,-0.669067 0.210369,-0.135013 0.543408,-0.205886 0.887753,-0.1666 0.344355,0.03929 0.683501,0.186741 0.89886,0.385664 0.215359,0.198923 0.327611,0.415836 0.306772,0.760221 9.8e-4,-0.01737 -0.0437,0.15618 -0.167366,0.367276 -0.123657,0.211096 -0.306374,0.471758 -0.504391,0.74528 -0.396033,0.547053 -0.856236,1.1011 -1.068925,1.74369 a 0.64322807,0.64322807 0 0 0 -0.03255,0.201832 v 2.299022 a 0.6431683,0.6431683 0 0 0 0.643029,0.643029 0.6431683,0.6431683 0 0 0 0.643407,-0.643029 v -2.147813 c 0.09887,-0.255263 0.465522,-0.802356 0.856734,-1.342756 0.203027,-0.280445 0.405487,-0.563868 0.572554,-0.849074 0.167068,-0.285206 0.318706,-0.560282 0.341616,-0.940218 0.04368,-0.721742 -0.263809,-1.363177 -0.718095,-1.782738 -0.454276,-0.419612 -1.035158,-0.651088 -1.625751,-0.718475 z"
       style="color:#000000;fill:#006e1e;stroke-width:0.196084;stroke-linecap:round;stroke-linejoin:round;stroke-miterlimit:1.5;-inkscape-stroke:none" />
    <ellipse
       id="ellipse1278"
       cx="65.719025"
       cy="41.037479"
       rx="0.5807122"
       ry="0.63372517"
       style="clip-rule:evenodd;fill:#006e1e;fill-rule:evenodd;stroke-width:0.262714" />
    <g
       id="draggable2-9"
       transform="matrix(-0.70435613,0.70435613,-0.70435613,-0.70435613,60.179877,23.741695)">
      <path
         id="path118-4"
         d="m -1.7249,-19.364 c 1.4463,-2.2494 8.0716,-2.1451 8.8932,-1.8235 2.879,1.1265 6.4858,3.0444 7.408,6.271 0.48333,1.6926 -0.0216,2.9043 -0.72778,4.363 -0.26728,0.55309 -0.45185,1.1846 -0.78395,1.7043 -0.34198,0.53642 -0.97778,0.93518 -1.4315,1.3636 -0.47963,0.45247 -0.9037,0.96296 -1.4315,1.3636 -1.9796,1.5019 -4.513,2.3716 -6.8932,1.4901 -2.513,-0.93086 -4.9765,-1.9117 -6.5018,-4.1148 -0.52839,-0.76296 -1.0636,-1.4543 -1.3296,-2.3518 -0.31235,-1.0543 0.02963,-2.1821 0.17099,-3.2383 0.21667,-1.6278 1.7235,-3.6204 2.6272,-5.0272 z"
         style="clip-rule:evenodd;fill:#fef388;fill-rule:evenodd;stroke:#aa0000;stroke-width:0.48148px" />
      <path
         id="path194-3"
         d="m 4.9637,-14.145 c -0.15702,-0.7854 0.067546,-1.4931 0.18156,-2.2245 0.11253,-0.72514 0.52761,-0.68959 1.2628,-1.1988 0.45979,1.9782 -0.016654,2.732 -1.4443,3.4233 z"
         style="clip-rule:evenodd;fill:#fdc72b;fill-rule:evenodd;stroke-width:0.45572" />
      <path
         id="path258-6"
         d="m 5.0444,-13.863 c 0.69405,-0.25008 0.89314,-0.24612 1.6446,-0.28219 0.71978,-0.0347 1.8003,0.55052 2.4663,1.2591 -1.8888,0.74684 -3.2161,0.33285 -4.1109,-0.97687 z"
         style="clip-rule:evenodd;fill:#fdc72b;fill-rule:evenodd;stroke-width:0.45572" />
      <path
         id="path322-9"
         d="m 4.8904,-13.331 c 0.75133,0.7196 1.3397,1.1474 0.83229,3.3241 -0.010434,0.043885 -0.23799,0.80672 -0.52399,0.71791 -0.20893,-0.064817 -0.43153,-0.57073 -0.54729,-0.83394 -0.5905,-1.3438 -0.45248,-2.1718 0.23899,-3.2081 z"
         style="clip-rule:evenodd;fill:#fdc72b;fill-rule:evenodd;stroke-width:0.4128" />
      <path
         id="path386-2"
         d="m 4.1074,-13.723 c 0.19084,-0.02884 0.12151,0.81524 -0.036956,1.1178 -0.4999,0.95358 -1.3524,1.622 -2.7683,1.8339 0.40087,-1.7188 1.5402,-2.7597 2.8052,-2.9517 z"
         style="clip-rule:evenodd;fill:#fdc72b;fill-rule:evenodd;stroke-width:0.45572" />
      <path
         id="path450-9"
         d="m 3.5734,-15.801 c 0.449,0.41301 0.87478,1.6625 0.64982,1.6193 -1.1973,-0.23012 -2.633,-0.96996 -3.1869,-2.4584 1.1351,0.02436 1.9681,0.31556 2.5371,0.83912 z"
         style="clip-rule:evenodd;fill:#fdc72b;fill-rule:evenodd;stroke-width:0.45572" />
      <path
         id="path550-8"
         d="m 4.8092,-13.048 c 0.098466,0.0912 0.15253,0.19135 0.24225,0.28426 0.37809,0.39138 0.60433,0.93364 0.68415,1.43 0.079411,0.49393 -0.33957,1.2402 -1.0549,0.44748 -0.19215,-0.21294 -0.20851,-0.88209 0.016396,-1.6868 0.024846,-0.0889 0.019676,-0.33386 0.019676,-0.33386 0.014121,-0.09699 0.044935,-0.14402 0.092439,-0.14107 z"
         style="clip-rule:evenodd;fill:none;stroke-width:0.029543" />
      <path
         id="path552-9"
         d="m 4.8092,-13.048 c 0.098466,0.0912 0.15253,0.19135 0.24225,0.28426 0.37809,0.39138 0.60433,0.93364 0.68415,1.43 0.079411,0.49393 -0.33957,1.2402 -1.0549,0.44748 -0.19215,-0.21294 -0.20851,-0.88209 0.016396,-1.6868 0.024846,-0.0889 0.019676,-0.33386 0.019676,-0.33386 0.014121,-0.09699 0.044935,-0.14402 0.092439,-0.14107 z"
         style="clip-rule:evenodd;fill:#613e0c;fill-rule:evenodd;stroke-width:0.029543" />
      <path
         id="path554-7"
         d="m 4.8092,-13.048 c 0.098466,0.0912 0.15253,0.19135 0.24225,0.28426 0.37809,0.39138 0.60433,0.93364 0.68415,1.43 0.079411,0.49393 -0.33957,1.2402 -1.0549,0.44748 -0.19215,-0.21294 -0.20851,-0.88209 0.016396,-1.6868 0.024846,-0.0889 0.019676,-0.33386 0.019676,-0.33386 0.014121,-0.09699 0.044935,-0.14402 0.092439,-0.14107 z"
         style="clip-rule:evenodd;fill:#613e0c;fill-rule:evenodd;stroke-width:0.029543" />
      <path
         id="path556-1"
         d="m 4.7962,-13.048 c 0.00417,-5.91e-4 0.00848,-7.68e-4 0.012969,-4.73e-4 0.098466,0.0912 0.15253,0.19135 0.24225,0.28426 0.37809,0.39138 0.60433,0.93364 0.68415,1.43 0.05622,0.3497 -0.13737,0.8259 -0.50908,0.79284 0.31942,-0.0296 0.49091,-0.45741 0.4463,-0.78194 -0.068451,-0.49803 -0.28225,-1.0453 -0.6513,-1.4452 -0.084374,-0.09143 -0.13551,-0.18884 -0.22529,-0.27942 z"
         style="clip-rule:evenodd;fill:#463012;fill-rule:evenodd;stroke-width:0.029543" />
      <path
         id="path558-2"
         d="m 5.2962,-10.541 c -0.16624,0.01427 -0.37395,-0.07793 -0.61547,-0.34556 -0.19215,-0.21294 -0.20851,-0.88209 0.016396,-1.6868 0.024846,-0.0889 0.019676,-0.33386 0.019676,-0.33386 0.014121,-0.09699 0.044935,-0.14402 0.09244,-0.14107 0.049159,0.04553 0.08727,0.09333 0.12426,0.1413 -0.00236,0.01078 -0.00443,0.02233 -0.00623,0.03474 0,0 0.010429,0.24662 -0.019675,0.33389 -0.27974,0.81098 -0.26707,1.4392 -0.074921,1.6521 0.14836,0.16444 0.34252,0.29726 0.46353,0.34521 z"
         style="clip-rule:evenodd;fill:#3a2200;fill-rule:evenodd;stroke-width:0.029543" />
      <path
         id="path560-3"
         d="m 4.7036,-12.604 c 0.017371,-0.1044 0.013176,-0.30344 0.013176,-0.30344 0.014121,-0.09699 0.044935,-0.14402 0.09244,-0.14107 0.045791,0.04242 0.081981,0.0868 0.11664,0.13144 0.025259,0.11028 0.061183,0.23812 0.00939,0.34172 -0.01356,0.02709 -0.021891,0.0756 -0.047357,0.09469 -0.016958,0.0127 -0.048834,-0.0034 -0.065526,-0.0073 -0.057697,-0.01329 -0.09498,-0.06148 -0.11876,-0.11604 z"
         style="clip-rule:evenodd;fill:#b98133;fill-rule:evenodd;stroke-width:0.029543" />
      <path
         id="path562-2"
         d="m 5.0389,-12.422 c -0.02588,0.02874 0.095394,0.86806 0.10898,0.92088 0.024757,0.09604 0.041153,0.18816 0.078318,0.28107 0.039322,0.09832 0.09758,0.19569 0.22083,0.15457 0.14033,-0.0468 0.13687,-0.23779 0.13049,-0.35333 -0.0086,-0.15478 -0.050696,-0.33794 -0.12248,-0.47579 -0.040296,-0.07743 -0.091465,-0.14996 -0.12848,-0.22887 -0.03297,-0.07031 -0.040385,-0.15141 -0.080297,-0.21882 -0.028213,-0.04765 -0.078643,-0.07318 -0.13049,-0.08632 -0.023634,-0.006 -0.057933,-0.01445 -0.07687,0.0066 z"
         style="clip-rule:evenodd;fill:#997661;fill-rule:evenodd;stroke-width:0.029543" />
      <path
         id="path582-9"
         d="m 4.0139,-14.341 c -0.13372,-0.01146 -0.23791,-0.05726 -0.36579,-0.07545 -0.53878,-0.07651 -1.0504,-0.36535 -1.4184,-0.70791 -0.36612,-0.34092 -0.49408,-1.1872 0.5574,-1.0012 0.28244,0.04996 0.70647,0.56786 1.0234,1.341 0.035013,0.0854 0.1896,0.27551 0.1896,0.27551 0.048448,0.0852 0.053032,0.14124 0.013735,0.1681 z"
         style="clip-rule:evenodd;fill:none;stroke-width:0.029543" />
      <path
         id="path584-5"
         d="m 4.0139,-14.341 c -0.13372,-0.01146 -0.23791,-0.05726 -0.36579,-0.07545 -0.53878,-0.07651 -1.0504,-0.36535 -1.4184,-0.70791 -0.36612,-0.34092 -0.49408,-1.1872 0.5574,-1.0012 0.28244,0.04996 0.70647,0.56786 1.0234,1.341 0.035013,0.0854 0.1896,0.27551 0.1896,0.27551 0.048448,0.0852 0.053032,0.14124 0.013735,0.1681 z"
         style="clip-rule:evenodd;fill:#613e0c;fill-rule:evenodd;stroke-width:0.029543" />
      <path
         id="path586-6"
         d="m 4.0139,-14.341 c -0.13372,-0.01146 -0.23791,-0.05726 -0.36579,-0.07545 -0.53878,-0.07651 -1.0504,-0.36535 -1.4184,-0.70791 -0.36612,-0.34092 -0.49408,-1.1872 0.5574,-1.0012 0.28244,0.04996 0.70647,0.56786 1.0234,1.341 0.035013,0.0854 0.1896,0.27551 0.1896,0.27551 0.048448,0.0852 0.053032,0.14124 0.013735,0.1681 z"
         style="clip-rule:evenodd;fill:#613e0c;fill-rule:evenodd;stroke-width:0.029543" />
      <path
         id="path588-8"
         d="m 4.0238,-14.35 c -0.00292,0.003 -0.00622,0.0058 -0.00994,0.0083 -0.13372,-0.01146 -0.23791,-0.05726 -0.36579,-0.07545 -0.53878,-0.07651 -1.0504,-0.36535 -1.4184,-0.70791 -0.25921,-0.24137 -0.39904,-0.73604 -0.085448,-0.93833 -0.23383,0.2196 -0.1063,0.66251 0.12828,0.89116 0.36,0.3509 0.86493,0.65134 1.4018,0.74014 0.12275,0.0203 0.22294,0.06574 0.34943,0.08204 z"
         style="clip-rule:evenodd;fill:#463012;fill-rule:evenodd;stroke-width:0.029543" />
      <path
         id="path590-0"
         d="m 2.0892,-16.02 c 0.1224,-0.11339 0.34293,-0.16826 0.69792,-0.10549 0.28244,0.04996 0.70647,0.56786 1.0234,1.341 0.035013,0.0854 0.1896,0.27551 0.1896,0.27551 0.048448,0.0852 0.053032,0.14124 0.013735,0.1681 -0.066758,-0.0057 -0.12619,-0.02002 -0.18486,-0.03515 -0.00476,-0.01 -0.010226,-0.02035 -0.016427,-0.03124 0,0 -0.15975,-0.18818 -0.18962,-0.27553 -0.27754,-0.81174 -0.6735,-1.2996 -0.95594,-1.3496 -0.21809,-0.03859 -0.45288,-0.0241 -0.57782,0.01242 z"
         style="clip-rule:evenodd;fill:#3a2200;fill-rule:evenodd;stroke-width:0.029543" />
      <path
         id="path592-9"
         d="m 3.8241,-14.757 c 0.050439,0.09305 0.17603,0.24751 0.17603,0.24751 0.048448,0.0852 0.053032,0.14124 0.013735,0.1681 -0.062194,-0.0053 -0.11801,-0.01811 -0.17278,-0.03204 -0.087687,-0.07149 -0.19457,-0.15028 -0.21736,-0.26385 -0.00595,-0.02971 -0.029176,-0.0731 -0.020809,-0.1038 0.00557,-0.02044 0.040636,-0.0273 0.056184,-0.0345 0.053691,-0.02496 0.11271,-0.0098 0.165,0.01859 z"
         style="clip-rule:evenodd;fill:#b98133;fill-rule:evenodd;stroke-width:0.029543" />
      <path
         id="path594-2"
         d="m 3.4478,-14.694 c 0.00276,-0.03858 -0.60859,-0.62629 -0.65177,-0.65962 -0.078542,-0.06057 -0.14807,-0.12317 -0.23448,-0.17365 -0.091431,-0.05341 -0.19722,-0.09445 -0.2692,0.01372 -0.081969,0.12314 0.038104,0.27171 0.11413,0.35895 0.10188,0.11684 0.24763,0.23549 0.38896,0.30014 0.079368,0.03634 0.1643,0.06212 0.24199,0.10164 0.069212,0.03522 0.12489,0.09465 0.1978,0.12332 0.051538,0.02026 0.10701,0.0094 0.15599,-0.01206 0.022332,-0.0098 0.054586,-0.0242 0.056585,-0.05245 z"
         style="clip-rule:evenodd;fill:#997661;fill-rule:evenodd;stroke-width:0.029543" />
      <path
         id="path614-6"
         d="m 5.0545,-14.354 c -0.030917,-0.1306 -0.019978,-0.24389 -0.04268,-0.37104 -0.095748,-0.53569 0.018675,-1.112 0.22905,-1.5686 0.20939,-0.45434 0.97324,-0.84043 1.1253,0.21649 0.040833,0.2839 -0.31856,0.84858 -0.95383,1.3913 -0.070178,0.05996 -0.20243,0.26622 -0.20243,0.26622 -0.065786,0.07265 -0.11758,0.09453 -0.15538,0.06559 z"
         style="clip-rule:evenodd;fill:none;stroke-width:0.029543" />
      <path
         id="path616-4"
         d="m 5.0545,-14.354 c -0.030917,-0.1306 -0.019978,-0.24389 -0.04268,-0.37104 -0.095748,-0.53569 0.018675,-1.112 0.22905,-1.5686 0.20939,-0.45434 0.97324,-0.84043 1.1253,0.21649 0.040833,0.2839 -0.31856,0.84858 -0.95383,1.3913 -0.070178,0.05996 -0.20243,0.26622 -0.20243,0.26622 -0.065786,0.07265 -0.11758,0.09453 -0.15538,0.06559 z"
         style="clip-rule:evenodd;fill:#613e0c;fill-rule:evenodd;stroke-width:0.029543" />
      <path
         id="path618-3"
         d="m 5.0545,-14.354 c -0.030917,-0.1306 -0.019978,-0.24389 -0.04268,-0.37104 -0.095748,-0.53569 0.018675,-1.112 0.22905,-1.5686 0.20939,-0.45434 0.97324,-0.84043 1.1253,0.21649 0.040833,0.2839 -0.31856,0.84858 -0.95383,1.3913 -0.070178,0.05996 -0.20243,0.26622 -0.20243,0.26622 -0.065786,0.07265 -0.11758,0.09453 -0.15538,0.06559 z"
         style="clip-rule:evenodd;fill:#613e0c;fill-rule:evenodd;stroke-width:0.029543" />
      <path
         id="path620-6"
         d="m 5.0655,-14.347 c -0.00379,-0.0018 -0.00747,-0.0041 -0.011031,-0.0068 -0.030917,-0.1306 -0.019978,-0.24389 -0.04268,-0.37104 -0.095748,-0.53569 0.018675,-1.112 0.22905,-1.5686 0.14825,-0.32167 0.57441,-0.60913 0.8646,-0.37449 -0.2817,-0.15347 -0.66254,0.10613 -0.8064,0.40043 -0.22078,0.45164 -0.34832,1.0252 -0.26484,1.5629 0.019085,0.12294 0.00725,0.23232 0.031301,0.35756 z"
         style="clip-rule:evenodd;fill:#463012;fill-rule:evenodd;stroke-width:0.029543" />
      <path
         id="path622-2"
         d="m 6.0477,-16.707 c 0.14597,0.08082 0.26703,0.27315 0.31837,0.62997 0.040833,0.2839 -0.31856,0.84858 -0.95383,1.3913 -0.070178,0.05996 -0.20243,0.26622 -0.20243,0.26622 -0.065786,0.07265 -0.11758,0.09453 -0.15538,0.06559 -0.015438,-0.0652 -0.020435,-0.12613 -0.024401,-0.18658 0.00797,-0.0076 0.016128,-0.01607 0.024541,-0.02537 0,0 0.12881,-0.21057 0.20245,-0.26625 0.6843,-0.51738 1.0239,-1.046 0.9831,-1.3299 C 6.208598,-16.38124 6.12144,-16.59974 6.0477,-16.707 Z"
         style="clip-rule:evenodd;fill:#3a2200;fill-rule:evenodd;stroke-width:0.029543" />
      <path
         id="path624-6"
         d="m 5.3899,-14.664 c -0.072618,0.077 -0.18008,0.24458 -0.18008,0.24458 -0.065786,0.07265 -0.11758,0.09453 -0.15538,0.06559 -0.014371,-0.06075 -0.019684,-0.11776 -0.023573,-0.17414 0.040501,-0.10564 0.081929,-0.2318 0.18268,-0.28895 0.026359,-0.01493 0.060315,-0.05056 0.092096,-0.05222 0.02116,-0.0011 0.038634,0.03007 0.050335,0.04258 0.040493,0.0432 0.044589,0.10398 0.033918,0.16254 z"
         style="clip-rule:evenodd;fill:#b98133;fill-rule:evenodd;stroke-width:0.029543" />
      <path
         id="path626-2"
         d="m 5.2129,-15.002 c 0.037509,-0.0094 0.40466,-0.77387 0.42282,-0.8253 0.032981,-0.09354 0.070713,-0.17916 0.091647,-0.27701 0.022157,-0.10355 0.028064,-0.21686 -0.097188,-0.25142 -0.14259,-0.03937 -0.24618,0.12113 -0.30529,0.22062 -0.079135,0.13329 -0.14628,0.30883 -0.16351,0.4633 -0.0097,0.08675 -0.00765,0.17549 -0.020901,0.26163 -0.011819,0.07675 -0.050865,0.14822 -0.055307,0.22644 -0.00314,0.05529 0.024504,0.10459 0.060222,0.14441 0.016279,0.01815 0.040047,0.04429 0.06751,0.03735 z"
         style="clip-rule:evenodd;fill:#997661;fill-rule:evenodd;stroke-width:0.029543" />
    </g>
  </g>
  <g
     id="g20724"
     transform="translate(-1.0071537,-19.218229)">
    <path
       id="path178"
       d="m 21.657625,57.80835 c 0.756546,2.553827 -4.308175,8.294807 -5.085141,8.705503 -2.722568,1.43908 -6.515556,2.912526 -9.5495074,1.509505 C 5.4316908,67.286994 4.8459782,66.117899 4.2049814,64.636285 3.9615919,64.074878 3.6052634,63.524926 3.429191,62.936225 3.2469626,62.329315 3.3597123,61.590281 3.3316519,60.969306 3.3022965,60.313158 3.1930332,59.661214 3.2341128,59.002387 3.3888186,56.532034 4.7532802,53.400663 6.966537,52.178436 c 2.3364756,-1.289763 4.306582,-1.856251 6.960717,-1.573854 0.91928,0.09767 1.789014,0.143639 2.639094,0.526753 0.998501,0.450172 1.626847,1.441769 2.331694,2.23537 1.087055,1.222327 2.286969,2.844691 2.759524,4.441655 z"
       style="clip-rule:evenodd;fill:#fef388;fill-rule:evenodd;stroke:#aa0000;stroke-width:0.479607px" />
    <path
       id="path242"
       d="m 12.467515,60.301613 c 0.656864,0.371081 1.023602,0.966605 1.475239,1.497751 0.44809,0.526305 0.442491,1.199117 0.353808,2.037145 -1.693885,-0.889367 -2.214054,-2.091333 -1.829057,-3.534995 z"
       style="clip-rule:evenodd;fill:#fdc72b;fill-rule:evenodd;stroke-width:0.429264" />
    <path
       id="path306"
       d="m 12.216495,60.185068 c -0.24851,0.648936 -0.3738,0.788531 -0.810286,1.346841 -0.417987,0.534811 -1.5001415,0.945687 -2.4152677,0.984973 0.6290335,-1.806844 1.7408017,-2.499041 3.2255037,-2.331794 z"
       style="clip-rule:evenodd;fill:#fdc72b;fill-rule:evenodd;stroke-width:0.429264" />
    <path
       id="path370"
       d="m 11.932604,59.747776 c -0.975501,0.09335 -1.642586,0.249944 -2.8832409,-1.450934 -0.024893,-0.03443 -0.4291042,-0.665989 -0.1898286,-0.815386 0.1747475,-0.109173 0.6725834,0.04321 0.9315521,0.122532 1.3218384,0.405307 1.8275634,1.013044 2.1415364,2.143728 z"
       style="clip-rule:evenodd;fill:#fdc72b;fill-rule:evenodd;stroke-width:0.388832" />
    <path
       id="path434"
       d="m 12.692635,59.430017 c -0.09681,0.153889 -0.656307,-0.41477 -0.774654,-0.713912 -0.372765,-0.943177 -0.32522,-1.962436 0.394479,-3.102883 0.979585,1.343255 1.021312,2.79628 0.380175,3.816795 z"
       style="clip-rule:evenodd;fill:#fdc72b;fill-rule:evenodd;stroke-width:0.429264" />
    <path
       id="path498"
       d="m 14.503563,60.326516 c -0.57081,0.06626 -1.724067,-0.398584 -1.554927,-0.532471 0.900613,-0.712557 2.311473,-1.281694 3.714095,-0.761267 -0.715595,0.794786 -1.435693,1.209875 -2.159168,1.293748 z"
       style="clip-rule:evenodd;fill:#fdc72b;fill-rule:evenodd;stroke-width:0.429264" />
    <path
       id="path1094"
       d="m 11.880806,60.360384 c -0.04232,0.119124 -0.108885,0.203156 -0.155931,0.315358 -0.198136,0.472754 -0.583312,0.870182 -0.983161,1.123811 -0.397946,0.252385 -1.1996151,0.167287 -0.7795356,-0.746584 0.1128496,-0.245471 0.6858716,-0.508454 1.4658756,-0.613016 0.08617,-0.01156 0.296263,-0.107112 0.296263,-0.107112 0.08919,-0.02385 0.141348,-0.01466 0.156459,0.02755 z"
       style="clip-rule:evenodd;fill:none;stroke-width:0.0278273" />
    <path
       id="path1096"
       d="m 11.880806,60.360384 c -0.04232,0.119124 -0.108885,0.203156 -0.155931,0.315358 -0.198136,0.472754 -0.583312,0.870182 -0.983161,1.123811 -0.397946,0.252385 -1.1996151,0.167287 -0.7795356,-0.746584 0.1128496,-0.245471 0.6858716,-0.508454 1.4658756,-0.613016 0.08617,-0.01156 0.296263,-0.107112 0.296263,-0.107112 0.08919,-0.02385 0.141348,-0.01466 0.156459,0.02755 z"
       style="clip-rule:evenodd;fill:#613e0c;fill-rule:evenodd;stroke-width:0.0278273" />
    <path
       id="path1098"
       d="m 11.880806,60.360384 c -0.04232,0.119124 -0.108885,0.203156 -0.155931,0.315358 -0.198136,0.472754 -0.583312,0.870182 -0.983161,1.123811 -0.397946,0.252385 -1.1996151,0.167287 -0.7795356,-0.746584 0.1128496,-0.245471 0.6858716,-0.508454 1.4658756,-0.613016 0.08617,-0.01156 0.296263,-0.107112 0.296263,-0.107112 0.08919,-0.02385 0.141348,-0.01466 0.156459,0.02755 z"
       style="clip-rule:evenodd;fill:#613e0c;fill-rule:evenodd;stroke-width:0.0278273" />
    <path
       id="path1100"
       d="m 11.875825,60.349426 c 0.0021,0.0034 0.0038,0.0071 0.0053,0.01105 -0.04232,0.119125 -0.108885,0.203157 -0.155931,0.315359 -0.198137,0.472754 -0.583312,0.870182 -0.983161,1.123811 -0.28174,0.178682 -0.7658592,0.188205 -0.8754611,-0.145781 0.1443961,0.265434 0.5784111,0.254775 0.8426791,0.0955 0.405566,-0.244425 0.799717,-0.632958 1.008561,-1.1011 0.04775,-0.107022 0.113039,-0.187497 0.158043,-0.298872 z"
       style="clip-rule:evenodd;fill:#463012;fill-rule:evenodd;stroke-width:0.0278273" />
    <path
       id="path1102"
       d="m 9.8915741,61.714097 c -0.07416,-0.138569 -0.0716,-0.352613 0.070216,-0.661148 0.1128489,-0.245471 0.6858709,-0.508454 1.4658749,-0.613016 0.08617,-0.01156 0.296263,-0.107112 0.296263,-0.107112 0.08919,-0.02385 0.141348,-0.01466 0.156459,0.02755 -0.02112,0.05948 -0.04832,0.110229 -0.07609,0.160075 -0.01021,0.002 -0.02098,0.0045 -0.03238,0.0076 0,0 -0.209562,0.100727 -0.296283,0.107122 -0.805883,0.05945 -1.344848,0.304012 -1.457707,0.549484 -0.08714,0.18954 -0.1299028,0.406971 -0.1264064,0.529522 z"
       style="clip-rule:evenodd;fill:#3a2200;fill-rule:evenodd;stroke-width:0.0278273" />
    <path
       id="path1104"
       d="m 11.456463,60.434096 c 0.09681,-0.02379 0.267505,-0.101424 0.267505,-0.101424 0.08919,-0.02385 0.141348,-0.01466 0.156459,0.02755 -0.01969,0.0554 -0.04463,0.103227 -0.07038,0.149815 -0.08605,0.06287 -0.183324,0.141488 -0.292249,0.135192 -0.02849,-0.0017 -0.07357,0.0092 -0.09955,-0.0058 -0.0173,-0.01 -0.01519,-0.04354 -0.01805,-0.05942 -0.01,-0.05488 0.01789,-0.10506 0.05627,-0.14593 z"
       style="clip-rule:evenodd;fill:#b98133;fill-rule:evenodd;stroke-width:0.0278273" />
    <path
       id="path1106"
       d="m 11.423591,60.792695 c -0.03449,-0.01171 -0.715784,0.405338 -0.756446,0.436735 -0.07391,0.05714 -0.147543,0.105578 -0.214133,0.172297 -0.07046,0.07059 -0.133081,0.157216 -0.05166,0.248589 0.09268,0.104044 0.256688,0.03003 0.354317,-0.01845 0.130749,-0.06499 0.273621,-0.169538 0.366229,-0.282915 0.05203,-0.06366 0.09578,-0.134913 0.150304,-0.196293 0.04859,-0.05468 0.116016,-0.09125 0.159527,-0.150861 0.03075,-0.04214 0.03409,-0.09527 0.02619,-0.145034 -0.0036,-0.02268 -0.0091,-0.05551 -0.03431,-0.06407 z"
       style="clip-rule:evenodd;fill:#997661;fill-rule:evenodd;stroke-width:0.0278273" />
    <path
       id="path1126"
       d="m 12.581071,60.665193 c 0.112999,0.0567 0.188165,0.13313 0.293693,0.193674 0.444674,0.254974 0.791519,0.68626 0.993859,1.114348 0.201334,0.426056 0.01792,1.211071 -0.837101,0.681409 -0.229663,-0.142284 -0.4199,-0.743387 -0.427371,-1.530423 -8.27e-4,-0.08694 -0.06973,-0.30722 -0.06973,-0.30722 -0.01265,-0.09145 0.0029,-0.142086 0.04665,-0.151867 z"
       style="clip-rule:evenodd;fill:none;stroke-width:0.0278273" />
    <path
       id="path1128"
       d="m 12.581071,60.665193 c 0.112999,0.0567 0.188165,0.13313 0.293693,0.193674 0.444674,0.254974 0.791519,0.68626 0.993859,1.114348 0.201334,0.426056 0.01792,1.211071 -0.837101,0.681409 -0.229663,-0.142284 -0.4199,-0.743387 -0.427371,-1.530423 -8.27e-4,-0.08694 -0.06973,-0.30722 -0.06973,-0.30722 -0.01265,-0.09145 0.0029,-0.142086 0.04665,-0.151867 z"
       style="clip-rule:evenodd;fill:#613e0c;fill-rule:evenodd;stroke-width:0.0278273" />
    <path
       id="path1130"
       d="m 12.581071,60.665193 c 0.112999,0.0567 0.188165,0.13313 0.293693,0.193674 0.444674,0.254974 0.791519,0.68626 0.993859,1.114348 0.201334,0.426056 0.01792,1.211071 -0.837101,0.681409 -0.229663,-0.142284 -0.4199,-0.743387 -0.427371,-1.530423 -8.27e-4,-0.08694 -0.06973,-0.30722 -0.06973,-0.30722 -0.01265,-0.09145 0.0029,-0.142086 0.04665,-0.151867 z"
       style="clip-rule:evenodd;fill:#613e0c;fill-rule:evenodd;stroke-width:0.0278273" />
    <path
       id="path1132"
       d="m 12.570114,60.669178 c 0.0036,-0.0016 0.0075,-0.0029 0.0116,-0.0038 0.112998,0.0567 0.188165,0.13313 0.293693,0.193673 0.444673,0.254975 0.791519,0.68626 0.993858,1.114348 0.142544,0.301643 0.09223,0.783232 -0.252733,0.850768 0.281222,-0.110518 0.324234,-0.542531 0.198794,-0.82445 -0.192498,-0.432641 -0.529402,-0.871736 -0.968139,-1.136761 -0.100308,-0.0606 -0.172108,-0.135322 -0.277078,-0.193733 z"
       style="clip-rule:evenodd;fill:#463012;fill-rule:evenodd;stroke-width:0.0278273" />
    <path
       id="path1134"
       d="m 13.678784,62.805834 c -0.146657,0.05649 -0.358759,0.02752 -0.647421,-0.151289 -0.229663,-0.142285 -0.419901,-0.743387 -0.427371,-1.530424 -8.27e-4,-0.08694 -0.06973,-0.30722 -0.06973,-0.30722 -0.01265,-0.09145 0.0029,-0.142085 0.04665,-0.151867 0.05641,0.0283 0.103416,0.06156 0.149466,0.09527 6.88e-4,0.01038 0.0019,0.02137 0.0035,0.03306 0,0 0.07409,0.220399 0.06974,0.30724 -0.04048,0.807058 0.13567,1.372042 0.365333,1.514386 0.177338,0.109871 0.387816,0.17914 0.509869,0.190805 z"
       style="clip-rule:evenodd;fill:#3a2200;fill-rule:evenodd;stroke-width:0.0278273" />
    <path
       id="path1136"
       d="m 12.601989,61.095513 c -0.01165,-0.09901 -0.06762,-0.277985 -0.06762,-0.277985 -0.01265,-0.09145 0.0029,-0.142085 0.04665,-0.151866 0.05255,0.02638 0.09692,0.05704 0.139984,0.08834 0.05177,0.09316 0.11778,0.199391 0.09809,0.306702 -0.0052,0.02806 1.3e-5,0.07414 -0.01802,0.09808 -0.01201,0.01594 -0.04508,0.0097 -0.06119,0.01058 -0.05568,0.0031 -0.102051,-0.03072 -0.137872,-0.07385 z"
       style="clip-rule:evenodd;fill:#b98133;fill-rule:evenodd;stroke-width:0.0278273" />
    <path
       id="path1138"
       d="m 12.953616,61.172213 c -0.01588,0.03279 0.313875,0.760351 0.340022,0.804578 0.04758,0.08041 0.08656,0.159448 0.144546,0.233757 0.06135,0.07864 0.139585,0.151469 0.240311,0.08195 0.114693,-0.07912 0.06149,-0.251019 0.02543,-0.353878 -0.04835,-0.137772 -0.134455,-0.292458 -0.23555,-0.398344 -0.05676,-0.05949 -0.122063,-0.111694 -0.176242,-0.173383 -0.04826,-0.05496 -0.07623,-0.126396 -0.130012,-0.176929 -0.03802,-0.03572 -0.09034,-0.04559 -0.140691,-0.04389 -0.02295,7.7e-4 -0.0562,0.0021 -0.06781,0.02614 z"
       style="clip-rule:evenodd;fill:#997661;fill-rule:evenodd;stroke-width:0.0278273" />
    <g
       id="g20522"
       transform="translate(-75.086689,-1.9418971)">
      <path
         id="path1150-1"
         d="m 87.866213,47.560095 c 0.120968,0.499699 -0.09699,3.409286 0,3.604325 0.09304,0.187119 1.947395,0.18185 1.947395,0.247742 0,0.08434 -1.685717,3.196916 -2.89858,4.108854 -0.491003,0.36634 -3.213949,-3.437077 -3.033554,-3.900567 0.112013,-0.113328 1.793496,-0.245103 1.793496,-0.139685 0,0.134415 -0.266449,-2.483202 -0.162615,-3.419347 z"
         style="clip-rule:evenodd;fill:#006e1e;fill-rule:evenodd;stroke:#006e1e;stroke-width:0.482306px;stroke-linecap:round;stroke-linejoin:round;stroke-miterlimit:1.5" />
      <path
         id="path1166-4"
         d="m 84.735439,28.536187 c 3.430205,-0.473939 8.344613,0.519322 11.102642,3.241641 1.446452,1.428322 3.254093,7.515351 1.823778,10.871545 -1.113551,2.578729 -4.457094,6.485074 -7.264132,6.926949 -6.200685,0.416652 -10.507964,-0.638656 -12.810971,-6.241725 -1.711914,-3.308978 -1.122914,-4.415656 -1.114746,-7.071584 0.0081,-2.655929 3.961828,-7.538561 8.263629,-7.727423 z"
         style="clip-rule:evenodd;fill:#fffce3;fill-rule:evenodd;stroke:#006e1e;stroke-width:0.546934px" />
      <path
         id="path1182-2"
         d="m 87.285481,38.203634 c -0.150751,-0.754025 0.06485,-1.433502 0.174299,-2.13566 0.108028,-0.696181 0.631126,-1.139649 1.336979,-1.628939 0.440898,1.899483 -0.140681,3.100991 -1.511298,3.764599 z"
         style="clip-rule:evenodd;fill:#f3dfa6;fill-rule:evenodd;stroke-width:0.437511" />
      <path
         id="path1198-3"
         d="m 87.363178,38.474576 c 0.666327,-0.240092 0.857461,-0.236287 1.578933,-0.270922 0.691032,-0.03331 1.728451,0.528536 2.367854,1.208779 -1.813319,0.71701 -3.087643,0.319553 -3.946787,-0.937847 z"
         style="clip-rule:evenodd;fill:#f3dfa6;fill-rule:evenodd;stroke-width:0.437511" />
      <path
         id="path1214-2"
         d="m 87.214757,38.98558 c 0.721323,0.690862 1.286177,1.101598 0.79905,3.191338 -0.01002,0.04214 -0.228488,0.774495 -0.503056,0.689228 -0.200576,-0.06223 -0.414292,-0.54793 -0.525428,-0.800633 -0.566906,-1.290062 -0.434403,-2.084958 0.229444,-3.079873 z"
         style="clip-rule:evenodd;fill:#f3dfa6;fill-rule:evenodd;stroke-width:0.396302" />
      <path
         id="path1230-5"
         d="m 86.46369,38.611043 c 0.183225,-0.02769 0.116655,0.782664 -0.03548,1.073109 -0.479936,0.915485 -1.29833,1.557219 -2.657721,1.760625 0.384857,-1.650156 1.478725,-2.649454 2.693182,-2.833834 z"
         style="clip-rule:evenodd;fill:#f3dfa6;fill-rule:evenodd;stroke-width:0.437511" />
      <path
         id="path1246-0"
         d="m 85.950694,36.612846 c 0.431066,0.396512 0.83984,1.596167 0.623873,1.554629 -1.149411,-0.220927 -2.527828,-0.931213 -3.059651,-2.360183 1.089744,0.02339 1.889421,0.302957 2.435688,0.805604 z"
         style="clip-rule:evenodd;fill:#f3dfa6;fill-rule:evenodd;stroke-width:0.437511" />
      <path
         id="path1262-6"
         d="m 86.937839,33.360547 c -0.590614,-0.06739 -1.207684,0.02747 -1.728749,0.361917 -0.521095,0.334444 -0.907128,0.94736 -0.946345,1.683625 a 0.6431683,0.6431683 0 0 0 0.608175,0.676349 0.6431683,0.6431683 0 0 0 0.676349,-0.608175 c 0.0199,-0.373621 0.146578,-0.534055 0.356936,-0.669067 0.210369,-0.135013 0.543408,-0.205886 0.887753,-0.1666 0.344355,0.03929 0.683501,0.186741 0.89886,0.385664 0.215359,0.198923 0.327611,0.415836 0.306772,0.760221 9.8e-4,-0.01737 -0.0437,0.15618 -0.167366,0.367276 -0.123657,0.211096 -0.306374,0.471758 -0.504391,0.74528 -0.396033,0.547053 -0.856236,1.1011 -1.068925,1.74369 a 0.64322807,0.64322807 0 0 0 -0.03255,0.201832 v 2.299022 a 0.6431683,0.6431683 0 0 0 0.643029,0.643029 0.6431683,0.6431683 0 0 0 0.643407,-0.643029 v -2.147813 c 0.09887,-0.255263 0.465522,-0.802356 0.856734,-1.342756 0.203027,-0.280445 0.405487,-0.563868 0.572554,-0.849074 0.167068,-0.285206 0.318706,-0.560282 0.341616,-0.940218 0.04368,-0.721742 -0.263809,-1.363177 -0.718095,-1.782738 -0.454276,-0.419612 -1.035158,-0.651088 -1.625751,-0.718475 z"
         style="color:#000000;fill:#006e1e;stroke-width:0.196084;stroke-linecap:round;stroke-linejoin:round;stroke-miterlimit:1.5;-inkscape-stroke:none" />
      <ellipse
         id="ellipse1278-0"
         cx="86.864128"
         cy="43.195141"
         rx="0.5807122"
         ry="0.63372517"
         style="clip-rule:evenodd;fill:#006e1e;fill-rule:evenodd;stroke-width:0.262714" />
    </g>
    <g
       id="draggable0-8"
       transform="matrix(0.498055,0.86265656,-0.86265656,0.498055,-30.104407,-21.781011)">
      <path
         id="path178-3"
         d="m 75.299241,-16.568172 c 2.600066,0.624153 5.049067,7.9091591 5.016129,8.7908091 -0.115453,3.089371 -0.738328,7.12662236 -3.481025,9.0601125 -1.43895,1.0138556 -2.74937,0.9362486 -4.359246,0.7498359 C 71.864837,1.9623905 71.207844,1.9961345 70.607643,1.8537134 69.988521,1.7075041 69.402595,1.2385187 68.84863,0.95121457 68.263435,0.64738136 67.641785,0.41513066 67.089616,0.04871576 65.019528,-1.3257866 62.981985,-4.0838599 63.030322,-6.6215809 c 0.05147,-2.67875 0.547862,-4.6759251 2.12563,-6.8416991 0.546349,-0.750204 1.022881,-1.483282 1.782663,-2.030043 0.892583,-0.642139 2.070085,-0.690693 3.113848,-0.905142 1.608349,-0.331544 3.621145,-0.560408 5.246757,-0.169651 z"
         style="clip-rule:evenodd;fill:#fef388;fill-rule:evenodd;stroke:#aa0000;stroke-width:0.48148px" />
      <path
         id="path210-1"
         d="m 72.083,-7.9868 c -0.51205,-0.98554 0.28435,-3.1443 1.4388,-3.4102 0.45803,1.9706 -0.01659,2.7215 -1.4388,3.4102 z"
         style="clip-rule:evenodd;fill:#fdc72b;fill-rule:evenodd;stroke-width:0.45397" />
      <path
         id="path274-6"
         d="m 72.164,-7.7057 c 0.69138,-0.24912 0.88972,-0.24518 1.6383,-0.28111 0.71702,-0.034563 1.7934,0.54841 2.4569,1.2542 -1.8816,0.74398 -3.2038,0.33157 -4.0952,-0.97312 z"
         style="clip-rule:evenodd;fill:#fdc72b;fill-rule:evenodd;stroke-width:0.45397" />
      <path
         id="path338-7"
         d="m 72.01,-7.176 c 0.74845,0.71684 1.3346,1.143 0.82911,3.3113 -0.01039,0.043717 -0.23708,0.80363 -0.52198,0.71516 -0.20813,-0.064569 -0.42988,-0.56854 -0.54519,-0.83074 -0.58824,-1.3386 -0.45075,-2.1634 0.23807,-3.1958 z"
         style="clip-rule:evenodd;fill:#fdc72b;fill-rule:evenodd;stroke-width:0.41121" />
      <path
         id="path402-2"
         d="m 71.23,-7.5641 c 0.19011,-0.028732 0.12104,0.81211 -0.03682,1.1135 -0.49799,0.94993 -1.3472,1.6158 -2.7577,1.8269 0.39933,-1.7122 1.5343,-2.7491 2.7945,-2.9404 z"
         style="clip-rule:evenodd;fill:#fdc72b;fill-rule:evenodd;stroke-width:0.45397" />
      <path
         id="path466-6"
         d="m 70.698,-9.6358 c 0.44728,0.41143 0.87143,1.6562 0.64733,1.6131 -1.1927,-0.22924 -2.6229,-0.96624 -3.1747,-2.449 1.1308,0.02427 1.9605,0.31435 2.5273,0.83591 z"
         style="clip-rule:evenodd;fill:#fdc72b;fill-rule:evenodd;stroke-width:0.45397" />
      <path
         id="path806-2"
         d="m 71.148,-7.4518 c -0.0053,0.1336 -0.04604,0.23938 -0.05825,0.36747 -0.05135,0.53966 -0.31524,1.0621 -0.6392,1.444 -0.32241,0.38001 -1.1586,0.54627 -1.0219,-0.50862 0.03672,-0.28335 0.53259,-0.72913 1.2873,-1.0801 0.08338,-0.03877 0.26544,-0.20135 0.26544,-0.20135 0.08255,-0.05213 0.13811,-0.05927 0.16664,-0.021401 z"
         style="clip-rule:evenodd;fill:none;stroke-width:0.02943" />
      <path
         id="path808-7"
         d="m 71.148,-7.4518 c -0.0053,0.1336 -0.04604,0.23938 -0.05825,0.36747 -0.05135,0.53966 -0.31524,1.0621 -0.6392,1.444 -0.32241,0.38001 -1.1586,0.54627 -1.0219,-0.50862 0.03672,-0.28335 0.53259,-0.72913 1.2873,-1.0801 0.08338,-0.03877 0.26544,-0.20135 0.26544,-0.20135 0.08255,-0.05213 0.13811,-0.05927 0.16664,-0.021401 z"
         style="clip-rule:evenodd;fill:#613e0c;fill-rule:evenodd;stroke-width:0.02943" />
      <path
         id="path810-7"
         d="m 71.148,-7.4518 c -0.0053,0.1336 -0.04604,0.23938 -0.05825,0.36747 -0.05135,0.53966 -0.31524,1.0621 -0.6392,1.444 -0.32241,0.38001 -1.1586,0.54627 -1.0219,-0.50862 0.03672,-0.28335 0.53259,-0.72913 1.2873,-1.0801 0.08338,-0.03877 0.26544,-0.20135 0.26544,-0.20135 0.08255,-0.05213 0.13811,-0.05927 0.16664,-0.021401 z"
         style="clip-rule:evenodd;fill:#613e0c;fill-rule:evenodd;stroke-width:0.02943" />
      <path
         id="path812-7"
         d="m 71.139,-7.4614 c 0.0031,0.00277 0.0061,0.00592 0.0088,0.00951 -0.0053,0.1336 -0.04604,0.23938 -0.05825,0.36747 -0.05135,0.53966 -0.31524,1.0621 -0.6392,1.444 -0.22827,0.26905 -0.71408,0.43094 -0.92981,0.12819 0.22928,0.22259 0.66416,0.075306 0.8809,-0.16865 0.33262,-0.37438 0.60837,-0.89066 0.67204,-1.429 0.01456,-0.12308 0.05516,-0.22487 0.06557,-0.35149 z"
         style="clip-rule:evenodd;fill:#463012;fill-rule:evenodd;stroke-width:0.02943" />
      <path
         id="path814-5"
         d="m 69.566,-5.4594 c -0.11847,-0.11658 -0.18322,-0.33351 -0.13708,-0.68965 0.03672,-0.28335 0.53259,-0.72913 1.2873,-1.0801 0.08338,-0.03877 0.26544,-0.20135 0.26544,-0.20135 0.08255,-0.05213 0.13811,-0.05927 0.16664,-0.021401 -0.0026,0.066694 -0.01411,0.1265 -0.02647,0.18557 -0.0097,0.0052 -0.01978,0.011112 -0.03033,0.017784 0,0 -0.17991,0.16763 -0.26546,0.20136 -0.795,0.31353 -1.2623,0.72999 -1.299,1.0133 -0.02837,0.2188 -0.0031,0.45178 0.03894,0.57442 z"
         style="clip-rule:evenodd;fill:#3a2200;fill-rule:evenodd;stroke-width:0.02943" />
      <path
         id="path816-8"
         d="m 70.743,-7.2439 c 0.09027,-0.054473 0.2382,-0.18656 0.2382,-0.18656 0.08255,-0.05213 0.13811,-0.05927 0.16664,-0.021401 -0.0025,0.062136 -0.0126,0.11827 -0.02394,0.17341 -0.06711,0.090547 -0.1406,0.20053 -0.25256,0.22844 -0.02929,0.00728 -0.0714,0.032396 -0.10234,0.025482 -0.0206,-0.00461 -0.02903,-0.039181 -0.03692,-0.054322 -0.02731,-0.05228 -0.01498,-0.11171 0.01091,-0.16505 z"
         style="clip-rule:evenodd;fill:#b98133;fill-rule:evenodd;stroke-width:0.02943" />
      <path
         id="path818-1"
         d="m 70.823,-6.8723 c -0.03852,-9.7e-4 -0.59523,0.63443 -0.62641,0.67892 -0.05666,0.080944 -0.11576,0.15301 -0.16201,0.24132 -0.04895,0.093441 -0.08491,0.2006 0.02604,0.26726 0.12631,0.075903 0.26863,-0.050417 0.35195,-0.13008 0.11158,-0.10675 0.22295,-0.25725 0.28078,-0.40086 0.03251,-0.080651 0.05426,-0.16635 0.09001,-0.24548 0.03186,-0.070494 0.08844,-0.12863 0.11362,-0.2025 0.01779,-0.052218 0.0045,-0.10692 -0.01918,-0.15468 -0.01077,-0.021773 -0.02659,-0.053205 -0.0548,-0.053896 z"
         style="clip-rule:evenodd;fill:#997661;fill-rule:evenodd;stroke-width:0.02943" />
      <path
         id="path838-8"
         d="m 71.25,-8.4352 c -0.13362,0.00446 -0.24209,-0.02854 -0.37072,-0.031422 -0.54196,-0.01204 -1.0822,-0.23731 -1.4866,-0.53269 -0.40241,-0.29397 -0.62893,-1.1159 0.43309,-1.0562 0.28527,0.01606 0.76587,0.47825 1.1707,1.2055 0.04472,0.08034 0.22008,0.25012 0.22008,0.25012 0.05799,0.078554 0.06914,0.13344 0.03344,0.16465 z"
         style="clip-rule:evenodd;fill:none;stroke-width:0.02943" />
      <path
         id="path840-8"
         d="m 71.25,-8.4352 c -0.13362,0.00446 -0.24209,-0.02854 -0.37072,-0.031422 -0.54196,-0.01204 -1.0822,-0.23731 -1.4866,-0.53269 -0.40241,-0.29397 -0.62893,-1.1159 0.43309,-1.0562 0.28527,0.01606 0.76587,0.47825 1.1707,1.2055 0.04472,0.08034 0.22008,0.25012 0.22008,0.25012 0.05799,0.078554 0.06914,0.13344 0.03344,0.16465 z"
         style="clip-rule:evenodd;fill:#613e0c;fill-rule:evenodd;stroke-width:0.02943" />
      <path
         id="path842-8"
         d="m 71.25,-8.4352 c -0.13362,0.00446 -0.24209,-0.02854 -0.37072,-0.031422 -0.54196,-0.01204 -1.0822,-0.23731 -1.4866,-0.53269 -0.40241,-0.29397 -0.62893,-1.1159 0.43309,-1.0562 0.28527,0.01606 0.76587,0.47825 1.1707,1.2055 0.04472,0.08034 0.22008,0.25012 0.22008,0.25012 0.05799,0.078554 0.06914,0.13344 0.03344,0.16465 z"
         style="clip-rule:evenodd;fill:#613e0c;fill-rule:evenodd;stroke-width:0.02943" />
      <path
         id="path844-2"
         d="m 71.259,-8.4447 c -0.0025,0.00334 -0.0055,0.00649 -0.0088,0.00943 -0.13362,0.00446 -0.24209,-0.02854 -0.37072,-0.031422 -0.54196,-0.01204 -1.0822,-0.23731 -1.4866,-0.53269 -0.2849,-0.20814 -0.48164,-0.68092 -0.19535,-0.91805 -0.20536,0.24484 -0.02689,0.66788 0.23215,0.86633 0.39753,0.30456 0.93247,0.54211 1.474,0.56653 0.12381,0.00558 0.22828,0.038689 0.35532,0.039878 z"
         style="clip-rule:evenodd;fill:#463012;fill-rule:evenodd;stroke-width:0.02943" />
      <path
         id="path846-0"
         d="m 69.148,-9.8687 c 0.10767,-0.12662 0.31933,-0.20694 0.67788,-0.18678 0.28527,0.01606 0.76587,0.47825 1.1707,1.2055 0.04472,0.08034 0.22008,0.25012 0.22008,0.25012 0.05799,0.078554 0.06914,0.13344 0.03344,0.16465 -0.06671,0.00223 -0.12719,-0.00489 -0.187,-0.01293 -0.0059,-0.00929 -0.01252,-0.018916 -0.01994,-0.028962 0,0 -0.18024,-0.16727 -0.2201,-0.25014 -0.37041,-0.77014 -0.81969,-1.2059 -1.105,-1.222 -0.22028,-0.012408 -0.45081,0.029656 -0.57008,0.080531 z"
         style="clip-rule:evenodd;fill:#3a2200;fill-rule:evenodd;stroke-width:0.02943" />
      <path
         id="path848-4"
         d="m 71.013,-8.8239 c 0.06088,0.08608 0.20336,0.22403 0.20336,0.22403 0.05799,0.078554 0.06914,0.13344 0.03344,0.16465 -0.06215,0.00207 -0.11887,-0.00398 -0.17469,-0.011288 -0.09518,-0.060362 -0.21021,-0.12567 -0.24617,-0.23531 -0.0094,-0.028681 -0.03749,-0.068859 -0.03284,-0.10022 0.0031,-0.020878 0.03697,-0.031803 0.0515,-0.040763 0.05016,-0.03103 0.11032,-0.023054 0.1654,-0.0011 z"
         style="clip-rule:evenodd;fill:#b98133;fill-rule:evenodd;stroke-width:0.02943" />
      <path
         id="path850-3"
         d="m 70.648,-8.7177 c -0.0018,-0.038487 -0.67596,-0.54761 -0.7226,-0.57547 -0.08484,-0.050634 -0.16101,-0.10435 -0.25245,-0.14407 -0.09675,-0.042036 -0.20624,-0.070129 -0.26466,0.045371 -0.06654,0.13148 0.06978,0.26426 0.15528,0.34158 0.11457,0.10353 0.27275,0.20368 0.42019,0.25094 0.0828,0.026567 0.16985,0.042043 0.25136,0.071954 0.07262,0.026663 0.13471,0.07887 0.21022,0.098617 0.05337,0.013957 0.10696,-0.00332 0.15288,-0.030357 0.02093,-0.01232 0.05114,-0.03038 0.04978,-0.058564 z"
         style="clip-rule:evenodd;fill:#997661;fill-rule:evenodd;stroke-width:0.02943" />
      <path
         id="path870-5"
         d="m 72.23,-8.2902 c -0.02911,-0.13049 -0.01674,-0.24319 -0.03771,-0.37014 -0.08844,-0.53484 0.033,-1.1074 0.24846,-1.5595 0.21445,-0.44986 0.9803,-0.82454 1.1181,0.23021 0.037,0.28332 -0.3283,0.84113 -0.96811,1.3735 -0.07068,0.058812 -0.20509,0.26256 -0.20509,0.26256 -0.06647,0.071517 -0.11835,0.092634 -0.15562,0.063326 z"
         style="clip-rule:evenodd;fill:none;stroke-width:0.02943" />
      <path
         id="path872-8"
         d="m 72.23,-8.2902 c -0.02911,-0.13049 -0.01674,-0.24319 -0.03771,-0.37014 -0.08844,-0.53484 0.033,-1.1074 0.24846,-1.5595 0.21445,-0.44986 0.9803,-0.82454 1.1181,0.23021 0.037,0.28332 -0.3283,0.84113 -0.96811,1.3735 -0.07068,0.058812 -0.20509,0.26256 -0.20509,0.26256 -0.06647,0.071517 -0.11835,0.092634 -0.15562,0.063326 z"
         style="clip-rule:evenodd;fill:#613e0c;fill-rule:evenodd;stroke-width:0.02943" />
      <path
         id="path874-7"
         d="m 72.23,-8.2902 c -0.02911,-0.13049 -0.01674,-0.24319 -0.03771,-0.37014 -0.08844,-0.53484 0.033,-1.1074 0.24846,-1.5595 0.21445,-0.44986 0.9803,-0.82454 1.1181,0.23021 0.037,0.28332 -0.3283,0.84113 -0.96811,1.3735 -0.07068,0.058812 -0.20509,0.26256 -0.20509,0.26256 -0.06647,0.071517 -0.11835,0.092634 -0.15562,0.063326 z"
         style="clip-rule:evenodd;fill:#613e0c;fill-rule:evenodd;stroke-width:0.02943" />
      <path
         id="path876-3"
         d="m 72.241,-8.2832 c -0.0037,-0.00187 -0.0074,-0.00417 -0.0109,-0.00695 -0.02911,-0.13049 -0.01674,-0.24319 -0.03771,-0.37014 -0.08844,-0.53484 0.033,-1.1074 0.24846,-1.5595 0.15183,-0.31849 0.58005,-0.5993 0.86606,-0.36183 -0.2786,-0.15651 -0.66132,0.09713 -0.80842,0.38842 -0.22576,0.44702 -0.36023,1.0167 -0.28404,1.5534 0.01742,0.12271 0.0042,0.2315 0.02655,0.35657 z"
         style="clip-rule:evenodd;fill:#463012;fill-rule:evenodd;stroke-width:0.02943" />
      <path
         id="path878-2"
         d="m 73.25,-10.621 c 0.14435,0.08239 0.26245,0.27554 0.30897,0.63162 0.037,0.28332 -0.3283,0.84113 -0.96811,1.3735 -0.07068,0.058812 -0.20509,0.26256 -0.20509,0.26256 -0.06647,0.071517 -0.11835,0.092634 -0.15562,0.063326 -0.01453,-0.065143 -0.01872,-0.1259 -0.02189,-0.18616 0.008,-0.0075 0.01627,-0.015801 0.02477,-0.024953 0,0 0.13103,-0.20808 0.2051,-0.26258 0.68832,-0.5065 1.0335,-1.0287 0.99647,-1.312 -0.02856,-0.21877 -0.11255,-0.43754 -0.18461,-0.54534 z"
         style="clip-rule:evenodd;fill:#3a2200;fill-rule:evenodd;stroke-width:0.02943" />
      <path
         id="path880-2"
         d="m 72.568,-8.5948 c -0.07333,0.075757 -0.18254,0.24129 -0.18254,0.24129 -0.06647,0.071517 -0.11835,0.092634 -0.15562,0.063326 -0.01353,-0.060694 -0.01808,-0.11755 -0.02123,-0.17376 0.04171,-0.1047 0.08461,-0.22983 0.1857,-0.28545 0.02645,-0.014534 0.06073,-0.049586 0.09241,-0.050818 0.02109,-8.165e-4 0.03809,0.030448 0.04959,0.043068 0.03977,0.043553 0.04307,0.10415 0.03168,0.16235 z"
         style="clip-rule:evenodd;fill:#b98133;fill-rule:evenodd;stroke-width:0.02943" />
      <path
         id="path882-6"
         d="m 72.396,-8.9337 c 0.03749,-0.00892 0.41309,-0.76561 0.43185,-0.8166 0.03406,-0.092746 0.07276,-0.17754 0.09487,-0.27474 0.02341,-0.10285 0.03076,-0.21565 -0.09355,-0.2517 -0.14152,-0.04106 -0.24679,0.11747 -0.30695,0.2158 -0.08055,0.13175 -0.1497,0.30573 -0.16887,0.45936 -0.01079,0.086284 -0.0099,0.1747 -0.0242,0.26034 -0.01277,0.0763 -0.05258,0.14698 -0.05802,0.22483 -0.0038,0.055033 0.02305,0.1045 0.05812,0.14462 0.01598,0.018293 0.03932,0.044631 0.06676,0.038081 z"
         style="clip-rule:evenodd;fill:#997661;fill-rule:evenodd;stroke-width:0.02943" />
    </g>
  </g>
  <text
     xml:space="preserve"
     style="font-style:normal;font-weight:normal;font-size:6.14509px;line-height:1.25;font-family:sans-serif;fill:#000000;fill-opacity:1;stroke:none;stroke-width:0.153627"
     x="9.1693058"
     y="4.6925592"
     id="text8085"><tspan
       sodipodi:role="line"
       style="stroke-width:0.153627"
       x="9.1693058"
       y="4.6925592"
       id="tspan21448">A</tspan></text>
  <text
     xml:space="preserve"
     style="font-style:normal;font-weight:normal;font-size:6.14509px;line-height:1.25;font-family:sans-serif;fill:#000000;fill-opacity:1;stroke:none;stroke-width:0.153627"
     x="36.198154"
     y="4.4797945"
     id="text8085-3"><tspan
       sodipodi:role="line"
       style="stroke-width:0.153627"
       x="36.198154"
       y="4.4797945"
       id="tspan21448-6">B</tspan></text>
</svg>
