<?xml version="1.0" encoding="UTF-8" standalone="no"?>
<svg
   id="svg3224"
   width="106.65467mm"
   height="53.906601mm"
   version="1.1"
   viewBox="0 0 106.65467 53.906601"
   sodipodi:docname="2023-CZ-03-explanation1-compatible.svg"
   inkscape:version="1.1.1 (3bf5ae0d25, 2021-09-20)"
   xmlns:inkscape="http://www.inkscape.org/namespaces/inkscape"
   xmlns:sodipodi="http://sodipodi.sourceforge.net/DTD/sodipodi-0.dtd"
   xmlns="http://www.w3.org/2000/svg"
   xmlns:svg="http://www.w3.org/2000/svg">
  <defs
     id="defs3872" />
  <sodipodi:namedview
     id="namedview3870"
     pagecolor="#ffffff"
     bordercolor="#666666"
     borderopacity="1.0"
     inkscape:pageshadow="2"
     inkscape:pageopacity="0.0"
     inkscape:pagecheckerboard="0"
     inkscape:document-units="mm"
     showgrid="false"
     inkscape:snap-others="false"
     inkscape:snap-nodes="false"
     inkscape:zoom="1.7341784"
     inkscape:cx="250.55092"
     inkscape:cy="30.850344"
     inkscape:window-width="2048"
     inkscape:window-height="1017"
     inkscape:window-x="-8"
     inkscape:window-y="-8"
     inkscape:window-maximized="1"
     inkscape:current-layer="svg3224" />
  <g
     id="ignore"
     transform="matrix(0.99611,0,0,0.99611,27.100601,-8.3702303)">
    <path
       id="path142"
       d="m 72.517,38.192 c 2.2214,1.4889 2.5738,7.0658 1.9406,8.833 -1.0427,2.9109 -3.4545,6.5199 -6.698,7.3804 -1.7015,0.45098 -2.9034,-0.07696 -4.3483,-0.81081 -0.54789,-0.27778 -1.1757,-0.47435 -1.6891,-0.81629 -0.5298,-0.35214 -0.91637,-0.99542 -1.336,-1.4572 -0.44324,-0.48817 -0.94556,-0.92189 -1.336,-1.4572 -1.4638,-2.0079 -2.2851,-4.5573 -1.3585,-6.9203 0.97859,-2.4948 2.0062,-4.9392 4.238,-6.4222 0.77289,-0.51376 1.4743,-1.0357 2.3768,-1.2846 1.0601,-0.29219 2.1811,0.07122 3.2344,0.23268 1.6233,0.24765 3.5868,1.7921 4.9762,2.7225 z"
       style="clip-rule:evenodd;fill:#fef388;fill-rule:evenodd;stroke:#aa0000;stroke-width:0.48148px" />
    <path
       id="path154"
       d="m 72.533,38.275 c 2.2214,1.4889 2.5738,7.0658 1.9406,8.833 -1.0427,2.9109 -3.4545,6.5199 -6.698,7.3804 -1.7015,0.45098 -2.9034,-0.07696 -4.3483,-0.81081 -0.54789,-0.27778 -1.1757,-0.47435 -1.6891,-0.81629 -0.5298,-0.35214 -0.91637,-0.99542 -1.336,-1.4572 -0.44324,-0.48817 -0.94556,-0.92189 -1.336,-1.4572 -1.4638,-2.0079 -2.2851,-4.5573 -1.3585,-6.9203 0.97859,-2.4948 2.0062,-4.9392 4.238,-6.4222 0.77289,-0.51376 1.4743,-1.0357 2.3768,-1.2846 1.0601,-0.29219 2.1811,0.07122 3.2344,0.23268 1.6233,0.24765 3.5868,1.7921 4.9762,2.7225 z"
       style="clip-rule:evenodd;fill:#fef388;fill-rule:evenodd;stroke:#aa0000;stroke-width:0.48148px" />
    <path
       id="path162"
       d="m 47.48,43.203 c 0.78911,2.5551 -2.4471,7.1106 -4.0514,8.0854 -2.6424,1.6057 -6.788,2.8923 -9.8502,1.5195 -1.6061,-0.72046 -2.2077,-1.8872 -2.8687,-3.3669 -0.25093,-0.5607 -0.6151,-1.1086 -0.79878,-1.6974 -0.19007,-0.6071 -0.08559,-1.3503 -0.12106,-1.9733 -0.03719,-0.65832 -0.15455,-1.3115 -0.12106,-1.9733 0.12623,-2.4816 1.0926,-4.9797 3.3,-6.2327 2.3306,-1.3227 4.6677,-2.5755 7.3354,-2.3232 0.92396,0.08722 1.7975,0.12313 2.6554,0.49771 1.0077,0.44015 1.6501,1.4281 2.367,2.2165 1.1056,1.2142 1.6593,3.6502 2.1534,5.2476 z"
       style="clip-rule:evenodd;fill:#fef388;fill-rule:evenodd;stroke:#aa0000;stroke-width:0.48148px" />
    <path
       id="path170"
       d="m 20.136,43.276 c 0.69257,2.583 -3.8393,7.417 -4.6298,7.8089 C 12.7366,52.4585 8.8918,53.8388 5.8834,52.352 4.3055,51.57172 3.7481,50.3832 3.1432,48.8798 2.91351,48.31008 2.57018,47.7489 2.40875,47.1536 2.24162,46.53979 2.373946,45.801 2.361902,45.1772 2.349469,44.51795 2.256732,43.8608 2.315054,43.2008 c 0.21936,-2.4751 1.2789,-4.9351 3.5318,-6.1043 2.3787,-1.2342 4.7612,-2.3983 7.4175,-2.0461 0.92003,0.12187 1.7916,0.19057 2.6349,0.59711 0.99043,0.47769 1.5953,1.4891 2.282,2.3039 1.0592,1.2548 1.521,3.71 1.9547,5.3248 z"
       style="clip-rule:evenodd;fill:#fef388;fill-rule:evenodd;stroke:#aa0000;stroke-width:0.48148px" />
    <path
       id="path178"
       d="m -5.714,42.626 c 0.7595,2.5638 -4.325,8.3272 -5.105,8.7395 -2.7332,1.4447 -6.541,2.9239 -9.5868,1.5154 -1.5975,-0.73924 -2.1855,-1.9129 -2.829,-3.4003 -0.24434,-0.5636 -0.60206,-1.1157 -0.77882,-1.7067 -0.18294,-0.60928 -0.06975,-1.3512 -0.09792,-1.9746 -0.02947,-0.65871 -0.13916,-1.3132 -0.09792,-1.9746 0.15531,-2.48 1.5251,-5.6236 3.747,-6.8506 2.3456,-1.2948 4.3234,-1.8635 6.9879,-1.58 0.92287,0.09805 1.796,0.1442 2.6494,0.52881 1.0024,0.45193 1.6332,1.4474 2.3408,2.2441 1.0913,1.2271 2.2959,2.8558 2.7703,4.459 z"
       style="clip-rule:evenodd;fill:#fef388;fill-rule:evenodd;stroke:#aa0000;stroke-width:0.48148px" />
    <path
       id="path218"
       d="m 67.194,44.77 c 1.0248,-0.5079 3.2321,0.35452 3.4831,1.5484 -2.0381,0.43294 -2.802,-0.07051 -3.4831,-1.5484 z"
       style="clip-rule:evenodd;fill:#fdc72b;fill-rule:evenodd;stroke-width:0.46753" />
    <path
       id="path226"
       d="m 38.946,45.081 c 1.084,0.24315 2.2227,2.2434 1.6823,3.2979 -1.8029,-0.91912 -2.0717,-1.7661 -1.6823,-3.2979 z"
       style="clip-rule:evenodd;fill:#fdc72b;fill-rule:evenodd;stroke-width:0.4541" />
    <path
       id="path234"
       d="m 11.525,44.824 c 0.68169,0.40871 1.0517,1.0459 1.5129,1.6176 0.45758,0.5665 0.1545,0.84768 0.03803,1.7275 -1.7599,-0.98217 -1.9957,-1.8351 -1.5509,-3.3451 z"
       style="clip-rule:evenodd;fill:#fdc72b;fill-rule:evenodd;stroke-width:0.45224" />
    <path
       id="path242"
       d="m -14.94,45.129 c 0.65943,0.37253 1.0276,0.97038 1.481,1.5036 0.44984,0.52836 0.44422,1.2038 0.35519,2.0451 -1.7005,-0.89284 -2.2227,-2.0995 -1.8362,-3.5488 z"
       style="clip-rule:evenodd;fill:#fdc72b;fill-rule:evenodd;stroke-width:0.43094" />
    <path
       id="path282"
       d="m 66.904,44.849 c 0.24294,0.7168 0.23499,0.92093 0.25729,1.6924 0.02151,0.73898 -0.5999,1.8359 -1.3397,2.5052 -0.72912,-1.952 -0.27852,-3.3054 1.0824,-4.1976 z"
       style="clip-rule:evenodd;fill:#fdc72b;fill-rule:evenodd;stroke-width:0.46753" />
    <path
       id="path290"
       d="m 38.679,44.962 c -0.25482,0.68952 -0.38561,0.83873 -0.8404,1.4347 -0.4355,0.5709 -1.5751,1.0189 -2.5426,1.0718 0.64297,-1.919 1.8104,-2.665 3.383,-2.5065 z"
       style="clip-rule:evenodd;fill:#fdc72b;fill-rule:evenodd;stroke-width:0.45409" />
    <path
       id="path298"
       d="m 11.264,44.695 c -0.2794,0.67668 -0.41515,0.82029 -0.89006,1.3963 -0.45478,0.55187 -1.6057,0.95513 -2.5705,0.97158 0.71169,-1.8858 1.9014,-2.5845 3.4606,-2.3679 z"
       style="clip-rule:evenodd;fill:#fdc72b;fill-rule:evenodd;stroke-width:0.45224" />
    <path
       id="path306"
       d="m -15.192,45.012 c -0.24948,0.65147 -0.37526,0.79161 -0.81345,1.3521 -0.41962,0.5369 -1.506,0.94938 -2.4247,0.98882 0.63149,-1.8139 1.7476,-2.5088 3.2381,-2.3409 z"
       style="clip-rule:evenodd;fill:#fdc72b;fill-rule:evenodd;stroke-width:0.43094" />
    <path
       id="path346"
       d="m 66.361,44.679 c -0.75281,0.75659 -1.2031,1.3517 -3.4259,0.78871 -0.04481,-0.01156 -0.82282,-0.25989 -0.72614,-0.55151 0.07057,-0.21304 0.59385,-0.43148 0.8661,-0.54506 1.3899,-0.57942 2.2365,-0.42165 3.2859,0.30787 z"
       style="clip-rule:evenodd;fill:#fdc72b;fill-rule:evenodd;stroke-width:0.4235" />
    <path
       id="path354"
       d="m 38.374,44.502 c -1.0307,0.11085 -1.7344,0.28476 -3.0679,-1.499 -0.02676,-0.03612 -0.46216,-0.69916 -0.21091,-0.86015 0.18349,-0.11765 0.71198,0.03736 0.9869,0.11806 1.4032,0.41233 1.9458,1.0489 2.2919,2.2411 z"
       style="clip-rule:evenodd;fill:#fdc72b;fill-rule:evenodd;stroke-width:0.41133" />
    <path
       id="path362"
       d="M 10.976,44.226 C 9.9461,44.29775 9.2393,44.44451 7.9789,42.6194 7.953625,42.58245 7.54512,41.9063 7.80118,41.75548 c 0.18702,-0.11022 0.70717,0.06383 0.97775,0.15442 1.3811,0.46286 1.8972,1.1167 2.197,2.3161 z"
       style="clip-rule:evenodd;fill:#fdc72b;fill-rule:evenodd;stroke-width:0.40964" />
    <path
       id="path370"
       d="m -15.477,44.573 c -0.97931,0.09372 -1.649,0.25092 -2.8945,-1.4566 -0.02499,-0.03457 -0.43078,-0.66859 -0.19057,-0.81857 0.17543,-0.1096 0.67521,0.04338 0.93519,0.12301 1.327,0.40689 1.8347,1.017 2.1499,2.1521 z"
       style="clip-rule:evenodd;fill:#fdc72b;fill-rule:evenodd;stroke-width:0.39035" />
    <path
       id="path410"
       d="m 66.777,43.884 c 0.02585,0.19632 -0.83859,0.10869 -1.1458,-0.05977 -0.96834,-0.53142 -1.6373,-1.4189 -1.827,-2.8754 1.7552,0.4448 2.8006,1.6338 2.9728,2.9351 z"
       style="clip-rule:evenodd;fill:#fdc72b;fill-rule:evenodd;stroke-width:0.46753" />
    <path
       id="path418"
       d="m 39.173,44.157 c -0.1005,0.16398 -0.69937,-0.4306 -0.82827,-0.74555 -0.406,-0.99304 -0.36836,-2.0718 0.37879,-3.287 1.0528,1.4087 1.115,2.9451 0.44948,4.0326 z"
       style="clip-rule:evenodd;fill:#fdc72b;fill-rule:evenodd;stroke-width:0.45409" />
    <path
       id="path426"
       d="m 11.785,43.911 c -0.10615,0.15943 -0.67991,-0.4547 -0.79641,-0.77297 -0.3669,-1.0035 -0.28907,-2.0756 0.49996,-3.2571 0.99509,1.4413 0.99944,2.9728 0.29644,4.0301 z"
       style="clip-rule:evenodd;fill:#fdc72b;fill-rule:evenodd;stroke-width:0.45224" />
    <path
       id="path434"
       d="m -14.714,44.254 c -0.09719,0.15449 -0.65887,-0.41639 -0.77768,-0.7167 -0.37422,-0.94686 -0.32649,-1.9701 0.39602,-3.115 0.98341,1.3485 1.0253,2.8072 0.38166,3.8317 z"
       style="clip-rule:evenodd;fill:#fdc72b;fill-rule:evenodd;stroke-width:0.43094" />
    <path
       id="path474"
       d="m 68.92,43.376 c -0.43242,0.45247 -1.7224,0.86478 -1.6737,0.63488 0.25946,-1.2236 1.0464,-2.6818 2.584,-3.2208 -0.04719,1.1639 -0.36217,2.0125 -0.91033,2.5859 z"
       style="clip-rule:evenodd;fill:#fdc72b;fill-rule:evenodd;stroke-width:0.46753" />
    <path
       id="path482"
       d="m 41.101,45.085 c -0.60297,0.07717 -1.8287,-0.40023 -1.6513,-0.54395 0.94381,-0.7649 2.4292,-1.3844 3.9192,-0.85132 -0.74709,0.84959 -1.5036,1.2976 -2.2679,1.3953 z"
       style="clip-rule:evenodd;fill:#fdc72b;fill-rule:evenodd;stroke-width:0.4541" />
    <path
       id="path490"
       d="m 13.668,44.906 c -0.60297,0.05423 -1.8049,-0.46674 -1.6231,-0.60314 0.96791,-0.72593 2.4693,-1.2869 3.9323,-0.7006 -0.7753,0.81757 -1.545,1.2351 -2.3092,1.3037 z"
       style="clip-rule:evenodd;fill:#fdc72b;fill-rule:evenodd;stroke-width:0.45224" />
    <path
       id="path498"
       d="m -12.896,45.154 c -0.57304,0.06652 -1.7308,-0.40014 -1.561,-0.53455 0.90413,-0.71534 2.3205,-1.2867 3.7286,-0.76424 -0.71839,0.79789 -1.4413,1.2146 -2.1676,1.2988 z"
       style="clip-rule:evenodd;fill:#fdc72b;fill-rule:evenodd;stroke-width:0.43094" />
    <path
       id="path902"
       d="m 66.029,44.596 c -0.09547,0.09922 -0.19926,0.15271 -0.29632,0.24293 -0.40885,0.38017 -0.96949,0.60163 -1.4801,0.6738 -0.50819,0.0718 -1.2655,-0.37256 -0.43837,-1.0908 0.22218,-0.19293 0.90887,-0.19663 1.7299,0.0498 0.0907,0.02722 0.34207,0.02671 0.34207,0.02671 0.09921,0.01638 0.14685,0.04891 0.14289,0.09758 z"
       style="clip-rule:evenodd;fill:none;stroke-width:0.030309" />
    <path
       id="path904"
       d="m 66.029,44.596 c -0.09547,0.09922 -0.19926,0.15271 -0.29632,0.24293 -0.40885,0.38017 -0.96949,0.60163 -1.4801,0.6738 -0.50819,0.0718 -1.2655,-0.37256 -0.43837,-1.0908 0.22218,-0.19293 0.90887,-0.19663 1.7299,0.0498 0.0907,0.02722 0.34207,0.02671 0.34207,0.02671 0.09921,0.01638 0.14685,0.04891 0.14289,0.09758 z"
       style="clip-rule:evenodd;fill:#613e0c;fill-rule:evenodd;stroke-width:0.030309" />
    <path
       id="path906"
       d="m 66.029,44.596 c -0.09547,0.09922 -0.19926,0.15271 -0.29632,0.24293 -0.40885,0.38017 -0.96949,0.60163 -1.4801,0.6738 -0.50819,0.0718 -1.2655,-0.37256 -0.43837,-1.0908 0.22218,-0.19293 0.90887,-0.19663 1.7299,0.0498 0.0907,0.02722 0.34207,0.02671 0.34207,0.02671 0.09921,0.01638 0.14685,0.04891 0.14289,0.09758 z"
       style="clip-rule:evenodd;fill:#613e0c;fill-rule:evenodd;stroke-width:0.030309" />
    <path
       id="path908"
       d="m 66.029,44.583 c 5.25e-4,0.0043 6.22e-4,0.0087 2.31e-4,0.01331 -0.09547,0.09922 -0.19926,0.15271 -0.29632,0.24293 -0.40885,0.38017 -0.96949,0.60163 -1.4801,0.6738 -0.3598,0.05083 -0.84447,-0.15706 -0.80329,-0.53769 0.02412,0.32822 0.45959,0.51249 0.79334,0.47308 0.51219,-0.06047 1.0777,-0.26908 1.4952,-0.6398 0.09544,-0.08476 0.19635,-0.13531 0.29101,-0.22563 z"
       style="clip-rule:evenodd;fill:#463012;fill-rule:evenodd;stroke-width:0.030309" />
    <path
       id="path910"
       d="m 63.448,45.046 c -0.01138,-0.1708 0.08725,-0.38206 0.36649,-0.62455 0.22218,-0.19293 0.90887,-0.19663 1.7299,0.0498 0.0907,0.02722 0.34207,0.02671 0.34207,0.02671 0.09921,0.01638 0.14685,0.04891 0.14289,0.09758 -0.04766,0.04953 -0.09743,0.08769 -0.14737,0.12469 -0.01102,-0.0026 -0.02282,-0.005 -0.03552,-0.0071 0,0 -0.25318,0.0059 -0.3421,-0.02671 -0.82638,-0.3028 -1.471,-0.30208 -1.6932,-0.10916 -0.17157,0.14897 -0.31161,0.34552 -0.36316,0.46871 z"
       style="clip-rule:evenodd;fill:#3a2200;fill-rule:evenodd;stroke-width:0.030309" />
    <path
       id="path912"
       d="m 65.575,44.479 c 0.10675,0.01986 0.31099,0.01945 0.31099,0.01945 0.09921,0.01638 0.14685,0.04891 0.14289,0.09758 -0.04441,0.04614 -0.09063,0.08239 -0.1371,0.11707 -0.11362,0.02375 -0.24544,0.0581 -0.3507,0.003 -0.02752,-0.01444 -0.07712,-0.02393 -0.0962,-0.05043 -0.0127,-0.01764 0.0045,-0.05002 0.0088,-0.06707 0.01476,-0.05892 0.06492,-0.09622 0.12135,-0.11955 z"
       style="clip-rule:evenodd;fill:#b98133;fill-rule:evenodd;stroke-width:0.030309" />
    <path
       id="path914"
       d="m 65.382,44.819 c -0.02898,-0.02711 -0.89227,0.08087 -0.94671,0.09378 -0.099,0.02352 -0.19381,0.03853 -0.28984,0.07484 -0.10162,0.03841 -0.20264,0.09626 -0.16286,0.22349 0.04526,0.14486 0.24123,0.14504 0.35988,0.14076 0.15893,-0.0058 0.34763,-0.04539 0.49043,-0.11633 0.08021,-0.03982 0.15561,-0.09089 0.23727,-0.12731 0.07277,-0.03244 0.15609,-0.03846 0.22603,-0.07809 0.04943,-0.02801 0.0766,-0.07924 0.0911,-0.13216 0.0066,-0.02412 0.01595,-0.05914 -0.0053,-0.07898 z"
       style="clip-rule:evenodd;fill:#997661;fill-rule:evenodd;stroke-width:0.030309" />
    <path
       id="path934"
       d="m 66.845,45.253 c 0.04328,0.13071 0.04223,0.24747 0.07681,0.37539 0.14578,0.53892 0.08039,1.1382 -0.09378,1.6236 -0.17335,0.48308 -0.91948,0.94599 -1.1694,-0.1206 -0.06713,-0.2865 0.24967,-0.89576 0.85037,-1.5073 0.06636,-0.06755 0.18308,-0.29019 0.18308,-0.29019 0.06074,-0.08014 0.11172,-0.10712 0.15293,-0.08094 z"
       style="clip-rule:evenodd;fill:none;stroke-width:0.030309" />
    <path
       id="path936"
       d="m 66.845,45.253 c 0.04328,0.13071 0.04223,0.24747 0.07681,0.37539 0.14578,0.53892 0.08039,1.1382 -0.09378,1.6236 -0.17335,0.48308 -0.91948,0.94599 -1.1694,-0.1206 -0.06713,-0.2865 0.24967,-0.89576 0.85037,-1.5073 0.06636,-0.06755 0.18308,-0.29019 0.18308,-0.29019 0.06074,-0.08014 0.11172,-0.10712 0.15293,-0.08094 z"
       style="clip-rule:evenodd;fill:#613e0c;fill-rule:evenodd;stroke-width:0.030309" />
    <path
       id="path938"
       d="m 66.845,45.253 c 0.04328,0.13071 0.04223,0.24747 0.07681,0.37539 0.14578,0.53892 0.08039,1.1382 -0.09378,1.6236 -0.17335,0.48308 -0.91948,0.94599 -1.1694,-0.1206 -0.06713,-0.2865 0.24967,-0.89576 0.85037,-1.5073 0.06636,-0.06755 0.18308,-0.29019 0.18308,-0.29019 0.06074,-0.08014 0.11172,-0.10712 0.15293,-0.08094 z"
       style="clip-rule:evenodd;fill:#613e0c;fill-rule:evenodd;stroke-width:0.030309" />
    <path
       id="path940"
       d="m 66.833,45.247 c 0.004,0.0015 0.008,0.0035 0.01189,0.006 0.04328,0.13071 0.04223,0.24747 0.07681,0.37539 0.14578,0.53892 0.08039,1.1382 -0.09378,1.6236 -0.12274,0.34202 -0.53257,0.67392 -0.85013,0.46008 0.30162,0.13165 0.66763,-0.16773 0.78833,-0.48138 0.18523,-0.48134 0.26428,-1.0789 0.13086,-1.621 -0.0305,-0.12394 -0.02819,-0.23678 -0.06398,-0.36264 z"
       style="clip-rule:evenodd;fill:#463012;fill-rule:evenodd;stroke-width:0.030309" />
    <path
       id="path942"
       d="m 66.041,47.746 c -0.15641,-0.06954 -0.29734,-0.25527 -0.38173,-0.61535 -0.06713,-0.2865 0.24967,-0.89576 0.85037,-1.5073 0.06636,-0.06755 0.18308,-0.29019 0.18308,-0.29019 0.06074,-0.08014 0.11172,-0.10712 0.15293,-0.08094 0.02161,0.06525 0.03217,0.12708 0.04163,0.1885 -0.0075,0.0085 -0.01505,0.01787 -0.02281,0.02812 0,0 -0.11281,0.22673 -0.18309,0.29022 -0.65308,0.58999 -0.95291,1.1606 -0.88578,1.4471 0.05183,0.22123 0.16045,0.43674 0.24541,0.53976 z"
       style="clip-rule:evenodd;fill:#3a2200;fill-rule:evenodd;stroke-width:0.030309" />
    <path
       id="path944"
       d="m 66.53,45.6 c 0.06733,-0.08519 0.16216,-0.26607 0.16216,-0.26607 0.06074,-0.08014 0.11172,-0.10712 0.15293,-0.08094 0.02012,0.0608 0.03065,0.11859 0.03967,0.17586 -0.03194,0.11159 -0.063,0.24423 -0.16085,0.31165 -0.0256,0.01762 -0.05712,0.05707 -0.08945,0.0616 -0.02153,0.003 -0.04217,-0.02727 -0.05525,-0.03902 C 66.53396,45.72255 66.52434,45.6608 66.53,45.59999 Z"
       style="clip-rule:evenodd;fill:#b98133;fill-rule:evenodd;stroke-width:0.030309" />
    <path
       id="path946"
       d="m 66.741,45.929 c -0.03749,0.013 -0.34434,0.82711 -0.3583,0.8813 -0.02534,0.09855 -0.05624,0.18943 -0.06888,0.29131 -0.01338,0.10781 -0.0093,0.22415 0.12182,0.24826 0.14925,0.02748 0.24077,-0.14582 0.29227,-0.25278 0.06895,-0.14331 0.12187,-0.32872 0.12567,-0.48812 0.0022,-0.08953 -0.0079,-0.18003 -0.002,-0.26926 0.0052,-0.0795 0.03873,-0.15603 0.03627,-0.23637 -0.0017,-0.05679 -0.0344,-0.1047 -0.07447,-0.1422 -0.01826,-0.0171 -0.04489,-0.04168 -0.07234,-0.03214 z"
       style="clip-rule:evenodd;fill:#997661;fill-rule:evenodd;stroke-width:0.030309" />
    <path
       id="path966"
       d="m 67.53,44.759 c 0.13685,-0.01523 0.25085,0.01001 0.38316,0.0027 0.55744,-0.03084 1.1301,0.1574 1.5688,0.42845 0.43662,0.26977 0.73473,1.0957 -0.3605,1.119 -0.29419,0.0063 -0.8245,-0.43001 -1.2981,-1.1445 -0.05232,-0.07893 -0.24591,-0.23928 -0.24591,-0.23928 -0.0658,-0.07603 -0.08163,-0.1315 -0.04746,-0.16639 z"
       style="clip-rule:evenodd;fill:none;stroke-width:0.030309" />
    <path
       id="path968"
       d="m 67.53,44.759 c 0.13685,-0.01523 0.25085,0.01001 0.38316,0.0027 0.55744,-0.03084 1.1301,0.1574 1.5688,0.42845 0.43662,0.26977 0.73473,1.0957 -0.3605,1.119 -0.29419,0.0063 -0.8245,-0.43001 -1.2981,-1.1445 -0.05232,-0.07893 -0.24591,-0.23928 -0.24591,-0.23928 -0.0658,-0.07603 -0.08163,-0.1315 -0.04746,-0.16639 z"
       style="clip-rule:evenodd;fill:#613e0c;fill-rule:evenodd;stroke-width:0.030309" />
    <path
       id="path970"
       d="m 67.53,44.759 c 0.13685,-0.01523 0.25085,0.01001 0.38316,0.0027 0.55744,-0.03084 1.1301,0.1574 1.5688,0.42845 0.43662,0.26977 0.73473,1.0957 -0.3605,1.119 -0.29419,0.0063 -0.8245,-0.43001 -1.2981,-1.1445 -0.05232,-0.07893 -0.24591,-0.23928 -0.24591,-0.23928 -0.0658,-0.07603 -0.08163,-0.1315 -0.04746,-0.16639 z"
       style="clip-rule:evenodd;fill:#613e0c;fill-rule:evenodd;stroke-width:0.030309" />
    <path
       id="path972"
       d="m 67.522,44.77 c 0.0023,-0.0036 0.0051,-0.0071 0.0083,-0.01038 0.13685,-0.01523 0.25085,0.01001 0.38316,0.0027 0.55744,-0.03084 1.1301,0.1574 1.5688,0.42845 0.30913,0.191 0.54882,0.66075 0.27376,0.92706 0.19134,-0.26776 -0.02562,-0.6879 -0.30742,-0.87102 -0.43246,-0.28103 -1.0007,-0.48229 -1.5587,-0.4642 -0.12757,0.0041 -0.23748,-0.02153 -0.36802,-0.01262 z"
       style="clip-rule:evenodd;fill:#463012;fill-rule:evenodd;stroke-width:0.030309" />
    <path
       id="path974"
       d="m 69.803,46.063 c -0.10046,0.13859 -0.31139,0.23794 -0.68114,0.24582 -0.29419,0.0063 -0.8245,-0.43001 -1.2981,-1.1445 -0.05232,-0.07893 -0.24591,-0.23928 -0.24591,-0.23928 -0.0658,-0.07603 -0.08163,-0.1315 -0.04746,-0.16639 0.06832,-0.0076 0.13098,-0.0051 0.19304,-0.0016 0.0068,0.0091 0.01436,0.01843 0.02278,0.02815 0,0 0.1984,0.15738 0.24594,0.2393 0.44172,0.76124 0.93777,1.1729 1.232,1.1666 0.22716,-0.0048 0.46052,-0.06639 0.57892,-0.12813 z"
       style="clip-rule:evenodd;fill:#3a2200;fill-rule:evenodd;stroke-width:0.030309" />
    <path
       id="path976"
       d="m 67.805,45.139 c -0.06937,-0.08353 -0.22666,-0.21382 -0.22666,-0.21382 -0.0658,-0.07603 -0.08163,-0.1315 -0.04746,-0.16639 0.06365,-0.0071 0.12237,-0.0054 0.18026,-0.0023 0.10254,0.05439 0.22586,0.11228 0.27152,0.22199 0.01193,0.0287 0.04399,0.06771 0.04171,0.10028 -0.0015,0.02169 -0.03543,0.0356 -0.04963,0.04596 -0.04903,0.03586 -0.11144,0.03247 -0.16975,0.01431 z"
       style="clip-rule:evenodd;fill:#b98133;fill-rule:evenodd;stroke-width:0.030309" />
    <path
       id="path978"
       d="m 68.171,45.001 c 0.0049,0.03937 0.73771,0.50839 0.78783,0.53328 0.09115,0.04523 0.17364,0.0943 0.27069,0.1278 0.10269,0.03545 0.21735,0.05557 0.26813,-0.06768 0.05783,-0.14031 -0.09272,-0.26577 -0.18667,-0.33834 -0.12589,-0.09717 -0.29629,-0.1874 -0.45144,-0.22417 -0.08713,-0.02068 -0.17775,-0.02963 -0.26383,-0.05384 -0.07669,-0.02159 -0.1446,-0.07024 -0.22371,-0.0845 -0.05591,-0.01008 -0.10956,0.01194 -0.15455,0.04336 -0.02051,0.01432 -0.05008,0.03527 -0.04644,0.0641 z"
       style="clip-rule:evenodd;fill:#997661;fill-rule:evenodd;stroke-width:0.030309" />
    <path
       id="path998"
       d="m 67.513,43.878 c 0.01348,-0.13703 0.06181,-0.24332 0.08211,-0.37426 0.08544,-0.55171 0.38834,-1.0729 0.7445,-1.4459 0.35445,-0.37118 1.2242,-0.49153 1.0199,0.58472 -0.05489,0.28909 -0.59165,0.7174 -1.3888,1.0326 -0.08806,0.03482 -0.28507,0.19094 -0.28507,0.19094 -0.08803,0.0486 -0.14557,0.05258 -0.17262,0.01192 z"
       style="clip-rule:evenodd;fill:none;stroke-width:0.030309" />
    <path
       id="path1000"
       d="m 67.513,43.878 c 0.01348,-0.13703 0.06181,-0.24332 0.08211,-0.37426 0.08544,-0.55171 0.38834,-1.0729 0.7445,-1.4459 0.35445,-0.37118 1.2242,-0.49153 1.0199,0.58472 -0.05489,0.28909 -0.59165,0.7174 -1.3888,1.0326 -0.08806,0.03482 -0.28507,0.19094 -0.28507,0.19094 -0.08803,0.0486 -0.14557,0.05258 -0.17262,0.01192 z"
       style="clip-rule:evenodd;fill:#613e0c;fill-rule:evenodd;stroke-width:0.030309" />
    <path
       id="path1002"
       d="m 67.513,43.878 c 0.01348,-0.13703 0.06181,-0.24332 0.08211,-0.37426 0.08544,-0.55171 0.38834,-1.0729 0.7445,-1.4459 0.35445,-0.37118 1.2242,-0.49153 1.0199,0.58472 -0.05489,0.28909 -0.59165,0.7174 -1.3888,1.0326 -0.08806,0.03482 -0.28507,0.19094 -0.28507,0.19094 -0.08803,0.0486 -0.14557,0.05258 -0.17262,0.01192 z"
       style="clip-rule:evenodd;fill:#613e0c;fill-rule:evenodd;stroke-width:0.030309" />
    <path
       id="path1004"
       d="m 67.521,43.888 c -0.0031,-0.003 -0.0059,-0.0065 -0.0084,-0.01031 0.01348,-0.13703 0.06181,-0.24332 0.08211,-0.37426 0.08544,-0.55171 0.38834,-1.0729 0.7445,-1.4459 0.25095,-0.2628 0.76021,-0.39986 0.96368,-0.07555 -0.22226,-0.24271 -0.67826,-0.1176 -0.91584,0.1201 -0.3646,0.36477 -0.67933,0.87888 -0.77735,1.4285 -0.02241,0.12566 -0.07031,0.22785 -0.08867,0.3574 z"
       style="clip-rule:evenodd;fill:#463012;fill-rule:evenodd;stroke-width:0.030309" />
    <path
       id="path1006"
       d="m 69.26,41.925 c 0.11474,0.12702 0.16819,0.35396 0.09921,0.71731 -0.05489,0.28909 -0.59165,0.7174 -1.3888,1.0326 -0.08806,0.03482 -0.28507,0.19094 -0.28507,0.19094 -0.08803,0.0486 -0.14557,0.05258 -0.17262,0.01192 0.0067,-0.06841 0.02216,-0.1292 0.03844,-0.18918 0.01028,-0.0048 0.021,-0.01023 0.03226,-0.01645 0,0 0.1951,-0.16145 0.2851,-0.19096 0.83629,-0.27424 1.3419,-0.67414 1.3968,-0.96323 0.0424,-0.22322 0.03056,-0.46428 -0.0053,-0.59291 z"
       style="clip-rule:evenodd;fill:#3a2200;fill-rule:evenodd;stroke-width:0.030309" />
    <path
       id="path1008"
       d="m 67.942,43.688 c -0.0961,0.05054 -0.25617,0.17739 -0.25617,0.17739 -0.08803,0.0486 -0.14557,0.05258 -0.17262,0.01192 0.0063,-0.06373 0.02011,-0.12083 0.0351,-0.17683 0.07447,-0.08903 0.15668,-0.19766 0.27347,-0.21958 0.03055,-0.0057 0.07536,-0.02899 0.10675,-0.02001 0.0209,0.006 0.02748,0.04204 0.03467,0.05808 0.02491,0.0554 0.0086,0.11575 -0.0212,0.16902 z"
       style="clip-rule:evenodd;fill:#b98133;fill-rule:evenodd;stroke-width:0.030309" />
    <path
       id="path1010"
       d="m 67.882,43.302 c 0.03954,0.0033 0.65032,-0.61624 0.68507,-0.6601 0.06315,-0.07979 0.12827,-0.15031 0.18116,-0.2383 0.05597,-0.09311 0.09943,-0.2011 -0.01061,-0.27634 -0.12526,-0.08568 -0.27922,0.03558 -0.3697,0.11245 -0.12117,0.103 -0.24477,0.25099 -0.31292,0.39514 -0.0383,0.08095 -0.06585,0.16774 -0.10739,0.24693 -0.03702,0.07055 -0.0987,0.12689 -0.12906,0.20132 -0.02145,0.05261 -0.01104,0.10965 0.01036,0.16018 0.0098,0.02304 0.02412,0.05631 0.05308,0.05872 z"
       style="clip-rule:evenodd;fill:#997661;fill-rule:evenodd;stroke-width:0.030309" />
    <path
       id="path1030"
       d="m 38.378,45.079 c -0.04044,0.12747 -0.1078,0.21871 -0.15349,0.33903 -0.19244,0.50695 -0.58533,0.94101 -0.99893,1.2236 -0.41162,0.28118 -1.2623,0.22011 -0.85106,-0.76122 0.11046,-0.26359 0.7068,-0.56228 1.5277,-0.70094 0.09069,-0.01532 0.30936,-0.12392 0.30936,-0.12392 0.09344,-0.02842 0.14891,-0.0206 0.16641,0.02348 z"
       style="clip-rule:evenodd;fill:none;stroke-width:0.029438" />
    <path
       id="path1032"
       d="m 38.378,45.079 c -0.04044,0.12747 -0.1078,0.21871 -0.15349,0.33903 -0.19244,0.50695 -0.58533,0.94101 -0.99893,1.2236 -0.41162,0.28118 -1.2623,0.22011 -0.85106,-0.76122 0.11046,-0.26359 0.7068,-0.56228 1.5277,-0.70094 0.09069,-0.01532 0.30936,-0.12392 0.30936,-0.12392 0.09344,-0.02842 0.14891,-0.0206 0.16641,0.02348 z"
       style="clip-rule:evenodd;fill:#613e0c;fill-rule:evenodd;stroke-width:0.029438" />
    <path
       id="path1034"
       d="m 38.378,45.079 c -0.04044,0.12747 -0.1078,0.21871 -0.15349,0.33903 -0.19244,0.50695 -0.58533,0.94101 -0.99893,1.2236 -0.41162,0.28118 -1.2623,0.22011 -0.85106,-0.76122 0.11046,-0.26359 0.7068,-0.56228 1.5277,-0.70094 0.09069,-0.01532 0.30936,-0.12392 0.30936,-0.12392 0.09344,-0.02842 0.14891,-0.0206 0.16641,0.02348 z"
       style="clip-rule:evenodd;fill:#613e0c;fill-rule:evenodd;stroke-width:0.029438" />
    <path
       id="path1036"
       d="m 38.372,45.067 c 0.0023,0.0035 0.0043,0.0073 0.0059,0.01149 -0.04044,0.12747 -0.1078,0.21871 -0.15349,0.33903 -0.19244,0.50695 -0.58533,0.94101 -0.99893,1.2236 -0.29143,0.19907 -0.80291,0.22659 -0.93082,-0.12256 0.16222,0.27542 0.6207,0.24851 0.89436,0.07059 0.41997,-0.27304 0.82267,-0.69802 1.0266,-1.2004 0.04664,-0.11487 0.11275,-0.2023 0.15632,-0.32168 z"
       style="clip-rule:evenodd;fill:#463012;fill-rule:evenodd;stroke-width:0.029438" />
    <path
       id="path1038"
       d="m 36.324,46.582 c -0.0834,-0.14382 -0.08841,-0.37022 0.0504,-0.70152 0.11046,-0.26359 0.7068,-0.56228 1.5277,-0.70094 0.09069,-0.01532 0.30936,-0.12392 0.30936,-0.12392 0.09344,-0.02842 0.14891,-0.0206 0.16641,0.02348 -0.02019,0.06364 -0.04711,0.11828 -0.07467,0.17199 -0.01073,0.0024 -0.02202,0.0055 -0.03397,0.0091 0,0 -0.21793,0.11405 -0.30938,0.12394 -0.84986,0.0919 -1.4109,0.36988 -1.5213,0.63348 -0.0853,0.20354 -0.12267,0.43494 -0.11455,0.56439 z"
       style="clip-rule:evenodd;fill:#3a2200;fill-rule:evenodd;stroke-width:0.029438" />
    <path
       id="path1040"
       d="m 37.932,45.172 c 0.1015,-0.02864 0.27916,-0.11687 0.27916,-0.11687 0.09344,-0.02842 0.14891,-0.0206 0.16641,0.02348 -0.01882,0.05929 -0.04347,0.11074 -0.06901,0.16093 -0.08871,0.06957 -0.18872,0.1562 -0.3041,0.15347 -0.03018,-7.3e-4 -0.07745,0.01234 -0.10546,-0.0025 -0.01865,-0.0099 -0.01763,-0.04548 -0.02122,-0.06217 -0.0125,-0.05766 0.01513,-0.11172 0.05423,-0.15631 z"
       style="clip-rule:evenodd;fill:#b98133;fill-rule:evenodd;stroke-width:0.029438" />
    <path
       id="path1042"
       d="m 37.911,45.552 c -0.0369,-0.01114 -0.74215,0.45434 -0.78401,0.489 -0.07609,0.06307 -0.15218,0.11694 -0.22018,0.18987 -0.07196,0.07717 -0.13503,0.17101 -0.04565,0.26468 0.10173,0.10666 0.27246,0.0225 0.37393,-0.03228 0.13589,-0.07342 0.28317,-0.1891 0.37699,-0.31232 0.05271,-0.06919 0.09639,-0.14609 0.15183,-0.21295 0.0494,-0.05956 0.11937,-0.10066 0.16322,-0.16525 0.03099,-0.04566 0.03261,-0.10195 0.02246,-0.15428 -0.0046,-0.02385 -0.01156,-0.05836 -0.03858,-0.0665 z"
       style="clip-rule:evenodd;fill:#997661;fill-rule:evenodd;stroke-width:0.029438" />
    <path
       id="path1062"
       d="m 38.9,43.835 c -0.08294,-0.10491 -0.12079,-0.21181 -0.19486,-0.31706 -0.31215,-0.44338 -0.45164,-1.012 -0.45403,-1.5129 -0.0023,-0.49848 0.52473,-1.1689 1.1073,-0.2786 0.15648,0.23915 0.06986,0.90047 -0.27512,1.6582 -0.03811,0.08371 -0.07063,0.32568 -0.07063,0.32568 -0.02879,0.09332 -0.06635,0.1349 -0.11267,0.12469 z"
       style="clip-rule:evenodd;fill:none;stroke-width:0.029438" />
    <path
       id="path1064"
       d="m 38.9,43.835 c -0.08294,-0.10491 -0.12079,-0.21181 -0.19486,-0.31706 -0.31215,-0.44338 -0.45164,-1.012 -0.45403,-1.5129 -0.0023,-0.49848 0.52473,-1.1689 1.1073,-0.2786 0.15648,0.23915 0.06986,0.90047 -0.27512,1.6582 -0.03811,0.08371 -0.07063,0.32568 -0.07063,0.32568 -0.02879,0.09332 -0.06635,0.1349 -0.11267,0.12469 z"
       style="clip-rule:evenodd;fill:#613e0c;fill-rule:evenodd;stroke-width:0.029438" />
    <path
       id="path1066"
       d="m 38.9,43.835 c -0.08294,-0.10491 -0.12079,-0.21181 -0.19486,-0.31706 -0.31215,-0.44338 -0.45164,-1.012 -0.45403,-1.5129 -0.0023,-0.49848 0.52473,-1.1689 1.1073,-0.2786 0.15648,0.23915 0.06986,0.90047 -0.27512,1.6582 -0.03811,0.08371 -0.07063,0.32568 -0.07063,0.32568 -0.02879,0.09332 -0.06635,0.1349 -0.11267,0.12469 z"
       style="clip-rule:evenodd;fill:#613e0c;fill-rule:evenodd;stroke-width:0.029438" />
    <path
       id="path1068"
       d="m 38.913,43.836 c -0.0042,-5.8e-5 -0.0085,-5.46e-4 -0.01284,-0.0015 -0.08294,-0.10491 -0.12079,-0.21181 -0.19486,-0.31706 -0.31215,-0.44338 -0.45164,-1.012 -0.45403,-1.5129 -0.0017,-0.35292 0.26205,-0.79204 0.62294,-0.70242 -0.31902,-0.0199 -0.55355,0.37497 -0.55946,0.70133 -0.0091,0.50084 0.1174,1.0725 0.41934,1.5229 0.06903,0.10298 0.10443,0.20672 0.17891,0.30969 z"
       style="clip-rule:evenodd;fill:#463012;fill-rule:evenodd;stroke-width:0.029438" />
    <path
       id="path1070"
       d="m 38.806,41.291 c 0.16586,0.01147 0.35621,0.13414 0.5529,0.43472 0.15648,0.23915 0.06986,0.90047 -0.27512,1.6582 -0.03811,0.08371 -0.07063,0.32568 -0.07063,0.32568 -0.02879,0.09332 -0.06635,0.1349 -0.11267,0.12469 -0.04141,-0.05237 -0.07159,-0.10528 -0.10064,-0.1582 0.004,-0.01025 0.0078,-0.02131 0.01147,-0.03325 0,0 0.0276,-0.24441 0.07063,-0.32571 0.39993,-0.7555 0.4839,-1.3759 0.32742,-1.6151 -0.12082,-0.18467 -0.29159,-0.34525 -0.40336,-0.41104 z"
       style="clip-rule:evenodd;fill:#3a2200;fill-rule:evenodd;stroke-width:0.029438" />
    <path
       id="path1072"
       d="m 39.072,43.413 c -0.03313,0.10012 -0.05956,0.29672 -0.05956,0.29672 -0.02879,0.09332 -0.06635,0.1349 -0.11267,0.12469 -0.03857,-0.0488 -0.06739,-0.09804 -0.09465,-0.14731 -0.0079,-0.11246 -0.02368,-0.24383 0.04322,-0.33788 0.01751,-0.02459 0.03316,-0.07107 0.06116,-0.08595 0.01864,-0.0099 0.04755,0.01087 0.06339,0.01724 0.05477,0.02195 0.08407,0.07511 0.09911,0.13248 z"
       style="clip-rule:evenodd;fill:#b98133;fill-rule:evenodd;stroke-width:0.029438" />
    <path
       id="path1074"
       d="m 38.77,43.183 c 0.02989,-0.02433 0.03936,-0.86928 0.03409,-0.92338 -0.0096,-0.09836 -0.01163,-0.19157 -0.03395,-0.28875 -0.02362,-0.10284 -0.06603,-0.20765 -0.19369,-0.18608 -0.14534,0.02453 -0.17126,0.2131 -0.18272,0.32784 -0.0153,0.1537 -0.002,0.3405 0.04754,0.48724 0.02779,0.08242 0.06703,0.16168 0.09136,0.24506 0.02167,0.07429 0.01652,0.15527 0.04546,0.22777 0.02046,0.05125 0.06619,0.08412 0.11522,0.10502 0.02235,0.0095 0.05482,0.02312 0.0767,0.0053 z"
       style="clip-rule:evenodd;fill:#997661;fill-rule:evenodd;stroke-width:0.029438" />
    <path
       id="path1094"
       d="m -15.529,45.188 c -0.04248,0.11959 -0.10931,0.20395 -0.15654,0.31659 -0.19891,0.4746 -0.58559,0.87358 -0.987,1.1282 -0.3995,0.25337 -1.2043,0.16794 -0.78258,-0.7495 0.11329,-0.24643 0.68855,-0.51044 1.4716,-0.61541 0.08651,-0.0116 0.29742,-0.10753 0.29742,-0.10753 0.08954,-0.02394 0.1419,-0.01472 0.15707,0.02766 z"
       style="clip-rule:evenodd;fill:none;stroke-width:0.027936" />
    <path
       id="path1096"
       d="m -15.529,45.188 c -0.04248,0.11959 -0.10931,0.20395 -0.15654,0.31659 -0.19891,0.4746 -0.58559,0.87358 -0.987,1.1282 -0.3995,0.25337 -1.2043,0.16794 -0.78258,-0.7495 0.11329,-0.24643 0.68855,-0.51044 1.4716,-0.61541 0.08651,-0.0116 0.29742,-0.10753 0.29742,-0.10753 0.08954,-0.02394 0.1419,-0.01472 0.15707,0.02766 z"
       style="clip-rule:evenodd;fill:#613e0c;fill-rule:evenodd;stroke-width:0.027936" />
    <path
       id="path1098"
       d="m -15.529,45.188 c -0.04248,0.11959 -0.10931,0.20395 -0.15654,0.31659 -0.19891,0.4746 -0.58559,0.87358 -0.987,1.1282 -0.3995,0.25337 -1.2043,0.16794 -0.78258,-0.7495 0.11329,-0.24643 0.68855,-0.51044 1.4716,-0.61541 0.08651,-0.0116 0.29742,-0.10753 0.29742,-0.10753 0.08954,-0.02394 0.1419,-0.01472 0.15707,0.02766 z"
       style="clip-rule:evenodd;fill:#613e0c;fill-rule:evenodd;stroke-width:0.027936" />
    <path
       id="path1100"
       d="m -15.534,45.177 c 0.0021,0.0034 0.0038,0.0071 0.0053,0.01109 -0.04248,0.11959 -0.10931,0.20395 -0.15654,0.31659 -0.19891,0.4746 -0.58559,0.87358 -0.987,1.1282 -0.28284,0.17938 -0.76885,0.18894 -0.87888,-0.14635 0.14496,0.26647 0.58067,0.25577 0.84597,0.09587 0.40715,-0.24538 0.80284,-0.63543 1.0125,-1.1054 0.04794,-0.10744 0.11348,-0.18823 0.15866,-0.30004 z"
       style="clip-rule:evenodd;fill:#463012;fill-rule:evenodd;stroke-width:0.027936" />
    <path
       id="path1102"
       d="m -17.526,46.547 c -0.07445,-0.13911 -0.07188,-0.35399 0.07049,-0.66373 0.11329,-0.24643 0.68855,-0.51044 1.4716,-0.61541 0.08651,-0.0116 0.29742,-0.10753 0.29742,-0.10753 0.08954,-0.02394 0.1419,-0.01472 0.15707,0.02766 -0.0212,0.05971 -0.04851,0.11066 -0.07639,0.1607 -0.01025,0.002 -0.02106,0.0045 -0.03251,0.0076 0,0 -0.21038,0.10112 -0.29744,0.10754 -0.80903,0.05968 -1.3501,0.3052 -1.4634,0.55163 -0.08748,0.19028 -0.13041,0.40856 -0.1269,0.53159 z"
       style="clip-rule:evenodd;fill:#3a2200;fill-rule:evenodd;stroke-width:0.027936" />
    <path
       id="path1104"
       d="m -15.955,45.262 c 0.09719,-0.02388 0.26855,-0.10182 0.26855,-0.10182 0.08954,-0.02394 0.1419,-0.01472 0.15707,0.02766 -0.01977,0.05562 -0.04481,0.10363 -0.07066,0.1504 -0.08639,0.06311 -0.18404,0.14204 -0.29339,0.13572 -0.0286,-0.0017 -0.07386,0.0092 -0.09994,-0.0058 -0.01737,-0.01 -0.01525,-0.04371 -0.01812,-0.05965 -0.01,-0.05509 0.01796,-0.10547 0.05649,-0.1465 z"
       style="clip-rule:evenodd;fill:#b98133;fill-rule:evenodd;stroke-width:0.027936" />
    <path
       id="path1106"
       d="m -15.988,45.622 c -0.03463,-0.01176 -0.71858,0.40692 -0.7594,0.43844 -0.0742,0.05736 -0.14812,0.10599 -0.21497,0.17297 -0.07074,0.07087 -0.1336,0.15783 -0.05186,0.24956 0.09304,0.10445 0.25769,0.03015 0.3557,-0.01852 0.13126,-0.06524 0.27469,-0.1702 0.36766,-0.28402 0.05223,-0.06391 0.09615,-0.13544 0.15089,-0.19706 0.04878,-0.05489 0.11647,-0.09161 0.16015,-0.15145 0.03087,-0.0423 0.03422,-0.09564 0.02629,-0.1456 -0.0036,-0.02277 -0.0091,-0.05573 -0.03444,-0.06432 z"
       style="clip-rule:evenodd;fill:#997661;fill-rule:evenodd;stroke-width:0.027936" />
    <path
       id="path1126"
       d="m -14.826,45.494 c 0.11344,0.05692 0.1889,0.13365 0.29484,0.19443 0.44641,0.25597 0.79461,0.68894 0.99774,1.1187 0.20212,0.42772 0.01799,1.2158 -0.84037,0.68407 -0.23056,-0.14284 -0.42154,-0.74629 -0.42904,-1.5364 -8.3e-4,-0.08728 -0.07,-0.30842 -0.07,-0.30842 -0.0127,-0.09181 0.0029,-0.14264 0.04683,-0.15246 z"
       style="clip-rule:evenodd;fill:none;stroke-width:0.027936" />
    <path
       id="path1128"
       d="m -14.826,45.494 c 0.11344,0.05692 0.1889,0.13365 0.29484,0.19443 0.44641,0.25597 0.79461,0.68894 0.99774,1.1187 0.20212,0.42772 0.01799,1.2158 -0.84037,0.68407 -0.23056,-0.14284 -0.42154,-0.74629 -0.42904,-1.5364 -8.3e-4,-0.08728 -0.07,-0.30842 -0.07,-0.30842 -0.0127,-0.09181 0.0029,-0.14264 0.04683,-0.15246 z"
       style="clip-rule:evenodd;fill:#613e0c;fill-rule:evenodd;stroke-width:0.027936" />
    <path
       id="path1130"
       d="m -14.826,45.494 c 0.11344,0.05692 0.1889,0.13365 0.29484,0.19443 0.44641,0.25597 0.79461,0.68894 0.99774,1.1187 0.20212,0.42772 0.01799,1.2158 -0.84037,0.68407 -0.23056,-0.14284 -0.42154,-0.74629 -0.42904,-1.5364 -8.3e-4,-0.08728 -0.07,-0.30842 -0.07,-0.30842 -0.0127,-0.09181 0.0029,-0.14264 0.04683,-0.15246 z"
       style="clip-rule:evenodd;fill:#613e0c;fill-rule:evenodd;stroke-width:0.027936" />
    <path
       id="path1132"
       d="m -14.837,45.498 c 0.0036,-0.0016 0.0075,-0.0029 0.01165,-0.0038 0.11344,0.05692 0.1889,0.13365 0.29484,0.19443 0.44641,0.25597 0.79461,0.68894 0.99774,1.1187 0.1431,0.30282 0.09259,0.78629 -0.25372,0.85409 0.28232,-0.11095 0.3255,-0.54465 0.19957,-0.82767 -0.19325,-0.43433 -0.53147,-0.87514 -0.97192,-1.1412 -0.1007,-0.06084 -0.17278,-0.13585 -0.27816,-0.19449 z"
       style="clip-rule:evenodd;fill:#463012;fill-rule:evenodd;stroke-width:0.027936" />
    <path
       id="path1134"
       d="m -13.724,47.643 c -0.14723,0.05671 -0.36016,0.02763 -0.64995,-0.15188 -0.23056,-0.14284 -0.42154,-0.74629 -0.42904,-1.5364 -8.3e-4,-0.08728 -0.07,-0.30842 -0.07,-0.30842 -0.0127,-0.09181 0.0029,-0.14264 0.04683,-0.15246 0.05663,0.02841 0.10382,0.0618 0.15005,0.09564 6.91e-4,0.01042 0.0019,0.02145 0.0035,0.03319 0,0 0.07438,0.22126 0.07001,0.30844 -0.04064,0.81021 0.1362,1.3774 0.36676,1.5203 0.17803,0.1103 0.38933,0.17984 0.51186,0.19155 z"
       style="clip-rule:evenodd;fill:#3a2200;fill-rule:evenodd;stroke-width:0.027936" />
    <path
       id="path1136"
       d="m -14.805,45.926 c -0.0117,-0.0994 -0.06789,-0.27907 -0.06789,-0.27907 -0.0127,-0.09181 0.0029,-0.14264 0.04683,-0.15246 0.05276,0.02648 0.0973,0.05726 0.14053,0.08868 0.05197,0.09352 0.11824,0.20017 0.09847,0.3079 -0.0052,0.02817 1.3e-5,0.07443 -0.01809,0.09846 -0.01206,0.016 -0.04526,0.0097 -0.06143,0.01062 -0.0559,0.0031 -0.10245,-0.03084 -0.13841,-0.07414 z"
       style="clip-rule:evenodd;fill:#b98133;fill-rule:evenodd;stroke-width:0.027936" />
    <path
       id="path1138"
       d="m -14.452,46.003 c -0.01594,0.03292 0.3151,0.76332 0.34135,0.80772 0.04776,0.08072 0.0869,0.16007 0.14511,0.23467 0.06159,0.07895 0.14013,0.15206 0.24125,0.08227 0.11514,-0.07943 0.06173,-0.252 0.02553,-0.35526 -0.04854,-0.13831 -0.13498,-0.2936 -0.23647,-0.3999 -0.05698,-0.05972 -0.12254,-0.11213 -0.17693,-0.17406 -0.04845,-0.05518 -0.07653,-0.12689 -0.13052,-0.17762 -0.03817,-0.03586 -0.09069,-0.04577 -0.14124,-0.04406 -0.02304,7.73e-4 -0.05642,0.0021 -0.06808,0.02624 z"
       style="clip-rule:evenodd;fill:#997661;fill-rule:evenodd;stroke-width:0.027936" />
    <path
       id="path1142"
       d="m -14.889,29.075 c 0.12144,0.50165 -0.09737,3.4226 0,3.6184 0.0934,0.18785 1.955,0.18256 1.955,0.24871 0,0.08467 -1.6923,3.2094 -2.9099,4.1249 -0.49292,0.36777 -3.1446,-3.6794 -3.0454,-3.9158 0.11245,-0.11377 1.8005,-0.24606 1.8005,-0.14023 0,0.13494 -0.26749,-2.4929 -0.16325,-3.4327 z"
       style="clip-rule:evenodd;fill:#006e1e;fill-rule:evenodd;stroke:#006e1e;stroke-width:0.48419px;stroke-linecap:round;stroke-linejoin:round;stroke-miterlimit:1.5" />
    <path
       id="path1146"
       d="m 12.424,29.075 c 0.12144,0.50165 -0.09737,3.4226 0,3.6184 0.0934,0.18785 1.955,0.18256 1.955,0.24871 0,0.08467 -1.6923,3.2094 -2.9099,4.1249 -0.49292,0.36777 -3.035,-3.3782 -3.0454,-3.9158 0.11245,-0.11377 1.8005,-0.24606 1.8005,-0.14023 0,0.13494 -0.26749,-2.4929 -0.16325,-3.4327 z"
       style="clip-rule:evenodd;fill:#006e1e;fill-rule:evenodd;stroke:#006e1e;stroke-width:0.48419px;stroke-linecap:round;stroke-linejoin:round;stroke-miterlimit:1.5" />
    <path
       id="path1150"
       d="m 39.737,29.075 c 0.12144,0.50165 -0.09737,3.4226 0,3.6184 0.0934,0.18785 1.955,0.18256 1.955,0.24871 0,0.08467 -1.6923,3.2094 -2.9099,4.1249 -0.49292,0.36777 -3.2265,-3.4505 -3.0454,-3.9158 0.11245,-0.11377 1.8005,-0.24606 1.8005,-0.14023 0,0.13494 -0.26749,-2.4929 -0.16325,-3.4327 z"
       style="clip-rule:evenodd;fill:#006e1e;fill-rule:evenodd;stroke:#006e1e;stroke-width:0.48419px;stroke-linecap:round;stroke-linejoin:round;stroke-miterlimit:1.5" />
    <path
       id="path1154"
       d="m 67.05,29.075 c 0.12144,0.50165 -0.09737,3.4226 0,3.6184 0.0934,0.18785 1.955,0.18256 1.955,0.24871 0,0.08467 -1.6923,3.2094 -2.9099,4.1249 -0.49292,0.36777 -3.1993,-3.3417 -3.0454,-3.9158 0.11245,-0.11377 1.8005,-0.24606 1.8005,-0.14023 0,0.13494 -0.26749,-2.4929 -0.16325,-3.4327 z"
       style="clip-rule:evenodd;fill:#006e1e;fill-rule:evenodd;stroke:#006e1e;stroke-width:0.48419px;stroke-linecap:round;stroke-linejoin:round;stroke-miterlimit:1.5" />
    <path
       id="path1158"
       d="m -13.234,9.256 c 3.2201,1.3098 6.9294,4.5144 7.9609,8.2658 1.0821,3.4841 -0.78358,8.4593 -2.5932,9.8049 -3.0278,3.979 -10.56,3.5634 -13.222,2.5385 -6.8245,-3.5845 -7.3224,-12.109 -3.2992,-17.985 4.6717,-4.3994 10.235,-2.9985 11.154,-2.6246 z"
       style="clip-rule:evenodd;fill:#fffce3;fill-rule:evenodd;stroke:#006e1e;stroke-width:0.54907px" />
    <path
       id="path1162"
       d="m 18.899,28.027 c -2.7444,2.1338 -7.7757,2.9963 -11.54,2.0139 -1.9745,-0.51576 -6.7611,-6.1672 -7.0216,-8.4072 -0.32627,-2.8009 1.3422,-8.2545 3.5609,-10.048 7.3279,-5.3007 14.062,-3.1213 18.337,4.6132 1.7247,6.3163 -2.5526,11.219 -3.3358,11.828 z"
       style="clip-rule:evenodd;fill:#fffce3;fill-rule:evenodd;stroke:#006e1e;stroke-width:0.54907px" />
    <path
       id="path1166"
       d="m 36.594,9.9768 c 3.4436,-0.47579 8.3772,0.52135 11.146,3.2543 1.4521,1.4339 3.2668,7.5447 1.8309,10.914 -1.1179,2.5888 -4.4745,6.5104 -7.2925,6.954 -6.2249,0.41828 -10.549,-0.64115 -12.861,-6.2661 -1.7186,-3.3219 -1.1273,-4.4329 -1.1191,-7.0992 0.0081,-2.6663 3.9773,-7.568 8.2959,-7.7576 z"
       style="clip-rule:evenodd;fill:#fffce3;fill-rule:evenodd;stroke:#006e1e;stroke-width:0.54907px" />
    <path
       id="path1170"
       d="m 73.141,28.979 c -2.7443,2.1338 -7.4507,2.9963 -11.215,2.0139 -2.4447,-0.35903 -6.9393,-6.4688 -6.805,-8.8404 -0.32627,-2.8008 0.80071,-7.0631 3.0194,-8.8562 6.7615,-4.9375 13.737,-4.1186 16.574,1.0227 5.3283,8.9319 -0.79016,14.051 -1.5734,14.66 z"
       style="clip-rule:evenodd;fill:#fffce3;fill-rule:evenodd;stroke:#006e1e;stroke-width:0.54906px" />
    <path
       id="path1174"
       d="m -15.471,19.682 c -0.15134,-0.75697 0.0651,-1.4391 0.17498,-2.144 0.10845,-0.6989 0.63359,-1.1441 1.3422,-1.6353 0.44262,1.9069 -0.14123,3.1131 -1.5172,3.7793 z"
       style="clip-rule:evenodd;fill:#f3dfa6;fill-rule:evenodd;stroke-width:0.43922" />
    <path
       id="path1178"
       d="m 11.841,19.682 c -0.15134,-0.75697 0.0651,-1.4391 0.17498,-2.144 0.10845,-0.6989 0.63359,-1.1441 1.3422,-1.6353 0.44262,1.9069 -0.14123,3.1131 -1.5172,3.7793 z"
       style="clip-rule:evenodd;fill:#f3dfa6;fill-rule:evenodd;stroke-width:0.43922" />
    <path
       id="path1182"
       d="m 39.154,19.682 c -0.15134,-0.75697 0.0651,-1.4391 0.17498,-2.144 0.10845,-0.6989 0.63359,-1.1441 1.3422,-1.6353 0.44262,1.9069 -0.14123,3.1131 -1.5172,3.7793 z"
       style="clip-rule:evenodd;fill:#f3dfa6;fill-rule:evenodd;stroke-width:0.43922" />
    <path
       id="path1186"
       d="m 66.467,19.682 c -0.15134,-0.75697 0.0651,-1.4391 0.17498,-2.144 0.10845,-0.6989 0.63359,-1.1441 1.3422,-1.6353 0.44262,1.9069 -0.14123,3.1131 -1.5172,3.7793 z"
       style="clip-rule:evenodd;fill:#f3dfa6;fill-rule:evenodd;stroke-width:0.43922" />
    <path
       id="path1190"
       d="m -15.394,19.954 c 0.66893,-0.24103 0.86081,-0.23721 1.5851,-0.27198 0.69373,-0.03344 1.7352,0.5306 2.3771,1.2135 -1.8204,0.71981 -3.0997,0.3208 -3.9622,-0.94151 z"
       style="clip-rule:evenodd;fill:#f3dfa6;fill-rule:evenodd;stroke-width:0.43922" />
    <path
       id="path1194"
       d="m 11.919,19.954 c 0.66893,-0.24103 0.86081,-0.23721 1.5851,-0.27198 0.69373,-0.03344 1.7352,0.5306 2.3771,1.2135 -1.8204,0.71981 -3.0997,0.3208 -3.9622,-0.94151 z"
       style="clip-rule:evenodd;fill:#f3dfa6;fill-rule:evenodd;stroke-width:0.43922" />
    <path
       id="path1198"
       d="m 39.232,19.954 c 0.66893,-0.24103 0.86081,-0.23721 1.5851,-0.27198 0.69373,-0.03344 1.7352,0.5306 2.3771,1.2135 -1.8204,0.71981 -3.0997,0.3208 -3.9622,-0.94151 z"
       style="clip-rule:evenodd;fill:#f3dfa6;fill-rule:evenodd;stroke-width:0.43922" />
    <path
       id="path1202"
       d="m 66.544,19.954 c 0.66893,-0.24103 0.86081,-0.23721 1.5851,-0.27198 0.69373,-0.03344 1.7352,0.5306 2.3771,1.2135 -1.8204,0.71981 -3.0997,0.3208 -3.9622,-0.94151 z"
       style="clip-rule:evenodd;fill:#f3dfa6;fill-rule:evenodd;stroke-width:0.43922" />
    <path
       id="path1206"
       d="m -15.542,20.467 c 0.72414,0.69356 1.2912,1.1059 0.80217,3.2038 -0.01006,0.0423 -0.22938,0.77752 -0.50502,0.69192 -0.20136,-0.06247 -0.41591,-0.55007 -0.52748,-0.80376 -0.56912,-1.2951 -0.4361,-2.0931 0.23034,-3.0919 z"
       style="clip-rule:evenodd;fill:#f3dfa6;fill-rule:evenodd;stroke-width:0.39785" />
    <path
       id="path1210"
       d="m 11.771,20.467 c 0.72414,0.69356 1.2912,1.1059 0.80217,3.2038 -0.01006,0.0423 -0.22938,0.77752 -0.50502,0.69192 -0.20136,-0.06247 -0.41591,-0.55007 -0.52748,-0.80376 -0.56912,-1.2951 -0.4361,-2.0931 0.23034,-3.0919 z"
       style="clip-rule:evenodd;fill:#f3dfa6;fill-rule:evenodd;stroke-width:0.39785" />
    <path
       id="path1214"
       d="m 39.083,20.467 c 0.72414,0.69356 1.2912,1.1059 0.80217,3.2038 -0.01006,0.0423 -0.22938,0.77752 -0.50502,0.69192 -0.20136,-0.06247 -0.41591,-0.55007 -0.52748,-0.80376 -0.56912,-1.2951 -0.4361,-2.0931 0.23034,-3.0919 z"
       style="clip-rule:evenodd;fill:#f3dfa6;fill-rule:evenodd;stroke-width:0.39785" />
    <path
       id="path1218"
       d="m 66.396,20.467 c 0.72414,0.69356 1.2912,1.1059 0.80217,3.2038 -0.01006,0.0423 -0.22938,0.77752 -0.50502,0.69192 -0.20136,-0.06247 -0.41591,-0.55007 -0.52748,-0.80376 -0.56912,-1.2951 -0.4361,-2.0931 0.23034,-3.0919 z"
       style="clip-rule:evenodd;fill:#f3dfa6;fill-rule:evenodd;stroke-width:0.39785" />
    <path
       id="path1222"
       d="m -16.297,20.091 c 0.18394,-0.0278 0.11711,0.78572 -0.03562,1.0773 -0.48181,0.91906 -1.3034,1.5633 -2.6681,1.7675 0.38636,-1.6566 1.4845,-2.6598 2.7037,-2.8449 z"
       style="clip-rule:evenodd;fill:#f3dfa6;fill-rule:evenodd;stroke-width:0.43922" />
    <path
       id="path1226"
       d="m 11.016,20.091 c 0.18394,-0.0278 0.11711,0.78572 -0.03562,1.0773 -0.48181,0.91906 -1.3034,1.5633 -2.6681,1.7675 0.38636,-1.6566 1.4845,-2.6598 2.7037,-2.8449 z"
       style="clip-rule:evenodd;fill:#f3dfa6;fill-rule:evenodd;stroke-width:0.43922" />
    <path
       id="path1230"
       d="m 38.329,20.091 c 0.18394,-0.0278 0.11711,0.78572 -0.03562,1.0773 -0.48181,0.91906 -1.3034,1.5633 -2.6681,1.7675 0.38636,-1.6566 1.4845,-2.6598 2.7037,-2.8449 z"
       style="clip-rule:evenodd;fill:#f3dfa6;fill-rule:evenodd;stroke-width:0.43922" />
    <path
       id="path1234"
       d="m 65.642,20.091 c 0.18394,-0.0278 0.11711,0.78572 -0.03562,1.0773 -0.48181,0.91906 -1.3034,1.5633 -2.6681,1.7675 0.38636,-1.6566 1.4845,-2.6598 2.7037,-2.8449 z"
       style="clip-rule:evenodd;fill:#f3dfa6;fill-rule:evenodd;stroke-width:0.43922" />
    <path
       id="path1238"
       d="m -16.811,18.085 c 0.43275,0.39806 0.84312,1.6024 0.62631,1.5607 -1.1539,-0.22179 -2.5377,-0.93485 -3.0716,-2.3694 1.094,0.02348 1.8968,0.30414 2.4452,0.80875 z"
       style="clip-rule:evenodd;fill:#f3dfa6;fill-rule:evenodd;stroke-width:0.43922" />
    <path
       id="path1242"
       d="m 10.502,18.085 c 0.43275,0.39806 0.84312,1.6024 0.62631,1.5607 -1.1539,-0.22179 -2.5377,-0.93485 -3.0716,-2.3694 1.094,0.02348 1.8968,0.30414 2.4452,0.80875 z"
       style="clip-rule:evenodd;fill:#f3dfa6;fill-rule:evenodd;stroke-width:0.43922" />
    <path
       id="path1246"
       d="m 37.814,18.085 c 0.43275,0.39806 0.84312,1.6024 0.62631,1.5607 -1.1539,-0.22179 -2.5377,-0.93485 -3.0716,-2.3694 1.094,0.02348 1.8968,0.30414 2.4452,0.80875 z"
       style="clip-rule:evenodd;fill:#f3dfa6;fill-rule:evenodd;stroke-width:0.43922" />
    <path
       id="path1250"
       d="m 65.127,18.085 c 0.43275,0.39806 0.84312,1.6024 0.62631,1.5607 -1.1539,-0.22179 -2.5377,-0.93485 -3.0716,-2.3694 1.094,0.02348 1.8968,0.30414 2.4452,0.80875 z"
       style="clip-rule:evenodd;fill:#f3dfa6;fill-rule:evenodd;stroke-width:0.43922" />
    <path
       id="path1254"
       d="m -15.82,14.82 c -0.59292,-0.06765 -1.2124,0.02758 -1.7355,0.36333 -0.52313,0.33575 -0.91067,0.95106 -0.95004,1.6902 a 0.64568,0.64568 0 0 0 0.61055,0.67899 0.64568,0.64568 0 0 0 0.67899,-0.61055 c 0.01998,-0.37508 0.14715,-0.53614 0.35833,-0.67168 0.21118,-0.13554 0.54552,-0.20669 0.89122,-0.16725 0.34569,0.03944 0.68617,0.18747 0.90237,0.38717 0.2162,0.1997 0.32889,0.41746 0.30797,0.76319 9.84e-4,-0.01744 -0.04387,0.15679 -0.16802,0.36871 -0.12414,0.21192 -0.30757,0.4736 -0.50636,0.74819 -0.39758,0.54919 -0.85958,1.1054 -1.0731,1.7505 a 0.64574,0.64574 0 0 0 -0.03268,0.20262 v 2.308 a 0.64568,0.64568 0 0 0 0.64554,0.64554 0.64568,0.64568 0 0 0 0.64592,-0.64554 v -2.1562 c 0.09926,-0.25626 0.46734,-0.80549 0.86008,-1.348 0.20382,-0.28154 0.40707,-0.56607 0.57479,-0.85239 0.16773,-0.28632 0.31995,-0.56247 0.34296,-0.94389 0.04385,-0.72456 -0.26484,-1.3685 -0.7209,-1.7897 -0.45605,-0.42125 -1.0392,-0.65363 -1.6321,-0.72128 z"
       style="color:#000000;fill:#006e1e;stroke-width:0.19685;stroke-linecap:round;stroke-linejoin:round;stroke-miterlimit:1.5;-inkscape-stroke:none" />
    <path
       id="path1258"
       d="m 11.492,14.82 c -0.59292,-0.06765 -1.2124,0.02758 -1.7355,0.36333 -0.52313,0.33575 -0.91067,0.95106 -0.95004,1.6902 a 0.64568,0.64568 0 0 0 0.61055,0.67899 0.64568,0.64568 0 0 0 0.67899,-0.61055 c 0.01998,-0.37508 0.14715,-0.53614 0.35833,-0.67168 0.21118,-0.13554 0.54552,-0.20669 0.89122,-0.16725 0.34569,0.03944 0.68617,0.18747 0.90237,0.38717 0.2162,0.1997 0.32889,0.41746 0.30797,0.76319 9.84e-4,-0.01744 -0.04387,0.15679 -0.16802,0.36871 -0.12414,0.21192 -0.30757,0.4736 -0.50636,0.74819 -0.39758,0.54919 -0.85958,1.1054 -1.0731,1.7505 a 0.64574,0.64574 0 0 0 -0.03268,0.20262 v 2.308 a 0.64568,0.64568 0 0 0 0.64554,0.64554 0.64568,0.64568 0 0 0 0.64592,-0.64554 v -2.1562 c 0.09926,-0.25626 0.46734,-0.80549 0.86008,-1.348 0.20382,-0.28154 0.40707,-0.56607 0.57479,-0.85239 0.16773,-0.28632 0.31995,-0.56247 0.34296,-0.94389 0.04384,-0.72456 -0.26484,-1.3685 -0.7209,-1.7897 -0.45605,-0.42125 -1.0392,-0.65363 -1.6321,-0.72128 z"
       style="color:#000000;fill:#006e1e;stroke-width:0.19685;stroke-linecap:round;stroke-linejoin:round;stroke-miterlimit:1.5;-inkscape-stroke:none" />
    <path
       id="path1262"
       d="m 38.805,14.82 c -0.59292,-0.06765 -1.2124,0.02758 -1.7355,0.36333 -0.52313,0.33575 -0.91067,0.95106 -0.95004,1.6902 a 0.64568,0.64568 0 0 0 0.61055,0.67899 0.64568,0.64568 0 0 0 0.67899,-0.61055 c 0.01998,-0.37508 0.14715,-0.53614 0.35833,-0.67168 0.21119,-0.13554 0.54553,-0.20669 0.89122,-0.16725 0.3457,0.03944 0.68617,0.18747 0.90237,0.38717 0.2162,0.1997 0.32889,0.41746 0.30797,0.76319 9.84e-4,-0.01744 -0.04387,0.15679 -0.16802,0.36871 -0.12414,0.21192 -0.30757,0.4736 -0.50636,0.74819 -0.39758,0.54919 -0.85958,1.1054 -1.0731,1.7505 a 0.64574,0.64574 0 0 0 -0.03268,0.20262 v 2.308 a 0.64568,0.64568 0 0 0 0.64554,0.64554 0.64568,0.64568 0 0 0 0.64592,-0.64554 v -2.1562 c 0.09926,-0.25626 0.46734,-0.80549 0.86008,-1.348 0.20382,-0.28154 0.40707,-0.56607 0.57479,-0.85239 0.16772,-0.28632 0.31995,-0.56247 0.34295,-0.94389 0.04385,-0.72456 -0.26484,-1.3685 -0.7209,-1.7897 -0.45605,-0.42125 -1.0392,-0.65363 -1.6321,-0.72128 z"
       style="color:#000000;fill:#006e1e;stroke-width:0.19685;stroke-linecap:round;stroke-linejoin:round;stroke-miterlimit:1.5;-inkscape-stroke:none" />
    <path
       id="path1266"
       d="m 66.118,14.82 c -0.59292,-0.06765 -1.2124,0.02758 -1.7355,0.36333 -0.52313,0.33575 -0.91067,0.95106 -0.95004,1.6902 a 0.64568,0.64568 0 0 0 0.61055,0.67899 0.64568,0.64568 0 0 0 0.67899,-0.61055 c 0.01998,-0.37508 0.14715,-0.53614 0.35833,-0.67168 0.21118,-0.13554 0.54552,-0.20669 0.89122,-0.16725 0.34569,0.03944 0.68617,0.18747 0.90237,0.38717 0.2162,0.1997 0.32889,0.41746 0.30797,0.76319 9.84e-4,-0.01744 -0.04387,0.15679 -0.16802,0.36871 -0.12414,0.21192 -0.30757,0.4736 -0.50636,0.74819 -0.39758,0.54919 -0.85958,1.1054 -1.0731,1.7505 a 0.64574,0.64574 0 0 0 -0.03268,0.20262 v 2.308 a 0.64568,0.64568 0 0 0 0.64554,0.64554 0.64568,0.64568 0 0 0 0.64592,-0.64554 v -2.1562 c 0.09926,-0.25626 0.46734,-0.80549 0.86008,-1.348 0.20382,-0.28154 0.40707,-0.56607 0.57479,-0.85239 0.16773,-0.28632 0.31995,-0.56247 0.34296,-0.94389 0.04385,-0.72456 -0.26484,-1.3685 -0.7209,-1.7897 -0.45605,-0.42125 -1.0392,-0.65363 -1.6321,-0.72128 z"
       style="color:#000000;fill:#006e1e;stroke-width:0.19685;stroke-linecap:round;stroke-linejoin:round;stroke-miterlimit:1.5;-inkscape-stroke:none" />
    <ellipse
       id="ellipse1270"
       cx="-15.895"
       cy="24.693001"
       rx="0.58297998"
       ry="0.63620001"
       style="clip-rule:evenodd;fill:#006e1e;fill-rule:evenodd;stroke-width:0.26374" />
    <ellipse
       id="ellipse1274"
       cx="11.418"
       cy="24.693001"
       rx="0.58297998"
       ry="0.63620001"
       style="clip-rule:evenodd;fill:#006e1e;fill-rule:evenodd;stroke-width:0.26374" />
    <ellipse
       id="ellipse1278"
       cx="38.730999"
       cy="24.693001"
       rx="0.58297998"
       ry="0.63620001"
       style="clip-rule:evenodd;fill:#006e1e;fill-rule:evenodd;stroke-width:0.26374" />
    <ellipse
       id="ellipse1282"
       cx="66.043999"
       cy="24.693001"
       rx="0.58297998"
       ry="0.63620001"
       style="clip-rule:evenodd;fill:#006e1e;fill-rule:evenodd;stroke-width:0.26374" />
  </g>
  <g
     id="draggable1"
     transform="matrix(0.99611,0,0,0.99611,1.1007575,18.16903)">
    <path
       id="path126"
       d="m 31.039,-12.865 c 1.4463,-2.2494 7.0154,-2.708 8.7944,-2.1086 2.9302,0.98704 6.5846,3.3296 7.5068,6.5562 0.48333,1.6926 -0.0216,2.9043 -0.72778,4.363 -0.26728,0.55309 -0.45185,1.1846 -0.78395,1.7043 -0.34198,0.53642 -0.97778,0.93518 -1.4315,1.3636 -0.47963,0.45247 -0.9037,0.96296 -1.4315,1.3636 -1.9796,1.5019 -4.513,2.3716 -6.8932,1.4901 -2.513,-0.93086 -4.9765,-1.9117 -6.5018,-4.1148 -0.5284,-0.76296 -1.0636,-1.4543 -1.3296,-2.3518 -0.31234,-1.0543 0.02963,-2.1821 0.17099,-3.2383 0.21667,-1.6278 1.7235,-3.6204 2.6272,-5.0272 z"
       style="clip-rule:evenodd;fill:#fef388;fill-rule:evenodd;stroke:#aa0000;stroke-width:0.48148px" />
    <path
       id="path202"
       d="m 37.728,-7.6439 c -0.51205,-0.98554 0.28435,-3.1443 1.4388,-3.4102 0.45803,1.9706 -0.01659,2.7215 -1.4388,3.4102 z"
       style="clip-rule:evenodd;fill:#fdc72b;fill-rule:evenodd;stroke-width:0.45397" />
    <path
       id="path266"
       d="m 37.809,-7.3628 c 0.69138,-0.24912 0.88972,-0.24518 1.6383,-0.28111 0.71702,-0.034563 1.7934,0.54841 2.4569,1.2542 -1.8816,0.74398 -3.2038,0.33157 -4.0952,-0.97312 z"
       style="clip-rule:evenodd;fill:#fdc72b;fill-rule:evenodd;stroke-width:0.45397" />
    <path
       id="path330"
       d="m 37.655,-6.8321 c 0.74845,0.71684 1.3346,1.143 0.82911,3.3113 -0.01039,0.043718 -0.23708,0.80363 -0.52198,0.71516 -0.20813,-0.064569 -0.42988,-0.56854 -0.54519,-0.83074 -0.58824,-1.3386 -0.45075,-2.1634 0.23807,-3.1958 z"
       style="clip-rule:evenodd;fill:#fdc72b;fill-rule:evenodd;stroke-width:0.41121" />
    <path
       id="path394"
       d="m 36.875,-7.2228 c 0.19011,-0.028732 0.12104,0.81211 -0.03682,1.1135 -0.49799,0.94993 -1.3472,1.6158 -2.7577,1.8269 0.39933,-1.7122 1.5343,-2.7491 2.7945,-2.9404 z"
       style="clip-rule:evenodd;fill:#fdc72b;fill-rule:evenodd;stroke-width:0.45397" />
    <path
       id="path458"
       d="m 36.343,-9.2929 c 0.44728,0.41143 0.87143,1.6562 0.64733,1.6131 -1.1927,-0.22924 -2.6229,-0.96624 -3.1747,-2.449 1.1308,0.02427 1.9605,0.31435 2.5273,0.83591 z"
       style="clip-rule:evenodd;fill:#fdc72b;fill-rule:evenodd;stroke-width:0.45397" />
    <path
       id="path646"
       d="m 37.58,-6.5088 c 0.09809,0.09085 0.15195,0.19062 0.24132,0.28317 0.37664,0.38989 0.60202,0.93007 0.68154,1.4245 0.07911,0.49204 -0.33827,1.2355 -1.0509,0.44577 -0.19141,-0.21213 -0.20772,-0.87872 0.01633,-1.6803 0.02475,-0.088555 0.0196,-0.33259 0.0196,-0.33259 0.01407,-0.096618 0.04476,-0.14347 0.09209,-0.14053 z"
       style="clip-rule:evenodd;fill:none;stroke-width:0.02943" />
    <path
       id="path648"
       d="m 37.58,-6.5088 c 0.09809,0.09085 0.15195,0.19062 0.24132,0.28317 0.37664,0.38989 0.60202,0.93007 0.68154,1.4245 0.07911,0.49204 -0.33827,1.2355 -1.0509,0.44577 -0.19141,-0.21213 -0.20772,-0.87872 0.01633,-1.6803 0.02475,-0.088555 0.0196,-0.33259 0.0196,-0.33259 0.01407,-0.096618 0.04476,-0.14347 0.09209,-0.14053 z"
       style="clip-rule:evenodd;fill:#613e0c;fill-rule:evenodd;stroke-width:0.02943" />
    <path
       id="path650"
       d="m 37.58,-6.5088 c 0.09809,0.09085 0.15195,0.19062 0.24132,0.28317 0.37664,0.38989 0.60202,0.93007 0.68154,1.4245 0.07911,0.49204 -0.33827,1.2355 -1.0509,0.44577 -0.19141,-0.21213 -0.20772,-0.87872 0.01633,-1.6803 0.02475,-0.088555 0.0196,-0.33259 0.0196,-0.33259 0.01407,-0.096618 0.04476,-0.14347 0.09209,-0.14053 z"
       style="clip-rule:evenodd;fill:#613e0c;fill-rule:evenodd;stroke-width:0.02943" />
    <path
       id="path652"
       d="m 37.567,-6.5084 c 0.0041,-5.886e-4 0.0084,-7.652e-4 0.01292,-4.709e-4 0.09809,0.09085 0.15195,0.19062 0.24132,0.28317 0.37664,0.38989 0.60202,0.93007 0.68154,1.4245 0.056,0.34836 -0.13685,0.82274 -0.50714,0.78981 0.3182,-0.029489 0.48904,-0.45566 0.4446,-0.77895 -0.06819,-0.49613 -0.28117,-1.0413 -0.64881,-1.4397 -0.08405,-0.091086 -0.135,-0.18812 -0.22443,-0.27835 z"
       style="clip-rule:evenodd;fill:#463012;fill-rule:evenodd;stroke-width:0.02943" />
    <path
       id="path654"
       d="m 38.065,-4.0111 c -0.1656,0.014215 -0.37252,-0.077636 -0.61311,-0.34424 -0.19141,-0.21213 -0.20772,-0.87872 0.01633,-1.6803 0.02475,-0.088555 0.0196,-0.33259 0.0196,-0.33259 0.01407,-0.096618 0.04476,-0.14347 0.09209,-0.14053 0.04897,0.045351 0.08694,0.092969 0.12378,0.14076 -0.0024,0.010742 -0.0044,0.022249 -0.0062,0.03461 0,0 0.01039,0.24568 -0.0196,0.33262 -0.27867,0.80788 -0.26605,1.4337 -0.07463,1.6458 0.1478,0.16381 0.34121,0.29612 0.46176,0.34389 z"
       style="clip-rule:evenodd;fill:#3a2200;fill-rule:evenodd;stroke-width:0.02943" />
    <path
       id="path656"
       d="m 37.475,-6.066 c 0.0173,-0.10401 0.01312,-0.30227 0.01312,-0.30227 0.01407,-0.096618 0.04476,-0.14347 0.09209,-0.14053 0.04562,0.042261 0.08167,0.086465 0.11619,0.13093 0.02516,0.10986 0.06095,0.2372 0.0094,0.34042 -0.01351,0.026987 -0.02181,0.075311 -0.04718,0.094323 -0.01689,0.012655 -0.04865,-0.00341 -0.06527,-0.00727 -0.05748,-0.013243 -0.09462,-0.061243 -0.11831,-0.1156 z"
       style="clip-rule:evenodd;fill:#b98133;fill-rule:evenodd;stroke-width:0.02943" />
    <path
       id="path658"
       d="m 37.809,-5.8848 c -0.02578,0.028635 0.09503,0.86474 0.10857,0.91736 0.02466,0.095677 0.041,0.18744 0.07802,0.28 0.03917,0.097943 0.09721,0.19494 0.21999,0.15398 0.13979,-0.046617 0.13635,-0.23688 0.12999,-0.35198 -0.0086,-0.15418 -0.0505,-0.33665 -0.12202,-0.47397 -0.04014,-0.077136 -0.09112,-0.14939 -0.12799,-0.22799 -0.03284,-0.070043 -0.04023,-0.15083 -0.07999,-0.21799 -0.0281,-0.04747 -0.07834,-0.072898 -0.12999,-0.085994 -0.02354,-0.00597 -0.05771,-0.014391 -0.07658,0.00659 z"
       style="clip-rule:evenodd;fill:#997661;fill-rule:evenodd;stroke-width:0.02943" />
    <path
       id="path678"
       d="m 38.092,-7.2192 c 0.12197,-0.054768 0.23485,-0.065337 0.35498,-0.11142 0.5061,-0.19425 1.0914,-0.19052 1.5776,-0.070427 0.48381,0.11954 1.0049,0.79433 -5.18e-4,1.1415 -0.27008,0.093252 -0.88999,-0.15233 -1.5402,-0.67192 -0.07183,-0.057399 -0.29846,-0.14806 -0.29846,-0.14806 -0.08343,-0.050719 -0.11455,-0.097287 -0.09334,-0.13969 z"
       style="clip-rule:evenodd;fill:none;stroke-width:0.02943" />
    <path
       id="path680"
       d="m 38.092,-7.2192 c 0.12197,-0.054768 0.23485,-0.065337 0.35498,-0.11142 0.5061,-0.19425 1.0914,-0.19052 1.5776,-0.070427 0.48381,0.11954 1.0049,0.79433 -5.18e-4,1.1415 -0.27008,0.093252 -0.88999,-0.15233 -1.5402,-0.67192 -0.07183,-0.057399 -0.29846,-0.14806 -0.29846,-0.14806 -0.08343,-0.050719 -0.11455,-0.097287 -0.09334,-0.13969 z"
       style="clip-rule:evenodd;fill:#613e0c;fill-rule:evenodd;stroke-width:0.02943" />
    <path
       id="path682"
       d="m 38.092,-7.2192 c 0.12197,-0.054768 0.23485,-0.065337 0.35498,-0.11142 0.5061,-0.19425 1.0914,-0.19052 1.5776,-0.070427 0.48381,0.11954 1.0049,0.79433 -5.18e-4,1.1415 -0.27008,0.093252 -0.88999,-0.15233 -1.5402,-0.67192 -0.07183,-0.057399 -0.29846,-0.14806 -0.29846,-0.14806 -0.08343,-0.050719 -0.11455,-0.097287 -0.09334,-0.13969 z"
       style="clip-rule:evenodd;fill:#613e0c;fill-rule:evenodd;stroke-width:0.02943" />
    <path
       id="path684"
       d="m 38.088,-7.2071 c 0.0011,-0.00405 0.0026,-0.00807 0.0046,-0.012076 0.12197,-0.054768 0.23485,-0.065337 0.35498,-0.11142 0.5061,-0.19425 1.0914,-0.19052 1.5776,-0.070427 0.34253,0.084636 0.70377,0.44759 0.5287,0.77553 0.09725,-0.3044 -0.22822,-0.62825 -0.54316,-0.71373 -0.4833,-0.13119 -1.0684,-0.14828 -1.5788,0.034357 -0.1167,0.041755 -0.22592,0.050712 -0.34393,0.097758 z"
       style="clip-rule:evenodd;fill:#463012;fill-rule:evenodd;stroke-width:0.02943" />
    <path
       id="path686"
       d="m 40.581,-6.6892 c -0.05165,0.15798 -0.21709,0.31253 -0.55653,0.42975 -0.27008,0.093252 -0.88999,-0.15233 -1.5402,-0.67192 -0.07183,-0.057399 -0.29846,-0.14806 -0.29846,-0.14806 -0.08343,-0.050719 -0.11455,-0.097287 -0.09334,-0.13969 0.06089,-0.027345 0.11956,-0.043673 0.17795,-0.058903 0.009,0.00637 0.01875,0.012761 0.02943,0.019245 0,0 0.23019,0.086481 0.29848,0.14807 0.63465,0.57232 1.2156,0.80533 1.4857,0.71208 0.20855,-0.071999 0.40594,-0.19829 0.49703,-0.29057 z"
       style="clip-rule:evenodd;fill:#3a2200;fill-rule:evenodd;stroke-width:0.02943" />
    <path
       id="path688"
       d="m 38.459,-6.9492 c -0.08896,-0.056586 -0.27309,-0.13025 -0.27309,-0.13025 -0.08343,-0.050719 -0.11455,-0.097287 -0.09334,-0.13969 0.05673,-0.025465 0.11151,-0.041367 0.16594,-0.055757 0.11096,0.019788 0.24215,0.036631 0.31698,0.12446 0.01956,0.022983 0.06079,0.049513 0.06837,0.080295 0.005,0.020495 -0.02216,0.043441 -0.03221,0.057239 -0.03466,0.047725 -0.09336,0.063146 -0.15265,0.063701 z"
       style="clip-rule:evenodd;fill:#b98133;fill-rule:evenodd;stroke-width:0.02943" />
    <path
       id="path690"
       d="m 38.756,-7.1858 c 0.01628,0.034923 0.83307,0.25058 0.88679,0.25869 0.0977,0.014703 0.18855,0.035541 0.28821,0.037648 0.10546,0.00223 0.21743,-0.013263 0.22772,-0.14229 0.01174,-0.14689 -0.16473,-0.2181 -0.27315,-0.25725 -0.14526,-0.052392 -0.3296,-0.085122 -0.48395,-0.07298 -0.08669,0.00679 -0.17312,0.025465 -0.25988,0.028676 -0.07731,0.00285 -0.15455,-0.021934 -0.23191,-0.011592 -0.05468,0.00731 -0.09772,0.04361 -0.12997,0.086029 -0.0147,0.019335 -0.03581,0.047493 -0.02387,0.073059 z"
       style="clip-rule:evenodd;fill:#997661;fill-rule:evenodd;stroke-width:0.02943" />
    <path
       id="path710"
       d="m 37.639,-7.9684 c -0.0027,-0.13367 0.03167,-0.2417 0.03622,-0.37029 0.01905,-0.54176 0.2513,-1.079 0.55189,-1.4796 0.29916,-0.39857 1.124,-0.61444 1.0505,0.44673 -0.01975,0.28504 -0.48813,0.75962 -1.2206,1.155 -0.08091,0.043676 -0.25295,0.21683 -0.25295,0.21683 -0.0793,0.056963 -0.13433,0.067406 -0.16507,0.031307 z"
       style="clip-rule:evenodd;fill:none;stroke-width:0.02943" />
    <path
       id="path712"
       d="m 37.639,-7.9684 c -0.0027,-0.13367 0.03167,-0.2417 0.03622,-0.37029 0.01905,-0.54176 0.2513,-1.079 0.55189,-1.4796 0.29916,-0.39857 1.124,-0.61444 1.0505,0.44673 -0.01975,0.28504 -0.48813,0.75962 -1.2206,1.155 -0.08091,0.043676 -0.25295,0.21683 -0.25295,0.21683 -0.0793,0.056963 -0.13433,0.067406 -0.16507,0.031307 z"
       style="clip-rule:evenodd;fill:#613e0c;fill-rule:evenodd;stroke-width:0.02943" />
    <path
       id="path714"
       d="m 37.639,-7.9684 c -0.0027,-0.13367 0.03167,-0.2417 0.03622,-0.37029 0.01905,-0.54176 0.2513,-1.079 0.55189,-1.4796 0.29916,-0.39857 1.124,-0.61444 1.0505,0.44673 -0.01975,0.28504 -0.48813,0.75962 -1.2206,1.155 -0.08091,0.043676 -0.25295,0.21683 -0.25295,0.21683 -0.0793,0.056963 -0.13433,0.067406 -0.16507,0.031307 z"
       style="clip-rule:evenodd;fill:#613e0c;fill-rule:evenodd;stroke-width:0.02943" />
    <path
       id="path716"
       d="m 37.648,-7.9595 c -0.0033,-0.00258 -0.0064,-0.00555 -0.0093,-0.00897 -0.0027,-0.13367 0.03167,-0.2417 0.03622,-0.37029 0.01905,-0.54176 0.2513,-1.079 0.55189,-1.4796 0.21181,-0.28219 0.68709,-0.47279 0.9205,-0.18345 -0.24216,-0.20851 -0.66747,-0.03554 -0.86926,0.22092 -0.30968,0.39356 -0.55414,0.92538 -0.58556,1.4666 -0.0072,0.12373 -0.04164,0.22776 -0.04447,0.35478 z"
       style="clip-rule:evenodd;fill:#463012;fill-rule:evenodd;stroke-width:0.02943" />
    <path
       id="path718"
       d="m 39.099,-10.052 c 0.12522,0.1093 0.20279,0.32199 0.17799,0.68024 -0.01975,0.28504 -0.48813,0.75962 -1.2206,1.155 -0.08091,0.043676 -0.25295,0.21683 -0.25295,0.21683 -0.0793,0.056963 -0.13433,0.067406 -0.16507,0.031307 -0.0014,-0.066731 0.0065,-0.12711 0.01535,-0.18682 0.0094,-0.00576 0.01908,-0.012272 0.02922,-0.019562 0,0 0.16959,-0.17806 0.25297,-0.21685 0.77487,-0.36041 1.2165,-0.80402 1.2362,-1.0891 0.01526,-0.2201 -0.02382,-0.45116 -0.07315,-0.57107 z"
       style="clip-rule:evenodd;fill:#3a2200;fill-rule:evenodd;stroke-width:0.02943" />
    <path
       id="path720"
       d="m 38.03,-8.2002 c -0.08686,0.059763 -0.22664,0.20044 -0.22664,0.20044 -0.0793,0.056963 -0.13433,0.067406 -0.16507,0.031307 -0.0013,-0.062171 0.0055,-0.11881 0.01355,-0.17453 0.06159,-0.09439 0.12838,-0.20856 0.23848,-0.2431 0.0288,-0.00902 0.06934,-0.036599 0.10063,-0.031543 0.02084,0.00337 0.03132,0.037379 0.04009,0.052022 0.03038,0.050558 0.02162,0.11061 -10e-4,0.16541 z"
       style="clip-rule:evenodd;fill:#b98133;fill-rule:evenodd;stroke-width:0.02943" />
    <path
       id="path722"
       d="m 37.929,-8.5664 c 0.03851,-0.00133 0.55631,-0.66882 0.58478,-0.7151 0.05173,-0.084181 0.10642,-0.15965 0.14732,-0.25056 0.04328,-0.096195 0.07279,-0.20531 -0.04194,-0.26522 -0.13061,-0.068231 -0.26514,0.066357 -0.34356,0.15085 -0.10501,0.11322 -0.2072,0.27009 -0.25636,0.41691 -0.02764,0.082447 -0.04424,0.1693 -0.0752,0.25041 -0.0276,0.07227 -0.08061,0.13368 -0.10133,0.20892 -0.01465,0.053187 0.0019,0.10699 0.02837,0.15326 0.01205,0.021091 0.02972,0.051524 0.05792,0.05053 z"
       style="clip-rule:evenodd;fill:#997661;fill-rule:evenodd;stroke-width:0.02943" />
    <path
       id="path742"
       d="m 36.796,-8.0447 c -0.13369,0.00174 -0.24146,-0.033461 -0.37001,-0.038961 -0.54161,-0.023068 -1.0771,-0.25929 -1.4754,-0.56284 -0.39635,-0.3021 -0.60609,-1.1285 0.4545,-1.0471 0.28488,0.021861 0.75598,0.49374 1.1459,1.2291 0.04308,0.081234 0.21495,0.25455 0.21495,0.25455 0.05637,0.079718 0.06641,0.13482 0.03008,0.1653 z"
       style="clip-rule:evenodd;fill:none;stroke-width:0.02943" />
    <path
       id="path744"
       d="m 36.796,-8.0447 c -0.13369,0.00174 -0.24146,-0.033461 -0.37001,-0.038961 -0.54161,-0.023068 -1.0771,-0.25929 -1.4754,-0.56284 -0.39635,-0.3021 -0.60609,-1.1285 0.4545,-1.0471 0.28488,0.021861 0.75598,0.49374 1.1459,1.2291 0.04308,0.081234 0.21495,0.25455 0.21495,0.25455 0.05637,0.079718 0.06641,0.13482 0.03008,0.1653 z"
       style="clip-rule:evenodd;fill:#613e0c;fill-rule:evenodd;stroke-width:0.02943" />
    <path
       id="path746"
       d="m 36.796,-8.0447 c -0.13369,0.00174 -0.24146,-0.033461 -0.37001,-0.038961 -0.54161,-0.023068 -1.0771,-0.25929 -1.4754,-0.56284 -0.39635,-0.3021 -0.60609,-1.1285 0.4545,-1.0471 0.28488,0.021861 0.75598,0.49374 1.1459,1.2291 0.04308,0.081234 0.21495,0.25455 0.21495,0.25455 0.05637,0.079718 0.06641,0.13482 0.03008,0.1653 z"
       style="clip-rule:evenodd;fill:#613e0c;fill-rule:evenodd;stroke-width:0.02943" />
    <path
       id="path748"
       d="m 36.805,-8.0539 c -0.0026,0.00329 -0.0056,0.00637 -0.009,0.00924 -0.13369,0.00174 -0.24146,-0.033461 -0.37001,-0.038961 -0.54161,-0.023068 -1.0771,-0.25929 -1.4754,-0.56284 -0.28061,-0.21389 -0.46768,-0.69058 -0.17663,-0.92184 -0.2103,0.24061 -0.04048,0.66719 0.21447,0.87088 0.39125,0.31259 0.92125,0.56098 1.4622,0.59641 0.12368,0.0081 0.22745,0.043328 0.35444,0.047102 z"
       style="clip-rule:evenodd;fill:#463012;fill-rule:evenodd;stroke-width:0.02943" />
    <path
       id="path750"
       d="m 34.724,-9.5207 c 0.11023,-0.1244 0.32348,-0.2004 0.68154,-0.17294 0.28488,0.021861 0.75598,0.49374 1.1459,1.2291 0.04308,0.081234 0.21495,0.25455 0.21495,0.25455 0.05637,0.079718 0.06641,0.13482 0.03008,0.1653 -0.06674,8.723e-4 -0.12706,-0.00748 -0.1867,-0.016734 -0.0057,-0.00941 -0.01213,-0.019167 -0.01935,-0.029362 0,0 -0.1768,-0.1709 -0.21497,-0.25457 -0.35466,-0.77752 -0.79498,-1.2224 -1.0799,-1.2442 -0.21998,-0.016889 -0.45132,0.020475 -0.5716,0.068912 z"
       style="clip-rule:evenodd;fill:#3a2200;fill-rule:evenodd;stroke-width:0.02943" />
    <path
       id="path752"
       d="m 36.567,-8.4381 c 0.05912,0.087302 0.19875,0.22812 0.19875,0.22812 0.05637,0.079718 0.06641,0.13482 0.03008,0.1653 -0.06218,8.003e-4 -0.11876,-0.0064 -0.17442,-0.014841 -0.09393,-0.062286 -0.20761,-0.12992 -0.24133,-0.24027 -0.0088,-0.028866 -0.03608,-0.069608 -0.0308,-0.10087 0.0035,-0.020811 0.03761,-0.031044 0.05232,-0.039706 0.05078,-0.030003 0.11077,-0.020804 0.16539,0.00227 z"
       style="clip-rule:evenodd;fill:#b98133;fill-rule:evenodd;stroke-width:0.02943" />
    <path
       id="path754"
       d="m 36.2,-8.3393 c -0.001,-0.038517 -0.66468,-0.56125 -0.71074,-0.59006 -0.08379,-0.05235 -0.15886,-0.1076 -0.24946,-0.14917 -0.09587,-0.043996 -0.20477,-0.074312 -0.26553,0.039975 -0.0692,0.1301 0.06439,0.26563 0.1483,0.34467 0.11244,0.10584 0.26855,0.20919 0.415,0.25944 0.08224,0.028247 0.16896,0.045491 0.24985,0.077055 0.07206,0.028135 0.13308,0.081595 0.20817,0.10287 0.05308,0.01504 0.10701,-0.00114 0.15346,-0.027239 0.02118,-0.011892 0.05174,-0.029333 0.05096,-0.057539 z"
       style="clip-rule:evenodd;fill:#997661;fill-rule:evenodd;stroke-width:0.02943" />
    <path
       id="path774"
       d="m 36.818,-6.8662 c -0.02063,0.1321 -0.07335,0.23247 -0.10026,0.35829 -0.11327,0.53013 -0.43568,1.0186 -0.80153,1.3606 -0.3641,0.34028 -1.2139,0.40894 -0.95643,-0.62313 0.06917,-0.27722 0.61316,-0.66281 1.4033,-0.92434 0.08729,-0.028892 0.2869,-0.16937 0.2869,-0.16937 0.08802,-0.042257 0.14403,-0.042939 0.168,-0.00203 z"
       style="clip-rule:evenodd;fill:none;stroke-width:0.02943" />
    <path
       id="path776"
       d="m 36.818,-6.8662 c -0.02063,0.1321 -0.07335,0.23247 -0.10026,0.35829 -0.11327,0.53013 -0.43568,1.0186 -0.80153,1.3606 -0.3641,0.34028 -1.2139,0.40894 -0.95643,-0.62313 0.06917,-0.27722 0.61316,-0.66281 1.4033,-0.92434 0.08729,-0.028892 0.2869,-0.16937 0.2869,-0.16937 0.08802,-0.042257 0.14403,-0.042939 0.168,-0.00203 z"
       style="clip-rule:evenodd;fill:#613e0c;fill-rule:evenodd;stroke-width:0.02943" />
    <path
       id="path778"
       d="m 36.818,-6.8662 c -0.02063,0.1321 -0.07335,0.23247 -0.10026,0.35829 -0.11327,0.53013 -0.43568,1.0186 -0.80153,1.3606 -0.3641,0.34028 -1.2139,0.40894 -0.95643,-0.62313 0.06917,-0.27722 0.61316,-0.66281 1.4033,-0.92434 0.08729,-0.028892 0.2869,-0.16937 0.2869,-0.16937 0.08802,-0.042257 0.14403,-0.042939 0.168,-0.00203 z"
       style="clip-rule:evenodd;fill:#613e0c;fill-rule:evenodd;stroke-width:0.02943" />
    <path
       id="path780"
       d="m 36.81,-6.8767 c 0.0028,0.00311 0.0053,0.00658 0.0076,0.010457 -0.02063,0.1321 -0.07335,0.23247 -0.10026,0.35829 -0.11327,0.53013 -0.43568,1.0186 -0.80153,1.3606 -0.25778,0.24091 -0.75904,0.34568 -0.93839,0.020058 0.20207,0.24756 0.65104,0.15143 0.89447,-0.065886 0.37359,-0.3335 0.70707,-0.81452 0.83242,-1.3419 0.02866,-0.12058 0.08074,-0.21701 0.10568,-0.34158 z"
       style="clip-rule:evenodd;fill:#463012;fill-rule:evenodd;stroke-width:0.02943" />
    <path
       id="path782"
       d="m 35.016,-5.0696 c -0.10423,-0.12947 -0.14351,-0.35243 -0.05659,-0.70086 0.06917,-0.27722 0.61316,-0.66281 1.4033,-0.92434 0.08729,-0.028892 0.2869,-0.16937 0.2869,-0.16937 0.08802,-0.042257 0.14403,-0.042939 0.168,-0.00203 -0.01029,0.065946 -0.02861,0.12402 -0.0477,0.18127 -0.01023,0.00404 -0.02092,0.00876 -0.03218,0.014165 0,0 -0.19805,0.14575 -0.28692,0.16939 -0.82586,0.21971 -1.3381,0.57948 -1.4072,0.8567 -0.05342,0.21406 -0.05525,0.4484 -0.0276,0.57508 z"
       style="clip-rule:evenodd;fill:#3a2200;fill-rule:evenodd;stroke-width:0.02943" />
    <path
       id="path784"
       d="m 36.391,-6.7063 c 0.09595,-0.043694 0.25813,-0.15783 0.25813,-0.15783 0.08802,-0.042257 0.14403,-0.042939 0.168,-0.00203 -0.0096,0.061438 -0.02616,0.11602 -0.04379,0.16949 -0.07711,0.082199 -0.1628,0.18297 -0.27723,0.19777 -0.02993,0.00386 -0.07466,0.023942 -0.10459,0.013504 -0.01993,-0.00695 -0.02432,-0.04227 -0.0304,-0.058218 -0.02109,-0.055082 -0.002,-0.11269 0.02988,-0.16269 z"
       style="clip-rule:evenodd;fill:#b98133;fill-rule:evenodd;stroke-width:0.02943" />
    <path
       id="path786"
       d="m 36.428,-6.3281 c -0.03815,-0.00541 -0.66446,0.56151 -0.70056,0.60212 -0.06562,0.073866 -0.13264,0.13864 -0.18877,0.22102 -0.0594,0.087169 -0.10749,0.18947 -0.005,0.26847 0.11671,0.089969 0.27265,-0.019086 0.3646,-0.088605 0.12315,-0.093165 0.25114,-0.22981 0.32516,-0.36579 0.0416,-0.076361 0.07309,-0.15898 0.11773,-0.23345 0.03979,-0.066347 0.10269,-0.11757 0.13622,-0.18804 0.0237,-0.049816 0.01676,-0.10569 -0.0012,-0.15586 -0.0082,-0.02287 -0.02027,-0.055918 -0.04821,-0.059858 z"
       style="clip-rule:evenodd;fill:#997661;fill-rule:evenodd;stroke-width:0.02943" />
  </g>
  <g
     id="draggable3"
     transform="matrix(0.99611,0,0,0.99611,119.16007,15.599672)">
    <path
       id="path110"
       d="m -34.041,-9.4305 c 1.4457,-2.2494 9.1309,-2.1623 9.9525,-1.8407 2.879,1.1265 6.4858,3.0444 7.408,6.271 0.48333,1.6926 -0.0216,2.9043 -0.72778,4.363 -0.26728,0.55309 -0.45185,1.1846 -0.78395,1.7043 -0.34198,0.53642 -0.97778,0.93518 -1.4315,1.3636 -0.47963,0.45247 -0.9037,0.96296 -1.4315,1.3636 -1.9796,1.5019 -5.2549,2.5173 -7.6352,1.6358 -2.5123,-0.93086 -4.2346,-2.0574 -5.7599,-4.2605 -0.5284,-0.76296 -1.0636,-1.4543 -1.3296,-2.3518 -0.31234,-1.0543 0.02963,-2.1821 0.17099,-3.2383 0.21667,-1.6278 0.66358,-3.6037 1.5679,-5.0099 z"
       style="clip-rule:evenodd;fill:#fef388;fill-rule:evenodd;stroke:#aa0000;stroke-width:0.48148px" />
    <path
       id="path186"
       d="m -26.285,-4.1343 c -0.14755,-0.73805 0.06347,-1.4031 0.17061,-2.0904 0.10574,-0.68143 0.61775,-1.1155 1.3087,-1.5945 0.43155,1.8592 -0.1377,3.0352 -1.4793,3.6848 z"
       style="clip-rule:evenodd;fill:#fdc72b;fill-rule:evenodd;stroke-width:0.42824" />
    <path
       id="path250"
       d="m -26.209,-3.8693 c 0.6522,-0.235 0.83929,-0.23128 1.5454,-0.26518 0.67638,-0.032604 1.6918,0.51733 2.3176,1.1831 -1.7749,0.70181 -3.0222,0.31278 -3.8631,-0.91797 z"
       style="clip-rule:evenodd;fill:#fdc72b;fill-rule:evenodd;stroke-width:0.42824" />
    <path
       id="path314"
       d="m -26.355,-3.3707 c 0.70604,0.67622 1.2589,1.0782 0.78212,3.1237 -0.0098,0.04124 -0.22365,0.75808 -0.4924,0.67463 -0.19633,-0.06091 -0.40552,-0.53632 -0.5143,-0.78366 -0.5549,-1.2628 -0.4252,-2.0408 0.22458,-3.0147 z"
       style="clip-rule:evenodd;fill:#fdc72b;fill-rule:evenodd;stroke-width:0.38791" />
    <path
       id="path378"
       d="m -27.089,-3.7359 c 0.17934,-0.027102 0.11418,0.76608 -0.03473,1.0504 -0.46977,0.89609 -1.2708,1.5242 -2.6014,1.7234 0.37671,-1.6152 1.4474,-2.5933 2.6361,-2.7737 z"
       style="clip-rule:evenodd;fill:#fdc72b;fill-rule:evenodd;stroke-width:0.42824" />
    <path
       id="path442"
       d="m -27.592,-5.6901 c 0.42193,0.38811 0.82204,1.5623 0.61064,1.5217 -1.1251,-0.21625 -2.4742,-0.91148 -2.9947,-2.3102 1.0667,0.022894 1.8494,0.29653 2.3841,0.78853 z"
       style="clip-rule:evenodd;fill:#fdc72b;fill-rule:evenodd;stroke-width:0.42824" />
    <path
       id="path518"
       d="m -27.249,-4.4412 c -0.12607,-0.0035 -0.2263,-0.040815 -0.34725,-0.050938 -0.5096,-0.042551 -1.0053,-0.28578 -1.369,-0.58718 -0.36197,-0.29997 -0.52791,-1.0869 0.46862,-0.96951 0.26768,0.03155 0.69357,0.49442 1.0328,1.2025 0.03748,0.078221 0.19282,0.24818 0.19282,0.24818 0.05007,0.077303 0.05741,0.12963 0.022,0.15695 z"
       style="clip-rule:evenodd;fill:none;stroke-width:0.027762" />
    <path
       id="path520"
       d="m -27.249,-4.4412 c -0.12607,-0.0035 -0.2263,-0.040815 -0.34725,-0.050938 -0.5096,-0.042551 -1.0053,-0.28578 -1.369,-0.58718 -0.36197,-0.29997 -0.52791,-1.0869 0.46862,-0.96951 0.26768,0.03155 0.69357,0.49442 1.0328,1.2025 0.03748,0.078221 0.19282,0.24818 0.19282,0.24818 0.05007,0.077303 0.05741,0.12963 0.022,0.15695 z"
       style="clip-rule:evenodd;fill:#613e0c;fill-rule:evenodd;stroke-width:0.027762" />
    <path
       id="path522"
       d="m -27.249,-4.4412 c -0.12607,-0.0035 -0.2263,-0.040815 -0.34725,-0.050938 -0.5096,-0.042551 -1.0053,-0.28578 -1.369,-0.58718 -0.36197,-0.29997 -0.52791,-1.0869 0.46862,-0.96951 0.26768,0.03155 0.69357,0.49442 1.0328,1.2025 0.03748,0.078221 0.19282,0.24818 0.19282,0.24818 0.05007,0.077303 0.05741,0.12963 0.022,0.15695 z"
       style="clip-rule:evenodd;fill:#613e0c;fill-rule:evenodd;stroke-width:0.027762" />
    <path
       id="path524"
       d="m -27.24,-4.4495 c -0.0026,0.003 -0.0055,0.00579 -0.0089,0.00836 -0.12607,-0.0035 -0.2263,-0.040815 -0.34725,-0.050938 -0.5096,-0.042551 -1.0053,-0.28578 -1.369,-0.58718 -0.25627,-0.21238 -0.41428,-0.66887 -0.13106,-0.87566 -0.20746,0.2187 -0.06379,0.6273 0.16869,0.82908 0.35676,0.30966 0.84676,0.56414 1.3553,0.61832 0.11626,0.01239 0.21272,0.049577 0.33226,0.058013 z"
       style="clip-rule:evenodd;fill:#463012;fill-rule:evenodd;stroke-width:0.027762" />
    <path
       id="path526"
       d="m -29.146,-5.912 c 0.10867,-0.11302 0.31259,-0.17646 0.64902,-0.13682 0.26768,0.03155 0.69357,0.49442 1.0328,1.2025 0.03748,0.078221 0.19282,0.24818 0.19282,0.24818 0.05007,0.077303 0.05741,0.12963 0.022,0.15695 -0.06294,-0.00174 -0.11947,-0.011933 -0.17533,-0.022945 -0.005,-0.00909 -0.0107,-0.018531 -0.01711,-0.028418 0,0 -0.16008,-0.16787 -0.19283,-0.2482 -0.30441,-0.74647 -0.70234,-1.1827 -0.97002,-1.2142 -0.20669,-0.02437 -0.42618,0.00196 -0.5414,0.042991 z"
       style="clip-rule:evenodd;fill:#3a2200;fill-rule:evenodd;stroke-width:0.027762" />
    <path
       id="path528"
       d="m -27.449,-4.8208 c 0.05237,0.084557 0.17857,0.22265 0.17857,0.22265 0.05007,0.077303 0.05741,0.12963 0.022,0.15695 -0.05864,-0.00163 -0.11169,-0.010593 -0.16383,-0.02069 -0.08614,-0.062316 -0.19069,-0.13043 -0.21823,-0.23574 -0.0072,-0.027546 -0.03134,-0.066994 -0.02515,-0.096253 0.0041,-0.01948 0.03664,-0.027815 0.05084,-0.035415 0.04902,-0.026328 0.1052,-0.015353 0.1558,0.00849 z"
       style="clip-rule:evenodd;fill:#b98133;fill-rule:evenodd;stroke-width:0.027762" />
    <path
       id="path530"
       d="m -27.799,-4.7418 c 4.95e-4,-0.036344 -0.60492,-0.55454 -0.64723,-0.58346 -0.07697,-0.052562 -0.1456,-0.10752 -0.2294,-0.15019 -0.08867,-0.045151 -0.19015,-0.077909 -0.25181,0.027477 -0.07022,0.11997 0.05049,0.25284 0.12654,0.33056 0.10191,0.10408 0.24508,0.20749 0.38118,0.26048 0.07643,0.029783 0.15751,0.049369 0.23253,0.082227 0.06684,0.029287 0.1223,0.08202 0.19225,0.10496 0.04945,0.016215 0.1009,0.00303 0.14569,-0.019778 0.02042,-0.010395 0.0499,-0.02566 0.05024,-0.052275 z"
       style="clip-rule:evenodd;fill:#997661;fill-rule:evenodd;stroke-width:0.027762" />
  </g>
  <g
     aria-label="5 + 0 = 5"
     id="text8085"
     style="font-size:6.14509px;stroke-width:0.153627"
     transform="translate(1.4405418e-7,-23.178979)">
    <path
       d="m 24.837083,72.518763 h 2.379422 v 0.510091 h -1.824323 v 1.098195 q 0.132023,-0.04501 0.264046,-0.06601 0.132024,-0.024 0.264047,-0.024 0.750133,0 1.188211,0.411073 0.438078,0.411073 0.438078,1.113197 0,0.723128 -0.45008,1.1252 -0.45008,0.39907 -1.269225,0.39907 -0.28205,0 -0.576102,-0.04801 -0.291052,-0.04801 -0.603107,-0.144026 v -0.609108 q 0.270047,0.147026 0.558099,0.219039 0.288051,0.07201 0.609108,0.07201 0.519092,0 0.822145,-0.273048 0.303054,-0.273049 0.303054,-0.741132 0,-0.468083 -0.303054,-0.741131 -0.303053,-0.273049 -0.822145,-0.273049 -0.243044,0 -0.486087,0.05401 -0.240042,0.05401 -0.492087,0.16803 z"
       id="path19622" />
    <path
       d="m 32.863507,73.145875 v 1.671296 h 1.671296 v 0.510091 h -1.671296 v 1.671296 h -0.50409 v -1.671296 h -1.671296 v -0.510091 h 1.671296 v -1.671296 z"
       id="path19624" />
    <path
       d="m 39.092612,72.917834 q -0.468083,0 -0.705126,0.462082 -0.234041,0.459082 -0.234041,1.383245 0,0.921164 0.234041,1.383246 0.237043,0.459081 0.705126,0.459081 0.471083,0 0.705125,-0.459081 0.237042,-0.462082 0.237042,-1.383246 0,-0.924163 -0.237042,-1.383245 -0.234042,-0.462082 -0.705125,-0.462082 z m 0,-0.480085 q 0.753133,0 1.149203,0.597106 0.399071,0.594105 0.399071,1.728306 0,1.131201 -0.399071,1.728307 -0.39607,0.594105 -1.149203,0.594105 -0.753134,0 -1.152205,-0.594105 -0.39607,-0.597106 -0.39607,-1.728307 0,-1.134201 0.39607,-1.728306 0.399071,-0.597106 1.152205,-0.597106 z"
       id="path19626" />
    <path
       d="m 43.653421,74.208063 h 3.846683 v 0.504089 h -3.846683 z m 0,1.224217 h 3.846683 v 0.510091 h -3.846683 z"
       id="path19628" />
    <path
       d="m 50.767682,72.518763 h 2.379422 v 0.510091 h -1.824323 v 1.098195 q 0.132023,-0.04501 0.264047,-0.06601 0.132023,-0.024 0.264046,-0.024 0.750134,0 1.188211,0.411073 0.438078,0.411073 0.438078,1.113197 0,0.723128 -0.45008,1.1252 -0.45008,0.39907 -1.269225,0.39907 -0.28205,0 -0.576102,-0.04801 -0.291052,-0.04801 -0.603107,-0.144026 v -0.609108 q 0.270048,0.147026 0.558099,0.219039 0.288051,0.07201 0.609108,0.07201 0.519092,0 0.822146,-0.273048 0.303053,-0.273049 0.303053,-0.741132 0,-0.468083 -0.303053,-0.741131 -0.303054,-0.273049 -0.822146,-0.273049 -0.243043,0 -0.486086,0.05401 -0.240043,0.05401 -0.492088,0.16803 z"
       id="path19630" />
  </g>
  <g
     aria-label="1 + 4 = 5"
     id="text8085-8"
     style="font-size:6.14509px;stroke-width:0.153627"
     transform="translate(1.4405418e-7,-23.178979)">
    <path
       d="m 78.113606,76.488468 h 0.990176 V 73.070861 L 78.026591,73.2869 v -0.552098 l 1.07119,-0.216039 h 0.606107 v 3.969705 h 0.990176 v 0.51009 h -2.580458 z"
       id="path19643" />
    <path
       d="m 86.041012,73.145875 v 1.671296 h 1.671297 v 0.510091 h -1.671297 v 1.671296 h -0.504089 v -1.671296 h -1.671297 v -0.510091 h 1.671297 v -1.671296 z"
       id="path19645" />
    <path
       d="m 92.639183,73.046857 -1.530272,2.391424 h 1.530272 z m -0.159029,-0.528094 h 0.762136 v 2.919518 h 0.639113 v 0.50409 H 93.24229 v 1.056187 h -0.603107 v -1.056187 h -2.022359 v -0.585104 z"
       id="path19647" />
    <path
       d="m 96.830927,74.208063 h 3.846683 v 0.504089 h -3.846683 z m 0,1.224217 h 3.846683 v 0.510091 h -3.846683 z"
       id="path19649" />
    <path
       d="m 103.94519,72.518763 h 2.37942 v 0.510091 h -1.82432 v 1.098195 q 0.13202,-0.04501 0.26404,-0.06601 0.13203,-0.024 0.26405,-0.024 0.75013,0 1.18821,0.411073 0.43808,0.411073 0.43808,1.113197 0,0.723128 -0.45008,1.1252 -0.45008,0.39907 -1.26923,0.39907 -0.28205,0 -0.5761,-0.04801 -0.29105,-0.04801 -0.60311,-0.144026 v -0.609108 q 0.27005,0.147026 0.5581,0.219039 0.28805,0.07201 0.60911,0.07201 0.51909,0 0.82215,-0.273048 0.30305,-0.273049 0.30305,-0.741132 0,-0.468083 -0.30305,-0.741131 -0.30306,-0.273049 -0.82215,-0.273049 -0.24304,0 -0.48608,0.05401 -0.24005,0.05401 -0.49209,0.16803 z"
       id="path19651" />
  </g>
</svg>
