<?xml version="1.0" encoding="UTF-8"?>
<!-- Created with Inkscape (http://www.inkscape.org/) -->
<svg width="176.65mm" height="81.09mm" version="1.1" viewBox="0 0 176.65 81.09" xmlns="http://www.w3.org/2000/svg">
 <g transform="translate(19.02 -47.972)">
  <path d="m-9.7501 119.3c4.6064 2.4123 7.2786 5.4325 12.886 5.235 5.7104.65104 12.192 1.1975 16.8-2.9764 6.3447-3.9586.83567-10.325-4.8642-10.4-6.135-1.3549-12.464-.73791-18.694-.71276-4.1183.34352-9.6316 1.686-11.49 5.4087-1.3072 3.1479 4.169 2.4328 5.3617 3.445z" style="fill:#fff6d5"/>
  <path d="m37.114 83.734 25.635-25.165" style="-inkscape-stroke:none;fill:none;font-variation-settings:normal;stop-color:#000000;stroke:#000000"/>
  <ellipse cx="67.5" cy="53.818" rx="5.1081" ry="5.2905" style="fill-opacity:.54365;fill:#ffffff;stroke-width:.746;stroke:#000000"/>
  <ellipse cx="120.04" cy="53.635" rx="5.1081" ry="5.2905" style="fill-opacity:.54365;fill:#ffffff;stroke-width:.746;stroke:#000000"/>
  <ellipse cx="98.878" cy="87.203" rx="5.1081" ry="5.2905" style="fill-opacity:.54365;fill:#ffffff;stroke-width:.746;stroke:#000000"/>
  <ellipse cx="152.15" cy="87.203" rx="5.1081" ry="5.2905" style="fill-opacity:.54365;fill:#ffffff;stroke-width:.746;stroke:#000000"/>
  <ellipse cx="69.162" cy="123.4" rx="5.1081" ry="5.2905" style="fill-opacity:.54365;fill:#ffffff;stroke-width:.746;stroke:#000000"/>
  <path d="m74.068 53.453 39.405-.18243" style="-inkscape-stroke:none;fill:none;font-variation-settings:normal;stop-color:#000000;stroke:#000000"/>
  <path d="m70.97 59.477 23.389 23.024" style="-inkscape-stroke:none;fill:none;font-variation-settings:normal;stop-color:#000000;stroke:#000000"/>
  <path d="m105.63 87.568 40.318-.18243" style="-inkscape-stroke:none;fill:none;font-variation-settings:normal;stop-color:#000000;stroke:#000000"/>
  <path d="m8.3335 117.99-1.074 1.0309c2.2799.88149 4.6814 1.0331 7.0393 1.4468 1.4378.16487 2.1105-.32596 2.6564-.92562-2.2664-1.6044-5.5982-1.3024-8.6217-1.5521" style="-inkscape-stroke:none;clip-rule:evenodd;fill-rule:evenodd;fill:#ffffff;font-variation-settings:normal;stop-color:#000000"/>
  <path d="m37.724 97.442 26.455 21.426" style="-inkscape-stroke:none;fill:none;font-variation-settings:normal;stop-color:#000000;stroke:#000000"/>
  <path d="m16.955 119.54c-.76638 1.6837-6.3923.53345-8.7061-.14484-.35667-.21731.38484-1.5407.32145-1.5152m3.7479.24435c2.1331.25528 4.4026.71335 4.6367 1.4156.03281.0984-1.9627-.96387-4.1476-1.3539-1.688 1.2233-3.7043.23155-4.4339-.10639" style="clip-rule:evenodd;fill:none;stroke-linecap:round;stroke-linejoin:round;stroke-miterlimit:1.5;stroke-width:.26458px;stroke:#000000"/>
  <path d="m2.5437 115.79-1.7122 1.4513c4.2651 4.1327 5.6471 3.676 7.9848 4.7407.63373-.0828.89569-.41336 1.0159-.83849l-1.0373-1.9382c-1.5122-.18203-2.7168.15074-6.2512-3.4153z" style="fill:#ffffff"/>
  <g transform="matrix(.26458 0 0 .26458 -235.39 -61.697)" style="clip-rule:evenodd;fill-rule:evenodd;stroke-linecap:round;stroke-linejoin:round;stroke-miterlimit:1.5">
   <g transform="matrix(.98797 0 0 1.0025 11.484 -1.6436)">
    <path d="m943.83 571.76 25.17 16.002c-39.234 29.641-78.375 52.104-120.17 76.958-18.036-9.2177-24.054-24.71-32.193-35.553 42.203-11.887 90.806-38.485 127.2-57.407z" style="fill:#b66c00"/>
   </g>
   <g transform="translate(43.626 -19.744)">
    <path d="m875.14 610.88c4.872 3.755 9.394 7.807 10.544 14.713 1.708 3.989-.052 5.068-3.142 5.03-5.769-3.619-11.816-10.207-11.781-15.958z" style="fill:#eab995"/>
   </g>
   <path d="m907.12 597.65c15.467 4.021 29.894 10.109 42.562 19.702.01 10.837-1.906 23.406-8.192 33.257-5.575 8.735-1.4699 20.272-5.0629 30.477-3.4334.87003-7.5007 1.463-12.511-1.2986l-1.8134 4.9321c-7.968-.082-15.191-4.9514-20.384-11.542.145-13.739-.703-28.521 5.547-39.871-18.026-1.352-25.473-9.064-34.82-17.862l7.107-8.252c10.413-1.607 19.377-5.077 27.567-9.542z" style="fill:#0b759a"/>
   <path d="m873.32 610.88c-2.157 12.688 14.931 20.881 24.822 20.881 1.189 0 9.586 1.675 9.78 1.482.468-.469 0 0 0 0s-1.849 3.909-2.873 6.469c-3.205 8.013-1.204 16.703-2.969 25.087-.477 2.269-2.796 10.033-6.223 8.891" style="fill:none;stroke-width:1px;stroke:#000000"/>
   <path d="m901.72 535.47-11.179 3.708c-4.72 23.113-15.571 16.059-25.586 1.908h-9l17.68 66.112c12.798-.593 24.711-3.985 35.281-11.622z" style="fill:#800080"/>
   <path d="m881.82 474.91c1.062.196 1.538 1.529 2.283 2.274 2.588 2.588 4.003 6.727 5.591 9.904 5.766 11.531 4.023 25.108-1.118 36.418-1.192 2.622-3.405 7.32-6.276 9.935-.48.437-.384 2.702-.165 5.329.143 1.709 5.934-.46 7.139 0 1.778.679-1.308 5.568-5.273 12.188-3.395 5.671-13.144 1.189-15.615-2.835-7.71-12.554 3.603-4.359 3.471-8.12-.188-5.352.097-3.023-.14-6.418-.053-.757-6.367-5.002-8.059-12.475-1.206-5.324-3.53-9.831-4.473-15.174-1.327-7.521-.296-15.467 0-23.161-.818-19.313 8.585-18.225 22.635-7.865z" style="fill:#eab995"/>
   <path d="m890.56 501.4c2.026 1.602 1.199 4.67.964 7.021-.588 5.881-3.528 11.618-5.641 16.902-.451 1.126-3.48 5.153-5.513 4.137-1.768-.884 2.126-5.078 2.179-6.562.147-4.117 7.129-10.428 3.809-18.105-.612-1.416 2.255-3.849 4.151-3.849z" style="fill:#e1a476"/>
   <path d="m875.14 610.88c4.872 3.755 9.394 7.807 10.544 14.713 1.708 3.989-.052 5.068-3.142 5.03-5.769-3.619-11.816-10.207-11.781-15.958z" style="fill:#eab995"/>
   <path d="m874.39 458.41c11.997-7.3 28.987 34.446 30.668 44.532 1.049 6.296.936 25.094.936 21.542" style="fill:none;stroke-width:1px;stroke:#000000"/>
   <path d="m885.51 531.12c-2.081.219 3.224 2.728 4.603 3.004 4.031.806 9.51-1.198 13.032-2.607 1.471-.588 5.81-.962 5.213-3.351-1.583-6.33-1.045-14.22-2.135-20.765-.71-4.254-2.644-7.905-4.009-12.001-.87-2.61-.911-5.331-1.676-8.006-2.097-7.34-6.528-14.814-11.542-20.665-1.892-2.207-3.133-4.881-5.586-6.516-2.264-1.509-6.621-2.995-9.494-2.42-.644.128-3.173.752-3.538 1.117-.037.037-.13 3.035-.744 2.42-2.206-2.205-4.94-3.428-8.751-2.793-1.004.168-1.888 2.023-2.978 1.862-10.11-1.494-16.505 21.16-12.657 30.264 1.266 2.995.45 6.902 0 10.053-.829 5.802 3.214 14.592 2.418 20.468-.624 4.6 3.525 7.058.789 10.966-.983 1.403-5.77 3.283-6.15 4.425-.224.672 6.663 2.762 6.663 2.762s3.608-2.564 5.586-2.235c4.106.685 8.859-.781 12.659-2.047 1.026-.342 3.653.257 4.282-.373.231-.23-1.896-2.844-2.234-3.351-1.962-2.943-4.045-7.296-5.213-10.798-2.184-6.552-3.314-13.332-4.282-20.107-.43-3.016.587-6.991-.372-9.867-.904-2.712-.88281-7.5747.51619-10.373.088-.176 2.6218 3.3517 3.2078 4.2287.172.26 1.036 1.384 1.489.931 1.063-1.063.985-6.121 1.489-7.633.089-.266.402-2.606.559-2.606.619 0 .962 1.551 1.117 1.862 1.467 2.935 3.176 4.852 5.399 7.074.288.288 1.44 2.097 2.048 1.489 1.02-1.02-1.19-8.093-1.676-9.308-.224-.56-.783-4.022-.558-3.91 3.874 1.937 5.527 8.134 8.377 10.984.666.666 1.082-1.46 1.118-1.675.065-.394.525-6.33.558-6.33.751 0 3.559 5.07 4.096 6.144 3.368 6.736 4.355 13.473 5.585 20.851.819 4.911-1.151 9.039-2.606 13.405-.739 2.217-.757 4.515-1.304 6.702-.662 2.648-2.994 4.499-4.095 6.702-.958 1.914 2.818 3.165 4.095 3.165z" style="fill:#58332f"/>
   <path d="m870.44 459.28c7.377 4.792-9.52-8.41-23.677 9.389-4.843 6.089 8.873 81.327-4.461 67.993-.129-.129 13.77-.936 15.922-.936" style="fill:none;stroke-width:1px;stroke:#000000"/>
   <path d="m881.82 474.91c1.062.196 1.538 1.529 2.283 2.274 2.588 2.588 4.003 6.727 5.591 9.904 5.766 11.531 4.023 25.108-1.118 36.418-1.712 3.766-5.532 11.82-10.383 11.82-6.872 0-12.144-9.034-14.535-14.216-2.288-4.957-3.53-9.831-4.473-15.174-1.327-7.521-.296-15.467 0-23.161" style="fill:none;stroke-width:1px;stroke:#000000"/>
   <path d="m879.39 493.92c1.891 4.716 4.081 9.648 5.669 14.412.256.769 1.657 2.945.958 3.993-1.416 2.125-4.692 1.463-6.709.958" style="fill:none;stroke-width:1px;stroke:#000000"/>
   <path d="m887.21 488.98c-.405-.668-6.505.01-7.105 1.63" style="fill:none;stroke-width:1px;stroke:#000000"/>
   <path d="m873.66 492.41c.361-1.184-2.176-2.056-2.972-2.123-2.414-.201-3.689.819-5.111 2.716" style="fill:none;stroke-width:1px;stroke:#000000"/>
   <path d="m871.82 500.94c.46053-.0741.91273-.22839 1.3268-.44511 1.4554-.60653 1.2953-1.9514.69322-3.1039-.19002-.33519-.42563-.64116-.638-.962.18505-.45757-.0328-.98574-.43162-1.2507-.55337-.38605-1.2642-.52388-1.9291-.45493-.70325.15199-1.2433.69095-1.7014 1.2132-.70281.85725-1.2918 1.869-1.4212 2.9873-.0645.55136.0579 1.1836.54552 1.5157.65248.46518 1.4836.56814 2.264.59922.43237.009.86595-.0224 1.2917-.0988z"/>
   <path d="m885.1 494.44c-.183.096-.329.218-.444.357-.058.069-.108.144-.151.223-.121.118-.234.244-.334.373-.465.602-.631 1.29-.362 1.827.254.508.561.858.889 1.085.076.485.292.904.643 1.196.51.422 1.35.613 2.586.206.951-.314 1.337-1.055 1.34-1.911.002-.306-.051-.628-.145-.946-.037-.221-.1-.441-.187-.655-.122-.3-.292-.585-.501-.842-.035-.131-.084-.257-.149-.379-.279-.522-.847-.982-1.854-1.184-.486-.097-.885.08-1.187.445-.051.062-.099.131-.144.205z"/>
   <path d="m884.94 520.06c.931-.203-2.124 4.1-2.911 4.73-3.85 3.08-8.297-4.181-7.188-7.507" style="fill:none;stroke-width:1px;stroke:#000000"/>
   <path d="m906.89 527.93c.643.154-1.114.714-1.705 1.009-1.001.501-2.034.937-3.035 1.438-3.26 1.629-10.772 4.562-13.577 1.757" style="fill:none;stroke-width:1px;stroke:#000000"/>
   <path d="m882.51 536.67c.695-.288.155 3.175.15 3.293-.102 2.141.137 4.02.479 6.069" style="fill:none;stroke-width:1px;stroke:#000000"/>
   <path d="m872.37 536.71c.081-.29.073-.9.073-.9s-.16 2.234-.16 3.354c0 1.854.6 5.31-.798 6.709" style="fill:none;stroke-width:1px;stroke:#000000"/>
   <path d="m873.28 539.13c.064-.028.568-.253.603-.288.192-.192-.547.059-.799.16-.603.241-1.502.607-2.077.799-2.624.874-5.447.898-8.146 1.437" style="fill:none;stroke-width:1px;stroke:#000000"/>
   <path d="m885.08 539.18c4.681-.435 10.709-1.93 16.637-2.135" style="fill:none;stroke-width:1px;stroke:#000000"/>
   <path d="m906.54 599.1c.172-.386-.801.274-1.189.44-.728.312-1.497.516-2.237.799-2.253.861-4.458 1.846-6.708 2.715-7.472 2.887-13.699 4.62-21.564 5.112-1.235.077-6.709 1.339-6.709-.959" style="fill:none;stroke-width:1px;stroke:#000000"/>
   <path d="m880.01 466.41c2.852-.499 2.785 9.358 3.101 13.157.085 1.017.625 4.3-1.185 4.445-2.862.23-5.904-8.074-7.706-10.076-.118-.131-2.646-2.974-3.26-2.668-.609.305.813 3.083.889 3.26.779 1.818 4.23 10.292 2.668 11.855-.692.691-1.514-1.273-2.075-2.075-2.017-2.882-4.056-6.427-6.52-8.89-.115-.115-.8 8.262-2.371 8.89-2.16.865-3.853-6.102-3.853-3.852" style="fill:none;stroke-width:1px;stroke:#000000"/>
   <path d="m943.96 571.53c-.075.911 3.392 2.812 4.121 3.298 4.988 3.325 9.781 6.71 15.115 9.484 1.098.571 2.193 1.15 3.26 1.778.803.472 3.204 1.899 2.371 1.482" style="fill:none;stroke-width:1px;stroke:#000000"/>
   <path d="m970.41 588.42c.055-.044-7.075 4.633-9.071 6.277-6.613 5.446-15.568 8.8768-22.474 14.057" style="fill:none;stroke-width:1px;stroke:#000000"/>
   <path d="m908.05 597.02c.328 0 4.583 1.844 5.081 2.01 3.98 1.327 7.386 2.243 11.38 3.695 7.744 2.816 14.671 7.608 21.392 12.497 2.716 1.975 3.323 2.979 3.33 6.584" style="fill:none;stroke-width:1px;stroke:#000000"/>
   <path d="m913.73 602.05c.721.633 10.337-7.332 9.935-8.458.139.154.939-.279.83-.532-.095-.222-.192-.441-.293-.66.217-.606-.969-2.58-1.183-2.321-1.589-2.844-3.54-5.469-5.431-8.137-2.48-3.5-4.855-7.075-6.113-11.35-.334-1.137-.536-2.421-.654-3.805.174.14.36.19.537.173.147-.014.306-.075.459-.228.084-.084.16-.209.16-.397 0-.119-.071-.376-.24-.703-.23-.445-.641-1.107-1.055-1.747-.005-.31-.009-.623-.011-.939.092-.023.162-.07.208-.108.06-.05.329-.324.061-.752-.088-.141-.177-.28-.267-.418-.13692-5.9902.65527-11.902-1.405-17.244-.008-.465-.037-.907-.086-1.292-.028-.213-.063-.41-.106-.588-1.04-2.2858-2.2777-4.3985-4.23-5.886-.778-.536-1.534-.895-2.218-1.041-.04-.03-.077-.055-.112-.073-.177-.091-.341-.095-.473-.058-.048.013-.095.031-.141.057-.173.004-.339.026-.497.065-.294.074-.566.149-.814.224-1.077.328-1.732.67-2.066.993-.291.281-.4.574-.399.853.001.127.025.255.075.383-.085.081-.157.19-.206.338-.159.478-.076 1.116.18 1.793.0389 1.5376-3.2857 12.092-3.01 15.922-.037.007-.074.016-.111.029-.262.088-.403.372-.315.633.05.147.161.256.296.308.022.115.053.302.06.465.063 1.407-.303 3.96-.284 4.281.155 2.711.497 4.566 1.13 7.273 1.478 6.313 4.209 12.768 7.891 18.132-.026.009-.05.02-.074.032-.124.061-.239.163-.323.331-.093.185-.103.48.081.818.024.043.052.089.083.137-.003.026-.004.054-.004.083 0 .509-.003 1.016-.023 1.525-.009.211.116.398.299.478.066.379.135.757.214 1.134.647 3.107 2.666 6.266 2.142 5.356.936 1.047 5.015 4.914 5.096 5.563.026.207 2.305-.731 2.407-.642z"/>
   <path d="m866.86 542.35c-.089-.97-.051-2.921-.051-2.921s1.097 4.268 2.075 6.224c1.673 3.347 4.991 6.801 8.594 8.001 7.481 2.494 11.501-8.729 12.151-13.929" style="fill:none;stroke-width:1px;stroke:#000000"/>
   <path d="m888.49 538.72c2.726.603-.169 7.83-1.234 9.604-1.362 2.27-3.608 2.384-5.927 2.964-6.371 1.592-7.865 2.998-13.04-3.557-2.046-2.592-3.556-4.975-3.556-8.298" style="fill:none;stroke-width:1px;stroke:#000000"/>
   <path d="m865.96 540.28c-3.419.376 2.964 7.312 3.513 7.743 4.776 3.741 9.583 3.871 14.522.592" style="fill:none;stroke-width:1px;stroke:#000000"/>
   <path d="m890.84 627.68c-.032 2.308-1.312 6.987 1.456 4.219" style="fill:none;stroke-width:1px;stroke:#000000"/>
   <path d="m897.55 637.06c-14.114 6.924-26.856 15.872-40.741 23.093-2.535 1.318-15.569 8.163-15.569 2.394" style="fill:none;stroke-width:1px;stroke:#000000"/>
   <path d="m868.13 607.21c6.781-.504-37.929 18.892-49.835 21.868" style="fill:none;stroke-width:1px;stroke:#000000"/>
   <path d="m886.29 628.9c1.684-1.684.143-3.424-.628-4.89-.818-1.555-2.023-4.425-3.61-7.026-2.245-3.681-5.256-6.825-9.018-4.944-10.751 4.4119 19.057 31.714 12.355 10.376" style="fill:none;stroke-width:1px;stroke:#000000"/>
   <path d="m922.07 594.09c1.714-2.091 5.613 8.498 6.655 10.013.528.768 1.921 2.359 1.504 3.192" style="fill:none;stroke-width:1px;stroke:#000000"/>
   <path d="m892.82 676.3c.569-.312 1.696 1.655 1.9 1.842 1.33 1.219 6.628 4.881 7.286 5.325 5.362 3.616 13.821 10.649 21.019 10.649.515 0 .113-1.608-.28-1.961-2.667-2.401-2.618-2.181-5.605-3.924" style="fill:none;stroke-width:1px;stroke:#000000"/>
   <g transform="rotate(-1.8829 942.69 650.61)">
    <path d="m948.53 620.69c.227-1.25 1.673-4.22 2.242-3.083-.603 1.0214 1.1454 13.804-4.007 23.073-10.19 14.528-9.914 26.895-10.006 26.252-1.462-10.237.723 1.867-.28 8.688-.503 3.417-.397 3.284-1.121 6.726-.113.533-.769 1.941-.841 1.401-.21-1.574 0-3.176 0-4.764" style="fill:none;stroke-width:1px;stroke:#000000"/>
   </g>
   <path d="m849.07 566.04c-1.109 8.195 10.026 45.652 10.646 46.726.52181 4.3178 1.6475 2.952 2.94 5.43 4.0567 3.4768 6.9074-1.3036 16.204-9.548.44516 1.3305 2.5337.17011 2.254-1 .28-.942-.003-1.894-1.131-1.183-6.426 1.389-17.291-34.075-15.514-36.775 2.8442-5.4936 2.2487-11.116 2.7274-15.518 1.517-5.681-2.1724-9.3157-5.9014-12.482-3.6061-1.488-10.833.1671-12.605 4.486-.064.05-.116.117-.15.198-.031.074-.047.14-.054.199 0 0-.142.337-.102.504-1.113 3.864.124 8.101 1.381 11.683-.025.064-.913 7.014-.695 7.28z"/>
   <path d="m890.04 555.98c-3.8183 4.2763-5.9333 7.7631-7.974 13.045-.565.512-1.275.961-2.062 1.029-.42-.578-.655-1.465-1.338-1.674-.344-.449-.687-.893-.99-1.278-1.8957-2.5579-1.0507-8.189-3.346-8.07-.21-3.449-1.643 1.171-1.659 1.341-.254 2.738.349 6.838.702 9.531-.001 2.345.016 4.981.117 7.285-.11811 3.1311.23691 8.7158 2.911 9.158.23.025.243-.427.225-.658-2.1322-4.9237-1.2613-11.023-.997-16.191 3.3524 5.4495 6.4616 6.8066 9.1252.38921 1.756-2.671.95278-1.2192 2.4138-4.0282.532-1.024 1.39-1.868 1.85-2.927v1.053c-.75329 7.1461-1.6905 12.675 2.117 18.53.296.444.668.882 1.147 1.116.484.237 2.012.059 1.603-.89-3.0782-5.7108-3.5564-11.938-3.47-18.031.578-2.191 1.29-4.351 1.751-6.57.113-.541-.359-1.267-.939-1.313.291-.887-.735-1.883-1.187-.847z" style="fill:#ffffff"/>
   <path d="m890.4 627.22c-.1-.772.198-.29.87.169.683.468 1.393.908 2.146 1.252 1.352.618 8.596 3.283 9.477 3.577 1.949.649 12.224 2.19 4.113.715-1.07-.195-2.146-.358-3.219-.537" style="fill:none;stroke-width:1px;stroke:#000000"/>
   <path d="m907.18 633.47c.464.219 1.716.675 1.252.894-4.246 2.009-26.409-7.644-23.246-10.192.192-.154-.854-.381-.715-.179 3.695 5.37 22.006 13.392 23.782 9.477" style="fill:none;stroke-width:1px;stroke:#000000"/>
   <path d="m905.68 610.73c1.763-.916 3.212-.167 5.087.395 5.233 1.57 9.828 3.601 14.173 6.959.434.335 4.936 4.051 2.993 5.022" style="fill:none;stroke-width:1px;stroke:#000000"/>
   <path d="m914.9 615.96c-.103-1.971 2.165-2.867 3.727-1.975 2.295 1.312 6.6632 3.5356 8.2082 5.4466 4.0316 3.8314 3.2143 6.0223 3.9118 8.4084" style="fill:none;stroke-width:1px;stroke:#000000"/>
   <path d="m929.33 626.57c.874-1.054 2.435-1.952 2.529.29.152 3.614-2.86 7.131-3.576 10.55-1.647 7.86-.854 16.45-4.828 23.604" style="fill:none;stroke-width:1px;stroke:#000000"/>
   <path d="m930.75 627.84c1.84-.847 1.122 1.276.933 2.596-.423 2.964-2.3 7.027-3.04 9.835-.169.645-.251 1.309-.357 1.967-2.079 12.89-1.031 29.206-5.365 41.485" style="fill:none;stroke-width:1px;stroke:#000000"/>
   <path d="m930.8 635.36c1.702-.07.591 2.538.352 3.299-1.225 3.897-1.485 3.697-2.682 7.689-1.455 4.849-1.958 10.092-3.756 14.842-1.723 4.554-3.907 8.803-5.9 13.232" style="fill:none;stroke-width:1px;stroke:#000000"/>
   <path d="m909.43 634.23c.214-1.05-1.51 1.548-2.065 2.465-1.4 2.315-2.373 4.749-2.919 7.403-1.612 7.831-.562 16.156-1.551 24.068" style="fill:none;stroke-width:1px;stroke:#000000"/>
   <path d="m911.7 636.66c.512-.25 2.079-.935 1.569-.68-4.396 2.198-6.996 4.549-8.404 9.656-1.696 6.152-1.591 13.184-2.325 19.491-.26 2.241-.169 5.704-1.251 7.868" style="fill:none;stroke-width:1px;stroke:#000000"/>
   <path d="m900.43 672.77c-.646-2.009 3.337 2.075 4.248 2.726 1.252.894 2.518 1.769 3.755 2.682 2.463 1.818 10.614 9.414 14.484 5.543" style="fill:none;stroke-width:1px;stroke:#000000"/>
   <path d="m900.38 671.45c-.903-2.045-3.521 2.992-3.38 3.415.659 1.977 6.404 6.123 7.917 7.411 3.903 3.323 7.77 4.753 11.788 7.921 1.891 1.491 8.281 3.075 9.486 1.791 2.62-2.794-3.434-8.424-4.118-8.767" style="fill:none;stroke-width:1px;stroke:#000000"/>
   <path d="m869.7 568.75c.267-1.63-.152 2.658-.152 3.398 0 2.776 1.395 5.254 2.261 7.855.673 2.019 2.101 3.598 3.095 5.474 2.138 4.038 4.185 8.217 6.426 12.139.447.782 2.267 5.275.357 5.594-4.509.751-5.058-3.966-6.188-6.903-2.088-5.427-3.675-11.15-5.832-16.542-1.382-3.455-3.422-8.717-.238-11.901z" style="fill:#5c005c"/>
  </g>
  <ellipse cx="31.643" cy="90.515" rx="6.8533" ry="7.0981" style="fill:#800080;stroke-width:1.0009;stroke:#000000"/>
  <path d="m34.651 86.288c-1.475 1.1479-2.3575 2.1423-3.3213 3.7168-.21119.13112-.4652.23355-.72158.20927-.10086-.20997-.12428-.50821-.33109-.61524-.08404-.16414-.16804-.32663-.24267-.46786-.45819-.93138.14258-2.6879-.60054-2.7841.13463-1.1185-.59552.27935-.6106.33293-.2418.86325-.28851 2.2135-.333 3.0979-.13765.75203-.28658 1.5984-.38908 2.3433-.22124.99729-.43443 2.8092.39731 3.1076.0723.02154.10293-.12272.11069-.19786-.39549-1.704.241-3.6092.6284-5.2511.75606 1.9441 1.6738 2.5614 2.9038.65921.7196-.75381.37697-.33523 1.01-1.1506.23059-.29726.55519-.5177.76474-.83041l-.06166.33772c-.66008 2.2478-1.2845 3.9663-.40617 6.0669.06893.15974.16259.32199.30251.42509.14135.10437.64183.13675.56623-.19156-.65281-2.0118-.44148-4.0371-.05698-5.9861.31368-.66885.66853-1.3199.94632-2.0046.06793-.16689-.04095-.42738-.22426-.47609.14527-.26744-.12546-.64696-.33109-.34116z" style="clip-rule:evenodd;fill-rule:evenodd;fill:#ffffff;stroke-linecap:round;stroke-linejoin:round;stroke-miterlimit:1.5;stroke-width:.32602"/>
 </g>
</svg>
