<?xml version="1.0" encoding="UTF-8" standalone="no"?>
<!-- Created with Inkscape (http://www.inkscape.org/) -->

<svg
   width="135.27357mm"
   height="88.750885mm"
   viewBox="0 0 135.27358 88.750885"
   version="1.1"
   id="svg5"
   inkscape:version="1.1.1 (3bf5ae0d25, 2021-09-20)"
   sodipodi:docname="2023-PE-02-answerC.svg"
   xmlns:inkscape="http://www.inkscape.org/namespaces/inkscape"
   xmlns:sodipodi="http://sodipodi.sourceforge.net/DTD/sodipodi-0.dtd"
   xmlns="http://www.w3.org/2000/svg"
   xmlns:svg="http://www.w3.org/2000/svg">
  <sodipodi:namedview
     id="namedview7"
     pagecolor="#ffffff"
     bordercolor="#666666"
     borderopacity="1.0"
     inkscape:showpageshadow="2"
     inkscape:pageopacity="0.0"
     inkscape:pagecheckerboard="0"
     inkscape:deskcolor="#d1d1d1"
     inkscape:document-units="mm"
     showgrid="false"
     inkscape:zoom="2.0510461"
     inkscape:cx="19.502243"
     inkscape:cy="113.84434"
     inkscape:window-width="2048"
     inkscape:window-height="1017"
     inkscape:window-x="-8"
     inkscape:window-y="-8"
     inkscape:window-maximized="1"
     inkscape:current-layer="layer1"
     inkscape:pageshadow="2" />
  <defs
     id="defs2">
    <clipPath
       id="id3">
      <path
         d="m 951,4695 c 27,-80 62,-165 81,-194 85,-128 104,-201 274,-239 154,-35 183,8 225,154 55,189 59,270 1,387 -60,120 -106,177 -309,177 -204,39 -329,-115 -272,-285 z"
         id="path7759" />
    </clipPath>
    <clipPath
       id="id4">
      <path
         d="m 1145,4159 c 61,-18 144,-26 171,-19 3,-18 52,-33 64,-2 12,15 57,50 86,93 92,136 92,224 59,287 -66,128 -283,127 -339,81 -120,-99 -100,-186 -95,-345 -36,-80 -2,-131 54,-95 z"
         id="path7762" />
    </clipPath>
  </defs>
  <g
     inkscape:label="Слой 1"
     inkscape:groupmode="layer"
     id="layer1"
     transform="translate(-22.48362,-47.661725)">
    <path
       style="fill:none;stroke:#000000;stroke-width:1;stroke-linecap:butt;stroke-linejoin:miter;stroke-dasharray:none;stroke-opacity:1"
       d="M 32.845374,89.383659 C 64.208679,58.021743 64.208679,58.021743 64.208679,58.021743"
       id="path7038" />
    <ellipse
       style="font-variation-settings:normal;opacity:1;vector-effect:none;fill:#ffffff;fill-opacity:1;stroke:#000000;stroke-width:1.00088;stroke-linecap:butt;stroke-linejoin:miter;stroke-miterlimit:4;stroke-dasharray:none;stroke-dashoffset:0;stroke-opacity:1;-inkscape-stroke:none;stop-color:#000000;stop-opacity:1"
       id="path7092"
       cx="67.5"
       cy="53.817566"
       rx="5.108108"
       ry="5.2905407" />
    <ellipse
       style="font-variation-settings:normal;opacity:1;vector-effect:none;fill:#ffffff;fill-opacity:1;stroke:#000000;stroke-width:1.00088;stroke-linecap:butt;stroke-linejoin:miter;stroke-miterlimit:4;stroke-dasharray:none;stroke-dashoffset:0;stroke-opacity:1;-inkscape-stroke:none;stop-color:#000000;stop-opacity:1"
       id="path7092-1"
       cx="119.49323"
       cy="53.452705"
       rx="5.108108"
       ry="5.2905407" />
    <ellipse
       style="font-variation-settings:normal;opacity:1;vector-effect:none;fill:#ffffff;fill-opacity:1;stroke:#000000;stroke-width:1.00088;stroke-linecap:butt;stroke-linejoin:miter;stroke-miterlimit:4;stroke-dasharray:none;stroke-dashoffset:0;stroke-opacity:1;-inkscape-stroke:none;stop-color:#000000;stop-opacity:1"
       id="path7092-6"
       cx="98.87838"
       cy="87.202705"
       rx="5.108108"
       ry="5.2905407" />
    <ellipse
       style="font-variation-settings:normal;opacity:1;vector-effect:none;fill:#ffffff;fill-opacity:1;stroke:#000000;stroke-width:1.00088;stroke-linecap:butt;stroke-linejoin:miter;stroke-miterlimit:4;stroke-dasharray:none;stroke-dashoffset:0;stroke-opacity:1;-inkscape-stroke:none;stop-color:#000000;stop-opacity:1"
       id="path7092-19"
       cx="152.14865"
       cy="88.662163"
       rx="5.108108"
       ry="5.2905407" />
    <ellipse
       style="font-variation-settings:normal;opacity:1;vector-effect:none;fill:#ffffff;fill-opacity:1;stroke:#000000;stroke-width:1.00088;stroke-linecap:butt;stroke-linejoin:miter;stroke-miterlimit:4;stroke-dasharray:none;stroke-dashoffset:0;stroke-opacity:1;-inkscape-stroke:none;stop-color:#000000;stop-opacity:1"
       id="path7092-8"
       cx="63.486488"
       cy="130.62163"
       rx="5.108108"
       ry="5.2905407" />
    <path
       style="fill:none;stroke:#000000;stroke-width:1;stroke-linecap:butt;stroke-linejoin:miter;stroke-dasharray:none;stroke-opacity:1"
       d="M 72.608108,54 114.56757,53.635134"
       id="path7155" />
    <path
       style="fill:none;stroke:#000000;stroke-width:1;stroke-linecap:butt;stroke-linejoin:miter;stroke-dasharray:none;stroke-opacity:1"
       d="M 70.058273,58.382597 95.22551,83.549834"
       id="path7157" />
    <path
       style="fill:none;stroke:#000000;stroke-width:1;stroke-linecap:butt;stroke-linejoin:miter;stroke-dasharray:none;stroke-opacity:1"
       d="m 104.03076,87.632065 42.90291,1.505625"
       id="path7159"
       sodipodi:nodetypes="cc" />
    <path
       style="fill:none;stroke:#000000;stroke-width:1;stroke-linecap:butt;stroke-linejoin:miter;stroke-dasharray:none;stroke-opacity:1"
       d="M 33.932431,97.783784 59.358952,127.54308"
       id="path7161"
       sodipodi:nodetypes="cc" />
    <path
       style="fill:none;stroke:#000000;stroke-width:1;stroke-linecap:butt;stroke-linejoin:miter;stroke-dasharray:none;stroke-opacity:1"
       d="M 115.82661,57.479265 C 91.115784,71.12434 66.127614,83.891831 64.104334,125.48609"
       id="path9410"
       sodipodi:nodetypes="cc" />
    <ellipse
       style="fill:#800080;fill-opacity:1;stroke:#000000;stroke-width:1.00088"
       id="path7092-11"
       cx="29.837389"
       cy="93.611008"
       rx="6.8533287"
       ry="7.0980906" />
    <path
       d="m 32.845357,89.383651 c -1.475018,1.147897 -2.357541,2.142303 -3.32134,3.716814 -0.211191,0.131123 -0.465195,0.233548 -0.721582,0.209267 -0.100859,-0.20997 -0.124279,-0.50821 -0.331092,-0.615237 -0.08404,-0.164143 -0.168038,-0.326634 -0.242671,-0.467856 -0.458187,-0.931382 0.142583,-2.687878 -0.60054,-2.784146 0.13463,-1.118457 -0.595515,0.279346 -0.610603,0.332931 -0.241803,0.863254 -0.288508,2.213515 -0.332999,3.097884 -0.137647,0.752029 -0.286577,1.598437 -0.389077,2.343292 -0.221245,0.997294 -0.434432,2.8092 0.397311,3.107618 0.0723,0.02154 0.102927,-0.122717 0.11069,-0.197858 -0.395494,-1.703981 0.240997,-3.609166 0.628405,-5.251148 0.756058,1.944076 1.673753,2.561412 2.903837,0.659214 0.719601,-0.753808 0.376973,-0.335229 1.010043,-1.150572 0.230588,-0.297261 0.55519,-0.517702 0.764738,-0.830406 l -0.06166,0.337717 c -0.66008,2.247786 -1.284468,3.966267 -0.406173,6.066897 0.06893,0.159736 0.162589,0.321994 0.302511,0.425092 0.141346,0.104367 0.64183,0.136752 0.566231,-0.191565 -0.652812,-2.011835 -0.441478,-4.037148 -0.05698,-5.986093 0.313684,-0.668848 0.668527,-1.319906 0.946325,-2.004583 0.06793,-0.166891 -0.04095,-0.427378 -0.224265,-0.476094 0.145271,-0.267438 -0.125457,-0.646956 -0.331092,-0.34116 z"
       id="path88"
       sodipodi:nodetypes="ccccccccccccccccccccccc"
       style="clip-rule:evenodd;fill-rule:evenodd;stroke-width:0.326021;stroke-linecap:round;stroke-linejoin:round;stroke-miterlimit:1.5;fill:#ffffff" />
    <path
       style="fill:none;stroke:#000000;stroke-width:1;stroke-linecap:butt;stroke-linejoin:miter;stroke-dasharray:none;stroke-opacity:1"
       d="M 102.38902,83.23605 118.53429,58.790103"
       id="path7155-4"
       sodipodi:nodetypes="cc" />
    <path
       style="fill:none;stroke:#000000;stroke-width:1;stroke-linecap:butt;stroke-linejoin:miter;stroke-dasharray:none;stroke-opacity:1"
       d="M 71.799762,56.447609 148.03016,85.525712"
       id="path7155-8"
       sodipodi:nodetypes="cc" />
    <path
       style="fill:none;stroke:#000000;stroke-width:1;stroke-linecap:butt;stroke-linejoin:miter;stroke-dasharray:none;stroke-opacity:1"
       d="M 61.456925,125.87838 67.413003,59.203543"
       id="path7155-5"
       sodipodi:nodetypes="cc" />
  </g>
</svg>
