<?xml version="1.0" encoding="UTF-8" standalone="no"?>
<!-- Created with Inkscape (http://www.inkscape.org/) -->

<svg
   width="158.32692mm"
   height="91.23877mm"
   viewBox="0 0 158.32692 91.238769"
   version="1.1"
   id="svg3168"
   inkscape:version="1.1.1 (3bf5ae0d25, 2021-09-20)"
   sodipodi:docname="2023-DE-02-answer02.svg"
   xmlns:inkscape="http://www.inkscape.org/namespaces/inkscape"
   xmlns:sodipodi="http://sodipodi.sourceforge.net/DTD/sodipodi-0.dtd"
   xmlns="http://www.w3.org/2000/svg"
   xmlns:svg="http://www.w3.org/2000/svg">
  <sodipodi:namedview
     id="namedview3170"
     pagecolor="#ffffff"
     bordercolor="#666666"
     borderopacity="1.0"
     inkscape:pageshadow="2"
     inkscape:pageopacity="0.0"
     inkscape:pagecheckerboard="0"
     inkscape:document-units="mm"
     showgrid="false"
     inkscape:zoom="0.72337262"
     inkscape:cx="338.00008"
     inkscape:cy="295.14526"
     inkscape:window-width="2048"
     inkscape:window-height="1017"
     inkscape:window-x="-8"
     inkscape:window-y="-8"
     inkscape:window-maximized="1"
     inkscape:current-layer="layer1"
     inkscape:snap-bbox="true" />
  <defs
     id="defs3165" />
  <g
     inkscape:label="Ebene 1"
     inkscape:groupmode="layer"
     id="layer1"
     transform="translate(-15.575637,-70.444537)">
    <path
       style="fill:#2ca089;stroke-width:0.218218"
       d="m 131.53775,126.06449 c 11.76798,11.76798 27.55472,18.71577 42.3648,11.12403 l -1.42965,-4.29962 c -9.66439,7.08003 -27.2671,3.38083 -35.49858,-9.62759 z"
       id="path2"
       sodipodi:nodetypes="ccccc" />
    <path
       style="fill:#2ca089;stroke-width:0.181953"
       d="m 57.436123,136.92429 c -9.971796,9.12079 -37.519948,2.24643 -41.860486,-2.32694 l 0.867065,-4.8013 c 8.596108,8.87858 25.904521,7.59356 37.869246,3.08816 z"
       id="path4"
       sodipodi:nodetypes="ccccc" />
    <path
       d="m 33.195123,85.804218 c 0.228163,10.17861 3.553565,10.70563 4.505779,24.790712 -6.356926,9.83709 0.369774,20.87518 -0.375927,31.26771 0.08926,5.40268 -3.278334,22.86693 6.643191,18.31523 73.920824,1.21416 25.893287,-0.3213 88.504194,0.82519 7.87171,2.58938 22.59701,-2.54194 18.23964,-9.83483 -0.87329,-9.43237 -0.29535,-19.10601 1.25179,-28.40348 6.86906,-9.79276 4.75544,-20.87255 5.58978,-32.582322 0.85517,-5.213272 1.25089,-16.906598 -2.61057,-19.166107 -12.49345,3.861043 -23.91874,1.02277 -36.84875,2.28245 -72.363908,-4.862501 -24.702209,6.718857 -85.677332,-2.854234 0.314128,3.848644 -1.422229,11.947313 0.778205,15.359681 z"
       style="font-variation-settings:normal;vector-effect:none;fill:#a8dbb8;fill-opacity:1;stroke-width:0.382803;stroke-linecap:butt;stroke-linejoin:miter;stroke-miterlimit:4;stroke-dasharray:none;stroke-dashoffset:0;stroke-opacity:1;-inkscape-stroke:none;stop-color:#000000"
       id="path6"
       sodipodi:nodetypes="cccccscccccc" />
    <g
       transform="matrix(0.26458333,0,0,0.26458333,-149.07576,-113.09789)"
       id="g6"
       style="clip-rule:evenodd;fill-rule:evenodd;stroke-linecap:round;stroke-linejoin:round;stroke-miterlimit:1.5" />
    <g
       transform="matrix(0.26458333,0,0,0.26458333,-125.62733,-113.09789)"
       id="g345"
       style="clip-rule:evenodd;fill-rule:evenodd;stroke-linecap:round;stroke-linejoin:round;stroke-miterlimit:1.5" />
    <g
       transform="matrix(0.26458333,0,0,0.26458333,-78.730989,-113.09789)"
       id="g361"
       style="clip-rule:evenodd;fill-rule:evenodd;stroke-linecap:round;stroke-linejoin:round;stroke-miterlimit:1.5" />
    <g
       transform="matrix(0.26458333,0,0,0.26458333,8.924939,-24.799289)"
       id="g416"
       style="clip-rule:evenodd;fill-rule:evenodd;stroke-linecap:round;stroke-linejoin:round;stroke-miterlimit:1.5">
      <path
         d="m 370.654,450.669 c -12.653,-4.056 -16.941,-27.27 -18.209,-37.182 -0.352,-2.758 2.114,-2.855 3.334,-1.995 11.817,8.339 17.851,22.955 17.919,38.694 0.574,1.828 1.133,3.662 1.677,5.504 1.408,-10.277 6.15,-18.265 14.822,-23.391 0.981,-0.58 2.872,-0.377 2.459,1.668 -1.477,7.332 -5.94,24.404 -15.809,26.856 1.146,4.115 2.22,8.259 3.227,12.431 3.722,-6.645 9.696,-10.254 17.201,-11.802 0.86,-0.178 2.186,0.42 1.374,1.776 -2.799,4.674 -9.861,15.09 -17.333,15.332 0.171,0.756 0.34,1.512 0.508,2.271 0.371,0.419 0.583,1.479 0.487,2.236 0.312,1.453 0.617,2.91 0.916,4.373 0.019,-0.112 0.055,-0.207 0.107,-0.275 4.213,-5.476 9.866,-7.53 16.46,-7.346 0.674,0.019 1.546,0.686 0.685,1.54 -3.097,3.069 -10.831,9.917 -16.519,8.052 -0.157,-0.051 -0.302,-0.212 -0.422,-0.428 6.902,34.473 9.82,70.576 11.695,107.103 0.043,0.84 -0.604,1.557 -1.444,1.601 -0.84,0.043 -1.558,-0.604 -1.601,-1.445 -1.768,-34.448 -4.457,-68.519 -10.576,-101.188 -3.269,4.318 -11.857,5.736 -15.741,6.165 -1.205,0.133 -1.176,-0.965 -0.767,-1.5 3.959,-5.186 9.04,-8.281 15.833,-8.187 -0.412,-2.111 -0.84,-4.215 -1.282,-6.311 -6.466,2.646 -16.839,-1.195 -21.44,-3.188 -1.451,-0.629 -0.722,-1.887 0.08,-2.244 6.706,-2.987 13.374,-3.618 19.988,-0.826 -0.636,-2.791 -1.3,-5.57 -1.994,-8.336 -0.115,0.086 -0.233,0.145 -0.349,0.17 -9.994,2.1 -21.375,-11.499 -25.855,-17.517 -1.246,-1.674 0.377,-2.664 1.512,-2.558 9.03,0.84 16.67,4.139 22.323,10.954 -1.028,-3.692 -2.116,-7.363 -3.266,-11.007 z"
         style="fill:#007f27"
         id="path414" />
    </g>
    <g
       transform="matrix(0.25895795,0.05426894,-0.05426894,0.25895795,59.552831,-41.698062)"
       id="g424"
       style="clip-rule:evenodd;fill-rule:evenodd;stroke-linecap:round;stroke-linejoin:round;stroke-miterlimit:1.5">
      <path
         d="m 370.654,450.669 c -12.653,-4.056 -16.941,-27.27 -18.209,-37.182 -0.352,-2.758 2.114,-2.855 3.334,-1.995 11.817,8.339 17.851,22.955 17.919,38.694 0.574,1.828 1.133,3.662 1.677,5.504 1.408,-10.277 6.15,-18.265 14.822,-23.391 0.981,-0.58 2.872,-0.377 2.459,1.668 -1.477,7.332 -5.94,24.404 -15.809,26.856 1.146,4.115 2.22,8.259 3.227,12.431 3.722,-6.645 9.696,-10.254 17.201,-11.802 0.86,-0.178 2.186,0.42 1.374,1.776 -2.799,4.674 -9.861,15.09 -17.333,15.332 0.171,0.756 0.34,1.512 0.508,2.271 0.371,0.419 0.583,1.479 0.487,2.236 0.312,1.453 0.617,2.91 0.916,4.373 0.019,-0.112 0.055,-0.207 0.107,-0.275 4.213,-5.476 9.866,-7.53 16.46,-7.346 0.674,0.019 1.546,0.686 0.685,1.54 -3.097,3.069 -10.831,9.917 -16.519,8.052 -0.157,-0.051 -0.302,-0.212 -0.422,-0.428 6.902,34.473 9.82,70.576 11.695,107.103 0.043,0.84 -0.604,1.557 -1.444,1.601 -0.84,0.043 -1.558,-0.604 -1.601,-1.445 -1.768,-34.448 -4.457,-68.519 -10.576,-101.188 -3.269,4.318 -11.857,5.736 -15.741,6.165 -1.205,0.133 -1.176,-0.965 -0.767,-1.5 3.959,-5.186 9.04,-8.281 15.833,-8.187 -0.412,-2.111 -0.84,-4.215 -1.282,-6.311 -6.466,2.646 -16.839,-1.195 -21.44,-3.188 -1.451,-0.629 -0.722,-1.887 0.08,-2.244 6.706,-2.987 13.374,-3.618 19.988,-0.826 -0.636,-2.791 -1.3,-5.57 -1.994,-8.336 -0.115,0.086 -0.233,0.145 -0.349,0.17 -9.994,2.1 -21.375,-11.499 -25.855,-17.517 -1.246,-1.674 0.377,-2.664 1.512,-2.558 9.03,0.84 16.67,4.139 22.323,10.954 -1.028,-3.692 -2.116,-7.363 -3.266,-11.007 z"
         style="fill:#007f27"
         id="path422" />
    </g>
    <g
       transform="matrix(0.26458133,0.00102947,-0.00102947,0.26458133,-2.6740517,-26.81289)"
       id="g438"
       style="clip-rule:evenodd;fill-rule:evenodd;stroke-linecap:round;stroke-linejoin:round;stroke-miterlimit:1.5">
      <g
         transform="matrix(-1,0,0,1,417.932,6.76299)"
         id="g428">
        <path
           d="m 200.205,595.974 c -2.644,-51.504 -7.36,-102.166 -22.399,-148.609 -0.259,-0.8 -1.119,-1.24 -1.92,-0.98 -0.8,0.259 -1.24,1.119 -0.981,1.919 14.96,46.198 19.625,96.595 22.255,147.827 0.043,0.84 0.761,1.487 1.601,1.444 0.84,-0.043 1.487,-0.76 1.444,-1.601 z"
           style="fill:#007f27"
           id="path426" />
      </g>
      <g
         transform="matrix(1.00273,-0.355789,0.306161,0.862863,-65.8802,132.297)"
         id="g432">
        <path
           d="m 175.791,436.641 c 4.386,-1.618 3.822,-32.881 -9.989,-28.761 -2.09,0.624 -3.983,5.17 -3.983,6.799 0,5.526 7.342,19.992 8.141,20.791 0.478,0.477 0.727,1.89 0.727,1.89 0,0 -0.541,-1.268 -1.017,-1.744 -1.019,-1.019 -8.299,-13.664 -12.595,-18.455 -3.694,-4.119 -10.023,1.374 -10.629,4.232 -1.597,7.541 8.995,11.04 13.337,14.659 0.914,0.761 5.67,2.852 5.67,3.925 0,0.261 -0.51,-0.146 -0.727,-0.291 -0.497,-0.331 -1.595,-0.484 -2.18,-0.581 -1.48,-0.247 -18.635,-3.077 -20.646,5.815 -2.393,10.583 12.661,7.846 17.883,5.234 1.308,-0.653 3.098,-1.051 4.216,-1.89 0.279,-0.208 1.291,-1.471 1.6,-1.163 0.117,0.117 -0.491,0.3 -0.582,0.436 -0.343,0.515 -1,0.925 -1.454,1.454 -1.175,1.371 -1.674,3.204 -2.471,4.798 -2.977,5.953 -5.702,18.748 3.634,21.082 1.456,0.364 2.233,-2.984 2.472,-3.78 1.449,-4.83 3.571,-8.652 4.216,-13.812 0.269,-2.147 0.146,-4.119 0.146,-6.252 0,-0.19 -0.424,-1.758 -0.582,-1.599 -0.377,0.377 1.612,4.739 1.745,5.67 0.633,4.429 3.474,10.991 7.269,13.521 1.122,0.748 4.632,2.582 6.107,1.599 5.656,-3.771 0.935,-14.33 -3.054,-18.319 -1.066,-1.066 -2.203,-2.196 -3.489,-3.053 -0.741,-0.494 -2.472,-1.018 -2.472,-1.018 0,0 2.23,0.097 3.199,0.582 1.716,0.858 3.774,1.707 5.67,2.181 6.145,1.536 19.38,2.417 20.5,-6.543 0.75,-6.001 -9.129,-9.084 -13.666,-7.269 -2.695,1.078 -5.735,1.938 -7.997,3.634 -0.786,0.59 -1.632,1.241 -2.471,1.745 -0.448,0.269 -1.454,0.582 -1.454,0.582 0,0 1.927,-0.619 2.617,-1.309 1.635,-1.636 3.522,-2.864 5.67,-3.489 8.687,-2.53 16.121,-16.761 9.531,-20.06 -8.424,-4.216 -20.569,14.483 -22.892,18.759 z"
           style="fill:#ffeba8"
           id="path430" />
      </g>
      <g
         transform="matrix(0.784737,-0.278441,0.334394,0.942433,9.94412,107.367)"
         id="g436">
        <ellipse
           cx="125.147"
           cy="403.56299"
           rx="10.356"
           ry="7.6160002"
           style="fill:#ffc400"
           id="ellipse434" />
      </g>
    </g>
    <g
       transform="matrix(0.26244661,0.03355764,-0.03355764,0.26244661,37.357226,-33.164587)"
       id="g452"
       style="clip-rule:evenodd;fill-rule:evenodd;stroke-linecap:round;stroke-linejoin:round;stroke-miterlimit:1.5">
      <g
         transform="matrix(-1,0,0,1,417.932,6.76299)"
         id="g442">
        <path
           d="m 200.205,595.974 c -2.644,-51.504 -7.36,-102.166 -22.399,-148.609 -0.259,-0.8 -1.119,-1.24 -1.92,-0.98 -0.8,0.259 -1.24,1.119 -0.981,1.919 14.96,46.198 19.625,96.595 22.255,147.827 0.043,0.84 0.761,1.487 1.601,1.444 0.84,-0.043 1.487,-0.76 1.444,-1.601 z"
           style="fill:#007f27"
           id="path440" />
      </g>
      <g
         transform="matrix(1.00273,-0.355789,0.306161,0.862863,-65.8802,132.297)"
         id="g446">
        <path
           d="m 175.791,436.641 c 4.386,-1.618 3.822,-32.881 -9.989,-28.761 -2.09,0.624 -3.983,5.17 -3.983,6.799 0,5.526 7.342,19.992 8.141,20.791 0.478,0.477 0.727,1.89 0.727,1.89 0,0 -0.541,-1.268 -1.017,-1.744 -1.019,-1.019 -8.299,-13.664 -12.595,-18.455 -3.694,-4.119 -10.023,1.374 -10.629,4.232 -1.597,7.541 8.995,11.04 13.337,14.659 0.914,0.761 5.67,2.852 5.67,3.925 0,0.261 -0.51,-0.146 -0.727,-0.291 -0.497,-0.331 -1.595,-0.484 -2.18,-0.581 -1.48,-0.247 -18.635,-3.077 -20.646,5.815 -2.393,10.583 12.661,7.846 17.883,5.234 1.308,-0.653 3.098,-1.051 4.216,-1.89 0.279,-0.208 1.291,-1.471 1.6,-1.163 0.117,0.117 -0.491,0.3 -0.582,0.436 -0.343,0.515 -1,0.925 -1.454,1.454 -1.175,1.371 -1.674,3.204 -2.471,4.798 -2.977,5.953 -5.702,18.748 3.634,21.082 1.456,0.364 2.233,-2.984 2.472,-3.78 1.449,-4.83 3.571,-8.652 4.216,-13.812 0.269,-2.147 0.146,-4.119 0.146,-6.252 0,-0.19 -0.424,-1.758 -0.582,-1.599 -0.377,0.377 1.612,4.739 1.745,5.67 0.633,4.429 3.474,10.991 7.269,13.521 1.122,0.748 4.632,2.582 6.107,1.599 5.656,-3.771 0.935,-14.33 -3.054,-18.319 -1.066,-1.066 -2.203,-2.196 -3.489,-3.053 -0.741,-0.494 -2.472,-1.018 -2.472,-1.018 0,0 2.23,0.097 3.199,0.582 1.716,0.858 3.774,1.707 5.67,2.181 6.145,1.536 19.38,2.417 20.5,-6.543 0.75,-6.001 -9.129,-9.084 -13.666,-7.269 -2.695,1.078 -5.735,1.938 -7.997,3.634 -0.786,0.59 -1.632,1.241 -2.471,1.745 -0.448,0.269 -1.454,0.582 -1.454,0.582 0,0 1.927,-0.619 2.617,-1.309 1.635,-1.636 3.522,-2.864 5.67,-3.489 8.687,-2.53 16.121,-16.761 9.531,-20.06 -8.424,-4.216 -20.569,14.483 -22.892,18.759 z"
           style="fill:#ffeba8"
           id="path444" />
      </g>
      <g
         transform="matrix(0.784737,-0.278441,0.334394,0.942433,9.94412,107.367)"
         id="g450">
        <ellipse
           cx="125.147"
           cy="403.56299"
           rx="10.356"
           ry="7.6160002"
           style="fill:#ffc400"
           id="ellipse448" />
      </g>
    </g>
    <path
       id="path9678"
       style="font-size:70.1686px;-inkscape-font-specification:'Alex Brush, Normal';font-variation-settings:normal;vector-effect:none;fill:#2ca089;fill-opacity:1;stroke-width:0.218218;stroke-linecap:butt;stroke-linejoin:miter;stroke-miterlimit:4;stroke-dasharray:none;stroke-dashoffset:0;stroke-opacity:1;-inkscape-stroke:none;stop-color:#000000"
       d="m 61.306178,142.61068 c -3.404364,-0.0177 -7.493867,4.19105 -8.143171,5.55521 -1.012557,3.92616 5.045144,2.73729 5.205884,-0.19689 -0.480428,-0.72435 -2.662476,4.5157 -4.595585,1.72341 -0.209053,-3.22186 3.311546,-5.23334 5.961393,-6.22081 2.232835,-1.4166 5.187699,0.57074 2.748669,2.74092 -0.815898,1.79748 -2.196116,2.92968 -3.680394,3.34915 3.454776,-0.74814 -3.636624,4.14031 -1.299146,4.71599 1.406789,-4.4188 6.927958,-4.79558 4.444171,-5.12526 -1.038106,-0.56168 2.307694,-3.11126 2.38125,-4.85294 -0.829738,-1.20696 -1.888281,-1.6829 -3.023071,-1.68878 z m 48.825442,0.19223 c -4.26723,-0.0503 -7.58799,2.88815 -8.76639,5.36298 -1.01223,3.92606 5.04511,2.7374 5.20589,-0.19689 -2.11293,2.78369 -6.42374,3.20017 -3.47421,-0.88676 1.90937,-2.60735 5.777,-5.01904 7.83105,-3.68712 0.50376,0.34561 0.7835,0.88819 0.63355,1.51929 -0.95432,1.93293 -2.96723,4.30623 -4.92942,4.73873 4.30173,-1.16397 -3.33979,4.0299 -0.92604,4.62452 1.40683,-4.41889 6.92857,-4.79556 4.44469,-5.12526 -1.40071,-0.75785 5.18027,-5.13587 0.9338,-6.26319 l -0.53744,-0.0718 c -0.13958,-0.008 -0.27782,-0.0129 -0.41548,-0.0145 z m -15.199586,1.14722 c -0.367406,-0.0256 -0.617305,0.63371 -0.701767,0.92087 0.0069,-0.31071 -0.369134,-1.10341 -0.829406,-0.79633 -0.08114,0.0542 -0.103642,0.24921 -0.08268,0.30902 0.0711,0.20289 0.570579,0.62444 0.61495,0.64182 0.02653,0.0104 0.05529,0.0584 0.05529,0.0584 0,0 -0.0392,-0.0382 -0.06563,-0.0486 -0.05659,-0.0222 -0.530212,-0.37771 -0.775145,-0.48937 -0.210603,-0.096 -0.409861,0.2002 -0.398944,0.31419 0.02889,0.30074 0.525759,0.27105 0.757579,0.339 0.04879,0.0143 0.278683,0.0195 0.292486,0.0589 0.0034,0.01 -0.02349,0.003 -0.03462,5.3e-4 -0.02545,-0.005 -0.07456,0.006 -0.100767,0.0114 -0.06632,0.0131 -0.83476,0.16539 -0.806153,0.52193 0.03406,0.42432 0.641246,0.0985 0.830439,-0.0754 0.04741,-0.0435 0.118642,-0.0848 0.155546,-0.13229 0.0092,-0.0118 0.03608,-0.0734 0.05323,-0.0667 0.0065,0.003 -0.01699,0.0185 -0.01913,0.0248 -0.008,0.024 -0.03084,0.0487 -0.04341,0.0749 -0.03249,0.0679 -0.02991,0.14298 -0.04341,0.21342 -0.05042,0.26307 -0.0021,0.77375 0.426331,0.71985 0.06681,-0.008 0.05689,-0.14341 0.05685,-0.17621 -1.98e-4,-0.12208 0.01349,-0.23404 0.01654,-0.3483 0.09011,0.23303 0.175651,0.46447 0.21704,0.6413 0.145314,0.8844 -0.900652,0.61643 -0.857829,1.08779 0.904123,-0.0702 1.380288,-0.6151 1.160137,-1.66088 0.0681,0.0101 0.212944,0.0196 0.259416,-0.0341 0.192796,-0.22302 -0.14487,-0.54055 -0.366387,-0.62736 -0.0592,-0.0232 -0.122209,-0.0477 -0.188103,-0.0599 -0.03797,-0.007 -0.118338,0 -0.118338,0 0,0 0.09608,-0.0302 0.143661,-0.0269 0.08425,0.006 0.183274,0.006 0.270267,-0.005 0.281942,-0.0355 0.857631,-0.20103 0.790133,-0.54674 -0.04521,-0.23153 -0.506225,-0.197 -0.676445,-0.0625 -0.101115,0.0799 -0.219868,0.15713 -0.294555,0.25322 -0.0029,0.004 -0.0063,0.008 -0.0093,0.0114 0.04435,-0.0644 0.09642,-0.12304 0.163814,-0.16743 0.338084,-0.22278 0.471924,-0.85643 0.148312,-0.87902 z m -0.372589,1.11983 c -0.0046,0.005 -0.0083,0.0111 -0.01291,0.016 -0.003,0.003 -0.0061,0.005 -0.01035,0.008 0.0091,-0.008 0.01492,-0.0159 0.02326,-0.0243 z m -27.493409,0.2806 c -1.813266,1.57189 -5.256885,5.39435 -3.48351,7.5985 1.63712,0.81611 3.162364,-3.00264 3.05511,-0.35605 4.5075,1.72786 5.247309,-7.09538 2.365232,-4.46743 -1.726523,1.22301 -3.224819,5.37663 -5.51956,4.08503 0.09811,-2.5095 4.17953,-5.01949 3.582728,-6.86005 z m 48.202224,0 c -1.81331,1.57185 -5.25651,5.39442 -3.48351,7.5985 1.6372,0.81629 3.16239,-3.00267 3.05511,-0.35605 4.50722,1.72732 5.24818,-7.09512 2.36575,-4.46743 -1.72637,1.22308 -3.2256,5.37634 -5.52008,4.08503 0.0982,-2.50969 4.17875,-5.01869 3.58273,-6.86005 z m -35.003032,1.37821 c -2.100572,1.18722 2.134632,0.93562 0,0 z m 52.679992,0.0382 c -0.0212,2.6e-4 -0.044,0.003 -0.0677,0.008 -1.51581,2.05108 -2.82599,4.96241 -5.51543,6.01411 -1.37516,0.13286 -1.3381,-0.88814 -0.7059,-1.53789 0.95769,-0.76351 2.24302,-0.36378 2.99672,-1.40509 0.65089,-0.93293 -0.19727,-2.00783 -1.34927,-1.55959 -3.11079,1.46119 -3.91619,6.0467 -0.0636,4.72942 3.05456,-1.26744 2.91703,-4.95137 4.52995,-3.91345 -1.04428,0.95069 -1.32269,5.54689 1.68827,3.44217 1.4829,-1.51487 1.64854,-1.24721 2.64118,0.35501 1.63936,0.32799 5.12432,-1.62007 4.8426,-2.52698 -1.06526,1.67131 -3.57072,2.3323 -2.18953,-0.41341 0.35561,-1.33587 1.83127,-4.47128 -0.52968,-2.24999 -1.98238,1.57413 -3.35299,3.95667 -5.74384,4.9289 -2.38674,-0.14444 0.11565,-2.9302 0.94052,-3.93206 -0.25454,-0.94039 -2.94463,0.56353 -1.28572,-1.27693 0.16607,-0.18795 0.13138,-0.66684 -0.18861,-0.66197 z m -59.080634,0.008 c -0.612081,0.88284 -3.093148,4.34922 -2.602941,4.16047 0.70168,-1.64153 3.501691,-3.41364 1.960086,-0.56276 -1.681395,3.07526 2.430039,3.27197 3.617867,1.05317 -0.787312,2.92187 2.850492,1.32016 3.566708,-0.1111 -0.738738,3.77494 3.423428,-0.32818 3.258198,0.54363 0.686816,3.76445 5.36356,-4.17742 3.24993,0.13798 0.529678,2.62005 2.670678,-2.572 4.037481,-2.91507 0.05346,1.46934 -3.23655,5.45646 0.132808,3.39773 -2.204435,-0.58454 4.196495,-5.66267 0.17105,-4.00803 -1.244494,0.76977 -4.472046,4.60402 -2.590025,1.47588 1.795312,-1.77751 0.107749,-2.25884 -0.809767,-0.39326 -0.788464,2.09966 -5.321546,4.50533 -2.614311,0.63562 2.508758,-2.40774 -2.274711,-3.17833 -3.399277,-0.87229 -0.713989,1.16016 -4.848603,5.35043 -4.26072,2.17402 1.022133,-0.98412 3.012059,-4.45988 0.464052,-2.28255 -1.206246,2.21721 -5.132816,5.43377 -4.380095,1.89188 0.219507,-0.74758 2.918886,-3.19041 0.88832,-2.62568 -3.235658,0.49873 0.738659,-1.03133 -0.689364,-1.69964 z m 23.414075,0.16123 c -0.188135,-0.002 -0.53843,0.21774 -1.128615,0.77308 -1.024858,1.11871 -2.70783,2.14399 -3.969266,2.73782 0.901399,0.2046 3.361553,-1.76798 4.253487,-2.50889 0.382918,1.66919 -1.453716,5.53058 -2.634464,3.69331 l -0.763778,0.47801 c 2.006407,2.88869 6.075002,-0.8498 5.833237,-1.73685 -1.065316,1.67122 -3.570825,2.33245 -2.189531,-0.41341 0.26729,-1.00172 1.163334,-3.01563 0.59893,-3.02307 z m 42.228949,1.00201 c 0.42341,1.84871 -1.61631,6.44551 -2.78743,2.94039 0.61732,-1.20385 1.76488,-2.0896 2.78743,-2.94039 z m -18.35961,0.0925 c -0.97371,0.82565 -3.36596,4.93761 -1.45055,4.68808 1.0936,-1.29228 2.75148,-4.32394 2.11305,-0.92965 1.62135,3.46651 5.85642,-2.78356 3.48712,-3.54449 1.66994,2.36448 -3.81457,6.60452 -2.54144,2.18953 2.06979,-1.75672 0.3941,-2.99083 -0.91571,-0.89194 -0.81411,0.94183 -2.69759,3.42135 -1.28416,0.83148 0.51984,-1.25084 1.71518,-1.92041 0.59169,-2.34301 z m -36.197269,0.29042 c 0.708438,0.64748 -1.173689,2.02023 -1.597834,2.90628 -1.105496,2.20169 -3.71067,1.27698 -1.559079,-0.76274 0.884412,-0.88642 1.842278,-1.97741 3.156913,-2.14354 z m 44.312539,0.26045 c 1.60203,1.18597 -4.72913,3.67199 -1.55753,0.99994 0.4663,-0.3932 0.91883,-0.90138 1.55753,-0.99994 z m -59.655271,0.35192 c 2.341832,1.64958 -4.102137,5.58158 -1.900661,1.7973 0.526759,-0.65268 1.016548,-1.59279 1.900661,-1.7973 z m 48.202221,0 c 2.34262,1.64878 -4.10257,5.58186 -1.90066,1.7973 0.52675,-0.65252 1.0167,-1.59271 1.90066,-1.7973 z"
       sodipodi:nodetypes="scccccccccsccccccccccccccssccssccsccsccsccssccccccssccssssccccsccccccccccccccccccccccccccccccccccccccccccccccccccccccccccccccccccccccccccccccccccccc" />
  </g>
</svg>
