<?xml version="1.0" encoding="UTF-8" standalone="no"?>
<svg
   width="100%"
   height="100%"
   viewBox="0 0 49 48"
   version="1.1"
   xml:space="preserve"
   style="fill-rule:evenodd;clip-rule:evenodd;stroke-linejoin:round;stroke-miterlimit:2;"
   id="svg8"
   sodipodi:docname="2023-DE-02-tulpe.svg"
   inkscape:version="1.1.1 (3bf5ae0d25, 2021-09-20)"
   xmlns:inkscape="http://www.inkscape.org/namespaces/inkscape"
   xmlns:sodipodi="http://sodipodi.sourceforge.net/DTD/sodipodi-0.dtd"
   xmlns="http://www.w3.org/2000/svg"
   xmlns:svg="http://www.w3.org/2000/svg"><defs
   id="defs12" /><sodipodi:namedview
   id="namedview10"
   pagecolor="#ffffff"
   bordercolor="#666666"
   borderopacity="1.0"
   inkscape:pageshadow="2"
   inkscape:pageopacity="0.0"
   inkscape:pagecheckerboard="0"
   showgrid="false"
   inkscape:zoom="14.979167"
   inkscape:cx="24.467316"
   inkscape:cy="24"
   inkscape:window-width="2048"
   inkscape:window-height="1017"
   inkscape:window-x="-8"
   inkscape:window-y="-8"
   inkscape:window-maximized="1"
   inkscape:current-layer="svg8" />
    <g
   transform="translate(-1214.05,-539.762)"
   id="g6"
   style="font-variation-settings:normal;opacity:1;vector-effect:none;fill:#f7007c;fill-opacity:1;stroke-width:0.76625732;stroke-linecap:butt;stroke-linejoin:miter;stroke-miterlimit:1.5;stroke-dasharray:none;stroke-dashoffset:0;stroke-opacity:1;-inkscape-stroke:none;stop-color:#000000;stop-opacity:1">
        <g
   transform="matrix(-0.848827,0,0,0.69172,1463.19,319.752)"
   id="g4"
   style="font-variation-settings:normal;vector-effect:none;fill:#f7007c;fill-opacity:1;stroke-width:0.99999972;stroke-linecap:butt;stroke-linejoin:miter;stroke-miterlimit:1.5;stroke-dasharray:none;stroke-dashoffset:0;stroke-opacity:1;-inkscape-stroke:none;stop-color:#000000;stop-opacity:1">
            <path
   d="m 291.421,319.872 c 3.709,5.447 5.284,61.009 -20.063,67.02 -17.246,-1.911 -27.212,-16.634 -31.78,-40.856 -1.226,-6.498 -5.049,-21.262 -2.548,-20.754 2.501,0.508 13.728,15.24 17.554,23.802 -0.973,-9.133 0.331,-30.832 2.679,-31.02 2.349,-0.188 12.542,19.695 11.414,29.892 -0.498,-9.247 6.288,-29.623 8.544,-29.471 2.255,0.151 3.951,17.972 4.988,30.382 1.294,-7.784 5.769,-34.051 9.212,-28.995 z"
   style="fill:#f7007c;font-variation-settings:normal;vector-effect:none;fill-opacity:1;stroke-width:0.99999972;stroke-linecap:butt;stroke-linejoin:miter;stroke-miterlimit:1.5;stroke-dasharray:none;stroke-dashoffset:0;stroke-opacity:1;-inkscape-stroke:none;stop-color:#000000;stop-opacity:1"
   id="path2" />
        </g>
    </g>
</svg>
