<?xml version="1.0" encoding="UTF-8" standalone="no"?>
<!DOCTYPE svg PUBLIC "-//W3C//DTD SVG 1.1//EN" "http://www.w3.org/Graphics/SVG/1.1/DTD/svg11.dtd">
<svg width="100%" height="100%" viewBox="0 0 1085 1109" version="1.1" xmlns="http://www.w3.org/2000/svg" xmlns:xlink="http://www.w3.org/1999/xlink" xml:space="preserve" xmlns:serif="http://www.serif.com/" style="fill-rule:evenodd;clip-rule:evenodd;stroke-linecap:round;stroke-linejoin:round;stroke-miterlimit:1.5;">
    <g transform="matrix(1,0,0,1,-450.874,-1174.36)">
        <g transform="matrix(0.849853,0,0,0.780504,424.683,732.828)">
            <path d="M730.275,1093.36L905.733,1193.37L730.275,1293.38L554.817,1193.37L730.275,1093.36Z" style="fill:rgb(226,255,235);stroke:black;stroke-width:1.96px;"/>
        </g>
        <g transform="matrix(0.849853,0,0,0.780504,102.545,1272.87)">
            <path d="M730.275,1093.36L905.733,1193.37L730.275,1293.38L554.817,1193.37L730.275,1093.36Z" style="fill:rgb(226,255,235);stroke:black;stroke-width:1.96px;"/>
        </g>
        <g transform="matrix(1,0,0,1,710.662,626.651)">
            <path d="M697.514,1354.95L697.711,1356.31L697.514,1357.68L697.318,1356.31L697.514,1354.95Z" style="fill:rgb(226,255,235);"/>
        </g>
        <g transform="matrix(3.59395,0,0,0.507772,-1812.46,1005.04)">
            <rect x="750.849" y="712.323" width="88.623" height="251.51" style="fill:rgb(226,255,235);stroke:black;stroke-width:0.62px;"/>
        </g>
        <g transform="matrix(2.35934,0,0,0.342437,-821.716,931.238)">
            <path d="M839.473,838.078C839.473,768.672 831.294,712.323 821.221,712.323L769.102,712.323C759.028,712.323 750.849,768.672 750.849,838.078C750.849,907.484 759.028,963.833 769.102,963.833L821.221,963.833C831.294,963.833 839.473,907.484 839.473,838.078Z" style="fill:rgb(226,255,235);stroke:black;stroke-width:0.95px;"/>
        </g>
        <g transform="matrix(2.02632,0,0,0.342437,-565.938,1917.31)">
            <path d="M839.473,838.078C839.473,768.672 829.95,712.323 818.221,712.323L772.101,712.323C760.372,712.323 750.849,768.672 750.849,838.078C750.849,907.484 760.372,963.833 772.101,963.833L818.221,963.833C829.95,963.833 839.473,907.484 839.473,838.078Z" style="fill:rgb(226,255,235);stroke:black;stroke-width:1.1px;"/>
        </g>
        <g transform="matrix(3.59395,0,0,0.507772,-2134.6,1523.04)">
            <rect x="750.849" y="712.323" width="88.623" height="251.51" style="fill:rgb(226,255,235);stroke:black;stroke-width:0.62px;"/>
        </g>
        <g transform="matrix(3.59395,0,0,0.507772,-1482.05,1375.74)">
            <rect x="750.849" y="712.323" width="88.623" height="251.51" style="fill:rgb(226,255,235);stroke:black;stroke-width:0.62px;"/>
        </g>
        <g transform="matrix(1,0,0,1,0.352794,3.74418)">
            <path d="M1216.47,1797.55L722.632,1797.55" style="fill:none;stroke:black;stroke-width:1.6px;"/>
        </g>
        <g transform="matrix(1,0,0,1,1820.73,388.728)">
            <g transform="matrix(0.647762,0,0,0.647762,-838.506,683.683)">
                <path d="M190.355,621.424C190.293,621.408 182.364,618.962 181.425,618.516C177.488,616.644 174.221,613.633 172.248,609.724C171.223,607.695 170.535,605.508 170.125,603.275C170.121,603.251 169.814,601.439 169.836,601.428L169.872,601.41L169.822,601.4C165.599,570.433 156.393,510.195 155.465,499.392C155.371,498.301 156.307,498.012 156.961,497.626C166.339,492.08 182.129,491.038 189.57,490.136C210.409,487.61 231.749,487.083 252.685,488.648C261.122,489.279 270.309,489.896 278.247,493.099C280.519,494.016 283.691,495.555 283.911,498.405C283.958,499.013 284.193,500.024 283.635,500.229L283.043,509.14L281.886,527.826L281.348,537.169L280.99,543.371L280.811,546.485L277.259,604.711C276.137,607.197 276.996,608.089 269.077,613.938C267.576,615.047 254.626,620.816 253.608,621.148C236.978,626.575 218.627,626.565 201.504,623.766C197.755,623.154 194.035,622.367 190.355,621.424ZM281.136,499.212L281.134,499.221C281.116,499.244 281.071,499.372 281.059,499.424C281.044,499.484 281.044,499.546 281.045,499.608L280.425,508.947L279.267,527.633L278.192,546.32L274.044,602.374L274.041,602.386C274.04,602.396 274.039,602.406 274.038,602.416L274.039,602.451L273.946,603.709C272.98,607.905 265.909,612.593 264.591,613.376C260.877,615.583 256.883,617.309 252.781,618.654C240.188,622.783 226.537,623.552 213.396,622.554C205.847,621.98 198.351,620.756 191.017,618.874C190.681,618.788 183.162,616.49 182.528,616.187C180.147,615.05 178.017,613.446 176.368,611.378C174.748,609.345 173.675,606.916 173.047,604.405C172.846,603.6 172.69,602.785 172.564,601.965C172.52,601.677 172.727,601.154 172.44,601.097L172.427,601.095L172.427,601.084C169.122,567.27 164.966,533.528 159.969,499.922C162.25,499.476 166.427,497.189 168.127,496.723C175.246,494.773 182.595,493.644 189.914,492.768C209.044,490.48 228.516,489.927 247.751,490.991C255.89,491.441 264.152,492.084 272.101,493.981C276.633,495.062 278.515,497.333 281.136,499.212ZM281.141,499.218L281.149,499.221L281.141,499.215L281.141,499.218Z" style="fill-rule:nonzero;"/>
                <g id="_1" serif:id="1" transform="matrix(2,0,0,2,-68.5097,285.764)">
                    <path d="M118.409,109.797C130.633,112.953 172.904,112.422 175.289,106.752C173.424,103.535 161.771,102.095 149.04,101.924C143.683,101.852 138.136,102.005 133.047,102.344C123.729,102.965 116.218,105.175 113.949,106.814C112.358,107.964 113.206,108.342 118.409,109.797Z" style="fill:rgb(189,19,19);"/>
                </g>
                <g transform="matrix(2,0,0,2,-68.1954,284.309)">
                    <path d="M126.774,111.065C129.861,111.368 130.006,111.437 133.361,111.506C133.354,109.728 133.327,107.585 133.279,105.622C133.823,103.3 132.968,103.706 130.936,103.747C123.536,103.913 126.698,105.408 126.774,111.058L126.774,111.065Z" style="fill:rgb(204,81,81);"/>
                </g>
                <g transform="matrix(2,0,0,2,-68.1954,284.309)">
                    <path d="M163.699,103.265L169.025,103.995C184.108,106.607 166.593,111.189 165.849,109.48C163.809,107.441 165.442,105.47 163.699,103.265Z" style="fill:rgb(135,24,24);"/>
                </g>
            </g>
            <g id="_11" serif:id="1" transform="matrix(1.29552,0,0,1.28004,-882.681,869.498)">
                <path d="M113.338,107.234L119.663,158.463C120.283,163.335 122.881,165.96 126.836,167.186C140.396,171.362 159.579,171.52 169.845,162.914C171.237,161.695 172.119,160.007 172.298,157.423C173.332,140.879 174.001,123.157 175.131,106.559C175.69,110.417 123.314,116.25 113.383,107.6L113.338,107.234Z" style="fill:rgb(255,0,0);"/>
            </g>
            <g transform="matrix(0.58538,0,0,0.543147,-825.85,742.387)">
                <path d="M204.92,578.085C214.042,580.514 223.34,579.646 232.617,577.321C235.975,587.143 239.596,596.894 244.194,606.576C245.276,608.856 248.006,609.828 250.286,608.746C252.566,607.663 253.538,604.933 252.456,602.653C245.543,588.093 241.962,574.805 237.03,559.928C232.806,547.186 226.973,532.895 224.129,519.932C223.694,517.945 221.997,516.484 219.967,516.349C217.936,516.214 216.061,517.436 215.365,519.348C210.122,533.755 205.344,548.164 200.533,562.501C196.173,575.496 191.785,588.433 186.998,601.255C186.115,603.62 187.318,606.256 189.683,607.139C192.047,608.021 194.684,606.818 195.566,604.454C198.83,595.712 201.909,586.917 204.92,578.085ZM229.701,568.625C228.901,566.21 228.105,563.791 227.302,561.367C224.553,553.076 221.583,544.737 219.036,536.352C215.206,547.392 211.555,558.42 207.86,569.399C215.059,571.183 222.384,570.411 229.701,568.625Z" style="fill:rgb(178,0,0);"/>
            </g>
            <g transform="matrix(0.647762,0,0,0.647762,-839.464,683.607)">
                <path d="M283.555,499.51C286.327,505.095 169.46,517.048 158.44,499.51" style="fill:none;stroke:black;stroke-width:3.77px;"/>
            </g>
            <g transform="matrix(1.29552,0,0,1.29552,-882.681,867.848)">
                <path d="M161.694,149.54C161.122,153.109 159.193,160.255 161.35,162.921C162.376,164.21 166.917,159.69 167.275,159.249C167.826,158.573 167.819,156.231 168.109,155.128C169.907,148.438 172.236,126.334 170.369,119.368C170.011,118.052 171.175,113.752 170.486,112.898C169.57,111.754 166.338,113.18 165.856,113.855C164.292,125.245 163.644,137.517 161.701,149.533L161.694,149.54Z" style="fill:rgb(255,90,90);"/>
            </g>
            <g transform="matrix(1.29552,0,0,1.29552,-882.681,867.848)">
                <path d="M173.718,109.776C173.173,112.96 173.352,115.599 169.239,119.795C165.043,124.067 158.022,131.164 151.662,133.982C145.164,136.855 140.279,138.468 128.917,138.178C123.481,138.04 118.368,133.631 115.357,128.201C112.511,123.068 111.595,117.108 113.752,113.194L113.565,111.713C113.476,111.754 113.4,111.816 113.331,111.912C110.293,116.315 111.319,123.04 114.454,128.711C117.596,134.375 122.922,139.074 128.889,139.232C140.348,139.515 145.509,137.834 152.055,134.94C158.745,131.991 165.759,124.818 169.955,120.532C174.241,116.171 174.2,113.001 174.724,109.956C174.779,109.625 174.524,109.329 174.193,109.335C173.952,109.342 173.745,109.528 173.711,109.783L173.718,109.776Z" style="fill:rgb(63,63,63);"/>
            </g>
            <g transform="matrix(1.29552,0,0,1.29552,-882.681,867.848)">
                <path d="M174.283,110.052C173.738,113.222 173.917,115.874 169.804,120.071C165.608,124.342 158.587,131.439 152.227,134.258C145.715,137.131 140.844,138.743 129.482,138.454C127.725,138.412 125.989,137.909 124.356,137.083C120.718,135.429 117.507,132.08 115.364,128.208C112.518,123.095 111.602,117.156 113.738,113.242L113.641,112.595C110.926,116.984 111.981,123.495 115.026,128.993C117.142,132.811 120.256,136.187 123.88,138.033C125.465,138.757 127.16,139.191 128.896,139.239C140.355,139.522 145.516,137.841 152.061,134.947C158.752,131.998 165.766,124.825 169.962,120.539C174.248,116.177 174.207,113.008 174.73,109.962C174.751,109.845 174.73,109.728 174.682,109.625C174.469,109.673 174.303,109.838 174.276,110.059L174.283,110.052Z" style="fill:rgb(104,104,104);"/>
            </g>
            <g transform="matrix(1.29552,0,0,1.29552,-882.681,867.848)">
                <path d="M114.647,128.663C117.734,134.361 123.088,138.922 129.055,139.067C140.513,139.356 145.771,137.462 152.323,134.568L152.613,134.32C146.067,137.213 140.699,139.281 129.241,138.998C123.274,138.846 117.948,134.147 114.806,128.477C111.912,123.254 110.823,117.121 113.049,112.753C113.166,112.464 113.696,111.775 113.173,112.298C110.554,116.853 111.588,123.02 114.654,128.656L114.647,128.663Z" style="fill:rgb(197,197,197);"/>
            </g>
        </g>
        <g transform="matrix(1,0,0,1,2151.14,759.43)">
            <g transform="matrix(0.647762,0,0,0.647762,-838.506,683.683)">
                <path d="M190.355,621.424C190.293,621.408 182.364,618.962 181.425,618.516C177.488,616.644 174.221,613.633 172.248,609.724C171.223,607.695 170.535,605.508 170.125,603.275C170.121,603.251 169.814,601.439 169.836,601.428L169.872,601.41L169.822,601.4C165.599,570.433 156.393,510.195 155.465,499.392C155.371,498.301 156.307,498.012 156.961,497.626C166.339,492.08 182.129,491.038 189.57,490.136C210.409,487.61 231.749,487.083 252.685,488.648C261.122,489.279 270.309,489.896 278.247,493.099C280.519,494.016 283.691,495.555 283.911,498.405C283.958,499.013 284.193,500.024 283.635,500.229L283.043,509.14L281.886,527.826L281.348,537.169L280.99,543.371L280.811,546.485L277.259,604.711C276.137,607.197 276.996,608.089 269.077,613.938C267.576,615.047 254.626,620.816 253.608,621.148C236.978,626.575 218.627,626.565 201.504,623.766C197.755,623.154 194.035,622.367 190.355,621.424ZM281.136,499.212L281.134,499.221C281.116,499.244 281.071,499.372 281.059,499.424C281.044,499.484 281.044,499.546 281.045,499.608L280.425,508.947L279.267,527.633L278.192,546.32L274.044,602.374L274.041,602.386C274.04,602.396 274.039,602.406 274.038,602.416L274.039,602.451L273.946,603.709C272.98,607.905 265.909,612.593 264.591,613.376C260.877,615.583 256.883,617.309 252.781,618.654C240.188,622.783 226.537,623.552 213.396,622.554C205.847,621.98 198.351,620.756 191.017,618.874C190.681,618.788 183.162,616.49 182.528,616.187C180.147,615.05 178.017,613.446 176.368,611.378C174.748,609.345 173.675,606.916 173.047,604.405C172.846,603.6 172.69,602.785 172.564,601.965C172.52,601.677 172.727,601.154 172.44,601.097L172.427,601.095L172.427,601.084C169.122,567.27 164.966,533.528 159.969,499.922C162.25,499.476 166.427,497.189 168.127,496.723C175.246,494.773 182.595,493.644 189.914,492.768C209.044,490.48 228.516,489.927 247.751,490.991C255.89,491.441 264.152,492.084 272.101,493.981C276.633,495.062 278.515,497.333 281.136,499.212ZM281.141,499.218L281.149,499.221L281.141,499.215L281.141,499.218Z" style="fill-rule:nonzero;"/>
                <g id="_12" serif:id="1" transform="matrix(2,0,0,2,-68.5097,285.764)">
                    <path d="M118.409,109.797C130.633,112.953 172.904,112.422 175.289,106.752C173.424,103.535 161.771,102.095 149.04,101.924C143.683,101.852 138.136,102.005 133.047,102.344C123.729,102.965 116.218,105.175 113.949,106.814C112.358,107.964 113.206,108.342 118.409,109.797Z" style="fill:rgb(189,19,19);"/>
                </g>
                <g transform="matrix(2,0,0,2,-68.1954,284.309)">
                    <path d="M126.774,111.065C129.861,111.368 130.006,111.437 133.361,111.506C133.354,109.728 133.327,107.585 133.279,105.622C133.823,103.3 132.968,103.706 130.936,103.747C123.536,103.913 126.698,105.408 126.774,111.058L126.774,111.065Z" style="fill:rgb(204,81,81);"/>
                </g>
                <g transform="matrix(2,0,0,2,-68.1954,284.309)">
                    <path d="M163.699,103.265L169.025,103.995C184.108,106.607 166.593,111.189 165.849,109.48C163.809,107.441 165.442,105.47 163.699,103.265Z" style="fill:rgb(135,24,24);"/>
                </g>
            </g>
            <g id="_13" serif:id="1" transform="matrix(1.29552,0,0,1.28004,-882.681,869.498)">
                <path d="M113.338,107.234L119.663,158.463C120.283,163.335 122.881,165.96 126.836,167.186C140.396,171.362 159.579,171.52 169.845,162.914C171.237,161.695 172.119,160.007 172.298,157.423C173.332,140.879 174.001,123.157 175.131,106.559C175.69,110.417 123.314,116.25 113.383,107.6L113.338,107.234Z" style="fill:rgb(255,0,0);"/>
            </g>
            <g transform="matrix(0.58538,0,0,0.543147,-825.85,742.387)">
                <path d="M204.92,578.085C214.042,580.514 223.34,579.646 232.617,577.321C235.975,587.143 239.596,596.894 244.194,606.576C245.276,608.856 248.006,609.828 250.286,608.746C252.566,607.663 253.538,604.933 252.456,602.653C245.543,588.093 241.962,574.805 237.03,559.928C232.806,547.186 226.973,532.895 224.129,519.932C223.694,517.945 221.997,516.484 219.967,516.349C217.936,516.214 216.061,517.436 215.365,519.348C210.122,533.755 205.344,548.164 200.533,562.501C196.173,575.496 191.785,588.433 186.998,601.255C186.115,603.62 187.318,606.256 189.683,607.139C192.047,608.021 194.684,606.818 195.566,604.454C198.83,595.712 201.909,586.917 204.92,578.085ZM229.701,568.625C228.901,566.21 228.105,563.791 227.302,561.367C224.553,553.076 221.583,544.737 219.036,536.352C215.206,547.392 211.555,558.42 207.86,569.399C215.059,571.183 222.384,570.411 229.701,568.625Z" style="fill:rgb(178,0,0);"/>
            </g>
            <g transform="matrix(0.647762,0,0,0.647762,-839.464,683.607)">
                <path d="M283.555,499.51C286.327,505.095 169.46,517.048 158.44,499.51" style="fill:none;stroke:black;stroke-width:3.77px;"/>
            </g>
            <g transform="matrix(1.29552,0,0,1.29552,-882.681,867.848)">
                <path d="M161.694,149.54C161.122,153.109 159.193,160.255 161.35,162.921C162.376,164.21 166.917,159.69 167.275,159.249C167.826,158.573 167.819,156.231 168.109,155.128C169.907,148.438 172.236,126.334 170.369,119.368C170.011,118.052 171.175,113.752 170.486,112.898C169.57,111.754 166.338,113.18 165.856,113.855C164.292,125.245 163.644,137.517 161.701,149.533L161.694,149.54Z" style="fill:rgb(255,90,90);"/>
            </g>
            <g transform="matrix(1.29552,0,0,1.29552,-882.681,867.848)">
                <path d="M173.718,109.776C173.173,112.96 173.352,115.599 169.239,119.795C165.043,124.067 158.022,131.164 151.662,133.982C145.164,136.855 140.279,138.468 128.917,138.178C123.481,138.04 118.368,133.631 115.357,128.201C112.511,123.068 111.595,117.108 113.752,113.194L113.565,111.713C113.476,111.754 113.4,111.816 113.331,111.912C110.293,116.315 111.319,123.04 114.454,128.711C117.596,134.375 122.922,139.074 128.889,139.232C140.348,139.515 145.509,137.834 152.055,134.94C158.745,131.991 165.759,124.818 169.955,120.532C174.241,116.171 174.2,113.001 174.724,109.956C174.779,109.625 174.524,109.329 174.193,109.335C173.952,109.342 173.745,109.528 173.711,109.783L173.718,109.776Z" style="fill:rgb(63,63,63);"/>
            </g>
            <g transform="matrix(1.29552,0,0,1.29552,-882.681,867.848)">
                <path d="M174.283,110.052C173.738,113.222 173.917,115.874 169.804,120.071C165.608,124.342 158.587,131.439 152.227,134.258C145.715,137.131 140.844,138.743 129.482,138.454C127.725,138.412 125.989,137.909 124.356,137.083C120.718,135.429 117.507,132.08 115.364,128.208C112.518,123.095 111.602,117.156 113.738,113.242L113.641,112.595C110.926,116.984 111.981,123.495 115.026,128.993C117.142,132.811 120.256,136.187 123.88,138.033C125.465,138.757 127.16,139.191 128.896,139.239C140.355,139.522 145.516,137.841 152.061,134.947C158.752,131.998 165.766,124.825 169.962,120.539C174.248,116.177 174.207,113.008 174.73,109.962C174.751,109.845 174.73,109.728 174.682,109.625C174.469,109.673 174.303,109.838 174.276,110.059L174.283,110.052Z" style="fill:rgb(104,104,104);"/>
            </g>
            <g transform="matrix(1.29552,0,0,1.29552,-882.681,867.848)">
                <path d="M114.647,128.663C117.734,134.361 123.088,138.922 129.055,139.067C140.513,139.356 145.771,137.462 152.323,134.568L152.613,134.32C146.067,137.213 140.699,139.281 129.241,138.998C123.274,138.846 117.948,134.147 114.806,128.477C111.912,123.254 110.823,117.121 113.049,112.753C113.166,112.464 113.696,111.775 113.173,112.298C110.554,116.853 111.588,123.02 114.654,128.656L114.647,128.663Z" style="fill:rgb(197,197,197);"/>
            </g>
        </g>
        <g transform="matrix(0.650029,0,0,0.650029,671.369,1591.04)">
            <path d="M190.355,621.424C190.293,621.408 182.364,618.962 181.425,618.516C177.488,616.644 174.221,613.633 172.248,609.724C171.223,607.695 170.535,605.508 170.125,603.275C170.121,603.251 169.814,601.439 169.836,601.428L169.872,601.41L169.822,601.4C165.599,570.433 156.393,510.195 155.465,499.392C155.371,498.301 156.307,498.012 156.961,497.626C166.339,492.08 182.129,491.038 189.57,490.136C210.409,487.61 231.749,487.083 252.685,488.648C261.122,489.279 270.309,489.896 278.247,493.099C280.519,494.016 283.691,495.555 283.911,498.405C283.958,499.013 284.193,500.024 283.635,500.229L283.043,509.14L281.886,527.826L281.348,537.169L280.99,543.371L280.811,546.485L277.259,604.711C276.137,607.197 276.996,608.089 269.077,613.938C267.576,615.047 254.626,620.816 253.608,621.148C236.978,626.575 218.627,626.565 201.504,623.766C197.755,623.154 194.035,622.367 190.355,621.424ZM281.136,499.212L281.134,499.221C281.116,499.244 281.071,499.372 281.059,499.424C281.044,499.484 281.044,499.546 281.045,499.608L280.425,508.947L279.267,527.633L278.192,546.32L274.044,602.374L274.041,602.386C274.04,602.396 274.039,602.406 274.038,602.416L274.039,602.451L273.946,603.709C272.98,607.905 265.909,612.593 264.591,613.376C260.877,615.583 256.883,617.309 252.781,618.654C240.188,622.783 226.537,623.552 213.396,622.554C205.847,621.98 198.351,620.756 191.017,618.874C190.681,618.788 183.162,616.49 182.528,616.187C180.147,615.05 178.017,613.446 176.368,611.378C174.748,609.345 173.675,606.916 173.047,604.405C172.846,603.6 172.69,602.785 172.564,601.965C172.52,601.677 172.727,601.154 172.44,601.097L172.427,601.095L172.427,601.084C169.122,567.27 164.966,533.528 159.969,499.922C162.25,499.476 166.427,497.189 168.127,496.723C175.246,494.773 182.595,493.644 189.914,492.768C209.044,490.48 228.516,489.927 247.751,490.991C255.89,491.441 264.152,492.084 272.101,493.981C276.633,495.062 278.515,497.333 281.136,499.212ZM281.141,499.218L281.149,499.221L281.141,499.215L281.141,499.218Z" style="fill-rule:nonzero;"/>
        </g>
        <g id="_14" serif:id="1" transform="matrix(1.30006,0,0,1.30006,626.836,1776.8)">
            <path d="M118.409,109.797C130.633,112.953 172.904,112.422 175.289,106.752C173.424,103.535 161.771,102.095 149.04,101.924C143.683,101.852 138.136,102.005 133.047,102.344C123.729,102.965 116.218,105.175 113.949,106.814C112.358,107.964 113.206,108.342 118.409,109.797Z" style="fill:rgb(75,179,179);"/>
        </g>
        <g transform="matrix(1.30006,0,0,1.30006,627.04,1775.85)">
            <path d="M126.774,111.065C129.861,111.368 130.006,111.437 133.361,111.506C133.354,109.728 133.327,107.585 133.279,105.622C133.823,103.3 132.968,103.706 130.936,103.747C123.536,103.913 126.698,105.408 126.774,111.058L126.774,111.065Z" style="fill:rgb(65,142,142);"/>
        </g>
        <g transform="matrix(1.30006,0,0,1.30006,627.04,1775.85)">
            <path d="M163.699,103.265L169.025,103.995C184.108,106.607 166.593,111.189 165.849,109.48C163.809,107.441 165.442,105.47 163.699,103.265Z" style="fill:rgb(47,105,106);"/>
        </g>
        <g transform="matrix(33.438,0,0,33.438,-11121.6,-26356.5)">
            <path d="M360.23,831.358L360.071,830.84L360.162,830.84L360.244,831.139L360.275,831.25C360.276,831.245 360.285,831.209 360.302,831.143L360.385,830.84L360.475,830.84L360.553,831.141L360.578,831.24L360.608,831.14L360.697,830.84L360.783,830.84L360.62,831.358L360.529,831.358L360.447,831.048L360.427,830.959L360.322,831.358L360.23,831.358Z" style="fill-rule:nonzero;"/>
            <path d="M361.195,831.294C361.162,831.322 361.131,831.342 361.101,831.353C361.071,831.364 361.038,831.37 361.004,831.37C360.947,831.37 360.903,831.356 360.872,831.328C360.842,831.3 360.826,831.265 360.826,831.222C360.826,831.196 360.832,831.173 360.844,831.152C360.855,831.131 360.87,831.114 360.889,831.101C360.908,831.089 360.929,831.079 360.952,831.073C360.97,831.068 360.996,831.064 361.031,831.059C361.102,831.051 361.154,831.041 361.187,831.029C361.188,831.017 361.188,831.01 361.188,831.006C361.188,830.97 361.179,830.945 361.163,830.931C361.14,830.911 361.107,830.901 361.063,830.901C361.021,830.901 360.991,830.908 360.971,830.923C360.952,830.937 360.937,830.963 360.928,830.999L360.842,830.988C360.849,830.951 360.862,830.921 360.88,830.899C360.898,830.876 360.924,830.859 360.958,830.846C360.992,830.834 361.031,830.828 361.075,830.828C361.12,830.828 361.156,830.833 361.183,830.844C361.211,830.854 361.231,830.867 361.244,830.883C361.257,830.899 361.267,830.919 361.272,830.943C361.275,830.958 361.276,830.985 361.276,831.024L361.276,831.141C361.276,831.223 361.278,831.274 361.282,831.296C361.286,831.318 361.293,831.338 361.304,831.358L361.212,831.358C361.203,831.34 361.197,831.319 361.195,831.294ZM361.187,831.098C361.155,831.111 361.108,831.122 361.044,831.131C361.008,831.136 360.982,831.142 360.967,831.149C360.952,831.155 360.941,831.165 360.932,831.177C360.924,831.19 360.92,831.204 360.92,831.219C360.92,831.243 360.929,831.262 360.947,831.278C360.965,831.293 360.991,831.301 361.025,831.301C361.059,831.301 361.089,831.294 361.115,831.279C361.141,831.264 361.161,831.244 361.173,831.218C361.183,831.198 361.187,831.169 361.187,831.13L361.187,831.098ZM360.928,830.738L360.928,830.638L361.02,830.638L361.02,830.738L360.928,830.738ZM361.111,830.738L361.111,830.638L361.202,830.638L361.202,830.738L361.111,830.738Z" style="fill-rule:nonzero;"/>
            <path d="M361.412,831.358L361.412,830.642L361.5,830.642L361.5,830.899C361.541,830.852 361.593,830.828 361.656,830.828C361.694,830.828 361.727,830.836 361.756,830.851C361.784,830.866 361.804,830.887 361.816,830.913C361.829,830.94 361.835,830.979 361.835,831.03L361.835,831.358L361.747,831.358L361.747,831.03C361.747,830.986 361.737,830.954 361.718,830.934C361.699,830.914 361.672,830.904 361.637,830.904C361.611,830.904 361.587,830.91 361.564,830.924C361.541,830.937 361.525,830.956 361.515,830.979C361.505,831.002 361.5,831.034 361.5,831.075L361.5,831.358L361.412,831.358Z" style="fill-rule:nonzero;"/>
            <rect x="361.967" y="830.642" width="0.088" height="0.716" style="fill-rule:nonzero;"/>
            <path d="M362.546,831.191L362.637,831.203C362.622,831.256 362.596,831.297 362.557,831.326C362.518,831.355 362.469,831.37 362.408,831.37C362.333,831.37 362.272,831.347 362.228,831.3C362.184,831.253 362.161,831.188 362.161,831.103C362.161,831.016 362.184,830.948 362.229,830.9C362.274,830.852 362.332,830.828 362.404,830.828C362.473,830.828 362.53,830.852 362.574,830.899C362.617,830.946 362.639,831.012 362.639,831.098C362.639,831.103 362.639,831.111 362.639,831.121L362.252,831.121C362.255,831.178 362.272,831.222 362.301,831.252C362.33,831.283 362.366,831.298 362.409,831.298C362.441,831.298 362.469,831.289 362.491,831.272C362.514,831.255 362.532,831.228 362.546,831.191ZM362.257,831.049L362.547,831.049C362.543,831.006 362.532,830.973 362.513,830.951C362.485,830.917 362.449,830.9 362.405,830.9C362.364,830.9 362.33,830.914 362.303,830.941C362.275,830.968 362.26,831.004 362.257,831.049Z" style="fill-rule:nonzero;"/>
            <path d="M363.363,831.294C363.331,831.322 363.299,831.342 363.269,831.353C363.239,831.364 363.207,831.37 363.172,831.37C363.115,831.37 363.071,831.356 363.041,831.328C363.01,831.3 362.995,831.265 362.995,831.222C362.995,831.196 363.001,831.173 363.012,831.152C363.024,831.131 363.039,831.114 363.058,831.101C363.076,831.089 363.097,831.079 363.121,831.073C363.138,831.068 363.164,831.064 363.199,831.059C363.27,831.051 363.322,831.041 363.356,831.029C363.356,831.017 363.356,831.01 363.356,831.006C363.356,830.97 363.348,830.945 363.331,830.931C363.309,830.911 363.276,830.901 363.231,830.901C363.19,830.901 363.159,830.908 363.14,830.923C363.12,830.937 363.105,830.963 363.096,830.999L363.01,830.988C363.018,830.951 363.031,830.921 363.049,830.899C363.067,830.876 363.092,830.859 363.126,830.846C363.16,830.834 363.199,830.828 363.244,830.828C363.288,830.828 363.324,830.833 363.352,830.844C363.38,830.854 363.4,830.867 363.413,830.883C363.426,830.899 363.435,830.919 363.44,830.943C363.443,830.958 363.445,830.985 363.445,831.024L363.445,831.141C363.445,831.223 363.446,831.274 363.45,831.296C363.454,831.318 363.461,831.338 363.472,831.358L363.381,831.358C363.372,831.34 363.366,831.319 363.363,831.294ZM363.356,831.098C363.324,831.111 363.276,831.122 363.212,831.131C363.176,831.136 363.151,831.142 363.136,831.149C363.121,831.155 363.109,831.165 363.101,831.177C363.093,831.19 363.089,831.204 363.089,831.219C363.089,831.243 363.098,831.262 363.115,831.278C363.133,831.293 363.159,831.301 363.193,831.301C363.227,831.301 363.257,831.294 363.283,831.279C363.31,831.264 363.329,831.244 363.342,831.218C363.351,831.198 363.356,831.169 363.356,831.13L363.356,831.098Z" style="fill-rule:nonzero;"/>
            <path d="M363.921,831.358L363.921,831.282C363.88,831.341 363.825,831.37 363.756,831.37C363.726,831.37 363.697,831.364 363.67,831.352C363.644,831.341 363.624,831.326 363.611,831.308C363.599,831.291 363.589,831.269 363.584,831.243C363.581,831.226 363.579,831.198 363.579,831.161L363.579,830.84L363.667,830.84L363.667,831.127C363.667,831.173 363.669,831.204 363.672,831.22C363.678,831.243 363.689,831.261 363.707,831.275C363.725,831.288 363.747,831.294 363.774,831.294C363.8,831.294 363.825,831.288 363.848,831.274C363.871,831.261 363.887,831.242 363.897,831.219C363.907,831.196 363.911,831.162 363.911,831.118L363.911,830.84L363.999,830.84L363.999,831.358L363.921,831.358Z" style="fill-rule:nonzero;"/>
            <path d="M364.102,831.204L364.189,831.19C364.194,831.225 364.207,831.251 364.23,831.27C364.252,831.288 364.283,831.298 364.323,831.298C364.363,831.298 364.393,831.29 364.413,831.273C364.432,831.257 364.442,831.237 364.442,831.215C364.442,831.195 364.434,831.18 364.416,831.168C364.404,831.161 364.374,831.151 364.326,831.139C364.262,831.122 364.217,831.108 364.192,831.096C364.168,831.084 364.149,831.068 364.136,831.047C364.123,831.026 364.116,831.003 364.116,830.977C364.116,830.954 364.122,830.933 364.132,830.913C364.143,830.894 364.157,830.877 364.176,830.864C364.189,830.854 364.208,830.846 364.231,830.839C364.255,830.832 364.28,830.828 364.307,830.828C364.348,830.828 364.384,830.834 364.415,830.846C364.445,830.857 364.468,830.873 364.483,830.893C364.497,830.913 364.507,830.94 364.513,830.974L364.427,830.985C364.423,830.959 364.412,830.938 364.393,830.923C364.374,830.908 364.348,830.9 364.314,830.9C364.273,830.9 364.245,830.907 364.227,830.92C364.21,830.934 364.201,830.949 364.201,830.967C364.201,830.979 364.205,830.989 364.212,830.998C364.219,831.007 364.231,831.015 364.246,831.021C364.255,831.025 364.281,831.032 364.324,831.044C364.386,831.06 364.429,831.074 364.454,831.085C364.478,831.095 364.498,831.111 364.512,831.131C364.526,831.151 364.533,831.176 364.533,831.206C364.533,831.235 364.524,831.263 364.507,831.289C364.49,831.315 364.465,831.335 364.433,831.349C364.401,831.363 364.364,831.37 364.324,831.37C364.256,831.37 364.205,831.356 364.169,831.328C364.134,831.3 364.112,831.259 364.102,831.204Z" style="fill-rule:nonzero;"/>
        </g>
        <g transform="matrix(33.438,0,0,33.438,-11021.6,-26568.8)">
            <path d="M360.113,831.128L360.202,831.121C360.207,831.156 360.217,831.186 360.232,831.209C360.247,831.232 360.271,831.25 360.304,831.264C360.337,831.278 360.373,831.286 360.414,831.286C360.45,831.286 360.482,831.28 360.51,831.269C360.537,831.259 360.558,831.244 360.571,831.225C360.585,831.207 360.592,831.186 360.592,831.164C360.592,831.142 360.585,831.122 360.572,831.105C360.559,831.088 360.538,831.074 360.508,831.063C360.488,831.055 360.446,831.044 360.38,831.028C360.314,831.012 360.268,830.997 360.242,830.983C360.208,830.965 360.182,830.943 360.166,830.917C360.149,830.89 360.14,830.86 360.14,830.828C360.14,830.791 360.151,830.758 360.171,830.726C360.192,830.695 360.222,830.671 360.261,830.655C360.3,830.638 360.344,830.63 360.392,830.63C360.445,830.63 360.492,830.639 360.533,830.656C360.573,830.673 360.604,830.698 360.626,830.731C360.648,830.765 360.66,830.802 360.661,830.844L360.571,830.851C360.566,830.806 360.549,830.772 360.521,830.748C360.493,830.725 360.451,830.714 360.396,830.714C360.339,830.714 360.297,830.724 360.271,830.745C360.245,830.766 360.232,830.792 360.232,830.821C360.232,830.847 360.241,830.868 360.26,830.885C360.278,830.901 360.325,830.918 360.402,830.936C360.479,830.953 360.532,830.968 360.561,830.981C360.602,831.001 360.633,831.025 360.653,831.054C360.673,831.084 360.683,831.118 360.683,831.156C360.683,831.194 360.672,831.23 360.65,831.264C360.628,831.298 360.597,831.324 360.556,831.342C360.515,831.361 360.469,831.371 360.418,831.371C360.353,831.371 360.299,831.361 360.255,831.342C360.212,831.323 360.177,831.295 360.152,831.257C360.127,831.219 360.114,831.176 360.113,831.128Z" style="fill-rule:nonzero;"/>
            <path d="M360.993,831.28L361.006,831.357C360.981,831.363 360.959,831.365 360.939,831.365C360.907,831.365 360.883,831.36 360.865,831.35C360.847,831.34 360.835,831.327 360.828,831.31C360.821,831.294 360.817,831.259 360.817,831.206L360.817,830.908L360.753,830.908L360.753,830.84L360.817,830.84L360.817,830.711L360.905,830.659L360.905,830.84L360.993,830.84L360.993,830.908L360.905,830.908L360.905,831.211C360.905,831.236 360.906,831.253 360.909,831.26C360.912,831.267 360.917,831.273 360.924,831.277C360.931,831.281 360.941,831.283 360.954,831.283C360.964,831.283 360.977,831.282 360.993,831.28Z" style="fill-rule:nonzero;"/>
            <path d="M361.417,831.294C361.385,831.322 361.353,831.342 361.323,831.353C361.293,831.364 361.261,831.37 361.226,831.37C361.169,831.37 361.126,831.356 361.095,831.328C361.064,831.3 361.049,831.265 361.049,831.222C361.049,831.196 361.055,831.173 361.066,831.152C361.078,831.131 361.093,831.114 361.112,831.101C361.131,831.089 361.152,831.079 361.175,831.073C361.192,831.068 361.218,831.064 361.253,831.059C361.324,831.051 361.376,831.041 361.41,831.029C361.41,831.017 361.41,831.01 361.41,831.006C361.41,830.97 361.402,830.945 361.386,830.931C361.363,830.911 361.33,830.901 361.285,830.901C361.244,830.901 361.214,830.908 361.194,830.923C361.174,830.937 361.16,830.963 361.15,830.999L361.064,830.988C361.072,830.951 361.085,830.921 361.103,830.899C361.121,830.876 361.147,830.859 361.18,830.846C361.214,830.834 361.254,830.828 361.298,830.828C361.342,830.828 361.378,830.833 361.406,830.844C361.434,830.854 361.454,830.867 361.467,830.883C361.48,830.899 361.489,830.919 361.494,830.943C361.497,830.958 361.499,830.985 361.499,831.024L361.499,831.141C361.499,831.223 361.501,831.274 361.504,831.296C361.508,831.318 361.516,831.338 361.527,831.358L361.435,831.358C361.426,831.34 361.42,831.319 361.417,831.294ZM361.41,831.098C361.378,831.111 361.33,831.122 361.266,831.131C361.23,831.136 361.205,831.142 361.19,831.149C361.175,831.155 361.163,831.165 361.155,831.177C361.147,831.19 361.143,831.204 361.143,831.219C361.143,831.243 361.152,831.262 361.169,831.278C361.187,831.293 361.213,831.301 361.247,831.301C361.281,831.301 361.311,831.294 361.338,831.279C361.364,831.264 361.383,831.244 361.396,831.218C361.405,831.198 361.41,831.169 361.41,831.13L361.41,831.098Z" style="fill-rule:nonzero;"/>
            <path d="M361.634,831.358L361.634,830.84L361.713,830.84L361.713,830.918C361.733,830.882 361.752,830.857 361.769,830.846C361.786,830.834 361.805,830.828 361.825,830.828C361.855,830.828 361.885,830.837 361.916,830.856L361.886,830.938C361.864,830.925 361.843,830.919 361.821,830.919C361.802,830.919 361.785,830.925 361.769,830.936C361.754,830.948 361.743,830.964 361.737,830.984C361.727,831.016 361.722,831.05 361.722,831.087L361.722,831.358L361.634,831.358Z" style="fill-rule:nonzero;"/>
            <path d="M362.16,831.28L362.173,831.357C362.148,831.363 362.126,831.365 362.106,831.365C362.074,831.365 362.05,831.36 362.032,831.35C362.014,831.34 362.002,831.327 361.995,831.31C361.988,831.294 361.984,831.259 361.984,831.206L361.984,830.908L361.92,830.908L361.92,830.84L361.984,830.84L361.984,830.711L362.072,830.659L362.072,830.84L362.16,830.84L362.16,830.908L362.072,830.908L362.072,831.211C362.072,831.236 362.073,831.253 362.076,831.26C362.079,831.267 362.084,831.273 362.091,831.277C362.098,831.281 362.108,831.283 362.121,831.283C362.131,831.283 362.144,831.282 362.16,831.28Z" style="fill-rule:nonzero;"/>
        </g>
        <g transform="matrix(33.438,0,0,33.438,-10805.8,-26151.8)">
            <path d="M360.134,830.745L360.134,830.642L360.221,830.642L360.221,830.745L360.134,830.745ZM360.022,831.559L360.039,831.485C360.056,831.489 360.07,831.492 360.08,831.492C360.098,831.492 360.112,831.486 360.12,831.474C360.129,831.462 360.134,831.432 360.134,831.385L360.134,830.84L360.221,830.84L360.221,831.387C360.221,831.45 360.213,831.495 360.197,831.52C360.175,831.552 360.14,831.569 360.091,831.569C360.067,831.569 360.044,831.566 360.022,831.559Z" style="fill-rule:nonzero;"/>
            <path d="M360.695,831.294C360.662,831.322 360.631,831.342 360.601,831.353C360.571,831.364 360.538,831.37 360.504,831.37C360.447,831.37 360.403,831.356 360.372,831.328C360.342,831.3 360.326,831.265 360.326,831.222C360.326,831.196 360.332,831.173 360.344,831.152C360.355,831.131 360.37,831.114 360.389,831.101C360.408,831.089 360.429,831.079 360.452,831.073C360.47,831.068 360.496,831.064 360.531,831.059C360.602,831.051 360.654,831.041 360.687,831.029C360.688,831.017 360.688,831.01 360.688,831.006C360.688,830.97 360.679,830.945 360.663,830.931C360.64,830.911 360.607,830.901 360.563,830.901C360.521,830.901 360.491,830.908 360.471,830.923C360.452,830.937 360.437,830.963 360.428,830.999L360.342,830.988C360.349,830.951 360.362,830.921 360.38,830.899C360.398,830.876 360.424,830.859 360.458,830.846C360.492,830.834 360.531,830.828 360.575,830.828C360.62,830.828 360.656,830.833 360.683,830.844C360.711,830.854 360.731,830.867 360.744,830.883C360.757,830.899 360.767,830.919 360.772,830.943C360.775,830.958 360.776,830.985 360.776,831.024L360.776,831.141C360.776,831.223 360.778,831.274 360.782,831.296C360.786,831.318 360.793,831.338 360.804,831.358L360.712,831.358C360.703,831.34 360.697,831.319 360.695,831.294ZM360.687,831.098C360.655,831.111 360.608,831.122 360.544,831.131C360.508,831.136 360.482,831.142 360.467,831.149C360.452,831.155 360.441,831.165 360.432,831.177C360.424,831.19 360.42,831.204 360.42,831.219C360.42,831.243 360.429,831.262 360.447,831.278C360.465,831.293 360.491,831.301 360.525,831.301C360.559,831.301 360.589,831.294 360.615,831.279C360.641,831.264 360.661,831.244 360.673,831.218C360.683,831.198 360.687,831.169 360.687,831.13L360.687,831.098Z" style="fill-rule:nonzero;"/>
        </g>
        <g transform="matrix(33.438,0,0,33.438,-11152.4,-25558.4)">
            <path d="M360.134,830.745L360.134,830.642L360.221,830.642L360.221,830.745L360.134,830.745ZM360.022,831.559L360.039,831.485C360.056,831.489 360.07,831.492 360.08,831.492C360.098,831.492 360.112,831.486 360.12,831.474C360.129,831.462 360.134,831.432 360.134,831.385L360.134,830.84L360.221,830.84L360.221,831.387C360.221,831.45 360.213,831.495 360.197,831.52C360.175,831.552 360.14,831.569 360.091,831.569C360.067,831.569 360.044,831.566 360.022,831.559Z" style="fill-rule:nonzero;"/>
            <path d="M360.695,831.294C360.662,831.322 360.631,831.342 360.601,831.353C360.571,831.364 360.538,831.37 360.504,831.37C360.447,831.37 360.403,831.356 360.372,831.328C360.342,831.3 360.326,831.265 360.326,831.222C360.326,831.196 360.332,831.173 360.344,831.152C360.355,831.131 360.37,831.114 360.389,831.101C360.408,831.089 360.429,831.079 360.452,831.073C360.47,831.068 360.496,831.064 360.531,831.059C360.602,831.051 360.654,831.041 360.687,831.029C360.688,831.017 360.688,831.01 360.688,831.006C360.688,830.97 360.679,830.945 360.663,830.931C360.64,830.911 360.607,830.901 360.563,830.901C360.521,830.901 360.491,830.908 360.471,830.923C360.452,830.937 360.437,830.963 360.428,830.999L360.342,830.988C360.349,830.951 360.362,830.921 360.38,830.899C360.398,830.876 360.424,830.859 360.458,830.846C360.492,830.834 360.531,830.828 360.575,830.828C360.62,830.828 360.656,830.833 360.683,830.844C360.711,830.854 360.731,830.867 360.744,830.883C360.757,830.899 360.767,830.919 360.772,830.943C360.775,830.958 360.776,830.985 360.776,831.024L360.776,831.141C360.776,831.223 360.778,831.274 360.782,831.296C360.786,831.318 360.793,831.338 360.804,831.358L360.712,831.358C360.703,831.34 360.697,831.319 360.695,831.294ZM360.687,831.098C360.655,831.111 360.608,831.122 360.544,831.131C360.508,831.136 360.482,831.142 360.467,831.149C360.452,831.155 360.441,831.165 360.432,831.177C360.424,831.19 360.42,831.204 360.42,831.219C360.42,831.243 360.429,831.262 360.447,831.278C360.465,831.293 360.491,831.301 360.525,831.301C360.559,831.301 360.589,831.294 360.615,831.279C360.641,831.264 360.661,831.244 360.673,831.218C360.683,831.198 360.687,831.169 360.687,831.13L360.687,831.098Z" style="fill-rule:nonzero;"/>
        </g>
        <g transform="matrix(33.438,0,0,33.438,-11550.7,-25564.4)">
            <path d="M360.134,831.358L360.134,830.84L360.213,830.84L360.213,830.913C360.251,830.857 360.306,830.828 360.378,830.828C360.409,830.828 360.438,830.834 360.464,830.845C360.491,830.856 360.51,830.871 360.523,830.889C360.536,830.907 360.545,830.929 360.551,830.954C360.554,830.97 360.555,830.999 360.555,831.039L360.555,831.358L360.468,831.358L360.468,831.043C360.468,831.007 360.464,830.98 360.457,830.963C360.45,830.945 360.438,830.931 360.421,830.92C360.404,830.909 360.383,830.904 360.36,830.904C360.322,830.904 360.29,830.916 360.263,830.94C360.236,830.964 360.222,831.009 360.222,831.075L360.222,831.358L360.134,831.358Z" style="fill-rule:nonzero;"/>
            <path d="M361.045,831.191L361.136,831.203C361.122,831.256 361.095,831.297 361.056,831.326C361.018,831.355 360.968,831.37 360.908,831.37C360.832,831.37 360.772,831.347 360.728,831.3C360.683,831.253 360.661,831.188 360.661,831.103C360.661,831.016 360.683,830.948 360.728,830.9C360.773,830.852 360.831,830.828 360.903,830.828C360.972,830.828 361.029,830.852 361.073,830.899C361.117,830.946 361.139,831.012 361.139,831.098C361.139,831.103 361.139,831.111 361.138,831.121L360.752,831.121C360.755,831.178 360.771,831.222 360.8,831.252C360.829,831.283 360.865,831.298 360.908,831.298C360.941,831.298 360.968,831.289 360.991,831.272C361.014,831.255 361.032,831.228 361.045,831.191ZM360.757,831.049L361.046,831.049C361.042,831.006 361.031,830.973 361.013,830.951C360.985,830.917 360.949,830.9 360.904,830.9C360.864,830.9 360.83,830.914 360.802,830.941C360.775,830.968 360.76,831.004 360.757,831.049Z" style="fill-rule:nonzero;"/>
            <path d="M361.247,830.744L361.247,830.642L361.335,830.642L361.335,830.744L361.247,830.744ZM361.247,831.358L361.247,830.84L361.335,830.84L361.335,831.358L361.247,831.358Z" style="fill-rule:nonzero;"/>
            <path d="M361.469,831.358L361.469,830.84L361.548,830.84L361.548,830.913C361.586,830.857 361.641,830.828 361.713,830.828C361.744,830.828 361.773,830.834 361.799,830.845C361.825,830.856 361.845,830.871 361.858,830.889C361.871,830.907 361.88,830.929 361.885,830.954C361.888,830.97 361.89,830.999 361.89,831.039L361.89,831.358L361.802,831.358L361.802,831.043C361.802,831.007 361.799,830.98 361.792,830.963C361.785,830.945 361.773,830.931 361.755,830.92C361.738,830.909 361.718,830.904 361.694,830.904C361.657,830.904 361.624,830.916 361.597,830.94C361.57,830.964 361.556,831.009 361.556,831.075L361.556,831.358L361.469,831.358Z" style="fill-rule:nonzero;"/>
        </g>
        <g transform="matrix(33.438,0,0,33.438,-11249.9,-26145.2)">
            <path d="M360.134,831.358L360.134,830.84L360.213,830.84L360.213,830.913C360.251,830.857 360.306,830.828 360.378,830.828C360.409,830.828 360.438,830.834 360.464,830.845C360.491,830.856 360.51,830.871 360.523,830.889C360.536,830.907 360.545,830.929 360.551,830.954C360.554,830.97 360.555,830.999 360.555,831.039L360.555,831.358L360.468,831.358L360.468,831.043C360.468,831.007 360.464,830.98 360.457,830.963C360.45,830.945 360.438,830.931 360.421,830.92C360.404,830.909 360.383,830.904 360.36,830.904C360.322,830.904 360.29,830.916 360.263,830.94C360.236,830.964 360.222,831.009 360.222,831.075L360.222,831.358L360.134,831.358Z" style="fill-rule:nonzero;"/>
            <path d="M361.045,831.191L361.136,831.203C361.122,831.256 361.095,831.297 361.056,831.326C361.018,831.355 360.968,831.37 360.908,831.37C360.832,831.37 360.772,831.347 360.728,831.3C360.683,831.253 360.661,831.188 360.661,831.103C360.661,831.016 360.683,830.948 360.728,830.9C360.773,830.852 360.831,830.828 360.903,830.828C360.972,830.828 361.029,830.852 361.073,830.899C361.117,830.946 361.139,831.012 361.139,831.098C361.139,831.103 361.139,831.111 361.138,831.121L360.752,831.121C360.755,831.178 360.771,831.222 360.8,831.252C360.829,831.283 360.865,831.298 360.908,831.298C360.941,831.298 360.968,831.289 360.991,831.272C361.014,831.255 361.032,831.228 361.045,831.191ZM360.757,831.049L361.046,831.049C361.042,831.006 361.031,830.973 361.013,830.951C360.985,830.917 360.949,830.9 360.904,830.9C360.864,830.9 360.83,830.914 360.802,830.941C360.775,830.968 360.76,831.004 360.757,831.049Z" style="fill-rule:nonzero;"/>
            <path d="M361.247,830.744L361.247,830.642L361.335,830.642L361.335,830.744L361.247,830.744ZM361.247,831.358L361.247,830.84L361.335,830.84L361.335,831.358L361.247,831.358Z" style="fill-rule:nonzero;"/>
            <path d="M361.469,831.358L361.469,830.84L361.548,830.84L361.548,830.913C361.586,830.857 361.641,830.828 361.713,830.828C361.744,830.828 361.773,830.834 361.799,830.845C361.825,830.856 361.845,830.871 361.858,830.889C361.871,830.907 361.88,830.929 361.885,830.954C361.888,830.97 361.89,830.999 361.89,831.039L361.89,831.358L361.802,831.358L361.802,831.043C361.802,831.007 361.799,830.98 361.792,830.963C361.785,830.945 361.773,830.931 361.755,830.92C361.738,830.909 361.718,830.904 361.694,830.904C361.657,830.904 361.624,830.916 361.597,830.94C361.57,830.964 361.556,831.009 361.556,831.075L361.556,831.358L361.469,831.358Z" style="fill-rule:nonzero;"/>
        </g>
        <g transform="matrix(33.438,0,0,33.438,-11030.6,-25582.7)">
            <path d="M360.147,831.358L360.147,830.642L360.665,830.642L360.665,830.727L360.242,830.727L360.242,830.946L360.638,830.946L360.638,831.03L360.242,831.03L360.242,831.274L360.681,831.274L360.681,831.358L360.147,831.358Z" style="fill-rule:nonzero;"/>
            <path d="M360.801,831.358L360.801,830.84L360.88,830.84L360.88,830.913C360.918,830.857 360.973,830.828 361.045,830.828C361.076,830.828 361.105,830.834 361.131,830.845C361.158,830.856 361.177,830.871 361.19,830.889C361.203,830.907 361.212,830.929 361.218,830.954C361.221,830.97 361.222,830.999 361.222,831.039L361.222,831.358L361.135,831.358L361.135,831.043C361.135,831.007 361.131,830.98 361.124,830.963C361.117,830.945 361.105,830.931 361.088,830.92C361.071,830.909 361.05,830.904 361.027,830.904C360.989,830.904 360.957,830.916 360.93,830.94C360.903,830.964 360.889,831.009 360.889,831.075L360.889,831.358L360.801,831.358Z" style="fill-rule:nonzero;"/>
            <path d="M361.694,831.358L361.694,831.293C361.661,831.344 361.612,831.37 361.549,831.37C361.507,831.37 361.469,831.359 361.435,831.336C361.4,831.313 361.373,831.281 361.354,831.24C361.335,831.2 361.325,831.153 361.325,831.1C361.325,831.048 361.334,831.001 361.351,830.959C361.369,830.916 361.394,830.884 361.429,830.862C361.463,830.839 361.502,830.828 361.545,830.828C361.576,830.828 361.604,830.835 361.628,830.848C361.653,830.861 361.672,830.878 361.688,830.899L361.688,830.642L361.775,830.642L361.775,831.358L361.694,831.358ZM361.416,831.1C361.416,831.166 361.43,831.216 361.458,831.248C361.486,831.281 361.519,831.298 361.557,831.298C361.595,831.298 361.628,831.282 361.655,831.251C361.682,831.219 361.695,831.171 361.695,831.107C361.695,831.036 361.681,830.984 361.654,830.951C361.627,830.917 361.593,830.901 361.553,830.901C361.514,830.901 361.481,830.917 361.455,830.949C361.429,830.981 361.416,831.031 361.416,831.1Z" style="fill-rule:nonzero;"/>
            <path d="M362.268,831.191L362.359,831.203C362.345,831.256 362.318,831.297 362.28,831.326C362.241,831.355 362.191,831.37 362.131,831.37C362.055,831.37 361.995,831.347 361.951,831.3C361.906,831.253 361.884,831.188 361.884,831.103C361.884,831.016 361.907,830.948 361.951,830.9C361.996,830.852 362.055,830.828 362.126,830.828C362.196,830.828 362.252,830.852 362.296,830.899C362.34,830.946 362.362,831.012 362.362,831.098C362.362,831.103 362.362,831.111 362.362,831.121L361.975,831.121C361.978,831.178 361.994,831.222 362.023,831.252C362.052,831.283 362.088,831.298 362.132,831.298C362.164,831.298 362.191,831.289 362.214,831.272C362.237,831.255 362.255,831.228 362.268,831.191ZM361.98,831.049L362.269,831.049C362.265,831.006 362.254,830.973 362.236,830.951C362.208,830.917 362.172,830.9 362.127,830.9C362.087,830.9 362.053,830.914 362.025,830.941C361.998,830.968 361.983,831.004 361.98,831.049Z" style="fill-rule:nonzero;"/>
        </g>
        <path d="M1047.35,1261L1048.02,1366.46" style="fill:none;stroke:black;stroke-width:1.6px;"/>
        <g transform="matrix(1,0,0,1,-3.05285,219.616)">
            <path d="M1047.35,1274.84L1048.02,1366.46" style="fill:none;stroke:black;stroke-width:1.6px;"/>
        </g>
        <g transform="matrix(-1,0,0,1,1851.16,406.177)">
            <path d="M954.961,1257.95L1128.17,1258.08L1128.17,1475.95" style="fill:none;stroke:black;stroke-width:1.6px;"/>
        </g>
        <g transform="matrix(1,0,0,1,242.253,404.415)">
            <path d="M952.17,1259.84L1133.47,1259.84L1133.47,1333.03" style="fill:none;stroke:black;stroke-width:1.6px;"/>
        </g>
        <path d="M1058.32,1348.21C1054.28,1352.63 1050.87,1358.78 1048.02,1366.46C1043.88,1361.2 1040.21,1355.34 1038.41,1347.21" style="fill:none;stroke:black;stroke-width:1.6px;"/>
        <g transform="matrix(1,0,0,1,-3.05285,219.616)">
            <path d="M1058.32,1348.21C1054.28,1352.63 1050.87,1358.78 1048.02,1366.46C1043.88,1361.2 1040.21,1355.34 1038.41,1347.21" style="fill:none;stroke:black;stroke-width:1.6px;"/>
        </g>
        <g transform="matrix(1,0,0,1,-325.191,759.779)">
            <path d="M1058.32,1348.21C1054.28,1352.63 1050.87,1358.78 1048.02,1366.46C1043.88,1361.2 1040.21,1355.34 1038.41,1347.21" style="fill:none;stroke:black;stroke-width:1.6px;"/>
        </g>
        <g transform="matrix(1,0,0,1,-325.377,420.656)">
            <path d="M1058.32,1348.21C1054.28,1352.63 1050.87,1358.78 1048.02,1366.46C1043.88,1361.2 1040.21,1355.34 1038.41,1347.21" style="fill:none;stroke:black;stroke-width:1.6px;"/>
        </g>
        <g transform="matrix(1,0,0,1,-325.377,515.66)">
            <path d="M1058.32,1348.21C1054.28,1352.63 1050.87,1358.78 1048.02,1366.46C1043.88,1361.2 1040.21,1355.34 1038.41,1347.21" style="fill:none;stroke:black;stroke-width:1.6px;"/>
        </g>
        <g transform="matrix(1,0,0,1,327.36,370.978)">
            <path d="M1058.32,1348.21C1054.28,1352.63 1050.87,1358.78 1048.02,1366.46C1043.88,1361.2 1040.21,1355.34 1038.41,1347.21" style="fill:none;stroke:black;stroke-width:1.6px;"/>
        </g>
        <g transform="matrix(-6.12323e-17,-1,-1,6.12323e-17,2103.63,2849.66)">
            <path d="M1058.32,1348.21C1054.28,1352.63 1050.87,1358.78 1048.02,1366.46C1043.88,1361.2 1040.21,1355.34 1038.41,1347.21" style="fill:none;stroke:black;stroke-width:1.6px;"/>
        </g>
        <g transform="matrix(6.12323e-17,-1,1,6.12323e-17,-657.656,2849.66)">
            <path d="M1058.32,1348.21C1054.28,1352.63 1050.87,1358.78 1048.02,1366.46C1043.88,1361.2 1040.21,1355.34 1038.41,1347.21" style="fill:none;stroke:black;stroke-width:1.6px;"/>
        </g>
        <g transform="matrix(6.12323e-17,-1,1,6.12323e-17,-414.688,3250.65)">
            <path d="M1058.32,1348.21C1054.28,1352.63 1050.87,1358.78 1048.02,1366.46C1043.88,1361.2 1040.21,1355.34 1038.41,1347.21" style="fill:none;stroke:black;stroke-width:1.6px;"/>
        </g>
        <g transform="matrix(33.438,0,0,33.438,-11443.8,-25838.5)">
            <path d="M360.23,831.358L360.071,830.84L360.162,830.84L360.244,831.139L360.275,831.25C360.276,831.245 360.285,831.209 360.302,831.143L360.385,830.84L360.475,830.84L360.553,831.141L360.578,831.24L360.608,831.14L360.697,830.84L360.783,830.84L360.62,831.358L360.529,831.358L360.447,831.048L360.427,830.959L360.322,831.358L360.23,831.358Z" style="fill-rule:nonzero;"/>
            <path d="M361.195,831.294C361.162,831.322 361.131,831.342 361.101,831.353C361.071,831.364 361.038,831.37 361.004,831.37C360.947,831.37 360.903,831.356 360.872,831.328C360.842,831.3 360.826,831.265 360.826,831.222C360.826,831.196 360.832,831.173 360.844,831.152C360.855,831.131 360.87,831.114 360.889,831.101C360.908,831.089 360.929,831.079 360.952,831.073C360.97,831.068 360.996,831.064 361.031,831.059C361.102,831.051 361.154,831.041 361.187,831.029C361.188,831.017 361.188,831.01 361.188,831.006C361.188,830.97 361.179,830.945 361.163,830.931C361.14,830.911 361.107,830.901 361.063,830.901C361.021,830.901 360.991,830.908 360.971,830.923C360.952,830.937 360.937,830.963 360.928,830.999L360.842,830.988C360.849,830.951 360.862,830.921 360.88,830.899C360.898,830.876 360.924,830.859 360.958,830.846C360.992,830.834 361.031,830.828 361.075,830.828C361.12,830.828 361.156,830.833 361.183,830.844C361.211,830.854 361.231,830.867 361.244,830.883C361.257,830.899 361.267,830.919 361.272,830.943C361.275,830.958 361.276,830.985 361.276,831.024L361.276,831.141C361.276,831.223 361.278,831.274 361.282,831.296C361.286,831.318 361.293,831.338 361.304,831.358L361.212,831.358C361.203,831.34 361.197,831.319 361.195,831.294ZM361.187,831.098C361.155,831.111 361.108,831.122 361.044,831.131C361.008,831.136 360.982,831.142 360.967,831.149C360.952,831.155 360.941,831.165 360.932,831.177C360.924,831.19 360.92,831.204 360.92,831.219C360.92,831.243 360.929,831.262 360.947,831.278C360.965,831.293 360.991,831.301 361.025,831.301C361.059,831.301 361.089,831.294 361.115,831.279C361.141,831.264 361.161,831.244 361.173,831.218C361.183,831.198 361.187,831.169 361.187,831.13L361.187,831.098ZM360.928,830.738L360.928,830.638L361.02,830.638L361.02,830.738L360.928,830.738ZM361.111,830.738L361.111,830.638L361.202,830.638L361.202,830.738L361.111,830.738Z" style="fill-rule:nonzero;"/>
            <path d="M361.412,831.358L361.412,830.642L361.5,830.642L361.5,830.899C361.541,830.852 361.593,830.828 361.656,830.828C361.694,830.828 361.727,830.836 361.756,830.851C361.784,830.866 361.804,830.887 361.816,830.913C361.829,830.94 361.835,830.979 361.835,831.03L361.835,831.358L361.747,831.358L361.747,831.03C361.747,830.986 361.737,830.954 361.718,830.934C361.699,830.914 361.672,830.904 361.637,830.904C361.611,830.904 361.587,830.91 361.564,830.924C361.541,830.937 361.525,830.956 361.515,830.979C361.505,831.002 361.5,831.034 361.5,831.075L361.5,831.358L361.412,831.358Z" style="fill-rule:nonzero;"/>
            <rect x="361.967" y="830.642" width="0.088" height="0.716" style="fill-rule:nonzero;"/>
            <path d="M362.546,831.191L362.637,831.203C362.622,831.256 362.596,831.297 362.557,831.326C362.518,831.355 362.469,831.37 362.408,831.37C362.333,831.37 362.272,831.347 362.228,831.3C362.184,831.253 362.161,831.188 362.161,831.103C362.161,831.016 362.184,830.948 362.229,830.9C362.274,830.852 362.332,830.828 362.404,830.828C362.473,830.828 362.53,830.852 362.574,830.899C362.617,830.946 362.639,831.012 362.639,831.098C362.639,831.103 362.639,831.111 362.639,831.121L362.252,831.121C362.255,831.178 362.272,831.222 362.301,831.252C362.33,831.283 362.366,831.298 362.409,831.298C362.441,831.298 362.469,831.289 362.491,831.272C362.514,831.255 362.532,831.228 362.546,831.191ZM362.257,831.049L362.547,831.049C362.543,831.006 362.532,830.973 362.513,830.951C362.485,830.917 362.449,830.9 362.405,830.9C362.364,830.9 362.33,830.914 362.303,830.941C362.275,830.968 362.26,831.004 362.257,831.049Z" style="fill-rule:nonzero;"/>
            <path d="M363.363,831.294C363.331,831.322 363.299,831.342 363.269,831.353C363.239,831.364 363.207,831.37 363.172,831.37C363.115,831.37 363.071,831.356 363.041,831.328C363.01,831.3 362.995,831.265 362.995,831.222C362.995,831.196 363.001,831.173 363.012,831.152C363.024,831.131 363.039,831.114 363.058,831.101C363.076,831.089 363.097,831.079 363.121,831.073C363.138,831.068 363.164,831.064 363.199,831.059C363.27,831.051 363.322,831.041 363.356,831.029C363.356,831.017 363.356,831.01 363.356,831.006C363.356,830.97 363.348,830.945 363.331,830.931C363.309,830.911 363.276,830.901 363.231,830.901C363.19,830.901 363.159,830.908 363.14,830.923C363.12,830.937 363.105,830.963 363.096,830.999L363.01,830.988C363.018,830.951 363.031,830.921 363.049,830.899C363.067,830.876 363.092,830.859 363.126,830.846C363.16,830.834 363.199,830.828 363.244,830.828C363.288,830.828 363.324,830.833 363.352,830.844C363.38,830.854 363.4,830.867 363.413,830.883C363.426,830.899 363.435,830.919 363.44,830.943C363.443,830.958 363.445,830.985 363.445,831.024L363.445,831.141C363.445,831.223 363.446,831.274 363.45,831.296C363.454,831.318 363.461,831.338 363.472,831.358L363.381,831.358C363.372,831.34 363.366,831.319 363.363,831.294ZM363.356,831.098C363.324,831.111 363.276,831.122 363.212,831.131C363.176,831.136 363.151,831.142 363.136,831.149C363.121,831.155 363.109,831.165 363.101,831.177C363.093,831.19 363.089,831.204 363.089,831.219C363.089,831.243 363.098,831.262 363.115,831.278C363.133,831.293 363.159,831.301 363.193,831.301C363.227,831.301 363.257,831.294 363.283,831.279C363.31,831.264 363.329,831.244 363.342,831.218C363.351,831.198 363.356,831.169 363.356,831.13L363.356,831.098Z" style="fill-rule:nonzero;"/>
            <path d="M363.921,831.358L363.921,831.282C363.88,831.341 363.825,831.37 363.756,831.37C363.726,831.37 363.697,831.364 363.67,831.352C363.644,831.341 363.624,831.326 363.611,831.308C363.599,831.291 363.589,831.269 363.584,831.243C363.581,831.226 363.579,831.198 363.579,831.161L363.579,830.84L363.667,830.84L363.667,831.127C363.667,831.173 363.669,831.204 363.672,831.22C363.678,831.243 363.689,831.261 363.707,831.275C363.725,831.288 363.747,831.294 363.774,831.294C363.8,831.294 363.825,831.288 363.848,831.274C363.871,831.261 363.887,831.242 363.897,831.219C363.907,831.196 363.911,831.162 363.911,831.118L363.911,830.84L363.999,830.84L363.999,831.358L363.921,831.358Z" style="fill-rule:nonzero;"/>
            <path d="M364.102,831.204L364.189,831.19C364.194,831.225 364.207,831.251 364.23,831.27C364.252,831.288 364.283,831.298 364.323,831.298C364.363,831.298 364.393,831.29 364.413,831.273C364.432,831.257 364.442,831.237 364.442,831.215C364.442,831.195 364.434,831.18 364.416,831.168C364.404,831.161 364.374,831.151 364.326,831.139C364.262,831.122 364.217,831.108 364.192,831.096C364.168,831.084 364.149,831.068 364.136,831.047C364.123,831.026 364.116,831.003 364.116,830.977C364.116,830.954 364.122,830.933 364.132,830.913C364.143,830.894 364.157,830.877 364.176,830.864C364.189,830.854 364.208,830.846 364.231,830.839C364.255,830.832 364.28,830.828 364.307,830.828C364.348,830.828 364.384,830.834 364.415,830.846C364.445,830.857 364.468,830.873 364.483,830.893C364.497,830.913 364.507,830.94 364.513,830.974L364.427,830.985C364.423,830.959 364.412,830.938 364.393,830.923C364.374,830.908 364.348,830.9 364.314,830.9C364.273,830.9 364.245,830.907 364.227,830.92C364.21,830.934 364.201,830.949 364.201,830.967C364.201,830.979 364.205,830.989 364.212,830.998C364.219,831.007 364.231,831.015 364.246,831.021C364.255,831.025 364.281,831.032 364.324,831.044C364.386,831.06 364.429,831.074 364.454,831.085C364.478,831.095 364.498,831.111 364.512,831.131C364.526,831.151 364.533,831.176 364.533,831.206C364.533,831.235 364.524,831.263 364.507,831.289C364.49,831.315 364.465,831.335 364.433,831.349C364.401,831.363 364.364,831.37 364.324,831.37C364.256,831.37 364.205,831.356 364.169,831.328C364.134,831.3 364.112,831.259 364.102,831.204Z" style="fill-rule:nonzero;"/>
        </g>
        <g transform="matrix(33.438,0,0,33.438,-11064.1,-26122.9)">
            <rect x="360.161" y="830.642" width="0.095" height="0.716" style="fill-rule:nonzero;"/>
            <path d="M360.377,831.204L360.464,831.19C360.469,831.225 360.482,831.251 360.504,831.27C360.527,831.288 360.558,831.298 360.598,831.298C360.638,831.298 360.668,831.29 360.688,831.273C360.707,831.257 360.717,831.237 360.717,831.215C360.717,831.195 360.708,831.18 360.691,831.168C360.679,831.161 360.649,831.151 360.601,831.139C360.537,831.122 360.492,831.108 360.467,831.096C360.442,831.084 360.424,831.068 360.411,831.047C360.398,831.026 360.391,831.003 360.391,830.977C360.391,830.954 360.397,830.933 360.407,830.913C360.418,830.894 360.432,830.877 360.45,830.864C360.464,830.854 360.483,830.846 360.506,830.839C360.53,830.832 360.555,830.828 360.582,830.828C360.623,830.828 360.659,830.834 360.689,830.846C360.72,830.857 360.743,830.873 360.758,830.893C360.772,830.913 360.782,830.94 360.788,830.974L360.702,830.985C360.698,830.959 360.687,830.938 360.668,830.923C360.649,830.908 360.623,830.9 360.589,830.9C360.548,830.9 360.519,830.907 360.502,830.92C360.485,830.934 360.476,830.949 360.476,830.967C360.476,830.979 360.48,830.989 360.487,830.998C360.494,831.007 360.505,831.015 360.521,831.021C360.53,831.025 360.555,831.032 360.598,831.044C360.661,831.06 360.704,831.074 360.729,831.085C360.753,831.095 360.772,831.111 360.786,831.131C360.8,831.151 360.807,831.176 360.807,831.206C360.807,831.235 360.799,831.263 360.782,831.289C360.765,831.315 360.74,831.335 360.708,831.349C360.676,831.363 360.639,831.37 360.598,831.37C360.531,831.37 360.48,831.356 360.444,831.328C360.409,831.3 360.387,831.259 360.377,831.204Z" style="fill-rule:nonzero;"/>
            <path d="M361.104,831.28L361.116,831.357C361.092,831.363 361.07,831.365 361.05,831.365C361.018,831.365 360.993,831.36 360.976,831.35C360.958,831.34 360.946,831.327 360.939,831.31C360.932,831.294 360.928,831.259 360.928,831.206L360.928,830.908L360.864,830.908L360.864,830.84L360.928,830.84L360.928,830.711L361.015,830.659L361.015,830.84L361.104,830.84L361.104,830.908L361.015,830.908L361.015,831.211C361.015,831.236 361.017,831.253 361.02,831.26C361.023,831.267 361.028,831.273 361.035,831.277C361.042,831.281 361.052,831.283 361.065,831.283C361.075,831.283 361.088,831.282 361.104,831.28Z" style="fill-rule:nonzero;"/>
            <path d="M363.855,831.182C363.854,831.17 363.854,831.162 363.854,831.156C363.854,831.121 363.859,831.091 363.869,831.066C363.876,831.047 363.888,831.028 363.904,831.009C363.915,830.995 363.936,830.975 363.967,830.948C363.997,830.921 364.017,830.9 364.026,830.884C364.035,830.868 364.04,830.85 364.04,830.831C364.04,830.797 364.026,830.767 364,830.741C363.973,830.715 363.94,830.703 363.902,830.703C363.864,830.703 363.833,830.714 363.808,830.738C363.783,830.761 363.766,830.798 363.759,830.848L363.668,830.837C363.676,830.77 363.701,830.719 363.741,830.683C363.781,830.648 363.834,830.63 363.9,830.63C363.97,830.63 364.026,830.649 364.068,830.687C364.109,830.725 364.13,830.772 364.13,830.826C364.13,830.857 364.123,830.886 364.108,830.912C364.094,830.938 364.065,830.97 364.022,831.008C363.994,831.034 363.975,831.052 363.966,831.064C363.957,831.076 363.951,831.09 363.947,831.106C363.942,831.121 363.94,831.147 363.939,831.182L363.855,831.182ZM363.849,831.358L363.849,831.258L363.949,831.258L363.949,831.358L363.849,831.358Z" style="fill-rule:nonzero;"/>
        </g>
        <g transform="matrix(33.438,0,0,33.438,-11410.3,-25624.1)">
            <path d="M362.149,831.358L362.149,830.642L362.244,830.642L362.244,830.936L362.616,830.936L362.616,830.642L362.71,830.642L362.71,831.358L362.616,831.358L362.616,831.021L362.244,831.021L362.244,831.358L362.149,831.358Z" style="fill-rule:nonzero;"/>
            <path d="M363.195,831.294C363.163,831.322 363.131,831.342 363.101,831.353C363.071,831.364 363.039,831.37 363.004,831.37C362.947,831.37 362.904,831.356 362.873,831.328C362.842,831.3 362.827,831.265 362.827,831.222C362.827,831.196 362.833,831.173 362.845,831.152C362.856,831.131 362.871,831.114 362.89,831.101C362.909,831.089 362.93,831.079 362.953,831.073C362.97,831.068 362.996,831.064 363.031,831.059C363.102,831.051 363.154,831.041 363.188,831.029C363.188,831.017 363.189,831.01 363.189,831.006C363.189,830.97 363.18,830.945 363.164,830.931C363.141,830.911 363.108,830.901 363.064,830.901C363.022,830.901 362.992,830.908 362.972,830.923C362.952,830.937 362.938,830.963 362.928,830.999L362.842,830.988C362.85,830.951 362.863,830.921 362.881,830.899C362.899,830.876 362.925,830.859 362.959,830.846C362.992,830.834 363.032,830.828 363.076,830.828C363.12,830.828 363.156,830.833 363.184,830.844C363.212,830.854 363.232,830.867 363.245,830.883C363.258,830.899 363.267,830.919 363.272,830.943C363.275,830.958 363.277,830.985 363.277,831.024L363.277,831.141C363.277,831.223 363.279,831.274 363.283,831.296C363.286,831.318 363.294,831.338 363.305,831.358L363.213,831.358C363.204,831.34 363.198,831.319 363.195,831.294ZM363.188,831.098C363.156,831.111 363.108,831.122 363.044,831.131C363.008,831.136 362.983,831.142 362.968,831.149C362.953,831.155 362.941,831.165 362.933,831.177C362.925,831.19 362.921,831.204 362.921,831.219C362.921,831.243 362.93,831.262 362.948,831.278C362.965,831.293 362.991,831.301 363.025,831.301C363.059,831.301 363.089,831.294 363.116,831.279C363.142,831.264 363.161,831.244 363.174,831.218C363.183,831.198 363.188,831.169 363.188,831.13L363.188,831.098Z" style="fill-rule:nonzero;"/>
            <path d="M363.605,831.28L363.618,831.357C363.593,831.363 363.571,831.365 363.551,831.365C363.519,831.365 363.495,831.36 363.477,831.35C363.46,831.34 363.447,831.327 363.44,831.31C363.433,831.294 363.429,831.259 363.429,831.206L363.429,830.908L363.365,830.908L363.365,830.84L363.429,830.84L363.429,830.711L363.517,830.659L363.517,830.84L363.605,830.84L363.605,830.908L363.517,830.908L363.517,831.211C363.517,831.236 363.518,831.253 363.521,831.26C363.524,831.267 363.529,831.273 363.536,831.277C363.543,831.281 363.553,831.283 363.566,831.283C363.576,831.283 363.589,831.282 363.605,831.28Z" style="fill-rule:nonzero;"/>
            <path d="M359.613,832.391L359.613,831.675L359.882,831.675C359.937,831.675 359.98,831.682 360.013,831.697C360.046,831.711 360.072,831.734 360.091,831.764C360.11,831.794 360.119,831.825 360.119,831.858C360.119,831.889 360.111,831.918 360.094,831.945C360.078,831.972 360.053,831.994 360.019,832.01C360.062,832.023 360.096,832.044 360.119,832.075C360.142,832.106 360.154,832.142 360.154,832.183C360.154,832.217 360.147,832.248 360.133,832.277C360.118,832.306 360.101,832.328 360.08,832.344C360.059,832.359 360.033,832.371 360.002,832.379C359.97,832.387 359.932,832.391 359.886,832.391L359.613,832.391ZM359.708,831.976L359.863,831.976C359.905,831.976 359.935,831.973 359.953,831.968C359.977,831.961 359.995,831.949 360.008,831.932C360.02,831.915 360.026,831.895 360.026,831.87C360.026,831.846 360.02,831.825 360.009,831.807C359.997,831.789 359.981,831.776 359.96,831.77C359.939,831.763 359.903,831.76 359.851,831.76L359.708,831.76L359.708,831.976ZM359.708,832.307L359.886,832.307C359.917,832.307 359.938,832.305 359.951,832.303C359.973,832.299 359.991,832.293 360.005,832.284C360.02,832.274 360.032,832.261 360.042,832.244C360.051,832.226 360.056,832.206 360.056,832.183C360.056,832.157 360.049,832.134 360.035,832.114C360.022,832.094 360.003,832.08 359.978,832.072C359.954,832.064 359.919,832.06 359.874,832.06L359.708,832.06L359.708,832.307Z" style="fill-rule:nonzero;"/>
            <rect x="360.271" y="831.675" width="0.088" height="0.716" style="fill-rule:nonzero;"/>
            <path d="M360.835,832.391L360.835,832.315C360.795,832.373 360.74,832.403 360.67,832.403C360.64,832.403 360.611,832.397 360.585,832.385C360.558,832.373 360.539,832.359 360.526,832.341C360.513,832.323 360.504,832.301 360.499,832.276C360.495,832.259 360.493,832.231 360.493,832.194L360.493,831.872L360.581,831.872L360.581,832.16C360.581,832.206 360.583,832.237 360.586,832.253C360.592,832.276 360.604,832.294 360.622,832.307C360.64,832.32 360.662,832.327 360.688,832.327C360.714,832.327 360.739,832.32 360.762,832.307C360.785,832.293 360.802,832.275 360.811,832.252C360.821,832.228 360.826,832.195 360.826,832.15L360.826,831.872L360.914,831.872L360.914,832.391L360.835,832.391Z" style="fill-rule:nonzero;"/>
            <path d="M361.051,832.391L361.051,831.872L361.13,831.872L361.13,831.945C361.146,831.92 361.168,831.899 361.195,831.884C361.222,831.868 361.253,831.861 361.287,831.861C361.326,831.861 361.357,831.869 361.382,831.885C361.406,831.901 361.424,831.923 361.434,831.952C361.475,831.891 361.528,831.861 361.594,831.861C361.645,831.861 361.685,831.875 361.712,831.903C361.74,831.932 361.754,831.976 361.754,832.035L361.754,832.391L361.667,832.391L361.667,832.064C361.667,832.029 361.664,832.004 361.658,831.988C361.652,831.973 361.642,831.961 361.627,831.951C361.612,831.942 361.594,831.937 361.574,831.937C361.538,831.937 361.508,831.949 361.483,831.973C361.459,831.998 361.447,832.036 361.447,832.09L361.447,832.391L361.359,832.391L361.359,832.054C361.359,832.015 361.352,831.986 361.338,831.966C361.324,831.947 361.3,831.937 361.268,831.937C361.243,831.937 361.22,831.943 361.199,831.956C361.178,831.969 361.163,831.989 361.153,832.014C361.144,832.039 361.139,832.075 361.139,832.122L361.139,832.391L361.051,832.391Z" style="fill-rule:nonzero;"/>
            <path d="M362.239,832.224L362.33,832.235C362.316,832.288 362.289,832.329 362.251,832.359C362.212,832.388 362.162,832.403 362.102,832.403C362.026,832.403 361.966,832.379 361.922,832.333C361.877,832.286 361.855,832.22 361.855,832.136C361.855,832.049 361.877,831.981 361.922,831.933C361.967,831.885 362.026,831.861 362.097,831.861C362.167,831.861 362.223,831.884 362.267,831.932C362.311,831.979 362.333,832.045 362.333,832.131C362.333,832.136 362.333,832.144 362.333,832.154L361.946,832.154C361.949,832.211 361.965,832.255 361.994,832.285C362.023,832.315 362.059,832.33 362.103,832.33C362.135,832.33 362.162,832.322 362.185,832.305C362.208,832.288 362.226,832.261 362.239,832.224ZM361.951,832.082L362.24,832.082C362.236,832.038 362.225,832.006 362.207,831.984C362.179,831.95 362.143,831.933 362.098,831.933C362.058,831.933 362.024,831.947 361.996,831.974C361.969,832.001 361.954,832.037 361.951,832.082Z" style="fill-rule:nonzero;"/>
            <path d="M362.44,832.391L362.44,831.872L362.52,831.872L362.52,831.946C362.558,831.889 362.613,831.861 362.685,831.861C362.716,831.861 362.745,831.866 362.771,831.878C362.797,831.889 362.817,831.904 362.83,831.922C362.843,831.94 362.852,831.962 362.857,831.987C362.86,832.003 362.862,832.031 362.862,832.072L362.862,832.391L362.774,832.391L362.774,832.076C362.774,832.04 362.771,832.013 362.764,831.995C362.757,831.978 362.745,831.963 362.727,831.953C362.71,831.942 362.689,831.937 362.666,831.937C362.629,831.937 362.596,831.949 362.569,831.973C362.542,831.996 362.528,832.041 362.528,832.108L362.528,832.391L362.44,832.391Z" style="fill-rule:nonzero;"/>
            <path d="M362.961,832.236L363.048,832.223C363.053,832.257 363.067,832.284 363.089,832.303C363.111,832.321 363.143,832.33 363.183,832.33C363.223,832.33 363.253,832.322 363.272,832.306C363.292,832.289 363.302,832.27 363.302,832.248C363.302,832.228 363.293,832.212 363.276,832.201C363.264,832.193 363.234,832.183 363.186,832.171C363.122,832.155 363.077,832.141 363.052,832.129C363.027,832.117 363.008,832.101 362.995,832.08C362.983,832.059 362.976,832.036 362.976,832.01C362.976,831.987 362.981,831.966 362.992,831.946C363.003,831.926 363.017,831.91 363.035,831.897C363.049,831.887 363.067,831.878 363.091,831.871C363.115,831.864 363.14,831.861 363.167,831.861C363.208,831.861 363.243,831.867 363.274,831.878C363.305,831.89 363.328,831.906 363.342,831.926C363.357,831.946 363.367,831.973 363.373,832.006L363.287,832.018C363.283,831.991 363.271,831.97 363.253,831.955C363.234,831.94 363.208,831.933 363.173,831.933C363.133,831.933 363.104,831.94 363.087,831.953C363.07,831.966 363.061,831.982 363.061,832C363.061,832.011 363.065,832.022 363.072,832.031C363.079,832.04 363.09,832.048 363.105,832.054C363.114,832.057 363.14,832.065 363.183,832.077C363.245,832.093 363.289,832.107 363.313,832.117C363.338,832.128 363.357,832.143 363.371,832.163C363.385,832.184 363.392,832.209 363.392,832.239C363.392,832.268 363.384,832.296 363.366,832.321C363.349,832.347 363.325,832.367 363.293,832.381C363.26,832.396 363.224,832.403 363.183,832.403C363.116,832.403 363.064,832.389 363.029,832.361C362.994,832.333 362.971,832.291 362.961,832.236Z" style="fill-rule:nonzero;"/>
            <path d="M363.689,832.312L363.701,832.39C363.676,832.395 363.654,832.398 363.635,832.398C363.603,832.398 363.578,832.393 363.561,832.383C363.543,832.373 363.531,832.359 363.523,832.343C363.516,832.326 363.513,832.292 363.513,832.239L363.513,831.941L363.448,831.941L363.448,831.872L363.513,831.872L363.513,831.744L363.6,831.691L363.6,831.872L363.689,831.872L363.689,831.941L363.6,831.941L363.6,832.244C363.6,832.269 363.602,832.285 363.605,832.292C363.608,832.3 363.613,832.305 363.62,832.309C363.627,832.314 363.637,832.316 363.65,832.316C363.66,832.316 363.673,832.315 363.689,832.312Z" style="fill-rule:nonzero;"/>
            <path d="M363.773,832.391L363.773,831.872L363.853,831.872L363.853,831.951C363.873,831.914 363.891,831.89 363.908,831.878C363.926,831.867 363.944,831.861 363.965,831.861C363.994,831.861 364.025,831.87 364.055,831.889L364.025,831.971C364.003,831.958 363.982,831.952 363.96,831.952C363.941,831.952 363.924,831.957 363.909,831.969C363.893,831.98 363.883,831.996 363.876,832.017C363.866,832.048 363.861,832.082 363.861,832.12L363.861,832.391L363.773,832.391Z" style="fill-rule:nonzero;"/>
            <path d="M364.446,832.327C364.413,832.355 364.382,832.374 364.352,832.386C364.322,832.397 364.289,832.403 364.255,832.403C364.198,832.403 364.154,832.389 364.124,832.361C364.093,832.333 364.078,832.298 364.078,832.254C364.078,832.229 364.083,832.206 364.095,832.185C364.107,832.164 364.122,832.147 364.14,832.134C364.159,832.121 364.18,832.112 364.204,832.105C364.221,832.101 364.247,832.096 364.282,832.092C364.353,832.084 364.405,832.074 364.439,832.062C364.439,832.05 364.439,832.042 364.439,832.039C364.439,832.003 364.431,831.978 364.414,831.963C364.392,831.943 364.358,831.933 364.314,831.933C364.273,831.933 364.242,831.941 364.222,831.955C364.203,831.97 364.188,831.995 364.179,832.032L364.093,832.02C364.101,831.984 364.113,831.954 364.131,831.931C364.149,831.909 364.175,831.891 364.209,831.879C364.243,831.867 364.282,831.861 364.327,831.861C364.371,831.861 364.407,831.866 364.435,831.876C364.462,831.887 364.483,831.9 364.496,831.916C364.509,831.931 364.518,831.951 364.523,831.975C364.526,831.99 364.527,832.017 364.527,832.057L364.527,832.174C364.527,832.255 364.529,832.307 364.533,832.329C364.537,832.35 364.544,832.371 364.555,832.391L364.463,832.391C364.454,832.373 364.448,832.351 364.446,832.327ZM364.439,832.131C364.407,832.144 364.359,832.155 364.295,832.164C364.259,832.169 364.233,832.175 364.218,832.182C364.203,832.188 364.192,832.198 364.184,832.21C364.175,832.223 364.171,832.237 364.171,832.252C364.171,832.275 364.18,832.295 364.198,832.31C364.216,832.326 364.242,832.334 364.276,832.334C364.31,832.334 364.34,832.326 364.366,832.312C364.393,832.297 364.412,832.277 364.424,832.251C364.434,832.231 364.439,832.202 364.439,832.163L364.439,832.131Z" style="fill-rule:nonzero;"/>
            <path d="M365.003,832.391L365.003,832.315C364.963,832.373 364.908,832.403 364.839,832.403C364.808,832.403 364.78,832.397 364.753,832.385C364.727,832.373 364.707,832.359 364.694,832.341C364.681,832.323 364.672,832.301 364.667,832.276C364.663,832.259 364.662,832.231 364.662,832.194L364.662,831.872L364.75,831.872L364.75,832.16C364.75,832.206 364.751,832.237 364.755,832.253C364.76,832.276 364.772,832.294 364.79,832.307C364.808,832.32 364.83,832.327 364.856,832.327C364.883,832.327 364.908,832.32 364.931,832.307C364.954,832.293 364.97,832.275 364.98,832.252C364.989,832.228 364.994,832.195 364.994,832.15L364.994,831.872L365.082,831.872L365.082,832.391L365.003,832.391Z" style="fill-rule:nonzero;"/>
            <path d="M365.185,832.236L365.272,832.223C365.276,832.257 365.29,832.284 365.312,832.303C365.335,832.321 365.366,832.33 365.406,832.33C365.446,832.33 365.476,832.322 365.496,832.306C365.515,832.289 365.525,832.27 365.525,832.248C365.525,832.228 365.516,832.212 365.499,832.201C365.487,832.193 365.457,832.183 365.409,832.171C365.345,832.155 365.3,832.141 365.275,832.129C365.25,832.117 365.231,832.101 365.219,832.08C365.206,832.059 365.199,832.036 365.199,832.01C365.199,831.987 365.205,831.966 365.215,831.946C365.226,831.926 365.24,831.91 365.258,831.897C365.272,831.887 365.291,831.878 365.314,831.871C365.338,831.864 365.363,831.861 365.39,831.861C365.431,831.861 365.467,831.867 365.497,831.878C365.528,831.89 365.551,831.906 365.565,831.926C365.58,831.946 365.59,831.973 365.596,832.006L365.51,832.018C365.506,831.991 365.495,831.97 365.476,831.955C365.457,831.94 365.431,831.933 365.397,831.933C365.356,831.933 365.327,831.94 365.31,831.953C365.293,831.966 365.284,831.982 365.284,832C365.284,832.011 365.288,832.022 365.295,832.031C365.302,832.04 365.313,832.048 365.329,832.054C365.337,832.057 365.363,832.065 365.406,832.077C365.468,832.093 365.512,832.107 365.536,832.117C365.561,832.128 365.58,832.143 365.594,832.163C365.608,832.184 365.615,832.209 365.615,832.239C365.615,832.268 365.607,832.296 365.59,832.321C365.573,832.347 365.548,832.367 365.516,832.381C365.483,832.396 365.447,832.403 365.406,832.403C365.339,832.403 365.288,832.389 365.252,832.361C365.217,832.333 365.194,832.291 365.185,832.236Z" style="fill-rule:nonzero;"/>
            <path d="M365.685,832.236L365.772,832.223C365.776,832.257 365.79,832.284 365.812,832.303C365.835,832.321 365.866,832.33 365.906,832.33C365.946,832.33 365.976,832.322 365.996,832.306C366.015,832.289 366.025,832.27 366.025,832.248C366.025,832.228 366.016,832.212 365.999,832.201C365.987,832.193 365.957,832.183 365.909,832.171C365.845,832.155 365.8,832.141 365.775,832.129C365.75,832.117 365.731,832.101 365.719,832.08C365.706,832.059 365.699,832.036 365.699,832.01C365.699,831.987 365.705,831.966 365.715,831.946C365.726,831.926 365.74,831.91 365.758,831.897C365.772,831.887 365.791,831.878 365.814,831.871C365.838,831.864 365.863,831.861 365.89,831.861C365.931,831.861 365.967,831.867 365.997,831.878C366.028,831.89 366.051,831.906 366.065,831.926C366.08,831.946 366.09,831.973 366.096,832.006L366.01,832.018C366.006,831.991 365.995,831.97 365.976,831.955C365.957,831.94 365.931,831.933 365.897,831.933C365.856,831.933 365.827,831.94 365.81,831.953C365.793,831.966 365.784,831.982 365.784,832C365.784,832.011 365.788,832.022 365.795,832.031C365.802,832.04 365.813,832.048 365.829,832.054C365.837,832.057 365.863,832.065 365.906,832.077C365.968,832.093 366.012,832.107 366.036,832.117C366.061,832.128 366.08,832.143 366.094,832.163C366.108,832.184 366.115,832.209 366.115,832.239C366.115,832.268 366.107,832.296 366.09,832.321C366.073,832.347 366.048,832.367 366.016,832.381C365.983,832.396 365.947,832.403 365.906,832.403C365.839,832.403 365.788,832.389 365.752,832.361C365.717,832.333 365.694,832.291 365.685,832.236Z" style="fill-rule:nonzero;"/>
            <path d="M361.456,833.424L361.456,833.252L361.145,833.252L361.145,833.172L361.472,832.708L361.544,832.708L361.544,833.172L361.64,833.172L361.64,833.252L361.544,833.252L361.544,833.424L361.456,833.424ZM361.456,833.172L361.456,832.849L361.232,833.172L361.456,833.172Z" style="fill-rule:nonzero;"/>
            <path d="M362.208,833.424L362.208,832.792L361.972,832.792L361.972,832.708L362.539,832.708L362.539,832.792L362.303,832.792L362.303,833.424L362.208,833.424Z" style="fill-rule:nonzero;"/>
            <path d="M362.869,833.257L362.96,833.268C362.946,833.321 362.919,833.362 362.881,833.392C362.842,833.421 362.792,833.435 362.732,833.435C362.656,833.435 362.596,833.412 362.552,833.365C362.507,833.319 362.485,833.253 362.485,833.169C362.485,833.082 362.508,833.014 362.553,832.966C362.597,832.918 362.656,832.893 362.727,832.893C362.797,832.893 362.853,832.917 362.897,832.964C362.941,833.011 362.963,833.078 362.963,833.163C362.963,833.169 362.963,833.176 362.963,833.187L362.576,833.187C362.579,833.244 362.595,833.287 362.624,833.318C362.653,833.348 362.689,833.363 362.733,833.363C362.765,833.363 362.792,833.355 362.815,833.338C362.838,833.321 362.856,833.294 362.869,833.257ZM362.581,833.115L362.87,833.115C362.866,833.071 362.855,833.038 362.837,833.017C362.809,832.983 362.773,832.966 362.728,832.966C362.688,832.966 362.654,832.979 362.626,833.006C362.599,833.033 362.584,833.069 362.581,833.115Z" style="fill-rule:nonzero;"/>
            <path d="M363.071,832.809L363.071,832.708L363.159,832.708L363.159,832.809L363.071,832.809ZM363.071,833.424L363.071,832.905L363.159,832.905L363.159,833.424L363.071,833.424Z" style="fill-rule:nonzero;"/>
            <rect x="363.291" y="832.708" width="0.088" height="0.716" style="fill-rule:nonzero;"/>
            <path d="M363.87,833.257L363.961,833.268C363.946,833.321 363.92,833.362 363.881,833.392C363.842,833.421 363.793,833.435 363.733,833.435C363.657,833.435 363.597,833.412 363.552,833.365C363.508,833.319 363.486,833.253 363.486,833.169C363.486,833.082 363.508,833.014 363.553,832.966C363.598,832.918 363.656,832.893 363.728,832.893C363.797,832.893 363.854,832.917 363.898,832.964C363.942,833.011 363.964,833.078 363.964,833.163C363.964,833.169 363.963,833.176 363.963,833.187L363.576,833.187C363.58,833.244 363.596,833.287 363.625,833.318C363.654,833.348 363.69,833.363 363.733,833.363C363.765,833.363 363.793,833.355 363.816,833.338C363.838,833.321 363.857,833.294 363.87,833.257ZM363.581,833.115L363.871,833.115C363.867,833.071 363.856,833.038 363.838,833.017C363.81,832.983 363.773,832.966 363.729,832.966C363.688,832.966 363.654,832.979 363.627,833.006C363.599,833.033 363.584,833.069 363.581,833.115Z" style="fill-rule:nonzero;"/>
            <path d="M364.236,833.247C364.235,833.236 364.235,833.227 364.235,833.221C364.235,833.187 364.24,833.157 364.25,833.132C364.257,833.113 364.269,833.094 364.284,833.075C364.296,833.061 364.317,833.04 364.348,833.013C364.378,832.986 364.398,832.965 364.407,832.949C364.416,832.933 364.421,832.916 364.421,832.897C364.421,832.863 364.407,832.833 364.381,832.807C364.354,832.781 364.321,832.768 364.283,832.768C364.245,832.768 364.214,832.78 364.189,832.803C364.164,832.827 364.147,832.863 364.139,832.913L364.049,832.902C364.057,832.836 364.081,832.784 364.122,832.749C364.162,832.713 364.215,832.696 364.281,832.696C364.351,832.696 364.407,832.715 364.449,832.753C364.49,832.791 364.511,832.837 364.511,832.891C364.511,832.922 364.504,832.951 364.489,832.977C364.474,833.004 364.446,833.036 364.403,833.074C364.374,833.099 364.356,833.118 364.347,833.13C364.338,833.142 364.332,833.156 364.327,833.171C364.323,833.187 364.321,833.212 364.32,833.247L364.236,833.247ZM364.23,833.424L364.23,833.324L364.33,833.324L364.33,833.424L364.23,833.424Z" style="fill-rule:nonzero;"/>
        </g>
        <g transform="matrix(33.438,0,0,33.438,-10804.4,-26003.1)">
            <path d="M360.23,831.358L360.071,830.84L360.162,830.84L360.244,831.139L360.275,831.25C360.276,831.245 360.285,831.209 360.302,831.143L360.385,830.84L360.475,830.84L360.553,831.141L360.578,831.24L360.608,831.14L360.697,830.84L360.783,830.84L360.62,831.358L360.529,831.358L360.447,831.048L360.427,830.959L360.322,831.358L360.23,831.358Z" style="fill-rule:nonzero;"/>
            <path d="M361.195,831.294C361.162,831.322 361.131,831.342 361.101,831.353C361.071,831.364 361.038,831.37 361.004,831.37C360.947,831.37 360.903,831.356 360.872,831.328C360.842,831.3 360.826,831.265 360.826,831.222C360.826,831.196 360.832,831.173 360.844,831.152C360.855,831.131 360.87,831.114 360.889,831.101C360.908,831.089 360.929,831.079 360.952,831.073C360.97,831.068 360.996,831.064 361.031,831.059C361.102,831.051 361.154,831.041 361.187,831.029C361.188,831.017 361.188,831.01 361.188,831.006C361.188,830.97 361.179,830.945 361.163,830.931C361.14,830.911 361.107,830.901 361.063,830.901C361.021,830.901 360.991,830.908 360.971,830.923C360.952,830.937 360.937,830.963 360.928,830.999L360.842,830.988C360.849,830.951 360.862,830.921 360.88,830.899C360.898,830.876 360.924,830.859 360.958,830.846C360.992,830.834 361.031,830.828 361.075,830.828C361.12,830.828 361.156,830.833 361.183,830.844C361.211,830.854 361.231,830.867 361.244,830.883C361.257,830.899 361.267,830.919 361.272,830.943C361.275,830.958 361.276,830.985 361.276,831.024L361.276,831.141C361.276,831.223 361.278,831.274 361.282,831.296C361.286,831.318 361.293,831.338 361.304,831.358L361.212,831.358C361.203,831.34 361.197,831.319 361.195,831.294ZM361.187,831.098C361.155,831.111 361.108,831.122 361.044,831.131C361.008,831.136 360.982,831.142 360.967,831.149C360.952,831.155 360.941,831.165 360.932,831.177C360.924,831.19 360.92,831.204 360.92,831.219C360.92,831.243 360.929,831.262 360.947,831.278C360.965,831.293 360.991,831.301 361.025,831.301C361.059,831.301 361.089,831.294 361.115,831.279C361.141,831.264 361.161,831.244 361.173,831.218C361.183,831.198 361.187,831.169 361.187,831.13L361.187,831.098ZM360.928,830.738L360.928,830.638L361.02,830.638L361.02,830.738L360.928,830.738ZM361.111,830.738L361.111,830.638L361.202,830.638L361.202,830.738L361.111,830.738Z" style="fill-rule:nonzero;"/>
            <path d="M361.412,831.358L361.412,830.642L361.5,830.642L361.5,830.899C361.541,830.852 361.593,830.828 361.656,830.828C361.694,830.828 361.727,830.836 361.756,830.851C361.784,830.866 361.804,830.887 361.816,830.913C361.829,830.94 361.835,830.979 361.835,831.03L361.835,831.358L361.747,831.358L361.747,831.03C361.747,830.986 361.737,830.954 361.718,830.934C361.699,830.914 361.672,830.904 361.637,830.904C361.611,830.904 361.587,830.91 361.564,830.924C361.541,830.937 361.525,830.956 361.515,830.979C361.505,831.002 361.5,831.034 361.5,831.075L361.5,831.358L361.412,831.358Z" style="fill-rule:nonzero;"/>
            <rect x="361.967" y="830.642" width="0.088" height="0.716" style="fill-rule:nonzero;"/>
            <path d="M362.546,831.191L362.637,831.203C362.622,831.256 362.596,831.297 362.557,831.326C362.518,831.355 362.469,831.37 362.408,831.37C362.333,831.37 362.272,831.347 362.228,831.3C362.184,831.253 362.161,831.188 362.161,831.103C362.161,831.016 362.184,830.948 362.229,830.9C362.274,830.852 362.332,830.828 362.404,830.828C362.473,830.828 362.53,830.852 362.574,830.899C362.617,830.946 362.639,831.012 362.639,831.098C362.639,831.103 362.639,831.111 362.639,831.121L362.252,831.121C362.255,831.178 362.272,831.222 362.301,831.252C362.33,831.283 362.366,831.298 362.409,831.298C362.441,831.298 362.469,831.289 362.491,831.272C362.514,831.255 362.532,831.228 362.546,831.191ZM362.257,831.049L362.547,831.049C362.543,831.006 362.532,830.973 362.513,830.951C362.485,830.917 362.449,830.9 362.405,830.9C362.364,830.9 362.33,830.914 362.303,830.941C362.275,830.968 362.26,831.004 362.257,831.049Z" style="fill-rule:nonzero;"/>
            <path d="M360.472,832.327C360.44,832.355 360.409,832.374 360.378,832.386C360.348,832.397 360.316,832.403 360.282,832.403C360.225,832.403 360.181,832.389 360.15,832.361C360.12,832.333 360.104,832.298 360.104,832.254C360.104,832.229 360.11,832.206 360.122,832.185C360.133,832.164 360.148,832.147 360.167,832.134C360.186,832.121 360.207,832.112 360.23,832.105C360.248,832.101 360.274,832.096 360.308,832.092C360.379,832.084 360.432,832.074 360.465,832.062C360.465,832.05 360.466,832.042 360.466,832.039C360.466,832.003 360.457,831.978 360.441,831.963C360.418,831.943 360.385,831.933 360.341,831.933C360.299,831.933 360.269,831.941 360.249,831.955C360.229,831.97 360.215,831.995 360.205,832.032L360.119,832.02C360.127,831.984 360.14,831.954 360.158,831.931C360.176,831.909 360.202,831.891 360.236,831.879C360.269,831.867 360.309,831.861 360.353,831.861C360.398,831.861 360.434,831.866 360.461,831.876C360.489,831.887 360.509,831.9 360.522,831.916C360.535,831.931 360.544,831.951 360.55,831.975C360.553,831.99 360.554,832.017 360.554,832.057L360.554,832.174C360.554,832.255 360.556,832.307 360.56,832.329C360.563,832.35 360.571,832.371 360.582,832.391L360.49,832.391C360.481,832.373 360.475,832.351 360.472,832.327ZM360.465,832.131C360.433,832.144 360.385,832.155 360.322,832.164C360.285,832.169 360.26,832.175 360.245,832.182C360.23,832.188 360.218,832.198 360.21,832.21C360.202,832.223 360.198,832.237 360.198,832.252C360.198,832.275 360.207,832.295 360.225,832.31C360.242,832.326 360.268,832.334 360.303,832.334C360.336,832.334 360.366,832.326 360.393,832.312C360.419,832.297 360.439,832.277 360.451,832.251C360.46,832.231 360.465,832.202 360.465,832.163L360.465,832.131Z" style="fill-rule:nonzero;"/>
            <path d="M361.03,832.391L361.03,832.315C360.99,832.373 360.935,832.403 360.866,832.403C360.835,832.403 360.806,832.397 360.78,832.385C360.753,832.373 360.734,832.359 360.721,832.341C360.708,832.323 360.699,832.301 360.694,832.276C360.69,832.259 360.688,832.231 360.688,832.194L360.688,831.872L360.776,831.872L360.776,832.16C360.776,832.206 360.778,832.237 360.782,832.253C360.787,832.276 360.799,832.294 360.817,832.307C360.835,832.32 360.857,832.327 360.883,832.327C360.909,832.327 360.934,832.32 360.957,832.307C360.98,832.293 360.997,832.275 361.006,832.252C361.016,832.228 361.021,832.195 361.021,832.15L361.021,831.872L361.109,831.872L361.109,832.391L361.03,832.391Z" style="fill-rule:nonzero;"/>
            <path d="M361.211,832.236L361.298,832.223C361.303,832.257 361.317,832.284 361.339,832.303C361.361,832.321 361.392,832.33 361.432,832.33C361.473,832.33 361.503,832.322 361.522,832.306C361.542,832.289 361.552,832.27 361.552,832.248C361.552,832.228 361.543,832.212 361.526,832.201C361.514,832.193 361.484,832.183 361.436,832.171C361.371,832.155 361.327,832.141 361.302,832.129C361.277,832.117 361.258,832.101 361.245,832.08C361.232,832.059 361.226,832.036 361.226,832.01C361.226,831.987 361.231,831.966 361.242,831.946C361.252,831.926 361.267,831.91 361.285,831.897C361.299,831.887 361.317,831.878 361.341,831.871C361.364,831.864 361.39,831.861 361.417,831.861C361.457,831.861 361.493,831.867 361.524,831.878C361.555,831.89 361.577,831.906 361.592,831.926C361.607,831.946 361.617,831.973 361.622,832.006L361.536,832.018C361.533,831.991 361.521,831.97 361.502,831.955C361.484,831.94 361.457,831.933 361.423,831.933C361.383,831.933 361.354,831.94 361.337,831.953C361.319,831.966 361.311,831.982 361.311,832C361.311,832.011 361.314,832.022 361.322,832.031C361.329,832.04 361.34,832.048 361.355,832.054C361.364,832.057 361.39,832.065 361.433,832.077C361.495,832.093 361.538,832.107 361.563,832.117C361.588,832.128 361.607,832.143 361.621,832.163C361.635,832.184 361.642,832.209 361.642,832.239C361.642,832.268 361.633,832.296 361.616,832.321C361.599,832.347 361.574,832.367 361.542,832.381C361.51,832.396 361.474,832.403 361.433,832.403C361.366,832.403 361.314,832.389 361.279,832.361C361.244,832.333 361.221,832.291 361.211,832.236Z" style="fill-rule:nonzero;"/>
        </g>
        <g id="_15" serif:id="1" transform="matrix(1.30006,0,0,1.28452,627.04,1777.51)">
            <path d="M113.338,107.234L119.663,158.463C120.283,163.335 122.881,165.96 126.836,167.186C140.396,171.362 159.579,171.52 169.845,162.914C171.237,161.695 172.119,160.007 172.298,157.423C173.332,140.879 174.001,123.157 175.131,106.559C175.69,110.417 123.314,116.25 113.383,107.6L113.338,107.234Z" style="fill:rgb(0,253,255);stroke:black;stroke-width:0.77px;stroke-linecap:butt;stroke-miterlimit:2;"/>
        </g>
        <g transform="matrix(0.650029,0,0,0.650029,475.852,1581.94)">
            <path d="M489.394,556.822C491.995,563.406 493.636,611.505 493.955,616.333C494.093,618.406 494.587,619.55 494.684,619.717C495.982,621.939 498.192,623.6 501.165,624.517C504.442,625.527 508.816,625.621 513.432,624.825C519.929,623.705 526.916,620.861 531.71,617.045C535.533,614.003 537.987,610.296 538.496,606.415C539.702,597.221 537.64,590.723 534.075,586.094C530.79,581.829 526.123,579.106 521.073,577.484C523.903,576.265 526.594,574.865 528.88,573.279C534.258,569.546 537.471,564.741 537.119,559.237C536.709,552.804 532.647,548.118 526.744,544.965C519.454,541.071 509.231,539.596 502.434,539.102C500.487,538.961 497.939,538.873 496.079,539.463C495.253,539.725 491.424,541.637 489.974,545.426C488.724,548.691 488.754,555.203 489.394,556.822ZM502.482,615.883L502.473,615.769C502.182,611.369 501.706,598.033 501.234,583.958C505.225,583.7 511.542,583.647 517.436,585.302C521.227,586.367 524.874,588.137 527.312,591.303C529.757,594.478 530.859,598.999 530.032,605.305C529.781,607.223 528.283,608.862 526.394,610.366C522.622,613.368 517.093,615.531 511.982,616.412C509.309,616.873 506.753,616.99 504.657,616.597C503.802,616.436 503.011,616.28 502.482,615.883ZM499.868,547.582C500.538,547.577 501.331,547.581 501.815,547.616C507.65,548.041 516.464,549.152 522.722,552.494C525.854,554.167 528.382,556.368 528.6,559.781C528.7,561.345 527.923,562.678 526.8,563.9C525.153,565.693 522.782,567.203 520.147,568.531C513.774,571.743 505.891,573.784 500.931,574.874C500.629,565.822 500.346,557.192 500.13,551.196C500.095,550.227 499.967,548.681 499.868,547.582Z" style="fill:rgb(22,164,165);"/>
        </g>
        <g transform="matrix(0.650029,0,0,0.650029,670.408,1590.97)">
            <path d="M283.555,499.51C286.327,505.095 169.46,517.048 158.44,499.51" style="fill:none;stroke:black;stroke-width:3.75px;"/>
        </g>
        <g transform="matrix(1.30006,0,0,1.30006,627.04,1775.85)">
            <path d="M161.694,149.54C161.122,153.109 159.193,160.255 161.35,162.921C162.376,164.21 166.917,159.69 167.275,159.249C167.826,158.573 167.819,156.231 168.109,155.128C169.907,148.438 172.236,126.334 170.369,119.368C170.011,118.052 171.175,113.752 170.486,112.898C169.57,111.754 166.338,113.18 165.856,113.855C164.292,125.245 163.644,137.517 161.701,149.533L161.694,149.54Z" style="fill:rgb(58,221,222);"/>
        </g>
        <g transform="matrix(1.30006,0,0,1.30006,627.04,1775.85)">
            <path d="M173.718,109.776C173.173,112.96 173.352,115.599 169.239,119.795C165.043,124.067 158.022,131.164 151.662,133.982C145.164,136.855 140.279,138.468 128.917,138.178C123.481,138.04 118.368,133.631 115.357,128.201C112.511,123.068 111.595,117.108 113.752,113.194L113.565,111.713C113.476,111.754 113.4,111.816 113.331,111.912C110.293,116.315 111.319,123.04 114.454,128.711C117.596,134.375 122.922,139.074 128.889,139.232C140.348,139.515 145.509,137.834 152.055,134.94C158.745,131.991 165.759,124.818 169.955,120.532C174.241,116.171 174.2,113.001 174.724,109.956C174.779,109.625 174.524,109.329 174.193,109.335C173.952,109.342 173.745,109.528 173.711,109.783L173.718,109.776Z" style="fill:rgb(63,63,63);"/>
        </g>
        <g transform="matrix(1.30006,0,0,1.30006,627.04,1775.85)">
            <path d="M174.283,110.052C173.738,113.222 173.917,115.874 169.804,120.071C165.608,124.342 158.587,131.439 152.227,134.258C145.715,137.131 140.844,138.743 129.482,138.454C127.725,138.412 125.989,137.909 124.356,137.083C120.718,135.429 117.507,132.08 115.364,128.208C112.518,123.095 111.602,117.156 113.738,113.242L113.641,112.595C110.926,116.984 111.981,123.495 115.026,128.993C117.142,132.811 120.256,136.187 123.88,138.033C125.465,138.757 127.16,139.191 128.896,139.239C140.355,139.522 145.516,137.841 152.061,134.947C158.752,131.998 165.766,124.825 169.962,120.539C174.248,116.177 174.207,113.008 174.73,109.962C174.751,109.845 174.73,109.728 174.682,109.625C174.469,109.673 174.303,109.838 174.276,110.059L174.283,110.052Z" style="fill:rgb(104,104,104);"/>
        </g>
        <g transform="matrix(1.30006,0,0,1.30006,627.04,1775.85)">
            <path d="M114.647,128.663C117.734,134.361 123.088,138.922 129.055,139.067C140.513,139.356 145.771,137.462 152.323,134.568L152.613,134.32C146.067,137.213 140.699,139.281 129.241,138.998C123.274,138.846 117.948,134.147 114.806,128.477C111.912,123.254 110.823,117.121 113.049,112.753C113.166,112.464 113.696,111.775 113.173,112.298C110.554,116.853 111.588,123.02 114.654,128.656L114.647,128.663Z" style="fill:rgb(197,197,197);"/>
        </g>
        <g transform="matrix(-1,0,0,1,1482.6,1380.69)">
            <g transform="matrix(0.942433,-0.334394,0.334394,0.942433,-193.794,51.0358)">
                <path d="M175.791,436.641C180.177,435.023 179.613,403.76 165.802,407.88C163.712,408.504 161.819,413.05 161.819,414.679C161.819,420.205 169.161,434.671 169.96,435.47C170.438,435.947 170.687,437.36 170.687,437.36C170.687,437.36 170.146,436.092 169.67,435.616C168.651,434.597 161.371,421.952 157.075,417.161C153.381,413.042 147.052,418.535 146.446,421.393C144.849,428.934 155.441,432.433 159.783,436.052C160.697,436.813 165.453,438.904 165.453,439.977C165.453,440.238 164.943,439.831 164.726,439.686C164.229,439.355 163.131,439.202 162.546,439.105C161.066,438.858 143.911,436.028 141.9,444.92C139.507,455.503 154.561,452.766 159.783,450.154C161.091,449.501 162.881,449.103 163.999,448.264C164.278,448.056 165.29,446.793 165.599,447.101C165.716,447.218 165.108,447.401 165.017,447.537C164.674,448.052 164.017,448.462 163.563,448.991C162.388,450.362 161.889,452.195 161.092,453.789C158.115,459.742 155.39,472.537 164.726,474.871C166.182,475.235 166.959,471.887 167.198,471.091C168.647,466.261 170.769,462.439 171.414,457.279C171.683,455.132 171.56,453.16 171.56,451.027C171.56,450.837 171.136,449.269 170.978,449.428C170.601,449.805 172.59,454.167 172.723,455.098C173.356,459.527 176.197,466.089 179.992,468.619C181.114,469.367 184.624,471.201 186.099,470.218C191.755,466.447 187.034,455.888 183.045,451.899C181.979,450.833 180.842,449.703 179.556,448.846C178.815,448.352 177.084,447.828 177.084,447.828C177.084,447.828 179.314,447.925 180.283,448.41C181.999,449.268 184.057,450.117 185.953,450.591C192.098,452.127 205.333,453.008 206.453,444.048C207.203,438.047 197.324,434.964 192.787,436.779C190.092,437.857 187.052,438.717 184.79,440.413C184.004,441.003 183.158,441.654 182.319,442.158C181.871,442.427 180.865,442.74 180.865,442.74C180.865,442.74 182.792,442.121 183.482,441.431C185.117,439.795 187.004,438.567 189.152,437.942C197.839,435.412 205.273,421.181 198.683,417.882C190.259,413.666 178.114,432.365 175.791,436.641Z" style="fill:rgb(255,235,168);"/>
            </g>
            <g transform="matrix(0.784737,-0.278441,0.334394,0.942433,-114.689,65.0555)">
                <ellipse cx="125.147" cy="403.563" rx="10.356" ry="7.616" style="fill:rgb(255,196,0);"/>
            </g>
        </g>
        <g transform="matrix(-1,0,0,1,1176.32,1253.3)">
            <g transform="matrix(0.942433,-0.334394,0.334394,0.942433,-193.794,51.0358)">
                <path d="M175.791,436.641C180.177,435.023 179.613,403.76 165.802,407.88C163.712,408.504 161.819,413.05 161.819,414.679C161.819,420.205 169.161,434.671 169.96,435.47C170.438,435.947 170.687,437.36 170.687,437.36C170.687,437.36 170.146,436.092 169.67,435.616C168.651,434.597 161.371,421.952 157.075,417.161C153.381,413.042 147.052,418.535 146.446,421.393C144.849,428.934 155.441,432.433 159.783,436.052C160.697,436.813 165.453,438.904 165.453,439.977C165.453,440.238 164.943,439.831 164.726,439.686C164.229,439.355 163.131,439.202 162.546,439.105C161.066,438.858 143.911,436.028 141.9,444.92C139.507,455.503 154.561,452.766 159.783,450.154C161.091,449.501 162.881,449.103 163.999,448.264C164.278,448.056 165.29,446.793 165.599,447.101C165.716,447.218 165.108,447.401 165.017,447.537C164.674,448.052 164.017,448.462 163.563,448.991C162.388,450.362 161.889,452.195 161.092,453.789C158.115,459.742 155.39,472.537 164.726,474.871C166.182,475.235 166.959,471.887 167.198,471.091C168.647,466.261 170.769,462.439 171.414,457.279C171.683,455.132 171.56,453.16 171.56,451.027C171.56,450.837 171.136,449.269 170.978,449.428C170.601,449.805 172.59,454.167 172.723,455.098C173.356,459.527 176.197,466.089 179.992,468.619C181.114,469.367 184.624,471.201 186.099,470.218C191.755,466.447 187.034,455.888 183.045,451.899C181.979,450.833 180.842,449.703 179.556,448.846C178.815,448.352 177.084,447.828 177.084,447.828C177.084,447.828 179.314,447.925 180.283,448.41C181.999,449.268 184.057,450.117 185.953,450.591C192.098,452.127 205.333,453.008 206.453,444.048C207.203,438.047 197.324,434.964 192.787,436.779C190.092,437.857 187.052,438.717 184.79,440.413C184.004,441.003 183.158,441.654 182.319,442.158C181.871,442.427 180.865,442.74 180.865,442.74C180.865,442.74 182.792,442.121 183.482,441.431C185.117,439.795 187.004,438.567 189.152,437.942C197.839,435.412 205.273,421.181 198.683,417.882C190.259,413.666 178.114,432.365 175.791,436.641Z" style="fill:rgb(255,235,168);"/>
            </g>
            <g transform="matrix(0.784737,-0.278441,0.334394,0.942433,-114.689,65.0555)">
                <ellipse cx="125.147" cy="403.563" rx="10.356" ry="7.616" style="fill:rgb(255,196,0);"/>
            </g>
        </g>
        <g transform="matrix(1,0,0,1,329.788,81.3766)">
            <circle cx="393.197" cy="1719.92" r="14.178" style="fill:rgb(226,255,235);stroke:black;stroke-width:1.6px;"/>
        </g>
        <g transform="matrix(0.810417,0,0,1,134.378,0)">
            <path d="M547.187,2204.3L391.522,2204.3L393.895,1801.3L708.808,1801.3" style="fill:none;stroke:black;stroke-width:1.76px;"/>
        </g>
        <g transform="matrix(1,0,0,0.850985,0,315.199)">
            <path d="M723.171,1994.46L723.171,2128.18" style="fill:none;stroke:black;stroke-width:1.72px;"/>
        </g>
        <path d="M872.284,2204.3L951.776,2204.3" style="fill:none;stroke:black;stroke-width:1.6px;"/>
    </g>
</svg>
