<?xml version="1.0" encoding="UTF-8" standalone="no"?>
<!-- Created with Inkscape (http://www.inkscape.org/) -->

<svg
   width="106.49759mm"
   height="87.135529mm"
   viewBox="0 0 106.49759 87.135528"
   version="1.1"
   id="svg1307"
   inkscape:version="1.1.1 (3bf5ae0d25, 2021-09-20)"
   sodipodi:docname="2023-DE-02-taskbody.svg"
   xmlns:inkscape="http://www.inkscape.org/namespaces/inkscape"
   xmlns:sodipodi="http://sodipodi.sourceforge.net/DTD/sodipodi-0.dtd"
   xmlns="http://www.w3.org/2000/svg"
   xmlns:svg="http://www.w3.org/2000/svg"
   xmlns:serif="http://www.serif.com/">
  <sodipodi:namedview
     id="namedview1309"
     pagecolor="#ffffff"
     bordercolor="#666666"
     borderopacity="1.0"
     inkscape:pageshadow="2"
     inkscape:pageopacity="0.0"
     inkscape:pagecheckerboard="0"
     inkscape:document-units="mm"
     showgrid="false"
     inkscape:zoom="1.4467452"
     inkscape:cx="46.656453"
     inkscape:cy="207.01641"
     inkscape:window-width="2048"
     inkscape:window-height="1017"
     inkscape:window-x="-8"
     inkscape:window-y="-8"
     inkscape:window-maximized="1"
     inkscape:current-layer="g1500" />
  <defs
     id="defs1304" />
  <g
     inkscape:label="Ebene 1"
     inkscape:groupmode="layer"
     id="layer1"
     transform="translate(-99.485015,49.01239)">
    <g
       id="g1500"
       style="clip-rule:evenodd;fill-rule:evenodd;stroke-linecap:round;stroke-linejoin:round;stroke-miterlimit:1.5"
       transform="matrix(0.26458333,0,0,0.26458333,45.481709,-130.78626)">
      <g
         transform="matrix(1,0,0,0.765757,31.3796,96.5379)"
         id="g20">
        <path
           d="m 545.061,642.137 c 16.676,-7.558 44.729,-61.799 21.092,-70.235 -50.573,-18.051 -123.741,-19.622 -154.313,-1.279 -12.835,7.701 -22.216,34.878 -36.551,40.612 -26.372,10.549 -40.927,4.219 -71.072,19.291 -3.008,1.504 -11.081,1.799 -14.214,1.015 -38.523,-9.63 -78.593,-17.335 -111.685,9.138 -3.125,2.501 -7.002,5.017 -5.076,10.153 8.017,21.379 121.561,63.596 137.067,55.843 40.195,-20.098 78.943,-49.035 126.914,-44.674 24.219,2.202 88.779,-11.225 107.838,-19.864 z"
           style="fill:#fee8de"
           id="path18" />
      </g>
      <g
         id="g35"
         transform="translate(88.8675,-14.4237)">
        <path
           d="m 190.355,621.424 c -0.062,-0.016 -7.991,-2.462 -8.93,-2.908 -3.937,-1.872 -7.204,-4.883 -9.177,-8.792 -1.025,-2.029 -1.713,-4.216 -2.123,-6.449 -0.004,-0.024 -0.311,-1.836 -0.289,-1.847 l 0.036,-0.018 -0.05,-0.01 c -4.223,-30.967 -13.429,-91.205 -14.357,-102.008 -0.094,-1.091 0.842,-1.38 1.496,-1.766 9.378,-5.546 25.168,-6.588 32.609,-7.49 20.839,-2.526 42.179,-3.053 63.115,-1.488 8.437,0.631 17.624,1.248 25.562,4.451 2.272,0.917 5.444,2.456 5.664,5.306 0.047,0.608 0.282,1.619 -0.276,1.824 l -0.592,8.911 -1.157,18.686 -0.538,9.343 -0.358,6.202 -0.179,3.114 -3.552,58.226 c -1.122,2.486 -0.263,3.378 -8.182,9.227 -1.501,1.109 -14.451,6.878 -15.469,7.21 -16.63,5.427 -34.981,5.417 -52.104,2.618 -3.749,-0.612 -7.469,-1.399 -11.149,-2.342 z m 90.781,-122.212 -0.002,0.009 c -0.018,0.023 -0.063,0.151 -0.075,0.203 -0.015,0.06 -0.015,0.122 -0.014,0.184 l -0.62,9.339 -1.158,18.686 -1.075,18.687 -4.148,56.054 -0.003,0.012 c -10e-4,0.01 -0.002,0.02 -0.003,0.03 l 10e-4,0.035 -0.093,1.258 c -0.966,4.196 -8.037,8.884 -9.355,9.667 -3.714,2.207 -7.708,3.933 -11.81,5.278 -12.593,4.129 -26.244,4.898 -39.385,3.9 -7.549,-0.574 -15.045,-1.798 -22.379,-3.68 -0.336,-0.086 -7.855,-2.384 -8.489,-2.687 -2.381,-1.137 -4.511,-2.741 -6.16,-4.809 -1.62,-2.033 -2.693,-4.462 -3.321,-6.973 -0.201,-0.805 -0.357,-1.62 -0.483,-2.44 -0.044,-0.288 0.163,-0.811 -0.124,-0.868 l -0.013,-0.002 v -0.011 c -3.305,-33.814 -7.461,-67.556 -12.458,-101.162 2.281,-0.446 6.458,-2.733 8.158,-3.199 7.119,-1.95 14.468,-3.079 21.787,-3.955 19.13,-2.288 38.602,-2.841 57.837,-1.777 8.139,0.45 16.401,1.093 24.35,2.99 4.532,1.081 6.414,3.352 9.035,5.231 z m 0.005,0.006 0.008,0.003 -0.008,-0.006 z"
           style="fill-rule:nonzero"
           id="path22" />
        <g
           id="_1"
           serif:id="1"
           transform="matrix(2,0,0,2,-68.5097,285.764)">
          <path
             d="m 118.409,109.797 c 12.224,3.156 54.495,2.625 56.88,-3.045 -1.865,-3.217 -13.518,-4.657 -26.249,-4.828 -5.357,-0.072 -10.904,0.081 -15.993,0.42 -9.318,0.621 -16.829,2.831 -19.098,4.47 -1.591,1.15 -0.743,1.528 4.46,2.983 z"
             style="fill:#bd1313"
             id="path24" />
        </g>
        <g
           transform="matrix(2,0,0,2,-68.1954,284.309)"
           id="g29">
          <path
             d="m 126.774,111.065 c 3.087,0.303 3.232,0.372 6.587,0.441 -0.007,-1.778 -0.034,-3.921 -0.082,-5.884 0.544,-2.322 -0.311,-1.916 -2.343,-1.875 -7.4,0.166 -4.238,1.661 -4.162,7.311 z"
             style="fill:#cc5151"
             id="path27" />
        </g>
        <g
           transform="matrix(2,0,0,2,-68.1954,284.309)"
           id="g33">
          <path
             d="m 163.699,103.265 5.326,0.73 c 15.083,2.612 -2.432,7.194 -3.176,5.485 -2.04,-2.039 -0.407,-4.01 -2.15,-6.215 z"
             style="fill:#871818"
             id="path31" />
        </g>
      </g>
      <g
         transform="matrix(-1,0,0,1,550.2235,-104.5232)"
         id="g47">
        <path
           d="m 200.205,595.974 c -2.644,-51.504 -7.36,-102.166 -22.399,-148.609 -0.259,-0.8 -1.119,-1.24 -1.92,-0.98 -0.8,0.259 -1.24,1.119 -0.981,1.919 14.96,46.198 19.625,96.595 22.255,147.827 0.043,0.84 0.761,1.487 1.601,1.444 0.84,-0.043 1.487,-0.76 1.444,-1.601 z"
           style="fill:#007f27"
           id="path37" />
        <g
           transform="rotate(-19.535699,181.86699,441.77688)"
           id="g41">
          <path
             d="m 175.791,436.641 c 4.386,-1.618 3.822,-32.881 -9.989,-28.761 -2.09,0.624 -3.983,5.17 -3.983,6.799 0,5.526 7.342,19.992 8.141,20.791 0.478,0.477 0.727,1.89 0.727,1.89 0,0 -0.541,-1.268 -1.017,-1.744 -1.019,-1.019 -8.299,-13.664 -12.595,-18.455 -3.694,-4.119 -10.023,1.374 -10.629,4.232 -1.597,7.541 8.995,11.04 13.337,14.659 0.914,0.761 5.67,2.852 5.67,3.925 0,0.261 -0.51,-0.146 -0.727,-0.291 -0.497,-0.331 -1.595,-0.484 -2.18,-0.581 -1.48,-0.247 -18.635,-3.077 -20.646,5.815 -2.393,10.583 12.661,7.846 17.883,5.234 1.308,-0.653 3.098,-1.051 4.216,-1.89 0.279,-0.208 1.291,-1.471 1.6,-1.163 0.117,0.117 -0.491,0.3 -0.582,0.436 -0.343,0.515 -1,0.925 -1.454,1.454 -1.175,1.371 -1.674,3.204 -2.471,4.798 -2.977,5.953 -5.702,18.748 3.634,21.082 1.456,0.364 2.233,-2.984 2.472,-3.78 1.449,-4.83 3.571,-8.652 4.216,-13.812 0.269,-2.147 0.146,-4.119 0.146,-6.252 0,-0.19 -0.424,-1.758 -0.582,-1.599 -0.377,0.377 1.612,4.739 1.745,5.67 0.633,4.429 3.474,10.991 7.269,13.521 1.122,0.748 4.632,2.582 6.107,1.599 5.656,-3.771 0.935,-14.33 -3.054,-18.319 -1.066,-1.066 -2.203,-2.196 -3.489,-3.053 -0.741,-0.494 -2.472,-1.018 -2.472,-1.018 0,0 2.23,0.097 3.199,0.582 1.716,0.858 3.774,1.707 5.67,2.181 6.145,1.536 19.38,2.417 20.5,-6.543 0.75,-6.001 -9.129,-9.084 -13.666,-7.269 -2.695,1.078 -5.735,1.938 -7.997,3.634 -0.786,0.59 -1.632,1.241 -2.471,1.745 -0.448,0.269 -1.454,0.582 -1.454,0.582 0,0 1.927,-0.619 2.617,-1.309 1.635,-1.636 3.522,-2.864 5.67,-3.489 8.687,-2.53 16.121,-16.761 9.531,-20.06 -8.424,-4.216 -20.569,14.483 -22.892,18.759 z"
             style="fill:#ffeba8"
             id="path39" />
        </g>
        <g
           transform="matrix(0.784737,-0.278441,0.334394,0.942433,-58.153,100.267)"
           id="g45">
          <ellipse
             cx="125.147"
             cy="403.56299"
             rx="10.356"
             ry="7.6160002"
             style="fill:#ffc400"
             id="ellipse43" />
        </g>
      </g>
      <g
         transform="translate(84.77781,-96.2493)"
         id="g59">
        <path
           d="m 200.205,595.974 c -2.644,-51.504 -7.36,-102.166 -22.399,-148.609 -0.259,-0.8 -1.119,-1.24 -1.92,-0.98 -0.8,0.259 -1.24,1.119 -0.981,1.919 14.96,46.198 19.625,96.595 22.255,147.827 0.043,0.84 0.761,1.487 1.601,1.444 0.84,-0.043 1.487,-0.76 1.444,-1.601 z"
           style="fill:#007f27"
           id="path49" />
        <g
           transform="rotate(-19.535699,181.86699,441.77688)"
           id="g53">
          <path
             d="m 175.791,436.641 c 4.386,-1.618 3.822,-32.881 -9.989,-28.761 -2.09,0.624 -3.983,5.17 -3.983,6.799 0,5.526 7.342,19.992 8.141,20.791 0.478,0.477 0.727,1.89 0.727,1.89 0,0 -0.541,-1.268 -1.017,-1.744 -1.019,-1.019 -8.299,-13.664 -12.595,-18.455 -3.694,-4.119 -10.023,1.374 -10.629,4.232 -1.597,7.541 8.995,11.04 13.337,14.659 0.914,0.761 5.67,2.852 5.67,3.925 0,0.261 -0.51,-0.146 -0.727,-0.291 -0.497,-0.331 -1.595,-0.484 -2.18,-0.581 -1.48,-0.247 -18.635,-3.077 -20.646,5.815 -2.393,10.583 12.661,7.846 17.883,5.234 1.308,-0.653 3.098,-1.051 4.216,-1.89 0.279,-0.208 1.291,-1.471 1.6,-1.163 0.117,0.117 -0.491,0.3 -0.582,0.436 -0.343,0.515 -1,0.925 -1.454,1.454 -1.175,1.371 -1.674,3.204 -2.471,4.798 -2.977,5.953 -5.702,18.748 3.634,21.082 1.456,0.364 2.233,-2.984 2.472,-3.78 1.449,-4.83 3.571,-8.652 4.216,-13.812 0.269,-2.147 0.146,-4.119 0.146,-6.252 0,-0.19 -0.424,-1.758 -0.582,-1.599 -0.377,0.377 1.612,4.739 1.745,5.67 0.633,4.429 3.474,10.991 7.269,13.521 1.122,0.748 4.632,2.582 6.107,1.599 5.656,-3.771 0.935,-14.33 -3.054,-18.319 -1.066,-1.066 -2.203,-2.196 -3.489,-3.053 -0.741,-0.494 -2.472,-1.018 -2.472,-1.018 0,0 2.23,0.097 3.199,0.582 1.716,0.858 3.774,1.707 5.67,2.181 6.145,1.536 19.38,2.417 20.5,-6.543 0.75,-6.001 -9.129,-9.084 -13.666,-7.269 -2.695,1.078 -5.735,1.938 -7.997,3.634 -0.786,0.59 -1.632,1.241 -2.471,1.745 -0.448,0.269 -1.454,0.582 -1.454,0.582 0,0 1.927,-0.619 2.617,-1.309 1.635,-1.636 3.522,-2.864 5.67,-3.489 8.687,-2.53 16.121,-16.761 9.531,-20.06 -8.424,-4.216 -20.569,14.483 -22.892,18.759 z"
             style="fill:#ffeba8"
             id="path51" />
        </g>
        <g
           transform="matrix(0.784737,-0.278441,0.334394,0.942433,-58.153,100.267)"
           id="g57">
          <ellipse
             cx="125.147"
             cy="403.56299"
             rx="10.356"
             ry="7.6160002"
             style="fill:#ffc400"
             id="ellipse55" />
        </g>
      </g>
      <g
         transform="matrix(0.943964,0.33005,-0.33005,0.943964,321.9485,-125.3517)"
         id="g69">
        <g
           transform="rotate(-2.7189266,485.78215,738.58241)"
           id="g63">
          <path
             d="m 200.205,595.974 c -2.644,-51.504 -7.36,-102.166 -22.399,-148.609 -0.259,-0.8 -1.119,-1.24 -1.92,-0.98 -0.8,0.259 -1.24,1.119 -0.981,1.919 14.96,46.198 19.625,96.595 22.255,147.827 0.043,0.84 0.761,1.487 1.601,1.444 0.84,-0.043 1.487,-0.76 1.444,-1.601 z"
             style="fill:#007f27"
             id="path61" />
        </g>
        <g
           transform="matrix(-0.724976,0.441494,0.359779,0.590792,228.082,134.232)"
           id="g67">
          <path
             d="m 291.421,319.872 c 3.709,5.447 5.284,61.009 -20.063,67.02 -17.246,-1.911 -27.212,-16.634 -31.78,-40.856 -1.226,-6.498 -5.049,-21.262 -2.548,-20.754 2.501,0.508 13.728,15.24 17.554,23.802 -0.973,-9.133 0.331,-30.832 2.679,-31.02 2.349,-0.188 12.542,19.695 11.414,29.892 -0.498,-9.247 6.288,-29.623 8.544,-29.471 2.255,0.151 3.951,17.972 4.988,30.382 1.294,-7.784 5.769,-34.051 9.212,-28.995 z"
             style="fill:#f7007c;font-variation-settings:normal;opacity:1;vector-effect:none;fill-opacity:1;stroke-width:0.99999949;stroke-linecap:butt;stroke-linejoin:miter;stroke-miterlimit:1.5;stroke-dasharray:none;stroke-dashoffset:0;stroke-opacity:1;-inkscape-stroke:none;stop-color:#000000;stop-opacity:1"
             id="path65" />
        </g>
      </g>
      <g
         transform="rotate(7.0144152,718.22704,1454.1707)"
         id="g79">
        <g
           transform="rotate(-2.7189266,485.78215,738.58241)"
           id="g73">
          <path
             d="m 200.205,595.974 c -2.644,-51.504 -7.36,-102.166 -22.399,-148.609 -0.259,-0.8 -1.119,-1.24 -1.92,-0.98 -0.8,0.259 -1.24,1.119 -0.981,1.919 14.96,46.198 19.625,96.595 22.255,147.827 0.043,0.84 0.761,1.487 1.601,1.444 0.84,-0.043 1.487,-0.76 1.444,-1.601 z"
             style="fill:#007f27"
             id="path71" />
        </g>
        <g
           transform="matrix(-0.724976,0.441494,0.359779,0.590792,228.082,134.232)"
           id="g77">
          <path
             d="m 291.421,319.872 c 3.709,5.447 5.284,61.009 -20.063,67.02 -17.246,-1.911 -27.212,-16.634 -31.78,-40.856 -1.226,-6.498 -5.049,-21.262 -2.548,-20.754 2.501,0.508 13.728,15.24 17.554,23.802 -0.973,-9.133 0.331,-30.832 2.679,-31.02 2.349,-0.188 12.542,19.695 11.414,29.892 -0.498,-9.247 6.288,-29.623 8.544,-29.471 2.255,0.151 3.951,17.972 4.988,30.382 1.294,-7.784 5.769,-34.051 9.212,-28.995 z"
             style="fill:#f7007c;font-variation-settings:normal;opacity:1;vector-effect:none;fill-opacity:1;stroke-width:1;stroke-linecap:butt;stroke-linejoin:miter;stroke-miterlimit:1.5;stroke-dasharray:none;stroke-dashoffset:0;stroke-opacity:1;-inkscape-stroke:none;stop-color:#000000;stop-opacity:1"
             id="path75" />
        </g>
      </g>
      <g
         transform="translate(75.0158,-31.8728)"
         id="g89">
        <g
           transform="rotate(-2.7189266,485.78215,738.58241)"
           id="g83">
          <path
             d="m 200.205,595.974 c -2.644,-51.504 -7.36,-102.166 -22.399,-148.609 -0.259,-0.8 -1.119,-1.24 -1.92,-0.98 -0.8,0.259 -1.24,1.119 -0.981,1.919 14.96,46.198 19.625,96.595 22.255,147.827 0.043,0.84 0.761,1.487 1.601,1.444 0.84,-0.043 1.487,-0.76 1.444,-1.601 z"
             style="fill:#007f27"
             id="path81" />
        </g>
        <g
           transform="matrix(-0.724976,0.441494,0.359779,0.590792,228.082,134.232)"
           id="g87">
          <path
             d="m 291.421,319.872 c 3.709,5.447 5.284,61.009 -20.063,67.02 -17.246,-1.911 -27.212,-16.634 -31.78,-40.856 -1.226,-6.498 -5.049,-21.262 -2.548,-20.754 2.501,0.508 13.728,15.24 17.554,23.802 -0.973,-9.133 0.331,-30.832 2.679,-31.02 2.349,-0.188 12.542,19.695 11.414,29.892 -0.498,-9.247 6.288,-29.623 8.544,-29.471 2.255,0.151 3.951,17.972 4.988,30.382 1.294,-7.784 5.769,-34.051 9.212,-28.995 z"
             style="fill:#f7007c"
             id="path85" />
        </g>
      </g>
      <g
         transform="matrix(-1,0,0,1,526.6125,2.6305)"
         id="g113">
        <g
           transform="matrix(-1,0,0,1,417.932,6.76299)"
           id="g103">
          <path
             d="m 200.205,595.974 c -2.644,-51.504 -7.36,-102.166 -22.399,-148.609 -0.259,-0.8 -1.119,-1.24 -1.92,-0.98 -0.8,0.259 -1.24,1.119 -0.981,1.919 14.96,46.198 19.625,96.595 22.255,147.827 0.043,0.84 0.761,1.487 1.601,1.444 0.84,-0.043 1.487,-0.76 1.444,-1.601 z"
             style="fill:#007f27"
             id="path101" />
        </g>
        <g
           transform="matrix(1.00273,-0.355789,0.306161,0.862863,-65.8802,132.297)"
           id="g107">
          <path
             d="m 175.791,436.641 c 4.386,-1.618 3.822,-32.881 -9.989,-28.761 -2.09,0.624 -3.983,5.17 -3.983,6.799 0,5.526 7.342,19.992 8.141,20.791 0.478,0.477 0.727,1.89 0.727,1.89 0,0 -0.541,-1.268 -1.017,-1.744 -1.019,-1.019 -8.299,-13.664 -12.595,-18.455 -3.694,-4.119 -10.023,1.374 -10.629,4.232 -1.597,7.541 8.995,11.04 13.337,14.659 0.914,0.761 5.67,2.852 5.67,3.925 0,0.261 -0.51,-0.146 -0.727,-0.291 -0.497,-0.331 -1.595,-0.484 -2.18,-0.581 -1.48,-0.247 -18.635,-3.077 -20.646,5.815 -2.393,10.583 12.661,7.846 17.883,5.234 1.308,-0.653 3.098,-1.051 4.216,-1.89 0.279,-0.208 1.291,-1.471 1.6,-1.163 0.117,0.117 -0.491,0.3 -0.582,0.436 -0.343,0.515 -1,0.925 -1.454,1.454 -1.175,1.371 -1.674,3.204 -2.471,4.798 -2.977,5.953 -5.702,18.748 3.634,21.082 1.456,0.364 2.233,-2.984 2.472,-3.78 1.449,-4.83 3.571,-8.652 4.216,-13.812 0.269,-2.147 0.146,-4.119 0.146,-6.252 0,-0.19 -0.424,-1.758 -0.582,-1.599 -0.377,0.377 1.612,4.739 1.745,5.67 0.633,4.429 3.474,10.991 7.269,13.521 1.122,0.748 4.632,2.582 6.107,1.599 5.656,-3.771 0.935,-14.33 -3.054,-18.319 -1.066,-1.066 -2.203,-2.196 -3.489,-3.053 -0.741,-0.494 -2.472,-1.018 -2.472,-1.018 0,0 2.23,0.097 3.199,0.582 1.716,0.858 3.774,1.707 5.67,2.181 6.145,1.536 19.38,2.417 20.5,-6.543 0.75,-6.001 -9.129,-9.084 -13.666,-7.269 -2.695,1.078 -5.735,1.938 -7.997,3.634 -0.786,0.59 -1.632,1.241 -2.471,1.745 -0.448,0.269 -1.454,0.582 -1.454,0.582 0,0 1.927,-0.619 2.617,-1.309 1.635,-1.636 3.522,-2.864 5.67,-3.489 8.687,-2.53 16.121,-16.761 9.531,-20.06 -8.424,-4.216 -20.569,14.483 -22.892,18.759 z"
             style="fill:#ffeba8"
             id="path105" />
        </g>
        <g
           transform="matrix(0.784737,-0.278441,0.334394,0.942433,9.94412,107.367)"
           id="g111">
          <ellipse
             cx="125.147"
             cy="403.56299"
             rx="10.356"
             ry="7.6160002"
             style="fill:#ffc400"
             id="ellipse109" />
        </g>
      </g>
      <g
         transform="translate(80.97914,-52.6035)"
         id="g123">
        <g
           transform="matrix(-0.998119,-0.0613021,-0.0613021,0.998119,480.25,26.0458)"
           id="g117">
          <path
             d="m 200.205,595.974 c -2.644,-51.504 -7.36,-102.166 -22.399,-148.609 -0.259,-0.8 -1.119,-1.24 -1.92,-0.98 -0.8,0.259 -1.24,1.119 -0.981,1.919 14.96,46.198 19.625,96.595 22.255,147.827 0.043,0.84 0.761,1.487 1.601,1.444 0.84,-0.043 1.487,-0.76 1.444,-1.601 z"
             style="fill:#007f27"
             id="path115" />
        </g>
        <g
           transform="matrix(0.767385,0.362803,-0.332905,0.704146,188.459,109.725)"
           id="g121">
          <path
             d="m 291.421,319.872 c 3.709,5.447 5.284,61.009 -20.063,67.02 -17.246,-1.911 -27.212,-16.634 -31.78,-40.856 -1.226,-6.498 -5.049,-21.262 -2.548,-20.754 2.501,0.508 13.728,15.24 17.554,23.802 -0.973,-9.133 0.331,-30.832 2.679,-31.02 2.349,-0.188 12.542,19.695 11.414,29.892 -0.498,-9.247 6.288,-29.623 8.544,-29.471 2.255,0.151 3.951,17.972 4.988,30.382 1.294,-7.784 5.769,-34.051 9.212,-28.995 z"
             style="fill:#f7007c;font-variation-settings:normal;opacity:1;vector-effect:none;fill-opacity:1;stroke-width:0.94239117;stroke-linecap:butt;stroke-linejoin:miter;stroke-miterlimit:1.5;stroke-dasharray:none;stroke-dashoffset:0;stroke-opacity:1;-inkscape-stroke:none;stop-color:#000000;stop-opacity:1"
             id="path119" />
        </g>
      </g>
      <g
         transform="matrix(1.00775,0,0,1.00028,107.26,1.9924)"
         id="g137">
        <g
           transform="matrix(-1,0,0,1,417.932,6.76299)"
           id="g127">
          <path
             d="m 200.205,595.974 c -2.644,-51.504 -7.36,-102.166 -22.399,-148.609 -0.259,-0.8 -1.119,-1.24 -1.92,-0.98 -0.8,0.259 -1.24,1.119 -0.981,1.919 14.96,46.198 19.625,96.595 22.255,147.827 0.043,0.84 0.761,1.487 1.601,1.444 0.84,-0.043 1.487,-0.76 1.444,-1.601 z"
             style="fill:#007f27"
             id="path125" />
        </g>
        <g
           transform="matrix(1.00273,-0.355789,0.306161,0.862863,-65.8802,132.297)"
           id="g131">
          <path
             d="m 175.791,436.641 c 4.386,-1.618 3.822,-32.881 -9.989,-28.761 -2.09,0.624 -3.983,5.17 -3.983,6.799 0,5.526 7.342,19.992 8.141,20.791 0.478,0.477 0.727,1.89 0.727,1.89 0,0 -0.541,-1.268 -1.017,-1.744 -1.019,-1.019 -8.299,-13.664 -12.595,-18.455 -3.694,-4.119 -10.023,1.374 -10.629,4.232 -1.597,7.541 8.995,11.04 13.337,14.659 0.914,0.761 5.67,2.852 5.67,3.925 0,0.261 -0.51,-0.146 -0.727,-0.291 -0.497,-0.331 -1.595,-0.484 -2.18,-0.581 -1.48,-0.247 -18.635,-3.077 -20.646,5.815 -2.393,10.583 12.661,7.846 17.883,5.234 1.308,-0.653 3.098,-1.051 4.216,-1.89 0.279,-0.208 1.291,-1.471 1.6,-1.163 0.117,0.117 -0.491,0.3 -0.582,0.436 -0.343,0.515 -1,0.925 -1.454,1.454 -1.175,1.371 -1.674,3.204 -2.471,4.798 -2.977,5.953 -5.702,18.748 3.634,21.082 1.456,0.364 2.233,-2.984 2.472,-3.78 1.449,-4.83 3.571,-8.652 4.216,-13.812 0.269,-2.147 0.146,-4.119 0.146,-6.252 0,-0.19 -0.424,-1.758 -0.582,-1.599 -0.377,0.377 1.612,4.739 1.745,5.67 0.633,4.429 3.474,10.991 7.269,13.521 1.122,0.748 4.632,2.582 6.107,1.599 5.656,-3.771 0.935,-14.33 -3.054,-18.319 -1.066,-1.066 -2.203,-2.196 -3.489,-3.053 -0.741,-0.494 -2.472,-1.018 -2.472,-1.018 0,0 2.23,0.097 3.199,0.582 1.716,0.858 3.774,1.707 5.67,2.181 6.145,1.536 19.38,2.417 20.5,-6.543 0.75,-6.001 -9.129,-9.084 -13.666,-7.269 -2.695,1.078 -5.735,1.938 -7.997,3.634 -0.786,0.59 -1.632,1.241 -2.471,1.745 -0.448,0.269 -1.454,0.582 -1.454,0.582 0,0 1.927,-0.619 2.617,-1.309 1.635,-1.636 3.522,-2.864 5.67,-3.489 8.687,-2.53 16.121,-16.761 9.531,-20.06 -8.424,-4.216 -20.569,14.483 -22.892,18.759 z"
             style="fill:#ffeba8"
             id="path129" />
        </g>
        <g
           transform="matrix(0.784737,-0.278441,0.334394,0.942433,9.94412,107.367)"
           id="g135">
          <ellipse
             cx="125.147"
             cy="403.56299"
             rx="10.356"
             ry="7.6160002"
             style="fill:#ffc400"
             id="ellipse133" />
        </g>
      </g>
      <g
         id="_11"
         serif:id="1"
         transform="matrix(2,0,0,1.97609,20.6721,272.4323)">
        <path
           d="m 113.338,107.234 6.325,51.229 c 0.62,4.872 3.218,7.497 7.173,8.723 13.56,4.176 32.743,4.334 43.009,-4.272 1.392,-1.219 2.274,-2.907 2.453,-5.491 1.034,-16.544 1.703,-34.266 2.833,-50.864 0.559,3.858 -51.817,9.691 -61.748,1.041 z"
           style="fill:#ff0000"
           id="path139" />
      </g>
      <g
         transform="matrix(0.903696,0,0,0.838497,108.4058,76.2016)"
         id="g144">
        <path
           d="m 204.92,578.085 c 9.122,2.429 18.42,1.561 27.697,-0.764 3.358,9.822 6.979,19.573 11.577,29.255 1.082,2.28 3.812,3.252 6.092,2.17 2.28,-1.083 3.252,-3.813 2.17,-6.093 -6.913,-14.56 -10.494,-27.848 -15.426,-42.725 -4.224,-12.742 -10.057,-27.033 -12.901,-39.996 -0.435,-1.987 -2.132,-3.448 -4.162,-3.583 -2.031,-0.135 -3.906,1.087 -4.602,2.999 -5.243,14.407 -10.021,28.816 -14.832,43.153 -4.36,12.995 -8.748,25.932 -13.535,38.754 -0.883,2.365 0.32,5.001 2.685,5.884 2.364,0.882 5.001,-0.321 5.883,-2.685 3.264,-8.742 6.343,-17.537 9.354,-26.369 z m 24.781,-9.46 c -0.8,-2.415 -1.596,-4.834 -2.399,-7.258 -2.749,-8.291 -5.719,-16.63 -8.266,-25.015 -3.83,11.04 -7.481,22.068 -11.176,33.047 7.199,1.784 14.524,1.012 21.841,-0.774 z"
           style="fill:#b20000"
           id="path142" />
      </g>
      <g
         transform="translate(87.3888,-14.540804)"
         id="g148">
        <path
           d="m 283.555,499.51 c 2.772,5.585 -114.095,17.538 -125.115,0"
           style="fill:none;stroke:#000000;stroke-width:2.44px"
           id="path146" />
      </g>
      <g
         transform="matrix(2,0,0,2,20.6721,269.8853)"
         id="g152">
        <path
           d="m 161.694,149.54 c -0.572,3.569 -2.501,10.715 -0.344,13.381 1.026,1.289 5.567,-3.231 5.925,-3.672 0.551,-0.676 0.544,-3.018 0.834,-4.121 1.798,-6.69 4.127,-28.794 2.26,-35.76 -0.358,-1.316 0.806,-5.616 0.117,-6.47 -0.916,-1.144 -4.148,0.282 -4.63,0.957 -1.564,11.39 -2.212,23.662 -4.155,35.678 z"
           style="fill:#ff5a5a"
           id="path150" />
      </g>
      <g
         transform="matrix(2,0,0,2,20.6721,269.8853)"
         id="g156">
        <path
           d="m 173.718,109.776 c -0.545,3.184 -0.366,5.823 -4.479,10.019 -4.196,4.272 -11.217,11.369 -17.577,14.187 -6.498,2.873 -11.383,4.486 -22.745,4.196 -5.436,-0.138 -10.549,-4.547 -13.56,-9.977 -2.846,-5.133 -3.762,-11.093 -1.605,-15.007 l -0.187,-1.481 c -0.089,0.041 -0.165,0.103 -0.234,0.199 -3.038,4.403 -2.012,11.128 1.123,16.799 3.142,5.664 8.468,10.363 14.435,10.521 11.459,0.283 16.62,-1.398 23.166,-4.292 6.69,-2.949 13.704,-10.122 17.9,-14.408 4.286,-4.361 4.245,-7.531 4.769,-10.576 0.055,-0.331 -0.2,-0.627 -0.531,-0.621 -0.241,0.007 -0.448,0.193 -0.482,0.448 z"
           style="fill:#3f3f3f"
           id="path154" />
      </g>
      <g
         transform="matrix(2,0,0,2,20.6721,269.8853)"
         id="g160">
        <path
           d="m 174.283,110.052 c -0.545,3.17 -0.366,5.822 -4.479,10.019 -4.196,4.271 -11.217,11.368 -17.577,14.187 -6.512,2.873 -11.383,4.485 -22.745,4.196 -1.757,-0.042 -3.493,-0.545 -5.126,-1.371 -3.638,-1.654 -6.849,-5.003 -8.992,-8.875 -2.846,-5.113 -3.762,-11.052 -1.626,-14.966 l -0.097,-0.647 c -2.715,4.389 -1.66,10.9 1.385,16.398 2.116,3.818 5.23,7.194 8.854,9.04 1.585,0.724 3.28,1.158 5.016,1.206 11.459,0.283 16.62,-1.398 23.165,-4.292 6.691,-2.949 13.705,-10.122 17.901,-14.408 4.286,-4.362 4.245,-7.531 4.768,-10.577 0.021,-0.117 0,-0.234 -0.048,-0.337 -0.213,0.048 -0.379,0.213 -0.406,0.434 z"
           style="fill:#686868"
           id="path158" />
      </g>
      <g
         transform="matrix(2,0,0,2,20.6721,269.8853)"
         id="g164">
        <path
           d="m 114.647,128.663 c 3.087,5.698 8.441,10.259 14.408,10.404 11.458,0.289 16.716,-1.605 23.268,-4.499 l 0.29,-0.248 c -6.546,2.893 -11.914,4.961 -23.372,4.678 -5.967,-0.152 -11.293,-4.851 -14.435,-10.521 -2.894,-5.223 -3.983,-11.356 -1.757,-15.724 0.117,-0.289 0.647,-0.978 0.124,-0.455 -2.619,4.555 -1.585,10.722 1.481,16.358 z"
           style="fill:#c5c5c5"
           id="path162" />
      </g>
      <g
         transform="translate(287.234,-56.0855)"
         id="g306">
        <path
           d="m 190.355,621.424 c -0.062,-0.016 -7.991,-2.462 -8.93,-2.908 -3.937,-1.872 -7.204,-4.883 -9.177,-8.792 -1.025,-2.029 -1.713,-4.216 -2.123,-6.449 -0.004,-0.024 -0.311,-1.836 -0.289,-1.847 l 0.036,-0.018 -0.05,-0.01 c -4.223,-30.967 -13.429,-91.205 -14.357,-102.008 -0.094,-1.091 0.842,-1.38 1.496,-1.766 9.378,-5.546 25.168,-6.588 32.609,-7.49 20.839,-2.526 42.179,-3.053 63.115,-1.488 8.437,0.631 17.624,1.248 25.562,4.451 2.272,0.917 5.444,2.456 5.664,5.306 0.047,0.608 0.282,1.619 -0.276,1.824 l -0.592,8.911 -1.157,18.686 -0.538,9.343 -0.358,6.202 -0.179,3.114 -3.552,58.226 c -1.122,2.486 -0.263,3.378 -8.182,9.227 -1.501,1.109 -14.451,6.878 -15.469,7.21 -16.63,5.427 -34.981,5.417 -52.104,2.618 -3.749,-0.612 -7.469,-1.399 -11.149,-2.342 z m 90.781,-122.212 -0.002,0.009 c -0.018,0.023 -0.063,0.151 -0.075,0.203 -0.015,0.06 -0.015,0.122 -0.014,0.184 l -0.62,9.339 -1.158,18.686 -1.075,18.687 -4.148,56.054 -0.003,0.012 c -10e-4,0.01 -0.002,0.02 -0.003,0.03 l 10e-4,0.035 -0.093,1.258 c -0.966,4.196 -8.037,8.884 -9.355,9.667 -3.714,2.207 -7.708,3.933 -11.81,5.278 -12.593,4.129 -26.244,4.898 -39.385,3.9 -7.549,-0.574 -15.045,-1.798 -22.379,-3.68 -0.336,-0.086 -7.855,-2.384 -8.489,-2.687 -2.381,-1.137 -4.511,-2.741 -6.16,-4.809 -1.62,-2.033 -2.693,-4.462 -3.321,-6.973 -0.201,-0.805 -0.357,-1.62 -0.483,-2.44 -0.044,-0.288 0.163,-0.811 -0.124,-0.868 l -0.013,-0.002 v -0.011 c -3.305,-33.814 -7.461,-67.556 -12.458,-101.162 2.281,-0.446 6.458,-2.733 8.158,-3.199 7.119,-1.95 14.468,-3.079 21.787,-3.955 19.13,-2.288 38.602,-2.841 57.837,-1.777 8.139,0.45 16.401,1.093 24.35,2.99 4.532,1.081 6.414,3.352 9.035,5.231 z m 0.005,0.006 0.008,0.003 -0.008,-0.006 z"
           style="fill-rule:nonzero"
           id="path304" />
      </g>
      <g
         id="_14"
         serif:id="1"
         transform="matrix(2,0,0,2,218.724,229.678)">
        <path
           d="m 118.409,109.797 c 12.224,3.156 54.495,2.625 56.88,-3.045 -1.865,-3.217 -13.518,-4.657 -26.249,-4.828 -5.357,-0.072 -10.904,0.081 -15.993,0.42 -9.318,0.621 -16.829,2.831 -19.098,4.47 -1.591,1.15 -0.743,1.528 4.46,2.983 z"
           style="fill:#4bb3b3"
           id="path308" />
      </g>
      <g
         transform="matrix(2,0,0,2,219.039,228.223)"
         id="g313">
        <path
           d="m 126.774,111.065 c 3.087,0.303 3.232,0.372 6.587,0.441 -0.007,-1.778 -0.034,-3.921 -0.082,-5.884 0.544,-2.322 -0.311,-1.916 -2.343,-1.875 -7.4,0.166 -4.238,1.661 -4.162,7.311 z"
           style="fill:#418e8e"
           id="path311" />
      </g>
      <g
         transform="matrix(2,0,0,2,219.039,228.223)"
         id="g317">
        <path
           d="m 163.699,103.265 5.326,0.73 c 15.083,2.612 -2.432,7.194 -3.176,5.485 -2.04,-2.039 -0.407,-4.01 -2.15,-6.215 z"
           style="fill:#2f696a"
           id="path315" />
      </g>
      <g
         transform="translate(76.7289,-61.9691)"
         id="g321">
        <path
           d="m 370.654,450.669 c -12.653,-4.056 -16.941,-27.27 -18.209,-37.182 -0.352,-2.758 2.114,-2.855 3.334,-1.995 11.817,8.339 17.851,22.955 17.919,38.694 0.574,1.828 1.133,3.662 1.677,5.504 1.408,-10.277 6.15,-18.265 14.822,-23.391 0.981,-0.58 2.872,-0.377 2.459,1.668 -1.477,7.332 -5.94,24.404 -15.809,26.856 1.146,4.115 2.22,8.259 3.227,12.431 3.722,-6.645 9.696,-10.254 17.201,-11.802 0.86,-0.178 2.186,0.42 1.374,1.776 -2.799,4.674 -9.861,15.09 -17.333,15.332 0.171,0.756 0.34,1.512 0.508,2.271 0.371,0.419 0.583,1.479 0.487,2.236 0.312,1.453 0.617,2.91 0.916,4.373 0.019,-0.112 0.055,-0.207 0.107,-0.275 4.213,-5.476 9.866,-7.53 16.46,-7.346 0.674,0.019 1.546,0.686 0.685,1.54 -3.097,3.069 -10.831,9.917 -16.519,8.052 -0.157,-0.051 -0.302,-0.212 -0.422,-0.428 6.902,34.473 9.82,70.576 11.695,107.103 0.043,0.84 -0.604,1.557 -1.444,1.601 -0.84,0.043 -1.558,-0.604 -1.601,-1.445 -1.768,-34.448 -4.457,-68.519 -10.576,-101.188 -3.269,4.318 -11.857,5.736 -15.741,6.165 -1.205,0.133 -1.176,-0.965 -0.767,-1.5 3.959,-5.186 9.04,-8.281 15.833,-8.187 -0.412,-2.111 -0.84,-4.215 -1.282,-6.311 -6.466,2.646 -16.839,-1.195 -21.44,-3.188 -1.451,-0.629 -0.722,-1.887 0.08,-2.244 6.706,-2.987 13.374,-3.618 19.988,-0.826 -0.636,-2.791 -1.3,-5.57 -1.994,-8.336 -0.115,0.086 -0.233,0.145 -0.349,0.17 -9.994,2.1 -21.375,-11.499 -25.855,-17.517 -1.246,-1.674 0.377,-2.664 1.512,-2.558 9.03,0.84 16.67,4.139 22.323,10.954 -1.028,-3.692 -2.116,-7.363 -3.266,-11.007 z"
           style="fill:#007f27"
           id="path319" />
      </g>
      <g
         transform="rotate(11.196128,874.99714,978.58583)"
         id="g325">
        <path
           d="m 370.654,450.669 c -12.653,-4.056 -16.941,-27.27 -18.209,-37.182 -0.352,-2.758 2.114,-2.855 3.334,-1.995 11.817,8.339 17.851,22.955 17.919,38.694 0.574,1.828 1.133,3.662 1.677,5.504 1.408,-10.277 6.15,-18.265 14.822,-23.391 0.981,-0.58 2.872,-0.377 2.459,1.668 -1.477,7.332 -5.94,24.404 -15.809,26.856 1.146,4.115 2.22,8.259 3.227,12.431 3.722,-6.645 9.696,-10.254 17.201,-11.802 0.86,-0.178 2.186,0.42 1.374,1.776 -2.799,4.674 -9.861,15.09 -17.333,15.332 0.171,0.756 0.34,1.512 0.508,2.271 0.371,0.419 0.583,1.479 0.487,2.236 0.312,1.453 0.617,2.91 0.916,4.373 0.019,-0.112 0.055,-0.207 0.107,-0.275 4.213,-5.476 9.866,-7.53 16.46,-7.346 0.674,0.019 1.546,0.686 0.685,1.54 -3.097,3.069 -10.831,9.917 -16.519,8.052 -0.157,-0.051 -0.302,-0.212 -0.422,-0.428 6.902,34.473 9.82,70.576 11.695,107.103 0.043,0.84 -0.604,1.557 -1.444,1.601 -0.84,0.043 -1.558,-0.604 -1.601,-1.445 -1.768,-34.448 -4.457,-68.519 -10.576,-101.188 -3.269,4.318 -11.857,5.736 -15.741,6.165 -1.205,0.133 -1.176,-0.965 -0.767,-1.5 3.959,-5.186 9.04,-8.281 15.833,-8.187 -0.412,-2.111 -0.84,-4.215 -1.282,-6.311 -6.466,2.646 -16.839,-1.195 -21.44,-3.188 -1.451,-0.629 -0.722,-1.887 0.08,-2.244 6.706,-2.987 13.374,-3.618 19.988,-0.826 -0.636,-2.791 -1.3,-5.57 -1.994,-8.336 -0.115,0.086 -0.233,0.145 -0.349,0.17 -9.994,2.1 -21.375,-11.499 -25.855,-17.517 -1.246,-1.674 0.377,-2.664 1.512,-2.558 9.03,0.84 16.67,4.139 22.323,10.954 -1.028,-3.692 -2.116,-7.363 -3.266,-11.007 z"
           style="fill:#145327"
           id="path323" />
      </g>
      <g
         transform="rotate(11.196128,874.99714,978.58583)"
         id="g329">
        <path
           d="m 370.654,450.669 c -12.653,-4.056 -16.941,-27.27 -18.209,-37.182 -0.352,-2.758 2.114,-2.855 3.334,-1.995 11.817,8.339 17.851,22.955 17.919,38.694 0.574,1.828 1.133,3.662 1.677,5.504 1.408,-10.277 6.15,-18.265 14.822,-23.391 0.981,-0.58 2.872,-0.377 2.459,1.668 -1.477,7.332 -5.94,24.404 -15.809,26.856 1.146,4.115 2.22,8.259 3.227,12.431 3.722,-6.645 9.696,-10.254 17.201,-11.802 0.86,-0.178 2.186,0.42 1.374,1.776 -2.799,4.674 -9.861,15.09 -17.333,15.332 0.171,0.756 0.34,1.512 0.508,2.271 0.371,0.419 0.583,1.479 0.487,2.236 0.312,1.453 0.617,2.91 0.916,4.373 0.019,-0.112 0.055,-0.207 0.107,-0.275 4.213,-5.476 9.866,-7.53 16.46,-7.346 0.674,0.019 1.546,0.686 0.685,1.54 -3.097,3.069 -10.831,9.917 -16.519,8.052 -0.157,-0.051 -0.302,-0.212 -0.422,-0.428 6.902,34.473 9.82,70.576 11.695,107.103 0.043,0.84 -0.604,1.557 -1.444,1.601 -0.84,0.043 -1.558,-0.604 -1.601,-1.445 -1.768,-34.448 -4.457,-68.519 -10.576,-101.188 -3.269,4.318 -11.857,5.736 -15.741,6.165 -1.205,0.133 -1.176,-0.965 -0.767,-1.5 3.959,-5.186 9.04,-8.281 15.833,-8.187 -0.412,-2.111 -0.84,-4.215 -1.282,-6.311 -6.466,2.646 -16.839,-1.195 -21.44,-3.188 -1.451,-0.629 -0.722,-1.887 0.08,-2.244 6.706,-2.987 13.374,-3.618 19.988,-0.826 -0.636,-2.791 -1.3,-5.57 -1.994,-8.336 -0.115,0.086 -0.233,0.145 -0.349,0.17 -9.994,2.1 -21.375,-11.499 -25.855,-17.517 -1.246,-1.674 0.377,-2.664 1.512,-2.558 9.03,0.84 16.67,4.139 22.323,10.954 -1.028,-3.692 -2.116,-7.363 -3.266,-11.007 z"
           style="fill:#007f27;font-variation-settings:normal;opacity:1;vector-effect:none;fill-opacity:1;stroke-width:1;stroke-linecap:butt;stroke-linejoin:miter;stroke-miterlimit:1.5;stroke-dasharray:none;stroke-dashoffset:0;stroke-opacity:1;-inkscape-stroke:none;stop-color:#000000;stop-opacity:1"
           id="path327" />
      </g>
      <g
         transform="rotate(11.196128,677.40496,1161.1163)"
         id="g333">
        <path
           d="m 370.654,450.669 c -12.653,-4.056 -16.941,-27.27 -18.209,-37.182 -0.352,-2.758 2.114,-2.855 3.334,-1.995 11.817,8.339 17.851,22.955 17.919,38.694 0.574,1.828 1.133,3.662 1.677,5.504 1.408,-10.277 6.15,-18.265 14.822,-23.391 0.981,-0.58 2.872,-0.377 2.459,1.668 -1.477,7.332 -5.94,24.404 -15.809,26.856 1.146,4.115 2.22,8.259 3.227,12.431 3.722,-6.645 9.696,-10.254 17.201,-11.802 0.86,-0.178 2.186,0.42 1.374,1.776 -2.799,4.674 -9.861,15.09 -17.333,15.332 0.171,0.756 0.34,1.512 0.508,2.271 0.371,0.419 0.583,1.479 0.487,2.236 0.312,1.453 0.617,2.91 0.916,4.373 0.019,-0.112 0.055,-0.207 0.107,-0.275 4.213,-5.476 9.866,-7.53 16.46,-7.346 0.674,0.019 1.546,0.686 0.685,1.54 -3.097,3.069 -10.831,9.917 -16.519,8.052 -0.157,-0.051 -0.302,-0.212 -0.422,-0.428 6.902,34.473 9.82,70.576 11.695,107.103 0.043,0.84 -0.604,1.557 -1.444,1.601 -0.84,0.043 -1.558,-0.604 -1.601,-1.445 -1.768,-34.448 -4.457,-68.519 -10.576,-101.188 -3.269,4.318 -11.857,5.736 -15.741,6.165 -1.205,0.133 -1.176,-0.965 -0.767,-1.5 3.959,-5.186 9.04,-8.281 15.833,-8.187 -0.412,-2.111 -0.84,-4.215 -1.282,-6.311 -6.466,2.646 -16.839,-1.195 -21.44,-3.188 -1.451,-0.629 -0.722,-1.887 0.08,-2.244 6.706,-2.987 13.374,-3.618 19.988,-0.826 -0.636,-2.791 -1.3,-5.57 -1.994,-8.336 -0.115,0.086 -0.233,0.145 -0.349,0.17 -9.994,2.1 -21.375,-11.499 -25.855,-17.517 -1.246,-1.674 0.377,-2.664 1.512,-2.558 9.03,0.84 16.67,4.139 22.323,10.954 -1.028,-3.692 -2.116,-7.363 -3.266,-11.007 z"
           style="fill:#007f27"
           id="path331" />
      </g>
      <g
         transform="matrix(-0.998012,-0.0630264,-0.0630264,0.998012,961.174,-41.6203)"
         id="g377">
        <path
           d="m 370.654,450.669 c -12.653,-4.056 -16.941,-27.27 -18.209,-37.182 -0.352,-2.758 2.114,-2.855 3.334,-1.995 11.817,8.339 17.851,22.955 17.919,38.694 0.574,1.828 1.133,3.662 1.677,5.504 1.408,-10.277 6.15,-18.265 14.822,-23.391 0.981,-0.58 2.872,-0.377 2.459,1.668 -1.477,7.332 -5.94,24.404 -15.809,26.856 1.146,4.115 2.22,8.259 3.227,12.431 3.722,-6.645 9.696,-10.254 17.201,-11.802 0.86,-0.178 2.186,0.42 1.374,1.776 -2.799,4.674 -9.861,15.09 -17.333,15.332 0.171,0.756 0.34,1.512 0.508,2.271 0.371,0.419 0.583,1.479 0.487,2.236 0.312,1.453 0.617,2.91 0.916,4.373 0.019,-0.112 0.055,-0.207 0.107,-0.275 4.213,-5.476 9.866,-7.53 16.46,-7.346 0.674,0.019 1.546,0.686 0.685,1.54 -3.097,3.069 -10.831,9.917 -16.519,8.052 -0.157,-0.051 -0.302,-0.212 -0.422,-0.428 6.902,34.473 9.82,70.576 11.695,107.103 0.043,0.84 -0.604,1.557 -1.444,1.601 -0.84,0.043 -1.558,-0.604 -1.601,-1.445 -1.768,-34.448 -4.457,-68.519 -10.576,-101.188 -3.269,4.318 -11.857,5.736 -15.741,6.165 -1.205,0.133 -1.176,-0.965 -0.767,-1.5 3.959,-5.186 9.04,-8.281 15.833,-8.187 -0.412,-2.111 -0.84,-4.215 -1.282,-6.311 -6.466,2.646 -16.839,-1.195 -21.44,-3.188 -1.451,-0.629 -0.722,-1.887 0.08,-2.244 6.706,-2.987 13.374,-3.618 19.988,-0.826 -0.636,-2.791 -1.3,-5.57 -1.994,-8.336 -0.115,0.086 -0.233,0.145 -0.349,0.17 -9.994,2.1 -21.375,-11.499 -25.855,-17.517 -1.246,-1.674 0.377,-2.664 1.512,-2.558 9.03,0.84 16.67,4.139 22.323,10.954 -1.028,-3.692 -2.116,-7.363 -3.266,-11.007 z"
           style="fill:#007f27"
           id="path375" />
      </g>
      <g
         id="_15"
         serif:id="1"
         transform="matrix(2,0,0,1.97609,219.039,230.771)">
        <path
           d="m 113.338,107.234 6.325,51.229 c 0.62,4.872 3.218,7.497 7.173,8.723 13.56,4.176 32.743,4.334 43.009,-4.272 1.392,-1.219 2.274,-2.907 2.453,-5.491 1.034,-16.544 1.703,-34.266 2.833,-50.864 0.559,3.858 -51.817,9.691 -61.748,1.041 z"
           style="fill:#00fdff;stroke:#000000;stroke-width:0.5px;stroke-linecap:butt;stroke-miterlimit:2"
           id="path379" />
      </g>
      <g
         transform="translate(-13.548,-70.0824)"
         id="g384">
        <path
           d="m 489.394,556.822 c 2.601,6.584 4.242,54.683 4.561,59.511 0.138,2.073 0.632,3.217 0.729,3.384 1.298,2.222 3.508,3.883 6.481,4.8 3.277,1.01 7.651,1.104 12.267,0.308 6.497,-1.12 13.484,-3.964 18.278,-7.78 3.823,-3.042 6.277,-6.749 6.786,-10.63 1.206,-9.194 -0.856,-15.692 -4.421,-20.321 -3.285,-4.265 -7.952,-6.988 -13.002,-8.61 2.83,-1.219 5.521,-2.619 7.807,-4.205 5.378,-3.733 8.591,-8.538 8.239,-14.042 -0.41,-6.433 -4.472,-11.119 -10.375,-14.272 -7.29,-3.894 -17.513,-5.369 -24.31,-5.863 -1.947,-0.141 -4.495,-0.229 -6.355,0.361 -0.826,0.262 -4.655,2.174 -6.105,5.963 -1.25,3.265 -1.22,9.777 -0.58,11.396 z m 13.088,59.061 -0.009,-0.114 c -0.291,-4.4 -0.767,-17.736 -1.239,-31.811 3.991,-0.258 10.308,-0.311 16.202,1.344 3.791,1.065 7.438,2.835 9.876,6.001 2.445,3.175 3.547,7.696 2.72,14.002 -0.251,1.918 -1.749,3.557 -3.638,5.061 -3.772,3.002 -9.301,5.165 -14.412,6.046 -2.673,0.461 -5.229,0.578 -7.325,0.185 -0.855,-0.161 -1.646,-0.317 -2.175,-0.714 z m -2.614,-68.301 c 0.67,-0.005 1.463,-10e-4 1.947,0.034 5.835,0.425 14.649,1.536 20.907,4.878 3.132,1.673 5.66,3.874 5.878,7.287 0.1,1.564 -0.677,2.897 -1.8,4.119 -1.647,1.793 -4.018,3.303 -6.653,4.631 -6.373,3.212 -14.256,5.253 -19.216,6.343 -0.302,-9.052 -0.585,-17.682 -0.801,-23.678 -0.035,-0.969 -0.163,-2.515 -0.262,-3.614 z"
           style="fill:#16a4a5"
           id="path382" />
      </g>
      <g
         transform="translate(285.756,-56.2026)"
         id="g388">
        <path
           d="m 283.555,499.51 c 2.772,5.585 -114.095,17.538 -125.115,0"
           style="fill:none;stroke:#000000;stroke-width:2.44px"
           id="path386" />
      </g>
      <g
         transform="matrix(2,0,0,2,219.039,228.223)"
         id="g392">
        <path
           d="m 161.694,149.54 c -0.572,3.569 -2.501,10.715 -0.344,13.381 1.026,1.289 5.567,-3.231 5.925,-3.672 0.551,-0.676 0.544,-3.018 0.834,-4.121 1.798,-6.69 4.127,-28.794 2.26,-35.76 -0.358,-1.316 0.806,-5.616 0.117,-6.47 -0.916,-1.144 -4.148,0.282 -4.63,0.957 -1.564,11.39 -2.212,23.662 -4.155,35.678 z"
           style="fill:#3addde"
           id="path390" />
      </g>
      <g
         transform="matrix(2,0,0,2,219.039,228.223)"
         id="g396">
        <path
           d="m 173.718,109.776 c -0.545,3.184 -0.366,5.823 -4.479,10.019 -4.196,4.272 -11.217,11.369 -17.577,14.187 -6.498,2.873 -11.383,4.486 -22.745,4.196 -5.436,-0.138 -10.549,-4.547 -13.56,-9.977 -2.846,-5.133 -3.762,-11.093 -1.605,-15.007 l -0.187,-1.481 c -0.089,0.041 -0.165,0.103 -0.234,0.199 -3.038,4.403 -2.012,11.128 1.123,16.799 3.142,5.664 8.468,10.363 14.435,10.521 11.459,0.283 16.62,-1.398 23.166,-4.292 6.69,-2.949 13.704,-10.122 17.9,-14.408 4.286,-4.361 4.245,-7.531 4.769,-10.576 0.055,-0.331 -0.2,-0.627 -0.531,-0.621 -0.241,0.007 -0.448,0.193 -0.482,0.448 z"
           style="fill:#3f3f3f"
           id="path394" />
      </g>
      <g
         transform="matrix(2,0,0,2,219.039,228.223)"
         id="g400">
        <path
           d="m 174.283,110.052 c -0.545,3.17 -0.366,5.822 -4.479,10.019 -4.196,4.271 -11.217,11.368 -17.577,14.187 -6.512,2.873 -11.383,4.485 -22.745,4.196 -1.757,-0.042 -3.493,-0.545 -5.126,-1.371 -3.638,-1.654 -6.849,-5.003 -8.992,-8.875 -2.846,-5.113 -3.762,-11.052 -1.626,-14.966 l -0.097,-0.647 c -2.715,4.389 -1.66,10.9 1.385,16.398 2.116,3.818 5.23,7.194 8.854,9.04 1.585,0.724 3.28,1.158 5.016,1.206 11.459,0.283 16.62,-1.398 23.165,-4.292 6.691,-2.949 13.705,-10.122 17.901,-14.408 4.286,-4.362 4.245,-7.531 4.768,-10.577 0.021,-0.117 0,-0.234 -0.048,-0.337 -0.213,0.048 -0.379,0.213 -0.406,0.434 z"
           style="fill:#686868"
           id="path398" />
      </g>
      <g
         transform="matrix(2,0,0,2,219.039,228.223)"
         id="g404">
        <path
           d="m 114.647,128.663 c 3.087,5.698 8.441,10.259 14.408,10.404 11.458,0.289 16.716,-1.605 23.268,-4.499 l 0.29,-0.248 c -6.546,2.893 -11.914,4.961 -23.372,4.678 -5.967,-0.152 -11.293,-4.851 -14.435,-10.521 -2.894,-5.223 -3.983,-11.356 -1.757,-15.724 0.117,-0.289 0.647,-0.978 0.124,-0.455 -2.619,4.555 -1.585,10.722 1.481,16.358 z"
           style="fill:#c5c5c5"
           id="path402" />
      </g>
    </g>
  </g>
</svg>
