<?xml version="1.0" encoding="UTF-8" standalone="no"?>
<!-- Created with Inkscape (http://www.inkscape.org/) -->

<svg
   width="17.026407mm"
   height="24.069168mm"
   viewBox="0 0 17.026407 24.069168"
   version="1.1"
   id="svg1879"
   sodipodi:docname="2023-DE-02-taskbody-sprig.svg"
   inkscape:version="1.1.1 (3bf5ae0d25, 2021-09-20)"
   xmlns:inkscape="http://www.inkscape.org/namespaces/inkscape"
   xmlns:sodipodi="http://sodipodi.sourceforge.net/DTD/sodipodi-0.dtd"
   xmlns="http://www.w3.org/2000/svg"
   xmlns:svg="http://www.w3.org/2000/svg">
  <sodipodi:namedview
     id="namedview1881"
     pagecolor="#ffffff"
     bordercolor="#666666"
     borderopacity="1.0"
     inkscape:pageshadow="2"
     inkscape:pageopacity="0.0"
     inkscape:pagecheckerboard="0"
     inkscape:document-units="mm"
     showgrid="false"
     inkscape:zoom="11.573962"
     inkscape:cx="42.29321"
     inkscape:cy="16.718562"
     inkscape:window-width="1920"
     inkscape:window-height="1001"
     inkscape:window-x="-9"
     inkscape:window-y="-9"
     inkscape:window-maximized="1"
     inkscape:current-layer="layer1" />
  <defs
     id="defs1876" />
  <g
     inkscape:label="Ebene 1"
     inkscape:groupmode="layer"
     id="layer1"
     transform="translate(-41.962166,-61.849653)">
    <g
       transform="matrix(0.26458333,0,0,0.26458333,-48.80608,-46.897691)"
       id="g147"
       style="clip-rule:evenodd;fill-rule:evenodd;stroke-linecap:round;stroke-linejoin:round;stroke-miterlimit:1.5">
      <path
         d="m 370.654,450.669 c -12.653,-4.056 -16.941,-27.27 -18.209,-37.182 -0.352,-2.758 2.114,-2.855 3.334,-1.995 11.817,8.339 17.851,22.955 17.919,38.694 0.574,1.828 1.133,3.662 1.677,5.504 1.408,-10.277 6.15,-18.265 14.822,-23.391 0.981,-0.58 2.872,-0.377 2.459,1.668 -1.477,7.332 -5.94,24.404 -15.809,26.856 1.146,4.115 2.22,8.259 3.227,12.431 3.722,-6.645 9.696,-10.254 17.201,-11.802 0.86,-0.178 2.186,0.42 1.374,1.776 -2.799,4.674 -9.861,15.09 -17.333,15.332 0.171,0.756 0.34,1.512 0.508,2.271 0.371,0.419 0.583,1.479 0.487,2.236 0.312,1.453 0.617,2.91 0.916,4.373 0.019,-0.112 0.055,-0.207 0.107,-0.275 4.213,-5.476 9.866,-7.53 16.46,-7.346 0.674,0.019 1.546,0.686 0.685,1.54 -3.097,3.069 -10.831,9.917 -16.519,8.052 -0.157,-0.051 -0.302,-0.212 -0.422,-0.428 l 2.21612,11.39765 c 0.043,0.84 -0.604,1.557 -1.444,1.601 -0.84,0.043 -1.558,-0.604 -1.601,-1.445 L 381.612,495.054 c -3.269,4.318 -11.857,5.736 -15.741,6.165 -1.205,0.133 -1.176,-0.965 -0.767,-1.5 3.959,-5.186 9.04,-8.281 15.833,-8.187 -0.412,-2.111 -0.84,-4.215 -1.282,-6.311 -6.466,2.646 -16.839,-1.195 -21.44,-3.188 -1.451,-0.629 -0.722,-1.887 0.08,-2.244 6.706,-2.987 13.374,-3.618 19.988,-0.826 -0.636,-2.791 -1.3,-5.57 -1.994,-8.336 -0.115,0.086 -0.233,0.145 -0.349,0.17 -9.994,2.1 -21.375,-11.499 -25.855,-17.517 -1.246,-1.674 0.377,-2.664 1.512,-2.558 9.03,0.84 16.67,4.139 22.323,10.954 -1.028,-3.692 -2.116,-7.363 -3.266,-11.007 z"
         style="fill:#007f27"
         id="path145"
         sodipodi:nodetypes="ccccccccccscccccccccccccscccccccccccc" />
    </g>
  </g>
</svg>
