<?xml version="1.0" encoding="UTF-8" standalone="no"?>
<!DOCTYPE svg PUBLIC "-//W3C//DTD SVG 1.1//EN" "http://www.w3.org/Graphics/SVG/1.1/DTD/svg11.dtd">
<svg width="100%" height="100%" viewBox="0 0 1085 1109" version="1.1" xmlns="http://www.w3.org/2000/svg" xmlns:xlink="http://www.w3.org/1999/xlink" xml:space="preserve" xmlns:serif="http://www.serif.com/" style="fill-rule:evenodd;clip-rule:evenodd;stroke-linecap:round;stroke-linejoin:round;stroke-miterlimit:1.5;">
    <g transform="matrix(1,0,0,1,-450.874,-1174.36)">
        <g transform="matrix(0.849853,0,0,0.780504,424.683,732.828)">
            <path d="M730.275,1093.36L905.733,1193.37L730.275,1293.38L554.817,1193.37L730.275,1093.36Z" style="fill:rgb(226,255,235);stroke:black;stroke-width:1.96px;"/>
        </g>
        <g transform="matrix(0.849853,0,0,0.780504,102.545,1272.87)">
            <path d="M730.275,1093.36L905.733,1193.37L730.275,1293.38L554.817,1193.37L730.275,1093.36Z" style="fill:rgb(226,255,235);stroke:black;stroke-width:1.96px;"/>
        </g>
        <g transform="matrix(1,0,0,1,710.662,626.651)">
            <path d="M697.514,1354.95L697.711,1356.31L697.514,1357.68L697.318,1356.31L697.514,1354.95Z" style="fill:rgb(226,255,235);"/>
        </g>
        <g transform="matrix(3.59395,0,0,0.507772,-1812.46,1005.04)">
            <rect x="750.849" y="712.323" width="88.623" height="251.51" style="fill:rgb(226,255,235);stroke:black;stroke-width:0.62px;"/>
        </g>
        <g transform="matrix(2.35934,0,0,0.342437,-821.716,931.238)">
            <path d="M839.473,838.078C839.473,768.672 831.294,712.323 821.221,712.323L769.102,712.323C759.028,712.323 750.849,768.672 750.849,838.078C750.849,907.484 759.028,963.833 769.102,963.833L821.221,963.833C831.294,963.833 839.473,907.484 839.473,838.078Z" style="fill:rgb(226,255,235);stroke:black;stroke-width:0.95px;"/>
        </g>
        <g transform="matrix(2.02632,0,0,0.342437,-565.938,1917.31)">
            <path d="M839.473,838.078C839.473,768.672 829.95,712.323 818.221,712.323L772.101,712.323C760.372,712.323 750.849,768.672 750.849,838.078C750.849,907.484 760.372,963.833 772.101,963.833L818.221,963.833C829.95,963.833 839.473,907.484 839.473,838.078Z" style="fill:rgb(226,255,235);stroke:black;stroke-width:1.1px;"/>
        </g>
        <g transform="matrix(3.59395,0,0,0.507772,-2134.6,1523.04)">
            <rect x="750.849" y="712.323" width="88.623" height="251.51" style="fill:rgb(226,255,235);stroke:black;stroke-width:0.62px;"/>
        </g>
        <g transform="matrix(3.59395,0,0,0.507772,-1482.05,1375.74)">
            <rect x="750.849" y="712.323" width="88.623" height="251.51" style="fill:rgb(226,255,235);stroke:black;stroke-width:0.62px;"/>
        </g>
        <g transform="matrix(1,0,0,1,0.352794,3.74418)">
            <path d="M1216.47,1797.55L722.632,1797.55" style="fill:none;stroke:black;stroke-width:1.6px;"/>
        </g>
        <g transform="matrix(1,0,0,1,1820.73,388.728)">
            <g transform="matrix(0.647762,0,0,0.647762,-838.506,683.683)">
                <path d="M190.355,621.424C190.293,621.408 182.364,618.962 181.425,618.516C177.488,616.644 174.221,613.633 172.248,609.724C171.223,607.695 170.535,605.508 170.125,603.275C170.121,603.251 169.814,601.439 169.836,601.428L169.872,601.41L169.822,601.4C165.599,570.433 156.393,510.195 155.465,499.392C155.371,498.301 156.307,498.012 156.961,497.626C166.339,492.08 182.129,491.038 189.57,490.136C210.409,487.61 231.749,487.083 252.685,488.648C261.122,489.279 270.309,489.896 278.247,493.099C280.519,494.016 283.691,495.555 283.911,498.405C283.958,499.013 284.193,500.024 283.635,500.229L283.043,509.14L281.886,527.826L281.348,537.169L280.99,543.371L280.811,546.485L277.259,604.711C276.137,607.197 276.996,608.089 269.077,613.938C267.576,615.047 254.626,620.816 253.608,621.148C236.978,626.575 218.627,626.565 201.504,623.766C197.755,623.154 194.035,622.367 190.355,621.424ZM281.136,499.212L281.134,499.221C281.116,499.244 281.071,499.372 281.059,499.424C281.044,499.484 281.044,499.546 281.045,499.608L280.425,508.947L279.267,527.633L278.192,546.32L274.044,602.374L274.041,602.386C274.04,602.396 274.039,602.406 274.038,602.416L274.039,602.451L273.946,603.709C272.98,607.905 265.909,612.593 264.591,613.376C260.877,615.583 256.883,617.309 252.781,618.654C240.188,622.783 226.537,623.552 213.396,622.554C205.847,621.98 198.351,620.756 191.017,618.874C190.681,618.788 183.162,616.49 182.528,616.187C180.147,615.05 178.017,613.446 176.368,611.378C174.748,609.345 173.675,606.916 173.047,604.405C172.846,603.6 172.69,602.785 172.564,601.965C172.52,601.677 172.727,601.154 172.44,601.097L172.427,601.095L172.427,601.084C169.122,567.27 164.966,533.528 159.969,499.922C162.25,499.476 166.427,497.189 168.127,496.723C175.246,494.773 182.595,493.644 189.914,492.768C209.044,490.48 228.516,489.927 247.751,490.991C255.89,491.441 264.152,492.084 272.101,493.981C276.633,495.062 278.515,497.333 281.136,499.212ZM281.141,499.218L281.149,499.221L281.141,499.215L281.141,499.218Z" style="fill-rule:nonzero;"/>
                <g id="_1" serif:id="1" transform="matrix(2,0,0,2,-68.5097,285.764)">
                    <path d="M118.409,109.797C130.633,112.953 172.904,112.422 175.289,106.752C173.424,103.535 161.771,102.095 149.04,101.924C143.683,101.852 138.136,102.005 133.047,102.344C123.729,102.965 116.218,105.175 113.949,106.814C112.358,107.964 113.206,108.342 118.409,109.797Z" style="fill:rgb(189,19,19);"/>
                </g>
                <g transform="matrix(2,0,0,2,-68.1954,284.309)">
                    <path d="M126.774,111.065C129.861,111.368 130.006,111.437 133.361,111.506C133.354,109.728 133.327,107.585 133.279,105.622C133.823,103.3 132.968,103.706 130.936,103.747C123.536,103.913 126.698,105.408 126.774,111.058L126.774,111.065Z" style="fill:rgb(204,81,81);"/>
                </g>
                <g transform="matrix(2,0,0,2,-68.1954,284.309)">
                    <path d="M163.699,103.265L169.025,103.995C184.108,106.607 166.593,111.189 165.849,109.48C163.809,107.441 165.442,105.47 163.699,103.265Z" style="fill:rgb(135,24,24);"/>
                </g>
            </g>
            <g id="_11" serif:id="1" transform="matrix(1.29552,0,0,1.28004,-882.681,869.498)">
                <path d="M113.338,107.234L119.663,158.463C120.283,163.335 122.881,165.96 126.836,167.186C140.396,171.362 159.579,171.52 169.845,162.914C171.237,161.695 172.119,160.007 172.298,157.423C173.332,140.879 174.001,123.157 175.131,106.559C175.69,110.417 123.314,116.25 113.383,107.6L113.338,107.234Z" style="fill:rgb(255,0,0);"/>
            </g>
            <g transform="matrix(0.58538,0,0,0.543147,-825.85,742.387)">
                <path d="M204.92,578.085C214.042,580.514 223.34,579.646 232.617,577.321C235.975,587.143 239.596,596.894 244.194,606.576C245.276,608.856 248.006,609.828 250.286,608.746C252.566,607.663 253.538,604.933 252.456,602.653C245.543,588.093 241.962,574.805 237.03,559.928C232.806,547.186 226.973,532.895 224.129,519.932C223.694,517.945 221.997,516.484 219.967,516.349C217.936,516.214 216.061,517.436 215.365,519.348C210.122,533.755 205.344,548.164 200.533,562.501C196.173,575.496 191.785,588.433 186.998,601.255C186.115,603.62 187.318,606.256 189.683,607.139C192.047,608.021 194.684,606.818 195.566,604.454C198.83,595.712 201.909,586.917 204.92,578.085ZM229.701,568.625C228.901,566.21 228.105,563.791 227.302,561.367C224.553,553.076 221.583,544.737 219.036,536.352C215.206,547.392 211.555,558.42 207.86,569.399C215.059,571.183 222.384,570.411 229.701,568.625Z" style="fill:rgb(178,0,0);"/>
            </g>
            <g transform="matrix(0.647762,0,0,0.647762,-839.464,683.607)">
                <path d="M283.555,499.51C286.327,505.095 169.46,517.048 158.44,499.51" style="fill:none;stroke:black;stroke-width:3.77px;"/>
            </g>
            <g transform="matrix(1.29552,0,0,1.29552,-882.681,867.848)">
                <path d="M161.694,149.54C161.122,153.109 159.193,160.255 161.35,162.921C162.376,164.21 166.917,159.69 167.275,159.249C167.826,158.573 167.819,156.231 168.109,155.128C169.907,148.438 172.236,126.334 170.369,119.368C170.011,118.052 171.175,113.752 170.486,112.898C169.57,111.754 166.338,113.18 165.856,113.855C164.292,125.245 163.644,137.517 161.701,149.533L161.694,149.54Z" style="fill:rgb(255,90,90);"/>
            </g>
            <g transform="matrix(1.29552,0,0,1.29552,-882.681,867.848)">
                <path d="M173.718,109.776C173.173,112.96 173.352,115.599 169.239,119.795C165.043,124.067 158.022,131.164 151.662,133.982C145.164,136.855 140.279,138.468 128.917,138.178C123.481,138.04 118.368,133.631 115.357,128.201C112.511,123.068 111.595,117.108 113.752,113.194L113.565,111.713C113.476,111.754 113.4,111.816 113.331,111.912C110.293,116.315 111.319,123.04 114.454,128.711C117.596,134.375 122.922,139.074 128.889,139.232C140.348,139.515 145.509,137.834 152.055,134.94C158.745,131.991 165.759,124.818 169.955,120.532C174.241,116.171 174.2,113.001 174.724,109.956C174.779,109.625 174.524,109.329 174.193,109.335C173.952,109.342 173.745,109.528 173.711,109.783L173.718,109.776Z" style="fill:rgb(63,63,63);"/>
            </g>
            <g transform="matrix(1.29552,0,0,1.29552,-882.681,867.848)">
                <path d="M174.283,110.052C173.738,113.222 173.917,115.874 169.804,120.071C165.608,124.342 158.587,131.439 152.227,134.258C145.715,137.131 140.844,138.743 129.482,138.454C127.725,138.412 125.989,137.909 124.356,137.083C120.718,135.429 117.507,132.08 115.364,128.208C112.518,123.095 111.602,117.156 113.738,113.242L113.641,112.595C110.926,116.984 111.981,123.495 115.026,128.993C117.142,132.811 120.256,136.187 123.88,138.033C125.465,138.757 127.16,139.191 128.896,139.239C140.355,139.522 145.516,137.841 152.061,134.947C158.752,131.998 165.766,124.825 169.962,120.539C174.248,116.177 174.207,113.008 174.73,109.962C174.751,109.845 174.73,109.728 174.682,109.625C174.469,109.673 174.303,109.838 174.276,110.059L174.283,110.052Z" style="fill:rgb(104,104,104);"/>
            </g>
            <g transform="matrix(1.29552,0,0,1.29552,-882.681,867.848)">
                <path d="M114.647,128.663C117.734,134.361 123.088,138.922 129.055,139.067C140.513,139.356 145.771,137.462 152.323,134.568L152.613,134.32C146.067,137.213 140.699,139.281 129.241,138.998C123.274,138.846 117.948,134.147 114.806,128.477C111.912,123.254 110.823,117.121 113.049,112.753C113.166,112.464 113.696,111.775 113.173,112.298C110.554,116.853 111.588,123.02 114.654,128.656L114.647,128.663Z" style="fill:rgb(197,197,197);"/>
            </g>
        </g>
        <g transform="matrix(1,0,0,1,2151.14,759.43)">
            <g transform="matrix(0.647762,0,0,0.647762,-838.506,683.683)">
                <path d="M190.355,621.424C190.293,621.408 182.364,618.962 181.425,618.516C177.488,616.644 174.221,613.633 172.248,609.724C171.223,607.695 170.535,605.508 170.125,603.275C170.121,603.251 169.814,601.439 169.836,601.428L169.872,601.41L169.822,601.4C165.599,570.433 156.393,510.195 155.465,499.392C155.371,498.301 156.307,498.012 156.961,497.626C166.339,492.08 182.129,491.038 189.57,490.136C210.409,487.61 231.749,487.083 252.685,488.648C261.122,489.279 270.309,489.896 278.247,493.099C280.519,494.016 283.691,495.555 283.911,498.405C283.958,499.013 284.193,500.024 283.635,500.229L283.043,509.14L281.886,527.826L281.348,537.169L280.99,543.371L280.811,546.485L277.259,604.711C276.137,607.197 276.996,608.089 269.077,613.938C267.576,615.047 254.626,620.816 253.608,621.148C236.978,626.575 218.627,626.565 201.504,623.766C197.755,623.154 194.035,622.367 190.355,621.424ZM281.136,499.212L281.134,499.221C281.116,499.244 281.071,499.372 281.059,499.424C281.044,499.484 281.044,499.546 281.045,499.608L280.425,508.947L279.267,527.633L278.192,546.32L274.044,602.374L274.041,602.386C274.04,602.396 274.039,602.406 274.038,602.416L274.039,602.451L273.946,603.709C272.98,607.905 265.909,612.593 264.591,613.376C260.877,615.583 256.883,617.309 252.781,618.654C240.188,622.783 226.537,623.552 213.396,622.554C205.847,621.98 198.351,620.756 191.017,618.874C190.681,618.788 183.162,616.49 182.528,616.187C180.147,615.05 178.017,613.446 176.368,611.378C174.748,609.345 173.675,606.916 173.047,604.405C172.846,603.6 172.69,602.785 172.564,601.965C172.52,601.677 172.727,601.154 172.44,601.097L172.427,601.095L172.427,601.084C169.122,567.27 164.966,533.528 159.969,499.922C162.25,499.476 166.427,497.189 168.127,496.723C175.246,494.773 182.595,493.644 189.914,492.768C209.044,490.48 228.516,489.927 247.751,490.991C255.89,491.441 264.152,492.084 272.101,493.981C276.633,495.062 278.515,497.333 281.136,499.212ZM281.141,499.218L281.149,499.221L281.141,499.215L281.141,499.218Z" style="fill-rule:nonzero;"/>
                <g id="_12" serif:id="1" transform="matrix(2,0,0,2,-68.5097,285.764)">
                    <path d="M118.409,109.797C130.633,112.953 172.904,112.422 175.289,106.752C173.424,103.535 161.771,102.095 149.04,101.924C143.683,101.852 138.136,102.005 133.047,102.344C123.729,102.965 116.218,105.175 113.949,106.814C112.358,107.964 113.206,108.342 118.409,109.797Z" style="fill:rgb(189,19,19);"/>
                </g>
                <g transform="matrix(2,0,0,2,-68.1954,284.309)">
                    <path d="M126.774,111.065C129.861,111.368 130.006,111.437 133.361,111.506C133.354,109.728 133.327,107.585 133.279,105.622C133.823,103.3 132.968,103.706 130.936,103.747C123.536,103.913 126.698,105.408 126.774,111.058L126.774,111.065Z" style="fill:rgb(204,81,81);"/>
                </g>
                <g transform="matrix(2,0,0,2,-68.1954,284.309)">
                    <path d="M163.699,103.265L169.025,103.995C184.108,106.607 166.593,111.189 165.849,109.48C163.809,107.441 165.442,105.47 163.699,103.265Z" style="fill:rgb(135,24,24);"/>
                </g>
            </g>
            <g id="_13" serif:id="1" transform="matrix(1.29552,0,0,1.28004,-882.681,869.498)">
                <path d="M113.338,107.234L119.663,158.463C120.283,163.335 122.881,165.96 126.836,167.186C140.396,171.362 159.579,171.52 169.845,162.914C171.237,161.695 172.119,160.007 172.298,157.423C173.332,140.879 174.001,123.157 175.131,106.559C175.69,110.417 123.314,116.25 113.383,107.6L113.338,107.234Z" style="fill:rgb(255,0,0);"/>
            </g>
            <g transform="matrix(0.58538,0,0,0.543147,-825.85,742.387)">
                <path d="M204.92,578.085C214.042,580.514 223.34,579.646 232.617,577.321C235.975,587.143 239.596,596.894 244.194,606.576C245.276,608.856 248.006,609.828 250.286,608.746C252.566,607.663 253.538,604.933 252.456,602.653C245.543,588.093 241.962,574.805 237.03,559.928C232.806,547.186 226.973,532.895 224.129,519.932C223.694,517.945 221.997,516.484 219.967,516.349C217.936,516.214 216.061,517.436 215.365,519.348C210.122,533.755 205.344,548.164 200.533,562.501C196.173,575.496 191.785,588.433 186.998,601.255C186.115,603.62 187.318,606.256 189.683,607.139C192.047,608.021 194.684,606.818 195.566,604.454C198.83,595.712 201.909,586.917 204.92,578.085ZM229.701,568.625C228.901,566.21 228.105,563.791 227.302,561.367C224.553,553.076 221.583,544.737 219.036,536.352C215.206,547.392 211.555,558.42 207.86,569.399C215.059,571.183 222.384,570.411 229.701,568.625Z" style="fill:rgb(178,0,0);"/>
            </g>
            <g transform="matrix(0.647762,0,0,0.647762,-839.464,683.607)">
                <path d="M283.555,499.51C286.327,505.095 169.46,517.048 158.44,499.51" style="fill:none;stroke:black;stroke-width:3.77px;"/>
            </g>
            <g transform="matrix(1.29552,0,0,1.29552,-882.681,867.848)">
                <path d="M161.694,149.54C161.122,153.109 159.193,160.255 161.35,162.921C162.376,164.21 166.917,159.69 167.275,159.249C167.826,158.573 167.819,156.231 168.109,155.128C169.907,148.438 172.236,126.334 170.369,119.368C170.011,118.052 171.175,113.752 170.486,112.898C169.57,111.754 166.338,113.18 165.856,113.855C164.292,125.245 163.644,137.517 161.701,149.533L161.694,149.54Z" style="fill:rgb(255,90,90);"/>
            </g>
            <g transform="matrix(1.29552,0,0,1.29552,-882.681,867.848)">
                <path d="M173.718,109.776C173.173,112.96 173.352,115.599 169.239,119.795C165.043,124.067 158.022,131.164 151.662,133.982C145.164,136.855 140.279,138.468 128.917,138.178C123.481,138.04 118.368,133.631 115.357,128.201C112.511,123.068 111.595,117.108 113.752,113.194L113.565,111.713C113.476,111.754 113.4,111.816 113.331,111.912C110.293,116.315 111.319,123.04 114.454,128.711C117.596,134.375 122.922,139.074 128.889,139.232C140.348,139.515 145.509,137.834 152.055,134.94C158.745,131.991 165.759,124.818 169.955,120.532C174.241,116.171 174.2,113.001 174.724,109.956C174.779,109.625 174.524,109.329 174.193,109.335C173.952,109.342 173.745,109.528 173.711,109.783L173.718,109.776Z" style="fill:rgb(63,63,63);"/>
            </g>
            <g transform="matrix(1.29552,0,0,1.29552,-882.681,867.848)">
                <path d="M174.283,110.052C173.738,113.222 173.917,115.874 169.804,120.071C165.608,124.342 158.587,131.439 152.227,134.258C145.715,137.131 140.844,138.743 129.482,138.454C127.725,138.412 125.989,137.909 124.356,137.083C120.718,135.429 117.507,132.08 115.364,128.208C112.518,123.095 111.602,117.156 113.738,113.242L113.641,112.595C110.926,116.984 111.981,123.495 115.026,128.993C117.142,132.811 120.256,136.187 123.88,138.033C125.465,138.757 127.16,139.191 128.896,139.239C140.355,139.522 145.516,137.841 152.061,134.947C158.752,131.998 165.766,124.825 169.962,120.539C174.248,116.177 174.207,113.008 174.73,109.962C174.751,109.845 174.73,109.728 174.682,109.625C174.469,109.673 174.303,109.838 174.276,110.059L174.283,110.052Z" style="fill:rgb(104,104,104);"/>
            </g>
            <g transform="matrix(1.29552,0,0,1.29552,-882.681,867.848)">
                <path d="M114.647,128.663C117.734,134.361 123.088,138.922 129.055,139.067C140.513,139.356 145.771,137.462 152.323,134.568L152.613,134.32C146.067,137.213 140.699,139.281 129.241,138.998C123.274,138.846 117.948,134.147 114.806,128.477C111.912,123.254 110.823,117.121 113.049,112.753C113.166,112.464 113.696,111.775 113.173,112.298C110.554,116.853 111.588,123.02 114.654,128.656L114.647,128.663Z" style="fill:rgb(197,197,197);"/>
            </g>
        </g>
        <g transform="matrix(0.650029,0,0,0.650029,671.369,1591.04)">
            <path d="M190.355,621.424C190.293,621.408 182.364,618.962 181.425,618.516C177.488,616.644 174.221,613.633 172.248,609.724C171.223,607.695 170.535,605.508 170.125,603.275C170.121,603.251 169.814,601.439 169.836,601.428L169.872,601.41L169.822,601.4C165.599,570.433 156.393,510.195 155.465,499.392C155.371,498.301 156.307,498.012 156.961,497.626C166.339,492.08 182.129,491.038 189.57,490.136C210.409,487.61 231.749,487.083 252.685,488.648C261.122,489.279 270.309,489.896 278.247,493.099C280.519,494.016 283.691,495.555 283.911,498.405C283.958,499.013 284.193,500.024 283.635,500.229L283.043,509.14L281.886,527.826L281.348,537.169L280.99,543.371L280.811,546.485L277.259,604.711C276.137,607.197 276.996,608.089 269.077,613.938C267.576,615.047 254.626,620.816 253.608,621.148C236.978,626.575 218.627,626.565 201.504,623.766C197.755,623.154 194.035,622.367 190.355,621.424ZM281.136,499.212L281.134,499.221C281.116,499.244 281.071,499.372 281.059,499.424C281.044,499.484 281.044,499.546 281.045,499.608L280.425,508.947L279.267,527.633L278.192,546.32L274.044,602.374L274.041,602.386C274.04,602.396 274.039,602.406 274.038,602.416L274.039,602.451L273.946,603.709C272.98,607.905 265.909,612.593 264.591,613.376C260.877,615.583 256.883,617.309 252.781,618.654C240.188,622.783 226.537,623.552 213.396,622.554C205.847,621.98 198.351,620.756 191.017,618.874C190.681,618.788 183.162,616.49 182.528,616.187C180.147,615.05 178.017,613.446 176.368,611.378C174.748,609.345 173.675,606.916 173.047,604.405C172.846,603.6 172.69,602.785 172.564,601.965C172.52,601.677 172.727,601.154 172.44,601.097L172.427,601.095L172.427,601.084C169.122,567.27 164.966,533.528 159.969,499.922C162.25,499.476 166.427,497.189 168.127,496.723C175.246,494.773 182.595,493.644 189.914,492.768C209.044,490.48 228.516,489.927 247.751,490.991C255.89,491.441 264.152,492.084 272.101,493.981C276.633,495.062 278.515,497.333 281.136,499.212ZM281.141,499.218L281.149,499.221L281.141,499.215L281.141,499.218Z" style="fill-rule:nonzero;"/>
        </g>
        <g id="_14" serif:id="1" transform="matrix(1.30006,0,0,1.30006,626.836,1776.8)">
            <path d="M118.409,109.797C130.633,112.953 172.904,112.422 175.289,106.752C173.424,103.535 161.771,102.095 149.04,101.924C143.683,101.852 138.136,102.005 133.047,102.344C123.729,102.965 116.218,105.175 113.949,106.814C112.358,107.964 113.206,108.342 118.409,109.797Z" style="fill:rgb(75,179,179);"/>
        </g>
        <g transform="matrix(1.30006,0,0,1.30006,627.04,1775.85)">
            <path d="M126.774,111.065C129.861,111.368 130.006,111.437 133.361,111.506C133.354,109.728 133.327,107.585 133.279,105.622C133.823,103.3 132.968,103.706 130.936,103.747C123.536,103.913 126.698,105.408 126.774,111.058L126.774,111.065Z" style="fill:rgb(65,142,142);"/>
        </g>
        <g transform="matrix(1.30006,0,0,1.30006,627.04,1775.85)">
            <path d="M163.699,103.265L169.025,103.995C184.108,106.607 166.593,111.189 165.849,109.48C163.809,107.441 165.442,105.47 163.699,103.265Z" style="fill:rgb(47,105,106);"/>
        </g>
        <g transform="matrix(33.438,0,0,33.438,-11121.6,-26356.5)">
            <text x="360.068px" y="831.358px" style="font-family:'ArialMT', 'Arial', sans-serif;font-size:1px;">wähle aus</text>
        </g>
        <g transform="matrix(33.438,0,0,33.438,-11021.6,-26568.8)">
            <text x="360.068px" y="831.358px" style="font-family:'ArialMT', 'Arial', sans-serif;font-size:1px;">Start</text>
        </g>
        <g transform="matrix(33.438,0,0,33.438,-10805.8,-26151.8)">
            <text x="360.068px" y="831.358px" style="font-family:'ArialMT', 'Arial', sans-serif;font-size:1px;">ja</text>
        </g>
        <g transform="matrix(33.438,0,0,33.438,-11152.4,-25558.4)">
            <text x="360.068px" y="831.358px" style="font-family:'ArialMT', 'Arial', sans-serif;font-size:1px;">ja</text>
        </g>
        <g transform="matrix(33.438,0,0,33.438,-11550.7,-25564.4)">
            <text x="360.068px" y="831.358px" style="font-family:'ArialMT', 'Arial', sans-serif;font-size:1px;">nein</text>
        </g>
        <g transform="matrix(33.438,0,0,33.438,-11249.9,-26145.2)">
            <text x="360.068px" y="831.358px" style="font-family:'ArialMT', 'Arial', sans-serif;font-size:1px;">nein</text>
        </g>
        <g transform="matrix(33.438,0,0,33.438,-11030.6,-25582.7)">
            <text x="360.068px" y="831.358px" style="font-family:'ArialMT', 'Arial', sans-serif;font-size:1px;">Ende</text>
        </g>
        <path d="M1047.35,1261L1048.02,1366.46" style="fill:none;stroke:black;stroke-width:1.6px;"/>
        <g transform="matrix(1,0,0,1,-3.05285,219.616)">
            <path d="M1047.35,1274.84L1048.02,1366.46" style="fill:none;stroke:black;stroke-width:1.6px;"/>
        </g>
        <g transform="matrix(-1,0,0,1,1851.16,406.177)">
            <path d="M954.961,1257.95L1128.17,1258.08L1128.17,1475.95" style="fill:none;stroke:black;stroke-width:1.6px;"/>
        </g>
        <g transform="matrix(1,0,0,1,242.253,404.415)">
            <path d="M952.17,1259.84L1133.47,1259.84L1133.47,1333.03" style="fill:none;stroke:black;stroke-width:1.6px;"/>
        </g>
        <path d="M1058.32,1348.21C1054.28,1352.63 1050.87,1358.78 1048.02,1366.46C1043.88,1361.2 1040.21,1355.34 1038.41,1347.21" style="fill:none;stroke:black;stroke-width:1.6px;"/>
        <g transform="matrix(1,0,0,1,-3.05285,219.616)">
            <path d="M1058.32,1348.21C1054.28,1352.63 1050.87,1358.78 1048.02,1366.46C1043.88,1361.2 1040.21,1355.34 1038.41,1347.21" style="fill:none;stroke:black;stroke-width:1.6px;"/>
        </g>
        <g transform="matrix(1,0,0,1,-325.191,759.779)">
            <path d="M1058.32,1348.21C1054.28,1352.63 1050.87,1358.78 1048.02,1366.46C1043.88,1361.2 1040.21,1355.34 1038.41,1347.21" style="fill:none;stroke:black;stroke-width:1.6px;"/>
        </g>
        <g transform="matrix(1,0,0,1,-325.377,420.656)">
            <path d="M1058.32,1348.21C1054.28,1352.63 1050.87,1358.78 1048.02,1366.46C1043.88,1361.2 1040.21,1355.34 1038.41,1347.21" style="fill:none;stroke:black;stroke-width:1.6px;"/>
        </g>
        <g transform="matrix(1,0,0,1,-325.377,515.66)">
            <path d="M1058.32,1348.21C1054.28,1352.63 1050.87,1358.78 1048.02,1366.46C1043.88,1361.2 1040.21,1355.34 1038.41,1347.21" style="fill:none;stroke:black;stroke-width:1.6px;"/>
        </g>
        <g transform="matrix(1,0,0,1,327.36,370.978)">
            <path d="M1058.32,1348.21C1054.28,1352.63 1050.87,1358.78 1048.02,1366.46C1043.88,1361.2 1040.21,1355.34 1038.41,1347.21" style="fill:none;stroke:black;stroke-width:1.6px;"/>
        </g>
        <g transform="matrix(-6.12323e-17,-1,-1,6.12323e-17,2103.63,2849.66)">
            <path d="M1058.32,1348.21C1054.28,1352.63 1050.87,1358.78 1048.02,1366.46C1043.88,1361.2 1040.21,1355.34 1038.41,1347.21" style="fill:none;stroke:black;stroke-width:1.6px;"/>
        </g>
        <g transform="matrix(6.12323e-17,-1,1,6.12323e-17,-657.656,2849.66)">
            <path d="M1058.32,1348.21C1054.28,1352.63 1050.87,1358.78 1048.02,1366.46C1043.88,1361.2 1040.21,1355.34 1038.41,1347.21" style="fill:none;stroke:black;stroke-width:1.6px;"/>
        </g>
        <g transform="matrix(6.12323e-17,-1,1,6.12323e-17,-414.688,3250.65)">
            <path d="M1058.32,1348.21C1054.28,1352.63 1050.87,1358.78 1048.02,1366.46C1043.88,1361.2 1040.21,1355.34 1038.41,1347.21" style="fill:none;stroke:black;stroke-width:1.6px;"/>
        </g>
        <g transform="matrix(33.438,0,0,33.438,-11443.8,-25838.5)">
            <text x="360.068px" y="831.358px" style="font-family:'ArialMT', 'Arial', sans-serif;font-size:1px;">wähle aus</text>
        </g>
        <g transform="matrix(33.438,0,0,33.438,-11064.1,-26122.9)">
            <text x="360.068px" y="831.358px" style="font-family:'ArialMT', 'Arial', sans-serif;font-size:1px;">Ist         ?</text>
        </g>
        <g transform="matrix(33.438,0,0,33.438,-11410.3,-25624.1)">
            <text x="362.069px" y="831.358px" style="font-family:'ArialMT', 'Arial', sans-serif;font-size:1px;">Hat</text>
            <text x="359.54px" y="832.391px" style="font-family:'ArialMT', 'Arial', sans-serif;font-size:1px;">Blumenstrauss</text>
            <text x="361.133px" y="833.424px" style="font-family:'ArialMT', 'Arial', sans-serif;font-size:1px;">4 T<tspan x="362.449px 363.005px " y="833.424px 833.424px ">ei</tspan>le?</text>
        </g>
        <g transform="matrix(33.438,0,0,33.438,-10804.4,-26003.1)">
            <text x="360.068px" y="831.358px" style="font-family:'ArialMT', 'Arial', sans-serif;font-size:1px;">wähle</text>
            <text x="360.068px" y="832.391px" style="font-family:'ArialMT', 'Arial', sans-serif;font-size:1px;">aus</text>
        </g>
        <g id="_15" serif:id="1" transform="matrix(1.30006,0,0,1.28452,627.04,1777.51)">
            <path d="M113.338,107.234L119.663,158.463C120.283,163.335 122.881,165.96 126.836,167.186C140.396,171.362 159.579,171.52 169.845,162.914C171.237,161.695 172.119,160.007 172.298,157.423C173.332,140.879 174.001,123.157 175.131,106.559C175.69,110.417 123.314,116.25 113.383,107.6L113.338,107.234Z" style="fill:rgb(0,253,255);stroke:black;stroke-width:0.77px;stroke-linecap:butt;stroke-miterlimit:2;"/>
        </g>
        <g transform="matrix(0.650029,0,0,0.650029,475.852,1581.94)">
            <path d="M489.394,556.822C491.995,563.406 493.636,611.505 493.955,616.333C494.093,618.406 494.587,619.55 494.684,619.717C495.982,621.939 498.192,623.6 501.165,624.517C504.442,625.527 508.816,625.621 513.432,624.825C519.929,623.705 526.916,620.861 531.71,617.045C535.533,614.003 537.987,610.296 538.496,606.415C539.702,597.221 537.64,590.723 534.075,586.094C530.79,581.829 526.123,579.106 521.073,577.484C523.903,576.265 526.594,574.865 528.88,573.279C534.258,569.546 537.471,564.741 537.119,559.237C536.709,552.804 532.647,548.118 526.744,544.965C519.454,541.071 509.231,539.596 502.434,539.102C500.487,538.961 497.939,538.873 496.079,539.463C495.253,539.725 491.424,541.637 489.974,545.426C488.724,548.691 488.754,555.203 489.394,556.822ZM502.482,615.883L502.473,615.769C502.182,611.369 501.706,598.033 501.234,583.958C505.225,583.7 511.542,583.647 517.436,585.302C521.227,586.367 524.874,588.137 527.312,591.303C529.757,594.478 530.859,598.999 530.032,605.305C529.781,607.223 528.283,608.862 526.394,610.366C522.622,613.368 517.093,615.531 511.982,616.412C509.309,616.873 506.753,616.99 504.657,616.597C503.802,616.436 503.011,616.28 502.482,615.883ZM499.868,547.582C500.538,547.577 501.331,547.581 501.815,547.616C507.65,548.041 516.464,549.152 522.722,552.494C525.854,554.167 528.382,556.368 528.6,559.781C528.7,561.345 527.923,562.678 526.8,563.9C525.153,565.693 522.782,567.203 520.147,568.531C513.774,571.743 505.891,573.784 500.931,574.874C500.629,565.822 500.346,557.192 500.13,551.196C500.095,550.227 499.967,548.681 499.868,547.582Z" style="fill:rgb(22,164,165);"/>
        </g>
        <g transform="matrix(0.650029,0,0,0.650029,670.408,1590.97)">
            <path d="M283.555,499.51C286.327,505.095 169.46,517.048 158.44,499.51" style="fill:none;stroke:black;stroke-width:3.75px;"/>
        </g>
        <g transform="matrix(1.30006,0,0,1.30006,627.04,1775.85)">
            <path d="M161.694,149.54C161.122,153.109 159.193,160.255 161.35,162.921C162.376,164.21 166.917,159.69 167.275,159.249C167.826,158.573 167.819,156.231 168.109,155.128C169.907,148.438 172.236,126.334 170.369,119.368C170.011,118.052 171.175,113.752 170.486,112.898C169.57,111.754 166.338,113.18 165.856,113.855C164.292,125.245 163.644,137.517 161.701,149.533L161.694,149.54Z" style="fill:rgb(58,221,222);"/>
        </g>
        <g transform="matrix(1.30006,0,0,1.30006,627.04,1775.85)">
            <path d="M173.718,109.776C173.173,112.96 173.352,115.599 169.239,119.795C165.043,124.067 158.022,131.164 151.662,133.982C145.164,136.855 140.279,138.468 128.917,138.178C123.481,138.04 118.368,133.631 115.357,128.201C112.511,123.068 111.595,117.108 113.752,113.194L113.565,111.713C113.476,111.754 113.4,111.816 113.331,111.912C110.293,116.315 111.319,123.04 114.454,128.711C117.596,134.375 122.922,139.074 128.889,139.232C140.348,139.515 145.509,137.834 152.055,134.94C158.745,131.991 165.759,124.818 169.955,120.532C174.241,116.171 174.2,113.001 174.724,109.956C174.779,109.625 174.524,109.329 174.193,109.335C173.952,109.342 173.745,109.528 173.711,109.783L173.718,109.776Z" style="fill:rgb(63,63,63);"/>
        </g>
        <g transform="matrix(1.30006,0,0,1.30006,627.04,1775.85)">
            <path d="M174.283,110.052C173.738,113.222 173.917,115.874 169.804,120.071C165.608,124.342 158.587,131.439 152.227,134.258C145.715,137.131 140.844,138.743 129.482,138.454C127.725,138.412 125.989,137.909 124.356,137.083C120.718,135.429 117.507,132.08 115.364,128.208C112.518,123.095 111.602,117.156 113.738,113.242L113.641,112.595C110.926,116.984 111.981,123.495 115.026,128.993C117.142,132.811 120.256,136.187 123.88,138.033C125.465,138.757 127.16,139.191 128.896,139.239C140.355,139.522 145.516,137.841 152.061,134.947C158.752,131.998 165.766,124.825 169.962,120.539C174.248,116.177 174.207,113.008 174.73,109.962C174.751,109.845 174.73,109.728 174.682,109.625C174.469,109.673 174.303,109.838 174.276,110.059L174.283,110.052Z" style="fill:rgb(104,104,104);"/>
        </g>
        <g transform="matrix(1.30006,0,0,1.30006,627.04,1775.85)">
            <path d="M114.647,128.663C117.734,134.361 123.088,138.922 129.055,139.067C140.513,139.356 145.771,137.462 152.323,134.568L152.613,134.32C146.067,137.213 140.699,139.281 129.241,138.998C123.274,138.846 117.948,134.147 114.806,128.477C111.912,123.254 110.823,117.121 113.049,112.753C113.166,112.464 113.696,111.775 113.173,112.298C110.554,116.853 111.588,123.02 114.654,128.656L114.647,128.663Z" style="fill:rgb(197,197,197);"/>
        </g>
        <g transform="matrix(-1,0,0,1,1482.6,1380.69)">
            <g transform="matrix(0.942433,-0.334394,0.334394,0.942433,-193.794,51.0358)">
                <path d="M175.791,436.641C180.177,435.023 179.613,403.76 165.802,407.88C163.712,408.504 161.819,413.05 161.819,414.679C161.819,420.205 169.161,434.671 169.96,435.47C170.438,435.947 170.687,437.36 170.687,437.36C170.687,437.36 170.146,436.092 169.67,435.616C168.651,434.597 161.371,421.952 157.075,417.161C153.381,413.042 147.052,418.535 146.446,421.393C144.849,428.934 155.441,432.433 159.783,436.052C160.697,436.813 165.453,438.904 165.453,439.977C165.453,440.238 164.943,439.831 164.726,439.686C164.229,439.355 163.131,439.202 162.546,439.105C161.066,438.858 143.911,436.028 141.9,444.92C139.507,455.503 154.561,452.766 159.783,450.154C161.091,449.501 162.881,449.103 163.999,448.264C164.278,448.056 165.29,446.793 165.599,447.101C165.716,447.218 165.108,447.401 165.017,447.537C164.674,448.052 164.017,448.462 163.563,448.991C162.388,450.362 161.889,452.195 161.092,453.789C158.115,459.742 155.39,472.537 164.726,474.871C166.182,475.235 166.959,471.887 167.198,471.091C168.647,466.261 170.769,462.439 171.414,457.279C171.683,455.132 171.56,453.16 171.56,451.027C171.56,450.837 171.136,449.269 170.978,449.428C170.601,449.805 172.59,454.167 172.723,455.098C173.356,459.527 176.197,466.089 179.992,468.619C181.114,469.367 184.624,471.201 186.099,470.218C191.755,466.447 187.034,455.888 183.045,451.899C181.979,450.833 180.842,449.703 179.556,448.846C178.815,448.352 177.084,447.828 177.084,447.828C177.084,447.828 179.314,447.925 180.283,448.41C181.999,449.268 184.057,450.117 185.953,450.591C192.098,452.127 205.333,453.008 206.453,444.048C207.203,438.047 197.324,434.964 192.787,436.779C190.092,437.857 187.052,438.717 184.79,440.413C184.004,441.003 183.158,441.654 182.319,442.158C181.871,442.427 180.865,442.74 180.865,442.74C180.865,442.74 182.792,442.121 183.482,441.431C185.117,439.795 187.004,438.567 189.152,437.942C197.839,435.412 205.273,421.181 198.683,417.882C190.259,413.666 178.114,432.365 175.791,436.641Z" style="fill:rgb(255,235,168);"/>
            </g>
            <g transform="matrix(0.784737,-0.278441,0.334394,0.942433,-114.689,65.0555)">
                <ellipse cx="125.147" cy="403.563" rx="10.356" ry="7.616" style="fill:rgb(255,196,0);"/>
            </g>
        </g>
        <g transform="matrix(-1,0,0,1,1176.32,1253.3)">
            <g transform="matrix(0.942433,-0.334394,0.334394,0.942433,-193.794,51.0358)">
                <path d="M175.791,436.641C180.177,435.023 179.613,403.76 165.802,407.88C163.712,408.504 161.819,413.05 161.819,414.679C161.819,420.205 169.161,434.671 169.96,435.47C170.438,435.947 170.687,437.36 170.687,437.36C170.687,437.36 170.146,436.092 169.67,435.616C168.651,434.597 161.371,421.952 157.075,417.161C153.381,413.042 147.052,418.535 146.446,421.393C144.849,428.934 155.441,432.433 159.783,436.052C160.697,436.813 165.453,438.904 165.453,439.977C165.453,440.238 164.943,439.831 164.726,439.686C164.229,439.355 163.131,439.202 162.546,439.105C161.066,438.858 143.911,436.028 141.9,444.92C139.507,455.503 154.561,452.766 159.783,450.154C161.091,449.501 162.881,449.103 163.999,448.264C164.278,448.056 165.29,446.793 165.599,447.101C165.716,447.218 165.108,447.401 165.017,447.537C164.674,448.052 164.017,448.462 163.563,448.991C162.388,450.362 161.889,452.195 161.092,453.789C158.115,459.742 155.39,472.537 164.726,474.871C166.182,475.235 166.959,471.887 167.198,471.091C168.647,466.261 170.769,462.439 171.414,457.279C171.683,455.132 171.56,453.16 171.56,451.027C171.56,450.837 171.136,449.269 170.978,449.428C170.601,449.805 172.59,454.167 172.723,455.098C173.356,459.527 176.197,466.089 179.992,468.619C181.114,469.367 184.624,471.201 186.099,470.218C191.755,466.447 187.034,455.888 183.045,451.899C181.979,450.833 180.842,449.703 179.556,448.846C178.815,448.352 177.084,447.828 177.084,447.828C177.084,447.828 179.314,447.925 180.283,448.41C181.999,449.268 184.057,450.117 185.953,450.591C192.098,452.127 205.333,453.008 206.453,444.048C207.203,438.047 197.324,434.964 192.787,436.779C190.092,437.857 187.052,438.717 184.79,440.413C184.004,441.003 183.158,441.654 182.319,442.158C181.871,442.427 180.865,442.74 180.865,442.74C180.865,442.74 182.792,442.121 183.482,441.431C185.117,439.795 187.004,438.567 189.152,437.942C197.839,435.412 205.273,421.181 198.683,417.882C190.259,413.666 178.114,432.365 175.791,436.641Z" style="fill:rgb(255,235,168);"/>
            </g>
            <g transform="matrix(0.784737,-0.278441,0.334394,0.942433,-114.689,65.0555)">
                <ellipse cx="125.147" cy="403.563" rx="10.356" ry="7.616" style="fill:rgb(255,196,0);"/>
            </g>
        </g>
        <g transform="matrix(1,0,0,1,329.788,81.3766)">
            <circle cx="393.197" cy="1719.92" r="14.178" style="fill:rgb(226,255,235);stroke:black;stroke-width:1.6px;"/>
        </g>
        <g transform="matrix(0.810417,0,0,1,134.378,0)">
            <path d="M547.187,2204.3L391.522,2204.3L393.895,1801.3L708.808,1801.3" style="fill:none;stroke:black;stroke-width:1.76px;"/>
        </g>
        <g transform="matrix(1,0,0,0.850985,0,315.199)">
            <path d="M723.171,1994.46L723.171,2128.18" style="fill:none;stroke:black;stroke-width:1.72px;"/>
        </g>
        <path d="M872.284,2204.3L951.776,2204.3" style="fill:none;stroke:black;stroke-width:1.6px;"/>
    </g>
</svg>
