<?xml version="1.0" encoding="UTF-8" standalone="no"?>
<svg
   width="100%"
   height="100%"
   viewBox="0 0 1085 1109"
   version="1.1"
   xml:space="preserve"
   style="fill-rule:evenodd;clip-rule:evenodd;stroke-linecap:round;stroke-linejoin:round;stroke-miterlimit:1.5;"
   id="svg304"
   sodipodi:docname="2023-DE-02-explanation-fra-compatible.svg"
   inkscape:version="1.1.1 (3bf5ae0d25, 2021-09-20)"
   xmlns:inkscape="http://www.inkscape.org/namespaces/inkscape"
   xmlns:sodipodi="http://sodipodi.sourceforge.net/DTD/sodipodi-0.dtd"
   xmlns="http://www.w3.org/2000/svg"
   xmlns:svg="http://www.w3.org/2000/svg"><defs
   id="defs308">
            
        
            
        
            
        
            
            
            
            
            
            
            
            
        
            
        
            
        
            
        
            
        
            
        
            
        
            
            
            
            
            
            
            
            
        
            
        
            
        
            
        
            
        
            
        
            
        
            
        
            
        
            
        
            
        
            
        
            
        
            
        
            
        
            
        
            
        
            
        
            
        
            
        
            
            
        
            
            
        
            
        
            
        
            
        
            
        
            
        
            
        
            
        
            
            
            
        
            
        
            
        
            
            
        
            
        
            
        
            
        
            
        
            
        
            
        
                
            
                
            
                
            
                
            
                
            
                
            
                
            
                
            
                
                
                
                
            
                
            
                
            
                
            
                
            
                
                
                
                
            
                
            
                
            
                
            
                
            
                
            
                
            
                    
                
                    
                
                    
                
                    
                
                    
                
                    
                </defs><sodipodi:namedview
   id="namedview306"
   pagecolor="#ffffff"
   bordercolor="#666666"
   borderopacity="1.0"
   inkscape:pageshadow="2"
   inkscape:pageopacity="0.0"
   inkscape:pagecheckerboard="0"
   showgrid="false"
   inkscape:zoom="1.8337593"
   inkscape:cx="195.77269"
   inkscape:cy="1039.1222"
   inkscape:window-width="2048"
   inkscape:window-height="1017"
   inkscape:window-x="-8"
   inkscape:window-y="-8"
   inkscape:window-maximized="1"
   inkscape:current-layer="g302" />
    <g
   transform="translate(-450.874,-1174.36)"
   id="g302">
        <path
   d="m 1045.3094,1586.1999 149.1135,78.0582 -149.1135,78.0582 -149.11351,-78.0582 z"
   style="fill:#e2ffeb;stroke:#000000;stroke-width:1.5963px"
   id="path2" />
        <path
   d="m 723.1714,2126.2419 149.11351,78.0582 -149.11351,78.0582 -149.11351,-78.0582 z"
   style="fill:#e2ffeb;stroke:#000000;stroke-width:1.5963px"
   id="path6" />
        <path
   d="m 1408.176,1981.601 0.197,1.36 -0.197,1.37 -0.196,-1.37 z"
   style="fill:#e2ffeb"
   id="path10" />
        <rect
   x="886.05377"
   y="1366.7377"
   width="318.50662"
   height="127.70973"
   style="fill:#e2ffeb;stroke:#000000;stroke-width:0.837553px"
   id="rect14" />
        <path
   d="m 1158.8862,1218.2269 c 0,-23.7672 -19.297,-43.0631 -43.0626,-43.0631 H 992.85711 c -23.76799,0 -43.06503,19.2959 -43.06503,43.0631 0,23.7672 19.29704,43.0632 43.06503,43.0632 h 122.96649 c 23.7656,0 43.0626,-19.296 43.0626,-43.0632 z"
   style="fill:#e2ffeb;stroke:#000000;stroke-width:0.853904px"
   id="path18" />
        <path
   d="m 1135.1029,2204.2989 c 0,-23.7672 -19.2966,-43.0631 -43.0633,-43.0631 h -93.4539 c -23.76671,0 -43.06335,19.2959 -43.06335,43.0631 0,23.7672 19.29664,43.0632 43.06335,43.0632 h 93.4539 c 23.7667,0 43.0633,-19.296 43.0633,-43.0632 z"
   style="fill:#e2ffeb;stroke:#000000;stroke-width:0.916299px"
   id="path22" />
        <rect
   x="563.91376"
   y="1884.7377"
   width="318.50662"
   height="127.70973"
   style="fill:#e2ffeb;stroke:#000000;stroke-width:0.837553px"
   id="rect26" />
        <rect
   x="1216.4637"
   y="1737.4376"
   width="318.50662"
   height="127.70973"
   style="fill:#e2ffeb;stroke:#000000;stroke-width:0.837553px"
   id="rect30" />
        <path
   d="M 1216.8228,1801.2942 H 722.98479"
   style="fill:none;stroke:#000000;stroke-width:1.6px"
   id="path34" />
        <path
   d="m 1125.4161,1474.9459 c -0.04,-0.01 -5.1762,-1.5948 -5.7845,-1.8837 -2.5502,-1.2126 -4.6665,-3.1631 -5.9445,-5.6952 -0.6639,-1.3143 -1.1096,-2.7309 -1.3752,-4.1774 0,-0.015 -0.2014,-1.1893 -0.1872,-1.1964 l 0.023,-0.012 -0.032,-0.01 c -2.7355,-20.0593 -8.6988,-59.0792 -9.2999,-66.0769 -0.061,-0.7067 0.5454,-0.894 0.9691,-1.144 6.0747,-3.5925 16.3028,-4.2674 21.1228,-4.8517 13.4988,-1.6363 27.322,-1.9776 40.8835,-0.9639 5.4652,0.4087 11.4162,0.8084 16.5581,2.8832 1.4717,0.594 3.5264,1.5909 3.669,3.437 0.03,0.3939 0.1826,1.0487 -0.1788,1.1815 l -0.3835,5.7722 -0.7495,12.1041 -0.3485,6.0521 -0.2319,4.0174 -0.1159,2.0171 -2.3009,37.7166 c -0.7267,1.6103 -0.1703,2.1881 -5.2999,5.9769 -0.9723,0.7184 -9.3609,4.4553 -10.0203,4.6704 -10.7723,3.5154 -22.6593,3.5089 -33.751,1.6958 -2.4284,-0.3964 -4.8381,-0.9062 -7.2219,-1.517 z m 58.8045,-79.1643 v 0.01 c -0.012,0.015 -0.041,0.098 -0.049,0.1315 -0.01,0.039 -0.01,0.079 -0.01,0.1192 l -0.4016,6.0494 -0.7501,12.1041 -0.6964,12.1047 -2.6869,36.3097 v 0.01 c -6e-4,0.01 0,0.013 0,0.019 l 7e-4,0.023 -0.06,0.8148 c -0.6257,2.7181 -5.2061,5.7548 -6.0598,6.262 -2.4058,1.4296 -4.993,2.5476 -7.6501,3.4189 -8.1572,2.6746 -16.9998,3.1727 -25.5121,2.5262 -4.8899,-0.3718 -9.7456,-1.1647 -14.4962,-2.3837 -0.2177,-0.056 -5.0882,-1.5443 -5.4989,-1.7406 -1.5423,-0.7365 -2.9221,-1.7755 -3.9902,-3.1151 -1.0494,-1.3169 -1.7444,-2.8903 -2.1512,-4.5168 -0.1302,-0.5215 -0.2313,-1.0494 -0.3129,-1.5805 -0.029,-0.1866 0.1056,-0.5254 -0.08,-0.5623 h -0.01 v -0.01 c -2.1409,-21.9035 -4.833,-43.7602 -8.0699,-65.5289 1.4776,-0.2889 4.1833,-1.7704 5.2845,-2.0722 4.6114,-1.2632 9.3718,-1.9945 14.1128,-2.5619 12.3917,-1.4821 25.0049,-1.8403 37.4646,-1.1511 5.2721,0.2915 10.6239,0.708 15.773,1.9368 2.9356,0.7003 4.1547,2.1713 5.8525,3.3885 z m 0,0 h 0.01 z"
   style="fill-rule:nonzero;stroke-width:0.647762"
   id="path38" /><path
   d="m 1111.1351,1399.7627 c 15.8365,4.0887 70.5996,3.4008 73.6894,-3.9448 -2.4161,-4.1677 -17.5129,-6.0333 -34.0062,-6.2548 -6.9401,-0.093 -14.1264,0.1049 -20.7193,0.5441 -12.0717,0.8045 -21.8024,3.6676 -24.7419,5.791 -2.0612,1.4899 -0.9626,1.9796 5.778,3.8645 z"
   style="fill:#bd1313;stroke-width:1.29552"
   id="path40" /><path
   d="m 1122.1758,1400.463 c 3.9993,0.3925 4.1871,0.4819 8.5336,0.5713 -0.01,-2.3034 -0.044,-5.0798 -0.1062,-7.6229 0.7047,-3.0082 -0.403,-2.4822 -3.0355,-2.4291 -9.5868,0.2151 -5.4904,2.1519 -5.3919,9.4716 z"
   style="fill:#cc5151;stroke-width:1.29552"
   id="path43" /><path
   d="m 1170.013,1390.3579 6.9,0.9457 c 19.5403,3.3839 -3.1508,9.32 -4.1146,7.106 -2.6429,-2.6416 -0.5273,-5.1951 -2.7854,-8.0517 z"
   style="fill:#871818;stroke-width:1.29552"
   id="path47" /><path
   d="m 1104.768,1395.4898 8.1942,65.5752 c 0.8032,6.2363 4.169,9.5964 9.2928,11.1658 17.5672,5.3454 42.4192,5.5477 55.719,-5.4684 1.8034,-1.5603 2.946,-3.721 3.1779,-7.0287 1.3396,-21.1769 2.2063,-43.8618 3.6702,-65.1079 0.7242,4.9384 -67.1299,12.4049 -79.9958,1.3325 z"
   style="fill:#ff0000;stroke-width:1.28776"
   id="path53" /><path
   d="m 1134.7235,1445.1001 c 5.3398,1.3193 10.7827,0.8479 16.2132,-0.4149 1.9657,5.3348 4.0854,10.631 6.777,15.8897 0.6334,1.2384 2.2315,1.7663 3.5661,1.1787 1.3347,-0.5883 1.9037,-2.0711 1.2703,-3.3094 -4.0467,-7.9083 -6.143,-15.1256 -9.0301,-23.206 -2.4726,-6.9208 -5.8871,-14.6829 -7.552,-21.7237 -0.2546,-1.0792 -1.248,-1.8728 -2.4363,-1.9461 -1.1889,-0.073 -2.2865,0.5904 -2.6939,1.6289 -3.0692,7.8251 -5.8661,15.6513 -8.6824,23.4384 -2.5522,7.0582 -5.1209,14.0849 -7.9231,21.0491 -0.5169,1.2846 0.1873,2.7163 1.5717,3.1959 1.3839,0.4791 2.9275,-0.1743 3.4438,-1.4583 1.9107,-4.7482 3.7131,-9.5252 5.4757,-14.3223 z m 14.5063,-5.1381 c -0.4683,-1.3117 -0.9343,-2.6256 -1.4044,-3.9422 -1.6092,-4.5032 -3.3477,-9.0325 -4.8387,-13.5868 -2.242,5.9963 -4.3792,11.9861 -6.5422,17.9494 4.2141,0.9689 8.502,0.5496 12.7853,-0.4204 z"
   style="fill:#b20000;stroke-width:0.563868"
   id="path56" /><path
   d="m 1184.8296,1395.8986 c 1.7956,3.6177 -73.9065,11.3604 -81.0448,0"
   style="fill:none;stroke:#000000;stroke-width:2.44206px"
   id="path60" /><path
   d="m 1167.4142,1450.3081 c -0.741,4.6237 -3.2401,13.8815 -0.4456,17.3353 1.3292,1.6699 7.2121,-4.1858 7.6759,-4.7571 0.7138,-0.8758 0.7048,-3.9099 1.0805,-5.3389 2.3293,-8.667 5.3466,-37.3032 2.9278,-46.3278 -0.4637,-1.7049 1.0442,-7.2756 0.1516,-8.382 -1.1867,-1.4821 -5.3738,0.3654 -5.9982,1.2398 -2.0262,14.756 -2.8657,30.6546 -5.3829,46.2216 z"
   style="fill:#ff5a5a;stroke-width:1.29552"
   id="path64" /><path
   d="m 1182.9915,1398.793 c -0.706,4.1249 -0.4741,7.5438 -5.8026,12.9798 -5.436,5.5345 -14.5318,14.7288 -22.7713,18.3796 -8.4183,3.722 -14.7469,5.8117 -29.4666,5.436 -7.0425,-0.1788 -13.6665,-5.8908 -17.5673,-12.9254 -3.687,-6.6499 -4.8737,-14.3712 -2.0793,-19.4419 l -0.2423,-1.9187 c -0.1153,0.053 -0.2137,0.1335 -0.3031,0.2578 -3.9358,5.7042 -2.6066,14.4166 1.4548,21.7635 4.0706,7.3378 10.9705,13.4254 18.7009,13.6301 14.8453,0.3667 21.5315,-1.8111 30.012,-5.5603 8.667,-3.8205 17.7538,-13.1133 23.1898,-18.6659 5.5526,-5.6497 5.4995,-9.7565 6.1783,-13.7014 0.071,-0.4288 -0.2591,-0.8123 -0.6879,-0.8045 -0.3122,0.01 -0.5804,0.25 -0.6244,0.5804 z"
   style="fill:#3f3f3f;stroke-width:1.29552"
   id="path68" /><path
   d="m 1183.7235,1399.1506 c -0.706,4.1068 -0.4741,7.5425 -5.8026,12.9798 -5.436,5.5331 -14.5319,14.7275 -22.7714,18.3795 -8.4364,3.7221 -14.7469,5.8104 -29.4666,5.436 -2.2762,-0.054 -4.5252,-0.706 -6.6408,-1.7761 -4.7131,-2.1428 -8.873,-6.4815 -11.6493,-11.4978 -3.6871,-6.624 -4.8738,-14.3181 -2.1065,-19.3887 l -0.1257,-0.8382 c -3.5173,5.686 -2.1506,14.1211 1.7943,21.2439 2.7413,4.9463 6.7756,9.32 11.4705,11.7115 2.0534,0.938 4.2493,1.5002 6.4983,1.5624 14.8454,0.3666 21.5316,-1.8111 30.0108,-5.5604 8.6683,-3.8205 17.7551,-13.1132 23.1911,-18.6658 5.5526,-5.6511 5.4995,-9.7566 6.177,-13.7027 0.027,-0.1516 0,-0.3032 -0.062,-0.4366 -0.2759,0.062 -0.491,0.2759 -0.526,0.5622 z"
   style="fill:#686868;stroke-width:1.29552"
   id="path72" /><path
   d="m 1106.4639,1423.2615 c 3.9993,7.3819 10.9355,13.2907 18.6658,13.4786 14.8441,0.3744 21.6559,-2.0793 30.1442,-5.8286 l 0.3757,-0.3213 c -8.4805,3.748 -15.4348,6.4271 -30.2789,6.0605 -7.7304,-0.1969 -14.6303,-6.2846 -18.7008,-13.6302 -3.7493,-6.7665 -5.1601,-14.7119 -2.2763,-20.3707 0.1516,-0.3744 0.8382,-1.2671 0.1607,-0.5895 -3.393,5.9011 -2.0534,13.8906 1.9187,21.1921 z"
   style="fill:#c5c5c5;stroke-width:1.29552"
   id="path76" />
        <path
   d="m 1455.9387,1845.6479 c -0.04,-0.01 -5.1762,-1.5948 -5.7845,-1.8837 -2.5502,-1.2126 -4.6665,-3.1631 -5.9445,-5.6952 -0.6639,-1.3143 -1.1096,-2.7309 -1.3752,-4.1774 0,-0.015 -0.2014,-1.1893 -0.1872,-1.1964 l 0.023,-0.012 -0.032,-0.01 c -2.7355,-20.0593 -8.6988,-59.0792 -9.2999,-66.0769 -0.061,-0.7067 0.5454,-0.894 0.9691,-1.144 6.0747,-3.5925 16.3028,-4.2674 21.1228,-4.8517 13.4988,-1.6363 27.322,-1.9776 40.8835,-0.9639 5.4652,0.4087 11.4162,0.8084 16.5581,2.8832 1.4717,0.594 3.5264,1.5909 3.669,3.437 0.03,0.3939 0.1826,1.0487 -0.1788,1.1815 l -0.3835,5.7722 -0.7495,12.1041 -0.3485,6.0521 -0.2319,4.0174 -0.1159,2.0171 -2.3009,37.7166 c -0.7267,1.6103 -0.1703,2.1881 -5.2999,5.9769 -0.9723,0.7184 -9.3609,4.4553 -10.0203,4.6704 -10.7723,3.5154 -22.6593,3.5089 -33.751,1.6958 -2.4284,-0.3964 -4.8381,-0.9062 -7.2219,-1.517 z m 58.8045,-79.1643 v 0.01 c -0.012,0.015 -0.041,0.098 -0.049,0.1315 -0.01,0.039 -0.01,0.079 -0.01,0.1192 l -0.4016,6.0494 -0.7501,12.1041 -0.6964,12.1047 -2.6869,36.3097 v 0.01 c -6e-4,0.01 0,0.013 0,0.019 l 7e-4,0.023 -0.06,0.8148 c -0.6257,2.7181 -5.2061,5.7548 -6.0598,6.262 -2.4058,1.4296 -4.993,2.5476 -7.6501,3.4189 -8.1572,2.6746 -16.9998,3.1727 -25.5121,2.5262 -4.8899,-0.3718 -9.7456,-1.1647 -14.4962,-2.3837 -0.2177,-0.056 -5.0882,-1.5443 -5.4989,-1.7406 -1.5423,-0.7365 -2.9221,-1.7755 -3.9902,-3.1151 -1.0494,-1.3169 -1.7444,-2.8903 -2.1512,-4.5168 -0.1302,-0.5215 -0.2313,-1.0494 -0.3129,-1.5805 -0.028,-0.1866 0.1056,-0.5254 -0.08,-0.5623 h -0.01 v -0.01 c -2.1409,-21.9035 -4.833,-43.7602 -8.0699,-65.5289 1.4776,-0.2889 4.1833,-1.7704 5.2845,-2.0722 4.6114,-1.2632 9.3718,-1.9945 14.1128,-2.5619 12.3917,-1.4821 25.0049,-1.8403 37.4646,-1.1511 5.2721,0.2915 10.6239,0.708 15.773,1.9368 2.9356,0.7003 4.1547,2.1713 5.8525,3.3885 z m 0,0 h 0.01 z"
   style="fill-rule:nonzero;stroke-width:0.647762"
   id="path82" /><path
   d="m 1441.6577,1770.4647 c 15.8365,4.0887 70.5996,3.4008 73.6894,-3.9448 -2.4161,-4.1677 -17.5129,-6.0333 -34.0062,-6.2548 -6.9401,-0.093 -14.1264,0.1049 -20.7193,0.5441 -12.0717,0.8045 -21.8024,3.6676 -24.7419,5.791 -2.0612,1.4899 -0.9626,1.9796 5.778,3.8645 z"
   style="fill:#bd1313;stroke-width:1.29552"
   id="path84" /><path
   d="m 1452.6984,1771.165 c 3.9992,0.3925 4.1871,0.4819 8.5336,0.5713 -0.01,-2.3034 -0.044,-5.0798 -0.1063,-7.6229 0.7048,-3.0082 -0.4029,-2.4822 -3.0354,-2.4291 -9.5868,0.2151 -5.4904,2.1519 -5.3919,9.4716 z"
   style="fill:#cc5151;stroke-width:1.29552"
   id="path87" /><path
   d="m 1500.5356,1761.0599 6.8999,0.9457 c 19.5404,3.3839 -3.1507,9.32 -4.1145,7.106 -2.6429,-2.6416 -0.5273,-5.1951 -2.7854,-8.0517 z"
   style="fill:#871818;stroke-width:1.29552"
   id="path91" /><path
   d="m 1435.2906,1766.1918 8.1942,65.5752 c 0.8032,6.2363 4.169,9.5964 9.2928,11.1658 17.5672,5.3454 42.4192,5.5477 55.719,-5.4684 1.8034,-1.5603 2.946,-3.721 3.1779,-7.0287 1.3396,-21.1769 2.2063,-43.8618 3.6702,-65.1079 0.7242,4.9384 -67.1299,12.4049 -79.9958,1.3325 z"
   style="fill:#ff0000;stroke-width:1.28776"
   id="path97" /><path
   d="m 1465.2461,1815.8021 c 5.3398,1.3193 10.7827,0.8479 16.2132,-0.4149 1.9657,5.3348 4.0854,10.631 6.777,15.8897 0.6334,1.2384 2.2315,1.7663 3.5661,1.1787 1.3347,-0.5883 1.9037,-2.0711 1.2703,-3.3094 -4.0467,-7.9083 -6.143,-15.1256 -9.0301,-23.206 -2.4726,-6.9208 -5.8871,-14.6829 -7.552,-21.7237 -0.2546,-1.0792 -1.248,-1.8728 -2.4363,-1.9461 -1.1889,-0.073 -2.2865,0.5904 -2.6939,1.6289 -3.0692,7.8251 -5.8661,15.6513 -8.6824,23.4384 -2.5522,7.0582 -5.1209,14.0849 -7.9231,21.0491 -0.5169,1.2846 0.1873,2.7163 1.5717,3.1959 1.3839,0.4791 2.9275,-0.1743 3.4438,-1.4583 1.9107,-4.7482 3.7131,-9.5252 5.4757,-14.3223 z m 14.5063,-5.1381 c -0.4683,-1.3117 -0.9343,-2.6256 -1.4044,-3.9422 -1.6092,-4.5032 -3.3477,-9.0325 -4.8387,-13.5868 -2.242,5.9963 -4.3792,11.9861 -6.5422,17.9494 4.2141,0.9689 8.502,0.5496 12.7853,-0.4204 z"
   style="fill:#b20000;stroke-width:0.563868"
   id="path100" /><path
   d="m 1515.3522,1766.6006 c 1.7956,3.6177 -73.9065,11.3604 -81.0448,0"
   style="fill:none;stroke:#000000;stroke-width:2.44206px"
   id="path104" /><path
   d="m 1497.9368,1821.0101 c -0.741,4.6237 -3.2401,13.8815 -0.4456,17.3353 1.3292,1.6699 7.2121,-4.1858 7.6759,-4.7571 0.7138,-0.8758 0.7048,-3.9099 1.0805,-5.3389 2.3293,-8.667 5.3466,-37.3032 2.9278,-46.3278 -0.4637,-1.7049 1.0442,-7.2756 0.1516,-8.382 -1.1867,-1.4821 -5.3738,0.3654 -5.9982,1.2398 -2.0262,14.756 -2.8657,30.6546 -5.3829,46.2216 z"
   style="fill:#ff5a5a;stroke-width:1.29552"
   id="path108" /><path
   d="m 1513.5141,1769.495 c -0.706,4.1249 -0.4741,7.5438 -5.8026,12.9798 -5.436,5.5345 -14.5318,14.7288 -22.7713,18.3796 -8.4183,3.722 -14.7469,5.8117 -29.4666,5.436 -7.0425,-0.1788 -13.6665,-5.8908 -17.5673,-12.9254 -3.687,-6.6499 -4.8737,-14.3712 -2.0793,-19.4419 l -0.2423,-1.9187 c -0.1153,0.053 -0.2137,0.1335 -0.3031,0.2578 -3.9358,5.7042 -2.6066,14.4166 1.4548,21.7635 4.0706,7.3378 10.9705,13.4254 18.7009,13.6301 14.8453,0.3667 21.5315,-1.8111 30.012,-5.5603 8.667,-3.8205 17.7538,-13.1133 23.1898,-18.6659 5.5526,-5.6497 5.4995,-9.7565 6.1783,-13.7014 0.071,-0.4288 -0.2591,-0.8123 -0.6879,-0.8045 -0.3122,0.01 -0.5804,0.25 -0.6244,0.5804 z"
   style="fill:#3f3f3f;stroke-width:1.29552"
   id="path112" /><path
   d="m 1514.2461,1769.8526 c -0.706,4.1068 -0.4741,7.5425 -5.8026,12.9798 -5.436,5.5331 -14.5319,14.7275 -22.7714,18.3795 -8.4364,3.7221 -14.7469,5.8104 -29.4666,5.436 -2.2762,-0.054 -4.5252,-0.706 -6.6408,-1.7761 -4.7131,-2.1428 -8.873,-6.4815 -11.6493,-11.4978 -3.6871,-6.624 -4.8738,-14.3181 -2.1065,-19.3887 l -0.1257,-0.8382 c -3.5173,5.686 -2.1506,14.1211 1.7943,21.2439 2.7413,4.9463 6.7756,9.32 11.4705,11.7115 2.0534,0.938 4.2493,1.5002 6.4983,1.5624 14.8454,0.3666 21.5316,-1.8111 30.0108,-5.5604 8.6683,-3.8205 17.7551,-13.1132 23.1911,-18.6658 5.5526,-5.6511 5.4995,-9.7566 6.177,-13.7027 0.027,-0.1516 0,-0.3032 -0.062,-0.4366 -0.2759,0.062 -0.491,0.2759 -0.526,0.5622 z"
   style="fill:#686868;stroke-width:1.29552"
   id="path116" /><path
   d="m 1436.9865,1793.9635 c 3.9993,7.3819 10.9355,13.2907 18.6658,13.4786 14.8441,0.3744 21.6559,-2.0793 30.1442,-5.8286 l 0.3757,-0.3213 c -8.4805,3.748 -15.4348,6.4271 -30.2789,6.0605 -7.7304,-0.1969 -14.6303,-6.2846 -18.7008,-13.6302 -3.7493,-6.7665 -5.1601,-14.7119 -2.2763,-20.3707 0.1516,-0.3744 0.8382,-1.2671 0.1607,-0.5895 -3.393,5.9011 -2.0534,13.8906 1.9187,21.1921 z"
   style="fill:#c5c5c5;stroke-width:1.29552"
   id="path120" />
        <path
   d="m 795.10527,1994.9836 c -0.0403,-0.01 -5.19438,-1.6004 -5.80476,-1.8903 -2.55916,-1.2168 -4.68281,-3.1741 -5.96531,-5.715 -0.66628,-1.3189 -1.1135,-2.7405 -1.38002,-4.1921 -0.003,-0.016 -0.20216,-1.1934 -0.18785,-1.2006 l 0.0234,-0.012 -0.0325,-0.01 c -2.74507,-20.1294 -8.72923,-59.2859 -9.33246,-66.3081 -0.0611,-0.7092 0.54732,-0.8971 0.97244,-1.148 6.09597,-3.605 16.35993,-4.2824 21.1968,-4.8687 13.54595,-1.642 27.41757,-1.9845 41.02658,-0.9672 5.48429,0.4101 11.45611,0.8112 16.61604,2.8932 1.47687,0.5961 3.53876,1.5965 3.68176,3.4491 0.0305,0.3952 0.18331,1.0524 -0.1794,1.1857 l -0.38482,5.7924 -0.75209,12.1464 -0.34971,6.0732 -0.23271,4.0315 -0.11636,2.0242 -2.3089,37.8486 c -0.72933,1.616 -0.17096,2.1958 -5.31854,5.9978 -0.97569,0.7209 -9.39357,4.4709 -10.0553,4.6867 -10.80998,3.5277 -22.73866,3.5212 -33.86911,1.7018 -2.43696,-0.3978 -4.85506,-0.9094 -7.24717,-1.5224 z m 59.01028,-79.4413 -10e-4,0.01 c -0.0117,0.015 -0.0409,0.098 -0.0487,0.132 -0.01,0.039 -0.01,0.079 -0.009,0.1196 l -0.40302,6.0706 -0.75273,12.1465 -0.69878,12.147 -2.69632,36.4368 -0.002,0.01 c -6.5e-4,0.01 -10e-4,0.013 -0.002,0.019 l 6.5e-4,0.023 -0.0605,0.8178 c -0.62792,2.7275 -5.22428,5.7748 -6.08102,6.2838 -2.4142,1.4346 -5.01042,2.5566 -7.67684,3.4308 -8.18581,2.684 -17.05936,3.1839 -25.60139,2.5352 -4.90707,-0.3732 -9.77969,-1.1688 -14.547,-2.3922 -0.21841,-0.056 -5.10598,-1.5496 -5.5181,-1.7466 -1.54772,-0.7391 -2.93228,-1.7817 -4.00418,-3.126 -1.05304,-1.3215 -1.75052,-2.9004 -2.15874,-4.5326 -0.13066,-0.5233 -0.23206,-1.0531 -0.31397,-1.5861 -0.0286,-0.1872 0.10596,-0.5272 -0.0806,-0.5642 h -0.008 v -0.01 c -2.14835,-21.98 -4.84987,-43.9133 -8.09806,-65.7582 1.48272,-0.2899 4.19789,-1.7765 5.30294,-2.0794 4.62755,-1.2676 9.40462,-2.0015 14.16218,-2.5709 12.43505,-1.4873 25.09242,-1.8467 37.59572,-1.1551 5.29059,0.2925 10.66113,0.7105 15.82821,1.9436 2.94593,0.7027 4.16929,2.1789 5.87301,3.4003 z m 0.003,0 h 0.005 z"
   style="fill-rule:nonzero;stroke-width:0.650029"
   id="path126" />
        <path
   d="m 780.7748,1919.5427 c 15.89194,4.103 70.84677,3.4126 73.94742,-3.9587 -2.42461,-4.1823 -17.57421,-6.0544 -34.12528,-6.2767 -6.96442,-0.094 -14.17585,0.1053 -20.79186,0.546 -12.11396,0.8074 -21.87871,3.6805 -24.82854,5.8113 -2.0684,1.4951 -0.96595,1.9865 5.79826,3.8781 z"
   style="fill:#4bb3b3;stroke-width:1.30006"
   id="path130" />
        <path
   d="m 791.85381,1920.2412 c 4.01328,0.3939 4.20179,0.4836 8.56349,0.5733 -0.009,-2.3115 -0.0442,-5.0975 -0.1066,-7.6496 0.70723,-3.0187 -0.40432,-2.4909 -3.04604,-2.4376 -9.62045,0.2158 -5.50966,2.1594 -5.41085,9.5048 z"
   style="fill:#418e8e;stroke-width:1.30006"
   id="path133" />
        <path
   d="m 839.85852,1910.1007 6.92412,0.949 c 19.60881,3.3958 -3.16174,9.3527 -4.12899,7.1309 -2.65212,-2.6509 -0.52912,-5.2133 -2.79513,-8.0799 z"
   style="fill:#2f696a;stroke-width:1.30006"
   id="path137" />
        <g
   aria-label="choisis dans"
   id="text141"
   style="font-size:33.438px;font-family:ArialMT, Arial, sans-serif;stroke-width:33.438"><path
     d="m 921.87246,1436.0966 2.8899,0.3755 q -0.47349,2.9879 -2.43274,4.6859 -1.94294,1.6817 -4.78386,1.6817 -3.55932,0 -5.73083,-2.3184 -2.15518,-2.3348 -2.15518,-6.6778 0,-2.8083 0.93065,-4.9145 0.93064,-2.1062 2.82459,-3.1511 1.91028,-1.0613 4.1471,-1.0613 2.82459,0 4.62058,1.4368 1.79599,1.4204 2.30213,4.0491 l -2.85725,0.4408 q -0.40818,-1.747 -1.45312,-2.6286 -1.02861,-0.8817 -2.49805,-0.8817 -2.22049,0 -3.6083,1.6001 -1.38781,1.5837 -1.38781,5.0287 0,3.494 1.33883,5.0778 1.33882,1.5837 3.49401,1.5837 1.73067,0 2.8899,-1.0613 1.15923,-1.0612 1.46945,-3.2654 z"
     style="font-size:33.438px;font-family:ArialMT, Arial, sans-serif;stroke-width:33.438"
     id="path15370" /><path
     d="m 927.27674,1442.4479 v -23.9356 h 2.93889 v 8.5881 q 2.05722,-2.3838 5.19203,-2.3838 1.9266,0 3.34707,0.7674 1.42046,0.751 2.02456,2.0898 0.62043,1.3389 0.62043,3.8859 v 10.9882 h -2.93888 v -10.9882 q 0,-2.2042 -0.9633,-3.2001 -0.94698,-1.0123 -2.69398,-1.0123 -1.30617,0 -2.4654,0.6857 -1.1429,0.6695 -1.63272,1.8287 -0.48981,1.1592 -0.48981,3.2001 v 9.4861 z"
     style="font-size:33.438px;font-family:ArialMT, Arial, sans-serif;stroke-width:33.438"
     id="path15372" /><path
     d="m 944.77944,1433.7782 q 0,-4.8165 2.67766,-7.135 2.23681,-1.9266 5.45326,-1.9266 3.57565,0 5.84512,2.3511 2.26948,2.3348 2.26948,6.4656 0,3.347 -1.01229,5.2736 -0.99595,1.9103 -2.92256,2.9716 -1.91027,1.0612 -4.17975,1.0612 -3.64095,0 -5.8941,-2.3348 -2.23682,-2.3347 -2.23682,-6.7267 z m 3.02053,0 q 0,3.3307 1.45311,4.9961 1.45312,1.649 3.65728,1.649 2.18784,0 3.64096,-1.6654 1.45311,-1.6653 1.45311,-5.0777 0,-3.2165 -1.46944,-4.8655 -1.45312,-1.6654 -3.62463,-1.6654 -2.20416,0 -3.65728,1.6491 -1.45311,1.649 -1.45311,4.9798 z"
     style="font-size:33.438px;font-family:ArialMT, Arial, sans-serif;stroke-width:33.438"
     id="path15374" /><path
     d="m 964.48632,1421.892 v -3.3797 h 2.93888 v 3.3797 z m 0,20.5559 v -17.3395 h 2.93888 v 17.3395 z"
     style="font-size:33.438px;font-family:ArialMT, Arial, sans-serif;stroke-width:33.438"
     id="path15376" /><path
     d="m 970.72329,1437.2722 2.90623,-0.4572 q 0.24491,1.747 1.35515,2.6777 1.12657,0.9306 3.13481,0.9306 2.02457,0 3.0042,-0.8163 0.97963,-0.8327 0.97963,-1.943 0,-0.9959 -0.86534,-1.5674 -0.60411,-0.3918 -3.0042,-0.9959 -3.23277,-0.8164 -4.48996,-1.4042 -1.24087,-0.6041 -1.89395,-1.649 -0.63676,-1.0613 -0.63676,-2.3348 0,-1.1592 0.52247,-2.1389 0.53879,-0.9959 1.45312,-1.649 0.68574,-0.5061 1.86129,-0.849 1.19188,-0.3592 2.54704,-0.3592 2.04089,0 3.57564,0.5878 1.55108,0.5877 2.2858,1.6 0.73472,0.996 1.01228,2.6777 l -2.87357,0.3918 q -0.19593,-1.3388 -1.1429,-2.0898 -0.93065,-0.7511 -2.645,-0.7511 -2.02457,0 -2.88991,0.6694 -0.86534,0.6694 -0.86534,1.5674 0,0.5715 0.3592,1.0286 0.3592,0.4735 1.12657,0.7837 0.44084,0.1633 2.59602,0.7511 3.11849,0.8327 4.34302,1.3715 1.24087,0.5224 1.94293,1.5347 0.70207,1.0123 0.70207,2.5144 0,1.4694 -0.86534,2.7756 -0.84901,1.2899 -2.4654,2.0083 -1.61639,0.702 -3.65728,0.702 -3.37972,0 -5.15938,-1.4041 -1.76333,-1.4041 -2.25314,-4.1634 z"
     style="font-size:33.438px;font-family:ArialMT, Arial, sans-serif;stroke-width:33.438"
     id="path15378" /><path
     d="m 988.63417,1421.892 v -3.3797 h 2.93888 v 3.3797 z m 0,20.5559 v -17.3395 h 2.93888 v 17.3395 z"
     style="font-size:33.438px;font-family:ArialMT, Arial, sans-serif;stroke-width:33.438"
     id="path15380" /><path
     d="m 994.87114,1437.2722 2.90623,-0.4572 q 0.24491,1.747 1.35516,2.6777 1.12657,0.9306 3.13477,0.9306 2.0246,0 3.0042,-0.8163 0.9797,-0.8327 0.9797,-1.943 0,-0.9959 -0.8654,-1.5674 -0.6041,-0.3918 -3.0042,-0.9959 -3.23275,-0.8164 -4.48994,-1.4042 -1.24086,-0.6041 -1.89395,-1.649 -0.63676,-1.0613 -0.63676,-2.3348 0,-1.1592 0.52247,-2.1389 0.5388,-0.9959 1.45312,-1.649 0.68574,-0.5061 1.86129,-0.849 1.19187,-0.3592 2.54707,-0.3592 2.0409,0 3.5756,0.5878 1.5511,0.5877 2.2858,1.6 0.7347,0.996 1.0123,2.6777 l -2.8736,0.3918 q -0.1959,-1.3388 -1.1429,-2.0898 -0.9306,-0.7511 -2.645,-0.7511 -2.02454,0 -2.88988,0.6694 -0.86534,0.6694 -0.86534,1.5674 0,0.5715 0.3592,1.0286 0.35919,0.4735 1.12657,0.7837 0.44085,0.1633 2.59605,0.7511 3.1185,0.8327 4.343,1.3715 1.2408,0.5224 1.9429,1.5347 0.7021,1.0123 0.7021,2.5144 0,1.4694 -0.8654,2.7756 -0.849,1.2899 -2.4654,2.0083 -1.6163,0.702 -3.6572,0.702 -3.37975,0 -5.15941,-1.4041 -1.76334,-1.4041 -2.25315,-4.1634 z"
     style="font-size:33.438px;font-family:ArialMT, Arial, sans-serif;stroke-width:33.438"
     id="path15382" /><path
     d="m 1033.3052,1442.4479 v -2.1879 q -1.649,2.5797 -4.8491,2.5797 -2.0736,0 -3.8206,-1.1429 -1.7306,-1.1429 -2.6939,-3.1838 -0.947,-2.0572 -0.947,-4.7185 0,-2.596 0.8653,-4.7022 0.8654,-2.1226 2.596,-3.2491 1.7307,-1.1266 3.8696,-1.1266 1.5674,0 2.7919,0.6694 1.2245,0.6531 1.9919,1.7144 v -8.5881 h 2.9226 v 23.9356 z m -9.2901,-8.6534 q 0,3.3307 1.4041,4.9798 1.4042,1.649 3.3144,1.649 1.9266,0 3.2655,-1.5674 1.3551,-1.5837 1.3551,-4.8165 0,-3.5593 -1.3715,-5.2247 -1.3714,-1.6654 -3.3797,-1.6654 -1.9592,0 -3.2817,1.6001 -1.3062,1.6001 -1.3062,5.0451 z"
     style="font-size:33.438px;font-family:ArialMT, Arial, sans-serif;stroke-width:33.438"
     id="path15384" /><path
     d="m 1051.9672,1440.309 q -1.6327,1.3878 -3.1512,1.9593 -1.5021,0.5714 -3.2327,0.5714 -2.8573,0 -4.392,-1.3878 -1.5348,-1.4041 -1.5348,-3.5756 0,-1.2735 0.5715,-2.3185 0.5877,-1.0612 1.5184,-1.698 0.947,-0.6368 2.1225,-0.9633 0.8654,-0.2286 2.6124,-0.4408 3.5593,-0.4245 5.241,-1.0123 0.016,-0.6041 0.016,-0.7674 0,-1.796 -0.8327,-2.5307 -1.1266,-0.996 -3.347,-0.996 -2.0736,0 -3.0696,0.7348 -0.9796,0.7184 -1.4531,2.5633 l -2.8735,-0.3918 q 0.3918,-1.845 1.2898,-2.9716 0.898,-1.1429 2.596,-1.747 1.698,-0.6204 3.9349,-0.6204 2.2205,0 3.6083,0.5225 1.3878,0.5224 2.0409,1.3225 0.653,0.7837 0.9143,1.9919 0.1469,0.751 0.1469,2.7103 v 3.9185 q 0,4.0981 0.1796,5.192 0.1959,1.0776 0.7511,2.0736 h -3.0695 q -0.4572,-0.9143 -0.5878,-2.1389 z m -0.2449,-6.5635 q -1.6001,0.6531 -4.8002,1.1103 -1.8123,0.2612 -2.5634,0.5877 -0.751,0.3266 -1.1592,0.9633 -0.4082,0.6205 -0.4082,1.3878 0,1.1756 0.8817,1.9593 0.898,0.7837 2.6123,0.7837 1.6981,0 3.0206,-0.7347 1.3225,-0.7511 1.9429,-2.0409 0.4735,-0.996 0.4735,-2.9389 z"
     style="font-size:33.438px;font-family:ArialMT, Arial, sans-serif;stroke-width:33.438"
     id="path15386" /><path
     d="m 1059.2491,1442.4479 v -17.3395 h 2.645 v 2.4654 q 1.9103,-2.8572 5.5186,-2.8572 1.5674,0 2.8735,0.5714 1.3225,0.5552 1.9756,1.4695 0.6531,0.9143 0.9143,2.1715 0.1633,0.8164 0.1633,2.8572 v 10.6617 h -2.9389 v -10.5474 q 0,-1.7959 -0.3428,-2.6776 -0.3429,-0.898 -1.2246,-1.4205 -0.8653,-0.5388 -2.0409,-0.5388 -1.8776,0 -3.2491,1.1919 -1.3551,1.1919 -1.3551,4.5226 v 9.4698 z"
     style="font-size:33.438px;font-family:ArialMT, Arial, sans-serif;stroke-width:33.438"
     id="path15388" /><path
     d="m 1076.6702,1437.2722 2.9062,-0.4572 q 0.2449,1.747 1.3551,2.6777 1.1266,0.9306 3.1348,0.9306 2.0246,0 3.0042,-0.8163 0.9797,-0.8327 0.9797,-1.943 0,-0.9959 -0.8654,-1.5674 -0.6041,-0.3918 -3.0042,-0.9959 -3.2327,-0.8164 -4.4899,-1.4042 -1.2409,-0.6041 -1.894,-1.649 -0.6367,-1.0613 -0.6367,-2.3348 0,-1.1592 0.5224,-2.1389 0.5388,-0.9959 1.4532,-1.649 0.6857,-0.5061 1.8612,-0.849 1.1919,-0.3592 2.5471,-0.3592 2.0409,0 3.5756,0.5878 1.5511,0.5877 2.2858,1.6 0.7347,0.996 1.0123,2.6777 l -2.8736,0.3918 q -0.1959,-1.3388 -1.1429,-2.0898 -0.9306,-0.7511 -2.645,-0.7511 -2.0245,0 -2.8899,0.6694 -0.8653,0.6694 -0.8653,1.5674 0,0.5715 0.3592,1.0286 0.3592,0.4735 1.1266,0.7837 0.4408,0.1633 2.596,0.7511 3.1185,0.8327 4.343,1.3715 1.2409,0.5224 1.9429,1.5347 0.7021,1.0123 0.7021,2.5144 0,1.4694 -0.8653,2.7756 -0.8491,1.2899 -2.4654,2.0083 -1.6164,0.702 -3.6573,0.702 -3.3797,0 -5.1594,-1.4041 -1.7633,-1.4041 -2.2531,-4.1634 z"
     style="font-size:33.438px;font-family:ArialMT, Arial, sans-serif;stroke-width:33.438"
     id="path15390" /></g>
        <g
   aria-label="départ"
   id="text145"
   style="font-size:33.438px;font-family:ArialMT, Arial, sans-serif;stroke-width:33.438"><path
     d="m 1019.9379,1228.9375 v -2.1878 q -1.6491,2.5797 -4.8492,2.5797 -2.0735,0 -3.8205,-1.1429 -1.7307,-1.1429 -2.694,-3.1838 -0.947,-2.0573 -0.947,-4.7186 0,-2.596 0.8654,-4.7022 0.8653,-2.1225 2.596,-3.2491 1.7306,-1.1266 3.8695,-1.1266 1.5674,0 2.7919,0.6694 1.2246,0.6531 1.992,1.7144 v -8.5881 h 2.9225 v 23.9356 z m -9.2902,-8.6534 q 0,3.3307 1.4042,4.9798 1.4041,1.649 3.3144,1.649 1.9266,0 3.2654,-1.5674 1.3552,-1.5837 1.3552,-4.8165 0,-3.5593 -1.3715,-5.2247 -1.3715,-1.6653 -3.3797,-1.6653 -1.9593,0 -3.2818,1.6 -1.3062,1.6001 -1.3062,5.0451 z"
     style="font-size:33.438px;font-family:ArialMT, Arial, sans-serif;stroke-width:33.438"
     id="path15393" /><path
     d="m 1039.1549,1223.3536 3.0369,0.3755 q -0.7184,2.6614 -2.6613,4.1308 -1.943,1.4695 -4.9635,1.4695 -3.8042,0 -6.041,-2.3348 -2.2205,-2.3511 -2.2205,-6.5799 0,-4.3756 2.2531,-6.7921 2.2532,-2.4164 5.8451,-2.4164 3.4777,0 5.6819,2.3675 2.2042,2.3674 2.2042,6.6614 0,0.2613 -0.016,0.7837 h -12.9311 q 0.1633,2.8573 1.6164,4.3757 1.4531,1.5184 3.6246,1.5184 1.6164,0 2.7593,-0.849 1.1429,-0.849 1.8123,-2.7103 z m -9.6493,-4.7512 h 9.682 q -0.1959,-2.1878 -1.1103,-3.2817 -1.4041,-1.6981 -3.6409,-1.6981 -2.0246,0 -3.4124,1.3552 -1.3715,1.3551 -1.5184,3.6246 z m 3.1675,-9.1595 2.1715,-4.5716 h 3.8532 l -3.592,4.5716 z"
     style="font-size:33.438px;font-family:ArialMT, Arial, sans-serif;stroke-width:33.438"
     id="path15395" /><path
     d="m 1045.8817,1235.5826 v -23.9845 h 2.6777 v 2.2531 q 0.947,-1.3225 2.1388,-1.9756 1.1919,-0.6694 2.8899,-0.6694 2.2205,0 3.9186,1.1429 1.698,1.1429 2.5633,3.2328 0.8654,2.0735 0.8654,4.5553 0,2.6613 -0.9633,4.8001 -0.947,2.1226 -2.7757,3.2655 -1.8123,1.1266 -3.8205,1.1266 -1.4695,0 -2.645,-0.6205 -1.1592,-0.6204 -1.9103,-1.5674 v 8.4411 z m 2.6613,-15.2169 q 0,3.3471 1.3552,4.9472 1.3552,1.6 3.2818,1.6 1.9592,0 3.347,-1.649 1.4042,-1.6654 1.4042,-5.1431 0,-3.3144 -1.3715,-4.9634 -1.3552,-1.6491 -3.2491,-1.6491 -1.8776,0 -3.3308,1.7634 -1.4368,1.747 -1.4368,5.094 z"
     style="font-size:33.438px;font-family:ArialMT, Arial, sans-serif;stroke-width:33.438"
     id="path15397" /><path
     d="m 1075.7931,1226.7986 q -1.6328,1.3879 -3.1512,1.9593 -1.5021,0.5715 -3.2328,0.5715 -2.8572,0 -4.392,-1.3879 -1.5347,-1.4041 -1.5347,-3.5756 0,-1.2735 0.5714,-2.3185 0.5878,-1.0612 1.5185,-1.698 0.9469,-0.6367 2.1225,-0.9633 0.8653,-0.2286 2.6123,-0.4408 3.5594,-0.4245 5.2411,-1.0123 0.016,-0.6041 0.016,-0.7674 0,-1.796 -0.8327,-2.5307 -1.1266,-0.9959 -3.3471,-0.9959 -2.0735,0 -3.0695,0.7347 -0.9796,0.7184 -1.4531,2.5633 l -2.8736,-0.3918 q 0.3919,-1.845 1.2899,-2.9715 0.898,-1.1429 2.596,-1.7471 1.698,-0.6204 3.9348,-0.6204 2.2205,0 3.6083,0.5225 1.3878,0.5225 2.0409,1.3225 0.6531,0.7837 0.9143,1.9919 0.147,0.751 0.147,2.7103 v 3.9185 q 0,4.0981 0.1796,5.1921 0.1959,1.0775 0.751,2.0735 h -3.0695 q -0.4571,-0.9143 -0.5877,-2.1389 z m -0.2449,-6.5635 q -1.6001,0.6531 -4.8002,1.1103 -1.8123,0.2612 -2.5634,0.5878 -0.751,0.3265 -1.1592,0.9633 -0.4082,0.6204 -0.4082,1.3878 0,1.1755 0.8817,1.9592 0.898,0.7837 2.6123,0.7837 1.698,0 3.0205,-0.7347 1.3225,-0.751 1.943,-2.0409 0.4735,-0.9959 0.4735,-2.9389 z"
     style="font-size:33.438px;font-family:ArialMT, Arial, sans-serif;stroke-width:33.438"
     id="path15399" /><path
     d="m 1083.0423,1228.9375 v -17.3394 h 2.645 v 2.6286 q 1.0123,-1.8449 1.8613,-2.4327 0.8653,-0.5878 1.894,-0.5878 1.4857,0 3.0205,0.947 l -1.0123,2.7266 q -1.0776,-0.6367 -2.1552,-0.6367 -0.9633,0 -1.7307,0.5877 -0.7673,0.5715 -1.0939,1.6001 -0.4898,1.5674 -0.4898,3.4287 v 9.0779 z"
     style="font-size:33.438px;font-family:ArialMT, Arial, sans-serif;stroke-width:33.438"
     id="path15401" /><path
     d="m 1100.6267,1226.3088 0.4245,2.596 q -1.2409,0.2613 -2.2205,0.2613 -1.6001,0 -2.4818,-0.5062 -0.8816,-0.5061 -1.2408,-1.3225 -0.3592,-0.8326 -0.3592,-3.4776 v -9.9759 h -2.1552 v -2.2858 h 2.1552 v -4.2941 l 2.9225,-1.7633 v 6.0574 h 2.9553 v 2.2858 h -2.9553 v 10.1391 q 0,1.2572 0.147,1.6164 0.1633,0.3592 0.5061,0.5715 0.3592,0.2122 1.0123,0.2122 0.4898,0 1.2899,-0.1143 z"
     style="font-size:33.438px;font-family:ArialMT, Arial, sans-serif;stroke-width:33.438"
     id="path15403" /></g>
        <g
   aria-label="oui"
   id="text149"
   style="font-size:33.438px;font-family:ArialMT, Arial, sans-serif;stroke-width:33.438"><path
     d="m 1235.2638,1638.4781 q 0,-4.8165 2.6777,-7.135 2.2368,-1.9266 5.4532,-1.9266 3.5757,0 5.8451,2.3512 2.2695,2.3347 2.2695,6.4655 0,3.3471 -1.0123,5.2737 -0.9959,1.9102 -2.9225,2.9715 -1.9103,1.0613 -4.1798,1.0613 -3.6409,0 -5.8941,-2.3348 -2.2368,-2.3348 -2.2368,-6.7268 z m 3.0205,0 q 0,3.3307 1.4531,4.9961 1.4532,1.6491 3.6573,1.6491 2.1879,0 3.641,-1.6654 1.4531,-1.6654 1.4531,-5.0778 0,-3.2164 -1.4694,-4.8654 -1.4532,-1.6654 -3.6247,-1.6654 -2.2041,0 -3.6573,1.649 -1.4531,1.6491 -1.4531,4.9798 z"
     style="font-size:33.438px;font-family:ArialMT, Arial, sans-serif;stroke-width:33.438"
     id="path15406" /><path
     d="m 1266.318,1647.1478 v -2.547 q -2.0245,2.9389 -5.5022,2.9389 -1.5348,0 -2.8736,-0.5878 -1.3225,-0.5878 -1.9756,-1.4694 -0.6367,-0.898 -0.898,-2.1879 -0.1796,-0.8653 -0.1796,-2.7429 v -10.7433 h 2.9389 v 9.6167 q 0,2.3021 0.1796,3.1021 0.2776,1.1593 1.1756,1.8287 0.898,0.6531 2.2205,0.6531 1.3225,0 2.4817,-0.6694 1.1592,-0.6858 1.6327,-1.845 0.4898,-1.1756 0.4898,-3.3961 v -9.2901 h 2.9389 v 17.3394 z"
     style="font-size:33.438px;font-family:ArialMT, Arial, sans-serif;stroke-width:33.438"
     id="path15408" /><path
     d="m 1273.5673,1626.5919 v -3.3797 h 2.9389 v 3.3797 z m 0,20.5559 v -17.3394 h 2.9389 v 17.3394 z"
     style="font-size:33.438px;font-family:ArialMT, Arial, sans-serif;stroke-width:33.438"
     id="path15410" /></g>
        <g
   aria-label="oui"
   id="text153"
   style="font-size:33.438px;font-family:ArialMT, Arial, sans-serif;stroke-width:33.438"><path
     d="m 880.66377,2231.8781 q 0,-4.8165 2.67766,-7.1349 2.23682,-1.9266 5.45326,-1.9266 3.57565,0 5.84512,2.3511 2.26948,2.3348 2.26948,6.4655 0,3.3471 -1.01229,5.2737 -0.99595,1.9103 -2.92256,2.9715 -1.91027,1.0613 -4.17975,1.0613 -3.64095,0 -5.8941,-2.3348 -2.23682,-2.3348 -2.23682,-6.7268 z m 3.02053,0 q 0,3.3308 1.45311,4.9961 1.45312,1.6491 3.65728,1.6491 2.18784,0 3.64096,-1.6654 1.45311,-1.6654 1.45311,-5.0777 0,-3.2165 -1.46944,-4.8655 -1.45312,-1.6654 -3.62463,-1.6654 -2.20416,0 -3.65728,1.6491 -1.45311,1.649 -1.45311,4.9797 z"
     style="font-size:33.438px;font-family:ArialMT, Arial, sans-serif;stroke-width:33.438"
     id="path15413" /><path
     d="m 911.71801,2240.5479 v -2.5471 q -2.02457,2.9389 -5.50225,2.9389 -1.53475,0 -2.87358,-0.5878 -1.3225,-0.5878 -1.97558,-1.4694 -0.63676,-0.898 -0.89799,-2.1879 -0.1796,-0.8653 -0.1796,-2.7429 v -10.7433 h 2.93888 v 9.6167 q 0,2.3021 0.1796,3.1022 0.27756,1.1592 1.17556,1.8286 0.89799,0.6531 2.22049,0.6531 1.3225,0 2.48173,-0.6694 1.15922,-0.6858 1.63271,-1.845 0.48981,-1.1755 0.48981,-3.396 v -9.2902 h 2.93889 v 17.3395 z"
     style="font-size:33.438px;font-family:ArialMT, Arial, sans-serif;stroke-width:33.438"
     id="path15415" /><path
     d="m 918.96726,2219.992 v -3.3797 h 2.93889 v 3.3797 z m 0,20.5559 v -17.3395 h 2.93889 v 17.3395 z"
     style="font-size:33.438px;font-family:ArialMT, Arial, sans-serif;stroke-width:33.438"
     id="path15417" /></g>
        <g
   aria-label="non"
   id="text157"
   style="font-size:33.438px;font-family:ArialMT, Arial, sans-serif;stroke-width:33.438"><path
     d="m 491.45774,2234.5479 v -17.3395 h 2.64499 v 2.4654 q 1.91028,-2.8572 5.51858,-2.8572 1.56741,0 2.87358,0.5714 1.3225,0.5551 1.97558,1.4695 0.65309,0.9143 0.91432,2.1715 0.16327,0.8163 0.16327,2.8572 v 10.6617 h -2.93888 v -10.5474 q 0,-1.796 -0.34287,-2.6776 -0.34287,-0.898 -1.22454,-1.4205 -0.86534,-0.5388 -2.04089,-0.5388 -1.87762,0 -3.2491,1.1919 -1.35516,1.1919 -1.35516,4.5226 v 9.4698 z"
     style="font-size:33.438px;font-family:ArialMT, Arial, sans-serif;stroke-width:33.438"
     id="path15420" /><path
     d="m 508.96044,2225.8781 q 0,-4.8165 2.67765,-7.1349 2.23682,-1.9266 5.45327,-1.9266 3.57564,0 5.84512,2.3511 2.26947,2.3348 2.26947,6.4655 0,3.3471 -1.01228,5.2737 -0.99596,1.9103 -2.92256,2.9715 -1.91028,1.0613 -4.17975,1.0613 -3.64096,0 -5.8941,-2.3348 -2.23682,-2.3348 -2.23682,-6.7268 z m 3.02052,0 q 0,3.3308 1.45312,4.9961 1.45311,1.6491 3.65728,1.6491 2.18784,0 3.64095,-1.6654 1.45312,-1.6654 1.45312,-5.0777 0,-3.2165 -1.46944,-4.8655 -1.45312,-1.6654 -3.62463,-1.6654 -2.20417,0 -3.65728,1.6491 -1.45312,1.649 -1.45312,4.9797 z"
     style="font-size:33.438px;font-family:ArialMT, Arial, sans-serif;stroke-width:33.438"
     id="path15422" /><path
     d="m 528.65098,2234.5479 v -17.3395 h 2.645 v 2.4654 q 1.91027,-2.8572 5.51857,-2.8572 1.56741,0 2.87358,0.5714 1.3225,0.5551 1.97559,1.4695 0.65308,0.9143 0.91432,2.1715 0.16327,0.8163 0.16327,2.8572 v 10.6617 h -2.93889 v -10.5474 q 0,-1.796 -0.34287,-2.6776 -0.34287,-0.898 -1.22453,-1.4205 -0.86534,-0.5388 -2.0409,-0.5388 -1.87762,0 -3.2491,1.1919 -1.35515,1.1919 -1.35515,4.5226 v 9.4698 z"
     style="font-size:33.438px;font-family:ArialMT, Arial, sans-serif;stroke-width:33.438"
     id="path15424" /></g>
        <g
   aria-label="non"
   id="text161"
   style="font-size:33.438px;font-family:ArialMT, Arial, sans-serif;stroke-width:33.438"><path
     d="m 792.25769,1653.7478 v -17.3394 h 2.645 v 2.4654 q 1.91028,-2.8573 5.51858,-2.8573 1.5674,0 2.87358,0.5715 1.32249,0.5551 1.97558,1.4694 0.65309,0.9143 0.91432,2.1715 0.16327,0.8164 0.16327,2.8573 v 10.6616 h -2.93888 v -10.5473 q 0,-1.796 -0.34287,-2.6777 -0.34288,-0.898 -1.22454,-1.4204 -0.86534,-0.5388 -2.04089,-0.5388 -1.87763,0 -3.24911,1.1918 -1.35515,1.1919 -1.35515,4.5227 v 9.4697 z"
     style="font-size:33.438px;font-family:ArialMT, Arial, sans-serif;stroke-width:33.438"
     id="path15427" /><path
     d="m 809.7604,1645.0781 q 0,-4.8165 2.67765,-7.135 2.23682,-1.9266 5.45327,-1.9266 3.57564,0 5.84512,2.3511 2.26947,2.3348 2.26947,6.4656 0,3.347 -1.01228,5.2736 -0.99596,1.9103 -2.92256,2.9716 -1.91028,1.0613 -4.17975,1.0613 -3.64096,0 -5.8941,-2.3348 -2.23682,-2.3348 -2.23682,-6.7268 z m 3.02052,0 q 0,3.3307 1.45312,4.9961 1.45311,1.649 3.65728,1.649 2.18783,0 3.64095,-1.6653 1.45312,-1.6654 1.45312,-5.0778 0,-3.2164 -1.46945,-4.8655 -1.45311,-1.6653 -3.62462,-1.6653 -2.20417,0 -3.65728,1.649 -1.45312,1.649 -1.45312,4.9798 z"
     style="font-size:33.438px;font-family:ArialMT, Arial, sans-serif;stroke-width:33.438"
     id="path15429" /><path
     d="m 829.45094,1653.7478 v -17.3394 h 2.645 v 2.4654 q 1.91027,-2.8573 5.51857,-2.8573 1.56741,0 2.87358,0.5715 1.3225,0.5551 1.97558,1.4694 0.65309,0.9143 0.91433,2.1715 0.16327,0.8164 0.16327,2.8573 v 10.6616 h -2.93889 v -10.5473 q 0,-1.796 -0.34287,-2.6777 -0.34287,-0.898 -1.22454,-1.4204 -0.86534,-0.5388 -2.04089,-0.5388 -1.87762,0 -3.2491,1.1918 -1.35516,1.1919 -1.35516,4.5227 v 9.4697 z"
     style="font-size:33.438px;font-family:ArialMT, Arial, sans-serif;stroke-width:33.438"
     id="path15431" /></g>
        <g
   aria-label="fin"
   id="text165"
   style="font-size:33.438px;font-family:ArialMT, Arial, sans-serif;stroke-width:33.438"><path
     d="m 1031.557,2216.2478 v -15.0536 h -2.596 v -2.2858 h 2.596 v -1.845 q 0,-1.747 0.3102,-2.596 0.4245,-1.1429 1.4858,-1.845 1.0776,-0.7184 3.0042,-0.7184 1.2408,0 2.7429,0.2939 l -0.4408,2.5634 q -0.9143,-0.1633 -1.7307,-0.1633 -1.3388,0 -1.8939,0.5715 -0.5552,0.5714 -0.5552,2.1388 v 1.6001 h 3.3798 v 2.2858 h -3.3798 v 15.0536 z"
     style="font-size:33.438px;font-family:ArialMT, Arial, sans-serif;stroke-width:33.438"
     id="path15434" /><path
     d="m 1040.1614,2195.6919 v -3.3797 h 2.9389 v 3.3797 z m 0,20.5559 v -17.3394 h 2.9389 v 17.3394 z"
     style="font-size:33.438px;font-family:ArialMT, Arial, sans-serif;stroke-width:33.438"
     id="path15436" /><path
     d="m 1047.5739,2216.2478 v -17.3394 h 2.645 v 2.4654 q 1.9103,-2.8573 5.5186,-2.8573 1.5674,0 2.8736,0.5715 1.3225,0.5551 1.9756,1.4694 0.653,0.9143 0.9143,2.1715 0.1633,0.8164 0.1633,2.8573 v 10.6616 h -2.9389 v -10.5473 q 0,-1.796 -0.3429,-2.6777 -0.3429,-0.898 -1.2245,-1.4204 -0.8654,-0.5388 -2.0409,-0.5388 -1.8777,0 -3.2491,1.1918 -1.3552,1.1919 -1.3552,4.5227 v 9.4697 z"
     style="font-size:33.438px;font-family:ArialMT, Arial, sans-serif;stroke-width:33.438"
     id="path15438" /></g>
        <path
   d="m 1047.35,1261 0.67,105.46"
   style="fill:none;stroke:#000000;stroke-width:1.6px"
   id="path169" />
        <path
   d="m 1044.2971,1494.456 0.6701,91.62"
   style="fill:none;stroke:#000000;stroke-width:1.6px"
   id="path171" />
        <path
   d="m 896.199,1664.127 -173.209,0.13 v 217.87"
   style="fill:none;stroke:#000000;stroke-width:1.6px"
   id="path175" />
        <path
   d="m 1194.423,1664.255 h 181.3 v 73.19"
   style="fill:none;stroke:#000000;stroke-width:1.6px"
   id="path179" />
        <path
   d="m 1058.32,1348.21 c -4.04,4.42 -7.45,10.57 -10.3,18.25 -4.14,-5.26 -7.81,-11.12 -9.61,-19.25"
   style="fill:none;stroke:#000000;stroke-width:1.6px"
   id="path183" />
        <path
   d="m 1055.2672,1567.826 c -4.04,4.42 -7.4501,10.57 -10.3,18.25 -4.1401,-5.26 -7.81,-11.12 -9.61,-19.25"
   style="fill:none;stroke:#000000;stroke-width:1.6px"
   id="path185" />
        <path
   d="m 733.129,2107.989 c -4.04,4.42 -7.45,10.57 -10.3,18.25 -4.14,-5.26 -7.81,-11.12 -9.61,-19.25"
   style="fill:none;stroke:#000000;stroke-width:1.6px"
   id="path189" />
        <path
   d="m 732.943,1768.866 c -4.04,4.42 -7.45,10.57 -10.3,18.25 -4.14,-5.26 -7.81,-11.12 -9.61,-19.25"
   style="fill:none;stroke:#000000;stroke-width:1.6px"
   id="path193" />
        <path
   d="m 732.943,1863.87 c -4.04,4.42 -7.45,10.57 -10.3,18.25 -4.14,-5.26 -7.81,-11.12 -9.61,-19.25"
   style="fill:none;stroke:#000000;stroke-width:1.6px"
   id="path197" />
        <path
   d="m 1385.68,1719.188 c -4.04,4.42 -7.45,10.57 -10.3,18.25 -4.14,-5.26 -7.81,-11.12 -9.61,-19.25"
   style="fill:none;stroke:#000000;stroke-width:1.6px"
   id="path201" />
        <path
   d="m 755.42,1791.34 c -4.42,4.04 -10.57,7.45 -18.25,10.3 5.26,4.14 11.12,7.81 19.25,9.61"
   style="fill:none;stroke:#000000;stroke-width:1.6px"
   id="path205" />
        <path
   d="m 690.554,1791.34 c 4.42,4.04 10.57,7.45 18.25,10.3 -5.26,4.14 -11.12,7.81 -19.25,9.61"
   style="fill:none;stroke:#000000;stroke-width:1.6px"
   id="path209" />
        <path
   d="m 933.522,2192.33 c 4.42,4.04 10.57,7.45 18.25,10.3 -5.26,4.14 -11.12,7.81 -19.25,9.61"
   style="fill:none;stroke:#000000;stroke-width:1.6px"
   id="path213" />
        
        <g
   aria-label="Est 
une         ?"
   id="text221"
   style="font-size:33.438px;font-family:ArialMT, Arial, sans-serif;stroke-width:33.438"><path
     d="m 968.55491,1653.9508 v -23.9356 h 17.30678 v 2.8246 h -14.13931 v 7.3309 h 13.24131 v 2.8083 h -13.24131 v 8.1472 h 14.69443 v 2.8246 z"
     id="path15441" /><path
     d="m 989.24141,1648.7751 2.90623,-0.4572 q 0.24491,1.747 1.35515,2.6777 1.12658,0.9306 3.13482,0.9306 2.02456,0 3.00419,-0.8163 0.9796,-0.8327 0.9796,-1.9429 0,-0.996 -0.86531,-1.5675 -0.6041,-0.3918 -3.00419,-0.9959 -3.23278,-0.8164 -4.48997,-1.4041 -1.24086,-0.6042 -1.89395,-1.6491 -0.63676,-1.0613 -0.63676,-2.3348 0,-1.1592 0.52247,-2.1388 0.5388,-0.996 1.45312,-1.6491 0.68574,-0.5061 1.86129,-0.849 1.19188,-0.3592 2.54704,-0.3592 2.04089,0 3.57564,0.5878 1.55112,0.5878 2.28582,1.6001 0.7347,0.9959 1.0123,2.6776 l -2.8736,0.3919 q -0.19594,-1.3389 -1.14291,-2.0899 -0.93065,-0.7511 -2.645,-0.7511 -2.02457,0 -2.88991,0.6695 -0.86533,0.6694 -0.86533,1.5674 0,0.5714 0.35919,1.0286 0.3592,0.4735 1.12658,0.7837 0.44083,0.1632 2.59601,0.751 3.11849,0.8327 4.34307,1.3715 1.2408,0.5225 1.9429,1.5348 0.7021,1.0122 0.7021,2.5143 0,1.4695 -0.8654,2.7757 -0.849,1.2898 -2.4654,2.0082 -1.61637,0.7021 -3.65727,0.7021 -3.37972,0 -5.15938,-1.4042 -1.76333,-1.4041 -2.25314,-4.1634 z"
     id="path15443" /><path
     d="m 1013.5525,1651.3221 0.4245,2.5961 q -1.2408,0.2612 -2.2205,0.2612 -1.6,0 -2.4817,-0.5062 -0.8816,-0.5061 -1.2408,-1.3225 -0.3592,-0.8326 -0.3592,-3.4776 v -9.9759 h -2.1552 v -2.2858 h 2.1552 v -4.2941 l 2.9225,-1.7633 v 6.0574 h 2.9552 v 2.2858 h -2.9552 v 10.1391 q 0,1.2572 0.147,1.6164 0.1632,0.3592 0.5061,0.5715 0.3592,0.2122 1.0123,0.2122 0.4898,0 1.2898,-0.1143 z"
     id="path15445" /><path
     d="m 979.47777,1695.7483 v -2.547 q -2.02456,2.9389 -5.50225,2.9389 -1.53475,0 -2.87357,-0.5878 -1.3225,-0.5878 -1.97559,-1.4695 -0.63676,-0.898 -0.89799,-2.1878 -0.1796,-0.8653 -0.1796,-2.743 v -10.7432 h 2.93889 v 9.6167 q 0,2.3021 0.17959,3.1021 0.27757,1.1592 1.17556,1.8287 0.89799,0.653 2.22049,0.653 1.3225,0 2.48173,-0.6694 1.15922,-0.6857 1.63271,-1.8449 0.48982,-1.1756 0.48982,-3.3961 v -9.2901 h 2.93888 v 17.3394 z"
     id="path15447" /><path
     d="m 986.7107,1695.7483 v -17.3394 h 2.645 v 2.4654 q 1.91027,-2.8573 5.51857,-2.8573 1.56741,0 2.87358,0.5715 1.3225,0.5551 1.97559,1.4694 0.65306,0.9143 0.91436,2.1715 0.1632,0.8164 0.1632,2.8573 v 10.6616 h -2.93886 v -10.5473 q 0,-1.796 -0.34287,-2.6777 -0.34287,-0.898 -1.22453,-1.4204 -0.86534,-0.5388 -2.0409,-0.5388 -1.87762,0 -3.2491,1.1918 -1.35515,1.1919 -1.35515,4.5227 v 9.4697 z"
     id="path15449" /><path
     d="m 1017.1772,1690.1644 3.0368,0.3755 q -0.7184,2.6614 -2.6613,4.1308 -1.9429,1.4695 -4.9635,1.4695 -3.8042,0 -6.041,-2.3348 -2.2205,-2.3511 -2.2205,-6.5799 0,-4.3756 2.2531,-6.7921 2.2532,-2.4164 5.8452,-2.4164 3.4776,0 5.6818,2.3675 2.2042,2.3674 2.2042,6.6614 0,0.2613 -0.016,0.7837 h -12.9311 q 0.1633,2.8573 1.6164,4.3757 1.4531,1.5184 3.6247,1.5184 1.6163,0 2.7592,-0.849 1.1429,-0.849 1.8124,-2.7103 z m -9.6494,-4.7512 h 9.682 q -0.1959,-2.1878 -1.1102,-3.2817 -1.4042,-1.6981 -3.641,-1.6981 -2.0246,0 -3.4124,1.3552 -1.3714,1.3551 -1.5184,3.6246 z"
     id="path15451" /><path
     d="m 1113.0175,1689.8542 q -0.016,-0.5878 -0.016,-0.8817 0,-1.7306 0.4898,-2.9878 0.3592,-0.947 1.1592,-1.9103 0.5878,-0.7021 2.1062,-2.0409 1.5348,-1.3552 1.992,-2.1552 0.4571,-0.8 0.4571,-1.747 0,-1.7143 -1.3388,-3.0042 -1.3388,-1.3062 -3.2818,-1.3062 -1.8776,0 -3.1348,1.1756 -1.2572,1.1756 -1.649,3.6736 l -3.0205,-0.3592 q 0.4081,-3.3471 2.4164,-5.1267 2.0245,-1.7797 5.339,-1.7797 3.5103,0 5.6002,1.9103 2.0898,1.9103 2.0898,4.6206 0,1.5674 -0.7347,2.8899 -0.7347,1.3225 -2.8736,3.2164 -1.4368,1.2736 -1.8776,1.8777 -0.4408,0.6041 -0.6531,1.3878 -0.2122,0.7837 -0.2449,2.547 z m -0.1796,5.8941 v -3.3471 h 3.3471 v 3.3471 z"
     id="path15453" /></g>
        <g
   aria-label="Le"
   id="text225"
   style="font-size:33.438px;font-family:ArialMT, Arial, sans-serif;stroke-width:33.438"><path
     d="m 710.32603,2159.5342 v -23.9356 h 3.16746 v 21.111 h 11.7882 v 2.8246 z"
     style="font-size:33.438px;font-family:ArialMT, Arial, sans-serif;stroke-width:33.438"
     id="path15456" /><path
     d="m 740.54758,2153.9503 3.03685,0.3755 q -0.7184,2.6613 -2.66133,4.1308 -1.94293,1.4694 -4.96345,1.4694 -3.80423,0 -6.04105,-2.3348 -2.22049,-2.3511 -2.22049,-6.5798 0,-4.3757 2.25315,-6.7921 2.25314,-2.4164 5.84512,-2.4164 3.47768,0 5.68184,2.3674 2.20417,2.3675 2.20417,6.6615 0,0.2612 -0.0163,0.7837 h -12.9311 q 0.16327,2.8573 1.61639,4.3757 1.45312,1.5184 3.62463,1.5184 1.61638,0 2.75928,-0.849 1.1429,-0.849 1.81232,-2.7103 z m -9.64935,-4.7512 h 9.682 q -0.19592,-2.1878 -1.11024,-3.2818 -1.40414,-1.698 -3.64096,-1.698 -2.02456,0 -3.41237,1.3552 -1.37148,1.3551 -1.51843,3.6246 z"
     style="font-size:33.438px;font-family:ArialMT, Arial, sans-serif;stroke-width:33.438"
     id="path15458" /></g><g
   aria-label="bouquet"
   id="text227"
   style="font-size:33.438px;font-family:ArialMT, Arial, sans-serif;stroke-width:33.438"><path
     d="m 668.04673,2185.45 h -2.72663 v -23.9356 h 2.93889 v 8.5391 q 1.86129,-2.3348 4.7512,-2.3348 1.60006,0 3.02052,0.6531 1.43679,0.6367 2.35111,1.8123 0.93065,1.1592 1.45312,2.8082 0.52246,1.6491 0.52246,3.5267 0,4.4573 -2.20416,6.8901 -2.20417,2.4327 -5.29,2.4327 -3.0695,0 -4.81651,-2.5634 z m -0.0326,-8.8004 q 0,3.1185 0.84901,4.5063 1.38781,2.2695 3.75525,2.2695 1.9266,0 3.33073,-1.6654 1.40414,-1.6817 1.40414,-4.9961 0,-3.396 -1.35515,-5.0124 -1.33883,-1.6164 -3.24911,-1.6164 -1.9266,0 -3.33073,1.6817 -1.40414,1.6654 -1.40414,4.8328 z"
     style="font-size:33.438px;font-family:ArialMT, Arial, sans-serif;stroke-width:33.438"
     id="path15461" /><path
     d="m 682.83913,2176.7802 q 0,-4.8165 2.67765,-7.1349 2.23682,-1.9266 5.45327,-1.9266 3.57565,0 5.84512,2.3511 2.26947,2.3348 2.26947,6.4655 0,3.3471 -1.01228,5.2737 -0.99595,1.9103 -2.92256,2.9715 -1.91027,1.0613 -4.17975,1.0613 -3.64095,0 -5.8941,-2.3348 -2.23682,-2.3348 -2.23682,-6.7268 z m 3.02052,0 q 0,3.3308 1.45312,4.9961 1.45312,1.6491 3.65728,1.6491 2.18784,0 3.64096,-1.6654 1.45311,-1.6654 1.45311,-5.0777 0,-3.2165 -1.46944,-4.8655 -1.45312,-1.6654 -3.62463,-1.6654 -2.20416,0 -3.65728,1.6491 -1.45312,1.649 -1.45312,4.9797 z"
     style="font-size:33.438px;font-family:ArialMT, Arial, sans-serif;stroke-width:33.438"
     id="path15463" /><path
     d="m 713.89337,2185.45 v -2.5471 q -2.02457,2.9389 -5.50225,2.9389 -1.53475,0 -2.87358,-0.5878 -1.3225,-0.5878 -1.97558,-1.4694 -0.63676,-0.898 -0.898,-2.1879 -0.1796,-0.8653 -0.1796,-2.7429 v -10.7433 h 2.93889 v 9.6167 q 0,2.3021 0.1796,3.1022 0.27756,1.1592 1.17555,1.8286 0.898,0.6531 2.2205,0.6531 1.3225,0 2.48172,-0.6694 1.15923,-0.6858 1.63272,-1.845 0.48981,-1.1755 0.48981,-3.396 v -9.2902 h 2.93889 v 17.3395 z"
     style="font-size:33.438px;font-family:ArialMT, Arial, sans-serif;stroke-width:33.438"
     id="path15465" /><path
     d="m 732.17978,2192.0951 v -8.4901 q -0.68575,0.9633 -1.92661,1.6 -1.22453,0.6368 -2.61234,0.6368 -3.08583,0 -5.32265,-2.4654 -2.22049,-2.4654 -2.22049,-6.7594 0,-2.6124 0.89799,-4.6859 0.91432,-2.0736 2.62867,-3.1348 1.73068,-1.0776 3.7879,-1.0776 3.21645,0 5.06141,2.7103 v -2.3185 h 2.645 v 23.9846 z m -9.06157,-15.3638 q 0,3.347 1.40413,5.0287 1.40414,1.6654 3.3634,1.6654 1.87762,0 3.23277,-1.5837 1.35515,-1.6001 1.35515,-4.8492 0,-3.4614 -1.43679,-5.2084 -1.42046,-1.747 -3.34706,-1.747 -1.91028,0 -3.2491,1.6327 -1.3225,1.6164 -1.3225,5.0615 z"
     style="font-size:33.438px;font-family:ArialMT, Arial, sans-serif;stroke-width:33.438"
     id="path15467" /><path
     d="m 751.08661,2185.45 v -2.5471 q -2.02456,2.9389 -5.50225,2.9389 -1.53475,0 -2.87357,-0.5878 -1.3225,-0.5878 -1.97559,-1.4694 -0.63676,-0.898 -0.89799,-2.1879 -0.1796,-0.8653 -0.1796,-2.7429 v -10.7433 h 2.93889 v 9.6167 q 0,2.3021 0.17959,3.1022 0.27757,1.1592 1.17556,1.8286 0.89799,0.6531 2.22049,0.6531 1.3225,0 2.48173,-0.6694 1.15923,-0.6858 1.63271,-1.845 0.48982,-1.1755 0.48982,-3.396 v -9.2902 h 2.93888 v 17.3395 z"
     style="font-size:33.438px;font-family:ArialMT, Arial, sans-serif;stroke-width:33.438"
     id="path15469" /><path
     d="m 770.18937,2179.8661 3.03685,0.3755 q -0.71839,2.6613 -2.66132,4.1308 -1.94293,1.4694 -4.96346,1.4694 -3.80422,0 -6.04104,-2.3348 -2.22049,-2.3511 -2.22049,-6.5798 0,-4.3757 2.25314,-6.7921 2.25315,-2.4164 5.84512,-2.4164 3.47769,0 5.68185,2.3674 2.20417,2.3674 2.20417,6.6615 0,0.2612 -0.0163,0.7837 h -12.9311 q 0.16327,2.8572 1.61639,4.3757 1.45311,1.5184 3.62462,1.5184 1.61639,0 2.75929,-0.849 1.1429,-0.849 1.81231,-2.7103 z m -9.64934,-4.7512 h 9.682 q -0.19593,-2.1879 -1.11025,-3.2818 -1.40413,-1.698 -3.64095,-1.698 -2.02457,0 -3.41238,1.3551 -1.37148,1.3552 -1.51842,3.6247 z"
     style="font-size:33.438px;font-family:ArialMT, Arial, sans-serif;stroke-width:33.438"
     id="path15471" /><path
     d="m 783.33273,2182.8213 0.42451,2.596 q -1.24087,0.2612 -2.22049,0.2612 -1.60006,0 -2.48173,-0.5061 -0.88167,-0.5062 -1.24086,-1.3225 -0.3592,-0.8327 -0.3592,-3.4777 v -9.9759 h -2.15518 v -2.2858 h 2.15518 v -4.294 l 2.92256,-1.7634 v 6.0574 h 2.95521 v 2.2858 h -2.95521 v 10.1392 q 0,1.2572 0.14694,1.6164 0.16327,0.3592 0.50614,0.5714 0.3592,0.2123 1.01229,0.2123 0.48981,0 1.28984,-0.1143 z"
     style="font-size:33.438px;font-family:ArialMT, Arial, sans-serif;stroke-width:33.438"
     id="path15473" /></g><g
   aria-label="?"
   id="text231"
   style="font-size:33.438px;font-family:ArialMT, Arial, sans-serif;stroke-width:33.438"><path
     d="m 722.35095,2269.5654 q -0.0163,-0.5878 -0.0163,-0.8817 0,-1.7307 0.48981,-2.9879 0.3592,-0.9469 1.15923,-1.9102 0.58778,-0.7021 2.1062,-2.0409 1.53475,-1.3552 1.99191,-2.1552 0.45716,-0.8 0.45716,-1.747 0,-1.7144 -1.33882,-3.0042 -1.33883,-1.3062 -3.28176,-1.3062 -1.87762,0 -3.13481,1.1756 -1.25719,1.1755 -1.64904,3.6736 l -3.02053,-0.3592 q 0.40818,-3.3471 2.41642,-5.1267 2.02457,-1.7797 5.33898,-1.7797 3.51034,0 5.60021,1.9103 2.08988,1.9102 2.08988,4.6206 0,1.5674 -0.73472,2.8899 -0.73473,1.3225 -2.87358,3.2164 -1.43679,1.2735 -1.87762,1.8776 -0.44084,0.6041 -0.65309,1.3878 -0.21225,0.7837 -0.24491,2.5471 z m -0.1796,5.8941 v -3.3471 h 3.34706 v 3.3471 z"
     style="font-size:33.438px;font-family:ArialMT, Arial, sans-serif;stroke-width:33.438"
     id="path15476" /></g><g
   aria-label="a-t-il 4"
   id="text231-6"
   style="font-size:33.438px;font-family:ArialMT, Arial, sans-serif;stroke-width:33.438"><path
     d="m 699.0027,2212.7071 q -1.63271,1.3878 -3.15114,1.9592 -1.50209,0.5715 -3.23277,0.5715 -2.85725,0 -4.392,-1.3878 -1.53476,-1.4041 -1.53476,-3.5757 0,-1.2735 0.57145,-2.3184 0.58778,-1.0613 1.51843,-1.698 0.94697,-0.6368 2.12253,-0.9633 0.86534,-0.2286 2.61234,-0.4409 3.55932,-0.4245 5.24102,-1.0123 0.0163,-0.6041 0.0163,-0.7673 0,-1.796 -0.83268,-2.5307 -1.12657,-0.996 -3.34707,-0.996 -2.07354,0 -3.0695,0.7347 -0.97963,0.7184 -1.45312,2.5634 l -2.87357,-0.3919 q 0.39185,-1.8449 1.28984,-2.9715 0.89799,-1.1429 2.59602,-1.747 1.69802,-0.6204 3.93484,-0.6204 2.22049,0 3.6083,0.5224 1.38781,0.5225 2.04089,1.3225 0.65309,0.7837 0.91432,1.9919 0.14695,0.7511 0.14695,2.7104 v 3.9185 q 0,4.0981 0.1796,5.192 0.19592,1.0776 0.75105,2.0735 h -3.06951 q -0.45716,-0.9143 -0.58778,-2.1388 z m -0.2449,-6.5635 q -1.60006,0.6531 -4.80018,1.1102 -1.81232,0.2613 -2.56337,0.5878 -0.75105,0.3265 -1.15922,0.9633 -0.40818,0.6204 -0.40818,1.3878 0,1.1756 0.88166,1.9593 0.898,0.7837 2.61235,0.7837 1.69802,0 3.02052,-0.7348 1.3225,-0.751 1.94293,-2.0408 0.47349,-0.996 0.47349,-2.9389 z"
     style="font-size:33.438px;font-family:ArialMT, Arial, sans-serif;stroke-width:33.438"
     id="path15479" /><path
     d="m 705.14171,2207.662 v -2.9552 h 9.02892 v 2.9552 z"
     style="font-size:33.438px;font-family:ArialMT, Arial, sans-serif;stroke-width:33.438"
     id="path15481" /><path
     d="m 723.8363,2212.2173 0.4245,2.596 q -1.24086,0.2612 -2.22049,0.2612 -1.60006,0 -2.48173,-0.5061 -0.88166,-0.5062 -1.24086,-1.3225 -0.3592,-0.8327 -0.3592,-3.4777 v -9.9759 h -2.15518 v -2.2858 h 2.15518 v -4.294 l 2.92256,-1.7634 v 6.0574 h 2.95522 v 2.2858 h -2.95522 v 10.1392 q 0,1.2572 0.14695,1.6164 0.16327,0.3592 0.50614,0.5714 0.3592,0.2123 1.01228,0.2123 0.48982,0 1.28985,-0.1143 z"
     style="font-size:33.438px;font-family:ArialMT, Arial, sans-serif;stroke-width:33.438"
     id="path15483" /><path
     d="m 725.56698,2207.662 v -2.9552 h 9.02891 v 2.9552 z"
     style="font-size:33.438px;font-family:ArialMT, Arial, sans-serif;stroke-width:33.438"
     id="path15485" /><path
     d="m 737.86132,2194.2901 v -3.3798 h 2.93888 v 3.3798 z m 0,20.5558 v -17.3394 h 2.93888 v 17.3394 z"
     style="font-size:33.438px;font-family:ArialMT, Arial, sans-serif;stroke-width:33.438"
     id="path15487" /><path
     d="m 745.20854,2214.8459 v -23.9356 h 2.93888 v 23.9356 z"
     style="font-size:33.438px;font-family:ArialMT, Arial, sans-serif;stroke-width:33.438"
     id="path15489" /><path
     d="m 770.59725,2214.8459 v -5.7308 h -10.38406 v -2.694 l 10.92286,-15.5108 h 2.40009 v 15.5108 h 3.23278 v 2.694 h -3.23278 v 5.7308 z m 0,-8.4248 v -10.7922 l -7.49416,10.7922 z"
     style="font-size:33.438px;font-family:ArialMT, Arial, sans-serif;stroke-width:33.438"
     id="path15491" /></g>
        <g
   aria-label="choisis"
   id="text235"
   style="font-size:33.438px;font-family:ArialMT, Arial, sans-serif;stroke-width:33.438"><path
     d="m 1241.2943,1768.9905 2.8899,0.3756 q -0.4735,2.9878 -2.4328,4.6859 -1.9429,1.6816 -4.7838,1.6816 -3.5593,0 -5.7309,-2.3184 -2.1551,-2.3348 -2.1551,-6.6778 0,-2.8083 0.9306,-4.9145 0.9307,-2.1062 2.8246,-3.1511 1.9103,-1.0613 4.1471,-1.0613 2.8246,0 4.6206,1.4368 1.796,1.4205 2.3021,4.0491 l -2.8572,0.4409 q -0.4082,-1.747 -1.4532,-2.6287 -1.0286,-0.8817 -2.498,-0.8817 -2.2205,0 -3.6083,1.6001 -1.3878,1.5837 -1.3878,5.0288 0,3.494 1.3388,5.0777 1.3388,1.5837 3.494,1.5837 1.7307,0 2.8899,-1.0612 1.1593,-1.0613 1.4695,-3.2655 z"
     style="font-size:33.438px;font-family:ArialMT, Arial, sans-serif;stroke-width:33.438"
     id="path15494" /><path
     d="m 1246.6986,1775.3418 v -23.9356 h 2.9388 v 8.5881 q 2.0573,-2.3838 5.1921,-2.3838 1.9266,0 3.347,0.7674 1.4205,0.751 2.0246,2.0899 0.6204,1.3388 0.6204,3.8858 v 10.9882 h -2.9388 v -10.9882 q 0,-2.2041 -0.9633,-3.2001 -0.947,-1.0123 -2.694,-1.0123 -1.3062,0 -2.4654,0.6858 -1.1429,0.6694 -1.6327,1.8286 -0.4899,1.1592 -0.4899,3.2001 v 9.4861 z"
     style="font-size:33.438px;font-family:ArialMT, Arial, sans-serif;stroke-width:33.438"
     id="path15496" /><path
     d="m 1264.2013,1766.6721 q 0,-4.8165 2.6776,-7.135 2.2368,-1.9266 5.4533,-1.9266 3.5756,0 5.8451,2.3511 2.2695,2.3348 2.2695,6.4656 0,3.347 -1.0123,5.2736 -0.996,1.9103 -2.9226,2.9716 -1.9102,1.0612 -4.1797,1.0612 -3.641,0 -5.8941,-2.3347 -2.2368,-2.3348 -2.2368,-6.7268 z m 3.0205,0 q 0,3.3307 1.4531,4.9961 1.4531,1.649 3.6573,1.649 2.1878,0 3.6409,-1.6653 1.4531,-1.6654 1.4531,-5.0778 0,-3.2164 -1.4694,-4.8655 -1.4531,-1.6653 -3.6246,-1.6653 -2.2042,0 -3.6573,1.649 -1.4531,1.649 -1.4531,4.9798 z"
     style="font-size:33.438px;font-family:ArialMT, Arial, sans-serif;stroke-width:33.438"
     id="path15498" /><path
     d="m 1283.9081,1754.7859 v -3.3797 h 2.9389 v 3.3797 z m 0,20.5559 v -17.3394 h 2.9389 v 17.3394 z"
     style="font-size:33.438px;font-family:ArialMT, Arial, sans-serif;stroke-width:33.438"
     id="path15500" /><path
     d="m 1290.1451,1770.1661 2.9062,-0.4572 q 0.2449,1.747 1.3552,2.6777 1.1266,0.9306 3.1348,0.9306 2.0246,0 3.0042,-0.8163 0.9796,-0.8327 0.9796,-1.943 0,-0.9959 -0.8653,-1.5674 -0.6041,-0.3918 -3.0042,-0.9959 -3.2328,-0.8164 -4.49,-1.4042 -1.2408,-0.6041 -1.8939,-1.649 -0.6368,-1.0613 -0.6368,-2.3348 0,-1.1592 0.5225,-2.1388 0.5388,-0.996 1.4531,-1.6491 0.6857,-0.5061 1.8613,-0.849 1.1919,-0.3592 2.547,-0.3592 2.0409,0 3.5757,0.5878 1.5511,0.5878 2.2858,1.6001 0.7347,0.9959 1.0123,2.6776 l -2.8736,0.3919 q -0.1959,-1.3389 -1.1429,-2.0899 -0.9307,-0.7511 -2.645,-0.7511 -2.0246,0 -2.8899,0.6694 -0.8654,0.6695 -0.8654,1.5675 0,0.5714 0.3592,1.0286 0.3592,0.4734 1.1266,0.7837 0.4408,0.1632 2.596,0.751 3.1185,0.8327 4.343,1.3715 1.2409,0.5225 1.943,1.5347 0.702,1.0123 0.702,2.5144 0,1.4695 -0.8653,2.7756 -0.849,1.2899 -2.4654,2.0083 -1.6164,0.702 -3.6573,0.702 -3.3797,0 -5.1594,-1.4041 -1.7633,-1.4041 -2.2531,-4.1634 z"
     style="font-size:33.438px;font-family:ArialMT, Arial, sans-serif;stroke-width:33.438"
     id="path15502" /><path
     d="m 1308.056,1754.7859 v -3.3797 h 2.9389 v 3.3797 z m 0,20.5559 v -17.3394 h 2.9389 v 17.3394 z"
     style="font-size:33.438px;font-family:ArialMT, Arial, sans-serif;stroke-width:33.438"
     id="path15504" /><path
     d="m 1314.293,1770.1661 2.9062,-0.4572 q 0.2449,1.747 1.3551,2.6777 1.1266,0.9306 3.1349,0.9306 2.0245,0 3.0041,-0.8163 0.9797,-0.8327 0.9797,-1.943 0,-0.9959 -0.8654,-1.5674 -0.6041,-0.3918 -3.0042,-0.9959 -3.2327,-0.8164 -4.4899,-1.4042 -1.2409,-0.6041 -1.894,-1.649 -0.6367,-1.0613 -0.6367,-2.3348 0,-1.1592 0.5224,-2.1388 0.5388,-0.996 1.4532,-1.6491 0.6857,-0.5061 1.8612,-0.849 1.1919,-0.3592 2.5471,-0.3592 2.0409,0 3.5756,0.5878 1.5511,0.5878 2.2858,1.6001 0.7348,0.9959 1.0123,2.6776 l -2.8736,0.3919 q -0.1959,-1.3389 -1.1429,-2.0899 -0.9306,-0.7511 -2.645,-0.7511 -2.0245,0 -2.8899,0.6694 -0.8653,0.6695 -0.8653,1.5675 0,0.5714 0.3592,1.0286 0.3592,0.4734 1.1266,0.7837 0.4408,0.1632 2.596,0.751 3.1185,0.8327 4.343,1.3715 1.2409,0.5225 1.9429,1.5347 0.7021,1.0123 0.7021,2.5144 0,1.4695 -0.8653,2.7756 -0.8491,1.2899 -2.4654,2.0083 -1.6164,0.702 -3.6573,0.702 -3.3797,0 -5.1594,-1.4041 -1.7633,-1.4041 -2.2531,-4.1634 z"
     style="font-size:33.438px;font-family:ArialMT, Arial, sans-serif;stroke-width:33.438"
     id="path15506" /></g><g
   aria-label="une"
   id="text237"
   style="font-size:33.438px;font-family:ArialMT, Arial, sans-serif;stroke-width:33.438"><path
     d="m 1241.3433,1809.8839 v -2.547 q -2.0246,2.9389 -5.5023,2.9389 -1.5348,0 -2.8736,-0.5878 -1.3225,-0.5878 -1.9756,-1.4695 -0.6367,-0.898 -0.898,-2.1878 -0.1796,-0.8653 -0.1796,-2.743 v -10.7432 h 2.9389 v 9.6167 q 0,2.3021 0.1796,3.1021 0.2776,1.1593 1.1756,1.8287 0.898,0.6531 2.2205,0.6531 1.3225,0 2.4817,-0.6695 1.1592,-0.6857 1.6327,-1.8449 0.4898,-1.1756 0.4898,-3.3961 v -9.2901 h 2.9389 v 17.3394 z"
     style="font-size:33.438px;font-family:ArialMT, Arial, sans-serif;stroke-width:33.438"
     id="path15509" /><path
     d="m 1248.5762,1809.8839 v -17.3394 h 2.645 v 2.4654 q 1.9103,-2.8573 5.5186,-2.8573 1.5674,0 2.8735,0.5715 1.3225,0.5551 1.9756,1.4694 0.6531,0.9143 0.9143,2.1715 0.1633,0.8164 0.1633,2.8573 v 10.6616 h -2.9389 v -10.5473 q 0,-1.796 -0.3428,-2.6777 -0.3429,-0.898 -1.2246,-1.4204 -0.8653,-0.5388 -2.0409,-0.5388 -1.8776,0 -3.2491,1.1918 -1.3551,1.1919 -1.3551,4.5227 v 9.4697 z"
     style="font-size:33.438px;font-family:ArialMT, Arial, sans-serif;stroke-width:33.438"
     id="path15511" /><path
     d="m 1279.0426,1804.3 3.0369,0.3756 q -0.7184,2.6613 -2.6613,4.1307 -1.943,1.4695 -4.9635,1.4695 -3.8042,0 -6.041,-2.3348 -2.2205,-2.3511 -2.2205,-6.5799 0,-4.3756 2.2531,-6.7921 2.2532,-2.4164 5.8451,-2.4164 3.4777,0 5.6819,2.3675 2.2041,2.3674 2.2041,6.6614 0,0.2613 -0.016,0.7837 H 1269.23 q 0.1633,2.8573 1.6164,4.3757 1.4531,1.5184 3.6246,1.5184 1.6164,0 2.7593,-0.849 1.1429,-0.849 1.8123,-2.7103 z m -9.6493,-4.7512 h 9.682 q -0.1959,-2.1878 -1.1103,-3.2817 -1.4041,-1.6981 -3.6409,-1.6981 -2.0246,0 -3.4124,1.3552 -1.3715,1.3552 -1.5184,3.6246 z"
     style="font-size:33.438px;font-family:ArialMT, Arial, sans-serif;stroke-width:33.438"
     id="path15513" /></g><g
   aria-label="dans"
   id="text237-2"
   style="font-size:33.438px;font-family:ArialMT, Arial, sans-serif;stroke-width:33.438"><path
     d="m 1372.2664,1830.0323 v -2.1878 q -1.649,2.5797 -4.8491,2.5797 -2.0736,0 -3.8206,-1.1429 -1.7307,-1.1429 -2.694,-3.1838 -0.9469,-2.0572 -0.9469,-4.7185 0,-2.5961 0.8653,-4.7023 0.8653,-2.1225 2.596,-3.2491 1.7307,-1.1265 3.8696,-1.1265 1.5674,0 2.7919,0.6694 1.2245,0.6531 1.9919,1.7143 v -8.5881 h 2.9226 v 23.9356 z m -9.2901,-8.6533 q 0,3.3307 1.4041,4.9797 1.4042,1.6491 3.3144,1.6491 1.9266,0 3.2655,-1.5674 1.3551,-1.5838 1.3551,-4.8165 0,-3.5594 -1.3715,-5.2247 -1.3714,-1.6654 -3.3797,-1.6654 -1.9592,0 -3.2817,1.6001 -1.3062,1.6 -1.3062,5.0451 z"
     style="font-size:33.438px;font-family:ArialMT, Arial, sans-serif;stroke-width:33.438"
     id="path15516" /><path
     d="m 1390.9284,1827.8935 q -1.6327,1.3878 -3.1512,1.9593 -1.5021,0.5714 -3.2327,0.5714 -2.8573,0 -4.3921,-1.3878 -1.5347,-1.4041 -1.5347,-3.5757 0,-1.2735 0.5714,-2.3184 0.5878,-1.0613 1.5185,-1.698 0.9469,-0.6368 2.1225,-0.9633 0.8653,-0.2286 2.6123,-0.4409 3.5594,-0.4245 5.2411,-1.0122 0.016,-0.6042 0.016,-0.7674 0,-1.796 -0.8327,-2.5307 -1.1266,-0.996 -3.3471,-0.996 -2.0735,0 -3.0695,0.7347 -0.9796,0.7184 -1.4531,2.5634 l -2.8736,-0.3919 q 0.3919,-1.8449 1.2899,-2.9715 0.898,-1.1429 2.596,-1.747 1.698,-0.6204 3.9348,-0.6204 2.2205,0 3.6083,0.5224 1.3879,0.5225 2.0409,1.3225 0.6531,0.7837 0.9144,1.9919 0.1469,0.7511 0.1469,2.7104 v 3.9185 q 0,4.0981 0.1796,5.192 0.1959,1.0776 0.751,2.0735 h -3.0695 q -0.4571,-0.9143 -0.5877,-2.1388 z m -0.2449,-6.5635 q -1.6001,0.6531 -4.8002,1.1102 -1.8123,0.2613 -2.5634,0.5878 -0.751,0.3265 -1.1592,0.9633 -0.4082,0.6204 -0.4082,1.3878 0,1.1756 0.8817,1.9593 0.898,0.7837 2.6123,0.7837 1.698,0 3.0205,-0.7347 1.3225,-0.7511 1.943,-2.0409 0.4735,-0.996 0.4735,-2.9389 z"
     style="font-size:33.438px;font-family:ArialMT, Arial, sans-serif;stroke-width:33.438"
     id="path15518" /><path
     d="m 1398.2103,1830.0323 v -17.3394 h 2.645 v 2.4654 q 1.9103,-2.8572 5.5186,-2.8572 1.5674,0 2.8735,0.5714 1.3225,0.5551 1.9756,1.4695 0.6531,0.9143 0.9143,2.1715 0.1633,0.8163 0.1633,2.8572 v 10.6616 h -2.9389 v -10.5473 q 0,-1.796 -0.3429,-2.6776 -0.3428,-0.898 -1.2245,-1.4205 -0.8653,-0.5388 -2.0409,-0.5388 -1.8776,0 -3.2491,1.1919 -1.3551,1.1919 -1.3551,4.5226 v 9.4697 z"
     style="font-size:33.438px;font-family:ArialMT, Arial, sans-serif;stroke-width:33.438"
     id="path15520" /><path
     d="m 1415.6313,1824.8566 2.9063,-0.4571 q 0.2449,1.747 1.3551,2.6776 1.1266,0.9307 3.1348,0.9307 2.0246,0 3.0042,-0.8164 0.9797,-0.8327 0.9797,-1.9429 0,-0.996 -0.8654,-1.5674 -0.6041,-0.3919 -3.0042,-0.996 -3.2327,-0.8163 -4.4899,-1.4041 -1.2409,-0.6041 -1.894,-1.649 -0.6367,-1.0613 -0.6367,-2.3348 0,-1.1593 0.5224,-2.1389 0.5388,-0.9959 1.4531,-1.649 0.6858,-0.5062 1.8613,-0.849 1.1919,-0.3592 2.5471,-0.3592 2.0409,0 3.5756,0.5877 1.5511,0.5878 2.2858,1.6001 0.7347,0.996 1.0123,2.6777 l -2.8736,0.3918 q -0.1959,-1.3388 -1.1429,-2.0899 -0.9306,-0.751 -2.645,-0.751 -2.0245,0 -2.8899,0.6694 -0.8653,0.6694 -0.8653,1.5674 0,0.5715 0.3592,1.0286 0.3592,0.4735 1.1266,0.7837 0.4408,0.1633 2.596,0.7511 3.1185,0.8326 4.343,1.3714 1.2409,0.5225 1.9429,1.5348 0.7021,1.0123 0.7021,2.5144 0,1.4694 -0.8654,2.7756 -0.849,1.2898 -2.4653,2.0082 -1.6164,0.7021 -3.6573,0.7021 -3.3798,0 -5.1594,-1.4041 -1.7633,-1.4042 -2.2532,-4.1635 z"
     style="font-size:33.438px;font-family:ArialMT, Arial, sans-serif;stroke-width:33.438"
     id="path15522" /></g>
        <path
   d="m 774.3862,1915.2542 8.22288,65.8047 c 0.80604,6.2582 4.18359,9.63 9.32533,11.2049 17.62881,5.3641 42.56786,5.5671 55.91428,-5.4875 1.80968,-1.5658 2.95634,-3.7341 3.18905,-7.0533 1.34426,-21.2511 2.214,-44.0154 3.68307,-65.3358 0.72673,4.9556 -67.36521,12.4483 -80.27611,1.3372 z"
   style="fill:#00fdff;stroke:#000000;stroke-width:0.995045px;stroke-linecap:butt;stroke-miterlimit:2"
   id="path241" />
        <path
   d="m 793.97229,1943.8904 c 1.69073,4.2798 2.75743,35.5456 2.96478,38.6839 0.0897,1.3475 0.41082,2.0912 0.47388,2.1997 0.84373,1.4444 2.2803,2.5241 4.21283,3.1202 2.13015,0.6565 4.97338,0.7176 7.97391,0.2002 4.22324,-0.7281 8.76499,-2.5767 11.88123,-5.0573 2.48506,-1.9773 4.08023,-4.387 4.4111,-6.9098 0.78393,-5.9763 -0.55643,-10.2002 -2.87378,-13.2092 -2.13535,-2.7724 -5.16903,-4.5424 -8.45168,-5.5968 1.83958,-0.7923 3.58881,-1.7024 5.07478,-2.7333 3.49585,-2.4266 5.5844,-5.55 5.35559,-9.1277 -0.26652,-4.1817 -2.90693,-7.2277 -6.74405,-9.2772 -4.73872,-2.5313 -11.38396,-3.4901 -15.80221,-3.8112 -1.26561,-0.092 -2.92188,-0.1488 -4.13093,0.2347 -0.53693,0.1703 -3.02589,1.4132 -3.96843,3.8761 -0.81254,2.1224 -0.79304,6.3554 -0.37702,7.4077 z m 8.50758,38.3914 -0.006,-0.074 c -0.18916,-2.8601 -0.49857,-11.5289 -0.80538,-20.6781 2.59426,-0.1677 6.70049,-0.2021 10.53177,0.8737 2.46426,0.6923 4.83491,1.8428 6.41968,3.9008 1.58932,2.0638 2.30565,5.0026 1.76808,9.1017 -0.16316,1.2468 -1.1369,2.3122 -2.3648,3.2898 -2.45191,1.9514 -6.04592,3.3574 -9.36822,3.9301 -1.73753,0.2996 -3.399,0.3757 -4.76146,0.1202 -0.55578,-0.1046 -1.06995,-0.206 -1.41382,-0.4641 z m -1.69917,-44.3976 c 0.43552,0 0.95099,-7e-4 1.2656,0.022 3.79292,0.2762 9.52228,0.9984 13.59016,3.1708 2.03589,1.0875 3.67916,2.5182 3.82087,4.7368 0.065,1.0166 -0.44007,1.8831 -1.17005,2.6775 -1.0706,1.1655 -2.61182,2.147 -4.32465,3.0102 -4.14263,2.0879 -9.26681,3.4146 -12.49095,4.1232 -0.19631,-5.8841 -0.38027,-11.4938 -0.52068,-15.3914 -0.0227,-0.6299 -0.10595,-1.6348 -0.1703,-2.3492 z"
   style="fill:#16a4a5;stroke-width:0.650029"
   id="path244" />
        <path
   d="m 854.72697,1915.666 c 1.80188,3.6304 -74.16506,11.4002 -81.32838,0"
   style="fill:none;stroke:#000000;stroke-width:2.43761px"
   id="path248" />
        <path
   d="m 837.2519,1970.261 c -0.74363,4.6399 -3.25145,13.9301 -0.44722,17.3961 1.33386,1.6758 7.23744,-4.2005 7.70286,-4.7738 0.71633,-0.8789 0.70723,-3.9236 1.08425,-5.3576 2.3375,-8.6974 5.36534,-37.4339 2.93813,-46.4901 -0.46542,-1.7109 1.04785,-7.3012 0.15211,-8.4114 -1.19086,-1.4873 -5.39265,0.3666 -6.01928,1.2441 -2.03329,14.8077 -2.87573,30.7621 -5.40175,46.3836 z"
   style="fill:#3addde;stroke-width:1.30006"
   id="path252" />
        <path
   d="m 852.88382,1918.5654 c -0.70853,4.1394 -0.47582,7.5702 -5.82297,13.0253 -5.45505,5.5538 -14.58277,14.7804 -22.85115,18.4439 -8.44779,3.7351 -14.79858,5.8321 -29.56986,5.4551 -7.06713,-0.1794 -13.71434,-5.9114 -17.62882,-12.9707 -3.69997,-6.6732 -4.89082,-14.4216 -2.08659,-19.51 l -0.24312,-1.9254 c -0.1157,0.053 -0.21451,0.1339 -0.30421,0.2587 -3.94958,5.7242 -2.61572,14.4671 1.45997,21.8397 4.08479,7.3636 11.00891,13.4725 18.76636,13.678 14.89739,0.3679 21.607,-1.8175 30.11719,-5.5799 8.6974,-3.8339 17.81603,-13.1592 23.27108,-18.7313 5.57205,-5.6695 5.51875,-9.7907 6.19998,-13.7494 0.0715,-0.4303 -0.26001,-0.8151 -0.69033,-0.8073 -0.31331,0.01 -0.58243,0.2509 -0.62663,0.5824 z"
   style="fill:#3f3f3f;stroke-width:1.30006"
   id="path256" />
        <path
   d="m 853.61836,1918.9242 c -0.70854,4.1212 -0.47582,7.569 -5.82297,13.0253 -5.45505,5.5526 -14.58277,14.7791 -22.85116,18.444 -8.46599,3.735 -14.79858,5.8307 -29.56986,5.455 -2.28421,-0.055 -4.54111,-0.7085 -6.66411,-1.7824 -4.72962,-2.1503 -8.90411,-6.5042 -11.69014,-11.538 -3.69997,-6.6472 -4.89082,-14.3683 -2.1139,-19.4567 l -0.1261,-0.8411 c -3.52966,5.7059 -2.1581,14.1706 1.80058,21.3183 2.75093,4.9637 6.79932,9.3527 11.51073,11.7526 2.0606,0.9412 4.2642,1.5055 6.5211,1.5679 14.89739,0.3679 21.607,-1.8175 30.11589,-5.5799 8.69871,-3.8339 17.81733,-13.1592 23.27238,-18.7313 5.57205,-5.6708 5.51875,-9.7907 6.19868,-13.7507 0.0273,-0.1521 0,-0.3042 -0.0624,-0.4381 -0.27691,0.062 -0.49272,0.2769 -0.52782,0.5642 z"
   style="fill:#686868;stroke-width:1.30006"
   id="path260" />
        <path
   d="m 776.08798,1943.1196 c 4.01328,7.4078 10.97381,13.3373 18.73126,13.5258 14.89609,0.3758 21.73181,-2.0866 30.2498,-5.8489 l 0.37702,-0.3224 c -8.5102,3.761 -15.48892,6.4496 -30.38501,6.0816 -7.75745,-0.1976 -14.68157,-6.3066 -18.76636,-13.6779 -3.76238,-6.7902 -5.17814,-14.7635 -2.28421,-20.4421 0.15211,-0.3758 0.84114,-1.2715 0.16121,-0.5916 -3.40486,5.9218 -2.06059,13.9393 1.92539,21.2664 z"
   style="fill:#c5c5c5;stroke-width:1.30006"
   id="path264" />
        <path
   d="m 1319.9014,1816.9741 c -3.5924,-2.9916 7.3933,-32.2663 19.0315,-23.7651 1.761,1.287 2.0249,6.2043 1.4802,7.7395 -1.8479,5.2079 -13.6046,16.386 -14.6248,16.8718 -0.61,0.2897 -1.3171,1.5381 -1.3171,1.5381 0,0 0.9338,-1.0141 1.5416,-1.3035 1.3011,-0.6196 12.3904,-10.1023 18.0412,-13.1809 4.8587,-2.6467 8.9866,4.6465 8.602,7.5426 -1.0166,7.6409 -12.1689,7.3966 -17.4711,9.3553 -1.1159,0.4116 -6.2973,0.7918 -6.6561,1.8031 -0.087,0.2459 0.5294,0.033 0.7824,-0.031 0.5791,-0.1457 1.665,0.077 2.2488,0.1815 1.4774,0.2621 18.5912,3.3315 17.513,12.3841 -1.2837,10.774 -14.5558,3.1606 -18.6038,-1.0473 -1.0143,-1.0528 -2.5682,-2.0264 -3.3413,-3.191 -0.1934,-0.2893 -0.7248,-1.818 -1.119,-1.6311 -0.1493,0.071 0.3625,0.447 0.4027,0.6056 0.1511,0.6 0.6332,1.2061 0.8841,1.8565 0.6489,1.685 0.5063,3.5793 0.7244,5.3481 0.8149,6.6058 -0.8955,19.5754 -10.4745,18.6531 -1.4939,-0.1438 -1.1067,-3.5589 -1.0657,-4.389 0.2495,-5.0365 -0.4723,-9.348 0.6453,-14.4267 0.4645,-2.1133 1.2398,-3.9307 1.9531,-5.9409 0.063,-0.179 0.9874,-1.515 1.0832,-1.3123 0.2292,0.4813 -3.1039,3.9271 -3.5406,4.7601 -2.0776,3.9623 -6.9493,9.1966 -11.3719,10.3119 -1.3075,0.3297 -5.2288,0.8844 -6.2901,-0.5352 -4.0694,-5.4452 3.9107,-13.8177 9.0039,-16.2432 1.3611,-0.6482 2.8105,-1.3329 4.3091,-1.7105 0.8635,-0.2178 2.6701,-0.1328 2.6701,-0.1328 0,0 -2.1341,-0.6543 -3.2095,-0.5213 -1.9041,0.2348 -4.1275,0.3468 -6.0729,0.1595 -6.3049,-0.6073 -19.0726,-4.2027 -17.1319,-13.0214 1.2998,-5.9064 11.6411,-5.5084 15.31,-2.2808 2.1794,1.9172 4.7568,3.7442 6.3214,6.099 0.5435,0.8189 1.1231,1.7153 1.7453,2.4708 0.3322,0.4034 1.1756,1.0347 1.1756,1.0347 0,0 -1.609,-1.2277 -2.0286,-2.1087 -0.9938,-2.0886 -2.3615,-3.8769 -4.1769,-5.1842 -7.3409,-5.2892 -9.5882,-21.1869 -2.2744,-22.0923 9.3489,-1.1564 14.5419,20.5274 15.3013,25.3341 z"
   style="fill:#ffeba8"
   id="path268" /><ellipse
   cx="-1853.2262"
   cy="1277.5948"
   rx="8.6231441"
   ry="7.6159973"
   style="fill:#ffc400;stroke-width:0.912508"
   id="ellipse272"
   transform="matrix(-0.94243307,-0.33439484,-0.33439412,0.94243333,0,0)" />
        <path
   d="m 1065.0617,1670.3155 c -3.5924,-2.9916 7.3933,-32.2663 19.0315,-23.7651 1.761,1.287 2.0249,6.2043 1.4802,7.7395 -1.8479,5.2079 -13.6046,16.386 -14.6248,16.8718 -0.61,0.2897 -1.3171,1.5381 -1.3171,1.5381 0,0 0.9338,-1.0141 1.5416,-1.3035 1.3011,-0.6196 12.3904,-10.1023 18.0412,-13.1809 4.8587,-2.6467 8.9866,4.6465 8.602,7.5426 -1.0166,7.6409 -12.1689,7.3966 -17.4711,9.3553 -1.1159,0.4116 -6.2973,0.7918 -6.6561,1.8031 -0.087,0.2459 0.5294,0.033 0.7824,-0.031 0.5791,-0.1457 1.665,0.077 2.2488,0.1815 1.4774,0.2621 18.5912,3.3315 17.513,12.3841 -1.2837,10.774 -14.5558,3.1606 -18.6038,-1.0473 -1.0143,-1.0528 -2.5682,-2.0264 -3.3413,-3.191 -0.1934,-0.2893 -0.7248,-1.818 -1.119,-1.6311 -0.1493,0.071 0.3625,0.447 0.4027,0.6056 0.1511,0.6 0.6332,1.2061 0.8841,1.8565 0.6489,1.685 0.5063,3.5793 0.7244,5.3481 0.8149,6.6058 -0.8955,19.5754 -10.4745,18.6531 -1.4939,-0.1438 -1.1067,-3.5589 -1.0657,-4.389 0.2495,-5.0365 -0.4723,-9.348 0.6453,-14.4267 0.4645,-2.1133 1.2398,-3.9307 1.9531,-5.9409 0.063,-0.179 0.9874,-1.515 1.0832,-1.3123 0.2292,0.4813 -3.1039,3.9271 -3.5406,4.7601 -2.0776,3.9623 -6.9493,9.1966 -11.3719,10.3119 -1.3075,0.3297 -5.2288,0.8844 -6.2901,-0.5352 -4.0694,-5.4452 3.9107,-13.8177 9.0039,-16.2432 1.3611,-0.6482 2.8105,-1.3329 4.3091,-1.7105 0.8635,-0.2178 2.6701,-0.1328 2.6701,-0.1328 0,0 -2.1341,-0.6543 -3.2095,-0.5213 -1.9041,0.2348 -4.1275,0.3468 -6.0729,0.1595 -6.3049,-0.6073 -19.0726,-4.2027 -17.1319,-13.0214 1.2998,-5.9064 11.6411,-5.5084 15.31,-2.2808 2.1794,1.9172 4.7568,3.7442 6.3214,6.099 0.5435,0.8189 1.1231,1.7153 1.7453,2.4708 0.3322,0.4034 1.1756,1.0347 1.1756,1.0347 0,0 -1.609,-1.2277 -2.0286,-2.1087 -0.9938,-2.0886 -2.3615,-3.8769 -4.1769,-5.1842 -7.3409,-5.2892 -9.5882,-21.1869 -2.2744,-22.0923 9.3489,-1.1564 14.5419,20.5274 15.3013,25.3341 z"
   style="fill:#ffeba8"
   id="path278" /><ellipse
   cx="-1564.0149"
   cy="1224.5962"
   rx="8.6231441"
   ry="7.6159973"
   style="fill:#ffc400;stroke-width:0.912508"
   id="ellipse282"
   transform="matrix(-0.94243307,-0.33439484,-0.33439412,0.94243333,0,0)" />
        <circle
   cx="722.98499"
   cy="1801.2966"
   r="14.178"
   style="fill:#e2ffeb;stroke:#000000;stroke-width:1.6px"
   id="circle288" />
        <path
   d="M 577.82765,2204.3 H 451.67408 l 1.92312,-403 h 255.21085"
   style="fill:none;stroke:#000000;stroke-width:1.58441px"
   id="path292" />
        <path
   d="m 723.171,2012.4545 v 113.7938"
   style="fill:none;stroke:#000000;stroke-width:1.58668px"
   id="path296" />
        <path
   d="m 872.284,2204.3 h 79.492"
   style="fill:none;stroke:#000000;stroke-width:1.6px"
   id="path300" />
    <g
   aria-label="choisis dans"
   id="text141-7"
   style="font-size:33.438px;font-family:ArialMT, Arial, sans-serif;stroke-width:33.438"><path
     d="m 591.58437,1955.4767 2.8899,0.3756 q -0.47348,2.9878 -2.43274,4.6859 -1.94293,1.6817 -4.78385,1.6817 -3.55932,0 -5.73083,-2.3185 -2.15519,-2.3348 -2.15519,-6.6778 0,-2.8083 0.93065,-4.9145 0.93065,-2.1062 2.8246,-3.1511 1.91027,-1.0613 4.14709,-1.0613 2.8246,0 4.62059,1.4368 1.79598,1.4205 2.30212,4.0491 l -2.85725,0.4409 q -0.40818,-1.747 -1.45311,-2.6287 -1.02861,-0.8817 -2.49806,-0.8817 -2.22049,0 -3.6083,1.6001 -1.3878,1.5837 -1.3878,5.0288 0,3.494 1.33882,5.0777 1.33883,1.5837 3.49401,1.5837 1.73068,0 2.88991,-1.0612 1.15922,-1.0613 1.46944,-3.2655 z"
     style="font-size:33.438px;font-family:ArialMT, Arial, sans-serif;stroke-width:33.438"
     id="path15525" /><path
     d="m 596.98866,1961.828 v -23.9356 h 2.93888 v 8.5881 q 2.05722,-2.3838 5.19204,-2.3838 1.9266,0 3.34706,0.7674 1.42046,0.751 2.02457,2.0899 0.62043,1.3388 0.62043,3.8858 v 10.9882 h -2.93889 v -10.9882 q 0,-2.2041 -0.9633,-3.2001 -0.94697,-1.0123 -2.69398,-1.0123 -1.30617,0 -2.4654,0.6858 -1.1429,0.6694 -1.63271,1.8286 -0.48982,1.1592 -0.48982,3.2001 v 9.4861 z"
     style="font-size:33.438px;font-family:ArialMT, Arial, sans-serif;stroke-width:33.438"
     id="path15527" /><path
     d="m 614.49136,1953.1583 q 0,-4.8165 2.67765,-7.135 2.23682,-1.9266 5.45327,-1.9266 3.57564,0 5.84512,2.3511 2.26947,2.3348 2.26947,6.4656 0,3.347 -1.01228,5.2736 -0.99596,1.9103 -2.92256,2.9716 -1.91028,1.0613 -4.17975,1.0613 -3.64096,0 -5.8941,-2.3348 -2.23682,-2.3348 -2.23682,-6.7268 z m 3.02052,0 q 0,3.3307 1.45312,4.9961 1.45311,1.649 3.65728,1.649 2.18783,0 3.64095,-1.6653 1.45312,-1.6654 1.45312,-5.0778 0,-3.2164 -1.46945,-4.8655 -1.45311,-1.6653 -3.62462,-1.6653 -2.20417,0 -3.65728,1.649 -1.45312,1.649 -1.45312,4.9798 z"
     style="font-size:33.438px;font-family:ArialMT, Arial, sans-serif;stroke-width:33.438"
     id="path15529" /><path
     d="m 634.19823,1941.2721 v -3.3797 h 2.93889 v 3.3797 z m 0,20.5559 v -17.3394 h 2.93889 v 17.3394 z"
     style="font-size:33.438px;font-family:ArialMT, Arial, sans-serif;stroke-width:33.438"
     id="path15531" /><path
     d="m 640.4352,1956.6523 2.90623,-0.4572 q 0.24491,1.747 1.35516,2.6777 1.12657,0.9306 3.13481,0.9306 2.02456,0 3.00419,-0.8163 0.97963,-0.8327 0.97963,-1.943 0,-0.9959 -0.86534,-1.5674 -0.6041,-0.3918 -3.00419,-0.9959 -3.23278,-0.8164 -4.48997,-1.4041 -1.24086,-0.6042 -1.89395,-1.6491 -0.63676,-1.0613 -0.63676,-2.3348 0,-1.1592 0.52247,-2.1388 0.5388,-0.996 1.45312,-1.6491 0.68574,-0.5061 1.86129,-0.849 1.19189,-0.3592 2.54704,-0.3592 2.04089,0 3.57564,0.5878 1.55108,0.5878 2.28581,1.6001 0.73472,0.9959 1.01228,2.6776 l -2.87358,0.3919 q -0.19593,-1.3389 -1.1429,-2.0899 -0.93065,-0.7511 -2.645,-0.7511 -2.02456,0 -2.8899,0.6695 -0.86534,0.6694 -0.86534,1.5674 0,0.5714 0.3592,1.0286 0.35919,0.4735 1.12657,0.7837 0.44083,0.1632 2.59602,0.751 3.11848,0.8327 4.34302,1.3715 1.24086,0.5225 1.94293,1.5348 0.70206,1.0122 0.70206,2.5143 0,1.4695 -0.86533,2.7756 -0.84902,1.2899 -2.4654,2.0083 -1.61639,0.7021 -3.65728,0.7021 -3.37972,0 -5.15938,-1.4042 -1.76334,-1.4041 -2.25315,-4.1634 z"
     style="font-size:33.438px;font-family:ArialMT, Arial, sans-serif;stroke-width:33.438"
     id="path15533" /><path
     d="m 658.34608,1941.2721 v -3.3797 h 2.93889 v 3.3797 z m 0,20.5559 v -17.3394 h 2.93889 v 17.3394 z"
     style="font-size:33.438px;font-family:ArialMT, Arial, sans-serif;stroke-width:33.438"
     id="path15535" /><path
     d="m 664.58305,1956.6523 2.90624,-0.4572 q 0.2449,1.747 1.35515,2.6777 1.12657,0.9306 3.13481,0.9306 2.02457,0 3.0042,-0.8163 0.97963,-0.8327 0.97963,-1.943 0,-0.9959 -0.86534,-1.5674 -0.60411,-0.3918 -3.0042,-0.9959 -3.23277,-0.8164 -4.48996,-1.4041 -1.24087,-0.6042 -1.89395,-1.6491 -0.63676,-1.0613 -0.63676,-2.3348 0,-1.1592 0.52247,-2.1388 0.53879,-0.996 1.45311,-1.6491 0.68574,-0.5061 1.8613,-0.849 1.19188,-0.3592 2.54703,-0.3592 2.0409,0 3.57565,0.5878 1.55108,0.5878 2.2858,1.6001 0.73472,0.9959 1.01228,2.6776 l -2.87358,0.3919 q -0.19592,-1.3389 -1.1429,-2.0899 -0.93064,-0.7511 -2.64499,-0.7511 -2.02457,0 -2.88991,0.6695 -0.86534,0.6694 -0.86534,1.5674 0,0.5714 0.3592,1.0286 0.3592,0.4735 1.12657,0.7837 0.44084,0.1632 2.59602,0.751 3.11848,0.8327 4.34302,1.3715 1.24086,0.5225 1.94293,1.5348 0.70207,1.0122 0.70207,2.5143 0,1.4695 -0.86534,2.7756 -0.84901,1.2899 -2.4654,2.0083 -1.61639,0.7021 -3.65728,0.7021 -3.37972,0 -5.15938,-1.4042 -1.76333,-1.4041 -2.25315,-4.1634 z"
     style="font-size:33.438px;font-family:ArialMT, Arial, sans-serif;stroke-width:33.438"
     id="path15537" /><path
     d="m 703.01716,1961.828 v -2.1878 q -1.64904,2.5797 -4.84916,2.5797 -2.07355,0 -3.82055,-1.1429 -1.73068,-1.1429 -2.69398,-3.1838 -0.94698,-2.0573 -0.94698,-4.7186 0,-2.596 0.86534,-4.7022 0.86534,-2.1225 2.59602,-3.2491 1.73067,-1.1266 3.86953,-1.1266 1.56741,0 2.79194,0.6694 1.22454,0.6531 1.99192,1.7144 v -8.5881 h 2.92255 v 23.9356 z m -9.29015,-8.6534 q 0,3.3308 1.40414,4.9798 1.40413,1.649 3.31441,1.649 1.9266,0 3.26543,-1.5674 1.35515,-1.5837 1.35515,-4.8165 0,-3.5593 -1.37148,-5.2247 -1.37148,-1.6653 -3.37972,-1.6653 -1.95926,0 -3.28175,1.6 -1.30618,1.6001 -1.30618,5.0451 z"
     style="font-size:33.438px;font-family:ArialMT, Arial, sans-serif;stroke-width:33.438"
     id="path15539" /><path
     d="m 721.6791,1959.6891 q -1.63272,1.3879 -3.15114,1.9593 -1.5021,0.5715 -3.23278,0.5715 -2.85725,0 -4.392,-1.3879 -1.53475,-1.4041 -1.53475,-3.5756 0,-1.2735 0.57145,-2.3185 0.58777,-1.0612 1.51842,-1.698 0.94698,-0.6367 2.12253,-0.9633 0.86534,-0.2286 2.61234,-0.4408 3.55932,-0.4245 5.24102,-1.0123 0.0163,-0.6041 0.0163,-0.7674 0,-1.796 -0.83269,-2.5307 -1.12657,-0.9959 -3.34706,-0.9959 -2.07355,0 -3.06951,0.7347 -0.97963,0.7184 -1.45311,2.5633 l -2.87358,-0.3918 q 0.39185,-1.845 1.28984,-2.9715 0.898,-1.1429 2.59602,-1.747 1.69802,-0.6205 3.93484,-0.6205 2.22049,0 3.6083,0.5225 1.38781,0.5225 2.0409,1.3225 0.65308,0.7837 0.91432,1.9919 0.14694,0.751 0.14694,2.7103 v 3.9185 q 0,4.0981 0.1796,5.1921 0.19592,1.0775 0.75105,2.0735 h -3.06951 q -0.45716,-0.9143 -0.58777,-2.1389 z m -0.24491,-6.5635 q -1.60006,0.6531 -4.80018,1.1103 -1.81232,0.2612 -2.56337,0.5878 -0.75104,0.3265 -1.15922,0.9633 -0.40818,0.6204 -0.40818,1.3878 0,1.1755 0.88166,1.9592 0.898,0.7837 2.61235,0.7837 1.69802,0 3.02052,-0.7347 1.3225,-0.751 1.94293,-2.0409 0.47349,-0.9959 0.47349,-2.9389 z"
     style="font-size:33.438px;font-family:ArialMT, Arial, sans-serif;stroke-width:33.438"
     id="path15541" /><path
     d="m 728.961,1961.828 v -17.3394 h 2.645 v 2.4654 q 1.91028,-2.8573 5.51858,-2.8573 1.5674,0 2.87357,0.5715 1.3225,0.5551 1.97559,1.4694 0.65308,0.9143 0.91432,2.1715 0.16327,0.8164 0.16327,2.8573 v 10.6616 h -2.93889 v -10.5473 q 0,-1.796 -0.34287,-2.6777 -0.34287,-0.898 -1.22453,-1.4204 -0.86534,-0.5388 -2.0409,-0.5388 -1.87762,0 -3.2491,1.1918 -1.35515,1.1919 -1.35515,4.5227 v 9.4697 z"
     style="font-size:33.438px;font-family:ArialMT, Arial, sans-serif;stroke-width:33.438"
     id="path15543" /><path
     d="m 746.38206,1956.6523 2.90624,-0.4572 q 0.2449,1.747 1.35515,2.6777 1.12657,0.9306 3.13481,0.9306 2.02457,0 3.0042,-0.8163 0.97963,-0.8327 0.97963,-1.943 0,-0.9959 -0.86534,-1.5674 -0.60411,-0.3918 -3.0042,-0.9959 -3.23277,-0.8164 -4.48996,-1.4041 -1.24087,-0.6042 -1.89395,-1.6491 -0.63676,-1.0613 -0.63676,-2.3348 0,-1.1592 0.52247,-2.1388 0.53879,-0.996 1.45311,-1.6491 0.68574,-0.5061 1.8613,-0.849 1.19188,-0.3592 2.54703,-0.3592 2.0409,0 3.57565,0.5878 1.55108,0.5878 2.2858,1.6001 0.73472,0.9959 1.01228,2.6776 l -2.87357,0.3919 q -0.19593,-1.3389 -1.1429,-2.0899 -0.93065,-0.7511 -2.645,-0.7511 -2.02457,0 -2.88991,0.6695 -0.86534,0.6694 -0.86534,1.5674 0,0.5714 0.3592,1.0286 0.3592,0.4735 1.12657,0.7837 0.44084,0.1632 2.59602,0.751 3.11849,0.8327 4.34302,1.3715 1.24086,0.5225 1.94293,1.5348 0.70207,1.0122 0.70207,2.5143 0,1.4695 -0.86534,2.7756 -0.84901,1.2899 -2.4654,2.0083 -1.61639,0.7021 -3.65728,0.7021 -3.37972,0 -5.15938,-1.4042 -1.76333,-1.4041 -2.25315,-4.1634 z"
     style="font-size:33.438px;font-family:ArialMT, Arial, sans-serif;stroke-width:33.438"
     id="path15545" /></g><g
   aria-label="éléments"
   transform="translate(-179.41286,-37.62762)"
   id="text4766"
   style="font-size:33.438px;font-family:ArialMT, Arial, sans-serif;baseline-shift:baseline;opacity:1;vector-effect:none;stroke-width:33.438;stroke-linecap:butt;stroke-linejoin:miter;stop-color:#000000;stop-opacity:1"><path
     d="m 848.85879,2274.701 3.03685,0.3756 q -0.71839,2.6613 -2.66132,4.1307 -1.94293,1.4695 -4.96346,1.4695 -3.80422,0 -6.04104,-2.3348 -2.22049,-2.3511 -2.22049,-6.5799 0,-4.3756 2.25314,-6.7921 2.25315,-2.4164 5.84512,-2.4164 3.47768,0 5.68185,2.3675 2.20416,2.3674 2.20416,6.6614 0,0.2613 -0.0163,0.7837 h -12.9311 q 0.16327,2.8573 1.61638,4.3757 1.45312,1.5184 3.62463,1.5184 1.61639,0 2.75929,-0.849 1.1429,-0.849 1.81231,-2.7103 z m -9.64934,-4.7512 h 9.682 q -0.19593,-2.1878 -1.11025,-3.2817 -1.40413,-1.6981 -3.64095,-1.6981 -2.02457,0 -3.41238,1.3552 -1.37148,1.3552 -1.51842,3.6246 z m 3.16746,-9.1595 2.17151,-4.5716 h 3.85321 l -3.59197,4.5716 z"
     id="path15548" /><path
     d="m 855.52027,2280.2849 v -23.9356 h 2.93889 v 23.9356 z"
     id="path15550" /><path
     d="m 874.88427,2274.701 3.03685,0.3756 q -0.7184,2.6613 -2.66133,4.1307 -1.94293,1.4695 -4.96345,1.4695 -3.80423,0 -6.04105,-2.3348 -2.22049,-2.3511 -2.22049,-6.5799 0,-4.3756 2.25315,-6.7921 2.25314,-2.4164 5.84512,-2.4164 3.47768,0 5.68184,2.3675 2.20417,2.3674 2.20417,6.6614 0,0.2613 -0.0163,0.7837 h -12.9311 q 0.16327,2.8573 1.61639,4.3757 1.45311,1.5184 3.62462,1.5184 1.61639,0 2.75929,-0.849 1.1429,-0.849 1.81232,-2.7103 z m -9.64935,-4.7512 h 9.682 q -0.19593,-2.1878 -1.11025,-3.2817 -1.40413,-1.6981 -3.64095,-1.6981 -2.02457,0 -3.41237,1.3552 -1.37148,1.3552 -1.51843,3.6246 z m 3.16747,-9.1595 2.17151,-4.5716 h 3.85321 l -3.59198,4.5716 z"
     id="path15552" /><path
     d="m 881.61105,2280.2849 v -17.3394 h 2.62867 v 2.4327 q 0.81636,-1.2735 2.17151,-2.0409 1.35516,-0.7837 3.08583,-0.7837 1.92661,0 3.15114,0.8001 1.24087,0.8 1.74701,2.2368 2.05722,-3.0369 5.3553,-3.0369 2.57969,0 3.9675,1.4368 1.38781,1.4205 1.38781,4.392 v 11.9025 h -2.92256 v -10.9229 q 0,-1.7633 -0.29389,-2.5307 -0.27756,-0.7837 -1.02861,-1.2571 -0.75105,-0.4735 -1.76333,-0.4735 -1.82864,0 -3.03685,1.2245 -1.20821,1.2082 -1.20821,3.8859 v 10.0738 h -2.93889 v -11.2657 q 0,-1.9593 -0.71839,-2.9389 -0.7184,-0.9796 -2.35111,-0.9796 -1.24086,0 -2.30213,0.6531 -1.04494,0.653 -1.51842,1.9102 -0.47349,1.2572 -0.47349,3.6247 v 8.9962 z"
     id="path15554" /><path
     d="m 921.335,2274.701 3.03685,0.3756 q -0.71839,2.6613 -2.66132,4.1307 -1.94293,1.4695 -4.96346,1.4695 -3.80422,0 -6.04104,-2.3348 -2.22049,-2.3511 -2.22049,-6.5799 0,-4.3756 2.25314,-6.7921 2.25315,-2.4164 5.84512,-2.4164 3.47769,0 5.68185,2.3675 2.20417,2.3674 2.20417,6.6614 0,0.2613 -0.0163,0.7837 h -12.9311 q 0.16327,2.8573 1.61638,4.3757 1.45312,1.5184 3.62463,1.5184 1.61639,0 2.75929,-0.849 1.1429,-0.849 1.81231,-2.7103 z m -9.64934,-4.7512 h 9.682 q -0.19593,-2.1878 -1.11025,-3.2817 -1.40413,-1.6981 -3.64095,-1.6981 -2.02457,0 -3.41238,1.3552 -1.37148,1.3552 -1.51842,3.6246 z"
     id="path15556" /><path
     d="m 928.06179,2280.2849 v -17.3394 h 2.645 v 2.4654 q 1.91028,-2.8573 5.51858,-2.8573 1.5674,0 2.87358,0.5715 1.32249,0.5551 1.97558,1.4694 0.65309,0.9143 0.91432,2.1715 0.16327,0.8164 0.16327,2.8573 v 10.6616 h -2.93888 v -10.5473 q 0,-1.796 -0.34287,-2.6777 -0.34288,-0.898 -1.22454,-1.4204 -0.86534,-0.5388 -2.04089,-0.5388 -1.87763,0 -3.24911,1.1918 -1.35515,1.1919 -1.35515,4.5227 v 9.4697 z"
     id="path15558" /><path
     d="m 953.07498,2277.6562 0.42451,2.5961 q -1.24087,0.2612 -2.2205,0.2612 -1.60006,0 -2.48172,-0.5061 -0.88167,-0.5062 -1.24087,-1.3225 -0.35919,-0.8327 -0.35919,-3.4777 v -9.9759 h -2.15519 v -2.2858 h 2.15519 v -4.2941 l 2.92256,-1.7633 v 6.0574 h 2.95521 v 2.2858 h -2.95521 v 10.1391 q 0,1.2572 0.14694,1.6164 0.16327,0.3592 0.50614,0.5715 0.3592,0.2122 1.01229,0.2122 0.48981,0 1.28984,-0.1143 z"
     id="path15560" /><path
     d="m 954.773,2275.1092 2.90624,-0.4572 q 0.2449,1.7471 1.35515,2.6777 1.12657,0.9306 3.13481,0.9306 2.02457,0 3.0042,-0.8163 0.97963,-0.8327 0.97963,-1.9429 0,-0.996 -0.86534,-1.5674 -0.60411,-0.3919 -3.0042,-0.996 -3.23277,-0.8164 -4.48996,-1.4041 -1.24087,-0.6041 -1.89395,-1.6491 -0.63676,-1.0612 -0.63676,-2.3348 0,-1.1592 0.52247,-2.1388 0.53879,-0.996 1.45311,-1.6491 0.68574,-0.5061 1.8613,-0.849 1.19188,-0.3592 2.54703,-0.3592 2.0409,0 3.57565,0.5878 1.55108,0.5878 2.2858,1.6001 0.73472,0.9959 1.01228,2.6776 l -2.87358,0.3919 q -0.19592,-1.3389 -1.1429,-2.0899 -0.93064,-0.7511 -2.64499,-0.7511 -2.02457,0 -2.88991,0.6695 -0.86534,0.6694 -0.86534,1.5674 0,0.5714 0.3592,1.0286 0.3592,0.4735 1.12657,0.7837 0.44083,0.1633 2.59602,0.751 3.11848,0.8327 4.34302,1.3715 1.24086,0.5225 1.94293,1.5348 0.70207,1.0122 0.70207,2.5143 0,1.4695 -0.86534,2.7757 -0.84901,1.2898 -2.4654,2.0082 -1.61639,0.7021 -3.65728,0.7021 -3.37972,0 -5.15938,-1.4042 -1.76333,-1.4041 -2.25315,-4.1634 z"
     id="path15562" /></g></g>
</svg>
