<?xml version="1.0" encoding="UTF-8" standalone="no"?>
<!-- Created with Inkscape (http://www.inkscape.org/) -->

<svg
   width="158.32675mm"
   height="91.238731mm"
   viewBox="0 0 158.32675 91.238731"
   version="1.1"
   id="svg3168"
   inkscape:version="1.1.1 (3bf5ae0d25, 2021-09-20)"
   sodipodi:docname="2023-DE-02-answer01.svg"
   xmlns:inkscape="http://www.inkscape.org/namespaces/inkscape"
   xmlns:sodipodi="http://sodipodi.sourceforge.net/DTD/sodipodi-0.dtd"
   xmlns="http://www.w3.org/2000/svg"
   xmlns:svg="http://www.w3.org/2000/svg">
  <sodipodi:namedview
     id="namedview3170"
     pagecolor="#ffffff"
     bordercolor="#666666"
     borderopacity="1.0"
     inkscape:pageshadow="2"
     inkscape:pageopacity="0.0"
     inkscape:pagecheckerboard="0"
     inkscape:document-units="mm"
     showgrid="false"
     inkscape:zoom="2.0460067"
     inkscape:cx="283.23465"
     inkscape:cy="215.29743"
     inkscape:window-width="2048"
     inkscape:window-height="1017"
     inkscape:window-x="-8"
     inkscape:window-y="-8"
     inkscape:window-maximized="1"
     inkscape:current-layer="layer1" />
  <defs
     id="defs3165" />
  <g
     inkscape:label="Ebene 1"
     inkscape:groupmode="layer"
     id="layer1"
     transform="translate(-5.5256617,-61.289101)">
    <path
       style="fill:#2ca089;stroke-width:0.218218"
       d="m 121.48761,116.90902 c 11.76798,11.76798 27.55472,18.71577 42.3648,11.12403 l -1.42965,-4.29962 c -9.66439,7.08003 -27.2671,3.38083 -35.49858,-9.62759 z"
       id="path2"
       sodipodi:nodetypes="ccccc" />
    <path
       style="fill:#2ca089;stroke-width:0.181953"
       d="m 47.386145,127.76882 c -9.971796,9.12079 -37.5199477,2.24643 -41.8604833,-2.32694 l 0.8670644,-4.8013 c 8.5961059,8.87858 25.9045189,7.59356 37.8692439,3.08816 z"
       id="path4"
       sodipodi:nodetypes="ccccc" />
    <path
       d="m 23.145145,76.648782 c 0.228163,10.17861 3.553565,10.70563 4.505779,24.790678 -6.356926,9.83709 0.369774,20.87518 -0.375927,31.26771 0.08926,5.40268 -3.278334,22.86693 6.643191,18.31523 73.920662,1.21416 25.893287,-0.3213 88.504032,0.82519 7.87171,2.58938 22.59701,-2.54194 18.23964,-9.83483 -0.87329,-9.43237 -0.29535,-19.10601 1.25179,-28.40348 6.86906,-9.79276 4.75544,-20.872516 5.58978,-32.582288 0.85517,-5.213272 1.25089,-16.906598 -2.61057,-19.166107 -12.49345,3.861043 -23.91874,1.02277 -36.84875,2.28245 -72.363746,-4.862501 -24.702114,6.718857 -85.67717,-2.854234 0.314128,3.848644 -1.422229,11.947313 0.778205,15.359681 z"
       style="font-variation-settings:normal;vector-effect:none;fill:#a8dbb8;fill-opacity:1;stroke-width:0.382803;stroke-linecap:butt;stroke-linejoin:miter;stroke-miterlimit:4;stroke-dasharray:none;stroke-dashoffset:0;stroke-opacity:1;-inkscape-stroke:none;stop-color:#000000"
       id="path6"
       sodipodi:nodetypes="cccccscccccc" />
    <path
       id="path9678"
       style="font-size:70.1686px;-inkscape-font-specification:'Alex Brush, Normal';font-variation-settings:normal;vector-effect:none;fill:#2ca089;fill-opacity:1;stroke-width:0.824761;stroke-linecap:butt;stroke-linejoin:miter;stroke-miterlimit:4;stroke-dasharray:none;stroke-dashoffset:0;stroke-opacity:1;-inkscape-stroke:none;stop-color:#000000"
       d="m 172.83984,272.75391 c -12.86689,-0.0667 -28.32328,15.84021 -30.77734,20.99609 -3.82699,14.83903 19.06826,10.34567 19.67578,-0.74414 -1.81579,-2.7377 -10.0629,17.06721 -17.36914,6.51367 -0.79012,-12.17711 12.51608,-19.77955 22.53125,-23.51172 8.43906,-5.35408 19.60705,2.15712 10.38867,10.35938 -3.08371,6.79362 -8.30028,11.07279 -13.91015,12.6582 13.05742,-2.82764 -13.74472,15.64841 -4.91016,17.82422 5.317,-16.70098 26.18441,-18.12502 16.79687,-19.37109 -3.92355,-2.12285 8.72199,-11.75907 9,-18.3418 -3.13602,-4.56174 -7.13681,-6.36057 -11.42578,-6.38281 z m 184.53711,0.72656 c -16.12812,-0.19001 -28.67901,10.91582 -33.13281,20.26953 -3.82577,14.83865 19.06811,10.34609 19.67578,-0.74414 -7.98587,10.52103 -24.27867,12.0951 -13.13086,-3.35156 7.21651,-9.85455 21.83435,-18.96958 29.59766,-13.93555 1.90397,1.30624 2.96127,3.35693 2.39453,5.74219 -3.60688,7.30556 -11.21472,16.27551 -18.63086,17.91015 16.2585,-4.39925 -12.62283,15.23114 -3.5,17.47852 5.31716,-16.70132 26.18672,-18.12498 16.79883,-19.37109 -5.29403,-2.86428 19.57895,-19.41114 3.5293,-23.67188 l -2.03125,-0.27148 c -0.52756,-0.0301 -1.05005,-0.0486 -1.57032,-0.0547 z m -57.44726,4.33594 c -1.38862,-0.0968 -2.33312,2.39511 -2.65235,3.48047 0.0262,-1.17436 -1.39515,-4.17038 -3.13476,-3.00977 -0.30668,0.2047 -0.39172,0.94192 -0.3125,1.16797 0.26872,0.7668 2.15652,2.36006 2.32422,2.42578 0.10027,0.0392 0.20898,0.2207 0.20898,0.2207 0,0 -0.14814,-0.14444 -0.24805,-0.18359 -0.21387,-0.0838 -2.00395,-1.42757 -2.92968,-1.84961 -0.79598,-0.36281 -1.54908,0.75667 -1.50782,1.1875 0.10919,1.13666 1.98712,1.02444 2.86329,1.28125 0.18439,0.054 1.05329,0.0738 1.10546,0.22266 0.0127,0.0362 -0.0888,0.01 -0.13086,0.002 -0.0962,-0.0179 -0.2818,0.0234 -0.38085,0.043 -0.25067,0.0494 -3.155,0.62513 -3.04688,1.97265 0.12875,1.60376 2.42361,0.3724 3.13867,-0.28515 0.17917,-0.16453 0.44841,-0.3204 0.58789,-0.5 0.0349,-0.0446 0.13637,-0.27723 0.20117,-0.25196 0.0246,0.01 -0.0642,0.0697 -0.0723,0.0937 -0.0303,0.0908 -0.11658,0.18415 -0.16406,0.28321 -0.12281,0.25664 -0.11306,0.54041 -0.16407,0.80664 -0.19057,0.99429 -0.008,2.92442 1.61133,2.7207 0.25249,-0.0318 0.21501,-0.54205 0.21485,-0.66601 -7.5e-4,-0.4614 0.051,-0.88457 0.0625,-1.31641 0.34056,0.88076 0.66388,1.7555 0.82031,2.42383 0.54922,3.34261 -3.40404,2.32981 -3.24219,4.11133 3.41716,-0.26542 5.21684,-2.3248 4.38477,-6.27735 0.2574,0.038 0.80483,0.0742 0.98047,-0.1289 0.72868,-0.84291 -0.54754,-2.043 -1.38477,-2.3711 -0.22374,-0.0877 -0.46189,-0.18031 -0.71094,-0.22656 -0.14351,-0.0267 -0.44726,0 -0.44726,0 0,0 0.36312,-0.1141 0.54297,-0.10156 0.31843,0.0221 0.69269,0.0238 1.02148,-0.0176 1.06561,-0.13412 3.24144,-0.7598 2.98633,-2.06641 -0.17088,-0.8751 -1.91329,-0.74457 -2.55664,-0.23633 -0.38217,0.30189 -0.831,0.59386 -1.11328,0.95704 -0.0111,0.0142 -0.0239,0.0285 -0.0352,0.043 0.16764,-0.24343 0.36442,-0.46504 0.61914,-0.63281 1.2778,-0.84198 1.78365,-3.2369 0.56055,-3.32226 z m -1.40821,4.23242 c -0.0172,0.0194 -0.0313,0.042 -0.0488,0.0605 -0.0112,0.0119 -0.0232,0.0176 -0.0391,0.0312 0.0344,-0.0289 0.0564,-0.0602 0.0879,-0.0918 z m -103.9121,1.06055 c -6.85329,5.94099 -19.86854,20.38811 -13.16602,28.71874 6.18754,3.08452 11.95224,-11.34856 11.54687,-1.3457 17.03622,6.5305 19.83235,-26.81717 8.93946,-16.88476 -6.52544,4.6224 -12.18829,20.32109 -20.86133,15.43945 0.37081,-9.48469 15.79665,-18.9713 13.54102,-25.92773 z m 182.18164,0 c -6.85346,5.94084 -19.86711,20.38837 -13.16602,28.71874 6.18784,3.0852 11.95233,-11.34867 11.54688,-1.3457 17.03515,6.52846 19.83562,-26.81619 8.9414,-16.88476 -6.52486,4.62266 -12.19123,20.31999 -20.86328,15.43945 0.37115,-9.48541 15.79369,-18.96827 13.54102,-25.92773 z m -132.29493,5.20898 c -7.93917,4.48713 8.0679,3.5362 0,0 z m 199.10547,0.14453 c -0.08,10e-4 -0.16629,0.0112 -0.25586,0.0293 -5.72904,7.75211 -10.68089,18.75557 -20.8457,22.73047 -5.19749,0.50218 -5.05739,-3.35672 -2.66797,-5.8125 3.61958,-2.88567 8.47754,-1.37489 11.32617,-5.31055 2.46006,-3.52604 -0.74559,-7.58867 -5.09961,-5.89453 -11.75731,5.52261 -14.80135,22.85366 -0.24023,17.875 11.54479,-4.79036 11.02502,-18.71386 17.12109,-14.79102 -3.94688,3.59316 -4.99914,20.96465 6.38086,13.00977 5.60466,-5.72549 6.23071,-4.71383 9.98242,1.34179 6.19601,1.23965 19.36751,-6.12312 18.30274,-9.55078 -4.02618,6.31673 -13.49564,8.81499 -8.27539,-1.5625 1.34404,-5.04895 6.92132,-16.89933 -2.00196,-8.5039 -7.49244,5.94947 -12.6727,14.95433 -21.70898,18.6289 -9.02075,-0.54591 0.43707,-11.07477 3.55469,-14.86132 -0.96201,-3.55423 -11.12931,2.12989 -4.85938,-4.82618 0.62763,-0.71039 0.49655,-2.52036 -0.71289,-2.50195 z m -223.29687,0.0293 c -2.31338,3.33672 -11.69064,16.43799 -9.83789,15.72461 2.65202,-6.20421 13.23474,-12.90194 7.4082,-2.12696 -6.35488,11.623 9.1844,12.36649 13.67383,3.98047 -2.97567,11.04329 10.77351,4.98957 13.48047,-0.41992 -2.79208,14.26749 12.93894,-1.24034 12.31445,2.05469 2.59584,14.22784 20.27172,-15.78869 12.2832,0.52148 2.00193,9.90255 10.0939,-9.72093 15.25977,-11.01758 0.20205,5.55342 -12.23263,20.62283 0.50195,12.8418 -8.33172,-2.20928 15.86077,-21.40219 0.64649,-15.14844 -4.7036,2.90937 -16.90222,17.40102 -9.78907,5.57813 6.78543,-6.71815 0.40724,-8.53734 -3.06054,-1.48633 -2.98002,7.93572 -20.11293,17.02802 -9.88086,2.40234 9.48192,-9.10012 -8.59733,-12.01261 -12.84766,-3.29687 -2.69854,4.38486 -18.32543,20.22213 -16.10351,8.2168 3.86318,-3.71951 11.38416,-16.85627 1.7539,-8.62696 -4.55904,8.38001 -19.39962,20.53706 -16.55469,7.15039 0.82963,-2.8255 11.03201,-12.05824 3.35743,-9.92382 -12.22926,1.88496 2.79178,-3.89794 -2.60547,-6.42383 z m 88.49414,0.60937 c -0.71106,-0.009 -2.03501,0.82296 -4.26563,2.92188 -3.87348,4.22819 -10.23432,8.10326 -15.00195,10.34765 3.40686,0.7733 12.70508,-6.68213 16.07617,-9.48242 1.44725,6.30875 -5.49436,20.903 -9.95703,13.95899 l -2.88672,1.80664 c 7.58327,10.91788 22.96064,-3.21186 22.04688,-6.56446 -4.02639,6.31639 -13.49603,8.81556 -8.27539,-1.5625 1.01023,-3.78603 4.39685,-11.39767 2.26367,-11.42578 z m 159.60547,3.78711 c 1.60029,6.98725 -6.10888,24.36098 -10.53516,11.11328 2.33318,-4.54998 6.6704,-7.89769 10.53516,-11.11328 z m -69.39063,0.34961 c -3.68016,3.12057 -12.72176,18.66182 -5.48242,17.71875 4.13329,-4.88421 10.39929,-16.34248 7.98633,-3.51367 6.12794,13.10177 22.13452,-10.52054 13.17969,-13.39648 6.31158,8.9366 -14.4173,24.96196 -9.60547,8.27539 7.82286,-6.63958 1.48952,-11.30391 -3.46094,-3.3711 -3.07695,3.55967 -10.19561,12.93107 -4.85352,3.14258 1.96475,-4.72758 6.48259,-7.25824 2.23633,-8.85547 z m -136.80859,1.09766 c 2.67756,2.44717 -4.43599,7.63552 -6.03906,10.98437 -4.17825,8.32135 -14.02458,4.82637 -5.89258,-2.88281 3.34266,-3.35025 6.96294,-7.47367 11.93164,-8.10156 z m 167.48047,0.98437 c 6.05491,4.48241 -17.87387,13.87839 -5.88672,3.7793 1.76239,-1.48611 3.47273,-3.40679 5.88672,-3.7793 z m -225.46875,1.33008 c 8.85102,6.23463 -15.50414,21.09576 -7.1836,6.79297 1.9909,-2.46682 3.84207,-6.02002 7.1836,-6.79297 z m 182.18164,0 c 8.85399,6.23161 -15.50581,21.09682 -7.1836,6.79297 1.99087,-2.46622 3.84265,-6.01972 7.1836,-6.79297 z"
       transform="matrix(0.26458333,0,0,0.26458333,5.5256617,61.289101)"
       sodipodi:nodetypes="scccccccccsccccccccccccccssccssccsccsccsccssccccccssccssssccccsccccccccccccccccccccccccccccccccccccccccccccccccccccccccccccccccccccccccccccccccccccc" />
    <g
       transform="matrix(0.26458333,0,0,0.26458333,2.2161352,-38.031694)"
       id="g99"
       style="clip-rule:evenodd;fill-rule:evenodd;stroke-linecap:round;stroke-linejoin:round;stroke-miterlimit:1.5">
      <g
         transform="rotate(-2.7189266,485.78215,738.58241)"
         id="g93">
        <path
           d="m 200.205,595.974 c -2.644,-51.504 -7.36,-102.166 -22.399,-148.609 -0.259,-0.8 -1.119,-1.24 -1.92,-0.98 -0.8,0.259 -1.24,1.119 -0.981,1.919 14.96,46.198 19.625,96.595 22.255,147.827 0.043,0.84 0.761,1.487 1.601,1.444 0.84,-0.043 1.487,-0.76 1.444,-1.601 z"
           style="fill:#007f27"
           id="path91" />
      </g>
      <g
         transform="matrix(-0.724976,0.441494,0.359779,0.590792,228.082,134.232)"
         id="g97">
        <path
           d="m 291.421,319.872 c 3.709,5.447 5.284,61.009 -20.063,67.02 -17.246,-1.911 -27.212,-16.634 -31.78,-40.856 -1.226,-6.498 -5.049,-21.262 -2.548,-20.754 2.501,0.508 13.728,15.24 17.554,23.802 -0.973,-9.133 0.331,-30.832 2.679,-31.02 2.349,-0.188 12.542,19.695 11.414,29.892 -0.498,-9.247 6.288,-29.623 8.544,-29.471 2.255,0.151 3.951,17.972 4.988,30.382 1.294,-7.784 5.769,-34.051 9.212,-28.995 z"
           style="fill:#f7007c"
           id="path95" />
      </g>
    </g>
    <g
       transform="matrix(0.26458333,0,0,0.26458333,-30.537297,-33.589419)"
       id="g408"
       style="clip-rule:evenodd;fill-rule:evenodd;stroke-linecap:round;stroke-linejoin:round;stroke-miterlimit:1.5">
      <path
         d="m 370.654,450.669 c -12.653,-4.056 -16.941,-27.27 -18.209,-37.182 -0.352,-2.758 2.114,-2.855 3.334,-1.995 11.817,8.339 17.851,22.955 17.919,38.694 0.574,1.828 1.133,3.662 1.677,5.504 1.408,-10.277 6.15,-18.265 14.822,-23.391 0.981,-0.58 2.872,-0.377 2.459,1.668 -1.477,7.332 -5.94,24.404 -15.809,26.856 1.146,4.115 2.22,8.259 3.227,12.431 3.722,-6.645 9.696,-10.254 17.201,-11.802 0.86,-0.178 2.186,0.42 1.374,1.776 -2.799,4.674 -9.861,15.09 -17.333,15.332 0.171,0.756 0.34,1.512 0.508,2.271 0.371,0.419 0.583,1.479 0.487,2.236 0.312,1.453 0.617,2.91 0.916,4.373 0.019,-0.112 0.055,-0.207 0.107,-0.275 4.213,-5.476 9.866,-7.53 16.46,-7.346 0.674,0.019 1.546,0.686 0.685,1.54 -3.097,3.069 -10.831,9.917 -16.519,8.052 -0.157,-0.051 -0.302,-0.212 -0.422,-0.428 6.902,34.473 9.82,70.576 11.695,107.103 0.043,0.84 -0.604,1.557 -1.444,1.601 -0.84,0.043 -1.558,-0.604 -1.601,-1.445 -1.768,-34.448 -4.457,-68.519 -10.576,-101.188 -3.269,4.318 -11.857,5.736 -15.741,6.165 -1.205,0.133 -1.176,-0.965 -0.767,-1.5 3.959,-5.186 9.04,-8.281 15.833,-8.187 -0.412,-2.111 -0.84,-4.215 -1.282,-6.311 -6.466,2.646 -16.839,-1.195 -21.44,-3.188 -1.451,-0.629 -0.722,-1.887 0.08,-2.244 6.706,-2.987 13.374,-3.618 19.988,-0.826 -0.636,-2.791 -1.3,-5.57 -1.994,-8.336 -0.115,0.086 -0.233,0.145 -0.349,0.17 -9.994,2.1 -21.375,-11.499 -25.855,-17.517 -1.246,-1.674 0.377,-2.664 1.512,-2.558 9.03,0.84 16.67,4.139 22.323,10.954 -1.028,-3.692 -2.116,-7.363 -3.266,-11.007 z"
         style="fill:#007f27"
         id="path406" />
    </g>
    <g
       transform="matrix(0.26458333,0,0,0.26458333,-7.0891282,-33.589419)"
       id="g412"
       style="clip-rule:evenodd;fill-rule:evenodd;stroke-linecap:round;stroke-linejoin:round;stroke-miterlimit:1.5">
      <path
         d="m 370.654,450.669 c -12.653,-4.056 -16.941,-27.27 -18.209,-37.182 -0.352,-2.758 2.114,-2.855 3.334,-1.995 11.817,8.339 17.851,22.955 17.919,38.694 0.574,1.828 1.133,3.662 1.677,5.504 1.408,-10.277 6.15,-18.265 14.822,-23.391 0.981,-0.58 2.872,-0.377 2.459,1.668 -1.477,7.332 -5.94,24.404 -15.809,26.856 1.146,4.115 2.22,8.259 3.227,12.431 3.722,-6.645 9.696,-10.254 17.201,-11.802 0.86,-0.178 2.186,0.42 1.374,1.776 -2.799,4.674 -9.861,15.09 -17.333,15.332 0.171,0.756 0.34,1.512 0.508,2.271 0.371,0.419 0.583,1.479 0.487,2.236 0.312,1.453 0.617,2.91 0.916,4.373 0.019,-0.112 0.055,-0.207 0.107,-0.275 4.213,-5.476 9.866,-7.53 16.46,-7.346 0.674,0.019 1.546,0.686 0.685,1.54 -3.097,3.069 -10.831,9.917 -16.519,8.052 -0.157,-0.051 -0.302,-0.212 -0.422,-0.428 6.902,34.473 9.82,70.576 11.695,107.103 0.043,0.84 -0.604,1.557 -1.444,1.601 -0.84,0.043 -1.558,-0.604 -1.601,-1.445 -1.768,-34.448 -4.457,-68.519 -10.576,-101.188 -3.269,4.318 -11.857,5.736 -15.741,6.165 -1.205,0.133 -1.176,-0.965 -0.767,-1.5 3.959,-5.186 9.04,-8.281 15.833,-8.187 -0.412,-2.111 -0.84,-4.215 -1.282,-6.311 -6.466,2.646 -16.839,-1.195 -21.44,-3.188 -1.451,-0.629 -0.722,-1.887 0.08,-2.244 6.706,-2.987 13.374,-3.618 19.988,-0.826 -0.636,-2.791 -1.3,-5.57 -1.994,-8.336 -0.115,0.086 -0.233,0.145 -0.349,0.17 -9.994,2.1 -21.375,-11.499 -25.855,-17.517 -1.246,-1.674 0.377,-2.664 1.512,-2.558 9.03,0.84 16.67,4.139 22.323,10.954 -1.028,-3.692 -2.116,-7.363 -3.266,-11.007 z"
         style="fill:#007f27"
         id="path410" />
    </g>
    <g
       transform="matrix(0.25895795,0.05426894,-0.05426894,0.25895795,43.53851,-50.48835)"
       id="g420"
       style="clip-rule:evenodd;fill-rule:evenodd;stroke-linecap:round;stroke-linejoin:round;stroke-miterlimit:1.5">
      <path
         d="m 370.654,450.669 c -12.653,-4.056 -16.941,-27.27 -18.209,-37.182 -0.352,-2.758 2.114,-2.855 3.334,-1.995 11.817,8.339 17.851,22.955 17.919,38.694 0.574,1.828 1.133,3.662 1.677,5.504 1.408,-10.277 6.15,-18.265 14.822,-23.391 0.981,-0.58 2.872,-0.377 2.459,1.668 -1.477,7.332 -5.94,24.404 -15.809,26.856 1.146,4.115 2.22,8.259 3.227,12.431 3.722,-6.645 9.696,-10.254 17.201,-11.802 0.86,-0.178 2.186,0.42 1.374,1.776 -2.799,4.674 -9.861,15.09 -17.333,15.332 0.171,0.756 0.34,1.512 0.508,2.271 0.371,0.419 0.583,1.479 0.487,2.236 0.312,1.453 0.617,2.91 0.916,4.373 0.019,-0.112 0.055,-0.207 0.107,-0.275 4.213,-5.476 9.866,-7.53 16.46,-7.346 0.674,0.019 1.546,0.686 0.685,1.54 -3.097,3.069 -10.831,9.917 -16.519,8.052 -0.157,-0.051 -0.302,-0.212 -0.422,-0.428 6.902,34.473 9.82,70.576 11.695,107.103 0.043,0.84 -0.604,1.557 -1.444,1.601 -0.84,0.043 -1.558,-0.604 -1.601,-1.445 -1.768,-34.448 -4.457,-68.519 -10.576,-101.188 -3.269,4.318 -11.857,5.736 -15.741,6.165 -1.205,0.133 -1.176,-0.965 -0.767,-1.5 3.959,-5.186 9.04,-8.281 15.833,-8.187 -0.412,-2.111 -0.84,-4.215 -1.282,-6.311 -6.466,2.646 -16.839,-1.195 -21.44,-3.188 -1.451,-0.629 -0.722,-1.887 0.08,-2.244 6.706,-2.987 13.374,-3.618 19.988,-0.826 -0.636,-2.791 -1.3,-5.57 -1.994,-8.336 -0.115,0.086 -0.233,0.145 -0.349,0.17 -9.994,2.1 -21.375,-11.499 -25.855,-17.517 -1.246,-1.674 0.377,-2.664 1.512,-2.558 9.03,0.84 16.67,4.139 22.323,10.954 -1.028,-3.692 -2.116,-7.363 -3.266,-11.007 z"
         style="fill:#007f27"
         id="path418" />
    </g>
    <g
       transform="matrix(0.04266563,-0.01495198,0.01286637,0.03671436,71.028741,122.42319)"
       id="g432"
       style="clip-rule:evenodd;fill-rule:evenodd;stroke-linecap:round;stroke-linejoin:round;stroke-miterlimit:1.5" />
  </g>
</svg>
