<?xml version="1.0" encoding="UTF-8" standalone="no"?>
<svg
   width="100%"
   height="100%"
   viewBox="0 0 1085 1109"
   version="1.1"
   xml:space="preserve"
   style="fill-rule:evenodd;clip-rule:evenodd;stroke-linecap:round;stroke-linejoin:round;stroke-miterlimit:1.5;"
   id="svg304"
   sodipodi:docname="2023-DE-02-explanation-fra.svg"
   inkscape:version="1.1.1 (3bf5ae0d25, 2021-09-20)"
   xmlns:inkscape="http://www.inkscape.org/namespaces/inkscape"
   xmlns:sodipodi="http://sodipodi.sourceforge.net/DTD/sodipodi-0.dtd"
   xmlns="http://www.w3.org/2000/svg"
   xmlns:svg="http://www.w3.org/2000/svg"><defs
   id="defs308">
            
        
            
        
            
        
            
            
            
            
            
            
            
            
        
            
        
            
        
            
        
            
        
            
        
            
        
            
            
            
            
            
            
            
            
        
            
        
            
        
            
        
            
        
            
        
            
        
            
        
            
        
            
        
            
        
            
        
            
        
            
        
            
        
            
        
            
        
            
        
            
        
            
        
            
            
        
            
            
        
            
        
            
        
            
        
            
        
            
        
            
        
            
        
            
            
            
        
            
        
            
        
            
            
        
            
        
            
        
            
        
            
        
            
        
            
        
                
            
                
            
                
            
                
            
                
            
                
            
                
            
                
            
                
                
                
                
            
                
            
                
            
                
            
                
            
                
                
                
                
            
                
            
                
            
                
            
                
            
                
            
                
            
                    
                
                    
                
                    
                
                    
                
                    
                
                    
                </defs><sodipodi:namedview
   id="namedview306"
   pagecolor="#ffffff"
   bordercolor="#666666"
   borderopacity="1.0"
   inkscape:pageshadow="2"
   inkscape:pageopacity="0.0"
   inkscape:pagecheckerboard="0"
   showgrid="false"
   inkscape:zoom="0.45843983"
   inkscape:cx="13.087868"
   inkscape:cy="659.84667"
   inkscape:window-width="2048"
   inkscape:window-height="1017"
   inkscape:window-x="-8"
   inkscape:window-y="-8"
   inkscape:window-maximized="1"
   inkscape:current-layer="g302" />
    <g
   transform="translate(-450.874,-1174.36)"
   id="g302">
        <path
   d="m 1045.3094,1586.1999 149.1135,78.0582 -149.1135,78.0582 -149.11351,-78.0582 z"
   style="fill:#e2ffeb;stroke:#000000;stroke-width:1.5963px"
   id="path2" />
        <path
   d="m 723.1714,2126.2419 149.11351,78.0582 -149.11351,78.0582 -149.11351,-78.0582 z"
   style="fill:#e2ffeb;stroke:#000000;stroke-width:1.5963px"
   id="path6" />
        <path
   d="m 1408.176,1981.601 0.197,1.36 -0.197,1.37 -0.196,-1.37 z"
   style="fill:#e2ffeb"
   id="path10" />
        <rect
   x="886.05377"
   y="1366.7377"
   width="318.50662"
   height="127.70973"
   style="fill:#e2ffeb;stroke:#000000;stroke-width:0.837553px"
   id="rect14" />
        <path
   d="m 1158.8862,1218.2269 c 0,-23.7672 -19.297,-43.0631 -43.0626,-43.0631 H 992.85711 c -23.76799,0 -43.06503,19.2959 -43.06503,43.0631 0,23.7672 19.29704,43.0632 43.06503,43.0632 h 122.96649 c 23.7656,0 43.0626,-19.296 43.0626,-43.0632 z"
   style="fill:#e2ffeb;stroke:#000000;stroke-width:0.853904px"
   id="path18" />
        <path
   d="m 1135.1029,2204.2989 c 0,-23.7672 -19.2966,-43.0631 -43.0633,-43.0631 h -93.4539 c -23.76671,0 -43.06335,19.2959 -43.06335,43.0631 0,23.7672 19.29664,43.0632 43.06335,43.0632 h 93.4539 c 23.7667,0 43.0633,-19.296 43.0633,-43.0632 z"
   style="fill:#e2ffeb;stroke:#000000;stroke-width:0.916299px"
   id="path22" />
        <rect
   x="563.91376"
   y="1884.7377"
   width="318.50662"
   height="127.70973"
   style="fill:#e2ffeb;stroke:#000000;stroke-width:0.837553px"
   id="rect26" />
        <rect
   x="1216.4637"
   y="1737.4376"
   width="318.50662"
   height="127.70973"
   style="fill:#e2ffeb;stroke:#000000;stroke-width:0.837553px"
   id="rect30" />
        <path
   d="M 1216.8228,1801.2942 H 722.98479"
   style="fill:none;stroke:#000000;stroke-width:1.6px"
   id="path34" />
        <path
   d="m 1125.4161,1474.9459 c -0.04,-0.01 -5.1762,-1.5948 -5.7845,-1.8837 -2.5502,-1.2126 -4.6665,-3.1631 -5.9445,-5.6952 -0.6639,-1.3143 -1.1096,-2.7309 -1.3752,-4.1774 0,-0.015 -0.2014,-1.1893 -0.1872,-1.1964 l 0.023,-0.012 -0.032,-0.01 c -2.7355,-20.0593 -8.6988,-59.0792 -9.2999,-66.0769 -0.061,-0.7067 0.5454,-0.894 0.9691,-1.144 6.0747,-3.5925 16.3028,-4.2674 21.1228,-4.8517 13.4988,-1.6363 27.322,-1.9776 40.8835,-0.9639 5.4652,0.4087 11.4162,0.8084 16.5581,2.8832 1.4717,0.594 3.5264,1.5909 3.669,3.437 0.03,0.3939 0.1826,1.0487 -0.1788,1.1815 l -0.3835,5.7722 -0.7495,12.1041 -0.3485,6.0521 -0.2319,4.0174 -0.1159,2.0171 -2.3009,37.7166 c -0.7267,1.6103 -0.1703,2.1881 -5.2999,5.9769 -0.9723,0.7184 -9.3609,4.4553 -10.0203,4.6704 -10.7723,3.5154 -22.6593,3.5089 -33.751,1.6958 -2.4284,-0.3964 -4.8381,-0.9062 -7.2219,-1.517 z m 58.8045,-79.1643 v 0.01 c -0.012,0.015 -0.041,0.098 -0.049,0.1315 -0.01,0.039 -0.01,0.079 -0.01,0.1192 l -0.4016,6.0494 -0.7501,12.1041 -0.6964,12.1047 -2.6869,36.3097 v 0.01 c -6e-4,0.01 0,0.013 0,0.019 l 7e-4,0.023 -0.06,0.8148 c -0.6257,2.7181 -5.2061,5.7548 -6.0598,6.262 -2.4058,1.4296 -4.993,2.5476 -7.6501,3.4189 -8.1572,2.6746 -16.9998,3.1727 -25.5121,2.5262 -4.8899,-0.3718 -9.7456,-1.1647 -14.4962,-2.3837 -0.2177,-0.056 -5.0882,-1.5443 -5.4989,-1.7406 -1.5423,-0.7365 -2.9221,-1.7755 -3.9902,-3.1151 -1.0494,-1.3169 -1.7444,-2.8903 -2.1512,-4.5168 -0.1302,-0.5215 -0.2313,-1.0494 -0.3129,-1.5805 -0.029,-0.1866 0.1056,-0.5254 -0.08,-0.5623 h -0.01 v -0.01 c -2.1409,-21.9035 -4.833,-43.7602 -8.0699,-65.5289 1.4776,-0.2889 4.1833,-1.7704 5.2845,-2.0722 4.6114,-1.2632 9.3718,-1.9945 14.1128,-2.5619 12.3917,-1.4821 25.0049,-1.8403 37.4646,-1.1511 5.2721,0.2915 10.6239,0.708 15.773,1.9368 2.9356,0.7003 4.1547,2.1713 5.8525,3.3885 z m 0,0 h 0.01 z"
   style="fill-rule:nonzero;stroke-width:0.647762"
   id="path38" /><path
   d="m 1111.1351,1399.7627 c 15.8365,4.0887 70.5996,3.4008 73.6894,-3.9448 -2.4161,-4.1677 -17.5129,-6.0333 -34.0062,-6.2548 -6.9401,-0.093 -14.1264,0.1049 -20.7193,0.5441 -12.0717,0.8045 -21.8024,3.6676 -24.7419,5.791 -2.0612,1.4899 -0.9626,1.9796 5.778,3.8645 z"
   style="fill:#bd1313;stroke-width:1.29552"
   id="path40" /><path
   d="m 1122.1758,1400.463 c 3.9993,0.3925 4.1871,0.4819 8.5336,0.5713 -0.01,-2.3034 -0.044,-5.0798 -0.1062,-7.6229 0.7047,-3.0082 -0.403,-2.4822 -3.0355,-2.4291 -9.5868,0.2151 -5.4904,2.1519 -5.3919,9.4716 z"
   style="fill:#cc5151;stroke-width:1.29552"
   id="path43" /><path
   d="m 1170.013,1390.3579 6.9,0.9457 c 19.5403,3.3839 -3.1508,9.32 -4.1146,7.106 -2.6429,-2.6416 -0.5273,-5.1951 -2.7854,-8.0517 z"
   style="fill:#871818;stroke-width:1.29552"
   id="path47" /><path
   d="m 1104.768,1395.4898 8.1942,65.5752 c 0.8032,6.2363 4.169,9.5964 9.2928,11.1658 17.5672,5.3454 42.4192,5.5477 55.719,-5.4684 1.8034,-1.5603 2.946,-3.721 3.1779,-7.0287 1.3396,-21.1769 2.2063,-43.8618 3.6702,-65.1079 0.7242,4.9384 -67.1299,12.4049 -79.9958,1.3325 z"
   style="fill:#ff0000;stroke-width:1.28776"
   id="path53" /><path
   d="m 1134.7235,1445.1001 c 5.3398,1.3193 10.7827,0.8479 16.2132,-0.4149 1.9657,5.3348 4.0854,10.631 6.777,15.8897 0.6334,1.2384 2.2315,1.7663 3.5661,1.1787 1.3347,-0.5883 1.9037,-2.0711 1.2703,-3.3094 -4.0467,-7.9083 -6.143,-15.1256 -9.0301,-23.206 -2.4726,-6.9208 -5.8871,-14.6829 -7.552,-21.7237 -0.2546,-1.0792 -1.248,-1.8728 -2.4363,-1.9461 -1.1889,-0.073 -2.2865,0.5904 -2.6939,1.6289 -3.0692,7.8251 -5.8661,15.6513 -8.6824,23.4384 -2.5522,7.0582 -5.1209,14.0849 -7.9231,21.0491 -0.5169,1.2846 0.1873,2.7163 1.5717,3.1959 1.3839,0.4791 2.9275,-0.1743 3.4438,-1.4583 1.9107,-4.7482 3.7131,-9.5252 5.4757,-14.3223 z m 14.5063,-5.1381 c -0.4683,-1.3117 -0.9343,-2.6256 -1.4044,-3.9422 -1.6092,-4.5032 -3.3477,-9.0325 -4.8387,-13.5868 -2.242,5.9963 -4.3792,11.9861 -6.5422,17.9494 4.2141,0.9689 8.502,0.5496 12.7853,-0.4204 z"
   style="fill:#b20000;stroke-width:0.563868"
   id="path56" /><path
   d="m 1184.8296,1395.8986 c 1.7956,3.6177 -73.9065,11.3604 -81.0448,0"
   style="fill:none;stroke:#000000;stroke-width:2.44206px"
   id="path60" /><path
   d="m 1167.4142,1450.3081 c -0.741,4.6237 -3.2401,13.8815 -0.4456,17.3353 1.3292,1.6699 7.2121,-4.1858 7.6759,-4.7571 0.7138,-0.8758 0.7048,-3.9099 1.0805,-5.3389 2.3293,-8.667 5.3466,-37.3032 2.9278,-46.3278 -0.4637,-1.7049 1.0442,-7.2756 0.1516,-8.382 -1.1867,-1.4821 -5.3738,0.3654 -5.9982,1.2398 -2.0262,14.756 -2.8657,30.6546 -5.3829,46.2216 z"
   style="fill:#ff5a5a;stroke-width:1.29552"
   id="path64" /><path
   d="m 1182.9915,1398.793 c -0.706,4.1249 -0.4741,7.5438 -5.8026,12.9798 -5.436,5.5345 -14.5318,14.7288 -22.7713,18.3796 -8.4183,3.722 -14.7469,5.8117 -29.4666,5.436 -7.0425,-0.1788 -13.6665,-5.8908 -17.5673,-12.9254 -3.687,-6.6499 -4.8737,-14.3712 -2.0793,-19.4419 l -0.2423,-1.9187 c -0.1153,0.053 -0.2137,0.1335 -0.3031,0.2578 -3.9358,5.7042 -2.6066,14.4166 1.4548,21.7635 4.0706,7.3378 10.9705,13.4254 18.7009,13.6301 14.8453,0.3667 21.5315,-1.8111 30.012,-5.5603 8.667,-3.8205 17.7538,-13.1133 23.1898,-18.6659 5.5526,-5.6497 5.4995,-9.7565 6.1783,-13.7014 0.071,-0.4288 -0.2591,-0.8123 -0.6879,-0.8045 -0.3122,0.01 -0.5804,0.25 -0.6244,0.5804 z"
   style="fill:#3f3f3f;stroke-width:1.29552"
   id="path68" /><path
   d="m 1183.7235,1399.1506 c -0.706,4.1068 -0.4741,7.5425 -5.8026,12.9798 -5.436,5.5331 -14.5319,14.7275 -22.7714,18.3795 -8.4364,3.7221 -14.7469,5.8104 -29.4666,5.436 -2.2762,-0.054 -4.5252,-0.706 -6.6408,-1.7761 -4.7131,-2.1428 -8.873,-6.4815 -11.6493,-11.4978 -3.6871,-6.624 -4.8738,-14.3181 -2.1065,-19.3887 l -0.1257,-0.8382 c -3.5173,5.686 -2.1506,14.1211 1.7943,21.2439 2.7413,4.9463 6.7756,9.32 11.4705,11.7115 2.0534,0.938 4.2493,1.5002 6.4983,1.5624 14.8454,0.3666 21.5316,-1.8111 30.0108,-5.5604 8.6683,-3.8205 17.7551,-13.1132 23.1911,-18.6658 5.5526,-5.6511 5.4995,-9.7566 6.177,-13.7027 0.027,-0.1516 0,-0.3032 -0.062,-0.4366 -0.2759,0.062 -0.491,0.2759 -0.526,0.5622 z"
   style="fill:#686868;stroke-width:1.29552"
   id="path72" /><path
   d="m 1106.4639,1423.2615 c 3.9993,7.3819 10.9355,13.2907 18.6658,13.4786 14.8441,0.3744 21.6559,-2.0793 30.1442,-5.8286 l 0.3757,-0.3213 c -8.4805,3.748 -15.4348,6.4271 -30.2789,6.0605 -7.7304,-0.1969 -14.6303,-6.2846 -18.7008,-13.6302 -3.7493,-6.7665 -5.1601,-14.7119 -2.2763,-20.3707 0.1516,-0.3744 0.8382,-1.2671 0.1607,-0.5895 -3.393,5.9011 -2.0534,13.8906 1.9187,21.1921 z"
   style="fill:#c5c5c5;stroke-width:1.29552"
   id="path76" />
        <path
   d="m 1455.9387,1845.6479 c -0.04,-0.01 -5.1762,-1.5948 -5.7845,-1.8837 -2.5502,-1.2126 -4.6665,-3.1631 -5.9445,-5.6952 -0.6639,-1.3143 -1.1096,-2.7309 -1.3752,-4.1774 0,-0.015 -0.2014,-1.1893 -0.1872,-1.1964 l 0.023,-0.012 -0.032,-0.01 c -2.7355,-20.0593 -8.6988,-59.0792 -9.2999,-66.0769 -0.061,-0.7067 0.5454,-0.894 0.9691,-1.144 6.0747,-3.5925 16.3028,-4.2674 21.1228,-4.8517 13.4988,-1.6363 27.322,-1.9776 40.8835,-0.9639 5.4652,0.4087 11.4162,0.8084 16.5581,2.8832 1.4717,0.594 3.5264,1.5909 3.669,3.437 0.03,0.3939 0.1826,1.0487 -0.1788,1.1815 l -0.3835,5.7722 -0.7495,12.1041 -0.3485,6.0521 -0.2319,4.0174 -0.1159,2.0171 -2.3009,37.7166 c -0.7267,1.6103 -0.1703,2.1881 -5.2999,5.9769 -0.9723,0.7184 -9.3609,4.4553 -10.0203,4.6704 -10.7723,3.5154 -22.6593,3.5089 -33.751,1.6958 -2.4284,-0.3964 -4.8381,-0.9062 -7.2219,-1.517 z m 58.8045,-79.1643 v 0.01 c -0.012,0.015 -0.041,0.098 -0.049,0.1315 -0.01,0.039 -0.01,0.079 -0.01,0.1192 l -0.4016,6.0494 -0.7501,12.1041 -0.6964,12.1047 -2.6869,36.3097 v 0.01 c -6e-4,0.01 0,0.013 0,0.019 l 7e-4,0.023 -0.06,0.8148 c -0.6257,2.7181 -5.2061,5.7548 -6.0598,6.262 -2.4058,1.4296 -4.993,2.5476 -7.6501,3.4189 -8.1572,2.6746 -16.9998,3.1727 -25.5121,2.5262 -4.8899,-0.3718 -9.7456,-1.1647 -14.4962,-2.3837 -0.2177,-0.056 -5.0882,-1.5443 -5.4989,-1.7406 -1.5423,-0.7365 -2.9221,-1.7755 -3.9902,-3.1151 -1.0494,-1.3169 -1.7444,-2.8903 -2.1512,-4.5168 -0.1302,-0.5215 -0.2313,-1.0494 -0.3129,-1.5805 -0.028,-0.1866 0.1056,-0.5254 -0.08,-0.5623 h -0.01 v -0.01 c -2.1409,-21.9035 -4.833,-43.7602 -8.0699,-65.5289 1.4776,-0.2889 4.1833,-1.7704 5.2845,-2.0722 4.6114,-1.2632 9.3718,-1.9945 14.1128,-2.5619 12.3917,-1.4821 25.0049,-1.8403 37.4646,-1.1511 5.2721,0.2915 10.6239,0.708 15.773,1.9368 2.9356,0.7003 4.1547,2.1713 5.8525,3.3885 z m 0,0 h 0.01 z"
   style="fill-rule:nonzero;stroke-width:0.647762"
   id="path82" /><path
   d="m 1441.6577,1770.4647 c 15.8365,4.0887 70.5996,3.4008 73.6894,-3.9448 -2.4161,-4.1677 -17.5129,-6.0333 -34.0062,-6.2548 -6.9401,-0.093 -14.1264,0.1049 -20.7193,0.5441 -12.0717,0.8045 -21.8024,3.6676 -24.7419,5.791 -2.0612,1.4899 -0.9626,1.9796 5.778,3.8645 z"
   style="fill:#bd1313;stroke-width:1.29552"
   id="path84" /><path
   d="m 1452.6984,1771.165 c 3.9992,0.3925 4.1871,0.4819 8.5336,0.5713 -0.01,-2.3034 -0.044,-5.0798 -0.1063,-7.6229 0.7048,-3.0082 -0.4029,-2.4822 -3.0354,-2.4291 -9.5868,0.2151 -5.4904,2.1519 -5.3919,9.4716 z"
   style="fill:#cc5151;stroke-width:1.29552"
   id="path87" /><path
   d="m 1500.5356,1761.0599 6.8999,0.9457 c 19.5404,3.3839 -3.1507,9.32 -4.1145,7.106 -2.6429,-2.6416 -0.5273,-5.1951 -2.7854,-8.0517 z"
   style="fill:#871818;stroke-width:1.29552"
   id="path91" /><path
   d="m 1435.2906,1766.1918 8.1942,65.5752 c 0.8032,6.2363 4.169,9.5964 9.2928,11.1658 17.5672,5.3454 42.4192,5.5477 55.719,-5.4684 1.8034,-1.5603 2.946,-3.721 3.1779,-7.0287 1.3396,-21.1769 2.2063,-43.8618 3.6702,-65.1079 0.7242,4.9384 -67.1299,12.4049 -79.9958,1.3325 z"
   style="fill:#ff0000;stroke-width:1.28776"
   id="path97" /><path
   d="m 1465.2461,1815.8021 c 5.3398,1.3193 10.7827,0.8479 16.2132,-0.4149 1.9657,5.3348 4.0854,10.631 6.777,15.8897 0.6334,1.2384 2.2315,1.7663 3.5661,1.1787 1.3347,-0.5883 1.9037,-2.0711 1.2703,-3.3094 -4.0467,-7.9083 -6.143,-15.1256 -9.0301,-23.206 -2.4726,-6.9208 -5.8871,-14.6829 -7.552,-21.7237 -0.2546,-1.0792 -1.248,-1.8728 -2.4363,-1.9461 -1.1889,-0.073 -2.2865,0.5904 -2.6939,1.6289 -3.0692,7.8251 -5.8661,15.6513 -8.6824,23.4384 -2.5522,7.0582 -5.1209,14.0849 -7.9231,21.0491 -0.5169,1.2846 0.1873,2.7163 1.5717,3.1959 1.3839,0.4791 2.9275,-0.1743 3.4438,-1.4583 1.9107,-4.7482 3.7131,-9.5252 5.4757,-14.3223 z m 14.5063,-5.1381 c -0.4683,-1.3117 -0.9343,-2.6256 -1.4044,-3.9422 -1.6092,-4.5032 -3.3477,-9.0325 -4.8387,-13.5868 -2.242,5.9963 -4.3792,11.9861 -6.5422,17.9494 4.2141,0.9689 8.502,0.5496 12.7853,-0.4204 z"
   style="fill:#b20000;stroke-width:0.563868"
   id="path100" /><path
   d="m 1515.3522,1766.6006 c 1.7956,3.6177 -73.9065,11.3604 -81.0448,0"
   style="fill:none;stroke:#000000;stroke-width:2.44206px"
   id="path104" /><path
   d="m 1497.9368,1821.0101 c -0.741,4.6237 -3.2401,13.8815 -0.4456,17.3353 1.3292,1.6699 7.2121,-4.1858 7.6759,-4.7571 0.7138,-0.8758 0.7048,-3.9099 1.0805,-5.3389 2.3293,-8.667 5.3466,-37.3032 2.9278,-46.3278 -0.4637,-1.7049 1.0442,-7.2756 0.1516,-8.382 -1.1867,-1.4821 -5.3738,0.3654 -5.9982,1.2398 -2.0262,14.756 -2.8657,30.6546 -5.3829,46.2216 z"
   style="fill:#ff5a5a;stroke-width:1.29552"
   id="path108" /><path
   d="m 1513.5141,1769.495 c -0.706,4.1249 -0.4741,7.5438 -5.8026,12.9798 -5.436,5.5345 -14.5318,14.7288 -22.7713,18.3796 -8.4183,3.722 -14.7469,5.8117 -29.4666,5.436 -7.0425,-0.1788 -13.6665,-5.8908 -17.5673,-12.9254 -3.687,-6.6499 -4.8737,-14.3712 -2.0793,-19.4419 l -0.2423,-1.9187 c -0.1153,0.053 -0.2137,0.1335 -0.3031,0.2578 -3.9358,5.7042 -2.6066,14.4166 1.4548,21.7635 4.0706,7.3378 10.9705,13.4254 18.7009,13.6301 14.8453,0.3667 21.5315,-1.8111 30.012,-5.5603 8.667,-3.8205 17.7538,-13.1133 23.1898,-18.6659 5.5526,-5.6497 5.4995,-9.7565 6.1783,-13.7014 0.071,-0.4288 -0.2591,-0.8123 -0.6879,-0.8045 -0.3122,0.01 -0.5804,0.25 -0.6244,0.5804 z"
   style="fill:#3f3f3f;stroke-width:1.29552"
   id="path112" /><path
   d="m 1514.2461,1769.8526 c -0.706,4.1068 -0.4741,7.5425 -5.8026,12.9798 -5.436,5.5331 -14.5319,14.7275 -22.7714,18.3795 -8.4364,3.7221 -14.7469,5.8104 -29.4666,5.436 -2.2762,-0.054 -4.5252,-0.706 -6.6408,-1.7761 -4.7131,-2.1428 -8.873,-6.4815 -11.6493,-11.4978 -3.6871,-6.624 -4.8738,-14.3181 -2.1065,-19.3887 l -0.1257,-0.8382 c -3.5173,5.686 -2.1506,14.1211 1.7943,21.2439 2.7413,4.9463 6.7756,9.32 11.4705,11.7115 2.0534,0.938 4.2493,1.5002 6.4983,1.5624 14.8454,0.3666 21.5316,-1.8111 30.0108,-5.5604 8.6683,-3.8205 17.7551,-13.1132 23.1911,-18.6658 5.5526,-5.6511 5.4995,-9.7566 6.177,-13.7027 0.027,-0.1516 0,-0.3032 -0.062,-0.4366 -0.2759,0.062 -0.491,0.2759 -0.526,0.5622 z"
   style="fill:#686868;stroke-width:1.29552"
   id="path116" /><path
   d="m 1436.9865,1793.9635 c 3.9993,7.3819 10.9355,13.2907 18.6658,13.4786 14.8441,0.3744 21.6559,-2.0793 30.1442,-5.8286 l 0.3757,-0.3213 c -8.4805,3.748 -15.4348,6.4271 -30.2789,6.0605 -7.7304,-0.1969 -14.6303,-6.2846 -18.7008,-13.6302 -3.7493,-6.7665 -5.1601,-14.7119 -2.2763,-20.3707 0.1516,-0.3744 0.8382,-1.2671 0.1607,-0.5895 -3.393,5.9011 -2.0534,13.8906 1.9187,21.1921 z"
   style="fill:#c5c5c5;stroke-width:1.29552"
   id="path120" />
        <path
   d="m 795.10527,1994.9836 c -0.0403,-0.01 -5.19438,-1.6004 -5.80476,-1.8903 -2.55916,-1.2168 -4.68281,-3.1741 -5.96531,-5.715 -0.66628,-1.3189 -1.1135,-2.7405 -1.38002,-4.1921 -0.003,-0.016 -0.20216,-1.1934 -0.18785,-1.2006 l 0.0234,-0.012 -0.0325,-0.01 c -2.74507,-20.1294 -8.72923,-59.2859 -9.33246,-66.3081 -0.0611,-0.7092 0.54732,-0.8971 0.97244,-1.148 6.09597,-3.605 16.35993,-4.2824 21.1968,-4.8687 13.54595,-1.642 27.41757,-1.9845 41.02658,-0.9672 5.48429,0.4101 11.45611,0.8112 16.61604,2.8932 1.47687,0.5961 3.53876,1.5965 3.68176,3.4491 0.0305,0.3952 0.18331,1.0524 -0.1794,1.1857 l -0.38482,5.7924 -0.75209,12.1464 -0.34971,6.0732 -0.23271,4.0315 -0.11636,2.0242 -2.3089,37.8486 c -0.72933,1.616 -0.17096,2.1958 -5.31854,5.9978 -0.97569,0.7209 -9.39357,4.4709 -10.0553,4.6867 -10.80998,3.5277 -22.73866,3.5212 -33.86911,1.7018 -2.43696,-0.3978 -4.85506,-0.9094 -7.24717,-1.5224 z m 59.01028,-79.4413 -10e-4,0.01 c -0.0117,0.015 -0.0409,0.098 -0.0487,0.132 -0.01,0.039 -0.01,0.079 -0.009,0.1196 l -0.40302,6.0706 -0.75273,12.1465 -0.69878,12.147 -2.69632,36.4368 -0.002,0.01 c -6.5e-4,0.01 -10e-4,0.013 -0.002,0.019 l 6.5e-4,0.023 -0.0605,0.8178 c -0.62792,2.7275 -5.22428,5.7748 -6.08102,6.2838 -2.4142,1.4346 -5.01042,2.5566 -7.67684,3.4308 -8.18581,2.684 -17.05936,3.1839 -25.60139,2.5352 -4.90707,-0.3732 -9.77969,-1.1688 -14.547,-2.3922 -0.21841,-0.056 -5.10598,-1.5496 -5.5181,-1.7466 -1.54772,-0.7391 -2.93228,-1.7817 -4.00418,-3.126 -1.05304,-1.3215 -1.75052,-2.9004 -2.15874,-4.5326 -0.13066,-0.5233 -0.23206,-1.0531 -0.31397,-1.5861 -0.0286,-0.1872 0.10596,-0.5272 -0.0806,-0.5642 h -0.008 v -0.01 c -2.14835,-21.98 -4.84987,-43.9133 -8.09806,-65.7582 1.48272,-0.2899 4.19789,-1.7765 5.30294,-2.0794 4.62755,-1.2676 9.40462,-2.0015 14.16218,-2.5709 12.43505,-1.4873 25.09242,-1.8467 37.59572,-1.1551 5.29059,0.2925 10.66113,0.7105 15.82821,1.9436 2.94593,0.7027 4.16929,2.1789 5.87301,3.4003 z m 0.003,0 h 0.005 z"
   style="fill-rule:nonzero;stroke-width:0.650029"
   id="path126" />
        <path
   d="m 780.7748,1919.5427 c 15.89194,4.103 70.84677,3.4126 73.94742,-3.9587 -2.42461,-4.1823 -17.57421,-6.0544 -34.12528,-6.2767 -6.96442,-0.094 -14.17585,0.1053 -20.79186,0.546 -12.11396,0.8074 -21.87871,3.6805 -24.82854,5.8113 -2.0684,1.4951 -0.96595,1.9865 5.79826,3.8781 z"
   style="fill:#4bb3b3;stroke-width:1.30006"
   id="path130" />
        <path
   d="m 791.85381,1920.2412 c 4.01328,0.3939 4.20179,0.4836 8.56349,0.5733 -0.009,-2.3115 -0.0442,-5.0975 -0.1066,-7.6496 0.70723,-3.0187 -0.40432,-2.4909 -3.04604,-2.4376 -9.62045,0.2158 -5.50966,2.1594 -5.41085,9.5048 z"
   style="fill:#418e8e;stroke-width:1.30006"
   id="path133" />
        <path
   d="m 839.85852,1910.1007 6.92412,0.949 c 19.60881,3.3958 -3.16174,9.3527 -4.12899,7.1309 -2.65212,-2.6509 -0.52912,-5.2133 -2.79513,-8.0799 z"
   style="fill:#2f696a;stroke-width:1.30006"
   id="path137" />
        <text
   x="908.35358"
   y="1442.4479"
   style="font-size:33.438px;font-family:ArialMT, Arial, sans-serif;stroke-width:33.438"
   id="text141">choisis dans</text>
        <text
   x="1006.4843"
   y="1228.9375"
   style="font-size:33.438px;font-family:ArialMT, Arial, sans-serif;stroke-width:33.438"
   id="text145">départ</text>
        <text
   x="1234.1536"
   y="1647.1478"
   style="font-size:33.438px;font-family:ArialMT, Arial, sans-serif;stroke-width:33.438"
   id="text149">oui</text>
        <text
   x="879.55353"
   y="2240.5479"
   style="font-size:33.438px;font-family:ArialMT, Arial, sans-serif;stroke-width:33.438"
   id="text153">oui</text>
        <text
   x="489.25357"
   y="2234.5479"
   style="font-size:33.438px;font-family:ArialMT, Arial, sans-serif;stroke-width:33.438"
   id="text157">non</text>
        <text
   x="790.05353"
   y="1653.7478"
   style="font-size:33.438px;font-family:ArialMT, Arial, sans-serif;stroke-width:33.438"
   id="text161">non</text>
        <text
   x="1028.6508"
   y="2216.2478"
   style="font-size:33.438px;font-family:ArialMT, Arial, sans-serif;stroke-width:33.438"
   id="text165">fin</text>
        <path
   d="m 1047.35,1261 0.67,105.46"
   style="fill:none;stroke:#000000;stroke-width:1.6px"
   id="path169" />
        <path
   d="m 1044.2971,1494.456 0.6701,91.62"
   style="fill:none;stroke:#000000;stroke-width:1.6px"
   id="path171" />
        <path
   d="m 896.199,1664.127 -173.209,0.13 v 217.87"
   style="fill:none;stroke:#000000;stroke-width:1.6px"
   id="path175" />
        <path
   d="m 1194.423,1664.255 h 181.3 v 73.19"
   style="fill:none;stroke:#000000;stroke-width:1.6px"
   id="path179" />
        <path
   d="m 1058.32,1348.21 c -4.04,4.42 -7.45,10.57 -10.3,18.25 -4.14,-5.26 -7.81,-11.12 -9.61,-19.25"
   style="fill:none;stroke:#000000;stroke-width:1.6px"
   id="path183" />
        <path
   d="m 1055.2672,1567.826 c -4.04,4.42 -7.4501,10.57 -10.3,18.25 -4.1401,-5.26 -7.81,-11.12 -9.61,-19.25"
   style="fill:none;stroke:#000000;stroke-width:1.6px"
   id="path185" />
        <path
   d="m 733.129,2107.989 c -4.04,4.42 -7.45,10.57 -10.3,18.25 -4.14,-5.26 -7.81,-11.12 -9.61,-19.25"
   style="fill:none;stroke:#000000;stroke-width:1.6px"
   id="path189" />
        <path
   d="m 732.943,1768.866 c -4.04,4.42 -7.45,10.57 -10.3,18.25 -4.14,-5.26 -7.81,-11.12 -9.61,-19.25"
   style="fill:none;stroke:#000000;stroke-width:1.6px"
   id="path193" />
        <path
   d="m 732.943,1863.87 c -4.04,4.42 -7.45,10.57 -10.3,18.25 -4.14,-5.26 -7.81,-11.12 -9.61,-19.25"
   style="fill:none;stroke:#000000;stroke-width:1.6px"
   id="path197" />
        <path
   d="m 1385.68,1719.188 c -4.04,4.42 -7.45,10.57 -10.3,18.25 -4.14,-5.26 -7.81,-11.12 -9.61,-19.25"
   style="fill:none;stroke:#000000;stroke-width:1.6px"
   id="path201" />
        <path
   d="m 755.42,1791.34 c -4.42,4.04 -10.57,7.45 -18.25,10.3 5.26,4.14 11.12,7.81 19.25,9.61"
   style="fill:none;stroke:#000000;stroke-width:1.6px"
   id="path205" />
        <path
   d="m 690.554,1791.34 c 4.42,4.04 10.57,7.45 18.25,10.3 -5.26,4.14 -11.12,7.81 -19.25,9.61"
   style="fill:none;stroke:#000000;stroke-width:1.6px"
   id="path209" />
        <path
   d="m 933.522,2192.33 c 4.42,4.04 10.57,7.45 18.25,10.3 -5.26,4.14 -11.12,7.81 -19.25,9.61"
   style="fill:none;stroke:#000000;stroke-width:1.6px"
   id="path213" />
        
        <text
   x="965.90991"
   y="1653.9508"
   style="font-size:33.438px;font-family:ArialMT, Arial, sans-serif;stroke-width:33.438"
   id="text221"><tspan
     sodipodi:role="line"
     id="tspan27290"
     x="965.90991"
     y="1653.9508">Est </tspan><tspan
     sodipodi:role="line"
     id="tspan27292"
     x="965.90991"
     y="1695.7483">une         ?</tspan></text>
        <text
   x="707.87695"
   y="2159.5342"
   style="font-size:33.438px;font-family:ArialMT, Arial, sans-serif;stroke-width:33.438"
   id="text225">Le</text><text
   x="663.13226"
   y="2185.45"
   style="font-size:33.438px;font-family:ArialMT, Arial, sans-serif;stroke-width:33.438"
   id="text227">bouquet</text><text
   x="714.64453"
   y="2275.4595"
   style="font-size:33.438px;font-family:ArialMT, Arial, sans-serif;stroke-width:33.438"
   id="text231">?</text><text
   x="685.48383"
   y="2214.8459"
   style="font-size:33.438px;font-family:ArialMT, Arial, sans-serif;clip-rule:evenodd;fill-rule:evenodd;stroke-width:33.438;stroke-linecap:round;stroke-linejoin:round;stroke-miterlimit:1.5"
   id="text231-6">a-t-il 4</text>
        <text
   x="1227.7754"
   y="1775.3418"
   style="font-size:33.438px;font-family:ArialMT, Arial, sans-serif;stroke-width:33.438"
   id="text235">choisis</text><text
   x="1227.7754"
   y="1809.8839"
   style="font-size:33.438px;font-family:ArialMT, Arial, sans-serif;stroke-width:33.438"
   id="text237">une</text><text
   x="1358.8129"
   y="1830.0323"
   style="font-size:33.438px;font-family:ArialMT, Arial, sans-serif;clip-rule:evenodd;fill-rule:evenodd;stroke-width:33.438;stroke-linecap:round;stroke-linejoin:round;stroke-miterlimit:1.5"
   id="text237-2">dans</text>
        <path
   d="m 774.3862,1915.2542 8.22288,65.8047 c 0.80604,6.2582 4.18359,9.63 9.32533,11.2049 17.62881,5.3641 42.56786,5.5671 55.91428,-5.4875 1.80968,-1.5658 2.95634,-3.7341 3.18905,-7.0533 1.34426,-21.2511 2.214,-44.0154 3.68307,-65.3358 0.72673,4.9556 -67.36521,12.4483 -80.27611,1.3372 z"
   style="fill:#00fdff;stroke:#000000;stroke-width:0.995045px;stroke-linecap:butt;stroke-miterlimit:2"
   id="path241" />
        <path
   d="m 793.97229,1943.8904 c 1.69073,4.2798 2.75743,35.5456 2.96478,38.6839 0.0897,1.3475 0.41082,2.0912 0.47388,2.1997 0.84373,1.4444 2.2803,2.5241 4.21283,3.1202 2.13015,0.6565 4.97338,0.7176 7.97391,0.2002 4.22324,-0.7281 8.76499,-2.5767 11.88123,-5.0573 2.48506,-1.9773 4.08023,-4.387 4.4111,-6.9098 0.78393,-5.9763 -0.55643,-10.2002 -2.87378,-13.2092 -2.13535,-2.7724 -5.16903,-4.5424 -8.45168,-5.5968 1.83958,-0.7923 3.58881,-1.7024 5.07478,-2.7333 3.49585,-2.4266 5.5844,-5.55 5.35559,-9.1277 -0.26652,-4.1817 -2.90693,-7.2277 -6.74405,-9.2772 -4.73872,-2.5313 -11.38396,-3.4901 -15.80221,-3.8112 -1.26561,-0.092 -2.92188,-0.1488 -4.13093,0.2347 -0.53693,0.1703 -3.02589,1.4132 -3.96843,3.8761 -0.81254,2.1224 -0.79304,6.3554 -0.37702,7.4077 z m 8.50758,38.3914 -0.006,-0.074 c -0.18916,-2.8601 -0.49857,-11.5289 -0.80538,-20.6781 2.59426,-0.1677 6.70049,-0.2021 10.53177,0.8737 2.46426,0.6923 4.83491,1.8428 6.41968,3.9008 1.58932,2.0638 2.30565,5.0026 1.76808,9.1017 -0.16316,1.2468 -1.1369,2.3122 -2.3648,3.2898 -2.45191,1.9514 -6.04592,3.3574 -9.36822,3.9301 -1.73753,0.2996 -3.399,0.3757 -4.76146,0.1202 -0.55578,-0.1046 -1.06995,-0.206 -1.41382,-0.4641 z m -1.69917,-44.3976 c 0.43552,0 0.95099,-7e-4 1.2656,0.022 3.79292,0.2762 9.52228,0.9984 13.59016,3.1708 2.03589,1.0875 3.67916,2.5182 3.82087,4.7368 0.065,1.0166 -0.44007,1.8831 -1.17005,2.6775 -1.0706,1.1655 -2.61182,2.147 -4.32465,3.0102 -4.14263,2.0879 -9.26681,3.4146 -12.49095,4.1232 -0.19631,-5.8841 -0.38027,-11.4938 -0.52068,-15.3914 -0.0227,-0.6299 -0.10595,-1.6348 -0.1703,-2.3492 z"
   style="fill:#16a4a5;stroke-width:0.650029"
   id="path244" />
        <path
   d="m 854.72697,1915.666 c 1.80188,3.6304 -74.16506,11.4002 -81.32838,0"
   style="fill:none;stroke:#000000;stroke-width:2.43761px"
   id="path248" />
        <path
   d="m 837.2519,1970.261 c -0.74363,4.6399 -3.25145,13.9301 -0.44722,17.3961 1.33386,1.6758 7.23744,-4.2005 7.70286,-4.7738 0.71633,-0.8789 0.70723,-3.9236 1.08425,-5.3576 2.3375,-8.6974 5.36534,-37.4339 2.93813,-46.4901 -0.46542,-1.7109 1.04785,-7.3012 0.15211,-8.4114 -1.19086,-1.4873 -5.39265,0.3666 -6.01928,1.2441 -2.03329,14.8077 -2.87573,30.7621 -5.40175,46.3836 z"
   style="fill:#3addde;stroke-width:1.30006"
   id="path252" />
        <path
   d="m 852.88382,1918.5654 c -0.70853,4.1394 -0.47582,7.5702 -5.82297,13.0253 -5.45505,5.5538 -14.58277,14.7804 -22.85115,18.4439 -8.44779,3.7351 -14.79858,5.8321 -29.56986,5.4551 -7.06713,-0.1794 -13.71434,-5.9114 -17.62882,-12.9707 -3.69997,-6.6732 -4.89082,-14.4216 -2.08659,-19.51 l -0.24312,-1.9254 c -0.1157,0.053 -0.21451,0.1339 -0.30421,0.2587 -3.94958,5.7242 -2.61572,14.4671 1.45997,21.8397 4.08479,7.3636 11.00891,13.4725 18.76636,13.678 14.89739,0.3679 21.607,-1.8175 30.11719,-5.5799 8.6974,-3.8339 17.81603,-13.1592 23.27108,-18.7313 5.57205,-5.6695 5.51875,-9.7907 6.19998,-13.7494 0.0715,-0.4303 -0.26001,-0.8151 -0.69033,-0.8073 -0.31331,0.01 -0.58243,0.2509 -0.62663,0.5824 z"
   style="fill:#3f3f3f;stroke-width:1.30006"
   id="path256" />
        <path
   d="m 853.61836,1918.9242 c -0.70854,4.1212 -0.47582,7.569 -5.82297,13.0253 -5.45505,5.5526 -14.58277,14.7791 -22.85116,18.444 -8.46599,3.735 -14.79858,5.8307 -29.56986,5.455 -2.28421,-0.055 -4.54111,-0.7085 -6.66411,-1.7824 -4.72962,-2.1503 -8.90411,-6.5042 -11.69014,-11.538 -3.69997,-6.6472 -4.89082,-14.3683 -2.1139,-19.4567 l -0.1261,-0.8411 c -3.52966,5.7059 -2.1581,14.1706 1.80058,21.3183 2.75093,4.9637 6.79932,9.3527 11.51073,11.7526 2.0606,0.9412 4.2642,1.5055 6.5211,1.5679 14.89739,0.3679 21.607,-1.8175 30.11589,-5.5799 8.69871,-3.8339 17.81733,-13.1592 23.27238,-18.7313 5.57205,-5.6708 5.51875,-9.7907 6.19868,-13.7507 0.0273,-0.1521 0,-0.3042 -0.0624,-0.4381 -0.27691,0.062 -0.49272,0.2769 -0.52782,0.5642 z"
   style="fill:#686868;stroke-width:1.30006"
   id="path260" />
        <path
   d="m 776.08798,1943.1196 c 4.01328,7.4078 10.97381,13.3373 18.73126,13.5258 14.89609,0.3758 21.73181,-2.0866 30.2498,-5.8489 l 0.37702,-0.3224 c -8.5102,3.761 -15.48892,6.4496 -30.38501,6.0816 -7.75745,-0.1976 -14.68157,-6.3066 -18.76636,-13.6779 -3.76238,-6.7902 -5.17814,-14.7635 -2.28421,-20.4421 0.15211,-0.3758 0.84114,-1.2715 0.16121,-0.5916 -3.40486,5.9218 -2.06059,13.9393 1.92539,21.2664 z"
   style="fill:#c5c5c5;stroke-width:1.30006"
   id="path264" />
        <path
   d="m 1319.9014,1816.9741 c -3.5924,-2.9916 7.3933,-32.2663 19.0315,-23.7651 1.761,1.287 2.0249,6.2043 1.4802,7.7395 -1.8479,5.2079 -13.6046,16.386 -14.6248,16.8718 -0.61,0.2897 -1.3171,1.5381 -1.3171,1.5381 0,0 0.9338,-1.0141 1.5416,-1.3035 1.3011,-0.6196 12.3904,-10.1023 18.0412,-13.1809 4.8587,-2.6467 8.9866,4.6465 8.602,7.5426 -1.0166,7.6409 -12.1689,7.3966 -17.4711,9.3553 -1.1159,0.4116 -6.2973,0.7918 -6.6561,1.8031 -0.087,0.2459 0.5294,0.033 0.7824,-0.031 0.5791,-0.1457 1.665,0.077 2.2488,0.1815 1.4774,0.2621 18.5912,3.3315 17.513,12.3841 -1.2837,10.774 -14.5558,3.1606 -18.6038,-1.0473 -1.0143,-1.0528 -2.5682,-2.0264 -3.3413,-3.191 -0.1934,-0.2893 -0.7248,-1.818 -1.119,-1.6311 -0.1493,0.071 0.3625,0.447 0.4027,0.6056 0.1511,0.6 0.6332,1.2061 0.8841,1.8565 0.6489,1.685 0.5063,3.5793 0.7244,5.3481 0.8149,6.6058 -0.8955,19.5754 -10.4745,18.6531 -1.4939,-0.1438 -1.1067,-3.5589 -1.0657,-4.389 0.2495,-5.0365 -0.4723,-9.348 0.6453,-14.4267 0.4645,-2.1133 1.2398,-3.9307 1.9531,-5.9409 0.063,-0.179 0.9874,-1.515 1.0832,-1.3123 0.2292,0.4813 -3.1039,3.9271 -3.5406,4.7601 -2.0776,3.9623 -6.9493,9.1966 -11.3719,10.3119 -1.3075,0.3297 -5.2288,0.8844 -6.2901,-0.5352 -4.0694,-5.4452 3.9107,-13.8177 9.0039,-16.2432 1.3611,-0.6482 2.8105,-1.3329 4.3091,-1.7105 0.8635,-0.2178 2.6701,-0.1328 2.6701,-0.1328 0,0 -2.1341,-0.6543 -3.2095,-0.5213 -1.9041,0.2348 -4.1275,0.3468 -6.0729,0.1595 -6.3049,-0.6073 -19.0726,-4.2027 -17.1319,-13.0214 1.2998,-5.9064 11.6411,-5.5084 15.31,-2.2808 2.1794,1.9172 4.7568,3.7442 6.3214,6.099 0.5435,0.8189 1.1231,1.7153 1.7453,2.4708 0.3322,0.4034 1.1756,1.0347 1.1756,1.0347 0,0 -1.609,-1.2277 -2.0286,-2.1087 -0.9938,-2.0886 -2.3615,-3.8769 -4.1769,-5.1842 -7.3409,-5.2892 -9.5882,-21.1869 -2.2744,-22.0923 9.3489,-1.1564 14.5419,20.5274 15.3013,25.3341 z"
   style="fill:#ffeba8"
   id="path268" /><ellipse
   cx="-1853.2262"
   cy="1277.5948"
   rx="8.6231441"
   ry="7.6159973"
   style="fill:#ffc400;stroke-width:0.912508"
   id="ellipse272"
   transform="matrix(-0.94243307,-0.33439484,-0.33439412,0.94243333,0,0)" />
        <path
   d="m 1065.0617,1670.3155 c -3.5924,-2.9916 7.3933,-32.2663 19.0315,-23.7651 1.761,1.287 2.0249,6.2043 1.4802,7.7395 -1.8479,5.2079 -13.6046,16.386 -14.6248,16.8718 -0.61,0.2897 -1.3171,1.5381 -1.3171,1.5381 0,0 0.9338,-1.0141 1.5416,-1.3035 1.3011,-0.6196 12.3904,-10.1023 18.0412,-13.1809 4.8587,-2.6467 8.9866,4.6465 8.602,7.5426 -1.0166,7.6409 -12.1689,7.3966 -17.4711,9.3553 -1.1159,0.4116 -6.2973,0.7918 -6.6561,1.8031 -0.087,0.2459 0.5294,0.033 0.7824,-0.031 0.5791,-0.1457 1.665,0.077 2.2488,0.1815 1.4774,0.2621 18.5912,3.3315 17.513,12.3841 -1.2837,10.774 -14.5558,3.1606 -18.6038,-1.0473 -1.0143,-1.0528 -2.5682,-2.0264 -3.3413,-3.191 -0.1934,-0.2893 -0.7248,-1.818 -1.119,-1.6311 -0.1493,0.071 0.3625,0.447 0.4027,0.6056 0.1511,0.6 0.6332,1.2061 0.8841,1.8565 0.6489,1.685 0.5063,3.5793 0.7244,5.3481 0.8149,6.6058 -0.8955,19.5754 -10.4745,18.6531 -1.4939,-0.1438 -1.1067,-3.5589 -1.0657,-4.389 0.2495,-5.0365 -0.4723,-9.348 0.6453,-14.4267 0.4645,-2.1133 1.2398,-3.9307 1.9531,-5.9409 0.063,-0.179 0.9874,-1.515 1.0832,-1.3123 0.2292,0.4813 -3.1039,3.9271 -3.5406,4.7601 -2.0776,3.9623 -6.9493,9.1966 -11.3719,10.3119 -1.3075,0.3297 -5.2288,0.8844 -6.2901,-0.5352 -4.0694,-5.4452 3.9107,-13.8177 9.0039,-16.2432 1.3611,-0.6482 2.8105,-1.3329 4.3091,-1.7105 0.8635,-0.2178 2.6701,-0.1328 2.6701,-0.1328 0,0 -2.1341,-0.6543 -3.2095,-0.5213 -1.9041,0.2348 -4.1275,0.3468 -6.0729,0.1595 -6.3049,-0.6073 -19.0726,-4.2027 -17.1319,-13.0214 1.2998,-5.9064 11.6411,-5.5084 15.31,-2.2808 2.1794,1.9172 4.7568,3.7442 6.3214,6.099 0.5435,0.8189 1.1231,1.7153 1.7453,2.4708 0.3322,0.4034 1.1756,1.0347 1.1756,1.0347 0,0 -1.609,-1.2277 -2.0286,-2.1087 -0.9938,-2.0886 -2.3615,-3.8769 -4.1769,-5.1842 -7.3409,-5.2892 -9.5882,-21.1869 -2.2744,-22.0923 9.3489,-1.1564 14.5419,20.5274 15.3013,25.3341 z"
   style="fill:#ffeba8"
   id="path278" /><ellipse
   cx="-1564.0149"
   cy="1224.5962"
   rx="8.6231441"
   ry="7.6159973"
   style="fill:#ffc400;stroke-width:0.912508"
   id="ellipse282"
   transform="matrix(-0.94243307,-0.33439484,-0.33439412,0.94243333,0,0)" />
        <circle
   cx="722.98499"
   cy="1801.2966"
   r="14.178"
   style="fill:#e2ffeb;stroke:#000000;stroke-width:1.6px"
   id="circle288" />
        <path
   d="M 577.82765,2204.3 H 451.67408 l 1.92312,-403 h 255.21085"
   style="fill:none;stroke:#000000;stroke-width:1.58441px"
   id="path292" />
        <path
   d="m 723.171,2012.4545 v 113.7938"
   style="fill:none;stroke:#000000;stroke-width:1.58668px"
   id="path296" />
        <path
   d="m 872.284,2204.3 h 79.492"
   style="fill:none;stroke:#000000;stroke-width:1.6px"
   id="path300" />
    <text
   x="578.06549"
   y="1961.828"
   style="font-size:33.438px;font-family:ArialMT, Arial, sans-serif;clip-rule:evenodd;fill-rule:evenodd;stroke-width:33.438;stroke-linecap:round;stroke-linejoin:round;stroke-miterlimit:1.5"
   id="text141-7">choisis dans</text><text
   xml:space="preserve"
   style="font-style:normal;font-variant:normal;font-weight:normal;font-stretch:normal;font-size:33.438px;line-height:normal;font-family:ArialMT, Arial, sans-serif;font-variant-ligatures:normal;font-variant-position:normal;font-variant-caps:normal;font-variant-numeric:normal;font-variant-alternates:normal;font-variant-east-asian:normal;font-feature-settings:normal;font-variation-settings:normal;text-indent:0;text-align:start;text-decoration-line:none;text-decoration-style:solid;text-decoration-color:#000000;letter-spacing:normal;word-spacing:normal;text-transform:none;writing-mode:lr-tb;direction:ltr;text-orientation:mixed;dominant-baseline:auto;baseline-shift:baseline;text-anchor:start;white-space:normal;shape-padding:0;shape-margin:0;inline-size:0;opacity:1;vector-effect:none;fill:#000000;fill-opacity:1;stroke:none;stroke-width:33.438;stroke-linecap:butt;stroke-linejoin:miter;stroke-miterlimit:1.5;stroke-dasharray:none;stroke-dashoffset:0;stroke-opacity:1;-inkscape-stroke:none;stop-color:#000000;stop-opacity:1"
   x="834.78479"
   y="2280.2849"
   id="text4766"
   transform="translate(-179.41286,-37.62762)"><tspan
     sodipodi:role="line"
     id="tspan4764"
     x="834.78479"
     y="2280.2849">éléments</tspan></text></g>
</svg>
