<?xml version="1.0" encoding="UTF-8" standalone="no"?>
<!-- Created with Inkscape (http://www.inkscape.org/) -->

<svg
   width="9.2824545mm"
   height="11.477313mm"
   viewBox="0 0 9.2824549 11.477313"
   version="1.1"
   id="svg1052"
   sodipodi:docname="2023-DE-08a-tank32_compatible.svg"
   inkscape:version="1.1.1 (3bf5ae0d25, 2021-09-20)"
   xmlns:inkscape="http://www.inkscape.org/namespaces/inkscape"
   xmlns:sodipodi="http://sodipodi.sourceforge.net/DTD/sodipodi-0.dtd"
   xmlns="http://www.w3.org/2000/svg"
   xmlns:svg="http://www.w3.org/2000/svg">
  <sodipodi:namedview
     id="namedview1054"
     pagecolor="#ffffff"
     bordercolor="#666666"
     borderopacity="1.0"
     inkscape:pageshadow="2"
     inkscape:pageopacity="0.0"
     inkscape:pagecheckerboard="0"
     inkscape:document-units="mm"
     showgrid="false"
     inkscape:zoom="5.1241863"
     inkscape:cx="39.713622"
     inkscape:cy="29.56567"
     inkscape:window-width="2048"
     inkscape:window-height="1017"
     inkscape:window-x="-8"
     inkscape:window-y="-8"
     inkscape:window-maximized="1"
     inkscape:current-layer="layer1" />
  <defs
     id="defs1049" />
  <g
     inkscape:label="Ebene 1"
     inkscape:groupmode="layer"
     id="layer1"
     transform="translate(-129.19465,-121.07498)">
    <g
       id="g3579"
       style="clip-rule:evenodd;fill-rule:evenodd;stroke-linecap:round;stroke-linejoin:round;stroke-miterlimit:1.5"
       transform="matrix(0.04890726,0,0,0.04890726,57.815862,109.93484)">
      <g
         transform="matrix(-1.77985,0,0,1.77985,3785.17,17.4404)"
         id="g108">
        <path
           d="m 1284.77,145.347 -5.68,4.102 10.34,13.641 5.47,-4.341 0.8,1.059 c 0.54,0.827 1.15,1.159 1.98,0.395 l 1.99,-1.563 c 1.26,-1.017 1,-1.586 0.08,-2.568 l -10.88,-14.829 c -1.01,-1.581 -1.86,-1.755 -2.92,-0.703 l -2.16,1.849 c -0.69,0.619 -0.37,1.24 0.27,2.024 z"
           id="path106" />
      </g>
      <g
         transform="matrix(-1.77985,0,0,1.77985,3784.55,14.2745)"
         id="g128">
        <path
           d="m 1247.56,124.67 c 10.09,0 18.49,7.345 20.13,16.98 l 4.14,0.005 25.19,33.265 v 62.288 c 0,5.457 -4.43,9.888 -9.89,9.888 h -71.39 c -5.46,0 -9.89,-4.431 -9.89,-9.888 v -102.65 c 0,-5.457 4.43,-9.888 9.89,-9.888 z m -18.43,4.878 h 18.43 c 7.39,0 13.58,5.173 15.16,12.096 l -33.78,-0.044 z"
           style="fill:#8f0007"
           id="path126" />
      </g>
      <g
         transform="matrix(-1.77985,0,0,1.77985,3784.55,14.2745)"
         id="g132">
        <path
           d="m 1247.56,124.67 c 10.09,0 18.49,7.345 20.13,16.98 l 4.14,0.005 25.19,33.265 v 62.288 c 0,5.457 -4.43,9.888 -9.89,9.888 h -71.39 c -5.46,0 -9.89,-4.431 -9.89,-9.888 v -102.65 c 0,-5.457 4.43,-9.888 9.89,-9.888 z m -18.43,4.878 h 18.43 c 7.39,0 13.58,5.173 15.16,12.096 l -33.78,-0.044 z"
           style="fill:#ff7f2a"
           id="path130" />
      </g>
      <g
         transform="matrix(0.926597,0,0,0.926597,113.558,24.9301)"
         id="g136">
        <path
           d="m 1626.2,237.038 c 1.03,2.237 1.6,4.728 1.6,7.353 v 182.7 c 0,9.713 -7.88,17.599 -17.6,17.599 h -127.06 c -1.91,0 -3.75,-0.305 -5.47,-0.869 2.79,6.046 8.9,10.247 15.99,10.247 h 127.06 c 9.72,0 17.6,-7.887 17.6,-17.6 v -182.7 c 0,-7.804 -5.09,-14.428 -12.12,-16.73 z"
           style="fill:#ffac75;fill-opacity:1"
           id="path134" />
      </g>
      <g
         transform="matrix(8.16672,0,0,8.16672,-6170.49,-1272.72)"
         id="g150">
        <g
           aria-label="3"
           id="text148"
           style="font-size:24px;font-family:ArialMT, Arial, sans-serif">
          <path
             d="m 940.55682,202.87885 2.10938,-0.28125 q 0.36328,1.79296 1.23047,2.58984 0.8789,0.78516 2.13281,0.78516 1.48828,0 2.50781,-1.03125 1.03125,-1.03125 1.03125,-2.55469 0,-1.45313 -0.94922,-2.39063 -0.94922,-0.94922 -2.41406,-0.94922 -0.59766,0 -1.48828,0.23438 l 0.23437,-1.85156 q 0.21094,0.0234 0.33985,0.0234 1.34765,0 2.42578,-0.70312 1.07812,-0.70313 1.07812,-2.16797 0,-1.16016 -0.78515,-1.92187 -0.78516,-0.76172 -2.02735,-0.76172 -1.23046,0 -2.05078,0.77343 -0.82031,0.77344 -1.05468,2.32032 l -2.10938,-0.375 q 0.38672,-2.1211 1.75781,-3.28125 1.3711,-1.17188 3.41016,-1.17188 1.40625,0 2.58984,0.60938 1.1836,0.59765 1.80469,1.64062 0.63281,1.04297 0.63281,2.21485 0,1.11328 -0.59765,2.02734 -0.59766,0.91406 -1.76953,1.45312 1.52343,0.35157 2.36718,1.46485 0.84375,1.10156 0.84375,2.76562 0,2.25 -1.64062,3.82032 -1.64063,1.55859 -4.14844,1.55859 -2.26172,0 -3.76172,-1.34766 -1.48828,-1.34765 -1.69922,-3.49218 z"
             id="path2397" />
        </g>
      </g>
    </g>
  </g>
</svg>
