<?xml version="1.0" encoding="UTF-8" standalone="no"?>
<!-- Created with Inkscape (http://www.inkscape.org/) -->

<svg
   width="9.2824545mm"
   height="11.477313mm"
   viewBox="0 0 9.2824549 11.477313"
   version="1.1"
   id="svg1052"
   sodipodi:docname="2023-DE-08a-tank.svg"
   inkscape:version="1.1.1 (3bf5ae0d25, 2021-09-20)"
   xmlns:inkscape="http://www.inkscape.org/namespaces/inkscape"
   xmlns:sodipodi="http://sodipodi.sourceforge.net/DTD/sodipodi-0.dtd"
   xmlns="http://www.w3.org/2000/svg"
   xmlns:svg="http://www.w3.org/2000/svg">
  <sodipodi:namedview
     id="namedview1054"
     pagecolor="#ffffff"
     bordercolor="#666666"
     borderopacity="1.0"
     inkscape:pageshadow="2"
     inkscape:pageopacity="0.0"
     inkscape:pagecheckerboard="0"
     inkscape:document-units="mm"
     showgrid="false"
     inkscape:zoom="5.1241863"
     inkscape:cx="39.713622"
     inkscape:cy="29.56567"
     inkscape:window-width="2048"
     inkscape:window-height="1017"
     inkscape:window-x="-8"
     inkscape:window-y="-8"
     inkscape:window-maximized="1"
     inkscape:current-layer="g3579" />
  <defs
     id="defs1049" />
  <g
     inkscape:label="Ebene 1"
     inkscape:groupmode="layer"
     id="layer1"
     transform="translate(-129.19465,-121.07498)">
    <g
       id="g3579"
       style="clip-rule:evenodd;fill-rule:evenodd;stroke-linecap:round;stroke-linejoin:round;stroke-miterlimit:1.5"
       transform="matrix(0.05174394,0,0,0.05174394,53.406609,108.95585)">
      <path
         d="m 1516.2974,254.67945 0.5826,12.45658 -30.4571,0.71859 -0.017,-12.42901 -2.3614,0.0596 c -1.7502,0.16455 -2.8887,-0.31701 -2.7446,-2.31966 l -0.029,-4.50368 c 0.02,-2.8819 1.1005,-3.15045 3.4877,-2.95758 l 32.7101,-1.28324 c 3.3212,-0.34568 4.5056,0.64522 4.2154,3.28739 l -0.1811,5.0574 c -0.097,1.64698 -1.3168,1.8896 -3.1179,1.86723 z"
         id="path118"
         style="clip-rule:evenodd;fill-rule:evenodd;stroke-width:1.77984;stroke-linecap:round;stroke-linejoin:round;stroke-miterlimit:1.5" />
      <path
         d="m 1561.5015,236.1684 c -17.9587,0 -32.9094,13.073 -35.8283,30.22185 l -34.6359,0.005 c -12.8505,-0.61582 -18.4393,5.80943 -18.0121,18.06904 l 0.445,41.14123 v 110.8633 c 0,9.71264 7.8847,17.59916 17.6027,17.59916 h 127.0635 c 9.7179,0 17.6027,-7.88652 17.6027,-17.59916 v -182.7016 c 0,-9.71264 -7.8848,-17.59916 -17.6027,-17.59916 z m 32.8027,8.68211 h -32.8027 c -13.1531,0 -24.1703,9.20716 -26.9825,21.52907 l 91.2173,-0.0783 c 0.4094,-4.01712 -0.053,-10.11311 -0.018,-12.9929 0.1602,-10.44416 -12.3877,-10.00276 -31.4143,-8.45785 z"
         style="clip-rule:evenodd;fill:#ffcb1e;fill-rule:evenodd;stroke-width:1.77985;stroke-linecap:round;stroke-linejoin:round;stroke-miterlimit:1.5"
         id="path144" />
      <text
         x="1486.6945"
         y="426.34839"
         style="font-size:196.001px;font-family:ArialMT, Arial, sans-serif;clip-rule:evenodd;fill-rule:evenodd;stroke-width:8.16672;stroke-linecap:round;stroke-linejoin:round;stroke-miterlimit:1.5"
         id="text152">X</text>
      <path
         id="path144-2"
         style="clip-rule:evenodd;fill:#ddb100;fill-opacity:1;fill-rule:evenodd;stroke-width:1.62096;stroke-linecap:round;stroke-linejoin:round;stroke-miterlimit:1.5"
         d="m 1620.9548,421.12917 c 0,8.84558 -7.1799,16.02848 -16.0303,16.02848 h -115.7213 c -2.5246,0 -4.9118,-0.58506 -7.0368,-1.62579 1.6877,7.04263 8.0158,12.29128 15.5767,12.29128 h 115.7195 c 8.8504,0 15.88,-7.1842 16.032,-16.02848 l 2.7321,-158.97545 c -8.8377,24.89626 -11.2719,131.13469 -11.2719,148.30996 z"
         sodipodi:nodetypes="csscssscc" />
    </g>
  </g>
</svg>
