<?xml version="1.0" encoding="UTF-8" standalone="no"?>
<!-- Created with Inkscape (http://www.inkscape.org/) -->

<svg
   width="11.680943mm"
   height="15.01194mm"
   viewBox="0 0 11.680943 15.01194"
   version="1.1"
   id="svg1437"
   inkscape:version="1.1.1 (3bf5ae0d25, 2021-09-20)"
   sodipodi:docname="2023-DE-08a-zerobot_9_compatible.svg"
   xmlns:inkscape="http://www.inkscape.org/namespaces/inkscape"
   xmlns:sodipodi="http://sodipodi.sourceforge.net/DTD/sodipodi-0.dtd"
   xmlns="http://www.w3.org/2000/svg"
   xmlns:svg="http://www.w3.org/2000/svg">
  <sodipodi:namedview
     id="namedview1439"
     pagecolor="#ffffff"
     bordercolor="#666666"
     borderopacity="1.0"
     inkscape:pageshadow="2"
     inkscape:pageopacity="0.0"
     inkscape:pagecheckerboard="0"
     inkscape:document-units="mm"
     showgrid="false"
     inkscape:zoom="0.64052329"
     inkscape:cx="53.86221"
     inkscape:cy="211.54578"
     inkscape:window-width="2048"
     inkscape:window-height="1017"
     inkscape:window-x="-8"
     inkscape:window-y="-8"
     inkscape:window-maximized="1"
     inkscape:current-layer="layer1" />
  <defs
     id="defs1434" />
  <g
     inkscape:label="Ebene 1"
     inkscape:groupmode="layer"
     id="layer1"
     transform="translate(-90.818777,-92.45787)">
    <path
       id="path46"
       style="clip-rule:evenodd;fill:#000000;fill-rule:evenodd;stroke:none;stroke-width:0.0433216px;stroke-linecap:round;stroke-linejoin:round;stroke-miterlimit:1.5"
       d="m 92.078619,105.09926 c -0.361552,0 -0.678872,0.14747 -0.895113,0.36371 -0.21624,0.21623 -0.343022,0.50499 -0.343022,0.82161 0,0.3166 0.126782,0.60528 0.343022,0.82152 0.216241,0.21623 0.533561,0.36371 0.895113,0.36371 h 8.798951 c 0.36157,0 0.67888,-0.14748 0.89511,-0.36371 0.21624,-0.21624 0.34302,-0.50492 0.34302,-0.82152 0,-0.31662 -0.12678,-0.60537 -0.34302,-0.82161 -0.21623,-0.21624 -0.53354,-0.36371 -0.89511,-0.36371 z m 0,0.23357 h 0.963955 v 0.26044 a 0.14553063,0.14553063 0 0 0 0.145483,0.14557 0.14553063,0.14553063 0 0 0 0.145484,-0.14557 v -0.26044 h 1.706293 v 0.27359 a 0.14553063,0.14553063 0 0 0 0.145483,0.14548 0.14553063,0.14553063 0 0 0 0.145569,-0.14548 v -0.27359 h 1.913073 v 0.27359 a 0.14553063,0.14553063 0 0 0 0.145568,0.14548 0.14553063,0.14553063 0 0 0 0.145483,-0.14548 v -0.27359 h 1.97047 v 0.27359 a 0.14631691,0.14480659 0 0 0 0.146246,0.1448 0.14631691,0.14480659 0 0 0 0.146331,-0.1448 v -0.27359 h 1.079513 c 0.22819,0 0.44509,0.092 0.61567,0.26256 0.17059,0.17059 0.28317,0.41607 0.28317,0.68919 0,0.2731 -0.11258,0.51859 -0.28317,0.68918 -0.17057,0.17058 -0.38748,0.26256 -0.61567,0.26256 h -1.079513 v -0.33802 a 0.14631691,0.14480659 0 0 0 -0.146331,-0.1448 0.14631691,0.14480659 0 0 0 -0.146246,0.1448 v 0.33802 h -1.97047 v -0.33802 a 0.14553063,0.14553063 0 0 0 -0.145483,-0.14557 0.14553063,0.14553063 0 0 0 -0.145568,0.14557 v 0.33802 h -1.913073 v -0.33802 a 0.14553063,0.14553063 0 0 0 -0.145569,-0.14557 0.14553063,0.14553063 0 0 0 -0.145483,0.14557 v 0.33802 h -1.687387 v -0.33802 a 0.14553063,0.14553063 0 0 0 -0.145568,-0.14557 0.14553063,0.14553063 0 0 0 -0.145484,0.14557 v 0.33802 h -0.982776 c -0.228166,0 -0.445089,-0.092 -0.615676,-0.26256 -0.170587,-0.17059 -0.283252,-0.41608 -0.283252,-0.68918 0,-0.27312 0.112665,-0.5186 0.283252,-0.68919 0.170587,-0.17058 0.38751,-0.26256 0.615676,-0.26256 z m 0.09792,0.20678 c -0.408143,0 -0.739456,0.3314 -0.739456,0.73954 0,0.4081 0.331313,0.73946 0.739456,0.73946 0.408142,0 0.73954,-0.33136 0.73954,-0.73946 0,-0.40814 -0.331398,-0.73954 -0.73954,-0.73954 z m 1.993021,0 c -0.408143,0 -0.739456,0.3314 -0.739456,0.73954 0,0.4081 0.331313,0.73946 0.739456,0.73946 0.408142,0 0.739456,-0.33136 0.739456,-0.73946 0,-0.40814 -0.331314,-0.73954 -0.739456,-0.73954 z m 2.148508,0 c -0.408142,0 -0.739541,0.3314 -0.739541,0.73954 0,0.4081 0.331399,0.73946 0.739541,0.73946 0.408143,0 0.739456,-0.33136 0.739456,-0.73946 0,-0.40814 -0.331313,-0.73954 -0.739456,-0.73954 z m 2.196325,0 c -0.408142,0 -0.739456,0.3314 -0.739456,0.73954 0,0.4081 0.331314,0.73946 0.739456,0.73946 0.408143,0 0.739541,-0.33136 0.739541,-0.73946 0,-0.40814 -0.331398,-0.73954 -0.739541,-0.73954 z m 2.148337,0 c -0.40814,0 -0.739539,0.3314 -0.739539,0.73954 0,0.4081 0.331399,0.73946 0.739539,0.73946 0.40815,0 0.73946,-0.33136 0.73946,-0.73946 0,-0.40814 -0.33131,-0.73954 -0.73946,-0.73954 z m -8.486191,0.36973 c 0.204071,0 0.369728,0.16574 0.369728,0.36981 0,0.20407 -0.165657,0.36973 -0.369728,0.36973 -0.204072,0 -0.369728,-0.16566 -0.369728,-0.36973 0,-0.20407 0.165656,-0.36981 0.369728,-0.36981 z m 1.993021,0 c 0.204071,0 0.369728,0.16574 0.369728,0.36981 0,0.20407 -0.165657,0.36973 -0.369728,0.36973 -0.204072,0 -0.369728,-0.16566 -0.369728,-0.36973 0,-0.20407 0.165656,-0.36981 0.369728,-0.36981 z m 2.148508,0 c 0.204072,0 0.369728,0.16574 0.369728,0.36981 0,0.20407 -0.165656,0.36973 -0.369728,0.36973 -0.204071,0 -0.369728,-0.16566 -0.369728,-0.36973 0,-0.20407 0.165657,-0.36981 0.369728,-0.36981 z m 2.196325,0 c 0.204071,0 0.369728,0.16574 0.369728,0.36981 0,0.20407 -0.165657,0.36973 -0.369728,0.36973 -0.204071,0 -0.369728,-0.16566 -0.369728,-0.36973 0,-0.20407 0.165657,-0.36981 0.369728,-0.36981 z m 2.148337,0 c 0.20408,0 0.36973,0.16574 0.36973,0.36981 0,0.20407 -0.16565,0.36973 -0.36973,0.36973 -0.20407,0 -0.36972,-0.16566 -0.36972,-0.36973 0,-0.20407 0.16565,-0.36981 0.36972,-0.36981 z" />
    <path
       d="m 91.175076,93.040777 c 1.868575,-0.430414 3.445677,0.04897 4.679741,1.600941 l -1.390614,1.821104 C 93.820448,95.074005 92.870397,94.925315 91.530794,95.02838 Z"
       style="clip-rule:evenodd;fill:#b1c8cd;fill-rule:evenodd;stroke-width:0.0434075;stroke-linecap:round;stroke-linejoin:round;stroke-miterlimit:1.5"
       id="path16" />
    <path
       d="m 93.222355,92.683137 -0.607687,2.584921"
       style="clip-rule:evenodd;fill:none;fill-rule:evenodd;stroke:#000000;stroke-width:0.213892px;stroke-linecap:round;stroke-linejoin:round;stroke-miterlimit:1.5"
       id="path18-2" />
    <path
       d="m 93.766468,92.81205 -0.783926,2.456104"
       style="clip-rule:evenodd;fill:none;fill-rule:evenodd;stroke:#000000;stroke-width:0.214563px;stroke-linecap:round;stroke-linejoin:round;stroke-miterlimit:1.5"
       id="path22" />
    <path
       d="m 94.440132,93.124145 -1.137305,2.30483"
       style="clip-rule:evenodd;fill:none;fill-rule:evenodd;stroke:#000000;stroke-width:0.21661px;stroke-linecap:round;stroke-linejoin:round;stroke-miterlimit:1.5"
       id="path26"
       sodipodi:nodetypes="cc" />
    <path
       d="m 95.453746,93.650294 -1.539667,2.237527"
       style="clip-rule:evenodd;fill:none;fill-rule:evenodd;stroke:#000000;stroke-width:0.220763px;stroke-linecap:round;stroke-linejoin:round;stroke-miterlimit:1.5"
       id="path34" />
    <path
       d="m 95.974176,94.102153 -1.892819,2.184972"
       style="clip-rule:evenodd;fill:none;fill-rule:evenodd;stroke:#000000;stroke-width:0.222869px;stroke-linecap:round;stroke-linejoin:round;stroke-miterlimit:1.5"
       id="path38" />
    <path
       d="m 90.818777,92.580279 v 12.288361 h 11.127333 v -1.23017 h -9.191919 l -0.03498,-7.411126 0.933045,-3.769474 z"
       style="font-variation-settings:normal;clip-rule:evenodd;vector-effect:none;fill:#3771c8;fill-opacity:1;fill-rule:evenodd;stroke-width:0.025629;stroke-linecap:butt;stroke-linejoin:miter;stroke-miterlimit:2;stroke-dasharray:none;stroke-dashoffset:0;stroke-opacity:1;-inkscape-stroke:none;stop-color:#000000"
       id="path44"
       sodipodi:nodetypes="cccccccc" />
    <path
       d="m 102.49972,97.094296 c 0,-2.091768 -1.69825,-3.790022 -3.790363,-3.790022 h -0.995848 c -2.092109,0 -3.790363,1.698254 -3.790363,3.790022 v 3.076844 c 0,2.09177 1.698254,3.79002 3.790363,3.79002 h 0.995848 c 2.092113,0 3.790363,-1.69825 3.790363,-3.79002 z m -2.27977,-2.668852 c 0,-0.314645 -0.255425,-0.570066 -0.569826,-0.570066 h -2.756008 c -0.314401,0 -0.569822,0.255421 -0.569822,0.570066 0,0.314596 0.255421,0.570016 0.569822,0.570016 h 2.756008 c 0.314401,0 0.569826,-0.25542 0.569826,-0.570016 z"
       style="clip-rule:evenodd;fill:#4b14a1;fill-rule:evenodd;stroke-width:0.0487445;stroke-linecap:round;stroke-linejoin:round;stroke-miterlimit:1.5"
       id="path8-6" />
    <path
       d="m 100.36002,94.02834 c 0.60742,0.642422 0.97962,1.509084 0.97962,2.462086 v 2.91126 c 0,1.979194 -1.606402,3.586054 -3.585922,3.586054 h -0.942717 c -0.668757,0 -1.295543,-0.18365 -1.831932,-0.50345 0.653537,0.69195 1.580111,1.12397 2.606307,1.12397 h 0.942255 c 1.979519,0 3.586379,-1.60686 3.586379,-3.58606 v -2.911306 c 0,-1.310026 -0.70427,-2.45692 -1.75399,-3.082554 z"
       style="clip-rule:evenodd;fill:#764db7;fill-rule:evenodd;stroke-width:0.0461211;stroke-linecap:round;stroke-linejoin:round;stroke-miterlimit:1.5"
       id="path12" />
    <path
       d="m 94.825019,93.990947 0.492784,0.35588 -0.897074,1.183462 -0.474565,-0.376615 -0.06941,0.09188 c -0.04685,0.07175 -0.09977,0.100552 -0.17178,0.03427 L 93.53233,95.144217 c -0.109315,-0.08823 -0.08676,-0.137597 -0.0069,-0.222793 l 0.943924,-1.28653 c 0.08763,-0.137164 0.161369,-0.15226 0.253333,-0.06099 l 0.187396,0.160415 c 0.05986,0.0537 0.0321,0.10758 -0.02342,0.175598 z"
       id="path110"
       style="clip-rule:evenodd;fill-rule:evenodd;stroke-width:0.0867577;stroke-linecap:round;stroke-linejoin:round;stroke-miterlimit:1.5" />
    <path
       d="m 96.069971,101.19555 0.807048,-0.0746 q 0.102633,0.56913 0.391863,0.8257 0.289231,0.25658 0.741738,0.25658 0.387198,0 0.676428,-0.17727 0.293896,-0.17727 0.480497,-0.47117 0.186601,-0.29856 0.312558,-0.80238 0.125953,-0.50382 0.125953,-1.026304 0,-0.05598 -0.0047,-0.167942 -0.25191,0.401195 -0.69042,0.653106 -0.433846,0.24724 -0.942336,0.24724 -0.849032,0 -1.436824,-0.615777 -0.587796,-0.615785 -0.587796,-1.62343 0,-1.040299 0.61112,-1.674742 0.615784,-0.634442 1.539457,-0.634442 0.667098,0 1.217569,0.359209 0.555137,0.359205 0.839714,1.026302 0.28923,0.662432 0.28923,1.921991 0,1.310869 -0.28457,2.089929 -0.284571,0.77439 -0.849039,1.18025 -0.559803,0.40585 -1.315533,0.40585 -0.802386,0 -1.310871,-0.44317 -0.50849,-0.44784 -0.61112,-1.25489 z m 3.438121,-3.018272 q 0,-0.723076 -0.387198,-1.147594 -0.382529,-0.424515 -0.923673,-0.424515 -0.559803,0 -0.97499,0.457169 -0.415187,0.457173 -0.415187,1.184918 0,0.653101 0.391863,1.063623 0.396526,0.405857 0.97499,0.405857 0.583126,0 0.956328,-0.405857 0.377867,-0.410522 0.377867,-1.133601 z"
       id="path1066"
       style="font-size:24px;font-family:ArialMT, Arial, sans-serif;clip-rule:evenodd;fill:#ffffff;fill-rule:evenodd;stroke-width:0.398081;stroke-linecap:round;stroke-linejoin:round;stroke-miterlimit:1.5" />
  </g>
</svg>
