<?xml version="1.0" encoding="UTF-8" standalone="no"?>
<!DOCTYPE svg PUBLIC "-//W3C//DTD SVG 1.1//EN" "http://www.w3.org/Graphics/SVG/1.1/DTD/svg11.dtd">
<svg width="100%" height="100%" viewBox="0 0 259 259" version="1.1" xmlns="http://www.w3.org/2000/svg" xmlns:xlink="http://www.w3.org/1999/xlink" xml:space="preserve" xmlns:serif="http://www.serif.com/" style="fill-rule:evenodd;clip-rule:evenodd;">
    <g transform="matrix(1,0,0,1,-1498.27,-886.805)">
        <g id="g56">
        </g>
        <g id="g62">
        </g>
        <g id="g114">
        </g>
        <g id="g124">
        </g>
        <g id="g130">
        </g>
        <g id="g140">
        </g>
        <g id="g146">
        </g>
        <g id="g152">
        </g>
        <g id="g204">
        </g>
        <g id="g212">
        </g>
        <g id="g226">
        </g>
        <g id="g278">
        </g>
        <g id="g286">
        </g>
        <g id="g296">
        </g>
        <g id="g300">
        </g>
        <g id="g306">
        </g>
        <g id="g1456" transform="matrix(1,0,0,1,33.3049,-2.93867)">
            <g id="rect13-0-8-6" transform="matrix(1,0,0,1,635.205,1207.64)">
                <rect x="833.88" y="-313.77" width="50" height="50" style="fill:rgb(249,235,227);stroke:rgb(143,143,143);stroke-width:2px;"/>
            </g>
            <g id="rect15-5-1-2" transform="matrix(1,0,0,1,635.205,1207.64)">
                <rect x="883.88" y="-313.77" width="50" height="50" style="fill:rgb(249,235,227);stroke:rgb(143,143,143);stroke-width:2px;"/>
            </g>
            <g id="rect17-4-9-2" transform="matrix(1,0,0,1,635.205,1207.64)">
                <rect x="933.88" y="-313.77" width="50" height="50" style="fill:rgb(249,235,227);stroke:rgb(143,143,143);stroke-width:2px;"/>
            </g>
            <g id="rect19-2-3-4" transform="matrix(1,0,0,1,635.205,1207.64)">
                <rect x="983.88" y="-313.77" width="50" height="50" style="fill:rgb(249,235,227);stroke:rgb(143,143,143);stroke-width:2px;"/>
            </g>
            <g id="rect21-0-9-4" transform="matrix(1,0,0,1,635.205,1207.64)">
                <rect x="1033.88" y="-313.77" width="50" height="50" style="fill:rgb(108,93,83);stroke:rgb(143,143,143);stroke-width:2px;"/>
            </g>
            <g id="rect23-3-7-0" transform="matrix(1,0,0,1,635.205,1207.64)">
                <rect x="833.88" y="-263.77" width="50" height="50" style="fill:rgb(108,93,83);stroke:rgb(143,143,143);stroke-width:2px;"/>
            </g>
            <g id="rect25-0-5-5" transform="matrix(1,0,0,1,635.205,1207.64)">
                <rect x="883.88" y="-263.77" width="50" height="50" style="fill:rgb(108,93,83);stroke:rgb(143,143,143);stroke-width:2px;"/>
            </g>
            <g id="rect27-9-8-6" transform="matrix(1,0,0,1,635.205,1207.64)">
                <rect x="933.88" y="-263.77" width="50" height="50" style="fill:rgb(108,93,83);stroke:rgb(143,143,143);stroke-width:2px;"/>
            </g>
            <g id="rect29-5-9-9" transform="matrix(1,0,0,1,635.205,1207.64)">
                <rect x="983.88" y="-263.77" width="50" height="50" style="fill:rgb(108,93,83);stroke:rgb(143,143,143);stroke-width:2px;"/>
            </g>
            <g id="rect31-1-9-7" transform="matrix(1,0,0,1,635.205,1207.64)">
                <rect x="1033.88" y="-263.77" width="50" height="50" style="fill:rgb(108,93,83);stroke:rgb(143,143,143);stroke-width:2px;"/>
            </g>
            <g id="rect33-8-1-3" transform="matrix(1,0,0,1,635.205,1207.64)">
                <rect x="833.88" y="-213.77" width="50" height="50" style="fill:rgb(249,235,227);stroke:rgb(143,143,143);stroke-width:2px;"/>
            </g>
            <g id="rect35-5-8-4" transform="matrix(1,0,0,1,635.205,1207.64)">
                <rect x="883.88" y="-213.77" width="50" height="50" style="fill:rgb(249,235,227);stroke:rgb(143,143,143);stroke-width:2px;"/>
            </g>
            <g id="rect37-8-6-5" transform="matrix(1,0,0,1,635.205,1207.64)">
                <rect x="933.88" y="-213.77" width="50" height="50" style="fill:rgb(249,235,227);stroke:rgb(143,143,143);stroke-width:2px;"/>
            </g>
            <g id="rect39-5-6-2" transform="matrix(1,0,0,1,635.205,1207.64)">
                <rect x="983.88" y="-213.77" width="50" height="50" style="fill:rgb(249,235,227);stroke:rgb(143,143,143);stroke-width:2px;"/>
            </g>
            <g id="rect41-6-8-9" transform="matrix(1,0,0,1,635.205,1207.64)">
                <rect x="1033.88" y="-213.77" width="50" height="50" style="fill:rgb(108,93,83);stroke:rgb(143,143,143);stroke-width:2px;"/>
            </g>
            <g id="rect43-9-9-2" transform="matrix(1,0,0,1,635.205,1207.64)">
                <rect x="833.88" y="-163.77" width="50" height="50" style="fill:rgb(249,235,227);stroke:rgb(143,143,143);stroke-width:2px;"/>
            </g>
            <g id="rect45-6-2-8" transform="matrix(1,0,0,1,635.205,1207.64)">
                <rect x="883.88" y="-163.77" width="50" height="50" style="fill:rgb(249,235,227);stroke:rgb(143,143,143);stroke-width:2px;"/>
            </g>
            <g id="rect47-5-4-9" transform="matrix(1,0,0,1,635.205,1207.64)">
                <rect x="933.88" y="-163.77" width="50" height="50" style="fill:rgb(108,93,83);stroke:rgb(143,143,143);stroke-width:2px;"/>
            </g>
            <g id="rect49-9-2-5" transform="matrix(1,0,0,1,635.205,1207.64)">
                <rect x="983.88" y="-163.77" width="50" height="50" style="fill:rgb(108,93,83);stroke:rgb(143,143,143);stroke-width:2px;"/>
            </g>
            <g id="rect51-3-7-8" transform="matrix(1,0,0,1,635.205,1207.64)">
                <rect x="1033.88" y="-163.77" width="50" height="50" style="fill:rgb(108,93,83);stroke:rgb(143,143,143);stroke-width:2px;"/>
            </g>
            <g id="rect53-2-0-7" transform="matrix(1,0,0,1,635.205,1207.64)">
                <rect x="833.88" y="-113.769" width="50" height="50" style="fill:rgb(249,235,227);stroke:rgb(143,143,143);stroke-width:2px;"/>
            </g>
            <g id="rect55-7-9-8" transform="matrix(1,0,0,1,635.205,1207.64)">
                <rect x="883.88" y="-113.769" width="50" height="50" style="fill:rgb(249,235,227);stroke:rgb(143,143,143);stroke-width:2px;"/>
            </g>
            <g id="rect57-7-0-8" transform="matrix(1,0,0,1,635.205,1207.64)">
                <rect x="933.88" y="-113.769" width="50" height="50" style="fill:rgb(108,93,83);stroke:rgb(143,143,143);stroke-width:2px;"/>
            </g>
            <g id="rect59-6-7-5" transform="matrix(1,0,0,1,635.205,1207.64)">
                <rect x="983.88" y="-113.769" width="50" height="50" style="fill:rgb(249,235,227);stroke:rgb(143,143,143);stroke-width:2px;"/>
            </g>
            <g id="rect61-2-8-3" transform="matrix(1,0,0,1,635.205,1207.64)">
                <rect x="1033.88" y="-113.769" width="50" height="50" style="fill:rgb(249,235,227);stroke:rgb(143,143,143);stroke-width:2px;"/>
            </g>
            <g transform="matrix(1,0,0,1,-33.3049,2.93867)">
                <path d="M1626.19,1128.93C1628.29,1128.24 1626.62,1081.36 1631.4,1078.97C1640.29,1074.53 1682.23,1074.61 1692.96,1077.29C1699.48,1078.92 1724.56,1089.31 1730.99,1058.43C1734.02,1043.91 1729.58,966.866 1719.09,940.212C1717.47,936.088 1721.74,906.039 1734.17,918.48C1739.9,924.209 1740.05,941.866 1740.05,950.579C1740.05,968.285 1749.07,1046.59 1743.26,1058.2C1739.79,1065.15 1717.64,1063.37 1710.56,1059.83C1704.52,1056.81 1709.35,1044.94 1709.35,1039.61C1709.35,1025.62 1717.55,975.36 1708.74,966.543C1705.45,963.259 1682.71,966.959 1678.65,967.771C1651.29,973.242 1554.78,965.949 1526.36,965.949" style="fill-opacity:0;stroke:black;stroke-width:6.71px;stroke-linecap:round;stroke-linejoin:round;stroke-miterlimit:1.5;"/>
            </g>
            <g id="g3787-3-0-4" transform="matrix(0.184519,0,0,0.184519,1463.05,937.01)">
                <path id="path2-1-0-8-4" d="M1258.35,623.999L1277.62,608.626C1280.11,606.643 1283.64,606.68 1286.1,608.715L1339.42,655.864C1341.52,657.614 1342.35,660.465 1341.51,663.07L1333.2,688.961L1340.99,695.432L1304.84,825.447L1187.85,825.447L1151.7,695.432L1246.15,613.87L1258.35,623.999ZM1268.88,632.754L1322.08,679.72L1327.36,663.279L1281.7,622.522L1268.88,632.754Z" style="fill:rgb(95,133,65);"/>
                <g id="g6-1-3-4" transform="matrix(0.906508,0,0,0.906508,116.213,69.7515)">
                    <path id="path4-8-3-6" d="M1298.75,816.664L1340.99,695.432L1304.84,825.733L1187.85,825.733L1185.28,816.664L1298.75,816.664Z" style="fill:rgb(111,150,78);"/>
                </g>
                <g id="g116-5-0-1" transform="matrix(-1.72911,-0.421926,-0.421926,1.72911,3485.66,928.413)">
                    <path id="path114-9-1-7" d="M1284.84,143.933L1279.03,147.855L1288.94,161.812L1294.54,157.644L1295.31,158.728C1295.82,159.571 1296.42,159.922 1297.28,159.184L1299.32,157.684C1300.61,156.707 1300.36,156.13 1299.48,155.12L1289.06,139.959C1288.1,138.347 1287.26,138.146 1286.17,139.165L1283.95,140.945C1283.24,141.543 1283.54,142.173 1284.16,142.977L1284.84,143.933Z"/>
                </g>
                <rect id="rect142-5-8-8" x="1210.88" y="719.732" width="0.38" height="0.149" style="fill:rgb(255,203,30);"/>
                <g transform="matrix(8.16672,0,0,8.16672,1192.12,795.423)">
                    <g id="g162-0-3-8">
                        <text id="text160-0-2-2" x="0px" y="0px" style="font-family:'ArialMT', 'Arial', sans-serif;font-size:24px;fill:white;">0</text>
                    </g>
                </g>
            </g>
            <g id="g3428-5-0-5-9" transform="matrix(0.184231,0,0,0.184231,1217.6,836.291)">
                <g id="g10-5-1-2-1" transform="matrix(1,0,0,1,-32.5679,5.68864)">
                    <path id="path8-6-5-1-0-2" d="M1620.49,682.482C1620.49,639.569 1585.65,604.729 1542.73,604.729L1522.3,604.729C1479.38,604.729 1444.54,639.569 1444.54,682.482L1444.54,745.604C1444.54,788.517 1479.38,823.357 1522.3,823.357L1542.73,823.357C1585.65,823.357 1620.49,788.517 1620.49,745.604L1620.49,682.482ZM1573.72,627.73C1573.72,621.275 1568.48,616.035 1562.03,616.035L1505.49,616.035C1499.04,616.035 1493.8,621.275 1493.8,627.73C1493.8,634.184 1499.04,639.424 1505.49,639.424L1562.03,639.424C1568.48,639.424 1573.72,634.184 1573.72,627.73Z" style="fill:rgb(75,20,161);"/>
                </g>
                <g id="g14-5-5-6-2" transform="matrix(0.946184,0,0,0.946184,46.7275,37.3757)">
                    <path id="path12-8-3-8-8" d="M1582.46,621.334C1595.63,635.263 1603.7,654.054 1603.7,674.717L1603.7,737.839C1603.7,780.752 1568.87,815.592 1525.95,815.592L1505.51,815.592C1491.01,815.592 1477.42,811.61 1465.79,804.676C1479.96,819.679 1500.05,829.046 1522.3,829.046L1542.73,829.046C1585.65,829.046 1620.49,794.206 1620.49,751.293L1620.49,688.17C1620.49,659.766 1605.22,634.899 1582.46,621.334Z" style="fill:rgb(118,77,183);"/>
                </g>
                <g id="g112-1-1-3-5" transform="matrix(-1.77985,0,0,1.77985,3717.17,365.809)">
                    <path id="path110-0-2-9-75" d="M1284.77,145.347L1279.09,149.449L1289.43,163.09L1294.9,158.749L1295.7,159.808C1296.24,160.635 1296.85,160.967 1297.68,160.203L1299.67,158.64C1300.93,157.623 1300.67,157.054 1299.75,156.072L1288.87,141.243C1287.86,139.662 1287.01,139.488 1285.95,140.54L1283.79,142.389C1283.1,143.008 1283.42,143.629 1284.06,144.413L1284.77,145.347Z"/>
                </g>
                <g transform="matrix(8.16672,0,0,8.16672,1445.3,804.752)">
                    <g id="g158-2-4-6-9">
                        <text id="text156-8-6-2-6" x="0px" y="0px" style="font-family:'ArialMT', 'Arial', sans-serif;font-size:24px;fill:white;">0</text>
                    </g>
                </g>
            </g>
            <g id="g3579-4-5-8" transform="matrix(0.184846,0,0,0.184846,1410.26,854.13)">
                <g id="g108-3-6-9" transform="matrix(-1.77985,0,0,1.77985,3785.17,17.4404)">
                    <path id="path106-6-2-5" d="M1284.77,145.347L1279.09,149.449L1289.43,163.09L1294.9,158.749L1295.7,159.808C1296.24,160.635 1296.85,160.967 1297.68,160.203L1299.67,158.64C1300.93,157.623 1300.67,157.054 1299.75,156.072L1288.87,141.243C1287.86,139.662 1287.01,139.488 1285.95,140.54L1283.79,142.389C1283.1,143.008 1283.42,143.629 1284.06,144.413L1284.77,145.347Z"/>
                </g>
                <g id="g128-2-2-0" transform="matrix(-1.77985,0,0,1.77985,3784.55,14.2745)">
                    <path id="path126-5-1-5" d="M1247.56,124.67C1257.65,124.67 1266.05,132.015 1267.69,141.65L1271.83,141.655L1297.02,174.92L1297.02,237.208C1297.02,242.665 1292.59,247.096 1287.13,247.096L1215.74,247.096C1210.28,247.096 1205.85,242.665 1205.85,237.208L1205.85,134.558C1205.85,129.101 1210.28,124.67 1215.74,124.67L1247.56,124.67ZM1229.13,129.548L1247.56,129.548C1254.95,129.548 1261.14,134.721 1262.72,141.644L1228.94,141.6L1229.13,129.548Z" style="fill:rgb(143,0,7);"/>
                </g>
                <g id="g132-5-8-2" transform="matrix(-1.77985,0,0,1.77985,3784.55,14.2745)">
                    <path id="path130-9-1-2" d="M1247.56,124.67C1257.65,124.67 1266.05,132.015 1267.69,141.65L1271.83,141.655L1297.02,174.92L1297.02,237.208C1297.02,242.665 1292.59,247.096 1287.13,247.096L1215.74,247.096C1210.28,247.096 1205.85,242.665 1205.85,237.208L1205.85,134.558C1205.85,129.101 1210.28,124.67 1215.74,124.67L1247.56,124.67ZM1229.13,129.548L1247.56,129.548C1254.95,129.548 1261.14,134.721 1262.72,141.644L1228.94,141.6L1229.13,129.548Z" style="fill:rgb(255,127,42);"/>
                </g>
                <g id="g136-4-8-4" transform="matrix(0.926597,0,0,0.926597,113.558,24.9301)">
                    <path id="path134-8-9-0-9" d="M1626.2,237.038C1627.23,239.275 1627.8,241.766 1627.8,244.391L1627.8,427.091C1627.8,436.804 1619.92,444.69 1610.2,444.69L1483.14,444.69C1481.23,444.69 1479.39,444.385 1477.67,443.821C1480.46,449.867 1486.57,454.068 1493.66,454.068L1620.72,454.068C1630.44,454.068 1638.32,446.181 1638.32,436.468L1638.32,253.768C1638.32,245.964 1633.23,239.34 1626.2,237.038Z" style="fill:rgb(255,172,117);"/>
                </g>
                <g transform="matrix(8.16672,0,0,8.16672,1502.54,421.172)">
                    <g id="g150-1-4-5">
                        <text id="text148-9-6-6" x="0px" y="0px" style="font-family:'ArialMT', 'Arial', sans-serif;font-size:24px;">0</text>
                    </g>
                </g>
            </g>
        </g>
    </g>
</svg>
