<?xml version="1.0" encoding="UTF-8" standalone="no"?>
<!-- Created with Inkscape (http://www.inkscape.org/) -->

<svg
   width="9.2824545mm"
   height="11.477313mm"
   viewBox="0 0 9.2824549 11.477313"
   version="1.1"
   id="svg1052"
   sodipodi:docname="2023-DE-08-basisstation.svg"
   inkscape:version="1.1.1 (3bf5ae0d25, 2021-09-20)"
   xmlns:inkscape="http://www.inkscape.org/namespaces/inkscape"
   xmlns:sodipodi="http://sodipodi.sourceforge.net/DTD/sodipodi-0.dtd"
   xmlns="http://www.w3.org/2000/svg"
   xmlns:svg="http://www.w3.org/2000/svg">
  <sodipodi:namedview
     id="namedview1054"
     pagecolor="#ffffff"
     bordercolor="#666666"
     borderopacity="1.0"
     inkscape:pageshadow="2"
     inkscape:pageopacity="0.0"
     inkscape:pagecheckerboard="0"
     inkscape:document-units="mm"
     showgrid="false"
     inkscape:zoom="5.1241863"
     inkscape:cx="39.713622"
     inkscape:cy="29.56567"
     inkscape:window-width="2048"
     inkscape:window-height="1017"
     inkscape:window-x="-8"
     inkscape:window-y="-8"
     inkscape:window-maximized="1"
     inkscape:current-layer="layer1" />
  <defs
     id="defs1049" />
  <g
     inkscape:label="Ebene 1"
     inkscape:groupmode="layer"
     id="layer1"
     transform="translate(-129.19465,-121.07498)">
    <g
       id="g1037"
       transform="matrix(0.26458333,0,0,0.26458333,127.33562,107.16578)">
      <g
         transform="matrix(0.0748264,0,0,0.0748264,-36.278619,7.1107664)"
         id="g204"
         style="clip-rule:evenodd;fill-rule:evenodd;stroke-linecap:round;stroke-linejoin:round;stroke-miterlimit:1.5">
        <path
           d="m 866.276,639.403 c 7.669,10.876 12.064,21.862 12.293,33.063 0.221,10.806 -3.471,21.755 -11.564,32.945 -1.422,1.972 -0.976,4.727 0.996,6.149 1.971,1.422 4.727,0.976 6.149,-0.995 9.35,-12.996 13.421,-25.761 13.135,-38.288 -0.292,-12.811 -5.162,-25.434 -13.964,-37.854 -1.374,-1.944 -4.068,-2.407 -6.012,-1.033 -1.944,1.374 -2.407,4.068 -1.033,6.013 z"
           id="path202" />
      </g>
      <g
         transform="matrix(-0.0748264,0,0,0.0748264,85.508817,7.1107664)"
         id="g208"
         style="clip-rule:evenodd;fill-rule:evenodd;stroke-linecap:round;stroke-linejoin:round;stroke-miterlimit:1.5">
        <path
           d="m 873.331,634.437 c 8.853,12.6 14.138,25.226 14.695,37.869 0.56,12.727 -3.601,25.545 -14.025,38.453 -1.53,1.89 -4.305,2.182 -6.195,0.652 -1.889,-1.529 -2.181,-4.305 -0.652,-6.194 8.872,-10.934 12.612,-21.736 12.162,-32.538 -0.464,-11.13 -5.283,-22.181 -13.05,-33.29 -1.366,-1.95 -0.893,-4.642 1.057,-6.009 1.95,-1.366 4.642,-0.893 6.008,1.057 z"
           id="path206" />
      </g>
      <g
         transform="matrix(0.09616399,0,0,0.1276032,-52.796469,-28.379165)"
         id="g212"
         style="clip-rule:evenodd;fill-rule:evenodd;stroke-linecap:round;stroke-linejoin:round;stroke-miterlimit:1.5">
        <path
           d="m 866.951,638.252 c 9.349,11.309 14.737,22.705 15.074,34.237 0.329,11.235 -4.16,22.577 -14.303,34.07 -1.046,1.188 -0.616,2.792 0.96,3.581 1.575,0.788 3.704,0.464 4.751,-0.723 10.992,-12.495 15.754,-24.841 15.374,-37.044 -0.385,-12.391 -6.092,-24.657 -16.16,-36.799 -0.981,-1.185 -3.053,-1.546 -4.625,-0.807 -1.572,0.739 -2.051,2.3 -1.071,3.485 z"
           id="path210" />
      </g>
      <g
         transform="matrix(-0.09616399,0,0,0.1276032,102.02657,-28.379165)"
         id="g216"
         style="clip-rule:evenodd;fill-rule:evenodd;stroke-linecap:round;stroke-linejoin:round;stroke-miterlimit:1.5">
        <path
           d="m 872.647,635.574 c 10.068,12.142 15.775,24.408 16.16,36.799 0.38,12.203 -4.382,24.549 -15.374,37.044 -1.047,1.187 -3.176,1.511 -4.751,0.723 -1.576,-0.789 -2.006,-2.393 -0.96,-3.581 10.143,-11.493 14.632,-22.835 14.303,-34.07 -0.337,-11.532 -5.725,-22.928 -15.074,-34.237 -0.98,-1.185 -0.501,-2.746 1.071,-3.485 1.572,-0.739 3.644,-0.378 4.625,0.807 z"
           id="path214" />
      </g>
      <path
         d="m 14.879308,92.719695 2.201212,-8.736677 c 0.0076,-0.05621 0.02148,-0.110262 0.04094,-0.162871 l 6.09506,-24.191076 c -0.767082,-0.447032 -1.281279,-1.265928 -1.281279,-2.201286 0,-1.413449 1.174331,-2.561044 2.620787,-2.561044 1.446383,0 2.620715,1.147595 2.620715,2.561044 0,0.935069 -0.513837,1.75375 -1.280342,2.200781 l 8.35357,33.096894 2.062628,7.21e-4 c 0.42469,0 0.769027,0.337274 0.769027,0.7531 l -5.77e-4,1.70078 c 0,0.424474 -0.344048,0.768954 -0.76845,0.768954 l -23.497288,-0.0073 c -0.420366,0 -0.761099,-0.340877 -0.761099,-0.761747 l 5.05e-4,-1.700781 c 0,-0.42015 0.340516,-0.760306 0.760594,-0.760306 z m 17.785116,0.0057 -1.870498,-7.424338 -4.838576,3.110409 6.699417,4.313929 z m -13.412454,-0.0043 10.613301,0.0029 -5.309245,-3.413092 z m -2.818611,-0.0014 h 0.03178 l 6.691488,-4.308163 -4.849097,-3.116896 z m 2.748418,-8.669655 5.374249,3.460655 5.377492,-3.462817 -5.356016,-3.891832 z m -0.105939,-1.799512 4.203017,-3.038127 -2.903649,-2.110048 z m 6.803409,-3.033946 4.140968,3.013768 -1.279621,-5.078848 z m -4.811694,-3.501878 3.513048,2.556791 3.494022,-2.525514 -3.550018,-4.949775 z m 4.392193,-6.248999 2.074087,2.8963 -1.084464,-4.304272 z m -3.876266,2.849385 1.993373,-2.840448 -0.944222,-1.316447 z m 1.531567,-6.068327 c 0.05772,0.04461 1.396946,1.895433 1.396946,1.895433 0,0 1.368407,-1.902711 1.465554,-1.957266 l -1.42217,-5.644573 z"
         id="path222"
         style="clip-rule:evenodd;fill-rule:evenodd;stroke-width:0.0720669;stroke-linecap:round;stroke-linejoin:round;stroke-miterlimit:1.5" />
    </g>
  </g>
</svg>
