<?xml version="1.0" encoding="UTF-8" standalone="no"?>
<!-- Created with Inkscape (http://www.inkscape.org/) -->

<svg
   width="11.680943mm"
   height="15.01194mm"
   viewBox="0 0 11.680943 15.01194"
   version="1.1"
   id="svg928"
   inkscape:version="1.1.1 (3bf5ae0d25, 2021-09-20)"
   sodipodi:docname="2023-DE-08a-zerobot_9.svg"
   xmlns:inkscape="http://www.inkscape.org/namespaces/inkscape"
   xmlns:sodipodi="http://sodipodi.sourceforge.net/DTD/sodipodi-0.dtd"
   xmlns="http://www.w3.org/2000/svg"
   xmlns:svg="http://www.w3.org/2000/svg">
  <sodipodi:namedview
     id="namedview930"
     pagecolor="#ffffff"
     bordercolor="#666666"
     borderopacity="1.0"
     inkscape:pageshadow="2"
     inkscape:pageopacity="0.0"
     inkscape:pagecheckerboard="0"
     inkscape:document-units="mm"
     showgrid="false"
     inkscape:zoom="0.64052329"
     inkscape:cx="113.1887"
     inkscape:cy="122.55604"
     inkscape:window-width="2048"
     inkscape:window-height="1017"
     inkscape:window-x="-8"
     inkscape:window-y="-8"
     inkscape:window-maximized="1"
     inkscape:current-layer="layer1" />
  <defs
     id="defs925" />
  <g
     inkscape:label="Ebene 1"
     inkscape:groupmode="layer"
     id="layer1"
     transform="translate(-75.121976,-116.00307)">
    <g
       transform="matrix(0.26458333,0,0,0.26458333,47.907752,63.720758)"
       id="g83" />
    <path
       id="path46"
       style="clip-rule:evenodd;fill:#000000;fill-rule:evenodd;stroke:none;stroke-width:0.0433216px;stroke-linecap:round;stroke-linejoin:round;stroke-miterlimit:1.5"
       d="m 76.381818,128.64446 c -0.361552,0 -0.678872,0.14747 -0.895113,0.36371 -0.21624,0.21623 -0.343022,0.50499 -0.343022,0.82161 0,0.3166 0.126782,0.60528 0.343022,0.82152 0.216241,0.21623 0.533561,0.36371 0.895113,0.36371 h 8.798949 c 0.361568,0 0.678878,-0.14748 0.895113,-0.36371 0.216239,-0.21624 0.343022,-0.50492 0.343022,-0.82152 0,-0.31662 -0.126783,-0.60537 -0.343022,-0.82161 -0.216235,-0.21624 -0.533545,-0.36371 -0.895113,-0.36371 z m 0,0.23357 h 0.963955 v 0.26044 a 0.14553063,0.14553063 0 0 0 0.145483,0.14557 0.14553063,0.14553063 0 0 0 0.145484,-0.14557 v -0.26044 h 1.706293 v 0.27359 a 0.14553063,0.14553063 0 0 0 0.145483,0.14548 0.14553063,0.14553063 0 0 0 0.145569,-0.14548 v -0.27359 h 1.913073 v 0.27359 a 0.14553063,0.14553063 0 0 0 0.145568,0.14548 0.14553063,0.14553063 0 0 0 0.145483,-0.14548 v -0.27359 h 1.97047 v 0.27359 a 0.14631691,0.14480659 0 0 0 0.146246,0.1448 0.14631691,0.14480659 0 0 0 0.146331,-0.1448 v -0.27359 h 1.079511 c 0.228188,0 0.445094,0.092 0.615676,0.26256 0.170583,0.17059 0.283167,0.41607 0.283167,0.68919 0,0.2731 -0.112584,0.51859 -0.283167,0.68918 -0.170579,0.17058 -0.387488,0.26256 -0.615676,0.26256 h -1.079511 v -0.33802 a 0.14631691,0.14480659 0 0 0 -0.146331,-0.1448 0.14631691,0.14480659 0 0 0 -0.146246,0.1448 v 0.33802 h -1.97047 v -0.33802 a 0.14553063,0.14553063 0 0 0 -0.145483,-0.14557 0.14553063,0.14553063 0 0 0 -0.145568,0.14557 v 0.33802 h -1.913073 v -0.33802 a 0.14553063,0.14553063 0 0 0 -0.145569,-0.14557 0.14553063,0.14553063 0 0 0 -0.145483,0.14557 v 0.33802 h -1.687387 v -0.33802 a 0.14553063,0.14553063 0 0 0 -0.145568,-0.14557 0.14553063,0.14553063 0 0 0 -0.145484,0.14557 v 0.33802 h -0.982776 c -0.228166,0 -0.445089,-0.092 -0.615676,-0.26256 -0.170587,-0.17059 -0.283252,-0.41608 -0.283252,-0.68918 0,-0.27312 0.112665,-0.5186 0.283252,-0.68919 0.170587,-0.17058 0.38751,-0.26256 0.615676,-0.26256 z m 0.09792,0.20678 c -0.408143,0 -0.739456,0.3314 -0.739456,0.73954 0,0.4081 0.331313,0.73946 0.739456,0.73946 0.408142,0 0.73954,-0.33136 0.73954,-0.73946 0,-0.40814 -0.331398,-0.73954 -0.73954,-0.73954 z m 1.993021,0 c -0.408143,0 -0.739456,0.3314 -0.739456,0.73954 0,0.4081 0.331313,0.73946 0.739456,0.73946 0.408142,0 0.739456,-0.33136 0.739456,-0.73946 0,-0.40814 -0.331314,-0.73954 -0.739456,-0.73954 z m 2.148508,0 c -0.408142,0 -0.739541,0.3314 -0.739541,0.73954 0,0.4081 0.331399,0.73946 0.739541,0.73946 0.408143,0 0.739456,-0.33136 0.739456,-0.73946 0,-0.40814 -0.331313,-0.73954 -0.739456,-0.73954 z m 2.196325,0 c -0.408142,0 -0.739456,0.3314 -0.739456,0.73954 0,0.4081 0.331314,0.73946 0.739456,0.73946 0.408143,0 0.739541,-0.33136 0.739541,-0.73946 0,-0.40814 -0.331398,-0.73954 -0.739541,-0.73954 z m 2.148339,0 c -0.408142,0 -0.739541,0.3314 -0.739541,0.73954 0,0.4081 0.331399,0.73946 0.739541,0.73946 0.408142,0 0.739456,-0.33136 0.739456,-0.73946 0,-0.40814 -0.331314,-0.73954 -0.739456,-0.73954 z m -8.486193,0.36973 c 0.204071,0 0.369728,0.16574 0.369728,0.36981 0,0.20407 -0.165657,0.36973 -0.369728,0.36973 -0.204072,0 -0.369728,-0.16566 -0.369728,-0.36973 0,-0.20407 0.165656,-0.36981 0.369728,-0.36981 z m 1.993021,0 c 0.204071,0 0.369728,0.16574 0.369728,0.36981 0,0.20407 -0.165657,0.36973 -0.369728,0.36973 -0.204072,0 -0.369728,-0.16566 -0.369728,-0.36973 0,-0.20407 0.165656,-0.36981 0.369728,-0.36981 z m 2.148508,0 c 0.204072,0 0.369728,0.16574 0.369728,0.36981 0,0.20407 -0.165656,0.36973 -0.369728,0.36973 -0.204071,0 -0.369728,-0.16566 -0.369728,-0.36973 0,-0.20407 0.165657,-0.36981 0.369728,-0.36981 z m 2.196325,0 c 0.204071,0 0.369728,0.16574 0.369728,0.36981 0,0.20407 -0.165657,0.36973 -0.369728,0.36973 -0.204071,0 -0.369728,-0.16566 -0.369728,-0.36973 0,-0.20407 0.165657,-0.36981 0.369728,-0.36981 z m 2.148339,0 c 0.204071,0 0.369728,0.16574 0.369728,0.36981 0,0.20407 -0.165657,0.36973 -0.369728,0.36973 -0.204071,0 -0.369728,-0.16566 -0.369728,-0.36973 0,-0.20407 0.165657,-0.36981 0.369728,-0.36981 z" />
    <path
       d="m 75.478275,116.58598 c 1.868575,-0.43042 3.445677,0.049 4.679741,1.60094 l -1.390614,1.8211 c -0.643755,-1.38881 -1.593806,-1.5375 -2.933409,-1.43444 z"
       style="clip-rule:evenodd;fill:#b1c8cd;fill-rule:evenodd;stroke-width:0.0434075;stroke-linecap:round;stroke-linejoin:round;stroke-miterlimit:1.5"
       id="path16" />
    <path
       d="m 77.525554,116.22834 -0.607687,2.58492"
       style="clip-rule:evenodd;fill:none;fill-rule:evenodd;stroke:#000000;stroke-width:0.213892px;stroke-linecap:round;stroke-linejoin:round;stroke-miterlimit:1.5"
       id="path18-2" />
    <path
       d="m 78.069667,116.35725 -0.783926,2.4561"
       style="clip-rule:evenodd;fill:none;fill-rule:evenodd;stroke:#000000;stroke-width:0.214563px;stroke-linecap:round;stroke-linejoin:round;stroke-miterlimit:1.5"
       id="path22" />
    <path
       d="m 78.743331,116.66935 -1.137305,2.30482"
       style="clip-rule:evenodd;fill:none;fill-rule:evenodd;stroke:#000000;stroke-width:0.21661px;stroke-linecap:round;stroke-linejoin:round;stroke-miterlimit:1.5"
       id="path26"
       sodipodi:nodetypes="cc" />
    <path
       d="m 79.756945,117.19549 -1.539667,2.23753"
       style="clip-rule:evenodd;fill:none;fill-rule:evenodd;stroke:#000000;stroke-width:0.220763px;stroke-linecap:round;stroke-linejoin:round;stroke-miterlimit:1.5"
       id="path34" />
    <path
       d="m 80.277375,117.64735 -1.892819,2.18497"
       style="clip-rule:evenodd;fill:none;fill-rule:evenodd;stroke:#000000;stroke-width:0.222869px;stroke-linecap:round;stroke-linejoin:round;stroke-miterlimit:1.5"
       id="path38" />
    <path
       d="m 75.121976,116.12548 v 12.28836 h 11.127335 v -1.23017 H 77.05739 l -0.03498,-7.41113 0.933045,-3.76947 z"
       style="font-variation-settings:normal;clip-rule:evenodd;vector-effect:none;fill:#3771c8;fill-opacity:1;fill-rule:evenodd;stroke-width:0.025629;stroke-linecap:butt;stroke-linejoin:miter;stroke-miterlimit:2;stroke-dasharray:none;stroke-dashoffset:0;stroke-opacity:1;-inkscape-stroke:none;stop-color:#000000"
       id="path44"
       sodipodi:nodetypes="cccccccc" />
    <path
       d="m 86.802919,120.6395 c 0,-2.09177 -1.698254,-3.79003 -3.790363,-3.79003 h -0.995848 c -2.092109,0 -3.790363,1.69826 -3.790363,3.79003 v 3.07684 c 0,2.09177 1.698254,3.79002 3.790363,3.79002 h 0.995848 c 2.092109,0 3.790363,-1.69825 3.790363,-3.79002 z m -2.279774,-2.66886 c 0,-0.31464 -0.255421,-0.57006 -0.569822,-0.57006 h -2.756008 c -0.314401,0 -0.569822,0.25542 -0.569822,0.57006 0,0.3146 0.255421,0.57002 0.569822,0.57002 h 2.756008 c 0.314401,0 0.569822,-0.25542 0.569822,-0.57002 z"
       style="clip-rule:evenodd;fill:#4b14a1;fill-rule:evenodd;stroke-width:0.0487445;stroke-linecap:round;stroke-linejoin:round;stroke-miterlimit:1.5"
       id="path8-6" />
    <path
       d="m 84.663223,117.57354 c 0.607416,0.64242 0.979614,1.50908 0.979614,2.46209 v 2.91126 c 0,1.97919 -1.6064,3.58605 -3.58592,3.58605 H 81.1142 c -0.668757,0 -1.295543,-0.18365 -1.831932,-0.50345 0.653537,0.69195 1.580111,1.12397 2.606307,1.12397 h 0.942255 c 1.97952,0 3.586381,-1.60686 3.586381,-3.58606 v -2.91131 c 0,-1.31002 -0.70427,-2.45692 -1.753988,-3.08255 z"
       style="clip-rule:evenodd;fill:#764db7;fill-rule:evenodd;stroke-width:0.0461211;stroke-linecap:round;stroke-linejoin:round;stroke-miterlimit:1.5"
       id="path12" />
    <path
       d="m 79.128218,117.53615 0.492784,0.35588 -0.897074,1.18346 -0.474565,-0.37662 -0.06941,0.0919 c -0.04685,0.0717 -0.09977,0.10055 -0.17178,0.0343 l -0.172648,-0.1356 c -0.109315,-0.0882 -0.08676,-0.1376 -0.0069,-0.2228 l 0.943924,-1.28653 c 0.08762,-0.13716 0.161369,-0.15226 0.253333,-0.061 l 0.187396,0.16042 c 0.05986,0.0537 0.0321,0.10758 -0.02342,0.1756 z"
       id="path110"
       style="clip-rule:evenodd;fill-rule:evenodd;stroke-width:0.0867577;stroke-linecap:round;stroke-linejoin:round;stroke-miterlimit:1.5" />
    <text
       x="79.850685"
       y="126.32219"
       style="font-size:9.55397px;font-family:ArialMT, Arial, sans-serif;clip-rule:evenodd;fill:#ffffff;fill-rule:evenodd;stroke-width:0.398081;stroke-linecap:round;stroke-linejoin:round;stroke-miterlimit:1.5"
       id="text156">9</text>
  </g>
</svg>
