<?xml version="1.0" encoding="UTF-8" standalone="no"?>
<!-- Created with Inkscape (http://www.inkscape.org/) -->

<svg
   width="9.2824545mm"
   height="11.477313mm"
   viewBox="0 0 9.2824549 11.477313"
   version="1.1"
   id="svg1052"
   sodipodi:docname="2023-DE-08a-tank_compatible.svg"
   inkscape:version="1.1.1 (3bf5ae0d25, 2021-09-20)"
   xmlns:inkscape="http://www.inkscape.org/namespaces/inkscape"
   xmlns:sodipodi="http://sodipodi.sourceforge.net/DTD/sodipodi-0.dtd"
   xmlns="http://www.w3.org/2000/svg"
   xmlns:svg="http://www.w3.org/2000/svg">
  <sodipodi:namedview
     id="namedview1054"
     pagecolor="#ffffff"
     bordercolor="#666666"
     borderopacity="1.0"
     inkscape:pageshadow="2"
     inkscape:pageopacity="0.0"
     inkscape:pagecheckerboard="0"
     inkscape:document-units="mm"
     showgrid="false"
     inkscape:zoom="5.1241863"
     inkscape:cx="39.713622"
     inkscape:cy="29.56567"
     inkscape:window-width="2048"
     inkscape:window-height="1017"
     inkscape:window-x="-8"
     inkscape:window-y="-8"
     inkscape:window-maximized="1"
     inkscape:current-layer="layer1" />
  <defs
     id="defs1049" />
  <g
     inkscape:label="Ebene 1"
     inkscape:groupmode="layer"
     id="layer1"
     transform="translate(-129.19465,-121.07498)">
    <path
       d="m 131.86581,122.13398 0.0301,0.64455 -1.57597,0.0372 -8.8e-4,-0.64312 -0.12219,0.003 c -0.0906,0.009 -0.14947,-0.0164 -0.14202,-0.12003 l -10e-4,-0.23304 c 10e-4,-0.14912 0.0569,-0.16301 0.18046,-0.15303 l 1.69255,-0.0664 c 0.17185,-0.0179 0.23314,0.0334 0.21812,0.1701 l -0.009,0.26169 c -0.005,0.0852 -0.0681,0.0978 -0.16133,0.0966 z"
       id="path118"
       style="clip-rule:evenodd;fill-rule:evenodd;stroke-width:0.092096;stroke-linecap:round;stroke-linejoin:round;stroke-miterlimit:1.5" />
    <path
       d="m 134.20486,121.17614 c -0.92925,0 -1.70286,0.67645 -1.8539,1.5638 l -1.79219,2.7e-4 c -0.66494,-0.0319 -0.95412,0.30061 -0.93202,0.93496 l 0.023,2.12881 v 5.73649 c 0,0.50257 0.40798,0.91065 0.91083,0.91065 h 6.57475 c 0.50285,0 0.91083,-0.40808 0.91083,-0.91065 v -9.45368 c 0,-0.50257 -0.40798,-0.91065 -0.91083,-0.91065 z m 1.69733,0.44925 h -1.69733 c -0.68059,0 -1.25067,0.47641 -1.39618,1.11399 l 4.71993,-0.004 c 0.0212,-0.20786 -0.003,-0.52329 -9.2e-4,-0.6723 0.008,-0.54042 -0.64099,-0.51758 -1.6255,-0.43764 z"
       style="clip-rule:evenodd;fill:#ffcb1e;fill-rule:evenodd;stroke-width:0.0920963;stroke-linecap:round;stroke-linejoin:round;stroke-miterlimit:1.5"
       id="path144" />
    <path
       d="m 130.37861,131.01679 2.80783,-3.78339 -2.47604,-3.47636 h 1.14393 l 1.31726,1.86198 q 0.41102,0.5794 0.58434,0.89138 0.24265,-0.39617 0.57444,-0.827 l 1.46086,-1.92636 h 1.04489 l -2.55032,3.42189 2.74841,3.83786 h -1.1885 l -1.82732,-2.58994 q -0.15351,-0.22284 -0.31693,-0.4853 -0.24266,0.39616 -0.34665,0.54473 l -1.82236,2.53051 z"
       id="path849"
       style="font-size:24px;font-family:ArialMT, Arial, sans-serif;clip-rule:evenodd;fill-rule:evenodd;stroke-width:0.422577;stroke-linecap:round;stroke-linejoin:round;stroke-miterlimit:1.5" />
    <path
       id="path144-2"
       style="clip-rule:evenodd;fill:#ddb100;fill-opacity:1;fill-rule:evenodd;stroke-width:0.0838747;stroke-linecap:round;stroke-linejoin:round;stroke-miterlimit:1.5"
       d="m 137.28119,130.74673 c 0,0.4577 -0.37151,0.82938 -0.82947,0.82938 h -5.98786 c -0.13064,0 -0.25416,-0.0303 -0.36411,-0.0841 0.0873,0.36441 0.41476,0.636 0.80599,0.636 h 5.98778 c 0.45795,0 0.82169,-0.37174 0.82955,-0.82938 l 0.14137,-8.226 c -0.45729,1.28823 -0.58325,6.78542 -0.58325,7.67413 z"
       sodipodi:nodetypes="csscssscc" />
  </g>
</svg>
