<?xml version="1.0" encoding="UTF-8" standalone="no"?>
<!DOCTYPE svg PUBLIC "-//W3C//DTD SVG 1.1//EN" "http://www.w3.org/Graphics/SVG/1.1/DTD/svg11.dtd">
<svg width="100%" height="100%" viewBox="0 0 882 740" version="1.1" xmlns="http://www.w3.org/2000/svg" xmlns:xlink="http://www.w3.org/1999/xlink" xml:space="preserve" xmlns:serif="http://www.serif.com/" style="fill-rule:evenodd;clip-rule:evenodd;stroke-linecap:round;stroke-linejoin:round;stroke-miterlimit:1.5;">
    <g transform="matrix(1,0,0,1,-756.525,-89.7109)">
        <path d="M1258.54,626.926L1277.81,611.553C1280.3,609.57 1283.84,609.607 1286.29,611.642L1339.42,655.864C1341.52,657.614 1342.35,660.465 1341.51,663.07L1333.2,688.961L1340.99,695.432L1304.84,822.666L1187.85,822.666L1151.7,695.432L1246.35,616.797L1258.54,626.926ZM1269.07,635.681L1322.08,679.72L1327.36,663.279C1327.36,663.279 1281.9,625.449 1281.9,625.449L1269.07,635.681Z" style="fill:rgb(146,186,114);"/>
        <g transform="matrix(0.906508,0,0,0.906508,116.213,69.7515)">
            <path d="M1298.75,813.597L1340.99,695.432L1304.84,822.666L1187.85,822.666L1185.28,813.597L1298.75,813.597Z" style="fill:rgb(101,137,71);"/>
        </g>
        <g transform="matrix(1,0,0,1,4.54747e-13,5.68864)">
            <path d="M1620.49,682.482C1620.49,639.569 1585.65,604.729 1542.73,604.729L1522.3,604.729C1479.38,604.729 1444.54,639.569 1444.54,682.482L1444.54,745.604C1444.54,788.517 1479.38,823.357 1522.3,823.357L1542.73,823.357C1585.65,823.357 1620.49,788.517 1620.49,745.604L1620.49,682.482ZM1573.72,627.73C1573.72,621.275 1568.48,616.035 1562.03,616.035L1505.49,616.035C1499.04,616.035 1493.8,621.275 1493.8,627.73C1493.8,634.184 1499.04,639.424 1505.49,639.424L1562.03,639.424C1568.48,639.424 1573.72,634.184 1573.72,627.73Z" style="fill:rgb(75,20,161);"/>
        </g>
        <g transform="matrix(0.946184,0,0,0.946184,79.2954,37.3757)">
            <path d="M1582.46,621.334C1595.63,635.263 1603.7,654.054 1603.7,674.717L1603.7,737.839C1603.7,780.752 1568.87,815.592 1525.95,815.592L1505.51,815.592C1491.01,815.592 1477.42,811.61 1465.79,804.676C1479.96,819.679 1500.05,829.046 1522.3,829.046L1542.73,829.046C1585.65,829.046 1620.49,794.206 1620.49,751.293L1620.49,688.17C1620.49,659.766 1605.22,634.899 1582.46,621.334Z" style="fill:rgb(118,77,183);"/>
        </g>
        <g transform="matrix(-0.976403,-0.215958,-0.215958,0.976403,2081.89,245.64)">
            <path d="M1307.71,143.262C1267.82,124.284 1229.96,127.221 1194.48,155.991L1216.7,203.873C1238.09,175.836 1260.2,177.218 1289.82,186.201L1307.71,143.262Z" style="fill:rgb(177,200,205);"/>
            <g transform="matrix(0.961907,-0.286649,0.274215,0.986973,-17.5488,367.101)">
                <path d="M1294.46,130.689L1278.92,188.151" style="fill:none;stroke:black;stroke-width:4.86px;"/>
            </g>
            <g transform="matrix(0.920344,-0.408631,0.391559,0.95476,5.29236,530.22)">
                <path d="M1297.29,131.046L1279.97,185.583" style="fill:none;stroke:black;stroke-width:4.85px;"/>
            </g>
            <g transform="matrix(0.864202,-0.529939,0.504411,0.915663,47.8109,694.828)">
                <path d="M1300.72,131.995L1279.01,185.217" style="fill:none;stroke:black;stroke-width:4.85px;"/>
            </g>
            <g transform="matrix(0.793767,-0.645468,0.611713,0.861813,109.966,855.867)">
                <path d="M1300.72,131.995L1280.47,184.738" style="fill:none;stroke:black;stroke-width:4.85px;"/>
            </g>
            <g transform="matrix(0.709843,-0.753341,0.711717,0.793751,191.184,1010.8)">
                <path d="M1300.72,131.995L1280.15,185.531" style="fill:none;stroke:black;stroke-width:4.85px;"/>
            </g>
            <g transform="matrix(0.613454,-0.851761,0.802755,0.712246,290.588,1157.15)">
                <path d="M1300.72,131.995L1278.92,188.151" style="fill:none;stroke:black;stroke-width:4.85px;"/>
            </g>
        </g>
        <path d="M756.525,92.531L756.525,351.242L1012.87,351.242L1012.87,322.902L801.112,322.902L800.306,176.55L821.801,89.711L756.525,92.531Z" style="fill:rgb(128,128,128);"/>
        <g transform="matrix(0.8832,0,0,0.8832,93.0961,44.8204)">
            <path d="M786.581,364.447C797.227,364.447 805.87,373.09 805.87,383.736C805.87,394.381 797.227,403.024 786.581,403.024C775.935,403.024 767.292,394.381 767.292,383.736C767.292,373.09 775.935,364.447 786.581,364.447ZM786.581,374.091C791.904,374.091 796.225,378.413 796.225,383.736C796.225,389.059 791.904,393.38 786.581,393.38C781.258,393.38 776.937,389.059 776.937,383.736C776.937,378.413 781.258,374.091 786.581,374.091Z" style="stroke:black;stroke-width:1.13px;"/>
        </g>
        <g transform="matrix(0.8832,0,0,0.8832,139.01,44.8204)">
            <path d="M786.581,364.447C797.227,364.447 805.87,373.09 805.87,383.736C805.87,394.381 797.227,403.024 786.581,403.024C775.935,403.024 767.292,394.381 767.292,383.736C767.292,373.09 775.935,364.447 786.581,364.447ZM786.581,374.091C791.904,374.091 796.225,378.413 796.225,383.736C796.225,389.059 791.904,393.38 786.581,393.38C781.258,393.38 776.937,389.059 776.937,383.736C776.937,378.413 781.258,374.091 786.581,374.091Z" style="stroke:black;stroke-width:1.13px;"/>
        </g>
        <g transform="matrix(0.8832,0,0,0.8832,188.506,44.8204)">
            <path d="M786.581,364.447C797.227,364.447 805.87,373.09 805.87,383.736C805.87,394.381 797.227,403.024 786.581,403.024C775.935,403.024 767.292,394.381 767.292,383.736C767.292,373.09 775.935,364.447 786.581,364.447ZM786.581,374.091C791.904,374.091 796.225,378.413 796.225,383.736C796.225,389.059 791.904,393.38 786.581,393.38C781.258,393.38 776.937,389.059 776.937,383.736C776.937,378.413 781.258,374.091 786.581,374.091Z" style="stroke:black;stroke-width:1.13px;"/>
        </g>
        <g transform="matrix(0.8832,0,0,0.8832,239.104,44.8204)">
            <path d="M786.581,364.447C797.227,364.447 805.87,373.09 805.87,383.736C805.87,394.381 797.227,403.024 786.581,403.024C775.935,403.024 767.292,394.381 767.292,383.736C767.292,373.09 775.935,364.447 786.581,364.447ZM786.581,374.091C791.904,374.091 796.225,378.413 796.225,383.736C796.225,389.059 791.904,393.38 786.581,393.38C781.258,393.38 776.937,389.059 776.937,383.736C776.937,378.413 781.258,374.091 786.581,374.091Z" style="stroke:black;stroke-width:1.13px;"/>
        </g>
        <g transform="matrix(0.8832,0,0,0.8832,288.595,44.8204)">
            <path d="M786.581,364.447C797.227,364.447 805.87,373.09 805.87,383.736C805.87,394.381 797.227,403.024 786.581,403.024C775.935,403.024 767.292,394.381 767.292,383.736C767.292,373.09 775.935,364.447 786.581,364.447ZM786.581,374.091C791.904,374.091 796.225,378.413 796.225,383.736C796.225,389.059 791.904,393.38 786.581,393.38C781.258,393.38 776.937,389.059 776.937,383.736C776.937,378.413 781.258,374.091 786.581,374.091Z" style="stroke:black;stroke-width:1.13px;"/>
        </g>
        <g transform="matrix(0.826174,0,0,0.568665,166.867,145.326)">
            <path d="M1024,419.465C1024,395.574 1010.65,376.178 994.205,376.178L748.851,376.178C732.407,376.178 719.056,395.574 719.056,419.465C719.056,443.355 732.407,462.751 748.851,462.751L994.205,462.751C1010.65,462.751 1024,443.355 1024,419.465Z" style="fill:none;stroke:black;stroke-width:9.46px;"/>
        </g>
        <g transform="matrix(0.555906,-0.00511173,-0.00511173,0.261957,345.952,267.451)">
            <path d="M840.687,366.823L841.151,393.524" style="fill:none;stroke:black;stroke-width:15.61px;"/>
        </g>
        <g transform="matrix(0.555995,0,0,0.555995,344.002,155.294)">
            <path d="M840.905,455.369L840.905,440.122" style="fill:none;stroke:black;stroke-width:12.06px;"/>
        </g>
        <g transform="matrix(0.555995,0,0,0.555995,344.002,155.294)">
            <path d="M922.881,366.823L922.881,379.399" style="fill:none;stroke:black;stroke-width:12.06px;"/>
        </g>
        <g transform="matrix(0.555995,0,0,0.555995,394.78,155.294)">
            <path d="M922.881,366.823L922.881,379.399" style="fill:none;stroke:black;stroke-width:12.06px;"/>
        </g>
        <g transform="matrix(0.561794,0,0,0.555995,441.545,155.294)">
            <path d="M922.881,366.823L922.881,379.399" style="fill:none;stroke:black;stroke-width:12px;"/>
        </g>
        <g transform="matrix(0.555995,0,0,0.555995,344.002,155.294)">
            <path d="M922.881,440.122L922.881,455.369" style="fill:none;stroke:black;stroke-width:12.06px;"/>
        </g>
        <g transform="matrix(0.555995,0,0,0.555995,394.78,155.294)">
            <path d="M922.881,440.122L922.881,455.369" style="fill:none;stroke:black;stroke-width:12.06px;"/>
        </g>
        <g transform="matrix(0.561794,0,0,0.555995,441.545,155.294)">
            <path d="M922.881,440.122L922.881,455.369" style="fill:none;stroke:black;stroke-width:12px;"/>
        </g>
        <g transform="matrix(-1.77985,0,0,1.77985,3159.71,-113.725)">
            <path d="M1284.77,145.347L1279.09,149.449L1289.43,163.09L1294.9,158.749L1295.7,159.808C1296.24,160.635 1296.85,160.967 1297.68,160.203L1299.67,158.64C1300.93,157.623 1300.67,157.054 1299.75,156.072L1288.87,141.243C1287.86,139.662 1287.01,139.488 1285.95,140.54L1283.79,142.389C1283.1,143.008 1283.42,143.629 1284.06,144.413L1284.77,145.347Z"/>
        </g>
        <g transform="matrix(-1.77985,0,0,1.77985,3785.17,17.4404)">
            <path d="M1284.77,145.347L1279.09,149.449L1289.43,163.09L1294.9,158.749L1295.7,159.808C1296.24,160.635 1296.85,160.967 1297.68,160.203L1299.67,158.64C1300.93,157.623 1300.67,157.054 1299.75,156.072L1288.87,141.243C1287.86,139.662 1287.01,139.488 1285.95,140.54L1283.79,142.389C1283.1,143.008 1283.42,143.629 1284.06,144.413L1284.77,145.347Z"/>
        </g>
        <g transform="matrix(-1.77985,0,0,1.77985,3749.74,365.809)">
            <path d="M1284.77,145.347L1279.09,149.449L1289.43,163.09L1294.9,158.749L1295.7,159.808C1296.24,160.635 1296.85,160.967 1297.68,160.203L1299.67,158.64C1300.93,157.623 1300.67,157.054 1299.75,156.072L1288.87,141.243C1287.86,139.662 1287.01,139.488 1285.95,140.54L1283.79,142.389C1283.1,143.008 1283.42,143.629 1284.06,144.413L1284.77,145.347Z"/>
        </g>
        <g transform="matrix(-1.72911,-0.421926,-0.421926,1.72911,3485.66,928.413)">
            <path d="M1284.77,145.347L1279.09,149.449L1289.43,163.09L1294.9,158.749L1295.7,159.808C1296.24,160.635 1296.85,160.967 1297.68,160.203L1299.67,158.64C1300.93,157.623 1300.67,157.054 1299.75,156.072L1288.87,141.243C1287.86,139.662 1287.01,139.488 1285.95,140.54L1283.79,142.389C1283.1,143.008 1283.42,143.629 1284.06,144.413L1284.77,145.347Z"/>
        </g>
        <g transform="matrix(-1.10832,-1.39265,-1.39265,1.10832,2914.47,1881.16)">
            <path d="M1284.77,145.347L1279.09,149.449L1289.43,163.09L1294.9,158.749L1295.7,159.808C1296.24,160.635 1296.85,160.967 1297.68,160.203L1299.67,158.64C1300.93,157.623 1300.67,157.054 1299.75,156.072L1288.87,141.243C1287.86,139.662 1287.01,139.488 1285.95,140.54L1283.79,142.389C1283.1,143.008 1283.42,143.629 1284.06,144.413L1284.77,145.347Z"/>
        </g>
        <g transform="matrix(-1.77985,0,0,1.77985,3159.1,-116.891)">
            <path d="M1247.56,124.67C1257.65,124.67 1266.05,132.015 1267.69,141.65L1271.83,141.655L1297.02,174.92L1297.02,237.208C1297.02,242.665 1292.59,247.096 1287.13,247.096L1215.74,247.096C1210.28,247.096 1205.85,242.665 1205.85,237.208L1205.85,134.558C1205.85,129.101 1210.28,124.67 1215.74,124.67L1247.56,124.67ZM1229.13,129.548L1247.56,129.548C1254.95,129.548 1261.14,134.721 1262.72,141.644L1228.94,141.6L1229.13,129.548Z" style="fill:rgb(143,0,7);"/>
        </g>
        <g transform="matrix(-1.77985,0,0,1.77985,3784.55,14.2745)">
            <path d="M1247.56,124.67C1257.65,124.67 1266.05,132.015 1267.69,141.65L1271.83,141.655L1297.02,174.92L1297.02,237.208C1297.02,242.665 1292.59,247.096 1287.13,247.096L1215.74,247.096C1210.28,247.096 1205.85,242.665 1205.85,237.208L1205.85,134.558C1205.85,129.101 1210.28,124.67 1215.74,124.67L1247.56,124.67ZM1229.13,129.548L1247.56,129.548C1254.95,129.548 1261.14,134.721 1262.72,141.644L1228.94,141.6L1229.13,129.548Z" style="fill:rgb(143,0,7);"/>
        </g>
        <g transform="matrix(-1.77985,0,0,1.77985,3784.55,14.2745)">
            <path d="M1247.56,124.67C1257.65,124.67 1266.05,132.015 1267.69,141.65L1271.83,141.655L1297.02,174.92L1297.02,237.208C1297.02,242.665 1292.59,247.096 1287.13,247.096L1215.74,247.096C1210.28,247.096 1205.85,242.665 1205.85,237.208L1205.85,134.558C1205.85,129.101 1210.28,124.67 1215.74,124.67L1247.56,124.67ZM1229.13,129.548L1247.56,129.548C1254.95,129.548 1261.14,134.721 1262.72,141.644L1228.94,141.6L1229.13,129.548Z" style="fill:rgb(143,0,7);"/>
        </g>
        <g transform="matrix(0.926597,0,0,0.926597,113.558,24.9301)">
            <path d="M1626.2,237.038C1627.23,239.275 1627.8,241.766 1627.8,244.391L1627.8,427.091C1627.8,436.804 1619.92,444.69 1610.2,444.69L1483.14,444.69C1481.23,444.69 1479.39,444.385 1477.67,443.821C1480.46,449.867 1486.57,454.068 1493.66,454.068L1620.72,454.068C1630.44,454.068 1638.32,446.181 1638.32,436.468L1638.32,253.768C1638.32,245.964 1633.23,239.34 1626.2,237.038Z" style="fill:rgb(161,59,63);"/>
        </g>
        <g transform="matrix(0.926597,0,0,0.926597,-512.924,-105.034)">
            <path d="M1626.2,237.038C1627.23,239.275 1627.8,241.766 1627.8,244.391L1627.8,427.091C1627.8,436.804 1619.92,444.69 1610.2,444.69L1483.14,444.69C1481.23,444.69 1479.39,444.385 1477.67,443.821C1480.46,449.867 1486.57,454.068 1493.66,454.068L1620.72,454.068C1630.44,454.068 1638.32,446.181 1638.32,436.468L1638.32,253.768C1638.32,245.964 1633.23,239.34 1626.2,237.038Z" style="fill:rgb(161,59,63);"/>
        </g>
        <rect x="1210.88" y="719.732" width="0.38" height="0.149" style="fill:rgb(255,203,30);"/>
        <g transform="matrix(-1.77985,0,0,1.77985,3553.79,12.6111)">
            <path d="M1247.56,124.67C1257.65,124.67 1266.05,132.015 1267.69,141.65L1287.15,141.653C1294.37,141.307 1297.51,144.917 1297.27,151.805L1297.02,174.92L1297.02,237.208C1297.02,242.665 1292.59,247.096 1287.13,247.096L1215.74,247.096C1210.28,247.096 1205.85,242.665 1205.85,237.208L1205.85,134.558C1205.85,129.101 1210.28,124.67 1215.74,124.67L1247.56,124.67ZM1229.13,129.548L1247.56,129.548C1254.95,129.548 1261.14,134.721 1262.72,141.644L1211.47,141.6C1211.24,139.343 1211.5,135.918 1211.48,134.3C1211.39,128.432 1218.44,128.68 1229.13,129.548Z" style="fill:rgb(255,203,30);"/>
        </g>
        <g transform="matrix(8.16672,0,0,8.16672,-6170.49,-1272.72)">
            <text x="939.549px" y="207.414px" style="font-family:'ArialMT', 'Arial', sans-serif;font-size:24px;fill:white;">3</text>
        </g>
        <g transform="matrix(8.16672,0,0,8.16672,-6401.25,-1260.23)">
            <text x="939.549px" y="207.414px" style="font-family:'ArialMT', 'Arial', sans-serif;font-size:24px;">5</text>
        </g>
        <g transform="matrix(8.16672,0,0,8.16672,-6195.17,-889.14)">
            <text x="939.549px" y="207.414px" style="font-family:'ArialMT', 'Arial', sans-serif;font-size:24px;fill:white;">9</text>
        </g>
        <g transform="matrix(8.16672,0,0,8.16672,-6480.91,-898.469)">
            <text x="939.549px" y="207.414px" style="font-family:'ArialMT', 'Arial', sans-serif;font-size:24px;">3</text>
        </g>
    </g>
</svg>
