<?xml version="1.0" encoding="UTF-8" standalone="no"?>
<!DOCTYPE svg PUBLIC "-//W3C//DTD SVG 1.1//EN" "http://www.w3.org/Graphics/SVG/1.1/DTD/svg11.dtd">
<svg width="100%" height="100%" viewBox="0 0 339 344" version="1.1" xmlns="http://www.w3.org/2000/svg" xmlns:xlink="http://www.w3.org/1999/xlink" xml:space="preserve" xmlns:serif="http://www.serif.com/" style="fill-rule:evenodd;clip-rule:evenodd;stroke-linejoin:round;stroke-miterlimit:2;">
    <g transform="matrix(1,0,0,1,-305.481,-516.772)">
        <g transform="matrix(0.942604,0,0,1.01967,42.7652,-16.9283)">
            <path d="M637.771,534.68C637.771,528.458 632.306,523.406 625.575,523.406L290.908,523.406C284.177,523.406 278.712,528.458 278.712,534.68L278.712,849.431C278.712,855.653 284.177,860.705 290.908,860.705L625.575,860.705C632.306,860.705 637.771,855.653 637.771,849.431L637.771,534.68Z" style="fill:rgb(128,128,128);"/>
        </g>
        <g transform="matrix(0.98221,0,0,1.0186,7.91441,-9.38706)">
            <path d="M629.567,531.281C629.567,529.985 628.455,528.936 627.083,528.936C627.083,528.936 322.893,528.923 322.893,528.923C321.543,528.923 320.448,529.979 320.448,531.281L320.435,835.471C320.435,836.78 321.536,837.841 322.893,837.841L627.083,837.853C628.448,837.853 629.554,836.787 629.554,835.471C629.554,835.471 629.567,531.281 629.567,531.281ZM624.6,533.626L624.613,833.089C597.322,833.09 352.573,833.1 325.35,833.101C325.349,806.283 325.339,560.386 325.338,533.638C325.338,533.638 624.6,533.626 624.6,533.626L624.6,533.626Z" style="fill:rgb(94,94,94);"/>
        </g>
        <g transform="matrix(0.831949,0,0,0.831949,79.8008,156.818)">
            <path d="M482.493,583.988C480.901,581.129 477.927,579.362 474.706,579.362C471.484,579.362 468.511,581.129 466.919,583.988C466.755,583.988 364.758,763.511 364.758,763.511C363.159,766.322 363.176,769.772 364.803,772.568C366.429,775.363 369.42,777.083 372.654,777.083L576.757,777.021C579.97,777.021 582.94,775.313 584.555,772.536C586.17,769.76 586.187,766.334 584.599,763.541L482.493,584.081L482.493,583.988Z" style="fill:rgb(255,189,0);"/>
        </g>
        <g transform="matrix(0.926395,0,0,0.823502,-12.9092,167.006)">
            <path d="M531.776,589.508C530.635,587.176 528.487,585.733 526.158,585.733C523.829,585.733 521.681,587.176 520.539,589.508C520.421,589.508 438.112,754.231 438.112,754.231C436.973,756.507 436.994,759.293 438.167,761.548C439.339,763.803 441.487,765.189 443.809,765.189L608.507,765.138C610.813,765.138 612.946,763.762 614.111,761.522C615.275,759.283 615.296,756.516 614.165,754.255L531.776,589.582L531.776,589.508ZM526.232,608.085L597.409,750.529C597.409,750.529 454.987,750.486 454.987,750.486L526.232,608.085Z"/>
        </g>
        <g transform="matrix(0.293358,0,0,0.293358,231.337,414.825)">
            <path d="M829.745,1168.67C846.416,1168.67 859.951,1182.42 859.951,1199.35C859.951,1216.28 846.416,1230.03 829.745,1230.03C813.073,1230.03 799.538,1216.28 799.538,1199.35C799.538,1182.42 813.073,1168.67 829.745,1168.67ZM859.951,988.456L850.863,1111.49C849.555,1130.65 845.906,1146.75 829.378,1146.05C815.818,1146.78 808.663,1135.2 807.62,1111.87L799.538,989.286C797.435,955.187 824.031,953.235 834.596,954.303C847.938,955.651 859.889,968.401 859.951,988.456Z"/>
        </g>
        <g transform="matrix(1,0,0,1,0.235316,7.86416)">
            <rect x="314.675" y="566.302" width="20.305" height="33.06" style="fill:rgb(94,94,94);"/>
        </g>
        <g transform="matrix(1,0,0,1,0.235316,105.907)">
            <rect x="314.675" y="566.302" width="20.305" height="33.06" style="fill:rgb(94,94,94);"/>
        </g>
        <g transform="matrix(1,0,0,1,0.235316,203.95)">
            <rect x="314.675" y="566.302" width="20.305" height="33.06" style="fill:rgb(94,94,94);"/>
        </g>
        <g transform="matrix(0.920882,0,0,1,45.781,-41.5477)">
            <path d="M600.342,615.097C600.342,610.753 596.512,607.226 591.794,607.226L574.698,607.226C569.98,607.226 566.15,610.753 566.15,615.097L566.15,778.909C566.15,783.254 569.98,786.781 574.698,786.781L591.794,786.781C596.512,786.781 600.342,783.254 600.342,778.909L600.342,615.097Z" style="fill:rgb(94,94,94);"/>
        </g>
    </g>
</svg>
