<?xml version="1.0" encoding="UTF-8" standalone="no"?>
<!-- Created with Inkscape (http://www.inkscape.org/) -->

<svg
   width="66.674995mm"
   height="66.674995mm"
   viewBox="0 0 66.674995 66.674995"
   version="1.1"
   id="svg2961"
   inkscape:version="1.1.1 (3bf5ae0d25, 2021-09-20)"
   sodipodi:docname="2023-DE-08a-challenge_compatible.svg"
   xmlns:inkscape="http://www.inkscape.org/namespaces/inkscape"
   xmlns:sodipodi="http://sodipodi.sourceforge.net/DTD/sodipodi-0.dtd"
   xmlns="http://www.w3.org/2000/svg"
   xmlns:svg="http://www.w3.org/2000/svg">
  <sodipodi:namedview
     id="namedview2963"
     pagecolor="#ffffff"
     bordercolor="#666666"
     borderopacity="1.0"
     inkscape:pageshadow="2"
     inkscape:pageopacity="0.0"
     inkscape:pagecheckerboard="0"
     inkscape:document-units="mm"
     showgrid="false"
     inkscape:zoom="0.64052329"
     inkscape:cx="89.77035"
     inkscape:cy="367.66813"
     inkscape:window-width="2048"
     inkscape:window-height="1017"
     inkscape:window-x="-8"
     inkscape:window-y="-8"
     inkscape:window-maximized="1"
     inkscape:current-layer="layer1" />
  <defs
     id="defs2958" />
  <g
     inkscape:label="Ebene 1"
     inkscape:groupmode="layer"
     id="layer1"
     transform="translate(-81.496993,-51.342612)">
    <path
       id="rect1579"
       style="font-variation-settings:normal;vector-effect:none;fill:#f9ebe3;fill-opacity:1;stroke:none;stroke-width:0.529167px;stroke-linecap:butt;stroke-linejoin:miter;stroke-miterlimit:4;stroke-dasharray:none;stroke-dashoffset:0;stroke-opacity:1;-inkscape-stroke:none;paint-order:fill markers stroke;stop-color:#000000"
       d="m 82.02616,51.871779 h 65.61667 V 117.48844 H 82.02616 Z" />
    <path
       id="path1207"
       style="color:#000000;fill:#8f8f8f;stroke-width:0.264583;-inkscape-stroke:none"
       d="m 81.496993,51.342612 v 0.264583 12.964584 0.264583 0.264583 12.7 0.264583 0.264584 12.7 0.264583 0.264583 12.700002 0.26458 0.26458 13.22917 h 13.758333 13.229164 13.22917 13.22917 13.22916 V 104.25928 91.030112 77.800945 64.571779 51.342612 H 134.94283 121.71366 108.48449 95.255326 94.72616 Z m 0.529167,0.529167 h 12.7 v 12.7 h -12.7 z m 13.229166,0 h 12.700004 v 12.7 H 95.255326 Z m 13.229164,0 h 12.7 v 12.7 h -12.7 z m 13.22917,0 h 12.7 v 12.7 h -12.7 z m 13.22917,0 h 12.7 v 12.7 h -12.7 z M 82.02616,65.100945 h 12.7 v 12.7 h -12.7 z m 13.229166,0 h 12.700004 v 12.7 H 95.255326 Z m 13.229164,0 h 12.7 v 12.7 h -12.7 z m 13.22917,0 h 12.7 v 12.7 h -12.7 z m 13.22917,0 h 12.7 v 12.7 h -12.7 z M 82.02616,78.330112 h 12.7 v 12.7 h -12.7 z m 13.229166,0 h 12.700004 v 12.7 H 95.255326 Z m 13.229164,0 h 12.7 v 12.7 h -12.7 z m 13.22917,0 h 12.7 v 12.7 h -12.7 z m 13.22917,0 h 12.7 v 12.7 h -12.7 z M 82.02616,91.559278 h 12.7 v 12.700002 h -12.7 z m 13.229166,0 H 107.95533 V 104.25928 H 95.255326 Z m 13.229164,0 h 12.7 v 12.700002 h -12.7 z m 13.22917,0 h 12.7 v 12.700002 h -12.7 z m 13.22917,0 h 12.7 v 12.700002 h -12.7 z M 82.02616,104.78844 h 12.7 v 12.7 h -12.7 z m 13.229166,0 h 12.700004 v 12.7 H 95.255326 Z m 13.229164,0 h 12.7 v 12.7 h -12.7 z m 13.22917,0 h 12.7 v 12.7 h -12.7 z m 13.22917,0 h 12.7 v 12.7 h -12.7 z" />
    <path
       d="m 141.91418,53.540865 0.94077,-0.75052 c 0.12156,-0.09681 0.29439,-0.09501 0.414,0.0043 l 2.60337,2.301861 c 0.10253,0.08544 0.14305,0.224624 0.10204,0.351802 l -0.4057,1.264017 0.38031,0.315919 -1.76487,6.347405 h -5.71153 l -1.76487,-6.347405 4.61135,-3.981929 z m 0.51408,0.427426 2.59751,2.292927 0.25778,-0.802661 -2.22892,-1.9898 z"
       style="clip-rule:evenodd;fill:#5f8541;fill-opacity:1;fill-rule:evenodd;stroke-width:0.0488206;stroke-linecap:round;stroke-linejoin:round;stroke-miterlimit:1.5"
       id="path2-1"
       sodipodi:nodetypes="ccccccccccccccccc" />
    <path
       d="m 143.63244,62.624719 1.86939,-5.365304 -1.59987,5.766665 h -5.17755 l -0.11374,-0.401361 z"
       style="clip-rule:evenodd;fill:#6f964e;fill-opacity:1;fill-rule:evenodd;stroke-width:0.0442563;stroke-linecap:round;stroke-linejoin:round;stroke-miterlimit:1.5"
       id="path4"
       sodipodi:nodetypes="cccccc" />
    <path
       d="m 139.22718,54.086853 0.40926,0.450725 -1.124,0.974088 -0.38712,-0.467276 -0.087,0.07567 c -0.0607,0.06062 -0.11858,0.07789 -0.17542,-0.002 l -0.14113,-0.168612 c -0.0889,-0.109087 -0.0565,-0.152792 0.0393,-0.219763 l 1.19124,-1.065392 c 0.11424,-0.116281 0.18964,-0.115812 0.26087,-0.0073 l 0.15044,0.195981 c 0.0476,0.06501 0.009,0.112065 -0.0593,0.167227 z"
       id="path114"
       sodipodi:nodetypes="ccccccccccccc"
       style="clip-rule:evenodd;fill-rule:evenodd;stroke-width:0.0868931;stroke-linecap:round;stroke-linejoin:round;stroke-miterlimit:1.5" />
    <rect
       x="139.59691"
       y="58.21463"
       width="0.018551869"
       height="0.0072742854"
       style="clip-rule:evenodd;fill:#ffcb1e;fill-rule:evenodd;stroke-width:0.0488206;stroke-linecap:round;stroke-linejoin:round;stroke-miterlimit:1.5"
       id="rect142" />
    <path
       d="m 139.08302,60.101735 0.84102,-0.112136 q 0.14484,0.714862 0.4906,1.032582 0.35042,0.313048 0.85036,0.313048 0.59338,0 0.99987,-0.411165 0.41117,-0.411164 0.41117,-1.018568 0,-0.57937 -0.37846,-0.953156 -0.37846,-0.378459 -0.9625,-0.378459 -0.23829,0 -0.59338,0.09345 l 0.0934,-0.738226 q 0.0841,0.0093 0.1355,0.0093 0.53732,0 0.96717,-0.280338 0.42985,-0.280341 0.42985,-0.86438 0,-0.462562 -0.31304,-0.766259 -0.31305,-0.303702 -0.80831,-0.303702 -0.49059,0 -0.81766,0.308371 -0.32706,0.308374 -0.42051,0.925123 l -0.84102,-0.149515 q 0.15419,-0.845693 0.70085,-1.30825 0.54667,-0.467235 1.35965,-0.467235 0.56068,0 1.03258,0.242963 0.47191,0.238286 0.71954,0.654123 0.2523,0.415838 0.2523,0.883072 0,0.44387 -0.23828,0.808311 -0.23829,0.36444 -0.70552,0.579366 0.6074,0.140173 0.9438,0.584043 0.33641,0.439198 0.33641,1.102667 0,0.897086 -0.65412,1.523181 -0.65413,0.621417 -1.65401,0.621417 -0.90175,0 -1.49981,-0.537319 -0.59339,-0.537314 -0.67749,-1.392349 z"
       id="path1184"
       style="font-size:24px;font-family:ArialMT, Arial, sans-serif;clip-rule:evenodd;fill:#ffffff;fill-rule:evenodd;stroke-width:0.398706;stroke-linecap:round;stroke-linejoin:round;stroke-miterlimit:1.5" />
    <path
       d="m 138.38381,94.285293 0.49443,0.357069 -0.90007,1.187415 -0.47615,-0.377872 -0.0696,0.09218 c -0.047,0.07199 -0.10011,0.100889 -0.17235,0.03439 l -0.17323,-0.136057 c -0.10968,-0.08853 -0.0871,-0.138057 -0.007,-0.223539 l 0.94708,-1.290828 c 0.0879,-0.137623 0.16191,-0.152767 0.25418,-0.06119 l 0.18802,0.160951 c 0.0601,0.05388 0.0322,0.10794 -0.0235,0.176186 z"
       id="path106"
       style="clip-rule:evenodd;fill-rule:evenodd;stroke-width:0.0870477;stroke-linecap:round;stroke-linejoin:round;stroke-miterlimit:1.5" />
    <path
       d="m 141.59253,92.330576 c -0.87831,0 -1.60951,0.639365 -1.75227,1.478068 l -0.36038,5.29e-4 -2.19273,2.895637 v 5.42193 c 0,0.47502 0.38563,0.86072 0.8609,0.86072 h 6.21433 c 0.47528,0 0.8609,-0.3857 0.8609,-0.86072 v -8.935438 c 0,-0.475017 -0.38562,-0.860726 -0.8609,-0.860726 z m 1.60428,0.424619 h -1.60428 c -0.64328,0 -1.18211,0.450297 -1.31964,1.052928 l 2.94046,-0.0038 z"
       style="clip-rule:evenodd;fill:#8f0007;fill-rule:evenodd;stroke-width:0.0870477;stroke-linecap:round;stroke-linejoin:round;stroke-miterlimit:1.5"
       id="path126" />
    <path
       d="m 141.59253,92.330576 c -0.87831,0 -1.60951,0.639365 -1.75227,1.478068 l -0.36038,5.29e-4 -2.19273,2.895637 v 5.42193 c 0,0.47502 0.38563,0.86072 0.8609,0.86072 h 6.21433 c 0.47528,0 0.8609,-0.3857 0.8609,-0.86072 v -8.935438 c 0,-0.475017 -0.38562,-0.860726 -0.8609,-0.860726 z m 1.60428,0.424619 h -1.60428 c -0.64328,0 -1.18211,0.450297 -1.31964,1.052928 l 2.94046,-0.0038 z"
       style="clip-rule:evenodd;fill:#ff7f2a;fill-rule:evenodd;stroke-width:0.0870477;stroke-linecap:round;stroke-linejoin:round;stroke-miterlimit:1.5"
       id="path130" />
    <path
       d="m 144.34648,92.741418 c 0.0467,0.101375 0.0725,0.21426 0.0725,0.333216 v 8.279476 c 0,0.44017 -0.3571,0.79754 -0.79759,0.79754 h -5.75802 c -0.0866,0 -0.16994,-0.0138 -0.24788,-0.0394 0.12643,0.27399 0.40332,0.46436 0.72462,0.46436 h 5.75802 c 0.44048,0 0.79758,-0.35741 0.79758,-0.79758 v -8.279474 c 0,-0.353658 -0.23066,-0.653838 -0.54924,-0.758158 z"
       style="clip-rule:evenodd;fill:#ffac75;fill-opacity:1;fill-rule:evenodd;stroke-width:0.0453173;stroke-linecap:round;stroke-linejoin:round;stroke-miterlimit:1.5"
       id="path134" />
    <path
       d="m 138.98547,99.567205 0.84251,-0.112334 q 0.1451,0.716129 0.49146,1.034409 0.35105,0.31361 0.85187,0.31361 0.59444,0 1.00165,-0.4119 0.41189,-0.411892 0.41189,-1.020373 0,-0.580395 -0.37912,-0.954844 -0.37913,-0.37913 -0.96421,-0.37913 -0.23871,0 -0.59443,0.09361 l 0.0936,-0.739534 q 0.0842,0.0093 0.13573,0.0093 0.53827,0 0.96889,-0.280834 0.43062,-0.280837 0.43062,-0.865912 0,-0.463381 -0.3136,-0.767618 -0.3136,-0.304241 -0.80975,-0.304241 -0.49146,0 -0.81911,0.308919 -0.32764,0.30892 -0.42125,0.926762 l -0.84251,-0.149778 q 0.15446,-0.847194 0.70209,-1.310572 0.54763,-0.468061 1.36206,-0.468061 0.56167,0 1.03441,0.243393 0.47275,0.238707 0.72082,0.655283 0.25275,0.416573 0.25275,0.884637 0,0.444656 -0.23871,0.809744 -0.23871,0.365085 -0.70677,0.580393 0.60847,0.140422 0.94548,0.585078 0.337,0.439976 0.337,1.104622 0,0.898676 -0.65528,1.525886 -0.65529,0.62252 -1.65694,0.62252 -0.90336,0 -1.50247,-0.53827 -0.59444,-0.53827 -0.67869,-1.394826 z"
       id="path1189"
       style="font-size:24px;font-family:ArialMT, Arial, sans-serif;clip-rule:evenodd;fill-rule:evenodd;stroke-width:0.399412;stroke-linecap:round;stroke-linejoin:round;stroke-miterlimit:1.5" />
    <path
       d="m 89.313233,66.14737 c 0.15183,0.215321 0.238841,0.43282 0.243375,0.654575 0.0044,0.213935 -0.06872,0.430702 -0.228942,0.652239 -0.02815,0.03904 -0.01932,0.09358 0.01972,0.121737 0.03902,0.02815 0.09358,0.01932 0.121737,-0.0197 0.185109,-0.257293 0.265707,-0.510012 0.260044,-0.758019 -0.0058,-0.25363 -0.102196,-0.503538 -0.276457,-0.749426 -0.0272,-0.03849 -0.08054,-0.04765 -0.119024,-0.02045 -0.03849,0.0272 -0.04765,0.08054 -0.02045,0.119045 z"
       id="path202"
       style="clip-rule:evenodd;fill-rule:evenodd;stroke-width:0.0197978;stroke-linecap:round;stroke-linejoin:round;stroke-miterlimit:1.5" />
    <path
       d="m 87.095736,66.049054 c -0.175271,0.249452 -0.279902,0.49942 -0.290929,0.749723 -0.01109,0.251967 0.07129,0.505736 0.277664,0.761286 0.03029,0.03742 0.08523,0.0432 0.122648,0.01291 0.0374,-0.03027 0.04318,-0.08523 0.01291,-0.122627 -0.175647,-0.21647 -0.249691,-0.430326 -0.240782,-0.644182 0.0092,-0.22035 0.104592,-0.439135 0.258362,-0.659069 0.02704,-0.03861 0.01768,-0.0919 -0.02093,-0.118965 -0.0386,-0.02704 -0.0919,-0.01768 -0.118945,0.02093 z"
       id="path206"
       style="clip-rule:evenodd;fill-rule:evenodd;stroke-width:0.0197978;stroke-linecap:round;stroke-linejoin:round;stroke-miterlimit:1.5" />
    <path
       d="m 89.850682,65.647001 c 0.23787,0.381811 0.374959,0.766559 0.383534,1.155898 0.0084,0.379313 -0.105845,0.762238 -0.363917,1.150261 -0.02661,0.04011 -0.01567,0.09426 0.02443,0.1209 0.04007,0.02661 0.09424,0.01567 0.120882,-0.02441 0.279674,-0.421852 0.400835,-0.838674 0.391166,-1.250668 -0.0098,-0.418341 -0.155001,-0.832461 -0.411165,-1.242396 -0.02496,-0.04001 -0.07768,-0.05219 -0.117675,-0.02725 -0.04,0.02495 -0.05218,0.07765 -0.02725,0.11766 z"
       id="path210"
       style="clip-rule:evenodd;fill-rule:evenodd;stroke-width:0.029309;stroke-linecap:round;stroke-linejoin:round;stroke-miterlimit:1.5" />
    <path
       d="m 86.553009,65.556587 c -0.256164,0.409934 -0.401369,0.824055 -0.411165,1.242396 -0.0097,0.411994 0.111493,0.828816 0.391167,1.250668 0.02664,0.04008 0.08081,0.05101 0.120881,0.02441 0.0401,-0.02664 0.05104,-0.08079 0.02443,-0.1209 -0.258073,-0.388023 -0.372288,-0.770948 -0.363917,-1.150261 0.0086,-0.389339 0.145663,-0.774088 0.383534,-1.155898 0.02493,-0.04001 0.01275,-0.09271 -0.02725,-0.11766 -0.04,-0.02495 -0.09272,-0.01276 -0.117676,0.02725 z"
       id="path214"
       style="clip-rule:evenodd;fill-rule:evenodd;stroke-width:0.029309;stroke-linecap:round;stroke-linejoin:round;stroke-miterlimit:1.5" />
    <path
       d="m 85.698393,76.139281 0.582404,-2.311579 c 0.002,-0.01487 0.0057,-0.02917 0.01083,-0.04309 l 1.612652,-6.400556 c -0.202958,-0.118277 -0.339006,-0.334943 -0.339006,-0.582423 0,-0.373975 0.310709,-0.67761 0.693417,-0.67761 0.382689,0 0.693397,0.303635 0.693397,0.67761 0,0.247404 -0.135952,0.464013 -0.338757,0.58229 l 2.210216,8.756886 0.545737,1.91e-4 c 0.112366,0 0.203471,0.08924 0.203471,0.199258 l -1.52e-4,0.449998 c 0,0.112309 -0.09103,0.203452 -0.203319,0.203452 l -6.216991,-0.0019 c -0.111222,0 -0.201374,-0.09019 -0.201374,-0.201546 l 1.33e-4,-0.449998 c 0,-0.111165 0.0901,-0.201164 0.201241,-0.201164 z m 4.705645,0.0015 -0.494902,-1.964356 -1.280207,0.822962 1.772554,1.141394 z m -3.548711,-0.0011 2.808102,7.68e-4 -1.404738,-0.903048 z m -0.745758,-3.7e-4 h 0.0084 l 1.770456,-1.139868 -1.28299,-0.824679 z m 0.727186,-2.293846 1.421936,0.915631 1.422795,-0.916203 -1.417112,-1.029714 z m -0.02803,-0.476121 1.112048,-0.803838 -0.768257,-0.558283 z m 1.800069,-0.802732 1.095631,0.797393 -0.338567,-1.343778 z m -1.273094,-0.926538 0.929494,0.676484 0.92446,-0.668209 -0.939276,-1.309628 z m 1.162101,-1.653381 0.548769,0.766313 -0.286932,-1.138839 z m -1.025596,0.7539 0.527414,-0.751536 -0.249826,-0.348309 z m 0.405227,-1.605579 c 0.01527,0.0118 0.369609,0.5015 0.369609,0.5015 0,0 0.362058,-0.503425 0.387761,-0.517859 l -0.376282,-1.49346 z"
       id="path222"
       style="clip-rule:evenodd;fill-rule:evenodd;stroke-width:0.0190677;stroke-linecap:round;stroke-linejoin:round;stroke-miterlimit:1.5" />
    <path
       id="path46"
       style="clip-rule:evenodd;fill:#000000;fill-rule:evenodd;stroke:none;stroke-width:0.0433216px;stroke-linecap:round;stroke-linejoin:round;stroke-miterlimit:1.5"
       d="m 110.51671,114.71456 c -0.36155,0 -0.67887,0.14747 -0.89511,0.36371 -0.21625,0.21624 -0.34303,0.50499 -0.34303,0.82161 0,0.3166 0.12678,0.60529 0.34303,0.82152 0.21624,0.21624 0.53356,0.36371 0.89511,0.36371 h 8.79895 c 0.36156,0 0.67887,-0.14747 0.89511,-0.36371 0.21624,-0.21623 0.34302,-0.50492 0.34302,-0.82152 0,-0.31662 -0.12678,-0.60537 -0.34302,-0.82161 -0.21624,-0.21624 -0.53355,-0.36371 -0.89511,-0.36371 z m 0,0.23357 h 0.96395 v 0.26045 a 0.14553063,0.14553063 0 0 0 0.14548,0.14557 0.14553063,0.14553063 0 0 0 0.14549,-0.14557 v -0.26045 h 1.70629 v 0.27359 a 0.14553063,0.14553063 0 0 0 0.14548,0.14548 0.14553063,0.14553063 0 0 0 0.14557,-0.14548 v -0.27359 h 1.91308 v 0.27359 a 0.14553063,0.14553063 0 0 0 0.14557,0.14548 0.14553063,0.14553063 0 0 0 0.14548,-0.14548 v -0.27359 h 1.97047 v 0.27359 a 0.14631691,0.14480659 0 0 0 0.14624,0.14481 0.14631691,0.14480659 0 0 0 0.14634,-0.14481 v -0.27359 h 1.07951 c 0.22819,0 0.44509,0.092 0.61567,0.26257 0.17059,0.17058 0.28317,0.41606 0.28317,0.68918 0,0.27311 -0.11258,0.5186 -0.28317,0.68918 -0.17058,0.17058 -0.38748,0.26256 -0.61567,0.26256 h -1.07951 v -0.33801 a 0.14631691,0.14480659 0 0 0 -0.14634,-0.14481 0.14631691,0.14480659 0 0 0 -0.14624,0.14481 v 0.33801 h -1.97047 v -0.33801 a 0.14553063,0.14553063 0 0 0 -0.14548,-0.14557 0.14553063,0.14553063 0 0 0 -0.14557,0.14557 v 0.33801 h -1.91308 v -0.33801 a 0.14553063,0.14553063 0 0 0 -0.14557,-0.14557 0.14553063,0.14553063 0 0 0 -0.14548,0.14557 v 0.33801 h -1.68738 v -0.33801 a 0.14553063,0.14553063 0 0 0 -0.14557,-0.14557 0.14553063,0.14553063 0 0 0 -0.14549,0.14557 v 0.33801 h -0.98277 c -0.22817,0 -0.44509,-0.092 -0.61568,-0.26256 -0.17059,-0.17058 -0.28325,-0.41608 -0.28325,-0.68918 0,-0.27312 0.11266,-0.5186 0.28325,-0.68918 0.17059,-0.17059 0.38751,-0.26257 0.61568,-0.26257 z m 0.0979,0.20678 c -0.40814,0 -0.73946,0.3314 -0.73946,0.73954 0,0.40811 0.33132,0.73946 0.73946,0.73946 0.40814,0 0.73954,-0.33135 0.73954,-0.73946 0,-0.40814 -0.3314,-0.73954 -0.73954,-0.73954 z m 1.99302,0 c -0.40814,0 -0.73946,0.3314 -0.73946,0.73954 0,0.40811 0.33132,0.73946 0.73946,0.73946 0.40814,0 0.73946,-0.33135 0.73946,-0.73946 0,-0.40814 -0.33132,-0.73954 -0.73946,-0.73954 z m 2.14851,0 c -0.40814,0 -0.73954,0.3314 -0.73954,0.73954 0,0.40811 0.3314,0.73946 0.73954,0.73946 0.40814,0 0.73945,-0.33135 0.73945,-0.73946 0,-0.40814 -0.33131,-0.73954 -0.73945,-0.73954 z m 2.19632,0 c -0.40814,0 -0.73945,0.3314 -0.73945,0.73954 0,0.40811 0.33131,0.73946 0.73945,0.73946 0.40815,0 0.73954,-0.33135 0.73954,-0.73946 0,-0.40814 -0.33139,-0.73954 -0.73954,-0.73954 z m 2.14834,0 c -0.40814,0 -0.73954,0.3314 -0.73954,0.73954 0,0.40811 0.3314,0.73946 0.73954,0.73946 0.40815,0 0.73946,-0.33135 0.73946,-0.73946 0,-0.40814 -0.33131,-0.73954 -0.73946,-0.73954 z m -8.48619,0.36973 c 0.20407,0 0.36973,0.16574 0.36973,0.36981 0,0.20407 -0.16566,0.36973 -0.36973,0.36973 -0.20407,0 -0.36973,-0.16566 -0.36973,-0.36973 0,-0.20407 0.16566,-0.36981 0.36973,-0.36981 z m 1.99302,0 c 0.20407,0 0.36973,0.16574 0.36973,0.36981 0,0.20407 -0.16566,0.36973 -0.36973,0.36973 -0.20407,0 -0.36973,-0.16566 -0.36973,-0.36973 0,-0.20407 0.16566,-0.36981 0.36973,-0.36981 z m 2.14851,0 c 0.20407,0 0.36973,0.16574 0.36973,0.36981 0,0.20407 -0.16566,0.36973 -0.36973,0.36973 -0.20407,0 -0.36973,-0.16566 -0.36973,-0.36973 0,-0.20407 0.16566,-0.36981 0.36973,-0.36981 z m 2.19632,0 c 0.20408,0 0.36973,0.16574 0.36973,0.36981 0,0.20407 -0.16565,0.36973 -0.36973,0.36973 -0.20407,0 -0.36972,-0.16566 -0.36972,-0.36973 0,-0.20407 0.16565,-0.36981 0.36972,-0.36981 z m 2.14834,0 c 0.20407,0 0.36973,0.16574 0.36973,0.36981 0,0.20407 -0.16566,0.36973 -0.36973,0.36973 -0.20407,0 -0.36972,-0.16566 -0.36972,-0.36973 0,-0.20407 0.16565,-0.36981 0.36972,-0.36981 z" />
    <path
       d="m 109.61317,102.65608 c 1.86857,-0.43041 3.44567,0.049 4.67974,1.60094 l -1.39062,1.82111 c -0.64375,-1.38882 -1.5938,-1.53751 -2.93341,-1.43445 z"
       style="clip-rule:evenodd;fill:#b1c8cd;fill-rule:evenodd;stroke-width:0.0434075;stroke-linecap:round;stroke-linejoin:round;stroke-miterlimit:1.5"
       id="path16" />
    <path
       d="m 111.66044,102.29844 -0.60768,2.58492"
       style="clip-rule:evenodd;fill:none;fill-rule:evenodd;stroke:#000000;stroke-width:0.213892px;stroke-linecap:round;stroke-linejoin:round;stroke-miterlimit:1.5"
       id="path18-2" />
    <path
       d="m 112.20456,102.42735 -0.78393,2.45611"
       style="clip-rule:evenodd;fill:none;fill-rule:evenodd;stroke:#000000;stroke-width:0.214563px;stroke-linecap:round;stroke-linejoin:round;stroke-miterlimit:1.5"
       id="path22" />
    <path
       d="m 112.87822,102.73945 -1.1373,2.30483"
       style="clip-rule:evenodd;fill:none;fill-rule:evenodd;stroke:#000000;stroke-width:0.21661px;stroke-linecap:round;stroke-linejoin:round;stroke-miterlimit:1.5"
       id="path26"
       sodipodi:nodetypes="cc" />
    <path
       d="m 113.89184,103.2656 -1.53967,2.23752"
       style="clip-rule:evenodd;fill:none;fill-rule:evenodd;stroke:#000000;stroke-width:0.220763px;stroke-linecap:round;stroke-linejoin:round;stroke-miterlimit:1.5"
       id="path34" />
    <path
       d="m 114.41227,103.71746 -1.89282,2.18497"
       style="clip-rule:evenodd;fill:none;fill-rule:evenodd;stroke:#000000;stroke-width:0.222869px;stroke-linecap:round;stroke-linejoin:round;stroke-miterlimit:1.5"
       id="path38" />
    <path
       d="m 109.25686,102.19558 v 12.28837 h 11.12734 v -1.23017 h -9.19192 l -0.035,-7.41113 0.93305,-3.76948 z"
       style="font-variation-settings:normal;clip-rule:evenodd;vector-effect:none;fill:#3771c8;fill-opacity:1;fill-rule:evenodd;stroke-width:0.025629;stroke-linecap:butt;stroke-linejoin:miter;stroke-miterlimit:2;stroke-dasharray:none;stroke-dashoffset:0;stroke-opacity:1;-inkscape-stroke:none;stop-color:#000000"
       id="path44"
       sodipodi:nodetypes="cccccccc" />
    <path
       d="m 120.93781,106.7096 c 0,-2.09177 -1.69826,-3.79002 -3.79036,-3.79002 h -0.99585 c -2.09211,0 -3.79037,1.69825 -3.79037,3.79002 v 3.07684 c 0,2.09177 1.69826,3.79003 3.79037,3.79003 h 0.99585 c 2.0921,0 3.79036,-1.69826 3.79036,-3.79003 z m -2.27978,-2.66885 c 0,-0.31465 -0.25542,-0.57007 -0.56982,-0.57007 h -2.756 c -0.31441,0 -0.56983,0.25542 -0.56983,0.57007 0,0.31459 0.25542,0.57001 0.56983,0.57001 h 2.756 c 0.3144,0 0.56982,-0.25542 0.56982,-0.57001 z"
       style="clip-rule:evenodd;fill:#4b14a1;fill-rule:evenodd;stroke-width:0.0487445;stroke-linecap:round;stroke-linejoin:round;stroke-miterlimit:1.5"
       id="path8-6" />
    <path
       d="m 118.79811,103.64365 c 0.60742,0.64242 0.97962,1.50908 0.97962,2.46208 v 2.91126 c 0,1.9792 -1.6064,3.58606 -3.58592,3.58606 h -0.94272 c -0.66876,0 -1.29554,-0.18366 -1.83193,-0.50346 0.65353,0.69196 1.58011,1.12397 2.6063,1.12397 h 0.94226 c 1.97952,0 3.58638,-1.60686 3.58638,-3.58606 v -2.9113 c 0,-1.31003 -0.70427,-2.45692 -1.75399,-3.08255 z"
       style="clip-rule:evenodd;fill:#764db7;fill-rule:evenodd;stroke-width:0.0461211;stroke-linecap:round;stroke-linejoin:round;stroke-miterlimit:1.5"
       id="path12" />
    <path
       d="m 113.26311,103.60625 0.49278,0.35588 -0.89707,1.18346 -0.47457,-0.37661 -0.0694,0.0919 c -0.0469,0.0717 -0.0998,0.10056 -0.17178,0.0343 l -0.17265,-0.1356 c -0.10932,-0.0882 -0.0868,-0.1376 -0.007,-0.22279 l 0.94392,-1.28653 c 0.0876,-0.13717 0.16137,-0.15226 0.25333,-0.061 l 0.1874,0.16041 c 0.0599,0.0537 0.0321,0.10758 -0.0234,0.1756 z"
       id="path110"
       style="clip-rule:evenodd;fill-rule:evenodd;stroke-width:0.0867577;stroke-linecap:round;stroke-linejoin:round;stroke-miterlimit:1.5" />
    <path
       d="m 114.50806,110.81085 0.80705,-0.0746 q 0.10263,0.56913 0.39186,0.82571 0.28923,0.25658 0.74174,0.25658 0.3872,0 0.67643,-0.17728 0.2939,-0.17727 0.4805,-0.47116 0.1866,-0.29857 0.31255,-0.80239 0.12596,-0.50382 0.12596,-1.0263 0,-0.056 -0.005,-0.16795 -0.25191,0.4012 -0.69042,0.65311 -0.43385,0.24724 -0.94234,0.24724 -0.84903,0 -1.43683,-0.61578 -0.58779,-0.61578 -0.58779,-1.62343 0,-1.0403 0.61112,-1.67474 0.61578,-0.63444 1.53946,-0.63444 0.6671,0 1.21757,0.3592 0.55514,0.35921 0.8397,1.02631 0.28924,0.66243 0.28924,1.92199 0,1.31087 -0.28457,2.08993 -0.28457,0.77439 -0.84904,1.18025 -0.5598,0.40586 -1.31553,0.40586 -0.80239,0 -1.31088,-0.44318 -0.50848,-0.44784 -0.61111,-1.25489 z m 3.43812,-3.01827 q 0,-0.72308 -0.38719,-1.1476 -0.38254,-0.42452 -0.92368,-0.42452 -0.5598,0 -0.97499,0.45718 -0.41519,0.45717 -0.41519,1.18491 0,0.65311 0.39186,1.06363 0.39653,0.40586 0.97499,0.40586 0.58313,0 0.95634,-0.40586 0.37786,-0.41052 0.37786,-1.1336 z"
       id="path2468"
       style="font-size:36.1095px;font-family:ArialMT, Arial, sans-serif;clip-rule:evenodd;fill:#ffffff;fill-rule:evenodd;stroke-width:0.398081;stroke-linecap:round;stroke-linejoin:round;stroke-miterlimit:1.5" />
  </g>
</svg>
