<?xml version="1.0" encoding="UTF-8" standalone="no"?>
<!-- Created with Inkscape (http://www.inkscape.org/) -->

<svg
   width="68.858337mm"
   height="85.051636mm"
   viewBox="0 0 68.858337 85.051636"
   version="1.1"
   id="svg3211"
   inkscape:version="1.1.1 (3bf5ae0d25, 2021-09-20)"
   sodipodi:docname="2023-DE-08-zerobot.svg"
   xmlns:inkscape="http://www.inkscape.org/namespaces/inkscape"
   xmlns:sodipodi="http://sodipodi.sourceforge.net/DTD/sodipodi-0.dtd"
   xmlns="http://www.w3.org/2000/svg"
   xmlns:svg="http://www.w3.org/2000/svg">
  <sodipodi:namedview
     id="namedview3213"
     pagecolor="#ffffff"
     bordercolor="#666666"
     borderopacity="1.0"
     inkscape:pageshadow="2"
     inkscape:pageopacity="0.0"
     inkscape:pagecheckerboard="0"
     inkscape:document-units="mm"
     showgrid="false"
     inkscape:zoom="2.5620932"
     inkscape:cx="220.71797"
     inkscape:cy="150.85322"
     inkscape:window-width="2048"
     inkscape:window-height="1017"
     inkscape:window-x="-8"
     inkscape:window-y="-8"
     inkscape:window-maximized="1"
     inkscape:current-layer="layer1" />
  <defs
     id="defs3208" />
  <g
     inkscape:label="Ebene 1"
     inkscape:groupmode="layer"
     id="layer1"
     transform="translate(-0.26902373,-40.502001)">
    <g
       transform="matrix(0.23368,0,0,0.23368,-175.2632,28.624697)"
       id="g48"
       style="clip-rule:evenodd;fill-rule:evenodd;stroke-linecap:round;stroke-linejoin:round;stroke-miterlimit:1.5">
      <path
         id="path46"
         style="fill:#000000;stroke:none;stroke-width:0.998016px"
         d="m 29.023438,266.84375 c -8.329234,0 -15.639463,3.39734 -20.6210942,8.37891 C 3.4207205,280.20421 0.5,286.85637 0.5,294.15039 c 0,7.29377 2.9207205,13.9443 7.9023438,18.92578 4.9816312,4.98148 12.2918602,8.37891 20.6210942,8.37891 H 231.72852 c 8.32958,0 15.63959,-3.3974 20.62109,-8.37891 4.98158,-4.9815 7.90234,-11.63205 7.90234,-18.92578 0,-7.29399 -2.92076,-13.94615 -7.90234,-18.92773 -4.9815,-4.98159 -12.29151,-8.37891 -20.62109,-8.37891 z m 0,5.38086 h 22.207031 v 6 a 3.3526501,3.3526501 0 0 0 3.351562,3.35351 3.3526501,3.3526501 0 0 0 3.351563,-3.35351 v -6 h 39.308594 v 6.30273 a 3.3526501,3.3526501 0 0 0 3.351562,3.35157 3.3526501,3.3526501 0 0 0 3.35352,-3.35157 v -6.30273 h 44.07226 v 6.30273 a 3.3526501,3.3526501 0 0 0 3.35352,3.35157 3.3526501,3.3526501 0 0 0 3.35156,-3.35157 v -6.30273 h 45.39453 v 6.30273 a 3.3707641,3.3359701 0 0 0 3.36914,3.33594 3.3707641,3.3359701 0 0 0 3.3711,-3.33594 v -6.30273 h 24.86914 c 5.25687,0 10.25381,2.11901 14.18359,6.04883 3.92978,3.92981 6.52344,9.58498 6.52344,15.87695 0,6.29167 -2.59366,11.9472 -6.52344,15.87695 -3.9297,3.92975 -8.92672,6.04883 -14.18359,6.04883 h -24.86914 v -7.78711 a 3.3707641,3.3359701 0 0 0 -3.3711,-3.33594 3.3707641,3.3359701 0 0 0 -3.36914,3.33594 v 7.78711 h -45.39453 v -7.78711 a 3.3526501,3.3526501 0 0 0 -3.35156,-3.35351 3.3526501,3.3526501 0 0 0 -3.35352,3.35351 v 7.78711 h -44.07226 v -7.78711 a 3.3526501,3.3526501 0 0 0 -3.35352,-3.35351 3.3526501,3.3526501 0 0 0 -3.351562,3.35351 v 7.78711 H 58.369141 v -7.78711 a 3.3526501,3.3526501 0 0 0 -3.353516,-3.35351 3.3526501,3.3526501 0 0 0 -3.351563,3.35351 v 7.78711 H 29.023438 c -5.256354,0 -10.253699,-2.11906 -14.183594,-6.04883 -3.929887,-3.92977 -6.5253909,-9.58531 -6.5253909,-15.87695 0,-6.29194 2.5955039,-11.94711 6.5253909,-15.87695 3.929895,-3.92984 8.92724,-6.04883 14.183594,-6.04883 z m 2.255859,4.76367 c -9.402547,0 -17.035156,7.63456 -17.035156,17.03711 0,9.40166 7.632609,17.03516 17.035156,17.03516 9.402547,0 17.037109,-7.6335 17.037109,-17.03516 0,-9.40255 -7.634562,-17.03711 -17.037109,-17.03711 z m 45.914062,0 c -9.402547,0 -17.035156,7.63456 -17.035156,17.03711 0,9.40166 7.632609,17.03516 17.035156,17.03516 9.40255,0 17.035157,-7.6335 17.035157,-17.03516 0,-9.40255 -7.632607,-17.03711 -17.035157,-17.03711 z m 49.496091,0 c -9.40254,0 -17.03711,7.63456 -17.03711,17.03711 0,9.40166 7.63457,17.03516 17.03711,17.03516 9.40255,0 17.03516,-7.6335 17.03516,-17.03516 0,-9.40255 -7.63261,-17.03711 -17.03516,-17.03711 z m 50.59766,0 c -9.40255,0 -17.03516,7.63456 -17.03516,17.03711 0,9.40166 7.63261,17.03516 17.03516,17.03516 9.40255,0 17.03711,-7.6335 17.03711,-17.03516 0,-9.40255 -7.63456,-17.03711 -17.03711,-17.03711 z m 49.49219,0 c -9.40255,0 -17.03711,7.63456 -17.03711,17.03711 0,9.40166 7.63456,17.03516 17.03711,17.03516 9.40254,0 17.03515,-7.6335 17.03515,-17.03516 0,-9.40255 -7.63261,-17.03711 -17.03515,-17.03711 z m -195.500003,8.51758 c 4.701273,0 8.517578,3.81826 8.517578,8.51953 0,4.70127 -3.816305,8.51758 -8.517578,8.51758 -4.701274,0 -8.517578,-3.81631 -8.517578,-8.51758 0,-4.70127 3.816304,-8.51953 8.517578,-8.51953 z m 45.914062,0 c 4.701274,0 8.517579,3.81826 8.517579,8.51953 0,4.70127 -3.816305,8.51758 -8.517579,8.51758 -4.701273,0 -8.517578,-3.81631 -8.517578,-8.51758 0,-4.70127 3.816305,-8.51953 8.517578,-8.51953 z m 49.496091,0 c 4.70128,0 8.51758,3.81826 8.51758,8.51953 0,4.70127 -3.8163,8.51758 -8.51758,8.51758 -4.70127,0 -8.51757,-3.81631 -8.51757,-8.51758 -1e-5,-4.70127 3.8163,-8.51953 8.51757,-8.51953 z m 50.59766,0 c 4.70127,0 8.51758,3.81826 8.51758,8.51953 0,4.70127 -3.81631,8.51758 -8.51758,8.51758 -4.70127,0 -8.51758,-3.81631 -8.51758,-8.51758 0,-4.70127 3.81631,-8.51953 8.51758,-8.51953 z m 49.49219,0 c 4.70127,0 8.51758,3.81826 8.51758,8.51953 -10e-6,4.70127 -3.81631,8.51758 -8.51758,8.51758 -4.70128,0 -8.51758,-3.81631 -8.51758,-8.51758 0,-4.70127 3.8163,-8.51953 8.51758,-8.51953 z"
         transform="matrix(1.1322464,0,0,1.1322464,751.16497,50.827106)" />
    </g>
    <g
       transform="matrix(-0.25833996,-0.05713889,-0.05713889,0.25833996,350.93851,81.758215)"
       id="g42"
       style="clip-rule:evenodd;fill-rule:evenodd;stroke-linecap:round;stroke-linejoin:round;stroke-miterlimit:1.5">
      <path
         d="m 1307.71,143.262 c -39.89,-18.978 -77.75,-16.041 -113.23,12.729 l 22.22,47.882 c 21.39,-28.037 43.5,-26.655 73.12,-17.672 z"
         style="fill:#b1c8cd"
         id="path16" />
      <g
         transform="matrix(0.961907,-0.286649,0.274215,0.986973,-17.5488,367.101)"
         id="g20">
        <path
           d="m 1294.46,130.689 -15.54,57.462"
           style="fill:none;stroke:#000000;stroke-width:4.86px"
           id="path18" />
      </g>
      <g
         transform="matrix(0.920344,-0.408631,0.391559,0.95476,5.29236,530.22)"
         id="g24">
        <path
           d="m 1297.29,131.046 -17.32,54.537"
           style="fill:none;stroke:#000000;stroke-width:4.85px"
           id="path22" />
      </g>
      <g
         transform="matrix(0.864202,-0.529939,0.504411,0.915663,47.8109,694.828)"
         id="g28">
        <path
           d="m 1300.72,131.995 -21.71,53.222"
           style="fill:none;stroke:#000000;stroke-width:4.85px"
           id="path26" />
      </g>
      <g
         transform="matrix(0.793767,-0.645468,0.611713,0.861813,109.966,855.867)"
         id="g32">
        <path
           d="m 1300.72,131.995 -20.25,52.743"
           style="fill:none;stroke:#000000;stroke-width:4.85px"
           id="path30" />
      </g>
      <g
         transform="matrix(0.709843,-0.753341,0.711717,0.793751,191.184,1010.8)"
         id="g36">
        <path
           d="m 1300.72,131.995 -20.57,53.536"
           style="fill:none;stroke:#000000;stroke-width:4.85px"
           id="path34" />
      </g>
      <g
         transform="matrix(0.613454,-0.851761,0.802755,0.712246,290.588,1157.15)"
         id="g40">
        <path
           d="m 1300.72,131.995 -21.8,56.156"
           style="fill:none;stroke:#000000;stroke-width:4.85px"
           id="path38" />
      </g>
    </g>
    <path
       d="M 0.26902373,41.248126 V 109.69874 H 68.093637 v -7.49829 H 12.066001 L 11.852746,63.478153 17.539965,40.502001 Z"
       style="clip-rule:evenodd;fill:#808080;fill-rule:evenodd;stroke-width:0.264583;stroke-linecap:round;stroke-linejoin:round;stroke-miterlimit:1.5"
       id="path44" />
    <g
       transform="matrix(-0.47091864,0,0,0.47091864,636.11171,-13.323773)"
       id="g104"
       style="clip-rule:evenodd;fill-rule:evenodd;stroke-linecap:round;stroke-linejoin:round;stroke-miterlimit:1.5">
      <path
         d="m 1284.77,145.347 -5.68,4.102 10.34,13.641 5.47,-4.341 0.8,1.059 c 0.54,0.827 1.15,1.159 1.98,0.395 l 1.99,-1.563 c 1.26,-1.017 1,-1.586 0.08,-2.568 l -10.88,-14.829 c -1.01,-1.581 -1.86,-1.755 -2.92,-0.703 l -2.16,1.849 c -0.69,0.619 -0.37,1.24 0.27,2.024 z"
         id="path102" />
    </g>
    <g
       transform="matrix(-0.47091864,0,0,0.47091864,635.95032,-14.161444)"
       id="g124"
       style="clip-rule:evenodd;fill-rule:evenodd;stroke-linecap:round;stroke-linejoin:round;stroke-miterlimit:1.5">
      <path
         d="m 1247.56,124.67 c 10.09,0 18.49,7.345 20.13,16.98 l 4.14,0.005 25.19,33.265 v 62.288 c 0,5.457 -4.43,9.888 -9.89,9.888 h -71.39 c -5.46,0 -9.89,-4.431 -9.89,-9.888 v -102.65 c 0,-5.457 4.43,-9.888 9.89,-9.888 z m -18.43,4.878 h 18.43 c 7.39,0 13.58,5.173 15.16,12.096 l -33.78,-0.044 z"
         style="fill:#8f0007"
         id="path122" />
    </g>
    <g
       transform="matrix(0.24516212,0,0,0.24516212,-335.60602,-11.024279)"
       id="g140"
       style="clip-rule:evenodd;fill-rule:evenodd;stroke-linecap:round;stroke-linejoin:round;stroke-miterlimit:1.5">
      <path
         d="m 1626.2,237.038 c 1.03,2.237 1.6,4.728 1.6,7.353 v 182.7 c 0,9.713 -7.88,17.599 -17.6,17.599 h -127.06 c -1.91,0 -3.75,-0.305 -5.47,-0.869 2.79,6.046 8.9,10.247 15.99,10.247 h 127.06 c 9.72,0 17.6,-7.887 17.6,-17.6 v -182.7 c 0,-7.804 -5.09,-14.428 -12.12,-16.73 z"
         style="fill:#a13b3f"
         id="path138" />
    </g>
    <g
       transform="matrix(0.23368,0,0,0.23368,-163.11515,28.624697)"
       id="g52"
       style="clip-rule:evenodd;fill-rule:evenodd;stroke-linecap:round;stroke-linejoin:round;stroke-miterlimit:1.5" />
    <g
       transform="matrix(0.23368,0,0,0.23368,-150.01933,28.624697)"
       id="g56"
       style="clip-rule:evenodd;fill-rule:evenodd;stroke-linecap:round;stroke-linejoin:round;stroke-miterlimit:1.5" />
    <g
       transform="matrix(0.23368,0,0,0.23368,-136.63195,28.624697)"
       id="g60"
       style="clip-rule:evenodd;fill-rule:evenodd;stroke-linecap:round;stroke-linejoin:round;stroke-miterlimit:1.5" />
    <g
       transform="matrix(0.23368,0,0,0.23368,-123.53745,28.624697)"
       id="g64"
       style="clip-rule:evenodd;fill-rule:evenodd;stroke-linecap:round;stroke-linejoin:round;stroke-miterlimit:1.5" />
  </g>
</svg>
