<?xml version="1.0" encoding="UTF-8" standalone="no"?>
<svg
   width="39.63628"
   height="40.278427"
   viewBox="0 0 39.63628 40.278427"
   version="1.1"
   xml:space="preserve"
   style="clip-rule:evenodd;fill-rule:evenodd;stroke-linejoin:round;stroke-miterlimit:2"
   id="svg40"
   sodipodi:docname="2023-DE-08-target.svg"
   inkscape:version="1.1.1 (3bf5ae0d25, 2021-09-20)"
   xmlns:inkscape="http://www.inkscape.org/namespaces/inkscape"
   xmlns:sodipodi="http://sodipodi.sourceforge.net/DTD/sodipodi-0.dtd"
   xmlns="http://www.w3.org/2000/svg"
   xmlns:svg="http://www.w3.org/2000/svg"><defs
   id="defs44" /><sodipodi:namedview
   id="namedview42"
   pagecolor="#ffffff"
   bordercolor="#666666"
   borderopacity="1.0"
   inkscape:pageshadow="2"
   inkscape:pageopacity="0.0"
   inkscape:pagecheckerboard="0"
   showgrid="false"
   inkscape:zoom="2.0901163"
   inkscape:cx="169.60779"
   inkscape:cy="172"
   inkscape:window-width="2048"
   inkscape:window-height="1017"
   inkscape:window-x="-8"
   inkscape:window-y="-8"
   inkscape:window-maximized="1"
   inkscape:current-layer="svg40" />
    <g
   transform="matrix(0.11711103,0,0,0.11711103,-35.775106,-60.51983)"
   id="g38">
        <g
   transform="matrix(0.942604,0,0,1.01967,42.7652,-16.9283)"
   id="g4">
            <path
   d="m 637.771,534.68 c 0,-6.222 -5.465,-11.274 -12.196,-11.274 H 290.908 c -6.731,0 -12.196,5.052 -12.196,11.274 v 314.751 c 0,6.222 5.465,11.274 12.196,11.274 h 334.667 c 6.731,0 12.196,-5.052 12.196,-11.274 z"
   style="fill:#808080"
   id="path2" />
        </g>
        <g
   transform="matrix(0.98221,0,0,1.0186,7.91441,-9.38706)"
   id="g8">
            <path
   d="m 629.567,531.281 c 0,-1.296 -1.112,-2.345 -2.484,-2.345 0,0 -304.19,-0.013 -304.19,-0.013 -1.35,0 -2.445,1.056 -2.445,2.358 l -0.013,304.19 c 0,1.309 1.101,2.37 2.458,2.37 l 304.19,0.012 c 1.365,0 2.471,-1.066 2.471,-2.382 0,0 0.013,-304.19 0.013,-304.19 z m -4.967,2.345 0.013,299.463 c -27.291,10e-4 -272.04,0.011 -299.263,0.012 -0.001,-26.818 -0.011,-272.715 -0.012,-299.463 0,0 299.262,-0.012 299.262,-0.012 z"
   style="fill:#5e5e5e"
   id="path6" />
        </g>
        <g
   transform="matrix(0.831949,0,0,0.831949,79.8008,156.818)"
   id="g12">
            <path
   d="m 482.493,583.988 c -1.592,-2.859 -4.566,-4.626 -7.787,-4.626 -3.222,0 -6.195,1.767 -7.787,4.626 -0.164,0 -102.161,179.523 -102.161,179.523 -1.599,2.811 -1.582,6.261 0.045,9.057 1.626,2.795 4.617,4.515 7.851,4.515 l 204.103,-0.062 c 3.213,0 6.183,-1.708 7.798,-4.485 1.615,-2.776 1.632,-6.202 0.044,-8.995 L 482.493,584.081 Z"
   style="fill:#ffbd00"
   id="path10" />
        </g>
        <g
   transform="matrix(0.926395,0,0,0.823502,-12.9092,167.006)"
   id="g16">
            <path
   d="m 531.776,589.508 c -1.141,-2.332 -3.289,-3.775 -5.618,-3.775 -2.329,0 -4.477,1.443 -5.619,3.775 -0.118,0 -82.427,164.723 -82.427,164.723 -1.139,2.276 -1.118,5.062 0.055,7.317 1.172,2.255 3.32,3.641 5.642,3.641 l 164.698,-0.051 c 2.306,0 4.439,-1.376 5.604,-3.616 1.164,-2.239 1.185,-5.006 0.054,-7.267 L 531.776,589.582 Z m -5.544,18.577 71.177,142.444 c 0,0 -142.422,-0.043 -142.422,-0.043 z"
   id="path14" />
        </g>
        <g
   transform="matrix(0.293358,0,0,0.293358,231.337,414.825)"
   id="g20">
            <path
   d="m 829.745,1168.67 c 16.671,0 30.206,13.75 30.206,30.68 0,16.93 -13.535,30.68 -30.206,30.68 -16.672,0 -30.207,-13.75 -30.207,-30.68 0,-16.93 13.535,-30.68 30.207,-30.68 z m 30.206,-180.214 -9.088,123.034 c -1.308,19.16 -4.957,35.26 -21.485,34.56 -13.56,0.73 -20.715,-10.85 -21.758,-34.18 l -8.082,-122.584 c -2.103,-34.099 24.493,-36.051 35.058,-34.983 13.342,1.348 25.293,14.098 25.355,34.153 z"
   id="path18" />
        </g>
        <g
   transform="translate(0.235316,7.86416)"
   id="g24">
            <rect
   x="314.67499"
   y="566.302"
   width="20.305"
   height="33.060001"
   style="fill:#5e5e5e"
   id="rect22" />
        </g>
        <g
   transform="translate(0.235316,105.907)"
   id="g28">
            <rect
   x="314.67499"
   y="566.302"
   width="20.305"
   height="33.060001"
   style="fill:#5e5e5e"
   id="rect26" />
        </g>
        <g
   transform="translate(0.235316,203.95)"
   id="g32">
            <rect
   x="314.67499"
   y="566.302"
   width="20.305"
   height="33.060001"
   style="fill:#5e5e5e"
   id="rect30" />
        </g>
        <g
   transform="matrix(0.920882,0,0,1,45.781,-41.5477)"
   id="g36">
            <path
   d="m 600.342,615.097 c 0,-4.344 -3.83,-7.871 -8.548,-7.871 h -17.096 c -4.718,0 -8.548,3.527 -8.548,7.871 v 163.812 c 0,4.345 3.83,7.872 8.548,7.872 h 17.096 c 4.718,0 8.548,-3.527 8.548,-7.872 z"
   style="fill:#5e5e5e"
   id="path34" />
        </g>
    </g>
</svg>
