<?xml version="1.0" encoding="UTF-8" standalone="no"?>
<!-- Created with Inkscape (http://www.inkscape.org/) -->

<svg
   width="9.2824545mm"
   height="11.477313mm"
   viewBox="0 0 9.2824549 11.477313"
   version="1.1"
   id="svg1052"
   inkscape:version="1.1.1 (3bf5ae0d25, 2021-09-20)"
   sodipodi:docname="2023-DE-08a-tank31.svg"
   xmlns:inkscape="http://www.inkscape.org/namespaces/inkscape"
   xmlns:sodipodi="http://sodipodi.sourceforge.net/DTD/sodipodi-0.dtd"
   xmlns="http://www.w3.org/2000/svg"
   xmlns:svg="http://www.w3.org/2000/svg">
  <sodipodi:namedview
     id="namedview1054"
     pagecolor="#ffffff"
     bordercolor="#666666"
     borderopacity="1.0"
     inkscape:pageshadow="2"
     inkscape:pageopacity="0.0"
     inkscape:pagecheckerboard="0"
     inkscape:document-units="mm"
     showgrid="false"
     inkscape:zoom="5.1241863"
     inkscape:cx="39.713622"
     inkscape:cy="29.56567"
     inkscape:window-width="2048"
     inkscape:window-height="1017"
     inkscape:window-x="-8"
     inkscape:window-y="-8"
     inkscape:window-maximized="1"
     inkscape:current-layer="layer1" />
  <defs
     id="defs1049" />
  <g
     inkscape:label="Ebene 1"
     inkscape:groupmode="layer"
     id="layer1"
     transform="translate(-129.19465,-121.07498)">
    <g
       id="g920"
       transform="matrix(0.26458333,0,0,0.26458333,74.248525,120.37351)">
      <g
         id="g3787"
         style="clip-rule:evenodd;fill-rule:evenodd;stroke-linecap:round;stroke-linejoin:round;stroke-miterlimit:1.5"
         transform="matrix(0.18451921,0,0,0.18451921,-4.8403793,-107.83139)">
        <path
           d="m 1258.3448,623.99871 19.27,-15.373 c 2.49,-1.983 6.03,-1.946 8.48,0.089 L 1339.42,655.864 c 2.1,1.75 2.93,4.601 2.09,7.206 l -8.31,25.891 7.79,6.471 -36.15,130.01461 H 1187.85 L 1151.7,695.432 l 94.4548,-81.56229 z m 10.53,8.755 53.2052,46.96629 5.28,-16.441 -45.6552,-40.75729 z"
           style="fill:#5f8541;fill-opacity:1"
           id="path2-1"
           sodipodi:nodetypes="ccccccccccccccccc" />
        <g
           transform="matrix(0.906508,0,0,0.906508,116.213,69.7515)"
           id="g6">
          <path
             d="m 1298.75,816.66439 42.24,-121.23239 -36.15,130.30139 h -116.99 l -2.57,-9.069 z"
             style="fill:#6f964e;fill-opacity:1"
             id="path4"
             sodipodi:nodetypes="cccccc" />
        </g>
        <g
           transform="matrix(-1.72911,-0.421926,-0.421926,1.72911,3485.66,928.413)"
           id="g116">
          <path
             d="m 1284.8369,143.93261 -5.8053,3.92274 9.9092,13.95706 5.6029,-4.16818 0.7665,1.08345 c 0.5139,0.84345 1.1133,1.19433 1.9667,0.45661 l 2.0378,-1.50014 c 1.2912,-0.97718 1.049,-1.55401 0.1601,-2.56425 l -10.4119,-15.16133 c -0.9601,-1.61175 -1.8043,-1.81219 -2.8966,-0.79379 l -2.2167,1.78069 c -0.7089,0.59716 -0.4085,1.22785 0.2068,2.03144 z"
             id="path114"
             sodipodi:nodetypes="ccccccccccccc" />
        </g>
        <rect
           x="1210.88"
           y="719.73199"
           width="0.38"
           height="0.149"
           style="fill:#ffcb1e"
           id="rect142" />
        <g
           transform="matrix(8.16672,0,0,8.16672,-6480.91,-898.469)"
           id="g162">
          <text
             x="939.54901"
             y="207.414"
             style="font-size:24px;font-family:ArialMT, Arial, sans-serif;fill:#ffffff"
             id="text160">3</text>
        </g>
      </g>
    </g>
  </g>
</svg>
