<?xml version="1.0" encoding="UTF-8" standalone="no"?>
<!-- Created with Inkscape (http://www.inkscape.org/) -->

<svg
   width="20.088755mm"
   height="13.39241mm"
   viewBox="0 0 20.088755 13.39241"
   version="1.1"
   id="svg1129"
   inkscape:version="1.1.1 (3bf5ae0d25, 2021-09-20)"
   sodipodi:docname="2023-AU-05-brick1.svg"
   xmlns:inkscape="http://www.inkscape.org/namespaces/inkscape"
   xmlns:sodipodi="http://sodipodi.sourceforge.net/DTD/sodipodi-0.dtd"
   xmlns="http://www.w3.org/2000/svg"
   xmlns:svg="http://www.w3.org/2000/svg">
  <sodipodi:namedview
     id="namedview1131"
     pagecolor="#ffffff"
     bordercolor="#666666"
     borderopacity="1.0"
     inkscape:pageshadow="2"
     inkscape:pageopacity="0.0"
     inkscape:pagecheckerboard="0"
     inkscape:document-units="mm"
     showgrid="false"
     inkscape:zoom="0.64052329"
     inkscape:cx="341.12733"
     inkscape:cy="56.984657"
     inkscape:window-width="2048"
     inkscape:window-height="1017"
     inkscape:window-x="-8"
     inkscape:window-y="-8"
     inkscape:window-maximized="1"
     inkscape:current-layer="layer1" />
  <defs
     id="defs1126" />
  <g
     inkscape:label="Ebene 1"
     inkscape:groupmode="layer"
     id="layer1"
     transform="translate(-14.609379,-133.22894)">
    <path
       d="m 22.96201,146.62135 h -8.352631 v -13.39241 h 20.088754 v 13.39241 h -8.352367 c 0,-0.93371 -0.758296,-1.69174 -1.69201,-1.69174 -0.933715,0 -1.691746,0.75803 -1.691746,1.69174 z"
       style="clip-rule:evenodd;fill:#086a93;fill-rule:evenodd;stroke-width:0.264583;stroke-linejoin:round;stroke-miterlimit:2"
       id="path2" />
    <g
       transform="matrix(0.12597262,0,0,0.12597262,-46.216212,94.229355)"
       id="g50"
       style="clip-rule:evenodd;fill-rule:evenodd;stroke-linejoin:round;stroke-miterlimit:2">
      <g
         transform="matrix(0.607079,0,0,0.225668,335.844,267.746)"
         id="g24">
        <path
           d="M 419.298,260 417.343,226.994 415.247,260 v 86.241 l 2.026,33.129 2.025,-33.129 z"
           style="fill:#5ab1d6"
           id="path22" />
      </g>
      <g
         transform="matrix(0.607079,0,0,0.225668,282.687,267.746)"
         id="g28">
        <path
           d="M 419.298,260 417.343,226.994 415.247,260 v 86.241 l 2.026,33.129 2.025,-33.129 z"
           style="fill:#5ab1d6"
           id="path26" />
      </g>
      <g
         transform="matrix(0,0.607079,-0.225668,0,577.845,109.425)"
         id="g32">
        <path
           d="M 419.298,260 417.343,226.994 415.247,260 v 86.241 l 2.026,33.129 2.025,-33.129 z"
           style="fill:#5ab1d6"
           id="path30" />
      </g>
      <g
         transform="matrix(0,0.607079,-0.225668,0,631.001,109.425)"
         id="g36">
        <path
           d="M 419.298,260 417.343,226.994 415.247,260 v 86.241 l 2.026,33.129 2.025,-33.129 z"
           style="fill:#5ab1d6"
           id="path34" />
      </g>
      <g
         transform="matrix(0,0.607079,-0.225668,0,684.158,109.425)"
         id="g40">
        <path
           d="M 419.298,260 417.343,226.994 415.247,260 v 86.241 l 2.026,33.129 2.025,-33.129 z"
           style="fill:#5ab1d6"
           id="path38" />
      </g>
      <g
         transform="matrix(0.607079,0,0,0.225668,282.687,320.903)"
         id="g44">
        <path
           d="M 419.298,260 417.343,226.994 415.247,260 v 86.241 l 2.026,33.129 2.025,-33.129 z"
           style="fill:#5ab1d6"
           id="path42" />
      </g>
      <g
         transform="matrix(0.607079,0,0,0.225668,335.844,320.903)"
         id="g48">
        <path
           d="M 419.298,260 417.343,226.994 415.247,260 v 86.241 l 2.026,33.129 2.025,-33.129 z"
           style="fill:#5ab1d6"
           id="path46" />
      </g>
    </g>
  </g>
</svg>
