<?xml version="1.0" encoding="UTF-8" standalone="no"?>
<!-- Created with Inkscape (http://www.inkscape.org/) -->

<svg
   width="20.088854mm"
   height="20.088854mm"
   viewBox="0 0 20.088854 20.088853"
   version="1.1"
   id="svg1129"
   inkscape:version="1.1.1 (3bf5ae0d25, 2021-09-20)"
   sodipodi:docname="2023-AU-05-brick2.svg"
   xmlns:inkscape="http://www.inkscape.org/namespaces/inkscape"
   xmlns:sodipodi="http://sodipodi.sourceforge.net/DTD/sodipodi-0.dtd"
   xmlns="http://www.w3.org/2000/svg"
   xmlns:svg="http://www.w3.org/2000/svg">
  <sodipodi:namedview
     id="namedview1131"
     pagecolor="#ffffff"
     bordercolor="#666666"
     borderopacity="1.0"
     inkscape:pageshadow="2"
     inkscape:pageopacity="0.0"
     inkscape:pagecheckerboard="0"
     inkscape:document-units="mm"
     showgrid="false"
     inkscape:zoom="0.64052329"
     inkscape:cx="94.454021"
     inkscape:cy="-119.4336"
     inkscape:window-width="2048"
     inkscape:window-height="1017"
     inkscape:window-x="-8"
     inkscape:window-y="-8"
     inkscape:window-maximized="1"
     inkscape:current-layer="layer1" />
  <defs
     id="defs1126" />
  <g
     inkscape:label="Ebene 1"
     inkscape:groupmode="layer"
     id="layer1"
     transform="translate(-79.744365,-179.77562)">
    <g
       transform="matrix(0.12597262,0,0,0.12597262,-8.0989862,147.47246)"
       id="g102"
       style="clip-rule:evenodd;fill-rule:evenodd;stroke-linejoin:round;stroke-miterlimit:2">
      <rect
         x="697.32098"
         y="256.42999"
         width="159.47"
         height="159.47"
         style="fill:#086a93"
         id="rect52" />
      <g
         transform="matrix(0.607079,0,0,0.225668,550.317,267.746)"
         id="g56">
        <path
           d="M 419.298,260 417.343,226.994 415.247,260 v 86.241 l 2.026,33.129 2.025,-33.129 z"
           style="fill:#5ab1d6"
           id="path54" />
      </g>
      <g
         transform="matrix(0.607079,0,0,0.225668,550.317,214.59)"
         id="g60">
        <path
           d="M 419.298,260 417.343,226.994 415.247,260 v 86.241 l 2.026,33.129 2.025,-33.129 z"
           style="fill:#5ab1d6"
           id="path58" />
      </g>
      <g
         transform="matrix(0.607079,0,0,0.225668,497.16,267.746)"
         id="g64">
        <path
           d="M 419.298,260 417.343,226.994 415.247,260 v 86.241 l 2.026,33.129 2.025,-33.129 z"
           style="fill:#5ab1d6"
           id="path62" />
      </g>
      <g
         transform="matrix(0.607079,0,0,0.225668,497.16,214.59)"
         id="g68">
        <path
           d="M 419.298,260 417.343,226.994 415.247,260 v 86.241 l 2.026,33.129 2.025,-33.129 z"
           style="fill:#5ab1d6"
           id="path66" />
      </g>
      <g
         transform="matrix(0,0.607079,-0.225668,0,792.318,109.425)"
         id="g72">
        <path
           d="M 419.298,260 417.343,226.994 415.247,260 v 86.241 l 2.026,33.129 2.025,-33.129 z"
           style="fill:#5ab1d6"
           id="path70" />
      </g>
      <g
         transform="matrix(0,0.607079,-0.225668,0,793.547,56.2687)"
         id="g76">
        <path
           d="M 419.298,260 417.343,226.994 415.247,260 v 86.241 l 2.026,33.129 2.025,-33.129 z"
           style="fill:#5ab1d6"
           id="path74" />
      </g>
      <g
         transform="matrix(0,0.607079,-0.225668,0,845.475,109.425)"
         id="g80">
        <path
           d="M 419.298,260 417.343,226.994 415.247,260 v 86.241 l 2.026,33.129 2.025,-33.129 z"
           style="fill:#5ab1d6"
           id="path78" />
      </g>
      <g
         transform="matrix(0,0.607079,-0.225668,0,846.704,56.2687)"
         id="g84">
        <path
           d="M 419.298,260 417.343,226.994 415.247,260 v 86.241 l 2.026,33.129 2.025,-33.129 z"
           style="fill:#5ab1d6"
           id="path82" />
      </g>
      <g
         transform="matrix(0,0.607079,-0.225668,0,898.631,109.425)"
         id="g88">
        <path
           d="M 419.298,260 417.343,226.994 415.247,260 v 86.241 l 2.026,33.129 2.025,-33.129 z"
           style="fill:#5ab1d6"
           id="path86" />
      </g>
      <g
         transform="matrix(0,0.607079,-0.225668,0,899.861,56.2687)"
         id="g92">
        <path
           d="M 419.298,260 417.343,226.994 415.247,260 v 86.241 l 2.026,33.129 2.025,-33.129 z"
           style="fill:#5ab1d6"
           id="path90" />
      </g>
      <g
         transform="matrix(0.607079,0,0,0.225668,497.16,320.903)"
         id="g96">
        <path
           d="M 419.298,260 417.343,226.994 415.247,260 v 86.241 l 2.026,33.129 2.025,-33.129 z"
           style="fill:#5ab1d6"
           id="path94" />
      </g>
      <g
         transform="matrix(0.607079,0,0,0.225668,550.317,320.903)"
         id="g100">
        <path
           d="M 419.298,260 417.343,226.994 415.247,260 v 86.241 l 2.026,33.129 2.025,-33.129 z"
           style="fill:#5ab1d6"
           id="path98" />
      </g>
    </g>
  </g>
</svg>
