<?xml version="1.0" encoding="UTF-8" standalone="no"?>
<!-- Created with Inkscape (http://www.inkscape.org/) -->

<svg
   width="20.088854mm"
   height="8.3881388mm"
   viewBox="0 0 20.088853 8.3881383"
   version="1.1"
   id="svg1129"
   inkscape:version="1.1.1 (3bf5ae0d25, 2021-09-20)"
   sodipodi:docname="2023-AU-05-brick5.svg"
   xmlns:inkscape="http://www.inkscape.org/namespaces/inkscape"
   xmlns:sodipodi="http://sodipodi.sourceforge.net/DTD/sodipodi-0.dtd"
   xmlns="http://www.w3.org/2000/svg"
   xmlns:svg="http://www.w3.org/2000/svg">
  <sodipodi:namedview
     id="namedview1131"
     pagecolor="#ffffff"
     bordercolor="#666666"
     borderopacity="1.0"
     inkscape:pageshadow="2"
     inkscape:pageopacity="0.0"
     inkscape:pagecheckerboard="0"
     inkscape:document-units="mm"
     showgrid="false"
     inkscape:zoom="0.64052329"
     inkscape:cx="-185.00498"
     inkscape:cy="-278.67839"
     inkscape:window-width="2048"
     inkscape:window-height="1017"
     inkscape:window-x="-8"
     inkscape:window-y="-8"
     inkscape:window-maximized="1"
     inkscape:current-layer="layer1" />
  <defs
     id="defs1126" />
  <g
     inkscape:label="Ebene 1"
     inkscape:groupmode="layer"
     id="layer1"
     transform="translate(-153.37916,-221.63206)">
    <g
       transform="matrix(0.12597262,0,0,0.12597262,125.24544,153.48742)"
       id="g151"
       style="clip-rule:evenodd;fill-rule:evenodd;stroke-linejoin:round;stroke-miterlimit:2">
      <path
         d="m 223.332,607.535 v -53.157 h 39.726 c 0,-7.412 6.018,-13.43 13.43,-13.43 7.413,0 13.431,6.018 13.431,13.43 h 26.295 c 0,-7.412 6.018,-13.43 13.431,-13.43 7.412,0 13.43,6.018 13.43,13.43 h 39.727 v 53.157 z"
         style="fill:#086a93"
         id="path141" />
      <g
         transform="matrix(0.607079,0,0,0.196057,76.3273,521.515)"
         id="g145">
        <path
           d="m 419.227,240.571 -1.954,-33.006 -2.096,33.006 0.07,121.734 2.026,33.128 2.025,-33.128 z"
           style="fill:#5ab1d6"
           id="path143" />
      </g>
      <g
         transform="matrix(0.607079,0,0,0.196057,23.1707,521.515)"
         id="g149">
        <path
           d="m 419.227,240.571 -1.954,-33.006 -2.096,33.006 0.07,121.734 2.026,33.128 2.025,-33.128 z"
           style="fill:#5ab1d6"
           id="path147" />
      </g>
    </g>
  </g>
</svg>
