<?xml version="1.0" encoding="UTF-8" standalone="no"?>
<!-- Created with Inkscape (http://www.inkscape.org/) -->

<svg
   width="6.6480165mm"
   height="6.6480165mm"
   viewBox="0 0 6.6480165 6.6480165"
   version="1.1"
   id="svg4567"
   inkscape:version="1.1.1 (3bf5ae0d25, 2021-09-20)"
   sodipodi:docname="2023-HU-37-symbol-cave.svg"
   xmlns:inkscape="http://www.inkscape.org/namespaces/inkscape"
   xmlns:sodipodi="http://sodipodi.sourceforge.net/DTD/sodipodi-0.dtd"
   xmlns="http://www.w3.org/2000/svg"
   xmlns:svg="http://www.w3.org/2000/svg">
  <sodipodi:namedview
     id="namedview4569"
     pagecolor="#ffffff"
     bordercolor="#666666"
     borderopacity="1.0"
     inkscape:pageshadow="2"
     inkscape:pageopacity="0.0"
     inkscape:pagecheckerboard="0"
     inkscape:document-units="mm"
     showgrid="false"
     inkscape:zoom="0.64052329"
     inkscape:cx="103.82136"
     inkscape:cy="264.62738"
     inkscape:window-width="2048"
     inkscape:window-height="1017"
     inkscape:window-x="-8"
     inkscape:window-y="-8"
     inkscape:window-maximized="1"
     inkscape:current-layer="layer1" />
  <defs
     id="defs4564" />
  <g
     inkscape:label="Ebene 1"
     inkscape:groupmode="layer"
     id="layer1"
     transform="translate(-77.638437,-78.464586)">
    <g
       transform="matrix(0.01692865,0,0,0.01692865,55.89147,74.627369)"
       id="g42"
       style="clip-rule:evenodd;fill-rule:evenodd;stroke-linejoin:round;stroke-miterlimit:2">
      <g
         transform="translate(564.575,123.011)"
         id="g26">
        <circle
           cx="916.40399"
           cy="300.013"
           r="196.354"
           style="fill:#1e88e5;fill-opacity:1"
           id="circle24" />
      </g>
      <g
         transform="matrix(1.80112,-0.933949,0.933949,1.80112,-1885.41,1587.22)"
         id="g30">
        <path
           d="m 1712.53,251.51 -7.85,9.821 c -0.28,0.352 -0.44,0.788 -0.44,1.239 v 2.109 c 0,1.095 0.89,1.983 1.99,1.983 h 13.58 c 1.09,0 1.98,-0.888 1.98,-1.983 v -2.027 c 0,-1.096 -0.89,-1.984 -1.98,-1.984 h -6.75 l 8.01,-9.894 c 0.29,-0.353 0.44,-0.793 0.44,-1.247 v -2.028 c 0,-1.095 -0.89,-1.983 -1.98,-1.983 h -12.31 c -1.09,0 -1.98,0.888 -1.98,1.983 v 2.028 c 0,1.095 0.89,1.983 1.98,1.983 z"
           style="fill:#ffffff;fill-rule:nonzero"
           id="path28" />
      </g>
      <g
         transform="matrix(2.08925,-1.90094,2.12091,2.33101,-2634.89,3052.41)"
         id="g34">
        <path
           d="m 1712.53,251.51 -7.85,9.821 c -0.28,0.352 -0.44,0.788 -0.44,1.239 v 2.109 c 0,1.095 0.89,1.983 1.99,1.983 h 13.58 c 1.09,0 1.98,-0.888 1.98,-1.983 v -2.027 c 0,-1.096 -0.89,-1.984 -1.98,-1.984 h -6.75 l 8.01,-9.894 c 0.29,-0.353 0.44,-0.793 0.44,-1.247 v -2.028 c 0,-1.095 -0.89,-1.983 -1.98,-1.983 h -12.31 c -1.09,0 -1.98,0.888 -1.98,1.983 v 2.028 c 0,1.095 0.89,1.983 1.98,1.983 z"
           style="fill:#ffffff;fill-rule:nonzero"
           id="path32" />
      </g>
      <g
         transform="matrix(2.60692,-4.30811,4.01773,2.7405,-3943.9,6986.88)"
         id="g38">
        <path
           d="m 1712.53,251.51 -7.85,9.821 c -0.28,0.352 -0.44,0.788 -0.44,1.239 v 2.109 c 0,1.095 0.89,1.983 1.99,1.983 h 13.58 c 1.09,0 1.98,-0.888 1.98,-1.983 v -2.027 c 0,-1.096 -0.89,-1.984 -1.98,-1.984 h -6.75 l 8.01,-9.894 c 0.29,-0.353 0.44,-0.793 0.44,-1.247 v -2.028 c 0,-1.095 -0.89,-1.983 -1.98,-1.983 h -12.31 c -1.09,0 -1.98,0.888 -1.98,1.983 v 2.028 c 0,1.095 0.89,1.983 1.98,1.983 z"
           style="fill:#ffffff;fill-rule:nonzero"
           id="path36" />
      </g>
      <path
         d="m 1603.11,340.954 c 44.15,33.94 45.03,88.081 50.77,127.53 -20.13,76.672 -89.96,133.285 -172.9,133.285 -65.48,0 -122.77,-35.285 -153.91,-87.843 v -0.001 c 0,-80.992 28.2,-126.113 58.13,-163.445 25.48,-31.782 79.36,-63.365 105.74,-61.647 l -6.5,10.731 c -5.64,9.33 -2.94,21.658 5.76,27.593 0,0 8.15,5.556 8.15,5.556 9.19,6.273 21.55,3.627 27.51,-6.233 l 2.21,-3.647 12.28,39.301 c 1.37,4.396 4.15,8.121 7.8,10.615 0,0 8.48,5.781 8.48,5.781 9.2,6.272 21.55,3.626 27.51,-6.234 z m -63.28,61.433 c 0.45,-5.434 -1.26,-11.155 -5.43,-15.745 0,0 -4.3,-4.726 -4.3,-4.726 -5.87,-6.452 -14.43,-8.261 -21.67,-5.911 l -1.36,-12.28 c -0.48,-4.318 -2.35,-8.523 -5.4,-11.869 0,0 -4.3,-4.725 -4.3,-4.725 -7.97,-8.762 -20.89,-8.961 -28.74,-1.816 0,0 -25.71,23.391 -25.71,23.391 -5.87,5.34 -7.92,13.884 -5.25,21.518 -23.5,14.232 -39.17,39.686 -39.17,68.692 0,44.551 36.96,87.295 82.48,87.295 45.52,0 109.33,-52.931 109.33,-97.481 0,-22.003 -35.87,-31.776 -50.48,-46.343 z"
         style="fill:#ffffff"
         id="path40" />
    </g>
  </g>
</svg>
