<?xml version="1.0" encoding="UTF-8" standalone="no"?>
<!DOCTYPE svg PUBLIC "-//W3C//DTD SVG 1.1//EN" "http://www.w3.org/Graphics/SVG/1.1/DTD/svg11.dtd">
<svg width="100%" height="100%" viewBox="0 0 851 876" version="1.1" xmlns="http://www.w3.org/2000/svg" xmlns:xlink="http://www.w3.org/1999/xlink" xml:space="preserve" xmlns:serif="http://www.serif.com/" style="fill-rule:evenodd;clip-rule:evenodd;stroke-linejoin:round;stroke-miterlimit:2;">
    <g transform="matrix(1,0,0,1,-726.84,-168.035)">
        <g>
            <g transform="matrix(1,0,0,1,6.78948,64.376)">
                <circle cx="916.404" cy="300.013" r="196.354" style="fill:rgb(255,128,0);"/>
            </g>
            <g transform="matrix(0.584157,0,0,0.584157,319.76,171.248)">
                <path d="M819.465,331.582C807.9,331.582 798.511,340.972 798.511,352.537L798.511,372.697C798.511,372.697 798.57,386.785 809.746,386.584C819.975,386.401 824.042,399.594 824.329,403.175L825.582,467.449C825.582,479.014 826.45,492.094 838.015,492.094L861.374,492.094C872.939,492.094 882.328,482.705 882.328,471.14L882.328,352.537C882.328,340.972 872.939,331.582 861.374,331.582L819.465,331.582ZM1119.23,330.631C1130.79,330.631 1140.18,340.02 1140.18,351.585L1140.18,371.745C1140.18,371.745 1140.12,385.833 1128.95,385.633C1118.72,385.449 1114.65,398.642 1114.36,402.223L1113.11,466.498C1113.11,478.063 1112.24,491.142 1100.68,491.142L1077.32,491.142C1065.75,491.142 1056.37,481.753 1056.37,470.188L1056.37,351.585C1056.37,340.02 1065.75,330.631 1077.32,330.631L1119.23,330.631Z" style="fill:white;"/>
            </g>
            <g transform="matrix(0.584157,0,0,0.584157,324.359,173.21)">
                <path d="M1036.57,427.646L886.379,428.598L886.379,467.781C886.379,485.927 871.647,500.659 853.501,500.659L833.393,500.659C833.669,513.583 844.246,523.988 857.234,523.988L1065.71,523.036C1078.7,523.036 1089.28,512.631 1089.56,499.708L1069.45,499.708C1051.3,499.708 1036.57,484.975 1036.57,466.829L1036.57,427.646Z" style="fill:white;"/>
            </g>
            <g transform="matrix(0.584157,0,0,0.584157,324.359,173.21)">
                <path d="M827.267,310.582C827.229,311.126 827.418,311.662 827.79,312.061C828.162,312.459 828.683,312.686 829.228,312.686L853.501,312.686C873.642,312.686 889.993,329.037 889.993,349.178C889.993,349.178 889.993,411.095 889.993,411.095C889.993,412.18 890.873,413.06 891.959,413.06L1030.99,412.109C1032.07,412.109 1032.95,411.229 1032.95,410.143L1032.95,348.226C1032.95,328.086 1049.31,311.734 1069.45,311.734C1069.45,311.734 1093.72,311.734 1093.72,311.734C1094.27,311.734 1094.79,311.508 1095.16,311.109C1095.53,310.71 1095.72,310.175 1095.68,309.631C1091.19,245.833 1026.4,196.536 961.474,196.536C930.405,196.536 890.463,207.902 868.807,226.936C845.207,247.679 829.608,277.313 827.267,310.582ZM894.954,272.764C896.987,266.739 899.978,262.635 904.021,260.639L905.752,261.897C901.509,264.106 898.355,268.013 896.612,274.12C897.728,275.361 898.407,277.001 898.407,278.799C898.407,279.4 898.331,279.984 898.188,280.542C903.642,280.889 908.45,283.63 912.708,288.401L912.047,290.435C908.196,285.465 903.353,282.694 897.339,282.515C896.281,284.2 894.525,285.402 892.478,285.717C893.461,290.618 892.67,295.284 890.58,299.778L888.441,299.778C889.839,297.246 890.795,294.574 890.99,291.656C891.114,289.786 890.926,287.815 890.339,285.717C888.292,285.402 886.535,284.2 885.477,282.515C880.257,282.455 875.312,283.594 870.799,286.617L870.138,284.583C874.357,282.123 879.117,280.647 884.628,280.542C884.485,279.984 884.409,279.4 884.409,278.799C884.409,277.001 885.088,275.361 886.204,274.12C885.6,269.183 882.922,265.14 877.558,262.258L879.289,261C883.965,264.221 886.609,268.225 887.863,272.764C888.903,272.151 890.115,271.8 891.408,271.8C892.701,271.8 893.913,272.151 894.954,272.764ZM1035.09,271.812C1036.66,266.377 1038.97,262.291 1042.82,261.038L1044.55,262.296C1039.89,263.402 1037.53,267.323 1036.74,273.168C1037.86,274.409 1038.54,276.049 1038.54,277.847C1038.54,278.449 1038.46,279.032 1038.32,279.59C1041.83,283.1 1046.34,284.366 1051.57,284.021L1050.91,286.055C1045.83,286.181 1041.25,284.977 1037.47,281.563C1036.41,283.248 1034.66,284.451 1032.61,284.765C1034.52,288.617 1035.15,292.746 1033.62,297.345L1031.48,297.345C1033.29,293.571 1033.24,289.434 1030.47,284.765C1028.42,284.451 1026.67,283.248 1025.61,281.563C1021.75,285.086 1017.27,286.896 1011.93,286.324L1011.26,284.29C1016.78,285.497 1021.25,283.846 1024.76,279.59C1024.62,279.032 1024.54,278.449 1024.54,277.847C1024.54,276.049 1025.22,274.409 1026.34,273.168C1022.51,270.101 1018.83,266.937 1017.2,262.354L1019.26,260.964C1020.06,265.791 1023.51,269.094 1027.99,271.812C1029.03,271.199 1030.25,270.848 1031.54,270.848C1032.83,270.848 1034.05,271.199 1035.09,271.812Z" style="fill:white;"/>
            </g>
            <g transform="matrix(0.584157,0,0,0.584157,282.443,173.21)">
                <path d="M1247.25,505.396L1247.25,210.612L1225.15,210.612L1225.15,505.396L1197.51,505.396C1193.51,505.396 1190.26,508.647 1190.26,512.652L1190.26,516.731C1190.26,520.736 1193.51,523.988 1197.51,523.988L1274.89,523.988C1278.89,523.988 1282.14,520.736 1282.14,516.731L1282.14,512.652C1282.14,508.647 1278.89,505.396 1274.89,505.396L1247.25,505.396ZM1311.09,205.991L1161.31,205.991L1198.76,82.936L1273.64,82.936L1311.09,205.991Z" style="fill:white;"/>
            </g>
        </g>
        <g transform="matrix(1,0,0,1,-100.477,-58.6345)">
            <g transform="matrix(1,0,0,1,564.575,123.011)">
                <circle cx="916.404" cy="300.013" r="196.354" style="fill:rgb(99,68,60);"/>
            </g>
            <g transform="matrix(1.80112,-0.933949,0.933949,1.80112,-1885.41,1587.22)">
                <path d="M1712.53,251.51L1704.68,261.331C1704.4,261.683 1704.24,262.119 1704.24,262.57L1704.24,264.679C1704.24,265.774 1705.13,266.662 1706.23,266.662L1719.81,266.662C1720.9,266.662 1721.79,265.774 1721.79,264.679L1721.79,262.652C1721.79,261.556 1720.9,260.668 1719.81,260.668L1713.06,260.668L1721.07,250.774C1721.36,250.421 1721.51,249.981 1721.51,249.527L1721.51,247.499C1721.51,246.404 1720.62,245.516 1719.53,245.516L1707.22,245.516C1706.13,245.516 1705.24,246.404 1705.24,247.499L1705.24,249.527C1705.24,250.622 1706.13,251.51 1707.22,251.51L1712.53,251.51Z" style="fill:white;fill-rule:nonzero;"/>
            </g>
            <g transform="matrix(2.08925,-1.90094,2.12091,2.33101,-2634.89,3052.41)">
                <path d="M1712.53,251.51L1704.68,261.331C1704.4,261.683 1704.24,262.119 1704.24,262.57L1704.24,264.679C1704.24,265.774 1705.13,266.662 1706.23,266.662L1719.81,266.662C1720.9,266.662 1721.79,265.774 1721.79,264.679L1721.79,262.652C1721.79,261.556 1720.9,260.668 1719.81,260.668L1713.06,260.668L1721.07,250.774C1721.36,250.421 1721.51,249.981 1721.51,249.527L1721.51,247.499C1721.51,246.404 1720.62,245.516 1719.53,245.516L1707.22,245.516C1706.13,245.516 1705.24,246.404 1705.24,247.499L1705.24,249.527C1705.24,250.622 1706.13,251.51 1707.22,251.51L1712.53,251.51Z" style="fill:white;fill-rule:nonzero;"/>
            </g>
            <g transform="matrix(2.60692,-4.30811,4.01773,2.7405,-3943.9,6986.88)">
                <path d="M1712.53,251.51L1704.68,261.331C1704.4,261.683 1704.24,262.119 1704.24,262.57L1704.24,264.679C1704.24,265.774 1705.13,266.662 1706.23,266.662L1719.81,266.662C1720.9,266.662 1721.79,265.774 1721.79,264.679L1721.79,262.652C1721.79,261.556 1720.9,260.668 1719.81,260.668L1713.06,260.668L1721.07,250.774C1721.36,250.421 1721.51,249.981 1721.51,249.527L1721.51,247.499C1721.51,246.404 1720.62,245.516 1719.53,245.516L1707.22,245.516C1706.13,245.516 1705.24,246.404 1705.24,247.499L1705.24,249.527C1705.24,250.622 1706.13,251.51 1707.22,251.51L1712.53,251.51Z" style="fill:white;fill-rule:nonzero;"/>
            </g>
            <path d="M1603.11,340.954C1647.26,374.894 1648.14,429.035 1653.88,468.484C1633.75,545.156 1563.92,601.769 1480.98,601.769C1415.5,601.769 1358.21,566.484 1327.07,513.926L1327.07,513.925C1327.07,432.933 1355.27,387.812 1385.2,350.48C1410.68,318.698 1464.56,287.115 1490.94,288.833L1484.44,299.564C1478.8,308.894 1481.5,321.222 1490.2,327.157C1490.2,327.157 1498.35,332.713 1498.35,332.713C1507.54,338.986 1519.9,336.34 1525.86,326.48L1528.07,322.833L1540.35,362.134C1541.72,366.53 1544.5,370.255 1548.15,372.749C1548.15,372.749 1556.63,378.53 1556.63,378.53C1565.83,384.802 1578.18,382.156 1584.14,372.296L1603.11,340.954ZM1539.83,402.387C1540.28,396.953 1538.57,391.232 1534.4,386.642C1534.4,386.642 1530.1,381.916 1530.1,381.916C1524.23,375.464 1515.67,373.655 1508.43,376.005L1507.07,363.725C1506.59,359.407 1504.72,355.202 1501.67,351.856C1501.67,351.856 1497.37,347.131 1497.37,347.131C1489.4,338.369 1476.48,338.17 1468.63,345.315C1468.63,345.315 1442.92,368.706 1442.92,368.706C1437.05,374.046 1435,382.59 1437.67,390.224C1414.17,404.456 1398.5,429.91 1398.5,458.916C1398.5,503.467 1435.46,546.211 1480.98,546.211C1526.5,546.211 1590.31,493.28 1590.31,448.73C1590.31,426.727 1554.44,416.954 1539.83,402.387Z" style="fill:white;"/>
        </g>
        <g transform="matrix(1,0,0,1,222.618,-29.0024)">
            <g transform="matrix(1,0,0,1,-215.828,576.211)">
                <circle cx="916.404" cy="300.013" r="196.354" style="fill:rgb(85,215,234);"/>
            </g>
            <path d="M775.167,984.223L655.519,984.223L655.519,740.448L715.343,740.448L775.167,984.223ZM638.945,943.998L564.197,943.998L564.197,984.223L638.945,984.223L638.945,943.998ZM853.432,932.415C853.124,932.25 852.315,931.806 851.823,931.437C850.711,930.603 849.576,929.594 848.47,928.682C845.388,926.141 842.276,924.655 839.933,925.016C837.683,925.363 835.285,927.078 832.946,929.374C832.079,930.225 831.202,931.142 830.306,931.934C829.728,932.444 829.22,933.08 828.604,933.086C828.069,933.092 827.556,932.619 826.976,932.214C825.661,931.298 824.319,930.103 822.98,929.039C820.269,926.883 817.496,925.334 814.971,925.246C812.349,925.154 809.604,926.509 806.995,928.49C805.712,929.465 804.455,930.575 803.255,931.442C802.94,931.67 802.444,931.949 802.187,932.087C801.816,931.873 800.86,931.306 800.324,930.858C798.415,929.261 796.793,927.257 796.793,927.257C795.862,926.105 794.618,925.465 793.327,925.472L780.79,925.541L780.833,938.346L791.481,938.287C792.718,939.622 794.536,941.432 796.392,942.746C798.411,944.176 800.513,944.987 802.257,944.968C804.441,944.945 806.986,943.563 809.558,941.511C810.704,940.597 811.887,939.562 813.09,938.779C813.638,938.422 814.156,938.027 814.701,938.046C815.312,938.067 815.906,938.568 816.557,939.028C817.898,939.976 819.256,941.185 820.599,942.247C823.365,944.434 826.17,945.918 828.686,945.891C831.356,945.863 834.019,944.283 836.509,941.971C837.683,940.881 838.83,939.638 839.959,938.628C840.263,938.357 840.524,938.035 840.801,937.859C841.535,938.419 844.448,940.645 846.131,941.973C849.376,944.536 852.699,945.792 855.326,945.006C858.092,944.177 861.384,941.948 864.427,939.903C865.913,938.905 868.308,937.677 868.586,937.536C868.702,937.548 868.819,937.552 868.936,937.551L880.694,937.472L880.642,924.668L869.084,924.745C867.485,924.626 865.437,925.181 863.206,926.426C860.203,928.102 856.501,931.337 853.432,932.415ZM638.945,881.152L564.197,881.152L564.197,921.377L638.945,921.377L638.945,881.152ZM851.525,865.949C851.128,865.784 850.087,865.34 849.454,864.971C848.022,864.137 846.561,863.128 845.137,862.216C841.17,859.675 837.165,858.189 834.149,858.55C831.252,858.897 828.166,860.612 825.155,862.908C824.04,863.759 822.911,864.676 821.757,865.468C821.013,865.978 820.359,866.614 819.566,866.62C818.878,866.626 818.217,866.153 817.47,865.748C815.778,864.832 814.05,863.637 812.327,862.573C808.837,860.417 805.268,858.868 802.017,858.78C798.642,858.688 795.11,860.043 791.751,862.024C790.099,862.999 788.481,864.109 786.937,864.976C786.532,865.204 785.894,865.483 785.563,865.621C785.085,865.407 783.854,864.84 783.165,864.392C780.707,862.795 778.62,860.791 778.62,860.791C777.421,859.639 775.82,858.999 774.157,859.006L758.021,859.075L758.076,871.88L771.782,871.821C773.374,873.156 775.714,874.966 778.103,876.28C780.702,877.71 783.407,878.521 785.653,878.502C788.464,878.479 791.74,877.097 795.05,875.045C796.525,874.131 798.049,873.096 799.597,872.313C800.302,871.956 800.968,871.561 801.67,871.58C802.457,871.601 803.221,872.102 804.06,872.562C805.785,873.51 807.534,874.719 809.263,875.781C812.822,877.968 816.433,879.452 819.672,879.425C823.109,879.396 826.536,877.817 829.742,875.505C831.253,874.415 832.729,873.172 834.182,872.162C834.573,871.89 834.91,871.569 835.266,871.393C836.21,871.953 839.961,874.179 842.127,875.507C846.304,878.07 850.581,879.326 853.962,878.54C857.523,877.711 861.761,875.482 865.678,873.437C867.59,872.439 870.673,871.211 871.031,871.07C871.181,871.082 871.331,871.086 871.482,871.085L886.617,871.006L886.55,858.202L871.672,858.279C869.614,858.16 866.977,858.715 864.106,859.96C860.24,861.636 855.475,864.871 851.525,865.949ZM638.945,818.307L564.197,818.307L564.197,858.531L638.945,858.531L638.945,818.307ZM840.029,837.47C839.632,837.304 838.591,836.86 837.957,836.491C836.526,835.657 835.064,834.648 833.641,833.737C829.674,831.196 825.668,829.709 822.652,830.07C819.756,830.417 816.669,832.133 813.658,834.428C812.543,835.279 811.414,836.197 810.261,836.988C809.516,837.499 808.863,838.134 808.069,838.141C807.381,838.147 806.721,837.674 805.974,837.269C804.282,836.352 802.554,835.158 800.831,834.094C797.34,831.938 793.771,830.389 790.521,830.3C787.146,830.209 783.613,831.564 780.255,833.544C778.603,834.519 776.985,835.63 775.44,836.497C775.035,836.724 774.397,837.003 774.067,837.142C773.588,836.927 772.358,836.36 771.668,835.912C769.211,834.315 767.123,832.311 767.123,832.311C765.924,831.16 764.324,830.52 762.661,830.527L746.524,830.596L746.579,843.401L760.286,843.342C761.878,844.676 764.218,846.486 766.607,847.801C769.205,849.23 771.911,850.041 774.157,850.023C776.967,850 780.243,848.618 783.554,846.565C785.029,845.651 786.552,844.616 788.1,843.833C788.805,843.476 789.472,843.082 790.174,843.101C790.96,843.122 791.725,843.622 792.563,844.083C794.289,845.03 796.037,846.239 797.766,847.302C801.326,849.488 804.936,850.972 808.175,850.945C811.612,850.917 815.04,849.337 818.245,847.026C819.757,845.936 821.232,844.693 822.686,843.683C823.077,843.411 823.413,843.09 823.77,842.914C824.714,843.473 828.465,845.699 830.63,847.028C834.808,849.591 839.085,850.846 842.466,850.06C846.027,849.232 850.265,847.003 854.181,844.958C856.094,843.959 859.177,842.732 859.534,842.591C859.684,842.602 859.835,842.607 859.985,842.606L875.12,842.527L875.053,829.722L860.176,829.8C858.117,829.681 855.481,830.235 852.61,831.48C848.744,833.157 843.978,836.391 840.029,837.47ZM638.945,755.461L564.197,755.461L564.197,795.685L638.945,795.685L638.945,755.461Z" style="fill:white;"/>
        </g>
        <g transform="matrix(1,0,0,1,0,-57.4172)">
            <g transform="matrix(1,0,0,1,464.099,604.626)">
                <circle cx="916.404" cy="300.013" r="196.354" style="fill:rgb(255,0,28);"/>
            </g>
            <path d="M1275.05,1053.51L1275.05,943.072C1303.57,917.366 1352.83,872.833 1381.67,846.013C1410.42,872.245 1458.22,916.611 1485.95,942.399L1485.95,1053.51C1456.17,1074.66 1419.78,1087.09 1380.5,1087.09C1341.23,1087.09 1304.84,1074.66 1275.05,1053.51ZM1382.46,781.347C1369.28,782.146 1354.65,798.277 1348.23,804.278C1307.92,841.923 1217.19,923.363 1217.19,923.363C1209.41,930.35 1208.77,942.339 1215.75,950.12C1222.74,957.901 1234.73,958.547 1242.51,951.56C1242.51,951.56 1345.38,859.184 1381.5,824.976C1418.36,858.238 1518.24,951.323 1518.24,951.323C1525.89,958.453 1537.89,958.029 1545.02,950.379C1552.15,942.729 1551.72,930.73 1544.07,923.6C1544.07,923.6 1421.14,809.057 1397.02,788.031C1389.46,781.441 1383.14,781.306 1382.46,781.347Z" style="fill:white;"/>
        </g>
    </g>
</svg>
