<?xml version="1.0" encoding="UTF-8" standalone="no"?>
<!-- Created with Inkscape (http://www.inkscape.org/) -->

<svg
   width="7.7189703mm"
   height="7.7189703mm"
   viewBox="0 0 7.7189704 7.7189704"
   version="1.1"
   id="svg4327"
   inkscape:version="1.1.1 (3bf5ae0d25, 2021-09-20)"
   sodipodi:docname="2023-HU-37-symbol-roof.svg"
   xmlns:inkscape="http://www.inkscape.org/namespaces/inkscape"
   xmlns:sodipodi="http://sodipodi.sourceforge.net/DTD/sodipodi-0.dtd"
   xmlns="http://www.w3.org/2000/svg"
   xmlns:svg="http://www.w3.org/2000/svg">
  <sodipodi:namedview
     id="namedview4329"
     pagecolor="#ffffff"
     bordercolor="#666666"
     borderopacity="1.0"
     inkscape:pageshadow="2"
     inkscape:pageopacity="0.0"
     inkscape:pagecheckerboard="0"
     inkscape:document-units="mm"
     showgrid="false"
     inkscape:zoom="0.64052329"
     inkscape:cx="322.39265"
     inkscape:cy="330.19877"
     inkscape:window-width="2048"
     inkscape:window-height="1017"
     inkscape:window-x="-8"
     inkscape:window-y="-8"
     inkscape:window-maximized="1"
     inkscape:current-layer="layer1" />
  <defs
     id="defs4324" />
  <g
     inkscape:label="Ebene 1"
     inkscape:groupmode="layer"
     id="layer1"
     transform="translate(-19.666295,-60.973667)">
    <g
       transform="matrix(0.01965575,0,0,0.01965575,-3.609041,47.051794)"
       id="g58"
       style="clip-rule:evenodd;fill-rule:evenodd;stroke-linejoin:round;stroke-miterlimit:2">
      <g
         transform="translate(464.099,604.626)"
         id="g54">
        <circle
           cx="916.40399"
           cy="300.013"
           r="196.354"
           style="fill:#ffc107;fill-opacity:1"
           id="circle52" />
      </g>
      <path
         d="M 1275.05,1053.51 V 943.072 c 28.52,-25.706 77.78,-70.239 106.62,-97.059 28.75,26.232 76.55,70.598 104.28,96.386 v 111.111 c -29.78,21.15 -66.17,33.58 -105.45,33.58 -39.27,0 -75.66,-12.43 -105.45,-33.58 z m 107.41,-272.163 c -13.18,0.799 -27.81,16.93 -34.23,22.931 -40.31,37.645 -131.04,119.085 -131.04,119.085 -7.78,6.987 -8.42,18.976 -1.44,26.757 6.99,7.781 18.98,8.427 26.76,1.44 0,0 102.87,-92.376 138.99,-126.584 36.86,33.262 136.74,126.347 136.74,126.347 7.65,7.13 19.65,6.706 26.78,-0.944 7.13,-7.65 6.7,-19.649 -0.95,-26.779 0,0 -122.93,-114.543 -147.05,-135.569 -7.56,-6.59 -13.88,-6.725 -14.56,-6.684 z"
         style="fill:#ffffff"
         id="path56" />
    </g>
  </g>
</svg>
