<?xml version="1.0" encoding="UTF-8" standalone="no"?>
<!-- Created with Inkscape (http://www.inkscape.org/) -->

<svg
   width="11.377605mm"
   height="5.4999995mm"
   viewBox="0 0 11.377605 5.4999995"
   version="1.1"
   id="svg7111"
   inkscape:version="1.1.1 (3bf5ae0d25, 2021-09-20)"
   sodipodi:docname="2023-HU-37-symbol-overwater.svg"
   xmlns:inkscape="http://www.inkscape.org/namespaces/inkscape"
   xmlns:sodipodi="http://sodipodi.sourceforge.net/DTD/sodipodi-0.dtd"
   xmlns="http://www.w3.org/2000/svg"
   xmlns:svg="http://www.w3.org/2000/svg">
  <sodipodi:namedview
     id="namedview7113"
     pagecolor="#ffffff"
     bordercolor="#666666"
     borderopacity="1.0"
     inkscape:pageshadow="2"
     inkscape:pageopacity="0.0"
     inkscape:pagecheckerboard="0"
     inkscape:document-units="mm"
     showgrid="false"
     inkscape:zoom="20.496745"
     inkscape:cx="17.466188"
     inkscape:cy="6.9523233"
     inkscape:window-width="2048"
     inkscape:window-height="1017"
     inkscape:window-x="-8"
     inkscape:window-y="-8"
     inkscape:window-maximized="1"
     inkscape:current-layer="layer1" />
  <defs
     id="defs7108" />
  <g
     inkscape:label="Ebene 1"
     inkscape:groupmode="layer"
     id="layer1"
     transform="translate(-56.272253,-70.402945)">
    <g
       transform="matrix(0.05238069,0,0,0.05238069,34.176664,35.517823)"
       id="g1466"
       style="clip-rule:evenodd;fill-rule:evenodd;stroke-linejoin:round;stroke-miterlimit:2">
      <g
         transform="matrix(0.983919,0,0,0.448519,5.43688,410.05)"
         id="g1458">
        <rect
           x="423.19699"
           y="743.54303"
           width="220.757"
           height="61.200001"
           style="font-variation-settings:normal;opacity:1;vector-effect:none;fill:#d7d7ff;fill-opacity:1;stroke-width:52.3297;stroke-linecap:butt;stroke-linejoin:miter;stroke-miterlimit:2;stroke-dasharray:none;stroke-dashoffset:0;stroke-opacity:1;-inkscape-stroke:none;stop-color:#000000;stop-opacity:1"
           id="rect1456" />
      </g>
      <path
         d="m 421.829,734.558 v 12.805 l 11.709,-0.058 c 2.799,2.718 7.896,7.034 11.972,6.681 1.653,-0.144 12.292,-6.531 13.825,-6.922 5.66,-1.448 9.954,7.425 15.538,7.844 5.237,0.394 9.356,-5.683 13.46,-8.031 3.589,2.463 7.652,6.174 11.874,7.197 7.519,1.823 15.867,-5.949 22.385,-7.884 6.193,-0.578 9.49,8.313 15.772,7.043 3.231,-0.652 6.313,-2.099 9.376,-3.457 2.316,-1.027 3.906,-3.419 6.605,-3.465 6.75,-0.113 11.215,7.501 17.961,7.845 5.896,0.301 10.628,-5.59 15.56,-8.032 2.978,1.768 5.78,3.972 8.892,5.399 10.191,4.673 17.073,-1.872 26.792,-5.722 0.149,0.012 0.299,0.016 0.45,0.015 3.422,1.05 6.986,1.676 10.526,1.628 2.122,-0.028 3.566,-0.614 4.509,-1.569 v -12.936 l -10e-4,-0.006 -14.844,0.077 c -7.034,-0.407 -13.937,5.984 -20.102,7.67 -4.868,-2.028 -11.257,-9.491 -17.337,-7.399 -2.367,0.814 -12.049,7.537 -14.55,8.071 -2.035,0.433 -5.734,-3.143 -7.222,-4.048 -2.475,-1.504 -7.326,-4.06 -10.287,-3.793 -8.586,0.774 -8.607,3.56 -16.417,6.841 -4.857,-2.183 -7.436,-5.623 -12.703,-6.982 -8.433,-2.174 -15.736,5.7 -23.205,8.063 -3.972,-1.913 -9.664,-9.503 -14.999,-7.4 -2.003,0.79 -10.434,7.549 -12.586,8.071 -1.816,0.44 -5.04,-3.194 -6.248,-4.047 -2.05,-1.448 -6.306,-4.058 -8.899,-3.794 -7.598,0.775 -7.492,3.583 -14.202,6.842 -3.276,-1.702 -5.972,-6.635 -9.845,-6.615 z"
         style="font-variation-settings:normal;opacity:1;vector-effect:none;fill:#000080;fill-opacity:1;stroke-width:28.2224;stroke-linecap:butt;stroke-linejoin:miter;stroke-miterlimit:2;stroke-dasharray:none;stroke-dashoffset:0;stroke-opacity:1;-inkscape-stroke:none;stop-color:#000000;stop-opacity:1"
         id="path1460" />
      <g
         transform="translate(-0.111814,9.00356)"
         id="g1464">
        <path
           d="m 513.614,689.44 c -4.282,-0.011 -7.811,-0.065 -9.932,-0.168 -1.236,-0.061 -2.07,-2.475 -1.33,-3.466 3.719,-4.983 23.642,-26.431 23.642,-26.431 3.476,-3.458 6.245,-2.837 8.558,-0.184 0,0 20.468,20.568 24.188,25.447 0.861,1.13 -0.454,3.71 -1.869,3.829 -2.044,0.172 -5.367,0.329 -9.397,0.465 v 22.192 c 0,2.789 -2.264,5.053 -5.052,5.053 h -23.756 c -2.788,0 -5.052,-2.264 -5.052,-5.053 z"
           style="font-variation-settings:normal;opacity:1;vector-effect:none;fill:#000080;fill-opacity:1;stroke-width:28.2224;stroke-linecap:butt;stroke-linejoin:miter;stroke-miterlimit:2;stroke-dasharray:none;stroke-dashoffset:0;stroke-opacity:1;-inkscape-stroke:none;stop-color:#000000;stop-opacity:1"
           id="path1462" />
      </g>
    </g>
  </g>
</svg>
