<?xml version="1.0" encoding="UTF-8" standalone="no"?>
<!-- Created with Inkscape (http://www.inkscape.org/) -->

<svg
   width="348.51462mm"
   height="185.29724mm"
   viewBox="0 0 348.51462 185.29724"
   version="1.1"
   id="svg1305"
   sodipodi:docname="2023-DE-01-question.svg"
   inkscape:version="1.1.1 (3bf5ae0d25, 2021-09-20)"
   xmlns:inkscape="http://www.inkscape.org/namespaces/inkscape"
   xmlns:sodipodi="http://sodipodi.sourceforge.net/DTD/sodipodi-0.dtd"
   xmlns="http://www.w3.org/2000/svg"
   xmlns:svg="http://www.w3.org/2000/svg">
  <sodipodi:namedview
     id="namedview1307"
     pagecolor="#ffffff"
     bordercolor="#666666"
     borderopacity="1.0"
     inkscape:pageshadow="2"
     inkscape:pageopacity="0.0"
     inkscape:pagecheckerboard="0"
     inkscape:document-units="mm"
     showgrid="false"
     inkscape:zoom="0.8943073"
     inkscape:cx="674.82397"
     inkscape:cy="350.55064"
     inkscape:window-width="2048"
     inkscape:window-height="1017"
     inkscape:window-x="-8"
     inkscape:window-y="-8"
     inkscape:window-maximized="1"
     inkscape:current-layer="layer1" />
  <defs
     id="defs1302" />
  <g
     inkscape:label="Ebene 1"
     inkscape:groupmode="layer"
     id="layer1"
     transform="translate(26.263628,31.100634)">
    <path
       id="path21-0"
       style="fill:#999999;stroke-width:0.968942"
       d="m 778.98242,128.98047 -3.29101,6.99805 339.43949,157.36914 -3.293,6.99804 26.0859,-0.6914 -16.209,-20.30078 -3.2929,6.99609 z"
       transform="matrix(0.26458333,0,0,0.26458333,-26.263628,-31.100634)" />
    <path
       id="path21-4-4"
       style="fill:#999999;stroke-width:0.968942"
       d="m 1109.9766,399.76367 3.2929,6.99805 -339.43942,157.36914 3.29101,7 339.43941,-157.37109 3.293,6.99609 16.209,-20.29883 z"
       transform="matrix(0.26458333,0,0,0.26458333,-26.263628,-31.100634)" />
    <path
       id="path41367"
       clip-path="none"
       style="font-variation-settings:normal;opacity:1;vector-effect:none;fill:#999999;fill-opacity:1;stroke-width:0.968942;stroke-linecap:butt;stroke-linejoin:miter;stroke-miterlimit:4;stroke-dasharray:none;stroke-dashoffset:0;stroke-opacity:1;-inkscape-stroke:none;stop-color:#000000;stop-opacity:1"
       d="m 566.16016,83.173828 v 8.976563 H 193.91797 v 8.978519 h 372.24219 v 8.97656 L 593.0918,96.638672 Z"
       transform="matrix(0.26458333,0,0,0.26458333,-26.263628,-31.100634)" />
    <path
       id="path41369"
       clip-path="none"
       style="font-variation-settings:normal;opacity:1;vector-effect:none;fill:#999999;fill-opacity:1;stroke-width:0.968942;stroke-linecap:butt;stroke-linejoin:miter;stroke-miterlimit:4;stroke-dasharray:none;stroke-dashoffset:0;stroke-opacity:1;-inkscape-stroke:none;stop-color:#000000;stop-opacity:1"
       d="m 165.03906,167.3457 -6.18554,5.7461 436.73242,352.6875 -5.63672,6.99218 29.41797,6.41602 -12.51758,-27.38477 -5.63477,6.99024 z"
       transform="matrix(0.26458333,0,0,0.26458333,-26.263628,-31.100634)" />
    <path
       id="path41371"
       clip-path="none"
       style="font-variation-settings:normal;opacity:1;vector-effect:none;fill:#999999;fill-opacity:1;stroke-width:0.968942;stroke-linecap:butt;stroke-linejoin:miter;stroke-miterlimit:4;stroke-dasharray:none;stroke-dashoffset:0;stroke-opacity:1;-inkscape-stroke:none;stop-color:#000000;stop-opacity:1"
       d="m 566.16016,603.85547 v 8.97656 H 193.91797 v 8.97656 h 372.24219 v 8.97852 l 26.93164,-13.4668 z"
       transform="matrix(0.26458333,0,0,0.26458333,-26.263628,-31.100634)" />
    <path
       id="path41373-0"
       clip-path="none"
       style="font-variation-settings:normal;opacity:1;vector-effect:none;fill:#999999;fill-opacity:1;stroke-width:0.968942;stroke-linecap:butt;stroke-linejoin:miter;stroke-miterlimit:4;stroke-dasharray:none;stroke-dashoffset:0;stroke-opacity:1;-inkscape-stroke:none;stop-color:#000000;stop-opacity:1"
       d="m 619.36719,163.52539 -29.41797,6.41797 5.67383,7.03906 -430.42188,357.33008 6.18555,7.26562 429.87305,-357.60351 5.58984,6.9375 z"
       transform="matrix(0.26458333,0,0,0.26458333,-26.263628,-31.100634)" />
    <path
       d="m -24.667834,-5.0391744 c 0,-13.8088426 11.194256,-25.0031246 25.0031242,-25.0031246 13.8088688,0 25.0031248,11.194282 25.0031248,25.0031246 0,13.8088686 -11.194256,25.0031244 -25.0031248,25.0031244 -13.8088682,0 -25.0031242,-11.1942558 -25.0031242,-25.0031244 z"
       stroke="#000000"
       stroke-width="2.11667"
       stroke-miterlimit="8"
       fill="none"
       fill-rule="evenodd"
       id="path17" />
    <text
       font-family="Calibri, Calibri_MSFontService, sans-serif"
       font-weight="400"
       font-size="26.4583px"
       id="text19"
       x="-7.3135357"
       y="3.0115654"
       style="stroke-width:0.264583">A</text>
    <path
       d="m -25.205293,128.13514 c 0,-13.80887 11.194256,-25.00312 25.0031245,-25.00312 13.8088685,0 25.0031245,11.19425 25.0031245,25.00312 0,13.80887 -11.194256,25.00313 -25.0031245,25.00313 -13.8088685,0 -25.0031245,-11.19426 -25.0031245,-25.00313 z"
       stroke="#000000"
       stroke-width="2.11667"
       stroke-miterlimit="8"
       fill="none"
       fill-rule="evenodd"
       id="path25" />
    <text
       font-family="Calibri, Calibri_MSFontService, sans-serif"
       font-weight="400"
       font-size="26.4583px"
       id="text27"
       x="-6.5160556"
       y="136.00157"
       style="stroke-width:0.264583">B</text>
    <path
       d="m 131.70061,-5.039175 c 0,-13.808842 11.19425,-25.003124 25.00312,-25.003124 13.80886,0 25.00312,11.194282 25.00312,25.003124 0,13.8088691 -11.19426,25.003124 -25.00312,25.003124 -13.80887,0 -25.00312,-11.1942549 -25.00312,-25.003124 z"
       stroke="#000000"
       stroke-width="2.11667"
       stroke-miterlimit="8"
       fill="none"
       fill-rule="evenodd"
       id="path17-3" />
    <path
       d="m 131.16315,128.13514 c 0,-13.80887 11.19425,-25.00312 25.00312,-25.00312 13.80887,0 25.00312,11.19425 25.00312,25.00312 0,13.80887 -11.19425,25.00313 -25.00312,25.00313 -13.80887,0 -25.00312,-11.19426 -25.00312,-25.00313 z"
       stroke="#000000"
       stroke-width="2.11667"
       stroke-miterlimit="8"
       fill="none"
       fill-rule="evenodd"
       id="path25-4" />
    <path
       d="m 271.45098,61.106658 c 0,-13.808868 11.13499,-25.003126 24.87084,-25.003126 13.73584,0 24.87083,11.194257 24.87083,25.003125 0,13.808869 -11.13499,25.003125 -24.87083,25.003125 -13.73585,0 -24.87084,-11.194256 -24.87084,-25.003124 z"
       stroke="#000000"
       stroke-width="2.11667"
       stroke-miterlimit="8"
       fill="none"
       fill-rule="evenodd"
       id="path29-0" />
    <text
       font-family="Calibri, Calibri_MSFontService, sans-serif"
       font-weight="400"
       font-size="26.4583px"
       id="text31-0"
       x="290.0239"
       y="69.9702"
       style="stroke-width:0.264583">Z</text>
    <circle
       style="fill:#d8dad9;fill-opacity:1;stroke:none;stroke-width:1.27278"
       id="path1051-8-6"
       cx="224.65105"
       cy="23.933586"
       r="10.197092" />
    <circle
       style="fill:#d8dad9;fill-opacity:1;stroke:none;stroke-width:1.27278"
       id="path1051-8-2-2"
       cx="224.65105"
       cy="98.116531"
       r="10.197092" />
    <circle
       style="fill:#d8dad9;fill-opacity:1;stroke:none;stroke-width:1.27278"
       id="path1051-8"
       cx="77.04554"
       cy="-5.5672255"
       r="10.197092" />
    <g
       id="g4623"
       transform="translate(1.8985634)">
      <circle
         style="fill:#d8dad9;fill-opacity:1;stroke:none;stroke-width:1.27278"
         id="path1051-8-1"
         cx="47.026043"
         cy="38.555515"
         r="10.197092" />
    </g>
    <g
       id="g4628">
      <circle
         style="fill:#d8dad9;fill-opacity:1;stroke:none;stroke-width:1.27278"
         id="path1051-8-62"
         cx="48.924606"
         cy="85.7276"
         r="10.197092" />
    </g>
    <circle
       style="fill:#d8dad9;fill-opacity:1;stroke:none;stroke-width:1.27278"
       id="path1051-8-2"
       cx="79.966408"
       cy="131.99864"
       r="10.197092" />
  </g>
</svg>
