<?xml version="1.0" encoding="UTF-8" standalone="no"?>
<!-- Created with Inkscape (http://www.inkscape.org/) -->

<svg
   width="348.51462mm"
   height="185.29724mm"
   viewBox="0 0 348.51462 185.29724"
   version="1.1"
   id="svg1305"
   sodipodi:docname="2023-DE-01-solution01.svg"
   inkscape:version="1.1.1 (3bf5ae0d25, 2021-09-20)"
   xmlns:inkscape="http://www.inkscape.org/namespaces/inkscape"
   xmlns:sodipodi="http://sodipodi.sourceforge.net/DTD/sodipodi-0.dtd"
   xmlns="http://www.w3.org/2000/svg"
   xmlns:svg="http://www.w3.org/2000/svg">
  <sodipodi:namedview
     id="namedview1307"
     pagecolor="#ffffff"
     bordercolor="#666666"
     borderopacity="1.0"
     inkscape:pageshadow="2"
     inkscape:pageopacity="0.0"
     inkscape:pagecheckerboard="0"
     inkscape:document-units="mm"
     showgrid="false"
     inkscape:zoom="0.44715365"
     inkscape:cx="1080.1656"
     inkscape:cy="569.15559"
     inkscape:window-width="2048"
     inkscape:window-height="1017"
     inkscape:window-x="-8"
     inkscape:window-y="-8"
     inkscape:window-maximized="1"
     inkscape:current-layer="layer1"
     inkscape:snap-nodes="true"
     inkscape:snap-bbox="true" />
  <defs
     id="defs1302" />
  <g
     inkscape:label="Ebene 1"
     inkscape:groupmode="layer"
     id="layer1"
     transform="translate(26.263628,31.100634)">
    <path
       d="m -24.667834,-5.0391744 c 0,-13.8088426 11.194256,-25.0031246 25.0031242,-25.0031246 13.8088688,0 25.0031248,11.194282 25.0031248,25.0031246 0,13.8088686 -11.194256,25.0031244 -25.0031248,25.0031244 -13.8088682,0 -25.0031242,-11.1942558 -25.0031242,-25.0031244 z"
       stroke="#000000"
       stroke-width="2.11667"
       stroke-miterlimit="8"
       fill="none"
       fill-rule="evenodd"
       id="path17" />
    <path
       d="M 7.4271478,2.2235009 Q 7.5305006,2.5077209 7.5305006,2.6885882 7.5434197,2.8565363 7.4400669,2.94697 7.3367142,3.0374036 7.0912515,3.0632418 6.8587078,3.08908 6.458216,3.08908 6.0577241,3.08908 5.8122614,3.0632418 5.5797177,3.0503227 5.4505268,3.0115654 5.334255,2.9598891 5.2696595,2.8823745 5.2179832,2.80486 5.1663068,2.6885882 L 3.7322876,-1.3809257 h -6.9504712 l -1.3694238,4.0178375 q -0.038757,0.1162718 -0.1033527,0.2067055 -0.064595,0.077514 -0.1937864,0.14211 -0.1162718,0.051676 -0.3488154,0.077514 -0.2196246,0.025838 -0.5813592,0.025838 -0.3746536,0 -0.6201164,-0.038757 -0.2325436,-0.025838 -0.3358963,-0.1162718 -0.090434,-0.090434 -0.090434,-0.2583818 0.012919,-0.1808673 0.1162718,-0.4650873 l 5.6068858,-15.5287474 q 0.051676,-0.14211 0.1291909,-0.232544 0.0904337,-0.09043 0.24546276,-0.14211 0.16794819,-0.05168 0.41341093,-0.0646 0.25838184,-0.02584 0.64595458,-0.02584 0.41341094,0 0.68471186,0.02584 0.27130097,0.01292 0.43924907,0.0646 0.1679482,0.05168 0.2583819,0.155029 0.090434,0.09043 0.14211,0.232544 z M 0.23121382,-11.483655 h -0.0129191 l -2.88095742,8.3328137 h 5.8135912 z"
       id="path1474"
       style="font-size:26.4583px;font-family:Calibri, Calibri_MSFontService, sans-serif;stroke-width:0.264583" />
    <path
       d="m -25.205293,128.13514 c 0,-13.80887 11.194256,-25.00312 25.0031245,-25.00312 13.8088685,0 25.0031245,11.19425 25.0031245,25.00312 0,13.80887 -11.194256,25.00313 -25.0031245,25.00313 -13.8088685,0 -25.0031245,-11.19426 -25.0031245,-25.00313 z"
       stroke="#000000"
       stroke-width="2.11667"
       stroke-miterlimit="8"
       fill="none"
       fill-rule="evenodd"
       id="path25" />
    <path
       d="m 6.7260133,131.20859 q 0,0.78806 -0.2067054,1.45986 -0.1937864,0.65887 -0.555521,1.18855 -0.3617345,0.52969 -0.8784982,0.93018 -0.5038446,0.40049 -1.1497992,0.67179 -0.6330355,0.2713 -1.3694237,0.41341 -0.7234691,0.12919 -1.66656279,0.12919 H -3.46715 q -0.2971391,0 -0.56844,-0.19378 -0.2583818,-0.20671 -0.2583818,-0.71055 V 120.1886 q 0,-0.50384 0.2583818,-0.69763 0.2713009,-0.2067 0.56844,-0.2067 h 3.79821297 q 1.49861463,0 2.45462743,0.28422 0.9560128,0.28422 1.5890483,0.82682 0.6459545,0.5426 0.9689318,1.33067 0.3229773,0.78806 0.3229773,1.78283 0,0.59428 -0.14211,1.13688 -0.14211,0.5426 -0.42633,1.00769 -0.2713009,0.45217 -0.697631,0.8139 -0.4134109,0.36174 -0.9560127,0.59428 0.6847118,0.12919 1.27899,0.47801 0.5942782,0.33589 1.0335274,0.86558 0.4521682,0.52968 0.71055,1.24023 0.2583818,0.71055 0.2583818,1.56321 z m -3.3460447,-7.48016 q 0,-0.60719 -0.1679482,-1.09812 -0.1679482,-0.49092 -0.5296828,-0.82682 -0.3617345,-0.34882 -0.9430936,-0.52968 -0.5813592,-0.18087 -1.53737194,-0.18087 H -2.0977263 v 5.4131 h 2.53214201 q 0.86557909,0 1.39526189,-0.21963 0.5296828,-0.23254 0.8784982,-0.60719 0.3488155,-0.38758 0.5038446,-0.89142 0.1679482,-0.51676 0.1679482,-1.05937 z m 1.0076891,7.60935 q 0,-0.74931 -0.2454627,-1.31775 -0.2325436,-0.56844 -0.6976309,-0.95601 -0.4521683,-0.38757 -1.1497992,-0.58136 -0.6847119,-0.20671 -1.73115828,-0.20671 H -2.0977263 v 5.89111 h 3.229773 q 0.7622264,0 1.3306664,-0.18087 0.56844,-0.18086 0.99477,-0.52968 0.4392492,-0.36173 0.6847119,-0.89142 0.2454627,-0.52968 0.2454627,-1.22731 z"
       id="path1479"
       style="font-size:26.4583px;font-family:Calibri, Calibri_MSFontService, sans-serif;stroke-width:0.264583" />
    <path
       d="m 179.84214,3.0253595 90.74274,42.0699585 -0.8712,1.851427 -90.74249,-42.0697096 z m 90.68128,39.7862465 4.28857,5.371235 -6.90192,0.183047 z"
       id="path21-0"
       style="stroke-width:0.256366" />
    <path
       d="m 131.70061,-5.039175 c 0,-13.808842 11.19425,-25.003124 25.00312,-25.003124 13.80886,0 25.00312,11.194282 25.00312,25.003124 0,13.8088691 -11.19426,25.003124 -25.00312,25.003124 -13.80887,0 -25.00312,-11.1942549 -25.00312,-25.003124 z"
       stroke="#000000"
       stroke-width="2.11667"
       stroke-miterlimit="8"
       fill="none"
       fill-rule="evenodd"
       id="path17-3" />
    <path
       d="m 131.16315,128.13514 c 0,-13.80887 11.19425,-25.00312 25.00312,-25.00312 13.80887,0 25.00312,11.19425 25.00312,25.00312 0,13.80887 -11.19425,25.00313 -25.00312,25.00313 -13.80887,0 -25.00312,-11.19426 -25.00312,-25.00313 z"
       stroke="#000000"
       stroke-width="2.11667"
       stroke-miterlimit="8"
       fill="none"
       fill-rule="evenodd"
       id="path25-4" />
    <path
       d="m 271.45098,61.106658 c 0,-13.808868 11.13499,-25.003126 24.87084,-25.003126 13.73584,0 24.87083,11.194257 24.87083,25.003125 0,13.808869 -11.13499,25.003125 -24.87083,25.003125 -13.73585,0 -24.87084,-11.194256 -24.87084,-25.003124 z"
       stroke="#000000"
       stroke-width="2.11667"
       stroke-miterlimit="8"
       fill="none"
       fill-rule="evenodd"
       id="path29-0" />
    <path
       d="m 301.85778,69.040025 q 0,0.245463 -0.0258,0.42633 -0.0258,0.167948 -0.0904,0.28422 -0.0517,0.116272 -0.14211,0.167948 -0.0775,0.05168 -0.19379,0.05168 h -9.87018 q -0.3359,0 -0.5426,-0.206706 -0.20671,-0.206705 -0.20671,-0.658874 v -0.478006 q 0,-0.167948 0.0129,-0.310058 0.0258,-0.14211 0.0904,-0.297139 0.0646,-0.167948 0.18087,-0.361735 0.11627,-0.206705 0.28422,-0.478006 l 7.7127,-12.066432 H 291.445 q -0.1292,0 -0.21963,-0.05168 -0.0904,-0.05168 -0.15503,-0.155029 -0.0517,-0.116272 -0.0775,-0.28422 -0.0258,-0.180868 -0.0258,-0.413411 0,-0.258382 0.0258,-0.439249 0.0258,-0.180868 0.0775,-0.297139 0.0646,-0.116272 0.15503,-0.167949 0.0904,-0.05168 0.21963,-0.05168 h 9.30174 q 0.34882,0 0.5426,0.206705 0.20671,0.193787 0.20671,0.607198 v 0.503844 q 0,0.206706 -0.0258,0.374654 -0.0258,0.155029 -0.0904,0.322977 -0.0646,0.167949 -0.18087,0.361735 -0.10335,0.193786 -0.28422,0.452168 l -7.67394,12.014755 h 8.16486 q 0.21963,0 0.3359,0.219625 0.11627,0.219624 0.11627,0.723469 z"
       id="path1484"
       style="font-size:26.4583px;font-family:Calibri, Calibri_MSFontService, sans-serif;stroke-width:0.264583" />
    <path
       d="m 179.3497,120.01086 90.74274,-42.069962 -0.8712,-1.851427 -90.74249,42.069709 z m 90.68128,-39.78625 4.28857,-5.371235 -6.90192,-0.183047 z"
       id="path21-4-4"
       style="stroke-width:0.256366" />
    <path
       d="m 243,124 h 335.719 v 8 H 243 Z m 331.719,-8 24,12 -24,12 z"
       id="path41367"
       clip-path="none"
       style="font-variation-settings:normal;opacity:1;vector-effect:none;fill:#000000;fill-opacity:1;stroke-width:0.863463;stroke-linecap:butt;stroke-linejoin:miter;stroke-miterlimit:4;stroke-dasharray:none;stroke-dashoffset:0;stroke-opacity:1;-inkscape-stroke:none;stop-color:#000000;stop-opacity:1"
       transform="matrix(0.29690446,0,0,0.29690446,-47.103787,-43.535247)" />
    <path
       d="m 17.40288,13.176169 116.32979,93.732351 -1.49046,1.84942 L 15.766376,14.696691 Z m 116.89569,91.137701 3.31197,7.24566 -7.78364,-1.6977 z"
       id="path41369"
       clip-path="none"
       style="font-variation-settings:normal;opacity:1;vector-effect:none;fill:#000000;fill-opacity:1;stroke-width:0.256366;stroke-linecap:butt;stroke-linejoin:miter;stroke-miterlimit:4;stroke-dasharray:none;stroke-dashoffset:0;stroke-opacity:1;-inkscape-stroke:none;stop-color:#000000;stop-opacity:1"
       sodipodi:nodetypes="ccccccccc" />
    <path
       d="m 243,596 335.719,-10e-5 v -8 L 243,588 Z m 331.719,7.9999 24,-12 -24,-12 z"
       id="path41371"
       clip-path="none"
       style="font-variation-settings:normal;opacity:1;vector-effect:none;fill:#000000;fill-opacity:1;stroke-width:0.863463;stroke-linecap:butt;stroke-linejoin:miter;stroke-miterlimit:4;stroke-dasharray:none;stroke-dashoffset:0;stroke-opacity:1;-inkscape-stroke:none;stop-color:#000000;stop-opacity:1"
       transform="matrix(0.29690446,0,0,0.29690446,-47.103787,-43.535247)" />
    <path
       d="m 222.92093,524.50323 386.15097,-321.23277 -5.02,-6.229 -386.64319,320.98717 z m 388.05797,-312.49377 11.155,-24.404 -26.216,5.718 z"
       id="path41373-0"
       clip-path="none"
       style="font-variation-settings:normal;opacity:1;vector-effect:none;fill:#000000;fill-opacity:1;stroke-width:0.863463;stroke-linecap:butt;stroke-linejoin:miter;stroke-miterlimit:4;stroke-dasharray:none;stroke-dashoffset:0;stroke-opacity:1;-inkscape-stroke:none;stop-color:#000000;stop-opacity:1"
       transform="matrix(0.29690446,0,0,0.29690446,-47.103787,-43.535247)"
       sodipodi:nodetypes="ccccccccc" />
    <g
       id="g2004">
      <circle
         style="fill:#d8dad9;fill-opacity:1;stroke:none;stroke-width:1.27278"
         id="path1051-8"
         cx="77.04554"
         cy="-5.5672255"
         r="10.197092" />
      <path
         d="m 78.275455,-12.2025 v 5.4156982 h 5.395028 v 2.4391315 h -5.395028 v 5.4156988 h -2.459802 v -5.4156988 h -5.395028 v -2.4391315 h 5.395028 V -12.2025 Z"
         style="font-size:10.5833px;font-family:sketchnote;-inkscape-font-specification:'sketchnote Bold';stroke-width:0.264583"
         id="path1499" />
    </g>
    <g
       id="g2088">
      <circle
         style="display:inline;fill:#d8dad9;fill-opacity:1;stroke:none;stroke-width:1.27278"
         id="path1051-8-2-9"
         cx="48.924606"
         cy="38.555515"
         r="10.197092" />
      <path
         d="m 54.499194,38.555535 q 0,0.478006 -0.12919,0.697631 -0.116272,0.219624 -0.348816,0.219624 H 43.840944 q -0.245463,0 -0.374654,-0.219624 -0.116272,-0.219625 -0.116272,-0.697631 0,-0.465088 0.116272,-0.684712 0.129191,-0.232544 0.374654,-0.232544 h 10.180244 q 0.232544,0 0.348816,0.219625 0.129191,0.219624 0.12919,0.697631 z"
         id="path1519"
         style="font-size:26.4583px;font-family:Calibri, Calibri_MSFontService, sans-serif;display:inline;stroke-width:0.264583" />
    </g>
    <g
       id="g2092">
      <circle
         style="fill:#d8dad9;fill-opacity:1;stroke:none;stroke-width:1.27278"
         id="path1051-8-62"
         cx="48.924606"
         cy="85.7276"
         r="10.197092" />
      <path
         d="m 54.499195,85.72762 q 0,0.478006 -0.12919,0.697631 -0.116272,0.219624 -0.348816,0.219624 H 43.840945 q -0.245463,0 -0.374654,-0.219624 -0.116272,-0.219625 -0.116272,-0.697631 0,-0.465088 0.116272,-0.684712 0.129191,-0.232544 0.374654,-0.232544 h 10.180244 q 0.232544,0 0.348816,0.219625 0.12919,0.219624 0.12919,0.697631 z"
         id="path1519-1"
         style="font-size:26.4583px;font-family:Calibri, Calibri_MSFontService, sans-serif;stroke-width:0.264583" />
    </g>
    <g
       id="g2096">
      <circle
         style="fill:#d8dad9;fill-opacity:1;stroke:none;stroke-width:1.27278"
         id="path1051-8-1-5"
         cx="79.966408"
         cy="131.99864"
         r="10.197092" />
      <path
         d="m 81.19632,125.36336 v 5.4157 h 5.395028 v 2.43913 H 81.19632 v 5.4157 h -2.459802 v -5.4157 H 73.34149 v -2.43913 h 5.395028 v -5.4157 z"
         style="font-size:10.5833px;font-family:sketchnote;-inkscape-font-specification:'sketchnote Bold';stroke-width:0.264583"
         id="path1504-3" />
    </g>
    <g
       id="g2104">
      <circle
         style="fill:#d8dad9;fill-opacity:1;stroke:none;stroke-width:1.27278"
         id="path1051-8-1-5-6"
         cx="224.65105"
         cy="23.933586"
         r="10.197092" />
      <path
         d="m 225.88096,17.298311 v 5.415699 h 5.39503 v 2.439131 h -5.39503 v 5.415699 h -2.4598 v -5.415699 h -5.39503 V 22.71401 h 5.39503 v -5.415699 z"
         style="font-size:10.5833px;font-family:sketchnote;-inkscape-font-specification:'sketchnote Bold';stroke-width:0.264583"
         id="path1504-3-3" />
    </g>
    <g
       id="g2100">
      <circle
         style="fill:#d8dad9;fill-opacity:1;stroke:none;stroke-width:1.27278"
         id="path1051-8-1-5-6-5"
         cx="224.65105"
         cy="98.116531"
         r="10.197092" />
      <path
         d="m 225.88096,91.481256 v 5.415699 h 5.39503 v 2.439131 h -5.39503 v 5.415704 h -2.4598 v -5.415704 h -5.39503 v -2.439131 h 5.39503 v -5.415699 z"
         style="font-size:10.5833px;font-family:sketchnote;-inkscape-font-specification:'sketchnote Bold';stroke-width:0.264583"
         id="path1504-3-3-0" />
    </g>
  </g>
</svg>
