<?xml version="1.0" encoding="UTF-8"?>
<svg width="726.22" height="700.34" overflow="hidden" version="1.1" xmlns="http://www.w3.org/2000/svg" xmlns:cc="http://creativecommons.org/ns#" xmlns:dc="http://purl.org/dc/elements/1.1/" xmlns:rdf="http://www.w3.org/1999/02/22-rdf-syntax-ns#">
 <metadata>
  <rdf:RDF>
   <cc:Work rdf:about="">
    <dc:format>image/svg+xml</dc:format>
    <dc:type rdf:resource="http://purl.org/dc/dcmitype/StillImage"/>
   </cc:Work>
  </rdf:RDF>
 </metadata>
 <path d="m187.98 128.98 342.96 159-3.2927 6.9975-342.96-159zm342.73 150.37 16.209 20.301-26.086.69183z" style="stroke-width:.96894"/>
 <path d="m6.0313 98.5c0-52.191 42.309-94.5 94.5-94.5s94.5 42.309 94.5 94.5c0 52.191-42.309 94.5-94.5 94.5s-94.5-42.309-94.5-94.5z" fill="none" fill-rule="evenodd" stroke="#000000" stroke-miterlimit="8" stroke-width="8"/>
 <g aria-label="A">
  <path d="m127.34 125.95q.39063 1.0742.39063 1.7578.0488.63477-.3418.97656-.39063.3418-1.3184.43946-.87891.0976-2.3926.0976t-2.4414-.0976q-.87891-.0488-1.3672-.19532-.43945-.19531-.6836-.48828-.19531-.29297-.39062-.73242l-5.4199-15.381h-26.27l-5.1758 15.186q-.14648.43945-.39062.78125-.24414.29297-.73242.53711-.43945.19531-1.3184.29297-.83008.0976-2.1973.0976-1.416 0-2.3438-.14648-.87891-.0977-1.2695-.43945-.3418-.3418-.3418-.97657.04883-.68359.43945-1.7578l21.191-58.691q.19531-.53711.48828-.87891.3418-.3418.92773-.53711.63477-.19531 1.5625-.24414.97656-.09766 2.4414-.09766 1.5625 0 2.5879.09766 1.0254.04883 1.6602.24414.63477.19531.97657.58594.34179.3418.53711.87891zm-27.197-51.807h-.0488l-10.889 31.494h21.973z"/>
 </g>
 <path d="m4 601.84c0-52.191 42.309-94.5 94.5-94.5s94.5 42.309 94.5 94.5-42.309 94.5-94.5 94.5-94.5-42.309-94.5-94.5z" fill="none" fill-rule="evenodd" stroke="#000000" stroke-miterlimit="8" stroke-width="8"/>
 <g aria-label="B">
  <path d="m124.69 613.45q0 2.9785-.78125 5.5176-.73242 2.4902-2.0996 4.4922-1.3672 2.002-3.3203 3.5156-1.9043 1.5137-4.3457 2.5391-2.3926 1.0254-5.1758 1.5625-2.7344.48828-6.2988.48828h-16.504q-1.123 0-2.1484-.73242-.97656-.78125-.97656-2.6856v-56.348q0-1.9043.97656-2.6367 1.0254-.78125 2.1484-.78125h14.355q5.6641 0 9.2773 1.0742t6.0059 3.125q2.4414 2.0508 3.6621 5.0293 1.2207 2.9785 1.2207 6.7383 0 2.2461-.53711 4.2969t-1.6113 3.8086q-1.0254 1.709-2.6367 3.0762-1.5625 1.3672-3.6133 2.2461 2.5879.48828 4.834 1.8066 2.2461 1.2695 3.9062 3.2715 1.709 2.002 2.6856 4.6875.97656 2.6855.97656 5.9082zm-12.646-28.271q0-2.2949-.63476-4.1504-.63477-1.8555-2.002-3.125-1.3672-1.3184-3.5644-2.002-2.1973-.68359-5.8106-.68359h-8.6914v20.459h9.5703q3.2715 0 5.2734-.83008 2.002-.8789 3.3203-2.2949 1.3184-1.4648 1.9043-3.3691.63476-1.9531.63476-4.0039zm3.8086 28.76q0-2.832-.92774-4.9805-.8789-2.1484-2.6367-3.6133-1.709-1.4648-4.3457-2.1973-2.5879-.78125-6.543-.78125h-10.059v22.266h12.207q2.8809 0 5.0293-.68359 2.1484-.6836 3.7598-2.002 1.6602-1.3672 2.5879-3.3691.92774-2.002.92774-4.6387z"/>
 </g>
 <path d="m534.22 348.5c0-52.191 42.085-94.5 94-94.5s94 42.309 94 94.5-42.085 94.5-94 94.5-94-42.309-94-94.5z" fill="none" fill-rule="evenodd" stroke="#000000" stroke-miterlimit="8" stroke-width="8"/>
 <g aria-label="Z">
  <path d="m649.14 378.48q0 .92774-.0977 1.6113-.0977.63477-.3418 1.0742-.19531.43945-.53711.63477-.29292.19531-.73237.19531h-37.305q-1.2695 0-2.0508-.78125t-.78125-2.4902v-1.8066q0-.63476.0488-1.1719.0977-.53711.34179-1.123.24414-.63476.6836-1.3672.43945-.78125 1.0742-1.8066l29.15-45.605h-28.809q-.48828 0-.83007-.19532-.3418-.19531-.58594-.58593-.19531-.43946-.29297-1.0742-.0977-.6836-.0977-1.5625 0-.97657.0977-1.6602t.29297-1.123q.24414-.43945.58594-.63476.34179-.19531.83007-.19531h35.156q1.3184 0 2.0508.78125.78125.73242.78125 2.2949v1.9043q0 .78125-.0976 1.416-.0977.58594-.3418 1.2207-.24414.63477-.68359 1.3672-.39063.73242-1.0742 1.709l-29.004 45.41h30.859q.83008 0 1.2695.83008t.43945 2.7344z"/>
 </g>
 <path d="m186.12 571.13 342.96-159-3.2927-6.9975-342.96 159zm342.73-150.37 16.209-20.301-26.086-.69183z" style="stroke-width:.96894"/>
 <g transform="matrix(1.5568 0 0 1.5568 -1011.5 -125.2)">
  <circle cx="880.4" cy="211.69" r="38.54" style="fill:#d8dad9"/>
  <g aria-label="+">
   <path d="m885.05 186.61v20.469h20.391v9.2188h-20.391v20.469h-9.2969v-20.469h-20.391v-9.2188h20.391v-20.469z"/>
  </g>
 </g>
 <g transform="matrix(1.5568 0 0 1.5568 -324.2 -81.834)">
  <circle cx="438.94" cy="364.07" r="38.54" style="fill:#d8dad9"/>
  <g transform="translate(-180.22 -47.104)">
   <g aria-label="−">
    <path d="m640.23 411.17q0 1.8066-.48828 2.6367-.43945.83008-1.3184.83008h-38.477q-.92774 0-1.416-.83008-.43945-.83007-.43945-2.6367 0-1.7578.43945-2.5879.48828-.8789 1.416-.8789h38.477q.87891 0 1.3184.83008.48828.83007.48828 2.6367z"/>
   </g>
  </g>
 </g>
</svg>
