<?xml version="1.0" encoding="UTF-8" standalone="no"?>
<svg
   width="726.22174"
   height="700.336"
   overflow="hidden"
   version="1.1"
   id="svg35"
   sodipodi:docname="2023-DE-01-explanationB2.svg"
   inkscape:version="1.1.1 (3bf5ae0d25, 2021-09-20)"
   xmlns:inkscape="http://www.inkscape.org/namespaces/inkscape"
   xmlns:sodipodi="http://sodipodi.sourceforge.net/DTD/sodipodi-0.dtd"
   xmlns="http://www.w3.org/2000/svg"
   xmlns:svg="http://www.w3.org/2000/svg"
   xmlns:rdf="http://www.w3.org/1999/02/22-rdf-syntax-ns#"
   xmlns:cc="http://creativecommons.org/ns#"
   xmlns:dc="http://purl.org/dc/elements/1.1/">
  <metadata
     id="metadata39">
    <rdf:RDF>
      <cc:Work
         rdf:about="">
        <dc:format>image/svg+xml</dc:format>
        <dc:type
           rdf:resource="http://purl.org/dc/dcmitype/StillImage" />
      </cc:Work>
    </rdf:RDF>
  </metadata>
  <sodipodi:namedview
     pagecolor="#ffffff"
     bordercolor="#666666"
     borderopacity="1"
     objecttolerance="10"
     gridtolerance="10"
     guidetolerance="10"
     inkscape:pageopacity="0"
     inkscape:pageshadow="2"
     inkscape:window-width="2048"
     inkscape:window-height="1017"
     id="namedview37"
     showgrid="false"
     inkscape:zoom="0.69053397"
     inkscape:cx="261.39192"
     inkscape:cy="510.47452"
     inkscape:window-x="-8"
     inkscape:window-y="-8"
     inkscape:window-maximized="1"
     inkscape:current-layer="g33"
     fit-margin-top="0"
     fit-margin-left="0"
     fit-margin-right="0"
     fit-margin-bottom="0"
     inkscape:pagecheckerboard="0" />
  <defs
     id="defs5">
    <clipPath
       id="clip0">
      <rect
         x="0"
         y="0"
         width="1280"
         height="720"
         id="rect2" />
    </clipPath>
  </defs>
  <g
     clip-path="url(#clip0)"
     id="g33"
     transform="translate(-276.15596,-17)">
    <path
       d="m 464.13956,145.98013 342.9647,159.00457 -3.29274,6.99752 L 460.8478,152.97859 Z m 342.73241,150.37322 16.20874,20.30073 -26.08599,0.69183 z"
       id="path21"
       style="stroke-width:0.968941" />
    <path
       d="m 282.1873,115.5 c 0,-52.1909 42.309,-94.5 94.5,-94.5 52.191,0 94.5,42.3091 94.5,94.5 0,52.191 -42.309,94.5 -94.5,94.5 -52.191,0 -94.5,-42.309 -94.5,-94.5 z"
       stroke="#000000"
       stroke-width="8"
       stroke-miterlimit="8"
       fill="none"
       fill-rule="evenodd"
       id="path17" />
    <path
       d="m 280.15596,618.836 c 0,-52.191 42.309,-94.5 94.5,-94.5 52.191,0 94.5,42.309 94.5,94.5 0,52.191 -42.309,94.5 -94.5,94.5 -52.191,0 -94.5,-42.309 -94.5,-94.5 z"
       stroke="#000000"
       stroke-width="8"
       stroke-miterlimit="8"
       fill="none"
       fill-rule="evenodd"
       id="path25" />
    <path
       d="m 810.37771,365.5 c 0,-52.191 42.085,-94.5 94,-94.5 51.915,0 94,42.309 94,94.5 0,52.191 -42.085,94.5 -94,94.5 -51.915,0 -94,-42.309 -94,-94.5 z"
       stroke="#000000"
       stroke-width="8"
       stroke-miterlimit="8"
       fill="none"
       fill-rule="evenodd"
       id="path29" />
    <text
       font-family="Calibri, Calibri_MSFontService, sans-serif"
       font-weight="400"
       font-size="100px"
       transform="translate(880.574,399)"
       id="text31">Z</text>
    <g
       id="g910"
       transform="translate(-246.9035,13.312)">
      <circle
         style="fill:#d8dad9;fill-opacity:1;stroke:none;stroke-width:4.81049"
         id="path1051-8"
         cx="880.40076"
         cy="211.69135"
         r="38.540192" />
      <text
         xml:space="preserve"
         style="font-size:40px;line-height:1.25;font-family:sketchnote;-inkscape-font-specification:sketchnote"
         x="846.88513"
         y="236.76947"
         id="text1658"><tspan
           sodipodi:role="line"
           id="tspan1656"
           x="846.88513"
           y="236.76947"
           style="font-style:normal;font-variant:normal;font-weight:bold;font-stretch:normal;font-size:80px;font-family:sketchnote;-inkscape-font-specification:'sketchnote Bold'">+</tspan></text>
    </g>
    <path
       d="M 462.27837,588.13005 805.24307,429.12548 801.95033,422.12796 458.9866,581.13159 Z M 805.01078,437.75683 821.21952,417.4561 795.13353,416.76427 Z"
       id="path21-4"
       style="stroke-width:0.968941" />
    <g
       id="g905"
       transform="translate(194.56,141.312)">
      <circle
         style="fill:#d8dad9;fill-opacity:1;stroke:none;stroke-width:4.81049"
         id="path1051-8-2"
         cx="438.93726"
         cy="364.06784"
         r="38.540192" />
      <g
         id="g900"
         transform="translate(-180.224,-47.104)">
        <text
           font-family="Calibri, Calibri_MSFontService, sans-serif"
           font-weight="400"
           font-size="100px"
           id="text11"
           x="594.38098"
           y="439.24802">−</text>
      </g>
    </g>
  </g>
</svg>
