<?xml version="1.0" encoding="UTF-8" standalone="no"?>
<svg
   width="726.22174"
   height="700.336"
   overflow="hidden"
   version="1.1"
   id="svg35"
   sodipodi:docname="2023-DE-01-explanationB2_compatible.svg"
   inkscape:version="1.1.1 (3bf5ae0d25, 2021-09-20)"
   xmlns:inkscape="http://www.inkscape.org/namespaces/inkscape"
   xmlns:sodipodi="http://sodipodi.sourceforge.net/DTD/sodipodi-0.dtd"
   xmlns="http://www.w3.org/2000/svg"
   xmlns:svg="http://www.w3.org/2000/svg"
   xmlns:rdf="http://www.w3.org/1999/02/22-rdf-syntax-ns#"
   xmlns:cc="http://creativecommons.org/ns#"
   xmlns:dc="http://purl.org/dc/elements/1.1/">
  <metadata
     id="metadata39">
    <rdf:RDF>
      <cc:Work
         rdf:about="">
        <dc:format>image/svg+xml</dc:format>
        <dc:type
           rdf:resource="http://purl.org/dc/dcmitype/StillImage" />
      </cc:Work>
    </rdf:RDF>
  </metadata>
  <sodipodi:namedview
     pagecolor="#ffffff"
     bordercolor="#666666"
     borderopacity="1"
     objecttolerance="10"
     gridtolerance="10"
     guidetolerance="10"
     inkscape:pageopacity="0"
     inkscape:pageshadow="2"
     inkscape:window-width="2048"
     inkscape:window-height="1017"
     id="namedview37"
     showgrid="false"
     inkscape:zoom="0.69053397"
     inkscape:cx="261.39192"
     inkscape:cy="510.47452"
     inkscape:window-x="-8"
     inkscape:window-y="-8"
     inkscape:window-maximized="1"
     inkscape:current-layer="g33"
     fit-margin-top="0"
     fit-margin-left="0"
     fit-margin-right="0"
     fit-margin-bottom="0"
     inkscape:pagecheckerboard="0" />
  <defs
     id="defs5">
    <clipPath
       id="clip0">
      <rect
         x="0"
         y="0"
         width="1280"
         height="720"
         id="rect2" />
    </clipPath>
  </defs>
  <g
     clip-path="url(#clip0)"
     id="g33"
     transform="translate(-276.15596,-17)">
    <path
       d="m 464.13956,145.98013 342.9647,159.00457 -3.29274,6.99752 L 460.8478,152.97859 Z m 342.73241,150.37322 16.20874,20.30073 -26.08599,0.69183 z"
       id="path21"
       style="stroke-width:0.968941" />
    <path
       d="m 282.1873,115.5 c 0,-52.1909 42.309,-94.5 94.5,-94.5 52.191,0 94.5,42.3091 94.5,94.5 0,52.191 -42.309,94.5 -94.5,94.5 -52.191,0 -94.5,-42.309 -94.5,-94.5 z"
       stroke="#000000"
       stroke-width="8"
       stroke-miterlimit="8"
       fill="none"
       fill-rule="evenodd"
       id="path17" />
    <path
       d="m 280.15596,618.836 c 0,-52.191 42.309,-94.5 94.5,-94.5 52.191,0 94.5,42.309 94.5,94.5 0,52.191 -42.309,94.5 -94.5,94.5 -52.191,0 -94.5,-42.309 -94.5,-94.5 z"
       stroke="#000000"
       stroke-width="8"
       stroke-miterlimit="8"
       fill="none"
       fill-rule="evenodd"
       id="path25" />
    <path
       d="m 810.37771,365.5 c 0,-52.191 42.085,-94.5 94,-94.5 51.915,0 94,42.309 94,94.5 0,52.191 -42.085,94.5 -94,94.5 -51.915,0 -94,-42.309 -94,-94.5 z"
       stroke="#000000"
       stroke-width="8"
       stroke-miterlimit="8"
       fill="none"
       fill-rule="evenodd"
       id="path29" />
    <g
       id="g910"
       transform="translate(-246.9035,13.312)">
      <circle
         style="fill:#d8dad9;fill-opacity:1;stroke:none;stroke-width:4.81049"
         id="path1051-8"
         cx="880.40076"
         cy="211.69135"
         r="38.540192" />
      <g
         aria-label="+"
         id="text1658"
         style="font-size:40px;font-family:sketchnote;-inkscape-font-specification:sketchnote">
        <path
           d="m 885.04919,186.61322 v 20.46875 h 20.39063 v 9.21875 h -20.39063 v 20.46875 h -9.29687 v -20.46875 h -20.39063 v -9.21875 h 20.39063 v -20.46875 z"
           style="-inkscape-font-specification:'sketchnote Bold'"
           id="path1045" />
      </g>
    </g>
    <path
       d="M 462.27837,588.13005 805.24307,429.12548 801.95033,422.12796 458.9866,581.13159 Z M 805.01078,437.75683 821.21952,417.4561 795.13353,416.76427 Z"
       id="path21-4"
       style="stroke-width:0.968941" />
    <g
       aria-label="Z"
       transform="translate(880.574,399)"
       id="text31"
       style="font-size:100px;font-family:Calibri, Calibri_MSFontService, sans-serif">
      <path
         d="m 44.726562,-3.515625 q 0,0.9277344 -0.09766,1.6113281 -0.09766,0.6347657 -0.341797,1.07421877 Q 44.091797,-0.390625 43.75,-0.1953125 43.457031,0 43.017578,0 H 5.7128906 Q 4.4433594,0 3.6621094,-0.78125 2.8808594,-1.5625 2.8808594,-3.2714844 V -5.078125 q 0,-0.6347656 0.048828,-1.171875 0.097656,-0.5371094 0.3417969,-1.1230469 0.2441406,-0.6347656 0.6835937,-1.3671875 0.4394531,-0.78125 1.0742188,-1.8066406 L 34.179687,-56.152344 H 5.3710937 q -0.4882812,0 -0.8300781,-0.195312 -0.3417969,-0.195313 -0.5859375,-0.585938 -0.1953125,-0.439453 -0.2929687,-1.074218 -0.097656,-0.683594 -0.097656,-1.5625 0,-0.976563 0.097656,-1.660157 0.097656,-0.683593 0.2929687,-1.123047 0.2441406,-0.439453 0.5859375,-0.634765 0.3417969,-0.195313 0.8300781,-0.195313 H 40.527344 q 1.318359,0 2.050781,0.78125 0.78125,0.732422 0.78125,2.294922 v 1.904297 q 0,0.78125 -0.09766,1.416016 -0.09766,0.585937 -0.341797,1.220703 -0.244141,0.634765 -0.683594,1.367187 -0.390625,0.732422 -1.074219,1.708985 L 12.158203,-7.0800781 h 30.859375 q 0.830078,0 1.269531,0.8300781 0.439453,0.8300781 0.439453,2.734375 z"
         id="path1040" />
    </g>
    <g
       id="g905"
       transform="translate(194.56,141.312)">
      <circle
         style="fill:#d8dad9;fill-opacity:1;stroke:none;stroke-width:4.81049"
         id="path1051-8-2"
         cx="438.93726"
         cy="364.06784"
         r="38.540192" />
      <g
         id="g900"
         transform="translate(-180.224,-47.104)">
        <g
           aria-label="−"
           id="text11"
           style="font-size:100px;font-family:Calibri, Calibri_MSFontService, sans-serif">
          <path
             d="m 640.23059,411.17184 q 0,1.80665 -0.48828,2.63672 -0.43945,0.83008 -1.31836,0.83008 h -38.47656 q -0.92774,0 -1.41602,-0.83008 -0.43945,-0.83007 -0.43945,-2.63672 0,-1.75781 0.43945,-2.58789 0.48828,-0.8789 1.41602,-0.8789 h 38.47656 q 0.87891,0 1.31836,0.83008 0.48828,0.83007 0.48828,2.63671 z"
             id="path1050" />
        </g>
      </g>
    </g>
  </g>
</svg>
