<?xml version="1.0" encoding="UTF-8" standalone="no"?>
<svg
   width="119.5"
   height="134.88"
   style="clip-rule:evenodd;fill-rule:evenodd;stroke-linecap:round;stroke-linejoin:round;stroke-miterlimit:1.5"
   version="1.1"
   viewBox="0 0 119.5 134.88"
   xml:space="preserve"
   id="svg136"
   sodipodi:docname="2023-AU-05-taskbody_compatible-ita.svg"
   inkscape:version="1.1.1 (3bf5ae0d25, 2021-09-20)"
   xmlns:inkscape="http://www.inkscape.org/namespaces/inkscape"
   xmlns:sodipodi="http://sodipodi.sourceforge.net/DTD/sodipodi-0.dtd"
   xmlns="http://www.w3.org/2000/svg"
   xmlns:svg="http://www.w3.org/2000/svg"><defs
   id="defs140" /><sodipodi:namedview
   id="namedview138"
   pagecolor="#ffffff"
   bordercolor="#666666"
   borderopacity="1.0"
   inkscape:pageshadow="2"
   inkscape:pageopacity="0.0"
   inkscape:pagecheckerboard="0"
   showgrid="false"
   inkscape:zoom="3.7693487"
   inkscape:cx="63.406179"
   inkscape:cy="31.703089"
   inkscape:window-width="2048"
   inkscape:window-height="1017"
   inkscape:window-x="-8"
   inkscape:window-y="-8"
   inkscape:window-maximized="1"
   inkscape:current-layer="g134" />
    <g
   transform="translate(-461.76,-1132.9)"
   id="g134">
        
        
        
        
        
        
        
        
        
        <path
   id="rect2"
   style="fill:#086a93;stroke-width:0.1201"
   d="m 25.353516,21.279297 c -3.53,0 -6.396485,2.870391 -6.396485,6.400391 H 0.04492187 V 103.59961 H 31.478516 c 0,-3.53 2.863578,-6.388672 6.392578,-6.388672 3.53,0 6.396484,2.858672 6.396484,6.388672 h 6.392578 25.310547 V 27.679688 H 57.056641 c 0,-3.530001 -2.866485,-6.400391 -6.396485,-6.400391 -3.529,0 -6.392578,2.870391 -6.392578,6.400391 H 31.746094 c 0,-3.530001 -2.863578,-6.400391 -6.392578,-6.400391 z"
   transform="translate(461.76,1132.9)"
   sodipodi:nodetypes="sccccscccccsccs" />
        
        <path
   d="m 513,1193.9 -0.56507,-3.5463 -0.60583,3.5463 v 9.2661 l 0.5856,3.5595 0.5853,-3.5595 z"
   style="fill:#5ab1d6;stroke-width:0.17623"
   id="path6" />
        <path
   d="m 513,1168.6 -0.56507,-3.5463 -0.60583,3.5463 v 9.2661 l 0.5856,3.5595 0.5853,-3.5595 z"
   style="fill:#5ab1d6;stroke-width:0.17623"
   id="path8" />
        <path
   d="m 487.7,1193.9 -0.56507,-3.5463 -0.60583,3.5463 v 9.2661 l 0.5856,3.5595 0.5853,-3.5595 z"
   style="fill:#5ab1d6;stroke-width:0.17623"
   id="path10" />
        <path
   d="m 487.7,1168.6 -0.56507,-3.5463 -0.60583,3.5463 v 9.2661 l 0.5856,3.5595 0.5853,-3.5595 z"
   style="fill:#5ab1d6;stroke-width:0.17623"
   id="path12" />
        <path
   d="m 479.1,1211.7 3.5463,-0.5651 -3.5463,-0.6058 h -9.2661 l -3.5595,0.5856 3.5595,0.5853 z"
   style="fill:#5ab1d6;stroke-width:0.17623"
   id="path14" />
        <path
   d="m 479.68,1186.4 3.5463,-0.5651 -3.5463,-0.6058 h -9.2661 l -3.5595,0.5856 3.5595,0.5853 z"
   style="fill:#5ab1d6;stroke-width:0.17623"
   id="path16" />
        <path
   d="m 504.4,1211.7 3.5463,-0.5651 -3.5463,-0.6058 h -9.2661 l -3.5595,0.5856 3.5595,0.5853 z"
   style="fill:#5ab1d6;stroke-width:0.17623"
   id="path18" />
        <path
   d="m 504.99,1186.4 3.5463,-0.5651 -3.5463,-0.6058 h -9.2661 l -3.5595,0.5856 3.5595,0.5853 z"
   style="fill:#5ab1d6;stroke-width:0.17623"
   id="path20" />
        <path
   d="m 529.71,1211.7 3.5463,-0.5651 -3.5463,-0.6058 h -9.2661 l -3.5595,0.5856 3.5595,0.5853 z"
   style="fill:#5ab1d6;stroke-width:0.17623"
   id="path22" />
        <path
   d="m 530.3,1186.4 3.5463,-0.5651 -3.5463,-0.6058 h -9.2661 l -3.5595,0.5856 3.5595,0.5853 z"
   style="fill:#5ab1d6;stroke-width:0.17623"
   id="path24" />
        <path
   d="m 487.7,1219.2 -0.56507,-3.5463 -0.60583,3.5463 v 9.2661 l 0.5856,3.5595 0.5853,-3.5595 z"
   style="fill:#5ab1d6;stroke-width:0.17623"
   id="path26" />
        <path
   d="m 513,1219.2 -0.56507,-3.5463 -0.60583,3.5463 v 9.2661 l 0.5856,3.5595 0.5853,-3.5595 z"
   style="fill:#5ab1d6;stroke-width:0.17623"
   id="path28" />
        <path
   d="m 538.28,1160.5 9.421,0.05"
   style="fill:none;stroke:#000000;stroke-width:0.4px"
   id="path30" />
        <path
   d="m 461.96,1260.2 0.0497,-22.851"
   style="fill:none;stroke:#000000;stroke-width:0.39872px"
   id="path32" />
        <path
   d="m 538.28,1236.4 9.421,0.05"
   style="fill:none;stroke:#000000;stroke-width:0.4px"
   id="path34" />
        <path
   d="m 537.37,1260.2 0.0497,-22.851"
   style="fill:none;stroke:#000000;stroke-width:0.39872px"
   id="path36" />
        <path
   d="m 543,1236.5 v -75.89"
   style="fill:none;stroke:#000000;stroke-width:0.4px"
   id="path38" />
        <path
   d="M 537.41,1255.5 H 462.005"
   style="fill:none;stroke:#000000;stroke-width:0.39872px"
   id="path40" />
        
        
        
        <g
   transform="matrix(10.112,0,0,10.112,-6588,-10822)"
   style="stroke-width:0.098888;stroke-linecap:butt;stroke-linejoin:miter;stop-color:#000000"
   aria-label="altezza"
   id="g56"><path
     d="m 705.66,1188.7 q -0.11486,0 -0.15915,0.026 -0.0443,0.026 -0.0443,0.09 0,0.05 0.033,0.08 0.0335,0.029 0.0906,0.029 0.0788,0 0.12618,-0.056 0.0479,-0.056 0.0479,-0.1488 v -0.021 z m 0.18902,-0.039 v 0.3291 h -0.0948 v -0.088 q -0.0325,0.053 -0.0809,0.078 -0.0484,0.025 -0.11846,0.025 -0.0886,0 -0.14112,-0.05 -0.052,-0.05 -0.052,-0.1334 0,-0.097 0.0649,-0.1467 0.0654,-0.05 0.19469,-0.05 h 0.13288 v -0.01 q 0,-0.065 -0.0433,-0.1009 -0.0427,-0.036 -0.12052,-0.036 -0.0495,0 -0.0963,0.012 -0.0469,0.012 -0.0901,0.035 v -0.088 q 0.052,-0.02 0.10095,-0.03 0.0489,-0.01 0.0953,-0.01 0.12516,0 0.18696,0.065 0.0618,0.065 0.0618,0.1967 z"
     style="stop-color:#000000"
     id="path42" /><path
     d="m 706.05,1188.2037 h 0.0948 v 0.8014 H 706.05 Z"
     style="stop-color:#000000"
     id="path44" /><path
     d="m 706.43,1188.2642 v 0.1638 h 0.1952 v 0.074 H 706.43 v 0.3131 q 0,0.071 0.0191,0.091 0.0196,0.02 0.0788,0.02 h 0.0973 v 0.079 h -0.0973 q -0.10971,0 -0.15143,-0.041 -0.0417,-0.041 -0.0417,-0.1494 v -0.3131 h -0.0695 v -0.074 h 0.0695 v -0.1638 z"
     style="stop-color:#000000"
     id="path46" /><path
     d="m 707.25,1188.6778 v 0.046 h -0.43572 q 0.006,0.098 0.0587,0.1493 0.053,0.051 0.1473,0.051 0.0546,0 0.10559,-0.013 0.0515,-0.013 0.10198,-0.04 v 0.09 q -0.051,0.022 -0.10456,0.033 -0.0536,0.011 -0.10867,0.011 -0.13803,0 -0.21889,-0.08 -0.0803,-0.08 -0.0803,-0.2173 0,-0.1416 0.0762,-0.2246 0.0768,-0.083 0.20654,-0.083 0.1164,0 0.18387,0.075 0.068,0.075 0.068,0.2034 z m -0.0948,-0.028 q -0.001,-0.078 -0.0438,-0.1241 -0.0422,-0.046 -0.11228,-0.046 -0.0793,0 -0.12722,0.045 -0.0474,0.045 -0.0546,0.1262 z"
     style="stop-color:#000000"
     id="path48" /><path
     d="m 707.36,1188.4275 h 0.45015 v 0.087 l -0.35641,0.4146 h 0.35641 v 0.076 h -0.46302 v -0.086 l 0.35641,-0.4146 H 707.36 Z"
     style="stop-color:#000000"
     id="path50" /><path
     d="m 707.91,1188.4275 h 0.45014 v 0.087 l -0.35641,0.4146 h 0.35641 v 0.076 h -0.46302 v -0.086 l 0.35641,-0.4146 H 707.91 Z"
     style="stop-color:#000000"
     id="path52" /><path
     d="m 708.77,1188.7 q -0.11486,0 -0.15915,0.026 -0.0443,0.026 -0.0443,0.09 0,0.05 0.033,0.08 0.0335,0.029 0.0907,0.029 0.0788,0 0.12618,-0.056 0.0479,-0.056 0.0479,-0.1488 v -0.021 z m 0.18902,-0.039 v 0.3291 h -0.0948 v -0.088 q -0.0325,0.053 -0.0809,0.078 -0.0484,0.025 -0.11846,0.025 -0.0886,0 -0.14112,-0.05 -0.052,-0.05 -0.052,-0.1334 0,-0.097 0.0649,-0.1467 0.0654,-0.05 0.19469,-0.05 h 0.13288 v -0.01 q 0,-0.065 -0.0433,-0.1009 -0.0428,-0.036 -0.12052,-0.036 -0.0494,0 -0.0963,0.012 -0.0469,0.012 -0.0901,0.035 v -0.088 q 0.052,-0.02 0.10095,-0.03 0.0489,-0.01 0.0953,-0.01 0.12516,0 0.18696,0.065 0.0618,0.065 0.0618,0.1967 z"
     style="stop-color:#000000"
     id="path54" /></g><g
   aria-label="sporgenze"
   id="g76"><path
     d="m 479.59,1133.2 v 0.9063 q -0.40625,-0.2083 -0.84376,-0.3125 -0.4375,-0.1042 -0.90625,-0.1042 -0.71354,0 -1.0729,0.2188 -0.35417,0.2187 -0.35417,0.6562 0,0.3334 0.25521,0.5261 0.25521,0.1875 1.026,0.3593 l 0.32812,0.073 q 1.0208,0.2187 1.4479,0.6198 0.4323,0.3958 0.4323,1.1093 0,0.8125 -0.64584,1.2865 -0.64062,0.474 -1.7656,0.474 -0.46875,0 -0.97917,-0.094 -0.50521,-0.089 -1.0677,-0.2708 v -0.9896 q 0.53125,0.276 1.0469,0.4167 0.51563,0.1354 1.0208,0.1354 0.67708,0 1.0417,-0.2292 0.36459,-0.2344 0.36459,-0.6562 0,-0.3907 -0.26563,-0.599 -0.26041,-0.2083 -1.151,-0.401 l -0.33334,-0.078 q -0.89062,-0.1875 -1.2865,-0.5729 -0.39583,-0.3906 -0.39583,-1.0677 0,-0.8229 0.58333,-1.2708 0.58334,-0.448 1.6563,-0.448 0.53125,0 1,0.078 0.46875,0.078 0.86459,0.2343 z"
     id="path58" /><path
     d="m 482.35,1137.9 v 3.0938 h -0.96354 v -8.0521 H 482.35 v 0.8854 q 0.30208,-0.5208 0.76042,-0.7708 0.46354,-0.2553 1.1042,-0.2553 1.0625,0 1.724,0.8438 0.66667,0.8437 0.66667,2.2188 0,1.375 -0.66667,2.2187 -0.66146,0.8438 -1.724,0.8438 -0.64063,0 -1.1042,-0.25 -0.45834,-0.2552 -0.76042,-0.7761 z m 3.2604,-2.0364 q 0,-1.0573 -0.4375,-1.6563 -0.4323,-0.6042 -1.1927,-0.6042 -0.7604,0 -1.1979,0.6042 -0.43229,0.599 -0.43229,1.6563 0,1.0572 0.43229,1.6614 0.4375,0.599 1.1979,0.599 0.7604,0 1.1927,-0.599 0.4375,-0.6042 0.4375,-1.6614 z"
     id="path60" /><path
     d="m 490.46,1133.7 q -0.77083,0 -1.2188,0.6042 -0.44792,0.599 -0.44792,1.6459 0,1.0468 0.44271,1.651 0.44792,0.599 1.224,0.599 0.76563,0 1.2136,-0.6042 0.44797,-0.6042 0.44792,-1.6458 0,-1.0365 -0.44792,-1.6407 -0.44792,-0.6094 -1.2136,-0.6094 z m 0,-0.8125 q 1.25,0 1.9636,0.8125 0.7136,0.8125 0.71354,2.2501 0,1.4322 -0.71354,2.25 -0.71354,0.8125 -1.9636,0.8125 -1.2552,0 -1.9688,-0.8125 -0.70834,-0.8178 -0.70834,-2.25 0,-1.4376 0.70834,-2.2501 0.71354,-0.8125 1.9688,-0.8125 z"
     id="path62" /><path
     d="m 498.1,1133.9 q -0.16146,-0.094 -0.35417,-0.1354 -0.1875,-0.047 -0.41666,-0.047 -0.81251,0 -1.25,0.5313 -0.43229,0.526 -0.43229,1.5156 v 3.0729 h -0.96355 v -5.8333 h 0.96355 v 0.9062 q 0.30208,-0.5312 0.78646,-0.7864 0.48438,-0.2605 1.1771,-0.2605 0.099,0 0.21875,0.016 0.11979,0.01 0.26562,0.036 z"
     id="path64" /><path
     d="m 502.76,1135.8 q 0,-1.0416 -0.4323,-1.6146 -0.42708,-0.5729 -1.2031,-0.5729 -0.77083,0 -1.2031,0.5729 -0.42708,0.573 -0.42708,1.6146 0,1.0365 0.42708,1.6094 0.4323,0.5729 1.2031,0.5729 0.77605,0 1.2031,-0.5729 0.4323,-0.5729 0.4323,-1.6094 z m 0.95833,2.2605 q 0,1.4895 -0.66146,2.2135 -0.66146,0.7292 -2.026,0.7292 -0.50521,0 -0.95313,-0.078 -0.44791,-0.073 -0.86979,-0.2292 v -0.9323 q 0.42188,0.2292 0.83334,0.3385 0.41146,0.1094 0.83854,0.1094 0.94271,0 1.4115,-0.4948 0.46876,-0.4896 0.46876,-1.4844 v -0.4739 q -0.29688,0.5156 -0.76042,0.7708 -0.46355,0.2552 -1.1094,0.2552 -1.0729,0 -1.7292,-0.8177 -0.65626,-0.8177 -0.65626,-2.1667 0,-1.3541 0.65626,-2.1718 0.65625,-0.8178 1.7292,-0.8178 0.64583,0 1.1094,0.2553 0.46354,0.2552 0.76042,0.7708 v -0.8854 h 0.95833 z"
     id="path66" /><path
     d="m 510.68,1135.7 v 0.4687 h -4.4063 q 0.0625,0.9896 0.59375,1.5104 0.53646,0.5157 1.4896,0.5157 0.55209,0 1.0677,-0.1355 0.52084,-0.1354 1.0313,-0.4062 v 0.9062 q -0.51563,0.2188 -1.0573,0.3334 -0.54167,0.1146 -1.099,0.1146 -1.3958,0 -2.2136,-0.8125 -0.8125,-0.8125 -0.8125,-2.198 0,-1.4323 0.77083,-2.2708 0.77605,-0.8438 2.0886,-0.8438 1.1771,0 1.8594,0.7605 0.68751,0.7552 0.68751,2.0573 z m -0.95834,-0.2813 q -0.0104,-0.7865 -0.44271,-1.2552 -0.42709,-0.4688 -1.1354,-0.4688 -0.80209,0 -1.2865,0.4532 -0.47917,0.4531 -0.55209,1.276 z"
     id="path68" /><path
     d="m 517.1,1135.3 v 3.5208 h -0.95834 v -3.4896 q 0,-0.8281 -0.32291,-1.2396 -0.32292,-0.4114 -0.96876,-0.4114 -0.77604,0 -1.224,0.4948 -0.44796,0.4948 -0.44792,1.3489 v 3.2969 h -0.96354 v -5.8333 h 0.96354 v 0.9062 q 0.34375,-0.526 0.8073,-0.7864 0.46875,-0.2605 1.0781,-0.2605 1.0052,0 1.5208,0.625 0.51563,0.6198 0.51563,1.8282 z"
     id="path70" /><path
     d="m 518.6,1133 h 4.5521 v 0.875 l -3.6042,4.1927 h 3.6042 v 0.7656 h -4.6823 v -0.875 l 3.6042,-4.1927 H 518.6 Z"
     id="path72" /><path
     d="m 529.6,1135.7 v 0.4687 h -4.4063 q 0.0625,0.9896 0.59375,1.5104 0.53646,0.5157 1.4896,0.5157 0.55208,0 1.0677,-0.1355 0.52083,-0.1354 1.0312,-0.4062 v 0.9062 q -0.51563,0.2188 -1.0573,0.3334 -0.54167,0.1146 -1.099,0.1146 -1.3958,0 -2.2136,-0.8125 -0.8125,-0.8125 -0.8125,-2.198 0,-1.4323 0.77084,-2.2708 0.77604,-0.8438 2.0886,-0.8438 1.1771,0 1.8594,0.7605 0.6875,0.7552 0.6875,2.0573 z m -0.95834,-0.2813 q -0.0104,-0.7865 -0.44271,-1.2552 -0.42708,-0.4688 -1.1354,-0.4688 -0.80208,0 -1.2865,0.4532 -0.47917,0.4531 -0.55208,1.276 z"
     id="path74" /></g><g
   transform="matrix(10.112,0,0,10.112,-6642.1,-10823)"
   style="stroke-width:0.098888;stroke-linecap:butt;stroke-linejoin:miter;stop-color:#000000"
   aria-label="scanalature"
   id="g100"><path
     d="m 703.8,1193.0235 v 0.09 q -0.0402,-0.021 -0.0834,-0.031 -0.0433,-0.01 -0.0896,-0.01 -0.0706,0 -0.1061,0.022 -0.035,0.022 -0.035,0.065 0,0.033 0.0252,0.052 0.0252,0.019 0.10147,0.035 l 0.0325,0.01 q 0.10094,0.022 0.14318,0.061 0.0428,0.039 0.0428,0.1097 0,0.08 -0.0639,0.1272 -0.0634,0.047 -0.1746,0.047 -0.0464,0 -0.0968,-0.01 -0.05,-0.01 -0.10558,-0.027 v -0.098 q 0.0525,0.027 0.10352,0.041 0.051,0.013 0.10095,0.013 0.067,0 0.10301,-0.023 0.0361,-0.023 0.0361,-0.065 0,-0.039 -0.0263,-0.059 -0.0258,-0.021 -0.11383,-0.04 l -0.033,-0.01 q -0.0881,-0.018 -0.12722,-0.057 -0.0391,-0.039 -0.0391,-0.1056 0,-0.081 0.0577,-0.1257 0.0577,-0.044 0.16379,-0.044 0.0525,0 0.0989,0.01 0.0463,0.01 0.0855,0.023 z"
     style="stop-color:#000000"
     id="path78" /><path
     d="m 704.39,1193.0303 v 0.089 q -0.0402,-0.022 -0.0809,-0.033 -0.0402,-0.011 -0.0814,-0.011 -0.0922,0 -0.14318,0.059 -0.051,0.058 -0.051,0.1638 0,0.1055 0.051,0.1643 0.051,0.058 0.14318,0.058 0.0412,0 0.0814,-0.011 0.0407,-0.011 0.0809,-0.033 v 0.087 q -0.0397,0.019 -0.0824,0.028 -0.0422,0.01 -0.0901,0.01 -0.13031,0 -0.20705,-0.082 -0.0767,-0.082 -0.0767,-0.2209 0,-0.1412 0.0773,-0.222 0.0778,-0.081 0.21271,-0.081 0.0438,0 0.0855,0.01 0.0417,0.01 0.0809,0.027 z"
     style="stop-color:#000000"
     id="path80" /><path
     d="m 704.82,1193.2963 q -0.11485,0 -0.15915,0.026 -0.0443,0.026 -0.0443,0.09 0,0.05 0.033,0.08 0.0335,0.029 0.0906,0.029 0.0788,0 0.12619,-0.056 0.0479,-0.056 0.0479,-0.1489 v -0.021 z m 0.18902,-0.039 v 0.3291 h -0.0948 v -0.088 q -0.0324,0.053 -0.0809,0.078 -0.0484,0.025 -0.11846,0.025 -0.0886,0 -0.14112,-0.049 -0.052,-0.05 -0.052,-0.1334 0,-0.097 0.0649,-0.1468 0.0654,-0.049 0.19468,-0.049 h 0.13288 v -0.01 q 0,-0.065 -0.0433,-0.101 -0.0428,-0.036 -0.12052,-0.036 -0.0494,0 -0.0963,0.012 -0.0469,0.012 -0.0901,0.036 v -0.088 q 0.052,-0.02 0.10095,-0.03 0.0489,-0.01 0.0953,-0.01 0.12515,0 0.18696,0.065 0.0618,0.065 0.0618,0.1968 z"
     style="stop-color:#000000"
     id="path82" /><path
     d="m 705.68,1193.2532 v 0.3482 h -0.0948 v -0.3451 q 0,-0.082 -0.0319,-0.1226 -0.0319,-0.041 -0.0958,-0.041 -0.0767,0 -0.12103,0.049 -0.0443,0.049 -0.0443,0.1334 v 0.3261 h -0.0953 v -0.5769 h 0.0953 v 0.09 q 0.034,-0.052 0.0798,-0.078 0.0464,-0.026 0.10662,-0.026 0.0994,0 0.15039,0.062 0.051,0.061 0.051,0.1808 z"
     style="stop-color:#000000"
     id="path84" /><path
     d="m 706.13,1193.2963 q -0.11486,0 -0.15915,0.026 -0.0443,0.026 -0.0443,0.09 0,0.05 0.033,0.08 0.0335,0.029 0.0906,0.029 0.0788,0 0.12618,-0.056 0.0479,-0.056 0.0479,-0.1489 v -0.021 z m 0.18902,-0.039 v 0.3291 h -0.0948 v -0.088 q -0.0325,0.053 -0.0809,0.078 -0.0484,0.025 -0.11846,0.025 -0.0886,0 -0.14112,-0.049 -0.052,-0.05 -0.052,-0.1334 0,-0.097 0.0649,-0.1468 0.0654,-0.049 0.19469,-0.049 h 0.13288 v -0.01 q 0,-0.065 -0.0433,-0.101 -0.0427,-0.036 -0.12052,-0.036 -0.0495,0 -0.0963,0.012 -0.0469,0.012 -0.0901,0.036 v -0.088 q 0.052,-0.02 0.10095,-0.03 0.0489,-0.01 0.0953,-0.01 0.12516,0 0.18696,0.065 0.0618,0.065 0.0618,0.1968 z"
     style="stop-color:#000000"
     id="path86" /><path
     d="m 706.52,1192.8 h 0.0948 v 0.8014 H 706.52 Z"
     style="stop-color:#000000"
     id="path88" /><path
     d="m 707.07,1193.2963 q -0.11486,0 -0.15915,0.026 -0.0443,0.026 -0.0443,0.09 0,0.05 0.033,0.08 0.0335,0.029 0.0906,0.029 0.0788,0 0.12618,-0.056 0.0479,-0.056 0.0479,-0.1489 v -0.021 z m 0.18902,-0.039 v 0.3291 h -0.0948 v -0.088 q -0.0325,0.053 -0.0809,0.078 -0.0484,0.025 -0.11846,0.025 -0.0886,0 -0.14112,-0.049 -0.052,-0.05 -0.052,-0.1334 0,-0.097 0.0649,-0.1468 0.0654,-0.049 0.19469,-0.049 h 0.13288 v -0.01 q 0,-0.065 -0.0433,-0.101 -0.0427,-0.036 -0.12052,-0.036 -0.0494,0 -0.0963,0.012 -0.0469,0.012 -0.0901,0.036 v -0.088 q 0.052,-0.02 0.10095,-0.03 0.0489,-0.01 0.0953,-0.01 0.12516,0 0.18697,0.065 0.0618,0.065 0.0618,0.1968 z"
     style="stop-color:#000000"
     id="path90" /><path
     d="m 707.55,1192.8605 v 0.1638 h 0.1952 v 0.074 H 707.55 v 0.3131 q 0,0.071 0.0191,0.091 0.0196,0.02 0.0788,0.02 h 0.0973 v 0.079 h -0.0973 q -0.10971,0 -0.15142,-0.041 -0.0417,-0.041 -0.0417,-0.1494 v -0.3131 h -0.0695 v -0.074 h 0.0695 v -0.1638 z"
     style="stop-color:#000000"
     id="path92" /><path
     d="m 707.86,1193.3595 v -0.3492 h 0.0948 v 0.3456 q 0,0.082 0.0319,0.1231 0.0319,0.041 0.0958,0.041 0.0767,0 0.12103,-0.049 0.0448,-0.049 0.0448,-0.1334 v -0.3271 h 0.0948 v 0.5769 h -0.0948 v -0.089 q -0.0345,0.053 -0.0803,0.078 -0.0453,0.025 -0.10558,0.025 -0.0994,0 -0.15091,-0.062 -0.0515,-0.062 -0.0515,-0.1808 z"
     style="stop-color:#000000"
     id="path94" /><path
     d="m 708.87,1193.1076 q -0.016,-0.01 -0.035,-0.013 -0.0185,0 -0.0412,0 -0.0804,0 -0.12361,0.053 -0.0428,0.052 -0.0428,0.1499 v 0.3039 h -0.0953 v -0.5769 h 0.0953 v 0.09 q 0.0299,-0.053 0.0778,-0.078 0.0479,-0.026 0.1164,-0.026 0.01,0 0.0216,0 0.0118,0 0.0263,0 z"
     style="stop-color:#000000"
     id="path96" /><path
     d="m 709.44,1193.274 v 0.046 h -0.43573 q 0.006,0.098 0.0587,0.1494 0.053,0.051 0.1473,0.051 0.0546,0 0.10559,-0.013 0.0515,-0.013 0.10197,-0.04 v 0.09 q -0.051,0.022 -0.10455,0.033 -0.0536,0.011 -0.10867,0.011 -0.13804,0 -0.2189,-0.08 -0.0803,-0.08 -0.0803,-0.2174 0,-0.1416 0.0762,-0.2246 0.0767,-0.083 0.20654,-0.083 0.1164,0 0.18387,0.075 0.068,0.075 0.068,0.2035 z m -0.0948,-0.028 q -10e-4,-0.078 -0.0438,-0.1241 -0.0422,-0.046 -0.11227,-0.046 -0.0793,0 -0.12722,0.045 -0.0474,0.045 -0.0546,0.1262 z"
     style="stop-color:#000000"
     id="path98" /></g><g
   transform="matrix(10.112,0,0,10.112,-6640.9,-10824)"
   style="stroke-width:0.098888;stroke-linecap:butt;stroke-linejoin:miter;stop-color:#000000"
   aria-label="larghezza"
   id="g120"><path
     d="m 703.68,1194.7037 h 0.0948 v 0.8014 H 703.68 Z"
     style="stop-color:#000000"
     id="path102" /><path
     d="m 704.23,1195.2 q -0.11486,0 -0.15915,0.026 -0.0443,0.026 -0.0443,0.09 0,0.051 0.033,0.08 0.0335,0.029 0.0906,0.029 0.0788,0 0.12619,-0.056 0.0479,-0.056 0.0479,-0.1488 v -0.021 z m 0.18902,-0.039 v 0.3291 h -0.0948 v -0.088 q -0.0325,0.053 -0.0809,0.078 -0.0484,0.025 -0.11846,0.025 -0.0886,0 -0.14112,-0.05 -0.052,-0.05 -0.052,-0.1334 0,-0.097 0.0649,-0.1468 0.0654,-0.049 0.19469,-0.049 h 0.13288 v -0.01 q 0,-0.065 -0.0433,-0.1009 -0.0427,-0.036 -0.12052,-0.036 -0.0494,0 -0.0963,0.012 -0.0469,0.012 -0.0901,0.035 v -0.088 q 0.052,-0.02 0.10095,-0.03 0.0489,-0.01 0.0953,-0.01 0.12516,0 0.18696,0.065 0.0618,0.065 0.0618,0.1967 z"
     style="stop-color:#000000"
     id="path104" /><path
     d="m 704.95,1195.0114 q -0.016,-0.01 -0.035,-0.013 -0.0185,0 -0.0412,0 -0.0803,0 -0.12361,0.053 -0.0427,0.052 -0.0427,0.1499 v 0.3038 h -0.0953 v -0.5768 h 0.0953 v 0.09 q 0.0299,-0.053 0.0778,-0.078 0.0479,-0.026 0.1164,-0.026 0.01,0 0.0216,0 0.0118,0 0.0263,0 z"
     style="stop-color:#000000"
     id="path106" /><path
     d="m 705.41,1195.2 q 0,-0.103 -0.0428,-0.1597 -0.0422,-0.057 -0.11897,-0.057 -0.0762,0 -0.11898,0.057 -0.0422,0.057 -0.0422,0.1597 0,0.1025 0.0422,0.1592 0.0427,0.057 0.11898,0.057 0.0767,0 0.11897,-0.057 0.0428,-0.057 0.0428,-0.1592 z m 0.0948,0.2235 q 0,0.1473 -0.0654,0.2189 -0.0654,0.072 -0.20035,0.072 -0.05,0 -0.0943,-0.01 -0.0443,-0.01 -0.086,-0.023 v -0.092 q 0.0417,0.023 0.0824,0.033 0.0407,0.011 0.0829,0.011 0.0932,0 0.13958,-0.049 0.0464,-0.048 0.0464,-0.1468 v -0.047 q -0.0294,0.051 -0.0752,0.076 -0.0458,0.025 -0.10971,0.025 -0.1061,0 -0.17099,-0.081 -0.0649,-0.081 -0.0649,-0.2143 0,-0.1339 0.0649,-0.2148 0.0649,-0.081 0.17099,-0.081 0.0639,0 0.10971,0.025 0.0458,0.025 0.0752,0.076 v -0.088 h 0.0948 z"
     style="stop-color:#000000"
     id="path108" /><path
     d="m 706.18,1195.157 v 0.3481 h -0.0948 v -0.345 q 0,-0.082 -0.0319,-0.1226 -0.0319,-0.041 -0.0958,-0.041 -0.0767,0 -0.12104,0.049 -0.0443,0.049 -0.0443,0.1334 v 0.326 h -0.0953 v -0.8014 h 0.0953 v 0.3142 q 0.034,-0.052 0.0798,-0.078 0.0464,-0.026 0.10662,-0.026 0.0994,0 0.15039,0.062 0.051,0.061 0.051,0.1808 z"
     style="stop-color:#000000"
     id="path110" /><path
     d="m 706.86,1195.1778 v 0.046 h -0.43573 q 0.006,0.098 0.0587,0.1493 0.053,0.051 0.1473,0.051 0.0546,0 0.10559,-0.013 0.0515,-0.013 0.10197,-0.04 v 0.09 q -0.051,0.022 -0.10455,0.033 -0.0536,0.011 -0.10867,0.011 -0.13804,0 -0.2189,-0.08 -0.0803,-0.08 -0.0803,-0.2173 0,-0.1417 0.0762,-0.2246 0.0767,-0.083 0.20653,-0.083 0.1164,0 0.18388,0.075 0.068,0.075 0.068,0.2034 z m -0.0948,-0.028 q -0.001,-0.078 -0.0438,-0.1241 -0.0422,-0.046 -0.11228,-0.046 -0.0793,0 -0.12721,0.045 -0.0474,0.045 -0.0546,0.1262 z"
     style="stop-color:#000000"
     id="path112" /><path
     d="m 706.98,1194.9275 h 0.45015 v 0.087 l -0.35641,0.4146 h 0.35641 v 0.076 h -0.46303 v -0.086 l 0.35642,-0.4146 H 706.98 Z"
     style="stop-color:#000000"
     id="path114" /><path
     d="m 707.53,1194.9275 h 0.45015 v 0.087 l -0.35641,0.4146 h 0.35641 v 0.076 h -0.46302 v -0.086 l 0.35641,-0.4146 H 707.53 Z"
     style="stop-color:#000000"
     id="path116" /><path
     d="m 708.39,1195.2 q -0.11486,0 -0.15915,0.026 -0.0443,0.026 -0.0443,0.09 0,0.051 0.033,0.08 0.0335,0.029 0.0906,0.029 0.0788,0 0.12619,-0.056 0.0479,-0.056 0.0479,-0.1488 v -0.021 z m 0.18902,-0.039 v 0.3291 h -0.0948 v -0.088 q -0.0325,0.053 -0.0809,0.078 -0.0484,0.025 -0.11846,0.025 -0.0886,0 -0.14112,-0.05 -0.052,-0.05 -0.052,-0.1334 0,-0.097 0.0649,-0.1468 0.0654,-0.049 0.19469,-0.049 h 0.13288 v -0.01 q 0,-0.065 -0.0433,-0.1009 -0.0427,-0.036 -0.12052,-0.036 -0.0494,0 -0.0963,0.012 -0.0469,0.012 -0.0901,0.035 v -0.088 q 0.052,-0.02 0.10095,-0.03 0.0489,-0.01 0.0953,-0.01 0.12516,0 0.18696,0.065 0.0618,0.065 0.0618,0.1967 z"
     style="stop-color:#000000"
     id="path118" /></g>
        
        <path
   d="m 492.26,1143.1 -4.4883,9.8669"
   style="fill:none;stroke:#000000;stroke-width:0.43056px"
   id="path122" />
        <path
   d="m 500.24,1239.1 c 0.34655,-2.5984 -0.003,-2.6875 -0.5135,-6.7523"
   style="fill:none;stroke:#000000;stroke-width:0.43056px"
   id="path124" />
        <path
   d="m 508.01,1143.1 4.4883,9.8669"
   style="fill:none;stroke:#000000;stroke-width:0.43056px"
   id="path126" />
        <path
   d="m 491.68,1151.1 c -1.1996,0.2689 -2.4965,0.9029 -3.8791,1.8603 -0.0783,-1.372 -0.1072,-2.474 -0.20723,-4.1016"
   style="fill:none;stroke:#000000;stroke-width:0.40032px"
   id="path128" />
        <path
   d="m 497.89,1236.2 c 0.75871,-0.9673 1.3617,-2.279 1.8264,-3.8952 0.92881,1.0128 1.7707,2.1556 2.2648,3.7921"
   style="fill:none;stroke:#000000;stroke-width:0.40032px"
   id="path130" />
        <path
   d="m 512.88,1148.9 c -0.37775,1.1305 -0.49402,2.5071 -0.37852,4.1012 -1.2068,-0.551 -2.3768,-1.2486 -3.3908,-2.5086"
   style="fill:none;stroke:#000000;stroke-width:0.39879px"
   id="path132" />
    </g>
</svg>
