<?xml version="1.0" encoding="UTF-8" standalone="no"?>
<svg
   width="119.5"
   height="134.88"
   style="clip-rule:evenodd;fill-rule:evenodd;stroke-linecap:round;stroke-linejoin:round;stroke-miterlimit:1.5"
   version="1.1"
   viewBox="0 0 119.5 134.88"
   xml:space="preserve"
   id="svg136"
   sodipodi:docname="2023-AU-05-taskbody-ita.svg"
   inkscape:version="1.1.1 (3bf5ae0d25, 2021-09-20)"
   xmlns:inkscape="http://www.inkscape.org/namespaces/inkscape"
   xmlns:sodipodi="http://sodipodi.sourceforge.net/DTD/sodipodi-0.dtd"
   xmlns="http://www.w3.org/2000/svg"
   xmlns:svg="http://www.w3.org/2000/svg"><defs
   id="defs140" /><sodipodi:namedview
   id="namedview138"
   pagecolor="#ffffff"
   bordercolor="#666666"
   borderopacity="1.0"
   inkscape:pageshadow="2"
   inkscape:pageopacity="0.0"
   inkscape:pagecheckerboard="0"
   showgrid="false"
   inkscape:zoom="3.7693487"
   inkscape:cx="63.406179"
   inkscape:cy="31.703089"
   inkscape:window-width="2048"
   inkscape:window-height="1017"
   inkscape:window-x="-8"
   inkscape:window-y="-8"
   inkscape:window-maximized="1"
   inkscape:current-layer="g134" />
    <g
   transform="translate(-461.76,-1132.9)"
   id="g134">
        
        
        
        
        
        
        
        
        
        <path
   id="rect2"
   style="fill:#086a93;stroke-width:0.1201"
   d="m 25.353516,21.279297 c -3.53,0 -6.396485,2.870391 -6.396485,6.400391 H 0.04492187 V 103.59961 H 31.478516 c 0,-3.53 2.863578,-6.388672 6.392578,-6.388672 3.53,0 6.396484,2.858672 6.396484,6.388672 h 6.392578 25.310547 V 27.679688 H 57.056641 c 0,-3.530001 -2.866485,-6.400391 -6.396485,-6.400391 -3.529,0 -6.392578,2.870391 -6.392578,6.400391 H 31.746094 c 0,-3.530001 -2.863578,-6.400391 -6.392578,-6.400391 z"
   transform="translate(461.76,1132.9)"
   sodipodi:nodetypes="sccccscccccsccs" />
        
        <path
   d="m 513,1193.9 -0.56507,-3.5463 -0.60583,3.5463 v 9.2661 l 0.5856,3.5595 0.5853,-3.5595 z"
   style="fill:#5ab1d6;stroke-width:0.17623"
   id="path6" />
        <path
   d="m 513,1168.6 -0.56507,-3.5463 -0.60583,3.5463 v 9.2661 l 0.5856,3.5595 0.5853,-3.5595 z"
   style="fill:#5ab1d6;stroke-width:0.17623"
   id="path8" />
        <path
   d="m 487.7,1193.9 -0.56507,-3.5463 -0.60583,3.5463 v 9.2661 l 0.5856,3.5595 0.5853,-3.5595 z"
   style="fill:#5ab1d6;stroke-width:0.17623"
   id="path10" />
        <path
   d="m 487.7,1168.6 -0.56507,-3.5463 -0.60583,3.5463 v 9.2661 l 0.5856,3.5595 0.5853,-3.5595 z"
   style="fill:#5ab1d6;stroke-width:0.17623"
   id="path12" />
        <path
   d="m 479.1,1211.7 3.5463,-0.5651 -3.5463,-0.6058 h -9.2661 l -3.5595,0.5856 3.5595,0.5853 z"
   style="fill:#5ab1d6;stroke-width:0.17623"
   id="path14" />
        <path
   d="m 479.68,1186.4 3.5463,-0.5651 -3.5463,-0.6058 h -9.2661 l -3.5595,0.5856 3.5595,0.5853 z"
   style="fill:#5ab1d6;stroke-width:0.17623"
   id="path16" />
        <path
   d="m 504.4,1211.7 3.5463,-0.5651 -3.5463,-0.6058 h -9.2661 l -3.5595,0.5856 3.5595,0.5853 z"
   style="fill:#5ab1d6;stroke-width:0.17623"
   id="path18" />
        <path
   d="m 504.99,1186.4 3.5463,-0.5651 -3.5463,-0.6058 h -9.2661 l -3.5595,0.5856 3.5595,0.5853 z"
   style="fill:#5ab1d6;stroke-width:0.17623"
   id="path20" />
        <path
   d="m 529.71,1211.7 3.5463,-0.5651 -3.5463,-0.6058 h -9.2661 l -3.5595,0.5856 3.5595,0.5853 z"
   style="fill:#5ab1d6;stroke-width:0.17623"
   id="path22" />
        <path
   d="m 530.3,1186.4 3.5463,-0.5651 -3.5463,-0.6058 h -9.2661 l -3.5595,0.5856 3.5595,0.5853 z"
   style="fill:#5ab1d6;stroke-width:0.17623"
   id="path24" />
        <path
   d="m 487.7,1219.2 -0.56507,-3.5463 -0.60583,3.5463 v 9.2661 l 0.5856,3.5595 0.5853,-3.5595 z"
   style="fill:#5ab1d6;stroke-width:0.17623"
   id="path26" />
        <path
   d="m 513,1219.2 -0.56507,-3.5463 -0.60583,3.5463 v 9.2661 l 0.5856,3.5595 0.5853,-3.5595 z"
   style="fill:#5ab1d6;stroke-width:0.17623"
   id="path28" />
        <path
   d="m 538.28,1160.5 9.421,0.05"
   style="fill:none;stroke:#000000;stroke-width:0.4px"
   id="path30" />
        <path
   d="m 461.96,1260.2 0.0497,-22.851"
   style="fill:none;stroke:#000000;stroke-width:0.39872px"
   id="path32" />
        <path
   d="m 538.28,1236.4 9.421,0.05"
   style="fill:none;stroke:#000000;stroke-width:0.4px"
   id="path34" />
        <path
   d="m 537.37,1260.2 0.0497,-22.851"
   style="fill:none;stroke:#000000;stroke-width:0.39872px"
   id="path36" />
        <path
   d="m 543,1236.5 v -75.89"
   style="fill:none;stroke:#000000;stroke-width:0.4px"
   id="path38" />
        <path
   d="M 537.41,1255.5 H 462.005"
   style="fill:none;stroke:#000000;stroke-width:0.39872px"
   id="path40" />
        
        
        
        <g
   transform="matrix(10.112,0,0,10.112,-6588,-10822)"
   style="stroke-width:0.098888;stroke-linecap:butt;stroke-linejoin:miter;stop-color:#000000"
   aria-label="altezza"
   id="g56" /><g
   aria-label="sporgenze"
   id="g76" /><g
   transform="matrix(10.112,0,0,10.112,-6642.1,-10823)"
   style="stroke-width:0.098888;stroke-linecap:butt;stroke-linejoin:miter;stop-color:#000000"
   aria-label="scanalature"
   id="g100" /><g
   transform="matrix(10.112,0,0,10.112,-6640.9,-10824)"
   style="stroke-width:0.098888;stroke-linecap:butt;stroke-linejoin:miter;stop-color:#000000"
   aria-label="larghezza"
   id="g120" />
        
        <path
   d="m 492.26,1143.1 -4.4883,9.8669"
   style="fill:none;stroke:#000000;stroke-width:0.43056px"
   id="path122" />
        <path
   d="m 500.24,1239.1 c 0.34655,-2.5984 -0.003,-2.6875 -0.5135,-6.7523"
   style="fill:none;stroke:#000000;stroke-width:0.43056px"
   id="path124" />
        <path
   d="m 508.01,1143.1 4.4883,9.8669"
   style="fill:none;stroke:#000000;stroke-width:0.43056px"
   id="path126" />
        <path
   d="m 491.68,1151.1 c -1.1996,0.2689 -2.4965,0.9029 -3.8791,1.8603 -0.0783,-1.372 -0.1072,-2.474 -0.20723,-4.1016"
   style="fill:none;stroke:#000000;stroke-width:0.40032px"
   id="path128" />
        <path
   d="m 497.89,1236.2 c 0.75871,-0.9673 1.3617,-2.279 1.8264,-3.8952 0.92881,1.0128 1.7707,2.1556 2.2648,3.7921"
   style="fill:none;stroke:#000000;stroke-width:0.40032px"
   id="path130" />
        <path
   d="m 512.88,1148.9 c -0.37775,1.1305 -0.49402,2.5071 -0.37852,4.1012 -1.2068,-0.551 -2.3768,-1.2486 -3.3908,-2.5086"
   style="fill:none;stroke:#000000;stroke-width:0.39879px"
   id="path132" />
    <text
   xml:space="preserve"
   style="font-size:10.6667px;line-height:1.25;font-family:sans-serif;clip-rule:evenodd;fill-rule:evenodd;stroke-width:1;stroke-linecap:round;stroke-linejoin:round;stroke-miterlimit:1.5;stop-color:#000000"
   x="474.84067"
   y="1138.9989"
   id="text3718"><tspan
     sodipodi:role="line"
     id="tspan3716"
     style="font-size:10.6667px;stroke-width:1"
     x="474.84067"
     y="1138.9989">sporgenze</tspan></text><text
   xml:space="preserve"
   style="font-size:10.6667px;line-height:1.25;font-family:sans-serif;clip-rule:evenodd;fill-rule:evenodd;stroke-width:1;stroke-linecap:round;stroke-linejoin:round;stroke-miterlimit:1.5;stop-color:#000000"
   x="543.93433"
   y="1201.1021"
   id="text3718-4"><tspan
     sodipodi:role="line"
     id="tspan3716-4"
     style="font-size:10.6667px;stroke-width:1"
     x="543.93433"
     y="1201.1021">altezza</tspan></text><text
   xml:space="preserve"
   style="font-size:10.6667px;line-height:1.25;font-family:sans-serif;clip-rule:evenodd;fill-rule:evenodd;stroke-width:1;stroke-linecap:round;stroke-linejoin:round;stroke-miterlimit:1.5;stop-color:#000000"
   x="469.91626"
   y="1246.468"
   id="text3718-7"><tspan
     sodipodi:role="line"
     id="tspan3716-7"
     style="font-size:10.6667px;stroke-width:1"
     x="469.91626"
     y="1246.468">scanalature</tspan></text><text
   xml:space="preserve"
   style="font-size:10.6667px;line-height:1.25;font-family:sans-serif;clip-rule:evenodd;fill-rule:evenodd;stroke-width:1;stroke-linecap:round;stroke-linejoin:round;stroke-miterlimit:1.5;stop-color:#000000"
   x="473.36514"
   y="1265.0388"
   id="text3718-75"><tspan
     sodipodi:role="line"
     id="tspan3716-8"
     style="font-size:10.6667px;stroke-width:1"
     x="473.36514"
     y="1265.0388">larghezza</tspan></text></g>
</svg>
