<?xml version="1.0" encoding="UTF-8" standalone="no"?>
<!-- Created with Inkscape (http://www.inkscape.org/) -->

<svg
   width="84.914642mm"
   height="84.914635mm"
   viewBox="0 0 300.87865 300.87863"
   id="svg11618"
   version="1.1"
   inkscape:version="1.1.1 (3bf5ae0d25, 2021-09-20)"
   sodipodi:docname="2016-AT-06-answerD.svg"
   xmlns:inkscape="http://www.inkscape.org/namespaces/inkscape"
   xmlns:sodipodi="http://sodipodi.sourceforge.net/DTD/sodipodi-0.dtd"
   xmlns="http://www.w3.org/2000/svg"
   xmlns:svg="http://www.w3.org/2000/svg"
   xmlns:rdf="http://www.w3.org/1999/02/22-rdf-syntax-ns#"
   xmlns:cc="http://creativecommons.org/ns#"
   xmlns:dc="http://purl.org/dc/elements/1.1/">
  <defs
     id="defs11620">
    <linearGradient
       id="linearGradient12797"
       inkscape:swatch="gradient">
      <stop
         style="stop-color:#003380;stop-opacity:1;"
         offset="0"
         id="stop12799" />
      <stop
         style="stop-color:#003380;stop-opacity:0;"
         offset="1"
         id="stop12801" />
    </linearGradient>
  </defs>
  <sodipodi:namedview
     id="base"
     pagecolor="#ffffff"
     bordercolor="#666666"
     borderopacity="1.0"
     inkscape:pageopacity="0.0"
     inkscape:pageshadow="2"
     inkscape:zoom="0.91890457"
     inkscape:cx="-38.632956"
     inkscape:cy="229.07711"
     inkscape:document-units="px"
     inkscape:current-layer="layer1"
     showgrid="false"
     inkscape:window-width="2048"
     inkscape:window-height="1017"
     inkscape:window-x="-8"
     inkscape:window-y="-8"
     inkscape:window-maximized="1"
     fit-margin-top="0"
     fit-margin-left="0"
     fit-margin-right="0"
     fit-margin-bottom="0"
     showguides="false"
     inkscape:pagecheckerboard="0" />
  <metadata
     id="metadata11623">
    <rdf:RDF>
      <cc:Work
         rdf:about="">
        <dc:format>image/svg+xml</dc:format>
        <dc:type
           rdf:resource="http://purl.org/dc/dcmitype/StillImage" />
      </cc:Work>
    </rdf:RDF>
  </metadata>
  <g
     inkscape:label="Ebene 1"
     inkscape:groupmode="layer"
     id="layer1"
     style="display:inline"
     transform="translate(-46.703522,-270.49432)">
    <rect
       style="font-variation-settings:normal;opacity:1;vector-effect:none;fill:#ffe680;fill-opacity:1;stroke:none;stroke-width:2.12511;stroke-linecap:round;stroke-linejoin:round;stroke-miterlimit:4;stroke-dasharray:none;stroke-dashoffset:0;stroke-opacity:1;-inkscape-stroke:none;paint-order:fill markers stroke;stop-color:#000000;stop-opacity:1"
       id="rect2069"
       width="300.87866"
       height="300.8786"
       x="46.703529"
       y="270.49432" />
    <path
       id="path11557"
       style="font-variation-settings:normal;display:inline;overflow:visible;opacity:1;vector-effect:none;fill:#782121;fill-opacity:1;fill-rule:evenodd;stroke-width:1.40625;stroke-linecap:round;stroke-linejoin:round;stroke-miterlimit:4;stroke-dasharray:none;stroke-dashoffset:0;stroke-opacity:1;-inkscape-stroke:none;enable-background:accumulate;stop-color:#000000;stop-opacity:1"
       transform="rotate(-90)"
       d="M -571.37294,196.70352 A 149.99998,150 0 0 1 -421.37296,46.703522 149.99998,150 0 0 1 -271.37297,196.70352 h -149.99999 z" />
    <path
       id="path11557-5-0-3-2-80-1-8"
       style="font-variation-settings:normal;display:inline;overflow:visible;opacity:1;vector-effect:none;fill:#782121;fill-opacity:1;fill-rule:evenodd;stroke-width:1.40625;stroke-linecap:round;stroke-linejoin:round;stroke-miterlimit:4;stroke-dasharray:none;stroke-dashoffset:0;stroke-opacity:1;-inkscape-stroke:none;enable-background:accumulate;stop-color:#000000;stop-opacity:1"
       transform="scale(1,-1)"
       d="m 272.58219,-346.37296 a 18.749998,18.75 0 0 1 18.74999,-18.75 18.749998,18.75 0 0 1 18.75,18.75 h -18.75 z" />
    <path
       id="path11557-5-0-1-2-9"
       style="font-variation-settings:normal;display:inline;overflow:visible;opacity:1;vector-effect:none;fill:#782121;fill-opacity:1;fill-rule:evenodd;stroke-width:1.40625;stroke-linecap:round;stroke-linejoin:round;stroke-miterlimit:4;stroke-dasharray:none;stroke-dashoffset:0;stroke-opacity:1;-inkscape-stroke:none;enable-background:accumulate;stop-color:#000000;stop-opacity:1"
       transform="matrix(0,-1,-1,0,0,0)"
       d="m -421.37295,-196.70354 a 37.499996,37.5 0 0 1 37.49999,-37.5 37.499996,37.5 0 0 1 37.5,37.5 h -37.5 z" />
    <path
       id="path11557-5-0-1-2-9-0"
       style="font-variation-settings:normal;display:inline;overflow:visible;opacity:1;vector-effect:none;fill:#782121;fill-opacity:1;fill-rule:evenodd;stroke-width:1.40625;stroke-linecap:round;stroke-linejoin:round;stroke-miterlimit:4;stroke-dasharray:none;stroke-dashoffset:0;stroke-opacity:1;-inkscape-stroke:none;enable-background:accumulate;stop-color:#000000;stop-opacity:1"
       transform="matrix(0,-1,-1,0,0,0)"
       d="m -496.37295,-196.70354 a 37.499996,37.5 0 0 1 37.49999,-37.5 37.499996,37.5 0 0 1 37.5,37.5 h -37.5 z" />
    <path
       id="path11557-5-0-1-2-9-7"
       style="font-variation-settings:normal;display:inline;overflow:visible;opacity:1;vector-effect:none;fill:#782121;fill-opacity:1;fill-rule:evenodd;stroke-width:1.40625;stroke-linecap:round;stroke-linejoin:round;stroke-miterlimit:4;stroke-dasharray:none;stroke-dashoffset:0;stroke-opacity:1;-inkscape-stroke:none;enable-background:accumulate;stop-color:#000000;stop-opacity:1"
       transform="rotate(-90)"
       d="m -421.37295,347.58218 a 37.499996,37.5 0 0 1 37.49999,-37.5 37.499996,37.5 0 0 1 37.5,37.5 h -37.5 z" />
    <path
       id="path11557-5-0-1-2-9-0-4"
       style="font-variation-settings:normal;display:inline;overflow:visible;opacity:1;vector-effect:none;fill:#782121;fill-opacity:1;fill-rule:evenodd;stroke-width:1.40625;stroke-linecap:round;stroke-linejoin:round;stroke-miterlimit:4;stroke-dasharray:none;stroke-dashoffset:0;stroke-opacity:1;-inkscape-stroke:none;enable-background:accumulate;stop-color:#000000;stop-opacity:1"
       transform="rotate(-90)"
       d="m -496.37295,347.58218 a 37.499996,37.5 0 0 1 37.49999,-37.5 37.499996,37.5 0 0 1 37.5,37.5 h -37.5 z" />
    <path
       id="path11557-5-0-3-2-80-1-8-1"
       style="font-variation-settings:normal;display:inline;overflow:visible;opacity:1;vector-effect:none;fill:#782121;fill-opacity:1;fill-rule:evenodd;stroke-width:1.40625;stroke-linecap:round;stroke-linejoin:round;stroke-miterlimit:4;stroke-dasharray:none;stroke-dashoffset:0;stroke-opacity:1;-inkscape-stroke:none;enable-background:accumulate;stop-color:#000000;stop-opacity:1"
       transform="scale(1,-1)"
       d="m 235.31029,-346.37296 a 18.749998,18.75 0 0 1 18.75,-18.75 18.749998,18.75 0 0 1 18.75,18.75 h -18.75 z" />
    <path
       id="path11557-5-0-3-2-80-1-8-00"
       style="font-variation-settings:normal;display:inline;overflow:visible;opacity:1;vector-effect:none;fill:#782121;fill-opacity:1;fill-rule:evenodd;stroke-width:1.40625;stroke-linecap:round;stroke-linejoin:round;stroke-miterlimit:4;stroke-dasharray:none;stroke-dashoffset:0;stroke-opacity:1;-inkscape-stroke:none;enable-background:accumulate;stop-color:#000000;stop-opacity:1"
       transform="scale(-1,1)"
       d="m -271.70352,496.37296 a 18.749998,18.75 0 0 1 18.75,-18.75 18.749998,18.75 0 0 1 18.75,18.75 h -18.75 z" />
    <path
       id="path11557-5-0-3-2-80-1-8-1-9"
       style="font-variation-settings:normal;display:inline;overflow:visible;opacity:1;vector-effect:none;fill:#782121;fill-opacity:1;fill-rule:evenodd;stroke-width:1.40625;stroke-linecap:round;stroke-linejoin:round;stroke-miterlimit:4;stroke-dasharray:none;stroke-dashoffset:0;stroke-opacity:1;-inkscape-stroke:none;enable-background:accumulate;stop-color:#000000;stop-opacity:1"
       transform="scale(-1,1)"
       d="m -310.08218,496.37296 a 18.749998,18.75 0 0 1 18.75,-18.75 18.749998,18.75 0 0 1 18.74999,18.75 h -18.74999 z" />
    <path
       id="path11557-5-0-3-2-80-1-8-00-0"
       style="font-variation-settings:normal;display:inline;overflow:visible;opacity:1;vector-effect:none;fill:#782121;fill-opacity:1;fill-rule:evenodd;stroke-width:1.40625;stroke-linecap:round;stroke-linejoin:round;stroke-miterlimit:4;stroke-dasharray:none;stroke-dashoffset:0;stroke-opacity:1;-inkscape-stroke:none;enable-background:accumulate;stop-color:#000000;stop-opacity:1"
       transform="scale(-1,1)"
       d="m -271.70352,421.37296 a 18.749998,18.75 0 0 1 18.75,-18.75 18.749998,18.75 0 0 1 18.75,18.75 h -18.75 z" />
    <path
       id="path11557-5-0-3-2-80-1-8-1-9-1"
       style="font-variation-settings:normal;display:inline;overflow:visible;opacity:1;vector-effect:none;fill:#782121;fill-opacity:1;fill-rule:evenodd;stroke-width:1.40625;stroke-linecap:round;stroke-linejoin:round;stroke-miterlimit:4;stroke-dasharray:none;stroke-dashoffset:0;stroke-opacity:1;-inkscape-stroke:none;enable-background:accumulate;stop-color:#000000;stop-opacity:1"
       transform="scale(-1,1)"
       d="m -310.08218,421.37296 a 18.749998,18.75 0 0 1 18.75,-18.75 18.749998,18.75 0 0 1 18.74999,18.75 h -18.74999 z" />
    <path
       id="path11557-5-0-3-2-80-1-8-8"
       style="font-variation-settings:normal;display:inline;overflow:visible;opacity:1;vector-effect:none;fill:#782121;fill-opacity:1;fill-rule:evenodd;stroke-width:1.40625;stroke-linecap:round;stroke-linejoin:round;stroke-miterlimit:4;stroke-dasharray:none;stroke-dashoffset:0;stroke-opacity:1;-inkscape-stroke:none;enable-background:accumulate;stop-color:#000000;stop-opacity:1"
       transform="scale(1,-1)"
       d="m 272.58219,-421.37296 a 18.749998,18.75 0 0 1 18.74999,-18.75 18.749998,18.75 0 0 1 18.75,18.75 h -18.75 z" />
    <path
       id="path11557-5-0-3-2-80-1-8-1-2"
       style="font-variation-settings:normal;display:inline;overflow:visible;opacity:1;vector-effect:none;fill:#782121;fill-opacity:1;fill-rule:evenodd;stroke-width:1.40625;stroke-linecap:round;stroke-linejoin:round;stroke-miterlimit:4;stroke-dasharray:none;stroke-dashoffset:0;stroke-opacity:1;-inkscape-stroke:none;enable-background:accumulate;stop-color:#000000;stop-opacity:1"
       transform="scale(1,-1)"
       d="m 234.20354,-421.37296 a 18.749998,18.75 0 0 1 18.75,-18.75 18.749998,18.75 0 0 1 18.75,18.75 h -18.75 z" />
    <path
       id="path11557-5-0-1-1-6-1-8"
       style="font-variation-settings:normal;display:inline;overflow:visible;opacity:1;vector-effect:none;fill:#782121;fill-opacity:1;fill-rule:evenodd;stroke-width:1.40625;stroke-linecap:round;stroke-linejoin:round;stroke-miterlimit:4;stroke-dasharray:none;stroke-dashoffset:0;stroke-opacity:1;-inkscape-stroke:none;enable-background:accumulate;stop-color:#000000;stop-opacity:1"
       transform="matrix(0,-1,-1,0,0,0)"
       d="m -383.87295,-234.20354 a 9.4918747,9.4918756 0 0 1 9.49188,-9.49187 9.4918747,9.4918756 0 0 1 9.49187,9.49187 h -9.49187 z" />
    <path
       id="path11557-5-0-1-1-6-1-8-7"
       style="font-variation-settings:normal;display:inline;overflow:visible;opacity:1;vector-effect:none;fill:#782121;fill-opacity:1;fill-rule:evenodd;stroke-width:1.40625;stroke-linecap:round;stroke-linejoin:round;stroke-miterlimit:4;stroke-dasharray:none;stroke-dashoffset:0;stroke-opacity:1;-inkscape-stroke:none;enable-background:accumulate;stop-color:#000000;stop-opacity:1"
       transform="matrix(0,-1,-1,0,0,0)"
       d="m -402.85671,-234.20354 a 9.4918747,9.4918756 0 0 1 9.49187,-9.49187 9.4918747,9.4918756 0 0 1 9.49188,9.49187 h -9.49188 z" />
    <path
       id="path11557-5-0-1-1-6-1-8-8"
       style="font-variation-settings:normal;display:inline;overflow:visible;opacity:1;vector-effect:none;fill:#782121;fill-opacity:1;fill-rule:evenodd;stroke-width:1.40625;stroke-linecap:round;stroke-linejoin:round;stroke-miterlimit:4;stroke-dasharray:none;stroke-dashoffset:0;stroke-opacity:1;-inkscape-stroke:none;enable-background:accumulate;stop-color:#000000;stop-opacity:1"
       transform="matrix(0,-1,-1,0,0,0)"
       d="m -458.87295,-233.95047 a 9.4918747,9.4918756 0 0 1 9.49188,-9.49188 9.4918747,9.4918756 0 0 1 9.49187,9.49188 h -9.49187 z" />
    <path
       id="path11557-5-0-1-1-6-1-8-7-8"
       style="font-variation-settings:normal;display:inline;overflow:visible;opacity:1;vector-effect:none;fill:#782121;fill-opacity:1;fill-rule:evenodd;stroke-width:1.40625;stroke-linecap:round;stroke-linejoin:round;stroke-miterlimit:4;stroke-dasharray:none;stroke-dashoffset:0;stroke-opacity:1;-inkscape-stroke:none;enable-background:accumulate;stop-color:#000000;stop-opacity:1"
       transform="matrix(0,-1,-1,0,0,0)"
       d="m -477.85668,-233.95047 a 9.4918747,9.4918756 0 0 1 9.49187,-9.49188 9.4918747,9.4918756 0 0 1 9.49188,9.49188 h -9.49188 z" />
    <path
       id="path11557-5-0-1-1-6-1-8-86"
       style="font-variation-settings:normal;display:inline;overflow:visible;opacity:1;vector-effect:none;fill:#782121;fill-opacity:1;fill-rule:evenodd;stroke-width:1.40625;stroke-linecap:round;stroke-linejoin:round;stroke-miterlimit:4;stroke-dasharray:none;stroke-dashoffset:0;stroke-opacity:1;-inkscape-stroke:none;enable-background:accumulate;stop-color:#000000;stop-opacity:1"
       transform="rotate(-90)"
       d="m -383.65328,309.8291 a 9.4918747,9.4918756 0 0 1 9.49187,-9.49187 9.4918747,9.4918756 0 0 1 9.49188,9.49187 h -9.49188 z" />
    <path
       id="path11557-5-0-1-1-6-1-8-7-2"
       style="font-variation-settings:normal;display:inline;overflow:visible;opacity:1;vector-effect:none;fill:#782121;fill-opacity:1;fill-rule:evenodd;stroke-width:1.40625;stroke-linecap:round;stroke-linejoin:round;stroke-miterlimit:4;stroke-dasharray:none;stroke-dashoffset:0;stroke-opacity:1;-inkscape-stroke:none;enable-background:accumulate;stop-color:#000000;stop-opacity:1"
       transform="rotate(-90)"
       d="m -402.63705,309.8291 a 9.4918747,9.4918756 0 0 1 9.49188,-9.49187 9.4918747,9.4918756 0 0 1 9.49187,9.49187 h -9.49187 z" />
    <path
       id="path11557-5-0-1-1-6-1-8-8-7"
       style="font-variation-settings:normal;display:inline;overflow:visible;opacity:1;vector-effect:none;fill:#782121;fill-opacity:1;fill-rule:evenodd;stroke-width:1.40625;stroke-linecap:round;stroke-linejoin:round;stroke-miterlimit:4;stroke-dasharray:none;stroke-dashoffset:0;stroke-opacity:1;-inkscape-stroke:none;enable-background:accumulate;stop-color:#000000;stop-opacity:1"
       transform="rotate(-90)"
       d="m -458.65328,310.08218 a 9.4918747,9.4918756 0 0 1 9.49187,-9.49187 9.4918747,9.4918756 0 0 1 9.49188,9.49187 h -9.49188 z" />
    <path
       id="path11557-5-0-1-1-6-1-8-7-8-5"
       style="font-variation-settings:normal;display:inline;overflow:visible;opacity:1;vector-effect:none;fill:#782121;fill-opacity:1;fill-rule:evenodd;stroke-width:1.40625;stroke-linecap:round;stroke-linejoin:round;stroke-miterlimit:4;stroke-dasharray:none;stroke-dashoffset:0;stroke-opacity:1;-inkscape-stroke:none;enable-background:accumulate;stop-color:#000000;stop-opacity:1"
       transform="rotate(-90)"
       d="m -477.63702,310.08218 a 9.4918747,9.4918756 0 0 1 9.49188,-9.49187 9.4918747,9.4918756 0 0 1 9.49187,9.49187 h -9.49187 z" />
    <path
       id="path11557-5-0-1-1-6-1-8-86-2"
       style="font-variation-settings:normal;display:inline;overflow:visible;opacity:1;vector-effect:none;fill:#782121;fill-opacity:1;fill-rule:evenodd;stroke-width:1.40625;stroke-linecap:round;stroke-linejoin:round;stroke-miterlimit:4;stroke-dasharray:none;stroke-dashoffset:0;stroke-opacity:1;-inkscape-stroke:none;enable-background:accumulate;stop-color:#000000;stop-opacity:1"
       transform="rotate(-90)"
       d="m -383.81838,272.55722 a 9.4918747,9.4918756 0 0 1 9.49187,-9.49188 9.4918747,9.4918756 0 0 1 9.49188,9.49188 h -9.49188 z" />
    <path
       id="path11557-5-0-1-1-6-1-8-7-2-2"
       style="font-variation-settings:normal;display:inline;overflow:visible;opacity:1;vector-effect:none;fill:#782121;fill-opacity:1;fill-rule:evenodd;stroke-width:1.40625;stroke-linecap:round;stroke-linejoin:round;stroke-miterlimit:4;stroke-dasharray:none;stroke-dashoffset:0;stroke-opacity:1;-inkscape-stroke:none;enable-background:accumulate;stop-color:#000000;stop-opacity:1"
       transform="rotate(-90)"
       d="m -402.80215,272.55722 a 9.4918747,9.4918756 0 0 1 9.49188,-9.49188 9.4918747,9.4918756 0 0 1 9.49187,9.49188 h -9.49187 z" />
    <path
       id="path11557-5-0-1-1-6-1-8-8-7-6"
       style="font-variation-settings:normal;display:inline;overflow:visible;opacity:1;vector-effect:none;fill:#782121;fill-opacity:1;fill-rule:evenodd;stroke-width:1.40625;stroke-linecap:round;stroke-linejoin:round;stroke-miterlimit:4;stroke-dasharray:none;stroke-dashoffset:0;stroke-opacity:1;-inkscape-stroke:none;enable-background:accumulate;stop-color:#000000;stop-opacity:1"
       transform="rotate(-90)"
       d="m -458.81838,272.81027 a 9.4918747,9.4918756 0 0 1 9.49187,-9.49187 9.4918747,9.4918756 0 0 1 9.49188,9.49187 h -9.49188 z" />
    <path
       id="path11557-5-0-1-1-6-1-8-7-8-5-1"
       style="font-variation-settings:normal;display:inline;overflow:visible;opacity:1;vector-effect:none;fill:#782121;fill-opacity:1;fill-rule:evenodd;stroke-width:1.40625;stroke-linecap:round;stroke-linejoin:round;stroke-miterlimit:4;stroke-dasharray:none;stroke-dashoffset:0;stroke-opacity:1;-inkscape-stroke:none;enable-background:accumulate;stop-color:#000000;stop-opacity:1"
       transform="rotate(-90)"
       d="m -477.80212,272.81027 a 9.4918747,9.4918756 0 0 1 9.49188,-9.49187 9.4918747,9.4918756 0 0 1 9.49187,9.49187 h -9.49187 z" />
    <path
       id="path11557-5-0-1-1-6-1-8-86-1"
       style="font-variation-settings:normal;display:inline;overflow:visible;opacity:1;vector-effect:none;fill:#782121;fill-opacity:1;fill-rule:evenodd;stroke-width:1.40625;stroke-linecap:round;stroke-linejoin:round;stroke-miterlimit:4;stroke-dasharray:none;stroke-dashoffset:0;stroke-opacity:1;-inkscape-stroke:none;enable-background:accumulate;stop-color:#000000;stop-opacity:1"
       transform="matrix(0,-1,-1,0,0,0)"
       d="m -383.73693,-273.02664 a 9.4918747,9.4918756 0 0 1 9.49187,-9.49188 9.4918747,9.4918756 0 0 1 9.49188,9.49188 h -9.49188 z" />
    <path
       id="path11557-5-0-1-1-6-1-8-7-2-4"
       style="font-variation-settings:normal;display:inline;overflow:visible;opacity:1;vector-effect:none;fill:#782121;fill-opacity:1;fill-rule:evenodd;stroke-width:1.40625;stroke-linecap:round;stroke-linejoin:round;stroke-miterlimit:4;stroke-dasharray:none;stroke-dashoffset:0;stroke-opacity:1;-inkscape-stroke:none;enable-background:accumulate;stop-color:#000000;stop-opacity:1"
       transform="matrix(0,-1,-1,0,0,0)"
       d="m -402.72066,-273.02664 a 9.4918747,9.4918756 0 0 1 9.49187,-9.49188 9.4918747,9.4918756 0 0 1 9.49187,9.49188 h -9.49187 z" />
    <path
       id="path11557-5-0-1-1-6-1-8-8-7-3"
       style="font-variation-settings:normal;display:inline;overflow:visible;opacity:1;vector-effect:none;fill:#782121;fill-opacity:1;fill-rule:evenodd;stroke-width:1.40625;stroke-linecap:round;stroke-linejoin:round;stroke-miterlimit:4;stroke-dasharray:none;stroke-dashoffset:0;stroke-opacity:1;-inkscape-stroke:none;enable-background:accumulate;stop-color:#000000;stop-opacity:1"
       transform="matrix(0,-1,-1,0,0,0)"
       d="m -458.7369,-272.77359 a 9.4918747,9.4918756 0 0 1 9.49187,-9.49188 9.4918747,9.4918756 0 0 1 9.49188,9.49188 h -9.49188 z" />
    <path
       id="path11557-5-0-1-1-6-1-8-7-8-5-2"
       style="font-variation-settings:normal;display:inline;overflow:visible;opacity:1;vector-effect:none;fill:#782121;fill-opacity:1;fill-rule:evenodd;stroke-width:1.40625;stroke-linecap:round;stroke-linejoin:round;stroke-miterlimit:4;stroke-dasharray:none;stroke-dashoffset:0;stroke-opacity:1;-inkscape-stroke:none;enable-background:accumulate;stop-color:#000000;stop-opacity:1"
       transform="matrix(0,-1,-1,0,0,0)"
       d="m -477.72066,-272.77359 a 9.4918747,9.4918756 0 0 1 9.49187,-9.49188 9.4918747,9.4918756 0 0 1 9.49187,9.49188 h -9.49187 z" />
    <path
       d="m 347.58218,571.37292 c -10e-6,-41.61354 -33.57865,-75.34797 -75,-75.34797 -41.42135,0 -74.99999,33.73444 -74.99999,75.34797 h 74.99999 z"
       style="font-variation-settings:normal;display:inline;overflow:visible;opacity:1;vector-effect:none;fill:#782121;fill-opacity:1;fill-rule:evenodd;stroke-width:1.40625;stroke-linecap:round;stroke-linejoin:round;stroke-miterlimit:4;stroke-dasharray:none;stroke-dashoffset:0;stroke-opacity:1;-inkscape-stroke:none;enable-background:accumulate;stop-color:#000000;stop-opacity:1"
       id="path1697" />
    <path
       d="m 197.58219,571.37292 c 1e-5,-41.61354 33.57865,-75.34797 75,-75.34797 41.42135,0 74.99999,33.73444 74.99999,75.34797 h -74.99999 z"
       style="font-variation-settings:normal;display:inline;overflow:visible;opacity:1;vector-effect:none;fill:#782121;fill-opacity:1;fill-rule:evenodd;stroke-width:1.40625;stroke-linecap:round;stroke-linejoin:round;stroke-miterlimit:4;stroke-dasharray:none;stroke-dashoffset:0;stroke-opacity:1;-inkscape-stroke:none;enable-background:accumulate;stop-color:#000000;stop-opacity:1"
       id="path1697-7" />
    <path
       d="m 347.58218,270.49432 c -10e-6,41.61354 -33.57865,75.34797 -75,75.34797 -41.42135,0 -74.99999,-33.73444 -74.99999,-75.34797 h 74.99999 z"
       style="font-variation-settings:normal;display:inline;overflow:visible;opacity:1;vector-effect:none;fill:#782121;fill-opacity:1;fill-rule:evenodd;stroke-width:1.40625;stroke-linecap:round;stroke-linejoin:round;stroke-miterlimit:4;stroke-dasharray:none;stroke-dashoffset:0;stroke-opacity:1;-inkscape-stroke:none;enable-background:accumulate;stop-color:#000000;stop-opacity:1"
       id="path1697-3" />
    <g
       transform="matrix(-0.47408538,0,0,0.47189593,-261.65874,40.108012)"
       id="g12244-0-7-1"
       style="display:inline" />
  </g>
</svg>
