<?xml version="1.0" encoding="UTF-8"?>
<svg id="svg833" width="1322" height="412.86" version="1.1" viewBox="0 0 1652.6 516.07" xmlns="http://www.w3.org/2000/svg">
 <g id="draggable0" transform="matrix(.47806 -.82803 .82803 .47806 315.04 505.32)" style="clip-rule:evenodd;fill-rule:evenodd;stroke-linejoin:round;stroke-miterlimit:2">
  <ellipse id="path896-2" transform="rotate(60)" cx="998.46" cy="-384.62" rx="128.44" ry="143.9" style="-inkscape-stroke:none;opacity:0;paint-order:fill markers stroke;stop-color:#000000;stroke-width:23.127px"/>
  <path id="path2272-6" d="m888.95 637.85c6.876 2.456 8.55 17.619 5.46 22.523-6.554 10.399-9.109 22.15-14.335 28.553-24.815 30.405-62.303 38.074-109.04 23.121-1.707-.546-5.91-1.67-7.278-4.72-1.256-2.798.225-7.485.754-9.137 8.133-25.378 16.478-50.693 55.84-67.005 18.177-8.353 34.943-9.036 49.9-3.721 6.595 2.343 11.721 7.895 18.696 10.386z" style="-inkscape-stroke:none;fill:#9f7f6b;font-variation-settings:normal;stop-color:#000000;stroke-linejoin:miter;stroke-miterlimit:2;stroke-width:1.0109"/>
  <path id="path2274-3" d="m767.97 710.96c-1.664-.736-3.416-1.858-4.21-3.63-1.256-2.798.225-7.485.754-9.137 8.133-25.378 16.478-50.693 55.84-67.005 18.177-8.353 34.943-9.036 49.9-3.721 6.595 2.343 11.721 7.895 18.696 10.386 2.333.833 4.067 3.129 5.219 5.992-.174-.083-.352-.157-.535-.222-6.975-2.491-12.1-8.043-18.696-10.387-14.956-5.315-30.592-.995-48.768 7.359-37.08 20.807-48.838 37.99-56.971 63.368-.409 1.277-1.387 4.367-1.229 6.997z" style="-inkscape-stroke:none;fill:#78665b;font-variation-settings:normal;stop-color:#000000;stroke-linejoin:miter;stroke-miterlimit:2;stroke-width:1.0109"/>
  <path id="path2276-82" d="m870.25 627.47c6.595 2.343 11.721 7.895 18.696 10.386 6.876 2.456 8.55 17.619 5.46 22.523-6.554 10.399-9.109 22.15-14.335 28.553-19.356 23.716-46.422 33.599-79.575 29.703 8.06-1.64 15.982-3.651 23.998-5.537 5.169-1.216 10.84-2.124 15.669-4.449 3.298-1.588 5.761-4.361 8.898-6.191 7.137-4.163 13.84-8.808 20.118-14.121 4.543-3.844 9.432-6.651 13.348-11.22.238-.277.745-.867 1.284-1.584-3.96-6.165-11.791-9.371-15.018-15.826-2.78-5.559 3.464-8.265 4.836-12.38.353-1.06.179-2.349-.253-3.703-4.573-3.7747-12.975-9.9523-13.482-13.222-.32378-2.0889 3.6847-1.7124 10.356-2.9322z" style="-inkscape-stroke:none;fill:#c09578;font-variation-settings:normal;stop-color:#000000;stroke-linejoin:miter;stroke-miterlimit:2;stroke-width:1.0109"/>
  <path id="path2278-6" d="m767.95 687.78c7.569-21.739 18.44-42.515 52.402-56.589 18.177-8.353 34.943-9.036 49.9-3.721 4.823 1.714 8.86 5.143 13.41 7.837 1.574.932-2.87.013-8.726-2.068-4.87-1.73-9.811-2.439-14.887-2.32-3.338-2.332-6.435-3.873-8.084-3.323-2.389.796-4.298 2.388-6.771 3.095-1.859.531-4.043.092-5.996.58-9.943 2.486-20.19 5.216-29.017 10.833-3.066 1.951-5.166 5.561-7.931 7.931-4.185 3.587-9.269 6.486-12.961 10.639-7.623 8.576-14.255 18.119-21.339 27.106z" style="-inkscape-stroke:none;fill:#5d554f;font-variation-settings:normal;stop-color:#000000;stroke-linejoin:miter;stroke-miterlimit:2"/>
  <path id="path2280-8" d="m877.55 633.99c-44.749 6.439-80.489 24.73-109.6 59.162-.869 1.028-1.257 5.493 0 4.26 27.679-27.13 69.377-51.6 110.42-58.613 1.327-.227 2.22-1.489 1.993-2.815-.227-1.327-1.488-2.221-2.815-1.994z" style="-inkscape-stroke:none;fill:#dabc9f;font-variation-settings:normal;stop-color:#000000;stroke-linejoin:miter;stroke-miterlimit:2;stroke-width:1.0109"/>
  <path id="path2282-1" d="m888.93 652.66c-26.079 29.644-58.461 48.913-104.15 55.734-1.331.199-5.658.933-5.46 2.264.199 1.332 4.844 2.728 6.18 2.561 47.526-5.934 80.779-25.843 107.09-57.337.863-1.033.791-2.553-.22-3.442-1.011-.89-2.553-.791-3.442.22z" style="-inkscape-stroke:none;fill:#dabc9f;font-variation-settings:normal;stop-color:#000000;stroke-linejoin:miter;stroke-miterlimit:2;stroke-width:1.0109"/>
  <path id="path2284-0" d="m857.15 656.9c-27.666 17.313-59.214 28.738-86.046 44.116-1.1683.66958-2.995 4.335-.084 5.037 1.309.316 2.982.551 4.189-.045 28.097-13.881 56.171-28.976 84.232-44.802 1.173-.661 1.64-2.11 1.008-3.298-.632-1.189-2.11-1.641-3.299-1.008z" style="-inkscape-stroke:none;fill:#dabc9f;font-variation-settings:normal;stop-color:#000000;stroke-linejoin:miter;stroke-miterlimit:2;stroke-width:1.0109"/>
 </g>
 <g id="draggable1" transform="matrix(.47806 -.82803 .82803 .47806 -114.43 505.32)" style="clip-rule:evenodd;fill-rule:evenodd;stroke-linejoin:round;stroke-miterlimit:2">
  <ellipse id="path896-8" transform="rotate(60)" cx="997.13" cy="-384.62" rx="128.44" ry="143.9" style="-inkscape-stroke:none;opacity:0;paint-order:fill markers stroke;stop-color:#000000;stroke-width:23.127px"/>
  <path id="path2272-1" d="m888.95 637.85c6.876 2.456 8.55 17.619 5.46 22.523-6.554 10.399-9.109 22.15-14.335 28.553-24.815 30.405-62.303 38.074-109.04 23.121-1.707-.546-5.91-1.67-7.278-4.72-1.256-2.798.225-7.485.754-9.137 8.133-25.378 16.478-50.693 55.84-67.005 18.177-8.353 34.943-9.036 49.9-3.721 6.595 2.343 11.721 7.895 18.696 10.386z" style="-inkscape-stroke:none;fill:#9f7f6b;font-variation-settings:normal;stop-color:#000000;stroke-linejoin:miter;stroke-miterlimit:2;stroke-width:1.0109"/>
  <path id="path2274-6" d="m767.97 710.96c-1.664-.736-3.416-1.858-4.21-3.63-1.256-2.798.225-7.485.754-9.137 8.133-25.378 16.478-50.693 55.84-67.005 18.177-8.353 34.943-9.036 49.9-3.721 6.595 2.343 11.721 7.895 18.696 10.386 2.333.833 4.067 3.129 5.219 5.992-.174-.083-.352-.157-.535-.222-6.975-2.491-12.1-8.043-18.696-10.387-14.956-5.315-30.592-.995-48.768 7.359-37.08 20.807-48.838 37.99-56.971 63.368-.409 1.277-1.387 4.367-1.229 6.997z" style="-inkscape-stroke:none;fill:#78665b;font-variation-settings:normal;stop-color:#000000;stroke-linejoin:miter;stroke-miterlimit:2;stroke-width:1.0109"/>
  <path id="path2276-8" d="m870.25 627.47c6.595 2.343 11.721 7.895 18.696 10.386 6.876 2.456 8.55 17.619 5.46 22.523-6.554 10.399-9.109 22.15-14.335 28.553-19.356 23.716-46.422 33.599-79.575 29.703 8.06-1.64 15.982-3.651 23.998-5.537 5.169-1.216 10.84-2.124 15.669-4.449 3.298-1.588 5.761-4.361 8.898-6.191 7.137-4.163 13.84-8.808 20.118-14.121 4.543-3.844 9.432-6.651 13.348-11.22.238-.277.745-.867 1.284-1.584-3.96-6.165-11.791-9.371-15.018-15.826-2.78-5.559 3.464-8.265 4.836-12.38.353-1.06.179-2.349-.253-3.703-4.573-3.7747-12.975-9.9523-13.482-13.222-.32378-2.0889 3.6847-1.7124 10.356-2.9322z" style="-inkscape-stroke:none;fill:#c09578;font-variation-settings:normal;stop-color:#000000;stroke-linejoin:miter;stroke-miterlimit:2;stroke-width:1.0109"/>
  <path id="path2278-1" d="m767.95 687.78c7.569-21.739 18.44-42.515 52.402-56.589 18.177-8.353 34.943-9.036 49.9-3.721 4.823 1.714 8.86 5.143 13.41 7.837 1.574.932-2.87.013-8.726-2.068-4.87-1.73-9.811-2.439-14.887-2.32-3.338-2.332-6.435-3.873-8.084-3.323-2.389.796-4.298 2.388-6.771 3.095-1.859.531-4.043.092-5.996.58-9.943 2.486-20.19 5.216-29.017 10.833-3.066 1.951-5.166 5.561-7.931 7.931-4.185 3.587-9.269 6.486-12.961 10.639-7.623 8.576-14.255 18.119-21.339 27.106z" style="-inkscape-stroke:none;fill:#5d554f;font-variation-settings:normal;stop-color:#000000;stroke-linejoin:miter;stroke-miterlimit:2"/>
  <path id="path2280-9" d="m877.55 633.99c-44.749 6.439-80.489 24.73-109.6 59.162-.869 1.028-1.257 5.493 0 4.26 27.679-27.13 69.377-51.6 110.42-58.613 1.327-.227 2.22-1.489 1.993-2.815-.227-1.327-1.488-2.221-2.815-1.994z" style="-inkscape-stroke:none;fill:#dabc9f;font-variation-settings:normal;stop-color:#000000;stroke-linejoin:miter;stroke-miterlimit:2;stroke-width:1.0109"/>
  <path id="path2282-9" d="m888.93 652.66c-26.079 29.644-58.461 48.913-104.15 55.734-1.331.199-5.658.933-5.46 2.264.199 1.332 4.844 2.728 6.18 2.561 47.526-5.934 80.779-25.843 107.09-57.337.863-1.033.791-2.553-.22-3.442-1.011-.89-2.553-.791-3.442.22z" style="-inkscape-stroke:none;fill:#dabc9f;font-variation-settings:normal;stop-color:#000000;stroke-linejoin:miter;stroke-miterlimit:2;stroke-width:1.0109"/>
  <path id="path2284-9" d="m857.15 656.9c-27.666 17.313-59.214 28.738-86.046 44.116-1.1683.66958-2.995 4.335-.084 5.037 1.309.316 2.982.551 4.189-.045 28.097-13.881 56.171-28.976 84.232-44.802 1.173-.661 1.64-2.11 1.008-3.298-.632-1.189-2.11-1.641-3.299-1.008z" style="-inkscape-stroke:none;fill:#dabc9f;font-variation-settings:normal;stop-color:#000000;stroke-linejoin:miter;stroke-miterlimit:2;stroke-width:1.0109"/>
 </g>
 <g id="draggable2" transform="matrix(.47806 -.82803 .82803 .47806 -543.91 505.32)" style="clip-rule:evenodd;fill-rule:evenodd;stroke-linejoin:round;stroke-miterlimit:2">
  <ellipse id="path896" transform="rotate(60)" cx="999.48" cy="-382.82" rx="128.44" ry="143.9" style="-inkscape-stroke:none;opacity:0;paint-order:fill markers stroke;stop-color:#000000;stroke-width:23.127px"/>
  <path id="path2272" d="m888.95 637.85c6.876 2.456 8.55 17.619 5.46 22.523-6.554 10.399-9.109 22.15-14.335 28.553-24.815 30.405-62.303 38.074-109.04 23.121-1.707-.546-5.91-1.67-7.278-4.72-1.256-2.798.225-7.485.754-9.137 8.133-25.378 16.478-50.693 55.84-67.005 18.177-8.353 34.943-9.036 49.9-3.721 6.595 2.343 11.721 7.895 18.696 10.386z" style="-inkscape-stroke:none;fill:#9f7f6b;font-variation-settings:normal;stop-color:#000000;stroke-linejoin:miter;stroke-miterlimit:2;stroke-width:1.0109"/>
  <path id="path2274" d="m767.97 710.96c-1.664-.736-3.416-1.858-4.21-3.63-1.256-2.798.225-7.485.754-9.137 8.133-25.378 16.478-50.693 55.84-67.005 18.177-8.353 34.943-9.036 49.9-3.721 6.595 2.343 11.721 7.895 18.696 10.386 2.333.833 4.067 3.129 5.219 5.992-.174-.083-.352-.157-.535-.222-6.975-2.491-12.1-8.043-18.696-10.387-14.956-5.315-30.592-.995-48.768 7.359-37.08 20.807-48.838 37.99-56.971 63.368-.409 1.277-1.387 4.367-1.229 6.997z" style="-inkscape-stroke:none;fill:#78665b;font-variation-settings:normal;stop-color:#000000;stroke-linejoin:miter;stroke-miterlimit:2;stroke-width:1.0109"/>
  <path id="path2276" d="m870.25 627.47c6.595 2.343 11.721 7.895 18.696 10.386 6.876 2.456 8.55 17.619 5.46 22.523-6.554 10.399-9.109 22.15-14.335 28.553-19.356 23.716-46.422 33.599-79.575 29.703 8.06-1.64 15.982-3.651 23.998-5.537 5.169-1.216 10.84-2.124 15.669-4.449 3.298-1.588 5.761-4.361 8.898-6.191 7.137-4.163 13.84-8.808 20.118-14.121 4.543-3.844 9.432-6.651 13.348-11.22.238-.277.745-.867 1.284-1.584-3.96-6.165-11.791-9.371-15.018-15.826-2.78-5.559 3.464-8.265 4.836-12.38.353-1.06.179-2.349-.253-3.703-4.573-3.7747-12.975-9.9523-13.482-13.222-.32378-2.0889 3.6847-1.7124 10.356-2.9322z" style="-inkscape-stroke:none;fill:#c09578;font-variation-settings:normal;stop-color:#000000;stroke-linejoin:miter;stroke-miterlimit:2;stroke-width:1.0109"/>
  <path id="path2278" d="m767.95 687.78c7.569-21.739 18.44-42.515 52.402-56.589 18.177-8.353 34.943-9.036 49.9-3.721 4.823 1.714 8.86 5.143 13.41 7.837 1.574.932-2.87.013-8.726-2.068-4.87-1.73-9.811-2.439-14.887-2.32-3.338-2.332-6.435-3.873-8.084-3.323-2.389.796-4.298 2.388-6.771 3.095-1.859.531-4.043.092-5.996.58-9.943 2.486-20.19 5.216-29.017 10.833-3.066 1.951-5.166 5.561-7.931 7.931-4.185 3.587-9.269 6.486-12.961 10.639-7.623 8.576-14.255 18.119-21.339 27.106z" style="-inkscape-stroke:none;fill:#5d554f;font-variation-settings:normal;stop-color:#000000;stroke-linejoin:miter;stroke-miterlimit:2"/>
  <path id="path2280" d="m877.55 633.99c-44.749 6.439-80.489 24.73-109.6 59.162-.869 1.028-1.257 5.493 0 4.26 27.679-27.13 69.377-51.6 110.42-58.613 1.327-.227 2.22-1.489 1.993-2.815-.227-1.327-1.488-2.221-2.815-1.994z" style="-inkscape-stroke:none;fill:#dabc9f;font-variation-settings:normal;stop-color:#000000;stroke-linejoin:miter;stroke-miterlimit:2;stroke-width:1.0109"/>
  <path id="path2282" d="m888.93 652.66c-26.079 29.644-58.461 48.913-104.15 55.734-1.331.199-5.658.933-5.46 2.264.199 1.332 4.844 2.728 6.18 2.561 47.526-5.934 80.779-25.843 107.09-57.337.863-1.033.791-2.553-.22-3.442-1.011-.89-2.553-.791-3.442.22z" style="-inkscape-stroke:none;fill:#dabc9f;font-variation-settings:normal;stop-color:#000000;stroke-linejoin:miter;stroke-miterlimit:2;stroke-width:1.0109"/>
  <path id="path2284" d="m857.15 656.9c-27.666 17.313-59.214 28.738-86.046 44.116-1.1683.66958-2.995 4.335-.084 5.037 1.309.316 2.982.551 4.189-.045 28.097-13.881 56.171-28.976 84.232-44.802 1.173-.661 1.64-2.11 1.008-3.298-.632-1.189-2.11-1.641-3.299-1.008z" style="-inkscape-stroke:none;fill:#dabc9f;font-variation-settings:normal;stop-color:#000000;stroke-linejoin:miter;stroke-miterlimit:2;stroke-width:1.0109"/>
 </g>
 <g id="container6" transform="matrix(5.9049 0 0 9.4931 -391.98 -186.52)">
  <rect id="rect1467" x="282.44" y="39.757" width="47.294" height="29.444" style="-inkscape-stroke:none;fill:none;paint-order:fill markers stroke;stop-color:#000000"/>
 </g>
 <g id="container5" transform="matrix(6.3314 0 0 11.06 -361.57 -272.69)">
  <rect id="rect1464" x="195.42" y="41.813" width="45.635" height="27.098" style="-inkscape-stroke:none;fill:none;paint-order:fill markers stroke;stop-color:#000000"/>
 </g>
 <g id="container4" transform="matrix(6.082 0 0 9.4029 -187.76 -189.97)">
  <rect id="rect1461" x="105.77" y="40.32" width="48.802" height="30.618" style="-inkscape-stroke:none;fill:none;paint-order:fill markers stroke;stop-color:#000000"/>
 </g>
 <g id="container3" transform="matrix(6.1641 0 0 9.464 -52.078 -192.54)">
  <rect id="rect1458" x="14.982" y="39.962" width="54.533" height="30.831" style="-inkscape-stroke:none;fill:none;paint-order:fill markers stroke;stop-color:#000000"/>
 </g>
 <g id="container2" transform="matrix(6.6917 0 0 6.6917 -333.35 67.206)">
  <rect id="rect1449" x="210.14" y="8.5449e-7" width="59.618" height="22.299" style="-inkscape-stroke:none;fill:none;paint-order:fill markers stroke;stop-color:#000000"/>
 </g>
 <g id="container1" transform="matrix(6.6917 0 0 6.6917 -333.35 67.206)">
  <rect id="rect1452" x="140.7" y="8.5449e-7" width="69.715" height="22.299" style="-inkscape-stroke:none;fill:none;paint-order:fill markers stroke;stop-color:#000000"/>
 </g>
 <g id="container0" transform="matrix(6.6917 0 0 6.6917 -333.35 67.206)">
  <rect id="rect1455" x="81.573" y="8.5449e-7" width="59.197" height="22.299" style="-inkscape-stroke:none;fill:none;paint-order:fill markers stroke;stop-color:#000000"/>
 </g>
 <g id="ignore0">
  <path id="path32" d="m417.88 504.95c-.43031-9.5729-13.925-21.627-19.595-28.897-10.217-13.111-73.078-42.262-90.992-50.395-29.226-13.27-43.355-49.26-71.048-64.228-4.1639-2.2504-10.385.59346-14.958-.49429-10.579-2.5157-20.189-7.2523-31.162-7.9048-11.555-.68683-54.535 11.927-63.155 21.245-6.0968 6.5908-8.7248 16.169-13.711 23.715-9.3978 14.223-20.682 27.777-33.24 38.043-30.498 24.933-48.749 32.901-71.465 68.917z" style="clip-rule:evenodd;fill-rule:evenodd;fill:#aa6941;stroke-linejoin:round;stroke-miterlimit:2;stroke-width:.48376"/>
  <path id="path36" d="m827.21 504.95c-.4303-9.5729-13.925-21.627-19.595-28.897-10.217-13.111-73.078-42.262-90.992-50.395-29.226-13.27-43.356-49.26-71.048-64.228-4.1638-2.2504-10.385.59346-14.958-.49429-10.579-2.5157-20.189-7.2523-31.162-7.9048-11.555-.68683-54.535 11.927-63.155 21.245-6.0967 6.5908-8.7248 16.169-13.711 23.715-9.3978 14.223-20.682 27.777-33.24 38.043-30.498 24.933-48.749 32.901-71.465 68.917z" style="clip-rule:evenodd;fill-rule:evenodd;fill:#aa6941;stroke-linejoin:round;stroke-miterlimit:2;stroke-width:.48376"/>
  <path id="path40" d="m1236.5 504.95c-.4303-9.5729-13.925-21.627-19.595-28.897-10.217-13.111-73.078-42.262-90.992-50.395-29.226-13.27-43.356-49.26-71.048-64.228-4.1639-2.2504-10.385.59346-14.958-.49429-10.579-2.5157-20.189-7.2523-31.162-7.9048-11.555-.68683-54.535 11.927-63.155 21.245-6.0968 6.5908-8.7248 16.169-13.711 23.715-9.3977 14.223-20.682 27.777-33.24 38.043-30.498 24.933-48.749 32.901-71.465 68.917z" style="clip-rule:evenodd;fill-rule:evenodd;fill:#aa6941;stroke-linejoin:round;stroke-miterlimit:2;stroke-width:.48376"/>
  <path id="path44" d="m1645.8 504.95c-.4303-9.5729-13.925-21.627-19.595-28.897-10.217-13.111-73.078-42.262-90.992-50.395-29.226-13.27-43.356-49.26-71.048-64.228-4.1638-2.2504-10.385.59346-14.958-.49429-10.579-2.5157-20.189-7.2523-31.162-7.9048-11.555-.68683-54.535 11.927-63.155 21.245-6.0967 6.5908-8.7248 16.169-13.711 23.715-9.3978 14.223-20.682 27.777-33.24 38.043-30.498 24.933-48.749 32.901-71.465 68.917z" style="clip-rule:evenodd;fill-rule:evenodd;fill:#aa6941;stroke-linejoin:round;stroke-miterlimit:2;stroke-width:.48376"/>
  <path id="path48" d="m122.89 379.8c1.1495 1.1373 2.4746 2.2762 4.3858 3.163 20.765 9.6314 25.896 3.2173 39.998 21.4 3.0644 3.9511 1.8579 17.693 2.5701 18.306 1.7672 1.5214 5.7146 1.3668 7.8669 2.1729 5.2662 1.9734 12.814 10.006 15.086 14.518 4.4902 8.9182-21.984 9.8197-15.83 17.755 3.1662 4.0825-15.008 24.111-9.2542 26.912 2.5901 1.2608 8.7457 10.109 11.481 11.269 11.187 4.7408 153.2 9.6467 153.2 9.6467s-15.968-75.147-25.094-79.293c-29.23-13.27-43.358-49.26-71.051-64.228-4.1637-2.2504-10.385.59345-14.957-.49376-10.579-2.5163-20.19-7.2528-31.162-7.9054-11.555-.68683-54.535 11.927-63.155 21.245-1.5525 1.678-2.8797 3.5497-4.0788 5.5331z" style="clip-rule:evenodd;fill-rule:evenodd;fill:#955935;stroke-linejoin:round;stroke-miterlimit:2;stroke-width:.52752"/>
  <path id="path52" d="m532.22 379.8c1.1495 1.1373 2.4746 2.2762 4.3858 3.163 20.765 9.6314 25.896 3.2173 39.998 21.4 3.0644 3.9511 1.8579 17.693 2.5701 18.306 1.7672 1.5214 5.7146 1.3668 7.8669 2.1729 5.2662 1.9734 12.814 10.006 15.086 14.518 4.4902 8.9182-21.984 9.8197-15.83 17.755 3.1662 4.0825-15.008 24.111-9.2542 26.912 2.5901 1.2608 8.7457 10.109 11.481 11.269 11.187 4.7408 153.2 9.6467 153.2 9.6467s-15.968-75.147-25.094-79.293c-29.23-13.27-43.358-49.26-71.051-64.228-4.1637-2.2504-10.385.59345-14.957-.49376-10.579-2.5163-20.19-7.2528-31.162-7.9054-11.555-.68683-54.535 11.927-63.155 21.245-1.5525 1.678-2.8797 3.5497-4.0788 5.5331z" style="clip-rule:evenodd;fill-rule:evenodd;fill:#955935;stroke-linejoin:round;stroke-miterlimit:2;stroke-width:.52752"/>
  <path id="path56" d="m941.54 379.8c1.1495 1.1373 2.4746 2.2762 4.3858 3.163 20.765 9.6314 25.896 3.2173 39.998 21.4 3.0643 3.9511 1.8579 17.693 2.57 18.306 1.7671 1.5214 5.7145 1.3668 7.8667 2.1729 5.2661 1.9734 12.814 10.006 15.086 14.518 4.4903 8.9182-21.984 9.8197-15.83 17.755 3.166 4.0825-15.008 24.111-9.2542 26.912 2.5901 1.2608 8.7456 10.109 11.481 11.269 11.187 4.7408 153.2 9.6467 153.2 9.6467s-15.968-75.147-25.094-79.293c-29.23-13.27-43.358-49.26-71.051-64.228-4.1637-2.2504-10.385.59345-14.957-.49376-10.579-2.5163-20.19-7.2528-31.162-7.9054-11.555-.68683-54.535 11.927-63.155 21.245-1.5525 1.678-2.8797 3.5497-4.0788 5.5331z" style="clip-rule:evenodd;fill-rule:evenodd;fill:#955935;stroke-linejoin:round;stroke-miterlimit:2;stroke-width:.52752"/>
  <path id="path60" d="m1350.9 379.8c1.1495 1.1373 2.4746 2.2762 4.3858 3.163 20.765 9.6314 25.896 3.2173 39.998 21.4 3.0643 3.9511 1.8579 17.693 2.57 18.306 1.7672 1.5214 5.7146 1.3668 7.8669 2.1729 5.2662 1.9734 12.814 10.006 15.086 14.518 4.4903 8.9182-21.984 9.8197-15.83 17.755 3.1661 4.0825-15.008 24.111-9.2543 26.912 2.5901 1.2608 8.7457 10.109 11.481 11.269 11.187 4.7408 153.2 9.6467 153.2 9.6467s-15.968-75.147-25.094-79.293c-29.23-13.27-43.358-49.26-71.051-64.228-4.1637-2.2504-10.385.59345-14.957-.49376-10.579-2.5163-20.19-7.2528-31.162-7.9054-11.555-.68683-54.535 11.927-63.155 21.245-1.5525 1.678-2.8797 3.5497-4.0788 5.5331z" style="clip-rule:evenodd;fill-rule:evenodd;fill:#955935;stroke-linejoin:round;stroke-miterlimit:2;stroke-width:.52752"/>
  <path id="path64" d="m187.57 353.05c.0554.11289.11184.22736.16881.34077 1.2639 2.5279 11.721 11.054 22.339 13.5 11.152 2.5695 13.773 15.074 14.371 16.19 3.92 7.3267 11.278 4.5715 15.232 8.0984 19.623 17.507 34.989 49.353 50.825 71.401 12.391 17.259 27.325 31.514 42.813 42.365h84.556c-.43255-9.5734-13.926-21.627-19.592-28.898-10.218-13.111-73.082-42.262-90.992-50.395-29.23-13.27-43.358-49.26-71.051-64.228-4.1637-2.2504-10.385.59345-14.957-.49376-10.579-2.5163-20.19-7.2528-31.162-7.9054-.73061-.0433-1.5862-.0338-2.5505.0253z" style="clip-rule:evenodd;fill-rule:evenodd;fill:#855233;stroke-linejoin:round;stroke-miterlimit:2;stroke-width:.52752"/>
  <path id="path68" d="m596.9 353.05c.0554.11289.11184.22736.16881.34077 1.2639 2.5279 11.721 11.054 22.339 13.5 11.152 2.5695 13.774 15.074 14.371 16.19 3.92 7.3267 11.278 4.5715 15.232 8.0984 19.623 17.507 34.989 49.353 50.825 71.401 12.391 17.259 27.325 31.514 42.813 42.365h84.556c-.4325-9.5734-13.926-21.627-19.592-28.898-10.218-13.111-73.082-42.262-90.991-50.395-29.23-13.27-43.358-49.26-71.051-64.228-4.1637-2.2504-10.385.59345-14.957-.49376-10.579-2.5163-20.19-7.2528-31.162-7.9054-.73061-.0433-1.5862-.0338-2.5506.0253z" style="clip-rule:evenodd;fill-rule:evenodd;fill:#855233;stroke-linejoin:round;stroke-miterlimit:2;stroke-width:.52752"/>
  <path id="path72" d="m1006.2 353.05c.055.11289.1118.22736.1688.34077 1.2639 2.5279 11.721 11.054 22.339 13.5 11.152 2.5695 13.774 15.074 14.371 16.19 3.92 7.3267 11.278 4.5715 15.232 8.0984 19.623 17.507 34.989 49.353 50.825 71.401 12.391 17.259 27.325 31.514 42.813 42.365h84.556c-.4325-9.5734-13.926-21.627-19.592-28.898-10.218-13.111-73.082-42.262-90.992-50.395-29.23-13.27-43.358-49.26-71.051-64.228-4.1637-2.2504-10.385.59345-14.957-.49376-10.579-2.5163-20.19-7.2528-31.162-7.9054-.7306-.0433-1.5862-.0338-2.5505.0253z" style="clip-rule:evenodd;fill-rule:evenodd;fill:#855233;stroke-linejoin:round;stroke-miterlimit:2;stroke-width:.52752"/>
  <path id="path76" d="m1415.5 353.05c.055.11289.1118.22736.1688.34077 1.2639 2.5279 11.721 11.054 22.339 13.5 11.152 2.5695 13.774 15.074 14.371 16.19 3.92 7.3267 11.278 4.5715 15.232 8.0984 19.623 17.507 34.989 49.353 50.825 71.401 12.391 17.259 27.325 31.514 42.813 42.365h84.556c-.4325-9.5734-13.926-21.627-19.592-28.898-10.218-13.111-73.082-42.262-90.991-50.395-29.23-13.27-43.358-49.26-71.051-64.228-4.1637-2.2504-10.385.59345-14.957-.49376-10.579-2.5163-20.19-7.2528-31.162-7.9054-.7306-.0433-1.5862-.0338-2.5505.0253z" style="clip-rule:evenodd;fill-rule:evenodd;fill:#855233;stroke-linejoin:round;stroke-miterlimit:2;stroke-width:.52752"/>
  <path id="path80" d="m232.76 368.21c12.965 7.055 22.637 19.152 32.626 30.904 11.383 13.395 23.131 26.386 38.755 33.481 12.404 5.6323 48.151 20.12 70.865 33.683 5.3945 3.221 10.013 6.3529 13.242 9.3028 1.424 1.2966 2.5641 2.4276 3.0743 3.5692 7.4751 16.795 15.518 24.025 23.499 25.454 5.8736 1.0513 12.399-.67681 19.768-5.6392 13.504-9.1002 31.653-30.508 60-57.406 12.319-11.689 24.634-24.66 34.354-39.37 4.7645-7.209 7.1246-16.445 12.945-22.741 2.9679-3.2052 10.838-6.5148 19.635-9.7137 14.218-5.1676 31.054-9.48 37.473-9.0981 10.523.62564 19.706 5.2984 29.852 7.7112 2.6307.62564 13.056-.15087 13.238-.13715 12.967 7.055 22.638 19.152 32.624 30.904 11.388 13.395 23.131 26.386 38.76 33.481 12.408 5.6355 46.625 21.455 69.507 34.896 8.6329 5.0737 15.62 9.5665 18.455 13.038.3815.76015 5.9091 11.618 11.907 17.085 6.122 5.5843 13.983 8.6703 23.472 5.0441 8.5309-3.2616 18.761-11.732 28.964-21.929 13.774-13.768 27.762-30.658 37.721-38.797 13.127-10.731 24.95-24.875 34.771-39.742 4.7646-7.209 7.1247-16.445 12.95-22.741 2.9634-3.2052 10.833-6.5148 19.635-9.7137 14.214-5.1676 31.054-9.48 37.473-9.0981 10.523.62564 19.706 5.2984 29.852 7.7112 2.6262.62564 13.056-.15087 13.238-.13715 12.963 7.055 22.634 19.152 32.624 30.904 11.388 13.395 23.131 26.386 38.755 33.481 12.413 5.6355 46.629 21.455 69.507 34.896 8.695 5.1085 15.718 9.6282 18.517 13.109.2218.4811 4.1346 8.9056 8.0341 13.892 6.1486 7.8653 15.066 13.394 27.62 8.2071 8.1805-3.3798 18.402-11.987 28.667-22.228 13.943-13.912 28.232-30.814 37.682-38.54 13.127-10.731 24.954-24.875 34.776-39.742 4.7645-7.209 7.1246-16.445 12.949-22.741 2.9634-3.2052 10.833-6.5148 19.635-9.7137 14.214-5.1676 31.049-9.48 37.473-9.0981 10.523.62564 19.701 5.2984 29.847 7.7112 2.6307.62564 13.056-.15087 13.242-.13715 12.963 7.055 22.634 19.152 32.624 30.904 11.383 13.395 23.126 26.386 38.755 33.481 12.408 5.6355 46.625 21.455 69.507 34.896 8.8104 5.1749 15.9 9.7464 18.623 13.244 2.8924 3.7116 7.7723 8.34 11.996 13.25 2.9102 3.384 5.847 6.6974 5.9978 10.066.1908 4.2027 3.7575 7.4602 7.9587 7.2708 4.2011-.1899 7.4617-3.7559 7.271-7.9586-.2351-5.1776-2.9501-10.78-7.027-16.081-4.5339-5.8934-10.762-11.546-14.169-15.918-3.4071-4.37-11.925-10.551-22.927-17.017-23.352-13.718-58.261-29.882-70.927-35.633-13.602-6.1756-23.534-17.814-33.445-29.473-11.272-13.261-22.474-26.598-37.132-34.52-2.8924-1.562-14.764-.71479-16.822-1.2038-11.011-2.6191-21.05-7.4195-32.473-8.0984-7.444-.44312-27.101 3.9965-43.582 9.988-11.667 4.2418-21.689 9.4394-25.619 13.689-6.3704 6.8857-9.2673 16.805-14.475 24.689-8.9701 13.578-19.715 26.544-31.706 36.344-9.711 7.9418-24.466 25.25-38.8 39.55-8.5886 8.5679-16.88 16.103-23.721 18.931-4.5339 1.8722-7.5727-.66889-9.7908-3.5075-4.179-5.3469-6.5612-12.008-7.9099-13.739-3.407-4.37-11.92-10.551-22.926-17.017-23.352-13.718-58.261-29.882-70.927-35.633-13.602-6.1756-23.534-17.814-33.445-29.473-11.268-13.261-22.474-26.598-37.131-34.52-2.8924-1.562-14.759-.71479-16.818-1.2038-11.015-2.6191-21.05-7.4195-32.473-8.0984-7.4484-.44312-27.101 3.9965-43.586 9.988-11.667 4.2418-21.684 9.4394-25.615 13.689-6.3704 6.8857-9.2673 16.805-14.475 24.689-8.9746 13.578-19.719 26.544-31.706 36.344-10.234 8.368-24.688 25.663-38.848 39.818-8.4244 8.4186-16.587 15.779-23.632 18.472-4.3475 1.6617-7.4529-1.3874-9.8751-4.3162-4.3431-5.2504-6.9472-11.556-7.8699-12.738-3.4026-4.37-11.92-10.551-22.926-17.017-23.348-13.718-58.261-29.882-70.927-35.633-13.597-6.1756-23.534-17.814-33.44-29.473-11.272-13.261-22.479-26.598-37.136-34.52-2.888-1.562-14.759-.71479-16.818-1.2038-11.011-2.6191-21.05-7.4195-32.473-8.0984-7.444-.44312-27.101 3.9965-43.582 9.988-11.672 4.2418-21.689 9.4394-25.619 13.689-6.3704 6.8857-9.2673 16.805-14.475 24.689-9.0766 13.735-20.624 25.801-32.127 36.716-13.366 12.681-39.265 37.598-40.654 40.556-5.6651 12.091-27.354 24.608-31.005 14.64-1.393-3.8082-4.7335-7.2318-7.1912-12.747-2.4887-5.5933-10.816-12.824-22.425-19.759-23.206-13.859-59.708-28.721-72.377-34.475-13.602-6.1756-23.534-17.814-33.445-29.473-11.268-13.261-22.476-26.598-37.133-34.52-2.8902-1.562-14.761-.71479-16.819-1.2038-11.013-2.6191-21.05-7.4195-32.473-8.0984-7.4458-.44312-27.101 3.9965-43.585 9.988-11.668 4.2418-21.686 9.4394-25.618 13.689-6.3696 6.8857-9.2656 16.805-14.475 24.689-8.9719 13.578-19.716 26.544-31.705 36.344-31.248 25.546-49.812 33.85-73.087 70.752-2.2443 3.5581-1.1774 8.2688 2.3805 10.513 3.5583 2.2441 8.2692 1.1774 10.513-2.3807 22.157-35.131 40.094-42.763 69.842-67.082 13.126-10.731 24.95-24.875 34.774-39.742 4.7632-7.209 7.1228-16.445 12.947-22.741 2.9652-3.2052 10.835-6.5148 19.635-9.7137 14.216-5.1676 31.052-9.48 37.472-9.0981 10.523.62564 19.705 5.2984 29.851 7.7112 2.6289.62564 13.055-.15087 13.238-.13715z" style="clip-rule:evenodd;fill-rule:evenodd;fill:#4d311f;stroke-linejoin:round;stroke-miterlimit:2;stroke-width:.48376"/>
 </g>
</svg>
