<?xml version="1.0" encoding="UTF-8"?>
<svg width="744.97" height="747.06" version="1.1" viewBox="-144.97 -147.06 744.97 747.06" xmlns="http://www.w3.org/2000/svg">
 <rect x="-100" y="-100" width="700" height="700" style="fill:#fff6d5"/>
 <rect x="200" y="-100" width="100" height="700" style="-inkscape-stroke:none;fill:#7ea3dc;font-variation-settings:normal;stop-color:#000000"/>
 <rect transform="rotate(-90)" x="-300" y="-100" width="100" height="700" style="-inkscape-stroke:none;fill:#7ea3dc;font-variation-settings:normal;stop-color:#000000"/>
 <rect x="-100" y="-100" width="100" height="100" style="fill:#ffd42a"/>
 <rect width="100" height="100" style="fill:#ffd42a"/>
 <rect x="100" y="-100" width="100" height="100" style="fill:#ffd42a"/>
 <rect x="200" width="100" height="100" style="fill:#ffd42a"/>
 <rect x="200" width="100" height="100" style="-inkscape-stroke:none;fill:#3771c8;font-variation-settings:normal;stop-color:#000000"/>
 <rect x="300" y="-100" width="100" height="100" style="fill:#ffd42a"/>
 <rect x="400" width="100" height="100" style="fill:#ffd42a"/>
 <rect x="500" y="-100" width="100" height="100" style="fill:#ffd42a"/>
 <rect x="-100" y="100" width="100" height="100" style="fill:#ffd42a"/>
 <rect y="200" width="100" height="100" style="-inkscape-stroke:none;fill:#3771c8;font-variation-settings:normal;stop-color:#000000"/>
 <rect x="100" y="100" width="100" height="100" style="fill:#ffd42a"/>
 <rect x="200" y="200" width="100" height="100" style="fill:#ffd42a"/>
 <rect x="200" y="200" width="100" height="100" style="-inkscape-stroke:none;fill:#afe9af;font-variation-settings:normal;stop-color:#000000"/>
 <rect x="300" y="100" width="100" height="100" style="fill:#ffd42a"/>
 <rect x="400" y="200" width="100" height="100" style="-inkscape-stroke:none;fill:#3771c8;font-variation-settings:normal;stop-color:#000000"/>
 <rect x="500" y="100" width="100" height="100" style="fill:#ffd42a"/>
 <rect x="-100" y="300" width="100" height="100" style="fill:#ffd42a"/>
 <rect y="400" width="100" height="100" style="fill:#ffd42a"/>
 <rect x="100" y="300" width="100" height="100" style="fill:#ffd42a"/>
 <rect x="200" y="400" width="100" height="100" style="fill:#ffd42a"/>
 <rect x="200" y="400" width="100" height="100" style="-inkscape-stroke:none;fill:#3771c8;font-variation-settings:normal;stop-color:#000000"/>
 <rect x="300" y="300" width="100" height="100" style="fill:#ffd42a"/>
 <rect x="400" y="400" width="100" height="100" style="fill:#ffd42a"/>
 <rect x="500" y="300" width="100" height="100" style="fill:#ffd42a"/>
 <rect x="-100" y="500" width="100" height="100" style="fill:#ffd42a"/>
 <rect x="100" y="500" width="100" height="100" style="fill:#ffd42a"/>
 <rect x="300" y="500" width="100" height="100" style="fill:#ffd42a"/>
 <rect x="500" y="500" width="100" height="100" style="fill:#ffd42a"/>
 <rect x="-145.08" y="-147.62" width="45.076" height="747.62" style="-inkscape-stroke:none;fill:#244b84;font-variation-settings:normal;stop-color:#000000"/>
 <path transform="translate(-144.97 -147.06)" d="m-.16797-.6582 45.182 47.711.0039-.28906c.03709.15179.13139.29492.29492.29492h699.31c.19224 0 .34766-.15542.34766-.34766v-47.676l-.34766-.3457z" style="-inkscape-stroke:none;fill:#8eafe0;font-variation-settings:normal;stop-color:#000000"/>
 <g style="stroke-width:2.1842" aria-label="A">
  <path d="m-51.946-74.789-11.689 31.696h23.42zm-4.8632-8.4893h9.7691l24.273 63.691h-8.9586l-5.8017-16.339h-28.71l-5.8017 16.339h-9.0865z"/>
 </g>
 <g style="stroke-width:2.1842" aria-label="B">
  <path d="m38.529-49.383v23.335h13.822q6.9536 0 10.281-2.8582 3.3701-2.9009 3.3701-8.8306 0-5.9724-3.3701-8.7879-3.3275-2.8582-10.281-2.8582zm0-26.193v19.197h12.755q6.3137 0 9.3852-2.3463 3.1142-2.389 3.1142-7.2522 0-4.8206-3.1142-7.2095-3.0715-2.3889-9.3852-2.3889zm-8.6173-7.0815h22.012q9.8544 0 15.187 4.0953 5.3325 4.0953 5.3325 11.646 0 5.8444-2.7302 9.2998-2.7302 3.4554-8.02 4.3086 6.3563 1.3651 9.8544 5.7164 3.5408 4.3086 3.5408 10.793 0 8.532-5.8017 13.182-5.8017 4.6499-16.509 4.6499h-22.866z"/>
 </g>
 <g style="stroke-width:2.1842" aria-label="1">
  <path d="m32.275 74.593h14.078v-48.59l-15.315 3.0715v-7.8494l15.23-3.0715h8.6173v56.439h14.078v7.2522h-36.687z"/>
 </g>
 <g style="stroke-width:2.1842" aria-label="2">
  <path d="m240.15 75.169h30.075v7.2522h-40.442v-7.2522q4.9059-5.0765 13.353-13.608 8.4893-8.5746 10.665-11.049 4.138-4.6499 5.7591-7.8494 1.6637-3.2421 1.6637-6.3563 0-5.0765-3.5834-8.276-3.5408-3.1995-9.2572-3.1995-4.0527 0-8.5746 1.4078-4.4793 1.4078-9.5985 4.266v-8.7026q5.2045-2.0903 9.7264-3.1568t8.276-1.0665q9.8971 0 15.784 4.9485 5.8871 4.9485 5.8871 13.225 0 3.9247-1.4931 7.4655-1.4504 3.4981-5.3325 8.276-1.0665 1.2371-6.7829 7.1668-5.7164 5.8871-16.125 16.509z"/>
 </g>
 <g style="stroke-width:2.1842" aria-label="3">
  <path d="m457.83 47.462q6.1857 1.3225 9.6411 5.5031 3.4981 4.1807 3.4981 10.324 0 9.4278-6.4843 14.59-6.4843 5.1618-18.429 5.1618-4.01 0-8.276-.81054-4.2233-.76788-8.7453-2.3463v-8.3187q3.5834 2.0903 7.8494 3.1568 4.266 1.0665 8.9159 1.0665 8.1054 0 12.329-3.1995 4.266-3.1995 4.266-9.2998 0-5.6311-3.9674-8.7879-3.9247-3.1995-10.964-3.1995h-7.4228v-7.0815h7.7641q6.3563 0 9.7264-2.5169 3.3701-2.5596 3.3701-7.3375 0-4.9059-3.4981-7.5081-3.4554-2.6449-9.9397-2.6449-3.5408 0-7.5934.76788-4.0527.76788-8.9159 2.389v-7.6788q4.9059-1.3651 9.1719-2.0477 4.3086-.68256 8.1054-.68256 9.8118 0 15.528 4.4793 5.7164 4.4366 5.7164 12.03 0 5.2898-3.0288 8.9586-3.0288 3.6261-8.6173 5.0339z"/>
 </g>
 <g style="stroke-width:2.1842" aria-label="4">
  <path d="m55.546 225.66-21.757 34h21.757zm-2.261-7.5081h10.836v41.508h9.0865v7.1668h-9.0865v15.016h-8.5746v-15.016h-28.753v-8.3187z"/>
 </g>
 <g style="stroke-width:2.1842" aria-label="+">
  <path d="m253.58 222.61v23.762h23.762v7.2522h-23.762v23.762h-7.1668v-23.762h-23.762v-7.2522h23.762v-23.762z"/>
 </g>
 <g style="stroke-width:2.1842" aria-label="5">
  <path d="m432.08 217.54h33.829v7.2522h-25.937v15.614q1.877-.6399 3.7541-.93852 1.877-.34128 3.7541-.34128 10.665 0 16.893 5.8444 6.2283 5.8444 6.2283 15.827 0 10.281-6.399 15.997-6.399 5.6738-18.045 5.6738-4.01 0-8.1907-.68255-4.138-.68256-8.5746-2.0477v-8.66q3.8394 2.0903 7.9347 3.1142 4.0953 1.0238 8.6599 1.0238 7.3802 0 11.689-3.882 4.3086-3.882 4.3086-10.537t-4.3086-10.537q-4.3086-3.882-11.689-3.882-3.4554 0-6.9109.76788-3.4128.76787-6.9962 2.389z"/>
 </g>
 <g style="stroke-width:2.1842" aria-label="6">
  <path d="m50.747 446.52q-5.8017 0-9.2145 3.9674-3.3701 3.9674-3.3701 10.878 0 6.8682 3.3701 10.878 3.4128 3.9674 9.2145 3.9674t9.1719-3.9674q3.4128-4.01 3.4128-10.878 0-6.9109-3.4128-10.878-3.3701-3.9674-9.1719-3.9674zm17.107-27.004v7.8494q-3.2421-1.5358-6.5696-2.3463-3.2848-.81053-6.527-.81053-8.532 0-13.054 5.7591-4.4793 5.7591-5.1192 17.405 2.5169-3.7114 6.3137-5.6738 3.7967-2.005 8.3613-2.005 9.5985 0 15.144 5.8444 5.5884 5.8017 5.5884 15.827 0 9.8118-5.8017 15.741-5.8017 5.9297-15.443 5.9297-11.049 0-16.893-8.4466-5.8444-8.4893-5.8444-24.572 0-15.102 7.1668-24.06 7.1668-9.0012 19.24-9.0012 3.2421 0 6.527.63989 3.3275.6399 6.9109 1.9197z"/>
 </g>
 <g style="stroke-width:2.1842" aria-label="7">
  <path d="m229.52 418.15h40.953v3.6687l-23.122 60.022h-9.0012l21.756-56.439h-30.587z"/>
 </g>
 <g style="stroke-width:2.1842" aria-label="8">
  <path d="m450 451.56q-6.143 0-9.6838 3.2848-3.4981 3.2848-3.4981 9.0439 0 5.7591 3.4981 9.0439 3.5408 3.2848 9.6838 3.2848 6.143 0 9.6838-3.2848 3.5408-3.3275 3.5408-9.0439 0-5.7591-3.5408-9.0439-3.4981-3.2848-9.6838-3.2848zm-8.6173-3.6688q-5.5458-1.3651-8.6599-5.1618-3.0715-3.7967-3.0715-9.2572 0-7.6361 5.4178-12.073 5.4605-4.4366 14.931-4.4366 9.5131 0 14.931 4.4366t5.4178 12.073q0 5.4604-3.1142 9.2572-3.0715 3.7967-8.5746 5.1618 6.2283 1.4504 9.6838 5.6738 3.4981 4.2233 3.4981 10.324 0 9.2572-5.6738 14.206-5.6311 4.9485-16.168 4.9485-10.537 0-16.211-4.9485-5.6311-4.9485-5.6311-14.206 0-6.1004 3.4981-10.324 3.4981-4.2233 9.7264-5.6738zm-3.1568-13.608q0 4.9485 3.0715 7.7214 3.1142 2.7729 8.7026 2.7729 5.5458 0 8.66-2.7729 3.1568-2.7729 3.1568-7.7214t-3.1568-7.7214q-3.1142-2.7729-8.66-2.7729-5.5884 0-8.7026 2.7729-3.0715 2.7729-3.0715 7.7214z"/>
 </g>
 <path d="m-120.05-6.8843v472.9h8.265l-11.02 22.04-11.02-22.04h8.265v-472.9z" style="fill:#ffffff"/>
 <path d="m13.856-127.32h444.39v-8.265l22.04 11.02-22.04 11.02v-8.265h-444.39z" style="fill:#000000"/>
 <g style="stroke-width:.79862" aria-label="étroit">
  <path d="m-82.937-122.11v1.4038h-13.196q.18718 2.9636 1.7782 4.5234 1.6066 1.5442 4.461 1.5442 1.6534 0 3.1976-.40555 1.5598-.40555 3.0884-1.2166v2.7141q-1.5442.65512-3.1664.99828-1.6222.34315-3.2912.34315-4.1803 0-6.6292-2.4333-2.4333-2.4333-2.4333-6.5824 0-4.2895 2.3085-6.8007 2.3241-2.5269 6.2548-2.5269 3.5252 0 5.5685 2.2773 2.0589 2.2617 2.0589 6.1612zm-2.87-.8423q-.0312-2.3553-1.3258-3.7591-1.279-1.4038-3.4004-1.4038-2.4021 0-3.8527 1.357-1.435 1.357-1.6534 3.8215zm-2.7609-15.255h3.104l-5.085 5.8649h-2.3865z"/>
  <path d="m-75.388-135.09v4.9602h5.9117v2.2305h-5.9117v9.4836q0 2.1369.57713 2.7453.59273.60832 2.3865.60832h2.948v2.4021h-2.948q-3.3224 0-4.5858-1.2322-1.2634-1.2478-1.2634-4.5234v-9.4836h-2.1057v-2.2305h2.1057v-4.9602z"/>
  <path d="m-55.578-127.44q-.48354-.28076-1.0607-.40555-.56153-.14038-1.2478-.14038-2.4333 0-3.7435 1.591-1.2946 1.5754-1.2946 4.539v9.2028h-2.8856v-17.47h2.8856v2.7141q.90469-1.591 2.3553-2.3553 1.4506-.7799 3.5252-.7799.29636 0 .65512.0468.35876.0312.7955.10918z"/>
  <path d="m-46.5-128.11q-2.3085 0-3.6499 1.8094-1.3414 1.7938-1.3414 4.929 0 3.1352 1.3258 4.9446 1.3414 1.7938 3.6655 1.7938 2.2929 0 3.6343-1.8094 1.3414-1.8094 1.3414-4.929 0-3.104-1.3414-4.9134-1.3414-1.825-3.6343-1.825zm0-2.4333q3.7435 0 5.8805 2.4333 2.1369 2.4333 2.1369 6.7384 0 4.2895-2.1369 6.7384-2.1369 2.4333-5.8805 2.4333-3.7591 0-5.8961-2.4333-2.1213-2.4489-2.1213-6.7384 0-4.3051 2.1213-6.7384 2.1369-2.4333 5.8961-2.4333z"/>
  <path d="m-33.725-130.13h2.87v17.47h-2.87zm0-6.8008h2.87v3.6344h-2.87z"/>
  <path d="m-22.011-135.09v4.9602h5.9117v2.2305h-5.9117v9.4836q0 2.1369.57713 2.7453.59273.60832 2.3865.60832h2.948v2.4021h-2.948q-3.3224 0-4.5858-1.2322-1.2634-1.2478-1.2634-4.5234v-9.4836h-2.1057v-2.2305h2.1057v-4.9602z"/>
 </g>
 <g style="stroke-width:.79862" aria-label="large">
  <path d="m508.2-136.93h2.87v24.271h-2.87z"/>
  <path d="m525.02-121.44q-3.4784 0-4.8198.7955t-1.3414 2.7141q0 1.5286.99827 2.4333 1.0139.88909 2.7453.88909 2.3865 0 3.8215-1.6846 1.4506-1.7002 1.4506-4.5078v-.63952zm5.7245-1.1854v9.9672h-2.87v-2.6517q-.98268 1.591-2.4489 2.3553-1.4662.7487-3.5876.7487-2.6829 0-4.2739-1.4974-1.5754-1.513-1.5754-4.0399 0-2.948 1.9654-4.4454 1.981-1.4974 5.8961-1.4974h4.0243v-.28076q0-1.981-1.3102-3.0572-1.2946-1.0919-3.6499-1.0919-1.4974 0-2.9168.35875-1.4194.35876-2.7296 1.0763v-2.6517q1.5754-.60832 3.0572-.90469 1.4818-.31196 2.8856-.31196 3.7903 0 5.6621 1.9654 1.8718 1.9654 1.8718 5.9584z"/>
  <path d="m546.78-127.44q-.48354-.28076-1.0607-.40555-.56153-.14038-1.2478-.14038-2.4333 0-3.7435 1.591-1.2946 1.5754-1.2946 4.539v9.2028h-2.8856v-17.47h2.8856v2.7141q.90469-1.591 2.3553-2.3553 1.4506-.7799 3.5252-.7799.29637 0 .65512.0468.35876.0312.7955.10918z"/>
  <path d="m560.72-121.59q0-3.1196-1.2946-4.8354-1.279-1.7158-3.6031-1.7158-2.3085 0-3.6032 1.7158-1.279 1.7158-1.279 4.8354 0 3.104 1.279 4.8198 1.2946 1.7158 3.6032 1.7158 2.3241 0 3.6031-1.7158 1.2946-1.7158 1.2946-4.8198zm2.87 6.7696q0 4.461-1.981 6.6292-1.981 2.1837-6.0676 2.1837-1.513 0-2.8544-.23397-1.3414-.21837-2.6049-.68632v-2.792q1.2634.68632 2.4957 1.0139 1.2322.32756 2.5113.32756 2.8232 0 4.2271-1.4818 1.4038-1.4662 1.4038-4.4454v-1.4194q-.88909 1.5442-2.2773 2.3085-1.3882.7643-3.3224.7643-3.2132 0-5.1786-2.4489-1.9654-2.4489-1.9654-6.4888 0-4.0555 1.9654-6.5044 1.9654-2.4489 5.1786-2.4489 1.9342 0 3.3224.76431 1.3882.7643 2.2773 2.3085v-2.6517h2.87z"/>
  <path d="m584.44-122.11v1.4038h-13.196q.18717 2.9636 1.7782 4.5234 1.6066 1.5442 4.461 1.5442 1.6534 0 3.1976-.40555 1.5598-.40555 3.0884-1.2166v2.7141q-1.5442.65512-3.1664.99828-1.6222.34315-3.2912.34315-4.1803 0-6.6292-2.4333-2.4333-2.4333-2.4333-6.5824 0-4.2895 2.3085-6.8007 2.3241-2.5269 6.2548-2.5269 3.5252 0 5.5685 2.2773 2.0589 2.2617 2.0589 6.1612zm-2.87-.8423q-.0312-2.3553-1.3258-3.7591-1.279-1.4038-3.4004-1.4038-2.4021 0-3.8527 1.357-1.435 1.357-1.6534 3.8215z"/>
 </g>
 <g transform="rotate(-90 93.798 124.82)" style="fill:#ffffff;stop-color:#000000;stroke-width:.79862" aria-label="court">
  <path d="m-354.85-96.321v2.6829q-1.2166-.67072-2.4489-.99828-1.2166-.34316-2.4645-.34316-2.792 0-4.3363 1.7782-1.5442 1.7626-1.5442 4.9602 0 3.1976 1.5442 4.9758 1.5442 1.7626 4.3363 1.7626 1.2478 0 2.4645-.32756 1.2322-.34316 2.4489-1.0139v2.6517q-1.201.56153-2.4957.84229-1.279.28076-2.7297.28076-3.9463 0-6.2704-2.4801-2.3241-2.4801-2.3241-6.6916 0-4.2739 2.3397-6.7228 2.3553-2.4489 6.442-2.4489 1.3258 0 2.5893.28076 1.2634.26517 2.4489.8111z"/>
  <path d="m-343.09-94.979q-2.3085 0-3.6499 1.8094-1.3414 1.7938-1.3414 4.929 0 3.1352 1.3258 4.9446 1.3414 1.7938 3.6655 1.7938 2.2929 0 3.6344-1.8094 1.3414-1.8094 1.3414-4.929 0-3.104-1.3414-4.9134-1.3414-1.825-3.6344-1.825zm0-2.4333q3.7435 0 5.8805 2.4333 2.1369 2.4333 2.1369 6.7384 0 4.2895-2.1369 6.7384-2.1369 2.4333-5.8805 2.4333-3.7591 0-5.8961-2.4333-2.1213-2.4489-2.1213-6.7384 0-4.3051 2.1213-6.7384 2.1369-2.4333 5.8961-2.4333z"/>
  <path d="m-330.61-86.416v-10.575h2.87v10.466q0 2.4801.96708 3.7279.96708 1.2322 2.9012 1.2322 2.3241 0 3.6655-1.4818 1.357-1.4818 1.357-4.0399v-9.9048h2.87v17.47h-2.87v-2.6829q-1.0451 1.591-2.4333 2.3709-1.3726.7643-3.1976.7643-3.0104 0-4.5702-1.8718-1.5598-1.8718-1.5598-5.4749z"/>
  <path d="m-299.95-94.308q-.48354-.28076-1.0607-.40555-.56152-.14038-1.2478-.14038-2.4333 0-3.7435 1.591-1.2946 1.5754-1.2946 4.539v9.2028h-2.8856v-17.47h2.8856v2.7141q.90469-1.591 2.3553-2.3553 1.4506-.7799 3.5252-.7799.29636 0 .65511.04679.35876.0312.7955.10919z"/>
  <path d="m-294.1-101.95v4.9602h5.9117v2.2305h-5.9117v9.4836q0 2.1369.57712 2.7453.59273.60832 2.3865.60832h2.948v2.4021h-2.948q-3.3224 0-4.5858-1.2322-1.2634-1.2478-1.2634-4.5234v-9.4836h-2.1057v-2.2305h2.1057v-4.9602z"/>
 </g>
 <g transform="rotate(-90 -216.78 -181.95)" style="fill:#ffffff;stop-color:#000000;stroke-width:.79862" aria-label="long">
  <path d="m-367.42-103.79h2.87v24.271h-2.87z"/>
  <path d="m-351.78-94.979q-2.3085 0-3.6499 1.8094-1.3414 1.7938-1.3414 4.929 0 3.1352 1.3258 4.9446 1.3414 1.7938 3.6655 1.7938 2.2929 0 3.6344-1.8094 1.3414-1.8094 1.3414-4.929 0-3.104-1.3414-4.9134-1.3414-1.825-3.6344-1.825zm0-2.4333q3.7435 0 5.8805 2.4333 2.1369 2.4333 2.1369 6.7384 0 4.2895-2.1369 6.7384-2.1369 2.4333-5.8805 2.4333-3.7591 0-5.8961-2.4333-2.1213-2.4489-2.1213-6.7384 0-4.3051 2.1213-6.7384 2.1369-2.4333 5.8961-2.4333z"/>
  <path d="m-324.48-90.066v10.544h-2.87v-10.451q0-2.4801-.96708-3.7123-.96708-1.2322-2.9012-1.2322-2.3241 0-3.6656 1.4818-1.3414 1.4818-1.3414 4.0399v9.8736h-2.8856v-17.47h2.8856v2.7141q1.0295-1.5754 2.4177-2.3553 1.4038-.7799 3.2288-.7799 3.0104 0 4.5546 1.8718 1.5442 1.8562 1.5442 5.4749z"/>
  <path d="m-307.26-88.459q0-3.1196-1.2946-4.8354-1.279-1.7158-3.6032-1.7158-2.3085 0-3.6032 1.7158-1.279 1.7158-1.279 4.8354 0 3.104 1.279 4.8198 1.2946 1.7158 3.6032 1.7158 2.3241 0 3.6032-1.7158 1.2946-1.7158 1.2946-4.8198zm2.87 6.7696q0 4.461-1.981 6.6292-1.981 2.1837-6.0676 2.1837-1.513 0-2.8544-.23397-1.3414-.21837-2.6049-.68631v-2.7921q1.2634.68631 2.4957 1.0139 1.2322.32756 2.5113.32756 2.8232 0 4.2271-1.4818 1.4038-1.4662 1.4038-4.4454v-1.4194q-.88909 1.5442-2.2773 2.3085-1.3882.7643-3.3224.7643-3.2132 0-5.1786-2.4489-1.9654-2.4489-1.9654-6.4888 0-4.0555 1.9654-6.5044 1.9654-2.4489 5.1786-2.4489 1.9342 0 3.3224.7643 1.3882.7643 2.2773 2.3085v-2.6517h2.87z"/>
 </g>
</svg>
