<?xml version="1.0" encoding="UTF-8" standalone="no"?>
<svg
   style="clip-rule:evenodd;fill-rule:evenodd"
   version="1.1"
   viewBox="0 0 370 370"
   xml:space="preserve"
   id="svg26"
   sodipodi:docname="2023-DE-04-Map_Houses-compatible.svg"
   width="370"
   height="370"
   inkscape:version="1.1.1 (3bf5ae0d25, 2021-09-20)"
   xmlns:inkscape="http://www.inkscape.org/namespaces/inkscape"
   xmlns:sodipodi="http://sodipodi.sourceforge.net/DTD/sodipodi-0.dtd"
   xmlns="http://www.w3.org/2000/svg"
   xmlns:svg="http://www.w3.org/2000/svg"
   xmlns:serif="http://www.serif.com/"><defs
   id="defs30">
        
        
        
        
        
        
        
        
        
        
        
        
        
    </defs><sodipodi:namedview
   id="namedview28"
   pagecolor="#ffffff"
   bordercolor="#666666"
   borderopacity="1.0"
   inkscape:pageshadow="2"
   inkscape:pageopacity="0.0"
   inkscape:pagecheckerboard="0"
   showgrid="false"
   inkscape:zoom="1.9752747"
   inkscape:cx="158.20584"
   inkscape:cy="182"
   inkscape:window-width="2048"
   inkscape:window-height="1017"
   inkscape:window-x="-8"
   inkscape:window-y="-8"
   inkscape:window-maximized="1"
   inkscape:current-layer="g869" />
    <g
   id="g869"
   transform="translate(1.92685,3.08645)"><g
     transform="translate(4.4563,3.5341)"
     id="g4">
            <path
   d="M 355.54,0.1 -2.33,354.34 c 122,0.793 246.12,0.796 364.02,5.958 -4.554,-120.16 -5.261,-240.24 -6.154,-360.19 z"
   style="fill:#c4b8b8;fill-rule:nonzero"
   id="path2" />
        </g><path
     d="m 0,0 v 360 l 360.36,-0.345 c -2.009,-118.23 -0.526,-239.52 -0.356,-359.66 z"
     style="fill-rule:nonzero"
     serif:id="path997"
     id="path6" /><rect
     x="2.1300001"
     y="2.1300001"
     width="355.73999"
     height="355.73999"
     style="fill:#ffffff;fill-rule:nonzero"
     id="rect8" /><rect
     x="20.024"
     y="11.502999"
     width="20.875999"
     height="20.875999"
     style="fill-rule:nonzero"
     id="rect10" /><path
     d="m 111.62,173.82 v 19.598 h 19.598 V 173.82 H 111.62 m 113.33,0.853 v 22.153 h 22.154 v -22.153 z"
     style="fill-rule:nonzero"
     id="path12" /><rect
     x="256.89999"
     y="180.20999"
     width="20.875999"
     height="20.875999"
     style="fill-rule:nonzero"
     id="rect14" /><rect
     x="303.75998"
     y="313.98999"
     width="20.875999"
     height="21.302"
     style="fill-rule:nonzero"
     id="rect16" /><g
     transform="translate(-0.20973,-7.1093)"
     id="g20">
            <rect
   x="21.402"
   y="334.10999"
   width="21.302"
   height="21.302"
   style="fill-rule:nonzero"
   id="rect18" />
        </g><path
     id="path833-5"
     style="color:#000000;clip-rule:evenodd;fill:#000000;fill-rule:nonzero;-inkscape-stroke:none"
     d="m 305.48,7.572132 v 11.513672 h 1.51172 v -9.63086 l 5.10352,9.63086 h 2.09765 V 7.572132 h -1.51172 v 9.630859 l -5.10351,-9.630859 z m 4.35742,15.673828 -6.5,11.111328 1.49219,0.873047 4.14258,-7.082031 v 27.851562 h -24.06055 v 1.728516 h 24.06055 v 23.929687 h 1.72851 V 57.728382 h 24.53126 V 55.999866 H 310.7007 V 28.14635 l 4.14258,7.083985 1.49219,-0.873047 z m -35.14257,27.654297 c -1.6193,0 -2.91515,0.542281 -3.88672,1.626953 -0.96644,1.079531 -1.44922,2.529828 -1.44922,4.349609 0,1.819781 0.48278,3.268125 1.44922,4.347656 0.97157,1.079532 2.26742,1.619141 3.88672,1.619141 1.61415,0 2.90465,-0.539609 3.87109,-1.619141 0.96644,-1.084671 1.44922,-2.533015 1.44922,-4.347656 0,-1.819781 -0.48278,-3.270078 -1.44922,-4.349609 -0.96644,-1.084672 -2.25694,-1.626953 -3.87109,-1.626953 z m 65.09961,0.207031 V 62.62096 h 7.41796 v -1.310547 h -5.86132 v -4.171875 h 5.48242 v -1.310547 h -5.48242 v -3.408203 h 5.72265 v -1.3125 z m -65.09961,1.05664 c 1.13093,1e-6 2.02559,0.422563 2.68359,1.265626 0.66314,0.843062 0.99414,1.992468 0.99414,3.447265 0,1.449656 -0.331,2.594438 -0.99414,3.4375 -0.658,0.843063 -1.55266,1.265625 -2.68359,1.265625 -1.13094,0 -2.03094,-0.422562 -2.69922,-1.265625 -0.66314,-0.843062 -0.99414,-1.987844 -0.99414,-3.4375 0,-1.454797 0.331,-2.604203 0.99414,-3.447265 0.66828,-0.843063 1.56828,-1.265626 2.69922,-1.265626 z m 35.13085,32.166016 c -1.25945,0 -2.24906,0.292875 -2.96874,0.878906 -0.71455,0.586032 -1.07227,1.386454 -1.07227,2.404297 0,0.879048 0.2601,1.567047 0.7793,2.060547 0.5192,0.4935 1.3597,0.85461 2.52148,1.085938 l 0.94727,0.185546 c 0.79166,0.159359 1.36065,0.398078 1.70507,0.716797 0.34956,0.318719 0.52344,0.760704 0.52344,1.326172 0,0.647719 -0.24139,1.146531 -0.72461,1.496094 -0.48322,0.349562 -1.16926,0.525391 -2.05859,0.525391 -0.58603,0 -1.18247,-0.09156 -1.78906,-0.271485 -0.6066,-0.179922 -1.22708,-0.446078 -1.85938,-0.800781 v 1.603516 c 0.658,0.241609 1.29452,0.423499 1.90625,0.546875 0.61688,0.123374 1.19728,0.185547 1.74219,0.185547 1.44451,-10e-7 2.53977,-0.287532 3.28515,-0.863282 0.75054,-0.57575 1.125,-1.421594 1.125,-2.537109 1e-5,-0.935594 -0.27684,-1.681141 -0.83203,-2.236328 -0.55004,-0.560328 -1.40658,-0.950829 -2.56836,-1.171875 l -0.9414,-0.19336 c -0.85334,-0.159359 -1.43375,-0.366015 -1.74219,-0.623046 -0.30329,-0.262172 -0.45508,-0.649282 -0.45508,-1.158204 0,-0.606594 0.22999,-1.073343 0.6875,-1.402343 0.46266,-0.329 1.11664,-0.494141 1.96485,-0.494141 0.48836,0 0.99519,0.07019 1.51953,0.208984 0.52434,0.138798 1.08265,0.348126 1.67383,0.63086 v -1.517578 c -0.58604,-0.195344 -1.16038,-0.341781 -1.72071,-0.439454 -0.56032,-0.09767 -1.10867,-0.146484 -1.64844,-0.146484 z" /></g>
</svg>
