<?xml version="1.0" encoding="UTF-8" standalone="no"?>
<svg
   width="100%"
   height="100%"
   viewBox="0 0 367 364"
   version="1.1"
   xml:space="preserve"
   style="fill-rule:evenodd;clip-rule:evenodd;"
   id="svg49"
   sodipodi:docname="2023-DE-04-Map_Rivers.svg"
   inkscape:version="1.1.1 (3bf5ae0d25, 2021-09-20)"
   xmlns:inkscape="http://www.inkscape.org/namespaces/inkscape"
   xmlns:sodipodi="http://sodipodi.sourceforge.net/DTD/sodipodi-0.dtd"
   xmlns="http://www.w3.org/2000/svg"
   xmlns:svg="http://www.w3.org/2000/svg"
   xmlns:serif="http://www.serif.com/"><defs
   id="defs53">
                
                
                
            </defs><sodipodi:namedview
   id="namedview51"
   pagecolor="#ffffff"
   bordercolor="#666666"
   borderopacity="1.0"
   inkscape:pageshadow="2"
   inkscape:pageopacity="0.0"
   inkscape:pagecheckerboard="0"
   showgrid="false"
   inkscape:zoom="1.9752747"
   inkscape:cx="157.69958"
   inkscape:cy="178.96245"
   inkscape:window-width="2048"
   inkscape:window-height="1017"
   inkscape:window-x="-8"
   inkscape:window-y="-8"
   inkscape:window-maximized="1"
   inkscape:current-layer="g2517" />
    <g
   transform="translate(-0.1,-0.1)"
   id="g47">
        <g
   id="g2517"
   transform="matrix(0.4,0,0,0.4,0.1,0.1)">
            <g
   id="g17">
                <g
   id="path997"
   transform="matrix(2.5,0,0,2.5,11.1408,8.8352)">
                    <path
   d="M 355.544,0.1 -2.326,354.336 c 121.999,0.793 246.116,0.796 364.024,5.958 C 357.144,240.13 356.437,120.056 355.544,0.1 Z"
   style="fill:#c4b8b8;fill-rule:nonzero"
   id="path2" />
                </g>
                <g
   id="path9971"
   serif:id="path997"
   transform="matrix(2.5,0,0,2.5,-0.25,-0.25)">
                    <path
   d="m 0.1,0.1 v 360 l 360.356,-0.345 C 358.447,241.523 359.93,120.237 360.1,0.1 Z"
   style="fill-rule:nonzero"
   id="path5" />
                </g>
                <g
   id="path719"
   transform="matrix(2.5,0,0,2.5,-0.25,-0.25)">
                    <path
   d="m 64.431,2.23 c 3.029,14.639 11.256,28.583 18.742,41.326 12.772,21.744 27.206,42.505 41.189,63.479 16.918,25.379 33.277,51.482 46.02,79.243 5.462,11.894 8.223,24.748 13.339,36.639 h 0.426 c 0,-15.947 2.603,-32.277 4.188,-48.142 3.225,-32.247 6.945,-64.562 18.737,-95.006 7.494,-19.347 17.63,-37.598 27.48,-55.811 3.877,-7.17 8.661,-14.2 11.797,-21.728 H 64.431 M 191.39,357.97 H 357.97 V 2.23 h -80.947 c -1.849,0 -4.972,-0.592 -6.595,0.439 -1.862,1.18 -3.14,4.154 -4.341,5.952 -3.238,4.857 -6.318,9.837 -9.207,14.911 -11.328,19.913 -20.053,40.916 -27.287,62.627 -29.026,87.078 -31.063,181.329 -38.203,271.811 z"
   style="fill:#ffffff;fill-rule:nonzero"
   id="path8" />
                </g>
                <g
   id="path715"
   transform="matrix(2.5,0,0,2.5,-0.25,-0.25)">
                    <path
   d="m 2.23,2.23 v 355.74 h 156.355 c 2.122,0 8.798,1.09 10.212,-0.682 0.801,-1.001 0.699,-3.199 0.865,-4.431 0.545,-3.97 0.95,-7.945 1.351,-11.929 1.482,-14.834 1.631,-29.451 1.631,-44.307 C 172.64,253.165 158.53,211.299 136.24,174.349 116.753,142.038 91.195,113.864 72.462,81.047 63.217,64.853 56.136,47.556 51.493,29.496 49.946,23.477 48.664,17.337 47.816,11.177 47.526,9.051 47.812,4.612 46.461,2.912 44.991,1.063 37.693,2.23 35.461,2.23 Z"
   style="fill:#ffffff;fill-rule:nonzero"
   id="path11" />
                </g>
                <g
   id="path717"
   transform="matrix(2.5,0,0,2.5,-0.25,-0.25)">
                    <path
   d="m 48.668,2.23 c 1.368,7.366 2.007,14.826 3.685,22.154 4.197,18.303 10.945,35.889 19.879,52.402 20.407,37.73 50.605,69.078 71.502,106.509 22.188,39.749 32.157,83.354 31.049,128.663 -0.371,15.048 -0.294,31.284 -3.843,46.012 h 18.32 c 3.08,-24.357 2.854,-49.237 5.185,-73.704 5.666,-59.483 11.162,-119.299 26.831,-177.231 6.646,-24.57 15.197,-48.922 26.887,-71.574 3.664,-7.102 7.601,-14.102 11.84,-20.876 2.484,-3.97 5.99,-7.979 7.647,-12.355 h -13.207 c -1.576,0 -3.979,-0.434 -5.376,0.439 -2.919,1.823 -5.028,8.082 -6.651,11.064 -4.861,8.938 -9.573,17.983 -14.566,26.84 -12.168,21.588 -22.26,44.858 -27.99,69.018 -4.849,20.467 -6.711,41.381 -9.199,62.201 -1.917,16.002 -3.804,32.468 -4.388,48.568 -0.145,4.009 -0.771,7.912 -0.724,11.929 0.013,0.972 -0.222,2.893 -1.453,3.14 -1.367,0.273 -1.052,-2.023 -0.98,-2.714 0.388,-3.872 -1.261,-8.197 -2.219,-11.929 C 176.794,204.84 170.088,189.464 162.739,174.775 139.963,129.219 107.342,89.78 82.206,45.686 76.642,35.93 71.065,26.288 66.817,15.863 65.569,12.787 64.41,9.673 63.46,6.491 63.119,5.345 63,3.453 61.99,2.669 59.6,0.807 51.676,2.23 48.668,2.23 Z"
   style="fill:#00a2e8;fill-rule:nonzero"
   id="path14" />
                </g>
            </g>
            
            
            
            
            
        <path
   id="path833-5"
   d="M 774.597,204.146 V 65.349"
   style="clip-rule:evenodd;fill:none;fill-rule:nonzero;stroke:#000000;stroke-width:4.32px" /><g
   id="path835-5"
   transform="matrix(0.906386,0,0,1,73.101987,7.414029)"
   style="clip-rule:evenodd;fill-rule:evenodd"><path
     d="M 705.199,134.747 H 843.995"
     style="fill:none;fill-rule:nonzero;stroke:#000000;stroke-width:4.32px"
     id="path20" /></g><g
   transform="translate(845.6161,156.55157)"
   id="g31"
   style="clip-rule:evenodd;fill-rule:evenodd"><g
     id="text1850-1"><text
       x="0"
       y="0"
       style="font-size:39.48px;font-family:AppleSymbols, 'Apple Symbols'"
       id="text28">E</text></g></g><g
   transform="translate(759.83055,47.7139)"
   id="g38"
   style="clip-rule:evenodd;fill-rule:evenodd"><g
     id="text1758-8"><text
       x="0"
       y="0"
       style="font-size:39.48px;font-family:AppleSymbols, 'Apple Symbols'"
       id="text35">N</text></g></g><g
   transform="translate(761.86432,240.125)"
   id="g43"
   style="clip-rule:evenodd;fill-rule:evenodd"><g
     id="text1772-7"><text
       x="0"
       y="0"
       style="font-size:39.48px;font-family:AppleSymbols, 'Apple Symbols'"
       id="text40">S</text></g></g><path
   id="path2386-0"
   d="m 788.979,86.983 -14.382,-24.59 -14.382,24.59"
   style="clip-rule:evenodd;fill:none;fill-rule:nonzero;stroke:#000000;stroke-width:4.32px" /><text
   x="671.18713"
   y="156.55157"
   style="font-size:39.48px;font-family:AppleSymbols, 'Apple Symbols';clip-rule:evenodd;fill-rule:evenodd"
   id="text23">O</text></g>
    </g>
</svg>
