<?xml version="1.0" encoding="UTF-8" standalone="no"?>
<svg
   width="370"
   height="370"
   viewBox="0 0 370 370"
   version="1.1"
   xml:space="preserve"
   style="clip-rule:evenodd;fill-rule:evenodd"
   id="svg43"
   sodipodi:docname="2023-DE-04-Map_Forest-compatible.svg"
   inkscape:version="1.1.1 (3bf5ae0d25, 2021-09-20)"
   xmlns:inkscape="http://www.inkscape.org/namespaces/inkscape"
   xmlns:sodipodi="http://sodipodi.sourceforge.net/DTD/sodipodi-0.dtd"
   xmlns="http://www.w3.org/2000/svg"
   xmlns:svg="http://www.w3.org/2000/svg"
   xmlns:serif="http://www.serif.com/"><defs
   id="defs47" /><sodipodi:namedview
   id="namedview45"
   pagecolor="#ffffff"
   bordercolor="#666666"
   borderopacity="1.0"
   inkscape:pageshadow="2"
   inkscape:pageopacity="0.0"
   inkscape:pagecheckerboard="0"
   showgrid="false"
   inkscape:zoom="0.98763734"
   inkscape:cx="60.244786"
   inkscape:cy="196.93464"
   inkscape:window-width="2048"
   inkscape:window-height="1017"
   inkscape:window-x="-8"
   inkscape:window-y="-8"
   inkscape:window-maximized="1"
   inkscape:current-layer="g41" />
    <g
   transform="translate(-0.1,-0.1)"
   id="g41">
        
        
        
        
        
        <g
   id="g2517">
        </g>
        
        
        
        
        
    <g
   transform="matrix(0.4,0,0,0.4,268.57484,62.720628)"
   id="g26"
   style="clip-rule:evenodd;fill-rule:evenodd"><g
     id="text1836-6" /></g><g
   id="g838"
   transform="translate(1.922835,3.08596)"><g
     id="path997"
     transform="translate(4.55633,3.63408)">
            <path
   d="M 355.544,0.1 -2.326,354.336 c 121.999,0.793 246.116,0.796 364.024,5.958 C 357.144,240.13 356.437,120.056 355.544,0.1 Z"
   style="fill:#c4b8b8;fill-rule:nonzero"
   id="path2" />
        </g><path
     id="path9971"
     serif:id="path997"
     d="m 0.1,0.1 v 360 l 360.356,-0.345 C 358.447,241.523 359.93,120.237 360.1,0.1 Z"
     style="fill-rule:nonzero" /><path
     id="path4"
     d="m 2.23,2.23 v 109.065 c 15.372,-3.664 32.916,-2.522 48.568,-2.134 34.752,0.848 69.12,5.47 103.527,10.54 49.74,7.328 100.783,17.646 151.242,15.435 11.082,-0.485 22.265,-1.312 33.231,-3.148 6.416,-1.078 12.764,-3.213 19.172,-4.077 V 2.23 Z"
     style="fill:#22b14c;fill-rule:nonzero" /><path
     id="path6"
     d="m 2.23,239.106 c 10.971,-2.995 21.443,-6.135 32.805,-7.545 24.101,-2.999 48.312,-1.398 72.426,0.264 32.443,2.237 64.762,6.633 97.136,9.765 37.449,3.625 75.971,5.721 113.325,-0.043 13.919,-2.151 26.585,-6.859 40.048,-10.536 v -100.97 c -6.723,0.903 -13.28,3.152 -20.024,4.145 -17.212,2.535 -34.577,3.519 -51.976,3.093 -64.894,-1.593 -128.914,-17.05 -193.42,-23.5 -22.371,-2.237 -44.453,-2.492 -66.888,-2.484 -5.662,0.004 -11.405,0.725 -17.041,1.249 -1.453,0.132 -4.976,-0.094 -5.952,1.137 -1.342,1.7 -0.439,6.604 -0.439,8.691 z"
     style="fill:#ffffff;fill-rule:nonzero" /><path
     id="path8"
     d="M 2.23,357.97 H 357.97 V 233.141 c -6.318,1.726 -12.385,4.342 -18.746,6.016 -14.728,3.873 -29.984,6.114 -45.159,7.153 -66.283,4.542 -131.688,-10.297 -197.681,-13.186 -23.849,-1.043 -47.916,-2.5 -71.574,2.062 -5.594,1.083 -11.2,2.263 -16.615,4.061 -1.547,0.515 -4.499,0.92 -5.526,2.287 -1.278,1.704 -0.439,6.169 -0.439,8.223 z"
     style="fill:#22b14c;fill-rule:nonzero" /><path
     id="path833-5"
     style="color:#000000;clip-rule:evenodd;fill:#000000;fill-rule:nonzero;-inkscape-stroke:none"
     d="m 307.50685,10.758582 v 11.513672 h 1.51172 v -9.63086 l 5.10352,9.63086 h 2.09765 V 10.758582 h -1.51172 v 9.630859 l -5.10351,-9.630859 z m 4.35742,15.673828 -6.5,11.111328 1.49219,0.873047 4.14258,-7.082031 v 27.851562 h -24.06055 v 1.728516 h 24.06055 v 23.929687 h 1.72851 V 60.914832 h 24.53126 V 59.186316 H 312.72755 V 31.3328 l 4.14258,7.083985 1.49219,-0.873047 z M 276.7217,54.086707 c -1.6193,0 -2.91515,0.542281 -3.88672,1.626953 -0.96644,1.079531 -1.44922,2.529828 -1.44922,4.349609 0,1.819781 0.48278,3.268125 1.44922,4.347656 0.97157,1.079532 2.26742,1.619141 3.88672,1.619141 1.61415,0 2.90465,-0.539609 3.87109,-1.619141 0.96644,-1.084671 1.44922,-2.533015 1.44922,-4.347656 0,-1.819781 -0.48278,-3.270078 -1.44922,-4.349609 -0.96644,-1.084672 -2.25694,-1.626953 -3.87109,-1.626953 z m 65.09961,0.207031 V 65.80741 h 7.41796 v -1.310547 h -5.86132 v -4.171875 h 5.48242 v -1.310547 h -5.48242 v -3.408203 h 5.72265 v -1.3125 z m -65.09961,1.05664 c 1.13093,10e-7 2.02559,0.422563 2.68359,1.265626 0.66314,0.843062 0.99414,1.992468 0.99414,3.447265 0,1.449656 -0.331,2.594438 -0.99414,3.4375 -0.658,0.843063 -1.55266,1.265625 -2.68359,1.265625 -1.13094,0 -2.03094,-0.422562 -2.69922,-1.265625 -0.66314,-0.843062 -0.99414,-1.987844 -0.99414,-3.4375 0,-1.454797 0.331,-2.604203 0.99414,-3.447265 0.66828,-0.843063 1.56828,-1.265626 2.69922,-1.265626 z m 35.13085,32.166016 c -1.25945,0 -2.24906,0.292875 -2.96874,0.878906 -0.71455,0.586032 -1.07227,1.386454 -1.07227,2.404297 0,0.879048 0.2601,1.567047 0.7793,2.060547 0.5192,0.4935 1.3597,0.85461 2.52148,1.085938 l 0.94727,0.185546 c 0.79166,0.159359 1.36065,0.398078 1.70507,0.716797 0.34956,0.318719 0.52344,0.760704 0.52344,1.326172 0,0.647719 -0.24139,1.146531 -0.72461,1.496094 -0.48322,0.349562 -1.16926,0.525391 -2.05859,0.525391 -0.58603,0 -1.18247,-0.09156 -1.78906,-0.271485 -0.6066,-0.179922 -1.22708,-0.446078 -1.85938,-0.800781 v 1.603516 c 0.658,0.241609 1.29452,0.423499 1.90625,0.546875 0.61688,0.123374 1.19728,0.185547 1.74219,0.185547 1.44451,-10e-7 2.53977,-0.287532 3.28515,-0.863282 0.75054,-0.57575 1.125,-1.421594 1.125,-2.537109 10e-6,-0.935594 -0.27684,-1.681141 -0.83203,-2.236328 -0.55004,-0.560328 -1.40658,-0.950829 -2.56836,-1.171875 l -0.9414,-0.19336 c -0.85334,-0.159359 -1.43375,-0.366015 -1.74219,-0.623046 -0.30329,-0.262172 -0.45508,-0.649282 -0.45508,-1.158204 0,-0.606594 0.22999,-1.073343 0.6875,-1.402343 0.46266,-0.329 1.11664,-0.494141 1.96485,-0.494141 0.48836,0 0.99519,0.07019 1.51953,0.208984 0.52434,0.138798 1.08265,0.348126 1.67383,0.63086 v -1.517578 c -0.58604,-0.195344 -1.16038,-0.341781 -1.72071,-0.439454 -0.56032,-0.09767 -1.10867,-0.146484 -1.64844,-0.146484 z" /></g></g>
</svg>
