<?xml version="1.0" encoding="UTF-8" standalone="no"?>
<svg
   style="clip-rule:evenodd;fill-rule:evenodd"
   version="1.1"
   viewBox="0 0 370 370"
   xml:space="preserve"
   id="svg62"
   sodipodi:docname="2023-DE-04-Map_Rivers-compatible.svg"
   width="370"
   height="370"
   inkscape:version="1.1.1 (3bf5ae0d25, 2021-09-20)"
   xmlns:inkscape="http://www.inkscape.org/namespaces/inkscape"
   xmlns:sodipodi="http://sodipodi.sourceforge.net/DTD/sodipodi-0.dtd"
   xmlns="http://www.w3.org/2000/svg"
   xmlns:svg="http://www.w3.org/2000/svg"
   xmlns:serif="http://www.serif.com/"><defs
   id="defs66" /><sodipodi:namedview
   id="namedview64"
   pagecolor="#ffffff"
   bordercolor="#666666"
   borderopacity="1.0"
   inkscape:pageshadow="2"
   inkscape:pageopacity="0.0"
   inkscape:pagecheckerboard="0"
   showgrid="false"
   inkscape:zoom="1.9752747"
   inkscape:cx="158.20584"
   inkscape:cy="182"
   inkscape:window-width="2048"
   inkscape:window-height="1017"
   inkscape:window-x="-8"
   inkscape:window-y="-8"
   inkscape:window-maximized="1"
   inkscape:current-layer="g58" />
    <g
   transform="translate(1.8268,2.98646)"
   id="g60">
        <g
   transform="matrix(0.4,0,0,0.4,0.1,0.1)"
   id="g58">
            <g
   id="g22">
                <g
   transform="matrix(2.5,0,0,2.5,11.141,8.8352)"
   id="g4">
                    <path
   d="M 355.54,0.1 -2.33,354.34 c 122,0.793 246.12,0.796 364.02,5.958 -4.554,-120.16 -5.261,-240.24 -6.154,-360.19 z"
   style="fill:#c4b8b8;fill-rule:nonzero"
   id="path2" />
                </g>
                <g
   transform="matrix(2.5,0,0,2.5,-0.25,-0.25)"
   serif:id="path997"
   id="g8">
                    <path
   d="m 0.1,0.1 v 360 l 360.36,-0.345 c -2.009,-118.23 -0.526,-239.52 -0.356,-359.66 z"
   style="fill-rule:nonzero"
   id="path6" />
                </g>
                <g
   transform="matrix(2.5,0,0,2.5,-0.25,-0.25)"
   id="g12">
                    <path
   d="m 64.431,2.23 c 3.029,14.639 11.256,28.583 18.742,41.326 12.772,21.744 27.206,42.505 41.189,63.479 16.918,25.379 33.277,51.482 46.02,79.243 5.462,11.894 8.223,24.748 13.339,36.639 h 0.426 c 0,-15.947 2.603,-32.277 4.188,-48.142 3.225,-32.247 6.945,-64.562 18.737,-95.006 7.494,-19.347 17.63,-37.598 27.48,-55.811 3.877,-7.17 8.661,-14.2 11.797,-21.728 H 64.429 m 126.96,355.74 h 166.58 V 2.23 h -80.947 c -1.849,0 -4.972,-0.592 -6.595,0.439 -1.862,1.18 -3.14,4.154 -4.341,5.952 -3.238,4.857 -6.318,9.837 -9.207,14.911 -11.328,19.913 -20.053,40.916 -27.287,62.627 -29.026,87.078 -31.063,181.33 -38.203,271.81 z"
   style="fill:#ffffff;fill-rule:nonzero"
   id="path10" />
                </g>
                <g
   transform="matrix(2.5,0,0,2.5,-0.25,-0.25)"
   id="g16">
                    <path
   d="m 2.23,2.23 v 355.74 h 156.36 c 2.122,0 8.798,1.09 10.212,-0.682 0.801,-1.001 0.699,-3.199 0.865,-4.431 0.545,-3.97 0.95,-7.945 1.351,-11.929 1.482,-14.834 1.631,-29.451 1.631,-44.307 -0.004,-43.456 -14.114,-85.322 -36.404,-122.27 C 116.758,142.04 91.2,113.866 72.467,81.049 63.222,64.855 56.141,47.558 51.498,29.498 49.951,23.479 48.669,17.339 47.821,11.179 47.531,9.053 47.817,4.614 46.466,2.914 44.996,1.065 37.698,2.232 35.466,2.232 Z"
   style="fill:#ffffff;fill-rule:nonzero"
   id="path14" />
                </g>
                <g
   transform="matrix(2.5,0,0,2.5,-0.25,-0.25)"
   id="g20">
                    <path
   d="m 48.668,2.23 c 1.368,7.366 2.007,14.826 3.685,22.154 4.197,18.303 10.945,35.889 19.879,52.402 20.407,37.73 50.605,69.078 71.502,106.51 22.188,39.749 32.157,83.354 31.049,128.66 -0.371,15.048 -0.294,31.284 -3.843,46.012 h 18.32 c 3.08,-24.357 2.854,-49.237 5.185,-73.704 5.666,-59.483 11.162,-119.3 26.831,-177.23 6.646,-24.57 15.197,-48.922 26.887,-71.574 3.664,-7.102 7.601,-14.102 11.84,-20.876 2.484,-3.97 5.99,-7.979 7.647,-12.355 h -13.207 c -1.576,0 -3.979,-0.434 -5.376,0.439 -2.919,1.823 -5.028,8.082 -6.651,11.064 -4.861,8.938 -9.573,17.983 -14.566,26.84 -12.168,21.588 -22.26,44.858 -27.99,69.018 -4.849,20.467 -6.711,41.381 -9.199,62.201 -1.917,16.002 -3.804,32.468 -4.388,48.568 -0.145,4.009 -0.771,7.912 -0.724,11.929 0.013,0.972 -0.222,2.893 -1.453,3.14 -1.367,0.273 -1.052,-2.023 -0.98,-2.714 0.388,-3.872 -1.261,-8.197 -2.219,-11.929 -4.103,-15.946 -10.809,-31.322 -18.158,-46.011 C 139.963,129.218 107.342,89.779 82.206,45.684 76.642,35.928 71.065,26.286 66.817,15.861 65.569,12.785 64.41,9.671 63.46,6.489 63.119,5.343 63,3.451 61.99,2.667 59.6,0.805 51.676,2.228 48.668,2.228 Z"
   style="fill:#00a2e8;fill-rule:nonzero"
   id="path18" />
                </g>
            </g>
            
            <g
   transform="translate(676.19,151.49)"
   id="g26">
                    <g
   id="g24">
                        
                    </g>
                </g><g
   transform="translate(845.62,151.49)"
   id="g30">
                    <g
   id="g28">
                        
                    </g>
                </g>
            <g
   transform="translate(764.68,47.714)"
   id="g34">
                <g
   id="g32">
                    
                </g>
            </g>
            <g
   transform="translate(765.89,235.12)"
   id="g38">
                <g
   id="g36">
                    
                </g>
            </g>
            
        <g
   transform="translate(671.19,156.55)"
   id="g44"><g
     id="g42" /></g><g
   transform="translate(845.62,156.55)"
   id="g48"><g
     id="g46" /></g><g
   transform="translate(759.83,47.714)"
   id="g52"><g
     id="g50" /></g><g
   transform="translate(761.86,240.12)"
   id="g56"><g
     id="g54" /></g><path
   id="path833-5"
   style="color:#000000;clip-rule:evenodd;fill:#000000;fill-rule:nonzero;stroke-width:2.5;-inkscape-stroke:none"
   d="m 763.70012,18.930305 v 28.78418 h 3.7793 v -24.07715 l 12.75881,24.07715 h 5.24412 v -28.78418 h -3.7793 V 43.007452 L 768.94427,18.930305 Z m 10.89355,39.18457 -16.25,27.77832 3.73048,2.182618 10.35645,-17.705078 v 69.628905 h -60.15138 v 4.32129 h 60.15138 v 59.82422 h 4.32128 v -59.82422 h 61.32814 v -4.32129 H 776.75188 V 70.36585 l 10.35645,17.709962 3.73047,-2.182617 z m -87.85642,69.135745 c -4.04825,0 -7.28787,1.3557 -9.7168,4.06738 -2.4161,2.69883 -3.62305,6.32457 -3.62305,10.87402 0,4.54945 1.20695,8.17032 3.62305,10.86914 2.42892,2.69883 5.66855,4.04786 9.7168,4.04786 4.03538,0 7.26162,-1.34903 9.67772,-4.04786 2.4161,-2.71167 3.62306,-6.33253 3.62306,-10.86914 0,-4.54945 -1.20695,-8.17519 -3.62306,-10.87402 -2.4161,-2.71168 -5.64234,-4.06738 -9.67772,-4.06738 z m 162.74902,0.51758 v 28.78417 h 18.5449 v -3.27636 h -14.65329 v -10.42969 h 13.70605 v -3.27637 h -13.70605 v -8.52051 h 14.30662 v -3.28125 z m -162.74902,2.6416 c 2.82732,0 5.06398,1.0564 6.70897,3.16406 1.65785,2.10766 2.48536,4.98117 2.48536,8.61816 0,3.62414 -0.82751,6.4861 -2.48536,8.59375 -1.645,2.10766 -3.88165,3.16406 -6.70897,3.16406 -2.82735,0 -5.07735,-1.0564 -6.74805,-3.16406 -1.65785,-2.10765 -2.48535,-4.96961 -2.48535,-8.59375 0,-3.63699 0.8275,-6.5105 2.48535,-8.61816 1.6707,-2.10766 3.9207,-3.16406 6.74805,-3.16406 z m 87.82713,80.41503 c -3.14863,0 -5.62265,0.73219 -7.42186,2.19727 -1.78637,1.46508 -2.68067,3.46614 -2.68067,6.01074 0,2.19762 0.65025,3.91762 1.94825,5.15137 1.298,1.23375 3.39925,2.13653 6.3037,2.71485 l 2.36817,0.46386 c 1.97915,0.3984 3.40163,0.9952 4.26268,1.79199 0.8739,0.7968 1.3086,1.90176 1.3086,3.31543 0,1.6193 -0.60348,2.86633 -1.81153,3.74024 -1.20805,0.8739 -2.92315,1.31348 -5.14647,1.31348 -1.46508,0 -2.95618,-0.2289 -4.47265,-0.67872 -1.5165,-0.4498 -3.0677,-1.11519 -4.64845,-2.00195 v 4.00879 c 1.645,0.60402 3.2363,1.05875 4.76562,1.36719 1.5422,0.30843 2.9932,0.46387 4.35548,0.46387 3.61127,-1e-5 6.34942,-0.71883 8.21287,-2.15821 1.87635,-1.43937 2.8125,-3.55398 2.8125,-6.34277 3e-5,-2.33899 -0.6921,-4.20285 -2.08007,-5.59082 -1.3751,-1.40082 -3.51645,-2.37707 -6.4209,-2.92969 l -2.3535,-0.4834 c -2.13335,-0.3984 -3.58437,-0.91504 -4.35548,-1.55761 -0.75822,-0.65544 -1.1377,-1.62321 -1.1377,-2.89551 0,-1.51649 0.57498,-2.68336 1.71875,-3.50586 1.15666,-0.8225 2.79161,-1.23535 4.91213,-1.23535 1.2209,0 2.48798,0.17547 3.79883,0.52246 1.31084,0.34699 2.70662,0.87031 4.18457,1.57714 v -3.79394 c -1.4651,-0.48836 -2.90095,-0.85445 -4.30178,-1.09863 -1.40079,-0.24418 -2.77167,-0.36622 -4.12109,-0.36622 z" /></g>
    </g>
</svg>
