<?xml version="1.0" encoding="UTF-8" standalone="no"?>
<svg
   width="100%"
   height="100%"
   viewBox="0 0 367 364"
   version="1.1"
   xml:space="preserve"
   style="fill-rule:evenodd;clip-rule:evenodd;"
   id="svg43"
   sodipodi:docname="2023-DE-04-Map_Forest.svg"
   inkscape:version="1.1.1 (3bf5ae0d25, 2021-09-20)"
   xmlns:inkscape="http://www.inkscape.org/namespaces/inkscape"
   xmlns:sodipodi="http://sodipodi.sourceforge.net/DTD/sodipodi-0.dtd"
   xmlns="http://www.w3.org/2000/svg"
   xmlns:svg="http://www.w3.org/2000/svg"
   xmlns:serif="http://www.serif.com/"><defs
   id="defs47" /><sodipodi:namedview
   id="namedview45"
   pagecolor="#ffffff"
   bordercolor="#666666"
   borderopacity="1.0"
   inkscape:pageshadow="2"
   inkscape:pageopacity="0.0"
   inkscape:pagecheckerboard="0"
   showgrid="false"
   inkscape:zoom="1.9752747"
   inkscape:cx="183.51878"
   inkscape:cy="180.48122"
   inkscape:window-width="2048"
   inkscape:window-height="1017"
   inkscape:window-x="-8"
   inkscape:window-y="-8"
   inkscape:window-maximized="1"
   inkscape:current-layer="g41" />
    <g
   transform="translate(-0.1,-0.1)"
   id="g41">
        <g
   id="path997"
   transform="translate(4.55633,3.63408)">
            <path
   d="M 355.544,0.1 -2.326,354.336 c 121.999,0.793 246.116,0.796 364.024,5.958 C 357.144,240.13 356.437,120.056 355.544,0.1 Z"
   style="fill:#c4b8b8;fill-rule:nonzero"
   id="path2" />
        </g>
        <path
   id="path9971"
   serif:id="path997"
   d="m 0.1,0.1 v 360 l 360.356,-0.345 C 358.447,241.523 359.93,120.237 360.1,0.1 Z"
   style="fill-rule:nonzero" />
        <path
   id="path4"
   d="m 2.23,2.23 v 109.065 c 15.372,-3.664 32.916,-2.522 48.568,-2.134 34.752,0.848 69.12,5.47 103.527,10.54 49.74,7.328 100.783,17.646 151.242,15.435 11.082,-0.485 22.265,-1.312 33.231,-3.148 6.416,-1.078 12.764,-3.213 19.172,-4.077 V 2.23 Z"
   style="fill:#22b14c;fill-rule:nonzero" />
        <path
   id="path6"
   d="m 2.23,239.106 c 10.971,-2.995 21.443,-6.135 32.805,-7.545 24.101,-2.999 48.312,-1.398 72.426,0.264 32.443,2.237 64.762,6.633 97.136,9.765 37.449,3.625 75.971,5.721 113.325,-0.043 13.919,-2.151 26.585,-6.859 40.048,-10.536 v -100.97 c -6.723,0.903 -13.28,3.152 -20.024,4.145 -17.212,2.535 -34.577,3.519 -51.976,3.093 -64.894,-1.593 -128.914,-17.05 -193.42,-23.5 -22.371,-2.237 -44.453,-2.492 -66.888,-2.484 -5.662,0.004 -11.405,0.725 -17.041,1.249 -1.453,0.132 -4.976,-0.094 -5.952,1.137 -1.342,1.7 -0.439,6.604 -0.439,8.691 z"
   style="fill:#ffffff;fill-rule:nonzero" />
        <path
   id="path8"
   d="M 2.23,357.97 H 357.97 V 233.141 c -6.318,1.726 -12.385,4.342 -18.746,6.016 -14.728,3.873 -29.984,6.114 -45.159,7.153 -66.283,4.542 -131.688,-10.297 -197.681,-13.186 -23.849,-1.043 -47.916,-2.5 -71.574,2.062 -5.594,1.083 -11.2,2.263 -16.615,4.061 -1.547,0.515 -4.499,0.92 -5.526,2.287 -1.278,1.704 -0.439,6.169 -0.439,8.223 z"
   style="fill:#22b14c;fill-rule:nonzero" />
        <g
   id="g2517">
        </g>
        
        
        
        
        
    <path
   id="path833-5"
   d="M 309.9388,81.7584 V 26.2396"
   style="clip-rule:evenodd;fill:none;fill-rule:nonzero;stroke:#000000;stroke-width:1.728px" /><g
   id="path835-5"
   transform="matrix(0.3625544,0,0,0.4,29.340795,3.0656118)"
   style="clip-rule:evenodd;fill-rule:evenodd"><path
     d="M 705.199,134.747 H 843.995"
     style="fill:none;fill-rule:nonzero;stroke:#000000;stroke-width:4.32px"
     id="path20" /></g><g
   transform="matrix(0.4,0,0,0.4,268.57484,62.720628)"
   id="g26"
   style="clip-rule:evenodd;fill-rule:evenodd"><g
     id="text1836-6"><text
       x="0"
       y="0"
       style="font-size:39.48px;font-family:AppleSymbols, 'Apple Symbols'"
       id="text23">W</text></g></g><g
   transform="matrix(0.4,0,0,0.4,338.34644,62.720628)"
   id="g31"
   style="clip-rule:evenodd;fill-rule:evenodd"><g
     id="text1850-1"><text
       x="0"
       y="0"
       style="font-size:39.48px;font-family:AppleSymbols, 'Apple Symbols'"
       id="text28">E</text></g></g><g
   transform="matrix(0.4,0,0,0.4,304.03222,19.18556)"
   id="g38"
   style="clip-rule:evenodd;fill-rule:evenodd"><g
     id="text1758-8"><text
       x="0"
       y="0"
       style="font-size:39.48px;font-family:AppleSymbols, 'Apple Symbols'"
       id="text35">N</text></g></g><g
   transform="matrix(0.4,0,0,0.4,304.84573,96.15)"
   id="g43"
   style="clip-rule:evenodd;fill-rule:evenodd"><g
     id="text1772-7"><text
       x="0"
       y="0"
       style="font-size:39.48px;font-family:AppleSymbols, 'Apple Symbols'"
       id="text40">S</text></g></g><path
   id="path2386-0"
   d="m 315.6916,34.8932 -5.7528,-9.836 -5.7528,9.836"
   style="clip-rule:evenodd;fill:none;fill-rule:nonzero;stroke:#000000;stroke-width:1.728px" /></g>
</svg>
