<?xml version="1.0" encoding="UTF-8" standalone="no"?>
<svg
   width="1206"
   height="1206"
   version="1.1"
   viewBox="100 100 1206.0001 1206.0001"
   id="svg110"
   sodipodi:docname="2023-SK-07-example1.svg"
   inkscape:version="1.1.1 (3bf5ae0d25, 2021-09-20)"
   xmlns:inkscape="http://www.inkscape.org/namespaces/inkscape"
   xmlns:sodipodi="http://sodipodi.sourceforge.net/DTD/sodipodi-0.dtd"
   xmlns="http://www.w3.org/2000/svg"
   xmlns:svg="http://www.w3.org/2000/svg">
  <defs
     id="defs114" />
  <sodipodi:namedview
     id="namedview112"
     pagecolor="#ffffff"
     bordercolor="#666666"
     borderopacity="1.0"
     inkscape:pageshadow="2"
     inkscape:pageopacity="0.0"
     inkscape:pagecheckerboard="0"
     showgrid="false"
     inkscape:zoom="0.30091238"
     inkscape:cx="802.55922"
     inkscape:cy="629.75143"
     inkscape:window-width="2048"
     inkscape:window-height="1017"
     inkscape:window-x="-8"
     inkscape:window-y="-8"
     inkscape:window-maximized="1"
     inkscape:current-layer="svg110" />
  <rect
     x="100"
     y="100"
     width="1206"
     height="1206"
     style="stroke-width:3.98334"
     id="rect14" />
  <g
     transform="matrix(3.9824,0,0,3.9824,504.25941,-691.52428)"
     id="g6">
    <rect
       x="101.32"
       y="201.32001"
       width="97.359001"
       height="97.359001"
       style="fill:#d7dde8"
       id="rect4" />
  </g>
  <g
     transform="matrix(3.9824,0,0,3.9824,-292.22059,-293.28428)"
     id="g12">
    <rect
       x="101.32"
       y="201.32001"
       width="97.359001"
       height="97.359001"
       style="fill:#ffffff"
       id="rect10" />
  </g>
  <rect
     x="111.2794"
     y="110.21572"
     width="387.72"
     height="387.72"
     style="fill:#ffffff;stroke-width:3.9824"
     id="rect16" />
  <path
     d="m 305.13941,580.05572 42.905,76.119 85.65,17.284 -59.135,64.326 10.031,86.798 -79.451,-36.364 -79.451,36.364 10.031,-86.798 -59.135,-64.326 85.65,-17.284 z"
     style="font-variation-settings:normal;fill:#ffcc00;stroke:#2b0000;stroke-width:10;stroke-linecap:round;stroke-linejoin:round;stroke-miterlimit:2;-inkscape-stroke:none;stop-color:#000000"
     id="path18" />
  <g
     transform="matrix(3.9824,0,0,3.9824,106.01941,-691.52428)"
     id="g24">
    <rect
       x="101.32"
       y="201.32001"
       width="97.359001"
       height="97.359001"
       style="fill:#ffffff"
       id="rect22" />
  </g>
  <g
     transform="matrix(3.9824,0,0,3.9824,106.01941,-293.28428)"
     id="g30">
    <rect
       x="101.32"
       y="201.32001"
       width="97.359001"
       height="97.359001"
       style="fill:#ffffff"
       id="rect28" />
  </g>
  <g
     transform="matrix(3.9824,0,0,3.9824,504.25941,-293.28428)"
     id="g36">
    <rect
       x="101.32"
       y="201.32001"
       width="97.359001"
       height="97.359001"
       style="fill:#d7dde8"
       id="rect34" />
  </g>
  <g
     transform="matrix(3.9824,0,0,3.9824,-292.22059,104.95572)"
     id="g42">
    <rect
       x="101.32"
       y="201.32001"
       width="97.359001"
       height="97.359001"
       style="fill:#ffffff"
       id="rect40" />
  </g>
  <g
     transform="matrix(3.9824,0,0,3.9824,106.01941,104.95572)"
     id="g48">
    <rect
       x="101.32"
       y="201.32001"
       width="97.359001"
       height="97.359001"
       style="fill:#ffffff"
       id="rect46" />
  </g>
  <g
     transform="matrix(3.9824,0,0,3.9824,504.25941,104.95572)"
     id="g54">
    <rect
       x="101.32"
       y="201.32001"
       width="97.359001"
       height="97.359001"
       style="fill:#d7dde8"
       id="rect52" />
  </g>
  <g
     transform="matrix(0.79009,0,0,0.79009,358.20941,500.96572)"
     style="clip-rule:evenodd;fill-rule:evenodd;stroke-linejoin:round;stroke-miterlimit:2"
     id="g68">
    <g
       transform="matrix(16.34,0,0,16.34,-285.96,6.5878)"
       id="g58">
      <path
         d="m 74.304,5.397 c -2.074,2.919 -0.82,6.759 -1.554,9.578 -1.18,0.726 -2.126,-3.692 -1.813,-4.488 0,0 -1.68,4.194 -1.082,5.701 0.262,0.667 0.814,2.945 0.814,2.945 -1.174,-0.82 -1.236,-2.438 -1.772,-3.789 -0.971,5.087 1.991,10.337 7.188,9.57 8.805,-2.581 4.526,-14.717 2.847,-14.821 0,0 -0.653,2.548 -0.812,2.101 C 78.029,8.827 76.851,7.259 74.304,5.397 Z"
         style="fill:#ff0000;fill-rule:nonzero"
         id="path56" />
    </g>
    <g
       transform="matrix(16.34,0,0,16.34,-285.96,6.5878)"
       id="g62">
      <path
         d="m 76.085,24.914 c 2.071,-0.256 2.477,-1.467 3.573,-3.081 0.329,-0.485 0.568,-1.02 0.869,-1.52 0.061,-0.101 0.306,-0.27 0.191,-0.298 -0.464,-0.114 -2.486,0.968 -2.556,0.614 -0.191,-0.974 1.867,-2.985 0.592,-5.932 -0.178,-0.411 -1.584,-2.961 -1.669,-2.919 -0.015,0.007 -0.026,2.341 -0.313,2.765 -0.051,0.075 -1.723,-3.531 -2.035,-2.919 -0.387,0.761 0.899,2.348 0.696,3.346 -0.177,0.866 -1.037,0.95 -1.687,0.632 -0.326,-0.161 -0.745,-1.242 -0.608,-0.905 0.154,0.379 -0.261,2.377 -0.261,3.064 0,0.602 -0.008,1.183 0.209,1.75 0.042,0.111 0.315,0.343 0.208,0.29 -0.84,-0.412 -1.686,-1.782 -1.686,-2.236 v 1.067 c 0,0.831 0.201,1.572 0.487,2.356 0.732,2.014 1.844,3.598 3.99,3.926 z"
         style="fill:#ff8e11;fill-rule:nonzero"
         id="path60" />
    </g>
    <g
       transform="matrix(16.34,0,0,16.34,-285.96,6.5878)"
       id="g66">
      <path
         d="m 76.085,24.914 c 2.155,-2.128 1.537,-5.37 -0.84,-7.059 0,0 -1.402,4.443 -1.194,4.859 0.241,0.482 -0.043,1.596 2.034,2.2 z"
         style="fill:#ffcc00;fill-rule:nonzero"
         id="path64" />
    </g>
  </g>
  <g
     transform="matrix(0.2605,-0.32631,0.32631,0.2605,711.95941,1220.7557)"
     style="clip-rule:evenodd;fill:#000080;fill-rule:evenodd;stroke-linejoin:round;stroke-miterlimit:2"
     id="g72">
    <path
       d="m 886.8,393.6 -64.241,108.64 c -11.078,12.999 -23.361,11.957 -36.876,-3.458 l -68.675,-100.16 9.17,-101.4 c 0.545,-6.033 -3.91,-11.374 -9.943,-11.919 -6.033,-0.546 -11.374,3.909 -11.919,9.942 l -5.332,58.963 c -1.99,9.597 -5.699,10.229 -11.128,1.898 l -43.428,-63.34 c -3.426,-4.996 -10.263,-6.271 -15.259,-2.845 -4.996,3.425 -6.271,10.262 -2.846,15.259 l 42.383,61.813 c 4.4,6.985 4.044,11.16 -6.774,9.156 l -55.687,-18.806 c -5.739,-1.939 -11.972,1.147 -13.91,6.887 -1.939,5.739 1.147,11.972 6.886,13.91 l 100.37,33.896 67.562,98.537 c 9,17.388 5.731,27.409 -10.394,29.71 l -124.99,3.947 -80.916,-63.053 c -4.779,-3.723 -11.681,-2.867 -15.404,1.912 -3.723,4.778 -2.745,11.529 1.911,15.403 15.453,12.857 28.958,27.45 45.807,36.872 16.783,9.385 6.38,10.715 -2.408,10.477 l -77.65,2.451 c -6.054,0.192 -10.815,5.262 -10.624,11.317 0.192,6.054 5.262,10.815 11.317,10.624 l 78.426,-2.477 c 7.71,-0.128 7.461,3.215 1.766,8.935 l -47.48,37.876 c -4.736,3.777 -5.514,10.689 -1.736,15.424 3.777,4.736 10.689,5.513 15.424,1.736 l 82.178,-65.554 124.65,-3.936 c 17.634,-1.137 26.016,4.646 15.559,24.517 l -64.039,108.3 -96.444,34.669 c -5.7,2.049 -8.665,8.341 -6.616,14.042 2.049,5.7 8.341,8.665 14.042,6.615 l 55.4,-19.915 c 14.136,-5.643 16.406,-1.98 5.643,11.903 l -37.465,63.361 c -3.083,5.215 -1.353,11.951 3.861,15.034 5.214,3.083 11.951,1.353 15.034,-3.861 l 37.589,-63.572 c 6.568,-12.59 11.311,-12.579 11.433,3.764 l 6.164,56.029 c 0.662,6.021 6.089,10.372 12.11,9.709 6.021,-0.662 10.372,-6.089 9.71,-12.11 l -11.508,-104.59 61.992,-104.84 c 10.073,-13.16 22.121,-16.924 37.92,-2.828 l 69.87,101.9 -9.168,102.07 c -0.542,6.034 3.917,11.372 9.95,11.914 6.033,0.542 11.372,-3.916 11.913,-9.95 l 5.624,-62.613 c 0.392,-9.985 2.961,-11.137 7.708,-3.458 l 46.793,68.246 c 3.426,4.996 10.263,6.271 15.259,2.846 4.996,-3.426 6.271,-10.263 2.846,-15.259 l -45.69,-67.27 c -2.911,-4.675 -1.751,-6.693 5.075,-5.012 l 60.422,20.363 c 5.74,1.935 11.97,-1.155 13.9,-6.895 1.94,-5.74 -1.15,-11.971 -6.89,-13.906 L 915.305,687.83 845.119,585.47 c -4.026,-14.043 -1.675,-24.443 15.294,-26.493 l 122.36,-3.864 80.772,62.455 c 4.8,3.705 11.69,2.822 15.4,-1.97 3.7,-4.792 2.82,-11.691 -1.97,-15.396 l -49.86,-38.547 c -4.64,-5.742 -3.09,-8.541 5.24,-8.108 l 79.07,-2.496 c 6.06,-0.191 10.82,-5.262 10.63,-11.317 -0.2,-6.054 -5.27,-10.815 -11.32,-10.623 l -74.7,2.358 c -6.06,-1.037 -7.07,-4.93 -3.02,-11.678 l 44.37,-35.666 c 4.72,-3.795 5.47,-10.709 1.68,-15.431 -3.8,-4.721 -10.71,-5.473 -15.43,-1.677 l -82.329,66.18 -118.56,3.744 c -19.593,-0.478 -23.942,-12.722 -18.834,-26.755 l 61.783,-105.41 96.535,-34.585 c 5.71,-2.043 8.68,-8.332 6.63,-14.034 -2.04,-5.703 -8.33,-8.674 -14.03,-6.631 l -55.206,19.778 c -12.521,3.906 -14.443,0.457 -7.581,-9.088 l 39.384,-66.608 c 3.083,-5.214 1.353,-11.951 -3.861,-15.034 -5.214,-3.083 -11.951,-1.353 -15.034,3.861 l -39.033,66.015 c -5.691,8.158 -9.547,9.139 -9.916,-3.523 l -6.344,-58.249 c -0.656,-6.022 -6.078,-10.378 -12.1,-9.722 -6.022,0.656 -10.379,6.077 -9.723,12.099 z"
       style="fill:#000080"
       id="path70" />
  </g>
  <path
     d="m 1078.6194,365.59572 c 0,0 95.745,-8.4319 118.08,32.575 15.296,41.291 -34.284,63.226 -68.029,60.984 -36.741,-0.45816 -114.88,-7.3575 -133.77999,-48.699 -16.704,-21.915 49.63399,-23.186 49.63399,-23.186 z"
     style="font-variation-settings:normal;fill:#9ba8bf;-inkscape-stroke:none;stop-color:#000000"
     id="path74" />
  <g
     transform="matrix(7.8788,0,0,7.8788,1606.0194,-1942.9443)"
     id="g98">
    <path
       transform="matrix(0.40915,0,0,0.40915,-98.405,192.84)"
       d="m 71.233,175.87 a 18.679,18.679 0 0 0 -18.679,18.679 18.679,18.679 0 0 0 7.8445,15.198 c -0.28798,0.46678 -0.44548,0.95948 -0.44545,1.4697 l -10.893,41.961 c -2.24e-4,5.7371 9.9339,10.388 22.188,10.388 12.254,0 22.189,-4.6509 22.188,-10.388 l -10.893,-41.961 c 3.2e-5,-0.51846 -0.16184,-1.019 -0.45889,-1.4924 a 18.679,18.679 0 0 0 7.8279,-15.175 18.679,18.679 0 0 0 -18.679,-18.679 z"
       style="fill:#000080;stroke:#000000"
       id="path76" />
    <path
       transform="matrix(0.40915,0,0,0.40915,-98.405,192.84)"
       d="m 50.931,252.08 -0.45291,1.4838 c -2.07e-4,4.5859 9.3416,8.3036 20.865,8.3036 11.524,0 20.866,-3.7177 20.865,-8.3036 l -0.45291,-1.4834 c -1.9947,3.7583 -10.375,6.5794 -20.412,6.5794 -10.038,0 -18.418,-2.8214 -20.412,-6.5798 z"
       style="fill:#ffffff;fill-opacity:0.43087"
       id="path78" />
    <path
       transform="matrix(0.40915,0,0,0.40915,-98.405,192.84)"
       d="m 86.941,252.1 c 2.05e-4,5.3114 -9.1969,9.6173 -20.542,9.6173 -0.07524,0 -0.14933,-0.003 -0.22438,-0.003 1.8011,0.24166 3.7009,0.37413 5.6679,0.37413 11.345,0 20.542,-4.3058 20.542,-9.6173 l -10.085,-38.848 c -6.1309,1.2636 2.5058,30.074 4.6417,38.477 z"
       style="fill:#ffffff;fill-opacity:0.22186"
       id="path80" />
    <g
       transform="matrix(0.13236,0,0,0.13236,7.564,279.84)"
       id="g94">
      <ellipse
         cx="-585.58002"
         cy="-82.713997"
         rx="33.687"
         ry="23.844999"
         style="fill:#ffffff;fill-opacity:0.19614"
         id="ellipse82" />
      <ellipse
         cx="-586.07001"
         cy="-85.199997"
         rx="30.207001"
         ry="21.381001"
         style="fill:#ffffff;fill-opacity:0.20579"
         id="ellipse84" />
      <path
         d="m -522.74,-57.431 a 57.585,54.734 0 0 1 -57.425,51.696 57.585,54.734 0 0 1 -57.425,-50.74 57.585,54.734 0 0 0 -0.16005,3.0383 57.585,54.734 0 0 0 57.586,54.734 57.585,54.734 0 0 0 57.585,-54.734 57.585,54.734 0 0 0 -0.16005,-3.9945 z"
         style="fill:#ffffff;fill-opacity:0.19293"
         id="path86" />
      <path
         d="m -536.66,-49.13 c -14.704,30.286 -44.465,30.695 -37.721,37.447 17.596,5.5661 36.761,-16.944 40.913,-28.518 5.6057,-16.564 2.7266,-21.121 -3.1925,-8.929 z"
         style="color:#000000;font-variant-ligatures:normal;font-variant-position:normal;font-variant-caps:normal;font-variant-numeric:normal;font-variant-alternates:normal;font-feature-settings:normal;text-indent:0;text-decoration-line:none;text-decoration-style:solid;text-decoration-color:#000000;text-transform:none;text-orientation:mixed;dominant-baseline:auto;white-space:normal;shape-padding:0;isolation:auto;mix-blend-mode:normal;solid-color:#000000;fill:#ffffff;fill-opacity:0.26367;color-rendering:auto;image-rendering:auto;shape-rendering:auto"
         id="path88" />
      <circle
         cx="-597.25"
         cy="-94.307999"
         r="7.7417998"
         style="fill:#ffffff;fill-opacity:0.40193"
         id="circle90" />
      <path
         d="m -538.85,-50.837 c -14.704,30.286 -44.465,30.695 -37.721,37.447 17.596,5.5661 36.761,-16.944 40.913,-28.518 5.6057,-16.564 2.7266,-21.121 -3.1925,-8.929 z"
         style="color:#000000;font-variant-ligatures:normal;font-variant-position:normal;font-variant-caps:normal;font-variant-numeric:normal;font-variant-alternates:normal;font-feature-settings:normal;text-indent:0;text-decoration-line:none;text-decoration-style:solid;text-decoration-color:#000000;text-transform:none;text-orientation:mixed;dominant-baseline:auto;white-space:normal;shape-padding:0;isolation:auto;mix-blend-mode:normal;solid-color:#000000;fill:#ffffff;fill-opacity:0.26367;color-rendering:auto;image-rendering:auto;shape-rendering:auto"
         id="path92" />
    </g>
    <path
       transform="matrix(0.40915,0,0,0.40915,-98.405,192.84)"
       d="m 54.018,253.59 c -1.19e-4,3.1668 5.4833,5.7339 12.247,5.7339 0.04484,0 0.08903,-0.002 0.13378,-0.002 -1.0738,0.14408 -2.2065,0.22305 -3.3793,0.22305 -6.7641,0 -12.248,-2.5672 -12.247,-5.7339 l 6.0129,-23.162 c 3.6553,0.75336 -1.494,17.931 -2.7674,22.94 z"
       style="fill:#ffffff;fill-opacity:0.10289"
       id="path96" />
  </g>
  <g
     transform="matrix(3.8913,0,0,3.8913,-1443.8806,-1821.2443)"
     id="g104">
    <path
       transform="matrix(0.25698,0,0,0.25698,100,500)"
       d="m 2259,318.97 a 15.316,15.316 0 0 0 -15.314,15.314 v 69.033 h -10.549 a 15.316,15.316 0 0 0 -12.783,23.744 l 35.834,54.35 a 15.316,15.316 0 0 0 25.568,0 l 35.834,-54.35 a 15.316,15.316 0 0 0 -12.783,-23.744 h -10.557 v -69.033 a 15.316,15.316 0 0 0 -15.314,-15.314 z"
       style="color:#000000;fill:#ffffff;stroke-width:3.8913;stroke-linecap:round;stroke-linejoin:round;stroke-miterlimit:2;-inkscape-stroke:none"
       id="path100" />
    <path
       d="m 685.65,585.91 v 21.675 h 6.648 l -9.209,13.967 -9.209,-13.967 h 6.647 V 585.91 Z"
       style="color:#000000;fill:#000080;stroke-width:7.8708;stroke-linecap:round;stroke-linejoin:round;stroke-miterlimit:2;-inkscape-stroke:none"
       id="path102" />
  </g>
  <path
     d="m 1204.2194,832.51572 a 15.316,15.316 0 0 0 -15.314,15.314 v 69.033 h -10.549 a 15.316,15.316 0 0 0 -12.783,23.744 l 35.834,54.35 a 15.316,15.316 0 0 0 25.568,0 l 35.834,-54.35 a 15.316,15.316 0 0 0 -12.783,-23.744 h -10.557 v -69.033 a 15.316,15.316 0 0 0 -15.314,-15.314 z"
     style="color:#000000;fill:#ffffff;stroke-width:3.8913;stroke-linecap:round;stroke-linejoin:round;stroke-miterlimit:2;-inkscape-stroke:none"
     id="path106" />
  <path
     d="m 1224.2194,847.82572 v 84.345 h 25.87 l -35.835,54.35 -35.835,-54.35 h 25.866 v -84.345 z"
     style="color:#000000;fill:#000080;stroke-width:30.628;stroke-linecap:round;stroke-linejoin:round;stroke-miterlimit:2;-inkscape-stroke:none"
     id="path108" />
</svg>
