<?xml version="1.0" encoding="UTF-8" standalone="no"?>
<svg
   width="1206"
   height="1206"
   version="1.1"
   viewBox="100 100 1206 1206"
   id="svg72"
   sodipodi:docname="2023-SK-07-example3.svg"
   inkscape:version="1.1.1 (3bf5ae0d25, 2021-09-20)"
   xmlns:inkscape="http://www.inkscape.org/namespaces/inkscape"
   xmlns:sodipodi="http://sodipodi.sourceforge.net/DTD/sodipodi-0.dtd"
   xmlns="http://www.w3.org/2000/svg"
   xmlns:svg="http://www.w3.org/2000/svg">
  <defs
     id="defs76" />
  <sodipodi:namedview
     id="namedview74"
     pagecolor="#ffffff"
     bordercolor="#666666"
     borderopacity="1.0"
     inkscape:pageshadow="2"
     inkscape:pageopacity="0.0"
     inkscape:pagecheckerboard="0"
     showgrid="false"
     inkscape:zoom="0.30091238"
     inkscape:cx="54.833238"
     inkscape:cy="988.6599"
     inkscape:window-width="2048"
     inkscape:window-height="1017"
     inkscape:window-x="-8"
     inkscape:window-y="-8"
     inkscape:window-maximized="1"
     inkscape:current-layer="svg72" />
  <rect
     x="100"
     y="100"
     width="1206"
     height="1206"
     style="stroke-width:3.98334"
     id="rect14-2" />
  <g
     transform="matrix(3.9824,0,0,3.9824,-291.77784,-293.54025)"
     id="g6">
    <rect
       x="101.32"
       y="201.32001"
       width="97.359001"
       height="97.359001"
       style="fill:#ffffff"
       id="rect4" />
  </g>
  <rect
     x="111.72216"
     y="109.95975"
     width="387.72"
     height="387.72"
     style="fill:#ffffff;stroke-width:3.9824"
     id="rect10" />
  <g
     transform="matrix(3.9824,0,0,3.9824,106.46216,-691.78025)"
     id="g16">
    <rect
       x="101.32"
       y="201.32001"
       width="97.359001"
       height="97.359001"
       style="fill:#ffffff"
       id="rect14" />
  </g>
  <g
     transform="matrix(3.9824,0,0,3.9824,106.46216,-293.54025)"
     id="g22">
    <rect
       x="101.32"
       y="201.32001"
       width="97.359001"
       height="97.359001"
       style="fill:#ffffff"
       id="rect20" />
  </g>
  <g
     transform="matrix(3.9824,0,0,3.9824,504.70216,-293.54025)"
     id="g28">
    <rect
       x="101.32"
       y="201.32001"
       width="97.359001"
       height="97.359001"
       style="fill:#ffffff"
       id="rect26" />
  </g>
  <g
     transform="matrix(3.9824,0,0,3.9824,504.70216,-691.78025)"
     id="g34">
    <rect
       x="101.32"
       y="201.32001"
       width="97.359001"
       height="97.359001"
       style="fill:#ffffff"
       id="rect32" />
  </g>
  <g
     transform="matrix(3.9824,0,0,3.9824,-291.77784,104.69975)"
     id="g40">
    <rect
       x="101.32"
       y="201.32001"
       width="97.359001"
       height="97.359001"
       style="fill:#ffffff"
       id="rect38" />
  </g>
  <g
     transform="matrix(3.9824,0,0,3.9824,106.46216,104.69975)"
     id="g46">
    <rect
       x="101.32"
       y="201.32001"
       width="97.359001"
       height="97.359001"
       style="fill:#ffffff"
       id="rect44" />
  </g>
  <g
     transform="matrix(3.9824,0,0,3.9824,504.70216,104.69975)"
     id="g52">
    <rect
       x="101.32"
       y="201.32001"
       width="97.359001"
       height="97.359001"
       style="fill:#ffffff"
       id="rect50" />
  </g>
  <g
     transform="matrix(3.8913,0,0,3.8913,-1434.5378,-1827.8002)"
     id="g58">
    <path
       transform="matrix(0.25698,0,0,0.25698,100,500)"
       d="m 2259,318.97 a 15.316,15.316 0 0 0 -15.314,15.314 v 69.033 h -10.549 a 15.316,15.316 0 0 0 -12.783,23.744 l 35.834,54.35 a 15.316,15.316 0 0 0 25.568,0 l 35.834,-54.35 a 15.316,15.316 0 0 0 -12.783,-23.744 h -10.557 v -69.033 a 15.316,15.316 0 0 0 -15.314,-15.314 z"
       style="color:#000000;fill:#ffffff;stroke-width:3.8913;stroke-linecap:round;stroke-linejoin:round;stroke-miterlimit:2;-inkscape-stroke:none"
       id="path54" />
    <path
       d="m 685.65,585.91 v 21.675 h 6.648 l -9.209,13.967 -9.209,-13.967 h 6.647 V 585.91 Z"
       style="color:#000000;fill:#000080;stroke-width:7.8708;stroke-linecap:round;stroke-linejoin:round;stroke-miterlimit:2;-inkscape-stroke:none"
       id="path56" />
  </g>
  <path
     d="m 1130.9622,302.48975 c 8.1241,4.301 14.456,10.076 18.996,17.324 4.54,7.2479 6.8098,15.252 6.8098,24.014 0,9.7171 -2.7079,18.239 -8.124,25.567 -5.4159,7.3276 -13.062,12.983 -22.939,16.965 -9.877,3.982 -21.107,5.9736 -33.691,5.9736 -9.2393,0 -18.04,-1.1151 -26.403,-3.3452 -8.3631,-2.2302 -16.686,-5.655 -24.97,-10.275 v -30.824 h 0.9558 c 16.567,11.469 32.974,17.204 49.222,17.204 10.195,0 18.319,-2.031 24.372,-6.0931 6.0532,-4.062 9.0798,-9.6772 9.0798,-16.846 0,-7.8055 -3.4247,-14.138 -10.275,-18.996 -6.8496,-4.8586 -16.089,-7.2878 -27.718,-7.2878 h -10.036 v -26.284 h 10.036 c 10.832,0 19.354,-1.9912 25.567,-5.9736 6.2127,-3.9824 9.3189,-9.4782 9.3189,-16.487 0,-6.2126 -2.5886,-10.992 -7.7657,-14.337 -5.1771,-3.345 -12.385,-5.0178 -21.624,-5.0178 -7.1683,0 -14.376,1.1151 -21.624,3.3452 -7.248,2.2301 -15.173,5.7347 -23.775,10.514 h -0.9559 v -29.629 c 15.133,-7.8055 31.063,-11.708 47.789,-11.708 18.16,0 32.695,3.9425 43.607,11.828 10.912,7.8851 16.368,18.598 16.368,32.138 0,7.9648 -1.9515,15.253 -5.8541,21.863 -3.9028,6.6107 -9.3587,12.067 -16.368,16.368 z"
     style="white-space:pre;stroke-width:3.9824"
     id="path60" />
  <path
     d="m 1087.2622,753.17975 h 68.099 v 27.956 h -113.26 v -23.894 l 53.284,-55.913 c 8.7613,-9.0799 14.814,-16.646 18.16,-22.7 3.3454,-6.0532 5.018,-11.868 5.018,-17.443 0,-14.655 -9.0799,-21.983 -27.24,-21.983 -7.487,0 -15.014,1.1151 -22.58,3.3452 -7.5664,2.2302 -14.775,5.5754 -21.624,10.036 v -28.912 c 14.018,-7.8055 29.231,-11.708 45.638,-11.708 17.682,0 31.74,4.1417 42.174,12.425 10.434,8.2834 15.651,19.673 15.651,34.169 0,16.567 -7.4869,33.134 -22.461,49.7 z"
     style="white-space:pre;stroke-width:3.9824"
     id="path62" />
  <path
     d="m 1130.9622,1091.1998 c 8.1241,4.3009 14.456,10.075 18.996,17.323 4.54,7.2479 6.8098,15.253 6.8098,24.014 0,9.7171 -2.7079,18.239 -8.124,25.567 -5.4159,7.3276 -13.062,12.983 -22.939,16.965 -9.877,3.982 -21.107,5.9736 -33.691,5.9736 -9.2393,0 -18.04,-1.1151 -26.403,-3.3452 -8.363,-2.2301 -16.686,-5.655 -24.97,-10.275 v -30.824 h 0.9558 c 16.567,11.469 32.974,17.204 49.222,17.204 10.195,0 18.319,-2.031 24.372,-6.0931 6.0532,-4.062 9.0798,-9.6772 9.0798,-16.846 0,-7.8055 -3.4247,-14.138 -10.275,-18.996 -6.8496,-4.8585 -16.089,-7.2878 -27.718,-7.2878 h -10.036 v -26.284 h 10.036 c 10.832,0 19.354,-1.9912 25.567,-5.9736 6.2127,-3.9824 9.3189,-9.4781 9.3189,-16.487 0,-6.2126 -2.5886,-10.991 -7.7657,-14.337 -5.1771,-3.3452 -12.385,-5.0178 -21.624,-5.0178 -7.1683,0 -14.376,1.1151 -21.624,3.3452 -7.248,2.2302 -15.173,5.7347 -23.775,10.514 h -0.9559 v -29.629 c 15.133,-7.8055 31.063,-11.708 47.789,-11.708 18.16,0 32.695,3.9426 43.607,11.828 10.912,7.8852 16.368,18.598 16.368,32.138 0,7.9647 -1.9515,15.252 -5.8541,21.863 -3.9028,6.6108 -9.3587,12.067 -16.368,16.368 z"
     style="white-space:pre;stroke-width:3.9824"
     id="path64" />
  <path
     d="m 305.58216,579.79975 42.905,76.119 85.65,17.284 -59.135,64.326 10.031,86.798 -79.452,-36.364 -79.451,36.364 10.031,-86.798 -59.135,-64.326 85.65,-17.284 z"
     style="font-variation-settings:normal;fill:#ffcc00;stroke:#2b0000;stroke-width:10;stroke-linecap:round;stroke-linejoin:round;stroke-miterlimit:2;-inkscape-stroke:none;stop-color:#000000"
     id="path66" />
  <path
     d="m 1213.5622,830.94975 a 15.316,15.316 0 0 0 -15.314,15.314 v 69.033 h -10.549 a 15.316,15.316 0 0 0 -12.783,23.744 l 35.834,54.35 a 15.316,15.316 0 0 0 25.568,0 l 35.834,-54.35 a 15.316,15.316 0 0 0 -12.783,-23.744 h -10.557 v -69.033 a 15.316,15.316 0 0 0 -15.314,-15.314 z"
     style="color:#000000;fill:#ffffff;stroke-width:3.8913;stroke-linecap:round;stroke-linejoin:round;stroke-miterlimit:2;-inkscape-stroke:none"
     id="path68" />
  <path
     d="m 1233.5622,846.26975 v 84.345 h 25.87 l -35.835,54.35 -35.835,-54.35 h 25.866 v -84.345 z"
     style="color:#000000;fill:#000080;stroke-width:30.628;stroke-linecap:round;stroke-linejoin:round;stroke-miterlimit:2;-inkscape-stroke:none"
     id="path70" />
</svg>
