<?xml version="1.0" encoding="UTF-8" standalone="no"?>
<!DOCTYPE svg PUBLIC "-//W3C//DTD SVG 1.1//EN" "http://www.w3.org/Graphics/SVG/1.1/DTD/svg11.dtd">
<svg width="100%" height="100%" viewBox="0 0 603 322" version="1.1" xmlns="http://www.w3.org/2000/svg" xmlns:xlink="http://www.w3.org/1999/xlink" xml:space="preserve" xmlns:serif="http://www.serif.com/" style="fill-rule:evenodd;clip-rule:evenodd;stroke-linejoin:round;stroke-miterlimit:2;">
    <g transform="matrix(1,0,0,1,-442.186,-94.7737)">
        <g transform="matrix(0.329704,-0.413,0.413,0.329704,115.023,412.771)">
            <path d="M886.804,393.598L822.563,502.243C811.485,515.242 799.202,514.2 785.687,498.785L717.012,398.624L726.182,297.224C726.727,291.191 722.272,285.85 716.239,285.305C710.206,284.759 704.865,289.214 704.32,295.247L698.988,354.21C696.998,363.807 693.289,364.439 687.86,356.108L644.432,292.768C641.006,287.772 634.169,286.497 629.173,289.923C624.177,293.348 622.902,300.185 626.327,305.182L668.71,366.995C673.11,373.98 672.754,378.155 661.936,376.151L606.249,357.345C600.51,355.406 594.277,358.492 592.339,364.232C590.4,369.971 593.486,376.204 599.225,378.142L699.594,412.038L767.156,510.575C776.156,527.963 772.887,537.984 756.762,540.285L631.769,544.232L550.853,481.179C546.074,477.456 539.172,478.312 535.449,483.091C531.726,487.869 532.704,494.62 537.36,498.494C552.813,511.351 566.318,525.944 583.167,535.366C599.95,544.751 589.547,546.081 580.759,545.843L503.109,548.294C497.055,548.486 492.294,553.556 492.485,559.611C492.677,565.665 497.747,570.426 503.802,570.235L582.228,567.758C589.938,567.63 589.689,570.973 583.994,576.693L536.514,614.569C531.778,618.346 531,625.258 534.778,629.993C538.555,634.729 545.467,635.506 550.202,631.729L632.38,566.175L757.033,562.239C774.667,561.102 783.049,566.885 772.592,586.756L708.553,695.059L612.109,729.728C606.409,731.777 603.444,738.069 605.493,743.77C607.542,749.47 613.834,752.435 619.535,750.385L674.935,730.47C689.071,724.827 691.341,728.49 680.578,742.373L643.113,805.734C640.03,810.949 641.76,817.685 646.974,820.768C652.188,823.851 658.925,822.121 662.008,816.907L699.597,753.335C706.165,740.745 710.908,740.756 711.03,757.099L717.194,813.128C717.856,819.149 723.283,823.5 729.304,822.837C735.325,822.175 739.676,816.748 739.014,810.727L727.506,706.135L789.498,601.293C799.571,588.133 811.619,584.369 827.418,598.465L897.288,700.369L888.12,802.436C887.578,808.47 892.037,813.808 898.07,814.35C904.103,814.892 909.442,810.434 909.983,804.4L915.607,741.787C915.999,731.802 918.568,730.65 923.315,738.329L970.108,806.575C973.534,811.571 980.371,812.846 985.367,809.421C990.363,805.995 991.638,799.158 988.213,794.162L942.523,726.892C939.612,722.217 940.772,720.199 947.598,721.88L1008.02,742.243C1013.76,744.178 1019.99,741.088 1021.92,735.348C1023.86,729.608 1020.77,723.377 1015.03,721.442L915.308,687.832L845.122,585.468C841.096,571.425 843.447,561.025 860.416,558.975L982.778,555.111L1063.55,617.566C1068.35,621.271 1075.24,620.388 1078.95,615.596C1082.65,610.804 1081.77,603.905 1076.98,600.2L1027.12,561.653C1022.48,555.911 1024.03,553.112 1032.36,553.545L1111.43,551.049C1117.49,550.858 1122.25,545.787 1122.06,539.732C1121.86,533.678 1116.79,528.917 1110.74,529.109L1036.04,531.467C1029.98,530.43 1028.97,526.537 1033.02,519.789L1077.39,484.123C1082.11,480.328 1082.86,473.414 1079.07,468.692C1075.27,463.971 1068.36,463.219 1063.64,467.015L981.311,533.195L862.746,536.939C843.153,536.461 838.804,524.217 843.912,510.184L905.695,404.777L1002.23,370.192C1007.94,368.149 1010.91,361.86 1008.86,356.158C1006.82,350.455 1000.53,347.484 994.83,349.527L939.624,369.305C927.103,373.211 925.181,369.762 932.043,360.217L971.427,293.609C974.51,288.395 972.78,281.658 967.566,278.575C962.352,275.492 955.615,277.222 952.532,282.436L913.499,348.451C907.808,356.609 903.952,357.59 903.583,344.928L897.239,286.679C896.583,280.657 891.161,276.301 885.139,276.957C879.117,277.613 874.76,283.034 875.416,289.056L886.804,393.598Z" style="fill:rgb(144,211,255);"/>
        </g>
        <g id="path20" transform="matrix(16.3397,0,0,16.3397,-285.965,6.58776)">
            <path d="M74.304,5.397C72.23,8.316 73.484,12.156 72.75,14.975C71.57,15.701 70.624,11.283 70.937,10.487C70.937,10.487 69.257,14.681 69.855,16.188C70.117,16.855 70.669,19.133 70.669,19.133C69.495,18.313 69.433,16.695 68.897,15.344C67.926,20.431 70.888,25.681 76.085,24.914C84.89,22.333 80.611,10.197 78.932,10.093C78.932,10.093 78.279,12.641 78.12,12.194C78.029,8.827 76.851,7.259 74.304,5.397L74.304,5.397Z" style="fill:rgb(255,0,0);fill-rule:nonzero;"/>
        </g>
        <g id="path22" transform="matrix(16.3397,0,0,16.3397,-285.965,6.58776)">
            <path d="M76.085,24.914C78.156,24.658 78.562,23.447 79.658,21.833C79.987,21.348 80.226,20.813 80.527,20.313C80.588,20.212 80.833,20.043 80.718,20.015C80.254,19.901 78.232,20.983 78.162,20.629C77.971,19.655 80.029,17.644 78.754,14.697C78.576,14.286 77.17,11.736 77.085,11.778C77.07,11.785 77.059,14.119 76.772,14.543C76.721,14.618 75.049,11.012 74.737,11.624C74.35,12.385 75.636,13.972 75.433,14.97C75.256,15.836 74.396,15.92 73.746,15.602C73.42,15.441 73.001,14.36 73.138,14.697C73.292,15.076 72.877,17.074 72.877,17.761C72.877,18.363 72.869,18.944 73.086,19.511C73.128,19.622 73.401,19.854 73.294,19.801C72.454,19.389 71.608,18.019 71.608,17.565L71.608,18.632C71.608,19.463 71.809,20.204 72.095,20.988C72.827,23.002 73.939,24.586 76.085,24.914L76.085,24.914Z" style="fill:rgb(255,142,17);fill-rule:nonzero;"/>
        </g>
        <g id="path3250" transform="matrix(16.3397,0,0,16.3397,-285.965,6.58776)">
            <path d="M76.085,24.914C78.24,22.786 77.622,19.544 75.245,17.855C75.245,17.855 73.843,22.298 74.051,22.714C74.292,23.196 74.008,24.31 76.085,24.914C76.085,24.914 76.085,24.914 76.085,24.914Z" style="fill:rgb(255,204,0);fill-rule:nonzero;"/>
        </g>
    </g>
</svg>
