<?xml version="1.0" encoding="UTF-8" standalone="no"?>
<svg
   width="164.52217"
   height="252.93088"
   viewBox="0 0 164.52217 252.93087"
   version="1.1"
   xml:space="preserve"
   style="clip-rule:evenodd;fill-rule:evenodd;stroke-linejoin:round;stroke-miterlimit:2"
   id="svg17"
   sodipodi:docname="2023-SK-07-warmer.svg"
   inkscape:version="1.1.1 (3bf5ae0d25, 2021-09-20)"
   xmlns:inkscape="http://www.inkscape.org/namespaces/inkscape"
   xmlns:sodipodi="http://sodipodi.sourceforge.net/DTD/sodipodi-0.dtd"
   xmlns="http://www.w3.org/2000/svg"
   xmlns:svg="http://www.w3.org/2000/svg"><defs
   id="defs21">
        
        
        
        
    </defs><sodipodi:namedview
   id="namedview19"
   pagecolor="#ffffff"
   bordercolor="#666666"
   borderopacity="1.0"
   inkscape:pageshadow="2"
   inkscape:pageopacity="0.0"
   inkscape:pagecheckerboard="0"
   showgrid="false"
   inkscape:zoom="0.486733"
   inkscape:cx="4.109029"
   inkscape:cy="-444.80239"
   inkscape:window-width="2048"
   inkscape:window-height="1017"
   inkscape:window-x="-8"
   inkscape:window-y="-8"
   inkscape:window-maximized="1"
   inkscape:current-layer="svg17" />
    <path
   d="M 72.16793,0 C 45.3928,37.68399 61.58181,87.258 52.10595,123.651 36.87227,133.02359 24.65951,75.98766 28.7003,65.71138 c 0,0 -21.68862,54.14411 -13.96851,73.59933 3.3824,8.6109 10.50866,38.01965 10.50866,38.01965 C 10.08423,166.74424 9.28382,145.85603 2.36411,128.41475 c -12.53551,65.67266 25.70361,133.44963 92.79635,123.54773 113.67165,-33.3204 58.4302,-189.99497 36.75448,-191.3376 0,0 -8.43016,32.89442 -10.48284,27.1237 C 120.2573,44.28095 105.04944,24.03823 72.16793,0 Z"
   style="clip-rule:evenodd;fill:#ff0000;fill-rule:nonzero;stroke-width:12.9099;stroke-linejoin:round;stroke-miterlimit:2"
   id="path6-3-8" /><path
   d="m 95.16046,251.96248 c 26.7364,-3.3049 31.97782,-18.9388 46.12706,-39.7754 4.24736,-6.2613 7.33283,-13.1681 11.21871,-19.62304 0.7875,-1.3039 3.95043,-3.48567 2.46579,-3.84715 -5.9902,-1.47173 -32.09401,12.49679 -32.9977,7.92669 -2.46579,-12.57425 24.10278,-38.53606 7.64266,-76.58153 -2.29796,-5.30597 -20.44928,-38.22621 -21.54662,-37.68399 -0.19365,0.0904 -0.33566,30.22207 -4.0408,35.69587 -0.65841,0.96824 -22.24375,-45.58485 -26.27164,-37.684 -4.99613,9.82444 11.606,30.31244 8.98529,43.19652 -2.28506,11.17997 -13.38757,12.26441 -21.779,8.15906 -4.20863,-2.07849 -9.61788,-16.03409 -7.84922,-11.68346 1.98812,4.89285 -3.36948,30.68683 -3.36948,39.55593 0,7.77176 -0.10328,15.27241 2.69817,22.59232 0.54221,1.433 4.06661,4.42809 2.68525,3.74387 -10.84431,-5.31888 -21.76608,-23.00544 -21.76608,-28.86653 v 13.77486 c 0,10.72812 2.59489,20.29436 6.28712,30.41568 9.45004,26.0006 23.80585,46.4499 51.51049,50.6843 z"
   style="clip-rule:evenodd;fill:#ff8e11;fill-rule:nonzero;stroke-width:12.9099;stroke-linejoin:round;stroke-miterlimit:2"
   id="path9-6-0" /><path
   d="m 95.16046,251.96248 c 27.82083,-27.4723 19.84251,-69.32615 -10.84431,-91.13097 0,0 -18.09968,57.35867 -15.41442,62.72917 3.11128,6.2226 -0.55513,20.6042 26.25873,28.4018 0,0 0,0 0,0 z"
   style="clip-rule:evenodd;fill:#ffcc00;fill-rule:nonzero;stroke-width:12.9099;stroke-linejoin:round;stroke-miterlimit:2"
   id="path12-9-64" />
</svg>
