<?xml version="1.0" encoding="utf-8"?>
<!-- Generator: Adobe Illustrator 26.5.0, SVG Export Plug-In . SVG Version: 6.00 Build 0)  -->
<svg version="1.1" xmlns="http://www.w3.org/2000/svg" xmlns:xlink="http://www.w3.org/1999/xlink" x="0px" y="0px"
	 viewBox="0 0 64 64" style="enable-background:new 0 0 64 64;" xml:space="preserve">
<style type="text/css">
	.Linie_x0020_1{opacity:0.75;fill:none;stroke:#FFFFFF;stroke-width:3;stroke-miterlimit:10;}
	.Linie_x0020_2{opacity:0.45;fill:none;stroke:#FFFFFF;stroke-width:8;stroke-miterlimit:10;}
	.Linie_x0020_3{opacity:0.45;fill:none;stroke:#FFFFFF;stroke-width:16;stroke-miterlimit:10;}
	.st0{fill:#009FE3;}
	.st1{opacity:0.75;fill:none;stroke:#FFFFFF;stroke-width:1.8;stroke-miterlimit:10;}
	.st2{opacity:0.45;fill:none;stroke:#FFFFFF;stroke-width:4.8;stroke-miterlimit:10;}
	.st3{opacity:0.45;fill:none;stroke:#FFFFFF;stroke-width:9.6;stroke-miterlimit:10;}
	.st4{fill:#95C11F;stroke:#FFFFFF;stroke-width:0.12;stroke-miterlimit:10;}
	.st5{fill:#95C11F;stroke:#95C11F;stroke-width:0.2;stroke-miterlimit:10;}
	.st6{fill:#FFD854;}
	.st7{fill:#936037;}
	.st8{fill:#BE1622;stroke:#000000;stroke-width:0.5669;stroke-miterlimit:10;}
	.st9{fill:#575756;stroke:#000000;stroke-width:0.5669;stroke-miterlimit:10;}
	.st10{fill:#683C11;stroke:#000000;stroke-width:0.5669;stroke-miterlimit:10;}
	.st11{fill:#008D36;stroke:#000000;stroke-width:0.5669;stroke-miterlimit:10;}
</style>
<g id="Wasser">
	<rect class="st0" width="64" height="64"/>
</g>
<g id="Linie_1">
	<path class="st1" d="M14.59,8.9c0.81,1.12,0.15,2.97-1.46,4.13c-1.61,1.16-3.58,1.19-4.38,0.07c-0.81-1.12-0.15-2.97,1.46-4.13
		C11.82,7.81,13.78,7.78,14.59,8.9z"/>
	<path class="Linie_x0020_1" d="M32,0c0,9.32-2.51,21.25-5.39,22.69c-1.4,0.7-2.58,0.19-3.61-0.45c-1.68,1.74-3.57,3.29-5.61,4.62
		c-0.62,2.36-1.39,5.64-2.46,10.16c-2.55,10.71-9.31-2.14-11.43-5.21C2.35,31.93,1.18,32,0,32"/>
</g>
<g id="Linie_2">
	<path class="st2" d="M14.59,8.9c0.81,1.12,0.15,2.97-1.46,4.13c-1.61,1.16-3.58,1.19-4.38,0.07c-0.81-1.12-0.15-2.97,1.46-4.13
		C11.82,7.81,13.78,7.78,14.59,8.9z"/>
	<path class="Linie_x0020_2" d="M32,0c0,9.32-2.51,21.25-5.39,22.69c-1.4,0.7-2.58,0.19-3.61-0.45c-1.68,1.74-3.57,3.29-5.61,4.62
		c-0.62,2.36-1.39,5.64-2.46,10.16c-2.55,10.71-9.31-2.14-11.43-5.21C2.35,31.93,1.18,32,0,32"/>
</g>
<g id="Linie_3">
	<path class="st3" d="M14.59,8.9c0.81,1.12,0.15,2.97-1.46,4.13c-1.61,1.16-3.58,1.19-4.38,0.07c-0.81-1.12-0.15-2.97,1.46-4.13
		C11.82,7.81,13.78,7.78,14.59,8.9z"/>
	<path class="Linie_x0020_3" d="M32,0c0,9.32-2.51,21.25-5.39,22.69c-1.4,0.7-2.58,0.19-3.61-0.45c-1.68,1.74-3.57,3.29-5.61,4.62
		c-0.62,2.36-1.39,5.64-2.46,10.16c-2.55,10.71-9.31-2.14-11.43-5.21C2.35,31.93,1.18,32,0,32"/>
</g>
<g id="Land">
	<path class="st4" d="M14.59,8.9c0.81,1.12,0.15,2.97-1.46,4.13c-1.61,1.16-3.58,1.19-4.38,0.07c-0.81-1.12-0.15-2.97,1.46-4.13
		C11.82,7.81,13.78,7.78,14.59,8.9z"/>
	<path class="st5" d="M32,0c0,9.32-2.51,21.25-5.39,22.69c-1.4,0.7-2.58,0.19-3.61-0.45c-1.68,1.74-3.57,3.29-5.61,4.62
		c-0.62,2.36-1.39,5.64-2.46,10.16c-2.55,10.71-9.31-2.14-11.43-5.21C2.35,31.93,1.18,32,0,32v32h64V0H32z"/>
</g>
<g id="Utensilien">
	<g>
		
			<rect x="28.7" y="20.8" transform="matrix(0.7071 -0.7071 0.7071 0.7071 -12.0024 29.9225)" class="st6" width="2.83" height="17.31"/>
	</g>
	<g>
		<rect x="23.53" y="24.4" class="st6" width="2.83" height="14.98"/>
	</g>
	<g>
		<rect x="25.5" y="23.07" class="st6" width="15.56" height="2.84"/>
	</g>
	
		<rect x="20.04" y="16.43" transform="matrix(0.7071 -0.7071 0.7071 0.7071 -8.4141 21.2606)" class="st7" width="2.83" height="8.72"/>
	<g>
		<g>
			<rect x="41.06" y="19.34" class="st8" width="11.19" height="5.15"/>
			<rect x="41.06" y="24.5" class="st8" width="11.19" height="5.15"/>
		</g>
		<rect x="42.78" y="21.07" class="st9" width="2.26" height="2.26"/>
	</g>
	<g>
		<g>
			
				<rect x="39.6" y="31.95" transform="matrix(0.7071 -0.7072 0.7072 0.7071 -14.2003 40.8231)" class="st8" width="5.15" height="11.19"/>
			
				<rect x="35.95" y="35.6" transform="matrix(0.7071 -0.7071 0.7071 0.7071 -17.8491 39.308)" class="st8" width="5.15" height="11.19"/>
		</g>
		
			<rect x="38.9" y="34.67" transform="matrix(0.7071 -0.7071 0.7071 0.7071 -13.5929 38.7913)" class="st9" width="2.26" height="2.26"/>
	</g>
	<g>
		<g>
			<rect x="24.95" y="39.38" class="st8" width="5.15" height="11.19"/>
			<rect x="19.79" y="39.38" class="st8" width="5.15" height="11.19"/>
		</g>
		<rect x="26.11" y="41.1" class="st9" width="2.26" height="2.26"/>
	</g>
	<path class="st10" d="M13.69,19.58c0.38,0.5,0.82,1.01,1.32,1.5c1.77,1.76,3.73,2.82,5.03,2.85c-0.04-1.29-1.12-3.24-2.9-5
		c-0.5-0.49-1.01-0.92-1.51-1.3L13.69,19.58z"/>
</g>
<g id="Bäume">
	<path class="st11" d="M45.72,47.78c0.03-0.17,0.05-0.34,0.05-0.52c0-1.55-1.25-2.8-2.8-2.8c-1.23,0-2.26,0.8-2.64,1.9
		c-0.43-0.29-0.96-0.46-1.52-0.46c-1.5,0-2.71,1.21-2.71,2.71c0,0.6,0.2,1.15,0.53,1.6c-0.28,0.38-0.45,0.85-0.45,1.36
		c0,1.28,1.04,2.32,2.32,2.32c0.22,0,0.43-0.04,0.63-0.1c0.43,1.27,1.62,2.2,3.03,2.2c1.69,0,3.05-1.3,3.19-2.96
		c0.08,0.01,0.16,0.02,0.25,0.02c1.46,0,2.64-1.18,2.64-2.64C48.25,48.99,47.12,47.84,45.72,47.78z"/>
	<path class="st11" d="M16.72,53.73c0.03-0.17,0.05-0.34,0.05-0.52c0-1.55-1.25-2.8-2.8-2.8c-1.23,0-2.26,0.8-2.64,1.9
		c-0.43-0.29-0.96-0.46-1.52-0.46c-1.5,0-2.71,1.21-2.71,2.71c0,0.6,0.2,1.15,0.53,1.6C7.35,56.53,7.18,57,7.18,57.51
		c0,1.28,1.04,2.32,2.32,2.32c0.22,0,0.43-0.04,0.63-0.1c0.43,1.27,1.62,2.2,3.03,2.2c1.69,0,3.05-1.3,3.19-2.96
		c0.08,0.01,0.16,0.02,0.25,0.02c1.46,0,2.64-1.18,2.64-2.64C19.25,54.94,18.12,53.79,16.72,53.73z"/>
</g>
</svg>
