<?xml version="1.0" encoding="utf-8"?>
<!-- Generator: Adobe Illustrator 26.5.0, SVG Export Plug-In . SVG Version: 6.00 Build 0)  -->
<svg version="1.1" xmlns="http://www.w3.org/2000/svg" xmlns:xlink="http://www.w3.org/1999/xlink" x="0px" y="0px"
	 viewBox="0 0 64 64" style="enable-background:new 0 0 64 64;" xml:space="preserve">
<style type="text/css">
	.st0{fill:#009FE3;stroke:#FFFFFF;stroke-width:0.1994;stroke-miterlimit:10;}
	.st1{fill:#009FE3;}
	.st2{fill:url(#SVGID_1_);}
	.st3{fill:#C6C6C6;stroke:#000000;stroke-width:0.5669;stroke-miterlimit:10;}
	.st4{fill:#FFFFFF;stroke:#000000;stroke-width:0.5669;stroke-miterlimit:10;}
	.st5{fill:#E6332A;stroke:#000000;stroke-width:0.5669;stroke-miterlimit:10;}
	.st6{fill:#575756;stroke:#000000;stroke-width:0.5669;stroke-miterlimit:10;}
	.st7{fill:#E6332A;stroke:#FFFFFF;stroke-width:0.5669;stroke-miterlimit:10;}
	.st8{fill:none;stroke:#000000;stroke-width:0.5669;stroke-linecap:round;stroke-miterlimit:10;}
	.st9{opacity:0.8;}
	.st10{fill:#FFFFFF;}
</style>
<g id="Wasser">
	
		<rect x="0.1" y="0.1" transform="matrix(1 -3.229616e-03 3.229616e-03 1 -0.1032 0.1035)" class="st0" width="63.79" height="63.8"/>
	<rect class="st1" width="64" height="64"/>
</g>
<g id="Linie_1">
</g>
<g id="Linie_2">
</g>
<g id="Linie_3">
</g>
<g id="Land">
</g>
<g id="Utensilien">
	<linearGradient id="SVGID_1_" gradientUnits="userSpaceOnUse" x1="17.7195" y1="58.078" x2="29.8887" y2="43.5753">
		<stop  offset="0.1248" style="stop-color:#009FE3"/>
		<stop  offset="1" style="stop-color:#FFFFFF"/>
	</linearGradient>
	<polygon class="st2" points="25.86,62.38 10.83,52.29 22.8,39.31 33.64,46.72 	"/>
	<g>
		<path class="st3" d="M31.58,48.71c1.52-1.57,2.99-3.37,4.34-5.37c4.81-7.15,6.71-14.78,5.34-19.62c-5,0.55-11.35,5.19-16.16,12.34
			c-1.34,2-2.45,4.04-3.34,6.04L31.58,48.71z"/>
		
			<rect x="25.24" y="33.02" transform="matrix(0.5582 -0.8297 0.8297 0.5582 -17.5301 43.0507)" class="st4" width="12.84" height="9.93"/>
		<path class="st5" d="M33.22,38.81c-1.08,1.61-2.61,2.47-3.42,1.93c-0.8-0.54-0.58-2.28,0.5-3.89c1.08-1.61,2.61-2.47,3.42-1.93
			C34.53,35.46,34.3,37.21,33.22,38.81z"/>
		<path class="st6" d="M32.1,40.48c-1.08,1.61-2.61,2.47-3.42,1.93c-0.8-0.54-0.58-2.28,0.5-3.89c1.08-1.61,2.61-2.47,3.42-1.93
			C33.41,37.13,33.18,38.87,32.1,40.48z"/>
		<path class="st7" d="M38.89,29.51c0.39-0.58,0.24-1.36-0.34-1.75c-0.58-0.39-1.37-0.24-1.75,0.34c-0.39,0.58-0.24,1.36,0.34,1.75
			C37.72,30.24,38.5,30.09,38.89,29.51z"/>
		<line class="st8" x1="40.43" y1="24.96" x2="43.12" y2="20.96"/>
	</g>
	<g class="st9">
		<path class="st10" d="M30.89,39.73c0,0-0.21,0.21-0.59,0.55c-0.2,0.16-0.4,0.39-0.64,0.62c-0.25,0.22-0.46,0.53-0.72,0.83
			c-0.26,0.3-0.45,0.69-0.7,1.05c-0.18,0.42-0.43,0.81-0.58,1.28c-0.09,0.23-0.18,0.46-0.27,0.7c-0.07,0.25-0.14,0.5-0.21,0.75
			c-0.16,0.49-0.28,1.03-0.4,1.56l-0.21,0.84c-0.07,0.27-0.15,0.55-0.22,0.82c-0.11,0.53-0.37,1.1-0.59,1.64
			c-0.18,0.56-0.56,1.02-0.83,1.48c-0.37,0.42-0.68,0.84-1.12,1.1c-0.38,0.31-0.82,0.45-1.19,0.58c-0.37,0.1-0.71,0.1-0.97,0.13
			c-0.53-0.04-0.82-0.09-0.82-0.09s0.28-0.12,0.74-0.3c0.21-0.13,0.48-0.25,0.73-0.43c0.25-0.21,0.51-0.41,0.73-0.73
			c0.12-0.14,0.24-0.28,0.32-0.48c0.1-0.17,0.2-0.36,0.3-0.54c0.13-0.43,0.35-0.83,0.46-1.31c0.13-0.46,0.26-0.92,0.36-1.5
			c0.12-0.54,0.24-1.1,0.37-1.65c0.14-0.58,0.28-1.16,0.51-1.71c0.1-0.28,0.2-0.56,0.32-0.83c0.14-0.26,0.28-0.52,0.41-0.78
			c0.23-0.52,0.64-0.96,0.95-1.38c0.38-0.39,0.73-0.76,1.12-1.01c0.38-0.27,0.73-0.5,1.08-0.64c0.34-0.16,0.63-0.28,0.87-0.34
			C30.6,39.8,30.89,39.73,30.89,39.73z"/>
	</g>
</g>
<g id="Bäume">
</g>
</svg>
