<?xml version="1.0" encoding="utf-8"?>
<!-- Generator: Adobe Illustrator 26.5.0, SVG Export Plug-In . SVG Version: 6.00 Build 0)  -->
<svg version="1.1" xmlns="http://www.w3.org/2000/svg" xmlns:xlink="http://www.w3.org/1999/xlink" x="0px" y="0px"
	 viewBox="0 0 64 64" style="enable-background:new 0 0 64 64;" xml:space="preserve">
<style type="text/css">
	.Linie_x0020_1{opacity:0.75;fill:none;stroke:#FFFFFF;stroke-width:3;stroke-miterlimit:10;}
	.Linie_x0020_2{opacity:0.45;fill:none;stroke:#FFFFFF;stroke-width:8;stroke-miterlimit:10;}
	.Linie_x0020_3{opacity:0.45;fill:none;stroke:#FFFFFF;stroke-width:16;stroke-miterlimit:10;}
	.st0{fill:#009FE3;}
	.st1{fill:#95C11F;stroke:#95C11F;stroke-width:0.2;stroke-miterlimit:10;}
	.st2{fill:#FFD854;}
	.st3{fill:#FCEA10;}
	.st4{fill:#E6332A;}
	.st5{fill:none;stroke:#000000;stroke-width:0.5669;stroke-miterlimit:10;}
	.st6{fill:#009640;}
	.st7{fill:#2D2E83;}
	.st8{fill:#008D36;stroke:#000000;stroke-width:0.5669;stroke-miterlimit:10;}
</style>
<g id="Wasser">
	<rect class="st0" width="64" height="64"/>
</g>
<g id="Linie_1">
	<path class="Linie_x0020_1" d="M32,0c0,2.02,0,0.34,0,6.67c0,6.33,6.08,13.5,2.82,24.12c-1.36,4.42-7.15,11.54-5.99,21.54
		c0.55,4.74,3.15,6.57,3.15,9.27v2.38L32,64"/>
</g>
<g id="Linie_2">
	<path class="Linie_x0020_2" d="M32,0c0,2.02,0,0.34,0,6.67c0,6.33,6.08,13.5,2.82,24.12c-1.36,4.42-7.15,11.54-5.99,21.54
		c0.55,4.74,3.15,6.57,3.15,9.27v2.38L32,64"/>
</g>
<g id="Linie_3">
	<path class="Linie_x0020_3" d="M32,0c0,2.02,0,0.34,0,6.67c0,6.33,6.08,13.5,2.82,24.12c-1.36,4.42-7.15,11.54-5.99,21.54
		c0.55,4.74,3.15,6.57,3.15,9.27v2.38L32,64"/>
</g>
<g id="Land">
	<path class="st1" d="M32,0c0,2.02,0,0.34,0,6.67c0,6.33,6.08,13.5,2.82,24.12c-1.36,4.42-7.15,11.54-5.99,21.54
		c0.55,4.74,3.15,6.57,3.15,9.27v2.38L32,64h32V0H32z"/>
</g>
<g id="Seen">
</g>
<g id="Utensilien">
	<path class="st2" d="M32,3.38c0,0.76,0,1.8,0,3.3c0,6.33,6.08,13.5,2.82,24.12c-1.36,4.42-7.15,11.54-5.99,21.54
		c0.55,4.74,3.15,6.57,3.15,9.27c0,0,1.99-8.29,4.38-13.1c7.13-14.34,6.57-27.37,3.13-34.28C36.6,8.39,32.79,6.36,32,3.38z"/>
	<g>
		<g>
			<g>
				<polygon class="st3" points="39.85,34.84 39.81,31.94 37.78,32.82 				"/>
				<polygon class="st4" points="39.85,34.84 37.78,32.82 36.96,34.88 				"/>
				<polygon class="st4" points="39.85,34.84 39.81,31.94 41.87,32.76 				"/>
				<polygon class="st3" points="39.85,34.84 42.75,34.8 41.87,32.76 				"/>
				<polygon class="st4" points="39.85,34.84 42.75,34.8 41.93,36.85 				"/>
				<polygon class="st3" points="39.85,34.84 39.89,37.73 41.93,36.85 				"/>
				<polygon class="st4" points="39.85,34.84 39.89,37.73 37.84,36.91 				"/>
				<polygon class="st3" points="39.85,34.84 36.96,34.88 37.84,36.91 				"/>
			</g>
			<polygon class="st5" points="41.93,36.85 39.89,37.73 37.84,36.91 36.96,34.88 37.78,32.82 39.81,31.94 41.87,32.76 42.75,34.8 
							"/>
		</g>
		<path d="M40.28,34.83c0-0.23-0.19-0.42-0.42-0.42c-0.23,0-0.43,0.19-0.43,0.42c0,0.23,0.19,0.43,0.43,0.43
			C40.09,35.26,40.28,35.07,40.28,34.83z"/>
	</g>
	<g>
		<g>
			<g>
				<polygon class="st3" points="35.78,39.17 35.74,36.28 33.71,37.16 				"/>
				<polygon class="st6" points="35.78,39.17 33.71,37.16 32.89,39.22 				"/>
				<polygon class="st6" points="35.78,39.17 35.74,36.28 37.8,37.1 				"/>
				<polygon class="st3" points="35.78,39.17 38.67,39.14 37.8,37.1 				"/>
				<polygon class="st6" points="35.78,39.17 38.67,39.14 37.86,41.19 				"/>
				<polygon class="st3" points="35.78,39.17 35.82,42.07 37.86,41.19 				"/>
				<polygon class="st6" points="35.78,39.17 35.82,42.07 33.76,41.25 				"/>
				<polygon class="st3" points="35.78,39.17 32.89,39.22 33.76,41.25 				"/>
			</g>
			<polygon class="st5" points="37.86,41.19 35.82,42.07 33.76,41.25 32.89,39.22 33.71,37.16 35.74,36.28 37.8,37.1 38.67,39.14 
							"/>
		</g>
		<path d="M36.21,39.17c0-0.23-0.19-0.42-0.43-0.42c-0.23,0-0.42,0.19-0.42,0.42c0,0.23,0.19,0.42,0.42,0.42
			C36.02,39.6,36.21,39.41,36.21,39.17z"/>
	</g>
	<g>
		<g>
			<g>
				<polygon class="st3" points="38.67,16 38.63,13.11 36.6,13.98 				"/>
				<polygon class="st7" points="38.67,16 36.6,13.98 35.78,16.04 				"/>
				<polygon class="st7" points="38.67,16 38.63,13.11 40.69,13.93 				"/>
				<polygon class="st3" points="38.67,16 41.57,15.96 40.69,13.93 				"/>
				<polygon class="st7" points="38.67,16 41.57,15.96 40.75,18.02 				"/>
				<polygon class="st3" points="38.67,16 38.71,18.89 40.75,18.02 				"/>
				<polygon class="st7" points="38.67,16 38.71,18.89 36.66,18.07 				"/>
				<polygon class="st3" points="38.67,16 35.78,16.04 36.66,18.07 				"/>
			</g>
			<polygon class="st5" points="40.75,18.02 38.71,18.89 36.66,18.07 35.78,16.04 36.6,13.98 38.63,13.11 40.69,13.93 41.57,15.96 
							"/>
		</g>
		<path d="M39.1,16c0-0.23-0.19-0.43-0.43-0.43c-0.23,0-0.42,0.19-0.42,0.43s0.19,0.42,0.42,0.42C38.91,16.42,39.1,16.23,39.1,16z"
			/>
	</g>
</g>
<g id="Bäume">
	<path class="st8" d="M55.18,11.72c0.03-0.17,0.05-0.34,0.05-0.52c0-1.55-1.25-2.8-2.8-2.8c-1.23,0-2.26,0.8-2.64,1.9
		c-0.43-0.29-0.96-0.46-1.52-0.46c-1.5,0-2.71,1.21-2.71,2.71c0,0.6,0.2,1.15,0.53,1.6c-0.28,0.38-0.45,0.85-0.45,1.36
		c0,1.28,1.04,2.32,2.32,2.32c0.22,0,0.43-0.04,0.63-0.1c0.43,1.27,1.62,2.2,3.03,2.2c1.69,0,3.05-1.3,3.19-2.96
		c0.08,0.01,0.16,0.02,0.25,0.02c1.46,0,2.64-1.18,2.64-2.64C57.71,12.93,56.59,11.78,55.18,11.72z"/>
	<path class="st8" d="M58.68,24.85c0.03-0.17,0.05-0.34,0.05-0.52c0-1.55-1.25-2.8-2.8-2.8c-1.23,0-2.26,0.8-2.64,1.9
		c-0.43-0.29-0.96-0.46-1.52-0.46c-1.5,0-2.71,1.21-2.71,2.71c0,0.6,0.2,1.15,0.53,1.6c-0.28,0.38-0.45,0.85-0.45,1.36
		c0,1.28,1.04,2.32,2.32,2.32c0.22,0,0.43-0.04,0.63-0.1c0.43,1.27,1.62,2.2,3.03,2.2c1.69,0,3.05-1.3,3.19-2.96
		c0.08,0.01,0.16,0.02,0.25,0.02c1.46,0,2.64-1.18,2.64-2.64C61.21,26.06,60.09,24.91,58.68,24.85z"/>
</g>
</svg>
