<?xml version="1.0" encoding="utf-8"?>
<!-- Generator: Adobe Illustrator 26.5.0, SVG Export Plug-In . SVG Version: 6.00 Build 0)  -->
<svg version="1.1" xmlns="http://www.w3.org/2000/svg" xmlns:xlink="http://www.w3.org/1999/xlink" x="0px" y="0px"
	 viewBox="0 0 64 64" style="enable-background:new 0 0 64 64;" xml:space="preserve">
<style type="text/css">
	.Linie_x0020_1{opacity:0.75;fill:none;stroke:#FFFFFF;stroke-width:3;stroke-miterlimit:10;}
	.Linie_x0020_2{opacity:0.45;fill:none;stroke:#FFFFFF;stroke-width:8;stroke-miterlimit:10;}
	.Linie_x0020_3{opacity:0.45;fill:none;stroke:#FFFFFF;stroke-width:16;stroke-miterlimit:10;}
	.st0{fill:#009FE3;}
	.st1{fill:#95C11F;stroke:#95C11F;stroke-width:0.2;stroke-miterlimit:10;}
	.st2{fill:#008D36;stroke:#000000;stroke-width:0.5669;stroke-miterlimit:10;}
	.st3{fill:#FFFFFF;stroke:#000000;stroke-width:0.5669;stroke-miterlimit:10;}
</style>
<g id="Wasser">
	<rect y="0" class="st0" width="64" height="64"/>
</g>
<g id="Linie_1">
	<path class="Linie_x0020_1" d="M32,64v-3.76c2.33-0.96,7.61-3.64,14.42-10.36c9.08-8.95,1.08-11.38-6.92-23.38
		C32.81,16.47,32.07,4.7,32,1.11V0"/>
</g>
<g id="Linie_2">
	<path class="Linie_x0020_2" d="M32,64v-3.76c2.33-0.96,7.61-3.64,14.42-10.36c9.08-8.95,1.08-11.38-6.92-23.38
		C32.81,16.47,32.07,4.7,32,1.11V0"/>
</g>
<g id="Linie_3">
	<path class="Linie_x0020_3" d="M32,64v-3.76c2.33-0.96,7.61-3.64,14.42-10.36c9.08-8.95,1.08-11.38-6.92-23.38
		C32.81,16.47,32.07,4.7,32,1.11V0"/>
</g>
<g id="Land">
	<path class="st1" d="M39.5,26.5C32.81,16.47,32.07,4.7,32,1.11V0H0v64h32v-3.76c2.33-0.96,7.61-3.64,14.42-10.36
		C55.49,40.93,47.5,38.5,39.5,26.5z"/>
</g>
<g id="Utensilien">
</g>
<g id="Bäume">
	<path class="st2" d="M30.29,46.43c0.03-0.17,0.05-0.34,0.05-0.52c0-1.55-1.25-2.8-2.8-2.8c-1.23,0-2.26,0.8-2.64,1.9
		c-0.43-0.29-0.96-0.46-1.52-0.46c-1.5,0-2.71,1.21-2.71,2.71c0,0.6,0.2,1.15,0.53,1.6c-0.28,0.38-0.45,0.85-0.45,1.36
		c0,1.28,1.04,2.32,2.32,2.32c0.22,0,0.43-0.04,0.63-0.1c0.43,1.27,1.62,2.2,3.03,2.2c1.69,0,3.05-1.3,3.19-2.96
		c0.08,0.01,0.16,0.02,0.25,0.02c1.46,0,2.64-1.18,2.64-2.64C32.82,47.64,31.7,46.49,30.29,46.43z"/>
	<path class="st2" d="M16.8,37.74c0.03-0.17,0.05-0.34,0.05-0.52c0-1.55-1.25-2.8-2.8-2.8c-1.23,0-2.26,0.8-2.64,1.9
		c-0.43-0.29-0.96-0.46-1.52-0.46c-1.5,0-2.71,1.21-2.71,2.71c0,0.6,0.2,1.15,0.53,1.6c-0.28,0.38-0.45,0.85-0.45,1.36
		c0,1.28,1.04,2.32,2.32,2.32c0.22,0,0.43-0.04,0.63-0.1c0.43,1.27,1.62,2.2,3.03,2.2c1.69,0,3.05-1.3,3.19-2.96
		c0.08,0.01,0.16,0.02,0.25,0.02c1.46,0,2.64-1.18,2.64-2.64C19.33,38.95,18.21,37.8,16.8,37.74z"/>
	<path class="st2" d="M24.36,7.49c0.03-0.17,0.05-0.34,0.05-0.52c0-1.55-1.25-2.8-2.8-2.8c-1.23,0-2.26,0.8-2.64,1.9
		c-0.43-0.29-0.96-0.46-1.52-0.46c-1.5,0-2.71,1.21-2.71,2.71c0,0.6,0.2,1.15,0.53,1.6c-0.28,0.38-0.45,0.85-0.45,1.36
		c0,1.28,1.04,2.32,2.32,2.32c0.22,0,0.43-0.04,0.63-0.1c0.43,1.27,1.62,2.2,3.03,2.2c1.69,0,3.05-1.3,3.19-2.96
		c0.08,0.01,0.16,0.02,0.25,0.02c1.46,0,2.64-1.18,2.64-2.64C26.89,8.7,25.77,7.55,24.36,7.49z"/>
	<path class="st3" d="M34.62,24.61c0.15,0.48,0.21,0.94,0.15,1.31c-0.34-0.14-0.69-0.44-1.02-0.82c-0.71-0.18-4.39-0.93-6.92,1.94
		c2.18-3.15,5.18-3.6,6-3.67c-0.12-0.44-0.17-0.86-0.11-1.19c0.31,0.13,0.64,0.39,0.94,0.73c0.5-0.66,2.49-2.94,6.32-3.09
		C36.2,20.41,34.85,23.92,34.62,24.61z M35.88,26.85c-0.35-0.44-0.74-0.77-1.11-0.93c-0.07,0.39,0,0.9,0.19,1.44L35.88,26.85z"/>
</g>
</svg>
