<?xml version="1.0" encoding="utf-8"?>
<!-- Generator: Adobe Illustrator 26.5.0, SVG Export Plug-In . SVG Version: 6.00 Build 0)  -->
<svg version="1.1" xmlns="http://www.w3.org/2000/svg" xmlns:xlink="http://www.w3.org/1999/xlink" x="0px" y="0px"
	 viewBox="0 0 64 64" style="enable-background:new 0 0 64 64;" xml:space="preserve">
<style type="text/css">
	.Linie_x0020_1{opacity:0.75;fill:none;stroke:#FFFFFF;stroke-width:3;stroke-miterlimit:10;}
	.Linie_x0020_2{opacity:0.45;fill:none;stroke:#FFFFFF;stroke-width:8;stroke-miterlimit:10;}
	.Linie_x0020_3{opacity:0.45;fill:none;stroke:#FFFFFF;stroke-width:16;stroke-miterlimit:10;}
	.st0{fill:#009FE3;}
	.st1{fill:#95C11F;stroke:#FFFFFF;stroke-width:0.2;stroke-miterlimit:10;}
	.st2{fill:#95C11F;stroke:#95C11F;stroke-width:0.2;stroke-miterlimit:10;}
	.st3{fill:#FFFFFF;stroke:#000000;stroke-width:0.5669;stroke-linecap:round;stroke-miterlimit:10;}
	.st4{fill:#FFFFFF;stroke:#000000;stroke-width:0.5669;stroke-miterlimit:10;}
	.st5{stroke:#000000;stroke-width:0.5669;stroke-linecap:round;stroke-miterlimit:10;}
</style>
<g id="Wasser">
	<rect class="st0" width="64" height="64"/>
	<path class="st1" d="M64,32c-17.67,0-32,14.33-32,32h32V32z"/>
	<rect x="0" class="st0" width="64" height="64"/>
</g>
<g id="Linie_1">
	<path class="Linie_x0020_1" d="M64.03,32.03c-8.97,0-15.33-6.94-19.87,1.33c-4.54,8.27-6.77,7.81-12.93,8.97
		c-5.59,1.05-7.88,4.2-5.59,9.43c2.45,5.59,6.41,7.34,6.41,12.23"/>
</g>
<g id="Linie_2">
	<path class="Linie_x0020_2" d="M64.03,32.03c-8.97,0-15.33-6.94-19.87,1.33c-4.54,8.27-6.77,7.81-12.93,8.97
		c-5.59,1.05-7.88,4.2-5.59,9.43c2.45,5.59,6.41,7.34,6.41,12.23"/>
</g>
<g id="Linie_3">
	<path class="Linie_x0020_3" d="M64.03,32.03c-8.97,0-15.33-6.94-19.87,1.33c-4.54,8.27-6.77,7.81-12.93,8.97
		c-5.59,1.05-7.88,4.2-5.59,9.43c2.45,5.59,6.41,7.34,6.41,12.23"/>
</g>
<g id="Land">
	<path class="st2" d="M64.03,32.03c-8.97,0-15.33-6.94-19.87,1.33c-4.54,8.27-6.77,7.81-12.93,8.97c-5.59,1.05-7.88,4.2-5.59,9.43
		c2.45,5.59,6.41,7.34,6.41,12.23h31.92L64.03,32.03z"/>
</g>
<g id="Utensilien">
	<g>
		<path class="st3" d="M44.59,45.51c0,0,0.29,1.94,0.29,2.12c0,0.17,1.3,1.27,1.53,3.13v0.01l0.18,0.09l0.1-0.4l0.53,0.14l0.14-0.14
			c-0.8-0.62-1.34-2.34-1.34-2.34v-0.9"/>
		<path class="st3" d="M46.11,47.06c0,0.17,1.3,1.27,1.53,3.13v0.01l0.18,0.09l0.1-0.4l0.53,0.14l0.14-0.14
			c-0.79-0.61-1.34-2.34-1.34-2.34v-0.9"/>
		<path class="st4" d="M52.22,52.38l1.06,1.31l-0.52-0.26l-0.1,0.6c-0.2-0.56-1.26-1.55-1.26-1.55"/>
		<path class="st4" d="M54.11,51.47l1.06,1.31l-0.52-0.26l-0.1,0.6c-0.2-0.56-1.26-1.55-1.26-1.55"/>
		<path class="st4" d="M45.43,44.51c-0.21,0.19-0.58,0.11-0.83-0.16c-0.25-0.28-0.28-0.65-0.07-0.84c0.21-0.19,0.58-0.11,0.83,0.17
			C45.61,43.95,45.64,44.32,45.43,44.51z"/>
		<path class="st3" d="M52.72,50.44c-0.92,1.14-3.42,0.64-5.57-1.11c-2.15-1.75-3.15-4.09-2.22-5.23c0.92-1.14,3.42-0.64,5.57,1.11
			C52.65,46.97,53.65,49.3,52.72,50.44z"/>
		<path class="st3" d="M54.76,51.34c0.63-0.31,3.09,0.71,4.36,2.3c-1.38,0.49-2.77-0.24-3.28-1c-0.51-0.75-0.86-0.98-1.26-1.1
			l-0.18,0.1c-0.33,0.43-0.1,1.24-2.32,1.41c-2.22,0.16-3.14,1.24-3.81,0.39c-0.3-1.73,1.67-1.77,2.14-3.03
			c0.47-1.26,0.26-1.83,1.28-2.28h0.1c-1.71-0.63-1.47-3.28-1.39-3.6l0.1,0.16c0.26,1.12,1.75,1.55,2.38,2.91L53,47.63l3.14-2.3
			l-2.34,2.79l0.77,0.65l3.08-2.73l-2.55,3.48c0.57,0.73,1.89,0.89,2.71,2.94"/>
		<path class="st5" d="M53.8,51.47c0,0.17-0.14,0.32-0.3,0.32c-0.17,0-0.3-0.14-0.3-0.32c0-0.17,0.13-0.32,0.3-0.32
			C53.66,51.15,53.8,51.3,53.8,51.47z"/>
		<path class="st5" d="M51.4,49.09c0,0.17-0.14,0.32-0.31,0.32c-0.17,0-0.3-0.14-0.3-0.32c0-0.17,0.14-0.31,0.3-0.31
			C51.26,48.77,51.4,48.91,51.4,49.09z"/>
		<path class="st3" d="M48.9,52.61c0,0.17-0.14,0.32-0.3,0.32c-0.17,0-0.31-0.14-0.31-0.32c0-0.17,0.14-0.32,0.31-0.32
			C48.77,52.29,48.9,52.43,48.9,52.61z"/>
		<path class="st3" d="M49.52,53.21c0,0.17-0.14,0.32-0.3,0.32c-0.17,0-0.31-0.14-0.31-0.32c0-0.17,0.14-0.32,0.31-0.32
			C49.38,52.89,49.52,53.03,49.52,53.21z"/>
		<path class="st3" d="M50.6,46.05c0.13,0.02,1.82,0.62,1.99,1.69"/>
	</g>
</g>
<g id="Bäume">
</g>
</svg>
