<?xml version="1.0" encoding="utf-8"?>
<!-- Generator: Adobe Illustrator 26.5.0, SVG Export Plug-In . SVG Version: 6.00 Build 0)  -->
<svg version="1.1" xmlns="http://www.w3.org/2000/svg" xmlns:xlink="http://www.w3.org/1999/xlink" x="0px" y="0px"
	 viewBox="0 0 64 64" style="enable-background:new 0 0 64 64;" xml:space="preserve">
<style type="text/css">
	.Linie_x0020_1{opacity:0.75;fill:none;stroke:#FFFFFF;stroke-width:3;stroke-miterlimit:10;}
	.Linie_x0020_2{opacity:0.45;fill:none;stroke:#FFFFFF;stroke-width:8;stroke-miterlimit:10;}
	.Linie_x0020_3{opacity:0.45;fill:none;stroke:#FFFFFF;stroke-width:16;stroke-miterlimit:10;}
	.st0{fill:#009FE3;}
	.st1{fill:#95C11F;stroke:#95C11F;stroke-width:0.2;stroke-miterlimit:10;}
	.st2{fill:#008D36;stroke:#000000;stroke-width:0.5669;stroke-miterlimit:10;}
</style>
<g id="Wasser">
	<rect class="st0" width="64" height="64"/>
</g>
<g id="Linie_1">
	<path class="Linie_x0020_1" d="M32,64c0-3.89,0.12-7.31,0.35-10.34C29.14,45.48,24.07,38.29,26,37c1.64-1.09,5.28,3.27,8,6.1
		c0.65-2.37,1.45-4.28,2.4-5.8c-0.65-11.59-4.08-43.98,14.9-5.8c3.76,0.1,8,0.5,12.69,0.5"/>
</g>
<g id="Linie_2">
	<path class="Linie_x0020_2" d="M32,64c0-3.89,0.12-7.31,0.35-10.34C29.14,45.48,24.07,38.29,26,37c1.64-1.09,5.28,3.27,8,6.1
		c0.65-2.37,1.45-4.28,2.4-5.8c-0.65-11.59-4.08-43.98,14.9-5.8c3.76,0.1,8,0.5,12.69,0.5"/>
</g>
<g id="Linie_3">
	<path class="Linie_x0020_3" d="M32,64c0-3.89,0.12-7.31,0.35-10.34C29.14,45.48,24.07,38.29,26,37c1.64-1.09,5.28,3.27,8,6.1
		c0.65-2.37,1.45-4.28,2.4-5.8c-0.65-11.59-4.08-43.98,14.9-5.8c3.76,0.1,8,0.5,12.69,0.5"/>
</g>
<g id="Land">
	<path class="st1" d="M26,37c1.64-1.09,5.28,3.27,8,6.1c0.65-2.37,1.45-4.28,2.4-5.8c-0.65-11.59-4.08-43.98,14.9-5.8
		c3.76,0.1,8,0.5,12.69,0.5V0H0v64h32c0-3.89,0.12-7.31,0.35-10.34C29.14,45.48,24.07,38.29,26,37z"/>
</g>
<g id="Utensilien">
</g>
<g id="Bäume">
	<path class="st2" d="M17.97,8.48c0.03-0.17,0.05-0.34,0.05-0.52c0-1.55-1.25-2.8-2.8-2.8c-1.23,0-2.26,0.8-2.64,1.9
		c-0.43-0.29-0.96-0.46-1.52-0.46c-1.5,0-2.71,1.21-2.71,2.71c0,0.6,0.2,1.15,0.53,1.6c-0.28,0.38-0.45,0.85-0.45,1.36
		c0,1.28,1.04,2.32,2.32,2.32c0.22,0,0.43-0.04,0.63-0.1c0.43,1.27,1.62,2.2,3.03,2.2c1.69,0,3.05-1.3,3.19-2.96
		c0.08,0.01,0.16,0.02,0.25,0.02c1.46,0,2.64-1.18,2.64-2.64C20.5,9.69,19.37,8.54,17.97,8.48z"/>
	<path class="st2" d="M25.47,13.23c0.03-0.17,0.05-0.34,0.05-0.52c0-1.55-1.25-2.8-2.8-2.8c-1.23,0-2.26,0.8-2.64,1.9
		c-0.43-0.29-0.96-0.46-1.52-0.46c-1.5,0-2.71,1.21-2.71,2.71c0,0.6,0.2,1.15,0.53,1.6c-0.28,0.38-0.45,0.85-0.45,1.36
		c0,1.28,1.04,2.32,2.32,2.32c0.22,0,0.43-0.04,0.63-0.1c0.43,1.27,1.62,2.2,3.03,2.2c1.69,0,3.05-1.3,3.19-2.96
		c0.08,0.01,0.16,0.02,0.25,0.02c1.46,0,2.64-1.18,2.64-2.64C28,14.44,26.87,13.29,25.47,13.23z"/>
	<path class="st2" d="M16.14,17.9c0.03-0.17,0.05-0.34,0.05-0.52c0-1.55-1.25-2.8-2.8-2.8c-1.23,0-2.26,0.8-2.64,1.9
		c-0.43-0.29-0.96-0.46-1.52-0.46c-1.5,0-2.71,1.21-2.71,2.71c0,0.6,0.2,1.15,0.53,1.6c-0.28,0.38-0.45,0.85-0.45,1.36
		c0,1.28,1.04,2.32,2.32,2.32c0.22,0,0.43-0.04,0.63-0.1c0.43,1.27,1.62,2.2,3.03,2.2c1.69,0,3.05-1.3,3.19-2.96
		c0.08,0.01,0.16,0.02,0.25,0.02c1.46,0,2.64-1.18,2.64-2.64C18.67,19.11,17.54,17.96,16.14,17.9z"/>
	<path class="st2" d="M17.81,34.89c0.03-0.17,0.05-0.34,0.05-0.52c0-1.55-1.25-2.8-2.8-2.8c-1.23,0-2.26,0.8-2.64,1.9
		C11.99,33.17,11.47,33,10.91,33c-1.5,0-2.71,1.21-2.71,2.71c0,0.6,0.2,1.15,0.53,1.6c-0.28,0.38-0.45,0.85-0.45,1.36
		c0,1.28,1.04,2.32,2.32,2.32c0.22,0,0.43-0.04,0.63-0.1c0.43,1.27,1.62,2.2,3.03,2.2c1.69,0,3.05-1.3,3.19-2.96
		c0.08,0.01,0.16,0.02,0.25,0.02c1.46,0,2.64-1.18,2.64-2.64C20.34,36.1,19.22,34.95,17.81,34.89z"/>
</g>
</svg>
