<?xml version="1.0" encoding="utf-8"?>
<!-- Generator: Adobe Illustrator 26.5.0, SVG Export Plug-In . SVG Version: 6.00 Build 0)  -->
<svg version="1.1" xmlns="http://www.w3.org/2000/svg" xmlns:xlink="http://www.w3.org/1999/xlink" x="0px" y="0px"
	 viewBox="0 0 64 64" style="enable-background:new 0 0 64 64;" xml:space="preserve">
<style type="text/css">
	.Linie_x0020_1{opacity:0.75;fill:none;stroke:#FFFFFF;stroke-width:3;stroke-miterlimit:10;}
	.Linie_x0020_2{opacity:0.45;fill:none;stroke:#FFFFFF;stroke-width:8;stroke-miterlimit:10;}
	.Linie_x0020_3{opacity:0.45;fill:none;stroke:#FFFFFF;stroke-width:16;stroke-miterlimit:10;}
	.st0{fill:#009FE3;}
	.st1{fill:#95C11F;stroke:#95C11F;stroke-width:0.2;stroke-miterlimit:10;}
	.st2{fill:#008D36;stroke:#000000;stroke-width:0.5669;stroke-miterlimit:10;}
	.st3{fill:#FFFFFF;stroke:#000000;stroke-width:0.5669;stroke-miterlimit:10;}
</style>
<g id="Wasser">
	<rect class="st0" width="64" height="64"/>
</g>
<g id="Linie_1">
	<path class="Linie_x0020_1" d="M0,32h5.33c2.46-2.85,4.55-2.82,7.82,0h9.57c0.1-4.38-0.1-9.27,1.28-9.5
		c1.57-0.26,6.55,3.57,10.95,7.29c5.36-3.22,11.71-5.74,11.57-1.38c-0.05,1.39-0.12,2.58-0.19,3.59H64"/>
</g>
<g id="Linie_2">
	<path class="Linie_x0020_2" d="M0,32h5.33c2.46-2.85,4.55-2.82,7.82,0h9.57c0.1-4.38-0.1-9.27,1.28-9.5
		c1.57-0.26,6.55,3.57,10.95,7.29c5.36-3.22,11.71-5.74,11.57-1.38c-0.05,1.39-0.12,2.58-0.19,3.59H64"/>
</g>
<g id="Linie_3">
	<path class="Linie_x0020_3" d="M0,32h5.33c2.46-2.85,4.55-2.82,7.82,0h9.57c0.1-4.38-0.1-9.27,1.28-9.5
		c1.57-0.26,6.55,3.57,10.95,7.29c5.36-3.22,11.71-5.74,11.57-1.38c-0.05,1.39-0.12,2.58-0.19,3.59H64"/>
</g>
<g id="Land">
	<path class="st1" d="M0,0v32h5.33c2.46-2.85,4.55-2.82,7.82,0h9.57c0.1-4.38-0.1-9.27,1.28-9.5c1.57-0.26,6.55,3.57,10.95,7.29
		c5.36-3.22,11.71-5.74,11.57-1.38c-0.05,1.39-0.12,2.58-0.19,3.59H64V0H0z"/>
</g>
<g id="Utensilien">
</g>
<g id="Bäume">
	<path class="st2" d="M22.18,7.75c0.03-0.17,0.05-0.34,0.05-0.52c0-1.55-1.25-2.8-2.8-2.8c-1.23,0-2.26,0.8-2.64,1.9
		c-0.43-0.29-0.95-0.46-1.52-0.46c-1.5,0-2.71,1.21-2.71,2.71c0,0.6,0.2,1.15,0.53,1.6c-0.28,0.38-0.45,0.85-0.45,1.36
		c0,1.28,1.04,2.32,2.32,2.32c0.22,0,0.43-0.04,0.63-0.1c0.43,1.27,1.62,2.2,3.03,2.2c1.69,0,3.05-1.3,3.19-2.96
		c0.08,0.01,0.16,0.02,0.25,0.02c1.46,0,2.64-1.18,2.64-2.64C24.71,8.96,23.59,7.81,22.18,7.75z"/>
	<path class="st3" d="M36.98,15.23c0.37-0.35,0.75-0.61,1.1-0.72c0.02,0.37-0.08,0.82-0.28,1.28c0.16,0.72,1.15,4.34,4.85,5.31
		c-3.79-0.53-5.55-3.01-5.98-3.71c-0.34,0.31-0.69,0.53-1.01,0.63c-0.02-0.34,0.06-0.75,0.23-1.17c-0.81-0.15-3.75-0.9-5.6-4.25
		C32.52,15.71,36.25,15.34,36.98,15.23z M38.41,13.1c-0.24,0.51-0.36,1.01-0.33,1.41c0.38-0.12,0.81-0.41,1.2-0.81L38.41,13.1z"/>
	<path class="st3" d="M41.4,25.19c0.37-0.35,0.75-0.61,1.1-0.72c0.02,0.37-0.08,0.82-0.28,1.28c0.16,0.72,1.15,4.34,4.85,5.31
		c-3.79-0.53-5.55-3.01-5.98-3.71c-0.34,0.31-0.69,0.53-1.01,0.63c-0.02-0.34,0.06-0.75,0.23-1.17c-0.81-0.15-3.75-0.9-5.6-4.25
		C36.94,25.67,40.67,25.3,41.4,25.19z M42.83,23.06c-0.24,0.51-0.36,1.01-0.33,1.41c0.38-0.12,0.81-0.41,1.2-0.81L42.83,23.06z"/>
	<path class="st3" d="M19.53,41.25c0.37-0.35,0.75-0.61,1.1-0.72c0.02,0.37-0.08,0.82-0.28,1.29c0.16,0.72,1.15,4.34,4.85,5.31
		c-3.79-0.53-5.55-3.01-5.98-3.71c-0.34,0.31-0.69,0.53-1.01,0.63c-0.02-0.34,0.06-0.75,0.23-1.17c-0.81-0.15-3.75-0.9-5.6-4.25
		C15.06,41.73,18.8,41.35,19.53,41.25z M20.96,39.12c-0.24,0.51-0.36,1.01-0.33,1.41c0.38-0.12,0.81-0.41,1.2-0.81L20.96,39.12z"/>
	<path class="st3" d="M23.89,51.01c0.37-0.35,0.75-0.61,1.1-0.72c0.02,0.37-0.08,0.82-0.28,1.29c0.16,0.72,1.15,4.34,4.85,5.31
		c-3.79-0.53-5.55-3.01-5.98-3.71c-0.34,0.31-0.69,0.53-1.01,0.63c-0.02-0.34,0.06-0.75,0.23-1.17c-0.81-0.15-3.75-0.9-5.6-4.25
		C19.42,51.49,23.16,51.12,23.89,51.01z M25.32,48.88c-0.24,0.51-0.36,1.01-0.33,1.41c0.38-0.12,0.81-0.41,1.2-0.81L25.32,48.88z"/>
</g>
</svg>
