<?xml version="1.0" encoding="utf-8"?>
<!-- Generator: Adobe Illustrator 26.5.0, SVG Export Plug-In . SVG Version: 6.00 Build 0)  -->
<svg version="1.1" xmlns="http://www.w3.org/2000/svg" xmlns:xlink="http://www.w3.org/1999/xlink" x="0px" y="0px"
	 viewBox="0 0 64 64" style="enable-background:new 0 0 64 64;" xml:space="preserve">
<style type="text/css">
	.Linie_x0020_1{opacity:0.75;fill:none;stroke:#FFFFFF;stroke-width:3;stroke-miterlimit:10;}
	.Linie_x0020_2{opacity:0.45;fill:none;stroke:#FFFFFF;stroke-width:8;stroke-miterlimit:10;}
	.Linie_x0020_3{opacity:0.45;fill:none;stroke:#FFFFFF;stroke-width:16;stroke-miterlimit:10;}
	.st0{fill:#009FE3;}
	.st1{opacity:0.75;fill:none;stroke:#FFFFFF;stroke-width:1.08;stroke-miterlimit:10;}
	.st2{opacity:0.45;fill:none;stroke:#FFFFFF;stroke-width:2.88;stroke-miterlimit:10;}
	.st3{opacity:0.45;fill:none;stroke:#FFFFFF;stroke-width:5.76;stroke-miterlimit:10;}
	.st4{fill:#95C11F;stroke:#FFFFFF;stroke-width:0.072;stroke-miterlimit:10;}
	.st5{fill:#95C11F;stroke:#95C11F;stroke-width:0.2;stroke-miterlimit:10;}
	.st6{fill:#FFD854;}
	.st7{fill:#FCEA10;}
	.st8{fill:#E6332A;}
	.st9{fill:none;stroke:#000000;stroke-width:0.5669;stroke-miterlimit:10;}
	.st10{fill:#009640;}
	.st11{fill:#2D2E83;}
</style>
<g id="Wasser">
	<rect class="st0" width="64" height="64"/>
</g>
<g id="Linie_1">
	<path class="st1" d="M46.12,14.53c-1.56-1.92-2.64,0.12-2.28,2.64l3.36,1.68C50.2,19.21,47.68,16.45,46.12,14.53z"/>
	<path class="Linie_x0020_1" d="M64,32c-4.82,0-9.39,1.07-13.49,2.98c-10.09-3.04-9.2-4.62-12.96,0.5
		c-4.17,5.67-2.72,2.86-3.56,5.69s-6.54-1.17-10.38,2.49c-3.1,2.96,4.08,9.8,8.82,15.05C32.16,60.43,32,62.2,32,64"/>
</g>
<g id="Linie_2">
	<path class="st2" d="M46.12,14.53c-1.56-1.92-2.64,0.12-2.28,2.64l3.36,1.68C50.2,19.21,47.68,16.45,46.12,14.53z"/>
	<path class="Linie_x0020_2" d="M64,32c-4.82,0-9.39,1.07-13.49,2.98c-10.09-3.04-9.2-4.62-12.96,0.5
		c-4.17,5.67-2.72,2.86-3.56,5.69s-6.54-1.17-10.38,2.49c-3.1,2.96,4.08,9.8,8.82,15.05C32.16,60.43,32,62.2,32,64"/>
</g>
<g id="Linie_3">
	<path class="st3" d="M46.12,14.53c-1.56-1.92-2.64,0.12-2.28,2.64l3.36,1.68C50.2,19.21,47.68,16.45,46.12,14.53z"/>
	<path class="Linie_x0020_3" d="M64,32c-4.82,0-9.39,1.07-13.49,2.98c-10.09-3.04-9.2-4.62-12.96,0.5
		c-4.17,5.67-2.72,2.86-3.56,5.69s-6.54-1.17-10.38,2.49c-3.1,2.96,4.08,9.8,8.82,15.05C32.16,60.43,32,62.2,32,64"/>
</g>
<g id="Land">
	<path class="st4" d="M46.12,14.53c-1.56-1.92-2.64,0.12-2.28,2.64l3.36,1.68C50.2,19.21,47.68,16.45,46.12,14.53z"/>
	<path class="st5" d="M50.51,34.98c-10.09-3.04-9.2-4.62-12.96,0.5c-4.17,5.67-2.72,2.86-3.56,5.69s-6.54-1.17-10.38,2.49
		c-3.1,2.96,4.08,9.8,8.82,15.05C32.16,60.43,32,62.2,32,64h32V32C59.18,32,54.61,33.07,50.51,34.98z"/>
	<path class="st6" d="M36.92,52.94c0.54-1.92,0.54-10.6,5.83-12.7c5.29-2.1,7.02-3.65,7.76-5.25c-10.09-3.04-9.2-4.62-12.96,0.5
		c-4.17,5.67-2.72,2.86-3.56,5.69s-6.54-1.17-10.38,2.49c-3.1,2.96,4.08,9.8,8.82,15.05C35.16,56.47,36.38,54.85,36.92,52.94z"/>
</g>
<g id="Utensilien">
	<g>
		<g>
			<g>
				<polygon class="st7" points="29.48,47.33 29.44,44.43 27.41,45.31 				"/>
				<polygon class="st8" points="29.48,47.33 27.41,45.31 26.59,47.37 				"/>
				<polygon class="st8" points="29.48,47.33 29.44,44.43 31.5,45.25 				"/>
				<polygon class="st7" points="29.48,47.33 32.38,47.29 31.5,45.25 				"/>
				<polygon class="st8" points="29.48,47.33 32.38,47.29 31.56,49.34 				"/>
				<polygon class="st7" points="29.48,47.33 29.52,50.22 31.56,49.34 				"/>
				<polygon class="st8" points="29.48,47.33 29.52,50.22 27.46,49.4 				"/>
				<polygon class="st7" points="29.48,47.33 26.59,47.37 27.46,49.4 				"/>
			</g>
			<polygon class="st9" points="31.56,49.34 29.52,50.22 27.46,49.4 26.59,47.37 27.41,45.31 29.44,44.43 31.5,45.25 32.38,47.29 
							"/>
		</g>
		<path d="M29.91,47.32c0-0.23-0.19-0.42-0.43-0.42c-0.23,0-0.42,0.19-0.42,0.42c0,0.23,0.19,0.42,0.42,0.42
			C29.72,47.75,29.91,47.56,29.91,47.32z"/>
	</g>
	<g>
		<g>
			<g>
				<polygon class="st7" points="36.53,45.85 36.49,42.96 34.46,43.84 				"/>
				<polygon class="st10" points="36.53,45.85 34.46,43.84 33.64,45.89 				"/>
				<polygon class="st10" points="36.53,45.85 36.49,42.96 38.55,43.78 				"/>
				<polygon class="st7" points="36.53,45.85 39.42,45.81 38.55,43.78 				"/>
				<polygon class="st10" points="36.53,45.85 39.42,45.81 38.6,47.87 				"/>
				<polygon class="st7" points="36.53,45.85 36.57,48.75 38.6,47.87 				"/>
				<polygon class="st10" points="36.53,45.85 36.57,48.75 34.51,47.93 				"/>
				<polygon class="st7" points="36.53,45.85 33.64,45.89 34.51,47.93 				"/>
			</g>
			<polygon class="st9" points="38.6,47.87 36.57,48.75 34.51,47.93 33.64,45.89 34.46,43.84 36.49,42.96 38.55,43.78 39.42,45.81 
							"/>
		</g>
		<path d="M36.96,45.85c0-0.23-0.19-0.42-0.42-0.42c-0.23,0-0.42,0.19-0.42,0.42c0,0.23,0.19,0.42,0.42,0.42
			C36.77,46.28,36.96,46.09,36.96,45.85z"/>
	</g>
	<g>
		<g>
			<g>
				<polygon class="st7" points="40.48,37.96 40.44,35.07 38.4,35.95 				"/>
				<polygon class="st11" points="40.48,37.96 38.4,35.95 37.59,38 				"/>
				<polygon class="st11" points="40.48,37.96 40.44,35.07 42.5,35.89 				"/>
				<polygon class="st7" points="40.48,37.96 43.37,37.92 42.5,35.89 				"/>
				<polygon class="st11" points="40.48,37.96 43.37,37.92 42.55,39.98 				"/>
				<polygon class="st7" points="40.48,37.96 40.52,40.86 42.55,39.98 				"/>
				<polygon class="st11" points="40.48,37.96 40.52,40.86 38.46,40.04 				"/>
				<polygon class="st7" points="40.48,37.96 37.59,38 38.46,40.04 				"/>
			</g>
			<polygon class="st9" points="42.55,39.98 40.52,40.86 38.46,40.04 37.59,38 38.4,35.95 40.44,35.07 42.5,35.89 43.37,37.92 			
				"/>
		</g>
		<path d="M40.9,37.96c0-0.23-0.19-0.42-0.42-0.42c-0.23,0-0.43,0.19-0.43,0.42c0,0.23,0.19,0.42,0.43,0.42
			C40.71,38.39,40.9,38.2,40.9,37.96z"/>
	</g>
</g>
<g id="Bäume">
</g>
</svg>
