<?xml version="1.0" encoding="utf-8"?>
<!-- Generator: Adobe Illustrator 26.5.0, SVG Export Plug-In . SVG Version: 6.00 Build 0)  -->
<svg version="1.1" xmlns="http://www.w3.org/2000/svg" xmlns:xlink="http://www.w3.org/1999/xlink" x="0px" y="0px"
	 viewBox="0 0 64 64" style="enable-background:new 0 0 64 64;" xml:space="preserve">
<style type="text/css">
	.Linie_x0020_1{opacity:0.75;fill:none;stroke:#FFFFFF;stroke-width:3;stroke-miterlimit:10;}
	.Linie_x0020_2{opacity:0.45;fill:none;stroke:#FFFFFF;stroke-width:8;stroke-miterlimit:10;}
	.Linie_x0020_3{opacity:0.45;fill:none;stroke:#FFFFFF;stroke-width:16;stroke-miterlimit:10;}
	.st0{fill:#009FE3;}
	.st1{fill:#95C11F;stroke:#95C11F;stroke-width:0.2;stroke-miterlimit:10;}
	.st2{fill:#009FE3;stroke:#FFFFFF;stroke-width:0.2;stroke-miterlimit:10;}
	.st3{fill:#FFFFFF;stroke:#000000;stroke-width:0.5669;stroke-miterlimit:10;}
</style>
<g id="Wasser">
	<rect class="st0" width="64" height="64"/>
</g>
<g id="Linie_1">
	<path class="Linie_x0020_1" d="M32,0c0,1.71,0.93,3.46,0.39,5.04c-8.27,24.23-4.17,32.67,27.19,26.66C61.02,31.42,62.5,32,64,32"/>
</g>
<g id="Linie_2">
	<path class="Linie_x0020_2" d="M32,0c0,1.71,0.93,3.46,0.39,5.04c-8.27,24.23-4.17,32.67,27.19,26.66C61.02,31.42,62.5,32,64,32"/>
</g>
<g id="Linie_3">
	<path class="Linie_x0020_3" d="M32,0c0,1.71,0.93,3.46,0.39,5.04c-8.27,24.23-4.17,32.67,27.19,26.66C61.02,31.42,62.5,32,64,32"/>
</g>
<g id="Land">
	<path class="st1" d="M32,0c0,1.71,0.93,3.46,0.39,5.04c-8.27,24.23-4.17,32.67,27.19,26.66C61.02,31.42,62.5,32,64,32V0H32z"/>
</g>
<g id="Seen">
	<path class="st2" d="M37.44,13.77c0.13,6.66,1.79,8.32-0.13,9.99s-1.92,2.82-0.51,3.84c1.41,1.02,14.81,0.49,15.24-2.69
		C53.57,13.51,37.31,7.11,37.44,13.77z"/>
</g>
<g id="Utensilien">
	<path class="st3" d="M28.55,39.3c-0.42,0.28-0.85,0.46-1.21,0.5c0.04-0.37,0.22-0.79,0.5-1.21c-0.03-0.74-0.34-4.48-3.8-6.1
		c3.63,1.21,4.91,3.97,5.2,4.74c0.39-0.24,0.78-0.4,1.11-0.44c-0.04,0.34-0.2,0.72-0.44,1.11c0.77,0.29,3.53,1.57,4.74,5.2
		C33.03,39.64,29.29,39.33,28.55,39.3z M26.76,41.13c0.33-0.46,0.54-0.93,0.58-1.33c-0.4,0.05-0.87,0.26-1.33,0.58L26.76,41.13z"/>
	<path class="st3" d="M16.41,36.4c-0.42,0.28-0.85,0.46-1.21,0.5c0.04-0.37,0.22-0.79,0.5-1.21c-0.03-0.74-0.34-4.48-3.8-6.1
		c3.63,1.21,4.91,3.97,5.2,4.74c0.39-0.24,0.77-0.4,1.11-0.44c-0.04,0.34-0.2,0.72-0.44,1.11c0.77,0.29,3.53,1.57,4.74,5.2
		C20.89,36.74,17.15,36.43,16.41,36.4z M14.62,38.24c0.33-0.46,0.54-0.93,0.58-1.33c-0.4,0.05-0.87,0.26-1.33,0.58L14.62,38.24z"/>
	<path class="st3" d="M25.63,53.38c-0.42,0.28-0.85,0.46-1.21,0.5c0.04-0.37,0.22-0.79,0.5-1.21c-0.03-0.74-0.34-4.48-3.8-6.1
		c3.63,1.21,4.91,3.97,5.2,4.74c0.39-0.24,0.77-0.4,1.11-0.44c-0.04,0.34-0.2,0.72-0.44,1.11c0.77,0.29,3.53,1.57,4.74,5.2
		C30.11,53.72,26.37,53.4,25.63,53.38z M23.84,55.21c0.33-0.46,0.54-0.93,0.58-1.33c-0.4,0.05-0.87,0.26-1.33,0.58L23.84,55.21z"/>
</g>
<g id="Bäume">
</g>
</svg>
