<?xml version="1.0" encoding="utf-8"?>
<!-- Generator: Adobe Illustrator 26.5.0, SVG Export Plug-In . SVG Version: 6.00 Build 0)  -->
<svg version="1.1" xmlns="http://www.w3.org/2000/svg" xmlns:xlink="http://www.w3.org/1999/xlink" x="0px" y="0px"
	 viewBox="0 0 64 64" style="enable-background:new 0 0 64 64;" xml:space="preserve">
<style type="text/css">
	.Linie_x0020_1{opacity:0.75;fill:none;stroke:#FFFFFF;stroke-width:3;stroke-miterlimit:10;}
	.Linie_x0020_2{opacity:0.45;fill:none;stroke:#FFFFFF;stroke-width:8;stroke-miterlimit:10;}
	.Linie_x0020_3{opacity:0.45;fill:none;stroke:#FFFFFF;stroke-width:16;stroke-miterlimit:10;}
	.st0{fill:#009FE3;}
	.st1{fill:#95C11F;stroke:#95C11F;stroke-width:0.2;stroke-miterlimit:10;}
	.st2{fill:#BE1622;stroke:#000000;stroke-width:0.5669;stroke-miterlimit:10;}
	.st3{fill:#575756;stroke:#000000;stroke-width:0.5669;stroke-miterlimit:10;}
	.st4{fill:#008D36;stroke:#000000;stroke-width:0.5669;stroke-miterlimit:10;}
</style>
<g id="Wasser">
	<rect class="st0" width="64" height="64"/>
</g>
<g id="Linie_1">
	<path class="Linie_x0020_1" d="M0,32c8.55,0,16.31,3.36,22.05,8.83c0.31-0.32,0.62-0.67,0.9-1.08c3.41-4.85,0.15-10.24,1.74-16.59
		c1.74-6.97,6.59-7.42,16.97-8.49c-10.17,1.05-13.08,3.09-14.38,9.5c-1.38,6.79,2.52,12.68-1.15,18.68
		c-0.3,0.49-0.64,0.93-1.02,1.33c0.74,0.93,1.42,1.91,2.05,2.92c3.6,0.81,10.18-1.15,7.38,4.23c-2.34,4.5-2.57,9.81-2.56,11.82
		C31.99,63.44,32,63.72,32,64"/>
</g>
<g id="Linie_2">
	<path class="Linie_x0020_2" d="M0,32c8.55,0,16.31,3.36,22.05,8.83c0.31-0.32,0.62-0.67,0.9-1.08c3.41-4.85,0.15-10.24,1.74-16.59
		c1.74-6.97,6.59-7.42,16.97-8.49c-10.17,1.05-13.08,3.09-14.38,9.5c-1.38,6.79,2.52,12.68-1.15,18.68
		c-0.3,0.49-0.64,0.93-1.02,1.33c0.74,0.93,1.42,1.91,2.05,2.92c3.6,0.81,10.18-1.15,7.38,4.23c-2.34,4.5-2.57,9.81-2.56,11.82
		C31.99,63.44,32,63.72,32,64"/>
</g>
<g id="Linie_3">
	<path class="Linie_x0020_3" d="M0,32c8.55,0,16.31,3.36,22.05,8.83c0.31-0.32,0.62-0.67,0.9-1.08c3.41-4.85,0.15-10.24,1.74-16.59
		c1.74-6.97,6.59-7.42,16.97-8.49c-10.17,1.05-13.08,3.09-14.38,9.5c-1.38,6.79,2.52,12.68-1.15,18.68
		c-0.3,0.49-0.64,0.93-1.02,1.33c0.74,0.93,1.42,1.91,2.05,2.92c3.6,0.81,10.18-1.15,7.38,4.23c-2.34,4.5-2.57,9.81-2.56,11.82
		C31.99,63.44,32,63.72,32,64"/>
</g>
<g id="Land">
	<path class="st1" d="M0,0v32c8.55,0,16.31,3.36,22.05,8.83c0.31-0.32,0.62-0.67,0.9-1.08c3.41-4.85,0.15-10.24,1.74-16.59
		c1.74-6.97,6.59-7.42,16.97-8.49c-10.17,1.05-13.08,3.09-14.38,9.5c-1.38,6.79,2.52,12.68-1.15,18.68
		c-0.3,0.49-0.64,0.93-1.02,1.33c0.74,0.93,1.42,1.91,2.05,2.92c3.6,0.81,10.18-1.15,7.38,4.23c-2.34,4.5-2.57,9.81-2.56,11.82
		C31.99,63.44,32,63.72,32,64h32V0H0z"/>
</g>
<g id="Seen">
</g>
<g id="Utensilien">
	<g>
		<g>
			<rect x="33.33" y="27.04" class="st2" width="11.19" height="5.15"/>
			<rect x="33.33" y="32.2" class="st2" width="11.19" height="5.15"/>
		</g>
		<rect x="35.04" y="28.76" class="st3" width="2.26" height="2.26"/>
	</g>
</g>
<g id="Bäume">
	<path class="st4" d="M19.47,9.4c0.03-0.17,0.05-0.34,0.05-0.52c0-1.55-1.25-2.8-2.8-2.8c-1.23,0-2.26,0.8-2.64,1.9
		c-0.43-0.29-0.95-0.46-1.52-0.46c-1.5,0-2.71,1.21-2.71,2.71c0,0.6,0.2,1.15,0.53,1.6c-0.28,0.38-0.45,0.85-0.45,1.36
		c0,1.28,1.04,2.32,2.32,2.32c0.22,0,0.43-0.04,0.63-0.1c0.43,1.27,1.62,2.2,3.03,2.2c1.69,0,3.05-1.3,3.19-2.96
		c0.08,0.01,0.16,0.02,0.25,0.02c1.46,0,2.64-1.18,2.64-2.64C22,10.61,20.88,9.46,19.47,9.4z"/>
	<path class="st4" d="M58.64,25.1c0-0.63-0.41-1.16-0.97-1.35c0.06-0.09,0.11-0.2,0.15-0.31c0.55-0.17,0.96-0.66,0.96-1.27
		c0-0.73-0.57-1.31-1.29-1.34c0.02-0.09,0.03-0.18,0.03-0.27c0-0.79-0.64-1.43-1.43-1.43c-0.63,0-1.16,0.41-1.35,0.97
		c-0.22-0.15-0.49-0.24-0.77-0.24c-0.11,0-0.21,0.02-0.32,0.04c-0.24-0.46-0.71-0.78-1.27-0.78c-0.63,0-1.16,0.41-1.35,0.97
		c-0.22-0.15-0.49-0.24-0.77-0.24c-0.23,0-0.45,0.06-0.64,0.16c-0.21-0.53-0.72-0.9-1.33-0.9c-0.63,0-1.16,0.41-1.35,0.97
		c-0.22-0.15-0.49-0.24-0.77-0.24c-0.13,0-0.25,0.02-0.37,0.06c-0.24-0.47-0.71-0.79-1.27-0.79c-0.63,0-1.16,0.41-1.35,0.97
		c-0.22-0.15-0.49-0.24-0.77-0.24c-0.11,0-0.21,0.02-0.32,0.04c-0.24-0.46-0.71-0.78-1.26-0.78c-0.63,0-1.16,0.41-1.35,0.97
		c-0.22-0.15-0.49-0.24-0.77-0.24c-0.23,0-0.45,0.06-0.64,0.16c-0.21-0.53-0.72-0.9-1.33-0.9c-0.63,0-1.16,0.41-1.35,0.97
		c-0.22-0.15-0.49-0.24-0.77-0.24c-0.76,0-1.38,0.62-1.38,1.38c0,0.31,0.1,0.59,0.27,0.82c-0.14,0.2-0.23,0.44-0.23,0.7
		c0,0.65,0.53,1.19,1.18,1.19c0.11,0,0.22-0.02,0.33-0.05c0.22,0.65,0.83,1.12,1.55,1.12c0.78,0,1.42-0.54,1.59-1.27
		c0.18,0.12,0.39,0.2,0.62,0.2c0.11,0,0.22-0.02,0.33-0.05c0.22,0.65,0.83,1.12,1.55,1.12c0.73,0,1.33-0.47,1.55-1.13
		c0.09,0.03,0.18,0.06,0.28,0.06c0.11,0,0.22-0.02,0.33-0.05c0.22,0.65,0.83,1.12,1.55,1.12c0.73,0,1.34-0.48,1.55-1.14
		c0.11,0.03,0.22,0.07,0.34,0.07c0.11,0,0.22-0.02,0.32-0.05c0.22,0.65,0.83,1.12,1.55,1.12c0.78,0,1.42-0.54,1.59-1.27
		c0.18,0.12,0.39,0.2,0.62,0.2c0.11,0,0.22-0.02,0.32-0.05c0.22,0.65,0.83,1.12,1.55,1.12c0.29,0,0.56-0.09,0.79-0.23
		c0.04,0.73,0.56,1.33,1.26,1.49c-0.12,0.18-0.2,0.39-0.2,0.62c0,0.11,0.02,0.22,0.05,0.32c-0.65,0.22-1.12,0.83-1.12,1.55
		c0,0.73,0.47,1.33,1.13,1.55c-0.02,0.09-0.06,0.18-0.06,0.28c0,0.12,0.02,0.22,0.05,0.33c-0.65,0.22-1.12,0.83-1.12,1.55
		c0,0.73,0.48,1.34,1.14,1.55c-0.03,0.11-0.07,0.22-0.07,0.34c0,0.11,0.02,0.22,0.05,0.32c-0.65,0.22-1.12,0.83-1.12,1.55
		c0,0.78,0.55,1.42,1.27,1.59c-0.12,0.18-0.2,0.39-0.2,0.62c0,0.11,0.02,0.22,0.05,0.32c-0.65,0.22-1.12,0.83-1.12,1.55
		c0,0.72,0.47,1.33,1.13,1.54c-0.02,0.09-0.06,0.18-0.06,0.29c0,0.11,0.02,0.22,0.05,0.32c-0.65,0.22-1.12,0.83-1.12,1.55
		c0,0.86,0.67,1.56,1.51,1.63c0,0.04-0.01,0.08-0.01,0.12c0,0.74,0.6,1.35,1.35,1.35c0.73,0,1.31-0.57,1.34-1.29
		c0.09,0.02,0.18,0.03,0.27,0.03c0.79,0,1.43-0.64,1.43-1.43c0-0.63-0.41-1.16-0.97-1.35c0.15-0.22,0.24-0.49,0.24-0.77
		c0-0.11-0.02-0.21-0.04-0.32c0.46-0.24,0.78-0.71,0.78-1.27c0-0.63-0.41-1.16-0.97-1.35c0.15-0.22,0.24-0.49,0.24-0.77
		c0-0.23-0.06-0.45-0.16-0.64c0.53-0.21,0.9-0.72,0.9-1.33c0-0.63-0.41-1.16-0.97-1.35c0.15-0.22,0.24-0.49,0.24-0.77
		c0-0.13-0.02-0.25-0.06-0.37c0.47-0.24,0.79-0.71,0.79-1.27c0-0.63-0.41-1.16-0.97-1.35c0.15-0.22,0.24-0.49,0.24-0.78
		c0-0.11-0.02-0.21-0.04-0.32c0.46-0.24,0.78-0.71,0.78-1.26c0-0.63-0.41-1.16-0.97-1.35c0.15-0.22,0.24-0.49,0.24-0.77
		c0-0.23-0.06-0.45-0.16-0.64C58.26,26.22,58.64,25.71,58.64,25.1z"/>
	<path class="st4" d="M40.72,52.8c0.03-0.17,0.05-0.34,0.05-0.52c0-1.55-1.25-2.8-2.8-2.8c-1.23,0-2.26,0.8-2.64,1.9
		c-0.43-0.29-0.95-0.46-1.52-0.46c-1.5,0-2.71,1.21-2.71,2.71c0,0.6,0.2,1.15,0.53,1.6c-0.28,0.38-0.45,0.85-0.45,1.36
		c0,1.28,1.04,2.32,2.32,2.32c0.22,0,0.43-0.04,0.63-0.1c0.43,1.27,1.62,2.2,3.03,2.2c1.69,0,3.05-1.3,3.19-2.96
		c0.08,0.01,0.16,0.02,0.25,0.02c1.46,0,2.64-1.18,2.64-2.64C43.25,54.01,42.12,52.86,40.72,52.8z"/>
</g>
</svg>
