<?xml version="1.0" encoding="utf-8"?>
<!-- Generator: Adobe Illustrator 26.5.0, SVG Export Plug-In . SVG Version: 6.00 Build 0)  -->
<svg version="1.1" xmlns="http://www.w3.org/2000/svg" xmlns:xlink="http://www.w3.org/1999/xlink" x="0px" y="0px"
	 viewBox="0 0 64 64" style="enable-background:new 0 0 64 64;" xml:space="preserve">
<style type="text/css">
	.Linie_x0020_1{opacity:0.75;fill:none;stroke:#FFFFFF;stroke-width:3;stroke-miterlimit:10;}
	.Linie_x0020_2{opacity:0.45;fill:none;stroke:#FFFFFF;stroke-width:8;stroke-miterlimit:10;}
	.Linie_x0020_3{opacity:0.45;fill:none;stroke:#FFFFFF;stroke-width:16;stroke-miterlimit:10;}
	.st0{fill:#009FE3;}
	.st1{fill:#95C11F;stroke:#95C11F;stroke-width:0.2;stroke-miterlimit:10;}
	.st2{fill:#C6C6C6;stroke:#000000;stroke-width:0.5669;stroke-miterlimit:10;}
	.st3{fill:#FFFFFF;stroke:#000000;stroke-width:0.5669;stroke-miterlimit:10;}
	.st4{fill:#E6332A;stroke:#FFFFFF;stroke-width:0.5669;stroke-miterlimit:10;}
	.st5{fill:none;stroke:#000000;stroke-width:0.5669;stroke-linecap:round;stroke-miterlimit:10;}
	.st6{fill:#936037;}
</style>
<g id="Wasser">
	<rect class="st0" width="64" height="64"/>
</g>
<g id="Linie_1">
	<path class="Linie_x0020_1" d="M32,0c0,4.62,0.98,9,2.74,12.96l7.13-7.13l16.79,16.79l-6.93,6.94C55.51,31.13,59.65,32,64,32V0H32z
		"/>
</g>
<g id="Linie_2">
	<path class="Linie_x0020_2" d="M32,0c0,4.62,0.98,9,2.74,12.96l7.13-7.13l16.79,16.79l-6.93,6.94C55.51,31.13,59.65,32,64,32V0H32z
		"/>
</g>
<g id="Linie_3">
	<path class="Linie_x0020_3" d="M32,0c0,4.62,0.98,9,2.74,12.96l7.13-7.13l16.79,16.79l-6.93,6.94C55.51,31.13,59.65,32,64,32V0H32z
		"/>
</g>
<g id="Land">
	<path class="st1" d="M32,0c0,4.62,0.98,9,2.74,12.96l7.13-7.13l16.79,16.79l-6.93,6.94C55.51,31.13,59.65,32,64,32V0H32z"/>
</g>
<g id="Seen">
</g>
<g id="Utensilien">
	<g>
		<path class="st2" d="M42.32,13.68c-1.8,1.24-3.6,2.71-5.31,4.4c-6.13,6.05-9.51,13.16-9.12,18.17c5.01,0.45,12.15-2.83,18.29-8.89
			c1.71-1.69,3.21-3.47,4.47-5.26L42.32,13.68z"/>
		
			<rect x="33.69" y="19.21" transform="matrix(0.7116 -0.7026 0.7026 0.7116 -5.4163 35.1557)" class="st3" width="12.84" height="9.93"/>
		<path class="st4" d="M31.35,31.05c-0.5,0.49-0.5,1.29-0.01,1.79c0.49,0.5,1.29,0.5,1.79,0.01c0.5-0.49,0.5-1.29,0.01-1.79
			C32.64,30.57,31.84,30.57,31.35,31.05z"/>
		<line class="st5" x1="28.93" y1="35.21" x2="25.51" y2="38.59"/>
	</g>
	<rect x="42" y="12.06" transform="matrix(0.7071 -0.7071 0.7071 0.7071 4.0502 36.7252)" class="st6" width="8.72" height="2.83"/>
</g>
<g id="Bäume">
	<path class="st3" d="M25.7,49.08c-0.21,0.46-0.48,0.84-0.77,1.07c-0.16-0.33-0.22-0.79-0.21-1.3c-0.41-0.61-2.64-3.63-6.44-3.2
		c3.73-0.88,6.26,0.8,6.92,1.3c0.2-0.41,0.45-0.75,0.71-0.96c0.14,0.31,0.21,0.72,0.21,1.18c0.81-0.15,3.82-0.52,6.76,1.94
		C29.68,47.01,26.34,48.71,25.7,49.08z M25.13,51.58c0.04-0.56-0.03-1.07-0.2-1.44c-0.31,0.25-0.6,0.67-0.82,1.19L25.13,51.58z"/>
</g>
</svg>
