<?xml version="1.0" encoding="utf-8"?>
<!-- Generator: Adobe Illustrator 26.5.0, SVG Export Plug-In . SVG Version: 6.00 Build 0)  -->
<svg version="1.1" xmlns="http://www.w3.org/2000/svg" xmlns:xlink="http://www.w3.org/1999/xlink" x="0px" y="0px"
	 viewBox="0 0 64 64" style="enable-background:new 0 0 64 64;" xml:space="preserve">
<style type="text/css">
	.Linie_x0020_1{opacity:0.75;fill:none;stroke:#FFFFFF;stroke-width:3;stroke-miterlimit:10;}
	.Linie_x0020_2{opacity:0.45;fill:none;stroke:#FFFFFF;stroke-width:8;stroke-miterlimit:10;}
	.Linie_x0020_3{opacity:0.45;fill:none;stroke:#FFFFFF;stroke-width:16;stroke-miterlimit:10;}
	.st0{fill:#009FE3;}
	.st1{fill:#95C11F;stroke:#95C11F;stroke-width:0.2;stroke-miterlimit:10;}
	.st2{fill:#FFD854;stroke:#000000;stroke-width:0.5669;stroke-miterlimit:10;}
	.st3{fill:#008D36;stroke:#000000;stroke-width:0.5669;stroke-miterlimit:10;}
</style>
<g id="Wasser">
	<polyline class="st0" points="0,0 64,0 64,64 0,64 	"/>
	<rect x="0" class="st0" width="64" height="64"/>
</g>
<g id="Linie_1">
	<path class="Linie_x0020_1" d="M64,32c-7.14-0.03-9.01,5.21-19.99,9.75c-10.98,4.54-17.31-3.59-22.48-7.81
		c-5.17-4.22-16.68-2.43-21.5-1.9c-0.01,0-0.02,0-0.03,0"/>
</g>
<g id="Linie_2">
	<path class="Linie_x0020_2" d="M64,32c-7.14-0.03-9.01,5.21-19.99,9.75c-10.98,4.54-17.31-3.59-22.48-7.81
		c-5.17-4.22-16.68-2.43-21.5-1.9c-0.01,0-0.02,0-0.03,0"/>
</g>
<g id="Linie_3">
	<path class="Linie_x0020_3" d="M64,32c-7.14-0.03-9.01,5.21-19.99,9.75c-10.98,4.54-17.31-3.59-22.48-7.81
		c-5.17-4.22-16.68-2.43-21.5-1.9c-0.01,0-0.02,0-0.03,0"/>
</g>
<g id="Land">
	<path class="st1" d="M21.53,33.93c-5.17-4.22-16.68-2.43-21.5-1.9c-0.01,0-0.02,0-0.03,0V64h64V32c-7.14-0.03-9.01,5.21-19.99,9.75
		C33.04,46.28,26.7,38.16,21.53,33.93z"/>
</g>
<g id="Utensilien">
	<path class="st2" d="M34.06,17.6c0.15,0.48,0.21,0.94,0.14,1.31c-0.34-0.14-0.69-0.44-1.02-0.82c-0.71-0.18-4.39-0.93-6.92,1.94
		c2.18-3.15,5.18-3.6,6.01-3.67c-0.12-0.44-0.17-0.86-0.11-1.19c0.31,0.13,0.64,0.39,0.94,0.73c0.5-0.66,2.49-2.94,6.32-3.09
		C35.64,13.39,34.3,16.9,34.06,17.6z M35.32,19.83c-0.35-0.44-0.74-0.77-1.11-0.93c-0.07,0.4,0,0.9,0.19,1.44L35.32,19.83z"/>
	<path class="st2" d="M32.25,27.54c0.15,0.48,0.21,0.94,0.15,1.31c-0.34-0.14-0.69-0.44-1.02-0.82c-0.71-0.18-4.39-0.93-6.92,1.94
		c2.18-3.15,5.18-3.6,6-3.67c-0.12-0.44-0.17-0.86-0.11-1.19c0.31,0.13,0.64,0.39,0.94,0.73c0.5-0.66,2.49-2.94,6.32-3.09
		C33.83,23.34,32.48,26.85,32.25,27.54z M33.5,29.78c-0.35-0.44-0.74-0.77-1.11-0.93c-0.07,0.4,0,0.9,0.19,1.44L33.5,29.78z"/>
	<path class="st2" d="M30.43,37.49c0.15,0.48,0.21,0.94,0.15,1.31c-0.34-0.14-0.7-0.44-1.02-0.82c-0.71-0.18-4.39-0.93-6.92,1.94
		c2.18-3.15,5.18-3.6,6-3.67c-0.12-0.44-0.17-0.86-0.11-1.19c0.31,0.13,0.64,0.39,0.94,0.73c0.5-0.66,2.5-2.94,6.32-3.09
		C32.01,33.29,30.66,36.79,30.43,37.49z M31.69,39.73c-0.35-0.44-0.74-0.77-1.11-0.93c-0.07,0.4,0,0.9,0.19,1.44L31.69,39.73z"/>
	<path class="st2" d="M50.46,24.75c0.15,0.48,0.21,0.94,0.15,1.31c-0.34-0.14-0.69-0.44-1.02-0.82c-0.71-0.18-4.39-0.93-6.92,1.94
		c2.18-3.15,5.18-3.6,6-3.67c-0.12-0.44-0.17-0.86-0.11-1.19c0.31,0.13,0.64,0.39,0.94,0.73c0.5-0.66,2.49-2.94,6.32-3.09
		C52.04,20.55,50.69,24.06,50.46,24.75z M51.72,26.99c-0.35-0.44-0.74-0.77-1.11-0.93c-0.07,0.4,0,0.9,0.19,1.44L51.72,26.99z"/>
</g>
<g id="Bäume">
	<path class="st3" d="M35.07,53.96c0.03-0.17,0.05-0.34,0.05-0.52c0-1.55-1.25-2.8-2.8-2.8c-1.23,0-2.26,0.8-2.64,1.9
		c-0.43-0.29-0.95-0.46-1.52-0.46c-1.5,0-2.71,1.21-2.71,2.71c0,0.6,0.2,1.15,0.53,1.6c-0.28,0.38-0.45,0.85-0.45,1.36
		c0,1.28,1.04,2.32,2.32,2.32c0.22,0,0.43-0.04,0.63-0.1c0.43,1.27,1.62,2.2,3.03,2.2c1.69,0,3.05-1.3,3.19-2.96
		c0.08,0.01,0.16,0.02,0.25,0.02c1.46,0,2.64-1.18,2.64-2.64C37.6,55.16,36.47,54.02,35.07,53.96z"/>
	<path class="st3" d="M44.82,55.01c0.03-0.17,0.05-0.34,0.05-0.52c0-1.55-1.25-2.8-2.8-2.8c-1.23,0-2.26,0.8-2.64,1.9
		c-0.43-0.29-0.96-0.46-1.52-0.46c-1.5,0-2.71,1.21-2.71,2.71c0,0.6,0.2,1.15,0.53,1.6c-0.28,0.38-0.45,0.85-0.45,1.36
		c0,1.28,1.04,2.32,2.32,2.32c0.22,0,0.43-0.04,0.63-0.1c0.43,1.27,1.62,2.2,3.03,2.2c1.69,0,3.05-1.3,3.19-2.96
		c0.08,0.01,0.16,0.02,0.25,0.02c1.46,0,2.64-1.18,2.64-2.64C47.35,56.22,46.22,55.07,44.82,55.01z"/>
	<path class="st3" d="M49.29,47.95c0.03-0.17,0.05-0.34,0.05-0.52c0-1.55-1.25-2.8-2.8-2.8c-1.23,0-2.26,0.8-2.64,1.9
		c-0.43-0.29-0.95-0.46-1.52-0.46c-1.5,0-2.71,1.21-2.71,2.71c0,0.6,0.2,1.15,0.53,1.6c-0.28,0.38-0.45,0.85-0.45,1.36
		c0,1.28,1.04,2.32,2.32,2.32c0.22,0,0.43-0.04,0.63-0.1c0.43,1.27,1.62,2.2,3.03,2.2c1.69,0,3.05-1.3,3.19-2.96
		c0.08,0.01,0.16,0.02,0.25,0.02c1.46,0,2.64-1.18,2.64-2.64C51.82,49.15,50.69,48,49.29,47.95z"/>
	<path class="st3" d="M34.66,47.83c0.03-0.17,0.05-0.34,0.05-0.52c0-1.55-1.25-2.8-2.8-2.8c-1.23,0-2.26,0.8-2.64,1.9
		c-0.43-0.29-0.95-0.46-1.52-0.46c-1.5,0-2.71,1.21-2.71,2.71c0,0.6,0.2,1.15,0.53,1.6c-0.28,0.38-0.45,0.85-0.45,1.36
		c0,1.28,1.04,2.32,2.32,2.32c0.22,0,0.43-0.04,0.63-0.1c0.43,1.27,1.62,2.2,3.03,2.2c1.69,0,3.05-1.3,3.19-2.96
		c0.08,0.01,0.16,0.02,0.25,0.02c1.46,0,2.64-1.18,2.64-2.64C37.19,49.04,36.07,47.89,34.66,47.83z"/>
	<path class="st3" d="M24.37,52.73c0.03-0.17,0.05-0.34,0.05-0.52c0-1.55-1.25-2.8-2.8-2.8c-1.23,0-2.26,0.8-2.64,1.9
		c-0.43-0.29-0.95-0.46-1.52-0.46c-1.5,0-2.71,1.21-2.71,2.71c0,0.6,0.2,1.15,0.53,1.6c-0.28,0.38-0.45,0.85-0.45,1.36
		c0,1.28,1.04,2.32,2.32,2.32c0.22,0,0.43-0.04,0.63-0.1c0.43,1.27,1.62,2.2,3.03,2.2c1.69,0,3.05-1.3,3.19-2.96
		c0.08,0.01,0.16,0.02,0.25,0.02c1.46,0,2.64-1.18,2.64-2.64C26.9,53.94,25.77,52.79,24.37,52.73z"/>
</g>
</svg>
