<?xml version="1.0" encoding="utf-8"?>
<!-- Generator: Adobe Illustrator 26.5.0, SVG Export Plug-In . SVG Version: 6.00 Build 0)  -->
<svg version="1.1" xmlns="http://www.w3.org/2000/svg" xmlns:xlink="http://www.w3.org/1999/xlink" x="0px" y="0px"
	 viewBox="0 0 64 64" style="enable-background:new 0 0 64 64;" xml:space="preserve">
<style type="text/css">
	.Linie_x0020_1{opacity:0.75;fill:none;stroke:#FFFFFF;stroke-width:3;stroke-miterlimit:10;}
	.Linie_x0020_2{opacity:0.45;fill:none;stroke:#FFFFFF;stroke-width:8;stroke-miterlimit:10;}
	.Linie_x0020_3{opacity:0.45;fill:none;stroke:#FFFFFF;stroke-width:16;stroke-miterlimit:10;}
	.st0{fill:#009FE3;}
	.st1{fill:#95C11F;stroke:#95C11F;stroke-width:0.2;stroke-miterlimit:10;}
	.st2{fill:#008D36;stroke:#000000;stroke-width:0.5669;stroke-miterlimit:10;}
</style>
<g id="Wasser">
	<rect x="0" class="st0" width="64" height="64"/>
</g>
<g id="Linie_1">
	<path class="Linie_x0020_1" d="M64,32c-10.86,0-20.44-5.41-26.23-13.68c-0.18,6.54-1.67,11.65-3.48,11.65c-1.93,0-3.5-5.82-3.5-13
		c0-4.79,0.7-8.96,1.74-11.22C32.19,3.88,32,1.96,32,0"/>
</g>
<g id="Linie_2">
	<path class="Linie_x0020_2" d="M64,32c-10.86,0-20.44-5.41-26.23-13.68c-0.18,6.54-1.67,11.65-3.48,11.65c-1.93,0-3.5-5.82-3.5-13
		c0-4.79,0.7-8.96,1.74-11.22C32.19,3.88,32,1.96,32,0"/>
</g>
<g id="Linie_3">
	<path class="Linie_x0020_3" d="M64,32c-10.86,0-20.44-5.41-26.23-13.68c-0.18,6.54-1.67,11.65-3.48,11.65c-1.93,0-3.5-5.82-3.5-13
		c0-4.79,0.7-8.96,1.74-11.22C32.19,3.88,32,1.96,32,0"/>
</g>
<g id="Land">
	<path class="st1" d="M37.77,18.32c-0.18,6.54-1.67,11.65-3.48,11.65c-1.93,0-3.5-5.82-3.5-13c0-4.79,0.7-8.96,1.74-11.22
		C32.19,3.88,32,1.96,32,0H0v64h64V32C53.14,32,43.56,26.59,37.77,18.32z M41.92,39.78c-1.12,0.17-2.54-3.04-3.19-7.19
		c-0.64-4.14-0.26-7.65,0.85-7.82c1.12-0.17,2.54,3.04,3.19,7.19C43.42,36.11,43.04,39.61,41.92,39.78z M49.38,44.07
		c-0.85,0.27-2.34-2.06-3.35-5.2c-1-3.14-1.13-5.91-0.28-6.18c0.85-0.27,2.35,2.06,3.35,5.21C50.1,41.04,50.22,43.8,49.38,44.07z"/>
</g>
<g id="Utensilien">
</g>
<g id="Bäume">
	<path class="st2" d="M17.56,47.29c0.03-0.17,0.05-0.34,0.05-0.52c0-1.55-1.25-2.8-2.8-2.8c-1.23,0-2.26,0.8-2.64,1.9
		c-0.43-0.29-0.96-0.46-1.52-0.46c-1.5,0-2.71,1.21-2.71,2.71c0,0.6,0.2,1.15,0.53,1.6c-0.28,0.38-0.45,0.85-0.45,1.36
		c0,1.28,1.04,2.32,2.32,2.32c0.22,0,0.43-0.04,0.63-0.1c0.43,1.27,1.62,2.2,3.03,2.2c1.69,0,3.05-1.3,3.19-2.96
		c0.08,0.01,0.16,0.02,0.25,0.02c1.46,0,2.64-1.18,2.64-2.64C20.09,48.5,18.97,47.35,17.56,47.29z"/>
	<path class="st2" d="M18.38,40.25c0.03-0.17,0.05-0.34,0.05-0.52c0-1.55-1.25-2.8-2.8-2.8c-1.23,0-2.26,0.8-2.64,1.9
		c-0.43-0.29-0.96-0.46-1.52-0.46c-1.5,0-2.71,1.21-2.71,2.71c0,0.6,0.2,1.15,0.53,1.6c-0.28,0.38-0.45,0.85-0.45,1.36
		c0,1.28,1.04,2.32,2.32,2.32c0.22,0,0.43-0.04,0.63-0.1c0.43,1.27,1.62,2.2,3.03,2.2c1.69,0,3.05-1.3,3.19-2.96
		c0.08,0.01,0.16,0.02,0.25,0.02c1.46,0,2.64-1.18,2.64-2.64C20.91,41.46,19.78,40.31,18.38,40.25z"/>
	<path class="st2" d="M26.56,42.86c0.03-0.17,0.05-0.34,0.05-0.52c0-1.55-1.25-2.8-2.8-2.8c-1.23,0-2.26,0.8-2.64,1.9
		c-0.43-0.29-0.96-0.46-1.52-0.46c-1.5,0-2.71,1.21-2.71,2.71c0,0.6,0.2,1.15,0.53,1.6c-0.28,0.38-0.45,0.85-0.45,1.36
		c0,1.28,1.04,2.32,2.32,2.32c0.22,0,0.43-0.04,0.63-0.1c0.43,1.27,1.62,2.2,3.03,2.2c1.69,0,3.05-1.3,3.19-2.96
		c0.08,0.01,0.16,0.02,0.25,0.02c1.46,0,2.64-1.18,2.64-2.64C29.09,44.06,27.97,42.92,26.56,42.86z"/>
</g>
</svg>
