<?xml version="1.0" encoding="utf-8"?>
<!-- Generator: Adobe Illustrator 26.5.0, SVG Export Plug-In . SVG Version: 6.00 Build 0)  -->
<svg version="1.1" xmlns="http://www.w3.org/2000/svg" xmlns:xlink="http://www.w3.org/1999/xlink" x="0px" y="0px"
	 viewBox="0 0 64 64" style="enable-background:new 0 0 64 64;" xml:space="preserve">
<style type="text/css">
	.Linie_x0020_1{opacity:0.75;fill:none;stroke:#FFFFFF;stroke-width:3;stroke-miterlimit:10;}
	.Linie_x0020_2{opacity:0.45;fill:none;stroke:#FFFFFF;stroke-width:8;stroke-miterlimit:10;}
	.Linie_x0020_3{opacity:0.45;fill:none;stroke:#FFFFFF;stroke-width:16;stroke-miterlimit:10;}
	.st0{fill:#009FE3;}
	.st1{fill:#95C11F;stroke:#95C11F;stroke-width:0.2;stroke-miterlimit:10;}
	.st2{fill:#008D36;stroke:#000000;stroke-width:0.5669;stroke-miterlimit:10;}
</style>
<g id="Wasser">
	<rect x="0" class="st0" width="64" height="64"/>
</g>
<g id="Linie_1">
	<path class="Linie_x0020_1" d="M32,0c0,20.41-16.66,13.94-22.81,30.66C8.14,33.51,3.2,32,0,32"/>
	<path class="Linie_x0020_1" d="M32,64c0-17.67-12.83-32,32-32"/>
</g>
<g id="Linie_2">
	<path class="Linie_x0020_2" d="M32,0c0,20.41-16.66,13.94-22.81,30.66C8.14,33.51,3.2,32,0,32"/>
	<path class="Linie_x0020_2" d="M32,64c0-17.67-12.83-32,32-32"/>
</g>
<g id="Linie_3">
	<path class="Linie_x0020_3" d="M32,0c0,20.41-16.66,13.94-22.81,30.66C8.14,33.51,3.2,32,0,32"/>
	<path class="Linie_x0020_3" d="M32,64c0-17.67-12.83-32,32-32"/>
</g>
<g id="Land">
	<path class="st1" d="M64,32V0H32c0,20.41-16.66,13.94-22.81,30.66C8.14,33.51,3.2,32,0,32V0h0v64h32C32,46.33,19.17,32,64,32z"/>
</g>
<g id="Utensilien">
</g>
<g id="Bäume">
	<path class="st2" d="M46.47,11.32c0.03-0.17,0.05-0.34,0.05-0.52c0-1.55-1.25-2.8-2.8-2.8c-1.23,0-2.26,0.8-2.64,1.9
		c-0.43-0.29-0.96-0.46-1.52-0.46c-1.5,0-2.71,1.21-2.71,2.71c0,0.6,0.2,1.15,0.53,1.6c-0.28,0.38-0.45,0.85-0.45,1.36
		c0,1.28,1.04,2.32,2.32,2.32c0.22,0,0.43-0.04,0.63-0.1c0.43,1.27,1.62,2.2,3.03,2.2c1.69,0,3.05-1.3,3.19-2.96
		c0.08,0.01,0.16,0.02,0.25,0.02c1.46,0,2.64-1.18,2.64-2.64C49,12.53,47.87,11.38,46.47,11.32z"/>
	<path class="st2" d="M53.97,16.07c0.03-0.17,0.05-0.34,0.05-0.52c0-1.55-1.25-2.8-2.8-2.8c-1.23,0-2.26,0.8-2.64,1.9
		c-0.43-0.29-0.96-0.46-1.52-0.46c-1.5,0-2.71,1.21-2.71,2.71c0,0.6,0.2,1.15,0.53,1.6c-0.28,0.38-0.45,0.85-0.45,1.36
		c0,1.28,1.04,2.32,2.32,2.32c0.22,0,0.43-0.04,0.63-0.1c0.43,1.27,1.62,2.2,3.03,2.2c1.69,0,3.05-1.3,3.19-2.96
		c0.08,0.01,0.16,0.02,0.25,0.02c1.46,0,2.64-1.18,2.64-2.64C56.5,17.28,55.37,16.13,53.97,16.07z"/>
	<path class="st2" d="M44.64,20.75c0.03-0.17,0.05-0.34,0.05-0.52c0-1.55-1.25-2.8-2.8-2.8c-1.23,0-2.26,0.8-2.64,1.9
		c-0.43-0.29-0.96-0.46-1.52-0.46c-1.5,0-2.71,1.21-2.71,2.71c0,0.6,0.2,1.15,0.53,1.6c-0.28,0.38-0.45,0.85-0.45,1.36
		c0,1.28,1.04,2.32,2.32,2.32c0.22,0,0.43-0.04,0.63-0.1c0.43,1.27,1.62,2.2,3.03,2.2c1.69,0,3.05-1.3,3.19-2.96
		c0.08,0.01,0.16,0.02,0.25,0.02c1.46,0,2.64-1.18,2.64-2.64C47.17,21.95,46.05,20.81,44.64,20.75z"/>
	<path class="st2" d="M29.14,27.19c0.03-0.17,0.05-0.34,0.05-0.52c0-1.55-1.25-2.8-2.8-2.8c-1.23,0-2.26,0.8-2.64,1.9
		c-0.43-0.29-0.95-0.46-1.52-0.46c-1.5,0-2.71,1.21-2.71,2.71c0,0.6,0.2,1.15,0.53,1.6c-0.28,0.38-0.45,0.85-0.45,1.36
		c0,1.28,1.04,2.32,2.32,2.32c0.22,0,0.43-0.04,0.63-0.1c0.43,1.27,1.62,2.2,3.03,2.2c1.69,0,3.05-1.3,3.19-2.96
		c0.08,0.01,0.16,0.02,0.25,0.02c1.46,0,2.64-1.18,2.64-2.64C31.67,28.4,30.55,27.25,29.14,27.19z"/>
	<path class="st2" d="M22.66,43.71c0.03-0.17,0.05-0.34,0.05-0.52c0-1.55-1.25-2.8-2.8-2.8c-1.23,0-2.26,0.8-2.64,1.9
		c-0.43-0.29-0.96-0.46-1.52-0.46c-1.5,0-2.71,1.21-2.71,2.71c0,0.6,0.2,1.15,0.53,1.6c-0.28,0.38-0.45,0.85-0.45,1.36
		c0,1.28,1.04,2.32,2.32,2.32c0.22,0,0.43-0.04,0.63-0.1c0.43,1.27,1.62,2.2,3.03,2.2c1.69,0,3.05-1.3,3.19-2.96
		c0.08,0.01,0.16,0.02,0.25,0.02c1.46,0,2.64-1.18,2.64-2.64C25.19,44.91,24.07,43.76,22.66,43.71z"/>
</g>
</svg>
