<?xml version="1.0" encoding="utf-8"?>
<svg viewBox="-900 -200 1700 500" width="1700" height="500" xmlns="http://www.w3.org/2000/svg">
  <g style="" transform="matrix(-0.664354, 0, 0, 0.664354, 561.482796, 57.666798)">
    <rect x="-231.443" y="44.823" width="394.158" height="132.76" style="fill: rgb(219, 64, 64);" rx="34.208" ry="34.208"/>
    <rect x="-193.716" y="-25.223" width="356.243" height="153.937" style="fill: rgb(219, 64, 64);" rx="36.652" ry="36.652"/>
    <circle style="fill: rgb(49, 49, 49);" cx="-157.639" cy="171.882" r="42.361"/>
    <circle style="fill: rgb(138, 138, 138);" cx="-157.639" cy="171.882" r="24.442"/>
    <circle style="fill: rgb(49, 49, 49);" cx="85.076" cy="171.882" r="42.361"/>
    <circle style="fill: rgb(138, 138, 138);" cx="85.076" cy="171.882" r="24.442"/>
    <rect x="74.222" width="65.48" height="40.112" style="fill: rgb(150, 230, 255);" y="5.525"/>
    <rect x="-11.855" width="65.48" height="40.112" style="fill: rgb(150, 230, 255);" y="5.525"/>
    <rect x="-100" width="65.48" height="40.112" style="fill: rgb(150, 230, 255);" y="5.525"/>
    <rect x="-193.883" width="65.064" height="40.112" style="fill: rgb(150, 230, 255);" y="5.525"/>
    <rect x="-231.889" y="125.466" width="19.423" height="21.705" style="fill: rgb(255, 213, 0);"/>
    <rect x="155.958" y="125.466" width="7.399" height="21.705" style="fill: rgb(255, 213, 0);"/>
    <rect x="-215.724" y="-11.421" width="15.724" height="36.38" style="fill: rgb(219, 64, 64);" rx="4.316" ry="4.316"/>
    <rect x="-213.082" y="-9.263" width="33.297" height="9.263" style="fill: rgb(219, 64, 64);"/>
  </g>
  <rect x="-800" y="200" width="500" height="100" style="fill: rgb(108, 108, 108);" rx="50" ry="50" transform="matrix(-1, 0, 0, 1, 0, 0)"/>
  <rect x="-900" y="200" width="500" height="100" style="fill: rgb(108, 108, 108);" rx="50" ry="50"/>
  <path d="M -333.514 -10.456 Q -300.302 -67.981 -267.09 -10.456 L -131.001 225.256 Q -97.789 282.781 -164.213 282.781 L -436.391 282.781 Q -502.815 282.781 -469.603 225.256 Z" style="fill: rgb(90, 190, 93);"/>
  <path d="M -132.403 79.604 Q -99.191 39.746 -65.979 79.604 L 70.11 242.923 Q 103.322 282.781 36.898 282.781 L -235.28 282.781 Q -301.704 282.781 -268.492 242.923 Z" style="fill: rgb(90, 190, 93);"/>
  <path d="M 62.828 25.26 Q 96.04 -25.259 129.252 25.26 L 265.341 232.262 Q 298.553 282.781 232.129 282.781 L -40.049 282.781 Q -106.473 282.781 -73.261 232.262 Z" style="fill: rgb(90, 190, 93);"/>
  <rect x="-500" y="200" width="930.578" height="100" style="fill: rgb(90, 190, 93);"/>
  <line style="stroke-width: 5px; stroke-dasharray: 20px; stroke: rgb(0, 0, 0);" x1="-300" y1="-200" x2="-300" y2="300"/>
  <line style="stroke-width: 5px; stroke-dasharray: 20px; stroke: rgb(0, 0, 0);" x1="-100" y1="-200" x2="-100" y2="300"/>
  <line style="stroke-width: 5px; stroke-dasharray: 20px; stroke: rgb(0, 0, 0);" x1="100" y1="-200" x2="100" y2="300"/>
  <line style="stroke-width: 5px; stroke-dasharray: 20px; stroke: rgb(0, 0, 0);" x1="300" y1="-200" x2="300" y2="300"/>
  <g style="" transform="matrix(-0.664354, 0, 0, 0.664354, -691.473155, 57.666798)">
    <rect x="-231.443" y="44.823" width="394.158" height="132.76" style="fill: rgb(219, 64, 64);" rx="34.208" ry="34.208"/>
    <rect x="-193.716" y="-25.223" width="356.243" height="153.937" style="fill: rgb(219, 64, 64);" rx="36.652" ry="36.652"/>
    <circle style="fill: rgb(49, 49, 49);" cx="-157.639" cy="171.882" r="42.361"/>
    <circle style="fill: rgb(138, 138, 138);" cx="-157.639" cy="171.882" r="24.442"/>
    <circle style="fill: rgb(49, 49, 49);" cx="85.076" cy="171.882" r="42.361"/>
    <circle style="fill: rgb(138, 138, 138);" cx="85.076" cy="171.882" r="24.442"/>
    <rect x="74.222" width="65.48" height="40.112" style="fill: rgb(150, 230, 255);" y="5.525"/>
    <rect x="-11.855" width="65.48" height="40.112" style="fill: rgb(150, 230, 255);" y="5.525"/>
    <rect x="-100" width="65.48" height="40.112" style="fill: rgb(150, 230, 255);" y="5.525"/>
    <rect x="-193.883" width="65.064" height="40.112" style="fill: rgb(150, 230, 255);" y="5.525"/>
    <rect x="-231.889" y="125.466" width="19.423" height="21.705" style="fill: rgb(255, 213, 0);"/>
    <rect x="155.958" y="125.466" width="7.399" height="21.705" style="fill: rgb(255, 213, 0);"/>
    <rect x="-215.724" y="-11.421" width="15.724" height="36.38" style="fill: rgb(219, 64, 64);" rx="4.316" ry="4.316"/>
    <rect x="-213.082" y="-9.263" width="33.297" height="9.263" style="fill: rgb(219, 64, 64);"/>
  </g>
  <g transform="matrix(1.078256, 0, 0, 1.078256, -195.781909, -162.940157)" style="">
    <path d="M 206.2 127.596 L 206.889 127.596 L 272.712 69.179 L 345.019 133.351 L 336.992 133.351 L 336.992 233.351 L 206.2 233.351 L 206.2 133.351 L 200.404 133.351 L 206.2 128.207 Z" style="fill: rgb(68, 68, 68);"/>
    <path d="M 213.456 200.958 L 213.456 82.836 L 331.578 82.836 L 331.578 98.819 L 229.44 98.819 L 229.44 200.958 Z" style="fill: rgb(252, 110, 9);" transform="matrix(0.707107, 0.707107, -0.707107, 0.707107, 180.154709, -151.13795)"/>
  </g>
  <g transform="matrix(1.078256, 0, 0, 1.078256, 7.095648, -51.612111)" style="">
    <path d="M 206.2 127.596 L 206.889 127.596 L 272.712 69.179 L 345.019 133.351 L 336.992 133.351 L 336.992 233.351 L 206.2 233.351 L 206.2 133.351 L 200.404 133.351 L 206.2 128.207 Z" style="fill: rgb(68, 68, 68);"/>
    <path d="M 213.456 200.958 L 213.456 82.836 L 331.578 82.836 L 331.578 98.819 L 229.44 98.819 L 229.44 200.958 Z" style="fill: rgb(252, 110, 9);" transform="matrix(0.707107, 0.707107, -0.707107, 0.707107, 180.154709, -151.13795)"/>
  </g>
</svg>