<?xml version="1.0" encoding="utf-8"?>
<svg viewBox="-900 400 2153.31 500" width="2153.31" height="500" xmlns="http://www.w3.org/2000/svg" xmlns:bx="https://boxy-svg.com">
  <g style="" transform="matrix(-0.664354, 0, 0, 0.664354, 1014.276626, 657.666819)">
    <rect x="-231.443" y="44.823" width="394.158" height="132.76" style="fill: rgb(219, 64, 64);" rx="34.208" ry="34.208"/>
    <rect x="-193.716" y="-25.223" width="356.243" height="153.937" style="fill: rgb(219, 64, 64);" rx="36.652" ry="36.652"/>
    <circle style="fill: rgb(49, 49, 49);" cx="-157.639" cy="171.882" r="42.361"/>
    <circle style="fill: rgb(138, 138, 138);" cx="-157.639" cy="171.882" r="24.442"/>
    <circle style="fill: rgb(49, 49, 49);" cx="85.076" cy="171.882" r="42.361"/>
    <circle style="fill: rgb(138, 138, 138);" cx="85.076" cy="171.882" r="24.442"/>
    <rect x="74.222" width="65.48" height="40.112" style="fill: rgb(150, 230, 255);" y="5.525"/>
    <rect x="-11.855" width="65.48" height="40.112" style="fill: rgb(150, 230, 255);" y="5.525"/>
    <rect x="-100" width="65.48" height="40.112" style="fill: rgb(150, 230, 255);" y="5.525"/>
    <rect x="-193.883" width="65.064" height="40.112" style="fill: rgb(150, 230, 255);" y="5.525"/>
    <rect x="-231.889" y="125.466" width="19.423" height="21.705" style="fill: rgb(255, 213, 0);"/>
    <rect x="155.958" y="125.466" width="7.399" height="21.705" style="fill: rgb(255, 213, 0);"/>
    <rect x="-215.724" y="-11.421" width="15.724" height="36.38" style="fill: rgb(219, 64, 64);" rx="4.316" ry="4.316"/>
    <rect x="-213.082" y="-9.263" width="33.297" height="9.263" style="fill: rgb(219, 64, 64);"/>
  </g>
  <rect x="-1252.794" y="800" width="500" height="100" style="fill: rgb(108, 108, 108);" rx="50" ry="50" transform="matrix(-1, 0, 0, 1, 0, 0)"/>
  <rect x="-900" y="800" width="500" height="100" style="fill: rgb(108, 108, 108);" rx="50" ry="50"/>
  <path d="M -333.514 734.049 Q -300.302 704.872 -267.09 734.049 L -131.001 853.604 Q -97.789 882.781 -164.213 882.781 L -436.391 882.781 Q -502.815 882.781 -469.603 853.604 Z" style="fill: rgb(90, 190, 93);"/>
  <path d="M -132.403 679.604 Q -99.191 639.746 -65.979 679.604 L 70.11 842.923 Q 103.322 882.781 36.898 882.781 L -235.28 882.781 Q -301.704 882.781 -268.492 842.923 Z" style="fill: rgb(90, 190, 93);"/>
  <path d="M 62.828 625.26 Q 96.04 574.741 129.252 625.26 L 265.341 832.262 Q 298.553 882.781 232.129 882.781 L -40.049 882.781 Q -106.473 882.781 -73.261 832.262 Z" style="fill: rgb(90, 190, 93);"/>
  <rect x="-500" y="800" width="1400" height="100" style="fill: rgb(90, 190, 93);"/>
  <line style="stroke-width: 5px; stroke-dasharray: 20px; stroke: rgb(0, 0, 0);" x1="-300" y1="400" x2="-300" y2="900"/>
  <line style="stroke-width: 5px; stroke-dasharray: 20px; stroke: rgb(0, 0, 0);" x1="-100" y1="400" x2="-100" y2="900"/>
  <line style="stroke-width: 5px; stroke-dasharray: 20px; stroke: rgb(0, 0, 0);" x1="100" y1="400" x2="100" y2="900"/>
  <line style="stroke-width: 5px; stroke-dasharray: 20px; stroke: rgb(0, 0, 0);" x1="300" y1="400" x2="300" y2="900"/>
  <g transform="matrix(1.078256, 0, 0, 1.078256, -594.904367, 521.385994)" style="">
    <path d="M 206.2 127.596 L 206.889 127.596 L 272.712 69.179 L 345.019 133.351 L 336.992 133.351 L 336.992 233.351 L 206.2 233.351 L 206.2 133.351 L 200.404 133.351 L 206.2 128.207 Z" style="fill: rgb(68, 68, 68);"/>
    <path d="M 213.456 200.958 L 213.456 82.836 L 331.578 82.836 L 331.578 98.819 L 229.44 98.819 L 229.44 200.958 Z" style="fill: rgb(252, 110, 9);" transform="matrix(0.707107, 0.707107, -0.707107, 0.707107, 180.154709, -151.13795)"/>
  </g>
  <g transform="matrix(1.078256, 0, 0, 1.078256, -393.904364, 477.822608)" style="">
    <path d="M 206.2 127.596 L 206.889 127.596 L 272.712 69.179 L 345.019 133.351 L 336.992 133.351 L 336.992 233.351 L 206.2 233.351 L 206.2 133.351 L 200.404 133.351 L 206.2 128.207 Z" style="fill: rgb(68, 68, 68);"/>
    <path d="M 213.456 200.958 L 213.456 82.836 L 331.578 82.836 L 331.578 98.819 L 229.44 98.819 L 229.44 200.958 Z" style="fill: rgb(252, 110, 9);" transform="matrix(0.707107, 0.707107, -0.707107, 0.707107, 180.154709, -151.13795)"/>
  </g>
  <g transform="matrix(1.078256, 0, 0, 1.078256, 5.095648, 548.387887)" style="">
    <path d="M 206.2 127.596 L 206.889 127.596 L 272.712 69.179 L 345.019 133.351 L 336.992 133.351 L 336.992 233.351 L 206.2 233.351 L 206.2 133.351 L 200.404 133.351 L 206.2 128.207 Z" style="fill: rgb(68, 68, 68);"/>
    <path d="M 213.456 200.958 L 213.456 82.836 L 331.578 82.836 L 331.578 98.819 L 229.44 98.819 L 229.44 200.958 Z" style="fill: rgb(252, 110, 9);" transform="matrix(0.707107, 0.707107, -0.707107, 0.707107, 180.154709, -151.13795)"/>
  </g>
  <path d="M 468.775 661.686 Q 501.987 614.935 535.199 661.686 L 671.288 853.249 Q 704.5 900 638.076 900 L 365.898 900 Q 299.474 900 332.686 853.249 Z" style="fill: rgb(90, 190, 93);"/>
  <path d="M 668.775 584.571 Q 701.987 522.693 735.199 584.571 L 871.288 838.122 Q 904.5 900 838.076 900 L 565.898 900 Q 499.474 900 532.686 838.122 Z" style="fill: rgb(90, 190, 93);"/>
  <line style="stroke-width: 5px; stroke-dasharray: 20px; stroke: rgb(0, 0, 0);" x1="500" y1="400" x2="500" y2="900"/>
  <line style="stroke-width: 5px; stroke-dasharray: 20px; stroke: rgb(0, 0, 0);" x1="700" y1="400" x2="700" y2="900"/>
  <g transform="matrix(1.078256, 0, 0, 1.078256, 208.095645, 463.590034)" style="">
    <path d="M 206.2 127.596 L 206.889 127.596 L 272.712 69.179 L 345.019 133.351 L 336.992 133.351 L 336.992 233.351 L 206.2 233.351 L 206.2 133.351 L 200.404 133.351 L 206.2 128.207 Z" style="fill: rgb(68, 68, 68);"/>
    <path d="M 213.456 200.958 L 213.456 82.836 L 331.578 82.836 L 331.578 98.819 L 229.44 98.819 L 229.44 200.958 Z" style="fill: rgb(252, 110, 9);" transform="matrix(0.707107, 0.707107, -0.707107, 0.707107, 180.154709, -151.13795)"/>
  </g>
  <g transform="matrix(1.078256, 0, 0, 1.078256, 407.095648, 405.905188)" style="">
    <path d="M 206.2 127.596 L 206.889 127.596 L 272.712 69.179 L 345.019 133.351 L 336.992 133.351 L 336.992 233.351 L 206.2 233.351 L 206.2 133.351 L 200.404 133.351 L 206.2 128.207 Z" style="fill: rgb(68, 68, 68);"/>
    <path d="M 213.456 200.958 L 213.456 82.836 L 331.578 82.836 L 331.578 98.819 L 229.44 98.819 L 229.44 200.958 Z" style="fill: rgb(252, 110, 9);" transform="matrix(0.707107, 0.707107, -0.707107, 0.707107, 180.154709, -151.13795)"/>
  </g>
  <text style="white-space: pre; fill: rgb(51, 51, 51); font-family: Arial, sans-serif; font-size: 59.3px;" x="-650.719" y="751.106">Start</text>
  <text style="white-space: pre; fill: rgb(51, 51, 51); font-family: Arial, sans-serif; font-size: 59.3px;" x="-606.196" y="1076.028"> </text>
  <text style="white-space: pre; fill: rgb(51, 51, 51); font-family: Arial, sans-serif; font-size: 59.3px;" x="917.014" y="591.621">End</text>
  <path d="M -579.415 553.328 H -334.449 L -334.449 538.328 L -294.655 558.328 L -334.449 578.328 L -334.449 563.328 H -579.415 V 553.328 Z" style="fill: rgb(216, 216, 216); stroke: rgb(0, 0, 0);" transform="matrix(0.999935, -0.011428, 0.011428, 0.999935, -9.413347, -6.585074)" bx:shape="arrow -579.415 538.328 284.76 40 10 39.794 0 1@1ec07a80"/>
  <path d="M -291.452 550.291 H -135.839 L -135.839 535.291 L -95.839 555.291 L -135.839 575.291 L -135.839 560.291 H -291.452 V 550.291 Z" style="fill: rgb(216, 216, 216); stroke: rgb(0, 0, 0);" transform="matrix(0.988848, -0.148929, 0.148929, 0.988848, -85.949196, -37.213039)" bx:shape="arrow -291.452 535.291 195.613 40 10 40 0 1@6fbdb3e7"/>
  <path d="M -93.963 522.526 H 264.048 L 264.048 507.526 L 304.048 527.526 L 264.048 547.526 L 264.048 532.526 H -93.963 V 522.526 Z" style="fill: rgb(216, 216, 216); stroke: rgb(0, 0, 0);" transform="matrix(0.994164, 0.107881, -0.107881, 0.994164, 56.361698, 13.215572)" bx:shape="arrow -93.963 507.526 398.011 40 10 40 0 1@f845d6ed"/>
  <path d="M 297.704 572.964 H 676.521 L 676.521 557.737 L 715.988 578.04 L 676.521 598.343 L 676.521 583.116 H 297.704 V 572.964 Z" style="fill: rgb(216, 216, 216); stroke: rgb(0, 0, 0);" transform="matrix(0.956813, -0.290703, 0.290703, 0.956813, -151.071991, 103.162056)" bx:shape="arrow 297.704 557.737 418.284 40.607 10.152 39.467 0 1@ba08221a"/>
  <path d="M -570.03 444.624 H -131.963 L -131.963 429.624 L -92.386 449.624 L -131.963 469.624 L -131.963 454.624 H -570.03 V 444.624 Z" style="fill: rgb(216, 216, 216); stroke: rgb(0, 0, 0);" transform="matrix(0.999973, -0.007318, 0.007318, 0.999973, -9.399807, -4.159578)" bx:shape="arrow -570.03 429.624 477.643 40 10 39.577 0 1@da64c05c"/>
  <path d="M -80.316 441.092 H 261.017 L 261.017 426.092 L 301.017 446.092 L 261.017 466.092 L 261.017 451.092 H -80.316 V 441.092 Z" style="fill: rgb(216, 216, 216); stroke: rgb(0, 0, 0);" transform="matrix(0.999916, 0.012971, -0.012971, 0.999916, 5.779682, 1.079337)" bx:shape="arrow -80.316 426.092 381.333 40 10 40 0 1@8dfc8b2f"/>
  <path d="M 307.115 447.849 H 464.856 L 464.856 432.849 L 504.856 452.849 L 464.856 472.849 L 464.856 457.849 H 307.115 V 447.849 Z" style="fill: rgb(216, 216, 216); stroke: rgb(0, 0, 0);" transform="matrix(0.99231, -0.123778, 0.123778, 0.99231, -53.690899, 41.496437)" bx:shape="arrow 307.115 432.849 197.741 40 10 40 0 1@b12bdc83"/>
  <path d="M 708.087 451.162 H 939.051 L 939.051 436.162 L 979.051 456.162 L 939.051 476.162 L 939.051 461.162 H 708.087 V 451.162 Z" style="fill: rgb(216, 216, 216); stroke: rgb(0, 0, 0);" transform="matrix(0.957866, 0.287215, -0.287215, 0.957866, 160.85083, -184.153214)" bx:shape="arrow 708.087 436.162 270.964 40 10 40 0 1@23d19a2b"/>
  <path d="M 508.39 425.92 H 926.292 L 926.292 410.92 L 966.292 430.92 L 926.292 450.92 L 926.292 435.92 H 508.39 V 425.92 Z" style="fill: rgb(216, 216, 216); stroke: rgb(0, 0, 0);" transform="matrix(0.999985, -0.005553, 0.005553, 0.999985, -2.385249, 2.829961)" bx:shape="arrow 508.39 410.92 457.902 40 10 40 0 1@9677276b"/>
  <text style="white-space: pre; fill: rgb(51, 51, 51); font-family: Arial, sans-serif; font-size: 59.3px;" x="-644.279" y="459.683">1</text>
  <text style="white-space: pre; fill: rgb(51, 51, 51); font-family: Arial, sans-serif; font-size: 59.3px;" x="-644.709" y="577.095">2</text>
</svg>