<?xml version="1.0" encoding="utf-8"?>
<svg viewBox="-900 400 2153.31 500" width="2153.31" height="500" xmlns="http://www.w3.org/2000/svg">
  <g style="" transform="matrix(-0.664354, 0, 0, 0.664354, 1014.276626, 657.666819)">
    <rect x="-231.443" y="44.823" width="394.158" height="132.76" style="fill: rgb(219, 64, 64);" rx="34.208" ry="34.208"/>
    <rect x="-193.716" y="-25.223" width="356.243" height="153.937" style="fill: rgb(219, 64, 64);" rx="36.652" ry="36.652"/>
    <circle style="fill: rgb(49, 49, 49);" cx="-157.639" cy="171.882" r="42.361"/>
    <circle style="fill: rgb(138, 138, 138);" cx="-157.639" cy="171.882" r="24.442"/>
    <circle style="fill: rgb(49, 49, 49);" cx="85.076" cy="171.882" r="42.361"/>
    <circle style="fill: rgb(138, 138, 138);" cx="85.076" cy="171.882" r="24.442"/>
    <rect x="74.222" width="65.48" height="40.112" style="fill: rgb(150, 230, 255);" y="5.525"/>
    <rect x="-11.855" width="65.48" height="40.112" style="fill: rgb(150, 230, 255);" y="5.525"/>
    <rect x="-100" width="65.48" height="40.112" style="fill: rgb(150, 230, 255);" y="5.525"/>
    <rect x="-193.883" width="65.064" height="40.112" style="fill: rgb(150, 230, 255);" y="5.525"/>
    <rect x="-231.889" y="125.466" width="19.423" height="21.705" style="fill: rgb(255, 213, 0);"/>
    <rect x="155.958" y="125.466" width="7.399" height="21.705" style="fill: rgb(255, 213, 0);"/>
    <rect x="-215.724" y="-11.421" width="15.724" height="36.38" style="fill: rgb(219, 64, 64);" rx="4.316" ry="4.316"/>
    <rect x="-213.082" y="-9.263" width="33.297" height="9.263" style="fill: rgb(219, 64, 64);"/>
  </g>
  <rect x="-1252.794" y="800" width="500" height="100" style="fill: rgb(108, 108, 108);" rx="50" ry="50" transform="matrix(-1, 0, 0, 1, 0, 0)"/>
  <rect x="-900" y="800" width="500" height="100" style="fill: rgb(108, 108, 108);" rx="50" ry="50"/>
  <path d="M -333.514 734.049 Q -300.302 704.872 -267.09 734.049 L -131.001 853.604 Q -97.789 882.781 -164.213 882.781 L -436.391 882.781 Q -502.815 882.781 -469.603 853.604 Z" style="fill: rgb(90, 190, 93);"/>
  <path d="M -132.403 679.604 Q -99.191 639.746 -65.979 679.604 L 70.11 842.923 Q 103.322 882.781 36.898 882.781 L -235.28 882.781 Q -301.704 882.781 -268.492 842.923 Z" style="fill: rgb(90, 190, 93);"/>
  <path d="M 62.828 625.26 Q 96.04 574.741 129.252 625.26 L 265.341 832.262 Q 298.553 882.781 232.129 882.781 L -40.049 882.781 Q -106.473 882.781 -73.261 832.262 Z" style="fill: rgb(90, 190, 93);"/>
  <rect x="-500" y="800" width="1400" height="100" style="fill: rgb(90, 190, 93);"/>
  <line style="stroke-width: 5px; stroke-dasharray: 20px; stroke: rgb(0, 0, 0);" x1="-300" y1="400" x2="-300" y2="900"/>
  <line style="stroke-width: 5px; stroke-dasharray: 20px; stroke: rgb(0, 0, 0);" x1="-100" y1="400" x2="-100" y2="900"/>
  <line style="stroke-width: 5px; stroke-dasharray: 20px; stroke: rgb(0, 0, 0);" x1="100" y1="400" x2="100" y2="900"/>
  <line style="stroke-width: 5px; stroke-dasharray: 20px; stroke: rgb(0, 0, 0);" x1="300" y1="400" x2="300" y2="900"/>
  <g style="" transform="matrix(-0.664354, 0, 0, 0.664354, -691.473155, 657.666819)">
    <rect x="-231.443" y="44.823" width="394.158" height="132.76" style="fill: rgb(219, 64, 64);" rx="34.208" ry="34.208"/>
    <rect x="-193.716" y="-25.223" width="356.243" height="153.937" style="fill: rgb(219, 64, 64);" rx="36.652" ry="36.652"/>
    <circle style="fill: rgb(49, 49, 49);" cx="-157.639" cy="171.882" r="42.361"/>
    <circle style="fill: rgb(138, 138, 138);" cx="-157.639" cy="171.882" r="24.442"/>
    <circle style="fill: rgb(49, 49, 49);" cx="85.076" cy="171.882" r="42.361"/>
    <circle style="fill: rgb(138, 138, 138);" cx="85.076" cy="171.882" r="24.442"/>
    <rect x="74.222" width="65.48" height="40.112" style="fill: rgb(150, 230, 255);" y="5.525"/>
    <rect x="-11.855" width="65.48" height="40.112" style="fill: rgb(150, 230, 255);" y="5.525"/>
    <rect x="-100" width="65.48" height="40.112" style="fill: rgb(150, 230, 255);" y="5.525"/>
    <rect x="-193.883" width="65.064" height="40.112" style="fill: rgb(150, 230, 255);" y="5.525"/>
    <rect x="-231.889" y="125.466" width="19.423" height="21.705" style="fill: rgb(255, 213, 0);"/>
    <rect x="155.958" y="125.466" width="7.399" height="21.705" style="fill: rgb(255, 213, 0);"/>
    <rect x="-215.724" y="-11.421" width="15.724" height="36.38" style="fill: rgb(219, 64, 64);" rx="4.316" ry="4.316"/>
    <rect x="-213.082" y="-9.263" width="33.297" height="9.263" style="fill: rgb(219, 64, 64);"/>
  </g>
  <g transform="matrix(1.078256, 0, 0, 1.078256, -594.904367, 521.385994)" style="">
    <path d="M 206.2 127.596 L 206.889 127.596 L 272.712 69.179 L 345.019 133.351 L 336.992 133.351 L 336.992 233.351 L 206.2 233.351 L 206.2 133.351 L 200.404 133.351 L 206.2 128.207 Z" style="fill: rgb(68, 68, 68);"/>
    <path d="M 213.456 200.958 L 213.456 82.836 L 331.578 82.836 L 331.578 98.819 L 229.44 98.819 L 229.44 200.958 Z" style="fill: rgb(252, 110, 9);" transform="matrix(0.707107, 0.707107, -0.707107, 0.707107, 180.154709, -151.13795)"/>
  </g>
  <g transform="matrix(1.078256, 0, 0, 1.078256, -393.904364, 477.822608)" style="">
    <path d="M 206.2 127.596 L 206.889 127.596 L 272.712 69.179 L 345.019 133.351 L 336.992 133.351 L 336.992 233.351 L 206.2 233.351 L 206.2 133.351 L 200.404 133.351 L 206.2 128.207 Z" style="fill: rgb(68, 68, 68);"/>
    <path d="M 213.456 200.958 L 213.456 82.836 L 331.578 82.836 L 331.578 98.819 L 229.44 98.819 L 229.44 200.958 Z" style="fill: rgb(252, 110, 9);" transform="matrix(0.707107, 0.707107, -0.707107, 0.707107, 180.154709, -151.13795)"/>
  </g>
  <g transform="matrix(1.078256, 0, 0, 1.078256, 5.095648, 548.387887)" style="">
    <path d="M 206.2 127.596 L 206.889 127.596 L 272.712 69.179 L 345.019 133.351 L 336.992 133.351 L 336.992 233.351 L 206.2 233.351 L 206.2 133.351 L 200.404 133.351 L 206.2 128.207 Z" style="fill: rgb(68, 68, 68);"/>
    <path d="M 213.456 200.958 L 213.456 82.836 L 331.578 82.836 L 331.578 98.819 L 229.44 98.819 L 229.44 200.958 Z" style="fill: rgb(252, 110, 9);" transform="matrix(0.707107, 0.707107, -0.707107, 0.707107, 180.154709, -151.13795)"/>
  </g>
  <path d="M 468.775 661.686 Q 501.987 614.935 535.199 661.686 L 671.288 853.249 Q 704.5 900 638.076 900 L 365.898 900 Q 299.474 900 332.686 853.249 Z" style="fill: rgb(90, 190, 93);"/>
  <path d="M 668.775 584.571 Q 701.987 522.693 735.199 584.571 L 871.288 838.122 Q 904.5 900 838.076 900 L 565.898 900 Q 499.474 900 532.686 838.122 Z" style="fill: rgb(90, 190, 93);"/>
  <line style="stroke-width: 5px; stroke-dasharray: 20px; stroke: rgb(0, 0, 0);" x1="500" y1="400" x2="500" y2="900"/>
  <line style="stroke-width: 5px; stroke-dasharray: 20px; stroke: rgb(0, 0, 0);" x1="700" y1="400" x2="700" y2="900"/>
  <g transform="matrix(1.078256, 0, 0, 1.078256, 208.095645, 463.590034)" style="">
    <path d="M 206.2 127.596 L 206.889 127.596 L 272.712 69.179 L 345.019 133.351 L 336.992 133.351 L 336.992 233.351 L 206.2 233.351 L 206.2 133.351 L 200.404 133.351 L 206.2 128.207 Z" style="fill: rgb(68, 68, 68);"/>
    <path d="M 213.456 200.958 L 213.456 82.836 L 331.578 82.836 L 331.578 98.819 L 229.44 98.819 L 229.44 200.958 Z" style="fill: rgb(252, 110, 9);" transform="matrix(0.707107, 0.707107, -0.707107, 0.707107, 180.154709, -151.13795)"/>
  </g>
  <g transform="matrix(1.078256, 0, 0, 1.078256, 407.095648, 405.905188)" style="">
    <path d="M 206.2 127.596 L 206.889 127.596 L 272.712 69.179 L 345.019 133.351 L 336.992 133.351 L 336.992 233.351 L 206.2 233.351 L 206.2 133.351 L 200.404 133.351 L 206.2 128.207 Z" style="fill: rgb(68, 68, 68);"/>
    <path d="M 213.456 200.958 L 213.456 82.836 L 331.578 82.836 L 331.578 98.819 L 229.44 98.819 L 229.44 200.958 Z" style="fill: rgb(252, 110, 9);" transform="matrix(0.707107, 0.707107, -0.707107, 0.707107, 180.154709, -151.13795)"/>
  </g>
  <path d="M -280.739 739.136 L -286.639 723.056 L -316.879 723.056 L -322.779 739.136 L -336.219 739.136 L -309.339 668.286 L -293.669 668.286 L -266.789 739.136 L -280.739 739.136 Z M -312.699 711.646 L -290.809 711.646 L -301.709 681.516 L -312.699 711.646 Z" transform="matrix(1, 0, 0, 1, 0, 0)" style="fill: rgb(255, 255, 255); white-space: pre;"/>
  <path d="M -83.303 662.286 C -79.637 663.846 -76.853 666.053 -74.953 668.906 C -73.053 671.753 -72.103 675.213 -72.103 679.286 C -72.103 685.733 -74.443 690.653 -79.123 694.046 C -83.81 697.439 -90.597 699.136 -99.483 699.136 L -125.643 699.136 L -125.643 628.286 L -98.263 628.286 C -90.597 628.286 -84.693 629.896 -80.553 633.116 C -76.413 636.343 -74.343 640.943 -74.343 646.916 C -74.343 654.043 -77.33 659.166 -83.303 662.286 Z M -99.383 640.096 L -112.213 640.096 L -112.213 656.986 L -99.483 656.986 C -95.817 656.986 -93.07 656.243 -91.243 654.756 C -89.41 653.263 -88.493 651.089 -88.493 648.236 C -88.493 645.116 -89.29 642.979 -90.883 641.826 C -92.477 640.673 -95.31 640.096 -99.383 640.096 Z M -99.483 687.226 C -94.663 687.226 -91.253 686.529 -89.253 685.136 C -87.253 683.749 -86.253 681.359 -86.253 677.966 C -86.253 674.773 -87.32 672.429 -89.453 670.936 C -91.593 669.443 -94.903 668.696 -99.383 668.696 L -112.213 668.696 L -112.213 687.226 L -99.483 687.226 Z" transform="matrix(1, 0, 0, 1, 0, 0)" style="fill: rgb(255, 255, 255); white-space: pre;"/>
  <path d="M 306.489 766.809 C 298.689 766.809 291.989 765.316 286.389 762.329 C 280.789 759.342 276.512 755.086 273.559 749.559 C 270.605 744.026 269.129 737.559 269.129 730.159 C 269.129 722.766 270.622 716.302 273.609 710.769 C 276.595 705.236 280.939 700.976 286.639 697.989 C 292.339 695.009 299.159 693.519 307.099 693.519 C 310.425 693.519 313.702 693.839 316.929 694.479 C 320.149 695.126 323.049 696.092 325.629 697.379 L 325.629 709.799 L 325.219 709.799 C 322.645 708.306 319.849 707.186 316.829 706.439 C 313.809 705.692 310.939 705.319 308.219 705.319 C 300.485 705.319 294.395 707.459 289.949 711.739 C 285.502 716.012 283.279 722.152 283.279 730.159 C 283.279 738.099 285.452 744.209 289.799 748.489 C 294.139 752.762 300.075 754.899 307.609 754.899 C 310.529 754.899 313.499 754.442 316.519 753.529 C 319.539 752.609 322.439 751.302 325.219 749.609 L 325.629 749.609 L 325.629 762.129 C 320.202 765.249 313.822 766.809 306.489 766.809 Z" transform="matrix(1, 0, 0, 1, 0, 0)" style="fill: rgb(255, 255, 255); white-space: pre;"/>
  <path d="M 497.685 611.739 C 504.945 611.739 511.188 613.179 516.415 616.059 C 521.641 618.946 525.611 623.052 528.325 628.379 C 531.038 633.706 532.395 639.966 532.395 647.159 C 532.395 654.352 531.038 660.616 528.325 665.949 C 525.611 671.276 521.641 675.379 516.415 678.259 C 511.188 681.146 504.945 682.589 497.685 682.589 L 471.525 682.589 L 471.525 611.739 L 497.685 611.739 Z M 497.685 670.679 C 504.131 670.679 509.171 668.676 512.805 664.669 C 516.431 660.669 518.245 654.832 518.245 647.159 C 518.245 639.492 516.431 633.656 512.805 629.649 C 509.171 625.649 504.131 623.649 497.685 623.649 L 484.955 623.649 L 484.955 670.679 L 497.685 670.679 Z" style="fill: rgb(255, 255, 255); white-space: pre;"/>
  <path d="M 724.86 560.549 L 692.08 560.549 L 692.08 578.259 L 722.62 578.259 L 722.62 589.359 L 692.08 589.359 L 692.08 607.779 L 724.86 607.779 L 724.86 619.589 L 678.65 619.589 L 678.65 548.739 L 724.86 548.739 L 724.86 560.549 Z" transform="matrix(1, 0, 0, 1, 0, 0)" style="fill: rgb(255, 255, 255); white-space: pre;"/>
  <path d="M 999.403 714.922 L 984.773 714.922 L 984.773 723.252 L 996.433 723.252 L 996.433 728.202 L 984.773 728.202 L 984.773 741.022 L 978.833 741.022 L 978.833 709.702 L 999.403 709.702 Z M 1007.5 714.022 C 1006.48 714.022 1005.61 713.675 1004.89 712.982 C 1004.17 712.295 1003.81 711.399 1003.81 710.292 C 1003.81 709.179 1004.17 708.275 1004.89 707.582 C 1005.61 706.895 1006.48 706.552 1007.5 706.552 C 1008.52 706.552 1009.39 706.895 1010.11 707.582 C 1010.83 708.275 1011.19 709.179 1011.19 710.292 C 1011.19 711.399 1010.83 712.295 1010.11 712.982 C 1009.39 713.675 1008.52 714.022 1007.5 714.022 Z M 1004.53 717.572 L 1010.47 717.532 L 1010.47 741.022 L 1004.53 741.022 Z M 1030.679 716.992 C 1033.045 716.992 1034.955 717.689 1036.409 719.082 C 1037.862 720.482 1038.589 722.319 1038.589 724.592 L 1038.589 741.022 L 1032.659 741.022 L 1032.659 727.972 C 1032.659 725.932 1032.349 724.469 1031.729 723.582 C 1031.115 722.695 1030.102 722.252 1028.689 722.252 C 1027.129 722.252 1025.482 723.122 1023.749 724.862 L 1023.749 741.022 L 1017.799 741.022 L 1017.799 722.752 L 1016.809 717.532 L 1022.259 717.532 L 1023.109 720.552 C 1024.402 719.292 1025.649 718.382 1026.849 717.822 C 1028.049 717.269 1029.325 716.992 1030.679 716.992 Z M 1048.896 714.022 C 1047.876 714.022 1047.006 713.675 1046.286 712.982 C 1045.566 712.295 1045.206 711.399 1045.206 710.292 C 1045.206 709.179 1045.566 708.275 1046.286 707.582 C 1047.006 706.895 1047.876 706.552 1048.896 706.552 C 1049.916 706.552 1050.786 706.895 1051.506 707.582 C 1052.226 708.275 1052.586 709.179 1052.586 710.292 C 1052.586 711.399 1052.226 712.295 1051.506 712.982 C 1050.786 713.675 1049.916 714.022 1048.896 714.022 Z M 1045.926 717.572 L 1051.866 717.532 L 1051.866 741.022 L 1045.926 741.022 Z M 1066.034 741.562 C 1064.474 741.562 1062.944 741.345 1061.444 740.912 C 1059.944 740.472 1058.534 739.849 1057.214 739.042 L 1057.214 733.422 C 1058.654 734.502 1060.021 735.295 1061.314 735.802 C 1062.601 736.309 1063.994 736.562 1065.494 736.562 C 1067.027 736.562 1068.161 736.369 1068.894 735.982 C 1069.627 735.589 1069.994 734.989 1069.994 734.182 C 1069.994 733.402 1069.644 732.825 1068.944 732.452 C 1068.237 732.079 1067.117 731.712 1065.584 731.352 C 1063.911 730.932 1062.547 730.502 1061.494 730.062 C 1060.441 729.629 1059.534 728.919 1058.774 727.932 C 1058.007 726.939 1057.624 725.602 1057.624 723.922 C 1057.624 721.822 1058.487 720.142 1060.214 718.882 C 1061.934 717.622 1064.251 716.992 1067.164 716.992 C 1068.571 716.992 1069.874 717.149 1071.074 717.462 C 1072.274 717.775 1073.504 718.295 1074.764 719.022 L 1074.764 724.502 C 1073.477 723.609 1072.277 722.965 1071.164 722.572 C 1070.057 722.179 1068.874 721.982 1067.614 721.982 C 1066.234 721.982 1065.167 722.155 1064.414 722.502 C 1063.667 722.849 1063.294 723.352 1063.294 724.012 C 1063.294 724.672 1063.617 725.159 1064.264 725.472 C 1064.911 725.792 1065.937 726.115 1067.344 726.442 C 1069.024 726.802 1070.427 727.215 1071.554 727.682 C 1072.674 728.149 1073.641 728.899 1074.454 729.932 C 1075.261 730.965 1075.664 732.399 1075.664 734.232 C 1075.664 735.639 1075.261 736.905 1074.454 738.032 C 1073.641 739.159 1072.501 740.029 1071.034 740.642 C 1069.561 741.255 1067.894 741.562 1066.034 741.562 Z M 1094.572 716.992 C 1096.938 716.992 1098.848 717.689 1100.302 719.082 C 1101.755 720.482 1102.482 722.319 1102.482 724.592 L 1102.482 741.022 L 1096.552 741.022 L 1096.552 727.972 C 1096.552 725.932 1096.242 724.469 1095.622 723.582 C 1095.008 722.695 1093.995 722.252 1092.582 722.252 C 1090.995 722.252 1089.348 723.139 1087.642 724.912 L 1087.642 741.022 L 1081.692 741.022 L 1081.692 707.092 L 1087.642 707.092 L 1087.642 719.962 C 1088.808 718.915 1089.938 718.159 1091.032 717.692 C 1092.125 717.225 1093.305 716.992 1094.572 716.992 Z M -707.447 741.562 C -709.127 741.562 -710.91 741.335 -712.797 740.882 C -714.684 740.435 -716.467 739.822 -718.147 739.042 L -718.147 733.282 C -714.254 735.382 -710.777 736.432 -707.717 736.432 C -706.184 736.432 -704.944 736.102 -703.997 735.442 C -703.057 734.782 -702.587 733.852 -702.587 732.652 C -702.587 731.812 -702.847 731.099 -703.367 730.512 C -703.894 729.932 -704.547 729.452 -705.327 729.072 C -706.107 728.699 -707.217 728.242 -708.657 727.702 C -710.61 726.982 -712.2 726.292 -713.427 725.632 C -714.66 724.972 -715.71 724.035 -716.577 722.822 C -717.444 721.609 -717.877 720.042 -717.877 718.122 C -717.877 715.302 -716.904 713.102 -714.957 711.522 C -713.01 709.949 -710.34 709.162 -706.947 709.162 C -705.36 709.162 -703.8 709.335 -702.267 709.682 C -700.74 710.029 -699.33 710.532 -698.037 711.192 L -698.037 716.812 C -701.07 715.132 -703.997 714.292 -706.817 714.292 C -708.377 714.292 -709.597 714.569 -710.477 715.122 C -711.364 715.682 -711.807 716.469 -711.807 717.482 C -711.807 718.509 -711.35 719.312 -710.437 719.892 C -709.524 720.479 -708.104 721.119 -706.177 721.812 C -704.17 722.559 -702.524 723.279 -701.237 723.972 C -699.944 724.659 -698.824 725.655 -697.877 726.962 C -696.937 728.262 -696.434 729.949 -696.367 732.022 C -696.367 734.995 -697.374 737.329 -699.387 739.022 C -701.4 740.715 -704.087 741.562 -707.447 741.562 Z M -682.43 709.162 L -682.43 717.532 L -677.03 717.532 L -677.03 721.942 L -682.43 721.942 L -682.43 733.282 C -682.43 735.562 -681.56 736.702 -679.82 736.702 C -679.007 736.702 -678.06 736.419 -676.98 735.852 L -676.98 740.752 C -677.733 741.025 -678.43 741.229 -679.07 741.362 C -679.717 741.495 -680.447 741.562 -681.26 741.562 C -686 741.562 -688.37 738.802 -688.37 733.282 L -688.37 721.942 L -691.79 721.942 L -691.79 717.532 L -688.37 717.532 L -688.37 711.232 Z M -650.702 741.022 L -656.642 741.022 L -657.232 738.192 C -659.359 740.439 -661.922 741.562 -664.922 741.562 C -667.295 741.562 -669.222 740.949 -670.702 739.722 C -672.189 738.489 -672.932 736.865 -672.932 734.852 C -672.932 732.245 -671.965 730.215 -670.032 728.762 C -668.092 727.302 -665.292 726.572 -661.632 726.572 C -660.319 726.572 -659.002 726.635 -657.682 726.762 L -657.682 725.902 C -657.682 724.582 -658.055 723.599 -658.802 722.952 C -659.555 722.305 -660.742 721.982 -662.362 721.982 C -663.949 721.982 -665.425 722.245 -666.792 722.772 C -668.152 723.299 -669.629 724.145 -671.222 725.312 L -671.222 720.002 C -669.842 718.955 -668.402 718.192 -666.902 717.712 C -665.402 717.232 -663.752 716.992 -661.952 716.992 C -658.625 716.992 -656.082 717.705 -654.322 719.132 C -652.569 720.559 -651.692 722.635 -651.692 725.362 L -651.692 735.802 Z M -666.992 734.412 C -666.992 736.152 -666.002 737.022 -664.022 737.022 C -662.882 737.022 -661.802 736.789 -660.782 736.322 C -659.762 735.855 -658.729 735.112 -657.682 734.092 L -657.682 730.892 L -662.002 730.892 C -663.742 730.892 -665.009 731.149 -665.802 731.662 C -666.595 732.175 -666.992 733.092 -666.992 734.412 Z M -633.875 716.992 L -632.385 716.992 L -632.385 722.842 L -633.155 722.842 C -635.495 722.842 -637.398 723.485 -638.865 724.772 L -638.865 741.022 L -644.815 741.022 L -644.815 722.752 L -645.805 717.532 L -639.865 717.532 L -639.275 720.642 C -638.282 719.289 -637.382 718.342 -636.575 717.802 C -635.768 717.262 -634.868 716.992 -633.875 716.992 Z M -619.437 709.162 L -619.437 717.532 L -614.037 717.532 L -614.037 721.942 L -619.437 721.942 L -619.437 733.282 C -619.437 735.562 -618.567 736.702 -616.827 736.702 C -616.014 736.702 -615.067 736.419 -613.987 735.852 L -613.987 740.752 C -614.74 741.025 -615.437 741.229 -616.077 741.362 C -616.724 741.495 -617.454 741.562 -618.267 741.562 C -623.007 741.562 -625.377 738.802 -625.377 733.282 L -625.377 721.942 L -628.797 721.942 L -628.797 717.532 L -625.377 717.532 L -625.377 711.232 Z" style="fill: rgb(255, 255, 255); white-space: pre;"/>
</svg>