<?xml version="1.0" encoding="UTF-8" standalone="no"?>
<!DOCTYPE svg PUBLIC "-//W3C//DTD SVG 1.1//EN" "http://www.w3.org/Graphics/SVG/1.1/DTD/svg11.dtd">
<svg width="100%" height="100%" viewBox="0 0 598 236" version="1.1" xmlns="http://www.w3.org/2000/svg" xmlns:xlink="http://www.w3.org/1999/xlink" xml:space="preserve" xmlns:serif="http://www.serif.com/" style="fill-rule:evenodd;clip-rule:evenodd;stroke-linejoin:round;stroke-miterlimit:2;">
    <g transform="matrix(1,0,0,1,-1024,-81.833)">
        <g transform="matrix(1.39912,0,0,1.39912,-867.401,-645.016)">
            <path d="M1646.14,519.739C1646.14,519.739 1422.42,519.21 1374.07,519.739C1367.95,519.806 1359.55,519.675 1356,522.911C1351.93,526.622 1352.28,535.104 1352.14,541.398C1351.66,561.513 1351.88,630.598 1352.03,666.242C1352.06,671.295 1351.44,679.205 1356.64,684.347C1360.82,688.472 1367.82,687.838 1373.98,687.901C1422.38,688.397 1646.14,687.901 1646.14,687.901L1779.14,606.316L1646.14,519.739Z" style="fill:rgb(255,178,0);"/>
        </g>
        <g id="circle6" transform="matrix(0.548974,0,0,0.548974,946.714,66.1113)">
            <path d="M720.06,290.047L719.696,290.046C688.631,290.046 663.411,315.266 663.411,346.331C663.411,377.396 688.631,402.617 719.696,402.617L720.06,402.615C750.957,402.42 775.981,377.275 775.981,346.331C775.981,315.388 750.957,290.243 720.06,290.047ZM397.199,290.046C366.134,290.046 340.913,315.266 340.913,346.331C340.913,377.396 366.134,402.617 397.199,402.617C428.263,402.617 453.484,377.396 453.484,346.331C453.484,315.266 428.263,290.046 397.199,290.046ZM646.095,353.906L470.8,353.906C471.055,351.412 471.185,348.887 471.185,346.331C471.185,305.572 438.033,272.481 397.199,272.481C356.365,272.481 323.212,305.572 323.212,346.331C323.212,348.781 323.332,351.203 323.566,353.587C306.897,351.303 294.039,336.99 294.039,319.698L294.039,211.715C294.039,210.312 294.124,208.929 294.289,207.57L294.289,121.088C294.289,100.859 310.712,84.436 330.941,84.436L730.98,84.436C745.692,84.436 758.392,93.124 764.223,105.642L776.231,105.642C776.827,103.972 778.423,102.775 780.297,102.775L792.558,102.775C794.94,102.775 796.874,104.709 796.874,107.091L796.874,146.797C796.874,149.18 794.94,151.113 792.558,151.113L780.297,151.113C777.915,151.113 775.981,149.18 775.981,146.797L775.981,117.95L767.499,117.95C767.587,118.983 767.632,120.03 767.632,121.088L767.632,177.507L783.552,177.507C802.432,177.507 817.76,192.835 817.76,211.715L817.76,319.698C817.76,335.144 807.501,348.212 793.431,352.455C793.597,350.436 793.682,348.394 793.682,346.331C793.682,305.572 760.53,272.481 719.696,272.481C678.862,272.481 645.71,305.572 645.71,346.331C645.71,348.887 645.84,351.412 646.095,353.906ZM324.617,125.291L411.62,125.291L411.62,178.588L324.617,178.588L324.617,125.291ZM681.403,125.291L757.177,125.291L757.177,178.588L681.403,178.588L681.403,125.291ZM438.988,125.291L525.992,125.291L525.992,178.588L438.988,178.588L438.988,125.291ZM556.107,125.291L643.111,125.291L643.111,178.588L556.107,178.588L556.107,125.291Z" style="fill:rgb(49,49,49);"/>
        </g>
    </g>
</svg>
