<?xml version="1.0" encoding="utf-8"?>
<svg viewBox="-900 400 2153.31 500" width="2153.31" height="500" xmlns="http://www.w3.org/2000/svg">
  <g style="" transform="matrix(-0.664354, 0, 0, 0.664354, 1014.276626, 657.666819)">
    <rect x="-231.443" y="44.823" width="394.158" height="132.76" style="fill: rgb(219, 64, 64);" rx="34.208" ry="34.208"/>
    <rect x="-193.716" y="-25.223" width="356.243" height="153.937" style="fill: rgb(219, 64, 64);" rx="36.652" ry="36.652"/>
    <circle style="fill: rgb(49, 49, 49);" cx="-157.639" cy="171.882" r="42.361"/>
    <circle style="fill: rgb(138, 138, 138);" cx="-157.639" cy="171.882" r="24.442"/>
    <circle style="fill: rgb(49, 49, 49);" cx="85.076" cy="171.882" r="42.361"/>
    <circle style="fill: rgb(138, 138, 138);" cx="85.076" cy="171.882" r="24.442"/>
    <rect x="74.222" width="65.48" height="40.112" style="fill: rgb(150, 230, 255);" y="5.525"/>
    <rect x="-11.855" width="65.48" height="40.112" style="fill: rgb(150, 230, 255);" y="5.525"/>
    <rect x="-100" width="65.48" height="40.112" style="fill: rgb(150, 230, 255);" y="5.525"/>
    <rect x="-193.883" width="65.064" height="40.112" style="fill: rgb(150, 230, 255);" y="5.525"/>
    <rect x="-231.889" y="125.466" width="19.423" height="21.705" style="fill: rgb(255, 213, 0);"/>
    <rect x="155.958" y="125.466" width="7.399" height="21.705" style="fill: rgb(255, 213, 0);"/>
    <rect x="-215.724" y="-11.421" width="15.724" height="36.38" style="fill: rgb(219, 64, 64);" rx="4.316" ry="4.316"/>
    <rect x="-213.082" y="-9.263" width="33.297" height="9.263" style="fill: rgb(219, 64, 64);"/>
  </g>
  <rect x="-1252.794" y="800" width="500" height="100" style="fill: rgb(108, 108, 108);" rx="50" ry="50" transform="matrix(-1, 0, 0, 1, 0, 0)"/>
  <rect x="-900" y="800" width="500" height="100" style="fill: rgb(108, 108, 108);" rx="50" ry="50"/>
  <path d="M -333.514 734.049 Q -300.302 704.872 -267.09 734.049 L -131.001 853.604 Q -97.789 882.781 -164.213 882.781 L -436.391 882.781 Q -502.815 882.781 -469.603 853.604 Z" style="fill: rgb(90, 190, 93);"/>
  <path d="M -132.403 679.604 Q -99.191 639.746 -65.979 679.604 L 70.11 842.923 Q 103.322 882.781 36.898 882.781 L -235.28 882.781 Q -301.704 882.781 -268.492 842.923 Z" style="fill: rgb(90, 190, 93);"/>
  <path d="M 62.828 625.26 Q 96.04 574.741 129.252 625.26 L 265.341 832.262 Q 298.553 882.781 232.129 882.781 L -40.049 882.781 Q -106.473 882.781 -73.261 832.262 Z" style="fill: rgb(90, 190, 93);"/>
  <rect x="-500" y="800" width="1400" height="100" style="fill: rgb(90, 190, 93);"/>
  <line style="stroke-width: 5px; stroke-dasharray: 20px; stroke: rgb(0, 0, 0);" x1="-300" y1="400" x2="-300" y2="900"/>
  <line style="stroke-width: 5px; stroke-dasharray: 20px; stroke: rgb(0, 0, 0);" x1="-100" y1="400" x2="-100" y2="900"/>
  <line style="stroke-width: 5px; stroke-dasharray: 20px; stroke: rgb(0, 0, 0);" x1="100" y1="400" x2="100" y2="900"/>
  <line style="stroke-width: 5px; stroke-dasharray: 20px; stroke: rgb(0, 0, 0);" x1="300" y1="400" x2="300" y2="900"/>
  <g transform="matrix(1.078256, 0, 0, 1.078256, -594.904367, 521.385994)" style="">
    <path d="M 206.2 127.596 L 206.889 127.596 L 272.712 69.179 L 345.019 133.351 L 336.992 133.351 L 336.992 233.351 L 206.2 233.351 L 206.2 133.351 L 200.404 133.351 L 206.2 128.207 Z" style="fill: rgb(68, 68, 68);"/>
    <path d="M 213.456 200.958 L 213.456 82.836 L 331.578 82.836 L 331.578 98.819 L 229.44 98.819 L 229.44 200.958 Z" style="fill: rgb(252, 110, 9);" transform="matrix(0.707107, 0.707107, -0.707107, 0.707107, 180.154709, -151.13795)"/>
  </g>
  <g transform="matrix(1.078256, 0, 0, 1.078256, -393.904364, 477.822608)" style="">
    <path d="M 206.2 127.596 L 206.889 127.596 L 272.712 69.179 L 345.019 133.351 L 336.992 133.351 L 336.992 233.351 L 206.2 233.351 L 206.2 133.351 L 200.404 133.351 L 206.2 128.207 Z" style="fill: rgb(68, 68, 68);"/>
    <path d="M 213.456 200.958 L 213.456 82.836 L 331.578 82.836 L 331.578 98.819 L 229.44 98.819 L 229.44 200.958 Z" style="fill: rgb(252, 110, 9);" transform="matrix(0.707107, 0.707107, -0.707107, 0.707107, 180.154709, -151.13795)"/>
  </g>
  <g transform="matrix(1.078256, 0, 0, 1.078256, 5.095648, 548.387887)" style="">
    <path d="M 206.2 127.596 L 206.889 127.596 L 272.712 69.179 L 345.019 133.351 L 336.992 133.351 L 336.992 233.351 L 206.2 233.351 L 206.2 133.351 L 200.404 133.351 L 206.2 128.207 Z" style="fill: rgb(68, 68, 68);"/>
    <path d="M 213.456 200.958 L 213.456 82.836 L 331.578 82.836 L 331.578 98.819 L 229.44 98.819 L 229.44 200.958 Z" style="fill: rgb(252, 110, 9);" transform="matrix(0.707107, 0.707107, -0.707107, 0.707107, 180.154709, -151.13795)"/>
  </g>
  <path d="M 468.775 661.686 Q 501.987 614.935 535.199 661.686 L 671.288 853.249 Q 704.5 900 638.076 900 L 365.898 900 Q 299.474 900 332.686 853.249 Z" style="fill: rgb(90, 190, 93);"/>
  <path d="M 668.775 584.571 Q 701.987 522.693 735.199 584.571 L 871.288 838.122 Q 904.5 900 838.076 900 L 565.898 900 Q 499.474 900 532.686 838.122 Z" style="fill: rgb(90, 190, 93);"/>
  <line style="stroke-width: 5px; stroke-dasharray: 20px; stroke: rgb(0, 0, 0);" x1="500" y1="400" x2="500" y2="900"/>
  <line style="stroke-width: 5px; stroke-dasharray: 20px; stroke: rgb(0, 0, 0);" x1="700" y1="400" x2="700" y2="900"/>
  <g transform="matrix(1.078256, 0, 0, 1.078256, 208.095645, 463.590034)" style="">
    <path d="M 206.2 127.596 L 206.889 127.596 L 272.712 69.179 L 345.019 133.351 L 336.992 133.351 L 336.992 233.351 L 206.2 233.351 L 206.2 133.351 L 200.404 133.351 L 206.2 128.207 Z" style="fill: rgb(68, 68, 68);"/>
    <path d="M 213.456 200.958 L 213.456 82.836 L 331.578 82.836 L 331.578 98.819 L 229.44 98.819 L 229.44 200.958 Z" style="fill: rgb(252, 110, 9);" transform="matrix(0.707107, 0.707107, -0.707107, 0.707107, 180.154709, -151.13795)"/>
  </g>
  <g transform="matrix(1.078256, 0, 0, 1.078256, 407.095648, 405.905188)" style="">
    <path d="M 206.2 127.596 L 206.889 127.596 L 272.712 69.179 L 345.019 133.351 L 336.992 133.351 L 336.992 233.351 L 206.2 233.351 L 206.2 133.351 L 200.404 133.351 L 206.2 128.207 Z" style="fill: rgb(68, 68, 68);"/>
    <path d="M 213.456 200.958 L 213.456 82.836 L 331.578 82.836 L 331.578 98.819 L 229.44 98.819 L 229.44 200.958 Z" style="fill: rgb(252, 110, 9);" transform="matrix(0.707107, 0.707107, -0.707107, 0.707107, 180.154709, -151.13795)"/>
  </g>
  <path d="M -280.739 739.136 L -286.639 723.056 L -316.879 723.056 L -322.779 739.136 L -336.219 739.136 L -309.339 668.286 L -293.669 668.286 L -266.789 739.136 L -280.739 739.136 Z M -312.699 711.646 L -290.809 711.646 L -301.709 681.516 L -312.699 711.646 Z" transform="matrix(1, 0, 0, 1, 0, 0)" style="fill: rgb(255, 255, 255); white-space: pre;"/>
  <path d="M -83.303 662.286 C -79.637 663.846 -76.853 666.053 -74.953 668.906 C -73.053 671.753 -72.103 675.213 -72.103 679.286 C -72.103 685.733 -74.443 690.653 -79.123 694.046 C -83.81 697.439 -90.597 699.136 -99.483 699.136 L -125.643 699.136 L -125.643 628.286 L -98.263 628.286 C -90.597 628.286 -84.693 629.896 -80.553 633.116 C -76.413 636.343 -74.343 640.943 -74.343 646.916 C -74.343 654.043 -77.33 659.166 -83.303 662.286 Z M -99.383 640.096 L -112.213 640.096 L -112.213 656.986 L -99.483 656.986 C -95.817 656.986 -93.07 656.243 -91.243 654.756 C -89.41 653.263 -88.493 651.089 -88.493 648.236 C -88.493 645.116 -89.29 642.979 -90.883 641.826 C -92.477 640.673 -95.31 640.096 -99.383 640.096 Z M -99.483 687.226 C -94.663 687.226 -91.253 686.529 -89.253 685.136 C -87.253 683.749 -86.253 681.359 -86.253 677.966 C -86.253 674.773 -87.32 672.429 -89.453 670.936 C -91.593 669.443 -94.903 668.696 -99.383 668.696 L -112.213 668.696 L -112.213 687.226 L -99.483 687.226 Z" transform="matrix(1, 0, 0, 1, 0, 0)" style="fill: rgb(255, 255, 255); white-space: pre;"/>
  <path d="M 306.489 766.809 C 298.689 766.809 291.989 765.316 286.389 762.329 C 280.789 759.342 276.512 755.086 273.559 749.559 C 270.605 744.026 269.129 737.559 269.129 730.159 C 269.129 722.766 270.622 716.302 273.609 710.769 C 276.595 705.236 280.939 700.976 286.639 697.989 C 292.339 695.009 299.159 693.519 307.099 693.519 C 310.425 693.519 313.702 693.839 316.929 694.479 C 320.149 695.126 323.049 696.092 325.629 697.379 L 325.629 709.799 L 325.219 709.799 C 322.645 708.306 319.849 707.186 316.829 706.439 C 313.809 705.692 310.939 705.319 308.219 705.319 C 300.485 705.319 294.395 707.459 289.949 711.739 C 285.502 716.012 283.279 722.152 283.279 730.159 C 283.279 738.099 285.452 744.209 289.799 748.489 C 294.139 752.762 300.075 754.899 307.609 754.899 C 310.529 754.899 313.499 754.442 316.519 753.529 C 319.539 752.609 322.439 751.302 325.219 749.609 L 325.629 749.609 L 325.629 762.129 C 320.202 765.249 313.822 766.809 306.489 766.809 Z" transform="matrix(1, 0, 0, 1, 0, 0)" style="fill: rgb(255, 255, 255); white-space: pre;"/>
  <path d="M 497.685 611.739 C 504.945 611.739 511.188 613.179 516.415 616.059 C 521.641 618.946 525.611 623.052 528.325 628.379 C 531.038 633.706 532.395 639.966 532.395 647.159 C 532.395 654.352 531.038 660.616 528.325 665.949 C 525.611 671.276 521.641 675.379 516.415 678.259 C 511.188 681.146 504.945 682.589 497.685 682.589 L 471.525 682.589 L 471.525 611.739 L 497.685 611.739 Z M 497.685 670.679 C 504.131 670.679 509.171 668.676 512.805 664.669 C 516.431 660.669 518.245 654.832 518.245 647.159 C 518.245 639.492 516.431 633.656 512.805 629.649 C 509.171 625.649 504.131 623.649 497.685 623.649 L 484.955 623.649 L 484.955 670.679 L 497.685 670.679 Z" style="fill: rgb(255, 255, 255); white-space: pre;"/>
  <path d="M 724.86 560.549 L 692.08 560.549 L 692.08 578.259 L 722.62 578.259 L 722.62 589.359 L 692.08 589.359 L 692.08 607.779 L 724.86 607.779 L 724.86 619.589 L 678.65 619.589 L 678.65 548.739 L 724.86 548.739 L 724.86 560.549 Z" transform="matrix(1, 0, 0, 1, 0, 0)" style="fill: rgb(255, 255, 255); white-space: pre;"/>
  <text style="white-space: pre; fill: rgb(51, 51, 51); font-family: Arial, sans-serif; font-size: 59.3px;" x="-709.552" y="689.189">Start</text>
  <text style="white-space: pre; fill: rgb(51, 51, 51); font-family: Arial, sans-serif; font-size: 59.3px;" x="925.533" y="557.906">End</text>
</svg>