<?xml version="1.0" encoding="UTF-8" standalone="no"?>
<!DOCTYPE svg PUBLIC "-//W3C//DTD SVG 1.1//EN" "http://www.w3.org/Graphics/SVG/1.1/DTD/svg11.dtd">
<svg width="100%" height="100%" viewBox="0 0 367 364" version="1.1" xmlns="http://www.w3.org/2000/svg" xmlns:xlink="http://www.w3.org/1999/xlink" xml:space="preserve" xmlns:serif="http://www.serif.com/" style="fill-rule:evenodd;clip-rule:evenodd;">
    <g transform="matrix(1,0,0,1,-0.1,-0.1)">
        <g id="path997" transform="matrix(1,0,0,1,4.55633,3.63408)">
            <path d="M355.544,0.1L-2.326,354.336C119.673,355.129 243.79,355.132 361.698,360.294C357.144,240.13 356.437,120.056 355.544,0.1Z" style="fill:rgb(196,184,184);fill-rule:nonzero;"/>
        </g>
        <path id="path9971" serif:id="path997" d="M0.1,0.1L0.1,360.1L360.456,359.755C358.447,241.523 359.93,120.237 360.1,0.1L0.1,0.1Z" style="fill-rule:nonzero;"/>
        <path id="path4" d="M2.23,2.23L2.23,111.295C17.602,107.631 35.146,108.773 50.798,109.161C85.55,110.009 119.918,114.631 154.325,119.701C204.065,127.029 255.108,137.347 305.567,135.136C316.649,134.651 327.832,133.824 338.798,131.988C345.214,130.91 351.562,128.775 357.97,127.911L357.97,2.23L2.23,2.23Z" style="fill:rgb(34,177,76);fill-rule:nonzero;"/>
        <path id="path6" d="M2.23,239.106C13.201,236.111 23.673,232.971 35.035,231.561C59.136,228.562 83.347,230.163 107.461,231.825C139.904,234.062 172.223,238.458 204.597,241.59C242.046,245.215 280.568,247.311 317.922,241.547C331.841,239.396 344.507,234.688 357.97,231.011L357.97,130.041C351.247,130.944 344.69,133.193 337.946,134.186C320.734,136.721 303.369,137.705 285.97,137.279C221.076,135.686 157.056,120.229 92.55,113.779C70.179,111.542 48.097,111.287 25.662,111.295C20,111.299 14.257,112.02 8.621,112.544C7.168,112.676 3.645,112.45 2.669,113.681C1.327,115.381 2.23,120.285 2.23,122.372L2.23,239.106Z" style="fill:white;fill-rule:nonzero;"/>
        <path id="path8" d="M2.23,357.97L357.97,357.97L357.97,233.141C351.652,234.867 345.585,237.483 339.224,239.157C324.496,243.03 309.24,245.271 294.065,246.31C227.782,250.852 162.377,236.013 96.384,233.124C72.535,232.081 48.468,230.624 24.81,235.186C19.216,236.269 13.61,237.449 8.195,239.247C6.648,239.762 3.696,240.167 2.669,241.534C1.391,243.238 2.23,247.703 2.23,249.757L2.23,357.97Z" style="fill:rgb(34,177,76);fill-rule:nonzero;"/>
        <g id="g2517">
        </g>
        <g id="path833-5" transform="matrix(0.4,0,0,0.4,0.1,0.1)">
            <path d="M774.597,204.146L774.597,65.349" style="fill:none;fill-rule:nonzero;stroke:black;stroke-width:4.32px;"/>
        </g>
        <g transform="matrix(0.4,0,0,0.4,0.128831,2.54799)">
            <g id="path835-5" transform="matrix(0.906386,0,0,1,73.0299,6e-06)">
                <path d="M705.199,134.747L843.995,134.747" style="fill:none;fill-rule:nonzero;stroke:black;stroke-width:4.32px;"/>
            </g>
            <g transform="matrix(1,0,0,1,681.115,145.369)">
                <g id="text1836-6">
                    <text x="0px" y="0px" style="font-family:'AppleSymbols', 'Apple Symbols';font-size:39.48px;">W</text>
                </g>
            </g>
            <g transform="matrix(1,0,0,1,845.544,145.369)">
                <g id="text1850-1">
                    <text x="0px" y="0px" style="font-family:'AppleSymbols', 'Apple Symbols';font-size:39.48px;">E</text>
                </g>
            </g>
        </g>
        <g transform="matrix(0.4,0,0,0.4,305.972,19.1855)">
            <g id="text1758-8">
                <text x="0px" y="0px" style="font-family:'AppleSymbols', 'Apple Symbols';font-size:39.48px;">N</text>
            </g>
        </g>
        <g transform="matrix(0.4,0,0,0.4,306.457,94.1499)">
            <g id="text1772-7">
                <text x="0px" y="0px" style="font-family:'AppleSymbols', 'Apple Symbols';font-size:39.48px;">S</text>
            </g>
        </g>
        <g id="path2386-0" transform="matrix(0.4,0,0,0.4,0.1,0.1)">
            <path d="M788.979,86.983L774.597,62.393L760.215,86.983" style="fill:none;fill-rule:nonzero;stroke:black;stroke-width:4.32px;"/>
        </g>
    </g>
</svg>
