<?xml version="1.0" encoding="UTF-8" standalone="no"?>
<svg
   width="370"
   height="370"
   viewBox="0 0 370 370"
   version="1.1"
   xml:space="preserve"
   style="clip-rule:evenodd;fill-rule:evenodd"
   id="svg47"
   sodipodi:docname="2023-DE-04-Map_Houses-compatible.svg"
   inkscape:version="1.1.1 (3bf5ae0d25, 2021-09-20)"
   xmlns:inkscape="http://www.inkscape.org/namespaces/inkscape"
   xmlns:sodipodi="http://sodipodi.sourceforge.net/DTD/sodipodi-0.dtd"
   xmlns="http://www.w3.org/2000/svg"
   xmlns:svg="http://www.w3.org/2000/svg"
   xmlns:serif="http://www.serif.com/"><defs
   id="defs51" /><sodipodi:namedview
   id="namedview49"
   pagecolor="#ffffff"
   bordercolor="#666666"
   borderopacity="1.0"
   inkscape:pageshadow="2"
   inkscape:pageopacity="0.0"
   inkscape:pagecheckerboard="0"
   showgrid="false"
   inkscape:zoom="1.9752747"
   inkscape:cx="157.44646"
   inkscape:cy="182"
   inkscape:window-width="2048"
   inkscape:window-height="1017"
   inkscape:window-x="-8"
   inkscape:window-y="-8"
   inkscape:window-maximized="1"
   inkscape:current-layer="g45" />
    <g
   transform="translate(-0.1,-0.1)"
   id="g45">
        
        
        
        
        
        
        
        
        
        
        
        
        
    <g
   id="g843"
   transform="translate(1.922835,3.08596)"><g
     id="path997"
     transform="translate(4.55633,3.63408)">
            <path
   d="M 355.544,0.1 -2.326,354.336 c 121.999,0.793 246.116,0.796 364.024,5.958 C 357.144,240.13 356.437,120.056 355.544,0.1 Z"
   style="fill:#c4b8b8;fill-rule:nonzero"
   id="path2" />
        </g><path
     id="path9971"
     serif:id="path997"
     d="m 0.1,0.1 v 360 l 360.356,-0.345 C 358.447,241.523 359.93,120.237 360.1,0.1 Z"
     style="fill-rule:nonzero" /><rect
     id="path568"
     x="2.23"
     y="2.23"
     width="355.73999"
     height="355.73999"
     style="fill:#ffffff;fill-rule:nonzero" /><rect
     id="path570"
     x="20.124001"
     y="11.603"
     width="20.875999"
     height="20.875999"
     style="fill-rule:nonzero" /><path
     id="path574"
     d="m 111.721,173.922 v 19.598 h 19.598 v -19.598 h -19.598 m 113.326,0.853 v 22.153 h 22.154 v -22.153 z"
     style="fill-rule:nonzero" /><rect
     id="path578"
     x="256.99899"
     y="180.313"
     width="20.875999"
     height="20.875999"
     style="fill-rule:nonzero" /><rect
     id="path582"
     x="303.86301"
     y="314.08801"
     width="20.875999"
     height="21.302"
     style="fill-rule:nonzero" /><g
     id="path586"
     transform="translate(-0.109729,-7.0093)">
            <rect
   x="21.402"
   y="334.112"
   width="21.302"
   height="21.302"
   style="fill-rule:nonzero"
   id="rect11" />
        </g><path
     id="path833-5"
     style="color:#000000;clip-rule:nonzero;fill:#000000;fill-rule:nonzero;stroke-width:0.4;-inkscape-stroke:none"
     d="m 305.17422,9.88125 v 11.304688 h 1.43359 v -8.882813 l 5.9375,8.882813 h 1.53516 V 9.88125 h -1.43359 v 8.875 l -5.9375,-8.875 z m 4.76562,13.464844 -6.5,11.111328 1.49219,0.873047 4.14258,-7.083985 v 27.335938 h -24.06055 v 1.728516 h 24.06055 v 24.447265 h 1.72851 V 57.310938 h 24.53126 V 55.582422 H 310.80312 V 28.244531 l 4.14258,7.085938 1.49219,-0.873047 z m 32.58399,27.845703 c -1.5936,0 -2.89478,0.531593 -3.90235,1.595703 -1.00756,1.058969 -1.51171,2.526016 -1.51171,4.402344 0,0.99214 0.21662,1.932937 0.64843,2.822265 0.43182,0.889328 1.06638,1.591407 1.9043,2.105469 0.83792,0.514063 1.78941,0.771485 2.85352,0.771484 0.98185,0 1.89593,-0.232656 2.74414,-0.695312 0.8482,-0.467797 1.50414,-1.153844 1.96679,-2.058594 0.46266,-0.90475 0.69336,-1.929812 0.69336,-3.076172 0,-1.130937 -0.22001,-2.141922 -0.66211,-3.03125 -0.43695,-0.894468 -1.07614,-1.591203 -1.91406,-2.089843 -0.83792,-0.498641 -1.77676,-0.746094 -2.82031,-0.746094 z m -73.75586,0.199219 3,11.304687 h 1.52539 l 2.39844,-8.613281 c 0.10281,-0.364984 0.21379,-0.806969 0.33203,-1.326172 0.036,0.1645 0.15303,0.606484 0.35351,1.326172 l 2.38282,8.613281 h 1.44336 l 3.0996,-11.304687 h -1.5039 l -1.77344,7.263672 c -0.23133,0.925312 -0.41856,1.74639 -0.5625,2.460937 -0.17992,-1.249172 -0.4728,-2.583141 -0.8789,-4.001953 l -1.61915,-5.722656 h -1.80468 l -2.15235,7.634765 c -0.0514,0.185063 -0.21993,0.881797 -0.50781,2.089844 -0.13366,-0.765953 -0.29345,-1.538219 -0.47851,-2.314453 l -1.72071,-7.410156 z m 73.76172,1.08789 c 0.74539,0 1.41736,0.189907 2.01367,0.570313 0.60145,0.375265 1.0568,0.906859 1.36523,1.595703 0.31358,0.683703 0.47071,1.486078 0.47071,2.40625 0,1.454797 -0.36574,2.577484 -1.09571,3.36914 -0.72482,0.791657 -1.64959,1.1875 -2.77539,1.1875 -1.10523,10e-7 -2.02661,-0.390499 -2.76172,-1.171874 -0.72996,-0.786516 -1.09375,-1.860391 -1.09375,-3.222657 0,-1.701547 0.37982,-2.915797 1.14063,-3.640625 0.76595,-0.729969 1.67736,-1.09375 2.73633,-1.09375 z m -32.95313,32.173828 c -0.76081,0 -1.4522,0.129688 -2.07422,0.386719 -0.62201,0.257031 -1.09411,0.634172 -1.41796,1.132813 -0.32386,0.4935 -0.48633,1.025093 -0.48633,1.595703 0,0.519203 0.13236,0.990578 0.39453,1.412109 0.26731,0.416391 0.66922,0.766094 1.20898,1.048828 0.41639,0.221047 1.14519,0.457094 2.1836,0.708985 1.0384,0.24675 1.70842,0.42864 2.01172,0.546875 0.47293,0.179921 0.81195,0.404562 1.01757,0.671875 0.20563,0.262171 0.3086,0.569125 0.3086,0.923828 0,0.349562 -0.10832,0.6745 -0.32422,0.972656 -0.21077,0.293016 -0.53375,0.523719 -0.97071,0.693359 -0.43695,0.169641 -0.9411,0.253907 -1.51171,0.253907 -0.64258,0 -1.22032,-0.109032 -1.73438,-0.330079 -0.51406,-0.226187 -0.89583,-0.519062 -1.14258,-0.878906 -0.24161,-0.364984 -0.39411,-0.831015 -0.46093,-1.396484 l -1.41211,0.123047 c 0.0206,0.755672 0.2265,1.433703 0.61718,2.035156 0.39583,0.596312 0.93811,1.043641 1.62696,1.341797 0.69398,0.298156 1.55318,0.447266 2.57617,0.447266 0.80708,0 1.53125,-0.146438 2.17383,-0.439454 0.64772,-0.298156 1.14386,-0.71075 1.48828,-1.240234 0.34442,-0.534625 0.51562,-1.103625 0.51562,-1.705078 0,-0.606594 -0.15517,-1.14086 -0.46875,-1.603516 -0.31358,-0.467797 -0.80098,-0.852953 -1.45898,-1.15625 -0.45238,-0.205625 -1.28753,-0.444344 -2.50586,-0.716797 -1.21319,-0.277593 -1.96213,-0.548375 -2.25,-0.810547 -0.29302,-0.262171 -0.44141,-0.595843 -0.44141,-1.001953 0,-0.467796 0.20594,-0.866312 0.61719,-1.195312 0.41639,-0.334141 1.07767,-0.501953 1.98242,-0.501953 0.86877,0 1.52471,0.183844 1.9668,0.548828 0.44723,0.364984 0.70805,0.904594 0.78516,1.61914 l 1.43554,-0.109374 c -0.0257,-0.663141 -0.21222,-1.256907 -0.55664,-1.78125 -0.34442,-0.524344 -0.83789,-0.920188 -1.48047,-1.1875 -0.63743,-0.272454 -1.37497,-0.408204 -2.21289,-0.408204 z" /></g></g>
</svg>
