<?xml version="1.0" encoding="UTF-8" standalone="no"?>
<!DOCTYPE svg PUBLIC "-//W3C//DTD SVG 1.1//EN" "http://www.w3.org/Graphics/SVG/1.1/DTD/svg11.dtd">
<svg width="100%" height="100%" viewBox="0 0 367 364" version="1.1" xmlns="http://www.w3.org/2000/svg" xmlns:xlink="http://www.w3.org/1999/xlink" xml:space="preserve" xmlns:serif="http://www.serif.com/" style="fill-rule:evenodd;clip-rule:evenodd;">
    <g transform="matrix(1,0,0,1,-0.1,-0.1)">
        <g id="g2517" transform="matrix(0.4,0,0,0.4,0.1,0.1)">
            <g>
                <g id="path997" transform="matrix(2.5,0,0,2.5,11.1408,8.8352)">
                    <path d="M355.544,0.1L-2.326,354.336C119.673,355.129 243.79,355.132 361.698,360.294C357.144,240.13 356.437,120.056 355.544,0.1Z" style="fill:rgb(196,184,184);fill-rule:nonzero;"/>
                </g>
                <g id="path9971" serif:id="path997" transform="matrix(2.5,0,0,2.5,-0.25,-0.25)">
                    <path d="M0.1,0.1L0.1,360.1L360.456,359.755C358.447,241.523 359.93,120.237 360.1,0.1L0.1,0.1Z" style="fill-rule:nonzero;"/>
                </g>
                <g id="path719" transform="matrix(2.5,0,0,2.5,-0.25,-0.25)">
                    <path d="M64.431,2.23C67.46,16.869 75.687,30.813 83.173,43.556C95.945,65.3 110.379,86.061 124.362,107.035C141.28,132.414 157.639,158.517 170.382,186.278C175.844,198.172 178.605,211.026 183.721,222.917L184.147,222.917C184.147,206.97 186.75,190.64 188.335,174.775C191.56,142.528 195.28,110.213 207.072,79.769C214.566,60.422 224.702,42.171 234.552,23.958C238.429,16.788 243.213,9.758 246.349,2.23L64.431,2.23M191.39,357.97L357.97,357.97L357.97,2.23L277.023,2.23C275.174,2.23 272.051,1.638 270.428,2.669C268.566,3.849 267.288,6.823 266.087,8.621C262.849,13.478 259.769,18.458 256.88,23.532C245.552,43.445 236.827,64.448 229.593,86.159C200.567,173.237 198.53,267.488 191.39,357.97Z" style="fill:white;fill-rule:nonzero;"/>
                </g>
                <g id="path715" transform="matrix(2.5,0,0,2.5,-0.25,-0.25)">
                    <path d="M2.23,2.23L2.23,357.97L158.585,357.97C160.707,357.97 167.383,359.06 168.797,357.288C169.598,356.287 169.496,354.089 169.662,352.857C170.207,348.887 170.612,344.912 171.013,340.928C172.495,326.094 172.644,311.477 172.644,296.621C172.64,253.165 158.53,211.299 136.24,174.349C116.753,142.038 91.195,113.864 72.462,81.047C63.217,64.853 56.136,47.556 51.493,29.496C49.946,23.477 48.664,17.337 47.816,11.177C47.526,9.051 47.812,4.612 46.461,2.912C44.991,1.063 37.693,2.23 35.461,2.23L2.23,2.23Z" style="fill:white;fill-rule:nonzero;"/>
                </g>
                <g id="path717" transform="matrix(2.5,0,0,2.5,-0.25,-0.25)">
                    <path d="M48.668,2.23C50.036,9.596 50.675,17.056 52.353,24.384C56.55,42.687 63.298,60.273 72.232,76.786C92.639,114.516 122.837,145.864 143.734,183.295C165.922,223.044 175.891,266.649 174.783,311.958C174.412,327.006 174.489,343.242 170.94,357.97L189.26,357.97C192.34,333.613 192.114,308.733 194.445,284.266C200.111,224.783 205.607,164.967 221.276,107.035C227.922,82.465 236.473,58.113 248.163,35.461C251.827,28.359 255.764,21.359 260.003,14.585C262.487,10.615 265.993,6.606 267.65,2.23L254.443,2.23C252.867,2.23 250.464,1.796 249.067,2.669C246.148,4.492 244.039,10.751 242.416,13.733C237.555,22.671 232.843,31.716 227.85,40.573C215.682,62.161 205.59,85.431 199.86,109.591C195.011,130.058 193.149,150.972 190.661,171.792C188.744,187.794 186.857,204.26 186.273,220.36C186.128,224.369 185.502,228.272 185.549,232.289C185.562,233.261 185.327,235.182 184.096,235.429C182.729,235.702 183.044,233.406 183.116,232.715C183.504,228.843 181.855,224.518 180.897,220.786C176.794,204.84 170.088,189.464 162.739,174.775C139.963,129.219 107.342,89.78 82.206,45.686C76.642,35.93 71.065,26.288 66.817,15.863C65.569,12.787 64.41,9.673 63.46,6.491C63.119,5.345 63,3.453 61.99,2.669C59.6,0.807 51.676,2.23 48.668,2.23Z" style="fill:rgb(0,162,232);fill-rule:nonzero;"/>
                </g>
            </g>
            <path id="path833-5" d="M774.597,204.146L774.597,65.349" style="fill:none;fill-rule:nonzero;stroke:black;stroke-width:4.32px;"/>
            <g transform="matrix(1,0,0,1,0.0720784,6.11998)">
                <g id="path835-5" transform="matrix(0.906386,0,0,1,73.0299,6e-06)">
                    <path d="M705.199,134.747L843.995,134.747" style="fill:none;fill-rule:nonzero;stroke:black;stroke-width:4.32px;"/>
                </g>
                <g transform="matrix(1,0,0,1,681.115,145.369)">
                    <g id="text1836-6">
                        <text x="0px" y="0px" style="font-family:'AppleSymbols', 'Apple Symbols';font-size:39.48px;">W</text>
                    </g>
                </g>
                <g transform="matrix(1,0,0,1,845.544,145.369)">
                    <g id="text1850-1">
                        <text x="0px" y="0px" style="font-family:'AppleSymbols', 'Apple Symbols';font-size:39.48px;">E</text>
                    </g>
                </g>
            </g>
            <g transform="matrix(1,0,0,1,764.679,47.7139)">
                <g id="text1758-8">
                    <text x="0px" y="0px" style="font-family:'AppleSymbols', 'Apple Symbols';font-size:39.48px;">N</text>
                </g>
            </g>
            <g transform="matrix(1,0,0,1,765.893,235.125)">
                <g id="text1772-7">
                    <text x="0px" y="0px" style="font-family:'AppleSymbols', 'Apple Symbols';font-size:39.48px;">S</text>
                </g>
            </g>
            <path id="path2386-0" d="M788.979,86.983L774.597,62.393L760.215,86.983" style="fill:none;fill-rule:nonzero;stroke:black;stroke-width:4.32px;"/>
        </g>
    </g>
</svg>
