<?xml version="1.0" encoding="UTF-8" standalone="no"?>
<svg
   width="370"
   height="370"
   viewBox="0 0 370 370"
   version="1.1"
   xml:space="preserve"
   style="clip-rule:evenodd;fill-rule:evenodd"
   id="svg47"
   sodipodi:docname="2023-DE-04-Map_Houses.svg"
   inkscape:version="1.1.1 (3bf5ae0d25, 2021-09-20)"
   xmlns:inkscape="http://www.inkscape.org/namespaces/inkscape"
   xmlns:sodipodi="http://sodipodi.sourceforge.net/DTD/sodipodi-0.dtd"
   xmlns="http://www.w3.org/2000/svg"
   xmlns:svg="http://www.w3.org/2000/svg"
   xmlns:serif="http://www.serif.com/"><defs
   id="defs51" /><sodipodi:namedview
   id="namedview49"
   pagecolor="#ffffff"
   bordercolor="#666666"
   borderopacity="1.0"
   inkscape:pageshadow="2"
   inkscape:pageopacity="0.0"
   inkscape:pagecheckerboard="0"
   showgrid="false"
   inkscape:zoom="1.3967302"
   inkscape:cx="137.46392"
   inkscape:cy="238.77196"
   inkscape:window-width="2048"
   inkscape:window-height="1017"
   inkscape:window-x="-8"
   inkscape:window-y="-8"
   inkscape:window-maximized="1"
   inkscape:current-layer="svg47" />
    <g
   transform="translate(1.822835,2.98596)"
   id="g45">
        <g
   id="path997"
   transform="translate(4.55633,3.63408)">
            <path
   d="M 355.544,0.1 -2.326,354.336 c 121.999,0.793 246.116,0.796 364.024,5.958 C 357.144,240.13 356.437,120.056 355.544,0.1 Z"
   style="fill:#c4b8b8;fill-rule:nonzero"
   id="path2" />
        </g>
        <path
   id="path9971"
   serif:id="path997"
   d="m 0.1,0.1 v 360 l 360.356,-0.345 C 358.447,241.523 359.93,120.237 360.1,0.1 Z"
   style="fill-rule:nonzero" />
        <rect
   id="path568"
   x="2.23"
   y="2.23"
   width="355.73999"
   height="355.73999"
   style="fill:#ffffff;fill-rule:nonzero" />
        <rect
   id="path570"
   x="20.124001"
   y="11.603"
   width="20.875999"
   height="20.875999"
   style="fill-rule:nonzero" />
        <path
   id="path574"
   d="m 111.721,173.922 v 19.598 h 19.598 v -19.598 h -19.598 m 113.326,0.853 v 22.153 h 22.154 v -22.153 z"
   style="fill-rule:nonzero" />
        <rect
   id="path578"
   x="256.99899"
   y="180.313"
   width="20.875999"
   height="20.875999"
   style="fill-rule:nonzero" />
        <rect
   id="path582"
   x="303.86301"
   y="314.08801"
   width="20.875999"
   height="21.302"
   style="fill-rule:nonzero" />
        <g
   id="path586"
   transform="translate(-0.109729,-7.0093)">
            <rect
   x="21.402"
   y="334.112"
   width="21.302"
   height="21.302"
   style="fill-rule:nonzero"
   id="rect11" />
        </g>
        <g
   id="path833-5"
   transform="matrix(0.4,0,0,0.4,0.1,0.1)">
            <path
   d="M 774.597,204.146 V 65.349"
   style="fill:none;fill-rule:nonzero;stroke:#000000;stroke-width:4.32px"
   id="path14" />
        </g>
        <g
   transform="matrix(0.4,0,0,0.4,0.128831,2.54799)"
   id="g30">
            <g
   id="path835-5"
   transform="matrix(0.906386,0,0,1,73.0299,6e-6)">
                <path
   d="M 705.199,134.747 H 843.995"
   style="fill:none;fill-rule:nonzero;stroke:#000000;stroke-width:4.32px"
   id="path17" />
            </g>
            <g
   transform="translate(681.115,145.369)"
   id="g23">
                <g
   id="text1836-6">
                    <text
   x="0"
   y="0"
   style="font-size:39.48px;font-family:AppleSymbols, 'Apple Symbols'"
   id="text20">W</text>
                </g>
            </g>
            <g
   transform="translate(845.544,145.369)"
   id="g28">
                <g
   id="text1850-1">
                    <text
   x="0"
   y="0"
   style="font-size:39.48px;font-family:AppleSymbols, 'Apple Symbols'"
   id="text25">E</text>
                </g>
            </g>
        </g>
        <g
   transform="matrix(0.4,0,0,0.4,305.972,19.1855)"
   id="g35">
            <g
   id="text1758-8">
                <text
   x="0"
   y="0"
   style="font-size:39.48px;font-family:AppleSymbols, 'Apple Symbols'"
   id="text32">N</text>
            </g>
        </g>
        <g
   transform="matrix(0.4,0,0,0.4,306.457,94.1499)"
   id="g40">
            <g
   id="text1772-7">
                <text
   x="0"
   y="0"
   style="font-size:39.48px;font-family:AppleSymbols, 'Apple Symbols'"
   id="text37">S</text>
            </g>
        </g>
        <g
   id="path2386-0"
   transform="matrix(0.4,0,0,0.4,0.1,0.1)">
            <path
   d="m 788.979,86.983 -14.382,-24.59 -14.382,24.59"
   style="fill:none;fill-rule:nonzero;stroke:#000000;stroke-width:4.32px"
   id="path42" />
        </g>
    </g>
</svg>
