<?xml version="1.0" encoding="UTF-8"?>
<svg id="svg13890" width="650" height="300" version="1.1" viewBox="-32 60 816.67 300" xmlns="http://www.w3.org/2000/svg">
 <g id="ignore1">
  <rect id="rect2143" x="-8.3606" y="73.163" width="272.77" height="270.91" style="-inkscape-stroke:none;fill:#ffeeaa;font-variation-settings:normal;stop-color:#000000"/>
  <rect id="rect16191-4" class="st0" x=".32442" y="80.832" width="126.96" height="126.96" style="fill:#009fe3;stroke-width:1.9838"/>
  <rect id="rect17924-2" class="st0" x="128.8" y="209.04" width="127.04" height="127.04" style="fill:#009fe3;stroke-width:1.985"/>
  <path id="path17933-29" d="m176.44 209.04v.001h-47.64v127.04h127.04v-79.401c-16.284 0-30.42-8.0441-39.06-20.384-4.761-5.3002-7.1077-11.635-7.7863-18.685-.51895-2.8542-.79683-5.7093-.79683-8.5738z" style="-inkscape-stroke:none;color:#000000;fill:#72caf0;font-variation-settings:normal;stop-color:#000000;stroke-miterlimit:10;stroke-width:1.2381"/>
  <path id="path17930-9" d="m184.38 209.04v.001h-55.58v127.04h127.04v-71.46c-18.921 0-35.498-9.3915-45.564-23.77-3.2418-5.6801-7.2907-9.6308-8.6453-19.355l-.44829-2.4644c-.59691-3.2831-.92473-6.6162-.92473-9.9937z" style="-inkscape-stroke:none;color:#000000;fill:#b1e2f7;font-variation-settings:normal;stop-color:#000000;stroke-miterlimit:10;stroke-width:1.2381"/>
  <path id="path17927-20" d="m189.34 209.04v.001h-60.544v127.04h127.04v-66.499c-20.569 0-38.67-10.234-49.628-25.886l-5.1694-7.3803-.24762 9.0056c-.17303 6.2865-.9943 11.882-2.117 15.668-.56137 1.8931-1.2208 3.3328-1.7274 4.0745-.0472.0691-.0377.0446-.0774.0974-.0777-.0979-.0885-.0836-.19949-.25817-.56741-.89167-1.264-2.5532-1.8436-4.7046-1.1592-4.3029-1.9363-10.564-1.9363-17.474 0-9.2183 1.4875-17.344 3.1826-21.027l.39196-.85433-.16782-.92356c-.64566-3.5512-1.0034-7.1838-1.0034-10.882z" style="-inkscape-stroke:none;color:#000000;fill:#ffffff;opacity:.75;stroke-miterlimit:10;stroke-width:1.0001"/>
  <path id="path17936-9" class="st1" d="m203.77 245.4c-.35732 12.982-3.315 23.126-6.908 23.126-3.8311 0-6.9477-11.553-6.9477-25.806 0-9.5084 1.3895-17.786 3.454-22.272-.67491-3.712-1.0521-7.5233-1.0521-11.414h-63.521v127.04h127.04v-63.521c-21.558 0-40.574-10.739-52.068-27.155z" style="fill:#95c11f;stroke-miterlimit:10;stroke-width:.39701"/>
  <path id="path17940-77" class="st2" d="m163.65 302.91c.60236-2.7773-1.3046-5.772-4.0675-6.4158-2.7123-.76667-5.782.91565-6.632 3.597-2.3477-1.6554-5.9321-.97945-7.4797 1.4558-1.2674 1.8206-1.2092 4.4232.13507 6.1867-1.6098 2.0496-.93916 5.3549 1.3252 6.6376 1.074.65722 2.4327.8567 3.6374.46883.94117 3.0061 4.3126 4.9702 7.3862 4.2192 2.6789-.54772 4.7775-3.01 4.9608-5.7278 2.9583.41012 5.8313-2.2247 5.7368-5.2008.0846-2.7304-2.2819-5.1692-5.0023-5.2207z" style="fill:#008d36;stroke-miterlimit:10;stroke-width:1.1253"/>
  <path id="path17942-6" class="st2" d="m165.28 288.93c.60237-2.7773-1.3046-5.772-4.0675-6.4158-2.7123-.76667-5.782.91565-6.632 3.597-2.3477-1.6554-5.9321-.97946-7.4797 1.4558-1.2674 1.8206-1.2092 4.4232.13507 6.1867-1.6098 2.0496-.93916 5.3549 1.3252 6.6376 1.074.65721 2.4327.85669 3.6374.46882.94116 3.0061 4.3126 4.9702 7.3862 4.2192 2.6789-.54772 4.7775-3.01 4.9608-5.7278 2.9583.41011 5.8313-2.2247 5.7368-5.2008.0808-2.7273-2.2867-5.1632-5.0023-5.2207z" style="fill:#005822;stroke-miterlimit:10;stroke-width:1.1253"/>
  <path id="path17944-3" class="st2" d="m181.52 294.12c.60235-2.7773-1.3046-5.772-4.0675-6.4158-2.7123-.76667-5.782.91564-6.632 3.597-2.3477-1.6554-5.9321-.97945-7.4797 1.4558-1.2674 1.8206-1.2092 4.4232.13508 6.1867-1.6099 2.0496-.93917 5.3549 1.3252 6.6376 1.074.65721 2.4327.85669 3.6374.46882.94116 3.0061 4.3126 4.9702 7.3862 4.2192 2.6789-.54772 4.7775-3.01 4.9608-5.7278 2.9583.41011 5.8313-2.2247 5.7368-5.2008.09-2.7347-2.2784-5.1728-5.0023-5.2207z" style="fill:#00b345;stroke-miterlimit:10;stroke-width:1.1253"/>
  <path id="path6226-8" d="m219.94 273.89c1.7247.0894 4.4584 4.5201 6.3194 10.382 1.985 6.233 2.2237 11.712.55625 12.248-1.6873.53596-4.6454-4.0892-6.6504-10.322-1.985-6.233-2.2435-11.731-.55625-12.267.10546-.0335.21596-.047.33093-.0411z" style="-inkscape-stroke:none;color:#000000;fill:#009fe3;font-variation-settings:normal;stop-color:#000000;stroke-width:1.985"/>
  <path id="path6224-9" d="m207.37 258.21c2.2232-.33745 5.042 6.0344 6.3323 14.272 1.2903 8.2379.53572 15.186-1.6875 15.523-2.2233.33747-5.0421-6.0356-6.3323-14.274-1.2704-8.2181-.51588-15.185 1.6875-15.522z" style="-inkscape-stroke:none;color:#000000;fill:#009fe3;font-variation-settings:normal;stop-color:#000000;stroke-width:1.985"/>
  <path id="path26-2-6-4" d="m158.9 227.11c2.4612-.41918 4.7003-.41226 6.8215.92299.22654-.33693.74261-.39111 1.3538-.39604l.61613-.25744-.24384.59712c.19436.87903-.20229 1.4366-.68192 1.6192l.38698 1.5174c.36995 1.2027-.0134 4.501-.71009 4.4263.0301-1.626-.0578-3.206-1.1574-4.3911-1.0444-.12103-2.2257.91996-3.2434 1.9223-1.1907 1.1891-2.3044 2.0519-3.38 2.7539.82804-.84092 1.6134-1.6667 1.9479-2.3327-.61415-.0233-1.6789.57514-2.6969 1.1032.97548-.66335 1.5556-1.477 2.7739-1.9545 1.2731-.49898 2.2704-1.9523 2.9755-2.9415-1.1954-1.9645-2.909-2.562-4.762-2.5892z" style="clip-rule:evenodd;fill-rule:evenodd;stroke-miterlimit:10;stroke-width:.02519"/>
  <path id="path34-2-4-0" d="m151.78 238.75c-.11323.14418-.26626.62571-.42592.91125-.13962.25003-.51718.31878-.82756.26401-.0711.65465-.30308 1.2029-.75724 1.6041-1.5867 1.5142-3.4282 2.3109-5.0459 3.2274 1.9696-1.5942 3.8336-3.1534 3.64-4.6936-.60405-.29629-2.2937 1.1062-4.2605 2.9424l1.932-2.6525c-1.364.36702-2.6713.52098-3.9061.40252 1.9739-.46276 3.9722-.90653 5.1875-1.9581-.163-1.1292-2.819-1.1374-5.53-1.2157.52653-.0385 1.0983-.30567 1.6544-.3712 2.8106-.33186 5.7383-.58953 6.407.97437.47336-.0416.891.15952 1.3991.41928.15344.0779.37517.0266.53308.1458z" style="clip-rule:evenodd;fill-rule:evenodd;stroke-miterlimit:10;stroke-width:.020009"/>
  <path id="path16204-0" d="m.32412 80.831v79.352c.00036531 9e-5.0007811-1e-4.001202 0 4.319 0 11.512 4.4578 25.316 1.6195l.0176-.005.01525-.002c10.37-2.1566 18.771-3.1698 24.109-3.0289 4.1866.11049 5.8015.85058 6.1246.98577.1371.41213.37124 1.6341.19598 4.7645-.2939 5.2492-2.3649 14.415-6.9402 26.75-3.6308 9.7923-2.725 16.206-2.725 16.528h80.85v-79.352c-23.467 0-38.46-1.9324-46.183-4.2963s-6.7094-2.9693-6.8346-3.3528c-.12514-.38346-.20083-4.7427 1.3378-11.937 1.5386-7.1943 4.0674-16.735 4.0674-28.025-7.2e-5-.000354 7.8e-5-.000841 0-.0012z" style="-inkscape-stroke:none;color:#000000;fill:#72caf0;font-variation-settings:normal;stop-color:#000000;stroke-miterlimit:10;stroke-width:1.2381"/>
  <path id="path16199-5" d="m.32412 80.831v71.397c8.41e-6.007.001202.0142.001202.0211 6.3652 0 13.629 3.8552 23.716 1.7814l.01056-.002.007-.002c10.67-2.219 19.524-3.36 25.934-3.1908 6.4101.16916 9.8348 1.5928 11.479 3.2014 1.6446 1.6086 2.9257 4.3412 2.5571 10.924-.36858 6.5831-2.6971 16.318-7.4249 29.065v.002c-2.4697 6.6608-.73277 11.841-.73228 13.768h71.417v-71.417c-23.855 0-39.395-1.8541-48.505-4.6424-9.1099-2.7883-11.056-5.416-12.056-8.4799-.99992-3.0639-.45956-8.6628 1.1219-16.057 1.5814-7.3945 3.8926-16.34 3.8926-26.367h-15.871c-.000379-.000414-.000601-.000781-.0012-.0012z" style="-inkscape-stroke:none;color:#000000;fill:#b1e2f7;font-variation-settings:normal;stop-color:#000000;stroke-miterlimit:10;stroke-width:1.2381"/>
  <path id="path16194-71" d="m.32412 80.831v60.507c.0003575.00014.00084118-.00012.001202 0v5.9521c7.6441 0 14.956 3.4784 22.718 1.8823h.0035l.0023-.001c10.858-2.258 19.994-3.4821 27.074-3.2952 7.0801.18683 11.901 1.7642 14.816 4.6155 2.9152 2.8513 4.4557 7.3297 4.0404 14.746-.41526 7.4168-2.9023 17.509-7.7253 30.513-1.7444 4.7046-.42396 9.1156-.42364 12.045h66.458v-66.458c-24.097 0-39.979-1.8059-49.956-4.8596-9.9768-3.0537-13.774-6.9456-15.32-11.685-1.5467-4.7392-.62127-11.112.98693-18.632 1.6082-7.5196 3.7834-16.092 3.7834-25.329-22.035.02187-44.335-.0012-66.459-.0012z" style="-inkscape-stroke:none;color:#000000;fill:#ecf8fd;font-variation-settings:normal;stop-color:#000000;stroke-miterlimit:10;stroke-width:1.2381"/>
  <path id="path16209-2" class="st1" d="m63.807 80.832h-63.482v126.96-63.482c8.4114 0 15.752 3.2535 22.12 1.9441 43.882-9.1256 61.121-2.1028 41.601 50.528-1.3093 3.5312-.23806 7.479-.23806 11.01h63.482v-63.482c-96.969 0-63.482-28.428-63.482-63.482z" style="fill:#95c11f;stroke-miterlimit:10;stroke-width:.39676"/>
  <path id="path16213-5" class="st2" d="m35.656 96.98c.60207-2.7756-1.3037-5.7684-4.0649-6.4118-2.7106-.7662-5.7784.91508-6.6279 3.5948-2.3462-1.6544-5.9284-.97884-7.4751 1.4549-1.2666 1.8195-1.2085 4.4204.13499 6.1829-1.6089 2.0483-.93858 5.3516 1.3243 6.6335 1.0733.65683 2.4312.85614 3.6352.46853.94058 3.0042 4.31 4.9671 7.3816 4.2166 2.6772-.54738 4.7745-3.0081 4.9577-5.7243 2.9565.40992 5.8277-2.2233 5.7332-5.1976.08993-2.733-2.2769-5.1696-4.9992-5.2175z" style="fill:#008d36;stroke-miterlimit:10;stroke-width:1.1246"/>
  <path id="path16215-3" class="st2" d="m112.03 163.56c.60211-2.7756-1.3037-5.7684-4.0649-6.4118-2.7106-.76619-5.7784.91507-6.6279 3.5948-2.3462-1.6544-5.9284-.97884-7.4751 1.4548-1.2666 1.8195-1.2085 4.4204.13499 6.1829-1.6089 2.0483-.93858 5.3516 1.3243 6.6335 1.0733.65679 2.4312.85618 3.6352.46852.94058 3.0042 4.31 4.9671 7.3816 4.2166 2.6772-.54738 4.7745-3.0081 4.9577-5.7243 2.9564.40992 5.8277-2.2233 5.7332-5.1976.0845-2.7287-2.2804-5.166-4.9992-5.2175z" style="fill:#005822;stroke-miterlimit:10;stroke-width:1.1246"/>
  <path id="path16217-7" class="st2" d="m99.535 177.56c.60208-2.7756-1.3037-5.7684-4.0649-6.4118-2.7106-.76619-5.7784.91508-6.6279 3.5948-2.3462-1.6544-5.9284-.97884-7.4751 1.4548-1.2666 1.8195-1.2085 4.4204.13499 6.1828-1.6089 2.0483-.93858 5.3516 1.3243 6.6335 1.0733.65679 2.4312.85617 3.6352.46853.94058 3.0042 4.31 4.9671 7.3816 4.2166 2.6772-.54738 4.7745-3.0081 4.9577-5.7243 2.9565.40992 5.8277-2.2233 5.7332-5.1976.0862-2.7299-2.2816-5.1636-4.9992-5.2175z" style="fill:#008d36;stroke-miterlimit:10;stroke-width:1.1246"/>
 </g>
 <g id="container0">
  <rect id="rect24" x="315.27" y="59.268" width="137.2" height="137.2" style="-inkscape-stroke:none;fill:#ffeeaa;font-variation-settings:normal;stop-color:#000000"/>
 </g>
 <g id="container1">
  <rect id="rect27" x="475.39" y="59.417" width="137.2" height="137.2" style="-inkscape-stroke:none;fill:#ffeeaa;font-variation-settings:normal;stop-color:#000000"/>
 </g>
 <g id="container2">
  <rect id="rect30" x="634.93" y="58.928" width="137.2" height="137.2" style="-inkscape-stroke:none;fill:#ffeeaa;font-variation-settings:normal;stop-color:#000000"/>
 </g>
 <g id="container3">
  <rect id="rect33" x="315.38" y="219.91" width="137.2" height="137.2" style="-inkscape-stroke:none;fill:#ffeeaa;font-variation-settings:normal;stop-color:#000000"/>
 </g>
 <g id="container4">
  <rect id="rect36" x="474.93" y="219.87" width="137.2" height="137.2" style="-inkscape-stroke:none;fill:#ffeeaa;font-variation-settings:normal;stop-color:#000000"/>
 </g>
 <g id="container5">
  <rect id="rect39" x="635.21" y="220.08" width="137.2" height="137.2" style="-inkscape-stroke:none;fill:#ffeeaa;font-variation-settings:normal;stop-color:#000000"/>
 </g>
 <g id="container6">
  <rect id="rect42" x="123.08" y="76.995" width="137.2" height="137.2" style="fill:none;stroke-width:1.0718"/>
 </g>
 <g id="container7">
  <rect id="rect45" x="-3.8597" y="203.06" width="137.2" height="137.2" style="fill:none;stroke-width:1.0718"/>
 </g>
 <g id="draggable0">
  <rect id="rect32702-0" class="st0" x="319.73" y="63.73" width="128.27" height="128.27" style="fill:#009fe3;stroke-width:2.0042"/>
  <path id="path32711-5" d="m366.42 63.734c-6.274 3.6897-14.712 8.9935-22.705 16.88-5.6461 5.5653-10.219 11.347-12.1 19.182-1.8811 7.8351.51357 16.106 3.5722 21.397 6.1173 10.582 13.385 16.201 20.31 26.59l.002.002v.001c7.5872 13.25 12.337 28.845 12.337 44.214h80.167v-128.27z" style="-inkscape-stroke:none;color:#000000;fill:#72caf0;font-variation-settings:normal;stop-color:#000000;stroke-miterlimit:10;stroke-width:1.2381"/>
  <path id="path32708-3" d="m375.86 63.732-.0117.0012v2.4726c-6.277 3.2806-15.539 9.291-26.51 20.117-5.0978 5.0248-8.5894 9.75-9.9327 15.345-1.3432 5.5949.25294 11.251 2.7167 15.513 4.9275 8.5241 12.569 14.95 20.04 26.157h.002v.001c11.941 17.903 13.555 40.104 13.683 46.564v2.0971h72.15v-128.27z" style="-inkscape-stroke:none;color:#000000;fill:#b1e2f7;font-variation-settings:normal;stop-color:#000000;stroke-miterlimit:10;stroke-width:1.2381"/>
  <path id="path32705-6" d="m448 63.732-67.138.0012v5.6364c-5.5369 2.5214-15.431 8.1123-28.006 20.521-4.7551 4.687-7.5702 8.7514-8.5773 12.946-1.0071 4.1948.092 8.2161 2.1839 11.835 4.1839 7.2378 12.06 14.166 19.872 25.884 12.862 19.284 14.392 42.367 14.527 49.277v2.1652h67.138z" style="-inkscape-stroke:none;color:#000000;fill:#ecf8fd;font-variation-settings:normal;stop-color:#000000;stroke-miterlimit:10;stroke-width:1.2381"/>
  <path id="path32714-0" class="st1" d="m368.84 138.89c13.408 20.102 14.891 43.691 15.031 50.886v2.2246h64.134v-128.27h-64.134v7.5357c-4.6697 1.924-15.252 7.2952-28.9 20.763-18.178 17.937-2.1645 22.808 13.869 46.858z" style="fill:#95c11f;stroke-miterlimit:10;stroke-width:.40084"/>
  <path id="path26-2" d="m435.18 153.55c-.4813 2.3498-1.2668 4.3522-3.2007 5.7869.22281.32014.0917.80108-.11658 1.3501l.0161.6413-.4498-.42618c-.85475-.13192-1.2159-.68113-1.2125-1.1742l-1.4934-.18163c-1.2057-.0874-4.0256-1.5786-3.7163-2.1764 1.4455.59292 2.8908 1.064 4.3347.49195.47191-.89309-.0491-2.3132-.59237-3.5733-.65031-1.4801-1.0353-2.7775-1.2895-3.985.46477 1.0341.93085 2.0247 1.4108 2.5561.23466-.54179.0693-1.7035-.0491-2.7988.25446 1.1043.78108 1.907.78462 3.164.004 1.3136.95794 2.7125 1.5982 3.6881 2.1752-.38666 3.3065-1.7131 3.9758-3.3628z" style="clip-rule:evenodd;fill-rule:evenodd;stroke-miterlimit:10;stroke-width:.0242"/>
  <path id="path26-2-6" d="m392.2 127.33c1.5795 1.9336 2.6787 3.8842 2.5645 6.3881.40484.0307.7067.45277 1.0127.98187l.52803.40875-.63967.0827c-.66853.60293-1.3492.53319-1.7448.20619l-1.1286 1.0856c-.86335.91541-3.9211 2.2101-4.2 1.5674 1.429-.77643 2.7596-1.6328 3.2475-3.1741-.4103-.96808-1.8987-1.4816-3.2728-1.8719-1.6219-.44859-2.922-.99118-4.0634-1.5801 1.1401.30503 2.2459.58038 2.9902.54254-.28285-.54564-1.3289-1.1762-2.2907-1.8009 1.0584.52091 2.0524.62379 3.069 1.4476 1.0624.86085 2.8186 1.0108 4.0269 1.1358 1.1184-2.0094.79214-3.7945-.0989-5.4195z" style="clip-rule:evenodd;fill-rule:evenodd;stroke-miterlimit:10;stroke-width:.02519"/>
  <path id="path34-2" d="m417.75 141.93c-.18128-.0273-.6756.0773-1.0027.0794-.28636.002-.53252-.29242-.6381-.58939-.60444.26131-1.1957.33018-1.7688.13325-2.1001-.63245-3.702-1.8407-5.2976-2.7952 2.3587.92603 4.6348 1.7775 5.8787.84879-.0405-.67159-2.0943-1.4487-4.662-2.2528l3.2605.37089c-.99246-1.005-1.7717-2.066-2.2782-3.1984 1.3768 1.4882 2.7492 3.007 4.2636 3.5449.9016-.69916-.40235-3.013-1.6725-5.4094.29334.43894.80798.8043 1.1395 1.2556 1.676 2.2805 3.3452 4.6995 2.3153 6.053.26981.39115.30108.85362.32599 1.4237.008.17189.16206.3394.13634.53557z" style="clip-rule:evenodd;fill-rule:evenodd;stroke-miterlimit:10;stroke-width:.020009"/>
  <path id="path34-2-4" d="m378.56 126.88c-.18128-.0273-.6756.0773-1.0027.0794-.28636.002-.53252-.29242-.6381-.58939-.60444.26131-1.1957.33018-1.7688.13325-2.1001-.63245-3.702-1.8407-5.2976-2.7952 2.3587.92603 4.6348 1.7775 5.8787.84879-.0405-.67159-2.0943-1.4487-4.662-2.2528l3.2605.37089c-.99246-1.005-1.7717-2.066-2.2782-3.1984 1.3768 1.4882 2.7492 3.007 4.2636 3.5449.9016-.69916-.40235-3.013-1.6725-5.4094.29334.43894.80798.8043 1.1395 1.2556 1.676 2.2805 3.3452 4.6995 2.3153 6.053.26981.39115.30108.85362.32599 1.4237.008.17189.16206.3394.13634.53557z" style="clip-rule:evenodd;fill-rule:evenodd;stroke-miterlimit:10;stroke-width:.020009"/>
  <path id="path30-7" d="m360.44 115.65c-.13968-.11872-.38571-.56004-.59911-.808-.1868-.21706-.57037-.20921-.86359-.0936-.20027-.62732-.53693-1.1182-1.062-1.4208-1.8569-1.1673-3.8203-1.5806-5.5883-2.156 2.2481 1.1692 4.3856 2.3252 4.5031 3.8732-.53283.41081-2.4683-.62643-4.7618-2.0334l2.4223 2.2138c-1.4097-.0876-2.7215.0223-3.9079.38474 2.0265.0597 4.0732.096 5.4739.88395.0655 1.139-2.5354 1.6768-5.1764 2.2943.52362-.0674 1.1372.0804 1.6952.0337 2.8203-.23545 5.7406-.56696 6.0839-2.2328.47214-.0537.84127-.33405 1.2874-.68995.1345-.1073.36231-.10089.49328-.2492z" style="clip-rule:evenodd;fill-rule:evenodd;stroke-miterlimit:10;stroke-width:.020009"/>
  <path id="path32718-3" class="st2" d="m387.29 98.946c-.71695 3.1671 1.9021 6.54 5.1454 6.6549 2.4438.16179 4.9172-1.4578 5.6571-3.8089 2.5365 1.8234 6.5268.81563 7.8765-2.0062.93425-1.7855.76616-4.103-.46101-5.7098 1.8041-2.2528.74044-6.0383-1.9753-7.0252-.93556-.54169-2.2817-.21863-3.0815-.29119-1.0717-3.216-4.9663-5.1345-8.1552-3.9132-2.3435.81559-4.0991 3.0993-4.2645 5.5779-3.0693-.44198-6.0497 2.4317-5.7929 5.5084.0528 2.6407 2.4126 4.9767 5.0514 5.0135z" style="fill:#005822;stroke-miterlimit:10;stroke-width:1.1362"/>
  <path id="path32720-2" class="st2" d="m414.33 116.36c-.71695 3.1671 1.9021 6.54 5.1454 6.6549 2.4438.16177 4.9172-1.4578 5.6571-3.809 2.5365 1.8234 6.5268.81564 7.8764-2.0062.93426-1.7855.76617-4.103-.46101-5.7098 1.8042-2.2528.74045-6.0383-1.9752-7.0253-.93556-.54169-2.2818-.21863-3.0815-.29119-1.0717-3.216-4.9663-5.1345-8.1552-3.9132-2.3435.81559-4.0991 3.0992-4.2645 5.5779-3.0693-.44198-6.0497 2.4317-5.7929 5.5084.0528 2.6407 2.4126 4.9766 5.0513 5.0135z" style="fill:#008d36;stroke-miterlimit:10;stroke-width:1.1362"/>
  <path id="path32722-7" class="st2" d="m399.18 176.99c-.71695 3.167 1.9021 6.54 5.1454 6.6549 2.4438.16178 4.9172-1.4578 5.6571-3.8089 2.5365 1.8234 6.5268.81564 7.8765-2.0062.93425-1.7855.76616-4.103-.46101-5.7098 1.8041-2.2528.74044-6.0383-1.9753-7.0252-.93556-.54168-2.2817-.21863-3.0815-.29119-1.0717-3.216-4.9663-5.1345-8.1552-3.9132-2.3435.81559-4.0991 3.0992-4.2645 5.5779-3.0693-.44198-6.0497 2.4317-5.7929 5.5084.0528 2.6407 2.4126 4.9766 5.0514 5.0135z" style="fill:#00b345;stroke-miterlimit:10;stroke-width:1.1362"/>
 </g>
 <g id="draggable1">
  <rect id="rect33003" class="st0" x="479.97" y="64" width="128.03" height="128.03" style="fill:#009fe3;stroke-width:2.0005"/>
  <path id="path33012" transform="matrix(1.2381,0,0,1.2381,-32,-69.333)" d="m413.51 107.69v64.633c10.428 0 19.735 4.0491 26.711 10.697l1.9941 1.9004 1.752 2.2031c.84316 1.0596 1.6664 2.2379 2.4609 3.5117l2.8594 4.5859 4.4688 1.0039c-1.3298 5.8653-1.5134 10.878-1.5 13.566v.19141l.008.18945c.0166.47881.0254.78308.0254.92773h64.631v-103.41z" style="-inkscape-stroke:none;color:#000000;fill:#72caf0;font-variation-settings:normal;stop-color:#000000;stroke-miterlimit:10"/>
  <path id="path33009" transform="matrix(1.2381,0,0,1.2381,-32,-69.333)" d="m413.51 107.69v58.168c12.122 0 23.044 4.7411 31.17 12.484l2.3164 2.2109 2.0293 2.5449c1.0194 1.2812 1.9785 2.6624 2.8848 4.1152l1.4297 2.293 2.6348.5918c2.3539.52963 4.5469.65536 6.334.68164-3.2507 7.9243-3.6065 15.627-3.5898 18.98v.0937l.004.0957c.0162.4737.0293.85185.0293 1.1504h58.168v-103.41z" style="-inkscape-stroke:none;color:#000000;fill:#b1e2f7;font-variation-settings:normal;stop-color:#000000;stroke-miterlimit:10"/>
  <path id="path33006" transform="matrix(1.2381,0,0,1.2381,-32,-69.333)" d="m413.51 107.69v54.129c13.18 0 25.113 5.172 33.957 13.6l1.7383 1.6562c4.698-4.097 6.4385-10.37 6.2695-15.902.0569.45223.11266.96841.1621 1.4102.49567 7.4508-.10339 11.453-4.7656 16.354l1.3125 1.6484c1.1296 1.4196 2.1763 2.9294 3.1523 4.4941l.53711.85742.98828.2207c3.6254.81571 7.7893.32276 9.9844.67969.78885.12827 1.063.28815 1.1348.31836-.0109.11226.002.78763-.8125 2.3535v.004c-4.111 7.9057-4.4254 16.775-4.4082 20.229v.0684c.0162.47043.0312.8963.0312 1.291h54.129v-103.41z" style="-inkscape-stroke:none;color:#000000;fill:#ecf8fd;font-variation-settings:normal;stop-color:#000000;stroke-miterlimit:10"/>
  <path id="path33015" class="st1" d="m479.97 64v64.016c17.104 0 32.628 6.7216 44.111 17.664.62015-.64015 1.2403-1.3403 1.8004-2.1605 6.8217-9.7024.30007-20.485 3.4808-33.188 3.4808-13.943 9.9002-14.844 30.665-16.984 5.0013-.4731 5.1742.48458 1.7781 1.3293-10.542 2.6223-25.295 7.9766-27.262 17.675-2.7607 13.583 5.0412 25.366-2.3006 37.369-.60014.98024-1.2803 1.8604-2.0405 2.6606 1.4804 1.8604 2.8407 3.8209 4.101 5.8414 7.2018 1.6204 20.365-2.3006 14.764 8.4621-4.6812 9.0022-5.1413 19.625-5.1212 23.646.02.58015.04 1.1403.04 1.7004h64.016v-128.03z" style="fill:#95c11f;stroke-miterlimit:10;stroke-width:.4001"/>
  <rect id="rect33019" class="st2" x="546.65" y="118.09" width="22.385" height="10.513" style="fill:#7f0109;stroke-miterlimit:10;stroke-width:1.1341"/>
  <rect id="rect33021" class="st2" x="546.65" y="128.42" width="22.385" height="10.303" style="fill:#be1622;stroke-miterlimit:10;stroke-width:1.1341"/>
  <path id="path33030" class="st4" d="m518.92 82.805c.60715-2.7989-1.3147-5.8169-4.0991-6.4657-2.7334-.77263-5.827.92277-6.6836 3.625-2.3643-1.6712-5.9787-.98526-7.5379 1.4671-1.2772 1.8348-1.2186 4.4576.13613 6.2348-1.6224 2.0655-.94647 5.3966 1.3355 6.6893 1.0823.66233 2.4516.86336 3.6658.47247.94848 3.0295 4.3462 5.0089 7.4436 4.252 2.6997-.55198 4.8147-3.0334 4.9994-5.7724 2.9813.4133 5.8767-2.242 5.7814-5.2413.0749-2.7643-2.2851-5.1981-5.0412-5.2613z" style="fill:#00b345;stroke-miterlimit:10;stroke-width:1.1341"/>
  <path id="path33032" class="st4" d="m597.28 114.21c-1.2627-1.7435-1.5192-4.0675.006-5.4163-.31868-2.9536-3.2478-7.064-6.567-5.7094-3.2439 1.2988-6.0813-1.4953-9.0332.47361-2.8879.77657-4.8292-2.1421-7.568-.24947-2.9452.98942-5.0761-2.0863-7.7928.0724-2.541 1.0639-4.2708-2.2888-6.7517-.25971-2.9021 2.0233-5.1307-1.6334-8.0892-.23237-2.6694.50722-5.8439 2.6595-5.0915 5.7432.74619 2.7967 3.5766 4.4746 6.2041 5.193 2.2683-.20873 4.8738-3.6874 6.5483-.36297 2.5436 1.694 5.67-3.1929 7.8412.28278 2.7193.4753 6.0231-2.4957 11.025-.68913 1.942.75791 3.56-1.6822 5.0611-1.4759 3.455.47482 5.6496 3.7542 3.9161 7.2256-1.8528 1.7679-1.7522 4.1441.17449 5.7085-1e-4 2.3898-3.2149 4.8143-.28622 6.8909.74461 2.642-3.1245 5.8277.2589 7.7694 1.1866 2.7955-3.2798 5.3837-.47967 7.8582 1.7724 2.5651-2.9865 4.8778-.0373 7.3302 1.7222 1.4543 3.512 4.6546 6.0764 3.1895 2.2966-1.7699 6.0988-3.9584 3.5969-7.2136-1.2761-2.4583 1.954-4.3565.16668-6.9428-1.8131-3.2851 1.9455-5.8954-.19665-9.0422-1.2091-2.7336 2.3242-4.7051.023-7.284-1.5432-2.6121 2.4846-4.5036.10222-7.0912-1.6782-2.303.13622-3.7189.89316-5.7683z" style="fill:#008d36;stroke-miterlimit:10;stroke-width:1.1341"/>
  <path id="path33034" class="st4" d="m561.43 169.63c.71564-3.1612-1.8986-6.528-5.1359-6.6426-2.4393-.16149-4.9081 1.4552-5.6467 3.8019-2.5311-1.8225-6.5145-.81291-7.862 2.0026-.93253 1.7822-.76476 4.0954.46016 5.6993-1.8008 2.2486-.73908 6.0272 1.9716 7.0123.93383.5407 2.2776.21827 3.0758.29066 1.0697 3.2101 4.9572 5.125 8.1402 3.906 2.3392-.81409 4.0915-3.0935 4.2566-5.5676 3.0633.44109 6.0388-2.4271 5.7819-5.498-.0572-2.6338-2.411-4.9609-5.0417-5.0045z" style="fill:#005822;stroke-miterlimit:10;stroke-width:1.1341"/>
 </g>
 <g id="draggable2">
  <rect id="rect19633" class="st0" x="640" y="63.999" width="127.05" height="127.05" style="fill:#009fe3;stroke-width:1.9852"/>
  <path id="path19642" d="m668.65 105.06c-2.3682-.0144-4.8077.10846-7.3125.39899-7.3186.84921-13.104 3.609-16.197 5.2111-1.355.70192-1.8128.86-1.9732.93824h-3.1678v79.448h127.05v-79.41h-13.239c-11.368 0-18.68 4.0077-25.096 5.8326-6.4156 1.8248-11.191 2.5931-18.126.46428-.62918-.19516-7.3362-3.8272-15.851-7.327-6.9217-2.845-15.827-5.4947-26.089-5.5569z" style="-inkscape-stroke:none;color:#000000;fill:#72caf0;font-variation-settings:normal;stop-color:#000000;stroke-miterlimit:10;stroke-width:1.2381"/>
  <path id="path19639" d="m666.54 113.02c-1.4032.0478-2.8321.1528-4.2874.32162-6.0118.69756-10.536 2.8551-13.459 4.3696-2.9237 1.5145-3.8975 1.8306-4.0286 1.8306h-4.7638v71.507h127.05v-71.469h-13.239c-8.8256 0-15.829 3.5136-22.919 5.5303-7.0901 2.0167-13.896 3.1007-22.634.41834-2.5063-.77182-8.7262-4.3643-16.54-7.5761-6.8386-2.8108-15.358-5.2678-25.18-4.933z" style="-inkscape-stroke:none;color:#000000;fill:#b1e2f7;font-variation-settings:normal;stop-color:#000000;stroke-miterlimit:10;stroke-width:1.2381"/>
  <path id="path19636" d="m666.72 117.98c-1.2738.044-2.572.13933-3.8932.2926-5.195.60279-8.9295 2.3924-11.747 3.8521-2.8179 1.4598-4.5896 2.3843-6.3138 2.3843h-4.7638v66.543h127.05v-66.504h-13.239c-7.2366 0-14.051 3.2027-21.563 5.3393-7.5117 2.1366-15.583 3.4201-25.449.39174-3.6816-1.1328-9.59-4.7016-16.966-7.7333-6.4538-2.6527-14.201-4.8732-23.118-4.5655z" style="-inkscape-stroke:none;color:#000000;fill:#ecf8fd;font-variation-settings:normal;stop-color:#000000;stroke-miterlimit:10;stroke-width:1.2381"/>
  <path id="path19636-9" d="m666.72 120.99c-1.2738.044-2.572.13933-3.8932.29259-5.195.60279-8.9295 2.3924-11.747 3.8521-2.8179 1.4598-4.5896 2.3843-6.3138 2.3843h-4.7638v63.535h127.05v-63.496h-13.239c-7.2366 0-14.051 3.2027-21.563 5.3393-7.5117 2.1366-15.583 3.4201-25.449.39174-3.6816-1.1328-9.59-4.7016-16.966-7.7332-6.4538-2.6527-14.201-4.8732-23.118-4.5655z" style="-inkscape-stroke:none;color:#000000;fill:#95c11f;font-variation-settings:normal;stop-color:#000000;stroke-miterlimit:10;stroke-width:.40084"/>
  <path id="path19649-4-8" class="st2" d="m760.34 127.53-6.5512-.61368c-12.512-1.172-26.255 12.07-47.338 5.5983-8.7746-2.6999-24.273-14.194-44.125-11.891-9.4099 1.0919-12.361 5.7079-17.585 6.8671 0 0 16.457 3.9506 26.006 8.6952 28.468 14.155 54.335 13.043 68.053 6.2137 11.594-5.7372 15.624-13.301 21.54-14.869z" style="fill:#ffd854;stroke-width:1.9852"/>
  <path id="polygon19705-8-1-7" class="st7" d="m738.5 131.56c-1.859 1.1529-3.8018 1.9346-5.7891 2.51-.4146 1.9484-1.1528 3.8963-2.3384 5.8447 1.353 1.9388 1.8709 3.8768 2.481 5.8157 2.1162.51539 4.1407 1.1842 5.8737 2.3384 1.7445-.99481 3.5974-1.8985 5.7891-2.51.43474-2.1493 2.3359-5.8713 2.3359-5.8713v-.002l-2.4786-5.7866c-1.7938-.56478-3.3011-.75508-5.8737-2.3384z" style="-inkscape-stroke:none;fill:#dcc577;font-variation-settings:normal;stop-color:#000000;stroke-width:1.9852"/>
  <path id="polygon19705-8-1-7-5" class="st7" d="m680.7 127.42c-2.1271.51022-4.2173.64172-6.2848.56342-1.0059 1.7193-2.3174 3.3375-4.0552 4.8146 3.0848 6.1909 23.283 15.723 23.283 15.723s1.2669-.73165 1.6605-.83176c.43474-2.1493 2.3359-5.8713 2.3359-5.8713l-2.4786-5.7866c-1.7938-.56477-3.3011-.75508-5.8737-2.3384v-.002c-1.1102.68852-2.2504 1.2435-3.412 1.7024l-.33371-3.9053c-1.5254-1.0999-2.8965-1.7558-4.8412-4.0673z" style="-inkscape-stroke:none;fill:#dcc577;font-variation-settings:normal;stop-color:#000000;stroke-width:1.9852"/>
  <path id="path19730" class="st8" d="m743.79 173.54c2.7775.60259 5.7725-1.3046 6.4163-4.0677.76673-2.7125-.91571-5.7824-3.5973-6.6325 1.6555-2.3479.97952-5.9326-1.4559-7.4804-1.8208-1.2675-4.4235-1.2093-6.1872.13508-2.0498-1.61-5.3554-.93924-6.6382 1.3253-.65726 1.074-.85676 2.4329-.46886 3.6377-3.0063.94124-4.9706 4.313-4.2195 7.3868.54776 2.6791 3.0102 4.7779 5.7283 4.9612-.41013 2.9585 2.2249 5.8318 5.2012 5.7372 2.7306.0845 5.1696-2.282 5.2211-5.0028z" style="fill:#005822;stroke-miterlimit:10;stroke-width:1.1254"/>
  <path id="path19732" class="st8" d="m717.72 180.49c2.7775.60259 5.7725-1.3046 6.4163-4.0677.76673-2.7125-.91571-5.7824-3.5973-6.6325 1.6555-2.3479.97952-5.9326-1.4559-7.4804-1.8208-1.2674-4.4235-1.2093-6.1872.13509-2.0498-1.61-5.3554-.93924-6.6382 1.3253-.65726 1.074-.85676 2.4329-.46886 3.6378-3.0063.94124-4.9706 4.313-4.2195 7.3868.54776 2.6791 3.0102 4.7779 5.7283 4.9612-.41013 2.9585 2.2249 5.8318 5.2012 5.7372 2.7307.0846 5.1696-2.282 5.2211-5.0028z" style="fill:#008d36;stroke-miterlimit:10;stroke-width:1.1254"/>
  <path id="polygon19705-8" class="st7" d="m746.11 137.95c-2.0753 1.5139-4.4619 3.0327-7.3101 4.4422-1.8574.92467-3.9548 1.7341-6.234 2.4254.0942.30243.19016.60435.28535.90681 2.1162.51539 4.1407 1.1842 5.8737 2.3384 1.7445-.99481 3.5974-1.8985 5.7891-2.51.43475-2.1493 2.3359-5.8713 2.3359-5.8713v-.002z" style="-inkscape-stroke:none;fill:#7b9a28;font-variation-settings:normal;stop-color:#000000;stroke-miterlimit:10;stroke-width:.40084"/>
  <path id="polygon19705" class="st7" d="m737.1 132.91c2.5726 1.5833 4.0798 1.7732 5.8736 2.338l-5.7595 5.9021zm.11404 8.2401-8.2401.11403c1.1856-1.9484 1.9234-3.8967 2.338-5.8451zm0 0 .11403 8.2686c-1.733-1.1541-3.7573-1.8226-5.8736-2.338zm0 0 8.2401-.11404c-1.0083 1.8307-1.9033 3.7243-2.338 5.8736z" style="fill:#3771c8;stroke-width:2.8512"/>
  <path id="polygon19717" class="st3" d="m731.31 135.42c1.9873-.57545 3.929-1.3562 5.788-2.5091l.11404 8.2401zm.14262 11.662c-.61016-1.9388-1.1276-3.8777-2.4806-5.8165l8.2401-.11404zm11.662-.17107c-2.1916.61156-4.0435 1.5143-5.788 2.5091l-.11404-8.2686zm-.14262-11.662 2.4806 5.788-8.2401.11404z" style="fill:#ffffff;stroke-width:2.8512"/>
  <path id="path19725" d="m737.22 141.7c.29049 0 .54309-.23996.54309-.54308 0-.29049-.23997-.53046-.54309-.53046-.30311 0-.53046.23997-.53046.53046 0 .30312.23997.54308.53046.54308z" style="-inkscape-stroke:none;fill:#3771c8;font-variation-settings:normal;stop-color:#000000;stroke-width:1.8527"/>
  <path id="polygon19705-5" class="st7" d="m678.75 128.2c1.9007 2.3479 3.2592 3.0276 4.7636 4.1561l-7.3929 3.6541zm-2.6293 7.8102-7.8102-2.6293c1.7654-1.444 3.1085-3.0366 4.1467-4.7367zm0 0-2.6388 7.8371c-1.2513-1.6642-2.9387-2.9671-4.7636-4.1561zm0 0 7.8102 2.6293c-1.5591 1.3918-3.0322 2.8807-4.1561 4.7636z" style="-inkscape-stroke:none;fill:#009640;font-variation-settings:normal;stop-color:#000000;stroke-width:1.9852"/>
  <path id="polygon19717-4" class="st3" d="m672.45 128.65c2.0656.11729 4.1564.0258 6.2928-.44421l-2.6293 7.8102zm-3.7388 11.047c.0684-2.0314.22435-4.0321-.40786-6.3102l7.8102 2.6293zm11.056 3.7119c-2.2703-.15108-4.3169.0853-6.2928.44421l2.6388-7.8371zm3.7388-11.047.41734 6.2833-7.8102-2.6293z" style="fill:#ffffff;stroke-width:2.8512"/>
  <path id="path19725-1" d="m675.94 136.54c.27399.0965.59196-.046.69263-.33187.0965-.274-.0502-.58005-.33607-.68073-.2859-.10067-.58005.0502-.67653.32416-.10068.28591.046.59195.31997.68844z" style="-inkscape-stroke:none;fill:#009640;font-variation-settings:normal;stop-color:#000000;stroke-width:1.9852"/>
  <path id="path9907" d="m694.26 144.76 1.8337.44919c-.29877.79629-.61492 1.5752-.80235 2.4828-.46818.13766-.83338.39889-1.2444.60514z" style="-inkscape-stroke:none;fill:#7b9a28;font-variation-settings:normal;stop-color:#000000"/>
  <path id="polygon19705-1" class="st7" d="m687.9 135.05c2.5726 1.5833 4.0798 1.7732 5.8736 2.338l-5.7595 5.9021zm.11404 8.2401-8.2401.11403c1.1856-1.9484 1.9234-3.8967 2.338-5.8451zm0 0 .11403 8.2686c-1.733-1.1541-3.7573-1.8226-5.8736-2.338zm0 0 8.2401-.11404c-1.0083 1.8307-1.9033 3.7243-2.338 5.8736z" style="-inkscape-stroke:none;fill:#e6332a;font-variation-settings:normal;stop-color:#000000;stroke-width:1.9852"/>
  <path id="polygon19717-6" class="st3" d="m682.11 137.56c1.9873-.57545 3.929-1.3562 5.788-2.5091l.11404 8.2401zm.14262 11.662c-.61016-1.9388-1.1276-3.8777-2.4806-5.8165l8.2401-.11404zm11.662-.17107c-2.1916.61156-4.0435 1.5143-5.788 2.5091l-.11404-8.2686zm-.14262-11.662 2.4806 5.788-8.2401.11404z" style="fill:#ffffff;stroke-width:2.8512"/>
  <path id="path19725-5" d="m688.02 143.84c.29049 0 .54309-.23996.54309-.54308 0-.29049-.23997-.53046-.54309-.53046-.30311 0-.53046.23997-.53046.53046 0 .30312.23997.54308.53046.54308z" style="-inkscape-stroke:none;fill:#e6332a;font-variation-settings:normal;stop-color:#000000;stroke-width:1.9852"/>
 </g>
 <g id="draggable3">
  <rect id="rect32852" class="st0" x="320" y="224.52" width="127.97" height="127.97" style="fill:#009fe3;stroke-width:1.9995"/>
  <path id="path32861" transform="matrix(1.2381,0,0,1.2381,-32,-69.333)" d="m348.92 236.92c-.008.0425-.01.18348-.01.42382h-25.84c0 3.265.53599 4.8389.77343 5.8008-3.1664 9.5062-5.4404 17.989-6.0059 26.031-.60341 8.5824.90625 17.803 7.0938 24.744 6.1875 6.9409 15.182 9.7197 24.598 10.375 6.7367.46886 14.161-.003 22.697-1.2402 8.0332-2.6608 11.329-1.1195 15.443-1.1133v-64.598h-38.656c-.0424-.24973-.084-.47789-.0937-.42382z" style="-inkscape-stroke:none;color:#000000;fill:#72caf0;font-variation-settings:normal;stop-color:#000000;stroke-miterlimit:10"/>
  <path id="path32858" transform="matrix(1.2381,0,0,1.2381,-32,-69.333)" d="m329.53 237.35c0 2.5519.55333 4.319.75977 5.3809-1.7601 9.0709-5.3513 18.509-6.0098 26.904-.53474 7.6057.79978 14.75 5.4727 19.992 4.6729 5.2419 11.748 7.6406 20.223 8.2305 8.4748.58983 18.808-.48476 25.234-1.7161s8.3717-.65303 12.459-.65303v-58.139h-51.68z" style="-inkscape-stroke:none;color:#000000;fill:#b1e2f7;font-variation-settings:normal;stop-color:#000000;stroke-miterlimit:10"/>
  <path id="path32855" transform="matrix(1.2381,0,0,1.2381,-32,-69.333)" d="m333.56 237.35c0 1.82.44355 3.3564.6875 4.6113.24397 1.2549.28218 2.13.0723 2.7441-3.3726 9.8813-5.5258 18.22-6.0176 25.215-.49182 6.9952.73078 12.843 4.457 17.023 3.7262 4.18 9.6034 6.3358 17.49 6.8848 7.8868.54891 17.957-.45625 30.73-2.9043l.004-.004h.004c1.4049-.27313 3.6269.53125 6.6738.53125v-54.101h-51.68z" style="-inkscape-stroke:none;color:#000000;fill:#ecf8fd;font-variation-settings:normal;stop-color:#000000;stroke-miterlimit:10"/>
  <path id="path32864" class="st1" d="m383.98 224.52c0 3.4191 1.8595 6.9182.7798 10.077-16.536 48.448-8.3378 65.323 54.366 53.306 2.8792-.55985 5.8385.59985 8.8377.59985v-63.983z" style="fill:#95c11f;stroke-miterlimit:10;stroke-width:.3999"/>
  <path id="path32867" class="st2" d="m394.86 252.06c.25993 13.317 3.5791 16.636-.25993 19.975s-3.839 5.6385-1.0197 7.678 29.612.97975 30.472-5.3786c3.0592-22.794-29.452-35.591-29.192-22.274z" style="fill:#72caf0;stroke-miterlimit:10;stroke-width:.3999"/>
  <path id="path-1" class="st2" d="m397.47 253.54c.21794 11.613 3.0072 14.508-.21795 17.42-3.2272 2.9132-3.2272 4.9187-.85777 6.6963 2.3674 1.7795 24.88.85578 25.601-4.6908 2.5713-19.879-24.744-31.04-24.526-19.425z" style="fill:#009fe3;stroke-miterlimit:10;stroke-width:.3999"/>
 </g>
 <g id="draggable4">
  <rect id="rect17924-5" class="st0" x="479.99" y="224.93" width="127.07" height="127.07" style="fill:#009fe3;stroke-width:1.9854"/>
  <path id="path17933-5" transform="matrix(1.2381,0,0,1.2381,-32,-69.333)" d="m413.54 237.68v102.63h64.143c0-13.154 6.4961-24.573 16.465-31.553 4.9748-3.1373 7.3261-4.8796 15.098-6.293 2.3058-.41923 6.9238-.64062 6.9238-.64062v-64.145z" style="-inkscape-stroke:none;color:#000000;fill:#72caf0;font-variation-settings:normal;stop-color:#000000;stroke-miterlimit:10"/>
  <path id="path17930-7" transform="matrix(1.2381,0,0,1.2381,-32,-69.333)" d="m413.54 237.68v102.63h57.729c0-15.285 7.5879-28.677 19.203-36.809l11.873-8.3086c.55299.16402 1.6053.33192 1.9238.47851l1.8379.8457 1.9883-.36328c2.6522-.48222 5.3457-.74609 8.0742-.74609v-57.729z" style="-inkscape-stroke:none;color:#000000;fill:#ffffff;opacity:.45;stroke-miterlimit:10;stroke-width:1.6036"/>
  <path id="path17927-2" transform="matrix(1.2381,0,0,1.2381,-32,-69.333)" d="m413.54 237.68v102.63h53.719c0-16.616 8.2698-31.241 20.914-40.094l5.959-4.1758-7.2754-.19726c-5.0785-.13977-9.5977-.80591-12.656-1.7129-1.5293-.4535-2.6899-.98334-3.2891-1.3926-.0604-.0413-.0408-.0342-.0859-.0684.0677-.0503.11475-.0906.21484-.1543.72032-.45836 2.0647-1.0259 3.8027-1.4941 3.476-.93643 8.5317-1.5625 14.113-1.5625 7.4468 0 14.011 1.201 16.986 2.5703l.68945.31641.74609-.13477c2.8688-.5216 5.8034-.81054 8.791-.81054v-53.721z" style="-inkscape-stroke:none;color:#000000;fill:#ffffff;opacity:.75;stroke-miterlimit:10;stroke-width:1.6036"/>
  <path id="path17936-6-7" class="st1" d="m570.69 299.92c-12.984-.35737-23.13-3.3156-23.13-6.9092 0-3.8318 11.555-6.9489 25.81-6.9489 9.5101 0 17.789 1.3898 22.276 3.4546 3.7127-.67503 7.5247-1.0523 11.416-1.0523v-63.533h-127.07v127.07h63.533c0-21.561 10.741-40.582 27.16-52.077z" style="fill:#95c11f;stroke-miterlimit:10;stroke-width:.39708"/>
  <path id="path17940-7" class="st2" d="m513.18 259.8c.33751.0596.67503.0993 1.0324.0993 3.0774 0 5.5591-2.4818 5.5591-5.5591 0-2.442-1.5883-4.487-3.7722-5.2414.57576-.85372.91328-1.906.91328-3.0178 0-2.9781-2.4023-5.3804-5.3804-5.3804-1.1912 0-2.2832.39707-3.1766 1.0522-.75445-.5559-1.6876-.89342-2.7002-.89342-2.5413 0-4.6061 2.0648-4.6061 4.6061 0 .43679.0795.85372.19854 1.2508-2.5214.85372-4.3679 3.2164-4.3679 6.0158 0 3.3553 2.581 6.0555 5.8768 6.3334-.0198.15884-.0397.31767-.0397.49635 0 2.8987 2.3428 5.2414 5.2414 5.2414 2.8193.0198 5.1025-2.2038 5.2216-5.0032z" style="fill:#008d36;stroke-miterlimit:10;stroke-width:1.1255"/>
  <path id="path17942-5" class="st2" d="m527.15 261.43c.33752.0595.67504.0993 1.0324.0993 3.0774 0 5.5591-2.4818 5.5591-5.5591 0-2.442-1.5883-4.487-3.7722-5.2415.57576-.85372.91328-1.906.91328-3.0178 0-2.9781-2.4023-5.3804-5.3804-5.3804-1.1912 0-2.2832.39708-3.1766 1.0523-.75444-.55591-1.6876-.89343-2.7001-.89343-2.5413 0-4.6061 2.0648-4.6061 4.6061 0 .43679.0794.85372.19854 1.2508-2.5215.85372-4.3679 3.2164-4.3679 6.0158 0 3.3553 2.581 6.0555 5.8768 6.3334-.0198.15884-.0397.31767-.0397.49636 0 2.8987 2.3428 5.2414 5.2414 5.2414 2.8193.0198 5.1025-2.2236 5.2216-5.0032z" style="fill:#005822;stroke-miterlimit:10;stroke-width:1.1255"/>
  <path id="path17944-4" class="st2" d="m521.97 277.67c.33752.0596.67504.0993 1.0324.0993 3.0774 0 5.5591-2.4818 5.5591-5.5591 0-2.442-1.5883-4.487-3.7723-5.2414.57578-.85372.91329-1.906.91329-3.0178 0-2.9781-2.4023-5.3804-5.3804-5.3804-1.1912 0-2.2832.39708-3.1766 1.0523-.75445-.55591-1.6876-.89343-2.7001-.89343-2.5413 0-4.6061 2.0648-4.6061 4.6061 0 .43679.0794.85372.19853 1.2508-2.5214.85373-4.3679 3.2164-4.3679 6.0158 0 3.3553 2.581 6.0555 5.8768 6.3334-.0198.15883-.0397.31766-.0397.49634 0 2.8987 2.3428 5.2414 5.2414 5.2414 2.8391.0198 5.1025-2.2038 5.2216-5.0032z" style="fill:#00b345;stroke-miterlimit:10;stroke-width:1.1255"/>
  <path id="path17944-4-9" class="st2" d="m506.12 334.09c.33751.0596.67503.0993 1.0324.0993 3.0774 0 5.5591-2.4818 5.5591-5.5591 0-2.442-1.5883-4.487-3.7723-5.2414.57576-.85372.91328-1.906.91328-3.0178 0-2.9781-2.4023-5.3804-5.3804-5.3804-1.1912 0-2.2832.39707-3.1766 1.0523-.75445-.55592-1.6876-.89343-2.7002-.89343-2.5413 0-4.6061 2.0648-4.6061 4.6061 0 .43679.0795.85373.19855 1.2508-2.5215.85372-4.3679 3.2163-4.3679 6.0158 0 3.3553 2.581 6.0555 5.8768 6.3334-.0198.15883-.0397.31766-.0397.49634 0 2.8987 2.3428 5.2414 5.2414 5.2414 2.8391.0198 5.1025-2.2038 5.2216-5.0032z" style="fill:#008d36;stroke-miterlimit:10;stroke-width:1.1255"/>
 </g>
 <g id="draggable5">
  <rect id="rect2" x="640" y="225.35" width="127.62" height="126.65" style="clip-rule:evenodd;fill-rule:evenodd;fill:#009fe3;stroke-miterlimit:10;stroke-width:1.9864"/>
  <path id="path5" d="m640 272.79v79.215h79.703c0-11.459-2.4536-22.321-6.8529-32.142l-9.3899-20.966-19.331 19.182-10.928-10.844 19.427-19.307-22.106-9.1108c-9.4029-3.8762-19.701-6.0277-30.523-6.0277z" style="-inkscape-stroke:none;clip-rule:evenodd;fill-rule:evenodd;fill:#72caf0;font-variation-settings:normal;stop-color:#000000;stroke-miterlimit:10;stroke-width:1.2381"/>
  <path id="path8" d="m640 280.73v71.269h71.757c0-10.3-2.2036-20.066-6.1582-28.894l-4.6954-10.483-16.774 16.646-22.204-22.034 16.623-16.52-11.053-4.5559c-8.4703-3.4907-17.748-5.4273-27.495-5.4273z" style="clip-rule:evenodd;fill-rule:evenodd;fill:#b1e2f7;stroke-miterlimit:10;stroke-width:1.0039"/>
  <path id="path11" d="m640 285.7v66.303h66.79c0-9.5766-2.048-18.655-5.7245-26.864l-1.7599-3.9314-15.177 15.061-29.253-29.029c.001 0 14.871-14.778 14.871-14.778l-4.1453-1.7077c-7.887-3.2518-16.526-5.0538-25.603-5.0538z" style="clip-rule:evenodd;fill-rule:evenodd;fill:#ecf8fd;stroke-miterlimit:10;stroke-width:1.0039"/>
  <path id="path14" d="m703.81 352c0-9.1422-1.9542-17.81-5.4638-25.646l-14.218 14.109-33.481-33.225 13.819-13.733c-7.5376-3.1068-15.793-4.8284-24.467-4.8284v63.323z" style="clip-rule:evenodd;fill:#95c11f;stroke-miterlimit:10;stroke-width:.39729px;stroke:#95c11f"/>
  <path id="path17" d="m683.23 324.93c3.5894-2.4538 7.1787-5.3627 10.589-8.7069 12.224-11.972 18.964-26.042 18.186-35.956-9.9904-.89048-24.228 5.6001-36.472 17.592-3.4099 3.3442-6.401 6.8666-8.9136 10.409z" style="clip-rule:evenodd;fill:#ffffff;stroke-miterlimit:10;stroke-width:1.9864"/>
  <rect id="rect20" transform="matrix(-.71428 .69986 -.70532 -.70889 0 0)" x="-275.74" y="-703.22" width="19.552" height="15.118" style="clip-rule:evenodd;fill-rule:evenodd;fill:#bdbdbd;stroke-miterlimit:10;stroke-width:1.9865"/>
  <rect id="rect23" transform="matrix(-.70982 .70439 -.70982 -.70439 0 0)" x="-246.3" y="-706.44" width="17.322" height="5.6217" style="clip-rule:evenodd;fill-rule:evenodd;fill:#936037;stroke-miterlimit:10;stroke-width:1.9865"/>
  <path id="path26" d="m755.2 259.81c-.4813 2.3498-1.2668 4.3522-3.2007 5.7869.22281.32014.0917.80108-.11658 1.3501l.0161.6413-.4498-.42618c-.85475-.13192-1.2159-.68113-1.2125-1.1742l-1.4934-.18163c-1.2057-.0873-4.0256-1.5786-3.7163-2.1764 1.4455.59292 2.8908 1.064 4.3347.49195.47191-.89309-.0491-2.3132-.59237-3.5733-.65031-1.4801-1.0353-2.7775-1.2895-3.985.46477 1.0341.93085 2.0247 1.4108 2.5561.23466-.54179.0693-1.7035-.0491-2.7988.25446 1.1043.78108 1.907.78462 3.164.004 1.3136.95794 2.7125 1.5982 3.6881 2.1752-.38666 3.3065-1.7131 3.9758-3.3628z" style="clip-rule:evenodd;fill-rule:evenodd;stroke-miterlimit:10;stroke-width:.0242"/>
  <path id="path30" d="m756.13 252.89c.0433-.17814.32686-.5963.45242-.8984.1099-.26444-.0695-.60353-.30462-.81348.47032-.46091.75749-.98234.79169-1.5874.20792-2.1834-.30557-4.123-.58645-5.961-.0338 2.5337-.10542 4.9628-1.4353 5.7637-.6065-.29126-.55009-2.4864-.32444-5.1676l-.88852 3.159c-.55555-1.2986-1.2434-2.4209-2.1005-3.3178.8577 1.837 1.7454 3.6815 1.6713 5.2869-.98799.57061-2.6377-1.5109-4.3765-3.5923.29558.43743.43941 1.052.73198 1.5294 1.4782 2.4134 3.0872 4.8729 4.7296 4.4307.26022.3976.67659.60128 1.195.83975.15632.0719.25301.27828.44436.32859z" style="clip-rule:evenodd;fill-rule:evenodd;stroke-miterlimit:10;stroke-width:.020009"/>
  <path id="path34" d="m737.78 248.18c-.18128-.0273-.6756.0773-1.0027.0794-.28636.002-.53252-.29242-.6381-.58939-.60444.26131-1.1957.33018-1.7688.13325-2.1001-.63245-3.702-1.8407-5.2976-2.7952 2.3587.92602 4.6348 1.7775 5.8787.84879-.0405-.67159-2.0942-1.4487-4.662-2.2528l3.2605.37088c-.99246-1.005-1.7717-2.066-2.2782-3.1983 1.3768 1.4882 2.7492 3.007 4.2636 3.5449.9016-.69916-.40235-3.013-1.6725-5.4094.29333.43894.80797.8043 1.1395 1.2556 1.676 2.2805 3.3452 4.6995 2.3153 6.053.26982.39115.30108.85362.32599 1.4237.008.17189.16206.33939.13634.53557z" style="clip-rule:evenodd;fill-rule:evenodd;stroke-miterlimit:10;stroke-width:.020009"/>
 </g>
 <g id="ignore0">
  <line id="line83" x1="-14.049" x2="270.06" y1="208.28" y2="208.28" style="-inkscape-stroke:none;fill:none;font-variation-settings:normal;stop-color:#000000;stroke-linecap:round;stroke-linejoin:round;stroke-width:3.738px;stroke:#747474"/>
  <line id="line85" x1="128" x2="128" y1="66.227" y2="350.33" style="-inkscape-stroke:none;fill:none;font-variation-settings:normal;stop-color:#000000;stroke-linecap:round;stroke-linejoin:round;stroke-width:3.738px;stroke:#747474"/>
 </g>
</svg>
