<?xml version="1.0" encoding="UTF-8" standalone="no"?>
<!-- Created with Inkscape (http://www.inkscape.org/) -->

<svg
   width="210.04mm"
   height="128.46mm"
   version="1.1"
   viewBox="-11 -1 210.04 128.46"
   id="svg237"
   sodipodi:docname="2023-IE-02b-question-fra_interactive.svg"
   inkscape:version="1.1.1 (3bf5ae0d25, 2021-09-20)"
   xmlns:inkscape="http://www.inkscape.org/namespaces/inkscape"
   xmlns:sodipodi="http://sodipodi.sourceforge.net/DTD/sodipodi-0.dtd"
   xmlns="http://www.w3.org/2000/svg"
   xmlns:svg="http://www.w3.org/2000/svg">
  <defs
     id="defs241" />
  <sodipodi:namedview
     id="namedview239"
     pagecolor="#ffffff"
     bordercolor="#666666"
     borderopacity="1.0"
     inkscape:pageshadow="2"
     inkscape:pageopacity="0.0"
     inkscape:pagecheckerboard="0"
     inkscape:document-units="mm"
     showgrid="false"
     inkscape:zoom="1.4788652"
     inkscape:cx="362.44007"
     inkscape:cy="243.0918"
     inkscape:window-width="2048"
     inkscape:window-height="1017"
     inkscape:window-x="-8"
     inkscape:window-y="-8"
     inkscape:window-maximized="1"
     inkscape:current-layer="ignore0" />
  <g
     id="ignore0">
    <path
       d="m 75.063,73.045 c -3.5299,0.37133 -5.6546,0.3594 -8.4861,0.39979 -1.551,0.02212 -4.2363,-0.12618 -4.6527,-0.08632"
       style="fill:none;stroke:#000000;stroke-linecap:round"
       id="path2" />
    <path
       d="m 62.614,-0.41132 -1.2131,42.049 -0.24163,36.302"
       style="fill:#000000;stroke:#000000;stroke-width:1.2368;stroke-linecap:round;stroke-linejoin:round;-inkscape-stroke:none;stop-color:#000000"
       id="path4" />
    <path
       d="m 50.1,36.155 c 3.7854,-0.4803 7.7325,-0.0061 11.599,0.0186 4.133,0.02639 8.1357,0.06767 12.398,0.13844"
       style="fill:none;stroke:#000000;stroke-linecap:round"
       id="path6" />
    <path
       d="m 50.859,2.8737 c 3.6494,-0.20001 6.8948,-0.06447 10.342,-0.05024 3.16,0.01304 6.3218,-0.0036 9.4793,0.12429 1.2785,0.05177 1.6476,0.0868 3.8298,0.26017"
       style="fill:none;stroke:#000000;stroke-linecap:round"
       id="path8" />
    <path
       d="m 50.573,4.9267 c 4.4743,-0.32371 8.8925,0.55456 13.344,0.70647 3.6908,0.12594 7.7649,0.37362 11.078,0.16981"
       style="fill:none;stroke:#000000;stroke-linecap:round"
       id="path10" />
    <path
       d="m 49.977,7.5817 c 3.0505,-0.505 6.1484,-0.54855 9.2315,-0.57956 3.1715,-0.03189 6.3349,0.36721 9.5063,0.4051 2.1184,0.02531 4.232,0.09537 6.3545,-0.11881"
       style="fill:none;stroke:#000000;stroke-linecap:round"
       id="path12" />
    <path
       d="m 50.725,9.1123 c 6.4849,-0.8246 11.281,0.14451 16.92,0.04161 2.3238,-0.04241 5.32,-0.28614 6.9672,-0.27153"
       style="fill:none;stroke:#000000;stroke-linecap:round"
       id="path14" />
    <path
       d="m 61.964,25.297 c 4.1964,0.006 9.0441,0.45134 12.756,-0.42093"
       style="fill:none;stroke:#000000;stroke-linecap:round"
       id="path16" />
    <path
       d="m 62.139,23.306 c 2.3259,-0.22079 4.5422,-0.21696 6.8142,-0.30287 1.914,-0.0724 3.9536,0.17594 5.7433,-0.17905"
       style="fill:none;stroke:#000000;stroke-linecap:round"
       id="path18" />
    <path
       d="m 62.019,16.568 c 2.3259,0.22079 4.5422,0.21696 6.8142,0.30287 1.914,0.0724 3.9536,-0.17594 5.7433,0.17905"
       style="fill:none;stroke:#000000;stroke-linecap:round"
       id="path20" />
    <path
       d="m 62.308,21.228 c 2.6447,-0.50839 5.2931,-0.32708 7.9432,-0.33592 1.4651,-0.005 2.704,0.23995 4.3925,0.15638"
       style="fill:none;stroke:#000000;stroke-linecap:round"
       id="path22" />
    <path
       d="m 61.937,18.949 c 2.218,-0.27349 3.689,0.009 5.5332,-0.0192 2.3664,-0.0366 6.0955,-0.43433 7.0975,-0.1949"
       style="fill:none;stroke:#000000;stroke-linecap:round"
       id="path24" />
    <path
       d="m 50.537,60.717 c 3.7854,-0.4803 7.7325,-0.0061 11.599,0.0186 4.133,0.02639 8.1357,0.06767 12.398,0.13844"
       style="fill:none;stroke:#000000;stroke-linecap:round"
       id="path26" />
    <path
       d="m 61.485,51.439 c 4.1964,0.006 9.0441,0.45134 12.756,-0.42093"
       style="fill:none;stroke:#000000;stroke-linecap:round"
       id="path28" />
    <path
       d="m 61.66,49.447 c 2.3259,-0.22079 4.5422,-0.21696 6.8142,-0.30287 1.914,-0.0724 3.9536,0.17594 5.7433,-0.17905"
       style="fill:none;stroke:#000000;stroke-linecap:round"
       id="path30" />
    <path
       d="m 61.54,42.709 c 2.3259,0.22079 4.5422,0.21696 6.8142,0.30287 1.914,0.0724 3.9536,-0.17594 5.7433,0.17905"
       style="fill:none;stroke:#000000;stroke-linecap:round"
       id="path32" />
    <path
       d="m 61.828,47.369 c 2.6447,-0.50839 5.2931,-0.32708 7.9432,-0.33592 1.4651,-0.005 2.704,0.23995 4.3925,0.15638"
       style="fill:none;stroke:#000000;stroke-linecap:round"
       id="path34" />
    <path
       d="m 61.457,45.09 c 2.218,-0.27349 3.689,0.009 5.5332,-0.0192 2.3664,-0.0366 6.0955,-0.43433 7.0975,-0.1949"
       style="fill:none;stroke:#000000;stroke-linecap:round"
       id="path36" />
    <path
       d="m 167.72,73.614 c 3.7854,-0.4803 7.7325,-0.0061 11.599,0.0186 4.133,0.02639 8.1357,0.06767 12.398,0.13844"
       style="fill:none;stroke:#000000;stroke-linecap:round"
       id="path38" />
    <path
       d="m 168.6,20.935 c 3.7854,-0.4803 7.7325,-0.0061 11.599,0.0186 4.133,0.02639 8.1357,0.06767 12.398,0.13844"
       style="fill:none;stroke:#000000;stroke-linecap:round"
       id="path40" />
    <path
       d="m 181.16,-0.41132 -1.2131,42.049 -0.24163,36.302"
       style="fill:#000000;stroke:#000000;stroke-width:1.2368;stroke-linecap:round;stroke-linejoin:round;-inkscape-stroke:none;stop-color:#000000"
       id="path42" />
    <path
       d="m 168.64,48.326 c 3.7854,-0.4803 7.7325,-0.0061 11.599,0.0186 4.133,0.02639 8.1357,0.06767 12.398,0.13844"
       style="fill:none;stroke:#000000;stroke-linecap:round"
       id="path44" />
    <path
       d="m 181.24,8.7207 c 4.1964,0.0057 9.0441,0.45134 12.756,-0.42093"
       style="fill:none;stroke:#000000;stroke-linecap:round"
       id="path46" />
    <path
       d="m 181.42,6.7297 c 2.3259,-0.22079 4.5422,-0.21696 6.8142,-0.30286 1.914,-0.07237 3.9536,0.17594 5.7433,-0.17906"
       style="fill:none;stroke:#000000;stroke-linecap:round"
       id="path48" />
    <path
       d="m 181.58,4.6517 c 2.6447,-0.50839 5.2931,-0.32708 7.9432,-0.33593 1.4651,-0.0049 2.704,0.23996 4.3925,0.15639"
       style="fill:none;stroke:#000000;stroke-linecap:round"
       id="path50" />
    <path
       d="m 181.22,2.3727 c 2.218,-0.27349 3.689,0.0093 5.5332,-0.01925 2.3664,-0.0366 6.0955,-0.43433 7.0975,-0.1949"
       style="fill:none;stroke:#000000;stroke-linecap:round"
       id="path52" />
    <path
       d="m 179.92,39.629 c 4.1964,0.006 9.0441,0.45134 12.756,-0.42093"
       style="fill:none;stroke:#000000;stroke-linecap:round"
       id="path54" />
    <path
       d="m 180.1,37.638 c 2.3259,-0.22079 4.5422,-0.21696 6.8142,-0.30287 1.914,-0.0724 3.9536,0.17594 5.7433,-0.17905"
       style="fill:none;stroke:#000000;stroke-linecap:round"
       id="path56" />
    <path
       d="m 179.98,30.9 c 2.3259,0.22079 4.5422,0.21696 6.8142,0.30287 1.914,0.0724 3.9536,-0.17594 5.7433,0.17905"
       style="fill:none;stroke:#000000;stroke-linecap:round"
       id="path58" />
    <path
       d="m 180.28,35.559 c 2.6447,-0.50839 5.2931,-0.32708 7.9432,-0.33592 1.4651,-0.005 2.704,0.23995 4.3925,0.15638"
       style="fill:none;stroke:#000000;stroke-linecap:round"
       id="path60" />
    <path
       d="m 179.9,33.281 c 2.218,-0.27349 3.689,0.009 5.5332,-0.0192 2.3664,-0.0366 6.0955,-0.43433 7.0975,-0.1949"
       style="fill:none;stroke:#000000;stroke-linecap:round"
       id="path62" />
    <path
       d="m 180.24,65.27 c 4.1964,0.006 9.0441,0.45134 12.756,-0.42093"
       style="fill:none;stroke:#000000;stroke-linecap:round"
       id="path64" />
    <path
       d="m 180.42,63.279 c 2.3259,-0.22079 4.5422,-0.21696 6.8142,-0.30287 1.914,-0.0724 3.9536,0.17594 5.7433,-0.17905"
       style="fill:none;stroke:#000000;stroke-linecap:round"
       id="path66" />
    <path
       d="m 180.3,56.541 c 2.3259,0.22079 4.5422,0.21696 6.8142,0.30287 1.914,0.0724 3.9536,-0.17594 5.7433,0.17905"
       style="fill:none;stroke:#000000;stroke-linecap:round"
       id="path68" />
    <path
       d="m 180.58,61.201 c 2.6447,-0.50839 5.2931,-0.32708 7.9432,-0.33592 1.4651,-0.005 2.704,0.23995 4.3925,0.15638"
       style="fill:none;stroke:#000000;stroke-linecap:round"
       id="path70" />
    <path
       d="m 180.22,58.922 c 2.218,-0.27349 3.689,0.009 5.5332,-0.0192 2.3664,-0.0366 6.0955,-0.43433 7.0975,-0.1949"
       style="fill:none;stroke:#000000;stroke-linecap:round"
       id="path72" />
    <path
       d="m 8.2898,-0.41132 -1.2131,42.049 -0.24163,36.302"
       style="fill:#000000;stroke:#000000;stroke-width:1.2368;stroke-linecap:round;stroke-linejoin:round;-inkscape-stroke:none;stop-color:#000000"
       id="path74" />
    <path
       d="m -3.9992,16.543 c 3.1763,0.46298 6.2068,2.5859 9.3391,3.8065 1.8275,0.71213 3.6813,1.3548 5.5147,2.0514 2.5938,0.98559 6.4324,2.3808 7.7605,3.0112"
       style="fill:none;stroke:#000000;stroke-linecap:round"
       id="path76" />
    <path
       d="m -3.5772,14.604 c 2.542,0.54424 4.9965,2.0865 7.517,3.0743 4.8875,1.9155 10.868,4.9071 14.746,5.5303"
       style="fill:none;stroke:#000000;stroke-linecap:round"
       id="path78" />
    <path
       d="m -0.1282,53.709 c 3.997,0.74049 7.7541,2.3238 11.599,3.5865 1.6299,0.53527 3.0415,1.0542 4.861,1.6908"
       style="fill:none;stroke:#000000;stroke-linecap:round"
       id="path80" />
    <path
       d="m -0.1772,54.907 c 4.5622,0.95836 8.8912,3.0469 13.283,4.7168 0.96762,0.3679 2.0264,0.40773 2.8777,1.1677"
       style="fill:none;stroke:#000000;stroke-linecap:round"
       id="path82" />
    <path
       d="m -0.2552,56.251 c 1.8262,0.53443 3.1056,1.273 4.6596,1.9064 2.2156,0.90316 4.4318,1.805 6.6504,2.7009 1.6077,0.64924 3.2578,1.1962 4.827,1.9382"
       style="fill:none;stroke:#000000;stroke-linecap:round"
       id="path84" />
    <path
       d="m -0.5692,57.829 c 4.6345,1.3755 8.1128,3.3958 12.164,5.1068 1.356,0.5727 2.6953,1.317 4.0642,1.7268"
       style="fill:none;stroke:#000000;stroke-linecap:round"
       id="path86" />
    <path
       d="m -0.4002,59.483 c 3.8722,1.874 7.8706,3.4585 11.776,5.2539 1.3374,0.61486 2.4506,1.6456 3.9911,1.8897"
       style="fill:none;stroke:#000000;stroke-linecap:round"
       id="path88" />
    <path
       d="m -4.2242,48.261 c 3.7854,-0.4803 7.7325,-0.0061 11.599,0.0186 4.133,0.02639 8.1357,0.06767 12.398,0.13844"
       style="fill:none;stroke:#000000;stroke-linecap:round"
       id="path90" />
    <path
       d="M -3.4652,2.8737 C 0.1842,2.67369 3.4296,2.80923 6.8768,2.82346 c 3.16,0.01304 6.3218,-0.0036 9.4793,0.12429 1.2785,0.05177 1.6476,0.0868 3.8298,0.26017"
       style="fill:none;stroke:#000000;stroke-linecap:round"
       id="path92" />
    <path
       d="m -3.7512,4.9267 c 4.4743,-0.32371 8.8925,0.55456 13.344,0.70647 3.6908,0.12594 7.7649,0.37362 11.078,0.16981"
       style="fill:none;stroke:#000000;stroke-linecap:round"
       id="path94" />
    <path
       d="m -4.3472,7.5817 c 3.0505,-0.505 6.1484,-0.54855 9.2315,-0.57956 3.1715,-0.03189 6.3349,0.36721 9.5063,0.4051 2.1184,0.02531 4.232,0.09537 6.3545,-0.11881"
       style="fill:none;stroke:#000000;stroke-linecap:round"
       id="path96" />
    <path
       d="m -3.5992,9.1123 c 6.4849,-0.8246 11.281,0.14451 16.92,0.04161 2.3238,-0.04241 5.32,-0.28614 6.9672,-0.27153"
       style="fill:none;stroke:#000000;stroke-linecap:round"
       id="path98" />
    <path
       d="m 7.1108,39.585 c 4.1964,0.006 9.0441,0.45134 12.756,-0.42093"
       style="fill:none;stroke:#000000;stroke-linecap:round"
       id="path100" />
    <path
       d="m 7.2858,37.593 c 2.3259,-0.22079 4.5422,-0.21696 6.8142,-0.30287 1.914,-0.0724 3.9536,0.17594 5.7433,-0.17905"
       style="fill:none;stroke:#000000;stroke-linecap:round"
       id="path102" />
    <path
       d="m 7.1658,30.856 c 2.3259,0.22079 4.5422,0.21696 6.8142,0.30287 1.914,0.0724 3.9536,-0.17594 5.7433,0.17905"
       style="fill:none;stroke:#000000;stroke-linecap:round"
       id="path104" />
    <path
       d="m 7.4548,35.515 c 2.6447,-0.50839 5.2931,-0.32708 7.9432,-0.33592 1.4651,-0.005 2.704,0.23995 4.3925,0.15638"
       style="fill:none;stroke:#000000;stroke-linecap:round"
       id="path106" />
    <path
       d="m 7.0838,33.236 c 2.218,-0.27349 3.689,0.009 5.5332,-0.0192 2.3664,-0.0366 6.0955,-0.43433 7.0975,-0.1949"
       style="fill:none;stroke:#000000;stroke-linecap:round"
       id="path108" />
    <path
       d="m -5.4972,74.224 c 5.092,-0.47836 9.8107,0.3031 14.719,0.33254 3.4596,0.02075 6.7713,-0.29158 10.378,-0.10993"
       style="fill:none;stroke:#000000;stroke-width:1.1114;stroke-linecap:round"
       id="path110" />
    <path
       d="m -5.6112,75.636 c 6.0139,-0.19666 11.988,0.45853 17.987,0.48015 2.3858,0.0086 4.8475,-0.0993 7.1548,-0.13938"
       style="fill:none;stroke:#000000;stroke-width:1.1114;stroke-linecap:round"
       id="path112" />
    <path
       d="m 126.34496,36.374901 c 4.1964,0.0057 9.0441,0.45134 12.756,-0.42093"
       style="fill:none;stroke:#000000;stroke-linecap:round"
       id="path1340" />
    <path
       d="m 126.51996,34.383901 c 2.3259,-0.22079 4.5422,-0.21696 6.8142,-0.30286 1.914,-0.07237 3.9536,0.17594 5.7433,-0.17906"
       style="fill:none;stroke:#000000;stroke-linecap:round"
       id="path1342" />
    <path
       d="m 126.68896,32.305901 c 2.6447,-0.50839 5.2931,-0.32708 7.9432,-0.33593 1.4651,-0.0049 2.704,0.23996 4.3925,0.15639"
       style="fill:none;stroke:#000000;stroke-linecap:round"
       id="path1344" />
    <path
       d="m 126.31796,30.026901 c 2.218,-0.27349 3.689,0.0093 5.5332,-0.01925 2.3664,-0.0366 6.0955,-0.43433 7.0975,-0.1949"
       style="fill:none;stroke:#000000;stroke-linecap:round"
       id="path1346" />
    <path
       d="m 117.61696,61.988901 c 2.5795,1.7194 5.6766,2.3588 8.5296,3.502 2.2307,0.89392 4.4872,1.7228 6.7146,2.6251 1.2756,0.51672 3.0732,1.2428 3.8077,1.5967"
       style="fill:none;stroke:#000000;stroke-linecap:round"
       id="path1352" />
    <path
       d="m 117.27696,64.018901 c 5.0648,1.6335 9.3773,3.6569 14.021,5.5955 1.7017,0.71041 3.2668,1.7761 5.0709,2.2114"
       style="fill:none;stroke:#000000;stroke-linecap:round"
       id="path1354" />
    <path
       d="m 116.77696,66.094901 c 3.0958,1.2185 6.2113,2.476 9.3003,3.7546 3.3103,1.3702 7.3645,3.2698 9.8946,4.1975"
       style="fill:none;stroke:#000000;stroke-linecap:round"
       id="path1356" />
    <path
       d="m 116.38696,67.781901 c 2.1132,0.79167 3.2802,1.2633 4.9178,1.9013 2.8298,1.1024 5.6988,2.111 8.4808,3.329 2.1329,0.93375 4.4567,1.8931 6.2857,3.0461"
       style="fill:none;stroke:#000000;stroke-linecap:round"
       id="path1358" />
    <path
       d="m 116.56696,69.770901 c 3.8232,0.58774 7.1181,2.5823 10.641,3.9672 2.9732,1.1687 6.1754,2.7638 8.8562,3.6633"
       style="fill:none;stroke:#000000;stroke-linecap:round"
       id="path1360" />
    <path
       d="m 114.98496,56.866904 c 3.7854,-0.4803 7.7325,-0.0061 11.599,0.0186 4.133,0.02639 8.1357,0.06767 12.398,0.13844"
       style="fill:none;stroke:#000000;stroke-linecap:round"
       id="path1366" />
    <path
       d="m 127.35696,10.830901 c 4.1964,0.006 9.0441,0.45134 12.756,-0.42093"
       style="fill:none;stroke:#000000;stroke-linecap:round"
       id="path1370" />
    <path
       d="m 127.53196,8.8409014 c 2.3259,-0.22079 4.5422,-0.21696 6.8142,-0.30287 1.914,-0.0724 3.9536,0.17594 5.7433,-0.17905"
       style="fill:none;stroke:#000000;stroke-linecap:round"
       id="path1372" />
    <path
       d="m 127.41196,2.1009014 c 2.3259,0.22079 4.5422,0.21696 6.8142,0.30287 1.914,0.0724 3.9536,-0.17594 5.7433,0.17905"
       style="fill:none;stroke:#000000;stroke-linecap:round"
       id="path1374" />
    <path
       d="m 127.70096,6.7609014 c 2.6447,-0.50839 5.2931,-0.32708 7.9432,-0.33592 1.4651,-0.005 2.704,0.23995 4.3925,0.15638"
       style="fill:none;stroke:#000000;stroke-linecap:round"
       id="path1376" />
    <path
       d="m 127.32996,4.4809014 c 2.218,-0.27349 3.689,0.009 5.5332,-0.0192 2.3664,-0.0366 6.0955,-0.43433 7.0975,-0.1949"
       style="fill:none;stroke:#000000;stroke-linecap:round"
       id="path1378" />
    <path
       d="m 114.02772,24.460459 c 8.51324,0.0057 18.34777,0.43125 25.8781,-0.402195"
       style="fill:none;stroke:#000000;stroke-width:1;stroke-linecap:round;font-variation-settings:normal;opacity:1;vector-effect:none;fill-opacity:1;stroke-linejoin:miter;stroke-miterlimit:4;stroke-dasharray:none;stroke-dashoffset:0;stroke-opacity:1;-inkscape-stroke:none;stop-color:#000000;stop-opacity:1"
       id="path1384" />
    <path
       d="m 114.38275,22.559034 c 4.71855,-0.210963 9.21476,-0.207304 13.82396,-0.28939 3.88294,-0.06918 8.02067,0.168109 11.65144,-0.17108"
       style="fill:none;stroke:#000000;stroke-width:1;stroke-linecap:round;font-variation-settings:normal;opacity:1;vector-effect:none;fill-opacity:1;stroke-linejoin:miter;stroke-miterlimit:4;stroke-dasharray:none;stroke-dashoffset:0;stroke-opacity:1;-inkscape-stroke:none;stop-color:#000000;stop-opacity:1"
       id="path1386" />
    <path
       d="m 114.1393,16.119031 c 4.71856,0.210963 9.21476,0.207303 13.82397,0.28939 3.88293,0.06918 8.02067,-0.168109 11.65143,0.17108"
       style="fill:none;stroke:#000000;stroke-width:1;stroke-linecap:round;font-variation-settings:normal;opacity:1;vector-effect:none;fill-opacity:1;stroke-linejoin:miter;stroke-miterlimit:4;stroke-dasharray:none;stroke-dashoffset:0;stroke-opacity:1;-inkscape-stroke:none;stop-color:#000000;stop-opacity:1"
       id="path1388" />
    <path
       d="m 114.7256,20.571615 c 5.3653,-0.485762 10.73811,-0.312522 16.11437,-0.320969 2.97224,-0.0048 5.4856,0.22927 8.91106,0.14942"
       style="fill:none;stroke:#000000;stroke-width:1;stroke-linecap:round;font-variation-settings:normal;opacity:1;vector-effect:none;fill-opacity:1;stroke-linejoin:miter;stroke-miterlimit:4;stroke-dasharray:none;stroke-dashoffset:0;stroke-opacity:1;-inkscape-stroke:none;stop-color:#000000;stop-opacity:1"
       id="path1390" />
    <path
       d="m 113.97295,18.393097 c 4.49966,-0.261317 7.48387,0.0086 11.2252,-0.01835 4.80072,-0.03497 12.36594,-0.414998 14.3987,-0.186225"
       style="fill:none;stroke:#000000;stroke-width:1;stroke-linecap:round;font-variation-settings:normal;opacity:1;vector-effect:none;fill-opacity:1;stroke-linejoin:miter;stroke-miterlimit:4;stroke-dasharray:none;stroke-dashoffset:0;stroke-opacity:1;-inkscape-stroke:none;stop-color:#000000;stop-opacity:1"
       id="path1392" />
    <path
       d="m 114.02772,50.003459 c 8.51324,0.0057 18.34777,0.43125 25.8781,-0.402195"
       style="fill:none;stroke:#000000;stroke-width:1;stroke-linecap:round;font-variation-settings:normal;opacity:1;vector-effect:none;fill-opacity:1;stroke-linejoin:miter;stroke-miterlimit:4;stroke-dasharray:none;stroke-dashoffset:0;stroke-opacity:1;-inkscape-stroke:none;stop-color:#000000;stop-opacity:1"
       id="path1400" />
    <path
       d="m 114.38275,48.102033 c 4.71855,-0.210962 9.21476,-0.207303 13.82396,-0.289389 3.88294,-0.06918 8.02067,0.168109 11.65144,-0.17108"
       style="fill:none;stroke:#000000;stroke-width:1;stroke-linecap:round;font-variation-settings:normal;opacity:1;vector-effect:none;fill-opacity:1;stroke-linejoin:miter;stroke-miterlimit:4;stroke-dasharray:none;stroke-dashoffset:0;stroke-opacity:1;-inkscape-stroke:none;stop-color:#000000;stop-opacity:1"
       id="path1402" />
    <path
       d="m 114.1393,41.662031 c 4.71856,0.210963 9.21476,0.207303 13.82397,0.289389 3.88293,0.06918 8.02067,-0.168109 11.65143,0.171081"
       style="fill:none;stroke:#000000;stroke-width:1;stroke-linecap:round;font-variation-settings:normal;opacity:1;vector-effect:none;fill-opacity:1;stroke-linejoin:miter;stroke-miterlimit:4;stroke-dasharray:none;stroke-dashoffset:0;stroke-opacity:1;-inkscape-stroke:none;stop-color:#000000;stop-opacity:1"
       id="path1404" />
    <path
       d="m 114.7256,46.114614 c 5.3653,-0.485761 10.73811,-0.312521 16.11437,-0.320968 2.97224,-0.0048 5.4856,0.22927 8.91106,0.14942"
       style="fill:none;stroke:#000000;stroke-width:1;stroke-linecap:round;font-variation-settings:normal;opacity:1;vector-effect:none;fill-opacity:1;stroke-linejoin:miter;stroke-miterlimit:4;stroke-dasharray:none;stroke-dashoffset:0;stroke-opacity:1;-inkscape-stroke:none;stop-color:#000000;stop-opacity:1"
       id="path1406" />
    <path
       d="m 113.97295,43.936097 c 4.49966,-0.261317 7.48387,0.0086 11.2252,-0.01834 4.80072,-0.03497 12.36594,-0.414998 14.3987,-0.186225"
       style="fill:none;stroke:#000000;stroke-width:1;stroke-linecap:round;font-variation-settings:normal;opacity:1;vector-effect:none;fill-opacity:1;stroke-linejoin:miter;stroke-miterlimit:4;stroke-dasharray:none;stroke-dashoffset:0;stroke-opacity:1;-inkscape-stroke:none;stop-color:#000000;stop-opacity:1"
       id="path1408" />
    <path
       d="m 127.32966,-0.27863561 -1.2131,42.04899961 -0.24163,36.302"
       style="fill:#000000;stroke:#000000;stroke-width:1.2368;stroke-linecap:round;stroke-linejoin:round;-inkscape-stroke:none;stop-color:#000000"
       id="path1416" />
  </g>
  <g
     id="container0">
    <rect
       x="162.54"
       y="79.93"
       width="36.656"
       height="16.28"
       rx="3.2507"
       ry="3.2507"
       style="-inkscape-stroke:none;fill:#d1d4c5;stop-color:#000000"
       id="rect153" />
  </g>
  <g
     id="container1">
    <rect
       x="108.76"
       y="79.93"
       width="36.656"
       height="16.28"
       rx="3.2507"
       ry="3.2507"
       style="-inkscape-stroke:none;fill:#d1d4c5;stop-color:#000000"
       id="rect156" />
  </g>
  <g
     id="container2">
    <rect
       x="44.195"
       y="79.93"
       width="36.656"
       height="16.28"
       rx="3.2507"
       ry="3.2507"
       style="-inkscape-stroke:none;fill:#d1d4c5;stop-color:#000000"
       id="rect159" />
  </g>
  <g
     id="container3">
    <rect
       x="-10.837"
       y="79.93"
       width="36.656"
       height="16.28"
       rx="3.2507"
       ry="3.2507"
       style="-inkscape-stroke:none;fill:#d1d4c5;stop-color:#000000"
       id="rect162" />
  </g>
  <g
     id="container4">
    <rect
       x="141.62"
       y="111.15"
       width="36.656"
       height="16.28"
       rx="3.2507"
       ry="3.2507"
       style="-inkscape-stroke:none;fill:none;stop-color:#000000"
       id="rect165" />
  </g>
  <g
     id="container5">
    <rect
       x="98.193"
       y="111.15"
       width="36.656"
       height="16.28"
       rx="3.2507"
       ry="3.2507"
       style="-inkscape-stroke:none;fill:none;stop-color:#000000"
       id="rect168" />
  </g>
  <g
     id="container6">
    <rect
       x="54.767"
       y="111.15"
       width="36.656"
       height="16.28"
       rx="3.2507"
       ry="3.2507"
       style="-inkscape-stroke:none;fill:none;stop-color:#000000"
       id="rect171" />
  </g>
  <g
     id="container7">
    <rect
       x="11.34"
       y="111.15"
       width="36.656"
       height="16.28"
       rx="3.2507"
       ry="3.2507"
       style="-inkscape-stroke:none;fill:none;stop-color:#000000"
       id="rect174" />
  </g>
  <g
     id="draggable0">
    <rect
       x="143.52"
       y="112.71"
       width="32.855"
       height="13.173"
       rx="3"
       ry="3"
       style="-inkscape-stroke:none;fill:#ffdd55;stop-color:#000000"
       id="rect177" />
    <path
       d="m147.66 117.19q-.75792 0-1.2058.565-.44442.56499-.44442 1.54 0 .97152.44442 1.5365.44786.56499 1.2058.56499.75792 0 1.1989-.56499.44442-.565.44442-1.5365 0-.97496-.44442-1.54-.44097-.565-1.1989-.565zm0-.565q1.0818 0 1.7294.72692.64768.72347.64768 1.943 0 1.2161-.64768 1.943-.64768.72347-1.7294.72347-1.0852 0-1.7363-.72347-.64768-.72347-.64768-1.943 0-1.2196.64768-1.943.65112-.72692 1.7363-.72692z"
       style="stroke-width:.26458"
       id="path179" />
    <path
       d="m153.56 119.45q.22393.0758.43408.32384.2136.24805.42719.68213l.70624 1.4056h-.74759l-.65801-1.3195q-.25494-.51676-.49609-.68557-.23771-.16881-.65112-.16881h-.75792v2.1738h-.69591v-5.1435h1.571q.88194 0 1.316.36863.43408.36862.43408 1.1128 0 .48576-.22738.80616-.22393.32039-.65457.44441zm-1.7432-2.1601v1.8259h.87506q.50298 0 .75792-.23082.25838-.23427.25838-.68558 0-.4513-.25838-.67868-.25494-.23082-.75792-.23082z"
       style="stroke-width:.26458"
       id="path181" />
    <path
       d="m157.46 117.41-.94396 2.5597h1.8914zm-.39274-.68558h.78893l1.9603 5.1435h-.72347l-.46853-1.3195h-2.3186l-.46852 1.3195h-.73382z"
       style="stroke-width:.26458"
       id="path183" />
    <path
       d="m160.56 116.72h.93707l2.2807 4.3029v-4.3029h.67524v5.1435h-.93707l-2.2807-4.3029v4.3029h-.67524z"
       style="stroke-width:.26458"
       id="path185" />
    <path
       d="m169.35 121.13v-1.3815h-1.1369v-.57188h1.8259v2.2083q-.40308.28595-.88884.43409-.48576.14469-1.037.14469-1.2058 0-1.8879-.7028-.67868-.70624-.67868-1.9637 0-1.2609.67868-1.9637.68213-.70625 1.8879-.70625.50298 0 .95429.12403.45475.12402.83716.36518v.74069q-.38585-.32728-.81993-.49265-.43408-.16536-.91295-.16536-.94396 0-1.4194.5271-.47198.5271-.47198 1.571 0 1.0404.47198 1.5675.47542.5271 1.4194.5271.36863 0 .65801-.062.28939-.0654.52021-.19981z"
       style="stroke-width:.26458"
       id="path187" />
    <path
       d="m171.31 116.72h3.2522v.58567h-2.5563v1.5227h2.4495v.58567h-2.4495v1.8638h2.6183v.58566h-3.3142z"
       style="stroke-width:.26458"
       id="path189" />
  </g>
  <g
     id="draggable1">
    <rect
       x="100.09"
       y="112.71"
       width="32.855"
       height="13.173"
       rx="3"
       ry="3"
       style="fill:#ffdd55;-inkscape-stroke:none;stop-color:#000000"
       id="rect192" />
    <path
       d="m 108.01761,119.42409 q 0.22393,0.0758 0.43408,0.32384 0.2136,0.24805 0.4272,0.68213 l 0.70624,1.4056 h -0.74759 l -0.65801,-1.3195 q -0.25494,-0.51676 -0.49609,-0.68557 -0.23771,-0.16881 -0.65113,-0.16881 h -0.75792 v 2.1738 h -0.69591 v -5.1435 h 1.571 q 0.88194,0 1.316,0.36863 0.43409,0.36862 0.43409,1.1128 0,0.48576 -0.22738,0.80616 -0.22393,0.32039 -0.65457,0.44441 z m -1.7432,-2.1601 v 1.8259 h 0.87506 q 0.50298,0 0.75792,-0.23082 0.25838,-0.23427 0.25838,-0.68558 0,-0.4513 -0.25838,-0.67868 -0.25494,-0.23082 -0.75792,-0.23082 z"
       id="path1158"
       style="stroke-width:0.26458" />
    <path
       d="m 111.91761,117.38409 -0.94396,2.5597 h 1.8914 z m -0.39274,-0.68558 h 0.78892 l 1.9603,5.1435 h -0.72347 l -0.46853,-1.3195 h -2.3186 l -0.46853,1.3195 h -0.73381 z"
       id="path1160"
       style="stroke-width:0.26458" />
    <path
       d="m 115.02761,116.69409 h 0.69591 v 5.1435 h -0.69591 z"
       id="path1162"
       style="stroke-width:0.26458" />
    <path
       d="m 120.18761,116.86409 v 0.67869 q -0.39619,-0.18948 -0.74759,-0.2825 -0.3514,-0.093 -0.67868,-0.093 -0.56845,0 -0.8785,0.22049 -0.30662,0.22048 -0.30662,0.627 0,0.34107 0.20326,0.51677 0.20671,0.17225 0.7786,0.27905 l 0.4203,0.0861 q 0.77859,0.14814 1.1472,0.52365 0.37208,0.37207 0.37208,0.99908 0,0.74759 -0.50299,1.1334 -0.49954,0.38585 -1.4676,0.38585 -0.36518,0 -0.77859,-0.0827 -0.40997,-0.0827 -0.85094,-0.2446 v -0.71658 q 0.42375,0.23771 0.83027,0.35829 0.40652,0.12057 0.79926,0.12057 0.596,0 0.91984,-0.23426 0.32384,-0.23427 0.32384,-0.66835 0,-0.37896 -0.23427,-0.59256 -0.23082,-0.21359 -0.76136,-0.32039 l -0.42375,-0.0827 q -0.77859,-0.15503 -1.1266,-0.48576 -0.34795,-0.33073 -0.34795,-0.91984 0,-0.68213 0.47887,-1.0749 0.48231,-0.39274 1.3264,-0.39274 0.36173,0 0.73725,0.0655 0.37552,0.0655 0.76826,0.19637 z"
       id="path1164"
       style="stroke-width:0.26458" />
    <path
       d="m 121.58761,116.69409 h 0.69591 v 5.1435 h -0.69591 z"
       id="path1166"
       style="stroke-width:0.26458" />
    <path
       d="m 123.66761,116.69409 h 0.93707 l 2.2806,4.3029 v -4.3029 h 0.67524 v 5.1435 h -0.93707 l -2.2806,-4.3029 v 4.3029 h -0.67524 z"
       id="path1168"
       style="stroke-width:0.26458" />
  </g>
  <g
     id="draggable2">
    <rect
       x="56.668"
       y="112.71"
       width="32.855"
       height="13.173"
       rx="3"
       ry="3"
       style="-inkscape-stroke:none;fill:#ffdd55;font-variation-settings:normal;stop-color:#000000"
       id="rect207" />
    <path
       d="m59.61 119.41v1.8845h1.1162q.56155 0 .83027-.23082.27216-.23427.27216-.71314 0-.48231-.27216-.70969-.26872-.23082-.83027-.23082zm0-2.1153v1.5503h1.0301q.50988 0 .75792-.18948.25149-.19292.25149-.58566 0-.3893-.25149-.58223-.24805-.19292-.75792-.19292zm-.69591-.57189h1.7777q.79582 0 1.2265.33073.43064.33073.43064.94051 0 .47198-.22049.75103-.22049.27906-.64768.34796.51332.11024.79582.46164.28594.34796.28594.87161 0 .68902-.46853 1.0645-.46853.37551-1.3333.37551h-1.8466z"
       style="stroke-width:.26458"
       id="path209" />
    <path
       d="m65.473 117.41-.94396 2.5597h1.8914zm-.39274-.68558h.78893l1.9603 5.1435h-.72347l-.46853-1.3195h-2.3186l-.46853 1.3195h-.73381z"
       style="stroke-width:.26458"
       id="path211" />
    <path
       d="m68.581 116.72h.93707l2.2807 4.3029v-4.3029h.67524v5.1435h-.93707l-2.2807-4.3029v4.3029h-.67524z"
       style="stroke-width:.26458"
       id="path213" />
    <path
       d="m75.578 117.41-.94396 2.5597h1.8914zm-.39274-.68558h.78893l1.9603 5.1435h-.72347l-.46853-1.3195h-2.3186l-.46853 1.3195h-.73381z"
       style="stroke-width:.26458"
       id="path215" />
    <path
       d="m78.685 116.72h.93707l2.2807 4.3029v-4.3029h.67524v5.1435h-.93707l-2.2807-4.3029v4.3029h-.67524z"
       style="stroke-width:.26458"
       id="path217" />
    <path
       d="m83.963 116.72h3.2522v.58567h-2.5563v1.5227h2.4495v.58567h-2.4495v1.8638h2.6183v.58566h-3.3142z"
       style="stroke-width:.26458"
       id="path219" />
  </g>
  <g
     id="draggable3">
    <rect
       x="13.24"
       y="112.71"
       width="32.855"
       height="13.173"
       rx="3"
       ry="3"
       style="-inkscape-stroke:none;fill:#ffdd55;stop-color:#000000"
       id="rect222" />
    <path
       d="m17.49 117.41-.94395 2.5597h1.8914zm-.39274-.68558h.78893l1.9603 5.1435h-.72347l-.46853-1.3195h-2.3186l-.46854 1.3195h-.7338z"
       style="stroke-width:.26458"
       id="path224" />
    <path
       d="m20.6 116.72h.93707l2.2806 4.3029v-4.3029h.67524v5.1435h-.93707l-2.2806-4.3029v4.3029h-.67524z"
       style="stroke-width:.26458"
       id="path226" />
    <path
       d="m27.6 117.41-.94395 2.5597h1.8914zm-.39274-.68558h.78893l1.9603 5.1435h-.72347l-.46853-1.3195h-2.3186l-.46854 1.3195h-.7338z"
       style="stroke-width:.26458"
       id="path228" />
    <path
       d="m30.7 116.72h.93707l2.2806 4.3029v-4.3029h.67524v5.1435h-.93706l-2.2807-4.3029v4.3029h-.67524z"
       style="stroke-width:.26458"
       id="path230" />
    <path
       d="m37.7 117.41-.94396 2.5597h1.8914zm-.39275-.68558h.78893l1.9603 5.1435h-.72347l-.46853-1.3195h-2.3186l-.46854 1.3195h-.7338z"
       style="stroke-width:.26458"
       id="path232" />
    <path
       d="m43.89 116.89v.67869q-.39619-.18948-.74759-.2825-.3514-.093-.67868-.093-.56844 0-.8785.22049-.30662.22048-.30662.627 0 .34107.20326.51677.20671.17225.7786.27905l.4203.0861q.77859.14814 1.1472.52365.37207.37207.37207.99908 0 .74759-.50299 1.1334-.49954.38585-1.4676.38585-.36518 0-.77859-.0827-.40997-.0827-.85094-.2446v-.71658q.42375.23771.83027.35829.40652.12057.79926.12057.596 0 .91984-.23426.32384-.23427.32384-.66835 0-.37896-.23427-.59256-.23082-.21359-.76136-.32039l-.42375-.0827q-.77859-.15503-1.1266-.48576-.34795-.33073-.34795-.91984 0-.68213.47887-1.0749.48231-.39274 1.3264-.39274.36174 0 .73725.0655.37552.0655.76826.19637z"
       style="stroke-width:.26458"
       id="path234" />
  </g>
</svg>
