<?xml version="1.0" encoding="UTF-8"?>
<!-- Created with Inkscape (http://www.inkscape.org/) -->
<svg width="210.04mm" height="128.46mm" version="1.1" viewBox="-11 -1 210.04 128.46" xmlns="http://www.w3.org/2000/svg">
 <g id="ignore0">
  <path d="m75.063 73.045c-3.5299.37133-5.6546.3594-8.4861.39979-1.551.02212-4.2363-.12618-4.6527-.08632" style="fill:none;stroke-linecap:round;stroke:#000000"/>
  <path d="m62.614-.41132-1.2131 42.049-.24163 36.302" style="-inkscape-stroke:none;fill:#000000;stop-color:#000000;stroke-linecap:round;stroke-linejoin:round;stroke-width:1.2368;stroke:#000000"/>
  <path d="m50.1 36.155c3.7854-.4803 7.7325-.0061 11.599.0186 4.133.02639 8.1357.06767 12.398.13844" style="fill:none;stroke-linecap:round;stroke:#000000"/>
  <path d="m50.859 2.8737c3.6494-.20001 6.8948-.06447 10.342-.05024 3.16.01304 6.3218-.0036 9.4793.12429 1.2785.05177 1.6476.0868 3.8298.26017" style="fill:none;stroke-linecap:round;stroke:#000000"/>
  <path d="m50.573 4.9267c4.4743-.32371 8.8925.55456 13.344.70647 3.6908.12594 7.7649.37362 11.078.16981" style="fill:none;stroke-linecap:round;stroke:#000000"/>
  <path d="m49.977 7.5817c3.0505-.505 6.1484-.54855 9.2315-.57956 3.1715-.03189 6.3349.36721 9.5063.4051 2.1184.02531 4.232.09537 6.3545-.11881" style="fill:none;stroke-linecap:round;stroke:#000000"/>
  <path d="m50.725 9.1123c6.4849-.8246 11.281.14451 16.92.04161 2.3238-.04241 5.32-.28614 6.9672-.27153" style="fill:none;stroke-linecap:round;stroke:#000000"/>
  <path d="m61.964 25.297c4.1964.006 9.0441.45134 12.756-.42093" style="fill:none;stroke-linecap:round;stroke:#000000"/>
  <path d="m62.139 23.306c2.3259-.22079 4.5422-.21696 6.8142-.30287 1.914-.0724 3.9536.17594 5.7433-.17905" style="fill:none;stroke-linecap:round;stroke:#000000"/>
  <path d="m62.019 16.568c2.3259.22079 4.5422.21696 6.8142.30287 1.914.0724 3.9536-.17594 5.7433.17905" style="fill:none;stroke-linecap:round;stroke:#000000"/>
  <path d="m62.308 21.228c2.6447-.50839 5.2931-.32708 7.9432-.33592 1.4651-.005 2.704.23995 4.3925.15638" style="fill:none;stroke-linecap:round;stroke:#000000"/>
  <path d="m61.937 18.949c2.218-.27349 3.689.009 5.5332-.0192 2.3664-.0366 6.0955-.43433 7.0975-.1949" style="fill:none;stroke-linecap:round;stroke:#000000"/>
  <path d="m50.537 60.717c3.7854-.4803 7.7325-.0061 11.599.0186 4.133.02639 8.1357.06767 12.398.13844" style="fill:none;stroke-linecap:round;stroke:#000000"/>
  <path d="m61.485 51.439c4.1964.006 9.0441.45134 12.756-.42093" style="fill:none;stroke-linecap:round;stroke:#000000"/>
  <path d="m61.66 49.447c2.3259-.22079 4.5422-.21696 6.8142-.30287 1.914-.0724 3.9536.17594 5.7433-.17905" style="fill:none;stroke-linecap:round;stroke:#000000"/>
  <path d="m61.54 42.709c2.3259.22079 4.5422.21696 6.8142.30287 1.914.0724 3.9536-.17594 5.7433.17905" style="fill:none;stroke-linecap:round;stroke:#000000"/>
  <path d="m61.828 47.369c2.6447-.50839 5.2931-.32708 7.9432-.33592 1.4651-.005 2.704.23995 4.3925.15638" style="fill:none;stroke-linecap:round;stroke:#000000"/>
  <path d="m61.457 45.09c2.218-.27349 3.689.009 5.5332-.0192 2.3664-.0366 6.0955-.43433 7.0975-.1949" style="fill:none;stroke-linecap:round;stroke:#000000"/>
  <path d="m167.72 73.614c3.7854-.4803 7.7325-.0061 11.599.0186 4.133.02639 8.1357.06767 12.398.13844" style="fill:none;stroke-linecap:round;stroke:#000000"/>
  <path d="m168.6 20.935c3.7854-.4803 7.7325-.0061 11.599.0186 4.133.02639 8.1357.06767 12.398.13844" style="fill:none;stroke-linecap:round;stroke:#000000"/>
  <path d="m181.16-.41132-1.2131 42.049-.24163 36.302" style="-inkscape-stroke:none;fill:#000000;stop-color:#000000;stroke-linecap:round;stroke-linejoin:round;stroke-width:1.2368;stroke:#000000"/>
  <path d="m168.64 48.326c3.7854-.4803 7.7325-.0061 11.599.0186 4.133.02639 8.1357.06767 12.398.13844" style="fill:none;stroke-linecap:round;stroke:#000000"/>
  <path d="m181.24 8.7207c4.1964.0057 9.0441.45134 12.756-.42093" style="fill:none;stroke-linecap:round;stroke:#000000"/>
  <path d="m181.42 6.7297c2.3259-.22079 4.5422-.21696 6.8142-.30286 1.914-.07237 3.9536.17594 5.7433-.17906" style="fill:none;stroke-linecap:round;stroke:#000000"/>
  <path d="m181.58 4.6517c2.6447-.50839 5.2931-.32708 7.9432-.33593 1.4651-.0049 2.704.23996 4.3925.15639" style="fill:none;stroke-linecap:round;stroke:#000000"/>
  <path d="m181.22 2.3727c2.218-.27349 3.689.0093 5.5332-.01925 2.3664-.0366 6.0955-.43433 7.0975-.1949" style="fill:none;stroke-linecap:round;stroke:#000000"/>
  <path d="m179.92 39.629c4.1964.006 9.0441.45134 12.756-.42093" style="fill:none;stroke-linecap:round;stroke:#000000"/>
  <path d="m180.1 37.638c2.3259-.22079 4.5422-.21696 6.8142-.30287 1.914-.0724 3.9536.17594 5.7433-.17905" style="fill:none;stroke-linecap:round;stroke:#000000"/>
  <path d="m179.98 30.9c2.3259.22079 4.5422.21696 6.8142.30287 1.914.0724 3.9536-.17594 5.7433.17905" style="fill:none;stroke-linecap:round;stroke:#000000"/>
  <path d="m180.28 35.559c2.6447-.50839 5.2931-.32708 7.9432-.33592 1.4651-.005 2.704.23995 4.3925.15638" style="fill:none;stroke-linecap:round;stroke:#000000"/>
  <path d="m179.9 33.281c2.218-.27349 3.689.009 5.5332-.0192 2.3664-.0366 6.0955-.43433 7.0975-.1949" style="fill:none;stroke-linecap:round;stroke:#000000"/>
  <path d="m180.24 65.27c4.1964.006 9.0441.45134 12.756-.42093" style="fill:none;stroke-linecap:round;stroke:#000000"/>
  <path d="m180.42 63.279c2.3259-.22079 4.5422-.21696 6.8142-.30287 1.914-.0724 3.9536.17594 5.7433-.17905" style="fill:none;stroke-linecap:round;stroke:#000000"/>
  <path d="m180.3 56.541c2.3259.22079 4.5422.21696 6.8142.30287 1.914.0724 3.9536-.17594 5.7433.17905" style="fill:none;stroke-linecap:round;stroke:#000000"/>
  <path d="m180.58 61.201c2.6447-.50839 5.2931-.32708 7.9432-.33592 1.4651-.005 2.704.23995 4.3925.15638" style="fill:none;stroke-linecap:round;stroke:#000000"/>
  <path d="m180.22 58.922c2.218-.27349 3.689.009 5.5332-.0192 2.3664-.0366 6.0955-.43433 7.0975-.1949" style="fill:none;stroke-linecap:round;stroke:#000000"/>
  <path d="m8.2898-.41132-1.2131 42.049-.24163 36.302" style="-inkscape-stroke:none;fill:#000000;stop-color:#000000;stroke-linecap:round;stroke-linejoin:round;stroke-width:1.2368;stroke:#000000"/>
  <path d="m-3.9992 16.543c3.1763.46298 6.2068 2.5859 9.3391 3.8065 1.8275.71213 3.6813 1.3548 5.5147 2.0514 2.5938.98559 6.4324 2.3808 7.7605 3.0112" style="fill:none;stroke-linecap:round;stroke:#000000"/>
  <path d="m-3.5772 14.604c2.542.54424 4.9965 2.0865 7.517 3.0743 4.8875 1.9155 10.868 4.9071 14.746 5.5303" style="fill:none;stroke-linecap:round;stroke:#000000"/>
  <path d="m-.1282 53.709c3.997.74049 7.7541 2.3238 11.599 3.5865 1.6299.53527 3.0415 1.0542 4.861 1.6908" style="fill:none;stroke-linecap:round;stroke:#000000"/>
  <path d="m-.1772 54.907c4.5622.95836 8.8912 3.0469 13.283 4.7168.96762.3679 2.0264.40773 2.8777 1.1677" style="fill:none;stroke-linecap:round;stroke:#000000"/>
  <path d="m-.2552 56.251c1.8262.53443 3.1056 1.273 4.6596 1.9064 2.2156.90316 4.4318 1.805 6.6504 2.7009 1.6077.64924 3.2578 1.1962 4.827 1.9382" style="fill:none;stroke-linecap:round;stroke:#000000"/>
  <path d="m-.5692 57.829c4.6345 1.3755 8.1128 3.3958 12.164 5.1068 1.356.5727 2.6953 1.317 4.0642 1.7268" style="fill:none;stroke-linecap:round;stroke:#000000"/>
  <path d="m-.4002 59.483c3.8722 1.874 7.8706 3.4585 11.776 5.2539 1.3374.61486 2.4506 1.6456 3.9911 1.8897" style="fill:none;stroke-linecap:round;stroke:#000000"/>
  <path d="m-4.2242 48.261c3.7854-.4803 7.7325-.0061 11.599.0186 4.133.02639 8.1357.06767 12.398.13844" style="fill:none;stroke-linecap:round;stroke:#000000"/>
  <path d="m-3.4652 2.8737c3.6494-.20001 6.8948-.06447 10.342-.05024 3.16.01304 6.3218-.0036 9.4793.12429 1.2785.05177 1.6476.0868 3.8298.26017" style="fill:none;stroke-linecap:round;stroke:#000000"/>
  <path d="m-3.7512 4.9267c4.4743-.32371 8.8925.55456 13.344.70647 3.6908.12594 7.7649.37362 11.078.16981" style="fill:none;stroke-linecap:round;stroke:#000000"/>
  <path d="m-4.3472 7.5817c3.0505-.505 6.1484-.54855 9.2315-.57956 3.1715-.03189 6.3349.36721 9.5063.4051 2.1184.02531 4.232.09537 6.3545-.11881" style="fill:none;stroke-linecap:round;stroke:#000000"/>
  <path d="m-3.5992 9.1123c6.4849-.8246 11.281.14451 16.92.04161 2.3238-.04241 5.32-.28614 6.9672-.27153" style="fill:none;stroke-linecap:round;stroke:#000000"/>
  <path d="m7.1108 39.585c4.1964.006 9.0441.45134 12.756-.42093" style="fill:none;stroke-linecap:round;stroke:#000000"/>
  <path d="m7.2858 37.593c2.3259-.22079 4.5422-.21696 6.8142-.30287 1.914-.0724 3.9536.17594 5.7433-.17905" style="fill:none;stroke-linecap:round;stroke:#000000"/>
  <path d="m7.1658 30.856c2.3259.22079 4.5422.21696 6.8142.30287 1.914.0724 3.9536-.17594 5.7433.17905" style="fill:none;stroke-linecap:round;stroke:#000000"/>
  <path d="m7.4548 35.515c2.6447-.50839 5.2931-.32708 7.9432-.33592 1.4651-.005 2.704.23995 4.3925.15638" style="fill:none;stroke-linecap:round;stroke:#000000"/>
  <path d="m7.0838 33.236c2.218-.27349 3.689.009 5.5332-.0192 2.3664-.0366 6.0955-.43433 7.0975-.1949" style="fill:none;stroke-linecap:round;stroke:#000000"/>
  <path d="m-5.4972 74.224c5.092-.47836 9.8107.3031 14.719.33254 3.4596.02075 6.7713-.29158 10.378-.10993" style="fill:none;stroke-linecap:round;stroke-width:1.1114;stroke:#000000"/>
  <path d="m-5.6112 75.636c6.0139-.19666 11.988.45853 17.987.48015 2.3858.0086 4.8475-.0993 7.1548-.13938" style="fill:none;stroke-linecap:round;stroke-width:1.1114;stroke:#000000"/>
  <path d="m127.16 25.394c4.1964.006 9.0441.45134 12.756-.42093" style="fill:none;stroke-linecap:round;stroke:#000000"/>
  <path d="m127.34 23.403c2.3259-.22079 4.5422-.21696 6.8142-.30287 1.914-.0724 3.9536.17594 5.7433-.17905" style="fill:none;stroke-linecap:round;stroke:#000000"/>
  <path d="m127.22 16.665c2.3259.22079 4.5422.21696 6.8142.30287 1.914.0724 3.9536-.17594 5.7433.17905" style="fill:none;stroke-linecap:round;stroke:#000000"/>
  <path d="m127.5 21.325c2.6447-.50839 5.2931-.32708 7.9432-.33592 1.4651-.005 2.704.23995 4.3925.15638" style="fill:none;stroke-linecap:round;stroke:#000000"/>
  <path d="m127.14 19.046c2.218-.27349 3.689.009 5.5332-.0192 2.3664-.0366 6.0955-.43433 7.0975-.1949" style="fill:none;stroke-linecap:round;stroke:#000000"/>
  <path d="m127.78-.41132-1.2131 42.049-.24163 36.302" style="-inkscape-stroke:none;fill:#000000;stop-color:#000000;stroke-linecap:round;stroke-linejoin:round;stroke-width:1.2368;stroke:#000000"/>
  <path d="m116.02 2.8737c3.6494-.20001 6.8948-.06447 10.342-.05024 3.16.01304 6.3218-.0036 9.4793.12429 1.2785.05177 1.6476.0868 3.8298.26017" style="fill:none;stroke-linecap:round;stroke:#000000"/>
  <path d="m115.74 4.9267c4.4743-.32371 8.8925.55456 13.344.70647 3.6908.12594 7.7649.37362 11.078.16981" style="fill:none;stroke-linecap:round;stroke:#000000"/>
  <path d="m115.14 7.5817c3.0505-.505 6.1484-.54855 9.2315-.57956 3.1715-.03189 6.3349.36721 9.5063.4051 2.1184.02531 4.232.09537 6.3545-.11881" style="fill:none;stroke-linecap:round;stroke:#000000"/>
  <path d="m115.88 9.1123c6.4849-.8246 11.281.14451 16.92.04161 2.3238-.04241 5.32-.28614 6.9672-.27153" style="fill:none;stroke-linecap:round;stroke:#000000"/>
  <path d="m116.02 56.848c3.6494-.20001 6.8948-.06447 10.342-.05024 3.16.01304 6.3218-.0036 9.4793.12429 1.2785.05177 1.6476.0868 3.8298.26017" style="fill:none;stroke-linecap:round;stroke:#000000"/>
  <path d="m115.74 58.901c4.4743-.32371 8.8925.55456 13.344.70647 3.6908.12594 7.7649.37362 11.078.16981" style="fill:none;stroke-linecap:round;stroke:#000000"/>
  <path d="m115.14 61.556c3.0505-.505 6.1484-.54855 9.2315-.57956 3.1715-.03189 6.3349.36721 9.5063.4051 2.1184.02531 4.232.09537 6.3545-.11881" style="fill:none;stroke-linecap:round;stroke:#000000"/>
  <path d="m115.88 63.087c6.4849-.8246 11.281.14451 16.92.04161 2.3238-.04241 5.32-.28614 6.9672-.27153" style="fill:none;stroke-linecap:round;stroke:#000000"/>
  <path d="m114.2 35.086c5.092-.47836 9.8107.3031 14.719.33254 3.4596.02075 6.7713-.29158 10.378-.10993" style="fill:none;stroke-linecap:round;stroke-width:1.1114;stroke:#000000"/>
  <path d="m114.1 36.498c6.0139-.19666 11.988.45853 17.987.48015 2.3858.0086 4.8475-.0993 7.1548-.13938" style="fill:none;stroke-linecap:round;stroke-width:1.1114;stroke:#000000"/>
  <path d="m126.76 48.624c2.3259-.22079 4.5422-.21696 6.8142-.30287 1.914-.0724 3.9536.17594 5.7433-.17905" style="fill:none;stroke-linecap:round;stroke:#000000"/>
  <path d="m126.92 46.546c2.6447-.50839 5.2931-.32708 7.9432-.33592 1.4651-.005 2.704.23995 4.3925.15638" style="fill:none;stroke-linecap:round;stroke:#000000"/>
  <path d="m116 68.416c2.542.54424 4.9965 2.0865 7.517 3.0743 4.8876 1.9155 10.868 4.9071 14.746 5.5303" style="fill:none;stroke-linecap:round;stroke:#000000"/>
 </g>
 <g id="container0">
  <rect x="162.54" y="79.93" width="36.656" height="16.28" rx="3.2507" ry="3.2507" style="-inkscape-stroke:none;fill:#d1d4c5;stop-color:#000000"/>
 </g>
 <g id="container1">
  <rect x="108.76" y="79.93" width="36.656" height="16.28" rx="3.2507" ry="3.2507" style="-inkscape-stroke:none;fill:#d1d4c5;stop-color:#000000"/>
 </g>
 <g id="container2">
  <rect x="44.195" y="79.93" width="36.656" height="16.28" rx="3.2507" ry="3.2507" style="-inkscape-stroke:none;fill:#d1d4c5;stop-color:#000000"/>
 </g>
 <g id="container3">
  <rect x="-10.837" y="79.93" width="36.656" height="16.28" rx="3.2507" ry="3.2507" style="-inkscape-stroke:none;fill:#d1d4c5;stop-color:#000000"/>
 </g>
 <g id="container4">
  <rect x="141.62" y="111.15" width="36.656" height="16.28" rx="3.2507" ry="3.2507" style="-inkscape-stroke:none;fill:none;stop-color:#000000"/>
 </g>
 <g id="container5">
  <rect x="98.193" y="111.15" width="36.656" height="16.28" rx="3.2507" ry="3.2507" style="-inkscape-stroke:none;fill:none;stop-color:#000000"/>
 </g>
 <g id="container6">
  <rect x="54.767" y="111.15" width="36.656" height="16.28" rx="3.2507" ry="3.2507" style="-inkscape-stroke:none;fill:none;stop-color:#000000"/>
 </g>
 <g id="container7">
  <rect x="11.34" y="111.15" width="36.656" height="16.28" rx="3.2507" ry="3.2507" style="-inkscape-stroke:none;fill:none;stop-color:#000000"/>
 </g>
 <g id="draggable0">
  <rect x="143.52" y="112.71" width="32.855" height="13.173" rx="3" ry="3" style="-inkscape-stroke:none;fill:#ffdd55;stop-color:#000000"/>
  <path d="m147.66 117.19q-.75792 0-1.2058.565-.44442.56499-.44442 1.54 0 .97152.44442 1.5365.44786.56499 1.2058.56499.75792 0 1.1989-.56499.44442-.565.44442-1.5365 0-.97496-.44442-1.54-.44097-.565-1.1989-.565zm0-.565q1.0818 0 1.7294.72692.64768.72347.64768 1.943 0 1.2161-.64768 1.943-.64768.72347-1.7294.72347-1.0852 0-1.7363-.72347-.64768-.72347-.64768-1.943 0-1.2196.64768-1.943.65112-.72692 1.7363-.72692z" style="stroke-width:.26458"/>
  <path d="m153.56 119.45q.22393.0758.43408.32384.2136.24805.42719.68213l.70624 1.4056h-.74759l-.65801-1.3195q-.25494-.51676-.49609-.68557-.23771-.16881-.65112-.16881h-.75792v2.1738h-.69591v-5.1435h1.571q.88194 0 1.316.36863.43408.36862.43408 1.1128 0 .48576-.22738.80616-.22393.32039-.65457.44441zm-1.7432-2.1601v1.8259h.87506q.50298 0 .75792-.23082.25838-.23427.25838-.68558 0-.4513-.25838-.67868-.25494-.23082-.75792-.23082z" style="stroke-width:.26458"/>
  <path d="m157.46 117.41-.94396 2.5597h1.8914zm-.39274-.68558h.78893l1.9603 5.1435h-.72347l-.46853-1.3195h-2.3186l-.46852 1.3195h-.73382z" style="stroke-width:.26458"/>
  <path d="m160.56 116.72h.93707l2.2807 4.3029v-4.3029h.67524v5.1435h-.93707l-2.2807-4.3029v4.3029h-.67524z" style="stroke-width:.26458"/>
  <path d="m169.35 121.13v-1.3815h-1.1369v-.57188h1.8259v2.2083q-.40308.28595-.88884.43409-.48576.14469-1.037.14469-1.2058 0-1.8879-.7028-.67868-.70624-.67868-1.9637 0-1.2609.67868-1.9637.68213-.70625 1.8879-.70625.50298 0 .95429.12403.45475.12402.83716.36518v.74069q-.38585-.32728-.81993-.49265-.43408-.16536-.91295-.16536-.94396 0-1.4194.5271-.47198.5271-.47198 1.571 0 1.0404.47198 1.5675.47542.5271 1.4194.5271.36863 0 .65801-.062.28939-.0654.52021-.19981z" style="stroke-width:.26458"/>
  <path d="m171.31 116.72h3.2522v.58567h-2.5563v1.5227h2.4495v.58567h-2.4495v1.8638h2.6183v.58566h-3.3142z" style="stroke-width:.26458"/>
 </g>
 <g id="draggable1">
  <rect x="100.09" y="112.71" width="32.855" height="13.173" rx="3" ry="3" style="-inkscape-stroke:none;fill:#ffdd55;stop-color:#000000"/>
  <path d="m102.33 116.72h1.037l1.3126 3.5002 1.3195-3.5002h1.037v5.1435h-.67868v-4.5165l-1.3264 3.5278h-.69936l-1.3264-3.5278v4.5165h-.67524z" style="stroke-width:.26458"/>
  <path d="m108.42 116.72h3.2522v.58567h-2.5563v1.5227h2.4495v.58567h-2.4495v1.8638h2.6183v.58566h-3.3142z" style="stroke-width:.26458"/>
  <path d="m112.87 116.72h.69589v4.5579h2.5046v.58566h-3.2005z" style="stroke-width:.26458"/>
  <path d="m118.64 117.19q-.75792 0-1.2058.565-.44441.56499-.44441 1.54 0 .97152.44441 1.5365.44787.56499 1.2058.56499t1.1989-.56499q.44442-.565.44442-1.5365 0-.97496-.44442-1.54-.44097-.565-1.1989-.565zm0-.565q1.0818 0 1.7294.72692.64769.72347.64769 1.943 0 1.2161-.64769 1.943-.64768.72347-1.7294.72347-1.0852 0-1.7363-.72347-.64767-.72347-.64767-1.943 0-1.2196.64767-1.943.65112-.72692 1.7363-.72692z" style="stroke-width:.26458"/>
  <path d="m122.11 116.72h.93706l2.2807 4.3029v-4.3029h.67524v5.1435h-.93707l-2.2807-4.3029v4.3029h-.67523z" style="stroke-width:.26458"/>
  <path d="m127.38 116.72h3.2522v.58567h-2.5563v1.5227h2.4495v.58567h-2.4495v1.8638h2.6183v.58566h-3.3142z" style="stroke-width:.26458"/>
 </g>
 <g id="draggable2">
  <rect x="56.668" y="112.71" width="32.855" height="13.173" rx="3" ry="3" style="-inkscape-stroke:none;fill:#ffdd55;font-variation-settings:normal;stop-color:#000000"/>
  <path d="m59.61 119.41v1.8845h1.1162q.56155 0 .83027-.23082.27216-.23427.27216-.71314 0-.48231-.27216-.70969-.26872-.23082-.83027-.23082zm0-2.1153v1.5503h1.0301q.50988 0 .75792-.18948.25149-.19292.25149-.58566 0-.3893-.25149-.58223-.24805-.19292-.75792-.19292zm-.69591-.57189h1.7777q.79582 0 1.2265.33073.43064.33073.43064.94051 0 .47198-.22049.75103-.22049.27906-.64768.34796.51332.11024.79582.46164.28594.34796.28594.87161 0 .68902-.46853 1.0645-.46853.37551-1.3333.37551h-1.8466z" style="stroke-width:.26458"/>
  <path d="m65.473 117.41-.94396 2.5597h1.8914zm-.39274-.68558h.78893l1.9603 5.1435h-.72347l-.46853-1.3195h-2.3186l-.46853 1.3195h-.73381z" style="stroke-width:.26458"/>
  <path d="m68.581 116.72h.93707l2.2807 4.3029v-4.3029h.67524v5.1435h-.93707l-2.2807-4.3029v4.3029h-.67524z" style="stroke-width:.26458"/>
  <path d="m75.578 117.41-.94396 2.5597h1.8914zm-.39274-.68558h.78893l1.9603 5.1435h-.72347l-.46853-1.3195h-2.3186l-.46853 1.3195h-.73381z" style="stroke-width:.26458"/>
  <path d="m78.685 116.72h.93707l2.2807 4.3029v-4.3029h.67524v5.1435h-.93707l-2.2807-4.3029v4.3029h-.67524z" style="stroke-width:.26458"/>
  <path d="m83.963 116.72h3.2522v.58567h-2.5563v1.5227h2.4495v.58567h-2.4495v1.8638h2.6183v.58566h-3.3142z" style="stroke-width:.26458"/>
 </g>
 <g id="draggable3">
  <rect x="13.24" y="112.71" width="32.855" height="13.173" rx="3" ry="3" style="-inkscape-stroke:none;fill:#ffdd55;stop-color:#000000"/>
  <path d="m17.49 117.41-.94395 2.5597h1.8914zm-.39274-.68558h.78893l1.9603 5.1435h-.72347l-.46853-1.3195h-2.3186l-.46854 1.3195h-.7338z" style="stroke-width:.26458"/>
  <path d="m20.6 116.72h.93707l2.2806 4.3029v-4.3029h.67524v5.1435h-.93707l-2.2806-4.3029v4.3029h-.67524z" style="stroke-width:.26458"/>
  <path d="m27.6 117.41-.94395 2.5597h1.8914zm-.39274-.68558h.78893l1.9603 5.1435h-.72347l-.46853-1.3195h-2.3186l-.46854 1.3195h-.7338z" style="stroke-width:.26458"/>
  <path d="m30.7 116.72h.93707l2.2806 4.3029v-4.3029h.67524v5.1435h-.93706l-2.2807-4.3029v4.3029h-.67524z" style="stroke-width:.26458"/>
  <path d="m37.7 117.41-.94396 2.5597h1.8914zm-.39275-.68558h.78893l1.9603 5.1435h-.72347l-.46853-1.3195h-2.3186l-.46854 1.3195h-.7338z" style="stroke-width:.26458"/>
  <path d="m43.89 116.89v.67869q-.39619-.18948-.74759-.2825-.3514-.093-.67868-.093-.56844 0-.8785.22049-.30662.22048-.30662.627 0 .34107.20326.51677.20671.17225.7786.27905l.4203.0861q.77859.14814 1.1472.52365.37207.37207.37207.99908 0 .74759-.50299 1.1334-.49954.38585-1.4676.38585-.36518 0-.77859-.0827-.40997-.0827-.85094-.2446v-.71658q.42375.23771.83027.35829.40652.12057.79926.12057.596 0 .91984-.23426.32384-.23427.32384-.66835 0-.37896-.23427-.59256-.23082-.21359-.76136-.32039l-.42375-.0827q-.77859-.15503-1.1266-.48576-.34795-.33073-.34795-.91984 0-.68213.47887-1.0749.48231-.39274 1.3264-.39274.36174 0 .73725.0655.37552.0655.76826.19637z" style="stroke-width:.26458"/>
 </g>
</svg>
