<?xml version="1.0" encoding="UTF-8" standalone="no"?>
<!-- Created with Inkscape (http://www.inkscape.org/) -->

<svg
   width="121.40301mm"
   height="140.453mm"
   viewBox="0 0 121.40301 140.453"
   version="1.1"
   id="svg1073"
   inkscape:version="1.1.1 (3bf5ae0d25, 2021-09-20)"
   sodipodi:docname="2023-RO-02-answerA_compatible.svg"
   xmlns:inkscape="http://www.inkscape.org/namespaces/inkscape"
   xmlns:sodipodi="http://sodipodi.sourceforge.net/DTD/sodipodi-0.dtd"
   xmlns="http://www.w3.org/2000/svg"
   xmlns:svg="http://www.w3.org/2000/svg">
  <sodipodi:namedview
     id="namedview1075"
     pagecolor="#ffffff"
     bordercolor="#666666"
     borderopacity="1.0"
     inkscape:pageshadow="2"
     inkscape:pageopacity="0.0"
     inkscape:pagecheckerboard="0"
     inkscape:document-units="mm"
     showgrid="false"
     inkscape:zoom="0.90583672"
     inkscape:cx="309.65846"
     inkscape:cy="201.47119"
     inkscape:window-width="2048"
     inkscape:window-height="1017"
     inkscape:window-x="-8"
     inkscape:window-y="-8"
     inkscape:window-maximized="1"
     inkscape:current-layer="g4332"
     inkscape:snap-others="false" />
  <defs
     id="defs1070" />
  <g
     inkscape:label="Ebene 1"
     inkscape:groupmode="layer"
     id="layer1"
     transform="translate(-44.298497,-78.273502)">
    <g
       id="g4332"
       transform="translate(83.520166,83.647429)">
      <ellipse
         fill="none"
         stroke="#000000"
         cx="-3.9201665"
         cy="1.3525729"
         rx="9.5249996"
         ry="6.3499999"
         id="ellipse8-4"
         style="fill:#ffffff;stroke-width:0.753;stroke-miterlimit:4;stroke-dasharray:none" />
      <g
         aria-label="+"
         transform="matrix(0.35277777,0,0,0.35277777,-26.145166,137.09057)"
         id="text10-7"
         style="font-weight:bold;font-size:34px;font-family:Calibri;-inkscape-font-specification:'Calibri, Bold';baseline-shift:baseline;text-anchor:middle;opacity:1;vector-effect:none;stroke-width:2.15058;stop-color:#000000;stop-opacity:1">
        <path
           d="m 70.603516,-383.34589 q 0,0.46485 -0.0498,0.78028 -0.04981,0.31543 -0.149414,0.51465 -0.09961,0.18261 -0.232422,0.26562 -0.132813,0.083 -0.282227,0.083 h -5.163086 v 5.62793 q 0,0.16601 -0.08301,0.29883 -0.08301,0.11621 -0.282227,0.21582 -0.199219,0.083 -0.53125,0.13281 -0.332031,0.0498 -0.830078,0.0498 -0.498047,0 -0.830078,-0.0498 -0.332031,-0.0498 -0.53125,-0.13281 -0.199219,-0.0996 -0.298828,-0.21582 -0.08301,-0.13282 -0.08301,-0.29883 v -5.62793 h -5.146484 q -0.149415,0 -0.282227,-0.083 -0.116211,-0.083 -0.21582,-0.26562 -0.09961,-0.19922 -0.166016,-0.51465 -0.0498,-0.31543 -0.0498,-0.78028 0,-0.44824 0.0498,-0.76367 0.0498,-0.33203 0.132813,-0.51465 0.09961,-0.19922 0.21582,-0.28222 0.116211,-0.083 0.265625,-0.083 h 5.196289 v -5.61133 q 0,-0.16601 0.08301,-0.29883 0.09961,-0.14941 0.298828,-0.23242 0.199219,-0.0996 0.53125,-0.14941 0.332031,-0.0498 0.830078,-0.0498 0.498047,0 0.830078,0.0498 0.332031,0.0498 0.53125,0.14941 0.199219,0.083 0.282227,0.23242 0.08301,0.13282 0.08301,0.29883 v 5.61133 h 5.212891 q 0.132813,0 0.249024,0.083 0.132812,0.083 0.21582,0.28222 0.09961,0.18262 0.149414,0.51465 0.0498,0.31543 0.0498,0.76367 z"
           style="font-weight:bold;font-size:34px;font-family:Calibri;-inkscape-font-specification:'Calibri, Bold';baseline-shift:baseline;text-anchor:middle;opacity:1;vector-effect:none;stroke-width:2.15058;stop-color:#000000;stop-opacity:1"
           id="path898" />
      </g>
      <ellipse
         fill="none"
         stroke="#000000"
         cx="-16.620167"
         cy="26.752573"
         rx="9.5249996"
         ry="6.3499999"
         id="ellipse15-3"
         style="fill:#ffffff;stroke-width:0.753;stroke-miterlimit:4;stroke-dasharray:none" />
      <g
         aria-label="a"
         transform="matrix(0.35277777,0,0,0.35277777,-26.145166,136.03224)"
         id="text17-2"
         style="font-weight:bold;font-size:34px;font-family:Calibri;-inkscape-font-specification:'Calibri, Bold';baseline-shift:baseline;text-anchor:middle;opacity:1;vector-effect:none;stroke-width:2.15058;stop-color:#000000;stop-opacity:1">
        <path
           d="m 33.316895,-302.31464 q 0,0.23243 -0.166016,0.36524 -0.166016,0.13281 -0.53125,0.18262 -0.348633,0.0664 -1.045899,0.0664 -0.74707,0 -1.095703,-0.0664 -0.332031,-0.0498 -0.481445,-0.18262 -0.132812,-0.13281 -0.132812,-0.36524 v -1.17871 q -0.913086,0.9795 -2.091797,1.52735 -1.16211,0.54785 -2.589844,0.54785 -1.178711,0 -2.174805,-0.31543 -0.979492,-0.29883 -1.709961,-0.89649 -0.713867,-0.61425 -1.112304,-1.51074 -0.398438,-0.89648 -0.398438,-2.09179 0,-1.29493 0.498047,-2.24122 0.514648,-0.96289 1.510742,-1.57714 1.012695,-0.63086 2.506836,-0.92969 1.494141,-0.29883 3.469727,-0.29883 h 1.444336 v -0.89648 q 0,-0.69727 -0.149414,-1.21192 -0.132813,-0.53125 -0.464844,-0.87988 -0.31543,-0.34863 -0.863281,-0.51465 -0.53125,-0.16602 -1.328125,-0.16602 -1.045899,0 -1.875977,0.23243 -0.813477,0.23242 -1.444336,0.51465 -0.630859,0.28222 -1.0625,0.51464 -0.415039,0.23243 -0.680664,0.23243 -0.182617,0 -0.332031,-0.11622 -0.132813,-0.11621 -0.232422,-0.33203 -0.08301,-0.21582 -0.132813,-0.53125 -0.0498,-0.31543 -0.0498,-0.69726 0,-0.51465 0.08301,-0.81348 0.08301,-0.29883 0.31543,-0.53125 0.232422,-0.24902 0.813477,-0.53125 0.581054,-0.29883 1.361328,-0.54785 0.780273,-0.24902 1.693359,-0.39844 0.929688,-0.16601 1.90918,-0.16601 1.743164,0 2.97168,0.34863 1.245117,0.33203 2.041992,1.0459 0.796875,0.69726 1.162109,1.80957 0.365235,1.1123 0.365235,2.63965 z m -4.100586,-6.34179 h -1.59375 q -1.012696,0 -1.726563,0.14941 -0.713867,0.14942 -1.162109,0.44824 -0.448242,0.29883 -0.664063,0.73047 -0.199219,0.41504 -0.199219,0.96289 0,0.92969 0.581055,1.46094 0.597656,0.53125 1.643555,0.53125 0.879883,0 1.610351,-0.44824 0.747071,-0.44824 1.510743,-1.31153 z"
           style="font-weight:bold;font-size:34px;font-family:Calibri;-inkscape-font-specification:'Calibri, Bold';baseline-shift:baseline;text-anchor:middle;opacity:1;vector-effect:none;stroke-width:2.15058;stop-color:#000000;stop-opacity:1"
           id="path901" />
      </g>
      <path
         fill="none"
         stroke="#000000"
         d="m -6.9944836,7.5012072 c -1.497577,2.9951188 -3.3298694,6.6597038 -4.9924054,9.9848108"
         id="path22-9"
         style="stroke-width:0.753;stroke-miterlimit:4;stroke-dasharray:none" />
      <polygon
         fill="#000000"
         stroke="#000000"
         points="43.237,-330.6477 35.6343,-323.2687 36.976,-333.7782 "
         id="polygon24-2"
         style="stroke:none"
         transform="matrix(0.4046375,0,0,0.4046375,-27.815638,151.13596)" />
      <ellipse
         fill="none"
         stroke="#000000"
         cx="8.7798328"
         cy="26.752573"
         rx="9.5249996"
         ry="6.3499999"
         id="ellipse29-8"
         style="fill:#ffffff;stroke-width:0.753;stroke-miterlimit:4;stroke-dasharray:none" />
      <g
         aria-label="·"
         transform="matrix(0.35277777,0,0,0.35277777,-26.145166,136.87121)"
         id="text31-2"
         style="font-weight:bold;font-size:34px;font-family:Calibri;-inkscape-font-specification:'Calibri, Bold';baseline-shift:baseline;text-anchor:middle;opacity:1;vector-effect:none;stroke-width:2.15058;stop-color:#000000;stop-opacity:1">
        <path
           d="m 101.45703,-311.72772 q 0,1.54394 -0.54785,2.09179 -0.53125,0.53125 -1.925782,0.53125 -1.394531,0 -1.925781,-0.53125 -0.53125,-0.53125 -0.53125,-1.99218 0,-1.54395 0.53125,-2.0752 0.547852,-0.54785 1.958985,-0.54785 1.377928,0 1.909178,0.53125 0.53125,0.53125 0.53125,1.99219 z"
           style="font-weight:bold;font-size:34px;font-family:Calibri;-inkscape-font-specification:'Calibri, Bold';baseline-shift:baseline;text-anchor:middle;opacity:1;vector-effect:none;stroke-width:2.15058;stop-color:#000000;stop-opacity:1"
           id="path904" />
      </g>
      <path
         fill="none"
         stroke="#000000"
         d="M -0.84584934,7.5012072 C 0.65172758,10.496326 2.48402,14.160911 4.1465558,17.486018"
         id="path36-4"
         style="stroke-width:0.753;stroke-miterlimit:4;stroke-dasharray:none" />
      <polygon
         fill="#000000"
         stroke="#000000"
         points="90.3657,-323.2687 82.763,-330.6477 89.024,-333.7782 "
         id="polygon38-6"
         style="stroke:none"
         transform="matrix(0.4046375,0,0,0.4046375,-30.955575,151.06294)" />
      <ellipse
         fill="none"
         stroke="#000000"
         cx="-3.9201665"
         cy="52.152573"
         rx="9.5249996"
         ry="6.3499999"
         id="ellipse43-3"
         style="fill:#ffffff;stroke-width:0.753;stroke-miterlimit:4;stroke-dasharray:none" />
      <g
         aria-label="1"
         transform="matrix(0.35277777,0,0,0.35277777,-26.145166,136.87121)"
         id="text45-7"
         style="font-weight:bold;font-size:34px;font-family:Calibri;-inkscape-font-specification:'Calibri, Bold';baseline-shift:baseline;text-anchor:middle;opacity:1;vector-effect:none;stroke-width:2.15058;stop-color:#000000;stop-opacity:1">
        <path
           d="m 70.055664,-231.46016 q 0,0.46484 -0.0498,0.79688 -0.0498,0.31543 -0.149414,0.51464 -0.08301,0.18262 -0.199218,0.26563 -0.116211,0.083 -0.265625,0.083 H 57.538086 q -0.132813,0 -0.249024,-0.083 -0.11621,-0.083 -0.21582,-0.26563 -0.08301,-0.19921 -0.132812,-0.51464 -0.0498,-0.33204 -0.0498,-0.79688 0,-0.48144 0.0332,-0.79687 0.0498,-0.33204 0.132813,-0.53125 0.09961,-0.19922 0.21582,-0.28223 0.116211,-0.0996 0.265625,-0.0996 h 4.000976 v -13.97852 l -3.453125,1.90918 q -0.381835,0.18262 -0.630859,0.23243 -0.232422,0.0332 -0.381836,-0.0996 -0.132812,-0.14942 -0.182617,-0.49805 -0.0498,-0.34863 -0.0498,-0.97949 0,-0.39844 0.0166,-0.64746 0.0166,-0.26563 0.08301,-0.44825 0.06641,-0.18261 0.182617,-0.29882 0.116211,-0.11621 0.31543,-0.24903 l 4.615234,-2.98828 q 0.08301,-0.0664 0.199219,-0.0996 0.132812,-0.0498 0.332031,-0.0664 0.199219,-0.0332 0.514648,-0.0332 0.332032,-0.0166 0.84668,-0.0166 0.630859,0 1.012695,0.0332 0.398438,0.0166 0.597657,0.083 0.199218,0.0498 0.265625,0.14942 0.06641,0.0996 0.06641,0.24902 v 17.74707 h 3.50293 q 0.149414,0 0.265625,0.0996 0.132812,0.083 0.21582,0.28223 0.09961,0.19921 0.132812,0.53125 0.0498,0.31543 0.0498,0.79687 z"
           style="font-weight:bold;font-size:34px;font-family:Calibri;-inkscape-font-specification:'Calibri, Bold';baseline-shift:baseline;text-anchor:middle;opacity:1;vector-effect:none;stroke-width:2.15058;stop-color:#000000;stop-opacity:1"
           id="path907" />
      </g>
      <path
         fill="none"
         stroke="#000000"
         d="M 5.7055161,32.901207 C 4.2079392,35.896325 2.3756467,39.56091 0.71311091,42.886017"
         id="path50-7"
         style="stroke-width:0.753;stroke-miterlimit:4;stroke-dasharray:none" />
      <polygon
         fill="#000000"
         stroke="#000000"
         points="71.6343,-251.2687 72.976,-261.7782 79.237,-258.6477 "
         id="polygon52-4"
         style="stroke:none"
         transform="matrix(0.4046375,0,0,0.4046375,-29.714205,147.26581)" />
      <ellipse
         fill="none"
         stroke="#000000"
         cx="21.479834"
         cy="52.152573"
         rx="9.5249996"
         ry="6.3499999"
         id="ellipse57-1"
         style="fill:#ffffff;stroke-width:0.753;stroke-miterlimit:4;stroke-dasharray:none" />
      <g
         aria-label="+"
         transform="matrix(0.35277777,0,0,0.35277777,-26.145166,137.09057)"
         id="text59-2"
         style="font-weight:bold;font-size:34px;font-family:Calibri;-inkscape-font-specification:'Calibri, Bold';baseline-shift:baseline;text-anchor:middle;opacity:1;vector-effect:none;stroke-width:2.15058;stop-color:#000000;stop-opacity:1">
        <path
           d="m 142.60352,-239.3459 q 0,0.46484 -0.0498,0.78027 -0.0498,0.31543 -0.14941,0.51465 -0.0996,0.18262 -0.23243,0.26563 -0.13281,0.083 -0.28222,0.083 h -5.16309 v 5.62793 q 0,0.16602 -0.083,0.29883 -0.083,0.11621 -0.28222,0.21582 -0.19922,0.083 -0.53125,0.13281 -0.33203,0.0498 -0.83008,0.0498 -0.49805,0 -0.83008,-0.0498 -0.33203,-0.0498 -0.53125,-0.13281 -0.19922,-0.0996 -0.29883,-0.21582 -0.083,-0.13281 -0.083,-0.29883 v -5.62793 h -5.14649 q -0.14941,0 -0.28222,-0.083 -0.11622,-0.083 -0.21583,-0.26563 -0.0996,-0.19922 -0.16601,-0.51465 -0.0498,-0.31543 -0.0498,-0.78027 0,-0.44824 0.0498,-0.76367 0.0498,-0.33203 0.13281,-0.51465 0.0996,-0.19922 0.21582,-0.28223 0.11621,-0.083 0.26563,-0.083 h 5.19629 v -5.61132 q 0,-0.16602 0.083,-0.29883 0.0996,-0.14942 0.29883,-0.23242 0.19922,-0.0996 0.53125,-0.14942 0.33203,-0.0498 0.83008,-0.0498 0.49805,0 0.83008,0.0498 0.33203,0.0498 0.53125,0.14942 0.19922,0.083 0.28222,0.23242 0.083,0.13281 0.083,0.29883 v 5.61132 h 5.21289 q 0.13282,0 0.24903,0.083 0.13281,0.083 0.21582,0.28223 0.0996,0.18262 0.14941,0.51465 0.0498,0.31543 0.0498,0.76367 z"
           style="font-weight:bold;font-size:34px;font-family:Calibri;-inkscape-font-specification:'Calibri, Bold';baseline-shift:baseline;text-anchor:middle;opacity:1;vector-effect:none;stroke-width:2.15058;stop-color:#000000;stop-opacity:1"
           id="path910" />
      </g>
      <path
         fill="none"
         stroke="#000000"
         d="m 11.85415,32.901207 c 1.497577,2.995118 3.32987,6.659703 4.992406,9.98481"
         id="path64-3"
         style="stroke-width:0.753;stroke-miterlimit:4;stroke-dasharray:none" />
      <polygon
         fill="#000000"
         stroke="#000000"
         points="125.024,-261.7782 126.3657,-251.2687 118.763,-258.6477 "
         id="polygon66-9"
         style="stroke:none"
         transform="matrix(0.4046375,0,0,0.4046375,-32.781121,147.41185)" />
      <ellipse
         fill="none"
         stroke="#000000"
         cx="8.7798328"
         cy="77.552574"
         rx="9.5249996"
         ry="6.3499999"
         id="ellipse71-8"
         style="fill:#ffffff;stroke-width:0.753;stroke-miterlimit:4;stroke-dasharray:none" />
      <g
         aria-label="b"
         transform="matrix(0.35277777,0,0,0.35277777,-26.145166,137.38755)"
         id="text73-9"
         style="font-weight:bold;font-size:34px;font-family:Calibri;-inkscape-font-specification:'Calibri, Bold';baseline-shift:baseline;text-anchor:middle;opacity:1;vector-effect:none;stroke-width:2.15058;stop-color:#000000;stop-opacity:1">
        <path
           d="m 106.87744,-165.96797 q 0,1.97558 -0.43164,3.55273 -0.43164,1.57715 -1.24512,2.68946 -0.81347,1.1123 -2.00879,1.70996 -1.17871,0.59765 -2.68945,0.59765 -0.747069,0 -1.39453,-0.14941 -0.647461,-0.13281 -1.245117,-0.44824 -0.581055,-0.31543 -1.162109,-0.79688 -0.564454,-0.48144 -1.16211,-1.16211 v 1.61035 q 0,0.18262 -0.09961,0.31543 -0.08301,0.11621 -0.298828,0.19922 -0.199219,0.083 -0.547852,0.11621 -0.348633,0.0332 -0.84668,0.0332 -0.514648,0 -0.863281,-0.0332 -0.332031,-0.0332 -0.547851,-0.11621 -0.199219,-0.083 -0.282227,-0.19922 -0.08301,-0.13281 -0.08301,-0.31543 v -21.83105 q 0,-0.16602 0.09961,-0.29883 0.09961,-0.13281 0.332031,-0.21582 0.249023,-0.0996 0.647461,-0.14941 0.398437,-0.0498 1.012695,-0.0498 0.614258,0 1.012695,0.0498 0.398438,0.0498 0.63086,0.14941 0.249023,0.083 0.348633,0.21582 0.09961,0.13281 0.09961,0.29883 v 8.18457 q 0.564453,-0.56445 1.128906,-0.96289 0.564453,-0.39844 1.128907,-0.64746 0.564453,-0.26563 1.162109,-0.38184 0.597658,-0.11621 1.261718,-0.11621 1.64356,0 2.78907,0.66406 1.1455,0.64746 1.85937,1.75977 0.73047,1.1123 1.0625,2.60644 0.33203,1.47754 0.33203,3.1211 z m -4.33301,0.29883 q 0,-0.94629 -0.14941,-1.82618 -0.13281,-0.87988 -0.48145,-1.56054 -0.34863,-0.68067 -0.91308,-1.0791 -0.54785,-0.41504 -1.394533,-0.41504 -0.415039,0 -0.813477,0.11621 -0.398437,0.11621 -0.830078,0.39844 -0.415039,0.28222 -0.863281,0.73046 -0.448242,0.44825 -0.946289,1.11231 v 4.91406 q 0.879883,1.12891 1.676758,1.72656 0.813476,0.58106 1.693359,0.58106 0.813481,0 1.377931,-0.41504 0.56445,-0.41504 0.92969,-1.0791 0.38183,-0.66406 0.54785,-1.51074 0.16601,-0.84668 0.16601,-1.69336 z"
           style="baseline-shift:baseline;vector-effect:none;stop-color:#000000;stop-opacity:1"
           id="path913" />
      </g>
      <path
         fill="none"
         stroke="#000000"
         d="m 18.405516,58.301206 c -1.497577,2.995119 -3.32987,6.659704 -4.992405,9.98481"
         id="path78-2"
         style="stroke-width:0.753;stroke-miterlimit:4;stroke-dasharray:none" />
      <polygon
         fill="#000000"
         stroke="#000000"
         points="115.237,-186.6477 107.6343,-179.2687 108.976,-189.7782 "
         id="polygon80-2"
         style="stroke:none"
         transform="matrix(0.4046375,0,0,0.4046375,-31.685794,143.76076)" />
      <ellipse
         fill="none"
         stroke="#000000"
         cx="34.179832"
         cy="77.552574"
         rx="9.5249996"
         ry="6.3499999"
         id="ellipse85-1"
         style="fill:#ffffff;stroke-width:0.753;stroke-miterlimit:4;stroke-dasharray:none" />
      <g
         aria-label=" +  "
         transform="matrix(0.35277777,0,0,0.35277777,-26.145166,137.09057)"
         id="text87-1"
         style="font-weight:bold;font-size:34px;font-family:Calibri;-inkscape-font-specification:'Calibri, Bold';baseline-shift:baseline;text-anchor:middle;opacity:1;vector-effect:none;stroke-width:2.15058;stop-color:#000000;stop-opacity:1">
        <path
           d="m 178.60352,-167.3459 q 0,0.46484 -0.0498,0.78027 -0.0498,0.31543 -0.14941,0.51465 -0.0996,0.18262 -0.23243,0.26563 -0.13281,0.083 -0.28222,0.083 h -5.16309 v 5.62793 q 0,0.16602 -0.083,0.29883 -0.083,0.11621 -0.28222,0.21582 -0.19922,0.083 -0.53125,0.13281 -0.33203,0.0498 -0.83008,0.0498 -0.49805,0 -0.83008,-0.0498 -0.33203,-0.0498 -0.53125,-0.13281 -0.19922,-0.0996 -0.29883,-0.21582 -0.083,-0.13281 -0.083,-0.29883 v -5.62793 h -5.14649 q -0.14941,0 -0.28223,-0.083 -0.11621,-0.083 -0.21582,-0.26563 -0.0996,-0.19922 -0.16601,-0.51465 -0.0498,-0.31543 -0.0498,-0.78027 0,-0.44824 0.0498,-0.76367 0.0498,-0.33203 0.13281,-0.51465 0.0996,-0.19922 0.21582,-0.28223 0.11621,-0.083 0.26563,-0.083 h 5.19629 v -5.61132 q 0,-0.16602 0.083,-0.29883 0.0996,-0.14942 0.29883,-0.23242 0.19922,-0.0996 0.53125,-0.14942 0.33203,-0.0498 0.83008,-0.0498 0.49805,0 0.83008,0.0498 0.33203,0.0498 0.53125,0.14942 0.19922,0.083 0.28222,0.23242 0.083,0.13281 0.083,0.29883 v 5.61132 h 5.21289 q 0.13282,0 0.24903,0.083 0.13281,0.083 0.21582,0.28223 0.0996,0.18262 0.14941,0.51465 0.0498,0.31543 0.0498,0.76367 z"
           style="font-weight:bold;font-size:34px;font-family:Calibri;-inkscape-font-specification:'Calibri, Bold';baseline-shift:baseline;text-anchor:middle;opacity:1;vector-effect:none;stroke-width:2.15058;stop-color:#000000;stop-opacity:1"
           id="path916" />
      </g>
      <path
         fill="none"
         stroke="#000000"
         d="m 24.55415,58.301206 c 1.497577,2.995119 3.329869,6.659704 4.992405,9.98481"
         id="path92-3"
         style="stroke-width:0.753;stroke-miterlimit:4;stroke-dasharray:none" />
      <polygon
         fill="#000000"
         stroke="#000000"
         points="161.024,-189.7782 162.3657,-179.2687 154.763,-186.6477 "
         id="polygon94-8"
         style="stroke:none"
         transform="matrix(0.4046375,0,0,0.4046375,-34.679688,143.76076)" />
      <ellipse
         fill="none"
         stroke="#000000"
         cx="21.479834"
         cy="102.95257"
         rx="9.5249996"
         ry="6.3499999"
         id="ellipse99-8"
         style="fill:#ffffff;stroke-width:0.753;stroke-miterlimit:4;stroke-dasharray:none" />
      <g
         aria-label="2"
         transform="matrix(0.35277777,0,0,0.35277777,-26.145166,136.97448)"
         id="text101-2"
         style="font-weight:bold;font-size:34px;font-family:Calibri;-inkscape-font-specification:'Calibri, Bold';baseline-shift:baseline;text-anchor:middle;opacity:1;vector-effect:none;stroke-width:2.15058;stop-color:#000000;stop-opacity:1">
        <path
           d="m 142.25488,-87.57637 q 0,0.481445 -0.0498,0.830078 -0.0332,0.332031 -0.11621,0.547851 -0.083,0.215821 -0.21582,0.31543 -0.13282,0.08301 -0.29883,0.08301 h -12.35156 q -0.36524,0 -0.63086,-0.06641 -0.26563,-0.06641 -0.43164,-0.249024 -0.16602,-0.199218 -0.24903,-0.564453 -0.0664,-0.365234 -0.0664,-0.946289 0,-0.547851 0.0498,-0.929687 0.0498,-0.398438 0.18262,-0.697266 0.13281,-0.31543 0.33203,-0.597656 0.21582,-0.298828 0.54785,-0.647461 l 3.71875,-3.984375 q 1.11231,-1.16211 1.79297,-2.108399 0.68066,-0.96289 1.0625,-1.743164 0.38184,-0.796875 0.51465,-1.460937 0.14941,-0.664058 0.14941,-1.261718 0,-0.54785 -0.18261,-1.0293 -0.16602,-0.49804 -0.51465,-0.86328 -0.33203,-0.36523 -0.84668,-0.56445 -0.51465,-0.21582 -1.21192,-0.21582 -0.97949,0 -1.74316,0.24902 -0.74707,0.24903 -1.32813,0.56446 -0.56445,0.29882 -0.94629,0.56445 -0.38183,0.24902 -0.59765,0.24902 -0.14942,0 -0.26563,-0.0996 -0.0996,-0.0996 -0.16601,-0.33203 -0.0664,-0.23242 -0.11621,-0.61426 -0.0332,-0.39843 -0.0332,-0.96289 0,-0.38183 0.0166,-0.63086 0.0332,-0.26562 0.083,-0.44824 0.0498,-0.19922 0.13282,-0.33203 0.083,-0.14941 0.28222,-0.34863 0.21582,-0.19922 0.76367,-0.49805 0.56446,-0.31543 1.37793,-0.59766 0.81348,-0.29882 1.79297,-0.49804 0.97949,-0.19922 2.04199,-0.19922 1.67676,0 2.92188,0.43164 1.26172,0.41504 2.0918,1.17871 0.83007,0.74707 1.22851,1.79297 0.41504,1.0293 0.41504,2.22461 0,1.0459 -0.19922,2.058591 -0.19922,1.012695 -0.83008,2.191406 -0.63085,1.162109 -1.77636,2.589844 -1.14551,1.411132 -3.03809,3.287109 l -2.50683,2.573242 h 8.46679 q 0.16602,0 0.29883,0.09961 0.14941,0.09961 0.24902,0.315429 0.0996,0.199219 0.14942,0.547852 0.0498,0.332031 0.0498,0.796875 z"
           style="font-weight:bold;font-size:34px;font-family:Calibri;-inkscape-font-specification:'Calibri, Bold';baseline-shift:baseline;text-anchor:middle;opacity:1;vector-effect:none;stroke-width:2.15058;stop-color:#000000;stop-opacity:1"
           id="path919" />
      </g>
      <path
         fill="none"
         stroke="#000000"
         d="m 31.105516,83.701206 c -1.497577,2.995118 -3.32987,6.659703 -4.992406,9.98481"
         id="path106-4"
         style="stroke-width:0.753;stroke-miterlimit:4;stroke-dasharray:none" />
      <polygon
         fill="#000000"
         stroke="#000000"
         points="143.6343,-107.2687 144.976,-117.7782 151.237,-114.6477 "
         id="polygon108-3"
         style="stroke:none"
         transform="matrix(0.4046375,0,0,0.4046375,-33.425878,139.95608)" />
      <ellipse
         fill="none"
         stroke="#000000"
         cx="46.879833"
         cy="102.95257"
         rx="9.5249996"
         ry="6.3499999"
         id="ellipse113-0"
         style="fill:#ffffff;stroke-width:0.753;stroke-miterlimit:4;stroke-dasharray:none" />
      <g
         aria-label=":"
         transform="matrix(0.35277777,0,0,0.35277777,-26.145166,136.27725)"
         id="text115-4"
         style="font-weight:bold;font-size:34px;font-family:Calibri;-inkscape-font-specification:'Calibri, Bold';baseline-shift:baseline;text-anchor:middle;opacity:1;vector-effect:none;stroke-width:2.15058;stop-color:#000000;stop-opacity:1">
        <path
           d="m 209.64795,-98.915237 q 0,0.697265 -0.11621,1.162109 -0.11621,0.464844 -0.39844,0.763672 -0.26562,0.298828 -0.71387,0.43164 -0.44824,0.116211 -1.1289,0.116211 -0.68067,0 -1.12891,-0.116211 -0.44824,-0.132812 -0.73047,-0.43164 -0.26562,-0.298828 -0.36523,-0.763672 -0.0996,-0.464844 -0.0996,-1.162109 0,-0.713868 0.0996,-1.195313 0.0996,-0.48145 0.36523,-0.78027 0.28223,-0.29883 0.73047,-0.43164 0.44824,-0.13282 1.12891,-0.13282 0.68066,0 1.1289,0.13282 0.44825,0.13281 0.71387,0.43164 0.28223,0.29882 0.39844,0.78027 0.11621,0.481445 0.11621,1.195313 z m 0,10.84082 q 0,0.697266 -0.11621,1.178711 -0.11621,0.464844 -0.39844,0.763672 -0.26562,0.298828 -0.71387,0.415039 -0.44824,0.132812 -1.1289,0.132812 -0.68067,0 -1.12891,-0.132812 -0.44824,-0.116211 -0.73047,-0.415039 -0.26562,-0.298828 -0.36523,-0.763672 -0.0996,-0.481445 -0.0996,-1.178711 0,-0.697266 0.0996,-1.178711 0.0996,-0.498047 0.36523,-0.796875 0.28223,-0.298828 0.73047,-0.415039 0.44824,-0.132813 1.12891,-0.132813 0.68066,0 1.1289,0.132813 0.44825,0.116211 0.71387,0.415039 0.28223,0.298828 0.39844,0.796875 0.11621,0.481445 0.11621,1.178711 z"
           style="font-weight:bold;font-size:34px;font-family:Calibri;-inkscape-font-specification:'Calibri, Bold';baseline-shift:baseline;text-anchor:middle;opacity:1;vector-effect:none;stroke-width:2.15058;stop-color:#000000;stop-opacity:1"
           id="path922" />
      </g>
      <path
         fill="none"
         stroke="#000000"
         d="m 37.25415,83.701206 c 1.497577,2.995118 3.329869,6.659703 4.992405,9.98481"
         id="path120-4"
         style="stroke-width:0.753;stroke-miterlimit:4;stroke-dasharray:none" />
      <polygon
         fill="#000000"
         stroke="#000000"
         points="190.763,-114.6477 197.024,-117.7782 198.3657,-107.2687 "
         id="polygon122-8"
         style="stroke:none"
         transform="matrix(0.4046375,0,0,0.4046375,-36.578254,140.03665)" />
      <ellipse
         fill="none"
         stroke="#000000"
         cx="34.179832"
         cy="128.35257"
         rx="9.5249996"
         ry="6.3499999"
         id="ellipse127-4"
         style="fill:#ffffff;stroke-width:0.753;stroke-miterlimit:4;stroke-dasharray:none" />
      <g
         aria-label="25"
         transform="matrix(0.35277777,0,0,0.35277777,-26.145166,136.97448)"
         id="text129-9"
         style="font-weight:bold;font-size:34px;font-family:Calibri;-inkscape-font-specification:'Calibri, Bold';baseline-shift:baseline;text-anchor:middle;opacity:1;vector-effect:none;stroke-width:2.15058;stop-color:#000000;stop-opacity:1">
        <path
           d="m 169.63867,-15.576367 q 0,0.481445 -0.0498,0.830078 -0.0332,0.332031 -0.11621,0.547851 -0.083,0.215821 -0.21582,0.31543 -0.13282,0.08301 -0.29883,0.08301 h -12.35156 q -0.36524,0 -0.63086,-0.06641 -0.26563,-0.06641 -0.43164,-0.249024 -0.16602,-0.199219 -0.24903,-0.564453 -0.0664,-0.365234 -0.0664,-0.946289 0,-0.547852 0.0498,-0.929688 0.0498,-0.398437 0.18262,-0.697265 0.13281,-0.31543 0.33203,-0.597656 0.21582,-0.298829 0.54785,-0.647461 l 3.71875,-3.984375 q 1.1123,-1.16211 1.79297,-2.108399 0.68066,-0.96289 1.0625,-1.743164 0.38183,-0.796875 0.51465,-1.460937 0.14941,-0.664063 0.14941,-1.261719 0,-0.547852 -0.18262,-1.029297 -0.16601,-0.498047 -0.51464,-0.863281 -0.33204,-0.365235 -0.84668,-0.564453 -0.51465,-0.215821 -1.21192,-0.215821 -0.97949,0 -1.74316,0.249024 -0.74707,0.249023 -1.32813,0.564453 -0.56445,0.298828 -0.94629,0.564453 -0.38183,0.249023 -0.59765,0.249023 -0.14942,0 -0.26563,-0.09961 -0.0996,-0.09961 -0.16601,-0.332031 -0.0664,-0.232422 -0.11621,-0.614258 -0.0332,-0.398438 -0.0332,-0.962891 0,-0.381836 0.0166,-0.630859 0.0332,-0.265625 0.083,-0.448242 0.0498,-0.199219 0.13281,-0.332031 0.083,-0.149415 0.28223,-0.348633 0.21582,-0.199219 0.76367,-0.498047 0.56446,-0.31543 1.37793,-0.597656 0.81348,-0.298829 1.79297,-0.498047 0.97949,-0.199219 2.04199,-0.199219 1.67676,0 2.92188,0.431641 1.26172,0.415039 2.0918,1.178711 0.83007,0.74707 1.22851,1.792968 0.41504,1.029297 0.41504,2.22461 0,1.045898 -0.19922,2.058593 -0.19922,1.012696 -0.83008,2.191407 -0.63086,1.162109 -1.77636,2.589843 -1.14551,1.411133 -3.03809,3.28711 l -2.50684,2.573242 h 8.4668 q 0.16602,0 0.29883,0.09961 0.14941,0.09961 0.24902,0.31543 0.0996,0.199219 0.14942,0.547852 0.0498,0.332031 0.0498,0.796875 z"
           style="font-weight:bold;font-size:34px;font-family:Calibri;-inkscape-font-specification:'Calibri, Bold';baseline-shift:baseline;text-anchor:middle;opacity:1;vector-effect:none;stroke-width:2.15058;stop-color:#000000;stop-opacity:1"
           id="path925" />
        <path
           d="m 186.67187,-20.772656 q 0,1.743164 -0.61425,3.121093 -0.59766,1.361328 -1.70996,2.307617 -1.09571,0.929688 -2.65625,1.427735 -1.54395,0.498047 -3.43653,0.498047 -0.99609,0 -1.89258,-0.132813 -0.89648,-0.116211 -1.61035,-0.298828 -0.71386,-0.199219 -1.17871,-0.381836 -0.44824,-0.199219 -0.59765,-0.31543 -0.13282,-0.132812 -0.19922,-0.282226 -0.0664,-0.149414 -0.11621,-0.348633 -0.0332,-0.21582 -0.0498,-0.53125 -0.0166,-0.31543 -0.0166,-0.74707 0,-0.464844 0.0332,-0.780274 0.0332,-0.332031 0.0996,-0.53125 0.083,-0.199218 0.18262,-0.282226 0.0996,-0.08301 0.23242,-0.08301 0.16602,0 0.49805,0.199219 0.34863,0.182617 0.89648,0.415039 0.56446,0.232422 1.36133,0.43164 0.79688,0.182618 1.90918,0.182618 0.96289,0 1.74316,-0.199219 0.79688,-0.199219 1.34473,-0.63086 0.54785,-0.448242 0.84668,-1.112304 0.29883,-0.664063 0.29883,-1.59375 0,-0.796875 -0.24902,-1.411133 -0.24903,-0.630859 -0.78028,-1.0625 -0.53125,-0.431641 -1.37793,-0.647461 -0.84668,-0.21582 -2.05859,-0.21582 -0.96289,0 -1.75977,0.09961 -0.78027,0.09961 -1.47754,0.09961 -0.48144,0 -0.69726,-0.232421 -0.19922,-0.249024 -0.19922,-0.896485 v -9.330078 q 0,-0.664062 0.24902,-0.946289 0.26563,-0.298828 0.83008,-0.298828 h 10.17676 q 0.14941,0 0.28223,0.09961 0.13281,0.09961 0.21582,0.31543 0.0996,0.21582 0.13281,0.581055 0.0498,0.348632 0.0498,0.846679 0,0.996094 -0.18261,1.444336 -0.16602,0.448242 -0.49805,0.448242 h -7.63672 v 4.598633 q 0.58105,-0.06641 1.14551,-0.08301 0.58105,-0.0166 1.21191,-0.0166 1.74317,0 3.08789,0.415039 1.36133,0.398437 2.27442,1.195312 0.92968,0.780274 1.41113,1.958985 0.48144,1.162109 0.48144,2.706055 z"
           style="font-weight:bold;font-size:34px;font-family:Calibri;-inkscape-font-specification:'Calibri, Bold';baseline-shift:baseline;text-anchor:middle;opacity:1;vector-effect:none;stroke-width:2.15058;stop-color:#000000;stop-opacity:1"
           id="path927" />
      </g>
      <path
         fill="none"
         stroke="#000000"
         d="m 43.805515,109.10121 c -1.497577,2.99511 -3.329869,6.6597 -4.992405,9.98481"
         id="path134-1"
         style="stroke-width:0.753;stroke-miterlimit:4;stroke-dasharray:none" />
      <polygon
         fill="#000000"
         stroke="#000000"
         points="179.6343,-35.2687 180.976,-45.7782 187.237,-42.6477 "
         id="polygon136-6"
         style="stroke:none"
         transform="matrix(0.4046375,0,0,0.4046375,-35.336885,136.16649)" />
      <ellipse
         fill="none"
         stroke="#000000"
         cx="59.579834"
         cy="128.35257"
         rx="9.5249996"
         ry="6.3499999"
         id="ellipse141-7"
         style="fill:#ffffff;stroke-width:0.753;stroke-miterlimit:4;stroke-dasharray:none" />
      <g
         aria-label="c"
         transform="matrix(0.35277777,0,0,0.35277777,-26.145166,136.04506)"
         id="text143-9"
         style="font-weight:bold;font-size:34px;font-family:Calibri;-inkscape-font-specification:'Calibri, Bold';baseline-shift:baseline;text-anchor:middle;opacity:1;vector-effect:none;stroke-width:2.15058;stop-color:#000000;stop-opacity:1">
        <path
           d="m 249.18408,-16.721875 q 0,0.43164 -0.0332,0.730469 -0.0166,0.282226 -0.0664,0.481445 -0.0332,0.199219 -0.0996,0.332031 -0.0498,0.116211 -0.24902,0.31543 -0.19922,0.182617 -0.68066,0.464844 -0.48145,0.265625 -1.09571,0.481445 -0.61426,0.21582 -1.34472,0.348633 -0.71387,0.132812 -1.47754,0.132812 -1.70996,0 -3.03809,-0.53125 -1.31152,-0.53125 -2.20801,-1.560547 -0.89648,-1.045898 -1.36132,-2.540039 -0.44825,-1.49414 -0.44825,-3.419922 0,-2.224609 0.54785,-3.834961 0.56446,-1.626953 1.56055,-2.689453 0.9961,-1.0625 2.35742,-1.577148 1.36133,-0.514649 2.98828,-0.514649 0.66407,0 1.29493,0.116211 0.64746,0.116211 1.19531,0.31543 0.56445,0.199219 0.99609,0.448242 0.44824,0.249024 0.63086,0.431641 0.18262,0.182617 0.24903,0.31543 0.083,0.11621 0.11621,0.315429 0.0498,0.199219 0.0664,0.498047 0.0332,0.282227 0.0332,0.697266 0,0.96289 -0.16602,1.361328 -0.16602,0.381836 -0.43164,0.381836 -0.28223,0 -0.59766,-0.232422 -0.31543,-0.232422 -0.74707,-0.514649 -0.43164,-0.282226 -1.02929,-0.514648 -0.59766,-0.232422 -1.42774,-0.232422 -1.62695,0 -2.49023,1.261719 -0.86328,1.245117 -0.86328,3.668945 0,1.195313 0.21582,2.108399 0.21582,0.913086 0.63086,1.527343 0.43164,0.614258 1.0625,0.929688 0.64746,0.298828 1.49414,0.298828 0.86328,0 1.47754,-0.249023 0.63085,-0.265625 1.0957,-0.581055 0.46484,-0.31543 0.78027,-0.564453 0.31543,-0.265625 0.53125,-0.265625 0.14942,0 0.24903,0.08301 0.0996,0.08301 0.14941,0.315429 0.0664,0.215821 0.0996,0.564453 0.0332,0.348633 0.0332,0.896485 z"
           style="font-weight:bold;font-size:34px;font-family:Calibri;-inkscape-font-specification:'Calibri, Bold';baseline-shift:baseline;text-anchor:middle;opacity:1;vector-effect:none;stroke-width:2.15058;stop-color:#000000;stop-opacity:1"
           id="path930" />
      </g>
      <path
         fill="none"
         stroke="#000000"
         d="m 49.95415,109.10121 c 1.497576,2.99511 3.329869,6.6597 4.992405,9.98481"
         id="path148-1"
         style="stroke-width:0.753;stroke-miterlimit:4;stroke-dasharray:none" />
      <polygon
         fill="#000000"
         stroke="#000000"
         points="234.3657,-35.2687 226.763,-42.6477 233.024,-45.7782 "
         id="polygon150-6"
         style="stroke:none"
         transform="matrix(0.4046375,0,0,0.4046375,-38.472393,136.23951)" />
    </g>
  </g>
</svg>
