<?xml version="1.0" encoding="UTF-8" standalone="no"?>
<!-- Generated by graphviz version 2.40.1 (20161225.0304)
 -->

<!-- Title: G Pages: 1 -->

<svg
   width="128.13449pt"
   height="110.13449pt"
   viewBox="0 0 128.13449 110.13449"
   version="1.1"
   id="svg42"
   sodipodi:docname="2023-RO-02-example1_compatible.svg"
   inkscape:version="1.1.1 (3bf5ae0d25, 2021-09-20)"
   xmlns:inkscape="http://www.inkscape.org/namespaces/inkscape"
   xmlns:sodipodi="http://sodipodi.sourceforge.net/DTD/sodipodi-0.dtd"
   xmlns="http://www.w3.org/2000/svg"
   xmlns:svg="http://www.w3.org/2000/svg">
  <defs
     id="defs46" />
  <sodipodi:namedview
     id="namedview44"
     pagecolor="#ffffff"
     bordercolor="#666666"
     borderopacity="1.0"
     inkscape:pageshadow="2"
     inkscape:pageopacity="0.0"
     inkscape:pagecheckerboard="0"
     inkscape:document-units="pt"
     showgrid="false"
     inkscape:snap-nodes="false"
     inkscape:zoom="2.3243534"
     inkscape:cx="-61.307373"
     inkscape:cy="70.772371"
     inkscape:window-width="2048"
     inkscape:window-height="1017"
     inkscape:window-x="-8"
     inkscape:window-y="-8"
     inkscape:window-maximized="1"
     inkscape:current-layer="graph0" />
  <g
     id="graph0"
     class="graph"
     transform="translate(1.067245,109.06725)">
    <title
       id="title2">G</title>
    <polygon
       fill="#000000"
       stroke="#000000"
       points="79.237,-258.6477 71.6343,-251.2687 72.976,-261.7782 "
       id="polygon52-4-1-1-6"
       style="stroke:none"
       transform="matrix(1.1452208,0.06393176,-0.06393176,1.1452208,-62.736285,246.83679)" />
    <polygon
       fill="#000000"
       stroke="#000000"
       points="79.237,-258.6477 71.6343,-251.2687 72.976,-261.7782 "
       id="polygon52-4-1-1-6-6"
       style="stroke:none"
       transform="matrix(-1.1452208,0.06393176,0.06393176,1.1452208,188.70047,246.9711)" />
    <!-- + -->
    <g
       id="node1"
       class="node">
      <title
         id="title6">+</title>
      <ellipse
         fill="none"
         stroke="#000000"
         cx="63"
         cy="-90"
         rx="27"
         ry="18"
         id="ellipse8"
         style="font-variation-settings:normal;opacity:1;vector-effect:none;fill:#ffffff;fill-opacity:1;stroke:#000000;stroke-width:2.13449;stroke-linecap:butt;stroke-linejoin:miter;stroke-miterlimit:4;stroke-dasharray:none;stroke-dashoffset:0;stroke-opacity:1;-inkscape-stroke:none;stop-color:#000000;stop-opacity:1" />
      <g
         aria-label="+"
         transform="translate(0,5.0013908)"
         id="text10"
         style="font-weight:bold;font-size:34px;font-family:Calibri;-inkscape-font-specification:'Calibri, Bold';baseline-shift:baseline;text-anchor:middle;opacity:1;vector-effect:none;stroke-width:2.15058;stop-color:#000000;stop-opacity:1">
        <path
           d="m 70.603516,-95.345901 q 0,0.464843 -0.0498,0.780273 -0.04981,0.31543 -0.149414,0.514648 -0.09961,0.182618 -0.232422,0.265625 -0.132813,0.08301 -0.282227,0.08301 h -5.163086 v 5.62793 q 0,0.166016 -0.08301,0.298828 -0.08301,0.116211 -0.282227,0.21582 -0.199219,0.08301 -0.53125,0.132813 -0.332031,0.04981 -0.830078,0.04981 -0.498047,0 -0.830078,-0.04981 -0.332031,-0.0498 -0.53125,-0.132813 -0.199219,-0.09961 -0.298828,-0.21582 -0.08301,-0.132812 -0.08301,-0.298828 v -5.62793 h -5.146484 q -0.149415,0 -0.282227,-0.08301 -0.116211,-0.08301 -0.21582,-0.265625 -0.09961,-0.199218 -0.166016,-0.514648 -0.0498,-0.31543 -0.0498,-0.780273 0,-0.448243 0.0498,-0.763672 0.0498,-0.332032 0.132813,-0.514649 0.09961,-0.199219 0.21582,-0.282226 0.116211,-0.08301 0.265625,-0.08301 h 5.196289 v -5.611322 q 0,-0.16602 0.08301,-0.29883 0.09961,-0.14942 0.298828,-0.23242 0.199219,-0.0996 0.53125,-0.14942 0.332031,-0.0498 0.830078,-0.0498 0.498047,0 0.830078,0.0498 0.332031,0.0498 0.53125,0.14942 0.199219,0.083 0.282227,0.23242 0.08301,0.13281 0.08301,0.29883 v 5.611322 h 5.212891 q 0.132813,0 0.249024,0.08301 0.132812,0.08301 0.21582,0.282226 0.09961,0.182617 0.149414,0.514649 0.0498,0.315429 0.0498,0.763672 z"
           style="font-weight:bold;font-size:34px;font-family:Calibri;-inkscape-font-specification:'Calibri, Bold';baseline-shift:baseline;text-anchor:middle;opacity:1;vector-effect:none;stroke-width:2.15058;stop-color:#000000;stop-opacity:1"
           id="path2612" />
      </g>
    </g>
    <!-- a -->
    <g
       id="node2"
       class="node">
      <title
         id="title13">a</title>
      <ellipse
         fill="none"
         stroke="#000000"
         cx="27"
         cy="-18"
         rx="27"
         ry="18"
         id="ellipse15"
         style="font-variation-settings:normal;opacity:1;vector-effect:none;fill:#ffffff;fill-opacity:1;stroke:#000000;stroke-width:2.13449;stroke-linecap:butt;stroke-linejoin:miter;stroke-miterlimit:4;stroke-dasharray:none;stroke-dashoffset:0;stroke-opacity:1;-inkscape-stroke:none;stop-color:#000000;stop-opacity:1" />
      <g
         aria-label="a"
         transform="translate(0,4.4346314)"
         id="text17"
         style="font-weight:bold;font-size:34px;font-family:Calibri;-inkscape-font-specification:'Calibri, Bold';baseline-shift:baseline;text-anchor:middle;opacity:1;vector-effect:none;stroke-width:2.15058;stop-color:#000000;stop-opacity:1">
        <path
           d="m 33.316895,-14.314649 q 0,0.232422 -0.166016,0.365235 -0.166016,0.132812 -0.53125,0.182617 -0.348633,0.06641 -1.045899,0.06641 -0.74707,0 -1.095703,-0.06641 -0.332031,-0.0498 -0.481445,-0.182617 -0.132812,-0.132813 -0.132812,-0.365235 v -1.178711 q -0.913086,0.979493 -2.091797,1.527344 -1.16211,0.547852 -2.589844,0.547852 -1.178711,0 -2.174805,-0.31543 -0.979492,-0.298828 -1.709961,-0.896484 -0.713867,-0.614258 -1.112304,-1.510743 -0.398438,-0.896484 -0.398438,-2.091796 0,-1.294922 0.498047,-2.241211 0.514648,-0.962891 1.510742,-1.577149 1.012695,-0.630859 2.506836,-0.929687 1.494141,-0.298828 3.469727,-0.298828 h 1.444336 v -0.896485 q 0,-0.697265 -0.149414,-1.211914 -0.132813,-0.53125 -0.464844,-0.879883 -0.31543,-0.348632 -0.863281,-0.514648 -0.53125,-0.166016 -1.328125,-0.166016 -1.045899,0 -1.875977,0.232422 -0.813477,0.232422 -1.444336,0.514649 -0.630859,0.282226 -1.0625,0.514648 -0.415039,0.232422 -0.680664,0.232422 -0.182617,0 -0.332031,-0.116211 -0.132813,-0.116211 -0.232422,-0.332031 -0.08301,-0.215821 -0.132813,-0.53125 -0.0498,-0.31543 -0.0498,-0.697266 0,-0.514648 0.08301,-0.813476 0.08301,-0.298829 0.31543,-0.53125 0.232422,-0.249024 0.813477,-0.53125 0.581054,-0.298829 1.361328,-0.547852 0.780273,-0.249023 1.693359,-0.398438 0.929688,-0.166015 1.90918,-0.166015 1.743164,0 2.97168,0.348633 1.245117,0.332031 2.041992,1.045898 0.796875,0.697266 1.162109,1.80957 0.365235,1.112305 0.365235,2.639649 z m -4.100586,-6.341797 h -1.59375 q -1.012696,0 -1.726563,0.149415 -0.713867,0.149414 -1.162109,0.448242 -0.448242,0.298828 -0.664063,0.730468 -0.199219,0.41504 -0.199219,0.962891 0,0.929688 0.581055,1.460938 0.597656,0.53125 1.643555,0.53125 0.879883,0 1.610351,-0.448243 0.747071,-0.448242 1.510743,-1.311523 z"
           style="font-weight:bold;font-size:34px;font-family:Calibri;-inkscape-font-specification:'Calibri, Bold';baseline-shift:baseline;text-anchor:middle;opacity:1;vector-effect:none;stroke-width:2.15058;stop-color:#000000;stop-opacity:1"
           id="path2615" />
      </g>
    </g>
    <!-- +&#45;&gt;a -->
    <g
       id="edge1"
       class="edge">
      <title
         id="title20">+-&gt;a</title>
      <path
         fill="none"
         stroke="#000000"
         d="m 54.2854,-72.5708 c -4.2451,8.4901 -9.439,18.8779 -14.1517,28.3034"
         id="path22"
         style="font-variation-settings:normal;opacity:1;vector-effect:none;fill:none;fill-opacity:1;stroke:#000000;stroke-width:2.13449;stroke-linecap:butt;stroke-linejoin:miter;stroke-miterlimit:4;stroke-dasharray:none;stroke-dashoffset:0;stroke-opacity:1;-inkscape-stroke:none;stop-color:#000000;stop-opacity:1" />
    </g>
    <!-- b -->
    <g
       id="node3"
       class="node">
      <title
         id="title27">b</title>
      <ellipse
         fill="none"
         stroke="#000000"
         cx="99"
         cy="-18"
         rx="27"
         ry="18"
         id="ellipse29"
         style="font-variation-settings:normal;opacity:1;vector-effect:none;fill:#ffffff;fill-opacity:1;stroke:#000000;stroke-width:2.13449;stroke-linecap:butt;stroke-linejoin:miter;stroke-miterlimit:4;stroke-dasharray:none;stroke-dashoffset:0;stroke-opacity:1;-inkscape-stroke:none;stop-color:#000000;stop-opacity:1" />
      <g
         aria-label="b"
         transform="translate(0,7.5)"
         id="text31"
         style="font-weight:bold;font-size:34px;font-family:Calibri;-inkscape-font-specification:'Calibri, Bold';baseline-shift:baseline;text-anchor:middle;opacity:1;vector-effect:none;stroke-width:2.15058;stop-color:#000000;stop-opacity:1">
        <path
           d="m 106.87744,-21.967969 q 0,1.975586 -0.43164,3.552734 -0.43164,1.577149 -1.24512,2.689454 -0.81347,1.112304 -2.00879,1.70996 -1.17871,0.597657 -2.68945,0.597657 -0.747069,0 -1.39453,-0.149414 -0.647461,-0.132813 -1.245117,-0.448243 -0.581055,-0.315429 -1.162109,-0.796875 -0.564454,-0.481445 -1.16211,-1.162109 v 1.610352 q 0,0.182617 -0.09961,0.315429 -0.08301,0.116211 -0.298828,0.199219 -0.199219,0.08301 -0.547852,0.116211 -0.348633,0.0332 -0.84668,0.0332 -0.514648,0 -0.863281,-0.0332 -0.332031,-0.0332 -0.547851,-0.116211 -0.199219,-0.08301 -0.282227,-0.199219 -0.08301,-0.132812 -0.08301,-0.315429 v -21.831055 q 0,-0.166016 0.09961,-0.298828 0.09961,-0.132813 0.332031,-0.21582 0.249023,-0.09961 0.647461,-0.149415 0.398437,-0.0498 1.012695,-0.0498 0.614258,0 1.012695,0.0498 0.398438,0.0498 0.63086,0.149415 0.249023,0.08301 0.348633,0.21582 0.09961,0.132812 0.09961,0.298828 v 8.18457 q 0.564453,-0.564453 1.128906,-0.96289 0.564453,-0.398438 1.128907,-0.647461 0.564453,-0.265625 1.162109,-0.381836 0.597658,-0.116211 1.261718,-0.116211 1.64356,0 2.78907,0.664062 1.1455,0.647461 1.85937,1.759766 0.73047,1.112305 1.0625,2.606445 0.33203,1.477539 0.33203,3.121094 z m -4.33301,0.298828 q 0,-0.946289 -0.14941,-1.826172 -0.13281,-0.879883 -0.48145,-1.560547 -0.34863,-0.680664 -0.91308,-1.079101 Q 100.45264,-26.55 99.605957,-26.55 q -0.415039,0 -0.813477,0.116211 -0.398437,0.116211 -0.830078,0.398437 -0.415039,0.282227 -0.863281,0.730469 -0.448242,0.448242 -0.946289,1.112305 v 4.914062 q 0.879883,1.128906 1.676758,1.726563 0.813476,0.581054 1.693359,0.581054 0.813481,0 1.377931,-0.415039 0.56445,-0.415039 0.92969,-1.079101 0.38183,-0.664063 0.54785,-1.510742 0.16601,-0.84668 0.16601,-1.69336 z"
           style="font-weight:bold;font-size:34px;font-family:Calibri;-inkscape-font-specification:'Calibri, Bold';baseline-shift:baseline;text-anchor:middle;opacity:1;vector-effect:none;stroke-width:2.15058;stop-color:#000000;stop-opacity:1"
           id="path2618" />
      </g>
    </g>
    <!-- +&#45;&gt;b -->
    <g
       id="edge2"
       class="edge">
      <title
         id="title34">+-&gt;b</title>
      <path
         fill="none"
         stroke="#000000"
         d="m 71.7146,-72.5708 c 4.2451,8.4901 9.439,18.8779 14.1517,28.3034"
         id="path36"
         style="font-variation-settings:normal;opacity:1;vector-effect:none;fill:none;fill-opacity:1;stroke:#000000;stroke-width:2.13449;stroke-linecap:butt;stroke-linejoin:miter;stroke-miterlimit:4;stroke-dasharray:none;stroke-dashoffset:0;stroke-opacity:1;-inkscape-stroke:none;stop-color:#000000;stop-opacity:1" />
    </g>
  </g>
</svg>
