<?xml version="1.0" encoding="UTF-8" standalone="no"?>
<!-- Created with Inkscape (http://www.inkscape.org/) -->

<svg
   width="121.40301mm"
   height="140.453mm"
   viewBox="0 0 121.40301 140.453"
   version="1.1"
   id="svg1073"
   sodipodi:docname="2023-RO-02-answerD_compatible.svg"
   inkscape:version="1.1.1 (3bf5ae0d25, 2021-09-20)"
   xmlns:inkscape="http://www.inkscape.org/namespaces/inkscape"
   xmlns:sodipodi="http://sodipodi.sourceforge.net/DTD/sodipodi-0.dtd"
   xmlns="http://www.w3.org/2000/svg"
   xmlns:svg="http://www.w3.org/2000/svg">
  <sodipodi:namedview
     id="namedview1075"
     pagecolor="#ffffff"
     bordercolor="#666666"
     borderopacity="1.0"
     inkscape:pageshadow="2"
     inkscape:pageopacity="0.0"
     inkscape:pagecheckerboard="0"
     inkscape:document-units="mm"
     showgrid="false"
     inkscape:zoom="0.64052329"
     inkscape:cx="-42.933646"
     inkscape:cy="300.53552"
     inkscape:window-width="2048"
     inkscape:window-height="1017"
     inkscape:window-x="-8"
     inkscape:window-y="-8"
     inkscape:window-maximized="1"
     inkscape:current-layer="layer1" />
  <defs
     id="defs1070" />
  <g
     inkscape:label="Ebene 1"
     inkscape:groupmode="layer"
     id="layer1"
     transform="translate(-44.298497,-78.273502)">
    <g
       id="g4376"
       transform="translate(-50.72879,106.77956)">
      <ellipse
         fill="none"
         stroke="#000000"
         cx="143.02879"
         cy="3.6204457"
         rx="9.5249996"
         ry="6.3499999"
         id="ellipse8-6"
         style="fill:#ffffff;stroke-width:0.753;stroke-miterlimit:4;stroke-dasharray:none" />
      <g
         aria-label="·"
         transform="matrix(0.35277777,0,0,0.35277777,95.403791,88.33908)"
         id="text10-1"
         style="font-weight:bold;font-size:34px;font-family:Calibri;-inkscape-font-specification:'Calibri, Bold';baseline-shift:baseline;text-anchor:middle;opacity:1;vector-effect:none;stroke-width:2.15058;stop-color:#000000;stop-opacity:1">
        <path
           d="m 137.45703,-239.72774 q 0,1.54395 -0.54785,2.0918 -0.53125,0.53125 -1.92578,0.53125 -1.39453,0 -1.92578,-0.53125 -0.53125,-0.53125 -0.53125,-1.99219 0,-1.54394 0.53125,-2.07519 0.54785,-0.54785 1.95898,-0.54785 1.37793,0 1.90918,0.53125 0.53125,0.53125 0.53125,1.99218 z"
           style="font-weight:bold;font-size:34px;font-family:Calibri;-inkscape-font-specification:'Calibri, Bold';baseline-shift:baseline;text-anchor:middle;opacity:1;vector-effect:none;stroke-width:2.15058;stop-color:#000000;stop-opacity:1"
           id="path973" />
      </g>
      <ellipse
         fill="none"
         stroke="#000000"
         cx="130.3288"
         cy="29.020445"
         rx="9.5249996"
         ry="6.3499999"
         id="ellipse15-1"
         style="fill:#ffffff;stroke-width:0.753;stroke-miterlimit:4;stroke-dasharray:none" />
      <g
         aria-label="+"
         transform="matrix(0.35277777,0,0,0.35277777,95.403791,88.029276)"
         id="text17-21"
         style="font-weight:bold;font-size:34px;font-family:Calibri;-inkscape-font-specification:'Calibri, Bold';baseline-shift:baseline;text-anchor:middle;opacity:1;vector-effect:none;stroke-width:2.15058;stop-color:#000000;stop-opacity:1">
        <path
           d="m 106.60352,-167.3459 q 0,0.46484 -0.0498,0.78027 -0.0498,0.31543 -0.14941,0.51465 -0.0996,0.18262 -0.23242,0.26563 -0.13282,0.083 -0.28223,0.083 h -5.16309 v 5.62793 q 0,0.16602 -0.083,0.29883 -0.083,0.11621 -0.28222,0.21582 -0.19922,0.083 -0.531252,0.13281 -0.332031,0.0498 -0.830078,0.0498 -0.498047,0 -0.830078,-0.0498 -0.332031,-0.0498 -0.53125,-0.13281 -0.199219,-0.0996 -0.298828,-0.21582 -0.08301,-0.13281 -0.08301,-0.29883 v -5.62793 H 92.11037 q -0.149415,0 -0.282227,-0.083 -0.116211,-0.083 -0.21582,-0.26563 -0.09961,-0.19922 -0.166016,-0.51465 -0.0498,-0.31543 -0.0498,-0.78027 0,-0.44824 0.0498,-0.76367 0.04981,-0.33203 0.132813,-0.51465 0.09961,-0.19922 0.21582,-0.28223 0.116211,-0.083 0.265625,-0.083 h 5.196289 v -5.61132 q 0,-0.16602 0.08301,-0.29883 0.09961,-0.14942 0.298828,-0.23242 0.199219,-0.0996 0.53125,-0.14942 0.332031,-0.0498 0.830078,-0.0498 0.498047,0 0.830078,0.0498 0.332032,0.0498 0.531252,0.14942 0.19922,0.083 0.28222,0.23242 0.083,0.13281 0.083,0.29883 v 5.61132 h 5.21289 q 0.13282,0 0.24903,0.083 0.13281,0.083 0.21582,0.28223 0.0996,0.18262 0.14941,0.51465 0.0498,0.31543 0.0498,0.76367 z"
           style="font-weight:bold;font-size:34px;font-family:Calibri;-inkscape-font-specification:'Calibri, Bold';baseline-shift:baseline;text-anchor:middle;opacity:1;vector-effect:none;stroke-width:2.15058;stop-color:#000000;stop-opacity:1"
           id="path976" />
      </g>
      <path
         fill="none"
         stroke="#000000"
         d="m 139.95447,9.7690801 c -1.49757,2.9951189 -3.32987,6.6597039 -4.9924,9.9848099"
         id="path22-43"
         style="stroke-width:0.753;stroke-miterlimit:4;stroke-dasharray:none" />
      <ellipse
         fill="none"
         stroke="#000000"
         cx="155.72879"
         cy="29.020445"
         rx="9.5249996"
         ry="6.3499999"
         id="ellipse29-3"
         style="fill:#ffffff;stroke-width:0.753;stroke-miterlimit:4;stroke-dasharray:none" />
      <g
         aria-label="+"
         transform="matrix(0.35277777,0,0,0.35277777,95.403791,88.029276)"
         id="text31-50"
         style="font-weight:bold;font-size:34px;font-family:Calibri;-inkscape-font-specification:'Calibri, Bold';baseline-shift:baseline;text-anchor:middle;opacity:1;vector-effect:none;stroke-width:2.15058;stop-color:#000000;stop-opacity:1">
        <path
           d="m 178.60352,-167.3459 q 0,0.46484 -0.0498,0.78027 -0.0498,0.31543 -0.14941,0.51465 -0.0996,0.18262 -0.23243,0.26563 -0.13281,0.083 -0.28222,0.083 h -5.16309 v 5.62793 q 0,0.16602 -0.083,0.29883 -0.083,0.11621 -0.28222,0.21582 -0.19922,0.083 -0.53125,0.13281 -0.33203,0.0498 -0.83008,0.0498 -0.49805,0 -0.83008,-0.0498 -0.33203,-0.0498 -0.53125,-0.13281 -0.19922,-0.0996 -0.29883,-0.21582 -0.083,-0.13281 -0.083,-0.29883 v -5.62793 h -5.14649 q -0.14941,0 -0.28223,-0.083 -0.11621,-0.083 -0.21582,-0.26563 -0.0996,-0.19922 -0.16601,-0.51465 -0.0498,-0.31543 -0.0498,-0.78027 0,-0.44824 0.0498,-0.76367 0.0498,-0.33203 0.13281,-0.51465 0.0996,-0.19922 0.21582,-0.28223 0.11621,-0.083 0.26563,-0.083 h 5.19629 v -5.61132 q 0,-0.16602 0.083,-0.29883 0.0996,-0.14942 0.29883,-0.23242 0.19922,-0.0996 0.53125,-0.14942 0.33203,-0.0498 0.83008,-0.0498 0.49805,0 0.83008,0.0498 0.33203,0.0498 0.53125,0.14942 0.19922,0.083 0.28222,0.23242 0.083,0.13281 0.083,0.29883 v 5.61132 h 5.21289 q 0.13282,0 0.24903,0.083 0.13281,0.083 0.21582,0.28223 0.0996,0.18262 0.14941,0.51465 0.0498,0.31543 0.0498,0.76367 z"
           style="font-weight:bold;font-size:34px;font-family:Calibri;-inkscape-font-specification:'Calibri, Bold';baseline-shift:baseline;text-anchor:middle;opacity:1;vector-effect:none;stroke-width:2.15058;stop-color:#000000;stop-opacity:1"
           id="path979" />
      </g>
      <path
         fill="none"
         stroke="#000000"
         d="m 146.10311,9.7690801 c 1.49757,2.9951189 3.32987,6.6597039 4.9924,9.9848099"
         id="path36-46"
         style="stroke-width:0.753;stroke-miterlimit:4;stroke-dasharray:none" />
      <ellipse
         fill="none"
         stroke="#000000"
         cx="104.92879"
         cy="54.420444"
         rx="9.5249996"
         ry="6.3499999"
         id="ellipse43-30"
         style="fill:#ffffff;stroke-width:0.753;stroke-miterlimit:4;stroke-dasharray:none" />
      <g
         aria-label="a"
         transform="matrix(0.35277777,0,0,0.35277777,95.403791,87.512936)"
         id="text45-0"
         style="font-weight:bold;font-size:34px;font-family:Calibri;-inkscape-font-specification:'Calibri, Bold';baseline-shift:baseline;text-anchor:middle;opacity:1;vector-effect:none;stroke-width:2.15058;stop-color:#000000;stop-opacity:1">
        <path
           d="m 33.316895,-86.314651 q 0,0.232421 -0.166016,0.365234 -0.166016,0.132812 -0.53125,0.182617 -0.348633,0.06641 -1.045899,0.06641 -0.74707,0 -1.095703,-0.06641 -0.332031,-0.0498 -0.481445,-0.182617 -0.132812,-0.132813 -0.132812,-0.365234 v -1.178711 q -0.913086,0.979492 -2.091797,1.527343 -1.16211,0.547852 -2.589844,0.547852 -1.178711,0 -2.174805,-0.31543 -0.979492,-0.298828 -1.709961,-0.896484 -0.713867,-0.614258 -1.112304,-1.510742 -0.398438,-0.896485 -0.398438,-2.091797 0,-1.294922 0.498047,-2.241211 0.514648,-0.962891 1.510742,-1.577149 1.012695,-0.630859 2.506836,-0.929687 1.494141,-0.298828 3.469727,-0.298828 h 1.444336 v -0.896485 q 0,-0.697265 -0.149414,-1.211914 -0.132813,-0.53125 -0.464844,-0.879882 -0.31543,-0.348633 -0.863281,-0.514649 -0.53125,-0.166016 -1.328125,-0.166016 -1.045899,0 -1.875977,0.232422 -0.813477,0.232422 -1.444336,0.514649 -0.630859,0.282226 -1.0625,0.514648 -0.415039,0.232422 -0.680664,0.232422 -0.182617,0 -0.332031,-0.116211 -0.132813,-0.116211 -0.232422,-0.332031 -0.08301,-0.21582 -0.132813,-0.53125 -0.0498,-0.31543 -0.0498,-0.697266 0,-0.514648 0.08301,-0.813476 0.08301,-0.298826 0.31543,-0.531246 0.232422,-0.24903 0.813477,-0.53125 0.581054,-0.29883 1.361328,-0.54786 0.780273,-0.24902 1.693359,-0.39843 0.929688,-0.16602 1.90918,-0.16602 1.743164,0 2.97168,0.34863 1.245117,0.33204 2.041992,1.0459 0.796875,0.69727 1.162109,1.809573 0.365235,1.112304 0.365235,2.639648 z m -4.100586,-6.341797 h -1.59375 q -1.012696,0 -1.726563,0.149414 -0.713867,0.149414 -1.162109,0.448242 -0.448242,0.298828 -0.664063,0.730469 -0.199219,0.415039 -0.199219,0.96289 0,0.929688 0.581055,1.460938 0.597656,0.53125 1.643555,0.53125 0.879883,0 1.610351,-0.448242 0.747071,-0.448243 1.510743,-1.311524 z"
           style="font-weight:bold;font-size:34px;font-family:Calibri;-inkscape-font-specification:'Calibri, Bold';baseline-shift:baseline;text-anchor:middle;opacity:1;vector-effect:none;stroke-width:2.15058;stop-color:#000000;stop-opacity:1"
           id="path982" />
      </g>
      <path
         fill="none"
         stroke="#000000"
         d="m 124.94212,34.407115 c -3.50227,3.502272 -8.13012,8.130116 -12.05336,12.053358"
         id="path50-2"
         style="stroke-width:0.753;stroke-miterlimit:4;stroke-dasharray:none" />
      <ellipse
         fill="none"
         stroke="#000000"
         cx="130.3288"
         cy="54.420444"
         rx="9.5249996"
         ry="6.3499999"
         id="ellipse57-6"
         style="fill:#ffffff;stroke-width:0.753;stroke-miterlimit:4;stroke-dasharray:none" />
      <g
         aria-label="1"
         transform="matrix(0.35277777,0,0,0.35277777,95.403791,88.85542)"
         id="text59-82"
         style="font-weight:bold;font-size:34px;font-family:Calibri;-inkscape-font-specification:'Calibri, Bold';baseline-shift:baseline;text-anchor:middle;opacity:1;vector-effect:none;stroke-width:2.15058;stop-color:#000000;stop-opacity:1">
        <path
           d="m 106.05566,-87.460159 q 0,0.464843 -0.0498,0.796875 -0.0498,0.315429 -0.14941,0.514648 -0.083,0.182617 -0.19922,0.265625 -0.11621,0.08301 -0.26563,0.08301 H 93.538086 q -0.132813,0 -0.249024,-0.08301 -0.11621,-0.08301 -0.21582,-0.265625 -0.08301,-0.199219 -0.132812,-0.514648 -0.04981,-0.332032 -0.04981,-0.796875 0,-0.481446 0.0332,-0.796875 0.04981,-0.332032 0.132813,-0.53125 0.09961,-0.199219 0.21582,-0.282227 0.116211,-0.09961 0.265625,-0.09961 h 4.000976 v -13.978519 l -3.453125,1.90918 q -0.381835,0.18262 -0.630859,0.23243 -0.232422,0.0332 -0.381836,-0.0996 -0.132812,-0.14942 -0.182617,-0.49805 -0.04981,-0.34863 -0.04981,-0.97949 0,-0.39844 0.0166,-0.64746 0.0166,-0.26563 0.08301,-0.44825 0.06641,-0.18261 0.182617,-0.29882 0.116211,-0.11621 0.31543,-0.24903 l 4.615234,-2.98828 q 0.08301,-0.0664 0.199219,-0.0996 0.132812,-0.0498 0.332031,-0.0664 0.199219,-0.0332 0.514648,-0.0332 0.332032,-0.0166 0.84668,-0.0166 0.630864,0 1.012694,0.0332 0.39844,0.0166 0.59766,0.083 0.19922,0.0498 0.26563,0.14942 0.0664,0.0996 0.0664,0.24902 v 17.747069 h 3.50293 q 0.14942,0 0.26563,0.09961 0.13281,0.08301 0.21582,0.282227 0.0996,0.199218 0.13281,0.53125 0.0498,0.315429 0.0498,0.796875 z"
           style="font-weight:bold;font-size:34px;font-family:Calibri;-inkscape-font-specification:'Calibri, Bold';baseline-shift:baseline;text-anchor:middle;opacity:1;vector-effect:none;stroke-width:2.15058;stop-color:#000000;stop-opacity:1"
           id="path985" />
      </g>
      <path
         fill="none"
         stroke="#000000"
         d="m 130.32879,35.429923 c 0,2.71653 0,5.946811 0,8.965777"
         id="path64-2"
         style="stroke-width:0.753;stroke-miterlimit:4;stroke-dasharray:none" />
      <ellipse
         fill="none"
         stroke="#000000"
         cx="155.72879"
         cy="54.420444"
         rx="9.5249996"
         ry="6.3499999"
         id="ellipse71-0"
         style="fill:#ffffff;stroke-width:0.753;stroke-miterlimit:4;stroke-dasharray:none" />
      <g
         aria-label="-"
         transform="matrix(0.35277777,0,0,0.35277777,95.403791,87.616204)"
         id="text73-2"
         style="font-weight:bold;font-size:34px;font-family:Calibri;-inkscape-font-specification:'Calibri, Bold';baseline-shift:baseline;text-anchor:middle;opacity:1;vector-effect:none;stroke-width:2.15058;stop-color:#000000;stop-opacity:1">
        <path
           d="m 175.2251,-94.150589 q 0,0.962891 -0.18262,1.344727 -0.18262,0.381836 -0.58105,0.381836 h -6.90625 q -0.41504,0 -0.59766,-0.381836 -0.18262,-0.398438 -0.18262,-1.344727 0,-0.929687 0.18262,-1.311523 0.18262,-0.381836 0.59766,-0.381836 h 6.90625 q 0.19921,0 0.33203,0.08301 0.14941,0.08301 0.24902,0.282227 0.0996,0.199219 0.13281,0.53125 0.0498,0.332031 0.0498,0.796875 z"
           style="font-weight:bold;font-size:34px;font-family:Calibri;-inkscape-font-specification:'Calibri, Bold';baseline-shift:baseline;text-anchor:middle;opacity:1;vector-effect:none;stroke-width:2.15058;stop-color:#000000;stop-opacity:1"
           id="path988" />
      </g>
      <path
         fill="none"
         stroke="#000000"
         d="m 155.72879,35.429923 c 0,2.71653 0,5.946811 0,8.965777"
         id="path78-7"
         style="stroke-width:0.753;stroke-miterlimit:4;stroke-dasharray:none" />
      <ellipse
         fill="none"
         stroke="#000000"
         cx="181.12878"
         cy="54.420444"
         rx="9.5249996"
         ry="6.3499999"
         id="ellipse85-6"
         style="fill:#ffffff;stroke-width:0.753;stroke-miterlimit:4;stroke-dasharray:none" />
      <g
         aria-label=":"
         transform="matrix(0.35277777,0,0,0.35277777,95.403791,86.79006)"
         id="text87-5"
         style="font-weight:bold;font-size:34px;font-family:Calibri;-inkscape-font-specification:'Calibri, Bold';baseline-shift:baseline;text-anchor:middle;opacity:1;vector-effect:none;stroke-width:2.15058;stop-color:#000000;stop-opacity:1">
        <path
           d="m 245.64795,-98.915237 q 0,0.697265 -0.11621,1.162109 -0.11621,0.464844 -0.39844,0.763672 -0.26562,0.298828 -0.71387,0.43164 -0.44824,0.116211 -1.1289,0.116211 -0.68067,0 -1.12891,-0.116211 -0.44824,-0.132812 -0.73047,-0.43164 -0.26562,-0.298828 -0.36523,-0.763672 -0.0996,-0.464844 -0.0996,-1.162109 0,-0.713868 0.0996,-1.195313 0.0996,-0.48145 0.36523,-0.78027 0.28223,-0.29883 0.73047,-0.43164 0.44824,-0.13282 1.12891,-0.13282 0.68066,0 1.1289,0.13282 0.44825,0.13281 0.71387,0.43164 0.28223,0.29882 0.39844,0.78027 0.11621,0.481445 0.11621,1.195313 z m 0,10.84082 q 0,0.697266 -0.11621,1.178711 -0.11621,0.464844 -0.39844,0.763672 -0.26562,0.298828 -0.71387,0.415039 -0.44824,0.132812 -1.1289,0.132812 -0.68067,0 -1.12891,-0.132812 -0.44824,-0.116211 -0.73047,-0.415039 -0.26562,-0.298828 -0.36523,-0.763672 -0.0996,-0.481445 -0.0996,-1.178711 0,-0.697266 0.0996,-1.178711 0.0996,-0.498047 0.36523,-0.796875 0.28223,-0.298828 0.73047,-0.415039 0.44824,-0.132813 1.12891,-0.132813 0.68066,0 1.1289,0.132813 0.44825,0.116211 0.71387,0.415039 0.28223,0.298828 0.39844,0.796875 0.11621,0.481445 0.11621,1.178711 z"
           style="font-weight:bold;font-size:34px;font-family:Calibri;-inkscape-font-specification:'Calibri, Bold';baseline-shift:baseline;text-anchor:middle;opacity:1;vector-effect:none;stroke-width:2.15058;stop-color:#000000;stop-opacity:1"
           id="path991" />
      </g>
      <path
         fill="none"
         stroke="#000000"
         d="m 161.11546,34.407115 c 3.50227,3.502272 8.13012,8.130116 12.05336,12.053358"
         id="path92-85"
         style="stroke-width:0.753;stroke-miterlimit:4;stroke-dasharray:none" />
      <ellipse
         fill="none"
         stroke="#000000"
         cx="130.3288"
         cy="79.820442"
         rx="9.5249996"
         ry="6.3499999"
         id="ellipse99-1"
         style="fill:#ffffff;stroke-width:0.753;stroke-miterlimit:4;stroke-dasharray:none" />
      <g
         aria-label="b"
         transform="matrix(0.35277777,0,0,0.35277777,95.403791,88.442348)"
         id="text101-66"
         style="font-weight:bold;font-size:34px;font-family:Calibri;-inkscape-font-specification:'Calibri, Bold';baseline-shift:baseline;text-anchor:middle;opacity:1;vector-effect:none;stroke-width:2.15058;stop-color:#000000;stop-opacity:1">
        <path
           d="m 106.87744,-21.967969 q 0,1.975586 -0.43164,3.552734 -0.43164,1.577149 -1.24512,2.689454 -0.81347,1.112304 -2.00879,1.70996 -1.17871,0.597657 -2.68945,0.597657 -0.747069,0 -1.39453,-0.149414 -0.647461,-0.132813 -1.245117,-0.448243 -0.581055,-0.315429 -1.162109,-0.796875 -0.564454,-0.481445 -1.16211,-1.162109 v 1.610352 q 0,0.182617 -0.09961,0.315429 -0.08301,0.116211 -0.298828,0.199219 -0.199219,0.08301 -0.547852,0.116211 -0.348633,0.0332 -0.84668,0.0332 -0.514648,0 -0.863281,-0.0332 -0.332031,-0.0332 -0.547851,-0.116211 -0.199219,-0.08301 -0.282227,-0.199219 -0.08301,-0.132812 -0.08301,-0.315429 v -21.831055 q 0,-0.166016 0.09961,-0.298828 0.09961,-0.132813 0.332031,-0.21582 0.249023,-0.09961 0.647461,-0.149415 0.398437,-0.0498 1.012695,-0.0498 0.614258,0 1.012695,0.0498 0.398438,0.0498 0.63086,0.149415 0.249023,0.08301 0.348633,0.21582 0.09961,0.132812 0.09961,0.298828 v 8.18457 q 0.564453,-0.564453 1.128906,-0.96289 0.564453,-0.398438 1.128907,-0.647461 0.564453,-0.265625 1.162109,-0.381836 0.597658,-0.116211 1.261718,-0.116211 1.64356,0 2.78907,0.664062 1.1455,0.647461 1.85937,1.759766 0.73047,1.112305 1.0625,2.606445 0.33203,1.477539 0.33203,3.121094 z m -4.33301,0.298828 q 0,-0.946289 -0.14941,-1.826172 -0.13281,-0.879883 -0.48145,-1.560547 -0.34863,-0.680664 -0.91308,-1.079101 Q 100.45264,-26.55 99.605957,-26.55 q -0.415039,0 -0.813477,0.116211 -0.398437,0.116211 -0.830078,0.398437 -0.415039,0.282227 -0.863281,0.730469 -0.448242,0.448242 -0.946289,1.112305 v 4.914062 q 0.879883,1.128906 1.676758,1.726563 0.813476,0.581054 1.693359,0.581054 0.813481,0 1.377931,-0.415039 0.56445,-0.415039 0.92969,-1.079101 0.38183,-0.664063 0.54785,-1.510742 0.16601,-0.84668 0.16601,-1.69336 z"
           style="font-weight:bold;font-size:34px;font-family:Calibri;-inkscape-font-specification:'Calibri, Bold';baseline-shift:baseline;text-anchor:middle;opacity:1;vector-effect:none;stroke-width:2.15058;stop-color:#000000;stop-opacity:1"
           id="path994" />
      </g>
      <path
         fill="none"
         stroke="#000000"
         d="m 150.34212,59.807114 c -3.50227,3.502272 -8.13012,8.130117 -12.05336,12.053358"
         id="path106-8"
         style="stroke-width:0.753;stroke-miterlimit:4;stroke-dasharray:none" />
      <ellipse
         fill="none"
         stroke="#000000"
         cx="155.72879"
         cy="79.820442"
         rx="9.5249996"
         ry="6.3499999"
         id="ellipse113-7"
         style="fill:#ffffff;stroke-width:0.753;stroke-miterlimit:4;stroke-dasharray:none" />
      <g
         aria-label="2"
         transform="matrix(0.35277777,0,0,0.35277777,95.403791,88.33908)"
         id="text115-5"
         style="font-weight:bold;font-size:34px;font-family:Calibri;-inkscape-font-specification:'Calibri, Bold';baseline-shift:baseline;text-anchor:middle;opacity:1;vector-effect:none;stroke-width:2.15058;stop-color:#000000;stop-opacity:1">
        <path
           d="m 178.25488,-15.576367 q 0,0.481445 -0.0498,0.830078 -0.0332,0.332031 -0.11621,0.547851 -0.083,0.215821 -0.21582,0.31543 -0.13282,0.08301 -0.29883,0.08301 h -12.35156 q -0.36524,0 -0.63086,-0.06641 -0.26563,-0.06641 -0.43164,-0.249024 -0.16602,-0.199219 -0.24903,-0.564453 -0.0664,-0.365234 -0.0664,-0.946289 0,-0.547852 0.0498,-0.929688 0.0498,-0.398437 0.18262,-0.697265 0.13281,-0.31543 0.33203,-0.597656 0.21582,-0.298829 0.54785,-0.647461 l 3.71875,-3.984375 q 1.11231,-1.16211 1.79297,-2.108399 0.68066,-0.96289 1.0625,-1.743164 0.38184,-0.796875 0.51465,-1.460937 0.14941,-0.664063 0.14941,-1.261719 0,-0.547852 -0.18261,-1.029297 -0.16602,-0.498047 -0.51465,-0.863281 -0.33203,-0.365235 -0.84668,-0.564453 -0.51465,-0.215821 -1.21192,-0.215821 -0.97949,0 -1.74316,0.249024 -0.74707,0.249023 -1.32813,0.564453 -0.56445,0.298828 -0.94629,0.564453 -0.38183,0.249023 -0.59765,0.249023 -0.14942,0 -0.26563,-0.09961 -0.0996,-0.09961 -0.16601,-0.332031 -0.0664,-0.232422 -0.11621,-0.614258 -0.0332,-0.398438 -0.0332,-0.962891 0,-0.381836 0.0166,-0.630859 0.0332,-0.265625 0.083,-0.448242 0.0498,-0.199219 0.13282,-0.332031 0.083,-0.149415 0.28222,-0.348633 0.21582,-0.199219 0.76367,-0.498047 0.56446,-0.31543 1.37793,-0.597656 0.81348,-0.298829 1.79297,-0.498047 0.97949,-0.199219 2.04199,-0.199219 1.67676,0 2.92188,0.431641 1.26172,0.415039 2.0918,1.178711 0.83007,0.74707 1.22851,1.792968 0.41504,1.029297 0.41504,2.22461 0,1.045898 -0.19922,2.058593 -0.19922,1.012696 -0.83008,2.191407 -0.63085,1.162109 -1.77636,2.589843 -1.14551,1.411133 -3.03809,3.28711 l -2.50683,2.573242 h 8.46679 q 0.16602,0 0.29883,0.09961 0.14941,0.09961 0.24902,0.31543 0.0996,0.199219 0.14942,0.547852 0.0498,0.332031 0.0498,0.796875 z"
           style="font-weight:bold;font-size:34px;font-family:Calibri;-inkscape-font-specification:'Calibri, Bold';baseline-shift:baseline;text-anchor:middle;opacity:1;vector-effect:none;stroke-width:2.15058;stop-color:#000000;stop-opacity:1"
           id="path997" />
      </g>
      <path
         fill="none"
         stroke="#000000"
         d="m 155.72879,60.829923 c 0,2.71653 0,5.94681 0,8.965776"
         id="path120-0"
         style="stroke-width:0.753;stroke-miterlimit:4;stroke-dasharray:none" />
      <ellipse
         fill="none"
         stroke="#000000"
         cx="181.12878"
         cy="79.820442"
         rx="9.5249996"
         ry="6.3499999"
         id="ellipse127-47"
         style="fill:#ffffff;stroke-width:0.753;stroke-miterlimit:4;stroke-dasharray:none" />
      <g
         aria-label="25"
         transform="matrix(0.35277777,0,0,0.35277777,95.403791,88.33908)"
         id="text129-1"
         style="font-weight:bold;font-size:34px;font-family:Calibri;-inkscape-font-specification:'Calibri, Bold';baseline-shift:baseline;text-anchor:middle;opacity:1;vector-effect:none;stroke-width:2.15058;stop-color:#000000;stop-opacity:1">
        <path
           d="m 241.63867,-15.576367 q 0,0.481445 -0.0498,0.830078 -0.0332,0.332031 -0.11621,0.547851 -0.083,0.215821 -0.21582,0.31543 -0.13282,0.08301 -0.29883,0.08301 h -12.35156 q -0.36524,0 -0.63086,-0.06641 -0.26563,-0.06641 -0.43164,-0.249024 -0.16602,-0.199219 -0.24903,-0.564453 -0.0664,-0.365234 -0.0664,-0.946289 0,-0.547852 0.0498,-0.929688 0.0498,-0.398437 0.18262,-0.697265 0.13281,-0.31543 0.33203,-0.597656 0.21582,-0.298829 0.54785,-0.647461 l 3.71875,-3.984375 q 1.1123,-1.16211 1.79297,-2.108399 0.68066,-0.96289 1.0625,-1.743164 0.38183,-0.796875 0.51465,-1.460937 0.14941,-0.664063 0.14941,-1.261719 0,-0.547852 -0.18262,-1.029297 -0.16601,-0.498047 -0.51464,-0.863281 -0.33204,-0.365235 -0.84668,-0.564453 -0.51465,-0.215821 -1.21192,-0.215821 -0.97949,0 -1.74316,0.249024 -0.74707,0.249023 -1.32813,0.564453 -0.56445,0.298828 -0.94629,0.564453 -0.38183,0.249023 -0.59765,0.249023 -0.14942,0 -0.26563,-0.09961 -0.0996,-0.09961 -0.16601,-0.332031 -0.0664,-0.232422 -0.11621,-0.614258 -0.0332,-0.398438 -0.0332,-0.962891 0,-0.381836 0.0166,-0.630859 0.0332,-0.265625 0.083,-0.448242 0.0498,-0.199219 0.13281,-0.332031 0.083,-0.149415 0.28223,-0.348633 0.21582,-0.199219 0.76367,-0.498047 0.56446,-0.31543 1.37793,-0.597656 0.81348,-0.298829 1.79297,-0.498047 0.97949,-0.199219 2.04199,-0.199219 1.67676,0 2.92188,0.431641 1.26172,0.415039 2.0918,1.178711 0.83007,0.74707 1.22851,1.792968 0.41504,1.029297 0.41504,2.22461 0,1.045898 -0.19922,2.058593 -0.19922,1.012696 -0.83008,2.191407 -0.63086,1.162109 -1.77636,2.589843 -1.14551,1.411133 -3.03809,3.28711 l -2.50684,2.573242 h 8.4668 q 0.16602,0 0.29883,0.09961 0.14941,0.09961 0.24902,0.31543 0.0996,0.199219 0.14942,0.547852 0.0498,0.332031 0.0498,0.796875 z"
           style="font-weight:bold;font-size:34px;font-family:Calibri;-inkscape-font-specification:'Calibri, Bold';baseline-shift:baseline;text-anchor:middle;opacity:1;vector-effect:none;stroke-width:2.15058;stop-color:#000000;stop-opacity:1"
           id="path1000" />
        <path
           d="m 258.67187,-20.772656 q 0,1.743164 -0.61425,3.121093 -0.59766,1.361328 -1.70996,2.307617 -1.09571,0.929688 -2.65625,1.427735 -1.54395,0.498047 -3.43653,0.498047 -0.99609,0 -1.89258,-0.132813 -0.89648,-0.116211 -1.61035,-0.298828 -0.71386,-0.199219 -1.17871,-0.381836 -0.44824,-0.199219 -0.59765,-0.31543 -0.13282,-0.132812 -0.19922,-0.282226 -0.0664,-0.149414 -0.11621,-0.348633 -0.0332,-0.21582 -0.0498,-0.53125 -0.0166,-0.31543 -0.0166,-0.74707 0,-0.464844 0.0332,-0.780274 0.0332,-0.332031 0.0996,-0.53125 0.083,-0.199218 0.18262,-0.282226 0.0996,-0.08301 0.23242,-0.08301 0.16602,0 0.49805,0.199219 0.34863,0.182617 0.89648,0.415039 0.56446,0.232422 1.36133,0.43164 0.79688,0.182618 1.90918,0.182618 0.96289,0 1.74316,-0.199219 0.79688,-0.199219 1.34473,-0.63086 0.54785,-0.448242 0.84668,-1.112304 0.29883,-0.664063 0.29883,-1.59375 0,-0.796875 -0.24902,-1.411133 -0.24903,-0.630859 -0.78028,-1.0625 -0.53125,-0.431641 -1.37793,-0.647461 -0.84668,-0.21582 -2.05859,-0.21582 -0.96289,0 -1.75977,0.09961 -0.78027,0.09961 -1.47754,0.09961 -0.48144,0 -0.69726,-0.232421 -0.19922,-0.249024 -0.19922,-0.896485 v -9.330078 q 0,-0.664062 0.24902,-0.946289 0.26563,-0.298828 0.83008,-0.298828 h 10.17676 q 0.14941,0 0.28223,0.09961 0.13281,0.09961 0.21582,0.31543 0.0996,0.21582 0.13281,0.581055 0.0498,0.348632 0.0498,0.846679 0,0.996094 -0.18261,1.444336 -0.16602,0.448242 -0.49805,0.448242 h -7.63672 v 4.598633 q 0.58105,-0.06641 1.14551,-0.08301 0.58105,-0.0166 1.21191,-0.0166 1.74317,0 3.08789,0.415039 1.36133,0.398437 2.27442,1.195312 0.92968,0.780274 1.41113,1.958985 0.48144,1.162109 0.48144,2.706055 z"
           style="font-weight:bold;font-size:34px;font-family:Calibri;-inkscape-font-specification:'Calibri, Bold';baseline-shift:baseline;text-anchor:middle;opacity:1;vector-effect:none;stroke-width:2.15058;stop-color:#000000;stop-opacity:1"
           id="path1002" />
      </g>
      <path
         fill="none"
         stroke="#000000"
         d="m 181.12879,60.829923 c 0,2.71653 0,5.94681 0,8.965776"
         id="path134-6"
         style="stroke-width:0.753;stroke-miterlimit:4;stroke-dasharray:none" />
      <ellipse
         fill="none"
         stroke="#000000"
         cx="206.52879"
         cy="79.820442"
         rx="9.5249996"
         ry="6.3499999"
         id="ellipse141-0"
         style="fill:#ffffff;stroke-width:0.753;stroke-miterlimit:4;stroke-dasharray:none" />
      <g
         aria-label="c"
         transform="matrix(0.35277777,0,0,0.35277777,95.403791,87.409668)"
         id="text143-0"
         style="font-weight:bold;font-size:34px;font-family:Calibri;-inkscape-font-specification:'Calibri, Bold';baseline-shift:baseline;text-anchor:middle;opacity:1;vector-effect:none;stroke-width:2.15058;stop-color:#000000;stop-opacity:1">
        <path
           d="m 321.18408,-16.721875 q 0,0.43164 -0.0332,0.730469 -0.0166,0.282226 -0.0664,0.481445 -0.0332,0.199219 -0.0996,0.332031 -0.0498,0.116211 -0.24902,0.31543 -0.19922,0.182617 -0.68066,0.464844 -0.48145,0.265625 -1.09571,0.481445 -0.61426,0.21582 -1.34472,0.348633 -0.71387,0.132812 -1.47754,0.132812 -1.70996,0 -3.03809,-0.53125 -1.31152,-0.53125 -2.20801,-1.560547 -0.89648,-1.045898 -1.36132,-2.540039 -0.44825,-1.49414 -0.44825,-3.419922 0,-2.224609 0.54785,-3.834961 0.56446,-1.626953 1.56055,-2.689453 0.9961,-1.0625 2.35742,-1.577148 1.36133,-0.514649 2.98828,-0.514649 0.66407,0 1.29493,0.116211 0.64746,0.116211 1.19531,0.31543 0.56445,0.199219 0.99609,0.448242 0.44824,0.249024 0.63086,0.431641 0.18262,0.182617 0.24903,0.31543 0.083,0.11621 0.11621,0.315429 0.0498,0.199219 0.0664,0.498047 0.0332,0.282227 0.0332,0.697266 0,0.96289 -0.16602,1.361328 -0.16602,0.381836 -0.43164,0.381836 -0.28223,0 -0.59766,-0.232422 -0.31543,-0.232422 -0.74707,-0.514649 -0.43164,-0.282226 -1.02929,-0.514648 -0.59766,-0.232422 -1.42774,-0.232422 -1.62695,0 -2.49023,1.261719 -0.86328,1.245117 -0.86328,3.668945 0,1.195313 0.21582,2.108399 0.21582,0.913086 0.63086,1.527343 0.43164,0.614258 1.0625,0.929688 0.64746,0.298828 1.49414,0.298828 0.86328,0 1.47754,-0.249023 0.63085,-0.265625 1.0957,-0.581055 0.46484,-0.31543 0.78027,-0.564453 0.31543,-0.265625 0.53125,-0.265625 0.14942,0 0.24903,0.08301 0.0996,0.08301 0.14941,0.315429 0.0664,0.215821 0.0996,0.564453 0.0332,0.348633 0.0332,0.896485 z"
           style="font-weight:bold;font-size:34px;font-family:Calibri;-inkscape-font-specification:'Calibri, Bold';baseline-shift:baseline;text-anchor:middle;opacity:1;vector-effect:none;stroke-width:2.15058;stop-color:#000000;stop-opacity:1"
           id="path1005" />
      </g>
      <path
         fill="none"
         stroke="#000000"
         d="m 186.51546,59.807114 c 3.50227,3.502272 8.13012,8.130117 12.05336,12.053358"
         id="path148-9"
         style="stroke-width:0.753;stroke-miterlimit:4;stroke-dasharray:none" />
    </g>
    <polygon
       fill="#000000"
       stroke="#000000"
       points="72.976,-261.7782 79.237,-258.6477 71.6343,-251.2687 "
       id="polygon52-4"
       style="stroke:none"
       transform="matrix(0.4046375,0,0,0.4046375,53.689393,231.15527)" />
    <polygon
       fill="#000000"
       stroke="#000000"
       points="118.763,-258.6477 125.024,-261.7782 126.3657,-251.2687 "
       id="polygon66-9"
       style="stroke:none"
       transform="matrix(0.4046375,0,0,0.4046375,50.758371,231.2195)" />
    <polygon
       fill="#000000"
       stroke="#000000"
       points="71.6343,-251.2687 72.976,-261.7782 79.237,-258.6477 "
       id="polygon52-4-1"
       style="stroke:none"
       transform="matrix(0.38147752,0.13493113,-0.13493113,0.38147752,-1.5358729,241.7002)" />
    <polygon
       fill="#000000"
       stroke="#000000"
       points="72.976,-261.7782 79.237,-258.6477 71.6343,-251.2687 "
       id="polygon52-4-1-1"
       style="stroke:none"
       transform="matrix(0.36115844,-0.18247214,0.18247214,0.36115844,99.588238,258.29974)" />
    <polygon
       fill="#000000"
       stroke="#000000"
       points="71.6343,-251.2687 72.976,-261.7782 79.237,-258.6477 "
       id="polygon52-4-1-7"
       style="stroke:none"
       transform="matrix(-0.38147752,0.13493113,0.13493113,0.38147752,186.16281,241.79452)" />
    <polygon
       fill="#000000"
       stroke="#000000"
       points="79.237,-258.6477 71.6343,-251.2687 72.976,-261.7782 "
       id="polygon52-4-1-1-3"
       style="stroke:none"
       transform="matrix(-0.36115844,-0.18247214,-0.18247214,0.36115844,84.999048,258.30408)" />
    <polygon
       fill="#000000"
       stroke="#000000"
       points="79.237,-258.6477 71.6343,-251.2687 72.976,-261.7782 "
       id="polygon52-4-1-18"
       style="stroke:none"
       transform="matrix(0.38147752,0.13493113,-0.13493113,0.38147752,23.842761,267.10193)" />
    <polygon
       fill="#000000"
       stroke="#000000"
       points="71.6343,-251.2687 72.976,-261.7782 79.237,-258.6477 "
       id="polygon52-4-1-1-6"
       style="stroke:none"
       transform="matrix(0.36115844,-0.18247214,0.18247214,0.36115844,124.96687,283.70147)" />
    <polygon
       fill="#000000"
       stroke="#000000"
       points="79.237,-258.6477 71.6343,-251.2687 72.976,-261.7782 "
       id="polygon52-4-1-7-9"
       style="stroke:none"
       transform="matrix(-0.38147752,0.13493113,0.13493113,0.38147752,211.54145,267.19625)" />
    <polygon
       fill="#000000"
       stroke="#000000"
       points="72.976,-261.7782 79.237,-258.6477 71.6343,-251.2687 "
       id="polygon52-4-1-1-3-3"
       style="stroke:none"
       transform="matrix(-0.36115844,-0.18247214,-0.18247214,0.36115844,110.37768,283.70581)" />
  </g>
</svg>
