<?xml version="1.0" encoding="UTF-8" standalone="no"?>
<!-- Generated by graphviz version 2.40.1 (20161225.0304)
 -->

<!-- Title: G Pages: 1 -->

<svg
   width="272.13449pt"
   height="182.13449pt"
   viewBox="0 0 272.13449 182.13449"
   version="1.1"
   id="svg98"
   sodipodi:docname="2023-RO-02-example2_compatible.svg"
   inkscape:version="1.1.1 (3bf5ae0d25, 2021-09-20)"
   xmlns:inkscape="http://www.inkscape.org/namespaces/inkscape"
   xmlns:sodipodi="http://sodipodi.sourceforge.net/DTD/sodipodi-0.dtd"
   xmlns="http://www.w3.org/2000/svg"
   xmlns:svg="http://www.w3.org/2000/svg">
  <defs
     id="defs102" />
  <sodipodi:namedview
     id="namedview100"
     pagecolor="#ffffff"
     bordercolor="#666666"
     borderopacity="1.0"
     inkscape:pageshadow="2"
     inkscape:pageopacity="0.0"
     inkscape:pagecheckerboard="0"
     inkscape:document-units="pt"
     showgrid="false"
     inkscape:snap-nodes="false"
     inkscape:zoom="2.0282305"
     inkscape:cx="129.9162"
     inkscape:cy="135.33965"
     inkscape:window-width="2048"
     inkscape:window-height="1017"
     inkscape:window-x="-8"
     inkscape:window-y="-8"
     inkscape:window-maximized="1"
     inkscape:current-layer="graph0" />
  <g
     id="graph0"
     class="graph"
     transform="translate(1.067245,181.06725)">
    <title
       id="title2">G</title>
    <!-- 路 -->
    <ellipse
       fill="none"
       stroke="#000000"
       cx="135"
       cy="-162"
       rx="27"
       ry="18"
       id="ellipse8"
       style="font-variation-settings:normal;vector-effect:none;fill:#ffffff;fill-opacity:1;stroke:#000000;stroke-width:2.13449;stroke-linecap:butt;stroke-linejoin:miter;stroke-miterlimit:4;stroke-dasharray:none;stroke-dashoffset:0;stroke-opacity:1;-inkscape-stroke:none;stop-color:#000000" />
    <g
       aria-label="路"
       transform="translate(-0.26147427,5.2294854)"
       id="text10"
       style="font-weight:bold;font-size:34px;font-family:Calibri;-inkscape-font-specification:'Calibri, Bold';baseline-shift:baseline;text-anchor:middle;opacity:1;vector-effect:none;stroke-width:2.15058;stop-color:#000000;stop-opacity:1">
      <path
         d="m 137.45703,-167.72774 q 0,1.54395 -0.54785,2.0918 -0.53125,0.53125 -1.92578,0.53125 -1.39453,0 -1.92578,-0.53125 -0.53125,-0.53125 -0.53125,-1.99219 0,-1.54394 0.53125,-2.07519 0.54785,-0.54785 1.95898,-0.54785 1.37793,0 1.90918,0.53125 0.53125,0.53125 0.53125,1.99218 z"
         style="font-weight:bold;font-size:34px;font-family:Calibri;-inkscape-font-specification:'Calibri, Bold';baseline-shift:baseline;text-anchor:middle;opacity:1;vector-effect:none;stroke-width:2.15058;stop-color:#000000;stop-opacity:1"
         id="path1001" />
    </g>
    <!--  +  -->
    <ellipse
       fill="none"
       stroke="#000000"
       cx="99"
       cy="-90"
       rx="27"
       ry="18"
       id="ellipse15"
       style="font-variation-settings:normal;opacity:1;vector-effect:none;fill:#ffffff;fill-opacity:1;stroke:#000000;stroke-width:2.13449;stroke-linecap:butt;stroke-linejoin:miter;stroke-miterlimit:4;stroke-dasharray:none;stroke-dashoffset:0;stroke-opacity:1;-inkscape-stroke:none;stop-color:#000000;stop-opacity:1" />
    <g
       aria-label="+"
       transform="translate(-0.26147427,5.2294854)"
       id="text17"
       style="font-weight:bold;font-size:34px;font-family:Calibri;-inkscape-font-specification:'Calibri, Bold';baseline-shift:baseline;text-anchor:middle;opacity:1;vector-effect:none;stroke-width:2.15058;stop-color:#000000;stop-opacity:1">
      <path
         d="m 106.60352,-95.345901 q 0,0.464843 -0.0498,0.780273 -0.0498,0.31543 -0.14941,0.514648 -0.0996,0.182618 -0.23242,0.265625 -0.13282,0.08301 -0.28223,0.08301 h -5.16309 v 5.62793 q 0,0.166016 -0.083,0.298828 -0.083,0.116211 -0.28222,0.21582 -0.19922,0.08301 -0.531252,0.132813 -0.332031,0.04981 -0.830078,0.04981 -0.498047,0 -0.830078,-0.04981 -0.332031,-0.0498 -0.53125,-0.132813 -0.199219,-0.09961 -0.298828,-0.21582 -0.08301,-0.132812 -0.08301,-0.298828 v -5.62793 H 92.11037 q -0.149415,0 -0.282227,-0.08301 -0.116211,-0.08301 -0.21582,-0.265625 -0.09961,-0.199218 -0.166016,-0.514648 -0.0498,-0.31543 -0.0498,-0.780273 0,-0.448243 0.0498,-0.763672 0.04981,-0.332032 0.132813,-0.514649 0.09961,-0.199219 0.21582,-0.282226 0.116211,-0.08301 0.265625,-0.08301 h 5.196289 v -5.611322 q 0,-0.16602 0.08301,-0.29883 0.09961,-0.14942 0.298828,-0.23242 0.199219,-0.0996 0.53125,-0.14942 0.332031,-0.0498 0.830078,-0.0498 0.498047,0 0.830078,0.0498 0.332032,0.0498 0.531252,0.14942 0.19922,0.083 0.28222,0.23242 0.083,0.13281 0.083,0.29883 v 5.611322 h 5.21289 q 0.13282,0 0.24903,0.08301 0.13281,0.08301 0.21582,0.282226 0.0996,0.182617 0.14941,0.514649 0.0498,0.315429 0.0498,0.763672 z"
         style="font-weight:bold;font-size:34px;font-family:Calibri;-inkscape-font-specification:'Calibri, Bold';baseline-shift:baseline;text-anchor:middle;opacity:1;vector-effect:none;stroke-width:2.15058;stop-color:#000000;stop-opacity:1"
         id="path1004" />
    </g>
    <!-- 路&#45;&gt; +  -->
    <path
       fill="none"
       stroke="#000000"
       d="m 126.2854,-144.5708 c -4.2451,8.4901 -9.439,18.8779 -14.1517,28.3034"
       id="path22"
       style="font-variation-settings:normal;opacity:1;vector-effect:none;fill:none;fill-opacity:1;stroke:#000000;stroke-width:2.13449;stroke-linecap:butt;stroke-linejoin:miter;stroke-miterlimit:4;stroke-dasharray:none;stroke-dashoffset:0;stroke-opacity:1;-inkscape-stroke:none;stop-color:#000000;stop-opacity:1" />
    <!-- + -->
    <ellipse
       fill="none"
       stroke="#000000"
       cx="171"
       cy="-90"
       rx="27"
       ry="18"
       id="ellipse29"
       style="font-variation-settings:normal;vector-effect:none;fill:#ffffff;fill-opacity:1;stroke:#000000;stroke-width:2.13449;stroke-linecap:butt;stroke-linejoin:miter;stroke-miterlimit:4;stroke-dasharray:none;stroke-dashoffset:0;stroke-opacity:1;-inkscape-stroke:none;stop-color:#000000" />
    <g
       aria-label="+"
       transform="translate(-0.26147427,5.2294854)"
       id="text31"
       style="font-weight:bold;font-size:34px;font-family:Calibri;-inkscape-font-specification:'Calibri, Bold';baseline-shift:baseline;text-anchor:middle;opacity:1;vector-effect:none;stroke-width:2.15058;stop-color:#000000;stop-opacity:1">
      <path
         d="m 178.60352,-95.345901 q 0,0.464843 -0.0498,0.780273 -0.0498,0.31543 -0.14941,0.514648 -0.0996,0.182618 -0.23243,0.265625 -0.13281,0.08301 -0.28222,0.08301 h -5.16309 v 5.62793 q 0,0.166016 -0.083,0.298828 -0.083,0.116211 -0.28222,0.21582 -0.19922,0.08301 -0.53125,0.132813 -0.33203,0.04981 -0.83008,0.04981 -0.49805,0 -0.83008,-0.04981 -0.33203,-0.0498 -0.53125,-0.132813 -0.19922,-0.09961 -0.29883,-0.21582 -0.083,-0.132812 -0.083,-0.298828 v -5.62793 h -5.14649 q -0.14941,0 -0.28223,-0.08301 -0.11621,-0.08301 -0.21582,-0.265625 -0.0996,-0.199218 -0.16601,-0.514648 -0.0498,-0.31543 -0.0498,-0.780273 0,-0.448243 0.0498,-0.763672 0.0498,-0.332032 0.13281,-0.514649 0.0996,-0.199219 0.21582,-0.282226 0.11621,-0.08301 0.26563,-0.08301 h 5.19629 v -5.611322 q 0,-0.16602 0.083,-0.29883 0.0996,-0.14942 0.29883,-0.23242 0.19922,-0.0996 0.53125,-0.14942 0.33203,-0.0498 0.83008,-0.0498 0.49805,0 0.83008,0.0498 0.33203,0.0498 0.53125,0.14942 0.19922,0.083 0.28222,0.23242 0.083,0.13281 0.083,0.29883 v 5.611322 h 5.21289 q 0.13282,0 0.24903,0.08301 0.13281,0.08301 0.21582,0.282226 0.0996,0.182617 0.14941,0.514649 0.0498,0.315429 0.0498,0.763672 z"
         style="font-weight:bold;font-size:34px;font-family:Calibri;-inkscape-font-specification:'Calibri, Bold';baseline-shift:baseline;text-anchor:middle;opacity:1;vector-effect:none;stroke-width:2.15058;stop-color:#000000;stop-opacity:1"
         id="path1007" />
    </g>
    <!-- 路&#45;&gt;+ -->
    <path
       fill="none"
       stroke="#000000"
       d="m 143.7146,-144.5708 c 4.2451,8.4901 9.439,18.8779 14.1517,28.3034"
       id="path36"
       style="font-variation-settings:normal;opacity:1;vector-effect:none;fill:none;fill-opacity:1;stroke:#000000;stroke-width:2.13449;stroke-linecap:butt;stroke-linejoin:miter;stroke-miterlimit:4;stroke-dasharray:none;stroke-dashoffset:0;stroke-opacity:1;-inkscape-stroke:none;stop-color:#000000;stop-opacity:1" />
    <!-- a -->
    <ellipse
       fill="none"
       stroke="#000000"
       cx="27"
       cy="-18"
       rx="27"
       ry="18"
       id="ellipse43"
       style="font-variation-settings:normal;vector-effect:none;fill:#ffffff;fill-opacity:1;stroke:#000000;stroke-width:2.13449;stroke-linecap:butt;stroke-linejoin:miter;stroke-miterlimit:4;stroke-dasharray:none;stroke-dashoffset:0;stroke-opacity:1;-inkscape-stroke:none;stop-color:#000000" />
    <g
       aria-label="a"
       transform="translate(-0.26147427,3.7294854)"
       id="text45"
       style="font-weight:bold;font-size:34px;font-family:Calibri;-inkscape-font-specification:'Calibri, Bold';baseline-shift:baseline;text-anchor:middle;opacity:1;vector-effect:none;stroke-width:2.15058;stop-color:#000000;stop-opacity:1">
      <path
         d="m 33.316895,-14.314649 q 0,0.232422 -0.166016,0.365235 -0.166016,0.132812 -0.53125,0.182617 -0.348633,0.06641 -1.045899,0.06641 -0.74707,0 -1.095703,-0.06641 -0.332031,-0.0498 -0.481445,-0.182617 -0.132812,-0.132813 -0.132812,-0.365235 v -1.178711 q -0.913086,0.979493 -2.091797,1.527344 -1.16211,0.547852 -2.589844,0.547852 -1.178711,0 -2.174805,-0.31543 -0.979492,-0.298828 -1.709961,-0.896484 -0.713867,-0.614258 -1.112304,-1.510743 -0.398438,-0.896484 -0.398438,-2.091796 0,-1.294922 0.498047,-2.241211 0.514648,-0.962891 1.510742,-1.577149 1.012695,-0.630859 2.506836,-0.929687 1.494141,-0.298828 3.469727,-0.298828 h 1.444336 v -0.896485 q 0,-0.697265 -0.149414,-1.211914 -0.132813,-0.53125 -0.464844,-0.879883 -0.31543,-0.348632 -0.863281,-0.514648 -0.53125,-0.166016 -1.328125,-0.166016 -1.045899,0 -1.875977,0.232422 -0.813477,0.232422 -1.444336,0.514649 -0.630859,0.282226 -1.0625,0.514648 -0.415039,0.232422 -0.680664,0.232422 -0.182617,0 -0.332031,-0.116211 -0.132813,-0.116211 -0.232422,-0.332031 -0.08301,-0.215821 -0.132813,-0.53125 -0.0498,-0.31543 -0.0498,-0.697266 0,-0.514648 0.08301,-0.813476 0.08301,-0.298829 0.31543,-0.53125 0.232422,-0.249024 0.813477,-0.53125 0.581054,-0.298829 1.361328,-0.547852 0.780273,-0.249023 1.693359,-0.398438 0.929688,-0.166015 1.90918,-0.166015 1.743164,0 2.97168,0.348633 1.245117,0.332031 2.041992,1.045898 0.796875,0.697266 1.162109,1.80957 0.365235,1.112305 0.365235,2.639649 z m -4.100586,-6.341797 h -1.59375 q -1.012696,0 -1.726563,0.149415 -0.713867,0.149414 -1.162109,0.448242 -0.448242,0.298828 -0.664063,0.730468 -0.199219,0.41504 -0.199219,0.962891 0,0.929688 0.581055,1.460938 0.597656,0.53125 1.643555,0.53125 0.879883,0 1.610351,-0.448243 0.747071,-0.448242 1.510743,-1.311523 z"
         style="font-weight:bold;font-size:34px;font-family:Calibri;-inkscape-font-specification:'Calibri, Bold';baseline-shift:baseline;text-anchor:middle;opacity:1;vector-effect:none;stroke-width:2.15058;stop-color:#000000;stop-opacity:1"
         id="path1010" />
    </g>
    <!--  + &#45;&gt;a -->
    <path
       fill="none"
       stroke="#000000"
       d="m 83.7307,-74.7307 c -9.9277,9.9277 -23.046,23.046 -34.167,34.167"
       id="path50"
       style="font-variation-settings:normal;opacity:1;vector-effect:none;fill:none;fill-opacity:1;stroke:#000000;stroke-width:2.13449;stroke-linecap:butt;stroke-linejoin:miter;stroke-miterlimit:4;stroke-dasharray:none;stroke-dashoffset:0;stroke-opacity:1;-inkscape-stroke:none;stop-color:#000000;stop-opacity:1" />
    <!-- 1 -->
    <ellipse
       fill="none"
       stroke="#000000"
       cx="99"
       cy="-18"
       rx="27"
       ry="18"
       id="ellipse57"
       style="font-variation-settings:normal;vector-effect:none;fill:#ffffff;fill-opacity:1;stroke:#000000;stroke-width:2.13449;stroke-linecap:butt;stroke-linejoin:miter;stroke-miterlimit:4;stroke-dasharray:none;stroke-dashoffset:0;stroke-opacity:1;-inkscape-stroke:none;stop-color:#000000" />
    <g
       aria-label="1"
       transform="translate(-0.26147427,6.7294854)"
       id="text59"
       style="font-weight:bold;font-size:34px;font-family:Calibri;-inkscape-font-specification:'Calibri, Bold';baseline-shift:baseline;text-anchor:middle;opacity:1;vector-effect:none;stroke-width:2.15058;stop-color:#000000;stop-opacity:1">
      <path
         d="m 106.05566,-15.460156 q 0,0.464843 -0.0498,0.796875 -0.0498,0.315429 -0.14941,0.514648 -0.083,0.182617 -0.19922,0.265625 Q 105.54102,-13.8 105.3916,-13.8 H 93.538086 q -0.132813,0 -0.249024,-0.08301 -0.11621,-0.08301 -0.21582,-0.265625 -0.08301,-0.199219 -0.132812,-0.514648 -0.04981,-0.332032 -0.04981,-0.796875 0,-0.481446 0.0332,-0.796875 0.04981,-0.332032 0.132813,-0.53125 0.09961,-0.199219 0.21582,-0.282227 0.116211,-0.09961 0.265625,-0.09961 h 4.000976 v -13.978516 l -3.453125,1.90918 q -0.381835,0.182617 -0.630859,0.232422 -0.232422,0.0332 -0.381836,-0.09961 -0.132812,-0.149414 -0.182617,-0.498047 -0.04981,-0.348633 -0.04981,-0.979492 0,-0.398437 0.0166,-0.647461 0.0166,-0.265625 0.08301,-0.448242 0.06641,-0.182617 0.182617,-0.298828 0.116211,-0.116211 0.31543,-0.249024 l 4.615234,-2.988281 q 0.08301,-0.06641 0.199219,-0.09961 0.132812,-0.04981 0.332031,-0.06641 0.199219,-0.0332 0.514648,-0.0332 0.332032,-0.0166 0.84668,-0.0166 0.630864,0 1.012694,0.0332 0.39844,0.0166 0.59766,0.08301 0.19922,0.0498 0.26563,0.149414 0.0664,0.09961 0.0664,0.249023 v 17.747071 h 3.50293 q 0.14942,0 0.26563,0.09961 0.13281,0.08301 0.21582,0.282227 0.0996,0.199218 0.13281,0.53125 0.0498,0.315429 0.0498,0.796875 z"
         style="font-weight:bold;font-size:34px;font-family:Calibri;-inkscape-font-specification:'Calibri, Bold';baseline-shift:baseline;text-anchor:middle;opacity:1;vector-effect:none;stroke-width:2.15058;stop-color:#000000;stop-opacity:1"
         id="path1013" />
    </g>
    <!--  + &#45;&gt;1 -->
    <path
       fill="none"
       stroke="#000000"
       d="m 99,-71.8314 c 0,7.7004 0,16.8571 0,25.4148"
       id="path64"
       style="font-variation-settings:normal;opacity:1;vector-effect:none;fill:none;fill-opacity:1;stroke:#000000;stroke-width:2.13449;stroke-linecap:butt;stroke-linejoin:miter;stroke-miterlimit:4;stroke-dasharray:none;stroke-dashoffset:0;stroke-opacity:1;-inkscape-stroke:none;stop-color:#000000;stop-opacity:1" />
    <!-- b -->
    <ellipse
       fill="none"
       stroke="#000000"
       cx="171"
       cy="-18"
       rx="27"
       ry="18"
       id="ellipse71"
       style="font-variation-settings:normal;vector-effect:none;fill:#ffffff;fill-opacity:1;stroke:#000000;stroke-width:2.13449;stroke-linecap:butt;stroke-linejoin:miter;stroke-miterlimit:4;stroke-dasharray:none;stroke-dashoffset:0;stroke-opacity:1;-inkscape-stroke:none;stop-color:#000000" />
    <g
       aria-label="b"
       transform="translate(-0.26147427,6.7294854)"
       id="text73"
       style="font-weight:bold;font-size:34px;font-family:Calibri;-inkscape-font-specification:'Calibri, Bold';baseline-shift:baseline;text-anchor:middle;opacity:1;vector-effect:none;stroke-width:2.15058;stop-color:#000000;stop-opacity:1">
      <path
         d="m 178.87744,-21.967969 q 0,1.975586 -0.43164,3.552734 -0.43164,1.577149 -1.24512,2.689454 -0.81347,1.112304 -2.00879,1.70996 -1.17871,0.597657 -2.68945,0.597657 -0.74707,0 -1.39453,-0.149414 -0.64746,-0.132813 -1.24512,-0.448243 -0.58105,-0.315429 -1.16211,-0.796875 -0.56445,-0.481445 -1.16211,-1.162109 v 1.610352 q 0,0.182617 -0.0996,0.315429 -0.083,0.116211 -0.29882,0.199219 -0.19922,0.08301 -0.54785,0.116211 -0.34864,0.0332 -0.84668,0.0332 -0.51465,0 -0.86329,-0.0332 -0.33203,-0.0332 -0.54785,-0.116211 -0.19922,-0.08301 -0.28222,-0.199219 -0.083,-0.132812 -0.083,-0.315429 v -21.831055 q 0,-0.166016 0.0996,-0.298828 0.0996,-0.132813 0.33203,-0.21582 0.24902,-0.09961 0.64746,-0.149415 0.39844,-0.0498 1.0127,-0.0498 0.61425,0 1.01269,0.0498 0.39844,0.0498 0.63086,0.149415 0.24902,0.08301 0.34863,0.21582 0.0996,0.132812 0.0996,0.298828 v 8.18457 q 0.56446,-0.564453 1.12891,-0.96289 0.56445,-0.398438 1.1289,-0.647461 0.56446,-0.265625 1.16211,-0.381836 0.59766,-0.116211 1.26172,-0.116211 1.64356,0 2.78907,0.664062 1.1455,0.647461 1.85937,1.759766 0.73047,1.112305 1.0625,2.606445 0.33203,1.477539 0.33203,3.121094 z m -4.33301,0.298828 q 0,-0.946289 -0.14941,-1.826172 -0.13281,-0.879883 -0.48145,-1.560547 -0.34863,-0.680664 -0.91308,-1.079101 -0.54785,-0.415039 -1.39453,-0.415039 -0.41504,0 -0.81348,0.116211 -0.39844,0.116211 -0.83008,0.398437 -0.41504,0.282227 -0.86328,0.730469 -0.44824,0.448242 -0.94629,1.112305 v 4.914062 q 0.87988,1.128906 1.67676,1.726563 0.81348,0.581054 1.69336,0.581054 0.81348,0 1.37793,-0.415039 0.56445,-0.415039 0.92969,-1.079101 0.38183,-0.664063 0.54785,-1.510742 0.16601,-0.84668 0.16601,-1.69336 z"
         style="font-weight:bold;font-size:34px;font-family:Calibri;-inkscape-font-specification:'Calibri, Bold';baseline-shift:baseline;text-anchor:middle;opacity:1;vector-effect:none;stroke-width:2.15058;stop-color:#000000;stop-opacity:1"
         id="path1016" />
    </g>
    <!-- +&#45;&gt;b -->
    <path
       fill="none"
       stroke="#000000"
       d="m 171,-71.8314 c 0,7.7004 0,16.8571 0,25.4148"
       id="path78"
       style="font-variation-settings:normal;opacity:1;vector-effect:none;fill:none;fill-opacity:1;stroke:#000000;stroke-width:2.13449;stroke-linecap:butt;stroke-linejoin:miter;stroke-miterlimit:4;stroke-dasharray:none;stroke-dashoffset:0;stroke-opacity:1;-inkscape-stroke:none;stop-color:#000000;stop-opacity:1" />
    <!-- c -->
    <ellipse
       fill="none"
       stroke="#000000"
       cx="243"
       cy="-18"
       rx="27"
       ry="18"
       id="ellipse85"
       style="font-variation-settings:normal;vector-effect:none;fill:#ffffff;fill-opacity:1;stroke:#000000;stroke-width:2.13449;stroke-linecap:butt;stroke-linejoin:miter;stroke-miterlimit:4;stroke-dasharray:none;stroke-dashoffset:0;stroke-opacity:1;-inkscape-stroke:none;stop-color:#000000" />
    <g
       aria-label="c"
       transform="translate(-0.26147427,3.7294854)"
       id="text87"
       style="font-weight:bold;font-size:34px;font-family:Calibri;-inkscape-font-specification:'Calibri, Bold';baseline-shift:baseline;text-anchor:middle;opacity:1;vector-effect:none;stroke-width:2.15058;stop-color:#000000;stop-opacity:1">
      <path
         d="m 249.18408,-16.721875 q 0,0.43164 -0.0332,0.730469 -0.0166,0.282226 -0.0664,0.481445 -0.0332,0.199219 -0.0996,0.332031 -0.0498,0.116211 -0.24902,0.31543 -0.19922,0.182617 -0.68066,0.464844 -0.48145,0.265625 -1.09571,0.481445 -0.61426,0.21582 -1.34472,0.348633 -0.71387,0.132812 -1.47754,0.132812 -1.70996,0 -3.03809,-0.53125 -1.31152,-0.53125 -2.20801,-1.560547 -0.89648,-1.045898 -1.36132,-2.540039 -0.44825,-1.49414 -0.44825,-3.419922 0,-2.224609 0.54785,-3.834961 0.56446,-1.626953 1.56055,-2.689453 0.9961,-1.0625 2.35742,-1.577148 1.36133,-0.514649 2.98828,-0.514649 0.66407,0 1.29493,0.116211 0.64746,0.116211 1.19531,0.31543 0.56445,0.199219 0.99609,0.448242 0.44824,0.249024 0.63086,0.431641 0.18262,0.182617 0.24903,0.31543 0.083,0.11621 0.11621,0.315429 0.0498,0.199219 0.0664,0.498047 0.0332,0.282227 0.0332,0.697266 0,0.96289 -0.16602,1.361328 -0.16602,0.381836 -0.43164,0.381836 -0.28223,0 -0.59766,-0.232422 -0.31543,-0.232422 -0.74707,-0.514649 -0.43164,-0.282226 -1.02929,-0.514648 -0.59766,-0.232422 -1.42774,-0.232422 -1.62695,0 -2.49023,1.261719 -0.86328,1.245117 -0.86328,3.668945 0,1.195313 0.21582,2.108399 0.21582,0.913086 0.63086,1.527343 0.43164,0.614258 1.0625,0.929688 0.64746,0.298828 1.49414,0.298828 0.86328,0 1.47754,-0.249023 0.63085,-0.265625 1.0957,-0.581055 0.46484,-0.31543 0.78027,-0.564453 0.31543,-0.265625 0.53125,-0.265625 0.14942,0 0.24903,0.08301 0.0996,0.08301 0.14941,0.315429 0.0664,0.215821 0.0996,0.564453 0.0332,0.348633 0.0332,0.896485 z"
         style="font-weight:bold;font-size:34px;font-family:Calibri;-inkscape-font-specification:'Calibri, Bold';baseline-shift:baseline;text-anchor:middle;opacity:1;vector-effect:none;stroke-width:2.15058;stop-color:#000000;stop-opacity:1"
         id="path1019" />
    </g>
    <!-- +&#45;&gt;c -->
    <path
       fill="none"
       stroke="#000000"
       d="m 186.2693,-74.7307 c 9.9277,9.9277 23.046,23.046 34.167,34.167"
       id="path92"
       style="font-variation-settings:normal;opacity:1;vector-effect:none;fill:none;fill-opacity:1;stroke:#000000;stroke-width:2.13449;stroke-linecap:butt;stroke-linejoin:miter;stroke-miterlimit:4;stroke-dasharray:none;stroke-dashoffset:0;stroke-opacity:1;-inkscape-stroke:none;stop-color:#000000;stop-opacity:1" />
    <polygon
       fill="#000000"
       stroke="#000000"
       points="72.976,-261.7782 79.237,-258.6477 71.6343,-251.2687 "
       id="polygon52-4-1-1-6"
       style="stroke:none"
       transform="matrix(1.1452208,0.06393176,-0.06393176,1.1452208,9.2080681,174.96703)" />
    <polygon
       fill="#000000"
       stroke="#000000"
       points="72.976,-261.7782 79.237,-258.6477 71.6343,-251.2687 "
       id="polygon52-4-1-1-6-3"
       style="stroke:none"
       transform="matrix(-1.1452208,0.06393176,0.06393176,1.1452208,260.70046,174.99568)" />
    <polygon
       fill="#000000"
       stroke="#000000"
       points="72.976,-261.7782 79.237,-258.6477 71.6343,-251.2687 "
       id="polygon52-4-1-1-6-2"
       style="stroke:none"
       transform="matrix(1.0896516,0.35815829,-0.35815829,1.0896516,-125.38094,214.44026)" />
    <polygon
       fill="#000000"
       stroke="#000000"
       points="71.6343,-251.2687 72.976,-261.7782 79.237,-258.6477 "
       id="polygon52-4-1-1-6-2-0"
       style="stroke:none"
       transform="matrix(-1.0896516,0.35815829,0.35815829,1.0896516,395.1725,214.48599)" />
    <polygon
       fill="#000000"
       stroke="#000000"
       points="79.237,-258.6477 71.6343,-251.2687 72.976,-261.7782 "
       id="polygon52-4-1-1-6-2-7"
       style="stroke:none"
       transform="matrix(1.0237562,-0.51724387,0.51724387,1.0237562,155.68213,257.20486)" />
    <polygon
       fill="#000000"
       stroke="#000000"
       points="71.6343,-251.2687 72.976,-261.7782 79.237,-258.6477 "
       id="polygon52-4-1-1-6-2-7-9"
       style="stroke:none"
       transform="matrix(1.0237562,-0.51724387,0.51724387,1.0237562,227.67765,257.10491)" />
  </g>
</svg>
