<?xml version="1.0" encoding="UTF-8" standalone="no"?>
<!-- Created with Inkscape (http://www.inkscape.org/) -->

<svg
   width="121.40301mm"
   height="140.453mm"
   viewBox="0 0 121.40301 140.453"
   version="1.1"
   id="svg1073"
   sodipodi:docname="2023-RO-02-answerC_compatible.svg"
   inkscape:version="1.1.1 (3bf5ae0d25, 2021-09-20)"
   xmlns:inkscape="http://www.inkscape.org/namespaces/inkscape"
   xmlns:sodipodi="http://sodipodi.sourceforge.net/DTD/sodipodi-0.dtd"
   xmlns="http://www.w3.org/2000/svg"
   xmlns:svg="http://www.w3.org/2000/svg">
  <sodipodi:namedview
     id="namedview1075"
     pagecolor="#ffffff"
     bordercolor="#666666"
     borderopacity="1.0"
     inkscape:pageshadow="2"
     inkscape:pageopacity="0.0"
     inkscape:pagecheckerboard="0"
     inkscape:document-units="mm"
     showgrid="false"
     inkscape:zoom="1.8116734"
     inkscape:cx="301.65481"
     inkscape:cy="244.24932"
     inkscape:window-width="2048"
     inkscape:window-height="1017"
     inkscape:window-x="-8"
     inkscape:window-y="-8"
     inkscape:window-maximized="1"
     inkscape:current-layer="layer1"
     inkscape:snap-nodes="false" />
  <defs
     id="defs1070" />
  <g
     inkscape:label="Ebene 1"
     inkscape:groupmode="layer"
     id="layer1"
     transform="translate(-44.298497,-78.273502)">
    <g
       id="g4464"
       transform="translate(124.41446,-38.622398)">
      <ellipse
         fill="none"
         stroke="#000000"
         cx="-6.7144656"
         cy="149.0224"
         rx="9.5249996"
         ry="6.3499999"
         id="ellipse8-1"
         style="fill:#ffffff;stroke-width:0.753;stroke-miterlimit:4;stroke-dasharray:none" />
      <g
         aria-label="+"
         transform="matrix(0.35277777,0,0,0.35277777,-79.739464,231.15929)"
         id="text10-9"
         style="font-weight:bold;font-size:34px;font-family:Calibri;-inkscape-font-specification:'Calibri, Bold';baseline-shift:baseline;text-anchor:middle;opacity:1;vector-effect:none;stroke-width:2.15058;stop-color:#000000;stop-opacity:1">
        <path
           d="m 214.51878,-232.19739 q 0,0.46485 -0.0498,0.78028 -0.0498,0.31543 -0.14942,0.51464 -0.0996,0.18262 -0.23242,0.26563 -0.13281,0.083 -0.28222,0.083 h -5.16309 v 5.62793 q 0,0.16601 -0.083,0.29882 -0.083,0.11622 -0.28222,0.21583 -0.19922,0.083 -0.53125,0.13281 -0.33204,0.0498 -0.83008,0.0498 -0.49805,0 -0.83008,-0.0498 -0.33203,-0.0498 -0.53125,-0.13281 -0.19922,-0.0996 -0.29883,-0.21583 -0.083,-0.13281 -0.083,-0.29882 v -5.62793 h -5.14648 q -0.14941,0 -0.28223,-0.083 -0.11621,-0.083 -0.21582,-0.26563 -0.0996,-0.19921 -0.16601,-0.51464 -0.0498,-0.31543 -0.0498,-0.78028 0,-0.44824 0.0498,-0.76367 0.0498,-0.33203 0.13281,-0.51465 0.0996,-0.19922 0.21582,-0.28222 0.11621,-0.083 0.26562,-0.083 h 5.19629 v -5.61133 q 0,-0.16602 0.083,-0.29883 0.0996,-0.14941 0.29883,-0.23242 0.19922,-0.0996 0.53125,-0.14941 0.33203,-0.0498 0.83008,-0.0498 0.49804,0 0.83008,0.0498 0.33203,0.0498 0.53125,0.14941 0.19921,0.083 0.28222,0.23242 0.083,0.13281 0.083,0.29883 v 5.61133 h 5.21289 q 0.13281,0 0.24902,0.083 0.13282,0.083 0.21582,0.28222 0.0996,0.18262 0.14942,0.51465 0.0498,0.31543 0.0498,0.76367 z"
           style="font-weight:bold;font-size:34px;font-family:Calibri;-inkscape-font-specification:'Calibri, Bold';baseline-shift:baseline;text-anchor:middle;opacity:1;vector-effect:none;stroke-width:2.15058;stop-color:#000000;stop-opacity:1"
           id="path954" />
      </g>
      <ellipse
         fill="none"
         stroke="#000000"
         cx="-19.414465"
         cy="174.42239"
         rx="9.5249996"
         ry="6.3499999"
         id="ellipse15-39"
         style="fill:#ffffff;stroke-width:0.753;stroke-miterlimit:4;stroke-dasharray:none" />
      <g
         aria-label="·"
         transform="matrix(0.35277777,0,0,0.35277777,-79.739464,229.71351)"
         id="text17-5"
         style="font-weight:bold;font-size:34px;font-family:Calibri;-inkscape-font-specification:'Calibri, Bold';baseline-shift:baseline;text-anchor:middle;opacity:1;vector-effect:none;stroke-width:2.15058;stop-color:#000000;stop-opacity:1">
        <path
           d="m 173.48793,-156.74419 q 0,1.54395 -0.54785,2.0918 -0.53125,0.53125 -1.92578,0.53125 -1.39453,0 -1.92578,-0.53125 -0.53125,-0.53125 -0.53125,-1.99219 0,-1.54394 0.53125,-2.07519 0.54785,-0.54785 1.95898,-0.54785 1.37793,0 1.90918,0.53125 0.53125,0.53125 0.53125,1.99218 z"
           style="font-weight:bold;font-size:34px;font-family:Calibri;-inkscape-font-specification:'Calibri, Bold';baseline-shift:baseline;text-anchor:middle;opacity:1;vector-effect:none;stroke-width:2.15058;stop-color:#000000;stop-opacity:1"
           id="path957" />
      </g>
      <path
         fill="none"
         stroke="#000000"
         d="m -9.7887828,155.17104 c -1.4975772,2.99511 -3.3298692,6.6597 -4.9924052,9.98481"
         id="path22-4"
         style="stroke-width:0.753;stroke-miterlimit:4;stroke-dasharray:none" />
      <ellipse
         fill="none"
         stroke="#000000"
         cx="5.9855342"
         cy="174.42239"
         rx="9.5249996"
         ry="6.3499999"
         id="ellipse29-0"
         style="fill:#ffffff;stroke-width:0.753;stroke-miterlimit:4;stroke-dasharray:none" />
      <g
         aria-label=":"
         transform="matrix(0.35277777,0,0,0.35277777,-79.739464,232.12717)"
         id="text31-5"
         style="font-weight:bold;font-size:34px;font-family:Calibri;-inkscape-font-specification:'Calibri, Bold';baseline-shift:baseline;text-anchor:middle;opacity:1;vector-effect:none;stroke-width:2.15058;stop-color:#000000;stop-opacity:1">
        <path
           d="m 245.64795,-170.91524 q 0,0.69727 -0.11621,1.16211 -0.11621,0.46485 -0.39844,0.76367 -0.26562,0.29883 -0.71387,0.43164 -0.44824,0.11622 -1.1289,0.11622 -0.68067,0 -1.12891,-0.11622 -0.44824,-0.13281 -0.73047,-0.43164 -0.26562,-0.29882 -0.36523,-0.76367 -0.0996,-0.46484 -0.0996,-1.16211 0,-0.71386 0.0996,-1.19531 0.0996,-0.48145 0.36523,-0.78027 0.28223,-0.29883 0.73047,-0.43164 0.44824,-0.13282 1.12891,-0.13282 0.68066,0 1.1289,0.13282 0.44825,0.13281 0.71387,0.43164 0.28223,0.29882 0.39844,0.78027 0.11621,0.48145 0.11621,1.19531 z m 0,10.84082 q 0,0.69727 -0.11621,1.17871 -0.11621,0.46485 -0.39844,0.76368 -0.26562,0.29882 -0.71387,0.41503 -0.44824,0.13282 -1.1289,0.13282 -0.68067,0 -1.12891,-0.13282 -0.44824,-0.11621 -0.73047,-0.41503 -0.26562,-0.29883 -0.36523,-0.76368 -0.0996,-0.48144 -0.0996,-1.17871 0,-0.69726 0.0996,-1.17871 0.0996,-0.49804 0.36523,-0.79687 0.28223,-0.29883 0.73047,-0.41504 0.44824,-0.13281 1.12891,-0.13281 0.68066,0 1.1289,0.13281 0.44825,0.11621 0.71387,0.41504 0.28223,0.29883 0.39844,0.79687 0.11621,0.48145 0.11621,1.17871 z"
           style="font-weight:bold;font-size:34px;font-family:Calibri;-inkscape-font-specification:'Calibri, Bold';baseline-shift:baseline;text-anchor:middle;opacity:1;vector-effect:none;stroke-width:2.15058;stop-color:#000000;stop-opacity:1"
           id="path960" />
      </g>
      <path
         fill="none"
         stroke="#000000"
         d="m -3.6401485,155.17104 c 1.497577,2.99511 3.32986942,6.6597 4.9924052,9.98481"
         id="path36-8"
         style="stroke-width:0.753;stroke-miterlimit:4;stroke-dasharray:none" />
      <ellipse
         fill="none"
         stroke="#000000"
         cx="-44.814465"
         cy="199.8224"
         rx="9.5249996"
         ry="6.3499999"
         id="ellipse43-8"
         style="fill:#ffffff;stroke-width:0.753;stroke-miterlimit:4;stroke-dasharray:none" />
      <g
         aria-label="+"
         transform="matrix(0.35277777,0,0,0.35277777,-79.739464,233.43123)"
         id="text45-2"
         style="font-weight:bold;font-size:34px;font-family:Calibri;-inkscape-font-specification:'Calibri, Bold';baseline-shift:baseline;text-anchor:middle;opacity:1;vector-effect:none;stroke-width:2.15058;stop-color:#000000;stop-opacity:1">
        <path
           d="m 106.60352,-95.345901 q 0,0.464843 -0.0498,0.780273 -0.0498,0.31543 -0.14941,0.514648 -0.0996,0.182618 -0.23242,0.265625 -0.13282,0.08301 -0.28223,0.08301 h -5.16309 v 5.62793 q 0,0.166016 -0.083,0.298828 -0.083,0.116211 -0.28222,0.21582 -0.19922,0.08301 -0.531252,0.132813 -0.332031,0.04981 -0.830078,0.04981 -0.498047,0 -0.830078,-0.04981 -0.332031,-0.0498 -0.53125,-0.132813 -0.199219,-0.09961 -0.298828,-0.21582 -0.08301,-0.132812 -0.08301,-0.298828 v -5.62793 H 92.11037 q -0.149415,0 -0.282227,-0.08301 -0.116211,-0.08301 -0.21582,-0.265625 -0.09961,-0.199218 -0.166016,-0.514648 -0.0498,-0.31543 -0.0498,-0.780273 0,-0.448243 0.0498,-0.763672 0.04981,-0.332032 0.132813,-0.514649 0.09961,-0.199219 0.21582,-0.282226 0.116211,-0.08301 0.265625,-0.08301 h 5.196289 v -5.611322 q 0,-0.16602 0.08301,-0.29883 0.09961,-0.14942 0.298828,-0.23242 0.199219,-0.0996 0.53125,-0.14942 0.332031,-0.0498 0.830078,-0.0498 0.498047,0 0.830078,0.0498 0.332032,0.0498 0.531252,0.14942 0.19922,0.083 0.28222,0.23242 0.083,0.13281 0.083,0.29883 v 5.611322 h 5.21289 q 0.13282,0 0.24903,0.08301 0.13281,0.08301 0.21582,0.282226 0.0996,0.182617 0.14941,0.514649 0.0498,0.315429 0.0498,0.763672 z"
           style="font-weight:bold;font-size:34px;font-family:Calibri;-inkscape-font-specification:'Calibri, Bold';baseline-shift:baseline;text-anchor:middle;opacity:1;vector-effect:none;stroke-width:2.15058;stop-color:#000000;stop-opacity:1"
           id="path963" />
      </g>
      <path
         fill="none"
         stroke="#000000"
         d="m -24.801135,179.80907 c -3.502272,3.50227 -8.130116,8.13012 -12.053358,12.05336"
         id="path50-1"
         style="stroke-width:0.753;stroke-miterlimit:4;stroke-dasharray:none" />
      <ellipse
         fill="none"
         stroke="#000000"
         cx="-19.414465"
         cy="199.8224"
         rx="9.5249996"
         ry="6.3499999"
         id="ellipse57-5"
         style="fill:#ffffff;stroke-width:0.753;stroke-miterlimit:4;stroke-dasharray:none" />
      <g
         aria-label=" +  "
         transform="matrix(0.35277777,0,0,0.35277777,-79.739464,233.43123)"
         id="text59-8"
         style="font-weight:bold;font-size:34px;font-family:Calibri;-inkscape-font-specification:'Calibri, Bold';baseline-shift:baseline;text-anchor:middle;opacity:1;vector-effect:none;stroke-width:2.15058;stop-color:#000000;stop-opacity:1">
        <path
           d="m 178.60352,-95.345901 q 0,0.464843 -0.0498,0.780273 -0.0498,0.31543 -0.14941,0.514648 -0.0996,0.182618 -0.23243,0.265625 -0.13281,0.08301 -0.28222,0.08301 h -5.16309 v 5.62793 q 0,0.166016 -0.083,0.298828 -0.083,0.116211 -0.28222,0.21582 -0.19922,0.08301 -0.53125,0.132813 -0.33203,0.04981 -0.83008,0.04981 -0.49805,0 -0.83008,-0.04981 -0.33203,-0.0498 -0.53125,-0.132813 -0.19922,-0.09961 -0.29883,-0.21582 -0.083,-0.132812 -0.083,-0.298828 v -5.62793 h -5.14649 q -0.14941,0 -0.28223,-0.08301 -0.11621,-0.08301 -0.21582,-0.265625 -0.0996,-0.199218 -0.16601,-0.514648 -0.0498,-0.31543 -0.0498,-0.780273 0,-0.448243 0.0498,-0.763672 0.0498,-0.332032 0.13281,-0.514649 0.0996,-0.199219 0.21582,-0.282226 0.11621,-0.08301 0.26563,-0.08301 h 5.19629 v -5.611322 q 0,-0.16602 0.083,-0.29883 0.0996,-0.14942 0.29883,-0.23242 0.19922,-0.0996 0.53125,-0.14942 0.33203,-0.0498 0.83008,-0.0498 0.49805,0 0.83008,0.0498 0.33203,0.0498 0.53125,0.14942 0.19922,0.083 0.28222,0.23242 0.083,0.13281 0.083,0.29883 v 5.611322 h 5.21289 q 0.13282,0 0.24903,0.08301 0.13281,0.08301 0.21582,0.282226 0.0996,0.182617 0.14941,0.514649 0.0498,0.315429 0.0498,0.763672 z"
           style="font-weight:bold;font-size:34px;font-family:Calibri;-inkscape-font-specification:'Calibri, Bold';baseline-shift:baseline;text-anchor:middle;opacity:1;vector-effect:none;stroke-width:2.15058;stop-color:#000000;stop-opacity:1"
           id="path966" />
      </g>
      <path
         fill="none"
         stroke="#000000"
         d="m -19.414465,180.83188 c 0,2.71653 0,5.94681 0,8.96578"
         id="path64-4"
         style="stroke-width:0.753;stroke-miterlimit:4;stroke-dasharray:none" />
      <ellipse
         fill="none"
         stroke="#000000"
         cx="-70.214462"
         cy="225.2224"
         rx="9.5249996"
         ry="6.3499999"
         id="ellipse71-2"
         style="fill:#ffffff;stroke-width:0.753;stroke-miterlimit:4;stroke-dasharray:none" />
      <g
         aria-label="a"
         transform="matrix(0.35277777,0,0,0.35277777,-79.739464,233.01815)"
         id="text73-7"
         style="font-weight:bold;font-size:34px;font-family:Calibri;-inkscape-font-specification:'Calibri, Bold';baseline-shift:baseline;text-anchor:middle;opacity:1;vector-effect:none;stroke-width:2.15058;stop-color:#000000;stop-opacity:1">
        <path
           d="m 33.316895,-14.314649 q 0,0.232422 -0.166016,0.365235 -0.166016,0.132812 -0.53125,0.182617 -0.348633,0.06641 -1.045899,0.06641 -0.74707,0 -1.095703,-0.06641 -0.332031,-0.0498 -0.481445,-0.182617 -0.132812,-0.132813 -0.132812,-0.365235 v -1.178711 q -0.913086,0.979493 -2.091797,1.527344 -1.16211,0.547852 -2.589844,0.547852 -1.178711,0 -2.174805,-0.31543 -0.979492,-0.298828 -1.709961,-0.896484 -0.713867,-0.614258 -1.112304,-1.510743 -0.398438,-0.896484 -0.398438,-2.091796 0,-1.294922 0.498047,-2.241211 0.514648,-0.962891 1.510742,-1.577149 1.012695,-0.630859 2.506836,-0.929687 1.494141,-0.298828 3.469727,-0.298828 h 1.444336 v -0.896485 q 0,-0.697265 -0.149414,-1.211914 -0.132813,-0.53125 -0.464844,-0.879883 -0.31543,-0.348632 -0.863281,-0.514648 -0.53125,-0.166016 -1.328125,-0.166016 -1.045899,0 -1.875977,0.232422 -0.813477,0.232422 -1.444336,0.514649 -0.630859,0.282226 -1.0625,0.514648 -0.415039,0.232422 -0.680664,0.232422 -0.182617,0 -0.332031,-0.116211 -0.132813,-0.116211 -0.232422,-0.332031 -0.08301,-0.215821 -0.132813,-0.53125 -0.0498,-0.31543 -0.0498,-0.697266 0,-0.514648 0.08301,-0.813476 0.08301,-0.298829 0.31543,-0.53125 0.232422,-0.249024 0.813477,-0.53125 0.581054,-0.298829 1.361328,-0.547852 0.780273,-0.249023 1.693359,-0.398438 0.929688,-0.166015 1.90918,-0.166015 1.743164,0 2.97168,0.348633 1.245117,0.332031 2.041992,1.045898 0.796875,0.697266 1.162109,1.80957 0.365235,1.112305 0.365235,2.639649 z m -4.100586,-6.341797 h -1.59375 q -1.012696,0 -1.726563,0.149415 -0.713867,0.149414 -1.162109,0.448242 -0.448242,0.298828 -0.664063,0.730468 -0.199219,0.41504 -0.199219,0.962891 0,0.929688 0.581055,1.460938 0.597656,0.53125 1.643555,0.53125 0.879883,0 1.610351,-0.448243 0.747071,-0.448242 1.510743,-1.311523 z"
           style="font-weight:bold;font-size:34px;font-family:Calibri;-inkscape-font-specification:'Calibri, Bold';baseline-shift:baseline;text-anchor:middle;opacity:1;vector-effect:none;stroke-width:2.15058;stop-color:#000000;stop-opacity:1"
           id="path969" />
      </g>
      <path
         fill="none"
         stroke="#000000"
         d="m -50.201134,205.20907 c -3.502272,3.50227 -8.130117,8.13012 -12.053358,12.05336"
         id="path78-1"
         style="stroke-width:0.753;stroke-miterlimit:4;stroke-dasharray:none" />
      <ellipse
         fill="none"
         stroke="#000000"
         cx="-44.814465"
         cy="225.2224"
         rx="9.5249996"
         ry="6.3499999"
         id="ellipse85-4"
         style="fill:#ffffff;stroke-width:0.753;stroke-miterlimit:4;stroke-dasharray:none" />
      <g
         aria-label="1"
         transform="matrix(0.35277777,0,0,0.35277777,-79.739464,233.84431)"
         id="text87-14"
         style="font-weight:bold;font-size:34px;font-family:Calibri;-inkscape-font-specification:'Calibri, Bold';baseline-shift:baseline;text-anchor:middle;opacity:1;vector-effect:none;stroke-width:2.15058;stop-color:#000000;stop-opacity:1">
        <path
           d="m 106.05566,-15.460156 q 0,0.464843 -0.0498,0.796875 -0.0498,0.315429 -0.14941,0.514648 -0.083,0.182617 -0.19922,0.265625 Q 105.54102,-13.8 105.3916,-13.8 H 93.538086 q -0.132813,0 -0.249024,-0.08301 -0.11621,-0.08301 -0.21582,-0.265625 -0.08301,-0.199219 -0.132812,-0.514648 -0.04981,-0.332032 -0.04981,-0.796875 0,-0.481446 0.0332,-0.796875 0.04981,-0.332032 0.132813,-0.53125 0.09961,-0.199219 0.21582,-0.282227 0.116211,-0.09961 0.265625,-0.09961 h 4.000976 v -13.978516 l -3.453125,1.90918 q -0.381835,0.182617 -0.630859,0.232422 -0.232422,0.0332 -0.381836,-0.09961 -0.132812,-0.149414 -0.182617,-0.498047 -0.04981,-0.348633 -0.04981,-0.979492 0,-0.398437 0.0166,-0.647461 0.0166,-0.265625 0.08301,-0.448242 0.06641,-0.182617 0.182617,-0.298828 0.116211,-0.116211 0.31543,-0.249024 l 4.615234,-2.988281 q 0.08301,-0.06641 0.199219,-0.09961 0.132812,-0.04981 0.332031,-0.06641 0.199219,-0.0332 0.514648,-0.0332 0.332032,-0.0166 0.84668,-0.0166 0.630864,0 1.012694,0.0332 0.39844,0.0166 0.59766,0.08301 0.19922,0.0498 0.26563,0.149414 0.0664,0.09961 0.0664,0.249023 v 17.747071 h 3.50293 q 0.14942,0 0.26563,0.09961 0.13281,0.08301 0.21582,0.282227 0.0996,0.199218 0.13281,0.53125 0.0498,0.315429 0.0498,0.796875 z"
           style="font-weight:bold;font-size:34px;font-family:Calibri;-inkscape-font-specification:'Calibri, Bold';baseline-shift:baseline;text-anchor:middle;opacity:1;vector-effect:none;stroke-width:2.15058;stop-color:#000000;stop-opacity:1"
           id="path972" />
      </g>
      <path
         fill="none"
         stroke="#000000"
         d="m -44.814465,206.23188 c 0,2.71653 0,5.94681 0,8.96578"
         id="path92-8"
         style="stroke-width:0.753;stroke-miterlimit:4;stroke-dasharray:none" />
      <ellipse
         fill="none"
         stroke="#000000"
         cx="-19.414465"
         cy="225.2224"
         rx="9.5249996"
         ry="6.3499999"
         id="ellipse99-7"
         style="fill:#ffffff;stroke-width:0.753;stroke-miterlimit:4;stroke-dasharray:none" />
      <g
         aria-label="b"
         transform="matrix(0.35277777,0,0,0.35277777,-79.532927,233.84431)"
         id="text101-6"
         style="font-weight:bold;font-size:34px;font-family:Calibri;-inkscape-font-specification:'Calibri, Bold';baseline-shift:baseline;text-anchor:middle;opacity:1;vector-effect:none;stroke-width:2.15058;stop-color:#000000;stop-opacity:1">
        <path
           d="m 178.87744,-21.967969 q 0,1.975586 -0.43164,3.552734 -0.43164,1.577149 -1.24512,2.689454 -0.81347,1.112304 -2.00879,1.70996 -1.17871,0.597657 -2.68945,0.597657 -0.74707,0 -1.39453,-0.149414 -0.64746,-0.132813 -1.24512,-0.448243 -0.58105,-0.315429 -1.16211,-0.796875 -0.56445,-0.481445 -1.16211,-1.162109 v 1.610352 q 0,0.182617 -0.0996,0.315429 -0.083,0.116211 -0.29882,0.199219 -0.19922,0.08301 -0.54785,0.116211 -0.34864,0.0332 -0.84668,0.0332 -0.51465,0 -0.86329,-0.0332 -0.33203,-0.0332 -0.54785,-0.116211 -0.19922,-0.08301 -0.28222,-0.199219 -0.083,-0.132812 -0.083,-0.315429 v -21.831055 q 0,-0.166016 0.0996,-0.298828 0.0996,-0.132813 0.33203,-0.21582 0.24902,-0.09961 0.64746,-0.149415 0.39844,-0.0498 1.0127,-0.0498 0.61425,0 1.01269,0.0498 0.39844,0.0498 0.63086,0.149415 0.24902,0.08301 0.34863,0.21582 0.0996,0.132812 0.0996,0.298828 v 8.18457 q 0.56446,-0.564453 1.12891,-0.96289 0.56445,-0.398438 1.1289,-0.647461 0.56446,-0.265625 1.16211,-0.381836 0.59766,-0.116211 1.26172,-0.116211 1.64356,0 2.78907,0.664062 1.1455,0.647461 1.85937,1.759766 0.73047,1.112305 1.0625,2.606445 0.33203,1.477539 0.33203,3.121094 z m -4.33301,0.298828 q 0,-0.946289 -0.14941,-1.826172 -0.13281,-0.879883 -0.48145,-1.560547 -0.34863,-0.680664 -0.91308,-1.079101 -0.54785,-0.415039 -1.39453,-0.415039 -0.41504,0 -0.81348,0.116211 -0.39844,0.116211 -0.83008,0.398437 -0.41504,0.282227 -0.86328,0.730469 -0.44824,0.448242 -0.94629,1.112305 v 4.914062 q 0.87988,1.128906 1.67676,1.726563 0.81348,0.581054 1.69336,0.581054 0.81348,0 1.37793,-0.415039 0.56445,-0.415039 0.92969,-1.079101 0.38183,-0.664063 0.54785,-1.510742 0.16601,-0.84668 0.16601,-1.69336 z"
           style="font-weight:bold;font-size:34px;font-family:Calibri;-inkscape-font-specification:'Calibri, Bold';baseline-shift:baseline;text-anchor:middle;opacity:1;vector-effect:none;stroke-width:2.15058;stop-color:#000000;stop-opacity:1"
           id="path975" />
      </g>
      <path
         fill="none"
         stroke="#000000"
         d="m -19.414465,206.23188 c 0,2.71653 0,5.94681 0,8.96578"
         id="path106-7"
         style="stroke-width:0.753;stroke-miterlimit:4;stroke-dasharray:none" />
      <ellipse
         fill="none"
         stroke="#000000"
         cx="5.9855342"
         cy="225.2224"
         rx="9.5249996"
         ry="6.3499999"
         id="ellipse113-8"
         style="fill:#ffffff;stroke-width:0.753;stroke-miterlimit:4;stroke-dasharray:none" />
      <g
         aria-label="2"
         transform="matrix(0.35277777,0,0,0.35277777,-79.739464,233.63777)"
         id="text115-44"
         style="font-weight:bold;font-size:34px;font-family:Calibri;-inkscape-font-specification:'Calibri, Bold';baseline-shift:baseline;text-anchor:middle;opacity:1;vector-effect:none;stroke-width:2.15058;stop-color:#000000;stop-opacity:1">
        <path
           d="m 250.25488,-15.576367 q 0,0.481445 -0.0498,0.830078 -0.0332,0.332031 -0.11621,0.547851 -0.083,0.215821 -0.21582,0.31543 -0.13282,0.08301 -0.29883,0.08301 h -12.35156 q -0.36524,0 -0.63086,-0.06641 -0.26563,-0.06641 -0.43164,-0.249024 -0.16602,-0.199219 -0.24903,-0.564453 -0.0664,-0.365234 -0.0664,-0.946289 0,-0.547852 0.0498,-0.929688 0.0498,-0.398437 0.18262,-0.697265 0.13281,-0.31543 0.33203,-0.597656 0.21582,-0.298829 0.54785,-0.647461 l 3.71875,-3.984375 q 1.11231,-1.16211 1.79297,-2.108399 0.68066,-0.96289 1.0625,-1.743164 0.38184,-0.796875 0.51465,-1.460937 0.14941,-0.664063 0.14941,-1.261719 0,-0.547852 -0.18261,-1.029297 -0.16602,-0.498047 -0.51465,-0.863281 -0.33203,-0.365235 -0.84668,-0.564453 -0.51465,-0.215821 -1.21192,-0.215821 -0.97949,0 -1.74316,0.249024 -0.74707,0.249023 -1.32813,0.564453 -0.56445,0.298828 -0.94629,0.564453 -0.38183,0.249023 -0.59765,0.249023 -0.14942,0 -0.26563,-0.09961 -0.0996,-0.09961 -0.16601,-0.332031 -0.0664,-0.232422 -0.11621,-0.614258 -0.0332,-0.398438 -0.0332,-0.962891 0,-0.381836 0.0166,-0.630859 0.0332,-0.265625 0.083,-0.448242 0.0498,-0.199219 0.13282,-0.332031 0.083,-0.149415 0.28222,-0.348633 0.21582,-0.199219 0.76367,-0.498047 0.56446,-0.31543 1.37793,-0.597656 0.81348,-0.298829 1.79297,-0.498047 0.97949,-0.199219 2.04199,-0.199219 1.67676,0 2.92188,0.431641 1.26172,0.415039 2.0918,1.178711 0.83007,0.74707 1.22851,1.792968 0.41504,1.029297 0.41504,2.22461 0,1.045898 -0.19922,2.058593 -0.19922,1.012696 -0.83008,2.191407 -0.63085,1.162109 -1.77636,2.589843 -1.14551,1.411133 -3.03809,3.28711 l -2.50683,2.573242 h 8.46679 q 0.16602,0 0.29883,0.09961 0.14941,0.09961 0.24902,0.31543 0.0996,0.199219 0.14942,0.547852 0.0498,0.332031 0.0498,0.796875 z"
           style="font-weight:bold;font-size:34px;font-family:Calibri;-inkscape-font-specification:'Calibri, Bold';baseline-shift:baseline;text-anchor:middle;opacity:1;vector-effect:none;stroke-width:2.15058;stop-color:#000000;stop-opacity:1"
           id="path978" />
      </g>
      <path
         fill="none"
         stroke="#000000"
         d="m -14.027796,205.20907 c 3.502272,3.50227 8.1301168,8.13012 12.0533583,12.05336"
         id="path120-45"
         style="stroke-width:0.753;stroke-miterlimit:4;stroke-dasharray:none" />
      <ellipse
         fill="none"
         stroke="#000000"
         cx="5.9855342"
         cy="199.8224"
         rx="9.5249996"
         ry="6.3499999"
         id="ellipse127-7"
         style="fill:#ffffff;stroke-width:0.753;stroke-miterlimit:4;stroke-dasharray:none" />
      <g
         aria-label="25"
         transform="matrix(0.28648884,0,0,0.28648884,-63.642656,228.19149)"
         id="text129-4"
         style="font-weight:bold;font-size:41.8671px;font-family:Calibri;-inkscape-font-specification:'Calibri, Bold';baseline-shift:baseline;text-anchor:middle;opacity:1;vector-effect:none;stroke-width:2.64819;stop-color:#000000;stop-opacity:1">
        <path
           d="m 241.32368,-87.987393 q 0,0.592844 -0.0613,1.022145 -0.0409,0.408858 -0.1431,0.674615 -0.10221,0.265758 -0.26575,0.388415 -0.16355,0.102215 -0.36798,0.102215 h -15.20951 q -0.44975,0 -0.77683,-0.08177 -0.32709,-0.08177 -0.53152,-0.306643 -0.20443,-0.245315 -0.30664,-0.695059 -0.0818,-0.449743 -0.0818,-1.165245 0,-0.674615 0.0613,-1.144802 0.0613,-0.49063 0.22487,-0.858602 0.16354,-0.388415 0.40886,-0.735944 0.26575,-0.367972 0.67461,-0.797273 l 4.57921,-4.906295 q 1.36967,-1.431003 2.20783,-2.596248 0.83816,-1.185686 1.30835,-2.146506 0.47019,-0.98126 0.63373,-1.79898 0.18398,-0.81771 0.18398,-1.55366 0,-0.67461 -0.22487,-1.26746 -0.20443,-0.61328 -0.63373,-1.06303 -0.40885,-0.44974 -1.04258,-0.69505 -0.63373,-0.26576 -1.49234,-0.26576 -1.20613,0 -2.1465,0.30664 -0.91993,0.30664 -1.63543,0.69506 -0.69506,0.36797 -1.16525,0.69506 -0.47018,0.30664 -0.73594,0.30664 -0.18399,0 -0.32709,-0.12266 -0.12266,-0.12265 -0.20443,-0.40885 -0.0818,-0.2862 -0.1431,-0.75639 -0.0409,-0.49063 -0.0409,-1.18569 0,-0.47019 0.0204,-0.77683 0.0409,-0.32709 0.10221,-0.55196 0.0613,-0.24531 0.16355,-0.40886 0.10221,-0.18398 0.34753,-0.4293 0.26575,-0.24531 0.94037,-0.61328 0.69506,-0.38842 1.69676,-0.73595 1.0017,-0.36797 2.20783,-0.61328 1.20613,-0.24532 2.51448,-0.24532 2.06473,0 3.59795,0.53152 1.55366,0.51107 2.5758,1.45144 1.02215,0.91993 1.51278,2.20783 0.51107,1.26746 0.51107,2.73935 0,1.28791 -0.24531,2.53492 -0.24532,1.24702 -1.02215,2.69846 -0.77683,1.43101 -2.18739,3.189099 -1.41056,1.737646 -3.74105,4.047694 l -3.08688,3.168649 h 10.42588 q 0.20443,0 0.36797,0.122657 0.18399,0.122658 0.30665,0.388415 0.12266,0.245315 0.18398,0.674616 0.0613,0.408858 0.0613,0.981259 z"
           style="font-weight:bold;font-size:41.8671px;font-family:Calibri;-inkscape-font-specification:'Calibri, Bold';baseline-shift:baseline;text-anchor:middle;opacity:1;vector-effect:none;stroke-width:2.64819;stop-color:#000000;stop-opacity:1"
           id="path981" />
        <path
           d="m 262.2981,-94.38602 q 0,2.146504 -0.75639,3.843265 -0.73595,1.676317 -2.10562,2.841562 -1.34923,1.144803 -3.27086,1.75809 -1.90119,0.613287 -4.23168,0.613287 -1.22658,0 -2.33049,-0.163544 -1.10392,-0.1431 -1.98296,-0.367972 -0.87905,-0.245315 -1.45145,-0.470186 -0.55196,-0.245315 -0.73594,-0.388415 -0.16355,-0.163544 -0.24532,-0.34753 -0.0818,-0.183986 -0.1431,-0.429301 -0.0409,-0.265757 -0.0613,-0.654172 -0.0204,-0.388415 -0.0204,-0.919931 0,-0.572401 0.0409,-0.960816 0.0409,-0.408858 0.12266,-0.654173 0.10222,-0.245314 0.22487,-0.347529 0.12266,-0.102214 0.2862,-0.102214 0.20443,0 0.61329,0.245314 0.4293,0.224872 1.10392,0.511073 0.69506,0.2862 1.67632,0.531515 0.98125,0.224872 2.35093,0.224872 1.18569,0 2.1465,-0.245315 0.98126,-0.245314 1.65588,-0.77683 0.67461,-0.551958 1.04259,-1.369674 0.36797,-0.817716 0.36797,-1.962518 0,-0.981259 -0.30665,-1.737646 -0.30664,-0.77683 -0.96081,-1.308346 -0.65417,-0.531515 -1.69676,-0.797273 -1.04259,-0.265757 -2.53492,-0.265757 -1.18569,0 -2.16695,0.122657 -0.96082,0.122657 -1.81942,0.122657 -0.59284,0 -0.8586,-0.2862 -0.24531,-0.306644 -0.24531,-1.103917 V -110.7199 q 0,-0.81771 0.30664,-1.16524 0.32709,-0.36797 1.02215,-0.36797 h 12.53149 q 0.18399,0 0.34753,0.12266 0.16354,0.12265 0.26576,0.38841 0.12266,0.26576 0.16354,0.7155 0.0613,0.4293 0.0613,1.04259 0,1.22657 -0.22487,1.77853 -0.20443,0.55196 -0.61329,0.55196 h -9.40373 v 5.66268 q 0.7155,-0.0818 1.41056,-0.10221 0.7155,-0.0204 1.49233,-0.0204 2.1465,0 3.80238,0.51108 1.67632,0.49063 2.80068,1.47189 1.1448,0.960812 1.73764,2.412258 0.59285,1.431003 0.59285,3.332192 z"
           style="font-weight:bold;font-size:41.8671px;font-family:Calibri;-inkscape-font-specification:'Calibri, Bold';baseline-shift:baseline;text-anchor:middle;opacity:1;vector-effect:none;stroke-width:2.64819;stop-color:#000000;stop-opacity:1"
           id="path983" />
      </g>
      <path
         fill="none"
         stroke="#000000"
         d="m 5.9855341,180.83188 c 0,2.71653 0,5.94681 0,8.96578"
         id="path134-8"
         style="stroke-width:0.753;stroke-miterlimit:4;stroke-dasharray:none" />
      <ellipse
         fill="none"
         stroke="#000000"
         cx="31.385534"
         cy="199.8224"
         rx="9.5249996"
         ry="6.3499999"
         id="ellipse141-2"
         style="fill:#ffffff;stroke-width:0.753;stroke-miterlimit:4;stroke-dasharray:none" />
      <g
         aria-label="c"
         transform="matrix(0.35277777,0,0,0.35277777,-79.739464,233.01815)"
         id="text143-6"
         style="font-weight:bold;font-size:34px;font-family:Calibri;-inkscape-font-specification:'Calibri, Bold';baseline-shift:baseline;text-anchor:middle;opacity:1;vector-effect:none;stroke-width:2.15058;stop-color:#000000;stop-opacity:1">
        <path
           d="m 321.18408,-88.721878 q 0,0.431641 -0.0332,0.730469 -0.0166,0.282226 -0.0664,0.481445 -0.0332,0.199219 -0.0996,0.332031 -0.0498,0.116211 -0.24902,0.31543 -0.19922,0.182617 -0.68066,0.464844 -0.48145,0.265625 -1.09571,0.481445 -0.61426,0.21582 -1.34472,0.348633 -0.71387,0.132812 -1.47754,0.132812 -1.70996,0 -3.03809,-0.53125 -1.31152,-0.53125 -2.20801,-1.560547 -0.89648,-1.045898 -1.36132,-2.540039 -0.44825,-1.49414 -0.44825,-3.419921 0,-2.22461 0.54785,-3.834961 0.56446,-1.626954 1.56055,-2.689453 0.9961,-1.0625 2.35742,-1.57715 1.36133,-0.51465 2.98828,-0.51465 0.66407,0 1.29493,0.11621 0.64746,0.11621 1.19531,0.31543 0.56445,0.19922 0.99609,0.44825 0.44824,0.24902 0.63086,0.43164 0.18262,0.18261 0.24903,0.31543 0.083,0.11621 0.11621,0.31543 0.0498,0.199214 0.0664,0.498042 0.0332,0.282227 0.0332,0.697266 0,0.962891 -0.16602,1.361328 -0.16602,0.381836 -0.43164,0.381836 -0.28223,0 -0.59766,-0.232422 -0.31543,-0.232422 -0.74707,-0.514648 -0.43164,-0.282227 -1.02929,-0.514649 -0.59766,-0.232422 -1.42774,-0.232422 -1.62695,0 -2.49023,1.261719 -0.86328,1.245117 -0.86328,3.668945 0,1.195313 0.21582,2.108399 0.21582,0.913086 0.63086,1.527344 0.43164,0.614257 1.0625,0.929687 0.64746,0.298828 1.49414,0.298828 0.86328,0 1.47754,-0.249023 0.63085,-0.265625 1.0957,-0.581055 0.46484,-0.31543 0.78027,-0.564453 0.31543,-0.265625 0.53125,-0.265625 0.14942,0 0.24903,0.08301 0.0996,0.08301 0.14941,0.315429 0.0664,0.215821 0.0996,0.564454 0.0332,0.348632 0.0332,0.896484 z"
           style="font-weight:bold;font-size:34px;font-family:Calibri;-inkscape-font-specification:'Calibri, Bold';baseline-shift:baseline;text-anchor:middle;opacity:1;vector-effect:none;stroke-width:2.15058;stop-color:#000000;stop-opacity:1"
           id="path986" />
      </g>
      <path
         fill="none"
         stroke="#000000"
         d="m 11.372204,179.80907 c 3.502272,3.50227 8.130116,8.13012 12.053358,12.05336"
         id="path148-3"
         style="stroke-width:0.753;stroke-miterlimit:4;stroke-dasharray:none" />
    </g>
    <polygon
       fill="#000000"
       stroke="#000000"
       points="71.6343,-251.2687 72.976,-261.7782 79.237,-258.6477 "
       id="polygon52-4"
       style="stroke:none"
       transform="matrix(-0.4046375,0,0,0.4046375,156.2391,231.11662)" />
    <polygon
       fill="#000000"
       stroke="#000000"
       points="126.3657,-251.2687 118.763,-258.6477 125.024,-261.7782 "
       id="polygon66-9"
       style="stroke:none"
       transform="matrix(-0.4046375,0,0,0.4046375,159.22176,231.07758)" />
    <polygon
       fill="#000000"
       stroke="#000000"
       points="72.976,-261.7782 79.237,-258.6477 71.6343,-251.2687 "
       id="polygon52-4-1"
       style="stroke:none"
       transform="matrix(-0.38147752,0.13493113,0.13493113,0.38147752,211.56764,241.66155)" />
    <polygon
       fill="#000000"
       stroke="#000000"
       points="79.237,-258.6477 71.6343,-251.2687 72.976,-261.7782 "
       id="polygon52-4-1-1"
       style="stroke:none"
       transform="matrix(-0.36115844,-0.18247214,-0.18247214,0.36115844,110.44353,258.26109)" />
    <polygon
       fill="#000000"
       stroke="#000000"
       points="72.976,-261.7782 79.237,-258.6477 71.6343,-251.2687 "
       id="polygon52-4-1-7"
       style="stroke:none"
       transform="matrix(0.38147752,0.13493113,-0.13493113,0.38147752,23.86896,241.75587)" />
    <polygon
       fill="#000000"
       stroke="#000000"
       points="71.6343,-251.2687 72.976,-261.7782 79.237,-258.6477 "
       id="polygon52-4-1-1-3"
       style="stroke:none"
       transform="matrix(0.36115844,-0.18247214,0.18247214,0.36115844,125.03272,258.26543)" />
    <polygon
       fill="#000000"
       stroke="#000000"
       points="72.976,-261.7782 79.237,-258.6477 71.6343,-251.2687 "
       id="polygon52-4-1-18"
       style="stroke:none"
       transform="matrix(-0.38147752,0.13493113,0.13493113,0.38147752,186.04296,267.1363)" />
    <polygon
       fill="#000000"
       stroke="#000000"
       points="79.237,-258.6477 71.6343,-251.2687 72.976,-261.7782 "
       id="polygon52-4-1-1-6"
       style="stroke:none"
       transform="matrix(-0.36115844,-0.18247214,-0.18247214,0.36115844,85.028389,283.69933)" />
    <polygon
       fill="#000000"
       stroke="#000000"
       points="71.6343,-251.2687 72.976,-261.7782 79.237,-258.6477 "
       id="polygon52-4-1-7-9"
       style="stroke:none"
       transform="matrix(0.38147752,0.13493113,-0.13493113,0.38147752,-1.50968,267.1576)" />
    <polygon
       fill="#000000"
       stroke="#000000"
       points="79.237,-258.6477 71.6343,-251.2687 72.976,-261.7782 "
       id="polygon52-4-1-1-3-3"
       style="stroke:none"
       transform="matrix(0.36115844,-0.18247214,0.18247214,0.36115844,99.65409,283.66716)" />
  </g>
</svg>
