<?xml version="1.0" encoding="UTF-8" standalone="no"?>
<svg
   xmlns:dc="http://purl.org/dc/elements/1.1/"
   xmlns:cc="http://creativecommons.org/ns#"
   xmlns:rdf="http://www.w3.org/1999/02/22-rdf-syntax-ns#"
   xmlns:svg="http://www.w3.org/2000/svg"
   xmlns="http://www.w3.org/2000/svg"
   xmlns:sodipodi="http://sodipodi.sourceforge.net/DTD/sodipodi-0.dtd"
   xmlns:inkscape="http://www.inkscape.org/namespaces/inkscape"
   width="74.623985mm"
   height="47.55056mm"
   viewBox="0 0 74.623985 47.550559"
   version="1.1"
   id="svg8"
   inkscape:version="1.0.2 (e86c870879, 2021-01-15, custom)"
   sodipodi:docname="flyer.svg">
  <defs
     id="defs2">
    <inkscape:path-effect
       effect="spiro"
       id="path-effect1136"
       is_visible="true"
       lpeversion="1" />
    <inkscape:path-effect
       effect="spiro"
       id="path-effect1134"
       is_visible="true"
       lpeversion="1" />
    <inkscape:path-effect
       effect="spiro"
       id="path-effect1132"
       is_visible="true"
       lpeversion="1" />
    <inkscape:path-effect
       effect="spiro"
       id="path-effect1130"
       is_visible="true"
       lpeversion="1" />
    <inkscape:path-effect
       effect="spiro"
       id="path-effect1128"
       is_visible="true"
       lpeversion="1" />
    <inkscape:path-effect
       effect="spiro"
       id="path-effect1126"
       is_visible="true"
       lpeversion="1" />
    <inkscape:path-effect
       effect="spiro"
       id="path-effect1124"
       is_visible="true"
       lpeversion="1" />
    <inkscape:path-effect
       effect="spiro"
       id="path-effect1122"
       is_visible="true"
       lpeversion="1" />
    <inkscape:path-effect
       effect="spiro"
       id="path-effect1120"
       is_visible="true"
       lpeversion="1" />
    <inkscape:path-effect
       effect="spiro"
       id="path-effect1118"
       is_visible="true"
       lpeversion="1" />
    <inkscape:path-effect
       effect="spiro"
       id="path-effect1116"
       is_visible="true"
       lpeversion="1" />
    <inkscape:path-effect
       effect="spiro"
       id="path-effect1114"
       is_visible="true"
       lpeversion="1" />
    <inkscape:path-effect
       effect="spiro"
       id="path-effect1112"
       is_visible="true"
       lpeversion="1" />
    <inkscape:path-effect
       effect="spiro"
       id="path-effect1110"
       is_visible="true"
       lpeversion="1" />
    <inkscape:path-effect
       effect="spiro"
       id="path-effect1108"
       is_visible="true"
       lpeversion="1" />
    <inkscape:path-effect
       effect="spiro"
       id="path-effect1106"
       is_visible="true"
       lpeversion="1" />
    <inkscape:path-effect
       effect="spiro"
       id="path-effect1104"
       is_visible="true"
       lpeversion="1" />
    <inkscape:path-effect
       effect="spiro"
       id="path-effect1102"
       is_visible="true"
       lpeversion="1" />
    <inkscape:path-effect
       effect="spiro"
       id="path-effect1100"
       is_visible="true"
       lpeversion="1" />
    <inkscape:path-effect
       effect="spiro"
       id="path-effect1098"
       is_visible="true"
       lpeversion="1" />
    <inkscape:path-effect
       effect="spiro"
       id="path-effect1096"
       is_visible="true"
       lpeversion="1" />
    <inkscape:path-effect
       effect="spiro"
       id="path-effect1527"
       is_visible="true"
       lpeversion="1" />
    <inkscape:path-effect
       effect="spiro"
       id="path-effect1503"
       is_visible="true"
       lpeversion="1" />
    <inkscape:path-effect
       effect="spiro"
       id="path-effect1479"
       is_visible="true"
       lpeversion="1" />
    <inkscape:path-effect
       effect="spiro"
       id="path-effect1455"
       is_visible="true"
       lpeversion="1" />
    <inkscape:path-effect
       effect="spiro"
       id="path-effect1431"
       is_visible="true"
       lpeversion="1" />
    <inkscape:path-effect
       effect="spiro"
       id="path-effect1407"
       is_visible="true"
       lpeversion="1" />
    <inkscape:path-effect
       effect="spiro"
       id="path-effect1371"
       is_visible="true"
       lpeversion="1" />
    <inkscape:path-effect
       effect="spiro"
       id="path-effect1347"
       is_visible="true"
       lpeversion="1" />
    <inkscape:path-effect
       effect="spiro"
       id="path-effect1323"
       is_visible="true"
       lpeversion="1" />
    <inkscape:path-effect
       effect="spiro"
       id="path-effect1299"
       is_visible="true"
       lpeversion="1" />
    <inkscape:path-effect
       effect="spiro"
       id="path-effect1275"
       is_visible="true"
       lpeversion="1" />
    <inkscape:path-effect
       effect="spiro"
       id="path-effect1251"
       is_visible="true"
       lpeversion="1" />
    <inkscape:path-effect
       effect="spiro"
       id="path-effect1239"
       is_visible="true"
       lpeversion="1" />
    <inkscape:path-effect
       effect="spiro"
       id="path-effect1215"
       is_visible="true"
       lpeversion="1" />
    <inkscape:path-effect
       effect="spiro"
       id="path-effect1191"
       is_visible="true"
       lpeversion="1" />
    <inkscape:path-effect
       effect="spiro"
       id="path-effect1179"
       is_visible="true"
       lpeversion="1" />
    <inkscape:path-effect
       effect="spiro"
       id="path-effect1155"
       is_visible="true"
       lpeversion="1" />
    <inkscape:path-effect
       effect="spiro"
       id="path-effect1143"
       is_visible="true"
       lpeversion="1" />
    <inkscape:path-effect
       effect="spiro"
       id="path-effect1119"
       is_visible="true"
       lpeversion="1" />
    <inkscape:path-effect
       effect="spiro"
       id="path-effect1095"
       is_visible="true"
       lpeversion="1" />
    <inkscape:path-effect
       effect="spiro"
       id="path-effect1072"
       is_visible="true"
       lpeversion="1" />
    <inkscape:path-effect
       effect="spiro"
       id="path-effect1068"
       is_visible="true"
       lpeversion="1" />
  </defs>
  <sodipodi:namedview
     id="base"
     pagecolor="#ffffff"
     bordercolor="#666666"
     borderopacity="1.0"
     inkscape:pageopacity="0.0"
     inkscape:pageshadow="2"
     inkscape:zoom="2.8284271"
     inkscape:cx="134.67277"
     inkscape:cy="69.506818"
     inkscape:document-units="mm"
     inkscape:current-layer="layer1"
     inkscape:document-rotation="0"
     showgrid="false"
     inkscape:window-width="1061"
     inkscape:window-height="974"
     inkscape:window-x="-10"
     inkscape:window-y="0"
     inkscape:window-maximized="0"
     fit-margin-top="0"
     fit-margin-left="0"
     fit-margin-right="0"
     fit-margin-bottom="0"
     showguides="true" />
  <metadata
     id="metadata5">
    <rdf:RDF>
      <cc:Work
         rdf:about="">
        <dc:format>image/svg+xml</dc:format>
        <dc:type
           rdf:resource="http://purl.org/dc/dcmitype/StillImage" />
        <dc:title></dc:title>
      </cc:Work>
    </rdf:RDF>
  </metadata>
  <g
     inkscape:groupmode="layer"
     id="layer3"
     inkscape:label="Ebene 0"
     transform="translate(1.3890634,11.434937)">
    <rect
       style="fill:#3ba43a;fill-opacity:1;stroke:none;stroke-width:0.349941;stroke-linejoin:round;stroke-dasharray:0.349941, 0.349941;paint-order:markers fill stroke"
       id="rect914"
       width="74.590553"
       height="47.55056"
       x="-1.3890634"
       y="-11.434937"
       ry="9.2392163e-08" />
    <rect
       style="fill:#ffffd2;fill-opacity:1;stroke:none;stroke-width:0.317944;stroke-linejoin:round;stroke-dasharray:0.317944, 0.317944;paint-order:markers fill stroke"
       id="rect922"
       width="72.73996"
       height="35.983334"
       x="-0.59015763"
       y="-0.92604166"
       ry="7.3129776e-08" />
  </g>
  <g
     inkscape:label="Ebene 1"
     inkscape:groupmode="layer"
     id="layer1"
     transform="translate(-96.783266,3.434936)">
    <g
       id="g1453"
       transform="translate(-35.162243,67.328713)">
      <path
         style="fill:none;stroke:#bbbdbe;stroke-width:0.264837px;stroke-linecap:butt;stroke-linejoin:miter;stroke-opacity:1"
         d="m 135.42689,-58.790658 v 32"
         id="path1070-2"
         inkscape:path-effect="#path-effect1096"
         inkscape:original-d="m 135.42689,-58.790658 v 32" />
      <path
         style="fill:none;stroke:#bbbdbe;stroke-width:0.265;stroke-linecap:butt;stroke-linejoin:miter;stroke-miterlimit:4;stroke-dasharray:0.265, 0.265;stroke-dashoffset:0;stroke-opacity:1"
         d="m 138.92652,-58.790658 v 32"
         id="path1070-5-4"
         inkscape:path-effect="#path-effect1098"
         inkscape:original-d="m 138.92652,-58.790658 v 32" />
      <path
         style="fill:none;stroke:#bbbdbe;stroke-width:0.265;stroke-linecap:butt;stroke-linejoin:miter;stroke-miterlimit:4;stroke-dasharray:0.265, 0.265;stroke-dashoffset:0;stroke-opacity:1"
         d="m 142.42654,-58.790658 v 32"
         id="path1070-5-9-7"
         inkscape:path-effect="#path-effect1100"
         inkscape:original-d="m 142.42654,-58.790658 v 32" />
      <path
         style="fill:none;stroke:#bbbdbe;stroke-width:0.265;stroke-linecap:butt;stroke-linejoin:miter;stroke-miterlimit:4;stroke-dasharray:0.265, 0.265;stroke-dashoffset:0;stroke-opacity:1"
         d="m 145.92656,-58.790658 v 32"
         id="path1070-5-9-2-4"
         inkscape:path-effect="#path-effect1102"
         inkscape:original-d="m 145.92656,-58.790658 v 32" />
      <path
         style="fill:none;stroke:#bbbdbe;stroke-width:0.264837px;stroke-linecap:butt;stroke-linejoin:miter;stroke-opacity:1"
         d="m 163.4265,-58.790658 v 32"
         id="path1070-5-9-9-8"
         inkscape:path-effect="#path-effect1104"
         inkscape:original-d="m 163.4265,-58.790658 v 32" />
      <path
         style="fill:none;stroke:#bbbdbe;stroke-width:0.264837;stroke-linecap:butt;stroke-linejoin:miter;stroke-miterlimit:4;stroke-dasharray:0.264837, 0.264837;stroke-dashoffset:0;stroke-opacity:1"
         d="m 152.9265,-58.790658 v 32"
         id="path1070-5-9-9-6-9"
         inkscape:path-effect="#path-effect1106"
         inkscape:original-d="m 152.9265,-58.790658 v 32" />
      <path
         style="fill:none;stroke:#bbbdbe;stroke-width:0.264837px;stroke-linecap:butt;stroke-linejoin:miter;stroke-opacity:1"
         d="m 149.4265,-58.790658 v 32"
         id="path1070-5-9-9-0-9"
         inkscape:path-effect="#path-effect1108"
         inkscape:original-d="m 149.4265,-58.790658 v 32" />
      <path
         style="fill:none;stroke:#bbbdbe;stroke-width:0.264837;stroke-linecap:butt;stroke-linejoin:miter;stroke-miterlimit:4;stroke-dasharray:0.264837, 0.264837;stroke-dashoffset:0;stroke-opacity:1"
         d="m 156.4265,-58.790658 v 32"
         id="path1070-5-9-9-0-2-2"
         inkscape:path-effect="#path-effect1110"
         inkscape:original-d="m 156.4265,-58.790658 v 32" />
      <path
         style="fill:none;stroke:#bbbdbe;stroke-width:0.264837;stroke-linecap:butt;stroke-linejoin:miter;stroke-miterlimit:4;stroke-dasharray:0.264837, 0.264837;stroke-dashoffset:0;stroke-opacity:1"
         d="m 166.9265,-58.790658 v 32"
         id="path1070-5-9-9-0-2-0-3"
         inkscape:path-effect="#path-effect1112"
         inkscape:original-d="m 166.9265,-58.790658 v 32" />
      <path
         style="fill:none;stroke:#bbbdbe;stroke-width:0.264837;stroke-linecap:butt;stroke-linejoin:miter;stroke-miterlimit:4;stroke-dasharray:0.264837, 0.264837;stroke-dashoffset:0;stroke-opacity:1"
         d="m 159.9265,-58.790658 v 32"
         id="path1070-5-9-9-0-2-7-8"
         inkscape:path-effect="#path-effect1114"
         inkscape:original-d="m 159.9265,-58.790658 v 32" />
      <path
         style="fill:none;stroke:#bbbdbe;stroke-width:0.264837;stroke-linecap:butt;stroke-linejoin:miter;stroke-miterlimit:4;stroke-dasharray:0.264837, 0.264837;stroke-dashoffset:0;stroke-opacity:1"
         d="m 170.4265,-58.790658 v 32"
         id="path1070-5-9-9-0-2-7-5-9"
         inkscape:path-effect="#path-effect1116"
         inkscape:original-d="m 170.4265,-58.790658 v 32" />
      <path
         style="fill:none;stroke:#bbbdbe;stroke-width:0.264837;stroke-linecap:butt;stroke-linejoin:miter;stroke-miterlimit:4;stroke-dasharray:0.264837, 0.264837;stroke-dashoffset:0;stroke-opacity:1"
         d="m 173.9265,-58.790658 v 32"
         id="path1070-5-9-9-0-2-7-5-1-0"
         inkscape:path-effect="#path-effect1118"
         inkscape:original-d="m 173.9265,-58.790658 v 32" />
      <path
         style="fill:none;stroke:#bbbdbe;stroke-width:0.264837px;stroke-linecap:butt;stroke-linejoin:miter;stroke-opacity:1"
         d="m 177.4265,-58.790658 v 32"
         id="path1070-5-9-9-0-2-7-5-1-2-2"
         inkscape:path-effect="#path-effect1120"
         inkscape:original-d="m 177.4265,-58.790658 v 32" />
      <path
         style="fill:none;stroke:#bbbdbe;stroke-width:0.264837;stroke-linecap:butt;stroke-linejoin:miter;stroke-miterlimit:4;stroke-dasharray:0.264837, 0.264837;stroke-dashoffset:0;stroke-opacity:1"
         d="m 180.9265,-58.790658 v 32"
         id="path1070-5-9-9-0-2-7-5-1-2-1-2"
         inkscape:path-effect="#path-effect1122"
         inkscape:original-d="m 180.9265,-58.790658 v 32" />
      <path
         style="fill:none;stroke:#bbbdbe;stroke-width:0.264837;stroke-linecap:butt;stroke-linejoin:miter;stroke-miterlimit:4;stroke-dasharray:0.264837, 0.264837;stroke-dashoffset:0;stroke-opacity:1"
         d="m 184.4265,-58.790658 v 32"
         id="path1070-5-9-9-0-2-7-5-1-2-1-6-8"
         inkscape:path-effect="#path-effect1124"
         inkscape:original-d="m 184.4265,-58.790658 v 32" />
      <path
         style="fill:none;stroke:#bbbdbe;stroke-width:0.264837;stroke-linecap:butt;stroke-linejoin:miter;stroke-miterlimit:4;stroke-dasharray:0.264837, 0.264837;stroke-dashoffset:0;stroke-opacity:1"
         d="m 187.9265,-58.790658 v 32"
         id="path1070-5-9-9-0-2-7-5-1-2-1-6-5-3"
         inkscape:path-effect="#path-effect1126"
         inkscape:original-d="m 187.9265,-58.790658 v 32" />
      <path
         style="fill:none;stroke:#bbbdbe;stroke-width:0.264837px;stroke-linecap:butt;stroke-linejoin:miter;stroke-opacity:1"
         d="m 191.4265,-58.790658 v 32"
         id="path1070-5-9-9-0-2-7-5-1-2-1-6-5-4-8"
         inkscape:path-effect="#path-effect1128"
         inkscape:original-d="m 191.4265,-58.790658 v 32" />
      <path
         style="fill:none;stroke:#bbbdbe;stroke-width:0.264837;stroke-linecap:butt;stroke-linejoin:miter;stroke-miterlimit:4;stroke-dasharray:0.264837, 0.264837;stroke-dashoffset:0;stroke-opacity:1"
         d="m 194.9265,-58.790658 v 32"
         id="path1070-5-9-9-0-2-7-5-1-2-1-6-5-4-1-6"
         inkscape:path-effect="#path-effect1130"
         inkscape:original-d="m 194.9265,-58.790658 v 32" />
      <path
         style="fill:none;stroke:#bbbdbe;stroke-width:0.264837;stroke-linecap:butt;stroke-linejoin:miter;stroke-miterlimit:4;stroke-dasharray:0.264837, 0.264837;stroke-dashoffset:0;stroke-opacity:1"
         d="m 198.4265,-58.790658 v 32"
         id="path1070-5-9-9-0-2-7-5-1-2-1-6-5-4-1-2-1"
         inkscape:path-effect="#path-effect1132"
         inkscape:original-d="m 198.4265,-58.790658 v 32" />
      <path
         style="fill:none;stroke:#bbbdbe;stroke-width:0.264837;stroke-linecap:butt;stroke-linejoin:miter;stroke-miterlimit:4;stroke-dasharray:0.264837, 0.264837;stroke-dashoffset:0;stroke-opacity:1"
         d="m 201.9225,-58.790658 v 32"
         id="path1070-5-9-9-0-2-7-5-1-2-1-6-5-4-1-2-2-4"
         inkscape:path-effect="#path-effect1134"
         inkscape:original-d="m 201.9225,-58.790658 v 32" />
      <path
         style="fill:none;stroke:#bbbdbe;stroke-width:0.384107px;stroke-linecap:butt;stroke-linejoin:miter;stroke-opacity:1"
         d="M 202.60619,-26.881747 H 135.29297"
         id="path1070-9-2"
         inkscape:path-effect="#path-effect1136"
         inkscape:original-d="M 202.60619,-26.881747 H 135.29297" />
      <text
         xml:space="preserve"
         style="font-size:1.41111px;line-height:1.25;font-family:sans-serif;stroke-width:0.264583"
         x="133.27946"
         y="-24.744034"
         id="text1532-6"><tspan
           sodipodi:role="line"
           id="tspan1530-3"
           x="133.27946"
           y="-24.744034"
           style="font-size:1.41111px;stroke-width:0.264583">10:00</tspan></text>
      <text
         xml:space="preserve"
         style="font-size:1.41111px;line-height:1.25;font-family:sans-serif;stroke-width:0.264583"
         x="147.35333"
         y="-24.744034"
         id="text1532-9-9"><tspan
           sodipodi:role="line"
           id="tspan1530-5-6"
           x="147.35333"
           y="-24.744034"
           style="font-size:1.41111px;stroke-width:0.264583">11:00</tspan></text>
      <text
         xml:space="preserve"
         style="font-size:1.41111px;line-height:1.25;font-family:sans-serif;stroke-width:0.264583"
         x="161.35974"
         y="-24.743347"
         id="text1532-9-6-6"><tspan
           sodipodi:role="line"
           id="tspan1530-5-7-4"
           x="161.35974"
           y="-24.743347"
           style="font-size:1.41111px;stroke-width:0.264583">12:00</tspan></text>
      <text
         xml:space="preserve"
         style="font-size:1.41111px;line-height:1.25;font-family:sans-serif;stroke-width:0.264583"
         x="175.32326"
         y="-24.743347"
         id="text1532-9-1-6"><tspan
           sodipodi:role="line"
           id="tspan1530-5-79-7"
           x="175.32326"
           y="-24.743347"
           style="font-size:1.41111px;stroke-width:0.264583">13:00</tspan></text>
      <text
         xml:space="preserve"
         style="font-size:1.41111px;line-height:1.25;font-family:sans-serif;stroke-width:0.264583"
         x="189.35706"
         y="-24.744034"
         id="text1532-9-5-7"><tspan
           sodipodi:role="line"
           id="tspan1530-5-3-6"
           x="189.35706"
           y="-24.744034"
           style="font-size:1.41111px;stroke-width:0.264583">14:00</tspan></text>
      <rect
         style="fill:#3ba4e0;fill-opacity:1;stroke:#2762d0;stroke-width:0.234646;stroke-linejoin:round;stroke-miterlimit:4;stroke-dasharray:none;stroke-opacity:1;paint-order:markers fill stroke"
         id="rect833-8"
         width="17.274353"
         height="1.7747781"
         x="135.4113"
         y="-56.678047"
         ry="7.011667e-08" />
      <rect
         style="fill:#3ba4e0;fill-opacity:1;stroke:#2762d0;stroke-width:0.233453;stroke-linejoin:round;stroke-miterlimit:4;stroke-dasharray:none;stroke-opacity:1;paint-order:markers fill stroke"
         id="rect833-9-6"
         width="6.7665472"
         height="1.8443362"
         x="149.41071"
         y="-50.712826"
         ry="7.2864715e-08" />
      <rect
         style="fill:#3ba4e0;fill-opacity:1;stroke:#2762d0;stroke-width:0.234158;stroke-linejoin:round;stroke-miterlimit:4;stroke-dasharray:none;stroke-opacity:1;paint-order:markers fill stroke"
         id="rect833-9-1-9"
         width="10.265842"
         height="1.8168856"
         x="138.91109"
         y="-53.699097"
         ry="7.1780221e-08" />
      <rect
         style="fill:#3ba4e0;fill-opacity:1;stroke:#2762d0;stroke-width:0.234158;stroke-linejoin:round;stroke-miterlimit:4;stroke-dasharray:none;stroke-opacity:1;paint-order:markers fill stroke"
         id="rect833-9-16-7"
         width="10.265842"
         height="1.8168868"
         x="152.91109"
         y="-47.6991"
         ry="7.1780256e-08" />
      <rect
         style="fill:#3ba4e0;fill-opacity:1;stroke:#2762d0;stroke-width:0.234158;stroke-linejoin:round;stroke-miterlimit:4;stroke-dasharray:none;stroke-opacity:1;paint-order:markers fill stroke"
         id="rect833-9-16-0-9"
         width="10.265842"
         height="1.8168868"
         x="156.41109"
         y="-44.6991"
         ry="7.1780256e-08" />
      <rect
         style="fill:#3ba4e0;fill-opacity:1;stroke:#2762d0;stroke-width:0.234448;stroke-linejoin:round;stroke-miterlimit:4;stroke-dasharray:none;stroke-opacity:1;paint-order:markers fill stroke"
         id="rect833-9-16-0-0-0"
         width="13.765552"
         height="1.7943499"
         x="156.41124"
         y="-41.687836"
         ry="7.088989e-08" />
      <rect
         style="fill:#3ba4e0;fill-opacity:1;stroke:#2762d0;stroke-width:0.234662;stroke-linejoin:round;stroke-miterlimit:4;stroke-dasharray:none;stroke-opacity:1;paint-order:markers fill stroke"
         id="rect833-9-16-0-0-3-2"
         width="20.765337"
         height="1.7574315"
         x="163.41132"
         y="-38.669373"
         ry="6.9431337e-08" />
      <rect
         style="fill:#3ba4e0;fill-opacity:1;stroke:#2762d0;stroke-width:0.234448;stroke-linejoin:round;stroke-miterlimit:4;stroke-dasharray:none;stroke-opacity:1;paint-order:markers fill stroke"
         id="rect833-9-16-0-0-3-1-0"
         width="13.765552"
         height="1.7943499"
         x="170.41113"
         y="-35.687836"
         ry="7.0889882e-08" />
      <rect
         style="fill:#3ba4e0;fill-opacity:1;stroke:#2762d0;stroke-width:0.234158;stroke-linejoin:round;stroke-miterlimit:4;stroke-dasharray:none;stroke-opacity:1;paint-order:markers fill stroke"
         id="rect833-9-16-0-0-3-1-4-0"
         width="10.265842"
         height="1.8168868"
         x="180.91092"
         y="-32.699097"
         ry="7.1780242e-08" />
      <rect
         style="fill:#3ba4e0;fill-opacity:1;stroke:#2762d0;stroke-width:0.234448;stroke-linejoin:round;stroke-miterlimit:4;stroke-dasharray:none;stroke-opacity:1;paint-order:markers fill stroke"
         id="rect833-9-16-0-0-3-1-4-2-2"
         width="13.765552"
         height="1.7943499"
         x="187.91107"
         y="-29.687828"
         ry="7.0889875e-08" />
      <text
         xml:space="preserve"
         style="font-size:1.41111px;line-height:1.15;font-family:sans-serif;stroke-width:0.264583"
         x="154.14989"
         y="-46.28587"
         id="text1028-4"><tspan
           sodipodi:role="line"
           x="154.14989"
           y="-46.28587"
           style="font-size:1.41111px;stroke-width:0.264583"
           id="tspan1214">pony riding</tspan></text>
      <text
         xml:space="preserve"
         style="font-size:1.41111px;line-height:1.15;font-family:sans-serif;stroke-width:0.264583"
         x="167.30412"
         y="-37.352859"
         id="text1028-4-4-3"><tspan
           sodipodi:role="line"
           id="tspan1026-1-4-3"
           x="167.30412"
           y="-37.352859"
           style="font-size:1.41111px;stroke-width:0.264583">elephant showering</tspan></text>
      <text
         xml:space="preserve"
         style="font-size:1.41111px;line-height:1.15;font-family:sans-serif;stroke-width:0.264583"
         x="158.4122"
         y="-43.308975"
         id="text1028-4-4-3-4"><tspan
           sodipodi:role="line"
           id="tspan1026-1-4-3-0"
           x="158.4122"
           y="-43.308975"
           style="font-size:1.41111px;stroke-width:0.264583">seal show</tspan></text>
      <text
         xml:space="preserve"
         style="font-size:1.41111px;line-height:1.15;font-family:sans-serif;stroke-width:0.264583"
         x="136.90831"
         y="-55.346745"
         id="text1028-4-4-3-7"><tspan
           sodipodi:role="line"
           id="tspan1026-1-4-3-6"
           x="136.90831"
           y="-55.346745"
           style="font-size:1.41111px;stroke-width:0.264583">aquarium light show</tspan></text>
      <text
         xml:space="preserve"
         style="font-size:1.41111px;line-height:1.15;font-family:sans-serif;stroke-width:0.264583"
         x="172.43777"
         y="-34.290672"
         id="text1028-4-4-3-7-7"><tspan
           sodipodi:role="line"
           id="tspan1026-1-4-3-6-1"
           x="172.43777"
           y="-34.290672"
           style="font-size:1.41111px;stroke-width:0.264583">hippo feeding</tspan></text>
      <text
         xml:space="preserve"
         style="font-size:1.41111px;line-height:1.15;font-family:sans-serif;stroke-width:0.264583"
         x="158.88033"
         y="-40.33976"
         id="text1028-4-4-3-7-7-6"><tspan
           sodipodi:role="line"
           id="tspan1026-1-4-3-6-1-6"
           x="158.88033"
           y="-40.33976"
           style="font-size:1.41111px;stroke-width:0.264583">koala feeding</tspan></text>
      <text
         xml:space="preserve"
         style="font-size:1.41111px;line-height:1.15;font-family:sans-serif;stroke-width:0.264583"
         x="182.0968"
         y="-31.405708"
         id="text1028-4-4-3-7-7-6-8"><tspan
           sodipodi:role="line"
           id="tspan1026-1-4-3-6-1-6-7"
           x="182.0968"
           y="-31.405708"
           style="font-size:1.41111px;stroke-width:0.264583">tiger show</tspan></text>
      <text
         xml:space="preserve"
         style="font-size:1.41111px;line-height:1.15;font-family:sans-serif;stroke-width:0.264583"
         x="189.27364"
         y="-28.419739"
         id="text1028-4-4-3-7-7-6-8-1"><tspan
           sodipodi:role="line"
           id="tspan1026-1-4-3-6-1-6-7-0"
           x="189.27364"
           y="-28.419739"
           style="font-size:1.41111px;stroke-width:0.264583">monkey training</tspan></text>
      <text
         xml:space="preserve"
         style="font-size:1.41111px;line-height:1.25;font-family:sans-serif;stroke-width:0.264583"
         x="139.96318"
         y="-52.273521"
         id="text1040-8"><tspan
           sodipodi:role="line"
           id="tspan1038-7"
           x="139.96318"
           y="-52.273521"
           style="font-size:1.41111px;stroke-width:0.264583">Africa safari</tspan></text>
      <text
         xml:space="preserve"
         style="font-size:1.41111px;line-height:1.15;font-family:sans-serif;stroke-width:0.264583"
         x="150.14851"
         y="-49.285023"
         id="text1028-4-4-3-4-8"><tspan
           sodipodi:role="line"
           id="tspan1026-1-4-3-0-6"
           x="150.14851"
           y="-49.285023"
           style="font-size:1.41111px;stroke-width:0.264583">crafting</tspan></text>
    </g>
    <path
       id="path1420-2"
       style="fill:#67bb4e;fill-opacity:1;stroke:#57ae44;stroke-width:0.0499999;stroke-linecap:butt;stroke-linejoin:miter;stroke-miterlimit:4;stroke-dasharray:none;stroke-opacity:1"
       inkscape:transform-center-x="-2.925756"
       inkscape:transform-center-y="11.060165"
       d="m 96.840627,-3.3724323 v 0.8335409 c 1.043314,-0.00562 2.139318,0.057116 3.673673,0.7730794 1.21086,0.5650151 0.0365,0.6870507 -0.31315,0.6020303 -1.12879,-0.2744404 -2.19859,-0.7539241 -3.360523,-0.922941 v 1.54357515 c 0.830656,-0.08772 1.660054,-0.1051044 2.484603,0.1922362 0.439337,0.15842906 1.0835,0.97592196 -0.187585,0.71313462 L 96.840627,-0.1126829 v 1.1430825 c 0.321631,0.00284 0.586805,0.037908 0.749825,0.1038696 0.875167,0.3541141 0.46734,0.5705446 -0.323494,0.8428427 -0.124606,0.042905 -0.270788,0.065417 -0.426331,0.079065 v 1.9430338 c 0.732158,-0.5836941 0.631339,-0.026717 0.50953,0.4061767 -0.0864,0.3080403 -0.260307,0.5766392 -0.50953,0.8102864 V 6.2724569 C 97.724761,5.6248978 98.143449,4.6470937 98.738186,3.7568483 99.82581,2.1288173 100.14686,3.4306075 99.686448,4.3433758 99.13468,5.4372651 97.91919,6.0970231 96.840627,6.8579509 v 0.2025716 l 1.824695,0.5534545 c 2.285098,-0.9995349 1.806828,-3.332973 2.654098,-5.029667 0.19838,-0.3972492 0.74902,-1.092481 1.03508,0.2103231 0.28711,1.3076168 -0.64221,2.8366078 -2.612758,4.6028197 2.176208,0.827351 3.633188,0.4485919 3.633368,-2.3719483 0.0698,-0.6848647 0.11666,-1.3941198 0.32866,-1.9275309 0.23422,-0.2590559 0.4542,-0.3805674 0.59893,0.2025716 0.30688,1.6216842 -0.85678,2.8579356 -1.3658,4.2658895 1.19357,-0.060681 2.41825,-0.097587 3.03237,-0.5989298 0.2694,-2.068384 -0.37992,-3.3870366 -0.7736,-4.7433796 -0.21007,-0.7237579 0.50596,-0.7579395 0.88987,-0.2842205 0.88652,1.09391 0.66648,2.7787034 0.35398,4.4720785 0.58114,-0.060625 1.19955,-0.3218886 1.83503,-0.6743775 0.77622,-0.5437419 0.4889,-0.901969 0.24547,-1.317749 -0.54877,-0.9373031 -1.10792,-1.8027713 -1.71153,-2.7776082 -0.40503,-0.65410901 0.25388,-1.03444993 0.67593,-0.5922119 0.84363,0.8839899 1.6873,1.6072165 1.90686,3.3119425 0.28909,-1.0466239 1.95321,-2.1038613 0.20722,-3.1589802 -0.88486,-0.53472611 -2.43442,-1.19476362 -1.90014,-1.40663242 0.74365,-0.29488712 1.49967,0.84134033 2.38694,1.24643542 0.17201,0.078537 0.58319,-0.18237202 -0.16588,-0.75654298 -0.55272,-0.42366194 -0.93913,-0.89903696 -1.33171,-1.46967762 -0.32168,-0.4675714 -0.73345,-0.8727037 -2.14405,-0.1741498 -1.22382,0.59017114 -0.91759,0.1874346 -1.05937,0.075448 l 4.22817,-2.0903117 h -0.8909 l -3.31195,1.8417481 c 0.0488,-0.5255133 0.61102,-0.6884403 0.86713,-1.0717694 0.17647,-0.2641322 0.30648,-0.5206838 0.38706,-0.7699787 h -5.91075 c 0.2143,0.131822 0.43816,0.259765 0.70125,0.3731037 1.12149,0.4831342 0.40151,1.0394289 -0.5054,0.3865399 -0.41713,-0.3002894 -0.79601,-0.5494031 -1.145663,-0.7596436 z" />
    <path
       id="path1420"
       style="fill:#3f9c51;fill-opacity:1;stroke:#30803f;stroke-width:0.0499999;stroke-linecap:butt;stroke-linejoin:miter;stroke-miterlimit:4;stroke-dasharray:none;stroke-opacity:1"
       d="m 104.05517,-3.4029213 c -0.16545,0.3337607 -0.32058,0.7413508 -0.46302,1.2417845 2.11069,-1.0783236 2.98144,-0.5107075 4.45503,-0.7431071 1.20622,-0.1902283 0.89474,0.6642171 -0.22066,0.5963462 -5.95722,-0.3624805 -4.43125,2.17950781 -4.62194,3.00085013 1.34733,-0.76936096 2.27616,-1.74329353 4.70617,-2.05258773 1.32525,-0.1686877 0.39741,0.56163104 0.0563,0.67644459 -1.65514,0.55711592 -3.44559,0.64730285 -4.86844,2.03760151 l 0.51005,1.7270264 c 1.3475,-0.8745215 2.39399,-2.24396327 4.05195,-2.60965976 0.45608,-0.10059617 1.43727,0.24638687 0.2222,0.70279946 l -2.3182,0.870748 c -2.85376,1.4718038 -2.02034,2.1216143 -1.52859,3.4183958 0.64565,-1.454494 2.29228,-2.6912258 2.95072,-2.8101643 0.92902,-0.1678167 0.69953,0.2332811 0.17622,0.885734 -0.79187,0.987289 -3.87296,1.5208938 -2.28048,3.0344401 0.2381,0.3505121 0.47383,0.7022857 0.61392,1.1027751 0.17583,-0.2322218 0.50396,-0.041156 0.77411,-0.011369 0.73362,0.1385232 1.01991,-0.095206 1.09761,-0.5028117 l 0.45785,-1.526005 c 0.33886,-1.1298875 0.56785,-0.545791 0.70383,-0.088367 0.22318,0.748642 -0.0906,1.5731343 -0.90175,2.4520467 0.28938,0.3059963 0.73174,0.117432 1.1467,0.01757 0.80199,-1.2111967 0.54919,-2.4714357 0.58239,-3.7594604 0.0504,-1.9572517 1.01666,-1.0274204 1.11466,-0.00982 0.12477,1.2952905 -0.64708,2.5758594 -1.15755,3.872632 L 111.35447,7.5592 c 1.39856,-2.0651504 -0.25124,-3.7829548 -0.4408,-5.669938 -0.0444,-0.4418026 0.0501,-1.32404537 0.98753,-0.375171 0.94088,0.9523825 0.97182,2.7415416 0.24857,5.2870158 2.28182,-0.4622718 3.31073,-1.5604739 1.80505,-3.9454955 -0.30662,-0.6163569 -0.64472,-1.2408762 -0.75034,-1.8050578 0.0597,-0.34409594 0.18022,-0.5646362 0.61392,-0.14882815 1.12573,1.20738815 0.80166,2.87441875 1.12293,4.33668615 0.97684,-0.6885395 1.9927,-1.3736693 2.24431,-2.1254516 -0.87649,-1.8927654 -2.12937,-2.66154347 -3.18637,-3.59822984 -0.56404,-0.49982517 0.0229,-0.91079526 0.60048,-0.71520206 1.33363,0.4516633 2.04681,1.99386185 2.68665,3.5925458 0.45901,-0.3615235 0.8425,-0.9124498 1.19166,-1.54977625 0.36604,-0.87417671 -0.0678,-1.02379937 -0.49557,-1.2454022 -0.96443,-0.4995619 -1.89973,-0.93303825 -2.93057,-1.43505445 -0.69169,-0.3368487 -0.33718,-1.0100612 0.25579,-0.861446 1.18529,0.2970617 2.28439,0.458094 3.38016,1.78232006 -0.23248,-0.76863836 0.16512,-1.94190906 -0.43563,-2.48563626 z" />
    <path
       id="path1420-2-8"
       style="fill:#67bb4e;fill-opacity:1;stroke:#57ae44;stroke-width:0.0499999;stroke-linecap:butt;stroke-linejoin:miter;stroke-miterlimit:4;stroke-dasharray:none;stroke-opacity:1"
       inkscape:transform-center-x="6.3500279"
       inkscape:transform-center-y="-10.020749"
       d="m 98.987122,18.498147 c -1.90553,1.609271 -0.781887,3.709649 -1.110527,5.577438 -0.07695,0.437308 -0.407199,1.260805 -1.052649,0.09353 -0.0054,-0.0097 -0.0092,-0.02017 -0.01447,-0.02997 v 7.053832 c 0.135355,0.02962 0.28596,0.122124 0.400492,0.272852 0.98186,1.292184 1.648022,2.840147 4.010612,0.771529 -1.00711,-0.302881 -2.097834,-0.507258 -3.087154,-1.367875 -0.42262,-0.367677 -0.443321,-0.619801 0.327629,-0.374138 1.673415,0.533241 3.083065,3.174756 5.367115,-0.537951 -2.32382,0.466476 -3.00871,-0.3156 -4.490166,-0.490926 -1.21267,-0.143517 -0.681223,-0.882077 0.374135,-0.514697 5.636481,1.962114 4.855721,-0.898092 5.261701,-1.63711 -1.50532,0.37577 -2.66303,1.062061 -5.086001,0.701766 -1.321668,-0.19653 -0.23127,-0.648466 0.128161,-0.666626 1.74415,-0.0881 3.49228,0.309688 5.23844,-0.643371 l -0.0233,-1.800407 c -1.53398,0.476949 -2.91192,1.51183 -4.60696,1.414901 -0.46627,-0.02667 -1.31652,-0.62658 -0.0232,-0.736907 l 2.46703,-0.210322 c 3.14569,-0.644034 2.51949,-1.494817 2.39727,-2.876311 -1.01539,1.225313 -2.9358,1.969637 -3.60185,1.905827 -0.9398,-0.09004 -0.61016,-0.413837 0.0703,-0.900203 1.02964,-0.735967 4.14,-0.415505 3.01687,-2.303736 -0.13428,-0.40189 -0.26557,-0.804371 -0.29197,-1.227832 -0.23215,0.175939 -0.49679,-0.09712 -0.74879,-0.198954 -0.66869,-0.332008 -1.00755,-0.184284 -1.19269,0.187069 l -0.85318,1.345137 c -0.63218,0.995904 -0.69477,0.37173 -0.70177,-0.10542 -0.0121,-0.781105 0.51284,-1.490247 1.53169,-2.116666 -0.1957,-0.372925 -0.67266,-0.310872 -1.09915,-0.327112 -1.10004,0.948764 -1.19796,2.23038 -1.57872,3.461287 -0.578592,1.870464 -1.256598,0.713635 -1.075388,-0.292488 0.23066,-1.280678 1.320628,-2.304174 2.163178,-3.414262 z m -1.393197,0.49351 c -0.280392,-0.0064 -0.542387,0.0042 -0.784448,0.03307 v 2.453597 c 0.244867,-0.735869 0.649005,-1.557256 1.207161,-2.465482 -0.145108,-0.01081 -0.285937,-0.01805 -0.422713,-0.02119 z m -0.784448,13.147518 v 1.268656 c 0.338014,0.0074 0.682357,-0.107962 1.020093,-0.433565 0.319258,-0.307788 -0.534311,-0.404404 -1.020093,-0.835091 z" />
    <path
       id="path1420-7"
       style="fill:#3f9c51;fill-opacity:1;stroke:#30803f;stroke-width:0.0499999;stroke-linecap:butt;stroke-linejoin:miter;stroke-miterlimit:4;stroke-dasharray:none;stroke-opacity:1"
       d="m 99.751295,23.074744 -2.085144,0.362768 c -1.5909,1.920899 -0.113971,3.790007 -0.106971,5.686475 0.0014,0.390401 -0.137044,1.107963 -0.74259,0.572575 v 8.531262 c 0.763033,0.334645 1.632002,0.545359 2.270146,-0.337447 0.31806,-0.440002 -1.038977,-0.256585 -1.463477,-0.936895 -0.42508,-0.681233 0.188768,-0.803764 0.586528,-0.438216 1.19492,1.098172 2.124473,2.503964 4.083983,0.05013 -1.0448,-0.12 -2.15398,-0.128376 -3.279898,-0.800467 -0.48098,-0.287141 -0.546442,-0.531782 0.255798,-0.426331 1.74135,0.228891 3.59583,2.57966 5.18728,-1.478462 -2.2047,0.870092 -3.01708,0.221135 -4.506184,0.310575 -1.21894,0.07321 -0.826186,-0.747525 0.277494,-0.572575 5.89464,0.934372 4.62075,-1.74228 4.88963,-2.541447 -1.41514,0.636063 -2.43389,1.516194 -4.88239,1.590084 -1.335315,0.04031 -0.34176,-0.597588 0.009,-0.679028 1.70109,-0.395167 3.49249,-0.312234 5.04259,-1.559078 l -0.34158,-1.768368 c -1.42545,0.740717 -2.59902,2.002736 -4.28449,2.207101 -0.46364,0.05622 -1.40633,-0.383584 -0.15297,-0.720886 l 2.39107,-0.643372 c 2.98221,-1.190199 2.21514,-1.916995 1.85054,-3.255099 -0.7827,1.385572 -2.54073,2.458035 -3.20756,2.513025 -0.94087,0.07759 -0.67413,-0.299617 -0.0904,-0.898653 0.88325,-0.906459 4.00147,-1.141019 2.56211,-2.800862 -0.20324,-0.371808 -0.404,-0.744402 -0.50488,-1.156519 -0.19737,0.214214 -0.5055,-0.0079 -0.77153,-0.06356 -0.71687,-0.208514 -1.02444,-0.0029 -1.14101,0.395325 l -0.60255,1.474328 c -0.44608,1.092011 -0.6177,0.489062 -0.709,0.02067 -0.15006,-0.766652 0.24127,-1.557648 1.13327,-2.354378 -0.25857,-0.332437 -0.71682,-0.187081 -1.13947,-0.127641 -0.914874,1.128352 -0.78446,2.406721 -0.94154,3.685563 -0.23867,1.943305 -1.110947,0.925159 -1.110527,-0.09715 5.3e-4,-1.301285 0.892012,-2.501842 1.524972,-3.74344 z" />
    <path
       id="path1420-2-0"
       style="fill:#67bb4e;fill-opacity:1;stroke:#57ae44;stroke-width:0.0499999;stroke-linecap:butt;stroke-linejoin:miter;stroke-miterlimit:4;stroke-dasharray:none;stroke-opacity:1"
       inkscape:transform-center-x="-0.48353627"
       inkscape:transform-center-y="11.539214"
       d="m 113.77792,-3.40285 c 0.94681,0.2148769 1.94272,0.5402961 3.18275,1.4851809 1.0628,0.8098475 -0.11102,0.6794526 -0.4346,0.5219319 -1.5702,-0.7643895 -2.9091,-1.9564713 -4.89841,-1.9642212 l -0.84852,1.5885335 c 1.57373,0.3223932 3.28016,0.080642 4.71806,0.9834025 0.39554,0.24833103 0.85114,1.18418079 -0.33487,0.65680748 l -2.26291,-1.00614028 c -3.06603,-0.953698 -2.92761,0.093691 -3.48712,1.36270759 1.48058,-0.58331549 3.52157,-0.30904867 4.07417,0.068213 0.77972,0.53231653 0.33457,0.65730199 -0.4961,0.75499251 -1.25696,0.1478259 -3.82647,-1.6340812 -3.75377,0.5617229 -0.0764,0.4167851 -0.15519,0.8328255 -0.33642,1.2164631 0.28822,-0.042091 0.38807,0.3245829 0.55966,0.535368 0.42551,0.6134478 0.79348,0.6477978 1.13481,0.411861 l 1.3963,-0.7663614 c 1.03426,-0.5672783 0.78788,0.00967 0.56379,0.4309813 -0.36628,0.6900085 -1.16799,1.0575827 -2.36265,1.1146608 -0.009,0.4210703 0.43888,0.5969968 0.8046,0.8170045 1.42131,-0.3002434 2.1251,-1.3757188 3.05253,-2.2701459 1.40928,-1.3591572 1.44568,-0.018676 0.8015,0.7751466 -0.81997,1.0104443 -2.26881,1.3813816 -3.54242,1.9471679 l 1.84795,1.0314616 c 2.44552,-0.4901282 2.47533,-2.8721874 3.66438,-4.3496053 0.27841,-0.3459076 0.96486,-0.9080244 0.96686,0.4258138 0.002,1.3387641 -1.23121,2.6351617 -3.5326,3.9413615 1.95017,1.2716892 3.45389,1.2112315 4.05454,-1.5446086 0.214,-0.6543061 0.41103,-1.3367607 0.73173,-1.8128093 0.28401,-0.2032524 0.52479,-0.2755379 0.54209,0.3250448 -0.0454,1.6498402 -1.44566,2.6104919 -2.24276,3.8777995 1.17912,0.1948175 2.38347,0.4195669 3.09025,0.060461 0.70357,-1.9636114 0.35015,-3.3906454 0.25425,-4.7997069 -0.0512,-0.7518889 0.65541,-0.6329587 0.92966,-0.088367 0.63331,1.2575691 0.0597,2.8571831 -0.60616,4.4452068 0.58072,0.064488 1.24035,-0.059084 1.93631,-0.2682007 0.87418,-0.366022 0.66971,-0.7769932 0.52038,-1.2350667 -0.33664,-1.0326465 -0.69831,-1.9978867 -1.08055,-3.0788819 -0.25648,-0.7253427 0.4683,-0.9560345 0.78652,-0.434082 0.63609,1.0433304 1.30596,1.9292498 1.15755,3.6416382 0.50529,-0.9610836 2.35673,-1.6400627 0.8754,-3.0427083 -0.75073,-0.7108508 -2.12414,-1.6854368 -1.55701,-1.7787027 0.78939,-0.1298062 1.28585,1.1412878 2.06654,1.7259927 0.15134,0.113357 0.60914,-0.054147 -5.2e-4,-0.7746297 -0.44985,-0.5316217 -0.72648,-1.0781371 -0.98857,-1.71927489 -0.21476,-0.52533629 -0.53078,-1.00854588 -2.05776,-0.62631822 -1.32141,0.316094 -0.93642,-0.0123246 -1.0511,-0.15192877 l 5.25757,-1.31258152 -0.0853,-0.4619871 -5.09478,1.5368569 c 0.15958,-0.5030718 0.74406,-0.5424635 1.0759,-0.8624795 0.62739,-0.6050486 0.92967,-1.2274026 0.68937,-1.8949749 h -1.80299 c -0.13363,0.4167447 -0.44986,0.3087518 -0.60462,0 h -1.12396 c 0.10865,0.3995669 -0.028,0.5223629 -0.5209,0.00258 -7.5e-4,-7.874e-4 -10e-4,-0.0018 -0.002,-0.00258 h -1.83296 c 0.17155,0.1629154 0.35257,0.324571 0.57051,0.480591 0.99292,0.7108196 0.17092,1.1012649 -0.57619,0.2702677 -0.25019,-0.2782806 -0.487,-0.5277303 -0.71211,-0.7508587 z" />
    <path
       id="path1420-5"
       style="fill:#3f9c51;fill-opacity:1;stroke:#30803f;stroke-width:0.0499999;stroke-linecap:butt;stroke-linejoin:miter;stroke-miterlimit:4;stroke-dasharray:none;stroke-opacity:1"
       d="m 119.92687,-3.4028505 c -0.007,0.023244 -0.0139,0.044049 -0.0207,0.067696 0.0486,-0.024805 0.0933,-0.044604 0.14056,-0.067696 z m 1.55339,0 c -2.77376,0.4687835 -1.80743,2.2576147 -1.96163,2.92178528 1.34733,-0.76936098 2.27668,-1.74381028 4.70669,-2.05310448 1.32525,-0.1686877 0.3974,0.5616311 0.0563,0.6764443 -1.65514,0.5571162 -3.4461,0.6478199 -4.86895,2.03811851 l 0.51056,1.72702639 c 1.3475,-0.8745214 2.39348,-2.24396322 4.05144,-2.60965971 0.45608,-0.10059617 1.43727,0.24638687 0.2222,0.70279946643 L 121.87869,0.87130723 c -2.85376,1.47180377 -2.02034,2.12109737 -1.52859,3.41787897 0.64565,-1.4544939 2.29228,-2.690709 2.95072,-2.8096474 0.92902,-0.167817 0.69953,0.233281 0.17622,0.885734 -0.79187,0.9872887 -3.87244,1.5208937 -2.27996,3.03444 0.2381,0.3505121 0.47382,0.701769 0.61391,1.1022583 0.17583,-0.2322217 0.50397,-0.040639 0.77412,-0.010852 0.73362,0.1385232 1.0199,-0.095723 1.0976,-0.5033284 l 0.45734,-1.5254883 c 0.33886,-1.1298878 0.56785,-0.5463077 0.70383,-0.088883 0.22318,0.7486419 -0.0901,1.5736509 -0.90123,2.4525633 0.28938,0.3059963 0.73174,0.1169152 1.1467,0.017053 0.80199,-1.2111966 0.54919,-2.4709188 0.58239,-3.7589435 0.0504,-1.9572518 1.01666,-1.0274205 1.11466,-0.00982 0.12477,1.2952904 -0.6476,2.5758593 -1.15807,3.8726319 l 2.0407,-0.5622396 c 1.39856,-2.0651505 -0.25175,-3.7829551 -0.44131,-5.66993799 -0.0444,-0.44180257 0.0506,-1.32404536 0.98805,-0.37517096 0.94088,0.95238255 0.9713,2.74154155 0.24805,5.28701565 2.28182,-0.4622717 3.31125,-1.5604737 1.80557,-3.9454956 -0.30662,-0.6163567 -0.64524,-1.24087599 -0.75086,-1.80505761 0.0597,-0.34409591 0.18074,-0.56411944 0.61444,-0.14831139 1.12573,1.20738819 0.80114,2.873902 1.12241,4.3361694 0.97684,-0.6885395 1.9927,-1.3736693 2.24431,-2.1254516 -0.87649,-1.89276537 -2.12937,-2.66102672 -3.18637,-3.5977134 -0.56404,-0.4998249 0.023,-0.9113117 0.60048,-0.7157185 1.33363,0.4516633 2.04733,1.9943786 2.68717,3.5930623 0.45901,-0.36152327 0.8425,-0.91296626 1.19166,-1.550293 0.36604,-0.8741767 -0.0683,-1.0232824 -0.49609,-1.2448852 -0.96443,-0.4995619 -1.89922,-0.9330386 -2.93006,-1.4350545 -0.22227,-0.1082442 -0.33595,-0.2513901 -0.36897,-0.3906737 z m 11.77293,0 c 0.59189,0.241871 1.17084,0.612661 1.74873,1.3110311 -0.11485,-0.3797155 -0.0756,-0.8580633 -0.0786,-1.3110311 z" />
    <path
       id="path1420-2-6"
       style="fill:#67bb4e;fill-opacity:1;stroke:#57ae44;stroke-width:0.0571103;stroke-linecap:butt;stroke-linejoin:miter;stroke-miterlimit:4;stroke-dasharray:none;stroke-opacity:1"
       inkscape:transform-center-x="-11.779772"
       inkscape:transform-center-y="7.2618442"
       d="m 129.3118,-3.4028502 c -0.42891,0.2812428 -0.86776,0.7722842 -1.32602,1.5621785 1.27791,-0.099989 2.60565,-0.3310053 4.11654,0.1297079 0.64525,0.19637 0.7835,0.4389331 -0.20102,0.5017781 -2.13697,0.136398 -4.93171,-1.9250181 -5.83323,2.6690877 2.41979,-1.38752451 3.55,-0.88331467 5.30717,-1.29862874 1.43836,-0.33997768 1.17164,0.6042353 -0.19017,0.6593914 -7.27322,0.29462834 -5.09136,2.82302604 -5.21571,3.71811914 1.53409,-0.9718624 2.53426,-2.1134609 5.44153,-2.7197306 1.58586,-0.3307133 0.55586,0.5515631 0.1571,0.7126181 -1.93509,0.7813226 -4.09566,1.0815908 -5.64048,2.7223143 l 0.84387,1.778186 c 1.52063,-1.0837029 2.61148,-2.6588757 4.57492,-3.2370117 0.54013,-0.1590288 1.77514,0.097903 0.3607,0.7219199 l -2.69803,1.190625 c -3.2699,1.8907333 -2.17458,2.4858149 -1.40921,3.8085529 0.59375,-1.6202599 2.43005,-3.1227069 3.21324,-3.3243448 1.10509,-0.2844961 0.87898,0.1678927 0.32918,0.9213908 -0.83197,1.140175 -4.4997,2.0595616 -2.37092,3.4871253 0.33444,0.345526 0.66624,0.692402 0.88832,1.102258 0.18305,-0.267027 0.60633,-0.101126 0.93793,-0.100252 0.9079,0.06354 1.22445,-0.218152 1.26555,-0.660425 l 0.35605,-1.6743159 c 0.26394,-1.240106 0.61821,-0.6456534 0.84233,-0.1746663 0.3682,0.770545 0.0953,1.6832852 -0.77411,2.7104282 0.39084,0.292316 0.90288,0.04145 1.39319,-0.112138 0.81511,-1.379416 0.34449,-2.6904858 0.21704,-4.0638339 -0.19366,-2.0869068 1.09941,-1.2088011 1.35082,-0.137976 0.32002,1.3630429 -0.44989,2.8127379 -0.9002,4.2498699 l 2.40192,-0.830441 c 1.42749,-2.3555324 -0.79781,-3.9936303 -1.27331,-5.9784458 -0.11131,-0.4646596 -0.11136,-1.4135205 1.14929,-0.5115967 1.26531,0.9052613 1.53541,2.804293 0.9896,5.5934565 2.7076,-0.7520105 3.81339,-2.0371708 1.67638,-4.4012813 -0.45217,-0.6203646 -0.94422,-1.2460978 -1.14566,-1.8339964 0.0277,-0.3726926 0.14532,-0.6205199 0.72553,-0.2278931 1.52218,1.1553503 1.34637,2.9647774 1.9265,4.4829304 1.09522,-0.8436319 2.23855,-1.6880377 2.44585,-2.5161256 -1.30965,-1.9125168 -2.92948,-2.5870077 -4.33359,-3.4623207 -0.74925,-0.4670661 -0.0909,-0.9709365 0.63511,-0.8288901 1.67647,0.3280113 2.7426,1.886119 3.7269,3.5129638 0.5097,-0.4368114 0.90334,-1.0663393 1.24385,-1.7838702 0.33016,-0.9712518 -0.21601,-1.0803001 -0.76377,-1.2671063 -1.23488,-0.4211444 -2.42567,-0.77537439 -3.74138,-1.19165843 -0.88288,-0.27921505 -0.5407,-1.03549396 0.19792,-0.94516203 1.47642,0.18055351 2.83043,0.22599385 4.33204,1.50895176 -0.51665,-1.06921797 0.27365,-3.0601976 -2.19522,-2.7848428 -1.25118,0.139551 -3.23229,0.6151282 -2.88199,0.082682 0.4876,-0.7410919 2.07036,-0.2907317 3.22564,-0.5405355 0.22399,-0.048428 0.42003,-0.5408168 -0.73122,-0.5245158 -0.84949,0.01204 -1.5792,-0.1292342 -2.38693,-0.3467488 -0.66185,-0.1782246 -1.36238,-0.2439424 -2.18178,1.2784749 -0.72297,1.30750537 -0.7351,0.7665291 -0.9555,0.7668783 l 1.29036,-2.3931356 h -0.42943 l -1.02578,2.1678263 c -0.35155,-0.4728823 0.0631,-0.9829485 0.0176,-1.4743286 -0.0233,-0.2511427 -0.0671,-0.4831269 -0.13332,-0.6934977 h -2.9006 c 0.0785,0.040974 0.15308,0.087447 0.21755,0.1467611 0.67577,0.6216773 -0.0274,0.8824414 -0.59272,0.5854939 -0.4742,-0.2490889 -0.92926,-0.5250775 -1.37718,-0.732255 z" />
    <path
       id="path1420-5-9"
       style="fill:#3f9c51;fill-opacity:1;stroke:#30803f;stroke-width:0.0499999;stroke-linecap:butt;stroke-linejoin:miter;stroke-miterlimit:4;stroke-dasharray:none;stroke-opacity:1"
       d="m 141.01722,-3.4078138 c -0.007,0.023244 -0.0139,0.044049 -0.0207,0.067696 0.0486,-0.024805 0.0933,-0.044604 0.14056,-0.067696 z m 1.55339,0 c -2.77376,0.4687835 -1.80743,2.2576146 -1.96163,2.92178527 1.34733,-0.76936097 2.27668,-1.74381027 4.70669,-2.05310447 1.32525,-0.1686877 0.3974,0.5616311 0.0563,0.6764443 -1.65514,0.5571162 -3.4461,0.6478199 -4.86895,2.03811844 l 0.51056,1.72702646 c 1.3475,-0.8745214 2.39348,-2.24396323 4.05144,-2.60965975 0.45608,-0.1005962 1.43727,0.24638692 0.2222,0.70279949 l -2.31818,0.87074795 c -2.85376,1.47180381 -2.02034,2.12109741 -1.52859,3.41787901 0.64565,-1.4544939 2.29228,-2.690709 2.95072,-2.8096474 0.92902,-0.167817 0.69953,0.233281 0.17622,0.885734 -0.79187,0.9872887 -3.87244,1.5208937 -2.27996,3.03444 0.2381,0.3505121 0.47382,0.701769 0.61391,1.1022583 0.17583,-0.2322217 0.50397,-0.040639 0.77412,-0.010852 0.73362,0.1385232 1.0199,-0.095723 1.0976,-0.5033284 l 0.45734,-1.5254883 c 0.33886,-1.1298878 0.56785,-0.5463077 0.70383,-0.088883 0.22318,0.7486419 -0.0901,1.5736509 -0.90123,2.4525633 0.28938,0.3059963 0.73174,0.1169152 1.1467,0.017053 0.80199,-1.2111966 0.54919,-2.4709188 0.58239,-3.7589435 0.0504,-1.9572518 1.01666,-1.0274205 1.11466,-0.00982 0.12477,1.2952904 -0.6476,2.5758593 -1.15807,3.8726319 l 2.0407,-0.5622396 c 1.39856,-2.0651505 -0.25175,-3.7829551 -0.44131,-5.66993806 -0.0444,-0.4418026 0.0506,-1.32404537 0.98805,-0.375171 0.94088,0.95238266 0.9713,2.74154166 0.24805,5.28701576 2.28182,-0.4622717 3.31125,-1.5604737 1.80557,-3.9454956 -0.30662,-0.6163567 -0.64524,-1.24087606 -0.75086,-1.80505766 0.0597,-0.34409587 0.18074,-0.56411949 0.61444,-0.14831137 1.12573,1.20738822 0.80114,2.87390203 1.12241,4.33616943 0.97684,-0.6885395 1.9927,-1.3736693 2.24431,-2.1254516 -0.87649,-1.89276546 -2.12937,-2.66102675 -3.18637,-3.5977134 -0.56404,-0.4998249 0.023,-0.9113117 0.60048,-0.7157185 1.33363,0.4516633 2.04733,1.99437857 2.68717,3.5930623 0.45901,-0.36152331 0.8425,-0.91296636 1.19166,-1.55029303 0.36604,-0.87417667 -0.0683,-1.02328237 -0.49609,-1.24488517 -0.96443,-0.4995619 -1.89922,-0.9330386 -2.93006,-1.4350545 -0.22227,-0.1082442 -0.33595,-0.2513901 -0.36897,-0.3906737 z m 11.77293,0 c 0.59189,0.241871 1.17084,0.612661 1.74873,1.3110311 -0.11485,-0.3797155 -0.0756,-0.8580633 -0.0786,-1.3110311 z" />
    <path
       id="path1420-2-0-0"
       style="fill:#67bb4e;fill-opacity:1;stroke:#57ae44;stroke-width:0.0500496;stroke-linecap:butt;stroke-linejoin:miter;stroke-miterlimit:4;stroke-dasharray:none;stroke-opacity:1"
       inkscape:transform-center-x="-0.48342878"
       inkscape:transform-center-y="11.564724"
       d="m 161.69586,-3.434936 c 0.94659,0.2153519 1.94195,0.5418243 3.18172,1.488798 1.06257,0.8116378 -0.1111,0.6808345 -0.4346,0.5229655 -1.56985,-0.7660794 -2.90798,-1.9605883 -4.89686,-1.9683553 l -0.84853,1.5916341 c 1.57336,0.3231059 3.27944,0.08123 4.71703,0.98598631 0.39545,0.24888001 0.8509,1.18637998 -0.33487,0.65784091 l -2.26239,-1.00820712 c -3.06535,-0.9558063 -2.9267,0.093986 -3.48609,1.36580816 1.48025,-0.58460533 3.52064,-0.30988291 4.07313,0.0682128 0.77955,0.53349339 0.33438,0.65863654 -0.49609,0.75654294 -1.25669,0.1481529 -3.82543,-1.6373853 -3.75274,0.5632733 -0.0763,0.4177064 -0.15522,0.8345612 -0.33642,1.2190468 0.28816,-0.042184 0.38759,0.3251504 0.55914,0.5364014 0.42542,0.6148041 0.79357,0.6493531 1.13482,0.4128947 l 1.39578,-0.7679118 c 1.03404,-0.5685324 0.78783,0.00977 0.56379,0.4320151 -0.3662,0.6915338 -1.16773,1.0595231 -2.36213,1.1167276 -0.009,0.4220012 0.43895,0.5985775 0.8046,0.8190714 1.421,-0.3009071 2.12479,-1.3789091 3.05201,-2.2753131 1.40897,-1.3621621 1.44503,-0.01888 0.80099,0.7766965 -0.81977,1.0126781 -2.26804,1.3847818 -3.54139,1.951819 l 1.84743,1.0335287 c 2.44497,-0.4912119 2.47455,-2.8782229 3.66334,-4.3589072 0.27836,-0.3466722 0.96486,-0.9104564 0.96687,0.4263305 0.002,1.3417238 -1.2312,2.6410592 -3.53208,3.9501466 1.94974,1.2745005 3.45349,1.2142232 4.05401,-1.5477093 0.21394,-0.6557526 0.41058,-1.3398423 0.73122,-1.8169432 0.28394,-0.2037016 0.5248,-0.2763488 0.54209,0.3255616 -0.0455,1.6534873 -1.44532,2.6164751 -2.24224,3.8865844 1.17886,0.1952482 2.38312,0.4203607 3.08973,0.060461 0.70343,-1.9679522 0.35013,-3.3978656 0.25425,-4.8100421 -0.0512,-0.753551 0.65496,-0.6346796 0.92914,-0.088883 0.63317,1.260349 0.0601,2.8634906 -0.60564,4.455025 0.58058,0.064631 1.23999,-0.059138 1.9358,-0.2687175 0.25304,-0.1062071 0.41339,-0.2164003 0.51314,-0.3302124 V 5.8001591 c -0.3347,-1.0274109 -0.69362,-1.9895513 -1.07332,-3.0659628 -0.25643,-0.7269461 0.46838,-0.9582219 0.78652,-0.4351155 0.0971,0.1596401 0.19117,0.314461 0.2868,0.4702556 v -3.18171798 c -0.22024,0.012909 -0.47938,0.0535392 -0.79116,0.13177493 -1.32112,0.31679277 -0.93644,-0.012533 -1.0511,-0.1524455 l 1.84226,-0.46095369 V -1.2045812 l -1.76475,0.53330086 c 0.15951,-0.50418406 0.74415,-0.54382326 1.07591,-0.86454676 0.33441,-0.3232902 0.57216,-0.651698 0.68884,-0.989087 V -3.434936 h -1.80247 c -0.13356,0.417666 -0.4499,0.3094343 -0.60462,0 h -1.12344 c 0.10861,0.4004502 -0.0281,0.5235115 -0.5209,0.00258 -7.4e-4,-7.892e-4 -0.001,-0.00179 -0.002,-0.00258 h -1.83244 c 0.17141,0.1632755 0.3526,0.3252595 0.5705,0.4816243 0.9927,0.712391 0.17075,1.1041356 -0.57619,0.2713013 -0.25015,-0.2788958 -0.48704,-0.529304 -0.7121,-0.7529256 z" />
  </g>
  <g
     inkscape:groupmode="layer"
     id="layer2"
     inkscape:label="Ebene 2"
     transform="translate(-96.783266,3.434936)">
    <text
       xml:space="preserve"
       style="font-size:11.2889px;line-height:1.25;font-family:sans-serif;fill:#ffffff;fill-opacity:1;stroke-width:0.264583"
       x="99.353165"
       y="5.9069252"
       id="text920"><tspan
         sodipodi:role="line"
         id="tspan918"
         x="99.353165"
         y="5.9069252"
         style="font-size:11.2889px;fill:#ffffff;fill-opacity:1;stroke-width:0.264583">Zoo</tspan></text>
    <g
       id="g1404"
       transform="matrix(-1.1996173,0,0,1.1985712,222.81015,4.8477416)">
      <path
         style="fill:#ffce51;fill-opacity:0.968627;stroke:#e5ab44;stroke-width:0.05;stroke-linecap:butt;stroke-linejoin:miter;stroke-miterlimit:4;stroke-dasharray:none;stroke-opacity:0.988235"
         d="M 47.471548,5.1888021 42.874413,4.2627605 v 8.1690105 c 2.176355,0.305217 4.39512,0.271158 6.614583,0.23151 l 0.46123,1.370329 c 0.191745,0.528038 0.461951,1.035429 0.374176,1.637025 0.01041,0.863838 0.443959,1.000404 0.947137,1.017295 l 1.22777,0.02339 c 0.395098,0.01367 0.66048,-0.120053 0.572958,-0.65481 -0.0071,-0.136419 -0.07189,-0.272838 -0.222168,-0.409257 -0.180813,-0.07795 -0.203164,-0.155907 -0.210474,-0.233861 -0.131443,-1.03853 -0.174218,-2.071148 -0.140316,-3.098656 l 1.180997,-0.280633 -0.128625,-2.4906175 z"
         id="path1275"
         sodipodi:nodetypes="ccccccccccccccc" />
      <path
         style="fill:#f7b83d;fill-opacity:1;stroke:#e8a427;stroke-width:0.05;stroke-linecap:butt;stroke-linejoin:miter;stroke-miterlimit:4;stroke-dasharray:none;stroke-opacity:1"
         d="m 52.511001,13.039701 0.327406,0.608038 0.04677,0.748355 c 0.03879,0.433936 0.154287,0.821384 0.701582,0.947136 l 1.46163,-0.01169 c 0.333972,-0.0346 0.507797,-0.175962 0.561266,-0.397563 0.02544,-0.436745 -0.316107,-0.575319 -0.514495,-0.830206 l -0.140317,-1.578561 -1.27454,-0.491108 -1.180997,0.280633 z"
         id="path1277"
         sodipodi:nodetypes="ccccccccccc" />
      <path
         style="fill:#e8ae00;fill-opacity:1;stroke:#bf9200;stroke-width:0.050954;stroke-linecap:butt;stroke-linejoin:miter;stroke-miterlimit:4;stroke-dasharray:none;stroke-opacity:1"
         d="m 52.832808,-4.0929459 c 0.7412,-0.4635379 1.392437,-0.9660797 1.627956,-1.6488571 0.326862,0.712542 1.021705,0.9079734 1.615988,1.7200307 0.890933,-0.7588253 2.52454,-0.4717942 3.986101,-0.4270421 -0.796307,0.5098193 -1.190717,1.0362332 -1.220968,1.5776834 1.907907,0.075512 3.727486,0.3698488 5.254951,1.387887 -1.186575,0.2144003 -1.466771,0.69077633 -1.927214,1.11505431 1.008135,0.50543535 2.098324,0.92216534 2.429966,2.15893529 -1.023572,-0.0093 -1.301564,0.4739663 -1.951155,0.7117366 1.311022,0.5037936 1.28354,1.759231 1.723719,2.7520495 C 63.678547,5.044695 63.322236,5.551109 62.827987,5.76461 63.136061,7.2389514 63.486039,8.7498352 63.019512,9.5486763 62.640602,8.6753506 61.728076,8.6325408 61.152148,7.7218855 61.301014,9.24761 61.165354,10.536492 60.517724,11.399192 60.417339,10.33601 59.80212,9.655472 59.069321,9.0623235 59.056217,10.529457 58.287176,11.354493 57.632888,12.277 57.362835,11.495971 57.378713,10.670203 56.555563,9.9757179 c 0.107543,1.8444981 -1.351752,2.4040011 -2.070859,3.5705471 -0.595237,-1.161571 -2.069358,-2.148952 -1.532194,-3.53496 -0.769416,0.07943 -1.351974,0.806973 -1.867362,1.76748 -0.346115,-0.726657 -0.866686,-1.449294 0.10773,-2.2063842 C 49.75059,9.3158455 49.41876,10.29178 48.703063,10.841664 48.665237,10.076156 48.074397,9.3463872 49.397339,8.492934 48.379595,8.3787084 47.602138,8.8767864 46.799787,9.3114315 46.673957,8.2996799 47.195185,7.639566 48.056666,7.1643582 47.707097,6.0730739 46.327183,6.6840791 45.459116,6.7610411 45.962871,5.8812268 44.939117,4.7302975 47.33845,4.1869262 46.776829,2.8989263 45.817043,2.7946465 44.956366,2.3957221 c 0.490399,-1.077756 1.601376,-0.780853 2.60952,-0.7117372 -0.598156,-0.92796661 -1.68294,-1.15936811 -2.5377,-1.72003069 0.86754,-0.43550211 0.859599,-1.35097341 2.801046,-1.25740201 -0.165173,-0.6009626 -0.624959,-0.9895947 -1.137177,-1.3404376 1.0295,-0.3182885 2.016057,-0.9514848 3.196064,-0.1660719 0.02876,-0.6010431 -0.115904,-1.19768 -1.31673,-1.7674799 1.705139,-0.2906278 3.253491,-0.3340728 4.261419,0.4744913 z"
         id="path949"
         sodipodi:nodetypes="ccccccccccccccccccccccccccccccccccc" />
      <path
         style="fill:#ffce51;fill-opacity:0.967213;stroke:#e5ab44;stroke-width:0.050954;stroke-linecap:butt;stroke-linejoin:miter;stroke-miterlimit:4;stroke-dasharray:none;stroke-opacity:0.986339"
         d="m 49.947909,1.6043215 c -1.277077,-0.78764845 -0.822741,-2.9358293 -0.684396,-3.690345 1.003532,0.1250793 2.721073,-0.044255 3.413618,1.09250555 0.651591,-0.23026695 1.189806,0.44837973 2.142356,0.47826724 0.579697,0.0181885 1.361838,-0.86116479 2.274677,-0.43082032 2.111523,-1.16438287 2.103749,-0.93696387 3.502597,-0.69311667 0.286294,1.36685387 -0.198263,2.740378 -0.821256,3.2909562 0.277978,0.4386653 0.07705,1.6183394 0.321832,2.0764432 0.258118,0.4830629 0.958779,0.2464105 1.126571,0.782367 -0.189242,-0.049415 -0.3719,-0.076004 -0.538661,-0.047447 C 60.981348,4.819 61.077455,5.1748682 61.104206,5.5307363 60.911975,5.4117173 60.735889,5.3620253 60.577514,5.3883895 60.121539,7.2932613 58.586197,8.1404826 56.818848,8.4844449 55.017151,8.8350926 53.148756,8.9084279 51.539956,8.0218156 50.429563,7.3564031 49.326476,6.6855622 49.09802,5.364665 48.946397,5.3433712 48.794773,5.4469084 48.64315,5.5070118 48.733686,5.1515556 48.869316,4.8351991 49.050138,4.5580297 48.889465,4.450251 48.706074,4.4888122 48.523447,4.522442 48.692893,3.9739294 49.391942,4.0042499 49.671433,3.4685673 49.897574,3.0351356 49.691201,2.0341901 49.947909,1.6043215 Z"
         id="path946"
         sodipodi:nodetypes="cccscccsccccscccccsc" />
      <path
         style="fill:#ffb451;fill-opacity:1;stroke:#eb9d3a;stroke-width:0.0422611;stroke-linecap:butt;stroke-linejoin:miter;stroke-miterlimit:4;stroke-dasharray:none;stroke-opacity:1"
         d="m 50.524092,0.97615526 c 0.416968,-0.55863464 0.897309,-1.07062385 1.506159,-1.48802737 -1.351554,-0.76897449 -2.155726,-0.4839884 -2.155726,-0.4839884 -0.182176,0.35369157 0.135816,1.1356177 0.649567,1.97201577 z"
         id="path921"
         sodipodi:nodetypes="ccsc" />
      <path
         style="fill:#ffb451;fill-opacity:1;stroke:#eb9d3a;stroke-width:0.0397681;stroke-linecap:butt;stroke-linejoin:miter;stroke-miterlimit:4;stroke-dasharray:none;stroke-opacity:1"
         d="m 57.847324,-0.42631098 c 0.565826,0.38807463 1.025001,0.86774568 1.459953,1.36822203 0.332614,-0.21226104 0.375119,-1.19674625 0.345889,-1.90148834 -0.688844,0.1204943 -1.15915,-0.0733324 -1.805842,0.53326631 z"
         id="path923"
         sodipodi:nodetypes="cccc" />
      <ellipse
         style="fill:#000000;fill-opacity:1;stroke-width:0.0304168;stroke-linejoin:round;paint-order:markers fill stroke"
         id="path925"
         ry="0.66912925"
         rx="0.33625484"
         cy="3.100806"
         cx="53.36095" />
      <ellipse
         style="fill:#ffffff;stroke-width:0.0386949;stroke-linejoin:round;paint-order:markers fill stroke"
         id="path927"
         cx="52.273869"
         cy="-10.517202"
         rx="0.10983068"
         ry="0.20550354"
         transform="rotate(14.455394)" />
      <path
         style="fill:#000000;fill-opacity:1;stroke:#000000;stroke-width:0.050954;stroke-linecap:butt;stroke-linejoin:miter;stroke-miterlimit:4;stroke-dasharray:none;stroke-opacity:1"
         d="M 53.832263,5.3468711 C 53.447606,5.0942216 53.583668,4.740426 54.041743,4.5787889 54.523127,4.4089265 55.009752,4.3965448 55.4692,4.5046512 c 1.032514,0.2429451 0.595466,0.6525479 0.538661,0.7117373 -0.231587,0.2413047 -0.455449,0.3978846 -0.68829,0.5426987 -0.347144,0.2159043 -0.684164,0.115303 -0.972586,-0.074138 z"
         id="path933"
         sodipodi:nodetypes="sssssss" />
      <path
         style="fill:none;stroke:#000000;stroke-width:0.131119;stroke-linecap:round;stroke-linejoin:miter;stroke-miterlimit:4;stroke-dasharray:none;stroke-opacity:1"
         d="m 51.939884,5.7692167 c 0.965557,1.0067412 1.947663,0.8987941 2.940127,0.093058 1.45428,1.055727 2.201706,0.5787277 2.859303,-0.093058"
         id="path935"
         sodipodi:nodetypes="ccc" />
      <path
         style="fill:none;stroke:#000000;stroke-width:0.101908;stroke-linecap:round;stroke-linejoin:miter;stroke-miterlimit:4;stroke-dasharray:none;stroke-opacity:1"
         d="m 51.740996,5.2767508 1.321815,0.1893656"
         id="path937"
         sodipodi:nodetypes="cc" />
      <path
         style="fill:none;stroke:#000000;stroke-width:0.101908;stroke-linecap:round;stroke-linejoin:miter;stroke-miterlimit:4;stroke-dasharray:none;stroke-opacity:1"
         d="m 51.409251,6.0003118 1.79019,-0.2013101"
         id="path939" />
      <path
         style="fill:none;stroke:#000000;stroke-width:0.101908;stroke-linecap:round;stroke-linejoin:miter;stroke-miterlimit:4;stroke-dasharray:none;stroke-opacity:1"
         d="m 52.343098,6.5969419 0.994553,-0.45714"
         id="path941" />
      <path
         style="fill:none;stroke:#000000;stroke-width:0.101908;stroke-linecap:round;stroke-linejoin:miter;stroke-miterlimit:4;stroke-dasharray:none;stroke-opacity:1"
         d="m 56.652551,5.4500603 1.1825,-0.1600087"
         id="path943"
         sodipodi:nodetypes="cc" />
      <path
         style="fill:none;stroke:#000000;stroke-width:0.101908;stroke-linecap:round;stroke-linejoin:miter;stroke-miterlimit:4;stroke-dasharray:none;stroke-opacity:1"
         d="M 56.186436,5.8192516 57.92161,5.98701"
         id="path945" />
      <path
         style="fill:none;stroke:#000000;stroke-width:0.101908;stroke-linecap:round;stroke-linejoin:miter;stroke-miterlimit:4;stroke-dasharray:none;stroke-opacity:1"
         d="m 56.408062,6.1188317 0.960694,0.457141"
         id="path947" />
      <ellipse
         style="fill:#000000;fill-opacity:1;stroke-width:0.0304168;stroke-linejoin:round;paint-order:markers fill stroke"
         id="path925-4"
         ry="0.66912925"
         rx="0.33625484"
         cy="3.1011293"
         cx="56.070507" />
      <ellipse
         style="fill:#ffffff;stroke-width:0.0386949;stroke-linejoin:round;paint-order:markers fill stroke"
         id="path927-84"
         cx="54.875824"
         cy="-11.234107"
         rx="0.10983068"
         ry="0.20550354"
         transform="rotate(14.455394)" />
    </g>
  </g>
</svg>
