<?xml version="1.0" encoding="utf-8"?>
<!-- Generator: Adobe Illustrator 26.5.3, SVG Export Plug-In . SVG Version: 6.00 Build 0)  -->
<svg version="1.1"
	 id="svg8" xmlns:inkscape="http://www.inkscape.org/namespaces/inkscape" xmlns:sodipodi="http://sodipodi.sourceforge.net/DTD/sodipodi-0.dtd" xmlns:svg="http://www.w3.org/2000/svg" xmlns:rdf="http://www.w3.org/1999/02/22-rdf-syntax-ns#" xmlns:cc="http://creativecommons.org/ns#" xmlns:dc="http://purl.org/dc/elements/1.1/"
	 xmlns="http://www.w3.org/2000/svg" xmlns:xlink="http://www.w3.org/1999/xlink" x="0px" y="0px" viewBox="0 0 196 96.6"
	 style="enable-background:new 0 0 196 96.6;" xml:space="preserve">
<style type="text/css">
	.st0{fill:none;stroke:#BBBDBE;stroke-width:0.7507;stroke-miterlimit:11.3386;}
	.st1{fill:none;stroke:#BBBDBE;stroke-width:0.7512;stroke-miterlimit:11.3386;stroke-dasharray:0.7512,0.7512;}
	.st2{fill:none;stroke:#BBBDBE;stroke-width:0.7507;stroke-miterlimit:11.3386;stroke-dasharray:0.7507,0.7507;}
	.st3{fill:none;stroke:#BBBDBE;stroke-width:1.0888;stroke-miterlimit:11.3386;}
	.st4{font-family:'Helvetica';}
	.st5{font-size:4px;}
	.st6{fill:#3BA4E0;stroke:#2762D0;stroke-width:0.6651;stroke-linejoin:round;stroke-miterlimit:11.3386;}
	.st7{fill:#3BA4E0;stroke:#2762D0;stroke-width:0.6618;stroke-linejoin:round;stroke-miterlimit:11.3386;}
	.st8{fill:#3BA4E0;stroke:#2762D0;stroke-width:0.6638;stroke-linejoin:round;stroke-miterlimit:11.3386;}
	.st9{fill:#3BA4E0;stroke:#2762D0;stroke-width:0.6646;stroke-linejoin:round;stroke-miterlimit:11.3386;}
	.st10{fill:#3BA4E0;stroke:#2762D0;stroke-width:0.6652;stroke-linejoin:round;stroke-miterlimit:11.3386;}
</style>
<defs>
	<inkscape:path-effect  effect="spiro" id="path-effect1527" is_visible="true" lpeversion="1"></inkscape:path-effect>
	<inkscape:path-effect  effect="spiro" id="path-effect1503" is_visible="true" lpeversion="1"></inkscape:path-effect>
	<inkscape:path-effect  effect="spiro" id="path-effect1479" is_visible="true" lpeversion="1"></inkscape:path-effect>
	<inkscape:path-effect  effect="spiro" id="path-effect1455" is_visible="true" lpeversion="1"></inkscape:path-effect>
	<inkscape:path-effect  effect="spiro" id="path-effect1431" is_visible="true" lpeversion="1"></inkscape:path-effect>
	<inkscape:path-effect  effect="spiro" id="path-effect1407" is_visible="true" lpeversion="1"></inkscape:path-effect>
	<inkscape:path-effect  effect="spiro" id="path-effect1371" is_visible="true" lpeversion="1"></inkscape:path-effect>
	<inkscape:path-effect  effect="spiro" id="path-effect1347" is_visible="true" lpeversion="1"></inkscape:path-effect>
	<inkscape:path-effect  effect="spiro" id="path-effect1323" is_visible="true" lpeversion="1"></inkscape:path-effect>
	<inkscape:path-effect  effect="spiro" id="path-effect1299" is_visible="true" lpeversion="1"></inkscape:path-effect>
	<inkscape:path-effect  effect="spiro" id="path-effect1275" is_visible="true" lpeversion="1"></inkscape:path-effect>
	<inkscape:path-effect  effect="spiro" id="path-effect1251" is_visible="true" lpeversion="1"></inkscape:path-effect>
	<inkscape:path-effect  effect="spiro" id="path-effect1239" is_visible="true" lpeversion="1"></inkscape:path-effect>
	<inkscape:path-effect  effect="spiro" id="path-effect1215" is_visible="true" lpeversion="1"></inkscape:path-effect>
	<inkscape:path-effect  effect="spiro" id="path-effect1191" is_visible="true" lpeversion="1"></inkscape:path-effect>
	<inkscape:path-effect  effect="spiro" id="path-effect1179" is_visible="true" lpeversion="1"></inkscape:path-effect>
	<inkscape:path-effect  effect="spiro" id="path-effect1155" is_visible="true" lpeversion="1"></inkscape:path-effect>
	<inkscape:path-effect  effect="spiro" id="path-effect1143" is_visible="true" lpeversion="1"></inkscape:path-effect>
	<inkscape:path-effect  effect="spiro" id="path-effect1119" is_visible="true" lpeversion="1"></inkscape:path-effect>
	<inkscape:path-effect  effect="spiro" id="path-effect1095" is_visible="true" lpeversion="1"></inkscape:path-effect>
	<inkscape:path-effect  effect="spiro" id="path-effect1072" is_visible="true" lpeversion="1"></inkscape:path-effect>
	<inkscape:path-effect  effect="spiro" id="path-effect1068" is_visible="true" lpeversion="1"></inkscape:path-effect>
</defs>
<sodipodi:namedview  bordercolor="#666666" borderopacity="1.0" fit-margin-bottom="0" fit-margin-left="0" fit-margin-right="0" fit-margin-top="0" id="base" inkscape:current-layer="layer2" inkscape:cx="125.10373" inkscape:cy="66.981356" inkscape:document-rotation="0" inkscape:document-units="mm" inkscape:pageopacity="0.0" inkscape:pageshadow="2" inkscape:window-height="986" inkscape:window-maximized="1" inkscape:window-width="1920" inkscape:window-x="-11" inkscape:window-y="-11" inkscape:zoom="4" pagecolor="#ffffff" showgrid="false">
	</sodipodi:namedview>
<g id="layer1" transform="translate(-98.172329,-8)" inkscape:groupmode="layer" inkscape:label="Ebene 1">
	<path id="path1070" inkscape:original-d="M 100.12821,8 V 40" inkscape:path-effect="#path-effect1072" class="st0" d="M103.7,8
		v90.7"/>
	<path id="path1070-5" inkscape:original-d="M 103.62783,8 V 40" inkscape:path-effect="#path-effect1095" class="st1" d="M113.6,8
		v90.7"/>
	<path id="path1070-5-9" inkscape:original-d="M 107.12783,8 V 40" inkscape:path-effect="#path-effect1119" class="st1" d="
		M123.6,8v90.7"/>
	<path id="path1070-5-9-2" inkscape:original-d="M 110.62783,8 V 40" inkscape:path-effect="#path-effect1143" class="st1" d="
		M133.5,8v90.7"/>
	<path id="path1070-5-9-9" inkscape:original-d="M 128.12775,8 V 40" inkscape:path-effect="#path-effect1155" class="st0" d="
		M183.1,8v90.7"/>
	<path id="path1070-5-9-9-6" inkscape:original-d="M 117.62775,8 V 40" inkscape:path-effect="#path-effect1179" class="st2" d="
		M153.3,8v90.7"/>
	<path id="path1070-5-9-9-0" inkscape:original-d="M 114.12775,8 V 40" inkscape:path-effect="#path-effect1191" class="st0" d="
		M143.4,8v90.7"/>
	<path id="path1070-5-9-9-0-2" inkscape:original-d="M 121.12775,8 V 40" inkscape:path-effect="#path-effect1215" class="st2" d="
		M163.2,8v90.7"/>
	
		<path id="path1070-5-9-9-0-2-0" inkscape:original-d="M 131.62775,8 V 40" inkscape:path-effect="#path-effect1239" class="st2" d="
		M193,8v90.7"/>
	
		<path id="path1070-5-9-9-0-2-7" inkscape:original-d="M 124.62775,8 V 40" inkscape:path-effect="#path-effect1251" class="st2" d="
		M173.2,8v90.7"/>
	
		<path id="path1070-5-9-9-0-2-7-5" inkscape:original-d="M 135.12775,8 V 40" inkscape:path-effect="#path-effect1275" class="st2" d="
		M202.9,8v90.7"/>
	
		<path id="path1070-5-9-9-0-2-7-5-1" inkscape:original-d="M 138.62775,8 V 40" inkscape:path-effect="#path-effect1299" class="st2" d="
		M212.8,8v90.7"/>
	
		<path id="path1070-5-9-9-0-2-7-5-1-2" inkscape:original-d="M 142.12775,8 V 40" inkscape:path-effect="#path-effect1323" class="st0" d="
		M222.8,8v90.7"/>
	
		<path id="path1070-5-9-9-0-2-7-5-1-2-1" inkscape:original-d="M 145.62775,8 V 40" inkscape:path-effect="#path-effect1347" class="st2" d="
		M232.7,8v90.7"/>
	
		<path id="path1070-5-9-9-0-2-7-5-1-2-1-6" inkscape:original-d="M 149.12775,8 V 40" inkscape:path-effect="#path-effect1371" class="st2" d="
		M242.6,8v90.7"/>
	
		<path id="path1070-5-9-9-0-2-7-5-1-2-1-6-5" inkscape:original-d="M 152.62775,8 V 40" inkscape:path-effect="#path-effect1407" class="st2" d="
		M252.5,8v90.7"/>
	
		<path id="path1070-5-9-9-0-2-7-5-1-2-1-6-5-4" inkscape:original-d="M 156.12775,8 V 40" inkscape:path-effect="#path-effect1431" class="st0" d="
		M262.5,8v90.7"/>
	
		<path id="path1070-5-9-9-0-2-7-5-1-2-1-6-5-4-1" inkscape:original-d="M 159.62775,8 V 40" inkscape:path-effect="#path-effect1455" class="st2" d="
		M272.4,8v90.7"/>
	
		<path id="path1070-5-9-9-0-2-7-5-1-2-1-6-5-4-1-2" inkscape:original-d="M 163.12775,8 V 40" inkscape:path-effect="#path-effect1479" class="st2" d="
		M282.3,8v90.7"/>
	
		<path id="path1070-5-9-9-0-2-7-5-1-2-1-6-5-4-1-2-2" inkscape:original-d="M 166.62375,8 V 40" inkscape:path-effect="#path-effect1503" class="st2" d="
		M292.2,8v90.7"/>
	
		<path id="path1070-9" inkscape:original-d="M 167.30744,39.908911 H 99.994289" inkscape:path-effect="#path-effect1527" class="st3" d="
		M294.1,98.5H103.3"/>
	<text transform="matrix(1 0 0 1 97.6284 104.5098)" class="st4 st5">10:00</text>
	<text transform="matrix(1 0 0 1 137.5229 104.5098)" class="st4 st5">11:00</text>
	<text transform="matrix(1 0 0 1 177.226 104.5117)" class="st4 st5">12:00</text>
	<text transform="matrix(1 0 0 1 216.8081 104.5117)" class="st4 st5">13:00</text>
	<text transform="matrix(1 0 0 1 256.5893 104.5098)" class="st4 st5">14:00</text>
</g>
<g id="layer2" transform="translate(-98.172329,-8)" inkscape:groupmode="layer" inkscape:label="Ebene 2">
	<polygon id="rect833" class="st6" points="103.7,14 152.6,14 152.6,14 152.6,19 152.6,19 103.7,19 103.7,19 103.7,14 	"/>
	<polygon id="rect833-9" class="st7" points="143.4,30.9 162.5,30.9 162.5,30.9 162.5,36.1 162.5,36.1 143.4,36.1 143.4,36.1 
		143.4,30.9 	"/>
	<polygon id="rect833-9-1" class="st8" points="113.6,22.4 142.7,22.4 142.7,22.4 142.7,27.6 142.7,27.6 113.6,27.6 113.6,27.6 
		113.6,22.4 	"/>
	<polygon id="rect833-9-16" class="st8" points="153.3,39.4 182.4,39.4 182.4,39.4 182.4,44.6 182.4,44.6 153.3,44.6 153.3,44.6 
		153.3,39.4 	"/>
	<polygon id="rect833-9-16-0" class="st8" points="163.2,47.9 192.3,47.9 192.3,47.9 192.3,53.1 192.3,53.1 163.2,53.1 163.2,53.1 
		163.2,47.9 	"/>
	<polygon id="rect833-9-16-0-0" class="st9" points="163.2,56.5 202.2,56.5 202.2,56.5 202.2,61.6 202.2,61.6 163.2,61.6 
		163.2,61.6 163.2,56.5 	"/>
	<polygon id="rect833-9-16-0-0-3" class="st10" points="183,65 241.9,65 241.9,65 241.9,70 241.9,70 183,70 183,70 183,65 	"/>
	<polygon id="rect833-9-16-0-0-3-1" class="st9" points="202.9,73.5 241.9,73.5 241.9,73.5 241.9,78.6 241.9,78.6 202.9,78.6 
		202.9,78.6 202.9,73.5 	"/>
	<polygon id="rect833-9-16-0-0-3-1-4" class="st8" points="232.6,82 261.7,82 261.7,82 261.7,87.1 261.7,87.1 232.6,87.1 
		232.6,87.1 232.6,82 	"/>
	<polygon id="rect833-9-16-0-0-3-1-4-2" class="st9" points="252.5,90.5 291.5,90.5 291.5,90.5 291.5,95.6 291.5,95.6 252.5,95.6 
		252.5,95.6 252.5,90.5 	"/>
	<text transform="matrix(1 0 0 1 156.7885 43.4473)" class="st4 st5">pony riding</text>
	<text transform="matrix(1 0 0 1 194.0766 68.7676)" class="st4 st5">elephant showering</text>
	<text transform="matrix(1 0 0 1 168.8706 51.8848)" class="st4 st5">seal show</text>
	<text transform="matrix(1 0 0 1 107.9155 17.7617)" class="st4 st5">aquarium light show</text>
	<text transform="matrix(1 0 0 1 208.6284 77.4492)" class="st4 st5">hippo feeding</text>
	<text transform="matrix(1 0 0 1 170.1977 60.3008)" class="st4 st5">koala feeding</text>
	<text transform="matrix(1 0 0 1 236.0092 85.627)" class="st4 st5">tiger show</text>
	<text transform="matrix(1 0 0 1 256.353 94.0898)" class="st4 st5">monkey training</text>
	<text transform="matrix(1 0 0 1 116.5747 26.4746)" class="st4 st5">Africa safari</text>
	<text transform="matrix(1 0 0 1 145.4467 34.9453)" class="st4 st5">crafting</text>
</g>
</svg>
