<?xml version="1.0" encoding="utf-8"?>
<!-- Generator: Adobe Illustrator 26.5.3, SVG Export Plug-In . SVG Version: 6.00 Build 0)  -->
<svg version="1.1"
	 id="svg8" xmlns:inkscape="http://www.inkscape.org/namespaces/inkscape" xmlns:sodipodi="http://sodipodi.sourceforge.net/DTD/sodipodi-0.dtd" xmlns:svg="http://www.w3.org/2000/svg" xmlns:rdf="http://www.w3.org/1999/02/22-rdf-syntax-ns#" xmlns:cc="http://creativecommons.org/ns#" xmlns:dc="http://purl.org/dc/elements/1.1/"
	 xmlns="http://www.w3.org/2000/svg" xmlns:xlink="http://www.w3.org/1999/xlink" x="0px" y="0px" viewBox="0 0 196 97.3"
	 style="enable-background:new 0 0 196 97.3;" xml:space="preserve">
<style type="text/css">
	.st0{fill:none;stroke:#BBBDBE;stroke-width:0.7507;stroke-miterlimit:11.3386;}
	.st1{fill:none;stroke:#BBBDBE;stroke-width:0.7512;stroke-miterlimit:11.3386;stroke-dasharray:0.7512,0.7512;}
	.st2{fill:none;stroke:#BBBDBE;stroke-width:0.7507;stroke-miterlimit:11.3386;stroke-dasharray:0.7507,0.7507;}
	.st3{fill:none;stroke:#BBBDBE;stroke-width:1.0888;stroke-miterlimit:11.3386;}
	.st4{font-family:'Helvetica';}
	.st5{font-size:4px;}
	.st6{fill:#CCCCCC;stroke:#AAAAAA;stroke-width:0.6651;stroke-linejoin:round;stroke-miterlimit:11.3386;}
	.st7{fill:#3BA4E0;stroke:#2762D0;stroke-width:0.6618;stroke-linejoin:round;stroke-miterlimit:11.3386;}
	.st8{fill:#3BA4E0;stroke:#2762D0;stroke-width:0.6638;stroke-linejoin:round;stroke-miterlimit:11.3386;}
	.st9{fill:#CCCCCC;stroke:#AAAAAA;stroke-width:0.6638;stroke-linejoin:round;stroke-miterlimit:11.3386;}
	.st10{fill:#CCCCCC;stroke:#AAAAAA;stroke-width:0.6646;stroke-linejoin:round;stroke-miterlimit:11.3386;}
	.st11{fill:#CCCCCC;stroke:#AAAAAA;stroke-width:0.6652;stroke-linejoin:round;stroke-miterlimit:11.3386;}
	.st12{fill:#3BA4E0;stroke:#2762D0;stroke-width:0.6646;stroke-linejoin:round;stroke-miterlimit:11.3386;}
	.st13{fill:none;stroke:#2762D0;stroke-width:0.6618;stroke-linejoin:round;}
	.st14{fill:#2762D0;}
</style>
<defs>
	<inkscape:path-effect  effect="spiro" id="path-effect538" is_visible="true" lpeversion="1"></inkscape:path-effect>
	<inkscape:path-effect  effect="spiro" id="path-effect536" is_visible="true" lpeversion="1"></inkscape:path-effect>
	<inkscape:path-effect  effect="spiro" id="path-effect534" is_visible="true" lpeversion="1"></inkscape:path-effect>
	<inkscape:path-effect  effect="spiro" id="path-effect532" is_visible="true" lpeversion="1"></inkscape:path-effect>
	<inkscape:path-effect  effect="spiro" id="path-effect530" is_visible="true" lpeversion="1"></inkscape:path-effect>
	<inkscape:path-effect  effect="spiro" id="path-effect528" is_visible="true" lpeversion="1"></inkscape:path-effect>
	<inkscape:path-effect  effect="spiro" id="path-effect526" is_visible="true" lpeversion="1"></inkscape:path-effect>
	<inkscape:path-effect  effect="spiro" id="path-effect524" is_visible="true" lpeversion="1"></inkscape:path-effect>
	<inkscape:path-effect  effect="spiro" id="path-effect522" is_visible="true" lpeversion="1"></inkscape:path-effect>
	<inkscape:path-effect  effect="spiro" id="path-effect520" is_visible="true" lpeversion="1"></inkscape:path-effect>
	<inkscape:path-effect  effect="spiro" id="path-effect518" is_visible="true" lpeversion="1"></inkscape:path-effect>
	<inkscape:path-effect  effect="spiro" id="path-effect516" is_visible="true" lpeversion="1"></inkscape:path-effect>
	<inkscape:path-effect  effect="spiro" id="path-effect514" is_visible="true" lpeversion="1"></inkscape:path-effect>
	<inkscape:path-effect  effect="spiro" id="path-effect512" is_visible="true" lpeversion="1"></inkscape:path-effect>
	<inkscape:path-effect  effect="spiro" id="path-effect510" is_visible="true" lpeversion="1"></inkscape:path-effect>
	<inkscape:path-effect  effect="spiro" id="path-effect508" is_visible="true" lpeversion="1"></inkscape:path-effect>
	<inkscape:path-effect  effect="spiro" id="path-effect506" is_visible="true" lpeversion="1"></inkscape:path-effect>
	<inkscape:path-effect  effect="spiro" id="path-effect504" is_visible="true" lpeversion="1"></inkscape:path-effect>
	<inkscape:path-effect  effect="spiro" id="path-effect502" is_visible="true" lpeversion="1"></inkscape:path-effect>
	<inkscape:path-effect  effect="spiro" id="path-effect500" is_visible="true" lpeversion="1"></inkscape:path-effect>
	<inkscape:path-effect  effect="spiro" id="path-effect498" is_visible="true" lpeversion="1"></inkscape:path-effect>
	<inkscape:path-effect  effect="spiro" id="path-effect1527" is_visible="true" lpeversion="1"></inkscape:path-effect>
	<inkscape:path-effect  effect="spiro" id="path-effect1503" is_visible="true" lpeversion="1"></inkscape:path-effect>
	<inkscape:path-effect  effect="spiro" id="path-effect1479" is_visible="true" lpeversion="1"></inkscape:path-effect>
	<inkscape:path-effect  effect="spiro" id="path-effect1455" is_visible="true" lpeversion="1"></inkscape:path-effect>
	<inkscape:path-effect  effect="spiro" id="path-effect1431" is_visible="true" lpeversion="1"></inkscape:path-effect>
	<inkscape:path-effect  effect="spiro" id="path-effect1407" is_visible="true" lpeversion="1"></inkscape:path-effect>
	<inkscape:path-effect  effect="spiro" id="path-effect1371" is_visible="true" lpeversion="1"></inkscape:path-effect>
	<inkscape:path-effect  effect="spiro" id="path-effect1347" is_visible="true" lpeversion="1"></inkscape:path-effect>
	<inkscape:path-effect  effect="spiro" id="path-effect1323" is_visible="true" lpeversion="1"></inkscape:path-effect>
	<inkscape:path-effect  effect="spiro" id="path-effect1299" is_visible="true" lpeversion="1"></inkscape:path-effect>
	<inkscape:path-effect  effect="spiro" id="path-effect1275" is_visible="true" lpeversion="1"></inkscape:path-effect>
	<inkscape:path-effect  effect="spiro" id="path-effect1251" is_visible="true" lpeversion="1"></inkscape:path-effect>
	<inkscape:path-effect  effect="spiro" id="path-effect1239" is_visible="true" lpeversion="1"></inkscape:path-effect>
	<inkscape:path-effect  effect="spiro" id="path-effect1215" is_visible="true" lpeversion="1"></inkscape:path-effect>
	<inkscape:path-effect  effect="spiro" id="path-effect1191" is_visible="true" lpeversion="1"></inkscape:path-effect>
	<inkscape:path-effect  effect="spiro" id="path-effect1179" is_visible="true" lpeversion="1"></inkscape:path-effect>
	<inkscape:path-effect  effect="spiro" id="path-effect1155" is_visible="true" lpeversion="1"></inkscape:path-effect>
	<inkscape:path-effect  effect="spiro" id="path-effect1143" is_visible="true" lpeversion="1"></inkscape:path-effect>
	<inkscape:path-effect  effect="spiro" id="path-effect1119" is_visible="true" lpeversion="1"></inkscape:path-effect>
	<inkscape:path-effect  effect="spiro" id="path-effect1095" is_visible="true" lpeversion="1"></inkscape:path-effect>
	<inkscape:path-effect  effect="spiro" id="path-effect1072" is_visible="true" lpeversion="1"></inkscape:path-effect>
	<inkscape:path-effect  effect="spiro" id="path-effect1068" is_visible="true" lpeversion="1"></inkscape:path-effect>
</defs>
<sodipodi:namedview  bordercolor="#666666" borderopacity="1.0" fit-margin-bottom="0" fit-margin-left="0" fit-margin-right="0" fit-margin-top="0" id="base" inkscape:current-layer="layer1" inkscape:cx="12.220967" inkscape:cy="95.259004" inkscape:document-rotation="0" inkscape:document-units="mm" inkscape:pageopacity="0.0" inkscape:pageshadow="2" inkscape:window-height="986" inkscape:window-maximized="1" inkscape:window-width="1920" inkscape:window-x="-11" inkscape:window-y="-11" inkscape:zoom="2" pagecolor="#ffffff" showgrid="false" showguides="false">
	</sodipodi:namedview>
<g id="layer3" transform="translate(-71.000572,11.042502)" inkscape:groupmode="layer" inkscape:label="Ebene 0">
</g>
<g id="layer1" transform="translate(-169.1729,3.042502)" inkscape:groupmode="layer" inkscape:label="Ebene 1">
	<path id="path1070-3" inkscape:original-d="m 171.12878,-3.042502 v 32" inkscape:path-effect="#path-effect498" class="st0" d="
		M174.8-3v90.7"/>
	<path id="path1070-5-7" inkscape:original-d="m 174.6284,-3.042502 v 32" inkscape:path-effect="#path-effect500" class="st1" d="
		M184.8-3v90.7"/>
	
		<path id="path1070-5-9-1" inkscape:original-d="m 178.1284,-3.042502 v 32" inkscape:path-effect="#path-effect502" class="st1" d="
		M194.7-3v90.7"/>
	
		<path id="path1070-5-9-2-7" inkscape:original-d="m 181.6284,-3.042502 v 32" inkscape:path-effect="#path-effect504" class="st1" d="
		M204.6-3v90.7"/>
	
		<path id="path1070-5-9-9-64" inkscape:original-d="m 199.12832,-3.042502 v 32" inkscape:path-effect="#path-effect506" class="st0" d="
		M254.2-3v90.7"/>
	
		<path id="path1070-5-9-9-6-5" inkscape:original-d="m 188.62832,-3.042502 v 32" inkscape:path-effect="#path-effect508" class="st2" d="
		M224.5-3v90.7"/>
	
		<path id="path1070-5-9-9-0-22" inkscape:original-d="m 185.12832,-3.042502 v 32" inkscape:path-effect="#path-effect510" class="st0" d="
		M214.5-3v90.7"/>
	
		<path id="path1070-5-9-9-0-2-2" inkscape:original-d="m 192.12832,-3.042502 v 32" inkscape:path-effect="#path-effect512" class="st2" d="
		M234.4-3v90.7"/>
	
		<path id="path1070-5-9-9-0-2-0-7" inkscape:original-d="m 202.62832,-3.042502 v 32" inkscape:path-effect="#path-effect514" class="st2" d="
		M264.1-3v90.7"/>
	
		<path id="path1070-5-9-9-0-2-7-3" inkscape:original-d="m 195.62832,-3.042502 v 32" inkscape:path-effect="#path-effect516" class="st2" d="
		M244.3-3v90.7"/>
	
		<path id="path1070-5-9-9-0-2-7-5-7" inkscape:original-d="m 206.12832,-3.042502 v 32" inkscape:path-effect="#path-effect518" class="st2" d="
		M274.1-3v90.7"/>
	
		<path id="path1070-5-9-9-0-2-7-5-1-21" inkscape:original-d="m 209.62832,-3.042502 v 32" inkscape:path-effect="#path-effect520" class="st2" d="
		M284-3v90.7"/>
	
		<path id="path1070-5-9-9-0-2-7-5-1-2-2" inkscape:original-d="m 213.12832,-3.042502 v 32" inkscape:path-effect="#path-effect522" class="st0" d="
		M293.9-3v90.7"/>
	
		<path id="path1070-5-9-9-0-2-7-5-1-2-1-1" inkscape:original-d="m 216.62832,-3.042502 v 32" inkscape:path-effect="#path-effect524" class="st2" d="
		M303.8-3v90.7"/>
	
		<path id="path1070-5-9-9-0-2-7-5-1-2-1-6-4" inkscape:original-d="m 220.12832,-3.042502 v 32" inkscape:path-effect="#path-effect526" class="st2" d="
		M313.7-3v90.7"/>
	
		<path id="path1070-5-9-9-0-2-7-5-1-2-1-6-5-8" inkscape:original-d="m 223.62832,-3.042502 v 32" inkscape:path-effect="#path-effect528" class="st2" d="
		M323.7-3v90.7"/>
	
		<path id="path1070-5-9-9-0-2-7-5-1-2-1-6-5-4-6" inkscape:original-d="m 227.12832,-3.042502 v 32" inkscape:path-effect="#path-effect530" class="st0" d="
		M333.6-3v90.7"/>
	
		<path id="path1070-5-9-9-0-2-7-5-1-2-1-6-5-4-1-0" inkscape:original-d="m 230.62832,-3.042502 v 32" inkscape:path-effect="#path-effect532" class="st2" d="
		M343.5-3v90.7"/>
	
		<path id="path1070-5-9-9-0-2-7-5-1-2-1-6-5-4-1-2-8" inkscape:original-d="m 234.12832,-3.042502 v 32" inkscape:path-effect="#path-effect534" class="st2" d="
		M353.4-3v90.7"/>
	
		<path id="path1070-5-9-9-0-2-7-5-1-2-1-6-5-4-1-2-2-4" inkscape:original-d="m 237.62432,-3.042502 v 32" inkscape:path-effect="#path-effect536" class="st2" d="
		M363.3-3v90.7"/>
	
		<path id="path1070-9-4" inkscape:original-d="M 238.30801,28.866409 H 170.99486" inkscape:path-effect="#path-effect538" class="st3" d="
		M365.3,87.4H174.5"/>
	<text transform="matrix(1 0 0 1 168.7613 93.4897)" class="st4 st5">10:00</text>
	<text transform="matrix(1 0 0 1 208.6558 93.4897)" class="st4 st5">11:00</text>
	<text transform="matrix(1 0 0 1 248.3589 93.4916)" class="st4 st5">12:00</text>
	<text transform="matrix(1 0 0 1 287.9409 93.4916)" class="st4 st5">13:00</text>
	<text transform="matrix(1 0 0 1 327.7222 93.4897)" class="st4 st5">14:00</text>
	<polygon id="rect833-1" class="st6" points="174.8,3 223.8,3 223.8,3 223.8,8 223.8,8 174.8,8 174.8,8 	"/>
	<polygon id="rect833-9-5" class="st7" points="214.5,19.9 233.7,19.9 233.7,19.9 233.7,25.1 233.7,25.1 214.5,25.1 214.5,25.1 	"/>
	<polygon id="rect833-9-1-7" class="st8" points="184.7,11.4 213.8,11.4 213.8,11.4 213.8,16.6 213.8,16.6 184.7,16.6 184.7,16.6 	
		"/>
	<polygon id="rect833-9-16-2" class="st9" points="224.4,28.4 253.5,28.4 253.5,28.4 253.5,33.6 253.5,33.6 224.4,33.6 224.4,33.6 	
		"/>
	<polygon id="rect833-9-16-0-2" class="st8" points="234.3,36.9 263.4,36.9 263.4,36.9 263.4,42.1 263.4,42.1 234.3,42.1 
		234.3,42.1 	"/>
	<polygon id="rect833-9-16-0-0-9" class="st10" points="234.3,45.5 273.4,45.5 273.4,45.5 273.4,50.5 273.4,50.5 234.3,50.5 
		234.3,50.5 	"/>
	<polygon id="rect833-9-16-0-0-3-6" class="st11" points="254.2,54 313,54 313,54 313,59 313,59 254.2,59 254.2,59 	"/>
	<polygon id="rect833-9-16-0-0-3-1-40" class="st12" points="274,62.5 313,62.5 313,62.5 313,67.6 313,67.6 274,67.6 274,67.6 	"/>
	<polygon id="rect833-9-16-0-0-3-1-4-0" class="st9" points="303.8,70.9 332.9,70.9 332.9,70.9 332.9,76.1 332.9,76.1 303.8,76.1 
		303.8,76.1 	"/>
	<polygon id="rect833-9-16-0-0-3-1-4-2-2" class="st12" points="323.6,79.5 358.2,79.5 358.2,79.5 358.2,84.6 358.2,84.6 
		323.6,84.6 323.6,84.6 	"/>
	<text transform="matrix(1 0 0 1 227.9214 32.4272)" class="st4 st5">pony riding</text>
	<text transform="matrix(1 0 0 1 265.2095 57.7475)" class="st4 st5">elephant showering</text>
	<text transform="matrix(1 0 0 1 240.0034 40.8647)" class="st4 st5">seal show</text>
	<text transform="matrix(1 0 0 1 179.0484 6.7416)" class="st4 st5">aquarium light show</text>
	<text transform="matrix(1 0 0 1 279.7613 66.4291)" class="st4 st5">hippo feeding</text>
	<text transform="matrix(1 0 0 1 241.3306 49.2807)" class="st4 st5">koala feeding</text>
	<text transform="matrix(1 0 0 1 307.1421 74.6068)" class="st4 st5">tiger show</text>
	<text transform="matrix(1 0 0 1 327.4859 83.0697)" class="st4 st5">monkey training</text>
	<text transform="matrix(1 0 0 1 187.7076 15.4545)" class="st4 st5">Africa safari</text>
	<text transform="matrix(1 0 0 1 216.5796 23.9252)" class="st4 st5">crafting</text>
	<g>
		<g>
			<path class="st13" d="M358.2,82c1.3,0,2.3,0,3.1,0"/>
			<g>
				<polygon class="st14" points="363.2,82 360.5,83.1 361.2,82 360.5,80.9 				"/>
			</g>
		</g>
	</g>
</g>
<g id="layer2" transform="translate(-169.1729,3.042502)" inkscape:groupmode="layer" inkscape:label="Ebene 2">
</g>
<g>
	<g>
		<path class="st13" d="M44.8,16.9c8,0-7.8,7.4-1.7,8.5"/>
		<g>
			<polygon class="st14" points="45,25.5 42.3,26.4 43,25.3 42.4,24.2 			"/>
		</g>
	</g>
</g>
<g>
	<g>
		<path class="st13" d="M64.7,25.5c8.1,0-9.8,15-1.9,16.8"/>
		<g>
			<polygon class="st14" points="64.8,42.5 62,43.3 62.7,42.3 62.2,41.1 			"/>
		</g>
	</g>
</g>
<g>
	<g>
		<path class="st13" d="M2.6,8c1.2,2.5,0.3,8.1,10.6,8.7"/>
		<g>
			<polygon class="st14" points="15.2,16.8 12.4,17.8 13.1,16.7 12.5,15.6 			"/>
		</g>
	</g>
</g>
<g>
	<g>
		<path class="st13" d="M94.5,42.6c8.2,0-1.3,22.6,7.9,25.2"/>
		<g>
			<polygon class="st14" points="104.3,68 101.5,68.7 102.3,67.7 101.8,66.5 			"/>
		</g>
	</g>
</g>
<g>
	<g>
		<path class="st13" d="M144.2,68.1c8.2,0-1.3,15.2,7.9,17"/>
		<g>
			<polygon class="st14" points="154,85.2 151.2,86.1 152,85 151.5,83.9 			"/>
		</g>
	</g>
</g>
</svg>
