<?xml version="1.0" encoding="UTF-8"?>
<!--?xml version="1.0" encoding="UTF-8"?-->
<svg id="svg194" width="2723.9" height="1556.5" version="1.1" viewBox="100 500 2723.9 1556.5" xmlns="http://www.w3.org/2000/svg">
 <g id="g132" class="csvg-ignore">
  <path id="path2" d="m100 500v1556.5h2723.9v-1556.5z" style="stroke-width:3.8913"/>
  <rect id="rect4" x="2050.8" y="894.27" width="378.86" height="378.86" style="fill:#d7dde8;stroke-width:3.8913"/>
  <rect id="rect6" x="883.41" y="1283.4" width="378.86" height="378.86" style="fill:#ffffff;stroke-width:3.8913"/>
  <rect id="rect8" x="2050.8" y="505.14" width="378.86" height="378.86" style="fill:#d7dde8;stroke-width:3.8913"/>
  <rect id="rect10" x="2050.8" y="1283.4" width="378.86" height="378.86" style="fill:#d7dde8;stroke-width:3.8913"/>
  <rect id="rect12" x="1661.7" y="1283.4" width="378.86" height="378.86" style="fill:#d7dde8;stroke-width:3.8913"/>
  <rect id="rect14" x="1661.7" y="1672.5" width="378.86" height="378.86" style="fill:#d7dde8;stroke-width:3.8913"/>
  <rect id="rect16" x="1272.5" y="1672.5" width="378.86" height="378.86" style="fill:#d7dde8;stroke-width:3.8913"/>
  <rect id="rect18" x="883.41" y="1672.5" width="378.86" height="378.86" style="fill:#d7dde8;stroke-width:3.8913"/>
  <rect id="rect20" x="494.27" y="1672.5" width="378.86" height="378.86" style="fill:#d7dde8;stroke-width:3.8913"/>
  <rect id="rect22" x="494.27" y="1283.4" width="378.86" height="378.86" style="fill:#d7dde8;stroke-width:3.8913"/>
  <rect id="rect24" x="494.27" y="894.27" width="378.86" height="378.86" style="fill:#d7dde8;stroke-width:3.8913"/>
  <rect id="rect26" x="105.14" y="1283.4" width="378.86" height="378.86" style="fill:#ffffff;stroke-width:3.8913"/>
  <rect id="rect28" x="105.14" y="1672.5" width="378.86" height="378.86" style="fill:#ffffff;stroke-width:3.8913"/>
  <rect id="rect30" x="1272.5" y="505.14" width="378.86" height="378.86" style="fill:#ffffff;stroke-width:3.8913"/>
  <rect id="rect32" x="1272.5" y="894.27" width="378.86" height="378.86" style="fill:#ffffff;stroke-width:3.8913"/>
  <rect id="rect34" x="1272.5" y="1283.4" width="378.86" height="378.86" style="fill:#ffffff;stroke-width:3.8913"/>
  <rect id="rect36" x="1661.7" y="894.27" width="378.86" height="378.86" style="fill:#ffffff;stroke-width:3.8913"/>
  <rect id="rect38" x="1661.7" y="505.14" width="378.86" height="378.86" style="fill:#ffffff;stroke-width:3.8913"/>
  <rect id="rect40" x="2050.8" y="1672.5" width="378.86" height="378.86" style="fill:#ffffff;stroke-width:3.8913"/>
  <rect id="rect42" x="2439.9" y="1672.5" width="378.86" height="378.86" style="fill:#ffffff;stroke-width:3.8913"/>
  <rect id="rect44" x="2439.9" y="1283.4" width="378.86" height="378.86" style="fill:#ffffff;stroke-width:3.8913"/>
  <rect id="rect46" x="2439.9" y="894.27" width="378.86" height="378.86" style="fill:#ffffff;stroke-width:3.8913"/>
  <rect id="rect48" x="2439.9" y="505.14" width="378.86" height="378.86" style="fill:#ffffff;stroke-width:3.8913"/>
  <path id="path50" d="m2378.9 834.29v84.345h25.87l-35.835 54.35-35.835-54.35h25.866v-84.345z" style="-inkscape-stroke:none;fill:#000080;font-variation-settings:normal;stop-color:#000000;stroke-miterlimit:2;stroke-width:.52846"/>
  <path id="path52" d="m2378.9 1223.4v84.345h25.87l-35.835 54.35-35.835-54.35h25.866v-84.345z" style="-inkscape-stroke:none;fill:#000080;font-variation-settings:normal;stop-color:#000000;stroke-miterlimit:2;stroke-width:.52846"/>
  <path id="path54" d="m1989.8 1612.6v84.345h25.87l-35.835 54.35-35.835-54.35h25.866v-84.345z" style="-inkscape-stroke:none;fill:#000080;font-variation-settings:normal;stop-color:#000000;stroke-miterlimit:2;stroke-width:.52846"/>
  <path id="path56" d="m802.48 1720.1v-84.345h-25.87l35.835-54.35 35.835 54.35h-25.866v84.345z" style="-inkscape-stroke:none;fill:#000080;font-variation-settings:normal;stop-color:#000000;stroke-miterlimit:2;stroke-width:.52846"/>
  <path id="path58" d="m802.48 1331v-84.345h-25.87l35.835-54.35 35.835 54.35h-25.866v84.345z" style="-inkscape-stroke:none;fill:#000080;font-variation-settings:normal;stop-color:#000000;stroke-miterlimit:2;stroke-width:.52846"/>
  <path id="path60" d="m934.66 2e3h-84.345v25.87l-54.35-35.835 54.35-35.835v25.866h84.345z" style="-inkscape-stroke:none;fill:#000080;font-variation-settings:normal;stop-color:#000000;stroke-miterlimit:2;stroke-width:.52846"/>
  <path id="path62" d="m1323.8 2e3h-84.345v25.87l-54.35-35.835 54.35-35.835v25.866h84.345z" style="-inkscape-stroke:none;fill:#000080;font-variation-settings:normal;stop-color:#000000;stroke-miterlimit:2;stroke-width:.52846"/>
  <path id="path64" d="m1712.9 2e3h-84.345v25.87l-54.35-35.835 54.35-35.835v25.866h84.345z" style="-inkscape-stroke:none;fill:#000080;font-variation-settings:normal;stop-color:#000000;stroke-miterlimit:2;stroke-width:.52846"/>
  <path id="path66" d="m2094.7 1347h-84.345v25.87l-54.35-35.835 54.35-35.835v25.866h84.345z" style="-inkscape-stroke:none;fill:#000080;font-variation-settings:normal;stop-color:#000000;stroke-miterlimit:2;stroke-width:.52846"/>
  <path id="path68" d="m2234.4 952.79c-26.775 37.684-10.586 87.258-20.062 123.65-15.234 9.3726-27.446-47.663-23.406-57.94 0 0-21.689 54.144-13.968 73.599 3.3824 8.6109 10.509 38.02 10.509 38.02-15.156-10.586-15.957-31.474-22.876-48.916-12.536 65.673 25.704 133.45 92.796 123.55 113.67-33.32 58.43-190 36.754-191.34 0 0-8.4302 32.894-10.483 27.124-1.1748-43.468-16.383-63.71-49.264-87.749z" style="clip-rule:evenodd;fill:#ff0000;stroke-linejoin:round;stroke-miterlimit:2;stroke-width:12.91"/>
  <path id="path70" d="m2257.4 1204.8c26.736-3.3049 31.978-18.939 46.127-39.775 4.2473-6.2613 7.3328-13.168 11.219-19.623.7875-1.3039 3.9504-3.4857 2.4657-3.8472-5.9901-1.4717-32.094 12.497-32.998 7.9267-2.4657-12.574 24.103-38.536 7.6427-76.582-2.298-5.306-20.449-38.226-21.547-37.684-.1937.09-.3357 30.222-4.0408 35.696-.6584.9683-22.244-45.585-26.272-37.684-4.9961 9.8244 11.606 30.312 8.9853 43.196-2.285 11.18-13.388 12.264-21.779 8.159-4.2086-2.0785-9.6178-16.034-7.8492-11.683 1.9881 4.8928-3.3695 30.687-3.3695 39.556 0 7.7718-.1032 15.272 2.6982 22.592.5422 1.433 4.0666 4.4281 2.6853 3.7439-10.844-5.3189-21.766-23.005-21.766-28.866v13.775c0 10.728 2.5949 20.294 6.2871 30.416 9.45 26.001 23.806 46.45 51.51 50.684z" style="clip-rule:evenodd;fill:#ff8e11;stroke-linejoin:round;stroke-miterlimit:2;stroke-width:12.91"/>
  <path id="path72" d="m2257.4 1204.8c27.821-27.472 19.842-69.326-10.844-91.131 0 0-18.1 57.359-15.414 62.729 3.1112 6.2226-.5552 20.604 26.259 28.402z" style="clip-rule:evenodd;fill:#ffcc00;stroke-linejoin:round;stroke-miterlimit:2;stroke-width:12.91"/>
  <path id="path74" d="m646.56 1796 18.717 49.264c1.3559 7.0011-2.1838 10.738-10.734 11.132l-50.573-3.6824-30.699-29.407c-1.8266-1.7494-4.73-1.687-6.4794.1397-1.7497 1.8263-1.6874 4.7297.1393 6.4791l17.851 17.1c2.6132 3.1493 1.8532 4.5242-2.2795 4.1255l-31.981-2.3289c-2.5227-.1835-4.7198 1.7153-4.9033 4.238-.18383 2.5225 1.715 4.7195 4.2378 4.9036l31.211 2.2722c3.4254.3838 4.6951 1.5875 1.2231 4.5955l-20.643 13.272c-2.1277 1.3676-2.7444 4.2053-1.3762 6.333 1.3676 2.1277 4.2054 2.7444 6.3327 1.3765l37.206-23.922 49.753 3.6226c8.0183 1.5927 10.437 5.2699 6.987 11.131l-31.272 41.814-41.653 9.9785c-2.4598.5896-3.9784 3.0647-3.3888 5.5245.58927 2.4595 3.047 3.899 5.5239 3.3889 8.2208-1.6933 16.501-2.2986 23.964-5.3422 7.4343-3.0317 5.1584.7094 2.7915 3.515l-19.428 25.976c-1.5144 2.0255-1.1002 4.8998.92532 6.4148 2.0255 1.5144 4.8998 1.1002 6.4148-.9253l19.621-26.236c1.9667-2.5492 2.9926-1.5971 3.3756 1.7513l-.009 25.36c-.001 2.5293 2.0515 4.5837 4.5808 4.5844 2.5293 0 4.5834-2.0518 4.5844-4.5808l.0163-43.892 31.187-41.701c4.2226-6.0503 8.2931-7.279 12.053 1.3096l18.658 49.109-13.811 40.502c-.81623 2.3937.46453 5.0003 2.8586 5.8168 2.3937.8162 5.0003-.4646 5.8164-2.8589l7.9331-23.265c1.841-6.0827 3.6276-5.8692 5.354 1.2594l10.916 28.73c.89859 2.3645 3.5473 3.5547 5.9115 2.6564s3.5547-3.5473 2.6564-5.9115l-10.952-28.826c-2.3973-5.4229-1.1582-6.9677 4.2065-2.7502l19.888 12.584c2.1372 1.3524 4.9706.715 6.3228-1.4224 1.3524-2.1372.71499-4.9707-1.4222-6.3231l-37.127-23.491-18.062-47.54c-1.6702-6.7151.24001-11.627 8.9552-13.11l51.453 3.7466 30.917 29.58c1.8278 1.7487 4.7312 1.6842 6.4796-.1432s1.6846-4.7309-.14347-6.4793l-18.966-18.146c-3.1561-2.729-2.8628-3.8674.87954-3.416l34.459 2.5089c2.5227.1835 4.7198-1.7153 4.9036-4.2378.18351-2.5227-1.7153-4.7197-4.2378-4.9036l-33.853-2.6146c-2.2838-.2679-2.6401-1.1721-.31344-2.9616l22.384-14.412c2.1267-1.369 2.7413-4.2068 1.371-6.3318-1.3676-2.1283-4.2058-2.7432-6.3325-1.3742l-36.945 23.785-51.686-3.7632c-5.6311-2.3444-8.4123-5.8208-4.6609-11.892l30.614-40.934 41.42-10.087c2.4594-.6012 3.966-3.0795 3.3688-5.5384-.59983-2.4556-3.0803-3.9656-5.537-3.3678l-25.567 6.2284c-3.0824.018-3.5919-1.2166-1.2807-3.822l19.783-26.451c1.5163-2.0272 1.1015-4.9014-.92375-6.4167-2.0276-1.5118-4.9018-1.0976-6.4152.9266l-18.69 24.99c-1.917 1.7073-3.4504 1.0227-4.5973-2.0567l-.0799-23.769c-.009-2.5287-2.0695-4.5745-4.5976-4.5679-2.5304.01-4.5758 2.0691-4.5667 4.5981l.14864 44.104-29.664 39.664c-5.2599 6.2688-10.388 4.4984-13.637-.8239l-18.301-47.619 13.862-40.51c.82079-2.3954-.45769-5.0028-2.8523-5.8192-2.3924-.82-5.0003.4586-5.8185 2.8507l-7.9273 23.166c-1.9871 5.1032-3.6132 4.8319-4.9403.1064l-11.475-30.203c-.89826-2.3642-3.5473-3.5547-5.9115-2.6564s-3.5547 3.5473-2.6564 5.9115l11.373 29.934c1.1795 3.9822.49517 5.496-3.7327 2.318l-20.66-13.104c-2.1359-1.3547-4.9697-.7202-6.3244 1.4158-1.3546 2.1359-.72072 4.9698 1.4152 6.3244z" style="clip-rule:evenodd;fill-rule:evenodd;fill:#000080;stroke-linejoin:round;stroke-miterlimit:2;stroke-width:.41754"/>
  <path id="path76" d="m2231 748.04s95.745-8.4319 118.08 32.575c15.296 41.291-34.284 63.226-68.029 60.984-36.741-.45816-114.88-7.3575-133.78-48.699-16.704-21.915 49.634-23.186 49.634-23.186z" style="-inkscape-stroke:none;fill:#9ba8bf;font-variation-settings:normal;stop-color:#000000"/>
  <path id="path78" d="m2212.8 525.79a60.214 60.214 0 00-60.214 60.214 60.214 60.214 0 0025.288 48.993c-.9283 1.5047-1.436 3.093-1.4359 4.7377l-35.116 135.27c-7e-4 18.494 32.023 33.487 71.527 33.487s71.527-14.993 71.527-33.487l-35.116-135.27c1e-4-1.6713-.5217-3.2847-1.4793-4.811a60.214 60.214 0 0025.234-48.919 60.214 60.214 0 00-60.214-60.214z" style="fill:#000080;stroke-width:3.2236;stroke:#000000"/>
  <path id="path80" d="m2147.3 771.46-1.46 4.7831c-7e-4 14.783 30.114 26.768 67.262 26.768s67.263-11.984 67.262-26.768l-1.46-4.7818c-6.43 12.115-33.444 21.21-65.802 21.21-32.359 0-59.373-9.095-65.802-21.211z" style="fill-opacity:.43087;fill:#ffffff"/>
  <path id="path82" d="m2263.4 771.53c6e-4 17.122-29.647 31.002-66.22 31.002-.2425 0-.4814-.01-.7233-.01 5.806.77902 11.93 1.206 18.271 1.206 36.573 0 66.221-13.88 66.22-31.002l-32.511-125.23c-19.764 4.0733 8.0777 96.948 14.963 124.03z" style="fill-opacity:.22186;fill:#ffffff"/>
  <ellipse id="ellipse84" cx="2207.4" cy="558.08" rx="35.13" ry="24.866" style="fill-opacity:.19614;fill:#ffffff"/>
  <ellipse id="ellipse86" cx="2206.9" cy="555.49" rx="31.501" ry="22.297" style="fill-opacity:.20579;fill:#ffffff"/>
  <path id="path88" d="m2272.9 584.45a60.052 57.079 0 01-59.885 53.91 60.052 57.079 0 01-59.885-52.913 60.052 57.079 0 00-.1669 3.1684 60.052 57.079 0 0060.052 57.079 60.052 57.079 0 0060.052-57.079 60.052 57.079 0 00-.1669-4.1656z" style="fill-opacity:.19293;fill:#ffffff"/>
  <path id="path90" d="m2258.4 593.1c-15.334 31.584-46.369 32.01-39.337 39.051 18.35 5.8046 38.335-17.67 42.666-29.739 5.8458-17.273 2.8434-22.026-3.3293-9.3114z" style="color-rendering:auto;color:#000000;dominant-baseline:auto;fill-opacity:.26367;fill:#ffffff;font-feature-settings:normal;font-variant-alternates:normal;font-variant-caps:normal;font-variant-ligatures:normal;font-variant-numeric:normal;font-variant-position:normal;image-rendering:auto;isolation:auto;mix-blend-mode:normal;shape-padding:0;shape-rendering:auto;solid-color:#000000;text-decoration-color:#000000;text-decoration-line:none;text-decoration-style:solid;text-indent:0;text-orientation:mixed;text-transform:none;white-space:normal"/>
  <circle id="circle92" cx="2195.2" cy="545.99" r="8.0734" style="fill-opacity:.40193;fill:#ffffff"/>
  <path id="path94" d="m2256.1 591.32c-15.334 31.584-46.369 32.01-39.337 39.051 18.35 5.8046 38.335-17.67 42.666-29.739 5.8458-17.273 2.8434-22.026-3.3293-9.3115z" style="color-rendering:auto;color:#000000;dominant-baseline:auto;fill-opacity:.26367;fill:#ffffff;font-feature-settings:normal;font-variant-alternates:normal;font-variant-caps:normal;font-variant-ligatures:normal;font-variant-numeric:normal;font-variant-position:normal;image-rendering:auto;isolation:auto;mix-blend-mode:normal;shape-padding:0;shape-rendering:auto;solid-color:#000000;text-decoration-color:#000000;text-decoration-line:none;text-decoration-style:solid;text-indent:0;text-orientation:mixed;text-transform:none;white-space:normal"/>
  <path id="path96" d="m2157.3 776.34c-4e-4 10.208 17.676 18.484 39.481 18.484.1446 0 .287-.006.4313-.006-3.4616.46446-7.1131.71903-10.893.71903-21.805 0-39.481-8.2756-39.481-18.484l19.383-74.664c11.783 2.4285-4.816 57.801-8.9211 73.951z" style="fill-opacity:.10289;fill:#ffffff"/>
  <path id="path98" d="m1831.7 1336.9c-26.775 37.684-10.586 87.258-20.062 123.65-15.234 9.3726-27.446-47.663-23.406-57.94 0 0-21.689 54.144-13.968 73.599 3.3824 8.6109 10.509 38.02 10.509 38.02-15.156-10.586-15.957-31.474-22.876-48.916-12.536 65.673 25.704 133.45 92.796 123.55 113.67-33.32 58.43-190 36.754-191.34 0 0-8.4302 32.894-10.483 27.124-1.1748-43.468-16.383-63.71-49.264-87.749z" style="clip-rule:evenodd;fill:#ff0000;stroke-linejoin:round;stroke-miterlimit:2;stroke-width:12.91"/>
  <path id="path100" d="m1854.7 1588.9c26.736-3.3049 31.978-18.939 46.127-39.775 4.2474-6.2613 7.3329-13.168 11.219-19.623.7876-1.3039 3.9505-3.4857 2.4658-3.8472-5.9902-1.4717-32.094 12.497-32.998 7.9267-2.4658-12.574 24.103-38.536 7.6427-76.582-2.298-5.306-20.449-38.226-21.547-37.684-.1937.09-.3357 30.222-4.0408 35.696-.6584.9683-22.244-45.585-26.272-37.684-4.9961 9.8244 11.606 30.312 8.9853 43.196-2.285 11.18-13.388 12.264-21.779 8.159-4.2086-2.0785-9.6178-16.034-7.8492-11.683 1.9881 4.8928-3.3695 30.687-3.3695 39.556 0 7.7718-.1033 15.272 2.6982 22.592.5422 1.433 4.0666 4.4281 2.6853 3.7439-10.844-5.3189-21.766-23.005-21.766-28.866v13.775c0 10.728 2.5949 20.294 6.2871 30.416 9.45 26.001 23.806 46.45 51.51 50.684z" style="clip-rule:evenodd;fill:#ff8e11;stroke-linejoin:round;stroke-miterlimit:2;stroke-width:12.91"/>
  <path id="path102" d="m1854.7 1588.9c27.821-27.472 19.842-69.326-10.844-91.131 0 0-18.1 57.359-15.414 62.729 3.1113 6.2226-.5551 20.604 26.259 28.402z" style="clip-rule:evenodd;fill:#ffcc00;stroke-linejoin:round;stroke-miterlimit:2;stroke-width:12.91"/>
  <path id="path104" d="m670.05 1334.8c-26.775 37.684-10.586 87.258-20.062 123.65-15.234 9.3726-27.446-47.663-23.406-57.94 0 0-21.689 54.144-13.969 73.599 3.3824 8.6109 10.509 38.02 10.509 38.02-15.156-10.586-15.957-31.474-22.876-48.916-12.536 65.673 25.704 133.45 92.796 123.55 113.67-33.32 58.43-190 36.754-191.34 0 0-8.4302 32.894-10.483 27.124-1.1748-43.468-16.383-63.71-49.264-87.749z" style="clip-rule:evenodd;fill:#ff0000;stroke-linejoin:round;stroke-miterlimit:2;stroke-width:12.91"/>
  <path id="path106" d="m693.04 1586.8c26.736-3.3049 31.978-18.939 46.127-39.775 4.2474-6.2613 7.3328-13.168 11.219-19.623.7875-1.3039 3.9504-3.4857 2.4658-3.8472-5.9902-1.4717-32.094 12.497-32.998 7.9267-2.4658-12.574 24.103-38.536 7.6427-76.582-2.298-5.306-20.449-38.226-21.547-37.684-.19365.09-.33566 30.222-4.0408 35.696-.65841.9683-22.244-45.585-26.272-37.684-4.9961 9.8244 11.606 30.312 8.9853 43.196-2.2851 11.18-13.388 12.264-21.779 8.159-4.2086-2.0785-9.6179-16.034-7.8492-11.683 1.9881 4.8928-3.3695 30.687-3.3695 39.556 0 7.7718-.10328 15.272 2.6982 22.592.54221 1.433 4.0666 4.4281 2.6852 3.7439-10.844-5.3189-21.766-23.005-21.766-28.866v13.775c0 10.728 2.5949 20.294 6.2871 30.416 9.45 26.001 23.806 46.45 51.51 50.684z" style="clip-rule:evenodd;fill:#ff8e11;stroke-linejoin:round;stroke-miterlimit:2;stroke-width:12.91"/>
  <path id="path108" d="m693.04 1586.8c27.821-27.472 19.843-69.326-10.844-91.131 0 0-18.1 57.359-15.414 62.729 3.1113 6.2226-.55513 20.604 26.259 28.402z" style="clip-rule:evenodd;fill:#ffcc00;stroke-linejoin:round;stroke-miterlimit:2;stroke-width:12.91"/>
  <path id="path110" d="m1054.6 1729.4c-26.775 37.684-10.586 87.258-20.062 123.65-15.234 9.3726-27.446-47.663-23.406-57.94 0 0-21.689 54.144-13.969 73.599 3.3824 8.6109 10.509 38.02 10.509 38.02-15.156-10.586-15.957-31.474-22.876-48.916-12.536 65.673 25.704 133.45 92.796 123.55 113.67-33.32 58.43-190 36.754-191.34 0 0-8.4302 32.894-10.483 27.124-1.1748-43.468-16.383-63.71-49.264-87.749z" style="clip-rule:evenodd;fill:#ff0000;stroke-linejoin:round;stroke-miterlimit:2;stroke-width:12.91"/>
  <path id="path112" d="m1077.6 1981.4c26.736-3.3049 31.978-18.939 46.127-39.775 4.2474-6.2613 7.3328-13.168 11.219-19.623.7875-1.3039 3.9504-3.4857 2.4658-3.8472-5.9902-1.4717-32.094 12.497-32.998 7.9267-2.4658-12.574 24.103-38.536 7.6426-76.582-2.2979-5.306-20.449-38.226-21.547-37.684-.1936.09-.3356 30.222-4.0408 35.696-.6584.9683-22.244-45.585-26.272-37.684-4.9961 9.8244 11.606 30.312 8.9853 43.196-2.2851 11.18-13.388 12.264-21.779 8.159-4.2086-2.0785-9.6179-16.034-7.8492-11.683 1.9881 4.8928-3.3695 30.687-3.3695 39.556 0 7.7718-.1033 15.272 2.6981 22.592.5423 1.433 4.0667 4.4281 2.6853 3.7439-10.844-5.3189-21.766-23.005-21.766-28.866v13.775c0 10.728 2.5949 20.294 6.2871 30.416 9.4501 26.001 23.806 46.45 51.51 50.684z" style="clip-rule:evenodd;fill:#ff8e11;stroke-linejoin:round;stroke-miterlimit:2;stroke-width:12.91"/>
  <path id="path114" d="m1077.6 1981.4c27.821-27.472 19.842-69.326-10.844-91.131 0 0-18.1 57.359-15.414 62.729 3.1113 6.2226-.5551 20.604 26.259 28.402z" style="clip-rule:evenodd;fill:#ffcc00;stroke-linejoin:round;stroke-miterlimit:2;stroke-width:12.91"/>
  <path id="path116" d="m1455.9 1726.1c-26.775 37.684-10.586 87.258-20.062 123.65-15.234 9.3726-27.446-47.663-23.406-57.94 0 0-21.689 54.144-13.968 73.599 3.3824 8.6109 10.509 38.02 10.509 38.02-15.156-10.586-15.957-31.474-22.876-48.916-12.536 65.673 25.704 133.45 92.796 123.55 113.67-33.32 58.43-190 36.754-191.34 0 0-8.4302 32.894-10.483 27.124-1.1748-43.468-16.383-63.71-49.264-87.749z" style="clip-rule:evenodd;fill:#ff0000;stroke-linejoin:round;stroke-miterlimit:2;stroke-width:12.91"/>
  <path id="path118" d="m1478.9 1978c26.736-3.3049 31.978-18.939 46.127-39.775 4.2474-6.2613 7.3329-13.168 11.219-19.623.7876-1.3039 3.9505-3.4857 2.4658-3.8472-5.9902-1.4717-32.094 12.497-32.998 7.9267-2.4658-12.574 24.103-38.536 7.6427-76.582-2.298-5.306-20.449-38.226-21.547-37.684-.1937.09-.3357 30.222-4.0408 35.696-.6584.9683-22.244-45.585-26.272-37.684-4.9961 9.8244 11.606 30.312 8.9853 43.196-2.285 11.18-13.388 12.264-21.779 8.159-4.2086-2.0785-9.6178-16.034-7.8492-11.683 1.9881 4.8928-3.3695 30.687-3.3695 39.556 0 7.7718-.1033 15.272 2.6982 22.592.5422 1.433 4.0666 4.4281 2.6853 3.7439-10.844-5.3189-21.766-23.005-21.766-28.866v13.775c0 10.728 2.5949 20.294 6.2871 30.416 9.45 26.001 23.806 46.45 51.51 50.684z" style="clip-rule:evenodd;fill:#ff8e11;stroke-linejoin:round;stroke-miterlimit:2;stroke-width:12.91"/>
  <path id="path120" d="m1478.9 1978c27.821-27.472 19.842-69.326-10.844-91.131 0 0-18.1 57.359-15.414 62.729 3.1113 6.2226-.5551 20.604 26.259 28.402z" style="clip-rule:evenodd;fill:#ffcc00;stroke-linejoin:round;stroke-miterlimit:2;stroke-width:12.91"/>
  <path id="path122" d="m676.79 957.05c-26.775 37.684-10.586 87.258-20.062 123.65-15.234 9.3725-27.446-47.663-23.406-57.94 0 0-21.689 54.144-13.969 73.599 3.3824 8.6109 10.509 38.02 10.509 38.02-15.156-10.586-15.957-31.474-22.876-48.916-12.536 65.673 25.704 133.45 92.796 123.55 113.67-33.32 58.43-189.99 36.754-191.34 0 0-8.4302 32.894-10.483 27.124-1.1748-43.468-16.383-63.71-49.264-87.749z" style="clip-rule:evenodd;fill:#ff0000;stroke-linejoin:round;stroke-miterlimit:2;stroke-width:12.91"/>
  <path id="path124" d="m699.79 1209c26.736-3.3049 31.978-18.939 46.127-39.775 4.2474-6.2613 7.3328-13.168 11.219-19.623.7875-1.3039 3.9504-3.4857 2.4658-3.8472-5.9902-1.4717-32.094 12.497-32.998 7.9267-2.4658-12.574 24.103-38.536 7.6427-76.582-2.298-5.306-20.449-38.226-21.547-37.684-.19365.09-.33566 30.222-4.0408 35.696-.65841.9682-22.244-45.585-26.272-37.684-4.9961 9.8244 11.606 30.312 8.9853 43.196-2.2851 11.18-13.388 12.264-21.779 8.1591-4.2086-2.0785-9.6179-16.034-7.8492-11.684 1.9881 4.8929-3.3695 30.687-3.3695 39.556 0 7.7718-.10328 15.272 2.6982 22.592.54221 1.433 4.0666 4.4281 2.6852 3.7438-10.844-5.3188-21.766-23.005-21.766-28.866v13.775c0 10.728 2.5949 20.294 6.2871 30.416 9.45 26 23.806 46.45 51.51 50.684z" style="clip-rule:evenodd;fill:#ff8e11;stroke-linejoin:round;stroke-miterlimit:2;stroke-width:12.91"/>
  <path id="path126" d="m699.79 1209c27.821-27.472 19.843-69.326-10.844-91.131 0 0-18.1 57.359-15.414 62.729 3.1113 6.2225-.55513 20.604 26.259 28.402z" style="clip-rule:evenodd;fill:#ffcc00;stroke-linejoin:round;stroke-miterlimit:2;stroke-width:12.91"/>
  <path id="path128" d="m1820.3 1799.4 18.717 49.264c1.3559 7.0011-2.1838 10.738-10.734 11.132l-50.573-3.6824-30.699-29.407c-1.8266-1.7494-4.7299-1.687-6.4794.1397-1.7497 1.8263-1.6873 4.7297.1393 6.4791l17.851 17.1c2.6132 3.1493 1.8532 4.5242-2.2795 4.1255l-31.981-2.3289c-2.5227-.1835-4.7198 1.7153-4.9033 4.238-.1839 2.5225 1.715 4.7195 4.2378 4.9036l31.211 2.2722c3.4255.3838 4.6951 1.5875 1.2231 4.5955l-20.643 13.272c-2.1277 1.3676-2.7444 4.2053-1.3762 6.333 1.3676 2.1277 4.2054 2.7444 6.3328 1.3765l37.206-23.922 49.753 3.6226c8.0184 1.5927 10.437 5.2699 6.9871 11.131l-31.272 41.814-41.653 9.9785c-2.4598.5896-3.9784 3.0647-3.3888 5.5245.5892 2.4595 3.0469 3.899 5.5239 3.3889 8.2208-1.6933 16.501-2.2986 23.964-5.3422 7.4343-3.0317 5.1583.7094 2.7914 3.515l-19.428 25.976c-1.5144 2.0255-1.1002 4.8998.9253 6.4148 2.0255 1.5144 4.8998 1.1002 6.4148-.9253l19.621-26.236c1.9667-2.5492 2.9927-1.5971 3.3757 1.7513l-.01 25.36c0 2.5293 2.0516 4.5837 4.5808 4.5844 2.5293 0 4.5834-2.0518 4.5844-4.5808l.016-43.892 31.187-41.701c4.2225-6.0503 8.2931-7.279 12.053 1.3096l18.658 49.109-13.811 40.502c-.8162 2.3937.4645 5.0003 2.8586 5.8168 2.3937.8162 5.0002-.4646 5.8164-2.8589l7.9331-23.265c1.841-6.0827 3.6276-5.8692 5.3541 1.2594l10.916 28.73c.8986 2.3645 3.5472 3.5547 5.9115 2.6564 2.3642-.8983 3.5547-3.5473 2.6564-5.9115l-10.952-28.826c-2.3972-5.4229-1.1581-6.9677 4.2065-2.7502l19.888 12.584c2.1371 1.3524 4.9706.715 6.3227-1.4224 1.3525-2.1372.715-4.9707-1.4221-6.3231l-37.127-23.491-18.062-47.54c-1.6703-6.7151.24-11.627 8.9552-13.11l51.453 3.7466 30.917 29.58c1.8278 1.7487 4.7312 1.6842 6.4796-.1432 1.7485-1.8274 1.6846-4.7309-.1434-6.4793l-18.966-18.146c-3.1561-2.729-2.8628-3.8674.8796-3.416l34.459 2.5089c2.5227.1835 4.7197-1.7153 4.9036-4.2378.1835-2.5227-1.7154-4.7197-4.2378-4.9036l-33.853-2.6146c-2.2838-.2679-2.6401-1.1721-.3135-2.9616l22.384-14.412c2.1267-1.369 2.7413-4.2068 1.371-6.3318-1.3676-2.1283-4.2058-2.7432-6.3324-1.3742l-36.945 23.785-51.686-3.7632c-5.6311-2.3444-8.4123-5.8208-4.6608-11.892l30.614-40.934 41.42-10.087c2.4594-.6012 3.9661-3.0795 3.3689-5.5384-.5999-2.4556-3.0803-3.9656-5.5371-3.3678l-25.567 6.2284c-3.0823.018-3.5919-1.2166-1.2807-3.822l19.783-26.451c1.5162-2.0272 1.1015-4.9014-.9238-6.4167-2.0276-1.5118-4.9018-1.0976-6.4152.9266l-18.69 24.99c-1.917 1.7073-3.4504 1.0227-4.5973-2.0567l-.08-23.769c-.01-2.5287-2.0695-4.5745-4.5976-4.5679-2.5304.01-4.5759 2.0691-4.5667 4.5981l.1486 44.104-29.664 39.664c-5.2599 6.2688-10.388 4.4984-13.637-.8239l-18.301-47.619 13.862-40.51c.8208-2.3954-.4576-5.0028-2.8523-5.8192-2.3923-.82-5.0003.4586-5.8185 2.8507l-7.9273 23.166c-1.9871 5.1032-3.6132 4.8319-4.9403.1064l-11.475-30.203c-.8982-2.3642-3.5472-3.5547-5.9115-2.6564-2.3642.8983-3.5547 3.5473-2.6564 5.9115l11.373 29.934c1.1795 3.9822.4952 5.496-3.7327 2.318l-20.66-13.104c-2.136-1.3547-4.9698-.7202-6.3244 1.4158-1.3547 2.1359-.7207 4.9698 1.4152 6.3244z" style="clip-rule:evenodd;fill-rule:evenodd;fill:#000080;stroke-linejoin:round;stroke-miterlimit:2;stroke-width:.41754"/>
  <path id="path130" d="m2208.2 1397.6 18.717 49.264c1.3559 7.0011-2.1838 10.738-10.734 11.132l-50.573-3.6824-30.699-29.407c-1.8266-1.7494-4.7299-1.687-6.4794.1397-1.7497 1.8263-1.6873 4.7297.1393 6.4791l17.851 17.1c2.6132 3.1493 1.8532 4.5242-2.2795 4.1255l-31.981-2.3289c-2.5227-.1835-4.7198 1.7153-4.9033 4.238-.1839 2.5225 1.715 4.7195 4.2378 4.9036l31.211 2.2722c3.4255.3838 4.6951 1.5875 1.2231 4.5955l-20.643 13.272c-2.1277 1.3676-2.7444 4.2053-1.3762 6.333 1.3676 2.1277 4.2054 2.7444 6.3328 1.3765l37.206-23.922 49.753 3.6226c8.0184 1.5927 10.437 5.2699 6.9871 11.131l-31.272 41.814-41.653 9.9785c-2.4598.5896-3.9784 3.0647-3.3888 5.5245.5892 2.4595 3.0469 3.899 5.5239 3.3889 8.2208-1.6933 16.501-2.2986 23.964-5.3422 7.4343-3.0317 5.1583.7094 2.7914 3.515l-19.428 25.976c-1.5144 2.0255-1.1002 4.8998.9253 6.4148 2.0255 1.5144 4.8998 1.1002 6.4148-.9253l19.621-26.236c1.9667-2.5492 2.9927-1.5971 3.3757 1.7513l-.01 25.36c0 2.5293 2.0516 4.5837 4.5808 4.5844 2.5293 0 4.5834-2.0518 4.5844-4.5808l.016-43.892 31.187-41.701c4.2225-6.0503 8.2931-7.279 12.053 1.3096l18.658 49.109-13.811 40.502c-.8162 2.3937.4645 5.0003 2.8586 5.8168 2.3937.8162 5.0002-.4646 5.8164-2.8589l7.9331-23.265c1.841-6.0827 3.6276-5.8692 5.3541 1.2594l10.916 28.73c.8986 2.3645 3.5472 3.5547 5.9115 2.6564 2.3642-.8983 3.5547-3.5473 2.6564-5.9115l-10.952-28.826c-2.3972-5.4229-1.1581-6.9677 4.2065-2.7502l19.888 12.584c2.1371 1.3524 4.9706.715 6.3227-1.4224 1.3525-2.1372.715-4.9707-1.4221-6.3231l-37.127-23.491-18.062-47.54c-1.6703-6.7151.24-11.627 8.9552-13.11l51.453 3.7466 30.917 29.58c1.8278 1.7487 4.7312 1.6842 6.4796-.1432 1.7485-1.8274 1.6846-4.7309-.1434-6.4793l-18.966-18.146c-3.1561-2.729-2.8628-3.8674.8796-3.416l34.459 2.5089c2.5227.1835 4.7197-1.7153 4.9036-4.2378.1835-2.5227-1.7154-4.7197-4.2378-4.9036l-33.853-2.6146c-2.2838-.2679-2.6401-1.1721-.3135-2.9616l22.384-14.412c2.1267-1.369 2.7413-4.2068 1.371-6.3318-1.3676-2.1283-4.2058-2.7432-6.3324-1.3742l-36.945 23.785-51.686-3.7632c-5.6311-2.3444-8.4123-5.8208-4.6608-11.892l30.614-40.934 41.42-10.087c2.4594-.6012 3.9661-3.0795 3.3689-5.5384-.5999-2.4556-3.0803-3.9656-5.5371-3.3678l-25.567 6.2284c-3.0823.018-3.5919-1.2166-1.2807-3.822l19.783-26.451c1.5162-2.0272 1.1015-4.9014-.9238-6.4167-2.0276-1.5118-4.9018-1.0976-6.4152.9266l-18.69 24.99c-1.917 1.7073-3.4504 1.0227-4.5973-2.0567l-.08-23.769c-.01-2.5287-2.0695-4.5745-4.5976-4.5679-2.5304.01-4.5759 2.0691-4.5667 4.5981l.1486 44.104-29.664 39.664c-5.2599 6.2688-10.388 4.4984-13.637-.8239l-18.301-47.619 13.862-40.51c.8208-2.3954-.4576-5.0028-2.8523-5.8192-2.3923-.82-5.0003.4586-5.8185 2.8507l-7.9273 23.166c-1.9871 5.1032-3.6132 4.8319-4.9403.1064l-11.475-30.203c-.8982-2.3642-3.5472-3.5547-5.9115-2.6564-2.3642.8983-3.5547 3.5473-2.6564 5.9115l11.373 29.934c1.1795 3.9822.4952 5.496-3.7327 2.318l-20.66-13.104c-2.136-1.3547-4.9698-.7202-6.3244 1.4158-1.3547 2.1359-.7207 4.9698 1.4152 6.3244z" style="clip-rule:evenodd;fill-rule:evenodd;fill:#000080;stroke-linejoin:round;stroke-miterlimit:2;stroke-width:.41754"/>
 </g>
 <g id="g144" class="csvg-group">
  <g id="g136" class="csvg-button">
   <rect id="rect134" x="883.41" y="894.27" width="378.86" height="378.86" style="-inkscape-stroke:none;fill:#5599ff;font-variation-settings:normal;stop-color:#000000;stroke-width:3.8913"/>
  </g>
  <g id="g142" class="csvg-button">
   <rect id="rect138" x="883.41" y="894.27" width="378.86" height="378.86" style="-inkscape-stroke:none;fill:#5599ff;font-variation-settings:normal;stop-color:#000000;stroke-width:3.8913"/>
   <path id="path140" d="m1072.8 961.44 42.905 76.119 85.65 17.284-59.135 64.326 10.031 86.798-79.452-36.364-79.451 36.364 10.031-86.798-59.135-64.326 85.65-17.284z" style="clip-rule:evenodd;fill-rule:evenodd;fill:#666666;stroke-linecap:round;stroke-linejoin:round;stroke-miterlimit:2;stroke-width:10;stroke:#333333"/>
   <path id="path7694-9" d="m1073.5 1034.9c5.5988-.6174 11.33 3.9422 10.979 9.793-3.0912 13.264-5.9845 28.696-7.5738 48.059-1.4392 35.219-10.618 9.0031-12.988-14.232-1.4284-11.611-2.5727-23.249-2.9339-34.936.8478-5.7117 7.2189-8.8855 12.516-8.6846zm.2664 85.903c11.872-2.1484 18.297 12.002 11.458 17.932-20.649 17.143-31.055-14.099-11.458-17.932z" style="fill:#ffffff;stroke-width:5.011"/>
  </g>
 </g>
 <g id="g156" class="csvg-group">
  <g id="g148" class="csvg-button">
   <rect id="rect146" x="883.41" y="505.14" width="378.86" height="378.86" style="-inkscape-stroke:none;fill:#5599ff;font-variation-settings:normal;stop-color:#000000;stroke-width:3.8913"/>
  </g>
  <g id="g154" class="csvg-button">
   <rect id="rect150" x="883.41" y="505.14" width="378.86" height="378.86" style="-inkscape-stroke:none;fill:#5599ff;font-variation-settings:normal;stop-color:#000000;stroke-width:3.8913"/>
   <path id="path152" d="m1072.8 572.3 42.905 76.119 85.65 17.284-59.135 64.326 10.031 86.798-79.452-36.364-79.451 36.364 10.031-86.798-59.135-64.326 85.65-17.284z" style="clip-rule:evenodd;fill-rule:evenodd;fill:#666666;stroke-linecap:round;stroke-linejoin:round;stroke-miterlimit:2;stroke-width:10;stroke:#333333"/>
   <path id="path7694-1" d="m1074.6 648.58c5.5988-.61746 11.33 3.9422 10.979 9.793-3.0912 13.264-5.9845 28.696-7.5738 48.059-1.4392 35.219-10.618 9.0031-12.988-14.232-1.4284-11.611-2.5727-23.249-2.9339-34.936.8478-5.7117 7.2189-8.8855 12.516-8.6846zm.2664 85.903c11.872-2.1484 18.297 12.002 11.458 17.932-20.649 17.143-31.055-14.099-11.458-17.932z" style="fill:#ffffff;stroke-width:5.011"/>
  </g>
 </g>
 <g id="g168" class="csvg-group">
  <g id="g160" class="csvg-button">
   <rect id="rect158" x="494.27" y="505.14" width="378.86" height="378.86" style="-inkscape-stroke:none;fill:#5599ff;font-variation-settings:normal;stop-color:#000000;stroke-width:3.8913"/>
  </g>
  <g id="g166" class="csvg-button">
   <rect id="rect162" x="494.27" y="505.14" width="378.86" height="378.86" style="-inkscape-stroke:none;fill:#5599ff;font-variation-settings:normal;stop-color:#000000;stroke-width:3.8913"/>
   <path id="path164" d="m683.7 572.3 42.905 76.119 85.65 17.284-59.135 64.326 10.031 86.798-79.452-36.364-79.451 36.364 10.031-86.798-59.135-64.326 85.65-17.284z" style="clip-rule:evenodd;fill-rule:evenodd;fill:#666666;stroke-linecap:round;stroke-linejoin:round;stroke-miterlimit:2;stroke-width:10;stroke:#333333"/>
   <path id="path7694-8" d="m684.84 643.94c5.5988-.61746 11.33 3.9422 10.979 9.793-3.0912 13.264-5.9845 28.696-7.5738 48.059-1.4392 35.219-10.618 9.0031-12.988-14.232-1.4284-11.611-2.5727-23.249-2.9339-34.936.84779-5.7117 7.2189-8.8855 12.516-8.6846zm.26641 85.903c11.872-2.1484 18.297 12.002 11.459 17.932-20.649 17.143-31.055-14.099-11.459-17.932z" style="fill:#ffffff;stroke-width:5.011"/>
  </g>
 </g>
 <g id="g180" class="csvg-group">
  <g id="g172" class="csvg-button">
   <rect id="rect170" x="105.14" y="505.14" width="378.86" height="378.86" style="-inkscape-stroke:none;fill:#5599ff;font-variation-settings:normal;stop-color:#000000;stroke-width:3.8913"/>
  </g>
  <g id="g178" class="csvg-button">
   <rect id="rect174" x="105.14" y="505.14" width="378.86" height="378.86" style="-inkscape-stroke:none;fill:#5599ff;font-variation-settings:normal;stop-color:#000000;stroke-width:3.8913"/>
   <path id="path176" d="m294.57 572.3 42.905 76.119 85.65 17.284-59.135 64.326 10.031 86.798-79.452-36.364-79.451 36.364 10.031-86.798-59.135-64.326 85.65-17.284z" style="clip-rule:evenodd;fill-rule:evenodd;fill:#666666;stroke-linecap:round;stroke-linejoin:round;stroke-miterlimit:2;stroke-width:10;stroke:#333333"/>
   <path id="path7694" d="m293.71 642.67c5.5988-.61746 11.33 3.9422 10.979 9.793-3.0912 13.264-5.9845 28.696-7.5738 48.059-1.4392 35.219-10.618 9.0031-12.988-14.232-1.4284-11.611-2.5727-23.249-2.9339-34.936.84779-5.7117 7.2189-8.8855 12.516-8.6846zm.26641 85.903c11.872-2.1484 18.297 12.002 11.459 17.932-20.649 17.143-31.055-14.099-11.459-17.932z" style="fill:#ffffff;stroke-width:5.011"/>
  </g>
 </g>
 <g id="g192" class="csvg-group">
  <g id="g184" class="csvg-button">
   <rect id="rect182" x="105.14" y="894.27" width="378.86" height="378.86" style="-inkscape-stroke:none;fill:#5599ff;font-variation-settings:normal;stop-color:#000000;stroke-width:3.8913"/>
  </g>
  <g id="g190" class="csvg-button">
   <rect id="rect186" x="105.14" y="894.27" width="378.86" height="378.86" style="-inkscape-stroke:none;fill:#5599ff;font-variation-settings:normal;stop-color:#000000;stroke-width:3.8913"/>
   <path id="path188" d="m294.57 961.44 42.905 76.119 85.65 17.284-59.135 64.326 10.031 86.798-79.452-36.364-79.451 36.364 10.031-86.798-59.135-64.326 85.65-17.284z" style="clip-rule:evenodd;fill-rule:evenodd;fill:#666666;stroke-linecap:round;stroke-linejoin:round;stroke-miterlimit:2;stroke-width:10;stroke:#333333"/>
   <path id="path7694-4" d="m297.37 1037.2c5.5988-.6175 11.33 3.9422 10.979 9.793-3.0912 13.264-5.9845 28.696-7.5738 48.059-1.4392 35.219-10.618 9.0031-12.988-14.232-1.4284-11.611-2.5727-23.249-2.9339-34.936.84779-5.7117 7.2189-8.8855 12.516-8.6846zm.26641 85.903c11.872-2.1485 18.297 12.002 11.459 17.932-20.649 17.143-31.055-14.099-11.459-17.932z" style="fill:#ffffff;stroke-width:5.011"/>
  </g>
 </g>
</svg>
