<?xml version="1.0" encoding="UTF-8" standalone="no"?>
<!-- Generator: Adobe Illustrator 26.1.0, SVG Export Plug-In . SVG Version: 6.00 Build 0)  -->

<svg
   version="1.1"
   id="Layer_1"
   x="0px"
   y="0px"
   viewBox="0 0 865.50002 766.86012"
   xml:space="preserve"
   sodipodi:docname="2023-CA-02-ricca5.svg"
   width="865.5"
   height="766.86011"
   inkscape:version="1.1.1 (3bf5ae0d25, 2021-09-20)"
   xmlns:inkscape="http://www.inkscape.org/namespaces/inkscape"
   xmlns:sodipodi="http://sodipodi.sourceforge.net/DTD/sodipodi-0.dtd"
   xmlns="http://www.w3.org/2000/svg"
   xmlns:svg="http://www.w3.org/2000/svg"><defs
   id="defs146">
	


		
	
			
			
		
				
				
				
				
				
				
				
				
				
				
				
			
				
				
			
					
					
				
					
					
				
					
					
				
					
					
					
				
					
					
					
				
					
					
				
					
					
					
				
					
					
				
					
					
					
				
					
					
					
					
					
				
						
						
					
						
						
						
					
						
						
						
					
						
						
						
					
						
						
					
						
						
					
						
						
					
							
							
						
							
							
						
							
							
						
							
							
						</defs><sodipodi:namedview
   id="namedview144"
   pagecolor="#ffffff"
   bordercolor="#666666"
   borderopacity="1.0"
   inkscape:pageshadow="2"
   inkscape:pageopacity="0.0"
   inkscape:pagecheckerboard="0"
   showgrid="false"
   inkscape:zoom="0.46883152"
   inkscape:cx="387.13268"
   inkscape:cy="587.63114"
   inkscape:window-width="2048"
   inkscape:window-height="1017"
   inkscape:window-x="-8"
   inkscape:window-y="-8"
   inkscape:window-maximized="1"
   inkscape:current-layer="Layer_1" />
<style
   type="text/css"
   id="style2">
	.st0{fill:#DD2578;}
	.st1{fill:#FF2E89;}
	.st2{fill:#231F20;}
	.st3{fill:#414042;}
	.st4{fill:#FFFFFF;}
	.st5{fill:#FF59A1;}
	.st6{fill:#E5E6E7;}
	.st7{display:none;}
	.st8{display:inline;}
	.st9{fill:#F6B000;}
	.st10{fill:#FFE503;}
	.st11{display:inline;fill:#231F20;}
</style>

<path
   class="st0"
   d="m 702.9,352.5 c 3.7,-0.8 67.3,22.9 64.8,-27.2 0,0 -21,-51.8 8.2,-77.9 0,0 33.6,-31.8 70.1,-11.8 0,0 6.5,10.3 -11.2,15.6 0,0 25.6,-2.3 30.7,18.1 0,0 -3.2,15.8 -26.3,6 0,0 24.7,24.3 11.5,36.1 0,0 -12.2,15 -33.1,-11.3 0,0 -14.7,-16.7 -1.7,18 0,0 22.5,112.5 -134.5,100 0,-0.1 -1.6,-60.6 21.5,-65.6 z"
   id="path5" /><path
   class="st1"
   d="m 785.1,396.9 c -17.6,-5.9 -21.8,-36 -22.9,-48.5 -5.8,7.6 -15.4,9.4 -24.8,9 -6.3,22.8 0.8,58.2 0.8,58.2 24.1,-1 46.9,-18.7 46.9,-18.7 z"
   id="path7" /><path
   class="st1"
   d="m 767.4,324.6 c 16.9,11.8 37.3,14.5 49.3,15 1,-12.6 -0.8,-21.6 -0.8,-21.6 -0.7,-2 -1.4,-3.7 -1.9,-5.4 -15.4,-6 -40.7,-17.3 -53.5,-23.1 0.4,17 5.7,31.9 6.9,35.1 z"
   id="path9" /><path
   class="st0"
   d="m 155,408.8 c -3.7,0.8 -59.8,-22.9 -57.3,27.2 0,0 18.9,41.5 0.6,67 -7,9.7 -5.3,7.4 -5.3,7.4 -0.8,1.1 -2.8,2.9 -4,4 0,0 -33,31.2 -69.5,11.3 0,0 -6.5,-10.3 11.2,-15.5 0,0 -25.6,2.3 -30.7,-18.1 0,0 3.2,-15.8 26.3,-6 0,0 -24.7,-24.3 -11.5,-36.1 0,0 12.2,-15 33.1,11.3 0,0 14.7,16.7 1.7,-18 0,0 -22.5,-112.5 134.5,-100 -0.1,0.1 -6,60.5 -29.1,65.5 z"
   id="path13" /><path
   class="st1"
   d="m 80.3,364.4 c 17.6,5.9 21.8,36 22.9,48.5 5.8,-7.6 15.4,-9.4 24.8,-9 6.3,-22.8 -0.8,-58.2 -0.8,-58.2 -24.1,1 -46.9,18.7 -46.9,18.7 z"
   id="path15" /><path
   class="st1"
   d="m 98,436.7 c -16.9,-11.8 -37.3,-14.5 -49.3,-15 -1,12.6 0.8,21.6 0.8,21.6 0.7,2 1.4,3.7 1.9,5.4 15.4,6 40.7,17.3 53.5,23.1 C 104.5,454.9 99.2,440 98,436.7 Z"
   id="path17" /><path
   class="st2"
   d="m 592.2,0 c -10,62.6 -43.1,108.6 -87.6,146 35.6,9.5 68.4,25.8 97,47.3 34.7,-63.9 18,-129.4 -9.4,-193.3 z"
   id="path21" /><path
   class="st3"
   d="m 609.9,47.5 c -9,-0.7 -22,-1.2 -30.1,-1.6 0,0 -0.1,0.1 -0.1,0.1 -5.5,14.2 -12.5,27.3 -20.5,39.7 20.5,2.7 40.9,5.9 60.9,9.8 -1.8,-15.9 -5.4,-32 -10.2,-48 z"
   id="path23" /><path
   class="st3"
   d="m 620.7,125.7 -76.6,-19.5 c -7.5,9.2 -15.7,17.9 -24.4,26.2 31.1,9.2 62.5,20.9 93.4,33.8 4.5,-13.4 6.9,-27 7.6,-40.5 z"
   id="path25" /><path
   class="st2"
   d="m 263.9,193.3 c 28.6,-21.6 61.4,-37.8 97,-47.3 C 316.4,108.6 283.2,62.6 273.3,0 245.8,63.9 229.2,129.4 263.9,193.3 Z"
   id="path31" /><path
   class="st3"
   d="m 255.5,47.5 c 9,-0.7 22,-1.2 30.1,-1.6 0,0 0.1,0.1 0.1,0.1 5.5,14.2 12.5,27.3 20.5,39.7 -20.5,2.7 -40.9,5.9 -60.9,9.8 1.8,-15.9 5.4,-32 10.2,-48 z"
   id="path33" /><path
   class="st3"
   d="m 244.7,125.7 76.6,-19.5 c 7.5,9.2 15.7,17.9 24.4,26.2 -31.1,9.2 -62.5,20.9 -93.4,33.8 -4.4,-13.4 -6.8,-27 -7.6,-40.5 z"
   id="path35" /><path
   class="st0"
   d="m 316.6,663.5 -9.2,76.7 c -13.7,-4.6 -35.3,-6.5 -50.4,-1.5 -5.1,1.7 -4.8,9.2 0.5,10.6 l 64.6,17.2 c 5,1.3 10.3,-1 12.7,-5.6 L 373.9,685 Z"
   id="path43" /><path
   class="st0"
   d="m 548.8,663.5 9.2,76.7 c 13.7,-4.6 35.3,-6.5 50.4,-1.5 5.1,1.7 4.8,9.2 -0.5,10.6 l -64.5,17.2 c -5,1.3 -10.3,-1 -12.7,-5.6 L 491.5,685 Z"
   id="path45" /><path
   id="path49"
   class="st1"
   d="m 432.70078,133.69922 c -67.71554,0 -129.75947,24.51479 -178.1289,65.21094 -1.54169,-12.54172 -8.85042,-24.86797 -20.81641,-29.90235 -22.16365,-10.34731 -46.04481,-16.27032 -69.49219,-22.92383 -14.05463,-3.89047 -28.23268,-7.36065 -42.16406,-11.68359 12.75848,24.89753 8.13803,54.28413 18.2793,79.95703 8.75484,19.72047 29.14502,32.13596 49.83007,35.84961 2.42138,0.42164 8.96759,1.18904 15.45703,1.8418 -31.0642,43.87751 -50.13895,97.10401 -52.26562,154.75195 -0.2,3.6 -0.30078,7.39961 -0.30078,11.09961 0,156.9 125.20156,284.19922 279.60156,284.19922 154.4,0 279.59961,-127.19922 279.59961,-284.19922 0,-3.7 -10e-4,-7.39961 -0.20117,-11.09961 -2.06507,-54.9961 -19.57315,-105.94556 -48.1582,-148.61719 17.07346,-5.51758 36.68948,-16.13898 46.3457,-24.18359 9.94813,-8.24596 16.59052,-19.96267 18.95508,-32.63867 5.06872,-22.23998 3.79818,-46.17887 14.35742,-66.96094 -35.15925,10.62757 -71.38122,18.04329 -105.52344,31.83789 -9.00495,3.59495 -18.08535,8.8264 -22.375,17.96094 -2.57187,4.52571 -3.99762,9.69901 -4.70898,14.84375 -48.40095,-40.77473 -110.50278,-65.34375 -178.29102,-65.34375 z" /><path
   class="st0"
   d="m 206.8,181.4 c -12.8,-6.3 -30.7,-13.4 -45,-10.1 1.4,20.4 19.8,45 40.7,48.4 29.1,4.9 25,-28 4.3,-38.3 z"
   id="path53" /><path
   class="st0"
   d="m 663.1,219.7 c 20.9,-3.5 39.2,-28.1 40.7,-48.4 -14.3,-3.2 -32.3,3.8 -45,10.1 -20.9,10.3 -25,43.2 4.3,38.3 z"
   id="path59" /><path
   class="st2"
   d="m 615.3,404.4 c 7.1,-14.4 11,-30 11,-46.1 0,-4.4 -0.3,-8.7 -0.9,-12.9 -2.5,19.6 -10.7,39.1 -23.3,57.1 -13,18.5 -30.8,35.4 -52,49.1 l 11.3,10.3 c 24.2,-15.5 42.9,-35.2 53.9,-57.5 z"
   id="path65" /><path
   class="st2"
   d="m 347.4,482.8 c 25.7,9.1 54.7,14.2 85.3,14.2 32.8,0 63.6,-5.9 90.7,-16.1 l -1.5,-14 c -26.6,11.9 -56.7,19 -88.8,19 -29.5,0 -57.5,-6 -82.5,-16.2 l -0.4,13.5 c -0.8,-0.1 -1.8,-0.2 -2.8,-0.4 z"
   id="path67" /><path
   class="st2"
   d="m 239.1,358.3 c 0,15.9 3.8,31.1 10.6,45.3 11.7,24.3 32.6,45.5 59.6,61.5 -1.1,-0.7 -1.7,-1.1 -1.7,-1.1 l 11.5,-10.5 c -23.8,-14.6 -43.5,-33.2 -57.4,-53.7 -11.7,-17.3 -19.4,-35.9 -21.8,-54.5 -0.5,4.3 -0.8,8.6 -0.8,13 z"
   id="path69" /><path
   class="st4"
   d="m 558.7,461.9 -11.3,-10.3 -32.9,-30.1 4.7,45.4 1.5,14 v 0 c 8.2,0 38.1,-19 38,-19 z"
   id="path73" /><path
   class="st4"
   d="m 304.9,464.1 c 0,0 0.6,0.4 1.7,1.1 6,3.7 26.2,15.8 38.1,17.7 1,0.2 2,0.2 2.9,0.2 l 0.4,-13.5 1.3,-46 -32.8,30 z"
   id="path75" /><path
   class="st5"
   d="M 292,216 C 328.1,176.8 455.8,116.2 566.6,207.2 456.2,171.3 395.6,172.8 292,216 Z"
   id="path79" /><path
   class="st5"
   d="m 280.6,567 c 7.4,16.3 -10.3,21.5 -22.8,17.8 -8.6,-2.5 -16.7,-7 -23.4,-13 -4.1,-3.7 -1.2,-15.6 1.8,-19.8 3.8,-5.4 11.8,-5.2 18.1,-3.4 5.8,1.7 11.2,4.2 16.2,7.6 4.2,2.8 8,6.2 10.1,10.8 z"
   id="path81" /><path
   class="st5"
   d="m 274.5,609.4 c 0,-10.2 35.4,-12.2 41,-11.1 4.3,0.8 8.5,3 10.8,6.7 5.2,8.5 -1.8,21 -11.2,22.5 -7.3,1.2 -19.8,-3.3 -26.5,-5.8 -4.2,-1.6 -8.3,-3.7 -11.4,-7 -1.9,-2 -2.7,-3.8 -2.7,-5.3 z"
   id="path83" /><path
   class="st5"
   d="m 357.2,572 c -8.7,14.3 -27.9,12.6 -41.7,7.1 -1.7,-0.7 -3.5,-1.5 -4.8,-2.8 -5.9,-6.1 -1.3,-19.8 4.7,-24.2 3.7,-2.7 8.2,-3.9 12.7,-4.8 5.1,-1 10.3,-1.6 15.5,-1.8 4.4,-0.2 9.2,0.2 12.3,3.3 3.1,3.2 3.4,8.1 3.3,12.6 0,3.6 -0.1,7.5 -2,10.6 z"
   id="path85" /><path
   class="st5"
   d="m 629.6,567.6 c 16.3,22 -32.6,33.2 -32.7,11 0,-17.6 22.6,-24.7 32.7,-11 z"
   id="path87" /><path
   class="st5"
   d="m 575.5,591.1 c 9.2,-2.1 20.3,1.4 24,10 4.2,9.7 -2.4,18.9 -9.3,25.1 -7.9,7.2 -18.2,7 -28.7,4.9 -10.1,-2 -16.3,-11.3 -12.2,-21.4 3.6,-8.9 17.6,-16.6 26.2,-18.6 z"
   id="path89" /><path
   class="st6"
   d="m 382.6,387.6 c -41,10.8 -82,-13.1 -91.5,-53.2 -2.1,-8.8 -2.5,-17.7 -1.4,-26.3 0.3,2.6 0.8,5.2 1.4,7.8 9.5,40.2 50.5,64 91.5,53.2 32,-8.4 54.5,-35.3 58.4,-65.8 4.8,37.5 -20,74.3 -58.4,84.3 z"
   id="path93" /><path
   class="st4"
   d="m 439.6,295.5 c -9.5,-40.2 -50.5,-64 -91.5,-53.3 -32,8.4 -54.5,35.3 -58.4,65.9 0.3,2.6 0.8,5.2 1.4,7.8 9.5,40.2 50.5,64 91.5,53.2 32,-8.4 54.5,-35.3 58.4,-65.8 -0.3,-2.7 -0.8,-5.2 -1.4,-7.8 z"
   id="path95" /><path
   class="st2"
   d="m 384.7,333.7 c -9.1,1.4 -17.6,-4.9 -19,-14 -0.6,-4.3 0.4,-8.5 2.7,-11.8 2.5,-3.8 6.5,-6.5 11.3,-7.2 6.6,-1 12.9,2 16.4,7.2 1.3,2 2.3,4.3 2.6,6.8 1.4,9.1 -4.9,17.6 -14,19 z"
   id="path97" /><path
   class="st4"
   d="m 521.7,271.9 c -27.5,0 -50.2,20.3 -54,46.8 3.8,26.5 26.5,46.8 54,46.8 27.5,0 50.2,-20.4 54,-46.8 -3.7,-26.5 -26.5,-46.8 -54,-46.8 z"
   id="path101" /><path
   class="st2"
   d="m 512.9,343.2 c -9.2,0 -16.7,-7.5 -16.7,-16.7 0,-9.2 7.5,-16.7 16.7,-16.7 9.2,0 16.7,7.5 16.7,16.7 0,9.2 -7.5,16.7 -16.7,16.7 z"
   id="path103" /><path
   class="st6"
   d="m 576.3,326.5 c 0,30.2 -24.4,54.6 -54.5,54.6 -30.1,0 -54.5,-24.4 -54.5,-54.6 0,-2.6 0.2,-5.2 0.6,-7.8 3.8,26.5 26.5,46.8 54,46.8 27.5,0 50.2,-20.4 54,-46.8 0.2,2.6 0.4,5.1 0.4,7.8 z"
   id="path107" />
</svg>
