<?xml version="1.0" encoding="UTF-8" standalone="no"?>
<!-- Generator: Adobe Illustrator 26.1.0, SVG Export Plug-In . SVG Version: 6.00 Build 0)  -->

<svg
   version="1.1"
   id="Layer_1"
   x="0px"
   y="0px"
   viewBox="0 0 1168.9 921.2"
   style="enable-background:new 0 0 1168.9 921.2;"
   xml:space="preserve"
   sodipodi:docname="2023-CA-02-ricca2.svg"
   inkscape:version="1.1.1 (3bf5ae0d25, 2021-09-20)"
   xmlns:inkscape="http://www.inkscape.org/namespaces/inkscape"
   xmlns:sodipodi="http://sodipodi.sourceforge.net/DTD/sodipodi-0.dtd"
   xmlns="http://www.w3.org/2000/svg"
   xmlns:svg="http://www.w3.org/2000/svg"><defs
   id="defs170">
	
	
	
	
	


	

	
	
	
	
	
	

	
	
	
	
	

		
	
		
		
	
		
		
	
			
			
			
			
			
			
			
			
			
			
			
		
				
				
			
				
				
				
				
				
				
				
				
				
				
				
				
			
				
				
			
				
				
				
				
				
			
				
				
				
				
				
			
				
				
			
				
				
				
			
					
					
					
					
				
					
					
					
				
					
					
					
				
					
					
				
					
					
				</defs><sodipodi:namedview
   id="namedview168"
   pagecolor="#ffffff"
   bordercolor="#666666"
   borderopacity="1.0"
   inkscape:pageshadow="2"
   inkscape:pageopacity="0.0"
   inkscape:pagecheckerboard="0"
   showgrid="false"
   inkscape:zoom="1.5610074"
   inkscape:cx="391.73422"
   inkscape:cy="162.39513"
   inkscape:window-width="2048"
   inkscape:window-height="1017"
   inkscape:window-x="-8"
   inkscape:window-y="-8"
   inkscape:window-maximized="1"
   inkscape:current-layer="Layer_1" />
<style
   type="text/css"
   id="style2">
	.st0{display:none;fill:#AAC310;}
	.st1{fill:#AAC310;}
	.st2{opacity:0.15;fill:#231F20;}
	.st3{fill:#414042;}
	.st4{fill:#231F20;}
	.st5{fill:#F88008;}
	.st6{fill:#EF6F00;}
	.st7{display:none;}
	.st8{display:inline;fill:#AAC310;}
	.st9{display:inline;opacity:0.15;fill:#231F20;enable-background:new    ;}
	.st10{fill:#FF8700;}
	.st11{fill:#E77708;}
	.st12{fill:#FFA521;}
	.st13{fill:#E5E6E7;}
	.st14{fill:#FFFFFF;}
	.st15{fill:#FF2E89;}
</style>
<path
   class="st0"
   d="m 433.8,220.1 c 3.3,20.3 -33.9,33.1 -50.1,26.4 -14,-5.8 -41.6,-55.1 -35.5,-67.3 43.4,42.2 81.2,14.1 85.6,40.9 z"
   id="path4" /><path
   class="st0"
   d="m 568.9,178.7 c -2.8,20.4 -42.1,21.8 -55.6,10.6 -11.7,-9.6 -23.7,-64.8 -14.3,-74.7 29.2,53 73.6,37.2 69.9,64.1 z"
   id="path6" /><path
   class="st0"
   d="m 739.8,237.4 c -0.8,20.5 37.6,28.8 52.9,20.2 13.2,-7.5 34.6,-59.7 27.1,-71.1 -38,47.1 -78.9,23.8 -80,50.9 z"
   id="path8" /><path
   class="st0"
   d="m 603.5,179.6 c 2.1,20.4 41.4,23.1 55.2,12.4 12,-9.3 25.7,-64 16.6,-74.2 -30.7,52 -74.6,34.8 -71.8,61.8 z"
   id="path10" /><path
   class="st1"
   d="M 523.1,229.9 C 367.8,102.7 500.4,16.8 500.4,16.8 c 0,0 -162.5,50.9 -63.5,185.7 9.3,12.6 30.7,37.8 44.5,42.6 17.7,6 48.1,9.2 50.8,1.2 1.2,-3.4 -8.3,-15.7 -9.1,-16.4 z"
   id="path12" /><path
   class="st2"
   d="m 532.3,246.2 c -5.06523,-18.97366 -25.67892,-27.33567 -37.3075,-41.96873 -31.23053,-31.2058 -57.17864,-76.60742 -43.6788,-121.821882 2.90286,-17.465667 22.36608,-39.736971 26.42111,-47.432679 -32.47266,13.273347 -41.17114,52.485683 -39.50687,84.127891 0.93504,46.28724 24.29332,89.0671 56.74686,121.02528 6.96202,13.12853 26.68412,14.99009 37.3252,6.07012 z"
   id="path14"
   style="opacity:1;fill:#8ea40a;fill-opacity:1" /><path
   class="st1"
   d="M 663.1,225.4 C 817.6,97.2 684.4,12.1 684.4,12.1 c 0,0 162.8,49.9 64.7,185.3 -9.2,12.7 -30.5,38 -44.3,42.9 -17.7,6.2 -48,9.5 -50.8,1.5 -1.2,-3.4 8.3,-15.8 9.1,-16.4 z"
   id="path18" /><path
   class="st2"
   d="m 654,241.7 c 4.86908,-19.03426 25.52323,-27.53252 37.04156,-42.26324 31.00596,-31.39941 56.67719,-76.94733 42.86732,-122.055508 -3.02753,-17.437198 -22.62774,-39.547771 -26.74255,-47.223269 32.573,13.027529 41.51352,52.206066 40.00605,83.847377 -0.66131,46.27165 -23.6166,89.29042 -55.95168,121.39132 C 684.30774,248.47909 664.68663,250.57032 654,241.7 Z"
   id="path20"
   style="opacity:1;fill:#8ea40a;fill-opacity:1" />
<path
   class="st3"
   d="m 712.3,548.9 c 102,-34.1 183.7,-141.7 203.2,-267.2 101,1.3 199.8,-69.8 246.3,-177.3 28.9,147.5 -36.8,225.6 -81.1,280.6 -36.3,-8.8 -75.7,5.9 -101.1,37.9 -25.4,32 -35.9,80.2 -27,123.5 -30.1,-32 -84,-19.4 -101.4,23.7 -45.1,-13 -94.3,-3 -133.1,26.9 -1.9,-16 -3.9,-32.1 -5.8,-48.1 z"
   id="path26" /><path
   class="st4"
   d="m 1162.8,110.1 c -0.3,-1.9 -0.7,-3.7 -1.1,-5.6 C 1115.2,212 1016.5,283 915.4,281.8 896,407.3 814.2,514.8 712.3,549 c 1.5,12.1 2.9,24.2 4.4,36.4 108.1,-54.1 189.8,-159.3 214,-277.9 58.7,7.6 118.1,-20.8 158.7,-63.9 35,-37.5 57.6,-84.6 73.4,-133.5 z"
   id="path28" /><path
   class="st4"
   d="m 1081.9,327.3 c 0.4,12.7 -9.6,23.3 -22.2,23.7 -12.7,0.4 -23.3,-9.6 -23.7,-22.2 -0.4,-12.7 9.6,-23.3 22.2,-23.7 12.7,-0.4 23.3,9.6 23.7,22.2 z"
   id="path30" /><path
   class="st4"
   d="m 1008.5,329.6 c 0.3,9.8 -7.4,17.9 -17.1,18.3 -9.8,0.3 -17.9,-7.4 -18.3,-17.1 -0.3,-9.8 7.4,-17.9 17.1,-18.3 9.8,-0.3 18,7.4 18.3,17.1 z"
   id="path32" /><path
   class="st4"
   d="m 1112.9,279.9 c 0.3,9 -6.8,16.4 -15.7,16.7 -8.9,0.3 -16.4,-6.8 -16.7,-15.7 -0.3,-9 6.8,-16.4 15.7,-16.7 8.9,-0.3 16.4,6.8 16.7,15.7 z"
   id="path34" />
<path
   class="st3"
   d="M 442.2,543.8 C 341.7,505.8 264,395.3 249.3,269.1 148.3,266.6 52.3,191.8 9.9,82.6 -24.6,228.9 38.1,309.5 80.3,366 c 36.6,-7.5 75.4,8.8 99.6,41.7 24.2,32.9 32.8,81.5 22.3,124.5 31.3,-30.8 84.7,-16.2 100.4,27.5 45.6,-11.3 94.3,0.5 131.9,32 2.6,-16 5.2,-31.9 7.7,-47.9 z"
   id="path38" /><path
   class="st4"
   d="m 8.7,88.2 c 0.4,-1.8 0.8,-3.7 1.3,-5.6 42.4,109.2 138.4,183.9 239.4,186.5 14.7,126.1 92.3,236.7 192.9,274.7 -1.9,12.1 -3.8,24.1 -5.8,36.2 C 330.6,521.8 252.9,413.6 233.2,294.2 174.2,299.6 115.9,269 77.1,224.3 43.5,185.6 22.7,137.7 8.7,88.2 Z"
   id="path40" /><path
   class="st4"
   d="m 81.3,308.4 c -0.9,12.6 8.7,23.6 21.3,24.5 12.6,0.9 23.6,-8.7 24.5,-21.3 0.9,-12.6 -8.7,-23.6 -21.3,-24.5 -12.6,-0.9 -23.6,8.6 -24.5,21.3 z"
   id="path42" /><path
   class="st4"
   d="m 154.6,313.5 c -0.7,9.8 6.7,18.2 16.4,18.9 9.8,0.7 18.2,-6.7 18.9,-16.4 0.7,-9.8 -6.7,-18.2 -16.4,-18.9 -9.8,-0.8 -18.2,6.6 -18.9,16.4 z"
   id="path44" /><path
   class="st4"
   d="m 52.2,259.8 c -0.6,8.9 6.1,16.7 15.1,17.3 8.9,0.6 16.7,-6.1 17.3,-15.1 0.6,-8.9 -6.1,-16.7 -15.1,-17.3 -9,-0.5 -16.7,6.2 -17.3,15.1 z"
   id="path46" />

<path
   class="st4"
   d="m 438.6,726.9 -2.7,164.4 c -15.4,-5.2 -39.7,-7.3 -56.7,-1.7 -5.8,1.9 -5.4,10.3 0.5,11.9 l 72.6,19.4 c 5.6,1.5 11.6,-1.1 14.3,-6.3 L 503,751 Z"
   id="path51"
   style="fill:#434343;fill-opacity:1;opacity:1" /><polygon
   class="st5"
   points="488.4,816.8 437.4,802.7 438,766.6 496,782.7 "
   id="polygon53" /><polygon
   class="st5"
   points="475.1,876.2 436.3,865.4 436.9,829.3 482.7,842 "
   id="polygon55" /><path
   class="st4"
   d="m 718.8,726.9 2.7,164.4 c 15.4,-5.2 39.7,-7.3 56.7,-1.7 5.8,1.9 5.3,10.3 -0.5,11.9 l -72.6,19.4 c -5.7,1.5 -11.6,-1.1 -14.3,-6.3 L 654.4,751 Z"
   id="path61"
   style="fill:#434343;fill-opacity:1;opacity:1" /><polygon
   class="st5"
   points="719.4,766.6 661.4,782.7 669,816.8 720,802.7 "
   id="polygon63" /><polygon
   class="st5"
   points="720.5,829.3 674.6,842 682.2,876.2 721.1,865.4 "
   id="polygon65" /><path
   class="st6"
   d="m 849.3,633.5 c 0,0 51.5,7.6 70.3,102.4 0,0 -24.9,15.1 -11.2,36.2 0,0 10.2,22.8 52.4,5.7 0,0 36.1,31 57.8,11.8 0,0 15.8,-16.6 -6.4,-29.3 0,0 26.8,12.1 31.5,-9.9 0,0 1.2,-21.2 -23.8,-25.4 0,0 22.1,-6.6 11.6,-24.5 0,0 -15.1,-17.2 -40.3,2.7 0,0 -27.7,24.6 -49.7,-13.3 0,0 -66.2,-160.2 -100.4,-185.3 z"
   id="path71" /><path
   class="st6"
   d="m 308,633.5 c 0,0 -51.5,7.6 -70.3,102.4 0,0 24.9,15.1 11.1,36.2 0,0 -10.2,22.8 -52.4,5.7 0,0 -36.1,31 -57.8,11.8 0,0 -15.8,-16.6 6.4,-29.3 0,0 -26.8,12.1 -31.5,-9.9 0,0 -1.2,-21.2 23.8,-25.4 0,0 -22.1,-6.6 -11.7,-24.5 0,0 15.1,-17.2 40.3,2.7 0,0 27.7,24.6 49.7,-13.3 0,0 66.2,-160.2 100.4,-185.3 z"
   id="path73" /><path
   class="st8"
   d="m 737.2,210.5 c 11,-5.3 23.5,-6.7 35.1,-10.7 37,-12.9 61.3,-55.1 53.7,-93.5 -5.1,-25.8 -49.1,-57.8 -49.7,-57.3 -10.4,7.8 -28.8,5.7 -37.6,-5.3 -8.8,-10.9 -6.7,-28.8 4.1,-37.8 11.2,-9.3 30,-7.3 39,4.2 1.6,2.1 2.9,4.4 3.7,6.9 3.4,9.6 10.9,17.1 20.2,21.3 1.1,0.5 2.2,1 3.3,1.5 21.2,10.7 37.2,29.9 47.5,51.2 18.5,38 19.8,85.2 -1.4,121.9 -21.1,36.7 -65.7,59.8 -107.1,51.3 -13.9,-2.8 -28.9,-11.3 -30.4,-25.4 -1.3,-12.2 8.6,-23 19.6,-28.3 z"
   id="path75" /><path
   class="st9"
   d="m 796.4,198.6 c 12.95016,-16.65782 33.24124,3.31999 14.26091,16.0333 C 793.79781,232.25292 768.57564,246.63988 743.6,242.4 718.97741,222.77936 760.07646,216.04043 774.31418,211.23054 782.1386,207.90908 789.57848,203.67372 796.4,198.6 Z"
   id="path77"
   style="opacity:1;fill:#8ea40a;fill-opacity:1" /><path
   class="st9"
   d="m 837.7,167 c -6.57843,22.77051 -26.49778,-0.12304 -10.7,-11.1 16.64529,-21.74203 8.36653,-49.80902 1.6375,-72.2 14.03131,-1.023133 13.3968,26.50697 15.64375,38.22793 C 845.12341,137.18801 842.93894,152.6329 837.7,167 Z"
   id="path79"
   style="opacity:1;fill:#8ea40a;fill-opacity:1" /><path
   class="st9"
   d="M 819.1,69.1 C 816.0484,52.665668 792.52738,49.50684 782.45955,36.782544 776.84737,23.081576 745.87891,4.9313619 747.07441,30.623047 767.21716,39.706923 791.52672,46.026992 805.8,65.4 c 2.48423,4.015839 9.53707,9.033182 13.3,3.7 z"
   id="path81"
   style="opacity:1;fill:#8ea40a;fill-opacity:1" /><path
   class="st9"
   d="m 863.6,122.9 c 12.22018,52.89086 -18.02942,111.19146 -68.27559,131.72207 -21.73188,11.92711 -9.12624,-23.05714 6.97559,-21.92207 42.27271,-19.59613 66.10206,-70.76296 53.6,-115.7 3.72844,-2.95994 7.6799,2.39919 7.7,5.9 z"
   id="path83"
   style="opacity:1;fill:#8ea40a;fill-opacity:1" /><path
   class="st8"
   d="m 420.2,210.5 c -11,-5.3 -23.5,-6.7 -35.1,-10.7 -37,-12.9 -61.3,-55.1 -53.7,-93.5 5.1,-25.8 49.1,-57.8 49.7,-57.3 10.4,7.8 28.9,5.7 37.6,-5.3 8.8,-10.9 6.7,-28.8 -4.1,-37.8 -11.2,-9.3 -30,-7.3 -39,4.2 -1.6,2.1 -2.9,4.4 -3.7,6.9 -3.4,9.6 -10.9,17.1 -20.2,21.3 -1.1,0.5 -2.2,1 -3.3,1.5 -21.2,10.7 -37.2,29.9 -47.5,51.2 -18.6,38 -19.8,85.2 1.4,121.9 21.1,36.7 65.7,59.8 107.1,51.3 13.9,-2.8 28.9,-11.3 30.4,-25.4 1.3,-12.2 -8.6,-23 -19.6,-28.3 z"
   id="path87" /><path
   class="st9"
   d="m 361,198.6 c -12.95016,-16.65782 -33.24124,3.31999 -14.26091,16.0333 16.8631,17.61962 42.08527,32.00658 67.06091,27.7667 24.62259,-19.62064 -16.47646,-26.35957 -30.71418,-31.16946 C 375.2614,207.90908 367.82152,203.67372 361,198.6 Z"
   id="path89"
   style="opacity:1;fill:#8ea40a;fill-opacity:1" /><path
   class="st9"
   d="m 319.7,167 c 6.5695,22.77858 26.5163,-0.13667 10.7,-11.1 -16.64529,-21.74203 -8.36653,-49.80902 -1.6375,-72.2 -14.03131,-1.023133 -13.3968,26.50697 -15.64375,38.22793 C 312.27659,137.18801 314.46106,152.6329 319.7,167 Z"
   id="path91"
   style="opacity:1;fill:#8ea40a;fill-opacity:1" /><path
   class="st9"
   d="m 338.3,69.1 c 3.0516,-16.434332 26.57262,-19.59316 36.64045,-32.317456 5.62589,-13.708829 36.56625,-31.8733734 35.38514,-6.159497 -6.72701,10.777419 -11.19075,4.70357 -16.95805,7.070186 C 377.78964,44.085637 362.04873,51.298894 351.6,65.4 c -2.47603,4.007446 -9.55756,9.050583 -13.3,3.7 z"
   id="path93"
   style="opacity:1;fill:#8ea40a;fill-opacity:1"
   sodipodi:nodetypes="cccscc" /><path
   class="st9"
   d="m 293.8,122.9 c -12.45921,53.79279 19.11384,113.12252 70.74715,132.75721 C 384.57668,263.42755 368.89558,231.24932 355.1,232.7 312.82729,213.10387 288.99794,161.93704 301.5,117 c -3.78136,-2.96136 -7.7046,2.32043 -7.7,5.9 z"
   id="path95"
   style="opacity:1;fill:#8ea40a;fill-opacity:1" /><ellipse
   class="st5"
   cx="578.70001"
   cy="483.60001"
   rx="321.60001"
   ry="279.20001"
   id="ellipse99" /><path
   class="st10"
   d="m 578.7,696.9 c 201.7,0 301.7,-113.1 315.6,-259.2 1.2,10 1.8,20.2 1.8,30.7 0,163.1 -99.2,295.3 -317.3,295.3 -218.1,0 -317.4,-132.2 -317.4,-295.3 0,-10.6 0.6,-21 1.8,-31 14.4,146.2 118.7,259.5 315.5,259.5 z"
   id="path101" /><path
   class="st11"
   d="m 414.1,623 c -2.8,6.8 -15.5,8.1 -28.3,2.9 -12.8,-5.3 -20.9,-15.1 -18.1,-21.9 2.8,-6.8 15.5,-8.1 28.3,-2.9 12.8,5.2 20.9,15.1 18.1,21.9 z"
   id="path103" /><path
   class="st11"
   d="m 483,700.4 c -4.8,11.6 -27.5,13.3 -50.7,3.8 -23.2,-9.5 -38.2,-26.7 -33.4,-38.3 4.8,-11.6 27.5,-13.3 50.7,-3.8 23.2,9.6 38.2,26.7 33.4,38.3 z"
   id="path105" /><path
   class="st11"
   d="m 557,658.4 c -2.2,5.3 -13.4,5.8 -25,1.1 -11.6,-4.8 -19.2,-13 -17,-18.3 2.2,-5.3 13.4,-5.8 25,-1.1 11.5,4.7 19.2,12.9 17,18.3 z"
   id="path107" /><path
   class="st11"
   d="m 686.4,616.8 c 2.7,6.9 -5.5,16.6 -18.3,21.7 -12.8,5.1 -25.5,3.7 -28.2,-3.2 -2.7,-6.9 5.5,-16.6 18.3,-21.7 12.8,-5.1 25.4,-3.7 28.2,3.2 z"
   id="path111" /><path
   class="st11"
   d="m 717.9,688.6 c 4.6,11.7 -10.5,28.6 -33.8,37.9 -23.3,9.3 -46,7.4 -50.6,-4.3 -4.7,-11.7 10.5,-28.6 33.8,-37.9 23.3,-9.3 46,-7.3 50.6,4.3 z"
   id="path113" /><path
   class="st11"
   d="m 789.9,582.9 c 2.1,5.4 -5.6,13.5 -17.2,18.2 -11.7,4.7 -22.9,4 -25,-1.3 -2.1,-5.4 5.6,-13.5 17.2,-18.2 11.7,-4.6 22.9,-4 25,1.3 z"
   id="path115" /><path
   class="st11"
   d="m 598.8,194.7 v 0 c 1.1,-1.2 2.2,-2.3 3.4,-3.4 v 0 c 1.2,-1.1 2.3,-2.2 3.5,-3.2 v 0 c 1.2,-1.1 2.4,-2.1 3.6,-3 v 0 c 1.2,-1 2.5,-1.9 3.7,-2.8 0,0 0.1,-0.1 0.1,-0.1 1.2,-0.9 2.5,-1.8 3.8,-2.6 0.1,0 0.1,-0.1 0.2,-0.1 1.2,-0.8 2.5,-1.6 3.8,-2.3 0.1,-0.1 0.2,-0.1 0.3,-0.2 1.2,-0.7 2.5,-1.4 3.8,-2.1 0.2,-0.1 0.3,-0.2 0.5,-0.2 1.2,-0.6 2.5,-1.2 3.8,-1.8 0.2,-0.1 0.4,-0.2 0.6,-0.3 1.2,-0.6 2.5,-1.1 3.7,-1.6 0.3,-0.1 0.5,-0.2 0.8,-0.3 1.2,-0.5 2.4,-0.9 3.6,-1.3 0.3,-0.1 0.6,-0.2 1,-0.3 1.2,-0.4 2.3,-0.7 3.5,-1.1 0.4,-0.1 0.8,-0.2 1.2,-0.3 1.1,-0.3 2.3,-0.6 3.5,-0.9 0.4,-0.1 0.9,-0.2 1.3,-0.3 1.1,-0.2 2.3,-0.5 3.4,-0.7 0.5,-0.1 1,-0.2 1.5,-0.3 1.1,-0.2 2.3,-0.3 3.4,-0.5 0.5,-0.1 1,-0.2 1.5,-0.2 1.2,-0.1 2.4,-0.2 3.6,-0.3 0.5,0 1,-0.1 1.4,-0.1 1.7,-0.1 3.4,-0.2 5.1,-0.2 h 1.2 c 53,0 96.6,43.1 97.3,96.1 0,1.5 0,3.1 0,4.6 0,0.5 -0.1,1.1 -0.1,1.6 0,1 -0.1,2 -0.2,3 0,0.7 -0.1,1.3 -0.2,2 -0.1,0.8 -0.2,1.7 -0.3,2.5 -0.1,0.7 -0.2,1.5 -0.3,2.2 -0.1,0.8 -0.2,1.5 -0.4,2.2 -0.1,0.8 -0.3,1.6 -0.5,2.4 -0.1,0.7 -0.3,1.3 -0.4,2 -0.2,0.8 -0.4,1.7 -0.6,2.5 -0.1,0.6 -0.3,1.1 -0.5,1.7 -0.2,0.9 -0.5,1.8 -0.8,2.7 -0.1,0.5 -0.3,0.9 -0.4,1.4 -0.3,1 -0.6,2 -1,3 -0.1,0.3 -0.2,0.6 -0.3,0.8 -3.8,10.5 -9.5,20.4 -16.9,29.1 v 0 c -1.5,1.9 -3.2,3.7 -4.9,5.4 -18.2,18.6 -42.5,29.1 -68.4,29.4 h -1.2 c -53,0 -96.6,-43.1 -97.3,-96.1 -0.2,-26.3 9.9,-50.2 26.6,-68 z"
   id="path121" /><path
   class="st11"
   d="m 417,194.7 v 0 c 1.1,-1.2 2.2,-2.3 3.4,-3.4 v 0 c 1.1,-1.1 2.3,-2.2 3.5,-3.2 v 0 c 1.2,-1.1 2.4,-2.1 3.6,-3 v 0 c 1.2,-1 2.5,-1.9 3.7,-2.8 0,0 0.1,-0.1 0.1,-0.1 1.2,-0.9 2.5,-1.8 3.8,-2.6 0.1,0 0.1,-0.1 0.2,-0.1 1.2,-0.8 2.5,-1.6 3.8,-2.3 0.1,-0.1 0.2,-0.1 0.3,-0.2 1.2,-0.7 2.5,-1.4 3.8,-2.1 0.1,-0.1 0.3,-0.2 0.5,-0.2 1.2,-0.6 2.5,-1.2 3.8,-1.8 0.2,-0.1 0.4,-0.2 0.6,-0.3 1.2,-0.6 2.5,-1.1 3.7,-1.6 0.3,-0.1 0.5,-0.2 0.8,-0.3 1.2,-0.5 2.4,-0.9 3.6,-1.3 0.3,-0.1 0.6,-0.2 1,-0.3 1.2,-0.4 2.4,-0.7 3.5,-1.1 0.4,-0.1 0.8,-0.2 1.1,-0.3 1.1,-0.3 2.3,-0.6 3.5,-0.9 0.4,-0.1 0.9,-0.2 1.3,-0.3 1.1,-0.2 2.3,-0.5 3.4,-0.7 0.5,-0.1 1,-0.2 1.5,-0.3 1.1,-0.2 2.3,-0.3 3.4,-0.5 0.5,-0.1 1,-0.2 1.5,-0.2 1.2,-0.1 2.4,-0.2 3.6,-0.3 0.5,0 1,-0.1 1.4,-0.1 1.7,-0.1 3.4,-0.2 5.1,-0.2 h 1.2 c 53,0 96.6,43.1 97.3,96.1 0,1.5 0,3.1 0,4.6 0,0.5 -0.1,1.1 -0.1,1.6 0,1 -0.1,2 -0.2,3 0,0.7 -0.1,1.3 -0.2,2 -0.1,0.8 -0.2,1.7 -0.3,2.5 -0.1,0.7 -0.2,1.5 -0.3,2.2 -0.1,0.8 -0.2,1.5 -0.4,2.2 -0.1,0.8 -0.3,1.6 -0.5,2.4 -0.1,0.7 -0.3,1.3 -0.4,2 -0.2,0.8 -0.4,1.7 -0.6,2.5 -0.1,0.6 -0.3,1.1 -0.5,1.7 -0.2,0.9 -0.5,1.8 -0.8,2.7 -0.1,0.5 -0.3,0.9 -0.4,1.4 -0.3,1 -0.6,2 -1,3 -0.1,0.3 -0.2,0.6 -0.3,0.8 -3.8,10.5 -9.5,20.4 -16.9,29.1 v 0 c -1.5,1.9 -3.2,3.7 -4.9,5.4 -18.2,18.6 -42.5,29.1 -68.4,29.4 h -1.2 c -53,0 -96.6,-43.1 -97.3,-96.1 -0.2,-26.3 10,-50.2 26.7,-68 z"
   id="path123" /><path
   class="st10"
   d="m 418.5,179.2 c 23.48014,-25.59943 61.61443,-36.36493 94.97856,-26.52512 37.61863,10.22588 66.71716,45.51763 69.16037,84.48943 3.11941,36.06993 -16.47691,72.75228 -48.15004,90.29923 -32.41038,18.94432 -75.89812,15.71409 -105.19233,-7.74786 C 401.14536,298.3183 386.80122,260.45333 394.31102,225.8161 397.79897,208.41326 406.30899,192.09108 418.5,179.2 Z"
   id="path125" /><path
   class="st10"
   d="m 600.3,179.2 c 23.48014,-25.59943 61.61443,-36.36493 94.97856,-26.52512 37.61863,10.22588 66.71716,45.51763 69.16037,84.48943 2.87773,33.30684 -13.37072,67.31794 -41.14518,85.97163 -30.70382,21.70552 -74.41652,22.18022 -105.61486,1.20892 -30.43004,-19.38978 -47.92084,-57.01974 -42.48768,-92.7805 C 577.83818,212.04712 586.81702,193.53257 600.3,179.2 Z"
   id="path127" /><path
   class="st12"
   d="m 725.6,229.9 c -4.8,-3.1 -4.3,-9 -6.7,-13.8 -5.3,-10.6 -13.7,-15.9 -23.2,-19.1 -7,-2.4 -14.6,-3.7 -22.2,-5.3 -8.3,-1.8 -26.2,-6.4 -20.5,-18.8 3.7,-8 20.3,-8.8 27.9,-9 21.8,-0.6 47.5,18.7 56.2,38.1 3.7,8 5.7,39.2 -11.5,27.9 z"
   id="path129" /><path
   class="st12"
   d="m 499.1,163.9 c 21.8,-0.6 47.5,18.7 56.3,38.1 3.6,8 5.6,39.2 -11.6,27.9 -4.8,-3.1 -4.3,-9 -6.7,-13.8 -5.4,-10.6 -13.7,-15.9 -23.2,-19.1 -7,-2.4 -14.6,-3.7 -22.2,-5.3 -8.3,-1.8 -26.2,-6.4 -20.5,-18.8 3.7,-8 20.3,-8.8 27.9,-9 z"
   id="path131" /><path
   class="st13"
   d="m 402.5,245.6 c 0.6,47 39.4,84.8 86.3,84.1 27.3,-0.3 51.4,-13.5 66.8,-33.7 9.6,-12.6 15.8,-27.9 17.1,-44.6 -1.1,-0.4 -2.2,-0.7 -3.3,-1.1 -3,9.9 -7.7,19.1 -13.8,27.1 -15.4,20.2 -39.5,33.4 -66.8,33.7 -43.6,0.5 -80,-31.9 -85.5,-74 -0.1,0.1 -0.3,0.1 -0.5,0.1 -0.2,2.8 -0.3,5.5 -0.3,8.4 z"
   id="path133" /><path
   class="st13"
   d="m 584.4,245.6 c 0.6,47 39.3,84.8 86.3,84.1 27.3,-0.3 51.4,-13.5 66.8,-33.7 9.6,-12.6 15.8,-27.9 17.1,-44.6 -1.1,-0.4 -2.2,-0.7 -3.3,-1.1 -3,9.9 -7.7,19.1 -13.8,27.1 -15.4,20.2 -39.5,33.4 -66.8,33.7 -43.6,0.5 -80,-31.9 -85.5,-74 -0.1,0.1 -0.3,0.1 -0.5,0.1 -0.2,2.8 -0.3,5.5 -0.3,8.4 z"
   id="path135" /><path
   class="st14"
   d="m 403.3,237.2 c 3.84251,31.93087 27.5873,60.19403 58.20923,69.84802 28.86857,9.66828 62.5974,2.179 84.54695,-18.96269 C 556.94185,277.8499 565.19105,264.75796 569.4,250.4 533.01176,238.59551 494.37037,237.09902 456.43829,236.04158 438.7196,235.7517 420.98785,236.09942 403.3,237.2 Z"
   id="path137" /><path
   class="st14"
   d="m 585.1,237.2 c 3.84251,31.93087 27.5873,60.19403 58.20923,69.84802 28.86857,9.66828 62.5974,2.179 84.54695,-18.96269 C 738.74185,277.8499 746.99105,264.75796 751.2,250.4 714.83058,238.60086 676.20953,237.10218 638.29681,236.04158 620.5586,235.75075 602.80752,236.10269 585.1,237.2 Z"
   id="path139" /><path
   class="st4"
   d="m 452.2,291.1 c -7.7,0.1 -14,-6 -14,-13.7 -0.1,-7.7 6,-14 13.7,-14 7.7,-0.1 14,6 14,13.7 0.1,7.6 -6,13.9 -13.7,14 z"
   id="path141"
   style="fill:#000000;fill-opacity:1;opacity:1" /><path
   class="st4"
   d="m 634,291.1 c -7.7,0.1 -14,-6 -14,-13.7 -0.1,-7.7 6,-14 13.7,-14 7.7,-0.1 14,6 14,13.7 0.1,7.6 -6,13.9 -13.7,14 z"
   id="path143"
   style="fill:#000000;fill-opacity:1;opacity:1" /><ellipse
   class="st4"
   cx="578.70001"
   cy="495"
   rx="207.3"
   ry="110"
   id="ellipse147" /><path
   class="st15"
   d="m 569.8,584.1 c 49.6,-143.1 117.3,-71.6 121.5,3.2 -32.4,11.2 -71.1,17.7 -112.7,17.7 -46.5,0 -89.4,-8.1 -124,-21.8 22.4,-109.4 51.5,-92.9 115.2,0.9 z"
   id="path149" /><path
   class="st14"
   d="m 467.1,402.3 c 22.1,-7.5 47.1,-12.9 73.9,-15.5 l -15.1,79.8 z"
   id="path151" /><path
   class="st14"
   d="m 633.1,388.8 c 23.1,3.3 44.5,8.7 63.7,15.7 l -50.3,55 z"
   id="path153" /><path
   class="st14"
   d="M 445,579 C 419.7,567.7 399.6,553.2 386.9,536.7 L 450,499.9 Z"
   id="path155" /><path
   class="st14"
   d="m 766.9,541.1 c -13.8,15.8 -34.3,29.5 -59.7,40.2 L 700,505.7 Z"
   id="path157" />
</svg>
