<?xml version="1.0" encoding="UTF-8" standalone="no"?>
<!-- Generator: Adobe Illustrator 26.1.0, SVG Export Plug-In . SVG Version: 6.00 Build 0)  -->

<svg
   version="1.1"
   id="Layer_1"
   x="0px"
   y="0px"
   viewBox="0 0 778.8 885.1"
   style="enable-background:new 0 0 778.8 885.1;"
   xml:space="preserve"
   sodipodi:docname="2023-CA-02-ricca3.svg"
   inkscape:version="1.1.1 (3bf5ae0d25, 2021-09-20)"
   xmlns:inkscape="http://www.inkscape.org/namespaces/inkscape"
   xmlns:sodipodi="http://sodipodi.sourceforge.net/DTD/sodipodi-0.dtd"
   xmlns="http://www.w3.org/2000/svg"
   xmlns:svg="http://www.w3.org/2000/svg"><defs
   id="defs164">

	

	
	
	

		
	
		
		
		
	
		
		
	
			
			
			
			
			
			
			
			
			
			
			
		
				
				
				
			
				
				
				
				
			
				
				
				
			
				
				
				
			
				
				
				
			
				
				
				
				
			
				
				
				
				
				
				
				
				
				
				
				
				
				
				
				
				
				
				
			
				
				
				
			
					
					
					
				
					
					
					
					
					
				
					
					
				
					
					
				
					
					
					
				</defs><sodipodi:namedview
   id="namedview162"
   pagecolor="#ffffff"
   bordercolor="#666666"
   borderopacity="1.0"
   inkscape:pageshadow="2"
   inkscape:pageopacity="0.0"
   inkscape:pagecheckerboard="0"
   showgrid="false"
   inkscape:zoom="1.6246752"
   inkscape:cx="403.46525"
   inkscape:cy="355.45566"
   inkscape:window-width="2048"
   inkscape:window-height="1017"
   inkscape:window-x="-8"
   inkscape:window-y="-8"
   inkscape:window-maximized="1"
   inkscape:current-layer="Layer_1" />
<style
   type="text/css"
   id="style2">
	.st0{fill:#9DA939;}
	.st1{fill:#FFFFFF;}
	.st2{fill:#BFD921;}
	.st3{fill:#E5E6E7;}
	.st4{fill:#231F20;}
	.st5{fill:#D8E03D;}
	.st6{fill:#CBE723;}
	.st7{fill:#B91F64;}
	.st8{fill:#FF2E89;}
	.st9{fill:#ACC610;}
</style>
<path
   class="st0"
   d="m 378,82.2 c 0,0 -25.2,68.9 -6,110.3 l 40,-20.7 c 0,0 -37.3,-53.1 -13,-90.3 z"
   id="path4" /><path
   class="st1"
   d="m 441.2,39.5 c 16.6,28.5 7,65.1 -21.5,81.8 -28.5,16.6 -65.1,7 -81.8,-21.5 -16.6,-28.5 -7,-65.1 21.5,-81.8 28.5,-16.6 65.2,-7 81.8,21.5 z"
   id="path6" /><path
   id="path1390"
   d="M 390.91797 0.00390625 C 378.62367 -0.25001221 366.11172 2.7351562 354.69922 9.3007812 L 354.40039 9.5 C 338.30039 18.9 326.79961 34 322.09961 52 C 317.39961 70 320.00078 88.700781 329.30078 104.80078 C 348.70078 137.90078 391.30039 149.1 424.40039 130 L 424.69922 129.80078 C 440.79922 120.40078 452.3 105.30078 457 87.300781 C 461.7 69.400781 459.20078 50.6 449.80078 34.5 C 437.06953 12.778125 414.3889 0.48865967 390.91797 0.00390625 z "
   style="font-variation-settings:normal;opacity:1;vector-effect:none;fill:#bfd921;fill-opacity:1;stroke-width:1;stroke-linecap:butt;stroke-linejoin:miter;stroke-miterlimit:4;stroke-dasharray:none;stroke-dashoffset:0;stroke-opacity:1;-inkscape-stroke:none;stop-color:#000000;stop-opacity:1" /><path
   class="st1"
   d="m 349,103.9 c -8.6,-23.7 0.8,-50.9 23.4,-64 22.6,-13.1 50.8,-7.6 67.1,11.7 8.6,23.7 -0.7,50.9 -23.4,64 -22.6,13.1 -50.8,7.6 -67.1,-11.7 z"
   id="path12" /><path
   class="st3"
   d="M 343.6,96.2 C 329,70.8 337.7,38.4 363,23.7 388.3,9 420.8,17.8 435.5,43.1 c 1.6,2.8 2.9,5.6 4,8.5 -16.3,-19.3 -44.4,-24.8 -67.1,-11.7 -22.7,13.1 -32,40.2 -23.4,64 -1.9,-2.4 -3.8,-4.9 -5.4,-7.7 z"
   id="path14" /><path
   class="st4"
   d="m 372.2,103.2 c -4.1,-7.2 -1.7,-16.4 5.5,-20.5 7.2,-4.2 16.4,-1.7 20.5,5.5 4.2,7.2 1.7,16.4 -5.5,20.5 -7.2,4.1 -16.4,1.7 -20.5,-5.5 z"
   id="path16" />

<path
   class="st4"
   d="m 37.1,258.3 c 0,0 -7.6,-29.6 -37.1,-24.6 0,0 25.6,19.4 20.4,39.9 z"
   id="path23" /><path
   class="st4"
   d="m 75.8,240.5 c 0,0 -8.8,-36 -38.4,-33.5 0,0 23,21.9 15.2,39.9 z"
   id="path25" /><path
   class="st4"
   d="m 115.6,235.5 c 0,0 4,-29.5 -29.4,-34.8 0,0 17.5,14.8 10.6,32.4 -0.1,0.1 13.6,13.9 18.8,2.4 z"
   id="path27" /><path
   class="st2"
   d="m 177.2,457 c -40.4033,-35.58517 -66.42411,-90.39797 -58.98352,-144.8216 1.56471,-17.67187 11.05335,-33.72389 10.79434,-51.71487 0.95339,-11.4743 -4.68512,-25.40228 -17.51723,-26.90009 -8.32766,-1.61957 -28.006239,1.72713 -29.63109,1.02406 5.302462,-0.51608 21.95734,-1.98441 8.012167,-1.02091 -31.649255,2.63312 -65.184666,17.72962 -79.519565,47.64081 -12.9773551,27.25877 -11.29396779,59.77802 0.323904,87.2139 20.505335,53.87096 65.898237,95.85258 118.771264,117.44168 14.41166,5.65401 29.09153,11.5849 44.41825,13.97289 5.37716,0.38805 10.75432,0.77609 16.13148,1.16413 -4.26667,-14.66667 -8.53333,-29.33333 -12.8,-44 z"
   id="path29" /><path
   class="st4"
   d="m 741.7,258.3 c 0,0 7.6,-29.6 37.1,-24.6 0,0 -25.6,19.4 -20.4,39.9 z"
   id="path33" /><path
   class="st4"
   d="m 703,240.5 c 0,0 8.8,-36 38.4,-33.5 0,0 -23,21.9 -15.2,39.9 z"
   id="path35" /><path
   class="st4"
   d="m 663.2,235.5 c 0,0 -4,-29.5 29.4,-34.8 0,0 -17.5,14.8 -10.6,32.4 0,0.1 -13.6,13.9 -18.8,2.4 z"
   id="path37" /><path
   class="st2"
   d="m 601.6,457 c 40.4033,-35.58517 66.42411,-90.39797 58.98352,-144.8216 -1.56471,-17.67187 -11.05335,-33.72389 -10.79434,-51.71487 -0.95339,-11.4743 4.68512,-25.40228 17.51723,-26.90009 8.32766,-1.61957 28.00624,1.72713 29.63109,1.02406 -5.30967,-0.51589 -21.95791,-1.9877 -8.00561,-1.01473 31.66924,2.66506 65.22932,17.75337 79.59993,47.67529 12.99528,27.24006 11.30096,59.74877 -0.30754,87.17324 -20.48961,53.85658 -65.84756,95.84672 -118.70108,117.44168 -14.40244,5.65372 -29.07305,11.58557 -44.39115,13.97285 C 599.7547,500.22389 594.37735,500.61194 589,501 c 4.2,-14.66667 8.4,-29.33333 12.6,-44 z"
   id="path39" /><path
   class="st0"
   d="m 263.2,102.6 c 0,0 56.3,47 60.3,92.5 l -45,2.1 c 0,0 5.8,-64.6 -33.9,-84.7 z"
   id="path43" /><path
   class="st1"
   d="m 187.1,97.3 c -0.1,33 26.5,59.9 59.5,60.1 33,0.1 59.9,-26.5 60.1,-59.5 0.2,-33 -26.5,-59.9 -59.5,-60.1 -33,-0.2 -59.9,26.5 -60.1,59.5 z"
   id="path45" /><path
   id="path1414"
   d="M 246.90039 27.900391 C 208.60039 27.900391 177.39922 59.000781 177.19922 97.300781 C 177.09922 115.90078 184.30039 133.49922 197.40039 146.69922 C 210.50039 159.89922 227.99961 167.20078 246.59961 167.30078 L 246.90039 167.30078 C 285.20039 167.30078 316.39961 136.20039 316.59961 97.900391 C 316.69961 79.300391 309.50039 61.7 296.40039 48.5 C 283.30039 35.3 265.79922 28.000391 247.19922 27.900391 L 246.90039 27.900391 z "
   style="font-variation-settings:normal;opacity:1;vector-effect:none;fill:#bfd921;fill-opacity:1;stroke-width:1;stroke-linecap:butt;stroke-linejoin:miter;stroke-miterlimit:4;stroke-dasharray:none;stroke-dashoffset:0;stroke-opacity:1;-inkscape-stroke:none;stop-color:#000000;stop-opacity:1" /><path
   class="st1"
   d="m 237.6,45.3 c 24.9,4.4 43.7,26.2 43.7,52.2 0,26 -18.9,47.8 -43.7,52.2 -24.9,-4.4 -43.7,-26.1 -43.7,-52.2 0,-26.1 18.8,-47.7 43.7,-52.2 z"
   id="path51" /><path
   class="st3"
   d="m 246.9,44.5 c 29.3,0 53.1,23.8 53.1,53.1 0,29.3 -23.8,53.1 -53.1,53.1 -3.2,0 -6.3,-0.3 -9.4,-0.8 24.8,-4.4 43.7,-26.1 43.7,-52.3 0,-26.2 -18.9,-47.8 -43.7,-52.2 3.1,-0.6 6.2,-0.9 9.4,-0.9 z"
   id="path53" /><path
   class="st4"
   d="m 226.6,96.4 c 8.3,0 15,6.7 15,15 0,8.3 -6.7,15 -15,15 -8.3,0 -15,-6.7 -15,-15 0,-8.3 6.7,-15 15,-15 z"
   id="path55" /><path
   class="st0"
   d="m 515.6,102.6 c 0,0 -56.3,47 -60.3,92.5 l 45,2.1 c 0,0 -5.8,-64.6 33.9,-84.7 z"
   id="path61" /><path
   class="st1"
   d="m 591.7,97.3 c 0.2,33 -26.5,59.9 -59.5,60.1 -33,0.1 -59.9,-26.5 -60.1,-59.5 -0.2,-33 26.5,-59.9 59.5,-60.1 33,-0.2 59.9,26.5 60.1,59.5 z"
   id="path63" /><path
   id="path1078"
   d="m 531.59961,27.900391 c -18.6,0 -36.09922,7.399609 -49.19922,20.599609 -13.1,13.2 -20.30117,30.800391 -20.20117,49.400391 0.2,38.299999 31.40117,69.400389 69.70117,69.400389 h 0.29883 c 18.6,0 36.10117,-7.40156 49.20117,-20.60156 13.1,-13.2 20.29922,-30.79844 20.19922,-49.398439 -0.2,-38.4 -31.39922,-69.40039 -69.69922,-69.40039 z"
   style="font-variation-settings:normal;opacity:1;vector-effect:none;fill:#bfd921;fill-opacity:1;stroke-width:1;stroke-linecap:butt;stroke-linejoin:miter;stroke-miterlimit:4;stroke-dasharray:none;stroke-dashoffset:0;stroke-opacity:1;-inkscape-stroke:none;stop-color:#000000;stop-opacity:1" /><path
   class="st1"
   d="m 541.2,149.8 c -24.8,-4.4 -43.7,-26.2 -43.7,-52.3 0,-26.1 18.8,-47.8 43.7,-52.2 24.8,4.4 43.7,26.1 43.7,52.2 0,26.1 -18.8,47.9 -43.7,52.3 z"
   id="path69" /><path
   class="st3"
   d="m 531.9,150.6 c -29.3,0 -53.1,-23.8 -53.1,-53.1 0,-29.3 23.8,-53.1 53.1,-53.1 3.2,0 6.3,0.3 9.4,0.8 -24.8,4.4 -43.7,26.1 -43.7,52.2 0,26.1 18.8,47.8 43.7,52.3 -3.1,0.6 -6.3,0.9 -9.4,0.9 z"
   id="path71" /><path
   class="st4"
   d="m 552.2,129.4 c -8.3,0 -15,-6.7 -15,-15 0,-8.3 6.7,-15 15,-15 8.3,0 15,6.7 15,15 0,8.3 -6.7,15 -15,15 z"
   id="path73" /><path
   class="st2"
   d="m 649.4,766.4 c 0,0 5.3,-253.4 2.2,-275.8 C 636,170.4 410.3,168.2 396.3,168.4 c -14,-0.2 -239.7,1.9 -255.3,322.2 -3.2,22.4 2.1,275.8 2.1,275.8 -43.2,66.7 11.5,86.9 31,88.8 137.5,13.5 88.7,-42.3 88.7,-42.3 24.2,-107.8 242.7,-107.8 266.9,0 0,0 -48.8,55.8 88.7,42.3 19.5,-1.9 74.2,-22.1 31,-88.8 z"
   id="path79" /><path
   class="st5"
   d="m 146.93957,473.9 c 0,0 4.36043,-296.7 251.36043,-287 0,0 158.2017,-5.47384 226.30321,169.53411 l 9.02218,16.89018 C 574.42769,162.23927 395.6,168.4 395.6,168.4 c -247,-9.7 -251.36043,287 -251.36043,287 z"
   id="path81"
   sodipodi:nodetypes="ccccccc" /><path
   class="st7"
   d="m 526.5,325.7 c -19.2,-30.9 -54.9,-49.1 -90.5,-55.9 -13.8,-2.6 -30.7,-5.6 -44.8,-5.6 -37.3,-0.2 -73.3,5.1 -104,27.3 -27.4,19.8 -47.1,51.1 -48.5,84.6 -0.8,17.7 4.3,35.2 15.6,49.2 10.8,13.2 25.7,22.8 41.7,29 19.3,7.5 40.1,10.5 60.7,12.8 22,2.4 44.3,3.9 66.4,2 37.3,-3.2 75.6,-16.9 98.8,-47 10.2,-13.3 17,-29.1 18.1,-45.7 1.2,-17.8 -4.1,-35.6 -13.5,-50.7 z"
   id="path85" /><path
   class="st8"
   d="m 491.1,378.9 c -34.4,-16.5 -74.5,-5.8 -100.2,21.1 -24.3,-22.6 -61.5,-30 -92.2,-16.7 -19.4,8.4 -34.7,24.2 -43.4,43.1 10.7,12.7 25.2,21.9 40.8,27.9 19.3,7.5 40.1,10.5 60.7,12.8 22,2.4 44.3,3.9 66.4,2 37.3,-3.2 75.6,-16.9 98.8,-47 1.7,-2.2 3.2,-4.4 4.7,-6.7 -7.1,-15.7 -19.6,-28.8 -35.6,-36.5 z"
   id="path87" /><path
   class="st1"
   d="m 272.5,349.1 c 2.3,5.1 7,7.3 12.4,5.3 7.9,-3 12.9,-12.4 16.4,-19.5 8.1,-16.5 13.8,-36.8 14.7,-55.1 0,-1.2 0,-2.5 0,-3.8 -10,3.9 -19.6,8.9 -28.8,15.5 -6.1,4.4 -11.7,9.3 -16.9,14.7 -2.9,14 -3.5,30.4 2.2,42.9 z"
   id="path89" /><path
   class="st1"
   d="m 394.4,297.3 c 0.5,6.1 0.4,16.3 6.5,20 5.9,3.6 12.5,-2.4 16.3,-6.5 10.7,-11.5 13.4,-27 12.8,-42.2 -10.8,-2 -22.6,-3.7 -33.4,-4.2 -2.2,10.8 -3,21.8 -2.2,32.9 z"
   id="path91" /><path
   class="st1"
   d="m 502.9,334.4 c 1.1,9.5 4.1,36.9 20.3,27 5.8,-3.6 9.4,-11.1 11.8,-17.2 0.1,-0.2 0.1,-0.4 0.2,-0.6 -2.2,-6.3 -5.2,-12.3 -8.7,-18 -6.7,-10.7 -15.4,-19.8 -25.3,-27.5 0,12.2 0.4,24.3 1.7,36.3 z"
   id="path93" /><path
   class="st1"
   d="m 304.4,422.1 c -2.9,-4.9 -7.1,-12.4 -13.9,-11.8 -6.4,0.6 -9.7,7.8 -11,13.3 -1.8,7.5 -1.1,15.3 0.4,22.8 5.2,3 10.5,5.7 16.1,7.9 7.4,2.9 15.1,5 22.8,6.7 -1.4,-4.7 -2.8,-9.3 -4.1,-13.7 -2.6,-8.7 -5.7,-17.4 -10.3,-25.2 z"
   id="path95" /><path
   class="st1"
   d="m 496.4,402.9 c -2.9,-5.5 -8.7,-9.8 -14.8,-6 -7.2,4.4 -11.1,15.8 -13.5,23.4 -4.4,13.6 -7.2,27.9 -9.6,42.2 13.4,-3.9 26.2,-9.5 37.7,-17 4.3,-14.3 6.6,-30.4 0.2,-42.6 z"
   id="path97" /><path
   class="st9"
   d="m 213.8,511.4 c 1.9,-3.7 3.2,-7.6 4.2,-11 1.8,-6.2 3.6,-13.3 0,-19.9 -1,-1.8 -3.1,-4.3 -5.8,-5.9 -2.7,-1.7 -5.9,-2.6 -9.2,-1.2 -3.5,1.5 -5.2,5.3 -6.6,7.7 -1.8,2.9 -3,5.9 -3.8,8.9 -0.1,0.2 -1.1,4.7 -1.6,9.9 -0.5,5.3 -0.6,11.3 1.3,15.8 2,4.7 8.6,7.9 13.2,5.1 3.6,-2.3 6.3,-5.8 8.3,-9.4 z"
   id="path103" /><path
   class="st9"
   d="m 239.5,504.1 c -1.5,0.7 -2.1,2.2 -2.7,3.3 -0.7,1.2 -1.3,2.5 -1.6,3.9 0,0.1 -0.5,2.1 -0.7,4.6 -0.2,2.5 0,5.7 1.3,7.6 1.3,2 4.6,2.3 6.2,0.9 2.6,-2.2 3.6,-5.7 4.4,-8.6 0.7,-2.6 1.6,-5.9 -0.1,-9 -0.9,-1.8 -4.1,-4.1 -6.8,-2.7 z"
   id="path105" /><path
   class="st9"
   d="m 229.9,562.4 c 0.7,-2.7 1.4,-5.7 1.5,-8.8 0.1,-3.2 -0.5,-6.5 -2.4,-9.5 -1.1,-1.6 -3.3,-3.6 -5.8,-4.6 -2.6,-1 -5.5,-1.1 -8.1,0.4 -2.8,1.6 -3.8,4.5 -4.9,6.5 -1.3,2.3 -2.3,4.8 -2.8,7.5 0,0.2 -0.8,4.1 -1.1,9.2 -0.3,5.1 0.2,11.4 3,15.2 2.9,3.9 9.3,3.9 12.4,1.2 2.5,-2.3 4.1,-5 5.4,-8 1.2,-3 2.1,-6.2 2.8,-9.1 z"
   id="path107" /><path
   class="st9"
   d="m 190.5,568.3 c -2,-2.7 -7.9,-6.6 -12.6,-3.7 -2.5,1.6 -3.4,4.6 -4.3,6.6 -1.1,2.4 -1.7,4.9 -1.9,7.5 0,0.2 -0.3,4 0.1,8.6 0.4,4.6 1.7,10 4.5,13 2.9,3.1 8.8,2.7 11.2,-0.3 4,-4.7 4.7,-11.1 5.3,-16.3 0.6,-4.7 1.3,-10.5 -2.3,-15.4 z"
   id="path109" /><path
   class="st9"
   d="m 237.8,606.7 c -2.3,-1 -5,-1.1 -7.4,0.2 -2.6,1.4 -3.5,4 -4.6,5.9 -1.2,2.2 -2.1,4.6 -2.6,7.2 0,0.2 -0.8,3.9 -0.7,8.8 0,4.8 1.1,11.1 4.3,14.2 3.4,3.3 9,1.4 11.2,-1.1 1.8,-2.1 3,-4.5 3.9,-7 0.9,-2.5 1.4,-5.3 2,-7.8 0.5,-2.3 1.1,-4.9 1.1,-7.6 0.1,-2.7 -0.4,-5.7 -2.1,-8.4 -0.9,-1.6 -2.8,-3.4 -5.1,-4.4 z"
   id="path111" /><path
   class="st9"
   d="m 271.3,579.3 c 1.8,1.8 5.1,1 6.4,-0.5 1.1,-1.3 1.7,-2.7 2.2,-4.2 0.5,-1.5 0.8,-3.1 1,-4.5 0.5,-2.6 1.3,-5.8 -0.5,-8.9 -1,-1.7 -4.2,-4.2 -7,-2.8 -1.5,0.8 -2.2,2.4 -2.8,3.5 -0.7,1.3 -1.3,2.7 -1.5,4.2 0,0.1 -0.4,2.3 -0.4,5.1 0,2.8 0.8,6.3 2.6,8.1 z"
   id="path113" /><path
   class="st9"
   d="m 195.1,623.5 c -1.4,1.1 -1.8,2.9 -2.2,4.2 -0.5,1.5 -0.7,3 -0.7,4.5 0,0.2 0.1,8.9 3.5,12.3 1.8,1.8 5.2,1.6 6.6,-0.2 2.3,-3 2.5,-7 2.6,-10.2 0.1,-2.9 0.2,-6.3 -2.2,-9 -1.2,-1.5 -4.9,-3.6 -7.6,-1.6 z"
   id="path115" /><path
   class="st9"
   d="m 277.3,638.9 c -2.2,-0.9 -4.6,-0.9 -6.8,0.3 -2.3,1.3 -3.2,3.9 -4.1,5.6 -1.1,2.1 -1.9,4.3 -2.2,6.7 0,0.2 -0.6,3.6 -0.5,8.1 0.1,4.5 1.2,10.1 4.1,12.9 3,3 8.3,1.6 10.4,-0.9 1.7,-2.1 2.8,-4.3 3.6,-6.7 0.8,-2.4 1.3,-5 1.7,-7.4 0.4,-2.2 0.9,-4.6 0.9,-7.2 0,-2.5 -0.5,-5.3 -2.1,-7.7 -1,-1.2 -2.8,-2.9 -5,-3.7 z"
   id="path117" /><path
   class="st9"
   d="m 576.5,492.5 c 0.1,0.2 1.3,3.5 3.3,7.3 2,3.8 4.5,8 7.8,10.2 3.5,2.3 9.3,1.4 11.2,-2.5 1.5,-3 1.8,-6.5 1.5,-9.9 -0.3,-3.4 -1.2,-6.6 -2,-9.4 -1.6,-5.1 -3.7,-11 -9.3,-13.7 -3.1,-1.5 -10.3,-2.4 -13.2,2.6 -1.6,2.6 -0.9,5.8 -0.8,8 0.2,2.6 0.7,5.1 1.5,7.4 z"
   id="path119" /><path
   class="st9"
   d="m 617.7,579.4 c -0.8,-3.5 -2.4,-7 -5.3,-9.7 -1.6,-1.5 -4.6,-2.8 -7.6,-3 -3,-0.2 -6.1,0.7 -8.4,3.1 -1.2,1.3 -1.8,2.7 -2.2,4.1 -0.5,1.4 -0.6,2.8 -0.9,4 -0.7,2.7 -1.1,5.4 -1,8.3 0,0.2 0.1,4.3 0.9,9.5 0.8,5.2 2.3,11.7 5.9,15.3 3.6,3.8 10.7,3.1 13.6,-0.5 2.4,-2.9 3.8,-6.3 4.6,-10 0.8,-3.6 1.1,-7.4 1.2,-10.9 0,-3.1 0,-6.7 -0.8,-10.2 z"
   id="path121" /><path
   class="st9"
   d="m 573.1,568.8 c 3.8,2.2 8.7,-0.6 10.2,-3.6 1.2,-2.4 1.8,-4.9 2,-7.5 0.2,-2.6 0.1,-5.3 0,-7.8 -0.1,-2.3 -0.2,-4.9 -0.9,-7.6 -0.7,-2.6 -1.9,-5.3 -4.3,-7.4 -1.3,-1.1 -3.6,-2.3 -6,-2.4 -2.4,-0.2 -4.8,0.6 -6.6,2.5 -1.9,2 -2,4.5 -2.5,6.5 -0.5,2.2 -0.8,4.6 -0.6,7 0,0.1 0.1,1 0.3,2.5 0.2,1.5 0.6,3.5 1.2,5.7 1.1,4.4 3.5,9.9 7.2,12.1 z"
   id="path123" /><path
   class="st9"
   d="m 586.3,629.9 c -1,-1.3 -2.8,-3.1 -5,-4.5 -2.2,-1.3 -4.9,-2.2 -7.6,-0.8 -1.5,0.8 -2.5,2 -3.3,3.5 -0.8,1.4 -1.3,2.9 -1.8,4 -1.2,2.8 -1.8,5.6 -2,8.2 0,0.2 -0.2,4.1 0,8.1 0.1,2 0.3,4.1 0.7,6.1 0.3,2 0.8,3.9 1.7,5.7 1.7,3.6 6.9,6.9 10.9,4.3 3.1,-2.1 5.3,-5.5 6.6,-9.1 1.3,-3.5 1.8,-7.1 2.1,-10 0.3,-2.7 0.6,-5.4 0.3,-8 -0.2,-2.7 -0.9,-5.1 -2.6,-7.5 z"
   id="path125" /><path
   class="st9"
   d="m 540.9,660.4 c -2.5,-1.5 -5.4,-2 -8.3,-0.9 -3.1,1.2 -4.6,4.3 -6,6.5 -1.7,2.5 -2.9,5.2 -3.6,8.2 0,0.2 -1.2,4.5 -1.4,10 -0.1,2.8 0,5.8 0.6,8.8 0.6,2.9 1.7,5.8 3.4,7.7 1.8,2 4.4,2.5 6.8,2 1.2,-0.2 2.4,-0.6 3.4,-1.1 1,-0.5 1.9,-1 2.6,-1.7 2.2,-2.2 3.7,-4.7 4.8,-7.6 1.2,-2.8 2,-5.9 2.8,-8.7 1.4,-5.1 3.4,-11.3 0.3,-17.7 -1,-1.7 -2.9,-4 -5.4,-5.5 z"
   id="path127" /><path
   class="st9"
   d="m 546.2,575.6 c -2.1,-1.2 -4.6,-2 -7.2,-0.8 -2.7,1.3 -3.9,4.5 -4.9,6.5 -1.2,2.5 -2,5.1 -2.3,7.7 0,0.2 -0.4,4.1 0,8.7 0.5,4.6 1.8,9.9 4.7,12.8 3,3 8.6,2.4 11,-0.5 3.8,-4.7 4.3,-10.9 5,-15.8 0.5,-4.5 1.4,-9.5 -1.6,-14.3 -0.9,-1.3 -2.6,-3.1 -4.7,-4.3 z"
   id="path129" /><path
   class="st9"
   d="m 321.4,672.5 c -0.7,-0.6 -2.5,-1.5 -3.7,-0.4 -0.6,0.6 -0.7,1.5 -0.8,2.2 -0.1,0.8 -0.2,1.5 -0.1,2.2 0,0.1 0.1,1.1 0.5,2.3 0.3,1.2 0.8,2.5 1.6,3.2 0.8,0.8 2.5,0.8 3.2,-0.1 1.1,-1.6 1,-3.7 0.9,-5.2 -0.2,-1.5 -0.3,-3.1 -1.6,-4.2 z"
   id="path131" /><path
   class="st9"
   d="m 491.9,666.1 c -1.5,-1.9 -4.4,-4 -7.7,-5 -3.3,-1 -7,-0.9 -10,1.3 -3.3,2.3 -4.2,6.2 -5.3,8.8 -1.3,3.1 -2.2,6.2 -2.6,9.4 0,0.2 -0.6,4.9 -0.6,10.5 0,5.7 0.3,12.3 2.9,17.1 2.7,4.9 10.2,7.5 14.9,4.1 3.7,-2.7 6.2,-6.6 8,-10.8 1.8,-4.2 2.8,-8.6 3.5,-12.5 0.6,-3.6 1.2,-7.5 1,-11.5 -0.2,-4 -1.4,-8 -4.1,-11.4 z"
   id="path133" /><path
   class="st9"
   d="m 308.1,599.8 c -1.4,-0.2 -2.8,0.2 -3.8,1.3 -1.1,1.1 -1.2,2.7 -1.5,3.7 -0.3,1.3 -0.5,2.5 -0.4,3.8 0,0.1 0.1,2 0.5,4.3 0.4,2.3 1.1,5.2 2.7,6.8 1.6,1.7 4.8,1.5 6.1,-0.2 2.2,-2.7 2.4,-6.4 2.5,-9.5 0,-2.8 -0.1,-6.4 -2.7,-8.8 -0.7,-0.7 -2,-1.3 -3.4,-1.4 z"
   id="path135" /><path
   class="st9"
   d="m 572.3,425.3 c 1.8,-6.4 -0.6,-13 -2.4,-18 -1.7,-4.6 -3.3,-9.9 -8.6,-12.9 -1.5,-0.8 -4,-1.7 -6.5,-1.8 -2.6,-0.1 -5.3,0.5 -7,2.9 -1.9,2.6 -1.5,6 -1.4,8.5 0.1,2.9 0.6,5.7 1.5,8.2 0.1,0.2 1.5,4 4,8 2.5,4 5.9,8.3 9.7,9.9 4,1.6 9.6,-0.8 10.7,-4.8 z"
   id="path137" /><path
   class="st4"
   d="m 579.6,847.9 c 0,0 34.4,23.6 23.7,37.3 0,0 24.7,-21.1 10.1,-41.2 z"
   id="path141" /><path
   class="st4"
   d="m 624.7,837.9 c 0,0 34.4,23.6 23.7,37.3 0,0 24.7,-21.1 10.1,-41.2 z"
   id="path143" /><path
   class="st4"
   d="m 529,842.9 c 0,0 34.4,23.6 23.7,37.3 0,0 24.7,-21 10.1,-41.2 z"
   id="path145" /><path
   class="st4"
   d="m 215.9,847.9 c 0,0 -34.4,23.6 -23.7,37.3 0,0 -24.7,-21.1 -10.1,-41.2 z"
   id="path149" /><path
   class="st4"
   d="m 170.9,837.9 c 0,0 -34.4,23.6 -23.7,37.3 0,0 -24.7,-21.1 -10.1,-41.2 z"
   id="path151" /><path
   class="st4"
   d="m 266.5,842.9 c 0,0 -34.4,23.6 -23.7,37.3 0,0 -24.7,-21 -10.1,-41.2 z"
   id="path153" />
</svg>
