<?xml version="1.0" encoding="UTF-8" standalone="no"?>
<svg
   viewBox="0 0 705.87 618.15"
   version="1.1"
   id="svg115"
   sodipodi:docname="2023-CA-02-ricca4.svg"
   inkscape:version="1.1.1 (3bf5ae0d25, 2021-09-20)"
   xmlns:inkscape="http://www.inkscape.org/namespaces/inkscape"
   xmlns:sodipodi="http://sodipodi.sourceforge.net/DTD/sodipodi-0.dtd"
   xmlns="http://www.w3.org/2000/svg"
   xmlns:svg="http://www.w3.org/2000/svg">
  <sodipodi:namedview
     id="namedview117"
     pagecolor="#ffffff"
     bordercolor="#666666"
     borderopacity="1.0"
     inkscape:pageshadow="2"
     inkscape:pageopacity="0.0"
     inkscape:pagecheckerboard="0"
     showgrid="false"
     inkscape:zoom="1.1631481"
     inkscape:cx="388.1707"
     inkscape:cy="217.94302"
     inkscape:window-width="2048"
     inkscape:window-height="1017"
     inkscape:window-x="-8"
     inkscape:window-y="-8"
     inkscape:window-maximized="1"
     inkscape:current-layer="svg115" />
  <defs
     id="defs4">
    <style
       id="style2">.d{fill:#fff;}.e{fill:#ff2e89;}.f{fill:#8e36d9;}.g{fill:#a640ff;}.h{fill:#dedede;}.i{fill:#ad4fff;}.j{fill:#231f20;}.k{fill:#772eb4;}</style>
  </defs>
  <g
     id="a" />
  <g
     id="b">
    <g
       id="c">
      <g
         id="g111">
        <g
           id="g15">
          <path
             class="j"
             d="m 679.63,373.09 c 0,0 5.35,20.9 26.24,17.36 0,0 -18.1,-13.7 -14.41,-28.21 z"
             id="path7" />
          <path
             class="j"
             d="m 652.33,385.68 c 0,0 6.26,25.44 27.14,23.71 0,0 -16.27,-15.5 -10.78,-28.18 z"
             id="path9" />
          <path
             class="j"
             d="m 624.19,389.19 c 0,0 -2.82,20.87 20.77,24.59 0,0 -12.35,-10.48 -7.47,-22.94 0,0 -9.64,-9.8 -13.3,-1.65 z"
             id="path11" />
          <path
             class="k"
             d="m 580.63,232.64 c 30.39222,26.56378 49.01356,68.90652 40.54028,109.29792 -3.1054,13.09165 -9.92357,26.93274 -4.67242,40.38033 4.1358,10.53451 16.91123,8.90331 25.92842,7.84485 3.70059,-0.49615 7.57748,-0.35769 1.71281,0.064 -3.307,0.25473 -7.96468,0.85091 -1.82241,0.36098 22.69477,-1.82265 46.7936,-12.96586 56.65688,-34.60762 9.65067,-20.94139 6.82624,-45.61863 -2.79629,-66.03269 -16.73801,-38.81166 -51.81845,-67.84447 -91.38864,-81.4213 -10.57673,-4.19802 -21.73861,-6.88285 -33.15863,-6.96648 3.00089,10.35974 5.99465,20.72155 9,31.08 z"
             id="path13" />
        </g>
        <g
           id="g25">
          <path
             class="j"
             d="m 26.24,373.09 c 0,0 -5.35,20.9 -26.24,17.36 0,0 18.1,-13.7 14.41,-28.21 z"
             id="path17" />
          <path
             class="j"
             d="m 53.54,385.68 c 0,0 -6.26,25.44 -27.14,23.71 0,0 16.27,-15.5 10.78,-28.18 z"
             id="path19" />
          <path
             class="j"
             d="m 81.68,389.19 c 0,0 2.82,20.87 -20.77,24.59 0,0 12.36,-10.48 7.47,-22.94 0,0 9.64,-9.8 13.3,-1.65 z"
             id="path21" />
          <path
             class="k"
             d="m 125.23,232.64 c -32.697925,28.44148 -51.861054,75.81248 -38.046464,118.32003 3.530235,11.73329 8.330395,27.97266 -2.523661,37.3334 -6.259458,5.41267 -23.764831,0.71311 -25.070145,1.73321 5.479003,0.40535 10.988269,1.21475 1.851968,0.3598 -24.935037,-2.26692 -51.068093,-17.19447 -57.6876224,-42.77499 -9.0985083,-30.67741 4.9329158,-62.63494 23.2838874,-86.9168 23.558021,-30.42704 59.009546,-50.84308 96.504807,-58.36976 4.86729,0.17417 14.5807,-3.57248 8.99094,5.06373 -2.43689,8.41646 -4.8797,16.8312 -7.30371,25.25138 z"
             id="path23" />
        </g>
        <g
           id="g87">
          <g
             id="g37">
            <g
               id="g33">
              <path
                 class="j"
                 d="m 454.31,585.77 c 0,0 29.87,20.51 20.57,32.37 0,0 21.47,-18.28 8.75,-35.76 z"
                 id="path27" />
              <path
                 class="j"
                 d="m 498.25,577.11 c 0,0 29.87,20.51 20.57,32.37 0,0 21.47,-18.28 8.75,-35.76 z"
                 id="path29" />
              <path
                 class="j"
                 d="m 410.36,581.46 c 0,0 29.87,20.51 20.57,32.36 0,0 21.46,-18.28 8.75,-35.75 z"
                 id="path31" />
            </g>
            <path
               class="k"
               d="m 414.52,496.05 c -4.95,12.37 -16.35,77.12 -10.55,84.34 20.02,24.91 113.22,3.64 127.63,-6.9 23.55,-17.22 -32.9,-73.75 -39.4,-83.37 l -77.68,5.92 z"
               id="path35" />
          </g>
          <g
             id="g49">
            <g
               id="g45">
              <path
                 class="j"
                 d="m 251.56,585.77 c 0,0 -29.87,20.51 -20.57,32.37 0,0 -21.47,-18.28 -8.75,-35.76 z"
                 id="path39" />
              <path
                 class="j"
                 d="m 207.61,577.11 c 0,0 -29.87,20.51 -20.57,32.37 0,0 -21.47,-18.28 -8.75,-35.76 z"
                 id="path41" />
              <path
                 class="j"
                 d="m 295.5,581.46 c 0,0 -29.87,20.51 -20.57,32.36 0,0 -21.46,-18.28 -8.75,-35.75 z"
                 id="path43" />
            </g>
            <path
               class="k"
               d="m 213.67,490.13 c -6.5,9.61 -62.96,66.15 -39.4,83.37 14.41,10.53 107.61,31.8 127.63,6.9 5.8,-7.22 -5.6,-71.97 -10.55,-84.34 l -77.68,-5.92 z"
               id="path47" />
          </g>
          <path
             class="f"
             d="m 297.31,550.56 c 55.74892,3.81295 112.1963,-0.71094 166.01202,-16.01897 35.62887,-6.84274 69.90554,-20.31091 99.21717,-42.03152 C 615.92339,458.18159 643.4425,392.41565 637.12918,330.1282 631.87063,261.11067 597.87334,195.40517 546.28,149.56 567.52518,107.52523 538.04061,51.595845 491.49947,45.052786 470.11851,41.16738 447.22161,47.336808 430.69,61.44 411.44918,9.089549 343.62192,-16.346982 294.86211,11.076992 271.2818,23.317385 253.11734,45.544206 246,71.16 c -40.93299,-22.679456 -97.49762,4.108743 -106.33234,49.90662 -9.27353,26.31158 18.02001,52.74167 -10.65409,70.95305 -48.703349,65.92206 -71.671759,158.32538 -37.855902,235.82301 10.333282,21.02124 22.481662,43.65799 39.372162,57.31518 C 155.0948,509.10753 186.0907,525.6962 218.64,535.99"
             id="path51" />
          <g
             id="g63">
            <path
               class="g"
               d="m 151.9,443.5 c -4.79,21.58 -52.36,1.48 -40.84,-15.07 8.12,-11.65 44.13,0.23 40.84,15.07 z"
               id="path53" />
            <path
               class="g"
               d="m 198.66,445.23 c -7.27,13.93 -25.95,6.74 -33.15,-3.37 -19.59,-27.53 47.63,-24.37 33.15,3.37 z"
               id="path55" />
            <path
               class="g"
               d="m 200.44,402.09 c -6.91,6.65 -21.26,10.71 -30.61,11.25 -19.37,1.12 -48.47,-8.61 -45.72,-32.8 3.4,-29.89 51.62,-29.33 67.78,-12.75 3.87,3.98 8.42,10.09 10.83,16.4 2.46,6.45 2.7,13.11 -2.27,17.9 z"
               id="path57" />
            <path
               class="g"
               d="m 504.69,357.35 c -11.46,-15.21 11.05,-30.1 24.67,-30.48 18.74,-0.52 43.98,19.02 27.3,37.44 -13.03,14.4 -41.26,7.26 -51.97,-6.96 z"
               id="path59" />
            <path
               class="g"
               d="m 585.88,414.24 c -12.06,6.76 -28.62,-2.56 -33.01,-14.8 -11.48,-31.98 68.4,-5.06 33.01,14.8 z"
               id="path61" />
          </g>
          <g
             id="g69">
            <path
               class="d"
               d="M 525.83,74.18 C 502.1905,47.949861 456.96785,48.118973 433.3868,74.238199 424.0373,88.060965 423.88764,64.01345 418.95794,58.648869 401.26046,21.553318 355.2742,1.6470375 316.1243,14.17906 283.79528,23.330187 259.33225,52.766138 254.43375,85.715 242.50927,82.724877 229.23028,72.07088 214.71,73.67 c -32.98134,-1.523669 -65.00954,27.29991 -64.62435,60.61996 4.36472,35.03688 40.53338,66.14629 74.92215,58.27617 22.53354,-4.18284 42.16628,-26.77379 49.5472,-48.21488 10.29123,3.86089 18.42103,22.02126 30.54708,25.51507 38.8996,18.18406 89.96193,-3.60574 111.00792,-41.02632 9.28027,1.12307 11.05978,27.09893 22.44332,31.62398 25.71671,21.85246 68.99623,12.47685 89.98228,-13.95865 C 540.46717,132.3225 547.86368,111.6707 538.80562,94.110654 535.77416,86.732277 531.30053,79.964539 525.83,74.18 Z"
               id="path65"
               sodipodi:nodetypes="ccccccccccccccc" />
            <path
               class="h"
               d="m 543.62,119.82 c -0.78,34.51 -29.44,62.61 -64,62.61 h -1.39 c -25.72,-0.56 -48.5,-16.37 -58.06,-40.31 -0.35,-0.78 -1.08,-1.34 -1.95,-1.39 l -0.17,-0.04 c -0.78,0 -1.52,0.43 -1.95,1.13 -15.63,26.5 -44.43,43 -75.04,43 -0.65,0 -1.26,0 -1.91,-0.04 -23.47,-0.48 -45.25,-10.18 -61.44,-27.32 -0.43,-0.43 -1.04,-0.69 -1.65,-0.69 l -0.48,0.04 c -0.78,0.17 -1.43,0.74 -1.65,1.47 -8.88,25.94 -33.21,43.34 -60.58,43.34 h -1.39 c -35.29,-0.74 -63.39,-30.09 -62.61,-65.34 0.04,-1.65 0.13,-3.29 0.35,-4.94 3.29,31.57 29.7,56.59 62.26,57.29 h 1.39 c 27.37,0 51.7,-17.41 60.58,-43.34 0.22,-0.74 0.87,-1.3 1.65,-1.47 l 0.48,-0.04 c 0.61,0 1.21,0.26 1.65,0.69 16.19,17.15 37.97,26.85 61.44,27.32 0.65,0.04 1.26,0.04 1.91,0.04 30.61,0 59.41,-16.5 75.04,-43 0.43,-0.69 1.17,-1.13 1.95,-1.13 l 0.17,0.04 c 0.87,0.04 1.6,0.61 1.95,1.39 9.57,23.94 32.34,39.75 58.06,40.31 h 1.39 c 32.82,0 60.36,-25.37 63.65,-57.54 0.3,2.6 0.39,5.24 0.35,7.92 z"
               id="path67" />
          </g>
          <g
             id="g77">
            <path
               class="j"
               d="m 337.14,97.93 c -6.93,-0.15 -12.67,5.35 -12.82,12.28 -0.15,6.93 5.35,12.67 12.28,12.82 6.93,0.15 12.67,-5.35 12.82,-12.28 0.15,-6.93 -5.35,-12.67 -12.28,-12.82 z"
               id="path71" />
            <path
               class="j"
               d="m 499.01,106.57 c -7.73,-0.17 -14.12,5.96 -14.29,13.69 -0.17,7.72 5.96,14.12 13.69,14.29 7.72,0.17 14.12,-5.96 14.29,-13.68 0.17,-7.72 -5.96,-14.12 -13.69,-14.29 z"
               id="path73" />
            <path
               class="j"
               d="m 203.24,121.7 c -6.18,-0.13 -11.3,4.77 -11.43,10.95 -0.13,6.18 4.77,11.3 10.95,11.43 6.18,0.13 11.3,-4.77 11.43,-10.95 0.13,-6.18 -4.77,-11.29 -10.95,-11.43 z"
               id="path75" />
          </g>
          <path
             class="f"
             d="M 481.07,51.06 C 461.20084,50.472349 441.42204,59.458622 428.58,74.59 418.51558,33.610236 376.90123,3.5766098 334.79765,7.3216327 294.21008,9.431615 258.02066,42.269937 251.83,82.41 222.86522,60.925679 177.79889,69.028042 158.02066,99.188262 146.40966,115.60459 142.96137,137.33015 148.67,156.58 c 30.34961,-22.1486 65.27475,-40.13577 103,-44.59 -0.77506,13.9819 16.88659,0.85632 24.65305,2.24495 47.41935,-8.74421 96.3754,-17.764565 144.43832,-8.72133 12.32489,8.16161 11.42627,-3.2231 10.67488,-12.08612 1.30403,-9.458835 20.86595,2.05001 29.07671,3.166065 C 490.49668,107.74023 518.06318,126.19101 538.76,150.69 556.5663,119.79277 544.23644,76.360341 512.59506,59.651423 503.02924,54.245146 491.96835,51.199407 481.07,51.06 Z"
             id="path79" />
          <path
             class="i"
             d="m 339.89,39 c 20.35,0.35 23.07,-24.08 1.9,-21.75 -20.33,2.23 -41.72,8.26 -55.26,24.72 -4.72,5.74 -14.01,15.93 -11,24.49 3.24,9.21 11.55,2.58 15.34,-3.07 6.33,-9.44 10.72,-18.46 22.31,-22.34 9.11,-3.05 17.56,-2.2 26.72,-2.05 z"
             id="path81" />
          <path
             class="i"
             d="m 205.88,95.02 c 11.89,-12.85 -15.09,-13.5 -21.77,-12.07 -12.27,2.62 -23.18,11.07 -29.04,21.71 -2.64,4.79 -9.51,14.08 -4.44,19.2 2.46,2.48 10.73,2.31 13.56,0.76 4.63,-2.54 2.66,-3.32 4.48,-6.84 3.7,-7.15 6.07,-15.62 15.04,-18.1 7.45,-2.06 15.87,2.15 22.17,-4.66 z"
             id="path83" />
          <path
             class="i"
             d="m 496.89,79.89 c 10.52,5.26 22.62,-3.19 13.16,-13.12 -7.53,-7.92 -19.6,-12.09 -30.32,-11.09 -10.08,0.93 -23.53,0.89 -28.88,11.47 -8.45,16.69 17.7,7.04 24.66,6.08 10.39,-1.42 13.11,2.53 21.38,6.66 z"
             id="path85" />
        </g>
        <g
           id="g109">
          <path
             class="j"
             d="m 358.49,365.61 c 32.04,0 40.78,-18.72 66.26,-19.32 21.57,-0.51 44.25,3.85 64.78,10.49 2.4,-11.44 3.35,-23.03 3.35,-34.17 0,-30.9 -35.59,-67.65 -80.89,-86.92 l -16.89,24.25 c -5.74,8.24 -20.09,8.24 -25.83,0 L 347.8,229.11 c -1.48,-2.13 -2.07,-4.39 -1.98,-6.58 -1.98,0.05 -3.94,0.13 -5.88,0.25 0.04,2.11 -0.59,4.29 -2.01,6.34 l -21.46,30.83 c -5.74,8.24 -20.09,8.24 -25.83,0 L 276.05,239 c -42.96,21.04 -69.1,59.06 -69.61,96.68 -0.11,8.14 0.78,16.89 2.8,25.78 21.67,-8.42 47.87,-14.57 76.44,-14.57 34.95,0 40.78,18.72 72.82,18.72 z"
             id="path89" />
          <path
             class="e"
             d="m 489.52,356.81 c -20.53,-6.65 -43.21,-11.01 -64.78,-10.49 -25.49,0.6 -34.22,19.32 -66.26,19.32 -32.04,0 -37.87,-18.72 -72.82,-18.72 -28.57,0 -54.77,6.14 -76.44,14.57 16.09065,43.99956 51.18034,73.16749 96.88553,83.68102 22.15996,5.09744 35.80002,0.21981 72.04842,1.21272 43.53472,1.1925 98.70828,-35.57721 111.36605,-89.57374 z"
             id="path91"
             sodipodi:nodetypes="ccsscssc" />
          <path
             class="d"
             d="m 316.46,259.94 21.46,-30.83 c 1.43,-2.05 2.05,-4.22 2.01,-6.34 -23.96,1.36 -45.48,7.19 -63.9,16.21 l 14.59,20.95 c 5.74,8.24 20.09,8.24 25.83,0 z"
             id="path93" />
          <path
             class="d"
             d="m 347.8,229.12 21.47,30.83 c 5.74,8.24 20.09,8.24 25.83,0 l 16.89,-24.25 c -19.37,-8.24 -40.49,-13.35 -61.4,-13.35 -1.62,0 -3.17,0.16 -4.77,0.2 -0.09,2.19 0.5,4.45 1.98,6.58 z"
             id="path95" />
          <path
             id="path97"
             class="d"
             d="m 253.55859,380.51953 c -11.71214,0.81179 -23.45395,1.38497 -35.14171,2.45062 -1.83572,5.39644 7.30834,14.93194 11.26296,20.94692 14.5726,18.13911 35.54666,30.16673 57.67956,36.67286 1.1559,-8.62301 3.29861,-17.18878 3.77019,-25.85216 -1.80499,-8.2029 -12.09229,-9.66075 -18.62338,-6.30346 -6.99164,2.38073 -13.98329,4.76146 -20.97494,7.14219 4.34576,-8.04401 9.54144,-15.70271 13.31669,-24.00589 1.3927,-6.44404 -5.4179,-11.36234 -11.28937,-11.05108 z m 183.53125,3.10156 c -7.39372,-0.53908 -14.28265,8.20002 -9.18244,14.67332 4.15587,7.72478 8.31173,15.44956 12.4676,23.17434 -10.16801,-3.25136 -20.12555,-7.3073 -30.44075,-9.99729 -7.39085,-1.2709 -14.93598,5.83481 -12.0922,13.28098 0.97257,5.99593 1.94515,11.99186 2.91772,17.98779 30.39431,-6.63832 60.03833,-23.44181 75.68195,-51.17024 3.12197,-5.9442 -8.00133,-4.96558 -12.25873,-5.67644 -9.03169,-0.73008 -18.09029,-1.67766 -27.09315,-2.27246 z m -118.29492,36.82422 c -7.86518,0.0543 -12.56195,7.28707 -18.49486,11.39918 -3.73023,3.10205 -7.46045,6.20409 -11.19068,9.30614 15.3703,4.39786 31.3445,6.36858 47.29101,6.96875 -2.89235,-7.82696 -4.52114,-16.24274 -8.35328,-23.6337 -2.25062,-2.68396 -5.81159,-4.00295 -9.25219,-4.04037 z m 48.07031,0.58399 c -6.95585,-0.61666 -11.13595,5.28638 -13.028,11.10352 -2.40921,5.44596 -4.81841,10.89192 -7.22761,16.33788 16.24919,-0.0433 32.5412,-1.27452 48.49023,-4.4707 -7.23769,-6.9673 -14.05416,-14.42118 -21.57137,-21.06586 -1.97933,-1.25701 -4.32766,-1.87812 -6.66325,-1.90484 z" />
        </g>
      </g>
    </g>
  </g>
</svg>
