<?xml version="1.0" encoding="UTF-8" standalone="no"?>
<svg
   viewBox="0 0 629.47 740.96"
   version="1.1"
   id="svg87"
   sodipodi:docname="2023-CA-02-ricca1.svg"
   inkscape:version="1.1.1 (3bf5ae0d25, 2021-09-20)"
   xmlns:inkscape="http://www.inkscape.org/namespaces/inkscape"
   xmlns:sodipodi="http://sodipodi.sourceforge.net/DTD/sodipodi-0.dtd"
   xmlns="http://www.w3.org/2000/svg"
   xmlns:svg="http://www.w3.org/2000/svg">
  <sodipodi:namedview
     id="namedview89"
     pagecolor="#ffffff"
     bordercolor="#666666"
     borderopacity="1.0"
     inkscape:pageshadow="2"
     inkscape:pageopacity="0.0"
     inkscape:pagecheckerboard="0"
     showgrid="false"
     inkscape:zoom="0.97036274"
     inkscape:cx="435.91946"
     inkscape:cy="298.34204"
     inkscape:window-width="2048"
     inkscape:window-height="1017"
     inkscape:window-x="-8"
     inkscape:window-y="-8"
     inkscape:window-maximized="1"
     inkscape:current-layer="svg87" />
  <defs
     id="defs4">
    <style
       id="style2">.d{fill:#fff;}.e{fill:#983bea;}.f{fill:#bfd921;}.g{fill:#cbe723;}.h{fill:#dedede;}.i{fill:#acc610;}.j{fill:#231f20;}.k{fill:#353535;}.l{fill:#772eb4;}</style>
  </defs>
  <path
     class="f"
     d="M 268.46,70.09 C 265.64,43.84 275.93,19.95 308.1,0 c -2.66,20.12 -4.78,40.14 8.52,57.18 z"
     id="path7" />
  <path
     class="f"
     d="m 303.48,74.23 c 4.79,-25.96 21.45,-45.93 57.98,-55.9 -8.29,18.54 -16.02,37.12 -8.12,57.25 z"
     id="path9" />
  <path
     class="l"
     d="M 148.97,117.28 C 120.75321,102.73728 107.43994,67.979187 115.17,37.74 120.26502,12.554656 91.319426,0.49462688 73.578349,16.611688 37.072202,44.563397 23.392913,97.578252 41.179796,140.01302 48.156194,158.5805 58.965573,175.491 71.41,190.85 c 28.480352,-8.8598 60.4455,-19.24779 77.59857,-45.43896 4.9062,-8.65932 4.57426,-19.43303 -0.0386,-28.13104 z"
     id="path13" />
  <path
     class="e"
     d="m 114.9,39.52 c -2.73,14.42 -1.83,26.55 1.03,36.6 C 93.25,67 55.15,72.72 35.96,76.54 40.15,58.15 48.79,43.66 56.5,33.68 c 23.61,-5.96 47.03,1.25 58.39,5.83 z"
     id="path15" />
  <path
     class="e"
     d="M 59.84,175.18 C 46.48,155.49 39,137.27 35.66,120.75 63.17,96.06 108.29,91.04 121.69,90.1 c 2.16,3.9 8.94,12.86 11.42,15.86 C 99.95,121 72.3,151.22 59.84,175.18 Z"
     id="path17" />
  <path
     class="l"
     d="M 480.5,117.28 C 508.71679,102.73728 522.03006,67.979187 514.3,37.74 509.20498,12.554656 538.15057,0.49462688 555.89165,16.611688 592.3978,44.563397 606.07709,97.578252 588.2902,140.01302 581.31381,158.5805 570.50443,175.491 558.06,190.85 529.57965,181.9902 497.6145,171.60221 480.46143,145.41104 475.55523,136.75172 475.88717,125.97801 480.5,117.28 Z"
     id="path21" />
  <path
     class="e"
     d="m 514.57,39.52 c 2.72,14.42 1.83,26.55 -1.03,36.6 22.68,-9.12 60.78,-3.4 79.97,0.42 -4.19,-18.39 -12.83,-32.88 -20.54,-42.86 -23.61,-5.96 -47.03,1.25 -58.39,5.83 z"
     id="path23" />
  <path
     class="e"
     d="M 569.64,175.18 C 583,155.49 590.48,137.27 593.82,120.75 566.31,96.06 521.19,91.04 507.79,90.1 c -2.16,3.9 -8.94,12.86 -11.42,15.86 33.16,15.04 60.81,45.26 73.27,69.22 z"
     id="path25" />
  <path
     class="f"
     d="m 509.49,692.15 c -0.48,-4.9 -3.86,-8.97 -7.16,-12.62 -14.14,-15.66 -29.9,-30.21 -41.78,-47.76 -3.85,-5.69 -15.82,-30.47 -19.34,-36.18 0.35,-0.19 -1.13,0.62 -2.23,1.22 -7.11,3.83 -14.4,7.37 -21.86,10.61 -2.94,1.28 13.76,37.95 13.53,41.07 -0.91,12.31 -10.34,22.05 -19.2,30.64 -13.85,13.43 -27.72,26.86 -40.52,41.29 -2.71,3.06 -5.48,6.36 -6.29,10.36 -0.82,4.01 1.07,8.87 5.02,9.94 1.87,0.51 3.86,0.1 5.75,-0.3 37.48,-8.06 74.69,-17.35 111.56,-27.84 10.64,-3.03 23.62,-9.42 22.53,-20.43 z"
     id="path29" />
  <path
     class="f"
     d="m 119.99,692.15 c 0.48,-4.9 3.86,-8.97 7.16,-12.62 14.14,-15.66 29.9,-30.21 41.78,-47.76 3.85,-5.69 15.82,-30.47 19.34,-36.18 -0.35,-0.19 1.13,0.62 2.23,1.22 7.11,3.83 14.4,7.37 21.86,10.61 2.94,1.28 -13.76,37.95 -13.53,41.07 0.91,12.31 10.34,22.05 19.2,30.64 13.85,13.43 27.72,26.86 40.52,41.29 2.71,3.06 5.48,6.36 6.29,10.36 0.82,4.01 -1.07,8.87 -5.02,9.94 -1.87,0.51 -3.86,0.1 -5.75,-0.3 -37.48,-8.06 -74.69,-17.35 -111.56,-27.84 -10.64,-3.03 -23.62,-9.42 -22.53,-20.43 z"
     id="path31" />
  <path
     id="path33"
     class="f"
     d="M 314.2168 58.623047 C 285.61904 58.552937 257.00766 62.589418 229.78711 71.273438 C 206.51348 81.390422 183.59082 81.655616 162.875 98.029297 C 143.37359 116.90873 118.48491 131.98398 100.45508 153.77734 C 19.649694 240.81388 2.1302385 379.56368 59.980469 483.5 C 29.698965 486.25301 1.7561899 512.52524 9.890625 544.73828 C 14.924684 565.20895 30.393518 583.75445 2.4902344 592.13477 C -6.0932603 620.28588 46.048748 580.14637 25.148438 609.79688 C 30.334453 647.70682 49.999676 601.92311 54.587891 598.29883 C 65.983442 612.56311 102.64511 610.84619 76.570312 591.50781 C 56.239058 580.93396 69.314815 578.56393 81.330078 567.66016 C 74.27094 544.26075 32.527624 569.80102 35.751953 534.68359 C 34.603354 503.39847 84.547576 502.46515 91.560547 530.58008 C 162.58935 619.52254 288.80646 657.86693 397.40039 624.14062 C 458.91439 605.99344 513.57163 566.47936 550.56055 514.14062 L 553.37695 509.69922 C 559.6388 511.83019 566.30211 515.37177 569.55078 517.96094 C 574.77078 522.12094 577.2407 529.00016 577.4707 535.66016 C 577.7107 542.33016 575.96961 548.90078 574.09961 555.30078 C 565.87961 555.95078 557.79086 558.1693 550.38086 561.7793 C 545.02086 564.3993 539.33938 570.6607 542.85938 575.4707 C 544.10938 577.1807 546.19922 578.03094 548.19922 578.71094 C 553.55922 580.53094 559.11023 581.80094 564.74023 582.46094 C 558.57023 589.68094 553.37055 597.73031 549.31055 606.32031 C 548.25055 608.56031 547.29008 611.28062 548.58008 613.39062 C 550.53008 616.59063 555.42945 615.43008 558.68945 613.58008 C 567.02945 608.85008 574.20016 602.10055 579.41016 594.06055 C 584.21016 600.04055 589.01055 606.02977 593.81055 612.00977 C 595.61055 614.24977 597.60086 616.63063 600.38086 617.39062 C 606.85086 619.16062 612.01055 610.65914 610.56055 604.11914 C 609.11055 597.56914 604.01055 592.57055 600.56055 586.81055 C 603.61055 591.90055 624.7093 589.83047 628.0293 585.23047 C 635.7693 574.51047 610.06969 571.02094 603.42969 569.96094 C 603.93969 555.53094 606.78961 541.86914 603.59961 527.36914 C 600.50961 513.33914 592.25961 499.80977 579.34961 493.50977 C 577.49903 492.60682 573.0281 489.16865 568.33789 485.63867 C 626.37951 382.42794 610.90268 244.33676 531.45703 156.49805 C 500.86941 123.27004 463.99599 93.773996 421.46094 78.099609 C 387.73037 65.590215 350.98534 58.713189 314.2168 58.623047 z " />
  <path
     class="f"
     d="m 430.08,106.8 c 9.93,-1.95 19.54,-2.12 26.98,4.62 6.5,5.89 12.68,14.46 8.72,23.61 -3.51,8.1 -13.93,11.34 -22.54,9.38 -8.16,-1.86 -21.29,-9.13 -24.63,-17.5 -3.8,-9.52 2,-18.25 11.47,-20.11 z"
     id="path37" />
  <path
     class="i"
     d="M 551.24,511.49 C 473.45636,580.48013 362.72617,598.07478 262.43033,584.10724 195.66451,576.49174 128.90206,553.51658 77.46,509.17 c 19.184447,34.50834 50.70357,60.8799 83.07426,82.64611 95.35324,60.75188 226.71682,59.1974 318.88116,-7.2496 C 507.89426,564.79568 532.89006,539.94424 552.48,511.32 l -1.23,0.15 z"
     id="path39" />
  <path
     class="g"
     d="M 175.98,135.96 C 212.28,96.58 340.58,35.68 451.91,127.09 347.97,76.68 256.95,96.28 175.98,135.96 Z"
     id="path41" />
  <path
     class="i"
     d="m 141.61,184.36 c 24.86503,2.42183 36.29668,-44.0371 3.12344,-34.72074 -22.58552,1.68521 -37.69237,39.52443 -3.12344,34.72074 z"
     id="path43" />
  <path
     class="i"
     d="M 198.96,137.71 C 229.36903,125.4373 187.85648,95.802365 172.37228,115.61756 142.15496,133.32721 185.56822,140.94134 198.96,137.71 Z"
     id="path45" />
  <path
     class="i"
     d="m 194.53,158.37 c -13.45814,25.09706 37.59272,42.17659 45.53456,18.38723 C 245.88309,152.95428 208.37491,144.27839 194.53,158.37 Z"
     id="path47" />
  <path
     class="i"
     d="m 463.37,156.17 c 8.47735,45.22296 57.98943,-19.40231 8.81196,-10.69487 -4.77276,1.1445 -9.28623,5.51112 -8.81196,10.69487 z"
     id="path49" />
  <path
     class="i"
     d="m 443.24,144.41 c 36.95671,7.46519 21.64583,-51.348828 -9.69731,-39.49287 -26.30374,8.93534 -13.65892,37.79082 9.69731,39.49287 z"
     id="path51" />
  <circle
     class="i"
     cx="-288.2836"
     cy="206.7131"
     r="91.160004"
     transform="rotate(-87.14)"
     id="circle55" />
  <path
     class="d"
     d="m 266.31,273.6 c -4.83,36.66 -36.26,65.09 -74.25,65.09 -37.99,0 -69.42,-28.43 -74.25,-65.09 4.83,-36.71 36.27,-65.09 74.25,-65.09 37.98,0 69.43,28.38 74.25,65.09 z"
     id="path57" />
  <path
     class="h"
     d="m 267,283.45 c 0,41.29 -33.6,74.94 -74.94,74.94 -41.34,0 -74.94,-33.65 -74.94,-74.94 0,-3.35 0.2,-6.65 0.69,-9.85 4.83,36.66 36.27,65.09 74.25,65.09 37.98,0 69.43,-28.43 74.25,-65.09 0.49,3.2 0.69,6.5 0.69,9.85 z"
     id="path59" />
  <path
     class="k"
     d="m 235.21,260.51 c -3.02,-3.02 -6.99,-4.53 -10.94,-4.53 -3.96,0 -7.93,1.51 -10.95,4.53 -3.02,3.02 -4.53,6.99 -4.53,10.94 0,3.96 1.51,7.92 4.53,10.94 3.02,3.02 6.99,4.53 10.95,4.53 3.96,0 7.92,-1.51 10.94,-4.53 3.02,-3.02 4.54,-6.99 4.53,-10.94 0,-3.96 -1.51,-7.93 -4.53,-10.94 z"
     id="path61" />
  <circle
     class="i"
     cx="422.01215"
     cy="319.62839"
     r="91.150002"
     transform="rotate(-2.86)"
     id="circle65" />
  <path
     class="d"
     d="m 363.16,273.6 c 4.83,36.66 36.26,65.09 74.25,65.09 37.99,0 69.42,-28.43 74.25,-65.09 -4.83,-36.71 -36.27,-65.09 -74.25,-65.09 -37.98,0 -69.43,28.38 -74.25,65.09 z"
     id="path67" />
  <path
     class="h"
     d="m 362.47,283.45 c 0,41.29 33.6,74.94 74.94,74.94 41.34,0 74.94,-33.65 74.94,-74.94 0,-3.35 -0.2,-6.65 -0.69,-9.85 -4.83,36.66 -36.27,65.09 -74.25,65.09 -37.98,0 -69.43,-28.43 -74.25,-65.09 -0.49,3.2 -0.69,6.5 -0.69,9.85 z"
     id="path69" />
  <path
     class="k"
     d="m 394.26,260.51 c 3.02,-3.02 6.99,-4.53 10.94,-4.53 3.96,0 7.93,1.51 10.95,4.53 3.02,3.02 4.53,6.99 4.53,10.94 0,3.96 -1.51,7.92 -4.53,10.94 -3.02,3.02 -6.99,4.53 -10.95,4.53 -3.96,0 -7.92,-1.51 -10.94,-4.53 -3.02,-3.02 -4.54,-6.99 -4.53,-10.94 0,-3.96 1.51,-7.93 4.53,-10.94 z"
     id="path71" />
  <path
     class="d"
     d="m 281.76,424.81 c -25.26,28.65 -41.75,63.02 -51.59,101.72 -22.59,-32.45 -33.5,-62.24 -24.3,-87.45 18.2,-1.16 33.98,-8.61 50.34,-14.29 8.52,0.1 17.04,0.17 25.55,0.02 z"
     id="path75" />
  <path
     class="d"
     d="m 365.92,422.17 c 23.35,24.32 38.24,54.16 46.88,88.08 18.37,-26.38 27.24,-50.61 19.75,-71.1 -23.91,-1.53 -42.69,-16.41 -66.63,-16.98 z"
     id="path77" />
  <path
     class="j"
     d="m 132.84,470.52 c 0,0 207.13,-116.84 363.8,13.28 0,0 -136.76,-163.96 -363.8,-13.28 z"
     id="path79" />
</svg>
