<?xml version="1.0" encoding="UTF-8" standalone="no"?>
<!-- Generator: Adobe Illustrator 26.1.0, SVG Export Plug-In . SVG Version: 6.00 Build 0)  -->

<svg
   version="1.1"
   id="Layer_1"
   x="0px"
   y="0px"
   viewBox="0 0 723.14001 790.11604"
   xml:space="preserve"
   sodipodi:docname="2023-CA-02-riccaException.svg"
   width="723.14001"
   height="790.11603"
   inkscape:version="1.1.1 (3bf5ae0d25, 2021-09-20)"
   xmlns:inkscape="http://www.inkscape.org/namespaces/inkscape"
   xmlns:sodipodi="http://sodipodi.sourceforge.net/DTD/sodipodi-0.dtd"
   xmlns="http://www.w3.org/2000/svg"
   xmlns:svg="http://www.w3.org/2000/svg"><defs
   id="defs96">
	


		
	
			
			
			
			
			
		
				
				
			
				
				
				
				
			
				
				
			
					
					
					
				
					
					
					
					
					
					
					
					
				
					
					
					
				
						
						
						
					
						
						
						
					
						
						
						
						
						
					
						
						
					
						
						
					</defs><sodipodi:namedview
   id="namedview94"
   pagecolor="#ffffff"
   bordercolor="#666666"
   borderopacity="1.0"
   inkscape:pageshadow="2"
   inkscape:pageopacity="0.0"
   inkscape:pagecheckerboard="0"
   showgrid="false"
   inkscape:zoom="0.64331239"
   inkscape:cx="623.33635"
   inkscape:cy="561.93539"
   inkscape:window-width="2048"
   inkscape:window-height="1017"
   inkscape:window-x="-8"
   inkscape:window-y="-8"
   inkscape:window-maximized="1"
   inkscape:current-layer="Layer_1" />
<style
   type="text/css"
   id="style2">
	.st0{fill:#9138DE;}
	.st1{fill:#6D2AA6;}
	.st2{fill:#CE3AF4;}
	.st3{fill:#C337E7;}
	.st4{fill:#D73CFF;}
	.st5{fill:#E170FF;}
	.st6{fill:#9D29B8;}
	.st7{fill:#FFFFFF;}
	.st8{fill:#E5E6E7;}
	.st9{fill:#231F20;}
	.st10{fill:#FF7600;}
	.st11{fill:#EF6F00;}
	.st12{display:none;}
	.st13{display:inline;}
	.st14{fill:#ACC610;}
	.st15{fill:#CBE723;}
	.st16{display:inline;fill:#231F20;}
</style>

<path
   class="st3"
   d="m 198.14043,657.2 c -3.25451,14.79961 -3.26676,31.60899 -15.76953,42.78926 -12.30108,12.05215 -35.28001,5.44083 -43.92891,22.15293 -4.47022,21.85247 26.91472,26.50591 42.38516,21.35945 28.77637,-7.25828 45.35836,-38.70339 41.91328,-67.00164 10.93333,6.33333 21.86667,12.66667 32.8,19 -3.53571,19.61653 -18.87813,34.90711 -36.81328,42.3834 -15.37375,5.15934 -14.93139,27.10744 -0.0399,32.74941 17.40744,7.59654 41.45145,11.67343 55.50313,-4.48281 15.13055,-15.7892 13.89221,-39.41357 10.85,-59.45 9.96667,2.06667 19.93333,4.13333 29.9,6.2 2.24736,16.10614 2.37723,33.55459 -7.10352,47.57734 -10.82279,14.3202 1.92125,31.0798 18.51758,29.10235 16.85013,1.36888 37.38268,0.0123 48.95838,-13.97554 9.46667,-14.61595 -3.52505,-30.16354 -12.47244,-41.30415 -4.27848,-7.45123 -18.3893,-23.40088 -2.05758,-21.93117 6.25252,-0.98961 12.50505,-1.97922 18.75758,-2.96883 5.84833,18.0324 8.97941,39.53202 26.15801,50.82969 15.04159,10.30706 38.03602,13.61954 52.81741,1.35324 13.64132,-12.43505 -1.76896,-30.88222 -15.76292,-33.95949 -15.03916,-1.18793 -27.1474,-11.26354 -30.14629,-26.3336 -2.01089,-5.47088 8.4841,-6.33808 12.16627,-9.71323 4.29424,-0.95203 10.97354,-8.64205 13.58809,-4.8488 7.97528,20.23377 17.89983,44.23336 41.1349,50.36731 15.98634,4.17373 34.77304,2.29389 48.22363,-7.74903 12.93772,-15.89526 -10.18805,-29.40909 -23.1791,-34.54609 -15.43456,-7.05166 -31.99327,-13.27328 -43.9,-25.9 -87.5,-3.9 -175,-7.8 -262.5,-11.7 z"
   id="path19"
   sodipodi:nodetypes="ccccccsscccccccccscccccccccccscccccccccccccccscc" /><path
   class="st0"
   d="M 240.84043,266 C 11.040429,227.6 95.040429,64.5 95.040429,64.5 c 0,0 -134.2,145.1 43.300001,223.6 16.6,7.4 52.8,20.4 69.4,17.2 21.3,-4.1 53.7,-18.5 51.9,-28.2 -0.8,-4 -17.5,-10.9 -18.8,-11.1 z"
   id="path5" /><path
   class="st1"
   d="m 259.54043,277.1 c -0.8,-4 -17.5,-10.9 -18.7,-11.1 C 72.140429,237.8 72.540429,142.4 84.740429,93.6 c -10.9,12 -15.9,28.7 -15.6,45 0.3,16.6 5.7,32.7 12.9,47.6 18.300001,37.7 49.400001,69.1 87.000001,87.6 18.1,8.9 37.4,14.9 56.7,20.9 2.7,0.8 5.3,1.6 8,2.5 14.6,-6.1 27,-14 25.8,-20.1 z"
   id="path7" /><path
   class="st0"
   d="m 368.34043,241.4 c 198.9,-121.4 60.1,-241.4 60.1,-241.4 0,0 178.7,84.6 43.3,223.6 -12.7,13 -41.4,38.6 -58,41.8 -21.3,4.1 -56.8,2.9 -58.6,-6.8 -0.8,-4 12.1,-16.6 13.2,-17.2 z"
   id="path9" /><path
   class="st1"
   d="m 355.04043,258.6 c -0.8,-4 12.1,-16.6 13.2,-17.3 146.1,-89.1 110.1,-177.5 80.6,-218.2 14.6,7 25.4,20.7 31.2,35.9 5.9,15.5 7,32.5 5.8,49 -2.9,41.8 -20.1,82.5 -48.1,113.7 -13.5,15 -29.2,27.8 -44.8,40.5 -2.2,1.8 -4.3,3.5 -6.5,5.3 -15.8,0 -30.2,-2.8 -31.4,-8.9 z"
   id="path11" /><path
   id="path15"
   class="st2"
   d="m 354.07168,111.71875 c -34.50157,2.5814 -68.84395,24.85635 -84.38987,56.71495 -3.33588,33.5063 -43.45051,-5.49016 -62.50537,21.16156 -30.93005,20.36321 -66.33348,35.04859 -91.31477,63.26867 -41.514965,48.83533 -41.737369,117.7026 -33.538038,177.86068 -39.940084,18.60111 -77.3668725,60.24439 -65.283758,107.2966 -2.739737,20.15551 32.280233,43.96124 23.738775,52.93237 -19.191576,-19.65988 -60.477214,3.95501 -28.963415,24.0472 19.963688,9.64967 14.136674,6.40429 -2.5153063,14.11259 -20.2539017,27.16008 40.4645103,15.40698 29.4563713,19.84583 -9.058401,34.45658 51.979267,4.10581 56.912821,-16.18009 21.28926,-29.5473 4.66315,-68.69425 -21.029082,-89.57989 -23.177309,-22.24026 25.387632,-69.58997 27.269962,-27.05384 26.60771,85.87282 88.26976,162.3568 172.66267,196.44791 61.22284,27.51053 141.07426,13.97572 185.46776,-35.79251 82.09021,-69.65153 114.69234,-182.2838 112.44141,-286.93555 44.23664,-2.14569 95.07793,-26.58648 101.57937,-75.07047 10.12265,-17.69551 -13.46888,-52.96448 -2.2538,-58.07217 10.47454,25.42469 57.58255,18.88706 35.86993,-11.5222 -14.9465,-16.38705 -10.66209,-11.26228 7.6502,-12.26919 28.94159,-17.64284 -31.8272,-29.41357 -19.90332,-29.43255 21.37796,-28.62847 -46.64539,-23.24627 -58.77274,-6.20965 -30.72666,19.48661 -29.91008,61.95497 -13.91183,90.91022 12.86938,36.41306 -54.78118,50.49728 -59.37366,19.67416 -9.21677,-51.65127 -40.19569,-104.69189 -93.86163,-119.00583 -35.32079,-2.70442 -33.56591,-54.32542 -69.95246,-63.98657 -14.16862,-7.05075 -29.54661,-12.4561 -45.48022,-13.16223 z" /><path
   class="st5"
   d="m 237.14043,753.7 c -1.5,-3.7 -4.1,-7.2 -7.8,-8.7 -5.2,-2.1 -10.9,0.3 -11,6.1 -0.1,5.7 4.3,10.2 9,12.9 7.2,4.2 15.4,6.5 23.7,6.8 1.3,0 3.2,-0.7 2.8,-1.9 -0.1,-0.3 -0.4,-0.6 -0.7,-0.8 -6.8,-5.5 -12.5,-5.6 -16,-14.4 z"
   id="path23" /><path
   class="st5"
   d="m 328.14043,769.6 c -2.4,-0.6 -4.7,-1.6 -7.1,-1.7 -2.5,0 -5.2,1.4 -5.6,3.8 -1.3,7.6 13,8.8 17.8,9.1 10.7,0.7 21.1,-2.3 30.7,-6.8 1.9,-0.9 3.9,-2 5.2,-3.6 1.3,-1.7 1.9,-4.1 0.7,-6 -1.8,-3 -6.2,-2.4 -9.5,-1.3 -10.6,3.5 -21.5,9.3 -32.2,6.5 z"
   id="path25" /><path
   class="st5"
   d="m 168.24043,728.1 c -2.7,-2.9 -0.7,-10.2 -4.4,-11.8 -1.1,-0.5 -2.2,-0.2 -3.4,0.1 -2.5,0.6 -5.1,1.3 -7.3,2.7 -7.4,4.5 -3.7,12.3 2.6,15.7 3,1.6 24.3,8.5 20.6,-1.8 -1.2,-3.1 -6,-2.6 -8.1,-4.9 z"
   id="path27" /><path
   class="st5"
   d="m 423.74043,762.4 c 9.6,2.8 16.7,-0.7 25.5,-4.3 8.3,-3.4 8.2,-12.4 1.5,-18.4 -3,-2.7 -7,-4.1 -11,-3.8 -1.2,0.1 -2.5,0.5 -2.8,1.6 -0.1,0.5 0,1 0.1,1.5 1.2,4.8 -0.1,10.2 -3.3,14 -3.2,3.8 -8.1,6 -13.1,6 -0.5,1.6 1.5,3 3.1,3.4 z"
   id="path29" /><path
   class="st5"
   d="m 507.34043,706.9 c -1,0.1 -2,0.4 -2.6,1.1 -1.1,1.2 -0.8,3.1 -0.9,4.7 -0.2,3.9 -2.9,7.4 -6.2,9.4 -0.5,0.3 -1.1,0.6 -1.7,0.9 -3.9,-0.3 -8.7,-0.4 -11,1.3 -3.3,2.4 0,6.8 2.9,8.3 2.3,1.2 5.1,1.4 7.7,1.4 8,-0.2 17.9,-3.3 23.3,-9.5 1.2,-1.4 2.4,-3.1 2.5,-5 0.2,-2.3 -1.2,-4.5 -2.7,-6.3 -2.8,-3.5 -6.8,-6.8 -11.3,-6.3 z"
   id="path31" /><path
   class="st6"
   d="m 454.04043,184.9 c 1.1,4.4 2,8.9 2.5,13.4 0.5,3.8 0.7,7.9 0.7,11.9 0,55.9 -45.5,101.3 -101.4,101.3 -20.8,0 -40.7,-6.2 -57.5,-17.9 -14.1,22.7 -39.1,37 -66.9,37 -43.4,0 -78.6,-35.3 -78.6,-78.6 0,-4.2 0.3,-8.4 1,-12.5 1.2,-7.6 3.5,-14.8 6.8,-21.5"
   id="path35" /><path
   class="st6"
   d="m 160.64043,218.1 c 12.9,-26.6 40.3,-44.8 70.9,-44.8 9.7,0 19.2,1.8 28.1,5.2 13.5,-40.8 52,-69.7 96.3,-69.7 46.8,0 86.9,31.9 98.2,76.1"
   id="path37" /><path
   class="st7"
   d="m 442.94043,199.9 c -5.1,43.5 -42.2,77.3 -87.1,77.3 -24.4,0 -46.01139,1.2698 -61.91139,-14.8302 -8.4,26.2 -33.38861,34.0302 -62.38861,34.0302 -32.3,0 -59.2,-23.7 -64.1,-54.7 4.9,-31 31.9,-54.7 64.1,-54.7 14,0 26.9,4.4 37.4,11.9 5.5,-43.1 42.4,-76.4 86.9,-76.4 44.5,0 82,33.9 87.1,77.4 z"
   id="path39"
   sodipodi:nodetypes="cscscscsc" /><path
   class="st8"
   d="m 443.54043,210.2 c 0,48.3 -39.3,87.6 -87.7,87.6 -24.4,0 -46.4,-10 -62.3,-26.1 -8.4,26.2 -33,45.3 -62,45.3 -35.8,0 -64.9,-29.1 -64.9,-64.9 0,-3.5 0.3,-6.9 0.8,-10.3 4.9,31 32.28861,50.42525 64.48861,50.42525 29,0 53.21139,-14.72525 61.61139,-41.02525 15.9,16.1 37.22277,21.43664 61.52277,21.43664 44.9,0 82.67723,-29.13664 87.87723,-72.63664 0.4,3.2 0.6,6.7 0.6,10.2 z"
   id="path41"
   sodipodi:nodetypes="sscsscscscs" /><path
   class="st9"
   d="m 245.34043,253.6 c -11.9,0 -21.6,-9.7 -21.6,-21.6 0,-11.9 9.7,-21.6 21.6,-21.6 11.9,0 21.6,9.7 21.6,21.6 0,11.9 -9.7,21.6 -21.6,21.6 z"
   id="path45" /><path
   class="st9"
   d="m 377.54043,212.6 c -13.9,0 -25.2,-11.3 -25.2,-25.2 0,-13.9 11.3,-25.2 25.2,-25.2 13.9,0 25.2,11.3 25.2,25.2 0,13.9 -11.3,25.2 -25.2,25.2 z"
   id="path47" /><path
   class="st9"
   d="m 518.84043,350.6 c -10.7,-16.1 -47.6,-9.9 -47.6,-9.9 l -288.2,64.1 c 0,0 -36.1,10 -38.9,29.2 -5.2,35.1 33.4,76.2 61.8,90.5 17.2,8.6 37.9,14.5 56.8,18.1 16.8,3.2 34,4.1 51.2,3 19.7,0.1 35.8,-2 50.4,-5.3 h 0.1 c 14.6,-3.2 30,-8.2 47.9,-16.6 16.1,-6.3 31.3,-14.5 45.1,-24.5 15.5,-11.2 31.8,-25.4 43.7,-40.5 19.7,-24.9 37.2,-78.5 17.7,-108.1 z"
   id="path51" /><path
   class="st7"
   d="m 182.44043,445.6 c 12.9,0 24,-9.2 29.2,-22.6 5.2,13.2 16.2,22.4 29.1,22.4 15,0 27.5,-12.4 31.2,-29.2 5.9,16.7 20.4,27.7 35.6,25.4 16.1,-2.4 27.2,-18.9 26.6,-38.1 7.7,15.5 23,24.5 37.6,20.7 14.8,-3.8 24,-19.6 22.8,-37.3 10,14.1 26.4,20.6 40.2,14.7 11.8,-5 18.4,-17.8 18,-32 10,10.3 23.8,14.4 35.7,9.4 13.2,-5.6 19.9,-20.9 17.6,-37.1 -14.8,-4.6 -34.8,-1.3 -34.8,-1.3 l -288.2,64.2 c 0,0 -19.1,5.3 -30.6,15.6 4.6,14.7 16.3,25.2 30,25.2 z"
   id="path53" /><path
   class="st10"
   d="m 313.14043,547.5 c 0,0 82.3,-12.4 119.5,39.6 0,0 49.1,130.4 136,6.1 29.9,-42.7 -81.4,-167.4 -184.2,-88.8 0,0 -67,6.8 -71.3,43.1 z"
   id="path55" /><path
   class="st11"
   d="m 384.44043,504.4 c 0,0 92.6,-20.1 122.4,53 -43.1,-49.6 -82.7,-50.1 -122.4,-53 z"
   id="path57" />
</svg>
