<?xml version="1.0" encoding="UTF-8" standalone="no"?>
<!DOCTYPE svg PUBLIC "-//W3C//DTD SVG 1.1//EN" "http://www.w3.org/Graphics/SVG/1.1/DTD/svg11.dtd">
<svg width="100%" height="100%" viewBox="0 0 529 621" version="1.1" xmlns="http://www.w3.org/2000/svg" xmlns:xlink="http://www.w3.org/1999/xlink" xml:space="preserve" xmlns:serif="http://www.serif.com/" style="fill-rule:evenodd;clip-rule:evenodd;stroke-linecap:round;stroke-linejoin:round;stroke-miterlimit:1.5;">
    <g transform="matrix(1,0,0,1,-356.43,-568.848)">
        <g transform="matrix(1,0,0,1,-802.873,161.924)">
            <g transform="matrix(1,0,0,1,802.873,-161.924)">
                <path d="M407.958,878.468C405.153,870.989 400.632,852.488 401.969,844.801C402.404,842.301 406.2,828.106 407.256,825.887C407.394,825.597 407.394,825.597 406.09,810.673C406.234,809.376 400.106,813.267 399.4,813.771C394.515,817.26 392.84,823.563 389.32,828.199C382.481,837.206 380.053,875.404 382.217,878.829L407.958,878.468Z" style="fill:rgb(143,71,50);stroke:black;stroke-width:2px;"/>
            </g>
            <g transform="matrix(1,0,0,1,-3.88572,-2.70253)">
                <path d="M1196.91,1009.1C1197.15,1009.57 1197.83,1010.92 1198.26,1011.37C1199.4,1012.54 1200.76,1013.47 1202.07,1014.46C1204.78,1016.51 1212.71,1022.34 1215.86,1023.73C1228.8,1029.44 1251.63,1033.65 1260.08,1018.02C1262.95,1012.72 1256.92,1007.73 1252.24,1006.85C1239.45,1004.44 1225.72,1001.95 1212.77,1005.18L1196.91,1009.1ZM1262.02,1008.9C1261.9,1008.43 1261.8,1008.24 1261.68,1008.83L1262.02,1008.9C1262.18,1009.59 1262.38,1010.88 1262.7,1011.13C1264.57,1012.61 1272.61,1016.16 1274.83,1016.83C1288.01,1020.86 1299.08,1024.07 1312.49,1021.99C1315.71,1021.49 1319.78,1022.29 1321.67,1018.74C1322.2,1017.74 1321.65,1014.68 1321.43,1013.74C1319.85,1007.13 1318.15,1006.64 1310.97,1004.95C1299.21,1002.17 1287.19,1003.17 1275.54,1005.9C1272.48,1006.61 1265.78,1008.99 1262.46,1008.99L1262.02,1008.9ZM1196.91,1009.1L1196.88,1009.11C1196.79,1008.87 1196.81,1008.91 1196.91,1009.1Z" style="fill:rgb(52,54,71);"/>
            </g>
            <path d="M1255.07,714.573C1246.24,712.928 1229.66,709.697 1219.36,709.947C1213.7,710.084 1213.84,713.677 1209.07,713.535C1203.63,713.373 1199.07,709.46 1196.09,709.946L1195.19,801.731L1260.79,815.676" style="fill:rgb(255,246,157);"/>
            <path d="M1294.92,864.074L1331.68,877.634L1331.68,923.929L1294.92,934.229L1281.12,917.413L1269.57,865.704L1294.92,864.074Z" style="fill:rgb(128,128,128);"/>
            <g transform="matrix(1,0,0,1,11.4681,5.87914)">
                <path d="M1284.44,928.35L1320.21,917.884L1320.21,871.754L1279.48,880.025L1284.44,928.35Z" style="fill:none;stroke:black;stroke-width:2px;"/>
            </g>
            <g transform="matrix(1,0,0,1,11.4681,5.87914)">
                <path d="M1320.21,871.754L1292.05,859.825" style="fill:none;stroke:black;stroke-width:2px;"/>
            </g>
            <path d="M1273.18,881.91L1281.12,917.413L1289.43,927.541C1289.03,924.71 1289.43,921.85 1289.43,919.006C1289.43,915.976 1288.08,913.188 1287.44,910.257C1286.79,907.326 1286.79,904 1285.78,901.16C1285.01,898.97 1283.71,897.071 1283.03,894.819C1282.32,892.488 1281.91,890.252 1280.55,888.203C1279.44,886.545 1276.67,880.902 1273.93,881.587C1273.64,881.659 1273.4,881.769 1273.18,881.91Z" style="fill:rgb(111,107,107);"/>
            <path d="M1295.91,934.229L1270.58,905.931L1265.97,870.136L1290.95,886.213" style="fill:none;stroke:black;stroke-width:2px;"/>
            <path d="M1326.1,889.172C1332.78,883.925 1314.85,898.953 1314.85,903.608" style="fill:none;stroke:black;stroke-width:2px;"/>
            <path d="M1298.01,893.207C1298.45,892.059 1307.57,902.145 1309.04,903.608" style="fill:none;stroke:black;stroke-width:2px;"/>
            <path d="M1299.9,912.17C1299.87,912.073 1309.38,922.192 1312.52,923.764" style="fill:none;stroke:black;stroke-width:2px;"/>
            <path d="M1325.34,910.938C1327.28,907.005 1320.63,920.663 1317.56,920.663" style="fill:none;stroke:black;stroke-width:2px;"/>
            <g transform="matrix(1,0,0,1,-181.853,7.5325)">
                <path d="M1436.65,999.652C1436.35,999.359 1442.14,994.827 1440,995.507C1437.35,996.345 1432.09,993.816 1429.74,993.666C1424.99,993.364 1425.33,995.052 1420.79,994.718C1409.75,993.905 1408.96,991.614 1397.91,994.718C1395.35,995.436 1368.66,1002.09 1368.71,1001.56C1369.37,993.933 1370.18,986.316 1370.55,978.671C1371.02,968.872 1369.73,960.041 1371.07,950.261C1375.56,917.57 1378,918.066 1380.81,885.285C1382.11,870.111 1375.7,857.592 1372.91,842.932C1371.9,837.574 1371.6,832.076 1371.6,826.622C1371.6,824.899 1371.7,820.406 1372.91,821.624L1371.34,825.57C1371.34,816.89 1373.26,808.219 1375.02,799.79C1375.43,797.804 1377.18,788.407 1379.49,786.9C1381.74,785.44 1383.72,791.689 1386.33,791.109C1390.36,790.215 1391.14,782.802 1392.7,779.152C1397.57,767.738 1397.62,752.299 1395.14,740.783C1392.67,729.302 1384.81,716.824 1384.44,705.086C1384.35,702.28 1390.06,705.554 1392.86,705.349C1394.44,705.234 1398.74,703.2 1397.15,703.262C1397.15,703.262 1396.88,701.581 1397.88,702.413C1399,703.345 1400.42,715.118 1400.63,716.031C1403.18,726.944 1410.28,734.002 1412.76,744.93C1413.45,747.991 1436.49,747.398 1436.44,745.319C1436.24,737.232 1436.44,729.139 1436.25,721.052C1436.18,718.199 1436.06,715.336 1435.66,712.51C1435.41,710.722 1433.99,709.045 1434.31,707.268C1434.44,706.501 1435.86,707.124 1436.63,707.074C1439.63,706.882 1442.6,706.291 1445.37,708.045C1449.12,710.413 1448.3,719.248 1448.48,722.216C1449.88,745.017 1449.86,744.831 1451.97,767.644C1453.21,781.08 1454.97,794.617 1456.09,808.022C1456.71,815.484 1455.3,815.327 1455.39,822.789C1455.5,830.944 1464.25,923.843 1467.11,945.471C1468.2,953.666 1471.19,961.666 1471.19,969.932L1471.72,969.291C1471.57,968.534 1471.99,970.813 1472.07,971.582C1472.24,973.455 1472.16,975.354 1472.45,977.212C1473.18,981.902 1474.04,986.581 1475.17,991.19C1475.41,992.151 1477.06,993.842 1476.72,995.073C1476.54,995.751 1474.12,995.725 1473.93,995.712C1470.46,995.468 1470.55,994.96 1467.03,995.119C1464.15,995.249 1458.68,996.6 1456.53,997.014C1451.61,997.962 1446.71,998.886 1441.85,1000.1C1441.79,1000.12 1436.99,999.993 1436.65,999.652Z" style="fill:rgb(113,185,188);"/>
            </g>
            <path d="M1263.79,785.768C1261.68,763.019 1260.74,713.823 1263.52,715.577C1267.27,717.945 1266.44,726.78 1266.62,729.749C1268.03,752.549 1268.01,752.364 1270.12,775.176C1271.36,788.613 1273.12,802.149 1274.24,815.554C1274.86,823.016 1273.45,822.86 1273.54,830.322C1273.64,838.476 1282.39,931.376 1285.26,953.004C1286.35,961.198 1289.34,969.199 1289.34,977.465L1289.86,976.834C1289.83,976.642 1289.83,976.599 1289.87,976.823L1289.86,976.834C1289.94,977.288 1290.16,978.574 1290.21,979.115C1290.38,980.988 1290.31,982.886 1290.6,984.745C1291.33,989.435 1292.18,994.114 1293.32,998.722C1293.56,999.683 1295.2,1001.38 1294.87,1002.61C1294.69,1003.28 1292.27,1003.26 1292.08,1003.24C1288.6,1003 1288.7,1002.49 1285.18,1002.65C1284.09,1002.7 1282.62,1002.93 1281.11,1003.21C1280,998.659 1279.16,994.042 1278.44,989.415C1278.15,987.557 1278.22,985.659 1278.05,983.786C1278,983.245 1277.78,981.958 1277.7,981.504L1277.71,981.494C1277.66,981.269 1277.67,981.313 1277.7,981.504L1277.18,982.135C1277.18,973.869 1274.19,965.869 1273.1,957.674C1270.23,936.046 1268.23,849.688 1268.13,841.533C1268.04,834.071 1266.63,827.952 1266,820.49C1264.89,807.085 1265.03,799.204 1263.79,785.768Z" style="fill:rgb(143,214,217);"/>
            <path d="M1190.61,828.735C1191.8,830.947 1202.52,846.724 1204.21,858.584C1204.84,863.004 1202.53,867.191 1202.53,871.593C1202.53,891.271 1207.46,912.076 1204.21,931.582C1203.67,934.848 1204.92,938.474 1204.21,941.701C1201.61,953.57 1198.09,966.653 1196.99,978.802C1196.21,987.311 1195.78,996.477 1195.78,1005.06C1195.78,1005.72 1195.81,1006.46 1195.85,1007.25C1190.81,1008.43 1186.84,1009.3 1186.85,1009.09C1187.52,1001.47 1188.33,993.849 1188.69,986.204C1189.16,976.405 1187.88,967.573 1189.22,957.793C1193.7,925.102 1196.14,925.598 1198.95,892.817C1200.26,877.643 1193.85,865.125 1191.06,850.464C1190.04,845.106 1189.77,833.532 1190.61,828.735Z" style="fill:rgb(107,142,144);"/>
            <path d="M1251.85,852.42C1252.2,850.988 1250.53,859.987 1250.41,860.62C1249.54,865.593 1250.36,874.755 1247.69,879.214C1246.99,880.382 1245.16,920.859 1244.22,918.928C1239.59,909.496 1234.97,869.866 1238.18,859.418C1238.8,857.432 1232.38,855.703 1234.3,854.421C1237.68,852.166 1245.88,853.607 1249.92,852.934L1251.85,852.42Z" style="fill:rgb(107,142,144);"/>
            <path d="M1270.54,640.972C1272.07,640.87 1270.35,646.519 1270.39,646.977C1271.45,659.845 1269.91,669.326 1264.86,681.359C1263.48,684.666 1256.52,695.545 1252.76,696.782C1250.04,697.675 1248.79,693.024 1246.98,697.288C1245.06,701.817 1242.95,709.917 1249.26,712.472C1250.15,712.835 1251.58,711.378 1252.14,712.168C1252.73,713.006 1251.57,714.154 1251.08,715.053C1250.06,716.927 1249.09,718.891 1247.63,720.446C1243.45,724.893 1237.33,730.287 1230.58,727.96C1227.23,726.806 1224.57,723.997 1223.01,720.914C1221.48,717.865 1220,714.726 1219.19,711.409C1218.59,708.93 1220.97,706.27 1221.47,704.121C1222.68,698.868 1228.54,688.981 1225.86,686.659C1218.68,680.44 1208.15,659.439 1211.46,650.351C1213.57,644.547 1214.25,649.048 1219.95,644.902C1224.7,641.442 1226.03,642.631 1231.45,641.241C1244.95,637.775 1244.52,636.302 1258.37,635.791C1261.61,635.671 1271.27,635.871 1271.27,641.713L1270.54,640.972Z" style="fill:rgb(223,160,122);"/>
            <path d="M1253.24,636.071C1257.69,635.724 1271.27,634.065 1271.27,641.713L1271.12,641.558C1271.04,641.179 1270.86,640.951 1270.54,640.972L1271.12,641.558C1271.51,643.339 1270.58,645.164 1270.39,646.977C1268.79,662.502 1269.34,676.895 1259.7,689.847C1257.75,692.471 1255.27,694.685 1252.76,696.782C1250.7,698.496 1247.13,695.081 1246.08,698.146C1245.16,700.835 1243.7,705.531 1245.24,708.651C1247.62,713.477 1253.77,711.297 1250.86,716.639C1247.17,723.401 1236.73,731.658 1228.72,727.119C1232.33,725.321 1242.48,718.189 1241.51,712.168C1241.18,710.105 1240.07,698.496 1242.12,696.782C1244.64,694.685 1247.12,692.471 1249.07,689.847C1258.71,676.895 1258.15,662.502 1259.76,646.977C1259.95,645.164 1260.87,643.339 1260.49,641.558L1259.91,640.972C1260.23,640.951 1260.4,641.179 1260.49,641.558L1260.64,641.713C1260.64,638.06 1256.86,636.613 1253.24,636.071Z" style="fill:rgb(214,138,93);"/>
            <g transform="matrix(0.997626,0.113659,-0.115639,1.015,178.888,-124.329)">
                <path d="M1169.26,620.176C1166.88,620.578 1167.29,614.749 1166.38,612.291C1165,608.589 1162.97,605.158 1161.03,601.718C1156.76,594.153 1149.24,590.003 1140.56,589.235C1130.75,588.366 1116.5,594.977 1110.93,603.154C1104.53,612.538 1104.07,625.693 1106.3,636.448C1107.59,642.665 1119.63,634.98 1121.56,634.14C1130.58,630.204 1142.01,628.675 1150.98,627.561C1161.54,626.25 1172.26,627.375 1182.9,627.06C1183.12,627.054 1194.5,627.431 1190.54,622.805C1184.77,616.071 1176.42,618.964 1169.26,620.176Z" style="fill:rgb(255,187,0);stroke:black;stroke-width:1.97px;"/>
            </g>
            <g transform="matrix(0.997626,0.113659,-0.115639,1.015,178.888,-124.329)">
                <path d="M1169.26,620.176C1166.88,620.578 1167.29,614.749 1166.38,612.291C1165,608.589 1162.97,605.158 1161.03,601.718C1156.76,594.153 1149.24,590.003 1140.56,589.235C1130.75,588.366 1116.5,594.977 1110.93,603.154C1104.53,612.538 1104.07,625.693 1106.3,636.448C1107.59,642.665 1119.63,634.98 1121.56,634.14C1130.58,630.204 1142.01,628.675 1150.98,627.561C1161.54,626.25 1172.26,627.375 1182.9,627.06C1183.12,627.054 1194.5,627.431 1190.54,622.805C1184.77,616.071 1176.42,618.964 1169.26,620.176Z" style="fill:rgb(255,0,167);"/>
            </g>
            <path d="M1219.69,648.666C1219.45,638.414 1221.75,627.078 1228.37,619.279C1234.88,611.613 1249.86,606.522 1259.54,608.519C1259.8,608.571 1260.05,608.625 1260.29,608.683C1256.99,606.065 1253,604.288 1248.6,603.382C1238.92,601.385 1223.94,606.476 1217.43,614.142C1209.97,622.94 1207.99,636.24 1208.96,647.409C1209.34,651.721 1215.22,650.285 1219.69,648.666Z" style="fill:rgb(195,36,140);"/>
            <g transform="matrix(0.997626,0.113659,-0.115639,1.015,-106.698,-165.06)">
                <path d="M1422.48,631.092C1423.4,631.902 1423.02,630.639 1422.2,626.515C1421.87,624.817 1421.31,623.171 1420.81,621.513C1418.81,614.829 1417.69,609.712 1413.05,604.615C1412.15,603.624 1410.05,601.111 1408.29,601.111" style="fill:none;stroke:black;stroke-width:1.97px;"/>
            </g>
            <g transform="matrix(0.997626,0.113659,-0.115639,1.015,-106.698,-165.06)">
                <path d="M1455.81,627.991C1458.39,628.44 1455.27,622.719 1454.35,620.261C1452.98,616.559 1450.94,613.128 1449,609.688C1444.74,602.123 1437.21,597.973 1428.54,597.205C1418.73,596.336 1404.48,602.947 1398.9,611.124C1392.51,620.509 1392.05,633.663 1394.27,644.418C1395.56,650.635 1407.61,642.95 1409.53,642.11C1418.56,638.174 1429.99,636.645 1438.96,635.531C1449.52,634.22 1460.24,635.345 1470.88,635.031C1471.1,635.024 1482.47,635.401 1478.51,630.775C1472.74,624.041 1464.4,626.934 1457.23,628.146C1434.75,631.95 1434.76,631.048 1412.05,633.654C1407.72,634.151 1394.78,636.076 1394.78,642.791" style="fill:none;stroke:black;stroke-width:1.97px;"/>
            </g>
            <g transform="matrix(0.997626,0.113659,-0.115639,1.015,-106.698,-165.06)">
                <path d="M1452.83,637.347C1454.56,638.092 1454.37,640.819 1454.73,642.666C1455.85,648.398 1455.74,654.054 1454.98,659.813C1453.82,668.62 1450.34,681.323 1442.92,686.878C1439.62,689.352 1425.38,686.544 1423.6,685.457C1420.27,683.43 1416.36,681.426 1412.88,679.034C1410,677.057 1407.4,674.816 1405.66,672.079C1400.54,664.008 1400.3,663.304 1397.4,654.181C1397.03,653.006 1395.85,648.722 1397.15,647.422" style="fill:none;stroke:black;stroke-width:1.97px;"/>
            </g>
            <g transform="matrix(0.662957,0.0755306,-0.0705961,0.619645,330.014,143.379)">
                <path d="M1396.56,646.826C1396.71,646.649 1394.15,645.728 1394.12,645.959C1394.04,646.696 1393.82,651.146 1393.02,652.303C1387.53,660.288 1402.91,673.811 1404.86,672.933C1400.75,665.059 1397.36,656.738 1396.56,646.826Z" style="fill:rgb(133,49,133);stroke:black;stroke-width:3.1px;"/>
            </g>
            <g transform="matrix(1,0,0,1,802.873,-161.924)">
                <path d="M403.515,822.466C403.61,822.696 394.445,836.703 393.984,837.836C389.925,847.829 389.87,857.993 388.529,868.716" style="fill:none;stroke:black;stroke-width:2px;"/>
            </g>
            <g transform="matrix(1,0,0,1,-181.853,7.5325)">
                <path d="M1407.51,682.344C1406,688.535 1403.21,697.506 1403.01,698.261C1402.95,698.507 1402.62,702.338 1401.46,702.338" style="fill:none;stroke:black;stroke-width:2px;"/>
            </g>
            <g transform="matrix(1,0,0,1,-181.766,7.70621)">
                <path d="M1427.54,691.554C1428.8,690.696 1427.46,694.61 1427.28,696.126C1427.08,697.847 1426.41,704.428 1428.64,706.027C1429.95,706.97 1431.88,706.094 1433.49,706.221C1437.64,706.547 1441.88,706.365 1445.92,707.386" style="fill:none;stroke:black;stroke-width:2px;"/>
            </g>
            <g transform="matrix(1,0,0,1,-181.766,7.70621)">
                <path d="M1445.92,707.386C1453.09,709.201 1459.89,713.722 1464.36,719.616" style="fill:none;stroke:black;stroke-width:2px;"/>
            </g>
            <g transform="matrix(1,0,0,1,-181.766,7.70621)">
                <path d="M1464.36,719.616C1471.7,729.304 1476.32,739.431 1478.34,751.454C1479.81,760.248 1477.83,770.148 1476.93,778.847C1475.84,789.48 1479.4,800.639 1478.93,811.151C1478.4,822.955 1477.51,828.721 1477.51,840.536L1477.59,840.54C1480.83,837.882 1486.75,850.795 1486.04,854.923C1484.73,862.464 1465.07,864.7 1464.78,862.701C1462.66,848.187 1465.29,840.288 1465.13,825.983C1464.94,807.74 1457.28,794.079 1454.69,775.992C1453.14,765.14 1450.43,754.745 1449.25,743.765C1448.88,740.281 1448.76,736.774 1448.48,733.282C1448.38,732.05 1448.23,730.822 1448.09,729.594C1448.03,729.075 1447.89,727.519 1447.89,728.041L1464.36,719.616Z" style="fill:rgb(223,160,122);stroke:black;stroke-width:2px;"/>
            </g>
            <g transform="matrix(1,0,0,1,-181.853,7.5325)">
                <path d="M1447.7,708.187C1447.7,707.521 1449.04,707.995 1449.69,708.132C1450.69,708.342 1451.73,708.608 1452.55,709.209C1456.86,712.359 1460.96,715.791 1464.98,719.304C1467.34,721.369 1467.24,722.558 1468.86,725.129C1471.06,728.603 1473.8,731.753 1475.66,735.418C1479.46,742.912 1481.04,750.654 1482.06,758.908C1482.48,762.253 1482.5,765.636 1482.64,769.003C1482.69,770.037 1483.54,771.595 1482.64,772.109C1481.07,773.008 1479.01,771.952 1477.21,772.109C1473.05,772.471 1468.83,772.65 1464.79,773.662C1461.78,774.414 1459.12,776.182 1456.24,777.351C1455.3,777.736 1454.08,779.018 1453.33,778.321C1452.48,777.528 1453.59,775.992 1453.53,774.827C1453.33,770.936 1453.02,767.047 1452.55,763.179C1450.95,749.959 1448.78,736.81 1447.31,723.575C1446.9,719.907 1446.78,716.198 1446.92,712.51C1446.97,711.302 1446.69,709.015 1447.89,709.015" style="fill:rgb(255,246,157);stroke:black;stroke-width:2px;"/>
            </g>
            <g transform="matrix(1,0,0,1,-181.853,7.5325)">
                <path d="M1397.7,702.371C1398.82,703.303 1399.63,713.4 1399.85,714.314C1402.39,725.227 1410.28,734.002 1412.76,744.93C1413.45,747.991 1436.49,747.398 1436.44,745.319C1436.24,737.232 1436.44,729.139 1436.25,721.052C1436.18,718.199 1436.06,715.336 1435.66,712.51C1435.41,710.722 1433.99,709.045 1434.31,707.268C1434.44,706.501 1435.86,707.124 1436.63,707.074C1439.63,706.882 1442.6,706.291 1445.37,708.045C1449.12,710.413 1448.3,719.248 1448.48,722.216C1449.88,745.017 1449.86,744.831 1451.97,767.644C1453.21,781.08 1454.97,794.617 1456.09,808.022C1456.71,815.484 1455.3,815.327 1455.39,822.789C1455.5,830.944 1456.74,839.254 1457.02,847.433C1457.58,864.011 1456.34,863.905 1458.18,880.63C1460.57,902.317 1464.25,923.843 1467.11,945.471C1468.2,953.666 1471.19,961.666 1471.19,969.932" style="fill:none;stroke:black;stroke-width:2px;"/>
            </g>
            <g transform="matrix(1,0,0,1,-181.853,7.5325)">
                <path d="M1471.72,969.291C1471.57,968.534 1471.99,970.813 1472.07,971.582C1472.24,973.455 1472.16,975.354 1472.45,977.212C1473.18,981.902 1474.04,986.581 1475.17,991.19C1475.41,992.151 1477.06,993.842 1476.72,995.073C1476.54,995.751 1474.12,995.725 1473.93,995.712C1470.46,995.468 1470.55,994.96 1467.03,995.119C1464.15,995.249 1458.46,995.977 1456.53,997.014C1451.27,999.846 1441.8,1000.55 1437.32,999.631" style="fill:none;stroke:black;stroke-width:2px;"/>
            </g>
            <g transform="matrix(1,0,0,1,-181.853,7.5325)">
                <path d="M1421.3,857.234C1421.45,854.897 1420.71,861.9 1420.79,864.24C1420.98,869.341 1421.55,874.423 1422.11,879.497C1422.69,884.772 1423.25,890.049 1423.83,895.325C1424.88,904.885 1425.99,914.438 1427.37,923.955C1429.96,941.816 1433.29,959.563 1436.31,977.356C1436.97,981.222 1437.48,985.123 1438.42,988.931C1438.96,991.12 1442.14,994.827 1440,995.507C1437.35,996.345 1432.09,993.816 1429.74,993.666C1424.99,993.364 1425.33,995.052 1420.79,994.718C1409.75,993.905 1408.96,991.614 1397.91,994.718C1395.35,995.436 1368.66,1002.09 1368.71,1001.56C1369.37,993.933 1370.18,986.316 1370.55,978.671C1371.02,968.872 1369.73,960.041 1371.07,950.261C1375.56,917.57 1378,918.066 1380.81,885.285C1382.11,870.111 1375.7,857.592 1372.91,842.932C1371.9,837.574 1371.6,832.076 1371.6,826.622C1371.6,824.899 1371.7,820.406 1372.91,821.624" style="fill:none;stroke:black;stroke-width:2px;"/>
            </g>
            <g transform="matrix(1,0,0,1,-181.853,7.5325)">
                <path d="M1380.31,827.999C1380.66,827.577 1380.76,827.929 1380.73,828.297C1380.68,829.037 1380.56,829.773 1380.43,830.504C1380.15,832.109 1379.77,833.697 1379.49,835.303C1379.08,837.656 1378.55,841.328 1378.44,843.721C1378.36,845.582 1378.84,845.58 1378.44,847.404C1378.38,847.687 1377.95,847.529 1377.87,847.426C1377.67,847.172 1377.54,846.875 1377.39,846.59C1377.03,845.903 1376.81,845.123 1376.34,844.51C1373.9,841.385 1371.79,840.078 1370.55,836.355" style="fill:none;stroke:black;stroke-width:2px;"/>
            </g>
            <g transform="matrix(1,0,0,1,-182.716,-4.69394)">
                <path d="M1410.37,762.664C1410.17,761.823 1413.03,789.793 1413.07,792.603C1413.08,793.651 1412.67,794.664 1412.57,795.707C1412.5,796.51 1411.85,797.72 1412.54,798.127C1413.29,798.564 1414.1,797.366 1414.91,797.075C1418.06,795.945 1442.24,793.822 1442.8,793.392C1443.13,793.129 1442.16,792.773 1442.01,792.369C1441.58,791.171 1441.87,783.942 1441.96,783.036C1442.56,777.576 1443.96,759.503 1443.35,759.503C1443.66,763.74 1411.52,767.42 1410.37,762.664Z" style="fill:none;stroke:black;stroke-width:2px;"/>
            </g>
            <g transform="matrix(1,0,0,1,-181.853,7.5325)">
                <path d="M1396.26,702.413C1397.85,702.352 1393.55,704.385 1391.97,704.5C1389.17,704.705 1383.46,701.431 1383.55,704.237C1383.92,715.976 1393.27,729.302 1395.74,740.783C1398.22,752.299 1397.57,766.102 1392.7,777.517C1391.14,781.167 1390.36,790.215 1386.33,791.109C1383.72,791.689 1381.74,785.44 1379.49,786.9C1377.18,788.407 1375.43,797.804 1375.02,799.79C1373.26,808.219 1371.34,816.89 1371.34,825.57" style="fill:none;stroke:black;stroke-width:2px;"/>
            </g>
            <g transform="matrix(1,0,0,1,-181.853,7.5325)">
                <path d="M1404.51,792.765C1406.08,792.242 1402.15,795.076 1401.03,796.286C1400.26,797.109 1399.46,797.915 1398.85,798.86C1398.58,799.284 1398,800.048 1398.43,800.316C1403.79,803.669 1409.72,806.006 1415.23,809.109C1424.47,814.317 1433.61,819.737 1442.44,825.622C1445.76,827.833 1448.19,831.871 1452.1,832.673C1453.84,833.03 1454.02,829.689 1454.99,828.2C1456.3,826.182 1457.47,824.061 1458.94,822.15C1459.5,821.41 1461.27,821.213 1461.04,820.309C1460.78,819.281 1459.05,819.549 1458.15,818.993C1455.62,817.438 1453.19,815.733 1450.78,813.995C1444.33,809.331 1437.87,804.668 1431.58,799.79C1431.05,799.382 1423.47,792.033 1422.37,791.898C1421.2,791.755 1421.03,793.855 1420.19,794.69C1419.26,795.621 1418.29,796.584 1417.11,797.159C1413.91,798.714 1408.25,795.828 1405.8,794.529C1404.4,793.789 1401.14,790.484 1401.85,791.898" style="stroke:black;stroke-width:2px;"/>
            </g>
            <g transform="matrix(1,0,0,1,-181.853,7.5325)">
                <path d="M1429.17,817.669C1429.36,818.946 1427.97,819.954 1427.37,821.098C1425.44,824.78 1423.53,828.475 1421.58,832.146C1413.89,846.626 1406.26,861.145 1398.43,875.551C1395.02,881.83 1394.19,882.407 1389.75,887.915C1388.76,889.146 1386.64,891.993 1388.17,892.387C1390.58,893.006 1393.13,892.853 1395.54,893.44C1395.65,893.466 1400.25,896.159 1400.8,895.544C1401.74,894.491 1400.9,892.684 1401.33,891.335C1402.4,887.918 1403.87,884.637 1405.27,881.339C1413.23,862.58 1414.38,863.226 1422.9,844.773C1425.67,838.772 1427.8,832.493 1430.26,826.359C1431.04,824.425 1431.87,822.511 1432.63,820.572C1433.01,819.617 1434.41,816.952 1433.68,817.678" style="fill:rgb(110,65,38);stroke:black;stroke-width:2px;"/>
            </g>
            <g transform="matrix(1,0,0,1,-185.738,4.82997)">
                <path d="M1443.54,1001.3C1443.83,999.842 1444.02,1003.18 1444.55,1003.6C1446.42,1005.07 1454.46,1008.63 1456.68,1009.3C1469.87,1013.32 1480.93,1016.54 1494.35,1014.46C1497.57,1013.96 1501.63,1014.75 1503.52,1011.2C1504.05,1010.21 1503.51,1007.15 1503.28,1006.21C1501.7,999.597 1500,999.108 1492.82,997.413C1481.07,994.638 1469.04,995.638 1457.39,998.364C1454.34,999.079 1447.63,1001.46 1444.31,1001.46" style="fill:none;stroke:black;stroke-width:2px;"/>
            </g>
            <g transform="matrix(1,0,0,1,-185.738,4.82997)">
                <path d="M1378.73,1001.58C1378.4,1000.76 1379.5,1003.2 1380.11,1003.83C1381.25,1005.01 1382.62,1005.94 1383.92,1006.92C1386.63,1008.98 1394.56,1014.81 1397.71,1016.2C1410.65,1021.91 1433.49,1026.12 1441.93,1010.49C1444.8,1005.19 1438.77,1000.2 1434.09,999.315C1421.3,996.912 1407.57,994.412 1394.62,997.651" style="fill:none;stroke:black;stroke-width:2px;"/>
            </g>
            <path d="M1297.6,876.193C1297.7,876.176 1299.39,860.846 1297.41,857.87C1295.02,854.295 1294.96,855.365 1290.95,855.365" style="fill:none;stroke:black;stroke-width:2px;"/>
            <g transform="matrix(1,0,0,1,-181.853,7.5325)">
                <path d="M1369.82,704.668C1353.21,717.569 1348.24,738.221 1346.52,758.443C1345.7,768.112 1348.73,795.583 1353.8,806.156C1354.94,808.515 1376.68,821.328 1386.9,827.361C1390.99,829.773 1395.66,831.098 1399.71,833.573C1400.45,834.026 1400.31,835.25 1400.88,835.903C1403.11,838.448 1405.3,841.124 1408.06,843.086C1415.2,848.158 1424.26,852.486 1433.3,851.433C1438.78,850.795 1440.65,845.563 1438.15,840.562C1436.78,837.812 1433.55,836.48 1431.16,834.544C1424,828.738 1415.82,830.649 1407.67,826.778C1395.54,821.011 1385.03,808.855 1378.55,797.464C1373.53,788.63 1381.78,781.271 1384.57,772.421C1389.22,757.7 1392.35,747.388 1389.62,732.429C1388.71,727.478 1387.26,721.653 1383.02,718.257C1383.02,718.257 1377.29,698.86 1369.82,704.668Z" style="fill:rgb(223,160,122);stroke:black;stroke-width:2px;"/>
            </g>
            <g transform="matrix(1,0,0,1,-181.853,7.5325)">
                <path d="M1380.74,704.221C1380.07,702.491 1374.43,701.028 1370.09,704.668C1358.86,714.105 1351.15,729.59 1345.9,743.625C1344.57,747.198 1343.87,750.979 1342.99,754.691C1342.7,755.902 1341.69,757.362 1342.41,758.379C1352.77,773.068 1367.18,780.532 1385.3,778.941C1388.7,778.642 1392.77,744.441 1390,728.821C1389.27,724.66 1382.08,707.738 1380.74,704.221Z" style="fill:rgb(255,246,157);stroke:black;stroke-width:2px;"/>
            </g>
            <path d="M1250.85,714.406C1250.97,714.111 1250.28,717.291 1250.12,718.08C1248.61,725.731 1227.43,733.989 1227.65,721.566" style="fill:none;stroke:black;stroke-width:2px;"/>
        </g>
        <g transform="matrix(1,0,0,1,-802.873,161.924)">
            <path d="M1302.45,598.6C1298.73,595.141 1280.73,599.495 1287.81,612.273C1296.37,627.728 1313.99,609.291 1302.45,598.6Z" style="fill:none;stroke:black;stroke-width:2px;"/>
        </g>
        <g transform="matrix(1,0,0,1,-802.873,161.924)">
            <path d="M1340.39,584.594C1329.5,577.337 1306.38,587.865 1326.87,599.576C1339.36,606.714 1355.1,594.402 1340.39,584.594Z" style="fill:none;stroke:black;stroke-width:2px;"/>
        </g>
        <g transform="matrix(1,0,0,1,-802.873,161.924)">
            <path d="M1367.75,561.422C1357.19,558.964 1360.89,594.229 1383.97,582.207C1394.4,576.775 1381.38,560.286 1367.75,561.422Z" style="fill:none;stroke:black;stroke-width:2px;"/>
        </g>
        <g transform="matrix(1,0,0,1,-802.873,161.924)">
            <path d="M1644.19,473.095C1653.23,444.527 1598.74,407.485 1572.85,407.928C1534.23,408.588 1531.68,444.784 1531,443.308C1512.68,403.949 1415.59,405.575 1404.03,472.608C1403.43,476.064 1407.94,482.375 1407.94,482.375C1367.9,476.579 1364.24,555.406 1412.82,567.346C1429.2,571.371 1448.38,551.238 1446.03,555.626C1423.28,598.004 1509.92,643.791 1540.77,621.063C1548.3,615.514 1546.38,588.76 1546.62,591.763C1550.42,637.55 1654.82,630.09 1638.43,575.159C1637.94,573.525 1629.4,566.607 1628.67,567.346C1625.66,570.351 1672.32,588.499 1683.08,551.594C1690.07,527.656 1667.22,511.309 1664.06,514.913C1660.26,519.254 1688.51,508.511 1686.29,492.142C1681.43,456.301 1644.19,461.983 1644.19,473.095Z" style="fill:white;stroke:black;stroke-width:2px;"/>
        </g>
    </g>
</svg>
