<?xml version="1.0" encoding="UTF-8" standalone="no"?>
<!-- Created with Inkscape (http://www.inkscape.org/) -->

<svg
   width="446.62183mm"
   height="331.69043mm"
   viewBox="0 0 446.62183 331.69043"
   version="1.1"
   id="svg4181"
   inkscape:version="1.1.1 (3bf5ae0d25, 2021-09-20)"
   sodipodi:docname="2023-IR-02-explanation02.svg"
   xmlns:inkscape="http://www.inkscape.org/namespaces/inkscape"
   xmlns:sodipodi="http://sodipodi.sourceforge.net/DTD/sodipodi-0.dtd"
   xmlns="http://www.w3.org/2000/svg"
   xmlns:svg="http://www.w3.org/2000/svg"
   xmlns:serif="http://www.serif.com/">
  <sodipodi:namedview
     id="namedview4183"
     pagecolor="#ffffff"
     bordercolor="#666666"
     borderopacity="1.0"
     inkscape:pageshadow="2"
     inkscape:pageopacity="0.0"
     inkscape:pagecheckerboard="0"
     inkscape:document-units="mm"
     showgrid="false"
     inkscape:zoom="0.51150169"
     inkscape:cx="685.23723"
     inkscape:cy="673.50706"
     inkscape:window-width="2048"
     inkscape:window-height="1017"
     inkscape:window-x="-8"
     inkscape:window-y="-8"
     inkscape:window-maximized="1"
     inkscape:current-layer="layer1" />
  <defs
     id="defs4178" />
  <g
     inkscape:label="Ebene 1"
     inkscape:groupmode="layer"
     id="layer1"
     transform="translate(146.50065,94.902586)">
    <path
       id="path283-1"
       d="m -42.79565,161.60176 221,-154.3300026"
       style="clip-rule:evenodd;fill:none;stroke:#000000;stroke-width:2.7437px;stroke-linecap:round;stroke-linejoin:round;stroke-miterlimit:1.5" />
    <g
       id="g1720">
      <circle
         cx="-61.957424"
         cy="-22.722027"
         r="29.976067"
         style="clip-rule:evenodd;fill:#ebebeb;fill-rule:evenodd;stroke:#000000;stroke-width:1.45254px;stroke-linecap:round;stroke-linejoin:round;stroke-miterlimit:1.5"
         id="circle2" />
      <path
         d="m -54.795322,-21.312247 c 0.603431,-4.4991 -13.343796,-3.407545 -16.249229,-0.986291 -0.534749,0.445624 -0.940204,1.480871 -0.839782,2.183469 0.06832,0.47862 5.20618,11.5883778 5.710444,12.2604902 0.937873,1.2506166 3.132997,1.3377689 3.695004,3.0232501 0.565055,1.6951648 -0.562545,5.14789968 0.671753,6.3821977 0.163007,0.163007 1.463477,0.1680281 1.679564,0.1680281 4.616199,0 4.06298,-11.3817952 4.870662,-14.6119871 0.435223,-1.741072 2.706203,-2.427172 3.191099,-4.366757 0.332111,-1.328624 -1.017493,-4.030881 -2.519345,-4.030881"
         style="clip-rule:evenodd;fill:none;fill-rule:evenodd;stroke:#000000;stroke-width:1.45254px;stroke-linecap:round;stroke-linejoin:round;stroke-miterlimit:1.5"
         id="path6" />
      <path
         d="m -60.559205,-48.387542 c -0.223977,-0.346098 -1.360722,0.517175 -1.415955,0.560034 -3.206341,2.493881 -6.047755,6.716102 -3.695003,10.245229 0.649696,0.974456 10.942806,-4.857571 8.229789,-0.335876 -0.0016,0.0027 -7.711001,5.870761 -8.061761,6.046321 -3.141785,1.570892 -4.519185,-0.0468 -5.710444,3.526975 -0.06384,0.191341 -0.575815,0.935721 -0.335877,1.175659 2.808059,2.808059 7.51428,-2.50482 9.573296,-3.191099 0.135033,-0.04501 0.826512,-0.349326 1.00781,-0.168028 1.332927,1.332927 -1.611061,3.091752 -0.168028,4.534785 0.429306,0.429306 1.527675,-5.862332 3.359127,-4.03088 1.442316,1.442316 -0.169104,3.610541 2.01544,4.702634 3.094443,1.547221 6.184581,6.871219 10.24523,8.901722 1.453793,0.726807 6.893634,1.887582 8.397638,1.511536 0.830995,-0.207839 2.528311,3.426374 3.375266,3.567682"
         style="clip-rule:evenodd;fill:none;fill-rule:evenodd;stroke:#000000;stroke-width:1.45254px;stroke-linecap:round;stroke-linejoin:round;stroke-miterlimit:1.5"
         id="path10" />
      <path
         d="m -69.456803,-37.407615 c 0.345919,7.17e-4 0.488304,0.346277 0.869192,0.642344 0.309336,0.240655 0.660814,0.504443 0.8561,0.85628 1.666293,2.99922 -3.507071,3.908042 -2.853967,0.642164 0.171615,-0.857893 1.427073,-1.030763 1.427073,-1.855123"
         style="clip-rule:evenodd;fill:none;fill-rule:evenodd;stroke:#000000;stroke-width:1.45254px;stroke-linecap:round;stroke-linejoin:round;stroke-miterlimit:1.5"
         id="path14" />
      <path
         d="m -79.066323,-46.154759 c -0.250697,1.079719 1.678129,5.380126 2.202118,6.820828 0.214832,0.590878 0.795309,2.052381 0.42805,2.640031 -0.585139,0.936259 -3.138377,1.908921 -4.352411,1.498266 -0.612397,-0.206942 -1.40663,-1.202558 -2.14043,-0.713357 -0.253746,0.169104 -0.270603,0.594105 -0.499422,0.784728 -0.740256,0.61688 -1.733002,-0.08034 -1.855123,1.141587 -0.06689,0.668347 0.470192,3.553516 0.42805,3.567503 -1.185163,0.395234 -2.26291,0.896987 -2.99671,1.997867 -0.345381,0.518071 0.05362,1.480512 -0.570793,1.855123 -0.842472,0.505519 -2.566149,-0.147406 -3.068082,0.85628"
         style="clip-rule:evenodd;fill:none;fill-rule:evenodd;stroke:#000000;stroke-width:1.45254px;stroke-linecap:round;stroke-linejoin:round;stroke-miterlimit:1.5"
         id="path18" />
      <path
         d="m -91.54057,-21.539811 c 0.633737,0.614011 -0.733262,-0.168566 -0.664042,-0.09917 0.858073,0.858073 2.42484,-0.263609 3.567503,1.641008 0.25518,0.425181 -0.04232,1.115047 0.07137,1.569637 0.393619,1.57412 0.665477,3.475868 0.42805,5.13732 -0.130908,0.917429 -0.515741,2.379291 0,3.282017 0.450824,0.7888528 0.938231,2.1425817 1.498444,2.782774 1.19144,1.3616192 3.567504,3.1620481 3.567504,4.994397"
         style="clip-rule:evenodd;fill:none;fill-rule:evenodd;stroke:#000000;stroke-width:1.45254px;stroke-linecap:round;stroke-linejoin:round;stroke-miterlimit:1.5"
         id="path22" />
      <path
         d="m -66.537741,-60.225541 -7.369564,-4.413741 c 0,0 26.111778,-7.722657 27.106677,-7.551939 0.994898,0.170718 24.073026,13.776868 24.073026,13.776868 l -15.309026,6.505036 -1.577886,8.388492 c -11.343061,6.173642 -20.461946,1.985314 -28.30511,-8.146223 z"
         style="clip-rule:evenodd;fill:#84baff;fill-rule:evenodd;stroke:#000000;stroke-width:1.45254px;stroke-linecap:round;stroke-linejoin:round;stroke-miterlimit:1.5"
         id="path26" />
      <path
         d="m -46.800558,-72.191342 c -0.994946,-0.170634 -27.106741,7.551997 -27.106741,7.551997 l 27.320893,16.362947 23.85879,-10.137935 c 0,0 -23.078201,-13.606226 -24.072942,-13.777009 z"
         style="clip-rule:evenodd;fill:none;fill-rule:evenodd;stroke:#000000;stroke-width:1.45254px;stroke-linecap:round;stroke-linejoin:round;stroke-miterlimit:1.5"
         id="path30" />
      <path
         d="m -47.49557,-62.194115 c -0.054,-1.863891 12.223638,5.552095 13.652755,6.966822 3.371457,3.337558 5.670205,9.524178 2.423772,13.436037"
         style="clip-rule:evenodd;fill:none;fill-rule:evenodd;stroke:#000000;stroke-width:1.45254px;stroke-linecap:round;stroke-linejoin:round;stroke-miterlimit:1.5"
         id="path34" />
      <path
         d="m -37.924175,-52.507428 -1.690273,8.986569 c -11.343101,6.173645 -20.461956,1.985455 -28.305198,-8.146149 l 1.259464,-8.568175"
         style="clip-rule:evenodd;fill:none;fill-rule:evenodd;stroke:#000000;stroke-width:1.44114px;stroke-linecap:round;stroke-linejoin:round;stroke-miterlimit:1.5"
         id="path38" />
      <path
         d="m -64.336891,-14.765448 c 0,-7.659892 -9.602348,-13.878545 -21.429946,-13.878545 -11.82742,0 -21.429763,6.218653 -21.429763,13.878545 0,4.526537 3.40862,8.7686629 9.132869,11.3661941 l -2.704049,9.4515345 9.448485,-7.4133199 c 1.810829,0.3147164 3.677609,0.47395757 5.552458,0.47395757 11.827598,0 21.429946,-6.21865277 21.429946,-13.87836627 z"
         style="clip-rule:evenodd;fill:#84baff;fill-rule:evenodd;stroke:#000000;stroke-width:1.45254px;stroke-linecap:round;stroke-linejoin:round;stroke-miterlimit:1.5"
         id="path42" />
      <path
         d="m -100.64499,-18.100258 c 0.0381,0.648888 4.835934,-5.567722 4.740371,-5.567722 -0.242698,0 0.676153,6.929916 0.23096,9.931937 -0.185211,1.249256 -0.589554,2.521987 -1.192139,3.676603 -0.374583,0.7177421 -2.330675,1.4747631 -2.633446,0.5665412 -0.423289,-1.2697732 3.886953,-5.7946162 5.096005,-6.7838912 0.707391,-0.578741 6.227147,-4.045086 4.157562,-4.735009 -5.575116,-1.85831 -2.956827,10.726944 -2.656274,10.855871 2.604334,1.1174636 7.427327,-4.367265 5.543508,-5.889809 -2.52522,-2.041027 -3.610336,6.4058887 0.429666,5.251642 1.992321,-0.569221 8.133609,-10.537388 3.727896,-9.986651 -1.887146,0.235858 -1.332157,9.452088 0.230961,9.931938 3.690096,1.1328048 8.092296,-9.857724 4.850442,-8.777137 -5.56763,1.855908 0.436135,13.8205545 2.078827,8.892571"
         style="clip-rule:evenodd;fill:none;fill-rule:evenodd;stroke:#000000;stroke-width:0.748611px;stroke-linecap:round;stroke-linejoin:round;stroke-miterlimit:1.5"
         id="path46" />
      <path
         d="m -73.62042,-12.702128 c 0.663306,-0.425507 0.280036,-0.949072 -0.110443,-1.495835 -1.684467,-2.358124 -4.070686,2.249344 -2.593058,3.480762 1.836129,1.5300311 5.891473,-1.773837 2.708492,-3.365236"
         style="clip-rule:evenodd;fill:none;fill-rule:evenodd;stroke:#000000;stroke-width:0.748611px;stroke-linecap:round;stroke-linejoin:round;stroke-miterlimit:1.5"
         id="path50" />
      <circle
         cx="34.297459"
         cy="-22.722038"
         r="29.976067"
         style="clip-rule:evenodd;fill:#ebebeb;fill-rule:evenodd;stroke:#000000;stroke-width:1.45254px;stroke-linecap:round;stroke-linejoin:round;stroke-miterlimit:1.5"
         id="circle56" />
      <path
         d="m 41.45956,-21.312247 c 0.603431,-4.4991 -13.343796,-3.407545 -16.249229,-0.986291 -0.534749,0.445624 -0.940204,1.480871 -0.839782,2.183469 0.06832,0.47862 5.20618,11.5883778 5.710444,12.2604902 0.937873,1.2506166 3.132997,1.3377689 3.695004,3.0232501 0.565055,1.6951648 -0.562545,5.14789968 0.671753,6.3821977 0.163007,0.163007 1.463477,0.1680281 1.679564,0.1680281 4.616199,0 4.06298,-11.3817952 4.870662,-14.6119871 0.435223,-1.741072 2.706203,-2.427172 3.191099,-4.366757 0.332111,-1.328624 -1.017493,-4.030881 -2.519345,-4.030881"
         style="clip-rule:evenodd;fill:none;fill-rule:evenodd;stroke:#000000;stroke-width:1.45254px;stroke-linecap:round;stroke-linejoin:round;stroke-miterlimit:1.5"
         id="path60" />
      <path
         d="m 35.695677,-48.387542 c -0.223977,-0.346098 -1.360722,0.517175 -1.415955,0.560034 -3.206341,2.493881 -6.047755,6.716102 -3.695003,10.245229 0.649696,0.974456 10.942806,-4.857571 8.229789,-0.335876 -0.0016,0.0027 -7.711001,5.870761 -8.061761,6.046321 -3.141785,1.570892 -4.519185,-0.0468 -5.710444,3.526975 -0.06384,0.191341 -0.575815,0.935721 -0.335877,1.175659 2.808059,2.808059 7.51428,-2.50482 9.573296,-3.191099 0.135033,-0.04501 0.826512,-0.349326 1.00781,-0.168028 1.332927,1.332927 -1.611061,3.091752 -0.168028,4.534785 0.429306,0.429306 1.527675,-5.862332 3.359127,-4.03088 1.442316,1.442316 -0.169104,3.610541 2.01544,4.702634 3.094443,1.547221 6.184581,6.871219 10.24523,8.901722 1.453793,0.726807 6.893634,1.887582 8.397638,1.511536 0.830995,-0.207839 2.528311,3.426374 3.375266,3.567682"
         style="clip-rule:evenodd;fill:none;fill-rule:evenodd;stroke:#000000;stroke-width:1.45254px;stroke-linecap:round;stroke-linejoin:round;stroke-miterlimit:1.5"
         id="path64" />
      <path
         d="m 26.798079,-37.407615 c 0.345919,7.17e-4 0.488304,0.346277 0.869192,0.642344 0.309336,0.240655 0.660814,0.504443 0.8561,0.85628 1.666293,2.99922 -3.507071,3.908042 -2.853967,0.642164 0.171615,-0.857893 1.427073,-1.030763 1.427073,-1.855123"
         style="clip-rule:evenodd;fill:none;fill-rule:evenodd;stroke:#000000;stroke-width:1.45254px;stroke-linecap:round;stroke-linejoin:round;stroke-miterlimit:1.5"
         id="path68" />
      <path
         d="m 17.188559,-46.154759 c -0.250697,1.079719 1.678129,5.380126 2.202118,6.820828 0.214832,0.590878 0.795309,2.052381 0.42805,2.640031 -0.585139,0.936259 -3.138377,1.908921 -4.352411,1.498266 -0.612397,-0.206942 -1.40663,-1.202558 -2.14043,-0.713357 -0.253746,0.169104 -0.270603,0.594105 -0.499422,0.784728 -0.740256,0.61688 -1.733002,-0.08034 -1.855123,1.141587 -0.06689,0.668347 0.470192,3.553516 0.42805,3.567503 -1.185163,0.395234 -2.2629096,0.896987 -2.9967099,1.997867 -0.3453811,0.518071 0.053618,1.480512 -0.5707934,1.855123 -0.8424716,0.505519 -2.5661492,-0.147406 -3.0680815,0.85628"
         style="clip-rule:evenodd;fill:none;fill-rule:evenodd;stroke:#000000;stroke-width:1.45254px;stroke-linecap:round;stroke-linejoin:round;stroke-miterlimit:1.5"
         id="path72" />
      <path
         d="m 4.7143123,-21.539811 c 0.6337367,0.614011 -0.7332623,-0.168566 -0.6640426,-0.09917 0.8580729,0.858073 2.4248406,-0.263609 3.5675032,1.641008 0.2551804,0.425181 -0.042321,1.115047 0.071372,1.569637 0.3936197,1.57412 0.6654773,3.475868 0.4280502,5.13732 -0.1309077,0.917429 -0.5157404,2.379291 0,3.282017 0.4508245,0.7888528 0.9382315,2.1425817 1.4984446,2.782774 1.1914393,1.3616192 3.5675033,3.1620481 3.5675033,4.994397"
         style="clip-rule:evenodd;fill:none;fill-rule:evenodd;stroke:#000000;stroke-width:1.45254px;stroke-linecap:round;stroke-linejoin:round;stroke-miterlimit:1.5"
         id="path76" />
      <path
         d="m 29.717141,-60.225541 -7.369564,-4.413741 c 0,0 26.111778,-7.722657 27.106677,-7.551939 0.994898,0.170718 24.073026,13.776868 24.073026,13.776868 l -15.309026,6.505036 -1.577886,8.388492 c -11.343061,6.173642 -20.461946,1.985314 -28.30511,-8.146223 z"
         style="clip-rule:evenodd;fill:#ffe117;fill-rule:evenodd;stroke:#000000;stroke-width:1.45254px;stroke-linecap:round;stroke-linejoin:round;stroke-miterlimit:1.5"
         id="path80" />
      <path
         d="m 49.454323,-72.191352 c -0.994946,-0.170634 -27.106741,7.551997 -27.106741,7.551997 l 27.320893,16.362947 23.85879,-10.137935 c 0,0 -23.078201,-13.606226 -24.072942,-13.777009 z"
         style="clip-rule:evenodd;fill:none;fill-rule:evenodd;stroke:#000000;stroke-width:1.45254px;stroke-linecap:round;stroke-linejoin:round;stroke-miterlimit:1.5"
         id="path84" />
      <path
         d="m 48.759311,-62.194125 c -0.054,-1.863891 12.223638,5.552095 13.652755,6.966822 3.371457,3.337558 5.670205,9.524178 2.423772,13.436037"
         style="clip-rule:evenodd;fill:none;fill-rule:evenodd;stroke:#000000;stroke-width:1.45254px;stroke-linecap:round;stroke-linejoin:round;stroke-miterlimit:1.5"
         id="path88" />
      <path
         d="m 58.330716,-52.507438 -1.690273,8.986569 c -11.343101,6.173645 -20.461956,1.985455 -28.305198,-8.146149 l 1.259464,-8.568175"
         style="clip-rule:evenodd;fill:none;fill-rule:evenodd;stroke:#000000;stroke-width:1.44114px;stroke-linecap:round;stroke-linejoin:round;stroke-miterlimit:1.5"
         id="path92" />
      <path
         d="m 31.917969,-14.765448 c 0,-7.659892 -9.602348,-13.878545 -21.429946,-13.878545 -11.8274195,0 -21.429767,6.218653 -21.429767,13.878545 0,4.526537 3.4086209,8.7686629 9.1328731,11.3661941 l -2.7040506,9.4515345 9.448486,-7.4133199 c 1.8108298,0.3147164 3.6776092,0.47395757 5.5524585,0.47395757 11.827598,0 21.429946,-6.21865277 21.429946,-13.87836627 z"
         style="clip-rule:evenodd;fill:#ffe117;fill-rule:evenodd;stroke:#000000;stroke-width:1.45254px;stroke-linecap:round;stroke-linejoin:round;stroke-miterlimit:1.5"
         id="path96" />
      <path
         d="m 2.2438101,-19.461225 c -0.022331,1.437487 0,7.315677 0.066355,8.808672 0,0.09953 0.038282,0.240538 0.1161218,0.423015 0.077202,0.182477 0.1161219,0.3119977 0.1161219,0.3898376 0,0.199066 -0.1882195,0.3649544 -0.5640204,0.4976651 -0.07784,0.033178 -0.177373,0.049766 -0.2985991,0.049766 -0.3649543,0 -0.75223984,-0.088686 -1.16121843,-0.2654214 -0.48681851,-0.2105506 -0.72990874,-0.4593823 -0.72990874,-0.7464973 0,-0.13271 0.0523186,-0.304342 0.15759393,-0.514254 0.10463727,-0.21055 0.20736044,-0.414721 0.30689345,-0.613787 v -2.55468 l -2.22290391,0.414721 c 0,0.48618 0.0051,1.172065 0.016589,2.057015 0.010847,0.884313 0.016589,1.332211 0.016589,1.343696 0,0.121226 0.03573,0.3068929 0.1078274,0.5557254 0.07146,0.2488325 0.1078274,0.4281195 0.1078274,0.5391371 0,0.199066 -0.07465,0.3592121 -0.2239492,0.4810762 -0.1492996,0.1212261 -0.3515557,0.1824772 -0.6054925,0.1824772 -0.2654214,0 -0.536585,-0.063803 -0.8128529,-0.1907716 -0.276906,-0.1276064 -0.4619353,-0.2571269 -0.555726,-0.3898376 -0.094429,-0.1327107 -0.1410051,-0.2322437 -0.1410051,-0.298599 0,-0.022331 0.044024,-0.1276065 0.1327107,-0.3151879 0,-0.4204628 -0.00574,-1.1146418 -0.016589,-2.0818988 -0.011485,-0.967894 -0.016589,-1.584233 -0.016589,-1.849655 -0.011485,-0.03318 -0.1441953,-0.248832 -0.3981321,-0.646964 -0.1550418,-0.232244 -0.2105506,-0.447899 -0.1658883,-0.646965 0.021693,-0.111017 0.088048,-0.199066 0.199066,-0.265421 0.1103796,-0.06635 0.2207591,-0.138453 0.3317767,-0.215655 -0.033178,-2.367099 -0.022331,-3.964732 0.033178,-4.794173 -0.099533,-0.18822 -0.1492995,-0.331777 -0.1492995,-0.43131 0,-0.221397 0.1709926,-0.409617 0.5142539,-0.56402 0.1435572,-0.05551 0.3483655,-0.08295 0.6137869,-0.08295 0.8626194,0 1.3877198,0.209913 1.5759393,0.630376 0.033178,0.0772 0.049767,0.1493 0.049767,0.215655 0,0.143557 -0.096981,0.350918 -0.2903046,0.622081 -0.1939618,0.270526 -0.2903046,0.494475 -0.2903046,0.671848 -0.066355,1.592528 -0.07784,2.781182 -0.033178,3.5666 1.08337854,-0.177373 1.80244074,-0.310084 2.15654857,-0.398132 -0.09953301,-1.216728 -0.08868646,-2.637625 0.0331777,-4.263331 -0.099533,-0.254575 -0.14929952,-0.459383 -0.14929952,-0.613787 0,-0.298599 0.20417028,-0.542327 0.6137869,-0.729909 0.0880484,-0.04466 0.21565486,-0.06636 0.38154315,-0.06636 0.3866475,0 0.7630864,0.08805 1.1280408,0.265421 0.4198252,0.199066 0.63548,0.447899 0.6469646,0.746498 0.010846,0.143557 -0.086134,0.320292 -0.2903046,0.530843 -0.2048083,0.209912 -0.3068935,0.392389 -0.3068935,0.547431 z"
         style="clip-rule:evenodd;fill-rule:nonzero;stroke-width:0.638032;stroke-linecap:round;stroke-linejoin:round;stroke-miterlimit:1.5"
         id="path100" />
      <path
         d="m 9.6756083,-16.956311 c 0.7407557,0.6744 1.1114517,1.813288 1.1114517,3.4173 0,1.238421 -0.260317,2.294364 -0.779675,3.168468 -0.5863516,0.99533 -1.3934622,1.492995 -2.42197,1.492995 -1.0176612,0 -1.8030787,-0.4478985 -2.3556146,-1.343696 -0.4868185,-0.774571 -0.7726569,-2.054463 -0.7726569,-3.248859 0,-1.050201 0.2303296,-1.700356 0.6067686,-2.540644 0.398132,-0.895797 0.9066436,-1.421536 1.5261728,-1.575939 0.3202922,-0.07784 0.6520689,-0.116122 0.9953301,-0.116122 0.8511349,0 1.547866,0.248832 2.0901933,0.746497 z m -1.8911272,0.71332 c -0.3649544,-0.03318 -0.6801423,0.276268 -0.9455636,0.928975 -0.2322437,0.585714 -0.3483656,1.1995 -0.3483656,1.841361 0,0.939821 0.044024,1.603374 0.1327107,1.99066 0.1544038,0.696731 0.4753339,1.078274 0.9621524,1.14463 0.3094456,0.04402 0.5971981,-0.337519 0.8626195,-1.14463 0.2539367,-0.774571 0.3815432,-1.604013 0.3815432,-2.488325 0,-1.459818 -0.3483656,-2.2178 -1.0450966,-2.272671 z"
         style="clip-rule:evenodd;fill-rule:nonzero;stroke-width:0.638032;stroke-linecap:round;stroke-linejoin:round;stroke-miterlimit:1.5"
         id="path102" />
      <path
         d="m 14.91768,-9.0434363 c -0.221397,0.3758009 -0.630376,0.5640204 -1.227574,0.5640204 -0.553173,0 -0.940459,-0.1716306 -1.161218,-0.5142539 -0.06635,-0.099533 -0.09953,-0.2105506 -0.09953,-0.3317767 0,-0.099533 0.03828,-0.2628692 0.116122,-0.4893706 0.0772,-0.2271399 0.116122,-0.4179109 0.116122,-0.5723149 -0.320931,-3.222062 -0.419188,-6.437106 -0.06636,-9.638113 v -0.812853 c 0.03318,-0.121864 0.187582,-0.22714 0.464488,-0.315188 0.276268,-0.08869 0.569124,-0.132711 0.879208,-0.132711 0.453003,0 0.740755,0.07465 0.862619,0.22395 0.121226,0.149299 0.182477,0.306893 0.182477,0.472781 0,0.11038 -0.04466,0.292857 -0.13271,0.547432 -0.08869,0.253937 -0.132711,0.458745 -0.132711,0.613787 v 8.957971 c 0,0.154404 0.04658,0.35347 0.141005,0.5971979 0.09379,0.2430903 0.141005,0.4198252 0.141005,0.5308428 0,0.099533 -0.02807,0.199066 -0.08294,0.298599 z"
         style="clip-rule:evenodd;fill-rule:nonzero;stroke-width:0.638032;stroke-linecap:round;stroke-linejoin:round;stroke-miterlimit:1.5"
         id="path104" />
      <path
         d="m 23.316097,-14.882706 c 0.09953,1.42664 0.11676,5.607026 -0.535309,5.607026 -0.221397,0 -0.398132,-0.033178 -0.530843,-0.099533 -0.177373,-0.1110176 -0.298599,-0.3317767 -0.364954,-0.663553 -0.132711,-0.564021 -0.265421,-1.006815 -0.398132,-1.327107 -0.03318,0.552536 -0.364955,1.111452 -0.99533,1.6754721 -0.630376,0.5640204 -1.266494,0.8460306 -1.907716,0.8460306 -0.807749,0 -1.366027,-0.4868185 -1.675473,-1.4598177 -0.111017,-0.354108 -0.165888,-0.691627 -0.165888,-1.011919 0,-0.928974 0.5251,-1.720134 1.575939,-2.372203 0.86262,-0.453641 1.730343,-0.907282 2.604447,-1.360285 0.04403,-0.165888 0.06636,-0.331776 0.06636,-0.497665 0,-0.310083 -0.09443,-0.48937 -0.28201,-0.539137 -0.18822,-0.04977 -0.348366,-0.07465 -0.481077,-0.07465 -0.232243,0 -0.423015,0.06636 -0.572314,0.199066 -0.1493,0.132711 -0.290305,0.25968 -0.423016,0.381544 -0.13271,0.0772 -0.304341,0.259679 -0.514254,0.547431 -0.165888,0.232244 -0.348365,0.35347 -0.547431,0.364955 -0.287753,0.03318 -0.547432,-0.05551 -0.779675,-0.265422 -0.232244,-0.21055 -0.348366,-0.453641 -0.348366,-0.729909 0,-0.155041 0.04402,-0.298599 0.132711,-0.431309 0.253937,-0.376439 0.63548,-0.702474 1.144629,-0.978741 0.773933,-0.420464 1.741828,-0.630376 2.903047,-0.630376 0.740755,0 1.249266,0.315188 1.526172,0.945563 0.176735,0.43131 0.4798,0.701836 0.568487,1.874539 z m -2.194193,1.210985 c -0.331776,0.154403 -0.661001,0.31774 -0.987035,0.48937 -0.326673,0.170993 -0.627824,0.394942 -0.904092,0.671848 -0.398132,0.408979 -0.597198,0.757344 -0.597198,1.045097 0,0.24309 0.09953,0.491923 0.298599,0.746497 0.11038,0.143558 0.232244,0.215655 0.364955,0.215655 0.287114,0 0.59975,-0.290304 0.937269,-0.870914 0.336881,-0.580609 0.632928,-1.346885 0.887502,-2.297553 z"
         style="clip-rule:evenodd;fill-rule:nonzero;stroke-width:0.638032;stroke-linecap:round;stroke-linejoin:round;stroke-miterlimit:1.5"
         id="path106" />
      <circle
         cx="130.55235"
         cy="-22.722027"
         r="29.976067"
         style="clip-rule:evenodd;fill:#ebebeb;fill-rule:evenodd;stroke:#000000;stroke-width:1.45254px;stroke-linecap:round;stroke-linejoin:round;stroke-miterlimit:1.5"
         id="circle112" />
      <path
         d="m 137.71445,-21.312247 c 0.60343,-4.4991 -13.3438,-3.407545 -16.24923,-0.986291 -0.53475,0.445624 -0.94021,1.480871 -0.83979,2.183469 0.0683,0.47862 5.20619,11.5883778 5.71045,12.2604902 0.93787,1.2506166 3.133,1.3377689 3.695,3.0232501 0.56506,1.6951648 -0.56254,5.14789968 0.67176,6.3821977 0.163,0.163007 1.46347,0.1680281 1.67956,0.1680281 4.6162,0 4.06298,-11.3817952 4.87066,-14.6119871 0.43523,-1.741072 2.7062,-2.427172 3.1911,-4.366757 0.33211,-1.328624 -1.01749,-4.030881 -2.51934,-4.030881"
         style="clip-rule:evenodd;fill:none;fill-rule:evenodd;stroke:#000000;stroke-width:1.45254px;stroke-linecap:round;stroke-linejoin:round;stroke-miterlimit:1.5"
         id="path116" />
      <path
         d="m 131.95056,-48.387542 c -0.22397,-0.346098 -1.36072,0.517175 -1.41595,0.560034 -3.20634,2.493881 -6.04776,6.716102 -3.69501,10.245229 0.6497,0.974456 10.94281,-4.857571 8.22979,-0.335876 -0.002,0.0027 -7.711,5.870761 -8.06176,6.046321 -3.14178,1.570892 -4.51918,-0.0468 -5.71044,3.526975 -0.0638,0.191341 -0.57582,0.935721 -0.33588,1.175659 2.80806,2.808059 7.51428,-2.50482 9.5733,-3.191099 0.13503,-0.04501 0.82651,-0.349326 1.00781,-0.168028 1.33293,1.332927 -1.61106,3.091752 -0.16803,4.534785 0.42931,0.429306 1.52767,-5.862332 3.35913,-4.03088 1.44231,1.442316 -0.16911,3.610541 2.01544,4.702634 3.09444,1.547221 6.18458,6.871219 10.24523,8.901722 1.45379,0.726807 6.89363,1.887582 8.39763,1.511536 0.831,-0.207839 2.52832,3.426374 3.37527,3.567682"
         style="clip-rule:evenodd;fill:none;fill-rule:evenodd;stroke:#000000;stroke-width:1.45254px;stroke-linecap:round;stroke-linejoin:round;stroke-miterlimit:1.5"
         id="path120" />
      <path
         d="m 123.05297,-37.407615 c 0.34591,7.17e-4 0.4883,0.346277 0.86919,0.642344 0.30933,0.240655 0.66081,0.504443 0.8561,0.85628 1.66629,2.99922 -3.50707,3.908042 -2.85397,0.642164 0.17161,-0.857893 1.42707,-1.030763 1.42707,-1.855123"
         style="clip-rule:evenodd;fill:none;fill-rule:evenodd;stroke:#000000;stroke-width:1.45254px;stroke-linecap:round;stroke-linejoin:round;stroke-miterlimit:1.5"
         id="path124" />
      <path
         d="m 113.44345,-46.154759 c -0.2507,1.079719 1.67812,5.380126 2.20211,6.820828 0.21484,0.590878 0.79531,2.052381 0.42805,2.640031 -0.58514,0.936259 -3.13837,1.908921 -4.35241,1.498266 -0.61239,-0.206942 -1.40663,-1.202558 -2.14043,-0.713357 -0.25374,0.169104 -0.2706,0.594105 -0.49942,0.784728 -0.74026,0.61688 -1.733,-0.08034 -1.85512,1.141587 -0.0669,0.668347 0.47019,3.553516 0.42805,3.567503 -1.18517,0.395234 -2.26291,0.896987 -2.99671,1.997867 -0.34538,0.518071 0.0536,1.480512 -0.5708,1.855123 -0.84247,0.505519 -2.56615,-0.147406 -3.06808,0.85628"
         style="clip-rule:evenodd;fill:none;fill-rule:evenodd;stroke:#000000;stroke-width:1.45254px;stroke-linecap:round;stroke-linejoin:round;stroke-miterlimit:1.5"
         id="path128" />
      <path
         d="m 100.9692,-21.539811 c 0.63373,0.614011 -0.73326,-0.168566 -0.66404,-0.09917 0.85807,0.858073 2.42484,-0.263609 3.5675,1.641008 0.25518,0.425181 -0.0423,1.115047 0.0714,1.569637 0.39362,1.57412 0.66548,3.475868 0.42805,5.13732 -0.13091,0.917429 -0.51574,2.379291 0,3.282017 0.45083,0.7888528 0.93823,2.1425817 1.49845,2.782774 1.19143,1.3616192 3.5675,3.1620481 3.5675,4.994397"
         style="clip-rule:evenodd;fill:none;fill-rule:evenodd;stroke:#000000;stroke-width:1.45254px;stroke-linecap:round;stroke-linejoin:round;stroke-miterlimit:1.5"
         id="path132" />
      <path
         d="m 125.97203,-60.225541 -7.36957,-4.413741 c 0,0 26.11178,-7.722657 27.10668,-7.551939 0.9949,0.170718 24.07303,13.776868 24.07303,13.776868 l -15.30903,6.505036 -1.57789,8.388492 c -11.34306,6.173642 -20.46194,1.985314 -28.30511,-8.146223 z"
         style="clip-rule:evenodd;fill:#ffffff;fill-rule:evenodd;stroke:#000000;stroke-width:1.45254px;stroke-linecap:round;stroke-linejoin:round;stroke-miterlimit:1.5"
         id="path136" />
      <path
         d="m 145.70921,-72.191082 c -0.99495,-0.170634 -27.10674,7.551997 -27.10674,7.551997 l 27.32089,16.362947 23.85879,-10.137935 c 0,0 -23.0782,-13.606226 -24.07294,-13.777009 z"
         style="clip-rule:evenodd;fill:none;fill-rule:evenodd;stroke:#000000;stroke-width:1.45254px;stroke-linecap:round;stroke-linejoin:round;stroke-miterlimit:1.5"
         id="path140" />
      <path
         d="m 145.0142,-62.193855 c -0.054,-1.863891 12.22364,5.552095 13.65275,6.966822 3.37146,3.337558 5.67021,9.524178 2.42378,13.436037"
         style="clip-rule:evenodd;fill:none;fill-rule:evenodd;stroke:#000000;stroke-width:1.45254px;stroke-linecap:round;stroke-linejoin:round;stroke-miterlimit:1.5"
         id="path144" />
      <path
         d="m 154.5856,-52.507428 -1.69027,8.986569 c -11.3431,6.173645 -20.46196,1.985455 -28.3052,-8.146149 l 1.25946,-8.568175"
         style="clip-rule:evenodd;fill:none;fill-rule:evenodd;stroke:#000000;stroke-width:1.44114px;stroke-linecap:round;stroke-linejoin:round;stroke-miterlimit:1.5"
         id="path148" />
      <path
         d="m 128.17285,-14.765448 c 0,-7.659892 -9.60234,-13.878545 -21.42994,-13.878545 -11.827422,0 -21.429769,6.218653 -21.429769,13.878545 0,4.526537 3.408621,8.7686629 9.132873,11.3661941 l -2.70405,9.4515345 9.448486,-7.4133199 c 1.81083,0.3147164 3.67761,0.47395757 5.55246,0.47395757 11.8276,0 21.42994,-6.21865277 21.42994,-13.87836627 z"
         style="clip-rule:evenodd;fill:#ffffff;fill-rule:evenodd;stroke:#000000;stroke-width:1.45254px;stroke-linecap:round;stroke-linejoin:round;stroke-miterlimit:1.5"
         id="path152" />
      <path
         d="m 95.244114,-21.006525 c 1.019313,0 1.846756,0.32738 2.494319,0.982139 v -0.218253 c 0,-0.405327 0.161891,-0.607991 0.479677,-0.607991 0.353762,0 0.533641,0.22365 0.533641,0.670349 v 0.09354 c 0,0.02099 -0.01799,0.176881 -0.04797,0.467685 -0.02998,0.291403 -0.04797,0.639169 -0.04797,1.044496 0,0.05217 0.01199,0.218253 0.02998,0.498864 l 0.04797,0.62358 c 0.01199,0.05216 0.01799,0.124716 0.01799,0.218253 0,0.498864 -0.191871,0.748296 -0.575613,0.748296 -0.407725,0 -0.611588,-0.20746 -0.611588,-0.62358 v -0.07795 l 0.03598,-0.420917 c 0.006,-0.145102 0.01199,-0.259625 0.01199,-0.342969 0,-0.62358 -0.209859,-1.111651 -0.629576,-1.465413 -0.419717,-0.353162 -1.001325,-0.530043 -1.738828,-0.530043 -0.677544,0 -1.217181,0.166688 -1.612914,0.498864 -0.401729,0.332776 -0.599596,0.779475 -0.599596,1.340697 0,0.654759 0.293802,1.138034 0.887402,1.449823 0.329778,0.166688 0.911386,0.317187 1.744825,0.452096 1.235168,0.197867 2.086594,0.467685 2.542287,0.810654 0.68354,0.509657 1.031306,1.23157 1.031306,2.16694 0,0.977342 -0.353762,1.772406 -1.05529,2.385193 -0.701527,0.613387 -1.606917,0.9197809 -2.722166,0.9197809 -1.181204,0 -2.164542,-0.3741479 -2.944017,-1.1224439 0,0.04197 0.006,0.08874 0.01199,0.140305 v 0.09354 c 0.02398,0.166688 0.03598,0.275815 0.03598,0.32738 0,0.384941 -0.185875,0.5768114 -0.545632,0.5768114 -0.395734,0 -0.593601,-0.2182534 -0.593601,-0.6547594 0,-0.05157 0.006,-0.09354 0.01799,-0.124716 l 0.05996,-0.810653 c 0.02998,-0.405327 0.04797,-0.664953 0.04797,-0.779475 0,-0.207461 -0.02998,-0.519251 -0.07795,-0.93537 -0.05396,-0.41552 -0.07795,-0.72731 -0.07795,-0.93537 0,-0.467685 0.197866,-0.701528 0.5936,-0.701528 0.401729,0 0.605592,0.233843 0.605592,0.701528 v 0.280611 c -0.01199,0.08334 -0.01799,0.202663 -0.01799,0.358558 0,0.779475 0.25183,1.398258 0.749495,1.855151 0.497665,0.457491 1.175208,0.685937 2.026635,0.685937 0.791467,0 1.421043,-0.187074 1.888728,-0.561221 0.467685,-0.374148 0.701527,-0.883206 0.701527,-1.527771 0,-0.986936 -0.62358,-1.590129 -1.87074,-1.808382 l -0.887402,-0.155895 c -0.887402,-0.155895 -1.570942,-0.337573 -2.062611,-0.545633 -0.443701,-0.197267 -0.803458,-0.506658 -1.067281,-0.927575 -0.263822,-0.420916 -0.395733,-0.896396 -0.395733,-1.426439 0,-0.914384 0.329778,-1.657284 0.995329,-2.229298 0.665552,-0.571415 1.52897,-0.857423 2.590256,-0.857423 z"
         style="clip-rule:evenodd;fill-rule:nonzero;stroke-width:0.599596;stroke-linecap:round;stroke-linejoin:round;stroke-miterlimit:1.5"
         id="path156" />
      <path
         d="m 101.03022,-11.871078 5.07857,-5.144535 h -2.38639 c -0.77947,0 -1.26515,0.02338 -1.46301,0.07015 -0.19787,0.04677 -0.2998,0.169086 -0.2998,0.366353 0,0.08334 0.012,0.176881 0.036,0.280611 0.048,0.270418 0.0779,0.525246 0.0779,0.763885 0,0.395134 -0.17388,0.592401 -0.51565,0.592401 -0.35376,0 -0.52764,-0.228446 -0.52764,-0.685938 0,-0.197267 0,-0.332176 0.012,-0.405327 0.042,-0.31179 0.06,-0.534839 0.06,-0.670348 0,-0.10373 -0.018,-0.257227 -0.054,-0.45989 -0.036,-0.202664 -0.054,-0.355561 -0.054,-0.45989 0,-0.321984 0.26382,-0.483275 0.77948,-0.483275 0.16788,0 0.38973,0.0054 0.67154,0.01559 0.32378,0.02098 0.54564,0.03118 0.67155,0.03118 l 0.93537,0.01559 h 2.65022 c 0.67154,0 1.01331,0.239239 1.01331,0.717117 0,0.218253 -0.19786,0.525246 -0.5936,0.91978 l -5.0486,5.097766 h 3.7115 c 0.61159,0 0.91739,-0.176281 0.91739,-0.530042 v -0.2962 c 0,-0.176281 -0.012,-0.327379 -0.03,-0.452095 -0.024,-0.394535 -0.036,-0.581609 -0.036,-0.561222 0,-0.176282 0.054,-0.324382 0.15589,-0.444301 0.10793,-0.11932 0.23984,-0.179279 0.39574,-0.179279 0.32978,0 0.49766,0.197866 0.49766,0.592401 0,0.176881 -0.012,0.358558 -0.036,0.545632 -0.036,0.374148 -0.06,0.644566 -0.06,0.810654 0,0.114523 0.012,0.280611 0.042,0.498864 0.024,0.218253 0.036,0.384941 0.036,0.498864 0,0.405327 -0.22784,0.603194 -0.68353,0.592401 l -0.95336,-0.03118 h -4.49098 c -0.25782,0 -0.47368,-0.07795 -0.63557,-0.233843 -0.16789,-0.155895 -0.25183,-0.353162 -0.25183,-0.592401 0,-0.269818 0.12592,-0.530042 0.37775,-0.779474 z"
         style="clip-rule:evenodd;fill-rule:nonzero;stroke-width:0.599596;stroke-linecap:round;stroke-linejoin:round;stroke-miterlimit:1.5"
         id="path158" />
      <path
         d="m 111.47518,-14.786315 v 2.026635 c 0,0.51985 0,0.826244 0.012,0.919781 0.054,0.467685 0.19187,0.701527 0.41972,0.701527 0.054,0 0.18587,-0.02578 0.38974,-0.07795 0.054,-0.02039 0.13191,-0.03118 0.23384,-0.03118 0.39573,0 0.5936,0.171485 0.5936,0.514454 0,0.145702 -0.066,0.270418 -0.19187,0.374148 -0.13191,0.10433 -0.2938,0.155895 -0.49167,0.155895 -0.16789,0 -0.41972,-0.02338 -0.75549,-0.07015 -0.34177,-0.04677 -0.5936,-0.07015 -0.75549,-0.07015 -0.27582,0 -0.57561,0.02099 -0.90539,0.06236 -0.40773,0.05217 -0.67755,0.07795 -0.80946,0.07795 -0.41971,0 -0.62957,-0.176281 -0.62957,-0.530043 0,-0.342969 0.17988,-0.514454 0.53364,-0.514454 0.0839,0 0.20386,0.01559 0.36575,0.04677 0.16189,0.03118 0.28181,0.04677 0.36575,0.04677 0.25183,0 0.40173,-0.332176 0.4557,-0.997727 v -3.990912 c -0.054,-0.654759 -0.20986,-0.982138 -0.46769,-0.982138 -0.0839,0 -0.20386,0.01859 -0.35376,0.05456 -0.1499,0.03657 -0.26382,0.05456 -0.33577,0.05456 -0.37175,0 -0.56362,-0.166088 -0.56362,-0.498864 0,-0.353162 0.23384,-0.530043 0.68953,-0.530043 0.19787,0 0.33578,0.0054 0.41972,0.01559 0.33577,0.04197 0.54563,0.06236 0.64157,0.06236 0.0839,0 0.20986,-0.01259 0.37774,-0.03897 0.17389,-0.02578 0.2998,-0.03897 0.38374,-0.03897 0.2998,0 0.4497,0.202664 0.4497,0.607991 0,0.04197 0,0.104329 -0.012,0.187074 -0.012,0.08334 -0.018,0.145701 -0.018,0.187074 -0.006,0.08334 -0.018,0.405326 -0.03,0.966548 -0.012,0.426313 -0.012,0.862819 -0.012,1.309518 z m -0.81545,-4.084448 c -0.23984,0 -0.4437,-0.08574 -0.61159,-0.257227 -0.17388,-0.171485 -0.25783,-0.376546 -0.25783,-0.615785 0,-0.238639 0.084,-0.441303 0.25783,-0.607991 0.16789,-0.166088 0.37175,-0.249432 0.61159,-0.249432 0.23984,0 0.4437,0.08334 0.61758,0.249432 0.17389,0.166688 0.25783,0.369352 0.25783,0.607991 0,0.239239 -0.0839,0.4443 -0.25783,0.615785 -0.17388,0.171484 -0.37774,0.257227 -0.61758,0.257227 z"
         style="clip-rule:evenodd;fill-rule:nonzero;stroke-width:0.599596;stroke-linecap:round;stroke-linejoin:round;stroke-miterlimit:1.5"
         id="path160" />
      <path
         d="m 120.48111,-10.062697 c -0.85142,0 -1.37307,-0.368751 -1.57094,-1.106854 -0.53364,0.779475 -1.36108,1.169212 -2.49432,1.169212 -0.84543,0 -1.51698,-0.20746 -2.02064,-0.62358 -0.50366,-0.41552 -0.75549,-0.971345 -0.75549,-1.668076 0,-0.862219 0.36576,-1.496592 1.10326,-1.901919 0.28181,-0.155895 0.52764,-0.257226 0.72551,-0.303995 0.20386,-0.04677 0.61159,-0.106128 1.22318,-0.179279 0.87541,-0.09354 1.44502,-0.22305 1.70884,-0.389738 0.26383,-0.166088 0.40173,-0.472481 0.40173,-0.91978 0,-0.425713 -0.14989,-0.760888 -0.44969,-1.005523 -0.2938,-0.244035 -0.70753,-0.366353 -1.23517,-0.366353 -0.46769,0 -0.90539,0.130112 -1.31312,0.389738 -0.15589,0.104329 -0.23384,0.213456 -0.23384,0.327379 0,0.04197 0.048,0.09354 0.1439,0.155895 0.14391,0.10433 0.21586,0.280611 0.21586,0.530043 0,0.20806 -0.0719,0.379544 -0.22785,0.514453 -0.1499,0.135509 -0.33577,0.202664 -0.56362,0.202664 -0.27581,0 -0.49766,-0.09354 -0.68354,-0.280611 -0.17988,-0.187074 -0.26982,-0.41552 -0.26982,-0.685938 0,-0.581608 0.28781,-1.080472 0.86342,-1.496592 0.57561,-0.41552 1.27714,-0.62358 2.09859,-0.62358 1.88873,0 2.83609,0.909587 2.83609,2.728162 v 3.149079 c 0,0.498864 0.012,0.795065 0.03,0.888602 0.066,0.363954 0.23984,0.545632 0.53364,0.545632 0.35976,0 0.54563,-0.332176 0.54563,-0.997728 v -0.763885 c 0,-0.332177 0.16189,-0.498864 0.47968,-0.498864 0.34177,0 0.51565,0.249432 0.51565,0.748296 v 0.07795 l -0.018,0.888602 c -0.018,0.997727 -0.54563,1.496591 -1.58893,1.496591 z m -1.72683,-3.10231 0.012,-1.106854 c -0.22785,0.20806 -0.46769,0.353761 -0.72551,0.436506 -0.25183,0.08334 -0.70753,0.155895 -1.36109,0.218253 -1.1872,0.114523 -1.7748,0.551029 -1.7748,1.309518 0,0.395133 0.13791,0.706923 0.42571,0.93537 0.28781,0.229045 0.67155,0.342968 1.16322,0.342968 0.69553,0 1.24116,-0.189472 1.64289,-0.569016 0.40173,-0.378945 0.60559,-0.901193 0.61759,-1.566745 z"
         style="clip-rule:evenodd;fill-rule:nonzero;stroke-width:0.599596;stroke-linecap:round;stroke-linejoin:round;stroke-miterlimit:1.5"
         id="path162" />
      <path
         id="path883-4-7-9-3-6"
         d="m 97.968798,235.33603 c -0.07261,-4.76577 0.178871,-9.88929 0.185955,-14.05292 0.03719,-4.17603 0.102718,-9.57405 -0.920922,-14.37878 -3.657124,-11.61602 -5.127058,-8.55218 -12.919477,-11.40527 -1.195428,-0.46755 -1.647034,-1.44868 -1.007702,-3.67484 4.873804,-2.08447 8.219232,-5.83191 7.119438,-12.31379 -1.135214,-6.68554 -4.532,-8.9967 -9.166719,-9.23402 -5.628252,-0.2869 -8.141307,2.1748 -8.810747,9.1189 -0.58266,6.03205 0.09209,10.19922 4.445221,12.15618 -1.11042,3.91923 0.540157,3.74567 -4.383236,3.91215 -11.054609,1.32825 -11.835622,3.36491 -14.646206,13.9077 -1.58682,5.95234 -1.299917,20.30279 -2.417421,26.03376 0,0 42.443891,-1.87904 42.521816,-0.0691 z"
         style="clip-rule:evenodd;fill:#ffffff;fill-rule:nonzero;stroke-width:1.771;stroke-linecap:round;stroke-linejoin:round;stroke-miterlimit:1.5" />
      <path
         id="path883-4-7-9-70"
         d="m 97.876252,233.48521 c 0.10434,1.0188 0.01365,0.0401 0.09264,1.8511 v -3.36928 c 0,-3.56453 0.18625,-7.12656 0.18625,-10.68483 0.03803,-4.17531 0.102389,-9.57467 -0.920524,-14.37953 -3.658696,-11.61476 -5.127245,-8.55086 -12.919526,-11.40449 -1.195512,-0.46684 -1.647973,-1.44809 -1.009262,-3.67467 4.874686,-2.0839 8.220364,-5.83242 7.120415,-12.3144 -1.134079,-6.686 -4.532414,-8.99519 -9.167217,-9.23299 -5.627487,-0.28787 -8.141378,2.17401 -8.811294,9.11909 -0.581179,6.03142 0.09264,10.19796 4.446603,12.1567 -1.110676,3.91873 0.540223,3.74476 -4.384194,3.91122 -11.054098,1.32794 -11.835179,3.36428 -14.64551,13.90768 -1.58654,5.95132 -1.299851,20.30206 -2.417352,26.03309"
         style="clip-rule:evenodd;fill:none;fill-rule:nonzero;stroke:#000000;stroke-width:1.00532px;stroke-linecap:round;stroke-linejoin:round;stroke-miterlimit:4" />
      <path
         id="path928-8-6-5-42"
         d="m 89.06679,209.54995 c 2.250427,7.18197 -2.079492,20.38435 1.141365,26.73317"
         style="clip-rule:evenodd;fill:none;fill-rule:nonzero;stroke:#000000;stroke-width:1.00946px;stroke-linecap:round;stroke-linejoin:round;stroke-miterlimit:4" />
      <path
         id="path930-1-9-8-28"
         d="m 64.896234,210.33868 c 0.142671,6.03387 -0.133249,18.03971 -1.3621,25.59988"
         style="clip-rule:evenodd;fill:none;fill-rule:nonzero;stroke:#000000;stroke-width:1.00946px;stroke-linecap:round;stroke-linejoin:round;stroke-miterlimit:4" />
      <path
         id="path883-4-7-9-3-61"
         serif:id="path883-4-7-9-3-6"
         d="m 232.26601,235.33603 c -0.0726,-4.76577 0.17887,-9.88929 0.18595,-14.05292 0.0372,-4.17603 0.10272,-9.57405 -0.92092,-14.37878 -3.65712,-11.61602 -5.12706,-8.55218 -12.91948,-11.40527 -1.19542,-0.46755 -1.64703,-1.44868 -1.0077,-3.67484 4.87381,-2.08447 8.21923,-5.83191 7.11944,-12.31379 -1.13521,-6.68554 -4.532,-8.9967 -9.16672,-9.23402 -5.62825,-0.2869 -8.14131,2.1748 -8.81075,9.1189 -0.58266,6.03205 0.0921,10.19922 4.44523,12.15618 -1.11042,3.91923 0.54015,3.74567 -4.38324,3.91215 -11.05461,1.32825 -11.83562,3.36491 -14.64621,13.9077 -1.58682,5.95234 -1.29991,20.30279 -2.41742,26.03376 0,0 42.44389,-1.87904 42.52182,-0.0691 z"
         style="clip-rule:evenodd;fill:#ffffff;fill-rule:nonzero;stroke-width:1.771;stroke-linecap:round;stroke-linejoin:round;stroke-miterlimit:1.5" />
      <path
         id="path883-4-7-9-701"
         serif:id="path883-4-7-9-70"
         d="m 232.17346,233.48521 c 0.10434,1.0188 0.0136,0.0401 0.0926,1.8511 v -3.36928 c 0,-3.56453 0.18625,-7.12656 0.18625,-10.68483 0.038,-4.17531 0.10239,-9.57467 -0.92052,-14.37953 -3.6587,-11.61476 -5.12725,-8.55086 -12.91953,-11.40449 -1.19551,-0.46684 -1.64797,-1.44809 -1.00926,-3.67467 4.87468,-2.0839 8.22036,-5.83242 7.12041,-12.3144 -1.13408,-6.686 -4.53241,-8.99519 -9.16721,-9.23299 -5.62749,-0.28787 -8.14138,2.17401 -8.8113,9.11909 -0.58118,6.03142 0.0926,10.19796 4.4466,12.1567 -1.11067,3.91873 0.54023,3.74476 -4.38419,3.91122 -11.0541,1.32794 -11.83518,3.36428 -14.64551,13.90768 -1.58654,5.95132 -1.29985,20.30206 -2.41735,26.03309"
         style="clip-rule:evenodd;fill:none;fill-rule:nonzero;stroke:#000000;stroke-width:1.00532px;stroke-linecap:round;stroke-linejoin:round;stroke-miterlimit:4" />
      <path
         id="path928-8-6-5-421"
         serif:id="path928-8-6-5-42"
         d="m 223.364,209.54995 c 2.25043,7.18197 -2.07949,20.38435 1.14136,26.73317"
         style="clip-rule:evenodd;fill:none;fill-rule:nonzero;stroke:#000000;stroke-width:1.00946px;stroke-linecap:round;stroke-linejoin:round;stroke-miterlimit:4" />
      <path
         id="path930-1-9-8-281"
         serif:id="path930-1-9-8-28"
         d="m 199.19344,210.33868 c 0.14267,6.03387 -0.13324,18.03971 -1.3621,25.59988"
         style="clip-rule:evenodd;fill:none;fill-rule:nonzero;stroke:#000000;stroke-width:1.00946px;stroke-linecap:round;stroke-linejoin:round;stroke-miterlimit:4" />
      <path
         id="path883-4-7-9-3-3"
         d="m 165.11735,235.33603 c -0.0726,-4.76577 0.17887,-9.88929 0.18595,-14.05292 0.0372,-4.17603 0.10272,-9.57405 -0.92092,-14.37878 -3.65712,-11.61602 -5.12706,-8.55218 -12.91948,-11.40527 -1.19542,-0.46755 -1.64703,-1.44868 -1.0077,-3.67484 4.87381,-2.08447 8.21923,-5.83191 7.11944,-12.31379 -1.13521,-6.68554 -4.532,-8.9967 -9.16672,-9.23402 -5.62825,-0.2869 -8.14131,2.1748 -8.81075,9.1189 -0.58266,6.03205 0.0921,10.19922 4.44523,12.15618 -1.11042,3.91923 0.54015,3.74567 -4.38324,3.91215 -11.05461,1.32825 -11.83562,3.36491 -14.64621,13.9077 -1.58682,5.95234 -1.29991,20.30279 -2.41742,26.03376 0,0 42.44389,-1.87904 42.52182,-0.0691 z"
         style="clip-rule:evenodd;fill:#ffffff;fill-rule:nonzero;stroke-width:1.771;stroke-linecap:round;stroke-linejoin:round;stroke-miterlimit:1.5" />
      <path
         id="path883-4-7-9-5"
         d="m 165.0248,233.48521 c 0.10434,1.0188 0.0137,0.0401 0.0926,1.8511 v -3.36928 c 0,-3.56453 0.18625,-7.12656 0.18625,-10.68483 0.038,-4.17531 0.10239,-9.57467 -0.92052,-14.37953 -3.6587,-11.61476 -5.12725,-8.55086 -12.91953,-11.40449 -1.19551,-0.46684 -1.64797,-1.44809 -1.00926,-3.67467 4.87468,-2.0839 8.22036,-5.83242 7.12041,-12.3144 -1.13408,-6.686 -4.53241,-8.99519 -9.16721,-9.23299 -5.62749,-0.28787 -8.14138,2.17401 -8.8113,9.11909 -0.58118,6.03142 0.0926,10.19796 4.4466,12.1567 -1.11067,3.91873 0.54023,3.74476 -4.38419,3.91122 -11.0541,1.32794 -11.83518,3.36428 -14.64551,13.90768 -1.58654,5.95132 -1.29985,20.30206 -2.41735,26.03309"
         style="clip-rule:evenodd;fill:none;fill-rule:nonzero;stroke:#000000;stroke-width:1.00532px;stroke-linecap:round;stroke-linejoin:round;stroke-miterlimit:4" />
      <path
         id="path928-8-6-5-0"
         d="m 156.21534,209.54995 c 2.25043,7.18197 -2.07949,20.38435 1.14136,26.73317"
         style="clip-rule:evenodd;fill:none;fill-rule:nonzero;stroke:#000000;stroke-width:1.00946px;stroke-linecap:round;stroke-linejoin:round;stroke-miterlimit:4" />
      <path
         id="path930-1-9-8-48"
         d="m 132.04478,210.33868 c 0.14267,6.03387 -0.13324,18.03971 -1.3621,25.59988"
         style="clip-rule:evenodd;fill:none;fill-rule:nonzero;stroke:#000000;stroke-width:1.00946px;stroke-linecap:round;stroke-linejoin:round;stroke-miterlimit:4" />
      <path
         id="path883-4-7-9-3-31"
         serif:id="path883-4-7-9-3-3"
         d="m 299.41461,235.33603 c -0.0726,-4.76577 0.17887,-9.88929 0.18595,-14.05292 0.0372,-4.17603 0.10272,-9.57405 -0.92092,-14.37878 -3.65712,-11.61602 -5.12706,-8.55218 -12.91948,-11.40527 -1.19542,-0.46755 -1.64703,-1.44868 -1.0077,-3.67484 4.87381,-2.08447 8.21923,-5.83191 7.11944,-12.31379 -1.13521,-6.68554 -4.532,-8.9967 -9.16672,-9.23402 -5.62825,-0.2869 -8.14131,2.1748 -8.81075,9.1189 -0.58266,6.03205 0.0921,10.19922 4.44523,12.15618 -1.11042,3.91923 0.54015,3.74567 -4.38324,3.91215 -11.05461,1.32825 -11.83562,3.36491 -14.64621,13.9077 -1.58682,5.95234 -1.29991,20.30279 -2.41742,26.03376 0,0 42.44389,-1.87904 42.52182,-0.0691 z"
         style="clip-rule:evenodd;fill:#ffffff;fill-rule:nonzero;stroke-width:1.771;stroke-linecap:round;stroke-linejoin:round;stroke-miterlimit:1.5" />
      <path
         id="path883-4-7-9-51"
         serif:id="path883-4-7-9-5"
         d="m 299.32206,233.48521 c 0.10434,1.0188 0.0136,0.0401 0.0926,1.8511 v -3.36928 c 0,-3.56453 0.18625,-7.12656 0.18625,-10.68483 0.038,-4.17531 0.10239,-9.57467 -0.92052,-14.37953 -3.6587,-11.61476 -5.12725,-8.55086 -12.91953,-11.40449 -1.19551,-0.46684 -1.64797,-1.44809 -1.00926,-3.67467 4.87468,-2.0839 8.22036,-5.83242 7.12041,-12.3144 -1.13408,-6.686 -4.53241,-8.99519 -9.16721,-9.23299 -5.62749,-0.28787 -8.14138,2.17401 -8.8113,9.11909 -0.58118,6.03142 0.0926,10.19796 4.4466,12.1567 -1.11067,3.91873 0.54023,3.74476 -4.38419,3.91122 -11.0541,1.32794 -11.83518,3.36428 -14.64551,13.90768 -1.58654,5.95132 -1.29985,20.30206 -2.41735,26.03309"
         style="clip-rule:evenodd;fill:none;fill-rule:nonzero;stroke:#000000;stroke-width:1.00532px;stroke-linecap:round;stroke-linejoin:round;stroke-miterlimit:4" />
      <path
         id="path928-8-6-5-01"
         serif:id="path928-8-6-5-0"
         d="m 290.5126,209.54995 c 2.25043,7.18197 -2.07949,20.38435 1.14136,26.73317"
         style="clip-rule:evenodd;fill:none;fill-rule:nonzero;stroke:#000000;stroke-width:1.00946px;stroke-linecap:round;stroke-linejoin:round;stroke-miterlimit:4" />
      <path
         id="path930-1-9-8-481"
         serif:id="path930-1-9-8-48"
         d="m 266.34204,210.33868 c 0.14267,6.03387 -0.13324,18.03971 -1.3621,25.59988"
         style="clip-rule:evenodd;fill:none;fill-rule:nonzero;stroke:#000000;stroke-width:1.00946px;stroke-linecap:round;stroke-linejoin:round;stroke-miterlimit:4" />
      <path
         id="path883-4-7-9-3-32"
         serif:id="path883-4-7-9-3-3"
         d="m 30.820198,235.33603 c -0.07261,-4.76577 0.178871,-9.88929 0.185955,-14.05292 0.03719,-4.17603 0.102718,-9.57405 -0.920922,-14.37878 -3.657124,-11.61602 -5.127058,-8.55218 -12.919477,-11.40527 -1.195428,-0.46755 -1.647034,-1.44868 -1.007702,-3.67484 4.873804,-2.08447 8.219232,-5.83191 7.119438,-12.31379 -1.135214,-6.68554 -4.532,-8.9967 -9.166719,-9.23402 -5.6282519,-0.2869 -8.1413071,2.1748 -8.8107468,9.1189 -0.5826604,6.03205 0.092092,10.19922 4.445221,12.15618 -1.1104197,3.91923 0.5401568,3.74567 -4.3832358,3.91215 -11.0546095,1.32825 -11.8356224,3.36491 -14.6462064,13.9077 -1.58682,5.95234 -1.299917,20.30279 -2.417421,26.03376 0,0 42.443891,-1.87904 42.521816,-0.0691 z"
         style="clip-rule:evenodd;fill:#ffffff;fill-rule:nonzero;stroke-width:1.771;stroke-linecap:round;stroke-linejoin:round;stroke-miterlimit:1.5" />
      <path
         id="path883-4-7-9-52"
         serif:id="path883-4-7-9-5"
         d="m 30.727652,233.48521 c 0.10434,1.0188 0.01365,0.0401 0.09264,1.8511 v -3.36928 c 0,-3.56453 0.18625,-7.12656 0.18625,-10.68483 0.03803,-4.17531 0.102389,-9.57467 -0.920524,-14.37953 -3.658696,-11.61476 -5.127245,-8.55086 -12.919526,-11.40449 -1.195512,-0.46684 -1.647973,-1.44809 -1.009262,-3.67467 4.874686,-2.0839 8.220364,-5.83242 7.120415,-12.3144 -1.134079,-6.686 -4.532414,-8.99519 -9.167217,-9.23299 -5.6274875,-0.28787 -8.1413781,2.17401 -8.8112939,9.11909 -0.5811787,6.03142 0.092638,10.19796 4.4466025,12.1567 -1.1106755,3.91873 0.5402234,3.74476 -4.384194,3.91122 -11.0540977,1.32794 -11.8351785,3.36428 -14.6455093,13.90768 -1.5865403,5.95132 -1.2998513,20.30206 -2.4173523,26.03309"
         style="clip-rule:evenodd;fill:none;fill-rule:nonzero;stroke:#000000;stroke-width:1.00532px;stroke-linecap:round;stroke-linejoin:round;stroke-miterlimit:4" />
      <path
         id="path928-8-6-5-02"
         serif:id="path928-8-6-5-0"
         d="m 21.91819,209.54995 c 2.250427,7.18197 -2.079492,20.38435 1.141365,26.73317"
         style="clip-rule:evenodd;fill:none;fill-rule:nonzero;stroke:#000000;stroke-width:1.00946px;stroke-linecap:round;stroke-linejoin:round;stroke-miterlimit:4" />
      <path
         id="path930-1-9-8-482"
         serif:id="path930-1-9-8-48"
         d="m -2.2523657,210.33868 c 0.1426706,6.03387 -0.133249,18.03971 -1.3621006,25.59988"
         style="clip-rule:evenodd;fill:none;fill-rule:nonzero;stroke:#000000;stroke-width:1.00946px;stroke-linecap:round;stroke-linejoin:round;stroke-miterlimit:4" />
      <path
         id="path883-4-7-9-3-1"
         d="m -36.328412,235.33603 c -0.07261,-4.76577 0.178871,-9.88929 0.185955,-14.05292 0.03719,-4.17603 0.102718,-9.57405 -0.920922,-14.37878 -3.657124,-11.61602 -5.127058,-8.55218 -12.919477,-11.40527 -1.195428,-0.46755 -1.647034,-1.44868 -1.007702,-3.67484 4.873804,-2.08447 8.219232,-5.83191 7.119438,-12.31379 -1.135214,-6.68554 -4.532,-8.9967 -9.166719,-9.23402 -5.628252,-0.2869 -8.141307,2.1748 -8.810747,9.1189 -0.58266,6.03205 0.09209,10.19922 4.445221,12.15618 -1.11042,3.91923 0.540157,3.74567 -4.383236,3.91215 -11.054609,1.32825 -11.835622,3.36491 -14.646206,13.9077 -1.58682,5.95234 -1.299917,20.30279 -2.417421,26.03376 0,0 42.443891,-1.87904 42.521816,-0.0691 z"
         style="clip-rule:evenodd;fill:#ffffff;fill-rule:nonzero;stroke-width:1.771;stroke-linecap:round;stroke-linejoin:round;stroke-miterlimit:1.5" />
      <path
         id="path883-4-7-9-4"
         d="m -36.420958,233.48521 c 0.10434,1.0188 0.01365,0.0401 0.09264,1.8511 v -3.36928 c 0,-3.56453 0.18625,-7.12656 0.18625,-10.68483 0.03803,-4.17531 0.102389,-9.57467 -0.920524,-14.37953 -3.658696,-11.61476 -5.127245,-8.55086 -12.919526,-11.40449 -1.195512,-0.46684 -1.647973,-1.44809 -1.009262,-3.67467 4.874686,-2.0839 8.220364,-5.83242 7.120415,-12.3144 -1.134079,-6.686 -4.532414,-8.99519 -9.167217,-9.23299 -5.627487,-0.28787 -8.141378,2.17401 -8.811294,9.11909 -0.581179,6.03142 0.09264,10.19796 4.446603,12.1567 -1.110676,3.91873 0.540223,3.74476 -4.384194,3.91122 -11.054098,1.32794 -11.835179,3.36428 -14.64551,13.90768 -1.58654,5.95132 -1.299851,20.30206 -2.417352,26.03309"
         style="clip-rule:evenodd;fill:none;fill-rule:nonzero;stroke:#000000;stroke-width:1.00532px;stroke-linecap:round;stroke-linejoin:round;stroke-miterlimit:4" />
      <path
         id="path928-8-6-5-11"
         d="m -45.23042,209.54995 c 2.250427,7.18197 -2.079492,20.38435 1.141365,26.73317"
         style="clip-rule:evenodd;fill:none;fill-rule:nonzero;stroke:#000000;stroke-width:1.00946px;stroke-linecap:round;stroke-linejoin:round;stroke-miterlimit:4" />
      <path
         id="path930-1-9-8-1"
         d="m -69.400976,210.33868 c 0.142671,6.03387 -0.133249,18.03971 -1.3621,25.59988"
         style="clip-rule:evenodd;fill:none;fill-rule:nonzero;stroke:#000000;stroke-width:1.00946px;stroke-linecap:round;stroke-linejoin:round;stroke-miterlimit:4" />
      <path
         id="path883-4-7-9-3"
         d="m -103.47648,235.33603 c -0.0726,-4.76577 0.17887,-9.88929 0.18595,-14.05292 0.0372,-4.17603 0.10272,-9.57405 -0.92092,-14.37878 -3.65712,-11.61602 -5.12706,-8.55218 -12.91948,-11.40527 -1.19542,-0.46755 -1.64703,-1.44868 -1.0077,-3.67484 4.87381,-2.08447 8.21923,-5.83191 7.11944,-12.31379 -1.13521,-6.68554 -4.532,-8.9967 -9.16672,-9.23402 -5.62825,-0.2869 -8.14131,2.1748 -8.81075,9.1189 -0.58266,6.03205 0.0921,10.19922 4.44523,12.15618 -1.11042,3.91923 0.54015,3.74567 -4.38324,3.91215 -11.05461,1.32825 -11.83562,3.36491 -14.64621,13.9077 -1.58682,5.95234 -1.29991,20.30279 -2.41742,26.03376 0,0 42.44389,-1.87904 42.52182,-0.0691 z"
         style="clip-rule:evenodd;fill:#ffffff;fill-rule:nonzero;stroke-width:1.771;stroke-linecap:round;stroke-linejoin:round;stroke-miterlimit:1.5" />
      <path
         id="path883-4-7-9"
         d="m -103.56898,233.48521 c 0.10434,1.0188 0.0136,0.0401 0.0926,1.8511 v -3.36928 c 0,-3.56453 0.18625,-7.12656 0.18625,-10.68483 0.038,-4.17531 0.10239,-9.57467 -0.92052,-14.37953 -3.6587,-11.61476 -5.12725,-8.55086 -12.91953,-11.40449 -1.19551,-0.46684 -1.64797,-1.44809 -1.00926,-3.67467 4.87468,-2.0839 8.22036,-5.83242 7.12041,-12.3144 -1.13408,-6.686 -4.53241,-8.99519 -9.16721,-9.23299 -5.62749,-0.28787 -8.14138,2.17401 -8.8113,9.11909 -0.58118,6.03142 0.0926,10.19796 4.4466,12.1567 -1.11067,3.91873 0.54023,3.74476 -4.38419,3.91122 -11.0541,1.32794 -11.83518,3.36428 -14.64551,13.90768 -1.58654,5.95132 -1.29985,20.30206 -2.41735,26.03309"
         style="clip-rule:evenodd;fill:none;fill-rule:nonzero;stroke:#000000;stroke-width:1.00532px;stroke-linecap:round;stroke-linejoin:round;stroke-miterlimit:4" />
      <path
         id="path928-8-6-5"
         d="m -112.37844,209.54995 c 2.25043,7.18197 -2.07949,20.38435 1.14136,26.73317"
         style="clip-rule:evenodd;fill:none;fill-rule:nonzero;stroke:#000000;stroke-width:1.00946px;stroke-linecap:round;stroke-linejoin:round;stroke-miterlimit:4" />
      <path
         id="path930-1-9-8"
         d="m -136.549,210.33868 c 0.14267,6.03387 -0.13324,18.03971 -1.3621,25.59988"
         style="clip-rule:evenodd;fill:none;fill-rule:nonzero;stroke:#000000;stroke-width:1.00946px;stroke-linecap:round;stroke-linejoin:round;stroke-miterlimit:4" />
      <circle
         cx="221.58647"
         cy="-22.722038"
         r="29.976067"
         style="clip-rule:evenodd;fill:#ebebeb;fill-rule:evenodd;stroke:#000000;stroke-width:1.45254px;stroke-linecap:round;stroke-linejoin:round;stroke-miterlimit:1.5"
         id="circle168" />
      <path
         d="m 228.74752,-21.312247 c 0.60343,-4.4991 -13.3438,-3.407545 -16.24923,-0.986291 -0.53475,0.445624 -0.94021,1.480871 -0.83978,2.183469 0.0683,0.47862 5.20618,11.5883778 5.71044,12.2604902 0.93787,1.2506166 3.133,1.3377689 3.695,3.0232501 0.56506,1.6951648 -0.56254,5.14789968 0.67176,6.3821977 0.16301,0.163007 1.46347,0.1680281 1.67956,0.1680281 4.6162,0 4.06298,-11.3817952 4.87066,-14.6119871 0.43523,-1.741072 2.70621,-2.427172 3.1911,-4.366757 0.33211,-1.328624 -1.01749,-4.030881 -2.51934,-4.030881"
         style="clip-rule:evenodd;fill:none;fill-rule:evenodd;stroke:#000000;stroke-width:1.45254px;stroke-linecap:round;stroke-linejoin:round;stroke-miterlimit:1.5"
         id="path172" />
      <path
         d="m 222.98364,-48.387542 c -0.22398,-0.346098 -1.36073,0.517175 -1.41596,0.560034 -3.20634,2.493881 -6.04776,6.716102 -3.695,10.245229 0.64969,0.974456 10.9428,-4.857571 8.22979,-0.335876 -0.002,0.0027 -7.711,5.870761 -8.06177,6.046321 -3.14178,1.570892 -4.51918,-0.0468 -5.71044,3.526975 -0.0638,0.191341 -0.57581,0.935721 -0.33588,1.175659 2.80806,2.808059 7.51428,-2.50482 9.5733,-3.191099 0.13503,-0.04501 0.82651,-0.349326 1.00781,-0.168028 1.33293,1.332927 -1.61106,3.091752 -0.16803,4.534785 0.42931,0.429306 1.52768,-5.862332 3.35913,-4.03088 1.44231,1.442316 -0.1691,3.610541 2.01544,4.702634 3.09444,1.547221 6.18458,6.871219 10.24523,8.901722 1.45379,0.726807 6.89363,1.887582 8.39764,1.511536 0.83099,-0.207839 2.52831,3.426374 3.37526,3.567682"
         style="clip-rule:evenodd;fill:none;fill-rule:evenodd;stroke:#000000;stroke-width:1.45254px;stroke-linecap:round;stroke-linejoin:round;stroke-miterlimit:1.5"
         id="path176" />
      <path
         d="m 214.08604,-37.407615 c 0.34592,7.17e-4 0.4883,0.346277 0.86919,0.642344 0.30934,0.240655 0.66081,0.504443 0.8561,0.85628 1.66629,2.99922 -3.50707,3.908042 -2.85397,0.642164 0.17162,-0.857893 1.42708,-1.030763 1.42708,-1.855123"
         style="clip-rule:evenodd;fill:none;fill-rule:evenodd;stroke:#000000;stroke-width:1.45254px;stroke-linecap:round;stroke-linejoin:round;stroke-miterlimit:1.5"
         id="path180" />
      <path
         d="m 204.47652,-46.154759 c -0.2507,1.079719 1.67813,5.380126 2.20212,6.820828 0.21483,0.590878 0.7953,2.052381 0.42805,2.640031 -0.58514,0.936259 -3.13838,1.908921 -4.35242,1.498266 -0.61239,-0.206942 -1.40663,-1.202558 -2.14043,-0.713357 -0.25374,0.169104 -0.2706,0.594105 -0.49942,0.784728 -0.74025,0.61688 -1.733,-0.08034 -1.85512,1.141587 -0.0669,0.668347 0.47019,3.553516 0.42805,3.567503 -1.18516,0.395234 -2.26291,0.896987 -2.99671,1.997867 -0.34538,0.518071 0.0536,1.480512 -0.57079,1.855123 -0.84248,0.505519 -2.56615,-0.147406 -3.06809,0.85628"
         style="clip-rule:evenodd;fill:none;fill-rule:evenodd;stroke:#000000;stroke-width:1.45254px;stroke-linecap:round;stroke-linejoin:round;stroke-miterlimit:1.5"
         id="path184" />
      <path
         d="m 192.00227,-21.539811 c 0.63374,0.614011 -0.73326,-0.168566 -0.66404,-0.09917 0.85807,0.858073 2.42484,-0.263609 3.5675,1.641008 0.25518,0.425181 -0.0423,1.115047 0.0714,1.569637 0.39362,1.57412 0.66548,3.475868 0.42805,5.13732 -0.1309,0.917429 -0.51574,2.379291 0,3.282017 0.45083,0.7888528 0.93823,2.1425817 1.49845,2.782774 1.19144,1.3616192 3.5675,3.1620481 3.5675,4.994397"
         style="clip-rule:evenodd;fill:none;fill-rule:evenodd;stroke:#000000;stroke-width:1.45254px;stroke-linecap:round;stroke-linejoin:round;stroke-miterlimit:1.5"
         id="path188" />
      <path
         d="m 217.0051,-60.225541 -7.36957,-4.413741 c 0,0 26.11178,-7.722657 27.10668,-7.551939 0.9949,0.170718 24.07303,13.776868 24.07303,13.776868 l -15.30903,6.505036 -1.57788,8.388492 c -11.34306,6.173642 -20.46195,1.985314 -28.30511,-8.146223 z"
         style="clip-rule:evenodd;fill:#00a62a;fill-rule:evenodd;stroke:#000000;stroke-width:1.45254px;stroke-linecap:round;stroke-linejoin:round;stroke-miterlimit:1.5"
         id="path192" />
      <path
         d="m 236.74254,-72.191082 c -0.99494,-0.170634 -27.10674,7.551997 -27.10674,7.551997 l 27.32089,16.362947 23.85879,-10.137935 c 0,0 -23.0782,-13.606226 -24.07294,-13.777009 z"
         style="clip-rule:evenodd;fill:none;fill-rule:evenodd;stroke:#000000;stroke-width:1.45254px;stroke-linecap:round;stroke-linejoin:round;stroke-miterlimit:1.5"
         id="path196" />
      <path
         d="m 236.04753,-62.193855 c -0.054,-1.863891 12.22364,5.552095 13.65276,6.966822 3.37145,3.337558 5.6702,9.524178 2.42377,13.436037"
         style="clip-rule:evenodd;fill:none;fill-rule:evenodd;stroke:#000000;stroke-width:1.45254px;stroke-linecap:round;stroke-linejoin:round;stroke-miterlimit:1.5"
         id="path200" />
      <path
         d="m 245.61973,-52.507438 -1.69027,8.986569 c -11.3431,6.173645 -20.46195,1.985455 -28.3052,-8.146149 l 1.25947,-8.568175"
         style="clip-rule:evenodd;fill:none;fill-rule:evenodd;stroke:#000000;stroke-width:1.44114px;stroke-linecap:round;stroke-linejoin:round;stroke-miterlimit:1.5"
         id="path204" />
      <path
         d="m 219.20672,-14.765448 c 0,-7.659892 -9.60235,-13.878545 -21.42995,-13.878545 -11.82742,0 -21.42976,6.218653 -21.42976,13.878545 0,4.526537 3.40862,8.7686629 9.13287,11.3661941 l -2.70405,9.4515345 9.44848,-7.4133199 c 1.81083,0.3147164 3.67761,0.47395757 5.55246,0.47395757 11.8276,0 21.42995,-6.21865277 21.42995,-13.87836627 z"
         style="clip-rule:evenodd;fill:#00a62a;fill-rule:evenodd;stroke:#000000;stroke-width:1.45254px;stroke-linecap:round;stroke-linejoin:round;stroke-miterlimit:1.5"
         id="path208" />
      <path
         d="m 191.79745,-11.863739 q 0,0.204063 -0.34426,0.734621 -0.80329,1.1631411 -2.16122,2.2650704 -1.35793,1.0815186 -2.98364,1.0815186 -1.72131,0 -2.8115,-1.0407092 -1.09015,-1.0611119 -1.09015,-3.1221238 0,-1.408018 0.459,-3.183344 0.45904,-1.775326 1.07104,-3.081314 0.63118,-1.326395 1.45356,-2.203855 0.84157,-0.877459 1.6831,-0.877459 0.82242,0 1.2623,0.632587 0.45901,0.632588 0.45901,1.571267 0,0.346902 -0.13387,0.714211 -0.11475,0.346905 -0.26778,0.591778 -0.15299,0.244872 -0.2295,0.244872 -0.15299,0 -0.15299,-0.183656 0,-0.06122 0.0574,-0.265279 0.0765,-0.224466 0.0765,-0.367309 0,-0.510151 -0.11475,-0.959082 -0.0956,-0.387715 -0.38253,-0.632588 -0.2869,-0.265279 -0.63115,-0.265279 -1.37705,0 -2.58199,2.836438 -0.47813,1.142743 -0.80326,2.571163 -0.32517,1.428425 -0.32517,2.75482 0,0.918273 0.34429,1.673296 0.36337,0.7550239 1.01364,1.203955 0.66942,0.4489353 1.54919,0.4489353 1.39621,0 2.52464,-0.7142142 1.14755,-0.7142101 2.25682,-1.8365421 0.0383,-0.04081 0.26778,-0.448935 0.2295,-0.428525 0.34425,-0.428525 0.11475,0 0.15303,0.06122 0.0382,0.06122 0.0382,0.224466 z"
         style="font-size:50.6184px;font-family:'Ink Free';-inkscape-font-specification:'Ink Free, Normal';clip-rule:evenodd;fill-rule:evenodd;stroke-width:0.390284;stroke-linecap:round;stroke-linejoin:round;stroke-miterlimit:1.5"
         id="path3955" />
      <path
         d="m 193.51875,-20.985242 q 0,0.306088 -0.63115,0.306088 -0.32513,0 -0.66942,-0.285681 -0.32514,-0.285686 -0.32514,-0.469342 0,-0.224466 0.19127,-0.428525 0.21038,-0.204062 0.42076,-0.204062 0,0 0.13387,0.06122 0.15303,0.04081 0.34429,0.265279 0.15299,0.163245 0.34426,0.428524 0.19126,0.265279 0.19126,0.326499 z m 0.47812,12.8354046 q 0,0.2040629 -0.1721,0.3060924 -0.15303,0.1224361 -0.36341,0.1020294 -0.26774,-0.020399 -0.40165,-0.9182731 -0.11475,-0.8978664 -0.24862,-3.4078093 -0.0765,-1.65289 -0.13387,-3.224157 -0.0574,-1.59167 -0.0765,-2.448727 0,-0.224466 0.0574,-0.326495 0.0765,-0.122436 0.26774,-0.122436 0.43988,0 0.55464,0.387715 0.11478,0.387715 0.11478,1.48964 l -0.0193,2.407914 q 0,2.061012 0.11479,3.30578 0,0.06122 0.17211,1.3059879 0.13387,0.857053 0.13387,1.1427387 z"
         style="font-size:50.6184px;font-family:'Ink Free';-inkscape-font-specification:'Ink Free, Normal';clip-rule:evenodd;fill-rule:evenodd;stroke-width:0.390284;stroke-linecap:round;stroke-linejoin:round;stroke-miterlimit:1.5"
         id="path3957" />
      <path
         d="m 204.34393,-9.5170417 q 0.0193,0.1428429 0.15303,0.3060924 0.13387,0.1428388 0.13387,0.2448723 0,0.2448723 -0.19127,0.5713673 -0.19126,0.3060924 -0.38249,0.3060924 -0.32517,0 -0.49728,-0.4285285 -0.17214,-0.4285286 -0.17214,-0.9998959 0,-0.4897443 0.0574,-2.9384713 l 0.0193,-0.77543 q 0,-0.469338 -0.2295,-0.673401 -0.86069,1.55086 -1.60659,2.693599 -0.7459,1.142739 -1.89345,2.1630412 -1.14755,0.9998958 -2.40985,0.9998958 -0.61203,0 -0.95628,-0.4081178 -0.32518,-0.4081218 -0.32518,-1.0611159 0,-0.8162433 0.68855,-2.2242613 0.68854,-1.42842 1.75958,-2.877251 1.07103,-1.469238 2.14211,-2.407914 0.70762,-0.612181 1.12839,-0.816244 0.42076,-0.224465 0.74594,-0.224465 0.30601,0 0.63115,0.204059 0.32513,0.204063 0.55463,0.571371 0.22951,0.367309 0.22951,0.836646 0,0.632588 -0.32514,1.203959 l 0.32514,-0.102029 q 0.21038,0 0.24865,0.55096 0.0193,0.326499 0.0382,1.326395 0.0382,0.999896 0.0574,1.65289 0.0193,0.673401 0.0382,1.305988 0.0193,0.6325879 0.0382,0.9998963 z m -6.75142,0.3673084 q 1.0328,0 1.98908,-0.8162436 0.95632,-0.8162401 1.70222,-1.9385711 0.76502,-1.142739 1.68307,-2.795629 0.2295,-0.612185 0.2295,-1.326395 0,-0.428529 -0.24862,-0.734617 -0.2295,-0.326499 -0.63115,-0.326499 -0.47816,0 -1.22406,0.693808 -0.86065,0.77543 -1.81697,2.081418 -0.95629,1.285577 -1.58744,2.550756 -0.63115,1.265175 -0.63115,1.999792 0,0.6121807 0.53552,0.6121807 z"
         style="font-size:50.6184px;font-family:'Ink Free';-inkscape-font-specification:'Ink Free, Normal';clip-rule:evenodd;fill-rule:evenodd;stroke-width:0.390284;stroke-linecap:round;stroke-linejoin:round;stroke-miterlimit:1.5"
         id="path3959" />
      <path
         d="m 213.18007,-12.435106 q 0,0.795836 -0.55464,1.836542 -0.55467,1.0407089 -1.56835,1.7957325 -1.01364,0.7346209 -2.31422,0.7346209 -1.28142,0 -1.89345,-0.7550276 -0.61203,-0.7550236 -0.61203,-1.8773558 0,-0.979489 0.32513,-2.42832 0.3443,-1.448827 0.95629,-2.591566 0.0383,-0.08163 0.30601,-0.591778 0.2869,-0.530558 0.63115,-0.795837 0.34429,-0.285681 0.72679,-0.285681 0.17214,0 0.30601,0.102029 0.15303,0.08162 0.15303,0.224466 0,0.04081 -0.11475,0.204059 -0.0956,0.142842 -0.15303,0.224469 -0.65027,0.836647 -1.05192,1.65289 -0.53551,1.040709 -0.84153,2.061012 -0.2869,1.020303 -0.2869,2.224257 0,1.6120808 1.8361,1.6120808 0.86065,0 1.58743,-0.5305579 0.7459,-0.5305579 1.18583,-1.2855819 0.43988,-0.77543 0.43988,-1.408017 0,-0.714215 -0.43988,-1.244768 -0.43993,-0.530558 -1.20495,-1.122336 -0.49728,-0.387716 -0.72678,-0.632588 -0.2295,-0.244872 -0.2295,-0.408118 0,-0.244876 0.32513,-0.387715 0.32514,-0.163249 0.76502,-0.163249 0.24866,0 0.32514,0.04081 0.0765,0.0204 0.0765,0.10203 0,0.04081 -0.0765,0.142842 -0.0574,0.08162 -0.0574,0.142843 0,0.06122 0.38253,0.408118 0.76502,0.673401 1.28142,1.367208 0.5164,0.693804 0.5164,1.632484 z"
         style="font-size:50.6184px;font-family:'Ink Free';-inkscape-font-specification:'Ink Free, Normal';clip-rule:evenodd;fill-rule:evenodd;stroke-width:0.390284;stroke-linecap:round;stroke-linejoin:round;stroke-miterlimit:1.5"
         id="path3961" />
    </g>
    <g
       id="g4830">
      <path
         d="M 232.46932,13.901229 276.75793,163.43579"
         style="clip-rule:evenodd;fill:none;fill-rule:evenodd;stroke:#000000;stroke-width:2.74373px;stroke-linecap:round;stroke-linejoin:round;stroke-miterlimit:1.5"
         id="path267"
         sodipodi:nodetypes="cc" />
    </g>
    <g
       id="g4833">
      <path
         d="m 219.54972,14.959563 0.97102,148.476227"
         style="clip-rule:evenodd;fill:none;fill-rule:evenodd;stroke:#000000;stroke-width:2.74373px;stroke-linecap:round;stroke-linejoin:round;stroke-miterlimit:1.5"
         id="path271"
         sodipodi:nodetypes="cc" />
    </g>
    <g
       id="g4827"
       style="font-variation-settings:normal;opacity:1;vector-effect:none;fill:none;fill-opacity:1;stroke:#b3b3b3;stroke-width:2.74373px;stroke-linecap:round;stroke-linejoin:round;stroke-miterlimit:1.5;stroke-dasharray:none;stroke-dashoffset:0;stroke-opacity:1;-inkscape-stroke:none;stop-color:#000000;stop-opacity:1">
      <path
         d="M 152.85355,162.58648 205.03468,9.1387295"
         style="font-variation-settings:normal;clip-rule:evenodd;vector-effect:none;fill:none;fill-opacity:1;fill-rule:evenodd;stroke:#b3b3b3;stroke-width:2.74373px;stroke-linecap:round;stroke-linejoin:round;stroke-miterlimit:1.5;stroke-dasharray:none;stroke-dashoffset:0;stroke-opacity:1;-inkscape-stroke:none;stop-color:#000000;stop-opacity:1"
         id="path275" />
    </g>
    <g
       id="g4671">
      <path
         d="M 212.50651,163.43579 -37.02917,3.6081441"
         style="clip-rule:evenodd;fill:none;fill-rule:evenodd;stroke:#000000;stroke-width:2.74373px;stroke-linecap:round;stroke-linejoin:round;stroke-miterlimit:1.5"
         id="path287" />
    </g>
    <g
       id="g4665">
      <path
         d="M 9.3292691,161.25562 -62.332332,13.970286"
         style="clip-rule:evenodd;fill:none;fill-rule:evenodd;stroke:#000000;stroke-width:2.74373px;stroke-linecap:round;stroke-linejoin:round;stroke-miterlimit:1.5"
         id="path291" />
    </g>
    <g
       id="g4662">
      <path
         d="M -54.481351,162.08112 -71.180792,13.230511"
         style="clip-rule:evenodd;fill:none;fill-rule:evenodd;stroke:#000000;stroke-width:2.74373px;stroke-linecap:round;stroke-linejoin:round;stroke-miterlimit:1.5"
         id="path295" />
    </g>
    <g
       id="g4659">
      <path
         d="M -117.78424,162.18696 -79.472305,10.201296"
         style="clip-rule:evenodd;fill:none;fill-rule:evenodd;stroke:#000000;stroke-width:2.74373px;stroke-linecap:round;stroke-linejoin:round;stroke-miterlimit:1.5"
         id="path299" />
    </g>
    <g
       id="g4818">
      <path
         d="M 82.932118,163.43579 113.56822,9.1387295"
         style="clip-rule:evenodd;fill:none;fill-rule:evenodd;stroke:#000000;stroke-width:2.74373px;stroke-linecap:round;stroke-linejoin:round;stroke-miterlimit:1.5"
         id="path307" />
    </g>
    <g
       id="g4777">
      <path
         d="M 139.08464,164.23219 45.842033,13.718402"
         style="clip-rule:evenodd;fill:none;fill-rule:evenodd;stroke:#000000;stroke-width:2.74373px;stroke-linecap:round;stroke-linejoin:round;stroke-miterlimit:1.5"
         id="path303" />
    </g>
    <g
       id="g4679"
       style="display:inline">
      <g
         id="g4286">
        <path
           style="color:#000000;clip-rule:evenodd;fill:#6bb418;fill-rule:evenodd;stroke-linecap:round;stroke-linejoin:round;stroke-miterlimit:1.5;-inkscape-stroke:none"
           d="m 46.648437,10.283203 a 3.5277777,3.5277777 0 0 0 -2.664062,0.435547 3.5277777,3.5277777 0 0 0 -1.140625,4.857422 l 93.24219,150.513668 a 3.5277777,3.5277777 0 0 0 4.85742,1.14063 3.5277777,3.5277777 0 0 0 1.14062,-4.85547 L 48.841797,11.861328 a 3.5277777,3.5277777 0 0 0 -2.19336,-1.578125 z"
           id="path303-1" />
        <path
           d="M 139.08464,164.23219 45.842033,13.718402"
           style="clip-rule:evenodd;fill:none;fill-rule:evenodd;stroke:#000000;stroke-width:2.74373px;stroke-linecap:round;stroke-linejoin:round;stroke-miterlimit:1.5"
           id="path303-15" />
      </g>
    </g>
    <g
       id="g4328">
      <path
         style="color:#000000;clip-rule:evenodd;fill:#6bb418;fill-rule:evenodd;stroke-linecap:round;stroke-linejoin:round;stroke-miterlimit:1.5;-inkscape-stroke:none"
         d="m 114.25586,5.6777344 a 3.5277777,3.5277777 0 0 0 -4.14844,2.7734375 L 79.472656,162.74805 a 3.5277777,3.5277777 0 0 0 2.771485,4.14843 3.5277777,3.5277777 0 0 0 4.148437,-2.77343 L 117.0293,9.8261719 a 3.5277777,3.5277777 0 0 0 -2.77344,-4.1484375 z"
         id="path307-5" />
      <path
         d="M 82.932118,163.43579 113.56822,9.1387295"
         style="clip-rule:evenodd;fill:none;fill-rule:evenodd;stroke:#000000;stroke-width:2.74373px;stroke-linecap:round;stroke-linejoin:round;stroke-miterlimit:1.5"
         id="path307-8" />
    </g>
    <text
       xml:space="preserve"
       style="font-style:normal;font-weight:normal;font-size:14.4166px;line-height:1.25;font-family:sans-serif;fill:#000000;fill-opacity:1;stroke:none;stroke-width:0.360414"
       x="-93.701889"
       y="-83.949348"
       id="text6611"><tspan
         sodipodi:role="line"
         id="tspan6609"
         style="stroke-width:0.360414"
         x="-93.701889"
         y="-83.949348">Englisch</tspan></text>
    <text
       xml:space="preserve"
       style="font-style:normal;font-weight:normal;font-size:14.4166px;line-height:1.25;font-family:sans-serif;fill:#000000;fill-opacity:1;stroke:none;stroke-width:0.360414"
       x="1.4723105"
       y="-83.949348"
       id="text6611-5"><tspan
         sodipodi:role="line"
         id="tspan6609-2"
         style="stroke-width:0.360414"
         x="1.4723105"
         y="-83.949348">Spanisch</tspan></text>
    <text
       xml:space="preserve"
       style="font-style:normal;font-weight:normal;font-size:14.4166px;line-height:1.25;font-family:sans-serif;fill:#000000;fill-opacity:1;stroke:none;stroke-width:0.360414"
       x="92.675095"
       y="-83.949348"
       id="text6611-5-4"><tspan
         sodipodi:role="line"
         id="tspan6609-2-8"
         style="stroke-width:0.360414"
         x="92.675095"
         y="-83.949348">Ungarisch</tspan></text>
    <text
       xml:space="preserve"
       style="font-style:normal;font-weight:normal;font-size:14.4166px;line-height:1.25;font-family:sans-serif;fill:#000000;fill-opacity:1;stroke:none;stroke-width:0.360414"
       x="184.00923"
       y="-83.949348"
       id="text6611-5-4-3"><tspan
         sodipodi:role="line"
         id="tspan6609-2-8-1"
         style="stroke-width:0.360414"
         x="184.00923"
         y="-83.949348">Italienisch</tspan></text>
    <g
       transform="matrix(0.91003701,0,0,0.91003701,-2259.1761,-1423.6377)"
       id="g1380"
       style="clip-rule:evenodd;fill-rule:evenodd;stroke-linecap:round;stroke-linejoin:round;stroke-miterlimit:1.5">
      <text
         x="2336.3"
         y="1812.47"
         style="font-size:26px;font-family:ArialRoundedMTBold, 'Arial Rounded MT Bold', sans-serif"
         id="text1378">A</text>
    </g>
    <g
       transform="matrix(0.91003701,0,0,0.91003701,-2191.2788,-1423.6377)"
       id="g1412"
       style="clip-rule:evenodd;fill-rule:evenodd;stroke-linecap:round;stroke-linejoin:round;stroke-miterlimit:1.5">
      <text
         x="2336.3"
         y="1812.47"
         style="font-size:26px;font-family:ArialRoundedMTBold, 'Arial Rounded MT Bold', sans-serif"
         id="text1410">B</text>
    </g>
    <g
       transform="matrix(0.91003701,0,0,0.91003701,-2123.3787,-1423.6377)"
       id="g1416"
       style="clip-rule:evenodd;fill-rule:evenodd;stroke-linecap:round;stroke-linejoin:round;stroke-miterlimit:1.5">
      <text
         x="2336.3"
         y="1812.47"
         style="font-size:26px;font-family:ArialRoundedMTBold, 'Arial Rounded MT Bold', sans-serif"
         id="text1414">C</text>
    </g>
    <g
       transform="matrix(0.91003701,0,0,0.91003701,-2057.0556,-1423.6377)"
       id="g1420"
       style="clip-rule:evenodd;fill-rule:evenodd;stroke-linecap:round;stroke-linejoin:round;stroke-miterlimit:1.5">
      <text
         x="2336.3"
         y="1812.47"
         style="font-size:26px;font-family:ArialRoundedMTBold, 'Arial Rounded MT Bold', sans-serif"
         id="text1418">D</text>
    </g>
    <g
       transform="matrix(0.91003701,0,0,0.91003701,-1989.8779,-1423.6377)"
       id="g1424"
       style="clip-rule:evenodd;fill-rule:evenodd;stroke-linecap:round;stroke-linejoin:round;stroke-miterlimit:1.5">
      <text
         x="2336.3"
         y="1812.47"
         style="font-size:26px;font-family:ArialRoundedMTBold, 'Arial Rounded MT Bold', sans-serif"
         id="text1422">E</text>
    </g>
    <g
       transform="matrix(0.91003701,0,0,0.91003701,-1922.6314,-1423.6377)"
       id="g1428"
       style="clip-rule:evenodd;fill-rule:evenodd;stroke-linecap:round;stroke-linejoin:round;stroke-miterlimit:1.5">
      <text
         x="2336.3"
         y="1812.47"
         style="font-size:26px;font-family:ArialRoundedMTBold, 'Arial Rounded MT Bold', sans-serif"
         id="text1426">F</text>
    </g>
    <g
       transform="matrix(0.91003701,0,0,0.91003701,-1855.8453,-1423.6377)"
       id="g1432"
       style="clip-rule:evenodd;fill-rule:evenodd;stroke-linecap:round;stroke-linejoin:round;stroke-miterlimit:1.5">
      <text
         x="2336.3"
         y="1812.47"
         style="font-size:26px;font-family:ArialRoundedMTBold, 'Arial Rounded MT Bold', sans-serif"
         id="text1430">G</text>
    </g>
  </g>
</svg>
