<?xml version="1.0" encoding="iso-8859-1"?>
<!-- Generator: Adobe Illustrator 14.0.0, SVG Export Plug-In . SVG Version: 6.00 Build 43363)  -->
<!DOCTYPE svg PUBLIC "-//W3C//DTD SVG 1.1//EN" "http://www.w3.org/Graphics/SVG/1.1/DTD/svg11.dtd">
<svg version="1.1" xmlns="http://www.w3.org/2000/svg" xmlns:xlink="http://www.w3.org/1999/xlink" x="0px" y="0px" width="600px"
	 height="800px" viewBox="0 0 600 800" style="enable-background:new 0 0 600 800;" xml:space="preserve">
<g id="Layer_2">
	<path style="fill-rule:evenodd;clip-rule:evenodd;fill:#E98500;" d="M565.03,471.594c0-0.389,0-0.777,0-1.166
		c1.68-48.472-31.006-62.589-61.138-79.253c0,0-4.431-4.229-13.584-4.528c-2.368-0.077-3.809-0.114-4.651-0.127
		c0.073,0.076,0.12,0.127,0.12,0.127s-2.534-0.164-0.12-0.127c-0.445-0.459-2.206-2.096-5.006-2.389
		c-3.262-0.341-3.87,0.437-7.297-0.788c-1.527-0.545-2.556-1.04-3.25-1.428c26.34-29.28,35.147-70.941,29.092-108.629
		c-0.004-0.027-0.01-0.053-0.014-0.08c-0.221-1.369-0.46-2.732-0.72-4.089c-0.009-0.046-0.02-0.091-0.028-0.138
		c-0.257-1.336-0.531-2.667-0.826-3.992c-0.018-0.08-0.038-0.158-0.057-0.238c-0.289-1.289-0.593-2.572-0.918-3.847
		c-0.032-0.126-0.069-0.251-0.102-0.377c-0.316-1.228-0.645-2.45-0.993-3.664c-0.043-0.149-0.091-0.295-0.135-0.444
		c-0.346-1.187-0.701-2.37-1.078-3.542c-0.061-0.188-0.128-0.372-0.189-0.559c-0.368-1.13-0.745-2.256-1.143-3.372
		c-0.075-0.21-0.158-0.415-0.233-0.625c-0.395-1.086-0.794-2.17-1.216-3.241c-0.099-0.252-0.208-0.5-0.309-0.751
		c-0.409-1.022-0.822-2.042-1.257-3.049c-0.119-0.276-0.249-0.545-0.369-0.821c-0.429-0.974-0.859-1.946-1.312-2.905
		c-0.149-0.317-0.311-0.625-0.462-0.94c-0.438-0.908-0.876-1.816-1.335-2.71c-0.171-0.334-0.354-0.658-0.529-0.99
		c-0.454-0.864-0.907-1.729-1.382-2.579c-0.194-0.349-0.401-0.687-0.6-1.033c-0.469-0.82-0.936-1.642-1.423-2.446
		c-0.229-0.376-0.47-0.74-0.701-1.113c-0.475-0.763-0.945-1.528-1.437-2.276c-0.252-0.385-0.52-0.757-0.776-1.138
		c-0.486-0.722-0.969-1.447-1.472-2.154c-0.283-0.397-0.58-0.782-0.868-1.175c-0.494-0.674-0.982-1.353-1.491-2.013
		c-0.322-0.419-0.661-0.823-0.989-1.236c-0.491-0.617-0.976-1.241-1.479-1.844c-0.364-0.437-0.745-0.857-1.116-1.287
		c-0.485-0.563-0.965-1.132-1.462-1.682c-0.395-0.436-0.806-0.854-1.207-1.282c-0.493-0.525-0.979-1.059-1.481-1.571
		c-0.422-0.429-0.86-0.839-1.289-1.26c-0.501-0.491-0.995-0.991-1.506-1.469c-0.463-0.433-0.942-0.845-1.413-1.268
		c-0.496-0.445-0.984-0.9-1.489-1.334c-0.5-0.429-1.017-0.836-1.525-1.253c-0.494-0.406-0.98-0.822-1.483-1.217
		c-0.536-0.421-1.091-0.819-1.637-1.227c-0.492-0.368-0.977-0.748-1.477-1.105c-0.561-0.4-1.138-0.776-1.708-1.163
		c-0.504-0.342-1-0.697-1.512-1.028c-0.586-0.379-1.188-0.733-1.784-1.098c-0.514-0.314-1.018-0.641-1.538-0.945
		c-0.625-0.365-1.269-0.703-1.904-1.052c-0.508-0.278-1.006-0.57-1.521-0.838c-0.661-0.345-1.341-0.662-2.014-0.99
		c-0.506-0.246-1.002-0.507-1.514-0.743c-0.694-0.32-1.406-0.612-2.111-0.914c-0.507-0.217-1.005-0.449-1.518-0.656
		c-0.726-0.293-1.468-0.557-2.205-0.83c-0.509-0.189-1.01-0.394-1.524-0.573c-0.743-0.259-1.504-0.488-2.26-0.727
		c-0.524-0.166-1.039-0.348-1.569-0.504c-0.753-0.222-1.523-0.412-2.288-0.613c-0.548-0.145-1.087-0.306-1.641-0.439
		c-0.812-0.197-1.642-0.36-2.467-0.534c-0.521-0.11-1.032-0.236-1.558-0.336c-0.853-0.163-1.723-0.291-2.588-0.429
		c-0.514-0.082-1.018-0.181-1.535-0.254c-0.879-0.124-1.775-0.212-2.668-0.31c-0.519-0.057-1.028-0.132-1.552-0.18
		c-0.924-0.085-1.865-0.134-2.803-0.19c-0.506-0.031-1.002-0.08-1.512-0.103c-0.968-0.042-1.953-0.048-2.936-0.06
		c-0.493-0.006-0.978-0.032-1.475-0.03c-0.94,0.002-1.898,0.043-2.853,0.074c-0.552,0.018-1.096,0.016-1.651,0.043
		c-1.517,0.074-3.049,0.184-4.596,0.33c-5.283,0-10.566,0-15.85,0c-36.626,4.131-53.335,28.183-70.195,52.081
		c-2.266,0-4.526,0-6.792,0c-5.161,0.634-8.508-0.546-9.055-4.529c0.505-4.281-2.556-4.996-2.266-9.058
		c-2.288-4.509-3.914-9.67-9.057-11.322c-4.534-6.791-8.501-14.141-15.851-18.115c-5.309,0-6.646-6.117-11.325-6.791
		c0-0.758,0-1.512,0-2.267c-5.454,0.927-4.919-4.135-11.318-2.264c-6.394-3.419-15.627-3.996-24.905-4.529
		c-32.587-7.697-62.305,3.047-83.785,13.584c-0.756,0-1.508,0-2.265,0c-4.755,6.565-13.829,8.816-15.85,18.115
		c-42.833,46.574-11.387,121.811,24.907,153.979c2.275,3.01,2.144,8.427,6.792,9.058c-4.316,3.229-9.829,5.263-15.849,6.793
		c-3.291,1.238-15.85,4.529-15.85,4.529c-1.919,3.366-14.341,4.529-15.849,4.529c-7.154-0.361-34.6,9.935-40.757,15.851
		c-5.489,3.575-10.015,8.102-13.588,13.59c-9.268,11.859-15.596,26.669-15.851,47.548c0,3.774,0,7.545,0,11.323
		c8.198,49.166,29.61,85.113,81.519,90.577c3.774,0,7.544,0,11.318,0c21.885-1.523,38.858-7.95,58.876-11.329
		c0,0,2.45-0.454,4.485-0.387c0.064,8.384,3.604,13.292,4.573,20.769c5.001,0.283,0.962,9.604,2.259,13.589
		c21.346,45.067,96.108,66.484,149.449,43.022c1.767-6.543,10.956-5.654,15.854-9.058c20.796-13.927,32.095-37.344,36.226-67.936
		c0,0,0,0,2.772,1.225s4.024,3.303,4.024,3.303c3.749,9.081,21.465,4.199,27.173,11.328c0.278,5,9.604,0.962,13.584,2.265
		c50.119,6.784,111.831-23.757,119.902-80.795C568.232,489.166,568.269,474.231,565.03,471.594z"/>
</g>
<g id="Layer_6">
	<path style="fill-rule:evenodd;clip-rule:evenodd;fill:#744812;" d="M275.919,274.225c7.688,0.614,18.359-1.751,22.644,2.264
		c-7.119,23.539,0.701,49.312-9.055,65.667C281.866,317.594,271.183,303.17,275.919,274.225z"/>
	<path style="fill-rule:evenodd;clip-rule:evenodd;fill:#744812;" d="M355.169,305.925c-9.142,11.994-16.461,25.81-27.173,36.23"/>
	<path style="fill-rule:evenodd;clip-rule:evenodd;fill:#744812;" d="M312.146,335.362c2.538-0.478,3.526-2.514,4.531-4.528
		c2.515,7.56-1.65,13.67-6.797,20.379c-2.271-0.006-2.691,1.831-4.526,2.267c-1.24-3.292,2.646-11.704-2.266-11.324
		c0.259-2.762,0.679-5.363,4.531-4.529C308.162,341.1,311.346,337.958,312.146,335.362z"/>
	<path style="fill-rule:evenodd;clip-rule:evenodd;fill:#744812;" d="M348.377,396.499c0.923-4.362,8.779-1.791,6.792-9.057
		c10.469,4,18.315-3.346,27.173,2.264c-2.266,0-4.526,0-6.792,0c0.259,2.765,0.679,5.361,4.526,4.529
		C373.909,397.646,357.83,391.429,348.377,396.499z"/>
	<path style="fill-rule:evenodd;clip-rule:evenodd;fill:#744812;" d="M416.307,412.351c0.01,2.271-1.831,2.695-2.261,4.532
		c-11.411-1.426-17.422-8.248-29.438-9.057C393.581,401.957,410.55,407.475,416.307,412.351z"/>
	<path style="fill-rule:evenodd;clip-rule:evenodd;fill:#744812;" d="M402.723,425.94c-2.271-0.011-2.695,1.831-4.531,2.26
		c-12.153,2.345-12.017-7.606-20.376-9.057c7.764-6.875,15.879,5.156,24.907,4.53C402.723,424.426,402.723,425.183,402.723,425.94z"
		/>
	<path style="fill-rule:evenodd;clip-rule:evenodd;fill:#744812;" d="M380.076,348.946c3.945-0.168,7.046,0.509,9.058,2.267
		c2.813,4.737,6.587,8.511,11.324,11.322c0,2.262,0,4.529,0,6.795c-10.7,8.925-35.499,3.748-49.815,9.055
		C360.594,368.712,368.782,357.276,380.076,348.946z"/>
	<path style="fill-rule:evenodd;clip-rule:evenodd;fill:#744812;" d="M260.066,385.178c5.672-0.385,7.093,3.479,9.06,6.793
		C263.455,392.355,262.034,388.495,260.066,385.178z"/>
	<path style="fill-rule:evenodd;clip-rule:evenodd;fill:#744812;" d="M210.255,389.706c6.032,0,12.075,0,18.115,0"/>
	<path style="fill-rule:evenodd;clip-rule:evenodd;fill:#744812;" d="M253.274,353.479c-0.754,0-1.506,0-2.266,0
		c-1.097,2.671-2.41,5.13-4.526,6.793c-7.546,0-17.311,5.339-22.644,0c-5.338-5.344-7.364-7.73-6.792-15.853
		c3.181-0.59,2.583-4.967,4.531-6.793c5.796-5.135,15.971-0.914,20.376,2.264c-1.059,7.098,5.691,6.382,9.055,9.055
		C251.007,351.219,252.848,351.642,253.274,353.479z"/>
	<path style="fill-rule:evenodd;clip-rule:evenodd;fill:#744812;" d="M343.721,308.298c2.627-1.904,6.069-2.99,11.318-2.267
		c-9.142,11.994-16.461,25.81-27.173,36.23C326.582,333.376,336.45,316.16,343.721,308.298z"/>
	<path style="fill-rule:evenodd;clip-rule:evenodd;fill:#744812;" d="M298.563,276.489c0,0,0.045,0.234,0.119,0.69
		c0.415,2.538,1.742,11.949,1.318,26.112c-0.5,16.708,4.465,30.958,6.357,35.458s5.789-3.388,5.789-3.388s4.467-5.242,5.285-6.302
		s24.51-20.213,26.289-20.762s12.777-2.062,13.153-0.18s-7.13,20.598-8.627,29.615s-0.497,13.938,4.253,15.853s16-2.448,19.25-2.267
		s8.326-2.373,8.326-2.373S389.25,359.25,388,367s-4.066,20.162-5.658,22.706s-2.658,1.543,0,4.793S413,403.824,413,407.912
		c0,0-6.305,18.469-10.277,18.028s-7.225-1.599-3.974,4.605s-135.883-9.614-156.816-14.83c0,0-39.558-11.091-40.308-13.216
		s-2.063-2.813,2.563-7.75s5.813-3.75,6.438-3.625s46.898-4.851,48.637-10.363s-9.379-20.78-12.779-20.49s-17.45-7.416-11.341-8.969
		s23.91,1.986,30.134-0.284s6.75-45.52,5.987-59.02s0-17.813,0-17.813s8.17-0.095,9.329,0s10.093,0.046,10.093,0.046
		L298.563,276.489z"/>
</g>
<g id="Layer_5">
	<g>
		<path style="fill-rule:evenodd;clip-rule:evenodd;fill:#F1DD00;" d="M389.354,457.746c-0.427-0.828-0.886-1.623-1.361-2.402
			c-2.539-11.01-9.119-31.466-17.326-53.535c-11.333-30.475-15.168-50.505-15.168-50.505s-1.554-4.421-4.526-4.529
			s-33.483-3.392-46.895-2.25s-36.822,6.113-40.283,6.794c-1.991,0.392-7.025,1.087-11.026,2.251c-0.476,0-0.95,0-1.43,0
			c-0.074,0.18-0.151,0.355-0.228,0.533c-2.148,0.773-3.724,1.72-3.87,2.876c-0.116,0.918,0.258,1.497,0.956,2.062
			c-0.422,0.479-0.879,0.925-1.384,1.322c6.414,8.45,5.462,10.61,9.06,20.377c0,0.754,0,1.513,0,2.265
			c1.528,0.441,3.776,0.163,4.374,1.536c-0.872,1.168-2.28,2.143-4.374,3.009c-7.539,3.118-50.405,17.384-54.805,19.584
			s-8.708,5.324-8.708,5.324c-0.713,3.063-3.222,4.327-2.268,9.06l6.901,13.568l0.237,1.063c0.433,4.813-7.766,8.797-2.496,10.258
			c1.516-0.584,2.947-1.252,4.342-1.956l2.45,11.014c-4.434,4.234-0.698,8.297,0,13.591c2.271,0.004,2.695-1.838,4.526-2.267
			c0.425-0.854,0.854-1.703,1.392-2.444l7.666,11.501c7.901-1.914,13.316-6.313,15.853-13.588c0,0,4.069,2.279,9.055-6.793
			c5.262-9.573,4.033,0.666,4.769,0.378c0.929,7.925,3.815,13.889,8.817,17.736c1.511,0,3.021,0,4.526,0
			c4.541-11.362,10.681-21.127,16.591-31.121c1.215,0.076,2.337,0.258,3.333,0.568c10.612,3.308,28.104,15.554,36.228,26.776
			c0.38,0.524,0.885,0.993,1.501,1.411c4.518,8.755,11.65,14.897,17.073,22.743c0.053-6.874-0.906-13.458-2.567-19.883
			c4.21,0.064,8.926-0.188,13.809-0.657c0.028,0.054,0.055,0.109,0.083,0.162c-1.357,4.034,6.635,9.405,0,11.32
			c0.879,5.913,1.162,12.427,4.526,15.854c7.52-7.642,7.096-4.728,18.115-2.271c1.88-5.659,6.201-8.888,6.792-15.844
			c-2.508-3.8-5.062-8.058-7.721-12.438c4.688-0.908,9.015-1.887,12.631-2.832c2.084,2.849,4.179,5.686,6.304,8.492
			C392.65,482.278,392.772,463.36,389.354,457.746z M242.712,451.149c-0.133-0.124-0.215-0.196-0.215-0.196s0.185-0.083,0.503-0.222
			C242.902,450.869,242.808,451.011,242.712,451.149z"/>
		<path style="fill-rule:evenodd;clip-rule:evenodd;fill:#F1DD00;" d="M255.872,383.004"/>
	</g>
</g>
<g id="Layer_4">
	<path style="fill-rule:evenodd;clip-rule:evenodd;fill:#9E3A00;" d="M201.233,469.07c2.271,0.004,2.695-1.838,4.526-2.267
		c0.352,5.63-3.555,7.007-4.526,11.323c-0.756,0-1.508,0-2.266,0c1.943,7.221-3.564,7.001-4.526,11.317
		c1.133,9.438-6.621,9.991-4.533,20.382C172.425,498.898,198.382,481.369,201.233,469.07z"/>
	<path style="fill-rule:evenodd;clip-rule:evenodd;fill:#9E3A00;" d="M416.344,412.457c33.696-1.299,40.698,29.771,74.727,33.965
		c1.87-6.401-3.193-5.864-2.266-11.321c-29.697-18.604-55.64-40.973-104.16-40.759c-1.509,0-3.018,0-4.531,0
		c-0.154,0.085-0.336,0.145-0.503,0.219c-0.165-0.043-0.276-0.061-0.276-0.061s-13.167-10.833-20.667-10s-1.486-1.831-5.333-3.773
		c-0.451-0.228-1.317-1.082-2.487-2.401c9.875-9.637,18.036-20.99,29.267-29.273c12.061-12.093,29.019-19.289,43.027-29.434
		c1.645-6.179-4.502-4.56-4.531-9.058c-15.606,9.303-35.747,14.066-45.288,29.437c-4.79,2.757-6.572,8.52-13.584,9.055
		c-1.837,0.434-2.256,2.273-4.531,2.267c-1.293,6.926-6.25,13.111-11.77,17.859c-2.069-2.673-4.314-5.63-6.603-8.678
		c2.841-5.431,6.359-9.881,13.846-13.71c20.972-28.09,47.637-50.483,79.253-67.933c2.07-3.967,4.209-7.866,11.324-6.791
		c3.965-2.07,7.865-4.208,6.791-11.322c-24.752-1.338-44.225,22.188-63.403,33.965c6.362-10.245,11.836-21.374,24.907-24.908
		c-1.567-4.471-6.04-6.037-11.323-6.793c-22.437,10.716-24.243,28.362-43.022,43.023c-9.142,11.994-16.461,25.81-27.173,36.23
		c-1.284-8.885,8.584-26.102,15.854-33.963c-9.049,2.28,3.838-26.235,11.318-29.441c-4.692-2.667,3.711-11.205,4.531-15.849
		c0-2.264,0-4.528,0-6.793c-28.833,13.436-26.998,57.54-47.554,79.252c1.138-0.214,1.954-0.751,2.61-1.45
		c-0.386,0.761-0.84,1.601-1.294,2.315c-1.064,1.673-9.701,8.893-20.863,11.851l-4.294-9.626
		c-7.498-22.372-16.88-36.769-12.387-64.227c-0.755,0-1.51,0-2.262,0c-2.448-9.208,1.793-18.412-9.057-22.646
		c-6.299,4.303-2.002,32.426,0,43.025c5.645,4.029,1.322,28.017-2.267,11.322c-19.265-30.556-35.492-64.141-67.93-81.517
		c-3.076,0.701-1.879,5.67-2.266,9.058c29.4,29.171,47.657,56.684,67.928,92.839c3.262,1.267,5.53,3.531,6.792,6.793
		c2.971,0.033,2.886,6.282,0,6.793c0.679-4.451-3.054-4.491-4.524-6.793c-0.204-3.569-5.778-1.773-4.533-6.793
		c-24.541-22.153-48.44-52.229-83.777-56.609c-0.723,5.25,0.362,8.692,2.263,11.322c28.088,5.88,38.669,29.264,61.138,40.758
		c2.165,3.874,7.518,4.562,9.058,9.058c3.933,6.631,9.217,11.917,15.852,15.85c0,0.756,0,1.508,0,2.262c0,0.759,0,1.513,0,2.267
		c0.171,0.307,0.369,0.588,0.577,0.859c1.282,1.896,4.419,6.441,6.178,8.2c2.246,2.247,9.208,5.122,10.041,7.955
		s10.11,12.965,7.359,20.347s-6.039,7.925-6.039,7.925S265,398,256.5,394.34s-28.093-4.527-28.093-4.527
		c-7.52,4.56-20.762,3.395-27.174,9.058c-29.468,13.557-61.684,24.364-72.46,56.609c17.124-6.455,36.548-29.735,58.872-38.49
		c0.479-2.545,2.514-3.526,4.531-4.532c5.426-1.371,10.33-3.256,18.116-2.265c8.842-5.986,17.927-11.081,27.17-6.793
		c-8.416,3.661-20.867,3.286-27.17,9.058c-4.031,5.786-12.354,7.271-20.384,9.06c-0.125,1.38-0.335,2.68-2.263,2.264
		c-24.248,15.754-44.688,35.319-54.341,65.664c3.94,0.171,7.042-0.502,9.059-2.26c4.594-5.221,8.12-11.505,13.584-15.854
		c2.846-0.929,4.628-2.921,4.525-6.793c2.813-4.737,6.587-8.51,11.324-11.322c8.276-6.065,12.158-16.524,24.905-18.114
		c12.397-2.906,25.103-26.403,38.498-13.584c-16.423,5.468-24.961,18.817-40.757,24.905c-9.687,8.428-17.9,18.336-24.911,29.438
		c1.767,0.498,0.522,2.521,2.265,4.527c2.476,2.85,7.548,0,11.321,0c0.505-13.082,13.2-13.976,15.852-24.908c0.757,0,1.51,0,2.266,0
		c6.738-0.805,11.49-3.603,15.851-6.791c-0.714,3.061-3.224,4.325-2.267,9.058c3.994-2.046,7.01-5.064,9.059-9.058
		c-9.352,2.421-7.018-5.626,0-4.531c0-0.752,0-1.51,0-2.262c8.952-0.385-0.726,3.476,4.531,6.793c3.257-3.54,5.7-7.881,11.318-9.058
		c-0.433-2.569-2.273-1.26-2.264,0c-0.754,0-1.507,0-2.264,0c-9.433,0.624,1.937-9.683,6.793-9.058c1.968-3.316,5.072-3.232,4.528,0
		c7.813-6.999,18.542-11.079,25.716-18.719c5.877,2.484,10.747,4.146,13.265,4.146c0.955,0,1.771,0.027,2.475,0.078
		c-0.188,0.316-0.416,0.621-0.696,0.911c-7.858,20.824-21.252,36.113-29.44,56.604c-6.341,25.656-18.804,39.143-13.584,67.932
		c16.795-14.429,14.554-52.691,29.44-74.722c-0.417-4.942,1.852-7.207,6.793-6.793c-0.342-5.624,1.164-9.398,4.526-11.322
		c-5.452,24.263-15.516,51.289-11.319,72.46c0,3.774,0,7.544,0,11.319c-2.811,15.718,0.354,35.053,2.262,56.611
		c8.53,0.981,10.313-4.786,13.588-9.058c-13.889-43.242-3.168-75.554,4.527-124.542c2.092-3.945-0.081-12.153,6.794-11.322
		c0.503,4.281-2.551,5-2.266,9.058c13.638,39.907-6.108,94.701,11.318,131.333c8.276-26.295,4.966-48.169,4.531-72.457
		c-3.716,0.367-3.716-13.96,0-13.593c3.672-11.578-3.506-15.172,0-29.428c1.519-14.011-8.496-17.052-6.792-36.232
		c-2.744,0.694-7.805-6.543-2.266-6.791c3.262,1.266,5.527,3.529,6.792,6.791c10.449,20.249,20.547,39.22,20.38,61.134
		c4.023,15.132,2.467,30.239,6.792,43.026c1.51,0,3.019,0,4.532,0c0.381-2.636,3.579-2.465,6.792-2.267c0-1.512,0-3.016,0-4.523
		c-1.905-8.664-2.959-18.18-2.266-29.439c-3.364-3.428-3.647-9.941-4.526-15.854c2.944-5.621-6.646-9.396,0-11.32
		c-6.808-12.82-10.879-28.368-18.116-40.756c-0.103-0.21-0.228-0.398-0.342-0.597c0.685-2.092,1.108-4.918,1.57-8.241
		c0.444-3.198,2.865-4.929,6.334-5.864c1.107,0.518,1.793,1.457,1.496,3.381c5.62-0.343,9.396,1.169,11.319,4.53
		c16.112,8.795,34.545,15.267,43.021,31.699c7.085,6.499,12.129,15.039,20.381,20.381c7.935-11.792-2.891-24.22-11.323-27.174
		c16.953-3.921,31.333,33.433,52.08,40.758c2.944-3.009,2.988-8.429-2.261-9.057c-3.247-2.793-4.292-7.789-4.531-13.584
		c-0.249-4.279-7.485-1.575-6.792-6.798c-2.954-5.347-14.375-2.227-13.584-11.319c-3.647-12.207-22.9-8.804-24.912-22.646
		c-12.153,2.345-12.017-7.606-20.376-9.057c7.764-6.875,15.879,5.156,24.907,4.53c0,0.752,0,1.509,0,2.267
		c14.882,10.02,36.339,13.472,47.549,27.168c11.128-12.173-11.67-22.75-22.642-27.168c-0.85-5.191-9.058-3.022-11.323-6.797
		c-1.924,0.42-2.134-0.885-2.261-2.261c-11.411-1.426-17.422-8.248-29.438-9.057C393.618,402.063,410.587,407.581,416.344,412.457z
		 M316.715,330.94c0.346,1.04,0.555,2.049,0.662,3.039c-0.604-0.837-1.047-1.455-1.299-1.806
		C316.298,331.77,316.508,331.355,316.715,330.94z"/>
</g>
<g id="Layer_1">
	<g>
		<g>
			<path style="fill-rule:evenodd;clip-rule:evenodd;fill:#744812;" d="M275.789,274.331c7.688,0.614,18.359-1.751,22.644,2.264
				c-7.119,23.539,0.701,49.312-9.055,65.667C281.736,317.701,271.053,303.276,275.789,274.331z"/>
			<path style="fill-rule:evenodd;clip-rule:evenodd;fill:#744812;" d="M343.721,308.298c2.627-1.904,6.069-2.99,11.318-2.267
				c-9.142,11.994-16.461,25.81-27.173,36.23C326.582,333.376,336.45,316.16,343.721,308.298z"/>
			<path style="fill-rule:evenodd;clip-rule:evenodd;fill:#744812;" d="M312.017,335.468c2.538-0.478,3.526-2.514,4.531-4.528
				c2.515,7.56-1.65,13.67-6.797,20.379c-2.271-0.006-2.691,1.831-4.526,2.267c-1.24-3.292,2.646-11.704-2.266-11.324
				c0.259-2.762,0.679-5.363,4.531-4.529C308.032,341.207,311.216,338.064,312.017,335.468z"/>
			<path style="fill-rule:evenodd;clip-rule:evenodd;fill:#744812;" d="M348.247,396.606c0.923-4.363,8.779-1.791,6.792-9.057
				c10.469,4,18.315-3.346,27.173,2.264c-2.266,0-4.526,0-6.792,0c0.259,2.764,0.679,5.36,4.526,4.529
				C373.779,397.751,357.7,391.536,348.247,396.606z"/>
			<path style="fill-rule:evenodd;clip-rule:evenodd;fill:#744812;" d="M416.177,412.457c0.01,2.271-1.831,2.695-2.261,4.532
				c-11.411-1.426-17.422-8.248-29.438-9.057C393.451,402.063,410.42,407.581,416.177,412.457z"/>
			<path style="fill-rule:evenodd;clip-rule:evenodd;fill:#744812;" d="M402.593,426.047c-2.271-0.011-2.695,1.831-4.531,2.26
				c-12.153,2.345-12.017-7.606-20.376-9.057c7.764-6.875,15.879,5.156,24.907,4.53
				C402.593,424.532,402.593,425.289,402.593,426.047z"/>
			<path style="fill-rule:evenodd;clip-rule:evenodd;fill:#B95D02;" d="M273.528,532.468c-3.704,1.02-3.704-12.339,0-11.319
				C273.528,524.923,273.528,528.692,273.528,532.468z"/>
			<path style="fill-rule:evenodd;clip-rule:evenodd;fill:#B95D02;" d="M262.204,306.032c4.91,0.383,1.026-8.031,2.267-11.322
				C270.115,298.739,265.793,322.727,262.204,306.032z"/>
			<path style="fill-rule:evenodd;clip-rule:evenodd;fill:#A94B01;" d="M237.295,321.882c2.165,3.874,7.518,4.562,9.058,9.058
				C242.99,328.264,236.238,328.98,237.295,321.882z"/>
			<path style="fill-rule:evenodd;clip-rule:evenodd;fill:#D37000;" d="M241.824,339.997c1.928,0.414,2.136-0.882,2.263-2.264
				c2.542,0.478,3.528,2.512,4.529,4.529c-3.169,0.8-0.196,3.987,2.263,4.528c0,0.756,0,1.508,0,2.262
				C247.515,346.379,240.765,347.095,241.824,339.997z"/>
			<path style="fill-rule:evenodd;clip-rule:evenodd;fill:#B95D02;" d="M232.766,330.94c6.536-6.57,5.356,6.138,11.321,6.793
				c-0.127,1.382-0.335,2.678-2.263,2.264c-4.405-3.178-14.58-7.399-20.376-2.264c-0.974-6.253,8.435-2.125,9.055-6.793
				C231.255,330.94,232.015,330.94,232.766,330.94z"/>
			<path style="fill-rule:evenodd;clip-rule:evenodd;fill:#D37000;" d="M194.274,310.561c0.777,6.013,5.943,7.642,11.318,9.058
				c0.992,2.784,2.901,4.65,6.798,4.528c0,0.754,0,1.508,0,2.265c-8.487-2.152-22.081-11.039-20.382-15.851
				C192.761,310.561,193.518,310.561,194.274,310.561z"/>
			<path style="fill-rule:evenodd;clip-rule:evenodd;fill:#C9780C;" d="M350.513,378.491c14.316-5.307,39.115-0.13,49.815-9.055
				c8.412,7.905,59.418,5.513,70.194,13.584c4.042,2.749,13.174,0.414,15.85,4.529c-31.855,9.619-66.948-6.033-104.16,2.264
				c-8.857-5.61-16.704,1.736-27.173-2.264c1.987,7.266-5.869,4.694-6.792,9.057c-7.617-1.577-7.422,4.655-11.323,6.793
				c-2.632-0.369-4.028,0.499-4.527,2.267c-3.769,0.457-19.696,6.211-6.792,9.057c0.616,4.669,10.025,0.538,9.059,6.794
				c-5.181,1.762,7.056,4.754,11.319,4.53c14.164,15.267,25.81,33.062,38.495,49.813c12.617,20.597,25.678,52.809,22.642,81.52
				c-1.924-0.42-2.134,0.873-2.261,2.256c-2.974-0.797-3.564-3.98-6.797-4.527c-3.008-21.962-9.604-52.528-24.907-72.454
				c-12.31-18.648-25.674-48.277-47.55-49.816c-3.227-6.587-12.129-7.494-18.114-11.321c0.322-9.489,9.516-10.104,6.792-22.646
				C331.792,397.511,335.034,381.881,350.513,378.491z"/>
			<path style="fill-rule:evenodd;clip-rule:evenodd;fill:#C9780C;" d="M389.004,351.319c4.736,2.813,8.511,6.585,11.324,11.322
				C395.591,359.83,391.816,356.056,389.004,351.319z"/>
			<path style="fill-rule:evenodd;clip-rule:evenodd;fill:#D37000;" d="M359.57,349.052c4.79-2.755,6.572-8.518,13.584-9.055
				C368.364,342.754,366.582,348.517,359.57,349.052z"/>
			<path style="fill-rule:evenodd;clip-rule:evenodd;fill:#B95D02;" d="M429.766,278.857c2.07-3.967,4.209-7.866,11.324-6.791
				C438.319,275.337,432.446,275.5,429.766,278.857z"/>
			<path style="fill-rule:evenodd;clip-rule:evenodd;fill:#A94B01;" d="M355.039,278.857c-4.692-2.667,3.711-11.205,4.531-15.849
				C362.163,272.398,354.805,271.832,355.039,278.857z"/>
			<path style="fill-rule:evenodd;clip-rule:evenodd;fill:#F1DD00;" d="M355.039,351.319c-2.617,14.018-20.234,25.007-27.173,27.172
				c8.521-14.617,8.198-24.311,22.646-31.701C353.052,347.268,354.038,349.302,355.039,351.319z"/>
			<path style="fill-rule:evenodd;clip-rule:evenodd;fill:#744812;" d="M379.946,349.052c3.945-0.168,7.046,0.509,9.058,2.267
				c2.813,4.737,6.587,8.511,11.324,11.322c0,2.262,0,4.529,0,6.795c-10.7,8.925-35.499,3.748-49.815,9.055
				C360.464,368.819,368.652,357.382,379.946,349.052z"/>
			<path style="fill-rule:evenodd;clip-rule:evenodd;fill:#DBAA02;" d="M343.721,484.914c2.944-5.621-6.646-9.396,0-11.32
				C342.363,477.628,350.355,482.999,343.721,484.914z"/>
			<path style="fill-rule:evenodd;clip-rule:evenodd;fill:#B95D02;" d="M350.513,530.208c6.113,2.025-1.055,9.183-6.792,6.79
				c0.381-2.636,3.579-2.465,6.792-2.267C350.513,533.22,350.513,531.716,350.513,530.208z"/>
			<path style="fill-rule:evenodd;clip-rule:evenodd;fill:#A94B01;" d="M307.49,432.838c-2.744,0.694-7.805-6.543-2.266-6.791
				c3.262,1.266,5.527,3.529,6.792,6.791C310,431.447,307.969,430.099,307.49,432.838z"/>
			<path style="fill-rule:evenodd;clip-rule:evenodd;fill:#B95D02;" d="M280.32,369.436c4.587,7.642,15.183,20.875,2.266,27.17
				c5.303-12.368-4.131-14.804-4.531-27.17C278.809,369.436,279.561,369.436,280.32,369.436z"/>
			<path style="fill-rule:evenodd;clip-rule:evenodd;fill:#B95D02;" d="M262.204,351.319c2.164,3.876,7.513,4.56,9.059,9.06
				c0,0.752,0,1.506,0,2.262c-4.502-0.031-2.884-6.178-9.059-4.531C259.485,355.138,261.318,354.552,262.204,351.319z"/>
			<path style="fill-rule:evenodd;clip-rule:evenodd;fill:#B95D02;" d="M262.204,333.204c1.507,0,3.019,0,4.524,0
				c2.971,0.033,2.886,6.282,0,6.793C267.407,335.546,263.675,335.506,262.204,333.204z"/>
			<path style="fill-rule:evenodd;clip-rule:evenodd;fill:#B95D02;" d="M205.593,319.618c3.387,2.651,9.263,2.815,11.324,6.793
				c-1.509,0-3.019,0-4.526,0c0-0.756,0-1.51,0-2.265C208.494,324.268,206.584,322.402,205.593,319.618z"/>
			<path style="fill-rule:evenodd;clip-rule:evenodd;fill:#A94B01;" d="M205.593,319.618c-5.375-1.416-10.541-3.045-11.318-9.058
				c12.706,6.915,30.128,9.124,38.492,20.379c-0.751,0-1.511,0-2.263,0c-5.291-0.746-9.353-2.722-13.586-4.529
				C214.856,322.433,208.979,322.269,205.593,319.618z"/>
			<path style="fill-rule:evenodd;clip-rule:evenodd;fill:#B95D02;" d="M250.879,349.052c0-0.754,0-1.506,0-2.262
				c-2.459-0.542-5.432-3.728-2.263-4.528c4.619,0.666,4.443,6.129,9.055,6.791c1.396,2.017,2.742,4.051,0,4.533
				c-1.506,0-3.015,0-4.526,0C252.718,351.748,250.877,351.326,250.879,349.052z"/>
			<path style="fill-rule:evenodd;clip-rule:evenodd;fill:#DBAA02;" d="M257.671,353.585c2.742-0.482,1.396-2.517,0-4.533
				c1.514,0,3.025,0,4.533,0c0,0.759,0,1.513,0,2.267c-0.886,3.233-2.719,3.819,0,6.791
				C260.188,357.108,258.152,356.124,257.671,353.585z"/>
			<path style="fill-rule:evenodd;clip-rule:evenodd;fill:#F1DD00;" d="M262.204,358.11c6.175-1.647,4.556,4.5,9.059,4.531
				c2.209,2.315,4.475,4.582,6.792,6.795c0.4,12.366,9.833,14.802,4.531,27.17c-0.76,0-1.514,0-2.266,0
				c-7.216,1.935-8.596-1.972-11.324-4.529c-1.967-3.314-3.388-7.178-9.06-6.793c-0.061-2.202-2.769-1.758-4.524-2.264
				c0-0.752,0-1.51,0-2.265c-3.598-9.767-2.646-11.927-9.06-20.377c2.116-1.663,3.43-4.122,4.526-6.793c0.76,0,1.511,0,2.266,0
				c1.511,0,3.021,0,4.526,0C258.152,356.124,260.188,357.108,262.204,358.11z"/>
			<path style="fill-rule:evenodd;clip-rule:evenodd;fill:#B95D02;" d="M268.996,392.077c-1.874,11.137-9.028-6.101-15.852-4.528
				c0.432-1.835,2.273-2.256,2.268-4.529c1.756,0.506,4.463,0.062,4.524,2.264C261.904,388.601,263.325,392.462,268.996,392.077z"/>
			<path style="fill-rule:evenodd;clip-rule:evenodd;fill:#F1DD00;" d="M239.558,455.479c10.205-18.479,30.525-26.836,47.554-38.49
				c-7.859,20.824-21.252,36.113-29.441,56.604c-1.506,0-3.015,0-4.526,0c-5.545-4.265-8.498-11.122-9.058-20.379
				c-1.924-0.416-2.136,0.883-2.263,2.265C241.072,455.479,240.314,455.479,239.558,455.479z"/>
			<path style="fill-rule:evenodd;clip-rule:evenodd;fill:#F1DD00;" d="M214.65,475.86c4.576-5.238,7.525-12.1,15.853-13.588
				C227.967,469.548,222.551,473.946,214.65,475.86z"/>
			<path style="fill-rule:evenodd;clip-rule:evenodd;fill:#A94B01;" d="M194.274,489.444c0.962-4.316,6.47-4.097,4.526-11.317
				c0.757,0,1.509,0,2.266,0c0,3.017,0,6.035,0,9.058C197.41,486.544,197.166,489.323,194.274,489.444z"/>
			<path style="fill-rule:evenodd;clip-rule:evenodd;fill:#C9780C;" d="M223.709,448.688c0-1.511,0-3.019,0-4.531
				c0-0.752,0-1.51,0-2.262c8.952-0.385-0.726,3.476,4.531,6.793c3.257-3.54,5.701-7.881,11.318-9.058
				c-0.432-2.569-2.273-1.26-2.263,0c-0.754,0-1.507,0-2.263,0c0.665-4.619,6.127-4.438,6.792-9.058
				c1.968-3.316,3.389-7.178,9.055-6.793c-0.798,2.975-3.982,3.561-4.526,6.793c8.362-7.491,20.066-11.636,27.175-20.381
				c-14.58-7.313-30.219-13.562-45.288-20.379c-6.04,0-12.083,0-18.115,0c-1.265-15.01-41.773-18.65-58.878-18.115
				c-4.648-0.63-4.517-6.048-6.792-9.058c40.133-4.173,72.876,11.185,110.957,18.115c0,0.754,0,1.513,0,2.265
				c0.005,2.273-1.835,2.693-2.268,4.529c6.824-1.572,13.978,15.665,15.852,4.528c2.728,2.557,4.107,6.464,11.324,4.529
				c1.826,5.832,11.721,15.3,6.792,20.383c-17.029,11.654-37.349,20.011-47.554,38.49c-7.266-1.981-4.692,5.875-9.055,6.793
				c-8.328,1.488-11.276,8.35-15.853,13.588c-11.768,25.304-18.71,45.81-25.543,77.959c-1.507,0-2.251,0.27-3.76,0.27
				c-6.509-11.942-3.987-34.796,4.395-44.263c-2.087-10.391,5.667-10.943,4.533-20.382c2.891-0.121,3.136-2.9,6.792-2.26
				c0-3.022,0-6.041,0-9.058c0.972-4.316,4.878-5.693,4.526-11.323c1.004-2.017,1.99-4.054,4.532-4.531
				c0.971,6.269,7.118,0.117,4.525-4.526C218.645,455.7,221.66,452.682,223.709,448.688z"/>
			<path style="fill-rule:evenodd;clip-rule:evenodd;fill:#A94B01;" d="M271.263,362.641c0-0.756,0-1.51,0-2.262
				c5.258,0.776,10.607,1.462,9.057,9.058c-0.759,0-1.511,0-2.265,0C275.737,367.223,273.472,364.956,271.263,362.641z"/>
			<path style="fill-rule:evenodd;clip-rule:evenodd;fill:#D37000;" d="M142.195,487.185c4.594-5.221,8.12-11.505,13.584-15.854
				C152.966,478.331,148.303,483.483,142.195,487.185z"/>
			<path style="fill-rule:evenodd;clip-rule:evenodd;fill:#D37000;" d="M160.305,464.537c2.813-4.737,6.587-8.51,11.324-11.322
				C168.816,457.951,165.047,461.724,160.305,464.537z"/>
			<path style="fill-rule:evenodd;clip-rule:evenodd;fill:#B95D02;" d="M336.924,403.399c3.901-2.139,3.706-8.37,11.323-6.793
				C344.849,399.249,342.71,403.147,336.924,403.399z"/>
			<path style="fill-rule:evenodd;clip-rule:evenodd;fill:#B95D02;" d="M325.604,414.723c-12.904-2.846,3.023-8.6,6.792-9.057
				c-0.546,3.984-3.896,5.161-9.057,4.526C323.77,412.027,325.61,412.452,325.604,414.723z"/>
			<path style="fill-rule:evenodd;clip-rule:evenodd;fill:#744812;" d="M259.937,385.284c5.672-0.385,7.093,3.479,9.06,6.793
				C263.325,392.462,261.904,388.601,259.937,385.284z"/>
			<path style="fill-rule:evenodd;clip-rule:evenodd;fill:#B95D02;" d="M443.35,469.07c3.247,2.786,4.292,7.781,4.531,13.584
				C444.634,479.861,443.589,474.865,443.35,469.07z"/>
			<path style="fill-rule:evenodd;clip-rule:evenodd;fill:#A94B01;" d="M422.974,450.953c2.734,5.562,12.207,4.396,13.584,11.319
				C433.604,456.926,422.183,460.046,422.974,450.953z"/>
			<path style="fill-rule:evenodd;clip-rule:evenodd;fill:#B95D02;" d="M416.177,419.25c6.485-0.445,12.358-0.279,11.323,6.797
				C426.65,420.855,418.442,423.024,416.177,419.25z"/>
			<path style="fill-rule:evenodd;clip-rule:evenodd;fill:#744812;" d="M201.066,398.871c2.046-3.992,5.062-7.012,9.059-9.058
				c6.032,0,12.075,0,18.115,0C220.72,394.373,207.478,393.208,201.066,398.871z"/>
			<path style="fill-rule:evenodd;clip-rule:evenodd;fill:#F1DD00;" d="M201.066,455.479c6.739-0.805,11.49-3.603,15.851-6.791
				c-0.713,3.061-3.223,4.325-2.267,9.058c-2.016,1.002-4.048,1.988-4.525,4.526c-2.542,0.478-3.528,2.515-4.532,4.531
				c-1.831,0.429-2.255,2.271-4.526,2.267C200.369,463.776,196.633,459.714,201.066,455.479z"/>
			<path style="fill-rule:evenodd;clip-rule:evenodd;fill:#F1DD00;" d="M210.125,412.457c-4.031,5.786-12.354,7.271-20.384,9.06
				c-0.954-4.732,1.555-5.997,2.268-9.06c5.426-1.371,10.33-3.256,18.116-2.265C210.125,410.948,210.125,411.7,210.125,412.457z"/>
			<path style="fill-rule:evenodd;clip-rule:evenodd;fill:#DBAA02;" d="M210.125,410.192c8.842-5.986,17.927-11.081,27.17-6.793
				c-8.416,3.661-20.867,3.286-27.17,9.058C210.125,411.7,210.125,410.948,210.125,410.192z"/>
			<path style="fill-rule:evenodd;clip-rule:evenodd;fill:#DBAA02;" d="M187.478,416.989c0.479-2.545,2.514-3.526,4.531-4.532
				c-0.713,3.063-3.222,4.327-2.268,9.06c-0.125,1.38-0.335,2.68-2.263,2.264C187.478,421.517,187.478,419.25,187.478,416.989z"/>
			<path style="fill-rule:evenodd;clip-rule:evenodd;fill:#DBAA02;" d="M334.663,421.517c5.62-0.343,9.396,1.169,11.319,4.53
				C341.719,426.271,329.482,423.278,334.663,421.517z"/>
			<path style="fill-rule:evenodd;clip-rule:evenodd;fill:#F1DD00;" d="M384.478,475.86c-12.686-16.752-24.331-34.547-38.495-49.813
				c16.112,8.795,34.545,15.267,43.021,31.699C392.422,463.36,392.3,482.278,384.478,475.86z"/>
			<path style="fill-rule:evenodd;clip-rule:evenodd;fill:#F1DD00;" d="M307.49,432.838c0.479-2.739,2.51-1.391,4.526,0
				c10.449,20.249,20.547,39.22,20.38,61.134c-5.858-8.477-13.72-14.958-18.114-24.901
				C315.801,455.06,305.786,452.019,307.49,432.838z"/>
			<path style="fill-rule:evenodd;clip-rule:evenodd;fill:#F1DD00;" d="M325.604,432.838c21.876,1.539,35.24,31.168,47.55,49.816
				c-0.591,6.956-4.912,10.185-6.792,15.844c-11.02-2.457-10.596-5.371-18.115,2.271c-3.364-3.428-3.647-9.941-4.526-15.854
				c6.635-1.915-1.357-7.286,0-11.32C336.913,460.773,332.842,445.226,325.604,432.838z"/>
			<path style="fill-rule:evenodd;clip-rule:evenodd;fill:#F1DD00;" d="M223.709,448.688c-9.352,2.421-7.018-5.626,0-4.531
				C223.709,445.67,223.709,447.178,223.709,448.688z"/>
			<path style="fill-rule:evenodd;clip-rule:evenodd;fill:#B95D02;" d="M293.904,455.479c2.092-3.945-0.081-12.153,6.794-11.322
				c0.503,4.281-2.551,5-2.266,9.058C296.6,453.648,296.179,455.49,293.904,455.479z"/>
			<path style="fill-rule:evenodd;clip-rule:evenodd;fill:#DBAA02;" d="M273.528,466.804c-0.417-4.942,1.851-7.207,6.792-6.793
				C279.051,463.271,276.782,465.534,273.528,466.804z"/>
			<path style="fill-rule:evenodd;clip-rule:evenodd;fill:#9E3A00;" d="M201.066,469.07c2.271,0.004,2.695-1.838,4.526-2.267
				c0.352,5.63-3.555,7.007-4.526,11.323c-0.756,0-1.508,0-2.266,0c1.944,7.221-3.564,7.001-4.526,11.317
				c1.133,9.438-6.621,9.991-4.533,20.382C172.258,498.898,198.215,481.369,201.066,469.07z"/>
			<path style="fill-rule:evenodd;clip-rule:evenodd;fill:#D37000;" d="M262.204,333.204c-0.205-3.569-5.778-1.773-4.533-6.793
				c0.76,0,1.514,0,2.266,0c3.262,1.267,5.53,3.531,6.792,6.793C265.223,333.204,263.711,333.204,262.204,333.204z"/>
			<path style="fill-rule:evenodd;clip-rule:evenodd;fill:#A94B01;" d="M302.959,342.262c4.912-0.38,1.025,8.031,2.266,11.324
				c-0.758,0-1.509,0-2.266,0C302.959,349.811,302.959,346.036,302.959,342.262z"/>
			<path style="fill-rule:evenodd;clip-rule:evenodd;fill:#C9780C;" d="M302.959,371.698c-0.386,3.388,0.811,8.356-2.261,9.057
				c-17.129,0.52-5.144-28.065-11.321-38.494c9.756-16.355,1.936-42.127,9.055-65.667c3.638-9.946,3.118-24.054,4.526-36.23
				c-0.005-2.271,1.836-2.693,2.266-4.528c2.266,0,4.526,0,6.792,0c5.669-0.281,7.09-4.323,9.058,2.264
				c-11.138,30.069-14.36,63.703-13.584,99.632c-3.853-0.834-4.272,1.767-4.531,4.529c0,3.774,0,7.549,0,11.324
				C302.959,359.622,302.959,365.659,302.959,371.698z"/>
			<path style="fill-rule:evenodd;clip-rule:evenodd;fill:#744812;" d="M253.145,353.585c-0.754,0-1.506,0-2.266,0
				c-1.097,2.671-2.41,5.13-4.526,6.793c-7.546,0-17.311,5.339-22.644,0c-5.338-5.344-7.364-7.73-6.792-15.853
				c3.181-0.59,2.583-4.967,4.531-6.793c5.796-5.135,15.971-0.914,20.376,2.264c-1.059,7.098,5.691,6.382,9.055,9.055
				C250.877,351.326,252.718,351.748,253.145,353.585z"/>
			<path style="fill-rule:evenodd;clip-rule:evenodd;fill:#EC9D33;" d="M490.903,387.549c5.801,0.239,10.796,1.282,13.584,4.528
				C499.819,390.707,488.759,395.735,490.903,387.549z"/>
			<path style="fill-rule:evenodd;clip-rule:evenodd;fill:#B95D02;" d="M379.946,394.342c-3.848,0.832-4.268-1.765-4.526-4.529
				c2.266,0,4.526,0,6.792,0c-0.005,2.273,1.836,2.696,2.266,4.529C382.969,394.342,381.46,394.342,379.946,394.342z"/>
			<path style="fill-rule:evenodd;clip-rule:evenodd;fill:#F1DD00;" d="M196.533,435.101c12.397-2.906,25.103-26.403,38.499-13.584
				c-16.423,5.468-24.961,18.817-40.757,24.905C188.62,444.854,198.474,440.383,196.533,435.101z"/>
			<path style="fill-rule:evenodd;clip-rule:evenodd;fill:#DBAA02;" d="M235.032,439.631c-9.433,0.624,1.936-9.683,6.792-9.058
				C241.159,435.193,235.696,435.012,235.032,439.631z"/>
			<path style="fill-rule:evenodd;clip-rule:evenodd;fill:#A94B01;" d="M210.125,462.272c0.478-2.538,2.51-3.524,4.525-4.526
				C217.243,462.39,211.096,468.541,210.125,462.272z"/>
			<path style="fill-rule:evenodd;clip-rule:evenodd;fill:#A94B01;" d="M314.282,512.091c-3.716,0.367-3.716-13.96,0-13.593
				C314.282,503.033,314.282,507.555,314.282,512.091z"/>
			<path style="fill-rule:evenodd;clip-rule:evenodd;fill:#F1DD00;" d="M305.225,353.585c1.835-0.436,2.256-2.273,4.526-2.267
				c0.073,9.126-0.65,17.465-6.792,20.379c0-6.039,0-12.076,0-18.113C303.716,353.585,304.467,353.585,305.225,353.585z"/>
			<path style="fill-rule:evenodd;clip-rule:evenodd;fill:#F1DD00;" d="M298.433,394.342c0.214,0.67,9.067,11.968,11.318,18.115
				C298.816,413.587,298.237,404.346,298.433,394.342z"/>
		</g>
	</g>
	<path style="fill-rule:evenodd;clip-rule:evenodd;fill:#F1DD00;" d="M355.148,351.303c-2.617,14.018-20.234,25.007-27.173,27.172
		c8.521-14.617,8.198-24.311,22.646-31.701C353.161,347.252,354.147,349.287,355.148,351.303z"/>
	<path style="fill-rule:evenodd;clip-rule:evenodd;fill:#F1DD00;" d="M262.313,358.094c6.175-1.647,4.556,4.5,9.059,4.531
		c2.209,2.315,4.475,4.582,6.792,6.795c0.4,12.366,9.834,14.802,4.531,27.17c-0.76,0-1.514,0-2.266,0
		c-7.216,1.935-8.596-1.972-11.324-4.529c-1.967-3.314-3.388-7.178-9.06-6.793c-0.061-2.202-2.769-1.758-4.524-2.264
		c0-0.752,0-1.51,0-2.265c-3.598-9.767-2.646-11.927-9.06-20.377c2.116-1.663,3.43-4.122,4.526-6.793c0.76,0,1.511,0,2.266,0
		c1.511,0,3.021,0,4.526,0C258.261,356.108,260.298,357.092,262.313,358.094z"/>
	<path style="fill-rule:evenodd;clip-rule:evenodd;fill:#F1DD00;" d="M239.667,455.464c10.205-18.479,30.525-26.836,47.553-38.49
		c-7.858,20.824-21.252,36.113-29.44,56.604c-1.506,0-3.015,0-4.526,0c-5.545-4.265-8.498-11.122-9.058-20.379
		c-1.924-0.416-2.136,0.883-2.263,2.265C241.181,455.464,240.424,455.464,239.667,455.464z"/>
	<path style="fill-rule:evenodd;clip-rule:evenodd;fill:#F1DD00;" d="M214.76,475.845c4.576-5.238,7.525-12.1,15.853-13.588
		C228.076,469.532,222.661,473.931,214.76,475.845z"/>
	<path style="fill-rule:evenodd;clip-rule:evenodd;fill:#F1DD00;" d="M201.176,455.464c6.739-0.805,11.49-3.603,15.851-6.791
		c-0.713,3.061-3.223,4.325-2.267,9.058c-2.016,1.002-4.048,1.988-4.525,4.526c-2.542,0.478-3.528,2.515-4.532,4.531
		c-1.831,0.429-2.255,2.271-4.526,2.267C200.478,463.761,196.742,459.698,201.176,455.464z"/>
	<path style="fill-rule:evenodd;clip-rule:evenodd;fill:#F1DD00;" d="M189.851,421.501c-0.954-4.732,1.555-5.997,2.268-9.06"/>
	<path style="fill-rule:evenodd;clip-rule:evenodd;fill:#F1DD00;" d="M210.234,412.441c-4.031,5.786-12.354,7.271-20.384,9.06"/>
	<path style="fill-rule:evenodd;clip-rule:evenodd;fill:#DBAA02;" d="M237.404,403.384c-8.416,3.661-20.867,3.286-27.17,9.058"/>
	<path style="fill-rule:evenodd;clip-rule:evenodd;fill:#F1DD00;" d="M384.587,475.845c-12.686-16.752-24.331-34.547-38.495-49.813"
		/>
	<path style="fill-rule:evenodd;clip-rule:evenodd;fill:#F1DD00;" d="M307.6,432.822c0.479-2.739,2.51-1.391,4.526,0
		c10.449,20.249,20.547,39.22,20.38,61.134c-5.858-8.477-13.72-14.958-18.114-24.901C315.91,455.044,305.896,452.003,307.6,432.822z
		"/>
	<path style="fill-rule:evenodd;clip-rule:evenodd;fill:#F1DD00;" d="M325.714,432.822c21.876,1.539,35.24,31.168,47.55,49.816
		c-0.591,6.956-4.912,10.185-6.792,15.844c-11.02-2.457-10.596-5.371-18.115,2.271c-3.364-3.428-3.647-9.941-4.526-15.854
		c6.635-1.915-1.357-7.286,0-11.32C337.022,460.758,332.951,445.21,325.714,432.822z"/>
	<path style="fill-rule:evenodd;clip-rule:evenodd;fill:#F1DD00;" d="M223.818,444.142c0,1.513,0,3.021,0,4.531
		C214.467,451.094,216.801,443.047,223.818,444.142"/>
	<path style="fill-rule:evenodd;clip-rule:evenodd;fill:#F1DD00;" d="M196.643,435.085c12.397-2.906,25.103-26.403,38.499-13.584
		c-16.423,5.468-24.961,18.817-40.757,24.905C188.729,444.839,198.583,440.367,196.643,435.085z"/>
	<path style="fill-rule:evenodd;clip-rule:evenodd;fill:#DBAA02;" d="M235.141,439.615c-9.433,0.624,1.936-9.683,6.792-9.058"/>
	<path style="fill-rule:evenodd;clip-rule:evenodd;fill:#F1DD00;" d="M309.86,351.303c0.073,9.126-0.65,17.465-6.792,20.379"/>
	<path style="fill-rule:evenodd;clip-rule:evenodd;fill:#F1DD00;" d="M298.542,394.326c0.214,0.67,9.067,11.968,11.318,18.115"/>
</g>
<g id="Layer_3">
	<path style="fill-rule:evenodd;clip-rule:evenodd;fill:#C9780C;" d="M350.715,378.455c14.316-5.307,39.115-0.13,49.816-9.055
		c8.412,7.906,59.418,5.513,70.193,13.583c4.043,2.749,13.174,0.414,15.85,4.529c-31.855,9.619-66.947-6.033-104.16,2.264
		c-8.857-5.609-16.703,1.736-27.172-2.264c1.986,7.266-5.869,4.694-6.793,9.057c-7.617-1.576-7.422,4.655-11.322,6.794
		c-2.633-0.369-4.029,0.499-4.527,2.267c-3.77,0.457-19.697,6.211-6.793,9.057c0.617,4.669,10.025,0.538,9.059,6.794
		c-5.18,1.762,7.057,4.754,11.32,4.53c14.164,15.267,25.809,33.062,38.494,49.813c12.617,20.597,25.678,52.809,22.643,81.52
		c-1.924-0.42-2.135,0.873-2.262,2.256c-2.973-0.797-3.564-3.98-6.797-4.527c-3.008-21.962-9.604-52.528-24.906-72.454
		c-12.311-18.648-25.674-48.277-47.551-49.816c-3.227-6.587-12.129-7.494-18.113-11.321c0.322-9.489,9.516-10.104,6.791-22.646
		C331.994,397.475,335.236,381.845,350.715,378.455z"/>
	<path style="fill-rule:evenodd;clip-rule:evenodd;fill:#C9780C;" d="M223.911,448.652c0-1.511,0-3.019,0-4.531
		c0-0.752,0-1.51,0-2.262c8.952-0.385-0.726,3.476,4.531,6.793c3.257-3.54,5.7-7.881,11.318-9.058c-0.433-2.569-2.273-1.26-2.264,0
		c-0.754,0-1.507,0-2.264,0c0.665-4.619,6.128-4.438,6.793-9.058c1.968-3.316,3.389-7.178,9.055-6.793
		c-0.799,2.975-3.982,3.561-4.526,6.793c8.362-7.491,20.066-11.636,27.175-20.381c-14.58-7.313-30.219-13.562-45.287-20.38
		c-6.041,0-12.083,0-18.115,0c-1.266-15.01-41.773-18.649-58.878-18.114c-4.648-0.63-4.517-6.048-6.792-9.058
		c40.133-4.173,72.877,11.185,110.957,18.115c0,0.754,0,1.512,0,2.264c0.006,2.273-1.836,2.693-2.268,4.529
		c6.824-1.572,13.978,15.665,15.852,4.528c2.728,2.557,4.107,6.464,11.324,4.528c1.825,5.832,11.721,15.301,6.791,20.384
		c-17.028,11.654-37.348,20.011-47.553,38.49c-7.267-1.981-4.693,5.875-9.056,6.793c-8.327,1.488-11.276,8.35-15.853,13.588
		c-11.768,25.304-18.71,45.81-25.543,77.959c-1.507,0-2.251,0.27-3.76,0.27c-6.509-11.942-3.987-34.796,4.395-44.263
		c-2.087-10.391,5.667-10.943,4.533-20.382c2.891-0.121,3.136-2.9,6.792-2.26c0-3.022,0-6.041,0-9.058
		c0.972-4.316,4.878-5.693,4.526-11.323c1.004-2.017,1.99-4.054,4.532-4.531c0.971,6.269,7.118,0.117,4.525-4.526
		C218.847,455.664,221.862,452.646,223.911,448.652z"/>
	<path style="fill-rule:evenodd;clip-rule:evenodd;fill:#C9780C;" d="M303.162,371.662c-0.387,3.388,0.811,8.356-2.262,9.058
		c-17.129,0.52-5.144-28.066-11.321-38.494c9.757-16.355,1.937-42.127,9.056-65.667c3.639-9.946,3.119-24.054,4.527-36.23
		c-0.006-2.271,1.836-2.693,2.266-4.528c2.266,0,4.525,0,6.791,0c5.67-0.281,7.09-4.323,9.059,2.264
		c-11.139,30.069-14.361,63.703-13.584,99.632c-3.854-0.834-4.273,1.767-4.531,4.529c0,3.774,0,7.549,0,11.324
		C303.162,359.586,303.162,365.623,303.162,371.662z"/>
</g>
</svg>
