<?xml version="1.0" encoding="UTF-8" standalone="no"?>
<!-- Generator: Adobe Illustrator 14.0.0, SVG Export Plug-In . SVG Version: 6.00 Build 43363)  -->

<svg
   version="1.1"
   x="0px"
   y="0px"
   width="600px"
   height="800px"
   viewBox="0 0 600 800"
   style="enable-background:new 0 0 600 800;"
   xml:space="preserve"
   id="svg205"
   sodipodi:docname="corn.svg"
   inkscape:version="1.2.2 (732a01da63, 2022-12-09)"
   xmlns:inkscape="http://www.inkscape.org/namespaces/inkscape"
   xmlns:sodipodi="http://sodipodi.sourceforge.net/DTD/sodipodi-0.dtd"
   xmlns="http://www.w3.org/2000/svg"
   xmlns:svg="http://www.w3.org/2000/svg"><defs
   id="defs209">
	
	
	
	
	
	
</defs><sodipodi:namedview
   id="namedview207"
   pagecolor="#ffffff"
   bordercolor="#000000"
   borderopacity="0.25"
   inkscape:showpageshadow="2"
   inkscape:pageopacity="0.0"
   inkscape:pagecheckerboard="0"
   inkscape:deskcolor="#d1d1d1"
   showgrid="false"
   inkscape:zoom="1.4389623"
   inkscape:cx="468.74056"
   inkscape:cy="434.34077"
   inkscape:window-width="1920"
   inkscape:window-height="1017"
   inkscape:window-x="-8"
   inkscape:window-y="-8"
   inkscape:window-maximized="1"
   inkscape:current-layer="svg205" />
<g
   id="Layer_1">
	<g
   id="g171">
		<g
   id="g169">
			<path
   style="fill-rule:evenodd;clip-rule:evenodd;fill:#F2D00A;"
   d="M311.167,163.846c0,8.303,0,16.606,0,24.907     C307.417,185.584,307.417,167.017,311.167,163.846z"
   id="path135" />
			<path
   style="fill-rule:evenodd;clip-rule:evenodd;fill:#F2D00A;"
   d="M315.698,331.407c6.88,1.421,19.502-2.898,22.642,2.266     C331.46,332.251,318.838,336.57,315.698,331.407z"
   id="path137" />
			<path
   style="fill-rule:evenodd;clip-rule:evenodd;fill:#F2D00A;"
   d="M245.503,157.054c0.527-10.793,6.311-16.333,11.321-22.644     c-0.288,4.063,2.771,4.775,2.266,9.058c-2.202-0.063-1.758-2.771-2.266-4.529C249.604,141.531,250.496,152.234,245.503,157.054z"
   id="path139" />
			<path
   style="fill-rule:evenodd;clip-rule:evenodd;fill:#E5C711;"
   d="M367.773,150.259c10.757,17.175,12.471,43.391,22.646,61.138     c-1.626-8.188-17.969-1.655-22.646-6.792C368.633,180.093,367.91,165.672,367.773,150.259z"
   id="path141" />
			<path
   style="fill-rule:evenodd;clip-rule:evenodd;fill:#E5C711;"
   d="M363.247,132.146c-5.259-1.533-6.06-7.527-11.318-9.058     c1.885,10.82,2.998,17.947,2.261,24.907c-16.128-4.355-24.121-2.942-43.022-4.529c-1.567-15.908,3.833-24.851,2.266-40.759     c-6.157,11.833-7.153,27.207-6.792,38.494c-7.59,5.588-37.302,1.555-47.551,2.266c0.505-4.282-2.554-4.995-2.266-9.058     c18.779-13.677,22.766-42.144,58.875-38.494C328.516,111.021,352.349,115.12,363.247,132.146z"
   id="path143" />
			<path
   style="fill-rule:evenodd;clip-rule:evenodd;fill:#FFD900;"
   d="M259.089,143.467c10.249-0.71,39.961,3.323,47.551-2.266     c-0.361-11.287,0.635-26.66,6.792-38.494c1.567,15.908-3.833,24.851-2.266,40.759c18.901,1.587,26.895,0.173,43.022,4.529     c0.737-6.96-0.376-14.087-2.261-24.907c5.259,1.531,6.06,7.524,11.318,9.058c4.258,3.293,0.278,14.819,4.526,18.113     c0.137,15.413,0.859,29.834,0,54.346c4.678,5.137,21.021-1.396,22.646,6.792c1.201,1.821,2.363,3.677,2.266,6.794     c-10.449-0.83-13.032-2.788-22.646,0c1.138,17.783,4.526,29.634,2.266,45.286c6.118,8.225,24.683,4.001,33.965,9.058     c0,0.754,0,1.509,0,2.263c0,2.266,0,4.529,0,6.794c-11.108-0.544-14.81-1.809-29.438-2.266     c-10.356,15.105,5.566,40.601-9.058,54.346c-2.49-9.961-3.037-38.408-4.526-56.609c-18.633-0.967-35.679-1.97-54.341,0     c-0.239,15.386-1.362,37.19,0,56.609c3.115,0.098,4.971-1.067,6.792-2.266c3.14,5.164,15.762,0.845,22.642,2.266     c5.562,1.304,14.551,2.542,27.173,2.263c-2.31,2.976-2.222,8.347-4.531,11.323c-9.736-7.524-34.951,2.373-49.814-4.526     c-6.831,17.622,0.239,38.101,0,58.867c-0.498,1.768-1.895,2.637-4.526,2.266c-3.872,0.098-5.867-1.68-6.794-4.526     c0.53-18.345-2.219-36.584-2.263-54.346c-19.475-6.372-33.242-4.844-52.08,0c-1.484-6.064-6.487-8.608-9.058-13.586     c4.299-20.518-2.605-33.386,0-54.343c-6.104-5.217-21.841-0.803-31.702-2.266c0-0.754,0-1.509,0-2.263     c2.417-2.112,0.706-8.352,6.794-6.794c10.706,0.896,18.896-0.725,27.17-2.263c-6.626-12.292,5.181-31.863-2.263-45.286     c-4.063-0.288-4.775,2.771-9.058,2.263c0-0.754,0-1.509,0-2.263c1.44-6.863,6.36-10.247,13.586-11.323     c-5.779-7.432,2.642-15.796,0-27.173c1.47-11.741-0.886-14.036,4.529-22.642c4.993-4.819,4.102-15.522,11.321-18.115     C257.332,140.696,256.887,143.404,259.089,143.467z M254.561,154.788c0.5,19.373-5.425,32.314-4.529,52.08     c19.004,1.262,35.691-5.393,49.814-2.263c1.292-14.426,4.651-30.588,4.529-49.817     C285.251,153.685,275.991,154.993,254.561,154.788z M311.167,188.753c-2.813,5.762-0.996,11.045,0,15.852     c17.642-1.399,38.496,2.178,49.814,0c-3.525-19.409-0.854-30.989-6.792-47.551c-20.137-0.796-28.994-2.195-40.757-2.266     c-0.713,3.062-3.223,4.326-2.266,9.058C307.417,167.017,307.417,185.584,311.167,188.753z M250.032,218.191     c-3.794,15.706-2.993,30.698-2.266,47.549c20.283-4.976,39.719,3.047,52.08-4.526c-5.627-7.505,0.962-30.918,0-47.551     C282.246,216.194,268.86,212.605,250.032,218.191z M308.906,213.663c0.664,24.324-0.483,32.788,0,49.814     c17.031,2.551,30.903,2.549,54.341,4.529c-3.613-22.561-0.288-33.162-2.266-52.08     C343.887,214.644,325.903,215.647,308.906,213.663z M245.503,274.798c2.417,19.111,1.03,35.774,0,54.346     c19.619,3.418,34.641,5.574,54.343,0c-4.309-17.249-2.769-37.629-2.263-54.346C282.263,273.243,259.482,274.51,245.503,274.798z"
   id="path145" />
			<path
   style="fill-rule:evenodd;clip-rule:evenodd;fill:#E5C711;"
   d="M200.215,295.179c0.159-8.901,1.096-17.021,4.529-22.644     c0,0.754,0,1.509,0,2.263c9.861,1.462,25.598-2.952,31.702,2.266c-2.605,20.957,4.299,33.826,0,54.343     C230.747,312.952,208.35,311.197,200.215,295.179z"
   id="path147" />
			<path
   style="fill-rule:evenodd;clip-rule:evenodd;fill:#E5C711;"
   d="M304.375,154.788c0.122,19.229-3.237,35.391-4.529,49.817     c-14.124-3.13-30.811,3.525-49.814,2.263c-0.896-19.766,5.029-32.708,4.529-52.08     C275.991,154.993,285.251,153.685,304.375,154.788z"
   id="path149" />
			<path
   style="fill-rule:evenodd;clip-rule:evenodd;fill:#E5C711;"
   d="M311.167,163.846c-0.957-4.731,1.553-5.996,2.266-9.058     c11.763,0.071,20.62,1.47,40.757,2.266c5.938,16.563,3.267,28.142,6.792,47.551c-11.318,2.178-32.173-1.399-49.814,0     c-0.996-4.807-2.813-10.09,0-15.852C311.167,180.452,311.167,172.149,311.167,163.846z"
   id="path151" />
			<path
   style="fill-rule:evenodd;clip-rule:evenodd;fill:#E5C711;"
   d="M227.388,218.191c1.345-16.016,11.428-23.293,13.586-38.496     c2.642,11.377-5.779,19.741,0,27.173C233.748,207.945,228.828,211.329,227.388,218.191z"
   id="path153" />
			<path
   style="fill-rule:evenodd;clip-rule:evenodd;fill:#E5C711;"
   d="M245.503,344.993c18.838-4.844,32.605-6.372,52.08,0     c0.044,17.761,2.793,36.001,2.263,54.346c-20.137-15.339-30.134-40.815-54.343-52.08     C245.503,346.502,245.503,345.748,245.503,344.993z"
   id="path155" />
			<path
   style="fill-rule:evenodd;clip-rule:evenodd;fill:#E5C711;"
   d="M299.846,213.663c0.962,16.633-5.627,40.046,0,47.551     c-12.361,7.573-31.797-0.449-52.08,4.526c-0.728-16.851-1.528-31.843,2.266-47.549     C268.86,212.605,282.246,216.194,299.846,213.663z"
   id="path157" />
			<path
   style="fill-rule:evenodd;clip-rule:evenodd;fill:#E5C711;"
   d="M360.981,215.926c1.978,18.918-1.348,29.519,2.266,52.08     c-23.438-1.98-37.31-1.978-54.341-4.529c-0.483-17.026,0.664-25.491,0-49.814C325.903,215.647,343.887,214.644,360.981,215.926z"
   id="path159" />
			<path
   style="fill-rule:evenodd;clip-rule:evenodd;fill:#E5C711;"
   d="M406.27,272.535c-9.282-5.056-27.847-0.833-33.965-9.058     c2.261-15.652-1.128-27.502-2.266-45.286c9.614-2.788,12.197-0.83,22.646,0c-2.227,22.6,10.874,29.883,9.053,52.078     C404.375,269.903,405.771,270.77,406.27,272.535z"
   id="path161" />
			<path
   style="fill-rule:evenodd;clip-rule:evenodd;fill:#E5C711;"
   d="M211.538,265.74c3.398-11.128,4.038-35.994,15.85-45.286     c4.282,0.508,4.995-2.551,9.058-2.263c7.444,13.423-4.363,32.993,2.263,45.286C230.435,265.015,222.244,266.636,211.538,265.74z"
   id="path163" />
			<path
   style="fill-rule:evenodd;clip-rule:evenodd;fill:#E5C711;"
   d="M297.583,274.798c-0.505,16.716-2.046,37.097,2.263,54.346     c-19.702,5.574-34.724,3.418-54.343,0c1.03-18.572,2.417-35.234,0-54.346C259.482,274.51,282.263,273.243,297.583,274.798z"
   id="path165" />
			<path
   style="fill-rule:evenodd;clip-rule:evenodd;fill:#E5C711;"
   d="M315.698,331.407c-1.821,1.199-3.677,2.363-6.792,2.266     c-1.362-19.419-0.239-41.223,0-56.609c18.662-1.97,35.708-0.967,54.341,0c1.489,18.201,2.036,46.648,4.526,56.609     c14.624-13.745-1.299-39.241,9.058-54.346c14.629,0.457,18.33,1.721,29.438,2.266c0-2.266,0-4.529,0-6.794     c3.438,5.625,4.375,13.745,4.526,22.644c-25.474,17.546-42.935,43.105-61.133,67.93c-6.919-1.636-8.252,2.317-13.584,2.266     c-1.582,18.044-15.703,23.547-24.912,33.962c0.239-20.767-6.831-41.245,0-58.867c14.863,6.899,40.078-2.998,49.814,4.526     c2.31-2.976,2.222-8.347,4.531-11.323c-12.622,0.278-21.611-0.959-27.173-2.263C335.2,328.509,322.578,332.828,315.698,331.407z"
   id="path167" />
		</g>
	</g>
</g>
<g
   id="Layer_2">
	<path
   style="fill-rule:evenodd;clip-rule:evenodd;fill:#369813;"
   d="M249.721,622.735c1.479-9.028-8.608-6.489-15.85-6.797   c-3.184-30.02-34.775-31.646-33.965-65.664c-9.18-7.808-32.671-12.09-22.642-31.699c-5.742-3.408-16.978-13.101-9.058-22.646   c-1.919-3.364-7.29-3.276-11.323-4.526c-1.875-17.749-7.661-31.587-6.792-52.08c-9.419-7.188-17.056-16.157-24.907-24.907   c-16.87-3.281-19.697,7.476-33.965,6.792c-0.64,12.949-5.298,21.88-15.854,24.907c-19.087-15.85-8.037-47.861-15.85-74.722   c4.517-2.275,3.574-10.012,11.323-9.058c-1.021-6.526-8.013-7.083-6.792-15.85c22.729-8.97,22.896-40.505,45.283-49.817   c-3.267-3.525-9.116-4.468-6.792-13.586c10.166-0.403,17.217-3.916,22.646-9.058c31.108,5.92,53.438,0.295,74.722,20.381   c8.135,16.018,30.532,17.773,36.23,36.228c2.568,4.978,7.573,7.522,9.058,13.586c0,0.754,0,1.509,0,2.266   c24.209,11.265,34.204,36.743,54.341,52.08c0.928,2.847,7.925,4.624,11.797,4.526c-4.912,8.677-11.699,15.474-20.381,20.381   c-14.189,29.585-6.299,81.255-29.434,101.895c12.324,24.185-3.774,65.449,18.906,86.406c-16.665,20.898-30,50.586-42.021,67.568   C225.087,657.462,252.24,639.679,249.721,622.735z"
   id="path174" />
	<path
   style="clip-rule:evenodd;fill:#b8da9a;fill-rule:evenodd"
   d="m 539.765,398.57 c -359.84333,-265.71333 -179.92167,-132.85667 0,0 z"
   id="path176"
   sodipodi:nodetypes="cc" />
</g>
<path
   style="clip-rule:evenodd;fill:#47aa23;fill-rule:evenodd"
   d="m 322.631,692.926 c 0.059,-2.197 2.769,-1.753 4.526,-2.261 -4.595,5.215 -8.12,11.499 -13.584,15.85 -9.995,-6.606 -21.785,-11.426 -27.173,-22.642 -14.014,0.322 -17.388,11.289 -29.436,13.584 -23.376,-6.826 -19.587,-30.552 -33.965,-43.022 1.284,-18.34 15.586,-23.662 27.173,-31.699 2.52,16.943 -24.636,34.727 -11.323,56.606 8.24,-23.56 21.829,-47.031 38.494,-67.93 -22.681,-20.957 -8.054,-61.86 -20.378,-86.045 23.14,-20.64 15.244,-72.31 29.436,-101.895 8.679,-4.907 15.471,-11.704 20.381,-20.381 2.632,0.371 4.028,-0.498 4.526,-2.266 9.209,-10.415 23.33,-15.918 24.912,-33.962 5.332,0.051 6.665,-3.901 13.584,-2.266 18.198,-24.824 35.659,-50.383 61.133,-67.93 7.603,0.054 6.123,-8.975 9.058,-13.586 20.361,-5.544 29.048,0.068 47.554,-2.263 15.791,18.938 58.423,23.081 56.606,52.08 5.386,4.431 12.534,7.092 15.85,13.586 -5.752,18.677 5.386,30.608 0,49.814 -1.02314,7.99078 -1.31238,16.7163 -1.89001,25.15428 -0.67965,9.92842 -1.75855,19.45876 -4.90199,26.92572 -0.796,2.974 -3.984,3.56 -4.526,6.792 -19.824,-7.344 -25.771,-28.574 -40.762,-40.757 -30.552,20.771 -41.968,60.674 -61.133,92.837 -6.021,39.268 -30.947,59.629 -43.022,92.837 -11.104,5.332 -17.847,14.512 -18.115,24.907 -8.022,1.04 -13.081,5.039 -22.642,4.531 12.974,13.872 17.9,16.587 18.11,36.23 -11.133,3.774 -17.393,19.99 -33.965,11.318"
   id="path179"
   sodipodi:nodetypes="cccccccccccccccccccccsccccccccc" /><path
   style="clip-rule:evenodd;fill:#40a01c;fill-rule:evenodd"
   d="m 193.407,353.902 c -5.339,0.217 -16.528,-9.541 -11.321,0 -2.974,-0.801 -3.562,-3.987 -6.792,-4.529 4.83,-6.135 15.039,1.414 18.113,4.529 z"
   id="path181" /><path
   style="clip-rule:evenodd;fill:#47aa23;fill-rule:evenodd"
   d="m 270.395,469.386 c -32.446,-35.483 -50.01,-85.847 -88.308,-115.483 -5.208,-9.541 5.981,0.217 11.321,0 35.629,27.053 69.213,68.105 76.987,115.483"
   id="path183" /><path
   style="clip-rule:evenodd;fill:#47aa23;fill-rule:evenodd"
   d="m 250.014,501.085 c -16.968,-18.506 -24.097,-46.851 -38.491,-67.93 -20.5,-23.276 -40.652,-46.904 -67.93,-63.403 43.792,4.521 71.729,44.507 90.571,81.519 9.492,12.329 21.87,31.528 20.381,47.549"
   id="path185" /><path
   style="clip-rule:evenodd;fill:#47aa23;fill-rule:evenodd"
   d="m 269.535,469.386 c -32.446,-35.483 -50.01,-85.845 -88.308,-115.483 -5.208,-9.541 5.981,0.217 11.321,0 35.63,27.053 69.214,68.105 76.987,115.483"
   id="path187" /><path
   style="clip-rule:evenodd;fill:#47aa23;fill-rule:evenodd"
   d="m 249.154,501.085 c -16.968,-18.506 -24.097,-46.851 -38.491,-67.93 -20.5,-23.276 -40.652,-46.904 -67.93,-63.403 43.792,4.521 71.729,44.507 90.571,81.519 9.492,12.329 21.87,31.528 20.381,47.549"
   id="path189" />
<g
   id="Layer_4">
	<path
   style="fill-rule:evenodd;clip-rule:evenodd;fill:#348414;"
   d="M432.807,364.989   c-52.139,53.533-93.496,117.844-113.223,203.792c-0.82-98.374,51.538-156.572,106.426-206.057   C429.667,362.086,429.906,364.864,432.807,364.989z"
   id="path192" />
	<path
   style="fill-rule:evenodd;clip-rule:evenodd;fill:#348414;"
   d="M432.807,412.54c-7.568,24.072-33.33,41.348-49.819,65.664   c-16.636,24.531-25.093,53.286-43.022,76.987C352.685,489.42,384.13,442.364,432.807,412.54z"
   id="path194" />
	<path
   style="fill-rule:evenodd;clip-rule:evenodd;fill:#369813;"
   d="M324.813,622.735c16.079,9.585,28.662,22.666,31.704,45.283   c-14.878-0.215-10.786-19.404-22.646-22.642C331.508,637.174,323.241,634.879,324.813,622.735z"
   id="path196" />
	<path
   style="fill-rule:evenodd;clip-rule:evenodd;fill:#369813;"
   d="M288.588,629.527c3.464,14.624,6.084,42.695-9.058,54.346   C274.206,662.145,277.602,638.741,288.588,629.527z"
   id="path198" />
	<path
   style="fill-rule:evenodd;clip-rule:evenodd;fill:#369813;"
   d="M327.079,690.665c-1.758,0.508-3.457,0.684-4.526,2.261   c-9.595-18.33-16.445-39.409-22.644-61.133c21.873,2.275,16.78,31.523,27.17,45.283   C327.079,681.607,327.079,686.134,327.079,690.665z"
   id="path200" />
	<path
   style="fill-rule:evenodd;clip-rule:evenodd;fill:#40A01C;"
   d="M324.813,622.735c-1.572,12.144,6.694,14.438,9.058,22.642   c-5.796-5.522-11.826-10.811-11.318-22.642C323.31,622.735,324.062,622.735,324.813,622.735z"
   id="path202" />
</g>
</svg>
