<?xml version="1.0" encoding="iso-8859-1"?>
<!-- Generator: Adobe Illustrator 14.0.0, SVG Export Plug-In . SVG Version: 6.00 Build 43363)  -->
<!DOCTYPE svg PUBLIC "-//W3C//DTD SVG 1.1//EN" "http://www.w3.org/Graphics/SVG/1.1/DTD/svg11.dtd">
<svg version="1.1" xmlns="http://www.w3.org/2000/svg" xmlns:xlink="http://www.w3.org/1999/xlink" x="0px" y="0px" width="600px"
	 height="800px" viewBox="0 0 600 800" style="enable-background:new 0 0 600 800;" xml:space="preserve">
<g id="Layer_5">
	<path style="fill-rule:evenodd;clip-rule:evenodd;fill:#DAC556;" d="M304.561,661.537c0,1.508,0,3.017,0,4.531l0.321-4.655
		c13.789-4.935,9.504-27.938,17.794-38.367c0.508,1.753,0.063,4.462,2.266,4.526c2.168,4.624,4.624,8.96,6.792,13.588
		c7.124,1.084,8.852-3.226,13.588-4.53c0-0.757,0-1.509,0-2.267c0.752,0,1.51,0,2.262,0c3.358-2.676,3.525-8.554,6.792-11.317
		c3.022,0,6.04,0,9.057,0c0.567,11.883-10.092,12.544-6.792,27.167c2.271-0.004,2.696,1.836,4.532,2.267
		c10.498,7.123,22.773,3.174,31.699-2.267c3.051-10.532,2.715-24.452,9.057-31.698c10.46,13.52,38.165,19.906,54.347,20.379
		c1.177-3.348,3.349-5.707,4.526-9.057c14.521-18.911-11.353-26.86-29.434-27.173l-36.231-15.851
		c-7.864-6.521-123.136,0.521-135.802,0s-18.174,13.584-18.174,13.584c-7.8,15.486-29.017,16.837-20.379,43.022
		c0.755,0,1.509,0,2.263,0c0.101,3.12-1.064,4.972-2.263,6.793c22.95,9.703,45.615-16.934,56.61-33.965
		c3.313,0.04,7.174-9.546,6.792,0c0.986,11.543-0.974,38.267,2.265,47.554c6.315,2.877,11.184,5.581,18.113,2.267"/>
</g>
<g id="Layer_1">
	<g>
		<g>
			<path style="fill-rule:evenodd;clip-rule:evenodd;fill:#DAC556;" d="M284.182,602.664c1.51,0,3.02,0,4.529,0
				c-4.468,1.572,0.556,12.633-4.529,13.584c0.382-9.546-3.479,0.04-6.792,0C278.535,610.603,281.669,606.947,284.182,602.664z"/>
			<path style="fill-rule:evenodd;clip-rule:evenodd;fill:#B9A744;" d="M345.321,634.363c0,0.758,0,1.51,0,2.267
				c-4.736,1.305-6.464,5.614-13.588,4.53c-2.168-4.628-4.624-8.964-6.792-13.588c-1.915-8.653-3.819-17.314-4.532-27.175
				c0.367-2.651,4.132-1.908,6.798-2.264C336.885,606.571,339.912,621.659,345.321,634.363z"/>
			<path style="fill-rule:evenodd;clip-rule:evenodd;fill:#885382;" d="M223.043,573.226"/>
			<path style="fill-rule:evenodd;clip-rule:evenodd;fill:#885382;" d="M410.986,580.023c-9.854-2.312-10.41,4.681-15.851,6.79
				c-4.735,1.305-6.464,5.617-13.588,4.527c-3.657-0.635-3.896,2.145-6.792,2.267c-4.854,2.695-12.651,2.445-15.851,6.79
				c-10.751-2.835-18.222,0.465-31.698-2.264c-2.666,0.355-6.431-0.388-6.798,2.264c-3.773,0-7.544,0-11.318,0
				c-10.456,2.393-8.231,0.08-20.38,2.267c-1.509,0-3.019,0-4.529,0c-1.661-2.113-4.116-3.432-6.792-4.53
				c-6.29-0.22-28.133-6.188-36.23,2.264"/>
			<path style="fill-rule:evenodd;clip-rule:evenodd;fill:#885382;" d="M313.617,561.908"/>
			<path style="fill-rule:evenodd;clip-rule:evenodd;fill:#885382;" d="M295.505,568.699"/>
			<path style="fill-rule:evenodd;clip-rule:evenodd;fill:#B868B0;" d="M223.043,573.226"/>
			<path style="fill-rule:evenodd;clip-rule:evenodd;fill:#B868B0;" d="M295.505,568.699"/>
			<path style="fill-rule:evenodd;clip-rule:evenodd;fill:#B868B0;" d="M313.617,561.908"/>
			<path style="fill-rule:evenodd;clip-rule:evenodd;fill:#B868B0;" d="M347.583,559.642"/>
			<path style="fill-rule:evenodd;clip-rule:evenodd;fill:#B868B0;" d="M234.368,143.002"/>
			<path style="fill-rule:evenodd;clip-rule:evenodd;fill:#DAC556;" d="M395.136,586.813c5.44-2.109,5.997-9.102,15.851-6.79
				c7.534,6.806,18.457,10.22,20.381,22.641c18.081,0.313,43.955,8.262,29.434,27.173
				C435.234,619.178,408.022,610.16,395.136,586.813z"/>
			<path style="fill-rule:evenodd;clip-rule:evenodd;fill:#B9A744;" d="M358.905,600.397c3.199-4.345,10.997-4.095,15.851-6.79
				c4.468,14.013-2.617,38.794,0,56.605c-2.676,2.607-8.004,2.563-13.584,2.267c-1.836-0.431-2.261-2.271-4.532-2.267
				c-3.3-14.623,7.359-15.284,6.792-27.167C359.99,617.429,362.876,605.486,358.905,600.397z"/>
			<path style="fill-rule:evenodd;clip-rule:evenodd;fill:#DAC556;" d="M309.091,600.397c3.774,0,7.545,0,11.318,0
				c0.713,9.86,2.617,18.521,4.532,27.175c-2.202-0.064-1.758-2.773-2.266-4.526c-8.355,10.512-3.926,33.808-18.115,38.491
				C295.341,643.108,292.082,613.969,309.091,600.397z"/>
			<path style="fill-rule:evenodd;clip-rule:evenodd;fill:#B9A744;" d="M288.711,602.664c12.148-2.187,9.924,0.126,20.38-2.267
				c-17.009,13.571-13.75,42.711-4.53,61.14c0,1.508,0,3.017,0,4.531c-6.93,3.314-11.798,0.61-18.113-2.267
				c-3.239-9.287-1.279-36.011-2.265-47.554C289.267,615.297,284.243,604.236,288.711,602.664z"/>
			<path style="fill-rule:evenodd;clip-rule:evenodd;fill:#D795D0;" d="M347.583,559.642"/>
			<path style="fill-rule:evenodd;clip-rule:evenodd;fill:#DAC556;" d="M327.207,598.134c13.477,2.729,20.947-0.571,31.698,2.264
				c3.971,5.089,1.085,17.031,4.526,22.648c-3.017,0-6.034,0-9.057,0c-3.267,2.764-3.434,8.642-6.792,11.317
				c-0.752,0-1.51,0-2.262,0C339.912,621.659,336.885,606.571,327.207,598.134z"/>
			<path style="fill-rule:evenodd;clip-rule:evenodd;fill:#B9A744;" d="M277.39,616.248c-10.995,17.031-33.66,43.668-56.61,33.965
				c1.199-1.821,2.364-3.673,2.263-6.793c19.317-13.891,37.93-28.489,54.347-45.286c2.676,1.099,5.131,2.417,6.792,4.53
				C281.669,606.947,278.535,610.603,277.39,616.248z"/>
			<path style="fill-rule:evenodd;clip-rule:evenodd;fill:#B9A744;" d="M395.136,586.813c12.887,23.347,40.099,32.364,65.665,43.023
				c-1.178,3.35-3.35,5.709-4.526,9.057c-16.182-0.473-43.887-6.859-54.347-20.379c-5.771-10.079-16.063-15.636-20.38-27.174
				C388.672,592.431,390.4,588.118,395.136,586.813z"/>
			<path style="fill-rule:evenodd;clip-rule:evenodd;fill:#DAC556;" d="M361.172,652.479c5.58,0.297,10.908,0.341,13.584-2.267
				c-2.617-17.812,4.468-42.593,0-56.605c2.896-0.122,3.135-2.901,6.792-2.267c4.316,11.538,14.608,17.095,20.38,27.174
				c-6.342,7.246-6.006,21.166-9.057,31.698C383.945,655.653,371.67,659.603,361.172,652.479z"/>
			<path style="fill-rule:evenodd;clip-rule:evenodd;fill:#DAC556;" d="M241.16,600.397c8.098-8.451,29.94-2.483,36.23-2.264
				c-16.417,16.797-35.03,31.396-54.347,45.286c-0.754,0-1.508,0-2.263,0C212.143,617.234,233.359,615.884,241.16,600.397z"/>
		</g>
	</g>
</g>
<g id="Layer_2">
	<path style="fill-rule:evenodd;clip-rule:evenodd;fill:#B868B0;" d="M275.124,163.381c-17.112,0.029-33.572-4.867-40.756-20.379
		c-9.358,23.232-13.25,50.433,0,67.931c-7.477,8.376-8.089,23.614-9.059,38.494c-80.227,41.375-166.335,97.038-149.446,215.113
		c0.019-0.004,0.037-0.005,0.056-0.008c9.636,91.311,89.583,137.346,165.24,135.366c8.098-8.451,29.94-2.483,36.23-2.264
		c2.676,1.099,5.131,2.417,6.792,4.53c1.51,0,3.02,0,4.529,0c12.148-2.187,9.924,0.126,20.379-2.267c3.775,0,7.545,0,11.318,0
		c0.367-2.651,4.133-1.908,6.799-2.264c13.477,2.729,20.947-0.571,31.697,2.264c3.199-4.345,10.998-4.095,15.852-6.79
		c2.895-0.122,3.135-2.901,6.791-2.267c7.125,1.09,8.854-3.223,13.588-4.527c5.441-2.109,5.998-9.102,15.852-6.79
		c67.75-8.361,107.042-60.546,122.179-128.645c0.033,0.024,0.063,0.052,0.097,0.076c-0.004-0.146-0.011-0.289-0.015-0.435
		c0.005-0.021,0.01-0.044,0.015-0.065c-0.006-0.004-0.012-0.01-0.018-0.014c-2.809-107.997-75.853-159.453-158.488-198.75
		c1.865-16.205-13.692-14.988-18.116-24.908c-6.361-20.81-16.069-38.275-27.172-54.344c-0.753,0-1.509,0-2.261,0
		c-12.452,1.882-15.465-5.667-27.174-4.528"/>
</g>
<g id="Layer_3">
	<path style="fill-rule:evenodd;clip-rule:evenodd;fill:#D795D0;" d="M209.458,555.115c-2.673-1.099-5.132-2.417-6.792-4.531
		c-51.536-0.234-126.822-72.3-99.631-120.01c-3.247-2.793-4.29-7.788-4.53-13.584c7.369-14.402,11.371-25.717,9.059-45.289
		c19.775-21.736,32.505-50.521,65.666-58.873c9.819-15.087,21.275-28.541,43.022-31.701c9.556-15.351,19.034-30.783,22.645-52.08
		c3.649,17.259-1.734,38.73-4.529,61.135c-42.708,15.775-49.688,58.817-63.404,99.634
		C162.038,457.648,177.514,514.979,209.458,555.115z"/>
	<path style="fill-rule:evenodd;clip-rule:evenodd;fill:#D795D0;" d="M307.25,167.25c3.896,23.835,2.593,55.391-7.217,79.91
		c9.171,8.947,12.276,23.955,15.85,38.496c46.065,19.791,81.763,53.571,97.369,97.368c-5.528,15.965,10.181,26.563,13.584,40.76
		c7.983,37.817-13.218,62.415-20.382,101.894c-11.449,8.927-18.813,21.938-31.698,29.438c-13.477-5.367-14.873,6.134-27.173,4.526
		c-38.272-12.914-26.104-44.268-31.7-79.252c-7.606-47.545-7.489-98.983-9.058-149.446c-4.468-5.345-7.841-11.782-11.32-18.115
		c3.501-3.292,1.992-11.592,2.263-18.115c-23.373-28.822,1.664-84.608-24.907-110.953c4.031-7.249,4.393-11.426,2.263-20.379
		c9.799,0.015,14.368,5.256,24.91,4.529L307.25,167.25z"/>
</g>
<g id="Layer_4">
	<path style="fill-rule:evenodd;clip-rule:evenodd;fill:#885382;" d="M191.345,473.597c9.531,54.981,41.687,107.729,104.16,95.103
		c-16.223-38.496-24.734-102.641-4.529-144.916c11.589,46.762-2.212,100.248,22.641,138.125
		c77.594,38.485,117.588-42.351,131.333-108.693c-6.303-39.736-17.255-74.822-36.23-101.893c1.622-6.68,2.589-14.02,6.792-18.117
		c30.421,28.877,41.422,89.483,45.289,131.334c-2.71,29.092-20.625,48.232-24.907,81.519c30.298,12.178,42.709-30.708,61.138-45.289
		c12.3-4.037,8.838-18.592,18.115-29.437c0.176-11.143,4.438-18.203,6.792-27.174c6.606-0.566,7.813,4.268,11.323,6.797
		c-15.068,68.307-54.385,120.689-122.275,129.068c-9.854-2.312-10.41,4.681-15.851,6.79c-4.735,1.305-6.464,5.617-13.588,4.527
		c-3.657-0.635-3.896,2.145-6.792,2.267c-4.854,2.695-12.651,2.445-15.851,6.79c-10.751-2.835-18.222,0.465-31.698-2.264
		c-2.666,0.355-6.431-0.388-6.798,2.264c-3.773,0-7.544,0-11.318,0c-10.456,2.393-8.231,0.08-20.38,2.267c-1.509,0-3.019,0-4.529,0
		c-1.661-2.113-4.116-3.432-6.792-4.53c-6.29-0.22-28.133-6.188-36.23,2.264c-75.794,1.983-155.897-44.219-165.296-135.858
		c15.593-3.12,20.503,22.979,24.908,38.496c27.012,41.718,62.566,64.454,122.272,70.19c1.253-2.875-11.785-10.771-13.586-18.11
		c-31.944-40.137-47.419-97.467-38.494-165.299c5.236-3.065,7.502-9.102,18.115-6.793c4.773,23.22-8.708,46.194,0,67.932
		C190.5,457.835,186.181,470.457,191.345,473.597z"/>
	<path style="fill-rule:evenodd;clip-rule:evenodd;fill:#885382;" d="M329.541,172.438c-8.293-28.367-38.182-42.418-65.656-42.044
		c-10.539-0.168-20.824,1.767-29.518,5.814c0,2.265,0,4.529,0,6.793c7.184,15.512,23.644,20.408,40.756,20.379
		c9.527,0.015,14.127,4.954,24.065,4.56c1.004,0.045,2.051,0.047,3.178-0.031c0.436-0.042,0.836-0.05,1.248-0.069
		c8.153,0.459,11.894,5.327,20.979,4.854C326.082,172.771,327.699,172.717,329.541,172.438z"/>
</g>
</svg>
