<?xml version="1.0" encoding="iso-8859-1"?>
<!-- Generator: Adobe Illustrator 14.0.0, SVG Export Plug-In . SVG Version: 6.00 Build 43363)  -->
<!DOCTYPE svg PUBLIC "-//W3C//DTD SVG 1.1//EN" "http://www.w3.org/Graphics/SVG/1.1/DTD/svg11.dtd">
<svg version="1.1" xmlns="http://www.w3.org/2000/svg" xmlns:xlink="http://www.w3.org/1999/xlink" x="0px" y="0px" width="600px"
	 height="800px" viewBox="0 0 600 800" style="enable-background:new 0 0 600 800;" xml:space="preserve">
<g id="Layer_2">
	<path style="fill:#115F1E;" d="M192.713,536.293c-7.576,23.511,8.762,40.439,9.058,63.398c0,0.757,0,1.514,0,2.266
		c2.703,4.727,17.751-7.163,23.586-6.792c-6.663-19.258,1.58-31.812-0.122-49.355c11.157-28.823,48.184-49.971,55.093-80.103
		c2.278-9.937,10.195-33.008,3.425-40.625c-6.467-7.275,0.403-50.801,0.483-63.152l-2.683-0.718c1.899-0.51,3.655-1.436,3.762-2.971
		c1.575-22.068-11.716-42.996-17.507-63.984c2.888-0.271,6.541-1.724,6.257-3.516c-0.811-5.151-3.179-9.619-6.257-13.755
		c0.667-3.726,0.803-7.573-2.073-13.208c-5.476-10.725-17.273-18.215-24.17-28.037c-0.669-0.952-1.411-7.292-3.528-6.909
		L206.766,175.5c-4.17-10.171-10.591-22.969-16.055-31.846c-27.1,32.131,10.132,65.53,13.323,84.685
		c-0.024-0.151-1.553,18.704-2.263,24.907c-1.299,11.328-1.936,20.881-4.529,31.702c2.317,3.64,24.678,20.835,32.263,27.478
		c0.84,2.952,0.654,2.38,2.7,5.076c0.12,0.159,0.354,0.249,0.571,0.347 M233.473,348.349l-6.584,13.989
		c-0.332,0.22-0.596,0.422-0.737,0.588c-16.338,19.07-15.991,48.596-19.775,72.283c-3.284,20.532-6.343,41.289-8.896,61.924
		 M275.719,355.631c0.012,0.352,0.012,0.708,0.02,1.062c-0.117-0.01-0.232-0.022-0.349-0.032
		C275.499,356.317,275.616,355.976,275.719,355.631z"/>
</g>
<g id="Layer_3">
	<path style="fill-rule:evenodd;clip-rule:evenodd;fill:#7CC164;" d="M247.523,249.03c9.409,1.16,5.776,15.359,15.852,15.85
		c0,0.754,0,1.509,0,2.263c-4.238,9.348-10.508,16.665-24.907,15.852C233.038,270.258,237.765,253.539,247.523,249.03z"/>
	<path style="fill-rule:evenodd;clip-rule:evenodd;fill:#5FB42D;" d="M244.703,230.915c-27.917,18.115-32.39,44.617-37.937,63.401
		c0.476,26.694,9.058,39.36,24.907,51.609c2.266,0.471,26.565,19.539,45.288,11.794c-1.252-25.933,0.813-101.824-13.586-102.637"/>
	<path style="fill-rule:evenodd;clip-rule:evenodd;fill:#5FB42D;" d="M193.18,534.34c-65.625-28.223-53.857-142.51,22.644-149.448
		c26.03-0.369,42.642,8.682,54.343,22.642c3.704,20.327,4.075,30.366,4.529,54.346c-25.828,20.957-51.731,40.737-54.343,79.253
		C205.528,539.745,203.192,537.914,193.18,534.34z"/>
</g>
<g id="Layer_4">
</g>
<g id="Layer_5">
	<path style="fill-rule:evenodd;clip-rule:evenodd;fill:#7CC164;" d="M247.523,249.03c9.409,1.16,5.776,15.359,15.852,15.85
		c0,0.754,0,1.509,0,2.263c-4.238,9.348-10.508,16.665-24.907,15.852C233.038,270.258,237.765,253.539,247.523,249.03z"/>
	<path style="fill-rule:evenodd;clip-rule:evenodd;fill:#7CC164;" d="M209.029,405.268c16.038,19.854-3.076,43.13-22.644,47.554
		C172.738,435.17,186.092,406.562,209.029,405.268z"/>
</g>
<g id="Layer_1">
	<g>
		<path style="fill-rule:evenodd;clip-rule:evenodd;fill:#269039;" d="M202.237,597.738c0,0.757,0,1.514,0,2.266
			c2.703,4.727,7.751-7.163,13.586-6.792c-7.004-20.244,8.025-33.066,4.529-52.08c2.612-38.516,28.516-58.296,54.343-79.253
			c-0.454-23.979-0.825-34.019-4.529-54.346c0.359-15.698,15.413-34.836,6.794-49.814c-1.252-25.933-23.408-62.827-13.586-90.576
			c0-0.754,0-1.509,0-2.263c-10.076-0.491-6.443-14.69-15.852-15.85c-2.424-5.125-5.137-9.958-9.055-13.586
			c-2.039-12.305-18.237-10.447-24.91-18.115c-3.816-9.771-7.922-19.25-13.586-27.173c-1.311-7.351,1.543-10.535,2.266-15.85
			c-4.17-10.171-10.388-18.296-15.852-27.173c-16.536-24.221-41.396-40.12-38.494-83.782c38.203-18.635,89.983-18.142,117.747,9.058
			c6.794,0,13.586,0,20.381,0c6.042,11.318,16.096,18.628,33.967,18.115c8.799,12.336,13.999,28.264,31.699,31.702
			c7.134,24.697,29.722,45.581,24.907,74.724c14.478,13.447,23.931,31.926,40.757,43.022c7.412,34.529,35.405,76.948,15.85,110.952
			c5.098,8.494,13.779,13.398,18.115,22.644c-0.239,28.643,1.313,56.313,6.797,79.253c-13.398,35.664-17.163,80.962-54.346,92.837
			c8.516,48.608-33.994,65.576-47.549,99.634c-5.337-0.049-6.67,3.901-13.589,2.266c-11.714,25.269-32.197,41.772-56.609,54.341
			c-12.646,36.416-50.732,47.393-99.634,47.554c-16.545-12.065-27.444-37.959-9.055-56.606
			C178.106,648.588,186.419,625.321,202.237,597.738z"/>
	</g>
</g>
<g id="Layer_6">
	<path style="fill-rule:evenodd;clip-rule:evenodd;fill:#0F7F23;" d="M276.964,106.374c1.509,0,3.018,0,4.529,0
		c49.236,15.671,78.21,51.609,86.042,108.689c42.197,32.019,61.738,85.61,56.611,153.977c19.902,37.473,12.334,88.274,6.787,124.539
		c-12.666,17.524-28.711,31.665-43.018,47.554c-1.084,45.513-26.377,77.021-54.346,88.311c-5.352,31.094-37.354,50.474-63.401,67.93
		c-7.146,1.108-7.996-4.082-15.85-2.266c14.272-30.259,49.719-39.346,58.87-74.722c42.93-17.329,52.9-74.98,72.461-108.691
		c46.289-28.389,36.465-113.013,9.063-153.975c29.199-58.345-17.93-107.178-54.346-138.127c0.195-35.669-14.121-56.833-27.178-79.25
		C299.752,130.382,280.14,126.596,276.964,106.374z"/>
	<path style="fill-rule:evenodd;clip-rule:evenodd;fill:#11A32A;" d="M322.247,212.614c-5.708,4.099-11.86,7.764-22.642,6.792
		c-13.469-24.146-5.107-59.346-29.438-74.724C301.422,135.644,318.717,178.922,322.247,212.614z"/>
	<path style="fill-rule:evenodd;clip-rule:evenodd;fill:#11A32A;" d="M374.327,339.418c-12.783,2.971-10.645-8.979-20.376-9.058
		c1.826-29.666,1.445-58.835-18.115-76.987C371.324,251.627,400.626,311.798,374.327,339.418z"/>
	<path style="fill-rule:evenodd;clip-rule:evenodd;fill:#11A32A;" d="M390.182,375.648c5.547,37.031,29.092,118.691-27.178,115.483
		c-20.918-38.159,35.415-70.791,9.063-108.691C376.168,376.659,381.744,370.998,390.182,375.648z"/>
	<path style="fill-rule:evenodd;clip-rule:evenodd;fill:#11A32A;" d="M342.628,520.565c6.362,0.43,6.196,7.388,11.323,9.058
		c-3.174,37.305-32.236,87.212-70.198,70.195c0-6.035,0-12.075,0-18.115C309.654,567.597,335.113,553.051,342.628,520.565z"/>
</g>
</svg>
