<?xml version="1.0" encoding="UTF-8"?>
<svg width="3599.1" height="700.34" overflow="hidden" version="1.1" xmlns="http://www.w3.org/2000/svg" xmlns:cc="http://creativecommons.org/ns#" xmlns:dc="http://purl.org/dc/elements/1.1/" xmlns:rdf="http://www.w3.org/1999/02/22-rdf-syntax-ns#">
 <metadata>
  <rdf:RDF>
   <cc:Work rdf:about="">
    <dc:format>image/svg+xml</dc:format>
    <dc:type rdf:resource="http://purl.org/dc/dcmitype/StillImage"/>
   </cc:Work>
  </rdf:RDF>
 </metadata>
 <g transform="translate(-188.74 -17)">
  <path d="m462.28 588.13 342.96-159-3.2927-6.9975-342.96 159zm342.73-150.37 16.209-20.301-26.086-.69183z" style="-inkscape-stroke:none;fill:#999999;font-variation-settings:normal;stop-color:#000000"/>
  <path d="m464.14 145.98 342.96 159-3.2927 6.9975-342.96-159zm342.73 150.37 16.209 20.301-26.086.69183z" style="-inkscape-stroke:none;fill:#000000;font-variation-settings:normal;stop-color:#000000"/>
  <path d="m282.19 115.5c0-52.191 42.309-94.5 94.5-94.5s94.5 42.309 94.5 94.5c0 52.191-42.309 94.5-94.5 94.5s-94.5-42.309-94.5-94.5z" fill="none" fill-rule="evenodd" stroke="#000000" stroke-miterlimit="8" stroke-width="8"/>
  <path d="m242.75 141.5q.39062 1.0742.39062 1.7578.0488.63477-.34179.97656-.39063.3418-1.3184.43946-.87891.0976-2.3926.0976t-2.4414-.0976q-.8789-.0488-1.3672-.19532-.43946-.19531-.6836-.48828-.19531-.29297-.39062-.73242l-5.4199-15.381h-26.27l-5.1758 15.186q-.14648.43945-.39062.78125-.24414.29297-.73242.53711-.43946.19531-1.3184.29297-.83008.0976-2.1973.0976-1.416 0-2.3438-.14648-.87891-.0977-1.2695-.43946-.3418-.34179-.3418-.97656.0488-.68359.43946-1.7578l21.191-58.691q.19531-.53711.48828-.87891.3418-.3418.92774-.53711.63476-.19531 1.5625-.24414.97656-.09766 2.4414-.09766 1.5625 0 2.5879.09766 1.0254.04883 1.6602.24414.63477.19531.97656.58594.3418.3418.53711.87891zm-27.197-51.807h-.0488l-10.889 31.494h21.973z"/>
  <path d="m280.16 618.84c0-52.191 42.309-94.5 94.5-94.5s94.5 42.309 94.5 94.5-42.309 94.5-94.5 94.5-94.5-42.309-94.5-94.5z" fill="none" fill-rule="evenodd" stroke="#000000" stroke-miterlimit="8" stroke-width="8"/>
  <path d="m244.44 627.56q0 2.9785-.78125 5.5176-.73242 2.4902-2.0996 4.4922-1.3672 2.002-3.3203 3.5156-1.9043 1.5137-4.3457 2.5391-2.3926 1.0254-5.1758 1.5625-2.7344.48828-6.2988.48828h-16.504q-1.123 0-2.1484-.73242-.97656-.78125-.97656-2.6856v-56.348q0-1.9043.97656-2.6367 1.0254-.78125 2.1484-.78125h14.355q5.6641 0 9.2773 1.0742 3.6133 1.0742 6.0059 3.125 2.4414 2.0508 3.6621 5.0293 1.2207 2.9785 1.2207 6.7383 0 2.2461-.53711 4.2969t-1.6113 3.8086q-1.0254 1.709-2.6367 3.0762-1.5625 1.3672-3.6133 2.2461 2.5879.48828 4.834 1.8066 2.2461 1.2695 3.9062 3.2715 1.709 2.002 2.6856 4.6875.97656 2.6856.97656 5.9082zm-12.646-28.271q0-2.2949-.63477-4.1504-.63476-1.8555-2.002-3.125-1.3672-1.3184-3.5644-2.002-2.1973-.68359-5.8106-.68359h-8.6914v20.459h9.5703q3.2715 0 5.2734-.83008 2.002-.8789 3.3203-2.2949 1.3184-1.4648 1.9043-3.3691.63477-1.9531.63477-4.0039zm3.8086 28.76q0-2.832-.92773-4.9805-.87891-2.1484-2.6367-3.6133-1.709-1.4648-4.3457-2.1973-2.5879-.78125-6.543-.78125h-10.059v22.266h12.207q2.8809 0 5.0293-.6836 2.1484-.68359 3.7598-2.002 1.6602-1.3672 2.5879-3.3691.92773-2.002.92773-4.6387z"/>
  <path d="m810.38 365.5c0-52.191 42.085-94.5 94-94.5s94 42.309 94 94.5-42.085 94.5-94 94.5-94-42.309-94-94.5z" fill="none" fill-rule="evenodd" stroke="#000000" stroke-miterlimit="8" stroke-width="8" style="-inkscape-stroke:none;fill:#ffcc00;font-variation-settings:normal;stop-color:#000000;stroke-miterlimit:8;stroke-width:8;stroke:#000000"/>
  <circle cx="620.2" cy="220.4" r="60" style="fill:#d8dad9"/>
  <path d="m627.44 181.35v31.866h31.744v14.352h-31.744v31.866h-14.474v-31.866h-31.744v-14.352h31.744v-31.866z" style="stroke-width:1.5568"/>
  <circle cx="620.2" cy="500.98" r="60" style="fill:#d8dad9"/>
  <path d="m653 500.98q0 2.8126-.76016 4.1049-.68415 1.2923-2.0524 1.2923h-59.901q-1.4443 0-2.2045-1.2923-.68414-1.2923-.68414-4.1049 0-2.7366.68414-4.0289.76017-1.3683 2.2045-1.3683h59.901q1.3683 0 2.0524 1.2923.76016 1.2923.76016 4.1049z" style="stroke-width:1.5568"/>
  <path d="m366.31 127.98q0 3.0561-.55566 5.5963t-1.9051 4.3262q-1.3495 1.786-3.5721 2.7783-2.1829.95255-5.4375.95255-1.1113 0-2.2226-.19846-1.0716-.15877-1.9845-.47628-.91286-.27782-1.5876-.59535-.67473-.35721-.91287-.59535-.19844-.23812-.35721-.47627-.11906-.23813-.23813-.55566-.0794-.35721-.11907-.83349-.0397-.51597-.0397-1.2304 0-.87318.0397-1.4288.0794-.59534.23814-.91286.15876-.35721.35721-.47628.23814-.15877.55566-.15877.31751 0 .79379.31752.51597.27781 1.1907.63504.71442.3572 1.6273.67472.91287.27782 2.1433.27782 1.3494 0 2.302-.31752.95255-.35721 1.5876-1.2701.63504-.91286.95256-2.5005.31752-1.6273.31752-4.2071v-36.753q0-.27782.15876-.51597.15875-.23812.55565-.3969.3969-.15877 1.0319-.23816.67473-.07939 1.667-.07939.95256 0 1.6273.07939t1.0319.23816q.3969.15877.55566.3969.19845.23812.19845.51597z" style="stop-color:#000000;stroke-width:.81285"/>
  <path d="m406 139.97q0 .47628-.31752.71442-.31752.23812-.87318.3572t-1.6273.11908q-1.0319 0-1.667-.11908-.59534-.11908-.87317-.3572-.27782-.23816-.27782-.71442v-3.5721q-2.3417 2.5005-5.2391 3.8896-2.8577 1.3891-6.0726 1.3891-2.818 0-5.12-.75411-2.2623-.71441-3.8896-2.1036-1.5876-1.3891-2.5005-3.4133-.87318-2.0242-.87318-4.604 0-3.0164 1.2304-5.2391 1.2304-2.2226 3.5324-3.6912 2.302-1.4685 5.636-2.1829 3.334-.75411 7.5014-.75411h4.9215v-2.7783q0-2.0639-.43659-3.6515-.43659-1.5876-1.4288-2.6195-.95256-1.0716-2.5005-1.5876-1.5479-.55566-3.8102-.55566-2.4211 0-4.3659.59535-1.9051.55566-3.3736 1.2701-1.4288.67472-2.4211 1.2701-.95256.55566-1.4288.55566-.31752 0-.55566-.15877t-.43659-.47628q-.15875-.31752-.23813-.7938-.0794-.51597-.0794-1.1113 0-.99225.11907-1.5479.15875-.59535.67472-1.1113.55566-.51596 1.8654-1.1907 1.3098-.71442 3.0164-1.2701 1.7067-.59534 3.7308-.95255 2.0242-.3969 4.0881-.3969 3.8499 0 6.5488.87317 2.6989.87318 4.3659 2.5798 1.667 1.667 2.4211 4.1674t.75411 5.8344zm-6.5091-16.313h-5.5963q-2.6989 0-4.6834.47628-1.9845.43659-3.2943 1.3495-1.3098.87318-1.9448 2.1432-.59535 1.2304-.59535 2.8577 0 2.7783 1.7464 4.4453 1.786 1.6273 4.9612 1.6273 2.5798 0 4.7628-1.3098 2.2226-1.3098 4.6437-4.0087z" style="stop-color:#000000;stroke-width:.81285"/>
  <path d="m894 377.98q0 3.0561-.55566 5.5963t-1.9051 4.3262q-1.3495 1.786-3.5721 2.7783-2.1829.95255-5.4375.95255-1.1113 0-2.2226-.19846-1.0716-.15877-1.9845-.47628-.91286-.27782-1.5876-.59535-.67473-.35721-.91287-.59535-.19844-.23812-.35721-.47627-.11906-.23813-.23813-.55566-.0794-.35721-.11907-.83349-.0397-.51597-.0397-1.2304 0-.87318.0397-1.4288.0794-.59534.23814-.91286.15876-.35721.35721-.47628.23814-.15877.55566-.15877.31751 0 .79379.31752.51597.27781 1.1907.63504.71442.3572 1.6273.67472.91287.27782 2.1433.27782 1.3494 0 2.302-.31752.95255-.35721 1.5876-1.2701.63504-.91286.95256-2.5005.31752-1.6273.31752-4.2071v-36.753q0-.27782.15876-.51597.15875-.23812.55565-.3969.3969-.15877 1.0319-.23815.67473-.0794 1.667-.0794.95256 0 1.6273.0794t1.0319.23815q.3969.15877.55566.3969.19845.23813.19845.51597z" style="stop-color:#000000;stroke-width:.81285"/>
  <path d="m933.69 389.97q0 .47628-.31752.71442-.31752.23812-.87318.3572t-1.6273.11908q-1.0319 0-1.667-.11908-.59534-.11908-.87317-.3572-.27782-.23816-.27782-.71442v-3.5721q-2.3417 2.5005-5.2391 3.8896-2.8577 1.3891-6.0726 1.3891-2.818 0-5.12-.75411-2.2623-.71441-3.8896-2.1036-1.5876-1.3891-2.5005-3.4133-.87318-2.0242-.87318-4.604 0-3.0164 1.2304-5.2391 1.2304-2.2226 3.5324-3.6912 2.302-1.4685 5.636-2.1829 3.334-.75411 7.5014-.75411h4.9215v-2.7783q0-2.0639-.43659-3.6515-.43659-1.5876-1.4288-2.6195-.95256-1.0716-2.5005-1.5876-1.5479-.55566-3.8102-.55566-2.4211 0-4.3659.59535-1.9051.55566-3.3736 1.2701-1.4288.67472-2.4211 1.2701-.95256.55566-1.4288.55566-.31752 0-.55566-.15877t-.43659-.47628q-.15875-.31752-.23813-.7938-.0794-.51597-.0794-1.1113 0-.99225.11907-1.5479.15875-.59535.67472-1.1113.55566-.51596 1.8654-1.1907 1.3098-.71442 3.0164-1.2701 1.7067-.59534 3.7308-.95255 2.0242-.3969 4.0881-.3969 3.8499 0 6.5488.87317 2.6989.87318 4.3659 2.5798 1.667 1.667 2.4211 4.1674t.75411 5.8344zm-6.5091-16.313h-5.5963q-2.6989 0-4.6834.47628-1.9845.43659-3.2943 1.3495-1.3098.87318-1.9448 2.1432-.59535 1.2304-.59535 2.8577 0 2.7783 1.7464 4.4453 1.786 1.6273 4.9612 1.6273 2.5798 0 4.7628-1.3098 2.2226-1.3098 4.6437-4.0087z" style="stop-color:#000000;stroke-width:.81285"/>
  <path d="m342.69 641.98q0 .79379-.27783 1.3494-.23814.55566-.67472.91287-.3969.35721-.91287.51596-.51597.15877-1.0319.15877h-2.1829q-1.0319 0-1.8257-.19843-.75411-.23815-1.4685-.7938-.67472-.59534-1.3891-1.5876-.67473-.99225-1.5082-2.5402l-16.193-29.212q-1.2701-2.2623-2.5798-4.7231-1.2701-2.5005-2.3814-4.8422h-.0794q.0794 2.8577.11907 5.8344.0397 2.9767.0397 5.9138v30.998q0 .27781-.15876.55565-.15876.23816-.55566.3969-.35721.11908-.99224.19843-.59535.11908-1.5479.11908t-1.5876-.11908q-.59535-.0794-.95256-.19843-.35721-.15877-.51597-.3969-.15876-.27781-.15876-.55565v-47.39q0-1.5876.87318-2.2623.87318-.67472 1.9051-.67472h3.2546q1.151 0 1.9051.19846.79379.19846 1.3891.67473.63504.43659 1.1907 1.2701.59534.7938 1.2701 2.0242l12.463 22.544q1.151 2.0639 2.2226 4.0484 1.0716 1.9448 2.0639 3.8499.99225 1.9051 1.9448 3.7705.99224 1.8257 1.9448 3.6912h.0397q-.0794-3.1355-.11907-6.5091 0-3.4133 0-6.5488v-27.862q0-.27781.15876-.51596.15876-.23813.51597-.3969.39689-.19846.99224-.27782.63504-.0794 1.6273-.0794.87317 0 1.5082.0794t.99225.27782q.35721.15877.51597.3969.15875.23815.15875.51596z" style="stop-color:#000000;stroke-width:.81285"/>
  <path d="m386.07 624.39q0 1.5479-.7938 2.2226-.75411.63504-1.7464.63504h-23.417q0 2.9767.59535 5.3581t1.9845 4.088q1.3892 1.7067 3.6118 2.6195 2.2226.91286 5.4375.91286 2.5402 0 4.5246-.3969 1.9845-.43659 3.4133-.95256 1.4685-.51596 2.3814-.91286.95256-.43659 1.4288-.43659.27782 0 .47628.15877.23815.11908.35721.3969.11907.27782.15877.79379.0794.47628.0794 1.1907 0 .51597-.0397.91287-.0397.35721-.11908.67472-.0397.27782-.19846.51597-.11908.23816-.35721.47628-.19846.19846-1.2701.71442-1.0716.47628-2.7783.95255-1.7067.47628-3.969.83349-2.2226.3969-4.7628.3969-4.4056 0-7.7395-1.2304-3.2943-1.2304-5.5566-3.6515t-3.4133-6.0726q-1.151-3.6515-1.151-8.4936 0-4.604 1.1907-8.2555 1.1907-3.6912 3.4133-6.2313 2.2623-2.5798 5.4375-3.9293 3.1752-1.3891 7.1045-1.3891 4.2071 0 7.1442 1.3494 2.9767 1.3495 4.8818 3.6515 1.9051 2.2623 2.7783 5.3581.91287 3.0561.91287 6.5488zm-6.5885-1.9448q.11908-5.1597-2.302-8.0967-2.3814-2.937-7.1045-2.937-2.4211 0-4.2468.91287t-3.0561 2.4211q-1.2304 1.5082-1.9051 3.5324-.67473 1.9845-.75411 4.1674z" style="stop-color:#000000;stroke-width:.81285"/>
  <path d="m402.58 643.8q0 .31752-.15877.55566-.15877.19846-.51597.3572-.35721.15878-.99225.23816-.63503.0794-1.6273.0794-.95256 0-1.5876-.0794-.63504-.0794-1.0319-.23816-.35721-.15877-.51597-.3572-.11908-.23813-.11908-.55566v-35.721q0-.27781.11908-.51596.15877-.23813.51597-.3969.3969-.15877 1.0319-.23813.63503-.0794 1.5876-.0794.99225 0 1.6273.0794.63504.0794.99225.23813.35721.15877.51597.3969.15877.23815.15877.51596zm.75411-47.787q0 2.302-.87318 3.1355-.87318.83348-3.2149.83348-2.302 0-3.1752-.79379-.83348-.83349-.83348-3.0958 0-2.302.87317-3.1355.87318-.83349 3.2149-.83349 2.302 0 3.1355.83349.87318.79379.87318 3.0561z" style="stop-color:#000000;stroke-width:.81285"/>
  <path d="m445.44 643.8q0 .31752-.15877.55566-.15877.19846-.51597.3572-.35721.15878-.99225.23816-.63503.0794-1.5876.0794-.99225 0-1.6273-.0794-.63504-.0794-.99225-.23816-.35721-.15877-.51597-.3572-.15877-.23813-.15877-.55566v-20.917q0-3.0561-.47628-4.9215t-1.3892-3.2149q-.91286-1.3494-2.3814-2.0639-1.4288-.71442-3.3339-.71442-2.4608 0-4.9216 1.7464-2.4608 1.7464-5.1597 5.12v24.965q0 .31752-.15877.55566-.15877.19846-.51597.3572-.3572.15878-.99224.23816-.63504.0794-1.6273.0794-.95256 0-1.5876-.0794-.63504-.0794-1.0319-.23816-.35721-.15877-.51597-.3572-.11908-.23813-.11908-.55566v-35.721q0-.31751.11908-.51596.11908-.23813.47628-.3969.35721-.19847.91287-.23813.55566-.0794 1.4685-.0794.87318 0 1.4288.0794.59534.0397.91286.23813.31752.15877.43659.3969.15877.19846.15877.51596v4.7231q3.0164-3.3736 5.9932-4.9215 3.0164-1.5876 6.0726-1.5876 3.5721 0 5.9932 1.2304 2.4608 1.1907 3.969 3.2149 1.5082 2.0242 2.1432 4.7628.67473 2.6989.67473 6.5091z" style="stop-color:#000000;stroke-width:.81285"/>
  <path d="m1390.8 588.13 342.96-159-3.2928-6.9975-342.96 159zm342.73-150.37 16.209-20.301-26.086-.69183z" style="-inkscape-stroke:none;fill:#000000;font-variation-settings:normal;stop-color:#000000"/>
  <path d="m1392.6 145.98 342.96 159-3.2928 6.9975-342.96-159zm342.73 150.37 16.209 20.301-26.086.69183z" style="-inkscape-stroke:none;fill:#000000;font-variation-settings:normal;stop-color:#000000"/>
  <path d="m1210.7 115.5c0-52.191 42.309-94.5 94.5-94.5s94.5 42.309 94.5 94.5c0 52.191-42.309 94.5-94.5 94.5s-94.5-42.309-94.5-94.5z" fill="none" fill-rule="evenodd" stroke="#000000" stroke-miterlimit="8" stroke-width="8"/>
  <path d="m1171.2 141.5q.3906 1.0742.3906 1.7578.049.63477-.3418.97657-.3906.34179-1.3183.43945-.8789.0977-2.3926.0977t-2.4414-.0977q-.8789-.0488-1.3672-.19531-.4394-.19532-.6836-.48828-.1953-.29297-.3906-.73243l-5.4199-15.381h-26.27l-5.1757 15.186q-.1465.43945-.3907.78125-.2441.29297-.7324.53711-.4394.19531-1.3184.29297-.83.0977-2.1972.0977-1.416 0-2.3438-.14649-.8789-.0977-1.2695-.43945-.3418-.3418-.3418-.97656.049-.6836.4395-1.7578l21.191-58.691q.1953-.53711.4882-.87891.3418-.3418.9278-.53711.6347-.19531 1.5625-.24414.9765-.09766 2.4414-.09766 1.5625 0 2.5879.09766 1.0254.04883 1.6601.24414.6348.19531.9766.58594.3418.3418.5371.87891zm-27.197-51.807h-.049l-10.889 31.494h21.973z"/>
  <path d="m1208.6 618.84c0-52.191 42.309-94.5 94.5-94.5s94.5 42.309 94.5 94.5-42.309 94.5-94.5 94.5-94.5-42.309-94.5-94.5z" fill="none" fill-rule="evenodd" stroke="#000000" stroke-miterlimit="8" stroke-width="8"/>
  <path d="m1172.9 627.56q0 2.9785-.7813 5.5176-.7324 2.4902-2.0996 4.4922-1.3672 2.002-3.3203 3.5156-1.9043 1.5137-4.3457 2.5391-2.3926 1.0254-5.1758 1.5625-2.7344.48828-6.2988.48828h-16.504q-1.1231 0-2.1485-.73242-.9765-.78125-.9765-2.6855v-56.348q0-1.9043.9765-2.6367 1.0254-.78125 2.1485-.78125h14.355q5.6641 0 9.2774 1.0742t6.0058 3.125q2.4415 2.0508 3.6622 5.0293 1.2207 2.9785 1.2207 6.7383 0 2.2461-.5371 4.2969-.5372 2.0508-1.6114 3.8086-1.0254 1.709-2.6367 3.0762-1.5625 1.3672-3.6133 2.2461 2.5879.48828 4.834 1.8066 2.2461 1.2695 3.9063 3.2715 1.7089 2.002 2.6855 4.6875.9766 2.6855.9766 5.9082zm-12.646-28.271q0-2.2949-.6348-4.1504-.6347-1.8555-2.0019-3.125-1.3672-1.3184-3.5645-2.002-2.1973-.68359-5.8105-.68359h-8.6914v20.459h9.5703q3.2715 0 5.2734-.83008 2.002-.8789 3.3203-2.2949 1.3184-1.4648 1.9043-3.3691.6348-1.9531.6348-4.0039zm3.8086 28.76q0-2.832-.9278-4.9805-.8789-2.1484-2.6367-3.6133-1.709-1.4648-4.3457-2.1973-2.5879-.78125-6.5429-.78125h-10.059v22.266h12.207q2.8808 0 5.0293-.68359 2.1484-.6836 3.7598-2.002 1.6601-1.3672 2.5878-3.3691.9278-2.002.9278-4.6387z"/>
  <path d="m1738.9 365.5c0-52.191 42.085-94.5 94-94.5s94 42.309 94 94.5-42.085 94.5-94 94.5-94-42.309-94-94.5z" fill="none" fill-rule="evenodd" stroke="#000000" stroke-miterlimit="8" stroke-width="8" style="-inkscape-stroke:none;fill:#808080;font-variation-settings:normal;stop-color:#000000;stroke-miterlimit:8;stroke-width:8;stroke:#000000"/>
  <path d="m1294.8 127.98q0 3.0561-.5557 5.5963-.5556 2.5402-1.9051 4.3262-1.3494 1.786-3.5721 2.7783-2.1829.95255-5.4375.95255-1.1113 0-2.2226-.19846-1.0716-.15877-1.9845-.47628-.9129-.27782-1.5876-.59535-.6747-.35721-.9129-.59535-.1984-.23812-.3572-.47627-.119-.23813-.2381-.55566-.079-.35721-.1191-.83349-.04-.51597-.04-1.2304 0-.87318.04-1.4288.079-.59534.2382-.91286.1587-.35721.3572-.47628.2381-.15877.5556-.15877t.7938.31752q.516.27781 1.1907.63504.7144.3572 1.6273.67472.9129.27782 2.1433.27782 1.3494 0 2.302-.31752.9525-.35721 1.5876-1.2701.635-.91286.9525-2.5005.3175-1.6273.3175-4.2071v-36.753q0-.27782.1588-.51597.1588-.23812.5557-.3969.3969-.15877 1.0319-.23816.6747-.07939 1.667-.07939.9525 0 1.6272.07939.6748.07939 1.032.23816.3969.15877.5556.3969.1985.23812.1985.51597z" style="stop-color:#000000;stroke-width:.81285"/>
  <path d="m1334.5 139.97q0 .47628-.3175.71442-.3175.23812-.8731.3572-.5557.11908-1.6273.11908-1.032 0-1.667-.11908-.5954-.11908-.8732-.3572-.2778-.23816-.2778-.71442v-3.5721q-2.3417 2.5005-5.2391 3.8896-2.8576 1.3891-6.0725 1.3891-2.818 0-5.12-.75411-2.2623-.71441-3.8896-2.1036-1.5876-1.3891-2.5005-3.4133-.8731-2.0242-.8731-4.604 0-3.0164 1.2303-5.2391 1.2304-2.2226 3.5324-3.6912 2.302-1.4685 5.636-2.1829 3.3339-.75411 7.5014-.75411h4.9215v-2.7783q0-2.0639-.4366-3.6515-.4366-1.5876-1.4288-2.6195-.9526-1.0716-2.5005-1.5876-1.5479-.55566-3.8102-.55566-2.4211 0-4.3659.59535-1.9051.55566-3.3736 1.2701-1.4288.67472-2.4211 1.2701-.9526.55566-1.4288.55566-.3175 0-.5557-.15877-.2381-.15877-.4366-.47628-.1587-.31752-.2381-.7938-.079-.51597-.079-1.1113 0-.99225.1191-1.5479.1587-.59535.6747-1.1113.5557-.51596 1.8654-1.1907 1.3098-.71442 3.0165-1.2701 1.7066-.59534 3.7308-.95255 2.0242-.3969 4.0881-.3969 3.8499 0 6.5488.87317 2.6989.87318 4.3659 2.5798 1.6669 1.667 2.421 4.1674.7542 2.5005.7542 5.8344zm-6.5091-16.313h-5.5963q-2.6989 0-4.6834.47628-1.9845.43659-3.2942 1.3495-1.3098.87318-1.9448 2.1432-.5954 1.2304-.5954 2.8577 0 2.7783 1.7464 4.4453 1.786 1.6273 4.9612 1.6273 2.5799 0 4.7628-1.3098 2.2226-1.3098 4.6437-4.0087z" style="stop-color:#000000;stroke-width:.81285"/>
  <path d="m1800.9 388.64q0 .79379-.2778 1.3494-.2381.55566-.6747.91287-.3969.35721-.9129.51596-.516.15877-1.0319.15877h-2.183q-1.0319 0-1.8257-.19843-.7541-.23815-1.4685-.7938-.6748-.59534-1.3892-1.5876-.6747-.99225-1.5082-2.5402l-16.193-29.212q-1.2701-2.2623-2.5799-4.7231-1.2701-2.5005-2.3814-4.8422h-.079q.079 2.8577.1191 5.8344.04 2.9767.04 5.9138v30.998q0 .27781-.1588.55565-.1587.23816-.5556.3969-.3572.11908-.9923.19843-.5953.11908-1.5479.11908-.9525 0-1.5876-.11908-.5953-.0794-.9525-.19843-.3572-.15877-.516-.3969-.1587-.27781-.1587-.55565v-47.39q0-1.5876.8731-2.2623.8732-.67472 1.9051-.67472h3.2546q1.151 0 1.9051.19846.7938.19846 1.3892.67473.635.43659 1.1907 1.2701.5953.7938 1.27 2.0242l12.463 22.544q1.151 2.0639 2.2226 4.0484 1.0716 1.9448 2.0639 3.8499.9922 1.9051 1.9448 3.7705.9922 1.8257 1.9448 3.6912h.04q-.079-3.1355-.1191-6.5091 0-3.4133 0-6.5488v-27.862q0-.27781.1587-.51596.1588-.23813.516-.3969.3969-.19846.9923-.27782.635-.0794 1.6272-.0794.8732 0 1.5083.0794.635.0794.9922.27782.3572.15877.516.3969.1587.23815.1587.51596z" style="fill:#ffffff;stop-color:#000000;stroke-width:.81285"/>
  <path d="m1844.3 371.06q0 1.5479-.7937 2.2226-.7542.63504-1.7464.63504h-23.417q0 2.9767.5953 5.3581.5954 2.3814 1.9845 4.088 1.3892 1.7067 3.6118 2.6195 2.2226.91286 5.4375.91286 2.5402 0 4.5247-.3969 1.9844-.43659 3.4133-.95256 1.4685-.51596 2.3814-.91286.9525-.43659 1.4288-.43659.2778 0 .4763.15877.2381.11908.3572.3969t.1588.79379q.079.47628.079 1.1907 0 .51597-.04.91287-.04.35721-.1191.67472-.04.27782-.1985.51597-.1191.23816-.3572.47628-.1985.19846-1.2701.71442-1.0716.47628-2.7783.95255-1.7066.47628-3.9689.83349-2.2227.3969-4.7628.3969-4.4056 0-7.7396-1.2304-3.2942-1.2304-5.5565-3.6515-2.2624-2.4211-3.4134-6.0726t-1.151-8.4936q0-4.604 1.1907-8.2555 1.1907-3.6912 3.4134-6.2313 2.2623-2.5798 5.4375-3.9293 3.1752-1.3891 7.1045-1.3891 4.2071 0 7.1441 1.3494 2.9768 1.3495 4.8819 3.6515 1.9051 2.2623 2.7783 5.3581.9128 3.0561.9128 6.5488zm-6.5885-1.9448q.1191-5.1597-2.302-8.0967-2.3814-2.937-7.1045-2.937-2.421 0-4.2468.91287-1.8257.91287-3.0561 2.4211t-1.9051 3.5324q-.6747 1.9845-.7541 4.1674z" style="fill:#ffffff;stop-color:#000000;stroke-width:.81285"/>
  <path d="m1860.8 390.46q0 .31752-.1587.55566-.1588.19846-.516.3572-.3572.15878-.9923.23816-.635.0794-1.6272.0794-.9526 0-1.5876-.0794-.6351-.0794-1.032-.23816-.3572-.15877-.5159-.3572-.1191-.23813-.1191-.55566v-35.721q0-.27781.1191-.51596.1587-.23813.5159-.3969.3969-.15877 1.032-.23813.635-.0794 1.5876-.0794.9922 0 1.6272.0794.6351.0794.9923.23813.3572.15877.516.3969.1587.23815.1587.51596zm.7541-47.787q0 2.302-.8731 3.1355-.8732.83348-3.2149.83348-2.302 0-3.1752-.79379-.8335-.83349-.8335-3.0958 0-2.302.8732-3.1355.8732-.83349 3.2149-.83349 2.302 0 3.1355.83349.8731.79379.8731 3.0561z" style="fill:#ffffff;stop-color:#000000;stroke-width:.81285"/>
  <path d="m1903.6 390.46q0 .31752-.1588.55566-.1588.19846-.516.3572-.3572.15878-.9922.23816-.635.0794-1.5876.0794-.9922 0-1.6273-.0794-.635-.0794-.9922-.23816-.3572-.15877-.516-.3572-.1588-.23813-.1588-.55566v-20.917q0-3.0561-.4762-4.9215-.4763-1.8654-1.3892-3.2149-.9129-1.3494-2.3814-2.0639-1.4288-.71442-3.3339-.71442-2.4608 0-4.9216 1.7464-2.4607 1.7464-5.1597 5.12v24.965q0 .31752-.1587.55566-.1588.19846-.516.3572-.3572.15878-.9922.23816-.6351.0794-1.6273.0794-.9526 0-1.5876-.0794-.6351-.0794-1.032-.23816-.3572-.15877-.5159-.3572-.1191-.23813-.1191-.55566v-35.721q0-.31751.1191-.51596.1191-.23813.4763-.3969.3572-.19847.9128-.23813.5557-.0794 1.4685-.0794.8732 0 1.4289.0794.5953.0397.9128.23813.3176.15877.4366.3969.1588.19846.1588.51596v4.7231q3.0164-3.3736 5.9932-4.9215 3.0164-1.5876 6.0725-1.5876 3.5721 0 5.9932 1.2304 2.4608 1.1907 3.969 3.2149 1.5082 2.0242 2.1432 4.7628.6748 2.6989.6748 6.5091z" style="fill:#ffffff;stop-color:#000000;stroke-width:.81285"/>
  <path d="m1292.8 631.32q0 3.0561-.5557 5.5963-.5556 2.5402-1.9051 4.3262-1.3494 1.786-3.5721 2.7783-2.1829.95255-5.4375.95255-1.1113 0-2.2226-.19846-1.0716-.15877-1.9845-.47628-.9129-.27782-1.5876-.59535-.6747-.35721-.9129-.59535-.1984-.23812-.3572-.47627-.119-.23813-.2381-.55566-.079-.35721-.1191-.83349-.04-.51597-.04-1.2304 0-.87318.04-1.4288.079-.59534.2382-.91286.1587-.35721.3572-.47628.2381-.15877.5556-.15877t.7938.31752q.516.27781 1.1907.63504.7144.3572 1.6273.67472.9129.27782 2.1433.27782 1.3494 0 2.302-.31752.9525-.35721 1.5876-1.2701.635-.91286.9525-2.5005.3175-1.6273.3175-4.2071v-36.753q0-.27782.1588-.51597.1588-.23812.5557-.3969.3969-.15877 1.0319-.23815.6747-.0794 1.667-.0794.9525 0 1.6272.0794.6748.0794 1.032.23815.3969.15877.5556.3969.1985.23813.1985.51597z" style="stop-color:#000000;stroke-width:.81285"/>
  <path d="m1332.4 643.3q0 .47628-.3175.71442-.3175.23812-.8731.3572-.5557.11908-1.6273.11908-1.032 0-1.667-.11908-.5954-.11908-.8732-.3572-.2778-.23816-.2778-.71442v-3.5721q-2.3417 2.5005-5.2391 3.8896-2.8576 1.3891-6.0725 1.3891-2.818 0-5.12-.75411-2.2623-.71441-3.8896-2.1036-1.5876-1.3891-2.5005-3.4133-.8731-2.0242-.8731-4.604 0-3.0164 1.2303-5.2391 1.2304-2.2226 3.5324-3.6912 2.302-1.4685 5.636-2.1829 3.3339-.75411 7.5014-.75411h4.9215v-2.7783q0-2.0639-.4366-3.6515-.4366-1.5876-1.4288-2.6195-.9526-1.0716-2.5005-1.5876-1.5479-.55566-3.8102-.55566-2.4211 0-4.3659.59535-1.9051.55566-3.3736 1.2701-1.4288.67472-2.4211 1.2701-.9526.55566-1.4288.55566-.3175 0-.5557-.15877-.2381-.15877-.4366-.47628-.1587-.31752-.2381-.7938-.079-.51597-.079-1.1113 0-.99225.1191-1.5479.1587-.59535.6747-1.1113.5557-.51596 1.8654-1.1907 1.3098-.71442 3.0165-1.2701 1.7066-.59534 3.7308-.95255 2.0242-.3969 4.0881-.3969 3.8499 0 6.5488.87317 2.6989.87318 4.3659 2.5798 1.6669 1.667 2.421 4.1674.7542 2.5005.7542 5.8344zm-6.5091-16.313h-5.5963q-2.6989 0-4.6834.47628-1.9845.43659-3.2942 1.3495-1.3098.87318-1.9448 2.1432-.5954 1.2304-.5954 2.8577 0 2.7783 1.7464 4.4453 1.786 1.6273 4.9612 1.6273 2.5799 0 4.7628-1.3098 2.2226-1.3098 4.6437-4.0087z" style="stop-color:#000000;stroke-width:.81285"/>
  <circle cx="1570.2" cy="220.4" r="60" style="fill:#d8dad9"/>
  <path d="m1577.4 181.35v31.866h31.744v14.352h-31.744v31.866h-14.474v-31.866h-31.744v-14.352h31.744v-31.866z" style="stroke-width:1.5568"/>
  <circle cx="1570.2" cy="500.98" r="60" style="fill:#d8dad9"/>
  <path d="m1603 500.98q0 2.8126-.7602 4.1049-.6841 1.2923-2.0524 1.2923h-59.901q-1.4443 0-2.2044-1.2923-.6842-1.2923-.6842-4.1049 0-2.7366.6842-4.0289.7601-1.3683 2.2044-1.3683h59.901q1.3683 0 2.0524 1.2923.7602 1.2923.7602 4.1049z" style="stroke-width:1.5568"/>
  <path d="m2319.2 588.13 342.96-159-3.2928-6.9975-342.96 159zm342.73-150.37 16.209-20.301-26.086-.69183z" style="-inkscape-stroke:none;fill:#999999;font-variation-settings:normal;stop-color:#000000"/>
  <path d="m2321.1 145.98 342.96 159-3.2928 6.9975-342.96-159zm342.73 150.37 16.209 20.301-26.086.69183z" style="-inkscape-stroke:none;fill:#999999;font-variation-settings:normal;stop-color:#000000"/>
  <path d="m2139.1 115.5c0-52.191 42.309-94.5 94.5-94.5s94.5 42.309 94.5 94.5c0 52.191-42.309 94.5-94.5 94.5s-94.5-42.309-94.5-94.5z" fill="none" fill-rule="evenodd" stroke="#000000" stroke-miterlimit="8" stroke-width="8"/>
  <path d="m2099.7 141.5q.3906 1.0742.3906 1.7578.049.63477-.3418.97657-.3906.34179-1.3183.43945-.8789.0977-2.3926.0977t-2.4414-.0977q-.8789-.0488-1.3672-.19531-.4394-.19531-.6836-.48828-.1953-.29297-.3906-.73243l-5.4199-15.381h-26.27l-5.1757 15.186q-.1465.43946-.3907.78125-.2441.29297-.7324.53711-.4394.19531-1.3184.29297-.83.0977-2.1972.0977-1.416 0-2.3438-.14649-.8789-.0976-1.2695-.43945-.3418-.3418-.3418-.97656.049-.6836.4395-1.7578l21.191-58.691q.1953-.53711.4882-.87891.3418-.3418.9278-.53711.6347-.19531 1.5625-.24414.9765-.09766 2.4414-.09766 1.5625 0 2.5879.09766 1.0254.04883 1.6601.24414.6348.19531.9766.58594.3418.3418.5371.87891zm-27.197-51.807h-.049l-10.889 31.494h21.973z"/>
  <path d="m2137.1 618.84c0-52.191 42.309-94.5 94.5-94.5s94.5 42.309 94.5 94.5-42.309 94.5-94.5 94.5-94.5-42.309-94.5-94.5z" fill="none" fill-rule="evenodd" stroke="#000000" stroke-miterlimit="8" stroke-width="8"/>
  <path d="m2101.4 627.56q0 2.9785-.7812 5.5176-.7324 2.4902-2.0996 4.4922-1.3672 2.002-3.3203 3.5156-1.9043 1.5137-4.3457 2.5391-2.3926 1.0254-5.1758 1.5625-2.7344.48828-6.2988.48828h-16.504q-1.1231 0-2.1485-.73242-.9765-.78125-.9765-2.6856v-56.348q0-1.9043.9765-2.6367 1.0254-.78125 2.1485-.78125h14.355q5.6641 0 9.2774 1.0742 3.6132 1.0742 6.0058 3.125 2.4414 2.0508 3.6621 5.0293 1.2207 2.9785 1.2207 6.7383 0 2.2461-.5371 4.2969t-1.6113 3.8086q-1.0254 1.709-2.6367 3.0762-1.5625 1.3672-3.6133 2.2461 2.5879.48828 4.834 1.8066 2.2461 1.2695 3.9062 3.2715 1.709 2.002 2.6856 4.6875.9765 2.6856.9765 5.9082zm-12.646-28.271q0-2.2949-.6348-4.1504t-2.002-3.125q-1.3671-1.3184-3.5644-2.002t-5.8106-.68359h-8.6914v20.459h9.5703q3.2715 0 5.2735-.83008 2.0019-.8789 3.3203-2.2949 1.3184-1.4648 1.9043-3.3691.6348-1.9531.6348-4.0039zm3.8086 28.76q0-2.832-.9278-4.9805-.8789-2.1484-2.6367-3.6133-1.709-1.4648-4.3457-2.1973-2.5879-.78125-6.543-.78125h-10.059v22.266h12.207q2.8808 0 5.0293-.6836 2.1484-.68359 3.7597-2.002 1.6602-1.3672 2.5879-3.3691.9278-2.002.9278-4.6387z"/>
  <path d="m2667.3 365.5c0-52.191 42.085-94.5 94-94.5s94 42.309 94 94.5-42.085 94.5-94 94.5-94-42.309-94-94.5z" fill="none" fill-rule="evenodd" stroke="#000000" stroke-miterlimit="8" stroke-width="8" style="-inkscape-stroke:none;fill:#808080;font-variation-settings:normal;stop-color:#000000;stroke-miterlimit:8;stroke-width:8;stroke:#000000"/>
  <path d="m2201.7 138.64q0 .79379-.2778 1.3494-.2381.55566-.6747.91287-.3969.35721-.9129.51596-.516.15877-1.0319.15877h-2.183q-1.0319 0-1.8257-.19843-.7541-.23815-1.4685-.7938-.6748-.59534-1.3892-1.5876-.6747-.99225-1.5082-2.5402l-16.193-29.212q-1.2701-2.2623-2.5799-4.7231-1.2701-2.5005-2.3814-4.8422h-.079q.079 2.8577.1191 5.8344.04 2.9767.04 5.9138v30.998q0 .27781-.1588.55565-.1587.23816-.5556.3969-.3572.11908-.9923.19843-.5953.11908-1.5479.11908-.9525 0-1.5876-.11908-.5953-.0794-.9525-.19843-.3572-.15877-.516-.3969-.1587-.27781-.1587-.55565v-47.39q0-1.5876.8731-2.2623.8732-.67472 1.9051-.67472h3.2546q1.151 0 1.9051.19846.7938.19846 1.3892.67473.635.43659 1.1907 1.2701.5953.79379 1.27 2.0242l12.463 22.544q1.151 2.0639 2.2226 4.0484 1.0716 1.9448 2.0639 3.8499.9922 1.9051 1.9448 3.7705.9922 1.8257 1.9448 3.6912h.04q-.079-3.1355-.1191-6.5091 0-3.4133 0-6.5488v-27.862q0-.27782.1587-.51597.1588-.23812.516-.3969.3969-.19846.9923-.27782.635-.07939 1.6272-.07939.8732 0 1.5083.07939.635.07939.9922.27782.3572.15877.516.3969.1587.23816.1587.51597z" style="stop-color:#000000;stroke-width:.81285"/>
  <path d="m2245.1 121.06q0 1.5479-.7937 2.2226-.7542.63504-1.7464.63504h-23.417q0 2.9767.5953 5.3581.5954 2.3814 1.9845 4.088 1.3892 1.7067 3.6118 2.6195 2.2226.91286 5.4375.91286 2.5402 0 4.5247-.3969 1.9844-.43659 3.4133-.95256 1.4685-.51596 2.3814-.91286.9525-.43659 1.4288-.43659.2778 0 .4763.15877.2381.11908.3572.3969t.1588.79379q.079.47628.079 1.1907 0 .51597-.04.91287-.04.35721-.1191.67472-.04.27782-.1985.51597-.1191.23816-.3572.47628-.1985.19846-1.2701.71442-1.0716.47628-2.7783.95255-1.7066.47628-3.9689.83349-2.2227.3969-4.7628.3969-4.4056 0-7.7396-1.2304-3.2942-1.2304-5.5565-3.6515-2.2624-2.4211-3.4134-6.0726t-1.151-8.4936q0-4.604 1.1907-8.2555 1.1907-3.6912 3.4134-6.2313 2.2623-2.5798 5.4375-3.9293 3.1752-1.3891 7.1045-1.3891 4.2071 0 7.1441 1.3494 2.9768 1.3495 4.8819 3.6515 1.9051 2.2623 2.7783 5.3581.9128 3.0561.9128 6.5488zm-6.5885-1.9448q.1191-5.1597-2.302-8.0967-2.3814-2.937-7.1045-2.937-2.421 0-4.2468.91287-1.8257.91287-3.0561 2.4211t-1.9051 3.5324q-.6747 1.9845-.7541 4.1674z" style="stop-color:#000000;stroke-width:.81285"/>
  <path d="m2261.6 140.46q0 .31752-.1587.55566-.1588.19846-.516.3572-.3572.15878-.9923.23816-.635.0794-1.6272.0794-.9526 0-1.5876-.0794-.6351-.0794-1.032-.23816-.3572-.15877-.5159-.3572-.1191-.23813-.1191-.55566v-35.721q0-.27781.1191-.51596.1587-.23813.5159-.3969.3969-.15877 1.032-.23813.635-.0794 1.5876-.0794.9922 0 1.6272.0794.6351.0794.9923.23813.3572.15877.516.3969.1587.23815.1587.51596zm.7541-47.787q0 2.302-.8731 3.1355-.8732.83349-3.2149.83349-2.302 0-3.1752-.7938-.8335-.83349-.8335-3.0958 0-2.302.8732-3.1355.8732-.83348 3.2149-.83348 2.302 0 3.1355.83348.8731.7938.8731 3.0561z" style="stop-color:#000000;stroke-width:.81285"/>
  <path d="m2304.4 140.46q0 .31752-.1588.55566-.1588.19846-.516.3572-.3572.15878-.9922.23816-.635.0794-1.5876.0794-.9922 0-1.6273-.0794-.635-.0794-.9922-.23816-.3572-.15877-.516-.3572-.1588-.23813-.1588-.55566v-20.917q0-3.0561-.4762-4.9215-.4763-1.8654-1.3892-3.2149-.9129-1.3494-2.3814-2.0639-1.4288-.71442-3.3339-.71442-2.4608 0-4.9216 1.7464-2.4607 1.7464-5.1597 5.12v24.965q0 .31752-.1587.55566-.1588.19846-.516.3572-.3572.15878-.9922.23816-.6351.0794-1.6273.0794-.9526 0-1.5876-.0794-.6351-.0794-1.032-.23816-.3572-.15877-.5159-.3572-.1191-.23813-.1191-.55566v-35.721q0-.31751.1191-.51596.1191-.23813.4763-.3969.3572-.19847.9128-.23813.5557-.0794 1.4685-.0794.8732 0 1.4289.0794.5953.0397.9128.23813.3176.15877.4366.3969.1588.19846.1588.51596v4.7231q3.0164-3.3736 5.9932-4.9215 3.0164-1.5876 6.0725-1.5876 3.5721 0 5.9932 1.2304 2.4608 1.1907 3.969 3.2149 1.5082 2.0242 2.1432 4.7628.6748 2.6989.6748 6.5091z" style="stop-color:#000000;stroke-width:.81285"/>
  <path d="m2729.4 388.64q0 .79379-.2778 1.3494-.2381.55566-.6747.91287-.3969.35721-.9129.51596-.516.15877-1.0319.15877h-2.183q-1.0319 0-1.8257-.19843-.7541-.23815-1.4685-.7938-.6748-.59534-1.3892-1.5876-.6747-.99225-1.5082-2.5402l-16.193-29.212q-1.2701-2.2623-2.5799-4.7231-1.2701-2.5005-2.3814-4.8422h-.079q.079 2.8577.1191 5.8344.04 2.9767.04 5.9138v30.998q0 .27781-.1588.55565-.1587.23816-.5556.3969-.3572.11908-.9923.19843-.5953.11908-1.5479.11908-.9525 0-1.5876-.11908-.5953-.0794-.9525-.19843-.3572-.15877-.516-.3969-.1587-.27781-.1587-.55565v-47.39q0-1.5876.8731-2.2623.8732-.67472 1.9051-.67472h3.2546q1.151 0 1.9051.19846.7938.19846 1.3892.67473.635.43659 1.1907 1.2701.5953.7938 1.27 2.0242l12.463 22.544q1.151 2.0639 2.2226 4.0484 1.0716 1.9448 2.0639 3.8499.9922 1.9051 1.9448 3.7705.9922 1.8257 1.9448 3.6912h.04q-.079-3.1355-.1191-6.5091 0-3.4133 0-6.5488v-27.862q0-.27781.1587-.51596.1588-.23813.516-.3969.3969-.19846.9923-.27782.635-.0794 1.6272-.0794.8732 0 1.5083.0794.635.0794.9922.27782.3572.15877.516.3969.1587.23815.1587.51596z" style="fill:#ffffff;stop-color:#000000;stroke-width:.81285"/>
  <path d="m2772.7 371.06q0 1.5479-.7937 2.2226-.7542.63504-1.7464.63504h-23.417q0 2.9767.5953 5.3581.5954 2.3814 1.9845 4.088 1.3892 1.7067 3.6118 2.6195 2.2226.91286 5.4375.91286 2.5402 0 4.5247-.3969 1.9844-.43659 3.4133-.95256 1.4685-.51596 2.3814-.91286.9525-.43659 1.4288-.43659.2778 0 .4763.15877.2381.11908.3572.3969t.1588.79379q.079.47628.079 1.1907 0 .51597-.04.91287-.04.35721-.1191.67472-.04.27782-.1985.51597-.1191.23816-.3572.47628-.1985.19846-1.2701.71442-1.0716.47628-2.7783.95255-1.7066.47628-3.9689.83349-2.2227.3969-4.7628.3969-4.4056 0-7.7396-1.2304-3.2942-1.2304-5.5565-3.6515-2.2624-2.4211-3.4134-6.0726t-1.151-8.4936q0-4.604 1.1907-8.2555 1.1907-3.6912 3.4134-6.2313 2.2623-2.5798 5.4375-3.9293 3.1752-1.3891 7.1045-1.3891 4.2071 0 7.1441 1.3494 2.9768 1.3495 4.8819 3.6515 1.9051 2.2623 2.7783 5.3581.9128 3.0561.9128 6.5488zm-6.5885-1.9448q.1191-5.1597-2.302-8.0967-2.3814-2.937-7.1045-2.937-2.421 0-4.2468.91287-1.8257.91287-3.0561 2.4211t-1.9051 3.5324q-.6747 1.9845-.7541 4.1674z" style="fill:#ffffff;stop-color:#000000;stroke-width:.81285"/>
  <path d="m2789.3 390.46q0 .31752-.1587.55566-.1588.19846-.516.3572-.3572.15878-.9923.23816-.635.0794-1.6272.0794-.9526 0-1.5876-.0794-.6351-.0794-1.032-.23816-.3572-.15877-.5159-.3572-.1191-.23813-.1191-.55566v-35.721q0-.27781.1191-.51596.1587-.23813.5159-.3969.3969-.15877 1.032-.23813.635-.0794 1.5876-.0794.9922 0 1.6272.0794.6351.0794.9923.23813.3572.15877.516.3969.1587.23815.1587.51596zm.7541-47.787q0 2.302-.8731 3.1355-.8732.83348-3.2149.83348-2.302 0-3.1752-.79379-.8335-.83349-.8335-3.0958 0-2.302.8732-3.1355.8732-.83349 3.2149-.83349 2.302 0 3.1355.83349.8731.79379.8731 3.0561z" style="fill:#ffffff;stop-color:#000000;stroke-width:.81285"/>
  <path d="m2832.1 390.46q0 .31752-.1588.55566-.1588.19846-.516.3572-.3572.15878-.9922.23816-.635.0794-1.5876.0794-.9922 0-1.6273-.0794-.635-.0794-.9922-.23816-.3572-.15877-.516-.3572-.1588-.23813-.1588-.55566v-20.917q0-3.0561-.4762-4.9215-.4763-1.8654-1.3892-3.2149-.9129-1.3494-2.3814-2.0639-1.4288-.71442-3.3339-.71442-2.4608 0-4.9216 1.7464-2.4607 1.7464-5.1597 5.12v24.965q0 .31752-.1587.55566-.1588.19846-.516.3572-.3572.15878-.9922.23816-.6351.0794-1.6273.0794-.9526 0-1.5876-.0794-.6351-.0794-1.032-.23816-.3572-.15877-.5159-.3572-.1191-.23813-.1191-.55566v-35.721q0-.31751.1191-.51596.1191-.23813.4763-.3969.3572-.19847.9128-.23813.5557-.0794 1.4685-.0794.8732 0 1.4289.0794.5953.0397.9128.23813.3176.15877.4366.3969.1588.19846.1588.51596v4.7231q3.0164-3.3736 5.9932-4.9215 3.0164-1.5876 6.0725-1.5876 3.5721 0 5.9932 1.2304 2.4608 1.1907 3.969 3.2149 1.5082 2.0242 2.1432 4.7628.6748 2.6989.6748 6.5091z" style="fill:#ffffff;stop-color:#000000;stroke-width:.81285"/>
  <path d="m2199.6 641.98q0 .79379-.2778 1.3494-.2381.55566-.6747.91287-.3969.35721-.9129.51596-.516.15877-1.0319.15877h-2.183q-1.0319 0-1.8257-.19843-.7541-.23815-1.4685-.7938-.6748-.59534-1.3892-1.5876-.6747-.99225-1.5082-2.5402l-16.193-29.212q-1.2701-2.2623-2.5799-4.7231-1.2701-2.5005-2.3814-4.8422h-.079q.079 2.8577.1191 5.8344.04 2.9767.04 5.9138v30.998q0 .27781-.1588.55565-.1587.23816-.5556.3969-.3572.11908-.9923.19843-.5953.11908-1.5479.11908-.9525 0-1.5876-.11908-.5953-.0794-.9525-.19843-.3572-.15877-.516-.3969-.1587-.27781-.1587-.55565v-47.39q0-1.5876.8731-2.2623.8732-.67472 1.9051-.67472h3.2546q1.151 0 1.9051.19846.7938.19846 1.3892.67473.635.43659 1.1907 1.2701.5953.7938 1.27 2.0242l12.463 22.544q1.151 2.0639 2.2226 4.0484 1.0716 1.9448 2.0639 3.8499.9922 1.9051 1.9448 3.7705.9922 1.8257 1.9448 3.6912h.04q-.079-3.1355-.1191-6.5091 0-3.4133 0-6.5488v-27.862q0-.27781.1587-.51596.1588-.23813.516-.3969.3969-.19846.9923-.27782.635-.0794 1.6272-.0794.8732 0 1.5083.0794.635.0794.9922.27782.3572.15877.516.3969.1587.23815.1587.51596z" style="stop-color:#000000;stroke-width:.81285"/>
  <path d="m2243 624.39q0 1.5479-.7937 2.2226-.7542.63504-1.7464.63504h-23.417q0 2.9767.5953 5.3581.5954 2.3814 1.9845 4.088 1.3892 1.7067 3.6118 2.6195 2.2226.91286 5.4375.91286 2.5402 0 4.5247-.3969 1.9844-.43659 3.4133-.95256 1.4685-.51596 2.3814-.91286.9525-.43659 1.4288-.43659.2778 0 .4763.15877.2381.11908.3572.3969t.1588.79379q.079.47628.079 1.1907 0 .51597-.04.91287-.04.35721-.1191.67472-.04.27782-.1985.51597-.1191.23816-.3572.47628-.1985.19846-1.2701.71442-1.0716.47628-2.7783.95255-1.7066.47628-3.9689.83349-2.2227.3969-4.7628.3969-4.4056 0-7.7396-1.2304-3.2942-1.2304-5.5565-3.6515-2.2624-2.4211-3.4134-6.0726t-1.151-8.4936q0-4.604 1.1907-8.2555 1.1907-3.6912 3.4134-6.2313 2.2623-2.5798 5.4375-3.9293 3.1752-1.3891 7.1045-1.3891 4.2071 0 7.1441 1.3494 2.9768 1.3495 4.8819 3.6515 1.9051 2.2623 2.7783 5.3581.9128 3.0561.9128 6.5488zm-6.5885-1.9448q.1191-5.1597-2.302-8.0967-2.3814-2.937-7.1045-2.937-2.421 0-4.2468.91287-1.8257.91287-3.0561 2.4211t-1.9051 3.5324q-.6747 1.9845-.7541 4.1674z" style="stop-color:#000000;stroke-width:.81285"/>
  <path d="m2259.5 643.8q0 .31752-.1587.55566-.1588.19846-.516.3572-.3572.15878-.9923.23816-.635.0794-1.6272.0794-.9526 0-1.5876-.0794-.6351-.0794-1.032-.23816-.3572-.15877-.5159-.3572-.1191-.23813-.1191-.55566v-35.721q0-.27781.1191-.51596.1587-.23813.5159-.3969.3969-.15877 1.032-.23813.635-.0794 1.5876-.0794.9922 0 1.6272.0794.6351.0794.9923.23813.3572.15877.516.3969.1587.23815.1587.51596zm.7541-47.787q0 2.302-.8731 3.1355-.8732.83348-3.2149.83348-2.302 0-3.1752-.79379-.8335-.83349-.8335-3.0958 0-2.302.8732-3.1355.8732-.83349 3.2149-.83349 2.302 0 3.1355.83349.8731.79379.8731 3.0561z" style="stop-color:#000000;stroke-width:.81285"/>
  <path d="m2302.4 643.8q0 .31752-.1588.55566-.1588.19846-.516.3572-.3572.15878-.9922.23816-.635.0794-1.5876.0794-.9922 0-1.6273-.0794-.635-.0794-.9922-.23816-.3572-.15877-.516-.3572-.1588-.23813-.1588-.55566v-20.917q0-3.0561-.4762-4.9215-.4763-1.8654-1.3892-3.2149-.9129-1.3494-2.3814-2.0639-1.4288-.71442-3.3339-.71442-2.4608 0-4.9216 1.7464-2.4607 1.7464-5.1597 5.12v24.965q0 .31752-.1587.55566-.1588.19846-.516.3572-.3572.15878-.9922.23816-.6351.0794-1.6273.0794-.9526 0-1.5876-.0794-.6351-.0794-1.032-.23816-.3572-.15877-.5159-.3572-.1191-.23813-.1191-.55566v-35.721q0-.31751.1191-.51596.1191-.23813.4763-.3969.3572-.19847.9128-.23813.5557-.0794 1.4685-.0794.8732 0 1.4289.0794.5953.0397.9128.23813.3176.15877.4366.3969.1588.19846.1588.51596v4.7231q3.0164-3.3736 5.9932-4.9215 3.0164-1.5876 6.0725-1.5876 3.5721 0 5.9932 1.2304 2.4608 1.1907 3.969 3.2149 1.5082 2.0242 2.1432 4.7628.6748 2.6989.6748 6.5091z" style="stop-color:#000000;stroke-width:.81285"/>
  <path d="m3247.7 588.13 342.96-159-3.2928-6.9975-342.96 159zm342.73-150.37 16.209-20.301-26.086-.69183z" style="-inkscape-stroke:none;fill:#000000;font-variation-settings:normal;stop-color:#000000"/>
  <path d="m3249.6 145.98 342.96 159-3.2928 6.9975-342.96-159zm342.73 150.37 16.209 20.301-26.086.69183z" style="-inkscape-stroke:none;fill:#999999;font-variation-settings:normal;stop-color:#000000"/>
  <path d="m3067.6 115.5c0-52.191 42.309-94.5 94.5-94.5s94.5 42.309 94.5 94.5c0 52.191-42.309 94.5-94.5 94.5s-94.5-42.309-94.5-94.5z" fill="none" fill-rule="evenodd" stroke="#000000" stroke-miterlimit="8" stroke-width="8"/>
  <path d="m3028.2 141.5q.3907 1.0742.3907 1.7578.049.63477-.3418.97657-.3906.34179-1.3184.43945-.8789.0977-2.3926.0977-1.5136 0-2.4414-.0977-.8789-.0488-1.3672-.19531-.4394-.19531-.6835-.48828-.1954-.29297-.3907-.73243l-5.4199-15.381h-26.27l-5.1758 15.186q-.1465.43946-.3906.78125-.2442.29297-.7325.53711-.4394.19531-1.3183.29297-.8301.0977-2.1973.0977-1.416 0-2.3437-.14649-.8789-.0976-1.2696-.43945-.3418-.3418-.3418-.97656.049-.6836.4395-1.7578l21.191-58.691q.1953-.53711.4883-.87891.3418-.3418.9277-.53711.6348-.19531 1.5625-.24414.9766-.09766 2.4414-.09766 1.5625 0 2.5879.09766 1.0254.04883 1.6602.24414.6347.19531.9765.58594.3418.3418.5371.87891zm-27.197-51.807h-.049l-10.889 31.494h21.973z"/>
  <path d="m3065.6 618.84c0-52.191 42.309-94.5 94.5-94.5s94.5 42.309 94.5 94.5-42.309 94.5-94.5 94.5-94.5-42.309-94.5-94.5z" fill="none" fill-rule="evenodd" stroke="#000000" stroke-miterlimit="8" stroke-width="8"/>
  <path d="m3029.9 627.56q0 2.9785-.7813 5.5176-.7324 2.4902-2.0996 4.4922-1.3672 2.002-3.3203 3.5156-1.9043 1.5137-4.3457 2.5391-2.3926 1.0254-5.1758 1.5625-2.7343.48828-6.2988.48828h-16.504q-1.1231 0-2.1484-.73242-.9766-.78125-.9766-2.6856v-56.348q0-1.9043.9766-2.6367 1.0253-.78125 2.1484-.78125h14.356q5.664 0 9.2773 1.0742t6.0059 3.125q2.4414 2.0508 3.6621 5.0293 1.2207 2.9785 1.2207 6.7383 0 2.2461-.5371 4.2969t-1.6114 3.8086q-1.0254 1.709-2.6367 3.0762-1.5625 1.3672-3.6133 2.2461 2.5879.48828 4.834 1.8066 2.2461 1.2695 3.9063 3.2715 1.709 2.002 2.6855 4.6875.9766 2.6856.9766 5.9082zm-12.646-28.271q0-2.2949-.6348-4.1504-.6347-1.8555-2.0019-3.125-1.3672-1.3184-3.5645-2.002-2.1972-.68359-5.8105-.68359h-8.6914v20.459h9.5703q3.2715 0 5.2734-.83008 2.002-.8789 3.3203-2.2949 1.3184-1.4648 1.9043-3.3691.6348-1.9531.6348-4.0039zm3.8086 28.76q0-2.832-.9277-4.9805-.8789-2.1484-2.6368-3.6133-1.7089-1.4648-4.3457-2.1973-2.5879-.78125-6.5429-.78125h-10.059v22.266h12.207q2.8809 0 5.0293-.6836 2.1484-.68359 3.7598-2.002 1.6601-1.3672 2.5879-3.3691.9277-2.002.9277-4.6387z"/>
  <path d="m3595.8 365.5c0-52.191 42.085-94.5 94-94.5s94 42.309 94 94.5-42.085 94.5-94 94.5-94-42.309-94-94.5z" fill="none" fill-rule="evenodd" stroke="#000000" stroke-miterlimit="8" stroke-width="8" style="-inkscape-stroke:none;fill:#808080;font-variation-settings:normal;stop-color:#000000;stroke-miterlimit:8;stroke-width:8;stroke:#000000"/>
  <path d="m3130.2 138.64q0 .79379-.2778 1.3494-.2381.55566-.6747.91287-.3969.35721-.9129.51596-.516.15877-1.0319.15877h-2.183q-1.0319 0-1.8257-.19843-.7541-.23815-1.4685-.7938-.6748-.59534-1.3892-1.5876-.6747-.99225-1.5082-2.5402l-16.193-29.212q-1.2701-2.2623-2.5799-4.7231-1.2701-2.5005-2.3814-4.8422h-.079q.079 2.8577.1191 5.8344.04 2.9767.04 5.9138v30.998q0 .27781-.1588.55565-.1587.23816-.5556.3969-.3572.11908-.9923.19843-.5953.11908-1.5479.11908-.9525 0-1.5876-.11908-.5953-.0794-.9525-.19843-.3572-.15877-.516-.3969-.1587-.27781-.1587-.55565v-47.39q0-1.5876.8731-2.2623.8732-.67472 1.9051-.67472h3.2546q1.151 0 1.9051.19846.7938.19846 1.3892.67473.635.43659 1.1907 1.2701.5953.79379 1.27 2.0242l12.463 22.544q1.151 2.0639 2.2226 4.0484 1.0716 1.9448 2.0639 3.8499.9922 1.9051 1.9448 3.7705.9922 1.8257 1.9448 3.6912h.04q-.079-3.1355-.1191-6.5091 0-3.4133 0-6.5488v-27.862q0-.27782.1587-.51597.1588-.23812.516-.3969.3969-.19846.9923-.27782.635-.07939 1.6272-.07939.8732 0 1.5083.07939.635.07939.9922.27782.3572.15877.516.3969.1587.23816.1587.51597z" style="stop-color:#000000;stroke-width:.81285"/>
  <path d="m3173.5 121.06q0 1.5479-.7937 2.2226-.7542.63504-1.7464.63504h-23.417q0 2.9767.5953 5.3581.5954 2.3814 1.9845 4.088 1.3892 1.7067 3.6118 2.6195 2.2226.91286 5.4375.91286 2.5402 0 4.5247-.3969 1.9844-.43659 3.4133-.95256 1.4685-.51596 2.3814-.91286.9525-.43659 1.4288-.43659.2778 0 .4763.15877.2381.11908.3572.3969t.1588.79379q.079.47628.079 1.1907 0 .51597-.04.91287-.04.35721-.1191.67472-.04.27782-.1985.51597-.1191.23816-.3572.47628-.1985.19846-1.2701.71442-1.0716.47628-2.7783.95255-1.7066.47628-3.9689.83349-2.2227.3969-4.7628.3969-4.4056 0-7.7396-1.2304-3.2942-1.2304-5.5565-3.6515-2.2624-2.4211-3.4134-6.0726t-1.151-8.4936q0-4.604 1.1907-8.2555 1.1907-3.6912 3.4134-6.2313 2.2623-2.5798 5.4375-3.9293 3.1752-1.3891 7.1045-1.3891 4.2071 0 7.1441 1.3494 2.9768 1.3495 4.8819 3.6515 1.9051 2.2623 2.7783 5.3581.9128 3.0561.9128 6.5488zm-6.5885-1.9448q.1191-5.1597-2.302-8.0967-2.3814-2.937-7.1045-2.937-2.421 0-4.2468.91287-1.8257.91287-3.0561 2.4211t-1.9051 3.5324q-.6747 1.9845-.7541 4.1674z" style="stop-color:#000000;stroke-width:.81285"/>
  <path d="m3190 140.46q0 .31752-.1587.55566-.1588.19846-.516.3572-.3572.15878-.9923.23816-.635.0794-1.6272.0794-.9526 0-1.5876-.0794-.6351-.0794-1.032-.23816-.3572-.15877-.5159-.3572-.1191-.23813-.1191-.55566v-35.721q0-.27781.1191-.51596.1587-.23813.5159-.3969.3969-.15877 1.032-.23813.635-.0794 1.5876-.0794.9922 0 1.6272.0794.6351.0794.9923.23813.3572.15877.516.3969.1587.23815.1587.51596zm.7541-47.787q0 2.302-.8731 3.1355-.8732.83349-3.2149.83349-2.302 0-3.1752-.7938-.8335-.83349-.8335-3.0958 0-2.302.8732-3.1355.8732-.83348 3.2149-.83348 2.302 0 3.1355.83348.8731.7938.8731 3.0561z" style="stop-color:#000000;stroke-width:.81285"/>
  <path d="m3232.9 140.46q0 .31752-.1588.55566-.1588.19846-.516.3572-.3572.15878-.9922.23816-.635.0794-1.5876.0794-.9922 0-1.6273-.0794-.635-.0794-.9922-.23816-.3572-.15877-.516-.3572-.1588-.23813-.1588-.55566v-20.917q0-3.0561-.4762-4.9215-.4763-1.8654-1.3892-3.2149-.9129-1.3494-2.3814-2.0639-1.4288-.71442-3.3339-.71442-2.4608 0-4.9216 1.7464-2.4607 1.7464-5.1597 5.12v24.965q0 .31752-.1587.55566-.1588.19846-.516.3572-.3572.15878-.9922.23816-.6351.0794-1.6273.0794-.9526 0-1.5876-.0794-.6351-.0794-1.032-.23816-.3572-.15877-.5159-.3572-.1191-.23813-.1191-.55566v-35.721q0-.31751.1191-.51596.1191-.23813.4763-.3969.3572-.19847.9128-.23813.5557-.0794 1.4685-.0794.8732 0 1.4289.0794.5953.0397.9128.23813.3176.15877.4366.3969.1588.19846.1588.51596v4.7231q3.0164-3.3736 5.9932-4.9215 3.0164-1.5876 6.0725-1.5876 3.5721 0 5.9932 1.2304 2.4608 1.1907 3.969 3.2149 1.5082 2.0242 2.1432 4.7628.6748 2.6989.6748 6.5091z" style="stop-color:#000000;stroke-width:.81285"/>
  <path d="m3657.8 388.64q0 .79379-.2778 1.3494-.2381.55566-.6747.91287-.3969.35721-.9129.51596-.516.15877-1.0319.15877h-2.183q-1.0319 0-1.8257-.19843-.7541-.23815-1.4685-.7938-.6748-.59534-1.3892-1.5876-.6747-.99225-1.5082-2.5402l-16.193-29.212q-1.2701-2.2623-2.5799-4.7231-1.2701-2.5005-2.3814-4.8422h-.079q.079 2.8577.1191 5.8344.04 2.9767.04 5.9138v30.998q0 .27781-.1588.55565-.1587.23816-.5556.3969-.3572.11908-.9923.19843-.5953.11908-1.5479.11908-.9525 0-1.5876-.11908-.5953-.0794-.9525-.19843-.3572-.15877-.516-.3969-.1587-.27781-.1587-.55565v-47.39q0-1.5876.8731-2.2623.8732-.67472 1.9051-.67472h3.2546q1.151 0 1.9051.19846.7938.19846 1.3892.67473.635.43659 1.1907 1.2701.5953.7938 1.27 2.0242l12.463 22.544q1.151 2.0639 2.2226 4.0484 1.0716 1.9448 2.0639 3.8499.9922 1.9051 1.9448 3.7705.9922 1.8257 1.9448 3.6912h.04q-.079-3.1355-.1191-6.5091 0-3.4133 0-6.5488v-27.862q0-.27781.1587-.51596.1588-.23813.516-.3969.3969-.19846.9923-.27782.635-.0794 1.6272-.0794.8732 0 1.5083.0794.635.0794.9922.27782.3572.15877.516.3969.1587.23815.1587.51596z" style="fill:#ffffff;stop-color:#000000;stroke-width:.81285"/>
  <path d="m3701.2 371.06q0 1.5479-.7937 2.2226-.7542.63504-1.7464.63504h-23.417q0 2.9767.5953 5.3581.5954 2.3814 1.9845 4.088 1.3892 1.7067 3.6118 2.6195 2.2226.91286 5.4375.91286 2.5402 0 4.5247-.3969 1.9844-.43659 3.4133-.95256 1.4685-.51596 2.3814-.91286.9525-.43659 1.4288-.43659.2778 0 .4763.15877.2381.11908.3572.3969t.1588.79379q.079.47628.079 1.1907 0 .51597-.04.91287-.04.35721-.1191.67472-.04.27782-.1985.51597-.1191.23816-.3572.47628-.1985.19846-1.2701.71442-1.0716.47628-2.7783.95255-1.7066.47628-3.9689.83349-2.2227.3969-4.7628.3969-4.4056 0-7.7396-1.2304-3.2942-1.2304-5.5565-3.6515-2.2624-2.4211-3.4134-6.0726t-1.151-8.4936q0-4.604 1.1907-8.2555 1.1907-3.6912 3.4134-6.2313 2.2623-2.5798 5.4375-3.9293 3.1752-1.3891 7.1045-1.3891 4.2071 0 7.1441 1.3494 2.9768 1.3495 4.8819 3.6515 1.9051 2.2623 2.7783 5.3581.9128 3.0561.9128 6.5488zm-6.5885-1.9448q.1191-5.1597-2.302-8.0967-2.3814-2.937-7.1045-2.937-2.421 0-4.2468.91287-1.8257.91287-3.0561 2.4211t-1.9051 3.5324q-.6747 1.9845-.7541 4.1674z" style="fill:#ffffff;stop-color:#000000;stroke-width:.81285"/>
  <path d="m3717.7 390.46q0 .31752-.1587.55566-.1588.19846-.516.3572-.3572.15878-.9923.23816-.635.0794-1.6272.0794-.9526 0-1.5876-.0794-.6351-.0794-1.032-.23816-.3572-.15877-.5159-.3572-.1191-.23813-.1191-.55566v-35.721q0-.27781.1191-.51596.1587-.23813.5159-.3969.3969-.15877 1.032-.23813.635-.0794 1.5876-.0794.9922 0 1.6272.0794.6351.0794.9923.23813.3572.15877.516.3969.1587.23815.1587.51596zm.7541-47.787q0 2.302-.8731 3.1355-.8732.83348-3.2149.83348-2.302 0-3.1752-.79379-.8335-.83349-.8335-3.0958 0-2.302.8732-3.1355.8732-.83349 3.2149-.83349 2.302 0 3.1355.83349.8731.79379.8731 3.0561z" style="fill:#ffffff;stop-color:#000000;stroke-width:.81285"/>
  <path d="m3760.6 390.46q0 .31752-.1588.55566-.1588.19846-.516.3572-.3572.15878-.9922.23816-.635.0794-1.5876.0794-.9922 0-1.6273-.0794-.635-.0794-.9922-.23816-.3572-.15877-.516-.3572-.1588-.23813-.1588-.55566v-20.917q0-3.0561-.4762-4.9215-.4763-1.8654-1.3892-3.2149-.9129-1.3494-2.3814-2.0639-1.4288-.71442-3.3339-.71442-2.4608 0-4.9216 1.7464-2.4607 1.7464-5.1597 5.12v24.965q0 .31752-.1587.55566-.1588.19846-.516.3572-.3572.15878-.9922.23816-.6351.0794-1.6273.0794-.9526 0-1.5876-.0794-.6351-.0794-1.032-.23816-.3572-.15877-.5159-.3572-.1191-.23813-.1191-.55566v-35.721q0-.31751.1191-.51596.1191-.23813.4763-.3969.3572-.19847.9128-.23813.5557-.0794 1.4685-.0794.8732 0 1.4289.0794.5953.0397.9128.23813.3176.15877.4366.3969.1588.19846.1588.51596v4.7231q3.0164-3.3736 5.9932-4.9215 3.0164-1.5876 6.0725-1.5876 3.5721 0 5.9932 1.2304 2.4608 1.1907 3.969 3.2149 1.5082 2.0242 2.1432 4.7628.6748 2.6989.6748 6.5091z" style="fill:#ffffff;stop-color:#000000;stroke-width:.81285"/>
  <path d="m3149.7 631.32q0 3.0561-.5557 5.5963-.5556 2.5402-1.9051 4.3262-1.3494 1.786-3.5721 2.7783-2.1829.95255-5.4375.95255-1.1113 0-2.2226-.19846-1.0716-.15877-1.9845-.47628-.9129-.27782-1.5876-.59535-.6747-.35721-.9129-.59535-.1984-.23812-.3572-.47627-.119-.23813-.2381-.55566-.079-.35721-.1191-.83349-.04-.51597-.04-1.2304 0-.87318.04-1.4288.079-.59534.2382-.91286.1587-.35721.3572-.47628.2381-.15877.5556-.15877t.7938.31752q.516.27781 1.1907.63504.7144.3572 1.6273.67472.9129.27782 2.1433.27782 1.3494 0 2.302-.31752.9525-.35721 1.5876-1.2701.635-.91286.9525-2.5005.3175-1.6273.3175-4.2071v-36.753q0-.27782.1588-.51597.1588-.23812.5557-.3969.3969-.15877 1.0319-.23815.6747-.0794 1.667-.0794.9525 0 1.6272.0794.6748.0794 1.032.23815.3969.15877.5556.3969.1985.23813.1985.51597z" style="stop-color:#000000;stroke-width:.81285"/>
  <path d="m3189.4 643.3q0 .47628-.3175.71442-.3175.23812-.8731.3572-.5557.11908-1.6273.11908-1.032 0-1.667-.11908-.5954-.11908-.8732-.3572-.2778-.23816-.2778-.71442v-3.5721q-2.3417 2.5005-5.2391 3.8896-2.8576 1.3891-6.0725 1.3891-2.818 0-5.12-.75411-2.2623-.71441-3.8896-2.1036-1.5876-1.3891-2.5005-3.4133-.8731-2.0242-.8731-4.604 0-3.0164 1.2303-5.2391 1.2304-2.2226 3.5324-3.6912 2.302-1.4685 5.636-2.1829 3.3339-.75411 7.5014-.75411h4.9215v-2.7783q0-2.0639-.4366-3.6515-.4366-1.5876-1.4288-2.6195-.9526-1.0716-2.5005-1.5876-1.5479-.55566-3.8102-.55566-2.4211 0-4.3659.59535-1.9051.55566-3.3736 1.2701-1.4288.67472-2.4211 1.2701-.9526.55566-1.4288.55566-.3175 0-.5557-.15877-.2381-.15877-.4366-.47628-.1587-.31752-.2381-.7938-.079-.51597-.079-1.1113 0-.99225.1191-1.5479.1587-.59535.6747-1.1113.5557-.51596 1.8654-1.1907 1.3098-.71442 3.0165-1.2701 1.7066-.59534 3.7308-.95255 2.0242-.3969 4.0881-.3969 3.8499 0 6.5488.87317 2.6989.87318 4.3659 2.5798 1.6669 1.667 2.421 4.1674.7542 2.5005.7542 5.8344zm-6.5091-16.313h-5.5963q-2.6989 0-4.6834.47628-1.9845.43659-3.2942 1.3495-1.3098.87318-1.9448 2.1432-.5954 1.2304-.5954 2.8577 0 2.7783 1.7464 4.4453 1.786 1.6273 4.9612 1.6273 2.5799 0 4.7628-1.3098 2.2226-1.3098 4.6437-4.0087z" style="stop-color:#000000;stroke-width:.81285"/>
  <circle cx="2494.1" cy="220.4" r="60" style="fill:#d8dad9"/>
  <path d="m2501.4 181.35v31.866h31.744v14.352h-31.744v31.866h-14.474v-31.866h-31.744v-14.352h31.744v-31.866z" style="stroke-width:1.5568"/>
  <circle cx="2494.1" cy="500.98" r="60" style="fill:#d8dad9"/>
  <path d="m2526.9 500.98q0 2.8126-.7601 4.1049-.6842 1.2923-2.0525 1.2923h-59.901q-1.4443 0-2.2045-1.2923-.6842-1.2923-.6842-4.1049 0-2.7366.6842-4.0289.7602-1.3683 2.2045-1.3683h59.901q1.3683 0 2.0525 1.2923.7601 1.2923.7601 4.1049z" style="stroke-width:1.5568"/>
  <circle cx="3420.9" cy="220.4" r="60" style="fill:#d8dad9"/>
  <path d="m3428.2 181.35v31.866h31.744v14.352h-31.744v31.866h-14.474v-31.866h-31.744v-14.352h31.744v-31.866z" style="stroke-width:1.5568"/>
  <circle cx="3420.9" cy="500.98" r="60" style="fill:#d8dad9"/>
  <path d="m3453.7 500.98q0 2.8126-.7601 4.1049-.6842 1.2923-2.0525 1.2923h-59.901q-1.4443 0-2.2045-1.2923-.6842-1.2923-.6842-4.1049 0-2.7366.6842-4.0289.7602-1.3683 2.2045-1.3683h59.901q1.3683 0 2.0525 1.2923.7601 1.2923.7601 4.1049z" style="stroke-width:1.5568"/>
 </g>
</svg>
