<?xml version="1.0" encoding="UTF-8" standalone="no"?>
<!-- Created with Inkscape (http://www.inkscape.org/) -->

<svg
   width="348.51462mm"
   height="185.29724mm"
   viewBox="0 0 348.51462 185.29724"
   version="1.1"
   id="svg1305"
   sodipodi:docname="2023-DE-01-explanation02_compatible.svg"
   inkscape:version="1.1.1 (3bf5ae0d25, 2021-09-20)"
   xmlns:inkscape="http://www.inkscape.org/namespaces/inkscape"
   xmlns:sodipodi="http://sodipodi.sourceforge.net/DTD/sodipodi-0.dtd"
   xmlns="http://www.w3.org/2000/svg"
   xmlns:svg="http://www.w3.org/2000/svg">
  <sodipodi:namedview
     id="namedview1307"
     pagecolor="#ffffff"
     bordercolor="#666666"
     borderopacity="1.0"
     inkscape:pageshadow="2"
     inkscape:pageopacity="0.0"
     inkscape:pagecheckerboard="0"
     inkscape:document-units="mm"
     showgrid="false"
     inkscape:zoom="0.44715365"
     inkscape:cx="546.79191"
     inkscape:cy="546.79191"
     inkscape:window-width="2048"
     inkscape:window-height="1017"
     inkscape:window-x="-8"
     inkscape:window-y="-8"
     inkscape:window-maximized="1"
     inkscape:current-layer="layer1"
     inkscape:snap-nodes="true"
     inkscape:snap-bbox="true" />
  <defs
     id="defs1302" />
  <g
     inkscape:label="Ebene 1"
     inkscape:groupmode="layer"
     id="layer1"
     transform="translate(26.263628,31.100634)">
    <path
       id="path21-4-4"
       style="font-variation-settings:normal;opacity:1;vector-effect:none;fill:#000000;fill-opacity:1;stroke:none;stroke-width:0.968924;stroke-linecap:butt;stroke-linejoin:miter;stroke-miterlimit:4;stroke-dasharray:none;stroke-dashoffset:0;stroke-opacity:1;-inkscape-stroke:none;stop-color:#000000;stop-opacity:1"
       d="m 1109.9766,399.76367 3.2929,6.99805 -339.43942,157.36914 3.29101,7 339.43941,-157.37109 3.293,6.99609 16.209,-20.29883 z"
       transform="matrix(0.26458333,0,0,0.26458333,-26.263628,-31.100634)" />
    <path
       id="path41371"
       clip-path="none"
       style="font-variation-settings:normal;opacity:1;vector-effect:none;fill:#000000;fill-opacity:1;stroke:none;stroke-width:0.968924;stroke-linecap:butt;stroke-linejoin:miter;stroke-miterlimit:4;stroke-dasharray:none;stroke-dashoffset:0;stroke-opacity:1;-inkscape-stroke:none;stop-color:#000000;stop-opacity:1"
       d="m 566.16016,603.85547 v 8.97656 H 193.91797 v 8.97656 h 372.24219 v 8.97852 l 26.93164,-13.4668 z"
       transform="matrix(0.26458333,0,0,0.26458333,-26.263628,-31.100634)" />
    <path
       id="path41373-0-5"
       style="font-variation-settings:normal;fill:#000000;stroke:none;stroke-width:0.968924;-inkscape-stroke:none;stop-color:#000000"
       d="m 619.35742,163.52539 -29.41797,6.41602 5.67188,7.03906 -430.41211,357.32812 6.18359,7.25977 429.86524,-357.5957 5.59179,6.9375 z"
       transform="matrix(0.26458333,0,0,0.26458333,-26.263628,-31.100634)" />
    <path
       id="path21-0"
       style="font-variation-settings:normal;opacity:1;vector-effect:none;fill:#999999;fill-opacity:1;stroke:none;stroke-width:0.968924;stroke-linecap:butt;stroke-linejoin:miter;stroke-miterlimit:4;stroke-dasharray:none;stroke-dashoffset:0;stroke-opacity:1;-inkscape-stroke:none;stop-color:#000000;stop-opacity:1"
       d="m 778.98242,128.98047 -3.29101,6.99805 339.43949,157.36914 -3.293,6.99804 26.0859,-0.6914 -16.209,-20.30078 -3.2929,6.99609 z"
       transform="matrix(0.26458333,0,0,0.26458333,-26.263628,-31.100634)" />
    <path
       id="path41367"
       clip-path="none"
       style="font-variation-settings:normal;opacity:1;vector-effect:none;fill:#999999;fill-opacity:1;stroke:none;stroke-width:0.968924;stroke-linecap:butt;stroke-linejoin:miter;stroke-miterlimit:4;stroke-dasharray:none;stroke-dashoffset:0;stroke-opacity:1;-inkscape-stroke:none;stop-color:#000000;stop-opacity:1"
       d="m 566.16016,83.173828 v 8.976563 H 193.91797 v 8.978519 h 372.24219 v 8.97656 L 593.0918,96.638672 Z"
       transform="matrix(0.26458333,0,0,0.26458333,-26.263628,-31.100634)" />
    <path
       id="path41369"
       clip-path="none"
       style="font-variation-settings:normal;opacity:1;vector-effect:none;fill:#999999;fill-opacity:1;stroke:none;stroke-width:0.968924;stroke-linecap:butt;stroke-linejoin:miter;stroke-miterlimit:4;stroke-dasharray:none;stroke-dashoffset:0;stroke-opacity:1;-inkscape-stroke:none;stop-color:#000000;stop-opacity:1"
       d="m 165.03906,167.3457 -6.18554,5.7461 436.73242,352.6875 -5.63672,6.99218 29.41797,6.41602 -12.51758,-27.38477 -5.63477,6.99024 z"
       transform="matrix(0.26458333,0,0,0.26458333,-26.263628,-31.100634)" />
    <path
       d="m -24.667834,-5.0391744 c 0,-13.8088426 11.194256,-25.0031246 25.0031242,-25.0031246 13.8088688,0 25.0031248,11.194282 25.0031248,25.0031246 0,13.8088686 -11.194256,25.0031244 -25.0031248,25.0031244 -13.8088682,0 -25.0031242,-11.1942558 -25.0031242,-25.0031244 z"
       stroke="#000000"
       stroke-width="2.11667"
       stroke-miterlimit="8"
       fill="none"
       fill-rule="evenodd"
       id="path17" />
    <path
       d="m -25.205293,128.13514 c 0,-13.80887 11.194256,-25.00312 25.0031245,-25.00312 13.8088685,0 25.0031245,11.19425 25.0031245,25.00312 0,13.80887 -11.194256,25.00313 -25.0031245,25.00313 -13.8088685,0 -25.0031245,-11.19426 -25.0031245,-25.00313 z"
       stroke="#000000"
       stroke-width="2.11667"
       stroke-miterlimit="8"
       fill="none"
       fill-rule="evenodd"
       id="path25" />
    <path
       d="m 131.70061,-5.039175 c 0,-13.808842 11.19425,-25.003124 25.00312,-25.003124 13.80886,0 25.00312,11.194282 25.00312,25.003124 0,13.8088691 -11.19426,25.003124 -25.00312,25.003124 -13.80887,0 -25.00312,-11.1942549 -25.00312,-25.003124 z"
       stroke="#000000"
       stroke-width="2.11667"
       stroke-miterlimit="8"
       fill="none"
       fill-rule="evenodd"
       id="path17-3" />
    <path
       d="m 131.16315,128.13514 c 0,-13.80887 11.19425,-25.00312 25.00312,-25.00312 13.80887,0 25.00312,11.19425 25.00312,25.00312 0,13.80887 -11.19425,25.00313 -25.00312,25.00313 -13.80887,0 -25.00312,-11.19426 -25.00312,-25.00313 z"
       stroke="#000000"
       stroke-width="2.11667"
       stroke-miterlimit="8"
       fill="none"
       fill-rule="evenodd"
       id="path25-4" />
    <path
       d="m 271.45098,61.106658 c 0,-13.808868 11.13499,-25.003126 24.87084,-25.003126 13.73584,0 24.87083,11.194257 24.87083,25.003125 0,13.808869 -11.13499,25.003125 -24.87083,25.003125 -13.73585,0 -24.87084,-11.194256 -24.87084,-25.003124 z"
       stroke="#000000"
       stroke-width="2.11667"
       stroke-miterlimit="8"
       fill="none"
       fill-rule="evenodd"
       id="path29-0"
       style="fill:#ffcc00" />
    <g
       id="g2004">
      <circle
         style="fill:#d8dad9;fill-opacity:1;stroke:none;stroke-width:1.27278"
         id="path1051-8"
         cx="77.04554"
         cy="-5.5672255"
         r="10.197092" />
      <path
         d="m 78.275455,-12.2025 v 5.4156982 h 5.395028 v 2.4391315 h -5.395028 v 5.4156988 h -2.459802 v -5.4156988 h -5.395028 v -2.4391315 h 5.395028 V -12.2025 Z"
         style="font-size:10.5833px;font-family:sketchnote;-inkscape-font-specification:'sketchnote Bold';stroke-width:0.264583"
         id="path1499" />
    </g>
    <g
       id="g2088">
      <circle
         style="display:inline;fill:#d8dad9;fill-opacity:1;stroke:none;stroke-width:1.27278"
         id="path1051-8-2-9"
         cx="48.924606"
         cy="38.555515"
         r="10.197092" />
      <path
         d="m 54.499194,38.555535 q 0,0.478006 -0.12919,0.697631 -0.116272,0.219624 -0.348816,0.219624 H 43.840944 q -0.245463,0 -0.374654,-0.219624 -0.116272,-0.219625 -0.116272,-0.697631 0,-0.465088 0.116272,-0.684712 0.129191,-0.232544 0.374654,-0.232544 h 10.180244 q 0.232544,0 0.348816,0.219625 0.129191,0.219624 0.12919,0.697631 z"
         id="path1519"
         style="font-size:26.4583px;font-family:Calibri, Calibri_MSFontService, sans-serif;display:inline;stroke-width:0.264583" />
    </g>
    <g
       id="g2092">
      <circle
         style="fill:#d8dad9;fill-opacity:1;stroke:none;stroke-width:1.27278"
         id="path1051-8-62"
         cx="48.924606"
         cy="85.7276"
         r="10.197092" />
      <path
         d="m 54.499195,85.72762 q 0,0.478006 -0.12919,0.697631 -0.116272,0.219624 -0.348816,0.219624 H 43.840945 q -0.245463,0 -0.374654,-0.219624 -0.116272,-0.219625 -0.116272,-0.697631 0,-0.465088 0.116272,-0.684712 0.129191,-0.232544 0.374654,-0.232544 h 10.180244 q 0.232544,0 0.348816,0.219625 0.12919,0.219624 0.12919,0.697631 z"
         id="path1519-1"
         style="font-size:26.4583px;font-family:Calibri, Calibri_MSFontService, sans-serif;stroke-width:0.264583" />
    </g>
    <g
       id="g2096">
      <circle
         style="fill:#d8dad9;fill-opacity:1;stroke:none;stroke-width:1.27278"
         id="path1051-8-1-5"
         cx="79.966408"
         cy="131.99864"
         r="10.197092" />
      <path
         d="m 81.19632,125.36336 v 5.4157 h 5.395028 v 2.43913 H 81.19632 v 5.4157 h -2.459802 v -5.4157 H 73.34149 v -2.43913 h 5.395028 v -5.4157 z"
         style="font-size:10.5833px;font-family:sketchnote;-inkscape-font-specification:'sketchnote Bold';stroke-width:0.264583"
         id="path1504-3" />
    </g>
    <g
       id="g2104">
      <circle
         style="fill:#d8dad9;fill-opacity:1;stroke:none;stroke-width:1.27278"
         id="path1051-8-1-5-6"
         cx="224.65105"
         cy="23.933586"
         r="10.197092" />
      <path
         d="m 225.88096,17.298311 v 5.415699 h 5.39503 v 2.439131 h -5.39503 v 5.415699 h -2.4598 v -5.415699 h -5.39503 V 22.71401 h 5.39503 v -5.415699 z"
         style="font-size:10.5833px;font-family:sketchnote;-inkscape-font-specification:'sketchnote Bold';stroke-width:0.264583"
         id="path1504-3-3" />
    </g>
    <g
       id="g2100">
      <circle
         style="fill:#d8dad9;fill-opacity:1;stroke:none;stroke-width:1.27278"
         id="path1051-8-1-5-6-5"
         cx="224.65105"
         cy="98.116531"
         r="10.197092" />
      <path
         d="m 225.88096,91.481256 v 5.415699 h 5.39503 v 2.439131 h -5.39503 v 5.415704 h -2.4598 v -5.415704 h -5.39503 v -2.439131 h 5.39503 v -5.415699 z"
         style="font-size:10.5833px;font-family:sketchnote;-inkscape-font-specification:'sketchnote Bold';stroke-width:0.264583"
         id="path1504-3-3-0" />
    </g>
    <g
       aria-label="Ja"
       transform="translate(-0.88755843,144.03461)"
       id="text2046"
       style="font-size:21.5066px;font-family:Calibri, Calibri_MSFontService, sans-serif;stroke-width:0.215066">
      <path
         d="m -2.2464338,-13.814351 q 0,0.808598 -0.1470178,1.480679 -0.1470178,0.672082 -0.5040609,1.144639 -0.3570432,0.472557 -0.9451143,0.735089 -0.5775698,0.25203 -1.4386739,0.25203 -0.2940355,0 -0.588071,-0.05251 -0.2835343,-0.042 -0.5250635,-0.126016 -0.2415292,-0.07351 -0.4200508,-0.157519 -0.1785215,-0.09451 -0.2415292,-0.157519 -0.052506,-0.06301 -0.094511,-0.126015 -0.031504,-0.06301 -0.063008,-0.147018 -0.021002,-0.09451 -0.031504,-0.220526 -0.010501,-0.136517 -0.010501,-0.32554 0,-0.231028 0.010501,-0.378045 0.021002,-0.157519 0.063008,-0.24153 0.042005,-0.09451 0.094511,-0.126015 0.063008,-0.042 0.1470178,-0.042 0.08401,0 0.2100254,0.08401 0.1365165,0.07351 0.3150381,0.168021 0.1890228,0.09451 0.430552,0.178521 0.2415292,0.07351 0.5670685,0.07351 0.3570432,0 0.6090737,-0.08401 0.2520304,-0.09451 0.4200507,-0.336041 0.1680203,-0.241529 0.2520305,-0.66158 0.08401,-0.430552 0.08401,-1.113134 v -9.724176 q 0,-0.07351 0.042005,-0.136516 0.042005,-0.06301 0.1470178,-0.105013 0.1050127,-0.04201 0.273033,-0.06301 0.1785216,-0.021 0.4410533,-0.021 0.2520305,0 0.430552,0.021 0.1785216,0.021 0.273033,0.06301 0.1050127,0.042 0.1470178,0.105013 0.052506,0.06301 0.052506,0.136516 z"
         id="path11286" />
      <path
         d="m 8.2548355,-10.642967 q 0,0.126015 -0.08401,0.189023 -0.08401,0.06301 -0.2310279,0.09451 -0.1470178,0.0315 -0.430552,0.0315 -0.273033,0 -0.4410533,-0.0315 -0.1575191,-0.0315 -0.231028,-0.09451 -0.073509,-0.06301 -0.073509,-0.189023 v -0.945115 q -0.6195748,0.66158 -1.3861675,1.029125 -0.7560914,0.367544 -1.6066942,0.367544 -0.7455901,0 -1.3546637,-0.199524 -0.5985724,-0.189023 -1.0291244,-0.556567 -0.42005078,-0.367545 -0.66157997,-0.903109 -0.23102792,-0.535565 -0.23102792,-1.218148 0,-0.798096 0.32553934,-1.386167 0.32553935,-0.588071 0.93461295,-0.976618 0.6090736,-0.388547 1.4911802,-0.57757 0.8821067,-0.199524 1.9847399,-0.199524 h 1.3021574 v -0.735089 q 0,-0.546066 -0.1155139,-0.966117 -0.115514,-0.42005 -0.3780457,-0.693083 -0.2520305,-0.283535 -0.66158,-0.420051 -0.4095495,-0.147018 -1.0081218,-0.147018 -0.6405775,0 -1.1551397,0.157519 -0.5040609,0.147018 -0.8926078,0.336041 -0.3780457,0.178521 -0.6405775,0.33604 -0.2520304,0.147018 -0.3780457,0.147018 -0.08401,0 -0.1470177,-0.042 -0.063008,-0.042 -0.115514,-0.126015 -0.0420051,-0.08401 -0.0630076,-0.210026 -0.0210025,-0.136516 -0.0210025,-0.294035 0,-0.262532 0.0315038,-0.40955 0.042005,-0.157519 0.1785215,-0.294035 0.1470178,-0.136517 0.4935597,-0.315038 0.3465419,-0.189023 0.7980965,-0.336041 0.4515545,-0.157519 0.9871193,-0.25203 0.5355647,-0.105013 1.0816307,-0.105013 1.0186231,0 1.7327094,0.231028 0.7140863,0.231028 1.1551396,0.682582 0.4410534,0.441054 0.6405775,1.102634 0.1995241,0.66158 0.1995241,1.543686 z M 6.5326273,-14.958989 H 5.0519484 q -0.7140863,0 -1.2391498,0.126015 -0.5250635,0.115514 -0.8716054,0.357043 -0.3465418,0.231028 -0.5145622,0.567069 -0.157519,0.325539 -0.157519,0.756091 0,0.735089 0.4620559,1.176142 0.4725571,0.430553 1.3126586,0.430553 0.6825825,0 1.2601523,-0.346542 0.5880711,-0.346542 1.2286485,-1.060629 z"
         id="path11288" />
    </g>
    <g
       aria-label="Ja"
       transform="translate(155.75053,144.61712)"
       id="text2046-2"
       style="font-size:21.5066px;font-family:Calibri, Calibri_MSFontService, sans-serif;stroke-width:0.215066">
      <path
         d="m -2.2464338,-13.814351 q 0,0.808598 -0.1470178,1.480679 -0.1470178,0.672082 -0.5040609,1.144639 -0.3570432,0.472557 -0.9451143,0.735089 -0.5775698,0.25203 -1.4386739,0.25203 -0.2940355,0 -0.588071,-0.05251 -0.2835343,-0.042 -0.5250635,-0.126016 -0.2415292,-0.07351 -0.4200508,-0.157519 -0.1785215,-0.09451 -0.2415292,-0.157519 -0.052506,-0.06301 -0.094511,-0.126015 -0.031504,-0.06301 -0.063008,-0.147018 -0.021002,-0.09451 -0.031504,-0.220526 -0.010501,-0.136517 -0.010501,-0.32554 0,-0.231028 0.010501,-0.378045 0.021002,-0.157519 0.063008,-0.24153 0.042005,-0.09451 0.094511,-0.126015 0.063008,-0.042 0.1470178,-0.042 0.08401,0 0.2100254,0.08401 0.1365165,0.07351 0.3150381,0.168021 0.1890228,0.09451 0.430552,0.178521 0.2415292,0.07351 0.5670685,0.07351 0.3570432,0 0.6090737,-0.08401 0.2520304,-0.09451 0.4200507,-0.336041 0.1680203,-0.241529 0.2520305,-0.66158 0.08401,-0.430552 0.08401,-1.113134 v -9.724176 q 0,-0.07351 0.042005,-0.136516 0.042005,-0.06301 0.1470178,-0.105013 0.1050127,-0.04201 0.273033,-0.06301 0.1785216,-0.021 0.4410533,-0.021 0.2520305,0 0.430552,0.021 0.1785216,0.021 0.273033,0.06301 0.1050127,0.042 0.1470178,0.105013 0.052506,0.06301 0.052506,0.136516 z"
         id="path11295" />
      <path
         d="m 8.2548355,-10.642967 q 0,0.126015 -0.08401,0.189023 -0.08401,0.06301 -0.2310279,0.09451 -0.1470178,0.0315 -0.430552,0.0315 -0.273033,0 -0.4410533,-0.0315 -0.1575191,-0.0315 -0.231028,-0.09451 -0.073509,-0.06301 -0.073509,-0.189023 v -0.945115 q -0.6195748,0.66158 -1.3861675,1.029125 -0.7560914,0.367544 -1.6066942,0.367544 -0.7455901,0 -1.3546637,-0.199524 -0.5985724,-0.189023 -1.0291244,-0.556567 -0.42005078,-0.367545 -0.66157997,-0.903109 -0.23102792,-0.535565 -0.23102792,-1.218148 0,-0.798096 0.32553934,-1.386167 0.32553935,-0.588071 0.93461295,-0.976618 0.6090736,-0.388547 1.4911802,-0.57757 0.8821067,-0.199524 1.9847399,-0.199524 h 1.3021574 v -0.735089 q 0,-0.546066 -0.1155139,-0.966117 -0.115514,-0.42005 -0.3780457,-0.693083 -0.2520305,-0.283535 -0.66158,-0.420051 -0.4095495,-0.147018 -1.0081218,-0.147018 -0.6405775,0 -1.1551397,0.157519 -0.5040609,0.147018 -0.8926078,0.336041 -0.3780457,0.178521 -0.6405775,0.33604 -0.2520304,0.147018 -0.3780457,0.147018 -0.08401,0 -0.1470177,-0.042 -0.063008,-0.042 -0.115514,-0.126015 -0.0420051,-0.08401 -0.0630076,-0.210026 -0.0210025,-0.136516 -0.0210025,-0.294035 0,-0.262532 0.0315038,-0.40955 0.042005,-0.157519 0.1785215,-0.294035 0.1470178,-0.136517 0.4935597,-0.315038 0.3465419,-0.189023 0.7980965,-0.336041 0.4515545,-0.157519 0.9871193,-0.25203 0.5355647,-0.105013 1.0816307,-0.105013 1.0186231,0 1.7327094,0.231028 0.7140863,0.231028 1.1551396,0.682582 0.4410534,0.441054 0.6405775,1.102634 0.1995241,0.66158 0.1995241,1.543686 z M 6.5326273,-14.958989 H 5.0519484 q -0.7140863,0 -1.2391498,0.126015 -0.5250635,0.115514 -0.8716054,0.357043 -0.3465418,0.231028 -0.5145622,0.567069 -0.157519,0.325539 -0.157519,0.756091 0,0.735089 0.4620559,1.176142 0.4725571,0.430553 1.3126586,0.430553 0.6825825,0 1.2601523,-0.346542 0.5880711,-0.346542 1.2286485,-1.060629 z"
         id="path11297" />
    </g>
    <g
       aria-label="Ja"
       transform="translate(295.75146,77.333462)"
       id="text2046-26"
       style="font-size:21.5066px;font-family:Calibri, Calibri_MSFontService, sans-serif;stroke-width:0.215066">
      <path
         d="m -2.2464338,-13.814351 q 0,0.808598 -0.1470178,1.480679 -0.1470178,0.672082 -0.5040609,1.144639 -0.3570432,0.472557 -0.9451143,0.735089 -0.5775698,0.25203 -1.4386739,0.25203 -0.2940355,0 -0.588071,-0.05251 -0.2835343,-0.042 -0.5250635,-0.126016 -0.2415292,-0.07351 -0.4200508,-0.157519 -0.1785215,-0.09451 -0.2415292,-0.157519 -0.052506,-0.06301 -0.094511,-0.126015 -0.031504,-0.06301 -0.063008,-0.147018 -0.021002,-0.09451 -0.031504,-0.220526 -0.010501,-0.136517 -0.010501,-0.32554 0,-0.231028 0.010501,-0.378045 0.021002,-0.157519 0.063008,-0.24153 0.042005,-0.09451 0.094511,-0.126015 0.063008,-0.042 0.1470178,-0.042 0.08401,0 0.2100254,0.08401 0.1365165,0.07351 0.3150381,0.168021 0.1890228,0.09451 0.430552,0.178521 0.2415292,0.07351 0.5670685,0.07351 0.3570432,0 0.6090737,-0.08401 0.2520304,-0.09451 0.4200507,-0.336041 0.1680203,-0.241529 0.2520305,-0.66158 0.08401,-0.430552 0.08401,-1.113134 v -9.724176 q 0,-0.07351 0.042005,-0.136516 0.042005,-0.06301 0.1470178,-0.105013 0.1050127,-0.04201 0.273033,-0.06301 0.1785216,-0.021 0.4410533,-0.021 0.2520305,0 0.430552,0.021 0.1785216,0.021 0.273033,0.06301 0.1050127,0.042 0.1470178,0.105013 0.052506,0.06301 0.052506,0.136516 z"
         id="path11304" />
      <path
         d="m 8.2548355,-10.642967 q 0,0.126015 -0.08401,0.189023 -0.08401,0.06301 -0.2310279,0.09451 -0.1470178,0.0315 -0.430552,0.0315 -0.273033,0 -0.4410533,-0.0315 -0.1575191,-0.0315 -0.231028,-0.09451 -0.073509,-0.06301 -0.073509,-0.189023 v -0.945115 q -0.6195748,0.66158 -1.3861675,1.029125 -0.7560914,0.367544 -1.6066942,0.367544 -0.7455901,0 -1.3546637,-0.199524 -0.5985724,-0.189023 -1.0291244,-0.556567 -0.42005078,-0.367545 -0.66157997,-0.903109 -0.23102792,-0.535565 -0.23102792,-1.218148 0,-0.798096 0.32553934,-1.386167 0.32553935,-0.588071 0.93461295,-0.976618 0.6090736,-0.388547 1.4911802,-0.57757 0.8821067,-0.199524 1.9847399,-0.199524 h 1.3021574 v -0.735089 q 0,-0.546066 -0.1155139,-0.966117 -0.115514,-0.42005 -0.3780457,-0.693083 -0.2520305,-0.283535 -0.66158,-0.420051 -0.4095495,-0.147018 -1.0081218,-0.147018 -0.6405775,0 -1.1551397,0.157519 -0.5040609,0.147018 -0.8926078,0.336041 -0.3780457,0.178521 -0.6405775,0.33604 -0.2520304,0.147018 -0.3780457,0.147018 -0.08401,0 -0.1470177,-0.042 -0.063008,-0.042 -0.115514,-0.126015 -0.0420051,-0.08401 -0.0630076,-0.210026 -0.0210025,-0.136516 -0.0210025,-0.294035 0,-0.262532 0.0315038,-0.40955 0.042005,-0.157519 0.1785215,-0.294035 0.1470178,-0.136517 0.4935597,-0.315038 0.3465419,-0.189023 0.7980965,-0.336041 0.4515545,-0.157519 0.9871193,-0.25203 0.5355647,-0.105013 1.0816307,-0.105013 1.0186231,0 1.7327094,0.231028 0.7140863,0.231028 1.1551396,0.682582 0.4410534,0.441054 0.6405775,1.102634 0.1995241,0.66158 0.1995241,1.543686 z M 6.5326273,-14.958989 H 5.0519484 q -0.7140863,0 -1.2391498,0.126015 -0.5250635,0.115514 -0.8716054,0.357043 -0.3465418,0.231028 -0.5145622,0.567069 -0.157519,0.325539 -0.157519,0.756091 0,0.735089 0.4620559,1.176142 0.4725571,0.430553 1.3126586,0.430553 0.6825825,0 1.2601523,-0.346542 0.5880711,-0.346542 1.2286485,-1.060629 z"
         id="path11306" />
    </g>
    <g
       aria-label="Nein"
       transform="matrix(0.81284934,0,0,0.81284934,-14.32387,9.0518631)"
       id="text2046-7"
       style="font-size:26.4583px;font-family:Calibri, Calibri_MSFontService, sans-serif;stroke-width:0.264583">
      <path
         d="m 7.5279072,-11.308192 q 0,0.258381 -0.090434,0.439249 -0.077515,0.180867 -0.2196246,0.297139 -0.1291909,0.116272 -0.2971391,0.167948 -0.1679482,0.05168 -0.3358964,0.05168 h -0.71055 q -0.3358964,0 -0.5942782,-0.06459 -0.2454628,-0.07752 -0.4780064,-0.258382 -0.2196246,-0.193786 -0.4521682,-0.516764 -0.2196246,-0.322977 -0.4909255,-0.826821 l -5.2709894,-9.508452 q -0.4134109,-0.736388 -0.839741,-1.537372 -0.4134109,-0.813903 -0.7751454,-1.576129 h -0.025838 q 0.025838,0.930175 0.038757,1.899107 0.012919,0.968931 0.012919,1.924944 v 10.089811 q 0,0.09043 -0.051676,0.180867 -0.051676,0.07752 -0.1808673,0.129191 -0.1162718,0.03876 -0.3229773,0.06459 -0.1937864,0.03876 -0.5038446,0.03876 -0.3100582,0 -0.5167636,-0.03876 -0.1937864,-0.02584 -0.3100582,-0.06459 -0.1162719,-0.05168 -0.1679482,-0.129191 -0.051676,-0.09043 -0.051676,-0.180867 V -26.15222 q 0,-0.516763 0.28422,-0.736388 0.28422,-0.219624 0.6201164,-0.219624 h 1.0593655 q 0.3746537,0 0.6201164,0.0646 0.2583819,0.0646 0.4521682,0.219625 0.2067055,0.14211 0.3875728,0.413411 0.1937864,0.258381 0.4134109,0.658873 l 4.0565948,7.338044 q 0.3746536,0.671793 0.7234691,1.317748 0.3488155,0.633035 0.6717928,1.253151 0.3229773,0.620117 0.6330355,1.227314 0.3229773,0.594278 0.6330355,1.201476 h 0.012919 q -0.025838,-1.020609 -0.038757,-2.118731 0,-1.111042 0,-2.13165 v -9.069203 q 0,-0.09043 0.051676,-0.167948 0.051676,-0.07751 0.1679482,-0.129191 0.1291909,-0.0646 0.3229773,-0.09043 0.2067055,-0.02584 0.5296828,-0.02584 0.28422,0 0.4909255,0.02584 0.2067054,0.02584 0.3229772,0.09043 0.1162719,0.05168 0.1679482,0.129191 0.051676,0.07752 0.051676,0.167948 z"
         id="path11313" />
      <path
         d="m 21.648474,-17.03135 q 0,0.503845 -0.258382,0.723469 -0.245463,0.206706 -0.56844,0.206706 h -7.622264 q 0,0.968932 0.193786,1.744077 0.193787,0.775146 0.645955,1.330666 0.452168,0.555521 1.175637,0.852661 0.723469,0.297139 1.769916,0.297139 0.826822,0 1.472776,-0.129191 0.645955,-0.14211 1.111042,-0.310059 0.478006,-0.167948 0.775146,-0.297139 0.310058,-0.14211 0.465087,-0.14211 0.09043,0 0.155029,0.05168 0.07752,0.03876 0.116272,0.129191 0.03876,0.09043 0.05168,0.258381 0.02584,0.15503 0.02584,0.387573 0,0.167948 -0.01292,0.297139 -0.01292,0.116272 -0.03876,0.219625 -0.01292,0.09043 -0.0646,0.167948 -0.03876,0.07752 -0.116272,0.155029 -0.0646,0.0646 -0.413411,0.232544 -0.348816,0.155029 -0.904337,0.310058 -0.555521,0.155029 -1.291909,0.271301 -0.723469,0.129191 -1.550291,0.129191 -1.434019,0 -2.519223,-0.400492 -1.072284,-0.400492 -1.808672,-1.188556 -0.736389,-0.788065 -1.111042,-1.976621 -0.374654,-1.188557 -0.374654,-2.764686 0,-1.498615 0.387573,-2.687171 0.387572,-1.201476 1.111042,-2.028297 0.736388,-0.839741 1.769915,-1.278991 1.033527,-0.452168 2.312518,-0.452168 1.369423,0 2.325436,0.439249 0.968932,0.43925 1.589048,1.188557 0.620117,0.736388 0.904337,1.744077 0.297139,0.99477 0.297139,2.13165 z m -2.144569,-0.633035 q 0.03876,-1.679482 -0.749308,-2.635495 -0.775145,-0.956013 -2.312517,-0.956013 -0.788065,0 -1.382343,0.297139 -0.594278,0.297139 -0.99477,0.788065 -0.400492,0.490925 -0.620116,1.149799 -0.219625,0.645955 -0.245463,1.356505 z"
         id="path11315" />
      <path
         d="m 27.022816,-10.713914 q 0,0.103353 -0.05168,0.180867 -0.05168,0.0646 -0.167948,0.116272 -0.116272,0.05168 -0.322978,0.07752 -0.206705,0.02584 -0.529682,0.02584 -0.310059,0 -0.516764,-0.02584 -0.206706,-0.02584 -0.335896,-0.07752 -0.116272,-0.05168 -0.167949,-0.116272 -0.03876,-0.07751 -0.03876,-0.180867 v -11.627183 q 0,-0.09043 0.03876,-0.167948 0.05168,-0.07751 0.167949,-0.129191 0.12919,-0.05168 0.335896,-0.07751 0.206705,-0.02584 0.516764,-0.02584 0.322977,0 0.529682,0.02584 0.206706,0.02584 0.322978,0.07751 0.116271,0.05168 0.167948,0.129191 0.05168,0.07752 0.05168,0.167948 z M 27.268279,-26.2685 q 0,0.749307 -0.28422,1.020608 -0.28422,0.271301 -1.046447,0.271301 -0.749307,0 -1.033527,-0.258382 -0.271301,-0.271301 -0.271301,-1.007689 0,-0.749308 0.28422,-1.020609 0.28422,-0.2713 1.046447,-0.2713 0.749307,0 1.020608,0.2713 0.28422,0.258382 0.28422,0.994771 z"
         id="path11317" />
      <path
         d="m 40.975436,-10.713914 q 0,0.103353 -0.05168,0.180867 -0.05168,0.0646 -0.167949,0.116272 -0.116271,0.05168 -0.322977,0.07752 -0.206705,0.02584 -0.516764,0.02584 -0.322977,0 -0.529682,-0.02584 -0.206706,-0.02584 -0.322978,-0.07752 -0.116272,-0.05168 -0.167948,-0.116272 -0.05168,-0.07751 -0.05168,-0.180867 v -6.808361 q 0,-0.99477 -0.155029,-1.601968 -0.155029,-0.607197 -0.452169,-1.046446 -0.297139,-0.439249 -0.775145,-0.671793 -0.465087,-0.232544 -1.085204,-0.232544 -0.800983,0 -1.601967,0.56844 -0.800984,0.56844 -1.679482,1.666563 v 8.126109 q 0,0.103353 -0.05168,0.180867 -0.05168,0.0646 -0.167949,0.116272 -0.116271,0.05168 -0.322977,0.07752 -0.206705,0.02584 -0.529683,0.02584 -0.310058,0 -0.516763,-0.02584 -0.206706,-0.02584 -0.335897,-0.07752 -0.116271,-0.05168 -0.167948,-0.116272 -0.03876,-0.07751 -0.03876,-0.180867 v -11.627183 q 0,-0.103352 0.03876,-0.167948 0.03876,-0.07751 0.155029,-0.129191 0.116272,-0.0646 0.297139,-0.07751 0.180868,-0.02584 0.478007,-0.02584 0.28422,0 0.465087,0.02584 0.193786,0.01292 0.297139,0.07751 0.103353,0.05168 0.14211,0.129191 0.05168,0.0646 0.05168,0.167948 v 1.537372 q 0.98185,-1.098122 1.950782,-1.601967 0.981851,-0.516764 1.976621,-0.516764 1.162719,0 1.950783,0.400492 0.800984,0.387573 1.291909,1.046447 0.490926,0.658873 0.697631,1.550291 0.219625,0.878498 0.219625,2.118731 z"
         id="path11319" />
    </g>
    <g
       aria-label="Nein"
       transform="matrix(0.81284934,0,0,0.81284934,143.28816,9.0783431)"
       id="text2046-7-9"
       style="font-size:26.4583px;font-family:Calibri, Calibri_MSFontService, sans-serif;stroke-width:0.264583">
      <path
         d="m 7.5279072,-11.308192 q 0,0.258381 -0.090434,0.439249 -0.077515,0.180867 -0.2196246,0.297139 -0.1291909,0.116272 -0.2971391,0.167948 -0.1679482,0.05168 -0.3358964,0.05168 h -0.71055 q -0.3358964,0 -0.5942782,-0.06459 -0.2454628,-0.07752 -0.4780064,-0.258382 -0.2196246,-0.193786 -0.4521682,-0.516764 -0.2196246,-0.322977 -0.4909255,-0.826821 l -5.2709894,-9.508452 q -0.4134109,-0.736388 -0.839741,-1.537372 -0.4134109,-0.813903 -0.7751454,-1.576129 h -0.025838 q 0.025838,0.930175 0.038757,1.899107 0.012919,0.968931 0.012919,1.924944 v 10.089811 q 0,0.09043 -0.051676,0.180867 -0.051676,0.07752 -0.1808673,0.129191 -0.1162718,0.03876 -0.3229773,0.06459 -0.1937864,0.03876 -0.5038446,0.03876 -0.3100582,0 -0.5167636,-0.03876 -0.1937864,-0.02584 -0.3100582,-0.06459 -0.1162719,-0.05168 -0.1679482,-0.129191 -0.051676,-0.09043 -0.051676,-0.180867 V -26.15222 q 0,-0.516763 0.28422,-0.736388 0.28422,-0.219624 0.6201164,-0.219624 h 1.0593655 q 0.3746537,0 0.6201164,0.0646 0.2583819,0.0646 0.4521682,0.219625 0.2067055,0.14211 0.3875728,0.413411 0.1937864,0.258381 0.4134109,0.658873 l 4.0565948,7.338044 q 0.3746536,0.671793 0.7234691,1.317748 0.3488155,0.633035 0.6717928,1.253151 0.3229773,0.620117 0.6330355,1.227314 0.3229773,0.594278 0.6330355,1.201476 h 0.012919 q -0.025838,-1.020609 -0.038757,-2.118731 0,-1.111042 0,-2.13165 v -9.069203 q 0,-0.09043 0.051676,-0.167948 0.051676,-0.07751 0.1679482,-0.129191 0.1291909,-0.0646 0.3229773,-0.09043 0.2067055,-0.02584 0.5296828,-0.02584 0.28422,0 0.4909255,0.02584 0.2067054,0.02584 0.3229772,0.09043 0.1162719,0.05168 0.1679482,0.129191 0.051676,0.07752 0.051676,0.167948 z"
         id="path11330" />
      <path
         d="m 21.648474,-17.03135 q 0,0.503845 -0.258382,0.723469 -0.245463,0.206706 -0.56844,0.206706 h -7.622264 q 0,0.968932 0.193786,1.744077 0.193787,0.775146 0.645955,1.330666 0.452168,0.555521 1.175637,0.852661 0.723469,0.297139 1.769916,0.297139 0.826822,0 1.472776,-0.129191 0.645955,-0.14211 1.111042,-0.310059 0.478006,-0.167948 0.775146,-0.297139 0.310058,-0.14211 0.465087,-0.14211 0.09043,0 0.155029,0.05168 0.07752,0.03876 0.116272,0.129191 0.03876,0.09043 0.05168,0.258381 0.02584,0.15503 0.02584,0.387573 0,0.167948 -0.01292,0.297139 -0.01292,0.116272 -0.03876,0.219625 -0.01292,0.09043 -0.0646,0.167948 -0.03876,0.07752 -0.116272,0.155029 -0.0646,0.0646 -0.413411,0.232544 -0.348816,0.155029 -0.904337,0.310058 -0.555521,0.155029 -1.291909,0.271301 -0.723469,0.129191 -1.550291,0.129191 -1.434019,0 -2.519223,-0.400492 -1.072284,-0.400492 -1.808672,-1.188556 -0.736389,-0.788065 -1.111042,-1.976621 -0.374654,-1.188557 -0.374654,-2.764686 0,-1.498615 0.387573,-2.687171 0.387572,-1.201476 1.111042,-2.028297 0.736388,-0.839741 1.769915,-1.278991 1.033527,-0.452168 2.312518,-0.452168 1.369423,0 2.325436,0.439249 0.968932,0.43925 1.589048,1.188557 0.620117,0.736388 0.904337,1.744077 0.297139,0.99477 0.297139,2.13165 z m -2.144569,-0.633035 q 0.03876,-1.679482 -0.749308,-2.635495 -0.775145,-0.956013 -2.312517,-0.956013 -0.788065,0 -1.382343,0.297139 -0.594278,0.297139 -0.99477,0.788065 -0.400492,0.490925 -0.620116,1.149799 -0.219625,0.645955 -0.245463,1.356505 z"
         id="path11332" />
      <path
         d="m 27.022816,-10.713914 q 0,0.103353 -0.05168,0.180867 -0.05168,0.0646 -0.167948,0.116272 -0.116272,0.05168 -0.322978,0.07752 -0.206705,0.02584 -0.529682,0.02584 -0.310059,0 -0.516764,-0.02584 -0.206706,-0.02584 -0.335896,-0.07752 -0.116272,-0.05168 -0.167949,-0.116272 -0.03876,-0.07751 -0.03876,-0.180867 v -11.627183 q 0,-0.09043 0.03876,-0.167948 0.05168,-0.07751 0.167949,-0.129191 0.12919,-0.05168 0.335896,-0.07751 0.206705,-0.02584 0.516764,-0.02584 0.322977,0 0.529682,0.02584 0.206706,0.02584 0.322978,0.07751 0.116271,0.05168 0.167948,0.129191 0.05168,0.07752 0.05168,0.167948 z M 27.268279,-26.2685 q 0,0.749307 -0.28422,1.020608 -0.28422,0.271301 -1.046447,0.271301 -0.749307,0 -1.033527,-0.258382 -0.271301,-0.271301 -0.271301,-1.007689 0,-0.749308 0.28422,-1.020609 0.28422,-0.2713 1.046447,-0.2713 0.749307,0 1.020608,0.2713 0.28422,0.258382 0.28422,0.994771 z"
         id="path11334" />
      <path
         d="m 40.975436,-10.713914 q 0,0.103353 -0.05168,0.180867 -0.05168,0.0646 -0.167949,0.116272 -0.116271,0.05168 -0.322977,0.07752 -0.206705,0.02584 -0.516764,0.02584 -0.322977,0 -0.529682,-0.02584 -0.206706,-0.02584 -0.322978,-0.07752 -0.116272,-0.05168 -0.167948,-0.116272 -0.05168,-0.07751 -0.05168,-0.180867 v -6.808361 q 0,-0.99477 -0.155029,-1.601968 -0.155029,-0.607197 -0.452169,-1.046446 -0.297139,-0.439249 -0.775145,-0.671793 -0.465087,-0.232544 -1.085204,-0.232544 -0.800983,0 -1.601967,0.56844 -0.800984,0.56844 -1.679482,1.666563 v 8.126109 q 0,0.103353 -0.05168,0.180867 -0.05168,0.0646 -0.167949,0.116272 -0.116271,0.05168 -0.322977,0.07752 -0.206705,0.02584 -0.529683,0.02584 -0.310058,0 -0.516763,-0.02584 -0.206706,-0.02584 -0.335897,-0.07752 -0.116271,-0.05168 -0.167948,-0.116272 -0.03876,-0.07751 -0.03876,-0.180867 v -11.627183 q 0,-0.103352 0.03876,-0.167948 0.03876,-0.07751 0.155029,-0.129191 0.116272,-0.0646 0.297139,-0.07751 0.180868,-0.02584 0.478007,-0.02584 0.28422,0 0.465087,0.02584 0.193786,0.01292 0.297139,0.07751 0.103353,0.05168 0.14211,0.129191 0.05168,0.0646 0.05168,0.167948 v 1.537372 q 0.98185,-1.098122 1.950782,-1.601967 0.981851,-0.516764 1.976621,-0.516764 1.162719,0 1.950783,0.400492 0.800984,0.387573 1.291909,1.046447 0.490926,0.658873 0.697631,1.550291 0.219625,0.878498 0.219625,2.118731 z"
         id="path11336" />
    </g>
  </g>
</svg>
