<?xml version="1.0" encoding="UTF-8" standalone="no"?>
<!-- Created with Inkscape (http://www.inkscape.org/) -->

<svg
   width="43.179928mm"
   height="37.835247mm"
   viewBox="0 0 43.179928 37.835248"
   version="1.1"
   id="svg5395"
   inkscape:version="1.1.1 (3bf5ae0d25, 2021-09-20)"
   sodipodi:docname="2023-AU-01-salad.svg"
   xmlns:inkscape="http://www.inkscape.org/namespaces/inkscape"
   xmlns:sodipodi="http://sodipodi.sourceforge.net/DTD/sodipodi-0.dtd"
   xmlns="http://www.w3.org/2000/svg"
   xmlns:svg="http://www.w3.org/2000/svg">
  <sodipodi:namedview
     id="namedview5397"
     pagecolor="#ffffff"
     bordercolor="#666666"
     borderopacity="1.0"
     inkscape:pageshadow="2"
     inkscape:pageopacity="0.0"
     inkscape:pagecheckerboard="0"
     inkscape:document-units="mm"
     showgrid="false"
     inkscape:zoom="1.2810466"
     inkscape:cx="-126.84941"
     inkscape:cy="131.53308"
     inkscape:window-width="2048"
     inkscape:window-height="1017"
     inkscape:window-x="-8"
     inkscape:window-y="-8"
     inkscape:window-maximized="1"
     inkscape:current-layer="layer1" />
  <defs
     id="defs5392" />
  <g
     inkscape:label="Ebene 1"
     inkscape:groupmode="layer"
     id="layer1"
     transform="translate(-125.46428,-45.521873)">
    <g
       transform="matrix(0.30191868,0,0,0.30191868,-125.84197,-115.79223)"
       id="g1790"
       style="clip-rule:evenodd;fill-rule:evenodd;stroke-linecap:round;stroke-linejoin:round;stroke-miterlimit:1.5">
      <g
         transform="matrix(1.1290758,0,0,1.1290758,-154.55256,-161.28471)"
         id="g1728">
        <path
           d="m 972.142,669.28 c 4.752,0.363 9.438,1.025 14.246,1.785 2.298,0.362 6.852,0.245 8.324,2.561 1.767,2.779 1.067,5.335 1.067,8.324 0,1.60827 1.60201,8.2577 1.19268,13.49391 -0.22365,2.86097 -11.03068,7.6688 -10.59714,8.55424 -7.01181,9.91721 -45.54254,20.03585 -59.10854,14.02285 -4.164,-1.846 -30.199,-4.879 -35.858,-11.953 -1.155,-1.444 -3.617,-4.953 -4.195,-6.571 -1.941,-5.435 84.929,-30.217 84.929,-30.217 z"
           style="font-variation-settings:normal;opacity:1;vector-effect:none;fill:#7c553d;fill-opacity:1;stroke:none;stroke-width:0.539424;stroke-linecap:butt;stroke-linejoin:miter;stroke-miterlimit:1.5;stroke-dasharray:none;stroke-dashoffset:0;stroke-opacity:1;-inkscape-stroke:none;stop-color:#000000;stop-opacity:1"
           id="path1726"
           sodipodi:nodetypes="cccssccccc" />
      </g>
      <g
         transform="matrix(0.94632473,0,0,0.94632473,27.713342,-23.626011)"
         id="g1732">
        <path
           d="m 911.404,611.078 c 0.505,0.17 0.319,-1.082 0.159,-1.59 -0.342,-1.084 -0.909,-2.109 -1.608,-3.005 -2.504,-3.209 -4.095,-5.089 -8.599,-3.925 -4.659,1.204 -8.507,4.537 -10.655,8.786 -1.769,3.498 0.324,6.521 -2.991,9.534 -6.127,5.567 -16.59,-2.101 -20.376,7.477 -0.479,1.211 -1.098,13.182 -1.496,14.394 -1.012,3.085 -3.47,1.456 -5.234,3.365 -1.968,2.129 -6.341,7.889 -6.124,11.857 0.317,5.782 4.367,4.659 8.34,4.758 1.323,0.033 5.567,-0.258 5.822,2.453 0.638,6.778 -14.379,17.441 -2.69,21.195 3.874,1.244 8.047,1.475 11.85,2.92 2.279,0.865 3.878,3.092 6.169,3.925 z"
           style="fill:#34954c"
           id="path1730" />
      </g>
      <g
         transform="matrix(0.94632473,0,0,0.94632473,25.972307,-15.724174)"
         id="g1736">
        <path
           d="m 904.692,616.743 c 0.1,0.725 0.438,-1.397 0.722,-2.071 0.474,-1.128 0.609,-2.546 1.55,-3.328 1.951,-1.621 -0.236,-4.645 2.124,-5.575 2.826,-1.114 1.106,-2.966 3.675,-5.116 3.096,-2.59 5.688,-1.611 9.343,-4.077 2.59,-1.748 6.456,-2.57 9.534,-2.244 1.489,0.159 3.867,2.371 5.608,1.683 1.995,-0.788 3.291,-2.834 5.235,-3.739 8.067,-3.754 10.872,3.234 17.198,6.917 2.891,1.683 3.104,-1.809 6.169,-0.374 1.799,0.843 3.441,2.235 4.486,3.926 1.717,2.777 -2.1,3.58 0.374,6.169 1.684,1.761 3.986,2.841 6.169,3.925 1.778,0.884 2.96,-0.495 4.3,1.496 3.451,5.129 0.844,11.449 1.682,17.011 0.112,0.742 1.251,0.882 1.682,1.496 1.205,1.713 2.389,3.48 3.178,5.421 1.544,3.793 -2.357,6.468 -1.495,10.281 1.259,5.573 4.381,8.42 2.056,14.021 -1.593,3.838 -5.905,3.89 -9.16,5.421 -3.212,1.511 -8.679,4.94 -11.216,7.477 z"
           style="fill:#32a14d"
           id="path1734" />
      </g>
      <g
         transform="matrix(0.94632473,0,0,0.94632473,27.713342,-23.626011)"
         id="g1740">
        <path
           d="m 971.552,669.305 c 0.483,0.92 0.118,-2.254 0.841,-3.002 1.632,-1.689 6.959,-4.269 9.346,-1.869 4.37,4.393 -4.502,9.622 -2.163,14.353 2.068,4.184 -11.137,9.129 -15.222,12.379 -4.567,3.634 -0.46,7.018 -5.353,10.136 -4.216,2.687 -8.17,2.672 -12.712,0.935 -2.68,-1.025 -1.374,0.278 -4.554,-0.042 -2.431,-0.244 -5.096,-0.325 -7.291,0.748 -4.552,2.227 -6.603,9.869 -12.898,8.786 -9.182,-1.579 -12.947,-11.848 -22.059,-13.272 -9.541,-1.491 -14.243,6.996 -23.367,0 -4.675,-3.585 -2.755,-9.387 0.849,-13.03 7.099,-7.176 13.144,-12.768 22.518,-12.768 z"
           style="fill:#1ba03c"
           id="path1738" />
      </g>
      <g
         transform="matrix(0.94632473,0,0,0.94632473,24.851135,-20.911148)"
         id="g1744">
        <path
           d="m 966.637,623.773 c 0.861,-0.928 -1.223,-2.905 -1.462,-3.169 -0.987,-1.09 -1.901,-2.265 -3.033,-3.204 -5.137,-4.26 -10.932,-4.809 -15.12,0.969 -2.925,4.036 -2.545,9.579 -5.302,13.754 -1.275,1.93 -5.605,5.417 -4.778,8.538 1.49,5.623 5.686,11.946 8.335,17.059 0.68,1.31 3.102,4.354 3.102,6.009 z"
           style="fill:#51c440"
           id="path1742" />
      </g>
      <g
         transform="matrix(0.94632473,0,0,0.94632473,27.713342,-23.626011)"
         id="g1748">
        <path
           d="m 946.247,686.99 c 3.745,5.47 20.497,-3.448 23.261,-10.467 2.412,-6.125 0.731,-12.519 2.52,-18.803 0.538,-1.889 0.505,-8.799 1.475,-10.381 3.224,-5.259 -9.964,-20.447 -11.83,-17.728 -2.319,3.378 -7.263,8.806 -9.805,12.02 -6.859,8.67 -5.747,21.076 -5.815,31.209 -0.032,4.717 0.012,9.436 0.194,14.15 z"
           style="fill:#36bd2f"
           id="path1746" />
      </g>
      <g
         transform="matrix(0.94632473,0,0,0.94632473,27.713342,-23.626011)"
         id="g1752">
        <path
           d="m 961.874,629.412 c 4.208,4.102 9.287,11.956 7.149,15.442 -0.97,1.582 -0.937,8.493 -1.475,10.381 -1.789,6.284 -0.108,12.679 -2.52,18.803 -2.764,7.019 -17.379,10.875 -23.986,13.608 -0.037,0.016 3.007,6.57 4.982,3.415 0.194,1.02 20.72,-7.519 23.484,-14.538 2.412,-6.125 0.731,-12.519 2.52,-18.803 0.538,-1.889 0.505,-8.799 1.475,-10.381 3.126,-5.099 -9.177,-19.533 -11.629,-17.927 z"
           style="fill:#58ad47"
           id="path1750" />
      </g>
      <g
         transform="matrix(0.94632473,0,0,0.94632473,27.713342,-23.626011)"
         id="g1756">
        <path
           d="m 944.502,625.839 c 0.24,-0.129 0.648,-0.353 0.549,-0.608 -0.398,-1.024 -2.238,-0.07 -3.263,-0.465 -1.555,-0.598 -3.443,-2.471 -4.264,-3.877 -1.567,-2.682 -1.061,-3.947 -3.102,-6.397 -1.95,-2.34 -5.602,-0.553 -7.947,-2.132 -2.215,-1.491 -3.916,-4.732 -6.979,-2.714 -2.04,1.344 -1.804,2.495 -3.295,4.265 -1.131,1.343 -3.478,2.784 -4.265,4.458 -3.412,7.261 -4.903,15.944 -4.88,23.917 0.007,2.697 0.235,5.398 0.616,8.068 0.358,2.516 1.55,2.82 1.55,5.427 l 27.654,-5.614 c 8.472,-8.114 7.317,-16.22 7.626,-24.328 z"
           style="fill:#2cbe3d"
           id="path1754" />
      </g>
      <g
         transform="matrix(0.94632473,0,0,0.94632473,27.713342,-23.626011)"
         id="g1760">
        <path
           d="m 938.079,640.203 c 0.174,-0.825 -2.665,-2.75 -3.075,-3.031 -3.151,-2.156 -6.443,-4.11 -9.499,-6.397 -1.292,-0.967 -4.647,-5.85 -7.366,-4.652 -2.13,0.939 -3.366,2.953 -4.458,4.846 -3.749,6.496 -8.511,13.173 -7.366,21.129 0.527,3.664 3.371,13.313 5.427,16.477 1.895,2.916 4.749,5.085 6.979,7.754 4.032,4.826 5.869,8.607 10.661,12.794 2.606,2.275 4.146,4.219 8.067,2.942 1.82,-0.593 5.571,1.104 6.435,-0.344 2.187,-3.665 9.304,-5.583 10.202,-9.869 1.372,-6.549 -4.738,-9.621 -4.738,-16.185 z"
           style="fill:#59df21"
           id="path1758" />
      </g>
      <g
         transform="matrix(0.94632473,0,0,0.94632473,27.713342,-23.626011)"
         id="g1764">
        <path
           d="m 938.079,640.203 c 0.174,-0.825 -2.665,-2.75 -3.075,-3.031 -3.151,-2.156 -6.443,-4.11 -9.499,-6.397 -1.292,-0.967 -4.647,-5.85 -7.366,-4.652 -2.13,0.939 -3.366,2.953 -4.458,4.846 -3.749,6.496 -8.511,13.173 -7.366,21.129 0.527,3.664 3.371,13.313 5.427,16.477 1.895,2.916 4.749,5.085 6.979,7.754 4.032,4.826 5.869,8.607 10.661,12.794 2.606,2.275 4.146,4.219 8.067,2.942 1.82,-0.593 5.571,1.104 6.435,-0.344 2.187,-3.665 9.304,-5.583 10.202,-9.869 1.372,-6.549 -4.738,-9.621 -4.738,-16.185 z"
           style="fill:#59df21"
           id="path1762" />
      </g>
      <g
         transform="matrix(0.94632473,0,0,0.94632473,27.713342,-23.626011)"
         id="g1768">
        <path
           d="m 912.608,629.725 c 0.139,0.369 -0.423,-0.692 -0.478,-1.082 -0.172,-1.217 -0.181,-2.454 -0.194,-3.683 -0.013,-1.199 1.405,-10.986 -1.877,-10.117 -5.751,1.524 -10.032,5.386 -14.212,9.342 -4.305,4.074 -7.564,6.609 -10.855,11.63 -2.923,4.459 -0.978,9.723 1.461,13.867 2.366,4.021 7.526,9.397 10.945,12.496 4.417,4.004 7.291,6.397 13.181,6.397 z"
           style="fill:#2fbb51"
           id="path1766" />
      </g>
      <g
         transform="matrix(0.94632473,0,0,0.94632473,27.713342,-23.626011)"
         id="g1772">
        <path
           d="m 913.425,693.378 c 10.283,5.809 26.477,-0.63 23.711,-4.255 -0.696,-0.912 -11.818,-11.366 -15.701,-14.345 -0.909,-0.697 -2.307,-0.392 -3.296,-0.969 -2.448,-1.429 -1.255,-6.293 -0.387,-7.948 0.395,-0.754 4.844,-3.749 3.876,-5.427 -1.748,-3.032 -6.377,-0.107 -8.529,-0.388 -2.924,-0.383 -8.206,-3.423 -10.274,-5.428 -5.045,-4.893 -4.511,-12.76 -11.63,-15.895 -1.987,-0.875 -6.53,-1.349 -7.754,1.357 -2.524,5.578 -2.807,9.042 -4.265,14.926 -1.582,6.39 -5.003,14.617 0.118,20.434 5.542,6.295 12.596,9.638 20.042,13.101 1.993,0.927 3.931,2 6.009,2.714 2.634,0.904 5.656,0.753 8.08,2.123 z"
           style="fill:#5bd041"
           id="path1770" />
      </g>
      <g
         transform="matrix(0.94632473,0,0,0.94632473,27.713342,-23.626011)"
         id="g1776">
        <path
           d="m 935.774,691.653 c -5.033,0.682 -11.407,-3.815 -15.194,-1.588 -10.483,6.165 -51.843,-20.24 -35.469,-39.455 3.557,-4.173 2.896,-7.581 4.82,-12.299 -2.229,-0.531 -5.483,-0.457 -6.49,1.769 -2.524,5.578 -2.807,9.042 -4.265,14.926 -1.582,6.39 -5.003,14.617 0.118,20.434 5.542,6.295 12.596,9.638 20.042,13.101 1.993,0.927 3.931,2 6.009,2.714 2.634,0.904 5.367,1.498 8.08,2.123 6.649,1.531 17.152,3.781 22.349,-1.725 z"
           style="fill:#66b654"
           id="path1774" />
      </g>
      <g
         transform="matrix(0.94632473,0,0,0.94632473,27.713342,-23.626011)"
         id="g1780">
        <path
           d="m 892.723,639.337 c -0.358,-1.701 4.966,1.067 5.658,1.759 1.919,1.919 2.165,4.8 2.778,7.253 2.372,9.487 11.614,9.722 19.907,9.722"
           style="fill:none;stroke:#ffffff;stroke-width:1.91px"
           id="path1778" />
      </g>
      <g
         transform="matrix(0.94632473,0,0,0.94632473,27.713342,-23.626011)"
         id="g1784">
        <path
           d="m 925.021,627.416 c -0.878,-1.875 -5.104,-1.547 -7.042,-1.289 -5.551,0.741 -12.528,8.768 -7.252,14.043"
           style="fill:none;stroke:#ffffff;stroke-width:1.91px"
           id="path1782" />
      </g>
      <g
         transform="matrix(0.94632473,0,0,0.94632473,27.713342,-23.626011)"
         id="g1788">
        <path
           d="m 931.684,634.904 c 1.721,-0.684 0.381,2.044 -0.279,2.952 -1.183,1.627 -3.651,3.014 -5.555,3.395 -2.139,0.427 -4.094,-0.264 -5.401,-2.007 -0.565,-0.753 -1.017,-2.932 0.308,-2.932"
           style="fill:none;stroke:#ffffff;stroke-width:1.91px"
           id="path1786" />
      </g>
    </g>
  </g>
</svg>
