<?xml version="1.0" encoding="UTF-8" standalone="no"?>
<!-- Created with Inkscape (http://www.inkscape.org/) -->

<svg
   width="43.179928mm"
   height="37.835247mm"
   viewBox="0 0 43.179928 37.835248"
   version="1.1"
   id="svg5395"
   sodipodi:docname="2023-AU-01-tomato.svg"
   inkscape:version="1.1.1 (3bf5ae0d25, 2021-09-20)"
   xmlns:inkscape="http://www.inkscape.org/namespaces/inkscape"
   xmlns:sodipodi="http://sodipodi.sourceforge.net/DTD/sodipodi-0.dtd"
   xmlns="http://www.w3.org/2000/svg"
   xmlns:svg="http://www.w3.org/2000/svg">
  <sodipodi:namedview
     id="namedview5397"
     pagecolor="#ffffff"
     bordercolor="#666666"
     borderopacity="1.0"
     inkscape:pageshadow="2"
     inkscape:pageopacity="0.0"
     inkscape:pagecheckerboard="0"
     inkscape:document-units="mm"
     showgrid="false"
     inkscape:zoom="2.5620932"
     inkscape:cx="-11.123717"
     inkscape:cy="95.82009"
     inkscape:window-width="2048"
     inkscape:window-height="1017"
     inkscape:window-x="-8"
     inkscape:window-y="-8"
     inkscape:window-maximized="1"
     inkscape:current-layer="g1146" />
  <defs
     id="defs5392" />
  <g
     inkscape:label="Ebene 1"
     inkscape:groupmode="layer"
     id="layer1"
     transform="translate(-125.46428,-45.521873)">
    <g
       transform="matrix(0.34905156,0,0,0.34696664,-182.5967,-101.51724)"
       id="g1146"
       style="clip-rule:evenodd;fill-rule:evenodd;stroke-linecap:round;stroke-linejoin:round;stroke-miterlimit:1.5">
      <g
         transform="matrix(1.1867623,0,0,1.1867623,-172.85664,-95.593335)"
         id="g1082"
         style="font-variation-settings:normal;opacity:1;vector-effect:none;fill:#7c553d;fill-opacity:1;stroke:none;stroke-width:0.467984;stroke-linecap:butt;stroke-linejoin:miter;stroke-miterlimit:1.5;stroke-dasharray:none;stroke-dashoffset:0;stroke-opacity:1;-inkscape-stroke:none;stop-color:#000000;stop-opacity:1">
        <path
           d="m 909.89,486.45 c 1.197,-0.708 -8.262,2.371 -10.119,5.019 -17.139,24.434 34.202,23.745 42.533,22.191 0.744,-0.139 0.982,-2.527 1.321,-1.849 1.57,3.141 2.238,2.364 5.547,4.491 6.1,3.921 10.956,8.718 18.757,8.718 7.779,0 20.172,-8.006 14.002,-16.643 -1.335,-1.869 -3.691,-1.45 -5.548,-2.378 -4.073,-2.036 -6.192,-3.93 -11.096,-5.019 z"
           style="font-variation-settings:normal;opacity:1;vector-effect:none;fill:#7c553d;fill-opacity:1;stroke:none;stroke-width:0.467984;stroke-linecap:butt;stroke-linejoin:miter;stroke-miterlimit:1.5;stroke-dasharray:none;stroke-dashoffset:0;stroke-opacity:1;-inkscape-stroke:none;stop-color:#000000;stop-opacity:1"
           id="path1080" />
      </g>
      <g
         transform="matrix(0.5630653,0,0,0.5630653,241.1401,286.84893)"
         id="g1086">
        <path
           d="m 1208.93,274.343 c -0.01,-1.094 28.89,-4.716 31.25,-4.436 4.95,0.587 10.36,-0.157 15.29,0.938 15.49,3.441 30.54,20.755 39.53,33.594 7.42,10.599 5.42,27.251 1.07,38.579 -1.15,2.993 -1.8,5.85 -3.22,8.841 -9.28,19.553 -48.12,40.042 -58.86,38.513 -13.45,-1.915 -30.92,-5.639 -37.94,-11.188 -21.5,-16.991 -27.16,-29.352 -31.77,-47.94 -4.18,-16.871 9.43,-66.007 40.7,-57.882 5.8,1.508 3.95,0.981 3.95,0.981 z"
           style="fill:#ce2424"
           id="path1084" />
      </g>
      <path
         d="m 951.72469,500.32847 c -5.62406,8.32039 -29.24182,7.10989 -37.1326,0.0261 -11.36088,-10.19785 -16.71199,-15.08493 -17.88451,-26.99409 -0.9589,-9.73976 5.30839,-37.16584 22.91519,-32.59087 0.44267,0.11512 0.80582,0.20887 1.10251,0.28482 -23.30327,-0.62423 -25.25668,46.43089 -3.03455,54.6326 3.81662,1.40869 27.45811,3.45348 34.03396,4.64143 z"
         style="fill:#a62525;stroke-width:1.18676"
         id="path1088" />
      <g
         transform="matrix(0.5630653,0,0,0.5630653,241.1401,286.84893)"
         id="g1092">
        <path
           d="m 1256.77,290.242 c 8.83,-0.994 22.26,2.045 28.52,11.299"
           style="fill:none;stroke:#ffffff;stroke-width:2.93px"
           id="path1090" />
      </g>
      <g
         transform="matrix(0.5630653,0,0,0.5630653,241.1401,286.84893)"
         id="g1096">
        <path
           d="m 1227.62,301.541 c -4.76,-1.603 -12.33,-0.049 -17.47,3.056 -5.6,3.385 -8.18,11.754 -6.6,13.552"
           style="fill:none;stroke:#ffffff;stroke-width:2.93px"
           id="path1094" />
      </g>
      <g
         transform="matrix(0.5630653,0,0,0.5630653,241.1401,286.84893)"
         id="g1100">
        <path
           d="m 1236.28,288.282 c 0.66,-3.698 1.81,-9.742 2.62,-11.246 2.48,-4.589 6.97,-7.658 9.3,-12.341 1.36,-2.712 2.53,-5.512 3.67,-8.317 0.32,-0.777 0.57,-1.588 0.72,-2.414 0.07,-0.411 -0.4,-1.395 0,-1.252 1.28,0.466 1.75,3.373 1.87,4.292 0.55,4.124 -0.59,7.925 -3.3,11.089 -1.56,1.823 -3.41,2.908 -4.56,5.097 -0.98,1.855 -1.46,5.139 -1.79,7.154 -0.05,0.259 -0.73,1.826 -1.64,3.825 4.09,-6.18 9.76,-11.608 15.73,-12.071 3.87,-0.299 7.96,0.905 11.57,2.218 0.49,0.177 2.65,1.289 2.61,2.142 -0.02,0.375 -0.75,10e-4 -1.12,-0.058 -0.66,-0.103 -1.28,-0.423 -1.94,-0.428 -2.56,-0.018 -5.45,0.519 -7.78,1.598 -3.04,1.406 -4.6,2.815 -6.67,5.419 -0.41,0.515 -8.53,7.831 -12.02,11.216 0.87,0.238 1.75,0.476 2.65,0.562 2.04,0.192 2.52,-0.958 4.53,-0.93 9.14,0.127 17.61,3.588 23.49,10.672 0.24,0.29 -0.74,-0.21 -1.05,-0.415 -0.98,-0.634 -1.69,-1.729 -2.8,-2.085 -3.43,-1.106 -7.01,-1.68 -10.58,-2.225 -6.14,-0.94 -12.19,1.798 -18.34,0.448 -1.55,-0.342 -2.9,-1.106 -4.18,-2.015 -3.52,-1.072 -10.08,-1.369 -11.23,-3.371 -2.31,-4.05 -5.87,-6.848 -9.79,-10.56 -3.71,-3.501 -17.19,6.483 -16.74,11.255 0.01,0.186 -0.68,1.746 -0.7,1.737 -0.2,-0.103 -0.07,-1.057 -0.07,-1.251 0,-1.204 0.09,-2.419 0.28,-3.612 0.32,-2.011 3.86,-7.653 5.4,-9 4.3,-3.769 10.56,-3.318 15.58,-1.491 2.82,1.026 5.37,2.543 7.59,4.494 -0.29,-4.166 -0.16,-9.484 -2.39,-13.127 -2.4,-3.917 -7.4,-5.278 -11.73,-4.288 -0.78,0.178 -2.71,1.585 -3.06,1.528 -0.26,-0.044 2.73,-4.747 3.96,-4.932 3.76,-0.565 7.64,1.421 10.43,3.706 4.91,4.036 6.4,9.208 8.62,14.882 0.44,1.114 1.53,2.607 2.86,4.095 z"
           style="fill:#133024"
           id="path1098" />
      </g>
      <g
         transform="matrix(0.5630653,0,0,0.5630653,241.1401,286.84893)"
         id="g1104">
        <path
           d="m 1250.07,293.874 c 7.46,0.345 14.4,2.948 19.78,7.969 0.17,0.054 0.35,0.109 0.52,0.166 1.11,0.356 1.82,1.451 2.8,2.085 0.31,0.205 1.29,0.705 1.05,0.415 -5.88,-7.084 -14.35,-10.545 -23.49,-10.672 -0.24,-0.003 -0.46,0.01 -0.66,0.037 z m -5.75,6.72 c 3.92,0.171 7.8,-0.839 11.72,-0.992 -3.93,-0.17 -7.81,0.84 -11.72,0.992 z m -45.12,-8.864 c 3.15,-4.203 10.28,-8.866 13.91,-8.087 -5.33,0.865 -13.96,8.064 -13.6,11.898 0.01,0.186 -0.68,1.746 -0.7,1.737 -0.2,-0.103 -0.07,-1.057 -0.07,-1.251 0,-1.204 0.09,-2.419 0.28,-3.612 0.03,-0.197 0.09,-0.427 0.18,-0.685 z m 46.44,2.965 c -0.36,0.083 -0.78,0.121 -1.3,0.072 -0.9,-0.086 -1.78,-0.324 -2.66,-0.562 3.5,-3.385 11.62,-10.701 12.03,-11.216 2.07,-2.604 3.63,-4.013 6.67,-5.419 2.33,-1.079 5.22,-1.616 7.78,-1.598 0.15,0.001 0.3,0.018 0.44,0.045 -2.17,0.15 -4.45,0.67 -6.36,1.553 -3.04,1.406 -4.6,2.815 -6.67,5.419 -0.41,0.515 -8.53,7.831 -12.02,11.216 0.69,0.188 1.39,0.377 2.09,0.49 z m -30.87,-29.147 c 3.63,-0.373 7.34,1.553 10.03,3.757 4.91,4.036 6.4,9.208 8.62,14.882 0.25,0.644 0.73,1.415 1.34,2.238 -0.13,0.658 1.82,1.145 1.72,1.716 -1.33,-1.488 -4.48,-2.84 -4.92,-3.954 -2.22,-5.674 -3.71,-10.846 -8.63,-14.882 -2.22,-1.828 -5.15,-3.464 -8.16,-3.757 z m -2.97,15.03 c 2.77,-0.156 5.64,0.417 8.2,1.346 2.03,0.737 3.91,1.728 5.64,2.952 0.02,0.527 1.34,1.11 1.38,1.61 -2.22,-1.951 -6.06,-3.536 -8.88,-4.562 -1.99,-0.722 -4.17,-1.229 -6.34,-1.346 z m 40.47,-25.31 c 0.13,-0.429 0.24,-0.864 0.32,-1.304 0.07,-0.411 -0.4,-1.395 0,-1.252 1.28,0.466 1.75,3.373 1.87,4.292 0.55,4.124 -0.59,7.925 -3.3,11.089 -1.56,1.823 -3.41,2.908 -4.56,5.097 -0.84,1.583 -1.31,4.208 -1.64,6.197 -0.11,0.126 -0.18,0.469 -0.22,0.622 -0.38,1.528 -0.77,2.755 -1.78,4.29 0.91,-1.999 0.8,-9.254 1.77,-11.109 1.16,-2.189 3,-3.274 4.57,-5.097 2.7,-3.164 3.85,-6.965 3.3,-11.089 -0.04,-0.361 -0.15,-1.029 -0.33,-1.736 z m 6.94,16.81 c 3.78,-0.215 7.75,0.96 11.26,2.238 0.49,0.177 2.65,1.289 2.61,2.142 -0.02,0.375 -0.75,10e-4 -1.12,-0.058 -0.27,-0.042 -0.53,-0.12 -0.79,-0.198 -0.32,-0.805 -2.12,-1.727 -2.56,-1.886 -2.94,-1.07 -6.2,-2.067 -9.4,-2.238 z m -48.12,-2.876 c 0.2,-0.095 0.38,-0.167 0.52,-0.199 1.2,-0.276 2.46,-0.369 3.7,-0.276 -0.63,0.046 -1.24,0.138 -1.84,0.276 -0.78,0.178 -2.71,1.585 -3.06,1.528 -0.09,-0.015 0.21,-0.583 0.68,-1.329 z"
           style="fill:#464646"
           id="path1102" />
      </g>
      <g
         transform="matrix(0.78513107,0,0,0.5630653,-35.335161,285.97547)"
         id="g1108">
        <path
           d="m 1236.94,295.683 c 1.67,1.108 3.86,-3.965 3.82,-4.493 -0.33,-4.097 -0.22,-8.19 -1.47,-12.138 -0.24,-0.752 -1.64,-3.799 -2.35,-3.085 -0.01,0.009 -0.36,0.659 -0.74,0.939 -0.57,0.419 -1.42,0.625 -1.81,1.207 -0.18,0.265 0.31,0.095 0.47,0.134 0.39,0.096 0.83,0.564 1.07,0.872 0.87,1.088 1.38,2.851 1.81,4.157 0.78,2.34 0.35,4.764 0.2,7.176 -0.11,1.97 -0.18,3.437 -1,5.231 z"
           style="fill:#133024"
           id="path1106" />
      </g>
      <g
         transform="matrix(0.5630653,0,0,0.5630653,241.1401,286.84893)"
         id="g1112">
        <path
           d="m 1233.44,274.777 c 0.88,0.762 2.41,2.076 2.63,2.567 1.75,3.948 0.97,8.198 1.43,12.294 0.06,0.529 0.2,3.867 1.58,3.502 1.5,0.346 0.06,-2.973 0,-3.502 -0.46,-4.096 -0.3,-8.19 -2.05,-12.138 -0.34,-0.751 -2.28,-3.798 -3.28,-3.084 0,0.004 -0.13,0.165 -0.31,0.361 z"
           style="fill:#255c46"
           id="path1110" />
      </g>
      <g
         transform="matrix(0.4059356,0,0,0.36597256,470.30983,373.9822)"
         id="g1116">
        <path
           d="m 1208.93,274.343 c -0.01,-1.094 28.89,-4.716 31.25,-4.436 4.95,0.587 10.36,-0.157 15.29,0.938 15.49,3.441 30.54,20.755 39.53,33.594 7.42,10.599 5.42,27.251 1.07,38.579 -1.15,2.993 -31.12,37.5 -34.08,38.317 -20.31,5.615 -58.92,3.398 -65.94,-2.151 -21.5,-16.991 -27.16,-29.352 -31.77,-47.94 -4.18,-16.871 9.43,-66.007 40.7,-57.882 5.8,1.508 3.95,0.981 3.95,0.981 z"
           style="fill:#ce2424"
           id="path1114" />
      </g>
      <g
         transform="matrix(0.4059356,0,0,0.36597256,470.30983,373.9822)"
         id="g1120">
        <path
           d="m 1208.93,274.343 c -0.01,-1.094 28.89,-4.716 31.25,-4.436 4.95,0.587 10.36,-0.157 15.29,0.938 15.49,3.441 30.54,20.755 39.53,33.594 7.42,10.599 5.42,27.251 1.07,38.579 -1.15,2.993 -31.12,37.5 -34.08,38.317 -20.31,5.615 -58.92,3.398 -65.94,-2.151 -21.5,-16.991 -27.16,-29.352 -31.77,-47.94 -4.18,-16.871 9.43,-66.007 40.7,-57.882 5.8,1.508 3.95,0.981 3.95,0.981 z"
           style="fill:#ce2424"
           id="path1118" />
      </g>
      <g
         transform="matrix(0.4059356,0,0,0.36597256,470.30983,373.9822)"
         id="g1124">
        <path
           d="m 1208.93,274.343 c -0.01,-1.094 28.89,-4.716 31.25,-4.436 4.95,0.587 10.36,-0.157 15.29,0.938 15.49,3.441 30.54,20.755 39.53,33.594 7.42,10.599 0.17,26.475 1.07,38.579 0.72,9.733 -28.5,35.817 -34.08,38.317 -4.85,2.181 -13.8,6.924 -19.59,6.328 -19.07,-1.959 -40.97,-4.222 -46.35,-8.479 -21.5,-16.991 -27.16,-29.352 -31.77,-47.94 -4.18,-16.871 9.43,-66.007 40.7,-57.882 5.8,1.508 3.95,0.981 3.95,0.981 z"
           style="fill:#ce2424"
           id="path1122" />
      </g>
      <g
         transform="matrix(0.85558084,0,0,0.77135157,169.30301,129.4795)"
         id="g1128">
        <path
           d="m 953.737,495.104 c -4.739,7.012 -27.802,7.75 -34.451,1.781 -9.573,-8.593 -14.082,-12.711 -15.07,-22.746 -0.808,-8.207 4.473,-31.317 19.309,-27.462 0.373,0.097 0.679,0.176 0.929,0.24 -19.636,-0.526 -20.048,26.188 -8.638,40.3 2.937,3.633 31.202,9.096 37.921,7.887 z"
           style="fill:#a62525"
           id="path1126" />
      </g>
      <g
         transform="matrix(0.31802381,0,0,0.4741768,576.07646,339.5566)"
         id="g1132">
        <path
           d="m 1227.62,301.541 c -9.9,-4.021 -19.51,3.149 -21.43,8.879"
           style="fill:none;stroke:#ffffff;stroke-width:4.09px"
           id="path1130" />
      </g>
      <g
         transform="matrix(-0.2668969,-0.04375035,-0.03571324,0.21786701,1309.7293,469.26616)"
         id="g1136">
        <path
           d="m 1236.28,288.282 c 0.66,-3.698 1.81,-9.742 2.62,-11.246 2.48,-4.589 6.97,-7.658 9.3,-12.341 1.36,-2.712 2.53,-5.512 3.67,-8.317 0.32,-0.777 0.57,-1.588 0.72,-2.414 0.07,-0.411 -0.4,-1.395 0,-1.252 1.28,0.466 1.75,3.373 1.87,4.292 0.55,4.124 -0.59,7.925 -3.3,11.089 -1.56,1.823 -3.41,2.908 -4.56,5.097 -0.98,1.855 -1.46,5.139 -1.79,7.154 -0.05,0.259 -0.73,1.826 -1.64,3.825 4.09,-6.18 9.76,-11.608 15.73,-12.071 3.87,-0.299 7.96,0.905 11.57,2.218 0.49,0.177 2.65,1.289 2.61,2.142 -0.02,0.375 -0.75,10e-4 -1.12,-0.058 -0.66,-0.103 -1.28,-0.423 -1.94,-0.428 -2.56,-0.018 -5.45,0.519 -7.78,1.598 -3.04,1.406 -4.6,2.815 -6.67,5.419 -0.41,0.515 -8.53,7.831 -12.02,11.216 0.87,0.238 1.75,0.476 2.65,0.562 2.04,0.192 2.52,-0.958 4.53,-0.93 9.14,0.127 17.61,3.588 23.49,10.672 0.24,0.29 -0.74,-0.21 -1.05,-0.415 -0.98,-0.634 -1.69,-1.729 -2.8,-2.085 -3.43,-1.106 -7.01,-1.68 -10.58,-2.225 -6.14,-0.94 -12.19,1.798 -18.34,0.448 -1.55,-0.342 -2.9,-1.106 -4.18,-2.015 -3.52,-1.072 -10.08,-1.369 -11.23,-3.371 -2.31,-4.05 -5.87,-6.848 -9.79,-10.56 -3.71,-3.501 -17.19,6.483 -16.74,11.255 0.01,0.186 -0.68,1.746 -0.7,1.737 -0.2,-0.103 -0.07,-1.057 -0.07,-1.251 0,-1.204 0.09,-2.419 0.28,-3.612 0.32,-2.011 3.86,-7.653 5.4,-9 4.3,-3.769 10.56,-3.318 15.58,-1.491 2.82,1.026 5.37,2.543 7.59,4.494 -0.29,-4.166 -0.16,-9.484 -2.39,-13.127 -2.4,-3.917 -7.4,-5.278 -11.73,-4.288 -0.78,0.178 -2.71,1.585 -3.06,1.528 -0.26,-0.044 2.73,-4.747 3.96,-4.932 3.76,-0.565 7.64,1.421 10.43,3.706 4.91,4.036 6.4,9.208 8.62,14.882 0.44,1.114 1.53,2.607 2.86,4.095 z"
           style="fill:#133024"
           id="path1134" />
      </g>
      <g
         transform="matrix(-0.32289309,0.09467194,0.0497651,0.16973193,1355.3722,311.07668)"
         id="g1140">
        <path
           d="m 1236.94,295.683 c 1.67,1.108 3.86,-3.965 3.82,-4.493 -0.33,-4.097 -0.22,-8.19 -1.47,-12.138 -0.24,-0.752 -1.64,-3.799 -2.35,-3.085 -0.01,0.009 -0.36,0.659 -0.74,0.939 -0.57,0.419 -1.42,0.625 -1.81,1.207 -0.18,0.265 0.31,0.095 0.47,0.134 0.39,0.096 0.83,0.564 1.07,0.872 0.87,1.088 1.38,2.851 1.81,4.157 0.78,2.34 0.35,4.764 0.2,7.176 -0.11,1.97 -0.18,3.437 -1,5.231 z"
           style="fill:#133024"
           id="path1138" />
      </g>
      <g
         transform="matrix(-0.23156699,0.06789503,0.0497651,0.16973193,1241.7397,344.67748)"
         id="g1144">
        <path
           d="m 1233.44,274.777 c 0.88,0.762 2.41,2.076 2.63,2.567 1.75,3.948 0.97,8.198 1.43,12.294 0.06,0.529 0.2,3.867 1.58,3.502 1.5,0.346 0.06,-2.973 0,-3.502 -0.46,-4.096 -0.3,-8.19 -2.05,-12.138 -0.34,-0.751 -2.28,-3.798 -3.28,-3.084 0,0.004 -0.13,0.165 -0.31,0.361 z"
           style="fill:#255c46"
           id="path1142" />
      </g>
    </g>
  </g>
</svg>
