<?xml version="1.0" encoding="UTF-8" standalone="no"?>
<svg
   width="100%"
   height="100%"
   viewBox="0 0 916 496"
   version="1.1"
   xml:space="preserve"
   style="fill-rule:evenodd;clip-rule:evenodd;stroke-linecap:round;stroke-linejoin:round;stroke-miterlimit:1.5;"
   id="svg117"
   sodipodi:docname="2023-AU-01b-itsinformatics.svg"
   inkscape:version="1.1.1 (3bf5ae0d25, 2021-09-20)"
   xmlns:inkscape="http://www.inkscape.org/namespaces/inkscape"
   xmlns:sodipodi="http://sodipodi.sourceforge.net/DTD/sodipodi-0.dtd"
   xmlns="http://www.w3.org/2000/svg"
   xmlns:svg="http://www.w3.org/2000/svg"><defs
   id="defs121" /><sodipodi:namedview
   id="namedview119"
   pagecolor="#ffffff"
   bordercolor="#666666"
   borderopacity="1.0"
   inkscape:pageshadow="2"
   inkscape:pageopacity="0.0"
   inkscape:pagecheckerboard="0"
   showgrid="false"
   inkscape:zoom="1.2816594"
   inkscape:cx="428.35094"
   inkscape:cy="248.50596"
   inkscape:window-width="2048"
   inkscape:window-height="1017"
   inkscape:window-x="-8"
   inkscape:window-y="-8"
   inkscape:window-maximized="1"
   inkscape:current-layer="g27" />
    <g
   transform="translate(-2371.97,-541.531)"
   id="g115">
        <g
   transform="matrix(0.32992,0,0,0.32992,2338.75,632.042)"
   id="g4"
   style="font-variation-settings:normal;opacity:1;vector-effect:none;fill:#de8787;fill-opacity:1;stroke:#5e3800;stroke-width:14.8187px;stroke-linecap:round;stroke-linejoin:round;stroke-miterlimit:1.5;stroke-dasharray:none;stroke-dashoffset:0;stroke-opacity:1;-inkscape-stroke:none;stop-color:#000000;stop-opacity:1">
            <circle
   cx="2360.3301"
   cy="510.888"
   r="172.334"
   style="font-variation-settings:normal;vector-effect:none;fill:#de8787;fill-opacity:1;stroke:#5e3800;stroke-width:14.8187px;stroke-linecap:round;stroke-linejoin:round;stroke-miterlimit:1.5;stroke-dasharray:none;stroke-dashoffset:0;stroke-opacity:1;-inkscape-stroke:none;stop-color:#000000;stop-opacity:1"
   id="circle2" />
        </g>
        <g
   transform="matrix(0.186952,0,0,0.186952,2812.87,878.299)"
   id="g8">
            <circle
   cx="2360.3301"
   cy="510.888"
   r="172.334"
   style="fill:#808080;stroke:#000000;stroke-width:16.05px"
   id="circle6" />
        </g>
        <g
   transform="matrix(0.103736,0,0,0.101165,3009.29,923.369)"
   id="g12">
            <path
   d="m 2455.53,367.245 c 46.48,30.88 77.14,83.709 77.14,143.643 0,95.114 -77.22,172.334 -172.34,172.334 -95.11,0 -172.33,-77.22 -172.33,-172.334 0,-61.553 32.34,-115.613 80.94,-146.099"
   style="fill:none;stroke:#000000;stroke-width:58.56px"
   id="path10" />
        </g>
        <g
   transform="matrix(0.566658,0,0,0.519663,1387.14,471.485)"
   id="g16">
            <path
   d="m 3294.76,930.698 v 35.939"
   style="fill:none;stroke:#000000;stroke-width:11.04px"
   id="path14" />
        </g>
        <g
   id="path1092-9"
   transform="matrix(0.868615,0.544069,-0.544069,0.868615,2667.54,211.158)">
            
        </g>
        <g
   transform="matrix(0.32992,0,0,0.32992,1734.22,632.042)"
   id="g23">
            <circle
   cx="2360.3301"
   cy="510.888"
   r="172.334"
   style="fill:#ffe0ce"
   id="circle21" />
        </g>
        <g
   transform="matrix(0.32992,0,0,0.32992,1931.49,641.437)"
   id="g27">
            <circle
   cx="2360.3301"
   cy="510.888"
   r="172.334"
   style="fill:#ffe0ce"
   id="circle25" />
        <text
   xml:space="preserve"
   style="font-style:normal;font-weight:normal;font-size:255.78px;line-height:1.25;font-family:sans-serif;fill:#000000;fill-opacity:1;stroke:none;stroke-width:6.39449"
   x="2268.2087"
   y="595.23132"
   id="text20668"><tspan
     sodipodi:role="line"
     id="tspan20666"
     style="stroke-width:6.39449"
     x="2268.2087"
     y="595.23132">A</tspan></text><text
   xml:space="preserve"
   style="font-style:normal;font-weight:normal;font-size:255.78px;line-height:1.25;font-family:sans-serif;clip-rule:evenodd;fill:#000000;fill-opacity:1;fill-rule:evenodd;stroke:none;stroke-width:6.39449;stroke-linecap:round;stroke-linejoin:round;stroke-miterlimit:1.5"
   x="3513.2922"
   y="577.93597"
   id="text20668-6"><tspan
     sodipodi:role="line"
     id="tspan20666-1"
     style="stroke-width:6.39449"
     x="3513.2922"
     y="577.93597">B</tspan></text><path
   d="m 3474.3097,266.01178 186.1285,77.52574 -16.8329,55.41041 104.0406,53.01169 -5.5342,47.95289 131.4777,94.74674 -182.7668,-83.71202 0.042,-48.9587 -88.1778,-43.31036 7.6837,-65.24313 z"
   style="clip-rule:evenodd;fill-rule:nonzero;stroke:#ffffff;stroke-width:7.26952px;stroke-linecap:butt;stroke-linejoin:miter;stroke-miterlimit:4"
   id="path18" /></g>
        <g
   transform="translate(8.47107,-9.39446)"
   id="g31">
            <path
   d="m 2576.1,805.034 c -4.23,-0.549 6.3,1.658 7.67,1.658 14.78,0 29.85,0.945 44.37,0.945 0.39,0 2.59,0.249 2.84,0 1.89,-1.889 -17.94,-12.186 -17.94,-14.162 0,-0.154 2.64,0.848 2.83,0.944 2.35,1.175 13.94,12.711 12.27,16.05 -3.17,6.351 -31.2,14.11 -29.26,16.049"
   style="fill:none;stroke:#005922;stroke-width:3px"
   id="path29" />
        </g>
        <g
   transform="rotate(-4.418285,2684.0617,307.67125)"
   id="g35">
            <path
   d="m 2748.13,805.79 c -0.06,-0.686 40.79,1.512 45.23,3.735 1.16,0.58 3.78,0.944 3.78,0.944 0,0 -7.67,-6.312 -10.39,-10.385 -0.17,-0.266 -2.79,-6.609 -3.77,-6.609 -0.71,0 0.44,1.391 0.94,1.888 1.46,1.456 17.49,14.609 14.16,17.938 -3.68,3.678 -19.82,6.095 -19.82,12.273"
   style="fill:none;stroke:#005922;stroke-width:3px"
   id="path33" />
        </g>
        <g
   transform="translate(172.018,-191.427)"
   id="g39">
            <path
   d="m 2748.13,805.79 c -0.06,-0.686 49.01,4.679 49.01,4.679 0,0 -13.18,-16.994 -14.16,-16.994 -0.71,0 18.43,16.497 15.1,19.826 -3.68,3.678 -19.82,6.095 -19.82,12.273"
   style="fill:none;stroke:#005922;stroke-width:3px"
   id="path37" />
        </g>
        <g
   transform="translate(172.018,169.56)"
   id="g43">
            <path
   d="m 2748.13,805.79 c -0.06,-0.686 49.01,4.679 49.01,4.679 0,0 -13.18,-16.994 -14.16,-16.994 -0.71,0 18.43,16.497 15.1,19.826 -3.68,3.678 -19.82,6.095 -19.82,12.273"
   style="fill:none;stroke:#005922;stroke-width:3px"
   id="path41" />
        </g>
        <g
   transform="rotate(-6.9004166,4378.6714,-2409.0417)"
   id="g47">
            <path
   d="m 2748.13,805.79 c -0.06,-0.686 49.01,4.679 49.01,4.679 0,0 -13.18,-16.994 -14.16,-16.994 -0.71,0 18.43,16.497 15.1,19.826 -3.68,3.678 -19.82,6.095 -19.82,12.273"
   style="fill:none;stroke:#000000;stroke-width:3px"
   id="path45" />
        </g>
        <g
   transform="translate(74.6936,-8.76486)"
   id="g51">
            <path
   d="m 2911.93,802.789 c -1.06,0.241 -0.84,-0.817 0.39,-0.817 14.39,0 29.82,5.665 44.37,5.665 3.52,0 10.39,1.888 10.39,1.888 l -17.94,-17.938 c 0,0 2.13,0.24 2.83,0.944 4.96,4.957 9.38,10.288 13.22,16.05 0.59,0.889 4.53,2.073 3.77,2.832 -3.22,3.223 -13.35,7.508 -17.93,11.329 -1.17,0.974 -5.2,6.14 -2.84,3.776"
   style="fill:none;stroke:#005922;stroke-width:3px"
   id="path49" />
        </g>
        <g
   transform="translate(4.80637,-22.1079)"
   id="g55">
            <path
   d="m 2727.19,757.995 c 1.42,-22.063 41.99,-37.945 51.07,-56.097 0.14,-0.282 0.22,-0.722 0,-0.944 -0.97,-0.966 -18.11,3.583 -22.66,4.72 -0.69,0.171 -2.39,0.447 -1.89,0.944 1.96,1.958 21.27,-9.635 24.55,-4.72 0.13,0.203 -5.21,21.979 -8.87,28.641"
   style="fill:none;stroke:#005922;stroke-width:3px"
   id="path53" />
        </g>
        <g
   transform="rotate(-11.088267,2812.5681,891.6916)"
   id="g59">
            <path
   d="m 2724.3,865.775 c 0.19,-0.708 -2.49,-1.194 -0.8,1.34 10.98,16.477 26.67,38.228 33.99,52.869 1.74,3.482 2.83,11.329 2.83,11.329 3.07,1.796 4.56,-30.433 2.83,-31.155 -4.84,-2.024 18.24,59.101 -31.16,16.05"
   style="fill:none;stroke:#005922;stroke-width:3px"
   id="path57" />
        </g>
        <g
   transform="matrix(0.32992,0,0,0.32992,2136.59,632.042)"
   id="g63">
            <circle
   cx="2360.3301"
   cy="510.888"
   r="172.334"
   style="fill:#ffe0ce"
   id="circle61" />
        </g>
        <g
   transform="matrix(0.32992,0,0,0.32992,2061.2,449.546)"
   id="g67">
            <circle
   cx="2360.3301"
   cy="510.888"
   r="172.334"
   style="fill:#ffe0ce"
   id="circle65" />
        </g>
        <g
   transform="matrix(0.32992,0,0,0.32992,2058.34,810.533)"
   id="g71">
            <circle
   cx="2360.3301"
   cy="510.888"
   r="172.334"
   style="fill:#ffe0ce"
   id="circle69" />
        </g>
        <g
   transform="matrix(0.32992,0,0,0.32992,2267.16,449.546)"
   id="g75">
            <circle
   cx="2360.3301"
   cy="510.888"
   r="172.334"
   style="fill:#c0f9c6;stroke:#000000;stroke-width:9.09px"
   id="circle73" />
        </g>
        <g
   transform="matrix(0.32992,0,0,0.32992,2267.16,810.533)"
   id="g79">
            <circle
   cx="2360.3301"
   cy="510.888"
   r="172.334"
   style="fill:#c0f9c6;stroke:#000000;stroke-width:9.09px"
   id="circle77" />
        </g>
        <g
   transform="translate(-6.15939,-4.89047)"
   id="g83"
   style="font-variation-settings:normal;opacity:1;vector-effect:none;fill:none;fill-opacity:1;stroke:#5e3800;stroke-width:4.88899px;stroke-linecap:round;stroke-linejoin:round;stroke-miterlimit:1.5;stroke-dasharray:none;stroke-dashoffset:0;stroke-opacity:1;-inkscape-stroke:none;stop-color:#000000;stop-opacity:1">
            <path
   d="m 2861.69,850.518 c -9,23.856 -73.06,33.913 -87.35,-2.185 -0.24,-0.587 0.23,-0.585 0,0 -1.82,4.485 6.71,31.119 10.09,30.427 0,0 -12.6,-25.41 -10.09,-30.427 2.41,-4.832 23.76,-0.947 28.42,-0.947"
   style="font-variation-settings:normal;vector-effect:none;fill:none;fill-opacity:1;stroke:#5e3800;stroke-width:4.88899px;stroke-linecap:round;stroke-linejoin:round;stroke-miterlimit:1.5;stroke-dasharray:none;stroke-dashoffset:0;stroke-opacity:1;-inkscape-stroke:none;stop-color:#000000;stop-opacity:1"
   id="path81" />
        </g>
        <g
   transform="translate(203.804,-13.6612)"
   id="g87"
   style="font-variation-settings:normal;opacity:1;vector-effect:none;fill:none;fill-opacity:1;stroke:#5e3800;stroke-width:4.88899px;stroke-linecap:round;stroke-linejoin:round;stroke-miterlimit:1.5;stroke-dasharray:none;stroke-dashoffset:0;stroke-opacity:1;-inkscape-stroke:none;stop-color:#000000;stop-opacity:1">
            <path
   d="m 2861.69,850.518 c -9,23.856 -73.06,33.913 -87.35,-2.185 -0.24,-0.587 0.23,-0.585 0,0 -1.82,4.485 6.71,31.119 10.09,30.427 0,0 -12.6,-25.41 -10.09,-30.427 2.41,-4.832 23.76,-0.947 28.42,-0.947"
   style="font-variation-settings:normal;vector-effect:none;fill:none;fill-opacity:1;stroke:#5e3800;stroke-width:4.88899px;stroke-linecap:round;stroke-linejoin:round;stroke-miterlimit:1.5;stroke-dasharray:none;stroke-dashoffset:0;stroke-opacity:1;-inkscape-stroke:none;stop-color:#000000;stop-opacity:1"
   id="path85" />
        </g>
        <path
   d="m 2989.03,574.088 c -3.18,-1.413 -159.15,-73.737 -250.62,7.303 -59.01,52.289 -57.07,142.789 -53.85,158.913 0.75,3.719 1.32,12.054 4.71,10.358 2.1,-1.048 2.67,-8.169 3.77,-10.358 1.65,-3.3 3.41,-5.511 4.71,-9.417 6.18,-18.533 -4.2,13.615 -9.42,18.833 -0.57,0.572 -26.37,-20.683 -26.37,-16.95"
   style="fill:none;stroke:#000000;stroke-width:3px"
   id="path89" />
        <g
   transform="translate(0,-10.585)"
   id="g93">
            <path
   d="m 2373.66,795.049 c 0.27,-0.898 -0.55,39.841 0,40.4 0.43,0.423 34.91,-6.864 40.41,-12.358 1.22,-1.22 0.6,18.186 3.32,20.913 0.57,0.569 22.47,-24.842 29,-31.37 1.77,-1.776 -26.78,-33.824 -27.57,-34.221 -2.96,-1.479 -2.13,21.639 -2.38,21.389 -2.87,-2.87 -33.23,-4.753 -42.78,-4.753 z"
   style="fill:#808080;stroke:#000000;stroke-width:3px"
   id="path91" />
        </g>
        <g
   transform="translate(1564.47,17.9035)"
   id="g103">
            <g
   transform="translate(-174.885,-102.129)"
   id="g97">
                <path
   d="m 1730.68,677.781 7.55,-6.3 -9.35,-3.029 c -5.87,-1.901 -17.25,-11.223 -17.25,-11.223 l -4.1,-3.292 -3.42,3.996 c 0,0 -20.68,24.225 -33.48,46.813 -5.82,-11.981 -12.86,-24.249 -12.86,-24.249 l -2.83,-4.922 -4.79,3.049 c 0,0 -10.54,6.747 -13.74,9.574 l -5.09,4.511 5.53,3.965 c 2.19,1.569 5.07,5.172 8.25,9.576 8.2,11.343 17.69,27.942 20.5,34.669 l 4.09,9.791 5.55,-9.05 c 20.22,-33.022 26.48,-39.704 55.44,-63.879 z"
   style="fill:#ffffff"
   id="path95" />
            </g>
            <g
   transform="translate(-174.885,-102.129)"
   id="g101">
                <path
   d="m 1727.2,673.615 c -29.56,24.678 -35.95,31.501 -56.59,65.211 -4.14,-9.906 -22.29,-40.613 -30.6,-46.564 3.03,-2.682 13.05,-9.06 13.05,-9.06 0,0 11.74,20.413 17.25,34.031 10.93,-24.23 37.92,-55.772 37.92,-55.772 0,0 12.55,10.072 18.97,12.154 z"
   style="fill:#005922"
   id="path99" />
            </g>
        </g>
        <g
   transform="translate(1564.47,378.891)"
   id="g113">
            <g
   transform="translate(-174.885,-102.129)"
   id="g107">
                <path
   d="m 1730.68,677.781 7.55,-6.3 -9.35,-3.029 c -5.87,-1.901 -17.25,-11.223 -17.25,-11.223 l -4.1,-3.292 -3.42,3.996 c 0,0 -20.68,24.225 -33.48,46.813 -5.82,-11.981 -12.86,-24.249 -12.86,-24.249 l -2.83,-4.922 -4.79,3.049 c 0,0 -10.54,6.747 -13.74,9.574 l -5.09,4.511 5.53,3.965 c 2.19,1.569 5.07,5.172 8.25,9.576 8.2,11.343 17.69,27.942 20.5,34.669 l 4.09,9.791 5.55,-9.05 c 20.22,-33.022 26.48,-39.704 55.44,-63.879 z"
   style="fill:#ffffff"
   id="path105" />
            </g>
            <g
   transform="translate(-174.885,-102.129)"
   id="g111">
                <path
   d="m 1727.2,673.615 c -29.56,24.678 -35.95,31.501 -56.59,65.211 -4.14,-9.906 -22.29,-40.613 -30.6,-46.564 3.03,-2.682 13.05,-9.06 13.05,-9.06 0,0 11.74,20.413 17.25,34.031 10.93,-24.23 37.92,-55.772 37.92,-55.772 0,0 12.55,10.072 18.97,12.154 z"
   style="fill:#005922"
   id="path109" />
            </g>
        </g>
    </g>
</svg>
