<?xml version="1.0" encoding="UTF-8" standalone="no"?>
<svg
   width="859.60632"
   height="309.34848"
   viewBox="0 0 859.60632 309.34848"
   version="1.1"
   style="clip-rule:evenodd;fill-rule:evenodd;stroke-linecap:round;stroke-linejoin:round;stroke-miterlimit:1.5"
   id="svg117"
   sodipodi:docname="2023-AU-01b-itsinformatics-compatible.svg"
   inkscape:version="1.1.1 (3bf5ae0d25, 2021-09-20)"
   xmlns:inkscape="http://www.inkscape.org/namespaces/inkscape"
   xmlns:sodipodi="http://sodipodi.sourceforge.net/DTD/sodipodi-0.dtd"
   xmlns="http://www.w3.org/2000/svg"
   xmlns:svg="http://www.w3.org/2000/svg">
  <defs
     id="defs50" />
  <sodipodi:namedview
     id="namedview48"
     pagecolor="#ffffff"
     bordercolor="#666666"
     borderopacity="1.0"
     inkscape:pageshadow="2"
     inkscape:pageopacity="0.0"
     inkscape:pagecheckerboard="0"
     showgrid="false"
     inkscape:zoom="0.51797888"
     inkscape:cx="497.12452"
     inkscape:cy="27.993419"
     inkscape:window-width="2048"
     inkscape:window-height="1017"
     inkscape:window-x="-8"
     inkscape:window-y="-8"
     inkscape:window-maximized="1"
     inkscape:current-layer="g115" />
  <g
     transform="translate(-2371.9656,-728.09261)"
     id="g115">
    <g
       transform="matrix(0.32992,0,0,0.32992,2267.16,810.533)"
       id="g79"
       style="font-variation-settings:normal;opacity:1;vector-effect:none;fill:none;fill-opacity:1;stroke:none;stroke-width:1.79106;stroke-linecap:butt;stroke-linejoin:miter;stroke-miterlimit:1.5;stroke-dasharray:none;stroke-dashoffset:0;stroke-opacity:1;-inkscape-stroke:none;stop-color:#000000;stop-opacity:1">
      <circle
         cx="2360.3301"
         cy="510.888"
         r="172.334"
         style="font-variation-settings:normal;opacity:1;fill:#03b402;fill-opacity:1;stroke:#005922;stroke-width:14.5217;stroke-linecap:butt;stroke-linejoin:miter;stroke-miterlimit:1.5;stroke-dasharray:none;stroke-dashoffset:0;stroke-opacity:1;stop-color:#000000;stop-opacity:1"
         id="circle77" />
    </g>
    <g
       transform="matrix(0.32992,0,0,0.32992,2338.75,632.042)"
       id="g4"
       style="font-variation-settings:normal;opacity:1;vector-effect:none;fill:#ed9100;fill-opacity:1;stroke:#5e3800;stroke-width:9.44448px;stroke-linecap:butt;stroke-linejoin:miter;stroke-miterlimit:4;stroke-dasharray:none;stroke-dashoffset:0;stroke-opacity:1;-inkscape-stroke:none;stop-color:#000000;stop-opacity:1">
      <circle
         cx="2360.3301"
         cy="510.888"
         r="172.334"
         style="font-variation-settings:normal;vector-effect:none;fill:#ffd42a;fill-opacity:1;stroke:#5e3800;stroke-width:9.44448294px;stroke-linecap:butt;stroke-linejoin:miter;stroke-miterlimit:4;stroke-dasharray:none;stroke-dashoffset:0;stroke-opacity:1;-inkscape-stroke:none;stop-color:#000000;stop-opacity:1;opacity:1"
         id="circle2" />
    </g>
    <g
       id="path1092-9"
       transform="matrix(0.868615,0.544069,-0.544069,0.868615,2667.54,211.158)" />
    <g
       transform="matrix(0.32992,0,0,0.32992,1734.22,632.042)"
       id="g23">
      <circle
         cx="2360.3301"
         cy="510.888"
         r="172.334"
         style="font-variation-settings:normal;opacity:1;vector-effect:none;fill:#bb7733;fill-opacity:1;stroke:#5e3800;stroke-width:14.59293771px;stroke-linecap:butt;stroke-linejoin:miter;stroke-miterlimit:1.5;stroke-dasharray:none;stroke-dashoffset:0;stroke-opacity:1;-inkscape-stroke:none;stop-color:#000000;stop-opacity:1"
         id="circle21" />
    </g>
    <g
       id="g7539"
       transform="translate(0,-9.3950269)">
      <circle
         cx="2710.2102"
         cy="809.9892"
         r="56.856434"
         style="font-variation-settings:normal;vector-effect:none;fill:#bb7733;fill-opacity:1;stroke:#5e3800;stroke-width:4.81450201px;stroke-linecap:butt;stroke-linejoin:miter;stroke-miterlimit:1.5;stroke-dasharray:none;stroke-dashoffset:0;stroke-opacity:1;-inkscape-stroke:none;stop-color:#000000;opacity:1;stop-opacity:1"
         id="circle25" />
      <g
         aria-label="A"
         id="text20668"
         style="font-size:255.78px;stroke-width:6.39449"
         transform="matrix(0.32992,0,0,0.32992,1931.49,641.437)">
        <path
           d="m 2355.6335,433.62033 -34.2205,92.79518 h 68.566 z m -14.2377,-24.85363 h 28.6004 l 71.0639,186.46462 h -26.2275 l -16.9854,-47.83385 h -84.0527 l -16.9854,47.83385 h -26.6021 z"
           id="path23524" />
      </g>
    </g>
    <g
       aria-label="B"
       id="text20668-6"
       style="font-size:255.78px;stroke-width:6.39449"
       transform="matrix(0.32992,0,0,0.32992,1931.49,641.437)">
      <path
         d="m 3563.6239,488.88757 v 68.31624 h 40.4652 q 20.3575,0 30.0992,-8.36781 9.8665,-8.49269 9.8665,-25.85276 0,-17.48496 -9.8665,-25.72787 -9.7417,-8.3678 -30.0992,-8.3678 z m 0,-76.68405 v 56.20166 h 37.3429 q 18.4841,0 27.4764,-6.86909 9.1172,-6.99398 9.1172,-21.23174 0,-14.11286 -9.1172,-21.10684 -8.9923,-6.99399 -27.4764,-6.99399 z m -25.2283,-20.73216 h 64.4446 q 28.8502,0 44.4618,11.98968 15.6115,11.98969 15.6115,34.09568 0,17.11028 -7.9931,27.22658 -7.9931,10.1163 -23.4798,12.61415 18.609,3.99656 28.8502,16.7356 10.3661,12.61415 10.3661,31.59783 0,24.97851 -16.9854,38.5918 -16.9854,13.61329 -48.3334,13.61329 h -66.9425 z"
         id="path23529" />
    </g>
    <g
       transform="translate(8.47107,-9.39446)"
       id="g31">
      <path
         d="m 2576.1,805.034 c 0,0 6.3,1.658 7.67,1.658 14.78,0 29.85,0.945 44.37,0.945 0.39,0 2.59,0.249 2.84,0 1.89,-1.889 -17.94,-12.186 -17.94,-14.162 0,-0.154 2.64,0.848 2.83,0.944 2.35,1.175 16.78,9.879 15.11,13.218 -3.17,6.351 -34.04,16.942 -32.1,18.881"
         style="fill:none;stroke:#005922;stroke-width:3px"
         id="path29"
         sodipodi:nodetypes="csscsccc" />
    </g>
    <g
       transform="rotate(-4.418285,2684.0617,307.67125)"
       id="g35">
      <path
         d="m 2748.13,805.79 c 0,0 40.79,1.512 45.23,3.735 1.16,0.58 3.78,0.944 3.78,0.944 0,0 -7.67,-6.312 -10.39,-10.385 -0.17,-0.266 -2.79,-6.609 -3.77,-6.609 -0.71,0 0.44,1.391 0.94,1.888 1.46,1.456 17.49,14.609 14.16,17.938 -3.68,3.678 -19.82,6.095 -19.82,12.273"
         style="fill:none;stroke:#005922;stroke-width:3px"
         id="path33"
         sodipodi:nodetypes="ccccsccc" />
    </g>
    <g
       transform="translate(172.018,169.56)"
       id="g43">
      <path
         d="m 2745.7893,811.25167 c -0.06,-0.686 51.3507,-0.78267 51.3507,-0.78267 0,0 -13.18,-16.994 -14.16,-16.994 -0.71,0 18.43,16.497 15.1,19.826 -3.68,3.678 -19.82,6.095 -19.82,12.273"
         style="fill:none;stroke:#005922;stroke-width:3px"
         id="path41" />
    </g>
    <g
       transform="rotate(-6.9004166,4378.6714,-2409.0417)"
       id="g47">
      <path
         d="m 2748.13,805.79 49.01,4.679 c 0,0 -13.18,-16.994 -14.16,-16.994 -0.71,0 18.43,16.497 15.1,19.826 -3.68,3.678 -19.82,6.095 -19.82,12.273"
         style="fill:none;stroke:#000000;stroke-width:3px"
         id="path45"
         sodipodi:nodetypes="ccscc" />
    </g>
    <g
       transform="translate(74.6936,-8.76486)"
       id="g51">
      <path
         d="m 2911.93,802.789 c -1.06,0.241 -0.84,-0.817 0.39,-0.817 14.39,0 29.82,5.665 44.37,5.665 3.52,0 10.39,1.888 10.39,1.888 l -17.94,-17.938 c 0,0 2.13,0.24 2.83,0.944 4.96,4.957 9.38,10.288 13.22,16.05 0.59,0.889 4.53,2.073 3.77,2.832 -3.22,3.223 -13.35,7.508 -17.93,11.329 -1.17,0.974 -5.2,6.14 -2.84,3.776"
         style="fill:none;stroke:#005922;stroke-width:3px"
         id="path49" />
    </g>
    <g
       transform="rotate(-11.088267,2770.1703,816.59453)"
       id="g59">
      <path
         d="m 2723.5,867.115 c 0,0 26.67,38.228 33.99,52.869 1.74,3.482 2.83,11.329 2.83,11.329 3.07,1.796 4.56,-30.433 2.83,-31.155 -4.84,-2.024 18.24,59.101 -31.16,16.05"
         style="fill:none;stroke:#005922;stroke-width:3px"
         id="path57"
         sodipodi:nodetypes="ccccc" />
    </g>
    <g
       transform="matrix(0.32992,0,0,0.32992,2136.59,632.042)"
       id="g63">
      <circle
         cx="2360.3301"
         cy="510.888"
         r="172.334"
         style="font-variation-settings:normal;opacity:1;vector-effect:none;fill:#bb7733;fill-opacity:1;stroke:#5e3800;stroke-width:14.59293771px;stroke-linecap:butt;stroke-linejoin:miter;stroke-miterlimit:1.5;stroke-dasharray:none;stroke-dashoffset:0;stroke-opacity:1;-inkscape-stroke:none;stop-color:#000000;stop-opacity:1"
         id="circle61" />
    </g>
    <g
       transform="matrix(0.32992,0,0,0.32992,2058.34,810.533)"
       id="g71">
      <circle
         cx="2360.3301"
         cy="510.888"
         r="172.334"
         style="font-variation-settings:normal;opacity:1;vector-effect:none;fill:#bb7733;fill-opacity:1;stroke:#5e3800;stroke-width:14.59293771px;stroke-linecap:butt;stroke-linejoin:miter;stroke-miterlimit:1.5;stroke-dasharray:none;stroke-dashoffset:0;stroke-opacity:1;-inkscape-stroke:none;stop-color:#000000;stop-opacity:1"
         id="circle69" />
    </g>
    <g
       transform="translate(-6.15939,-4.89047)"
       id="g83"
       style="font-variation-settings:normal;opacity:1;vector-effect:none;fill:none;fill-opacity:1;stroke:#5e3800;stroke-width:4.88899px;stroke-linecap:round;stroke-linejoin:round;stroke-miterlimit:1.5;stroke-dasharray:none;stroke-dashoffset:0;stroke-opacity:1;-inkscape-stroke:none;stop-color:#000000;stop-opacity:1">
      <path
         d="m 2861.69,850.518 c -9,23.856 -73.06,33.913 -87.35,-2.185 -0.24,-0.587 0.23,-0.585 0,0 -1.82,4.485 6.71,31.119 10.09,30.427 0,0 -12.6,-25.41 -10.09,-30.427 2.41,-4.832 23.76,-0.947 28.42,-0.947"
         style="font-variation-settings:normal;opacity:1;vector-effect:none;fill:none;fill-opacity:1;stroke:#ed9100;stroke-width:4.88899px;stroke-linecap:round;stroke-linejoin:round;stroke-miterlimit:1.5;stroke-dasharray:none;stroke-dashoffset:0;stroke-opacity:1;-inkscape-stroke:none;stop-color:#000000;stop-opacity:1"
         id="path81" />
    </g>
    <g
       transform="translate(203.804,-13.6612)"
       id="g87"
       style="font-variation-settings:normal;opacity:1;vector-effect:none;fill:none;fill-opacity:1;stroke:#5e3800;stroke-width:4.88899px;stroke-linecap:round;stroke-linejoin:round;stroke-miterlimit:1.5;stroke-dasharray:none;stroke-dashoffset:0;stroke-opacity:1;-inkscape-stroke:none;stop-color:#000000;stop-opacity:1">
      <path
         d="m 2861.69,850.518 c -9,23.856 -73.06,33.913 -87.35,-2.185 -0.24,-0.587 0.23,-0.585 0,0 -1.82,4.485 6.71,31.119 10.09,30.427 0,0 -12.6,-25.41 -10.09,-30.427 2.41,-4.832 23.76,-0.947 28.42,-0.947"
         style="font-variation-settings:normal;vector-effect:none;fill:none;fill-opacity:1;stroke:#ed9100;stroke-width:4.88899px;stroke-linecap:round;stroke-linejoin:round;stroke-miterlimit:1.5;stroke-dasharray:none;stroke-dashoffset:0;stroke-opacity:1;-inkscape-stroke:none;stop-color:#000000;stop-opacity:1"
         id="path85" />
    </g>
    <g
       transform="translate(0,-10.585)"
       id="g93">
      <path
         d="m 2373.66,795.049 c 0.27,-0.898 -0.55,39.841 0,40.4 0.43,0.423 34.91,-6.864 40.41,-12.358 1.22,-1.22 0.6,18.186 3.32,20.913 0.57,0.569 22.47,-24.842 29,-31.37 1.77,-1.776 -26.78,-33.824 -27.57,-34.221 -2.96,-1.479 -2.13,21.639 -2.38,21.389 -2.87,-2.87 -33.23,-4.753 -42.78,-4.753 z"
         style="fill:#808080;stroke:#000000;stroke-width:3px"
         id="path91" />
    </g>
    <g
       transform="translate(1564.47,378.891)"
       id="g113">
      <g
         transform="translate(-174.885,-102.129)"
         id="g107">
        <path
           d="m 1730.68,677.781 7.55,-6.3 -9.35,-3.029 c -5.87,-1.901 -17.25,-11.223 -17.25,-11.223 l -4.1,-3.292 -3.42,3.996 c 0,0 -20.68,24.225 -33.48,46.813 -5.82,-11.981 -12.86,-24.249 -12.86,-24.249 l -2.83,-4.922 -4.79,3.049 c 0,0 -10.54,6.747 -13.74,9.574 l -5.09,4.511 5.53,3.965 c 2.19,1.569 5.07,5.172 8.25,9.576 8.2,11.343 17.69,27.942 20.5,34.669 l 4.09,9.791 5.55,-9.05 c 20.22,-33.022 26.48,-39.704 55.44,-63.879 z"
           style="fill:#ffffff"
           id="path105" />
      </g>
      <g
         transform="translate(-174.885,-102.129)"
         id="g111">
        <path
           d="m 1727.2,673.615 c -29.56,24.678 -35.95,31.501 -56.59,65.211 -4.14,-9.906 -22.29,-40.613 -30.6,-46.564 3.03,-2.682 13.05,-9.06 13.05,-9.06 0,0 11.74,20.413 17.25,34.031 10.93,-24.23 37.92,-55.772 37.92,-55.772 0,0 12.55,10.072 18.97,12.154 z"
           style="fill:#005922"
           id="path109" />
      </g>
    </g>
    <path
       style="fill:none;fill-opacity:1;stroke:#000000;stroke-width:5.8;stroke-linecap:round;stroke-linejoin:round;stroke-miterlimit:1.5;stroke-dasharray:none;stroke-opacity:1"
       d="m 3190.4402,927.74905 h 38.2317 v 100.65075 h -46.0341"
       id="path1385" />
  </g>
  <g
     id="path18-2"
     transform="matrix(0.86031435,0,0,0.86031435,119.85448,5.4421105)">
    <path
       id="path6756"
       style="color:#000000;fill:#f9f9f9;fill-rule:nonzero;stroke-linecap:butt;stroke-linejoin:miter;stroke-miterlimit:4;-inkscape-stroke:none"
       d="m 707.98242,-4.2089844 -5.32617,10.1601563 41.86328,26.8984371 -2.5918,21.998047 29.52539,14.501953 -0.0137,16.261719 63.66211,29.158202 5.76367,-9.90625 -40.63671,-29.283202 1.89843,-16.439453 -33.59375,-17.117187 5.66602,-18.650391 z" />
    <path
       style="color:#000000;fill:#ed9100;fill-rule:nonzero;stroke-width:11.516;stroke-linecap:butt;stroke-linejoin:miter;stroke-miterlimit:4;-inkscape-stroke:none"
       d="m 705.76866,1.1069965 61.40751,25.5772925 -5.55351,18.281002 34.32508,17.489617 -1.82585,15.820617 43.37712,31.258845 -60.29842,-27.61827 0.0139,-16.152454 -29.09162,-14.288954 2.53501,-21.525014 z"
       id="path6729" />
  </g>
</svg>
