<?xml version="1.0" encoding="UTF-8" standalone="no"?>
<!-- Created with Inkscape (http://www.inkscape.org/) -->

<svg
   width="43.179928mm"
   height="37.835247mm"
   viewBox="0 0 43.179928 37.835248"
   version="1.1"
   id="svg5395"
   sodipodi:docname="2023-AU-01-fennel.svg"
   inkscape:version="1.1.1 (3bf5ae0d25, 2021-09-20)"
   xmlns:inkscape="http://www.inkscape.org/namespaces/inkscape"
   xmlns:sodipodi="http://sodipodi.sourceforge.net/DTD/sodipodi-0.dtd"
   xmlns="http://www.w3.org/2000/svg"
   xmlns:svg="http://www.w3.org/2000/svg">
  <sodipodi:namedview
     id="namedview5397"
     pagecolor="#ffffff"
     bordercolor="#666666"
     borderopacity="1.0"
     inkscape:pageshadow="2"
     inkscape:pageopacity="0.0"
     inkscape:pagecheckerboard="0"
     inkscape:document-units="mm"
     showgrid="false"
     inkscape:zoom="5.1241864"
     inkscape:cx="76.012067"
     inkscape:cy="90.258231"
     inkscape:window-width="2048"
     inkscape:window-height="1017"
     inkscape:window-x="-8"
     inkscape:window-y="-8"
     inkscape:window-maximized="1"
     inkscape:current-layer="g1468" />
  <defs
     id="defs5392" />
  <g
     inkscape:label="Ebene 1"
     inkscape:groupmode="layer"
     id="layer1"
     transform="translate(-125.46428,-45.521873)">
    <g
       transform="matrix(0.26458333,0,0,0.26458333,-89.606338,-136.41265)"
       id="g1468"
       style="clip-rule:evenodd;fill-rule:evenodd;stroke-linecap:round;stroke-linejoin:round;stroke-miterlimit:1.5">
      <g
         transform="translate(111.043,118.698)"
         id="g1410"
         style="font-variation-settings:normal;opacity:1;vector-effect:none;fill:#7c553d;fill-opacity:1;stroke:none;stroke-width:0.61554189;stroke-linecap:butt;stroke-linejoin:miter;stroke-miterlimit:1.5;stroke-dasharray:none;stroke-dashoffset:0;stroke-opacity:1;-inkscape-stroke:none;stop-color:#000000;stop-opacity:1">
        <path
           d="m 804.808,684.692 c 1.245,0.016 9.75,2.073 10.89,1.617 1.557,-0.623 11.59681,2.34993 11.67881,4.02193 15.25492,17.45774 -46.94174,32.78499 -79.59387,9.7194 -2.623,-2.033 -7.20766,-10.45159 3.67983,-11.50852 z"
           style="font-variation-settings:normal;vector-effect:none;fill:#7c553d;fill-opacity:1;stroke:none;stroke-width:0.61554189;stroke-linecap:butt;stroke-linejoin:miter;stroke-miterlimit:1.5;stroke-dasharray:none;stroke-dashoffset:0;stroke-opacity:1;-inkscape-stroke:none;stop-color:#000000;stop-opacity:1"
           id="path1408"
           sodipodi:nodetypes="cccccc" />
      </g>
      <g
         transform="matrix(1.42024,0,0,1.42024,-231.746,-177.586)"
         id="g1414">
        <path
           d="m 780.193,653.559 c 0,-0.537 0.71,-0.817 0.966,-1.288 1.502,-2.764 2.889,-5.295 3.511,-8.356 1.723,-8.462 -0.882,-16.907 -1.819,-25.235 -0.043,-0.385 0.368,0.695 0.644,0.967 0.613,0.603 1.266,1.188 2.014,1.611 0.511,0.288 1.11,0.406 1.692,0.483 0.326,0.043 0.977,-0.133 0.837,0.696 0.952,0.213 2.102,16.913 4.238,21.778 0.553,1.26 2.083,4.35 4.027,4.35 -2.156,25.114 -7.904,24.02 -16.11,4.994 z"
           style="fill:#a8f6b0"
           id="path1412" />
      </g>
      <g
         transform="translate(111.043,118.698)"
         id="g1418">
        <path
           d="m 774.552,587.645 c -0.427,-0.056 -0.153,-1.017 0.673,-0.908 0.463,0.061 1.082,-0.357 1.488,1.15 1.231,1.471 2.686,23.859 5.72,30.769 0.785,1.789 2.959,6.178 5.72,6.178 -0.174,2.026 -0.364,3.932 -0.571,5.719 -2.999,-1.149 -8.769,-10.222 -9.505,-11.897 -3.033,-6.91 -3.063,-30.95 -3.525,-31.011 z"
           style="fill:#71d67b"
           id="path1416" />
      </g>
      <g
         transform="matrix(1.42024,0,0,1.42024,-231.746,-177.586)"
         id="g1422">
        <path
           d="m 774.903,699.943 c -5.92,-5.196 -11.519,-16.04 -2.739,-33.506 0.52,-1.036 0.292,-2.312 0.472,-3.485 0.427,-2.777 -0.43,-5.815 -0.118,-8.622 0.317,-2.858 0.065,-5.762 -0.059,-8.622 -0.108,-2.487 0.225,-5.023 0,-7.5 -0.308,-3.391 -0.629,-6.781 -1.004,-10.158 -0.298,-2.678 -1.388,-12.646 -1.399,-12.649 l 0.376,0.057 c -0.539,-0.659 6.398,-2.336 7.067,-1.704 0.325,0.306 0.322,1.652 0.322,2.014 0,2.359 -0.322,4.763 -0.322,7.169 0,6.151 1.171,12.421 2.175,18.447 0.361,2.168 1.107,4.426 1.611,6.444 0.136,0.545 1.616,2.661 1.128,2.336 4.217,19.348 -0.078,34.816 -7.51,49.779 z"
           style="fill:#c0f9c6"
           id="path1420" />
      </g>
      <g
         transform="matrix(1.42024,0,0,1.42024,-231.746,-177.586)"
         id="g1426">
        <path
           d="m 775.436,699.634 c -0.286,-0.153 -1.123,0.316 -1.448,0.308 -3.358,-0.083 -9.523,-17.191 -5.343,-24.525 4.171,-7.318 7.144,-13.191 16.844,-15.528 2.044,-0.493 10.683,-7.611 11.781,-14.949 0.309,-2.064 2.397,-19.567 2.9,-26.099 0.165,-2.141 0.644,-4.214 0.644,-6.444 0,-0.214 0.157,-2.681 0.157,-2.681 l 6.046,1.472 c 0,0 -0.046,0.968 -0.081,1.45 -0.065,0.914 -0.209,1.835 -0.322,2.739 -0.48,3.842 -3.132,27.134 -2.9,28.758 0.312,2.179 0.402,4.419 0.645,6.605 0.054,0.488 0.805,7.044 -1.168,11.088 -6.679,13.697 -26.162,38.659 -27.755,37.806 z"
           style="fill:#a0ffa4"
           id="path1424" />
      </g>
      <g
         transform="matrix(1.42024,0,0,1.42024,-231.746,-177.586)"
         id="g1430">
        <path
           d="m 770.432,615.458 c -0.267,-0.326 2.987,9.215 3.284,11.894 0.376,3.377 0.696,6.766 1.004,10.158 0.226,2.477 -0.108,5.013 0,7.5 0.125,2.859 0.377,5.764 0.059,8.622 -0.311,2.807 0.546,5.844 0.119,8.622 -0.181,1.173 0.048,2.449 -0.473,3.485 -1.637,3.257 -2.809,6.295 -3.593,9.113 -0.951,1.753 -1.284,4.056 -1.195,6.553 -0.693,8.651 2.596,14.643 6.469,18.08 -1.065,1.043 -2.983,0.033 -3.367,-0.373 -3.367,-3.551 -5.989,-9.195 -5.364,-17.009 -0.089,-2.497 0.245,-4.8 1.196,-6.553 0.187,-0.344 0.078,-1.793 1.418,-5.628 2.553,-7.312 3.178,-20.592 2.47,-24.214 -0.478,-2.443 0.225,-5.023 0,-7.5 -0.308,-3.391 -0.629,-6.781 -1.004,-10.158 -0.298,-2.678 -1.388,-12.646 -1.399,-12.649 z m 5.89,83.813 -0.013,0.012 0.008,-0.015 z m 9.799,-39.636 c 2.786,-1.415 10.142,-7.962 11.149,-14.695 0.309,-2.064 2.397,-19.567 2.9,-26.099 0.165,-2.141 0.644,-4.214 0.644,-6.444 0,-0.162 0.043,-2.142 -0.146,-2.755 0,0 -0.06,-0.196 0,0 l 2.398,0.584 c 0.024,0.688 0.01,1.38 0.01,1.473 0,2.229 -0.48,4.303 -0.645,6.444 -0.502,6.532 -2.591,24.035 -2.899,26.099 -1.098,7.338 -9.737,14.456 -11.781,14.949 -0.566,0.136 -1.108,0.284 -1.63,0.444 z"
           style="fill:#8ee592"
           id="path1428" />
      </g>
      <g
         transform="matrix(1.42024,0,0,1.42024,-231.746,-177.586)"
         id="g1434">
        <path
           d="m 815.698,631.208 c 0,0 -1.252,-1.566 -1.41,-1.712 -0.975,-0.9 -2.166,-1.462 -3.021,-2.316 -0.513,-0.514 -1.813,-1.209 -1.813,-1.209 0,0 -0.028,0.878 -0.1,1.31 -0.147,0.88 -0.682,1.651 -0.806,2.517 -0.361,2.529 -3.991,25.321 -7.25,30.21 -3.637,5.456 -9.998,6.162 -14.96,10.222 -4.862,3.978 -13.329,13.893 -12.342,22.992 0.134,1.239 0.409,6.568 1.802,7.429 12.509,7.737 29.05,3.785 34.583,-0.788 3.922,-3.243 5.942,-16.274 1.746,-27.146 -0.849,-2.2 -0.116,-4.728 -0.503,-7.049 -0.555,-3.326 3.782,-34.46 4.074,-34.46 z"
           style="fill:#baf6b4"
           id="path1432" />
      </g>
      <g
         transform="matrix(1.42024,0,0,1.42024,-231.746,-177.586)"
         id="g1438">
        <path
           d="m 812.127,627.897 c 0.27,0.335 0.494,0.615 0.494,0.615 -0.292,0 -4.628,31.134 -4.074,34.46 0.387,2.321 -0.345,4.849 0.504,7.049 4.195,10.872 2.175,23.903 -1.747,27.145 -5.216,4.313 -20.218,8.072 -32.401,2.003 0.231,0.704 0.524,1.252 0.895,1.482 12.509,7.737 29.05,3.785 34.583,-0.788 3.922,-3.243 5.942,-16.274 1.746,-27.146 -0.849,-2.2 -0.116,-4.728 -0.503,-7.049 -0.555,-3.326 3.782,-34.46 4.074,-34.46 0,0 -1.252,-1.566 -1.41,-1.712 -0.678,-0.626 -1.46,-1.088 -2.161,-1.599 z"
           style="fill:#9ce69e"
           id="path1436" />
      </g>
      <g
         transform="matrix(1.42024,0,0,1.42024,-231.746,-177.586)"
         id="g1442">
        <path
           d="m 800.895,610.383 c 0.641,0.957 7.002,1.894 6.122,0.421 -0.924,-1.548 -6.097,-1.926 -6.389,-1.342 -0.056,0.112 0.256,0.904 0.267,0.921 z"
           style="fill:#94ebab"
           id="path1440" />
      </g>
      <g
         transform="matrix(1.07336,0,0,1.42024,46.4286,-152.737)"
         id="g1446">
        <path
           d="m 786.771,615.603 v 0 c -0.021,-0.056 -0.053,-0.107 -0.096,-0.148 -0.022,-0.021 -0.046,-0.04 -0.072,-0.055 l -0.009,-0.005 c -0.232,-0.532 -0.482,-1.146 -0.719,-1.763 -0.401,-1.04 -0.764,-2.087 -0.951,-2.774 -0.085,-0.309 -0.14,-0.534 -0.128,-0.637 0.18,-1.502 1.198,-3.126 1.23,-4.679 0.014,-0.684 -0.154,-1.355 -0.659,-1.996 -0.022,-0.03 -0.065,-0.036 -0.095,-0.014 -0.03,0.023 -0.036,0.066 -0.014,0.096 0.447,0.624 0.579,1.261 0.536,1.903 -0.104,1.553 -1.201,3.13 -1.45,4.626 -0.052,0.312 0.29,1.657 0.751,3.11 -0.473,-0.853 -0.946,-1.667 -1.342,-2.422 -0.222,-0.423 -0.261,-0.87 -0.205,-1.324 0.138,-1.123 0.823,-2.287 0.957,-3.278 0.03,-0.221 0.079,-0.843 -0.032,-1.245 -0.068,-0.245 -0.196,-0.41 -0.398,-0.406 -0.038,0 -0.068,0.03 -0.068,0.068 0,0.037 0.03,0.068 0.068,0.068 0.184,0.003 0.245,0.219 0.274,0.471 0.044,0.371 -0.013,0.833 -0.044,1.013 -0.172,0.993 -0.904,2.138 -1.086,3.262 -0.084,0.524 -0.051,1.044 0.187,1.544 0.53,1.112 1.221,2.353 1.832,3.656 -0.24,-0.124 -0.479,-0.248 -0.715,-0.376 -0.289,-0.157 -0.574,-0.319 -0.851,-0.493 -0.571,-0.361 -1.035,-0.992 -1.439,-1.703 -0.618,-1.086 -1.095,-2.354 -1.558,-3.225 -0.4,-0.751 -0.308,-1.776 -0.522,-2.629 -0.102,-0.404 -0.266,-0.771 -0.569,-1.059 -0.027,-0.026 -0.07,-0.026 -0.096,0 -0.027,0.027 -0.027,0.07 0,0.096 0.266,0.281 0.4,0.628 0.474,1.006 0.177,0.89 0.043,1.94 0.416,2.734 0.491,1.047 0.977,2.636 1.698,3.86 0.12,0.203 0.246,0.396 0.38,0.576 -0.05,-0.023 -0.088,-0.038 -0.11,-0.046 -0.575,-0.193 -1.053,-0.477 -1.496,-0.806 -0.695,-0.517 -1.305,-1.141 -2.05,-1.707 -0.676,-0.513 -1.147,-0.523 -1.515,-0.928 -0.186,-0.204 -0.343,-0.511 -0.489,-1.039 -0.009,-0.037 -0.046,-0.059 -0.083,-0.05 -0.036,0.009 -0.058,0.046 -0.049,0.083 0.128,0.572 0.285,0.906 0.472,1.134 0.352,0.429 0.826,0.469 1.485,1.024 0.718,0.605 1.298,1.26 1.969,1.814 0.463,0.382 0.968,0.714 1.582,0.955 0.191,0.075 1.631,0.897 2.815,1.849 0.446,0.358 0.856,0.732 1.136,1.091 0.007,0.02 0.014,0.041 0.02,0.061 0.321,0.967 0.53,1.945 0.53,2.91 -0.029,0.082 -0.029,0.17 -0.005,0.25 -0.012,0.314 -0.047,0.625 -0.11,0.935 -0.039,0.217 0.106,0.425 0.323,0.464 0.045,0.009 0.09,0.009 0.133,0.002 0.018,0.217 0.151,0.635 0.278,1.06 0.095,0.314 0.19,0.633 0.19,0.838 -0.104,0.128 -0.121,0.312 -0.03,0.46 0.116,0.189 0.362,0.248 0.55,0.132 0.052,-0.033 0.099,-0.073 0.139,-0.123 -0.035,0.089 -0.067,0.178 -0.099,0.269 -0.067,0.21 0.048,0.435 0.258,0.503 0.21,0.068 0.436,-0.048 0.504,-0.258 0.206,-0.686 0.51,-1.319 0.866,-1.93 0.13,-0.223 0.266,-0.443 0.407,-0.661 0.109,-0.106 0.813,-1.058 0.829,-1.192 v -0.002 c 0.008,-0.011 0.015,-0.022 0.021,-0.033 0.079,-0.016 0.218,-0.041 0.327,-0.043 0.071,-0.002 0.142,-0.002 0.214,-10e-4 0.051,0.034 0.11,0.055 0.174,0.062 0.151,0.01 0.372,-0.009 0.643,-0.051 1.36,-0.052 2.556,0.145 3.893,0.178 0.33,0.009 0.668,0.008 1.019,-0.01 0.037,0 0.068,-0.03 0.068,-0.068 0,-0.037 -0.031,-0.068 -0.068,-0.068 -1.134,-0.056 -2.117,-0.265 -3.122,-0.435 0.141,-0.039 0.284,-0.079 0.428,-0.121 1.697,-0.491 3.559,-1.162 3.969,-1.465 0.032,-0.021 0.04,-0.063 0.019,-0.094 -0.021,-0.031 -0.063,-0.04 -0.094,-0.019 -0.372,0.224 -1.84,0.613 -3.336,0.923 -1.401,0.291 -2.82,0.515 -3.333,0.435 -0.079,-0.008 -0.155,0.007 -0.221,0.04 -0.029,-0.003 -0.057,-0.006 -0.086,-0.009 0.199,-0.295 0.579,-1.057 0.847,-1.057 0.022,0.01 0.415,0.165 0.44,0.172 0.648,0.14 2.447,0.099 4.014,-0.143 1.149,-0.179 2.166,-0.46 2.503,-0.834 0.027,-0.026 0.027,-0.07 0,-0.096 -0.026,-0.027 -0.069,-0.027 -0.096,0 -0.355,0.32 -1.346,0.473 -2.449,0.53 -0.682,0.035 -1.407,0.03 -2.049,-0.004 0.616,-0.352 1.168,-0.688 1.695,-1.062 0.709,-0.504 1.369,-1.073 2.074,-1.844 0.027,-0.026 0.027,-0.069 0,-0.096 -0.026,-0.026 -0.07,-0.026 -0.096,0 -0.756,0.691 -1.45,1.188 -2.186,1.618 -0.742,0.432 -1.522,0.791 -2.446,1.202 -0.076,0.034 -0.235,0.017 -0.421,0.01 -0.055,-0.002 -0.111,-0.005 -0.169,-0.008 -0.062,-0.015 -0.117,-0.03 -0.165,-0.046 -0.088,-0.023 -0.176,-0.016 -0.254,0.016 -0.076,-0.007 -0.15,-0.013 -0.221,-0.019 0.007,-0.014 0.015,-0.029 0.023,-0.044 0.162,-0.305 0.285,-0.626 0.384,-0.958 0.018,-0.061 0.035,-0.122 0.052,-0.183 0.663,-0.583 1.327,-1.165 2.022,-1.707 0.589,-0.461 1.199,-0.893 1.849,-1.274 0.588,-0.345 1.391,-0.573 2.055,-0.912 0.312,-0.159 0.594,-0.342 0.811,-0.57 0.027,-0.026 0.027,-0.069 0,-0.096 -0.027,-0.026 -0.07,-0.026 -0.096,0 -0.216,0.206 -0.492,0.365 -0.794,0.502 -0.686,0.31 -1.507,0.503 -2.117,0.823 -0.68,0.357 -1.323,0.767 -1.945,1.207 -0.548,0.388 -1.079,0.798 -1.605,1.214 0.18,-0.956 0.293,-1.941 0.704,-2.804 0.223,-0.471 0.717,-1.419 1.272,-2.155 0.41,-0.542 0.845,-0.974 1.232,-0.981 0.037,0 0.068,-0.031 0.068,-0.069 0,-0.037 -0.031,-0.068 -0.068,-0.068 -0.337,-0.006 -0.728,0.266 -1.109,0.67 -0.702,0.742 -1.383,1.922 -1.669,2.466 -0.539,1.027 -0.659,2.247 -0.974,3.374 0.07,0.596 -0.99,2.331 -1.295,2.105 -0.055,-0.658 -0.272,-1.941 -0.256,-2.586 0.011,-0.468 0.074,-0.913 0.247,-1.309 0.017,-0.033 0.003,-0.074 -0.03,-0.091 -0.034,-0.017 -0.075,-0.003 -0.092,0.031 -0.225,0.397 -0.341,0.857 -0.404,1.348 -0.134,1.045 -0.012,2.224 -0.169,3.187 -0.009,0.055 -0.022,0.112 -0.037,0.169 -0.09,0.228 -0.178,0.453 -0.271,0.668 -0.206,0.478 -0.43,0.905 -0.78,1.167 -0.13,0.103 -0.179,0.271 -0.137,0.422 -0.085,0.125 -0.169,0.251 -0.25,0.378 -0.305,0.479 -0.579,0.973 -0.804,1.496 0.018,-0.116 0.016,-0.259 -0.012,-0.42 -0.094,-0.537 -0.478,-1.404 -0.508,-1.728 -0.043,-0.467 -0.088,-0.929 -0.132,-1.389 0.014,-0.019 0.028,-0.038 0.042,-0.058 0.545,-0.788 1.53,-3.049 1.683,-3.359 0.02,-0.033 0.009,-0.074 -0.023,-0.094 -0.032,-0.019 -0.074,-0.009 -0.093,0.024 -0.159,0.221 -1.033,1.582 -1.704,2.451 -0.029,-0.326 -0.056,-0.653 -0.08,-0.982 0.091,-0.05 0.183,-0.123 0.27,-0.223 0.203,-0.233 0.424,-0.612 0.616,-0.955 0.131,-0.233 0.362,-0.688 0.454,-0.79 0.759,-0.839 1.517,-1.4 2.339,-2.244 0.206,-0.211 0.408,-0.424 0.604,-0.64 0.027,-0.027 0.027,-0.07 0,-0.097 -0.026,-0.026 -0.069,-0.026 -0.096,0 -0.673,0.609 -1.403,1.178 -2.112,1.749 0.006,-0.384 0.067,-0.849 0.193,-1.31 0.049,-0.176 0.105,-0.352 0.172,-0.522 0.171,-0.295 0.372,-0.63 0.588,-0.992 1.033,-1.176 2.786,-1.685 4.071,-2.639 0.607,-0.451 1.115,-0.995 1.408,-1.74 0.015,-0.035 -10e-4,-0.075 -0.036,-0.089 -0.035,-0.015 -0.075,10e-4 -0.089,0.035 -0.322,0.691 -0.837,1.176 -1.44,1.569 -0.84,0.546 -1.847,0.911 -2.76,1.376 -0.141,0.072 -0.279,0.147 -0.415,0.225 0.357,-0.631 0.704,-1.287 0.976,-1.915 0.344,-0.795 0.571,-1.543 0.551,-2.136 0,-0.037 -0.031,-0.068 -0.068,-0.068 -0.038,0 -0.068,0.031 -0.068,0.068 -0.02,0.571 -0.288,1.273 -0.67,2.015 -0.47,0.911 -1.112,1.875 -1.695,2.722 -0.125,0.111 -0.244,0.229 -0.355,0.354 -0.3,0.338 -0.54,0.77 -0.723,1.225 -0.306,0.463 -0.261,1.218 -0.468,1.668 -0.182,0.394 -0.729,1.575 -0.917,1.841 -0.036,-0.728 -0.095,-1.979 -0.006,-2.523 0.034,-0.014 0.067,-0.033 0.097,-0.057 0.734,-0.624 1.504,-1.988 2.148,-3.557 0.84,-2.049 1.49,-4.433 1.651,-5.823 0.006,-0.037 -0.02,-0.072 -0.057,-0.078 -0.037,-0.005 -0.072,0.02 -0.078,0.058 -0.249,1.357 -1.044,3.662 -2.004,5.624 -0.478,0.978 -0.994,1.869 -1.504,2.497 0.019,-0.071 0.039,-0.143 0.06,-0.214 0.361,-1.24 0.894,-2.397 1.112,-3.658 0.154,-0.894 0.077,-1.82 0.153,-2.733 0.018,-0.223 0.046,-0.446 0.089,-0.666 0.008,-0.037 -0.015,-0.073 -0.052,-0.082 -0.036,-0.008 -0.073,0.015 -0.081,0.052 -0.056,0.224 -0.096,0.45 -0.127,0.677 -0.122,0.897 -0.092,1.816 -0.291,2.691 -0.281,1.236 -0.871,2.353 -1.293,3.563 -0.049,0.141 -0.096,0.283 -0.139,0.426 0.037,-0.446 0.082,-0.895 0.132,-1.347 0.246,-2.209 0.621,-4.46 0.899,-6.474 0.078,-0.564 0.469,-1.234 0.632,-1.826 0.047,-0.175 0.076,-0.343 0.074,-0.501 0,-0.038 -0.03,-0.068 -0.068,-0.068 -0.038,0 -0.068,0.03 -0.068,0.068 -0.002,0.145 -0.035,0.299 -0.084,0.459 -0.183,0.596 -0.599,1.265 -0.695,1.836 -0.341,2.007 -0.786,4.249 -1.101,6.454 -0.213,1.492 -0.366,2.967 -0.39,4.34 z"
           style="fill:#188747"
           id="path1444" />
      </g>
      <g
         transform="matrix(1.42024,0,0,1.42024,-231.746,-177.586)"
         id="g1450">
        <path
           d="m 805.555,666.467 c 3.891,1.845 -0.466,33.319 -7.543,31.559"
           style="fill:none;stroke:#ffffff;stroke-width:1.29px"
           id="path1448" />
      </g>
      <g
         transform="matrix(1.42024,0,0,1.42024,-231.746,-177.586)"
         id="g1454">
        <path
           d="m 798.546,670.013 c 1.605,1.259 -4.789,23.718 -10.768,25.631"
           style="fill:none;stroke:#ffffff;stroke-width:1.29px"
           id="path1452" />
      </g>
      <g
         transform="matrix(1.42024,0,0,1.42024,-231.746,-177.586)"
         id="g1458">
        <path
           d="m 794.47,669.92 c -2.348,1.607 -14.307,17.595 -15.25,21.93"
           style="fill:none;stroke:#ffffff;stroke-width:1.29px"
           id="path1456" />
      </g>
      <g
         transform="matrix(1.42024,0,0,1.42024,-242.086,-187.305)"
         id="g1462">
        <path
           d="m 794.47,669.92 c -2.348,1.607 -14.307,17.595 -15.25,21.93"
           style="fill:none;stroke:#ffffff;stroke-width:1.29px"
           id="path1460" />
      </g>
      <g
         transform="translate(111.043,118.698)"
         id="g1466">
        <path
           d="m 776.287,586.727 c -3.398,0.169 -7.978,-2.938 -7.267,-4.454 3.104,-0.302 5.684,1.23 7.267,4.454 z"
           style="fill:#b1f9ca"
           id="path1464" />
      </g>
    </g>
  </g>
</svg>
