<?xml version="1.0" encoding="UTF-8" standalone="no"?>
<!-- Created with Inkscape (http://www.inkscape.org/) -->

<svg
   width="43.179928mm"
   height="37.835247mm"
   viewBox="0 0 43.179928 37.835248"
   version="1.1"
   id="svg5395"
   sodipodi:docname="2023-AU-01-leek.svg"
   inkscape:version="1.1.1 (3bf5ae0d25, 2021-09-20)"
   xmlns:inkscape="http://www.inkscape.org/namespaces/inkscape"
   xmlns:sodipodi="http://sodipodi.sourceforge.net/DTD/sodipodi-0.dtd"
   xmlns="http://www.w3.org/2000/svg"
   xmlns:svg="http://www.w3.org/2000/svg">
  <sodipodi:namedview
     id="namedview5397"
     pagecolor="#ffffff"
     bordercolor="#666666"
     borderopacity="1.0"
     inkscape:pageshadow="2"
     inkscape:pageopacity="0.0"
     inkscape:pagecheckerboard="0"
     inkscape:document-units="mm"
     showgrid="false"
     inkscape:zoom="5.1241863"
     inkscape:cx="8.8794586"
     inkscape:cy="155.04901"
     inkscape:window-width="2048"
     inkscape:window-height="1017"
     inkscape:window-x="-8"
     inkscape:window-y="-8"
     inkscape:window-maximized="1"
     inkscape:current-layer="g608" />
  <defs
     id="defs5392" />
  <g
     inkscape:label="Ebene 1"
     inkscape:groupmode="layer"
     id="layer1"
     transform="translate(-125.46428,-45.521873)">
    <g
       transform="matrix(0.26458333,0,0,0.26458333,43.140915,-66.968501)"
       id="g608"
       style="clip-rule:evenodd;fill-rule:evenodd;stroke-linecap:round;stroke-linejoin:round;stroke-miterlimit:1.5">
      <g
         transform="matrix(2.4118,0,0,1.67065,-3866.5,-620.227)"
         id="g558"
         style="font-variation-settings:normal;opacity:1;vector-effect:none;fill:#7c553d;fill-opacity:1;stroke:none;stroke-width:0.30665089;stroke-linecap:butt;stroke-linejoin:miter;stroke-miterlimit:1.5;stroke-dasharray:none;stroke-dashoffset:0;stroke-opacity:1;-inkscape-stroke:none;stop-color:#000000;stop-opacity:1">
        <path
           d="m 1747.37,687.655 c 4.18,1.569 14.35,10.439 17.42,14.202 7.63,9.337 -18.71,8.754 -26.07,1.355 -1.12,-1.133 -0.57,-5.082 -1.45,-6.354 -1.44,-2.091 3.44,-3.089 3.44,-3.206 z"
           style="font-variation-settings:normal;vector-effect:none;fill:#7c553d;fill-opacity:1;stroke:none;stroke-width:0.30665089;stroke-linecap:butt;stroke-linejoin:miter;stroke-miterlimit:1.5;stroke-dasharray:none;stroke-dashoffset:0;stroke-opacity:1;-inkscape-stroke:none;stop-color:#000000;stop-opacity:1"
           id="path556" />
      </g>
      <g
         transform="matrix(0.779912,0.576958,-0.576958,0.779912,-626.704,-1000.4)"
         id="g562">
        <path
           d="m 1771.69,596.488 c 0,0 6.08,3.057 6.68,1.857 1.7,-3.401 7.86,-16.135 9.4,-19.527 1.79,-3.951 3.84,-7.821 5.65,-11.732 0.89,-1.94 1.36,-4.34 2.6,-6.083 1.38,-1.93 2.24,-4.154 3.48,-6.228 2.45,-4.084 4.16,-5.83 0.58,-9.414 -0.85,-0.851 -1.51,-1.442 -2.61,-1.883 -0.69,-0.275 -1.13,-1.053 -1.88,-1.304 -0.46,-0.151 -1.07,3.45 -1.3,3.911 -1.24,2.464 -2.97,5.287 -3.91,8.111 -2.56,7.662 -7.78,14.532 -11.3,22.015 -1.7,3.601 -3.66,7.466 -4.78,11.297 -0.88,2.97 -1.22,6.198 -2.61,8.98 z"
           style="fill:#66db22"
           id="path560" />
      </g>
      <g
         transform="matrix(0.779912,0.576958,-0.576958,0.779912,-621.23,-1003.95)"
         id="g566">
        <path
           d="m 1756.33,700.078 c 1.18,0.151 -1.44,5.037 -1.44,4.747 0,-0.704 -1.84,-3.716 -2.61,-3.331 -0.34,0.171 -0.92,4.34 -1.88,3.621 -0.98,-0.732 -0.37,-2.803 -1.16,-3.331 -0.6,-0.4 -1.04,1.535 -1.45,1.738 -1.25,0.626 -0.77,-3.483 -1.51,-3.114 -0.47,0.232 -1.31,4.434 -1.38,3.404 -0.22,-2.903 -0.67,-4.998 -1.51,-3.94 -0.63,0.796 -1.68,1.255 -2.9,1.419 -0.9,0.12 1.91,-2.464 0.93,-2.649 -1.11,-0.207 -2.83,1.669 -3.78,1.124 -0.78,-0.45 1.23,-4.243 0.63,-3.187 -1.36,2.404 -4.33,1.088 -1.65,-1.19"
           style="fill:#50a71d"
           id="path564" />
      </g>
      <g
         transform="matrix(0.779912,0.576958,-0.576958,0.779912,-625.392,-993.477)"
         id="g570">
        <path
           d="m 1770.43,599.734 c 0.6,0.046 14.08,-43.956 15.45,-46.987 1.26,-2.757 2.53,-6.29 4.64,-8.4 0.71,-0.708 -2.63,-2.429 -2.9,-2.462 -1.9,-0.239 -6.97,-0.989 -8.4,0.434 -1.49,1.494 -1.65,6.476 -2.17,8.545 -1.87,7.47 -12.12,43.984 -11.22,48.487 0.1,0.504 -0.52,13.142 1.57,10.889 z"
           style="fill:#50a71d"
           id="path568" />
      </g>
      <g
         transform="matrix(0.779912,0.576958,-0.576958,0.779912,-621.23,-1003.95)"
         id="g574">
        <path
           d="m 1777.19,612.13 c -1.17,2.122 -2.73,4.149 -3.47,6.373 -2.24,6.715 -3.01,14.591 -4.2,21.725 -1.31,7.856 -1.17,15.981 -2.75,23.898 -1.05,5.25 -4.07,9.32 -5.36,14.484 -0.77,3.054 -0.24,17.549 -1.31,18.974 -0.83,1.112 -1.76,1.905 -2.6,2.751 -0.35,0.346 -1.77,0.173 -2.18,0.58 -0.47,0.472 -2.34,0.869 -3.18,0.869 -1.45,0 -2.83,-0.237 -4.2,-0.58 -2.13,-0.53 -6.29,-2.109 -7.53,-3.765 -0.76,-1.004 -2.51,-0.947 -3.48,-1.593 -1.05,-0.699 -2.03,-2.456 -2.32,-3.621 -0.44,-1.753 0.39,-4.542 0.73,-6.228 1.58,-7.923 7.61,-13.087 9.56,-20.857 2.02,-8.092 4,-16.119 5.65,-24.332 0.93,-4.661 0.22,-9.655 1.73,-14.194 1.02,-3.038 4.61,-4.466 6.96,-6.807 2.06,-2.069 3.13,-5.505 5.06,-7.822 3.15,-3.771 7.17,-6.981 10.29,-10.718 3.39,-4.068 16.13,-35.775 18.24,-36.828 2.29,-1.147 4.49,4.923 5.65,6.083 0.68,0.681 5.45,2.703 5.21,3.186 -2.12,4.242 -25.1,36.568 -26.5,38.422 z"
           style="fill:#dbff8e"
           id="path572" />
      </g>
      <g
         transform="matrix(0.779912,0.576958,-0.576958,0.779912,-621.23,-1003.95)"
         id="g578">
        <path
           d="m 1799.49,571.173 c 1.61,0.882 4.39,2.164 4.2,2.535 -2.12,4.242 -25.1,36.568 -26.5,38.422 -1.17,2.122 -2.73,4.149 -3.47,6.373 -2.24,6.715 -3.01,14.591 -4.2,21.725 -1.31,7.856 -1.17,15.981 -2.75,23.898 -1.05,5.25 -4.07,9.32 -5.36,14.484 -0.77,3.054 -0.24,17.549 -1.31,18.974 -0.83,1.112 -1.76,1.905 -2.6,2.751 -0.35,0.346 -1.77,0.173 -2.18,0.58 -0.47,0.472 -2.34,0.869 -3.18,0.869 -1.45,0 -2.83,-0.237 -4.2,-0.58 -2.13,-0.53 -6.29,-2.109 -7.53,-3.765 -0.76,-1.004 -2.51,-0.947 -3.48,-1.593 -0.78,-0.519 -1.52,-1.621 -1.97,-2.631 0.66,0.192 1.29,0.429 1.67,0.932 1.24,1.656 5.41,3.235 7.53,3.766 1.37,0.342 2.75,0.579 4.2,0.579 0.84,0 2.71,-0.396 3.19,-0.869 0.4,-0.407 1.82,-0.234 2.17,-0.579 0.85,-0.847 1.77,-1.639 2.61,-2.752 1.06,-1.425 0.54,-15.92 1.3,-18.973 1.29,-5.164 4.31,-9.234 5.36,-14.484 1.58,-7.917 3.51,-29.12 5.75,-35.835 0.74,-2.224 3.5,-14.039 4.68,-16.161 1.32,-1.769 22.31,-31.277 26.07,-37.666 z m -6.54,-6.786 c 1.62,-0.645 3.19,2.251 4.37,4.337 -1.15,-0.595 -2.31,-1.183 -2.62,-1.494 -0.45,-0.448 -1.05,-1.629 -1.75,-2.843 z"
           style="fill:#c3e776"
           id="path576" />
      </g>
      <g
         transform="matrix(0.779912,0.576958,-0.576958,0.779912,-621.23,-1003.95)"
         id="g582">
        <path
           d="m 1775.2,582.12 c -0.14,0.123 -0.03,0.137 -0.03,0.464"
           style="fill:none"
           id="path580" />
      </g>
      <g
         transform="matrix(-0.616416,-0.749116,-0.749116,0.616416,1950.83,1444.23)"
         id="g586">
        <path
           d="m 1773.31,589.503 c 0.59,0.047 11.2,-33.725 12.57,-36.756 1.26,-2.757 2.53,-6.29 4.64,-8.4 0.71,-0.708 -2.63,-2.429 -2.9,-2.462 -1.9,-0.239 -6.97,-0.989 -8.4,0.434 -1.49,1.494 -1.65,6.476 -2.17,8.545 -1.87,7.47 -9.24,33.754 -8.35,38.257 0.11,0.504 -0.51,13.142 1.58,10.889 z"
           style="fill:#5ab126"
           id="path584" />
      </g>
      <g
         transform="matrix(0.779912,0.576958,-0.576958,0.779912,-621.23,-1003.95)"
         id="g590">
        <path
           d="m 1771.11,605.613 c 0.24,-3.292 -0.43,-6.689 -0.43,-9.994 0,-7.04 -0.38,-13.651 -1.6,-20.567 -1.33,-7.581 -5.14,-14.42 -7.53,-21.58 -1.24,-3.725 -3.27,-7.12 -4.34,-10.863 -0.11,-0.391 -0.53,-3.594 -0.87,-3.766 -0.86,-0.429 -1.55,1.819 -1.89,2.317 -1.59,2.399 -3.01,6.201 -4.92,8.111 -1.03,1.028 1.17,3.872 1.59,5.359 1.61,5.613 3.44,11.451 4.49,17.236 1.45,7.975 3.35,16.712 2.18,24.912 -0.62,4.302 -1.32,8.621 -2.18,12.89 -0.89,4.494 -2.84,12.342 -2.84,17.005 -0.41,2.147 18.05,-17.069 18.34,-21.06 z"
           style="fill:#66db22"
           id="path588" />
      </g>
      <g
         transform="matrix(0.779912,0.576958,-0.576958,0.779912,-621.23,-1003.95)"
         id="g594">
        <path
           d="m 1751.6,546.329 c -0.64,1.14 -1.31,2.188 -2.07,2.942 -1.03,1.028 1.17,3.872 1.59,5.359 1.61,5.613 3.44,11.451 4.49,17.236 1.45,7.975 3.35,16.712 2.18,24.912 -0.62,4.302 -1.32,8.621 -2.18,12.89 -0.89,4.494 -2.84,12.342 -2.84,17.005 -0.13,0.657 1.52,-0.687 3.86,-2.982 -0.13,0.037 -0.02,0.144 0,0 0,-4.663 1.79,-12.666 2.69,-17.159 0.85,-4.269 1.56,-8.589 2.17,-12.891 1.17,-8.2 -0.72,-16.936 -2.17,-24.912 -1.05,-5.785 -2.89,-11.622 -4.49,-17.235 -0.24,-0.84 -1.96,-3.138 -3.23,-5.165 z"
           style="fill:#4ec309"
           id="path592" />
      </g>
      <g
         transform="matrix(0.779912,0.576958,-0.576958,0.779912,-621.23,-1003.95)"
         id="g598">
        <path
           d="m 1760.46,681.734 c 0.74,1.36 -5.54,3.333 -6.35,3.435 -2.86,0.358 -6.88,-3.543 -8.7,-5.36"
           style="fill:none;stroke:#ffffff;stroke-width:1.89px"
           id="path596" />
      </g>
      <g
         transform="matrix(0.779912,0.576958,-0.576958,0.779912,-621.23,-1003.95)"
         id="g602">
        <path
           d="m 1762.7,669.406 c 1.19,0.987 -2.26,2.653 -3.35,3.286 -3.17,1.851 -5.54,1.328 -8.13,-0.872"
           style="fill:none;stroke:#ffffff;stroke-width:1.89px"
           id="path600" />
      </g>
      <g
         transform="matrix(0.779912,0.576958,-0.576958,0.779912,-621.23,-1003.95)"
         id="g606">
        <path
           d="m 1768.05,643.118 c 0.87,0.487 -1.19,1.281 -1.58,1.543 -1.99,1.328 -4.03,1.701 -6.39,1.598"
           style="fill:none;stroke:#ffffff;stroke-width:1.89px"
           id="path604" />
      </g>
    </g>
  </g>
</svg>
