<?xml version="1.0" encoding="UTF-8" standalone="no"?>
<!-- Created with Inkscape (http://www.inkscape.org/) -->

<svg
   width="228.82571mm"
   height="137.85252mm"
   viewBox="0 0 228.82571 137.85252"
   version="1.1"
   id="svg5756"
   inkscape:version="1.1.1 (3bf5ae0d25, 2021-09-20)"
   sodipodi:docname="2023-AU-01-graph.svg"
   xmlns:inkscape="http://www.inkscape.org/namespaces/inkscape"
   xmlns:sodipodi="http://sodipodi.sourceforge.net/DTD/sodipodi-0.dtd"
   xmlns="http://www.w3.org/2000/svg"
   xmlns:svg="http://www.w3.org/2000/svg"
   xmlns:serif="http://www.serif.com/">
  <sodipodi:namedview
     id="namedview5758"
     pagecolor="#ffffff"
     bordercolor="#666666"
     borderopacity="1.0"
     inkscape:pageshadow="2"
     inkscape:pageopacity="0.0"
     inkscape:pagecheckerboard="0"
     inkscape:document-units="mm"
     showgrid="false"
     inkscape:zoom="0.64052329"
     inkscape:cx="631.5149"
     inkscape:cy="461.34154"
     inkscape:window-width="2048"
     inkscape:window-height="1017"
     inkscape:window-x="-8"
     inkscape:window-y="-8"
     inkscape:window-maximized="1"
     inkscape:current-layer="layer1" />
  <defs
     id="defs5753" />
  <g
     inkscape:label="Ebene 1"
     inkscape:groupmode="layer"
     id="layer1"
     transform="translate(61.952498,-26.493768)">
    <g
       transform="matrix(0.26458333,0,0,0.26458333,-147.36177,-43.12682)"
       id="g662"
       style="clip-rule:evenodd;fill-rule:evenodd;stroke-linecap:round;stroke-linejoin:round;stroke-miterlimit:1.5">
      <g
         transform="matrix(2.4118,0,0,1.67065,-3866.5,-620.227)"
         id="g612">
        <path
           d="m 1747.37,687.655 c 4.18,1.569 14.35,10.439 17.42,14.202 7.63,9.337 -18.71,8.754 -26.07,1.355 -1.12,-1.133 -0.57,-5.082 -1.45,-6.354 -1.44,-2.091 3.44,-3.089 3.44,-3.206 z"
           style="fill:#edce9d"
           id="path610" />
      </g>
      <g
         transform="matrix(0.779912,0.576958,-0.576958,0.779912,-626.704,-1000.4)"
         id="g616">
        <path
           d="m 1771.69,596.488 c 0,0 6.08,3.057 6.68,1.857 1.7,-3.401 7.86,-16.135 9.4,-19.527 1.79,-3.951 3.84,-7.821 5.65,-11.732 0.89,-1.94 1.36,-4.34 2.6,-6.083 1.38,-1.93 2.24,-4.154 3.48,-6.228 2.45,-4.084 4.16,-5.83 0.58,-9.414 -0.85,-0.851 -1.51,-1.442 -2.61,-1.883 -0.69,-0.275 -1.13,-1.053 -1.88,-1.304 -0.46,-0.151 -1.07,3.45 -1.3,3.911 -1.24,2.464 -2.97,5.287 -3.91,8.111 -2.56,7.662 -7.78,14.532 -11.3,22.015 -1.7,3.601 -3.66,7.466 -4.78,11.297 -0.88,2.97 -1.22,6.198 -2.61,8.98 z"
           style="fill:#66db22"
           id="path614" />
      </g>
      <g
         transform="matrix(0.779912,0.576958,-0.576958,0.779912,-621.23,-1003.95)"
         id="g620">
        <path
           d="m 1756.33,700.078 c 1.18,0.151 -1.44,5.037 -1.44,4.747 0,-0.704 -1.84,-3.716 -2.61,-3.331 -0.34,0.171 -0.92,4.34 -1.88,3.621 -0.98,-0.732 -0.37,-2.803 -1.16,-3.331 -0.6,-0.4 -1.04,1.535 -1.45,1.738 -1.25,0.626 -0.77,-3.483 -1.51,-3.114 -0.47,0.232 -1.31,4.434 -1.38,3.404 -0.22,-2.903 -0.67,-4.998 -1.51,-3.94 -0.63,0.796 -1.68,1.255 -2.9,1.419 -0.9,0.12 1.91,-2.464 0.93,-2.649 -1.11,-0.207 -2.83,1.669 -3.78,1.124 -0.78,-0.45 1.23,-4.243 0.63,-3.187 -1.36,2.404 -4.33,1.088 -1.65,-1.19"
           style="fill:#50a71d"
           id="path618" />
      </g>
      <g
         transform="matrix(0.779912,0.576958,-0.576958,0.779912,-625.392,-993.477)"
         id="g624">
        <path
           d="m 1770.43,599.734 c 0.6,0.046 14.08,-43.956 15.45,-46.987 1.26,-2.757 2.53,-6.29 4.64,-8.4 0.71,-0.708 -2.63,-2.429 -2.9,-2.462 -1.9,-0.239 -6.97,-0.989 -8.4,0.434 -1.49,1.494 -1.65,6.476 -2.17,8.545 -1.87,7.47 -12.12,43.984 -11.22,48.487 0.1,0.504 -0.52,13.142 1.57,10.889 z"
           style="fill:#50a71d"
           id="path622" />
      </g>
      <g
         transform="matrix(0.779912,0.576958,-0.576958,0.779912,-621.23,-1003.95)"
         id="g628">
        <path
           d="m 1777.19,612.13 c -1.17,2.122 -2.73,4.149 -3.47,6.373 -2.24,6.715 -3.01,14.591 -4.2,21.725 -1.31,7.856 -1.17,15.981 -2.75,23.898 -1.05,5.25 -4.07,9.32 -5.36,14.484 -0.77,3.054 -0.24,17.549 -1.31,18.974 -0.83,1.112 -1.76,1.905 -2.6,2.751 -0.35,0.346 -1.77,0.173 -2.18,0.58 -0.47,0.472 -2.34,0.869 -3.18,0.869 -1.45,0 -2.83,-0.237 -4.2,-0.58 -2.13,-0.53 -6.29,-2.109 -7.53,-3.765 -0.76,-1.004 -2.51,-0.947 -3.48,-1.593 -1.05,-0.699 -2.03,-2.456 -2.32,-3.621 -0.44,-1.753 0.39,-4.542 0.73,-6.228 1.58,-7.923 7.61,-13.087 9.56,-20.857 2.02,-8.092 4,-16.119 5.65,-24.332 0.93,-4.661 0.22,-9.655 1.73,-14.194 1.02,-3.038 4.61,-4.466 6.96,-6.807 2.06,-2.069 3.13,-5.505 5.06,-7.822 3.15,-3.771 7.17,-6.981 10.29,-10.718 3.39,-4.068 16.13,-35.775 18.24,-36.828 2.29,-1.147 4.49,4.923 5.65,6.083 0.68,0.681 5.45,2.703 5.21,3.186 -2.12,4.242 -25.1,36.568 -26.5,38.422 z"
           style="fill:#dbff8e"
           id="path626" />
      </g>
      <g
         transform="matrix(0.779912,0.576958,-0.576958,0.779912,-621.23,-1003.95)"
         id="g632">
        <path
           d="m 1799.49,571.173 c 1.61,0.882 4.39,2.164 4.2,2.535 -2.12,4.242 -25.1,36.568 -26.5,38.422 -1.17,2.122 -2.73,4.149 -3.47,6.373 -2.24,6.715 -3.01,14.591 -4.2,21.725 -1.31,7.856 -1.17,15.981 -2.75,23.898 -1.05,5.25 -4.07,9.32 -5.36,14.484 -0.77,3.054 -0.24,17.549 -1.31,18.974 -0.83,1.112 -1.76,1.905 -2.6,2.751 -0.35,0.346 -1.77,0.173 -2.18,0.58 -0.47,0.472 -2.34,0.869 -3.18,0.869 -1.45,0 -2.83,-0.237 -4.2,-0.58 -2.13,-0.53 -6.29,-2.109 -7.53,-3.765 -0.76,-1.004 -2.51,-0.947 -3.48,-1.593 -0.78,-0.519 -1.52,-1.621 -1.97,-2.631 0.66,0.192 1.29,0.429 1.67,0.932 1.24,1.656 5.41,3.235 7.53,3.766 1.37,0.342 2.75,0.579 4.2,0.579 0.84,0 2.71,-0.396 3.19,-0.869 0.4,-0.407 1.82,-0.234 2.17,-0.579 0.85,-0.847 1.77,-1.639 2.61,-2.752 1.06,-1.425 0.54,-15.92 1.3,-18.973 1.29,-5.164 4.31,-9.234 5.36,-14.484 1.58,-7.917 3.51,-29.12 5.75,-35.835 0.74,-2.224 3.5,-14.039 4.68,-16.161 1.32,-1.769 22.31,-31.277 26.07,-37.666 z m -6.54,-6.786 c 1.62,-0.645 3.19,2.251 4.37,4.337 -1.15,-0.595 -2.31,-1.183 -2.62,-1.494 -0.45,-0.448 -1.05,-1.629 -1.75,-2.843 z"
           style="fill:#c3e776"
           id="path630" />
      </g>
      <g
         transform="matrix(0.779912,0.576958,-0.576958,0.779912,-621.23,-1003.95)"
         id="g636">
        <path
           d="m 1775.2,582.12 c -0.14,0.123 -0.03,0.137 -0.03,0.464"
           style="fill:none"
           id="path634" />
      </g>
      <g
         transform="matrix(-0.616416,-0.749116,-0.749116,0.616416,1950.83,1444.23)"
         id="g640">
        <path
           d="m 1773.31,589.503 c 0.59,0.047 11.2,-33.725 12.57,-36.756 1.26,-2.757 2.53,-6.29 4.64,-8.4 0.71,-0.708 -2.63,-2.429 -2.9,-2.462 -1.9,-0.239 -6.97,-0.989 -8.4,0.434 -1.49,1.494 -1.65,6.476 -2.17,8.545 -1.87,7.47 -9.24,33.754 -8.35,38.257 0.11,0.504 -0.51,13.142 1.58,10.889 z"
           style="fill:#5ab126"
           id="path638" />
      </g>
      <g
         transform="matrix(0.779912,0.576958,-0.576958,0.779912,-621.23,-1003.95)"
         id="g644">
        <path
           d="m 1771.11,605.613 c 0.24,-3.292 -0.43,-6.689 -0.43,-9.994 0,-7.04 -0.38,-13.651 -1.6,-20.567 -1.33,-7.581 -5.14,-14.42 -7.53,-21.58 -1.24,-3.725 -3.27,-7.12 -4.34,-10.863 -0.11,-0.391 -0.53,-3.594 -0.87,-3.766 -0.86,-0.429 -1.55,1.819 -1.89,2.317 -1.59,2.399 -3.01,6.201 -4.92,8.111 -1.03,1.028 1.17,3.872 1.59,5.359 1.61,5.613 3.44,11.451 4.49,17.236 1.45,7.975 3.35,16.712 2.18,24.912 -0.62,4.302 -1.32,8.621 -2.18,12.89 -0.89,4.494 -2.84,12.342 -2.84,17.005 -0.41,2.147 18.05,-17.069 18.34,-21.06 z"
           style="fill:#66db22"
           id="path642" />
      </g>
      <g
         transform="matrix(0.779912,0.576958,-0.576958,0.779912,-621.23,-1003.95)"
         id="g648">
        <path
           d="m 1751.6,546.329 c -0.64,1.14 -1.31,2.188 -2.07,2.942 -1.03,1.028 1.17,3.872 1.59,5.359 1.61,5.613 3.44,11.451 4.49,17.236 1.45,7.975 3.35,16.712 2.18,24.912 -0.62,4.302 -1.32,8.621 -2.18,12.89 -0.89,4.494 -2.84,12.342 -2.84,17.005 -0.13,0.657 1.52,-0.687 3.86,-2.982 -0.13,0.037 -0.02,0.144 0,0 0,-4.663 1.79,-12.666 2.69,-17.159 0.85,-4.269 1.56,-8.589 2.17,-12.891 1.17,-8.2 -0.72,-16.936 -2.17,-24.912 -1.05,-5.785 -2.89,-11.622 -4.49,-17.235 -0.24,-0.84 -1.96,-3.138 -3.23,-5.165 z"
           style="fill:#4ec309"
           id="path646" />
      </g>
      <g
         transform="matrix(0.779912,0.576958,-0.576958,0.779912,-621.23,-1003.95)"
         id="g652">
        <path
           d="m 1760.46,681.734 c 0.74,1.36 -5.54,3.333 -6.35,3.435 -2.86,0.358 -6.88,-3.543 -8.7,-5.36"
           style="fill:none;stroke:#ffffff;stroke-width:1.89px"
           id="path650" />
      </g>
      <g
         transform="matrix(0.779912,0.576958,-0.576958,0.779912,-621.23,-1003.95)"
         id="g656">
        <path
           d="m 1762.7,669.406 c 1.19,0.987 -2.26,2.653 -3.35,3.286 -3.17,1.851 -5.54,1.328 -8.13,-0.872"
           style="fill:none;stroke:#ffffff;stroke-width:1.89px"
           id="path654" />
      </g>
      <g
         transform="matrix(0.779912,0.576958,-0.576958,0.779912,-621.23,-1003.95)"
         id="g660">
        <path
           d="m 1768.05,643.118 c 0.87,0.487 -1.19,1.281 -1.58,1.543 -1.99,1.328 -4.03,1.701 -6.39,1.598"
           style="fill:none;stroke:#ffffff;stroke-width:1.89px"
           id="path658" />
      </g>
    </g>
    <g
       transform="matrix(0.34905156,0,0,0.34696664,-302.27626,-123.86178)"
       id="g1214"
       style="clip-rule:evenodd;fill-rule:evenodd;stroke-linecap:round;stroke-linejoin:round;stroke-miterlimit:1.5">
      <g
         transform="translate(2.97045,-5.27784)"
         id="g1150">
        <path
           d="m 909.89,486.45 c 1.197,-0.708 -8.262,2.371 -10.119,5.019 -17.139,24.434 34.202,23.745 42.533,22.191 0.744,-0.139 0.982,-2.527 1.321,-1.849 1.57,3.141 2.238,2.364 5.547,4.491 6.1,3.921 10.956,8.718 18.757,8.718 7.779,0 20.172,-8.006 14.002,-16.643 -1.335,-1.869 -3.691,-1.45 -5.548,-2.378 -4.073,-2.036 -6.192,-3.93 -11.096,-5.019 z"
           style="fill:#edce9d"
           id="path1148" />
      </g>
      <g
         transform="matrix(0.474455,0,0,0.474455,351.816,316.979)"
         id="g1154">
        <path
           d="m 1208.93,274.343 c -0.01,-1.094 28.89,-4.716 31.25,-4.436 4.95,0.587 10.36,-0.157 15.29,0.938 15.49,3.441 30.54,20.755 39.53,33.594 7.42,10.599 5.42,27.251 1.07,38.579 -1.15,2.993 -1.8,5.85 -3.22,8.841 -9.28,19.553 -48.12,40.042 -58.86,38.513 -13.45,-1.915 -30.92,-5.639 -37.94,-11.188 -21.5,-16.991 -27.16,-29.352 -31.77,-47.94 -4.18,-16.871 9.43,-66.007 40.7,-57.882 5.8,1.508 3.95,0.981 3.95,0.981 z"
           style="fill:#ce2424"
           id="path1152" />
      </g>
      <path
         d="m 950.575,496.863 c -4.739,7.011 -24.64,5.991 -31.289,0.022 -9.573,-8.593 -14.082,-12.711 -15.07,-22.746 -0.808,-8.207 4.473,-31.317 19.309,-27.462 0.373,0.097 0.679,0.176 0.929,0.24 -19.636,-0.526 -21.282,39.124 -2.557,46.035 3.216,1.187 23.137,2.91 28.678,3.911 z"
         style="fill:#a62525"
         id="path1156" />
      <g
         transform="matrix(0.474455,0,0,0.474455,351.816,316.979)"
         id="g1160">
        <path
           d="m 1256.77,290.242 c 8.83,-0.994 22.26,2.045 28.52,11.299"
           style="fill:none;stroke:#ffffff;stroke-width:2.93px"
           id="path1158" />
      </g>
      <g
         transform="matrix(0.474455,0,0,0.474455,351.816,316.979)"
         id="g1164">
        <path
           d="m 1227.62,301.541 c -4.76,-1.603 -12.33,-0.049 -17.47,3.056 -5.6,3.385 -8.18,11.754 -6.6,13.552"
           style="fill:none;stroke:#ffffff;stroke-width:2.93px"
           id="path1162" />
      </g>
      <g
         transform="matrix(0.474455,0,0,0.474455,351.816,316.979)"
         id="g1168">
        <path
           d="m 1236.28,288.282 c 0.66,-3.698 1.81,-9.742 2.62,-11.246 2.48,-4.589 6.97,-7.658 9.3,-12.341 1.36,-2.712 2.53,-5.512 3.67,-8.317 0.32,-0.777 0.57,-1.588 0.72,-2.414 0.07,-0.411 -0.4,-1.395 0,-1.252 1.28,0.466 1.75,3.373 1.87,4.292 0.55,4.124 -0.59,7.925 -3.3,11.089 -1.56,1.823 -3.41,2.908 -4.56,5.097 -0.98,1.855 -1.46,5.139 -1.79,7.154 -0.05,0.259 -0.73,1.826 -1.64,3.825 4.09,-6.18 9.76,-11.608 15.73,-12.071 3.87,-0.299 7.96,0.905 11.57,2.218 0.49,0.177 2.65,1.289 2.61,2.142 -0.02,0.375 -0.75,10e-4 -1.12,-0.058 -0.66,-0.103 -1.28,-0.423 -1.94,-0.428 -2.56,-0.018 -5.45,0.519 -7.78,1.598 -3.04,1.406 -4.6,2.815 -6.67,5.419 -0.41,0.515 -8.53,7.831 -12.02,11.216 0.87,0.238 1.75,0.476 2.65,0.562 2.04,0.192 2.52,-0.958 4.53,-0.93 9.14,0.127 17.61,3.588 23.49,10.672 0.24,0.29 -0.74,-0.21 -1.05,-0.415 -0.98,-0.634 -1.69,-1.729 -2.8,-2.085 -3.43,-1.106 -7.01,-1.68 -10.58,-2.225 -6.14,-0.94 -12.19,1.798 -18.34,0.448 -1.55,-0.342 -2.9,-1.106 -4.18,-2.015 -3.52,-1.072 -10.08,-1.369 -11.23,-3.371 -2.31,-4.05 -5.87,-6.848 -9.79,-10.56 -3.71,-3.501 -17.19,6.483 -16.74,11.255 0.01,0.186 -0.68,1.746 -0.7,1.737 -0.2,-0.103 -0.07,-1.057 -0.07,-1.251 0,-1.204 0.09,-2.419 0.28,-3.612 0.32,-2.011 3.86,-7.653 5.4,-9 4.3,-3.769 10.56,-3.318 15.58,-1.491 2.82,1.026 5.37,2.543 7.59,4.494 -0.29,-4.166 -0.16,-9.484 -2.39,-13.127 -2.4,-3.917 -7.4,-5.278 -11.73,-4.288 -0.78,0.178 -2.71,1.585 -3.06,1.528 -0.26,-0.044 2.73,-4.747 3.96,-4.932 3.76,-0.565 7.64,1.421 10.43,3.706 4.91,4.036 6.4,9.208 8.62,14.882 0.44,1.114 1.53,2.607 2.86,4.095 z"
           style="fill:#133024"
           id="path1166" />
      </g>
      <g
         transform="matrix(0.474455,0,0,0.474455,351.816,316.979)"
         id="g1172">
        <path
           d="m 1250.07,293.874 c 7.46,0.345 14.4,2.948 19.78,7.969 0.17,0.054 0.35,0.109 0.52,0.166 1.11,0.356 1.82,1.451 2.8,2.085 0.31,0.205 1.29,0.705 1.05,0.415 -5.88,-7.084 -14.35,-10.545 -23.49,-10.672 -0.24,-0.003 -0.46,0.01 -0.66,0.037 z m -5.75,6.72 c 3.92,0.171 7.8,-0.839 11.72,-0.992 -3.93,-0.17 -7.81,0.84 -11.72,0.992 z m -45.12,-8.864 c 3.15,-4.203 10.28,-8.866 13.91,-8.087 -5.33,0.865 -13.96,8.064 -13.6,11.898 0.01,0.186 -0.68,1.746 -0.7,1.737 -0.2,-0.103 -0.07,-1.057 -0.07,-1.251 0,-1.204 0.09,-2.419 0.28,-3.612 0.03,-0.197 0.09,-0.427 0.18,-0.685 z m 46.44,2.965 c -0.36,0.083 -0.78,0.121 -1.3,0.072 -0.9,-0.086 -1.78,-0.324 -2.66,-0.562 3.5,-3.385 11.62,-10.701 12.03,-11.216 2.07,-2.604 3.63,-4.013 6.67,-5.419 2.33,-1.079 5.22,-1.616 7.78,-1.598 0.15,0.001 0.3,0.018 0.44,0.045 -2.17,0.15 -4.45,0.67 -6.36,1.553 -3.04,1.406 -4.6,2.815 -6.67,5.419 -0.41,0.515 -8.53,7.831 -12.02,11.216 0.69,0.188 1.39,0.377 2.09,0.49 z m -30.87,-29.147 c 3.63,-0.373 7.34,1.553 10.03,3.757 4.91,4.036 6.4,9.208 8.62,14.882 0.25,0.644 0.73,1.415 1.34,2.238 -0.13,0.658 1.82,1.145 1.72,1.716 -1.33,-1.488 -4.48,-2.84 -4.92,-3.954 -2.22,-5.674 -3.71,-10.846 -8.63,-14.882 -2.22,-1.828 -5.15,-3.464 -8.16,-3.757 z m -2.97,15.03 c 2.77,-0.156 5.64,0.417 8.2,1.346 2.03,0.737 3.91,1.728 5.64,2.952 0.02,0.527 1.34,1.11 1.38,1.61 -2.22,-1.951 -6.06,-3.536 -8.88,-4.562 -1.99,-0.722 -4.17,-1.229 -6.34,-1.346 z m 40.47,-25.31 c 0.13,-0.429 0.24,-0.864 0.32,-1.304 0.07,-0.411 -0.4,-1.395 0,-1.252 1.28,0.466 1.75,3.373 1.87,4.292 0.55,4.124 -0.59,7.925 -3.3,11.089 -1.56,1.823 -3.41,2.908 -4.56,5.097 -0.84,1.583 -1.31,4.208 -1.64,6.197 -0.11,0.126 -0.18,0.469 -0.22,0.622 -0.38,1.528 -0.77,2.755 -1.78,4.29 0.91,-1.999 0.8,-9.254 1.77,-11.109 1.16,-2.189 3,-3.274 4.57,-5.097 2.7,-3.164 3.85,-6.965 3.3,-11.089 -0.04,-0.361 -0.15,-1.029 -0.33,-1.736 z m 6.94,16.81 c 3.78,-0.215 7.75,0.96 11.26,2.238 0.49,0.177 2.65,1.289 2.61,2.142 -0.02,0.375 -0.75,10e-4 -1.12,-0.058 -0.27,-0.042 -0.53,-0.12 -0.79,-0.198 -0.32,-0.805 -2.12,-1.727 -2.56,-1.886 -2.94,-1.07 -6.2,-2.067 -9.4,-2.238 z m -48.12,-2.876 c 0.2,-0.095 0.38,-0.167 0.52,-0.199 1.2,-0.276 2.46,-0.369 3.7,-0.276 -0.63,0.046 -1.24,0.138 -1.84,0.276 -0.78,0.178 -2.71,1.585 -3.06,1.528 -0.09,-0.015 0.21,-0.583 0.68,-1.329 z"
           style="fill:#464646"
           id="path1170" />
      </g>
      <g
         transform="matrix(0.661574,0,0,0.474455,118.85,316.243)"
         id="g1176">
        <path
           d="m 1236.94,295.683 c 1.67,1.108 3.86,-3.965 3.82,-4.493 -0.33,-4.097 -0.22,-8.19 -1.47,-12.138 -0.24,-0.752 -1.64,-3.799 -2.35,-3.085 -0.01,0.009 -0.36,0.659 -0.74,0.939 -0.57,0.419 -1.42,0.625 -1.81,1.207 -0.18,0.265 0.31,0.095 0.47,0.134 0.39,0.096 0.83,0.564 1.07,0.872 0.87,1.088 1.38,2.851 1.81,4.157 0.78,2.34 0.35,4.764 0.2,7.176 -0.11,1.97 -0.18,3.437 -1,5.231 z"
           style="fill:#133024"
           id="path1174" />
      </g>
      <g
         transform="matrix(0.474455,0,0,0.474455,351.816,316.979)"
         id="g1180">
        <path
           d="m 1233.44,274.777 c 0.88,0.762 2.41,2.076 2.63,2.567 1.75,3.948 0.97,8.198 1.43,12.294 0.06,0.529 0.2,3.867 1.58,3.502 1.5,0.346 0.06,-2.973 0,-3.502 -0.46,-4.096 -0.3,-8.19 -2.05,-12.138 -0.34,-0.751 -2.28,-3.798 -3.28,-3.084 0,0.004 -0.13,0.165 -0.31,0.361 z"
           style="fill:#255c46"
           id="path1178" />
      </g>
      <g
         transform="matrix(0.342053,0,0,0.308379,544.921,390.4)"
         id="g1184">
        <path
           d="m 1208.93,274.343 c -0.01,-1.094 28.89,-4.716 31.25,-4.436 4.95,0.587 10.36,-0.157 15.29,0.938 15.49,3.441 30.54,20.755 39.53,33.594 7.42,10.599 5.42,27.251 1.07,38.579 -1.15,2.993 -31.12,37.5 -34.08,38.317 -20.31,5.615 -58.92,3.398 -65.94,-2.151 -21.5,-16.991 -27.16,-29.352 -31.77,-47.94 -4.18,-16.871 9.43,-66.007 40.7,-57.882 5.8,1.508 3.95,0.981 3.95,0.981 z"
           style="fill:#ce2424"
           id="path1182" />
      </g>
      <g
         transform="matrix(0.342053,0,0,0.308379,544.921,390.4)"
         id="g1188">
        <path
           d="m 1208.93,274.343 c -0.01,-1.094 28.89,-4.716 31.25,-4.436 4.95,0.587 10.36,-0.157 15.29,0.938 15.49,3.441 30.54,20.755 39.53,33.594 7.42,10.599 5.42,27.251 1.07,38.579 -1.15,2.993 -31.12,37.5 -34.08,38.317 -20.31,5.615 -58.92,3.398 -65.94,-2.151 -21.5,-16.991 -27.16,-29.352 -31.77,-47.94 -4.18,-16.871 9.43,-66.007 40.7,-57.882 5.8,1.508 3.95,0.981 3.95,0.981 z"
           style="fill:#ce2424"
           id="path1186" />
      </g>
      <g
         transform="matrix(0.342053,0,0,0.308379,544.921,390.4)"
         id="g1192">
        <path
           d="m 1208.93,274.343 c -0.01,-1.094 28.89,-4.716 31.25,-4.436 4.95,0.587 10.36,-0.157 15.29,0.938 15.49,3.441 30.54,20.755 39.53,33.594 7.42,10.599 0.17,26.475 1.07,38.579 0.72,9.733 -28.5,35.817 -34.08,38.317 -4.85,2.181 -13.8,6.924 -19.59,6.328 -19.07,-1.959 -40.97,-4.222 -46.35,-8.479 -21.5,-16.991 -27.16,-29.352 -31.77,-47.94 -4.18,-16.871 9.43,-66.007 40.7,-57.882 5.8,1.508 3.95,0.981 3.95,0.981 z"
           style="fill:#ce2424"
           id="path1190" />
      </g>
      <g
         transform="matrix(0.720937,0,0,0.649963,291.284,184.375)"
         id="g1196">
        <path
           d="m 953.737,495.104 c -4.739,7.012 -27.802,7.75 -34.451,1.781 -9.573,-8.593 -14.082,-12.711 -15.07,-22.746 -0.808,-8.207 4.473,-31.317 19.309,-27.462 0.373,0.097 0.679,0.176 0.929,0.24 -19.636,-0.526 -20.048,26.188 -8.638,40.3 2.937,3.633 31.202,9.096 37.921,7.887 z"
           style="fill:#a62525"
           id="path1194" />
      </g>
      <g
         transform="matrix(0.267976,0,0,0.399555,634.043,361.392)"
         id="g1200">
        <path
           d="m 1227.62,301.541 c -9.9,-4.021 -19.51,3.149 -21.43,8.879"
           style="fill:none;stroke:#ffffff;stroke-width:4.09px"
           id="path1198" />
      </g>
      <g
         transform="matrix(-0.224895,-0.0368653,-0.030093,0.183581,1252.24,470.689)"
         id="g1204">
        <path
           d="m 1236.28,288.282 c 0.66,-3.698 1.81,-9.742 2.62,-11.246 2.48,-4.589 6.97,-7.658 9.3,-12.341 1.36,-2.712 2.53,-5.512 3.67,-8.317 0.32,-0.777 0.57,-1.588 0.72,-2.414 0.07,-0.411 -0.4,-1.395 0,-1.252 1.28,0.466 1.75,3.373 1.87,4.292 0.55,4.124 -0.59,7.925 -3.3,11.089 -1.56,1.823 -3.41,2.908 -4.56,5.097 -0.98,1.855 -1.46,5.139 -1.79,7.154 -0.05,0.259 -0.73,1.826 -1.64,3.825 4.09,-6.18 9.76,-11.608 15.73,-12.071 3.87,-0.299 7.96,0.905 11.57,2.218 0.49,0.177 2.65,1.289 2.61,2.142 -0.02,0.375 -0.75,10e-4 -1.12,-0.058 -0.66,-0.103 -1.28,-0.423 -1.94,-0.428 -2.56,-0.018 -5.45,0.519 -7.78,1.598 -3.04,1.406 -4.6,2.815 -6.67,5.419 -0.41,0.515 -8.53,7.831 -12.02,11.216 0.87,0.238 1.75,0.476 2.65,0.562 2.04,0.192 2.52,-0.958 4.53,-0.93 9.14,0.127 17.61,3.588 23.49,10.672 0.24,0.29 -0.74,-0.21 -1.05,-0.415 -0.98,-0.634 -1.69,-1.729 -2.8,-2.085 -3.43,-1.106 -7.01,-1.68 -10.58,-2.225 -6.14,-0.94 -12.19,1.798 -18.34,0.448 -1.55,-0.342 -2.9,-1.106 -4.18,-2.015 -3.52,-1.072 -10.08,-1.369 -11.23,-3.371 -2.31,-4.05 -5.87,-6.848 -9.79,-10.56 -3.71,-3.501 -17.19,6.483 -16.74,11.255 0.01,0.186 -0.68,1.746 -0.7,1.737 -0.2,-0.103 -0.07,-1.057 -0.07,-1.251 0,-1.204 0.09,-2.419 0.28,-3.612 0.32,-2.011 3.86,-7.653 5.4,-9 4.3,-3.769 10.56,-3.318 15.58,-1.491 2.82,1.026 5.37,2.543 7.59,4.494 -0.29,-4.166 -0.16,-9.484 -2.39,-13.127 -2.4,-3.917 -7.4,-5.278 -11.73,-4.288 -0.78,0.178 -2.71,1.585 -3.06,1.528 -0.26,-0.044 2.73,-4.747 3.96,-4.932 3.76,-0.565 7.64,1.421 10.43,3.706 4.91,4.036 6.4,9.208 8.62,14.882 0.44,1.114 1.53,2.607 2.86,4.095 z"
           style="fill:#133024"
           id="path1202" />
      </g>
      <g
         transform="matrix(-0.272079,0.0797733,0.0419335,0.143021,1290.7,337.394)"
         id="g1208">
        <path
           d="m 1236.94,295.683 c 1.67,1.108 3.86,-3.965 3.82,-4.493 -0.33,-4.097 -0.22,-8.19 -1.47,-12.138 -0.24,-0.752 -1.64,-3.799 -2.35,-3.085 -0.01,0.009 -0.36,0.659 -0.74,0.939 -0.57,0.419 -1.42,0.625 -1.81,1.207 -0.18,0.265 0.31,0.095 0.47,0.134 0.39,0.096 0.83,0.564 1.07,0.872 0.87,1.088 1.38,2.851 1.81,4.157 0.78,2.34 0.35,4.764 0.2,7.176 -0.11,1.97 -0.18,3.437 -1,5.231 z"
           style="fill:#133024"
           id="path1206" />
      </g>
      <g
         transform="matrix(-0.195125,0.0572103,0.0419335,0.143021,1194.95,365.707)"
         id="g1212">
        <path
           d="m 1233.44,274.777 c 0.88,0.762 2.41,2.076 2.63,2.567 1.75,3.948 0.97,8.198 1.43,12.294 0.06,0.529 0.2,3.867 1.58,3.502 1.5,0.346 0.06,-2.973 0,-3.502 -0.46,-4.096 -0.3,-8.19 -2.05,-12.138 -0.34,-0.751 -2.28,-3.798 -3.28,-3.084 0,0.004 -0.13,0.165 -0.31,0.361 z"
           style="fill:#255c46"
           id="path1210" />
      </g>
    </g>
    <g
       transform="matrix(0.26458333,0,0,0.26458333,-90.514615,-82.409507)"
       id="g1530"
       style="clip-rule:evenodd;fill-rule:evenodd;stroke-linecap:round;stroke-linejoin:round;stroke-miterlimit:1.5">
      <g
         transform="translate(111.043,118.698)"
         id="g1472">
        <path
           d="m 804.808,684.692 c 1.245,0.016 9.75,2.073 10.89,1.617 1.557,-0.623 4.181,3.716 4.263,5.388 0.476,9.747 -27.868,31.494 -51.687,13.037 -2.623,-2.033 0.013,-4.597 -1.199,-7.02 z"
           style="fill:#edce9d"
           id="path1470" />
      </g>
      <g
         transform="matrix(1.42024,0,0,1.42024,-231.746,-177.586)"
         id="g1476">
        <path
           d="m 780.193,653.559 c 0,-0.537 0.71,-0.817 0.966,-1.288 1.502,-2.764 2.889,-5.295 3.511,-8.356 1.723,-8.462 -0.882,-16.907 -1.819,-25.235 -0.043,-0.385 0.368,0.695 0.644,0.967 0.613,0.603 1.266,1.188 2.014,1.611 0.511,0.288 1.11,0.406 1.692,0.483 0.326,0.043 0.977,-0.133 0.837,0.696 0.952,0.213 2.102,16.913 4.238,21.778 0.553,1.26 2.083,4.35 4.027,4.35 -2.156,25.114 -7.904,24.02 -16.11,4.994 z"
           style="fill:#a8f6b0"
           id="path1474" />
      </g>
      <g
         transform="translate(111.043,118.698)"
         id="g1480">
        <path
           d="m 774.552,587.645 c -0.427,-0.056 -0.153,-1.017 0.673,-0.908 0.463,0.061 1.082,-0.357 1.488,1.15 1.231,1.471 2.686,23.859 5.72,30.769 0.785,1.789 2.959,6.178 5.72,6.178 -0.174,2.026 -0.364,3.932 -0.571,5.719 -2.999,-1.149 -8.769,-10.222 -9.505,-11.897 -3.033,-6.91 -3.063,-30.95 -3.525,-31.011 z"
           style="fill:#71d67b"
           id="path1478" />
      </g>
      <g
         transform="matrix(1.42024,0,0,1.42024,-231.746,-177.586)"
         id="g1484">
        <path
           d="m 774.903,699.943 c -5.92,-5.196 -11.519,-16.04 -2.739,-33.506 0.52,-1.036 0.292,-2.312 0.472,-3.485 0.427,-2.777 -0.43,-5.815 -0.118,-8.622 0.317,-2.858 0.065,-5.762 -0.059,-8.622 -0.108,-2.487 0.225,-5.023 0,-7.5 -0.308,-3.391 -0.629,-6.781 -1.004,-10.158 -0.298,-2.678 -1.388,-12.646 -1.399,-12.649 l 0.376,0.057 c -0.539,-0.659 6.398,-2.336 7.067,-1.704 0.325,0.306 0.322,1.652 0.322,2.014 0,2.359 -0.322,4.763 -0.322,7.169 0,6.151 1.171,12.421 2.175,18.447 0.361,2.168 1.107,4.426 1.611,6.444 0.136,0.545 1.616,2.661 1.128,2.336 4.217,19.348 -0.078,34.816 -7.51,49.779 z"
           style="fill:#c0f9c6"
           id="path1482" />
      </g>
      <g
         transform="matrix(1.42024,0,0,1.42024,-231.746,-177.586)"
         id="g1488">
        <path
           d="m 775.436,699.634 c -0.286,-0.153 -1.123,0.316 -1.448,0.308 -3.358,-0.083 -9.523,-17.191 -5.343,-24.525 4.171,-7.318 7.144,-13.191 16.844,-15.528 2.044,-0.493 10.683,-7.611 11.781,-14.949 0.309,-2.064 2.397,-19.567 2.9,-26.099 0.165,-2.141 0.644,-4.214 0.644,-6.444 0,-0.214 0.157,-2.681 0.157,-2.681 l 6.046,1.472 c 0,0 -0.046,0.968 -0.081,1.45 -0.065,0.914 -0.209,1.835 -0.322,2.739 -0.48,3.842 -3.132,27.134 -2.9,28.758 0.312,2.179 0.402,4.419 0.645,6.605 0.054,0.488 0.805,7.044 -1.168,11.088 -6.679,13.697 -26.162,38.659 -27.755,37.806 z"
           style="fill:#a0ffa4"
           id="path1486" />
      </g>
      <g
         transform="matrix(1.42024,0,0,1.42024,-231.746,-177.586)"
         id="g1492">
        <path
           d="m 770.432,615.458 c -0.267,-0.326 2.987,9.215 3.284,11.894 0.376,3.377 0.696,6.766 1.004,10.158 0.226,2.477 -0.108,5.013 0,7.5 0.125,2.859 0.377,5.764 0.059,8.622 -0.311,2.807 0.546,5.844 0.119,8.622 -0.181,1.173 0.048,2.449 -0.473,3.485 -1.637,3.257 -2.809,6.295 -3.593,9.113 -0.951,1.753 -1.284,4.056 -1.195,6.553 -0.693,8.651 2.596,14.643 6.469,18.08 -1.065,1.043 -2.983,0.033 -3.367,-0.373 -3.367,-3.551 -5.989,-9.195 -5.364,-17.009 -0.089,-2.497 0.245,-4.8 1.196,-6.553 0.187,-0.344 0.078,-1.793 1.418,-5.628 2.553,-7.312 3.178,-20.592 2.47,-24.214 -0.478,-2.443 0.225,-5.023 0,-7.5 -0.308,-3.391 -0.629,-6.781 -1.004,-10.158 -0.298,-2.678 -1.388,-12.646 -1.399,-12.649 z m 5.89,83.813 -0.013,0.012 0.008,-0.015 z m 9.799,-39.636 c 2.786,-1.415 10.142,-7.962 11.149,-14.695 0.309,-2.064 2.397,-19.567 2.9,-26.099 0.165,-2.141 0.644,-4.214 0.644,-6.444 0,-0.162 0.043,-2.142 -0.146,-2.755 0,0 -0.06,-0.196 0,0 l 2.398,0.584 c 0.024,0.688 0.01,1.38 0.01,1.473 0,2.229 -0.48,4.303 -0.645,6.444 -0.502,6.532 -2.591,24.035 -2.899,26.099 -1.098,7.338 -9.737,14.456 -11.781,14.949 -0.566,0.136 -1.108,0.284 -1.63,0.444 z"
           style="fill:#8ee592"
           id="path1490" />
      </g>
      <g
         transform="matrix(1.42024,0,0,1.42024,-231.746,-177.586)"
         id="g1496">
        <path
           d="m 815.698,631.208 c 0,0 -1.252,-1.566 -1.41,-1.712 -0.975,-0.9 -2.166,-1.462 -3.021,-2.316 -0.513,-0.514 -1.813,-1.209 -1.813,-1.209 0,0 -0.028,0.878 -0.1,1.31 -0.147,0.88 -0.682,1.651 -0.806,2.517 -0.361,2.529 -3.991,25.321 -7.25,30.21 -3.637,5.456 -9.998,6.162 -14.96,10.222 -4.862,3.978 -13.329,13.893 -12.342,22.992 0.134,1.239 0.409,6.568 1.802,7.429 12.509,7.737 29.05,3.785 34.583,-0.788 3.922,-3.243 5.942,-16.274 1.746,-27.146 -0.849,-2.2 -0.116,-4.728 -0.503,-7.049 -0.555,-3.326 3.782,-34.46 4.074,-34.46 z"
           style="fill:#baf6b4"
           id="path1494" />
      </g>
      <g
         transform="matrix(1.42024,0,0,1.42024,-231.746,-177.586)"
         id="g1500">
        <path
           d="m 812.127,627.897 c 0.27,0.335 0.494,0.615 0.494,0.615 -0.292,0 -4.628,31.134 -4.074,34.46 0.387,2.321 -0.345,4.849 0.504,7.049 4.195,10.872 2.175,23.903 -1.747,27.145 -5.216,4.313 -20.218,8.072 -32.401,2.003 0.231,0.704 0.524,1.252 0.895,1.482 12.509,7.737 29.05,3.785 34.583,-0.788 3.922,-3.243 5.942,-16.274 1.746,-27.146 -0.849,-2.2 -0.116,-4.728 -0.503,-7.049 -0.555,-3.326 3.782,-34.46 4.074,-34.46 0,0 -1.252,-1.566 -1.41,-1.712 -0.678,-0.626 -1.46,-1.088 -2.161,-1.599 z"
           style="fill:#9ce69e"
           id="path1498" />
      </g>
      <g
         transform="matrix(1.42024,0,0,1.42024,-231.746,-177.586)"
         id="g1504">
        <path
           d="m 800.895,610.383 c 0.641,0.957 7.002,1.894 6.122,0.421 -0.924,-1.548 -6.097,-1.926 -6.389,-1.342 -0.056,0.112 0.256,0.904 0.267,0.921 z"
           style="fill:#94ebab"
           id="path1502" />
      </g>
      <g
         transform="matrix(1.07336,0,0,1.42024,46.4286,-152.737)"
         id="g1508">
        <path
           d="m 786.771,615.603 v 0 c -0.021,-0.056 -0.053,-0.107 -0.096,-0.148 -0.022,-0.021 -0.046,-0.04 -0.072,-0.055 l -0.009,-0.005 c -0.232,-0.532 -0.482,-1.146 -0.719,-1.763 -0.401,-1.04 -0.764,-2.087 -0.951,-2.774 -0.085,-0.309 -0.14,-0.534 -0.128,-0.637 0.18,-1.502 1.198,-3.126 1.23,-4.679 0.014,-0.684 -0.154,-1.355 -0.659,-1.996 -0.022,-0.03 -0.065,-0.036 -0.095,-0.014 -0.03,0.023 -0.036,0.066 -0.014,0.096 0.447,0.624 0.579,1.261 0.536,1.903 -0.104,1.553 -1.201,3.13 -1.45,4.626 -0.052,0.312 0.29,1.657 0.751,3.11 -0.473,-0.853 -0.946,-1.667 -1.342,-2.422 -0.222,-0.423 -0.261,-0.87 -0.205,-1.324 0.138,-1.123 0.823,-2.287 0.957,-3.278 0.03,-0.221 0.079,-0.843 -0.032,-1.245 -0.068,-0.245 -0.196,-0.41 -0.398,-0.406 -0.038,0 -0.068,0.03 -0.068,0.068 0,0.037 0.03,0.068 0.068,0.068 0.184,0.003 0.245,0.219 0.274,0.471 0.044,0.371 -0.013,0.833 -0.044,1.013 -0.172,0.993 -0.904,2.138 -1.086,3.262 -0.084,0.524 -0.051,1.044 0.187,1.544 0.53,1.112 1.221,2.353 1.832,3.656 -0.24,-0.124 -0.479,-0.248 -0.715,-0.376 -0.289,-0.157 -0.574,-0.319 -0.851,-0.493 -0.571,-0.361 -1.035,-0.992 -1.439,-1.703 -0.618,-1.086 -1.095,-2.354 -1.558,-3.225 -0.4,-0.751 -0.308,-1.776 -0.522,-2.629 -0.102,-0.404 -0.266,-0.771 -0.569,-1.059 -0.027,-0.026 -0.07,-0.026 -0.096,0 -0.027,0.027 -0.027,0.07 0,0.096 0.266,0.281 0.4,0.628 0.474,1.006 0.177,0.89 0.043,1.94 0.416,2.734 0.491,1.047 0.977,2.636 1.698,3.86 0.12,0.203 0.246,0.396 0.38,0.576 -0.05,-0.023 -0.088,-0.038 -0.11,-0.046 -0.575,-0.193 -1.053,-0.477 -1.496,-0.806 -0.695,-0.517 -1.305,-1.141 -2.05,-1.707 -0.676,-0.513 -1.147,-0.523 -1.515,-0.928 -0.186,-0.204 -0.343,-0.511 -0.489,-1.039 -0.009,-0.037 -0.046,-0.059 -0.083,-0.05 -0.036,0.009 -0.058,0.046 -0.049,0.083 0.128,0.572 0.285,0.906 0.472,1.134 0.352,0.429 0.826,0.469 1.485,1.024 0.718,0.605 1.298,1.26 1.969,1.814 0.463,0.382 0.968,0.714 1.582,0.955 0.191,0.075 1.631,0.897 2.815,1.849 0.446,0.358 0.856,0.732 1.136,1.091 0.007,0.02 0.014,0.041 0.02,0.061 0.321,0.967 0.53,1.945 0.53,2.91 -0.029,0.082 -0.029,0.17 -0.005,0.25 -0.012,0.314 -0.047,0.625 -0.11,0.935 -0.039,0.217 0.106,0.425 0.323,0.464 0.045,0.009 0.09,0.009 0.133,0.002 0.018,0.217 0.151,0.635 0.278,1.06 0.095,0.314 0.19,0.633 0.19,0.838 -0.104,0.128 -0.121,0.312 -0.03,0.46 0.116,0.189 0.362,0.248 0.55,0.132 0.052,-0.033 0.099,-0.073 0.139,-0.123 -0.035,0.089 -0.067,0.178 -0.099,0.269 -0.067,0.21 0.048,0.435 0.258,0.503 0.21,0.068 0.436,-0.048 0.504,-0.258 0.206,-0.686 0.51,-1.319 0.866,-1.93 0.13,-0.223 0.266,-0.443 0.407,-0.661 0.109,-0.106 0.813,-1.058 0.829,-1.192 v -0.002 c 0.008,-0.011 0.015,-0.022 0.021,-0.033 0.079,-0.016 0.218,-0.041 0.327,-0.043 0.071,-0.002 0.142,-0.002 0.214,-10e-4 0.051,0.034 0.11,0.055 0.174,0.062 0.151,0.01 0.372,-0.009 0.643,-0.051 1.36,-0.052 2.556,0.145 3.893,0.178 0.33,0.009 0.668,0.008 1.019,-0.01 0.037,0 0.068,-0.03 0.068,-0.068 0,-0.037 -0.031,-0.068 -0.068,-0.068 -1.134,-0.056 -2.117,-0.265 -3.122,-0.435 0.141,-0.039 0.284,-0.079 0.428,-0.121 1.697,-0.491 3.559,-1.162 3.969,-1.465 0.032,-0.021 0.04,-0.063 0.019,-0.094 -0.021,-0.031 -0.063,-0.04 -0.094,-0.019 -0.372,0.224 -1.84,0.613 -3.336,0.923 -1.401,0.291 -2.82,0.515 -3.333,0.435 -0.079,-0.008 -0.155,0.007 -0.221,0.04 -0.029,-0.003 -0.057,-0.006 -0.086,-0.009 0.199,-0.295 0.579,-1.057 0.847,-1.057 0.022,0.01 0.415,0.165 0.44,0.172 0.648,0.14 2.447,0.099 4.014,-0.143 1.149,-0.179 2.166,-0.46 2.503,-0.834 0.027,-0.026 0.027,-0.07 0,-0.096 -0.026,-0.027 -0.069,-0.027 -0.096,0 -0.355,0.32 -1.346,0.473 -2.449,0.53 -0.682,0.035 -1.407,0.03 -2.049,-0.004 0.616,-0.352 1.168,-0.688 1.695,-1.062 0.709,-0.504 1.369,-1.073 2.074,-1.844 0.027,-0.026 0.027,-0.069 0,-0.096 -0.026,-0.026 -0.07,-0.026 -0.096,0 -0.756,0.691 -1.45,1.188 -2.186,1.618 -0.742,0.432 -1.522,0.791 -2.446,1.202 -0.076,0.034 -0.235,0.017 -0.421,0.01 -0.055,-0.002 -0.111,-0.005 -0.169,-0.008 -0.062,-0.015 -0.117,-0.03 -0.165,-0.046 -0.088,-0.023 -0.176,-0.016 -0.254,0.016 -0.076,-0.007 -0.15,-0.013 -0.221,-0.019 0.007,-0.014 0.015,-0.029 0.023,-0.044 0.162,-0.305 0.285,-0.626 0.384,-0.958 0.018,-0.061 0.035,-0.122 0.052,-0.183 0.663,-0.583 1.327,-1.165 2.022,-1.707 0.589,-0.461 1.199,-0.893 1.849,-1.274 0.588,-0.345 1.391,-0.573 2.055,-0.912 0.312,-0.159 0.594,-0.342 0.811,-0.57 0.027,-0.026 0.027,-0.069 0,-0.096 -0.027,-0.026 -0.07,-0.026 -0.096,0 -0.216,0.206 -0.492,0.365 -0.794,0.502 -0.686,0.31 -1.507,0.503 -2.117,0.823 -0.68,0.357 -1.323,0.767 -1.945,1.207 -0.548,0.388 -1.079,0.798 -1.605,1.214 0.18,-0.956 0.293,-1.941 0.704,-2.804 0.223,-0.471 0.717,-1.419 1.272,-2.155 0.41,-0.542 0.845,-0.974 1.232,-0.981 0.037,0 0.068,-0.031 0.068,-0.069 0,-0.037 -0.031,-0.068 -0.068,-0.068 -0.337,-0.006 -0.728,0.266 -1.109,0.67 -0.702,0.742 -1.383,1.922 -1.669,2.466 -0.539,1.027 -0.659,2.247 -0.974,3.374 0.07,0.596 -0.99,2.331 -1.295,2.105 -0.055,-0.658 -0.272,-1.941 -0.256,-2.586 0.011,-0.468 0.074,-0.913 0.247,-1.309 0.017,-0.033 0.003,-0.074 -0.03,-0.091 -0.034,-0.017 -0.075,-0.003 -0.092,0.031 -0.225,0.397 -0.341,0.857 -0.404,1.348 -0.134,1.045 -0.012,2.224 -0.169,3.187 -0.009,0.055 -0.022,0.112 -0.037,0.169 -0.09,0.228 -0.178,0.453 -0.271,0.668 -0.206,0.478 -0.43,0.905 -0.78,1.167 -0.13,0.103 -0.179,0.271 -0.137,0.422 -0.085,0.125 -0.169,0.251 -0.25,0.378 -0.305,0.479 -0.579,0.973 -0.804,1.496 0.018,-0.116 0.016,-0.259 -0.012,-0.42 -0.094,-0.537 -0.478,-1.404 -0.508,-1.728 -0.043,-0.467 -0.088,-0.929 -0.132,-1.389 0.014,-0.019 0.028,-0.038 0.042,-0.058 0.545,-0.788 1.53,-3.049 1.683,-3.359 0.02,-0.033 0.009,-0.074 -0.023,-0.094 -0.032,-0.019 -0.074,-0.009 -0.093,0.024 -0.159,0.221 -1.033,1.582 -1.704,2.451 -0.029,-0.326 -0.056,-0.653 -0.08,-0.982 0.091,-0.05 0.183,-0.123 0.27,-0.223 0.203,-0.233 0.424,-0.612 0.616,-0.955 0.131,-0.233 0.362,-0.688 0.454,-0.79 0.759,-0.839 1.517,-1.4 2.339,-2.244 0.206,-0.211 0.408,-0.424 0.604,-0.64 0.027,-0.027 0.027,-0.07 0,-0.097 -0.026,-0.026 -0.069,-0.026 -0.096,0 -0.673,0.609 -1.403,1.178 -2.112,1.749 0.006,-0.384 0.067,-0.849 0.193,-1.31 0.049,-0.176 0.105,-0.352 0.172,-0.522 0.171,-0.295 0.372,-0.63 0.588,-0.992 1.033,-1.176 2.786,-1.685 4.071,-2.639 0.607,-0.451 1.115,-0.995 1.408,-1.74 0.015,-0.035 -10e-4,-0.075 -0.036,-0.089 -0.035,-0.015 -0.075,10e-4 -0.089,0.035 -0.322,0.691 -0.837,1.176 -1.44,1.569 -0.84,0.546 -1.847,0.911 -2.76,1.376 -0.141,0.072 -0.279,0.147 -0.415,0.225 0.357,-0.631 0.704,-1.287 0.976,-1.915 0.344,-0.795 0.571,-1.543 0.551,-2.136 0,-0.037 -0.031,-0.068 -0.068,-0.068 -0.038,0 -0.068,0.031 -0.068,0.068 -0.02,0.571 -0.288,1.273 -0.67,2.015 -0.47,0.911 -1.112,1.875 -1.695,2.722 -0.125,0.111 -0.244,0.229 -0.355,0.354 -0.3,0.338 -0.54,0.77 -0.723,1.225 -0.306,0.463 -0.261,1.218 -0.468,1.668 -0.182,0.394 -0.729,1.575 -0.917,1.841 -0.036,-0.728 -0.095,-1.979 -0.006,-2.523 0.034,-0.014 0.067,-0.033 0.097,-0.057 0.734,-0.624 1.504,-1.988 2.148,-3.557 0.84,-2.049 1.49,-4.433 1.651,-5.823 0.006,-0.037 -0.02,-0.072 -0.057,-0.078 -0.037,-0.005 -0.072,0.02 -0.078,0.058 -0.249,1.357 -1.044,3.662 -2.004,5.624 -0.478,0.978 -0.994,1.869 -1.504,2.497 0.019,-0.071 0.039,-0.143 0.06,-0.214 0.361,-1.24 0.894,-2.397 1.112,-3.658 0.154,-0.894 0.077,-1.82 0.153,-2.733 0.018,-0.223 0.046,-0.446 0.089,-0.666 0.008,-0.037 -0.015,-0.073 -0.052,-0.082 -0.036,-0.008 -0.073,0.015 -0.081,0.052 -0.056,0.224 -0.096,0.45 -0.127,0.677 -0.122,0.897 -0.092,1.816 -0.291,2.691 -0.281,1.236 -0.871,2.353 -1.293,3.563 -0.049,0.141 -0.096,0.283 -0.139,0.426 0.037,-0.446 0.082,-0.895 0.132,-1.347 0.246,-2.209 0.621,-4.46 0.899,-6.474 0.078,-0.564 0.469,-1.234 0.632,-1.826 0.047,-0.175 0.076,-0.343 0.074,-0.501 0,-0.038 -0.03,-0.068 -0.068,-0.068 -0.038,0 -0.068,0.03 -0.068,0.068 -0.002,0.145 -0.035,0.299 -0.084,0.459 -0.183,0.596 -0.599,1.265 -0.695,1.836 -0.341,2.007 -0.786,4.249 -1.101,6.454 -0.213,1.492 -0.366,2.967 -0.39,4.34 z"
           style="fill:#188747"
           id="path1506" />
      </g>
      <g
         transform="matrix(1.42024,0,0,1.42024,-231.746,-177.586)"
         id="g1512">
        <path
           d="m 805.555,666.467 c 3.891,1.845 -0.466,33.319 -7.543,31.559"
           style="fill:none;stroke:#ffffff;stroke-width:1.29px"
           id="path1510" />
      </g>
      <g
         transform="matrix(1.42024,0,0,1.42024,-231.746,-177.586)"
         id="g1516">
        <path
           d="m 798.546,670.013 c 1.605,1.259 -4.789,23.718 -10.768,25.631"
           style="fill:none;stroke:#ffffff;stroke-width:1.29px"
           id="path1514" />
      </g>
      <g
         transform="matrix(1.42024,0,0,1.42024,-231.746,-177.586)"
         id="g1520">
        <path
           d="m 794.47,669.92 c -2.348,1.607 -14.307,17.595 -15.25,21.93"
           style="fill:none;stroke:#ffffff;stroke-width:1.29px"
           id="path1518" />
      </g>
      <g
         transform="matrix(1.42024,0,0,1.42024,-242.086,-187.305)"
         id="g1524">
        <path
           d="m 794.47,669.92 c -2.348,1.607 -14.307,17.595 -15.25,21.93"
           style="fill:none;stroke:#ffffff;stroke-width:1.29px"
           id="path1522" />
      </g>
      <g
         transform="translate(111.043,118.698)"
         id="g1528">
        <path
           d="m 776.287,586.727 c -3.398,0.169 -7.978,-2.938 -7.267,-4.454 3.104,-0.302 5.684,1.23 7.267,4.454 z"
           style="fill:#b1f9ca"
           id="path1526" />
      </g>
    </g>
    <g
       transform="matrix(0.30191868,0,0,0.30191868,-127.65026,-137.38463)"
       id="g1856"
       style="clip-rule:evenodd;fill-rule:evenodd;stroke-linecap:round;stroke-linejoin:round;stroke-miterlimit:1.5">
      <g
         transform="translate(-25.3585,-77.2656)"
         id="g1794">
        <path
           d="m 972.142,669.28 c 4.752,0.363 9.438,1.025 14.246,1.785 2.298,0.362 6.852,0.245 8.324,2.561 1.767,2.779 1.067,5.335 1.067,8.324 0,2.487 -2.508,5.604 -1.281,8.11 4.019,8.207 -53.666,33.974 -67.232,27.961 -4.164,-1.846 -30.199,-4.879 -35.858,-11.953 -1.155,-1.444 -3.617,-4.953 -4.195,-6.571 -1.941,-5.435 84.929,-30.217 84.929,-30.217 z"
           style="fill:#edce9d"
           id="path1792" />
      </g>
      <g
         transform="matrix(0.838141,0,0,0.838141,121.021,47.3923)"
         id="g1798">
        <path
           d="m 911.404,611.078 c 0.505,0.17 0.319,-1.082 0.159,-1.59 -0.342,-1.084 -0.909,-2.109 -1.608,-3.005 -2.504,-3.209 -4.095,-5.089 -8.599,-3.925 -4.659,1.204 -8.507,4.537 -10.655,8.786 -1.769,3.498 0.324,6.521 -2.991,9.534 -6.127,5.567 -16.59,-2.101 -20.376,7.477 -0.479,1.211 -1.098,13.182 -1.496,14.394 -1.012,3.085 -3.47,1.456 -5.234,3.365 -1.968,2.129 -6.341,7.889 -6.124,11.857 0.317,5.782 4.367,4.659 8.34,4.758 1.323,0.033 5.567,-0.258 5.822,2.453 0.638,6.778 -14.379,17.441 -2.69,21.195 3.874,1.244 8.047,1.475 11.85,2.92 2.279,0.865 3.878,3.092 6.169,3.925 z"
           style="fill:#34954c"
           id="path1796" />
      </g>
      <g
         transform="matrix(0.838141,0,0,0.838141,119.479,54.3908)"
         id="g1802">
        <path
           d="m 904.692,616.743 c 0.1,0.725 0.438,-1.397 0.722,-2.071 0.474,-1.128 0.609,-2.546 1.55,-3.328 1.951,-1.621 -0.236,-4.645 2.124,-5.575 2.826,-1.114 1.106,-2.966 3.675,-5.116 3.096,-2.59 5.688,-1.611 9.343,-4.077 2.59,-1.748 6.456,-2.57 9.534,-2.244 1.489,0.159 3.867,2.371 5.608,1.683 1.995,-0.788 3.291,-2.834 5.235,-3.739 8.067,-3.754 10.872,3.234 17.198,6.917 2.891,1.683 3.104,-1.809 6.169,-0.374 1.799,0.843 3.441,2.235 4.486,3.926 1.717,2.777 -2.1,3.58 0.374,6.169 1.684,1.761 3.986,2.841 6.169,3.925 1.778,0.884 2.96,-0.495 4.3,1.496 3.451,5.129 0.844,11.449 1.682,17.011 0.112,0.742 1.251,0.882 1.682,1.496 1.205,1.713 2.389,3.48 3.178,5.421 1.544,3.793 -2.357,6.468 -1.495,10.281 1.259,5.573 4.381,8.42 2.056,14.021 -1.593,3.838 -5.905,3.89 -9.16,5.421 -3.212,1.511 -8.679,4.94 -11.216,7.477 z"
           style="fill:#32a14d"
           id="path1800" />
      </g>
      <g
         transform="matrix(0.838141,0,0,0.838141,121.021,47.3923)"
         id="g1806">
        <path
           d="m 971.552,669.305 c 0.483,0.92 0.118,-2.254 0.841,-3.002 1.632,-1.689 6.959,-4.269 9.346,-1.869 4.37,4.393 -4.502,9.622 -2.163,14.353 2.068,4.184 -11.137,9.129 -15.222,12.379 -4.567,3.634 -0.46,7.018 -5.353,10.136 -4.216,2.687 -8.17,2.672 -12.712,0.935 -2.68,-1.025 -1.374,0.278 -4.554,-0.042 -2.431,-0.244 -5.096,-0.325 -7.291,0.748 -4.552,2.227 -6.603,9.869 -12.898,8.786 -9.182,-1.579 -12.947,-11.848 -22.059,-13.272 -9.541,-1.491 -14.243,6.996 -23.367,0 -4.675,-3.585 -2.755,-9.387 0.849,-13.03 7.099,-7.176 13.144,-12.768 22.518,-12.768 z"
           style="fill:#1ba03c"
           id="path1804" />
      </g>
      <g
         transform="matrix(0.838141,0,0,0.838141,118.486,49.7968)"
         id="g1810">
        <path
           d="m 966.637,623.773 c 0.861,-0.928 -1.223,-2.905 -1.462,-3.169 -0.987,-1.09 -1.901,-2.265 -3.033,-3.204 -5.137,-4.26 -10.932,-4.809 -15.12,0.969 -2.925,4.036 -2.545,9.579 -5.302,13.754 -1.275,1.93 -5.605,5.417 -4.778,8.538 1.49,5.623 5.686,11.946 8.335,17.059 0.68,1.31 3.102,4.354 3.102,6.009 z"
           style="fill:#51c440"
           id="path1808" />
      </g>
      <g
         transform="matrix(0.838141,0,0,0.838141,121.021,47.3923)"
         id="g1814">
        <path
           d="m 946.247,686.99 c 3.745,5.47 20.497,-3.448 23.261,-10.467 2.412,-6.125 0.731,-12.519 2.52,-18.803 0.538,-1.889 0.505,-8.799 1.475,-10.381 3.224,-5.259 -9.964,-20.447 -11.83,-17.728 -2.319,3.378 -7.263,8.806 -9.805,12.02 -6.859,8.67 -5.747,21.076 -5.815,31.209 -0.032,4.717 0.012,9.436 0.194,14.15 z"
           style="fill:#36bd2f"
           id="path1812" />
      </g>
      <g
         transform="matrix(0.838141,0,0,0.838141,121.021,47.3923)"
         id="g1818">
        <path
           d="m 961.874,629.412 c 4.208,4.102 9.287,11.956 7.149,15.442 -0.97,1.582 -0.937,8.493 -1.475,10.381 -1.789,6.284 -0.108,12.679 -2.52,18.803 -2.764,7.019 -17.379,10.875 -23.986,13.608 -0.037,0.016 3.007,6.57 4.982,3.415 0.194,1.02 20.72,-7.519 23.484,-14.538 2.412,-6.125 0.731,-12.519 2.52,-18.803 0.538,-1.889 0.505,-8.799 1.475,-10.381 3.126,-5.099 -9.177,-19.533 -11.629,-17.927 z"
           style="fill:#58ad47"
           id="path1816" />
      </g>
      <g
         transform="matrix(0.838141,0,0,0.838141,121.021,47.3923)"
         id="g1822">
        <path
           d="m 944.502,625.839 c 0.24,-0.129 0.648,-0.353 0.549,-0.608 -0.398,-1.024 -2.238,-0.07 -3.263,-0.465 -1.555,-0.598 -3.443,-2.471 -4.264,-3.877 -1.567,-2.682 -1.061,-3.947 -3.102,-6.397 -1.95,-2.34 -5.602,-0.553 -7.947,-2.132 -2.215,-1.491 -3.916,-4.732 -6.979,-2.714 -2.04,1.344 -1.804,2.495 -3.295,4.265 -1.131,1.343 -3.478,2.784 -4.265,4.458 -3.412,7.261 -4.903,15.944 -4.88,23.917 0.007,2.697 0.235,5.398 0.616,8.068 0.358,2.516 1.55,2.82 1.55,5.427 l 27.654,-5.614 c 8.472,-8.114 7.317,-16.22 7.626,-24.328 z"
           style="fill:#2cbe3d"
           id="path1820" />
      </g>
      <g
         transform="matrix(0.838141,0,0,0.838141,121.021,47.3923)"
         id="g1826">
        <path
           d="m 938.079,640.203 c 0.174,-0.825 -2.665,-2.75 -3.075,-3.031 -3.151,-2.156 -6.443,-4.11 -9.499,-6.397 -1.292,-0.967 -4.647,-5.85 -7.366,-4.652 -2.13,0.939 -3.366,2.953 -4.458,4.846 -3.749,6.496 -8.511,13.173 -7.366,21.129 0.527,3.664 3.371,13.313 5.427,16.477 1.895,2.916 4.749,5.085 6.979,7.754 4.032,4.826 5.869,8.607 10.661,12.794 2.606,2.275 4.146,4.219 8.067,2.942 1.82,-0.593 5.571,1.104 6.435,-0.344 2.187,-3.665 9.304,-5.583 10.202,-9.869 1.372,-6.549 -4.738,-9.621 -4.738,-16.185 z"
           style="fill:#59df21"
           id="path1824" />
      </g>
      <g
         transform="matrix(0.838141,0,0,0.838141,121.021,47.3923)"
         id="g1830">
        <path
           d="m 938.079,640.203 c 0.174,-0.825 -2.665,-2.75 -3.075,-3.031 -3.151,-2.156 -6.443,-4.11 -9.499,-6.397 -1.292,-0.967 -4.647,-5.85 -7.366,-4.652 -2.13,0.939 -3.366,2.953 -4.458,4.846 -3.749,6.496 -8.511,13.173 -7.366,21.129 0.527,3.664 3.371,13.313 5.427,16.477 1.895,2.916 4.749,5.085 6.979,7.754 4.032,4.826 5.869,8.607 10.661,12.794 2.606,2.275 4.146,4.219 8.067,2.942 1.82,-0.593 5.571,1.104 6.435,-0.344 2.187,-3.665 9.304,-5.583 10.202,-9.869 1.372,-6.549 -4.738,-9.621 -4.738,-16.185 z"
           style="fill:#59df21"
           id="path1828" />
      </g>
      <g
         transform="matrix(0.838141,0,0,0.838141,121.021,47.3923)"
         id="g1834">
        <path
           d="m 912.608,629.725 c 0.139,0.369 -0.423,-0.692 -0.478,-1.082 -0.172,-1.217 -0.181,-2.454 -0.194,-3.683 -0.013,-1.199 1.405,-10.986 -1.877,-10.117 -5.751,1.524 -10.032,5.386 -14.212,9.342 -4.305,4.074 -7.564,6.609 -10.855,11.63 -2.923,4.459 -0.978,9.723 1.461,13.867 2.366,4.021 7.526,9.397 10.945,12.496 4.417,4.004 7.291,6.397 13.181,6.397 z"
           style="fill:#2fbb51"
           id="path1832" />
      </g>
      <g
         transform="matrix(0.838141,0,0,0.838141,121.021,47.3923)"
         id="g1838">
        <path
           d="m 913.425,693.378 c 10.283,5.809 26.477,-0.63 23.711,-4.255 -0.696,-0.912 -11.818,-11.366 -15.701,-14.345 -0.909,-0.697 -2.307,-0.392 -3.296,-0.969 -2.448,-1.429 -1.255,-6.293 -0.387,-7.948 0.395,-0.754 4.844,-3.749 3.876,-5.427 -1.748,-3.032 -6.377,-0.107 -8.529,-0.388 -2.924,-0.383 -8.206,-3.423 -10.274,-5.428 -5.045,-4.893 -4.511,-12.76 -11.63,-15.895 -1.987,-0.875 -6.53,-1.349 -7.754,1.357 -2.524,5.578 -2.807,9.042 -4.265,14.926 -1.582,6.39 -5.003,14.617 0.118,20.434 5.542,6.295 12.596,9.638 20.042,13.101 1.993,0.927 3.931,2 6.009,2.714 2.634,0.904 5.656,0.753 8.08,2.123 z"
           style="fill:#5bd041"
           id="path1836" />
      </g>
      <g
         transform="matrix(0.838141,0,0,0.838141,121.021,47.3923)"
         id="g1842">
        <path
           d="m 935.774,691.653 c -5.033,0.682 -11.407,-3.815 -15.194,-1.588 -10.483,6.165 -51.843,-20.24 -35.469,-39.455 3.557,-4.173 2.896,-7.581 4.82,-12.299 -2.229,-0.531 -5.483,-0.457 -6.49,1.769 -2.524,5.578 -2.807,9.042 -4.265,14.926 -1.582,6.39 -5.003,14.617 0.118,20.434 5.542,6.295 12.596,9.638 20.042,13.101 1.993,0.927 3.931,2 6.009,2.714 2.634,0.904 5.367,1.498 8.08,2.123 6.649,1.531 17.152,3.781 22.349,-1.725 z"
           style="fill:#66b654"
           id="path1840" />
      </g>
      <g
         transform="matrix(0.838141,0,0,0.838141,121.021,47.3923)"
         id="g1846">
        <path
           d="m 892.723,639.337 c -0.358,-1.701 4.966,1.067 5.658,1.759 1.919,1.919 2.165,4.8 2.778,7.253 2.372,9.487 11.614,9.722 19.907,9.722"
           style="fill:none;stroke:#ffffff;stroke-width:1.91px"
           id="path1844" />
      </g>
      <g
         transform="matrix(0.838141,0,0,0.838141,121.021,47.3923)"
         id="g1850">
        <path
           d="m 925.021,627.416 c -0.878,-1.875 -5.104,-1.547 -7.042,-1.289 -5.551,0.741 -12.528,8.768 -7.252,14.043"
           style="fill:none;stroke:#ffffff;stroke-width:1.91px"
           id="path1848" />
      </g>
      <g
         transform="matrix(0.838141,0,0,0.838141,121.021,47.3923)"
         id="g1854">
        <path
           d="m 931.684,634.904 c 1.721,-0.684 0.381,2.044 -0.279,2.952 -1.183,1.627 -3.651,3.014 -5.555,3.395 -2.139,0.427 -4.094,-0.264 -5.401,-2.007 -0.565,-0.753 -1.017,-2.932 0.308,-2.932"
           style="fill:none;stroke:#ffffff;stroke-width:1.91px"
           id="path1852" />
      </g>
    </g>
    <g
       transform="matrix(0.32466491,0,0,0.32466491,-253.41831,-3.7779871)"
       id="g4030"
       style="clip-rule:evenodd;fill-rule:evenodd;stroke-linecap:round;stroke-linejoin:round;stroke-miterlimit:1.5">
      <g
         transform="matrix(1.13271,0,0,1.22528,-129.048,-116.707)"
         id="g3750">
        <path
           d="m 987.892,482.413 c 7.002,1.199 15.888,8.673 18.948,14.787 1.68,3.364 4.37,7.627 -0.39,10.342 -6.4,3.661 -15.249,-3.76 -22.161,-2.315 -6.9,1.442 -13.214,5.346 -20.259,6.307 -5.471,0.746 -11.081,0.875 -16.436,2.293 -6.972,1.846 -15.745,4.392 -22.935,4.014 -4.208,-0.222 -5.667,-2.456 -8.982,-4.587 -2.503,-1.609 -5.542,-2.293 -7.645,-4.396 -2.404,-2.404 -6.336,-4.194 -9.556,-5.16 -2.201,-0.66 -5.693,-1.216 -6.498,-3.632 -1.781,-5.341 5.968,-6.909 9.364,-9.173 2.561,-1.708 4.463,-4.36 7.072,-5.925 7.945,-4.768 17.386,-7.836 26.757,-7.836 z"
           style="fill:#edce9d"
           id="path3748" />
      </g>
      <g
         transform="translate(-37.6133,27.6087)"
         id="g4028">
        <g
           transform="matrix(0.525157,0,0,0.525157,266.19,257.962)"
           id="g3754">
          <path
             d="m 1336.94,352.877 c -2.29,1.26 -2.37,4.348 0.04,5.362 5.82,2.447 13.3,5.461 16.55,6.807 1.25,0.518 2.9,0.391 4.17,0.918 3.26,1.351 7.14,2.965 10.49,4.074 8.83,2.924 25.77,1.264 26.01,-0.049 0.12,-0.608 2.37,-0.812 2.99,-0.556 2.54,1.051 5.59,2.14 8.62,2.532 1.62,0.21 12.52,-1.499 13.52,-1.972 0.91,-0.434 0.95,-1.221 1.98,-1.087 2.46,0.319 5.07,1.889 7.58,1.407 4.18,-0.799 8.34,-1.93 11.94,-4.016 1.16,-0.675 4.25,0.566 5.57,0.346 3.93,-0.653 7.76,-1.351 11.29,-2.78 0.51,-0.206 2.36,-2.202 2.6,-2.68 0.13,-0.238 27.41,-15.441 27.35,-15.442 l -1.51,-2.161 c 0.07,-0.005 -14.11,-2.94 -14.27,-3.199 -0.31,-0.522 -2.51,-2.636 -3.1,-2.83 -4.04,-1.348 -8.38,-1.848 -12.8,-2.29 -1.49,-0.15 -4.85,1.482 -6.2,0.808 -4.17,-2.085 -8.89,-3.048 -13.61,-3.638 -2.84,-0.355 -5.62,1.611 -8.35,2.156 -1.14,0.228 -1.24,-0.658 -2.29,-1.078 -1.15,-0.459 -2.56,-0.294 -3.77,-0.404 -1.97,-0.18 -4.12,0.189 -6.07,-0.135 -1.72,-0.288 -3.59,-1.032 -5.38,-0.674 -3.35,0.67 -6.68,2.127 -9.44,3.504 -0.67,0.334 -2.68,-0.336 -3.36,-0.405 -1.9,-0.189 -4.85,-0.742 -6.74,-0.269 -7.43,1.858 -14.93,2.321 -22.37,4.446 -3.8,1.085 -7.78,1.33 -11.32,3.099 -1.37,0.689 -3.22,0.669 -4.58,1.348 -3.23,1.618 -10.31,5.972 -15.54,8.858 z"
             style="fill:#2b5041"
             id="path3752" />
        </g>
        <g
           transform="matrix(0.487008,0,0,0.487008,307.85,252.446)"
           id="g3758">
          <path
             d="m 1418.91,383.707 c 1.84,-0.893 9.72,5.352 10.38,8.624 0.67,3.296 1.11,7.773 -0.97,10.713 -2.77,3.913 -10.12,4.935 -14.43,4.692 -2.53,-0.143 -6.77,-2.713 -8.22,-4.68 -5.26,-7.149 -0.78,-16.234 8.5,-19.342 2.06,-0.686 2.42,-1.013 4.74,-0.007 z"
             style="fill:#029056"
             id="path3756" />
        </g>
        <g
           transform="matrix(0.487008,0,0,0.487008,307.85,252.446)"
           id="g3762">
          <path
             d="m 1408.71,386.614 c -2.63,3.932 -2.89,8.797 0.19,12.995 1.45,1.967 5.69,4.537 8.22,4.68 3.32,0.187 8.43,-0.374 11.87,-2.422 -0.19,0.413 -0.41,0.807 -0.67,1.177 -2.77,3.913 -10.12,4.935 -14.43,4.692 -2.53,-0.143 -6.77,-2.713 -8.22,-4.68 -4.08,-5.547 -2.3,-12.26 3.04,-16.442 z"
             style="fill:#00673d"
             id="path3760" />
        </g>
        <g
           transform="matrix(0.487008,0,0,0.487008,307.85,252.446)"
           id="g3766">
          <path
             d="m 1419.14,386.315 c 1.35,-0.124 -0.31,1.934 -0.75,2.185 -1.14,0.653 -3.31,-0.509 -3.31,-1.83 0,-0.703 0.53,-0.799 0.91,-1.177"
             style="fill:none;stroke:#ffffff;stroke-width:1.02px"
             id="path3764" />
        </g>
        <g
           transform="matrix(0.487008,0,0,0.487008,259.738,257.935)"
           id="g3770">
          <path
             d="m 1418.91,383.707 c 1.84,-0.893 9.72,5.352 10.38,8.624 0.67,3.296 1.11,7.773 -0.97,10.713 -2.77,3.913 -10.12,4.935 -14.43,4.692 -2.53,-0.143 -6.77,-2.713 -8.22,-4.68 -5.26,-7.149 -0.78,-16.234 8.5,-19.342 2.06,-0.686 2.42,-1.013 4.74,-0.007 z"
             style="fill:#029056"
             id="path3768" />
        </g>
        <g
           transform="matrix(0.487008,0,0,0.487008,259.738,257.935)"
           id="g3774">
          <path
             d="m 1408.71,386.614 c -2.63,3.932 -2.89,8.797 0.19,12.995 1.45,1.967 5.69,4.537 8.22,4.68 3.32,0.187 8.43,-0.374 11.87,-2.422 -0.19,0.413 -0.41,0.807 -0.67,1.177 -2.77,3.913 -10.12,4.935 -14.43,4.692 -2.53,-0.143 -6.77,-2.713 -8.22,-4.68 -4.08,-5.547 -2.3,-12.26 3.04,-16.442 z"
             style="fill:#00673d"
             id="path3772" />
        </g>
        <g
           transform="matrix(0.487008,0,0,0.487008,259.738,257.935)"
           id="g3778">
          <path
             d="m 1419.14,386.315 c 1.35,-0.124 -0.31,1.934 -0.75,2.185 -1.14,0.653 -3.31,-0.509 -3.31,-1.83 0,-0.703 0.53,-0.799 0.91,-1.177"
             style="fill:none;stroke:#ffffff;stroke-width:1.02px"
             id="path3776" />
        </g>
        <g
           transform="matrix(0.469074,-0.130946,0.130946,0.469074,240.035,468.574)"
           id="g3782">
          <path
             d="m 1418.91,383.707 c 1.84,-0.893 9.72,5.352 10.38,8.624 0.67,3.296 1.11,7.773 -0.97,10.713 -2.77,3.913 -10.12,4.935 -14.43,4.692 -2.53,-0.143 -6.77,-2.713 -8.22,-4.68 -5.26,-7.149 -0.78,-16.234 8.5,-19.342 2.06,-0.686 2.42,-1.013 4.74,-0.007 z"
             style="fill:#029056"
             id="path3780" />
        </g>
        <g
           transform="matrix(0.469074,-0.130946,0.130946,0.469074,240.035,468.574)"
           id="g3786">
          <path
             d="m 1408.71,386.614 c -2.63,3.932 -2.89,8.797 0.19,12.995 1.45,1.967 5.69,4.537 8.22,4.68 3.32,0.187 8.43,-0.374 11.87,-2.422 -0.19,0.413 -0.41,0.807 -0.67,1.177 -2.77,3.913 -10.12,4.935 -14.43,4.692 -2.53,-0.143 -6.77,-2.713 -8.22,-4.68 -4.08,-5.547 -2.3,-12.26 3.04,-16.442 z"
             style="fill:#00673d"
             id="path3784" />
        </g>
        <g
           transform="matrix(0.469074,-0.130946,0.130946,0.469074,240.193,468.485)"
           id="g3790">
          <path
             d="m 1419.14,386.315 c 1.35,-0.124 -0.31,1.934 -0.75,2.185 -1.14,0.653 -3.31,-0.509 -3.31,-1.83 0,-0.703 0.53,-0.799 0.91,-1.177"
             style="fill:none;stroke:#ffffff;stroke-width:1.02px"
             id="path3788" />
        </g>
        <g
           transform="matrix(0.380476,0,0,0.380476,448.161,295.299)"
           id="g3794">
          <path
             d="m 1418.91,383.707 c 1.84,-0.893 9.72,5.352 10.38,8.624 0.67,3.296 1.11,7.773 -0.97,10.713 -2.77,3.913 -10.12,4.935 -14.43,4.692 -2.53,-0.143 -6.77,-2.713 -8.22,-4.68 -5.26,-7.149 -0.78,-16.234 8.5,-19.342 2.06,-0.686 2.42,-1.013 4.74,-0.007 z"
             style="fill:#029056"
             id="path3792" />
        </g>
        <g
           transform="matrix(0.380476,0,0,0.380476,448.161,295.299)"
           id="g3798">
          <path
             d="m 1408.71,386.614 c -2.63,3.932 -2.89,8.797 0.19,12.995 1.45,1.967 5.69,4.537 8.22,4.68 3.32,0.187 8.43,-0.374 11.87,-2.422 -0.19,0.413 -0.41,0.807 -0.67,1.177 -2.77,3.913 -10.12,4.935 -14.43,4.692 -2.53,-0.143 -6.77,-2.713 -8.22,-4.68 -4.08,-5.547 -2.3,-12.26 3.04,-16.442 z"
             style="fill:#00673d"
             id="path3796" />
        </g>
        <g
           transform="matrix(0.380476,0,0,0.380476,448.161,295.299)"
           id="g3802">
          <path
             d="m 1418.39,388.5 c -1.14,0.653 -3.31,-0.509 -3.31,-1.83 0,-0.703 0.53,-0.799 0.91,-1.177"
             style="fill:none;stroke:#ffffff;stroke-width:1.31px"
             id="path3800" />
        </g>
        <g
           transform="matrix(0.380476,0,0,0.380476,403.25,309.885)"
           id="g3806">
          <path
             d="m 1418.91,383.707 c 1.84,-0.893 9.72,5.352 10.38,8.624 0.67,3.296 1.11,7.773 -0.97,10.713 -2.77,3.913 -10.12,4.935 -14.43,4.692 -2.53,-0.143 -6.77,-2.713 -8.22,-4.68 -5.26,-7.149 -0.78,-16.234 8.5,-19.342 2.06,-0.686 2.42,-1.013 4.74,-0.007 z"
             style="fill:#029056"
             id="path3804" />
        </g>
        <g
           transform="matrix(0.380476,0,0,0.380476,403.25,309.885)"
           id="g3810">
          <path
             d="m 1408.71,386.614 c -2.63,3.932 -2.89,8.797 0.19,12.995 1.45,1.967 5.69,4.537 8.22,4.68 3.32,0.187 8.43,-0.374 11.87,-2.422 -0.19,0.413 -0.41,0.807 -0.67,1.177 -2.77,3.913 -10.12,4.935 -14.43,4.692 -2.53,-0.143 -6.77,-2.713 -8.22,-4.68 -4.08,-5.547 -2.3,-12.26 3.04,-16.442 z"
             style="fill:#00673d"
             id="path3808" />
        </g>
        <g
           transform="matrix(0.380476,0,0,0.380476,403.25,309.885)"
           id="g3814">
          <path
             d="m 1418.39,388.5 c -1.14,0.653 -3.31,-0.509 -3.31,-1.83 0,-0.703 0.53,-0.799 0.91,-1.177"
             style="fill:none;stroke:#ffffff;stroke-width:1.31px"
             id="path3812" />
        </g>
        <g
           transform="matrix(0.380476,0,0,0.380476,403.742,319.711)"
           id="g3818">
          <path
             d="m 1418.91,383.707 c 1.84,-0.893 9.72,5.352 10.38,8.624 0.67,3.296 1.11,7.773 -0.97,10.713 -2.77,3.913 -10.12,4.935 -14.43,4.692 -2.53,-0.143 -6.77,-2.713 -8.22,-4.68 -5.26,-7.149 -0.78,-16.234 8.5,-19.342 2.06,-0.686 2.42,-1.013 4.74,-0.007 z"
             style="fill:#029056"
             id="path3816" />
        </g>
        <g
           transform="matrix(0.380476,0,0,0.380476,403.742,319.711)"
           id="g3822">
          <path
             d="m 1408.71,386.614 c -2.63,3.932 -2.89,8.797 0.19,12.995 1.45,1.967 5.69,4.537 8.22,4.68 3.32,0.187 8.43,-0.374 11.87,-2.422 -0.19,0.413 -0.41,0.807 -0.67,1.177 -2.77,3.913 -10.12,4.935 -14.43,4.692 -2.53,-0.143 -6.77,-2.713 -8.22,-4.68 -4.08,-5.547 -2.3,-12.26 3.04,-16.442 z"
             style="fill:#00673d"
             id="path3820" />
        </g>
        <g
           transform="matrix(0.380476,0,0,0.380476,403.742,319.711)"
           id="g3826">
          <path
             d="m 1418.39,388.5 c -1.14,0.653 -3.31,-0.509 -3.31,-1.83 0,-0.703 0.53,-0.799 0.91,-1.177"
             style="fill:none;stroke:#ffffff;stroke-width:1.31px"
             id="path3824" />
        </g>
        <g
           transform="matrix(0.297247,0,0,0.297247,557.116,328.044)"
           id="g3830">
          <path
             d="m 1418.91,383.707 c 1.84,-0.893 9.72,5.352 10.38,8.624 0.67,3.296 1.11,7.773 -0.97,10.713 -2.77,3.913 -10.12,4.935 -14.43,4.692 -2.53,-0.143 -6.77,-2.713 -8.22,-4.68 -5.26,-7.149 -0.78,-16.234 8.5,-19.342 2.06,-0.686 2.42,-1.013 4.74,-0.007 z"
             style="fill:#029056"
             id="path3828" />
        </g>
        <g
           transform="matrix(0.297247,0,0,0.297247,557.116,328.044)"
           id="g3834">
          <path
             d="m 1408.71,386.614 c -2.63,3.932 -2.89,8.797 0.19,12.995 1.45,1.967 5.69,4.537 8.22,4.68 3.32,0.187 8.43,-0.374 11.87,-2.422 -0.19,0.413 -0.41,0.807 -0.67,1.177 -2.77,3.913 -10.12,4.935 -14.43,4.692 -2.53,-0.143 -6.77,-2.713 -8.22,-4.68 -4.08,-5.547 -2.3,-12.26 3.04,-16.442 z"
             style="fill:#00673d"
             id="path3832" />
        </g>
        <g
           transform="matrix(0.297247,0,0,0.297247,557.116,328.044)"
           id="g3838">
          <path
             d="m 1418.39,388.5 c -1.14,0.653 -3.31,-0.509 -3.31,-1.83"
             style="fill:none;stroke:#ffffff;stroke-width:1.67px"
             id="path3836" />
        </g>
        <g
           transform="matrix(0.297247,0,0,0.297247,512.205,342.63)"
           id="g3842">
          <path
             d="m 1418.91,383.707 c 1.84,-0.893 9.72,5.352 10.38,8.624 0.67,3.296 1.11,7.773 -0.97,10.713 -2.77,3.913 -10.12,4.935 -14.43,4.692 -2.53,-0.143 -6.77,-2.713 -8.22,-4.68 -5.26,-7.149 -0.78,-16.234 8.5,-19.342 2.06,-0.686 2.42,-1.013 4.74,-0.007 z"
             style="fill:#029056"
             id="path3840" />
        </g>
        <g
           transform="matrix(0.297247,0,0,0.297247,512.205,342.63)"
           id="g3846">
          <path
             d="m 1408.71,386.614 c -2.63,3.932 -2.89,8.797 0.19,12.995 1.45,1.967 5.69,4.537 8.22,4.68 3.32,0.187 8.43,-0.374 11.87,-2.422 -0.19,0.413 -0.41,0.807 -0.67,1.177 -2.77,3.913 -10.12,4.935 -14.43,4.692 -2.53,-0.143 -6.77,-2.713 -8.22,-4.68 -4.08,-5.547 -2.3,-12.26 3.04,-16.442 z"
             style="fill:#00673d"
             id="path3844" />
        </g>
        <g
           transform="matrix(0.297247,0,0,0.297247,512.205,342.63)"
           id="g3850">
          <path
             d="m 1418.39,388.5 c -1.14,0.653 -3.31,-0.509 -3.31,-1.83"
             style="fill:none;stroke:#ffffff;stroke-width:1.67px"
             id="path3848" />
        </g>
        <g
           transform="matrix(0.297247,0,0,0.297247,512.696,345.781)"
           id="g3854">
          <path
             d="m 1418.91,383.707 c 1.84,-0.893 9.72,5.352 10.38,8.624 0.67,3.296 1.11,7.773 -0.97,10.713 -2.77,3.913 -10.12,4.935 -14.43,4.692 -2.53,-0.143 -6.77,-2.713 -8.22,-4.68 -5.26,-7.149 -0.78,-16.234 8.5,-19.342 2.06,-0.686 2.42,-1.013 4.74,-0.007 z"
             style="fill:#029056"
             id="path3852" />
        </g>
        <g
           transform="matrix(0.297247,0,0,0.297247,512.696,345.781)"
           id="g3858">
          <path
             d="m 1418.91,383.707 c 1.84,-0.893 9.72,5.352 10.38,8.624 0.67,3.296 1.11,7.773 -0.97,10.713 -2.77,3.913 -10.12,4.935 -14.43,4.692 -2.53,-0.143 -6.77,-2.713 -8.22,-4.68 -5.26,-7.149 -0.78,-16.234 8.5,-19.342 2.06,-0.686 2.42,-1.013 4.74,-0.007 z"
             style="fill:#029056"
             id="path3856" />
        </g>
        <g
           transform="matrix(0.297247,0,0,0.297247,512.696,345.781)"
           id="g3862">
          <path
             d="m 1408.71,386.614 c -2.63,3.932 -2.89,8.797 0.19,12.995 1.45,1.967 5.69,4.537 8.22,4.68 3.32,0.187 8.43,-0.374 11.87,-2.422 -0.19,0.413 -0.41,0.807 -0.67,1.177 -2.77,3.913 -10.12,4.935 -14.43,4.692 -2.53,-0.143 -6.77,-2.713 -8.22,-4.68 -4.08,-5.547 -2.3,-12.26 3.04,-16.442 z"
             style="fill:#00673d"
             id="path3860" />
        </g>
        <g
           transform="matrix(0.297247,0,0,0.297247,512.696,345.781)"
           id="g3866">
          <path
             d="m 1408.71,386.614 c -2.63,3.932 -2.89,8.797 0.19,12.995 1.45,1.967 5.69,4.537 8.22,4.68 3.32,0.187 8.43,-0.374 11.87,-2.422 -0.19,0.413 -0.41,0.807 -0.67,1.177 -2.77,3.913 -10.12,4.935 -14.43,4.692 -2.53,-0.143 -6.77,-2.713 -8.22,-4.68 -4.08,-5.547 -2.3,-12.26 3.04,-16.442 z"
             style="fill:#00673d"
             id="path3864" />
        </g>
        <g
           transform="matrix(0.297247,0,0,0.297247,512.696,345.781)"
           id="g3870">
          <path
             d="m 1418.39,388.5 c -1.14,0.653 -3.31,-0.509 -3.31,-1.83"
             style="fill:none;stroke:#ffffff;stroke-width:1.67px"
             id="path3868" />
        </g>
        <g
           transform="matrix(0.297247,0,0,0.297247,512.696,345.781)"
           id="g3874">
          <path
             d="m 1418.39,388.5 c -1.14,0.653 -3.31,-0.509 -3.31,-1.83"
             style="fill:none;stroke:#ffffff;stroke-width:1.67px"
             id="path3872" />
        </g>
        <g
           transform="matrix(0.508983,0.12933,-0.12933,0.508983,340.185,59.3691)"
           id="g3878">
          <path
             d="m 1418.91,383.707 c 1.84,-0.893 9.72,5.352 10.38,8.624 0.67,3.296 1.11,7.773 -0.97,10.713 -2.77,3.913 -10.12,4.935 -14.43,4.692 -2.53,-0.143 -6.77,-2.713 -8.22,-4.68 -5.26,-7.149 -0.78,-16.234 8.5,-19.342 2.06,-0.686 2.42,-1.013 4.74,-0.007 z"
             style="fill:#029056"
             id="path3876" />
        </g>
        <g
           transform="matrix(0.508983,0.12933,-0.12933,0.508983,340.185,59.3691)"
           id="g3882">
          <path
             d="m 1408.71,386.614 c -2.63,3.932 -2.89,8.797 0.19,12.995 1.45,1.967 5.69,4.537 8.22,4.68 3.32,0.187 8.43,-0.374 11.87,-2.422 -0.19,0.413 -0.41,0.807 -0.67,1.177 -2.77,3.913 -10.12,4.935 -14.43,4.692 -2.53,-0.143 -6.77,-2.713 -8.22,-4.68 -4.08,-5.547 -2.3,-12.26 3.04,-16.442 z"
             style="fill:#00673d"
             id="path3880" />
        </g>
        <g
           transform="matrix(0.508983,0.12933,-0.12933,0.508983,340.185,59.3691)"
           id="g3886">
          <path
             d="m 1419.14,386.315 c 1.35,-0.124 -0.31,1.934 -0.75,2.185 -1.14,0.653 -3.31,-0.509 -3.31,-1.83 0,-0.703 0.53,-0.799 0.91,-1.177"
             style="fill:none;stroke:#ffffff;stroke-width:0.95px"
             id="path3884" />
        </g>
        <g
           transform="matrix(0.508983,0.12933,-0.12933,0.508983,300.131,83.7533)"
           id="g3890">
          <path
             d="m 1418.91,383.707 c 1.84,-0.893 9.72,5.352 10.38,8.624 0.67,3.296 1.11,7.773 -0.97,10.713 -2.77,3.913 -10.12,4.935 -14.43,4.692 -2.53,-0.143 -6.77,-2.713 -8.22,-4.68 -5.26,-7.149 -0.78,-16.234 8.5,-19.342 2.06,-0.686 2.42,-1.013 4.74,-0.007 z"
             style="fill:#029056"
             id="path3888" />
        </g>
        <g
           transform="matrix(0.508983,0.12933,-0.12933,0.508983,300.131,83.7533)"
           id="g3894">
          <path
             d="m 1408.71,386.614 c -2.63,3.932 -2.89,8.797 0.19,12.995 1.45,1.967 5.69,4.537 8.22,4.68 3.32,0.187 8.43,-0.374 11.87,-2.422 -0.19,0.413 -0.41,0.807 -0.67,1.177 -2.77,3.913 -10.12,4.935 -14.43,4.692 -2.53,-0.143 -6.77,-2.713 -8.22,-4.68 -4.08,-5.547 -2.3,-12.26 3.04,-16.442 z"
             style="fill:#00673d"
             id="path3892" />
        </g>
        <g
           transform="matrix(0.508983,0.12933,-0.12933,0.508983,300.131,83.7533)"
           id="g3898">
          <path
             d="m 1419.14,386.315 c 1.35,-0.124 -0.31,1.934 -0.75,2.185 -1.14,0.653 -3.31,-0.509 -3.31,-1.83 0,-0.703 0.53,-0.799 0.91,-1.177"
             style="fill:none;stroke:#ffffff;stroke-width:0.95px"
             id="path3896" />
        </g>
        <g
           transform="matrix(0.449934,0.114326,-0.114326,0.449934,429.279,102.017)"
           id="g3902">
          <path
             d="m 1418.91,383.707 c 1.84,-0.893 9.72,5.352 10.38,8.624 0.67,3.296 1.11,7.773 -0.97,10.713 -2.77,3.913 -10.12,4.935 -14.43,4.692 -2.53,-0.143 -6.77,-2.713 -8.22,-4.68 -5.26,-7.149 -0.78,-16.234 8.5,-19.342 2.06,-0.686 2.42,-1.013 4.74,-0.007 z"
             style="fill:#029056"
             id="path3900" />
        </g>
        <g
           transform="matrix(0.449934,0.114326,-0.114326,0.449934,429.279,102.017)"
           id="g3906">
          <path
             d="m 1408.71,386.614 c -2.63,3.932 -2.89,8.797 0.19,12.995 1.45,1.967 5.69,4.537 8.22,4.68 3.32,0.187 8.43,-0.374 11.87,-2.422 -0.19,0.413 -0.41,0.807 -0.67,1.177 -2.77,3.913 -10.12,4.935 -14.43,4.692 -2.53,-0.143 -6.77,-2.713 -8.22,-4.68 -4.08,-5.547 -2.3,-12.26 3.04,-16.442 z"
             style="fill:#00673d"
             id="path3904" />
        </g>
        <g
           transform="matrix(0.449934,0.114326,-0.114326,0.449934,429.279,102.017)"
           id="g3910">
          <path
             d="m 1419.14,386.315 c 1.35,-0.124 -0.31,1.934 -0.75,2.185 -1.14,0.653 -3.31,-0.509 -3.31,-1.83 0,-0.703 0.53,-0.799 0.91,-1.177"
             style="fill:none;stroke:#ffffff;stroke-width:1.07px"
             id="path3908" />
        </g>
        <g
           transform="matrix(0.449934,0.114326,-0.114326,0.449934,372.384,118.163)"
           id="g3914">
          <path
             d="m 1418.91,383.707 c 1.84,-0.893 9.72,5.352 10.38,8.624 0.67,3.296 1.11,7.773 -0.97,10.713 -2.77,3.913 -10.12,4.935 -14.43,4.692 -2.53,-0.143 -6.77,-2.713 -8.22,-4.68 -5.26,-7.149 -0.78,-16.234 8.5,-19.342 2.06,-0.686 2.42,-1.013 4.74,-0.007 z"
             style="fill:#029056"
             id="path3912" />
        </g>
        <g
           transform="matrix(0.449934,0.114326,-0.114326,0.449934,372.384,118.163)"
           id="g3918">
          <path
             d="m 1408.71,386.614 c -2.63,3.932 -2.89,8.797 0.19,12.995 1.45,1.967 5.69,4.537 8.22,4.68 3.32,0.187 8.43,-0.374 11.87,-2.422 -0.19,0.413 -0.41,0.807 -0.67,1.177 -2.77,3.913 -10.12,4.935 -14.43,4.692 -2.53,-0.143 -6.77,-2.713 -8.22,-4.68 -4.08,-5.547 -2.3,-12.26 3.04,-16.442 z"
             style="fill:#00673d"
             id="path3916" />
        </g>
        <g
           transform="matrix(0.449934,0.114326,-0.114326,0.449934,372.384,118.163)"
           id="g3922">
          <path
             d="m 1419.14,386.315 c 1.35,-0.124 -0.31,1.934 -0.75,2.185 -1.14,0.653 -3.31,-0.509 -3.31,-1.83 0,-0.703 0.53,-0.799 0.91,-1.177"
             style="fill:none;stroke:#ffffff;stroke-width:1.07px"
             id="path3920" />
        </g>
        <g
           transform="matrix(0.35046,0.0890502,-0.0890502,0.35046,569.402,176.526)"
           id="g3926">
          <path
             d="m 1418.91,383.707 c 1.84,-0.893 9.72,5.352 10.38,8.624 0.67,3.296 1.11,7.773 -0.97,10.713 -2.77,3.913 -10.12,4.935 -14.43,4.692 -2.53,-0.143 -6.77,-2.713 -8.22,-4.68 -5.26,-7.149 -0.78,-16.234 8.5,-19.342 2.06,-0.686 2.42,-1.013 4.74,-0.007 z"
             style="fill:#029056"
             id="path3924" />
        </g>
        <g
           transform="matrix(0.35046,0.0890502,-0.0890502,0.35046,569.402,176.526)"
           id="g3930">
          <path
             d="m 1408.71,386.614 c -2.63,3.932 -2.89,8.797 0.19,12.995 1.45,1.967 5.69,4.537 8.22,4.68 3.32,0.187 8.43,-0.374 11.87,-2.422 -0.19,0.413 -0.41,0.807 -0.67,1.177 -2.77,3.913 -10.12,4.935 -14.43,4.692 -2.53,-0.143 -6.77,-2.713 -8.22,-4.68 -4.08,-5.547 -2.3,-12.26 3.04,-16.442 z"
             style="fill:#00673d"
             id="path3928" />
        </g>
        <g
           transform="matrix(0.35046,0.0890502,-0.0890502,0.35046,569.402,176.526)"
           id="g3934">
          <path
             d="m 1419.14,386.315 c 1.35,-0.124 -0.31,1.934 -0.75,2.185 -1.14,0.653 -3.31,-0.509 -3.31,-1.83 0,-0.703 0.53,-0.799 0.91,-1.177"
             style="fill:none;stroke:#ffffff;stroke-width:1.37px"
             id="path3932" />
        </g>
        <g
           transform="matrix(0.35046,0.0890502,-0.0890502,0.35046,530.469,209.889)"
           id="g3938">
          <path
             d="m 1418.91,383.707 c 1.84,-0.893 9.72,5.352 10.38,8.624 0.67,3.296 1.11,7.773 -0.97,10.713 -2.77,3.913 -10.12,4.935 -14.43,4.692 -2.53,-0.143 -6.77,-2.713 -8.22,-4.68 -5.26,-7.149 -0.78,-16.234 8.5,-19.342 2.06,-0.686 2.42,-1.013 4.74,-0.007 z"
             style="fill:#029056"
             id="path3936" />
        </g>
        <g
           transform="matrix(0.35046,0.0890502,-0.0890502,0.35046,530.469,209.889)"
           id="g3942">
          <path
             d="m 1408.71,386.614 c -2.63,3.932 -2.89,8.797 0.19,12.995 1.45,1.967 5.69,4.537 8.22,4.68 3.32,0.187 8.43,-0.374 11.87,-2.422 -0.19,0.413 -0.41,0.807 -0.67,1.177 -2.77,3.913 -10.12,4.935 -14.43,4.692 -2.53,-0.143 -6.77,-2.713 -8.22,-4.68 -4.08,-5.547 -2.3,-12.26 3.04,-16.442 z"
             style="fill:#00673d"
             id="path3940" />
        </g>
        <g
           transform="matrix(0.35046,0.0890502,-0.0890502,0.35046,530.469,209.889)"
           id="g3946">
          <path
             d="m 1419.14,386.315 c 1.35,-0.124 -0.31,1.934 -0.75,2.185 -1.14,0.653 -3.31,-0.509 -3.31,-1.83 0,-0.703 0.53,-0.799 0.91,-1.177"
             style="fill:none;stroke:#ffffff;stroke-width:1.37px"
             id="path3944" />
        </g>
        <g
           transform="matrix(0.35046,0.0890502,-0.0890502,0.35046,512.507,192.671)"
           id="g3950">
          <path
             d="m 1418.91,383.707 c 1.84,-0.893 9.72,5.352 10.38,8.624 0.67,3.296 1.11,7.773 -0.97,10.713 -2.77,3.913 -10.12,4.935 -14.43,4.692 -2.53,-0.143 -6.77,-2.713 -8.22,-4.68 -5.26,-7.149 -0.78,-16.234 8.5,-19.342 2.06,-0.686 2.42,-1.013 4.74,-0.007 z"
             style="fill:#029056"
             id="path3948" />
        </g>
        <g
           transform="matrix(0.35046,0.0890502,-0.0890502,0.35046,512.507,192.671)"
           id="g3954">
          <path
             d="m 1408.71,386.614 c -2.63,3.932 -2.89,8.797 0.19,12.995 1.45,1.967 5.69,4.537 8.22,4.68 3.32,0.187 8.43,-0.374 11.87,-2.422 -0.19,0.413 -0.41,0.807 -0.67,1.177 -2.77,3.913 -10.12,4.935 -14.43,4.692 -2.53,-0.143 -6.77,-2.713 -8.22,-4.68 -4.08,-5.547 -2.3,-12.26 3.04,-16.442 z"
             style="fill:#00673d"
             id="path3952" />
        </g>
        <g
           transform="matrix(0.35046,0.0890502,-0.0890502,0.35046,512.507,192.671)"
           id="g3958">
          <path
             d="m 1419.14,386.315 c 1.35,-0.124 -0.31,1.934 -0.75,2.185 -1.14,0.653 -3.31,-0.509 -3.31,-1.83 0,-0.703 0.53,-0.799 0.91,-1.177"
             style="fill:none;stroke:#ffffff;stroke-width:1.37px"
             id="path3956" />
        </g>
        <g
           transform="matrix(0.525157,0,0,0.525157,266.19,257.962)"
           id="g3962">
          <path
             d="m 1336.94,352.877 c -2.29,1.26 -2.37,4.348 0.04,5.362 5.82,2.447 13.3,5.461 16.55,6.807 1.25,0.518 2.9,0.391 4.17,0.918 3.26,1.351 7.14,2.965 10.49,4.074 8.83,2.924 25.77,1.264 26.01,-0.049 0.12,-0.608 2.37,-0.812 2.99,-0.556 2.54,1.051 5.59,2.14 8.62,2.532 1.62,0.21 12.52,-1.499 13.52,-1.972 0.91,-0.434 0.95,-1.221 1.98,-1.087 2.46,0.319 5.07,1.889 7.58,1.407 4.18,-0.799 8.34,-1.93 11.94,-4.016 1.16,-0.675 4.25,0.566 5.57,0.346 3.93,-0.653 7.76,-1.351 11.29,-2.78 0.51,-0.206 2.36,-2.202 2.6,-2.68 0.13,-0.238 27.41,-15.441 27.35,-15.442 l -1.51,-2.161 c 0.07,-0.005 -14.11,-2.94 -14.27,-3.199 -0.31,-0.522 -2.51,-2.636 -3.1,-2.83 -4.04,-1.348 -8.38,-1.848 -12.8,-2.29 -1.49,-0.15 -4.85,1.482 -6.2,0.808 -4.17,-2.085 -8.89,-3.048 -13.61,-3.638 -2.84,-0.355 -5.62,1.611 -8.35,2.156 -1.14,0.228 -1.24,-0.658 -2.29,-1.078 -1.15,-0.459 -2.56,-0.294 -3.77,-0.404 -1.97,-0.18 -4.12,0.189 -6.07,-0.135 -1.72,-0.288 -3.59,-1.032 -5.38,-0.674 -3.35,0.67 -6.68,2.127 -9.44,3.504 -0.67,0.334 -2.68,-0.336 -3.36,-0.405 -1.9,-0.189 -4.85,-0.742 -6.74,-0.269 -7.43,1.858 -14.93,2.321 -22.37,4.446 -3.8,1.085 -7.78,1.33 -11.32,3.099 -1.37,0.689 -3.22,0.669 -4.58,1.348 -3.23,1.618 -10.31,5.972 -15.54,8.858 z m 4.15,3.655 c 3.25,0.43 6.33,0.871 7.6,1.073 9.87,1.574 80.2,2.389 87.07,1.505 4.79,-0.618 9.62,-2.03 14.43,-2.75 3.71,-0.554 7.32,-3.753 11.04,-3.569 2.46,0.122 15.53,-6.67 12.79,-6.347 -4.14,0.486 -8.9,0.483 -13.07,0.135 -5.43,-0.452 -10.91,-1.684 -16.31,-2.021 -7.72,-0.483 -86.11,5.704 -97.01,8.219 -2.82,0.651 -5.08,2.778 -6.54,3.755 z"
             style="fill:#00673d"
             id="path3960" />
        </g>
        <g
           transform="matrix(0.525157,0,0,0.525157,266.19,257.962)"
           id="g3966">
          <path
             d="m 1468.11,350.268 c -2.86,1.373 -5.83,2.575 -6.88,2.523 -3.72,-0.184 -7.33,3.015 -11.04,3.569 -4.81,0.72 -9.64,2.132 -14.43,2.75 -6.87,0.884 -77.2,0.069 -87.07,-1.505 -0.69,-0.109 -8.11,-1.271 -8.11,-1.271 1.25,0.166 2.57,0.892 3.79,1.728 1.9,1.303 84.52,5.383 91.39,4.499 4.79,-0.618 9.62,-2.029 14.43,-2.75 3.71,-0.554 7.32,-3.753 11.04,-3.569 2.46,0.122 15.61,-9.791 12.87,-9.468 -1.88,0.221 -3.97,3.462 -5.99,3.494 z m -131.17,2.609 c -1.8,0.992 -1.4,1.523 -0.92,1.254 5.24,-2.885 13.23,-5.043 16.46,-6.661 1.36,-0.679 3.21,-0.659 4.58,-1.348 3.54,-1.769 7.52,-2.014 11.32,-3.099 7.44,-2.125 11.45,-3.914 18.89,-5.773 1.89,-0.473 7.32,-0.22 9.22,-0.031 0.68,0.069 3.95,2.654 4.36,2.032 3.6,-5.384 24.19,-5.967 24.66,-2.291 0.15,1.123 1.15,1.307 2.29,1.078 2.73,-0.545 5.51,-2.511 8.35,-2.156 4.72,0.59 9.44,1.553 13.61,3.638 1.35,0.674 4.71,-0.958 6.2,-0.808 4.42,0.442 8.76,0.942 12.8,2.29 0.59,0.195 2.79,2.308 3.1,2.83 0.14,0.227 14.27,-0.252 14.27,-0.252 0.07,-0.005 -14.11,-2.94 -14.27,-3.199 -0.31,-0.522 -2.51,-2.636 -3.1,-2.83 -4.04,-1.348 -8.38,-1.848 -12.8,-2.29 -1.49,-0.15 -4.85,1.482 -6.2,0.808 -4.17,-2.085 -8.89,-3.048 -13.61,-3.638 -2.84,-0.355 -5.62,1.611 -8.35,2.156 -1.14,0.228 -1.24,-0.658 -2.29,-1.078 -1.15,-0.459 -2.56,-0.294 -3.77,-0.404 -1.97,-0.18 -4.12,0.189 -6.07,-0.135 -1.72,-0.288 -3.59,-1.032 -5.38,-0.674 -3.35,0.67 -6.68,2.127 -9.44,3.504 -0.67,0.334 -2.68,-0.336 -3.36,-0.405 -1.9,-0.189 -4.85,-0.742 -6.74,-0.269 -7.43,1.858 -14.93,2.321 -22.37,4.446 -3.8,1.085 -7.78,1.33 -11.32,3.099 -1.37,0.689 -3.22,0.669 -4.58,1.348 -3.23,1.618 -10.31,5.972 -15.54,8.858 z"
             style="fill:#348f6a"
             id="path3964" />
        </g>
        <g
           transform="matrix(0.525157,0,0,0.525157,266.19,257.962)"
           id="g3970">
          <path
             d="m 1495.19,348.654 c 0,0.051 -4.22,-3.616 -4.41,-3.784 -0.32,-0.287 -0.65,-0.562 -0.98,-0.841 -0.8,-0.68 -1.65,-1.412 -2.52,-1.998 -1.08,-0.714 -2.38,-1.671 -3.68,-1.858 -1.02,-0.145 -2.08,0.031 -3.09,0.14 -0.85,0.092 -1.82,0.174 -2.56,0.666 -0.18,0.121 -0.25,0.205 -0.32,0.386 -0.02,0.064 -0.17,0.173 -0.17,0.105 0,-0.156 0.33,0.019 0.46,0.105 0.36,0.241 0.7,0.51 0.94,0.876 0.58,0.866 1.63,1.402 2.56,1.788 0.34,0.141 0.72,0.369 1.09,0.421 0.17,0.025 0.52,0.035 0.52,0.035 0,0 -0.32,0.002 -0.49,0 -0.24,-0.003 -0.47,-0.007 -0.71,0.042 -1.03,0.205 -1.98,0.578 -3,0.764 -0.27,0.05 -0.7,0.172 -0.88,0.351 -0.09,0.088 -0.25,0.28 -0.25,0.28 0,0 0.26,0.114 0.39,0.141 0.28,0.056 0.58,0.22 0.84,0.35 0.68,0.336 1.4,0.49 2.14,0.596 0.26,0.037 0.55,0 0.81,0 0.14,0 0.56,-0.105 0.42,-0.105 -0.51,0 -1.51,0.95 -1.9,1.157 -1.39,0.745 -2.53,1.309 -3.78,2.243 -0.17,0.123 -0.55,0.094 -0.67,0.211 -0.06,0.057 0.8,0.695 0.81,0.701 0.27,0.188 0.55,0.299 0.87,0.35 1.61,0.254 3.3,-0.734 4.6,-1.542 0.98,-0.613 1.69,-1.323 2.59,-2.033 0.49,-0.39 1.08,-0.659 1.54,-1.087 1.63,-1.515 3.51,-1.765 3.73,-1.638 1.18,0.693 3.2,4.168 3.9,4.45"
             style="fill:#2b5041"
             id="path3968" />
        </g>
        <g
           transform="matrix(0.525157,0,0,0.525157,266.19,257.962)"
           id="g3974">
          <path
             d="m 1495.37,348.677 c -0.46,-0.293 -1.66,0.87 -1.44,1.203 0.05,0.068 0.02,0.135 0.09,0.188 0.29,0.216 0.57,0.268 0.86,0.122 0.5,-0.245 1.05,-1.14 0.49,-1.513"
             style="fill:#348f6a"
             id="path3972" />
        </g>
        <g
           transform="matrix(0.373803,-0.0733986,0.0690079,0.351442,460.45,436.078)"
           id="g3978">
          <path
             d="m 1336.94,352.877 c -2.29,1.26 -2.37,4.348 0.04,5.362 5.82,2.447 13.3,5.461 16.55,6.807 1.25,0.518 2.9,0.391 4.17,0.918 3.26,1.351 7.14,2.965 10.49,4.074 8.83,2.924 25.77,1.264 26.01,-0.049 0.12,-0.608 2.37,-0.812 2.99,-0.556 2.54,1.051 5.59,2.14 8.62,2.532 1.62,0.21 12.52,-1.499 13.52,-1.972 0.91,-0.434 0.95,-1.221 1.98,-1.087 2.46,0.319 5.07,1.889 7.58,1.407 4.18,-0.799 8.34,-1.93 11.94,-4.016 1.16,-0.675 4.25,0.566 5.57,0.346 3.93,-0.653 7.76,-1.351 11.29,-2.78 0.51,-0.206 2.36,-2.202 2.6,-2.68 0.13,-0.238 27.41,-15.441 27.35,-15.442 l -1.51,-2.161 c 0.07,-0.005 -14.11,-2.94 -14.27,-3.199 -0.31,-0.522 -2.51,-2.636 -3.1,-2.83 -4.04,-1.348 -8.38,-1.848 -12.8,-2.29 -1.49,-0.15 -4.85,1.482 -6.2,0.808 -4.17,-2.085 -8.89,-3.048 -13.61,-3.638 -2.84,-0.355 -5.62,1.611 -8.35,2.156 -1.14,0.228 -1.24,-0.658 -2.29,-1.078 -1.15,-0.459 -2.56,-0.294 -3.77,-0.404 -1.97,-0.18 -4.12,0.189 -6.07,-0.135 -1.72,-0.288 -3.59,-1.032 -5.38,-0.674 -3.35,0.67 -6.68,2.127 -9.44,3.504 -0.67,0.334 -2.68,-0.336 -3.36,-0.405 -1.9,-0.189 -4.85,-0.742 -6.74,-0.269 -7.43,1.858 -14.93,2.321 -22.37,4.446 -3.8,1.085 -7.78,1.33 -11.32,3.099 -1.37,0.689 -3.22,0.669 -4.58,1.348 -3.23,1.618 -10.31,5.972 -15.54,8.858 z"
             style="fill:#2b5041"
             id="path3976" />
        </g>
        <g
           transform="matrix(0.373803,-0.0733986,0.0690079,0.351442,460.45,436.078)"
           id="g3982">
          <path
             d="m 1336.94,352.877 c -2.29,1.26 -2.37,4.348 0.04,5.362 5.82,2.447 13.3,5.461 16.55,6.807 1.25,0.518 2.9,0.391 4.17,0.918 3.26,1.351 7.14,2.965 10.49,4.074 8.83,2.924 25.77,1.264 26.01,-0.049 0.12,-0.608 2.37,-0.812 2.99,-0.556 2.54,1.051 5.59,2.14 8.62,2.532 1.62,0.21 12.52,-1.499 13.52,-1.972 0.91,-0.434 0.95,-1.221 1.98,-1.087 2.46,0.319 5.07,1.889 7.58,1.407 4.18,-0.799 8.34,-1.93 11.94,-4.016 1.16,-0.675 4.25,0.566 5.57,0.346 3.93,-0.653 7.76,-1.351 11.29,-2.78 0.51,-0.206 2.36,-2.202 2.6,-2.68 0.13,-0.238 27.41,-15.441 27.35,-15.442 l -1.51,-2.161 c 0.07,-0.005 -14.11,-2.94 -14.27,-3.199 -0.31,-0.522 -2.51,-2.636 -3.1,-2.83 -4.04,-1.348 -8.38,-1.848 -12.8,-2.29 -1.49,-0.15 -4.85,1.482 -6.2,0.808 -4.17,-2.085 -8.89,-3.048 -13.61,-3.638 -2.84,-0.355 -5.62,1.611 -8.35,2.156 -1.14,0.228 -1.24,-0.658 -2.29,-1.078 -1.15,-0.459 -2.56,-0.294 -3.77,-0.404 -1.97,-0.18 -4.12,0.189 -6.07,-0.135 -1.72,-0.288 -3.59,-1.032 -5.38,-0.674 -3.35,0.67 -6.68,2.127 -9.44,3.504 -0.67,0.334 -2.68,-0.336 -3.36,-0.405 -1.9,-0.189 -4.85,-0.742 -6.74,-0.269 -7.43,1.858 -14.93,2.321 -22.37,4.446 -3.8,1.085 -7.78,1.33 -11.32,3.099 -1.37,0.689 -3.22,0.669 -4.58,1.348 -3.23,1.618 -10.31,5.972 -15.54,8.858 z"
             style="fill:#00673d"
             id="path3980" />
        </g>
        <g
           transform="matrix(0.373803,-0.0733986,0.0690079,0.351442,460.45,436.078)"
           id="g3986">
          <path
             d="m 1336.94,352.877 c -1.8,0.992 -1.4,1.523 -0.92,1.254 5.24,-2.885 13.23,-5.043 16.46,-6.661 1.36,-0.679 3.21,-0.659 4.58,-1.348 3.54,-1.769 7.52,-2.014 11.32,-3.099 7.44,-2.125 11.45,-3.914 18.89,-5.773 1.89,-0.473 7.32,-0.22 9.22,-0.031 0.68,0.069 3.95,2.654 4.36,2.032 3.6,-5.384 24.19,-5.967 24.66,-2.291 0.15,1.123 1.15,1.307 2.29,1.078 2.73,-0.545 5.51,-2.511 8.35,-2.156 4.72,0.59 9.44,1.553 13.61,3.638 1.35,0.674 4.71,-0.958 6.2,-0.808 4.42,0.442 8.76,0.942 12.8,2.29 0.59,0.195 2.79,2.308 3.1,2.83 0.14,0.227 14.27,-0.252 14.27,-0.252 0.07,-0.005 -14.11,-2.94 -14.27,-3.199 -0.31,-0.522 -2.51,-2.636 -3.1,-2.83 -4.04,-1.348 -8.38,-1.848 -12.8,-2.29 -1.49,-0.15 -4.85,1.482 -6.2,0.808 -4.17,-2.085 -8.89,-3.048 -13.61,-3.638 -2.84,-0.355 -5.62,1.611 -8.35,2.156 -1.14,0.228 -1.24,-0.658 -2.29,-1.078 -1.15,-0.459 -2.56,-0.294 -3.77,-0.404 -1.97,-0.18 -4.12,0.189 -6.07,-0.135 -1.72,-0.288 -3.59,-1.032 -5.38,-0.674 -3.35,0.67 -6.68,2.127 -9.44,3.504 -0.67,0.334 -2.68,-0.336 -3.36,-0.405 -1.9,-0.189 -4.85,-0.742 -6.74,-0.269 -7.43,1.858 -14.93,2.321 -22.37,4.446 -3.8,1.085 -7.78,1.33 -11.32,3.099 -1.37,0.689 -3.22,0.669 -4.58,1.348 -3.23,1.618 -10.31,5.972 -15.54,8.858 z"
             style="fill:#348f6a"
             id="path3984" />
        </g>
        <g
           transform="matrix(0.373803,-0.0733986,0.0690079,0.351442,460.679,436.133)"
           id="g3990">
          <path
             d="m 1495.21,344.916 c 0,0.05 -4.24,0.122 -4.43,-0.046 -0.32,-0.287 -0.65,-0.562 -0.98,-0.841 -0.8,-0.68 -1.65,-1.412 -2.52,-1.998 -1.08,-0.714 -2.38,-1.671 -3.68,-1.858 -1.02,-0.145 -2.08,0.031 -3.09,0.14 -0.85,0.092 -1.82,0.174 -2.56,0.666 -0.18,0.121 -0.25,0.205 -0.32,0.386 -0.02,0.064 -0.17,0.173 -0.17,0.105 0,-0.156 0.33,0.019 0.46,0.105 0.36,0.241 0.7,0.51 0.94,0.876 0.58,0.866 1.63,1.402 2.56,1.788 0.34,0.141 0.72,0.369 1.09,0.421 0.17,0.025 0.52,0.035 0.52,0.035 0,0 -0.32,0.002 -0.49,0 -0.24,-0.003 -0.47,-0.007 -0.71,0.042 -1.03,0.205 -1.98,0.578 -3,0.764 -0.27,0.05 -0.7,0.172 -0.88,0.351 -0.09,0.088 -0.25,0.28 -0.25,0.28 0,0 0.26,0.114 0.39,0.141 0.28,0.056 0.58,0.22 0.84,0.35 0.68,0.336 1.4,0.49 2.14,0.596 0.26,0.037 0.55,0 0.81,0 0.14,0 0.56,-0.105 0.42,-0.105 -0.51,0 -1.51,0.95 -1.9,1.157 -1.39,0.745 -2.53,1.309 -3.78,2.243 -0.17,0.123 -0.55,0.094 -0.67,0.211 -0.06,0.057 0.8,0.695 0.81,0.701 0.27,0.188 0.55,0.299 0.87,0.35 1.61,0.254 3.3,-0.734 4.6,-1.542 0.98,-0.613 1.69,-1.323 2.59,-2.033 0.49,-0.39 1.08,-0.659 1.54,-1.087 1.63,-1.515 3.51,-1.765 3.73,-1.638 1.18,0.693 3.21,0.429 3.92,0.711"
             style="fill:#2b5041"
             id="path3988" />
        </g>
        <g
           transform="matrix(0.525157,0,0,0.525157,266.19,257.962)"
           id="g3994">
          <path
             d="m 1418.91,383.707 c 1.84,-0.893 9.72,5.352 10.38,8.624 0.67,3.296 1.11,7.773 -0.97,10.713 -2.77,3.913 -10.12,4.935 -14.43,4.692 -2.53,-0.143 -6.77,-2.713 -8.22,-4.68 -5.26,-7.149 -0.78,-16.234 8.5,-19.342 2.06,-0.686 2.42,-1.013 4.74,-0.007 z"
             style="fill:#029056"
             id="path3992" />
        </g>
        <g
           transform="matrix(0.525157,0,0,0.525157,266.19,257.962)"
           id="g3998">
          <path
             d="m 1408.71,386.614 c -2.63,3.932 -2.89,8.797 0.19,12.995 1.45,1.967 5.69,4.537 8.22,4.68 3.32,0.187 8.43,-0.374 11.87,-2.422 -0.19,0.413 -0.41,0.807 -0.67,1.177 -2.77,3.913 -10.12,4.935 -14.43,4.692 -2.53,-0.143 -6.77,-2.713 -8.22,-4.68 -4.08,-5.547 -2.3,-12.26 3.04,-16.442 z"
             style="fill:#00673d"
             id="path3996" />
        </g>
        <g
           transform="matrix(0.525157,0,0,0.525157,266.19,257.962)"
           id="g4002">
          <path
             d="m 1419.14,386.315 c 1.35,-0.124 -0.31,1.934 -0.75,2.185 -1.14,0.653 -3.31,-0.509 -3.31,-1.83 0,-0.703 0.53,-0.799 0.91,-1.177"
             style="fill:none;stroke:#ffffff;stroke-width:0.95px"
             id="path4000" />
        </g>
        <g
           transform="matrix(0.508983,0.12933,-0.12933,0.508983,347.121,88.1141)"
           id="g4006">
          <path
             d="m 1418.91,383.707 c 1.84,-0.893 9.72,5.352 10.38,8.624 0.67,3.296 1.11,7.773 -0.97,10.713 -2.77,3.913 -10.12,4.935 -14.43,4.692 -2.53,-0.143 -6.77,-2.713 -8.22,-4.68 -5.26,-7.149 -0.78,-16.234 8.5,-19.342 2.06,-0.686 2.42,-1.013 4.74,-0.007 z"
             style="fill:#029056"
             id="path4004" />
        </g>
        <g
           transform="matrix(0.508983,0.12933,-0.12933,0.508983,347.121,88.1141)"
           id="g4010">
          <path
             d="m 1408.71,386.614 c -2.63,3.932 -2.89,8.797 0.19,12.995 1.45,1.967 5.69,4.537 8.22,4.68 3.32,0.187 8.43,-0.374 11.87,-2.422 -0.19,0.413 -0.41,0.807 -0.67,1.177 -2.77,3.913 -10.12,4.935 -14.43,4.692 -2.53,-0.143 -6.77,-2.713 -8.22,-4.68 -4.08,-5.547 -2.3,-12.26 3.04,-16.442 z"
             style="fill:#00673d"
             id="path4008" />
        </g>
        <g
           transform="matrix(0.508983,0.12933,-0.12933,0.508983,347.121,88.1141)"
           id="g4014">
          <path
             d="m 1419.14,386.315 c 1.35,-0.124 -0.31,1.934 -0.75,2.185 -1.14,0.653 -3.31,-0.509 -3.31,-1.83 0,-0.703 0.53,-0.799 0.91,-1.177"
             style="fill:none;stroke:#ffffff;stroke-width:0.95px"
             id="path4012" />
        </g>
        <g
           transform="matrix(0.449934,0.114326,-0.114326,0.449934,436.215,130.762)"
           id="g4018">
          <path
             d="m 1418.91,383.707 c 1.84,-0.893 9.72,5.352 10.38,8.624 0.67,3.296 1.11,7.773 -0.97,10.713 -2.77,3.913 -10.12,4.935 -14.43,4.692 -2.53,-0.143 -6.77,-2.713 -8.22,-4.68 -5.26,-7.149 -0.78,-16.234 8.5,-19.342 2.06,-0.686 2.42,-1.013 4.74,-0.007 z"
             style="fill:#029056"
             id="path4016" />
        </g>
        <g
           transform="matrix(0.449934,0.114326,-0.114326,0.449934,436.215,130.762)"
           id="g4022">
          <path
             d="m 1408.71,386.614 c -2.63,3.932 -2.89,8.797 0.19,12.995 1.45,1.967 5.69,4.537 8.22,4.68 3.32,0.187 8.43,-0.374 11.87,-2.422 -0.19,0.413 -0.41,0.807 -0.67,1.177 -2.77,3.913 -10.12,4.935 -14.43,4.692 -2.53,-0.143 -6.77,-2.713 -8.22,-4.68 -4.08,-5.547 -2.3,-12.26 3.04,-16.442 z"
             style="fill:#00673d"
             id="path4020" />
        </g>
        <g
           transform="matrix(0.449934,0.114326,-0.114326,0.449934,436.215,130.762)"
           id="g4026">
          <path
             d="m 1419.14,386.315 c 1.35,-0.124 -0.31,1.934 -0.75,2.185 -1.14,0.653 -3.31,-0.509 -3.31,-1.83 0,-0.703 0.53,-0.799 0.91,-1.177"
             style="fill:none;stroke:#ffffff;stroke-width:1.07px"
             id="path4024" />
        </g>
      </g>
    </g>
    <g
       id="path1092-91"
       serif:id="path1092-9"
       transform="matrix(0.19056403,0.11936254,-0.11936254,0.19056403,-55.302542,-29.140945)"
       style="clip-rule:evenodd;fill-rule:evenodd;stroke-linecap:round;stroke-linejoin:round;stroke-miterlimit:1.5">
      <path
         d="m 594.765,243.64 64.022,-10.655 4.876,17.992 37.44,-3.316 6.684,14.027 52.056,3.381 -64.162,8.393 -8.354,-13.363 -31.455,3.252 -9.052,-19.111 z"
         style="fill-rule:nonzero;stroke:#ffffff;stroke-width:2.34px;stroke-linecap:butt;stroke-linejoin:miter;stroke-miterlimit:4"
         id="path4383" />
    </g>
    <g
       id="path1092-92"
       serif:id="path1092-9"
       transform="matrix(0.22340173,0.02556682,-0.02556682,0.22340173,-59.990165,7.1307836)"
       style="clip-rule:evenodd;fill-rule:evenodd;stroke-linecap:round;stroke-linejoin:round;stroke-miterlimit:1.5">
      <path
         d="m 594.765,243.64 64.022,-10.655 4.876,17.992 37.44,-3.316 6.684,14.027 52.056,3.381 -64.162,8.393 -8.354,-13.363 -31.455,3.252 -9.052,-19.111 z"
         style="fill-rule:nonzero;stroke:#ffffff;stroke-width:2.34px;stroke-linecap:butt;stroke-linejoin:miter;stroke-miterlimit:4"
         id="path4386" />
    </g>
    <g
       id="path1092-93"
       serif:id="path1092-9"
       transform="matrix(0.22362213,0.02356189,-0.02356189,0.22362213,-157.38707,57.092054)"
       style="clip-rule:evenodd;fill-rule:evenodd;stroke-linecap:round;stroke-linejoin:round;stroke-miterlimit:1.5">
      <path
         d="m 594.765,243.64 64.022,-10.655 4.876,17.992 37.44,-3.316 6.684,14.027 52.056,3.381 -64.162,8.393 -8.354,-13.363 -31.455,3.252 -9.052,-19.111 z"
         style="fill-rule:nonzero;stroke:#ffffff;stroke-width:2.34px;stroke-linecap:butt;stroke-linejoin:miter;stroke-miterlimit:4"
         id="path4389" />
    </g>
    <g
       transform="matrix(0.16896212,0,0,0.16896212,-97.272867,-28.569445)"
       id="g4436"
       style="clip-rule:evenodd;fill-rule:evenodd;stroke-linecap:round;stroke-linejoin:round;stroke-miterlimit:1.5">
      <g
         transform="translate(-174.885,-102.129)"
         id="g4430">
        <path
           d="m 1730.68,677.781 7.55,-6.3 -9.35,-3.029 c -5.87,-1.901 -17.25,-11.223 -17.25,-11.223 l -4.1,-3.292 -3.42,3.996 c 0,0 -20.68,24.225 -33.48,46.813 -5.82,-11.981 -12.86,-24.249 -12.86,-24.249 l -2.83,-4.922 -4.79,3.049 c 0,0 -10.54,6.747 -13.74,9.574 l -5.09,4.511 5.53,3.965 c 2.19,1.569 5.07,5.172 8.25,9.576 8.2,11.343 17.69,27.942 20.5,34.669 l 4.09,9.791 5.55,-9.05 c 20.22,-33.022 26.48,-39.704 55.44,-63.879 z"
           style="fill:#ffffff"
           id="path4428" />
      </g>
      <g
         transform="translate(-174.885,-102.129)"
         id="g4434">
        <path
           d="m 1727.2,673.615 c -29.56,24.678 -35.95,31.501 -56.59,65.211 -4.14,-9.906 -22.29,-40.613 -30.6,-46.564 3.03,-2.682 13.05,-9.06 13.05,-9.06 0,0 11.74,20.413 17.25,34.031 10.93,-24.23 37.92,-55.772 37.92,-55.772 0,0 12.55,10.072 18.97,12.154 z"
           style="fill:#005922"
           id="path4432" />
      </g>
    </g>
    <g
       transform="matrix(0.16896212,0,0,0.16896212,-139.03399,-28.569445)"
       id="g4446"
       style="clip-rule:evenodd;fill-rule:evenodd;stroke-linecap:round;stroke-linejoin:round;stroke-miterlimit:1.5">
      <g
         transform="translate(-174.885,-102.129)"
         id="g4440">
        <path
           d="m 1730.68,677.781 7.55,-6.3 -9.35,-3.029 c -5.87,-1.901 -17.25,-11.223 -17.25,-11.223 l -4.1,-3.292 -3.42,3.996 c 0,0 -20.68,24.225 -33.48,46.813 -5.82,-11.981 -12.86,-24.249 -12.86,-24.249 l -2.83,-4.922 -4.79,3.049 c 0,0 -10.54,6.747 -13.74,9.574 l -5.09,4.511 5.53,3.965 c 2.19,1.569 5.07,5.172 8.25,9.576 8.2,11.343 17.69,27.942 20.5,34.669 l 4.09,9.791 5.55,-9.05 c 20.22,-33.022 26.48,-39.704 55.44,-63.879 z"
           style="fill:#ffffff"
           id="path4438" />
      </g>
      <g
         transform="translate(-174.885,-102.129)"
         id="g4444">
        <path
           d="m 1727.2,673.615 c -29.56,24.678 -35.95,31.501 -56.59,65.211 -4.14,-9.906 -22.29,-40.613 -30.6,-46.564 3.03,-2.682 13.05,-9.06 13.05,-9.06 0,0 11.74,20.413 17.25,34.031 10.93,-24.23 37.92,-55.772 37.92,-55.772 0,0 12.55,10.072 18.97,12.154 z"
           style="fill:#005922"
           id="path4442" />
      </g>
    </g>
    <g
       transform="matrix(0.16896212,0,0,0.16896212,-153.49754,-66.740882)"
       id="g4456"
       style="clip-rule:evenodd;fill-rule:evenodd;stroke-linecap:round;stroke-linejoin:round;stroke-miterlimit:1.5">
      <g
         transform="translate(-174.885,-102.129)"
         id="g4450">
        <path
           d="m 1730.68,677.781 7.55,-6.3 -9.35,-3.029 c -5.87,-1.901 -17.25,-11.223 -17.25,-11.223 l -4.1,-3.292 -3.42,3.996 c 0,0 -20.68,24.225 -33.48,46.813 -5.82,-11.981 -12.86,-24.249 -12.86,-24.249 l -2.83,-4.922 -4.79,3.049 c 0,0 -10.54,6.747 -13.74,9.574 l -5.09,4.511 5.53,3.965 c 2.19,1.569 5.07,5.172 8.25,9.576 8.2,11.343 17.69,27.942 20.5,34.669 l 4.09,9.791 5.55,-9.05 c 20.22,-33.022 26.48,-39.704 55.44,-63.879 z"
           style="fill:#ffffff"
           id="path4448" />
      </g>
      <g
         transform="translate(-174.885,-102.129)"
         id="g4454">
        <path
           d="m 1727.2,673.615 c -29.56,24.678 -35.95,31.501 -56.59,65.211 -4.14,-9.906 -22.29,-40.613 -30.6,-46.564 3.03,-2.682 13.05,-9.06 13.05,-9.06 0,0 11.74,20.413 17.25,34.031 10.93,-24.23 37.92,-55.772 37.92,-55.772 0,0 12.55,10.072 18.97,12.154 z"
           style="fill:#005922"
           id="path4452" />
      </g>
    </g>
    <g
       transform="matrix(0.16896212,0,0,0.16896212,-145.09313,35.951846)"
       id="g4466"
       style="clip-rule:evenodd;fill-rule:evenodd;stroke-linecap:round;stroke-linejoin:round;stroke-miterlimit:1.5">
      <g
         transform="translate(-174.885,-102.129)"
         id="g4460">
        <path
           d="m 1730.68,677.781 7.55,-6.3 -9.35,-3.029 c -5.87,-1.901 -17.25,-11.223 -17.25,-11.223 l -4.1,-3.292 -3.42,3.996 c 0,0 -20.68,24.225 -33.48,46.813 -5.82,-11.981 -12.86,-24.249 -12.86,-24.249 l -2.83,-4.922 -4.79,3.049 c 0,0 -10.54,6.747 -13.74,9.574 l -5.09,4.511 5.53,3.965 c 2.19,1.569 5.07,5.172 8.25,9.576 8.2,11.343 17.69,27.942 20.5,34.669 l 4.09,9.791 5.55,-9.05 c 20.22,-33.022 26.48,-39.704 55.44,-63.879 z"
           style="fill:#ffffff"
           id="path4458" />
      </g>
      <g
         transform="translate(-174.885,-102.129)"
         id="g4464">
        <path
           d="m 1727.2,673.615 c -29.56,24.678 -35.95,31.501 -56.59,65.211 -4.14,-9.906 -22.29,-40.613 -30.6,-46.564 3.03,-2.682 13.05,-9.06 13.05,-9.06 0,0 11.74,20.413 17.25,34.031 10.93,-24.23 37.92,-55.772 37.92,-55.772 0,0 12.55,10.072 18.97,12.154 z"
           style="fill:#005922"
           id="path4462" />
      </g>
    </g>
    <g
       transform="matrix(0.16896212,0,0,0.16896212,-267.0335,-49.598528)"
       id="g4476"
       style="clip-rule:evenodd;fill-rule:evenodd;stroke-linecap:round;stroke-linejoin:round;stroke-miterlimit:1.5">
      <g
         transform="translate(-174.885,-102.129)"
         id="g4470">
        <path
           d="m 1730.68,677.781 7.55,-6.3 -9.35,-3.029 c -5.87,-1.901 -17.25,-11.223 -17.25,-11.223 l -4.1,-3.292 -3.42,3.996 c 0,0 -20.68,24.225 -33.48,46.813 -5.82,-11.981 -12.86,-24.249 -12.86,-24.249 l -2.83,-4.922 -4.79,3.049 c 0,0 -10.54,6.747 -13.74,9.574 l -5.09,4.511 5.53,3.965 c 2.19,1.569 5.07,5.172 8.25,9.576 8.2,11.343 17.69,27.942 20.5,34.669 l 4.09,9.791 5.55,-9.05 c 20.22,-33.022 26.48,-39.704 55.44,-63.879 z"
           style="fill:#ffffff"
           id="path4468" />
      </g>
      <g
         transform="translate(-174.885,-102.129)"
         id="g4474">
        <path
           d="m 1727.2,673.615 c -29.56,24.678 -35.95,31.501 -56.59,65.211 -4.14,-9.906 -22.29,-40.613 -30.6,-46.564 3.03,-2.682 13.05,-9.06 13.05,-9.06 0,0 11.74,20.413 17.25,34.031 10.93,-24.23 37.92,-55.772 37.92,-55.772 0,0 12.55,10.072 18.97,12.154 z"
           style="fill:#005922"
           id="path4472" />
      </g>
    </g>
    <path
       d="M 128.35559,137.36134 91.68461,154.96143"
       style="clip-rule:evenodd;fill:none;fill-rule:evenodd;stroke:#000000;stroke-width:0.79375px;stroke-linecap:round;stroke-linejoin:round;stroke-miterlimit:1.5"
       id="path4498" />
    <g
       transform="matrix(0.37661585,0.06199346,0.06199346,0.29888656,-350.35555,-550.22749)"
       id="g4502"
       style="clip-rule:evenodd;fill-rule:evenodd;stroke-linecap:round;stroke-linejoin:round;stroke-miterlimit:1.5">
      <path
         d="m 638.443,2214.47 -60.986,-33.75"
         style="fill:none;stroke:#000000;stroke-width:1.98px"
         id="path4500" />
    </g>
    <g
       transform="matrix(0.37661585,0.06199346,0.06199346,0.29888656,-350.35555,-550.22749)"
       id="g4506"
       style="clip-rule:evenodd;fill-rule:evenodd;stroke-linecap:round;stroke-linejoin:round;stroke-miterlimit:1.5">
      <path
         d="m 511.222,2143.39 -44.999,-24.22"
         style="fill:none;stroke:#000000;stroke-width:1.98px"
         id="path4504" />
    </g>
    <path
       d="m 32.611884,62.98697 7.69567,26.51125"
       style="clip-rule:evenodd;fill:none;fill-rule:evenodd;stroke:#000000;stroke-width:0.79375px;stroke-linecap:round;stroke-linejoin:round;stroke-miterlimit:1.5"
       id="path4508" />
    <path
       d="m 46.859431,112.06718 7.342188,25.29416"
       style="clip-rule:evenodd;fill:none;fill-rule:evenodd;stroke:#000000;stroke-width:0.79375px;stroke-linecap:round;stroke-linejoin:round;stroke-miterlimit:1.5"
       id="path4510" />
    <g
       transform="matrix(0.20468669,0.06585003,0.06585003,0.1921883,-230.12122,-337.30432)"
       id="g4514"
       style="clip-rule:evenodd;fill-rule:evenodd;stroke-linecap:round;stroke-linejoin:round;stroke-miterlimit:1.5">
      <path
         d="M 552.333,1847.51 392.3,1977.89"
         style="fill:none;stroke:#000000;stroke-width:3px"
         id="path4512" />
    </g>
    <g
       transform="matrix(0.27904281,-1.1533875e-4,-1.1533875e-4,0.26458333,-151.69038,-434.60277)"
       id="g4518"
       style="clip-rule:evenodd;fill-rule:evenodd;stroke-linecap:round;stroke-linejoin:round;stroke-miterlimit:1.5">
      <path
         d="m 715.977,1800.04 265.69,23.36"
         style="fill:none;stroke:#000000;stroke-width:2.92px"
         id="path4516" />
    </g>
    <path
       d="M 51.067629,54.136658 73.999331,73.215762"
       style="clip-rule:evenodd;fill:none;fill-rule:evenodd;stroke:#000000;stroke-width:0.79375px;stroke-linecap:round;stroke-linejoin:round;stroke-miterlimit:1.5"
       id="path4520" />
    <path
       d="M 95.306756,90.945491 128.35559,118.44364"
       style="clip-rule:evenodd;fill:none;fill-rule:evenodd;stroke:#000000;stroke-width:0.79375px;stroke-linecap:round;stroke-linejoin:round;stroke-miterlimit:1.5"
       id="path4522" />
    <g
       transform="matrix(0.26633223,-0.0025062,-0.00250785,0.26819489,-137.94059,-439.94003)"
       id="g4526"
       style="clip-rule:evenodd;fill-rule:evenodd;stroke-linecap:round;stroke-linejoin:round;stroke-miterlimit:1.5">
      <path
         d="M 1052.63,1876.57 794.439,2173.68"
         style="fill:none;stroke:#000000;stroke-width:3px"
         id="path4524" />
    </g>
    <path
       d="m 141.68001,61.563512 7.12788,33.543875"
       style="clip-rule:evenodd;fill:none;fill-rule:evenodd;stroke:#000000;stroke-width:0.79375px;stroke-linecap:round;stroke-linejoin:round;stroke-miterlimit:1.5"
       id="path4528" />
  </g>
</svg>
