<?xml version="1.0" encoding="utf-8"?>
<!-- Generator: Adobe Illustrator 27.4.1, SVG Export Plug-In . SVG Version: 6.00 Build 0)  -->
<svg version="1.1" id="Layer_1" xmlns="http://www.w3.org/2000/svg" xmlns:xlink="http://www.w3.org/1999/xlink" x="0px" y="0px"
	 viewBox="0 0 401.9 381.3" style="enable-background:new 0 0 401.9 381.3;" xml:space="preserve">
<style type="text/css">
	.st0{fill:#FFFFFF;stroke:#000000;stroke-width:3;stroke-miterlimit:10;}
	.st1{font-family:'Times-Roman';}
	.st2{font-size:28.6465px;}
	.st3{fill:none;stroke:#000000;stroke-width:3;stroke-miterlimit:10;}
</style>
<g>
	<g>
		<circle class="st0" cx="95.7" cy="37.6" r="22"/>
		<text transform="matrix(1 0 0 1 87.3072 45.6876)" class="st1 st2">+</text>
		<circle class="st0" cx="38.9" cy="97.7" r="22"/>
		<text transform="matrix(1 0 0 1 28.2548 105.7244)" class="st1 st2">A</text>
		<circle class="st0" cx="148.8" cy="98.7" r="22"/>
		<text transform="matrix(1 0 0 1 141.2828 112.7249)" class="st1 st2">*</text>
		<line class="st3" x1="52.3" y1="79.1" x2="78.3" y2="53.1"/>
		<line class="st3" x1="136.6" y1="79.1" x2="110.6" y2="53.1"/>
	</g>
	<g>
		<circle class="st0" cx="92" cy="158.7" r="22"/>
		<text transform="matrix(1 0 0 1 84.4962 166.7613)" class="st1 st2">1</text>
		<circle class="st0" cx="203.8" cy="158.7" r="22"/>
		<text transform="matrix(1 0 0 1 195.4247 166.7617)" class="st1 st2">+</text>
		<line class="st3" x1="105.4" y1="140.1" x2="131.4" y2="114.1"/>
		<line class="st3" x1="189.6" y1="140.1" x2="163.6" y2="114.1"/>
	</g>
	<g>
		<circle class="st0" cx="148.9" cy="219.2" r="22"/>
		<text transform="matrix(1 0 0 1 139.0264 227.2572)" class="st1 st2">B</text>
		<circle class="st0" cx="259.8" cy="219.2" r="22"/>
		<text transform="matrix(1 0 0 1 251.3474 227.2576)" class="st1 st2">+</text>
		<line class="st3" x1="162.3" y1="200.6" x2="188.3" y2="174.6"/>
		<line class="st3" x1="246.5" y1="200.6" x2="220.6" y2="174.6"/>
	</g>
	<g>
		<circle class="st0" cx="204.5" cy="280.1" r="22"/>
		<text transform="matrix(1 0 0 1 197.0018 288.131)" class="st1 st2">2</text>
		<circle class="st0" cx="316.3" cy="280.1" r="22"/>
		<text transform="matrix(1 0 0 1 312.029 288.1314)" class="st1 st2">/</text>
		<line class="st3" x1="217.9" y1="261.5" x2="243.9" y2="235.5"/>
		<line class="st3" x1="302.1" y1="261.5" x2="276.1" y2="235.5"/>
	</g>
	<g>
		<circle class="st0" cx="261.1" cy="341.7" r="22"/>
		<text transform="matrix(1 0 0 1 246.4225 349.7608)" class="st1 st2">25</text>
		<circle class="st0" cx="362.9" cy="343.7" r="22"/>
		<text transform="matrix(1 0 0 1 353.037 351.7613)" class="st1 st2">C</text>
		<line class="st3" x1="274.5" y1="323.1" x2="300.5" y2="297.1"/>
		<line class="st3" x1="359.7" y1="322.1" x2="333.7" y2="296.1"/>
	</g>
</g>
</svg>
