<?xml version="1.0" encoding="utf-8"?>
<!-- Generator: Adobe Illustrator 27.4.1, SVG Export Plug-In . SVG Version: 6.00 Build 0)  -->
<svg version="1.1" id="Layer_1" xmlns="http://www.w3.org/2000/svg" xmlns:xlink="http://www.w3.org/1999/xlink" x="0px" y="0px"
	 viewBox="0 0 344.7 224.5" style="enable-background:new 0 0 344.7 224.5;" xml:space="preserve">
<style type="text/css">
	.st0{fill:#FFFFFF;stroke:#000000;stroke-width:3;stroke-miterlimit:10;}
	.st1{font-family:'Times-Roman';}
	.st2{font-size:28.6465px;}
	.st3{fill:none;stroke:#000000;stroke-width:3;stroke-miterlimit:10;}
</style>
<g>
	<g>
		<circle class="st0" cx="85.2" cy="122.8" r="22"/>
		<text transform="matrix(1 0 0 1 76.8285 130.9124)" class="st1 st2">+</text>
		<circle class="st0" cx="173.4" cy="38.6" r="22"/>
		<text transform="matrix(1 0 0 1 165.8617 52.695)" class="st1 st2">*</text>
		<circle class="st0" cx="37.5" cy="185.9" r="22"/>
		<text transform="matrix(1 0 0 1 26.7767 193.9494)" class="st1 st2">A</text>
		<circle class="st0" cx="129.3" cy="185.9" r="22"/>
		<text transform="matrix(1 0 0 1 121.8036 193.9494)" class="st1 st2">1</text>
		<line class="st3" x1="41.8" y1="164.3" x2="67.8" y2="138.3"/>
		<line class="st3" x1="126.1" y1="164.3" x2="100.1" y2="138.3"/>
	</g>
	<g>
		<circle class="st0" cx="263.2" cy="122.8" r="22"/>
		<text transform="matrix(1 0 0 1 254.7563 130.9124)" class="st1 st2">+</text>
		<circle class="st0" cx="215.4" cy="185.9" r="22"/>
		<text transform="matrix(1 0 0 1 205.4946 193.9494)" class="st1 st2">B</text>
		<circle class="st0" cx="307.2" cy="185.9" r="22"/>
		<text transform="matrix(1 0 0 1 297.3388 193.9494)" class="st1 st2">C</text>
		<line class="st3" x1="219.8" y1="164.3" x2="245.8" y2="138.3"/>
		<line class="st3" x1="304" y1="164.3" x2="278" y2="138.3"/>
	</g>
	<line class="st3" x1="94.3" y1="102.7" x2="154.4" y2="49.8"/>
	<line class="st3" x1="253.5" y1="102.7" x2="193.4" y2="49.8"/>
</g>
</svg>
