<?xml version="1.0" encoding="UTF-8"?>
<svg width="3599.1" height="700.34" overflow="hidden" version="1.1" xmlns="http://www.w3.org/2000/svg" xmlns:cc="http://creativecommons.org/ns#" xmlns:dc="http://purl.org/dc/elements/1.1/" xmlns:rdf="http://www.w3.org/1999/02/22-rdf-syntax-ns#">
 <metadata>
  <rdf:RDF>
   <cc:Work rdf:about="">
    <dc:format>image/svg+xml</dc:format>
    <dc:type rdf:resource="http://purl.org/dc/dcmitype/StillImage"/>
   </cc:Work>
  </rdf:RDF>
 </metadata>
 <g transform="translate(-188.74 -17)">
  <path d="m462.28 588.13 342.96-159-3.2927-6.9975-342.96 159zm342.73-150.37 16.209-20.301-26.086-.69183z" style="-inkscape-stroke:none;fill:#999999;font-variation-settings:normal;stop-color:#000000"/>
  <path d="m464.14 145.98 342.96 159-3.2927 6.9975-342.96-159zm342.73 150.37 16.209 20.301-26.086.69183z" style="-inkscape-stroke:none;fill:#000000;font-variation-settings:normal;stop-color:#000000"/>
  <path d="m282.19 115.5c0-52.191 42.309-94.5 94.5-94.5s94.5 42.309 94.5 94.5c0 52.191-42.309 94.5-94.5 94.5s-94.5-42.309-94.5-94.5z" fill="none" fill-rule="evenodd" stroke="#000000" stroke-miterlimit="8" stroke-width="8"/>
  <path d="m242.75 141.5q.39062 1.0742.39062 1.7578.0488.63477-.34179.97656-.39063.3418-1.3184.43946-.87891.0976-2.3926.0976t-2.4414-.0976q-.8789-.0488-1.3672-.19532-.43946-.19531-.6836-.48828-.19531-.29297-.39062-.73242l-5.4199-15.381h-26.27l-5.1758 15.186q-.14648.43945-.39062.78125-.24414.29297-.73242.53711-.43946.19531-1.3184.29297-.83008.0976-2.1973.0976-1.416 0-2.3438-.14648-.87891-.0977-1.2695-.43946-.3418-.34179-.3418-.97656.0488-.68359.43946-1.7578l21.191-58.691q.19531-.53711.48828-.87891.3418-.3418.92774-.53711.63476-.19531 1.5625-.24414.97656-.09766 2.4414-.09766 1.5625 0 2.5879.09766 1.0254.04883 1.6602.24414.63477.19531.97656.58594.3418.3418.53711.87891zm-27.197-51.807h-.0488l-10.889 31.494h21.973z"/>
  <path d="m280.16 618.84c0-52.191 42.309-94.5 94.5-94.5s94.5 42.309 94.5 94.5-42.309 94.5-94.5 94.5-94.5-42.309-94.5-94.5z" fill="none" fill-rule="evenodd" stroke="#000000" stroke-miterlimit="8" stroke-width="8"/>
  <path d="m244.44 627.56q0 2.9785-.78125 5.5176-.73242 2.4902-2.0996 4.4922-1.3672 2.002-3.3203 3.5156-1.9043 1.5137-4.3457 2.5391-2.3926 1.0254-5.1758 1.5625-2.7344.48828-6.2988.48828h-16.504q-1.123 0-2.1484-.73242-.97656-.78125-.97656-2.6856v-56.348q0-1.9043.97656-2.6367 1.0254-.78125 2.1484-.78125h14.355q5.6641 0 9.2773 1.0742 3.6133 1.0742 6.0059 3.125 2.4414 2.0508 3.6621 5.0293 1.2207 2.9785 1.2207 6.7383 0 2.2461-.53711 4.2969t-1.6113 3.8086q-1.0254 1.709-2.6367 3.0762-1.5625 1.3672-3.6133 2.2461 2.5879.48828 4.834 1.8066 2.2461 1.2695 3.9062 3.2715 1.709 2.002 2.6856 4.6875.97656 2.6856.97656 5.9082zm-12.646-28.271q0-2.2949-.63477-4.1504-.63476-1.8555-2.002-3.125-1.3672-1.3184-3.5644-2.002-2.1973-.68359-5.8106-.68359h-8.6914v20.459h9.5703q3.2715 0 5.2734-.83008 2.002-.8789 3.3203-2.2949 1.3184-1.4648 1.9043-3.3691.63477-1.9531.63477-4.0039zm3.8086 28.76q0-2.832-.92773-4.9805-.87891-2.1484-2.6367-3.6133-1.709-1.4648-4.3457-2.1973-2.5879-.78125-6.543-.78125h-10.059v22.266h12.207q2.8809 0 5.0293-.6836 2.1484-.68359 3.7598-2.002 1.6602-1.3672 2.5879-3.3691.92773-2.002.92773-4.6387z"/>
  <path d="m810.38 365.5c0-52.191 42.085-94.5 94-94.5s94 42.309 94 94.5-42.085 94.5-94 94.5-94-42.309-94-94.5z" fill="none" fill-rule="evenodd" stroke="#000000" stroke-miterlimit="8" stroke-width="8" style="-inkscape-stroke:none;fill:#ffcc00;font-variation-settings:normal;stop-color:#000000;stroke-miterlimit:8;stroke-width:8;stroke:#000000"/>
  <path d="m368.95 114.65q0 6.2313-1.4685 11.232-1.4685 5.0009-4.4056 8.5333-2.8974 3.4927-7.3029 5.3978-4.4056 1.8654-10.28 1.8654-5.7947 0-10.042-1.7067-4.2071-1.7464-6.9854-5.0406-2.7386-3.2942-4.088-8.1761-1.3495-4.8818-1.3495-11.232 0-6.0726 1.4685-11.034 1.4685-4.9612 4.4056-8.4142 2.937-3.4927 7.3426-5.3581 4.4056-1.9051 10.28-1.9051 5.6756 0 9.8828 1.7067 4.2071 1.7067 6.9854 5.0009 2.818 3.2546 4.1674 8.0967 1.3892 4.8025 1.3892 11.034zm-7.1839.47628q0-4.3659-.7938-8.0967-.75411-3.7705-2.5798-6.5091-1.786-2.7783-4.8025-4.3262-3.0164-1.5479-7.4617-1.5479-4.4453 0-7.4617 1.667-3.0164 1.667-4.9215 4.4453-1.8654 2.7783-2.6989 6.5091-.79379 3.6912-.79379 7.7792 0 4.5246.7541 8.3349.75411 3.8102 2.5402 6.5885 1.786 2.7386 4.7628 4.2865 3.0164 1.5082 7.5411 1.5082 4.485 0 7.5411-1.667 3.0561-1.667 4.9215-4.485 1.8654-2.8577 2.6592-6.5885.7938-3.7308.7938-7.8983z" style="stop-color:#000000;stroke-width:.81285"/>
  <path d="m409.59 139.93q0 .31752-.15877.55566-.11908.19846-.47628.3572-.3572.15878-.95255.23816-.55566.0794-1.3892.0794-.91287 0-1.5082-.0794-.55566-.0794-.91287-.23816-.31752-.15877-.43659-.3572-.11907-.23813-.11907-.55566v-4.7231q-3.0561 3.3736-6.0329 4.9216-2.9767 1.5479-6.0329 1.5479-3.5721 0-6.0329-1.1907-2.4211-1.1907-3.9293-3.2149-1.5082-2.0639-2.183-4.7628-.63504-2.7386-.63504-6.6282v-21.671q0-.31751.11908-.51596.15877-.23813.55566-.3969.3969-.19847 1.0319-.23813.63503-.0794 1.5876-.0794t1.5876.0794q.63503.0397.99224.23813.3969.15877.55566.3969.15877.19846.15877.51596v20.797q0 3.1355.43659 5.0406.47628 1.8654 1.3891 3.2149.95256 1.3098 2.3814 2.0639 1.4288.71442 3.334.71442 2.4608 0 4.8818-1.7464 2.4608-1.7464 5.1994-5.12v-24.965q0-.31751.11908-.51596.15877-.23813.55566-.3969.39689-.19847.99224-.23813.63504-.0794 1.6273-.0794.95256 0 1.5876.0794.63504.0397.99225.23813.35721.15877.51597.3969.19846.19846.19846.51596z" style="stop-color:#000000;stroke-width:.81285"/>
  <path d="m428.25 139.93q0 .31752-.15877.55566-.15877.19846-.51597.3572-.35721.15878-.99224.23816-.63504.0794-1.6273.0794-.95256 0-1.5876-.0794-.63504-.0794-1.0319-.23816-.35721-.15877-.51597-.3572-.11908-.23813-.11908-.55566v-35.721q0-.27781.11908-.51596.15877-.23813.51597-.3969.3969-.15877 1.0319-.23813.63503-.0794 1.5876-.0794.99225 0 1.6273.0794.63503.0794.99224.23813.35721.15877.51597.3969.15877.23815.15877.51596zm.75411-47.787q0 2.302-.87318 3.1355t-3.2149.83349q-2.302 0-3.1752-.7938-.83348-.83349-.83348-3.0958 0-2.302.87317-3.1355.87318-.83348 3.2149-.83348 2.302 0 3.1355.83348.87318.7938.87318 3.0561z" style="stop-color:#000000;stroke-width:.81285"/>
  <path d="m896.64 364.65q0 6.2313-1.4685 11.232-1.4685 5.0009-4.4056 8.5333-2.8974 3.4927-7.3029 5.3978-4.4056 1.8654-10.28 1.8654-5.7947 0-10.042-1.7067-4.2071-1.7464-6.9854-5.0406-2.7386-3.2942-4.088-8.1761-1.3495-4.8818-1.3495-11.232 0-6.0726 1.4685-11.034 1.4685-4.9612 4.4056-8.4142 2.937-3.4927 7.3426-5.3581 4.4056-1.9051 10.28-1.9051 5.6756 0 9.8828 1.7067 4.2071 1.7067 6.9854 5.0009 2.818 3.2546 4.1674 8.0967 1.3892 4.8025 1.3892 11.034zm-7.1839.47628q0-4.3659-.7938-8.0967-.75411-3.7705-2.5798-6.5091-1.786-2.7783-4.8025-4.3262-3.0164-1.5479-7.4617-1.5479-4.4453 0-7.4617 1.667-3.0164 1.667-4.9215 4.4453-1.8654 2.7783-2.6989 6.5091-.79379 3.6912-.79379 7.7792 0 4.5246.7541 8.3349.75411 3.8102 2.5402 6.5885 1.786 2.7386 4.7628 4.2865 3.0164 1.5082 7.5411 1.5082 4.485 0 7.5411-1.667 3.0561-1.667 4.9215-4.485 1.8654-2.8577 2.6592-6.5885.7938-3.7308.7938-7.8983z" style="stop-color:#000000;stroke-width:.81285"/>
  <path d="m937.28 389.93q0 .31752-.15877.55566-.11908.19846-.47628.3572-.3572.15878-.95255.23816-.55566.0794-1.3892.0794-.91287 0-1.5082-.0794-.55566-.0794-.91287-.23816-.31752-.15877-.43659-.3572-.11907-.23813-.11907-.55566v-4.7231q-3.0561 3.3736-6.0329 4.9216-2.9767 1.5479-6.0329 1.5479-3.5721 0-6.0329-1.1907-2.4211-1.1907-3.9293-3.2149-1.5082-2.0639-2.183-4.7628-.63504-2.7386-.63504-6.6282v-21.671q0-.31751.11908-.51596.15877-.23813.55566-.3969.3969-.19847 1.0319-.23813.63503-.0794 1.5876-.0794t1.5876.0794q.63503.0397.99224.23813.3969.15877.55566.3969.15877.19846.15877.51596v20.797q0 3.1355.43659 5.0406.47628 1.8654 1.3891 3.2149.95256 1.3098 2.3814 2.0639 1.4288.71442 3.334.71442 2.4608 0 4.8818-1.7464 2.4608-1.7464 5.1994-5.12v-24.965q0-.31751.11908-.51596.15877-.23813.55566-.3969.39689-.19847.99224-.23813.63504-.0794 1.6273-.0794.95256 0 1.5876.0794.63504.0397.99225.23813.35721.15877.51597.3969.19846.19846.19846.51596z" style="stop-color:#000000;stroke-width:.81285"/>
  <path d="m955.94 389.93q0 .31752-.15877.55566-.15877.19846-.51597.3572-.35721.15878-.99224.23816-.63504.0794-1.6273.0794-.95256 0-1.5876-.0794-.63504-.0794-1.0319-.23816-.35721-.15877-.51597-.3572-.11908-.23813-.11908-.55566v-35.721q0-.27781.11908-.51596.15877-.23813.51597-.3969.3969-.15877 1.0319-.23813.63503-.0794 1.5876-.0794.99225 0 1.6273.0794.63503.0794.99224.23813.35721.15877.51597.3969.15877.23815.15877.51596zm.75411-47.787q0 2.302-.87318 3.1355-.87318.83348-3.2149.83348-2.302 0-3.1752-.79379-.83348-.83349-.83348-3.0958 0-2.302.87317-3.1355.87318-.83349 3.2149-.83349 2.302 0 3.1355.83349.87318.79379.87318 3.0561z" style="stop-color:#000000;stroke-width:.81285"/>
  <path d="m352.69 639.98q0 .79379-.27783 1.3494-.23814.55566-.67472.91287-.3969.35721-.91287.51596-.51597.15877-1.0319.15877h-2.1829q-1.0319 0-1.8257-.19843-.75411-.23815-1.4685-.7938-.67472-.59534-1.3891-1.5876-.67473-.99225-1.5082-2.5402l-16.193-29.212q-1.2701-2.2623-2.5798-4.7231-1.2701-2.5005-2.3814-4.8422h-.0794q.0794 2.8577.11907 5.8344.0397 2.9767.0397 5.9138v30.998q0 .27781-.15876.55565-.15876.23816-.55566.3969-.35721.11908-.99224.19843-.59535.11908-1.5479.11908t-1.5876-.11908q-.59535-.0794-.95256-.19843-.35721-.15877-.51597-.3969-.15876-.27781-.15876-.55565v-47.39q0-1.5876.87318-2.2623.87318-.67472 1.9051-.67472h3.2546q1.151 0 1.9051.19846.79379.19846 1.3891.67473.63504.43659 1.1907 1.2701.59534.7938 1.2701 2.0242l12.463 22.544q1.151 2.0639 2.2226 4.0484 1.0716 1.9448 2.0639 3.8499.99225 1.9051 1.9448 3.7705.99224 1.8257 1.9448 3.6912h.0397q-.0794-3.1355-.11907-6.5091 0-3.4133 0-6.5488v-27.862q0-.27781.15876-.51596.15876-.23813.51597-.3969.39689-.19846.99224-.27782.63504-.0794 1.6273-.0794.87317 0 1.5082.0794t.99225.27782q.35721.15877.51597.3969.15875.23815.15875.51596z" style="stop-color:#000000;stroke-width:.81285"/>
  <path d="m398.81 623.54q0 4.3659-1.151 8.057-1.151 3.6515-3.453 6.3107-2.2623 2.6592-5.7154 4.1674-3.4133 1.4685-7.938 1.4685-4.4056 0-7.6998-1.3098-3.2546-1.3098-5.4375-3.8102t-3.2546-6.0726q-1.0716-3.5721-1.0716-8.0967 0-4.3659 1.1113-8.0174 1.151-3.6912 3.4133-6.3504 2.302-2.6592 5.7153-4.1277 3.4133-1.4685 7.9777-1.4685 4.4056 0 7.6601 1.3098 3.2943 1.3098 5.4772 3.8102 2.183 2.5005 3.2546 6.0726 1.1113 3.5721 1.1113 8.057zm-6.906.43659q0-2.8974-.55565-5.4772-.51597-2.5798-1.7464-4.5246-1.2304-1.9448-3.334-3.0561-2.1036-1.151-5.2391-1.151-2.8974 0-5.0009 1.0319-2.0639 1.0319-3.4133 2.937-1.3494 1.8654-2.0242 4.4453-.63504 2.5798-.63504 5.636 0 2.937.51597 5.5169.55566 2.5798 1.786 4.5246 1.2701 1.9051 3.3736 3.0561 2.1036 1.1113 5.2391 1.1113 2.8577 0 4.9612-1.0319 2.1036-1.0319 3.453-2.8974 1.3495-1.8654 1.9845-4.4453.63503-2.5798.63503-5.6756z" style="stop-color:#000000;stroke-width:.81285"/>
  <path d="m439.21 641.8q0 .31752-.15877.55566-.15877.19846-.51597.3572-.35721.15878-.99225.23816-.63504.0794-1.5876.0794-.99225 0-1.6273-.0794t-.99225-.23816q-.3572-.15877-.51596-.3572-.15877-.23813-.15877-.55566v-20.917q0-3.0561-.47628-4.9215t-1.3892-3.2149q-.91286-1.3494-2.3814-2.0639-1.4288-.71442-3.334-.71442-2.4608 0-4.9215 1.7464-2.4608 1.7464-5.1597 5.12v24.965q0 .31752-.15877.55566-.15877.19846-.51597.3572-.35721.15878-.99225.23816-.63503.0794-1.6273.0794-.95256 0-1.5876-.0794-.63503-.0794-1.0319-.23816-.35721-.15877-.51597-.3572-.11908-.23813-.11908-.55566v-35.721q0-.31751.11908-.51596.11908-.23813.47628-.3969.35721-.19847.91287-.23813.55565-.0794 1.4685-.0794.87318 0 1.4288.0794.59535.0397.91287.23813.31752.15877.43659.3969.15877.19846.15877.51596v4.7231q3.0164-3.3736 5.9932-4.9215 3.0164-1.5876 6.0726-1.5876 3.5721 0 5.9932 1.2304 2.4608 1.1907 3.969 3.2149 1.5082 2.0242 2.1432 4.7628.67473 2.6989.67473 6.5091z" style="stop-color:#000000;stroke-width:.81285"/>
  <path d="m1390.8 588.13 342.96-159-3.2928-6.9975-342.96 159zm342.73-150.37 16.209-20.301-26.086-.69183z" style="-inkscape-stroke:none;fill:#000000;font-variation-settings:normal;stop-color:#000000"/>
  <path d="m1392.6 145.98 342.96 159-3.2928 6.9975-342.96-159zm342.73 150.37 16.209 20.301-26.086.69183z" style="-inkscape-stroke:none;fill:#000000;font-variation-settings:normal;stop-color:#000000"/>
  <path d="m1210.7 115.5c0-52.191 42.309-94.5 94.5-94.5s94.5 42.309 94.5 94.5c0 52.191-42.309 94.5-94.5 94.5s-94.5-42.309-94.5-94.5z" fill="none" fill-rule="evenodd" stroke="#000000" stroke-miterlimit="8" stroke-width="8"/>
  <path d="m1171.2 141.5q.3906 1.0742.3906 1.7578.049.63477-.3418.97657-.3906.34179-1.3184.43945-.8789.0977-2.3926.0977-1.5136 0-2.4414-.0977-.8789-.0488-1.3672-.19531-.4394-.19531-.6835-.48828-.1954-.29297-.3907-.73243l-5.4199-15.381h-26.27l-5.1758 15.186q-.1465.43946-.3906.78125-.2442.29297-.7325.53711-.4394.19531-1.3183.29297-.8301.0977-2.1973.0977-1.416 0-2.3437-.14649-.8789-.0976-1.2696-.43945-.3418-.3418-.3418-.97656.049-.6836.4395-1.7578l21.191-58.691q.1953-.53711.4883-.87891.3418-.3418.9277-.53711.6348-.19531 1.5625-.24414.9766-.09766 2.4414-.09766 1.5625 0 2.5879.09766 1.0254.04883 1.6602.24414.6347.19531.9765.58594.3418.3418.5371.87891zm-27.197-51.807h-.049l-10.889 31.494h21.973z"/>
  <path d="m1208.6 618.84c0-52.191 42.309-94.5 94.5-94.5s94.5 42.309 94.5 94.5-42.309 94.5-94.5 94.5-94.5-42.309-94.5-94.5z" fill="none" fill-rule="evenodd" stroke="#000000" stroke-miterlimit="8" stroke-width="8"/>
  <path d="m1172.9 627.56q0 2.9785-.7812 5.5176-.7325 2.4902-2.0996 4.4922-1.3672 2.002-3.3204 3.5156-1.9043 1.5137-4.3457 2.5391-2.3925 1.0254-5.1757 1.5625-2.7344.48828-6.2989.48828h-16.504q-1.123 0-2.1484-.73242-.9766-.78125-.9766-2.6856v-56.348q0-1.9043.9766-2.6367 1.0254-.78125 2.1484-.78125h14.356q5.6641 0 9.2773 1.0742 3.6133 1.0742 6.0059 3.125 2.4414 2.0508 3.6621 5.0293 1.2207 2.9785 1.2207 6.7383 0 2.2461-.5371 4.2969t-1.6113 3.8086q-1.0254 1.709-2.6368 3.0762-1.5625 1.3672-3.6132 2.2461 2.5879.48828 4.834 1.8066 2.246 1.2695 3.9062 3.2715 1.709 2.002 2.6855 4.6875.9766 2.6856.9766 5.9082zm-12.646-28.271q0-2.2949-.6347-4.1504-.6348-1.8555-2.002-3.125-1.3672-1.3184-3.5644-2.002-2.1973-.6836-5.8106-.6836h-8.6914v20.459h9.5703q3.2715 0 5.2735-.83008 2.0019-.87891 3.3203-2.2949 1.3183-1.4648 1.9043-3.3691.6347-1.9531.6347-4.0039zm3.8086 28.76q0-2.832-.9277-4.9805-.8789-2.1484-2.6367-3.6133-1.709-1.4648-4.3457-2.1973-2.5879-.78125-6.543-.78125h-10.059v22.266h12.207q2.8809 0 5.0293-.6836 2.1485-.68359 3.7598-2.002 1.6602-1.3672 2.5879-3.3691t.9277-4.6387z"/>
  <path d="m1738.9 365.5c0-52.191 42.085-94.5 94-94.5s94 42.309 94 94.5-42.085 94.5-94 94.5-94-42.309-94-94.5z" fill="none" fill-rule="evenodd" stroke="#000000" stroke-miterlimit="8" stroke-width="8" style="-inkscape-stroke:none;fill:#808080;font-variation-settings:normal;stop-color:#000000;stroke-miterlimit:8;stroke-width:8;stroke:#000000"/>
  <path d="m1297.4 114.65q0 6.2313-1.4686 11.232-1.4685 5.0009-4.4055 8.5333-2.8974 3.4927-7.303 5.3978-4.4055 1.8654-10.28 1.8654-5.7948 0-10.042-1.7067-4.2071-1.7464-6.9854-5.0406-2.7386-3.2942-4.0881-8.1761-1.3494-4.8818-1.3494-11.232 0-6.0726 1.4685-11.034 1.4685-4.9612 4.4056-8.4142 2.937-3.4927 7.3426-5.3581 4.4056-1.9051 10.28-1.9051 5.6756 0 9.8828 1.7067 4.2071 1.7067 6.9854 5.0009 2.818 3.2546 4.1674 8.0967 1.3892 4.8025 1.3892 11.034zm-7.1839.47628q0-4.3659-.7938-8.0967-.7541-3.7705-2.5798-6.5091-1.7861-2.7783-4.8025-4.3262-3.0164-1.5479-7.4617-1.5479t-7.4617 1.667q-3.0164 1.667-4.9215 4.4453-1.8655 2.7783-2.699 6.5091-.7938 3.6912-.7938 7.7792 0 4.5246.7542 8.3349.7541 3.8102 2.5401 6.5885 1.786 2.7386 4.7628 4.2865 3.0164 1.5082 7.5411 1.5082 4.4849 0 7.541-1.667 3.0562-1.667 4.9216-4.485 1.8654-2.8577 2.6592-6.5885.7938-3.7308.7938-7.8983z" style="stop-color:#000000;stroke-width:.81285"/>
  <path d="m1338.1 139.93q0 .31752-.1588.55566-.1191.19846-.4763.3572-.3572.15878-.9525.23816-.5557.0794-1.3892.0794-.9128 0-1.5082-.0794-.5556-.0794-.9129-.23816-.3175-.15877-.4365-.3572-.1191-.23813-.1191-.55566v-4.7231q-3.0561 3.3736-6.0329 4.9216-2.9767 1.5479-6.0328 1.5479-3.5721 0-6.0329-1.1907-2.4211-1.1907-3.9293-3.2149-1.5082-2.0639-2.1829-4.7628-.6351-2.7386-.6351-6.6282v-21.671q0-.31751.1191-.51596.1588-.23813.5557-.3969.3969-.19847 1.0319-.23813.635-.0794 1.5876-.0794.9525 0 1.5876.0794.635.0397.9922.23813.3969.15877.5557.3969.1588.19846.1588.51596v20.797q0 3.1355.4366 5.0406.4762 1.8654 1.3891 3.2149.9526 1.3098 2.3814 2.0639 1.4288.71442 3.3339.71442 2.4608 0 4.8819-1.7464 2.4608-1.7464 5.1994-5.12v-24.965q0-.31751.119-.51596.1588-.23813.5557-.3969.3969-.19847.9922-.23813.6351-.0794 1.6273-.0794.9526 0 1.5876.0794.6351.0397.9923.23813.3572.15877.5159.3969.1985.19846.1985.51596z" style="stop-color:#000000;stroke-width:.81285"/>
  <path d="m1356.7 139.93q0 .31752-.1588.55566-.1587.19846-.5159.3572-.3572.15878-.9923.23816-.635.0794-1.6273.0794-.9525 0-1.5876-.0794-.635-.0794-1.0319-.23816-.3572-.15877-.516-.3572-.119-.23813-.119-.55566v-35.721q0-.27781.119-.51596.1588-.23813.516-.3969.3969-.15877 1.0319-.23813.6351-.0794 1.5876-.0794.9923 0 1.6273.0794.6351.0794.9923.23813.3572.15877.5159.3969.1588.23815.1588.51596zm.7541-47.787q0 2.302-.8732 3.1355-.8731.83349-3.2148.83349-2.3021 0-3.1752-.7938-.8335-.83349-.8335-3.0958 0-2.302.8732-3.1355.8731-.83348 3.2148-.83348 2.3021 0 3.1355.83348.8732.7938.8732 3.0561z" style="stop-color:#000000;stroke-width:.81285"/>
  <path d="m1810.9 386.64q0 .79379-.2778 1.3494-.2381.55566-.6747.91287-.3969.35721-.9129.51596-.516.15877-1.0319.15877h-2.183q-1.0319 0-1.8257-.19843-.7541-.23815-1.4685-.7938-.6748-.59534-1.3892-1.5876-.6747-.99225-1.5082-2.5402l-16.193-29.212q-1.2701-2.2623-2.5799-4.7231-1.2701-2.5005-2.3814-4.8422h-.079q.079 2.8577.1191 5.8344.04 2.9767.04 5.9138v30.998q0 .27781-.1588.55565-.1587.23816-.5556.3969-.3572.11908-.9923.19843-.5953.11908-1.5479.11908-.9525 0-1.5876-.11908-.5953-.0794-.9525-.19843-.3572-.15877-.516-.3969-.1587-.27781-.1587-.55565v-47.39q0-1.5876.8731-2.2623.8732-.67472 1.9051-.67472h3.2546q1.151 0 1.9051.19846.7938.19846 1.3892.67473.635.43659 1.1907 1.2701.5953.7938 1.27 2.0242l12.463 22.544q1.151 2.0639 2.2226 4.0484 1.0716 1.9448 2.0639 3.8499.9922 1.9051 1.9448 3.7705.9922 1.8257 1.9448 3.6912h.04q-.079-3.1355-.1191-6.5091 0-3.4133 0-6.5488v-27.862q0-.27781.1587-.51596.1588-.23813.516-.3969.3969-.19846.9923-.27782.635-.0794 1.6272-.0794.8732 0 1.5083.0794.635.0794.9922.27782.3572.15877.516.3969.1587.23815.1587.51596z" style="fill:#ffffff;stop-color:#000000;stroke-width:.81285"/>
  <path d="m1857 370.21q0 4.3659-1.151 8.057-1.151 3.6515-3.453 6.3107-2.2623 2.6592-5.7153 4.1674-3.4133 1.4685-7.938 1.4685-4.4056 0-7.6998-1.3098-3.2546-1.3098-5.4375-3.8102-2.183-2.5005-3.2546-6.0726t-1.0716-8.0967q0-4.3659 1.1113-8.0174 1.151-3.6912 3.4133-6.3504 2.302-2.6592 5.7154-4.1277 3.4133-1.4685 7.9776-1.4685 4.4056 0 7.6602 1.3098 3.2942 1.3098 5.4772 3.8102 2.1829 2.5005 3.2545 6.0726 1.1113 3.5721 1.1113 8.057zm-6.906.43659q0-2.8974-.5556-5.4772-.516-2.5798-1.7464-4.5246-1.2304-1.9448-3.3339-3.0561-2.1036-1.151-5.2391-1.151-2.8974 0-5.0009 1.0319-2.0639 1.0319-3.4134 2.937-1.3494 1.8654-2.0241 4.4453-.6351 2.5798-.6351 5.636 0 2.937.516 5.5169.5556 2.5798 1.786 4.5246 1.2701 1.9051 3.3737 3.0561 2.1035 1.1113 5.239 1.1113 2.8577 0 4.9613-1.0319 2.1035-1.0319 3.453-2.8974 1.3494-1.8654 1.9845-4.4453.635-2.5798.635-5.6756z" style="fill:#ffffff;stop-color:#000000;stroke-width:.81285"/>
  <path d="m1897.4 388.46q0 .31752-.1587.55566-.1588.19846-.516.3572-.3572.15878-.9923.23816-.635.0794-1.5876.0794-.9922 0-1.6272-.0794-.6351-.0794-.9923-.23816-.3572-.15877-.516-.3572-.1587-.23813-.1587-.55566v-20.917q0-3.0561-.4763-4.9215t-1.3891-3.2149q-.9129-1.3494-2.3814-2.0639-1.4289-.71442-3.334-.71442-2.4608 0-4.9215 1.7464-2.4608 1.7464-5.1597 5.12v24.965q0 .31752-.1588.55566-.1588.19846-.5159.3572-.3573.15878-.9923.23816-.635.0794-1.6273.0794-.9525 0-1.5876-.0794-.635-.0794-1.0319-.23816-.3572-.15877-.516-.3572-.1191-.23813-.1191-.55566v-35.721q0-.31751.1191-.51596.1191-.23813.4763-.3969.3572-.19847.9129-.23813.5556-.0794 1.4685-.0794.8732 0 1.4288.0794.5954.0397.9129.23813.3175.15877.4366.3969.1587.19846.1587.51596v4.7231q3.0165-3.3736 5.9932-4.9215 3.0164-1.5876 6.0726-1.5876 3.5721 0 5.9931 1.2304 2.4608 1.1907 3.969 3.2149 1.5082 2.0242 2.1433 4.7628.6747 2.6989.6747 6.5091z" style="fill:#ffffff;stop-color:#000000;stroke-width:.81285"/>
  <path d="m1295.4 617.98q0 6.2313-1.4686 11.232-1.4685 5.0009-4.4055 8.5333-2.8974 3.4927-7.303 5.3978-4.4055 1.8654-10.28 1.8654-5.7948 0-10.042-1.7067-4.2071-1.7464-6.9854-5.0406-2.7386-3.2942-4.0881-8.1761-1.3494-4.8818-1.3494-11.232 0-6.0726 1.4685-11.034t4.4056-8.4142q2.937-3.4927 7.3426-5.3581 4.4056-1.9051 10.28-1.9051 5.6756 0 9.8828 1.7067 4.2071 1.7067 6.9854 5.0009 2.818 3.2546 4.1674 8.0967 1.3892 4.8025 1.3892 11.034zm-7.1839.47628q0-4.3659-.7938-8.0967-.7541-3.7705-2.5798-6.5091-1.7861-2.7783-4.8025-4.3262-3.0164-1.5479-7.4617-1.5479t-7.4617 1.667q-3.0164 1.667-4.9215 4.4453-1.8655 2.7783-2.699 6.5091-.7938 3.6912-.7938 7.7792 0 4.5246.7542 8.3349.7541 3.8102 2.5401 6.5885 1.786 2.7386 4.7628 4.2865 3.0164 1.5082 7.5411 1.5082 4.4849 0 7.541-1.667 3.0562-1.667 4.9216-4.485 1.8654-2.8577 2.6592-6.5885.7938-3.7308.7938-7.8983z" style="stop-color:#000000;stroke-width:.81285"/>
  <path d="m1336 643.27q0 .31752-.1588.55566-.1191.19846-.4763.3572-.3572.15878-.9525.23816-.5557.0794-1.3892.0794-.9128 0-1.5082-.0794-.5556-.0794-.9129-.23816-.3175-.15877-.4365-.3572-.1191-.23813-.1191-.55566v-4.7231q-3.0561 3.3736-6.0329 4.9216-2.9767 1.5479-6.0328 1.5479-3.5721 0-6.0329-1.1907-2.4211-1.1907-3.9293-3.2149-1.5082-2.0639-2.1829-4.7628-.6351-2.7386-.6351-6.6282v-21.671q0-.31751.1191-.51596.1588-.23813.5557-.3969.3969-.19847 1.0319-.23813.635-.0794 1.5876-.0794.9525 0 1.5876.0794.635.0397.9922.23813.3969.15877.5557.3969.1588.19846.1588.51596v20.797q0 3.1355.4366 5.0406.4762 1.8654 1.3891 3.2149.9526 1.3098 2.3814 2.0639 1.4288.71442 3.3339.71442 2.4608 0 4.8819-1.7464 2.4608-1.7464 5.1994-5.12v-24.965q0-.31751.119-.51596.1588-.23813.5557-.3969.3969-.19847.9922-.23813.6351-.0794 1.6273-.0794.9526 0 1.5876.0794.6351.0397.9923.23813.3572.15877.5159.3969.1985.19846.1985.51596z" style="stop-color:#000000;stroke-width:.81285"/>
  <path d="m1354.7 643.27q0 .31752-.1588.55566-.1587.19846-.5159.3572-.3572.15878-.9923.23816-.635.0794-1.6273.0794-.9525 0-1.5876-.0794-.635-.0794-1.0319-.23816-.3572-.15877-.516-.3572-.119-.23813-.119-.55566v-35.721q0-.27781.119-.51596.1588-.23813.516-.3969.3969-.15877 1.0319-.23813.6351-.0794 1.5876-.0794.9923 0 1.6273.0794.6351.0794.9923.23813.3572.15877.5159.3969.1588.23815.1588.51596zm.7541-47.787q0 2.302-.8732 3.1355-.8731.83348-3.2148.83348-2.3021 0-3.1752-.79379-.8335-.83349-.8335-3.0958 0-2.302.8732-3.1355.8731-.83349 3.2148-.83349 2.3021 0 3.1355.83349.8732.79379.8732 3.0561z" style="stop-color:#000000;stroke-width:.81285"/>
  <path d="m2319.2 588.13 342.96-159-3.2928-6.9975-342.96 159zm342.73-150.37 16.209-20.301-26.086-.69183z" style="-inkscape-stroke:none;fill:#999999;font-variation-settings:normal;stop-color:#000000"/>
  <path d="m2321.1 145.98 342.96 159-3.2928 6.9975-342.96-159zm342.73 150.37 16.209 20.301-26.086.69183z" style="-inkscape-stroke:none;fill:#999999;font-variation-settings:normal;stop-color:#000000"/>
  <path d="m2139.1 115.5c0-52.191 42.309-94.5 94.5-94.5s94.5 42.309 94.5 94.5c0 52.191-42.309 94.5-94.5 94.5s-94.5-42.309-94.5-94.5z" fill="none" fill-rule="evenodd" stroke="#000000" stroke-miterlimit="8" stroke-width="8"/>
  <path d="m2099.7 141.5q.3906 1.0742.3906 1.7578.049.63477-.3418.97657-.3906.34179-1.3183.43945-.8789.0977-2.3926.0977t-2.4414-.0977q-.8789-.0488-1.3672-.19531-.4394-.19531-.6836-.48828-.1953-.29297-.3906-.73243l-5.4199-15.381h-26.27l-5.1757 15.186q-.1465.43946-.3907.78125-.2441.29297-.7324.53711-.4394.19531-1.3184.29297-.83.0977-2.1972.0977-1.416 0-2.3438-.14649-.8789-.0976-1.2695-.43945-.3418-.3418-.3418-.97656.049-.6836.4395-1.7578l21.191-58.691q.1953-.53711.4882-.87891.3418-.3418.9278-.53711.6347-.19531 1.5625-.24414.9765-.09766 2.4414-.09766 1.5625 0 2.5879.09766 1.0254.04883 1.6601.24414.6348.19531.9766.58594.3418.3418.5371.87891zm-27.197-51.807h-.049l-10.889 31.494h21.973z"/>
  <path d="m2137.1 618.84c0-52.191 42.309-94.5 94.5-94.5s94.5 42.309 94.5 94.5-42.309 94.5-94.5 94.5-94.5-42.309-94.5-94.5z" fill="none" fill-rule="evenodd" stroke="#000000" stroke-miterlimit="8" stroke-width="8"/>
  <path d="m2101.4 627.56q0 2.9785-.7812 5.5176-.7324 2.4902-2.0996 4.4922-1.3672 2.002-3.3203 3.5156-1.9043 1.5137-4.3457 2.5391-2.3926 1.0254-5.1758 1.5625-2.7344.48828-6.2988.48828h-16.504q-1.1231 0-2.1485-.73242-.9765-.78125-.9765-2.6856v-56.348q0-1.9043.9765-2.6367 1.0254-.78125 2.1485-.78125h14.355q5.6641 0 9.2774 1.0742 3.6132 1.0742 6.0058 3.125 2.4414 2.0508 3.6621 5.0293 1.2207 2.9785 1.2207 6.7383 0 2.2461-.5371 4.2969t-1.6113 3.8086q-1.0254 1.709-2.6367 3.0762-1.5625 1.3672-3.6133 2.2461 2.5879.48828 4.834 1.8066 2.2461 1.2695 3.9062 3.2715 1.709 2.002 2.6856 4.6875.9765 2.6856.9765 5.9082zm-12.646-28.271q0-2.2949-.6348-4.1504t-2.002-3.125q-1.3671-1.3184-3.5644-2.002t-5.8106-.68359h-8.6914v20.459h9.5703q3.2715 0 5.2735-.83008 2.0019-.8789 3.3203-2.2949 1.3184-1.4648 1.9043-3.3691.6348-1.9531.6348-4.0039zm3.8086 28.76q0-2.832-.9278-4.9805-.8789-2.1484-2.6367-3.6133-1.709-1.4648-4.3457-2.1973-2.5879-.78125-6.543-.78125h-10.059v22.266h12.207q2.8808 0 5.0293-.6836 2.1484-.68359 3.7597-2.002 1.6602-1.3672 2.5879-3.3691.9278-2.002.9278-4.6387z"/>
  <path d="m2667.3 365.5c0-52.191 42.085-94.5 94-94.5s94 42.309 94 94.5-42.085 94.5-94 94.5-94-42.309-94-94.5z" fill="none" fill-rule="evenodd" stroke="#000000" stroke-miterlimit="8" stroke-width="8" style="-inkscape-stroke:none;fill:#808080;font-variation-settings:normal;stop-color:#000000;stroke-miterlimit:8;stroke-width:8;stroke:#000000"/>
  <path d="m2211.7 136.64q0 .79379-.2778 1.3494-.2381.55566-.6747.91287-.3969.35721-.9129.51596-.516.15877-1.0319.15877h-2.183q-1.0319 0-1.8257-.19843-.7541-.23815-1.4685-.7938-.6748-.59534-1.3892-1.5876-.6747-.99225-1.5082-2.5402l-16.193-29.212q-1.2701-2.2623-2.5799-4.7231-1.2701-2.5005-2.3814-4.8422h-.079q.079 2.8577.1191 5.8344.04 2.9767.04 5.9138v30.998q0 .27781-.1588.55565-.1587.23816-.5556.3969-.3572.11908-.9923.19843-.5953.11908-1.5479.11908-.9525 0-1.5876-.11908-.5953-.0794-.9525-.19843-.3572-.15877-.516-.3969-.1587-.27781-.1587-.55565v-47.39q0-1.5876.8731-2.2623.8732-.67472 1.9051-.67472h3.2546q1.151 0 1.9051.19846.7938.19846 1.3892.67473.635.43659 1.1907 1.2701.5953.79379 1.27 2.0242l12.463 22.544q1.151 2.0639 2.2226 4.0484 1.0716 1.9448 2.0639 3.8499.9922 1.9051 1.9448 3.7705.9922 1.8257 1.9448 3.6912h.04q-.079-3.1355-.1191-6.5091 0-3.4133 0-6.5488v-27.862q0-.27782.1587-.51597.1588-.23812.516-.3969.3969-.19846.9923-.27782.635-.07939 1.6272-.07939.8732 0 1.5083.07939.635.07939.9922.27782.3572.15877.516.3969.1587.23816.1587.51597z" style="stop-color:#000000;stroke-width:.81285"/>
  <path d="m2257.8 120.21q0 4.3659-1.151 8.057-1.151 3.6515-3.453 6.3107-2.2623 2.6592-5.7153 4.1674-3.4133 1.4685-7.938 1.4685-4.4056 0-7.6998-1.3098-3.2546-1.3098-5.4375-3.8102-2.183-2.5005-3.2546-6.0726t-1.0716-8.0967q0-4.3659 1.1113-8.0174 1.151-3.6912 3.4133-6.3504 2.302-2.6592 5.7154-4.1277 3.4133-1.4685 7.9776-1.4685 4.4056 0 7.6602 1.3098 3.2942 1.3098 5.4772 3.8102 2.1829 2.5005 3.2545 6.0726 1.1113 3.5721 1.1113 8.057zm-6.906.43659q0-2.8974-.5556-5.4772-.516-2.5798-1.7464-4.5246-1.2304-1.9448-3.3339-3.0561-2.1036-1.151-5.2391-1.151-2.8974 0-5.0009 1.0319-2.0639 1.0319-3.4134 2.937-1.3494 1.8654-2.0241 4.4453-.6351 2.5798-.6351 5.636 0 2.937.516 5.5169.5556 2.5798 1.786 4.5246 1.2701 1.9051 3.3737 3.0561 2.1035 1.1113 5.239 1.1113 2.8577 0 4.9613-1.0319 2.1035-1.0319 3.453-2.8974 1.3494-1.8654 1.9845-4.4453.635-2.5798.635-5.6756z" style="stop-color:#000000;stroke-width:.81285"/>
  <path d="m2298.2 138.46q0 .31752-.1587.55566-.1588.19846-.516.3572-.3572.15878-.9923.23816-.635.0794-1.5876.0794-.9922 0-1.6272-.0794-.6351-.0794-.9923-.23816-.3572-.15877-.516-.3572-.1587-.23813-.1587-.55566v-20.917q0-3.0561-.4763-4.9215t-1.3891-3.2149q-.9129-1.3494-2.3814-2.0639-1.4289-.71442-3.334-.71442-2.4608 0-4.9215 1.7464-2.4608 1.7464-5.1597 5.12v24.965q0 .31752-.1588.55566-.1588.19846-.5159.3572-.3573.15878-.9923.23816-.635.0794-1.6273.0794-.9525 0-1.5876-.0794-.635-.0794-1.0319-.23816-.3572-.15877-.516-.3572-.1191-.23813-.1191-.55566v-35.721q0-.31751.1191-.51596.1191-.23813.4763-.3969.3572-.19847.9129-.23813.5556-.0794 1.4685-.0794.8732 0 1.4288.0794.5954.0397.9129.23813.3175.15877.4366.3969.1587.19846.1587.51596v4.7231q3.0165-3.3736 5.9932-4.9215 3.0164-1.5876 6.0726-1.5876 3.5721 0 5.9931 1.2304 2.4608 1.1907 3.969 3.2149 1.5082 2.0242 2.1433 4.7628.6747 2.6989.6747 6.5091z" style="stop-color:#000000;stroke-width:.81285"/>
  <path d="m2739.4 386.64q0 .79379-.2778 1.3494-.2381.55566-.6747.91287-.3969.35721-.9129.51596-.516.15877-1.0319.15877h-2.183q-1.0319 0-1.8257-.19843-.7541-.23815-1.4685-.7938-.6748-.59534-1.3892-1.5876-.6747-.99225-1.5082-2.5402l-16.193-29.212q-1.2701-2.2623-2.5799-4.7231-1.2701-2.5005-2.3814-4.8422h-.079q.079 2.8577.1191 5.8344.04 2.9767.04 5.9138v30.998q0 .27781-.1588.55565-.1587.23816-.5556.3969-.3572.11908-.9923.19843-.5953.11908-1.5479.11908-.9525 0-1.5876-.11908-.5953-.0794-.9525-.19843-.3572-.15877-.516-.3969-.1587-.27781-.1587-.55565v-47.39q0-1.5876.8731-2.2623.8732-.67472 1.9051-.67472h3.2546q1.151 0 1.9051.19846.7938.19846 1.3892.67473.635.43659 1.1907 1.2701.5953.7938 1.27 2.0242l12.463 22.544q1.151 2.0639 2.2226 4.0484 1.0716 1.9448 2.0639 3.8499.9922 1.9051 1.9448 3.7705.9922 1.8257 1.9448 3.6912h.04q-.079-3.1355-.1191-6.5091 0-3.4133 0-6.5488v-27.862q0-.27781.1587-.51596.1588-.23813.516-.3969.3969-.19846.9923-.27782.635-.0794 1.6272-.0794.8732 0 1.5083.0794.635.0794.9922.27782.3572.15877.516.3969.1587.23815.1587.51596z" style="fill:#ffffff;stop-color:#000000;stroke-width:.81285"/>
  <path d="m2785.5 370.21q0 4.3659-1.151 8.057-1.151 3.6515-3.453 6.3107-2.2623 2.6592-5.7153 4.1674-3.4133 1.4685-7.938 1.4685-4.4056 0-7.6998-1.3098-3.2546-1.3098-5.4375-3.8102-2.183-2.5005-3.2546-6.0726t-1.0716-8.0967q0-4.3659 1.1113-8.0174 1.151-3.6912 3.4133-6.3504 2.302-2.6592 5.7154-4.1277 3.4133-1.4685 7.9776-1.4685 4.4056 0 7.6602 1.3098 3.2942 1.3098 5.4772 3.8102 2.1829 2.5005 3.2545 6.0726 1.1113 3.5721 1.1113 8.057zm-6.906.43659q0-2.8974-.5556-5.4772-.516-2.5798-1.7464-4.5246-1.2304-1.9448-3.3339-3.0561-2.1036-1.151-5.2391-1.151-2.8974 0-5.0009 1.0319-2.0639 1.0319-3.4134 2.937-1.3494 1.8654-2.0241 4.4453-.6351 2.5798-.6351 5.636 0 2.937.516 5.5169.5556 2.5798 1.786 4.5246 1.2701 1.9051 3.3737 3.0561 2.1035 1.1113 5.239 1.1113 2.8577 0 4.9613-1.0319 2.1035-1.0319 3.453-2.8974 1.3494-1.8654 1.9845-4.4453.635-2.5798.635-5.6756z" style="fill:#ffffff;stop-color:#000000;stroke-width:.81285"/>
  <path d="m2825.9 388.46q0 .31752-.1587.55566-.1588.19846-.516.3572-.3572.15878-.9923.23816-.635.0794-1.5876.0794-.9922 0-1.6272-.0794-.6351-.0794-.9923-.23816-.3572-.15877-.516-.3572-.1587-.23813-.1587-.55566v-20.917q0-3.0561-.4763-4.9215t-1.3891-3.2149q-.9129-1.3494-2.3814-2.0639-1.4289-.71442-3.334-.71442-2.4608 0-4.9215 1.7464-2.4608 1.7464-5.1597 5.12v24.965q0 .31752-.1588.55566-.1588.19846-.5159.3572-.3573.15878-.9923.23816-.635.0794-1.6273.0794-.9525 0-1.5876-.0794-.635-.0794-1.0319-.23816-.3572-.15877-.516-.3572-.1191-.23813-.1191-.55566v-35.721q0-.31751.1191-.51596.1191-.23813.4763-.3969.3572-.19847.9129-.23813.5556-.0794 1.4685-.0794.8732 0 1.4288.0794.5954.0397.9129.23813.3175.15877.4366.3969.1587.19846.1587.51596v4.7231q3.0165-3.3736 5.9932-4.9215 3.0164-1.5876 6.0726-1.5876 3.5721 0 5.9931 1.2304 2.4608 1.1907 3.969 3.2149 1.5082 2.0242 2.1433 4.7628.6747 2.6989.6747 6.5091z" style="fill:#ffffff;stop-color:#000000;stroke-width:.81285"/>
  <path d="m2209.6 639.98q0 .79379-.2778 1.3494-.2381.55566-.6747.91287-.3969.35721-.9129.51596-.516.15877-1.0319.15877h-2.183q-1.0319 0-1.8257-.19843-.7541-.23815-1.4685-.7938-.6748-.59534-1.3892-1.5876-.6747-.99225-1.5082-2.5402l-16.193-29.212q-1.2701-2.2623-2.5799-4.7231-1.2701-2.5005-2.3814-4.8422h-.079q.079 2.8577.1191 5.8344.04 2.9767.04 5.9138v30.998q0 .27781-.1588.55565-.1587.23816-.5556.3969-.3572.11908-.9923.19843-.5953.11908-1.5479.11908-.9525 0-1.5876-.11908-.5953-.0794-.9525-.19843-.3572-.15877-.516-.3969-.1587-.27781-.1587-.55565v-47.39q0-1.5876.8731-2.2623.8732-.67472 1.9051-.67472h3.2546q1.151 0 1.9051.19846.7938.19846 1.3892.67473.635.43659 1.1907 1.2701.5953.7938 1.27 2.0242l12.463 22.544q1.151 2.0639 2.2226 4.0484 1.0716 1.9448 2.0639 3.8499.9922 1.9051 1.9448 3.7705.9922 1.8257 1.9448 3.6912h.04q-.079-3.1355-.1191-6.5091 0-3.4133 0-6.5488v-27.862q0-.27781.1587-.51596.1588-.23813.516-.3969.3969-.19846.9923-.27782.635-.0794 1.6272-.0794.8732 0 1.5083.0794.635.0794.9922.27782.3572.15877.516.3969.1587.23815.1587.51596z" style="stop-color:#000000;stroke-width:.81285"/>
  <path d="m2255.8 623.54q0 4.3659-1.151 8.057-1.151 3.6515-3.453 6.3107-2.2623 2.6592-5.7153 4.1674-3.4133 1.4685-7.938 1.4685-4.4056 0-7.6998-1.3098-3.2546-1.3098-5.4375-3.8102-2.183-2.5005-3.2546-6.0726t-1.0716-8.0967q0-4.3659 1.1113-8.0174 1.151-3.6912 3.4133-6.3504 2.302-2.6592 5.7154-4.1277 3.4133-1.4685 7.9776-1.4685 4.4056 0 7.6602 1.3098 3.2942 1.3098 5.4772 3.8102 2.1829 2.5005 3.2545 6.0726 1.1113 3.5721 1.1113 8.057zm-6.906.43659q0-2.8974-.5556-5.4772-.516-2.5798-1.7464-4.5246-1.2304-1.9448-3.3339-3.0561-2.1036-1.151-5.2391-1.151-2.8974 0-5.0009 1.0319-2.0639 1.0319-3.4134 2.937-1.3494 1.8654-2.0241 4.4453-.6351 2.5798-.6351 5.636 0 2.937.516 5.5169.5556 2.5798 1.786 4.5246 1.2701 1.9051 3.3737 3.0561 2.1035 1.1113 5.239 1.1113 2.8577 0 4.9613-1.0319 2.1035-1.0319 3.453-2.8974 1.3494-1.8654 1.9845-4.4453.635-2.5798.635-5.6756z" style="stop-color:#000000;stroke-width:.81285"/>
  <path d="m2296.2 641.8q0 .31752-.1587.55566-.1588.19846-.516.3572-.3572.15878-.9923.23816-.635.0794-1.5876.0794-.9922 0-1.6272-.0794-.6351-.0794-.9923-.23816-.3572-.15877-.516-.3572-.1587-.23813-.1587-.55566v-20.917q0-3.0561-.4763-4.9215t-1.3891-3.2149q-.9129-1.3494-2.3814-2.0639-1.4289-.71442-3.334-.71442-2.4608 0-4.9215 1.7464-2.4608 1.7464-5.1597 5.12v24.965q0 .31752-.1588.55566-.1588.19846-.5159.3572-.3573.15878-.9923.23816-.635.0794-1.6273.0794-.9525 0-1.5876-.0794-.635-.0794-1.0319-.23816-.3572-.15877-.516-.3572-.1191-.23813-.1191-.55566v-35.721q0-.31751.1191-.51596.1191-.23813.4763-.3969.3572-.19847.9129-.23813.5556-.0794 1.4685-.0794.8732 0 1.4288.0794.5954.0397.9129.23813.3175.15877.4366.3969.1587.19846.1587.51596v4.7231q3.0165-3.3736 5.9932-4.9215 3.0164-1.5876 6.0726-1.5876 3.5721 0 5.9931 1.2304 2.4608 1.1907 3.969 3.2149 1.5082 2.0242 2.1433 4.7628.6747 2.6989.6747 6.5091z" style="stop-color:#000000;stroke-width:.81285"/>
  <path d="m3247.7 588.13 342.96-159-3.2928-6.9975-342.96 159zm342.73-150.37 16.209-20.301-26.086-.69183z" style="-inkscape-stroke:none;fill:#000000;font-variation-settings:normal;stop-color:#000000"/>
  <path d="m3249.6 145.98 342.96 159-3.2928 6.9975-342.96-159zm342.73 150.37 16.209 20.301-26.086.69183z" style="-inkscape-stroke:none;fill:#999999;font-variation-settings:normal;stop-color:#000000"/>
  <path d="m3067.6 115.5c0-52.191 42.309-94.5 94.5-94.5s94.5 42.309 94.5 94.5c0 52.191-42.309 94.5-94.5 94.5s-94.5-42.309-94.5-94.5z" fill="none" fill-rule="evenodd" stroke="#000000" stroke-miterlimit="8" stroke-width="8"/>
  <path d="m3028.2 141.5q.3907 1.0742.3907 1.7578.049.63477-.3418.97657-.3906.34179-1.3184.43945-.8789.0977-2.3926.0977-1.5136 0-2.4414-.0977-.8789-.0488-1.3672-.19531-.4394-.19531-.6835-.48828-.1954-.29297-.3907-.73243l-5.4199-15.381h-26.27l-5.1758 15.186q-.1465.43946-.3906.78125-.2442.29297-.7325.53711-.4394.19531-1.3183.29297-.8301.0977-2.1973.0977-1.416 0-2.3437-.14649-.8789-.0976-1.2696-.43945-.3418-.3418-.3418-.97656.049-.6836.4395-1.7578l21.191-58.691q.1953-.53711.4883-.87891.3418-.3418.9277-.53711.6348-.19531 1.5625-.24414.9766-.09766 2.4414-.09766 1.5625 0 2.5879.09766 1.0254.04883 1.6602.24414.6347.19531.9765.58594.3418.3418.5371.87891zm-27.197-51.807h-.049l-10.889 31.494h21.973z"/>
  <path d="m3065.6 618.84c0-52.191 42.309-94.5 94.5-94.5s94.5 42.309 94.5 94.5-42.309 94.5-94.5 94.5-94.5-42.309-94.5-94.5z" fill="none" fill-rule="evenodd" stroke="#000000" stroke-miterlimit="8" stroke-width="8"/>
  <path d="m3029.9 627.56q0 2.9785-.7813 5.5176-.7324 2.4902-2.0996 4.4922-1.3672 2.002-3.3203 3.5156-1.9043 1.5137-4.3457 2.5391-2.3926 1.0254-5.1758 1.5625-2.7343.48828-6.2988.48828h-16.504q-1.1231 0-2.1484-.73242-.9766-.78125-.9766-2.6856v-56.348q0-1.9043.9766-2.6367 1.0253-.78125 2.1484-.78125h14.356q5.664 0 9.2773 1.0742t6.0059 3.125q2.4414 2.0508 3.6621 5.0293 1.2207 2.9785 1.2207 6.7383 0 2.2461-.5371 4.2969t-1.6114 3.8086q-1.0254 1.709-2.6367 3.0762-1.5625 1.3672-3.6133 2.2461 2.5879.48828 4.834 1.8066 2.2461 1.2695 3.9063 3.2715 1.709 2.002 2.6855 4.6875.9766 2.6856.9766 5.9082zm-12.646-28.271q0-2.2949-.6348-4.1504-.6347-1.8555-2.0019-3.125-1.3672-1.3184-3.5645-2.002-2.1972-.68359-5.8105-.68359h-8.6914v20.459h9.5703q3.2715 0 5.2734-.83008 2.002-.8789 3.3203-2.2949 1.3184-1.4648 1.9043-3.3691.6348-1.9531.6348-4.0039zm3.8086 28.76q0-2.832-.9277-4.9805-.8789-2.1484-2.6368-3.6133-1.7089-1.4648-4.3457-2.1973-2.5879-.78125-6.5429-.78125h-10.059v22.266h12.207q2.8809 0 5.0293-.6836 2.1484-.68359 3.7598-2.002 1.6601-1.3672 2.5879-3.3691.9277-2.002.9277-4.6387z"/>
  <path d="m3595.8 365.5c0-52.191 42.085-94.5 94-94.5s94 42.309 94 94.5-42.085 94.5-94 94.5-94-42.309-94-94.5z" fill="none" fill-rule="evenodd" stroke="#000000" stroke-miterlimit="8" stroke-width="8" style="-inkscape-stroke:none;fill:#808080;font-variation-settings:normal;stop-color:#000000;stroke-miterlimit:8;stroke-width:8;stroke:#000000"/>
  <path d="m3140.2 136.64q0 .79379-.2778 1.3494-.2381.55566-.6747.91287-.3969.35721-.9129.51596-.516.15877-1.0319.15877h-2.183q-1.0319 0-1.8257-.19843-.7541-.23815-1.4685-.7938-.6748-.59534-1.3892-1.5876-.6747-.99225-1.5082-2.5402l-16.193-29.212q-1.2701-2.2623-2.5799-4.7231-1.2701-2.5005-2.3814-4.8422h-.079q.079 2.8577.1191 5.8344.04 2.9767.04 5.9138v30.998q0 .27781-.1588.55565-.1587.23816-.5556.3969-.3572.11908-.9923.19843-.5953.11908-1.5479.11908-.9525 0-1.5876-.11908-.5953-.0794-.9525-.19843-.3572-.15877-.516-.3969-.1587-.27781-.1587-.55565v-47.39q0-1.5876.8731-2.2623.8732-.67472 1.9051-.67472h3.2546q1.151 0 1.9051.19846.7938.19846 1.3892.67473.635.43659 1.1907 1.2701.5953.79379 1.27 2.0242l12.463 22.544q1.151 2.0639 2.2226 4.0484 1.0716 1.9448 2.0639 3.8499.9922 1.9051 1.9448 3.7705.9922 1.8257 1.9448 3.6912h.04q-.079-3.1355-.1191-6.5091 0-3.4133 0-6.5488v-27.862q0-.27782.1587-.51597.1588-.23812.516-.3969.3969-.19846.9923-.27782.635-.07939 1.6272-.07939.8732 0 1.5083.07939.635.07939.9922.27782.3572.15877.516.3969.1587.23816.1587.51597z" style="stop-color:#000000;stroke-width:.81285"/>
  <path d="m3186.3 120.21q0 4.3659-1.151 8.057-1.151 3.6515-3.453 6.3107-2.2623 2.6592-5.7153 4.1674-3.4133 1.4685-7.938 1.4685-4.4056 0-7.6998-1.3098-3.2546-1.3098-5.4375-3.8102-2.183-2.5005-3.2546-6.0726t-1.0716-8.0967q0-4.3659 1.1113-8.0174 1.151-3.6912 3.4133-6.3504 2.302-2.6592 5.7154-4.1277 3.4133-1.4685 7.9776-1.4685 4.4056 0 7.6602 1.3098 3.2942 1.3098 5.4772 3.8102 2.1829 2.5005 3.2545 6.0726 1.1113 3.5721 1.1113 8.057zm-6.906.43659q0-2.8974-.5556-5.4772-.516-2.5798-1.7464-4.5246-1.2304-1.9448-3.3339-3.0561-2.1036-1.151-5.2391-1.151-2.8974 0-5.0009 1.0319-2.0639 1.0319-3.4134 2.937-1.3494 1.8654-2.0241 4.4453-.6351 2.5798-.6351 5.636 0 2.937.516 5.5169.5556 2.5798 1.786 4.5246 1.2701 1.9051 3.3737 3.0561 2.1035 1.1113 5.239 1.1113 2.8577 0 4.9613-1.0319 2.1035-1.0319 3.453-2.8974 1.3494-1.8654 1.9845-4.4453.635-2.5798.635-5.6756z" style="stop-color:#000000;stroke-width:.81285"/>
  <path d="m3226.7 138.46q0 .31752-.1587.55566-.1588.19846-.516.3572-.3572.15878-.9923.23816-.635.0794-1.5876.0794-.9922 0-1.6272-.0794-.6351-.0794-.9923-.23816-.3572-.15877-.516-.3572-.1587-.23813-.1587-.55566v-20.917q0-3.0561-.4763-4.9215t-1.3891-3.2149q-.9129-1.3494-2.3814-2.0639-1.4289-.71442-3.334-.71442-2.4608 0-4.9215 1.7464-2.4608 1.7464-5.1597 5.12v24.965q0 .31752-.1588.55566-.1588.19846-.5159.3572-.3573.15878-.9923.23816-.635.0794-1.6273.0794-.9525 0-1.5876-.0794-.635-.0794-1.0319-.23816-.3572-.15877-.516-.3572-.1191-.23813-.1191-.55566v-35.721q0-.31751.1191-.51596.1191-.23813.4763-.3969.3572-.19847.9129-.23813.5556-.0794 1.4685-.0794.8732 0 1.4288.0794.5954.0397.9129.23813.3175.15877.4366.3969.1587.19846.1587.51596v4.7231q3.0165-3.3736 5.9932-4.9215 3.0164-1.5876 6.0726-1.5876 3.5721 0 5.9931 1.2304 2.4608 1.1907 3.969 3.2149 1.5082 2.0242 2.1433 4.7628.6747 2.6989.6747 6.5091z" style="stop-color:#000000;stroke-width:.81285"/>
  <path d="m3667.8 386.64q0 .79379-.2778 1.3494-.2381.55566-.6747.91287-.3969.35721-.9129.51596-.516.15877-1.0319.15877h-2.183q-1.0319 0-1.8257-.19843-.7541-.23815-1.4685-.7938-.6748-.59534-1.3892-1.5876-.6747-.99225-1.5082-2.5402l-16.193-29.212q-1.2701-2.2623-2.5799-4.7231-1.2701-2.5005-2.3814-4.8422h-.079q.079 2.8577.1191 5.8344.04 2.9767.04 5.9138v30.998q0 .27781-.1588.55565-.1587.23816-.5556.3969-.3572.11908-.9923.19843-.5953.11908-1.5479.11908-.9525 0-1.5876-.11908-.5953-.0794-.9525-.19843-.3572-.15877-.516-.3969-.1587-.27781-.1587-.55565v-47.39q0-1.5876.8731-2.2623.8732-.67472 1.9051-.67472h3.2546q1.151 0 1.9051.19846.7938.19846 1.3892.67473.635.43659 1.1907 1.2701.5953.7938 1.27 2.0242l12.463 22.544q1.151 2.0639 2.2226 4.0484 1.0716 1.9448 2.0639 3.8499.9922 1.9051 1.9448 3.7705.9922 1.8257 1.9448 3.6912h.04q-.079-3.1355-.1191-6.5091 0-3.4133 0-6.5488v-27.862q0-.27781.1587-.51596.1588-.23813.516-.3969.3969-.19846.9923-.27782.635-.0794 1.6272-.0794.8732 0 1.5083.0794.635.0794.9922.27782.3572.15877.516.3969.1587.23815.1587.51596z" style="fill:#ffffff;stop-color:#000000;stroke-width:.81285"/>
  <path d="m3714 370.21q0 4.3659-1.151 8.057-1.151 3.6515-3.453 6.3107-2.2623 2.6592-5.7153 4.1674-3.4133 1.4685-7.938 1.4685-4.4056 0-7.6998-1.3098-3.2546-1.3098-5.4375-3.8102-2.183-2.5005-3.2546-6.0726t-1.0716-8.0967q0-4.3659 1.1113-8.0174 1.151-3.6912 3.4133-6.3504 2.302-2.6592 5.7154-4.1277 3.4133-1.4685 7.9776-1.4685 4.4056 0 7.6602 1.3098 3.2942 1.3098 5.4772 3.8102 2.1829 2.5005 3.2545 6.0726 1.1113 3.5721 1.1113 8.057zm-6.906.43659q0-2.8974-.5556-5.4772-.516-2.5798-1.7464-4.5246-1.2304-1.9448-3.3339-3.0561-2.1036-1.151-5.2391-1.151-2.8974 0-5.0009 1.0319-2.0639 1.0319-3.4134 2.937-1.3494 1.8654-2.0241 4.4453-.6351 2.5798-.6351 5.636 0 2.937.516 5.5169.5556 2.5798 1.786 4.5246 1.2701 1.9051 3.3737 3.0561 2.1035 1.1113 5.239 1.1113 2.8577 0 4.9613-1.0319 2.1035-1.0319 3.453-2.8974 1.3494-1.8654 1.9845-4.4453.635-2.5798.635-5.6756z" style="fill:#ffffff;stop-color:#000000;stroke-width:.81285"/>
  <path d="m3754.4 388.46q0 .31752-.1587.55566-.1588.19846-.516.3572-.3572.15878-.9923.23816-.635.0794-1.5876.0794-.9922 0-1.6272-.0794-.6351-.0794-.9923-.23816-.3572-.15877-.516-.3572-.1587-.23813-.1587-.55566v-20.917q0-3.0561-.4763-4.9215t-1.3891-3.2149q-.9129-1.3494-2.3814-2.0639-1.4289-.71442-3.334-.71442-2.4608 0-4.9215 1.7464-2.4608 1.7464-5.1597 5.12v24.965q0 .31752-.1588.55566-.1588.19846-.5159.3572-.3573.15878-.9923.23816-.635.0794-1.6273.0794-.9525 0-1.5876-.0794-.635-.0794-1.0319-.23816-.3572-.15877-.516-.3572-.1191-.23813-.1191-.55566v-35.721q0-.31751.1191-.51596.1191-.23813.4763-.3969.3572-.19847.9129-.23813.5556-.0794 1.4685-.0794.8732 0 1.4288.0794.5954.0397.9129.23813.3175.15877.4366.3969.1587.19846.1587.51596v4.7231q3.0165-3.3736 5.9932-4.9215 3.0164-1.5876 6.0726-1.5876 3.5721 0 5.9931 1.2304 2.4608 1.1907 3.969 3.2149 1.5082 2.0242 2.1433 4.7628.6747 2.6989.6747 6.5091z" style="fill:#ffffff;stop-color:#000000;stroke-width:.81285"/>
  <path d="m3152.4 617.98q0 6.2313-1.4686 11.232-1.4685 5.0009-4.4055 8.5333-2.8974 3.4927-7.303 5.3978-4.4055 1.8654-10.28 1.8654-5.7948 0-10.042-1.7067-4.2071-1.7464-6.9854-5.0406-2.7386-3.2942-4.0881-8.1761-1.3494-4.8818-1.3494-11.232 0-6.0726 1.4685-11.034t4.4056-8.4142q2.937-3.4927 7.3426-5.3581 4.4056-1.9051 10.28-1.9051 5.6756 0 9.8828 1.7067 4.2071 1.7067 6.9854 5.0009 2.818 3.2546 4.1674 8.0967 1.3892 4.8025 1.3892 11.034zm-7.1839.47628q0-4.3659-.7938-8.0967-.7541-3.7705-2.5798-6.5091-1.7861-2.7783-4.8025-4.3262-3.0164-1.5479-7.4617-1.5479t-7.4617 1.667q-3.0164 1.667-4.9215 4.4453-1.8655 2.7783-2.699 6.5091-.7938 3.6912-.7938 7.7792 0 4.5246.7542 8.3349.7541 3.8102 2.5401 6.5885 1.786 2.7386 4.7628 4.2865 3.0164 1.5082 7.5411 1.5082 4.4849 0 7.541-1.667 3.0562-1.667 4.9216-4.485 1.8654-2.8577 2.6592-6.5885.7938-3.7308.7938-7.8983z" style="stop-color:#000000;stroke-width:.81285"/>
  <path d="m3193 643.27q0 .31752-.1588.55566-.1191.19846-.4763.3572-.3572.15878-.9525.23816-.5557.0794-1.3892.0794-.9128 0-1.5082-.0794-.5556-.0794-.9129-.23816-.3175-.15877-.4365-.3572-.1191-.23813-.1191-.55566v-4.7231q-3.0561 3.3736-6.0329 4.9216-2.9767 1.5479-6.0328 1.5479-3.5721 0-6.0329-1.1907-2.4211-1.1907-3.9293-3.2149-1.5082-2.0639-2.1829-4.7628-.6351-2.7386-.6351-6.6282v-21.671q0-.31751.1191-.51596.1588-.23813.5557-.3969.3969-.19847 1.0319-.23813.635-.0794 1.5876-.0794.9525 0 1.5876.0794.635.0397.9922.23813.3969.15877.5557.3969.1588.19846.1588.51596v20.797q0 3.1355.4366 5.0406.4762 1.8654 1.3891 3.2149.9526 1.3098 2.3814 2.0639 1.4288.71442 3.3339.71442 2.4608 0 4.8819-1.7464 2.4608-1.7464 5.1994-5.12v-24.965q0-.31751.119-.51596.1588-.23813.5557-.3969.3969-.19847.9922-.23813.6351-.0794 1.6273-.0794.9526 0 1.5876.0794.6351.0397.9923.23813.3572.15877.5159.3969.1985.19846.1985.51596z" style="stop-color:#000000;stroke-width:.81285"/>
  <path d="m3211.7 643.27q0 .31752-.1588.55566-.1587.19846-.5159.3572-.3572.15878-.9923.23816-.635.0794-1.6273.0794-.9525 0-1.5876-.0794-.635-.0794-1.0319-.23816-.3572-.15877-.516-.3572-.119-.23813-.119-.55566v-35.721q0-.27781.119-.51596.1588-.23813.516-.3969.3969-.15877 1.0319-.23813.6351-.0794 1.5876-.0794.9923 0 1.6273.0794.6351.0794.9923.23813.3572.15877.5159.3969.1588.23815.1588.51596zm.7541-47.787q0 2.302-.8732 3.1355-.8731.83348-3.2148.83348-2.3021 0-3.1752-.79379-.8335-.83349-.8335-3.0958 0-2.302.8732-3.1355.8731-.83349 3.2148-.83349 2.3021 0 3.1355.83349.8732.79379.8732 3.0561z" style="stop-color:#000000;stroke-width:.81285"/>
  <circle cx="620.2" cy="220.4" r="60" style="fill:#d8dad9"/>
  <path d="m627.44 181.35v31.866h31.744v14.352h-31.744v31.866h-14.474v-31.866h-31.744v-14.352h31.744v-31.866z" style="stroke-width:1.5568"/>
  <circle cx="620.2" cy="500.98" r="60" style="fill:#d8dad9"/>
  <path d="m653 500.98q0 2.8126-.76016 4.1049-.68415 1.2923-2.0524 1.2923h-59.901q-1.4443 0-2.2045-1.2923-.68414-1.2923-.68414-4.1049 0-2.7366.68414-4.0289.76017-1.3683 2.2045-1.3683h59.901q1.3683 0 2.0524 1.2923.76016 1.2923.76016 4.1049z" style="stroke-width:1.5568"/>
  <circle cx="1570.2" cy="220.4" r="60" style="fill:#d8dad9"/>
  <path d="m1577.4 181.35v31.866h31.744v14.352h-31.744v31.866h-14.474v-31.866h-31.744v-14.352h31.744v-31.866z" style="stroke-width:1.5568"/>
  <circle cx="1570.2" cy="500.98" r="60" style="fill:#d8dad9"/>
  <path d="m1603 500.98q0 2.8126-.7602 4.1049-.6841 1.2923-2.0524 1.2923h-59.901q-1.4443 0-2.2044-1.2923-.6842-1.2923-.6842-4.1049 0-2.7366.6842-4.0289.7601-1.3683 2.2044-1.3683h59.901q1.3683 0 2.0524 1.2923.7602 1.2923.7602 4.1049z" style="stroke-width:1.5568"/>
  <circle cx="2494.1" cy="220.4" r="60" style="fill:#d8dad9"/>
  <path d="m2501.4 181.35v31.866h31.744v14.352h-31.744v31.866h-14.474v-31.866h-31.744v-14.352h31.744v-31.866z" style="stroke-width:1.5568"/>
  <circle cx="2494.1" cy="500.98" r="60" style="fill:#d8dad9"/>
  <path d="m2526.9 500.98q0 2.8126-.7601 4.1049-.6842 1.2923-2.0525 1.2923h-59.901q-1.4443 0-2.2045-1.2923-.6842-1.2923-.6842-4.1049 0-2.7366.6842-4.0289.7602-1.3683 2.2045-1.3683h59.901q1.3683 0 2.0525 1.2923.7601 1.2923.7601 4.1049z" style="stroke-width:1.5568"/>
  <circle cx="3420.9" cy="220.4" r="60" style="fill:#d8dad9"/>
  <path d="m3428.2 181.35v31.866h31.744v14.352h-31.744v31.866h-14.474v-31.866h-31.744v-14.352h31.744v-31.866z" style="stroke-width:1.5568"/>
  <circle cx="3420.9" cy="500.98" r="60" style="fill:#d8dad9"/>
  <path d="m3453.7 500.98q0 2.8126-.7601 4.1049-.6842 1.2923-2.0525 1.2923h-59.901q-1.4443 0-2.2045-1.2923-.6842-1.2923-.6842-4.1049 0-2.7366.6842-4.0289.7602-1.3683 2.2045-1.3683h59.901q1.3683 0 2.0525 1.2923.7601 1.2923.7601 4.1049z" style="stroke-width:1.5568"/>
 </g>
</svg>
