<?xml version="1.0" encoding="UTF-8"?>
<svg id="svg3224" width="120.59mm" height="77.568mm" version="1.1" viewBox="0 0 120.59 77.568" xmlns="http://www.w3.org/2000/svg">
 <g id="ignore" transform="matrix(.99611 0 0 .99611 37.176 22.795)">
  <path id="path142" d="m72.517 38.192c2.2214 1.4889 2.5738 7.0658 1.9406 8.833-1.0427 2.9109-3.4545 6.5199-6.698 7.3804-1.7015.45098-2.9034-.07696-4.3483-.81081-.54789-.27778-1.1757-.47435-1.6891-.81629-.5298-.35214-.91637-.99542-1.336-1.4572-.44324-.48817-.94556-.92189-1.336-1.4572-1.4638-2.0079-2.2851-4.5573-1.3585-6.9203.97859-2.4948 2.0062-4.9392 4.238-6.4222.77289-.51376 1.4743-1.0357 2.3768-1.2846 1.0601-.29219 2.1811.07122 3.2344.23268 1.6233.24765 3.5868 1.7921 4.9762 2.7225z" style="clip-rule:evenodd;fill-rule:evenodd;fill:#fef388;stroke-width:.48148px;stroke:#aa0000"/>
  <path id="path154" d="m72.533 38.275c2.2214 1.4889 2.5738 7.0658 1.9406 8.833-1.0427 2.9109-3.4545 6.5199-6.698 7.3804-1.7015.45098-2.9034-.07696-4.3483-.81081-.54789-.27778-1.1757-.47435-1.6891-.81629-.5298-.35214-.91637-.99542-1.336-1.4572-.44324-.48817-.94556-.92189-1.336-1.4572-1.4638-2.0079-2.2851-4.5573-1.3585-6.9203.97859-2.4948 2.0062-4.9392 4.238-6.4222.77289-.51376 1.4743-1.0357 2.3768-1.2846 1.0601-.29219 2.1811.07122 3.2344.23268 1.6233.24765 3.5868 1.7921 4.9762 2.7225z" style="clip-rule:evenodd;fill-rule:evenodd;fill:#fef388;stroke-width:.48148px;stroke:#aa0000"/>
  <path id="path162" d="m47.48 43.203c.78911 2.5551-2.4471 7.1106-4.0514 8.0854-2.6424 1.6057-6.788 2.8923-9.8502 1.5195-1.6061-.72046-2.2077-1.8872-2.8687-3.3669-.25093-.5607-.6151-1.1086-.79878-1.6974-.19007-.6071-.08559-1.3503-.12106-1.9733-.03719-.65832-.15455-1.3115-.12106-1.9733.12623-2.4816 1.0926-4.9797 3.3-6.2327 2.3306-1.3227 4.6677-2.5755 7.3354-2.3232.92396.08722 1.7975.12313 2.6554.49771 1.0077.44015 1.6501 1.4281 2.367 2.2165 1.1056 1.2142 1.6593 3.6502 2.1534 5.2476z" style="clip-rule:evenodd;fill-rule:evenodd;fill:#fef388;stroke-width:.48148px;stroke:#aa0000"/>
  <path id="path170" d="m20.136 43.276c.69257 2.583-3.8393 7.417-4.6298 7.8089-2.7696 1.3736-6.6144 2.7539-9.6228 1.2671-1.5779-.78028-2.1353-1.9688-2.7402-3.4722-.22969-.56972-.57302-1.1309-.73445-1.7262-.16713-.61381-.034804-1.3526-.046848-1.9764-.012433-.65925-.10517-1.3164-.046848-1.9764.21936-2.4751 1.2789-4.9351 3.5318-6.1043 2.3787-1.2342 4.7612-2.3983 7.4175-2.0461.92003.12187 1.7916.19057 2.6349.59711.99043.47769 1.5953 1.4891 2.282 2.3039 1.0592 1.2548 1.521 3.71 1.9547 5.3248z" style="clip-rule:evenodd;fill-rule:evenodd;fill:#fef388;stroke-width:.48148px;stroke:#aa0000"/>
  <path id="path178" d="m-5.714 42.626c.7595 2.5638-4.325 8.3272-5.105 8.7395-2.7332 1.4447-6.541 2.9239-9.5868 1.5154-1.5975-.73924-2.1855-1.9129-2.829-3.4003-.24434-.5636-.60206-1.1157-.77882-1.7067-.18294-.60928-.06975-1.3512-.09792-1.9746-.02947-.65871-.13916-1.3132-.09792-1.9746.15531-2.48 1.5251-5.6236 3.747-6.8506 2.3456-1.2948 4.3234-1.8635 6.9879-1.58.92287.09805 1.796.1442 2.6494.52881 1.0024.45193 1.6332 1.4474 2.3408 2.2441 1.0913 1.2271 2.2959 2.8558 2.7703 4.459z" style="clip-rule:evenodd;fill-rule:evenodd;fill:#fef388;stroke-width:.48148px;stroke:#aa0000"/>
  <path id="path218" d="m67.194 44.77c1.0248-.5079 3.2321.35452 3.4831 1.5484-2.0381.43294-2.802-.07051-3.4831-1.5484z" style="clip-rule:evenodd;fill-rule:evenodd;fill:#fdc72b;stroke-width:.46753"/>
  <path id="path226" d="m38.946 45.081c1.084.24315 2.2227 2.2434 1.6823 3.2979-1.8029-.91912-2.0717-1.7661-1.6823-3.2979z" style="clip-rule:evenodd;fill-rule:evenodd;fill:#fdc72b;stroke-width:.4541"/>
  <path id="path234" d="m11.525 44.824c.68169.40871 1.0517 1.0459 1.5129 1.6176.45758.5665.1545.84768.03803 1.7275-1.7599-.98217-1.9957-1.8351-1.5509-3.3451z" style="clip-rule:evenodd;fill-rule:evenodd;fill:#fdc72b;stroke-width:.45224"/>
  <path id="path242" d="m-14.94 45.129c.65943.37253 1.0276.97038 1.481 1.5036.44984.52836.44422 1.2038.35519 2.0451-1.7005-.89284-2.2227-2.0995-1.8362-3.5488z" style="clip-rule:evenodd;fill-rule:evenodd;fill:#fdc72b;stroke-width:.43094"/>
  <path id="path282" d="m66.904 44.849c.24294.7168.23499.92093.25729 1.6924.02151.73898-.5999 1.8359-1.3397 2.5052-.72912-1.952-.27852-3.3054 1.0824-4.1976z" style="clip-rule:evenodd;fill-rule:evenodd;fill:#fdc72b;stroke-width:.46753"/>
  <path id="path290" d="m38.679 44.962c-.25482.68952-.38561.83873-.8404 1.4347-.4355.5709-1.5751 1.0189-2.5426 1.0718.64297-1.919 1.8104-2.665 3.383-2.5065z" style="clip-rule:evenodd;fill-rule:evenodd;fill:#fdc72b;stroke-width:.45409"/>
  <path id="path298" d="m11.264 44.695c-.2794.67668-.41515.82029-.89006 1.3963-.45478.55187-1.6057.95513-2.5705.97158.71169-1.8858 1.9014-2.5845 3.4606-2.3679z" style="clip-rule:evenodd;fill-rule:evenodd;fill:#fdc72b;stroke-width:.45224"/>
  <path id="path306" d="m-15.192 45.012c-.24948.65147-.37526.79161-.81345 1.3521-.41962.5369-1.506.94938-2.4247.98882.63149-1.8139 1.7476-2.5088 3.2381-2.3409z" style="clip-rule:evenodd;fill-rule:evenodd;fill:#fdc72b;stroke-width:.43094"/>
  <path id="path346" d="m66.361 44.679c-.75281.75659-1.2031 1.3517-3.4259.78871-.04481-.01156-.82282-.25989-.72614-.55151.07057-.21304.59385-.43148.8661-.54506 1.3899-.57942 2.2365-.42165 3.2859.30787z" style="clip-rule:evenodd;fill-rule:evenodd;fill:#fdc72b;stroke-width:.4235"/>
  <path id="path354" d="m38.374 44.502c-1.0307.11085-1.7344.28476-3.0679-1.499-.02676-.03612-.46216-.69916-.21091-.86015.18349-.11765.71198.03736.9869.11806 1.4032.41233 1.9458 1.0489 2.2919 2.2411z" style="clip-rule:evenodd;fill-rule:evenodd;fill:#fdc72b;stroke-width:.41133"/>
  <path id="path362" d="m10.976 44.226c-1.0299.07175-1.7367.21851-2.9971-1.6066-.025275-.03695-.43378-.7131-.17772-.86392.18702-.11022.70717.06383.97775.15442 1.3811.46286 1.8972 1.1167 2.197 2.3161z" style="clip-rule:evenodd;fill-rule:evenodd;fill:#fdc72b;stroke-width:.40964"/>
  <path id="path370" d="m-15.477 44.573c-.97931.09372-1.649.25092-2.8945-1.4566-.02499-.03457-.43078-.66859-.19057-.81857.17543-.1096.67521.04338.93519.12301 1.327.40689 1.8347 1.017 2.1499 2.1521z" style="clip-rule:evenodd;fill-rule:evenodd;fill:#fdc72b;stroke-width:.39035"/>
  <path id="path410" d="m66.777 43.884c.02585.19632-.83859.10869-1.1458-.05977-.96834-.53142-1.6373-1.4189-1.827-2.8754 1.7552.4448 2.8006 1.6338 2.9728 2.9351z" style="clip-rule:evenodd;fill-rule:evenodd;fill:#fdc72b;stroke-width:.46753"/>
  <path id="path418" d="m39.173 44.157c-.1005.16398-.69937-.4306-.82827-.74555-.406-.99304-.36836-2.0718.37879-3.287 1.0528 1.4087 1.115 2.9451.44948 4.0326z" style="clip-rule:evenodd;fill-rule:evenodd;fill:#fdc72b;stroke-width:.45409"/>
  <path id="path426" d="m11.785 43.911c-.10615.15943-.67991-.4547-.79641-.77297-.3669-1.0035-.28907-2.0756.49996-3.2571.99509 1.4413.99944 2.9728.29644 4.0301z" style="clip-rule:evenodd;fill-rule:evenodd;fill:#fdc72b;stroke-width:.45224"/>
  <path id="path434" d="m-14.714 44.254c-.09719.15449-.65887-.41639-.77768-.7167-.37422-.94686-.32649-1.9701.39602-3.115.98341 1.3485 1.0253 2.8072.38166 3.8317z" style="clip-rule:evenodd;fill-rule:evenodd;fill:#fdc72b;stroke-width:.43094"/>
  <path id="path474" d="m68.92 43.376c-.43242.45247-1.7224.86478-1.6737.63488.25946-1.2236 1.0464-2.6818 2.584-3.2208-.04719 1.1639-.36217 2.0125-.91033 2.5859z" style="clip-rule:evenodd;fill-rule:evenodd;fill:#fdc72b;stroke-width:.46753"/>
  <path id="path482" d="m41.101 45.085c-.60297.07717-1.8287-.40023-1.6513-.54395.94381-.7649 2.4292-1.3844 3.9192-.85132-.74709.84959-1.5036 1.2976-2.2679 1.3953z" style="clip-rule:evenodd;fill-rule:evenodd;fill:#fdc72b;stroke-width:.4541"/>
  <path id="path490" d="m13.668 44.906c-.60297.05423-1.8049-.46674-1.6231-.60314.96791-.72593 2.4693-1.2869 3.9323-.7006-.7753.81757-1.545 1.2351-2.3092 1.3037z" style="clip-rule:evenodd;fill-rule:evenodd;fill:#fdc72b;stroke-width:.45224"/>
  <path id="path498" d="m-12.896 45.154c-.57304.06652-1.7308-.40014-1.561-.53455.90413-.71534 2.3205-1.2867 3.7286-.76424-.71839.79789-1.4413 1.2146-2.1676 1.2988z" style="clip-rule:evenodd;fill-rule:evenodd;fill:#fdc72b;stroke-width:.43094"/>
  <path id="path902" d="m66.029 44.596c-.09547.09922-.19926.15271-.29632.24293-.40885.38017-.96949.60163-1.4801.6738-.50819.0718-1.2655-.37256-.43837-1.0908.22218-.19293.90887-.19663 1.7299.0498.0907.02722.34207.02671.34207.02671.09921.01638.14685.04891.14289.09758z" style="clip-rule:evenodd;fill:none;stroke-width:.030309"/>
  <path id="path904" d="m66.029 44.596c-.09547.09922-.19926.15271-.29632.24293-.40885.38017-.96949.60163-1.4801.6738-.50819.0718-1.2655-.37256-.43837-1.0908.22218-.19293.90887-.19663 1.7299.0498.0907.02722.34207.02671.34207.02671.09921.01638.14685.04891.14289.09758z" style="clip-rule:evenodd;fill-rule:evenodd;fill:#613e0c;stroke-width:.030309"/>
  <path id="path906" d="m66.029 44.596c-.09547.09922-.19926.15271-.29632.24293-.40885.38017-.96949.60163-1.4801.6738-.50819.0718-1.2655-.37256-.43837-1.0908.22218-.19293.90887-.19663 1.7299.0498.0907.02722.34207.02671.34207.02671.09921.01638.14685.04891.14289.09758z" style="clip-rule:evenodd;fill-rule:evenodd;fill:#613e0c;stroke-width:.030309"/>
  <path id="path908" d="m66.029 44.583c.000525.0043.000622.0087.000231.01331-.09547.09922-.19926.15271-.29632.24293-.40885.38017-.96949.60163-1.4801.6738-.3598.05083-.84447-.15706-.80329-.53769.02412.32822.45959.51249.79334.47308.51219-.06047 1.0777-.26908 1.4952-.6398.09544-.08476.19635-.13531.29101-.22563z" style="clip-rule:evenodd;fill-rule:evenodd;fill:#463012;stroke-width:.030309"/>
  <path id="path910" d="m63.448 45.046c-.01138-.1708.08725-.38206.36649-.62455.22218-.19293.90887-.19663 1.7299.0498.0907.02722.34207.02671.34207.02671.09921.01638.14685.04891.14289.09758-.04766.04953-.09743.08769-.14737.12469-.01102-.0026-.02282-.005-.03552-.0071 0 0-.25318.0059-.3421-.02671-.82638-.3028-1.471-.30208-1.6932-.10916-.17157.14897-.31161.34552-.36316.46871z" style="clip-rule:evenodd;fill-rule:evenodd;fill:#3a2200;stroke-width:.030309"/>
  <path id="path912" d="m65.575 44.479c.10675.01986.31099.01945.31099.01945.09921.01638.14685.04891.14289.09758-.04441.04614-.09063.08239-.1371.11707-.11362.02375-.24544.0581-.3507.003-.02752-.01444-.07712-.02393-.0962-.05043-.0127-.01764.0045-.05002.0088-.06707.01476-.05892.06492-.09622.12135-.11955z" style="clip-rule:evenodd;fill-rule:evenodd;fill:#b98133;stroke-width:.030309"/>
  <path id="path914" d="m65.382 44.819c-.02898-.02711-.89227.08087-.94671.09378-.099.02352-.19381.03853-.28984.07484-.10162.03841-.20264.09626-.16286.22349.04526.14486.24123.14504.35988.14076.15893-.0058.34763-.04539.49043-.11633.08021-.03982.15561-.09089.23727-.12731.07277-.03244.15609-.03846.22603-.07809.04943-.02801.0766-.07924.0911-.13216.0066-.02412.01595-.05914-.0053-.07898z" style="clip-rule:evenodd;fill-rule:evenodd;fill:#997661;stroke-width:.030309"/>
  <path id="path934" d="m66.845 45.253c.04328.13071.04223.24747.07681.37539.14578.53892.08039 1.1382-.09378 1.6236-.17335.48308-.91948.94599-1.1694-.1206-.06713-.2865.24967-.89576.85037-1.5073.06636-.06755.18308-.29019.18308-.29019.06074-.08014.11172-.10712.15293-.08094z" style="clip-rule:evenodd;fill:none;stroke-width:.030309"/>
  <path id="path936" d="m66.845 45.253c.04328.13071.04223.24747.07681.37539.14578.53892.08039 1.1382-.09378 1.6236-.17335.48308-.91948.94599-1.1694-.1206-.06713-.2865.24967-.89576.85037-1.5073.06636-.06755.18308-.29019.18308-.29019.06074-.08014.11172-.10712.15293-.08094z" style="clip-rule:evenodd;fill-rule:evenodd;fill:#613e0c;stroke-width:.030309"/>
  <path id="path938" d="m66.845 45.253c.04328.13071.04223.24747.07681.37539.14578.53892.08039 1.1382-.09378 1.6236-.17335.48308-.91948.94599-1.1694-.1206-.06713-.2865.24967-.89576.85037-1.5073.06636-.06755.18308-.29019.18308-.29019.06074-.08014.11172-.10712.15293-.08094z" style="clip-rule:evenodd;fill-rule:evenodd;fill:#613e0c;stroke-width:.030309"/>
  <path id="path940" d="m66.833 45.247c.004.0015.008.0035.01189.006.04328.13071.04223.24747.07681.37539.14578.53892.08039 1.1382-.09378 1.6236-.12274.34202-.53257.67392-.85013.46008.30162.13165.66763-.16773.78833-.48138.18523-.48134.26428-1.0789.13086-1.621-.0305-.12394-.02819-.23678-.06398-.36264z" style="clip-rule:evenodd;fill-rule:evenodd;fill:#463012;stroke-width:.030309"/>
  <path id="path942" d="m66.041 47.746c-.15641-.06954-.29734-.25527-.38173-.61535-.06713-.2865.24967-.89576.85037-1.5073.06636-.06755.18308-.29019.18308-.29019.06074-.08014.11172-.10712.15293-.08094.02161.06525.03217.12708.04163.1885-.0075.0085-.01505.01787-.02281.02812 0 0-.11281.22673-.18309.29022-.65308.58999-.95291 1.1606-.88578 1.4471.05183.22123.16045.43674.24541.53976z" style="clip-rule:evenodd;fill-rule:evenodd;fill:#3a2200;stroke-width:.030309"/>
  <path id="path944" d="m66.53 45.6c.06733-.08519.16216-.26607.16216-.26607.06074-.08014.11172-.10712.15293-.08094.02012.0608.03065.11859.03967.17586-.03194.11159-.063.24423-.16085.31165-.0256.01762-.05712.05707-.08945.0616-.02153.003-.04217-.02727-.05525-.03902-.04525-.04053-.05487-.10228-.04921-.16309z" style="clip-rule:evenodd;fill-rule:evenodd;fill:#b98133;stroke-width:.030309"/>
  <path id="path946" d="m66.741 45.929c-.03749.013-.34434.82711-.3583.8813-.02534.09855-.05624.18943-.06888.29131-.01338.10781-.0093.22415.12182.24826.14925.02748.24077-.14582.29227-.25278.06895-.14331.12187-.32872.12567-.48812.0022-.08953-.0079-.18003-.002-.26926.0052-.0795.03873-.15603.03627-.23637-.0017-.05679-.0344-.1047-.07447-.1422-.01826-.0171-.04489-.04168-.07234-.03214z" style="clip-rule:evenodd;fill-rule:evenodd;fill:#997661;stroke-width:.030309"/>
  <path id="path966" d="m67.53 44.759c.13685-.01523.25085.01001.38316.0027.55744-.03084 1.1301.1574 1.5688.42845.43662.26977.73473 1.0957-.3605 1.119-.29419.0063-.8245-.43001-1.2981-1.1445-.05232-.07893-.24591-.23928-.24591-.23928-.0658-.07603-.08163-.1315-.04746-.16639z" style="clip-rule:evenodd;fill:none;stroke-width:.030309"/>
  <path id="path968" d="m67.53 44.759c.13685-.01523.25085.01001.38316.0027.55744-.03084 1.1301.1574 1.5688.42845.43662.26977.73473 1.0957-.3605 1.119-.29419.0063-.8245-.43001-1.2981-1.1445-.05232-.07893-.24591-.23928-.24591-.23928-.0658-.07603-.08163-.1315-.04746-.16639z" style="clip-rule:evenodd;fill-rule:evenodd;fill:#613e0c;stroke-width:.030309"/>
  <path id="path970" d="m67.53 44.759c.13685-.01523.25085.01001.38316.0027.55744-.03084 1.1301.1574 1.5688.42845.43662.26977.73473 1.0957-.3605 1.119-.29419.0063-.8245-.43001-1.2981-1.1445-.05232-.07893-.24591-.23928-.24591-.23928-.0658-.07603-.08163-.1315-.04746-.16639z" style="clip-rule:evenodd;fill-rule:evenodd;fill:#613e0c;stroke-width:.030309"/>
  <path id="path972" d="m67.522 44.77c.0023-.0036.0051-.0071.0083-.01038.13685-.01523.25085.01001.38316.0027.55744-.03084 1.1301.1574 1.5688.42845.30913.191.54882.66075.27376.92706.19134-.26776-.02562-.6879-.30742-.87102-.43246-.28103-1.0007-.48229-1.5587-.4642-.12757.0041-.23748-.02153-.36802-.01262z" style="clip-rule:evenodd;fill-rule:evenodd;fill:#463012;stroke-width:.030309"/>
  <path id="path974" d="m69.803 46.063c-.10046.13859-.31139.23794-.68114.24582-.29419.0063-.8245-.43001-1.2981-1.1445-.05232-.07893-.24591-.23928-.24591-.23928-.0658-.07603-.08163-.1315-.04746-.16639.06832-.0076.13098-.0051.19304-.0016.0068.0091.01436.01843.02278.02815 0 0 .1984.15738.24594.2393.44172.76124.93777 1.1729 1.232 1.1666.22716-.0048.46052-.06639.57892-.12813z" style="clip-rule:evenodd;fill-rule:evenodd;fill:#3a2200;stroke-width:.030309"/>
  <path id="path976" d="m67.805 45.139c-.06937-.08353-.22666-.21382-.22666-.21382-.0658-.07603-.08163-.1315-.04746-.16639.06365-.0071.12237-.0054.18026-.0023.10254.05439.22586.11228.27152.22199.01193.0287.04399.06771.04171.10028-.0015.02169-.03543.0356-.04963.04596-.04903.03586-.11144.03247-.16975.01431z" style="clip-rule:evenodd;fill-rule:evenodd;fill:#b98133;stroke-width:.030309"/>
  <path id="path978" d="m68.171 45.001c.0049.03937.73771.50839.78783.53328.09115.04523.17364.0943.27069.1278.10269.03545.21735.05557.26813-.06768.05783-.14031-.09272-.26577-.18667-.33834-.12589-.09717-.29629-.1874-.45144-.22417-.08713-.02068-.17775-.02963-.26383-.05384-.07669-.02159-.1446-.07024-.22371-.0845-.05591-.01008-.10956.01194-.15455.04336-.02051.01432-.05008.03527-.04644.0641z" style="clip-rule:evenodd;fill-rule:evenodd;fill:#997661;stroke-width:.030309"/>
  <path id="path998" d="m67.513 43.878c.01348-.13703.06181-.24332.08211-.37426.08544-.55171.38834-1.0729.7445-1.4459.35445-.37118 1.2242-.49153 1.0199.58472-.05489.28909-.59165.7174-1.3888 1.0326-.08806.03482-.28507.19094-.28507.19094-.08803.0486-.14557.05258-.17262.01192z" style="clip-rule:evenodd;fill:none;stroke-width:.030309"/>
  <path id="path1000" d="m67.513 43.878c.01348-.13703.06181-.24332.08211-.37426.08544-.55171.38834-1.0729.7445-1.4459.35445-.37118 1.2242-.49153 1.0199.58472-.05489.28909-.59165.7174-1.3888 1.0326-.08806.03482-.28507.19094-.28507.19094-.08803.0486-.14557.05258-.17262.01192z" style="clip-rule:evenodd;fill-rule:evenodd;fill:#613e0c;stroke-width:.030309"/>
  <path id="path1002" d="m67.513 43.878c.01348-.13703.06181-.24332.08211-.37426.08544-.55171.38834-1.0729.7445-1.4459.35445-.37118 1.2242-.49153 1.0199.58472-.05489.28909-.59165.7174-1.3888 1.0326-.08806.03482-.28507.19094-.28507.19094-.08803.0486-.14557.05258-.17262.01192z" style="clip-rule:evenodd;fill-rule:evenodd;fill:#613e0c;stroke-width:.030309"/>
  <path id="path1004" d="m67.521 43.888c-.0031-.003-.0059-.0065-.0084-.01031.01348-.13703.06181-.24332.08211-.37426.08544-.55171.38834-1.0729.7445-1.4459.25095-.2628.76021-.39986.96368-.07555-.22226-.24271-.67826-.1176-.91584.1201-.3646.36477-.67933.87888-.77735 1.4285-.02241.12566-.07031.22785-.08867.3574z" style="clip-rule:evenodd;fill-rule:evenodd;fill:#463012;stroke-width:.030309"/>
  <path id="path1006" d="m69.26 41.925c.11474.12702.16819.35396.09921.71731-.05489.28909-.59165.7174-1.3888 1.0326-.08806.03482-.28507.19094-.28507.19094-.08803.0486-.14557.05258-.17262.01192.0067-.06841.02216-.1292.03844-.18918.01028-.0048.021-.01023.03226-.01645 0 0 .1951-.16145.2851-.19096.83629-.27424 1.3419-.67414 1.3968-.96323.0424-.22322.03056-.46428-.0053-.59291z" style="clip-rule:evenodd;fill-rule:evenodd;fill:#3a2200;stroke-width:.030309"/>
  <path id="path1008" d="m67.942 43.688c-.0961.05054-.25617.17739-.25617.17739-.08803.0486-.14557.05258-.17262.01192.0063-.06373.02011-.12083.0351-.17683.07447-.08903.15668-.19766.27347-.21958.03055-.0057.07536-.02899.10675-.02001.0209.006.02748.04204.03467.05808.02491.0554.0086.11575-.0212.16902z" style="clip-rule:evenodd;fill-rule:evenodd;fill:#b98133;stroke-width:.030309"/>
  <path id="path1010" d="m67.882 43.302c.03954.0033.65032-.61624.68507-.6601.06315-.07979.12827-.15031.18116-.2383.05597-.09311.09943-.2011-.01061-.27634-.12526-.08568-.27922.03558-.3697.11245-.12117.103-.24477.25099-.31292.39514-.0383.08095-.06585.16774-.10739.24693-.03702.07055-.0987.12689-.12906.20132-.02145.05261-.01104.10965.01036.16018.0098.02304.02412.05631.05308.05872z" style="clip-rule:evenodd;fill-rule:evenodd;fill:#997661;stroke-width:.030309"/>
  <path id="path1030" d="m38.378 45.079c-.04044.12747-.1078.21871-.15349.33903-.19244.50695-.58533.94101-.99893 1.2236-.41162.28118-1.2623.22011-.85106-.76122.11046-.26359.7068-.56228 1.5277-.70094.09069-.01532.30936-.12392.30936-.12392.09344-.02842.14891-.0206.16641.02348z" style="clip-rule:evenodd;fill:none;stroke-width:.029438"/>
  <path id="path1032" d="m38.378 45.079c-.04044.12747-.1078.21871-.15349.33903-.19244.50695-.58533.94101-.99893 1.2236-.41162.28118-1.2623.22011-.85106-.76122.11046-.26359.7068-.56228 1.5277-.70094.09069-.01532.30936-.12392.30936-.12392.09344-.02842.14891-.0206.16641.02348z" style="clip-rule:evenodd;fill-rule:evenodd;fill:#613e0c;stroke-width:.029438"/>
  <path id="path1034" d="m38.378 45.079c-.04044.12747-.1078.21871-.15349.33903-.19244.50695-.58533.94101-.99893 1.2236-.41162.28118-1.2623.22011-.85106-.76122.11046-.26359.7068-.56228 1.5277-.70094.09069-.01532.30936-.12392.30936-.12392.09344-.02842.14891-.0206.16641.02348z" style="clip-rule:evenodd;fill-rule:evenodd;fill:#613e0c;stroke-width:.029438"/>
  <path id="path1036" d="m38.372 45.067c.0023.0035.0043.0073.0059.01149-.04044.12747-.1078.21871-.15349.33903-.19244.50695-.58533.94101-.99893 1.2236-.29143.19907-.80291.22659-.93082-.12256.16222.27542.6207.24851.89436.07059.41997-.27304.82267-.69802 1.0266-1.2004.04664-.11487.11275-.2023.15632-.32168z" style="clip-rule:evenodd;fill-rule:evenodd;fill:#463012;stroke-width:.029438"/>
  <path id="path1038" d="m36.324 46.582c-.0834-.14382-.08841-.37022.0504-.70152.11046-.26359.7068-.56228 1.5277-.70094.09069-.01532.30936-.12392.30936-.12392.09344-.02842.14891-.0206.16641.02348-.02019.06364-.04711.11828-.07467.17199-.01073.0024-.02202.0055-.03397.0091 0 0-.21793.11405-.30938.12394-.84986.0919-1.4109.36988-1.5213.63348-.0853.20354-.12267.43494-.11455.56439z" style="clip-rule:evenodd;fill-rule:evenodd;fill:#3a2200;stroke-width:.029438"/>
  <path id="path1040" d="m37.932 45.172c.1015-.02864.27916-.11687.27916-.11687.09344-.02842.14891-.0206.16641.02348-.01882.05929-.04347.11074-.06901.16093-.08871.06957-.18872.1562-.3041.15347-.03018-.00073-.07745.01234-.10546-.0025-.01865-.0099-.01763-.04548-.02122-.06217-.0125-.05766.01513-.11172.05423-.15631z" style="clip-rule:evenodd;fill-rule:evenodd;fill:#b98133;stroke-width:.029438"/>
  <path id="path1042" d="m37.911 45.552c-.0369-.01114-.74215.45434-.78401.489-.07609.06307-.15218.11694-.22018.18987-.07196.07717-.13503.17101-.04565.26468.10173.10666.27246.0225.37393-.03228.13589-.07342.28317-.1891.37699-.31232.05271-.06919.09639-.14609.15183-.21295.0494-.05956.11937-.10066.16322-.16525.03099-.04566.03261-.10195.02246-.15428-.0046-.02385-.01156-.05836-.03858-.0665z" style="clip-rule:evenodd;fill-rule:evenodd;fill:#997661;stroke-width:.029438"/>
  <path id="path1062" d="m38.9 43.835c-.08294-.10491-.12079-.21181-.19486-.31706-.31215-.44338-.45164-1.012-.45403-1.5129-.0023-.49848.52473-1.1689 1.1073-.2786.15648.23915.06986.90047-.27512 1.6582-.03811.08371-.07063.32568-.07063.32568-.02879.09332-.06635.1349-.11267.12469z" style="clip-rule:evenodd;fill:none;stroke-width:.029438"/>
  <path id="path1064" d="m38.9 43.835c-.08294-.10491-.12079-.21181-.19486-.31706-.31215-.44338-.45164-1.012-.45403-1.5129-.0023-.49848.52473-1.1689 1.1073-.2786.15648.23915.06986.90047-.27512 1.6582-.03811.08371-.07063.32568-.07063.32568-.02879.09332-.06635.1349-.11267.12469z" style="clip-rule:evenodd;fill-rule:evenodd;fill:#613e0c;stroke-width:.029438"/>
  <path id="path1066" d="m38.9 43.835c-.08294-.10491-.12079-.21181-.19486-.31706-.31215-.44338-.45164-1.012-.45403-1.5129-.0023-.49848.52473-1.1689 1.1073-.2786.15648.23915.06986.90047-.27512 1.6582-.03811.08371-.07063.32568-.07063.32568-.02879.09332-.06635.1349-.11267.12469z" style="clip-rule:evenodd;fill-rule:evenodd;fill:#613e0c;stroke-width:.029438"/>
  <path id="path1068" d="m38.913 43.836c-.0042-5.8e-5-.0085-.000546-.01284-.0015-.08294-.10491-.12079-.21181-.19486-.31706-.31215-.44338-.45164-1.012-.45403-1.5129-.0017-.35292.26205-.79204.62294-.70242-.31902-.0199-.55355.37497-.55946.70133-.0091.50084.1174 1.0725.41934 1.5229.06903.10298.10443.20672.17891.30969z" style="clip-rule:evenodd;fill-rule:evenodd;fill:#463012;stroke-width:.029438"/>
  <path id="path1070" d="m38.806 41.291c.16586.01147.35621.13414.5529.43472.15648.23915.06986.90047-.27512 1.6582-.03811.08371-.07063.32568-.07063.32568-.02879.09332-.06635.1349-.11267.12469-.04141-.05237-.07159-.10528-.10064-.1582.004-.01025.0078-.02131.01147-.03325 0 0 .0276-.24441.07063-.32571.39993-.7555.4839-1.3759.32742-1.6151-.12082-.18467-.29159-.34525-.40336-.41104z" style="clip-rule:evenodd;fill-rule:evenodd;fill:#3a2200;stroke-width:.029438"/>
  <path id="path1072" d="m39.072 43.413c-.03313.10012-.05956.29672-.05956.29672-.02879.09332-.06635.1349-.11267.12469-.03857-.0488-.06739-.09804-.09465-.14731-.0079-.11246-.02368-.24383.04322-.33788.01751-.02459.03316-.07107.06116-.08595.01864-.0099.04755.01087.06339.01724.05477.02195.08407.07511.09911.13248z" style="clip-rule:evenodd;fill-rule:evenodd;fill:#b98133;stroke-width:.029438"/>
  <path id="path1074" d="m38.77 43.183c.02989-.02433.03936-.86928.03409-.92338-.0096-.09836-.01163-.19157-.03395-.28875-.02362-.10284-.06603-.20765-.19369-.18608-.14534.02453-.17126.2131-.18272.32784-.0153.1537-.002.3405.04754.48724.02779.08242.06703.16168.09136.24506.02167.07429.01652.15527.04546.22777.02046.05125.06619.08412.11522.10502.02235.0095.05482.02312.0767.0053z" style="clip-rule:evenodd;fill-rule:evenodd;fill:#997661;stroke-width:.029438"/>
  <path id="path1094" d="m-15.529 45.188c-.04248.11959-.10931.20395-.15654.31659-.19891.4746-.58559.87358-.987 1.1282-.3995.25337-1.2043.16794-.78258-.7495.11329-.24643.68855-.51044 1.4716-.61541.08651-.0116.29742-.10753.29742-.10753.08954-.02394.1419-.01472.15707.02766z" style="clip-rule:evenodd;fill:none;stroke-width:.027936"/>
  <path id="path1096" d="m-15.529 45.188c-.04248.11959-.10931.20395-.15654.31659-.19891.4746-.58559.87358-.987 1.1282-.3995.25337-1.2043.16794-.78258-.7495.11329-.24643.68855-.51044 1.4716-.61541.08651-.0116.29742-.10753.29742-.10753.08954-.02394.1419-.01472.15707.02766z" style="clip-rule:evenodd;fill-rule:evenodd;fill:#613e0c;stroke-width:.027936"/>
  <path id="path1098" d="m-15.529 45.188c-.04248.11959-.10931.20395-.15654.31659-.19891.4746-.58559.87358-.987 1.1282-.3995.25337-1.2043.16794-.78258-.7495.11329-.24643.68855-.51044 1.4716-.61541.08651-.0116.29742-.10753.29742-.10753.08954-.02394.1419-.01472.15707.02766z" style="clip-rule:evenodd;fill-rule:evenodd;fill:#613e0c;stroke-width:.027936"/>
  <path id="path1100" d="m-15.534 45.177c.0021.0034.0038.0071.0053.01109-.04248.11959-.10931.20395-.15654.31659-.19891.4746-.58559.87358-.987 1.1282-.28284.17938-.76885.18894-.87888-.14635.14496.26647.58067.25577.84597.09587.40715-.24538.80284-.63543 1.0125-1.1054.04794-.10744.11348-.18823.15866-.30004z" style="clip-rule:evenodd;fill-rule:evenodd;fill:#463012;stroke-width:.027936"/>
  <path id="path1102" d="m-17.526 46.547c-.07445-.13911-.07188-.35399.07049-.66373.11329-.24643.68855-.51044 1.4716-.61541.08651-.0116.29742-.10753.29742-.10753.08954-.02394.1419-.01472.15707.02766-.0212.05971-.04851.11066-.07639.1607-.01025.002-.02106.0045-.03251.0076 0 0-.21038.10112-.29744.10754-.80903.05968-1.3501.3052-1.4634.55163-.08748.19028-.13041.40856-.1269.53159z" style="clip-rule:evenodd;fill-rule:evenodd;fill:#3a2200;stroke-width:.027936"/>
  <path id="path1104" d="m-15.955 45.262c.09719-.02388.26855-.10182.26855-.10182.08954-.02394.1419-.01472.15707.02766-.01977.05562-.04481.10363-.07066.1504-.08639.06311-.18404.14204-.29339.13572-.0286-.0017-.07386.0092-.09994-.0058-.01737-.01-.01525-.04371-.01812-.05965-.01-.05509.01796-.10547.05649-.1465z" style="clip-rule:evenodd;fill-rule:evenodd;fill:#b98133;stroke-width:.027936"/>
  <path id="path1106" d="m-15.988 45.622c-.03463-.01176-.71858.40692-.7594.43844-.0742.05736-.14812.10599-.21497.17297-.07074.07087-.1336.15783-.05186.24956.09304.10445.25769.03015.3557-.01852.13126-.06524.27469-.1702.36766-.28402.05223-.06391.09615-.13544.15089-.19706.04878-.05489.11647-.09161.16015-.15145.03087-.0423.03422-.09564.02629-.1456-.0036-.02277-.0091-.05573-.03444-.06432z" style="clip-rule:evenodd;fill-rule:evenodd;fill:#997661;stroke-width:.027936"/>
  <path id="path1126" d="m-14.826 45.494c.11344.05692.1889.13365.29484.19443.44641.25597.79461.68894.99774 1.1187.20212.42772.01799 1.2158-.84037.68407-.23056-.14284-.42154-.74629-.42904-1.5364-.00083-.08728-.07-.30842-.07-.30842-.0127-.09181.0029-.14264.04683-.15246z" style="clip-rule:evenodd;fill:none;stroke-width:.027936"/>
  <path id="path1128" d="m-14.826 45.494c.11344.05692.1889.13365.29484.19443.44641.25597.79461.68894.99774 1.1187.20212.42772.01799 1.2158-.84037.68407-.23056-.14284-.42154-.74629-.42904-1.5364-.00083-.08728-.07-.30842-.07-.30842-.0127-.09181.0029-.14264.04683-.15246z" style="clip-rule:evenodd;fill-rule:evenodd;fill:#613e0c;stroke-width:.027936"/>
  <path id="path1130" d="m-14.826 45.494c.11344.05692.1889.13365.29484.19443.44641.25597.79461.68894.99774 1.1187.20212.42772.01799 1.2158-.84037.68407-.23056-.14284-.42154-.74629-.42904-1.5364-.00083-.08728-.07-.30842-.07-.30842-.0127-.09181.0029-.14264.04683-.15246z" style="clip-rule:evenodd;fill-rule:evenodd;fill:#613e0c;stroke-width:.027936"/>
  <path id="path1132" d="m-14.837 45.498c.0036-.0016.0075-.0029.01165-.0038.11344.05692.1889.13365.29484.19443.44641.25597.79461.68894.99774 1.1187.1431.30282.09259.78629-.25372.85409.28232-.11095.3255-.54465.19957-.82767-.19325-.43433-.53147-.87514-.97192-1.1412-.1007-.06084-.17278-.13585-.27816-.19449z" style="clip-rule:evenodd;fill-rule:evenodd;fill:#463012;stroke-width:.027936"/>
  <path id="path1134" d="m-13.724 47.643c-.14723.05671-.36016.02763-.64995-.15188-.23056-.14284-.42154-.74629-.42904-1.5364-.00083-.08728-.07-.30842-.07-.30842-.0127-.09181.0029-.14264.04683-.15246.05663.02841.10382.0618.15005.09564.000691.01042.0019.02145.0035.03319 0 0 .07438.22126.07001.30844-.04064.81021.1362 1.3774.36676 1.5203.17803.1103.38933.17984.51186.19155z" style="clip-rule:evenodd;fill-rule:evenodd;fill:#3a2200;stroke-width:.027936"/>
  <path id="path1136" d="m-14.805 45.926c-.0117-.0994-.06789-.27907-.06789-.27907-.0127-.09181.0029-.14264.04683-.15246.05276.02648.0973.05726.14053.08868.05197.09352.11824.20017.09847.3079-.0052.02817 1.3e-5.07443-.01809.09846-.01206.016-.04526.0097-.06143.01062-.0559.0031-.10245-.03084-.13841-.07414z" style="clip-rule:evenodd;fill-rule:evenodd;fill:#b98133;stroke-width:.027936"/>
  <path id="path1138" d="m-14.452 46.003c-.01594.03292.3151.76332.34135.80772.04776.08072.0869.16007.14511.23467.06159.07895.14013.15206.24125.08227.11514-.07943.06173-.252.02553-.35526-.04854-.13831-.13498-.2936-.23647-.3999-.05698-.05972-.12254-.11213-.17693-.17406-.04845-.05518-.07653-.12689-.13052-.17762-.03817-.03586-.09069-.04577-.14124-.04406-.02304.000773-.05642.0021-.06808.02624z" style="clip-rule:evenodd;fill-rule:evenodd;fill:#997661;stroke-width:.027936"/>
  <path id="path1142" d="m-14.889 29.075c.12144.50165-.09737 3.4226 0 3.6184.0934.18785 1.955.18256 1.955.24871 0 .08467-1.6923 3.2094-2.9099 4.1249-.49292.36777-3.1446-3.6794-3.0454-3.9158.11245-.11377 1.8005-.24606 1.8005-.14023 0 .13494-.26749-2.4929-.16325-3.4327z" style="clip-rule:evenodd;fill-rule:evenodd;fill:#006e1e;stroke-linecap:round;stroke-linejoin:round;stroke-miterlimit:1.5;stroke-width:.48419px;stroke:#006e1e"/>
  <path id="path1146" d="m12.424 29.075c.12144.50165-.09737 3.4226 0 3.6184.0934.18785 1.955.18256 1.955.24871 0 .08467-1.6923 3.2094-2.9099 4.1249-.49292.36777-3.035-3.3782-3.0454-3.9158.11245-.11377 1.8005-.24606 1.8005-.14023 0 .13494-.26749-2.4929-.16325-3.4327z" style="clip-rule:evenodd;fill-rule:evenodd;fill:#006e1e;stroke-linecap:round;stroke-linejoin:round;stroke-miterlimit:1.5;stroke-width:.48419px;stroke:#006e1e"/>
  <path id="path1150" d="m39.737 29.075c.12144.50165-.09737 3.4226 0 3.6184.0934.18785 1.955.18256 1.955.24871 0 .08467-1.6923 3.2094-2.9099 4.1249-.49292.36777-3.2265-3.4505-3.0454-3.9158.11245-.11377 1.8005-.24606 1.8005-.14023 0 .13494-.26749-2.4929-.16325-3.4327z" style="clip-rule:evenodd;fill-rule:evenodd;fill:#006e1e;stroke-linecap:round;stroke-linejoin:round;stroke-miterlimit:1.5;stroke-width:.48419px;stroke:#006e1e"/>
  <path id="path1154" d="m67.05 29.075c.12144.50165-.09737 3.4226 0 3.6184.0934.18785 1.955.18256 1.955.24871 0 .08467-1.6923 3.2094-2.9099 4.1249-.49292.36777-3.1993-3.3417-3.0454-3.9158.11245-.11377 1.8005-.24606 1.8005-.14023 0 .13494-.26749-2.4929-.16325-3.4327z" style="clip-rule:evenodd;fill-rule:evenodd;fill:#006e1e;stroke-linecap:round;stroke-linejoin:round;stroke-miterlimit:1.5;stroke-width:.48419px;stroke:#006e1e"/>
  <path id="path1158" d="m-13.234 9.256c3.2201 1.3098 6.9294 4.5144 7.9609 8.2658 1.0821 3.4841-.78358 8.4593-2.5932 9.8049-3.0278 3.979-10.56 3.5634-13.222 2.5385-6.8245-3.5845-7.3224-12.109-3.2992-17.985 4.6717-4.3994 10.235-2.9985 11.154-2.6246z" style="clip-rule:evenodd;fill-rule:evenodd;fill:#fffce3;stroke-width:.54907px;stroke:#006e1e"/>
  <path id="path1162" d="m18.899 28.027c-2.7444 2.1338-7.7757 2.9963-11.54 2.0139-1.9745-.51576-6.7611-6.1672-7.0216-8.4072-.32627-2.8009 1.3422-8.2545 3.5609-10.048 7.3279-5.3007 14.062-3.1213 18.337 4.6132 1.7247 6.3163-2.5526 11.219-3.3358 11.828z" style="clip-rule:evenodd;fill-rule:evenodd;fill:#fffce3;stroke-width:.54907px;stroke:#006e1e"/>
  <path id="path1166" d="m36.594 9.9768c3.4436-.47579 8.3772.52135 11.146 3.2543 1.4521 1.4339 3.2668 7.5447 1.8309 10.914-1.1179 2.5888-4.4745 6.5104-7.2925 6.954-6.2249.41828-10.549-.64115-12.861-6.2661-1.7186-3.3219-1.1273-4.4329-1.1191-7.0992.0081-2.6663 3.9773-7.568 8.2959-7.7576z" style="clip-rule:evenodd;fill-rule:evenodd;fill:#fffce3;stroke-width:.54907px;stroke:#006e1e"/>
  <path id="path1170" d="m73.141 28.979c-2.7443 2.1338-7.4507 2.9963-11.215 2.0139-2.4447-.35903-6.9393-6.4688-6.805-8.8404-.32627-2.8008.80071-7.0631 3.0194-8.8562 6.7615-4.9375 13.737-4.1186 16.574 1.0227 5.3283 8.9319-.79016 14.051-1.5734 14.66z" style="clip-rule:evenodd;fill-rule:evenodd;fill:#fffce3;stroke-width:.54906px;stroke:#006e1e"/>
  <path id="path1174" d="m-15.471 19.682c-.15134-.75697.0651-1.4391.17498-2.144.10845-.6989.63359-1.1441 1.3422-1.6353.44262 1.9069-.14123 3.1131-1.5172 3.7793z" style="clip-rule:evenodd;fill-rule:evenodd;fill:#f3dfa6;stroke-width:.43922"/>
  <path id="path1178" d="m11.841 19.682c-.15134-.75697.0651-1.4391.17498-2.144.10845-.6989.63359-1.1441 1.3422-1.6353.44262 1.9069-.14123 3.1131-1.5172 3.7793z" style="clip-rule:evenodd;fill-rule:evenodd;fill:#f3dfa6;stroke-width:.43922"/>
  <path id="path1182" d="m39.154 19.682c-.15134-.75697.0651-1.4391.17498-2.144.10845-.6989.63359-1.1441 1.3422-1.6353.44262 1.9069-.14123 3.1131-1.5172 3.7793z" style="clip-rule:evenodd;fill-rule:evenodd;fill:#f3dfa6;stroke-width:.43922"/>
  <path id="path1186" d="m66.467 19.682c-.15134-.75697.0651-1.4391.17498-2.144.10845-.6989.63359-1.1441 1.3422-1.6353.44262 1.9069-.14123 3.1131-1.5172 3.7793z" style="clip-rule:evenodd;fill-rule:evenodd;fill:#f3dfa6;stroke-width:.43922"/>
  <path id="path1190" d="m-15.394 19.954c.66893-.24103.86081-.23721 1.5851-.27198.69373-.03344 1.7352.5306 2.3771 1.2135-1.8204.71981-3.0997.3208-3.9622-.94151z" style="clip-rule:evenodd;fill-rule:evenodd;fill:#f3dfa6;stroke-width:.43922"/>
  <path id="path1194" d="m11.919 19.954c.66893-.24103.86081-.23721 1.5851-.27198.69373-.03344 1.7352.5306 2.3771 1.2135-1.8204.71981-3.0997.3208-3.9622-.94151z" style="clip-rule:evenodd;fill-rule:evenodd;fill:#f3dfa6;stroke-width:.43922"/>
  <path id="path1198" d="m39.232 19.954c.66893-.24103.86081-.23721 1.5851-.27198.69373-.03344 1.7352.5306 2.3771 1.2135-1.8204.71981-3.0997.3208-3.9622-.94151z" style="clip-rule:evenodd;fill-rule:evenodd;fill:#f3dfa6;stroke-width:.43922"/>
  <path id="path1202" d="m66.544 19.954c.66893-.24103.86081-.23721 1.5851-.27198.69373-.03344 1.7352.5306 2.3771 1.2135-1.8204.71981-3.0997.3208-3.9622-.94151z" style="clip-rule:evenodd;fill-rule:evenodd;fill:#f3dfa6;stroke-width:.43922"/>
  <path id="path1206" d="m-15.542 20.467c.72414.69356 1.2912 1.1059.80217 3.2038-.01006.0423-.22938.77752-.50502.69192-.20136-.06247-.41591-.55007-.52748-.80376-.56912-1.2951-.4361-2.0931.23034-3.0919z" style="clip-rule:evenodd;fill-rule:evenodd;fill:#f3dfa6;stroke-width:.39785"/>
  <path id="path1210" d="m11.771 20.467c.72414.69356 1.2912 1.1059.80217 3.2038-.01006.0423-.22938.77752-.50502.69192-.20136-.06247-.41591-.55007-.52748-.80376-.56912-1.2951-.4361-2.0931.23034-3.0919z" style="clip-rule:evenodd;fill-rule:evenodd;fill:#f3dfa6;stroke-width:.39785"/>
  <path id="path1214" d="m39.083 20.467c.72414.69356 1.2912 1.1059.80217 3.2038-.01006.0423-.22938.77752-.50502.69192-.20136-.06247-.41591-.55007-.52748-.80376-.56912-1.2951-.4361-2.0931.23034-3.0919z" style="clip-rule:evenodd;fill-rule:evenodd;fill:#f3dfa6;stroke-width:.39785"/>
  <path id="path1218" d="m66.396 20.467c.72414.69356 1.2912 1.1059.80217 3.2038-.01006.0423-.22938.77752-.50502.69192-.20136-.06247-.41591-.55007-.52748-.80376-.56912-1.2951-.4361-2.0931.23034-3.0919z" style="clip-rule:evenodd;fill-rule:evenodd;fill:#f3dfa6;stroke-width:.39785"/>
  <path id="path1222" d="m-16.297 20.091c.18394-.0278.11711.78572-.03562 1.0773-.48181.91906-1.3034 1.5633-2.6681 1.7675.38636-1.6566 1.4845-2.6598 2.7037-2.8449z" style="clip-rule:evenodd;fill-rule:evenodd;fill:#f3dfa6;stroke-width:.43922"/>
  <path id="path1226" d="m11.016 20.091c.18394-.0278.11711.78572-.03562 1.0773-.48181.91906-1.3034 1.5633-2.6681 1.7675.38636-1.6566 1.4845-2.6598 2.7037-2.8449z" style="clip-rule:evenodd;fill-rule:evenodd;fill:#f3dfa6;stroke-width:.43922"/>
  <path id="path1230" d="m38.329 20.091c.18394-.0278.11711.78572-.03562 1.0773-.48181.91906-1.3034 1.5633-2.6681 1.7675.38636-1.6566 1.4845-2.6598 2.7037-2.8449z" style="clip-rule:evenodd;fill-rule:evenodd;fill:#f3dfa6;stroke-width:.43922"/>
  <path id="path1234" d="m65.642 20.091c.18394-.0278.11711.78572-.03562 1.0773-.48181.91906-1.3034 1.5633-2.6681 1.7675.38636-1.6566 1.4845-2.6598 2.7037-2.8449z" style="clip-rule:evenodd;fill-rule:evenodd;fill:#f3dfa6;stroke-width:.43922"/>
  <path id="path1238" d="m-16.811 18.085c.43275.39806.84312 1.6024.62631 1.5607-1.1539-.22179-2.5377-.93485-3.0716-2.3694 1.094.02348 1.8968.30414 2.4452.80875z" style="clip-rule:evenodd;fill-rule:evenodd;fill:#f3dfa6;stroke-width:.43922"/>
  <path id="path1242" d="m10.502 18.085c.43275.39806.84312 1.6024.62631 1.5607-1.1539-.22179-2.5377-.93485-3.0716-2.3694 1.094.02348 1.8968.30414 2.4452.80875z" style="clip-rule:evenodd;fill-rule:evenodd;fill:#f3dfa6;stroke-width:.43922"/>
  <path id="path1246" d="m37.814 18.085c.43275.39806.84312 1.6024.62631 1.5607-1.1539-.22179-2.5377-.93485-3.0716-2.3694 1.094.02348 1.8968.30414 2.4452.80875z" style="clip-rule:evenodd;fill-rule:evenodd;fill:#f3dfa6;stroke-width:.43922"/>
  <path id="path1250" d="m65.127 18.085c.43275.39806.84312 1.6024.62631 1.5607-1.1539-.22179-2.5377-.93485-3.0716-2.3694 1.094.02348 1.8968.30414 2.4452.80875z" style="clip-rule:evenodd;fill-rule:evenodd;fill:#f3dfa6;stroke-width:.43922"/>
  <path id="path1254" d="m-15.82 14.82c-.59292-.06765-1.2124.02758-1.7355.36333-.52313.33575-.91067.95106-.95004 1.6902a.64568.64568 0 00.61055.67899.64568.64568 0 00.67899-.61055c.01998-.37508.14715-.53614.35833-.67168s.54552-.20669.89122-.16725c.34569.03944.68617.18747.90237.38717s.32889.41746.30797.76319c.000984-.01744-.04387.15679-.16802.36871-.12414.21192-.30757.4736-.50636.74819-.39758.54919-.85958 1.1054-1.0731 1.7505a.64574.64574 0 00-.03268.20262v2.308a.64568.64568 0 00.64554.64554.64568.64568 0 00.64592-.64554v-2.1562c.09926-.25626.46734-.80549.86008-1.348.20382-.28154.40707-.56607.57479-.85239.16773-.28632.31995-.56247.34296-.94389.04385-.72456-.26484-1.3685-.7209-1.7897-.45605-.42125-1.0392-.65363-1.6321-.72128z" style="-inkscape-stroke:none;color:#000000;fill:#006e1e;stroke-linecap:round;stroke-linejoin:round;stroke-miterlimit:1.5;stroke-width:.19685"/>
  <path id="path1258" d="m11.492 14.82c-.59292-.06765-1.2124.02758-1.7355.36333-.52313.33575-.91067.95106-.95004 1.6902a.64568.64568 0 00.61055.67899.64568.64568 0 00.67899-.61055c.01998-.37508.14715-.53614.35833-.67168s.54552-.20669.89122-.16725c.34569.03944.68617.18747.90237.38717s.32889.41746.30797.76319c.000984-.01744-.04387.15679-.16802.36871-.12414.21192-.30757.4736-.50636.74819-.39758.54919-.85958 1.1054-1.0731 1.7505a.64574.64574 0 00-.03268.20262v2.308a.64568.64568 0 00.64554.64554.64568.64568 0 00.64592-.64554v-2.1562c.09926-.25626.46734-.80549.86008-1.348.20382-.28154.40707-.56607.57479-.85239.16773-.28632.31995-.56247.34296-.94389.04384-.72456-.26484-1.3685-.7209-1.7897-.45605-.42125-1.0392-.65363-1.6321-.72128z" style="-inkscape-stroke:none;color:#000000;fill:#006e1e;stroke-linecap:round;stroke-linejoin:round;stroke-miterlimit:1.5;stroke-width:.19685"/>
  <path id="path1262" d="m38.805 14.82c-.59292-.06765-1.2124.02758-1.7355.36333-.52313.33575-.91067.95106-.95004 1.6902a.64568.64568 0 00.61055.67899.64568.64568 0 00.67899-.61055c.01998-.37508.14715-.53614.35833-.67168.21119-.13554.54553-.20669.89122-.16725.3457.03944.68617.18747.90237.38717s.32889.41746.30797.76319c.000984-.01744-.04387.15679-.16802.36871-.12414.21192-.30757.4736-.50636.74819-.39758.54919-.85958 1.1054-1.0731 1.7505a.64574.64574 0 00-.03268.20262v2.308a.64568.64568 0 00.64554.64554.64568.64568 0 00.64592-.64554v-2.1562c.09926-.25626.46734-.80549.86008-1.348.20382-.28154.40707-.56607.57479-.85239s.31995-.56247.34295-.94389c.04385-.72456-.26484-1.3685-.7209-1.7897-.45605-.42125-1.0392-.65363-1.6321-.72128z" style="-inkscape-stroke:none;color:#000000;fill:#006e1e;stroke-linecap:round;stroke-linejoin:round;stroke-miterlimit:1.5;stroke-width:.19685"/>
  <path id="path1266" d="m66.118 14.82c-.59292-.06765-1.2124.02758-1.7355.36333-.52313.33575-.91067.95106-.95004 1.6902a.64568.64568 0 00.61055.67899.64568.64568 0 00.67899-.61055c.01998-.37508.14715-.53614.35833-.67168s.54552-.20669.89122-.16725c.34569.03944.68617.18747.90237.38717s.32889.41746.30797.76319c.000984-.01744-.04387.15679-.16802.36871-.12414.21192-.30757.4736-.50636.74819-.39758.54919-.85958 1.1054-1.0731 1.7505a.64574.64574 0 00-.03268.20262v2.308a.64568.64568 0 00.64554.64554.64568.64568 0 00.64592-.64554v-2.1562c.09926-.25626.46734-.80549.86008-1.348.20382-.28154.40707-.56607.57479-.85239.16773-.28632.31995-.56247.34296-.94389.04385-.72456-.26484-1.3685-.7209-1.7897-.45605-.42125-1.0392-.65363-1.6321-.72128z" style="-inkscape-stroke:none;color:#000000;fill:#006e1e;stroke-linecap:round;stroke-linejoin:round;stroke-miterlimit:1.5;stroke-width:.19685"/>
  <ellipse id="ellipse1270" cx="-15.895" cy="24.693" rx=".58298" ry=".6362" style="clip-rule:evenodd;fill-rule:evenodd;fill:#006e1e;stroke-width:.26374"/>
  <ellipse id="ellipse1274" cx="11.418" cy="24.693" rx=".58298" ry=".6362" style="clip-rule:evenodd;fill-rule:evenodd;fill:#006e1e;stroke-width:.26374"/>
  <ellipse id="ellipse1278" cx="38.731" cy="24.693" rx=".58298" ry=".6362" style="clip-rule:evenodd;fill-rule:evenodd;fill:#006e1e;stroke-width:.26374"/>
  <ellipse id="ellipse1282" cx="66.044" cy="24.693" rx=".58298" ry=".6362" style="clip-rule:evenodd;fill-rule:evenodd;fill:#006e1e;stroke-width:.26374"/>
 </g>
 <g id="container0" transform="matrix(.99611 0 0 .99611 37.176 22.795)">
  <circle id="path6131-5" cx="66.015" cy="20.806" r="12.5" style="-inkscape-stroke:none;fill:none;paint-order:fill markers stroke;stop-color:#000000;stroke-miterlimit:2;stroke-width:.29952"/>
 </g>
 <g id="container1" transform="matrix(.99611 0 0 .99611 37.176 22.795)">
  <circle id="path6131-5-1" cx="39.05" cy="20.699" r="12.5" style="-inkscape-stroke:none;fill:none;paint-order:fill markers stroke;stop-color:#000000;stroke-miterlimit:2;stroke-width:.29952"/>
 </g>
 <g id="container2" transform="matrix(.99611 0 0 .99611 37.176 22.795)">
  <circle id="path6131-5-3" cx="11.478" cy="19.872" r="12.5" style="-inkscape-stroke:none;fill:none;paint-order:fill markers stroke;stop-color:#000000;stroke-miterlimit:2;stroke-width:.29952"/>
 </g>
 <g id="container3" transform="matrix(.99611 0 0 .99611 37.176 22.795)">
  <circle id="path6131-5-9" cx="-15.992" cy="19.976" r="12.5" style="-inkscape-stroke:none;fill:none;paint-order:fill markers stroke;stop-color:#000000;stroke-miterlimit:2;stroke-width:.29952"/>
 </g>
 <g id="container4" transform="matrix(.26458 0 0 .26458 60.311 -208.84)" style="clip-rule:evenodd;fill-rule:evenodd">
  <path id="path80" d="m151.32 821.71c6.3008-9.8037 39.796-9.4244 43.377-8.0227 12.548 4.9099 28.268 13.269 32.287 27.331 2.1066 7.377-.0942 12.658-3.172 19.016-1.1649 2.4106-1.9694 5.1628-3.4168 7.4281-1.4905 2.3379-4.2616 4.0759-6.239 5.943-2.0904 1.972-3.9387 4.197-6.239 5.943-8.628 6.5457-22.903 10.971-33.277 7.1295-10.95-4.0571-18.456-8.967-25.104-18.569-2.303-3.3253-4.6355-6.3385-5.795-10.25-1.3613-4.5952.12914-9.5105.74523-14.114.94432-7.0945 2.8922-15.706 6.8335-21.835z" style="fill:#e8e6d4;stroke-width:2.6904"/>
  <path id="path84" d="m185.24 845.21c-.50237-2.5128.21611-4.7772.58088-7.1171.36002-2.3201 2.1033-3.7981 4.4557-5.4287 1.4693 6.3301-.46882 10.334-5.0366 12.546z" style="fill:#cac8b5;stroke-width:1.458"/>
  <path id="path88" d="m185.5 846.12c2.2206-.80012 2.8576-.78745 5.2618-.90286 2.3029-.111 5.7601 1.7614 7.8909 4.0283-6.0432 2.3895-10.29 1.0649-13.153-3.1254z" style="fill:#cac8b5;stroke-width:1.458"/>
  <path id="path92" d="m185.01 847.82c2.4039 2.3023 4.2863 3.671 2.6629 10.635-.0334.14041-.76146 2.5811-1.6765 2.2969-.66846-.20738-1.3807-1.826-1.751-2.6682-1.8893-4.2993-1.4477-6.9484.76465-10.264z" style="fill:#cac8b5;stroke-width:1.3207"/>
  <path id="path96" d="m182.51 846.57c.6106-.0923.38876 2.6083-.11825 3.5762-1.5994 3.0509-4.3269 5.1894-8.8569 5.8676 1.2826-5.4992 4.9279-8.8294 8.9752-9.4438z" style="fill:#cac8b5;stroke-width:1.458"/>
  <path id="path100" d="m180.79 839.92c1.4365 1.3214 2.7988 5.3192 2.0791 5.1809-3.8306-.73627-8.4241-3.1034-10.196-7.8656 3.6318.0779 6.2968 1.0096 8.1172 2.6847z" style="fill:#cac8b5;stroke-width:1.458"/>
 </g>
 <g id="container5" transform="matrix(.26458 0 0 .26458 25.903 -208.55)" style="clip-rule:evenodd;fill-rule:evenodd">
  <path id="path54" d="m151.32 821.71c6.3008-9.8037 39.796-9.4244 43.377-8.0227 12.548 4.9099 28.268 13.269 32.287 27.331 2.1066 7.377-.0942 12.658-3.172 19.016-1.1649 2.4106-1.9694 5.1628-3.4168 7.4281-1.4905 2.3379-4.2616 4.0759-6.239 5.943-2.0904 1.972-3.9387 4.197-6.239 5.943-8.628 6.5457-22.903 10.971-33.277 7.1295-10.95-4.0571-18.456-8.967-25.104-18.569-2.303-3.3253-4.6355-6.3385-5.795-10.25-1.3613-4.5952.12914-9.5105.74523-14.114.94432-7.0945 2.8922-15.706 6.8335-21.835z" style="fill:#e8e6d4;stroke-width:2.6904"/>
  <path id="path58" d="m185.24 845.21c-.50237-2.5128.21611-4.7772.58088-7.1171.36002-2.3201 2.1033-3.7981 4.4557-5.4287 1.4693 6.3301-.46882 10.334-5.0366 12.546z" style="fill:#cac8b5;stroke-width:1.458"/>
  <path id="path62" d="m185.5 846.12c2.2206-.80012 2.8576-.78745 5.2618-.90286 2.3029-.111 5.7601 1.7614 7.8909 4.0283-6.0432 2.3895-10.29 1.0649-13.153-3.1254z" style="fill:#cac8b5;stroke-width:1.458"/>
  <path id="path66" d="m185.01 847.82c2.4039 2.3023 4.2863 3.671 2.6629 10.635-.0334.14041-.76146 2.5811-1.6765 2.2969-.66846-.20738-1.3807-1.826-1.751-2.6682-1.8893-4.2993-1.4477-6.9484.76465-10.264z" style="fill:#cac8b5;stroke-width:1.3207"/>
  <path id="path70" d="m182.51 846.57c.6106-.0923.38876 2.6083-.11825 3.5762-1.5994 3.0509-4.3269 5.1894-8.8569 5.8676 1.2826-5.4992 4.9279-8.8294 8.9752-9.4438z" style="fill:#cac8b5;stroke-width:1.458"/>
  <path id="path74" d="m180.79 839.92c1.4365 1.3214 2.7988 5.3192 2.0791 5.1809-3.8306-.73627-8.4241-3.1034-10.196-7.8656 3.6318.0779 6.2968 1.0096 8.1172 2.6847z" style="fill:#cac8b5;stroke-width:1.458"/>
 </g>
 <g id="container6" transform="matrix(.26458 0 0 .26458 -6.823 -215.1)" style="clip-rule:evenodd;fill-rule:evenodd">
  <path id="path28" d="m151.32 821.71c6.3008-9.8037 39.796-9.4244 43.377-8.0227 12.548 4.9099 28.268 13.269 32.287 27.331 2.1066 7.377-.0942 12.658-3.172 19.016-1.1649 2.4106-1.9694 5.1628-3.4168 7.4281-1.4905 2.3379-4.2616 4.0759-6.239 5.943-2.0904 1.972-3.9387 4.197-6.239 5.943-8.628 6.5457-22.903 10.971-33.277 7.1295-10.95-4.0571-18.456-8.967-25.104-18.569-2.303-3.3253-4.6355-6.3385-5.795-10.25-1.3613-4.5952.12914-9.5105.74523-14.114.94432-7.0945 2.8922-15.706 6.8335-21.835z" style="fill:#e8e6d4;stroke-width:2.6904"/>
  <path id="path32" d="m185.24 845.21c-.50237-2.5128.21611-4.7772.58088-7.1171.36002-2.3201 2.1033-3.7981 4.4557-5.4287 1.4693 6.3301-.46882 10.334-5.0366 12.546z" style="fill:#cac8b5;stroke-width:1.458"/>
  <path id="path36" d="m185.5 846.12c2.2206-.80012 2.8576-.78745 5.2618-.90286 2.3029-.111 5.7601 1.7614 7.8909 4.0283-6.0432 2.3895-10.29 1.0649-13.153-3.1254z" style="fill:#cac8b5;stroke-width:1.458"/>
  <path id="path40" d="m185.01 847.82c2.4039 2.3023 4.2863 3.671 2.6629 10.635-.0334.14041-.76146 2.5811-1.6765 2.2969-.66846-.20738-1.3807-1.826-1.751-2.6682-1.8893-4.2993-1.4477-6.9484.76465-10.264z" style="fill:#cac8b5;stroke-width:1.3207"/>
  <path id="path44" d="m182.51 846.57c.6106-.0923.38876 2.6083-.11825 3.5762-1.5994 3.0509-4.3269 5.1894-8.8569 5.8676 1.2826-5.4992 4.9279-8.8294 8.9752-9.4438z" style="fill:#cac8b5;stroke-width:1.458"/>
  <path id="path48" d="m180.79 839.92c1.4365 1.3214 2.7988 5.3192 2.0791 5.1809-3.8306-.73627-8.4241-3.1034-10.196-7.8656 3.6318.0779 6.2968 1.0096 8.1172 2.6847z" style="fill:#cac8b5;stroke-width:1.458"/>
 </g>
 <g id="container7" transform="matrix(.26458 0 0 .26458 -37.885 -205.18)" style="clip-rule:evenodd;fill-rule:evenodd">
  <path id="path2" d="m151.32 821.71c6.3008-9.8037 39.796-9.4244 43.377-8.0227 12.548 4.9099 28.268 13.269 32.287 27.331 2.1066 7.377-.0942 12.658-3.172 19.016-1.1649 2.4106-1.9694 5.1628-3.4168 7.4281-1.4905 2.3379-4.2616 4.0759-6.239 5.943-2.0904 1.972-3.9387 4.197-6.239 5.943-8.628 6.5457-22.903 10.971-33.277 7.1295-10.95-4.0571-18.456-8.967-25.104-18.569-2.303-3.3253-4.6355-6.3385-5.795-10.25-1.3613-4.5952.12914-9.5105.74523-14.114.94432-7.0945 2.8922-15.706 6.8335-21.835z" style="fill:#e8e6d4;stroke-width:2.6904"/>
  <path id="path6" d="m185.24 845.21c-.50237-2.5128.21611-4.7772.58088-7.1171.36002-2.3201 2.1033-3.7981 4.4557-5.4287 1.4693 6.3301-.46882 10.334-5.0366 12.546z" style="fill:#cac8b5;stroke-width:1.458"/>
  <path id="path10" d="m185.5 846.12c2.2206-.80012 2.8576-.78745 5.2618-.90286 2.3029-.111 5.7601 1.7614 7.8909 4.0283-6.0432 2.3895-10.29 1.0649-13.153-3.1254z" style="fill:#cac8b5;stroke-width:1.458"/>
  <path id="path14" d="m185.01 847.82c2.4039 2.3023 4.2863 3.671 2.6629 10.635-.0334.14041-.76146 2.5811-1.6765 2.2969-.66846-.20738-1.3807-1.826-1.751-2.6682-1.8893-4.2993-1.4477-6.9484.76465-10.264z" style="fill:#cac8b5;stroke-width:1.3207"/>
  <path id="path18" d="m182.51 846.57c.6106-.0923.38876 2.6083-.11825 3.5762-1.5994 3.0509-4.3269 5.1894-8.8569 5.8676 1.2826-5.4992 4.9279-8.8294 8.9752-9.4438z" style="fill:#cac8b5;stroke-width:1.458"/>
  <path id="path22" d="m180.79 839.92c1.4365 1.3214 2.7988 5.3192 2.0791 5.1809-3.8306-.73627-8.4241-3.1034-10.196-7.8656 3.6318.0779 6.2968 1.0096 8.1172 2.6847z" style="fill:#cac8b5;stroke-width:1.458"/>
 </g>
 <g id="draggable0" transform="matrix(.99611 0 0 .99611 37.176 22.795)">
  <path id="path134" d="m65.394-13.208c1.4463-2.2494 7.0154-2.708 8.7944-2.1086 2.9302.98704 6.5846 3.3296 7.5068 6.5562.48333 1.6926-.0216 2.9043-.72778 4.363-.26728.55309-.45185 1.1846-.78395 1.7043-.34198.53642-.97778.93518-1.4315 1.3636-.47963.45247-.9037.96296-1.4315 1.3636-1.9796 1.5019-4.513 2.3716-6.8932 1.4901-2.513-.93086-4.9765-1.9117-6.5018-4.1148-.5284-.76296-1.0636-1.4543-1.3296-2.3518-.31234-1.0543.02963-2.1821.17099-3.2383.21667-1.6278 1.7235-3.6204 2.6272-5.0272z" style="clip-rule:evenodd;fill-rule:evenodd;fill:#fef388;stroke-width:.48148px;stroke:#aa0000"/>
  <path id="path210" d="m72.083-7.9868c-.51205-.98554.28435-3.1443 1.4388-3.4102.45803 1.9706-.01659 2.7215-1.4388 3.4102z" style="clip-rule:evenodd;fill-rule:evenodd;fill:#fdc72b;stroke-width:.45397"/>
  <path id="path274" d="m72.164-7.7057c.69138-.24912.88972-.24518 1.6383-.28111.71702-.034563 1.7934.54841 2.4569 1.2542-1.8816.74398-3.2038.33157-4.0952-.97312z" style="clip-rule:evenodd;fill-rule:evenodd;fill:#fdc72b;stroke-width:.45397"/>
  <path id="path338" d="m72.01-7.176c.74845.71684 1.3346 1.143.82911 3.3113-.01039.043717-.23708.80363-.52198.71516-.20813-.064569-.42988-.56854-.54519-.83074-.58824-1.3386-.45075-2.1634.23807-3.1958z" style="clip-rule:evenodd;fill-rule:evenodd;fill:#fdc72b;stroke-width:.41121"/>
  <path id="path402" d="m71.23-7.5641c.19011-.028732.12104.81211-.03682 1.1135-.49799.94993-1.3472 1.6158-2.7577 1.8269.39933-1.7122 1.5343-2.7491 2.7945-2.9404z" style="clip-rule:evenodd;fill-rule:evenodd;fill:#fdc72b;stroke-width:.45397"/>
  <path id="path466" d="m70.698-9.6358c.44728.41143.87143 1.6562.64733 1.6131-1.1927-.22924-2.6229-.96624-3.1747-2.449 1.1308.02427 1.9605.31435 2.5273.83591z" style="clip-rule:evenodd;fill-rule:evenodd;fill:#fdc72b;stroke-width:.45397"/>
  <path id="path806" d="m71.148-7.4518c-.0053.1336-.04604.23938-.05825.36747-.05135.53966-.31524 1.0621-.6392 1.444-.32241.38001-1.1586.54627-1.0219-.50862.03672-.28335.53259-.72913 1.2873-1.0801.08338-.03877.26544-.20135.26544-.20135.08255-.05213.13811-.05927.16664-.021401z" style="clip-rule:evenodd;fill:none;stroke-width:.02943"/>
  <path id="path808" d="m71.148-7.4518c-.0053.1336-.04604.23938-.05825.36747-.05135.53966-.31524 1.0621-.6392 1.444-.32241.38001-1.1586.54627-1.0219-.50862.03672-.28335.53259-.72913 1.2873-1.0801.08338-.03877.26544-.20135.26544-.20135.08255-.05213.13811-.05927.16664-.021401z" style="clip-rule:evenodd;fill-rule:evenodd;fill:#613e0c;stroke-width:.02943"/>
  <path id="path810" d="m71.148-7.4518c-.0053.1336-.04604.23938-.05825.36747-.05135.53966-.31524 1.0621-.6392 1.444-.32241.38001-1.1586.54627-1.0219-.50862.03672-.28335.53259-.72913 1.2873-1.0801.08338-.03877.26544-.20135.26544-.20135.08255-.05213.13811-.05927.16664-.021401z" style="clip-rule:evenodd;fill-rule:evenodd;fill:#613e0c;stroke-width:.02943"/>
  <path id="path812" d="m71.139-7.4614c.0031.00277.0061.00592.0088.00951-.0053.1336-.04604.23938-.05825.36747-.05135.53966-.31524 1.0621-.6392 1.444-.22827.26905-.71408.43094-.92981.12819.22928.22259.66416.075306.8809-.16865.33262-.37438.60837-.89066.67204-1.429.01456-.12308.05516-.22487.06557-.35149z" style="clip-rule:evenodd;fill-rule:evenodd;fill:#463012;stroke-width:.02943"/>
  <path id="path814" d="m69.566-5.4594c-.11847-.11658-.18322-.33351-.13708-.68965.03672-.28335.53259-.72913 1.2873-1.0801.08338-.03877.26544-.20135.26544-.20135.08255-.05213.13811-.05927.16664-.021401-.0026.066694-.01411.1265-.02647.18557-.0097.0052-.01978.011112-.03033.017784 0 0-.17991.16763-.26546.20136-.795.31353-1.2623.72999-1.299 1.0133-.02837.2188-.0031.45178.03894.57442z" style="clip-rule:evenodd;fill-rule:evenodd;fill:#3a2200;stroke-width:.02943"/>
  <path id="path816" d="m70.743-7.2439c.09027-.054473.2382-.18656.2382-.18656.08255-.05213.13811-.05927.16664-.021401-.0025.062136-.0126.11827-.02394.17341-.06711.090547-.1406.20053-.25256.22844-.02929.00728-.0714.032396-.10234.025482-.0206-.00461-.02903-.039181-.03692-.054322-.02731-.05228-.01498-.11171.01091-.16505z" style="clip-rule:evenodd;fill-rule:evenodd;fill:#b98133;stroke-width:.02943"/>
  <path id="path818" d="m70.823-6.8723c-.03852-.00097-.59523.63443-.62641.67892-.05666.080944-.11576.15301-.16201.24132-.04895.093441-.08491.2006.02604.26726.12631.075903.26863-.050417.35195-.13008.11158-.10675.22295-.25725.28078-.40086.03251-.080651.05426-.16635.09001-.24548.03186-.070494.08844-.12863.11362-.2025.01779-.052218.0045-.10692-.01918-.15468-.01077-.021773-.02659-.053205-.0548-.053896z" style="clip-rule:evenodd;fill-rule:evenodd;fill:#997661;stroke-width:.02943"/>
  <path id="path838" d="m71.25-8.4352c-.13362.00446-.24209-.02854-.37072-.031422-.54196-.01204-1.0822-.23731-1.4866-.53269-.40241-.29397-.62893-1.1159.43309-1.0562.28527.01606.76587.47825 1.1707 1.2055.04472.08034.22008.25012.22008.25012.05799.078554.06914.13344.03344.16465z" style="clip-rule:evenodd;fill:none;stroke-width:.02943"/>
  <path id="path840" d="m71.25-8.4352c-.13362.00446-.24209-.02854-.37072-.031422-.54196-.01204-1.0822-.23731-1.4866-.53269-.40241-.29397-.62893-1.1159.43309-1.0562.28527.01606.76587.47825 1.1707 1.2055.04472.08034.22008.25012.22008.25012.05799.078554.06914.13344.03344.16465z" style="clip-rule:evenodd;fill-rule:evenodd;fill:#613e0c;stroke-width:.02943"/>
  <path id="path842" d="m71.25-8.4352c-.13362.00446-.24209-.02854-.37072-.031422-.54196-.01204-1.0822-.23731-1.4866-.53269-.40241-.29397-.62893-1.1159.43309-1.0562.28527.01606.76587.47825 1.1707 1.2055.04472.08034.22008.25012.22008.25012.05799.078554.06914.13344.03344.16465z" style="clip-rule:evenodd;fill-rule:evenodd;fill:#613e0c;stroke-width:.02943"/>
  <path id="path844" d="m71.259-8.4447c-.0025.00334-.0055.00649-.0088.00943-.13362.00446-.24209-.02854-.37072-.031422-.54196-.01204-1.0822-.23731-1.4866-.53269-.2849-.20814-.48164-.68092-.19535-.91805-.20536.24484-.02689.66788.23215.86633.39753.30456.93247.54211 1.474.56653.12381.00558.22828.038689.35532.039878z" style="clip-rule:evenodd;fill-rule:evenodd;fill:#463012;stroke-width:.02943"/>
  <path id="path846" d="m69.148-9.8687c.10767-.12662.31933-.20694.67788-.18678.28527.01606.76587.47825 1.1707 1.2055.04472.08034.22008.25012.22008.25012.05799.078554.06914.13344.03344.16465-.06671.00223-.12719-.00489-.187-.01293-.0059-.00929-.01252-.018916-.01994-.028962 0 0-.18024-.16727-.2201-.25014-.37041-.77014-.81969-1.2059-1.105-1.222-.22028-.012408-.45081.029656-.57008.080531z" style="clip-rule:evenodd;fill-rule:evenodd;fill:#3a2200;stroke-width:.02943"/>
  <path id="path848" d="m71.013-8.8239c.06088.08608.20336.22403.20336.22403.05799.078554.06914.13344.03344.16465-.06215.00207-.11887-.00398-.17469-.011288-.09518-.060362-.21021-.12567-.24617-.23531-.0094-.028681-.03749-.068859-.03284-.10022.0031-.020878.03697-.031803.0515-.040763.05016-.03103.11032-.023054.1654-.0011z" style="clip-rule:evenodd;fill-rule:evenodd;fill:#b98133;stroke-width:.02943"/>
  <path id="path850" d="m70.648-8.7177c-.0018-.038487-.67596-.54761-.7226-.57547-.08484-.050634-.16101-.10435-.25245-.14407-.09675-.042036-.20624-.070129-.26466.045371-.06654.13148.06978.26426.15528.34158.11457.10353.27275.20368.42019.25094.0828.026567.16985.042043.25136.071954.07262.026663.13471.07887.21022.098617.05337.013957.10696-.00332.15288-.030357.02093-.01232.05114-.03038.04978-.058564z" style="clip-rule:evenodd;fill-rule:evenodd;fill:#997661;stroke-width:.02943"/>
  <path id="path870" d="m72.23-8.2902c-.02911-.13049-.01674-.24319-.03771-.37014-.08844-.53484.033-1.1074.24846-1.5595.21445-.44986.9803-.82454 1.1181.23021.037.28332-.3283.84113-.96811 1.3735-.07068.058812-.20509.26256-.20509.26256-.06647.071517-.11835.092634-.15562.063326z" style="clip-rule:evenodd;fill:none;stroke-width:.02943"/>
  <path id="path872" d="m72.23-8.2902c-.02911-.13049-.01674-.24319-.03771-.37014-.08844-.53484.033-1.1074.24846-1.5595.21445-.44986.9803-.82454 1.1181.23021.037.28332-.3283.84113-.96811 1.3735-.07068.058812-.20509.26256-.20509.26256-.06647.071517-.11835.092634-.15562.063326z" style="clip-rule:evenodd;fill-rule:evenodd;fill:#613e0c;stroke-width:.02943"/>
  <path id="path874" d="m72.23-8.2902c-.02911-.13049-.01674-.24319-.03771-.37014-.08844-.53484.033-1.1074.24846-1.5595.21445-.44986.9803-.82454 1.1181.23021.037.28332-.3283.84113-.96811 1.3735-.07068.058812-.20509.26256-.20509.26256-.06647.071517-.11835.092634-.15562.063326z" style="clip-rule:evenodd;fill-rule:evenodd;fill:#613e0c;stroke-width:.02943"/>
  <path id="path876" d="m72.241-8.2832c-.0037-.00187-.0074-.00417-.0109-.00695-.02911-.13049-.01674-.24319-.03771-.37014-.08844-.53484.033-1.1074.24846-1.5595.15183-.31849.58005-.5993.86606-.36183-.2786-.15651-.66132.09713-.80842.38842-.22576.44702-.36023 1.0167-.28404 1.5534.01742.12271.0042.2315.02655.35657z" style="clip-rule:evenodd;fill-rule:evenodd;fill:#463012;stroke-width:.02943"/>
  <path id="path878" d="m73.25-10.621c.14435.08239.26245.27554.30897.63162.037.28332-.3283.84113-.96811 1.3735-.07068.058812-.20509.26256-.20509.26256-.06647.071517-.11835.092634-.15562.063326-.01453-.065143-.01872-.1259-.02189-.18616.008-.0075.01627-.015801.02477-.024953 0 0 .13103-.20808.2051-.26258.68832-.5065 1.0335-1.0287.99647-1.312-.02856-.21877-.11255-.43754-.18461-.54534z" style="clip-rule:evenodd;fill-rule:evenodd;fill:#3a2200;stroke-width:.02943"/>
  <path id="path880" d="m72.568-8.5948c-.07333.075757-.18254.24129-.18254.24129-.06647.071517-.11835.092634-.15562.063326-.01353-.060694-.01808-.11755-.02123-.17376.04171-.1047.08461-.22983.1857-.28545.02645-.014534.06073-.049586.09241-.050818.02109-.0008165.03809.030448.04959.043068.03977.043553.04307.10415.03168.16235z" style="clip-rule:evenodd;fill-rule:evenodd;fill:#b98133;stroke-width:.02943"/>
  <path id="path882" d="m72.396-8.9337c.03749-.00892.41309-.76561.43185-.8166.03406-.092746.07276-.17754.09487-.27474.02341-.10285.03076-.21565-.09355-.2517-.14152-.04106-.24679.11747-.30695.2158-.08055.13175-.1497.30573-.16887.45936-.01079.086284-.0099.1747-.0242.26034-.01277.0763-.05258.14698-.05802.22483-.0038.055033.02305.1045.05812.14462.01598.018293.03932.044631.06676.038081z" style="clip-rule:evenodd;fill-rule:evenodd;fill:#997661;stroke-width:.02943"/>
 </g>
 <g id="draggable1" transform="matrix(.99611 0 0 .99611 37.176 22.795)">
  <path id="path126" d="m31.039-12.865c1.4463-2.2494 7.0154-2.708 8.7944-2.1086 2.9302.98704 6.5846 3.3296 7.5068 6.5562.48333 1.6926-.0216 2.9043-.72778 4.363-.26728.55309-.45185 1.1846-.78395 1.7043-.34198.53642-.97778.93518-1.4315 1.3636-.47963.45247-.9037.96296-1.4315 1.3636-1.9796 1.5019-4.513 2.3716-6.8932 1.4901-2.513-.93086-4.9765-1.9117-6.5018-4.1148-.5284-.76296-1.0636-1.4543-1.3296-2.3518-.31234-1.0543.02963-2.1821.17099-3.2383.21667-1.6278 1.7235-3.6204 2.6272-5.0272z" style="clip-rule:evenodd;fill-rule:evenodd;fill:#fef388;stroke-width:.48148px;stroke:#aa0000"/>
  <path id="path202" d="m37.728-7.6439c-.51205-.98554.28435-3.1443 1.4388-3.4102.45803 1.9706-.01659 2.7215-1.4388 3.4102z" style="clip-rule:evenodd;fill-rule:evenodd;fill:#fdc72b;stroke-width:.45397"/>
  <path id="path266" d="m37.809-7.3628c.69138-.24912.88972-.24518 1.6383-.28111.71702-.034563 1.7934.54841 2.4569 1.2542-1.8816.74398-3.2038.33157-4.0952-.97312z" style="clip-rule:evenodd;fill-rule:evenodd;fill:#fdc72b;stroke-width:.45397"/>
  <path id="path330" d="m37.655-6.8321c.74845.71684 1.3346 1.143.82911 3.3113-.01039.043718-.23708.80363-.52198.71516-.20813-.064569-.42988-.56854-.54519-.83074-.58824-1.3386-.45075-2.1634.23807-3.1958z" style="clip-rule:evenodd;fill-rule:evenodd;fill:#fdc72b;stroke-width:.41121"/>
  <path id="path394" d="m36.875-7.2228c.19011-.028732.12104.81211-.03682 1.1135-.49799.94993-1.3472 1.6158-2.7577 1.8269.39933-1.7122 1.5343-2.7491 2.7945-2.9404z" style="clip-rule:evenodd;fill-rule:evenodd;fill:#fdc72b;stroke-width:.45397"/>
  <path id="path458" d="m36.343-9.2929c.44728.41143.87143 1.6562.64733 1.6131-1.1927-.22924-2.6229-.96624-3.1747-2.449 1.1308.02427 1.9605.31435 2.5273.83591z" style="clip-rule:evenodd;fill-rule:evenodd;fill:#fdc72b;stroke-width:.45397"/>
  <path id="path646" d="m37.58-6.5088c.09809.09085.15195.19062.24132.28317.37664.38989.60202.93007.68154 1.4245.07911.49204-.33827 1.2355-1.0509.44577-.19141-.21213-.20772-.87872.01633-1.6803.02475-.088555.0196-.33259.0196-.33259.01407-.096618.04476-.14347.09209-.14053z" style="clip-rule:evenodd;fill:none;stroke-width:.02943"/>
  <path id="path648" d="m37.58-6.5088c.09809.09085.15195.19062.24132.28317.37664.38989.60202.93007.68154 1.4245.07911.49204-.33827 1.2355-1.0509.44577-.19141-.21213-.20772-.87872.01633-1.6803.02475-.088555.0196-.33259.0196-.33259.01407-.096618.04476-.14347.09209-.14053z" style="clip-rule:evenodd;fill-rule:evenodd;fill:#613e0c;stroke-width:.02943"/>
  <path id="path650" d="m37.58-6.5088c.09809.09085.15195.19062.24132.28317.37664.38989.60202.93007.68154 1.4245.07911.49204-.33827 1.2355-1.0509.44577-.19141-.21213-.20772-.87872.01633-1.6803.02475-.088555.0196-.33259.0196-.33259.01407-.096618.04476-.14347.09209-.14053z" style="clip-rule:evenodd;fill-rule:evenodd;fill:#613e0c;stroke-width:.02943"/>
  <path id="path652" d="m37.567-6.5084c.0041-.0005886.0084-.0007652.01292-.0004709.09809.09085.15195.19062.24132.28317.37664.38989.60202.93007.68154 1.4245.056.34836-.13685.82274-.50714.78981.3182-.029489.48904-.45566.4446-.77895-.06819-.49613-.28117-1.0413-.64881-1.4397-.08405-.091086-.135-.18812-.22443-.27835z" style="clip-rule:evenodd;fill-rule:evenodd;fill:#463012;stroke-width:.02943"/>
  <path id="path654" d="m38.065-4.0111c-.1656.014215-.37252-.077636-.61311-.34424-.19141-.21213-.20772-.87872.01633-1.6803.02475-.088555.0196-.33259.0196-.33259.01407-.096618.04476-.14347.09209-.14053.04897.045351.08694.092969.12378.14076-.0024.010742-.0044.022249-.0062.03461 0 0 .01039.24568-.0196.33262-.27867.80788-.26605 1.4337-.07463 1.6458.1478.16381.34121.29612.46176.34389z" style="clip-rule:evenodd;fill-rule:evenodd;fill:#3a2200;stroke-width:.02943"/>
  <path id="path656" d="m37.475-6.066c.0173-.10401.01312-.30227.01312-.30227.01407-.096618.04476-.14347.09209-.14053.04562.042261.08167.086465.11619.13093.02516.10986.06095.2372.0094.34042-.01351.026987-.02181.075311-.04718.094323-.01689.012655-.04865-.00341-.06527-.00727-.05748-.013243-.09462-.061243-.11831-.1156z" style="clip-rule:evenodd;fill-rule:evenodd;fill:#b98133;stroke-width:.02943"/>
  <path id="path658" d="m37.809-5.8848c-.02578.028635.09503.86474.10857.91736.02466.095677.041.18744.07802.28.03917.097943.09721.19494.21999.15398.13979-.046617.13635-.23688.12999-.35198-.0086-.15418-.0505-.33665-.12202-.47397-.04014-.077136-.09112-.14939-.12799-.22799-.03284-.070043-.04023-.15083-.07999-.21799-.0281-.04747-.07834-.072898-.12999-.085994-.02354-.00597-.05771-.014391-.07658.00659z" style="clip-rule:evenodd;fill-rule:evenodd;fill:#997661;stroke-width:.02943"/>
  <path id="path678" d="m38.092-7.2192c.12197-.054768.23485-.065337.35498-.11142.5061-.19425 1.0914-.19052 1.5776-.070427.48381.11954 1.0049.79433-.000518 1.1415-.27008.093252-.88999-.15233-1.5402-.67192-.07183-.057399-.29846-.14806-.29846-.14806-.08343-.050719-.11455-.097287-.09334-.13969z" style="clip-rule:evenodd;fill:none;stroke-width:.02943"/>
  <path id="path680" d="m38.092-7.2192c.12197-.054768.23485-.065337.35498-.11142.5061-.19425 1.0914-.19052 1.5776-.070427.48381.11954 1.0049.79433-.000518 1.1415-.27008.093252-.88999-.15233-1.5402-.67192-.07183-.057399-.29846-.14806-.29846-.14806-.08343-.050719-.11455-.097287-.09334-.13969z" style="clip-rule:evenodd;fill-rule:evenodd;fill:#613e0c;stroke-width:.02943"/>
  <path id="path682" d="m38.092-7.2192c.12197-.054768.23485-.065337.35498-.11142.5061-.19425 1.0914-.19052 1.5776-.070427.48381.11954 1.0049.79433-.000518 1.1415-.27008.093252-.88999-.15233-1.5402-.67192-.07183-.057399-.29846-.14806-.29846-.14806-.08343-.050719-.11455-.097287-.09334-.13969z" style="clip-rule:evenodd;fill-rule:evenodd;fill:#613e0c;stroke-width:.02943"/>
  <path id="path684" d="m38.088-7.2071c.0011-.00405.0026-.00807.0046-.012076.12197-.054768.23485-.065337.35498-.11142.5061-.19425 1.0914-.19052 1.5776-.070427.34253.084636.70377.44759.5287.77553.09725-.3044-.22822-.62825-.54316-.71373-.4833-.13119-1.0684-.14828-1.5788.034357-.1167.041755-.22592.050712-.34393.097758z" style="clip-rule:evenodd;fill-rule:evenodd;fill:#463012;stroke-width:.02943"/>
  <path id="path686" d="m40.581-6.6892c-.05165.15798-.21709.31253-.55653.42975-.27008.093252-.88999-.15233-1.5402-.67192-.07183-.057399-.29846-.14806-.29846-.14806-.08343-.050719-.11455-.097287-.09334-.13969.06089-.027345.11956-.043673.17795-.058903.009.00637.01875.012761.02943.019245 0 0 .23019.086481.29848.14807.63465.57232 1.2156.80533 1.4857.71208.20855-.071999.40594-.19829.49703-.29057z" style="clip-rule:evenodd;fill-rule:evenodd;fill:#3a2200;stroke-width:.02943"/>
  <path id="path688" d="m38.459-6.9492c-.08896-.056586-.27309-.13025-.27309-.13025-.08343-.050719-.11455-.097287-.09334-.13969.05673-.025465.11151-.041367.16594-.055757.11096.019788.24215.036631.31698.12446.01956.022983.06079.049513.06837.080295.005.020495-.02216.043441-.03221.057239-.03466.047725-.09336.063146-.15265.063701z" style="clip-rule:evenodd;fill-rule:evenodd;fill:#b98133;stroke-width:.02943"/>
  <path id="path690" d="m38.756-7.1858c.01628.034923.83307.25058.88679.25869.0977.014703.18855.035541.28821.037648.10546.00223.21743-.013263.22772-.14229.01174-.14689-.16473-.2181-.27315-.25725-.14526-.052392-.3296-.085122-.48395-.07298-.08669.00679-.17312.025465-.25988.028676-.07731.00285-.15455-.021934-.23191-.011592-.05468.00731-.09772.04361-.12997.086029-.0147.019335-.03581.047493-.02387.073059z" style="clip-rule:evenodd;fill-rule:evenodd;fill:#997661;stroke-width:.02943"/>
  <path id="path710" d="m37.639-7.9684c-.0027-.13367.03167-.2417.03622-.37029.01905-.54176.2513-1.079.55189-1.4796.29916-.39857 1.124-.61444 1.0505.44673-.01975.28504-.48813.75962-1.2206 1.155-.08091.043676-.25295.21683-.25295.21683-.0793.056963-.13433.067406-.16507.031307z" style="clip-rule:evenodd;fill:none;stroke-width:.02943"/>
  <path id="path712" d="m37.639-7.9684c-.0027-.13367.03167-.2417.03622-.37029.01905-.54176.2513-1.079.55189-1.4796.29916-.39857 1.124-.61444 1.0505.44673-.01975.28504-.48813.75962-1.2206 1.155-.08091.043676-.25295.21683-.25295.21683-.0793.056963-.13433.067406-.16507.031307z" style="clip-rule:evenodd;fill-rule:evenodd;fill:#613e0c;stroke-width:.02943"/>
  <path id="path714" d="m37.639-7.9684c-.0027-.13367.03167-.2417.03622-.37029.01905-.54176.2513-1.079.55189-1.4796.29916-.39857 1.124-.61444 1.0505.44673-.01975.28504-.48813.75962-1.2206 1.155-.08091.043676-.25295.21683-.25295.21683-.0793.056963-.13433.067406-.16507.031307z" style="clip-rule:evenodd;fill-rule:evenodd;fill:#613e0c;stroke-width:.02943"/>
  <path id="path716" d="m37.648-7.9595c-.0033-.00258-.0064-.00555-.0093-.00897-.0027-.13367.03167-.2417.03622-.37029.01905-.54176.2513-1.079.55189-1.4796.21181-.28219.68709-.47279.9205-.18345-.24216-.20851-.66747-.03554-.86926.22092-.30968.39356-.55414.92538-.58556 1.4666-.0072.12373-.04164.22776-.04447.35478z" style="clip-rule:evenodd;fill-rule:evenodd;fill:#463012;stroke-width:.02943"/>
  <path id="path718" d="m39.099-10.052c.12522.1093.20279.32199.17799.68024-.01975.28504-.48813.75962-1.2206 1.155-.08091.043676-.25295.21683-.25295.21683-.0793.056963-.13433.067406-.16507.031307-.0014-.066731.0065-.12711.01535-.18682.0094-.00576.01908-.012272.02922-.019562 0 0 .16959-.17806.25297-.21685.77487-.36041 1.2165-.80402 1.2362-1.0891.01526-.2201-.02382-.45116-.07315-.57107z" style="clip-rule:evenodd;fill-rule:evenodd;fill:#3a2200;stroke-width:.02943"/>
  <path id="path720" d="m38.03-8.2002c-.08686.059763-.22664.20044-.22664.20044-.0793.056963-.13433.067406-.16507.031307-.0013-.062171.0055-.11881.01355-.17453.06159-.09439.12838-.20856.23848-.2431.0288-.00902.06934-.036599.10063-.031543.02084.00337.03132.037379.04009.052022.03038.050558.02162.11061-.001.16541z" style="clip-rule:evenodd;fill-rule:evenodd;fill:#b98133;stroke-width:.02943"/>
  <path id="path722" d="m37.929-8.5664c.03851-.00133.55631-.66882.58478-.7151.05173-.084181.10642-.15965.14732-.25056.04328-.096195.07279-.20531-.04194-.26522-.13061-.068231-.26514.066357-.34356.15085-.10501.11322-.2072.27009-.25636.41691-.02764.082447-.04424.1693-.0752.25041-.0276.07227-.08061.13368-.10133.20892-.01465.053187.0019.10699.02837.15326.01205.021091.02972.051524.05792.05053z" style="clip-rule:evenodd;fill-rule:evenodd;fill:#997661;stroke-width:.02943"/>
  <path id="path742" d="m36.796-8.0447c-.13369.00174-.24146-.033461-.37001-.038961-.54161-.023068-1.0771-.25929-1.4754-.56284-.39635-.3021-.60609-1.1285.4545-1.0471.28488.021861.75598.49374 1.1459 1.2291.04308.081234.21495.25455.21495.25455.05637.079718.06641.13482.03008.1653z" style="clip-rule:evenodd;fill:none;stroke-width:.02943"/>
  <path id="path744" d="m36.796-8.0447c-.13369.00174-.24146-.033461-.37001-.038961-.54161-.023068-1.0771-.25929-1.4754-.56284-.39635-.3021-.60609-1.1285.4545-1.0471.28488.021861.75598.49374 1.1459 1.2291.04308.081234.21495.25455.21495.25455.05637.079718.06641.13482.03008.1653z" style="clip-rule:evenodd;fill-rule:evenodd;fill:#613e0c;stroke-width:.02943"/>
  <path id="path746" d="m36.796-8.0447c-.13369.00174-.24146-.033461-.37001-.038961-.54161-.023068-1.0771-.25929-1.4754-.56284-.39635-.3021-.60609-1.1285.4545-1.0471.28488.021861.75598.49374 1.1459 1.2291.04308.081234.21495.25455.21495.25455.05637.079718.06641.13482.03008.1653z" style="clip-rule:evenodd;fill-rule:evenodd;fill:#613e0c;stroke-width:.02943"/>
  <path id="path748" d="m36.805-8.0539c-.0026.00329-.0056.00637-.009.00924-.13369.00174-.24146-.033461-.37001-.038961-.54161-.023068-1.0771-.25929-1.4754-.56284-.28061-.21389-.46768-.69058-.17663-.92184-.2103.24061-.04048.66719.21447.87088.39125.31259.92125.56098 1.4622.59641.12368.0081.22745.043328.35444.047102z" style="clip-rule:evenodd;fill-rule:evenodd;fill:#463012;stroke-width:.02943"/>
  <path id="path750" d="m34.724-9.5207c.11023-.1244.32348-.2004.68154-.17294.28488.021861.75598.49374 1.1459 1.2291.04308.081234.21495.25455.21495.25455.05637.079718.06641.13482.03008.1653-.06674.0008723-.12706-.00748-.1867-.016734-.0057-.00941-.01213-.019167-.01935-.029362 0 0-.1768-.1709-.21497-.25457-.35466-.77752-.79498-1.2224-1.0799-1.2442-.21998-.016889-.45132.020475-.5716.068912z" style="clip-rule:evenodd;fill-rule:evenodd;fill:#3a2200;stroke-width:.02943"/>
  <path id="path752" d="m36.567-8.4381c.05912.087302.19875.22812.19875.22812.05637.079718.06641.13482.03008.1653-.06218.0008003-.11876-.0064-.17442-.014841-.09393-.062286-.20761-.12992-.24133-.24027-.0088-.028866-.03608-.069608-.0308-.10087.0035-.020811.03761-.031044.05232-.039706.05078-.030003.11077-.020804.16539.00227z" style="clip-rule:evenodd;fill-rule:evenodd;fill:#b98133;stroke-width:.02943"/>
  <path id="path754" d="m36.2-8.3393c-.001-.038517-.66468-.56125-.71074-.59006-.08379-.05235-.15886-.1076-.24946-.14917-.09587-.043996-.20477-.074312-.26553.039975-.0692.1301.06439.26563.1483.34467.11244.10584.26855.20919.415.25944.08224.028247.16896.045491.24985.077055.07206.028135.13308.081595.20817.10287.05308.01504.10701-.00114.15346-.027239.02118-.011892.05174-.029333.05096-.057539z" style="clip-rule:evenodd;fill-rule:evenodd;fill:#997661;stroke-width:.02943"/>
  <path id="path774" d="m36.818-6.8662c-.02063.1321-.07335.23247-.10026.35829-.11327.53013-.43568 1.0186-.80153 1.3606-.3641.34028-1.2139.40894-.95643-.62313.06917-.27722.61316-.66281 1.4033-.92434.08729-.028892.2869-.16937.2869-.16937.08802-.042257.14403-.042939.168-.00203z" style="clip-rule:evenodd;fill:none;stroke-width:.02943"/>
  <path id="path776" d="m36.818-6.8662c-.02063.1321-.07335.23247-.10026.35829-.11327.53013-.43568 1.0186-.80153 1.3606-.3641.34028-1.2139.40894-.95643-.62313.06917-.27722.61316-.66281 1.4033-.92434.08729-.028892.2869-.16937.2869-.16937.08802-.042257.14403-.042939.168-.00203z" style="clip-rule:evenodd;fill-rule:evenodd;fill:#613e0c;stroke-width:.02943"/>
  <path id="path778" d="m36.818-6.8662c-.02063.1321-.07335.23247-.10026.35829-.11327.53013-.43568 1.0186-.80153 1.3606-.3641.34028-1.2139.40894-.95643-.62313.06917-.27722.61316-.66281 1.4033-.92434.08729-.028892.2869-.16937.2869-.16937.08802-.042257.14403-.042939.168-.00203z" style="clip-rule:evenodd;fill-rule:evenodd;fill:#613e0c;stroke-width:.02943"/>
  <path id="path780" d="m36.81-6.8767c.0028.00311.0053.00658.0076.010457-.02063.1321-.07335.23247-.10026.35829-.11327.53013-.43568 1.0186-.80153 1.3606-.25778.24091-.75904.34568-.93839.020058.20207.24756.65104.15143.89447-.065886.37359-.3335.70707-.81452.83242-1.3419.02866-.12058.08074-.21701.10568-.34158z" style="clip-rule:evenodd;fill-rule:evenodd;fill:#463012;stroke-width:.02943"/>
  <path id="path782" d="m35.016-5.0696c-.10423-.12947-.14351-.35243-.05659-.70086.06917-.27722.61316-.66281 1.4033-.92434.08729-.028892.2869-.16937.2869-.16937.08802-.042257.14403-.042939.168-.00203-.01029.065946-.02861.12402-.0477.18127-.01023.00404-.02092.00876-.03218.014165 0 0-.19805.14575-.28692.16939-.82586.21971-1.3381.57948-1.4072.8567-.05342.21406-.05525.4484-.0276.57508z" style="clip-rule:evenodd;fill-rule:evenodd;fill:#3a2200;stroke-width:.02943"/>
  <path id="path784" d="m36.391-6.7063c.09595-.043694.25813-.15783.25813-.15783.08802-.042257.14403-.042939.168-.00203-.0096.061438-.02616.11602-.04379.16949-.07711.082199-.1628.18297-.27723.19777-.02993.00386-.07466.023942-.10459.013504-.01993-.00695-.02432-.04227-.0304-.058218-.02109-.055082-.002-.11269.02988-.16269z" style="clip-rule:evenodd;fill-rule:evenodd;fill:#b98133;stroke-width:.02943"/>
  <path id="path786" d="m36.428-6.3281c-.03815-.00541-.66446.56151-.70056.60212-.06562.073866-.13264.13864-.18877.22102-.0594.087169-.10749.18947-.005.26847.11671.089969.27265-.019086.3646-.088605.12315-.093165.25114-.22981.32516-.36579.0416-.076361.07309-.15898.11773-.23345.03979-.066347.10269-.11757.13622-.18804.0237-.049816.01676-.10569-.0012-.15586-.0082-.02287-.02027-.055918-.04821-.059858z" style="clip-rule:evenodd;fill-rule:evenodd;fill:#997661;stroke-width:.02943"/>
 </g>
 <g id="draggable2" transform="matrix(.99611 0 0 .99611 37.176 22.795)">
  <path id="path118" d="m-1.7249-19.364c1.4463-2.2494 8.0716-2.1451 8.8932-1.8235 2.879 1.1265 6.4858 3.0444 7.408 6.271.48333 1.6926-.0216 2.9043-.72778 4.363-.26728.55309-.45185 1.1846-.78395 1.7043-.34198.53642-.97778.93518-1.4315 1.3636-.47963.45247-.9037.96296-1.4315 1.3636-1.9796 1.5019-4.513 2.3716-6.8932 1.4901-2.513-.93086-4.9765-1.9117-6.5018-4.1148-.52839-.76296-1.0636-1.4543-1.3296-2.3518-.31235-1.0543.02963-2.1821.17099-3.2383.21667-1.6278 1.7235-3.6204 2.6272-5.0272z" style="clip-rule:evenodd;fill-rule:evenodd;fill:#fef388;stroke-width:.48148px;stroke:#aa0000"/>
  <path id="path194" d="m4.9637-14.145c-.15702-.7854.067546-1.4931.18156-2.2245.11253-.72514.52761-.68959 1.2628-1.1988.45979 1.9782-.016654 2.732-1.4443 3.4233z" style="clip-rule:evenodd;fill-rule:evenodd;fill:#fdc72b;stroke-width:.45572"/>
  <path id="path258" d="m5.0444-13.863c.69405-.25008.89314-.24612 1.6446-.28219.71978-.0347 1.8003.55052 2.4663 1.2591-1.8888.74684-3.2161.33285-4.1109-.97687z" style="clip-rule:evenodd;fill-rule:evenodd;fill:#fdc72b;stroke-width:.45572"/>
  <path id="path322" d="m4.8904-13.331c.75133.7196 1.3397 1.1474.83229 3.3241-.010434.043885-.23799.80672-.52399.71791-.20893-.064817-.43153-.57073-.54729-.83394-.5905-1.3438-.45248-2.1718.23899-3.2081z" style="clip-rule:evenodd;fill-rule:evenodd;fill:#fdc72b;stroke-width:.4128"/>
  <path id="path386" d="m4.1074-13.723c.19084-.02884.12151.81524-.036956 1.1178-.4999.95358-1.3524 1.622-2.7683 1.8339.40087-1.7188 1.5402-2.7597 2.8052-2.9517z" style="clip-rule:evenodd;fill-rule:evenodd;fill:#fdc72b;stroke-width:.45572"/>
  <path id="path450" d="m3.5734-15.801c.449.41301.87478 1.6625.64982 1.6193-1.1973-.23012-2.633-.96996-3.1869-2.4584 1.1351.02436 1.9681.31556 2.5371.83912z" style="clip-rule:evenodd;fill-rule:evenodd;fill:#fdc72b;stroke-width:.45572"/>
  <path id="path550" d="m4.8092-13.048c.098466.0912.15253.19135.24225.28426.37809.39138.60433.93364.68415 1.43.079411.49393-.33957 1.2402-1.0549.44748-.19215-.21294-.20851-.88209.016396-1.6868.024846-.0889.019676-.33386.019676-.33386.014121-.09699.044935-.14402.092439-.14107z" style="clip-rule:evenodd;fill:none;stroke-width:.029543"/>
  <path id="path552" d="m4.8092-13.048c.098466.0912.15253.19135.24225.28426.37809.39138.60433.93364.68415 1.43.079411.49393-.33957 1.2402-1.0549.44748-.19215-.21294-.20851-.88209.016396-1.6868.024846-.0889.019676-.33386.019676-.33386.014121-.09699.044935-.14402.092439-.14107z" style="clip-rule:evenodd;fill-rule:evenodd;fill:#613e0c;stroke-width:.029543"/>
  <path id="path554" d="m4.8092-13.048c.098466.0912.15253.19135.24225.28426.37809.39138.60433.93364.68415 1.43.079411.49393-.33957 1.2402-1.0549.44748-.19215-.21294-.20851-.88209.016396-1.6868.024846-.0889.019676-.33386.019676-.33386.014121-.09699.044935-.14402.092439-.14107z" style="clip-rule:evenodd;fill-rule:evenodd;fill:#613e0c;stroke-width:.029543"/>
  <path id="path556" d="m4.7962-13.048c.00417-.000591.00848-.000768.012969-.000473.098466.0912.15253.19135.24225.28426.37809.39138.60433.93364.68415 1.43.05622.3497-.13737.8259-.50908.79284.31942-.0296.49091-.45741.4463-.78194-.068451-.49803-.28225-1.0453-.6513-1.4452-.084374-.09143-.13551-.18884-.22529-.27942z" style="clip-rule:evenodd;fill-rule:evenodd;fill:#463012;stroke-width:.029543"/>
  <path id="path558" d="m5.2962-10.541c-.16624.01427-.37395-.07793-.61547-.34556-.19215-.21294-.20851-.88209.016396-1.6868.024846-.0889.019676-.33386.019676-.33386.014121-.09699.044935-.14402.09244-.14107.049159.04553.08727.09333.12426.1413-.00236.01078-.00443.02233-.00623.03474 0 0 .010429.24662-.019675.33389-.27974.81098-.26707 1.4392-.074921 1.6521.14836.16444.34252.29726.46353.34521z" style="clip-rule:evenodd;fill-rule:evenodd;fill:#3a2200;stroke-width:.029543"/>
  <path id="path560" d="m4.7036-12.604c.017371-.1044.013176-.30344.013176-.30344.014121-.09699.044935-.14402.09244-.14107.045791.04242.081981.0868.11664.13144.025259.11028.061183.23812.00939.34172-.01356.02709-.021891.0756-.047357.09469-.016958.0127-.048834-.0034-.065526-.0073-.057697-.01329-.09498-.06148-.11876-.11604z" style="clip-rule:evenodd;fill-rule:evenodd;fill:#b98133;stroke-width:.029543"/>
  <path id="path562" d="m5.0389-12.422c-.02588.02874.095394.86806.10898.92088.024757.09604.041153.18816.078318.28107.039322.09832.09758.19569.22083.15457.14033-.0468.13687-.23779.13049-.35333-.0086-.15478-.050696-.33794-.12248-.47579-.040296-.07743-.091465-.14996-.12848-.22887-.03297-.07031-.040385-.15141-.080297-.21882-.028213-.04765-.078643-.07318-.13049-.08632-.023634-.006-.057933-.01445-.07687.0066z" style="clip-rule:evenodd;fill-rule:evenodd;fill:#997661;stroke-width:.029543"/>
  <path id="path582" d="m4.0139-14.341c-.13372-.01146-.23791-.05726-.36579-.07545-.53878-.07651-1.0504-.36535-1.4184-.70791-.36612-.34092-.49408-1.1872.5574-1.0012.28244.04996.70647.56786 1.0234 1.341.035013.0854.1896.27551.1896.27551.048448.0852.053032.14124.013735.1681z" style="clip-rule:evenodd;fill:none;stroke-width:.029543"/>
  <path id="path584" d="m4.0139-14.341c-.13372-.01146-.23791-.05726-.36579-.07545-.53878-.07651-1.0504-.36535-1.4184-.70791-.36612-.34092-.49408-1.1872.5574-1.0012.28244.04996.70647.56786 1.0234 1.341.035013.0854.1896.27551.1896.27551.048448.0852.053032.14124.013735.1681z" style="clip-rule:evenodd;fill-rule:evenodd;fill:#613e0c;stroke-width:.029543"/>
  <path id="path586" d="m4.0139-14.341c-.13372-.01146-.23791-.05726-.36579-.07545-.53878-.07651-1.0504-.36535-1.4184-.70791-.36612-.34092-.49408-1.1872.5574-1.0012.28244.04996.70647.56786 1.0234 1.341.035013.0854.1896.27551.1896.27551.048448.0852.053032.14124.013735.1681z" style="clip-rule:evenodd;fill-rule:evenodd;fill:#613e0c;stroke-width:.029543"/>
  <path id="path588" d="m4.0238-14.35c-.00292.003-.00622.0058-.00994.0083-.13372-.01146-.23791-.05726-.36579-.07545-.53878-.07651-1.0504-.36535-1.4184-.70791-.25921-.24137-.39904-.73604-.085448-.93833-.23383.2196-.1063.66251.12828.89116.36.3509.86493.65134 1.4018.74014.12275.0203.22294.06574.34943.08204z" style="clip-rule:evenodd;fill-rule:evenodd;fill:#463012;stroke-width:.029543"/>
  <path id="path590" d="m2.0892-16.02c.1224-.11339.34293-.16826.69792-.10549.28244.04996.70647.56786 1.0234 1.341.035013.0854.1896.27551.1896.27551.048448.0852.053032.14124.013735.1681-.066758-.0057-.12619-.02002-.18486-.03515-.00476-.01-.010226-.02035-.016427-.03124 0 0-.15975-.18818-.18962-.27553-.27754-.81174-.6735-1.2996-.95594-1.3496-.21809-.03859-.45288-.0241-.57782.01242z" style="clip-rule:evenodd;fill-rule:evenodd;fill:#3a2200;stroke-width:.029543"/>
  <path id="path592" d="m3.8241-14.757c.050439.09305.17603.24751.17603.24751.048448.0852.053032.14124.013735.1681-.062194-.0053-.11801-.01811-.17278-.03204-.087687-.07149-.19457-.15028-.21736-.26385-.00595-.02971-.029176-.0731-.020809-.1038.00557-.02044.040636-.0273.056184-.0345.053691-.02496.11271-.0098.165.01859z" style="clip-rule:evenodd;fill-rule:evenodd;fill:#b98133;stroke-width:.029543"/>
  <path id="path594" d="m3.4478-14.694c.00276-.03858-.60859-.62629-.65177-.65962-.078542-.06057-.14807-.12317-.23448-.17365-.091431-.05341-.19722-.09445-.2692.01372-.081969.12314.038104.27171.11413.35895.10188.11684.24763.23549.38896.30014.079368.03634.1643.06212.24199.10164.069212.03522.12489.09465.1978.12332.051538.02026.10701.0094.15599-.01206.022332-.0098.054586-.0242.056585-.05245z" style="clip-rule:evenodd;fill-rule:evenodd;fill:#997661;stroke-width:.029543"/>
  <path id="path614" d="m5.0545-14.354c-.030917-.1306-.019978-.24389-.04268-.37104-.095748-.53569.018675-1.112.22905-1.5686.20939-.45434.97324-.84043 1.1253.21649.040833.2839-.31856.84858-.95383 1.3913-.070178.05996-.20243.26622-.20243.26622-.065786.07265-.11758.09453-.15538.06559z" style="clip-rule:evenodd;fill:none;stroke-width:.029543"/>
  <path id="path616" d="m5.0545-14.354c-.030917-.1306-.019978-.24389-.04268-.37104-.095748-.53569.018675-1.112.22905-1.5686.20939-.45434.97324-.84043 1.1253.21649.040833.2839-.31856.84858-.95383 1.3913-.070178.05996-.20243.26622-.20243.26622-.065786.07265-.11758.09453-.15538.06559z" style="clip-rule:evenodd;fill-rule:evenodd;fill:#613e0c;stroke-width:.029543"/>
  <path id="path618" d="m5.0545-14.354c-.030917-.1306-.019978-.24389-.04268-.37104-.095748-.53569.018675-1.112.22905-1.5686.20939-.45434.97324-.84043 1.1253.21649.040833.2839-.31856.84858-.95383 1.3913-.070178.05996-.20243.26622-.20243.26622-.065786.07265-.11758.09453-.15538.06559z" style="clip-rule:evenodd;fill-rule:evenodd;fill:#613e0c;stroke-width:.029543"/>
  <path id="path620" d="m5.0655-14.347c-.00379-.0018-.00747-.0041-.011031-.0068-.030917-.1306-.019978-.24389-.04268-.37104-.095748-.53569.018675-1.112.22905-1.5686.14825-.32167.57441-.60913.8646-.37449-.2817-.15347-.66254.10613-.8064.40043-.22078.45164-.34832 1.0252-.26484 1.5629.019085.12294.00725.23232.031301.35756z" style="clip-rule:evenodd;fill-rule:evenodd;fill:#463012;stroke-width:.029543"/>
  <path id="path622" d="m6.0477-16.707c.14597.08082.26703.27315.31837.62997.040833.2839-.31856.84858-.95383 1.3913-.070178.05996-.20243.26622-.20243.26622-.065786.07265-.11758.09453-.15538.06559-.015438-.0652-.020435-.12613-.024401-.18658.00797-.0076.016128-.01607.024541-.02537 0 0 .12881-.21057.20245-.26625.6843-.51738 1.0239-1.046.9831-1.3299-.031522-.21922-.11868-.43772-.19242-.54498z" style="clip-rule:evenodd;fill-rule:evenodd;fill:#3a2200;stroke-width:.029543"/>
  <path id="path624" d="m5.3899-14.664c-.072618.077-.18008.24458-.18008.24458-.065786.07265-.11758.09453-.15538.06559-.014371-.06075-.019684-.11776-.023573-.17414.040501-.10564.081929-.2318.18268-.28895.026359-.01493.060315-.05056.092096-.05222.02116-.0011.038634.03007.050335.04258.040493.0432.044589.10398.033918.16254z" style="clip-rule:evenodd;fill-rule:evenodd;fill:#b98133;stroke-width:.029543"/>
  <path id="path626" d="m5.2129-15.002c.037509-.0094.40466-.77387.42282-.8253.032981-.09354.070713-.17916.091647-.27701.022157-.10355.028064-.21686-.097188-.25142-.14259-.03937-.24618.12113-.30529.22062-.079135.13329-.14628.30883-.16351.4633-.0097.08675-.00765.17549-.020901.26163-.011819.07675-.050865.14822-.055307.22644-.00314.05529.024504.10459.060222.14441.016279.01815.040047.04429.06751.03735z" style="clip-rule:evenodd;fill-rule:evenodd;fill:#997661;stroke-width:.029543"/>
 </g>
 <g id="draggable3" transform="matrix(.99611 0 0 .99611 37.176 22.795)">
  <path id="path110" d="m-34.041-9.4305c1.4457-2.2494 9.1309-2.1623 9.9525-1.8407 2.879 1.1265 6.4858 3.0444 7.408 6.271.48333 1.6926-.0216 2.9043-.72778 4.363-.26728.55309-.45185 1.1846-.78395 1.7043-.34198.53642-.97778.93518-1.4315 1.3636-.47963.45247-.9037.96296-1.4315 1.3636-1.9796 1.5019-5.2549 2.5173-7.6352 1.6358-2.5123-.93086-4.2346-2.0574-5.7599-4.2605-.5284-.76296-1.0636-1.4543-1.3296-2.3518-.31234-1.0543.02963-2.1821.17099-3.2383.21667-1.6278.66358-3.6037 1.5679-5.0099z" style="clip-rule:evenodd;fill-rule:evenodd;fill:#fef388;stroke-width:.48148px;stroke:#aa0000"/>
  <path id="path186" d="m-26.285-4.1343c-.14755-.73805.06347-1.4031.17061-2.0904.10574-.68143.61775-1.1155 1.3087-1.5945.43155 1.8592-.1377 3.0352-1.4793 3.6848z" style="clip-rule:evenodd;fill-rule:evenodd;fill:#fdc72b;stroke-width:.42824"/>
  <path id="path250" d="m-26.209-3.8693c.6522-.235.83929-.23128 1.5454-.26518.67638-.032604 1.6918.51733 2.3176 1.1831-1.7749.70181-3.0222.31278-3.8631-.91797z" style="clip-rule:evenodd;fill-rule:evenodd;fill:#fdc72b;stroke-width:.42824"/>
  <path id="path314" d="m-26.355-3.3707c.70604.67622 1.2589 1.0782.78212 3.1237-.0098.04124-.22365.75808-.4924.67463-.19633-.06091-.40552-.53632-.5143-.78366-.5549-1.2628-.4252-2.0408.22458-3.0147z" style="clip-rule:evenodd;fill-rule:evenodd;fill:#fdc72b;stroke-width:.38791"/>
  <path id="path378" d="m-27.089-3.7359c.17934-.027102.11418.76608-.03473 1.0504-.46977.89609-1.2708 1.5242-2.6014 1.7234.37671-1.6152 1.4474-2.5933 2.6361-2.7737z" style="clip-rule:evenodd;fill-rule:evenodd;fill:#fdc72b;stroke-width:.42824"/>
  <path id="path442" d="m-27.592-5.6901c.42193.38811.82204 1.5623.61064 1.5217-1.1251-.21625-2.4742-.91148-2.9947-2.3102 1.0667.022894 1.8494.29653 2.3841.78853z" style="clip-rule:evenodd;fill-rule:evenodd;fill:#fdc72b;stroke-width:.42824"/>
  <path id="path518" d="m-27.249-4.4412c-.12607-.0035-.2263-.040815-.34725-.050938-.5096-.042551-1.0053-.28578-1.369-.58718-.36197-.29997-.52791-1.0869.46862-.96951.26768.03155.69357.49442 1.0328 1.2025.03748.078221.19282.24818.19282.24818.05007.077303.05741.12963.022.15695z" style="clip-rule:evenodd;fill:none;stroke-width:.027762"/>
  <path id="path520" d="m-27.249-4.4412c-.12607-.0035-.2263-.040815-.34725-.050938-.5096-.042551-1.0053-.28578-1.369-.58718-.36197-.29997-.52791-1.0869.46862-.96951.26768.03155.69357.49442 1.0328 1.2025.03748.078221.19282.24818.19282.24818.05007.077303.05741.12963.022.15695z" style="clip-rule:evenodd;fill-rule:evenodd;fill:#613e0c;stroke-width:.027762"/>
  <path id="path522" d="m-27.249-4.4412c-.12607-.0035-.2263-.040815-.34725-.050938-.5096-.042551-1.0053-.28578-1.369-.58718-.36197-.29997-.52791-1.0869.46862-.96951.26768.03155.69357.49442 1.0328 1.2025.03748.078221.19282.24818.19282.24818.05007.077303.05741.12963.022.15695z" style="clip-rule:evenodd;fill-rule:evenodd;fill:#613e0c;stroke-width:.027762"/>
  <path id="path524" d="m-27.24-4.4495c-.0026.003-.0055.00579-.0089.00836-.12607-.0035-.2263-.040815-.34725-.050938-.5096-.042551-1.0053-.28578-1.369-.58718-.25627-.21238-.41428-.66887-.13106-.87566-.20746.2187-.06379.6273.16869.82908.35676.30966.84676.56414 1.3553.61832.11626.01239.21272.049577.33226.058013z" style="clip-rule:evenodd;fill-rule:evenodd;fill:#463012;stroke-width:.027762"/>
  <path id="path526" d="m-29.146-5.912c.10867-.11302.31259-.17646.64902-.13682.26768.03155.69357.49442 1.0328 1.2025.03748.078221.19282.24818.19282.24818.05007.077303.05741.12963.022.15695-.06294-.00174-.11947-.011933-.17533-.022945-.005-.00909-.0107-.018531-.01711-.028418 0 0-.16008-.16787-.19283-.2482-.30441-.74647-.70234-1.1827-.97002-1.2142-.20669-.02437-.42618.00196-.5414.042991z" style="clip-rule:evenodd;fill-rule:evenodd;fill:#3a2200;stroke-width:.027762"/>
  <path id="path528" d="m-27.449-4.8208c.05237.084557.17857.22265.17857.22265.05007.077303.05741.12963.022.15695-.05864-.00163-.11169-.010593-.16383-.02069-.08614-.062316-.19069-.13043-.21823-.23574-.0072-.027546-.03134-.066994-.02515-.096253.0041-.01948.03664-.027815.05084-.035415.04902-.026328.1052-.015353.1558.00849z" style="clip-rule:evenodd;fill-rule:evenodd;fill:#b98133;stroke-width:.027762"/>
  <path id="path530" d="m-27.799-4.7418c.000495-.036344-.60492-.55454-.64723-.58346-.07697-.052562-.1456-.10752-.2294-.15019-.08867-.045151-.19015-.077909-.25181.027477-.07022.11997.05049.25284.12654.33056.10191.10408.24508.20749.38118.26048.07643.029783.15751.049369.23253.082227.06684.029287.1223.08202.19225.10496.04945.016215.1009.00303.14569-.019778.02042-.010395.0499-.02566.05024-.052275z" style="clip-rule:evenodd;fill-rule:evenodd;fill:#997661;stroke-width:.027762"/>
 </g>
</svg>
