<?xml version="1.0" encoding="UTF-8" standalone="no"?>
<!-- Created with Inkscape (http://www.inkscape.org/) -->

<svg
   width="18.259001mm"
   height="18.259001mm"
   viewBox="0 0 18.259001 18.259"
   version="1.1"
   id="svg4290"
   inkscape:version="1.1.1 (3bf5ae0d25, 2021-09-20)"
   sodipodi:docname="appleB2.svg"
   xmlns:inkscape="http://www.inkscape.org/namespaces/inkscape"
   xmlns:sodipodi="http://sodipodi.sourceforge.net/DTD/sodipodi-0.dtd"
   xmlns="http://www.w3.org/2000/svg"
   xmlns:svg="http://www.w3.org/2000/svg">
  <sodipodi:namedview
     id="namedview4292"
     pagecolor="#ffffff"
     bordercolor="#666666"
     borderopacity="1.0"
     inkscape:pageshadow="2"
     inkscape:pageopacity="0.0"
     inkscape:pagecheckerboard="0"
     inkscape:document-units="mm"
     showgrid="false"
     inkscape:zoom="5.1241863"
     inkscape:cx="5.3667057"
     inkscape:cy="58.643457"
     inkscape:window-width="2048"
     inkscape:window-height="1017"
     inkscape:window-x="-8"
     inkscape:window-y="-8"
     inkscape:window-maximized="1"
     inkscape:current-layer="g4249" />
  <defs
     id="defs4287" />
  <g
     inkscape:label="Ebene 1"
     inkscape:groupmode="layer"
     id="layer1"
     transform="translate(-6.0866166,-70.759915)">
    <g
       id="g4249"
       style="clip-rule:evenodd;fill-rule:evenodd"
       transform="matrix(0.26458333,0,0,0.26458333,-47.524986,37.540587)">
      <circle
         style="font-variation-settings:normal;clip-rule:evenodd;vector-effect:none;fill:#fef388;fill-opacity:1;fill-rule:evenodd;stroke:#aa0000;stroke-width:1.91138px;stroke-linecap:butt;stroke-linejoin:miter;stroke-miterlimit:4;stroke-dasharray:none;stroke-dashoffset:0;stroke-opacity:1;-inkscape-stroke:none;paint-order:fill markers stroke;stop-color:#000000"
         id="path1357"
         cx="237.13173"
         cy="160.05856"
         r="33.549507" />
      <g
         transform="matrix(-1.3805,1.0197,-1.0197,-1.3805,875.7721,383.3757)"
         id="g224">
        <path
           d="m 222.002,324.749 c -1.602,-1.849 -1.002,-6.882 1.335,-8.043 1.991,3.987 1.359,5.839 -1.335,8.043 z"
           style="fill:#fdc72b"
           id="path222" />
      </g>
      <g
         transform="matrix(-1.21268,-1.21448,1.21448,-1.21268,111.9591,824.4137)"
         id="g288">
        <path
           d="m 222.002,324.749 c -0.678,-1.47 -0.707,-1.906 -0.928,-3.542 -0.212,-1.567 0.863,-4.04 2.286,-5.63 1.99,3.988 1.336,6.968 -1.358,9.172 z"
           style="fill:#fdc72b"
           id="path286" />
      </g>
      <g
         transform="matrix(0.633274,-1.36786,1.45501,0.673622,-377.1129,244.1567)"
         id="g352">
        <path
           d="m 222.002,324.749 c -1.338,-2.095 -2.475,-3.428 0.179,-8.047 0.054,-0.093 1.104,-1.681 1.735,-1.303 0.461,0.276 0.665,1.56 0.771,2.228 0.54,3.41 -0.337,5.201 -2.685,7.122 z"
           style="fill:#fdc72b"
           id="path350" />
      </g>
      <g
         transform="matrix(1.68891,-0.305171,0.305171,1.68891,-236.2296,-322.1193)"
         id="g416">
        <path
           d="m 222.755,324.492 c -0.282,0.316 -1.347,-1.207 -1.503,-1.94 -0.491,-2.311 0.013,-4.634 2.108,-6.975 1.73,3.465 1.263,6.819 -0.605,8.915 z"
           style="fill:#fdc72b"
           id="path414" />
      </g>
      <g
         transform="matrix(0.646776,1.58973,-1.58973,0.646776,612.0851,-403.0186)"
         id="g480">
        <path
           d="m 224.324,321.361 c -0.343,1.294 -2.334,3.398 -2.48,2.917 -0.777,-2.56 -0.808,-6.104 1.516,-8.701 1.113,2.229 1.399,4.144 0.964,5.784 z"
           style="fill:#fdc72b"
           id="path478" />
      </g>
      <g
         transform="matrix(0.0473783,0.100669,-0.100669,0.0473783,268.8851,117.3177)"
         id="g1028">
        <path
           d="m 232.834,436.196 c 3.333,3.087 5.163,6.477 8.2,9.622 12.798,13.248 20.456,31.603 23.158,48.403 2.688,16.719 -11.494,41.981 -35.708,15.147 -6.504,-7.208 -7.058,-29.858 0.555,-57.096 0.841,-3.009 0.666,-11.301 0.666,-11.301 0.478,-3.283 1.521,-4.875 3.129,-4.775 z"
           style="fill:none"
           id="path1014" />
        <path
           d="m 232.834,436.196 c 3.333,3.087 5.163,6.477 8.2,9.622 12.798,13.248 20.456,31.603 23.158,48.403 2.688,16.719 -11.494,41.981 -35.708,15.147 -6.504,-7.208 -7.058,-29.858 0.555,-57.096 0.841,-3.009 0.666,-11.301 0.666,-11.301 0.478,-3.283 1.521,-4.875 3.129,-4.775 z"
           style="fill:#613e0c"
           id="path1016" />
        <path
           d="m 232.834,436.196 c 3.333,3.087 5.163,6.477 8.2,9.622 12.798,13.248 20.456,31.603 23.158,48.403 2.688,16.719 -11.494,41.981 -35.708,15.147 -6.504,-7.208 -7.058,-29.858 0.555,-57.096 0.841,-3.009 0.666,-11.301 0.666,-11.301 0.478,-3.283 1.521,-4.875 3.129,-4.775 z"
           style="fill:#613e0c"
           id="path1018" />
        <path
           d="m 232.395,436.212 c 0.141,-0.02 0.287,-0.026 0.439,-0.016 3.333,3.087 5.163,6.477 8.2,9.622 12.798,13.248 20.456,31.603 23.158,48.403 1.903,11.837 -4.65,27.956 -17.232,26.837 10.812,-1.002 16.617,-15.483 15.107,-26.468 -2.317,-16.858 -9.554,-35.383 -22.046,-48.92 -2.856,-3.095 -4.587,-6.392 -7.626,-9.458 z"
           style="fill:#463012"
           id="path1020" />
        <path
           d="m 249.317,521.065 c -5.627,0.483 -12.658,-2.638 -20.833,-11.697 -6.504,-7.208 -7.058,-29.858 0.555,-57.096 0.841,-3.009 0.666,-11.301 0.666,-11.301 0.478,-3.283 1.521,-4.875 3.129,-4.775 1.664,1.541 2.954,3.159 4.206,4.783 -0.08,0.365 -0.15,0.756 -0.211,1.176 0,0 0.353,8.348 -0.666,11.302 -9.469,27.451 -9.04,48.715 -2.536,55.923 5.022,5.566 11.594,10.062 15.69,11.685 z"
           style="fill:#3a2200"
           id="path1022" />
        <path
           d="m 229.259,451.242 c 0.588,-3.534 0.446,-10.271 0.446,-10.271 0.478,-3.283 1.521,-4.875 3.129,-4.775 1.55,1.436 2.775,2.938 3.948,4.449 0.855,3.733 2.071,8.06 0.318,11.567 -0.459,0.917 -0.741,2.559 -1.603,3.205 -0.574,0.43 -1.653,-0.116 -2.218,-0.247 -1.953,-0.45 -3.215,-2.081 -4.02,-3.928 z"
           style="fill:#b98133"
           id="path1024" />
        <path
           d="m 240.608,457.4 c -0.876,0.973 3.229,29.383 3.689,31.171 0.838,3.251 1.393,6.369 2.651,9.514 1.331,3.328 3.303,6.624 7.475,5.232 4.75,-1.584 4.633,-8.049 4.417,-11.96 -0.291,-5.239 -1.716,-11.439 -4.146,-16.105 -1.364,-2.621 -3.096,-5.076 -4.349,-7.747 -1.116,-2.38 -1.367,-5.125 -2.718,-7.407 -0.955,-1.613 -2.662,-2.477 -4.417,-2.922 -0.8,-0.203 -1.961,-0.489 -2.602,0.224 z"
           style="fill:#997661"
           id="path1026" />
      </g>
      <g
         transform="matrix(-0.109932,-0.0171431,0.0171431,-0.109932,256.0971,208.6597)"
         id="g1060">
        <path
           d="m 232.834,436.196 c 3.333,3.087 5.163,6.477 8.2,9.622 12.798,13.248 20.456,31.603 23.158,48.403 2.688,16.719 -11.494,41.981 -35.708,15.147 -6.504,-7.208 -7.058,-29.858 0.555,-57.096 0.841,-3.009 0.666,-11.301 0.666,-11.301 0.478,-3.283 1.521,-4.875 3.129,-4.775 z"
           style="fill:none"
           id="path1046" />
        <path
           d="m 232.834,436.196 c 3.333,3.087 5.163,6.477 8.2,9.622 12.798,13.248 20.456,31.603 23.158,48.403 2.688,16.719 -11.494,41.981 -35.708,15.147 -6.504,-7.208 -7.058,-29.858 0.555,-57.096 0.841,-3.009 0.666,-11.301 0.666,-11.301 0.478,-3.283 1.521,-4.875 3.129,-4.775 z"
           style="fill:#613e0c"
           id="path1048" />
        <path
           d="m 232.834,436.196 c 3.333,3.087 5.163,6.477 8.2,9.622 12.798,13.248 20.456,31.603 23.158,48.403 2.688,16.719 -11.494,41.981 -35.708,15.147 -6.504,-7.208 -7.058,-29.858 0.555,-57.096 0.841,-3.009 0.666,-11.301 0.666,-11.301 0.478,-3.283 1.521,-4.875 3.129,-4.775 z"
           style="fill:#613e0c"
           id="path1050" />
        <path
           d="m 232.395,436.212 c 0.141,-0.02 0.287,-0.026 0.439,-0.016 3.333,3.087 5.163,6.477 8.2,9.622 12.798,13.248 20.456,31.603 23.158,48.403 1.903,11.837 -4.65,27.956 -17.232,26.837 10.812,-1.002 16.617,-15.483 15.107,-26.468 -2.317,-16.858 -9.554,-35.383 -22.046,-48.92 -2.856,-3.095 -4.587,-6.392 -7.626,-9.458 z"
           style="fill:#463012"
           id="path1052" />
        <path
           d="m 249.317,521.065 c -5.627,0.483 -12.658,-2.638 -20.833,-11.697 -6.504,-7.208 -7.058,-29.858 0.555,-57.096 0.841,-3.009 0.666,-11.301 0.666,-11.301 0.478,-3.283 1.521,-4.875 3.129,-4.775 1.664,1.541 2.954,3.159 4.206,4.783 -0.08,0.365 -0.15,0.756 -0.211,1.176 0,0 0.353,8.348 -0.666,11.302 -9.469,27.451 -9.04,48.715 -2.536,55.923 5.022,5.566 11.594,10.062 15.69,11.685 z"
           style="fill:#3a2200"
           id="path1054" />
        <path
           d="m 229.259,451.242 c 0.588,-3.534 0.446,-10.271 0.446,-10.271 0.478,-3.283 1.521,-4.875 3.129,-4.775 1.55,1.436 2.775,2.938 3.948,4.449 0.855,3.733 2.071,8.06 0.318,11.567 -0.459,0.917 -0.741,2.559 -1.603,3.205 -0.574,0.43 -1.653,-0.116 -2.218,-0.247 -1.953,-0.45 -3.215,-2.081 -4.02,-3.928 z"
           style="fill:#b98133"
           id="path1056" />
        <path
           d="m 240.608,457.4 c -0.876,0.973 3.229,29.383 3.689,31.171 0.838,3.251 1.393,6.369 2.651,9.514 1.331,3.328 3.303,6.624 7.475,5.232 4.75,-1.584 4.633,-8.049 4.417,-11.96 -0.291,-5.239 -1.716,-11.439 -4.146,-16.105 -1.364,-2.621 -3.096,-5.076 -4.349,-7.747 -1.116,-2.38 -1.367,-5.125 -2.718,-7.407 -0.955,-1.613 -2.662,-2.477 -4.417,-2.922 -0.8,-0.203 -1.961,-0.489 -2.602,0.224 z"
           style="fill:#997661"
           id="path1058" />
      </g>
    </g>
  </g>
</svg>
