<?xml version="1.0" encoding="utf-8"?>
<svg viewBox="6600 12200 100 300" width="48.153mm" height="144.458mm" style="clip-rule:evenodd;fill-rule:evenodd;image-rendering:optimizeQuality;shape-rendering:geometricPrecision;text-rendering:geometricPrecision" xmlns="http://www.w3.org/2000/svg">
  <defs>
    <style type="text/css" id="style2">
   
    .fil5 {fill:#000300}
    .fil14 {fill:#007020}
    .fil18 {fill:#008DC6}
    .fil12 {fill:#009429}
    .fil16 {fill:#00B3EC}
    .fil19 {fill:#1A1719}
    .fil24 {fill:#407898}
    .fil21 {fill:#4D94BB}
    .fil15 {fill:#68B012}
    .fil13 {fill:#78B409}
    .fil8 {fill:#883223}
    .fil23 {fill:#986B98}
    .fil6 {fill:#9A3727}
    .fil25 {fill:#9E71A8}
    .fil0 {fill:#A1A3A5}
    .fil17 {fill:#A7DFF7}
    .fil20 {fill:#B192C2}
    .fil22 {fill:#C2A7CF}
    .fil3 {fill:#C6826A}
    .fil7 {fill:#D54835}
    .fil11 {fill:#DD943C}
    .fil1 {fill:#E30011}
    .fil4 {fill:#F7B8A7}
    .fil9 {fill:#FCB200}
    .fil10 {fill:#FFE040}
    .fil2 {fill:white}
    .fil26 {fill:#2B2A29;fill-rule:nonzero}
   
  </style>
  </defs>
  <line style="stroke-width: 2px; stroke: rgb(176, 176, 176);" x1="6500" y1="12208.576" x2="6600" y2="12208.576"/>
  <line style="stroke-width: 2px; stroke: rgb(176, 176, 176);" x1="6500" y1="12233.091" x2="6600" y2="12233.091"/>
  <line style="stroke-width: 2px; stroke: rgb(176, 176, 176);" x1="6500" y1="12256.315" x2="6600" y2="12256.315"/>
  <line style="stroke-width: 2px; stroke: rgb(176, 176, 176);" x1="6500" y1="12280.83" x2="6600" y2="12280.83"/>
  <line style="stroke-width: 2px; stroke: rgb(176, 176, 176);" x1="6500" y1="12305" x2="6600" y2="12305"/>
  <line style="stroke-width: 2px; stroke: rgb(176, 176, 176);" x1="6500" y1="12329.515" x2="6600" y2="12329.515"/>
  <line style="stroke-width: 2px; stroke: rgb(176, 176, 176);" x1="6500" y1="12352.739" x2="6600" y2="12352.739"/>
  <line style="stroke-width: 2px; stroke: rgb(176, 176, 176);" x1="6500" y1="12377.254" x2="6600" y2="12377.254"/>
  <line style="stroke-width: 2px; stroke: rgb(176, 176, 176);" x1="6500" y1="12402" x2="6600" y2="12402"/>
  <line style="stroke-width: 2px; stroke: rgb(176, 176, 176);" x1="6500" y1="12426.515" x2="6600" y2="12426.515"/>
  <line style="stroke-width: 2px; stroke: rgb(176, 176, 176);" x1="6500" y1="12449.739" x2="6600" y2="12449.739"/>
  <line style="stroke-width: 2px; stroke: rgb(176, 176, 176);" x1="6500" y1="12474.254" x2="6600" y2="12474.254"/>
  <line style="stroke-width: 2px; stroke: rgb(176, 176, 176);" x1="6600" y1="12208.576" x2="6700" y2="12208.576"/>
  <line style="stroke-width: 2px; stroke: rgb(176, 176, 176);" x1="6600" y1="12233.091" x2="6700" y2="12233.091"/>
  <line style="stroke-width: 2px; stroke: rgb(176, 176, 176);" x1="6600" y1="12256.315" x2="6700" y2="12256.315"/>
  <line style="stroke-width: 2px; stroke: rgb(176, 176, 176);" x1="6600" y1="12280.83" x2="6700" y2="12280.83"/>
  <line style="stroke-width: 2px; stroke: rgb(176, 176, 176);" x1="6600" y1="12305" x2="6700" y2="12305"/>
  <line style="stroke-width: 2px; stroke: rgb(176, 176, 176);" x1="6600" y1="12329.515" x2="6700" y2="12329.515"/>
  <line style="stroke-width: 2px; stroke: rgb(176, 176, 176);" x1="6600" y1="12352.739" x2="6700" y2="12352.739"/>
  <line style="stroke-width: 2px; stroke: rgb(176, 176, 176);" x1="6600" y1="12377.254" x2="6700" y2="12377.254"/>
  <line style="stroke-width: 2px; stroke: rgb(176, 176, 176);" x1="6600" y1="12402" x2="6700" y2="12402"/>
  <line style="stroke-width: 2px; stroke: rgb(176, 176, 176);" x1="6600" y1="12426.515" x2="6700" y2="12426.515"/>
  <line style="stroke-width: 2px; stroke: rgb(176, 176, 176);" x1="6600" y1="12449.739" x2="6700" y2="12449.739"/>
  <line style="stroke-width: 2px; stroke: rgb(176, 176, 176);" x1="6600" y1="12474.254" x2="6700" y2="12474.254"/>
  <line style="stroke-width: 2px; stroke: rgb(176, 176, 176);" x1="6700" y1="12208.576" x2="6800" y2="12208.576"/>
  <line style="stroke-width: 2px; stroke: rgb(176, 176, 176);" x1="6700" y1="12233.091" x2="6800" y2="12233.091"/>
  <line style="stroke-width: 2px; stroke: rgb(176, 176, 176);" x1="6700" y1="12256.315" x2="6800" y2="12256.315"/>
  <line style="stroke-width: 2px; stroke: rgb(176, 176, 176);" x1="6700" y1="12280.83" x2="6800" y2="12280.83"/>
  <line style="stroke-width: 2px; stroke: rgb(176, 176, 176);" x1="6700" y1="12305" x2="6800" y2="12305"/>
  <line style="stroke-width: 2px; stroke: rgb(176, 176, 176);" x1="6700" y1="12329.515" x2="6800" y2="12329.515"/>
  <line style="stroke-width: 2px; stroke: rgb(176, 176, 176);" x1="6700" y1="12352.739" x2="6800" y2="12352.739"/>
  <line style="stroke-width: 2px; stroke: rgb(176, 176, 176);" x1="6700" y1="12377.254" x2="6800" y2="12377.254"/>
  <line style="stroke-width: 2px; stroke: rgb(176, 176, 176);" x1="6700" y1="12402" x2="6800" y2="12402"/>
  <line style="stroke-width: 2px; stroke: rgb(176, 176, 176);" x1="6700" y1="12426.515" x2="6800" y2="12426.515"/>
  <line style="stroke-width: 2px; stroke: rgb(176, 176, 176);" x1="6700" y1="12449.739" x2="6800" y2="12449.739"/>
  <line style="stroke-width: 2px; stroke: rgb(176, 176, 176);" x1="6700" y1="12474.254" x2="6800" y2="12474.254"/>
  <g id="g2062" transform="matrix(0.02272, 0, 0, 0.02272, 6513.92246, 12208.750182)">
    <path class="fil3" d="m 5411,9630 c 24,-14 -45,8 -66,12 -105,21 -106,25 -138,121 -26,80 112,36 97,81 -56,170 -113,279 -113,470 0,120 -4,262 73,364 28,38 150,81 121,138 -41,82 -133,137 -178,227 -111,223 -235,978 -152,1227 128,384 212,599 695,530 64,-10 142,3 202,-17 48,-16 193,-162 243,-145 58,19 104,88 154,105 205,68 626,87 818,-8 72,-37 111,-111 81,-203 -29,-85 -146,-40 -195,-89 -7,-7 0,-21 0,-32 0,-136 8,-275 8,-413 0,-393 -73,-713 -194,-1077 -25,-76 -48,-153 -73,-226 -5,-15 3,-12 8,-17 107,-106 49,-695 49,-866 h 32 c 70,0 64,-94 41,-129 -37,-55 -87,-16 -138,-33 -86,-28 -131,-94 -227,-113 -287,-58 -607,123 -898,65 -59,-12 -234,57 -268,24 m 18,4 z" id="path77"/>
    <path class="fil4" d="m 5503,9629 c -43,16 -48,91 -52,130 -11,123 98,262 196,330 269,186 616,57 868,-100 108,-68 239,-112 260,-258 12,-80 -43,-126 -117,-137 -49,-7 -98,1 -146,-3 -110,-8 -219,-18 -330,-14 -54,2 -106,12 -160,14 -76,3 -153,0 -229,0 -76,0 -153,13 -227,28 -6,1 -59,2 -59,9 m -4,1 z" id="path83"/>
    <path class="fil7" d="m 6096,9953 c -101,-15 -154,250 -128,326 44,133 393,234 514,154 157,-105 150,-364 33,-481 -74,-74 -269,59 -374,7 -10,-5 -33,9 -33,-7 m -12,1 z" id="path97"/>
    <path class="fil6" d="m 5277,9962 c -11,18 -92,-47 -107,-52 -67,-23 -147,-40 -211,-19 -338,112 -239,710 -217,968 19,237 108,479 173,707 19,66 69,148 69,217 0,27 14,49 18,74 3,15 13,59 13,44 0,-231 40,-466 136,-676 43,-94 254,-342 254,-428 0,-97 -137,-163 -186,-236 -62,-93 -43,-239 -43,-347 0,-46 31,-199 80,-199 m 21,-53 z" id="path105"/>
    <path class="fil2" d="m 6219,10464 c -7,5 -1,19 0,26 4,31 28,30 53,41 45,19 123,37 167,8 20,-13 21,-31 32,-47 7,-12 27,-39 20,-54 -4,-7 -22,1 -26,2 -26,12 -57,17 -83,24 -52,13 -111,12 -161,12 m -2,-12 z" id="path115"/>
    <path class="fil2" d="m 6582,9681 c 12,0 36,-8 47,2 16,17 25,71 11,91 -24,36 -101,44 -140,37 -9,-1 -11,-10 -17,-15 -8,-6 -40,-4 -44,-14 -4,-12 23,-31 30,-38 29,-26 70,-65 106,-65 m 7,2 z" id="path117"/>
    <path class="fil2" d="m 5768,9754 c -42,-12 -62,31 -78,69 -5,13 -15,36 -8,49 16,27 52,34 79,34 60,0 164,-25 193,-85 36,-71 -87,-69 -122,-65 -17,2 -38,-4 -53,6 m -11,-8 z" id="path119"/>
    <path class="fil4" d="m 5816,11068 c 5,-189 498,-277 634,-236 517,155 372,1125 -20,1349 -369,211 -1074,67 -954,-471 13,-59 61,-138 101,-178 15,-15 203,84 290,96 321,46 730,-204 644,-548 -23,-90 -211,-23 -254,6 -64,43 -209,265 -284,152 -22,-34 -25,-75 -46,-107 -15,-22 -86,-52 -86,-71 m -25,8 z" id="path125"/>
    <g id="_876272864">
      <path class="fil9" d="m 5393,9536 c -25,8 -196,-633 -171,-732 52,-207 211,-77 260,-126 27,-27 -31,-293 -31,-395 0,-181 -20,-364 0,-544 25,-229 109,-446 149,-670 92,-506 72,-1051 213,-1547 126,-440 276,-865 418,-1293 25,-73 -422,-325 -370,-584 56,-280 347,-457 631,-386 164,41 390,186 347,402 -44,218 -337,303 -418,465 -31,62 132,516 165,584 223,445 221,990 221,1491 0,595 -4,1240 -63,1830 -3,35 -45,602 -24,623 24,23 180,-74 221,8 51,101 -141,566 -181,686 -24,73 160,224 87,260 -62,31 -287,-55 -379,-55 -158,0 -848,97 -946,48 -41,-21 -144,-48 -182,-48 m 53,-17 z" id="path139"/>
      <path class="fil10" d="m 6339,4425 c -51,14 -29,290 -29,340 0,317 46,627 63,939 11,192 -60,341 -78,528 -23,224 9,385 -95,592 -22,43 140,161 126,237 -24,133 -260,308 -213,449 32,94 172,49 213,142 69,156 -137,194 8,339 75,75 40,496 -8,592 -3,6 -16,32 -8,39 15,16 102,-1 126,8 42,17 146,30 190,8 31,-16 0,-208 0,-236 0,-265 -27,-511 -63,-766 -22,-152 37,-367 47,-520 25,-405 28,-872 -8,-1262 -11,-122 85,-242 55,-363 -13,-54 -75,-21 -94,-63 -74,-159 98,-200 -48,-387 -160,-206 -91,-414 -157,-615 -6,-17 -18,-32 -32,-32 m 5,31 z" id="path141"/>
      <path class="fil10" d="m 6193,3366 c -28,-190 209,7 244,145 33,133 -74,487 39,450 160,-54 289,-321 197,-474 -66,-110 -207,-132 -307,-165 -40,-13 -155,25 -127,39 m -46,5 z" id="path143"/>
      <path class="fil10" d="m 6838,8734 c -126,-12 -259,29 -386,38 -269,20 -554,-23 -820,-23 -131,0 -154,20 -260,63 -35,14 -111,-45 -111,-8 0,113 323,68 379,63 328,-27 667,33 994,0 56,-6 270,-90 213,-118 m -9,-15 z" id="path145"/>
      <path class="fil11" d="m 6152,4717 c -78,347 -174,691 -268,1034 -161,592 -182,1317 -284,1925 -31,187 -104,873 8,986 64,63 236,-60 292,-32 5,3 24,16 32,8 6,-6 -88,-737 -95,-844 -23,-343 37,-729 103,-1057 12,-63 -58,-112 -48,-181 10,-71 67,-131 79,-205 14,-83 -23,-175 -16,-261 12,-138 63,-254 63,-402 0,-198 73,-386 111,-576 4,-22 -18,-299 -8,-299 m 31,-96 z" id="path147"/>
      <path class="fil11" d="m 5326,8930 c -24,0 -17,31 -17,47 0,132 -13,360 63,474 105,157 1205,240 1301,47 34,-68 -294,-112 -371,-150 -146,-73 -528,-349 -646,-378 -95,-24 -178,-49 -269,-79 -40,-14 -123,39 -118,39 m 57,0 z" id="path149"/>
      <path class="fil11" d="m 5969,3846 c 69,128 237,353 373,217 29,-29 44,-85 31,-134 -5,-21 -36,-41 -55,-47 -103,-35 -245,-40 -339,-87 -10,-5 -32,-17 -32,8 m 22,43 z" id="path151"/>
    </g>
    <g id="g294">
      <path class="fil19" d="m 5257,9845 c -199,340 -150,707 84,917 -100,118 -464,624 -337,1553 9,64 80,253 157,367 39,56 81,93 117,100 304,55 598,43 722,2 101,-33 153,-55 173,-72 7,-6 12,-12 15,-18 45,21 100,44 155,59 119,31 237,12 360,34 156,29 436,22 542,5 30,-5 49,-13 56,-19 11,-9 14,-20 14,-29 0,-118 -24,-188 -56,-233 -34,-48 -79,-68 -121,-82 -21,-7 -42,-12 -59,-19 -10,-4 -19,-8 -24,-17 -9,-16 -7,-40 3,-80 73,-271 -10,-851 -106,-1212 -29,-109 -59,-199 -87,-254 -13,-28 -26,-48 -38,-59 -11,-11 -10,-24 -6,-49 9,-60 41,-162 85,-359 11,-50 7,-136 -3,-223 -14,-122 -38,-247 -38,-266 0,-1 -1,-7 -1,-12 42,-36 60,-35 88,-112 22,-61 26,-99 14,-127 -13,-28 -45,-50 -111,-67 -18,-5 -36,6 -41,24 -5,19 6,37 24,42 23,6 40,11 52,18 7,3 12,6 14,11 2,6 1,13 0,21 -3,15 -8,33 -16,55 -15,42 -26,52 -44,65 -10,7 -22,16 -37,30 -4,4 -10,12 -11,24 -1,8 1,25 1,28 0,20 24,148 39,274 9,78 14,155 4,201 -45,198 -77,302 -86,363 -8,56 1,84 25,107 11,11 23,34 36,64 23,53 47,129 71,219 93,350 177,913 107,1177 -18,65 -12,105 3,130 16,29 44,44 79,55 35,11 79,18 114,52 33,32 55,88 57,190 -83,18 -373,26 -530,-3 -122,-22 -238,-2 -355,-33 -124,-34 -240,-106 -249,-109 -26,-10 -38,10 -41,15 -2,3 -13,26 10,45 13,10 25,19 34,27 1,1 1,1 2,2 -2,1 -4,2 -5,3 -26,13 -68,28 -133,49 -118,39 -399,49 -689,-4 -9,-2 -19,-9 -29,-19 -15,-13 -29,-32 -43,-53 -72,-105 -138,-278 -146,-337 -142,-1033 342,-1524 342,-1524 7,-6 10,-16 10,-25 -1,-10 -6,-19 -13,-25 -241,-192 -286,-555 -77,-884 6,-8 7,-17 5,-26 -1,-6 -5,-17 -18,-24 -8,-5 -30,-10 -52,-23 -13,-7 -27,-17 -33,-33 -4,-11 -4,-25 0,-42 15,-54 70,-76 140,-60 18,4 37,-7 41,-26 4,-18 -8,-36 -26,-40 -114,-27 -197,22 -220,108 -9,34 -7,61 1,83 12,33 38,56 64,70 7,4 14,7 21,10 z" id="path230"/>
      <path class="fil19" d="m 5045,11992 c 2,-42 -14,-115 -37,-196 -33,-113 -77,-242 -91,-312 -79,-393 -187,-792 -164,-1196 6,-115 76,-240 171,-312 88,-68 199,-88 297,3 14,13 35,12 48,-2 13,-13 12,-35 -2,-48 -126,-117 -270,-95 -385,-7 -109,84 -190,229 -197,362 -23,410 85,815 165,1214 14,70 59,202 92,317 21,71 37,136 35,173 -1,19 13,35 32,36 19,1 35,-14 36,-32 z" id="path232"/>
      <path class="fil19" d="m 4997,10056 c -69,176 -104,375 -126,560 -4,31 -12,72 -11,109 1,28 8,55 24,74 6,8 16,9 24,3 7,-6 8,-17 2,-24 -11,-14 -15,-34 -16,-54 -1,-36 7,-75 11,-104 22,-183 55,-378 123,-551 4,-9 0,-19 -9,-22 -9,-4 -19,1 -22,9 z" id="path234"/>
      <path class="fil19" d="m 5065,10419 c -67,227 -121,461 -121,697 0,10 8,17 17,17 9,0 17,-7 17,-17 0,-233 53,-463 120,-687 3,-9 -3,-19 -12,-21 -9,-3 -18,2 -21,11 z" id="path236"/>
      <path class="fil19" d="m 4852,10800 c 5,2 12,5 17,7 22,13 47,30 53,35 h 1 c 74,83 118,184 154,284 4,9 13,14 22,11 9,-3 14,-13 10,-22 -37,-105 -84,-210 -162,-296 -1,-2 -18,-14 -37,-27 -20,-13 -44,-25 -59,-28 -13,-3 -23,1 -29,8 -5,6 -8,16 -3,32 3,9 12,14 21,11 7,-2 12,-8 12,-15 z" id="path238"/>
      <path class="fil19" d="m 4864,10429 c 6,-3 13,-2 20,1 10,4 20,11 31,19 34,28 67,70 79,83 44,46 73,101 101,157 29,59 58,118 99,170 6,7 17,8 24,3 8,-6 9,-17 3,-24 -40,-50 -67,-108 -96,-164 -29,-59 -60,-117 -106,-165 -15,-16 -60,-74 -102,-100 -23,-14 -46,-20 -66,-12 -8,3 -13,13 -9,22 3,8 13,13 22,10 z" id="path240"/>
      <path class="fil19" d="m 4934,10173 c 2,-14 4,-24 8,-32 2,-4 4,-8 7,-9 3,-2 7,0 12,3 9,6 19,15 29,27 58,67 123,204 124,208 4,8 14,12 23,9 8,-4 12,-14 9,-23 -2,-3 -47,-98 -96,-171 -22,-32 -45,-60 -66,-75 -15,-11 -31,-15 -43,-11 -9,2 -17,7 -24,17 -7,11 -13,28 -17,52 -1,10 5,18 15,20 9,1 17,-6 19,-15 z" id="path242"/>
      <path class="fil19" d="m 6347,9800 c -70,-22 -162,-14 -224,15 -41,19 -69,49 -73,82 -4,33 15,72 73,113 47,33 112,39 174,28 60,-11 117,-38 150,-71 33,-33 43,-71 19,-105 -17,-23 -54,-46 -119,-62 z m -20,29 c -61,-16 -137,-8 -189,17 -30,13 -52,32 -54,55 -3,24 15,51 59,81 27,19 61,27 97,27 55,1 113,-17 154,-43 21,-14 38,-29 46,-45 7,-13 7,-26 -2,-39 -9,-12 -25,-23 -49,-33 -5,2 -12,2 -17,-1 -9,-6 -20,-11 -31,-15 -3,0 -6,-1 -9,-2 -2,0 -4,-1 -5,-2 z" id="path244"/>
      <path class="fil19" d="m 6061,9942 c -99,92 -142,276 -68,403 50,84 151,145 325,134 143,-9 234,-76 277,-161 65,-129 21,-302 -126,-392 -8,-5 -18,-2 -23,6 -5,8 -2,18 6,23 130,80 170,233 113,348 -39,76 -121,134 -249,142 -156,10 -249,-42 -294,-117 -66,-114 -26,-278 62,-361 7,-6 8,-17 1,-24 -6,-7 -17,-7 -24,-1 z" id="path246"/>
      <path class="fil19" d="m 6320,10009 c 29,97 36,282 36,379 0,9 8,17 17,17 9,0 17,-8 17,-17 0,-100 -8,-289 -37,-388 -3,-9 -12,-14 -21,-12 -9,3 -14,12 -12,21 z" id="path248"/>
      <path class="fil19" d="m 6364,10536 c -1,1 -7,1 -11,1 -11,-1 -23,-4 -28,-5 -18,-6 -36,-6 -52,-5 -16,1 -32,3 -46,-9 -1,-4 -3,-16 -3,-24 0,-6 1,-13 1,-19 6,-5 8,-13 4,-20 -7,-12 -16,-12 -21,-10 -4,1 -11,4 -14,13 -3,9 -5,39 -2,58 0,7 2,13 3,16 2,4 4,7 6,9 20,19 40,21 63,21 16,-1 33,-4 51,2 7,2 27,6 42,7 8,0 16,-1 21,-4 16,-7 36,-10 54,-16 23,-6 44,-16 58,-36 5,-7 9,-18 12,-31 3,-15 4,-33 6,-47 1,-6 2,-13 3,-16 4,-3 7,-8 7,-14 0,-10 -7,-17 -17,-17 -8,0 -18,5 -23,20 -3,10 -4,29 -7,48 -2,15 -3,29 -9,37 -9,14 -24,19 -39,24 -20,5 -41,9 -59,17 z" id="path250"/>
      <path class="fil19" d="m 6392,10474 c 7,-6 8,-16 3,-23 -6,-9 -12,-12 -15,-13 -6,-1 -10,0 -15,3 -2,2 -6,5 -7,12 -1,4 1,17 0,30 -1,20 -4,38 -9,57 -2,9 4,18 13,20 10,2 19,-4 21,-13 4,-21 8,-41 9,-63 0,-3 0,-7 0,-10 z" id="path252"/>
      <path class="fil19" d="m 6426,9694 c -22,-5 -8,54 -3,64 25,45 151,24 168,-22 19,-53 -67,-68 -106,-68 -18,0 -27,8 -43,11 -3,0 -31,9 -26,4 m 10,11 z" id="path254"/>
      <path class="fil19" d="m 5714,9772 c -17,1 15,50 22,54 41,25 176,4 151,-66 -7,-20 -35,-24 -55,-28 -58,-11 -106,-4 -135,49 m 17,-9 z" id="path256"/>
      <path class="fil19" d="m 6169,9817 c -47,14 -68,13 -99,52 -15,19 -2,59 7,77 25,45 59,87 122,81 68,-7 189,-6 236,-64 24,-30 1,-80 -23,-103 -63,-58 -128,-53 -213,-53 m -30,10 z" id="path258"/>
      <path class="fil19" d="m 5595,9737 c 1,-1 1,-2 2,-3 2,-3 4,-7 8,-10 14,-16 39,-33 49,-35 9,-2 16,-11 14,-20 -2,-9 -11,-15 -20,-14 -7,2 -19,7 -32,15 -17,12 -35,28 -46,42 -11,17 -12,34 -2,45 6,7 16,8 23,2 7,-6 8,-15 4,-22 z" id="path260"/>
      <path class="fil19" d="m 6671,9678 c 3,0 4,2 6,4 2,4 5,8 7,12 5,8 16,10 23,5 8,-5 11,-15 6,-23 -4,-6 -7,-12 -11,-17 -7,-8 -15,-14 -27,-15 -9,-1 -17,5 -19,15 -1,9 6,17 15,19 z" id="path262"/>
      <path class="fil19" d="m 5365,9672 c -17,-13 -32,-13 -44,-9 -12,5 -22,15 -26,29 -9,25 -1,58 26,70 9,4 19,0 23,-8 3,-9 0,-19 -9,-23 -8,-3 -10,-13 -10,-21 1,-7 3,-14 8,-15 3,-1 7,1 12,4 8,6 19,4 24,-3 6,-8 4,-19 -4,-24 z" id="path264"/>
      <path class="fil19" d="m 5408,9664 c -48,7 -85,56 -85,100 0,9 7,17 17,17 9,0 17,-8 17,-17 0,-29 24,-62 56,-66 10,-2 16,-11 15,-20 -2,-9 -11,-15 -20,-14 z" id="path266"/>
      <path class="fil19" d="m 6814,9688 c 0,-3 -1,-6 -2,-9 -8,-14 -20,-10 -22,-9 -4,1 -12,5 -11,17 0,3 6,22 8,30 4,18 9,35 9,53 0,10 7,17 17,17 9,0 17,-7 17,-17 0,-21 -5,-41 -10,-61 -1,-4 -4,-15 -6,-21 z" id="path268"/>
      <path class="fil19" d="m 6818,9697 c 0,-2 0,-5 2,-7 1,-4 5,-7 8,-10 4,-2 9,-5 11,0 7,12 -1,20 -7,29 -8,11 -16,24 -16,38 0,9 8,17 17,17 10,0 17,-8 17,-17 0,-5 3,-9 6,-13 2,-4 6,-9 9,-13 10,-16 17,-34 4,-57 -6,-11 -14,-17 -23,-20 -12,-3 -25,0 -37,8 -18,13 -30,37 -22,57 3,8 13,13 21,10 9,-3 14,-13 10,-22 z" id="path270"/>
      <path class="fil19" d="m 6320,11202 c 16,-22 16,-45 17,-66 0,-10 0,-19 5,-27 6,-8 17,-14 37,-19 10,-2 15,-11 13,-20 -2,-9 -11,-15 -20,-13 -33,8 -49,20 -58,33 -7,9 -9,20 -11,31 0,9 0,18 -1,28 0,11 -2,22 -9,33 -6,8 -4,18 4,24 7,5 18,3 23,-4 z" id="path272"/>
      <path class="fil19" d="m 6431,11154 c 1,-3 2,-8 4,-12 7,-11 17,-23 27,-30 4,-4 8,-7 12,-7 9,0 17,-7 17,-17 0,-9 -8,-17 -17,-17 -8,0 -19,4 -29,11 -19,13 -39,37 -45,57 -7,20 -2,36 13,43 9,5 19,1 23,-7 4,-8 2,-17 -5,-21 z" id="path274"/>
      <path class="fil19" d="m 6471,11243 c 10,-14 9,-12 25,-19 9,-4 12,-14 9,-23 -4,-8 -15,-12 -23,-8 -24,11 -22,8 -39,30 -5,8 -4,18 4,24 8,6 18,4 24,-4 z" id="path276"/>
      <path class="fil19" d="m 6969,12662 c 4,4 9,9 11,12 9,16 15,36 23,56 9,22 20,43 37,59 7,6 17,6 24,-1 6,-7 6,-18 -1,-24 -13,-12 -21,-30 -28,-47 -9,-21 -16,-42 -25,-60 -4,-6 -14,-17 -22,-23 -6,-5 -11,-7 -14,-7 -9,-2 -15,2 -18,7 -2,3 -5,9 -1,19 3,5 8,9 14,9 z m 18,-21 z m 0,-1 v 1 z m 0,-1 v 1 0 z m 0,0 c -1,0 -1,0 -1,-1 z" id="path278"/>
      <path class="fil19" d="m 7091,12645 c 1,3 4,8 5,12 8,27 16,69 21,95 3,14 5,24 7,27 5,9 15,12 23,7 8,-4 11,-14 7,-22 0,-1 -4,-21 -8,-38 -6,-34 -15,-76 -24,-96 -10,-20 -25,-22 -36,-16 -8,5 -11,15 -6,24 3,4 7,6 11,7 z" id="path280"/>
      <path class="fil19" d="m 7152,12650 c 9,33 11,71 17,105 1,9 10,15 20,14 9,-2 15,-11 13,-20 -6,-35 -8,-74 -17,-108 -2,-9 -12,-14 -21,-12 -9,3 -14,12 -12,21 z" id="path282"/>
      <path class="fil19" d="m 5738,12666 c 9,6 14,13 18,21 6,11 10,22 14,33 8,19 19,35 36,43 9,4 19,0 23,-9 4,-8 0,-18 -9,-22 -5,-3 -9,-7 -12,-12 -4,-7 -7,-16 -11,-24 -9,-23 -19,-45 -41,-59 -8,-5 -19,-2 -24,6 -4,8 -2,19 6,23 z" id="path284"/>
      <path class="fil19" d="m 5908,12656 c 6,-3 10,-5 14,-4 2,0 3,2 4,4 2,3 3,7 4,11 8,23 10,54 18,69 4,8 15,11 23,7 8,-4 11,-15 7,-23 -4,-7 -6,-20 -8,-32 -3,-17 -7,-34 -13,-46 -6,-12 -15,-20 -26,-23 -10,-3 -23,-2 -40,8 -8,5 -11,15 -6,23 4,8 15,11 23,6 z" id="path286"/>
      <path class="fil19" d="m 5844,9720 c -5,-5 -11,-8 -18,-10 -19,-5 -51,1 -83,15 -26,12 -51,29 -67,49 -15,16 -23,35 -23,53 1,19 11,38 35,55 110,75 233,8 270,-57 20,-35 17,-69 -11,-89 -19,-14 -52,-22 -103,-16 z m -25,23 c 2,8 10,13 18,12 30,-4 53,-4 70,0 13,3 22,8 26,15 4,6 4,14 2,21 -2,11 -9,22 -18,33 -40,47 -129,85 -209,30 -13,-9 -20,-18 -21,-28 0,-11 6,-21 14,-30 14,-16 35,-30 56,-40 18,-8 35,-13 49,-14 3,0 6,0 9,0 1,0 3,1 4,1 z" id="path288"/>
      <path class="fil19" d="m 6664,9773 c 14,-17 18,-33 16,-47 -3,-14 -12,-27 -26,-38 -16,-12 -38,-22 -64,-28 -36,-10 -80,-13 -116,-8 -36,5 -66,20 -78,42 -10,16 -12,37 0,62 16,36 54,56 100,62 37,5 79,1 112,-11 24,-8 44,-20 56,-34 z m -26,-22 c -8,10 -23,18 -41,24 -28,10 -64,14 -97,9 -32,-4 -62,-16 -73,-41 -5,-11 -6,-21 -4,-28 5,-13 18,-20 35,-25 34,-10 83,-8 124,3 20,5 39,12 51,22 7,5 12,10 13,17 1,6 -2,12 -8,19 z" id="path290"/>
      <path class="fil19" d="m 5464,11408 c 1,-2 1,-4 1,-6 0,-10 -7,-17 -17,-17 -12,0 -19,4 -22,8 -5,5 -7,13 -3,22 3,5 13,15 28,25 26,17 68,39 87,53 78,52 184,96 276,121 312,83 578,-65 709,-309 17,-32 34,-75 36,-115 2,-30 -5,-58 -23,-79 -33,-39 -68,-60 -102,-68 -51,-13 -102,3 -153,31 -79,43 -156,117 -230,151 -4,2 -22,6 -25,6 -51,-24 -86,-65 -118,-109 -34,-47 -66,-98 -108,-138 -7,-7 -18,-6 -24,1 -7,6 -6,17 0,24 42,38 72,87 105,133 36,49 75,94 132,121 4,2 11,3 20,2 11,-1 27,-7 32,-9 75,-35 153,-109 232,-153 43,-23 86,-38 129,-27 29,7 56,25 84,57 13,15 16,34 15,55 -2,35 -17,73 -32,101 -124,230 -375,371 -671,292 -88,-24 -190,-66 -265,-117 -20,-14 -68,-38 -93,-56 z" id="path292"/>
    </g>
    <g id="g342">
      <path class="fil19" d="m 5395,8695 c -5,0 -14,0 -21,-1 -18,-4 -39,-10 -58,-14 -25,-7 -49,-10 -65,-6 -22,5 -36,17 -42,39 -72,255 19,588 79,893 0,1 0,3 0,5 0,18 15,33 34,33 395,0 839,-37 1256,-37 43,0 80,24 117,38 34,13 69,19 105,7 10,-3 20,-7 28,-13 34,-20 45,-44 47,-64 2,-22 -7,-44 -25,-64 -22,-23 -59,-45 -89,-61 -6,-3 -12,-7 -18,-10 2,-10 6,-26 10,-41 45,-160 188,-549 189,-731 0,-27 -9,-45 -21,-57 -12,-13 -29,-20 -50,-22 -26,-2 -60,5 -93,16 -18,6 -38,13 -56,20 82,-959 43,-1834 112,-2797 12,-172 -29,-390 -90,-616 -89,-333 -220,-683 -271,-924 -29,-133 55,-195 142,-259 106,-79 217,-159 217,-318 0,-111 -23,-265 -125,-370 -69,-71 -174,-120 -333,-116 -157,3 -258,29 -331,76 -74,48 -120,117 -161,211 -54,121 -55,218 -30,297 37,117 135,198 221,268 43,35 83,67 107,101 19,26 28,53 15,84 -510,1268 -768,3487 -796,3798 -10,120 3,226 12,331 9,98 12,196 -16,304 z m -43,881 c 387,-1 819,-37 1226,-37 44,0 84,18 122,35 26,11 52,22 80,13 4,-1 9,-3 12,-5 6,-3 10,-7 13,-10 1,-1 3,-2 3,-3 -2,-9 -12,-17 -23,-25 -24,-18 -54,-33 -74,-43 -12,-7 -21,-13 -25,-17 -5,-5 -11,-13 -12,-27 -2,-12 3,-39 14,-76 44,-156 185,-535 186,-713 0,-4 0,-7 -1,-9 -2,-3 -6,-2 -10,-2 -8,-1 -18,0 -28,2 -41,9 -89,30 -116,41 -13,5 -23,8 -28,9 -7,0 -13,-1 -17,-2 -8,-3 -14,-8 -18,-13 -4,-7 -7,-14 -6,-24 88,-979 46,-1867 116,-2847 12,-165 -29,-376 -88,-594 -89,-334 -220,-685 -272,-927 -35,-165 60,-248 169,-328 89,-66 189,-129 189,-263 0,-96 -17,-232 -106,-323 -58,-59 -148,-98 -282,-95 -140,3 -232,23 -296,65 -64,41 -101,102 -136,182 -45,101 -48,182 -27,249 33,103 122,173 199,235 48,40 92,76 119,114 33,46 45,94 23,150 -507,1261 -763,3469 -791,3778 -10,116 4,218 12,319 9,107 12,214 -19,332 -8,28 -26,41 -52,46 -22,3 -53,-3 -83,-11 -14,-4 -28,-8 -41,-10 -3,-1 -8,-1 -12,-1 -64,240 22,549 80,835 z" id="path304"/>
      <g id="g308">
        <path class="fil19" d="m 5325,8756 c 1,-2 3,-3 5,-5 4,-3 9,-5 16,-8 23,-10 59,-19 104,-28 311,-57 1050,-76 1198,-53 9,1 18,-5 19,-14 2,-10 -5,-18 -14,-20 -149,-23 -895,-4 -1209,54 -57,10 -100,22 -124,35 -14,8 -22,17 -26,25 -4,9 0,19 9,22 8,4 18,0 22,-8 z" id="path306"/>
      </g>
      <path class="fil19" d="m 6405,4188 c -37,123 -212,568 -237,771 -4,33 -4,60 0,79 4,17 11,28 21,35 25,18 57,27 93,30 49,5 107,-1 162,-5 44,-3 87,-6 124,0 32,5 59,16 75,40 46,73 36,142 0,208 -26,47 -64,92 -104,137 -63,69 -131,137 -173,203 -30,48 -45,95 -38,142 4,26 18,45 38,60 17,13 39,24 62,34 20,9 41,18 59,30 15,10 28,23 34,40 19,52 -2,93 -28,134 -30,46 -66,93 -74,151 -5,39 21,63 55,86 38,26 88,51 77,121 -9,52 -39,104 -65,156 -29,56 -53,113 -47,169 7,65 49,121 91,176 37,50 74,97 74,152 0,93 -58,161 -122,226 -68,70 -144,137 -174,222 -30,86 7,166 55,245 44,72 97,144 105,220 9,99 -15,174 -47,245 -33,75 -75,148 -97,240 -11,50 -8,98 -1,146 6,45 15,90 15,137 0,9 7,17 17,17 9,0 17,-8 17,-17 0,-48 -9,-95 -16,-142 -6,-44 -9,-88 1,-133 22,-90 63,-161 95,-234 34,-76 60,-156 49,-262 -8,-81 -63,-158 -109,-235 -43,-70 -78,-140 -52,-216 29,-80 102,-142 167,-209 70,-72 131,-148 131,-250 0,-61 -39,-116 -81,-172 -38,-50 -78,-101 -84,-159 -5,-51 17,-101 43,-151 28,-55 59,-110 68,-166 12,-74 -27,-111 -69,-139 -17,-12 -35,-23 -48,-35 -10,-9 -16,-20 -14,-34 7,-53 42,-94 69,-137 31,-49 54,-100 31,-163 -9,-25 -26,-43 -47,-57 -20,-13 -42,-23 -65,-33 -20,-9 -39,-18 -55,-30 -12,-10 -22,-21 -25,-38 -6,-39 9,-79 34,-119 41,-65 108,-130 169,-198 43,-47 82,-95 109,-144 42,-77 53,-157 -2,-242 -32,-50 -98,-62 -175,-59 -62,2 -132,12 -192,10 -37,-2 -70,-8 -95,-26 -3,-1 -5,-4 -6,-8 -2,-7 -3,-14 -4,-24 -2,-32 6,-79 18,-134 51,-222 188,-574 221,-681 2,-9 -3,-19 -12,-22 -9,-2 -18,3 -21,12 z" id="path310"/>
      <path class="fil19" d="m 6057,3372 c -46,17 -76,61 -92,121 -22,83 -17,199 5,311 25,131 74,257 128,321 27,31 55,48 83,48 9,0 17,-7 17,-17 0,-9 -8,-17 -17,-17 -12,0 -24,-6 -36,-15 -14,-12 -28,-29 -42,-49 -42,-66 -79,-170 -100,-277 -21,-107 -26,-217 -5,-296 12,-48 34,-84 71,-98 9,-3 13,-13 10,-22 -4,-9 -13,-13 -22,-10 z" id="path312"/>
      <path class="fil19" d="m 6253,3332 c -2,9 -4,23 -5,27 -14,65 -25,104 -33,176 -3,30 -33,325 -2,499 9,47 22,86 41,110 15,19 34,29 56,29 9,0 17,-7 17,-17 0,-9 -8,-17 -17,-17 -16,0 -27,-10 -37,-26 -12,-21 -20,-51 -26,-85 -31,-171 -1,-460 2,-489 7,-71 18,-109 32,-173 1,-6 6,-26 7,-36 0,-5 0,-10 -1,-11 -3,-9 -9,-12 -13,-13 -3,0 -14,-2 -21,11 -2,5 -2,11 0,15 z" id="path314"/>
      <path class="fil19" d="m 6417,3378 c 55,242 29,631 -121,841 -6,7 -4,18 4,23 8,6 18,4 24,-4 154,-216 183,-617 126,-867 -2,-9 -11,-15 -20,-13 -10,2 -15,11 -13,20 z" id="path316"/>
      <path class="fil19" d="m 6599,3420 c 57,26 59,80 65,137 27,265 -124,446 -314,623 -7,6 -7,17 -1,24 6,7 17,7 24,1 198,-185 353,-375 325,-652 -7,-68 -15,-132 -85,-164 -8,-4 -18,-1 -22,8 -4,8 -1,19 8,23 z" id="path318"/>
      <path class="fil19" d="m 6361,4279 c -17,5 -127,36 -170,55 -14,6 -22,12 -24,16 -4,6 -4,12 -2,17 2,7 12,16 29,20 23,5 65,6 105,6 21,0 42,0 59,1 -5,1 -10,3 -15,5 -19,7 -39,12 -58,18 -33,11 -70,22 -97,46 -6,6 -6,12 -4,18 1,3 3,8 10,11 4,2 14,4 28,6 26,3 66,6 75,6 31,0 89,-7 139,-4 29,1 55,5 69,18 7,6 17,6 24,-1 6,-7 6,-18 -1,-24 -19,-17 -52,-25 -91,-27 -50,-3 -109,4 -140,4 -7,0 -30,-1 -51,-3 16,-8 33,-12 50,-18 19,-6 39,-11 58,-18 25,-9 41,-16 50,-21 7,-4 10,-7 12,-10 6,-8 6,-15 4,-21 -2,-5 -7,-11 -18,-14 -27,-8 -120,-3 -176,-8 h -2 c 51,-19 143,-44 149,-46 13,-4 39,-6 56,-8 11,-2 20,-5 23,-8 8,-5 9,-12 8,-19 -1,-4 -4,-10 -14,-15 -25,-11 -88,-18 -143,-17 -38,1 -72,7 -86,17 -8,5 -10,15 -5,23 5,8 16,10 24,5 11,-8 38,-10 68,-11 19,-1 38,0 57,1 z" id="path320"/>
      <path class="fil19" d="m 5857,6569 c 12,-28 34,-56 61,-84 46,-50 106,-101 159,-155 93,-96 161,-201 101,-323 -28,-56 -81,-69 -141,-62 -48,6 -101,24 -147,38 -27,8 -52,15 -71,14 -9,0 -17,7 -17,17 -1,9 7,17 16,17 21,1 50,-6 82,-15 44,-13 95,-31 141,-37 45,-5 85,1 106,43 53,108 -12,199 -94,284 -53,54 -114,106 -160,156 -33,35 -58,69 -71,104 -2,8 -2,14 0,19 2,6 7,11 14,14 8,4 26,5 48,3 34,-3 83,-10 124,-5 34,5 63,20 67,61 4,47 -29,95 -71,144 -69,81 -164,163 -199,238 -13,28 -12,50 -4,68 11,25 38,42 70,56 23,10 48,20 68,32 17,10 31,22 35,40 10,45 -21,89 -65,131 -71,70 -178,131 -224,174 -7,6 -7,17 -1,24 7,6 17,7 24,0 46,-42 153,-104 225,-173 53,-52 87,-108 74,-164 -5,-22 -19,-38 -37,-52 -24,-18 -56,-30 -85,-43 -15,-6 -28,-13 -39,-22 -8,-7 -15,-14 -16,-24 -2,-9 0,-20 6,-33 34,-72 127,-151 194,-230 49,-57 83,-115 78,-169 -2,-25 -10,-43 -22,-57 -18,-20 -44,-30 -73,-34 -44,-6 -96,1 -132,4 -8,1 -16,2 -22,1 -1,0 -1,0 -2,0 z" id="path322"/>
      <path class="fil19" d="m 5545,8426 c -1,1 -17,12 -22,19 -6,7 -6,14 -5,19 3,8 11,16 26,20 19,5 53,6 89,11 41,5 86,14 109,44 14,19 19,47 9,86 -2,9 3,18 12,20 9,3 19,-3 21,-12 13,-53 4,-89 -15,-114 -28,-37 -82,-51 -132,-58 -27,-3 -53,-5 -72,-7 v 0 c 67,-51 168,-100 239,-165 51,-47 86,-101 86,-169 0,-30 -10,-52 -25,-68 -14,-16 -35,-25 -58,-29 -43,-7 -96,5 -139,24 -36,17 -65,39 -77,61 -10,20 -9,40 7,57 6,7 17,8 24,1 7,-6 7,-17 1,-24 -7,-7 -4,-16 3,-25 12,-14 32,-28 56,-39 37,-17 83,-27 119,-21 16,2 30,8 40,18 10,11 15,25 15,45 0,73 -50,127 -111,174 -66,49 -145,90 -200,132 z" id="path324"/>
      <path class="fil19" d="m 5373,8750 c 1,-3 2,-7 1,-11 -3,-13 -13,-14 -17,-14 -4,0 -11,1 -15,10 -1,1 -2,5 -3,11 -2,12 -4,39 -4,50 -4,68 -6,136 -10,203 -6,89 -20,228 -3,350 12,85 39,162 91,211 7,6 17,5 24,-1 6,-7 6,-18 -1,-24 -47,-44 -69,-114 -80,-190 -16,-120 -3,-257 3,-344 4,-67 6,-135 10,-203 0,-10 3,-40 4,-48 z m -32,-2 c 1,2 2,3 2,4 -1,-1 -1,-3 -2,-4 z" id="path326"/>
      <path class="fil19" d="m 5502,8782 c 3,9 6,24 7,31 5,40 7,80 10,121 4,61 7,123 9,185 7,152 -9,300 -9,451 0,9 7,17 17,17 9,0 17,-8 17,-17 0,-152 16,-300 9,-453 -2,-62 -5,-124 -9,-186 -3,-41 -5,-82 -10,-122 -1,-12 -6,-35 -11,-46 -3,-7 -6,-11 -9,-12 -5,-5 -11,-5 -16,-4 -4,2 -10,5 -14,13 -3,9 1,18 9,22 z" id="path328"/>
      <path class="fil19" d="m 5727,8719 c 9,142 23,276 24,422 2,140 -29,282 -29,420 0,9 8,17 17,17 10,0 17,-8 17,-17 0,-139 31,-281 29,-421 -1,-146 -15,-280 -24,-423 0,-10 -8,-17 -18,-16 -9,0 -16,8 -16,18 z" id="path330"/>
      <path class="fil19" d="m 5983,8722 c 5,137 9,272 1,408 -6,112 -43,224 -43,336 0,9 7,17 16,17 10,0 17,-8 17,-17 0,-111 38,-222 44,-334 8,-137 4,-273 -1,-411 -1,-9 -9,-17 -18,-16 -9,0 -17,8 -16,17 z" id="path332"/>
      <path class="fil19" d="m 6167,9442 c 1,-21 11,-178 11,-182 6,-54 37,-274 31,-417 -1,-38 -5,-71 -13,-95 -6,-19 -15,-33 -26,-40 -8,-5 -19,-3 -24,5 -5,8 -3,18 5,24 6,3 9,11 13,22 7,21 10,51 11,85 6,142 -25,359 -31,412 0,5 -13,167 -11,191 1,14 13,18 16,18 4,1 12,1 17,-9 3,-5 3,-10 1,-14 z m -21,-11 c -3,1 -7,3 -10,9 3,-4 6,-7 10,-9 z" id="path334"/>
      <path class="fil19" d="m 6272,9535 c -1,2 -2,5 -2,8 0,10 6,14 7,15 4,3 9,4 14,3 1,0 11,-2 13,-15 2,-8 8,-49 15,-101 5,-39 9,-78 14,-117 25,-178 51,-350 56,-529 0,-9 -7,-17 -17,-18 -9,0 -17,8 -17,17 -5,177 -31,349 -56,525 -5,40 -9,79 -14,118 -6,42 -11,82 -13,94 z" id="path336"/>
      <path class="fil19" d="m 6737,8710 c 40,87 27,201 -4,321 -48,188 -139,389 -157,527 -2,10 5,18 14,19 10,2 18,-5 19,-14 19,-137 110,-337 157,-523 33,-129 44,-251 2,-344 -4,-8 -14,-12 -23,-8 -8,4 -12,14 -8,22 z" id="path338"/>
      <path class="fil19" d="m 6695,8884 c -85,-20 -177,15 -249,74 -72,59 -123,142 -128,217 -1,9 6,18 15,18 10,1 18,-6 18,-15 6,-67 53,-141 116,-193 64,-53 145,-85 220,-68 9,2 18,-3 21,-12 2,-10 -4,-19 -13,-21 z" id="path340"/>
    </g>
  </g>
</svg>