<?xml version="1.0" encoding="utf-8"?>
<svg viewBox="6700 12200 100 300" width="48.153mm" height="144.458mm" style="clip-rule:evenodd;fill-rule:evenodd;image-rendering:optimizeQuality;shape-rendering:geometricPrecision;text-rendering:geometricPrecision" xmlns="http://www.w3.org/2000/svg">
  <defs>
    <style type="text/css" id="style2">
   
    .fil5 {fill:#000300}
    .fil14 {fill:#007020}
    .fil18 {fill:#008DC6}
    .fil12 {fill:#009429}
    .fil16 {fill:#00B3EC}
    .fil19 {fill:#1A1719}
    .fil24 {fill:#407898}
    .fil21 {fill:#4D94BB}
    .fil15 {fill:#68B012}
    .fil13 {fill:#78B409}
    .fil8 {fill:#883223}
    .fil23 {fill:#986B98}
    .fil6 {fill:#9A3727}
    .fil25 {fill:#9E71A8}
    .fil0 {fill:#A1A3A5}
    .fil17 {fill:#A7DFF7}
    .fil20 {fill:#B192C2}
    .fil22 {fill:#C2A7CF}
    .fil3 {fill:#C6826A}
    .fil7 {fill:#D54835}
    .fil11 {fill:#DD943C}
    .fil1 {fill:#E30011}
    .fil4 {fill:#F7B8A7}
    .fil9 {fill:#FCB200}
    .fil10 {fill:#FFE040}
    .fil2 {fill:white}
    .fil26 {fill:#2B2A29;fill-rule:nonzero}
   
  </style>
  </defs>
  <line style="stroke-width: 2px; stroke: rgb(176, 176, 176);" x1="6600" y1="12208.576" x2="6700" y2="12208.576"/>
  <line style="stroke-width: 2px; stroke: rgb(176, 176, 176);" x1="6600" y1="12233.091" x2="6700" y2="12233.091"/>
  <line style="stroke-width: 2px; stroke: rgb(176, 176, 176);" x1="6600" y1="12256.315" x2="6700" y2="12256.315"/>
  <line style="stroke-width: 2px; stroke: rgb(176, 176, 176);" x1="6600" y1="12280.83" x2="6700" y2="12280.83"/>
  <line style="stroke-width: 2px; stroke: rgb(176, 176, 176);" x1="6600" y1="12305" x2="6700" y2="12305"/>
  <line style="stroke-width: 2px; stroke: rgb(176, 176, 176);" x1="6600" y1="12329.515" x2="6700" y2="12329.515"/>
  <line style="stroke-width: 2px; stroke: rgb(176, 176, 176);" x1="6600" y1="12352.739" x2="6700" y2="12352.739"/>
  <line style="stroke-width: 2px; stroke: rgb(176, 176, 176);" x1="6600" y1="12377.254" x2="6700" y2="12377.254"/>
  <line style="stroke-width: 2px; stroke: rgb(176, 176, 176);" x1="6600" y1="12402" x2="6700" y2="12402"/>
  <line style="stroke-width: 2px; stroke: rgb(176, 176, 176);" x1="6600" y1="12426.515" x2="6700" y2="12426.515"/>
  <line style="stroke-width: 2px; stroke: rgb(176, 176, 176);" x1="6600" y1="12449.739" x2="6700" y2="12449.739"/>
  <line style="stroke-width: 2px; stroke: rgb(176, 176, 176);" x1="6600" y1="12474.254" x2="6700" y2="12474.254"/>
  <line style="stroke-width: 2px; stroke: rgb(176, 176, 176);" x1="6700" y1="12208.576" x2="6800" y2="12208.576"/>
  <line style="stroke-width: 2px; stroke: rgb(176, 176, 176);" x1="6700" y1="12233.091" x2="6800" y2="12233.091"/>
  <line style="stroke-width: 2px; stroke: rgb(176, 176, 176);" x1="6700" y1="12256.315" x2="6800" y2="12256.315"/>
  <line style="stroke-width: 2px; stroke: rgb(176, 176, 176);" x1="6700" y1="12280.83" x2="6800" y2="12280.83"/>
  <line style="stroke-width: 2px; stroke: rgb(176, 176, 176);" x1="6700" y1="12305" x2="6800" y2="12305"/>
  <line style="stroke-width: 2px; stroke: rgb(176, 176, 176);" x1="6700" y1="12329.515" x2="6800" y2="12329.515"/>
  <line style="stroke-width: 2px; stroke: rgb(176, 176, 176);" x1="6700" y1="12352.739" x2="6800" y2="12352.739"/>
  <line style="stroke-width: 2px; stroke: rgb(176, 176, 176);" x1="6700" y1="12377.254" x2="6800" y2="12377.254"/>
  <line style="stroke-width: 2px; stroke: rgb(176, 176, 176);" x1="6700" y1="12402" x2="6800" y2="12402"/>
  <line style="stroke-width: 2px; stroke: rgb(176, 176, 176);" x1="6700" y1="12426.515" x2="6800" y2="12426.515"/>
  <line style="stroke-width: 2px; stroke: rgb(176, 176, 176);" x1="6700" y1="12449.739" x2="6800" y2="12449.739"/>
  <line style="stroke-width: 2px; stroke: rgb(176, 176, 176);" x1="6700" y1="12474.254" x2="6800" y2="12474.254"/>
  <line style="stroke-width: 2px; stroke: rgb(176, 176, 176);" x1="6800" y1="12208.576" x2="6900" y2="12208.576"/>
  <line style="stroke-width: 2px; stroke: rgb(176, 176, 176);" x1="6800" y1="12233.091" x2="6900" y2="12233.091"/>
  <line style="stroke-width: 2px; stroke: rgb(176, 176, 176);" x1="6800" y1="12256.315" x2="6900" y2="12256.315"/>
  <line style="stroke-width: 2px; stroke: rgb(176, 176, 176);" x1="6800" y1="12280.83" x2="6900" y2="12280.83"/>
  <line style="stroke-width: 2px; stroke: rgb(176, 176, 176);" x1="6800" y1="12305" x2="6900" y2="12305"/>
  <line style="stroke-width: 2px; stroke: rgb(176, 176, 176);" x1="6800" y1="12329.515" x2="6900" y2="12329.515"/>
  <line style="stroke-width: 2px; stroke: rgb(176, 176, 176);" x1="6800" y1="12352.739" x2="6900" y2="12352.739"/>
  <line style="stroke-width: 2px; stroke: rgb(176, 176, 176);" x1="6800" y1="12377.254" x2="6900" y2="12377.254"/>
  <line style="stroke-width: 2px; stroke: rgb(176, 176, 176);" x1="6800" y1="12402" x2="6900" y2="12402"/>
  <line style="stroke-width: 2px; stroke: rgb(176, 176, 176);" x1="6800" y1="12426.515" x2="6900" y2="12426.515"/>
  <line style="stroke-width: 2px; stroke: rgb(176, 176, 176);" x1="6800" y1="12449.739" x2="6900" y2="12449.739"/>
  <line style="stroke-width: 2px; stroke: rgb(176, 176, 176);" x1="6800" y1="12474.254" x2="6900" y2="12474.254"/>
  <g id="g2125" transform="matrix(0.02272, 0, 0, 0.02272, 6524.22373, 12207.740416)">
    <path class="fil3" d="m 8924,8523 c -85,13 -179,-63 -203,58 -18,91 36,204 16,284 -39,156 -216,253 -154,502 82,325 299,626 211,979 -67,268 -95,380 -41,509 29,69 123,129 154,252 43,173 53,388 73,567 23,207 115,413 154,607 33,167 -457,337 -340,454 111,111 416,40 559,40 137,0 268,89 412,65 344,-57 728,-81 1077,-81 204,0 438,32 624,32 h 16 c 358,-179 -342,-362 -308,-566 67,-401 329,-828 259,-1247 -48,-288 -160,-641 -315,-875 -63,-93 -181,-191 -227,-283 -36,-73 10,-273 40,-348 119,-298 73,-502 0,-664 -25,-56 126,-224 73,-259 -131,-88 -418,17 -559,41 -152,25 -321,-38 -469,-9 -279,56 -637,44 -907,-24 -78,-19 -145,49 -202,49 m 57,-83 z" id="path79"/>
    <path class="fil4" d="m 9159,8677 c 9,-68 -88,-29 -113,-10 -31,23 -71,29 -103,54 -69,56 -119,152 -179,212 -130,130 18,416 146,489 132,75 320,73 468,82 139,8 279,31 418,22 276,-19 669,-185 761,-462 37,-109 -12,-276 -125,-321 -167,-67 -404,-33 -581,-33 -191,0 -470,30 -652,-16 -33,-8 -49,-27 -87,-27 m 47,10 z" id="path85"/>
    <path class="fil5" d="m 9210,9126 c -9,-31 -115,51 -82,117 25,50 104,40 147,54 155,52 276,17 342,-114 46,-92 -424,-173 -424,-70 m 17,13 z" id="path87"/>
    <path class="fil4" d="m 8967,10422 c -7,-49 61,-211 97,-240 187,-150 713,-192 906,1 50,50 83,124 120,180 39,58 79,221 79,221 0,0 -512,251 -432,490 39,118 133,161 327,144 64,-6 131,-1 189,-29 10,-6 27,-22 27,-22 v 43 c 0,75 0,149 -5,223 -6,69 -8,138 -17,207 -15,121 -5,229 -108,315 -293,243 -773,237 -979,-158 -121,-233 -134,-538 -134,-538 105,167 520,34 395,-174 -23,-38 -46,-64 -65,-103 -76,-152 -139,-253 -261,-375 -26,-26 -153,-165 -139,-185 z" id="path89"/>
    <path class="fil7" d="m 9156,9259 c -99,-38 -254,273 -198,386 85,169 747,238 821,13 43,-127 0,-334 -133,-400 -3,-1 -17,-1 -20,0 -78,26 -130,62 -220,80 -95,19 -135,-47 -214,-74 -10,-3 -47,-4 -47,-13 m 11,8 z" id="path99"/>
    <path class="fil6" d="m 10948,9820 c -50,-37 30,-268 46,-326 61,-223 7,-453 174,-620 91,-91 163,-196 291,-68 250,249 115,1080 81,1383 -16,140 -35,286 -81,422 -14,43 -24,96 -31,142 -3,21 -12,83 -12,62 0,-89 -84,-182 -112,-266 -68,-206 -118,-695 -415,-695 m 59,-34 z" id="path103"/>
    <path class="fil2" d="m 9158,9777 c -10,-22 26,40 31,50 20,40 57,54 95,73 37,19 79,16 120,16 53,0 104,11 150,-24 21,-15 31,-65 37,-88 6,-21 -24,-15 -37,-14 -35,2 -68,11 -103,14 -83,6 -151,10 -228,-16 -16,-5 -51,-11 -61,-22 m -4,11 z" id="path113"/>
    <g id="_876275936">
      <path class="fil12" d="m 8829,8236 c -124,5 -280,177 -105,265 124,62 403,37 546,55 500,62 1172,62 1620,-72 69,-21 172,39 204,8 51,-50 101,-209 72,-267 -32,-66 -167,-119 -231,-127 -17,-2 -124,0 -110,-27 59,-120 223,-244 286,-370 109,-217 95,-478 -11,-689 -297,-595 -976,-671 -1576,-551 -130,26 -253,96 -381,132 -277,79 -644,221 -772,507 -151,341 53,675 254,943 56,75 156,147 193,221 2,3 -1,5 5,5 m 6,-33 z" id="path154"/>
      <path class="fil13" d="m 9929,6539 c -64,-50 -767,27 -620,203 72,87 191,31 286,72 27,11 36,49 61,66 63,42 143,-19 209,0 26,7 34,37 61,44 57,14 118,1 176,17 49,13 71,52 111,71 52,26 121,9 176,28 77,25 185,95 254,138 151,94 226,225 226,407 0,31 -23,326 49,254 146,-146 133,-376 99,-562 -99,-550 -424,-761 -970,-761 -99,0 -207,-13 -303,11 m 185,12 z" id="path156"/>
      <path class="fil14" d="m 8654,6964 c -219,47 -275,411 -244,594 12,74 90,190 138,254 32,42 225,363 248,374 51,26 107,60 154,83 75,38 175,6 254,6 203,0 409,3 601,-61 146,-49 362,46 479,-72 71,-71 -211,-112 -286,-154 -122,-68 -597,7 -789,-28 -38,-7 -410,-203 -430,-226 -85,-99 -150,-275 -165,-397 -7,-53 -36,-318 22,-347 m 18,-26 z" id="path158"/>
      <path class="fil14" d="m 8760,8496 c 9,-25 -116,-80 -74,-122 19,-20 256,71 314,77 284,31 585,39 871,39 186,0 362,-42 540,-78 101,-20 364,-2 447,-33 51,-19 222,-136 275,-110 72,36 -180,193 -187,199 -163,121 -431,137 -629,137 -197,0 -397,11 -595,11 -116,0 -218,-50 -331,-66 -186,-26 -370,6 -551,6 m -80,-60 z" id="path160"/>
      <path class="fil15" d="m 10801,8248 c -396,-48 -796,32 -1195,32 -108,0 -208,32 -314,50 -15,2 -44,-10 -44,5 0,23 177,28 193,28 73,0 143,-17 215,-17 164,0 331,53 502,33 142,-17 379,-101 518,-55 47,16 292,-37 292,-71 0,-36 -71,1 -105,11 m -62,-16 z" id="path162"/>
    </g>
    <g id="_876300192">
      <path class="fil19" d="m 8725,8243 c -15,4 -31,8 -46,14 -43,15 -79,40 -89,76 -6,17 -6,37 3,61 20,56 78,93 135,122 24,12 48,22 66,33 5,4 10,7 15,11 l 1,1 c 1,5 4,10 8,14 5,8 13,13 21,15 27,14 63,17 103,15 36,-3 76,-10 110,-12 18,-1 35,-1 47,3 226,70 1102,75 1645,-33 65,-13 126,-28 180,-44 7,-2 15,1 23,4 15,7 31,15 46,22 17,8 33,13 46,14 15,1 28,-2 40,-11 84,-61 105,-163 122,-210 23,-63 21,-110 6,-146 -22,-55 -76,-86 -139,-104 -54,-15 -115,-20 -160,-26 -10,-2 -20,-3 -28,-5 3,-4 7,-8 10,-11 108,-101 249,-244 311,-420 67,-187 21,-369 -61,-536 -79,-160 -190,-305 -256,-429 -64,-120 -233,-205 -459,-248 -325,-62 -769,-40 -1165,72 -401,113 -753,318 -889,615 -92,202 -88,446 66,734 56,103 140,192 194,294 10,18 42,64 71,94 8,8 16,16 23,21 z m 2317,248 c 68,-51 81,-137 95,-176 15,-42 17,-73 7,-97 -14,-36 -53,-53 -95,-64 -60,-17 -129,-20 -172,-28 -28,-5 -48,-14 -58,-23 -14,-13 -18,-30 -15,-48 4,-20 24,-44 39,-59 102,-94 235,-228 294,-393 61,-169 16,-332 -58,-483 -78,-159 -189,-304 -255,-427 -57,-106 -211,-175 -412,-213 -316,-60 -748,-38 -1134,70 -442,125 -826,361 -891,723 -27,154 3,330 110,529 56,103 140,192 194,294 7,13 29,43 50,68 12,13 23,26 31,30 24,11 38,21 44,29 8,10 10,19 10,28 0,14 -8,31 -32,42 -22,10 -69,17 -107,33 -13,6 -27,13 -32,24 -2,6 -1,13 2,21 8,23 26,39 47,53 27,18 57,32 84,45 25,13 48,25 63,38 9,8 17,16 22,25 7,3 16,4 26,5 21,2 44,0 68,-3 57,-6 116,-14 153,-3 220,69 1079,72 1611,-35 63,-12 121,-27 173,-42 15,-5 31,-4 48,0 17,4 37,13 55,22 9,5 18,10 27,13 2,1 6,2 8,2 z" id="path397"/>
      <path class="fil19" d="m 8814,8315 c 220,29 756,-84 927,-96 365,-25 735,-11 1101,-11 10,0 17,-8 17,-17 0,-10 -7,-17 -17,-17 -367,0 -737,-14 -1104,11 -169,12 -702,125 -919,97 -10,-2 -18,5 -19,14 -2,10 5,18 14,19 z" id="path399"/>
      <path class="fil19" d="m 9046,6730 c -167,34 -259,205 -296,417 -55,310 7,704 103,850 35,53 81,94 129,134 45,39 91,77 126,126 5,8 16,9 23,4 8,-6 10,-16 4,-24 -36,-51 -84,-91 -131,-132 -45,-38 -90,-77 -123,-127 -93,-141 -151,-524 -98,-825 35,-196 115,-358 270,-390 9,-2 15,-11 13,-20 -2,-9 -11,-15 -20,-13 z" id="path401"/>
      <path class="fil19" d="m 9532,6849 c 1,-1 1,-1 2,-2 6,-7 6,-18 -1,-24 -11,-10 -19,-10 -24,-8 -7,2 -15,8 -14,22 0,17 16,62 22,82 31,106 59,216 72,325 22,181 54,436 20,663 -23,148 -74,284 -177,378 -7,6 -8,17 -1,24 6,6 17,7 24,1 108,-99 163,-242 187,-398 35,-230 3,-489 -19,-672 -13,-111 -42,-223 -73,-330 -4,-13 -13,-44 -18,-61 z" id="path403"/>
      <path class="fil19" d="m 10118,8215 c 203,-144 265,-375 275,-620 9,-240 -31,-495 -31,-692 0,-9 -7,-17 -17,-17 -9,0 -17,8 -17,17 0,197 40,451 31,691 -10,234 -67,456 -260,594 -8,5 -10,16 -4,23 5,8 16,10 23,4 z" id="path405"/>
      <path class="fil19" d="m 10573,8272 c 23,-68 75,-128 126,-189 54,-64 108,-129 135,-203 53,-148 53,-282 40,-416 -13,-132 -39,-262 -39,-403 0,-9 -8,-17 -17,-17 -9,0 -17,8 -17,17 0,142 26,274 39,406 13,129 13,259 -38,402 -25,70 -77,131 -129,192 -54,64 -107,128 -132,200 -3,9 1,19 10,22 9,3 19,-2 22,-11 z" id="path407"/>
      <path class="fil19" d="m 8920,8344 h 3 c 9,1 17,-6 18,-15 1,-10 -6,-18 -15,-19 -9,-1 -14,-1 -19,1 -6,2 -12,6 -19,18 -22,43 -25,80 -16,113 9,33 31,61 61,84 57,42 142,66 213,66 9,0 17,-8 17,-17 0,-10 -8,-17 -17,-17 -65,0 -141,-21 -192,-59 -24,-18 -42,-40 -49,-66 -8,-25 -4,-55 13,-87 1,-1 1,-2 2,-2 z" id="path409"/>
      <path class="fil19" d="m 9325,8341 c 7,0 13,-5 15,-11 5,-12 1,-19 0,-22 -3,-4 -6,-6 -10,-7 -4,-1 -9,-2 -15,2 -4,2 -12,10 -20,21 -17,22 -39,58 -44,77 -11,35 -19,73 -16,108 2,25 9,48 24,66 16,20 41,34 78,39 10,1 18,-5 19,-14 2,-10 -5,-18 -14,-20 -27,-3 -45,-12 -57,-26 -11,-14 -16,-32 -16,-52 -2,-29 6,-62 14,-92 5,-16 25,-47 39,-65 1,-2 2,-3 3,-4 z" id="path411"/>
      <path class="fil19" d="m 9658,8273 c -19,7 -32,20 -40,38 -10,23 -11,56 -4,91 9,49 33,104 62,144 22,29 47,49 71,56 9,3 18,-2 21,-11 3,-9 -3,-19 -12,-21 -15,-5 -30,-17 -44,-33 -23,-27 -43,-65 -55,-103 -10,-32 -15,-63 -13,-88 2,-19 8,-35 24,-40 9,-3 14,-13 11,-21 -3,-9 -12,-14 -21,-12 z" id="path413"/>
      <path class="fil19" d="m 10026,8300 c 97,90 109,175 109,297 0,10 7,17 17,17 9,0 17,-7 17,-17 0,-132 -15,-224 -120,-322 -7,-6 -17,-5 -24,1 -6,7 -6,18 1,24 z" id="path415"/>
      <path class="fil19" d="m 10385,8297 c 34,29 63,98 69,160 3,38 -2,74 -23,94 -7,6 -8,17 -1,24 6,7 17,7 24,1 28,-27 38,-73 33,-123 -6,-70 -41,-149 -80,-182 -7,-6 -18,-6 -24,1 -6,8 -5,18 2,25 z" id="path417"/>
      <path class="fil19" d="m 10694,8265 c 43,47 72,83 78,127 4,28 -2,59 -18,97 -4,9 0,19 9,22 8,4 18,0 22,-9 20,-45 25,-82 21,-115 -7,-49 -38,-92 -88,-145 -6,-7 -17,-7 -24,-1 -7,7 -7,18 0,24 z" id="path419"/>
      <path class="fil19" d="m 10935,8255 c -1,32 -6,23 -24,64 -3,9 1,19 9,23 9,4 19,0 23,-9 21,-49 24,-39 26,-77 0,-10 -7,-17 -16,-18 -10,0 -18,7 -18,17 z" id="path421"/>
    </g>
    <g id="_876305408">
      <path class="fil19" d="m 10987,8543 c -1,2 -3,9 -5,13 -4,9 -11,19 -18,29 -26,38 -61,80 -75,115 -15,38 -11,71 19,97 21,18 36,45 47,77 19,56 25,128 25,207 -3,320 -128,754 -128,754 -4,16 4,34 20,40 0,0 269,116 410,558 250,780 90,1090 -169,1814 -11,28 -4,56 19,82 33,38 112,75 196,116 57,28 115,57 159,92 36,29 63,60 62,100 -2,35 -25,73 -73,119 -9,1 -52,6 -95,7 -145,2 -385,-5 -476,12 -271,50 -1676,-1 -2026,-21 -26,-1 -32,-26 -33,-54 -1,-38 11,-82 30,-118 11,-22 24,-40 38,-51 9,-6 32,-12 59,-19 48,-12 108,-25 141,-36 13,-5 24,-9 30,-13 7,-5 12,-11 14,-16 6,-11 9,-35 6,-66 -6,-52 -24,-128 -33,-152 -117,-328 -215,-1150 -215,-1150 -1,-8 -4,-15 -10,-20 -211,-205 -216,-548 -47,-791 2,-3 4,-6 5,-9 0,0 119,-385 -143,-667 -98,-105 -138,-197 -143,-279 -5,-82 25,-154 63,-220 57,-98 132,-183 161,-264 2,-7 3,-16 1,-27 -2,-10 -9,-24 -19,-39 -14,-22 -35,-50 -50,-76 -7,-11 -13,-21 -13,-29 -1,-34 1,-59 8,-76 4,-9 8,-15 15,-17 11,-4 24,0 38,5 31,11 65,33 92,50 16,10 37,6 47,-10 10,-16 5,-37 -11,-47 -31,-20 -69,-44 -104,-57 -31,-11 -60,-14 -84,-6 -38,13 -73,55 -69,160 0,12 4,26 11,42 12,25 34,55 52,81 7,11 15,25 19,31 -30,75 -100,154 -152,245 -45,77 -79,162 -73,257 5,95 49,202 161,323 220,236 141,553 129,595 -182,266 -174,637 50,865 13,102 107,844 217,1153 8,21 24,90 29,137 1,6 1,15 1,21 -27,10 -82,21 -129,33 -42,11 -79,23 -93,33 -44,31 -84,110 -94,183 -12,86 18,159 95,163 352,20 1769,70 2042,20 101,-19 393,-6 520,-13 26,-2 45,-4 57,-7 12,-3 19,-8 23,-12 78,-73 103,-136 98,-189 -3,-34 -18,-65 -42,-94 -31,-37 -78,-70 -131,-99 -81,-45 -174,-82 -230,-119 -13,-9 -23,-16 -30,-25 -4,-5 -8,-9 -6,-14 265,-741 426,-1059 170,-1858 -125,-390 -346,-543 -422,-586 27,-101 120,-465 123,-744 0,-88 -8,-168 -29,-229 -15,-46 -37,-83 -67,-108 -5,-4 -4,-9 -2,-14 2,-6 5,-13 8,-19 16,-28 42,-59 62,-88 15,-21 27,-41 32,-59 5,-19 4,-36 -3,-50 -6,-15 -18,-28 -40,-37 -21,-10 -54,-16 -104,-16 -19,0 -34,16 -34,34 0,19 15,34 34,34 31,0 53,3 69,7 5,1 10,4 13,6 z" id="path439"/>
      <g id="g443">
        <path class="fil19" d="m 9646,9168 c 2,-45 -30,-81 -81,-104 -64,-29 -159,-37 -245,-24 -58,9 -111,27 -148,56 -48,37 -66,72 -63,101 2,19 12,37 31,53 23,21 61,40 109,55 243,78 391,9 397,-137 z m -34,-1 c -3,61 -35,104 -93,124 -61,21 -150,17 -259,-18 -36,-12 -66,-25 -87,-40 -17,-12 -28,-24 -30,-39 -1,-10 2,-20 9,-30 8,-13 22,-27 41,-41 71,-55 212,-68 313,-44 32,8 60,20 79,36 17,14 28,31 27,52 z" id="path441"/>
      </g>
      <g id="g447">
        <path class="fil19" d="m 9154,9220 c -65,34 -139,109 -176,195 -26,59 -35,123 -14,183 33,96 144,184 398,215 139,17 299,-23 396,-89 70,-48 107,-109 90,-172 -15,-51 -47,-142 -93,-220 -31,-54 -70,-101 -113,-127 -8,-4 -19,-2 -23,7 -5,8 -2,18 6,23 39,23 72,66 101,114 44,75 75,163 89,213 14,49 -20,96 -76,133 -91,62 -243,100 -373,84 -234,-29 -340,-104 -370,-192 -18,-52 -9,-107 13,-158 34,-79 101,-148 161,-178 8,-5 11,-15 7,-23 -4,-9 -14,-12 -23,-8 z" id="path445"/>
      </g>
      <g id="g451">
        <path class="fil19" d="m 9268,9309 c -37,20 -73,79 -87,152 -21,106 2,243 124,326 8,5 19,3 24,-4 5,-8 3,-19 -4,-24 -109,-75 -129,-197 -111,-292 12,-61 39,-111 70,-128 8,-5 12,-15 7,-23 -4,-9 -15,-12 -23,-7 z" id="path449"/>
      </g>
      <g id="g455">
        <path class="fil19" d="m 9138,9780 v 1 c 9,20 65,138 205,151 86,9 144,8 181,-1 29,-6 48,-17 60,-30 13,-15 19,-32 21,-53 3,-25 0,-57 0,-92 0,-9 -8,-17 -17,-17 -10,0 -17,8 -17,17 0,29 2,54 1,77 -1,18 -3,33 -13,45 -11,12 -30,19 -60,23 -36,5 -85,4 -153,-3 -121,-11 -169,-114 -177,-130 -11,-27 -35,2 -32,9 0,1 0,2 1,3 z m 27,3 z m 1,0 z m 3,-15 c 1,2 1,5 0,7 1,-1 1,-4 0,-7 z" id="path453"/>
      </g>
      <g id="g459">
        <path class="fil19" d="m 9397,9815 c 2,-5 2,-12 -2,-17 -6,-10 -14,-10 -18,-9 -4,0 -17,6 -15,23 1,13 10,47 25,76 10,22 23,40 36,48 8,4 19,2 24,-6 4,-9 2,-19 -7,-24 -8,-5 -16,-18 -23,-33 -10,-20 -18,-44 -20,-58 z" id="path457"/>
      </g>
      <path class="fil19" d="m 9826,9081 c 63,-13 107,-10 148,-10 66,1 123,-5 227,-86 7,-5 8,-16 3,-24 -6,-7 -17,-8 -24,-3 -94,74 -146,80 -206,79 -42,0 -89,-3 -155,10 -9,2 -15,11 -13,20 2,10 11,16 20,14 z" id="path461"/>
      <path class="fil19" d="m 8908,8984 c 3,0 9,-1 14,0 39,2 106,19 125,23 10,1 19,-5 20,-14 2,-9 -4,-18 -13,-20 -20,-3 -90,-21 -130,-23 -17,-1 -29,1 -36,6 -7,4 -11,10 -11,18 -1,9 6,17 15,18 7,1 13,-2 16,-8 z" id="path463"/>
      <path class="fil19" d="m 9967,8735 c 3,0 7,0 10,1 33,4 84,24 109,34 9,3 19,-1 22,-10 4,-8 0,-18 -9,-22 -32,-13 -103,-38 -135,-38 -17,1 -27,8 -30,16 -3,6 -4,15 1,26 4,8 14,12 23,8 6,-3 9,-9 9,-15 z" id="path465"/>
      <path class="fil19" d="m 9025,8832 c 2,-2 4,-3 6,-5 27,-17 71,-40 93,-48 9,-3 14,-13 11,-22 -3,-8 -13,-13 -22,-10 -24,9 -71,33 -100,52 -15,10 -26,19 -28,24 -5,7 -4,13 -2,18 2,4 5,8 12,10 3,1 8,2 17,0 9,-1 15,-10 13,-19 z" id="path467"/>
      <path class="fil19" d="m 10664,10685 c 6,-2 11,-8 11,-15 0,-10 -8,-17 -17,-17 -14,0 -25,10 -28,30 -2,14 -1,34 0,50 1,6 1,14 1,16 -14,64 -57,134 -116,200 -91,100 -221,189 -353,233 -144,47 -290,40 -388,-70 -25,-28 -39,-55 -42,-83 -10,-65 36,-127 103,-187 92,-81 225,-156 332,-222 73,-45 134,-86 163,-121 41,-52 160,-353 184,-404 1,-1 1,-2 1,-3 3,-3 5,-7 5,-12 0,-7 -4,-10 -6,-12 -4,-4 -10,-6 -17,-4 -1,1 -4,2 -6,4 -1,1 -4,5 -8,12 -23,50 -139,347 -180,397 -26,34 -85,72 -154,115 -108,66 -243,142 -336,225 -66,58 -111,120 -116,183 -4,44 11,89 52,135 107,120 267,130 423,79 138,-45 274,-138 368,-242 64,-71 109,-147 124,-217 1,-5 0,-20 -1,-38 -1,-10 1,-26 1,-32 z m -172,-591 c 2,2 4,3 7,3 -3,0 -5,-1 -7,-3 z m -5,-8 z m -1,-2 v 0 1 c 0,-1 0,-1 0,-1 z m 0,-1 v 1 z m 0,0 v -1 c 0,0 0,0 0,1 z" id="path469"/>
      <path class="fil19" d="m 8882,11049 c -1,-9 -8,-15 -17,-15 -9,0 -14,4 -16,11 -1,3 -2,10 2,18 13,25 119,152 139,172 77,81 187,131 287,112 68,-12 131,-56 178,-143 9,-17 9,-42 -1,-75 -12,-41 -40,-96 -78,-157 -142,-231 -422,-563 -466,-646 -10,-18 -19,-48 -34,-69 -13,-19 -30,-31 -51,-31 -9,0 -17,8 -17,18 0,9 8,16 18,16 5,0 9,2 13,6 6,5 11,12 15,20 11,19 18,42 26,56 44,83 325,416 467,648 36,58 63,110 75,149 6,21 9,38 3,49 -41,76 -95,115 -154,126 -90,17 -188,-30 -257,-102 -17,-19 -119,-148 -132,-163 z m -11,18 c -1,0 -3,1 -5,1 2,0 4,-1 5,-1 z" id="path471"/>
      <path class="fil19" d="m 11076,9002 c 4,-9 17,-35 21,-41 18,-35 55,-95 97,-142 25,-28 51,-52 78,-60 40,-12 78,0 110,23 57,39 100,108 121,158 103,240 107,508 77,777 -30,275 -94,551 -128,803 -16,119 -78,252 -78,367 0,19 15,34 34,34 18,0 34,-15 34,-34 0,-113 62,-241 77,-358 34,-252 99,-530 129,-805 31,-281 25,-560 -83,-811 -25,-59 -77,-140 -144,-187 -50,-35 -108,-51 -170,-32 -35,11 -73,42 -108,80 -46,51 -86,117 -106,155 -5,8 -18,34 -24,46 -3,8 -4,14 -5,16 -1,17 7,27 13,31 8,6 22,15 41,2 8,-6 13,-14 14,-22 z m -29,-40 c -6,-1 -13,-1 -22,4 7,-4 14,-5 22,-4 z" id="path473"/>
      <path class="fil19" d="m 8913,12760 c 0,0 -1,-5 -2,-8 -1,-11 0,-26 2,-42 4,-25 11,-52 19,-69 2,-3 5,-7 6,-9 7,-1 12,-6 13,-13 2,-10 -4,-18 -14,-20 -6,-1 -13,0 -20,6 -6,5 -14,17 -20,33 -12,30 -21,78 -20,109 0,18 6,31 12,38 7,6 18,6 25,-1 6,-7 6,-17 -1,-24 z" id="path475"/>
      <path class="fil19" d="m 9010,12625 c -19,8 -32,26 -40,48 -10,27 -12,60 -18,79 -2,9 3,19 12,21 9,2 19,-3 21,-12 5,-19 8,-51 17,-76 4,-13 10,-24 21,-29 8,-3 12,-13 9,-22 -4,-8 -14,-13 -22,-9 z" id="path477"/>
      <path class="fil19" d="m 9093,12693 c -3,10 -9,20 -13,30 -6,12 -10,25 -10,39 0,9 8,17 17,17 9,0 17,-8 17,-17 0,-9 3,-17 7,-25 5,-11 11,-22 14,-33 4,-9 -1,-19 -10,-22 -9,-3 -19,2 -22,11 z" id="path479"/>
      <path class="fil19" d="m 11297,12675 c 2,-9 -3,-18 -12,-20 -9,-2 -18,3 -21,12 -2,8 1,26 8,46 13,38 40,92 47,112 3,9 13,14 22,11 9,-4 13,-13 10,-22 -7,-20 -34,-74 -47,-112 -3,-7 -5,-14 -6,-20 -1,-2 -1,-6 -1,-7 z" id="path481"/>
      <path class="fil19" d="m 11387,12679 c 10,0 18,2 22,6 8,7 9,17 10,27 4,19 8,38 23,52 7,6 18,6 24,-1 6,-7 6,-18 -1,-24 -5,-5 -7,-11 -9,-17 -2,-10 -3,-20 -6,-29 -3,-12 -8,-24 -17,-32 -9,-9 -23,-15 -45,-16 -9,-1 -17,6 -18,16 0,9 7,17 17,18 z" id="path483"/>
      <path class="fil19" d="m 11482,12670 c 1,2 2,6 3,8 6,17 8,41 8,52 0,10 8,17 17,17 9,0 17,-7 17,-17 0,-16 -4,-52 -13,-72 -8,-16 -20,-23 -31,-22 -9,2 -16,10 -14,20 0,7 6,12 13,14 z" id="path485"/>
      <path class="fil19" d="m 9753,10946 c -4,-3 -8,-4 -13,-3 -15,2 -16,13 -17,16 0,4 1,10 8,15 1,1 4,3 8,4 7,2 22,4 28,5 32,2 66,5 98,5 9,0 17,-8 17,-17 0,-9 -8,-17 -17,-17 -32,0 -64,-3 -95,-5 -3,-1 -12,-2 -17,-3 z m -7,30 z" id="path487"/>
      <path class="fil19" d="m 9788,11121 c -6,-5 -15,-4 -21,2 -6,5 -6,11 -6,16 1,5 6,14 20,16 18,2 76,-7 85,-11 9,-4 12,-14 8,-23 -4,-8 -14,-12 -22,-8 -6,3 -50,7 -64,8 z m 4,25 z m 1,-2 v 0 c 0,0 0,1 -1,1 v 0 c 1,0 1,-1 1,-1 z" id="path489"/>
      <path class="fil19" d="m 9249,11249 c 0,-2 -1,-4 -3,-5 -6,-7 -17,-8 -24,-2 -5,4 -11,14 -1,27 7,8 31,26 57,42 27,17 54,31 64,34 9,2 19,-4 21,-13 2,-9 -4,-18 -13,-20 -9,-3 -31,-16 -53,-30 -19,-11 -42,-29 -48,-33 z m 0,14 c -1,1 -3,3 -4,5 1,-2 3,-3 4,-5 z" id="path491"/>
      <path class="fil19" d="m 9306,11135 c 19,4 35,13 50,22 18,12 36,25 56,34 9,4 19,0 23,-8 4,-9 0,-19 -8,-23 -20,-9 -36,-21 -52,-31 -19,-12 -39,-23 -63,-27 -9,-2 -18,4 -20,14 -2,9 5,18 14,19 z" id="path493"/>
      <path class="fil19" d="m 9232,11003 c 35,2 73,1 109,1 9,0 17,-8 17,-17 0,-10 -8,-17 -17,-17 -35,0 -72,1 -107,-1 -9,-1 -18,6 -18,16 -1,9 6,17 16,18 z" id="path495"/>
      <path class="fil19" d="m 11348,9009 c 9,1 17,-5 19,-14 2,-9 -5,-18 -14,-20 -8,-1 -17,1 -27,7 -14,9 -31,30 -49,60 -68,110 -163,346 -233,495 -28,61 -51,107 -67,121 -7,7 -7,18 -1,25 7,6 17,7 24,0 15,-14 38,-53 64,-108 58,-121 138,-317 204,-446 23,-46 45,-84 63,-105 4,-5 8,-9 12,-12 2,-1 4,-3 5,-3 z" id="path497"/>
      <path class="fil19" d="m 11464,9331 c -55,14 -102,72 -140,142 -53,100 -89,226 -108,274 -3,8 1,18 10,22 9,3 19,-2 22,-10 18,-48 53,-171 106,-270 33,-61 71,-113 118,-125 9,-2 15,-12 12,-21 -2,-9 -11,-14 -20,-12 z" id="path499"/>
      <path class="fil19" d="m 10993,9408 c -8,38 11,70 40,100 19,19 42,38 63,57 18,18 35,36 42,57 59,164 82,322 77,493 0,10 7,18 17,18 9,0 17,-7 17,-17 5,-175 -19,-337 -79,-505 -14,-41 -56,-75 -93,-109 -17,-14 -32,-29 -42,-45 -8,-13 -12,-27 -9,-42 2,-9 -4,-18 -13,-20 -9,-2 -18,4 -20,13 z" id="path501"/>
      <path class="fil19" d="m 11222,9222 c 12,25 31,99 43,136 58,188 96,376 126,570 1,9 10,15 19,14 9,-1 16,-10 14,-19 -30,-196 -68,-385 -127,-575 -12,-40 -34,-121 -47,-145 -4,-8 -10,-12 -13,-14 -5,-2 -10,-2 -14,0 -3,1 -7,3 -10,7 -5,8 -3,18 5,24 1,1 2,1 4,2 z m 18,-5 z m 1,-1 v 1 z" id="path503"/>
    </g>
  </g>
</svg>