<?xml version="1.0" encoding="utf-8"?>
<svg viewBox="6800 12200 100 300" width="48.153mm" height="144.458mm" style="clip-rule:evenodd;fill-rule:evenodd;image-rendering:optimizeQuality;shape-rendering:geometricPrecision;text-rendering:geometricPrecision" xmlns="http://www.w3.org/2000/svg">
  <defs>
    <style type="text/css" id="style2">
   
    .fil5 {fill:#000300}
    .fil14 {fill:#007020}
    .fil18 {fill:#008DC6}
    .fil12 {fill:#009429}
    .fil16 {fill:#00B3EC}
    .fil19 {fill:#1A1719}
    .fil24 {fill:#407898}
    .fil21 {fill:#4D94BB}
    .fil15 {fill:#68B012}
    .fil13 {fill:#78B409}
    .fil8 {fill:#883223}
    .fil23 {fill:#986B98}
    .fil6 {fill:#9A3727}
    .fil25 {fill:#9E71A8}
    .fil0 {fill:#A1A3A5}
    .fil17 {fill:#A7DFF7}
    .fil20 {fill:#B192C2}
    .fil22 {fill:#C2A7CF}
    .fil3 {fill:#C6826A}
    .fil7 {fill:#D54835}
    .fil11 {fill:#DD943C}
    .fil1 {fill:#E30011}
    .fil4 {fill:#F7B8A7}
    .fil9 {fill:#FCB200}
    .fil10 {fill:#FFE040}
    .fil2 {fill:white}
    .fil26 {fill:#2B2A29;fill-rule:nonzero}
   
  </style>
  </defs>
  <line style="stroke-width: 2px; stroke: rgb(176, 176, 176);" x1="6700" y1="12208.576" x2="6800" y2="12208.576"/>
  <line style="stroke-width: 2px; stroke: rgb(176, 176, 176);" x1="6700" y1="12233.091" x2="6800" y2="12233.091"/>
  <line style="stroke-width: 2px; stroke: rgb(176, 176, 176);" x1="6700" y1="12256.315" x2="6800" y2="12256.315"/>
  <line style="stroke-width: 2px; stroke: rgb(176, 176, 176);" x1="6700" y1="12280.83" x2="6800" y2="12280.83"/>
  <line style="stroke-width: 2px; stroke: rgb(176, 176, 176);" x1="6700" y1="12305" x2="6800" y2="12305"/>
  <line style="stroke-width: 2px; stroke: rgb(176, 176, 176);" x1="6700" y1="12329.515" x2="6800" y2="12329.515"/>
  <line style="stroke-width: 2px; stroke: rgb(176, 176, 176);" x1="6700" y1="12352.739" x2="6800" y2="12352.739"/>
  <line style="stroke-width: 2px; stroke: rgb(176, 176, 176);" x1="6700" y1="12377.254" x2="6800" y2="12377.254"/>
  <line style="stroke-width: 2px; stroke: rgb(176, 176, 176);" x1="6700" y1="12402" x2="6800" y2="12402"/>
  <line style="stroke-width: 2px; stroke: rgb(176, 176, 176);" x1="6700" y1="12426.515" x2="6800" y2="12426.515"/>
  <line style="stroke-width: 2px; stroke: rgb(176, 176, 176);" x1="6700" y1="12449.739" x2="6800" y2="12449.739"/>
  <line style="stroke-width: 2px; stroke: rgb(176, 176, 176);" x1="6700" y1="12474.254" x2="6800" y2="12474.254"/>
  <line style="stroke-width: 2px; stroke: rgb(176, 176, 176);" x1="6800" y1="12208.576" x2="6900" y2="12208.576"/>
  <line style="stroke-width: 2px; stroke: rgb(176, 176, 176);" x1="6800" y1="12233.091" x2="6900" y2="12233.091"/>
  <line style="stroke-width: 2px; stroke: rgb(176, 176, 176);" x1="6800" y1="12256.315" x2="6900" y2="12256.315"/>
  <line style="stroke-width: 2px; stroke: rgb(176, 176, 176);" x1="6800" y1="12280.83" x2="6900" y2="12280.83"/>
  <line style="stroke-width: 2px; stroke: rgb(176, 176, 176);" x1="6800" y1="12305" x2="6900" y2="12305"/>
  <line style="stroke-width: 2px; stroke: rgb(176, 176, 176);" x1="6800" y1="12329.515" x2="6900" y2="12329.515"/>
  <line style="stroke-width: 2px; stroke: rgb(176, 176, 176);" x1="6800" y1="12352.739" x2="6900" y2="12352.739"/>
  <line style="stroke-width: 2px; stroke: rgb(176, 176, 176);" x1="6800" y1="12377.254" x2="6900" y2="12377.254"/>
  <line style="stroke-width: 2px; stroke: rgb(176, 176, 176);" x1="6800" y1="12402" x2="6900" y2="12402"/>
  <line style="stroke-width: 2px; stroke: rgb(176, 176, 176);" x1="6800" y1="12426.515" x2="6900" y2="12426.515"/>
  <line style="stroke-width: 2px; stroke: rgb(176, 176, 176);" x1="6800" y1="12449.739" x2="6900" y2="12449.739"/>
  <line style="stroke-width: 2px; stroke: rgb(176, 176, 176);" x1="6800" y1="12474.254" x2="6900" y2="12474.254"/>
  <line style="stroke-width: 2px; stroke: rgb(176, 176, 176);" x1="6900" y1="12208.576" x2="7000" y2="12208.576"/>
  <line style="stroke-width: 2px; stroke: rgb(176, 176, 176);" x1="6900" y1="12233.091" x2="7000" y2="12233.091"/>
  <line style="stroke-width: 2px; stroke: rgb(176, 176, 176);" x1="6900" y1="12256.315" x2="7000" y2="12256.315"/>
  <line style="stroke-width: 2px; stroke: rgb(176, 176, 176);" x1="6900" y1="12280.83" x2="7000" y2="12280.83"/>
  <line style="stroke-width: 2px; stroke: rgb(176, 176, 176);" x1="6900" y1="12305" x2="7000" y2="12305"/>
  <line style="stroke-width: 2px; stroke: rgb(176, 176, 176);" x1="6900" y1="12329.515" x2="7000" y2="12329.515"/>
  <line style="stroke-width: 2px; stroke: rgb(176, 176, 176);" x1="6900" y1="12352.739" x2="7000" y2="12352.739"/>
  <line style="stroke-width: 2px; stroke: rgb(176, 176, 176);" x1="6900" y1="12377.254" x2="7000" y2="12377.254"/>
  <line style="stroke-width: 2px; stroke: rgb(176, 176, 176);" x1="6900" y1="12402" x2="7000" y2="12402"/>
  <line style="stroke-width: 2px; stroke: rgb(176, 176, 176);" x1="6900" y1="12426.515" x2="7000" y2="12426.515"/>
  <line style="stroke-width: 2px; stroke: rgb(176, 176, 176);" x1="6900" y1="12449.739" x2="7000" y2="12449.739"/>
  <line style="stroke-width: 2px; stroke: rgb(176, 176, 176);" x1="6900" y1="12474.254" x2="7000" y2="12474.254"/>
  <g id="g2185" transform="matrix(0.02272, 0, 0, 0.02272, 6533.313574, 12207.432799)">
    <path class="fil3" d="m 13147,7506 c -116,5 -263,-157 -366,-54 -123,123 117,147 81,218 -24,48 -78,74 -102,122 -114,229 -127,596 -13,823 35,70 103,139 136,204 111,223 -44,884 -68,1129 -45,451 -80,737 -136,1188 -24,193 -45,633 -21,824 16,129 113,398 89,517 -22,110 -232,135 -163,272 60,120 275,117 380,82 77,-26 175,22 252,6 150,-30 475,-138 612,-115 82,14 298,75 381,102 76,26 193,-42 278,-21 81,21 232,105 320,62 49,-25 119,-16 170,-41 212,-106 -54,-351 -102,-497 -36,-106 19,-255 7,-367 -47,-422 47,-864 0,-1285 -31,-280 -108,-632 -163,-911 -31,-155 -17,-357 -75,-503 -37,-93 -198,-208 -177,-313 33,-167 180,-358 190,-442 30,-235 7,-496 7,-734 0,-101 120,-282 27,-374 -136,-137 -368,-22 -523,0 -235,33 -468,97 -700,136 -28,4 -237,8 -252,-7 -15,-15 -52,-48 -82,-48 m 13,27 z" id="path81"/>
    <path class="fil4" d="m 13049,7550 c -29,-6 -58,46 -79,63 -88,70 -213,216 -98,331 108,108 244,75 378,106 291,67 838,168 1007,-170 19,-38 50,-78 55,-123 7,-67 2,-205 -60,-246 -80,-54 -224,-44 -314,-17 -201,60 -408,51 -616,51 -107,0 -248,-12 -335,47 m 62,-42 z" id="path91"/>
    <path class="fil4" d="m 14278,9717 c -75,-131 -151,-292 -251,-409 -227,-269 -652,-242 -811,80 -115,232 -197,504 -251,756 -27,127 -19,258 -34,387 -28,253 -99,480 -42,735 49,222 112,465 327,582 184,99 506,138 688,8 87,-62 145,-171 195,-263 42,-77 88,-156 119,-238 55,-145 102,-577 68,-743 -30,-153 -141,-98 -297,-111 -200,-17 -427,-219 -404,-429 20,-173 254,-140 370,-102 29,10 104,46 136,30 49,-25 137,-83 161,-132 16,-31 18,-128 38,-148 m -12,-3 z" id="path93"/>
    <path class="fil6" d="m 14507,9031 c -31,4 -62,-76 -70,-98 -71,-177 134,-225 180,-360 77,-233 -36,-602 285,-682 73,-19 168,-22 236,18 110,67 205,151 254,273 46,115 5,256 -6,372 -38,376 -150,705 -242,1073 -44,174 -123,328 -193,490 -22,52 -40,107 -55,162 -7,25 -11,50 -19,74 -3,8 -4,33 -6,25 -56,-220 -169,-962 -317,-1197 m -47,-150 z" id="path95"/>
    <path class="fil7" d="m 13231,7925 c -136,-13 -231,186 -186,299 47,116 163,151 272,169 96,16 335,-16 386,-118 18,-36 42,-71 55,-110 17,-50 -67,-201 -114,-225 -37,-18 -133,79 -181,79 -110,0 -196,-94 -237,-94 m 5,0 z" id="path101"/>
    <path class="fil2" d="m 12968,7699 c -7,-8 -25,15 -29,20 -15,20 -13,50 2,69 25,34 75,22 111,27 66,8 146,25 172,-54 6,-18 -19,-33 -32,-36 -49,-12 -117,-17 -167,-17 -17,0 -34,-4 -52,-4 -6,0 -32,4 -19,4 m 14,-9 z" id="path107"/>
    <path class="fil2" d="m 13821,7724 c -54,12 -32,93 8,110 89,39 184,42 276,12 80,-27 81,-144 0,-167 -30,-9 -63,2 -92,8 -63,12 -123,28 -184,44 m -8,-7 z" id="path109"/>
    <path class="fil2" d="m 13215,8389 c -3,-1 -3,-13 -2,-10 6,18 1,64 25,71 29,8 66,12 96,15 79,7 192,57 234,-40 7,-17 30,-57 21,-75 -10,-20 -75,-4 -92,0 -98,23 -189,29 -288,29 m 6,10 z" id="path111"/>
    <g id="_876274112">
      <path class="fil16" d="m 13252,7146 c -46,-14 -129,2 -181,2 -115,0 -244,-148 -304,33 -17,52 -97,168 -65,201 80,79 242,65 399,75 281,18 602,3 788,-23 133,-19 240,-53 412,-61 179,-8 422,112 492,-27 35,-71 -7,-216 -94,-261 -169,-89 -474,-51 -500,-103 -34,-68 48,-228 52,-296 17,-292 57,-609 119,-897 64,-301 161,-589 211,-890 54,-325 67,-660 132,-982 37,-189 18,-561 -178,-627 -129,-43 -709,-42 -845,-20 -265,45 -547,-4 -811,40 -104,17 -241,-23 -310,46 -77,78 0,233 33,323 86,227 155,464 231,693 61,181 51,398 93,586 68,308 238,600 270,917 42,420 56,862 56,1271 z" id="path165"/>
      <path class="fil17" d="m 14388,3368 c 19,-53 -303,-71 -381,-71 -86,0 -172,24 -257,33 -269,27 -534,5 -805,39 -67,9 -346,-45 -310,99 17,67 372,97 436,106 350,50 704,87 1055,0 82,-21 486,-128 369,-244 -37,-37 -91,-46 -145,-46 m 38,84 z" id="path167"/>
      <path class="fil17" d="m 14672,7074 c -62,22 -157,-70 -230,-52 -95,24 -150,125 -250,146 -138,27 -283,-23 -422,-7 -99,11 -193,41 -290,53 -172,21 -282,-66 -436,-66 -21,0 -145,-1 -138,20 37,111 225,94 316,125 251,84 605,79 864,20 95,-22 189,-68 284,-79 80,-11 434,-28 302,-160 z" id="path169"/>
      <path class="fil17" d="m 14207,3794 c 42,37 18,220 18,268 0,285 49,561 33,850 -7,121 1,243 6,363 3,70 7,211 7,211 0,0 11,-136 20,-204 14,-117 29,-233 39,-350 26,-298 37,-601 79,-897 14,-97 26,-189 46,-283 4,-16 55,-160 33,-165 -103,-26 -241,116 -310,185 m 29,22 z" id="path171"/>
      <path class="fil18" d="m 12702,3661 c -42,-9 64,287 72,308 66,192 132,371 171,567 19,96 117,141 126,244 39,474 176,943 244,1418 4,32 23,605 6,640 -11,23 -38,103 -26,138 7,22 52,43 66,66 110,184 346,172 527,99 93,-37 250,-108 225,-237 -23,-112 -141,-220 -185,-323 -42,-98 -184,-466 -224,-521 -63,-86 -122,-159 -172,-257 -120,-241 -172,-538 -257,-792 -58,-173 -27,-352 -86,-527 -38,-114 -113,-208 -178,-310 -58,-92 -70,-214 -118,-310 -29,-57 -62,-154 -106,-198 -12,-12 -78,-13 -72,-13 m -13,8 z" id="path173"/>
      <g id="g177">
        <path class="fil18" d="m 13207,7347 c -79,-63 -162,-129 -288,-147 -130,-19 -212,40 -92,143 118,103 366,89 521,109 37,4 159,-16 125,-75 -24,-41 -229,-21 -284,-68 m 18,38 z" id="path175"/>
      </g>
    </g>
    <g id="_876303712">
      <path class="fil19" d="m 13213,7099 c -18,16 -46,17 -76,13 -46,-5 -98,-22 -149,-37 -56,-16 -112,-29 -158,-27 -57,3 -102,27 -125,88 -18,47 -50,130 -52,193 -2,58 20,101 72,113 114,25 263,47 372,57 2,1 3,3 5,4 16,13 40,24 72,29 39,8 92,9 155,6 233,-12 609,-85 918,-125 177,-23 336,21 435,23 52,2 91,-10 114,-35 16,-19 26,-45 26,-83 -1,-89 -23,-152 -56,-197 -51,-67 -130,-96 -216,-109 -77,-12 -161,-11 -230,-20 -37,-5 -69,-13 -92,-29 -1,-6 -3,-20 -3,-33 1,-36 5,-86 12,-148 57,-472 291,-1591 319,-1738 43,-225 186,-1196 150,-1596 -6,-65 -16,-116 -32,-149 -15,-31 -36,-48 -58,-54 -367,-86 -1558,-32 -1999,7 -5,1 -67,11 -94,18 -17,4 -27,12 -29,15 -7,8 -13,24 -9,45 4,22 17,56 27,84 5,13 10,24 11,29 33,317 137,712 297,965 25,40 31,96 35,153 4,66 6,133 20,185 84,307 142,657 247,946 48,133 87,950 93,1282 0,58 -1,108 -2,125 z m 43,372 c 22,1 45,0 70,-1 232,-11 605,-85 912,-125 181,-23 344,21 446,23 16,1 31,0 43,-3 7,-2 14,-5 18,-10 7,-8 9,-20 9,-36 -1,-84 -23,-139 -59,-175 -57,-57 -145,-67 -231,-73 -65,-5 -129,-6 -183,-17 -41,-8 -76,-21 -102,-43 -8,-7 -18,-23 -20,-51 -4,-35 1,-101 11,-186 57,-473 291,-1596 319,-1743 43,-222 185,-1181 149,-1577 -4,-47 -10,-85 -20,-112 -3,-9 -6,-17 -10,-23 -3,-3 -5,-7 -8,-7 -363,-86 -1541,-30 -1977,8 -3,0 -42,8 -67,13 3,10 8,24 12,35 11,29 21,57 22,68 32,307 132,691 288,936 24,39 36,91 41,146 8,72 5,152 21,210 85,306 141,653 246,941 55,152 101,1185 97,1405 -1,23 -2,38 -3,45 -2,9 -6,14 -8,17 -27,33 -66,46 -112,46 -56,-1 -124,-22 -190,-41 -49,-14 -97,-27 -137,-25 -29,1 -53,13 -65,44 -16,42 -45,115 -47,171 -1,21 0,40 19,44 167,37 416,71 476,59 18,-3 36,9 40,27 1,4 1,7 0,10 z" id="path424"/>
      <g id="g428">
        <path class="fil19" d="m 13196,7178 c 114,-6 224,17 334,34 114,19 229,32 353,7 57,-12 118,-60 178,-106 29,-22 57,-43 84,-58 26,-15 50,-24 74,-24 10,0 17,-7 18,-17 0,-9 -8,-17 -17,-17 -57,-1 -118,42 -179,89 -56,42 -112,89 -165,100 -119,24 -230,11 -340,-7 -113,-18 -225,-41 -342,-35 -9,1 -17,9 -16,18 0,9 8,16 18,16 z" id="path426"/>
      </g>
      <path class="fil19" d="m 12840,7139 c -1,-7 -7,-13 -14,-14 -15,-2 -21,6 -22,9 -3,4 -3,8 -2,13 0,2 1,5 4,8 2,3 7,6 11,9 134,111 340,206 510,232 187,29 537,51 819,-19 192,-47 352,-137 411,-291 3,-9 -1,-19 -10,-22 -9,-4 -19,1 -22,9 -55,145 -207,227 -387,271 -277,68 -622,47 -805,19 -164,-26 -363,-118 -493,-224 z" id="path430"/>
      <path class="fil19" d="m 12587,3367 c -19,41 -3,77 45,108 59,38 172,67 316,85 383,50 987,30 1341,-62 92,-24 168,-53 219,-87 36,-24 60,-51 70,-81 3,-8 -1,-18 -10,-21 -9,-3 -19,2 -22,11 -8,23 -28,43 -57,63 -48,32 -121,59 -209,82 -350,91 -948,111 -1328,62 -92,-12 -171,-28 -231,-49 -42,-14 -74,-30 -92,-49 -14,-14 -19,-30 -11,-48 4,-9 0,-19 -8,-23 -9,-4 -19,0 -23,9 z" id="path432"/>
      <path class="fil19" d="m 12940,3704 c -16,9 -20,25 -16,44 3,17 15,36 17,46 56,240 86,483 121,726 114,793 331,1561 314,2365 0,10 7,17 16,18 10,0 18,-8 18,-17 17,-806 -200,-1576 -315,-2371 -35,-244 -65,-487 -121,-729 -2,-9 -10,-24 -15,-38 -2,-4 -3,-8 -3,-12 0,-1 0,-2 1,-3 8,-4 11,-15 6,-23 -4,-8 -15,-11 -23,-6 z" id="path434"/>
      <path class="fil19" d="m 14551,3561 c -23,459 -331,2460 -360,3145 -1,9 7,17 16,18 9,0 17,-7 18,-17 29,-684 337,-2686 360,-3144 0,-10 -7,-18 -16,-18 -10,-1 -17,7 -18,16 z" id="path436"/>
    </g>
    <g id="_876311936">
      <path class="fil19" d="m 14994,12719 c -8,15 -26,24 -48,31 -29,9 -66,12 -106,14 -132,4 -295,-18 -371,-4 -114,21 -219,1 -325,-19 -113,-21 -226,-43 -349,-23 -277,43 -556,66 -840,66 -38,0 -83,9 -128,15 -39,6 -77,10 -108,3 -23,-5 -43,-9 -59,-14 -29,-7 -47,-19 -61,-57 -5,-16 -2,-33 5,-50 8,-23 23,-47 40,-70 38,-54 84,-108 100,-150 25,-72 20,-159 4,-251 -22,-126 -66,-261 -66,-365 0,-681 78,-1359 144,-2036 12,-118 56,-226 81,-340 31,-145 52,-336 27,-503 -17,-116 -56,-220 -126,-291 -68,-68 -101,-169 -114,-279 -19,-173 13,-369 60,-509 20,-59 42,-107 65,-140 11,-16 21,-28 31,-32 14,-6 21,-14 24,-22 5,-10 6,-22 0,-34 -5,-11 -20,-27 -40,-42 -17,-14 -40,-28 -48,-42 -21,-40 -1,-84 31,-112 14,-12 15,-34 2,-48 -12,-14 -34,-15 -48,-2 -54,48 -81,125 -44,194 7,13 20,28 37,41 10,9 21,17 30,24 -10,9 -21,22 -31,37 -25,36 -51,90 -73,156 -50,148 -84,356 -63,538 14,127 55,242 132,320 61,61 93,152 108,253 23,159 3,341 -27,479 -25,116 -70,227 -81,348 -66,678 -144,1359 -144,2042 0,90 30,203 54,313 22,102 38,202 10,280 -16,47 -76,107 -113,167 -31,51 -47,103 -30,149 31,89 74,92 168,114 31,7 67,6 106,2 50,-6 102,-18 145,-18 288,0 570,-24 851,-67 114,-18 220,3 326,23 113,22 227,41 350,19 87,-17 290,17 425,0 71,-9 125,-35 148,-77 8,-14 10,-34 4,-57 -6,-22 -19,-50 -37,-83 -61,-111 -179,-285 -126,-479 49,-185 0,-400 19,-593 82,-845 -86,-1318 -208,-2115 -13,-89 -58,-178 -106,-267 -46,-84 -94,-167 -120,-249 -13,-44 -1,-88 21,-131 25,-48 63,-93 101,-132 61,-61 96,-167 110,-290 20,-176 0,-390 -36,-555 -20,-94 19,-154 50,-210 40,-72 70,-139 15,-242 -9,-17 -29,-23 -46,-14 -16,9 -23,29 -14,46 41,75 15,125 -15,177 -38,69 -81,142 -56,257 34,159 54,364 35,533 -13,106 -39,198 -91,250 -52,53 -103,117 -129,183 -19,49 -25,99 -10,148 27,86 77,174 125,261 45,82 87,164 99,246 121,790 289,1259 207,2097 -18,190 32,401 -17,582 -58,215 65,408 132,529 13,23 23,43 29,60 1,5 3,9 3,13 0,2 0,3 0,4 z" id="path506"/>
      <path class="fil19" d="m 14385,9492 c 6,-3 10,-9 9,-15 0,-14 -8,-19 -11,-20 -5,-2 -17,-4 -24,10 -12,22 -51,167 -102,293 -20,49 -42,95 -64,129 -14,20 -27,37 -41,45 -25,15 -65,19 -112,19 -77,1 -172,-10 -255,-8 -48,1 -92,6 -127,18 -39,14 -68,37 -80,72 -54,150 23,266 155,347 191,117 496,159 656,129 30,-6 58,-24 83,-46 34,-31 63,-70 87,-93 7,-6 8,-17 1,-24 -6,-7 -17,-7 -24,-1 -20,19 -43,50 -71,77 -24,25 -51,48 -82,53 -155,29 -448,-12 -632,-124 -117,-72 -189,-173 -141,-306 9,-26 30,-42 59,-52 32,-11 73,-15 117,-16 83,-2 177,9 254,8 55,0 101,-6 130,-24 28,-17 56,-58 82,-110 58,-115 106,-284 129,-348 1,-5 3,-9 4,-13 z" id="path508"/>
      <path class="fil19" d="m 12755,12593 c -30,18 -82,77 -96,125 -5,19 -5,38 2,52 7,15 22,27 48,31 9,2 18,-4 19,-13 2,-10 -4,-18 -14,-20 -12,-2 -19,-6 -23,-13 -3,-8 -2,-17 1,-27 12,-41 55,-91 80,-106 8,-5 11,-15 6,-23 -5,-8 -15,-11 -23,-6 z" id="path510"/>
      <path class="fil19" d="m 12867,12628 c -15,26 -61,127 -60,182 0,20 7,35 17,43 8,6 19,9 34,7 9,-1 16,-10 14,-19 -1,-9 -9,-16 -19,-14 -3,0 -6,0 -8,-1 -2,-2 -3,-4 -3,-7 -2,-8 -1,-19 1,-31 9,-52 41,-123 53,-143 5,-8 2,-19 -6,-23 -8,-5 -18,-2 -23,6 z" id="path512"/>
      <path class="fil19" d="m 14634,12698 c -5,19 5,40 22,60 19,22 47,42 57,60 4,8 15,11 23,7 8,-5 11,-15 7,-23 -10,-19 -40,-43 -61,-66 -5,-7 -10,-13 -13,-19 -2,-4 -3,-7 -2,-11 2,-9 -3,-18 -12,-21 -9,-2 -19,4 -21,13 z" id="path514"/>
      <path class="fil19" d="m 14753,12649 c 18,35 33,78 62,106 7,7 18,6 24,-1 7,-7 6,-17 -1,-24 -26,-25 -39,-64 -54,-96 -4,-8 -15,-12 -23,-7 -8,4 -12,14 -8,22 z" id="path516"/>
      <path class="fil19" d="m 14854,12655 c 23,41 28,88 37,133 2,9 11,15 20,13 10,-2 15,-11 13,-20 -10,-48 -15,-99 -40,-143 -5,-8 -15,-11 -23,-7 -8,5 -11,15 -7,24 z" id="path518"/>
      <path class="fil19" d="m 13637,10222 c -1,-9 -9,-15 -19,-14 -14,1 -20,8 -22,11 -2,4 -3,8 -2,12 0,3 2,8 8,13 8,5 38,15 69,26 16,6 33,13 46,20 7,4 13,8 16,13 5,7 16,9 23,4 8,-6 10,-16 4,-24 -10,-14 -33,-27 -60,-38 -21,-9 -43,-16 -60,-21 z" id="path520"/>
      <path class="fil19" d="m 13591,10068 c 36,20 110,60 123,65 9,3 18,-2 22,-10 3,-9 -2,-19 -10,-22 -18,-7 -132,-71 -142,-75 -8,-3 -13,-1 -14,0 -5,2 -8,6 -9,10 -1,3 -2,8 1,13 0,1 2,4 4,6 2,1 7,4 18,11 2,1 5,2 7,2 z" id="path522"/>
      <path class="fil19" d="m 13748,10035 c 1,1 3,2 4,4 3,4 7,9 11,15 13,18 27,40 33,48 6,7 17,9 24,3 8,-6 9,-17 3,-24 -9,-12 -36,-56 -52,-71 -10,-10 -21,-10 -27,-8 -9,4 -13,14 -9,22 2,6 7,10 13,11 z" id="path524"/>
      <path class="fil19" d="m 14097,7644 c -2,-2 -5,-4 -10,-6 -14,-6 -42,-10 -76,-9 -65,2 -153,19 -205,57 -38,29 -58,68 -39,121 6,18 26,34 55,46 57,23 153,31 232,17 42,-8 79,-21 103,-41 18,-15 29,-34 32,-56 3,-33 -15,-76 -71,-127 -6,-6 -14,-6 -21,-2 z m -23,25 c -2,0 -7,-2 -12,-3 -13,-2 -30,-3 -50,-3 -59,2 -139,16 -185,50 -27,20 -41,47 -28,82 2,7 8,12 17,17 11,7 25,13 42,17 53,15 128,18 190,7 30,-5 57,-13 77,-26 17,-10 28,-23 30,-40 2,-25 -15,-56 -55,-95 -3,2 -6,4 -9,4 -7,0 -14,-4 -17,-10 z" id="path526"/>
      <path class="fil19" d="m 13208,7699 c -1,-10 -8,-17 -17,-17 -3,0 -5,0 -7,1 -6,-6 -14,-12 -26,-16 -24,-8 -60,-12 -74,-13 -39,-6 -88,-3 -124,13 -20,9 -36,22 -46,39 -10,18 -14,41 -8,69 3,15 15,27 32,35 18,9 41,13 55,16 82,19 176,24 240,-36 8,-7 11,-14 12,-22 1,-10 -2,-21 -9,-31 -6,-9 -14,-18 -20,-26 -3,-3 -5,-6 -6,-8 -1,-2 -2,-4 -2,-4 z m -51,6 c 0,-1 -2,-2 -3,-3 -5,-2 -10,-4 -16,-5 -21,-6 -48,-8 -58,-10 -34,-4 -75,-3 -106,11 -13,5 -24,14 -31,25 -6,12 -8,27 -4,45 1,6 7,9 13,11 16,8 37,11 49,14 71,17 153,24 209,-27 2,-3 1,-5 -1,-8 -2,-3 -4,-7 -7,-10 -6,-9 -14,-17 -20,-25 -2,-3 -4,-7 -5,-10 -8,3 -16,-1 -20,-8 z" id="path528"/>
      <path class="fil19" d="m 13801,7738 c -20,14 36,67 52,72 78,24 286,-34 231,-136 -22,-42 -207,-14 -245,9 -13,8 -29,41 -44,41 m 6,14 z" id="path530"/>
      <path class="fil19" d="m 12992,7676 c -31,5 -54,53 -32,80 52,64 203,48 241,-22 25,-46 -110,-60 -139,-60 -12,0 -60,4 -58,6 m -12,-4 z" id="path532"/>
      <path class="fil19" d="m 13503,7780 c -59,-30 -225,-16 -258,45 -28,53 -45,145 34,175 88,33 202,54 285,3 105,-65 42,-169 -30,-203 -12,-5 -18,-22 -31,-22 m 0,2 z" id="path534"/>
      <path class="fil19" d="m 13232,7897 c -89,18 -158,88 -189,171 -32,84 -24,180 40,250 22,24 55,41 92,52 53,17 115,21 160,17 80,-8 185,-14 273,-44 62,-21 115,-54 147,-107 32,-51 30,-155 -6,-229 -25,-53 -67,-91 -124,-91 -9,0 -17,8 -17,17 0,9 8,17 17,17 44,0 74,31 93,71 32,65 35,154 8,198 -28,46 -75,74 -129,92 -85,29 -187,34 -265,42 -41,4 -98,0 -147,-15 -31,-10 -59,-23 -77,-43 -55,-60 -60,-143 -34,-215 27,-72 88,-134 165,-150 9,-2 15,-11 13,-20 -2,-9 -11,-15 -20,-13 z" id="path536"/>
      <path class="fil19" d="m 13333,8008 c -10,39 -23,159 -22,240 1,22 2,40 5,55 3,12 6,21 10,26 6,8 16,10 24,4 8,-5 9,-16 4,-24 -2,-2 -3,-7 -4,-13 -3,-13 -4,-30 -4,-49 -2,-78 11,-194 20,-231 2,-9 -4,-18 -13,-20 -9,-3 -18,3 -20,12 z" id="path538"/>
      <path class="fil19" d="m 13237,8431 c 0,-2 -4,-10 -5,-16 -4,-18 -8,-38 -10,-44 -4,-9 -10,-12 -13,-12 -3,-1 -21,-2 -22,19 0,4 1,8 4,11 2,11 7,30 10,43 4,11 8,20 12,23 38,36 103,46 157,58 79,18 137,11 177,-17 40,-29 61,-80 61,-155 0,-9 -7,-17 -17,-17 -9,0 -17,8 -17,17 0,61 -14,104 -47,128 -33,23 -83,26 -149,11 -25,-6 -53,-11 -79,-19 -24,-6 -46,-15 -62,-30 z" id="path540"/>
      <path class="fil19" d="m 13370,8381 c 3,18 -1,50 2,77 3,24 12,43 27,53 8,5 19,2 23,-5 5,-8 3,-19 -5,-24 -3,-2 -5,-5 -6,-8 -3,-6 -4,-13 -5,-20 -3,-27 0,-60 -3,-78 -1,-9 -10,-16 -19,-14 -9,1 -16,10 -14,19 z" id="path542"/>
      <path class="fil19" d="m 13606,8327 c -4,-1 -10,-1 -14,2 -8,4 -9,11 -9,14 0,6 1,14 13,17 1,1 7,2 14,1 18,-1 57,-6 73,-9 65,-14 130,-37 186,-72 28,-18 42,-30 66,-49 3,-3 10,-10 13,-13 6,-3 10,-9 10,-16 0,-10 -6,-14 -10,-16 -4,-2 -9,-3 -16,1 -2,1 -5,3 -8,6 -3,4 -7,9 -10,12 -23,17 -36,29 -63,46 -53,33 -114,55 -175,67 -15,4 -54,9 -70,9 z m 4,30 z m 1,-1 v 1 0 z m 1,0 h -1 v 0 z m 0,0 z m 312,-153 c 0,3 1,5 2,7 -1,-2 -2,-4 -2,-7 z" id="path544"/>
      <path class="fil19" d="m 12996,8327 c -5,-6 -13,-7 -20,-4 -11,5 -11,14 -11,19 1,4 4,12 15,16 14,5 66,10 79,13 23,4 51,6 78,9 25,2 48,6 67,17 8,4 18,1 23,-7 4,-8 1,-18 -7,-23 -17,-10 -39,-15 -62,-19 -32,-5 -66,-6 -93,-11 -10,-1 -55,-8 -69,-10 z" id="path546"/>
      <path class="fil19" d="m 14443,7450 c 3,2 54,28 77,113 2,9 12,14 21,12 9,-3 14,-12 12,-21 -21,-76 -59,-112 -82,-127 -2,-3 -6,-6 -10,-7 -3,-1 -5,-1 -6,-2 -1,0 -1,0 -2,0 -7,-3 -12,0 -13,0 -5,3 -7,7 -8,10 -1,2 -5,14 8,21 0,0 1,0 3,1 z" id="path548"/>
      <path class="fil19" d="m 14486,7429 c 0,0 2,-3 3,-4 4,-3 8,-6 13,-9 21,-11 52,-19 72,-11 4,1 7,3 9,7 2,4 2,9 0,16 -3,15 -12,33 -29,56 -5,8 -3,19 4,24 8,6 18,4 24,-4 21,-30 32,-53 35,-71 3,-16 1,-28 -4,-37 -7,-14 -22,-23 -40,-26 -21,-4 -49,0 -72,9 -17,7 -31,16 -40,26 -8,10 -11,21 -8,32 2,9 11,14 20,12 9,-2 15,-11 13,-20 z" id="path550"/>
      <path class="fil19" d="m 12873,7680 c -1,-3 0,-6 1,-10 2,-6 6,-12 11,-18 17,-23 45,-46 61,-62 7,-6 8,-17 1,-24 -6,-6 -17,-7 -24,0 -21,20 -58,50 -74,78 -10,17 -13,33 -8,46 3,9 12,14 21,11 9,-3 14,-13 11,-21 z" id="path552"/>
      <path class="fil19" d="m 14014,7543 c 1,0 3,0 4,0 7,-1 17,0 27,2 38,7 92,24 141,44 9,3 19,-1 23,-10 3,-8 -1,-18 -10,-22 -50,-20 -106,-38 -146,-45 -19,-3 -35,-4 -46,-2 -14,2 -22,9 -26,17 -4,8 -5,19 3,33 5,8 15,11 23,7 8,-5 12,-15 7,-23 z" id="path554"/>
      <path class="fil19" d="m 13003,7618 c 1,-3 4,-5 7,-7 7,-4 16,-7 26,-9 34,-7 80,-7 100,-7 9,0 17,-8 17,-17 0,-9 -8,-17 -17,-17 -25,0 -88,0 -126,13 -23,8 -37,21 -40,37 -2,10 4,19 13,20 10,2 19,-4 20,-13 z" id="path556"/>
      <path class="fil19" d="m 12863,8737 c -1,-6 -4,-12 -10,-14 -11,-5 -17,-6 -20,-6 -6,0 -10,2 -12,4 -2,2 -4,4 -5,7 -2,3 -4,14 8,23 15,13 84,52 154,80 48,20 97,35 131,35 10,0 17,-8 17,-17 0,-9 -7,-17 -17,-17 -31,0 -75,-14 -118,-32 -51,-21 -101,-47 -128,-63 z" id="path558"/>
      <path class="fil19" d="m 14733,8040 c 16,-19 65,-78 70,-82 56,-53 154,-82 232,-61 130,34 219,98 274,184 55,88 76,197 71,318 -7,162 -66,320 -105,476 -79,312 -177,604 -279,909 -48,141 -110,277 -139,423 -10,51 -8,108 -21,155 -3,13 -5,60 -6,78 0,2 0,3 0,5 0,7 1,10 1,10 5,24 24,26 29,27 10,1 23,0 33,-16 0,-1 5,-7 5,-19 0,-9 1,-56 4,-67 13,-49 11,-107 22,-160 29,-143 89,-276 136,-414 103,-307 202,-601 281,-914 40,-161 100,-323 107,-490 5,-137 -20,-259 -82,-357 -63,-99 -164,-174 -314,-214 -99,-27 -224,10 -296,77 -7,7 -75,81 -88,108 -9,17 -6,31 -3,37 6,13 16,24 39,21 17,-2 29,-17 29,-34 z m -37,-33 c 0,0 -1,0 -1,0 z" id="path560"/>
      <path class="fil19" d="m 15078,8034 c -25,0 -45,15 -61,36 -19,25 -32,61 -45,80 -54,77 -178,241 -248,373 -31,59 -51,112 -51,149 0,9 7,17 17,17 9,0 17,-8 17,-17 0,-33 19,-80 47,-134 69,-130 193,-292 245,-369 11,-16 23,-43 37,-66 11,-18 23,-35 42,-35 9,0 17,-8 17,-17 0,-10 -8,-17 -17,-17 z" id="path562"/>
      <path class="fil19" d="m 15230,8318 c -18,2 -41,17 -66,38 -50,45 -105,118 -117,132 -70,82 -166,180 -235,286 -48,73 -82,149 -87,227 0,9 7,17 16,18 10,0 18,-7 18,-16 5,-72 37,-143 81,-210 68,-105 164,-202 233,-283 12,-14 65,-85 114,-128 18,-16 34,-28 47,-30 9,-1 16,-9 15,-18 -1,-10 -9,-17 -19,-16 z" id="path564"/>
      <path class="fil19" d="m 15024,9004 c -111,152 -224,319 -261,502 -2,9 4,18 13,20 9,2 18,-4 20,-13 37,-179 147,-341 255,-489 6,-7 4,-18 -3,-24 -8,-5 -18,-3 -24,4 z" id="path566"/>
      <path class="fil19" d="m 14633,8753 c 106,74 161,192 193,317 32,129 40,266 53,377 1,9 9,16 19,15 9,-1 16,-9 15,-19 -13,-112 -22,-251 -54,-381 -34,-134 -94,-258 -206,-337 -8,-5 -18,-3 -24,4 -5,8 -3,18 4,24 z" id="path568"/>
      <path class="fil19" d="m 14827,8296 c 39,67 101,117 138,187 81,150 105,321 125,486 1,10 10,16 19,15 9,-1 16,-9 15,-19 -21,-169 -46,-344 -129,-498 -37,-70 -99,-121 -139,-189 -5,-8 -15,-10 -23,-6 -8,5 -11,15 -6,24 z" id="path570"/>
    </g>
  </g>
</svg>