<?xml version="1.0" encoding="utf-8"?>
<svg viewBox="6500 12200 100 300" width="48.153mm" height="144.458mm" style="clip-rule:evenodd;fill-rule:evenodd;image-rendering:optimizeQuality;shape-rendering:geometricPrecision;text-rendering:geometricPrecision" xmlns="http://www.w3.org/2000/svg">
  <defs>
    <style type="text/css" id="style2">
   
    .fil5 {fill:#000300}
    .fil14 {fill:#007020}
    .fil18 {fill:#008DC6}
    .fil12 {fill:#009429}
    .fil16 {fill:#00B3EC}
    .fil19 {fill:#1A1719}
    .fil24 {fill:#407898}
    .fil21 {fill:#4D94BB}
    .fil15 {fill:#68B012}
    .fil13 {fill:#78B409}
    .fil8 {fill:#883223}
    .fil23 {fill:#986B98}
    .fil6 {fill:#9A3727}
    .fil25 {fill:#9E71A8}
    .fil0 {fill:#A1A3A5}
    .fil17 {fill:#A7DFF7}
    .fil20 {fill:#B192C2}
    .fil22 {fill:#C2A7CF}
    .fil3 {fill:#C6826A}
    .fil7 {fill:#D54835}
    .fil11 {fill:#DD943C}
    .fil1 {fill:#E30011}
    .fil4 {fill:#F7B8A7}
    .fil9 {fill:#FCB200}
    .fil10 {fill:#FFE040}
    .fil2 {fill:white}
    .fil26 {fill:#2B2A29;fill-rule:nonzero}
   
  </style>
  </defs>
  <line style="stroke-width: 2px; stroke: rgb(176, 176, 176);" x1="6500" y1="12208.576" x2="6600" y2="12208.576"/>
  <line style="stroke-width: 2px; stroke: rgb(176, 176, 176);" x1="6500" y1="12233.091" x2="6600" y2="12233.091"/>
  <line style="stroke-width: 2px; stroke: rgb(176, 176, 176);" x1="6500" y1="12256.315" x2="6600" y2="12256.315"/>
  <line style="stroke-width: 2px; stroke: rgb(176, 176, 176);" x1="6500" y1="12280.83" x2="6600" y2="12280.83"/>
  <line style="stroke-width: 2px; stroke: rgb(176, 176, 176);" x1="6500" y1="12305" x2="6600" y2="12305"/>
  <line style="stroke-width: 2px; stroke: rgb(176, 176, 176);" x1="6500" y1="12329.515" x2="6600" y2="12329.515"/>
  <line style="stroke-width: 2px; stroke: rgb(176, 176, 176);" x1="6500" y1="12352.739" x2="6600" y2="12352.739"/>
  <line style="stroke-width: 2px; stroke: rgb(176, 176, 176);" x1="6500" y1="12377.254" x2="6600" y2="12377.254"/>
  <line style="stroke-width: 2px; stroke: rgb(176, 176, 176);" x1="6500" y1="12402" x2="6600" y2="12402"/>
  <line style="stroke-width: 2px; stroke: rgb(176, 176, 176);" x1="6500" y1="12426.515" x2="6600" y2="12426.515"/>
  <line style="stroke-width: 2px; stroke: rgb(176, 176, 176);" x1="6500" y1="12449.739" x2="6600" y2="12449.739"/>
  <line style="stroke-width: 2px; stroke: rgb(176, 176, 176);" x1="6500" y1="12474.254" x2="6600" y2="12474.254"/>
  <line style="stroke-width: 2px; stroke: rgb(176, 176, 176);" x1="6600" y1="12208.576" x2="6700" y2="12208.576"/>
  <line style="stroke-width: 2px; stroke: rgb(176, 176, 176);" x1="6600" y1="12233.091" x2="6700" y2="12233.091"/>
  <line style="stroke-width: 2px; stroke: rgb(176, 176, 176);" x1="6600" y1="12256.315" x2="6700" y2="12256.315"/>
  <line style="stroke-width: 2px; stroke: rgb(176, 176, 176);" x1="6600" y1="12280.83" x2="6700" y2="12280.83"/>
  <line style="stroke-width: 2px; stroke: rgb(176, 176, 176);" x1="6600" y1="12305" x2="6700" y2="12305"/>
  <line style="stroke-width: 2px; stroke: rgb(176, 176, 176);" x1="6600" y1="12329.515" x2="6700" y2="12329.515"/>
  <line style="stroke-width: 2px; stroke: rgb(176, 176, 176);" x1="6600" y1="12352.739" x2="6700" y2="12352.739"/>
  <line style="stroke-width: 2px; stroke: rgb(176, 176, 176);" x1="6600" y1="12377.254" x2="6700" y2="12377.254"/>
  <line style="stroke-width: 2px; stroke: rgb(176, 176, 176);" x1="6600" y1="12402" x2="6700" y2="12402"/>
  <line style="stroke-width: 2px; stroke: rgb(176, 176, 176);" x1="6600" y1="12426.515" x2="6700" y2="12426.515"/>
  <line style="stroke-width: 2px; stroke: rgb(176, 176, 176);" x1="6600" y1="12449.739" x2="6700" y2="12449.739"/>
  <line style="stroke-width: 2px; stroke: rgb(176, 176, 176);" x1="6600" y1="12474.254" x2="6700" y2="12474.254"/>
  <g id="g1991" transform="matrix(0.02272, 0, 0, 0.02272, 6495.137304, 12207.661315)">
    <g id="_876261952">
      <path class="fil1" d="m 1851,3308 c 2,-65 -119,-102 -84,-205 56,-168 257,-130 349,-223 14,-13 -6,-72 -10,-84 -73,-218 -88,-449 -64,-689 31,-313 146,-739 307,-1007 89,-149 223,-298 297,-445 86,-172 -280,-401 -21,-530 148,-74 489,-133 562,85 74,223 -252,275 -202,476 84,333 552,1960 424,2216 -12,23 175,120 138,233 -66,199 -1080,1 -1314,95 -39,15 -382,53 -382,53 m 0,25 z" id="path60"/>
      <path class="fil2" d="m 3142,1413 c 5,-13 -110,35 -125,79 -47,142 -99,273 64,382 27,18 158,127 201,84 138,-138 -74,-455 -74,-593 m -66,48 z" id="path62"/>
      <path class="fil2" d="m 2576,865 c 90,-124 502,349 70,457 -383,96 -264,-413 -148,-413 m 78,-44 z" id="path64"/>
      <path class="fil2" d="m 3078,336 c -50,3 3,89 3,43 m -3,-43 z" id="path66"/>
      <path class="fil2" d="m 2129,1881 c -10,173 -174,891 220,628 126,-83 208,-186 255,-328 83,-251 -212,-461 -414,-360 -13,6 -42,6 -42,21 m -19,39 z" id="path68"/>
      <path class="fil2" d="m 2955,2375 c -69,-78 -368,402 -65,463 508,102 85,-620 85,-477 m -20,14 z" id="path70"/>
      <path class="fil2" d="m 3079,327 c -107,-133 -282,255 -178,307 146,73 272,-287 169,-287 m 9,-20 z" id="path72"/>
    </g>
    <path class="fil3" d="m 1958,3249 c -116,36 -291,85 -247,262 10,40 109,100 103,118 -46,139 -91,301 -140,450 -54,161 -148,502 -89,680 21,61 92,96 111,155 46,138 52,311 89,457 59,239 -48,1138 -82,1403 -10,86 -55,160 -74,244 -59,268 -101,548 -140,820 -47,326 -33,663 -74,989 -41,328 -114,651 -140,982 -30,384 66,779 66,1167 0,242 43,439 82,672 15,93 -6,194 7,288 55,384 222,672 561,842 28,13 77,-16 111,-8 282,71 434,-1 391,-339 -11,-91 -172,-199 -140,-296 24,-73 174,-121 244,-103 195,49 309,315 436,442 174,175 565,356 826,304 93,-19 297,-116 237,-237 -57,-114 -156,-117 -259,-199 -84,-68 -161,-190 -221,-281 -211,-316 -88,-1293 -8,-1654 112,-500 150,-948 196,-1462 26,-283 70,-852 49,-1301 -27,-571 -93,-783 -156,-1350 -32,-288 -133,-576 -170,-871 -23,-188 123,-624 148,-849 33,-299 -11,-690 -104,-967 -17,-54 83,-91 60,-163 -94,-282 -555,-152 -783,-177 -176,-20 -372,-31 -547,-15 -80,8 -162,8 -243,8 -27,0 -100,-13 -100,-11 z" id="path75"/>
    <path class="fil4" d="m 2311,6622 c -17,-74 215,-225 286,-239 333,-67 509,88 716,295 58,59 -68,338 -89,399 -98,296 -290,438 -531,598 -68,45 -133,104 -170,177 -7,15 -22,45 -22,45 0,0 -4,-55 -8,-81 -15,-106 -32,-211 -44,-318 -12,-111 -7,-237 -7,-347 0,-160 -104,-334 -104,-487 m -27,-42 z" id="path121"/>
    <path class="fil4" d="m 2548,3369 c -109,-117 -508,105 -550,231 -85,256 60,573 309,677 155,65 337,38 501,59 163,20 394,19 520,-108 248,-248 199,-701 -157,-820 -268,-89 -487,-54 -756,-54 m 133,15 z" id="path123"/>
    <path class="fil4" d="m 1885,7939 c 10,-18 4,41 3,61 -6,72 -11,143 -15,214 -11,221 -15,443 -15,665 0,559 -58,1174 185,1691 105,222 331,447 605,369 217,-62 328,-341 392,-532 178,-533 354,-1106 354,-1676 0,-190 -7,-378 -7,-568 v -303 c 0,0 -7,26 -15,37 -47,63 -133,137 -199,177 -55,33 -296,112 -318,155 -43,87 44,186 15,273 -48,145 -114,100 -236,141 -29,9 -31,59 -59,73 -37,19 -137,0 -178,0 -297,0 -184,-153 -184,-332 0,-12 -19,-17 -30,-22 -77,-39 -280,-253 -280,-332 m -18,-91 z" id="path127"/>
    <path class="fil8" d="M 1341,9270 C 1287,9152 1220,8413 1201,8229 1132,7532 820,6812 921,6110 c 49,-347 444,-1084 841,-687 139,138 29,998 0,1196 -41,291 -103,576 -147,864 -60,389 -107,772 -155,1160 -32,251 -133,465 -133,723 m 14,-96 z" id="path129"/>
    <path class="fil7" d="m 2702,4057 c 22,-32 -31,-13 -47,-6 -49,22 -80,61 -106,106 -70,123 -132,276 -85,416 25,74 89,103 152,134 151,76 348,98 500,-3 56,-38 81,-109 110,-166 86,-173 33,-377 -127,-473 -36,-21 -104,0 -141,4 -93,9 -181,-14 -268,-14 m 12,2 z" id="path131"/>
    <path class="fil2" d="m 2547,3917 c -29,-52 -13,-123 -93,-155 -102,-40 -372,-20 -286,152 68,137 370,120 370,-35 m 9,38 z" id="path133"/>
    <path class="fil2" d="m 3191,3792 c -35,-10 -34,117 -29,143 31,151 217,20 261,-39 100,-133 -145,-197 -222,-120 m -10,16 z" id="path135"/>
    <path class="fil2" d="m 2667,4741 c -17,5 -9,55 -9,72 0,40 -9,133 11,173 14,29 76,21 102,21 75,0 200,22 250,-46 20,-26 24,-71 32,-102 6,-23 40,-104 21,-124 -14,-14 -50,-2 -70,4 -73,22 -127,21 -201,21 -22,0 -145,5 -145,-21 m 9,2 z" id="path137"/>
    <path class="fil19" d="m 2057,2856 c -19,15 -44,22 -70,27 -35,6 -74,9 -110,13 -66,9 -123,28 -152,78 -26,47 -30,125 22,262 5,14 20,23 35,21 6,7 15,12 25,12 h 1665 c 38,0 71,-15 83,-38 98,-182 9,-324 -100,-426 -1,-3 -2,-9 -3,-14 -2,-17 -1,-40 0,-66 7,-127 39,-329 21,-412 -79,-369 -220,-730 -277,-1102 -9,-60 -41,-119 -76,-179 -30,-52 -62,-105 -74,-161 -9,-42 -37,-113 -49,-180 -7,-36 -10,-71 3,-96 30,-55 99,-124 139,-200 32,-59 46,-122 23,-185 -13,-38 -45,-72 -90,-100 -59,-37 -143,-62 -228,-71 -86,-10 -174,-3 -241,24 -50,20 -89,51 -111,92 -25,47 -24,97 -9,147 14,44 39,89 65,133 23,39 47,78 60,115 11,30 15,58 2,83 -54,99 -107,167 -157,234 -80,105 -152,209 -209,420 -41,152 -123,301 -150,450 -31,174 -15,359 -43,538 -20,134 -39,324 -10,460 2,8 10,44 14,79 2,14 2,35 2,42 z m 1439,341 c 79,-148 -1,-262 -90,-345 -7,-7 -14,-18 -18,-35 -5,-21 -6,-55 -4,-96 7,-121 40,-315 23,-394 -80,-370 -221,-733 -278,-1106 -8,-52 -38,-103 -68,-155 -33,-59 -68,-118 -81,-181 -9,-42 -37,-114 -50,-182 -10,-53 -9,-104 10,-140 26,-47 78,-103 119,-165 33,-52 60,-108 39,-165 -9,-25 -31,-47 -61,-65 -52,-32 -126,-54 -200,-62 -75,-8 -150,-3 -208,21 -34,13 -62,33 -77,61 -16,30 -14,62 -4,94 12,39 35,79 58,118 31,53 62,105 74,154 10,39 8,76 -10,111 -56,103 -111,173 -163,243 -75,99 -144,197 -197,396 -41,151 -123,298 -149,445 -31,174 -15,358 -43,536 -19,128 -38,307 -11,436 3,11 17,74 19,118 0,17 -1,32 -5,42 -3,9 -8,16 -13,21 -23,21 -53,34 -86,43 -42,10 -91,13 -136,19 -43,5 -83,11 -102,44 -9,16 -12,37 -10,67 3,33 13,74 32,126 h 1 1665 c 7,0 13,-1 19,-2 2,0 4,-1 5,-2 z" id="path180"/>
    <path class="fil19" d="m 2040,2929 c 139,27 293,17 450,5 154,-13 311,-27 457,-10 68,7 146,32 222,55 79,23 155,44 218,44 9,0 17,-7 17,-17 0,-9 -8,-17 -17,-17 -60,0 -133,-21 -209,-43 -78,-23 -158,-48 -227,-56 -148,-17 -307,-3 -464,10 -153,12 -305,23 -441,-4 -9,-2 -18,4 -19,13 -2,10 4,19 13,20 z" id="path182"/>
    <path class="fil19" d="m 3309,1902 c -3,1 -11,3 -17,3 -25,3 -61,3 -72,1 -127,-30 -196,-93 -226,-167 -44,-112 1,-247 70,-325 46,-51 102,-79 150,-50 8,5 19,3 24,-5 5,-8 2,-19 -6,-24 -61,-37 -135,-9 -193,57 -77,86 -125,236 -76,359 33,83 108,155 249,188 16,3 81,4 106,-4 16,-5 22,-16 22,-23 0,-9 -8,-17 -17,-17 -6,0 -11,3 -14,7 z" id="path184"/>
    <path class="fil19" d="m 2165,2514 c -2,-7 -8,-12 -16,-12 -10,0 -17,7 -17,17 0,9 3,15 8,20 5,6 14,9 26,10 20,1 51,-7 82,-18 44,-15 88,-35 91,-38 73,-47 139,-110 196,-172 40,-43 86,-108 100,-166 15,-62 -13,-162 -63,-250 -51,-88 -124,-164 -196,-179 -58,-12 -102,-1 -143,14 -38,13 -72,31 -114,37 -9,1 -16,9 -15,19 1,9 10,16 19,14 37,-4 68,-17 99,-30 43,-17 86,-33 147,-20 65,13 128,83 173,162 46,79 73,169 60,225 -13,53 -56,112 -92,151 -55,60 -119,121 -189,167 -5,3 -88,41 -137,49 -7,1 -15,1 -19,0 z" id="path186"/>
    <path class="fil19" d="m 3070,2350 c -31,-29 -64,-42 -96,-43 -47,-1 -92,23 -132,63 -56,57 -100,144 -117,223 -12,55 -11,107 6,142 51,107 159,119 249,78 89,-40 158,-131 135,-228 -10,-42 -30,-79 -52,-115 -20,-34 -42,-68 -55,-106 -3,-9 -13,-14 -22,-10 -9,3 -13,13 -10,21 14,40 36,76 58,112 20,33 39,67 48,105 19,82 -41,157 -116,190 -73,34 -163,26 -204,-62 -15,-29 -14,-73 -4,-119 16,-73 56,-154 108,-207 32,-32 69,-54 107,-53 25,1 50,11 75,34 6,6 17,6 24,-1 6,-7 5,-18 -2,-24 z" id="path188"/>
    <path class="fil19" d="m 2399,1098 c 7,1 15,-2 19,-9 4,-8 1,-19 -8,-23 -9,-5 -16,-5 -22,-3 -7,1 -13,6 -17,13 -4,7 -7,18 -7,30 -1,15 2,30 3,35 24,77 94,125 173,141 78,15 163,-3 218,-54 160,-149 12,-397 -204,-397 -9,0 -17,7 -17,17 0,9 8,17 17,17 185,0 318,210 181,338 -47,44 -121,58 -189,45 -66,-13 -126,-52 -146,-117 -1,-3 -2,-13 -2,-22 0,-4 1,-8 1,-11 z" id="path190"/>
    <path class="fil19" d="m 3117,340 c -15,-31 -33,-47 -53,-52 -19,-6 -39,-2 -60,11 -25,15 -52,45 -73,80 -32,52 -54,116 -55,167 0,39 12,70 40,85 26,14 70,14 136,-16 9,-4 12,-14 9,-23 -4,-8 -15,-12 -23,-8 -27,13 -50,20 -69,22 -15,2 -28,0 -37,-5 -17,-10 -22,-30 -22,-55 1,-45 21,-103 50,-149 18,-31 40,-56 62,-69 11,-7 22,-11 33,-8 12,4 22,15 31,35 4,8 14,12 23,8 8,-4 12,-14 8,-23 z" id="path192"/>
    <g id="g196">
      <path class="fil19" d="m 1896,3295 c 2,2 5,2 9,3 18,2 35,-12 37,-30 1,-11 -2,-20 -7,-27 -5,-6 -15,-14 -32,-15 -18,0 -66,14 -77,15 -76,5 -116,34 -135,70 -19,35 -19,81 -5,127 25,81 89,165 113,184 15,12 36,10 48,-4 12,-15 10,-36 -5,-48 -20,-16 -71,-85 -91,-152 -8,-27 -12,-54 0,-75 11,-20 36,-31 80,-34 8,-1 50,-10 65,-14 z m -21,-28 c -1,-2 -1,-5 0,-7 -1,2 -1,5 0,7 z" id="path194"/>
    </g>
    <g id="g200">
      <path class="fil19" d="m 1771,3590 c -18,25 -42,91 -65,181 -53,200 -112,523 -130,759 -8,104 -7,192 4,246 6,30 17,52 29,64 13,14 35,14 48,1 13,-14 13,-35 0,-48 -8,-9 -11,-28 -14,-53 -6,-50 -5,-122 1,-205 18,-232 76,-550 127,-746 21,-79 40,-138 56,-160 10,-15 7,-36 -8,-47 -16,-11 -37,-8 -48,8 z" id="path198"/>
    </g>
    <g id="g204">
      <path class="fil19" d="m 3414,3303 c 4,-1 8,-1 10,-2 9,-1 16,-2 23,-3 46,-12 85,12 107,48 24,38 32,90 11,133 -9,16 -2,37 15,45 17,8 37,1 46,-15 31,-65 22,-143 -14,-200 -38,-60 -104,-97 -181,-77 -12,3 -27,2 -39,6 -12,3 -23,9 -31,18 -8,10 -15,23 -14,42 0,19 15,34 34,33 17,0 31,-12 33,-28 z" id="path202"/>
    </g>
    <g id="g208">
      <path class="fil19" d="m 3601,3500 c 0,-2 0,-3 0,-4 -1,-2 -1,-4 -1,-6 l -1,-4 c 0,0 0,-1 0,-1 v 2 c -16,-75 -72,-21 -67,9 1,11 9,57 11,65 43,176 68,342 87,523 23,232 46,475 19,709 -3,29 -17,61 -30,92 -15,39 -28,77 -28,110 0,19 15,34 34,34 18,0 33,-15 33,-34 0,-26 13,-55 25,-84 14,-37 30,-75 34,-111 27,-238 4,-486 -20,-723 -18,-184 -44,-353 -88,-532 -2,-5 -5,-29 -8,-45 z" id="path206"/>
    </g>
    <g id="g212">
      <path class="fil19" d="m 1671,4862 c 3,9 12,38 18,64 42,204 97,716 97,751 0,535 -474,3057 -499,3972 -13,471 47,945 68,1415 13,292 7,697 91,1045 58,238 158,449 332,582 130,99 251,176 412,176 146,0 229,-36 272,-89 27,-34 40,-76 42,-123 2,-61 -16,-133 -40,-206 -30,-94 -69,-190 -77,-267 -3,-31 -2,-59 12,-80 12,-21 35,-34 71,-41 35,-8 71,2 107,22 40,23 80,59 118,100 124,134 237,331 320,415 43,44 137,92 254,131 169,56 387,94 557,80 133,-11 237,-56 278,-140 53,-109 5,-193 -83,-263 -68,-55 -162,-102 -237,-149 -44,-29 -82,-56 -101,-88 -78,-133 -135,-315 -162,-466 -2,-13 -18,-58 -31,-100 -4,-16 -8,-38 -10,-47 36,-40 60,-98 61,-164 20,-759 366,-2384 342,-3235 -10,-340 -8,-679 -49,-1017 -45,-364 -54,-732 -108,-1095 -15,-104 -151,-535 -146,-807 2,-54 8,-100 23,-136 13,-28 31,-49 58,-56 18,-5 29,-23 25,-41 -5,-19 -24,-30 -42,-25 -48,12 -82,45 -103,95 -18,42 -27,98 -29,162 -5,275 132,713 147,818 54,362 63,730 107,1093 42,336 40,673 49,1011 24,850 -322,2473 -342,3231 -1,52 -19,96 -48,126 -8,8 -15,25 -13,50 5,42 39,129 42,149 29,159 88,349 171,489 19,33 54,64 97,94 59,39 133,78 198,120 40,26 77,53 103,83 33,39 47,83 20,138 -21,42 -64,68 -120,84 -63,19 -140,24 -223,20 -154,-8 -324,-46 -455,-95 -83,-30 -149,-64 -182,-97 -82,-84 -194,-280 -318,-414 -92,-99 -192,-163 -289,-143 -57,12 -92,36 -113,68 -21,31 -28,71 -24,117 3,52 21,113 42,176 26,78 57,159 69,233 11,63 10,119 -31,157 -37,36 -103,54 -209,54 -146,0 -253,-73 -370,-162 -163,-124 -254,-322 -308,-544 -83,-343 -76,-743 -89,-1032 -21,-469 -81,-940 -68,-1410 25,-915 499,-3439 499,-3974 0,-35 -56,-557 -99,-764 -10,-48 -21,-81 -29,-93 -11,-14 -23,-18 -33,-18 -19,0 -34,15 -34,34 0,11 5,20 12,26 z m 21,8 c 0,0 1,0 1,0 z" id="path210"/>
    </g>
    <path class="fil19" d="m 3672,12588 c -3,-4 -8,-6 -14,-6 -11,2 -14,9 -15,12 -1,4 -1,9 2,14 0,2 4,6 12,10 9,4 32,12 43,23 40,37 84,94 84,148 0,10 8,17 17,17 10,0 17,-7 17,-17 0,-62 -49,-130 -95,-173 -12,-11 -41,-24 -51,-28 z m -8,28 h -1 v 0 z m 0,0 z m 1,0 z" id="path214"/>
    <path class="fil19" d="m 3831,12588 c 2,-4 3,-7 5,-10 0,-1 1,-2 2,-2 2,-1 4,1 6,2 6,3 12,9 18,15 35,39 72,117 72,154 0,10 8,17 17,17 10,0 17,-7 17,-17 0,-25 -14,-67 -34,-105 -20,-39 -46,-75 -68,-90 -14,-10 -28,-12 -40,-8 -10,4 -21,14 -27,35 -3,9 2,18 11,21 9,2 19,-3 21,-12 z" id="path216"/>
    <path class="fil19" d="m 2140,12801 c -2,-2 -9,-10 -14,-17 -17,-23 -38,-59 -50,-89 -4,-9 -7,-18 -9,-25 0,-2 0,-5 -1,-7 7,0 14,-6 15,-13 2,-9 -4,-18 -13,-20 -11,-3 -19,0 -24,4 -6,4 -10,10 -12,19 -1,8 0,18 3,29 12,42 52,111 75,137 10,11 21,15 26,15 9,0 17,-8 17,-17 0,-8 -5,-15 -13,-16 z" id="path218"/>
    <path class="fil19" d="m 2227,12682 c 4,6 11,18 17,29 25,44 58,111 64,126 3,9 13,13 21,10 9,-3 14,-13 11,-22 -6,-15 -41,-85 -66,-130 -12,-21 -22,-37 -27,-41 -7,-7 -13,-6 -17,-5 -5,1 -13,5 -13,18 0,7 4,13 10,15 z" id="path220"/>
    <path class="fil19" d="m 2643,8517 c 2,26 19,47 43,64 31,21 74,36 103,49 9,4 19,1 23,-8 4,-8 0,-18 -9,-22 -27,-13 -68,-27 -98,-47 -15,-10 -27,-22 -29,-38 0,-10 -8,-17 -18,-16 -9,1 -16,9 -15,18 z" id="path222"/>
    <path class="fil19" d="m 2740,8392 c 0,0 1,-1 1,-2 2,-9 -4,-18 -13,-20 -11,-2 -17,2 -20,6 -4,4 -8,12 -2,24 10,22 68,85 79,95 6,6 17,6 24,-1 6,-7 6,-18 -1,-24 -9,-8 -53,-55 -68,-78 z" id="path224"/>
    <path class="fil19" d="m 2277,8553 c -9,-3 -18,-3 -25,-1 -10,3 -19,11 -25,23 -9,16 -13,40 -14,63 -1,23 2,44 5,53 3,8 13,13 21,10 9,-3 14,-13 11,-22 -5,-11 -6,-51 3,-78 1,-4 3,-8 5,-12 2,-3 4,-5 8,-4 9,3 19,-2 22,-11 3,-8 -2,-18 -11,-21 z" id="path226"/>
    <path class="fil19" d="m 2391,8618 c -7,32 -2,70 -2,102 0,9 8,17 17,17 10,0 17,-8 17,-17 0,-30 -6,-65 1,-94 2,-9 -3,-18 -12,-20 -9,-2 -19,3 -21,12 z" id="path228"/>
    <path class="fil19" d="m 1760,6680 c 5,-3 8,-7 9,-13 1,-9 -6,-18 -16,-19 -13,-1 -19,3 -22,6 -4,3 -6,7 -7,13 0,2 0,6 1,11 1,4 3,12 3,22 0,163 -19,327 -15,490 14,505 157,1053 657,1307 44,23 128,87 208,129 58,30 115,48 155,35 50,-15 94,-67 122,-132 42,-95 53,-216 17,-282 -74,-139 -129,-170 -189,-200 -37,-18 -77,-36 -126,-82 -9,-7 -16,-22 -24,-40 -12,-31 -23,-75 -33,-124 -40,-199 -63,-502 -83,-607 -37,-193 -60,-444 -127,-665 -46,-150 -111,-286 -213,-381 -7,-6 -18,-6 -24,1 -7,7 -6,18 1,24 97,91 160,222 203,366 67,219 90,469 127,661 19,105 42,408 82,607 11,53 23,98 36,131 9,24 20,42 31,52 53,49 95,68 135,88 56,27 106,57 174,185 32,59 20,168 -18,252 -24,55 -59,101 -101,114 -13,4 -27,3 -43,1 -26,-6 -56,-18 -86,-34 -80,-42 -164,-106 -209,-129 -488,-248 -625,-784 -638,-1278 -4,-163 15,-326 15,-489 0,-7 -1,-14 -2,-20 z" id="path296"/>
    <path class="fil19" d="m 2531,7829 c 1,0 2,-2 2,-4 3,-3 6,-8 10,-13 16,-16 41,-38 72,-62 126,-96 343,-234 392,-294 143,-170 188,-401 270,-600 65,-160 105,-328 153,-492 13,-47 39,-199 44,-223 0,-1 0,-2 0,-3 2,-10 -4,-15 -4,-15 -1,0 -25,-10 -29,11 -4,18 -30,173 -44,221 -48,162 -87,330 -152,488 -80,196 -124,424 -264,592 -56,67 -328,234 -435,327 -20,18 -35,34 -42,46 -5,8 -6,15 -6,21 0,9 7,17 17,17 9,0 16,-7 16,-17 z m 910,-1688 c 0,-2 -1,-5 0,-7 -1,3 0,5 0,7 z" id="path298"/>
    <path class="fil19" d="m 2195,8336 c -16,20 -27,50 -34,83 -11,47 -14,100 -14,134 0,66 41,110 101,137 82,38 201,40 278,21 20,-4 36,-18 50,-31 6,-6 11,-11 16,-14 2,-2 4,-4 6,-4 10,0 17,-7 17,-17 0,-9 -7,-17 -17,-17 -12,0 -25,8 -38,20 -12,11 -25,26 -42,30 -71,17 -180,16 -256,-19 -47,-21 -81,-54 -81,-106 0,-32 3,-82 13,-126 6,-28 15,-54 28,-70 5,-7 4,-18 -3,-24 -8,-5 -18,-4 -24,3 z" id="path300"/>
    <path class="fil19" d="m 3655,7456 c 1,-2 2,-3 3,-5 0,-1 1,-3 1,-4 v -1 c 0,0 1,0 1,0 h -1 c 2,-4 2,-6 2,-6 0,-2 -24,-28 -33,-7 -2,4 -9,23 -15,30 -74,93 -134,220 -206,321 -109,152 -265,241 -408,358 -7,6 -23,12 -41,20 -31,13 -69,28 -93,44 -13,9 -22,19 -27,28 -4,9 -5,18 -1,27 3,9 13,14 21,11 9,-4 14,-13 10,-22 0,-1 1,-1 1,-2 1,-1 2,-3 4,-4 6,-7 17,-13 28,-19 42,-23 102,-42 119,-56 146,-119 304,-211 415,-366 72,-100 130,-226 205,-318 5,-7 11,-20 15,-29 z" id="path302"/>
    <g id="g346">
      <path class="fil19" d="m 1311,9286 v -3 c 2,-37 6,-95 5,-122 -10,-175 -26,-347 -49,-520 -57,-422 -114,-847 -196,-1265 -108,-552 -226,-1293 102,-1795 46,-69 117,-170 202,-231 50,-36 105,-58 162,-43 74,19 142,32 172,109 6,15 20,70 27,82 6,11 14,16 19,18 6,2 13,3 18,2 6,-1 31,-8 31,-45 0,-12 -6,-22 -15,-28 -5,-19 -14,-46 -17,-54 -39,-99 -121,-125 -218,-150 -76,-19 -151,6 -219,54 -91,66 -170,174 -218,249 -338,516 -224,1277 -113,1845 82,417 139,840 195,1261 23,171 39,342 49,515 1,26 -3,80 -5,115 -1,21 0,36 2,42 5,20 19,25 27,26 6,1 32,3 44,-31 4,-11 1,-22 -5,-31 z" id="path344"/>
    </g>
    <path class="fil19" d="m 998,7033 c 0,-1 -2,-6 -2,-9 -2,-13 -2,-31 -1,-55 6,-97 37,-276 80,-474 65,-299 158,-645 233,-832 19,-47 37,-84 52,-107 8,-12 15,-20 21,-22 9,-3 15,-12 12,-21 -3,-9 -12,-14 -21,-12 -9,3 -20,10 -31,23 -19,24 -41,67 -65,126 -75,189 -168,536 -234,837 -43,201 -75,382 -81,480 -2,32 -1,55 3,70 2,9 6,16 10,20 7,6 18,6 24,-1 6,-7 6,-17 0,-23 z" id="path348"/>
    <path class="fil19" d="m 1550,5935 c -87,88 -167,263 -232,461 -96,294 -157,639 -157,817 0,10 7,17 17,17 9,0 17,-7 17,-17 0,-176 61,-516 155,-807 63,-192 140,-362 224,-447 7,-7 7,-18 0,-24 -7,-7 -17,-7 -24,0 z" id="path350"/>
    <path class="fil19" d="m 1309,7280 c -9,27 -32,91 -41,117 -3,9 2,19 11,21 9,3 19,-1 22,-10 11,-35 44,-123 47,-136 2,-14 -8,-19 -11,-20 -4,-2 -8,-2 -14,0 -1,1 -3,2 -6,5 -1,1 -3,5 -6,11 -2,3 -3,8 -2,12 z" id="path352"/>
    <path class="fil19" d="m 947,6457 c -1,-3 -3,-5 -5,-7 -9,-5 -14,-7 -15,-7 -9,-1 -14,3 -16,7 -2,1 -8,13 3,23 9,9 84,65 110,90 66,61 115,136 161,212 132,221 254,448 329,692 2,9 12,14 21,11 9,-2 14,-12 11,-21 -76,-247 -198,-476 -332,-700 -47,-78 -99,-156 -167,-219 -20,-19 -76,-63 -100,-81 z" id="path354"/>
    <path class="fil19" d="m 1155,6049 c -2,-26 -1,-45 2,-57 1,-4 2,-7 4,-9 0,-1 0,-2 1,-2 1,-1 3,0 5,1 3,1 6,3 9,6 10,7 22,19 34,35 126,151 349,619 357,657 2,9 11,15 20,13 9,-2 15,-11 13,-20 -8,-39 -235,-517 -364,-672 -18,-22 -34,-37 -48,-46 -13,-8 -25,-10 -34,-7 -11,2 -20,10 -27,26 -5,15 -8,40 -6,76 0,10 8,17 17,16 10,0 17,-8 17,-17 z" id="path356"/>
    <path class="fil19" d="m 1345,5729 c 16,7 32,20 46,37 24,28 46,66 66,109 52,109 91,245 122,302 4,8 15,11 23,7 8,-4 11,-15 7,-23 -31,-57 -70,-192 -121,-301 -37,-77 -81,-141 -130,-162 -9,-4 -19,1 -22,9 -4,9 0,19 9,22 z" id="path358"/>
    <path class="fil19" d="m 3471,3829 c -1,-22 -12,-41 -29,-57 -22,-22 -57,-37 -96,-44 -98,-18 -215,19 -215,130 0,60 21,100 52,125 46,38 116,41 176,16 66,-28 119,-89 112,-170 z m -34,2 c 5,66 -38,114 -91,136 -48,20 -104,20 -142,-10 -24,-20 -39,-52 -39,-99 0,-42 23,-69 55,-85 35,-16 80,-19 120,-12 27,5 51,14 69,28 16,11 27,25 28,42 z" id="path360"/>
    <path class="fil19" d="m 2413,3724 c -42,0 -97,-6 -147,2 -55,8 -104,32 -127,94 -9,24 -6,50 6,76 16,35 49,70 91,96 74,46 173,64 245,18 32,-20 58,-52 75,-100 39,-109 -50,-186 -143,-186 z m 0,34 c 71,0 141,57 111,141 -14,39 -35,66 -61,83 -62,39 -146,20 -209,-19 -36,-22 -65,-51 -79,-81 -7,-17 -10,-35 -4,-51 18,-48 57,-65 100,-72 48,-7 101,-1 142,-1 z" id="path362"/>
    <path class="fil19" d="m 2186,3665 c 5,-35 27,-55 55,-69 32,-15 72,-23 108,-32 9,-2 14,-11 12,-20 -2,-9 -11,-15 -20,-13 -39,9 -81,18 -115,35 -39,19 -67,47 -73,94 -1,10 5,18 14,19 10,2 18,-5 19,-14 z" id="path364"/>
    <path class="fil19" d="m 3323,3569 c 11,-1 22,7 33,16 22,17 43,43 57,55 7,6 17,6 24,-1 6,-7 6,-18 -1,-24 -14,-13 -36,-39 -59,-57 -19,-15 -39,-24 -57,-23 -9,1 -16,9 -15,19 0,9 9,16 18,15 z" id="path366"/>
    <path class="fil19" d="m 3475,3374 c 4,8 9,21 6,37 -1,10 5,18 14,20 10,1 18,-5 20,-14 6,-41 -8,-64 -21,-76 -8,-7 -17,-9 -22,-9 -11,-1 -18,5 -21,13 -2,5 -3,12 3,22 4,7 13,10 21,7 z" id="path368"/>
    <path class="fil19" d="m 3448,3389 c 0,0 1,1 1,1 1,1 2,2 3,3 3,4 5,8 7,13 11,22 18,51 24,62 4,9 14,12 22,8 9,-4 12,-14 8,-22 -6,-14 -15,-53 -30,-75 -9,-15 -22,-24 -34,-24 -10,0 -18,7 -18,17 0,9 7,17 17,17 z" id="path370"/>
    <path class="fil19" d="m 1842,3367 c 0,1 1,1 1,2 2,3 3,6 5,11 5,18 3,16 -1,33 -2,9 4,18 13,20 10,2 19,-4 21,-13 5,-25 7,-23 -1,-50 -8,-28 -23,-36 -36,-37 -13,-1 -27,7 -38,23 -11,14 -19,36 -20,56 0,15 4,29 13,40 9,11 25,19 49,19 9,0 17,-8 16,-17 0,-9 -7,-17 -17,-17 -11,0 -18,-2 -22,-7 -4,-5 -5,-11 -5,-17 0,-13 6,-28 13,-37 3,-4 7,-7 9,-9 z" id="path372"/>
    <path class="fil19" d="m 1901,3362 c -21,8 -39,29 -53,56 -18,36 -30,81 -33,106 -2,9 5,18 14,19 10,1 18,-5 19,-15 3,-22 14,-62 30,-94 10,-19 21,-35 35,-41 9,-3 13,-13 10,-22 -3,-8 -13,-13 -22,-9 z" id="path374"/>
    <path class="fil19" d="m 1948,5113 c 0,2 -1,4 -1,6 -2,11 -4,24 -2,32 7,36 15,63 40,91 28,32 65,36 104,33 31,-2 63,-8 89,2 9,4 12,9 15,13 7,8 15,15 40,15 9,0 17,-8 17,-17 0,-10 -8,-17 -17,-17 -6,0 -9,-1 -12,-2 -4,-2 -6,-6 -9,-9 -5,-5 -11,-10 -21,-14 -31,-13 -68,-7 -104,-5 -28,2 -56,2 -76,-21 -21,-23 -27,-47 -33,-76 -1,-4 1,-10 2,-15 2,-11 3,-21 3,-28 -1,-6 -4,-12 -7,-16 -4,-4 -10,-7 -19,-7 -15,0 -31,7 -47,15 -16,9 -33,19 -53,12 -21,-7 -32,-25 -39,-44 -8,-24 -10,-50 -14,-71 -2,-6 -4,-15 -7,-23 0,-3 -1,-6 -2,-9 3,-3 6,-6 7,-10 2,-9 -4,-18 -13,-20 -10,-2 -16,0 -21,4 -4,4 -7,9 -7,16 -1,6 0,14 2,23 3,9 6,19 7,25 4,22 7,51 16,76 10,29 28,54 60,65 26,9 48,2 70,-8 11,-6 21,-13 32,-16 z" id="path376"/>
    <path class="fil19" d="m 3585,4981 c -8,4 -12,14 -8,23 1,1 1,1 2,2 -3,7 -5,13 -7,18 -18,46 -45,90 -78,128 -15,17 -37,48 -63,72 -14,13 -30,25 -45,28 -7,2 -12,2 -16,1 -3,-1 -5,-3 -7,-6 -3,-3 -6,-7 -9,-11 -4,-5 -9,-13 -13,-17 -4,-3 -7,-5 -10,-6 -5,-1 -10,0 -14,2 -3,1 -6,4 -8,8 -14,26 -23,40 -36,47 -9,5 -19,6 -33,6 -17,0 -38,-1 -66,-1 -9,0 -17,7 -17,17 0,9 8,17 17,17 34,0 58,2 77,0 15,0 27,-3 38,-9 13,-7 25,-20 39,-42 12,15 20,23 31,27 8,3 18,4 33,1 21,-5 43,-19 63,-38 26,-24 49,-56 64,-74 36,-40 65,-88 85,-137 7,-18 20,-53 20,-53 3,-9 -1,-18 -9,-22 -8,-3 -18,0 -22,8 z" id="path378"/>
    <path class="fil19" d="m 3052,3916 c 0,-7 -4,-13 -10,-15 -42,-19 -79,-40 -145,-46 -55,-6 -123,14 -170,42 -55,32 -76,64 -77,93 -1,19 6,37 20,53 19,20 49,38 86,52 59,21 134,30 196,22 61,-8 110,-34 126,-78 11,-29 8,-67 -18,-116 -2,-3 -5,-6 -8,-7 z m -24,16 c -39,-17 -73,-37 -134,-44 -49,-5 -108,14 -150,38 -21,13 -37,25 -47,37 -9,10 -13,19 -14,28 0,14 8,26 21,37 15,14 38,25 64,35 67,24 157,31 219,11 27,-8 49,-22 58,-44 10,-23 6,-52 -15,-91 -1,-2 -2,-5 -2,-7 z" id="path380"/>
    <path class="fil19" d="m 3081,4042 c -3,-5 -8,-8 -15,-8 -9,0 -17,7 -17,17 0,3 1,8 5,12 4,4 13,11 26,19 53,33 186,112 172,275 -21,258 -218,378 -410,385 -129,5 -255,-40 -327,-128 -77,-95 -89,-239 24,-423 17,-29 32,-57 49,-79 24,-31 53,-50 105,-47 9,1 17,-7 18,-16 0,-9 -7,-17 -16,-18 -67,-4 -104,21 -133,60 -19,24 -34,52 -52,83 -124,201 -106,358 -22,461 79,96 216,146 355,141 208,-7 420,-137 443,-416 15,-181 -129,-270 -188,-307 -7,-4 -14,-9 -17,-11 z" id="path382"/>
    <path class="fil19" d="m 2971,4116 c 49,94 72,253 53,394 -12,92 -41,176 -95,227 -6,6 -7,17 0,24 6,7 17,7 24,0 58,-55 92,-146 105,-247 19,-147 -6,-315 -57,-414 -4,-8 -14,-12 -23,-7 -8,4 -11,14 -7,23 z" id="path384"/>
    <path class="fil19" d="m 2682,4982 c -3,-3 -4,-9 -6,-15 -2,-10 -3,-21 -4,-34 -3,-42 1,-94 -5,-120 -3,-15 -7,-71 -12,-82 -5,-13 -15,-14 -20,-13 -3,1 -11,3 -15,15 -2,6 0,13 4,17 2,17 7,59 10,70 6,30 0,92 6,136 3,23 10,42 20,52 4,4 14,8 28,10 39,6 119,4 133,4 61,0 107,-2 142,-9 39,-8 66,-23 84,-46 15,-18 24,-42 30,-73 9,-43 11,-101 13,-180 0,-10 -8,-17 -17,-18 -9,0 -17,8 -17,17 -2,64 -3,114 -9,153 -4,36 -12,61 -26,80 -14,17 -35,27 -64,33 -34,7 -78,9 -136,9 -12,0 -73,2 -113,-2 -11,-1 -23,-3 -26,-4 z" id="path386"/>
    <path class="fil19" d="m 2877,4756 c -26,46 -41,175 -41,229 0,10 8,17 17,17 9,0 17,-7 17,-17 0,-50 13,-170 37,-212 4,-9 2,-19 -7,-24 -8,-4 -18,-1 -23,7 z" id="path388"/>
    <path class="fil19" d="m 3449,3896 c 38,-62 -80,-88 -123,-75 -144,45 -132,194 27,157 69,-16 79,-78 84,-78 m 12,-4 z" id="path390"/>
    <path class="fil19" d="m 2534,3909 c 20,-40 -41,-81 -76,-85 -74,-8 -186,57 -165,138 34,127 229,33 229,-72 m 12,19 z" id="path392"/>
    <path class="fil19" d="m 2749,3924 c -54,10 -106,99 -42,139 88,54 305,69 351,-37 43,-102 -133,-145 -203,-145 -26,0 -87,5 -87,37 m -19,6 z" id="path394"/>
  </g>
</svg>