<?xml version="1.0" encoding="utf-8"?>
<svg viewBox="6900 12200 100 300" width="48.153mm" height="144.458mm" style="clip-rule:evenodd;fill-rule:evenodd;image-rendering:optimizeQuality;shape-rendering:geometricPrecision;text-rendering:geometricPrecision" xmlns="http://www.w3.org/2000/svg">
  <defs>
    <style type="text/css" id="style2">
   
    .fil5 {fill:#000300}
    .fil14 {fill:#007020}
    .fil18 {fill:#008DC6}
    .fil12 {fill:#009429}
    .fil16 {fill:#00B3EC}
    .fil19 {fill:#1A1719}
    .fil24 {fill:#407898}
    .fil21 {fill:#4D94BB}
    .fil15 {fill:#68B012}
    .fil13 {fill:#78B409}
    .fil8 {fill:#883223}
    .fil23 {fill:#986B98}
    .fil6 {fill:#9A3727}
    .fil25 {fill:#9E71A8}
    .fil0 {fill:#A1A3A5}
    .fil17 {fill:#A7DFF7}
    .fil20 {fill:#B192C2}
    .fil22 {fill:#C2A7CF}
    .fil3 {fill:#C6826A}
    .fil7 {fill:#D54835}
    .fil11 {fill:#DD943C}
    .fil1 {fill:#E30011}
    .fil4 {fill:#F7B8A7}
    .fil9 {fill:#FCB200}
    .fil10 {fill:#FFE040}
    .fil2 {fill:white}
    .fil26 {fill:#2B2A29;fill-rule:nonzero}
   
  </style>
  </defs>
  <line style="stroke-width: 2px; stroke: rgb(176, 176, 176);" x1="6800" y1="12208.576" x2="6900" y2="12208.576"/>
  <line style="stroke-width: 2px; stroke: rgb(176, 176, 176);" x1="6800" y1="12233.091" x2="6900" y2="12233.091"/>
  <line style="stroke-width: 2px; stroke: rgb(176, 176, 176);" x1="6800" y1="12256.315" x2="6900" y2="12256.315"/>
  <line style="stroke-width: 2px; stroke: rgb(176, 176, 176);" x1="6800" y1="12280.83" x2="6900" y2="12280.83"/>
  <line style="stroke-width: 2px; stroke: rgb(176, 176, 176);" x1="6800" y1="12305" x2="6900" y2="12305"/>
  <line style="stroke-width: 2px; stroke: rgb(176, 176, 176);" x1="6800" y1="12329.515" x2="6900" y2="12329.515"/>
  <line style="stroke-width: 2px; stroke: rgb(176, 176, 176);" x1="6800" y1="12352.739" x2="6900" y2="12352.739"/>
  <line style="stroke-width: 2px; stroke: rgb(176, 176, 176);" x1="6800" y1="12377.254" x2="6900" y2="12377.254"/>
  <line style="stroke-width: 2px; stroke: rgb(176, 176, 176);" x1="6800" y1="12402" x2="6900" y2="12402"/>
  <line style="stroke-width: 2px; stroke: rgb(176, 176, 176);" x1="6800" y1="12426.515" x2="6900" y2="12426.515"/>
  <line style="stroke-width: 2px; stroke: rgb(176, 176, 176);" x1="6800" y1="12449.739" x2="6900" y2="12449.739"/>
  <line style="stroke-width: 2px; stroke: rgb(176, 176, 176);" x1="6800" y1="12474.254" x2="6900" y2="12474.254"/>
  <line style="stroke-width: 2px; stroke: rgb(176, 176, 176);" x1="6900" y1="12208.576" x2="7000" y2="12208.576"/>
  <line style="stroke-width: 2px; stroke: rgb(176, 176, 176);" x1="6900" y1="12233.091" x2="7000" y2="12233.091"/>
  <line style="stroke-width: 2px; stroke: rgb(176, 176, 176);" x1="6900" y1="12256.315" x2="7000" y2="12256.315"/>
  <line style="stroke-width: 2px; stroke: rgb(176, 176, 176);" x1="6900" y1="12280.83" x2="7000" y2="12280.83"/>
  <line style="stroke-width: 2px; stroke: rgb(176, 176, 176);" x1="6900" y1="12305" x2="7000" y2="12305"/>
  <line style="stroke-width: 2px; stroke: rgb(176, 176, 176);" x1="6900" y1="12329.515" x2="7000" y2="12329.515"/>
  <line style="stroke-width: 2px; stroke: rgb(176, 176, 176);" x1="6900" y1="12352.739" x2="7000" y2="12352.739"/>
  <line style="stroke-width: 2px; stroke: rgb(176, 176, 176);" x1="6900" y1="12377.254" x2="7000" y2="12377.254"/>
  <line style="stroke-width: 2px; stroke: rgb(176, 176, 176);" x1="6900" y1="12402" x2="7000" y2="12402"/>
  <line style="stroke-width: 2px; stroke: rgb(176, 176, 176);" x1="6900" y1="12426.515" x2="7000" y2="12426.515"/>
  <line style="stroke-width: 2px; stroke: rgb(176, 176, 176);" x1="6900" y1="12449.739" x2="7000" y2="12449.739"/>
  <line style="stroke-width: 2px; stroke: rgb(176, 176, 176);" x1="6900" y1="12474.254" x2="7000" y2="12474.254"/>
  <g id="_876252480" transform="matrix(0.02272, 0, 0, 0.02272, 6542.258887, 12209.433776)">
    <g id="g609">
      <path class="fil3" d="m 16754,5364 c 21,-75 -343,-117 -366,-94 -100,100 -43,215 41,299 7,7 -61,40 -70,50 -173,173 -329,357 -372,616 -35,207 -41,503 41,694 142,332 343,365 408,816 38,270 32,579 -34,843 -44,175 -153,408 -116,591 39,195 150,340 211,524 40,120 -4,383 -34,503 -46,184 -34,721 -34,938 0,260 41,519 41,776 0,25 9,244 6,244 -7,0 -19,-30 -27,-34 -51,-25 -122,92 -163,116 -119,71 -376,275 -286,455 44,88 516,-33 653,-13 268,38 439,-24 642,10 92,15 244,2 337,17 68,11 138,-28 204,-20 386,45 789,87 1156,-102 261,-135 314,-595 367,-809 40,-158 81,-659 21,-810 -56,-139 -101,-369 -149,-514 -79,-237 -188,-381 -218,-628 -18,-140 -25,-468 -59,-603 -53,-211 -131,-283 -200,-488 -157,-472 -580,-912 -483,-1445 85,-467 533,-860 340,-1374 -27,-73 -57,-187 -108,-238 -61,-60 233,-256 108,-380 -100,-101 -239,-26 -312,47 -20,20 -203,17 -225,21 -174,26 -305,4 -482,-18 -98,-12 -213,-16 -313,-30 -122,-17 -230,34 -347,34 m -178,6 z" id="path573"/>
      <path class="fil4" d="m 16716,5439 c 16,-41 -140,77 -167,104 -106,105 -233,177 -295,320 -78,183 210,381 331,466 129,90 274,94 424,109 523,52 845,-139 1015,-647 55,-166 -68,-318 -223,-357 -216,-54 -611,-27 -833,10 -100,17 -226,47 -326,47 -8,0 -36,-4 -36,5 m 110,-57 z" id="path575"/>
      <path class="fil4" d="m 17985,8722 c 0,0 -4,-447 -163,-639 -430,-515 -1118,-14 -1211,512 -72,411 178,620 413,914 80,100 208,195 250,322 75,224 -273,199 -384,187 -46,-5 -117,-29 -155,-41 -12,-4 -31,-21 -31,-21 0,0 26,71 26,109 0,76 5,151 5,227 0,224 85,432 176,637 437,986 1604,444 1237,-688 -66,-203 -137,-366 -187,-564 -10,-43 -5,-88 -15,-130 -5,-21 -13,-192 -31,-202 -65,-32 -145,6 -212,6 -190,0 -573,-23 -631,-259 -23,-89 55,-171 124,-202 104,-47 256,-85 411,-90 254,-9 378,-78 378,-78 z" id="path577"/>
      <path class="fil2" d="m 17415,5784 c -54,3 -147,68 -114,135 28,56 161,80 217,68 34,-7 182,-60 152,-119 -9,-18 -35,-19 -51,-30 -41,-27 -107,-61 -160,-47 m -44,-7 z" id="path579"/>
      <path class="fil2" d="m 16625,5720 c 7,-7 32,7 43,8 58,8 104,54 44,101 -10,9 -25,27 -38,30 -13,3 -76,-2 -81,-15 -6,-19 29,-54 36,-68 6,-12 11,-49 15,-42 m -19,-14 z" id="path581"/>
      <path class="fil2" d="m 16529,6905 c -4,-29 -12,40 -13,49 -4,36 2,54 36,74 76,46 286,107 318,-21 7,-28 22,-98 9,-125 -11,-22 -77,-5 -92,-3 -90,10 -179,0 -265,0 m 7,26 z" id="path583"/>
      <path class="fil6" d="m 18695,8589 c -10,-121 102,-308 134,-423 80,-289 212,-1168 404,-1360 220,-220 745,-112 779,259 34,377 -30,1178 -95,1570 -24,141 -80,280 -95,422 -31,278 -39,530 -102,802 -67,289 -167,577 -225,864 -20,103 -49,204 -74,306 -9,36 -34,81 -34,115 0,13 -9,45 -14,34 -13,-26 13,-103 7,-136 -20,-96 -60,-184 -89,-278 -71,-237 -172,-487 -212,-730 -45,-268 -80,-620 -189,-875 -38,-90 -110,-570 -195,-570 z" id="path585"/>
      <path class="fil7" d="m 16581,5956 c -18,-37 -74,-11 -112,8 -72,36 -140,98 -197,166 -151,179 -169,537 94,701 73,46 175,73 260,83 52,6 136,-26 188,-39 89,-23 167,-51 249,-92 309,-154 250,-534 72,-728 -20,-21 -67,17 -83,28 -49,32 -194,74 -252,67 -68,-9 -152,-13 -193,-75 -6,-9 -62,-146 -28,-146 m 2,27 z" id="path587"/>
      <g id="g607">
        <path class="fil20" d="m 16684,4175 c 18,129 -31,300 -15,618 2,51 -17,109 -33,215 -35,244 118,224 251,268 171,57 295,6 463,30 103,15 190,80 296,69 76,-9 138,-52 213,-61 70,-9 154,-4 220,-30 132,-53 500,-87 417,-335 -45,-136 -4,-821 -34,-1092 -16,-139 -60,-1262 -166,-2301 -33,-328 -34,-641 -97,-904 -88,-367 -585,-613 -872,-585 -626,61 -1024,-55 -1001,251 8,113 341,83 393,187 74,149 49,837 39,1266 -2,81 -87,2302 -74,2404 z" id="path589"/>
        <path class="fil21" d="m 16755,1562 c 15,-44 -6,74 -9,93 -11,83 -15,163 -15,247 0,163 31,327 31,488 0,68 -42,178 -21,242 15,46 102,48 137,63 165,71 161,93 341,73 294,-32 713,143 956,-100 50,-50 137,-58 184,-120 53,-71 10,-190 5,-268 -15,-217 -50,-431 -74,-646 -6,-57 23,-198 -21,-242 -8,-8 -139,107 -152,116 -90,66 -213,133 -326,147 -84,11 -174,-18 -257,-31 -54,-9 -113,0 -168,-6 -216,-24 -386,-84 -604,-84 m -7,28 z" id="path591"/>
        <path class="fil21" d="m 18470,4011 c -45,-10 -650,93 -731,120 -119,40 -221,-11 -321,-26 -157,-22 -317,52 -474,52 -42,0 -134,-65 -166,-97 -5,-5 -60,-48 -64,-38 -65,129 -21,355 -32,493 -9,103 -73,536 -26,631 35,69 101,179 250,190 226,17 567,-91 679,-103 212,-24 669,65 855,-74 95,-71 96,-247 89,-470 -9,-258 -35,-572 -35,-712 m -24,34 z" id="path593"/>
        <path class="fil22" d="m 16844,262 c -118,30 117,147 149,155 57,14 183,59 243,38 10,-4 86,-58 99,-46 45,45 349,168 425,175 76,7 212,-7 212,-107 0,-316 -746,-311 -949,-311 -81,0 -411,140 -356,167 m 177,-71 z" id="path595"/>
        <path class="fil23" d="m 16726,2894 c 0,-50 -33,-1113 15,-1799 24,-345 69,-595 149,-573 398,110 472,603 401,772 -156,370 52,2639 89,2791 12,46 -216,96 -395,68 -116,-19 -197,-99 -227,-139 -47,-63 -32,-744 -32,-1120 z" id="path597"/>
        <path class="fil24" d="m 17240,1570 c -50,-3 -125,4 -179,-14 -62,-21 -127,-56 -195,-45 -14,3 -123,0 -123,21 0,135 -9,370 -31,503 -14,87 12,181 4,270 -9,97 -38,226 6,314 18,36 105,62 144,72 132,33 134,48 287,48 52,0 137,10 154,-51 16,-57 3,-131 -3,-188 -11,-111 -15,-222 -28,-332 -23,-197 -24,-404 -24,-602 m -12,4 z" id="path599"/>
        <path class="fil24" d="m 18251,1523 c -88,223 -115,597 -115,840 0,61 -8,229 53,270 70,46 98,-47 127,-90 80,-120 23,-348 0,-476 -30,-170 -37,-379 -37,-544 m -28,0 z" id="path601"/>
        <path class="fil24" d="m 16815,5018 c 39,-97 -181,-67 -141,136 13,66 270,121 327,137 395,113 1290,221 1511,-220 62,-125 -472,33 -502,38 -285,47 -585,-53 -858,15 -105,26 -201,-37 -296,-61 -27,-7 -127,-68 -121,-68 m 80,23 z" id="path603"/>
        <path class="fil25" d="m 18385,2562 c -27,-48 -128,-17 -147,26 -85,199 -114,471 -167,683 -52,209 -1,768 -1,768 l 312,-64 c 0,0 47,-199 -63,-572 -90,-305 65,-480 118,-637 28,-85 -52,-145 -52,-204 z" id="path605"/>
      </g>
    </g>
    <g id="g705">
      <path class="fil19" d="m 16935,77 c -136,35 -230,7 -400,35 -104,18 -171,43 -209,70 -30,21 -45,46 -49,70 -5,35 11,73 50,109 50,46 141,91 248,125 158,49 352,74 503,46 18,-4 30,-22 27,-40 -4,-19 -22,-31 -40,-27 -141,26 -322,2 -470,-44 -96,-30 -177,-69 -222,-110 -18,-17 -31,-32 -29,-48 2,-9 10,-17 22,-26 32,-23 91,-43 180,-58 173,-29 268,-1 406,-37 18,-4 29,-23 24,-41 -4,-18 -23,-29 -41,-24 z" id="path611"/>
      <path class="fil19" d="m 16900,149 c 357,-72 874,-86 1167,241 15,18 29,59 44,118 26,99 52,247 77,428 135,977 254,2930 287,3716 8,192 12,312 8,329 -48,237 -208,306 -371,328 -116,16 -234,9 -319,19 -65,8 -154,-13 -257,-33 -165,-32 -364,-62 -559,10 -22,8 -53,5 -87,-4 -58,-15 -123,-49 -173,-93 -45,-40 -78,-88 -75,-138 3,-32 21,-64 59,-95 15,-11 17,-33 5,-47 -11,-15 -33,-17 -47,-5 -57,45 -81,94 -84,142 -6,69 35,138 97,194 58,51 134,90 201,108 50,13 95,13 128,1 182,-67 367,-36 522,-6 111,21 207,42 278,34 85,-10 203,-4 321,-20 188,-25 372,-106 428,-382 4,-17 1,-144 -7,-345 -33,-787 -152,-2744 -287,-3722 -30,-216 -61,-385 -92,-484 -15,-48 -32,-81 -47,-98 C 17809,-1 17264,6 16886,82 c -18,4 -30,22 -26,40 4,19 22,31 40,27 z" id="path613"/>
      <path class="fil19" d="m 16944,4966 c -4,-6 -11,-8 -18,-5 -11,3 -14,10 -15,12 -2,5 -1,10 1,14 1,3 4,7 9,9 2,1 7,2 15,3 18,2 54,1 70,1 h 236 c 9,0 17,-8 17,-17 0,-10 -8,-17 -17,-17 h -236 c -14,0 -44,0 -62,0 z" id="path615"/>
      <path class="fil19" d="m 18391,4977 c -40,107 -146,182 -253,230 -8,4 -12,14 -8,23 4,8 14,12 22,8 115,-52 228,-134 271,-249 3,-9 -1,-19 -10,-22 -9,-4 -19,1 -22,10 z" id="path617"/>
      <path class="fil19" d="m 16765,5049 c -22,-2 -35,5 -42,15 -6,10 -8,23 -5,39 6,34 37,82 50,95 52,53 112,59 183,64 10,1 18,-6 18,-16 1,-9 -6,-17 -15,-18 -63,-4 -116,-7 -161,-53 -11,-12 -36,-50 -42,-79 -1,-5 -2,-9 0,-12 1,-1 1,-1 2,-1 3,-1 6,-1 9,-1 9,1 18,-6 18,-15 1,-9 -6,-18 -15,-18 z" id="path619"/>
      <g id="g623">
        <path class="fil19" d="m 16733,2677 c 37,4 76,21 116,38 42,19 84,40 124,50 94,23 198,2 294,8 277,18 476,38 754,-32 49,-12 199,-61 285,-123 41,-30 67,-64 67,-98 0,-10 -8,-17 -17,-17 -9,0 -17,7 -17,17 0,11 -5,22 -13,33 -10,13 -24,25 -40,37 -83,60 -227,106 -273,118 -274,69 -471,49 -743,31 -95,-6 -197,16 -289,-7 -38,-10 -78,-30 -118,-48 -43,-19 -86,-37 -126,-41 -10,-1 -18,6 -19,15 -1,10 6,18 15,19 z" id="path621"/>
      </g>
      <g id="g627">
        <path class="fil19" d="m 16742,1529 c 175,-16 396,28 613,61 222,33 440,54 605,-8 54,-20 186,-88 260,-153 21,-18 37,-36 47,-53 8,-14 11,-27 11,-38 0,-10 -7,-17 -16,-17 -10,0 -18,7 -18,17 0,8 -4,17 -11,27 -8,13 -21,25 -35,38 -71,63 -198,128 -250,147 -160,60 -372,38 -588,6 -220,-33 -443,-77 -622,-61 -9,1 -16,10 -15,19 1,9 9,16 19,15 z" id="path625"/>
      </g>
      <g id="g631">
        <path class="fil19" d="m 16683,4025 c 49,5 90,39 133,71 48,37 98,73 159,80 105,11 196,-32 296,-48 109,-17 219,17 327,24 192,13 382,-49 565,-95 65,-16 140,-18 208,-33 74,-16 138,-46 174,-118 4,-8 0,-18 -8,-22 -8,-5 -19,-1 -23,7 -31,62 -87,86 -150,100 -68,15 -144,17 -209,33 -180,45 -366,107 -554,94 -111,-7 -223,-41 -335,-23 -97,15 -185,58 -287,47 -55,-6 -99,-40 -142,-73 -48,-36 -95,-72 -150,-78 -10,-1 -18,6 -19,15 -1,10 6,18 15,19 z" id="path629"/>
      </g>
      <g id="g635">
        <path class="fil19" d="m 16867,4158 c -75,359 -41,807 -41,1183 0,9 8,17 17,17 9,0 17,-8 17,-17 0,-374 -34,-820 40,-1176 2,-9 -4,-18 -13,-20 -9,-2 -18,4 -20,13 z" id="path633"/>
      </g>
      <g id="g639">
        <path class="fil19" d="m 17161,4137 c -45,118 -39,355 -35,590 3,229 6,455 -46,559 -4,8 -1,19 8,23 8,4 18,1 22,-8 54,-107 53,-340 49,-575 -3,-230 -10,-462 34,-577 3,-9 -1,-19 -10,-22 -9,-3 -19,1 -22,10 z" id="path637"/>
      </g>
      <g id="g643">
        <path class="fil19" d="m 17468,4098 c -11,13 -20,35 -25,64 -7,38 -10,91 -9,151 3,228 54,569 46,680 -2,32 -32,132 -36,202 -1,20 -1,38 3,52 3,11 8,21 14,27 7,7 18,7 24,0 7,-7 7,-17 0,-24 -3,-4 -5,-10 -6,-17 -2,-10 -2,-23 -1,-36 4,-70 34,-169 36,-202 8,-111 -42,-454 -46,-683 -1,-57 1,-107 8,-144 4,-22 10,-39 18,-49 6,-7 5,-18 -2,-24 -7,-6 -18,-5 -24,3 z" id="path641"/>
      </g>
      <g id="g647">
        <path class="fil19" d="m 17695,4163 c 5,8 12,22 14,30 11,66 11,145 15,211 15,216 6,444 32,655 9,71 -2,147 -8,217 l -4,30 c -2,3 -4,7 -4,11 0,9 0,13 1,15 1,8 5,10 7,12 4,2 8,3 11,3 3,0 13,-2 16,-15 3,-10 7,-52 7,-53 6,-72 17,-151 8,-224 -27,-211 -17,-438 -32,-653 -4,-67 -4,-147 -16,-214 -3,-18 -23,-50 -26,-53 -7,-8 -14,-5 -17,-5 -5,2 -11,6 -12,15 0,1 0,5 4,13 1,2 2,4 4,5 z" id="path645"/>
      </g>
      <g id="g651">
        <path class="fil19" d="m 18000,5289 c 2,11 9,12 17,10 8,2 16,1 17,-10 0,0 0,-1 0,-1 v -381 c 0,-259 -26,-528 -62,-786 5,-4 7,-13 4,-20 -4,-8 -14,-12 -23,-8 -8,4 -11,6 -12,8 -3,3 -6,8 -4,21 37,257 63,526 63,785 v 381 c 0,0 0,1 0,1 z" id="path649"/>
      </g>
      <g id="g655">
        <path class="fil19" d="m 18318,5264 c -6,-27 -7,-98 -8,-113 -5,-86 3,-174 0,-260 -10,-273 -35,-542 -60,-813 0,-10 -9,-17 -18,-16 -10,1 -16,9 -15,19 24,271 49,539 59,811 3,87 -5,174 0,261 1,16 3,97 10,123 3,9 7,14 10,16 4,3 7,4 11,4 4,0 9,-2 14,-6 6,-7 6,-18 0,-24 -1,-1 -2,-2 -3,-2 z m -20,1 z m 0,-1 v 0 h 1 z" id="path653"/>
      </g>
      <g id="g659">
        <path class="fil19" d="m 16906,1580 c 2,27 7,94 7,120 v 244 c 0,214 11,462 -16,676 -1,7 -4,16 -6,24 -2,7 -4,15 -3,21 0,9 3,16 10,21 4,5 12,8 24,8 9,0 17,-7 17,-17 0,-9 -8,-16 -17,-17 1,-3 2,-8 3,-12 2,-8 5,-16 6,-24 27,-215 16,-464 16,-680 v -244 c 0,-35 -6,-124 -8,-137 -1,-8 -6,-11 -6,-12 -7,-5 -14,-5 -20,-1 -2,1 -6,4 -8,11 0,1 0,5 0,12 0,3 0,5 1,7 z" id="path657"/>
      </g>
      <g id="g663">
        <path class="fil19" d="m 17162,1621 c 1,4 5,35 6,66 7,179 -3,625 -3,730 0,29 -6,208 5,272 2,17 8,28 12,32 7,6 15,7 23,3 9,-4 12,-14 8,-23 -2,-3 -4,-6 -7,-7 -2,-7 -5,-22 -6,-37 -6,-76 -1,-215 -1,-240 0,-106 10,-552 3,-732 -1,-38 -4,-65 -7,-75 -3,-9 -8,-13 -11,-15 -9,-4 -19,0 -23,8 -3,6 -2,13 1,18 z m 29,1072 c -1,0 -1,0 -1,1 z m -24,-1068 z" id="path661"/>
      </g>
      <g id="g667">
        <path class="fil19" d="m 17494,2700 c -1,-4 -3,-12 -4,-19 -6,-54 -1,-153 0,-168 12,-155 8,-311 8,-466 0,-172 13,-363 15,-399 0,-3 1,-6 1,-6 v 0 c 0,-7 -3,-13 -10,-16 0,0 -23,-5 -24,14 0,0 -1,2 -1,6 -2,36 -15,228 -15,401 0,155 4,309 -8,463 -1,18 -8,152 4,197 7,26 23,32 37,25 8,-4 12,-15 7,-23 -2,-4 -6,-7 -10,-9 z m -12,1 c 0,0 0,0 0,0 z m 31,-1057 c 0,5 -3,7 -4,8 1,-1 2,-2 3,-4 1,-1 1,-3 1,-4 z m 0,-1 z" id="path665"/>
      </g>
      <g id="g671">
        <path class="fil19" d="m 17856,2755 c -3,-9 -8,-27 -11,-45 -16,-107 -16,-319 -16,-356 0,-121 -25,-252 -46,-383 -20,-127 -35,-254 -15,-369 2,-9 -4,-18 -13,-20 -10,-1 -18,5 -20,14 -21,119 -6,249 15,381 20,128 45,258 45,377 0,43 0,319 25,403 4,14 9,23 15,28 4,5 10,7 15,8 6,0 14,-2 22,-9 6,-7 6,-18 0,-24 -5,-4 -10,-6 -16,-5 z" id="path669"/>
      </g>
      <g id="g675">
        <path class="fil19" d="m 18066,2616 c 0,-1 0,-3 0,-4 -8,-71 -9,-309 -8,-344 4,-158 1,-324 -8,-482 -1,-11 -31,-115 -32,-173 0,-4 0,-8 1,-12 0,-3 1,-7 2,-9 9,1 16,-5 18,-14 2,-9 -4,-18 -13,-20 -9,-1 -16,0 -22,3 -5,3 -10,8 -13,15 -5,9 -7,22 -7,37 1,59 31,164 32,175 10,157 12,322 8,479 -1,32 0,230 6,322 1,26 4,44 7,50 4,9 11,12 16,12 4,0 15,-1 20,-16 2,-7 -1,-15 -7,-19 z" id="path673"/>
      </g>
      <g id="g679">
        <path class="fil19" d="m 18275,2627 c -2,-11 -4,-25 -4,-29 v 0 c -1,-75 -10,-148 -16,-222 -21,-233 -11,-467 -32,-701 -1,-14 -32,-175 -33,-210 1,-1 1,-1 1,-2 3,-9 -2,-18 -11,-21 -6,-2 -23,0 -24,21 0,32 32,201 33,215 21,234 12,467 32,701 6,74 16,146 16,219 0,2 3,30 5,43 2,6 3,10 4,11 6,10 15,9 20,8 3,-1 6,-3 9,-7 0,-1 3,-5 3,-15 0,-4 -1,-8 -3,-11 z m -104,-1152 c 3,0 5,0 8,0 -3,0 -6,0 -8,0 z" id="path677"/>
      </g>
      <g id="g683">
        <path class="fil19" d="m 16828,2694 c -1,-4 -2,-12 -3,-20 -9,-90 3,-336 3,-367 0,-79 22,-519 56,-700 5,-26 10,-47 15,-59 1,-3 3,-7 4,-8 7,-4 11,-13 8,-21 -3,-8 -13,-13 -22,-10 -6,2 -12,7 -18,18 -7,14 -14,39 -20,73 -35,184 -57,627 -57,707 0,31 -12,280 -3,371 2,16 4,28 7,34 3,7 8,11 12,13 5,2 11,2 17,-1 8,-4 12,-14 8,-23 -2,-3 -4,-5 -7,-7 z" id="path681"/>
      </g>
      <g id="g687">
        <path class="fil19" d="m 16767,4958 c 0,-11 -1,-35 1,-59 4,-78 18,-194 21,-209 7,-38 18,-232 33,-377 5,-50 11,-95 17,-123 3,11 5,25 8,42 1,9 10,16 19,14 9,-1 15,-10 14,-19 -6,-43 -13,-68 -18,-80 -7,-12 -15,-16 -21,-16 -6,-1 -13,1 -19,7 -4,5 -9,16 -13,32 -26,102 -44,461 -54,514 -3,15 -17,133 -21,213 -2,37 -2,67 1,77 4,10 11,14 17,14 4,1 10,0 16,-5 7,-7 7,-18 0,-25 0,0 0,0 -1,0 z m -22,0 z" id="path685"/>
      </g>
      <g id="g691">
        <path class="fil19" d="m 18445,4917 c -1,-2 -1,-4 -1,-6 -10,-73 -15,-312 -16,-335 -5,-198 -48,-392 -47,-590 0,-9 -7,-17 -17,-17 -9,0 -17,8 -17,17 -1,198 42,393 47,591 1,21 5,218 13,311 2,26 5,45 8,51 6,14 16,14 22,12 4,-1 10,-4 14,-15 2,-7 0,-15 -6,-19 z" id="path689"/>
      </g>
      <g id="g695">
        <path class="fil19" d="m 16790,4071 c 1,-2 2,-5 2,-9 -1,-9 -9,-16 -19,-15 -4,0 -9,1 -13,8 -1,2 -4,7 -5,15 -6,51 -10,309 -31,449 -7,43 -67,207 -83,320 -4,32 -5,59 -1,80 2,18 9,31 17,40 7,7 18,7 25,0 6,-7 6,-18 0,-24 -5,-5 -7,-12 -9,-21 -3,-19 -2,-43 2,-70 16,-113 76,-277 82,-320 22,-140 26,-399 32,-450 0,-1 0,-2 1,-3 z m -13,9 z m 2,0 h 1 c -1,0 -2,0 -2,0 v 0 c 1,0 1,0 1,0 z m 2,-1 -1,1 v -1 c 1,0 1,0 1,0 z" id="path693"/>
      </g>
      <g id="g699">
        <path class="fil19" d="m 18090,1604 c -11,287 91,566 91,853 0,9 8,17 17,17 10,0 17,-8 17,-17 0,-287 -102,-565 -91,-852 0,-9 -7,-17 -16,-18 -10,0 -18,7 -18,17 z" id="path697"/>
      </g>
      <g id="g703">
        <path class="fil19" d="m 16715,527 c -2,229 -76,4033 -113,4457 -2,18 12,35 31,36 19,2 35,-12 37,-30 37,-425 111,-4233 113,-4463 0,-19 -15,-34 -34,-34 -19,0 -34,15 -34,34 z" id="path701"/>
      </g>
    </g>
    <g id="g793">
      <path class="fil19" d="m 16082,12720 c -55,-27 -84,-55 -89,-88 -5,-35 15,-72 44,-110 109,-138 358,-283 444,-363 6,-6 12,-15 16,-28 5,-17 9,-45 10,-80 4,-178 -45,-574 -53,-643 -43,-362 -27,-761 12,-1123 11,-103 50,-237 65,-366 11,-92 10,-180 -17,-255 -36,-101 -97,-207 -144,-318 -43,-104 -75,-213 -54,-328 35,-197 124,-554 165,-878 28,-221 32,-428 -17,-561 -110,-304 -227,-430 -344,-645 -422,-780 348,-1360 348,-1360 9,-6 14,-16 14,-26 0,-11 -5,-21 -13,-27 -50,-41 -81,-81 -94,-118 -12,-30 -11,-57 1,-78 15,-28 46,-45 83,-52 66,-12 153,11 235,81 14,11 67,54 209,9 18,-5 28,-24 22,-42 -5,-18 -25,-28 -42,-22 -98,31 -135,11 -145,3 -102,-86 -210,-110 -291,-96 -60,11 -106,42 -130,86 -35,63 -24,157 78,254 -146,126 -729,692 -334,1420 115,212 231,336 339,636 46,126 40,321 13,530 -40,322 -129,677 -164,874 -23,128 10,250 59,367 46,110 107,214 142,314 30,83 21,185 4,287 -18,109 -46,217 -55,304 -40,367 -57,771 -13,1138 7,60 46,367 52,560 1,43 1,81 -1,108 -2,11 -5,24 -5,28 -91,82 -339,228 -448,368 -43,55 -65,111 -58,161 7,51 44,101 130,141 7,4 23,7 48,7 41,0 112,-6 200,-15 201,-19 490,-51 696,-53 85,-1 155,3 197,16 255,80 577,25 848,25 301,0 671,-9 947,-95 66,-20 128,-93 179,-195 110,-215 183,-555 207,-669 144,-672 -139,-1383 -300,-1985 -34,-126 -42,-261 -57,-395 -14,-140 -36,-281 -95,-414 -203,-455 -458,-857 -586,-1334 -60,-224 -13,-405 64,-582 81,-186 193,-368 261,-588 36,-117 21,-288 -11,-451 -36,-182 -93,-354 -117,-426 41,-14 107,-45 147,-109 81,-129 -8,-292 -160,-321 -62,-12 -135,-2 -210,45 -16,10 -20,31 -10,47 9,16 30,20 46,10 58,-35 113,-45 161,-35 104,20 171,129 115,218 -46,74 -139,89 -139,89 -10,2 -19,8 -24,16 -5,9 -6,20 -2,29 0,0 80,217 126,450 30,152 46,310 13,418 -67,218 -179,397 -258,581 -83,191 -132,385 -67,626 128,481 384,887 589,1345 56,126 76,260 90,393 14,138 23,276 58,406 159,593 441,1292 300,1953 -24,111 -94,443 -201,653 -41,81 -86,144 -139,160 -270,85 -632,92 -927,92 -264,0 -578,56 -828,-22 -46,-14 -124,-20 -217,-19 -208,2 -500,34 -703,54 -85,8 -154,14 -193,14 -9,0 -19,-1 -22,-1 z" id="path707"/>
      <path class="fil19" d="m 18755,8599 c -6,-14 -8,-34 -7,-61 1,-47 10,-109 25,-178 59,-278 201,-675 234,-769 83,-233 106,-422 146,-564 22,-78 49,-141 98,-187 75,-72 200,-103 428,-98 10,0 30,8 53,18 64,27 152,74 177,98 46,42 66,130 76,237 25,272 -29,661 -37,820 -53,1096 -320,2220 -594,3296 -5,18 6,37 24,41 19,5 37,-6 42,-24 275,-1081 543,-2210 596,-3310 8,-161 62,-554 36,-829 -12,-127 -42,-230 -97,-281 -28,-27 -125,-81 -196,-111 -35,-14 -64,-23 -79,-23 -254,-5 -392,36 -476,116 -57,55 -91,127 -117,219 -39,140 -61,328 -144,559 -34,96 -177,496 -236,778 -16,74 -26,140 -27,191 -1,39 4,71 14,91 8,17 28,24 45,16 17,-8 24,-28 16,-45 z" id="path709"/>
      <path class="fil19" d="m 18902,8272 c 0,-1 0,-3 0,-5 1,-5 3,-11 6,-17 16,-40 58,-95 77,-127 132,-229 311,-432 461,-651 6,-8 177,-231 233,-290 7,1 14,-3 17,-9 3,-8 4,-13 4,-15 1,-4 0,-7 -1,-9 -2,-4 -6,-7 -10,-9 -3,-1 -7,-2 -13,0 -2,1 -6,3 -11,8 -6,5 -16,16 -29,31 -68,78 -213,266 -218,273 -151,221 -330,424 -463,654 -13,23 -38,57 -57,89 -14,24 -25,46 -29,63 -3,14 -1,25 5,33 6,9 16,15 33,15 10,0 17,-7 17,-17 0,-9 -7,-17 -17,-17 -1,0 -4,0 -5,0 z" id="path711"/>
      <path class="fil19" d="m 19858,7685 c -101,40 -214,164 -325,327 -254,374 -499,955 -579,1180 -3,9 1,19 10,22 9,3 19,-2 22,-10 80,-224 323,-801 575,-1173 106,-156 213,-276 310,-315 9,-3 13,-13 9,-22 -3,-9 -13,-13 -22,-9 z" id="path713"/>
      <path class="fil19" d="m 19572,9005 c -119,265 -216,534 -257,820 -1,9 6,18 15,19 9,1 18,-5 19,-15 40,-282 136,-548 254,-810 4,-9 0,-19 -8,-23 -9,-4 -19,0 -23,9 z" id="path715"/>
      <path class="fil19" d="m 18987,8121 c 323,534 241,846 366,1430 2,9 11,15 20,13 10,-2 15,-11 13,-20 -126,-589 -44,-903 -370,-1441 -5,-8 -16,-10 -24,-5 -8,5 -10,15 -5,23 z" id="path717"/>
      <path class="fil19" d="m 19320,7607 c 3,2 5,4 8,6 26,23 63,61 78,81 63,80 101,181 135,275 105,289 176,569 224,871 2,9 11,15 20,14 9,-2 16,-11 14,-20 -49,-303 -121,-586 -226,-877 -35,-97 -75,-201 -140,-284 -16,-21 -55,-61 -83,-85 -13,-12 -25,-20 -30,-22 -8,-3 -13,-1 -17,1 -3,2 -6,5 -8,9 -1,3 -2,11 5,23 4,8 13,11 20,8 z" id="path719"/>
      <g id="g723">
        <path class="fil19" d="m 17136,6016 c 0,-8 -4,-14 -11,-17 -5,-1 -11,-3 -14,-4 -6,0 -10,1 -12,3 -6,3 -9,8 -9,15 0,2 1,10 12,19 67,50 91,112 121,179 34,77 62,188 56,289 -3,66 -20,127 -60,172 -40,47 -111,90 -193,124 -125,52 -274,83 -386,71 -38,-4 -107,-13 -170,-33 -40,-13 -77,-31 -100,-56 -6,-6 -17,-7 -24,0 -7,6 -7,17 -1,24 27,28 69,49 114,64 65,21 138,31 178,35 116,13 272,-19 402,-73 87,-37 162,-84 206,-134 44,-50 65,-119 68,-192 6,-107 -23,-224 -59,-304 -30,-68 -56,-130 -118,-182 z" id="path721"/>
      </g>
      <path class="fil19" d="m 16658,5928 c -38,-36 -93,-36 -150,-17 -79,27 -160,89 -192,127 -141,165 -185,371 -120,573 28,84 41,145 131,188 8,5 19,1 23,-7 4,-9 0,-19 -8,-23 -79,-39 -89,-94 -113,-168 -62,-191 -21,-386 112,-541 30,-35 105,-92 178,-116 44,-15 87,-19 116,8 6,7 17,6 24,0 6,-7 6,-18 -1,-24 z" id="path725"/>
      <g id="g729">
        <path class="fil19" d="m 16722,6066 c -128,221 -235,606 -169,833 2,9 12,14 21,11 9,-2 14,-12 11,-21 -64,-219 42,-592 166,-806 5,-8 2,-19 -6,-23 -8,-5 -18,-2 -23,6 z" id="path727"/>
      </g>
      <g id="g733">
        <path class="fil19" d="m 16883,6870 v 0 -1 c 0,-19 -9,-23 -17,-20 -9,-3 -17,1 -17,20 v 1 5 c 0,1 0,1 0,2 1,27 8,78 5,119 -1,13 -3,26 -8,36 -2,6 -6,11 -11,13 -16,6 -37,6 -60,5 -37,-3 -78,-12 -103,-15 -66,-7 -107,-21 -128,-49 -20,-28 -19,-68 -8,-123 2,-9 -4,-18 -13,-20 -9,-2 -18,4 -20,13 -14,68 -11,116 14,150 25,33 72,54 151,63 26,2 67,11 104,14 29,3 55,2 75,-6 19,-7 32,-27 37,-54 10,-49 -1,-125 -1,-153 z" id="path731"/>
      </g>
      <g id="g737">
        <path class="fil19" d="m 16701,6892 c 3,-4 3,-10 1,-16 -5,-11 -13,-12 -16,-12 -6,-1 -12,1 -16,9 -1,1 -2,3 -3,7 0,3 0,9 0,18 2,34 11,113 11,139 0,10 8,17 17,17 10,0 17,-7 17,-17 0,-28 -10,-114 -11,-145 z" id="path735"/>
      </g>
      <g id="g741">
        <path class="fil19" d="m 17609,5800 c -3,-3 -7,-4 -12,-4 -4,-2 -48,-19 -55,-21 -39,-11 -89,-11 -128,0 -29,8 -51,15 -74,31 -31,21 -44,43 -46,64 -2,22 8,43 27,61 31,32 89,56 143,62 33,3 59,-3 83,-12 22,-7 43,-18 67,-24 21,-5 57,-28 72,-51 9,-14 12,-28 6,-40 -4,-10 -13,-21 -24,-31 -14,-12 -30,-24 -41,-32 -5,-5 -12,-6 -18,-3 z m -4,28 c -1,1 -2,1 -3,1 -3,1 -9,1 -17,-1 -15,-5 -46,-19 -52,-20 -33,-9 -76,-10 -109,0 -26,7 -45,12 -65,26 -19,13 -30,26 -31,39 -1,12 6,24 17,34 26,27 76,47 122,52 33,4 58,-5 82,-14 18,-8 36,-16 57,-21 13,-3 34,-16 47,-31 3,-3 5,-6 7,-9 1,-2 2,-3 1,-5 -2,-6 -9,-12 -16,-18 -13,-12 -30,-24 -40,-33 z" id="path739"/>
      </g>
      <g id="g745">
        <path class="fil19" d="m 16553,5702 c -1,-1 -1,-2 -2,-2 -5,-8 -16,-9 -24,-4 -27,21 -39,44 -42,66 -3,23 5,45 20,64 41,52 143,78 221,9 32,-28 22,-68 -12,-100 -25,-24 -63,-44 -99,-47 -23,-3 -45,1 -62,14 z m -10,26 c -15,12 -23,25 -24,38 -2,14 3,27 13,39 32,40 111,58 171,4 17,-14 5,-33 -12,-50 -20,-19 -51,-35 -79,-38 -17,-1 -32,1 -43,11 -7,7 -18,6 -24,-1 -1,-1 -2,-2 -2,-3 z" id="path743"/>
      </g>
      <g id="g749">
        <path class="fil19" d="m 17529,5610 c 2,-5 7,-5 13,-6 11,-2 25,-1 37,-1 63,0 109,25 151,57 8,6 19,4 24,-3 6,-8 4,-19 -3,-24 -48,-37 -101,-64 -172,-64 -17,0 -37,-1 -52,3 -15,5 -26,13 -30,28 -3,9 2,19 11,21 9,3 19,-2 21,-11 z" id="path747"/>
      </g>
      <g id="g753">
        <path class="fil19" d="m 16610,5594 c 15,-11 33,-16 52,-19 21,-3 44,-4 66,-6 9,-1 16,-10 15,-19 -1,-9 -10,-16 -19,-15 -48,6 -97,5 -134,31 -8,6 -9,16 -4,24 5,7 16,9 24,4 z" id="path751"/>
      </g>
      <path class="fil19" d="m 17420,5797 c -23,6 -39,1 -57,17 -71,67 10,182 102,165 82,-15 94,-126 43,-173 -8,-8 -66,-39 -66,-24 m -22,15 z" id="path755"/>
      <path class="fil19" d="m 16620,5717 c 7,-19 37,20 39,24 18,33 -19,159 -64,149 -111,-26 -117,-223 9,-184 m 16,11 z" id="path757"/>
      <path class="fil19" d="m 16869,5898 c -53,-8 -89,-34 -146,-19 -49,12 -97,25 -142,49 -63,33 -32,112 9,146 77,65 226,116 330,99 83,-12 198,-80 136,-167 -47,-66 -145,-71 -191,-135 m 4,27 z" id="path759"/>
      <path class="fil19" d="m 16439,5572 c 10,-16 38,-47 45,-53 20,-16 58,-54 95,-82 22,-17 43,-30 60,-30 9,0 17,-8 17,-17 0,-9 -8,-17 -17,-17 -17,0 -38,9 -60,23 -44,28 -93,78 -116,97 -9,7 -47,50 -56,67 -5,11 -2,19 0,23 4,4 9,8 17,7 9,-1 16,-9 15,-18 z m -16,-16 c 1,0 3,0 4,1 -1,-1 -3,-1 -4,-1 z m -1,0 h 1 z" id="path761"/>
      <path class="fil19" d="m 16509,5457 c 1,2 3,9 4,12 4,7 11,13 24,14 9,0 17,-8 17,-17 0,-8 -5,-14 -11,-16 -1,-1 -1,-3 -1,-3 -2,-4 -4,-8 -6,-11 -7,-9 -16,-14 -24,-19 -8,-4 -16,-6 -20,-16 -14,-28 20,-49 48,-38 9,3 19,-2 22,-10 3,-9 -1,-19 -10,-22 -56,-21 -119,27 -91,85 7,15 18,22 29,28 7,4 14,7 19,13 z" id="path763"/>
      <path class="fil19" d="m 18378,5386 c 26,20 41,49 53,80 12,35 21,72 33,103 3,9 13,13 22,10 8,-4 13,-14 9,-22 -11,-31 -20,-68 -33,-102 -13,-38 -32,-73 -64,-96 -8,-6 -18,-4 -24,4 -5,7 -4,18 4,23 z" id="path765"/>
      <path class="fil19" d="m 18457,5416 c 8,-42 55,-54 90,-47 15,3 29,9 33,20 5,12 -1,27 -20,46 -12,13 -27,23 -43,32 -8,5 -10,16 -6,24 5,8 16,10 24,5 18,-11 35,-23 50,-38 31,-33 35,-61 27,-81 -8,-21 -31,-36 -58,-42 -52,-9 -120,14 -130,75 -2,9 5,18 14,20 9,1 18,-5 19,-14 z" id="path767"/>
      <path class="fil19" d="m 16878,9292 c 0,0 0,0 0,-1 0,-9 -8,-17 -18,-17 -8,0 -13,4 -16,9 -2,4 -4,10 -1,18 5,12 31,42 41,52 35,33 63,76 96,122 49,69 163,165 231,263 42,60 67,120 42,175 -44,96 -161,116 -285,94 -117,-21 -241,-79 -324,-154 -54,-49 -91,-104 -96,-160 -1,-10 -9,-17 -18,-16 -10,1 -17,9 -16,19 6,64 46,127 107,182 88,79 218,141 341,162 141,25 272,-4 322,-113 30,-65 5,-137 -45,-208 -68,-98 -182,-195 -232,-264 -34,-48 -63,-93 -99,-127 -7,-6 -24,-28 -30,-36 z m -16,16 z m 3,0 c 0,0 -2,0 -3,0 1,0 3,0 3,0 z" id="path769"/>
      <path class="fil19" d="m 18157,8615 c 5,3 11,4 17,2 9,-4 12,-14 9,-23 -4,-8 -9,-12 -15,-14 -7,-3 -16,-2 -25,3 -17,9 -40,40 -43,42 -73,69 -136,114 -240,137 -110,23 -467,40 -660,124 -91,39 -146,95 -134,168 18,121 126,199 265,243 202,63 468,58 598,27 47,-11 103,-42 157,-71 51,-27 101,-52 141,-52 10,0 17,-8 17,-17 0,-10 -7,-17 -17,-17 -36,0 -80,17 -124,39 -62,31 -128,73 -181,85 -127,30 -385,35 -580,-27 -126,-39 -226,-106 -243,-215 -4,-28 5,-52 24,-73 20,-23 52,-42 90,-59 191,-83 545,-99 654,-122 111,-24 178,-72 256,-145 2,-1 13,-17 26,-29 2,-2 5,-5 8,-6 z" id="path771"/>
      <path class="fil19" d="m 17092,9137 c 96,-9 195,-7 287,22 9,2 19,-3 21,-12 3,-9 -2,-18 -11,-21 -96,-30 -200,-32 -300,-23 -10,1 -17,10 -16,19 1,9 9,16 19,15 z" id="path773"/>
      <path class="fil19" d="m 17152,8977 c 9,-2 19,-5 28,-7 50,-10 114,-17 115,-17 10,0 17,-8 17,-17 0,-10 -7,-17 -17,-17 -2,0 -135,15 -176,33 -14,6 -20,16 -21,23 -1,6 1,12 7,18 4,4 15,10 33,14 9,3 18,-3 20,-12 2,-7 -1,-14 -6,-18 z" id="path775"/>
      <path class="fil19" d="m 16925,9874 c 6,-6 6,-17 0,-23 -7,-7 -18,-7 -25,0 -7,7 -10,17 -9,29 1,11 7,26 18,41 22,30 61,66 100,85 29,15 57,20 79,13 9,-3 14,-13 10,-22 -3,-9 -12,-13 -21,-10 -15,5 -33,-2 -53,-11 -34,-17 -68,-48 -87,-75 -6,-8 -10,-15 -12,-22 0,-2 0,-4 0,-5 z" id="path777"/>
      <path class="fil19" d="m 16993,9779 c 2,42 27,73 63,97 49,31 117,48 164,60 9,3 18,-3 21,-12 2,-9 -3,-18 -12,-21 -44,-11 -109,-26 -154,-56 -27,-17 -46,-39 -48,-70 0,-9 -8,-16 -18,-16 -9,1 -16,9 -16,18 z" id="path779"/>
      <path class="fil19" d="m 16202,12481 c -18,-8 -36,-5 -54,7 -20,14 -39,42 -52,76 -19,49 -25,109 -11,149 12,32 35,53 74,53 10,0 17,-8 17,-17 0,-10 -7,-17 -17,-17 -28,0 -42,-21 -46,-47 -6,-33 2,-74 15,-109 9,-22 20,-42 33,-55 9,-8 18,-13 27,-9 8,4 18,0 22,-8 4,-9 1,-19 -8,-23 z" id="path781"/>
      <path class="fil19" d="m 16256,12551 c -41,67 -61,115 -42,201 2,10 11,15 20,14 9,-2 15,-12 13,-21 -16,-75 2,-117 38,-176 5,-8 2,-19 -6,-23 -8,-5 -19,-3 -23,5 z" id="path783"/>
      <path class="fil19" d="m 17970,12471 c -22,-5 -43,1 -62,16 -24,20 -45,54 -56,91 -12,38 -15,77 -5,104 9,22 24,38 49,42 9,2 18,-4 20,-13 1,-10 -5,-19 -14,-20 -15,-3 -23,-15 -25,-31 -4,-21 -1,-47 7,-72 9,-30 26,-58 45,-74 10,-8 21,-13 32,-10 9,3 19,-3 21,-12 2,-9 -3,-18 -12,-21 z" id="path785"/>
      <path class="fil19" d="m 18024,12559 c -15,16 -23,41 -26,67 -5,37 0,78 9,104 3,9 13,13 22,10 9,-3 13,-13 10,-22 -8,-21 -12,-56 -8,-88 3,-19 8,-37 18,-49 6,-7 6,-18 -2,-24 -7,-6 -17,-5 -23,2 z" id="path787"/>
      <path class="fil19" d="m 18132,12640 c -16,60 -16,56 -28,114 -2,9 4,18 13,20 9,2 18,-4 20,-13 13,-57 12,-53 28,-112 2,-9 -4,-19 -13,-21 -9,-3 -18,3 -20,12 z" id="path789"/>
      <path class="fil19" d="m 18150,12187 c -160,-18 -360,106 -442,257 -57,103 -60,218 37,309 7,6 18,6 24,-1 7,-7 6,-17 -1,-24 -84,-78 -80,-178 -31,-268 77,-139 261,-256 409,-239 9,1 18,-6 19,-15 1,-9 -6,-18 -15,-19 z" id="path791"/>
    </g>
  </g>
</svg>