<?xml version="1.0" encoding="UTF-8" standalone="no"?>
<svg
   inkscape:version="1.1.1 (3bf5ae0d25, 2021-09-20)"
   height="59.083057"
   width="67.713615"
   sodipodi:docname="2023-UY_01_FullChest.svg"
   id="svg587"
   version="1.1"
   viewBox="27.96 212.682 67.713615 59.083057"
   xmlns:inkscape="http://www.inkscape.org/namespaces/inkscape"
   xmlns:sodipodi="http://sodipodi.sourceforge.net/DTD/sodipodi-0.dtd"
   xmlns="http://www.w3.org/2000/svg"
   xmlns:svg="http://www.w3.org/2000/svg"
   xmlns:rdf="http://www.w3.org/1999/02/22-rdf-syntax-ns#"
   xmlns:cc="http://creativecommons.org/ns#"
   xmlns:dc="http://purl.org/dc/elements/1.1/">
  <metadata
     id="metadata593">
    <rdf:RDF>
      <cc:Work
         rdf:about="">
        <dc:format>image/svg+xml</dc:format>
        <dc:type
           rdf:resource="http://purl.org/dc/dcmitype/StillImage" />
      </cc:Work>
    </rdf:RDF>
  </metadata>
  <defs
     id="defs591" />
  <sodipodi:namedview
     inkscape:current-layer="svg587"
     inkscape:window-maximized="1"
     inkscape:window-y="-8"
     inkscape:window-x="-8"
     inkscape:cy="17.207792"
     inkscape:cx="34.415583"
     inkscape:zoom="7.7000003"
     fit-margin-bottom="0"
     fit-margin-right="0"
     fit-margin-left="0"
     fit-margin-top="0"
     showgrid="false"
     id="namedview589"
     inkscape:window-height="1017"
     inkscape:window-width="2048"
     inkscape:pageshadow="2"
     inkscape:pageopacity="0"
     guidetolerance="10"
     gridtolerance="10"
     objecttolerance="10"
     borderopacity="1"
     bordercolor="#666666"
     pagecolor="#ffffff"
     inkscape:pagecheckerboard="0" />
  <g
     id="g1349">
    <rect
       id="rect310"
       style="fill:#180404"
       height="17.211"
       width="59.612"
       y="222.007"
       x="30.913002" />
    <path
       id="path312"
       style="font-variation-settings:normal;vector-effect:none;fill:#a05a2c;fill-opacity:1;stroke-width:1;stroke-linecap:butt;stroke-linejoin:miter;stroke-miterlimit:4;stroke-dasharray:none;stroke-dashoffset:0;stroke-opacity:1;-inkscape-stroke:none;stop-color:#000000"
       d="m 90.525,239.231 -2.322,27.308 H 34.38 l -3.005,-27.321 z" />
    <path
       id="path314"
       style="font-variation-settings:normal;vector-effect:none;fill:#784421;fill-opacity:1;stroke-width:1;stroke-linecap:butt;stroke-linejoin:miter;stroke-miterlimit:4;stroke-dasharray:none;stroke-dashoffset:0;stroke-opacity:1;-inkscape-stroke:none;stop-color:#000000"
       d="m 30.965,215.99 h 0.027 c 0.305,-1.855 3.139,-3.308 6.589,-3.308 h 47.283 c 3.451,0 6.284,1.453 6.589,3.308 h 0.027 l 0.82,6.017 H 30.009 Z" />
    <rect
       id="rect316"
       ry="6.5819998"
       rx="6.5819998"
       style="fill:#ffd21c"
       height="6.494"
       width="66.663002"
       y="220.024"
       x="27.959999" />
    <rect
       id="rect318"
       ry="13.669"
       rx="13.669"
       style="fill:#ffd21c"
       height="11.03"
       width="15.163"
       y="218.06599"
       x="53.640999" />
    <path
       id="path320"
       d="m 62.648,225.734 c 0.244,0.633 0.122,0.949 -0.364,0.949 h -2.401 c -0.486,0 -0.608,-0.316 -0.365,-0.949 l 1.063,-2.763 c -0.578,-0.165 -0.989,-0.586 -0.989,-1.079 0,-0.637 0.684,-1.153 1.528,-1.153 0.843,0 1.527,0.516 1.527,1.153 0,0.512 -0.442,0.946 -1.054,1.096 z" />
    <path
       id="path322"
       style="font-variation-settings:normal;vector-effect:none;fill:#a05a2c;fill-opacity:1;stroke-width:1;stroke-linecap:butt;stroke-linejoin:miter;stroke-miterlimit:4;stroke-dasharray:none;stroke-dashoffset:0;stroke-opacity:1;-inkscape-stroke:none;stop-color:#000000"
       d="m 30.965,215.99 h 0.027 c 0.305,-1.855 3.139,-3.308 6.589,-3.308 h 47.283 c 3.451,0 6.284,1.453 6.589,3.308 h 0.027 l 0.045,0.327 H 30.913 Z" />
    <circle
       id="circle324"
       style="fill:#cd8737;stroke-width:3px"
       r="5.211"
       cy="237.21199"
       cx="38.799004" />
    <circle
       id="circle326"
       style="fill:#efc586"
       r="4.1469998"
       cy="237.21199"
       cx="38.799004" />
    <path
       id="path328"
       style="mix-blend-mode:screen;fill:#ffe9b8"
       d="m 37.114,240.995 c -0.328,-0.145 -0.633,-0.33 -0.91,-0.551 l 5.925,-5.703 c 0.209,0.285 0.383,0.597 0.515,0.93 z m -1.233,-0.837 c -0.476,-0.467 -0.841,-1.05 -1.048,-1.702 l 5.361,-5.161 c 0.642,0.232 1.211,0.618 1.661,1.113 z" />
    <circle
       id="circle330"
       style="fill:#cd8737;stroke-width:3px"
       r="5.211"
       cy="238.506"
       cx="49.221001" />
    <circle
       id="circle332"
       style="fill:#efc586"
       r="4.1469998"
       cy="238.506"
       cx="49.221001" />
    <path
       id="path334"
       style="mix-blend-mode:screen;fill:#ffe9b8"
       d="m 47.536,242.289 c -0.328,-0.145 -0.633,-0.33 -0.91,-0.551 l 5.925,-5.703 c 0.209,0.285 0.383,0.597 0.515,0.93 z m -1.233,-0.837 c -0.476,-0.467 -0.841,-1.05 -1.048,-1.702 l 5.361,-5.161 c 0.642,0.232 1.211,0.618 1.661,1.113 z" />
    <circle
       id="circle336"
       style="fill:#cd8737;stroke-width:3px"
       r="5.211"
       cy="234.007"
       cx="43.956001" />
    <circle
       id="circle338"
       style="fill:#efc586"
       r="4.1469998"
       cy="234.007"
       cx="43.956001" />
    <path
       id="path340"
       style="mix-blend-mode:screen;fill:#ffe9b8"
       d="m 42.271,237.79 c -0.328,-0.145 -0.633,-0.33 -0.91,-0.551 l 5.925,-5.703 c 0.209,0.285 0.383,0.597 0.515,0.93 z m -1.233,-0.837 c -0.476,-0.467 -0.841,-1.05 -1.048,-1.702 l 5.361,-5.161 c 0.642,0.232 1.211,0.618 1.661,1.113 z" />
    <circle
       id="circle342"
       style="fill:#cd8737;stroke-width:3px"
       r="5.211"
       cy="238.27599"
       cx="54.377998" />
    <circle
       id="circle344"
       style="fill:#efc586"
       r="4.1469998"
       cy="238.27599"
       cx="54.377998" />
    <path
       id="path346"
       style="mix-blend-mode:screen;fill:#ffe9b8"
       d="m 52.693,242.059 c -0.328,-0.145 -0.633,-0.33 -0.91,-0.551 l 5.925,-5.703 c 0.209,0.285 0.383,0.597 0.515,0.93 z m -1.233,-0.837 c -0.476,-0.467 -0.841,-1.05 -1.048,-1.702 l 5.361,-5.161 c 0.642,0.232 1.211,0.618 1.661,1.113 z" />
    <circle
       id="circle348"
       style="fill:#cd8737;stroke-width:3px"
       r="5.211"
       cy="239.56999"
       cx="64.799995" />
    <circle
       id="circle350"
       style="fill:#efc586"
       r="4.1469998"
       cy="239.56999"
       cx="64.799995" />
    <path
       id="path352"
       style="mix-blend-mode:screen;fill:#ffe9b8"
       d="m 63.115,243.353 c -0.328,-0.145 -0.633,-0.33 -0.91,-0.551 l 5.925,-5.703 c 0.209,0.285 0.383,0.597 0.515,0.93 z m -1.233,-0.837 c -0.476,-0.467 -0.841,-1.05 -1.048,-1.702 l 5.361,-5.161 c 0.642,0.232 1.211,0.618 1.661,1.113 z" />
    <circle
       id="circle354"
       style="fill:#cd8737;stroke-width:3px"
       r="5.211"
       cy="235.071"
       cx="59.534996" />
    <circle
       id="circle356"
       style="fill:#efc586"
       r="4.1469998"
       cy="235.071"
       cx="59.534996" />
    <path
       id="path358"
       style="mix-blend-mode:screen;fill:#ffe9b8"
       d="m 57.85,238.854 c -0.328,-0.145 -0.633,-0.33 -0.91,-0.551 l 5.925,-5.703 c 0.209,0.285 0.383,0.597 0.515,0.93 z m -1.233,-0.837 c -0.476,-0.467 -0.841,-1.05 -1.048,-1.702 l 5.361,-5.161 c 0.642,0.232 1.211,0.618 1.661,1.113 z" />
    <polygon
       id="polygon360"
       points="232,428 128.889,156 0,156 "
       style="fill:#b90000"
       transform="matrix(0.021575,-0.010187,0.010187,0.021575,70.60975,230.37935)" />
    <polygon
       id="polygon362"
       points="232,428 464,156 335.111,156 "
       style="fill:#ff5757"
       transform="matrix(0.021575,-0.010187,0.010187,0.021575,70.60975,230.37935)" />
    <polygon
       id="polygon364"
       points="232,156 335.111,156 232,36 128.889,156 "
       style="fill:#ffb0b0"
       transform="matrix(0.021575,-0.010187,0.010187,0.021575,70.60975,230.37935)" />
    <polygon
       id="polygon366"
       points="232,156 128.889,156 232,428 335.111,156 "
       style="fill:#dd2929"
       transform="matrix(0.021575,-0.010187,0.010187,0.021575,70.60975,230.37935)" />
    <polygon
       id="polygon368"
       points="0,156 128.889,156 104,36 "
       style="fill:#dd2929"
       transform="matrix(0.021575,-0.010187,0.010187,0.021575,70.60975,230.37935)" />
    <polygon
       id="polygon370"
       points="360,36 335.111,156 464,156 "
       style="fill:#ffb0b0"
       transform="matrix(0.021575,-0.010187,0.010187,0.021575,70.60975,230.37935)" />
    <polygon
       id="polygon372"
       points="232,36 335.111,156 360,36 "
       style="fill:#ff6f6f"
       transform="matrix(0.021575,-0.010187,0.010187,0.021575,70.60975,230.37935)" />
    <polygon
       id="polygon374"
       points="104,36 128.889,156 232,36 "
       style="fill:#ff6f6f"
       transform="matrix(0.021575,-0.010187,0.010187,0.021575,70.60975,230.37935)" />
    <ellipse
       id="circle378"
       transform="matrix(-0.91478233,0.40394714,-0.40395049,-0.91478085,0,0)"
       style="fill:#cd8737;stroke-width:3px"
       cy="-250.96399"
       cx="18.281845"
       rx="5.2109981"
       ry="5.2110066" />
    <ellipse
       id="circle380"
       transform="matrix(-0.91478233,0.40394714,-0.40395049,-0.91478085,0,0)"
       style="fill:#efc586"
       cy="-250.96399"
       cx="18.281845"
       rx="4.1469984"
       ry="4.1470051" />
    <path
       id="path382"
       style="mix-blend-mode:screen;fill:#ffe9b8"
       d="m 84.665785,232.81944 c 0.358621,1.5e-4 0.712361,0.0462 1.055028,0.13646 l -3.11635,7.61038 c -0.306316,-0.17628 -0.591521,-0.39141 -0.846788,-0.64271 z m 1.466033,0.26761 c 0.624081,0.23492 1.19348,0.6208 1.646216,1.13362 l -2.819355,6.88675 c -0.681007,0.0471 -1.357443,-0.0762 -1.96905,-0.3472 z" />
    <ellipse
       id="circle386"
       transform="matrix(-0.91478233,0.40394714,-0.40395049,-0.91478085,0,0)"
       style="fill:#cd8737;stroke-width:3px"
       cy="-246.39688"
       cx="28.351231"
       rx="5.2109981"
       ry="5.2110066" />
    <ellipse
       id="circle388"
       transform="matrix(-0.91478233,0.40394714,-0.40395049,-0.91478085,0,0)"
       style="fill:#efc586"
       cy="-246.39688"
       cx="28.351231"
       rx="4.1469984"
       ry="4.1470051" />
    <path
       id="path390"
       style="mix-blend-mode:screen;fill:#ffe9b8"
       d="m 73.609062,232.70878 c 0.358621,1.5e-4 0.71236,0.0462 1.055028,0.13645 l -3.116351,7.61039 c -0.306315,-0.17629 -0.59152,-0.39142 -0.846787,-0.64272 z m 1.466033,0.2676 c 0.624081,0.23493 1.19348,0.6208 1.646216,1.13363 l -2.819355,6.88674 c -0.681007,0.0471 -1.357443,-0.0761 -1.969051,-0.34719 z" />
    <ellipse
       id="circle392"
       transform="matrix(-0.91478233,0.40394714,-0.40395049,-0.91478085,0,0)"
       style="fill:#cd8737;stroke-width:3px"
       cy="-252.61015"
       cx="21.918705"
       rx="5.2109981"
       ry="5.2110066" />
    <ellipse
       id="circle394"
       transform="matrix(-0.91478233,0.40394714,-0.40395049,-0.91478085,0,0)"
       style="fill:#efc586"
       cy="-252.61015"
       cx="21.918705"
       rx="4.1469984"
       ry="4.1470051" />
    <path
       id="path396"
       style="mix-blend-mode:screen;fill:#ffe9b8"
       d="m 82.003679,235.79441 c 0.358622,1.5e-4 0.712361,0.0462 1.055029,0.13645 l -3.116351,7.61039 c -0.306315,-0.17629 -0.59152,-0.39141 -0.846787,-0.64271 z m 1.466033,0.26761 c 0.624082,0.23492 1.193481,0.6208 1.646217,1.13362 l -2.819356,6.88675 c -0.681006,0.0471 -1.357442,-0.0762 -1.96905,-0.3472 z" />
    <polygon
       id="polygon402"
       points="232,428 128.889,156 0,156 "
       style="fill:#b90000"
       transform="matrix(0.022402,0.008211,-0.008211,0.022402,42.82258,231.65468)" />
    <polygon
       id="polygon404"
       points="232,428 464,156 335.111,156 "
       style="fill:#ff5757"
       transform="matrix(0.022402,0.008211,-0.008211,0.022402,42.82258,231.65468)" />
    <path
       id="path406"
       style="fill:#ffb0b0;stroke-width:0.0238594"
       d="m 44.429035,236.2077 3.295213,-1.8416 1.324573,3.53489 z m 4.619786,1.69329 1.542883,-2.48388 1.344488,3.54219 z" />
    <path
       id="path408"
       style="fill:#dd2929;stroke-width:0.0238594"
       d="m 44.429035,236.2077 -2.887371,-1.05831 3.315128,-1.83429 z m 4.619786,1.69329 -4.543285,5.2467 -0.0765,-6.93999 z" />
    <polygon
       id="polygon410"
       points="232,36 335.111,156 360,36 "
       style="fill:#ff6f6f"
       transform="matrix(0.022402,0.008211,-0.008211,0.022402,42.82258,231.65468)" />
    <polygon
       id="polygon412"
       points="104,36 128.889,156 232,36 "
       style="fill:#ff6f6f"
       transform="matrix(0.022402,0.008211,-0.008211,0.022402,42.82258,231.65468)" />
    <ellipse
       id="circle416"
       transform="matrix(-0.91478233,0.40394714,-0.40395049,-0.91478085,0,0)"
       style="fill:#cd8737;stroke-width:3px"
       cy="-243.20892"
       cx="33.383251"
       rx="5.2109981"
       ry="5.2110066" />
    <ellipse
       id="circle418"
       transform="matrix(-0.91478233,0.40394714,-0.40395049,-0.91478085,0,0)"
       style="fill:#efc586"
       cy="-243.20892"
       cx="33.383251"
       rx="4.1469984"
       ry="4.1470051" />
    <path
       id="path420"
       style="mix-blend-mode:screen;fill:#ffe9b8"
       d="m 67.718479,231.82541 c 0.358622,1.5e-4 0.712361,0.0462 1.055029,0.13645 l -3.116351,7.61039 c -0.306315,-0.17629 -0.59152,-0.39141 -0.846787,-0.64271 z m 1.466033,0.26761 c 0.624082,0.23492 1.193481,0.6208 1.646217,1.13362 l -2.819356,6.88675 c -0.681006,0.0471 -1.357442,-0.0762 -1.96905,-0.3472 z" />
    <rect
       id="rect428"
       ry="6.5819998"
       rx="6.5819998"
       style="fill:#ffd21c"
       height="6.494"
       width="66.663002"
       y="239.218"
       x="27.959999" />
    <ellipse
       id="circle430"
       transform="matrix(-0.91478233,0.40394714,-0.40395049,-0.91478085,0,0)"
       style="fill:#cd8737;stroke-width:3px"
       cy="-276.39523"
       cx="23.161125"
       rx="5.2109981"
       ry="5.2110066" />
    <ellipse
       id="circle432"
       transform="matrix(-0.91478233,0.40394714,-0.40395049,-0.91478085,0,0)"
       style="fill:#efc586"
       cy="-276.39523"
       cx="23.161125"
       rx="4.1469984"
       ry="4.1470051" />
    <path
       id="path434"
       style="mix-blend-mode:screen;fill:#ffe9b8"
       d="m 90.475275,258.05444 c 0.358621,1.5e-4 0.712361,0.0462 1.055028,0.13646 l -3.11635,7.61038 c -0.306316,-0.17628 -0.591521,-0.39141 -0.846788,-0.64271 z m 1.466033,0.26761 c 0.624081,0.23492 1.19348,0.6208 1.646216,1.13362 l -2.819355,6.88675 c -0.681007,0.0471 -1.357443,-0.0762 -1.96905,-0.3472 z" />
    <ellipse
       id="circle438"
       transform="matrix(-0.91478233,0.40394714,-0.40395049,-0.91478085,0,0)"
       style="fill:#cd8737;stroke-width:3px"
       cy="-277.63037"
       cx="31.150377"
       rx="5.2109981"
       ry="5.2110066" />
    <ellipse
       id="circle440"
       transform="matrix(-0.91478233,0.40394714,-0.40395049,-0.91478085,0,0)"
       style="fill:#efc586"
       cy="-277.63037"
       cx="31.150377"
       rx="4.1469984"
       ry="4.1470051" />
    <path
       id="path442"
       style="mix-blend-mode:screen;fill:#ffe9b8"
       d="m 83.665785,262.41156 c 0.358621,1.5e-4 0.712361,0.0462 1.055028,0.13646 l -3.11635,7.61038 c -0.306316,-0.17628 -0.591521,-0.39141 -0.846788,-0.64271 z m 1.466033,0.26761 c 0.624081,0.23492 1.19348,0.6208 1.646216,1.13362 l -2.819355,6.88675 c -0.681007,0.0471 -1.357443,-0.0762 -1.96905,-0.3472 z" />
  </g>
</svg>
