<?xml version="1.0" encoding="UTF-8" standalone="no"?>
<!-- Created with Inkscape (http://www.inkscape.org/) -->

<svg
   width="153.6469mm"
   height="97.162003mm"
   viewBox="0 0 153.6469 97.162003"
   version="1.1"
   id="svg2260"
   inkscape:version="1.1.1 (3bf5ae0d25, 2021-09-20)"
   sodipodi:docname="2023-UY-01_AnitaPhoto.svg"
   xmlns:inkscape="http://www.inkscape.org/namespaces/inkscape"
   xmlns:sodipodi="http://sodipodi.sourceforge.net/DTD/sodipodi-0.dtd"
   xmlns="http://www.w3.org/2000/svg"
   xmlns:svg="http://www.w3.org/2000/svg">
  <sodipodi:namedview
     id="namedview2262"
     pagecolor="#ffffff"
     bordercolor="#666666"
     borderopacity="1.0"
     inkscape:pageshadow="2"
     inkscape:pageopacity="0.0"
     inkscape:pagecheckerboard="0"
     inkscape:document-units="mm"
     showgrid="false"
     inkscape:zoom="0.90583672"
     inkscape:cx="91.076016"
     inkscape:cy="20.423107"
     inkscape:window-width="2048"
     inkscape:window-height="1017"
     inkscape:window-x="-8"
     inkscape:window-y="-8"
     inkscape:window-maximized="1"
     inkscape:current-layer="layer1" />
  <defs
     id="defs2257">
    <clipPath
       clipPathUnits="userSpaceOnUse"
       id="clipPath5761">
      <rect
         style="fill:#000000;fill-opacity:0.569853;stroke-width:0.875096"
         id="rect5763"
         width="464.38361"
         height="391.75818"
         x="-148.7941"
         y="-98.239548"
         rx="4.1060319"
         ry="8.0798721" />
    </clipPath>
    <clipPath
       clipPathUnits="userSpaceOnUse"
       id="clipPath5761-6">
      <rect
         style="fill:#000000;fill-opacity:0.569853;stroke-width:0.875096"
         id="rect5763-3"
         width="464.38361"
         height="391.75818"
         x="-148.7941"
         y="-98.239548"
         rx="4.1060319"
         ry="8.0798721" />
    </clipPath>
  </defs>
  <g
     inkscape:label="Ebene 1"
     inkscape:groupmode="layer"
     id="layer1"
     transform="translate(-64.993064,-88.692339)">
    <path
       id="rect2"
       style="fill:#afdde9;stroke-width:0.485248"
       d="m 64.993064,88.692339 v 97.162001 l 153.646896,-0.0697 V 88.692339 Z"
       sodipodi:nodetypes="ccccc" />
    <path
       id="rect4"
       style="fill:#ffe784;stroke-width:0.485198"
       d="M 64.993064,88.692339 V 170.35286 C 133.41154,181.75118 201.79733,191.26959 200.88277,127.73299 L 197.04735,88.692339 Z" />
    <ellipse
       id="ellipse46"
       cx="128.78743"
       cy="139.24902"
       rx="33.02055"
       ry="11.846333"
       style="font-variation-settings:normal;fill:#fdf0b7;stroke-width:0.485198;-inkscape-stroke:none;stop-color:#000000" />
    <path
       id="path42"
       d="m 98.046246,99.930676 -0.73293,3.205634 2.807074,1.99578 -4.145194,0.95273 -2.084604,3.00278 -1.828984,-2.61676 -4.09544,-0.13991 3.01473,-2.56995 -0.446501,-3.08932 3.692238,1.02843 z"
       style="fill:#c28137;stroke-width:0.119901" />
    <path
       id="path44"
       d="m 88.684963,109.10803 -0.52973,2.3167 2.028696,1.44228 -2.995707,0.68849 -1.506615,2.17013 -1.321665,-1.89112 -2.959694,-0.10098 2.17875,-1.85741 -0.322729,-2.23262 2.668305,0.7433 z"
       style="fill:#df9847;stroke-width:0.119901" />
    <path
       id="path58"
       d="m 164.91117,142.10969 -0.73293,3.20568 2.80708,1.99578 -4.1452,0.95274 -2.0846,3.00277 -1.82897,-2.6168 -4.09545,-0.13995 3.01473,-2.56995 -0.4465,-3.08933 3.69224,1.02843 z"
       style="fill:#c28137;stroke-width:0.119901" />
    <path
       id="path13-4-9"
       style="font-variation-settings:normal;fill:#a1d116;stroke-width:0.533507;-inkscape-stroke:none;stop-color:#000000"
       d="m 64.993064,88.692339 v 35.376331 c 2.239685,-3.91684 2.366465,-7.90108 2.144132,-10.00879 -1.266195,-12.0054 13.242148,-20.070091 16.39352,-25.367541 z"
       sodipodi:nodetypes="ccccc" />
    <g
       id="g11250"
       transform="matrix(0.48403742,0,0,0.48403742,109.60425,14.905388)">
      <path
         id="polygon5-6"
         style="fill:#0e0303;stroke-width:0.976794"
         d="m 91.533004,224.05547 -60.607422,0.25 5.482422,7.16015 -5.482422,8.14453 c 20.337397,-0.18753 40.686815,-0.29431 61.023437,0.0547 l -5.517578,-8.19726 z"
         sodipodi:nodetypes="ccccccc" />
      <path
         id="path-1-5"
         style="font-variation-settings:normal;opacity:1;vector-effect:none;fill:#a05a2c;fill-opacity:1;stroke-width:1;stroke-linecap:butt;stroke-linejoin:miter;stroke-miterlimit:4;stroke-dasharray:none;stroke-dashoffset:0;stroke-opacity:1;-inkscape-stroke:none;stop-color:#000000;stop-opacity:1"
         d="m 90.259505,238.12112 -2.312138,26.16639 H 34.352953 l -2.992238,-26.17884 z" />
      <path
         id="path-2-7"
         style="font-variation-settings:normal;vector-effect:none;fill:#784421;fill-opacity:1;stroke-width:1;stroke-linecap:butt;stroke-linejoin:miter;stroke-miterlimit:4;stroke-dasharray:none;stroke-dashoffset:0;stroke-opacity:1;-inkscape-stroke:none;stop-color:#000000"
         d="m 30.952457,215.85171 h 0.02689 c 0.303705,-1.77745 3.125669,-3.16971 6.561016,-3.16971 h 47.08219 c 3.436343,0 6.257311,1.39226 6.561016,3.16971 h 0.02688 l 0.816518,5.76546 h -62.02645 z" />
      <rect
         id="rect-1-3"
         ry="6.3068395"
         rx="6.5540462"
         style="fill:#ffd21c;stroke-width:0.976794"
         height="6.2225184"
         width="66.379883"
         y="219.71707"
         x="27.960209" />
      <rect
         id="rect-2-8"
         ry="13.097568"
         rx="13.610948"
         style="fill:#ffd21c;stroke-width:0.976794"
         height="10.568891"
         width="15.098603"
         y="217.84093"
         x="53.532143" />
      <path
         id="path-3-0"
         d="m 62.500899,225.18836 c 0.242964,0.60654 0.121482,0.90933 -0.362454,0.90933 h -2.390803 c -0.483936,0 -0.605418,-0.30279 -0.36345,-0.90933 l 1.058485,-2.64749 c -0.575545,-0.1581 -0.984799,-0.5615 -0.984799,-1.03389 0,-0.61037 0.681095,-1.1048 1.52151,-1.1048 0.83942,0 1.520515,0.49443 1.520515,1.1048 0,0.49059 -0.440123,0.90645 -1.049523,1.05018 z"
         style="stroke-width:0.976794" />
      <path
         id="path-4-9"
         style="font-variation-settings:normal;vector-effect:none;fill:#a05a2c;fill-opacity:1;stroke-width:1;stroke-linecap:butt;stroke-linejoin:miter;stroke-miterlimit:4;stroke-dasharray:none;stroke-dashoffset:0;stroke-opacity:1;-inkscape-stroke:none;stop-color:#000000"
         d="m 30.952457,215.85171 h 0.02689 c 0.303705,-1.77745 3.125669,-3.16971 6.561016,-3.16971 h 47.08219 c 3.436343,0 6.257311,1.39226 6.561016,3.16971 h 0.02688 l 0.04481,0.31333 H 30.900677 Z" />
      <rect
         id="rect-3-6"
         ry="6.3068395"
         rx="6.5540462"
         style="fill:#ffd21c;stroke-width:0.976794"
         height="6.2225184"
         width="66.379883"
         y="237.39435"
         x="27.959997" />
    </g>
  </g>
</svg>
