<?xml version="1.0" encoding="UTF-8" standalone="no"?>
<svg
   height="51.605507"
   width="66.380096"
   id="svg587"
   version="1.1"
   viewBox="27.96 212.682 66.380096 51.605507"
   sodipodi:docname="2023-UY_01_emptychest.svg"
   inkscape:version="1.1.1 (3bf5ae0d25, 2021-09-20)"
   xmlns:inkscape="http://www.inkscape.org/namespaces/inkscape"
   xmlns:sodipodi="http://sodipodi.sourceforge.net/DTD/sodipodi-0.dtd"
   xmlns="http://www.w3.org/2000/svg"
   xmlns:svg="http://www.w3.org/2000/svg">
  <sodipodi:namedview
     id="namedview22"
     pagecolor="#ffffff"
     bordercolor="#666666"
     borderopacity="1.0"
     inkscape:pageshadow="2"
     inkscape:pageopacity="0.0"
     inkscape:pagecheckerboard="0"
     showgrid="false"
     inkscape:zoom="3.0423273"
     inkscape:cx="-108.79829"
     inkscape:cy="87.268717"
     inkscape:window-width="2048"
     inkscape:window-height="1017"
     inkscape:window-x="-8"
     inkscape:window-y="-8"
     inkscape:window-maximized="1"
     inkscape:current-layer="svg587" />
  <defs
     id="defs591" />
  <g
     id="g11250">
    <path
       id="polygon5"
       style="fill:#0e0303;stroke-width:0.976794"
       d="m 91.533004,224.05547 -60.607422,0.25 5.482422,7.16015 -5.482422,8.14453 c 20.337397,-0.18753 40.686815,-0.29431 61.023437,0.0547 l -5.517578,-8.19726 z"
       sodipodi:nodetypes="ccccccc" />
    <path
       id="path-1"
       style="font-variation-settings:normal;opacity:1;vector-effect:none;fill:#a05a2c;fill-opacity:1;stroke-width:1;stroke-linecap:butt;stroke-linejoin:miter;stroke-miterlimit:4;stroke-dasharray:none;stroke-dashoffset:0;stroke-opacity:1;-inkscape-stroke:none;stop-color:#000000;stop-opacity:1"
       d="m 90.259505,238.12112 -2.312138,26.16639 H 34.352953 l -2.992238,-26.17884 z" />
    <path
       id="path-2"
       style="font-variation-settings:normal;vector-effect:none;fill:#784421;fill-opacity:1;stroke-width:1;stroke-linecap:butt;stroke-linejoin:miter;stroke-miterlimit:4;stroke-dasharray:none;stroke-dashoffset:0;stroke-opacity:1;-inkscape-stroke:none;stop-color:#000000"
       d="m 30.952457,215.85171 h 0.02689 c 0.303705,-1.77745 3.125669,-3.16971 6.561016,-3.16971 h 47.08219 c 3.436343,0 6.257311,1.39226 6.561016,3.16971 h 0.02688 l 0.816518,5.76546 h -62.02645 z" />
    <rect
       id="rect-1"
       ry="6.3068395"
       rx="6.5540462"
       style="fill:#ffd21c;stroke-width:0.976794"
       height="6.2225184"
       width="66.379883"
       y="219.71707"
       x="27.960209" />
    <rect
       id="rect-2"
       ry="13.097568"
       rx="13.610948"
       style="fill:#ffd21c;stroke-width:0.976794"
       height="10.568891"
       width="15.098603"
       y="217.84093"
       x="53.532143" />
    <path
       id="path-3"
       d="m 62.500899,225.18836 c 0.242964,0.60654 0.121482,0.90933 -0.362454,0.90933 h -2.390803 c -0.483936,0 -0.605418,-0.30279 -0.36345,-0.90933 l 1.058485,-2.64749 c -0.575545,-0.1581 -0.984799,-0.5615 -0.984799,-1.03389 0,-0.61037 0.681095,-1.1048 1.52151,-1.1048 0.83942,0 1.520515,0.49443 1.520515,1.1048 0,0.49059 -0.440123,0.90645 -1.049523,1.05018 z"
       style="stroke-width:0.976794" />
    <path
       id="path-4"
       style="font-variation-settings:normal;opacity:1;vector-effect:none;fill:#a05a2c;fill-opacity:1;stroke-width:1;stroke-linecap:butt;stroke-linejoin:miter;stroke-miterlimit:4;stroke-dasharray:none;stroke-dashoffset:0;stroke-opacity:1;-inkscape-stroke:none;stop-color:#000000;stop-opacity:1"
       d="m 30.952457,215.85171 h 0.02689 c 0.303705,-1.77745 3.125669,-3.16971 6.561016,-3.16971 h 47.08219 c 3.436343,0 6.257311,1.39226 6.561016,3.16971 h 0.02688 l 0.04481,0.31333 H 30.900677 Z" />
    <rect
       id="rect-3"
       ry="6.3068395"
       rx="6.5540462"
       style="fill:#ffd21c;stroke-width:0.976794"
       height="6.2225184"
       width="66.379883"
       y="237.39435"
       x="27.959997" />
  </g>
</svg>
