<?xml version="1.0" encoding="UTF-8" standalone="no"?>
<svg
   width="266.35281"
   height="95.898224"
   viewBox="0 0 266.35281 95.898224"
   version="1.1"
   xml:space="preserve"
   style="clip-rule:evenodd;fill-rule:evenodd;stroke-linecap:round;stroke-linejoin:round"
   id="svg191"
   sodipodi:docname="2023-CZ-03-taskbody.svg"
   inkscape:version="1.1.1 (3bf5ae0d25, 2021-09-20)"
   xmlns:inkscape="http://www.inkscape.org/namespaces/inkscape"
   xmlns:sodipodi="http://sodipodi.sourceforge.net/DTD/sodipodi-0.dtd"
   xmlns="http://www.w3.org/2000/svg"
   xmlns:svg="http://www.w3.org/2000/svg"><defs
   id="defs195">
            
        
            
        
            
        
            
        
            
        
            
        
            
        
            
        
            
        
            
        
            
        
            
        
            
        
            
        
            
        
            
            
            
            
            
        
            
            
            
            
            
            
            
            
            
            
            
            
            
            
            
        
            
        
                
            
                
            
                
            
                
            
                
            
                
            
                
            
                
            
                
            
                
            
                
            
                
            
                
            
                
            
                
            
                
            
                
            
                
            </defs><sodipodi:namedview
   id="namedview193"
   pagecolor="#ffffff"
   bordercolor="#666666"
   borderopacity="1.0"
   inkscape:pageshadow="2"
   inkscape:pageopacity="0.0"
   inkscape:pagecheckerboard="0"
   showgrid="false"
   showguides="true"
   inkscape:guide-bbox="true"
   inkscape:zoom="2.010274"
   inkscape:cx="71.632027"
   inkscape:cy="17.16184"
   inkscape:window-width="2048"
   inkscape:window-height="1017"
   inkscape:window-x="-8"
   inkscape:window-y="-8"
   inkscape:window-maximized="1"
   inkscape:current-layer="g189" />
    <g
   transform="translate(-339.53049,-281.7294)"
   id="g189">
        <path
   d="m 572.786,332.363 c -1.974,-0.06 -4.826,0.292 -9.234,0.986 -56.83,4.832 -173.4,-1.938 -222.634,0.072 -0.272,0.178 -0.438,0.474 -0.522,0.86 l -0.124,-0.022 c -0.958,0.562 -0.91,8.594 -0.298,10.626 2.62,8.696 15.584,27.852 17.728,28.34 42.816,9.24 167.324,0.992 214.2,1.46 6.096,-1.4 23.718,4.888 27.77,-2.018 0.478,-0.814 0.728,-5.398 0.39,-6.838 0.156,-0.194 0.3,-0.398 0.428,-0.618 0.528,-0.902 -4.16,-5.738 -4.682,-6.484 -3.18,-4.55 -7.064,-8.56 -10.692,-12.752 -8.384,-9.54 -6.406,-13.436 -12.328,-13.614 z"
   style="fill:#e6e6e6;fill-rule:nonzero;stroke-width:2"
   id="path2" />
        <path
   d="m 577.314,327.917 c -1.976,-0.06 -4.828,0.294 -9.234,0.988 -56.832,4.83 -173.402,-1.94 -222.636,0.07 -0.27,0.18 -0.438,0.476 -0.522,0.862 l -0.122,-0.02 c -0.958,0.56 -0.912,8.594 -0.3,10.626 2.622,8.694 15.586,27.852 17.728,28.338 42.816,9.24 167.326,0.994 214.2,1.462 6.098,-1.4 23.718,4.888 27.772,-2.018 0.476,-0.814 0.728,-5.398 0.39,-6.838 0.154,-0.194 0.298,-0.4 0.426,-0.618 0.53,-0.902 -4.16,-5.738 -4.68,-6.484 -3.182,-4.55 -7.066,-8.56 -10.694,-12.754 -8.384,-9.538 -6.404,-13.434 -12.328,-13.614 z"
   style="fill:#a7663a;fill-rule:nonzero;stroke-width:2"
   id="path5" />
        <path
   d="m 366.75197,342.02633 c -6.3751,9.64682 0.35868,14.44722 11.01724,15.70121 1.95244,0.23141 3.49756,-0.12388 5.39603,-0.13219 2.69141,-0.015 5.45265,0.20466 8.12622,-0.24522 6.32307,-1.06619 10.96935,-2.46236 16.82469,-4.66333 2.37588,-0.89322 10.20882,-3.26169 10.87428,-5.84856 0.66239,-2.57983 -5.52871,-4.50979 -7.75024,-5.24118"
   style="fill:#8c5c3c;fill-rule:nonzero;stroke-width:3.70749"
   id="path8" />
        <path
   d="m 589.642,341.531 c 3.628,4.192 7.512,8.204 10.692,12.754 0.522,0.746 5.212,5.582 4.682,6.482 -4.052,6.908 -21.676,0.62 -27.772,2.018 -46.876,-0.468 -171.384,7.78 -214.2,-1.46 -2.644,-0.602 -21.754,-29.614 -17.6,-32.348 49.234,-2.01 165.804,4.76 222.636,-0.072 17.63,-2.776 10.384,-0.094 21.562,12.626 z"
   style="fill:none;fill-rule:nonzero;stroke:#502d16;stroke-width:1.08;stroke-miterlimit:4;stroke-dasharray:none"
   id="path11" />
        <path
   d="m 605.058,360.549 c 0.522,0.746 0.264,6.318 -0.264,7.218 -4.054,6.908 -25.838,1.628 -31.934,3.026 -46.876,-0.466 -167.816,7.228 -210.632,-2.012 -2.144,-0.488 -15.106,-19.644 -17.726,-28.338 -0.614,-2.032 -0.66,-10.064 0.296,-10.626"
   style="fill:none;fill-rule:nonzero;stroke:#502d16;stroke-width:1.08;stroke-miterlimit:4;stroke-dasharray:none"
   id="path14" />
        <path
   d="m 443.24967,312.29436 c -2.43321,0.496 -3.49928,-1.30147 -4.42278,-3.09476 -0.14158,-0.27595 0.44154,1.42435 -0.18989,2.70458 -2.91864,6.7185 -8.6017,8.30226 -15.31829,9.52101 -1.88275,0.35635 -3.78613,0.51762 -5.66528,0.87682 -0.63814,0.12315 -1.28406,0.17274 -1.92795,0.24152 l -0.5491,0.0587 c 1.06879,-0.11417 2.19746,0.3377 3.3101,0.32557 6.68205,-0.0767 17.95991,-3.14096 22.48293,-7.94162 0.95705,-1.01424 1.86117,-1.27899 2.28026,-2.69178 z"
   style="fill:#552200;fill-rule:nonzero;stroke-width:3.25124"
   id="path17" />
        <path
   d="m 420.08645,322.58545 c 2.4066,1.50227 6.3465,3.87566 7.24493,6.8068 1.4492,4.73191 1.17997,13.84199 -1.61518,17.94709 -0.33144,0.49141 -2.24989,1.3852 -2.682,1.61247 -3.40659,1.79336 -12.17485,1.64656 -16.22601,1.18993 -8.52718,-2.14858 -17.3922,-3.20999 -25.6584,-4.3289 -2.00958,-0.28015 -4.21375,-1.68115 -5.29876,-3.37634 -2.08321,-3.25735 -7.89211,-20.33055 -6.87815,-23.83789 4.1494,-6.80146 10.29364,-12.86842 15.3912,-18.29965 7.78808,-8.15067 18.56057,-11.0866 28.97233,-6.55853 1.71138,0.74214 3.66504,0.83746 5.32999,1.67188 2.93948,1.47769 5.32146,6.46571 5.72634,9.44957 0.51425,3.76776 1.1613,8.00968 -0.51379,11.61028 -0.96185,2.06261 -3.42237,3.98776 -3.7925,6.11329 z"
   style="fill:#aa0000;fill-rule:nonzero;stroke-width:3.25124"
   id="path20" />
        <path
   d="m 419.51026,348.07341 c 2.12787,-2.88249 -0.0975,-6.57743 -3.46657,-7.3042 -2.75391,-0.59844 -5.81042,-0.96403 -8.63351,-1.06027 -4.19947,-0.14001 -12.81561,1.30752 -16.01512,-0.65985 -3.58127,-2.20149 -6.69722,-14.28432 -12.69271,-10.81082 -1.82208,1.0549 -4.99292,2.20213 -5.74569,4.39764 -1.41042,4.10272 5.56967,11.37442 8.99251,12.23451 3.81653,0.95711 8.05294,0.72773 11.94349,1.16594 3.69952,0.41334 7.2166,1.66439 10.93583,2.01418 3.22862,0.30517 11.47516,-1.82408 13.59646,1.19958"
   style="fill:#941a1a;fill-rule:nonzero;stroke-width:3.25124"
   id="path23" />
        
        <path
   d="m 419.41148,323.20411 c 3.48855,-1.36228 7.27001,-2.92402 10.95809,-1.30637 2.15252,0.94404 4.646,2.14273 6.19615,3.89172 1.4185,1.59812 2.76922,4.64912 3.08953,6.7397 0.0977,0.64285 -1.14876,5.51394 -1.69951,6.4007 -0.10988,0.17991 -1.68846,0.19329 -1.82708,0.19517 -5.6713,0.10128 -10.50442,-6.8726 -13.81909,-10.52233 -0.22419,-0.24448 -3.59456,-4.20197 -3.56931,-4.27581 0.14176,-0.40971 0.44628,-0.74947 0.67122,-1.12278 z"
   style="fill:#008000;fill-rule:nonzero;stroke-width:3.25124"
   id="path29" />
        <path
   d="m 418.97463,321.07423 c 7.89757,1.53991 17.12433,-0.32213 22.86848,-6.07792 1.31173,-1.31733 2.32716,-2.46718 2.63622,-4.29511 0.10062,-0.57995 -0.0374,-2.35365 0.0245,-1.76843 0.76486,7.23058 -4.3188,0.3255 -6.25701,0.53254 -0.38568,0.0412 0.30626,0.70789 0.35271,1.08455 0.17556,1.37838 0.3849,2.23246 -0.5966,3.35927 -2.23981,2.57427 -6.42002,4.1786 -9.4131,5.6626 -1.08658,0.53973 -12.03844,4.71731 -11.38885,1.45264"
   style="fill:none;fill-rule:nonzero;stroke:#000000;stroke-width:0.975574;stroke-miterlimit:4;stroke-dasharray:none"
   id="path32" />
        <path
   d="m 419.21989,323.39275 c 14.70758,-4.80266 24.42118,3.52734 17.60363,16.30163 -8.20083,-3.25068 -12.21438,-10.81986 -17.60363,-16.30163 -1.22671,-2.28483 2.26989,-4.78961 -0.24526,-2.31852"
   style="fill:none;fill-rule:nonzero;stroke:#000000;stroke-width:0.975574;stroke-miterlimit:4;stroke-dasharray:none"
   id="path35"
   sodipodi:nodetypes="cccc" />
        <path
   d="m 375.10675,327.90115 c -1.56504,0.1413 -5.2163,2.09016 -5.59792,2.26353"
   style="fill:none;fill-rule:nonzero;stroke:#000000;stroke-width:0.975574;stroke-miterlimit:4;stroke-dasharray:none"
   id="path38" />
        <path
   d="m 373.38174,325.06154 c -1.99823,1.17074 -4.20487,2.21498 -6.47047,2.76423"
   style="fill:none;fill-rule:nonzero;stroke:#000000;stroke-width:0.975574;stroke-miterlimit:4;stroke-dasharray:none"
   id="path41" />
        <path
   d="m 372.76528,323.7335 c -3.38257,-0.10439 -2.16735,0.13449 -3.72137,-0.21373"
   style="fill:none;fill-rule:nonzero;stroke:#000000;stroke-width:0.975574;stroke-miterlimit:4;stroke-dasharray:none"
   id="path44" />
        <path
   id="path1285"
   d="m 392.85201,309.79817 c -0.0464,1.0958 -0.0372,2.1903 0.0356,3.27261 0.21015,3.15452 0.80173,6.29627 1.64017,9.39579 -9.2075,-4.15493 -19.05934,-11.2942 -21.38194,-13.43135 -2.34734,-2.46004 -2.25916,-9.72198 -0.94336,-9.51899 z"
   style="fill:#808080;fill-rule:nonzero;stroke-width:0.975575" /><path
   d="m 391.12971,313.01906 -9.85051,-4.29775 c -0.64478,-0.63836 -1.20731,-2.78853 -0.2383,-2.3327 l 7.66823,2.72 c 1.51054,1.30131 2.74017,1.54752 2.42058,3.91045 z"
   style="fill:#bcbcbc;fill-rule:nonzero;stroke-width:1.95115"
   id="path48" /><path
   id="path1285-3"
   d="m 392.85752,309.68906 c -0.0526,1.13229 -0.0451,2.26346 0.0301,3.38172 0.20655,3.10858 0.7839,6.20483 1.60403,9.26171 -9.22812,-4.14795 -19.13382,-11.32476 -21.46363,-13.46823 l -0.94431,-9.51859 z"
   style="fill:none;fill-rule:nonzero;stroke:#000000;stroke-width:0.917041px" /><path
   d="m 376.47468,304.45082 c 1.90607,4.83482 2.40773,7.03196 1.5674,8.02802 -1.29877,1.54094 -6.52555,-0.67627 -8.47214,-2.17984 -2.63541,-2.03764 -5.31132,-2.81856 -7.9553,-4.57914 -3.29116,-2.18682 -6.49067,-4.15792 -9.74546,-5.5401 -0.75827,-0.32225 -4.27588,-2.54096 -5.16488,-2.72343 -3.8543,-0.7866 -6.30379,-9.56602 -4.7256,-13.23317 0.22384,-1.24545 2.79153,-2.38738 4.57716,-0.77324 1.62088,1.46533 3.32498,2.22013 5.03072,3.22659 7.28862,4.30318 14.52458,7.19252 21.81228,11.39622 0.73107,0.93263 1.93209,3.47583 3.07568,6.37582 z"
   style="fill:#2c2cd3;fill-opacity:1;fill-rule:nonzero;stroke-width:1.95115"
   id="path52"
   sodipodi:nodetypes="cccccccccccc" /><path
   id="path52-8"
   style="clip-rule:evenodd;fill:#1e3985;fill-opacity:1;fill-rule:nonzero;stroke-width:1.95115;stroke-linecap:round;stroke-linejoin:round"
   d="m 341.84665,289.89065 c 0.69271,3.30414 2.61783,7.10833 4.8574,7.56539 0.889,0.18247 4.40697,2.40131 5.16523,2.72356 3.2548,1.38218 6.45409,3.35293 9.74525,5.53974 2.64398,1.76059 5.32093,2.5423 7.95633,4.57994 1.94659,1.50357 7.17242,3.72142 8.47116,2.18048 0.84035,-0.99605 0.33832,-3.19363 -1.56776,-8.02846 l 6.8e-4,-0.003 c -1.14306,-2.89867 -2.34414,-5.43996 -3.07528,-6.37365 1.90608,4.83482 2.40728,7.03072 1.56695,8.02678 -1.29876,1.54093 -6.5255,-0.67441 -8.47209,-2.17798 -2.63541,-2.03764 -5.31235,-2.81934 -7.95633,-4.57993 -3.29117,-2.18682 -6.49045,-4.15755 -9.74525,-5.53975 -0.29183,-0.12402 -0.70958,-0.43845 -1.64139,-0.47558 -3.79359,2.26061 -3.26069,-2.18768 -5.30524,-3.43798 z"
   sodipodi:nodetypes="ccccccccccccccc" /><path
   d="m 346.70617,297.45952 c 3.31543,3.25298 -1.08095,-10.95259 -0.36647,-13.44865 -0.848,-2.24411 -1.24055,-1.12977 -2.89171,-1.55955 -4.20734,2.69943 -1.64348,14.49251 3.25818,15.0082 0,0 4.40488,2.40026 5.16314,2.72251 3.2548,1.38219 6.45417,3.35101 9.74546,5.5401 2.64198,1.75513 5.31963,2.53696 7.95503,4.5746 1.94846,1.50675 7.60418,4.08745 8.9028,2.54424 1.3442,-1.59388 -3.12183,-12.27849 -5.07374,-14.76824 -7.28757,-4.20143 -19.77068,-9.76096 -27.05916,-14.06186"
   style="fill:none;fill-rule:nonzero;stroke:#000000;stroke-width:1.44385px"
   id="path55"
   sodipodi:nodetypes="cccccccccc" />
        <path
   d="m 398.98288,293.11644 c -0.52697,0.74723 -1.08557,1.09221 -1.66851,1.79787 -1.38162,3.51904 -3.38392,6.83891 -4.05488,10.12214 -1.23115,6.21792 0.69664,17.79542 1.2322,17.29605"
   style="fill:none;stroke:#501616;stroke-width:1.95115px;stroke-miterlimit:1.5"
   id="path60"
   sodipodi:nodetypes="cccc" /><path
   d="m 582.60029,318.61525 c -1.5414,0.53342 -2.44492,-0.86479 -3.25437,-2.26735 -0.1242,-0.21585 0.45122,1.12979 0.18163,2.20092 -1.1554,5.59976 -4.70735,7.19009 -8.97923,8.54071 -1.19578,0.39054 -2.42722,0.62416 -3.62033,1.01676 -0.40505,0.13427 -0.82357,0.20924 -1.23854,0.29971 l -0.35382,0.0775 c 0.6888,-0.15033 1.48103,0.15463 2.21018,0.0846 4.37856,-0.42368 11.43621,-3.51596 13.86219,-7.64914 0.51351,-0.87329 1.07714,-1.13666 1.1923,-2.30367 z"
   style="clip-rule:evenodd;fill:#552200;fill-rule:nonzero;stroke-width:2.38459;stroke-linecap:round;stroke-linejoin:round"
   id="path17-9" /><path
   d="m 568.18442,328.74184 c 2.13619,-1.29219 4.44212,-2.76179 7.04678,-1.65116 1.5202,0.64819 3.2931,1.48416 4.50896,2.81692 1.11234,1.21769 2.34471,3.61583 2.7918,5.29181 0.13694,0.51541 -0.12978,4.52832 -0.39095,5.27638 -0.0518,0.15167 -1.0867,0.24795 -1.17751,0.25694 -3.71213,0.38894 -7.67522,-4.99821 -10.26488,-7.77504 -0.17489,-0.18589 -2.83597,-3.20898 -2.82775,-3.27016 0.0467,-0.33952 0.20812,-0.6312 0.31354,-0.94575 z"
   style="clip-rule:evenodd;fill:#008000;fill-rule:nonzero;stroke-width:2.38459;stroke-linecap:round;stroke-linejoin:round"
   id="path29-9" /><path
   d="m 567.65638,327.04033 c 5.35971,0.81993 11.20683,-1.18757 14.32641,-6.16045 0.71204,-1.13799 1.24851,-2.12429 1.24441,-3.62159 3.9e-4,-0.47518 -0.29112,-1.90437 -0.1842,-1.43371 1.32107,5.81521 -2.79874,0.49735 -4.04785,0.76994 -0.24867,0.0538 0.28125,0.55679 0.35441,0.85937 0.27139,1.10694 0.50551,1.78741 -0.0113,2.7532 -1.17903,2.2063 -3.74194,3.73198 -5.53904,5.09594 -0.65229,0.49597 -7.36982,4.47233 -7.31298,1.79315"
   style="clip-rule:evenodd;fill:none;fill-rule:nonzero;stroke:#000000;stroke-width:0.715525;stroke-linecap:round;stroke-linejoin:round;stroke-miterlimit:4;stroke-dasharray:none"
   id="path32-4" /><path
   d="m 568.08,328.905 c 9.11262,-4.68591 16.43368,1.53556 13.40422,12.25136 -5.75256,-2.18921 -9.24497,-8.10288 -13.40422,-12.25136 -1.06419,-1.78428 0.94791,-4.0023 -0.42356,-1.86468"
   style="clip-rule:evenodd;fill:none;fill-rule:nonzero;stroke:#000000;stroke-width:0.715525;stroke-linecap:round;stroke-linejoin:round;stroke-miterlimit:4;stroke-dasharray:none"
   id="path35-0"
   sodipodi:nodetypes="cccc" /><path
   d="m 522.35791,346.36689 c 28.75026,-2.0584 34.65486,-0.51722 42.31347,2.19 1.40835,0.49583 0.79671,0.911 1.41818,1.40299 0.87055,0.69761 2.5174,1.40342 1.98778,2.11481 -1.25962,1.68251 -4.14944,2.94471 -9.20669,4.55404 -2.05255,0.65301 -6.97171,2.78152 -15.03767,3.06313 -18.89408,3.88716 -29.87604,-1.27702 -21.47507,-13.32497 z"
   style="clip-rule:evenodd;fill:#8c5c3c;fill-rule:nonzero;stroke-width:3.40735;stroke-linecap:round;stroke-linejoin:round"
   id="path134-4"
   sodipodi:nodetypes="ccccccc" /><path
   d="m 576.43439,334.93995 c 0.67308,4.00058 -3.71991,14.46268 -10.14289,15.57778 -0.31372,0.3654 -1.93153,0.89334 -2.29855,1.03337 -2.89367,1.10528 -17.33277,7.37384 -20.51106,6.58142 -6.56932,-2.63392 -6.04333,-11.71711 -12.50948,-13.48614 -1.57115,-0.43668 -3.18337,-1.80555 -3.87489,-3.29751 -1.32747,-2.8667 -4.21768,-17.36144 -3.05446,-20.10981 3.99346,-5.10288 1.49797,-6.23522 6.10701,-10.12474 6.8722,-4.41902 18.51123,-7.41499 31.30112,-1.19845 10.32817,4.91736 9.70192,7.57675 10.91058,17.39843 0.3341,2.4209 3.25203,3.62843 4.07262,7.62565 z"
   style="clip-rule:evenodd;fill:#aa0000;fill-rule:nonzero;stroke-width:2.63769;stroke-linecap:round;stroke-linejoin:round"
   id="path20-9"
   sodipodi:nodetypes="ccccccccccc" />
        
        <path
   d="m 506.89258,344.46116 c -28.75026,-2.0584 -46.43837,-0.51722 -54.09698,2.19 -1.40835,0.49583 -0.79671,0.911 -1.41818,1.40299 -0.87055,0.69761 -2.5174,1.40342 -1.98778,2.11481 1.25962,1.68251 4.14944,2.94471 9.20669,4.55404 2.05255,0.65301 6.97171,2.78152 15.03767,3.06313 8.04453,0.28042 16.34516,-1.2413 19.44822,-1.78571 z"
   style="fill:#8c5c3c;fill-rule:nonzero;stroke-width:3.40735"
   id="path134" /><path
   d="m 486.40564,356.60469 c -13.31012,-2.81501 -26.40345,-6.00954 -22.54682,-20.35188 -0.0738,-1.01473 0.95597,-1.55289 0.65626,-2.56888 -0.52383,-1.77051 -1.8117,-3.90965 -1.49694,-5.81146 3.22015,-8.00701 11.77011,-13.83023 19.59652,-17.0097 3.08846,-1.45675 4.92319,-2.85374 8.242,-3.17524 3.59368,-0.38252 -1.87489,0.95079 -4.84862,5.14659 -3.10639,4.37999 -3.1211,13.29946 -4.06145,19.29591 -2.65139,16.8998 5.99823,24.80138 4.45905,24.47466 z"
   style="font-variation-settings:normal;vector-effect:none;fill:#aa0000;fill-opacity:1;fill-rule:nonzero;stroke:#aa0000;stroke-width:1.39656px;stroke-linecap:butt;stroke-linejoin:miter;stroke-miterlimit:4;stroke-dasharray:none;stroke-dashoffset:0;stroke-opacity:1;-inkscape-stroke:none;paint-order:fill markers stroke;stop-color:#000000"
   id="path144"
   sodipodi:nodetypes="ccccccccc" /><path
   d="m 463.7565,338.53837 c -1.36659,-0.0293 -3.21644,0.91109 -3.56309,1.02066"
   style="fill:none;fill-rule:nonzero;stroke:#000000;stroke-width:0.999999;stroke-miterlimit:4;stroke-dasharray:none"
   id="path147"
   sodipodi:nodetypes="cc" /><path
   d="m 463.85882,336.25281 c -1.84057,0.79472 -3.84908,1.46342 -5.86071,1.71059"
   style="fill:none;fill-rule:nonzero;stroke:#000000;stroke-width:0.999999;stroke-miterlimit:4;stroke-dasharray:none"
   id="path150" /><path
   d="m 463.45428,335.07852 c -2.91402,-0.40777 -1.8866,-0.0921 -3.19634,-0.53171"
   style="fill:none;fill-rule:nonzero;stroke:#000000;stroke-width:0.999999;stroke-miterlimit:4;stroke-dasharray:none"
   id="path153" /><path
   d="m 484.3622,354.23551 c -0.81302,-1.4537 -1.43451,-3.50037 -1.87691,-5.92793 -1.18594,-0.24648 -2.19021,-0.59558 -2.85803,-1.10275 -2.88226,-2.18896 -4.40883,-12.63794 -9.92635,-10.28671 -1.67745,0.71528 -6.27108,3.24539 -7.13479,5.0178 -1.6136,3.31291 3.73315,10.24592 6.60698,11.29083 3.20855,1.16671 13.91066,2.64225 17.23253,3.37794 1.1053,0.24522 -3.11203,-2.72109 -2.04343,-2.36918 z"
   style="fill:#941a1a;fill-rule:nonzero;stroke-width:0.836704"
   id="path156"
   sodipodi:nodetypes="cccccccc" />
    <ellipse
   style="font-variation-settings:normal;clip-rule:evenodd;vector-effect:none;fill:#fef388;fill-opacity:1;fill-rule:evenodd;stroke:#aa0000;stroke-width:1.39656px;stroke-linecap:butt;stroke-linejoin:miter;stroke-miterlimit:4;stroke-dasharray:none;stroke-dashoffset:0;stroke-opacity:1;-inkscape-stroke:none;paint-order:fill markers stroke;stop-color:#000000"
   id="path1357-32"
   cx="493.12741"
   cy="332.51627"
   rx="24.121197"
   ry="24.911589" /><path
   d="m 493.67633,334.16067 c 2.94163,0.75383 6.03179,6.95507 4.56538,10.22455 -4.89253,-2.84952 -5.62203,-5.47536 -4.56538,-10.22455 z"
   style="clip-rule:evenodd;fill:#fdc72b;fill-rule:evenodd;stroke-width:1.31713"
   id="path222" /><path
   d="m 492.95193,333.78741 c -0.6915,2.13771 -1.04644,2.6003 -2.2806,4.44786 -1.18183,1.76996 -4.27428,3.15902 -6.89977,3.32304 1.74482,-5.9495 4.91281,-8.2623 9.18037,-7.7709 z"
   style="clip-rule:evenodd;fill:#fdc72b;fill-rule:evenodd;stroke-width:1.31713"
   id="path286" /><path
   d="m 492.12291,332.36588 c -2.79701,0.34366 -4.70658,0.88285 -8.32528,-4.6473 -0.0726,-0.11198 -1.25416,-2.16758 -0.57236,-2.66671 0.49795,-0.36475 1.9321,0.11584 2.67816,0.36602 3.80794,1.27833 5.28023,3.25199 6.21948,6.94799 z"
   style="clip-rule:evenodd;fill:#fdc72b;fill-rule:evenodd;stroke-width:1.19307"
   id="path350" /><path
   d="m 494.29188,331.29379 c -0.27273,0.50837 -1.89789,-1.33497 -2.24767,-2.31141 -1.10178,-3.07871 -0.99961,-6.42312 1.02792,-10.19074 2.85709,4.36729 3.02569,9.13077 1.21975,12.50215 z"
   style="clip-rule:evenodd;fill:#fdc72b;fill-rule:evenodd;stroke-width:1.31712"
   id="path414" /><path
   d="m 499.52334,334.16842 c -1.63629,0.23924 -4.96244,-1.24083 -4.48122,-1.68641 2.56122,-2.37141 6.59204,-4.29206 10.63555,-2.63931 -2.02737,2.63395 -4.08039,4.02289 -6.15433,4.32572 z"
   style="clip-rule:evenodd;fill:#fdc72b;fill-rule:evenodd;stroke-width:1.31713"
   id="path478" /><path
   d="m 492.13491,334.1508 c -0.10975,0.3952 -0.29252,0.67807 -0.41654,1.05108 -0.52221,1.57169 -1.58841,2.9174 -2.7108,3.79343 -1.11701,0.87173 -3.4254,0.6824 -2.30953,-2.35999 0.29975,-0.81721 1.91805,-1.74322 4.1458,-2.17313 0.2461,-0.0475 0.83949,-0.3842 0.83949,-0.3842 0.25356,-0.0881 0.40411,-0.0639 0.45158,0.0728 z"
   style="clip-rule:evenodd;fill:none;fill-rule:evenodd;stroke-width:0.0853858"
   id="path1014" /><path
   d="m 492.13491,334.1508 c -0.10975,0.3952 -0.29252,0.67807 -0.41654,1.05108 -0.52221,1.57169 -1.58841,2.9174 -2.7108,3.79343 -1.11701,0.87173 -3.4254,0.6824 -2.30953,-2.35999 0.29975,-0.81721 1.91805,-1.74322 4.1458,-2.17313 0.2461,-0.0475 0.83949,-0.3842 0.83949,-0.3842 0.25356,-0.0881 0.40411,-0.0639 0.45158,0.0728 z"
   style="clip-rule:evenodd;fill:#613e0c;fill-rule:evenodd;stroke-width:0.0853858"
   id="path1016" /><path
   d="m 492.13491,334.1508 c -0.10975,0.3952 -0.29252,0.67807 -0.41654,1.05108 -0.52221,1.57169 -1.58841,2.9174 -2.7108,3.79343 -1.11701,0.87173 -3.4254,0.6824 -2.30953,-2.35999 0.29975,-0.81721 1.91805,-1.74322 4.1458,-2.17313 0.2461,-0.0475 0.83949,-0.3842 0.83949,-0.3842 0.25356,-0.0881 0.40411,-0.0639 0.45158,0.0728 z"
   style="clip-rule:evenodd;fill:#613e0c;fill-rule:evenodd;stroke-width:0.0853858"
   id="path1018" /><path
   d="m 492.11882,334.11517 c 0.006,0.0109 0.0116,0.0227 0.0161,0.0356 -0.10975,0.3952 -0.29252,0.67807 -0.41654,1.05108 -0.52221,1.57169 -1.58841,2.9174 -2.7108,3.79343 -0.79085,0.61718 -2.17885,0.70249 -2.52598,-0.37998 0.44023,0.85388 1.68439,0.77046 2.42702,0.21885 1.13968,-0.8465 2.23249,-2.16405 2.786,-3.7217 0.12656,-0.35613 0.30598,-0.6272 0.42421,-0.99731 z"
   style="clip-rule:evenodd;fill:#463012;fill-rule:evenodd;stroke-width:0.0853858"
   id="path1020" /><path
   d="m 486.56127,338.81023 c -0.22633,-0.44589 -0.23992,-1.14778 0.13677,-2.17491 0.29975,-0.81721 1.91805,-1.74322 4.1458,-2.17313 0.2461,-0.0475 0.83949,-0.3842 0.83949,-0.3842 0.25356,-0.0881 0.40411,-0.0639 0.45158,0.0728 -0.0548,0.1973 -0.12784,0.3667 -0.20264,0.53321 -0.0291,0.008 -0.0597,0.017 -0.0922,0.0283 0,0 -0.59138,0.35358 -0.83956,0.38424 -2.30628,0.28492 -3.82866,1.14674 -4.1284,1.96395 -0.23148,0.63102 -0.33289,1.34844 -0.31086,1.74975 z"
   style="clip-rule:evenodd;fill:#3a2200;fill-rule:evenodd;stroke-width:0.0853858"
   id="path1022" /><path
   d="m 490.92577,334.44033 c 0.27544,-0.0888 0.75756,-0.36234 0.75756,-0.36234 0.25356,-0.0881 0.40411,-0.0639 0.45158,0.0728 -0.0511,0.1838 -0.11796,0.34333 -0.18727,0.49892 -0.24074,0.21568 -0.51213,0.48426 -0.82525,0.47579 -0.0819,-0.002 -0.21017,0.0383 -0.28619,-0.008 -0.0506,-0.0307 -0.0479,-0.14101 -0.0576,-0.19275 -0.0339,-0.17877 0.0411,-0.34636 0.14717,-0.48462 z"
   style="clip-rule:evenodd;fill:#b98133;fill-rule:evenodd;stroke-width:0.0853858"
   id="path1024" /><path
   d="m 490.86673,335.61682 c -0.10013,-0.0345 -2.01397,1.40857 -2.12756,1.51604 -0.20647,0.19555 -0.41296,0.36256 -0.59749,0.58866 -0.19527,0.23925 -0.36642,0.53019 -0.12389,0.8206 0.27608,0.33068 0.73939,0.0698 1.01473,-0.10006 0.36878,-0.22764 0.76844,-0.58627 1.02304,-0.96827 0.14304,-0.21449 0.26157,-0.45293 0.41201,-0.6602 0.13406,-0.18465 0.32393,-0.31206 0.44292,-0.51231 0.0841,-0.14155 0.0885,-0.31608 0.0609,-0.4783 -0.0125,-0.0739 -0.0314,-0.18094 -0.10471,-0.20616 z"
   style="clip-rule:evenodd;fill:#997661;fill-rule:evenodd;stroke-width:0.0853858"
   id="path1026" /><path
   d="m 496.08262,332.69509 c 0.27059,-0.28848 0.57299,-0.45864 0.84969,-0.72381 1.16558,-1.11739 2.80931,-1.8584 4.32611,-2.19153 1.50949,-0.33144 3.84252,0.62948 1.47674,2.75587 -0.63548,0.57116 -2.6893,0.7728 -5.18284,0.35193 -0.27546,-0.0465 -1.02743,0.0251 -1.02743,0.0251 -0.29929,-0.0155 -0.44674,-0.088 -0.44227,-0.21756 z"
   style="clip-rule:evenodd;fill:none;fill-rule:evenodd;stroke-width:0.0853858"
   id="path1046" /><path
   d="m 496.08262,332.69509 c 0.27059,-0.28848 0.57299,-0.45864 0.84969,-0.72381 1.16558,-1.11739 2.80931,-1.8584 4.32611,-2.19153 1.50949,-0.33144 3.84252,0.62948 1.47674,2.75587 -0.63548,0.57116 -2.6893,0.7728 -5.18284,0.35193 -0.27546,-0.0465 -1.02743,0.0251 -1.02743,0.0251 -0.29929,-0.0155 -0.44674,-0.088 -0.44227,-0.21756 z"
   style="clip-rule:evenodd;fill:#613e0c;fill-rule:evenodd;stroke-width:0.0853858"
   id="path1048" /><path
   d="m 496.08262,332.69509 c 0.27059,-0.28848 0.57299,-0.45864 0.84969,-0.72381 1.16558,-1.11739 2.80931,-1.8584 4.32611,-2.19153 1.50949,-0.33144 3.84252,0.62948 1.47674,2.75587 -0.63548,0.57116 -2.6893,0.7728 -5.18284,0.35193 -0.27546,-0.0465 -1.02743,0.0251 -1.02743,0.0251 -0.29929,-0.0155 -0.44674,-0.088 -0.44227,-0.21756 z"
   style="clip-rule:evenodd;fill:#613e0c;fill-rule:evenodd;stroke-width:0.0853858"
   id="path1050" /><path
   d="m 496.08533,332.73015 c -0.002,-0.0111 -0.003,-0.0228 -0.003,-0.0351 0.27059,-0.28848 0.57299,-0.45864 0.84969,-0.72381 1.16558,-1.11739 2.80931,-1.8584 4.32611,-2.19153 1.06872,-0.23465 2.55021,0.17849 2.48468,1.19436 -0.12187,-0.85933 -1.45259,-1.22391 -2.44511,-1.02666 -1.52317,0.30269 -3.18353,1.01115 -4.37621,2.10602 -0.27269,0.25032 -0.56692,0.4119 -0.83645,0.67668 z"
   style="clip-rule:evenodd;fill:#463012;fill-rule:evenodd;stroke-width:0.0853858"
   id="path1052" /><path
   d="m 503.73699,330.78522 c 0.0599,0.44749 -0.20316,1.03251 -1.00183,1.7504 -0.63548,0.57116 -2.6893,0.7728 -5.18284,0.35193 -0.27546,-0.0465 -1.02743,0.0251 -1.02743,0.0251 -0.29929,-0.0155 -0.44674,-0.088 -0.44227,-0.21756 0.13508,-0.14402 0.27821,-0.25861 0.422,-0.3702 0.0333,0.004 0.069,0.007 0.10732,0.009 0,0 0.75654,-0.0862 1.02752,-0.0251 2.51818,0.5681 4.44659,0.3861 5.08207,-0.18506 0.49072,-0.44102 0.8799,-0.9988 1.01546,-1.33825 z"
   style="clip-rule:evenodd;fill:#3a2200;fill-rule:evenodd;stroke-width:0.0853858"
   id="path1054" /><path
   d="m 497.45822,332.87707 c -0.32238,-0.0226 -0.93333,0.0356 -0.93333,0.0356 -0.29929,-0.0155 -0.44674,-0.088 -0.44227,-0.21756 0.12588,-0.13416 0.25867,-0.24274 0.39243,-0.34721 0.33631,-0.0944 0.72549,-0.22189 1.04875,-0.10579 0.0845,0.0304 0.23434,0.0416 0.29543,0.10619 0.0407,0.043 -0.006,0.13325 -0.0161,0.17943 -0.0353,0.1596 -0.17964,0.27204 -0.34495,0.34936 z"
   style="clip-rule:evenodd;fill:#b98133;fill-rule:evenodd;stroke-width:0.0853858"
   id="path1056" /><path
   d="m 497.98455,331.92501 c 0.0908,0.0634 2.65716,-0.46272 2.8181,-0.51198 0.29262,-0.0897 0.57397,-0.15583 0.85577,-0.27846 0.2982,-0.12975 0.59165,-0.31064 0.45339,-0.63524 -0.15734,-0.36959 -0.74368,-0.31533 -1.09797,-0.27087 -0.47458,0.0597 -1.03313,0.2169 -1.4496,0.444 -0.23394,0.12748 -0.45177,0.2833 -0.69056,0.40223 -0.21279,0.10594 -0.46117,0.14511 -0.66438,0.2692 -0.14364,0.0877 -0.21716,0.23049 -0.25252,0.37419 -0.0161,0.0655 -0.0388,0.16052 0.0278,0.20693 z"
   style="clip-rule:evenodd;fill:#997661;fill-rule:evenodd;stroke-width:0.0853858"
   id="path1058" /><path
   d="m 493.79794,334.63419 c 0.33967,0.20264 0.57056,0.46164 0.88877,0.67524 1.3408,0.89965 2.41619,2.34689 3.06598,3.75736 0.64659,1.40369 0.20683,3.88824 -2.3763,2.03193 -0.69385,-0.49864 -1.33004,-2.46182 -1.45216,-4.98768 -0.0135,-0.27903 -0.24423,-0.99829 -0.24423,-0.99829 -0.0489,-0.29568 -0.01,-0.45523 0.11794,-0.47856 z"
   style="clip-rule:evenodd;fill:none;fill-rule:evenodd;stroke-width:0.0853858;stroke-linecap:round;stroke-linejoin:round"
   id="path1046-6" /><path
   d="m 493.79794,334.63419 c 0.33967,0.20264 0.57056,0.46164 0.88877,0.67524 1.3408,0.89965 2.41619,2.34689 3.06598,3.75736 0.64659,1.40369 0.20683,3.88824 -2.3763,2.03193 -0.69385,-0.49864 -1.33004,-2.46182 -1.45216,-4.98768 -0.0135,-0.27903 -0.24423,-0.99829 -0.24423,-0.99829 -0.0489,-0.29568 -0.01,-0.45523 0.11794,-0.47856 z"
   style="clip-rule:evenodd;fill:#613e0c;fill-rule:evenodd;stroke-width:0.0853858;stroke-linecap:round;stroke-linejoin:round"
   id="path1048-8" /><path
   d="m 493.79794,334.63419 c 0.33967,0.20264 0.57056,0.46164 0.88877,0.67524 1.3408,0.89965 2.41619,2.34689 3.06598,3.75736 0.64659,1.40369 0.20683,3.88824 -2.3763,2.03193 -0.69385,-0.49864 -1.33004,-2.46182 -1.45216,-4.98768 -0.0135,-0.27903 -0.24423,-0.99829 -0.24423,-0.99829 -0.0489,-0.29568 -0.01,-0.45523 0.11794,-0.47856 z"
   style="clip-rule:evenodd;fill:#613e0c;fill-rule:evenodd;stroke-width:0.0853858;stroke-linecap:round;stroke-linejoin:round"
   id="path1050-5" /><path
   d="m 493.76426,334.64433 c 0.0104,-0.005 0.0216,-0.008 0.0337,-0.0101 0.33967,0.20264 0.57056,0.46164 0.88877,0.67524 1.3408,0.89965 2.41619,2.34689 3.06598,3.75736 0.45778,0.99381 0.37102,2.52939 -0.63537,2.68262 0.81339,-0.30283 0.88496,-1.68072 0.48002,-2.6081 -0.62142,-1.42321 -1.66857,-2.89365 -2.99317,-3.82459 -0.30284,-0.21285 -0.52361,-0.46572 -0.83991,-0.67239 z"
   style="clip-rule:evenodd;fill:#463012;fill-rule:evenodd;stroke-width:0.0853858;stroke-linecap:round;stroke-linejoin:round"
   id="path1052-9" /><path
   d="m 497.30054,341.70304 c -0.42432,0.15425 -1.05207,0.0224 -1.92415,-0.60432 -0.69385,-0.49864 -1.33004,-2.46182 -1.45216,-4.98768 -0.0135,-0.27903 -0.24423,-0.99829 -0.24423,-0.99829 -0.0489,-0.29568 -0.01,-0.45523 0.11794,-0.47856 0.16957,0.10115 0.31212,0.21647 0.45188,0.33306 0.003,0.0334 0.008,0.0689 0.0144,0.10671 0,0 0.24604,0.7206 0.24427,0.99838 -0.0164,2.58142 0.57374,4.42629 1.26759,4.92492 0.53576,0.38506 1.16387,0.64595 1.52445,0.70578 z"
   style="clip-rule:evenodd;fill:#3a2200;fill-rule:evenodd;stroke-width:0.0853858;stroke-linecap:round;stroke-linejoin:round"
   id="path1054-9" /><path
   d="m 493.91434,336.01688 c -0.0469,-0.31975 -0.23434,-0.90413 -0.23434,-0.90413 -0.0489,-0.29568 -0.01,-0.45523 0.11794,-0.47856 0.15797,0.0943 0.29244,0.20077 0.4231,0.30909 0.16416,0.30834 0.37191,0.66126 0.32762,1.00187 -0.0116,0.0891 0.009,0.23782 -0.0406,0.31131 -0.0333,0.0489 -0.1314,0.0228 -0.17871,0.0227 -0.16345,-3e-4 -0.30416,-0.1173 -0.41505,-0.26225 z"
   style="clip-rule:evenodd;fill:#b98133;fill-rule:evenodd;stroke-width:0.0853858;stroke-linecap:round;stroke-linejoin:round"
   id="path1056-1" /><path
   d="m 494.95694,336.32743 c -0.0425,0.10227 1.02025,2.49674 1.1028,2.64341 0.15021,0.26667 0.27497,0.52738 0.45502,0.77643 0.19052,0.26355 0.42998,0.51153 0.71751,0.30705 0.32739,-0.23273 0.149,-0.79391 0.0298,-1.13049 -0.1598,-0.45085 -0.43283,-0.96285 -0.74373,-1.32112 -0.17457,-0.20127 -0.37336,-0.38073 -0.54062,-0.58857 -0.14899,-0.1852 -0.24037,-0.41946 -0.40505,-0.59144 -0.1164,-0.12156 -0.27159,-0.16284 -0.41953,-0.16665 -0.0674,-0.002 -0.16509,-0.004 -0.1962,0.0714 z"
   style="clip-rule:evenodd;fill:#997661;fill-rule:evenodd;stroke-width:0.0853858;stroke-linecap:round;stroke-linejoin:round"
   id="path1058-3" /><ellipse
   style="font-variation-settings:normal;clip-rule:evenodd;vector-effect:none;fill:#fef388;fill-opacity:1;fill-rule:evenodd;stroke:#aa0000;stroke-width:1.329px;stroke-linecap:butt;stroke-linejoin:miter;stroke-miterlimit:4;stroke-dasharray:none;stroke-dashoffset:0;stroke-opacity:1;-inkscape-stroke:none;paint-order:fill markers stroke;stop-color:#000000"
   id="path1357-32-6"
   cx="542.41266"
   cy="338.80469"
   rx="21.843834"
   ry="24.911589"
   transform="matrix(0.99993855,-0.01108613,0,1,0,0)" /><path
   d="m 542.87641,334.43036 c 2.66375,0.7243 5.46199,6.89451 4.13411,10.17871 -4.43035,-2.8004 -5.09092,-5.41891 -4.13411,-10.17871 z"
   style="clip-rule:evenodd;fill:#fdc72b;fill-rule:evenodd;stroke-width:1.25337;stroke-linecap:round;stroke-linejoin:round"
   id="path222-6" /><path
   d="m 542.22046,334.06434 c -0.62617,2.14465 -0.94758,2.61081 -2.06515,4.47076 -1.07019,1.78182 -3.8705,3.20192 -6.24796,3.3923 1.57999,-5.96701 4.44871,-8.31162 8.31311,-7.86306 z"
   style="clip-rule:evenodd;fill:#fdc72b;fill-rule:evenodd;stroke-width:1.25337;stroke-linecap:round;stroke-linejoin:round"
   id="path286-6" /><path
   d="m 541.46975,332.65114 c -2.53279,0.37174 -4.26195,0.9301 -7.53881,-4.56372 -0.0657,-0.11125 -1.13568,-2.15499 -0.51827,-2.66097 0.4509,-0.36974 1.74957,0.0965 2.42514,0.33914 3.44821,1.2401 4.78141,3.19898 5.63194,6.88555 z"
   style="clip-rule:evenodd;fill:#fdc72b;fill-rule:evenodd;stroke-width:1.13532;stroke-linecap:round;stroke-linejoin:round"
   id="path350-5" /><path
   d="m 543.4338,331.55725 c -0.24695,0.51111 -1.7186,-1.31591 -2.03533,-2.28884 -0.9977,-3.06765 -0.90518,-6.41308 0.93082,-10.20106 2.58718,4.33861 2.73986,9.1004 1.10451,12.4899 z"
   style="clip-rule:evenodd;fill:#fdc72b;fill-rule:evenodd;stroke-width:1.25337;stroke-linecap:round;stroke-linejoin:round"
   id="path414-2" /><path
   d="m 548.17107,334.37939 c -1.48171,0.25566 -4.49364,-1.19101 -4.05787,-1.64142 2.31926,-2.39713 5.96929,-4.35825 9.63082,-2.74609 -1.83586,2.65431 -3.69492,4.06385 -5.57295,4.38751 z"
   style="clip-rule:evenodd;fill:#fdc72b;fill-rule:evenodd;stroke-width:1.25337;stroke-linecap:round;stroke-linejoin:round"
   id="path478-4" /><path
   d="m 539.87863,332.39421 c -0.40669,-0.14033 -0.68754,-0.32896 -1.0694,-0.4787 -1.60895,-0.63066 -2.92579,-1.69442 -3.74097,-2.74929 -0.81115,-1.04981 -0.38449,-2.9801 2.71974,-1.67047 0.83381,0.3518 1.65309,1.83224 1.88847,3.76872 0.026,0.21392 0.32341,0.75643 0.32341,0.75643 0.0682,0.22511 0.0278,0.34957 -0.12125,0.37331 z"
   style="clip-rule:evenodd;fill:none;fill-rule:evenodd;stroke-width:0.0812527;stroke-linecap:round;stroke-linejoin:round"
   id="path1014-3" /><path
   d="m 539.87863,332.39421 c -0.40669,-0.14033 -0.68754,-0.32896 -1.0694,-0.4787 -1.60895,-0.63066 -2.92579,-1.69442 -3.74097,-2.74929 -0.81115,-1.04981 -0.38449,-2.9801 2.71974,-1.67047 0.83381,0.3518 1.65309,1.83224 1.88847,3.76872 0.026,0.21392 0.32341,0.75643 0.32341,0.75643 0.0682,0.22511 0.0278,0.34957 -0.12125,0.37331 z"
   style="clip-rule:evenodd;fill:#613e0c;fill-rule:evenodd;stroke-width:0.0812527;stroke-linecap:round;stroke-linejoin:round"
   id="path1016-6" /><path
   d="m 539.87863,332.39421 c -0.40669,-0.14033 -0.68754,-0.32896 -1.0694,-0.4787 -1.60895,-0.63066 -2.92579,-1.69442 -3.74097,-2.74929 -0.81115,-1.04981 -0.38449,-2.9801 2.71974,-1.67047 0.83381,0.3518 1.65309,1.83224 1.88847,3.76872 0.026,0.21392 0.32341,0.75643 0.32341,0.75643 0.0682,0.22511 0.0278,0.34957 -0.12125,0.37331 z"
   style="clip-rule:evenodd;fill:#613e0c;fill-rule:evenodd;stroke-width:0.0812527;stroke-linecap:round;stroke-linejoin:round"
   id="path1018-5" /><path
   d="m 539.91784,332.38488 c -0.0121,0.004 -0.0251,0.007 -0.0393,0.009 -0.40669,-0.14033 -0.68754,-0.32896 -1.0694,-0.4787 -1.60896,-0.63066 -2.92579,-1.69442 -3.74097,-2.74929 -0.57429,-0.74326 -0.52812,-1.92785 0.64942,-2.09149 -0.94522,0.26987 -0.97925,1.33253 -0.46949,2.02712 0.78228,1.06595 2.06675,2.14884 3.65782,2.8043 0.36375,0.14986 0.63249,0.33423 1.01183,0.47873 z"
   style="clip-rule:evenodd;fill:#463012;fill-rule:evenodd;stroke-width:0.0812527;stroke-linecap:round;stroke-linejoin:round"
   id="path1020-5" /><path
   d="m 535.50398,327.11872 c 0.49323,-0.13791 1.23601,-0.0651 2.28402,0.37703 0.83381,0.3518 1.65309,1.83224 1.88847,3.76872 0.026,0.21392 0.32341,0.75643 0.32341,0.75643 0.0682,0.22511 0.0278,0.34957 -0.12125,0.37331 -0.20304,-0.07 -0.37481,-0.15222 -0.54334,-0.23551 -0.005,-0.0255 -0.0121,-0.0526 -0.0209,-0.0814 0,0 -0.31543,-0.54284 -0.32345,-0.7565 -0.0745,-1.98549 -0.8354,-3.37707 -1.66922,-3.72886 -0.64384,-0.27166 -1.39174,-0.44366 -1.81781,-0.47324 z"
   style="clip-rule:evenodd;fill:#3a2200;fill-rule:evenodd;stroke-width:0.0812527;stroke-linecap:round;stroke-linejoin:round"
   id="path1022-5" /><path
   d="m 539.69152,331.33641 c 0.0667,0.24371 0.30836,0.68449 0.30836,0.68449 0.0682,0.22511 0.0278,0.34957 -0.12125,0.37331 -0.18914,-0.0653 -0.35109,-0.14105 -0.50864,-0.21839 -0.20419,-0.22959 -0.46125,-0.49147 -0.42157,-0.75538 0.0106,-0.069 -0.0198,-0.18241 0.0364,-0.24119 0.0373,-0.0391 0.15365,-0.0235 0.20927,-0.0256 0.19217,-0.007 0.36185,0.0763 0.49747,0.18273 z"
   style="clip-rule:evenodd;fill:#b98133;fill-rule:evenodd;stroke-width:0.0812527;stroke-linecap:round;stroke-linejoin:round"
   id="path1024-6" /><path
   d="m 538.45454,331.14511 c 0.0463,-0.0806 -1.29017,-1.87319 -1.39255,-1.9822 -0.18628,-0.19819 -0.34242,-0.39296 -0.56315,-0.57625 -0.23355,-0.19396 -0.52407,-0.37372 -0.85466,-0.20341 -0.37643,0.19385 -0.14631,0.61719 0.006,0.87055 0.20425,0.33936 0.54384,0.72059 0.92236,0.98189 0.21254,0.1468 0.45277,0.27573 0.65695,0.42791 0.18188,0.13562 0.29782,0.31157 0.49767,0.4363 0.14127,0.0882 0.32521,0.11284 0.49927,0.10903 0.0794,-0.002 0.19421,-0.005 0.22805,-0.0638 z"
   style="clip-rule:evenodd;fill:#997661;fill-rule:evenodd;stroke-width:0.0812527;stroke-linecap:round;stroke-linejoin:round"
   id="path1026-2" /><path
   d="m 542.80633,330.30129 c -0.23842,-0.29601 -0.34806,-0.58859 -0.56115,-0.8838 -0.89797,-1.24361 -1.30454,-2.78783 -1.31854,-4.12478 -0.0138,-1.33049 1.48208,-3.01703 3.15889,-0.52841 0.4504,0.66848 0.21245,2.41615 -0.76208,4.3709 -0.10766,0.21594 -0.19708,0.85525 -0.19708,0.85525 -0.0809,0.24341 -0.1876,0.34705 -0.32004,0.31084 z"
   style="clip-rule:evenodd;fill:none;fill-rule:evenodd;stroke-width:0.0812526;stroke-linecap:round;stroke-linejoin:round"
   id="path1046-0" /><path
   d="m 542.80633,330.30129 c -0.23842,-0.29601 -0.34806,-0.58859 -0.56115,-0.8838 -0.89797,-1.24361 -1.30454,-2.78783 -1.31854,-4.12478 -0.0138,-1.33049 1.48208,-3.01703 3.15889,-0.52841 0.4504,0.66848 0.21245,2.41615 -0.76208,4.3709 -0.10766,0.21594 -0.19708,0.85525 -0.19708,0.85525 -0.0809,0.24341 -0.1876,0.34705 -0.32004,0.31084 z"
   style="clip-rule:evenodd;fill:#613e0c;fill-rule:evenodd;stroke-width:0.0812526;stroke-linecap:round;stroke-linejoin:round"
   id="path1048-4" /><path
   d="m 542.80633,330.30129 c -0.23842,-0.29601 -0.34806,-0.58859 -0.56115,-0.8838 -0.89797,-1.24361 -1.30454,-2.78783 -1.31854,-4.12478 -0.0138,-1.33049 1.48208,-3.01703 3.15889,-0.52841 0.4504,0.66848 0.21245,2.41615 -0.76208,4.3709 -0.10766,0.21594 -0.19708,0.85525 -0.19708,0.85525 -0.0809,0.24341 -0.1876,0.34705 -0.32004,0.31084 z"
   style="clip-rule:evenodd;fill:#613e0c;fill-rule:evenodd;stroke-width:0.0812526;stroke-linecap:round;stroke-linejoin:round"
   id="path1050-52" /><path
   d="m 542.84303,330.30785 c -0.012,-9.7e-4 -0.0241,-0.003 -0.0367,-0.007 -0.23842,-0.29601 -0.34806,-0.58859 -0.56115,-0.8838 -0.89797,-1.24361 -1.30454,-2.78783 -1.31854,-4.12478 -0.01,-0.94198 0.73717,-2.06242 1.76928,-1.75325 -0.91153,-0.11502 -1.57578,0.89302 -1.58797,1.76265 -0.0187,1.33457 0.3507,2.88437 1.21961,4.14472 0.19865,0.28815 0.30124,0.57184 0.51547,0.86102 z"
   style="clip-rule:evenodd;fill:#463012;fill-rule:evenodd;stroke-width:0.0812526;stroke-linecap:round;stroke-linejoin:round"
   id="path1052-3" /><path
   d="m 542.50004,323.49709 c 0.47391,0.0628 1.01937,0.42706 1.58549,1.26721 0.4504,0.66848 0.21245,2.41615 -0.76208,4.3709 -0.10766,0.21594 -0.19708,0.85525 -0.19708,0.85525 -0.0809,0.24341 -0.1876,0.34705 -0.32004,0.31084 -0.11903,-0.14777 -0.206,-0.29481 -0.28974,-0.44163 0.0113,-0.0266 0.0219,-0.0554 0.0322,-0.0865 0,0 0.0753,-0.64677 0.1971,-0.85533 1.13152,-1.93815 1.36248,-3.57726 0.91209,-4.24574 -0.34777,-0.51619 -0.83782,-0.97779 -1.15804,-1.17501 z"
   style="clip-rule:evenodd;fill:#3a2200;fill-rule:evenodd;stroke-width:0.0812526;stroke-linecap:round;stroke-linejoin:round"
   id="path1054-94" /><path
   d="m 543.29224,329.21032 c -0.0932,0.26071 -0.16587,0.78013 -0.16587,0.78013 -0.0809,0.24341 -0.1876,0.34705 -0.32004,0.31084 -0.11087,-0.13769 -0.19389,-0.27468 -0.27247,-0.41143 -0.0243,-0.30159 -0.0712,-0.65517 0.1186,-0.89313 0.0497,-0.0622 0.0937,-0.18319 0.17347,-0.21746 0.0531,-0.0228 0.13599,0.0382 0.18132,0.0583 0.15674,0.0692 0.24122,0.21673 0.28499,0.37273 z"
   style="clip-rule:evenodd;fill:#b98133;fill-rule:evenodd;stroke-width:0.0812526;stroke-linecap:round;stroke-linejoin:round"
   id="path1056-9" /><path
   d="m 542.42584,328.53641 c 0.085,-0.0591 0.0999,-2.31174 0.0842,-2.45709 -0.029,-0.26431 -0.036,-0.51339 -0.10109,-0.77702 -0.0689,-0.27897 -0.19157,-0.56686 -0.55591,-0.5341 -0.41481,0.0372 -0.48614,0.53533 -0.51722,0.83924 -0.0415,0.40714 -7.6e-4,0.90813 0.14277,1.30926 0.0806,0.22531 0.19377,0.44441 0.26446,0.67158 0.063,0.20242 0.0494,0.41748 0.13311,0.61655 0.0592,0.14071 0.19027,0.2373 0.33062,0.30259 0.0639,0.0298 0.15692,0.0723 0.21915,0.029 z"
   style="clip-rule:evenodd;fill:#997661;fill-rule:evenodd;stroke-width:0.0812526;stroke-linecap:round;stroke-linejoin:round"
   id="path1058-8" /></g>
</svg>
