<?xml version="1.0" encoding="UTF-8"?>
<!--?xml version="1.0" encoding="UTF-8"?-->
<!-- Created with Inkscape (http://www.inkscape.org/) -->
<svg id="svg360" width="446.5mm" height="309.71mm" version="1.1" viewBox="0 0 446.5 309.71" xmlns="http://www.w3.org/2000/svg" xmlns:serif="http://www.serif.com/">
 <g id="g358" transform="translate(146.44,72.926)">
  <g id="g14" class="csvg-group">
   <g id="g6" class="csvg-button">
    <path id="path2" d="m-33.818-1.4023-6.4219 10.025 249.54 159.83 6.4219-10.025z" style="-inkscape-stroke:none;clip-rule:evenodd;color:#000000;fill-opacity:0;font-variation-settings:normal;stop-color:#000000;stroke-linejoin:round;stroke-miterlimit:1.5"/>
    <path id="path4" d="M 212.51,163.44 -37.03,3.61" style="-inkscape-stroke:none;clip-rule:evenodd;fill:none;font-variation-settings:normal;stop-color:#000000;stroke-linecap:round;stroke-linejoin:round;stroke-miterlimit:1.5;stroke:#515151"/>
   </g>
   <g id="g12" class="csvg-button">
    <path id="path8" d="m-37.785.16211a3.5278 3.5278 0 00-2.2148 1.543 3.5278 3.5278 0 001.0684 4.873l249.54 159.83a3.5278 3.5278 0 004.873-1.0684 3.5278 3.5278 0 00-1.0664-4.873l-249.54-159.83a3.5278 3.5278 0 00-2.6582-.47461z" style="-inkscape-stroke:none;clip-rule:evenodd;color:#000000;fill-rule:evenodd;fill:#6bb418;stroke-linecap:round;stroke-linejoin:round;stroke-miterlimit:1.5"/>
    <path id="path10" d="M 212.51,163.44 -37.03,3.61" style="clip-rule:evenodd;fill:none;stroke-linecap:round;stroke-linejoin:round;stroke-miterlimit:1.5;stroke-width:2.7437px;stroke:#000000"/>
   </g>
  </g>
  <g id="g28" class="csvg-group">
   <g id="g20" class="csvg-button">
    <path id="path16" d="m174.86 4.2598-221 154.33 6.8164 9.7617 221-154.33z" style="-inkscape-stroke:none;clip-rule:evenodd;color:#000000;fill-opacity:0;font-variation-settings:normal;stop-color:#000000;stroke-linejoin:round;stroke-miterlimit:1.5"/>
    <path id="path18" d="m-42.735 163.47 221-154.33" style="-inkscape-stroke:none;clip-rule:evenodd;fill:none;font-variation-settings:normal;stop-color:#000000;stroke-linecap:round;stroke-linejoin:round;stroke-miterlimit:1.5;stroke:#515151"/>
   </g>
   <g id="g26" class="csvg-button">
    <path id="path22" d="m178.88 5.666a3.5278 3.5278 0 00-2.6367.58008l-221 154.33a3.5278 3.5278 0 00-.87305 4.9121 3.5278 3.5278 0 004.9121.87109l221-154.33a3.5278 3.5278 0 00.87305-4.9121 3.5278 3.5278 0 00-2.2754-1.4531z" style="-inkscape-stroke:none;clip-rule:evenodd;color:#000000;fill-rule:evenodd;fill:#6bb418;stroke-linecap:round;stroke-linejoin:round;stroke-miterlimit:1.5"/>
    <path id="path24" d="m-42.735 163.47 221-154.33" style="clip-rule:evenodd;fill:none;stroke-linecap:round;stroke-linejoin:round;stroke-miterlimit:1.5;stroke-width:2.7437px;stroke:#000000"/>
   </g>
  </g>
  <g id="g42" class="csvg-group">
   <g id="g34" class="csvg-button">
    <path id="path30" d="m238.18 12.211-11.416 3.3809 44.289 149.53 11.416-3.3809z" style="-inkscape-stroke:none;clip-rule:evenodd;color:#000000;fill-opacity:0;font-variation-settings:normal;stop-color:#000000;stroke-linejoin:round;stroke-miterlimit:1.5"/>
    <path id="path32" d="m232.47 13.901 44.289 149.53" style="-inkscape-stroke:none;clip-rule:evenodd;fill:none;font-variation-settings:normal;stop-color:#000000;stroke-linecap:round;stroke-linejoin:round;stroke-miterlimit:1.5;stroke:#515151"/>
   </g>
   <g id="g40" class="csvg-button">
    <path id="path36" d="m231.5 10.511c-1.8724.53737-2.9549 2.4907-2.418 4.3633l44.289 149.53c.53737 1.8724 2.4907 2.9549 4.3633 2.418 1.8724-.53737 2.9549-2.4907 2.418-4.3633l-44.289-149.53c-.53737-1.8724-2.4907-2.9549-4.3633-2.418z" style="-inkscape-stroke:none;clip-rule:evenodd;color:#000000;fill-rule:evenodd;fill:#6bb418;stroke-linecap:round;stroke-linejoin:round;stroke-miterlimit:1.5"/>
    <path id="path38" d="m232.47 13.901 44.289 149.53" style="clip-rule:evenodd;fill:none;stroke-linecap:round;stroke-linejoin:round;stroke-miterlimit:1.5;stroke-width:2.7437px;stroke:#000000"/>
   </g>
  </g>
  <g id="g56" class="csvg-group">
   <g id="g48" class="csvg-button">
    <path id="path44" d="m225.5 14.922-11.906.07617.9707 148.48 11.906-.0781z" style="-inkscape-stroke:none;clip-rule:evenodd;color:#000000;fill-opacity:0;font-variation-settings:normal;stop-color:#000000;stroke-linejoin:round;stroke-miterlimit:1.5"/>
    <path id="path46" d="m219.55 14.96.97102 148.48" style="-inkscape-stroke:none;clip-rule:evenodd;fill:none;font-variation-settings:normal;stop-color:#000000;stroke-linecap:round;stroke-linejoin:round;stroke-miterlimit:1.5;stroke:#515151"/>
   </g>
   <g id="g54" class="csvg-button">
    <path id="path50" d="m219.53 11.432c-1.948.01207-3.5175 1.6008-3.5059 3.5488l.97071 148.48c.0121 1.9488 1.602 3.5186 3.5508 3.5059 1.948-.0121 3.5175-1.6008 3.5059-3.5488l-.97071-148.48c-.0121-1.9488-1.602-3.5186-3.5508-3.5059z" style="-inkscape-stroke:none;clip-rule:evenodd;color:#000000;fill-rule:evenodd;fill:#6bb418;stroke-linecap:round;stroke-linejoin:round;stroke-miterlimit:1.5"/>
    <path id="path52" d="m219.55 14.96.97102 148.48" style="clip-rule:evenodd;fill:none;stroke-linecap:round;stroke-linejoin:round;stroke-miterlimit:1.5;stroke-width:2.7437px;stroke:#000000"/>
   </g>
  </g>
  <g id="g70" class="csvg-group">
   <g id="g62" class="csvg-button">
    <path id="path58" d="m199.39 7.2227-52.182 153.45 11.273 3.832 52.182-153.45z" style="-inkscape-stroke:none;clip-rule:evenodd;color:#000000;fill-opacity:0;font-variation-settings:normal;stop-color:#000000;stroke-linejoin:round;stroke-miterlimit:1.5"/>
    <path id="path60" d="m152.85 162.59 52.181-153.45" style="-inkscape-stroke:none;clip-rule:evenodd;fill:none;font-variation-settings:normal;stop-color:#000000;stroke-linecap:round;stroke-linejoin:round;stroke-miterlimit:1.5;stroke:#515151"/>
   </g>
   <g id="g68" class="csvg-button">
    <path id="path64" d="m206.17 5.7988a3.5278 3.5278 0 00-4.4746 2.2051l-52.182 153.45a3.5278 3.5278 0 002.2051 4.4746 3.5278 3.5278 0 004.4746-2.2031l52.182-153.45a3.5278 3.5278 0 00-2.2051-4.4766z" style="-inkscape-stroke:none;clip-rule:evenodd;color:#000000;fill-rule:evenodd;fill:#6bb418;stroke-linecap:round;stroke-linejoin:round;stroke-miterlimit:1.5"/>
    <path id="path66" d="m152.85 162.59 52.181-153.45" style="clip-rule:evenodd;fill:none;stroke-linecap:round;stroke-linejoin:round;stroke-miterlimit:1.5;stroke-width:2.7437px;stroke:#000000"/>
   </g>
  </g>
  <g id="g84" class="csvg-group">
   <g id="g76" class="csvg-button">
    <path id="path72" d="m184.91 6.043-96.32 158.1 10.166 6.1953 96.322-158.1z" style="-inkscape-stroke:none;clip-rule:evenodd;color:#000000;fill-opacity:0;font-variation-settings:normal;stop-color:#000000;stroke-linejoin:round;stroke-miterlimit:1.5"/>
    <path id="path74" d="m93.669 167.24 96.322-158.1" style="-inkscape-stroke:none;clip-rule:evenodd;fill:none;font-variation-settings:normal;stop-color:#000000;stroke-linecap:round;stroke-linejoin:round;stroke-miterlimit:1.5;stroke:#515151"/>
   </g>
   <g id="g82" class="csvg-button">
    <path id="path78" d="m189.16 5.7109a3.5278 3.5278 0 00-2.1797 1.5918l-96.322 158.1a3.5278 3.5278 0 001.1777 4.8496 3.5278 3.5278 0 004.8477-1.1777l96.322-158.1a3.5278 3.5278 0 00-1.1777-4.8477 3.5278 3.5278 0 00-2.668-.41602z" style="-inkscape-stroke:none;clip-rule:evenodd;color:#000000;fill-rule:evenodd;fill:#6bb418;stroke-linecap:round;stroke-linejoin:round;stroke-miterlimit:1.5"/>
    <path id="path80" d="m93.669 167.24 96.322-158.1" style="clip-rule:evenodd;fill:none;stroke-linecap:round;stroke-linejoin:round;stroke-miterlimit:1.5;stroke-width:2.7437px;stroke:#000000"/>
   </g>
  </g>
  <g id="g98" class="csvg-group">
   <g id="g90" class="csvg-button">
    <path id="path86" d="m107.73 7.9805-30.635 154.3 11.678 2.3184 30.635-154.3z" style="-inkscape-stroke:none;clip-rule:evenodd;color:#000000;fill-opacity:0;font-variation-settings:normal;stop-color:#000000;stroke-linejoin:round;stroke-miterlimit:1.5"/>
    <path id="path88" d="m82.932 163.44 30.636-154.3" style="-inkscape-stroke:none;clip-rule:evenodd;fill:none;font-variation-settings:normal;stop-color:#000000;stroke-linecap:round;stroke-linejoin:round;stroke-miterlimit:1.5;stroke:#515151"/>
   </g>
   <g id="g96" class="csvg-button">
    <path id="path92" d="m114.26 5.6777a3.5278 3.5278 0 00-4.1484 2.7734l-30.635 154.3a3.5278 3.5278 0 002.7715 4.1484 3.5278 3.5278 0 004.1484-2.7734l30.637-154.3a3.5278 3.5278 0 00-2.7734-4.1484z" style="-inkscape-stroke:none;clip-rule:evenodd;color:#000000;fill-rule:evenodd;fill:#6bb418;stroke-linecap:round;stroke-linejoin:round;stroke-miterlimit:1.5"/>
    <path id="path94" d="m82.932 163.44 30.636-154.3" style="clip-rule:evenodd;fill:none;stroke-linecap:round;stroke-linejoin:round;stroke-miterlimit:1.5;stroke-width:2.7437px;stroke:#000000"/>
   </g>
  </g>
  <g id="g112" class="csvg-group">
   <g id="g104" class="csvg-button">
    <path id="path100" d="m50.938 10.561-10.201 6.3184 93.242 150.51 10.201-6.3203z" style="-inkscape-stroke:none;clip-rule:evenodd;color:#000000;fill-opacity:0;font-variation-settings:normal;stop-color:#000000;stroke-linejoin:round;stroke-miterlimit:1.5"/>
    <path id="path102" d="m139.08 164.23-93.243-150.51" style="-inkscape-stroke:none;clip-rule:evenodd;fill:none;font-variation-settings:normal;stop-color:#000000;stroke-linecap:round;stroke-linejoin:round;stroke-miterlimit:1.5;stroke:#515151"/>
   </g>
   <g id="g110" class="csvg-button">
    <path id="path106" d="m46.648 10.283a3.5278 3.5278 0 00-2.6641.43555 3.5278 3.5278 0 00-1.1406 4.8574l93.242 150.51a3.5278 3.5278 0 004.8574 1.1406 3.5278 3.5278 0 001.1406-4.8555l-93.242-150.51a3.5278 3.5278 0 00-2.1934-1.5781z" style="-inkscape-stroke:none;clip-rule:evenodd;color:#000000;fill-rule:evenodd;fill:#6bb418;stroke-linecap:round;stroke-linejoin:round;stroke-miterlimit:1.5"/>
    <path id="path108" d="m139.08 164.23-93.243-150.51" style="clip-rule:evenodd;fill:none;stroke-linecap:round;stroke-linejoin:round;stroke-miterlimit:1.5;stroke-width:2.7437px;stroke:#000000"/>
   </g>
  </g>
  <g id="g126" class="csvg-group">
   <g id="g118" class="csvg-button">
    <path id="path114" d="m40.781 13.982-11.457 3.2363 41.756 147.84 11.459-3.2363z" style="-inkscape-stroke:none;clip-rule:evenodd;color:#000000;fill-opacity:0;font-variation-settings:normal;stop-color:#000000;stroke-linejoin:round;stroke-miterlimit:1.5"/>
    <path id="path116" d="M 76.81,163.44 35.053,15.6" style="-inkscape-stroke:none;clip-rule:evenodd;fill:none;font-variation-settings:normal;stop-color:#000000;stroke-linecap:round;stroke-linejoin:round;stroke-miterlimit:1.5;stroke:#515151"/>
   </g>
   <g id="g124" class="csvg-button">
    <path id="path120" d="m34.094 12.205a3.5278 3.5278 0 00-2.4355 4.3535l41.756 147.84a3.5278 3.5278 0 004.3555 2.4356 3.5278 3.5278 0 002.4355-4.3535l-41.758-147.84a3.5278 3.5278 0 00-4.3535-2.4355z" style="-inkscape-stroke:none;clip-rule:evenodd;color:#000000;fill-rule:evenodd;fill:#6bb418;stroke-linecap:round;stroke-linejoin:round;stroke-miterlimit:1.5"/>
    <path id="path122" d="M 76.81,163.44 35.053,15.6" style="clip-rule:evenodd;fill:none;stroke-linecap:round;stroke-linejoin:round;stroke-miterlimit:1.5;stroke-width:2.7437px;stroke:#000000"/>
   </g>
  </g>
  <g id="g140" class="csvg-group">
   <g id="g132" class="csvg-button">
    <path id="path128" d="m-50.305 9.957-9.3711 7.3457 121.99 155.62 9.3711-7.3438z" style="-inkscape-stroke:none;clip-rule:evenodd;color:#000000;fill-opacity:0;font-variation-settings:normal;stop-color:#000000;stroke-linejoin:round;stroke-miterlimit:1.5"/>
    <path id="path130" d="m67 169.25-121.99-155.62" style="-inkscape-stroke:none;clip-rule:evenodd;fill:none;font-variation-settings:normal;stop-color:#000000;stroke-linecap:round;stroke-linejoin:round;stroke-miterlimit:1.5;stroke:#515151"/>
   </g>
   <g id="g138" class="csvg-button">
    <path id="path134" d="m-54.564 10.125a3.5278 3.5278 0 00-2.5996.72656 3.5278 3.5278 0 00-.59961 4.9531l121.99 155.62a3.5278 3.5278 0 004.9512.59961 3.5278 3.5278 0 00.60156-4.9531l-121.99-155.62a3.5278 3.5278 0 00-2.3535-1.3262z" style="-inkscape-stroke:none;clip-rule:evenodd;color:#000000;fill-rule:evenodd;fill:#6bb418;stroke-linecap:round;stroke-linejoin:round;stroke-miterlimit:1.5"/>
    <path id="path136" d="m67 169.25-121.99-155.62" style="clip-rule:evenodd;fill:none;stroke-linecap:round;stroke-linejoin:round;stroke-miterlimit:1.5;stroke-width:2.7234px;stroke:#000000"/>
   </g>
  </g>
  <g id="g154" class="csvg-group">
   <g id="g146" class="csvg-button">
    <path id="path142" d="m-56.98 11.365-10.705 5.209 71.662 147.29 10.705-5.209z" style="-inkscape-stroke:none;clip-rule:evenodd;color:#000000;fill-opacity:0;font-variation-settings:normal;stop-color:#000000;stroke-linejoin:round;stroke-miterlimit:1.5"/>
    <path id="path144" d="m9.3293 161.26-71.662-147.29" style="-inkscape-stroke:none;clip-rule:evenodd;fill:none;font-variation-settings:normal;stop-color:#000000;stroke-linecap:round;stroke-linejoin:round;stroke-miterlimit:1.5;stroke:#515151"/>
   </g>
   <g id="g152" class="csvg-button">
    <path id="path148" d="m-61.18 10.637a3.5278 3.5278 0 00-2.6953.16211 3.5278 3.5278 0 00-1.6289 4.7148l71.66 147.29a3.5278 3.5278 0 004.7168 1.6289 3.5278 3.5278 0 001.6289-4.7148l-71.662-147.29a3.5278 3.5278 0 00-2.0195-1.791z" style="-inkscape-stroke:none;clip-rule:evenodd;color:#000000;fill-rule:evenodd;fill:#6bb418;stroke-linecap:round;stroke-linejoin:round;stroke-miterlimit:1.5"/>
    <path id="path150" d="m9.3293 161.26-71.662-147.29" style="clip-rule:evenodd;fill:none;stroke-linecap:round;stroke-linejoin:round;stroke-miterlimit:1.5;stroke-width:2.7437px;stroke:#000000"/>
   </g>
  </g>
  <g id="g168" class="csvg-group">
   <g id="g160" class="csvg-button">
    <path id="path156" d="m-65.264 12.566-11.832 1.3281 16.699 148.85 11.832-1.3281z" style="-inkscape-stroke:none;clip-rule:evenodd;color:#000000;fill-opacity:0;font-variation-settings:normal;stop-color:#000000;stroke-linejoin:round;stroke-miterlimit:1.5"/>
    <path id="path158" d="m-54.481 162.08-16.699-148.85" style="-inkscape-stroke:none;clip-rule:evenodd;fill:none;font-variation-settings:normal;stop-color:#000000;stroke-linecap:round;stroke-linejoin:round;stroke-miterlimit:1.5;stroke:#515151"/>
   </g>
   <g id="g166" class="csvg-button">
    <path id="path162" d="m-71.574 9.7246a3.5278 3.5278 0 00-3.1133 3.8984l16.701 148.85a3.5278 3.5278 0 003.8984 3.1113 3.5278 3.5278 0 003.1133-3.8984l-16.701-148.85a3.5278 3.5278 0 00-3.8984-3.1133z" style="-inkscape-stroke:none;clip-rule:evenodd;color:#000000;fill-rule:evenodd;fill:#6bb418;stroke-linecap:round;stroke-linejoin:round;stroke-miterlimit:1.5"/>
    <path id="path164" d="m-54.481 162.08-16.699-148.85" style="clip-rule:evenodd;fill:none;stroke-linecap:round;stroke-linejoin:round;stroke-miterlimit:1.5;stroke-width:2.7437px;stroke:#000000"/>
   </g>
  </g>
  <g id="g182" class="csvg-group">
   <g id="g174" class="csvg-button">
    <path id="path170" d="m-85.24 8.7441-38.312 151.99 11.545 2.9102 38.312-151.99z" style="-inkscape-stroke:none;clip-rule:evenodd;color:#000000;fill-opacity:0;stroke-linejoin:round;stroke-miterlimit:1.5"/>
    <path id="path172" d="m-117.78 162.19 38.312-151.99" style="clip-rule:evenodd;fill:none;stroke-linecap:round;stroke-linejoin:round;stroke-miterlimit:1.5;stroke:#515151"/>
   </g>
   <g id="g180" class="csvg-button">
    <path id="path176" d="m-78.609 6.7812a3.5278 3.5278 0 00-4.2832 2.5586l-38.313 151.98a3.5278 3.5278 0 002.5586 4.2832 3.5278 3.5278 0 004.2832-2.5586l38.312-151.98a3.5278 3.5278 0 00-2.5586-4.2832z" style="-inkscape-stroke:none;clip-rule:evenodd;color:#000000;fill-rule:evenodd;fill:#6bb418;stroke-linecap:round;stroke-linejoin:round;stroke-miterlimit:1.5"/>
    <path id="path178" d="m-117.78 162.19 38.312-151.99" style="clip-rule:evenodd;fill:none;stroke-linecap:round;stroke-linejoin:round;stroke-miterlimit:1.5;stroke-width:2.7437px;stroke:#000000"/>
   </g>
  </g>
  <g id="g356" class="csvg-ignore">
   <circle id="circle184" cx="-61.957" cy="-22.722" r="29.976" style="clip-rule:evenodd;fill-rule:evenodd;fill:#ebebeb;stroke-linecap:round;stroke-linejoin:round;stroke-miterlimit:1.5;stroke-width:1.4525px;stroke:#000000"/>
   <path id="path186" d="m-54.795-21.312c.60343-4.4991-13.344-3.4075-16.249-.98629-.53475.44562-.9402 1.4809-.83978 2.1835.06832.47862 5.2062 11.588 5.7104 12.26.93787 1.2506 3.133 1.3378 3.695 3.0233.56506 1.6952-.56254 5.1479.67175 6.3822.16301.16301 1.4635.16803 1.6796.16803 4.6162 0 4.063-11.382 4.8707-14.612.43522-1.7411 2.7062-2.4272 3.1911-4.3668.33211-1.3286-1.0175-4.0309-2.5193-4.0309" style="clip-rule:evenodd;fill:none;stroke-linecap:round;stroke-linejoin:round;stroke-miterlimit:1.5;stroke-width:1.4525px;stroke:#000000"/>
   <path id="path188" d="m-60.559-48.388c-.22398-.3461-1.3607.51718-1.416.56003-3.2063 2.4939-6.0478 6.7161-3.695 10.245.6497.97446 10.943-4.8576 8.2298-.33588-.0016.0027-7.711 5.8708-8.0618 6.0463-3.1418 1.5709-4.5192-.0468-5.7104 3.527-.06384.19134-.57582.93572-.33588 1.1757 2.8081 2.8081 7.5143-2.5048 9.5733-3.1911.13503-.04501.82651-.34933 1.0078-.16803 1.3329 1.3329-1.6111 3.0918-.16803 4.5348.42931.42931 1.5277-5.8623 3.3591-4.0309 1.4423 1.4423-.1691 3.6105 2.0154 4.7026 3.0944 1.5472 6.1846 6.8712 10.245 8.9017 1.4538.72681 6.8936 1.8876 8.3976 1.5115.831-.20784 2.5283 3.4264 3.3753 3.5677" style="clip-rule:evenodd;fill:none;stroke-linecap:round;stroke-linejoin:round;stroke-miterlimit:1.5;stroke-width:1.4525px;stroke:#000000"/>
   <path id="path190" d="m-69.457-37.408c.34592.000717.4883.34628.86919.64234.30934.24066.66081.50444.8561.85628 1.6663 2.9992-3.5071 3.908-2.854.64216.17162-.85789 1.4271-1.0308 1.4271-1.8551" style="clip-rule:evenodd;fill:none;stroke-linecap:round;stroke-linejoin:round;stroke-miterlimit:1.5;stroke-width:1.4525px;stroke:#000000"/>
   <path id="path192" d="m-79.066-46.155c-.2507 1.0797 1.6781 5.3801 2.2021 6.8208.21483.59088.79531 2.0524.42805 2.64-.58514.93626-3.1384 1.9089-4.3524 1.4983-.6124-.20694-1.4066-1.2026-2.1404-.71336-.25375.1691-.2706.5941-.49942.78473-.74026.61688-1.733-.08034-1.8551 1.1416-.06689.66835.47019 3.5535.42805 3.5675-1.1852.39523-2.2629.89699-2.9967 1.9979-.34538.51807.05362 1.4805-.57079 1.8551-.84247.50552-2.5661-.14741-3.0681.85628" style="clip-rule:evenodd;fill:none;stroke-linecap:round;stroke-linejoin:round;stroke-miterlimit:1.5;stroke-width:1.4525px;stroke:#000000"/>
   <path id="path194" d="m-91.541-21.54c.63374.61401-.73326-.16857-.66404-.09917.85807.85807 2.4248-.26361 3.5675 1.641.25518.42518-.04232 1.115.07137 1.5696.39362 1.5741.66548 3.4759.42805 5.1373-.13091.91743-.51574 2.3793 0 3.282.45082.78885.93823 2.1426 1.4984 2.7828 1.1914 1.3616 3.5675 3.162 3.5675 4.9944" style="clip-rule:evenodd;fill:none;stroke-linecap:round;stroke-linejoin:round;stroke-miterlimit:1.5;stroke-width:1.4525px;stroke:#000000"/>
   <path id="path196" d="m-66.538-60.226-7.3696-4.4137s26.112-7.7227 27.107-7.5519c.9949.17072 24.073 13.777 24.073 13.777l-15.309 6.505-1.5779 8.3885c-11.343 6.1736-20.462 1.9853-28.305-8.1462z" style="clip-rule:evenodd;fill-rule:evenodd;fill:#84baff;stroke-linecap:round;stroke-linejoin:round;stroke-miterlimit:1.5;stroke-width:1.4525px;stroke:#000000"/>
   <path id="path198" d="m-46.801-72.191c-.99495-.17063-27.107 7.552-27.107 7.552l27.321 16.363 23.859-10.138s-23.078-13.606-24.073-13.777z" style="clip-rule:evenodd;fill:none;stroke-linecap:round;stroke-linejoin:round;stroke-miterlimit:1.5;stroke-width:1.4525px;stroke:#000000"/>
   <path id="path200" d="m-47.496-62.194c-.054-1.8639 12.224 5.5521 13.653 6.9668 3.3715 3.3376 5.6702 9.5242 2.4238 13.436" style="clip-rule:evenodd;fill:none;stroke-linecap:round;stroke-linejoin:round;stroke-miterlimit:1.5;stroke-width:1.4525px;stroke:#000000"/>
   <path id="path202" d="m-37.924-52.507-1.6903 8.9866c-11.343 6.1736-20.462 1.9855-28.305-8.1461l1.2595-8.5682" style="clip-rule:evenodd;fill:none;stroke-linecap:round;stroke-linejoin:round;stroke-miterlimit:1.5;stroke-width:1.4411px;stroke:#000000"/>
   <path id="path204" d="m-64.337-14.765c0-7.6599-9.6023-13.879-21.43-13.879-11.827 0-21.43 6.2187-21.43 13.879 0 4.5265 3.4086 8.7687 9.1329 11.366l-2.704 9.4515 9.4485-7.4133c1.8108.31472 3.6776.47396 5.5525.47396 11.828 0 21.43-6.2187 21.43-13.878z" style="clip-rule:evenodd;fill-rule:evenodd;fill:#84baff;stroke-linecap:round;stroke-linejoin:round;stroke-miterlimit:1.5;stroke-width:1.4525px;stroke:#000000"/>
   <path id="path206" d="m-100.64-18.1c.0381.64889 4.8359-5.5677 4.7404-5.5677-.2427 0 .67615 6.9299.23096 9.9319-.18521 1.2493-.58955 2.522-1.1921 3.6766-.37458.71774-2.3307 1.4748-2.6334.56654-.42329-1.2698 3.887-5.7946 5.096-6.7839.70739-.57874 6.2271-4.0451 4.1576-4.735-5.5751-1.8583-2.9568 10.727-2.6563 10.856 2.6043 1.1175 7.4273-4.3673 5.5435-5.8898-2.5252-2.041-3.6103 6.4059.42967 5.2516 1.9923-.56922 8.1336-10.537 3.7279-9.9867-1.8871.23586-1.3322 9.4521.23096 9.9319 3.6901 1.1328 8.0923-9.8577 4.8504-8.7771-5.5676 1.8559.43614 13.821 2.0788 8.8926" style="clip-rule:evenodd;fill:none;stroke-linecap:round;stroke-linejoin:round;stroke-miterlimit:1.5;stroke-width:.74861px;stroke:#000000"/>
   <path id="path208" d="m-73.62-12.702c.66331-.42551.28004-.94907-.11044-1.4958-1.6845-2.3581-4.0707 2.2493-2.5931 3.4808 1.8361 1.53 5.8915-1.7738 2.7085-3.3652" style="clip-rule:evenodd;fill:none;stroke-linecap:round;stroke-linejoin:round;stroke-miterlimit:1.5;stroke-width:.74861px;stroke:#000000"/>
   <circle id="circle210" cx="34.297" cy="-22.722" r="29.976" style="clip-rule:evenodd;fill-rule:evenodd;fill:#ebebeb;stroke-linecap:round;stroke-linejoin:round;stroke-miterlimit:1.5;stroke-width:1.4525px;stroke:#000000"/>
   <path id="path212" d="m41.46-21.312c.60343-4.4991-13.344-3.4075-16.249-.98629-.53475.44562-.9402 1.4809-.83978 2.1835.06832.47862 5.2062 11.588 5.7104 12.26.93787 1.2506 3.133 1.3378 3.695 3.0233.56506 1.6952-.56254 5.1479.67175 6.3822.16301.16301 1.4635.16803 1.6796.16803 4.6162 0 4.063-11.382 4.8707-14.612.43522-1.7411 2.7062-2.4272 3.1911-4.3668.33211-1.3286-1.0175-4.0309-2.5193-4.0309" style="clip-rule:evenodd;fill:none;stroke-linecap:round;stroke-linejoin:round;stroke-miterlimit:1.5;stroke-width:1.4525px;stroke:#000000"/>
   <path id="path214" d="m35.696-48.388c-.22398-.3461-1.3607.51718-1.416.56003-3.2063 2.4939-6.0478 6.7161-3.695 10.245.6497.97446 10.943-4.8576 8.2298-.33588-.0016.0027-7.711 5.8708-8.0618 6.0463-3.1418 1.5709-4.5192-.0468-5.7104 3.527-.06384.19134-.57582.93572-.33588 1.1757 2.8081 2.8081 7.5143-2.5048 9.5733-3.1911.13503-.04501.82651-.34933 1.0078-.16803 1.3329 1.3329-1.6111 3.0918-.16803 4.5348.42931.42931 1.5277-5.8623 3.3591-4.0309 1.4423 1.4423-.1691 3.6105 2.0154 4.7026 3.0944 1.5472 6.1846 6.8712 10.245 8.9017 1.4538.72681 6.8936 1.8876 8.3976 1.5115.831-.20784 2.5283 3.4264 3.3753 3.5677" style="clip-rule:evenodd;fill:none;stroke-linecap:round;stroke-linejoin:round;stroke-miterlimit:1.5;stroke-width:1.4525px;stroke:#000000"/>
   <path id="path216" d="m26.798-37.408c.34592.000717.4883.34628.86919.64234.30934.24066.66081.50444.8561.85628 1.6663 2.9992-3.5071 3.908-2.854.64216.17162-.85789 1.4271-1.0308 1.4271-1.8551" style="clip-rule:evenodd;fill:none;stroke-linecap:round;stroke-linejoin:round;stroke-miterlimit:1.5;stroke-width:1.4525px;stroke:#000000"/>
   <path id="path218" d="m17.189-46.155c-.2507 1.0797 1.6781 5.3801 2.2021 6.8208.21483.59088.79531 2.0524.42805 2.64-.58514.93626-3.1384 1.9089-4.3524 1.4983-.6124-.20694-1.4066-1.2026-2.1404-.71336-.25375.1691-.2706.5941-.49942.78473-.74026.61688-1.733-.08034-1.8551 1.1416-.06689.66835.47019 3.5535.42805 3.5675-1.1852.39523-2.2629.89699-2.9967 1.9979-.34538.51807.053618 1.4805-.57079 1.8551-.84247.50552-2.5661-.14741-3.0681.85628" style="clip-rule:evenodd;fill:none;stroke-linecap:round;stroke-linejoin:round;stroke-miterlimit:1.5;stroke-width:1.4525px;stroke:#000000"/>
   <path id="path220" d="m4.7143-21.54c.63374.61401-.73326-.16857-.66404-.09917.85807.85807 2.4248-.26361 3.5675 1.641.25518.42518-.042321 1.115.071372 1.5696.39362 1.5741.66548 3.4759.42805 5.1373-.13091.91743-.51574 2.3793 0 3.282.45082.78885.93823 2.1426 1.4984 2.7828 1.1914 1.3616 3.5675 3.162 3.5675 4.9944" style="clip-rule:evenodd;fill:none;stroke-linecap:round;stroke-linejoin:round;stroke-miterlimit:1.5;stroke-width:1.4525px;stroke:#000000"/>
   <path id="path222" d="m29.717-60.226-7.3696-4.4137s26.112-7.7227 27.107-7.5519c.9949.17072 24.073 13.777 24.073 13.777l-15.309 6.505-1.5779 8.3885c-11.343 6.1736-20.462 1.9853-28.305-8.1462z" style="clip-rule:evenodd;fill-rule:evenodd;fill:#ffe117;stroke-linecap:round;stroke-linejoin:round;stroke-miterlimit:1.5;stroke-width:1.4525px;stroke:#000000"/>
   <path id="path224" d="m49.454-72.191c-.99495-.17063-27.107 7.552-27.107 7.552l27.321 16.363 23.859-10.138s-23.078-13.606-24.073-13.777z" style="clip-rule:evenodd;fill:none;stroke-linecap:round;stroke-linejoin:round;stroke-miterlimit:1.5;stroke-width:1.4525px;stroke:#000000"/>
   <path id="path226" d="m48.759-62.194c-.054-1.8639 12.224 5.5521 13.653 6.9668 3.3715 3.3376 5.6702 9.5242 2.4238 13.436" style="clip-rule:evenodd;fill:none;stroke-linecap:round;stroke-linejoin:round;stroke-miterlimit:1.5;stroke-width:1.4525px;stroke:#000000"/>
   <path id="path228" d="m58.331-52.507-1.6903 8.9866c-11.343 6.1736-20.462 1.9855-28.305-8.1461l1.2595-8.5682" style="clip-rule:evenodd;fill:none;stroke-linecap:round;stroke-linejoin:round;stroke-miterlimit:1.5;stroke-width:1.4411px;stroke:#000000"/>
   <path id="path230" d="m31.918-14.765c0-7.6599-9.6023-13.879-21.43-13.879-11.827 0-21.43 6.2187-21.43 13.879 0 4.5265 3.4086 8.7687 9.1329 11.366l-2.7041 9.4515 9.4485-7.4133c1.8108.31472 3.6776.47396 5.5525.47396 11.828 0 21.43-6.2187 21.43-13.878z" style="clip-rule:evenodd;fill-rule:evenodd;fill:#ffe117;stroke-linecap:round;stroke-linejoin:round;stroke-miterlimit:1.5;stroke-width:1.4525px;stroke:#000000"/>
   <path id="path232" d="m2.2438-19.461c-.022331 1.4375 0 7.3157.066355 8.8087 0 .09953.038282.24054.11612.42302.077202.18248.11612.312.11612.38984 0 .19907-.18822.36495-.56402.49767-.07784.033178-.17737.049766-.2986.049766-.36495 0-.75224-.088686-1.1612-.26542-.48682-.21055-.72991-.45938-.72991-.7465 0-.13271.052319-.30434.15759-.51425.10464-.21055.20736-.41472.30689-.61379v-2.5547l-2.2229.41472c0 .48618.0051 1.1721.016589 2.057.010847.88431.016589 1.3322.016589 1.3437 0 .12123.03573.30689.10783.55573.07146.24883.10783.42812.10783.53914 0 .19907-.07465.35921-.22395.48108-.1493.12123-.35156.18248-.60549.18248-.26542 0-.53658-.063803-.81285-.19077-.27691-.12761-.46194-.25713-.55573-.38984-.094429-.13271-.14101-.23224-.14101-.2986 0-.022331.044024-.12761.13271-.31519 0-.42046-.00574-1.1146-.016589-2.0819-.011485-.96789-.016589-1.5842-.016589-1.8497-.011485-.03318-.1442-.24883-.39813-.64696-.15504-.23224-.21055-.4479-.16589-.64696.021693-.11102.088048-.19907.19907-.26542.11038-.06635.22076-.13845.33178-.21566-.033178-2.3671-.022331-3.9647.033178-4.7942-.099533-.18822-.1493-.33178-.1493-.43131 0-.2214.17099-.40962.51425-.56402.14356-.05551.34837-.08295.61379-.08295.86262 0 1.3877.20991 1.5759.63038.033178.0772.049767.1493.049767.21566 0 .14356-.096981.35092-.2903.62208-.19396.27053-.2903.49448-.2903.67185-.066355 1.5925-.07784 2.7812-.033178 3.5666 1.0834-.17737 1.8024-.31008 2.1565-.39813-.099533-1.2167-.088686-2.6376.033178-4.2633-.099533-.25458-.1493-.45938-.1493-.61379 0-.2986.20417-.54233.61379-.72991.088048-.04466.21565-.06636.38154-.06636.38665 0 .76309.08805 1.128.26542.41983.19907.63548.4479.64696.7465.010846.14356-.086134.32029-.2903.53084-.20481.20991-.30689.39239-.30689.54743z" style="clip-rule:evenodd;stroke-linecap:round;stroke-linejoin:round;stroke-miterlimit:1.5;stroke-width:.63803"/>
   <path id="path234" d="m9.6756-16.956c.74076.6744 1.1115 1.8133 1.1115 3.4173 0 1.2384-.26032 2.2944-.77968 3.1685-.58635.99533-1.3935 1.493-2.422 1.493-1.0177 0-1.8031-.4479-2.3556-1.3437-.48682-.77457-.77266-2.0545-.77266-3.2489 0-1.0502.23033-1.7004.60677-2.5406.39813-.8958.90664-1.4215 1.5262-1.5759.32029-.07784.65207-.11612.99533-.11612.85113 0 1.5479.24883 2.0902.7465zm-1.8911.71332c-.36495-.03318-.68014.27627-.94556.92898-.23224.58571-.34837 1.1995-.34837 1.8414 0 .93982.044024 1.6034.13271 1.9907.1544.69673.47533 1.0783.96215 1.1446.30945.04402.5972-.33752.86262-1.1446.25394-.77457.38154-1.604.38154-2.4883 0-1.4598-.34837-2.2178-1.0451-2.2727z" style="clip-rule:evenodd;stroke-linecap:round;stroke-linejoin:round;stroke-miterlimit:1.5;stroke-width:.63803"/>
   <path id="path236" d="m14.918-9.0434c-.2214.3758-.63038.56402-1.2276.56402-.55317 0-.94046-.17163-1.1612-.51425-.06635-.099533-.09953-.21055-.09953-.33178 0-.099533.03828-.26287.11612-.48937.0772-.22714.11612-.41791.11612-.57231-.32093-3.2221-.41919-6.4371-.06636-9.6381v-.81285c.03318-.12186.18758-.22714.46449-.31519.27627-.08869.56912-.13271.87921-.13271.453 0 .74076.07465.86262.22395.12123.1493.18248.30689.18248.47278 0 .11038-.04466.29286-.13271.54743-.08869.25394-.13271.45874-.13271.61379v8.958c0 .1544.04658.35347.141.5972.09379.24309.141.41983.141.53084 0 .099533-.02807.19907-.08294.2986z" style="clip-rule:evenodd;stroke-linecap:round;stroke-linejoin:round;stroke-miterlimit:1.5;stroke-width:.63803"/>
   <path id="path238" d="m23.316-14.883c.09953 1.4266.11676 5.607-.53531 5.607-.2214 0-.39813-.033178-.53084-.099533-.17737-.11102-.2986-.33178-.36495-.66355-.13271-.56402-.26542-1.0068-.39813-1.3271-.03318.55254-.36496 1.1115-.99533 1.6755-.63038.56402-1.2665.84603-1.9077.84603-.80775 0-1.366-.48682-1.6755-1.4598-.11102-.35411-.16589-.69163-.16589-1.0119 0-.92897.5251-1.7201 1.5759-2.3722.86262-.45364 1.7303-.90728 2.6044-1.3603.04403-.16589.06636-.33178.06636-.49766 0-.31008-.09443-.48937-.28201-.53914-.18822-.04977-.34837-.07465-.48108-.07465-.23224 0-.42302.06636-.57231.19907-.1493.13271-.2903.25968-.42302.38154-.13271.0772-.30434.25968-.51425.54743-.16589.23224-.34836.35347-.54743.36496-.28775.03318-.54743-.05551-.77968-.26542-.23224-.21055-.34837-.45364-.34837-.72991 0-.15504.04402-.2986.13271-.43131.25394-.37644.63548-.70247 1.1446-.97874.77393-.42046 1.7418-.63038 2.903-.63038.74076 0 1.2493.31519 1.5262.94556.17674.43131.4798.70184.56849 1.8745zm-2.1942 1.211c-.33178.1544-.661.31774-.98704.48937-.32667.17099-.62782.39494-.90409.67185-.39813.40898-.5972.75734-.5972 1.0451 0 .24309.09953.49192.2986.7465.11038.14356.23224.21566.36496.21566.28711 0 .59975-.2903.93727-.87091.33688-.58061.63293-1.3469.8875-2.2976z" style="clip-rule:evenodd;stroke-linecap:round;stroke-linejoin:round;stroke-miterlimit:1.5;stroke-width:.63803"/>
   <circle id="circle240" cx="130.55" cy="-22.722" r="29.976" style="clip-rule:evenodd;fill-rule:evenodd;fill:#ebebeb;stroke-linecap:round;stroke-linejoin:round;stroke-miterlimit:1.5;stroke-width:1.4525px;stroke:#000000"/>
   <path id="path242" d="m137.71-21.312c.60343-4.4991-13.344-3.4075-16.249-.98629-.53475.44562-.94021 1.4809-.83979 2.1835.0683.47862 5.2062 11.588 5.7104 12.26.93787 1.2506 3.133 1.3378 3.695 3.0233.56506 1.6952-.56254 5.1479.67176 6.3822.163.16301 1.4635.16803 1.6796.16803 4.6162 0 4.063-11.382 4.8707-14.612.43523-1.7411 2.7062-2.4272 3.1911-4.3668.33211-1.3286-1.0175-4.0309-2.5193-4.0309" style="clip-rule:evenodd;fill:none;stroke-linecap:round;stroke-linejoin:round;stroke-miterlimit:1.5;stroke-width:1.4525px;stroke:#000000"/>
   <path id="path244" d="m131.95-48.388c-.22397-.3461-1.3607.51718-1.416.56003-3.2063 2.4939-6.0478 6.7161-3.695 10.245.6497.97446 10.943-4.8576 8.2298-.33588-.002.0027-7.711 5.8708-8.0618 6.0463-3.1418 1.5709-4.5192-.0468-5.7104 3.527-.0638.19134-.57582.93572-.33588 1.1757 2.8081 2.8081 7.5143-2.5048 9.5733-3.1911.13503-.04501.82651-.34933 1.0078-.16803 1.3329 1.3329-1.6111 3.0918-.16803 4.5348.42931.42931 1.5277-5.8623 3.3591-4.0309 1.4423 1.4423-.16911 3.6105 2.0154 4.7026 3.0944 1.5472 6.1846 6.8712 10.245 8.9017 1.4538.72681 6.8936 1.8876 8.3976 1.5115.831-.20784 2.5283 3.4264 3.3753 3.5677" style="clip-rule:evenodd;fill:none;stroke-linecap:round;stroke-linejoin:round;stroke-miterlimit:1.5;stroke-width:1.4525px;stroke:#000000"/>
   <path id="path246" d="m123.05-37.408c.34591.000717.4883.34628.86919.64234.30933.24066.66081.50444.8561.85628 1.6663 2.9992-3.5071 3.908-2.854.64216.17161-.85789 1.4271-1.0308 1.4271-1.8551" style="clip-rule:evenodd;fill:none;stroke-linecap:round;stroke-linejoin:round;stroke-miterlimit:1.5;stroke-width:1.4525px;stroke:#000000"/>
   <path id="path248" d="m113.44-46.155c-.2507 1.0797 1.6781 5.3801 2.2021 6.8208.21484.59088.79531 2.0524.42805 2.64-.58514.93626-3.1384 1.9089-4.3524 1.4983-.61239-.20694-1.4066-1.2026-2.1404-.71336-.25374.1691-.2706.5941-.49942.78473-.74026.61688-1.733-.08034-1.8551 1.1416-.0669.66835.47019 3.5535.42805 3.5675-1.1852.39523-2.2629.89699-2.9967 1.9979-.34538.51807.0536 1.4805-.5708 1.8551-.84247.50552-2.5662-.14741-3.0681.85628" style="clip-rule:evenodd;fill:none;stroke-linecap:round;stroke-linejoin:round;stroke-miterlimit:1.5;stroke-width:1.4525px;stroke:#000000"/>
   <path id="path250" d="m100.97-21.54c.63373.61401-.73326-.16857-.66404-.09917.85807.85807 2.4248-.26361 3.5675 1.641.25518.42518-.0423 1.115.0714 1.5696.39362 1.5741.66548 3.4759.42805 5.1373-.13091.91743-.51574 2.3793 0 3.282.45083.78885.93823 2.1426 1.4984 2.7828 1.1914 1.3616 3.5675 3.162 3.5675 4.9944" style="clip-rule:evenodd;fill:none;stroke-linecap:round;stroke-linejoin:round;stroke-miterlimit:1.5;stroke-width:1.4525px;stroke:#000000"/>
   <path id="path252" d="m125.97-60.226-7.3696-4.4137s26.112-7.7227 27.107-7.5519 24.073 13.777 24.073 13.777l-15.309 6.505-1.5779 8.3885c-11.343 6.1736-20.462 1.9853-28.305-8.1462z" style="clip-rule:evenodd;fill-rule:evenodd;fill:#ffffff;stroke-linecap:round;stroke-linejoin:round;stroke-miterlimit:1.5;stroke-width:1.4525px;stroke:#000000"/>
   <path id="path254" d="m145.71-72.191c-.99495-.17063-27.107 7.552-27.107 7.552l27.321 16.363 23.859-10.138s-23.078-13.606-24.073-13.777z" style="clip-rule:evenodd;fill:none;stroke-linecap:round;stroke-linejoin:round;stroke-miterlimit:1.5;stroke-width:1.4525px;stroke:#000000"/>
   <path id="path256" d="m145.01-62.194c-.054-1.8639 12.224 5.5521 13.653 6.9668 3.3715 3.3376 5.6702 9.5242 2.4238 13.436" style="clip-rule:evenodd;fill:none;stroke-linecap:round;stroke-linejoin:round;stroke-miterlimit:1.5;stroke-width:1.4525px;stroke:#000000"/>
   <path id="path258" d="m154.59-52.507-1.6903 8.9866c-11.343 6.1736-20.462 1.9855-28.305-8.1461l1.2595-8.5682" style="clip-rule:evenodd;fill:none;stroke-linecap:round;stroke-linejoin:round;stroke-miterlimit:1.5;stroke-width:1.4411px;stroke:#000000"/>
   <path id="path260" d="m128.17-14.765c0-7.6599-9.6023-13.879-21.43-13.879-11.827 0-21.43 6.2187-21.43 13.879 0 4.5265 3.4086 8.7687 9.1329 11.366l-2.704 9.4515 9.4485-7.4133c1.8108.31472 3.6776.47396 5.5525.47396 11.828 0 21.43-6.2187 21.43-13.878z" style="clip-rule:evenodd;fill-rule:evenodd;fill:#ffffff;stroke-linecap:round;stroke-linejoin:round;stroke-miterlimit:1.5;stroke-width:1.4525px;stroke:#000000"/>
   <path id="path262" d="m95.244-21.007c1.0193 0 1.8468.32738 2.4943.98214v-.21825c0-.40533.16189-.60799.47968-.60799.35376 0 .53364.22365.53364.67035v.09354c0 .02099-.01799.17688-.04797.46768-.02998.2914-.04797.63917-.04797 1.0445 0 .05217.01199.21825.02998.49886l.04797.62358c.01199.05216.01799.12472.01799.21825 0 .49886-.19187.7483-.57561.7483-.40772 0-.61159-.20746-.61159-.62358v-.07795l.03598-.42092c.006-.1451.01199-.25962.01199-.34297 0-.62358-.20986-1.1117-.62958-1.4654-.41972-.35316-1.0013-.53004-1.7388-.53004-.67754 0-1.2172.16669-1.6129.49886-.40173.33278-.5996.77948-.5996 1.3407 0 .65476.2938 1.138.8874 1.4498.32978.16669.91139.31719 1.7448.4521 1.2352.19787 2.0866.46768 2.5423.81065.68354.50966 1.0313 1.2316 1.0313 2.1669 0 .97734-.35376 1.7724-1.0553 2.3852-.70153.61339-1.6069.91978-2.7222.91978-1.1812 0-2.1645-.37415-2.944-1.1224 0 .04197.006.08874.01199.1403v.09354c.02398.16669.03598.27582.03598.32738 0 .38494-.18588.57681-.54563.57681-.39573 0-.5936-.21825-.5936-.65476 0-.05157.006-.09354.01799-.12472l.05996-.81065c.02998-.40533.04797-.66495.04797-.77948 0-.20746-.02998-.51925-.07795-.93537-.05396-.41552-.07795-.72731-.07795-.93537 0-.46768.19787-.70153.5936-.70153.40173 0 .60559.23384.60559.70153v.28061c-.01199.08334-.01799.20266-.01799.35856 0 .77948.25183 1.3983.7495 1.8552.49766.45749 1.1752.68594 2.0266.68594.79147 0 1.421-.18707 1.8887-.56122.46768-.37415.70153-.88321.70153-1.5278 0-.98694-.62358-1.5901-1.8707-1.8084l-.8874-.1559c-.8874-.1559-1.5709-.33757-2.0626-.54563-.4437-.19727-.80346-.50666-1.0673-.92758-.26382-.42092-.39573-.8964-.39573-1.4264 0-.91438.32978-1.6573.99533-2.2293.66555-.57142 1.529-.85742 2.5903-.85742z" style="clip-rule:evenodd;stroke-linecap:round;stroke-linejoin:round;stroke-miterlimit:1.5;stroke-width:.5996"/>
   <path id="path264" d="m101.03-11.871 5.0786-5.1445h-2.3864c-.77947 0-1.2652.02338-1.463.07015-.19787.04677-.2998.16909-.2998.36635 0 .08334.012.17688.036.28061.048.27042.0779.52525.0779.76388 0 .39513-.17388.5924-.51565.5924-.35376 0-.52764-.22845-.52764-.68594 0-.19727 0-.33218.012-.40533.042-.31179.06-.53484.06-.67035 0-.10373-.018-.25723-.054-.45989s-.054-.35556-.054-.45989c0-.32198.26382-.48328.77948-.48328.16788 0 .38973.0054.67154.01559.32378.02098.54564.03118.67155.03118l.93537.01559h2.6502c.67154 0 1.0133.23924 1.0133.71712 0 .21825-.19786.52525-.5936.91978l-5.0486 5.0978h3.7115c.61159 0 .91739-.17628.91739-.53004v-.2962c0-.17628-.012-.32738-.03-.4521-.024-.39454-.036-.58161-.036-.56122 0-.17628.054-.32438.15589-.4443.10793-.11932.23984-.17928.39574-.17928.32978 0 .49766.19787.49766.5924 0 .17688-.012.35856-.036.54563-.036.37415-.06.64457-.06.81065 0 .11452.012.28061.042.49886.024.21825.036.38494.036.49886 0 .40533-.22784.60319-.68353.5924l-.95336-.03118h-4.491c-.25782 0-.47368-.07795-.63557-.23384-.16789-.1559-.25183-.35316-.25183-.5924 0-.26982.12592-.53004.37775-.77947z" style="clip-rule:evenodd;stroke-linecap:round;stroke-linejoin:round;stroke-miterlimit:1.5;stroke-width:.5996"/>
   <path id="path266" d="m111.48-14.786v2.0266c0 .51985 0 .82624.012.91978.054.46768.19187.70153.41972.70153.054 0 .18587-.02578.38974-.07795.054-.02039.13191-.03118.23384-.03118.39573 0 .5936.17148.5936.51445 0 .1457-.066.27042-.19187.37415-.13191.10433-.2938.1559-.49167.1559-.16789 0-.41972-.02338-.75549-.07015-.34177-.04677-.5936-.07015-.75549-.07015-.27582 0-.57561.02099-.90539.06236-.40773.05217-.67755.07795-.80946.07795-.41971 0-.62957-.17628-.62957-.53004 0-.34297.17988-.51445.53364-.51445.0839 0 .20386.01559.36575.04677s.28181.04677.36575.04677c.25183 0 .40173-.33218.4557-.99773v-3.9909c-.054-.65476-.20986-.98214-.46769-.98214-.0839 0-.20386.01859-.35376.05456-.1499.03657-.26382.05456-.33577.05456-.37175 0-.56362-.16609-.56362-.49886 0-.35316.23384-.53004.68953-.53004.19787 0 .33578.0054.41972.01559.33577.04197.54563.06236.64157.06236.0839 0 .20986-.01259.37774-.03897.17389-.02578.2998-.03897.38374-.03897.2998 0 .4497.20266.4497.60799 0 .04197 0 .10433-.012.18707-.012.08334-.018.1457-.018.18707-.006.08334-.018.40533-.03.96655-.012.42631-.012.86282-.012 1.3095zm-.81545-4.0844c-.23984 0-.4437-.08574-.61159-.25723-.17388-.17148-.25783-.37655-.25783-.61578 0-.23864.084-.4413.25783-.60799.16789-.16609.37175-.24943.61159-.24943s.4437.08334.61758.24943c.17389.16669.25783.36935.25783.60799 0 .23924-.0839.4443-.25783.61578-.17388.17148-.37774.25723-.61758.25723z" style="clip-rule:evenodd;stroke-linecap:round;stroke-linejoin:round;stroke-miterlimit:1.5;stroke-width:.5996"/>
   <path id="path268" d="m120.48-10.063c-.85142 0-1.3731-.36875-1.5709-1.1069-.53364.77948-1.3611 1.1692-2.4943 1.1692-.84543 0-1.517-.20746-2.0206-.62358-.50366-.41552-.75549-.97134-.75549-1.6681 0-.86222.36576-1.4966 1.1033-1.9019.28181-.1559.52764-.25723.72551-.304.20386-.04677.61159-.10613 1.2232-.17928.87541-.09354 1.445-.22305 1.7088-.38974.26383-.16609.40173-.47248.40173-.91978 0-.42571-.14989-.76089-.44969-1.0055-.2938-.24404-.70753-.36635-1.2352-.36635-.46769 0-.90539.13011-1.3131.38974-.15589.10433-.23384.21346-.23384.32738 0 .04197.048.09354.1439.1559.14391.10433.21586.28061.21586.53004 0 .20806-.0719.37954-.22785.51445-.1499.13551-.33577.20266-.56362.20266-.27581 0-.49766-.09354-.68354-.28061-.17988-.18707-.26982-.41552-.26982-.68594 0-.58161.28781-1.0805.86342-1.4966.57561-.41552 1.2771-.62358 2.0986-.62358 1.8887 0 2.8361.90959 2.8361 2.7282v3.1491c0 .49886.012.79506.03.8886.066.36395.23984.54563.53364.54563.35976 0 .54563-.33218.54563-.99773v-.76388c0-.33218.16189-.49886.47968-.49886.34177 0 .51565.24943.51565.7483v.07795l-.018.8886c-.018.99773-.54563 1.4966-1.5889 1.4966zm-1.7268-3.1023.012-1.1069c-.22785.20806-.46769.35376-.72551.43651-.25183.08334-.70753.1559-1.3611.21825-1.1872.11452-1.7748.55103-1.7748 1.3095 0 .39513.13791.70692.42571.93537.28781.22904.67155.34297 1.1632.34297.69553 0 1.2412-.18947 1.6429-.56902.40173-.37894.60559-.90119.61759-1.5667z" style="clip-rule:evenodd;stroke-linecap:round;stroke-linejoin:round;stroke-miterlimit:1.5;stroke-width:.5996"/>
   <path id="path270" d="m97.969 235.34c-.07261-4.7658.17887-9.8893.18596-14.053.03719-4.176.10272-9.574-.92092-14.379-3.6571-11.616-5.1271-8.5522-12.919-11.405-1.1954-.46755-1.647-1.4487-1.0077-3.6748 4.8738-2.0845 8.2192-5.8319 7.1194-12.314-1.1352-6.6855-4.532-8.9967-9.1667-9.234-5.6283-.2869-8.1413 2.1748-8.8107 9.1189-.58266 6.032.09209 10.199 4.4452 12.156-1.1104 3.9192.54016 3.7457-4.3832 3.9122-11.055 1.3282-11.836 3.3649-14.646 13.908-1.5868 5.9523-1.2999 20.303-2.4174 26.034 0 0 42.444-1.879 42.522-.0691z" style="clip-rule:evenodd;fill:#ffffff;stroke-linecap:round;stroke-linejoin:round;stroke-miterlimit:1.5;stroke-width:1.771"/>
   <path id="path272" d="m97.876 233.49c.10434 1.0188.01365.0401.09264 1.8511v-3.3693c0-3.5645.18625-7.1266.18625-10.685.03803-4.1753.10239-9.5747-.92052-14.38-3.6587-11.615-5.1272-8.5509-12.92-11.404-1.1955-.46684-1.648-1.4481-1.0093-3.6747 4.8747-2.0839 8.2204-5.8324 7.1204-12.314-1.1341-6.686-4.5324-8.9952-9.1672-9.233-5.6275-.28787-8.1414 2.174-8.8113 9.1191-.58118 6.0314.09264 10.198 4.4466 12.157-1.1107 3.9187.54022 3.7448-4.3842 3.9112-11.054 1.3279-11.835 3.3643-14.646 13.908-1.5865 5.9513-1.2999 20.302-2.4174 26.033" style="clip-rule:evenodd;fill:none;stroke-linecap:round;stroke-linejoin:round;stroke-width:1.0053px;stroke:#000000"/>
   <path id="path274" d="m89.067 209.55c2.2504 7.182-2.0795 20.384 1.1414 26.733" style="clip-rule:evenodd;fill:none;stroke-linecap:round;stroke-linejoin:round;stroke-width:1.0095px;stroke:#000000"/>
   <path id="path276" d="m64.896 210.34c.14267 6.0339-.13325 18.04-1.3621 25.6" style="clip-rule:evenodd;fill:none;stroke-linecap:round;stroke-linejoin:round;stroke-width:1.0095px;stroke:#000000"/>
   <path id="path278" d="m232.27 235.34c-.0726-4.7658.17887-9.8893.18595-14.053.0372-4.176.10272-9.574-.92092-14.379-3.6571-11.616-5.1271-8.5522-12.919-11.405-1.1954-.46755-1.647-1.4487-1.0077-3.6748 4.8738-2.0845 8.2192-5.8319 7.1194-12.314-1.1352-6.6855-4.532-8.9967-9.1667-9.234-5.6282-.2869-8.1413 2.1748-8.8108 9.1189-.58266 6.032.0921 10.199 4.4452 12.156-1.1104 3.9192.54015 3.7457-4.3832 3.9122-11.055 1.3282-11.836 3.3649-14.646 13.908-1.5868 5.9523-1.2999 20.303-2.4174 26.034 0 0 42.444-1.879 42.522-.0691z" style="clip-rule:evenodd;fill:#ffffff;stroke-linecap:round;stroke-linejoin:round;stroke-miterlimit:1.5;stroke-width:1.771" serif:id="path883-4-7-9-3-6"/>
   <path id="path280" d="m232.17 233.49c.10434 1.0188.0136.0401.0926 1.8511v-3.3693c0-3.5645.18625-7.1266.18625-10.685.038-4.1753.10239-9.5747-.92052-14.38-3.6587-11.615-5.1272-8.5509-12.92-11.404-1.1955-.46684-1.648-1.4481-1.0093-3.6747 4.8747-2.0839 8.2204-5.8324 7.1204-12.314-1.1341-6.686-4.5324-8.9952-9.1672-9.233-5.6275-.28787-8.1414 2.174-8.8113 9.1191-.58118 6.0314.0926 10.198 4.4466 12.157-1.1107 3.9187.54023 3.7448-4.3842 3.9112-11.054 1.3279-11.835 3.3643-14.646 13.908-1.5865 5.9513-1.2998 20.302-2.4174 26.033" style="clip-rule:evenodd;fill:none;stroke-linecap:round;stroke-linejoin:round;stroke-width:1.0053px;stroke:#000000" serif:id="path883-4-7-9-70"/>
   <path id="path282" d="m223.36 209.55c2.2504 7.182-2.0795 20.384 1.1414 26.733" style="clip-rule:evenodd;fill:none;stroke-linecap:round;stroke-linejoin:round;stroke-width:1.0095px;stroke:#000000" serif:id="path928-8-6-5-42"/>
   <path id="path284" d="m199.19 210.34c.14267 6.0339-.13324 18.04-1.3621 25.6" style="clip-rule:evenodd;fill:none;stroke-linecap:round;stroke-linejoin:round;stroke-width:1.0095px;stroke:#000000" serif:id="path930-1-9-8-28"/>
   <path id="path286" d="m165.12 235.34c-.0726-4.7658.17887-9.8893.18595-14.053.0372-4.176.10272-9.574-.92092-14.379-3.6571-11.616-5.1271-8.5522-12.919-11.405-1.1954-.46755-1.647-1.4487-1.0077-3.6748 4.8738-2.0845 8.2192-5.8319 7.1194-12.314-1.1352-6.6855-4.532-8.9967-9.1667-9.234-5.6282-.2869-8.1413 2.1748-8.8108 9.1189-.58266 6.032.0921 10.199 4.4452 12.156-1.1104 3.9192.54015 3.7457-4.3832 3.9122-11.055 1.3282-11.836 3.3649-14.646 13.908-1.5868 5.9523-1.2999 20.303-2.4174 26.034 0 0 42.444-1.879 42.522-.0691z" style="clip-rule:evenodd;fill:#ffffff;stroke-linecap:round;stroke-linejoin:round;stroke-miterlimit:1.5;stroke-width:1.771"/>
   <path id="path288" d="m165.02 233.49c.10434 1.0188.0137.0401.0926 1.8511v-3.3693c0-3.5645.18625-7.1266.18625-10.685.038-4.1753.10239-9.5747-.92052-14.38-3.6587-11.615-5.1272-8.5509-12.92-11.404-1.1955-.46684-1.648-1.4481-1.0093-3.6747 4.8747-2.0839 8.2204-5.8324 7.1204-12.314-1.1341-6.686-4.5324-8.9952-9.1672-9.233-5.6275-.28787-8.1414 2.174-8.8113 9.1191-.58118 6.0314.0926 10.198 4.4466 12.157-1.1107 3.9187.54023 3.7448-4.3842 3.9112-11.054 1.3279-11.835 3.3643-14.646 13.908-1.5865 5.9513-1.2998 20.302-2.4174 26.033" style="clip-rule:evenodd;fill:none;stroke-linecap:round;stroke-linejoin:round;stroke-width:1.0053px;stroke:#000000"/>
   <path id="path290" d="m156.22 209.55c2.2504 7.182-2.0795 20.384 1.1414 26.733" style="clip-rule:evenodd;fill:none;stroke-linecap:round;stroke-linejoin:round;stroke-width:1.0095px;stroke:#000000"/>
   <path id="path292" d="m132.04 210.34c.14267 6.0339-.13324 18.04-1.3621 25.6" style="clip-rule:evenodd;fill:none;stroke-linecap:round;stroke-linejoin:round;stroke-width:1.0095px;stroke:#000000"/>
   <path id="path294" d="m299.41 235.34c-.0726-4.7658.17887-9.8893.18595-14.053.0372-4.176.10272-9.574-.92092-14.379-3.6571-11.616-5.1271-8.5522-12.919-11.405-1.1954-.46755-1.647-1.4487-1.0077-3.6748 4.8738-2.0845 8.2192-5.8319 7.1194-12.314-1.1352-6.6855-4.532-8.9967-9.1667-9.234-5.6282-.2869-8.1413 2.1748-8.8108 9.1189-.58266 6.032.0921 10.199 4.4452 12.156-1.1104 3.9192.54015 3.7457-4.3832 3.9122-11.055 1.3282-11.836 3.3649-14.646 13.908-1.5868 5.9523-1.2999 20.303-2.4174 26.034 0 0 42.444-1.879 42.522-.0691z" style="clip-rule:evenodd;fill:#ffffff;stroke-linecap:round;stroke-linejoin:round;stroke-miterlimit:1.5;stroke-width:1.771" serif:id="path883-4-7-9-3-3"/>
   <path id="path296" d="m299.32 233.49c.10434 1.0188.0136.0401.0926 1.8511v-3.3693c0-3.5645.18625-7.1266.18625-10.685.038-4.1753.10239-9.5747-.92052-14.38-3.6587-11.615-5.1272-8.5509-12.92-11.404-1.1955-.46684-1.648-1.4481-1.0093-3.6747 4.8747-2.0839 8.2204-5.8324 7.1204-12.314-1.1341-6.686-4.5324-8.9952-9.1672-9.233-5.6275-.28787-8.1414 2.174-8.8113 9.1191-.58118 6.0314.0926 10.198 4.4466 12.157-1.1107 3.9187.54023 3.7448-4.3842 3.9112-11.054 1.3279-11.835 3.3643-14.646 13.908-1.5865 5.9513-1.2998 20.302-2.4174 26.033" style="clip-rule:evenodd;fill:none;stroke-linecap:round;stroke-linejoin:round;stroke-width:1.0053px;stroke:#000000" serif:id="path883-4-7-9-5"/>
   <path id="path298" d="m290.51 209.55c2.2504 7.182-2.0795 20.384 1.1414 26.733" style="clip-rule:evenodd;fill:none;stroke-linecap:round;stroke-linejoin:round;stroke-width:1.0095px;stroke:#000000" serif:id="path928-8-6-5-0"/>
   <path id="path300" d="m266.34 210.34c.14267 6.0339-.13324 18.04-1.3621 25.6" style="clip-rule:evenodd;fill:none;stroke-linecap:round;stroke-linejoin:round;stroke-width:1.0095px;stroke:#000000" serif:id="path930-1-9-8-48"/>
   <path id="path302" d="m30.82 235.34c-.07261-4.7658.17887-9.8893.18596-14.053.03719-4.176.10272-9.574-.92092-14.379-3.6571-11.616-5.1271-8.5522-12.919-11.405-1.1954-.46755-1.647-1.4487-1.0077-3.6748 4.8738-2.0845 8.2192-5.8319 7.1194-12.314-1.1352-6.6855-4.532-8.9967-9.1667-9.234-5.6283-.2869-8.1413 2.1748-8.8107 9.1189-.58266 6.032.092092 10.199 4.4452 12.156-1.1104 3.9192.54016 3.7457-4.3832 3.9122-11.055 1.3282-11.836 3.3649-14.646 13.908-1.5868 5.9523-1.2999 20.303-2.4174 26.034 0 0 42.444-1.879 42.522-.0691z" style="clip-rule:evenodd;fill:#ffffff;stroke-linecap:round;stroke-linejoin:round;stroke-miterlimit:1.5;stroke-width:1.771" serif:id="path883-4-7-9-3-3"/>
   <path id="path304" d="m30.728 233.49c.10434 1.0188.01365.0401.09264 1.8511v-3.3693c0-3.5645.18625-7.1266.18625-10.685.03803-4.1753.10239-9.5747-.92052-14.38-3.6587-11.615-5.1272-8.5509-12.92-11.404-1.1955-.46684-1.648-1.4481-1.0093-3.6747 4.8747-2.0839 8.2204-5.8324 7.1204-12.314-1.1341-6.686-4.5324-8.9952-9.1672-9.233-5.6275-.28787-8.1414 2.174-8.8113 9.1191-.58118 6.0314.092638 10.198 4.4466 12.157-1.1107 3.9187.54022 3.7448-4.3842 3.9112-11.054 1.3279-11.835 3.3643-14.646 13.908-1.5865 5.9513-1.2999 20.302-2.4174 26.033" style="clip-rule:evenodd;fill:none;stroke-linecap:round;stroke-linejoin:round;stroke-width:1.0053px;stroke:#000000" serif:id="path883-4-7-9-5"/>
   <path id="path306" d="m21.918 209.55c2.2504 7.182-2.0795 20.384 1.1414 26.733" style="clip-rule:evenodd;fill:none;stroke-linecap:round;stroke-linejoin:round;stroke-width:1.0095px;stroke:#000000" serif:id="path928-8-6-5-0"/>
   <path id="path308" d="m-2.2524 210.34c.14267 6.0339-.13325 18.04-1.3621 25.6" style="clip-rule:evenodd;fill:none;stroke-linecap:round;stroke-linejoin:round;stroke-width:1.0095px;stroke:#000000" serif:id="path930-1-9-8-48"/>
   <path id="path310" d="m-36.328 235.34c-.07261-4.7658.17887-9.8893.18596-14.053.03719-4.176.10272-9.574-.92092-14.379-3.6571-11.616-5.1271-8.5522-12.919-11.405-1.1954-.46755-1.647-1.4487-1.0077-3.6748 4.8738-2.0845 8.2192-5.8319 7.1194-12.314-1.1352-6.6855-4.532-8.9967-9.1667-9.234-5.6283-.2869-8.1413 2.1748-8.8107 9.1189-.58266 6.032.09209 10.199 4.4452 12.156-1.1104 3.9192.54016 3.7457-4.3832 3.9122-11.055 1.3282-11.836 3.3649-14.646 13.908-1.5868 5.9523-1.2999 20.303-2.4174 26.034 0 0 42.444-1.879 42.522-.0691z" style="clip-rule:evenodd;fill:#ffffff;stroke-linecap:round;stroke-linejoin:round;stroke-miterlimit:1.5;stroke-width:1.771"/>
   <path id="path312" d="m-36.421 233.49c.10434 1.0188.01365.0401.09264 1.8511v-3.3693c0-3.5645.18625-7.1266.18625-10.685.03803-4.1753.10239-9.5747-.92052-14.38-3.6587-11.615-5.1272-8.5509-12.92-11.404-1.1955-.46684-1.648-1.4481-1.0093-3.6747 4.8747-2.0839 8.2204-5.8324 7.1204-12.314-1.1341-6.686-4.5324-8.9952-9.1672-9.233-5.6275-.28787-8.1414 2.174-8.8113 9.1191-.58118 6.0314.09264 10.198 4.4466 12.157-1.1107 3.9187.54022 3.7448-4.3842 3.9112-11.054 1.3279-11.835 3.3643-14.646 13.908-1.5865 5.9513-1.2999 20.302-2.4174 26.033" style="clip-rule:evenodd;fill:none;stroke-linecap:round;stroke-linejoin:round;stroke-width:1.0053px;stroke:#000000"/>
   <path id="path314" d="m-45.23 209.55c2.2504 7.182-2.0795 20.384 1.1414 26.733" style="clip-rule:evenodd;fill:none;stroke-linecap:round;stroke-linejoin:round;stroke-width:1.0095px;stroke:#000000"/>
   <path id="path316" d="m-69.401 210.34c.14267 6.0339-.13325 18.04-1.3621 25.6" style="clip-rule:evenodd;fill:none;stroke-linecap:round;stroke-linejoin:round;stroke-width:1.0095px;stroke:#000000"/>
   <path id="path318" d="m-103.48 235.34c-.0726-4.7658.17887-9.8893.18595-14.053.0372-4.176.10272-9.574-.92092-14.379-3.6571-11.616-5.1271-8.5522-12.919-11.405-1.1954-.46755-1.647-1.4487-1.0077-3.6748 4.8738-2.0845 8.2192-5.8319 7.1194-12.314-1.1352-6.6855-4.532-8.9967-9.1667-9.234-5.6282-.2869-8.1413 2.1748-8.8108 9.1189-.58266 6.032.0921 10.199 4.4452 12.156-1.1104 3.9192.54015 3.7457-4.3832 3.9122-11.055 1.3282-11.836 3.3649-14.646 13.908-1.5868 5.9523-1.2999 20.303-2.4174 26.034 0 0 42.444-1.879 42.522-.0691z" style="clip-rule:evenodd;fill:#ffffff;stroke-linecap:round;stroke-linejoin:round;stroke-miterlimit:1.5;stroke-width:1.771"/>
   <path id="path320" d="m-103.57 233.49c.10434 1.0188.0136.0401.0926 1.8511v-3.3693c0-3.5645.18625-7.1266.18625-10.685.038-4.1753.10239-9.5747-.92052-14.38-3.6587-11.615-5.1272-8.5509-12.92-11.404-1.1955-.46684-1.648-1.4481-1.0093-3.6747 4.8747-2.0839 8.2204-5.8324 7.1204-12.314-1.1341-6.686-4.5324-8.9952-9.1672-9.233-5.6275-.28787-8.1414 2.174-8.8113 9.1191-.58118 6.0314.0926 10.198 4.4466 12.157-1.1107 3.9187.54023 3.7448-4.3842 3.9112-11.054 1.3279-11.835 3.3643-14.646 13.908-1.5865 5.9513-1.2998 20.302-2.4174 26.033" style="clip-rule:evenodd;fill:none;stroke-linecap:round;stroke-linejoin:round;stroke-width:1.0053px;stroke:#000000"/>
   <path id="path322" d="m-112.38 209.55c2.2504 7.182-2.0795 20.384 1.1414 26.733" style="clip-rule:evenodd;fill:none;stroke-linecap:round;stroke-linejoin:round;stroke-width:1.0095px;stroke:#000000"/>
   <path id="path324" d="m-136.55 210.34c.14267 6.0339-.13324 18.04-1.3621 25.6" style="clip-rule:evenodd;fill:none;stroke-linecap:round;stroke-linejoin:round;stroke-width:1.0095px;stroke:#000000"/>
   <circle id="circle326" cx="221.59" cy="-22.722" r="29.976" style="clip-rule:evenodd;fill-rule:evenodd;fill:#ebebeb;stroke-linecap:round;stroke-linejoin:round;stroke-miterlimit:1.5;stroke-width:1.4525px;stroke:#000000"/>
   <path id="path328" d="m228.75-21.312c.60343-4.4991-13.344-3.4075-16.249-.98629-.53475.44562-.94021 1.4809-.83978 2.1835.0683.47862 5.2062 11.588 5.7104 12.26.93787 1.2506 3.133 1.3378 3.695 3.0233.56506 1.6952-.56254 5.1479.67176 6.3822.16301.16301 1.4635.16803 1.6796.16803 4.6162 0 4.063-11.382 4.8707-14.612.43523-1.7411 2.7062-2.4272 3.1911-4.3668.33211-1.3286-1.0175-4.0309-2.5193-4.0309" style="clip-rule:evenodd;fill:none;stroke-linecap:round;stroke-linejoin:round;stroke-miterlimit:1.5;stroke-width:1.4525px;stroke:#000000"/>
   <path id="path330" d="m222.98-48.388c-.22398-.3461-1.3607.51718-1.416.56003-3.2063 2.4939-6.0478 6.7161-3.695 10.245.64969.97446 10.943-4.8576 8.2298-.33588-.002.0027-7.711 5.8708-8.0618 6.0463-3.1418 1.5709-4.5192-.0468-5.7104 3.527-.0638.19134-.57581.93572-.33588 1.1757 2.8081 2.8081 7.5143-2.5048 9.5733-3.1911.13503-.04501.82651-.34933 1.0078-.16803 1.3329 1.3329-1.6111 3.0918-.16803 4.5348.42931.42931 1.5277-5.8623 3.3591-4.0309 1.4423 1.4423-.1691 3.6105 2.0154 4.7026 3.0944 1.5472 6.1846 6.8712 10.245 8.9017 1.4538.72681 6.8936 1.8876 8.3976 1.5115.83099-.20784 2.5283 3.4264 3.3753 3.5677" style="clip-rule:evenodd;fill:none;stroke-linecap:round;stroke-linejoin:round;stroke-miterlimit:1.5;stroke-width:1.4525px;stroke:#000000"/>
   <path id="path332" d="m214.09-37.408c.34592.000717.4883.34628.86919.64234.30934.24066.66081.50444.8561.85628 1.6663 2.9992-3.5071 3.908-2.854.64216.17162-.85789 1.4271-1.0308 1.4271-1.8551" style="clip-rule:evenodd;fill:none;stroke-linecap:round;stroke-linejoin:round;stroke-miterlimit:1.5;stroke-width:1.4525px;stroke:#000000"/>
   <path id="path334" d="m204.48-46.155c-.2507 1.0797 1.6781 5.3801 2.2021 6.8208.21483.59088.7953 2.0524.42805 2.64-.58514.93626-3.1384 1.9089-4.3524 1.4983-.61239-.20694-1.4066-1.2026-2.1404-.71336-.25374.1691-.2706.5941-.49942.78473-.74025.61688-1.733-.08034-1.8551 1.1416-.0669.66835.47019 3.5535.42805 3.5675-1.1852.39523-2.2629.89699-2.9967 1.9979-.34538.51807.0536 1.4805-.57079 1.8551-.84248.50552-2.5662-.14741-3.0681.85628" style="clip-rule:evenodd;fill:none;stroke-linecap:round;stroke-linejoin:round;stroke-miterlimit:1.5;stroke-width:1.4525px;stroke:#000000"/>
   <path id="path336" d="m192-21.54c.63374.61401-.73326-.16857-.66404-.09917.85807.85807 2.4248-.26361 3.5675 1.641.25518.42518-.0423 1.115.0714 1.5696.39362 1.5741.66548 3.4759.42805 5.1373-.1309.91743-.51574 2.3793 0 3.282.45083.78885.93823 2.1426 1.4984 2.7828 1.1914 1.3616 3.5675 3.162 3.5675 4.9944" style="clip-rule:evenodd;fill:none;stroke-linecap:round;stroke-linejoin:round;stroke-miterlimit:1.5;stroke-width:1.4525px;stroke:#000000"/>
   <path id="path338" d="m217.01-60.226-7.3696-4.4137s26.112-7.7227 27.107-7.5519 24.073 13.777 24.073 13.777l-15.309 6.505-1.5779 8.3885c-11.343 6.1736-20.462 1.9853-28.305-8.1462z" style="clip-rule:evenodd;fill-rule:evenodd;fill:#00a62a;stroke-linecap:round;stroke-linejoin:round;stroke-miterlimit:1.5;stroke-width:1.4525px;stroke:#000000"/>
   <path id="path340" d="m236.74-72.191c-.99494-.17063-27.107 7.552-27.107 7.552l27.321 16.363 23.859-10.138s-23.078-13.606-24.073-13.777z" style="clip-rule:evenodd;fill:none;stroke-linecap:round;stroke-linejoin:round;stroke-miterlimit:1.5;stroke-width:1.4525px;stroke:#000000"/>
   <path id="path342" d="m236.05-62.194c-.054-1.8639 12.224 5.5521 13.653 6.9668 3.3714 3.3376 5.6702 9.5242 2.4238 13.436" style="clip-rule:evenodd;fill:none;stroke-linecap:round;stroke-linejoin:round;stroke-miterlimit:1.5;stroke-width:1.4525px;stroke:#000000"/>
   <path id="path344" d="m245.62-52.507-1.6903 8.9866c-11.343 6.1736-20.462 1.9855-28.305-8.1461l1.2595-8.5682" style="clip-rule:evenodd;fill:none;stroke-linecap:round;stroke-linejoin:round;stroke-miterlimit:1.5;stroke-width:1.4411px;stroke:#000000"/>
   <path id="path346" d="m219.21-14.765c0-7.6599-9.6024-13.879-21.43-13.879-11.827 0-21.43 6.2187-21.43 13.879 0 4.5265 3.4086 8.7687 9.1329 11.366l-2.704 9.4515 9.4485-7.4133c1.8108.31472 3.6776.47396 5.5525.47396 11.828 0 21.43-6.2187 21.43-13.878z" style="clip-rule:evenodd;fill-rule:evenodd;fill:#00a62a;stroke-linecap:round;stroke-linejoin:round;stroke-miterlimit:1.5;stroke-width:1.4525px;stroke:#000000"/>
   <path id="path348" d="m191.8-11.864q0 .20406-.34426.73462-.80329 1.1631-2.1612 2.2651-1.3579 1.0815-2.9836 1.0815-1.7213 0-2.8115-1.0407-1.0902-1.0611-1.0902-3.1221 0-1.408.459-3.1833.45904-1.7753 1.071-3.0813.63118-1.3264 1.4536-2.2039.84157-.87746 1.6831-.87746.82242 0 1.2623.63259.45901.63259.45901 1.5713 0 .3469-.13387.71421-.11475.3469-.26778.59178-.15299.24487-.2295.24487-.15299 0-.15299-.18366 0-.06122.0574-.26528.0765-.22447.0765-.36731 0-.51015-.11475-.95908-.0956-.38772-.38253-.63259-.2869-.26528-.63115-.26528-1.377 0-2.582 2.8364-.47813 1.1427-.80326 2.5712-.32517 1.4284-.32517 2.7548 0 .91827.34429 1.6733.36337.75502 1.0136 1.204.66942.44894 1.5492.44894 1.3962 0 2.5246-.71421 1.1476-.71421 2.2568-1.8365.0383-.04081.26778-.44894.2295-.42852.34425-.42852t.15303.06122q.0382.06122.0382.22447z" style="clip-rule:evenodd;fill-rule:evenodd;stroke-linecap:round;stroke-linejoin:round;stroke-miterlimit:1.5;stroke-width:.39028"/>
   <path id="path350" d="m193.52-20.985q0 .30609-.63115.30609-.32513 0-.66942-.28568-.32514-.28569-.32514-.46934 0-.22447.19127-.42852.21038-.20406.42076-.20406 0 0 .13387.06122.15303.04081.34429.26528.15299.16324.34426.42852.19126.26528.19126.3265zm.47812 12.835q0 .20406-.1721.30609-.15303.12244-.36341.10203-.26774-.020399-.40165-.91827-.11475-.89787-.24862-3.4078-.0765-1.6529-.13387-3.2242-.0574-1.5917-.0765-2.4487 0-.22447.0574-.3265.0765-.12244.26774-.12244.43988 0 .55464.38772.11478.38772.11478 1.4896l-.0193 2.4079q0 2.061.11479 3.3058 0 .06122.17211 1.306.13387.85705.13387 1.1427z" style="clip-rule:evenodd;fill-rule:evenodd;stroke-linecap:round;stroke-linejoin:round;stroke-miterlimit:1.5;stroke-width:.39028"/>
   <path id="path352" d="m204.34-9.517q.0193.14284.15303.30609.13387.14284.13387.24487 0 .24487-.19127.57137-.19126.30609-.38249.30609-.32517 0-.49728-.42853-.17214-.42853-.17214-.9999 0-.48974.0574-2.9385l.0193-.77543q0-.46934-.2295-.6734-.86069 1.5509-1.6066 2.6936t-1.8934 2.163q-1.1476.9999-2.4098.9999-.61203 0-.95628-.40812-.32518-.40812-.32518-1.0611 0-.81624.68855-2.2243.68854-1.4284 1.7596-2.8773 1.071-1.4692 2.1421-2.4079.70762-.61218 1.1284-.81624.42076-.22446.74594-.22446.30601 0 .63115.20406.32513.20406.55463.57137.22951.36731.22951.83665 0 .63259-.32514 1.204l.32514-.10203q.21038 0 .24865.55096.0193.3265.0382 1.3264.0382.9999.0574 1.6529.0193.6734.0382 1.306.0193.63259.0382.9999zm-6.7514.36731q1.0328 0 1.9891-.81624.95632-.81624 1.7022-1.9386.76502-1.1427 1.6831-2.7956.2295-.61218.2295-1.3264 0-.42853-.24862-.73462-.2295-.3265-.63115-.3265-.47816 0-1.2241.69381-.86065.77543-1.817 2.0814-.95629 1.2856-1.5874 2.5508-.63115 1.2652-.63115 1.9998 0 .61218.53552.61218z" style="clip-rule:evenodd;fill-rule:evenodd;stroke-linecap:round;stroke-linejoin:round;stroke-miterlimit:1.5;stroke-width:.39028"/>
   <path id="path354" d="m213.18-12.435q0 .79584-.55464 1.8365-.55467 1.0407-1.5684 1.7957-1.0136.73462-2.3142.73462-1.2814 0-1.8934-.75503-.61203-.75502-.61203-1.8774 0-.97949.32513-2.4283.3443-1.4488.95629-2.5916.0383-.08163.30601-.59178.2869-.53056.63115-.79584.34429-.28568.72679-.28568.17214 0 .30601.10203.15303.08162.15303.22447 0 .04081-.11475.20406-.0956.14284-.15303.22447-.65027.83665-1.0519 1.6529-.53551 1.0407-.84153 2.061-.2869 1.0203-.2869 2.2243 0 1.6121 1.8361 1.6121.86065 0 1.5874-.53056.7459-.53056 1.1858-1.2856.43988-.77543.43988-1.408 0-.71422-.43988-1.2448-.43993-.53056-1.205-1.1223-.49728-.38772-.72678-.63259t-.2295-.40812q0-.24488.32513-.38772.32514-.16325.76502-.16325.24866 0 .32514.04081.0765.0204.0765.10203 0 .04081-.0765.14284-.0574.08162-.0574.14284t.38253.40812q.76502.6734 1.2814 1.3672.5164.6938.5164 1.6325z" style="clip-rule:evenodd;fill-rule:evenodd;stroke-linecap:round;stroke-linejoin:round;stroke-miterlimit:1.5;stroke-width:.39028"/>
  </g>
 </g>
</svg>
