<?xml version="1.0" encoding="UTF-8" standalone="no"?>
<!DOCTYPE svg PUBLIC "-//W3C//DTD SVG 1.1//EN" "http://www.w3.org/Graphics/SVG/1.1/DTD/svg11.dtd">
<svg width="100%" height="100%" viewBox="0 0 112 130" version="1.1" xmlns="http://www.w3.org/2000/svg" xmlns:xlink="http://www.w3.org/1999/xlink" xml:space="preserve" xmlns:serif="http://www.serif.com/" style="fill-rule:evenodd;clip-rule:evenodd;stroke-linecap:round;stroke-linejoin:round;stroke-miterlimit:1.5;">
    <g transform="matrix(1,0,0,1,-461.755,-1130.65)">
        <g id="g4974">
        </g>
        <g id="g4964">
        </g>
        <g id="g4223">
        </g>
        <g id="g4219">
        </g>
        <g id="g4213">
        </g>
        <g id="g4228">
        </g>
        <g id="g4203">
        </g>
        <g id="g4985">
        </g>
        <g id="g4979">
        </g>
        <g transform="matrix(0.120099,0,0,0.120099,429.12,1155.05)">
            <rect x="482.848" y="256.43" width="210.732" height="210.732" style="fill:rgb(8,106,147);"/>
        </g>
        <g transform="matrix(1,0,0,1,-175.285,84.634)">
            <path d="M713.012,1151.83L687.703,1151.83L687.703,1082.3L687.703,1101.22L662.395,1101.22L662.395,1126.53L687.703,1126.53L687.703,1151.83L681.309,1151.83C681.309,1148.3 678.444,1145.44 674.914,1145.44C671.385,1145.44 668.52,1148.3 668.52,1151.83L637.086,1151.83L637.086,1075.91L656,1075.91C656,1072.38 658.865,1069.51 662.395,1069.51C665.924,1069.51 668.789,1072.38 668.789,1075.91L681.309,1075.91C681.309,1072.38 684.174,1069.51 687.703,1069.51C691.233,1069.51 694.098,1072.38 694.098,1075.91L713.012,1075.91L713.012,1151.83Z" style="fill:rgb(8,106,147);"/>
        </g>
        <g transform="matrix(0.289041,0,0,0.107444,391.81,1165.93)">
            <path d="M419.298,260L417.343,226.994L415.247,260L415.247,346.241L417.273,379.37L419.298,346.241L419.298,260Z" style="fill:rgb(90,177,214);"/>
        </g>
        <g transform="matrix(0.289041,0,0,0.107444,391.81,1140.62)">
            <path d="M419.298,260L417.343,226.994L415.247,260L415.247,346.241L417.273,379.37L419.298,346.241L419.298,260Z" style="fill:rgb(90,177,214);"/>
        </g>
        <g transform="matrix(0.289041,0,0,0.107444,366.501,1165.93)">
            <path d="M419.298,260L417.343,226.994L415.247,260L415.247,346.241L417.273,379.37L419.298,346.241L419.298,260Z" style="fill:rgb(90,177,214);"/>
        </g>
        <g transform="matrix(0.289041,0,0,0.107444,366.501,1140.62)">
            <path d="M419.298,260L417.343,226.994L415.247,260L415.247,346.241L417.273,379.37L419.298,346.241L419.298,260Z" style="fill:rgb(90,177,214);"/>
        </g>
        <g transform="matrix(1.76986e-17,0.289041,-0.107444,6.57905e-18,507.031,1090.55)">
            <path d="M419.298,260L417.343,226.994L415.247,260L415.247,346.241L417.273,379.37L419.298,346.241L419.298,260Z" style="fill:rgb(90,177,214);"/>
        </g>
        <g transform="matrix(1.76986e-17,0.289041,-0.107444,6.57905e-18,507.616,1065.24)">
            <path d="M419.298,260L417.343,226.994L415.247,260L415.247,346.241L417.273,379.37L419.298,346.241L419.298,260Z" style="fill:rgb(90,177,214);"/>
        </g>
        <g transform="matrix(1.76986e-17,0.289041,-0.107444,6.57905e-18,532.34,1090.55)">
            <path d="M419.298,260L417.343,226.994L415.247,260L415.247,346.241L417.273,379.37L419.298,346.241L419.298,260Z" style="fill:rgb(90,177,214);"/>
        </g>
        <g transform="matrix(1.76986e-17,0.289041,-0.107444,6.57905e-18,532.925,1065.24)">
            <path d="M419.298,260L417.343,226.994L415.247,260L415.247,346.241L417.273,379.37L419.298,346.241L419.298,260Z" style="fill:rgb(90,177,214);"/>
        </g>
        <g transform="matrix(1.76986e-17,0.289041,-0.107444,6.57905e-18,557.648,1090.55)">
            <path d="M419.298,260L417.343,226.994L415.247,260L415.247,346.241L417.273,379.37L419.298,346.241L419.298,260Z" style="fill:rgb(90,177,214);"/>
        </g>
        <g transform="matrix(1.76986e-17,0.289041,-0.107444,6.57905e-18,558.234,1065.24)">
            <path d="M419.298,260L417.343,226.994L415.247,260L415.247,346.241L417.273,379.37L419.298,346.241L419.298,260Z" style="fill:rgb(90,177,214);"/>
        </g>
        <g transform="matrix(0.289041,0,0,0.107444,366.501,1191.24)">
            <path d="M419.298,260L417.343,226.994L415.247,260L415.247,346.241L417.273,379.37L419.298,346.241L419.298,260Z" style="fill:rgb(90,177,214);"/>
        </g>
        <g transform="matrix(0.289041,0,0,0.107444,391.81,1191.24)">
            <path d="M419.298,260L417.343,226.994L415.247,260L415.247,346.241L417.273,379.37L419.298,346.241L419.298,260Z" style="fill:rgb(90,177,214);"/>
        </g>
        <g transform="matrix(1,0,0,1,-180.53,84.9809)">
            <path d="M718.815,1075.54L728.236,1075.59" style="fill:none;stroke:black;stroke-width:0.4px;"/>
        </g>
        <g transform="matrix(6.08409e-17,-1,0.993607,6.12323e-17,-606.709,1965.56)">
            <path d="M705.385,1075.54L728.236,1075.59" style="fill:none;stroke:black;stroke-width:0.4px;"/>
        </g>
        <g transform="matrix(1,0,0,1,-180.53,160.878)">
            <path d="M718.815,1075.54L728.236,1075.59" style="fill:none;stroke:black;stroke-width:0.4px;"/>
        </g>
        <g transform="matrix(6.08409e-17,-1,0.993607,6.12323e-17,-531.297,1965.56)">
            <path d="M705.385,1075.54L728.236,1075.59" style="fill:none;stroke:black;stroke-width:0.4px;"/>
        </g>
        <g transform="matrix(1,0,0,1,-175.285,84.634)">
            <path d="M718.28,1151.83L718.28,1075.94" style="fill:none;stroke:black;stroke-width:0.4px;"/>
        </g>
        <g transform="matrix(6.08409e-17,-1,0.993607,6.12323e-17,-607.054,1960.32)">
            <path d="M704.849,1151.83L704.849,1132.26" style="fill:none;stroke:black;stroke-width:0.4px;"/>
        </g>
        <g transform="matrix(6.08409e-17,-1,0.993607,6.12323e-17,-607.054,1960.32)">
            <path d="M704.849,1096.73L704.849,1075.94" style="fill:none;stroke:black;stroke-width:0.4px;"/>
        </g>
        <g transform="matrix(10.1124,0,0,10.1124,-6579.86,-10708.5)">
            <path d="M698.779,1183.49L698.779,1182.68L699.083,1182.68C699.145,1182.68 699.195,1182.69 699.232,1182.7C699.27,1182.72 699.299,1182.75 699.32,1182.78C699.341,1182.82 699.352,1182.85 699.352,1182.89C699.352,1182.92 699.343,1182.95 699.324,1182.99C699.305,1183.02 699.277,1183.04 699.239,1183.06C699.288,1183.07 699.325,1183.1 699.352,1183.13C699.378,1183.17 699.391,1183.21 699.391,1183.26C699.391,1183.29 699.383,1183.33 699.367,1183.36C699.351,1183.39 699.331,1183.42 699.308,1183.44C699.284,1183.45 699.255,1183.47 699.219,1183.48C699.184,1183.49 699.14,1183.49 699.088,1183.49L698.779,1183.49ZM698.887,1183.02L699.062,1183.02C699.109,1183.02 699.143,1183.02 699.164,1183.01C699.191,1183 699.212,1182.99 699.226,1182.97C699.24,1182.95 699.246,1182.93 699.246,1182.9C699.246,1182.87 699.24,1182.85 699.227,1182.83C699.214,1182.81 699.196,1182.8 699.172,1182.79C699.148,1182.78 699.107,1182.78 699.049,1182.78L698.887,1182.78L698.887,1183.02ZM698.887,1183.39L699.088,1183.39C699.123,1183.39 699.147,1183.39 699.161,1183.39C699.186,1183.39 699.207,1183.38 699.223,1183.37C699.24,1183.36 699.253,1183.34 699.264,1183.32C699.275,1183.31 699.28,1183.28 699.28,1183.26C699.28,1183.23 699.272,1183.2 699.257,1183.18C699.241,1183.15 699.22,1183.14 699.193,1183.13C699.165,1183.12 699.126,1183.12 699.074,1183.12L698.887,1183.12L698.887,1183.39Z" style="fill-rule:nonzero;"/>
            <path d="M699.525,1183.49L699.525,1182.9L699.615,1182.9L699.615,1182.99C699.637,1182.95 699.659,1182.92 699.678,1182.91C699.697,1182.9 699.718,1182.89 699.742,1182.89C699.775,1182.89 699.809,1182.9 699.844,1182.92L699.81,1183.02C699.785,1183 699.761,1182.99 699.737,1182.99C699.715,1182.99 699.695,1183 699.678,1183.01C699.661,1183.03 699.648,1183.04 699.641,1183.07C699.63,1183.1 699.625,1183.14 699.625,1183.18L699.625,1183.49L699.525,1183.49Z" style="fill-rule:nonzero;"/>
            <path d="M700.305,1183.3L700.408,1183.32C700.392,1183.38 700.361,1183.42 700.318,1183.45C700.274,1183.49 700.218,1183.5 700.15,1183.5C700.064,1183.5 699.996,1183.48 699.945,1183.42C699.895,1183.37 699.87,1183.3 699.87,1183.2C699.87,1183.1 699.895,1183.03 699.946,1182.97C699.997,1182.92 700.063,1182.89 700.144,1182.89C700.223,1182.89 700.287,1182.92 700.336,1182.97C700.386,1183.02 700.411,1183.1 700.411,1183.2C700.411,1183.2 700.411,1183.21 700.41,1183.22L699.973,1183.22C699.976,1183.29 699.995,1183.34 700.027,1183.37C700.06,1183.4 700.101,1183.42 700.15,1183.42C700.187,1183.42 700.218,1183.41 700.244,1183.39C700.269,1183.38 700.29,1183.34 700.305,1183.3ZM699.978,1183.14L700.306,1183.14C700.302,1183.09 700.289,1183.06 700.268,1183.03C700.237,1182.99 700.196,1182.97 700.145,1182.97C700.099,1182.97 700.061,1182.99 700.03,1183.02C699.999,1183.05 699.982,1183.09 699.978,1183.14Z" style="fill-rule:nonzero;"/>
            <path d="M700.533,1182.8L700.533,1182.68L700.633,1182.68L700.633,1182.8L700.533,1182.8ZM700.533,1183.49L700.533,1182.9L700.633,1182.9L700.633,1183.49L700.533,1183.49Z" style="fill-rule:nonzero;"/>
            <path d="M701.001,1183.4L701.016,1183.49C700.988,1183.5 700.963,1183.5 700.941,1183.5C700.904,1183.5 700.876,1183.49 700.857,1183.48C700.837,1183.47 700.823,1183.45 700.815,1183.44C700.806,1183.42 700.802,1183.38 700.802,1183.32L700.802,1182.98L700.729,1182.98L700.729,1182.9L700.802,1182.9L700.802,1182.76L700.901,1182.7L700.901,1182.9L701.001,1182.9L701.001,1182.98L700.901,1182.98L700.901,1183.33C700.901,1183.35 700.903,1183.37 700.907,1183.38C700.91,1183.39 700.916,1183.39 700.924,1183.4C700.932,1183.4 700.943,1183.41 700.958,1183.41C700.969,1183.41 700.983,1183.4 701.001,1183.4Z" style="fill-rule:nonzero;"/>
            <path d="M701.5,1183.3L701.603,1183.32C701.587,1183.38 701.557,1183.42 701.513,1183.45C701.469,1183.49 701.413,1183.5 701.345,1183.5C701.259,1183.5 701.191,1183.48 701.141,1183.42C701.091,1183.37 701.065,1183.3 701.065,1183.2C701.065,1183.1 701.091,1183.03 701.142,1182.97C701.193,1182.92 701.259,1182.89 701.34,1182.89C701.418,1182.89 701.482,1182.92 701.532,1182.97C701.582,1183.02 701.607,1183.1 701.607,1183.2C701.607,1183.2 701.606,1183.21 701.606,1183.22L701.168,1183.22C701.172,1183.29 701.19,1183.34 701.223,1183.37C701.256,1183.4 701.297,1183.42 701.346,1183.42C701.382,1183.42 701.413,1183.41 701.439,1183.39C701.465,1183.38 701.485,1183.34 701.5,1183.3ZM701.174,1183.14L701.502,1183.14C701.497,1183.09 701.485,1183.06 701.464,1183.03C701.432,1182.99 701.391,1182.97 701.341,1182.97C701.295,1182.97 701.257,1182.99 701.225,1183.02C701.194,1183.05 701.177,1183.09 701.174,1183.14Z" style="fill-rule:nonzero;"/>
        </g>
        <g transform="matrix(10.1124,0,0,10.1124,-6518.73,-10765.4)">
            <path d="M698.787,1183.49L698.787,1182.68L698.894,1182.68L698.894,1183.01L699.316,1183.01L699.316,1182.68L699.423,1182.68L699.423,1183.49L699.316,1183.49L699.316,1183.11L698.894,1183.11L698.894,1183.49L698.787,1183.49Z" style="fill-rule:nonzero;"/>
            <path d="M699.552,1183.2C699.552,1183.09 699.582,1183.01 699.642,1182.96C699.693,1182.91 699.754,1182.89 699.827,1182.89C699.908,1182.89 699.973,1182.92 700.025,1182.97C700.076,1183.02 700.102,1183.1 700.102,1183.19C700.102,1183.27 700.09,1183.32 700.068,1183.37C700.045,1183.41 700.012,1183.44 699.969,1183.47C699.925,1183.49 699.878,1183.5 699.827,1183.5C699.745,1183.5 699.678,1183.48 699.628,1183.42C699.577,1183.37 699.552,1183.3 699.552,1183.2ZM699.654,1183.2C699.654,1183.27 699.67,1183.33 699.703,1183.37C699.736,1183.4 699.777,1183.42 699.827,1183.42C699.876,1183.42 699.917,1183.4 699.95,1183.37C699.983,1183.33 699.999,1183.27 699.999,1183.19C699.999,1183.12 699.983,1183.07 699.95,1183.03C699.917,1182.99 699.876,1182.97 699.827,1182.97C699.777,1182.97 699.736,1182.99 699.703,1183.03C699.67,1183.07 699.654,1183.12 699.654,1183.2ZM699.671,1182.79L699.671,1182.68L699.775,1182.68L699.775,1182.79L699.671,1182.79ZM699.878,1182.79L699.878,1182.68L699.982,1182.68L699.982,1182.79L699.878,1182.79Z" style="fill-rule:nonzero;"/>
            <path d="M700.218,1183.49L700.218,1182.68L700.318,1182.68L700.318,1182.97C700.364,1182.92 700.423,1182.89 700.493,1182.89C700.537,1182.89 700.575,1182.9 700.607,1182.92C700.639,1182.93 700.662,1182.96 700.676,1182.99C700.689,1183.02 700.696,1183.06 700.696,1183.12L700.696,1183.49L700.597,1183.49L700.597,1183.12C700.597,1183.07 700.586,1183.03 700.564,1183.01C700.543,1182.99 700.512,1182.98 700.473,1182.98C700.443,1182.98 700.416,1182.98 700.39,1183C700.364,1183.02 700.345,1183.04 700.334,1183.06C700.323,1183.09 700.318,1183.12 700.318,1183.17L700.318,1183.49L700.218,1183.49Z" style="fill-rule:nonzero;"/>
            <path d="M701.25,1183.3L701.352,1183.32C701.336,1183.38 701.306,1183.42 701.262,1183.45C701.218,1183.49 701.162,1183.5 701.094,1183.5C701.008,1183.5 700.94,1183.48 700.89,1183.42C700.84,1183.37 700.815,1183.3 700.815,1183.2C700.815,1183.1 700.84,1183.03 700.891,1182.97C700.942,1182.92 701.008,1182.89 701.089,1182.89C701.167,1182.89 701.231,1182.92 701.281,1182.97C701.331,1183.02 701.356,1183.1 701.356,1183.2C701.356,1183.2 701.355,1183.21 701.355,1183.22L700.917,1183.22C700.921,1183.29 700.939,1183.34 700.972,1183.37C701.005,1183.4 701.046,1183.42 701.095,1183.42C701.131,1183.42 701.162,1183.41 701.188,1183.39C701.214,1183.38 701.234,1183.34 701.25,1183.3ZM700.923,1183.14L701.251,1183.14C701.246,1183.09 701.234,1183.06 701.213,1183.03C701.181,1182.99 701.14,1182.97 701.09,1182.97C701.044,1182.97 701.006,1182.99 700.975,1183.02C700.943,1183.05 700.926,1183.09 700.923,1183.14Z" style="fill-rule:nonzero;"/>
        </g>
        <g transform="matrix(10.1124,0,0,10.1124,-6583.51,-10829.1)">
            <path d="M698.783,1183.49L698.783,1182.68L698.893,1182.68L699.318,1183.32L699.318,1182.68L699.421,1182.68L699.421,1183.49L699.311,1183.49L698.886,1182.85L698.886,1183.49L698.783,1183.49Z" style="fill-rule:nonzero;"/>
            <path d="M699.552,1183.2C699.552,1183.09 699.582,1183.01 699.642,1182.96C699.693,1182.91 699.754,1182.89 699.827,1182.89C699.908,1182.89 699.973,1182.92 700.025,1182.97C700.076,1183.02 700.102,1183.1 700.102,1183.19C700.102,1183.27 700.09,1183.32 700.068,1183.37C700.045,1183.41 700.012,1183.44 699.969,1183.47C699.925,1183.49 699.878,1183.5 699.827,1183.5C699.745,1183.5 699.678,1183.48 699.628,1183.42C699.577,1183.37 699.552,1183.3 699.552,1183.2ZM699.654,1183.2C699.654,1183.27 699.67,1183.33 699.703,1183.37C699.736,1183.4 699.777,1183.42 699.827,1183.42C699.876,1183.42 699.917,1183.4 699.95,1183.37C699.983,1183.33 699.999,1183.27 699.999,1183.19C699.999,1183.12 699.983,1183.07 699.95,1183.03C699.917,1182.99 699.876,1182.97 699.827,1182.97C699.777,1182.97 699.736,1182.99 699.703,1183.03C699.67,1183.07 699.654,1183.12 699.654,1183.2Z" style="fill-rule:nonzero;"/>
            <path d="M700.218,1183.72L700.218,1182.9L700.309,1182.9L700.309,1182.98C700.33,1182.95 700.354,1182.93 700.381,1182.91C700.408,1182.9 700.441,1182.89 700.479,1182.89C700.529,1182.89 700.573,1182.9 700.612,1182.93C700.65,1182.95 700.679,1182.99 700.698,1183.04C700.718,1183.09 700.728,1183.14 700.728,1183.19C700.728,1183.25 700.717,1183.31 700.695,1183.36C700.674,1183.4 700.643,1183.44 700.601,1183.47C700.56,1183.49 700.517,1183.5 700.472,1183.5C700.439,1183.5 700.409,1183.5 700.383,1183.48C700.356,1183.47 700.335,1183.45 700.318,1183.43L700.318,1183.72L700.218,1183.72ZM700.308,1183.2C700.308,1183.28 700.324,1183.33 700.354,1183.37C700.385,1183.4 700.422,1183.42 700.465,1183.42C700.509,1183.42 700.547,1183.4 700.579,1183.37C700.61,1183.33 700.626,1183.27 700.626,1183.19C700.626,1183.12 700.611,1183.06 700.58,1183.03C700.549,1182.99 700.512,1182.97 700.47,1182.97C700.427,1182.97 700.39,1182.99 700.357,1183.03C700.325,1183.07 700.308,1183.12 700.308,1183.2Z" style="fill-rule:nonzero;"/>
            <path d="M700.848,1183.72L700.848,1182.9L700.938,1182.9L700.938,1182.98C700.96,1182.95 700.984,1182.93 701.011,1182.91C701.038,1182.9 701.07,1182.89 701.109,1182.89C701.159,1182.89 701.203,1182.9 701.241,1182.93C701.28,1182.95 701.308,1182.99 701.328,1183.04C701.348,1183.09 701.357,1183.14 701.357,1183.19C701.357,1183.25 701.347,1183.31 701.325,1183.36C701.303,1183.4 701.272,1183.44 701.231,1183.47C701.19,1183.49 701.147,1183.5 701.101,1183.5C701.068,1183.5 701.038,1183.5 701.012,1183.48C700.986,1183.47 700.964,1183.45 700.947,1183.43L700.947,1183.72L700.848,1183.72ZM700.938,1183.2C700.938,1183.28 700.953,1183.33 700.984,1183.37C701.014,1183.4 701.051,1183.42 701.095,1183.42C701.139,1183.42 701.177,1183.4 701.208,1183.37C701.24,1183.33 701.256,1183.27 701.256,1183.19C701.256,1183.12 701.24,1183.06 701.209,1183.03C701.179,1182.99 701.142,1182.97 701.099,1182.97C701.057,1182.97 701.019,1182.99 700.987,1183.03C700.954,1183.07 700.938,1183.12 700.938,1183.2Z" style="fill-rule:nonzero;"/>
            <path d="M701.879,1183.3L701.982,1183.32C701.966,1183.38 701.936,1183.42 701.892,1183.45C701.848,1183.49 701.792,1183.5 701.724,1183.5C701.638,1183.5 701.57,1183.48 701.52,1183.42C701.469,1183.37 701.444,1183.3 701.444,1183.2C701.444,1183.1 701.47,1183.03 701.52,1182.97C701.571,1182.92 701.637,1182.89 701.718,1182.89C701.797,1182.89 701.861,1182.92 701.911,1182.97C701.96,1183.02 701.985,1183.1 701.985,1183.2C701.985,1183.2 701.985,1183.21 701.985,1183.22L701.547,1183.22C701.551,1183.29 701.569,1183.34 701.602,1183.37C701.634,1183.4 701.675,1183.42 701.724,1183.42C701.761,1183.42 701.792,1183.41 701.818,1183.39C701.844,1183.38 701.864,1183.34 701.879,1183.3ZM701.552,1183.14L701.88,1183.14C701.876,1183.09 701.863,1183.06 701.843,1183.03C701.811,1182.99 701.77,1182.97 701.719,1182.97C701.674,1182.97 701.635,1182.99 701.604,1183.02C701.573,1183.05 701.556,1183.09 701.552,1183.14Z" style="fill-rule:nonzero;"/>
            <path d="M702.107,1183.49L702.107,1182.9L702.196,1182.9L702.196,1182.99C702.239,1182.92 702.302,1182.89 702.383,1182.89C702.419,1182.89 702.451,1182.9 702.481,1182.91C702.51,1182.92 702.533,1182.94 702.547,1182.96C702.562,1182.98 702.572,1183.01 702.578,1183.03C702.582,1183.05 702.584,1183.08 702.584,1183.13L702.584,1183.49L702.484,1183.49L702.484,1183.13C702.484,1183.09 702.48,1183.06 702.473,1183.04C702.465,1183.02 702.451,1183.01 702.432,1183C702.412,1182.98 702.389,1182.98 702.362,1182.98C702.32,1182.98 702.283,1182.99 702.252,1183.02C702.222,1183.04 702.206,1183.1 702.206,1183.17L702.206,1183.49L702.107,1183.49Z" style="fill-rule:nonzero;"/>
        </g>
        <g transform="matrix(10.1124,0,0,10.1124,-6558.38,-10721.5)">
            <path d="M698.783,1183.49L698.783,1182.68L698.893,1182.68L699.318,1183.32L699.318,1182.68L699.421,1182.68L699.421,1183.49L699.311,1183.49L698.886,1182.85L698.886,1183.49L698.783,1183.49Z" style="fill-rule:nonzero;"/>
            <path d="M699.973,1183.49L699.973,1183.4C699.928,1183.47 699.866,1183.5 699.787,1183.5C699.752,1183.5 699.72,1183.5 699.69,1183.48C699.66,1183.47 699.638,1183.45 699.623,1183.43C699.609,1183.41 699.598,1183.39 699.592,1183.36C699.588,1183.34 699.586,1183.31 699.586,1183.27L699.586,1182.9L699.686,1182.9L699.686,1183.23C699.686,1183.28 699.688,1183.32 699.692,1183.34C699.698,1183.36 699.711,1183.38 699.732,1183.4C699.752,1183.41 699.777,1183.42 699.807,1183.42C699.837,1183.42 699.865,1183.41 699.891,1183.4C699.917,1183.38 699.936,1183.36 699.946,1183.33C699.957,1183.31 699.963,1183.27 699.963,1183.22L699.963,1182.9L700.062,1182.9L700.062,1183.49L699.973,1183.49Z" style="fill-rule:nonzero;"/>
            <path d="M700.435,1183.4L700.45,1183.49C700.422,1183.5 700.397,1183.5 700.375,1183.5C700.338,1183.5 700.31,1183.49 700.291,1183.48C700.271,1183.47 700.257,1183.45 700.249,1183.44C700.24,1183.42 700.236,1183.38 700.236,1183.32L700.236,1182.98L700.163,1182.98L700.163,1182.9L700.236,1182.9L700.236,1182.76L700.335,1182.7L700.335,1182.9L700.435,1182.9L700.435,1182.98L700.335,1182.98L700.335,1183.33C700.335,1183.35 700.337,1183.37 700.341,1183.38C700.344,1183.39 700.35,1183.39 700.358,1183.4C700.366,1183.4 700.377,1183.41 700.392,1183.41C700.403,1183.41 700.417,1183.4 700.435,1183.4Z" style="fill-rule:nonzero;"/>
        </g>
        <g transform="matrix(0.952607,-0.0602136,-0.0602136,0.923498,-68.1865,199.303)">
            <path d="M655.631,1064.74L651.578,1075.16" style="fill:none;stroke:black;stroke-width:0.46px;"/>
        </g>
        <g transform="matrix(-0.6995,0.649449,-0.537782,-0.75317,1533.71,1618.93)">
            <path d="M652.647,1064.91C655.476,1068.55 654.337,1071.93 651.578,1075.16" style="fill:none;stroke:black;stroke-width:0.46px;"/>
        </g>
        <g transform="matrix(-0.952607,-0.0602136,0.0602136,0.923498,1068.46,199.303)">
            <path d="M655.631,1064.74L651.578,1075.16" style="fill:none;stroke:black;stroke-width:0.46px;"/>
        </g>
        <g transform="matrix(0.16829,0.117575,-0.117575,0.16829,472.088,799.791)">
            <path d="M1058.32,1348.21C1054.28,1352.63 1050.87,1358.78 1048.02,1366.46C1043.88,1361.2 1040.69,1356.88 1035.75,1350.66" style="fill:none;stroke:black;stroke-width:1.95px;"/>
        </g>
        <g transform="matrix(-0.20471,0.0154582,-0.0154582,-0.20471,735.376,1495.86)">
            <path d="M1058.32,1348.21C1054.28,1352.63 1050.87,1358.78 1048.02,1366.46C1043.88,1361.2 1040.21,1355.34 1038.41,1347.21" style="fill:none;stroke:black;stroke-width:1.95px;"/>
        </g>
        <g transform="matrix(0.185113,-0.088761,0.0837341,0.174629,204.085,1007.37)">
            <path d="M1058.32,1348.21C1054.28,1352.63 1050.87,1358.78 1048.02,1366.46C1043.88,1361.2 1040.21,1355.34 1038.41,1347.21" style="fill:none;stroke:black;stroke-width:2px;"/>
        </g>
    </g>
</svg>
