<!--?xml version="1.0" encoding="UTF-8"?-->
<!-- Created with Inkscape (http://www.inkscape.org/) -->
<svg id="svg3697" width="225.31mm" height="163.77mm" version="1.1" viewBox="0 0 225.31 163.77" xmlns="http://www.w3.org/2000/svg" xmlns:serif="http://www.serif.com/">
 <g id="g1762" class="csvg-ignore">
  <path id="rect17571-5" d="m17.019 132.2c-12.964.0328-11.813 2.8924-13.896 28.625-.029652.23878.09345.4296.43407.4346l35.173.55604c.24059.004.45664-.19447.4346-.43407-.15755-1.7131-.11598-2.3619-.24241-4.0576l18.457 1.9422c1.373.23013 1.5887.401 2.2828-.48543.50085-.63935.72273-1.8766-.43627-2.9837l-20.747-2.519c-.39383-6.4057-.57935-13.652-.5984-20.518-.000794-.24061-.19353-.44057-.43407-.4346-9.2037.22066-15.74-.1369-20.429-.12505z" style="fill:#c8b7b7;paint-order:fill markers stroke;stop-color:#000000;stroke-width:.26458"></path>
  <ellipse id="ellipse153" cx="26.371" cy="27.873" rx="14.958" ry="14.141" style="clip-rule:evenodd;fill:none;stroke-linecap:round;stroke-linejoin:round;stroke-miterlimit:1.5;stroke-width:2.2585px;stroke:#ffa52d"></ellipse>
  <ellipse id="ellipse293" cx="57.748" cy="118.7" rx="14.643" ry="14.383" style="clip-rule:evenodd;fill:none;stroke-linecap:round;stroke-linejoin:round;stroke-miterlimit:1.5;stroke-width:2.2574px;stroke:#ffa52d"></ellipse>
  <ellipse id="ellipse447" cx="205.46" cy="45.04" rx="15.79" ry="15.079" style="clip-rule:evenodd;fill:none;stroke-linecap:round;stroke-linejoin:round;stroke-miterlimit:1.5;stroke-width:2.259px;stroke:#ffa52d"></ellipse>
  <path id="path30529" d="m15.269 54.915q1.0116.21626 1.5766.89994.57206.68368.57206 1.6883 0 1.5418-1.0604 2.3859-1.0604.84413-3.0138.84413-.65577 0-1.3534-.13255-.69066-.12557-1.4301-.3837v-1.3604q.58601.34184 1.2836.51625t1.4581.17441q1.3255 0 2.0162-.52322.69763-.52322.69763-1.5208 0-.92087-.6488-1.4371-.64182-.52322-1.7929-.52322h-1.2139v-1.1581h1.2697q1.0395 0 1.5906-.4116.55113-.41858.55113-1.1999 0-.80228-.57206-1.2278-.56508-.43253-1.6255-.43253-.57903 0-1.2418.12557-.66275.12557-1.458.39067v-1.2557q.80228-.22324 1.4999-.33486.70461-.11162 1.3255-.11162 1.6046 0 2.5394.73251.93483.72554.93483 1.9673 0 .86506-.49532 1.465-.49532.59299-1.4092.82321z" style="clip-rule:evenodd;fill-rule:evenodd;fill:#642900"></path>
  <path id="path30532" d="m67.529 14.096v-1.2836q.5302.25115 1.0744.3837.54415.13255 1.0674.13255 1.3953 0 2.1278-.93483.73949-.9418.84414-2.8533-.40463.59996-1.0255.92087-.62089.32091-1.3743.32091-1.5627 0-2.4766-.9418-.90692-.94878-.90692-2.5882 0-1.6046.94878-2.5743.94878-.96971 2.5254-.96971 1.8069 0 2.7556 1.3883.95576 1.3813.95576 4.0184 0 2.4626-1.172 3.9346-1.165 1.465-3.1393 1.465-.5302 0-1.0744-.10464-.54415-.10464-1.1302-.31393zm2.8045-4.416q.94878 0 1.4999-.6488.5581-.6488.5581-1.779 0-1.1232-.5581-1.772-.55113-.65577-1.4999-.65577-.94878 0-1.5069.65577-.55113.6488-.55113 1.772 0 1.1302.55113 1.779.5581.6488 1.5069.6488z" style="clip-rule:evenodd;fill-rule:evenodd;fill:#642900"></path>
  <path id="path30535" d="m117.75 46.994q-.94878 0-1.5069.6488-.55113.6488-.55113 1.779 0 1.1232.55113 1.779.55811.6488 1.5069.6488t1.4999-.6488q.5581-.65577.5581-1.779 0-1.1302-.5581-1.779-.55113-.6488-1.4999-.6488zm2.7975-4.416v1.2836q-.5302-.25115-1.0744-.3837-.53718-.13255-1.0674-.13255-1.3953 0-2.1348.9418-.73251.9418-.83716 2.8463.4116-.60694 1.0325-.92785.62089-.32789 1.3674-.32789 1.5697 0 2.4766.95576.9139.94878.9139 2.5882 0 1.6046-.94878 2.5743-.94878.96971-2.5254.96971-1.8069 0-2.7626-1.3813-.95576-1.3883-.95576-4.0184 0-2.4696 1.172-3.9346 1.172-1.472 3.1463-1.472.5302 0 1.0674.10464.54415.10464 1.1302.31393z" style="clip-rule:evenodd;fill-rule:evenodd;fill:#642900"></path>
  <path id="path30538" d="m63.954 68.304-3.5579 5.5601h3.5579zm-.36975-1.2278h1.772v6.788h1.486v1.172h-1.486v2.4557h-1.4022v-2.4557h-4.702v-1.3604z" style="clip-rule:evenodd;fill-rule:evenodd;fill:#642900"></path>
  <path id="path30541" d="m24.67 109.04q-.94878 0-1.5069.6488-.55113.6488-.55113 1.779 0 1.1232.55113 1.779.55811.6488 1.5069.6488t1.4999-.6488q.5581-.65577.5581-1.779 0-1.1302-.5581-1.779-.55113-.6488-1.4999-.6488zm2.7975-4.416v1.2836q-.5302-.25115-1.0744-.3837-.53718-.13255-1.0674-.13255-1.3953 0-2.1348.9418-.73251.9418-.83716 2.8463.4116-.60694 1.0325-.92785.62089-.32789 1.3674-.32789 1.5697 0 2.4766.95576.9139.94878.9139 2.5882 0 1.6046-.94878 2.5743-.94878.96971-2.5254.96971-1.8069 0-2.7626-1.3813-.95576-1.3883-.95576-4.0184 0-2.4696 1.172-3.9346 1.172-1.472 3.1463-1.472.5302 0 1.0674.10464.54415.10464 1.1302.31393z" style="clip-rule:evenodd;fill-rule:evenodd;fill:#642900"></path>
  <path id="path30544" d="m100.03 111.8h2.3022v-7.946l-2.5045.5023v-1.2836l2.4905-.5023h1.4092v9.2297h2.3022v1.186h-5.9996z" style="clip-rule:evenodd;fill-rule:evenodd;fill:#642900"></path>
  <path id="path30546" d="m111.89 103.5q-1.0883 0-1.6394 1.0744-.54415 1.0674-.54415 3.2161 0 2.1417.54415 3.2161.55113 1.0674 1.6394 1.0674 1.0953 0 1.6394-1.0674.55113-1.0744.55113-3.2161 0-2.1487-.55113-3.2161-.54415-1.0744-1.6394-1.0744zm0-1.1162q1.7511 0 2.6719 1.3883.92785 1.3813.92785 4.0184 0 2.6301-.92785 4.0184-.92087 1.3813-2.6719 1.3813t-2.6789-1.3813q-.92087-1.3883-.92087-4.0184 0-2.637.92087-4.0184.92785-1.3883 2.6789-1.3883z" style="clip-rule:evenodd;fill-rule:evenodd;fill:#642900"></path>
  <path id="path30549" d="m133.9 104.12h5.5322v1.186h-4.2416v2.5533q.30696-.10464.61392-.15348.30696-.0558.61392-.0558 1.7441 0 2.7626.95576t1.0185 2.5882q0 1.6813-1.0464 2.6161-1.0464.92785-2.951.92785-.65577 0-1.3395-.11162-.6767-.11162-1.4022-.33486v-1.4162q.62787.34184 1.2976.50927t1.4162.16743q1.2069 0 1.9115-.63484t.70461-1.7232q0-1.0883-.70461-1.7232t-1.9115-.63484q-.56508 0-1.1302.12557-.55811.12557-1.1441.39067z" style="clip-rule:evenodd;fill-rule:evenodd;fill:#642900"></path>
  <path id="path30552" d="m97.593 136.12-3.5579 5.5601h3.5579zm-.36975-1.2278h1.772v6.788h1.486v1.172h-1.486v2.4557h-1.4022v-2.4557h-4.702v-1.3604z" style="clip-rule:evenodd;fill-rule:evenodd;fill:#642900"></path>
  <path id="path30555" d="m172.44 121.22q-.94878 0-1.5069.6488-.55113.6488-.55113 1.779 0 1.1232.55113 1.779.5581.6488 1.5069.6488t1.4999-.6488q.55811-.65577.55811-1.779 0-1.1302-.55811-1.779-.55113-.6488-1.4999-.6488zm2.7975-4.416v1.2836q-.5302-.25115-1.0744-.3837-.53717-.13255-1.0674-.13255-1.3953 0-2.1348.9418-.73251.94181-.83716 2.8463.41161-.60694 1.0325-.92785.62089-.32789 1.3674-.32789 1.5697 0 2.4766.95576.9139.94878.9139 2.5882 0 1.6046-.94878 2.5743-.94878.96971-2.5254.96971-1.8069 0-2.7626-1.3813-.95576-1.3883-.95576-4.0184 0-2.4696 1.172-3.9346 1.172-1.472 3.1463-1.472.5302 0 1.0674.10464.54415.10464 1.1302.31393z" style="clip-rule:evenodd;fill-rule:evenodd;fill:#642900"></path>
  <path id="path30558" d="m166.96 85.493-3.5579 5.5601h3.5579zm-.36974-1.2278h1.772v6.788h1.486v1.172h-1.486v2.4557h-1.4022v-2.4557h-4.702v-1.3604z" style="clip-rule:evenodd;fill-rule:evenodd;fill:#642900"></path>
  <path id="path30561" d="m214.56 77.051q1.0116.21626 1.5766.89994.57206.68368.57206 1.6883 0 1.5418-1.0604 2.3859-1.0604.84413-3.0138.84413-.65578 0-1.3534-.13255-.69065-.12557-1.4301-.3837v-1.3604q.58601.34184 1.2836.51625t1.458.17441q1.3255 0 2.0162-.52322.69764-.52322.69764-1.5208 0-.92087-.6488-1.4371-.64182-.52322-1.7929-.52322h-1.2139v-1.1581h1.2697q1.0395 0 1.5906-.4116.55113-.41858.55113-1.1999 0-.80228-.57206-1.2278-.56508-.43253-1.6255-.43253-.57904 0-1.2418.12557t-1.458.39067v-1.2557q.80228-.22324 1.4999-.33486.70461-.11162 1.3255-.11162 1.6046 0 2.5394.73251.93483.72554.93483 1.9673 0 .86506-.49532 1.465-.49532.59299-1.4092.82321z" style="clip-rule:evenodd;fill-rule:evenodd;fill:#642900"></path>
  <path id="path30564" d="m162.43 55.869q-1.0046 0-1.5836.53718-.57206.53718-.57206 1.479t.57206 1.479q.57903.53718 1.5836.53718t1.5836-.53718q.57903-.54415.57903-1.479 0-.9418-.57903-1.479-.57206-.53718-1.5836-.53718zm-1.4092-.59996q-.90692-.22324-1.4162-.84414-.50229-.62089-.50229-1.5139 0-1.2488.88599-1.9743.89297-.72554 2.4417-.72554 1.5557 0 2.4417.72554t.886 1.9743q0 .89297-.50927 1.5139-.5023.62089-1.4022.84414 1.0185.2372 1.5836.92785.57206.69066.57206 1.6883 0 1.5139-.92785 2.3231-.92088.80925-2.644.80925t-2.651-.80925q-.92087-.80925-.92087-2.3231 0-.99761.57206-1.6883.57205-.69066 1.5906-.92785zm-.51625-2.2254q0 .80925.50229 1.2627.50928.45346 1.4232.45346.90692 0 1.4162-.45346.51624-.45346.51624-1.2627 0-.80925-.51624-1.2627-.50928-.45346-1.4162-.45346-.91389 0-1.4232.45346-.50229.45346-.50229 1.2627z" style="clip-rule:evenodd;fill-rule:evenodd;fill:#642900"></path>
  <path id="path30567" d="m164.33 15.401h6.6973v.59996l-3.7812 9.8157h-1.472l3.5579-9.2297h-5.002z" style="clip-rule:evenodd;fill-rule:evenodd;fill:#642900"></path>
  <path id="path863-0-84" d="m17.958 22.502v7.4999l12.991 7.5004v-7.5004z" style="clip-rule:evenodd;fill:#ffefbf;stroke-linecap:round;stroke-width:.52917" serif:id="path863-0-8"></path>
  <path id="path684034" d="m17.958 30.002-3.2475 1.8754 7.7941 4.5 3.2475-1.8754z" style="clip-rule:evenodd;fill:#c8b7b7;stroke-linecap:round;stroke-width:.52917" serif:id="path68403"></path>
  <path id="path71557-04" d="m17.958 22.502v7.4999" style="clip-rule:evenodd;fill:none;stroke-linecap:round;stroke-linejoin:round;stroke-width:.44979px;stroke:#784421" serif:id="path71557-0"></path>
  <path id="path865-3-44" d="m37.444 26.252-3.2475-.37518-3.2475 4.1249v7.5004l6.495-3.7502z" style="clip-rule:evenodd;fill:#bfb38f;stroke-linecap:round;stroke-width:.52917" serif:id="path865-3-4"></path>
  <path id="path12928-3-3-5-14" d="m35.495 32.627v-1.5002c0-.74983-.4863-1.0716-1.2991-.74983-.85725.3392-1.2991 1.5002-1.2991 2.25v1.5002z" style="clip-rule:evenodd;fill:#afdde9;stroke-width:.30162px;stroke:#784421" serif:id="path12928-3-3-5-1"></path>
  <path id="path12928-3-3-54" d="m27.051 35.253v-3.7502c0-.74983.4863-1.0721 1.2991-.74983.85725.3392 1.2991 1.4997 1.2991 2.25v3.7497z" style="clip-rule:evenodd;fill:#a05a2c;stroke-linecap:round;stroke-width:.52917" serif:id="path12928-3-3-5"></path>
  <path id="path12928-3-3-5-34" d="m27.051 35.253v-3.7502c0-.74983.4863-1.0721 1.2991-.74983.85725.3392 1.2991 1.4997 1.2991 2.25v3.7497" style="clip-rule:evenodd;fill:none;stroke-linecap:round;stroke-width:.44979px;stroke:#784421" serif:id="path12928-3-3-5-3"></path>
  <path id="path411264" d="m34.196 25.877-3.2475 4.1249-5.1964-2.9998-3.2475 3.375-7.7941-4.5 6.495-7.4999z" style="clip-rule:evenodd;fill:#bf3030;stroke-linecap:round;stroke-width:.52917" serif:id="path41126"></path>
  <path id="path44958-94" d="m14.711 31.878v-6.0002l6.495-7.4999" style="clip-rule:evenodd;fill:none;stroke-linecap:round;stroke-linejoin:round;stroke-width:.44979px;stroke:#784421" serif:id="path44958-9"></path>
  <path id="path431454" d="m37.444 26.252-3.2475-.37518-12.991-7.4999 3.2475.37518z" style="clip-rule:evenodd;fill:#802020;stroke-linecap:round;stroke-width:.52917" serif:id="path43145"></path>
  <path id="path449584" d="m30.949 37.503v-7.5004l3.2475-4.1249 3.2475.37518v7.4999" style="clip-rule:evenodd;fill:none;stroke-linecap:round;stroke-linejoin:round;stroke-width:.44979px;stroke:#784421" serif:id="path44958"></path>
  <path id="path451254" d="m30.949 30.002 6.495-3.7497" style="clip-rule:evenodd;fill:none;stroke-width:.39688px;stroke:#784421" serif:id="path45125"></path>
  <path id="path467534" d="m34.196 25.877v2.25" style="clip-rule:evenodd;fill:none;stroke-width:.39688px;stroke:#784421" serif:id="path46753"></path>
  <path id="path486214" d="m21.206 18.377 12.991 7.4999" style="clip-rule:evenodd;fill:none;stroke-linecap:round;stroke-linejoin:round;stroke-width:.59796px;stroke:#784421" serif:id="path48621"></path>
  <path id="path508354" d="m30.949 32.252 1.9484-3.375" style="clip-rule:evenodd;fill:none;stroke-width:.44979px;stroke:#784421" serif:id="path50835"></path>
  <path id="path530584" d="m35.495 27.378 1.9484 1.125" style="clip-rule:evenodd;fill:none;stroke-width:.44979px;stroke:#784421" serif:id="path53058"></path>
  <path id="path604664" d="m34.196 30.377v2.9998" style="clip-rule:evenodd;fill:none;stroke-width:.22754px;stroke:#784421" serif:id="path60466"></path>
  <path id="path60466-44" d="m35.495 31.127-2.5982 1.5002" style="clip-rule:evenodd;fill:none;stroke-width:.22754px;stroke:#784421" serif:id="path60466-4"></path>
  <path id="path631284" d="m14.711 25.877 7.7941 4.5v6.0002" style="clip-rule:evenodd;fill:none;stroke-linecap:round;stroke-width:.44979px;stroke:#784421" serif:id="path63128"></path>
  <path id="path63128-24" d="m18.607 28.127v6.0002" style="clip-rule:evenodd;fill:none;stroke-linecap:round;stroke-width:.44979px;stroke:#784421" serif:id="path63128-2"></path>
  <path id="path685044" d="m30.949 30.002-5.1964-2.9998-3.2475 3.375" style="clip-rule:evenodd;fill:none;stroke-linecap:round;stroke-linejoin:round;stroke-width:.44979px;stroke:#784421" serif:id="path68504"></path>
  <path id="path715574" d="m25.752 27.002v7.4999" style="clip-rule:evenodd;fill:none;stroke-linecap:round;stroke-linejoin:round;stroke-width:.44979px;stroke:#784421" serif:id="path71557"></path>
  <path id="path764814" d="m21.206 22.877 1.9489 1.125v-3.7502l-1.9489-1.125z" style="clip-rule:evenodd;fill:#ffefbf;stroke-linecap:round;stroke-width:.52917" serif:id="path76481"></path>
  <path id="path764834" d="m23.154 24.002 1.9484-2.1442v-2.731l-1.9484 1.125v3.7502" style="clip-rule:evenodd;fill:#bfb38f;stroke-linecap:round;stroke-width:.52917" serif:id="path76483"></path>
  <path id="path803054" d="m21.206 19.127 1.9489-1.125 1.9484 1.125-1.9484 1.125z" style="clip-rule:evenodd;fill:#80775f;stroke-linecap:round;stroke-width:.52917" serif:id="path80305"></path>
  <path id="path80305-64" d="m21.855 19.127 1.2991-.74983v1.5002z" style="clip-rule:evenodd;fill:#bfb28e;stroke-linecap:round;stroke-width:.52917" serif:id="path80305-6"></path>
  <path id="path80305-6-84" d="m24.459 19.107-1.2991-.74983v1.5002z" style="clip-rule:evenodd;fill:#ffefbf;stroke-linecap:round;stroke-width:.52917" serif:id="path80305-6-8"></path>
  <path id="path3508" d="m120.37 89.918-13.31-7.6851v-12.295l13.31 7.6845z" style="clip-rule:evenodd;fill:#bfbfbf;stroke-linecap:round;stroke-width:.5422"></path>
  <path id="path5206" d="m120.37 82.233 13.31-7.6845v7.6845l-13.31 7.6851v-7.6851" style="clip-rule:evenodd;fill:#808080;stroke-linecap:round;stroke-width:.5422"></path>
  <path id="path6555" d="m113.72 73.78 13.31-7.6845 6.6549 8.4528-13.31 7.6845z" style="clip-rule:evenodd;fill:#a02c2c;stroke-linecap:round;stroke-width:.5422"></path>
  <path id="path2812" d="m104.4 73.011v15.37l6.6549 3.8425v-15.37z" style="clip-rule:evenodd;fill:#bfbfbf;stroke-linecap:round;stroke-width:.5422"></path>
  <path id="path2880" d="m111.06 76.854 6.6549-3.8425v15.37l-6.6549 3.8425z" style="clip-rule:evenodd;fill:#808080;stroke-linecap:round;stroke-width:.5422"></path>
  <path id="path3011" d="m111.06 61.485-6.6549 11.527 6.6549 3.8425z" style="clip-rule:evenodd;fill:#a08383;stroke-linecap:round;stroke-width:.5422"></path>
  <path id="path3255" d="m111.06 61.485 6.6549 11.527-6.6549 3.8425v-15.369" style="clip-rule:evenodd;fill:#a02c2c;stroke-linecap:round;stroke-width:.5422"></path>
  <path id="path16938" d="m101.27 16.951c-.58984-2.5306.78342-5.0554 2.3602-6.9432 1.2417-1.1424 3.0038-1.585 4.6045-1.9995 2.5695-.14477 5.1671.1456 7.7026.58736 3.0096.52697 5.8223 2.0715 7.9591 4.2463 2.1542 1.9101 4.7766 3.1444 7.3163 4.4341 5.1754 3.2586 2.6208 7.7275-1.3799 10.894-11.466 6.8878-24.762-6.8563-28.563-11.219z" style="clip-rule:evenodd;fill:#90bf60;stroke-linecap:round;stroke-width:.82726"></path>
  <path id="path2511" d="m109.94 17.056c.5948 1.6463 4.358 5.3565 6.9407 3.6358 2.5827-1.7215 9.9851 2.0764 11.621.74371.74702-1.6537-9.2761-8.989-11.041-8.4728-.62376.18282-2.9194-.39626-5.2647-.39791-2.3445-.0016-3.046 2.3982-2.2559 4.4912z" style="clip-rule:evenodd;fill:#97d8e9;stroke-linecap:round;stroke-width:.82726"></path>
  <path id="path19310-3" d="m125.81 15.246.72799 10.553c3.0849 3.0816-4.7146 2.3445-2.3569 0l.45003-9.5714c.0926-1.9565 1.044-2.931 1.1788-.98113z" style="clip-rule:evenodd;fill:#785f21;stroke-linecap:round;stroke-width:.82726"></path>
  <path id="path19763-7" d="m121.45 16.915c-2.112 7.1269 10.038 9.8072 8.0071 1.5999 0-3.1188-2.0963-9.3803-4.0619-9.3803s-1.8324.65436-3.9452 7.7804z" style="clip-rule:evenodd;fill:#008000;stroke-linecap:round;stroke-width:.82726"></path>
  <path id="path19310" d="m105.09 4.445v9.8155c-.79996 2.6092 2.0309 2.9451 2.0309.98196v-9.8163c0-1.9631-2.0309-2.9442-2.0309-.98113z" style="clip-rule:evenodd;fill:#785f21;stroke-linecap:round;stroke-width:.82726"></path>
  <ellipse id="ellipse1133" cx="106.03" cy="5.276" rx="5.0769" ry="5.2763" style="clip-rule:evenodd;fill-rule:evenodd;fill:#008000;stroke-linecap:round;stroke-width:.82726"></ellipse>
  <path id="path398315" d="m50.55 125.41v-4.7081l.67475.39234 5.3976 6.2774v1.5694z" style="clip-rule:evenodd;fill:#642900" serif:id="path39831"></path>
  <path id="path398335" d="m56.622 128.94 8.0966-4.7081v-1.5694l-8.0966 4.7081z" style="clip-rule:evenodd;fill:#993d00;stroke-linecap:round;stroke-width:.44375" serif:id="path39833"></path>
  <path id="path40366-75" d="m58.646 121.48v-13.339l-8.0966 4.7081v12.554" style="clip-rule:evenodd;fill:none;stroke-linecap:round;stroke-width:.41269px;stroke:#803300" serif:id="path40366-7"></path>
  <path id="path399945" d="m51.224 121.09 8.0966-4.7076 5.3976 6.277-8.0966 4.7081-5.3976-6.2774" style="clip-rule:evenodd;fill:#662900;stroke-linecap:round;stroke-width:.44375" serif:id="path39994"></path>
  <path id="path407385" d="m51.986 121.26 1.6024-.93164 2.137 2.485-1.6029.93208z" style="clip-rule:evenodd;fill:#ff7041;stroke-linecap:round;stroke-width:.44375" serif:id="path40738"></path>
  <path id="path40738-15" d="m53.896 120.15 1.6029-.93164 2.1366 2.485-1.6024.93208z" style="clip-rule:evenodd;fill:#ffcd40;stroke-linecap:round;stroke-width:.44375" serif:id="path40738-1"></path>
  <path id="path40738-75" d="m55.806 119.04 1.6029-.93208 2.137 2.4854-1.6029.93208z" style="clip-rule:evenodd;fill:#401a00;stroke-linecap:round;stroke-width:.44375" serif:id="path40738-7"></path>
  <path id="path40738-1-95" d="m57.717 117.93 1.6024-.93208 2.137 2.4854-1.6024.93164z" style="clip-rule:evenodd;fill:#30bf37;stroke-linecap:round;stroke-width:.44375" serif:id="path40738-1-9"></path>
  <path id="path40738-25" d="m54.442 124.06 1.6029-.93208 2.137 2.4854-1.6029.93163z" style="clip-rule:evenodd;fill:#ff9f80;stroke-linecap:round;stroke-width:.44375" serif:id="path40738-2"></path>
  <path id="path40738-1-65" d="m56.352 122.95 1.6024-.93208 2.137 2.4854-1.6029.93164z" style="clip-rule:evenodd;fill:#30bf37;stroke-linecap:round;stroke-width:.44375" serif:id="path40738-1-6"></path>
  <path id="path40738-7-15" d="m58.263 121.84 1.6024-.93208 2.137 2.485-1.6024.93208z" style="clip-rule:evenodd;fill:#ffdd80;stroke-linecap:round;stroke-width:.44375" serif:id="path40738-7-1"></path>
  <path id="path40738-1-9-85" d="m60.173 120.72 1.6029-.93209 2.137 2.485-1.6029.93209z" style="clip-rule:evenodd;fill:#ffcd40;stroke-linecap:round;stroke-width:.44375" serif:id="path40738-1-9-8"></path>
  <path id="path19035" d="m50.55 120.7.67475.39234 8.0966-4.7076-.67475-.39234-8.0966 4.7076" style="clip-rule:evenodd;fill:#662900;stroke-linecap:round;stroke-width:.44375" serif:id="path1903"></path>
  <path id="path8915" d="m50.519 113.06 4.0481 3.1387 8.0966-4.7081-4.0481-3.1387-8.0966 4.7081" style="clip-rule:evenodd;fill:#e50000;stroke-linecap:round;stroke-width:.44375" serif:id="path891"></path>
  <path id="path12715" d="m51.869 112.27 4.0481 3.1387 1.3495-.78468-4.0485-3.1387-1.3491.78468" style="clip-rule:evenodd;fill:#cccc33;stroke-linecap:round;stroke-width:.44375" serif:id="path1271"></path>
  <path id="path1271-35" d="m54.567 110.7 4.0485 3.1387 1.3491-.78468-4.0481-3.1387-1.3495.78468" style="clip-rule:evenodd;fill:#cccc33;stroke-linecap:round;stroke-width:.44375" serif:id="path1271-3"></path>
  <path id="path1271-3-65" d="m57.266 109.14 4.0481 3.1387 1.3495-.78468-4.0481-3.1387-1.3495.78468" style="clip-rule:evenodd;fill:#cccc33;stroke-linecap:round;stroke-width:.44375" serif:id="path1271-3-6"></path>
  <path id="path55735" d="m54.571 116.2c-.0053.39679.09772.7299.67475.39234s.66812-.74237.67475-1.177z" style="clip-rule:evenodd;fill:#ff0000;stroke-linecap:round;stroke-width:.44375" serif:id="path5573"></path>
  <path id="path5573-75" d="m55.917 115.41c-.0053.39679.09772.72946.67475.39234.57703-.33756.66812-.74237.67475-1.177z" style="clip-rule:evenodd;fill:#e5e500;stroke-linecap:round;stroke-width:.44375" serif:id="path5573-7"></path>
  <path id="path5573-55" d="m57.27 114.63c-.0053.39724.09772.7299.67475.39234.57703-.33712.66768-.74237.67475-1.177z" style="clip-rule:evenodd;fill:#ff0000;stroke-linecap:round;stroke-width:.44375" serif:id="path5573-5"></path>
  <path id="path5573-7-35" d="m58.616 113.84c-.0053.39679.09728.72946.67431.39234.57748-.33756.66812-.74237.67475-1.177z" style="clip-rule:evenodd;fill:#e5e500;stroke-linecap:round;stroke-width:.44375" serif:id="path5573-7-3"></path>
  <path id="path5573-565" d="m59.969 113.06c-.0049.39724.09772.7299.67475.39234.57703-.33712.66812-.74192.67475-1.177z" style="clip-rule:evenodd;fill:#ff0000;stroke-linecap:round;stroke-width:.44375" serif:id="path5573-56"></path>
  <path id="path5573-7-25" d="m61.315 112.27c-.0053.39679.09772.72946.67475.39234.57703-.33756.66812-.74237.67475-1.177z" style="clip-rule:evenodd;fill:#e5e500;stroke-linecap:round;stroke-width:.44375" serif:id="path5573-7-2"></path>
  <path id="path863-34" d="m194.87 40.928v8.1227l14.069 8.1227v-8.1227z" style="clip-rule:evenodd;fill:#e5e5e5;stroke-linecap:round;stroke-width:.52917" serif:id="path863-3"></path>
  <path id="path12928-24" d="m201.2 51.082v-4.8742l6.331 3.6555v4.8736z" style="clip-rule:evenodd;fill:#afdde9;stroke-width:.16404px;stroke:#b2b2b2" serif:id="path12928-2"></path>
  <path id="path865-64" d="m215.97 44.989-7.0348 4.0614v8.1227l7.0348-4.0614z" style="clip-rule:evenodd;fill:#bfbfbf;stroke-linecap:round;stroke-width:.52917" serif:id="path865-6"></path>
  <path id="path12928-2-94" d="m214.57 52.3v-4.8736l-4.2206 2.4368v4.8736z" style="clip-rule:evenodd;fill:#afdde9;stroke-width:.16404px;stroke:#b2b2b2" serif:id="path12928-2-9"></path>
  <path id="path869-74" d="m201.91 35.242-8.4418 4.8742 15.477 8.935 8.4413-4.8736z" style="clip-rule:evenodd;fill:#808080;stroke-linecap:round;stroke-width:.52917" serif:id="path869-7"></path>
  <path id="path129284" d="m196.28 49.863v-6.4982l4.2206 2.4368v6.4982z" style="clip-rule:evenodd;fill:#afdde9;stroke-width:.16404px;stroke:#b2b2b2" serif:id="path12928"></path>
  <path id="path133074" d="m198.39 44.583v6.4987" style="clip-rule:evenodd;fill:none;stroke-width:.16404px;stroke:#b2b2b2" serif:id="path13307"></path>
  <path id="path155294" d="m193.46 40.116 15.477 8.935v.81227l-15.477-8.935v-.81227" style="clip-rule:evenodd;fill:#cccccc;stroke-linecap:round;stroke-width:.52917" serif:id="path15529"></path>
  <path id="path157294" d="m208.94 49.051v.81227l8.4413-4.8736v-.81227z" style="clip-rule:evenodd;fill:#a8b2b2;stroke-linecap:round;stroke-width:.52917" serif:id="path15729"></path>
  <path id="path331244" d="m202.26 39.913-.70322.40577v3.2496l.70322-.40634v-3.249" style="clip-rule:evenodd;fill:#b3b3b3;stroke-linecap:round;stroke-width:.57312" serif:id="path33124"></path>
  <path id="path327564" d="m197.33 37.882v3.2496l4.221 2.4369v-3.2496z" style="clip-rule:evenodd;fill:#ffffff;stroke-linecap:round;stroke-width:.57312" serif:id="path32756"></path>
  <path id="path328594" d="m197.33 37.882 4.221 2.4369.70322-.40577-4.221-2.4369z" style="clip-rule:evenodd;fill:#e6e6e6;stroke-linecap:round;stroke-width:.57312" serif:id="path32859"></path>
  <path id="path332254" d="m200.5 41.74v-.81268l-.70321-.40577v-.81268l-.70379-.40577v.81211l-.70322-.40634v.81268l.70322.40577v.81268l.70379.40577v-.81211z" style="clip-rule:evenodd;fill:#ff0000;stroke-linecap:round;stroke-width:.57312" serif:id="path33225"></path>
  <path id="path863-0" d="m2.898 78.6v8.5243l14.765 8.5249v-8.5249z" style="clip-rule:evenodd;fill:#ffefbf;stroke-linecap:round;stroke-width:.52917"></path>
  <path id="path865-3" d="m25.046 82.862-3.6915-.42651-3.6909 4.6884v8.5249l7.3824-4.2624z" style="clip-rule:evenodd;fill:#bfb38f;stroke-linecap:round;stroke-width:.52917"></path>
  <path id="path12928-3-3" d="m11.019 91.813v-5.9674l2.9533 1.705v5.9674z" style="clip-rule:evenodd;fill:#a05a2c;stroke-width:.16933px;stroke:#805940"></path>
  <path id="path938" d="m18.402 89.256-16.98-9.8033 4.4291-5.9674 16.98 9.8033z" style="clip-rule:evenodd;fill:#bf3030;stroke-linecap:round;stroke-width:.52917"></path>
  <path id="path2165" d="m27.999 82.862-5.1678.42598-16.98-9.8033h5.9066z" style="clip-rule:evenodd;fill:#802020;stroke-linecap:round;stroke-width:.52917"></path>
  <path id="path3319-6-5-0" d="m4.375 82.862 4.4297 2.5569v3.41l-4.4297-2.5575z" style="clip-rule:evenodd;fill:#afdde9;stroke-width:.16933px;stroke:#805940"></path>
  <path id="path3138" d="m4.375 82.01-2.2146 1.2785 5.906 3.41 2.2146-1.279z" style="clip-rule:evenodd;fill:#bf0000;stroke-linecap:round;stroke-width:.52917"></path>
  <path id="path3319" d="m14.711 87.977 1.4764.85249v3.41l-1.4764-.85249z" style="clip-rule:evenodd;fill:#afdde9;stroke-width:.16933px;stroke:#805940"></path>
  <path id="path3319-6" d="m21.355 87.551-2.2146 1.2787v3.4097l2.2146-1.2787z" style="clip-rule:evenodd;fill:#afdde9;stroke-width:.16841px;stroke:#805940"></path>
  <path id="path6693" d="m19.14 89.682 2.2146-1.2787" style="clip-rule:evenodd;fill:none;stroke-width:.16841px;stroke:#805940"></path>
  <path id="path3319-6-5" d="m23.569 86.272-2.2146 1.2787v3.4097l2.2146-1.2787z" style="clip-rule:evenodd;fill:#afdde9;stroke-width:.16841px;stroke:#805940"></path>
  <path id="path6693-3" d="m21.355 88.403 2.2146-1.2787" style="clip-rule:evenodd;fill:none;stroke-width:.16841px;stroke:#805940"></path>
  <path id="path9107" d="m14.711 88.829 1.4764.85249" style="clip-rule:evenodd;fill:none;stroke-width:.16933px;stroke:#907054"></path>
  <path id="path11554" d="m5.113 82.436-2.2146 1.279.73819.42598 2.2146-1.2785-.73819-.42651" style="clip-rule:evenodd;fill:#bfbf00;stroke-linecap:round;stroke-width:.52917"></path>
  <path id="path11554-5" d="m6.59 83.288-2.2151 1.279.73819.42598 2.2151-1.2785-.73819-.42651" style="clip-rule:evenodd;fill:#bfbf00;stroke-linecap:round;stroke-width:.52917"></path>
  <path id="path11554-5-6" d="m8.066 84.141-2.2151 1.2785.73872.42651 2.2146-1.279-.73819-.42598" style="clip-rule:evenodd;fill:#bfbf00;stroke-linecap:round;stroke-width:.52917"></path>
  <path id="path11554-5-6-2" d="m9.543 84.993-2.2146 1.2785.73819.42651 2.2146-1.279-.73819-.42598" style="clip-rule:evenodd;fill:#bfbf00;stroke-linecap:round;stroke-width:.52917"></path>
  <path id="path12246" d="m2.16 83.288s-.02487.73078.22119.8726c.24606.14234.517-.44609.517-.44609z" style="clip-rule:evenodd;fill:#ff0000;stroke-linecap:round;stroke-width:.52917"></path>
  <path id="path12246-3" d="m2.898 83.715s-.02487.73025.22119.8726c.24606.14182.517-.44662.517-.44662z" style="clip-rule:evenodd;fill:#ffff00;stroke-linecap:round;stroke-width:.52917"></path>
  <path id="path12246-6" d="m3.637 84.141s-.02487.73078.22119.8726c.24606.14235.517-.44662.517-.44662z" style="clip-rule:evenodd;fill:#ff0000;stroke-linecap:round;stroke-width:.52917"></path>
  <path id="path12246-3-0" d="m4.375 84.567s-.02487.73078.22119.87312c.24606.14182.517-.44662.517-.44662z" style="clip-rule:evenodd;fill:#ffff00;stroke-linecap:round;stroke-width:.52917"></path>
  <path id="path12246-62" d="m5.113 84.993s-.02487.73078.22119.8726c.24606.14234.517-.44662.517-.44662z" style="clip-rule:evenodd;fill:#ff0000;stroke-linecap:round;stroke-width:.52917"></path>
  <path id="path12246-3-6" d="m5.851 85.419s-.02487.73078.22119.87312c.24606.14182.51752-.44662.51752-.44662z" style="clip-rule:evenodd;fill:#ffff00;stroke-linecap:round;stroke-width:.52917"></path>
  <path id="path12246-1" d="m6.59 85.846s-.0254.73078.22066.8726c.24659.14235.51752-.44662.51752-.44662z" style="clip-rule:evenodd;fill:#ff0000;stroke-linecap:round;stroke-width:.52917"></path>
  <path id="path12246-3-8" d="m7.328 86.272s-.02487.73078.22119.87312c.24606.14182.517-.44662.517-.44662z" style="clip-rule:evenodd;fill:#ffff00;stroke-linecap:round;stroke-width:.52917"></path>
  <path id="path13900" d="m5.113 79.026.73819-.42598.73872 1.2785h-1.4769v-.85249" style="clip-rule:evenodd;fill:#ffb380;stroke-linecap:round;stroke-width:.52917"></path>
  <path id="path12787-7" d="m5.851 80.305 5.9066 3.41v-1.705s-1.1927-.36036-1.4769-.85249c-.28416-.49212 1.0197-.762.73554-1.2547-.56832-.98425-2.704-2.7236-3.6883-2.1553-.49212.28416.49212 1.9891 0 1.705l-1.4769-.85249z" style="clip-rule:evenodd;fill:#ffb380;stroke-linecap:round;stroke-width:.52917"></path>
  <path id="path13476" d="m11.019 84.141.73872-.42598v-1.705l-.73872.42598z" style="clip-rule:evenodd;fill:#ffb380;stroke-linecap:round;stroke-width:.52917"></path>
  <path id="path14307" d="m6.59 78.173.73819-.42598.73819.42598-.73819.42651-.73819-.42651" style="clip-rule:evenodd;fill:#ffb380;stroke-linecap:round;stroke-width:.52917"></path>
  <path id="path12787" d="m5.113 80.731 5.906 3.41v-1.705s-1.1922-.36036-1.4764-.85249c-.28416-.49212 1.0234-.85672.73925-1.3488-.56832-.98425-2.7077-2.6294-3.692-2.0611-.49265.28416.71755 2.1225-.02064 1.696-.42915-.24765-.71808-.41698-1.4108-.79269-.0381-.02064-.04551-.0508-.04551-.0508z" style="clip-rule:evenodd;fill:#ff9955;stroke-linejoin:round;stroke-width:.16933px;stroke:#552200"></path>
  <path id="path22245" d="m206.61 119.99 11.706-6.7586v-18.023l-11.706 6.7586z" style="clip-rule:evenodd;fill:#a69153;stroke-linecap:round;stroke-width:.39738"></path>
  <path id="path21518" d="m208.56 105.35v13.517l7.8041 4.5059v-13.517l-7.8041-4.5059" style="clip-rule:evenodd;fill:#d9be6d;stroke-linecap:round;stroke-width:.39738"></path>
  <path id="path8181-6" d="m210.51 107.61v4.5055l3.9018 2.2531v-4.5059z" style="clip-rule:evenodd;fill:#afdde9;stroke-width:.29803px;stroke:#552200"></path>
  <path id="path10394-2" d="m210.51 109.86 3.9018 2.2527" style="clip-rule:evenodd;fill:none;stroke-width:.29803px;stroke:#552200"></path>
  <path id="path12999-9" d="m212.46 108.73v4.5055" style="clip-rule:evenodd;fill:none;stroke-width:.29803px;stroke:#552200"></path>
  <path id="path21520" d="m216.36 123.37 7.8041-4.5059v-13.517h-3.9022l-3.9018 4.5059v13.517" style="clip-rule:evenodd;fill:#a69153;stroke-linecap:round;stroke-width:.39738"></path>
  <path id="path8181-6-26" d="m222.21 113.8v4.5055l-3.9018 2.2531v-4.5059z" style="clip-rule:evenodd;fill:#afdde9;stroke-width:.29803px;stroke:#552200"></path>
  <path id="path10394-2-1" d="m222.21 116.06-3.9018 2.2527" style="clip-rule:evenodd;fill:none;stroke-width:.29803px;stroke:#552200"></path>
  <path id="path12999-9-8" d="m220.26 114.93v4.5055" style="clip-rule:evenodd;fill:none;stroke-width:.29803px;stroke:#552200"></path>
  <path id="path8181-6-26-9" d="m222.21 107.61v4.5055l-3.9018 2.2531v-4.5059z" style="clip-rule:evenodd;fill:#afdde9;stroke-width:.29803px;stroke:#552200"></path>
  <path id="path10394-2-1-2" d="m222.21 109.86-3.9018 2.2527" style="clip-rule:evenodd;fill:none;stroke-width:.29803px;stroke:#552200"></path>
  <path id="path12999-9-8-0" d="m220.26 108.73v4.5055" style="clip-rule:evenodd;fill:none;stroke-width:.29803px;stroke:#552200"></path>
  <path id="path21522" d="m208.56 105.35 3.9018-4.5055 7.8041 4.5055-3.9018 4.5059-7.8041-4.5059" style="clip-rule:evenodd;fill:#bf3030;stroke-linecap:round;stroke-width:.39738"></path>
  <path id="path22243" d="m212.46 100.85h3.9022l7.8041 4.5055h-3.9022l-7.8041-4.5055" style="clip-rule:evenodd;fill:#802020;stroke-linecap:round;stroke-width:.39738"></path>
  <path id="path21518-9" d="m192.95 96.342v13.517l7.8041 4.5059v-13.517l-7.8041-4.5059" style="clip-rule:evenodd;fill:#d9be6d;stroke-linecap:round;stroke-width:.39738"></path>
  <path id="path8181-6-2" d="m194.9 98.595v4.5055l3.9018 2.2531v-4.5059z" style="clip-rule:evenodd;fill:#afdde9;stroke-width:.29803px;stroke:#552200"></path>
  <path id="path10394-2-7" d="m194.9 100.85 3.9018 2.2527" style="clip-rule:evenodd;fill:none;stroke-width:.29803px;stroke:#552200"></path>
  <path id="path12999-9-0" d="m196.85 99.722v4.5055" style="clip-rule:evenodd;fill:none;stroke-width:.29803px;stroke:#552200"></path>
  <path id="path8181-7-3" d="m194.9 104.82v4.5055l3.9018 2.2531v-4.5059z" style="clip-rule:evenodd;fill:#afdde9;stroke-width:.29803px;stroke:#552200"></path>
  <path id="path10394-5-6" d="m194.9 107.08 3.9018 2.2527" style="clip-rule:evenodd;fill:none;stroke-width:.29803px;stroke:#552200"></path>
  <path id="path12999-3-0" d="m196.85 105.95v4.5055" style="clip-rule:evenodd;fill:none;stroke-width:.29803px;stroke:#552200"></path>
  <path id="path21522-7" d="m192.95 96.342 3.9018-4.5055 7.8041 4.5055-3.9018 4.5059-7.8041-4.5059" style="clip-rule:evenodd;fill:#bf3030;stroke-linecap:round;stroke-width:.39738"></path>
  <path id="path22243-3" d="m196.85 91.837h3.9022l7.8041 4.5055h-3.9022l-7.8041-4.5055" style="clip-rule:evenodd;fill:#802020;stroke-linecap:round;stroke-width:.39738"></path>
  <path id="path22360" d="m206.61 119.99-7.8041-4.5059v-18.023h3.9018l3.9022 4.5059z" style="clip-rule:evenodd;fill:#e5c973;stroke-linecap:round;stroke-width:.39738"></path>
  <path id="path22414" d="m202.7 97.469 11.706-6.7586 3.9018 4.5059-11.706 6.7586z" style="clip-rule:evenodd;fill:#a02c2c;stroke-linecap:round;stroke-width:.39738"></path>
  <path id="path22416" d="m198.8 97.469 11.706-6.7586h3.9022l-11.706 6.7586z" style="clip-rule:evenodd;fill:#cc3838;stroke-linecap:round;stroke-width:.39738"></path>
  <path id="path7423" d="m200.75 116.62v-6.7586c0-2.2527.78363-1.6575 1.9507-1.1266 1.0026.45619 1.9511 1.1266 1.9511 3.3793v6.7586z" style="clip-rule:evenodd;fill:#642900"></path>
  <path id="path8181" d="m200.75 100.85v4.5055l3.9018 2.2531v-4.5059z" style="clip-rule:evenodd;fill:#afdde9;stroke-width:.29803px;stroke:#552200"></path>
  <path id="path10394" d="m200.75 103.1 3.9018 2.2527" style="clip-rule:evenodd;fill:none;stroke-width:.29803px;stroke:#552200"></path>
  <path id="path12999" d="m202.7 101.98v4.5055" style="clip-rule:evenodd;fill:none;stroke-width:.29803px;stroke:#552200"></path>
  <path id="path8181-7" d="m210.51 113.84v4.5055l3.9018 2.2531v-4.5059z" style="clip-rule:evenodd;fill:#afdde9;stroke-width:.29803px;stroke:#552200"></path>
  <path id="path10394-5" d="m210.51 116.09 3.9018 2.2527" style="clip-rule:evenodd;fill:none;stroke-width:.29803px;stroke:#552200"></path>
  <path id="path12999-3" d="m212.46 114.96v4.5055" style="clip-rule:evenodd;fill:none;stroke-width:.29803px;stroke:#552200"></path>
  <path id="path1653" d="m125.49 155.49 10.685 6.1689v-8.2255l-5.3427-11.309-5.3419 5.1403z" style="clip-rule:evenodd;fill:#e9c6af;stroke-linecap:round;stroke-width:.72541"></path>
  <path id="path1656" d="m127.27 156.52v-7.1968l2.671 1.5422v7.1968z" style="clip-rule:evenodd;fill:#a05a2c;stroke-width:.20312px;stroke:#805940"></path>
  <path id="path1659" d="m136.18 161.66 7.1228-4.1124v-8.2255l-7.1228 4.1124z" style="clip-rule:evenodd;fill:#ccae9a;stroke-linecap:round;stroke-width:.72541"></path>
  <path id="path1662" d="m141.08 155.75v-4.1124l-2.671 1.5422v4.1124z" style="clip-rule:evenodd;fill:#afdde9;stroke-width:.20312px;stroke:#552200"></path>
  <path id="path1665" d="m139.74 152.41v4.1124" style="clip-rule:evenodd;fill:none;stroke-width:.20312px;stroke:#552200"></path>
  <path id="path1668" d="m138.4 155.24 2.671-1.5422" style="clip-rule:evenodd;fill:none;stroke-width:.20312px;stroke:#552200"></path>
  <path id="path12928-3-6-95" d="m131.73 156.01v-4.1131l2.6717 1.5422v4.1131z" style="clip-rule:evenodd;fill:#afdde9;stroke-width:.20312px;stroke:#552200" serif:id="path12928-3-6-9"></path>
  <path id="path12228-735" d="m133.06 152.66v4.1131" style="clip-rule:evenodd;fill:none;stroke-width:.20312px;stroke:#552200" serif:id="path12228-73"></path>
  <path id="path12228-7-615" d="m134.4 155.49-2.6717-1.5422" style="clip-rule:evenodd;fill:none;stroke-width:.20312px;stroke:#552200" serif:id="path12228-7-61"></path>
  <path id="path8186-95" d="m123.71 148.3 1.7809-1.0286 5.3427-5.1403h-1.7809l-5.3427 6.1689" style="clip-rule:evenodd;fill:#de9e9e;stroke-linecap:round;stroke-width:.72541" serif:id="path8186-9"></path>
  <path id="path2559-35" d="m129.05 142.13 6.2328 12.851 9.7953-5.6546-6.2328-12.851z" style="clip-rule:evenodd;fill:#802020;stroke-linecap:round;stroke-width:.72541" serif:id="path2559-3"></path>
  <path id="path3410-15" d="m129.06 142.13c-1.9637 1.9209-4.1305 3.8077-6.1958 5.6785l.94521.52303 5.3057-4.845c1.1048 2.2422 5.2868 10.981 5.2868 10.981l.89008.51359z" style="clip-rule:evenodd;fill:#992626;stroke-linecap:round;stroke-width:.72541" serif:id="path3410-1"></path>
  <path id="path1679" d="m134.04 143.83c.27072.69083.93917 1.1438 1.6812 1.139.74233-.005 1.4046-.46648 1.6664-1.1608 1.0632-2.821 2.7512-4.6201 4.1652-6.3747 1.7648-2.1901 3.1554-4.3316 3.2446-7.5457.12916-4.6479-3.0346-9.3265-9.0752-9.3694-2.9637-.021-5.1979 1.0527-6.7255 2.7474-1.4863 1.6489-2.309 3.9317-2.3702 6.5092-.0731 3.0869 1.3293 5.3897 3.1592 7.7056 1.4623 1.8511 3.2252 3.723 4.2542 6.3493z" style="clip-rule:evenodd;fill-rule:evenodd;fill:#ffffff;stroke-linecap:round;stroke-width:.26964"></path>
  <path id="path1703" d="m135.71 143.18c2.2847-6.0622 7.1418-7.8051 7.2955-13.338.10354-3.7351-2.4414-7.4921-7.2955-7.5266-4.729-.0337-7.1901 3.2781-7.2901 7.5058-.12485 5.2742 5.0904 7.7442 7.2901 13.358z" style="clip-rule:evenodd;fill-rule:evenodd;fill:#008000;stroke-linecap:round;stroke-linejoin:round;stroke-miterlimit:1.5;stroke-width:.64445px;stroke:#000000"></path>
  <ellipse id="ellipse1727" cx="135.66" cy="129.81" rx="3.9545" ry="3.8751" style="clip-rule:evenodd;fill-rule:evenodd;fill:#ffffff;stroke-linecap:round;stroke-linejoin:round;stroke-miterlimit:1.5;stroke-width:.63214px;stroke:#000000"></ellipse>
  <path id="rect17571" d="m6.281 132.39 30.931-.00019c.24062 0 .43367.19372.43433.43433.02788 10.045-.31962 18.37.55237 27.851.02204.23961-.19372.43491-.43434.43433l-34.85-.0838c-.24062-.00058-.4633-.19546-.43434-.43433l3.3665-27.767c.02896-.23887.19371-.43433.43434-.43433z" style="fill:#f7f6e5;paint-order:fill markers stroke;stop-color:#000000;stroke-linecap:round;stroke-linejoin:round;stroke-width:.3111;stroke:#000000"></path>
  <path id="path21292-7" d="m35.24 152.67-5.4094 1.3206 4.9546 2.5402-.0026.002 2.8823.39698-.05579-2.8203-2.3373-1.4354c3.2912 1.9709 3.1333 1.8733-.03187-.004z" style="-inkscape-stroke:none;fill:#d7d5b9;font-variation-settings:normal;paint-order:fill markers stroke;stop-color:#000000"></path>
  <path id="path21292" d="m35.652 152.08-5.3689.77436 4.9119 2.946 2.1988-.14933-.12033-3.2586z" style="fill:#deaa87"></path>
  <path id="rect19964" d="m35.684 152.09 23.589 3.1169-.49125 3.7179-23.589-3.1169.58601-.39542-.4632-.53406.58601-.39541-.4632-.53406.58601-.39541-.4632-.53405.58602-.39542z" style="fill:#b41414;paint-order:fill markers stroke;stop-color:#000000;stroke-linecap:round;stroke-linejoin:round;stroke-width:.36"></path>
  <path id="rect19964-6" d="m35.684 152.09 23.589 3.1169-.49125 3.7179-23.589-3.1169.58601-.39542-.4632-.53406.58601-.39541-.4632-.53406.58601-.39541-.4632-.53405.58602-.39542z" style="fill:#b41414;paint-order:fill markers stroke;stop-color:#000000;stroke-linecap:round;stroke-linejoin:round;stroke-width:.36"></path>
  <path id="path21840" d="m31.838 152.63-1.5548.22407 1.4306.8578c.16902-.29863.25133-.68857.12419-1.0819z" style="fill:#4d4d4d"></path>
  <path id="rect19964-4" d="m35.316 154.88.46321.53399-.58601.39535 23.589 3.1169.1186-.89758-19.853-2.554z" style="fill:#aa0000;paint-order:fill markers stroke;stop-color:#000000;stroke-linecap:round;stroke-linejoin:round;stroke-width:.36"></path>
  <path id="path12715-3" d="m51.869 112.27 4.0481 3.1387 1.3495-.78468-4.0485-3.1387-1.3491.78468" style="clip-rule:evenodd;fill:none;stroke-linecap:round;stroke-width:.44375" serif:id="path1271"></path>
  <path id="path1271-35-6" d="m54.567 110.7 4.0485 3.1387 1.3491-.78468-4.0481-3.1387-1.3495.78468" style="clip-rule:evenodd;fill:none;stroke-linecap:round;stroke-width:.44375" serif:id="path1271-3"></path>
  <path id="path1271-3-65-5" d="m57.266 109.14 4.0481 3.1387 1.3495-.78468-4.0481-3.1387-1.3495.78468" style="clip-rule:evenodd;fill:none;stroke-linecap:round;stroke-width:.44375" serif:id="path1271-3-6"></path>
 </g>
 <rect id="rect24406" x="6.654" y="136.23" width="28.347" height="20.849" style="fill:none;font-variation-settings:normal;paint-order:fill markers stroke;stop-color:#000000" class="csvg-valuedisplay"></rect>
 <text id="text26038" x="19.885609" y="153.68028" style="fill:#4d4d4d;font-family:sans-serif;font-size:19.286px;line-height:1.25;stroke-width:.48214;text-align:center;text-anchor:middle" xml:space="preserve" class="csvg-valuecounter"><tspan id="tspan26036" x="19.885609" y="153.68028" style="fill:#4d4d4d;stroke-width:.48214;text-align:center;text-anchor:middle">8</tspan></text>
 <g id="g4098" class="csvg-group">
  <g id="g3679" class="csvg-button">
   <path id="path20" d="m10.644 94.233a2.9583 2.9729 0 00-2.8721 3.0577s.12893 4.6492 1.1798 10.065c1.0509 5.4155 2.7682 11.814 7.3893 15.598 3.9555 3.2393 9.3412 3.695 13.782 3.7621 4.4407.0671 8.1007-.50133 8.1007-.50133a2.9583 2.9729 0 002.4754-3.3898 2.9583 2.9729 0 00-3.3731-2.4876s-3.2227.49244-7.1146.43364-8.2883-.91643-10.132-2.4263c-2.3501-1.9247-4.3733-7.2479-5.3202-12.127-.9468-4.8792-1.0724-9.098-1.0724-9.098a2.9583 2.9729 0 00-3.0426-2.8863z" style="-inkscape-stroke:none;color:#000000;fill:#cccc33;stroke-width:.54019"></path>
   <path id="path718-9" d="m10.99 98.053s.50059 17.33 7.3464 22.909c5.6949 4.6408 19.213 2.5664 19.213 2.5664" style="clip-rule:evenodd;fill:none;stroke-linecap:round;stroke-width:2.2595px;stroke:#642900"></path>
  </g>
  <g id="g3980" class="csvg-button">
   <path id="path20-2" d="m10.644 94.233a2.9583 2.9729 0 00-2.8721 3.0577s.12893 4.6492 1.1798 10.065c1.0509 5.4155 2.7682 11.814 7.3893 15.598 3.9555 3.2393 9.3412 3.695 13.782 3.7621s8.1007-.50133 8.1007-.50133a2.9583 2.9729 0 002.4754-3.3898 2.9583 2.9729 0 00-3.3731-2.4876s-3.2227.49244-7.1146.43363c-3.8919-.0588-8.2883-.91642-10.132-2.4263-2.3501-1.9247-4.3733-7.2479-5.3201-12.127-.9468-4.8792-1.0724-9.098-1.0724-9.098a2.9583 2.9729 0 00-3.0426-2.8863z" style="-inkscape-stroke:none;color:#000000;fill:none;stroke-width:.54019"></path>
   <path id="path718" d="m10.99 98.053s.50059 17.33 7.3464 22.909c5.6949 4.6408 19.213 2.5664 19.213 2.5664" style="clip-rule:evenodd;fill:none;stroke-linecap:round;stroke-width:2.2595px;stroke:#642900"></path>
  </g>
 </g>
 <g id="g4090" class="csvg-group">
  <g id="g3683" class="csvg-button">
   <path id="path17" d="m68.321 132.65a2.9051 2.9051 0 00-1.7849 1.326 2.9051 2.9051 0 001.0005 3.9842c5.7322 3.4307 14.456 10.691 23.593 16.619 9.1372 5.9281 18.893 10.974 27.921 8.5742a2.9051 2.9051 0 002.0619-3.5533 2.9051 2.9051 0 00-3.5543-2.0619c-5.8025 1.5424-14.543-2.1749-23.266-7.8341-8.7227-5.6592-17.222-12.81-23.772-16.73a2.9051 2.9051 0 00-2.1993-.32453z" style="-inkscape-stroke:none;color:#000000;fill:#cccc33;stroke-width:.52917"></path>
   <path id="path629-8" d="m118.3 160.35c-14.83 3.9423-36.994-17.528-49.276-24.879" style="clip-rule:evenodd;fill:none;stroke-linecap:round;stroke-width:2.2595px;stroke:#642900"></path>
  </g>
  <g id="g3984" class="csvg-button">
   <path id="path17-2" d="m68.321 132.65a2.9051 2.9051 0 00-1.7849 1.326 2.9051 2.9051 0 001.0005 3.9842c5.7322 3.4307 14.456 10.691 23.593 16.619s18.893 10.974 27.921 8.5742a2.9051 2.9051 0 002.0619-3.5533 2.9051 2.9051 0 00-3.5543-2.0619c-5.8025 1.5424-14.543-2.175-23.266-7.8342-8.7227-5.6592-17.222-12.81-23.772-16.73a2.9051 2.9051 0 00-2.1993-.32453z" style="-inkscape-stroke:none;color:#000000;fill:none;stroke-width:.52917"></path>
   <path id="path629" d="m118.3 160.35c-14.83 3.9423-36.994-17.528-49.276-24.879" style="clip-rule:evenodd;fill:none;stroke-linecap:round;stroke-width:2.2595px;stroke:#642900"></path>
  </g>
 </g>
 <g id="g4082" class="csvg-group">
  <g id="g3687" class="csvg-button">
   <path id="path14" d="m198.37 116.67a2.9051 2.7151 60.236 00-2.0889.21443l-46.153 26.394a2.9051 2.7151 60.236 00-.91413 3.8693 2.9051 2.7151 60.236 003.7987 1.1743l46.153-26.394a2.9051 2.7151 60.236 00.91511-3.8693 2.9051 2.7151 60.236 00-1.7107-1.3888z" style="-inkscape-stroke:none;color:#000000;fill:#cccc33;stroke-width:.51157"></path>
   <path id="path593-1" d="m197.73 119.4-46.148 26.391" style="clip-rule:evenodd;fill:none;stroke-linecap:round;stroke-width:2.1843px;stroke:#642900"></path>
  </g>
  <g id="g3956" class="csvg-button">
   <path id="path14-1" d="m198.37 116.67a2.9051 2.7151 60.236 00-2.0889.21443l-46.153 26.394a2.9051 2.7151 60.236 00-.91413 3.8693 2.9051 2.7151 60.236 003.7987 1.1743l46.153-26.394a2.9051 2.7151 60.236 00.91511-3.8693 2.9051 2.7151 60.236 00-1.7107-1.3888z" style="-inkscape-stroke:none;color:#000000;fill:none;stroke-width:.51157"></path>
   <path id="path593" d="m197.73 119.4-46.148 26.391" style="clip-rule:evenodd;fill:none;stroke-linecap:round;stroke-width:2.1843px;stroke:#642900"></path>
  </g>
 </g>
 <g id="g4074" class="csvg-group">
  <g id="g3691" class="csvg-button">
   <path id="path11" d="m216.11 60.263a2.1987 2.6902 0 00-1.6285.51682 2.1987 2.6902 0 00-.42943 3.768c2.6173 4.2407 5.138 9.4157 6.2388 13.861.55039 2.2227.73633 4.2348.54363 5.8075-.19271 1.5727-.66797 2.708-1.7114 3.7325a2.1987 2.6902 0 00-.33869 3.7823 2.1987 2.6902 0 003.0905.41441c1.8937-1.8594 2.9807-4.4548 3.3087-7.1311.32795-2.6763-.007-5.4308-.68442-8.1657-1.3544-5.4697-4.1168-10.971-6.9381-15.543a2.1987 2.6902 0 00-1.451-1.0432z" style="-inkscape-stroke:none;color:#000000;fill:#cccc33;stroke-width:.44299"></path>
   <path id="path578-5" d="m215.81 62.926c5.4386 8.812 10.567 21.352 4.6925 27.12" style="clip-rule:evenodd;fill:none;stroke-linecap:round;stroke-width:1.8916px;stroke:#642900"></path>
  </g>
  <g id="g3952" class="csvg-button">
   <path id="path11-9" d="m216.11 60.263a2.1987 2.6902 0 00-1.6285.51682 2.1987 2.6902 0 00-.42942 3.768c2.6173 4.2407 5.138 9.4157 6.2388 13.861.55038 2.2227.73633 4.2348.54362 5.8075s-.66797 2.708-1.7114 3.7325a2.1987 2.6902 0 00-.33869 3.7823 2.1987 2.6902 0 003.0904.41441c1.8937-1.8594 2.9807-4.4548 3.3087-7.1311.32794-2.6763-.007-5.4308-.68443-8.1657-1.3544-5.4697-4.1168-10.971-6.9381-15.543a2.1987 2.6902 0 00-1.451-1.0432z" style="-inkscape-stroke:none;color:#000000;fill:none;stroke-width:.44299"></path>
   <path id="path578" d="m215.81 62.926c5.4386 8.812 10.567 21.352 4.6925 27.12" style="clip-rule:evenodd;fill:none;stroke-linecap:round;stroke-width:1.8916px;stroke:#642900"></path>
  </g>
 </g>
 <g id="g4066" class="csvg-group">
  <g id="g3695" class="csvg-button">
   <path id="path8" d="m140.49 20.328a2.9051 2.9051 0 00-3.6608 1.8645 2.9051 2.9051 0 001.8645 3.6618l45.026 14.634a2.9051 2.9051 0 003.6608-1.8645 2.9051 2.9051 0 00-1.8655-3.6608z" style="-inkscape-stroke:none;color:#000000;fill:#cccc33;stroke-width:.52917"></path>
   <path id="path566-0" d="m139.59 23.132 45.025 14.593" style="clip-rule:evenodd;fill:none;stroke-linecap:round;stroke-width:2.2595px;stroke:#642900"></path>
  </g>
  <g id="g3948" class="csvg-button">
   <path id="path8-6" d="m140.49 20.328a2.9051 2.9051 0 00-3.6608 1.8645 2.9051 2.9051 0 001.8645 3.6618l45.026 14.634a2.9051 2.9051 0 003.6608-1.8645 2.9051 2.9051 0 00-1.8655-3.6608z" style="-inkscape-stroke:none;color:#000000;fill:none;stroke-width:.52917"></path>
   <path id="path566" d="m139.59 23.132 45.025 14.593" style="clip-rule:evenodd;fill:none;stroke-linecap:round;stroke-width:2.2595px;stroke:#642900"></path>
  </g>
 </g>
 <g id="g4058" class="csvg-group">
  <g id="g3699" class="csvg-button">
   <path id="path5" d="m96.623 13.731a2.8554 1.9836 0 00-2.184.05575s-4.4255 1.407-9.6545 2.7592-11.656 2.5095-13.621 2.3887c-6.7647-.41579-10.507-1.4768-14.847-1.1559-2.1701.16043-4.3442.80272-6.3317 1.9413-1.9875 1.1386-3.9103 2.7329-6.2606 5.0153a2.8554 1.9836 0 00.66131 2.7677 2.8554 1.9836 0 003.9831-.45939c2.2137-2.1498 3.9198-3.5017 5.2488-4.263 1.329-.76135 2.1594-.97253 3.3035-1.0571 2.2881-.16915 6.4136.71269 13.739 1.163 4.7313.29076 10.662-1.2123 16.117-2.623 5.4552-1.4108 10.041-2.87 10.041-2.87a2.8554 1.9836 0 001.4069-2.6294 2.8554 1.9836 0 00-1.601-1.0331z" style="-inkscape-stroke:none;color:#000000;fill:#cccc33;stroke-width:.4335"></path>
   <path id="path554-6" d="m46.046 25.89c9.1279-8.8643 10.776-5.8452 24.866-4.9792 6.6964.41153 24.717-5.3202 24.717-5.3202" style="clip-rule:evenodd;fill:none;stroke-linecap:round;stroke-width:1.851px;stroke:#642900"></path>
  </g>
  <g id="g3944" class="csvg-button">
   <path id="path5-1" d="m96.623 13.731a2.8554 1.9836 0 00-2.184.05575s-4.4255 1.407-9.6545 2.7592-11.656 2.5095-13.621 2.3887c-6.7647-.41579-10.507-1.4768-14.847-1.1559-2.1701.16043-4.3442.80272-6.3317 1.9413-1.9875 1.1386-3.9103 2.7329-6.2606 5.0153a2.8554 1.9836 0 00.66131 2.7677 2.8554 1.9836 0 003.9831-.45939c2.2137-2.1498 3.9198-3.5017 5.2488-4.263 1.329-.76135 2.1594-.97253 3.3035-1.0571 2.2881-.16915 6.4136.71269 13.739 1.163 4.7313.29076 10.662-1.2123 16.117-2.623 5.4552-1.4108 10.041-2.87 10.041-2.87a2.8554 1.9836 0 001.4069-2.6294 2.8554 1.9836 0 00-1.601-1.0331z" style="-inkscape-stroke:none;color:#000000;fill:none;stroke-width:.4335"></path>
   <path id="path554" d="m46.046 25.89c9.1279-8.8643 10.776-5.8452 24.866-4.9792 6.6964.41153 24.717-5.3202 24.717-5.3202" style="clip-rule:evenodd;fill:none;stroke-linecap:round;stroke-width:1.851px;stroke:#642900"></path>
  </g>
 </g>
 <g id="g4106" class="csvg-group">
  <g id="g3675" class="csvg-button">
   <path id="path2" d="m13.482 39.531a2.139 2.6613 0 00-1.6369.05018c-2.1978 1.2115-4.7503 3.6496-7.0581 6.475s-4.4414 5.6409-4.715 9.3588c-.36251 4.9252.69226 10.387 2.3233 16.23a2.139 2.6613 0 002.722 1.6417 2.139 2.6613 0 001.3188-3.3875c-1.5382-5.511-2.3666-10.433-2.1041-13.999.03881-.52747 1.4444-3.5885 3.4556-6.0508s4.5575-4.7223 5.7911-5.4023a2.139 2.6613 0 001.089-3.5116 2.139 2.6613 0 00-1.1856-1.405z" style="-inkscape-stroke:none;color:#000000;fill:#cccc33;stroke-width:.43459"></path>
   <path id="path539-6" d="m4.415 70.773c-1.5846-5.6773-2.5263-10.869-2.2138-15.115.31248-4.2454 7.0787-11.752 10.51-13.644" style="clip-rule:evenodd;fill:none;stroke-linecap:round;stroke-width:1.8557px;stroke:#642900"></path>
  </g>
  <g id="g3988" class="csvg-button">
   <path id="path2-7" d="m13.482 39.531a2.139 2.6613 0 00-1.6369.05018c-2.1978 1.2115-4.7503 3.6496-7.0581 6.475s-4.4414 5.6409-4.715 9.3588c-.36251 4.9252.69226 10.387 2.3233 16.23a2.139 2.6613 0 002.722 1.6417 2.139 2.6613 0 001.3188-3.3875c-1.5382-5.511-2.3666-10.433-2.1041-13.999.03881-.52747 1.4444-3.5885 3.4556-6.0508s4.5575-4.7223 5.7911-5.4023a2.139 2.6613 0 001.089-3.5116 2.139 2.6613 0 00-1.1856-1.405z" style="-inkscape-stroke:none;color:#000000;fill:none;stroke-width:.43459"></path>
   <path id="path539" d="m4.415 70.773c-1.5846-5.6773-2.5263-10.869-2.2138-15.115.31248-4.2454 7.0787-11.752 10.51-13.644" style="clip-rule:evenodd;fill:none;stroke-linecap:round;stroke-width:1.8557px;stroke:#642900"></path>
  </g>
 </g>
 <g id="g4114" class="csvg-group">
  <g id="g3707" class="csvg-button">
   <path id="path695-5-0" d="m100.29 78.409-69.164 5.0605a2.3799 2.3799 0 00-2.2012 2.5469 2.3799 2.3799 0 002.5488 2.2012l69.164-5.0605a2.3799 2.3799 0 002.1992-2.5488 2.3799 2.3799 0 00-2.5469-2.1992z" style="-inkscape-stroke:none;clip-rule:evenodd;color:#000000;fill:#cccc33;font-variation-settings:normal;stop-color:#000000;stroke-linecap:round;stroke-linejoin:round"></path>
   <path id="path695-6" d="m31.299 85.843 69.165-5.0604" style="clip-rule:evenodd;fill:none;stroke-linecap:round;stroke-width:2.2595px;stroke:#642900"></path>
  </g>
  <g id="g4050" class="csvg-button">
   <path id="path695-5-0-6" d="m100.29 78.409-69.164 5.0605a2.3799 2.3799 0 00-2.2012 2.5469 2.3799 2.3799 0 002.5488 2.2012l69.164-5.0605a2.3799 2.3799 0 002.1992-2.5488 2.3799 2.3799 0 00-2.5469-2.1992z" style="-inkscape-stroke:none;clip-rule:evenodd;color:#000000;fill:none;font-variation-settings:normal;stop-color:#000000"></path>
   <path id="path695" d="m31.299 85.843 69.165-5.0604" style="clip-rule:evenodd;fill:none;stroke-linecap:round;stroke-width:2.2595px;stroke:#642900"></path>
  </g>
 </g>
 <g id="g4154" class="csvg-group">
  <g id="g3711" class="csvg-button">
   <path id="path647-1" d="m101.29 91.212c-8.4805 7.0655-7.8668 16.453-8.7285 21.477-.21542 1.256-.51652 2.2194-.89453 2.8574s-.76571 1.0164-1.6094 1.3574c-1.6873.68212-5.5683.79488-12.57-.91016a2.3799 2.3799 0 00-2.877 1.748 2.3799 2.3799 0 001.75 2.877c7.3829 1.7978 12.012 2.0994 15.48.69727 1.7342-.70105 3.0856-1.9322 3.9219-3.3438.83625-1.4115 1.2258-2.937 1.4902-4.4785 1.0576-6.1661.23029-12.915 7.084-18.625a2.3799 2.3799 0 00.30469-3.3516 2.3799 2.3799 0 00-3.3516-.30469z" style="-inkscape-stroke:none;clip-rule:evenodd;color:#000000;fill:#cccc33;stroke-linecap:round;stroke-linejoin:round"></path>
   <path id="path647-2" d="m102.82 93.04c-15.334 12.776 2.8792 32.271-25.891 25.265" style="clip-rule:evenodd;fill:none;stroke-linecap:round;stroke-width:2.2595px;stroke:#642900"></path>
  </g>
  <g id="g3976" class="csvg-button">
   <path id="path647-1-7" d="m101.29 91.212c-8.4805 7.0655-7.8668 16.453-8.7285 21.477-.21542 1.256-.51652 2.2194-.89453 2.8574s-.76571 1.0164-1.6094 1.3574c-1.6873.68212-5.5683.79488-12.57-.91016a2.3799 2.3799 0 00-2.877 1.748 2.3799 2.3799 0 001.75 2.877c7.3829 1.7978 12.012 2.0994 15.48.69727 1.7342-.70105 3.0856-1.9322 3.9219-3.3438.83625-1.4115 1.2258-2.937 1.4902-4.4785 1.0576-6.1661.23029-12.915 7.084-18.625a2.3799 2.3799 0 00.30469-3.3516 2.3799 2.3799 0 00-3.3516-.30469z" style="-inkscape-stroke:none;clip-rule:evenodd;color:#000000;fill:none;stroke-linecap:round;stroke-linejoin:round"></path>
   <path id="path647" d="m102.82 93.04c-15.334 12.776 2.8792 32.271-25.891 25.265" style="clip-rule:evenodd;fill:none;stroke-linecap:round;stroke-width:2.2595px;stroke:#642900"></path>
  </g>
 </g>
 <g id="g4146" class="csvg-group">
  <g id="g3715" class="csvg-button">
   <path id="path656-4" d="m120.22 91.729a2.3799 2.3799 0 00-1.4355 3.0449l8.7148 24.291a2.3799 2.3799 0 003.0449 1.4375 2.3799 2.3799 0 001.4355-3.0449l-8.7148-24.291a2.3799 2.3799 0 00-3.0449-1.4375z" style="-inkscape-stroke:none;clip-rule:evenodd;color:#000000;fill:#cccc33;stroke-linecap:round;stroke-linejoin:round"></path>
   <path id="path656-9" d="m129.74 118.26-8.7159-24.293" style="clip-rule:evenodd;fill:none;stroke-linecap:round;stroke-width:1.9968px;stroke:#642900"></path>
  </g>
  <g id="g3972" class="csvg-button">
   <path id="path656-4-4" d="m120.22 91.729a2.3799 2.3799 0 00-1.4355 3.0449l8.7148 24.291a2.3799 2.3799 0 003.0449 1.4375 2.3799 2.3799 0 001.4355-3.0449l-8.7148-24.291a2.3799 2.3799 0 00-3.0449-1.4375z" style="-inkscape-stroke:none;clip-rule:evenodd;color:#000000;fill:none;stroke-linecap:round;stroke-linejoin:round"></path>
   <path id="path656" d="m129.74 118.26-8.7159-24.293" style="clip-rule:evenodd;fill:none;stroke-linecap:round;stroke-width:1.9968px;stroke:#642900"></path>
  </g>
 </g>
 <g id="g4138" class="csvg-group">
  <g id="g3719" class="csvg-button">
   <path id="path611-5" d="m133.62 84.897a2.3799 2.3799 0 00-3.0469 1.4297 2.3799 2.3799 0 001.4297 3.0469l31.377 11.338 24.396 8.8008a2.3799 2.3799 0 003.0449-1.4316 2.3799 2.3799 0 00-1.4297-3.0469l-24.396-8.7988z" style="-inkscape-stroke:none;clip-rule:evenodd;color:#000000;fill:#cccc33;stroke-linecap:round;stroke-linejoin:round"></path>
   <path id="path611-3" d="m188.58 107.27-24.396-8.8006-31.376-11.337" style="clip-rule:evenodd;fill:none;stroke-linecap:round;stroke-width:2.2595px;stroke:#642900"></path>
  </g>
  <g id="g3960" class="csvg-button">
   <path id="path611-5-1" d="m133.62 84.897a2.3799 2.3799 0 00-3.0469 1.4297 2.3799 2.3799 0 001.4297 3.0469l31.377 11.338 24.396 8.8008a2.3799 2.3799 0 003.0449-1.4316 2.3799 2.3799 0 00-1.4297-3.0469l-24.396-8.7988z" style="-inkscape-stroke:none;clip-rule:evenodd;color:#000000;fill:none;stroke-linecap:round;stroke-linejoin:round"></path>
   <path id="path611" d="m188.58 107.27-24.396-8.8006-31.376-11.337" style="clip-rule:evenodd;fill:none;stroke-linecap:round;stroke-width:2.2595px;stroke:#642900"></path>
  </g>
 </g>
 <g id="g4130" class="csvg-group">
  <g id="g3723" class="csvg-button">
   <path id="path674-0" d="m190.34 55.063a2.3799 2.3799 0 00-1.8106.19922c-14.545 7.9956-36.942 8.8815-52.186 17.9a2.3799 2.3799 0 00-.83789 3.2598 2.3799 2.3799 0 003.2598.83789c13.509-7.9923 35.925-8.9588 52.057-17.826a2.3799 2.3799 0 00.9375-3.2324 2.3799 2.3799 0 00-1.4199-1.1387z" style="-inkscape-stroke:none;clip-rule:evenodd;color:#000000;fill:#cccc33;stroke-linecap:round;stroke-linejoin:round"></path>
   <path id="path674-7" d="m137.55 75.212c14.376-8.5056 36.782-9.4312 52.12-17.863" style="clip-rule:evenodd;fill:none;stroke-linecap:round;stroke-width:2.2637px;stroke:#642900"></path>
  </g>
  <g id="g3964" class="csvg-button">
   <path id="path674-0-1" d="m190.34 55.063a2.3799 2.3799 0 00-1.8106.19922c-14.545 7.9956-36.942 8.8815-52.186 17.9a2.3799 2.3799 0 00-.83789 3.2598 2.3799 2.3799 0 003.2598.83789c13.509-7.9923 35.925-8.9588 52.057-17.826a2.3799 2.3799 0 00.9375-3.2324 2.3799 2.3799 0 00-1.4199-1.1387z" style="-inkscape-stroke:none;clip-rule:evenodd;color:#000000;fill:none;stroke-linecap:round;stroke-linejoin:round"></path>
   <path id="path674" d="m137.55 75.212c14.376-8.5056 36.782-9.4312 52.12-17.863" style="clip-rule:evenodd;fill:none;stroke-linecap:round;stroke-width:2.2637px;stroke:#642900"></path>
  </g>
 </g>
 <g id="g4122" class="csvg-group">
  <g id="g3703" class="csvg-button">
   <path id="path683-6" d="m119.43 29.977a2.3799 2.3799 0 00-1.7969.28711 2.3799 2.3799 0 00-.78125 3.2734c4.0358 6.5655 8.0196 11.229 9.1367 14.789.55855 1.78.57125 3.18-.23047 4.9922s-2.5896 4.061-5.8848 6.7734a2.3799 2.3799 0 00-.32422 3.3496 2.3799 2.3799 0 003.3496.32422c3.6255-2.9843 5.964-5.6984 7.2129-8.5215s1.238-5.7305.41797-8.3438c-1.64-5.2265-5.8304-9.6855-9.623-15.855a2.3799 2.3799 0 00-1.4766-1.0684z" style="-inkscape-stroke:none;clip-rule:evenodd;color:#000000;fill:#cccc33;stroke-linecap:round;stroke-linejoin:round"></path>
   <path id="path683-5" d="m121.39 61.93c13.841-11.393 5.3208-16.902-2.5077-29.638" style="clip-rule:evenodd;fill:none;stroke-linecap:round;stroke-width:2.2595px;stroke:#642900"></path>
  </g>
  <g id="g3968" class="csvg-button">
   <path id="path683-6-0" d="m119.43 29.977a2.3799 2.3799 0 00-1.7969.28711 2.3799 2.3799 0 00-.78125 3.2734c4.0358 6.5655 8.0196 11.229 9.1367 14.789.55855 1.78.57125 3.18-.23047 4.9922s-2.5896 4.061-5.8848 6.7734a2.3799 2.3799 0 00-.32422 3.3496 2.3799 2.3799 0 003.3496.32422c3.6255-2.9843 5.964-5.6984 7.2129-8.5215s1.238-5.7305.41797-8.3438c-1.64-5.2265-5.8304-9.6855-9.623-15.855a2.3799 2.3799 0 00-1.4766-1.0684z" style="-inkscape-stroke:none;clip-rule:evenodd;color:#000000;fill:none;stroke-linecap:round;stroke-linejoin:round"></path>
   <path id="path683" d="m121.39 61.93c13.841-11.393 5.3208-16.902-2.5077-29.638" style="clip-rule:evenodd;fill:none;stroke-linecap:round;stroke-width:2.2595px;stroke:#642900"></path>
  </g>
 </g>
</svg>
