<?xml version="1.0" encoding="UTF-8"?>
<svg width="744.97" height="747.06" version="1.1" viewBox="-144.97 -147.06 744.97 747.06" xmlns="http://www.w3.org/2000/svg">
 <rect x="-100" y="-100" width="700" height="700" style="fill:#fff6d5"/>
 <rect x="-100" y="-100" width="100" height="100" style="fill:#ffd42a"/>
 <rect width="100" height="100" style="fill:#ffd42a"/>
 <rect x="100" y="-100" width="100" height="100" style="fill:#ffd42a"/>
 <rect x="200" width="100" height="100" style="fill:#ffd42a"/>
 <rect x="200" width="100" height="100" style="fill:#ffd42a"/>
 <rect x="300" y="-100" width="100" height="100" style="fill:#ffd42a"/>
 <rect x="400" width="100" height="100" style="fill:#ffd42a"/>
 <rect x="500" y="-100" width="100" height="100" style="fill:#ffd42a"/>
 <rect x="-100" y="100" width="100" height="100" style="fill:#ffd42a"/>
 <rect y="200" width="100" height="100" style="fill:#ffd42a"/>
 <rect x="100" y="100" width="100" height="100" style="fill:#ffd42a"/>
 <rect x="200" y="200" width="100" height="100" style="fill:#ffd42a"/>
 <rect x="200" y="200" width="100" height="100" style="fill:#ffd42a"/>
 <rect x="300" y="100" width="100" height="100" style="fill:#ffd42a"/>
 <rect x="400" y="200" width="100" height="100" style="fill:#ffd42a"/>
 <rect x="500" y="100" width="100" height="100" style="fill:#ffd42a"/>
 <rect x="-100" y="300" width="100" height="100" style="fill:#ffd42a"/>
 <rect y="400" width="100" height="100" style="fill:#ffd42a"/>
 <rect x="100" y="300" width="100" height="100" style="fill:#ffd42a"/>
 <rect x="200" y="400" width="100" height="100" style="fill:#ffd42a"/>
 <rect x="200" y="400" width="100" height="100" style="fill:#ffd42a"/>
 <rect x="300" y="300" width="100" height="100" style="fill:#ffd42a"/>
 <rect x="400" y="400" width="100" height="100" style="fill:#ffd42a"/>
 <rect x="500" y="300" width="100" height="100" style="fill:#ffd42a"/>
 <rect x="-100" y="500" width="100" height="100" style="fill:#ffd42a"/>
 <rect x="100" y="500" width="100" height="100" style="fill:#ffd42a"/>
 <rect x="300" y="500" width="100" height="100" style="fill:#ffd42a"/>
 <rect x="500" y="500" width="100" height="100" style="fill:#ffd42a"/>
 <path d="m-32.127-3.7791-15.084 3.5389-4.4847-54.454-3.6652 51.522-15.255-5.8167 6.0732-89.141 11.195 4.2679 12.897-3.0255zm106.99-.89369-18.377 3.7088-4.8452-54.436-5.0304 51.594-18.48-5.6504 8.375-89.261 13.562 4.1468 15.713-3.1708zm102.46.076745-21.343 3.8618-5.1707-54.419-6.2578 51.656-21.386-5.5004 10.449-89.367 15.693 4.0358 18.249-3.3017zm103.68.14523-23.636 3.9801-5.4224-54.406-7.2085 51.706-23.631-5.3846 12.052-89.451 17.341 3.9518 20.211-3.4028zm102.43-.81553-25.257 4.0637-5.6002-54.397-7.8806 51.74-25.219-5.3017 13.185-89.509 18.507 3.8906 21.596-3.4743zm103.22.036691-28.827 4.2479-5.9916-54.377-9.3597 51.816-28.716-5.1222 15.681-89.637 21.073 3.7582 24.649-3.6318zm104.5.074912-32.104 4.418-6.3512-54.358-10.716 51.886-31.926-4.9566 17.971-89.755 23.429 3.6377 27.45-3.7773zm-.23547 96.631-32.115 4.2263-6.1548-50.57-10.9 48.331-31.901-4.4993 18.289-83.602 23.41 3.3012 27.459-3.6126zm-104.48.37149-28.838 4.0573-5.7962-50.589-9.5421 48.261-28.692-4.6648 15.998-83.484 21.056 3.4226 24.657-3.469zm-103.2-.59558-25.267 3.873-5.4047-50.609-8.0641 48.184-25.195-4.8453 13.502-83.356 18.49 3.5561 21.605-3.3116zm-102.4-.73572-23.646 3.7884-5.2269-50.617-7.392 48.15-23.607-4.9272 12.37-83.298 17.323 3.6162 20.219-3.2401zm-103.66 3.3042-21.352 3.671-4.9753-50.631-6.4422 48.101-21.361-5.0431 10.766-83.215 15.676 3.7013 18.258-3.1389zm-102.44-1.635-18.388 3.5171-4.6497-50.648-5.2128 48.037-18.457-5.1929 8.6935-83.107 13.543 3.8103 15.722-3.0071zm-106.97.35178-15.094 3.3481-4.2892-50.666-3.8487 47.967-15.231-5.3603 6.3916-82.989 11.177 3.9334 12.906-2.8628zm-.06515 97.313-15.101 3.2184-4.1568-48.119-3.973 45.576-15.214-5.0518 6.604-78.852 11.165 3.7077 12.912-2.753zm106.95-.66132-18.394 3.3892-4.5183-48.1-5.3372 45.646-18.44-4.8854 8.906-78.97 13.533 3.5855 15.728-2.8982zm102.43.33908-21.359 3.5422-4.8439-48.083-6.5656 45.709-21.345-4.7355 10.979-79.077 15.664 3.4746 18.263-3.028zm103.64.39353-23.653 3.6596-5.0955-48.07-7.5153 45.759-23.591-4.6196 12.583-79.159 17.312 3.3895 20.225-3.1302zm102.39.43412-25.274 3.7432-5.2733-48.061-8.1874 45.794-25.179-4.5377 13.716-79.218 18.478 3.3294 21.611-3.2007zm103.18.29902-28.844 3.9284-5.6648-48.041-9.6654 45.87-28.677-4.3582 16.211-79.347 21.045 3.1979 24.663-3.3592zm104.46-1.6724-32.121 4.0974-6.0244-48.023-11.023 45.94-31.886-4.1917 18.502-79.465 23.4 3.0754 27.464-3.5027zm-.28436 96.887-32.132 3.8677-5.7893-43.466-11.243 41.663-31.858-3.6414 18.884-72.064 23.379 2.671 27.474-3.306zm-104.43.21202-28.857 3.6987-5.4297-43.485-9.8861 41.593-28.648-3.807 16.593-71.946 21.024 2.7935 24.673-3.1614zm-103.16.23032-25.286 3.5145-5.0382-43.505-8.4081 41.516-25.151-3.9874 14.098-71.818 18.456 2.9259 21.621-3.004zm-102.36.10517-23.665 3.4298-4.8594-43.513-7.736 41.482-23.564-4.0703 12.965-71.758 17.292 2.986 20.234-2.9324zm-103.61-.85161-21.372 3.3116-4.6088-43.527-6.7852 41.433-21.317-4.1852 11.361-71.676 15.643 3.0711 18.273-2.8323zm-102.4.19122-18.406 3.1595-4.2843-43.544-5.5569 41.369-18.413-4.335 9.2888-71.57 13.511 3.1821 15.739-2.7015zm-106.92.21228-15.113 2.9897-3.9217-43.563-4.1937 41.299-15.186-4.5015 6.9859-71.45 11.145 3.3032 12.921-2.5562zm-.12986 96.563-15.126 2.729-3.6551-38.395-4.444 36.447-15.154-3.8774 7.419-63.055 11.12 2.8458 12.934-2.3325zm106.89-.8384-18.419 2.8979-4.0166-38.375-5.8072 36.518-18.381-3.7119 9.722-63.173 13.487 2.7227 15.749-2.4778zm102.37-.79346-21.385 3.0519-4.3422-38.359-7.0365 36.581-21.285-3.5611 11.795-63.281 15.619 2.6137 18.285-2.6096zm103.57.12157-23.678 3.1692-4.5938-38.346-7.9863 36.63-23.531-3.4452 13.398-63.363 17.267 2.5287 20.246-2.7108zm102.33-.71635-25.3 3.2529-4.7706-38.337-8.6584 36.665-25.119-3.3632 14.531-63.422 18.434 2.4685 21.632-2.7823zm103.12-.83247-28.869 3.437-5.163-38.316-10.136 36.741-28.617-3.1828 17.027-63.551 20.999 2.3351 24.685-2.9388zm104.4-.82326-32.146 3.6061-5.5226-38.297-11.494 36.811-31.826-3.0172 19.317-63.669 23.355 2.2136 27.486-3.0833zm-.47668 91.161-32.166 3.2236-5.1319-30.725-11.86 29.703-31.779-2.1024 19.953-51.368 23.32 1.5435 27.502-2.7567zm-104.35 1.718-28.89 3.0546-4.7714-30.744-10.504 29.633-28.569-2.268 17.662-51.25 20.965 1.665 24.701-2.6122zm-103.08 1.7124-25.319 2.8713-4.3809-30.764-9.0241 29.556-25.073-2.4494 15.166-51.12 18.399 1.7964 21.648-2.4547zm-102.28 1.6131-23.699 2.7868-4.2021-30.773-8.353 29.522-23.485-2.5303 14.033-51.063 17.234 1.8575 20.263-2.3832zm-103.52.95205-21.405 2.6684-3.9504-30.785-7.4033 29.472-21.238-2.6463 12.429-50.979 15.585 1.9416 18.302-2.282zm-102.32 1.6732-18.439 2.5154-3.6259-30.802-6.175 29.408-18.332-2.7962 10.356-50.872 13.454 2.0515 15.766-2.1502zm-106.84 1.7562-15.145 2.3455-3.2653-30.821-4.8098 29.338-15.108-2.9625 8.0547-50.753 11.086 2.1747 12.95-2.0059zm-.09605 99.334-15.156 2.1528-3.0673-27.002-4.9957 25.754-15.083-2.5022 8.3737-44.55 11.069 1.8361 12.958-1.8411zm106.82-2.2196-18.449 2.3226-3.4288-26.983-6.3599 25.823-18.31-2.3347 10.677-44.668 13.436 1.713 15.775-1.9864zm102.3-2.1176-21.415 2.4767-3.7544-26.967-7.5873 25.887-21.214-2.1849 12.749-44.776 15.567 1.604 18.31-2.1172zm103.49-1.4923-23.708 2.594-4.0051-26.954-8.539 25.936-23.46-2.069 14.353-44.859 17.216 1.519 20.271-2.2184zm102.26-2.0646-25.329 2.6776-4.1839-26.945-9.2101 25.971-25.048-1.9871 15.486-44.918 18.381 1.4589 21.658-2.2899zm103.06-2.1577-28.899 2.8628-4.5754-26.925-10.688 26.047-28.546-1.8066 17.982-45.046 20.948 1.3254 24.71-2.4474zm104.33-2.1695-32.176 3.0308-4.9349-26.906-12.045 26.118-31.755-1.642 20.272-45.164 23.303 1.2039 27.511-2.5909z" style="fill:#3771c8"/>
 <path d="m252.45 237.33-.034 8.419c-.002.269-.204.486-.452.484-.246-.002-.446-.222-.444-.49 0 0 .061-8.039.068-8.073-1.429-.256-2.735-.981-3.658-1.985-1.014-1.103-1.654-2.638-1.696-4.24 0 0-.047-9.202-.062-9.207l-13.604-4.265c.063-.416.112-.733.201-.938l14.012 4.529c.107.034 25.095-4.203 25.095-4.203.041.543.033.438.103.906l-19.815 3.303zm-5.424-5.9c.012 1.454.563 2.713 1.487 3.719.924 1.004 1.882 1.522 3.135 1.735l-.276-15.183-4.362.732zm106.05 5.88-.065 8.421c-.003.269-.22.486-.484.485s-.476-.219-.473-.488c0 0 .093-8.041.102-8.075-1.526-.251-2.919-.971-3.901-1.972-1.079-1.1-1.757-2.633-1.797-4.236 0 0-.017-9.203-.033-9.207l-14.515-4.219c.069-.416.122-.733.218-.939l14.949 4.482c.115.033 26.816-4.292 26.816-4.292.043.542.033.438.107.905l-21.174 3.373zm-5.771-5.881c.007 1.454.591 2.71 1.575 3.713.984 1.002 2.005 1.515 3.342 1.725l-.242-15.184-4.66.747zm105.1 5.841-.135 8.424c-.006.269-.255.488-.556.489s-.541-.216-.535-.485c0 0 .164-8.044.173-8.079-1.737-.239-3.32-.95-4.432-1.944-1.222-1.092-1.984-2.621-2.019-4.224 0 0 .048-9.206.029-9.211l-16.518-4.115c.081-.416.143-.735.255-.942l17.012 4.376c.131.033 30.607-4.488 30.607-4.488.044.543.034.438.114.905l-24.167 3.527zm-6.538-5.842c-.002 1.454.655 2.708 1.77 3.704 1.113.995 2.274 1.501 3.797 1.7l-.166-15.187-5.319.781zm107.46 5.807-.201 8.428c-.008.269-.286.49-.621.492-.334.003-.6-.213-.593-.482 0 0 .231-8.047.241-8.082-1.932-.229-3.689-.931-4.922-1.92-1.353-1.085-2.192-2.61-2.221-4.213 0 0 .106-9.209.085-9.213l-18.356-4.021c.092-.417.163-.736.288-.943l18.906 4.277c.145.033 34.085-4.667 34.085-4.667.046.543.036.438.122.905l-26.913 3.669zm-7.242-5.806c-.012 1.455.713 2.706 1.948 3.695 1.233.989 2.521 1.489 4.216 1.68l-.096-15.191-5.926.812zm-394.79 4.93.01 8.417c0 .269-.182.485-.405.481-.224-.002-.404-.222-.404-.492 0 0 .015-8.037.022-8.07-1.293-.263-2.478-.994-3.317-2.003-.921-1.107-1.507-2.645-1.554-4.247 0 0-.088-9.2-.101-9.204l-12.317-4.332c.055-.416.097-.732.178-.937l12.685 4.598c.098.035 22.661-4.078 22.661-4.078.04.542.032.438.097.906l-17.893 3.203zm-4.932-5.924c.018 1.453.522 2.714 1.363 3.724.84 1.01 1.709 1.531 2.842 1.75l-.325-15.179-3.938.71zm-94.289 5.966.069 8.414c.001.269-.153.483-.346.479-.193-.005-.351-.227-.352-.495 0 0-.044-8.034-.039-8.068-1.117-.271-2.143-1.011-2.873-2.025-.804-1.113-1.32-2.655-1.372-4.257 0 0-.14-9.197-.152-9.201l-10.652-4.418c.045-.415.078-.731.146-.936l10.973 4.687c.084.035 19.512-3.916 19.512-3.916.038.543.03.439.09.906l-15.407 3.076zm-4.295-5.957c.026 1.453.47 2.717 1.202 3.732.731 1.016 1.484 1.542 2.463 1.77l-.389-15.176-3.39.682zm-99.097 6.016.135 8.411c.003.268-.122.481-.281.474-.158-.006-.29-.229-.294-.498 0 0-.11-8.03-.106-8.063-.921-.282-1.772-1.03-2.383-2.051-.67-1.12-1.109-2.666-1.166-4.267 0 0-.2-9.195-.209-9.199l-8.803-4.513c.032-.415.057-.73.111-.935l9.069 4.785c.07.037 16.016-3.734 16.016-3.734.037.543.029.438.082.906l-12.646 2.933zm-3.587-5.994c.034 1.453.412 2.72 1.023 3.741.612 1.022 1.235 1.556 2.042 1.793l-.457-15.172-2.785.649zm307.28-94.886.012 9.297c-.001.296-.201.534-.449.531-.247-.004-.447-.247-.447-.543 0 0 .018-8.877.025-8.914-1.431-.29-2.741-1.097-3.671-2.211-1.019-1.223-1.668-2.921-1.719-4.691 0 0-.095-10.159-.111-10.164l-13.63-4.783c.06-.459.107-.809.196-1.036l14.04 5.077c.107.039 25.079-4.506 25.079-4.506.045.6.035.484.108 1.001l-19.804 3.54zm-5.455-6.541c.018 1.604.577 2.997 1.507 4.112s1.891 1.69 3.145 1.933l-.358-16.764-4.36.785zm106.11 7.06-.02 9.297c-.002.296-.218.536-.481.534-.265-.004-.478-.246-.477-.543 0 0 .051-8.877.058-8.914-1.527-.285-2.924-1.088-3.912-2.199-1.084-1.22-1.771-2.917-1.82-4.686 0 0-.067-10.161-.082-10.166l-14.542-4.735c.067-.46.118-.81.214-1.037l14.977 5.029c.114.038 26.8-4.596 26.8-4.596.046.601.035.484.112 1.001l-21.162 3.61zm-5.805-6.524c.015 1.604.607 2.996 1.596 4.107.989 1.113 2.013 1.685 3.352 1.923l-.323-16.766-4.659.8zm105.16 7.012-.09 9.301c-.004.296-.251.537-.553.536-.301-.001-.542-.242-.538-.538 0 0 .121-8.881.13-8.919-1.739-.274-3.326-1.067-4.445-2.171-1.227-1.212-1.998-2.905-2.041-4.674 0 0-.002-10.165-.02-10.17l-16.546-4.632c.079-.46.14-.81.251-1.038l17.04 4.922c.13.037 30.591-4.791 30.591-4.791.048.6.037.484.12 1l-24.155 3.765zm-6.571-6.486c.005 1.606.67 2.993 1.79 4.099 1.12 1.105 2.283 1.67 3.808 1.898l-.248-16.769-5.316.834zm107.52 4.988-.155 9.304c-.007.297-.283.539-.618.54-.335.002-.602-.239-.596-.535 0 0 .187-8.885.197-8.922-1.933-.264-3.695-1.049-4.933-2.146-1.36-1.206-2.207-2.895-2.245-4.664 0 0 .056-10.168.036-10.173l-18.384-4.536c.09-.461.16-.812.285-1.041l18.933 4.824c.146.037 34.069-4.969 34.069-4.969.05.599.039.483.128.999l-26.901 3.906zm-7.275-6.449c-.004 1.606.728 2.99 1.968 4.089 1.239 1.1 2.531 1.657 4.227 1.877l-.178-16.772-5.923.865zm-394.87 6.431.057 9.293c0 .297-.18.534-.404.529-.223-.004-.405-.248-.406-.545 0 0-.029-8.873-.023-8.91-1.294-.297-2.482-1.111-3.328-2.229-.927-1.228-1.522-2.93-1.577-4.699 0 0-.137-10.157-.15-10.162l-12.344-4.849c.053-.459.093-.808.172-1.034l12.715 5.145c.097.039 22.645-4.381 22.645-4.381.042.6.033.484.102 1.002l-17.881 3.44zm-4.964-6.567c.025 1.603.536 2.999 1.383 4.118.846 1.12 1.717 1.699 2.852 1.948l-.407-16.761-3.936.762zm-94.284 6.084.114 9.291c.003.297-.15.532-.343.526s-.352-.251-.355-.548c0 0-.087-8.87-.081-8.908-1.119-.306-2.15-1.128-2.886-2.251-.81-1.234-1.334-2.939-1.395-4.708 0 0-.19-10.155-.202-10.161l-10.678-4.934c.042-.458.074-.807.141-1.032l11.001 5.233c.084.039 19.496-4.218 19.496-4.218.041.6.032.484.095 1.001l-15.394 3.313zm-4.328-6.601c.034 1.605.484 3.003 1.223 4.128.737 1.125 1.493 1.711 2.473 1.968l-.47-16.758-3.389.734zm-98.371 420.14-.031 5.225c-.001.166-.131.301-.289.3-.158 0-.286-.136-.284-.303 0 0 .047-4.989.052-5.01-.915-.157-1.751-.606-2.341-1.228-.647-.684-1.056-1.637-1.081-2.631 0 0-.021-5.711-.031-5.713l-8.705-2.634c.04-.258.071-.455.129-.582l8.967 2.797c.068.021 16.072-2.634 16.072-2.634.026.337.021.271.065.561l-12.69 2.07zm-3.467-3.656c.006.902.358 1.683.949 2.306.591.622 1.203.942 2.005 1.074l-.161-9.422-2.794.458zm106.76 1.611-.094 5.229c-.005.167-.164.303-.356.304-.193.001-.345-.134-.342-.301 0 0 .113-4.993.119-5.013-1.111-.148-2.122-.587-2.832-1.203-.779-.677-1.266-1.625-1.286-2.62 0 0 .04-5.714.027-5.716l-10.555-2.538c.053-.259.094-.457.164-.585l10.871 2.699c.083.02 19.568-2.815 19.568-2.815.028.337.022.272.073.562l-15.452 2.213zm-4.173-3.619c-.004.903.416 1.68 1.127 2.297s1.452.93 2.426 1.052l-.091-9.426-3.401.49zm103.3 1.663-.153 5.231c-.006.168-.192.305-.415.308-.223.002-.399-.132-.393-.298 0 0 .171-4.996.179-5.018-1.286-.137-2.456-.569-3.274-1.18-.9-.671-1.455-1.614-1.47-2.609 0 0 .092-5.718.079-5.72l-12.22-2.452c.063-.26.111-.457.195-.587l12.584 2.611c.096.02 22.717-2.977 22.717-2.977.03.337.023.272.08.561l-17.938 2.341zm-4.81-3.587c-.011.903.469 1.678 1.288 2.289.82.611 1.677.918 2.805 1.032l-.028-9.429-3.948.518zm406.42-3.709-.365 5.242c-.013.168-.295.31-.63.319-.335.008-.595-.122-.583-.288 0 0 .387-5.008.398-5.029-1.925-.105-3.667-.507-4.878-1.098-1.332-.648-2.14-1.579-2.138-2.575 0 0 .286-5.727.267-5.73l-18.262-2.139c.102-.262.178-.461.308-.592l18.803 2.289c.144.017 34.141-3.567 34.141-3.567.037.336.028.272.105.56l-26.958 2.806zm-7.121-3.468c-.04.904.659 1.668 1.873 2.258 1.214.592 2.491.877 4.18.962l.2-9.441-5.934.62zm-93.701 5.457-.3 5.24c-.011.167-.263.308-.564.315-.301.006-.536-.125-.526-.291 0 0 .322-5.004.332-5.025-1.731-.116-3.298-.526-4.391-1.123-1.199-.655-1.931-1.591-1.933-2.586 0 0 .227-5.724.209-5.726l-16.422-2.236c.09-.26.158-.459.273-.59l16.91 2.388c.129.018 30.663-3.387 30.663-3.387.034.336.026.271.098.56l-24.213 2.664zm-6.417-3.503c-.031.904.602 1.671 1.696 2.267 1.093.597 2.243.889 3.76.984l.131-9.438-5.33.59zm-92.814 5.465-.23 5.236c-.008.167-.229.306-.493.311-.264.004-.472-.127-.463-.295 0 0 .251-5 .259-5.021-1.519-.126-2.897-.546-3.858-1.15-1.057-.662-1.704-1.602-1.713-2.598 0 0 .163-5.72.147-5.722l-14.417-2.339c.076-.26.136-.458.236-.589l14.846 2.495c.114.019 26.873-3.192 26.873-3.192.032.337.025.271.089.561l-21.219 2.51zm-5.652-3.543c-.021.903.539 1.674 1.502 2.277.963.604 1.973.903 3.305 1.007l.055-9.434-4.671.555zm-94.871 5.519-.198 5.234c-.008.167-.213.306-.46.309-.247.004-.442-.128-.435-.295 0 0 .218-4.998.226-5.02-1.423-.13-2.714-.556-3.616-1.162-.992-.666-1.601-1.608-1.612-2.603 0 0 .133-5.719.118-5.721l-13.507-2.386c.071-.259.126-.457.219-.587l13.91 2.542c.106.019 25.151-3.103 25.151-3.103.031.337.025.272.085.561l-19.859 2.439zm-5.302-3.561c-.018.904.508 1.675 1.413 2.281.903.608 1.85.911 3.097 1.018l.021-9.432-4.372.541zm-298.28-94.806.007 5.959c0 .19-.128.343-.287.341-.158-.002-.287-.158-.286-.349 0 0 .01-5.69.015-5.714-.916-.186-1.755-.703-2.35-1.418-.654-.784-1.069-1.873-1.101-3.007 0 0-.063-6.514-.072-6.518l-8.728-3.066c.038-.295.068-.519.125-.665l8.991 3.256c.068.025 16.059-2.888 16.059-2.888.028.385.022.31.068.642l-12.68 2.269zm-3.495-4.195c.013 1.029.371 1.922.966 2.636.596.716 1.211 1.085 2.014 1.24l-.23-10.748-2.791.503zm106.81 2.611-.057 5.963c-.003.191-.16.345-.353.344-.193 0-.347-.155-.345-.345 0 0 .078-5.694.083-5.718-1.112-.176-2.127-.685-2.842-1.392-.785-.778-1.277-1.864-1.305-2.997 0 0-.002-6.518-.014-6.521l-10.578-2.972c.051-.295.09-.519.161-.665l10.893 3.157c.084.024 19.556-3.068 19.556-3.068.031.384.023.31.077.641l-15.442 2.411zm-4.202-4.158c.004 1.029.429 1.919 1.145 2.627s1.46 1.072 2.435 1.218l-.16-10.752-3.399.534zm103.35 2.643-.116 5.966c-.004.191-.189.346-.412.347s-.4-.152-.396-.342c0 0 .136-5.698.143-5.722-1.289-.167-2.46-.667-3.284-1.37-.904-.771-1.467-1.852-1.49-2.986 0 0 .052-6.52.037-6.524l-12.241-2.886c.061-.295.108-.52.191-.666l12.608 3.068c.095.023 22.703-3.231 22.703-3.231.032.385.025.31.084.641l-17.927 2.54zm-4.838-4.126c-.004 1.03.481 1.916 1.306 2.619.824.703 1.684 1.06 2.813 1.199l-.097-10.755-3.947.561zm406.55-1.284-.327 5.977c-.011.19-.292.351-.627.358-.335.008-.597-.142-.586-.333 0 0 .351-5.708.361-5.732-1.926-.134-3.671-.605-4.887-1.287-1.337-.749-2.153-1.817-2.158-2.953 0 0 .244-6.53.224-6.533l-18.282-2.574c.098-.298.175-.524.303-.673l18.827 2.748c.144.02 34.128-3.82 34.128-3.82.038.384.03.31.109.639l-26.948 3.005zm-7.149-4.007c-.033 1.031.672 1.907 1.89 2.59 1.218.682 2.498 1.017 4.189 1.127l.131-10.768-5.932.665zm-93.696 5.545-.262 5.974c-.009.191-.261.35-.562.356-.301.005-.538-.146-.528-.336 0 0 .286-5.706.295-5.729-1.732-.144-3.303-.624-4.4-1.313-1.205-.755-1.943-1.827-1.954-2.963 0 0 .185-6.527.168-6.53l-16.443-2.669c.086-.297.153-.522.268-.671l16.933 2.846c.131.021 30.65-3.642 30.65-3.642.037.385.029.311.102.64l-24.201 2.864zm-6.445-4.042c-.024 1.03.614 1.909 1.713 2.599 1.098.688 2.25 1.03 3.769 1.149l.062-10.764-5.327.634zm-497.14-94.414.082 7.417c.002.237-.125.425-.282.42-.159-.005-.29-.2-.292-.437 0 0-.061-7.08-.056-7.111-.92-.242-1.766-.897-2.369-1.793-.664-.985-1.093-2.345-1.141-3.757 0 0-.144-8.107-.153-8.112l-8.773-3.925c.035-.367.062-.645.117-.825l9.037 4.164c.07.032 16.034-3.39 16.034-3.39.033.478.026.385.077.799l-12.661 2.663zm-3.55-5.264c.025 1.281.395 2.396 1 3.294.605.897 1.225 1.364 2.031 1.568l-.366-13.378-2.786.59zm307.33 106.76-.161 5.969c-.005.191-.21.347-.457.349-.247.003-.443-.149-.437-.34 0 0 .182-5.7.189-5.724-1.424-.16-2.719-.654-3.625-1.352-.997-.766-1.613-1.845-1.632-2.98 0 0 .092-6.522.077-6.525l-13.529-2.82c.068-.296.122-.52.215-.668l13.933 3c.106.023 25.138-3.356 25.138-3.356.034.384.026.31.089.641l-19.85 2.638zm-5.33-4.1c-.011 1.03.521 1.914 1.43 2.613.908.699 1.857 1.051 3.106 1.184l-.047-10.759-4.37.585zm105.88 2.576-.192 5.97c-.008.191-.227.348-.49.351-.264.004-.473-.148-.466-.338 0 0 .214-5.702.222-5.726-1.52-.155-2.901-.645-3.868-1.339-1.061-.764-1.715-1.841-1.731-2.976 0 0 .121-6.523.105-6.526l-14.439-2.772c.074-.297.132-.522.231-.669l14.87 2.951c.114.023 26.86-3.445 26.86-3.445.034.384.026.31.093.64l-21.209 2.709zm-5.679-4.082c-.015 1.03.551 1.912 1.519 2.608.967.696 1.98 1.044 3.313 1.173l-.013-10.76-4.67.599zm-295.29-96.568.018 7.42c.001.237-.156.426-.349.423-.192-.003-.348-.196-.349-.433 0 0 .006-7.085.011-7.115-1.115-.233-2.136-.879-2.861-1.769-.796-.976-1.302-2.334-1.344-3.746 0 0-.085-8.109-.096-8.114l-10.622-3.83c.047-.367.083-.646.152-.826l10.941 4.066c.083.031 19.529-3.572 19.529-3.572.035.479.028.386.085.799l-15.421 2.805zm-4.256-5.228c.016 1.282.453 2.394 1.178 3.284.726.891 1.475 1.352 2.452 1.547l-.295-13.382-3.395.622zm103.45 4.589-.041 7.422c-.002.238-.184.428-.407.427-.224-.001-.403-.194-.402-.431 0 0 .065-7.087.071-7.118-1.29-.224-2.47-.862-3.303-1.746-.914-.971-1.491-2.324-1.528-3.736 0 0-.032-8.112-.045-8.117l-12.286-3.744c.057-.368.101-.647.182-.829l12.655 3.978c.097.03 22.678-3.734 22.678-3.734.036.479.029.386.092.798l-17.908 2.935zm-4.894-5.196c.009 1.282.506 2.391 1.34 3.276s1.699 1.341 2.83 1.527l-.232-13.385-3.942.65zm406.8 3.523-.251 7.434c-.01.237-.289.433-.624.437-.335.005-.599-.184-.59-.421 0 0 .279-7.099.29-7.129-1.93-.19-3.682-.799-4.909-1.662-1.346-.949-2.176-2.289-2.195-3.703 0 0 .162-8.122.142-8.126l-18.327-3.433c.095-.369.169-.65.295-.835l18.873 3.658c.145.028 34.103-4.324 34.103-4.324.043.478.033.386.117.797l-26.927 3.4zm-7.204-5.076c-.02 1.283.696 2.382 1.925 3.246 1.227.865 2.512 1.298 4.204 1.456l-.003-13.397-5.928.753zm-93.687 5.721-.187 7.431c-.008.237-.257.432-.558.435-.301.002-.539-.188-.533-.425 0 0 .214-7.095.223-7.126-1.735-.2-3.313-.817-4.419-1.688-1.215-.956-1.968-2.299-1.992-3.713 0 0 .103-8.119.085-8.123l-16.488-3.528c.083-.369.147-.649.261-.832l16.98 3.755c.13.028 30.623-4.145 30.623-4.145.042.479.033.387.11.798l-24.181 3.258zm-6.501-5.112c-.012 1.283.639 2.384 1.747 3.256 1.107.871 2.264 1.31 3.785 1.477l-.072-13.393-5.323.721zm-92.799 5.752-.118 7.426c-.004.238-.222.431-.486.432s-.474-.191-.47-.428c0 0 .143-7.092.151-7.121-1.524-.212-2.911-.839-3.887-1.717-1.073-.962-1.741-2.311-1.771-3.724 0 0 .039-8.116.023-8.119l-14.484-3.632c.071-.368.126-.648.224-.83l14.916 3.861c.114.029 26.835-3.949 26.835-3.949.039.479.029.386.101.798l-21.189 3.104zm-5.734-5.151c-.002 1.282.575 2.387 1.552 3.265.976.878 1.995 1.324 3.33 1.5l-.149-13.389-4.664.688zm-94.859 5.78-.085 7.425c-.003.238-.207.43-.454.43s-.445-.192-.442-.43c0 0 .111-7.09.118-7.119-1.427-.217-2.728-.848-3.645-1.729-1.006-.966-1.637-2.316-1.671-3.729 0 0 .01-8.114-.004-8.119l-13.574-3.678c.065-.368.116-.648.207-.829l13.98 3.909c.107.03 25.112-3.859 25.112-3.859.038.478.029.386.097.798l-19.829 3.033zm-5.386-5.168c.003 1.281.547 2.388 1.465 3.268.917.882 1.872 1.331 3.123 1.512l-.184-13.387-4.364.671zm-298.82-398.52.243 10.506c.006.335-.117.6-.276.589-.158-.01-.293-.289-.3-.625 0 0-.213-10.03-.209-10.072-.926-.364-1.787-1.31-2.411-2.592-.686-1.408-1.144-3.344-1.223-5.344 0 0-.317-11.485-.327-11.491l-8.867-5.749c.027-.517.048-.911.099-1.165l9.138 6.092c.069.046 15.978-4.459 15.978-4.459.044.679.034.548.094 1.134l-12.617 3.5zm-3.667-7.531c.053 1.814.447 3.403 1.072 4.686.625 1.284 1.256 1.958 2.067 2.265l-.654-18.955-2.777.776zm107.12 6.766.178 10.509c.004.336-.148.6-.341.592s-.353-.287-.359-.621c0 0-.147-10.034-.142-10.076-1.121-.354-2.158-1.291-2.902-2.567-.817-1.401-1.354-3.333-1.426-5.334 0 0-.259-11.487-.271-11.493l-10.715-5.653c.038-.519.069-.913.133-1.168l11.04 5.995c.086.044 19.475-4.64 19.475-4.64.046.679.036.547.102 1.133l-15.377 3.643zm-4.374-7.496c.044 1.815.505 3.4 1.251 4.678.744 1.277 1.504 1.945 2.487 2.242l-.583-18.958-3.386.808zm-98.872 209.16.179 9.287c.006.296-.119.531-.277.523-.159-.008-.292-.255-.297-.551 0 0-.153-8.867-.149-8.905-.923-.315-1.778-1.147-2.395-2.277-.677-1.241-1.124-2.949-1.189-4.718 0 0-.25-10.151-.259-10.157l-8.831-5.03c.03-.458.054-.806.107-1.031l9.098 5.332c.069.04 16-4.038 16-4.038.04.6.031.484.087 1.002l-12.634 3.17zm-3.62-6.637c.041 1.603.426 3.006 1.043 4.137.617 1.13 1.244 1.723 2.053 1.989l-.54-16.754-2.781.702zm307.37-194.56.075 10.515c.001.336-.198.604-.446.599-.247-.006-.449-.283-.451-.619 0 0-.042-10.038-.035-10.081-1.433-.337-2.75-1.26-3.687-2.525-1.028-1.39-1.688-3.316-1.752-5.318 0 0-.164-11.491-.179-11.497l-13.668-5.502c.057-.519.101-.914.189-1.17l14.079 5.837c.108.044 25.058-4.926 25.058-4.926.048.677.038.547.114 1.132l-19.786 3.87zm-5.502-7.436c.029 1.816.598 3.395 1.536 4.662.937 1.267 1.903 1.925 3.159 2.208l-.472-18.964-4.356.858zm205.59 6.922-.029 10.52c-.002.335-.247.606-.548.604-.302-.004-.545-.278-.543-.613 0 0 .062-10.044.07-10.087-1.741-.322-3.334-1.23-4.461-2.486-1.236-1.38-2.018-3.299-2.074-5.3 0 0-.07-11.498-.088-11.504l-16.582-5.351c.075-.519.134-.915.242-1.172l17.08 5.682c.131.043 30.569-5.211 30.569-5.211.051.678.04.547.127 1.132l-24.138 4.094zm-6.618-7.379c.016 1.816.69 3.39 1.818 4.648s2.296 1.904 3.822 2.173l-.36-18.969-5.315.907zm-294.69 7.636.119 10.513c.003.335-.175.602-.399.595-.223-.007-.407-.284-.411-.62 0 0-.087-10.036-.081-10.078-1.298-.344-2.492-1.273-3.345-2.543-.937-1.396-1.543-3.324-1.61-5.325 0 0-.206-11.491-.219-11.496l-12.381-5.568c.049-.519.088-.914.166-1.168l12.753 5.905c.098.044 22.623-4.802 22.623-4.802.047.679.037.547.109 1.133l-17.863 3.771zm-5.01-7.462c.036 1.816.557 3.397 1.411 4.668.855 1.273 1.73 1.934 2.866 2.223l-.519-18.961-3.933.837zm407.31 7.454-.093 10.522c-.004.337-.279.608-.614.608-.335-.001-.604-.274-.6-.61 0 0 .127-10.048.137-10.091-1.937-.311-3.704-1.21-4.949-2.46-1.369-1.372-2.228-3.288-2.278-5.29 0 0-.012-11.5-.032-11.506l-18.421-5.256c.087-.52.155-.917.278-1.174l18.972 5.584c.145.043 34.048-5.391 34.048-5.391.053.678.041.548.134 1.132l-26.884 4.236zm-7.321-7.343c.007 1.816.748 3.387 1.996 4.638 1.248 1.252 2.543 1.892 4.24 2.152l-.29-18.972-5.919.938zm-193.03 107.76.006 9.787c-.001.313-.216.563-.481.56-.263-.003-.477-.259-.476-.571 0 0 .025-9.345.033-9.385-1.528-.304-2.927-1.153-3.918-2.325-1.09-1.287-1.78-3.075-1.834-4.937 0 0-.094-10.697-.11-10.703l-14.556-5.024c.065-.483.116-.852.21-1.091l14.993 5.334c.115.04 26.792-4.764 26.792-4.764.047.631.037.51.114 1.053l-21.156 3.743zm-5.823-6.884c.019 1.69.615 3.156 1.608 4.329.992 1.173 2.018 1.778 3.357 2.033l-.369-17.65-4.656.829zm-94.844 6.066.037 9.785c.001.313-.2.563-.447.558-.248-.004-.449-.26-.449-.572 0 0-.006-9.344.001-9.383-1.432-.309-2.745-1.163-3.677-2.338-1.024-1.29-1.677-3.08-1.733-4.943 0 0-.124-10.695-.138-10.701l-13.646-5.071c.06-.483.105-.851.193-1.09l14.056 5.383c.108.04 25.07-4.676 25.07-4.676.046.632.037.51.111 1.054l-19.796 3.672zm-5.475-6.903c.024 1.69.586 3.158 1.519 4.334.933 1.177 1.896 1.784 3.152 2.044l-.404-17.649-4.358.814zm106.11-93.164.041 10.516c.001.336-.213.604-.477.6-.264-.005-.479-.28-.48-.616 0 0-.009-10.04-.002-10.083-1.53-.333-2.933-1.25-3.928-2.513-1.094-1.387-1.792-3.311-1.853-5.312 0 0-.136-11.494-.151-11.5l-14.578-5.455c.063-.519.112-.914.206-1.17l15.016 5.789c.115.043 26.779-5.017 26.779-5.017.049.679.039.547.118 1.132l-21.145 3.941zm-5.852-7.419c.027 1.816.628 3.394 1.625 4.658.997 1.265 2.025 1.918 3.366 2.197l-.437-18.966-4.655.874zm-398.67 109.11.204 9.777c.005.312-.118.557-.277.55-.159-.009-.292-.27-.298-.582 0 0-.177-9.334-.174-9.374-.923-.335-1.781-1.211-2.4-2.403-.681-1.308-1.133-3.108-1.203-4.97 0 0-.278-10.687-.287-10.694l-8.845-5.318c.029-.482.051-.849.104-1.085l9.113 5.637c.071.043 15.991-4.207 15.991-4.207.042.632.033.51.091 1.055l-12.627 3.302zm-3.64-6.997c.047 1.688.435 3.165 1.054 4.357.621 1.193 1.249 1.819 2.059 2.1l-.585-17.638-2.78.732zm107.07 6.782.14 9.781c.004.312-.15.56-.343.552-.193-.006-.352-.264-.356-.577 0 0-.111-9.338-.106-9.377-1.12-.326-2.152-1.193-2.893-2.378-.812-1.302-1.342-3.098-1.406-4.96 0 0-.219-10.69-.23-10.697l-10.694-5.223c.041-.482.073-.849.139-1.086l11.017 5.538c.084.042 19.487-4.387 19.487-4.387.043.632.034.51.097 1.054l-15.387 3.446zm-4.347-6.96c.038 1.69.493 3.162 1.234 4.349.741 1.186 1.498 1.805 2.479 2.078l-.515-17.643-3.387.764zm404.85 7.147-.065 9.791c-.004.313-.25.565-.552.565-.301-.002-.542-.257-.54-.569 0 0 .098-9.349.106-9.388-1.739-.294-3.329-1.133-4.45-2.299-1.232-1.279-2.007-3.063-2.055-4.926 0 0-.03-10.699-.048-10.705l-16.56-4.921c.077-.484.138-.853.248-1.093l17.056 5.229c.13.039 30.581-4.96 30.581-4.96.05.631.039.509.124 1.053l-24.149 3.897zm-6.59-6.844c.01 1.69.679 3.152 1.802 4.319 1.122 1.167 2.287 1.764 3.814 2.01l-.293-17.654-5.316.863zm107.56 6.647-.13 9.795c-.006.312-.282.567-.618.567-.335 0-.602-.253-.597-.566 0 0 .163-9.351.173-9.392-1.935-.282-3.698-1.113-4.939-2.272-1.364-1.273-2.216-3.052-2.259-4.916 0 0 .03-10.703.009-10.708l-18.398-4.826c.088-.485.157-.854.281-1.095l18.949 5.13c.146.039 34.061-5.138 34.061-5.138.051.631.039.508.13 1.052l-26.894 4.039zm-7.295-6.807c.001 1.69.736 3.149 1.981 4.309 1.242 1.161 2.535 1.752 4.231 1.988l-.223-17.658-5.92.895zm-394.91 8.593.082 9.783c.002.313-.178.562-.401.556-.224-.004-.408-.263-.409-.574 0 0-.053-9.342-.046-9.381-1.296-.316-2.487-1.176-3.335-2.355-.931-1.295-1.531-3.088-1.59-4.95 0 0-.165-10.694-.178-10.699l-12.358-5.138c.051-.483.09-.851.168-1.088l12.731 5.45c.098.041 22.636-4.549 22.636-4.549.045.631.035.509.105 1.054l-17.874 3.573zm-4.982-6.927c.029 1.689.545 3.159 1.395 4.34.848 1.181 1.721 1.793 2.856 2.058l-.452-17.645-3.934.792z" style="fill:#212639"/>
 <path d="m336.91 315.05 1.849.251-1.525 6.86-1.849-.251zm28.368.331 1.867-.22.988 6.647-1.866.22zm68.82-.857 2.107.237-1.789 6.875-2.107-.238zm32.343.127 2.13-.233 1.079 6.642-2.13.233zm66.61-.669 2.343.226-2.03 6.887-2.343-.226zm35.99-.062 2.372-.246 1.162 6.638-2.371.245zm-431.53 1.39 1.567.266-1.236 6.845-1.567-.265zm24.011.557 1.578-.205.889 6.652-1.578.205zm-121.45-.018 1.353.276-1.017 6.835-1.353-.277zm20.709.727 1.359-.194.815 6.656-1.36.193zm-122.12-.171 1.117.289-.775 6.821-1.116-.289zm17.044.916 1.116-.181.731 6.66-1.117.181zm281.91 105.41 1.729.189-1.475 5.524-1.728-.189zm26.546.072 1.748-.189.88 5.334-1.748.189zm73.042-1.546 1.845.183-1.593 5.53-1.846-.183zm28.35-.02 1.868-.195.92 5.332-1.867.195zm68.792-1.387 2.103.17-1.858 5.544-2.103-.17zm32.325-.225 2.131-.209 1.011 5.328-2.13.209zm66.581-1.211 2.34.157-2.099 5.556-2.339-.158zm35.972-.415 2.373-.221 1.094 5.323-2.373.222zm-431.31 5.488 1.564.198-1.305 5.514-1.564-.197zm23.992.204 1.579-.181.822 5.337-1.579.181zm-100.69 1.59 1.361-.17.746 5.341-1.36.169zm-20.691-.375 1.35.208-1.086 5.504-1.35-.209zm-101.36 1.473 1.112.221-.843 5.491-1.112-.221zm17.025.564 1.118-.157.663 5.346-1.118.157zm281.61 100.37 1.727.155-1.508 4.852-1.727-.155zm26.538-.105 1.749-.177.845 4.672-1.749.177zm101.37-2.019 1.868-.183.887 4.669-1.868.183zm-28.342.198 1.844.149-1.628 4.858-1.844-.149zm-380.94 7.409 1.119-.144.629 4.682-1.119.144zm-17.016-.386 1.11.186-.877 4.819-1.111-.186zm122.02-1.74 1.361-.157.712 4.678-1.361.157zm-20.682-.197 1.348.174-1.121 4.832-1.347-.174zm121.35-1.837 1.58-.169.787 4.674-1.58.169zm-23.984-.027 1.561.163-1.339 4.843-1.562-.163zm431.21-7.553 2.373-.209 1.06 4.66-2.373.209zm-35.963.591 2.338.123-2.134 4.885-2.337-.124zm-66.568 1.486 2.132-.197.977 4.665-2.132.197zm-32.316.403 2.102.136-1.892 4.871-2.101-.135zm-98.06-519.04 1.855.361-1.414 9.018-1.855-.361zm28.398.903 1.865-.259 1.098 8.778-1.864.259zm68.864-.001 2.112.348-1.677 9.032-2.113-.348zm32.372.698 2.128-.273 1.189 8.772-2.128.273zm66.656-.789 2.349.336-1.919 9.044-2.349-.336zm36.02.51 2.369-.285 1.272 8.768-2.369.285zm-431.86.912 1.573.376-1.125 9.003-1.573-.376zm24.04 1.127 1.576-.244 1 8.783-1.577.244zm-121.55-3.018 1.359.387-.906 8.992-1.359-.387zm20.739 1.299 1.357-.233.924 8.787-1.357.232zm-122.23-1.228 1.121.399-.663 8.979-1.121-.399zm17.073 1.486 1.114-.22.841 8.791-1.115.22zm308.2-103.21 1.744-.264 1.091 9.437-1.744.264zm-26.602-1.173 1.74.402-1.26 9.677-1.74-.401zm99.731-.676 1.856.395-1.379 9.684-1.857-.395zm28.407 1.079 1.863-.271 1.133 9.436-1.864.271zm68.877-.737 2.114.382-1.643 9.698-2.114-.382zm32.382.875 2.127-.285 1.223 9.43-2.127.285zm66.669-.518 2.35.37-1.884 9.71-2.35-.37zm36.029.687 2.369-.297 1.306 9.426-2.369.297zm-431.96-1.052 1.574.41-1.091 9.669-1.574-.41zm24.049 1.304 1.575-.256 1.034 9.439-1.576.256zm-121.58-1.634 1.361.421-.872 9.658-1.361-.421zm20.749 1.474 1.356-.244.958 9.444-1.356.244zm-122.26-.864 1.123.433-.628 9.645-1.124-.433zm17.082 1.664 1.114-.232.874 9.448-1.114.232zm282.57 412.01 1.732.257-1.405 6.855-1.732-.257zm26.564.425 1.747-.214.947 6.65-1.747.213zm-26.801-104.09 1.735.303-1.359 7.763-1.734-.303zm26.577.666 1.746-.23.993 7.545-1.746.23zm73.088-.633 1.853.298-1.479 7.769-1.852-.298zm28.381.573 1.867-.236 1.034 7.544-1.866.236zm68.839-.497 2.109.284-1.742 7.784-2.109-.285zm32.355.368 2.13-.25 1.125 7.539-2.129.25zm66.629-.298 2.345.272-1.983 7.796-2.346-.272zm36.003.179 2.37-.262 1.209 7.535-2.371.262zm-431.67-1.407 1.569.313-1.189 7.753-1.569-.312zm24.023.797 1.577-.221.935 7.55-1.576.221zm-121.49-.859 1.356.323-.971 7.743-1.356-.323zm20.721.967 1.358-.209.861 7.553-1.358.21zm-122.17-1.038 1.118.336-.728 7.73-1.118-.336zm17.055 1.158 1.116-.198.777 7.558-1.116.197zm281.45-104.46 1.738.344-1.318 8.564-1.737-.345zm26.588.878 1.745-.245 1.034 8.337-1.745.245zm73.104-.305 1.855.339-1.437 8.57-1.855-.339zm28.393.785 1.865-.251 1.076 8.335-1.866.251zm68.854-.178 2.111.325-1.7 8.583-2.111-.325zm32.367.579 2.128-.264 1.167 8.331-2.129.264zm66.645-1.971 2.347.313-1.942 8.596-2.347-.313zm36.014.391 2.37-.276 1.249 8.326-2.37.277zm-431.79-.769 1.572.353-1.148 8.556-1.572-.354zm24.034 1.01 1.576-.236.977 8.341-1.577.235zm-121.53-1.602 1.358.364-.929 8.544-1.358-.364zm20.733 1.179 1.357-.224.902 8.344-1.358.224zm-122.21-.802 1.121.376-.686 8.532-1.121-.376zm17.067 1.37 1.115-.212.818 8.348-1.115.212zm281.61-104.43 1.739.368-1.294 9.011-1.739-.367zm26.593.996 1.745-.253 1.057 8.78-1.745.252z" style="fill:#77a2b6"/>
 <circle cx="684" cy="217.8" r="1.423" style="fill:#dff2ee"/>
 <ellipse transform="matrix(.99999 -.0032872 -.0035064 .99999 0 0)" cx="348.85" cy="218.95" rx="1.5202" ry="1.4237" style="fill:#dff2ee;stroke-width:.27319"/>
 <ellipse transform="matrix(.99996 -.0092296 -.011225 .99994 0 0)" cx="449.36" cy="221.95" rx="1.7334" ry="1.4243" style="fill:#dff2ee;stroke-width:.29179"/>
 <ellipse transform="matrix(.99991 -.013524 -.018302 .99983 0 0)" cx="551.43" cy="225.28" rx="1.9291" ry="1.425" style="fill:#dff2ee;stroke-width:.30789"/>
 <ellipse transform="matrix(.99998 .0054917 .0049648 .99999 0 0)" cx="145.84" cy="216" rx="1.2865" ry="1.4231" style="fill:#dff2ee;stroke-width:.25126"/>
 <ellipse transform="matrix(.99989 .014604 .01139 .99994 0 0)" cx="45.698" cy="216.15" rx="1.1096" ry="1.4227" style="fill:#dff2ee;stroke-width:.23331"/>
 <ellipse transform="matrix(.99958 .028847 .018522 .99983 0 0)" cx="-58.795" cy="218.54" rx=".9132" ry="1.4223" style="fill:#dff2ee;stroke-width:.21164"/>
 <ellipse transform="matrix(.99999 .0053668 .0048689 .99999 0 0)" cx="246.99" cy="112.66" rx="1.4238" ry="1.5716" style="fill:#dff2ee;stroke-width:.27779"/>
 <ellipse transform="matrix(1 .0017424 .001689 1 0 0)" cx="347.74" cy="113.92" rx="1.5206" ry="1.5719" style="fill:#dff2ee;stroke-width:.2871"/>
 <ellipse transform="matrix(.99999 -.0048174 -.0053047 .99999 0 0)" cx="447.36" cy="117.2" rx="1.7338" ry="1.5724" style="fill:#dff2ee;stroke-width:.30662"/>
 <ellipse transform="matrix(.99995 -.0095591 -.011718 .99993 0 0)" cx="548.58" cy="118.83" rx="1.9294" ry="1.5731" style="fill:#dff2ee;stroke-width:.32352"/>
 <ellipse transform="matrix(.99993 .011431 .0093628 .99996 0 0)" cx="145.67" cy="111.79" rx="1.287" ry="1.5713" style="fill:#dff2ee;stroke-width:.26408"/>
 <ellipse transform="matrix(.99977 .02148 .015182 .99988 0 0)" cx="46.234" cy="111.94" rx="1.1101" ry="1.5709" style="fill:#dff2ee;stroke-width:.24523"/>
 <ellipse transform="matrix(.99931 .037194 .021641 .99977 0 0)" cx="-57.523" cy="115.54" rx=".91385" ry="1.5706" style="fill:#dff2ee;stroke-width:.22248"/>
 <ellipse transform="matrix(.99996 .0083683 .0072094 .99997 0 0)" cx="247.38" cy="8.4171" rx="1.4241" ry="1.6545" style="fill:#dff2ee;stroke-width:.28504"/>
 <ellipse transform="matrix(.99999 .00455 .0041883 .99999 0 0)" cx="347.81" cy="9.7429" rx="1.5208" ry="1.6547" style="fill:#dff2ee;stroke-width:.29459"/>
 <ellipse transform="matrix(1 -.0023509 -.0024562 1 0 0)" cx="446.69" cy="13.198" rx="1.734" ry="1.6553" style="fill:#dff2ee;stroke-width:.31461"/>
 <ellipse transform="matrix(.99997 -.0073452 -.0085498 .99996 0 0)" cx="547.27" cy="16.004" rx="1.9296" ry="1.6558" style="fill:#dff2ee;stroke-width:.33194"/>
 <ellipse transform="matrix(.99989 .014746 .011478 .99993 0 0)" cx="146.48" cy="11.486" rx="1.2872" ry="1.6542" style="fill:#dff2ee;stroke-width:.27098"/>
 <ellipse transform="matrix(.99968 .025324 .017006 .99986 0 0)" cx="47.628" cy="10.619" rx="1.1104" ry="1.6538" style="fill:#dff2ee;stroke-width:.25165"/>
 <ellipse transform="matrix(.99912 .041855 .023142 .99973 0 0)" cx="-55.507" cy="14.294" rx=".91424" ry="1.6535" style="fill:#dff2ee;stroke-width:.22832"/>
 <ellipse transform="matrix(.99992 .012827 .010284 .99995 0 0)" cx="248.27" cy="-93.755" rx="1.4245" ry="1.7777" style="fill:#dff2ee;stroke-width:.29551"/>
 <ellipse transform="matrix(.99996 .0087296 .007475 .99997 0 0)" cx="348.44" cy="-94.323" rx="1.5212" ry="1.778" style="fill:#dff2ee;stroke-width:.3054"/>
 <ellipse transform="matrix(1 .0013134 .0012868 1 0 0)" cx="446.68" cy="-91.603" rx="1.7343" ry="1.7785" style="fill:#dff2ee;stroke-width:.32614"/>
 <ellipse transform="matrix(.99999 -.0040487 -.0043861 .99999 0 0)" cx="546.65" cy="-88.52" rx="1.9299" ry="1.779" style="fill:#dff2ee;stroke-width:.34409"/>
 <ellipse transform="matrix(.99981 .01968 .01426 .9999 0 0)" cx="147.79" cy="-93.775" rx="1.2877" ry="1.7775" style="fill:#dff2ee;stroke-width:.28094"/>
 <ellipse transform="matrix(.99952 .031033 .019402 .99981 0 0)" cx="49.422" cy="-92.672" rx="1.1109" ry="1.7771" style="fill:#dff2ee;stroke-width:.26092"/>
 <ellipse transform="matrix(.99881 .048773 .025115 .99968 0 0)" cx="-53.201" cy="-87.869" rx=".91485" ry="1.7768" style="fill:#dff2ee;stroke-width:.23676"/>
 <ellipse transform="matrix(.99998 -.0060965 -.0069064 .99998 0 0)" cx="250.14" cy="322.24" rx="1.423" ry="1.2553" style="fill:#dff2ee;stroke-width:.2482"/>
 <ellipse transform="matrix(.99996 -.0089962 -.010885 .99994 0 0)" cx="351.78" cy="323.28" rx="1.5198" ry="1.2556" style="fill:#dff2ee;stroke-width:.25653"/>
 <ellipse transform="matrix(.9999 -.014234 -.01963 .99981 0 0)" cx="453.43" cy="326" rx="1.7331" ry="1.2564" style="fill:#dff2ee;stroke-width:.27402"/>
 <ellipse transform="matrix(.99984 -.018024 -.027646 .99962 0 0)" cx="556.55" cy="329.03" rx="1.9288" ry="1.2571" style="fill:#dff2ee;stroke-width:.28917"/>
 <ellipse transform="matrix(1 -.001252 -.001283 1 0 0)" cx="147.56" cy="320.63" rx="1.286" ry="1.2549" style="fill:#dff2ee;stroke-width:.23591"/>
 <ellipse transform="matrix(.99998 .0067882 .006001 .99998 0 0)" cx="46.498" cy="320.74" rx="1.109" ry="1.2545" style="fill:#dff2ee;stroke-width:.21904"/>
 <ellipse transform="matrix(.99981 .019361 .014093 .9999 0 0)" cx="-58.985" cy="322.85" rx=".91255" ry="1.2541" style="fill:#dff2ee;stroke-width:.19866"/>
 <ellipse transform="matrix(.99989 -.015033 -.021183 .99978 0 0)" cx="257.35" cy="430.67" rx="1.4225" ry="1.0092" style="fill:#dff2ee;stroke-width:.2225"/>
 <ellipse transform="matrix(.99985 -.017364 -.026125 .99966 0 0)" cx="359.82" cy="431.59" rx="1.5193" ry="1.0096" style="fill:#dff2ee;stroke-width:.22999"/>
 <ellipse transform="matrix(.99977 -.021572 -.036982 .99932 0 0)" cx="463.34" cy="434" rx="1.7326" ry="1.0105" style="fill:#dff2ee;stroke-width:.24572"/>
 <ellipse transform="matrix(.9997 -.024615 -.046925 .9989 0 0)" cx="568.18" cy="436.66" rx="1.9284" ry="1.0115" style="fill:#dff2ee;stroke-width:.25936"/>
 <ellipse transform="matrix(.99994 -.011139 -.014189 .9999 0 0)" cx="153.59" cy="429.27" rx="1.2855" ry="1.0087" style="fill:#dff2ee;stroke-width:.21146"/>
 <ellipse transform="matrix(.99999 -.004674 -.0051384 .99999 0 0)" cx="51.017" cy="429.24" rx="1.1083" ry="1.0082" style="fill:#dff2ee;stroke-width:.1963"/>
 <ellipse transform="matrix(.99999 .0054456 .0049273 .99999 0 0)" cx="-56.11" cy="430.86" rx=".91173" ry="1.0077" style="fill:#dff2ee;stroke-width:.17799"/>
 <ellipse transform="matrix(.99981 -.019541 -.031395 .99951 0 0)" cx="265.22" cy="536.17" rx="1.4222" ry=".88524" style="fill:#dff2ee;stroke-width:.20837"/>
 <ellipse transform="matrix(.99977 -.021584 -.037016 .99931 0 0)" cx="368.58" cy="537.09" rx="1.5191" ry=".88567" style="fill:#dff2ee;stroke-width:.2154"/>
 <ellipse transform="matrix(.99968 -.025274 -.049374 .99878 0 0)" cx="474.07" cy="539.47" rx="1.7325" ry=".88671" style="fill:#dff2ee;stroke-width:.23016"/>
 <ellipse transform="matrix(.99961 -.027941 -.06068 .99816 0 0)" cx="580.71" cy="542.1" rx="1.9283" ry=".88779" style="fill:#dff2ee;stroke-width:.24297"/>
 <ellipse transform="matrix(.99987 -.016127 -.023429 .99973 0 0)" cx="160.22" cy="534.8" rx="1.2852" ry=".88468" style="fill:#dff2ee;stroke-width:.19801"/>
 <ellipse transform="matrix(.99995 -.010458 -.013115 .99991 0 0)" cx="56.022" cy="534.64" rx="1.1081" ry=".88403" style="fill:#dff2ee;stroke-width:.18379"/>
 <ellipse transform="matrix(1 -.0015835 -.0016397 1 0 0)" cx="-52.887" cy="535.93" rx=".91139" ry=".88344" style="fill:#dff2ee;stroke-width:.16663"/>
 <rect x="-145.08" y="-147.62" width="45.076" height="747.62" style="-inkscape-stroke:none;fill:#244b84;font-variation-settings:normal;stop-color:#000000"/>
 <path d="m-120.05-4.8843v472.9h8.265l-11.02 22.04-11.02-22.04h8.265v-472.9z" style="fill:#ffffff"/>
 <path transform="translate(-144.97 -147.06)" d="m-.16797-.6582 45.182 47.711.0039-.28906c.03709.15179.13139.29492.29492.29492h699.31c.19224 0 .34766-.15542.34766-.34766v-47.676l-.34766-.3457z" style="-inkscape-stroke:none;fill:#8eafe0;font-variation-settings:normal;stop-color:#000000"/>
 <path d="m25.856-127.32h444.39v-8.265l22.04 11.02-22.04 11.02v-8.265h-444.39z" style="fill:#000000"/>
 <g style="stroke-width:.79862" aria-label="stretto">
  <path d="m-84.743-131.61v2.7141q-1.2166-.62393-2.5269-.93589t-2.7141-.31196q-2.1369 0-3.2132.65512-1.0607.65512-1.0607 1.9654 0 .99828.7643 1.5754.7643.56153 3.0728 1.0763l.98268.21837q3.0572.65512 4.3363 1.8562 1.2946 1.1854 1.2946 3.3224 0 2.4333-1.9342 3.8527-1.9186 1.4194-5.2877 1.4194-1.4038 0-2.9324-.28076-1.513-.26517-3.1976-.8111v-2.9636q1.591.8267 3.1352 1.2478 1.5442.40555 3.0572.40555 2.0277 0 3.1196-.68632 1.0919-.70191 1.0919-1.9654 0-1.1699-.7955-1.7938-.7799-.62392-3.4472-1.201l-.99828-.23397q-2.6673-.56153-3.8527-1.7158-1.1855-1.1699-1.1855-3.1976 0-2.4645 1.747-3.8059 1.747-1.3414 4.9602-1.3414 1.591 0 2.9948.23397t2.5893.70191z"/>
  <path d="m-76.398-137.09v4.9602h5.9117v2.2305h-5.9117v9.4836q0 2.1369.57713 2.7453.59272.60832 2.3865.60832h2.948v2.4021h-2.948q-3.3224 0-4.5858-1.2322-1.2634-1.2478-1.2634-4.5234v-9.4836h-2.1057v-2.2305h2.1057v-4.9602z"/>
  <path d="m-56.589-129.44q-.48354-.28076-1.0607-.40555-.56153-.14038-1.2478-.14038-2.4333 0-3.7435 1.591-1.2946 1.5754-1.2946 4.539v9.2028h-2.8856v-17.47h2.8856v2.7141q.90469-1.591 2.3553-2.3553 1.4506-.7799 3.5252-.7799.29636 0 .65512.0468.35876.0312.7955.10918z"/>
  <path d="m-39.337-124.11v1.4038h-13.196q.18718 2.9636 1.7782 4.5234 1.6066 1.5442 4.461 1.5442 1.6534 0 3.1976-.40555 1.5598-.40555 3.0884-1.2166v2.7141q-1.5442.65512-3.1664.99828-1.6222.34315-3.2912.34315-4.1803 0-6.6292-2.4333-2.4333-2.4333-2.4333-6.5824 0-4.2895 2.3085-6.8007 2.3241-2.5269 6.2548-2.5269 3.5252 0 5.5685 2.2773 2.0589 2.2617 2.0589 6.1612zm-2.87-.8423q-.0312-2.3553-1.3258-3.7591-1.279-1.4038-3.4004-1.4038-2.4021 0-3.8527 1.357-1.435 1.357-1.6534 3.8215z"/>
  <path d="m-31.788-137.09v4.9602h5.9117v2.2305h-5.9117v9.4836q0 2.1369.57713 2.7453.59273.60832 2.3865.60832h2.948v2.4021h-2.948q-3.3224 0-4.5858-1.2322-1.2634-1.2478-1.2634-4.5234v-9.4836h-2.1057v-2.2305h2.1057v-4.9602z"/>
  <path d="m-19.262-137.09v4.9602h5.9117v2.2305h-5.9117v9.4836q0 2.1369.57713 2.7453.59273.60832 2.3865.60832h2.948v2.4021h-2.948q-3.3224 0-4.5858-1.2322-1.2634-1.2478-1.2634-4.5234v-9.4836h-2.1057v-2.2305h2.1057v-4.9602z"/>
  <path d="m-2.8065-130.11q-2.3085 0-3.6499 1.8094-1.3414 1.7938-1.3414 4.929 0 3.1352 1.3258 4.9446 1.3414 1.7938 3.6655 1.7938 2.2929 0 3.6343-1.8094 1.3414-1.8094 1.3414-4.929 0-3.104-1.3414-4.9134-1.3414-1.825-3.6343-1.825zm0-2.4333q3.7435 0 5.8805 2.4333 2.1369 2.4333 2.1369 6.7384 0 4.2895-2.1369 6.7384-2.1369 2.4333-5.8805 2.4333-3.7591 0-5.8961-2.4333-2.1213-2.4489-2.1213-6.7384 0-4.3051 2.1213-6.7384 2.1369-2.4333 5.8961-2.4333z"/>
 </g>
 <g style="stroke-width:.79862" aria-label="largo">
  <path d="m508.2-136.93h2.87v24.271h-2.87z"/>
  <path d="m525.02-121.44q-3.4784 0-4.8198.7955t-1.3414 2.7141q0 1.5286.99827 2.4333 1.0139.88909 2.7453.88909 2.3865 0 3.8215-1.6846 1.4506-1.7002 1.4506-4.5078v-.63952zm5.7245-1.1854v9.9672h-2.87v-2.6517q-.98268 1.591-2.4489 2.3553-1.4662.7487-3.5876.7487-2.6829 0-4.2739-1.4974-1.5754-1.513-1.5754-4.0399 0-2.948 1.9654-4.4454 1.981-1.4974 5.8961-1.4974h4.0243v-.28076q0-1.981-1.3102-3.0572-1.2946-1.0919-3.6499-1.0919-1.4974 0-2.9168.35875-1.4194.35876-2.7296 1.0763v-2.6517q1.5754-.60832 3.0572-.90469 1.4818-.31196 2.8856-.31196 3.7903 0 5.6621 1.9654 1.8718 1.9654 1.8718 5.9584z"/>
  <path d="m546.78-127.44q-.48354-.28076-1.0607-.40555-.56153-.14038-1.2478-.14038-2.4333 0-3.7435 1.591-1.2946 1.5754-1.2946 4.539v9.2028h-2.8856v-17.47h2.8856v2.7141q.90469-1.591 2.3553-2.3553 1.4506-.7799 3.5252-.7799.29637 0 .65512.0468.35876.0312.7955.10918z"/>
  <path d="m560.72-121.59q0-3.1196-1.2946-4.8354-1.279-1.7158-3.6031-1.7158-2.3085 0-3.6032 1.7158-1.279 1.7158-1.279 4.8354 0 3.104 1.279 4.8198 1.2946 1.7158 3.6032 1.7158 2.3241 0 3.6031-1.7158 1.2946-1.7158 1.2946-4.8198zm2.87 6.7696q0 4.461-1.981 6.6292-1.981 2.1837-6.0676 2.1837-1.513 0-2.8544-.23397-1.3414-.21837-2.6049-.68632v-2.792q1.2634.68632 2.4957 1.0139 1.2322.32756 2.5113.32756 2.8232 0 4.2271-1.4818 1.4038-1.4662 1.4038-4.4454v-1.4194q-.88909 1.5442-2.2773 2.3085-1.3882.7643-3.3224.7643-3.2132 0-5.1786-2.4489-1.9654-2.4489-1.9654-6.4888 0-4.0555 1.9654-6.5044 1.9654-2.4489 5.1786-2.4489 1.9342 0 3.3224.76431 1.3882.7643 2.2773 2.3085v-2.6517h2.87z"/>
  <path d="m576.27-128.11q-2.3085 0-3.65 1.8094-1.3414 1.7938-1.3414 4.929 0 3.1352 1.3258 4.9446 1.3414 1.7938 3.6655 1.7938 2.2929 0 3.6343-1.8094 1.3414-1.8094 1.3414-4.929 0-3.104-1.3414-4.9134-1.3414-1.825-3.6343-1.825zm0-2.4333q3.7435 0 5.8805 2.4333 2.1369 2.4333 2.1369 6.7384 0 4.2895-2.1369 6.7384-2.1369 2.4333-5.8805 2.4333-3.7591 0-5.8961-2.4333-2.1213-2.4489-2.1213-6.7384 0-4.3051 2.1213-6.7384 2.1369-2.4333 5.8961-2.4333z"/>
 </g>
 <g transform="rotate(-90 91.798 124.82)" style="fill:#ffffff;stop-color:#000000;stroke-width:.79862" aria-label="corto">
  <path d="m-354.85-96.321v2.6829q-1.2166-.67072-2.4489-.99828-1.2166-.34316-2.4645-.34316-2.792 0-4.3363 1.7782-1.5442 1.7626-1.5442 4.9602 0 3.1976 1.5442 4.9758 1.5442 1.7626 4.3363 1.7626 1.2478 0 2.4645-.32756 1.2322-.34316 2.4489-1.0139v2.6517q-1.201.56153-2.4957.84229-1.279.28076-2.7297.28076-3.9463 0-6.2704-2.4801-2.3241-2.4801-2.3241-6.6916 0-4.2739 2.3397-6.7228 2.3553-2.4489 6.442-2.4489 1.3258 0 2.5893.28076 1.2634.26517 2.4489.8111z"/>
  <path d="m-343.09-94.979q-2.3085 0-3.6499 1.8094-1.3414 1.7938-1.3414 4.929 0 3.1352 1.3258 4.9446 1.3414 1.7938 3.6655 1.7938 2.2929 0 3.6344-1.8094 1.3414-1.8094 1.3414-4.929 0-3.104-1.3414-4.9134-1.3414-1.825-3.6344-1.825zm0-2.4333q3.7435 0 5.8805 2.4333 2.1369 2.4333 2.1369 6.7384 0 4.2895-2.1369 6.7384-2.1369 2.4333-5.8805 2.4333-3.7591 0-5.8961-2.4333-2.1213-2.4489-2.1213-6.7384 0-4.3051 2.1213-6.7384 2.1369-2.4333 5.8961-2.4333z"/>
  <path d="m-320.19-94.308q-.48354-.28076-1.0607-.40555-.56153-.14038-1.2478-.14038-2.4333 0-3.7435 1.591-1.2946 1.5754-1.2946 4.539v9.2028h-2.8856v-17.47h2.8856v2.7141q.90469-1.591 2.3553-2.3553 1.4506-.7799 3.5252-.7799.29636 0 .65511.04679.35876.0312.7955.10919z"/>
  <path d="m-314.34-101.95v4.9602h5.9117v2.2305h-5.9117v9.4836q0 2.1369.57713 2.7453.59272.60832 2.3865.60832h2.948v2.4021h-2.948q-3.3224 0-4.5858-1.2322-1.2634-1.2478-1.2634-4.5234v-9.4836h-2.1057v-2.2305h2.1057v-4.9602z"/>
  <path d="m-297.89-94.979q-2.3085 0-3.6499 1.8094-1.3414 1.7938-1.3414 4.929 0 3.1352 1.3258 4.9446 1.3414 1.7938 3.6655 1.7938 2.2929 0 3.6344-1.8094 1.3414-1.8094 1.3414-4.929 0-3.104-1.3414-4.9134-1.3414-1.825-3.6344-1.825zm0-2.4333q3.7435 0 5.8805 2.4333 2.1369 2.4333 2.1369 6.7384 0 4.2895-2.1369 6.7384-2.1369 2.4333-5.8805 2.4333-3.7591 0-5.8961-2.4333-2.1213-2.4489-2.1213-6.7384 0-4.3051 2.1213-6.7384 2.1369-2.4333 5.8961-2.4333z"/>
 </g>
 <g transform="rotate(-90 -210.78 -175.95)" style="fill:#ffffff;stop-color:#000000;stroke-width:.79862" aria-label="lungo">
  <path d="m-367.42-103.79h2.87v24.271h-2.87z"/>
  <path d="m-358.84-86.416v-10.575h2.87v10.466q0 2.4801.96708 3.7279.96707 1.2322 2.9012 1.2322 2.3241 0 3.6655-1.4818 1.357-1.4818 1.357-4.0399v-9.9048h2.87v17.47h-2.87v-2.6829q-1.0451 1.591-2.4333 2.3709-1.3726.7643-3.1976.7643-3.0104 0-4.5702-1.8718-1.5598-1.8718-1.5598-5.4749z"/>
  <path d="m-323.78-90.066v10.544h-2.87v-10.451q0-2.4801-.96708-3.7123-.96708-1.2322-2.9012-1.2322-2.3241 0-3.6655 1.4818t-1.3414 4.0399v9.8736h-2.8856v-17.47h2.8856v2.7141q1.0295-1.5754 2.4177-2.3553 1.4038-.7799 3.2288-.7799 3.0104 0 4.5546 1.8718 1.5442 1.8562 1.5442 5.4749z"/>
  <path d="m-306.56-88.459q0-3.1196-1.2946-4.8354-1.279-1.7158-3.6032-1.7158-2.3085 0-3.6031 1.7158-1.279 1.7158-1.279 4.8354 0 3.104 1.279 4.8198 1.2946 1.7158 3.6031 1.7158 2.3241 0 3.6032-1.7158 1.2946-1.7158 1.2946-4.8198zm2.87 6.7696q0 4.461-1.981 6.6292-1.981 2.1837-6.0676 2.1837-1.513 0-2.8544-.23397-1.3414-.21837-2.6049-.68631v-2.7921q1.2634.68631 2.4957 1.0139 1.2322.32756 2.5113.32756 2.8232 0 4.2271-1.4818 1.4038-1.4662 1.4038-4.4454v-1.4194q-.88909 1.5442-2.2773 2.3085-1.3882.7643-3.3224.7643-3.2132 0-5.1786-2.4489-1.9654-2.4489-1.9654-6.4888 0-4.0555 1.9654-6.5044 1.9654-2.4489 5.1786-2.4489 1.9342 0 3.3224.7643 1.3882.7643 2.2773 2.3085v-2.6517h2.87z"/>
  <path d="m-291.01-94.979q-2.3085 0-3.6499 1.8094-1.3414 1.7938-1.3414 4.929 0 3.1352 1.3258 4.9446 1.3414 1.7938 3.6655 1.7938 2.2929 0 3.6344-1.8094 1.3414-1.8094 1.3414-4.929 0-3.104-1.3414-4.9134-1.3414-1.825-3.6344-1.825zm0-2.4333q3.7435 0 5.8805 2.4333 2.1369 2.4333 2.1369 6.7384 0 4.2895-2.1369 6.7384-2.1369 2.4333-5.8805 2.4333-3.7591 0-5.8961-2.4333-2.1213-2.4489-2.1213-6.7384 0-4.3051 2.1213-6.7384 2.1369-2.4333 5.8961-2.4333z"/>
 </g>
</svg>
