<?xml version="1.0" encoding="UTF-8" standalone="no"?>
<svg
   viewBox="-144.966 -147.058 744.966 747.058"
   width="744.966"
   height="747.058"
   version="1.1"
   id="svg180"
   sodipodi:docname="2019-KR-04-explanation_compatible-ita.svg"
   inkscape:version="1.1.1 (3bf5ae0d25, 2021-09-20)"
   xmlns:inkscape="http://www.inkscape.org/namespaces/inkscape"
   xmlns:sodipodi="http://sodipodi.sourceforge.net/DTD/sodipodi-0.dtd"
   xmlns="http://www.w3.org/2000/svg"
   xmlns:svg="http://www.w3.org/2000/svg">
  <defs
     id="defs184" />
  <sodipodi:namedview
     id="namedview182"
     pagecolor="#ffffff"
     bordercolor="#666666"
     borderopacity="1.0"
     inkscape:pageshadow="2"
     inkscape:pageopacity="0.0"
     inkscape:pagecheckerboard="0"
     showgrid="false"
     inkscape:zoom="0.68054928"
     inkscape:cx="-5.1429046"
     inkscape:cy="369.55443"
     inkscape:window-width="2048"
     inkscape:window-height="1017"
     inkscape:window-x="-8"
     inkscape:window-y="-8"
     inkscape:window-maximized="1"
     inkscape:current-layer="svg180" />
  <rect
     x="-100"
     y="-100"
     width="700"
     height="700"
     style="fill:#fff6d5"
     id="rect2" />
  <rect
     x="200"
     y="-100"
     width="100"
     height="700"
     style="fill:#7ea3dc;stroke-width:1;font-variation-settings:normal;opacity:1;vector-effect:none;fill-opacity:1;stroke-linecap:butt;stroke-linejoin:miter;stroke-miterlimit:4;stroke-dasharray:none;stroke-dashoffset:0;stroke-opacity:1;-inkscape-stroke:none;stop-color:#000000;stop-opacity:1"
     id="rect2-5" />
  <rect
     x="-300"
     y="-99.999992"
     width="100"
     height="700"
     style="fill:#7ea3dc;stroke-width:1;font-variation-settings:normal;opacity:1;vector-effect:none;fill-opacity:1;stroke-linecap:butt;stroke-linejoin:miter;stroke-miterlimit:4;stroke-dasharray:none;stroke-dashoffset:0;stroke-opacity:1;-inkscape-stroke:none;stop-color:#000000;stop-opacity:1"
     id="rect2-5-6"
     transform="rotate(-90)" />
  <rect
     x="-100"
     y="-100"
     width="100"
     height="100"
     style="fill:#ffd42a"
     id="rect4" />
  <rect
     width="100"
     height="100"
     style="fill:#ffd42a"
     id="rect6" />
  <rect
     width="100"
     height="100"
     style="fill:#ffd42a"
     x="100"
     y="-100"
     id="rect8" />
  <rect
     width="100"
     height="100"
     style="fill:#ffd42a"
     x="200"
     id="rect10" />
  <rect
     width="100"
     height="100"
     style="fill:#3771c8;font-variation-settings:normal;opacity:1;vector-effect:none;fill-opacity:1;stroke-width:1;stroke-linecap:butt;stroke-linejoin:miter;stroke-miterlimit:4;stroke-dasharray:none;stroke-dashoffset:0;stroke-opacity:1;-inkscape-stroke:none;stop-color:#000000;stop-opacity:1"
     x="200"
     id="rect12" />
  <rect
     width="100"
     height="100"
     style="fill:#ffd42a"
     x="300"
     y="-100"
     id="rect14" />
  <rect
     width="100"
     height="100"
     style="fill:#ffd42a"
     x="400"
     id="rect16" />
  <rect
     width="100"
     height="100"
     style="fill:#ffd42a"
     x="500"
     y="-100"
     id="rect18" />
  <rect
     x="-100"
     y="100"
     width="100"
     height="100"
     style="fill:#ffd42a"
     id="rect20" />
  <rect
     width="100"
     height="100"
     style="fill:#3771c8;font-variation-settings:normal;opacity:1;vector-effect:none;fill-opacity:1;stroke-width:1;stroke-linecap:butt;stroke-linejoin:miter;stroke-miterlimit:4;stroke-dasharray:none;stroke-dashoffset:0;stroke-opacity:1;-inkscape-stroke:none;stop-color:#000000;stop-opacity:1"
     y="200"
     id="rect22" />
  <rect
     width="100"
     height="100"
     style="fill:#ffd42a"
     x="100"
     y="100"
     id="rect24" />
  <rect
     width="100"
     height="100"
     style="fill:#ffd42a"
     x="200"
     y="200"
     id="rect26" />
  <rect
     width="100"
     height="100"
     style="fill:#afe9af;font-variation-settings:normal;opacity:1;vector-effect:none;fill-opacity:1;stroke-width:1;stroke-linecap:butt;stroke-linejoin:miter;stroke-miterlimit:4;stroke-dasharray:none;stroke-dashoffset:0;stroke-opacity:1;-inkscape-stroke:none;stop-color:#000000;stop-opacity:1"
     x="200"
     y="200"
     id="rect28" />
  <rect
     width="100"
     height="100"
     style="fill:#ffd42a"
     x="300"
     y="100"
     id="rect30" />
  <rect
     width="100"
     height="100"
     style="fill:#3771c8;font-variation-settings:normal;opacity:1;vector-effect:none;fill-opacity:1;stroke-width:1;stroke-linecap:butt;stroke-linejoin:miter;stroke-miterlimit:4;stroke-dasharray:none;stroke-dashoffset:0;stroke-opacity:1;-inkscape-stroke:none;stop-color:#000000;stop-opacity:1"
     x="400"
     y="200"
     id="rect32" />
  <rect
     width="100"
     height="100"
     style="fill:#ffd42a"
     x="500"
     y="100"
     id="rect34" />
  <rect
     x="-100"
     y="300"
     width="100"
     height="100"
     style="fill:#ffd42a"
     id="rect36" />
  <rect
     width="100"
     height="100"
     style="fill:#ffd42a"
     y="400"
     id="rect38" />
  <rect
     width="100"
     height="100"
     style="fill:#ffd42a"
     x="100"
     y="300"
     id="rect40" />
  <rect
     width="100"
     height="100"
     style="fill:#ffd42a"
     x="200"
     y="400"
     id="rect42" />
  <rect
     width="100"
     height="100"
     style="fill:#3771c8;font-variation-settings:normal;opacity:1;vector-effect:none;fill-opacity:1;stroke-width:1;stroke-linecap:butt;stroke-linejoin:miter;stroke-miterlimit:4;stroke-dasharray:none;stroke-dashoffset:0;stroke-opacity:1;-inkscape-stroke:none;stop-color:#000000;stop-opacity:1"
     x="200"
     y="400"
     id="rect44" />
  <rect
     width="100"
     height="100"
     style="fill:#ffd42a"
     x="300"
     y="300"
     id="rect46" />
  <rect
     width="100"
     height="100"
     style="fill:#ffd42a"
     x="400"
     y="400"
     id="rect48" />
  <rect
     width="100"
     height="100"
     style="fill:#ffd42a"
     x="500"
     y="300"
     id="rect50" />
  <rect
     x="-100"
     y="500"
     width="100"
     height="100"
     style="fill:#ffd42a"
     id="rect52" />
  <rect
     width="100"
     height="100"
     style="fill:#ffd42a"
     x="100"
     y="500"
     id="rect54" />
  <rect
     width="100"
     height="100"
     style="fill:#ffd42a"
     x="300"
     y="500"
     id="rect56" />
  <rect
     width="100"
     height="100"
     style="fill:#ffd42a"
     x="500"
     y="500"
     id="rect58" />
  <rect
     x="-145.076"
     y="-147.624"
     width="45.076"
     height="747.624"
     style="fill:#244b84;font-variation-settings:normal;opacity:1;vector-effect:none;fill-opacity:1;stroke-width:1;stroke-linecap:butt;stroke-linejoin:miter;stroke-miterlimit:4;stroke-dasharray:none;stroke-dashoffset:0;stroke-opacity:1;-inkscape-stroke:none;stop-color:#000000;stop-opacity:1"
     id="rect170" />
  <path
     id="rect168"
     style="fill:#8eafe0;font-variation-settings:normal;opacity:1;vector-effect:none;fill-opacity:1;stroke-width:1;stroke-linecap:butt;stroke-linejoin:miter;stroke-miterlimit:4;stroke-dasharray:none;stroke-dashoffset:0;stroke-opacity:1;-inkscape-stroke:none;stop-color:#000000;stop-opacity:1"
     d="M -0.16796875,-0.65820312 45.013672,47.052734 l 0.0039,-0.289062 c 0.03709,0.151792 0.131386,0.294922 0.294922,0.294922 h 699.30664 c 0.19224,0 0.34766,-0.155418 0.34766,-0.347656 V -0.96484375 l -0.34766,-0.34570315 z"
     transform="translate(-144.966,-147.058)"
     sodipodi:nodetypes="cccsssccc" />
  <g
     aria-label="A"
     id="text2884"
     style="font-size:87.3673px;line-height:1.25;stroke-width:2.18418">
    <path
       d="m -51.946448,-74.78924 -11.68879,31.696243 h 23.420239 z m -4.863219,-8.489303 h 9.769097 l 24.273435,63.691104 h -8.958561 l -5.801735,-16.338709 h -28.710055 l -5.801735,16.338709 h -9.086541 z"
       id="path1249" />
  </g>
  <g
     aria-label="B"
     id="text2884-3"
     style="font-size:87.3673px;line-height:1.25;stroke-width:2.18418">
    <path
       d="m 38.52911,-49.38311 v 23.334919 h 13.82178 q 6.95355,0 10.281015,-2.858207 3.370126,-2.900868 3.370126,-8.830582 0,-5.972374 -3.370126,-8.787922 Q 59.30444,-49.38311 52.35089,-49.38311 Z m 0,-26.193126 v 19.196916 h 12.755284 q 6.313653,0 9.38516,-2.346289 3.114166,-2.38895 3.114166,-7.252169 0,-4.820559 -3.114166,-7.209509 -3.071507,-2.388949 -9.38516,-2.388949 z m -8.617283,-7.08153 h 22.012465 q 9.854417,0 15.186894,4.095342 5.332477,4.095343 5.332477,11.64613 0,5.844395 -2.730228,9.29984 -2.730229,3.455445 -8.020046,4.308641 6.356313,1.365114 9.854418,5.716415 3.540764,4.308642 3.540764,10.792934 0,8.531963 -5.801735,13.181883 -5.801734,4.64992 -16.509348,4.64992 H 29.911827 Z"
       id="path1252" />
  </g>
  <g
     aria-label="1"
     id="text2884-3-3"
     style="font-size:87.3673px;line-height:1.25;stroke-width:2.18418">
    <path
       d="m 32.274846,74.593382 h 14.077739 v -48.58953 l -15.314874,3.071507 v -7.849406 l 15.229554,-3.071507 h 8.617283 v 56.438936 h 14.077739 v 7.252169 H 32.274846 Z"
       id="path1255" />
  </g>
  <g
     aria-label="2"
     id="text2884-3-3-8"
     style="font-size:87.3673px;line-height:1.25;stroke-width:2.18418">
    <path
       d="m 240.14559,75.169294 h 30.07517 v 7.252169 h -40.44151 v -7.252169 q 4.90588,-5.076518 13.35252,-13.608481 8.48931,-8.574623 10.66496,-11.048892 4.138,-4.64992 5.75907,-7.849406 1.66374,-3.242146 1.66374,-6.356312 0,-5.076518 -3.58343,-8.276005 -3.54076,-3.199486 -9.25718,-3.199486 -4.05268,0 -8.57462,1.407774 -4.47928,1.407774 -9.59846,4.265982 v -8.702603 q 5.2045,-2.090331 9.72644,-3.156826 4.52194,-1.066495 8.276,-1.066495 9.89708,0 15.78413,4.948538 5.88706,4.948539 5.88706,13.224543 0,3.924703 -1.4931,7.465468 -1.45043,3.498105 -5.33247,8.276004 -1.0665,1.237134 -6.78291,7.166849 -5.71642,5.887054 -16.12541,16.509348 z"
       id="path1258" />
  </g>
  <g
     aria-label="3"
     id="text2884-3-3-8-1"
     style="font-size:87.3673px;line-height:1.25;stroke-width:2.18418">
    <path
       d="m 457.82808,47.461743 q 6.18568,1.322454 9.64112,5.503116 3.49811,4.180662 3.49811,10.323676 0,9.427819 -6.4843,14.589657 -6.48429,5.161837 -18.42904,5.161837 -4.01002,0 -8.276,-0.810536 -4.22332,-0.767877 -8.74526,-2.34629 v -8.318664 q 3.58342,2.090331 7.8494,3.156826 4.26599,1.066496 8.91591,1.066496 8.10536,0 12.32868,-3.199487 4.26598,-3.199486 4.26598,-9.299839 0,-5.631096 -3.96736,-8.787922 -3.9247,-3.199486 -10.96357,-3.199486 h -7.42281 v -7.08153 h 7.76409 q 6.35631,0 9.72643,-2.516929 3.37013,-2.559589 3.37013,-7.337488 0,-4.905879 -3.4981,-7.508128 -3.45545,-2.644908 -9.93974,-2.644908 -3.54077,0 -7.59345,0.767876 -4.05268,0.767877 -8.9159,2.38895 v -7.678767 q 4.90588,-1.365114 9.17186,-2.047671 4.30864,-0.682557 8.10537,-0.682557 9.81175,0 15.52817,4.479281 5.71641,4.436621 5.71641,12.030068 0,5.289817 -3.02884,8.958561 -3.02885,3.626084 -8.61729,5.033858 z"
       id="path1261" />
  </g>
  <g
     aria-label="4"
     id="text2884-3-3-8-1-9"
     style="font-size:87.3673px;line-height:1.25;stroke-width:2.18418">
    <path
       d="M 55.545776,225.66257 33.78927,259.66245 h 21.756506 z m -2.26097,-7.50812 h 10.835593 v 41.508 h 9.08654 v 7.16685 h -9.08654 v 15.01625 H 55.545776 V 266.8293 H 26.79306 v -8.31867 z"
       id="path1264" />
  </g>
  <g
     aria-label="+"
     id="text2884-3-3-8-1-9-5"
     style="font-size:87.3673px;line-height:1.25;stroke-width:2.18418">
    <path
       d="m 253.58342,222.6124 v 23.76152 h 23.76152 v 7.25217 h -23.76152 v 23.76151 h -7.16685 v -23.76151 h -23.76152 v -7.25217 h 23.76152 V 222.6124 Z"
       id="path1267" />
  </g>
  <g
     aria-label="5"
     id="text2884-3-3-8-1-5"
     style="font-size:87.3673px;line-height:1.25;stroke-width:2.18418">
    <path
       d="m 432.08288,217.53589 h 33.82923 v 7.25216 h -25.93717 v 15.6135 q 1.87704,-0.6399 3.75407,-0.93852 1.87703,-0.34128 3.75406,-0.34128 10.66496,0 16.89329,5.8444 6.22833,5.84439 6.22833,15.82679 0,10.28101 -6.39897,15.99743 -6.39897,5.67375 -18.0451,5.67375 -4.01002,0 -8.19069,-0.68255 -4.138,-0.68256 -8.57462,-2.04767 v -8.65995 q 3.83938,2.09033 7.93473,3.11417 4.09534,1.02384 8.65994,1.02384 7.38015,0 11.68879,-3.88205 4.30864,-3.88204 4.30864,-10.53697 0,-6.65493 -4.30864,-10.53698 -4.30864,-3.88204 -11.68879,-3.88204 -3.45545,0 -6.91089,0.76788 -3.41279,0.76787 -6.99621,2.38895 z"
       id="path1270" />
  </g>
  <g
     aria-label="6"
     id="text2884-3-3-8-1-8"
     style="font-size:87.3673px;line-height:1.25;stroke-width:2.18418">
    <path
       d="m 50.746547,446.52322 q -5.801735,0 -9.21452,3.96736 -3.370125,3.96737 -3.370125,10.87826 0,6.86823 3.370125,10.87825 3.412785,3.96736 9.21452,3.96736 5.801735,0 9.171861,-3.96736 3.412785,-4.01002 3.412785,-10.87825 0,-6.91089 -3.412785,-10.87826 -3.370126,-3.96736 -9.171861,-3.96736 z m 17.106586,-27.00366 v 7.8494 q -3.242146,-1.53575 -6.569611,-2.34629 -3.284806,-0.81053 -6.526952,-0.81053 -8.531963,0 -13.053904,5.75907 -4.47928,5.75908 -5.119177,17.40521 2.516929,-3.71141 6.313652,-5.67376 3.796724,-2.00501 8.361324,-2.00501 9.598459,0 15.144235,5.84439 5.588435,5.80174 5.588435,15.8268 0,9.81175 -5.801734,15.74147 -5.801735,5.92971 -15.442854,5.92971 -11.048892,0 -16.893287,-8.44664 -5.844394,-8.48931 -5.844394,-24.57206 0,-15.10157 7.166849,-24.06013 7.166849,-9.00122 19.239576,-9.00122 3.242146,0 6.526952,0.63989 3.327466,0.6399 6.91089,1.9197 z"
       id="path1273" />
  </g>
  <g
     aria-label="7"
     id="text2884-3-3-8-1-1"
     style="font-size:87.3673px;line-height:1.25;stroke-width:2.18418">
    <path
       d="m 229.52329,418.15445 h 40.95343 v 3.66874 l -23.12162,60.02236 h -9.00122 l 21.7565,-56.43894 h -30.58709 z"
       id="path1276" />
  </g>
  <g
     aria-label="8"
     id="text2884-3-3-8-1-7"
     style="font-size:87.3673px;line-height:1.25;stroke-width:2.18418">
    <path
       d="m 449.99999,451.55708 q -6.14301,0 -9.68377,3.2848 -3.49811,3.28481 -3.49811,9.04388 0,5.75908 3.49811,9.04389 3.54076,3.2848 9.68377,3.2848 6.14302,0 9.68378,-3.2848 3.54077,-3.32747 3.54077,-9.04389 0,-5.75907 -3.54077,-9.04388 -3.4981,-3.2848 -9.68378,-3.2848 z m -8.61728,-3.66875 q -5.54577,-1.36511 -8.65994,-5.16183 -3.07151,-3.79673 -3.07151,-9.25718 0,-7.63611 5.4178,-12.07273 5.46046,-4.43662 14.93093,-4.43662 9.51314,0 14.93094,4.43662 5.4178,4.43662 5.4178,12.07273 0,5.46045 -3.11417,9.25718 -3.07151,3.79672 -8.57462,5.16183 6.22833,1.45044 9.68378,5.67376 3.4981,4.22332 3.4981,10.32367 0,9.25718 -5.67376,14.20572 -5.63109,4.94854 -16.16807,4.94854 -10.53697,0 -16.21073,-4.94854 -5.63109,-4.94854 -5.63109,-14.20572 0,-6.10035 3.4981,-10.32367 3.49811,-4.22332 9.72644,-5.67376 z m -3.15682,-13.60848 q 0,4.94854 3.0715,7.72143 3.11417,2.77289 8.7026,2.77289 5.54578,0 8.65995,-2.77289 3.15682,-2.77289 3.15682,-7.72143 0,-4.94854 -3.15682,-7.72142 -3.11417,-2.77289 -8.65995,-2.77289 -5.58843,0 -8.7026,2.77289 -3.0715,2.77288 -3.0715,7.72142 z"
       id="path1279" />
  </g>
  <path
     d="M -120.04896,-4.884292 V 468.01571 h 8.265 l -11.02,22.04 -11.02,-22.04 h 8.265 V -4.884292 Z"
     style="fill:#ffffff"
     id="path176" />
  <path
     d="m 25.856,-127.32027 h 444.39 v -8.265 l 22.04,11.02 -22.04,11.02 v -8.265 H 25.856 Z"
     style="fill:#000000"
     id="path178" />
  <g
     aria-label="stretto"
     id="text3347"
     style="font-size:31.9448px;line-height:1.25;stroke-width:0.79862">
    <path
       d="m -84.742998,-131.61124 v 2.71407 q -1.216648,-0.62393 -2.526884,-0.93589 -1.310236,-0.31196 -2.71406,-0.31196 -2.136932,0 -3.213198,0.65512 -1.060667,0.65512 -1.060667,1.96535 0,0.99828 0.764304,1.57541 0.764305,0.56153 3.072816,1.07626 l 0.982677,0.21837 q 3.057217,0.65512 4.336257,1.85617 1.294637,1.18545 1.294637,3.32239 0,2.43329 -1.934157,3.85271 -1.91856,1.41942 -5.287738,1.41942 -1.403824,0 -2.932433,-0.28076 -1.51301,-0.26517 -3.197599,-0.8111 v -2.96363 q 1.591,0.8267 3.135207,1.24785 1.544207,0.40555 3.057217,0.40555 2.027746,0 3.119609,-0.68632 1.091864,-0.70191 1.091864,-1.96535 0,-1.16986 -0.795501,-1.79378 -0.779902,-0.62392 -3.447168,-1.20105 l -0.998275,-0.23397 q -2.667266,-0.56153 -3.852718,-1.71578 -1.185451,-1.16986 -1.185451,-3.1976 0,-2.46449 1.746981,-3.80593 1.746981,-1.34143 4.960179,-1.34143 1.591001,0 2.994825,0.23397 1.403824,0.23397 2.589276,0.70191 z"
       id="path1216" />
    <path
       d="m -76.398043,-137.08615 v 4.96018 h 5.911659 v 2.23052 h -5.911659 v 9.48361 q 0,2.13693 0.577128,2.74526 0.592725,0.60832 2.386501,0.60832 h 2.94803 v 2.4021 h -2.94803 q -3.322384,0 -4.585826,-1.23224 -1.263442,-1.24785 -1.263442,-4.52344 v -9.48361 h -2.105736 v -2.23052 h 2.105736 v -4.96018 z"
       id="path1218" />
    <path
       d="m -56.588525,-129.44311 q -0.483539,-0.28076 -1.060667,-0.40555 -0.56153,-0.14038 -1.247844,-0.14038 -2.433295,0 -3.743531,1.591 -1.294638,1.57541 -1.294638,4.53903 v 9.20285 h -2.885639 v -17.46981 h 2.885639 v 2.71406 q 0.904687,-1.591 2.355305,-2.35531 1.450618,-0.7799 3.525159,-0.7799 0.296363,0 0.655118,0.0468 0.358755,0.0312 0.7955,0.10918 z"
       id="path1220" />
    <path
       d="m -39.337084,-124.10857 v 1.40382 h -13.195948 q 0.187177,2.96363 1.778178,4.52343 1.606599,1.54421 4.461041,1.54421 1.653393,0 3.1976,-0.40555 1.559804,-0.40555 3.088413,-1.21665 v 2.71406 q -1.544207,0.65512 -3.166404,0.99828 -1.622196,0.34315 -3.291187,0.34315 -4.180277,0 -6.62917,-2.43329 -2.433296,-2.4333 -2.433296,-6.58238 0,-4.28946 2.308511,-6.80074 2.324109,-2.52689 6.254817,-2.52689 3.525159,0 5.568503,2.27732 2.058942,2.26171 2.058942,6.16123 z m -2.870041,-0.8423 q -0.0312,-2.3553 -1.325834,-3.75913 -1.27904,-1.40382 -3.400374,-1.40382 -2.402099,0 -3.852717,1.35703 -1.435021,1.35703 -1.653393,3.82152 z"
       id="path1222" />
    <path
       d="m -31.787627,-137.08615 v 4.96018 h 5.91166 v 2.23052 h -5.91166 v 9.48361 q 0,2.13693 0.577128,2.74526 0.592726,0.60832 2.386501,0.60832 h 2.948031 v 2.4021 h -2.948031 q -3.322384,0 -4.585826,-1.23224 -1.263441,-1.24785 -1.263441,-4.52344 v -9.48361 h -2.105737 v -2.23052 h 2.105737 v -4.96018 z"
       id="path1224" />
    <path
       d="m -19.262396,-137.08615 v 4.96018 h 5.911659 v 2.23052 h -5.911659 v 9.48361 q 0,2.13693 0.577127,2.74526 0.592726,0.60832 2.386502,0.60832 h 2.94803 v 2.4021 h -2.94803 q -3.322384,0 -4.585826,-1.23224 -1.263442,-1.24785 -1.263442,-4.52344 v -9.48361 h -2.105736 v -2.23052 h 2.105736 v -4.96018 z"
       id="path1226" />
    <path
       d="m -2.8064582,-130.11382 q -2.3085109,0 -3.6499429,1.80937 -1.341432,1.79378 -1.341432,4.92898 0,3.13521 1.325834,4.94458 1.341432,1.79378 3.6655409,1.79378 2.29291285,0 3.63434486,-1.80937 1.34143204,-1.80938 1.34143204,-4.92899 0,-3.10401 -1.34143204,-4.91338 -1.34143201,-1.82497 -3.63434486,-1.82497 z m 0,-2.4333 q 3.74353119,0 5.8804636,2.4333 2.1369324,2.43329 2.1369324,6.73835 0,4.28947 -2.1369324,6.73836 -2.13693241,2.43329 -5.8804636,2.43329 -3.7591292,0 -5.8960616,-2.43329 -2.1213342,-2.44889 -2.1213342,-6.73836 0,-4.30506 2.1213342,-6.73835 2.1369324,-2.4333 5.8960616,-2.4333 z"
       id="path1228" />
  </g>
  <g
     aria-label="largo"
     id="text3347-4"
     style="font-size:31.9448px;line-height:1.25;stroke-width:0.79862">
    <path
       d="m 508.20134,-136.92672 h 2.87004 v 24.27056 h -2.87004 z"
       id="path1205" />
    <path
       d="m 525.01604,-121.43786 q -3.47837,0 -4.8198,0.7955 -1.34143,0.7955 -1.34143,2.71406 0,1.52861 0.99827,2.4333 1.01388,0.88909 2.74526,0.88909 2.3865,0 3.82152,-1.68459 1.45062,-1.70019 1.45062,-4.50784 v -0.63952 z m 5.72448,-1.18545 v 9.96715 h -2.87004 v -2.65167 q -0.98268,1.591 -2.4489,2.35531 -1.46621,0.7487 -3.58755,0.7487 -2.68286,0 -4.27386,-1.49741 -1.5754,-1.51301 -1.5754,-4.03989 0,-2.94803 1.96535,-4.44544 1.98095,-1.49742 5.89606,-1.49742 h 4.0243 v -0.28076 q 0,-1.98095 -1.31024,-3.05722 -1.29464,-1.09186 -3.64994,-1.09186 -1.49741,0 -2.91684,0.35875 -1.41942,0.35876 -2.72965,1.07627 v -2.65167 q 1.5754,-0.60832 3.05721,-0.90469 1.48182,-0.31196 2.88564,-0.31196 3.79033,0 5.66209,1.96536 1.87177,1.96535 1.87177,5.95845 z"
       id="path1207" />
    <path
       d="m 546.77531,-127.44311 q -0.48354,-0.28076 -1.06067,-0.40555 -0.56153,-0.14038 -1.24784,-0.14038 -2.4333,0 -3.74353,1.591 -1.29464,1.57541 -1.29464,4.53903 v 9.20285 h -2.88564 v -17.46981 h 2.88564 v 2.71406 q 0.90469,-1.591 2.3553,-2.35531 1.45062,-0.7799 3.52516,-0.7799 0.29637,0 0.65512,0.0468 0.35876,0.0312 0.7955,0.10918 z"
       id="path1209" />
    <path
       d="m 560.71996,-121.59384 q 0,-3.11961 -1.29464,-4.83539 -1.27903,-1.71579 -3.60314,-1.71579 -2.30851,0 -3.60315,1.71579 -1.27904,1.71578 -1.27904,4.83539 0,3.10401 1.27904,4.8198 1.29464,1.71578 3.60315,1.71578 2.32411,0 3.60314,-1.71578 1.29464,-1.71579 1.29464,-4.8198 z m 2.87004,6.76955 q 0,4.46104 -1.98095,6.62917 -1.98095,2.18373 -6.06764,2.18373 -1.51301,0 -2.85444,-0.23397 -1.34143,-0.21837 -2.60487,-0.68632 v -2.79205 q 1.26344,0.68632 2.49568,1.01388 1.23225,0.32756 2.51129,0.32756 2.82324,0 4.22707,-1.48182 1.40382,-1.46621 1.40382,-4.44544 v -1.41942 q -0.88909,1.5442 -2.27731,2.30851 -1.38823,0.7643 -3.32239,0.7643 -3.21319,0 -5.17855,-2.44889 -1.96535,-2.4489 -1.96535,-6.48879 0,-4.05549 1.96535,-6.50438 1.96536,-2.4489 5.17855,-2.4489 1.93416,0 3.32239,0.76431 1.38822,0.7643 2.27731,2.30851 v -2.65167 H 563.59 Z"
       id="path1211" />
    <path
       d="m 576.27122,-128.11382 q -2.30851,0 -3.64995,1.80937 -1.34143,1.79378 -1.34143,4.92898 0,3.13521 1.32584,4.94458 1.34143,1.79378 3.66554,1.79378 2.29291,0 3.63434,-1.80937 1.34143,-1.80938 1.34143,-4.92899 0,-3.10401 -1.34143,-4.91338 -1.34143,-1.82497 -3.63434,-1.82497 z m 0,-2.4333 q 3.74353,0 5.88046,2.4333 2.13693,2.43329 2.13693,6.73835 0,4.28947 -2.13693,6.73836 -2.13693,2.43329 -5.88046,2.43329 -3.75913,0 -5.89606,-2.43329 -2.12134,-2.44889 -2.12134,-6.73836 0,-4.30506 2.12134,-6.73835 2.13693,-2.4333 5.89606,-2.4333 z"
       id="path1213" />
  </g>
  <g
     aria-label="corto"
     transform="rotate(-90,91.798436,124.82336)"
     id="text5220"
     style="font-size:31.9448px;line-height:1.25;baseline-shift:baseline;vector-effect:none;fill:#ffffff;stroke-width:0.79862;stop-color:#000000">
    <path
       d="m -354.85166,-96.320558 v 2.682864 q -1.21665,-0.670716 -2.4489,-0.998275 -1.21664,-0.343157 -2.46449,-0.343157 -2.79205,0 -4.33626,1.778178 -1.5442,1.762579 -1.5442,4.960178 0,3.1976 1.5442,4.975777 1.54421,1.76258 4.33626,1.76258 1.24785,0 2.46449,-0.327559 1.23225,-0.343157 2.4489,-1.013873 v 2.651668 q -1.20105,0.561529 -2.49569,0.842294 -1.27904,0.280765 -2.72966,0.280765 -3.94631,0 -6.27041,-2.48009 -2.32411,-2.480089 -2.32411,-6.691562 0,-4.273864 2.3397,-6.722758 2.35531,-2.448893 6.442,-2.448893 1.32583,0 2.58927,0.280765 1.26344,0.265167 2.4489,0.811098 z"
       id="path1194" />
    <path
       d="m -343.09074,-94.979126 q -2.30851,0 -3.64994,1.809374 -1.34143,1.793775 -1.34143,4.928982 0,3.135208 1.32583,4.944581 1.34143,1.793776 3.66554,1.793776 2.29292,0 3.63435,-1.809374 1.34143,-1.809373 1.34143,-4.928983 0,-3.104011 -1.34143,-4.913384 -1.34143,-1.824972 -3.63435,-1.824972 z m 0,-2.433295 q 3.74353,0 5.88047,2.433295 2.13693,2.433296 2.13693,6.738356 0,4.289463 -2.13693,6.738357 -2.13694,2.433295 -5.88047,2.433295 -3.75913,0 -5.89606,-2.433295 -2.12133,-2.448894 -2.12133,-6.738357 0,-4.30506 2.12133,-6.738356 2.13693,-2.433295 5.89606,-2.433295 z"
       id="path1196" />
    <path
       d="m -320.19281,-94.30841 q -0.48354,-0.280764 -1.06066,-0.405549 -0.56153,-0.140382 -1.24785,-0.140382 -2.43329,0 -3.74353,1.591 -1.29464,1.575403 -1.29464,4.539032 v 9.202848 h -2.88564 v -17.469813 h 2.88564 v 2.71406 q 0.90469,-1.591 2.35531,-2.355305 1.45062,-0.779902 3.52516,-0.779902 0.29636,0 0.65511,0.04679 0.35876,0.0312 0.7955,0.109187 z"
       id="path1198" />
    <path
       d="m -314.34354,-101.95145 v 4.960176 h 5.91166 v 2.230521 h -5.91166 v 9.483612 q 0,2.136933 0.57713,2.745257 0.59272,0.608323 2.3865,0.608323 h 2.94803 v 2.4021 h -2.94803 q -3.32238,0 -4.58583,-1.232246 -1.26344,-1.247844 -1.26344,-4.523434 v -9.483612 h -2.10573 v -2.230521 h 2.10573 v -4.960176 z"
       id="path1200" />
    <path
       d="m -297.8876,-94.979126 q -2.30851,0 -3.64994,1.809374 -1.34143,1.793775 -1.34143,4.928982 0,3.135208 1.32583,4.944581 1.34143,1.793776 3.66554,1.793776 2.29292,0 3.63435,-1.809374 1.34143,-1.809373 1.34143,-4.928983 0,-3.104011 -1.34143,-4.913384 -1.34143,-1.824972 -3.63435,-1.824972 z m 0,-2.433295 q 3.74353,0 5.88047,2.433295 2.13693,2.433296 2.13693,6.738356 0,4.289463 -2.13693,6.738357 -2.13694,2.433295 -5.88047,2.433295 -3.75913,0 -5.89606,-2.433295 -2.12133,-2.448894 -2.12133,-6.738357 0,-4.30506 2.12133,-6.738356 2.13693,-2.433295 5.89606,-2.433295 z"
       id="path1202" />
  </g>
  <g
     aria-label="lungo"
     transform="rotate(-90,-210.78387,-175.95086)"
     id="text5220-4"
     style="font-size:31.9448px;line-height:1.25;baseline-shift:baseline;vector-effect:none;fill:#ffffff;stroke-width:0.79862;stop-color:#000000">
    <path
       d="m -367.42369,-103.79202 h 2.87004 v 24.270559 h -2.87004 z"
       id="path1183" />
    <path
       d="m -358.84476,-86.415798 v -10.575476 h 2.87004 v 10.46629 q 0,2.480089 0.96708,3.727933 0.96707,1.232245 2.90123,1.232245 2.32411,0 3.66554,-1.481814 1.35703,-1.481814 1.35703,-4.039894 v -9.90476 h 2.87004 v 17.469813 h -2.87004 v -2.682865 q -1.04507,1.591001 -2.43329,2.370904 -1.37263,0.764304 -3.1976,0.764304 -3.01042,0 -4.57023,-1.871766 -1.5598,-1.871765 -1.5598,-5.474914 z m 7.22189,-10.996623 z"
       id="path1185" />
    <path
       d="m -323.78035,-90.065741 v 10.54428 h -2.87004 v -10.450692 q 0,-2.480089 -0.96708,-3.712335 -0.96708,-1.232245 -2.90124,-1.232245 -2.32411,0 -3.66554,1.481814 -1.34143,1.481814 -1.34143,4.039894 v 9.873564 h -2.88564 v -17.469813 h 2.88564 v 2.71406 q 1.02947,-1.575402 2.4177,-2.355305 1.40382,-0.779902 3.22879,-0.779902 3.01042,0 4.55463,1.871766 1.54421,1.856167 1.54421,5.474914 z"
       id="path1187" />
    <path
       d="m -306.56011,-88.459142 q 0,-3.11961 -1.29464,-4.835395 -1.27904,-1.715785 -3.60315,-1.715785 -2.30851,0 -3.60314,1.715785 -1.27904,1.715785 -1.27904,4.835395 0,3.104011 1.27904,4.819796 1.29463,1.715785 3.60314,1.715785 2.32411,0 3.60315,-1.715785 1.29464,-1.715785 1.29464,-4.819796 z m 2.87004,6.769552 q 0,4.461041 -1.98095,6.62917 -1.98095,2.183726 -6.06764,2.183726 -1.51301,0 -2.85444,-0.23397 -1.34143,-0.218373 -2.60488,-0.686314 v -2.792051 q 1.26345,0.686314 2.49569,1.013873 1.23225,0.327559 2.51129,0.327559 2.82324,0 4.22707,-1.481814 1.40382,-1.466217 1.40382,-4.445443 v -1.419423 q -0.88909,1.544207 -2.27731,2.308511 -1.38823,0.764305 -3.32239,0.764305 -3.21319,0 -5.17855,-2.448894 -1.96535,-2.448893 -1.96535,-6.488787 0,-4.055492 1.96535,-6.504386 1.96536,-2.448893 5.17855,-2.448893 1.93416,0 3.32239,0.764304 1.38822,0.764305 2.27731,2.308511 v -2.651668 h 2.87004 z"
       id="path1189" />
    <path
       d="m -291.00886,-94.979126 q -2.30851,0 -3.64994,1.809374 -1.34143,1.793775 -1.34143,4.928982 0,3.135208 1.32583,4.944581 1.34143,1.793776 3.66554,1.793776 2.29291,0 3.63435,-1.809374 1.34143,-1.809373 1.34143,-4.928983 0,-3.104011 -1.34143,-4.913384 -1.34144,-1.824972 -3.63435,-1.824972 z m 0,-2.433295 q 3.74353,0 5.88047,2.433295 2.13693,2.433296 2.13693,6.738356 0,4.289463 -2.13693,6.738357 -2.13694,2.433295 -5.88047,2.433295 -3.75913,0 -5.89606,-2.433295 -2.12133,-2.448894 -2.12133,-6.738357 0,-4.30506 2.12133,-6.738356 2.13693,-2.433295 5.89606,-2.433295 z"
       id="path1191" />
  </g>
</svg>
