<?xml version="1.0" encoding="UTF-8" standalone="no"?>
<svg
   viewBox="-144.966 -147.058 744.966 747.058"
   width="744.966"
   height="747.058"
   version="1.1"
   id="svg180"
   sodipodi:docname="2019-KR-04-taksbody-ita.svg"
   inkscape:version="1.1.1 (3bf5ae0d25, 2021-09-20)"
   xmlns:inkscape="http://www.inkscape.org/namespaces/inkscape"
   xmlns:sodipodi="http://sodipodi.sourceforge.net/DTD/sodipodi-0.dtd"
   xmlns="http://www.w3.org/2000/svg"
   xmlns:svg="http://www.w3.org/2000/svg">
  <defs
     id="defs184" />
  <sodipodi:namedview
     id="namedview182"
     pagecolor="#ffffff"
     bordercolor="#666666"
     borderopacity="1.0"
     inkscape:pageshadow="2"
     inkscape:pageopacity="0.0"
     inkscape:pagecheckerboard="0"
     showgrid="false"
     inkscape:zoom="0.48122101"
     inkscape:cx="140.26819"
     inkscape:cy="456.13137"
     inkscape:window-width="2048"
     inkscape:window-height="1017"
     inkscape:window-x="-8"
     inkscape:window-y="-8"
     inkscape:window-maximized="1"
     inkscape:current-layer="svg180" />
  <rect
     x="-100"
     y="-100"
     width="700"
     height="700"
     style="fill:#fff6d5"
     id="rect2" />
  <rect
     x="-100"
     y="-100"
     width="100"
     height="100"
     style="fill:#ffd42a"
     id="rect4" />
  <rect
     width="100"
     height="100"
     style="fill:#ffd42a"
     id="rect6" />
  <rect
     width="100"
     height="100"
     style="fill:#ffd42a"
     x="100"
     y="-100"
     id="rect8" />
  <rect
     width="100"
     height="100"
     style="fill:#ffd42a"
     x="200"
     id="rect10" />
  <rect
     width="100"
     height="100"
     style="fill:#ffd42a"
     x="200"
     id="rect12" />
  <rect
     width="100"
     height="100"
     style="fill:#ffd42a"
     x="300"
     y="-100"
     id="rect14" />
  <rect
     width="100"
     height="100"
     style="fill:#ffd42a"
     x="400"
     id="rect16" />
  <rect
     width="100"
     height="100"
     style="fill:#ffd42a"
     x="500"
     y="-100"
     id="rect18" />
  <rect
     x="-100"
     y="100"
     width="100"
     height="100"
     style="fill:#ffd42a"
     id="rect20" />
  <rect
     width="100"
     height="100"
     style="fill:#ffd42a"
     y="200"
     id="rect22" />
  <rect
     width="100"
     height="100"
     style="fill:#ffd42a"
     x="100"
     y="100"
     id="rect24" />
  <rect
     width="100"
     height="100"
     style="fill:#ffd42a"
     x="200"
     y="200"
     id="rect26" />
  <rect
     width="100"
     height="100"
     style="fill:#ffd42a"
     x="200"
     y="200"
     id="rect28" />
  <rect
     width="100"
     height="100"
     style="fill:#ffd42a"
     x="300"
     y="100"
     id="rect30" />
  <rect
     width="100"
     height="100"
     style="fill:#ffd42a"
     x="400"
     y="200"
     id="rect32" />
  <rect
     width="100"
     height="100"
     style="fill:#ffd42a"
     x="500"
     y="100"
     id="rect34" />
  <rect
     x="-100"
     y="300"
     width="100"
     height="100"
     style="fill:#ffd42a"
     id="rect36" />
  <rect
     width="100"
     height="100"
     style="fill:#ffd42a"
     y="400"
     id="rect38" />
  <rect
     width="100"
     height="100"
     style="fill:#ffd42a"
     x="100"
     y="300"
     id="rect40" />
  <rect
     width="100"
     height="100"
     style="fill:#ffd42a"
     x="200"
     y="400"
     id="rect42" />
  <rect
     width="100"
     height="100"
     style="fill:#ffd42a"
     x="200"
     y="400"
     id="rect44" />
  <rect
     width="100"
     height="100"
     style="fill:#ffd42a"
     x="300"
     y="300"
     id="rect46" />
  <rect
     width="100"
     height="100"
     style="fill:#ffd42a"
     x="400"
     y="400"
     id="rect48" />
  <rect
     width="100"
     height="100"
     style="fill:#ffd42a"
     x="500"
     y="300"
     id="rect50" />
  <rect
     x="-100"
     y="500"
     width="100"
     height="100"
     style="fill:#ffd42a"
     id="rect52" />
  <rect
     width="100"
     height="100"
     style="fill:#ffd42a"
     x="100"
     y="500"
     id="rect54" />
  <rect
     width="100"
     height="100"
     style="fill:#ffd42a"
     x="300"
     y="500"
     id="rect56" />
  <rect
     width="100"
     height="100"
     style="fill:#ffd42a"
     x="500"
     y="500"
     id="rect58" />
  <path
     d="m -32.127176,-3.7791414 -15.083698,3.53887277 -4.484657,-54.45426137 -3.665235,51.5222819 -15.254964,-5.8167294 6.073151,-89.1413145 11.194767,4.26787 12.897243,-3.025536 z M 74.861885,-4.6728315 56.484568,-0.96403267 51.63939,-55.399694 46.609022,-3.80598 28.129347,-9.4563385 l 8.375038,-89.2610755 13.561671,4.146756 15.713497,-3.170833 z m 102.464055,0.076745 -21.34338,3.86182514 -5.17074,-54.41886394 -6.25779,51.6560378 -21.38581,-5.5004237 10.44933,-89.3670921 15.69279,4.035805 18.24912,-3.301653 z m 103.67919,0.1452274 -23.63632,3.98012415 -5.42241,-54.40588035 -7.20847,51.7060877 -23.63083,-5.3845978 12.05215,-89.4507869 17.34064,3.95179 20.21052,-3.402847 z m 102.42703,-0.8155323 -25.25717,4.0637477 -5.60017,-54.3967086 -7.88063,51.7397642 -25.21866,-5.301676 13.18464,-89.5092152 18.50704,3.890611 21.59568,-3.47431 z m 103.22099,0.036691 -28.82742,4.24794592 -5.99165,-54.37651132 -9.35966,51.8160714 -28.71606,-5.1222377 15.68137,-89.6370267 21.07263,3.758246 24.64861,-3.631819 z m 104.49866,0.074912 -32.10401,4.41799471 -6.35117,-54.35796301 -10.71586,51.8860413 -31.92579,-4.9566396 17.97132,-89.7551707 23.42855,3.637699 27.44984,-3.777342 z m -0.23547,96.6314827 -32.1149,4.226301 -6.15475,-50.570052 -10.90028,48.330821 -31.90119,-4.499299 18.28876,-83.6023548 23.41019,3.3011987 27.45933,-3.612613 z m -104.47563,0.371494 -28.83826,4.057251 -5.79622,-50.588549 -9.54209,48.260748 -28.69246,-4.664846 15.99781,-83.4841578 21.05632,3.4226407 24.65701,-3.4690353 z m -103.19876,-0.595579 -25.26701,3.873001 -5.40474,-50.608747 -8.06406,48.184493 -25.19511,-4.845283 13.50208,-83.3563981 18.48978,3.556056 21.60507,-3.311578 z m -102.40392,-0.735719 -23.64622,3.78838 -5.22693,-50.61692 -7.39195,48.149817 -23.60722,-4.927206 12.36958,-83.2979701 17.32334,3.6162361 20.21891,-3.2400627 z M 177.18159,93.821073 155.82937,97.4921 150.85406,46.861198 144.41185,94.962016 123.05064,89.918933 133.81636,6.7037098 149.49188,10.40496 167.7494,7.2660909 Z M 74.74128,92.186035 56.353071,95.70314 51.703324,45.055441 46.490478,93.092833 28.033403,87.899918 36.72693,4.7926058 50.270238,8.6028615 65.992185,5.59581 Z m -106.965952,0.351779 -15.093539,3.348127 -4.289227,-50.666299 -3.84866,47.96701 -15.231417,-5.360337 6.391589,-82.9885487 11.176507,3.9333662 12.905642,-2.8627526 z m -0.06515,97.312616 -15.101236,3.21835 -4.156791,-48.11874 -3.973007,45.57624 -15.214498,-5.0518 6.604003,-78.852 11.164863,3.70767 12.912308,-2.75295 z m 106.94898,-0.66132 -18.393805,3.38922 -4.51831,-48.10008 -5.337244,45.64562 -18.440207,-4.88538 8.905992,-78.96976 13.532714,3.5855 15.727563,-2.89819 z m 102.425514,0.33908 -21.35886,3.5422 -4.84388,-48.08329 -6.56561,45.709 -21.34534,-4.7355 10.97924,-79.07672 15.66382,3.47455 18.26325,-3.02802 z m 103.64094,0.39353 -23.65286,3.65955 -5.09554,-48.07031 -7.5153,45.759 -23.59136,-4.61962 12.5831,-79.15947 17.31164,3.38954 20.22458,-3.13021 z m 102.38836,0.43412 -25.2737,3.74317 -5.27331,-48.06113 -8.1874,45.79367 -25.17924,-4.53769 13.71559,-79.21791 18.47809,3.32936 21.61079,-3.20072 z m 103.18246,0.29902 -28.8439,3.92837 -5.66479,-48.04093 -9.66544,45.86992 -28.67664,-4.35825 16.21128,-79.34666 21.04472,3.19794 24.66268,-3.35918 z m 104.46058,-1.67244 -32.12055,4.09742 -6.02436,-48.02339 -11.02263,45.93995 -31.88632,-4.19166 18.50223,-79.46486 23.39954,3.07545 27.464,-3.50271 z m -0.28436,96.88734 -32.13239,3.86772 -5.78926,-43.46645 -11.24331,41.66264 -31.85793,-3.64139 18.88407,-72.0637 23.37867,2.67099 27.47416,-3.30597 z m -104.43178,0.21202 -28.85676,3.69873 -5.42973,-43.485 -9.88611,41.59262 -28.64821,-3.80699 16.59307,-71.9465 21.02386,2.79348 24.67288,-3.16145 z m -103.15615,0.23032 -25.28551,3.51448 -5.03825,-43.50519 -8.40808,41.51636 -25.15085,-3.98743 14.09838,-71.81779 18.45627,2.92594 21.62094,-3.00398 z m -102.36054,0.10517 -23.66472,3.42985 -4.85943,-43.51342 -7.73598,41.48169 -23.56401,-4.0703 12.96494,-71.75831 17.29182,2.98602 20.23379,-2.93242 z m -103.6125,-0.85161 -21.37177,3.31156 -4.60882,-43.52735 -6.78524,41.43264 -21.31695,-4.18523 11.36108,-71.67557 15.64301,3.07109 18.27334,-2.83228 z m -102.398161,0.19122 -18.405655,3.15953 -4.284256,-43.5441 -5.556872,41.36926 -18.412816,-4.33505 9.288784,-71.56966 13.510899,3.18209 15.738713,-2.70151 z m -106.921079,0.21228 -15.113035,2.98966 -3.921738,-43.5628 -4.193685,41.29893 -15.186108,-4.50153 6.985899,-71.44985 11.144994,3.30316 12.92146,-2.55616 z m -0.129864,96.56295 -15.126483,2.729 -3.655102,-38.39467 -4.443988,36.44738 -15.153905,-3.87736 7.419009,-63.05501 11.120398,2.84582 12.933999,-2.33251 z m 106.887775,-0.8384 -18.419155,2.89788 -4.016569,-38.37502 -5.807175,36.51771 -18.380665,-3.71188 9.721997,-63.17283 13.487199,2.7227 15.749255,-2.47775 z m 102.368089,-0.79346 -21.38516,3.0519 -4.34219,-38.35922 -7.03654,36.58114 -21.28475,-3.56106 11.79519,-63.28079 15.61941,2.6137 18.28483,-2.60957 z m 103.57483,0.12157 -23.67816,3.1692 -4.59385,-38.34624 -7.98628,36.63014 -23.53076,-3.44518 13.39806,-63.36348 17.26722,2.52868 20.24622,-2.71076 z m 102.32901,-0.71635 -25.3,3.25288 -4.77062,-38.33712 -8.65838,36.66481 -25.11865,-3.36325 14.53055,-63.42191 18.43367,2.4685 21.63238,-2.78228 z m 103.12408,-0.83247 -28.86925,3.43702 -5.16305,-38.31587 -10.13641,36.74107 -28.617,-3.18276 17.02723,-63.55072 20.99921,2.33513 24.68537,-2.93879 z m 104.40126,-0.82326 -32.1459,3.60607 -5.52257,-38.29732 -11.49361,36.81109 -31.82573,-3.01722 19.31718,-63.66887 23.35508,2.2136 27.48564,-3.08327 z m -0.47668,91.16064 -32.16563,3.22358 -5.13191,-30.72539 -11.86036,29.70255 -31.77853,-2.10244 19.9528,-51.36828 23.3195,1.54354 27.5025,-2.7567 z m -104.35408,1.71802 -28.88999,3.05459 -4.77139,-30.744 -10.50417,29.63258 -28.5688,-2.26804 17.66185,-51.25008 20.96463,1.66503 24.70122,-2.61217 z m -103.07969,1.71235 -25.31869,2.87134 -4.38091,-30.76414 -9.02413,29.55621 -25.07251,-2.44941 15.16622,-51.12033 18.399,1.7964 21.64828,-2.45467 z m -102.28174,1.61311 -23.6989,2.78676 -4.20214,-30.77336 -8.35303,29.52159 -23.48457,-2.53034 14.03268,-51.06284 17.2336,1.85752 20.26312,-2.3832 z m -103.52045,0.95205 -21.40494,2.66841 -3.95044,-30.78535 -7.40333,29.4716 -21.23756,-2.64627 12.42886,-50.9791 15.58474,1.94159 18.30173,-2.28201 z m -102.321696,1.67324 -18.438889,2.51539 -3.625862,-30.80209 -6.174973,29.40822 -18.332419,-2.79616 10.355619,-50.87213 13.453573,2.05154 15.766155,-2.15019 z m -106.841424,1.75623 -15.145269,2.34546 -3.265342,-30.82069 -4.809789,29.33779 -15.107708,-2.96253 8.05468,-50.75342 11.085774,2.1747 12.949849,-2.00589 z m -0.09605,99.33389 -15.156212,2.15277 -3.067316,-27.00183 -4.995707,25.75361 -15.082956,-2.50219 8.373748,-44.54962 11.069306,1.8361 12.95835,-1.84111 z m 106.817516,-2.21961 -18.448832,2.32264 -3.428835,-26.98317 -6.359945,25.82299 -18.309613,-2.33472 10.676685,-44.66844 13.436107,1.713 15.774605,-1.98641 z m 102.298763,-2.11765 -21.41483,2.47666 -3.75445,-26.96737 -7.58727,25.88731 -21.21375,-2.18489 12.74888,-44.77634 15.56733,1.60404 18.31023,-2.11723 z m 103.49158,-1.49229 -23.70784,2.59397 -4.00512,-26.95444 -8.53899,25.93641 -23.45977,-2.069 14.35275,-44.8591 17.21613,1.51898 20.27062,-2.21837 z m 102.25945,-2.06455 -25.32868,2.67759 -4.18389,-26.94522 -9.2101,25.97104 -25.04765,-1.98709 15.48624,-44.91757 18.38058,1.4589 21.65778,-2.28994 z m 103.05571,-2.15771 -28.89888,2.86279 -4.57537,-26.92502 -10.68813,26.04729 -28.546,-1.8066 17.98192,-45.04633 20.94811,1.32543 24.70972,-2.44739 z m 104.3318,-2.16947 -32.17558,3.03084 -4.93488,-26.90647 -12.04528,26.11831 -31.75478,-1.64205 20.27187,-45.16448 23.30298,1.20394 27.51105,-2.59092 z"
     style="fill:#3771c8"
     id="path60" />
  <path
     d="m 252.453,237.327 -0.034,8.419 c -0.002,0.269 -0.204,0.486 -0.452,0.484 -0.246,-0.002 -0.446,-0.222 -0.444,-0.49 0,0 0.061,-8.039 0.068,-8.073 -1.429,-0.256 -2.735,-0.981 -3.658,-1.985 -1.014,-1.103 -1.654,-2.638 -1.696,-4.24 0,0 -0.047,-9.202 -0.062,-9.207 l -13.604,-4.265 c 0.063,-0.416 0.112,-0.733 0.201,-0.938 l 14.012,4.529 c 0.107,0.034 25.095,-4.203 25.095,-4.203 0.041,0.543 0.033,0.438 0.103,0.906 l -19.815,3.303 z m -5.424,-5.9 c 0.012,1.454 0.563,2.713 1.487,3.719 0.924,1.004 1.882,1.522 3.135,1.735 l -0.276,-15.183 -4.362,0.732 z m 106.047,5.88 -0.065,8.421 c -0.003,0.269 -0.22,0.486 -0.484,0.485 -0.264,-0.001 -0.476,-0.219 -0.473,-0.488 0,0 0.093,-8.041 0.102,-8.075 -1.526,-0.251 -2.919,-0.971 -3.901,-1.972 -1.079,-1.1 -1.757,-2.633 -1.797,-4.236 0,0 -0.017,-9.203 -0.033,-9.207 l -14.515,-4.219 c 0.069,-0.416 0.122,-0.733 0.218,-0.939 l 14.949,4.482 c 0.115,0.033 26.816,-4.292 26.816,-4.292 0.043,0.542 0.033,0.438 0.107,0.905 l -21.174,3.373 z m -5.771,-5.881 c 0.007,1.454 0.591,2.71 1.575,3.713 0.984,1.002 2.005,1.515 3.342,1.725 l -0.242,-15.184 -4.66,0.747 z m 105.102,5.841 -0.135,8.424 c -0.006,0.269 -0.255,0.488 -0.556,0.489 -0.301,0.001 -0.541,-0.216 -0.535,-0.485 0,0 0.164,-8.044 0.173,-8.079 -1.737,-0.239 -3.32,-0.95 -4.432,-1.944 -1.222,-1.092 -1.984,-2.621 -2.019,-4.224 0,0 0.048,-9.206 0.029,-9.211 l -16.518,-4.115 c 0.081,-0.416 0.143,-0.735 0.255,-0.942 l 17.012,4.376 c 0.131,0.033 30.607,-4.488 30.607,-4.488 0.044,0.543 0.034,0.438 0.114,0.905 l -24.167,3.527 z m -6.538,-5.842 c -0.002,1.454 0.655,2.708 1.77,3.704 1.113,0.995 2.274,1.501 3.797,1.7 l -0.166,-15.187 -5.319,0.781 z m 107.462,5.807 -0.201,8.428 c -0.008,0.269 -0.286,0.49 -0.621,0.492 -0.334,0.003 -0.6,-0.213 -0.593,-0.482 0,0 0.231,-8.047 0.241,-8.082 -1.932,-0.229 -3.689,-0.931 -4.922,-1.92 -1.353,-1.085 -2.192,-2.61 -2.221,-4.213 0,0 0.106,-9.209 0.085,-9.213 l -18.356,-4.021 c 0.092,-0.417 0.163,-0.736 0.288,-0.943 l 18.906,4.277 c 0.145,0.033 34.085,-4.667 34.085,-4.667 0.046,0.543 0.036,0.438 0.122,0.905 l -26.913,3.669 z m -7.242,-5.806 c -0.012,1.455 0.713,2.706 1.948,3.695 1.233,0.989 2.521,1.489 4.216,1.68 l -0.096,-15.191 -5.926,0.812 z m -394.792,4.93 0.01,8.417 c 0,0.269 -0.182,0.485 -0.405,0.481 -0.224,-0.002 -0.404,-0.222 -0.404,-0.492 0,0 0.015,-8.037 0.022,-8.07 -1.293,-0.263 -2.478,-0.994 -3.317,-2.003 -0.921,-1.107 -1.507,-2.645 -1.554,-4.247 0,0 -0.088,-9.2 -0.101,-9.204 l -12.317,-4.332 c 0.055,-0.416 0.097,-0.732 0.178,-0.937 l 12.685,4.598 c 0.098,0.035 22.661,-4.078 22.661,-4.078 0.04,0.542 0.032,0.438 0.097,0.906 l -17.893,3.203 z m -4.932,-5.924 c 0.018,1.453 0.522,2.714 1.363,3.724 0.84,1.01 1.709,1.531 2.842,1.75 l -0.325,-15.179 -3.938,0.71 z m -94.289,5.966 0.069,8.414 c 10e-4,0.269 -0.153,0.483 -0.346,0.479 -0.193,-0.005 -0.351,-0.227 -0.352,-0.495 0,0 -0.044,-8.034 -0.039,-8.068 -1.117,-0.271 -2.143,-1.011 -2.873,-2.025 -0.804,-1.113 -1.32,-2.655 -1.372,-4.257 0,0 -0.14,-9.197 -0.152,-9.201 l -10.652,-4.418 c 0.045,-0.415 0.078,-0.731 0.146,-0.936 l 10.973,4.687 c 0.084,0.035 19.512,-3.916 19.512,-3.916 0.038,0.543 0.03,0.439 0.09,0.906 l -15.407,3.076 z m -4.295,-5.957 c 0.026,1.453 0.47,2.717 1.202,3.732 0.731,1.016 1.484,1.542 2.463,1.77 l -0.389,-15.176 -3.39,0.682 z m -99.097,6.016 0.135,8.411 c 0.003,0.268 -0.122,0.481 -0.281,0.474 -0.158,-0.006 -0.29,-0.229 -0.294,-0.498 0,0 -0.11,-8.03 -0.106,-8.063 -0.921,-0.282 -1.772,-1.03 -2.383,-2.051 -0.67,-1.12 -1.109,-2.666 -1.166,-4.267 0,0 -0.2,-9.195 -0.209,-9.199 l -8.803,-4.513 c 0.032,-0.415 0.057,-0.73 0.111,-0.935 l 9.069,4.785 c 0.07,0.037 16.016,-3.734 16.016,-3.734 0.037,0.543 0.029,0.438 0.082,0.906 l -12.646,2.933 z m -3.587,-5.994 c 0.034,1.453 0.412,2.72 1.023,3.741 0.612,1.022 1.235,1.556 2.042,1.793 l -0.457,-15.172 -2.785,0.649 z m 307.285,-94.886 0.012,9.297 c -0.001,0.296 -0.201,0.534 -0.449,0.531 -0.247,-0.004 -0.447,-0.247 -0.447,-0.543 0,0 0.018,-8.877 0.025,-8.914 -1.431,-0.29 -2.741,-1.097 -3.671,-2.211 -1.019,-1.223 -1.668,-2.921 -1.719,-4.691 0,0 -0.095,-10.159 -0.111,-10.164 l -13.63,-4.783 c 0.06,-0.459 0.107,-0.809 0.196,-1.036 l 14.04,5.077 c 0.107,0.039 25.079,-4.506 25.079,-4.506 0.045,0.6 0.035,0.484 0.108,1.001 l -19.804,3.54 z m -5.455,-6.541 c 0.018,1.604 0.577,2.997 1.507,4.112 0.93,1.115 1.891,1.69 3.145,1.933 l -0.358,-16.764 -4.36,0.785 z m 106.107,7.06 -0.02,9.297 c -0.002,0.296 -0.218,0.536 -0.481,0.534 -0.265,-0.004 -0.478,-0.246 -0.477,-0.543 0,0 0.051,-8.877 0.058,-8.914 -1.527,-0.285 -2.924,-1.088 -3.912,-2.199 -1.084,-1.22 -1.771,-2.917 -1.82,-4.686 0,0 -0.067,-10.161 -0.082,-10.166 l -14.542,-4.735 c 0.067,-0.46 0.118,-0.81 0.214,-1.037 l 14.977,5.029 c 0.114,0.038 26.8,-4.596 26.8,-4.596 0.046,0.601 0.035,0.484 0.112,1.001 l -21.162,3.61 z m -5.805,-6.524 c 0.015,1.604 0.607,2.996 1.596,4.107 0.989,1.113 2.013,1.685 3.352,1.923 l -0.323,-16.766 -4.659,0.8 z m 105.163,7.012 -0.09,9.301 c -0.004,0.296 -0.251,0.537 -0.553,0.536 -0.301,-0.001 -0.542,-0.242 -0.538,-0.538 0,0 0.121,-8.881 0.13,-8.919 -1.739,-0.274 -3.326,-1.067 -4.445,-2.171 -1.227,-1.212 -1.998,-2.905 -2.041,-4.674 0,0 -0.002,-10.165 -0.02,-10.17 l -16.546,-4.632 c 0.079,-0.46 0.14,-0.81 0.251,-1.038 l 17.04,4.922 c 0.13,0.037 30.591,-4.791 30.591,-4.791 0.048,0.6 0.037,0.484 0.12,1 l -24.155,3.765 z m -6.571,-6.486 c 0.005,1.606 0.67,2.993 1.79,4.099 1.12,1.105 2.283,1.67 3.808,1.898 l -0.248,-16.769 -5.316,0.834 z m 107.522,4.988 -0.155,9.304 c -0.007,0.297 -0.283,0.539 -0.618,0.54 -0.335,0.002 -0.602,-0.239 -0.596,-0.535 0,0 0.187,-8.885 0.197,-8.922 -1.933,-0.264 -3.695,-1.049 -4.933,-2.146 -1.36,-1.206 -2.207,-2.895 -2.245,-4.664 0,0 0.056,-10.168 0.036,-10.173 l -18.384,-4.536 c 0.09,-0.461 0.16,-0.812 0.285,-1.041 l 18.933,4.824 c 0.146,0.037 34.069,-4.969 34.069,-4.969 0.05,0.599 0.039,0.483 0.128,0.999 l -26.901,3.906 z m -7.275,-6.449 c -0.004,1.606 0.728,2.99 1.968,4.089 1.239,1.1 2.531,1.657 4.227,1.877 l -0.178,-16.772 -5.923,0.865 z m -394.869,6.431 0.057,9.293 c 0,0.297 -0.18,0.534 -0.404,0.529 -0.223,-0.004 -0.405,-0.248 -0.406,-0.545 0,0 -0.029,-8.873 -0.023,-8.91 -1.294,-0.297 -2.482,-1.111 -3.328,-2.229 -0.927,-1.228 -1.522,-2.93 -1.577,-4.699 0,0 -0.137,-10.157 -0.15,-10.162 l -12.344,-4.849 c 0.053,-0.459 0.093,-0.808 0.172,-1.034 l 12.715,5.145 c 0.097,0.039 22.645,-4.381 22.645,-4.381 0.042,0.6 0.033,0.484 0.102,1.002 l -17.881,3.44 z m -4.964,-6.567 c 0.025,1.603 0.536,2.999 1.383,4.118 0.846,1.12 1.717,1.699 2.852,1.948 l -0.407,-16.761 -3.936,0.762 z m -94.284,6.084 0.114,9.291 c 0.003,0.297 -0.15,0.532 -0.343,0.526 -0.193,-0.006 -0.352,-0.251 -0.355,-0.548 0,0 -0.087,-8.87 -0.081,-8.908 -1.119,-0.306 -2.15,-1.128 -2.886,-2.251 -0.81,-1.234 -1.334,-2.939 -1.395,-4.708 0,0 -0.19,-10.155 -0.202,-10.161 l -10.678,-4.934 c 0.042,-0.458 0.074,-0.807 0.141,-1.032 l 11.001,5.233 c 0.084,0.039 19.496,-4.218 19.496,-4.218 0.041,0.6 0.032,0.484 0.095,1.001 l -15.394,3.313 z m -4.328,-6.601 c 0.034,1.605 0.484,3.003 1.223,4.128 0.737,1.125 1.493,1.711 2.473,1.968 l -0.47,-16.758 -3.389,0.734 z m -98.371,420.145 -0.031,5.225 c -10e-4,0.166 -0.131,0.301 -0.289,0.3 -0.158,0 -0.286,-0.136 -0.284,-0.303 0,0 0.047,-4.989 0.052,-5.01 -0.915,-0.157 -1.751,-0.606 -2.341,-1.228 -0.647,-0.684 -1.056,-1.637 -1.081,-2.631 0,0 -0.021,-5.711 -0.031,-5.713 l -8.705,-2.634 c 0.04,-0.258 0.071,-0.455 0.129,-0.582 l 8.967,2.797 c 0.068,0.021 16.072,-2.634 16.072,-2.634 0.026,0.337 0.021,0.271 0.065,0.561 l -12.69,2.07 z m -3.467,-3.656 c 0.006,0.902 0.358,1.683 0.949,2.306 0.591,0.622 1.203,0.942 2.005,1.074 l -0.161,-9.422 -2.794,0.458 z m 106.756,1.611 -0.094,5.229 c -0.005,0.167 -0.164,0.303 -0.356,0.304 -0.193,0.001 -0.345,-0.134 -0.342,-0.301 0,0 0.113,-4.993 0.119,-5.013 -1.111,-0.148 -2.122,-0.587 -2.832,-1.203 -0.779,-0.677 -1.266,-1.625 -1.286,-2.62 0,0 0.04,-5.714 0.027,-5.716 l -10.555,-2.538 c 0.053,-0.259 0.094,-0.457 0.164,-0.585 l 10.871,2.699 c 0.083,0.02 19.568,-2.815 19.568,-2.815 0.028,0.337 0.022,0.272 0.073,0.562 L 52.446,536.3 Z m -4.173,-3.619 c -0.004,0.903 0.416,1.68 1.127,2.297 0.711,0.617 1.452,0.93 2.426,1.052 l -0.091,-9.426 -3.401,0.49 z m 103.295,1.663 -0.153,5.231 c -0.006,0.168 -0.192,0.305 -0.415,0.308 -0.223,0.002 -0.399,-0.132 -0.393,-0.298 0,0 0.171,-4.996 0.179,-5.018 -1.286,-0.137 -2.456,-0.569 -3.274,-1.18 -0.9,-0.671 -1.455,-1.614 -1.47,-2.609 0,0 0.092,-5.718 0.079,-5.72 l -12.22,-2.452 c 0.063,-0.26 0.111,-0.457 0.195,-0.587 l 12.584,2.611 c 0.096,0.02 22.717,-2.977 22.717,-2.977 0.03,0.337 0.023,0.272 0.08,0.561 l -17.938,2.341 z m -4.81,-3.587 c -0.011,0.903 0.469,1.678 1.288,2.289 0.82,0.611 1.677,0.918 2.805,1.032 l -0.028,-9.429 -3.948,0.518 z m 406.422,-3.709 -0.365,5.242 c -0.013,0.168 -0.295,0.31 -0.63,0.319 -0.335,0.008 -0.595,-0.122 -0.583,-0.288 0,0 0.387,-5.008 0.398,-5.029 -1.925,-0.105 -3.667,-0.507 -4.878,-1.098 -1.332,-0.648 -2.14,-1.579 -2.138,-2.575 0,0 0.286,-5.727 0.267,-5.73 l -18.262,-2.139 c 0.102,-0.262 0.178,-0.461 0.308,-0.592 l 18.803,2.289 c 0.144,0.017 34.141,-3.567 34.141,-3.567 0.037,0.336 0.028,0.272 0.105,0.56 l -26.958,2.806 z m -7.121,-3.468 c -0.04,0.904 0.659,1.668 1.873,2.258 1.214,0.592 2.491,0.877 4.18,0.962 l 0.2,-9.441 -5.934,0.62 z m -93.701,5.457 -0.3,5.24 c -0.011,0.167 -0.263,0.308 -0.564,0.315 -0.301,0.006 -0.536,-0.125 -0.526,-0.291 0,0 0.322,-5.004 0.332,-5.025 -1.731,-0.116 -3.298,-0.526 -4.391,-1.123 -1.199,-0.655 -1.931,-1.591 -1.933,-2.586 0,0 0.227,-5.724 0.209,-5.726 l -16.422,-2.236 c 0.09,-0.26 0.158,-0.459 0.273,-0.59 l 16.91,2.388 c 0.129,0.018 30.663,-3.387 30.663,-3.387 0.034,0.336 0.026,0.271 0.098,0.56 l -24.213,2.664 z m -6.417,-3.503 c -0.031,0.904 0.602,1.671 1.696,2.267 1.093,0.597 2.243,0.889 3.76,0.984 l 0.131,-9.438 -5.33,0.59 z m -92.814,5.465 -0.23,5.236 c -0.008,0.167 -0.229,0.306 -0.493,0.311 -0.264,0.004 -0.472,-0.127 -0.463,-0.295 0,0 0.251,-5 0.259,-5.021 -1.519,-0.126 -2.897,-0.546 -3.858,-1.15 -1.057,-0.662 -1.704,-1.602 -1.713,-2.598 0,0 0.163,-5.72 0.147,-5.722 l -14.417,-2.339 c 0.076,-0.26 0.136,-0.458 0.236,-0.589 l 14.846,2.495 c 0.114,0.019 26.873,-3.192 26.873,-3.192 0.032,0.337 0.025,0.271 0.089,0.561 l -21.219,2.51 z m -5.652,-3.543 c -0.021,0.903 0.539,1.674 1.502,2.277 0.963,0.604 1.973,0.903 3.305,1.007 l 0.055,-9.434 -4.671,0.555 z m -94.871,5.519 -0.198,5.234 c -0.008,0.167 -0.213,0.306 -0.46,0.309 -0.247,0.004 -0.442,-0.128 -0.435,-0.295 0,0 0.218,-4.998 0.226,-5.02 -1.423,-0.13 -2.714,-0.556 -3.616,-1.162 -0.992,-0.666 -1.601,-1.608 -1.612,-2.603 0,0 0.133,-5.719 0.118,-5.721 l -13.507,-2.386 c 0.071,-0.259 0.126,-0.457 0.219,-0.587 l 13.91,2.542 c 0.106,0.019 25.151,-3.103 25.151,-3.103 0.031,0.337 0.025,0.272 0.085,0.561 l -19.859,2.439 z m -5.302,-3.561 c -0.018,0.904 0.508,1.675 1.413,2.281 0.903,0.608 1.85,0.911 3.097,1.018 l 0.021,-9.432 -4.372,0.541 z m -298.276,-94.806 0.007,5.959 c 0,0.19 -0.128,0.343 -0.287,0.341 -0.158,-0.002 -0.287,-0.158 -0.286,-0.349 0,0 0.01,-5.69 0.015,-5.714 -0.916,-0.186 -1.755,-0.703 -2.35,-1.418 -0.654,-0.784 -1.069,-1.873 -1.101,-3.007 0,0 -0.063,-6.514 -0.072,-6.518 l -8.728,-3.066 c 0.038,-0.295 0.068,-0.519 0.125,-0.665 l 8.991,3.256 c 0.068,0.025 16.059,-2.888 16.059,-2.888 0.028,0.385 0.022,0.31 0.068,0.642 l -12.68,2.269 z m -3.495,-4.195 c 0.013,1.029 0.371,1.922 0.966,2.636 0.596,0.716 1.211,1.085 2.014,1.24 l -0.23,-10.748 -2.791,0.503 z m 106.808,2.611 -0.057,5.963 c -0.003,0.191 -0.16,0.345 -0.353,0.344 -0.193,0 -0.347,-0.155 -0.345,-0.345 0,0 0.078,-5.694 0.083,-5.718 -1.112,-0.176 -2.127,-0.685 -2.842,-1.392 -0.785,-0.778 -1.277,-1.864 -1.305,-2.997 0,0 -0.002,-6.518 -0.014,-6.521 L 37.023,429.17 c 0.051,-0.295 0.09,-0.519 0.161,-0.665 l 10.893,3.157 c 0.084,0.024 19.556,-3.068 19.556,-3.068 0.031,0.384 0.023,0.31 0.077,0.641 l -15.442,2.411 z m -4.202,-4.158 c 0.004,1.029 0.429,1.919 1.145,2.627 0.716,0.708 1.46,1.072 2.435,1.218 l -0.16,-10.752 -3.399,0.534 z m 103.347,2.643 -0.116,5.966 c -0.004,0.191 -0.189,0.346 -0.412,0.347 -0.223,0.001 -0.4,-0.152 -0.396,-0.342 0,0 0.136,-5.698 0.143,-5.722 -1.289,-0.167 -2.46,-0.667 -3.284,-1.37 -0.904,-0.771 -1.467,-1.852 -1.49,-2.986 0,0 0.052,-6.52 0.037,-6.524 l -12.241,-2.886 c 0.061,-0.295 0.108,-0.52 0.191,-0.666 l 12.608,3.068 c 0.095,0.023 22.703,-3.231 22.703,-3.231 0.032,0.385 0.025,0.31 0.084,0.641 l -17.927,2.54 z m -4.838,-4.126 c -0.004,1.03 0.481,1.916 1.306,2.619 0.824,0.703 1.684,1.06 2.813,1.199 l -0.097,-10.755 -3.947,0.561 z m 406.547,-1.284 -0.327,5.977 c -0.011,0.19 -0.292,0.351 -0.627,0.358 -0.335,0.008 -0.597,-0.142 -0.586,-0.333 0,0 0.351,-5.708 0.361,-5.732 -1.926,-0.134 -3.671,-0.605 -4.887,-1.287 -1.337,-0.749 -2.153,-1.817 -2.158,-2.953 0,0 0.244,-6.53 0.224,-6.533 l -18.282,-2.574 c 0.098,-0.298 0.175,-0.524 0.303,-0.673 l 18.827,2.748 c 0.144,0.02 34.128,-3.82 34.128,-3.82 0.038,0.384 0.03,0.31 0.109,0.639 l -26.948,3.005 z m -7.149,-4.007 c -0.033,1.031 0.672,1.907 1.89,2.59 1.218,0.682 2.498,1.017 4.189,1.127 l 0.131,-10.768 -5.932,0.665 z m -93.696,5.545 -0.262,5.974 c -0.009,0.191 -0.261,0.35 -0.562,0.356 -0.301,0.005 -0.538,-0.146 -0.528,-0.336 0,0 0.286,-5.706 0.295,-5.729 -1.732,-0.144 -3.303,-0.624 -4.4,-1.313 -1.205,-0.755 -1.943,-1.827 -1.954,-2.963 0,0 0.185,-6.527 0.168,-6.53 l -16.443,-2.669 c 0.086,-0.297 0.153,-0.522 0.268,-0.671 l 16.933,2.846 c 0.131,0.021 30.65,-3.642 30.65,-3.642 0.037,0.385 0.029,0.311 0.102,0.64 l -24.201,2.864 z m -6.445,-4.042 c -0.024,1.03 0.614,1.909 1.713,2.599 1.098,0.688 2.25,1.03 3.769,1.149 l 0.062,-10.764 -5.327,0.634 z m -497.137,-94.414 0.082,7.417 c 0.002,0.237 -0.125,0.425 -0.282,0.42 -0.159,-0.005 -0.29,-0.2 -0.292,-0.437 0,0 -0.061,-7.08 -0.056,-7.111 -0.92,-0.242 -1.766,-0.897 -2.369,-1.793 -0.664,-0.985 -1.093,-2.345 -1.141,-3.757 0,0 -0.144,-8.107 -0.153,-8.112 l -8.773,-3.925 c 0.035,-0.367 0.062,-0.645 0.117,-0.825 l 9.037,4.164 c 0.07,0.032 16.034,-3.39 16.034,-3.39 0.033,0.478 0.026,0.385 0.077,0.799 l -12.661,2.663 z m -3.55,-5.264 c 0.025,1.281 0.395,2.396 1,3.294 0.605,0.897 1.225,1.364 2.031,1.568 l -0.366,-13.378 -2.786,0.59 z m 307.331,106.763 -0.161,5.969 c -0.005,0.191 -0.21,0.347 -0.457,0.349 -0.247,0.003 -0.443,-0.149 -0.437,-0.34 0,0 0.182,-5.7 0.189,-5.724 -1.424,-0.16 -2.719,-0.654 -3.625,-1.352 -0.997,-0.766 -1.613,-1.845 -1.632,-2.98 0,0 0.092,-6.522 0.077,-6.525 l -13.529,-2.82 c 0.068,-0.296 0.122,-0.52 0.215,-0.668 l 13.933,3 c 0.106,0.023 25.138,-3.356 25.138,-3.356 0.034,0.384 0.026,0.31 0.089,0.641 l -19.85,2.638 z m -5.33,-4.1 c -0.011,1.03 0.521,1.914 1.43,2.613 0.908,0.699 1.857,1.051 3.106,1.184 l -0.047,-10.759 -4.37,0.585 z m 105.876,2.576 -0.192,5.97 c -0.008,0.191 -0.227,0.348 -0.49,0.351 -0.264,0.004 -0.473,-0.148 -0.466,-0.338 0,0 0.214,-5.702 0.222,-5.726 -1.52,-0.155 -2.901,-0.645 -3.868,-1.339 -1.061,-0.764 -1.715,-1.841 -1.731,-2.976 0,0 0.121,-6.523 0.105,-6.526 l -14.439,-2.772 c 0.074,-0.297 0.132,-0.522 0.231,-0.669 l 14.87,2.951 c 0.114,0.023 26.86,-3.445 26.86,-3.445 0.034,0.384 0.026,0.31 0.093,0.64 l -21.209,2.709 z m -5.679,-4.082 c -0.015,1.03 0.551,1.912 1.519,2.608 0.967,0.696 1.98,1.044 3.313,1.173 l -0.013,-10.76 -4.67,0.599 z M 52.22,338.29 l 0.018,7.42 c 10e-4,0.237 -0.156,0.426 -0.349,0.423 -0.192,-0.003 -0.348,-0.196 -0.349,-0.433 0,0 0.006,-7.085 0.011,-7.115 -1.115,-0.233 -2.136,-0.879 -2.861,-1.769 -0.796,-0.976 -1.302,-2.334 -1.344,-3.746 0,0 -0.085,-8.109 -0.096,-8.114 l -10.622,-3.83 c 0.047,-0.367 0.083,-0.646 0.152,-0.826 l 10.941,4.066 c 0.083,0.031 19.529,-3.572 19.529,-3.572 0.035,0.479 0.028,0.386 0.085,0.799 l -15.421,2.805 z m -4.256,-5.228 c 0.016,1.282 0.453,2.394 1.178,3.284 0.726,0.891 1.475,1.352 2.452,1.547 l -0.295,-13.382 -3.395,0.622 z m 103.447,4.589 -0.041,7.422 c -0.002,0.238 -0.184,0.428 -0.407,0.427 -0.224,-10e-4 -0.403,-0.194 -0.402,-0.431 0,0 0.065,-7.087 0.071,-7.118 -1.29,-0.224 -2.47,-0.862 -3.303,-1.746 -0.914,-0.971 -1.491,-2.324 -1.528,-3.736 0,0 -0.032,-8.112 -0.045,-8.117 l -12.286,-3.744 c 0.057,-0.368 0.101,-0.647 0.182,-0.829 l 12.655,3.978 c 0.097,0.03 22.678,-3.734 22.678,-3.734 0.036,0.479 0.029,0.386 0.092,0.798 l -17.908,2.935 z m -4.894,-5.196 c 0.009,1.282 0.506,2.391 1.34,3.276 0.834,0.885 1.699,1.341 2.83,1.527 l -0.232,-13.385 -3.942,0.65 z m 406.796,3.523 -0.251,7.434 c -0.01,0.237 -0.289,0.433 -0.624,0.437 -0.335,0.005 -0.599,-0.184 -0.59,-0.421 0,0 0.279,-7.099 0.29,-7.129 -1.93,-0.19 -3.682,-0.799 -4.909,-1.662 -1.346,-0.949 -2.176,-2.289 -2.195,-3.703 0,0 0.162,-8.122 0.142,-8.126 l -18.327,-3.433 c 0.095,-0.369 0.169,-0.65 0.295,-0.835 l 18.873,3.658 c 0.145,0.028 34.103,-4.324 34.103,-4.324 0.043,0.478 0.033,0.386 0.117,0.797 l -26.927,3.4 z m -7.204,-5.076 c -0.02,1.283 0.696,2.382 1.925,3.246 1.227,0.865 2.512,1.298 4.204,1.456 l -0.003,-13.397 -5.928,0.753 z m -93.687,5.721 -0.187,7.431 c -0.008,0.237 -0.257,0.432 -0.558,0.435 -0.301,0.002 -0.539,-0.188 -0.533,-0.425 0,0 0.214,-7.095 0.223,-7.126 -1.735,-0.2 -3.313,-0.817 -4.419,-1.688 -1.215,-0.956 -1.968,-2.299 -1.992,-3.713 0,0 0.103,-8.119 0.085,-8.123 l -16.488,-3.528 c 0.083,-0.369 0.147,-0.649 0.261,-0.832 l 16.98,3.755 c 0.13,0.028 30.623,-4.145 30.623,-4.145 0.042,0.479 0.033,0.387 0.11,0.798 l -24.181,3.258 z m -6.501,-5.112 c -0.012,1.283 0.639,2.384 1.747,3.256 1.107,0.871 2.264,1.31 3.785,1.477 l -0.072,-13.393 -5.323,0.721 z m -92.799,5.752 -0.118,7.426 c -0.004,0.238 -0.222,0.431 -0.486,0.432 -0.264,0.001 -0.474,-0.191 -0.47,-0.428 0,0 0.143,-7.092 0.151,-7.121 -1.524,-0.212 -2.911,-0.839 -3.887,-1.717 -1.073,-0.962 -1.741,-2.311 -1.771,-3.724 0,0 0.039,-8.116 0.023,-8.119 L 332.08,320.38 c 0.071,-0.368 0.126,-0.648 0.224,-0.83 l 14.916,3.861 c 0.114,0.029 26.835,-3.949 26.835,-3.949 0.039,0.479 0.029,0.386 0.101,0.798 l -21.189,3.104 z m -5.734,-5.151 c -0.002,1.282 0.575,2.387 1.552,3.265 0.976,0.878 1.995,1.324 3.33,1.5 l -0.149,-13.389 -4.664,0.688 z m -94.859,5.78 -0.085,7.425 c -0.003,0.238 -0.207,0.43 -0.454,0.43 -0.247,0 -0.445,-0.192 -0.442,-0.43 0,0 0.111,-7.09 0.118,-7.119 -1.427,-0.217 -2.728,-0.848 -3.645,-1.729 -1.006,-0.966 -1.637,-2.316 -1.671,-3.729 0,0 0.01,-8.114 -0.004,-8.119 l -13.574,-3.678 c 0.065,-0.368 0.116,-0.648 0.207,-0.829 l 13.98,3.909 c 0.107,0.03 25.112,-3.859 25.112,-3.859 0.038,0.478 0.029,0.386 0.097,0.798 l -19.829,3.033 z m -5.386,-5.168 c 0.003,1.281 0.547,2.388 1.465,3.268 0.917,0.882 1.872,1.331 3.123,1.512 l -0.184,-13.387 -4.364,0.671 z m -298.818,-398.521 0.243,10.506 c 0.006,0.335 -0.117,0.6 -0.276,0.589 -0.158,-0.01 -0.293,-0.289 -0.3,-0.625 0,0 -0.213,-10.03 -0.209,-10.072 -0.926,-0.364 -1.787,-1.31 -2.411,-2.592 -0.686,-1.408 -1.144,-3.344 -1.223,-5.344 0,0 -0.317,-11.485 -0.327,-11.491 l -8.867,-5.749 c 0.027,-0.517 0.048,-0.911 0.099,-1.165 l 9.138,6.092 c 0.069,0.046 15.978,-4.459 15.978,-4.459 0.044,0.679 0.034,0.548 0.094,1.134 l -12.617,3.5 z m -3.667,-7.531 c 0.053,1.814 0.447,3.403 1.072,4.686 0.625,1.284 1.256,1.958 2.067,2.265 l -0.654,-18.955 -2.777,0.776 z m 107.121,6.766 0.178,10.509 c 0.004,0.336 -0.148,0.6 -0.341,0.592 -0.193,-0.008 -0.353,-0.287 -0.359,-0.621 0,0 -0.147,-10.034 -0.142,-10.076 -1.121,-0.354 -2.158,-1.291 -2.902,-2.567 -0.817,-1.401 -1.354,-3.333 -1.426,-5.334 0,0 -0.259,-11.487 -0.271,-11.493 l -10.715,-5.653 c 0.038,-0.519 0.069,-0.913 0.133,-1.168 l 11.04,5.995 c 0.086,0.044 19.475,-4.64 19.475,-4.64 0.046,0.679 0.036,0.547 0.102,1.133 l -15.377,3.643 z m -4.374,-7.496 c 0.044,1.815 0.505,3.4 1.251,4.678 0.744,1.277 1.504,1.945 2.487,2.242 l -0.583,-18.958 -3.386,0.808 z m -98.872,209.16 0.179,9.287 c 0.006,0.296 -0.119,0.531 -0.277,0.523 -0.159,-0.008 -0.292,-0.255 -0.297,-0.551 0,0 -0.153,-8.867 -0.149,-8.905 -0.923,-0.315 -1.778,-1.147 -2.395,-2.277 -0.677,-1.241 -1.124,-2.949 -1.189,-4.718 0,0 -0.25,-10.151 -0.259,-10.157 l -8.831,-5.03 c 0.03,-0.458 0.054,-0.806 0.107,-1.031 l 9.098,5.332 c 0.069,0.04 16,-4.038 16,-4.038 0.04,0.6 0.031,0.484 0.087,1.002 l -12.634,3.17 z m -3.62,-6.637 c 0.041,1.603 0.426,3.006 1.043,4.137 0.617,1.13 1.244,1.723 2.053,1.989 l -0.54,-16.754 -2.781,0.702 z m 307.372,-194.56 0.075,10.515 c 10e-4,0.336 -0.198,0.604 -0.446,0.599 -0.247,-0.006 -0.449,-0.283 -0.451,-0.619 0,0 -0.042,-10.038 -0.035,-10.081 -1.433,-0.337 -2.75,-1.26 -3.687,-2.525 -1.028,-1.39 -1.688,-3.316 -1.752,-5.318 0,0 -0.164,-11.491 -0.179,-11.497 l -13.668,-5.502 c 0.057,-0.519 0.101,-0.914 0.189,-1.17 l 14.079,5.837 c 0.108,0.044 25.058,-4.926 25.058,-4.926 0.048,0.677 0.038,0.547 0.114,1.132 l -19.786,3.87 z m -5.502,-7.436 c 0.029,1.816 0.598,3.395 1.536,4.662 0.937,1.267 1.903,1.925 3.159,2.208 l -0.472,-18.964 -4.356,0.858 z m 205.589,6.922 -0.029,10.52 c -0.002,0.335 -0.247,0.606 -0.548,0.604 -0.302,-0.004 -0.545,-0.278 -0.543,-0.613 0,0 0.062,-10.044 0.07,-10.087 -1.741,-0.322 -3.334,-1.23 -4.461,-2.486 -1.236,-1.38 -2.018,-3.299 -2.074,-5.3 0,0 -0.07,-11.498 -0.088,-11.504 l -16.582,-5.351 c 0.075,-0.519 0.134,-0.915 0.242,-1.172 l 17.08,5.682 c 0.131,0.043 30.569,-5.211 30.569,-5.211 0.051,0.678 0.04,0.547 0.127,1.132 l -24.138,4.094 z m -6.618,-7.379 c 0.016,1.816 0.69,3.39 1.818,4.648 1.128,1.258 2.296,1.904 3.822,2.173 l -0.36,-18.969 -5.315,0.907 z m -294.691,7.636 0.119,10.513 c 0.003,0.335 -0.175,0.602 -0.399,0.595 -0.223,-0.007 -0.407,-0.284 -0.411,-0.62 0,0 -0.087,-10.036 -0.081,-10.078 -1.298,-0.344 -2.492,-1.273 -3.345,-2.543 -0.937,-1.396 -1.543,-3.324 -1.61,-5.325 0,0 -0.206,-11.491 -0.219,-11.496 l -12.381,-5.568 c 0.049,-0.519 0.088,-0.914 0.166,-1.168 l 12.753,5.905 c 0.098,0.044 22.623,-4.802 22.623,-4.802 0.047,0.679 0.037,0.547 0.109,1.133 l -17.863,3.771 z m -5.01,-7.462 c 0.036,1.816 0.557,3.397 1.411,4.668 0.855,1.273 1.73,1.934 2.866,2.223 l -0.519,-18.961 -3.933,0.837 z m 407.308,7.454 -0.093,10.522 c -0.004,0.337 -0.279,0.608 -0.614,0.608 -0.335,-0.001 -0.604,-0.274 -0.6,-0.61 0,0 0.127,-10.048 0.137,-10.091 -1.937,-0.311 -3.704,-1.21 -4.949,-2.46 -1.369,-1.372 -2.228,-3.288 -2.278,-5.29 0,0 -0.012,-11.5 -0.032,-11.506 l -18.421,-5.256 c 0.087,-0.52 0.155,-0.917 0.278,-1.174 l 18.972,5.584 c 0.145,0.043 34.048,-5.391 34.048,-5.391 0.053,0.678 0.041,0.548 0.134,1.132 l -26.884,4.236 z m -7.321,-7.343 c 0.007,1.816 0.748,3.387 1.996,4.638 1.248,1.252 2.543,1.892 4.24,2.152 l -0.29,-18.972 -5.919,0.938 z m -193.03,107.759 0.006,9.787 c -0.001,0.313 -0.216,0.563 -0.481,0.56 -0.263,-0.003 -0.477,-0.259 -0.476,-0.571 0,0 0.025,-9.345 0.033,-9.385 -1.528,-0.304 -2.927,-1.153 -3.918,-2.325 -1.09,-1.287 -1.78,-3.075 -1.834,-4.937 0,0 -0.094,-10.697 -0.11,-10.703 l -14.556,-5.024 c 0.065,-0.483 0.116,-0.852 0.21,-1.091 l 14.993,5.334 c 0.115,0.04 26.792,-4.764 26.792,-4.764 0.047,0.631 0.037,0.51 0.114,1.053 l -21.156,3.743 z m -5.823,-6.884 c 0.019,1.69 0.615,3.156 1.608,4.329 0.992,1.173 2.018,1.778 3.357,2.033 l -0.369,-17.65 -4.656,0.829 z m -94.844,6.066 0.037,9.785 c 0.001,0.313 -0.2,0.563 -0.447,0.558 -0.248,-0.004 -0.449,-0.26 -0.449,-0.572 0,0 -0.006,-9.344 0.001,-9.383 -1.432,-0.309 -2.745,-1.163 -3.677,-2.338 -1.024,-1.29 -1.677,-3.08 -1.733,-4.943 0,0 -0.124,-10.695 -0.138,-10.701 l -13.646,-5.071 c 0.06,-0.483 0.105,-0.851 0.193,-1.09 l 14.056,5.383 c 0.108,0.04 25.07,-4.676 25.07,-4.676 0.046,0.632 0.037,0.51 0.111,1.054 l -19.796,3.672 z m -5.475,-6.903 c 0.024,1.69 0.586,3.158 1.519,4.334 0.933,1.177 1.896,1.784 3.152,2.044 l -0.404,-17.649 -4.358,0.814 z m 106.108,-93.164 0.041,10.516 c 10e-4,0.336 -0.213,0.604 -0.477,0.6 -0.264,-0.005 -0.479,-0.28 -0.48,-0.616 0,0 -0.009,-10.04 -0.002,-10.083 -1.53,-0.333 -2.933,-1.25 -3.928,-2.513 -1.094,-1.387 -1.792,-3.311 -1.853,-5.312 0,0 -0.136,-11.494 -0.151,-11.5 l -14.578,-5.455 c 0.063,-0.519 0.112,-0.914 0.206,-1.17 l 15.016,5.789 c 0.115,0.043 26.779,-5.017 26.779,-5.017 0.049,0.679 0.039,0.547 0.118,1.132 l -21.145,3.941 z m -5.852,-7.419 c 0.027,1.816 0.628,3.394 1.625,4.658 0.997,1.265 2.025,1.918 3.366,2.197 l -0.437,-18.966 -4.655,0.874 z M -51.55,34.866 l 0.204,9.777 c 0.005,0.312 -0.118,0.557 -0.277,0.55 -0.159,-0.009 -0.292,-0.27 -0.298,-0.582 0,0 -0.177,-9.334 -0.174,-9.374 -0.923,-0.335 -1.781,-1.211 -2.4,-2.403 -0.681,-1.308 -1.133,-3.108 -1.203,-4.97 0,0 -0.278,-10.687 -0.287,-10.694 l -8.845,-5.318 c 0.029,-0.482 0.051,-0.849 0.104,-1.085 l 9.113,5.637 c 0.071,0.043 15.991,-4.207 15.991,-4.207 0.042,0.632 0.033,0.51 0.091,1.055 l -12.627,3.302 z m -3.64,-6.997 c 0.047,1.688 0.435,3.165 1.054,4.357 0.621,1.193 1.249,1.819 2.059,2.1 l -0.585,-17.638 -2.78,0.732 z m 107.072,6.782 0.14,9.781 c 0.004,0.312 -0.15,0.56 -0.343,0.552 -0.193,-0.006 -0.352,-0.264 -0.356,-0.577 0,0 -0.111,-9.338 -0.106,-9.377 -1.12,-0.326 -2.152,-1.193 -2.893,-2.378 -0.812,-1.302 -1.342,-3.098 -1.406,-4.96 0,0 -0.219,-10.69 -0.23,-10.697 L 35.994,11.772 c 0.041,-0.482 0.073,-0.849 0.139,-1.086 l 11.017,5.538 c 0.084,0.042 19.487,-4.387 19.487,-4.387 0.043,0.632 0.034,0.51 0.097,1.054 l -15.387,3.446 z m -4.347,-6.96 c 0.038,1.69 0.493,3.162 1.234,4.349 0.741,1.186 1.498,1.805 2.479,2.078 l -0.515,-17.643 -3.387,0.764 z m 404.849,7.147 -0.065,9.791 c -0.004,0.313 -0.25,0.565 -0.552,0.565 -0.301,-0.002 -0.542,-0.257 -0.54,-0.569 0,0 0.098,-9.349 0.106,-9.388 -1.739,-0.294 -3.329,-1.133 -4.45,-2.299 -1.232,-1.279 -2.007,-3.063 -2.055,-4.926 0,0 -0.03,-10.699 -0.048,-10.705 l -16.56,-4.921 c 0.077,-0.484 0.138,-0.853 0.248,-1.093 l 17.056,5.229 c 0.13,0.039 30.581,-4.96 30.581,-4.96 0.05,0.631 0.039,0.509 0.124,1.053 l -24.149,3.897 z m -6.59,-6.844 c 0.01,1.69 0.679,3.152 1.802,4.319 1.122,1.167 2.287,1.764 3.814,2.01 l -0.293,-17.654 -5.316,0.863 z m 107.557,6.647 -0.13,9.795 c -0.006,0.312 -0.282,0.567 -0.618,0.567 -0.335,0 -0.602,-0.253 -0.597,-0.566 0,0 0.163,-9.351 0.173,-9.392 -1.935,-0.282 -3.698,-1.113 -4.939,-2.272 -1.364,-1.273 -2.216,-3.052 -2.259,-4.916 0,0 0.03,-10.703 0.009,-10.708 l -18.398,-4.826 c 0.088,-0.485 0.157,-0.854 0.281,-1.095 l 18.949,5.13 c 0.146,0.039 34.061,-5.138 34.061,-5.138 0.051,0.631 0.039,0.508 0.13,1.052 l -26.894,4.039 z m -7.295,-6.807 c 10e-4,1.69 0.736,3.149 1.981,4.309 1.242,1.161 2.535,1.752 4.231,1.988 l -0.223,-17.658 -5.92,0.895 z m -394.912,8.593 0.082,9.783 c 0.002,0.313 -0.178,0.562 -0.401,0.556 -0.224,-0.004 -0.408,-0.263 -0.409,-0.574 0,0 -0.053,-9.342 -0.046,-9.381 -1.296,-0.316 -2.487,-1.176 -3.335,-2.355 -0.931,-1.295 -1.531,-3.088 -1.59,-4.95 0,0 -0.165,-10.694 -0.178,-10.699 l -12.358,-5.138 c 0.051,-0.483 0.09,-0.851 0.168,-1.088 l 12.731,5.45 c 0.098,0.041 22.636,-4.549 22.636,-4.549 0.045,0.631 0.035,0.509 0.105,1.054 l -17.874,3.573 z M 146.162,29.5 c 0.029,1.689 0.545,3.159 1.395,4.34 0.848,1.181 1.721,1.793 2.856,2.058 l -0.452,-17.645 -3.934,0.792 z"
     style="fill:#212639"
     id="path62" />
  <path
     d="m 336.908,315.051 1.849,0.251 -1.525,6.86 -1.849,-0.251 z m 28.368,0.331 1.867,-0.22 0.988,6.647 -1.866,0.22 z m 68.82,-0.857 2.107,0.237 -1.789,6.875 -2.107,-0.238 z m 32.343,0.127 2.13,-0.233 1.079,6.642 -2.13,0.233 z m 66.61,-0.669 2.343,0.226 -2.03,6.887 -2.343,-0.226 z m 35.99,-0.062 2.372,-0.246 1.162,6.638 -2.371,0.245 z m -431.526,1.39 1.567,0.266 -1.236,6.845 -1.567,-0.265 z m 24.011,0.557 1.578,-0.205 0.889,6.652 -1.578,0.205 z m -121.447,-0.018 1.353,0.276 -1.017,6.835 -1.353,-0.277 z m 20.709,0.727 1.359,-0.194 0.815,6.656 -1.36,0.193 z m -122.122,-0.171 1.117,0.289 -0.775,6.821 -1.116,-0.289 z m 17.044,0.916 1.116,-0.181 0.731,6.66 -1.117,0.181 z m 281.913,105.409 1.729,0.189 -1.475,5.524 -1.728,-0.189 z m 26.546,0.072 1.748,-0.189 0.88,5.334 -1.748,0.189 z m 73.042,-1.546 1.845,0.183 -1.593,5.53 -1.846,-0.183 z m 28.35,-0.02 1.868,-0.195 0.92,5.332 -1.867,0.195 z m 68.792,-1.387 2.103,0.17 -1.858,5.544 -2.103,-0.17 z m 32.325,-0.225 2.131,-0.209 1.011,5.328 -2.13,0.209 z m 66.581,-1.211 2.34,0.157 -2.099,5.556 -2.339,-0.158 z m 35.972,-0.415 2.373,-0.221 1.094,5.323 -2.373,0.222 z m -431.314,5.488 1.564,0.198 -1.305,5.514 -1.564,-0.197 z m 23.992,0.204 1.579,-0.181 0.822,5.337 -1.579,0.181 z m -100.692,1.59 1.361,-0.17 0.746,5.341 -1.36,0.169 z m -20.691,-0.375 1.35,0.208 -1.086,5.504 -1.35,-0.209 z m -101.365,1.473 1.112,0.221 -0.843,5.491 -1.112,-0.221 z m 17.025,0.564 1.118,-0.157 0.663,5.346 -1.118,0.157 z m 281.611,100.366 1.727,0.155 -1.508,4.852 -1.727,-0.155 z m 26.538,-0.105 1.749,-0.177 0.845,4.672 -1.749,0.177 z m 101.368,-2.019 1.868,-0.183 0.887,4.669 -1.868,0.183 z m -28.342,0.198 1.844,0.149 -1.628,4.858 -1.844,-0.149 z m -380.935,7.409 1.119,-0.144 0.629,4.682 -1.119,0.144 z m -17.016,-0.386 1.11,0.186 -0.877,4.819 -1.111,-0.186 z m 122.023,-1.74 1.361,-0.157 0.712,4.678 -1.361,0.157 z m -20.682,-0.197 1.348,0.174 -1.121,4.832 -1.347,-0.174 z m 121.352,-1.837 1.58,-0.169 0.787,4.674 -1.58,0.169 z m -23.984,-0.027 1.561,0.163 -1.339,4.843 -1.562,-0.163 z m 431.208,-7.553 2.373,-0.209 1.06,4.66 -2.373,0.209 z m -35.963,0.591 2.338,0.123 -2.134,4.885 -2.337,-0.124 z m -66.568,1.486 2.132,-0.197 0.977,4.665 -2.132,0.197 z m -32.316,0.403 2.102,0.136 -1.892,4.871 -2.101,-0.135 z m -98.06,-519.039 1.855,0.361 -1.414,9.018 -1.855,-0.361 z m 28.398,0.903 1.865,-0.259 1.098,8.778 -1.864,0.259 z m 68.864,-0.001 2.112,0.348 -1.677,9.032 -2.113,-0.348 z m 32.372,0.698 2.128,-0.273 1.189,8.772 -2.128,0.273 z m 66.656,-0.789 2.349,0.336 -1.919,9.044 -2.349,-0.336 z m 36.02,0.51 2.369,-0.285 1.272,8.768 -2.369,0.285 z m -431.861,0.912 1.573,0.376 -1.125,9.003 -1.573,-0.376 z m 24.04,1.127 1.576,-0.244 1,8.783 -1.577,0.244 z M 39.357,4.835 40.716,5.222 39.81,14.214 38.451,13.827 Z m 20.739,1.299 1.357,-0.233 0.924,8.787 -1.357,0.232 z m -122.228,-1.228 1.121,0.399 -0.663,8.979 -1.121,-0.399 z m 17.073,1.486 1.114,-0.22 0.841,8.791 -1.115,0.22 z m 308.196,-103.207 1.744,-0.264 1.091,9.437 -1.744,0.264 z m -26.602,-1.173 1.74,0.402 -1.26,9.677 -1.74,-0.401 z m 99.731,-0.676 1.856,0.395 -1.379,9.684 -1.857,-0.395 z m 28.407,1.079 1.863,-0.271 1.133,9.436 -1.864,0.271 z m 68.877,-0.737 2.114,0.382 -1.643,9.698 -2.114,-0.382 z m 32.382,0.875 2.127,-0.285 1.223,9.43 -2.127,0.285 z m 66.669,-0.518 2.35,0.37 -1.884,9.71 -2.35,-0.37 z m 36.029,0.687 2.369,-0.297 1.306,9.426 -2.369,0.297 z m -431.961,-1.052 1.574,0.41 -1.091,9.669 -1.574,-0.41 z m 24.049,1.304 1.575,-0.256 1.034,9.439 -1.576,0.256 z m -121.583,-1.634 1.361,0.421 -0.872,9.658 -1.361,-0.421 z m 20.749,1.474 1.356,-0.244 0.958,9.444 -1.356,0.244 z m -122.261,-0.864 1.123,0.433 -0.628,9.645 -1.124,-0.433 z m 17.082,1.664 1.114,-0.232 0.874,9.448 -1.114,0.232 z m 282.57,412.014 1.732,0.257 -1.405,6.855 -1.732,-0.257 z m 26.564,0.425 1.747,-0.214 0.947,6.65 -1.747,0.213 z m -26.801,-104.086 1.735,0.303 -1.359,7.763 -1.734,-0.303 z m 26.577,0.666 1.746,-0.23 0.993,7.545 -1.746,0.23 z m 73.088,-0.633 1.853,0.298 -1.479,7.769 -1.852,-0.298 z m 28.381,0.573 1.867,-0.236 1.034,7.544 -1.866,0.236 z m 68.839,-0.497 2.109,0.284 -1.742,7.784 -2.109,-0.285 z m 32.355,0.368 2.13,-0.25 1.125,7.539 -2.129,0.25 z m 66.629,-0.298 2.345,0.272 -1.983,7.796 -2.346,-0.272 z m 36.003,0.179 2.37,-0.262 1.209,7.535 -2.371,0.262 z m -431.671,-1.407 1.569,0.313 -1.189,7.753 -1.569,-0.312 z m 24.023,0.797 1.577,-0.221 0.935,7.55 -1.576,0.221 z m -121.49,-0.859 1.356,0.323 -0.971,7.743 -1.356,-0.323 z m 20.721,0.967 1.358,-0.209 0.861,7.553 -1.358,0.21 z m -122.166,-1.038 1.118,0.336 -0.728,7.73 -1.118,-0.336 z m 17.055,1.158 1.116,-0.198 0.777,7.558 -1.116,0.197 z m 281.446,-104.457 1.738,0.344 -1.318,8.564 -1.737,-0.345 z m 26.588,0.878 1.745,-0.245 1.034,8.337 -1.745,0.245 z m 73.104,-0.305 1.855,0.339 -1.437,8.57 -1.855,-0.339 z m 28.393,0.785 1.865,-0.251 1.076,8.335 -1.866,0.251 z m 68.854,-0.178 2.111,0.325 -1.7,8.583 -2.111,-0.325 z m 32.367,0.579 2.128,-0.264 1.167,8.331 -2.129,0.264 z m 66.645,-1.971 2.347,0.313 -1.942,8.596 -2.347,-0.313 z m 36.014,0.391 2.37,-0.276 1.249,8.326 -2.37,0.277 z m -431.792,-0.769 1.572,0.353 -1.148,8.556 -1.572,-0.354 z m 24.034,1.01 1.576,-0.236 0.977,8.341 -1.577,0.235 z m -121.529,-1.602 1.358,0.364 -0.929,8.544 -1.358,-0.364 z m 20.733,1.179 1.357,-0.224 0.902,8.344 -1.358,0.224 z m -122.207,-0.802 1.121,0.376 -0.686,8.532 -1.121,-0.376 z m 17.067,1.37 1.115,-0.212 0.818,8.348 -1.115,0.212 z M 236.71,3.618 l 1.739,0.368 -1.294,9.011 -1.739,-0.367 z m 26.593,0.996 1.745,-0.253 1.057,8.78 -1.745,0.252 z"
     style="fill:#77a2b6"
     id="path64" />
  <circle
     style="fill:#dff2ee"
     cx="683.99652"
     cy="217.80084"
     r="1.423"
     id="circle66" />
  <ellipse
     style="fill:#dff2ee;stroke-width:0.273194"
     transform="matrix(0.9999946,-0.00328724,-0.00350635,0.99999385,0,0)"
     cx="348.84769"
     cy="218.94563"
     id="circle68"
     rx="1.5202045"
     ry="1.4236736" />
  <ellipse
     style="fill:#dff2ee;stroke-width:0.29179"
     transform="matrix(0.99995741,-0.00922964,-0.01122505,0.999937,0,0)"
     cx="449.36078"
     cy="221.9539"
     id="circle70"
     rx="1.7334193"
     ry="1.42432" />
  <ellipse
     style="fill:#dff2ee;stroke-width:0.307893"
     transform="matrix(0.99990854,-0.01352446,-0.01830156,0.99983251,0,0)"
     cx="551.43256"
     cy="225.28435"
     id="circle72"
     rx="1.9291213"
     ry="1.4249913" />
  <ellipse
     style="fill:#dff2ee;stroke-width:0.251265"
     transform="matrix(0.99998492,0.00549171,0.00496475,0.99998768,0,0)"
     cx="145.84137"
     cy="216.00423"
     id="circle74"
     rx="1.2865068"
     ry="1.4230577" />
  <ellipse
     style="fill:#dff2ee;stroke-width:0.233314"
     transform="matrix(0.99989336,0.01460354,0.01138952,0.99993514,0,0)"
     cx="45.698154"
     cy="216.15341"
     id="circle76"
     rx="1.1095576"
     ry="1.4226639" />
  <ellipse
     style="fill:#dff2ee;stroke-width:0.211637"
     transform="matrix(0.99958383,0.0288473,0.01852179,0.99982846,0,0)"
     cx="-58.79493"
     cy="218.54402"
     id="circle78"
     rx="0.91320223"
     ry="1.4222933" />
  <ellipse
     style="fill:#dff2ee;stroke-width:0.277789"
     transform="matrix(0.9999856,0.00536677,0.00486893,0.99998815,0,0)"
     cx="246.98703"
     cy="112.65952"
     id="circle80"
     rx="1.4238199"
     ry="1.5716147" />
  <ellipse
     style="fill:#dff2ee;stroke-width:0.287096"
     transform="matrix(0.99999848,0.00174236,0.00168897,0.99999857,0,0)"
     cx="347.73798"
     cy="113.91505"
     id="circle82"
     rx="1.5205971"
     ry="1.5718515" />
  <ellipse
     style="fill:#dff2ee;stroke-width:0.306617"
     transform="matrix(0.9999884,-0.00481736,-0.00530472,0.99998593,0,0)"
     cx="447.35553"
     cy="117.203"
     id="circle84"
     rx="1.7337587"
     ry="1.5724422" />
  <ellipse
     style="fill:#dff2ee;stroke-width:0.323519"
     transform="matrix(0.99995431,-0.0095591,-0.01171791,0.99993134,0,0)"
     cx="548.5835"
     cy="118.8338"
     id="circle86"
     rx="1.9294314"
     ry="1.5730504" />
  <ellipse
     style="fill:#dff2ee;stroke-width:0.264075"
     transform="matrix(0.99993466,0.01143141,0.00936284,0.99995617,0,0)"
     cx="145.66977"
     cy="111.78539"
     id="circle88"
     rx="1.2869645"
     ry="1.5712988" />
  <ellipse
     style="fill:#dff2ee;stroke-width:0.245229"
     transform="matrix(0.99976928,0.02148007,0.01518213,0.99988474,0,0)"
     cx="46.234322"
     cy="111.93826"
     id="circle90"
     rx="1.1100885"
     ry="1.5709372" />
  <ellipse
     style="fill:#dff2ee;stroke-width:0.222477"
     transform="matrix(0.99930805,0.0371943,0.02164147,0.9997658,0,0)"
     cx="-57.522678"
     cy="115.53742"
     id="circle92"
     rx="0.91385299"
     ry="1.5706016" />
  <ellipse
     style="fill:#dff2ee;stroke-width:0.285043"
     transform="matrix(0.99996499,0.00836827,0.00720937,0.99997401,0,0)"
     cx="247.38135"
     cy="8.4171114"
     id="circle94"
     rx="1.4240701"
     ry="1.654482" />
  <ellipse
     style="fill:#dff2ee;stroke-width:0.294589"
     transform="matrix(0.99998965,0.00454996,0.00418834,0.99999123,0,0)"
     cx="347.80954"
     cy="9.7428799"
     id="circle96"
     rx="1.5208313"
     ry="1.654712" />
  <ellipse
     style="fill:#dff2ee;stroke-width:0.314607"
     transform="matrix(0.99999724,-0.00235094,-0.0024562,0.99999698,0,0)"
     cx="446.69449"
     cy="13.197564"
     id="circle98"
     rx="1.7339641"
     ry="1.655268" />
  <ellipse
     style="fill:#dff2ee;stroke-width:0.33194"
     transform="matrix(0.99997302,-0.00734515,-0.00854981,0.99996345,0,0)"
     cx="547.26532"
     cy="16.003828"
     id="circle100"
     rx="1.9296161"
     ry="1.6558458" />
  <ellipse
     style="fill:#dff2ee;stroke-width:0.270979"
     transform="matrix(0.99989127,0.01474636,0.01147849,0.99993412,0,0)"
     cx="146.47672"
     cy="11.486473"
     id="circle102"
     rx="1.2872412"
     ry="1.6541818" />
  <ellipse
     style="fill:#dff2ee;stroke-width:0.251654"
     transform="matrix(0.99967929,0.02532442,0.01700636,0.99985538,0,0)"
     cx="47.628265"
     cy="10.618526"
     id="circle104"
     rx="1.1104093"
     ry="1.6538435" />
  <ellipse
     style="fill:#dff2ee;stroke-width:0.228323"
     transform="matrix(0.99912369,0.04185521,0.02314196,0.99973219,0,0)"
     cx="-55.507397"
     cy="14.294021"
     id="circle106"
     rx="0.91424263"
     ry="1.6535249" />
  <ellipse
     style="fill:#dff2ee;stroke-width:0.295511"
     transform="matrix(0.99991773,0.01282678,0.01028391,0.99994712,0,0)"
     cx="248.27081"
     cy="-93.75544"
     id="circle108"
     rx="1.4244659"
     ry="1.7777364" />
  <ellipse
     style="fill:#dff2ee;stroke-width:0.305398"
     transform="matrix(0.9999619,0.00872958,0.007475,0.99997206,0,0)"
     cx="348.44086"
     cy="-94.323166"
     id="circle110"
     rx="1.5211967"
     ry="1.7779505" />
  <ellipse
     style="fill:#dff2ee;stroke-width:0.326135"
     transform="matrix(0.99999914,0.00131342,0.00128685,0.99999917,0,0)"
     cx="446.6778"
     cy="-91.603447"
     id="circle112"
     rx="1.7342893"
     ry="1.7784678" />
  <ellipse
     style="fill:#dff2ee;stroke-width:0.344089"
     transform="matrix(0.9999918,-0.00404871,-0.0043861,0.99999038,0,0)"
     cx="546.65179"
     cy="-88.520264"
     id="circle114"
     rx="1.9299084"
     ry="1.7790004" />
  <ellipse
     style="fill:#dff2ee;stroke-width:0.280943"
     transform="matrix(0.99980633,0.01968022,0.01426037,0.99989832,0,0)"
     cx="147.78862"
     cy="-93.774757"
     id="circle116"
     rx="1.2876791"
     ry="1.777457" />
  <ellipse
     style="fill:#dff2ee;stroke-width:0.260925"
     transform="matrix(0.99951837,0.03103272,0.01940202,0.99981176,0,0)"
     cx="49.422264"
     cy="-92.672058"
     id="circle118"
     rx="1.1109167"
     ry="1.7771423" />
  <ellipse
     style="fill:#dff2ee;stroke-width:0.236763"
     transform="matrix(0.99880989,0.04877297,0.02511508,0.99968457,0,0)"
     cx="-53.201435"
     cy="-87.869469"
     id="circle120"
     rx="0.91485333"
     ry="1.7768404" />
  <ellipse
     style="fill:#dff2ee;stroke-width:0.248197"
     transform="matrix(0.99998142,-0.0060965,-0.00690636,0.99997615,0,0)"
     cx="250.13617"
     cy="322.23984"
     id="circle122"
     rx="1.4229858"
     ry="1.2553436" />
  <ellipse
     style="fill:#dff2ee;stroke-width:0.256533"
     transform="matrix(0.99995953,-0.0089962,-0.01088454,0.99994076,0,0)"
     cx="351.77673"
     cy="323.27713"
     id="circle124"
     rx="1.5198109"
     ry="1.2556465" />
  <ellipse
     style="fill:#dff2ee;stroke-width:0.274021"
     transform="matrix(0.99989869,-0.01423406,-0.01963045,0.9998073,0,0)"
     cx="453.43042"
     cy="326.00461"
     id="circle126"
     rx="1.7330741"
     ry="1.2563796" />
  <ellipse
     style="fill:#dff2ee;stroke-width:0.289169"
     transform="matrix(0.99983755,-0.01802435,-0.02764591,0.99961778,0,0)"
     cx="556.54895"
     cy="329.0289"
     id="circle128"
     rx="1.9288112"
     ry="1.2571403" />
  <ellipse
     style="fill:#dff2ee;stroke-width:0.235914"
     transform="matrix(0.99999922,-0.00125199,-0.00128302,0.99999918,0,0)"
     cx="147.55811"
     cy="320.6261"
     id="circle130"
     rx="1.2860414"
     ry="1.254943" />
  <ellipse
     style="fill:#dff2ee;stroke-width:0.219037"
     transform="matrix(0.99997696,0.0067882,0.00600103,0.99998199,0,0)"
     cx="46.497574"
     cy="320.73666"
     id="circle132"
     rx="1.1090178"
     ry="1.2544907" />
  <ellipse
     style="fill:#dff2ee;stroke-width:0.198656"
     transform="matrix(0.99981255,0.01936141,0.01409297,0.99990069,0,0)"
     cx="-58.984741"
     cy="322.85049"
     id="circle134"
     rx="0.91254628"
     ry="1.2540703" />
  <ellipse
     style="fill:#dff2ee;stroke-width:0.222501"
     transform="matrix(0.999887,-0.01503296,-0.0211827,0.99977562,0,0)"
     cx="257.34702"
     cy="430.67087"
     id="circle136"
     rx="1.4224632"
     ry="1.0092409" />
  <ellipse
     style="fill:#dff2ee;stroke-width:0.229994"
     transform="matrix(0.99984924,-0.01736375,-0.02612462,0.99965869,0,0)"
     cx="359.81607"
     cy="431.59012"
     id="circle138"
     rx="1.5193214"
     ry="1.0096121" />
  <ellipse
     style="fill:#dff2ee;stroke-width:0.245722"
     transform="matrix(0.99976729,-0.02157239,-0.03698249,0.99931591,0,0)"
     cx="463.34058"
     cy="434.00104"
     id="circle140"
     rx="1.7326447"
     ry="1.0105296" />
  <ellipse
     style="fill:#dff2ee;stroke-width:0.259355"
     transform="matrix(0.999697,-0.02461524,-0.04692493,0.99889842,0,0)"
     cx="568.1767"
     cy="436.66483"
     id="circle142"
     rx="1.9284306"
     ry="1.0114748" />
  <ellipse
     style="fill:#dff2ee;stroke-width:0.211463"
     transform="matrix(0.99993796,-0.01113895,-0.01418925,0.99989933,0,0)"
     cx="153.59209"
     cy="429.26633"
     id="circle144"
     rx="1.2854631"
     ry="1.0087444" />
  <ellipse
     style="fill:#dff2ee;stroke-width:0.1963"
     transform="matrix(0.99998908,-0.00467396,-0.00513835,0.9999868,0,0)"
     cx="51.017387"
     cy="429.24234"
     id="circle146"
     rx="1.1083474"
     ry="1.0081769" />
  <ellipse
     style="fill:#dff2ee;stroke-width:0.177993"
     transform="matrix(0.99998517,0.00544565,0.00492726,0.99998786,0,0)"
     cx="-56.110229"
     cy="430.85706"
     id="circle148"
     rx="0.91173178"
     ry="1.0076535" />
  <ellipse
     style="fill:#dff2ee;stroke-width:0.208369"
     transform="matrix(0.99980906,-0.01954092,-0.03139485,0.99950706,0,0)"
     cx="265.22446"
     cy="536.17328"
     id="circle150"
     rx="1.4222455"
     ry="0.88524038" />
  <ellipse
     style="fill:#dff2ee;stroke-width:0.2154"
     transform="matrix(0.99976703,-0.02158441,-0.03701593,0.99931468,0,0)"
     cx="368.57611"
     cy="537.08795"
     id="circle152"
     rx="1.5191178"
     ry="0.88566947" />
  <ellipse
     style="fill:#dff2ee;stroke-width:0.230164"
     transform="matrix(0.99968057,-0.02527355,-0.04937362,0.99878038,0,0)"
     cx="474.06857"
     cy="539.47266"
     id="circle154"
     rx="1.732461"
     ry="0.88670933" />
  <ellipse
     style="fill:#dff2ee;stroke-width:0.24297"
     transform="matrix(0.99960958,-0.02794062,-0.06068039,0.99815725,0,0)"
     cx="580.71118"
     cy="542.09558"
     id="circle156"
     rx="1.9282652"
     ry="0.88779163" />
  <ellipse
     style="fill:#dff2ee;stroke-width:0.198014"
     transform="matrix(0.99986995,-0.01612707,-0.02342878,0.99972551,0,0)"
     cx="160.21574"
     cy="534.80463"
     id="circle158"
     rx="1.2852221"
     ry="0.88467526" />
  <ellipse
     style="fill:#dff2ee;stroke-width:0.183793"
     transform="matrix(0.99994531,-0.01045837,-0.01311484,0.999914,0,0)"
     cx="56.021698"
     cy="534.63593"
     id="circle160"
     rx="1.1080621"
     ry="0.88402921" />
  <ellipse
     style="fill:#dff2ee;stroke-width:0.166631"
     transform="matrix(0.99999875,-0.00158349,-0.00163969,0.99999866,0,0)"
     cx="-52.887432"
     cy="535.93274"
     id="circle162"
     rx="0.9113909"
     ry="0.8834374" />
  <rect
     x="-145.076"
     y="-147.624"
     width="45.076"
     height="747.624"
     style="fill:#244b84;font-variation-settings:normal;opacity:1;vector-effect:none;fill-opacity:1;stroke-width:1;stroke-linecap:butt;stroke-linejoin:miter;stroke-miterlimit:4;stroke-dasharray:none;stroke-dashoffset:0;stroke-opacity:1;-inkscape-stroke:none;stop-color:#000000;stop-opacity:1"
     id="rect170" />
  <path
     d="M -120.04896,-4.884292 V 468.01571 h 8.265 l -11.02,22.04 -11.02,-22.04 h 8.265 V -4.884292 Z"
     style="fill:#ffffff"
     id="path176" />
  <path
     id="rect168"
     style="fill:#8eafe0;font-variation-settings:normal;opacity:1;vector-effect:none;fill-opacity:1;stroke-width:1;stroke-linecap:butt;stroke-linejoin:miter;stroke-miterlimit:4;stroke-dasharray:none;stroke-dashoffset:0;stroke-opacity:1;-inkscape-stroke:none;stop-color:#000000;stop-opacity:1"
     d="M -0.16796875,-0.65820312 45.013672,47.052734 l 0.0039,-0.289062 c 0.03709,0.151792 0.131386,0.294922 0.294922,0.294922 h 699.30664 c 0.19224,0 0.34766,-0.155418 0.34766,-0.347656 V -0.96484375 l -0.34766,-0.34570315 z"
     transform="translate(-144.966,-147.058)"
     sodipodi:nodetypes="cccsssccc" />
  <path
     d="m 25.856,-127.32027 h 444.39 v -8.265 l 22.04,11.02 -22.04,11.02 v -8.265 H 25.856 Z"
     style="fill:#000000"
     id="path178" />
  <text
     xml:space="preserve"
     style="font-style:normal;font-weight:normal;font-size:31.9448px;line-height:1.25;font-family:sans-serif;fill:#000000;fill-opacity:1;stroke:none;stroke-width:0.79862"
     x="-98.890427"
     y="-114.65616"
     id="text3347"><tspan
       sodipodi:role="line"
       id="tspan3345"
       x="-98.890427"
       y="-114.65616"
       style="stroke-width:0.79862">stretto</tspan></text>
  <text
     xml:space="preserve"
     style="font-style:normal;font-weight:normal;font-size:31.9448px;line-height:1.25;font-family:sans-serif;fill:#000000;fill-opacity:1;stroke:none;stroke-width:0.79862"
     x="505.19092"
     y="-112.65616"
     id="text3347-4"><tspan
       sodipodi:role="line"
       id="tspan3345-3"
       x="505.19092"
       y="-112.65616"
       style="stroke-width:0.79862">largo</tspan></text>
  <text
     xml:space="preserve"
     style="font-style:normal;font-variant:normal;font-weight:normal;font-stretch:normal;font-size:31.9448px;line-height:1.25;font-family:sans-serif;font-variant-ligatures:normal;font-variant-position:normal;font-variant-caps:normal;font-variant-numeric:normal;font-variant-alternates:normal;font-variant-east-asian:normal;font-feature-settings:normal;font-variation-settings:normal;text-indent:0;text-align:start;text-decoration-line:none;text-decoration-style:solid;text-decoration-color:#000000;letter-spacing:normal;word-spacing:normal;text-transform:none;writing-mode:lr-tb;direction:ltr;text-orientation:mixed;dominant-baseline:auto;baseline-shift:baseline;text-anchor:start;white-space:normal;shape-padding:0;shape-margin:0;inline-size:0;opacity:1;vector-effect:none;fill:#ffffff;fill-opacity:1;stroke:none;stroke-width:0.79862;stroke-linecap:butt;stroke-linejoin:miter;stroke-miterlimit:4;stroke-dasharray:none;stroke-dashoffset:0;stroke-opacity:1;-inkscape-stroke:none;stop-color:#000000;stop-opacity:1"
     x="-370.43411"
     y="-79.521461"
     id="text5220"
     transform="rotate(-90,91.798436,124.82336)"><tspan
       sodipodi:role="line"
       id="tspan5218"
       x="-370.43411"
       y="-79.521461">corto</tspan></text>
  <text
     xml:space="preserve"
     style="font-style:normal;font-variant:normal;font-weight:normal;font-stretch:normal;font-size:31.9448px;line-height:1.25;font-family:sans-serif;font-variant-ligatures:normal;font-variant-position:normal;font-variant-caps:normal;font-variant-numeric:normal;font-variant-alternates:normal;font-variant-east-asian:normal;font-feature-settings:normal;font-variation-settings:normal;text-indent:0;text-align:start;text-decoration-line:none;text-decoration-style:solid;text-decoration-color:#000000;letter-spacing:normal;word-spacing:normal;text-transform:none;writing-mode:lr-tb;direction:ltr;text-orientation:mixed;dominant-baseline:auto;baseline-shift:baseline;text-anchor:start;white-space:normal;shape-padding:0;shape-margin:0;inline-size:0;vector-effect:none;fill:#ffffff;fill-opacity:1;stroke:none;stroke-width:0.79862;stroke-linecap:butt;stroke-linejoin:miter;stroke-miterlimit:4;stroke-dasharray:none;stroke-dashoffset:0;stroke-opacity:1;-inkscape-stroke:none;stop-color:#000000"
     x="-370.43411"
     y="-79.521461"
     id="text5220-4"
     transform="rotate(-90,-210.78387,-175.95086)"><tspan
       sodipodi:role="line"
       id="tspan5218-4"
       x="-370.43411"
       y="-79.521461">lungo</tspan></text>
</svg>
