<?xml version="1.0" encoding="UTF-8" standalone="no"?>
<svg
   height="247.1519"
   width="633.9173"
   version="1.1"
   viewBox="-32 32 784.84999 194.19078"
   id="svg13890"
   sodipodi:docname="2023-DE-06-explanation-02CH.svg"
   inkscape:version="1.1.1 (3bf5ae0d25, 2021-09-20)"
   xmlns:inkscape="http://www.inkscape.org/namespaces/inkscape"
   xmlns:sodipodi="http://sodipodi.sourceforge.net/DTD/sodipodi-0.dtd"
   xmlns="http://www.w3.org/2000/svg"
   xmlns:svg="http://www.w3.org/2000/svg"
   xmlns:bx="https://boxy-svg.com">
  <sodipodi:namedview
     id="namedview202"
     pagecolor="#ffffff"
     bordercolor="#666666"
     borderopacity="1.0"
     inkscape:pageshadow="2"
     inkscape:pageopacity="0.0"
     inkscape:pagecheckerboard="0"
     showgrid="false"
     inkscape:zoom="1"
     inkscape:cx="132.5"
     inkscape:cy="270.5"
     inkscape:window-width="2048"
     inkscape:window-height="1017"
     inkscape:window-x="-8"
     inkscape:window-y="-8"
     inkscape:window-maximized="1"
     inkscape:current-layer="svg13890"
     showguides="false"
     inkscape:snap-others="true"
     inkscape:snap-global="false" />
  <defs
     id="defs13867">
    <bx:grid
       x="0"
       y="0"
       width="32"
       height="32" />
    <clipPath
       id="clip-0">
      <rect
         x="-295.70901"
         y="-396.18799"
         width="63.870998"
         height="63.870998"
         style="fill:#d8d8d8"
         id="rect-2"
         transform="scale(-1)" />
    </clipPath>
    <clipPath
       id="clip-2">
      <rect
         x="322.384"
         y="32.237999"
         width="64.476997"
         height="64.476997"
         style="fill:#d8d8d8"
         id="rect-4"
         transform="rotate(-90,453.13345,110.05801)" />
    </clipPath>
    <clipPath
       id="clip-3">
      <rect
         x="280.85599"
         y="355.42099"
         width="64.016998"
         height="64.016998"
         style="fill:#d8d8d8"
         id="rect-5" />
    </clipPath>
    <clipPath
       id="clip-4">
      <rect
         x="196.799"
         y="305.367"
         width="125.832"
         height="125.832"
         style="fill:#d8d8d8"
         id="rect-6" />
    </clipPath>
    <clipPath
       id="clip-5">
      <rect
         x="-337.668"
         y="-189.29201"
         width="64.094002"
         height="64.094002"
         style="fill:#d8d8d8"
         id="rect-7"
         transform="scale(-1)" />
    </clipPath>
  </defs>
  <rect
     x="608.73376"
     y="137.97798"
     width="143.38776"
     height="143.38776"
     style="fill:#338000;stroke-width:1.07185;font-variation-settings:normal;opacity:1;vector-effect:none;fill-opacity:1;stroke-linecap:butt;stroke-linejoin:miter;stroke-miterlimit:4;stroke-dasharray:none;stroke-dashoffset:0;stroke-opacity:1;-inkscape-stroke:none;stop-color:#000000;stop-opacity:1"
     id="container5" />
  <rect
     x="451.5498"
     y="140.86096"
     width="137.19728"
     height="137.19728"
     style="fill:#ffeeaa;stroke-width:1.07185"
     id="container4" />
  <rect
     x="290.98773"
     y="140.8994"
     width="137.19728"
     height="137.19728"
     style="fill:#ffeeaa;stroke-width:1.07185"
     id="container3" />
  <rect
     x="611.5437"
     y="-20.079702"
     width="137.19728"
     height="137.19728"
     style="fill:#ffeeaa;stroke-width:1.07185"
     id="container2" />
  <rect
     x="452.0014"
     y="-19.590757"
     width="137.19728"
     height="137.19728"
     style="fill:#ffeeaa;stroke-width:1.07185"
     id="container1" />
  <rect
     x="288.3815"
     y="-23.241819"
     width="144.201"
     height="144.201"
     style="fill:#ff7f2a;stroke-width:1.07185;font-variation-settings:normal;opacity:1;vector-effect:none;fill-opacity:1;stroke-linecap:butt;stroke-linejoin:miter;stroke-miterlimit:4;stroke-dasharray:none;stroke-dashoffset:0;stroke-opacity:1;-inkscape-stroke:none;stop-color:#000000;stop-opacity:1"
     id="container0" />
  <g
     id="g16801"
     transform="translate(-23.38428,-79.007684)">
    <rect
       x="-767.62268"
       y="-352.00244"
       width="127.6216"
       height="126.6458"
       style="clip-rule:evenodd;fill:#6ab5d4;fill-opacity:1;fill-rule:evenodd;stroke-width:1.98645;stroke-miterlimit:10"
       id="rect2"
       transform="scale(-1)" />
    <path
       d="m 640.00001,272.78507 v 79.21496 h 79.70309 c 0,-11.45898 -2.45364,-22.32062 -6.85292,-32.14217 l -9.38989,-20.96631 -19.33093,19.18231 c 0,0 -10.92793,-10.84357 -10.92793,-10.84357 0,0 19.42731,-19.30679 19.42731,-19.30679 l -22.10583,-9.11077 c -9.40294,-3.87621 -19.70139,-6.02766 -30.5229,-6.02766 z"
       style="font-variation-settings:normal;clip-rule:evenodd;opacity:1;vector-effect:none;fill:#9ecee3;fill-opacity:1;fill-rule:evenodd;stroke-width:1.2381;stroke-linecap:butt;stroke-linejoin:miter;stroke-miterlimit:10;stroke-dasharray:none;stroke-dashoffset:0;stroke-opacity:1;-inkscape-stroke:none;stop-color:#000000;stop-opacity:1"
       id="path5" />
    <path
       d="m 640.00001,280.73127 v 71.26876 h 71.75687 c 0,-10.30043 -2.20365,-20.06577 -6.15819,-28.89442 l -4.69544,-10.48315 -16.77389,16.64634 c 0,0 -22.20422,-22.0345 -22.20422,-22.0345 0,0 16.6233,-16.51984 16.6233,-16.51984 l -11.05342,-4.55589 c -8.47028,-3.4907 -17.74772,-5.4273 -27.49501,-5.4273 z"
       style="clip-rule:evenodd;fill:#b1e2f7;fill-rule:evenodd;stroke-width:1.00394;stroke-miterlimit:10"
       id="path8" />
    <path
       d="m 640.00001,285.69676 v 66.30327 h 66.79036 c 0,-9.57659 -2.04804,-18.65523 -5.72448,-26.86445 l -1.75992,-3.93144 -15.17661,15.06113 c 0,0 -29.25291,-29.02896 -29.25291,-29.02896 10e-4,0 14.87142,-14.77801 14.87142,-14.77801 l -4.14529,-1.7077 c -7.88698,-3.25177 -16.52591,-5.05384 -25.60257,-5.05384 z"
       style="clip-rule:evenodd;fill:#dcf1f9;fill-opacity:1;fill-rule:evenodd;stroke-width:1.00394;stroke-miterlimit:10"
       id="path11" />
    <path
       d="m 703.81186,352.00245 c 0,-9.14225 -1.95421,-17.80957 -5.4638,-25.64578 l -14.21784,14.10914 -33.48073,-33.22474 13.81902,-13.73315 c -7.53765,-3.10678 -15.79317,-4.82837 -24.46745,-4.82837 v 63.3229 z"
       style="clip-rule:evenodd;fill:#cddca5;fill-opacity:1;fill-rule:nonzero;stroke:none;stroke-width:0.39729px;stroke-miterlimit:10"
       id="path14" />
  </g>
  <g
     id="g16788"
     transform="translate(-23.38428,-79.007684)">
    <rect
       x="224.93456"
       class="st0"
       width="127.06544"
       height="127.06544"
       id="rect17924-5"
       style="fill:#6ab5d4;fill-opacity:1;stroke-width:1.9854"
       y="-607.06543"
       transform="rotate(90)" />
    <path
       id="path17933-5"
       style="color:#000000;font-variation-settings:normal;opacity:1;vector-effect:none;fill:#9ecee3;fill-opacity:1;stroke-width:1;stroke-linecap:butt;stroke-linejoin:miter;stroke-miterlimit:10;stroke-dasharray:none;stroke-dashoffset:0;stroke-opacity:1;-inkscape-stroke:none;stop-color:#000000;stop-opacity:1"
       d="m 413.53906,237.67773 v 102.63086 h 64.14258 c 0,-13.15449 6.49614,-24.57342 16.46484,-31.55273 4.97478,-3.13733 7.32613,-4.87962 15.09766,-6.29297 2.30575,-0.41923 6.92383,-0.64062 6.92383,-0.64062 v -64.14454 z"
       transform="matrix(1.2380952,0,0,1.2380952,-32,-69.333333)"
       sodipodi:nodetypes="cccccccc" />
    <path
       id="path17930-7"
       style="color:#000000;opacity:0.45;fill:#ffffff;stroke-width:1.60359;stroke-miterlimit:10;-inkscape-stroke:none"
       d="m 413.53906,237.67773 v 102.63086 h 44.90039 6.41407 6.41406 c 0,-15.28473 7.58793,-28.67655 19.20312,-36.80859 l 11.87305,-8.30859 c 0.55299,0.16402 1.60526,0.33192 1.92383,0.47851 l 1.83789,0.8457 1.98828,-0.36328 c 2.65224,-0.48222 5.34572,-0.74609 8.07422,-0.74609 v -6.41406 -6.41407 -44.90039 z"
       transform="matrix(1.2380952,0,0,1.2380952,-32,-69.333333)" />
    <path
       id="path17927-2"
       style="color:#000000;opacity:0.75;fill:#ffffff;stroke-width:1.60359;stroke-miterlimit:10;-inkscape-stroke:none"
       d="m 413.53906,237.67773 v 102.63086 h 48.90821 2.40625 2.40429 c 0,-16.61613 8.26981,-31.24125 20.91407,-40.09375 l 5.95898,-4.17578 -7.27539,-0.19726 c -5.0785,-0.13977 -9.59769,-0.80591 -12.65625,-1.71289 -1.52928,-0.4535 -2.68993,-0.98334 -3.28906,-1.39258 -0.0604,-0.0413 -0.0408,-0.0342 -0.0859,-0.0684 0.0677,-0.0503 0.11475,-0.0906 0.21484,-0.1543 0.72032,-0.45836 2.06472,-1.02593 3.80274,-1.49414 3.47602,-0.93643 8.53172,-1.5625 14.11328,-1.5625 7.44684,0 14.01061,1.20096 16.98633,2.57031 l 0.68945,0.31641 0.74609,-0.13477 c 2.86879,-0.5216 5.80344,-0.81054 8.79102,-0.81054 v -2.40625 -2.4043 -48.91016 z"
       transform="matrix(1.2380952,0,0,1.2380952,-32,-69.333333)" />
    <path
       class="st1"
       d="m 570.69297,299.92301 c -12.9845,-0.35737 -23.12988,-3.31561 -23.12988,-6.90918 0,-3.83182 11.55501,-6.94889 25.81016,-6.94889 9.51006,0 17.78917,1.38978 22.27616,3.45459 3.7127,-0.67503 7.52466,-1.05226 11.41604,-1.05226 V 224.93455 H 480.00001 v 127.06544 h 63.53272 c 0,-21.56142 10.741,-40.58152 27.16024,-52.07698 z"
       id="path17936-6-7"
       style="fill:#cddca5;fill-opacity:1;stroke-width:0.397079;stroke-miterlimit:10" />
  </g>
  <g
     id="g16777"
     transform="translate(-23.38428,-79.007684)">
    <rect
       class="st0"
       width="127.96697"
       height="127.96697"
       id="rect32852"
       style="fill:#6ab5d4;fill-opacity:1;stroke-width:1.99948"
       x="320"
       y="224.52223" />
    <path
       id="path32861"
       style="color:#000000;font-variation-settings:normal;opacity:1;vector-effect:none;fill:#9ecee3;fill-opacity:1;stroke-width:1;stroke-linecap:butt;stroke-linejoin:miter;stroke-miterlimit:10;stroke-dasharray:none;stroke-dashoffset:0;stroke-opacity:1;-inkscape-stroke:none;stop-color:#000000;stop-opacity:1"
       d="m 348.91602,236.92188 c -0.008,0.0425 -0.01,0.18348 -0.01,0.42382 H 335.9861 323.06618 c 0,3.265 0.53599,4.83889 0.77343,5.80078 -3.16636,9.50618 -5.44041,17.98894 -6.00586,26.03125 -0.60341,8.58243 0.90625,17.80323 7.09375,24.74415 6.18751,6.94092 15.18217,9.71969 24.59766,10.375 6.73674,0.46886 14.16077,-0.003 22.69727,-1.24024 8.03322,-2.66085 11.32853,-1.11952 15.44336,-1.11328 V 237.3457 h -38.65625 c -0.0424,-0.24973 -0.084,-0.47789 -0.0937,-0.42382 z"
       transform="matrix(1.2380952,0,0,1.2380952,-32,-69.333333)"
       sodipodi:nodetypes="sccccsssccccs" />
    <path
       id="path32858"
       style="color:#000000;font-variation-settings:normal;opacity:1;vector-effect:none;fill:#b1e2f7;fill-opacity:1;stroke-width:1;stroke-linecap:butt;stroke-linejoin:miter;stroke-miterlimit:10;stroke-dasharray:none;stroke-dashoffset:0;stroke-opacity:1;-inkscape-stroke:none;stop-color:#000000;stop-opacity:1"
       d="m 329.52734,237.3457 c 0,2.55188 0.55333,4.31896 0.75977,5.38086 -1.76007,9.07094 -5.3513,18.50917 -6.00977,26.9043 -0.53474,7.60567 0.79978,14.75031 5.47266,19.99219 4.67289,5.24188 11.74788,7.64063 20.22266,8.23047 8.47478,0.58983 18.80814,-0.48476 25.23395,-1.71611 6.42581,-1.23135 8.37174,-0.65303 12.45941,-0.65303 V 237.3457 h -45.21875 -6.46094 z"
       transform="matrix(1.2380952,0,0,1.2380952,-32,-69.333333)"
       sodipodi:nodetypes="cccsscccccc" />
    <path
       id="path32855"
       style="color:#000000;font-variation-settings:normal;opacity:1;vector-effect:none;fill:#dcf1f9;fill-opacity:1;stroke-width:1;stroke-linecap:butt;stroke-linejoin:miter;stroke-miterlimit:10;stroke-dasharray:none;stroke-dashoffset:0;stroke-opacity:1;-inkscape-stroke:none;stop-color:#000000;stop-opacity:1"
       d="m 333.56445,237.3457 c 0,1.81996 0.44355,3.35643 0.6875,4.61133 0.24397,1.2549 0.28218,2.13002 0.0723,2.74414 -3.37259,9.88126 -5.52576,18.21963 -6.01758,25.21485 -0.49182,6.99521 0.73078,12.84346 4.45703,17.02343 3.72625,4.17998 9.6034,6.33585 17.49024,6.88477 7.88684,0.54891 17.95661,-0.45625 30.73047,-2.9043 l 0.004,-0.004 h 0.004 c 1.40488,-0.27313 3.62692,0.53125 6.67383,0.53125 V 237.3457 h -49.25586 -2.42383 z"
       transform="matrix(1.2380952,0,0,1.2380952,-32,-69.333333)"
       sodipodi:nodetypes="cscssscccccccc" />
    <path
       class="st1"
       d="m 383.98349,224.52223 c 0,3.41912 1.85952,6.91821 0.7798,10.0774 -16.53574,48.4475 -8.33785,65.32314 54.36597,53.30624 2.87925,-0.55985 5.83849,0.59985 8.83772,0.59985 v -63.98349 z"
       id="path32864"
       style="fill:#cddca5;fill-opacity:1;stroke-width:0.399897;stroke-miterlimit:10" />
    <path
       class="st2"
       d="m 394.86068,252.05512 c 0.25993,13.31657 3.57908,16.63571 -0.25993,19.97485 -3.83901,3.33914 -3.83901,5.63854 -1.01974,7.67802 2.81927,2.03947 29.61236,0.97975 30.47214,-5.37861 3.05921,-22.79412 -29.4524,-35.59082 -29.19247,-22.27426 z"
       id="path32867"
       style="fill:#9ecee3;fill-opacity:1;stroke-width:0.399897;stroke-miterlimit:10" />
    <path
       class="st2"
       d="m 397.47001,253.53874 c 0.21794,11.613 3.00722,14.50826 -0.21795,17.41951 -3.22716,2.91324 -3.22716,4.91873 -0.85777,6.69627 2.36738,1.77954 24.87957,0.85578 25.60139,-4.69079 2.57133,-19.87887 -24.74362,-31.03999 -24.52567,-19.42499 z"
       id="path-1"
       style="fill:#6ab5d4;fill-opacity:1;stroke-width:0.399897;stroke-miterlimit:10" />
  </g>
  <g
     id="g17033"
     transform="translate(-23.38428,-79.007684)">
    <rect
       class="st0"
       width="127.05331"
       height="127.05331"
       id="rect19633"
       style="fill:#6ab5d4;fill-opacity:1;stroke-width:1.98521"
       x="63.999966"
       y="-767.05328"
       transform="rotate(90)" />
    <path
       id="path19642"
       style="color:#000000;font-variation-settings:normal;vector-effect:none;fill:#9ecee3;fill-opacity:1;stroke-width:1.2381;stroke-linecap:butt;stroke-linejoin:miter;stroke-miterlimit:10;stroke-dasharray:none;stroke-dashoffset:0;stroke-opacity:1;-inkscape-stroke:none;stop-color:#000000"
       d="m 668.65065,105.05673 c -2.36816,-0.0144 -4.80771,0.10846 -7.3125,0.39899 -7.31864,0.84921 -13.10395,3.60896 -16.1968,5.21113 -1.35502,0.70192 -1.81285,0.86 -1.97322,0.93824 h -3.16778 v 15.92113 0.002 63.52492 h 127.05226 v -47.6449 -15.88244 -15.88244 h -13.23939 c -11.36798,0 -18.67998,4.00774 -25.09561,5.8326 -6.41561,1.82481 -11.19139,2.59311 -18.12648,0.46428 -0.62918,-0.19516 -7.33621,-3.82721 -15.85101,-7.32701 -6.92171,-2.84502 -15.82749,-5.49468 -26.08947,-5.55692 z" />
    <path
       id="path19639"
       style="color:#000000;font-variation-settings:normal;vector-effect:none;fill:#b1e2f7;fill-opacity:1;stroke-width:1.2381;stroke-linecap:butt;stroke-linejoin:miter;stroke-miterlimit:10;stroke-dasharray:none;stroke-dashoffset:0;stroke-opacity:1;-inkscape-stroke:none;stop-color:#000000"
       d="m 666.5396,113.02455 c -1.40319,0.0478 -2.83208,0.1528 -4.28739,0.32162 -6.01178,0.69756 -10.53578,2.8551 -13.45945,4.36959 -2.92367,1.51453 -3.89753,1.83055 -4.02864,1.83055 h -4.76377 v 7.97991 63.52734 h 127.05226 v -55.58611 -7.94123 -7.94122 h -13.23939 c -8.82558,0 -15.82915,3.51364 -22.91927,5.53032 -7.09013,2.01669 -13.89565,3.10072 -22.63393,0.41834 -2.50633,-0.77182 -8.72617,-4.36432 -16.54017,-7.57607 -6.83857,-2.81084 -15.35788,-5.26783 -25.18025,-4.93304 z" />
    <path
       id="path19636"
       style="color:#000000;font-variation-settings:normal;vector-effect:none;fill:#dcf1f9;fill-opacity:1;stroke-width:1.2381;stroke-linecap:butt;stroke-linejoin:miter;stroke-miterlimit:10;stroke-dasharray:none;stroke-dashoffset:0;stroke-opacity:1;-inkscape-stroke:none;stop-color:#000000"
       d="m 666.71854,117.98177 c -1.2738,0.044 -2.57202,0.13933 -3.89322,0.2926 -5.195,0.60279 -8.92947,2.39239 -11.7474,3.85211 -2.81793,1.45975 -4.58962,2.38431 -6.3138,2.38431 h -4.76377 v 3.01543 63.52734 h 127.05226 v -60.54818 -2.97916 -2.97674 h -13.23939 c -7.23658,0 -14.05098,3.20269 -21.56268,5.33928 -7.5117,2.1366 -15.58341,3.42006 -25.44866,0.39174 -3.68158,-1.1328 -9.58997,-4.7016 -16.96578,-7.73326 -6.45384,-2.65269 -14.20091,-4.87315 -23.11756,-4.56547 z" />
    <path
       id="path19636-9"
       style="color:#000000;font-variation-settings:normal;vector-effect:none;fill:#cddca5;fill-opacity:1;stroke-width:0.400836;stroke-linecap:butt;stroke-linejoin:miter;stroke-miterlimit:10;stroke-dasharray:none;stroke-dashoffset:0;stroke-opacity:1;-inkscape-stroke:none;stop-color:#000000"
       d="m 666.71854,120.98995 c -1.2738,0.044 -2.57203,0.13933 -3.89322,0.29259 -5.195,0.60279 -8.92947,2.3924 -11.7474,3.85212 -2.81793,1.45976 -4.58963,2.3843 -6.3138,2.3843 h -4.76377 v 3.01545 60.51915 h 127.05226 v -57.53999 -2.97916 -2.97676 h -13.23939 c -7.23658,0 -14.05098,3.2027 -21.56268,5.33929 -7.51171,2.13659 -15.58341,3.42006 -25.44866,0.39174 -3.68158,-1.13279 -9.58997,-4.70159 -16.96578,-7.73325 -6.45384,-2.65269 -14.20091,-4.87315 -23.11756,-4.56548 z" />
  </g>
  <g
     id="g16753"
     transform="translate(-23.38428,-79.007684)">
    <rect
       class="st0"
       width="128.03123"
       height="128.03123"
       id="rect33003"
       style="fill:#6ab5d4;fill-opacity:1;stroke-width:2.00049"
       x="479.96872"
       y="63.999947" />
    <path
       id="path33012"
       style="color:#000000;font-variation-settings:normal;opacity:1;vector-effect:none;fill:#9ecee3;fill-opacity:1;stroke-width:1;stroke-linecap:butt;stroke-linejoin:miter;stroke-miterlimit:10;stroke-dasharray:none;stroke-dashoffset:0;stroke-opacity:1;-inkscape-stroke:none;stop-color:#000000;stop-opacity:1"
       d="m 413.51367,107.69141 v 64.63281 c 10.42838,0 19.73462,4.0491 26.71094,10.69726 l 1.99414,1.9004 1.75195,2.20312 c 0.84316,1.05965 1.66637,2.23788 2.46094,3.51172 l 2.85938,4.58594 4.46875,1.0039 c -1.32985,5.86532 -1.51338,10.87847 -1.5,13.56641 v 0.19141 l 0.008,0.18945 c 0.0166,0.47881 0.0254,0.78308 0.0254,0.92773 h 64.63086 V 107.69141 Z"
       transform="matrix(1.2380952,0,0,1.2380952,-32,-69.333333)"
       sodipodi:nodetypes="ccscccccccccccc" />
    <path
       id="path33009"
       style="color:#000000;font-variation-settings:normal;opacity:1;vector-effect:none;fill:#b1e2f7;fill-opacity:1;stroke-width:1;stroke-linecap:butt;stroke-linejoin:miter;stroke-miterlimit:10;stroke-dasharray:none;stroke-dashoffset:0;stroke-opacity:1;-inkscape-stroke:none;stop-color:#000000;stop-opacity:1"
       d="m 413.51367,107.69141 v 58.16797 c 12.12164,0 23.04448,4.74114 31.16992,12.48437 l 2.31641,2.21094 2.0293,2.54492 c 1.01942,1.28115 1.97851,2.66235 2.88476,4.11523 l 1.42969,2.29297 2.63477,0.5918 c 2.35387,0.52963 4.54693,0.65536 6.33398,0.68164 -3.25072,7.9243 -3.60652,15.62695 -3.58984,18.98047 v 0.0937 l 0.004,0.0957 c 0.0162,0.4737 0.0293,0.85185 0.0293,1.15039 h 58.16797 v -103.4101 z"
       transform="matrix(1.2380952,0,0,1.2380952,-32,-69.333333)"
       sodipodi:nodetypes="cccccccccccccccc" />
    <path
       id="path33006"
       style="color:#000000;font-variation-settings:normal;opacity:1;vector-effect:none;fill:#dcf1f9;fill-opacity:1;stroke-width:1;stroke-linecap:butt;stroke-linejoin:miter;stroke-miterlimit:10;stroke-dasharray:none;stroke-dashoffset:0;stroke-opacity:1;-inkscape-stroke:none;stop-color:#000000;stop-opacity:1"
       d="m 413.51367,107.69141 v 49.28125 2.42382 2.42383 c 13.17992,0 25.11339,5.17196 33.95703,13.59961 l 1.73828,1.65625 c 4.69796,-4.09701 6.43849,-10.36987 6.26954,-15.90234 0.0569,0.45223 0.11266,0.96841 0.1621,1.41015 0.49567,7.45084 -0.10339,11.45348 -4.76562,16.35352 l 1.3125,1.64844 c 1.12957,1.41961 2.17629,2.92935 3.15234,4.49414 l 0.53711,0.85742 0.98828,0.2207 c 3.62537,0.81571 7.78932,0.32276 9.98438,0.67969 0.78885,0.12827 1.06299,0.28815 1.13477,0.31836 -0.0109,0.11226 0.002,0.78763 -0.8125,2.35352 v 0.004 c -4.11098,7.90572 -4.4254,16.77469 -4.40821,20.22852 v 0.0352 0.0332 c 0.0162,0.47043 0.0312,0.8963 0.0312,1.29101 h 2.42383 2.42383 49.28125 V 107.69141 Z"
       transform="matrix(1.2380952,0,0,1.2380952,-32,-69.333333)"
       sodipodi:nodetypes="cccccccccccccscccccccccccc" />
    <path
       class="st1"
       d="m 479.96873,63.999947 v 64.015613 c 17.10417,0 32.62796,6.72164 44.11076,17.66431 0.62015,-0.64015 1.2403,-1.34032 1.80044,-2.16053 6.82166,-9.70236 0.30007,-20.48499 3.48085,-33.18809 3.48085,-13.943402 9.90021,-14.843622 30.66528,-16.984144 5.00127,-0.473098 5.17424,0.484579 1.77806,1.329342 -10.54233,2.622282 -25.2951,7.976582 -27.26208,17.675292 -2.76067,13.58332 5.04123,25.36619 -2.30056,37.36912 -0.60014,0.98024 -1.28031,1.86045 -2.0405,2.66065 1.48036,1.86045 2.8407,3.82093 4.101,5.84142 7.20176,1.6204 20.36497,-2.30056 14.76361,8.46207 -4.68115,9.00219 -5.14126,19.62478 -5.12125,23.64576 0.02,0.58015 0.04,1.14028 0.04,1.70042 h 64.01561 V 63.999947 Z"
       id="path33015"
       style="fill:#cddca5;fill-opacity:1;stroke-width:0.400098;stroke-miterlimit:10"
       sodipodi:nodetypes="ccccccscccccccccc" />
  </g>
  <g
     id="g16768"
     transform="translate(-23.38428,-79.007684)">
    <rect
       y="-191.99998"
       class="st0"
       width="128.26744"
       height="128.26724"
       id="rect32702-0"
       style="fill:#6ab5d4;fill-opacity:1;stroke-width:2.00418"
       x="-448"
       transform="scale(-1)" />
    <path
       id="path32711-5"
       style="color:#000000;font-variation-settings:normal;opacity:1;vector-effect:none;fill:#9ecee3;fill-opacity:1;stroke-width:1.2381;stroke-linecap:butt;stroke-linejoin:miter;stroke-miterlimit:10;stroke-dasharray:none;stroke-dashoffset:0;stroke-opacity:1;-inkscape-stroke:none;stop-color:#000000;stop-opacity:1"
       d="m 366.41642,63.733557 c -6.27401,3.689659 -14.71205,8.993531 -22.70523,16.88005 -5.6461,5.565258 -10.21912,11.347305 -12.10019,19.182392 -1.88106,7.835091 0.51357,16.105721 3.57221,21.396831 6.11726,10.58221 13.38464,16.20141 20.31014,26.58966 l 0.002,0.002 v 0.001 c 7.58724,13.24993 12.33724,28.84481 12.33724,44.21362 H 447.9994 V 63.732487 Z"
       sodipodi:nodetypes="ccssccccccc" />
    <path
       id="path32708-3"
       style="color:#000000;font-variation-settings:normal;opacity:1;vector-effect:none;fill:#b1e2f7;fill-opacity:1;stroke-width:1.2381;stroke-linecap:butt;stroke-linejoin:miter;stroke-miterlimit:10;stroke-dasharray:none;stroke-dashoffset:0;stroke-opacity:1;-inkscape-stroke:none;stop-color:#000000;stop-opacity:1"
       d="m 375.861,63.732487 -0.0117,0.0012 v 2.472609 c -6.27695,3.280574 -15.53876,9.29105 -26.50986,20.116517 -5.09778,5.024798 -8.58944,9.750041 -9.93269,15.344977 -1.34324,5.59494 0.25294,11.25075 2.7167,15.51279 4.92753,8.52408 12.56914,14.94998 20.04024,26.15664 h 0.002 v 0.001 c 11.94115,17.90279 13.555,40.10415 13.68327,46.56418 v 2.09709 h 72.15047 V 63.732487 Z" />
    <path
       id="path32705-6"
       style="color:#000000;font-variation-settings:normal;opacity:1;vector-effect:none;fill:#dcf1f9;fill-opacity:1;stroke-width:1.2381;stroke-linecap:butt;stroke-linejoin:miter;stroke-miterlimit:10;stroke-dasharray:none;stroke-dashoffset:0;stroke-opacity:1;-inkscape-stroke:none;stop-color:#000000;stop-opacity:1"
       d="m 447.99975,63.732487 -67.13837,0.0012 v 5.636427 c -5.53688,2.521391 -15.43081,8.112286 -28.0061,20.521378 -4.7551,4.687016 -7.57017,8.751439 -8.57728,12.946298 -1.00711,4.19485 0.092,8.2161 2.18393,11.83497 4.18393,7.23776 12.06032,14.16624 19.87242,25.88438 12.86227,19.2838 14.39229,42.36722 14.52703,49.27737 v 2.16515 h 67.13837 z" />
    <path
       class="st1"
       d="m 368.83507,138.88935 c 13.40793,20.10188 14.89102,43.69102 15.03131,50.88601 V 192 H 448 V 63.732765 h -64.13362 v 7.535695 c -4.66972,1.924012 -15.25177,7.295207 -28.90021,20.763258 -18.17787,17.937372 -2.16451,22.807522 13.8689,46.857632 z"
       id="path32714-0"
       style="fill:#cddca5;fill-opacity:1;stroke-width:0.400836;stroke-miterlimit:10" />
  </g>
  <g
     id="g16824"
     style="display:inline"
     transform="translate(-23.38428,-79.007684)">
    <rect
       x="-8.3605518"
       y="73.163261"
       width="272.76871"
       height="270.91156"
       style="fill:#ffeeaa;stroke-width:2.12373"
       id="container0-2"
       inkscape:label="rect003403" />
    <rect
       x="0.31928152"
       y="207.77432"
       width="126.99947"
       height="127.66975"
       style="fill:#ff7f2a;stroke-width:0.991902"
       id="container0-8-9" />
    <rect
       x="127.4875"
       y="80.93441"
       width="127.45773"
       height="127.01999"
       style="fill:#338000;stroke-width:0.994044"
       id="container0-8" />
    <rect
       x="127.90475"
       class="st0"
       width="127.04288"
       height="127.04288"
       id="rect17924-2"
       style="fill:#6ab5d4;fill-opacity:1;stroke-width:1.98505"
       y="207.87621" />
    <rect
       x="0.32441604"
       class="st0"
       width="126.96442"
       height="126.96442"
       id="rect16191-4"
       style="fill:#6ab5d4;fill-opacity:1;stroke-width:1.98382"
       y="80.831711" />
    <path
       id="path17933-29"
       style="color:#000000;font-variation-settings:normal;opacity:1;vector-effect:none;fill:#9ecee3;fill-opacity:1;stroke-width:1.2381;stroke-linecap:butt;stroke-linejoin:miter;stroke-miterlimit:10;stroke-dasharray:none;stroke-dashoffset:0;stroke-opacity:1;-inkscape-stroke:none;stop-color:#000000;stop-opacity:1"
       d="m 175.04407,207.87552 v 0.001 h -47.6403 V 334.91851 H 254.44692 V 287.2782 271.39693 255.518 c -16.28362,0 -30.42,-8.04406 -39.05951,-20.38408 -4.76095,-5.3002 -7.10772,-11.63504 -7.78631,-18.68482 -0.51895,-2.85424 -0.79683,-5.70934 -0.79683,-8.57375 z"
       sodipodi:nodetypes="cccccccccccc" />
    <path
       id="path17930-9"
       style="color:#000000;font-variation-settings:normal;opacity:1;vector-effect:none;fill:#b1e2f7;fill-opacity:1;stroke-width:1.2381;stroke-linecap:butt;stroke-linejoin:miter;stroke-miterlimit:10;stroke-dasharray:none;stroke-dashoffset:0;stroke-opacity:1;-inkscape-stroke:none;stop-color:#000000;stop-opacity:1"
       d="m 182.98412,207.87552 v 0.001 h -55.58035 v 127.04199 h 127.04315 v -55.58036 -7.94122 -7.93888 c -18.92059,0 -35.49789,-9.39153 -45.56434,-23.76969 -3.24184,-5.68008 -7.2907,-9.63082 -8.64534,-19.3549 l -0.44829,-2.4644 c -0.59691,-3.28313 -0.92473,-6.61616 -0.92473,-9.99371 z"
       sodipodi:nodetypes="ccccccccccccc" />
    <path
       style="color:#000000;opacity:0.75;fill:#ffffff;stroke-width:1.00007;stroke-miterlimit:10;-inkscape-stroke:none"
       d="m 187.94812,207.87552 c 0,3.9e-4 0,6e-4 0,0.001 h -60.54435 v 127.04199 h 127.04315 v -60.54318 -2.9784 -2.97723 c -20.5687,0 -38.66995,-10.23354 -49.62825,-25.88555 l -5.16936,-7.38028 -0.24762,9.00561 c -0.17303,6.28654 -0.9943,11.88157 -2.11703,15.66769 -0.56137,1.89306 -1.22084,3.33283 -1.72743,4.07447 -0.0472,0.0691 -0.0377,0.0446 -0.0774,0.0974 -0.0777,-0.0979 -0.0885,-0.0836 -0.19949,-0.25817 -0.56741,-0.89167 -1.26402,-2.5532 -1.84361,-4.70465 -1.15917,-4.30289 -1.93631,-10.56448 -1.93631,-17.47375 0,-9.21826 1.4875,-17.3436 3.18259,-21.02716 l 0.39196,-0.85433 -0.16782,-0.92356 c -0.64566,-3.55119 -1.00336,-7.18381 -1.00336,-10.88207 z"
       id="path17927-20" />
    <path
       class="st1"
       d="m 202.37894,244.24224 c -0.35732,12.98219 -3.31504,23.12577 -6.90796,23.12577 -3.83114,0 -6.94766,-11.55296 -6.94766,-25.80558 0,-9.50837 1.38953,-17.78601 3.45397,-22.27221 -0.67491,-3.71203 -1.05207,-7.52332 -1.05207,-11.41401 H 127.40378 V 334.9191 h 127.04289 v -63.52144 c -21.5576,0 -40.57433,-10.7391 -52.06773,-27.15542 z"
       id="path17936-9"
       style="fill:#cddca5;fill-opacity:1;stroke-width:0.397009;stroke-miterlimit:10"
       sodipodi:nodetypes="cssccccccc" />
    <path
       style="color:#000000;font-variation-settings:normal;vector-effect:none;fill:#6ab5d4;fill-opacity:1;stroke-width:1.98505;stroke-linecap:butt;stroke-linejoin:miter;stroke-miterlimit:4;stroke-dasharray:none;stroke-dashoffset:0;stroke-opacity:1;-inkscape-stroke:none;stop-color:#000000"
       d="m 218.55005,272.7267 c 1.72468,0.0894 4.45844,4.52006 6.31942,10.38215 1.98505,6.23303 2.22369,11.71209 0.55625,12.24805 -1.68728,0.53596 -4.64545,-4.08925 -6.65035,-10.3223 -1.98504,-6.23304 -2.24353,-11.73087 -0.55625,-12.26683 0.10546,-0.0335 0.21596,-0.047 0.33093,-0.0411 z"
       id="path6226-8" />
    <path
       style="color:#000000;font-variation-settings:normal;vector-effect:none;fill:#6ab5d4;fill-opacity:1;stroke-width:1.98505;stroke-linecap:butt;stroke-linejoin:miter;stroke-miterlimit:4;stroke-dasharray:none;stroke-dashoffset:0;stroke-opacity:1;-inkscape-stroke:none;stop-color:#000000"
       d="m 205.97225,257.04609 c 2.22325,-0.33745 5.04204,6.03445 6.33232,14.27238 1.29027,8.23794 0.53572,15.1859 -1.68752,15.52335 -2.22326,0.33747 -5.04206,-6.03561 -6.33233,-14.27355 -1.27043,-8.21808 -0.51588,-15.18472 1.68753,-15.52218 z"
       id="path6224-9" />
    <path
       id="path16204-0"
       style="color:#000000;font-variation-settings:normal;opacity:1;vector-effect:none;fill:#9ecee3;fill-opacity:1;stroke-width:1.2381;stroke-linecap:butt;stroke-linejoin:miter;stroke-miterlimit:10;stroke-dasharray:none;stroke-dashoffset:0;stroke-opacity:1;-inkscape-stroke:none;stop-color:#000000;stop-opacity:1"
       d="m 0.32411597,80.831283 v 79.352397 c 3.6531e-4,9e-5 7.811e-4,-1e-4 0.001202,0 4.31898203,0 11.51184103,4.45778 25.31639203,1.61946 l 0.0176,-0.005 0.01525,-0.002 c 10.370446,-2.1566 18.770663,-3.16975 24.108839,-3.02887 4.186599,0.11049 5.801485,0.85058 6.124613,0.98577 0.1371,0.41213 0.371243,1.63413 0.195977,4.7645 -0.293897,5.24921 -2.364895,14.41476 -6.94021,26.75043 -3.630836,9.79227 -2.725017,16.20648 -2.725017,16.52789 h 33.237765 47.612143 v -47.61197 -31.74026 c -23.4668,0 -38.459809,-1.93243 -46.182791,-4.29626 -7.722982,-2.36383 -6.709449,-2.96931 -6.834593,-3.35275 -0.125137,-0.38346 -0.200832,-4.74273 1.337814,-11.93707 1.538645,-7.19434 4.067427,-16.73454 4.067427,-28.024884 -7.2e-5,-3.54e-4 7.8e-5,-8.41e-4 0,-0.0012 z"
       sodipodi:nodetypes="ccccccscsccccccsssccc" />
    <path
       id="path16199-5"
       style="color:#000000;font-variation-settings:normal;opacity:1;vector-effect:none;fill:#b1e2f7;fill-opacity:1;stroke-width:1.2381;stroke-linecap:butt;stroke-linejoin:miter;stroke-miterlimit:10;stroke-dasharray:none;stroke-dashoffset:0;stroke-opacity:1;-inkscape-stroke:none;stop-color:#000000;stop-opacity:1"
       d="m 0.32411597,80.831283 v 71.397087 c 8.41e-6,0.007 0.001202,0.0142 0.001202,0.0211 6.36517683,0 13.62939303,3.85524 23.71570803,1.7814 l 0.01056,-0.002 0.007,-0.002 c 10.670476,-2.219 19.523532,-3.35997 25.933665,-3.19081 6.410136,0.16916 9.834781,1.59279 11.479391,3.20137 1.644622,1.60858 2.925686,4.34121 2.557105,10.92432 -0.368575,6.58309 -2.69712,16.31795 -7.424873,29.06461 v 0.002 c -2.469725,6.66078 -0.732771,11.84079 -0.732278,13.76776 h 71.417014 v -71.417 c -23.85452,0 -39.395273,-1.85411 -48.5052,-4.64245 -9.109914,-2.78834 -11.055667,-5.41596 -12.055591,-8.47988 -0.999923,-3.06392 -0.459561,-8.66283 1.121889,-16.0573 1.58145,-7.394477 3.892576,-16.339764 3.892576,-26.366694 H 55.871611 c -3.79e-4,-4.14e-4 -6.01e-4,-7.81e-4 -0.0012,-0.0012 z" />
    <path
       id="path16194-71"
       style="color:#000000;font-variation-settings:normal;opacity:1;vector-effect:none;fill:#dcf1f9;fill-opacity:1;stroke-width:1.2381;stroke-linecap:butt;stroke-linejoin:miter;stroke-miterlimit:10;stroke-dasharray:none;stroke-dashoffset:0;stroke-opacity:1;-inkscape-stroke:none;stop-color:#000000;stop-opacity:1"
       d="m 0.32411597,80.831283 v 60.506797 c 3.575e-4,1.4e-4 8.4118e-4,-1.2e-4 0.001202,0 v 5.95211 c 7.64405683,0 14.95581503,3.47835 22.71821503,1.88233 h 0.0035 l 0.0023,-0.001 c 10.857997,-2.25798 19.994223,-3.48209 27.074329,-3.29524 7.080105,0.18683 11.900545,1.76417 14.815716,4.61546 2.915172,2.85128 4.455692,7.3297 4.040437,14.74648 -0.415255,7.41676 -2.902271,17.5092 -7.725295,30.51275 -1.744398,4.70458 -0.423955,9.11565 -0.423642,12.04502 H 127.2887 v -62.44663 -4.0111 c -24.09686,0 -39.978899,-1.80589 -49.955668,-4.85955 -9.976764,-3.05366 -13.773667,-6.94555 -15.320328,-11.68476 -1.546667,-4.73922 -0.621272,-11.11246 0.986927,-18.63201 1.6082,-7.519564 3.783439,-16.092011 3.783439,-25.329304 -22.034939,0.02187 -44.33509,-0.0012 -66.45890476,-0.0012 z"
       sodipodi:nodetypes="cccccccssscccccssscc" />
    <path
       class="st1"
       d="M 63.806624,80.831712 H 0.32441604 v 126.964418 0 -63.48221 c 8.41139256,0 15.75152296,3.25347 22.11958196,1.94414 43.882076,-9.12556 61.121463,-2.10284 41.600685,50.52787 -1.309321,3.5312 -0.238059,7.479 -0.238059,11.0102 h 63.482206 v -63.48221 c -96.96907,0 -63.482206,-28.42812 -63.482206,-63.482208 z"
       id="path16209-2"
       style="fill:#cddca5;fill-opacity:1;stroke-width:0.396764;stroke-miterlimit:10" />
  </g>
  <g
     id="g16718"
     transform="translate(-23.38428,-79.007684)" />
  <path
     d="m -2.2096161,36.303238 c -1.16982,1.104403 -5.4603945,-1.591754 -5.4603945,-1.591754 l -0.4839088,2.196747 c 0,0 4.3819127,1.729095 6.3913278,0.8378 C 8.360892,45.132406 15.924488,42.00502 21.799502,29.10511 14.812649,24.523176 9.395753,24.061386 5.4198013,25.479696 1.7288925,26.79643 -0.49977655,31.039553 -2.2096161,36.303238 Z M 1.5335107,35.30027 c 1.8832086,-3.650891 9.6762243,-6.797511 16.8792713,-5.12449 0,0 -4.017781,-0.11382 -8.239459,1.146102 -3.2972738,0.984234 -6.4465688,2.256337 -8.6398123,3.978388 z"
     style="clip-rule:evenodd;fill:#225500;fill-rule:evenodd;stroke-width:0.0986321;stroke-linejoin:round;stroke-miterlimit:2"
     id="path11712-1" />
  <path
     d="m 61.552294,100.06514 c -1.16982,1.10441 -5.460395,-1.591751 -5.460395,-1.591751 l -0.483909,2.196751 c 0,0 4.381913,1.72909 6.391328,0.8378 10.123485,7.38637 17.687081,4.25899 23.562094,-8.640924 -6.986853,-4.581935 -12.403749,-5.043725 -16.379701,-3.625415 -3.690909,1.316734 -5.919578,5.559857 -7.629417,10.823539 z m 3.743126,-1.002965 c 1.883209,-3.650891 9.676224,-6.797511 16.879272,-5.12449 0,0 -4.017781,-0.11382 -8.23946,1.146102 -3.297273,0.984234 -6.446568,2.256337 -8.639812,3.978388 z"
     style="clip-rule:evenodd;fill:#225500;fill-rule:evenodd;stroke-width:0.0986321;stroke-linejoin:round;stroke-miterlimit:2"
     id="path11712-2" />
  <path
     d="m 125.31419,100.06515 c -1.16982,1.1044 -5.46039,-1.591757 -5.46039,-1.591757 l -0.48391,2.196747 c 0,0 4.38191,1.7291 6.39133,0.8378 10.12348,7.38637 17.68708,4.25899 23.56209,-8.640921 -6.98685,-4.581935 -12.40375,-5.043724 -16.3797,-3.625414 -3.69091,1.316734 -5.91958,5.559857 -7.62942,10.823545 z m 3.74313,-1.002971 c 1.88321,-3.650891 9.67623,-6.797511 16.87927,-5.12449 0,0 -4.01778,-0.11382 -8.23946,1.146102 -3.29727,0.984234 -6.44657,2.256337 -8.63981,3.978388 z"
     style="clip-rule:evenodd;fill:#225500;fill-rule:evenodd;stroke-width:0.0986321;stroke-linejoin:round;stroke-miterlimit:2"
     id="path11712-0" />
  <path
     d="m 61.552294,162.58895 c -1.16982,1.1044 -5.460395,-1.59176 -5.460395,-1.59176 l -0.483908,2.19675 c 0,0 4.381912,1.7291 6.391327,0.8378 10.123484,7.38637 17.68708,4.25899 23.562094,-8.64092 -6.986853,-4.58194 -12.403749,-5.04372 -16.379701,-3.62541 -3.690909,1.31673 -5.919578,5.55985 -7.629417,10.82354 z m 3.743127,-1.00297 c 1.883208,-3.65089 9.676224,-6.79751 16.879271,-5.12449 0,0 -4.017781,-0.11382 -8.239459,1.1461 -3.297274,0.98423 -6.446569,2.25634 -8.639812,3.97839 z"
     style="clip-rule:evenodd;fill:#225500;fill-rule:evenodd;stroke-width:0.0986321;stroke-linejoin:round;stroke-miterlimit:2"
     id="path11712-7" />
  <path
     d="m 125.31419,162.58895 c -1.16982,1.1044 -5.46039,-1.59176 -5.46039,-1.59176 l -0.48391,2.19675 c 0,0 4.38191,1.7291 6.39133,0.8378 10.12348,7.38637 17.68708,4.25899 23.56209,-8.64092 -6.98685,-4.58194 -12.40375,-5.04372 -16.3797,-3.62541 -3.69091,1.31673 -5.91958,5.55985 -7.62942,10.82354 z m 3.74313,-1.00297 c 1.88321,-3.65089 9.67622,-6.79751 16.87927,-5.12449 0,0 -4.01778,-0.11382 -8.23946,1.1461 -3.29727,0.98423 -6.44657,2.25634 -8.63981,3.97839 z"
     style="clip-rule:evenodd;fill:#225500;fill-rule:evenodd;stroke-width:0.0986321;stroke-linejoin:round;stroke-miterlimit:2"
     id="path11712-9" />
  <path
     d="m 61.552294,231.30324 c -1.16982,1.1044 -5.460395,-1.59176 -5.460395,-1.59176 l -0.483908,2.19675 c 0,0 4.381912,1.7291 6.391327,0.8378 10.123484,7.38637 17.687079,4.25899 23.562094,-8.64092 -6.986853,-4.58194 -12.403749,-5.04372 -16.379701,-3.62541 -3.690909,1.31673 -5.919578,5.55985 -7.629417,10.82354 z m 3.743127,-1.00297 c 1.883208,-3.65089 9.676224,-6.79751 16.879271,-5.12449 0,0 -4.017781,-0.11382 -8.239459,1.1461 -3.297274,0.98423 -6.446569,2.25634 -8.639812,3.97839 z"
     style="clip-rule:evenodd;fill:#225500;fill-rule:evenodd;stroke-width:0.0986321;stroke-linejoin:round;stroke-miterlimit:2"
     id="path11712-22" />
  <path
     d="m 125.31419,231.30324 c -1.16982,1.1044 -5.46039,-1.59176 -5.46039,-1.59176 l -0.48391,2.19675 c 0,0 4.38191,1.7291 6.39133,0.8378 10.12348,7.38637 17.68708,4.25899 23.56209,-8.64092 -6.98685,-4.58194 -12.40375,-5.04372 -16.3797,-3.62541 -3.69091,1.31673 -5.91958,5.55985 -7.62942,10.82354 z m 3.74313,-1.00297 c 1.88321,-3.65089 9.67622,-6.79751 16.87927,-5.12449 0,0 -4.01778,-0.11382 -8.23946,1.1461 -3.29727,0.98423 -6.44657,2.25634 -8.63981,3.97839 z"
     style="clip-rule:evenodd;fill:#225500;fill-rule:evenodd;stroke-width:0.0986321;stroke-linejoin:round;stroke-miterlimit:2"
     id="path11712-07" />
  <path
     d="m 190.31419,231.30324 c -1.16982,1.1044 -5.46039,-1.59176 -5.46039,-1.59176 l -0.48391,2.19675 c 0,0 4.38191,1.7291 6.39133,0.8378 10.12348,7.38637 17.68708,4.25899 23.56209,-8.64092 -6.98685,-4.58194 -12.40375,-5.04372 -16.3797,-3.62541 -3.69091,1.31673 -5.91958,5.55985 -7.62942,10.82354 z m 3.74313,-1.00297 c 1.88321,-3.65089 9.67622,-6.79751 16.87927,-5.12449 0,0 -4.01778,-0.11382 -8.23946,1.1461 -3.29727,0.98423 -6.44657,2.25634 -8.63981,3.97839 z"
     style="clip-rule:evenodd;fill:#225500;fill-rule:evenodd;stroke-width:0.0986321;stroke-linejoin:round;stroke-miterlimit:2"
     id="path11712-076" />
  <path
     d="m 383.45705,85.827047 c -1.16982,1.104403 -5.46039,-1.591754 -5.46039,-1.591754 l -0.48391,2.196747 c 0,0 4.38191,1.729095 6.39133,0.8378 10.12348,7.386375 17.68708,4.258989 23.56209,-8.640921 -6.98685,-4.581934 -12.40375,-5.043724 -16.3797,-3.625414 -3.69091,1.316734 -5.91958,5.559857 -7.62942,10.823542 z m 3.74313,-1.002968 c 1.88321,-3.650891 9.67622,-6.797511 16.87927,-5.12449 0,0 -4.01778,-0.11382 -8.23946,1.146102 -3.29727,0.984234 -6.44657,2.256337 -8.63981,3.978388 z"
     style="clip-rule:evenodd;fill:#225500;fill-rule:evenodd;stroke-width:0.0986321;stroke-linejoin:round;stroke-miterlimit:2"
     id="path11712-3" />
  <path
     d="m 383.45705,20.208 c -1.16982,1.104403 -5.46039,-1.591754 -5.46039,-1.591754 l -0.48391,2.196747 c 0,0 4.38191,1.729095 6.39133,0.8378 10.12348,7.386375 17.68708,4.258989 23.56209,-8.640921 -6.98685,-4.5819345 -12.40375,-5.0437237 -16.3797,-3.6254139 -3.69091,1.3167339 -5.91958,5.5598569 -7.62942,10.8235419 z m 3.74313,-1.002968 c 1.88321,-3.650891 9.67622,-6.797511 16.87927,-5.12449 0,0 -4.01778,-0.11382 -8.23946,1.146102 -3.29727,0.984234 -6.44657,2.256337 -8.63981,3.978388 z"
     style="clip-rule:evenodd;fill:#225500;fill-rule:evenodd;stroke-width:0.0986321;stroke-linejoin:round;stroke-miterlimit:2"
     id="path11712-220" />
  <path
     d="m 475.0761,20.208 c -1.16982,1.104403 -5.46039,-1.591754 -5.46039,-1.591754 l -0.48391,2.196747 c 0,0 4.38191,1.729095 6.39133,0.8378 10.12348,7.386375 17.68708,4.258989 23.56209,-8.640921 C 492.09837,8.4279375 486.68147,7.9661483 482.70552,9.3844581 479.01461,10.701192 476.78594,14.944315 475.0761,20.208 Z m 3.74313,-1.002968 c 1.88321,-3.650891 9.67622,-6.797511 16.87927,-5.12449 0,0 -4.01778,-0.11382 -8.23946,1.146102 -3.29727,0.984234 -6.44657,2.256337 -8.63981,3.978388 z"
     style="clip-rule:evenodd;fill:#225500;fill-rule:evenodd;stroke-width:0.0986321;stroke-linejoin:round;stroke-miterlimit:2"
     id="path11712-5" />
  <path
     d="m 541.31419,20.208 c -1.16982,1.104403 -5.46039,-1.591754 -5.46039,-1.591754 l -0.48391,2.196747 c 0,0 4.38191,1.729095 6.39133,0.8378 10.12348,7.386375 17.68708,4.258989 23.56209,-8.640921 C 558.33646,8.4279375 552.91956,7.9661483 548.94361,9.3844581 545.2527,10.701192 543.02403,14.944315 541.31419,20.208 Z m 3.74313,-1.002968 c 1.88321,-3.650891 9.67622,-6.797511 16.87927,-5.12449 0,0 -4.01778,-0.11382 -8.23946,1.146102 -3.29727,0.984234 -6.44657,2.256337 -8.63981,3.978388 z"
     style="clip-rule:evenodd;fill:#225500;fill-rule:evenodd;stroke-width:0.0986321;stroke-linejoin:round;stroke-miterlimit:2"
     id="path11712-54" />
  <path
     d="m 541.31419,85.827047 c -1.16982,1.104403 -5.46039,-1.591754 -5.46039,-1.591754 l -0.48391,2.196747 c 0,0 4.38191,1.729095 6.39133,0.8378 10.12348,7.386375 17.68708,4.258989 23.56209,-8.640921 -6.98685,-4.581934 -12.40375,-5.043724 -16.3797,-3.625414 -3.69091,1.316734 -5.91958,5.559857 -7.62942,10.823542 z m 3.74313,-1.002968 c 1.88321,-3.650891 9.67622,-6.797511 16.87927,-5.12449 0,0 -4.01778,-0.11382 -8.23946,1.146102 -3.29727,0.984234 -6.44657,2.256337 -8.63981,3.978388 z"
     style="clip-rule:evenodd;fill:#225500;fill-rule:evenodd;stroke-width:0.0986321;stroke-linejoin:round;stroke-miterlimit:2"
     id="path11712-14" />
  <path
     d="m 541.31419,179.92229 c -1.16982,1.1044 -5.46039,-1.59176 -5.46039,-1.59176 l -0.48391,2.19675 c 0,0 4.38191,1.7291 6.39133,0.8378 10.12348,7.38637 17.68708,4.25899 23.56209,-8.64092 -6.98685,-4.58194 -12.40375,-5.04372 -16.3797,-3.62541 -3.69091,1.31673 -5.91958,5.55985 -7.62942,10.82354 z m 3.74313,-1.00297 c 1.88321,-3.65089 9.67622,-6.79751 16.87927,-5.12449 0,0 -4.01778,-0.11382 -8.23946,1.1461 -3.29727,0.98423 -6.44657,2.25634 -8.63981,3.97839 z"
     style="clip-rule:evenodd;fill:#225500;fill-rule:evenodd;stroke-width:0.0986321;stroke-linejoin:round;stroke-miterlimit:2"
     id="path11712-74" />
  <path
     d="m 475.0761,179.92229 c -1.16982,1.1044 -5.46039,-1.59176 -5.46039,-1.59176 l -0.48391,2.19675 c 0,0 4.38191,1.7291 6.39133,0.8378 10.12348,7.38637 17.68708,4.25899 23.56209,-8.64092 -6.98685,-4.58194 -12.40375,-5.04372 -16.3797,-3.62541 -3.69091,1.31673 -5.91958,5.55985 -7.62942,10.82354 z m 3.74313,-1.00297 c 1.88321,-3.65089 9.67622,-6.79751 16.87927,-5.12449 0,0 -4.01778,-0.11382 -8.23946,1.1461 -3.29727,0.98423 -6.44657,2.25634 -8.63981,3.97839 z"
     style="clip-rule:evenodd;fill:#225500;fill-rule:evenodd;stroke-width:0.0986321;stroke-linejoin:round;stroke-miterlimit:2"
     id="path11712-8" />
  <path
     d="m 383.45705,179.92229 c -1.16982,1.1044 -5.46039,-1.59176 -5.46039,-1.59176 l -0.48391,2.19675 c 0,0 4.38191,1.7291 6.39133,0.8378 10.12348,7.38637 17.68708,4.25899 23.56209,-8.64092 -6.98685,-4.58194 -12.40375,-5.04372 -16.3797,-3.62541 -3.69091,1.31673 -5.91958,5.55985 -7.62942,10.82354 z m 3.74313,-1.00297 c 1.88321,-3.65089 9.67622,-6.79751 16.87927,-5.12449 0,0 -4.01778,-0.11382 -8.23946,1.1461 -3.29727,0.98423 -6.44657,2.25634 -8.63981,3.97839 z"
     style="clip-rule:evenodd;fill:#225500;fill-rule:evenodd;stroke-width:0.0986321;stroke-linejoin:round;stroke-miterlimit:2"
     id="path11712-8-8" />
  <path
     d="m 475.0761,246.16038 c -1.16982,1.1044 -5.46039,-1.59176 -5.46039,-1.59176 l -0.48391,2.19675 c 0,0 4.38191,1.7291 6.39133,0.8378 10.12348,7.38637 17.68708,4.25899 23.56209,-8.64092 -6.98685,-4.58194 -12.40375,-5.04372 -16.3797,-3.62541 -3.69091,1.31673 -5.91958,5.55985 -7.62942,10.82354 z m 3.74313,-1.00297 c 1.88321,-3.65089 9.67622,-6.79751 16.87927,-5.12449 0,0 -4.01778,-0.11382 -8.23946,1.1461 -3.29727,0.98423 -6.44657,2.25634 -8.63981,3.97839 z"
     style="clip-rule:evenodd;fill:#225500;fill-rule:evenodd;stroke-width:0.0986321;stroke-linejoin:round;stroke-miterlimit:2"
     id="path11712-35" />
  <path
     d="m 704.12372,85.827047 c -1.16982,1.104403 -5.46039,-1.591754 -5.46039,-1.591754 l -0.48391,2.196747 c 0,0 4.38191,1.729095 6.39133,0.8378 10.12348,7.386375 17.68708,4.258989 23.56209,-8.640921 -6.98685,-4.581934 -12.40375,-5.043724 -16.3797,-3.625414 -3.69091,1.316734 -5.91958,5.559857 -7.62942,10.823542 z m 3.74313,-1.002968 c 1.88321,-3.650891 9.67622,-6.797511 16.87927,-5.12449 0,0 -4.01778,-0.11382 -8.23946,1.146102 -3.29727,0.984234 -6.44657,2.256337 -8.63981,3.978388 z"
     style="clip-rule:evenodd;fill:#225500;fill-rule:evenodd;stroke-width:0.0986321;stroke-linejoin:round;stroke-miterlimit:2"
     id="path11712-71" />
  <path
     d="m 637.88562,85.827047 c -1.16982,1.104403 -5.46039,-1.591754 -5.46039,-1.591754 l -0.48391,2.196747 c 0,0 4.38191,1.729095 6.39133,0.8378 10.12348,7.386375 17.68708,4.258989 23.56209,-8.640921 -6.98685,-4.581934 -12.40375,-5.043724 -16.3797,-3.625414 -3.69091,1.316734 -5.91958,5.559857 -7.62942,10.823542 z m 3.74313,-1.002968 c 1.88321,-3.650891 9.67622,-6.797511 16.87927,-5.12449 0,0 -4.01778,-0.11382 -8.23946,1.146102 -3.29727,0.984234 -6.44657,2.256337 -8.63981,3.978388 z"
     style="clip-rule:evenodd;fill:#225500;fill-rule:evenodd;stroke-width:0.0986321;stroke-linejoin:round;stroke-miterlimit:2"
     id="path11712-09" />
  <path
     d="m 637.88562,246.16038 c -1.16982,1.1044 -5.46039,-1.59176 -5.46039,-1.59176 l -0.48391,2.19675 c 0,0 4.38191,1.7291 6.39133,0.8378 10.12348,7.38637 17.68708,4.25899 23.56209,-8.64092 -6.98685,-4.58194 -12.40375,-5.04372 -16.3797,-3.62541 -3.69091,1.31673 -5.91958,5.55985 -7.62942,10.82354 z m 3.74313,-1.00297 c 1.88321,-3.65089 9.67622,-6.79751 16.87927,-5.12449 0,0 -4.01778,-0.11382 -8.23946,1.1461 -3.29727,0.98423 -6.44657,2.25634 -8.63981,3.97839 z"
     style="clip-rule:evenodd;fill:#225500;fill-rule:evenodd;stroke-width:0.0986321;stroke-linejoin:round;stroke-miterlimit:2"
     id="path11712-4" />
  <path
     d="m 55.108511,35.907458 c 1.22462,1.171 3.1923,3.03712 5.33623,4.27577 1.65138,0.95405 3.41999,1.52411 5.07264,1.36824 0.87847,-0.0828 1.8324,-0.45618 2.80259,-1.05528 1.18472,-0.73228 2.43688,-1.81411 3.67649,-2.89882 1.12982,-0.98812 2.24707,-1.97933 3.3014,-2.63904 0.5146,-0.32146 0.98574,-0.57266 1.44201,-0.61165 0.99603,-0.085 1.97719,0.40194 2.91832,1.03173 1.75992,1.17805 3.30484,2.95046 4.27686,4.05333 l 2.12584,-1.33457 c -1.07607,-1.22089 -2.80854,-3.16654 -4.75599,-4.47052 -1.5312,-1.02517 -3.21107,-1.6431 -4.83261,-1.50471 -0.85194,0.0729 -1.79079,0.43911 -2.75137,1.03995 -1.15612,0.7233 -2.39343,1.79982 -3.63189,2.88319 -1.12754,0.98685 -2.25621,1.98057 -3.33457,2.64676 -0.53964,0.33342 -1.04246,0.59128 -1.53132,0.63742 -1.08156,0.102 -2.20074,-0.36672 -3.28151,-0.99112 -1.95363,-1.12872 -3.73069,-2.84333 -4.84656,-3.9103 z m 0,-7.23992 c 1.22462,1.17099 3.1923,3.03711 5.33623,4.27576 1.65138,0.95405 3.41999,1.52401 5.07264,1.36825 0.87847,-0.0829 1.8324,-0.45618 2.80259,-1.05538 1.18472,-0.73219 2.43688,-1.81401 3.67649,-2.89873 1.12982,-0.98822 2.24707,-1.97933 3.3014,-2.63914 0.5146,-0.32136 0.98574,-0.57265 1.44201,-0.61155 0.99603,-0.0851 1.97719,0.40185 2.91832,1.03174 1.75992,1.17795 3.30484,2.95036 4.27686,4.05322 l 2.12584,-1.33457 c -1.07607,-1.22089 -2.80854,-3.16644 -4.75599,-4.47042 -1.5312,-1.02517 -3.21107,-1.64319 -4.83261,-1.5047 -0.85194,0.0728 -1.79079,0.43899 -2.75137,1.03984 -1.15612,0.72331 -2.39343,1.79992 -3.63189,2.88329 -1.12754,0.98686 -2.25621,1.98049 -3.33457,2.64676 -0.53964,0.33333 -1.04246,0.59128 -1.53132,0.63732 -1.08156,0.102 -2.20074,-0.36672 -3.28151,-0.99112 -1.95363,-1.12862 -3.73069,-2.84323 -4.84656,-3.91029 z"
     style="clip-rule:evenodd;fill:#002255;fill-rule:evenodd;stroke-width:0.105051;stroke-linejoin:round;stroke-miterlimit:2"
     id="path11714-3" />
  <path
     d="m -8.6533987,99.669364 c 1.22462,1.170996 3.1923,3.037116 5.33623,4.275766 1.65138,0.95405 3.41999,1.52411 5.07264,1.36824 0.87847,-0.0828 1.8324,-0.45618 2.80259,-1.05528 1.18472,-0.73228 2.43688,-1.81411 3.67649,-2.89882 1.12982,-0.98812 2.2470697,-1.979326 3.3013997,-2.639036 0.5146,-0.32146 0.98574,-0.57266 1.44201,-0.61165 0.99603,-0.085 1.97719,0.40194 2.91832,1.03173 1.75992,1.178046 3.30484,2.950456 4.27686,4.053326 l 2.12584,-1.33457 c -1.07607,-1.22089 -2.80854,-3.166536 -4.75599,-4.470516 -1.5312,-1.02517 -3.21107,-1.6431 -4.83261,-1.50471 -0.85194,0.0729 -1.79079,0.43911 -2.7513697,1.03995 -1.15612,0.7233 -2.39343,1.79982 -3.63189,2.88319 -1.12754,0.986846 -2.25621,1.980566 -3.33457,2.646756 -0.53964,0.33342 -1.04246,0.59128 -1.53132,0.63742 -1.08156,0.102 -2.20074,-0.36672 -3.28151,-0.99112 -1.95363,-1.12872 -3.73069,-2.843326 -4.84656,-3.910296 z m 0,-7.23992 c 1.22462,1.17099 3.1923,3.03711 5.33623,4.27576 1.65138,0.95405 3.41999,1.52401 5.07264,1.36825 0.87847,-0.0829 1.8324,-0.45618 2.80259,-1.05538 1.18472,-0.73219 2.43688,-1.81401 3.67649,-2.89873 1.12982,-0.98822 2.2470697,-1.97933 3.3013997,-2.63914 0.5146,-0.32136 0.98574,-0.57265 1.44201,-0.61155 0.99603,-0.0851 1.97719,0.40185 2.91832,1.03174 1.75992,1.17795 3.30484,2.95036 4.27686,4.05322 l 2.12584,-1.33457 c -1.07607,-1.22089 -2.80854,-3.16644 -4.75599,-4.47042 -1.5312,-1.02517 -3.21107,-1.64319 -4.83261,-1.5047 -0.85194,0.0728 -1.79079,0.43899 -2.7513697,1.03984 -1.15612,0.72331 -2.39343,1.79992 -3.63189,2.88329 -1.12754,0.98686 -2.25621,1.98049 -3.33457,2.64676 -0.53964,0.33333 -1.04246,0.59128 -1.53132,0.63732 -1.08156,0.102 -2.20074,-0.36672 -3.28151,-0.99112 -1.95363,-1.12862 -3.73069,-2.84323 -4.84656,-3.91029 z"
     style="clip-rule:evenodd;fill:#002255;fill-rule:evenodd;stroke-width:0.105051;stroke-linejoin:round;stroke-miterlimit:2"
     id="path11714-7" />
  <path
     d="m 118.87041,35.907458 c 1.22462,1.171 3.1923,3.03712 5.33623,4.27577 1.65138,0.95405 3.41999,1.52411 5.07264,1.36824 0.87847,-0.0828 1.8324,-0.45618 2.80259,-1.05528 1.18472,-0.73228 2.43688,-1.81411 3.67649,-2.89882 1.12982,-0.98812 2.24707,-1.97933 3.3014,-2.63904 0.5146,-0.32146 0.98574,-0.57266 1.44201,-0.61165 0.99603,-0.085 1.97719,0.40194 2.91832,1.03173 1.75992,1.17805 3.30484,2.95046 4.27686,4.05333 l 2.12584,-1.33457 c -1.07607,-1.22089 -2.80854,-3.16654 -4.75599,-4.47052 -1.5312,-1.02517 -3.21107,-1.6431 -4.83261,-1.50471 -0.85194,0.0729 -1.79079,0.43911 -2.75137,1.03995 -1.15612,0.7233 -2.39343,1.79982 -3.63189,2.88319 -1.12754,0.98685 -2.25621,1.98057 -3.33457,2.64676 -0.53964,0.33342 -1.04246,0.59128 -1.53132,0.63742 -1.08156,0.102 -2.20074,-0.36672 -3.28151,-0.99112 -1.95363,-1.12872 -3.73069,-2.84333 -4.84656,-3.9103 z m 0,-7.23992 c 1.22462,1.17099 3.1923,3.03711 5.33623,4.27576 1.65138,0.95405 3.41999,1.52401 5.07264,1.36825 0.87847,-0.0829 1.8324,-0.45618 2.80259,-1.05538 1.18472,-0.73219 2.43688,-1.81401 3.67649,-2.89873 1.12982,-0.98822 2.24707,-1.97933 3.3014,-2.63914 0.5146,-0.32136 0.98574,-0.57265 1.44201,-0.61155 0.99603,-0.0851 1.97719,0.40185 2.91832,1.03174 1.75992,1.17795 3.30484,2.95036 4.27686,4.05322 l 2.12584,-1.33457 c -1.07607,-1.22089 -2.80854,-3.16644 -4.75599,-4.47042 -1.5312,-1.02517 -3.21107,-1.64319 -4.83261,-1.5047 -0.85194,0.0728 -1.79079,0.43899 -2.75137,1.03984 -1.15612,0.72331 -2.39343,1.79992 -3.63189,2.88329 -1.12754,0.98686 -2.25621,1.98049 -3.33457,2.64676 -0.53964,0.33333 -1.04246,0.59128 -1.53132,0.63732 -1.08156,0.102 -2.20074,-0.36672 -3.28151,-0.99112 -1.95363,-1.12862 -3.73069,-2.84323 -4.84656,-3.91029 z"
     style="clip-rule:evenodd;fill:#002255;fill-rule:evenodd;stroke-width:0.105051;stroke-linejoin:round;stroke-miterlimit:2"
     id="path11714-8" />
  <path
     d="m 183.87041,99.669364 c 1.22462,1.170996 3.1923,3.037116 5.33623,4.275766 1.65138,0.95405 3.41999,1.52411 5.07264,1.36824 0.87847,-0.0828 1.8324,-0.45618 2.80259,-1.05528 1.18472,-0.73228 2.43688,-1.81411 3.67649,-2.89882 1.12982,-0.98812 2.24707,-1.979326 3.3014,-2.639036 0.5146,-0.32146 0.98574,-0.57266 1.44201,-0.61165 0.99603,-0.085 1.97719,0.40194 2.91832,1.03173 1.75992,1.178046 3.30484,2.950456 4.27686,4.053326 l 2.12584,-1.33457 c -1.07607,-1.22089 -2.80854,-3.166536 -4.75599,-4.470516 -1.5312,-1.02517 -3.21107,-1.6431 -4.83261,-1.50471 -0.85194,0.0729 -1.79079,0.43911 -2.75137,1.03995 -1.15612,0.7233 -2.39343,1.79982 -3.63189,2.88319 -1.12754,0.986846 -2.25621,1.980566 -3.33457,2.646756 -0.53964,0.33342 -1.04246,0.59128 -1.53132,0.63742 -1.08156,0.102 -2.20074,-0.36672 -3.28151,-0.99112 -1.95363,-1.12872 -3.73069,-2.843326 -4.84656,-3.910296 z m 0,-7.23992 c 1.22462,1.17099 3.1923,3.03711 5.33623,4.27576 1.65138,0.95405 3.41999,1.52401 5.07264,1.36825 0.87847,-0.0829 1.8324,-0.45618 2.80259,-1.05538 1.18472,-0.73219 2.43688,-1.81401 3.67649,-2.89873 1.12982,-0.98822 2.24707,-1.97933 3.3014,-2.63914 0.5146,-0.32136 0.98574,-0.57265 1.44201,-0.61155 0.99603,-0.0851 1.97719,0.40185 2.91832,1.03174 1.75992,1.17795 3.30484,2.95036 4.27686,4.05322 l 2.12584,-1.33457 c -1.07607,-1.22089 -2.80854,-3.16644 -4.75599,-4.47042 -1.5312,-1.02517 -3.21107,-1.64319 -4.83261,-1.5047 -0.85194,0.0728 -1.79079,0.43899 -2.75137,1.03984 -1.15612,0.72331 -2.39343,1.79992 -3.63189,2.88329 -1.12754,0.98686 -2.25621,1.98049 -3.33457,2.64676 -0.53964,0.33333 -1.04246,0.59128 -1.53132,0.63732 -1.08156,0.102 -2.20074,-0.36672 -3.28151,-0.99112 -1.95363,-1.12862 -3.73069,-2.84323 -4.84656,-3.91029 z"
     style="clip-rule:evenodd;fill:#002255;fill-rule:evenodd;stroke-width:0.105051;stroke-linejoin:round;stroke-miterlimit:2"
     id="path11714-0" />
  <path
     d="m 183.87041,162.19317 c 1.22462,1.171 3.1923,3.03712 5.33623,4.27577 1.65138,0.95405 3.41999,1.52411 5.07264,1.36824 0.87847,-0.0828 1.8324,-0.45618 2.80259,-1.05528 1.18472,-0.73228 2.43688,-1.81411 3.67649,-2.89882 1.12982,-0.98812 2.24707,-1.97933 3.3014,-2.63904 0.5146,-0.32146 0.98574,-0.57266 1.44201,-0.61165 0.99603,-0.085 1.97719,0.40194 2.91832,1.03173 1.75992,1.17805 3.30484,2.95046 4.27686,4.05333 l 2.12584,-1.33457 c -1.07607,-1.22089 -2.80854,-3.16654 -4.75599,-4.47052 -1.5312,-1.02517 -3.21107,-1.6431 -4.83261,-1.50471 -0.85194,0.0729 -1.79079,0.43911 -2.75137,1.03995 -1.15612,0.7233 -2.39343,1.79982 -3.63189,2.88319 -1.12754,0.98685 -2.25621,1.98057 -3.33457,2.64676 -0.53964,0.33342 -1.04246,0.59128 -1.53132,0.63742 -1.08156,0.102 -2.20074,-0.36672 -3.28151,-0.99112 -1.95363,-1.12872 -3.73069,-2.84333 -4.84656,-3.9103 z m 0,-7.23992 c 1.22462,1.17099 3.1923,3.03711 5.33623,4.27576 1.65138,0.95405 3.41999,1.52401 5.07264,1.36825 0.87847,-0.0829 1.8324,-0.45618 2.80259,-1.05538 1.18472,-0.73219 2.43688,-1.81401 3.67649,-2.89873 1.12982,-0.98822 2.24707,-1.97933 3.3014,-2.63914 0.5146,-0.32136 0.98574,-0.57265 1.44201,-0.61155 0.99603,-0.0851 1.97719,0.40185 2.91832,1.03174 1.75992,1.17795 3.30484,2.95036 4.27686,4.05322 l 2.12584,-1.33457 c -1.07607,-1.22089 -2.80854,-3.16644 -4.75599,-4.47042 -1.5312,-1.02517 -3.21107,-1.64319 -4.83261,-1.5047 -0.85194,0.0728 -1.79079,0.43899 -2.75137,1.03984 -1.15612,0.72331 -2.39343,1.79992 -3.63189,2.88329 -1.12754,0.98686 -2.25621,1.98049 -3.33457,2.64676 -0.53964,0.33333 -1.04246,0.59128 -1.53132,0.63732 -1.08156,0.102 -2.20074,-0.36672 -3.28151,-0.99112 -1.95363,-1.12862 -3.73069,-2.84323 -4.84656,-3.91029 z"
     style="clip-rule:evenodd;fill:#002255;fill-rule:evenodd;stroke-width:0.105051;stroke-linejoin:round;stroke-miterlimit:2"
     id="path11714-9" />
  <path
     d="m -8.6533987,162.19317 c 1.22462,1.171 3.1923,3.03712 5.33623,4.27577 1.65138,0.95405 3.41999,1.52411 5.07264,1.36824 0.87847,-0.0828 1.8324,-0.45618 2.80259,-1.05528 1.18472,-0.73228 2.43688,-1.81411 3.67649,-2.89882 1.12982,-0.98812 2.2470697,-1.97933 3.3013997,-2.63904 0.5146,-0.32146 0.98574,-0.57266 1.44201,-0.61165 0.99603,-0.085 1.97719,0.40194 2.91832,1.03173 1.75992,1.17805 3.30484,2.95046 4.27686,4.05333 l 2.12584,-1.33457 c -1.07607,-1.22089 -2.80854,-3.16654 -4.75599,-4.47052 -1.5312,-1.02517 -3.21107,-1.6431 -4.83261,-1.50471 -0.85194,0.0729 -1.79079,0.43911 -2.7513697,1.03995 -1.15612,0.7233 -2.39343,1.79982 -3.63189,2.88319 -1.12754,0.98685 -2.25621,1.98057 -3.33457,2.64676 -0.53964,0.33342 -1.04246,0.59128 -1.53132,0.63742 -1.08156,0.102 -2.20074,-0.36672 -3.28151,-0.99112 -1.95363,-1.12872 -3.73069,-2.84333 -4.84656,-3.9103 z m 0,-7.23992 c 1.22462,1.17099 3.1923,3.03711 5.33623,4.27576 1.65138,0.95405 3.41999,1.52401 5.07264,1.36825 0.87847,-0.0829 1.8324,-0.45618 2.80259,-1.05538 1.18472,-0.73219 2.43688,-1.81401 3.67649,-2.89873 1.12982,-0.98822 2.2470697,-1.97933 3.3013997,-2.63914 0.5146,-0.32136 0.98574,-0.57265 1.44201,-0.61155 0.99603,-0.0851 1.97719,0.40185 2.91832,1.03174 1.75992,1.17795 3.30484,2.95036 4.27686,4.05322 l 2.12584,-1.33457 c -1.07607,-1.22089 -2.80854,-3.16644 -4.75599,-4.47042 -1.5312,-1.02517 -3.21107,-1.64319 -4.83261,-1.5047 -0.85194,0.0728 -1.79079,0.43899 -2.7513697,1.03984 -1.15612,0.72331 -2.39343,1.79992 -3.63189,2.88329 -1.12754,0.98686 -2.25621,1.98049 -3.33457,2.64676 -0.53964,0.33333 -1.04246,0.59128 -1.53132,0.63732 -1.08156,0.102 -2.20074,-0.36672 -3.28151,-0.99112 -1.95363,-1.12862 -3.73069,-2.84323 -4.84656,-3.91029 z"
     style="clip-rule:evenodd;fill:#002255;fill-rule:evenodd;stroke-width:0.105051;stroke-linejoin:round;stroke-miterlimit:2"
     id="path11714-6" />
  <path
     d="m 314.09108,19.81222 c 1.22462,1.171 3.1923,3.03712 5.33623,4.27577 1.65138,0.95405 3.41999,1.52411 5.07264,1.36824 0.87847,-0.0828 1.8324,-0.45618 2.80259,-1.05528 1.18472,-0.73228 2.43688,-1.81411 3.67649,-2.89882 1.12982,-0.98812 2.24707,-1.97933 3.3014,-2.63904 0.5146,-0.32146 0.98574,-0.57266 1.44201,-0.61165 0.99603,-0.085 1.97719,0.40194 2.91832,1.03173 1.75992,1.17805 3.30484,2.95046 4.27686,4.05333 l 2.12584,-1.33457 c -1.07607,-1.22089 -2.80854,-3.16654 -4.75599,-4.47052 -1.5312,-1.02517 -3.21107,-1.6431 -4.83261,-1.50471 -0.85194,0.0729 -1.79079,0.43911 -2.75137,1.03995 -1.15612,0.7233 -2.39343,1.79982 -3.63189,2.88319 -1.12754,0.98685 -2.25621,1.98057 -3.33457,2.64676 -0.53964,0.33342 -1.04246,0.59128 -1.53132,0.63742 -1.08156,0.102 -2.20074,-0.36672 -3.28151,-0.99112 -1.95363,-1.12872 -3.73069,-2.84333 -4.84656,-3.9103 z m 0,-7.23992 c 1.22462,1.17099 3.1923,3.03711 5.33623,4.27576 1.65138,0.95405 3.41999,1.52401 5.07264,1.36825 0.87847,-0.0829 1.8324,-0.45618 2.80259,-1.05538 1.18472,-0.73219 2.43688,-1.81401 3.67649,-2.89873 1.12982,-0.98822 2.24707,-1.97933 3.3014,-2.63914 0.5146,-0.32136 0.98574,-0.57265 1.44201,-0.61155 0.99603,-0.0851 1.97719,0.40185 2.91832,1.03174 1.75992,1.17795 3.30484,2.95036 4.27686,4.05322 l 2.12584,-1.33457 c -1.07607,-1.22089 -2.80854,-3.16644 -4.75599,-4.47042 -1.5312,-1.0251697 -3.21107,-1.6431897 -4.83261,-1.5046997 -0.85194,0.0728 -1.79079,0.43899 -2.75137,1.03984 -1.15612,0.7233097 -2.39343,1.7999197 -3.63189,2.8832897 -1.12754,0.98686 -2.25621,1.98049 -3.33457,2.64676 -0.53964,0.33333 -1.04246,0.59128 -1.53132,0.63732 -1.08156,0.102 -2.20074,-0.36672 -3.28151,-0.99112 -1.95363,-1.12862 -3.73069,-2.84323 -4.84656,-3.91029 z"
     style="clip-rule:evenodd;fill:#002255;fill-rule:evenodd;stroke-width:0.105051;stroke-linejoin:round;stroke-miterlimit:2"
     id="path11714-39" />
  <path
     d="m 314.09108,85.431267 c 1.22462,1.171 3.1923,3.03712 5.33623,4.27577 1.65138,0.95405 3.41999,1.52411 5.07264,1.36824 0.87847,-0.0828 1.8324,-0.45618 2.80259,-1.05528 1.18472,-0.73228 2.43688,-1.81411 3.67649,-2.89882 1.12982,-0.98812 2.24707,-1.97933 3.3014,-2.63904 0.5146,-0.32146 0.98574,-0.57266 1.44201,-0.61165 0.99603,-0.085 1.97719,0.40194 2.91832,1.03173 1.75992,1.17805 3.30484,2.95046 4.27686,4.05333 l 2.12584,-1.33457 c -1.07607,-1.22089 -2.80854,-3.16654 -4.75599,-4.47052 -1.5312,-1.02517 -3.21107,-1.6431 -4.83261,-1.50471 -0.85194,0.0729 -1.79079,0.43911 -2.75137,1.03995 -1.15612,0.7233 -2.39343,1.79982 -3.63189,2.88319 -1.12754,0.98685 -2.25621,1.98057 -3.33457,2.64676 -0.53964,0.33342 -1.04246,0.59128 -1.53132,0.63742 -1.08156,0.102 -2.20074,-0.36672 -3.28151,-0.99112 -1.95363,-1.12872 -3.73069,-2.84333 -4.84656,-3.9103 z m 0,-7.23992 c 1.22462,1.17099 3.1923,3.03711 5.33623,4.27576 1.65138,0.95405 3.41999,1.52401 5.07264,1.36825 0.87847,-0.0829 1.8324,-0.45618 2.80259,-1.05538 1.18472,-0.73219 2.43688,-1.81401 3.67649,-2.89873 1.12982,-0.98822 2.24707,-1.97933 3.3014,-2.63914 0.5146,-0.32136 0.98574,-0.57265 1.44201,-0.61155 0.99603,-0.0851 1.97719,0.40185 2.91832,1.03174 1.75992,1.17795 3.30484,2.95036 4.27686,4.05322 l 2.12584,-1.33457 c -1.07607,-1.22089 -2.80854,-3.16644 -4.75599,-4.47042 -1.5312,-1.02517 -3.21107,-1.64319 -4.83261,-1.5047 -0.85194,0.0728 -1.79079,0.43899 -2.75137,1.03984 -1.15612,0.72331 -2.39343,1.79992 -3.63189,2.88329 -1.12754,0.98686 -2.25621,1.98049 -3.33457,2.64676 -0.53964,0.33333 -1.04246,0.59128 -1.53132,0.63732 -1.08156,0.102 -2.20074,-0.36672 -3.28151,-0.99112 -1.95363,-1.12862 -3.73069,-2.84323 -4.84656,-3.91029 z"
     style="clip-rule:evenodd;fill:#002255;fill-rule:evenodd;stroke-width:0.105051;stroke-linejoin:round;stroke-miterlimit:2"
     id="path11714-68" />
  <path
     d="m 314.09108,179.52651 c 1.22462,1.171 3.1923,3.03712 5.33623,4.27577 1.65138,0.95405 3.41999,1.52411 5.07264,1.36824 0.87847,-0.0828 1.8324,-0.45618 2.80259,-1.05528 1.18472,-0.73228 2.43688,-1.81411 3.67649,-2.89882 1.12982,-0.98812 2.24707,-1.97933 3.3014,-2.63904 0.5146,-0.32146 0.98574,-0.57266 1.44201,-0.61165 0.99603,-0.085 1.97719,0.40194 2.91832,1.03173 1.75992,1.17805 3.30484,2.95046 4.27686,4.05333 l 2.12584,-1.33457 c -1.07607,-1.22089 -2.80854,-3.16654 -4.75599,-4.47052 -1.5312,-1.02517 -3.21107,-1.6431 -4.83261,-1.50471 -0.85194,0.0729 -1.79079,0.43911 -2.75137,1.03995 -1.15612,0.7233 -2.39343,1.79982 -3.63189,2.88319 -1.12754,0.98685 -2.25621,1.98057 -3.33457,2.64676 -0.53964,0.33342 -1.04246,0.59128 -1.53132,0.63742 -1.08156,0.102 -2.20074,-0.36672 -3.28151,-0.99112 -1.95363,-1.12872 -3.73069,-2.84333 -4.84656,-3.9103 z m 0,-7.23992 c 1.22462,1.17099 3.1923,3.03711 5.33623,4.27576 1.65138,0.95405 3.41999,1.52401 5.07264,1.36825 0.87847,-0.0829 1.8324,-0.45618 2.80259,-1.05538 1.18472,-0.73219 2.43688,-1.81401 3.67649,-2.89873 1.12982,-0.98822 2.24707,-1.97933 3.3014,-2.63914 0.5146,-0.32136 0.98574,-0.57265 1.44201,-0.61155 0.99603,-0.0851 1.97719,0.40185 2.91832,1.03174 1.75992,1.17795 3.30484,2.95036 4.27686,4.05322 l 2.12584,-1.33457 c -1.07607,-1.22089 -2.80854,-3.16644 -4.75599,-4.47042 -1.5312,-1.02517 -3.21107,-1.64319 -4.83261,-1.5047 -0.85194,0.0728 -1.79079,0.43899 -2.75137,1.03984 -1.15612,0.72331 -2.39343,1.79992 -3.63189,2.88329 -1.12754,0.98686 -2.25621,1.98049 -3.33457,2.64676 -0.53964,0.33333 -1.04246,0.59128 -1.53132,0.63732 -1.08156,0.102 -2.20074,-0.36672 -3.28151,-0.99112 -1.95363,-1.12862 -3.73069,-2.84323 -4.84656,-3.91029 z"
     style="clip-rule:evenodd;fill:#002255;fill-rule:evenodd;stroke-width:0.105051;stroke-linejoin:round;stroke-miterlimit:2"
     id="path11714-5" />
  <path
     d="m 314.09108,245.7646 c 1.22462,1.171 3.1923,3.03712 5.33623,4.27577 1.65138,0.95405 3.41999,1.52411 5.07264,1.36824 0.87847,-0.0828 1.8324,-0.45618 2.80259,-1.05528 1.18472,-0.73228 2.43688,-1.81411 3.67649,-2.89882 1.12982,-0.98812 2.24707,-1.97933 3.3014,-2.63904 0.5146,-0.32146 0.98574,-0.57266 1.44201,-0.61165 0.99603,-0.085 1.97719,0.40194 2.91832,1.03173 1.75992,1.17805 3.30484,2.95046 4.27686,4.05333 l 2.12584,-1.33457 c -1.07607,-1.22089 -2.80854,-3.16654 -4.75599,-4.47052 -1.5312,-1.02517 -3.21107,-1.6431 -4.83261,-1.50471 -0.85194,0.0729 -1.79079,0.43911 -2.75137,1.03995 -1.15612,0.7233 -2.39343,1.79982 -3.63189,2.88319 -1.12754,0.98685 -2.25621,1.98057 -3.33457,2.64676 -0.53964,0.33342 -1.04246,0.59128 -1.53132,0.63742 -1.08156,0.102 -2.20074,-0.36672 -3.28151,-0.99112 -1.95363,-1.12872 -3.73069,-2.84333 -4.84656,-3.9103 z m 0,-7.23992 c 1.22462,1.17099 3.1923,3.03711 5.33623,4.27576 1.65138,0.95405 3.41999,1.52401 5.07264,1.36825 0.87847,-0.0829 1.8324,-0.45618 2.80259,-1.05538 1.18472,-0.73219 2.43688,-1.81401 3.67649,-2.89873 1.12982,-0.98822 2.24707,-1.97933 3.3014,-2.63914 0.5146,-0.32136 0.98574,-0.57265 1.44201,-0.61155 0.99603,-0.0851 1.97719,0.40185 2.91832,1.03174 1.75992,1.17795 3.30484,2.95036 4.27686,4.05322 l 2.12584,-1.33457 c -1.07607,-1.22089 -2.80854,-3.16644 -4.75599,-4.47042 -1.5312,-1.02517 -3.21107,-1.64319 -4.83261,-1.5047 -0.85194,0.0728 -1.79079,0.43899 -2.75137,1.03984 -1.15612,0.72331 -2.39343,1.79992 -3.63189,2.88329 -1.12754,0.98686 -2.25621,1.98049 -3.33457,2.64676 -0.53964,0.33333 -1.04246,0.59128 -1.53132,0.63732 -1.08156,0.102 -2.20074,-0.36672 -3.28151,-0.99112 -1.95363,-1.12862 -3.73069,-2.84323 -4.84656,-3.91029 z"
     style="clip-rule:evenodd;fill:#002255;fill-rule:evenodd;stroke-width:0.105051;stroke-linejoin:round;stroke-miterlimit:2"
     id="path11714-31" />
  <path
     d="m 377.01327,245.7646 c 1.22462,1.171 3.1923,3.03712 5.33623,4.27577 1.65138,0.95405 3.41999,1.52411 5.07264,1.36824 0.87847,-0.0828 1.8324,-0.45618 2.80259,-1.05528 1.18472,-0.73228 2.43688,-1.81411 3.67649,-2.89882 1.12982,-0.98812 2.24707,-1.97933 3.3014,-2.63904 0.5146,-0.32146 0.98574,-0.57266 1.44201,-0.61165 0.99603,-0.085 1.97719,0.40194 2.91832,1.03173 1.75992,1.17805 3.30484,2.95046 4.27686,4.05333 l 2.12584,-1.33457 c -1.07607,-1.22089 -2.80854,-3.16654 -4.75599,-4.47052 -1.5312,-1.02517 -3.21107,-1.6431 -4.83261,-1.50471 -0.85194,0.0729 -1.79079,0.43911 -2.75137,1.03995 -1.15612,0.7233 -2.39343,1.79982 -3.63189,2.88319 -1.12754,0.98685 -2.25621,1.98057 -3.33457,2.64676 -0.53964,0.33342 -1.04246,0.59128 -1.53132,0.63742 -1.08156,0.102 -2.20074,-0.36672 -3.28151,-0.99112 -1.95363,-1.12872 -3.73069,-2.84333 -4.84656,-3.9103 z m 0,-7.23992 c 1.22462,1.17099 3.1923,3.03711 5.33623,4.27576 1.65138,0.95405 3.41999,1.52401 5.07264,1.36825 0.87847,-0.0829 1.8324,-0.45618 2.80259,-1.05538 1.18472,-0.73219 2.43688,-1.81401 3.67649,-2.89873 1.12982,-0.98822 2.24707,-1.97933 3.3014,-2.63914 0.5146,-0.32136 0.98574,-0.57265 1.44201,-0.61155 0.99603,-0.0851 1.97719,0.40185 2.91832,1.03174 1.75992,1.17795 3.30484,2.95036 4.27686,4.05322 l 2.12584,-1.33457 c -1.07607,-1.22089 -2.80854,-3.16644 -4.75599,-4.47042 -1.5312,-1.02517 -3.21107,-1.64319 -4.83261,-1.5047 -0.85194,0.0728 -1.79079,0.43899 -2.75137,1.03984 -1.15612,0.72331 -2.39343,1.79992 -3.63189,2.88329 -1.12754,0.98686 -2.25621,1.98049 -3.33457,2.64676 -0.53964,0.33333 -1.04246,0.59128 -1.53132,0.63732 -1.08156,0.102 -2.20074,-0.36672 -3.28151,-0.99112 -1.95363,-1.12862 -3.73069,-2.84323 -4.84656,-3.91029 z"
     style="clip-rule:evenodd;fill:#002255;fill-rule:evenodd;stroke-width:0.105051;stroke-linejoin:round;stroke-miterlimit:2"
     id="path11714-78" />
  <path
     d="m 468.63232,85.431267 c 1.22462,1.171 3.1923,3.03712 5.33623,4.27577 1.65138,0.95405 3.41999,1.52411 5.07264,1.36824 0.87847,-0.0828 1.8324,-0.45618 2.80259,-1.05528 1.18472,-0.73228 2.43688,-1.81411 3.67649,-2.89882 1.12982,-0.98812 2.24707,-1.97933 3.3014,-2.63904 0.5146,-0.32146 0.98574,-0.57266 1.44201,-0.61165 0.99603,-0.085 1.97719,0.40194 2.91832,1.03173 1.75992,1.17805 3.30484,2.95046 4.27686,4.05333 l 2.12584,-1.33457 c -1.07607,-1.22089 -2.80854,-3.16654 -4.75599,-4.47052 -1.5312,-1.02517 -3.21107,-1.6431 -4.83261,-1.50471 -0.85194,0.0729 -1.79079,0.43911 -2.75137,1.03995 -1.15612,0.7233 -2.39343,1.79982 -3.63189,2.88319 -1.12754,0.98685 -2.25621,1.98057 -3.33457,2.64676 -0.53964,0.33342 -1.04246,0.59128 -1.53132,0.63742 -1.08156,0.102 -2.20074,-0.36672 -3.28151,-0.99112 -1.95363,-1.12872 -3.73069,-2.84333 -4.84656,-3.9103 z m 0,-7.23992 c 1.22462,1.17099 3.1923,3.03711 5.33623,4.27576 1.65138,0.95405 3.41999,1.52401 5.07264,1.36825 0.87847,-0.0829 1.8324,-0.45618 2.80259,-1.05538 1.18472,-0.73219 2.43688,-1.81401 3.67649,-2.89873 1.12982,-0.98822 2.24707,-1.97933 3.3014,-2.63914 0.5146,-0.32136 0.98574,-0.57265 1.44201,-0.61155 0.99603,-0.0851 1.97719,0.40185 2.91832,1.03174 1.75992,1.17795 3.30484,2.95036 4.27686,4.05322 l 2.12584,-1.33457 c -1.07607,-1.22089 -2.80854,-3.16644 -4.75599,-4.47042 -1.5312,-1.02517 -3.21107,-1.64319 -4.83261,-1.5047 -0.85194,0.0728 -1.79079,0.43899 -2.75137,1.03984 -1.15612,0.72331 -2.39343,1.79992 -3.63189,2.88329 -1.12754,0.98686 -2.25621,1.98049 -3.33457,2.64676 -0.53964,0.33333 -1.04246,0.59128 -1.53132,0.63732 -1.08156,0.102 -2.20074,-0.36672 -3.28151,-0.99112 -1.95363,-1.12862 -3.73069,-2.84323 -4.84656,-3.91029 z"
     style="clip-rule:evenodd;fill:#002255;fill-rule:evenodd;stroke-width:0.105051;stroke-linejoin:round;stroke-miterlimit:2"
     id="path11714-73" />
  <path
     d="m 534.87041,245.7646 c 1.22462,1.171 3.1923,3.03712 5.33623,4.27577 1.65138,0.95405 3.41999,1.52411 5.07264,1.36824 0.87847,-0.0828 1.8324,-0.45618 2.80259,-1.05528 1.18472,-0.73228 2.43688,-1.81411 3.67649,-2.89882 1.12982,-0.98812 2.24707,-1.97933 3.3014,-2.63904 0.5146,-0.32146 0.98574,-0.57266 1.44201,-0.61165 0.99603,-0.085 1.97719,0.40194 2.91832,1.03173 1.75992,1.17805 3.30484,2.95046 4.27686,4.05333 l 2.12584,-1.33457 c -1.07607,-1.22089 -2.80854,-3.16654 -4.75599,-4.47052 -1.5312,-1.02517 -3.21107,-1.6431 -4.83261,-1.50471 -0.85194,0.0729 -1.79079,0.43911 -2.75137,1.03995 -1.15612,0.7233 -2.39343,1.79982 -3.63189,2.88319 -1.12754,0.98685 -2.25621,1.98057 -3.33457,2.64676 -0.53964,0.33342 -1.04246,0.59128 -1.53132,0.63742 -1.08156,0.102 -2.20074,-0.36672 -3.28151,-0.99112 -1.95363,-1.12872 -3.73069,-2.84333 -4.84656,-3.9103 z m 0,-7.23992 c 1.22462,1.17099 3.1923,3.03711 5.33623,4.27576 1.65138,0.95405 3.41999,1.52401 5.07264,1.36825 0.87847,-0.0829 1.8324,-0.45618 2.80259,-1.05538 1.18472,-0.73219 2.43688,-1.81401 3.67649,-2.89873 1.12982,-0.98822 2.24707,-1.97933 3.3014,-2.63914 0.5146,-0.32136 0.98574,-0.57265 1.44201,-0.61155 0.99603,-0.0851 1.97719,0.40185 2.91832,1.03174 1.75992,1.17795 3.30484,2.95036 4.27686,4.05322 l 2.12584,-1.33457 c -1.07607,-1.22089 -2.80854,-3.16644 -4.75599,-4.47042 -1.5312,-1.02517 -3.21107,-1.64319 -4.83261,-1.5047 -0.85194,0.0728 -1.79079,0.43899 -2.75137,1.03984 -1.15612,0.72331 -2.39343,1.79992 -3.63189,2.88329 -1.12754,0.98686 -2.25621,1.98049 -3.33457,2.64676 -0.53964,0.33333 -1.04246,0.59128 -1.53132,0.63732 -1.08156,0.102 -2.20074,-0.36672 -3.28151,-0.99112 -1.95363,-1.12862 -3.73069,-2.84323 -4.84656,-3.91029 z"
     style="clip-rule:evenodd;fill:#002255;fill-rule:evenodd;stroke-width:0.105051;stroke-linejoin:round;stroke-miterlimit:2"
     id="path11714-2" />
  <path
     d="m 631.44184,179.52651 c 1.22462,1.171 3.1923,3.03712 5.33623,4.27577 1.65138,0.95405 3.41999,1.52411 5.07264,1.36824 0.87847,-0.0828 1.8324,-0.45618 2.80259,-1.05528 1.18472,-0.73228 2.43688,-1.81411 3.67649,-2.89882 1.12982,-0.98812 2.24707,-1.97933 3.3014,-2.63904 0.5146,-0.32146 0.98574,-0.57266 1.44201,-0.61165 0.99603,-0.085 1.97719,0.40194 2.91832,1.03173 1.75992,1.17805 3.30484,2.95046 4.27686,4.05333 l 2.12584,-1.33457 c -1.07607,-1.22089 -2.80854,-3.16654 -4.75599,-4.47052 -1.5312,-1.02517 -3.21107,-1.6431 -4.83261,-1.50471 -0.85194,0.0729 -1.79079,0.43911 -2.75137,1.03995 -1.15612,0.7233 -2.39343,1.79982 -3.63189,2.88319 -1.12754,0.98685 -2.25621,1.98057 -3.33457,2.64676 -0.53964,0.33342 -1.04246,0.59128 -1.53132,0.63742 -1.08156,0.102 -2.20074,-0.36672 -3.28151,-0.99112 -1.95363,-1.12872 -3.73069,-2.84333 -4.84656,-3.9103 z m 0,-7.23992 c 1.22462,1.17099 3.1923,3.03711 5.33623,4.27576 1.65138,0.95405 3.41999,1.52401 5.07264,1.36825 0.87847,-0.0829 1.8324,-0.45618 2.80259,-1.05538 1.18472,-0.73219 2.43688,-1.81401 3.67649,-2.89873 1.12982,-0.98822 2.24707,-1.97933 3.3014,-2.63914 0.5146,-0.32136 0.98574,-0.57265 1.44201,-0.61155 0.99603,-0.0851 1.97719,0.40185 2.91832,1.03174 1.75992,1.17795 3.30484,2.95036 4.27686,4.05322 l 2.12584,-1.33457 c -1.07607,-1.22089 -2.80854,-3.16644 -4.75599,-4.47042 -1.5312,-1.02517 -3.21107,-1.64319 -4.83261,-1.5047 -0.85194,0.0728 -1.79079,0.43899 -2.75137,1.03984 -1.15612,0.72331 -2.39343,1.79992 -3.63189,2.88329 -1.12754,0.98686 -2.25621,1.98049 -3.33457,2.64676 -0.53964,0.33333 -1.04246,0.59128 -1.53132,0.63732 -1.08156,0.102 -2.20074,-0.36672 -3.28151,-0.99112 -1.95363,-1.12862 -3.73069,-2.84323 -4.84656,-3.91029 z"
     style="clip-rule:evenodd;fill:#002255;fill-rule:evenodd;stroke-width:0.105051;stroke-linejoin:round;stroke-miterlimit:2"
     id="path11714-734" />
  <path
     d="m 697.67994,179.52651 c 1.22462,1.171 3.1923,3.03712 5.33623,4.27577 1.65138,0.95405 3.41999,1.52411 5.07264,1.36824 0.87847,-0.0828 1.8324,-0.45618 2.80259,-1.05528 1.18472,-0.73228 2.43688,-1.81411 3.67649,-2.89882 1.12982,-0.98812 2.24707,-1.97933 3.3014,-2.63904 0.5146,-0.32146 0.98574,-0.57266 1.44201,-0.61165 0.99603,-0.085 1.97719,0.40194 2.91832,1.03173 1.75992,1.17805 3.30484,2.95046 4.27686,4.05333 l 2.12584,-1.33457 c -1.07607,-1.22089 -2.80854,-3.16654 -4.75599,-4.47052 -1.5312,-1.02517 -3.21107,-1.6431 -4.83261,-1.50471 -0.85194,0.0729 -1.79079,0.43911 -2.75137,1.03995 -1.15612,0.7233 -2.39343,1.79982 -3.63189,2.88319 -1.12754,0.98685 -2.25621,1.98057 -3.33457,2.64676 -0.53964,0.33342 -1.04246,0.59128 -1.53132,0.63742 -1.08156,0.102 -2.20074,-0.36672 -3.28151,-0.99112 -1.95363,-1.12872 -3.73069,-2.84333 -4.84656,-3.9103 z m 0,-7.23992 c 1.22462,1.17099 3.1923,3.03711 5.33623,4.27576 1.65138,0.95405 3.41999,1.52401 5.07264,1.36825 0.87847,-0.0829 1.8324,-0.45618 2.80259,-1.05538 1.18472,-0.73219 2.43688,-1.81401 3.67649,-2.89873 1.12982,-0.98822 2.24707,-1.97933 3.3014,-2.63914 0.5146,-0.32136 0.98574,-0.57265 1.44201,-0.61155 0.99603,-0.0851 1.97719,0.40185 2.91832,1.03174 1.75992,1.17795 3.30484,2.95036 4.27686,4.05322 l 2.12584,-1.33457 c -1.07607,-1.22089 -2.80854,-3.16644 -4.75599,-4.47042 -1.5312,-1.02517 -3.21107,-1.64319 -4.83261,-1.5047 -0.85194,0.0728 -1.79079,0.43899 -2.75137,1.03984 -1.15612,0.72331 -2.39343,1.79992 -3.63189,2.88329 -1.12754,0.98686 -2.25621,1.98049 -3.33457,2.64676 -0.53964,0.33333 -1.04246,0.59128 -1.53132,0.63732 -1.08156,0.102 -2.20074,-0.36672 -3.28151,-0.99112 -1.95363,-1.12862 -3.73069,-2.84323 -4.84656,-3.91029 z"
     style="clip-rule:evenodd;fill:#002255;fill-rule:evenodd;stroke-width:0.105051;stroke-linejoin:round;stroke-miterlimit:2"
     id="path11714-01" />
  <path
     d="m 697.67994,245.7646 c 1.22462,1.171 3.1923,3.03712 5.33623,4.27577 1.65138,0.95405 3.41999,1.52411 5.07264,1.36824 0.87847,-0.0828 1.8324,-0.45618 2.80259,-1.05528 1.18472,-0.73228 2.43688,-1.81411 3.67649,-2.89882 1.12982,-0.98812 2.24707,-1.97933 3.3014,-2.63904 0.5146,-0.32146 0.98574,-0.57266 1.44201,-0.61165 0.99603,-0.085 1.97719,0.40194 2.91832,1.03173 1.75992,1.17805 3.30484,2.95046 4.27686,4.05333 l 2.12584,-1.33457 c -1.07607,-1.22089 -2.80854,-3.16654 -4.75599,-4.47052 -1.5312,-1.02517 -3.21107,-1.6431 -4.83261,-1.50471 -0.85194,0.0729 -1.79079,0.43911 -2.75137,1.03995 -1.15612,0.7233 -2.39343,1.79982 -3.63189,2.88319 -1.12754,0.98685 -2.25621,1.98057 -3.33457,2.64676 -0.53964,0.33342 -1.04246,0.59128 -1.53132,0.63742 -1.08156,0.102 -2.20074,-0.36672 -3.28151,-0.99112 -1.95363,-1.12872 -3.73069,-2.84333 -4.84656,-3.9103 z m 0,-7.23992 c 1.22462,1.17099 3.1923,3.03711 5.33623,4.27576 1.65138,0.95405 3.41999,1.52401 5.07264,1.36825 0.87847,-0.0829 1.8324,-0.45618 2.80259,-1.05538 1.18472,-0.73219 2.43688,-1.81401 3.67649,-2.89873 1.12982,-0.98822 2.24707,-1.97933 3.3014,-2.63914 0.5146,-0.32136 0.98574,-0.57265 1.44201,-0.61155 0.99603,-0.0851 1.97719,0.40185 2.91832,1.03174 1.75992,1.17795 3.30484,2.95036 4.27686,4.05322 l 2.12584,-1.33457 c -1.07607,-1.22089 -2.80854,-3.16644 -4.75599,-4.47042 -1.5312,-1.02517 -3.21107,-1.64319 -4.83261,-1.5047 -0.85194,0.0728 -1.79079,0.43899 -2.75137,1.03984 -1.15612,0.72331 -2.39343,1.79992 -3.63189,2.88329 -1.12754,0.98686 -2.25621,1.98049 -3.33457,2.64676 -0.53964,0.33333 -1.04246,0.59128 -1.53132,0.63732 -1.08156,0.102 -2.20074,-0.36672 -3.28151,-0.99112 -1.95363,-1.12862 -3.73069,-2.84323 -4.84656,-3.91029 z"
     style="clip-rule:evenodd;fill:#002255;fill-rule:evenodd;stroke-width:0.105051;stroke-linejoin:round;stroke-miterlimit:2"
     id="path11714-03" />
  <path
     d="m 697.67994,19.81222 c 1.22462,1.171 3.1923,3.03712 5.33623,4.27577 1.65138,0.95405 3.41999,1.52411 5.07264,1.36824 0.87847,-0.0828 1.8324,-0.45618 2.80259,-1.05528 1.18472,-0.73228 2.43688,-1.81411 3.67649,-2.89882 1.12982,-0.98812 2.24707,-1.97933 3.3014,-2.63904 0.5146,-0.32146 0.98574,-0.57266 1.44201,-0.61165 0.99603,-0.085 1.97719,0.40194 2.91832,1.03173 1.75992,1.17805 3.30484,2.95046 4.27686,4.05333 l 2.12584,-1.33457 c -1.07607,-1.22089 -2.80854,-3.16654 -4.75599,-4.47052 -1.5312,-1.02517 -3.21107,-1.6431 -4.83261,-1.50471 -0.85194,0.0729 -1.79079,0.43911 -2.75137,1.03995 -1.15612,0.7233 -2.39343,1.79982 -3.63189,2.88319 -1.12754,0.98685 -2.25621,1.98057 -3.33457,2.64676 -0.53964,0.33342 -1.04246,0.59128 -1.53132,0.63742 -1.08156,0.102 -2.20074,-0.36672 -3.28151,-0.99112 -1.95363,-1.12872 -3.73069,-2.84333 -4.84656,-3.9103 z m 0,-7.23992 c 1.22462,1.17099 3.1923,3.03711 5.33623,4.27576 1.65138,0.95405 3.41999,1.52401 5.07264,1.36825 0.87847,-0.0829 1.8324,-0.45618 2.80259,-1.05538 1.18472,-0.73219 2.43688,-1.81401 3.67649,-2.89873 1.12982,-0.98822 2.24707,-1.97933 3.3014,-2.63914 0.5146,-0.32136 0.98574,-0.57265 1.44201,-0.61155 0.99603,-0.0851 1.97719,0.40185 2.91832,1.03174 1.75992,1.17795 3.30484,2.95036 4.27686,4.05322 l 2.12584,-1.33457 c -1.07607,-1.22089 -2.80854,-3.16644 -4.75599,-4.47042 -1.5312,-1.0251697 -3.21107,-1.6431897 -4.83261,-1.5046997 -0.85194,0.0728 -1.79079,0.43899 -2.75137,1.03984 -1.15612,0.7233097 -2.39343,1.7999197 -3.63189,2.8832897 -1.12754,0.98686 -2.25621,1.98049 -3.33457,2.64676 -0.53964,0.33333 -1.04246,0.59128 -1.53132,0.63732 -1.08156,0.102 -2.20074,-0.36672 -3.28151,-0.99112 -1.95363,-1.12862 -3.73069,-2.84323 -4.84656,-3.91029 z"
     style="clip-rule:evenodd;fill:#002255;fill-rule:evenodd;stroke-width:0.105051;stroke-linejoin:round;stroke-miterlimit:2"
     id="path11714-92" />
  <path
     d="m 631.44184,19.81222 c 1.22462,1.171 3.1923,3.03712 5.33623,4.27577 1.65138,0.95405 3.41999,1.52411 5.07264,1.36824 0.87847,-0.0828 1.8324,-0.45618 2.80259,-1.05528 1.18472,-0.73228 2.43688,-1.81411 3.67649,-2.89882 1.12982,-0.98812 2.24707,-1.97933 3.3014,-2.63904 0.5146,-0.32146 0.98574,-0.57266 1.44201,-0.61165 0.99603,-0.085 1.97719,0.40194 2.91832,1.03173 1.75992,1.17805 3.30484,2.95046 4.27686,4.05333 l 2.12584,-1.33457 c -1.07607,-1.22089 -2.80854,-3.16654 -4.75599,-4.47052 -1.5312,-1.02517 -3.21107,-1.6431 -4.83261,-1.50471 -0.85194,0.0729 -1.79079,0.43911 -2.75137,1.03995 -1.15612,0.7233 -2.39343,1.79982 -3.63189,2.88319 -1.12754,0.98685 -2.25621,1.98057 -3.33457,2.64676 -0.53964,0.33342 -1.04246,0.59128 -1.53132,0.63742 -1.08156,0.102 -2.20074,-0.36672 -3.28151,-0.99112 -1.95363,-1.12872 -3.73069,-2.84333 -4.84656,-3.9103 z m 0,-7.23992 c 1.22462,1.17099 3.1923,3.03711 5.33623,4.27576 1.65138,0.95405 3.41999,1.52401 5.07264,1.36825 0.87847,-0.0829 1.8324,-0.45618 2.80259,-1.05538 1.18472,-0.73219 2.43688,-1.81401 3.67649,-2.89873 1.12982,-0.98822 2.24707,-1.97933 3.3014,-2.63914 0.5146,-0.32136 0.98574,-0.57265 1.44201,-0.61155 0.99603,-0.0851 1.97719,0.40185 2.91832,1.03174 1.75992,1.17795 3.30484,2.95036 4.27686,4.05322 l 2.12584,-1.33457 c -1.07607,-1.22089 -2.80854,-3.16644 -4.75599,-4.47042 -1.5312,-1.0251697 -3.21107,-1.6431897 -4.83261,-1.5046997 -0.85194,0.0728 -1.79079,0.43899 -2.75137,1.03984 -1.15612,0.7233097 -2.39343,1.7999197 -3.63189,2.8832897 -1.12754,0.98686 -2.25621,1.98049 -3.33457,2.64676 -0.53964,0.33333 -1.04246,0.59128 -1.53132,0.63732 -1.08156,0.102 -2.20074,-0.36672 -3.28151,-0.99112 -1.95363,-1.12862 -3.73069,-2.84323 -4.84656,-3.91029 z"
     style="clip-rule:evenodd;fill:#002255;fill-rule:evenodd;stroke-width:0.105051;stroke-linejoin:round;stroke-miterlimit:2"
     id="path11714-81" />
  <path
     sodipodi:type="star"
     style="font-variation-settings:normal;opacity:1;vector-effect:none;fill:#ffffff;fill-opacity:1;stroke:none;stroke-width:0.865725;stroke-linecap:butt;stroke-linejoin:miter;stroke-miterlimit:4;stroke-dasharray:none;stroke-dashoffset:0;stroke-opacity:1;-inkscape-stroke:none;paint-order:fill markers stroke;stop-color:#000000;stop-opacity:1"
     id="path13179"
     inkscape:flatsided="false"
     sodipodi:sides="5"
     sodipodi:cx="26.162951"
     sodipodi:cy="179.60512"
     sodipodi:r1="6.1776867"
     sodipodi:r2="18.021572"
     sodipodi:arg1="0.11587518"
     sodipodi:arg2="0.74419369"
     inkscape:rounded="0"
     inkscape:randomized="0"
     d="m 32.29921,180.31936 7.121027,11.49319 -12.04036,-6.15079 -8.730158,10.32409 2.129074,-13.35176 -12.5165616,-5.11255 13.3562006,-2.10106 0.994497,-13.48382 6.125512,12.05324 13.131195,-3.22091 z"
     transform="matrix(0.76538975,0,0,0.76538975,-9.7318045,82.359221)"
     inkscape:transform-center-y="-4.8561181e-06" />
  <path
     sodipodi:type="star"
     style="font-variation-settings:normal;opacity:1;vector-effect:none;fill:#ffffff;fill-opacity:1;stroke:none;stroke-width:0.865725;stroke-linecap:butt;stroke-linejoin:miter;stroke-miterlimit:4;stroke-dasharray:none;stroke-dashoffset:0;stroke-opacity:1;-inkscape-stroke:none;paint-order:fill markers stroke;stop-color:#000000;stop-opacity:1"
     id="path13179-7"
     inkscape:flatsided="false"
     sodipodi:sides="5"
     sodipodi:cx="26.162951"
     sodipodi:cy="179.60512"
     sodipodi:r1="6.1776867"
     sodipodi:r2="18.021572"
     sodipodi:arg1="0.11587518"
     sodipodi:arg2="0.74419369"
     inkscape:rounded="0"
     inkscape:randomized="0"
     transform="matrix(0.76538975,0,0,0.76538975,174.76718,-101.44995)"
     inkscape:transform-center-y="-4.8561181e-06"
     d="m 32.29921,180.31936 7.121027,11.49319 -12.04036,-6.15079 -8.730158,10.32409 2.129074,-13.35176 -12.5165616,-5.11255 13.3562006,-2.10106 0.994497,-13.48382 6.125512,12.05324 13.131195,-3.22091 z" />
</svg>
