<?xml version="1.0" encoding="UTF-8" standalone="no"?>
<svg
   width="266.97757"
   height="153.80013"
   viewBox="0 0 266.97757 153.80013"
   version="1.1"
   xml:space="preserve"
   style="clip-rule:evenodd;fill-rule:evenodd;stroke-miterlimit:10"
   id="svg95"
   sodipodi:docname="2023-DE-06-example2.svg"
   inkscape:version="1.1.1 (3bf5ae0d25, 2021-09-20)"
   xmlns:inkscape="http://www.inkscape.org/namespaces/inkscape"
   xmlns:sodipodi="http://sodipodi.sourceforge.net/DTD/sodipodi-0.dtd"
   xmlns="http://www.w3.org/2000/svg"
   xmlns:svg="http://www.w3.org/2000/svg"
   xmlns:serif="http://www.serif.com/"><defs
   id="defs99" /><sodipodi:namedview
   id="namedview97"
   pagecolor="#ffffff"
   bordercolor="#666666"
   borderopacity="1.0"
   inkscape:pageshadow="2"
   inkscape:pageopacity="0.0"
   inkscape:pagecheckerboard="0"
   showgrid="false"
   inkscape:zoom="4.5153846"
   inkscape:cx="133.43271"
   inkscape:cy="78.06644"
   inkscape:window-width="2048"
   inkscape:window-height="1017"
   inkscape:window-x="-8"
   inkscape:window-y="-8"
   inkscape:window-maximized="1"
   inkscape:current-layer="svg95" />
    <rect
   x="0"
   y="0"
   width="266.97757"
   height="137.69565"
   style="clip-rule:evenodd;display:inline;fill:#ffeeaa;fill-rule:evenodd;stroke-width:1.56495;stroke-miterlimit:10"
   id="container0-2"
   inkscape:label="rect003403"
   ry="6.2358715e-14" /><g
   transform="translate(5.5127678,-0.51897335)"
   id="g93">
        <g
   transform="matrix(7.50713,0,0,7.44973,-1051.42,-1439.07)"
   id="g41">
            <g
   id="g5040">
                <g
   id="g38">
                    <g
   id="rect1777"
   transform="matrix(0.264583,0,0,0.264583,157.224,192.619)">
                        <rect
   x="0"
   y="5"
   width="64"
   height="64"
   style="fill:#009fe3"
   id="rect2" />
                    </g>
                    <g
   id="rect17771"
   serif:id="rect1777"
   transform="matrix(0.133207,0,0,0.134233,157.201,193.27)">
                        <path
   d="M 127.294,83.912 V 5.008 h -79.39 c 0,11.414 2.444,22.233 6.826,32.016 l 9.353,20.884 19.255,-19.107 c 0,0 10.885,10.801 10.885,10.801 0,0 -19.351,19.231 -19.351,19.231 l 22.019,9.075 c 9.366,3.861 19.624,6.004 30.403,6.004 z"
   style="fill:#72caf0"
   id="path5" />
                    </g>
                    <g
   id="rect17772"
   serif:id="rect1777"
   transform="matrix(0.133207,0,0,0.134233,157.201,193.27)">
                        <path
   d="M 127.294,75.997 V 5.008 H 55.819 c 0,10.26 2.195,19.987 6.134,28.781 L 66.63,44.231 83.338,27.65 c 0,0 22.117,21.948 22.117,21.948 0,0 -16.558,16.455 -16.558,16.455 l 11.01,4.538 c 8.437,3.477 17.678,5.406 27.387,5.406 z"
   style="fill:#b1e2f7"
   id="path8" />
                    </g>
                    <g
   id="rect17773"
   serif:id="rect1777"
   transform="matrix(0.133207,0,0,0.134233,157.201,193.27)">
                        <path
   d="M 127.294,71.051 V 5.008 H 60.766 c 0,9.539 2.04,18.582 5.702,26.759 l 1.753,3.916 15.117,-15.002 c 0,0 29.138,28.915 29.138,28.915 -0.001,0 -14.813,14.72 -14.813,14.72 l 4.129,1.701 c 7.856,3.239 16.461,5.034 25.502,5.034 z"
   style="fill:#ecf8fd"
   id="path11" />
                    </g>
                    <g
   id="path1789"
   transform="matrix(0.264583,0,0,0.264583,157.224,192.619)">
                        <path
   d="m 32,5 c 0,4.62 0.98,9 2.74,12.96 l 7.13,-7.13 16.79,16.79 -6.93,6.94 C 55.51,36.13 59.65,37 64,37 V 5 Z"
   style="fill:#95c11f;fill-rule:nonzero;stroke:#95c11f;stroke-width:0.2px"
   id="path14" />
                    </g>
                    <g
   id="path1793"
   transform="matrix(0.264583,0,0,0.264583,157.224,192.619)">
                        <path
   d="m 42.32,18.68 c -1.8,1.24 -3.6,2.71 -5.31,4.4 -6.13,6.05 -9.51,13.16 -9.12,18.17 5.01,0.45 12.15,-2.83 18.29,-8.89 1.71,-1.69 3.21,-3.47 4.47,-5.26 z"
   style="fill:#ffffff;fill-rule:nonzero"
   id="path17" />
                    </g>
                    <g
   id="rect1795"
   transform="matrix(0.188275,-0.185894,0.185894,0.188275,158.604,201.243)">
                        <rect
   x="25.823"
   y="19.724001"
   width="9.842"
   height="7.6110001"
   style="fill:#bdbdbd"
   id="rect20" />
                    </g>
                    <g
   id="rect1803"
   transform="matrix(0.187087,-0.187087,0.187087,0.187087,158.296,202.336)">
                        <rect
   x="42"
   y="17.059999"
   width="8.7200003"
   height="2.8299999"
   style="fill:#936037"
   id="rect23" />
                    </g>
                    <g
   transform="matrix(-0.00108351,-0.00304588,0.00302259,-0.00109186,159.213,209.581)"
   id="g28">
                        <path
   d="m 999.529,245.418 c 84.691,51.487 151.631,109.964 180.471,205.196 15.56,-4.203 32.44,7.602 50.89,23.36 l 25.17,8.317 -22.85,11.554 c -17.05,31.409 -43.45,37.8 -62.58,30.791 l -27.89,55.56 c -20.21,45.682 -117.54,134.58 -136.48,114.21 43.22,-47.96 81.7,-97.612 79.58,-161.755 -28.16,-30.81 -90.663,-30.346 -147.258,-26.784 -66.641,4.658 -122.479,1.541 -172.992,-5.407 46.707,-3.659 91.739,-7.976 119.1,-19.236 -17.803,-16.683 -65.296,-26.451 -109.557,-37.117 46.506,5.501 85.07,-3.792 134.018,13.599 51.149,18.173 118.869,0.56 165.749,-10.741 15.29,-90.003 -20.53,-152.507 -75.371,-201.547 z"
   id="path26" />
                    </g>
                    <g
   transform="matrix(-4.94659e-4,-0.00262852,0.00260842,-4.98471e-4,157.082,210.169)"
   id="g32">
                        <path
   d="m 975.762,824.108 c -8.344,-3.783 -26.236,-21.602 -39.9,-30.58 -11.961,-7.859 -30.282,-2.205 -42.78,7.382 -18.252,-27.385 -41.181,-46.341 -70.57,-53.654 -105.273,-30.54 -205.293,-23.388 -298.156,-26.711 124.095,25.252 242.699,51.388 269.64,124.143 -19.949,27.068 -127.208,3.858 -256.758,-32.188 l 146.837,73.043 c -68.937,15.186 -130.449,38.512 -182.466,72.245 98.188,-25.009 197.021,-51.423 275.158,-32.832 18.818,53.825 -98.75,115.444 -217.142,181.444 24.231,-10.44 55.745,-11.78 81.911,-21.7 132.264,-50.11 268.013,-106.212 261.593,-190.974 21.946,-9.075 35.824,-27.623 52.361,-50.859 4.986,-7.006 16.02,-9.832 20.272,-18.759 z"
   id="path30" />
                    </g>
                    <g
   transform="matrix(-0.00222818,-0.00145465,-0.00144353,0.00224534,164.548,207.392)"
   id="g36">
                        <path
   d="m 975.762,824.108 c -8.344,-3.783 -26.236,-21.602 -39.9,-30.58 -11.961,-7.859 -30.282,-2.205 -42.78,7.382 -18.252,-27.385 -41.181,-46.341 -70.57,-53.654 -105.273,-30.54 -205.293,-23.388 -298.156,-26.711 124.095,25.252 242.699,51.388 269.64,124.143 -19.949,27.068 -127.208,3.858 -256.758,-32.188 l 146.837,73.043 c -68.937,15.186 -130.449,38.512 -182.466,72.245 98.188,-25.009 197.021,-51.423 275.158,-32.832 18.818,53.825 -98.75,115.444 -217.142,181.444 24.231,-10.44 55.745,-11.78 81.911,-21.7 132.264,-50.11 268.013,-106.212 261.593,-190.974 21.946,-9.075 35.824,-27.623 52.361,-50.859 4.986,-7.006 16.02,-9.832 20.272,-18.759 z"
   id="path34" />
                    </g>
                </g>
            </g>
        </g>
        <g
   transform="matrix(7.4061,0,0,7.4061,-1311.97,-1471.97)"
   id="g80">
            <g
   id="g4965">
                <g
   id="g77">
                    <g
   id="rect3607"
   transform="matrix(0.264583,0,0,0.264583,177.147,198.205)">
                        <rect
   x="0"
   y="5"
   width="64"
   height="64"
   style="fill:#009fe3"
   id="rect43" />
                    </g>
                    <g
   id="rect36071"
   serif:id="rect3607"
   transform="matrix(0.135024,0,0,0.135024,159.707,198.781)">
                        <path
   d="M 254.567,83.909 V 5.527 H 129.157 V 83.909 H 189 l 0.152,-6.658 6.942,5.869 7.411,-4.452 -0.363,5.241 z"
   style="fill:#72caf0"
   id="path46" />
                    </g>
                    <g
   id="rect36072"
   serif:id="rect3607"
   transform="matrix(0.135024,0,0,0.135024,159.707,198.781)">
                        <path
   d="M 254.567,76.071 V 5.527 h -125.41 v 70.544 h 14.033 l 2.345,-2.717 c 0.376,-0.435 0.934,-0.936 1.298,-1.246 0.646,0.381 1.992,1.214 2.973,2.06 l 2.206,1.903 h 29.327 l 0.175,-7.66 c 0.048,-2.081 0.148,-4.698 0.259,-7.129 3.393,2.462 7.203,5.557 10.809,8.605 l 4.286,3.624 4.811,-2.89 c 3.013,-1.81 7.47,-3.654 10.567,-4.841 -0.039,0.671 -0.081,1.308 -0.123,1.91 l -0.581,8.381 z"
   style="fill:#b1e2f7"
   id="path49" />
                    </g>
                    <g
   id="rect36073"
   serif:id="rect3607"
   transform="matrix(0.135024,0,0,0.135024,159.707,198.781)">
                        <path
   d="M 254.567,71.172 V 5.527 h -125.41 v 65.645 c 0,0 11.79,0 11.79,0 l 0.88,-1.019 c 1.694,-1.963 3.126,-3.153 4.832,-3.148 1.897,0.006 3.844,1.295 6.347,3.453 l 0.827,0.714 h 22.718 l 0.065,-2.872 c 0.115,-5.035 0.01,-10.421 0.489,-14.02 0.06,-0.453 0.18,-0.975 0.293,-1.407 0.52,0.208 1.175,0.491 1.719,0.794 4.348,2.425 10.753,7.512 16.628,12.479 l 1.607,1.359 1.805,-1.084 c 4.954,-2.976 10.348,-5.668 14.488,-6.569 0.991,-0.216 1.889,-0.328 2.66,-0.261 0.336,0.029 0.641,0.051 0.849,0.23 0.288,0.248 0.242,0.699 0.223,1.282 -0.096,2.675 -0.232,4.975 -0.367,6.926 l -0.218,3.143 z"
   style="fill:#ecf8fd"
   id="path52" />
                    </g>
                    <g
   id="path3619"
   transform="matrix(0.264583,0,0,0.264583,177.147,198.205)">
                        <path
   d="m 0,5 v 32 h 5.33 c 2.46,-2.85 4.55,-2.82 7.82,0 h 9.57 c 0.1,-4.38 -0.1,-9.27 1.28,-9.5 1.57,-0.26 6.55,3.57 10.95,7.29 5.36,-3.22 11.71,-5.74 11.57,-1.38 C 46.47,34.8 46.4,35.99 46.33,37 H 64 V 5 Z"
   style="fill:#95c11f;fill-rule:nonzero;stroke:#95c11f;stroke-width:0.2px"
   id="path55" />
                    </g>
                    <g
   id="path3623"
   transform="matrix(0.264583,0,0,0.264583,177.147,198.205)">
                        <path
   d="m 22.18,12.75 c 0.03,-0.17 0.05,-0.34 0.05,-0.52 0,-1.55 -1.25,-2.8 -2.8,-2.8 -1.23,0 -2.26,0.8 -2.64,1.9 -0.43,-0.29 -0.95,-0.46 -1.52,-0.46 -1.5,0 -2.71,1.21 -2.71,2.71 0,0.6 0.2,1.15 0.53,1.6 -0.28,0.38 -0.45,0.85 -0.45,1.36 0,1.28 1.04,2.32 2.32,2.32 0.22,0 0.43,-0.04 0.63,-0.1 0.43,1.27 1.62,2.2 3.03,2.2 1.69,0 3.05,-1.3 3.19,-2.96 0.08,0.01 0.16,0.02 0.25,0.02 1.46,0 2.64,-1.18 2.64,-2.64 0.01,-1.42 -1.11,-2.57 -2.52,-2.63 z"
   style="fill:#008d36;fill-rule:nonzero"
   id="path58" />
                    </g>
                    <g
   transform="matrix(0.00281427,-0.00163497,0.00163497,0.00281427,187.126,202.318)"
   id="g63">
                        <path
   d="m 999.529,245.418 c 84.691,51.487 151.631,109.964 180.471,205.196 15.56,-4.203 32.44,7.602 50.89,23.36 l 25.17,8.317 -22.85,11.554 c -17.05,31.409 -43.45,37.8 -62.58,30.791 l -27.89,55.56 c -20.21,45.682 -117.54,134.58 -136.48,114.21 43.22,-47.96 81.7,-97.612 79.58,-161.755 -28.16,-30.81 -90.663,-30.346 -147.258,-26.784 -66.641,4.658 -122.479,1.541 -172.992,-5.407 46.707,-3.659 91.739,-7.976 119.1,-19.236 -17.803,-16.683 -65.296,-26.451 -109.557,-37.117 46.506,5.501 85.07,-3.792 134.018,13.599 51.149,18.173 118.869,0.56 165.749,-10.741 15.29,-90.003 -20.53,-152.507 -75.371,-201.547 z"
   id="path61" />
                    </g>
                    <g
   transform="matrix(0.00213182,-0.00123849,0.00109912,0.00189191,187.263,203.809)"
   id="g67">
                        <path
   d="m 999.529,245.418 c 84.691,51.487 151.631,109.964 180.471,205.196 15.56,-4.203 32.44,7.602 50.89,23.36 l 25.17,8.317 -22.85,11.554 c -17.05,31.409 -43.45,37.8 -62.58,30.791 l -27.89,55.56 c -20.21,45.682 -117.54,134.58 -136.48,114.21 43.22,-47.96 81.7,-97.612 79.58,-161.755 -28.16,-30.81 -90.663,-30.346 -147.258,-26.784 -66.641,4.658 -122.479,1.541 -172.992,-5.407 46.707,-3.659 91.739,-7.976 119.1,-19.236 -17.803,-16.683 -65.296,-26.451 -109.557,-37.117 46.506,5.501 85.07,-3.792 134.018,13.599 51.149,18.173 118.869,0.56 165.749,-10.741 15.29,-90.003 -20.53,-152.507 -75.371,-201.547 z"
   id="path65" />
                    </g>
                    <g
   transform="matrix(0.00250948,-9.71922e-4,9.71922e-4,0.00250948,186.154,200.301)"
   id="g71">
                        <path
   d="m 975.762,824.108 c -8.344,-3.783 -26.236,-21.602 -39.9,-30.58 -11.961,-7.859 -30.282,-2.205 -42.78,7.382 -18.252,-27.385 -41.181,-46.341 -70.57,-53.654 -105.273,-30.54 -205.293,-23.388 -298.156,-26.711 124.095,25.252 242.699,51.388 269.64,124.143 -19.949,27.068 -127.208,3.858 -256.758,-32.188 l 146.837,73.043 c -68.937,15.186 -130.449,38.512 -182.466,72.245 98.188,-25.009 197.021,-51.423 275.158,-32.832 18.818,53.825 -98.75,115.444 -217.142,181.444 24.231,-10.44 55.745,-11.78 81.911,-21.7 132.264,-50.11 268.013,-106.212 261.593,-190.974 21.946,-9.075 35.824,-27.623 52.361,-50.859 4.986,-7.006 16.02,-9.832 20.272,-18.759 z"
   id="path69" />
                    </g>
                    <g
   transform="matrix(0.00103002,-0.0024862,-0.0024862,-0.00103002,191.041,207.61)"
   id="g75">
                        <path
   d="m 975.762,824.108 c -8.344,-3.783 -26.236,-21.602 -39.9,-30.58 -11.961,-7.859 -30.282,-2.205 -42.78,7.382 -18.252,-27.385 -41.181,-46.341 -70.57,-53.654 -105.273,-30.54 -205.293,-23.388 -298.156,-26.711 124.095,25.252 242.699,51.388 269.64,124.143 -19.949,27.068 -127.208,3.858 -256.758,-32.188 l 146.837,73.043 c -68.937,15.186 -130.449,38.512 -182.466,72.245 98.188,-25.009 197.021,-51.423 275.158,-32.832 18.818,53.825 -98.75,115.444 -217.142,181.444 24.231,-10.44 55.745,-11.78 81.911,-21.7 132.264,-50.11 268.013,-106.212 261.593,-190.974 21.946,-9.075 35.824,-27.623 52.361,-50.859 4.986,-7.006 16.02,-9.832 20.272,-18.759 z"
   id="path73" />
                    </g>
                </g>
            </g>
        </g>
        <g
   id="line9261"
   transform="matrix(1,0,0,0.958997,-0.855311,5.00839)">
            <path
   d="M 128,0 V 128.894"
   style="fill:none;fill-rule:nonzero;stroke:#cb0c00;stroke-width:6px;stroke-linecap:round;stroke-linejoin:round;stroke-miterlimit:4"
   id="path82" />
        </g>
        <g
   transform="translate(-1.04931,2.12311)"
   id="g87">
            <circle
   cx="128.194"
   cy="131.31599"
   r="20.879999"
   style="fill:#cb0c00"
   id="circle85" />
        </g>
        <g
   transform="translate(-1.42703,0.190037)"
   id="g91">
            <path
   d="m 128.572,128.666 -7.686,-7.875 -4.582,4.472 7.795,7.986 -7.795,7.986 4.582,4.472 7.686,-7.875 7.685,7.875 4.582,-4.472 -7.794,-7.986 7.794,-7.986 -4.582,-4.472 z"
   style="fill:#ecf8fd"
   id="path89" />
        </g>
    </g>
</svg>
