<?xml version="1.0" encoding="UTF-8" standalone="no"?>
<svg
   viewBox="-7.366 73.475 139.6793 139.6793"
   width="232.48918"
   height="232.48918"
   version="1.1"
   id="svg96"
   sodipodi:docname="2023-DE-06-solution.svg"
   inkscape:version="1.1.1 (3bf5ae0d25, 2021-09-20)"
   xmlns:inkscape="http://www.inkscape.org/namespaces/inkscape"
   xmlns:sodipodi="http://sodipodi.sourceforge.net/DTD/sodipodi-0.dtd"
   xmlns="http://www.w3.org/2000/svg"
   xmlns:svg="http://www.w3.org/2000/svg">
  <sodipodi:namedview
     id="namedview98"
     pagecolor="#ffffff"
     bordercolor="#666666"
     borderopacity="1.0"
     inkscape:pageshadow="2"
     inkscape:pageopacity="0.0"
     inkscape:pagecheckerboard="0"
     showgrid="false"
     inkscape:zoom="1.6049107"
     inkscape:cx="144.86787"
     inkscape:cy="85.674549"
     inkscape:window-width="2048"
     inkscape:window-height="1017"
     inkscape:window-x="-8"
     inkscape:window-y="-8"
     inkscape:window-maximized="1"
     inkscape:current-layer="g16824" />
  <defs
     id="defs6">
    <clipPath
       id="clip-0">
      <rect
         x="-295.70901"
         y="-396.18799"
         width="63.870998"
         height="63.870998"
         style="fill:#d8d8d8"
         id="rect-2"
         transform="scale(-1)" />
    </clipPath>
    <clipPath
       id="clip-5">
      <rect
         x="-337.668"
         y="-189.29201"
         width="64.094002"
         height="64.094002"
         style="fill:#d8d8d8"
         id="rect-7"
         transform="scale(-1)" />
    </clipPath>
  </defs>
  <g
     id="g16824"
     style="display:inline"
     transform="matrix(0.48526082,0,0,0.48526082,0.35836669,42.244865)">
    <rect
       x="-8.3605518"
       y="73.163261"
       width="272.76871"
       height="270.91156"
       style="fill:#ffeeaa;stroke-width:2.12373"
       id="container0-2-6"
       inkscape:label="rect003403" />
    <rect
       x="0.32441604"
       class="st0"
       width="126.96442"
       height="126.96442"
       id="rect16191-4"
       style="fill:#009fe3;stroke-width:1.98382"
       y="80.831711" />
    <rect
       x="128.79665"
       class="st0"
       width="127.04288"
       height="127.04288"
       id="rect17924-2"
       style="fill:#009fe3;stroke-width:1.98505"
       y="209.03693" />
    <path
       id="path17933-29"
       style="color:#000000;font-variation-settings:normal;opacity:1;vector-effect:none;fill:#72caf0;fill-opacity:1;stroke-width:1.2381;stroke-linecap:butt;stroke-linejoin:miter;stroke-miterlimit:10;stroke-dasharray:none;stroke-dashoffset:0;stroke-opacity:1;-inkscape-stroke:none;stop-color:#000000;stop-opacity:1"
       d="m 176.43693,209.03623 v 0.001 h -47.6403 v 127.04199 h 127.04315 v -47.64031 -15.88127 -15.87893 c -16.28362,0 -30.42,-8.04406 -39.05951,-20.38408 -4.76095,-5.3002 -7.10772,-11.63504 -7.78631,-18.68482 -0.51895,-2.85424 -0.79683,-5.70934 -0.79683,-8.57375 z"
       sodipodi:nodetypes="cccccccccccc" />
    <path
       id="path17930-9"
       style="color:#000000;font-variation-settings:normal;opacity:1;vector-effect:none;fill:#b1e2f7;fill-opacity:1;stroke-width:1.2381;stroke-linecap:butt;stroke-linejoin:miter;stroke-miterlimit:10;stroke-dasharray:none;stroke-dashoffset:0;stroke-opacity:1;-inkscape-stroke:none;stop-color:#000000;stop-opacity:1"
       d="m 184.37698,209.03623 v 0.001 h -55.58035 v 127.04199 h 127.04315 v -55.58036 -7.94122 -7.93888 c -18.92059,0 -35.49789,-9.39153 -45.56434,-23.76969 -3.24184,-5.68008 -7.2907,-9.63082 -8.64534,-19.3549 l -0.44829,-2.4644 c -0.59691,-3.28313 -0.92473,-6.61616 -0.92473,-9.99371 z"
       sodipodi:nodetypes="ccccccccccccc" />
    <path
       style="color:#000000;opacity:0.75;fill:#ffffff;stroke-width:1.00007;stroke-miterlimit:10;-inkscape-stroke:none"
       d="m 189.34098,209.03623 c 0,3.9e-4 0,6e-4 0,0.001 h -60.54435 v 127.04199 h 127.04315 v -60.54318 -2.9784 -2.97723 c -20.5687,0 -38.66995,-10.23354 -49.62825,-25.88555 l -5.16936,-7.38028 -0.24762,9.00561 c -0.17303,6.28654 -0.9943,11.88157 -2.11703,15.66769 -0.56137,1.89306 -1.22084,3.33283 -1.72743,4.07447 -0.0472,0.0691 -0.0377,0.0446 -0.0774,0.0974 -0.0777,-0.0979 -0.0885,-0.0836 -0.19949,-0.25817 -0.56741,-0.89167 -1.26402,-2.5532 -1.84361,-4.70465 -1.15917,-4.30289 -1.93631,-10.56448 -1.93631,-17.47375 0,-9.21826 1.4875,-17.3436 3.18259,-21.02716 l 0.39196,-0.85433 -0.16782,-0.92356 c -0.64566,-3.55119 -1.00336,-7.18381 -1.00336,-10.88207 z"
       id="path17927-20" />
    <path
       class="st1"
       d="m 203.7718,245.40295 c -0.35732,12.98219 -3.31504,23.12577 -6.90796,23.12577 -3.83114,0 -6.94766,-11.55296 -6.94766,-25.80558 0,-9.50837 1.38953,-17.78601 3.45397,-22.27221 -0.67491,-3.71203 -1.05207,-7.52332 -1.05207,-11.41401 h -63.52144 v 127.04289 h 127.04289 v -63.52144 c -21.5576,0 -40.57433,-10.7391 -52.06773,-27.15542 z"
       id="path17936-9"
       style="fill:#95c11f;stroke-width:0.397009;stroke-miterlimit:10"
       sodipodi:nodetypes="cssccccccc" />
    <path
       class="st2"
       d="m 163.65403,302.9097 c 0.60236,-2.77732 -1.30457,-5.77198 -4.06747,-6.4158 -2.71226,-0.76667 -5.78197,0.91565 -6.63196,3.59704 -2.3477,-1.6554 -5.93208,-0.97945 -7.47974,1.45575 -1.26736,1.82063 -1.20923,4.42318 0.13507,6.18668 -1.60985,2.04959 -0.93916,5.35493 1.32516,6.63763 1.07396,0.65722 2.43269,0.8567 3.63745,0.46883 0.94117,3.00607 4.31264,4.97018 7.3862,4.21919 2.67887,-0.54772 4.77748,-3.00996 4.96078,-5.72783 2.95828,0.41012 5.83131,-2.22473 5.73678,-5.20082 0.0846,-2.73043 -2.28187,-5.16919 -5.00227,-5.22067 z"
       id="path17940-77"
       style="fill:#008d36;stroke-width:1.12532;stroke-miterlimit:10" />
    <path
       class="st2"
       d="m 165.28176,288.93498 c 0.60237,-2.77732 -1.30457,-5.77198 -4.06747,-6.4158 -2.71226,-0.76667 -5.78197,0.91565 -6.63196,3.59704 -2.3477,-1.65539 -5.93208,-0.97946 -7.47974,1.45575 -1.26736,1.82064 -1.20923,4.42318 0.13507,6.18668 -1.60985,2.04959 -0.93916,5.35493 1.32516,6.63764 1.07396,0.65721 2.43269,0.85669 3.63745,0.46882 0.94116,3.00606 4.31263,4.9702 7.38618,4.2192 2.67888,-0.54772 4.7775,-3.00997 4.9608,-5.72784 2.95829,0.41011 5.8313,-2.22473 5.73678,-5.20081 0.0808,-2.72726 -2.28668,-5.16317 -5.00227,-5.22068 z"
       id="path17942-6"
       style="fill:#005822;stroke-width:1.12532;stroke-miterlimit:10" />
    <path
       class="st2"
       d="m 181.51944,294.11595 c 0.60235,-2.77732 -1.30457,-5.77197 -4.06747,-6.4158 -2.71226,-0.76667 -5.78198,0.91564 -6.63197,3.59704 -2.34769,-1.6554 -5.93207,-0.97945 -7.47974,1.45575 -1.26735,1.82064 -1.20923,4.42318 0.13508,6.18668 -1.60987,2.04959 -0.93917,5.35493 1.32516,6.63763 1.07397,0.65721 2.4327,0.85669 3.63745,0.46882 0.94116,3.00607 4.31263,4.9702 7.38619,4.2192 2.67888,-0.54772 4.77748,-3.00996 4.96078,-5.72783 2.95829,0.41011 5.8313,-2.22472 5.73679,-5.20081 0.09,-2.73473 -2.27836,-5.17284 -5.00227,-5.22068 z"
       id="path17944-3"
       style="fill:#00b345;stroke-width:1.12532;stroke-miterlimit:10" />
    <path
       style="color:#000000;font-variation-settings:normal;vector-effect:none;fill:#009fe3;fill-opacity:1;stroke-width:1.98505;stroke-linecap:butt;stroke-linejoin:miter;stroke-miterlimit:4;stroke-dasharray:none;stroke-dashoffset:0;stroke-opacity:1;-inkscape-stroke:none;stop-color:#000000"
       d="m 219.94291,273.88741 c 1.72468,0.0894 4.45844,4.52006 6.31942,10.38215 1.98505,6.23303 2.22369,11.71209 0.55625,12.24805 -1.68728,0.53596 -4.64545,-4.08925 -6.65035,-10.3223 -1.98504,-6.23304 -2.24353,-11.73087 -0.55625,-12.26683 0.10546,-0.0335 0.21596,-0.047 0.33093,-0.0411 z"
       id="path6226-8" />
    <path
       style="color:#000000;font-variation-settings:normal;vector-effect:none;fill:#009fe3;fill-opacity:1;stroke-width:1.98505;stroke-linecap:butt;stroke-linejoin:miter;stroke-miterlimit:4;stroke-dasharray:none;stroke-dashoffset:0;stroke-opacity:1;-inkscape-stroke:none;stop-color:#000000"
       d="m 207.36511,258.2068 c 2.22325,-0.33745 5.04204,6.03445 6.33232,14.27238 1.29027,8.23794 0.53572,15.1859 -1.68752,15.52335 -2.22326,0.33747 -5.04206,-6.03561 -6.33233,-14.27355 -1.27043,-8.21808 -0.51588,-15.18472 1.68753,-15.52218 z"
       id="path6224-9" />
    <path
       d="m 158.90186,227.10753 c 2.46124,-0.41918 4.70026,-0.41226 6.8215,0.92299 0.22654,-0.33693 0.74261,-0.39111 1.35379,-0.39604 l 0.61613,-0.25744 -0.24384,0.59712 c 0.19436,0.87903 -0.20229,1.43657 -0.68192,1.61915 l 0.38698,1.51743 c 0.36995,1.20271 -0.0134,4.50102 -0.71009,4.42632 0.0301,-1.62602 -0.0578,-3.20596 -1.15742,-4.39109 -1.04445,-0.12103 -2.22572,0.91996 -3.24344,1.92231 -1.19074,1.1891 -2.30436,2.05191 -3.37996,2.75391 0.82804,-0.84092 1.61335,-1.66669 1.94787,-2.33271 -0.61415,-0.0233 -1.67888,0.57514 -2.69694,1.10317 0.97548,-0.66335 1.55558,-1.47696 2.77386,-1.95447 1.27307,-0.49898 2.27039,-1.95232 2.97551,-2.94147 -1.19544,-1.96453 -2.90899,-2.56196 -4.76201,-2.58916 z"
       id="path26-2-6-4"
       style="clip-rule:evenodd;fill-rule:evenodd;stroke-width:0.0251902;stroke-miterlimit:10" />
    <path
       d="m 151.78026,238.74539 c -0.11323,0.14418 -0.26626,0.62571 -0.42592,0.91125 -0.13962,0.25003 -0.51718,0.31878 -0.82756,0.26401 -0.0711,0.65465 -0.30308,1.20287 -0.75724,1.60407 -1.5867,1.51425 -3.42821,2.3109 -5.04594,3.22742 1.96964,-1.59418 3.83364,-3.15335 3.64004,-4.69361 -0.60405,-0.29629 -2.2937,1.1062 -4.2605,2.94235 l 1.93203,-2.65253 c -1.36395,0.36702 -2.67126,0.52098 -3.9061,0.40252 1.97388,-0.46276 3.97218,-0.90653 5.18753,-1.95808 -0.163,-1.12923 -2.81896,-1.13738 -5.53001,-1.21567 0.52653,-0.0385 1.09832,-0.30567 1.6544,-0.3712 2.81055,-0.33186 5.7383,-0.58953 6.40705,0.97437 0.47336,-0.0416 0.891,0.15952 1.39911,0.41928 0.15344,0.0779 0.37517,0.0266 0.53308,0.1458 z"
       id="path34-2-4-0"
       style="clip-rule:evenodd;fill-rule:evenodd;stroke-width:0.0200093;stroke-miterlimit:10" />
    <path
       id="path16204-0"
       style="color:#000000;font-variation-settings:normal;opacity:1;vector-effect:none;fill:#72caf0;fill-opacity:1;stroke-width:1.2381;stroke-linecap:butt;stroke-linejoin:miter;stroke-miterlimit:10;stroke-dasharray:none;stroke-dashoffset:0;stroke-opacity:1;-inkscape-stroke:none;stop-color:#000000;stop-opacity:1"
       d="m 0.32411597,80.831283 v 79.352397 c 3.6531e-4,9e-5 7.811e-4,-1e-4 0.001202,0 4.31898203,0 11.51184103,4.45778 25.31639203,1.61946 l 0.0176,-0.005 0.01525,-0.002 c 10.370446,-2.1566 18.770663,-3.16975 24.108839,-3.02887 4.186599,0.11049 5.801485,0.85058 6.124613,0.98577 0.1371,0.41213 0.371243,1.63413 0.195977,4.7645 -0.293897,5.24921 -2.364895,14.41476 -6.94021,26.75043 -3.630836,9.79227 -2.725017,16.20648 -2.725017,16.52789 h 33.237765 47.612143 v -47.61197 -31.74026 c -23.4668,0 -38.459809,-1.93243 -46.182791,-4.29626 -7.722982,-2.36383 -6.709449,-2.96931 -6.834593,-3.35275 -0.125137,-0.38346 -0.200832,-4.74273 1.337814,-11.93707 1.538645,-7.19434 4.067427,-16.73454 4.067427,-28.024884 -7.2e-5,-3.54e-4 7.8e-5,-8.41e-4 0,-0.0012 z"
       sodipodi:nodetypes="ccccccscsccccccsssccc" />
    <path
       id="path16199-5"
       style="color:#000000;font-variation-settings:normal;opacity:1;vector-effect:none;fill:#b1e2f7;fill-opacity:1;stroke-width:1.2381;stroke-linecap:butt;stroke-linejoin:miter;stroke-miterlimit:10;stroke-dasharray:none;stroke-dashoffset:0;stroke-opacity:1;-inkscape-stroke:none;stop-color:#000000;stop-opacity:1"
       d="m 0.32411597,80.831283 v 71.397087 c 8.41e-6,0.007 0.001202,0.0142 0.001202,0.0211 6.36517683,0 13.62939303,3.85524 23.71570803,1.7814 l 0.01056,-0.002 0.007,-0.002 c 10.670476,-2.219 19.523532,-3.35997 25.933665,-3.19081 6.410136,0.16916 9.834781,1.59279 11.479391,3.20137 1.644622,1.60858 2.925686,4.34121 2.557105,10.92432 -0.368575,6.58309 -2.69712,16.31795 -7.424873,29.06461 v 0.002 c -2.469725,6.66078 -0.732771,11.84079 -0.732278,13.76776 h 71.417014 v -71.417 c -23.85452,0 -39.395273,-1.85411 -48.5052,-4.64245 -9.109914,-2.78834 -11.055667,-5.41596 -12.055591,-8.47988 -0.999923,-3.06392 -0.459561,-8.66283 1.121889,-16.0573 1.58145,-7.394477 3.892576,-16.339764 3.892576,-26.366694 H 55.871611 c -3.79e-4,-4.14e-4 -6.01e-4,-7.81e-4 -0.0012,-0.0012 z" />
    <path
       id="path16194-71"
       style="color:#000000;font-variation-settings:normal;opacity:1;vector-effect:none;fill:#ecf8fd;fill-opacity:1;stroke-width:1.2381;stroke-linecap:butt;stroke-linejoin:miter;stroke-miterlimit:10;stroke-dasharray:none;stroke-dashoffset:0;stroke-opacity:1;-inkscape-stroke:none;stop-color:#000000;stop-opacity:1"
       d="m 0.32411597,80.831283 v 60.506797 c 3.575e-4,1.4e-4 8.4118e-4,-1.2e-4 0.001202,0 v 5.95211 c 7.64405683,0 14.95581503,3.47835 22.71821503,1.88233 h 0.0035 l 0.0023,-0.001 c 10.857997,-2.25798 19.994223,-3.48209 27.074329,-3.29524 7.080105,0.18683 11.900545,1.76417 14.815716,4.61546 2.915172,2.85128 4.455692,7.3297 4.040437,14.74648 -0.415255,7.41676 -2.902271,17.5092 -7.725295,30.51275 -1.744398,4.70458 -0.423955,9.11565 -0.423642,12.04502 H 127.2887 v -62.44663 -4.0111 c -24.09686,0 -39.978899,-1.80589 -49.955668,-4.85955 -9.976764,-3.05366 -13.773667,-6.94555 -15.320328,-11.68476 -1.546667,-4.73922 -0.621272,-11.11246 0.986927,-18.63201 1.6082,-7.519564 3.783439,-16.092011 3.783439,-25.329304 -22.034939,0.02187 -44.33509,-0.0012 -66.45890476,-0.0012 z"
       sodipodi:nodetypes="cccccccssscccccssscc" />
    <path
       class="st1"
       d="M 63.806624,80.831712 H 0.32441604 v 126.964418 0 -63.48221 c 8.41139256,0 15.75152296,3.25347 22.11958196,1.94414 43.882076,-9.12556 61.121463,-2.10284 41.600685,50.52787 -1.309321,3.5312 -0.238059,7.479 -0.238059,11.0102 h 63.482206 v -63.48221 c -96.96907,0 -63.482206,-28.42812 -63.482206,-63.482208 z"
       id="path16209-2"
       style="fill:#95c11f;stroke-width:0.396764;stroke-miterlimit:10" />
    <path
       class="st2"
       d="m 35.656232,96.979999 c 0.602074,-2.775601 -1.303746,-5.76842 -4.064917,-6.411844 -2.710594,-0.766195 -5.778404,0.915076 -6.627871,3.594822 -2.34624,-1.654369 -5.928413,-0.978842 -7.475123,1.454852 -1.266572,1.81951 -1.208484,4.420441 0.134993,6.182851 -1.608863,2.04833 -0.938583,5.35163 1.324345,6.63354 1.073303,0.65683 2.431184,0.85614 3.635202,0.46853 0.940581,3.00421 4.309969,4.96713 7.381624,4.21659 2.677223,-0.54738 4.774535,-3.0081 4.95773,-5.72429 2.956454,0.40992 5.827704,-2.22334 5.733237,-5.19758 0.08993,-2.733045 -2.27689,-5.16959 -4.99922,-5.217471 z"
       id="path16213-5"
       style="fill:#008d36;stroke-width:1.12462;stroke-miterlimit:10" />
    <path
       class="st2"
       d="m 112.03327,163.55696 c 0.60211,-2.77559 -1.30374,-5.76841 -4.06489,-6.41184 -2.7106,-0.76619 -5.77841,0.91507 -6.62788,3.59482 -2.346244,-1.65437 -5.928415,-0.97884 -7.475124,1.45485 -1.266574,1.81952 -1.20848,4.42045 0.134993,6.18286 -1.608864,2.04832 -0.938582,5.35162 1.324345,6.63354 1.073297,0.65679 2.431204,0.85618 3.635203,0.46852 0.940575,3.00421 4.309963,4.96714 7.381623,4.2166 2.67722,-0.54738 4.77454,-3.00811 4.95773,-5.7243 2.95645,0.40992 5.8277,-2.22334 5.73323,-5.19758 0.0845,-2.72873 -2.28035,-5.16597 -4.99923,-5.21747 z"
       id="path16215-3"
       style="fill:#005822;stroke-width:1.12462;stroke-miterlimit:10" />
    <path
       class="st2"
       d="m 99.535204,177.56273 c 0.602076,-2.77561 -1.303747,-5.76842 -4.064916,-6.41185 -2.710595,-0.76619 -5.778404,0.91508 -6.627871,3.59483 -2.346239,-1.65437 -5.928413,-0.97884 -7.475124,1.45485 -1.266575,1.81951 -1.208479,4.42044 0.134993,6.18285 -1.608864,2.04832 -0.938582,5.35162 1.324345,6.63354 1.073298,0.65679 2.4312,0.85617 3.635203,0.46853 0.940582,3.00421 4.309969,4.96713 7.381624,4.21659 2.677227,-0.54738 4.774536,-3.00811 4.95773,-5.7243 2.956452,0.40992 5.827702,-2.22334 5.733232,-5.19758 0.0862,-2.72988 -2.28164,-5.16358 -4.999216,-5.21746 z"
       id="path16217-7"
       style="fill:#008d36;stroke-width:1.12462;stroke-miterlimit:10" />
    <g
       id="g16801"
       transform="translate(-511.16938,-144.52495)">
      <rect
         x="-767.62268"
         y="-352.00244"
         width="127.6216"
         height="126.6458"
         style="clip-rule:evenodd;fill:#009fe3;fill-rule:evenodd;stroke-width:1.98645;stroke-miterlimit:10"
         id="rect2-9"
         transform="scale(-1)" />
      <path
         d="m 640.00001,272.78507 v 79.21496 h 79.70309 c 0,-11.45898 -2.45364,-22.32062 -6.85292,-32.14217 l -9.38989,-20.96631 -19.33093,19.18231 c 0,0 -10.92793,-10.84357 -10.92793,-10.84357 0,0 19.42731,-19.30679 19.42731,-19.30679 l -22.10583,-9.11077 c -9.40294,-3.87621 -19.70139,-6.02766 -30.5229,-6.02766 z"
         style="font-variation-settings:normal;clip-rule:evenodd;opacity:1;vector-effect:none;fill:#72caf0;fill-opacity:1;fill-rule:evenodd;stroke-width:1.2381;stroke-linecap:butt;stroke-linejoin:miter;stroke-miterlimit:10;stroke-dasharray:none;stroke-dashoffset:0;stroke-opacity:1;-inkscape-stroke:none;stop-color:#000000;stop-opacity:1"
         id="path5-2" />
      <path
         d="m 640.00001,280.73127 v 71.26876 h 71.75687 c 0,-10.30043 -2.20365,-20.06577 -6.15819,-28.89442 l -4.69544,-10.48315 -16.77389,16.64634 c 0,0 -22.20422,-22.0345 -22.20422,-22.0345 0,0 16.6233,-16.51984 16.6233,-16.51984 l -11.05342,-4.55589 c -8.47028,-3.4907 -17.74772,-5.4273 -27.49501,-5.4273 z"
         style="clip-rule:evenodd;fill:#b1e2f7;fill-rule:evenodd;stroke-width:1.00394;stroke-miterlimit:10"
         id="path8-1" />
      <path
         d="m 640.00001,285.69676 v 66.30327 h 66.79036 c 0,-9.57659 -2.04804,-18.65523 -5.72448,-26.86445 l -1.75992,-3.93144 -15.17661,15.06113 c 0,0 -29.25291,-29.02896 -29.25291,-29.02896 10e-4,0 14.87142,-14.77801 14.87142,-14.77801 l -4.14529,-1.7077 c -7.88698,-3.25177 -16.52591,-5.05384 -25.60257,-5.05384 z"
         style="clip-rule:evenodd;fill:#ecf8fd;fill-rule:evenodd;stroke-width:1.00394;stroke-miterlimit:10"
         id="path11-5" />
      <path
         d="m 703.81186,352.00245 c 0,-9.14225 -1.95421,-17.80957 -5.4638,-25.64578 l -14.21784,14.10914 -33.48073,-33.22474 13.81902,-13.73315 c -7.53765,-3.10678 -15.79317,-4.82837 -24.46745,-4.82837 v 63.3229 z"
         style="clip-rule:evenodd;fill:#95c11f;fill-rule:nonzero;stroke:#95c11f;stroke-width:0.39729px;stroke-miterlimit:10"
         id="path14-0" />
      <path
         d="m 683.23288,324.93191 c 3.58935,-2.45376 7.17871,-5.36266 10.5886,-8.7069 12.22376,-11.97199 18.96377,-26.04154 18.18608,-35.95553 -9.99038,-0.89048 -24.22816,5.60011 -36.47186,17.59189 -3.40989,3.34424 -6.40102,6.86658 -8.91357,10.4087 z"
         style="clip-rule:evenodd;fill:#ffffff;fill-rule:nonzero;stroke-width:1.98645;stroke-miterlimit:10"
         id="path17-4" />
      <rect
         x="-275.73828"
         y="-703.21533"
         width="19.551863"
         height="15.118339"
         style="clip-rule:evenodd;fill:#bdbdbd;fill-rule:evenodd;stroke-width:1.98648;stroke-miterlimit:10"
         id="rect20-1"
         transform="matrix(-0.71428274,0.69985725,-0.70531849,-0.70889056,0,0)" />
      <rect
         x="-246.297"
         y="-706.44031"
         width="17.321962"
         height="5.6216912"
         style="clip-rule:evenodd;fill:#936037;fill-rule:evenodd;stroke-width:1.98646;stroke-miterlimit:10"
         id="rect23-4"
         transform="matrix(-0.70981522,0.70438793,-0.70981519,-0.70438796,0,0)" />
      <path
         d="m 755.20367,259.81009 c -0.4813,2.34975 -1.26679,4.3522 -3.2007,5.78686 0.22281,0.32014 0.0917,0.80108 -0.11658,1.35006 l 0.0161,0.6413 -0.4498,-0.42618 c -0.85475,-0.13192 -1.21592,-0.68113 -1.21247,-1.17416 l -1.49343,-0.18163 c -1.20569,-0.0873 -4.02563,-1.57862 -3.71626,-2.17642 1.44548,0.59292 2.89081,1.06405 4.3347,0.49195 0.47191,-0.89309 -0.0491,-2.31315 -0.59237,-3.57332 -0.65031,-1.48007 -1.03529,-2.77754 -1.2895,-3.98498 0.46477,1.03412 0.93085,2.02472 1.41079,2.55606 0.23466,-0.54179 0.0693,-1.70347 -0.0491,-2.79885 0.25446,1.10434 0.78108,1.90696 0.78462,3.16403 0.004,1.3136 0.95794,2.71246 1.59821,3.68812 2.17516,-0.38666 3.30652,-1.71307 3.97583,-3.36284 z"
         id="path26-4"
         style="clip-rule:evenodd;fill-rule:evenodd;stroke-width:0.0241999;stroke-miterlimit:10" />
      <path
         d="m 756.12955,252.8934 c 0.0433,-0.17814 0.32686,-0.5963 0.45242,-0.8984 0.1099,-0.26444 -0.0695,-0.60353 -0.30462,-0.81348 0.47032,-0.46091 0.75749,-0.98234 0.79169,-1.58736 0.20792,-2.18342 -0.30557,-4.12304 -0.58645,-5.96102 -0.0338,2.53372 -0.10542,4.96279 -1.43527,5.76366 -0.6065,-0.29126 -0.55009,-2.48639 -0.32444,-5.16759 l -0.88852,3.15897 c -0.55555,-1.29861 -1.24343,-2.42091 -2.10051,-3.31775 0.8577,1.83704 1.74543,3.68151 1.67126,5.28691 -0.98799,0.57061 -2.63766,-1.51093 -4.37653,-3.59233 0.29558,0.43743 0.43941,1.05197 0.73198,1.52938 1.4782,2.41335 3.08719,4.87288 4.72959,4.43067 0.26022,0.3976 0.67659,0.60128 1.19504,0.83975 0.15632,0.0719 0.25301,0.27828 0.44436,0.32859 z"
         id="path30-4"
         style="clip-rule:evenodd;fill-rule:evenodd;stroke-width:0.0200093;stroke-miterlimit:10" />
      <path
         d="m 737.77573,248.18447 c -0.18128,-0.0273 -0.6756,0.0773 -1.00274,0.0794 -0.28636,0.002 -0.53252,-0.29242 -0.6381,-0.58939 -0.60444,0.26131 -1.19572,0.33018 -1.76882,0.13325 -2.10012,-0.63245 -3.70197,-1.84072 -5.29758,-2.79521 2.35867,0.92602 4.63476,1.77747 5.87872,0.84879 -0.0405,-0.67159 -2.09425,-1.44874 -4.66197,-2.25285 l 3.26053,0.37088 c -0.99246,-1.00501 -1.77166,-2.06595 -2.27819,-3.19834 1.3768,1.48821 2.74915,3.00703 4.26357,3.54492 0.9016,-0.69916 -0.40235,-3.01301 -1.67248,-5.4094 0.29333,0.43894 0.80797,0.8043 1.13946,1.25556 1.67596,2.28046 3.34525,4.69947 2.31527,6.05304 0.26982,0.39115 0.30108,0.85362 0.32599,1.42374 0.008,0.17189 0.16206,0.33939 0.13634,0.53557 z"
         id="path34-25"
         style="clip-rule:evenodd;fill-rule:evenodd;stroke-width:0.0200093;stroke-miterlimit:10" />
    </g>
    <g
       id="g16768"
       transform="translate(-320.05976,144.06336)">
      <rect
         y="-191.99998"
         class="st0"
         width="128.26744"
         height="128.26724"
         id="rect32702-0"
         style="fill:#009fe3;stroke-width:2.00418"
         x="-448"
         transform="scale(-1)" />
      <path
         id="path32711-5"
         style="color:#000000;font-variation-settings:normal;opacity:1;vector-effect:none;fill:#72caf0;fill-opacity:1;stroke-width:1.2381;stroke-linecap:butt;stroke-linejoin:miter;stroke-miterlimit:10;stroke-dasharray:none;stroke-dashoffset:0;stroke-opacity:1;-inkscape-stroke:none;stop-color:#000000;stop-opacity:1"
         d="m 366.41642,63.733557 c -6.27401,3.689659 -14.71205,8.993531 -22.70523,16.88005 -5.6461,5.565258 -10.21912,11.347305 -12.10019,19.182392 -1.88106,7.835091 0.51357,16.105721 3.57221,21.396831 6.11726,10.58221 13.38464,16.20141 20.31014,26.58966 l 0.002,0.002 v 0.001 c 7.58724,13.24993 12.33724,28.84481 12.33724,44.21362 H 447.9994 V 63.732487 Z"
         sodipodi:nodetypes="ccssccccccc" />
      <path
         id="path32708-3"
         style="color:#000000;font-variation-settings:normal;opacity:1;vector-effect:none;fill:#b1e2f7;fill-opacity:1;stroke-width:1.2381;stroke-linecap:butt;stroke-linejoin:miter;stroke-miterlimit:10;stroke-dasharray:none;stroke-dashoffset:0;stroke-opacity:1;-inkscape-stroke:none;stop-color:#000000;stop-opacity:1"
         d="m 375.861,63.732487 -0.0117,0.0012 v 2.472609 c -6.27695,3.280574 -15.53876,9.29105 -26.50986,20.116517 -5.09778,5.024798 -8.58944,9.750041 -9.93269,15.344977 -1.34324,5.59494 0.25294,11.25075 2.7167,15.51279 4.92753,8.52408 12.56914,14.94998 20.04024,26.15664 h 0.002 v 0.001 c 11.94115,17.90279 13.555,40.10415 13.68327,46.56418 v 2.09709 h 72.15047 V 63.732487 Z" />
      <path
         id="path32705-6"
         style="color:#000000;font-variation-settings:normal;opacity:1;vector-effect:none;fill:#ecf8fd;fill-opacity:1;stroke-width:1.2381;stroke-linecap:butt;stroke-linejoin:miter;stroke-miterlimit:10;stroke-dasharray:none;stroke-dashoffset:0;stroke-opacity:1;-inkscape-stroke:none;stop-color:#000000;stop-opacity:1"
         d="m 447.99975,63.732487 -67.13837,0.0012 v 5.636427 c -5.53688,2.521391 -15.43081,8.112286 -28.0061,20.521378 -4.7551,4.687016 -7.57017,8.751439 -8.57728,12.946298 -1.00711,4.19485 0.092,8.2161 2.18393,11.83497 4.18393,7.23776 12.06032,14.16624 19.87242,25.88438 12.86227,19.2838 14.39229,42.36722 14.52703,49.27737 v 2.16515 h 67.13837 z" />
      <path
         class="st1"
         d="m 368.83507,138.88935 c 13.40793,20.10188 14.89102,43.69102 15.03131,50.88601 V 192 H 448 V 63.732765 h -64.13362 v 7.535695 c -4.66972,1.924012 -15.25177,7.295207 -28.90021,20.763258 -18.17787,17.937372 -2.16451,22.807522 13.8689,46.857632 z"
         id="path32714-0"
         style="fill:#95c11f;stroke-width:0.400836;stroke-miterlimit:10" />
      <path
         d="m 435.17689,153.55408 c -0.4813,2.34975 -1.26679,4.3522 -3.2007,5.78686 0.22281,0.32014 0.0917,0.80108 -0.11658,1.35006 l 0.0161,0.6413 -0.4498,-0.42618 c -0.85475,-0.13192 -1.21592,-0.68113 -1.21247,-1.17416 l -1.49343,-0.18163 c -1.20569,-0.0874 -4.02563,-1.57862 -3.71626,-2.17642 1.44548,0.59292 2.89081,1.06405 4.3347,0.49195 0.47191,-0.89309 -0.0491,-2.31315 -0.59237,-3.57332 -0.65031,-1.48007 -1.03529,-2.77754 -1.2895,-3.98498 0.46477,1.03412 0.93085,2.02472 1.41079,2.55606 0.23466,-0.54179 0.0693,-1.70347 -0.0491,-2.79885 0.25446,1.10434 0.78108,1.90696 0.78462,3.16403 0.004,1.3136 0.95794,2.71246 1.59821,3.68812 2.17516,-0.38666 3.30652,-1.71307 3.97583,-3.36284 z"
         id="path26-2-0"
         style="clip-rule:evenodd;fill-rule:evenodd;stroke-width:0.0241999;stroke-miterlimit:10" />
      <path
         d="m 392.19849,127.33044 c 1.57947,1.93356 2.67868,3.8842 2.56454,6.3881 0.40484,0.0307 0.7067,0.45277 1.01268,0.98187 l 0.52803,0.40875 -0.63967,0.0827 c -0.66853,0.60293 -1.3492,0.53319 -1.74475,0.20619 l -1.12865,1.08559 c -0.86335,0.91541 -3.92106,2.21012 -4.19998,1.56737 1.42899,-0.77643 2.7596,-1.63283 3.2475,-3.17411 -0.4103,-0.96808 -1.89873,-1.48155 -3.27282,-1.87186 -1.62191,-0.44859 -2.92198,-0.99118 -4.06343,-1.58008 1.14006,0.30503 2.24586,0.58038 2.99021,0.54254 -0.28285,-0.54564 -1.32891,-1.17618 -2.29067,-1.80092 1.05842,0.52091 2.05235,0.62379 3.069,1.4476 1.06236,0.86085 2.8186,1.01079 4.0269,1.13576 1.11841,-2.00938 0.79214,-3.79452 -0.0989,-5.41948 z"
         id="path26-2-6-5"
         style="clip-rule:evenodd;fill-rule:evenodd;stroke-width:0.0251902;stroke-miterlimit:10" />
      <path
         d="m 417.74896,141.92845 c -0.18128,-0.0273 -0.6756,0.0773 -1.00274,0.0794 -0.28636,0.002 -0.53252,-0.29242 -0.6381,-0.58939 -0.60444,0.26131 -1.19572,0.33018 -1.76882,0.13325 -2.10013,-0.63245 -3.70197,-1.84072 -5.29759,-2.79521 2.35868,0.92603 4.63476,1.77747 5.87873,0.84879 -0.0405,-0.67159 -2.09426,-1.44874 -4.66197,-2.25285 l 3.26053,0.37089 c -0.99246,-1.00502 -1.77167,-2.06596 -2.2782,-3.19835 1.3768,1.48821 2.74915,3.00703 4.26358,3.54492 0.9016,-0.69916 -0.40235,-3.01301 -1.67249,-5.4094 0.29334,0.43894 0.80798,0.8043 1.13947,1.25556 1.67596,2.28046 3.34525,4.69947 2.31527,6.05304 0.26981,0.39115 0.30108,0.85362 0.32599,1.42374 0.008,0.17189 0.16206,0.3394 0.13634,0.53557 z"
         id="path34-2-6"
         style="clip-rule:evenodd;fill-rule:evenodd;stroke-width:0.0200093;stroke-miterlimit:10" />
      <path
         d="m 378.56194,126.88164 c -0.18128,-0.0273 -0.6756,0.0773 -1.00274,0.0794 -0.28636,0.002 -0.53252,-0.29242 -0.6381,-0.58939 -0.60444,0.26131 -1.19572,0.33018 -1.76882,0.13325 -2.10013,-0.63245 -3.70197,-1.84072 -5.29759,-2.79521 2.35868,0.92603 4.63476,1.77747 5.87873,0.84879 -0.0405,-0.67159 -2.09426,-1.44874 -4.66197,-2.25285 l 3.26053,0.37089 c -0.99246,-1.00502 -1.77167,-2.06596 -2.2782,-3.19835 1.3768,1.48821 2.74915,3.00703 4.26358,3.54492 0.9016,-0.69916 -0.40235,-3.01301 -1.67249,-5.4094 0.29334,0.43894 0.80798,0.8043 1.13947,1.25556 1.67596,2.28046 3.34525,4.69947 2.31527,6.05304 0.26981,0.39115 0.30108,0.85362 0.32599,1.42374 0.008,0.17189 0.16206,0.3394 0.13634,0.53557 z"
         id="path34-2-4-2"
         style="clip-rule:evenodd;fill-rule:evenodd;stroke-width:0.0200093;stroke-miterlimit:10" />
      <path
         d="m 360.43923,115.64859 c -0.13968,-0.11872 -0.38571,-0.56004 -0.59911,-0.808 -0.1868,-0.21706 -0.57037,-0.20921 -0.86359,-0.0936 -0.20027,-0.62732 -0.53693,-1.11825 -1.06199,-1.42079 -1.85686,-1.1673 -3.82027,-1.58062 -5.58832,-2.15601 2.24806,1.16925 4.38561,2.32525 4.50314,3.87318 -0.53283,0.41081 -2.46827,-0.62643 -4.7618,-2.03335 l 2.4223,2.21382 c -1.40974,-0.0876 -2.72148,0.0223 -3.90789,0.38474 2.02652,0.0597 4.07319,0.096 5.47387,0.88395 0.0655,1.13904 -2.53543,1.67682 -5.17638,2.29434 0.52362,-0.0674 1.13722,0.0804 1.69519,0.0337 2.82027,-0.23545 5.74059,-0.56696 6.08394,-2.23283 0.47214,-0.0537 0.84127,-0.33405 1.28736,-0.68995 0.1345,-0.1073 0.36231,-0.10089 0.49328,-0.2492 z"
         id="path30-7-8"
         style="clip-rule:evenodd;fill-rule:evenodd;stroke-width:0.0200093;stroke-miterlimit:10" />
      <path
         class="st2"
         d="m 387.29353,98.946127 c -0.71695,3.167053 1.90213,6.539983 5.14536,6.654863 2.44383,0.16179 4.91716,-1.45782 5.65714,-3.80893 2.53652,1.82343 6.52682,0.81563 7.87646,-2.006237 0.93425,-1.785508 0.76616,-4.102977 -0.46101,-5.709845 1.80414,-2.25278 0.74044,-6.038297 -1.97526,-7.02525 -0.93556,-0.541688 -2.28174,-0.218629 -3.08151,-0.291188 -1.0717,-3.215979 -4.96633,-5.134465 -8.15518,-3.913247 -2.3435,0.815594 -4.09906,3.099254 -4.26446,5.57791 -3.06926,-0.441982 -6.04966,2.431729 -5.79289,5.508443 0.0528,2.640675 2.41263,4.976651 5.05135,5.013481 z"
         id="path32718-3"
         style="fill:#005822;stroke-width:1.13616;stroke-miterlimit:10" />
      <path
         class="st2"
         d="m 414.32985,116.36241 c -0.71695,3.16706 1.90213,6.54 5.14537,6.65488 2.44383,0.16177 4.91715,-1.45785 5.65714,-3.80895 2.53652,1.82344 6.52682,0.81564 7.87645,-2.00623 0.93426,-1.78551 0.76617,-4.10298 -0.46101,-5.70984 1.80415,-2.25278 0.74045,-6.0383 -1.97525,-7.02526 -0.93556,-0.54169 -2.28175,-0.21863 -3.08152,-0.29119 -1.0717,-3.21597 -4.96633,-5.134466 -8.15517,-3.91324 -2.3435,0.81559 -4.09907,3.09925 -4.26446,5.57791 -3.06926,-0.44198 -6.04966,2.43172 -5.79289,5.50844 0.0528,2.64067 2.41262,4.97664 5.05134,5.01348 z"
         id="path32720-2"
         style="fill:#008d36;stroke-width:1.13616;stroke-miterlimit:10" />
      <path
         class="st2"
         d="m 399.17829,176.98872 c -0.71695,3.16705 1.90213,6.53999 5.14536,6.65487 2.44383,0.16178 4.91716,-1.45783 5.65714,-3.80894 2.53652,1.82342 6.52682,0.81564 7.87646,-2.00624 0.93425,-1.7855 0.76616,-4.10297 -0.46101,-5.70984 1.80414,-2.25278 0.74044,-6.0383 -1.97526,-7.02525 -0.93556,-0.54168 -2.28174,-0.21863 -3.08151,-0.29119 -1.07171,-3.21598 -4.96633,-5.13446 -8.15518,-3.91324 -2.3435,0.81559 -4.09906,3.09925 -4.26446,5.57791 -3.06926,-0.44198 -6.04966,2.43172 -5.79289,5.50844 0.0528,2.64067 2.41262,4.97665 5.05135,5.01348 z"
         id="path32722-7"
         style="fill:#00b345;stroke-width:1.13616;stroke-miterlimit:10" />
    </g>
  </g>
  <g
     id="g16718"
     transform="matrix(0.48526082,0,0,0.48526082,0.35836669,42.244865)">
    <path
       style="color:#000000;fill:#747474;stroke-linecap:round;stroke-linejoin:round;-inkscape-stroke:none"
       d="m -14.048828,206.41016 a 1.86902,1.86902 0 0 0 -1.869141,1.86914 1.86902,1.86902 0 0 0 1.869141,1.86914 H 270.05664 a 1.86902,1.86902 0 0 0 1.86914,-1.86914 1.86902,1.86902 0 0 0 -1.86914,-1.86914 z"
       id="line83-9" />
    <path
       style="color:#000000;fill:#747474;stroke-linecap:round;stroke-linejoin:round;-inkscape-stroke:none"
       d="m 128.00391,64.357422 a 1.86902,1.86902 0 0 0 -1.86914,1.86914 V 350.33203 a 1.86902,1.86902 0 0 0 1.86914,1.86914 1.86902,1.86902 0 0 0 1.86914,-1.86914 V 66.226562 a 1.86902,1.86902 0 0 0 -1.86914,-1.86914 z"
       id="line85-9" />
  </g>
</svg>
