<?xml version="1.0" encoding="UTF-8" standalone="no"?>
<!-- Created with Inkscape (http://www.inkscape.org/) -->

<svg
   width="6.614583mm"
   height="3.5718739mm"
   viewBox="0 0 6.614583 3.5718739"
   version="1.1"
   id="svg1363"
   sodipodi:docname="2023-DE-06-water.svg"
   inkscape:version="1.1.1 (3bf5ae0d25, 2021-09-20)"
   xmlns:inkscape="http://www.inkscape.org/namespaces/inkscape"
   xmlns:sodipodi="http://sodipodi.sourceforge.net/DTD/sodipodi-0.dtd"
   xmlns="http://www.w3.org/2000/svg"
   xmlns:svg="http://www.w3.org/2000/svg">
  <sodipodi:namedview
     id="namedview1365"
     pagecolor="#ffffff"
     bordercolor="#666666"
     borderopacity="1.0"
     inkscape:pageshadow="2"
     inkscape:pageopacity="0.0"
     inkscape:pagecheckerboard="0"
     inkscape:document-units="mm"
     showgrid="false"
     inkscape:zoom="3.6233469"
     inkscape:cx="107.4973"
     inkscape:cy="52.5757"
     inkscape:window-width="2048"
     inkscape:window-height="1017"
     inkscape:window-x="-8"
     inkscape:window-y="-8"
     inkscape:window-maximized="1"
     inkscape:current-layer="layer1" />
  <defs
     id="defs1360" />
  <g
     inkscape:label="Ebene 1"
     inkscape:groupmode="layer"
     id="layer1"
     transform="translate(-35.575442,-86.757881)">
    <path
       d="m 35.575442,89.118162 c 0.261703,0.250245 0.6822,0.649038 1.140362,0.91374 0.352903,0.203882 0.730859,0.325705 1.084033,0.292395 0.187731,-0.01769 0.391588,-0.09749 0.598919,-0.225515 0.253177,-0.15649 0.520766,-0.387679 0.785673,-0.619483 0.241445,-0.211163 0.480203,-0.422987 0.705515,-0.563968 0.109971,-0.0687 0.210655,-0.122379 0.308161,-0.130711 0.212853,-0.01816 0.422529,0.08589 0.62365,0.220483 0.376099,0.251751 0.706251,0.630519 0.913974,0.866204 l 0.454296,-0.2852 C 41.960066,89.3252 41.589834,88.909411 41.17366,88.630748 c -0.32722,-0.219081 -0.686211,-0.351133 -1.032738,-0.321559 -0.182061,0.01558 -0.382695,0.09384 -0.587973,0.222239 -0.247065,0.154571 -0.51148,0.384625 -0.776142,0.616143 -0.240957,0.210892 -0.482156,0.423252 -0.712604,0.565618 -0.115322,0.07125 -0.222775,0.126358 -0.327246,0.136218 -0.231131,0.0218 -0.470302,-0.07837 -0.701265,-0.211804 -0.417494,-0.24121 -0.797255,-0.607625 -1.035719,-0.835639 z m 0,-1.547185 c 0.261703,0.250243 0.6822,0.649036 1.140362,0.913738 0.352903,0.203882 0.730859,0.325684 1.084033,0.292398 0.187731,-0.01772 0.391588,-0.09749 0.598919,-0.225537 0.253177,-0.15647 0.520766,-0.387657 0.785673,-0.619464 0.241445,-0.211185 0.480203,-0.422987 0.705515,-0.563989 0.109971,-0.06868 0.210655,-0.122377 0.308161,-0.13069 0.212853,-0.01819 0.422529,0.08588 0.62365,0.220485 0.376099,0.25173 0.706251,0.630498 0.913974,0.866181 l 0.454296,-0.2852 c -0.229959,-0.260907 -0.600191,-0.676675 -1.016365,-0.955338 -0.32722,-0.21908 -0.686211,-0.351153 -1.032738,-0.321557 -0.182061,0.01556 -0.382695,0.09381 -0.587973,0.222216 -0.247065,0.154573 -0.51148,0.384646 -0.776142,0.616164 -0.240957,0.210894 -0.482156,0.423235 -0.712604,0.565618 -0.115322,0.07123 -0.222775,0.126358 -0.327246,0.136197 -0.231131,0.0218 -0.470302,-0.07837 -0.701265,-0.211805 -0.417494,-0.241188 -0.797255,-0.607603 -1.035719,-0.835636 z"
       style="clip-rule:evenodd;fill:#002255;fill-rule:evenodd;stroke-width:0.0224496;stroke-linejoin:round;stroke-miterlimit:2"
       id="path11714-3" />
  </g>
</svg>
