<?xml version="1.0" encoding="UTF-8" standalone="no"?>
<!-- Created with Inkscape (http://www.inkscape.org/) -->

<svg
   width="6.6145802mm"
   height="5.5692649mm"
   viewBox="0 0 6.6145802 5.5692649"
   version="1.1"
   id="svg945"
   sodipodi:docname="2023-DE-06-explanation_W.svg"
   inkscape:version="1.1.1 (3bf5ae0d25, 2021-09-20)"
   xmlns:inkscape="http://www.inkscape.org/namespaces/inkscape"
   xmlns:sodipodi="http://sodipodi.sourceforge.net/DTD/sodipodi-0.dtd"
   xmlns="http://www.w3.org/2000/svg"
   xmlns:svg="http://www.w3.org/2000/svg">
  <sodipodi:namedview
     id="namedview947"
     pagecolor="#ffffff"
     bordercolor="#666666"
     borderopacity="1.0"
     inkscape:pageshadow="2"
     inkscape:pageopacity="0.0"
     inkscape:pagecheckerboard="0"
     inkscape:document-units="mm"
     showgrid="false"
     inkscape:zoom="4.0920134"
     inkscape:cx="-33.846419"
     inkscape:cy="-5.7428941"
     inkscape:window-width="1920"
     inkscape:window-height="1001"
     inkscape:window-x="-9"
     inkscape:window-y="-9"
     inkscape:window-maximized="1"
     inkscape:current-layer="layer1" />
  <defs
     id="defs942" />
  <g
     inkscape:label="Ebene 1"
     inkscape:groupmode="layer"
     id="layer1"
     transform="translate(-101.69271,-145.71537)">
    <path
       d="m 101.69271,149.07434 c 0.2617,0.25025 0.6822,0.64904 1.14036,0.91374 0.3529,0.20389 0.73086,0.32571 1.08403,0.2924 0.18773,-0.0177 0.39159,-0.0975 0.59892,-0.22552 0.25318,-0.15649 0.52077,-0.38768 0.78568,-0.61948 0.24144,-0.21116 0.4802,-0.42299 0.70551,-0.56397 0.10997,-0.0687 0.21066,-0.12238 0.30816,-0.13071 0.21285,-0.0182 0.42253,0.0859 0.62365,0.22048 0.3761,0.25176 0.70625,0.63052 0.91398,0.86621 l 0.45429,-0.2852 c -0.22996,-0.26091 -0.60019,-0.6767 -1.01636,-0.95536 -0.32722,-0.21908 -0.68621,-0.35113 -1.03274,-0.32156 -0.18206,0.0156 -0.3827,0.0938 -0.58797,0.22224 -0.24707,0.15457 -0.51148,0.38462 -0.77615,0.61614 -0.24095,0.21089 -0.48215,0.42325 -0.7126,0.56562 -0.11532,0.0712 -0.22278,0.12636 -0.32725,0.13622 -0.23113,0.0218 -0.4703,-0.0784 -0.70126,-0.21181 -0.4175,-0.24121 -0.79726,-0.60762 -1.03572,-0.83563 z m 0,-1.54718 c 0.2617,0.25024 0.6822,0.64903 1.14036,0.91374 0.3529,0.20388 0.73086,0.32568 1.08403,0.29239 0.18773,-0.0177 0.39159,-0.0975 0.59892,-0.22553 0.25318,-0.15647 0.52077,-0.38766 0.78568,-0.61947 0.24144,-0.21118 0.4802,-0.42298 0.70551,-0.56399 0.10997,-0.0687 0.21066,-0.12237 0.30816,-0.13069 0.21285,-0.0182 0.42253,0.0859 0.62365,0.22049 0.3761,0.25173 0.70625,0.6305 0.91398,0.86618 l 0.45429,-0.2852 c -0.22996,-0.26091 -0.60019,-0.67667 -1.01636,-0.95534 -0.32722,-0.21908 -0.68621,-0.35115 -1.03274,-0.32155 -0.18206,0.0156 -0.3827,0.0938 -0.58797,0.22221 -0.24707,0.15457 -0.51148,0.38465 -0.77615,0.61617 -0.24095,0.21089 -0.48215,0.42323 -0.7126,0.56561 -0.11532,0.0712 -0.22278,0.12636 -0.32725,0.1362 -0.23113,0.0218 -0.4703,-0.0784 -0.70126,-0.2118 -0.4175,-0.24119 -0.79726,-0.60761 -1.03572,-0.83564 z"
       style="clip-rule:evenodd;fill:#002255;fill-rule:evenodd;stroke-width:0.0224496;stroke-linejoin:round;stroke-miterlimit:2"
       id="path11714-8" />
  </g>
</svg>
