<?xml version="1.0" encoding="UTF-8" standalone="no"?>
<svg
   height="240.97516"
   width="636.72668"
   version="1.1"
   viewBox="-32 32 788.32828 189.33762"
   id="svg13890"
   sodipodi:docname="2023-DE-06-question.svg"
   inkscape:version="1.1.1 (3bf5ae0d25, 2021-09-20)"
   xmlns:inkscape="http://www.inkscape.org/namespaces/inkscape"
   xmlns:sodipodi="http://sodipodi.sourceforge.net/DTD/sodipodi-0.dtd"
   xmlns="http://www.w3.org/2000/svg"
   xmlns:svg="http://www.w3.org/2000/svg"
   xmlns:bx="https://boxy-svg.com">
  <sodipodi:namedview
     id="namedview202"
     pagecolor="#ffffff"
     bordercolor="#666666"
     borderopacity="1.0"
     inkscape:pageshadow="2"
     inkscape:pageopacity="0.0"
     inkscape:pagecheckerboard="0"
     showgrid="false"
     inkscape:zoom="4"
     inkscape:cx="121.125"
     inkscape:cy="189.875"
     inkscape:window-width="2048"
     inkscape:window-height="1017"
     inkscape:window-x="-8"
     inkscape:window-y="-8"
     inkscape:window-maximized="1"
     inkscape:current-layer="svg13890"
     showguides="false"
     inkscape:snap-others="true"
     inkscape:snap-global="false" />
  <defs
     id="defs13867">
    <bx:grid
       x="0"
       y="0"
       width="32"
       height="32" />
    <clipPath
       id="clip-0">
      <rect
         x="-295.70901"
         y="-396.18799"
         width="63.870998"
         height="63.870998"
         style="fill:#d8d8d8"
         id="rect-2"
         transform="scale(-1)" />
    </clipPath>
    <clipPath
       id="clip-2">
      <rect
         x="322.384"
         y="32.237999"
         width="64.476997"
         height="64.476997"
         style="fill:#d8d8d8"
         id="rect-4"
         transform="rotate(-90,453.13345,110.05801)" />
    </clipPath>
    <clipPath
       id="clip-3">
      <rect
         x="280.85599"
         y="355.42099"
         width="64.016998"
         height="64.016998"
         style="fill:#d8d8d8"
         id="rect-5" />
    </clipPath>
    <clipPath
       id="clip-4">
      <rect
         x="196.799"
         y="305.367"
         width="125.832"
         height="125.832"
         style="fill:#d8d8d8"
         id="rect-6" />
    </clipPath>
    <clipPath
       id="clip-5">
      <rect
         x="-337.668"
         y="-189.29201"
         width="64.094002"
         height="64.094002"
         style="fill:#d8d8d8"
         id="rect-7"
         transform="scale(-1)" />
    </clipPath>
  </defs>
  <rect
     x="619.13104"
     y="138.64664"
     width="137.19728"
     height="137.19728"
     style="fill:#ffeeaa;stroke-width:1.07185"
     id="container5" />
  <rect
     x="458.85184"
     y="138.43437"
     width="137.19728"
     height="137.19728"
     style="fill:#ffeeaa;stroke-width:1.07185"
     id="container4" />
  <rect
     x="299.30258"
     y="138.47281"
     width="137.19728"
     height="137.19728"
     style="fill:#ffeeaa;stroke-width:1.07185"
     id="container3" />
  <rect
     x="618.84576"
     y="-22.506289"
     width="137.19728"
     height="137.19728"
     style="fill:#ffeeaa;stroke-width:1.07185"
     id="container2" />
  <rect
     x="459.30344"
     y="-22.017351"
     width="137.19728"
     height="137.19728"
     style="fill:#ffeeaa;stroke-width:1.07185"
     id="container1" />
  <rect
     x="299.18539"
     y="-22.166552"
     width="137.19728"
     height="137.19728"
     style="fill:#ffeeaa;stroke-width:1.07185"
     id="container0" />
  <g
     id="g16801"
     transform="translate(-16.082232,-81.434263)">
    <rect
       x="-767.62268"
       y="-352.00244"
       width="127.6216"
       height="126.6458"
       style="clip-rule:evenodd;fill:#009fe3;fill-rule:evenodd;stroke-width:1.98645;stroke-miterlimit:10"
       id="rect2"
       transform="scale(-1)" />
    <path
       d="m 640.00001,272.78507 v 79.21496 h 79.70309 c 0,-11.45898 -2.45364,-22.32062 -6.85292,-32.14217 l -9.38989,-20.96631 -19.33093,19.18231 c 0,0 -10.92793,-10.84357 -10.92793,-10.84357 0,0 19.42731,-19.30679 19.42731,-19.30679 l -22.10583,-9.11077 c -9.40294,-3.87621 -19.70139,-6.02766 -30.5229,-6.02766 z"
       style="font-variation-settings:normal;clip-rule:evenodd;opacity:1;vector-effect:none;fill:#72caf0;fill-opacity:1;fill-rule:evenodd;stroke-width:1.2381;stroke-linecap:butt;stroke-linejoin:miter;stroke-miterlimit:10;stroke-dasharray:none;stroke-dashoffset:0;stroke-opacity:1;-inkscape-stroke:none;stop-color:#000000;stop-opacity:1"
       id="path5" />
    <path
       d="m 640.00001,280.73127 v 71.26876 h 71.75687 c 0,-10.30043 -2.20365,-20.06577 -6.15819,-28.89442 l -4.69544,-10.48315 -16.77389,16.64634 c 0,0 -22.20422,-22.0345 -22.20422,-22.0345 0,0 16.6233,-16.51984 16.6233,-16.51984 l -11.05342,-4.55589 c -8.47028,-3.4907 -17.74772,-5.4273 -27.49501,-5.4273 z"
       style="clip-rule:evenodd;fill:#b1e2f7;fill-rule:evenodd;stroke-width:1.00394;stroke-miterlimit:10"
       id="path8" />
    <path
       d="m 640.00001,285.69676 v 66.30327 h 66.79036 c 0,-9.57659 -2.04804,-18.65523 -5.72448,-26.86445 l -1.75992,-3.93144 -15.17661,15.06113 c 0,0 -29.25291,-29.02896 -29.25291,-29.02896 10e-4,0 14.87142,-14.77801 14.87142,-14.77801 l -4.14529,-1.7077 c -7.88698,-3.25177 -16.52591,-5.05384 -25.60257,-5.05384 z"
       style="clip-rule:evenodd;fill:#ecf8fd;fill-rule:evenodd;stroke-width:1.00394;stroke-miterlimit:10"
       id="path11" />
    <path
       d="m 703.81186,352.00245 c 0,-9.14225 -1.95421,-17.80957 -5.4638,-25.64578 l -14.21784,14.10914 -33.48073,-33.22474 13.81902,-13.73315 c -7.53765,-3.10678 -15.79317,-4.82837 -24.46745,-4.82837 v 63.3229 z"
       style="clip-rule:evenodd;fill:#95c11f;fill-rule:nonzero;stroke:#95c11f;stroke-width:0.39729px;stroke-miterlimit:10"
       id="path14" />
    <path
       d="m 683.23288,324.93191 c 3.58935,-2.45376 7.17871,-5.36266 10.5886,-8.7069 12.22376,-11.97199 18.96377,-26.04154 18.18608,-35.95553 -9.99038,-0.89048 -24.22816,5.60011 -36.47186,17.59189 -3.40989,3.34424 -6.40102,6.86658 -8.91357,10.4087 z"
       style="clip-rule:evenodd;fill:#ffffff;fill-rule:nonzero;stroke-width:1.98645;stroke-miterlimit:10"
       id="path17" />
    <rect
       x="-275.73828"
       y="-703.21533"
       width="19.551863"
       height="15.118339"
       style="clip-rule:evenodd;fill:#bdbdbd;fill-rule:evenodd;stroke-width:1.98648;stroke-miterlimit:10"
       id="rect20"
       transform="matrix(-0.71428274,0.69985725,-0.70531849,-0.70889056,0,0)" />
    <rect
       x="-246.297"
       y="-706.44031"
       width="17.321962"
       height="5.6216912"
       style="clip-rule:evenodd;fill:#936037;fill-rule:evenodd;stroke-width:1.98646;stroke-miterlimit:10"
       id="rect23"
       transform="matrix(-0.70981522,0.70438793,-0.70981519,-0.70438796,0,0)" />
    <path
       d="m 755.20367,259.81009 c -0.4813,2.34975 -1.26679,4.3522 -3.2007,5.78686 0.22281,0.32014 0.0917,0.80108 -0.11658,1.35006 l 0.0161,0.6413 -0.4498,-0.42618 c -0.85475,-0.13192 -1.21592,-0.68113 -1.21247,-1.17416 l -1.49343,-0.18163 c -1.20569,-0.0873 -4.02563,-1.57862 -3.71626,-2.17642 1.44548,0.59292 2.89081,1.06405 4.3347,0.49195 0.47191,-0.89309 -0.0491,-2.31315 -0.59237,-3.57332 -0.65031,-1.48007 -1.03529,-2.77754 -1.2895,-3.98498 0.46477,1.03412 0.93085,2.02472 1.41079,2.55606 0.23466,-0.54179 0.0693,-1.70347 -0.0491,-2.79885 0.25446,1.10434 0.78108,1.90696 0.78462,3.16403 0.004,1.3136 0.95794,2.71246 1.59821,3.68812 2.17516,-0.38666 3.30652,-1.71307 3.97583,-3.36284 z"
       id="path26"
       style="clip-rule:evenodd;fill-rule:evenodd;stroke-width:0.0241999;stroke-miterlimit:10" />
    <path
       d="m 756.12955,252.8934 c 0.0433,-0.17814 0.32686,-0.5963 0.45242,-0.8984 0.1099,-0.26444 -0.0695,-0.60353 -0.30462,-0.81348 0.47032,-0.46091 0.75749,-0.98234 0.79169,-1.58736 0.20792,-2.18342 -0.30557,-4.12304 -0.58645,-5.96102 -0.0338,2.53372 -0.10542,4.96279 -1.43527,5.76366 -0.6065,-0.29126 -0.55009,-2.48639 -0.32444,-5.16759 l -0.88852,3.15897 c -0.55555,-1.29861 -1.24343,-2.42091 -2.10051,-3.31775 0.8577,1.83704 1.74543,3.68151 1.67126,5.28691 -0.98799,0.57061 -2.63766,-1.51093 -4.37653,-3.59233 0.29558,0.43743 0.43941,1.05197 0.73198,1.52938 1.4782,2.41335 3.08719,4.87288 4.72959,4.43067 0.26022,0.3976 0.67659,0.60128 1.19504,0.83975 0.15632,0.0719 0.25301,0.27828 0.44436,0.32859 z"
       id="path30"
       style="clip-rule:evenodd;fill-rule:evenodd;stroke-width:0.0200093;stroke-miterlimit:10" />
    <path
       d="m 737.77573,248.18447 c -0.18128,-0.0273 -0.6756,0.0773 -1.00274,0.0794 -0.28636,0.002 -0.53252,-0.29242 -0.6381,-0.58939 -0.60444,0.26131 -1.19572,0.33018 -1.76882,0.13325 -2.10012,-0.63245 -3.70197,-1.84072 -5.29758,-2.79521 2.35867,0.92602 4.63476,1.77747 5.87872,0.84879 -0.0405,-0.67159 -2.09425,-1.44874 -4.66197,-2.25285 l 3.26053,0.37088 c -0.99246,-1.00501 -1.77166,-2.06595 -2.27819,-3.19834 1.3768,1.48821 2.74915,3.00703 4.26357,3.54492 0.9016,-0.69916 -0.40235,-3.01301 -1.67248,-5.4094 0.29333,0.43894 0.80797,0.8043 1.13946,1.25556 1.67596,2.28046 3.34525,4.69947 2.31527,6.05304 0.26982,0.39115 0.30108,0.85362 0.32599,1.42374 0.008,0.17189 0.16206,0.33939 0.13634,0.53557 z"
       id="path34"
       style="clip-rule:evenodd;fill-rule:evenodd;stroke-width:0.0200093;stroke-miterlimit:10" />
  </g>
  <g
     id="g16788"
     transform="translate(-16.082232,-81.434263)">
    <rect
       x="224.93456"
       class="st0"
       width="127.06544"
       height="127.06544"
       id="rect17924-5"
       style="fill:#009fe3;stroke-width:1.9854"
       y="-607.06543"
       transform="rotate(90)" />
    <path
       id="path17933-5"
       style="color:#000000;font-variation-settings:normal;opacity:1;vector-effect:none;fill:#72caf0;fill-opacity:1;stroke-width:1;stroke-linecap:butt;stroke-linejoin:miter;stroke-miterlimit:10;stroke-dasharray:none;stroke-dashoffset:0;stroke-opacity:1;-inkscape-stroke:none;stop-color:#000000;stop-opacity:1"
       d="m 413.53906,237.67773 v 102.63086 h 64.14258 c 0,-13.15449 6.49614,-24.57342 16.46484,-31.55273 4.97478,-3.13733 7.32613,-4.87962 15.09766,-6.29297 2.30575,-0.41923 6.92383,-0.64062 6.92383,-0.64062 v -64.14454 z"
       transform="matrix(1.2380952,0,0,1.2380952,-32,-69.333333)"
       sodipodi:nodetypes="cccccccc" />
    <path
       id="path17930-7"
       style="color:#000000;opacity:0.45;fill:#ffffff;stroke-width:1.60359;stroke-miterlimit:10;-inkscape-stroke:none"
       d="m 413.53906,237.67773 v 102.63086 h 44.90039 6.41407 6.41406 c 0,-15.28473 7.58793,-28.67655 19.20312,-36.80859 l 11.87305,-8.30859 c 0.55299,0.16402 1.60526,0.33192 1.92383,0.47851 l 1.83789,0.8457 1.98828,-0.36328 c 2.65224,-0.48222 5.34572,-0.74609 8.07422,-0.74609 v -6.41406 -6.41407 -44.90039 z"
       transform="matrix(1.2380952,0,0,1.2380952,-32,-69.333333)" />
    <path
       id="path17927-2"
       style="color:#000000;opacity:0.75;fill:#ffffff;stroke-width:1.60359;stroke-miterlimit:10;-inkscape-stroke:none"
       d="m 413.53906,237.67773 v 102.63086 h 48.90821 2.40625 2.40429 c 0,-16.61613 8.26981,-31.24125 20.91407,-40.09375 l 5.95898,-4.17578 -7.27539,-0.19726 c -5.0785,-0.13977 -9.59769,-0.80591 -12.65625,-1.71289 -1.52928,-0.4535 -2.68993,-0.98334 -3.28906,-1.39258 -0.0604,-0.0413 -0.0408,-0.0342 -0.0859,-0.0684 0.0677,-0.0503 0.11475,-0.0906 0.21484,-0.1543 0.72032,-0.45836 2.06472,-1.02593 3.80274,-1.49414 3.47602,-0.93643 8.53172,-1.5625 14.11328,-1.5625 7.44684,0 14.01061,1.20096 16.98633,2.57031 l 0.68945,0.31641 0.74609,-0.13477 c 2.86879,-0.5216 5.80344,-0.81054 8.79102,-0.81054 v -2.40625 -2.4043 -48.91016 z"
       transform="matrix(1.2380952,0,0,1.2380952,-32,-69.333333)" />
    <path
       class="st1"
       d="m 570.69297,299.92301 c -12.9845,-0.35737 -23.12988,-3.31561 -23.12988,-6.90918 0,-3.83182 11.55501,-6.94889 25.81016,-6.94889 9.51006,0 17.78917,1.38978 22.27616,3.45459 3.7127,-0.67503 7.52466,-1.05226 11.41604,-1.05226 V 224.93455 H 480.00001 v 127.06544 h 63.53272 c 0,-21.56142 10.741,-40.58152 27.16024,-52.07698 z"
       id="path17936-6-7"
       style="fill:#95c11f;stroke-width:0.397079;stroke-miterlimit:10" />
    <path
       class="st2"
       d="m 513.17601,259.79814 c 0.33751,0.0596 0.67503,0.0993 1.0324,0.0993 3.07737,0 5.55911,-2.48175 5.55911,-5.55912 0,-2.44203 -1.58832,-4.48699 -3.77225,-5.24144 0.57576,-0.85372 0.91328,-1.90599 0.91328,-3.01781 0,-2.97809 -2.40233,-5.38042 -5.38043,-5.38042 -1.19123,0 -2.2832,0.39707 -3.17663,1.05225 -0.75445,-0.5559 -1.68759,-0.89342 -2.70015,-0.89342 -2.5413,0 -4.60612,2.06481 -4.60612,4.60612 0,0.43679 0.0795,0.85372 0.19854,1.25079 -2.52145,0.85372 -4.36787,3.21635 -4.36787,6.01576 0,3.35532 2.58102,6.05547 5.87677,6.33342 -0.0198,0.15884 -0.0397,0.31767 -0.0397,0.49635 0,2.89868 2.34276,5.24144 5.24145,5.24144 2.81926,0.0198 5.10247,-2.20378 5.2216,-5.00319 z"
       id="path17940-7"
       style="fill:#008d36;stroke-width:1.12552;stroke-miterlimit:10" />
    <path
       class="st2"
       d="m 527.1532,261.42616 c 0.33752,0.0595 0.67504,0.0993 1.03241,0.0993 3.07737,0 5.55911,-2.48175 5.55911,-5.55911 0,-2.44205 -1.58832,-4.48701 -3.77225,-5.24146 0.57576,-0.85372 0.91328,-1.90598 0.91328,-3.0178 0,-2.97809 -2.40234,-5.38043 -5.38043,-5.38043 -1.19124,0 -2.2832,0.39708 -3.17664,1.05226 -0.75444,-0.55591 -1.68758,-0.89343 -2.70013,-0.89343 -2.54132,0 -4.60613,2.06482 -4.60613,4.60612 0,0.43679 0.0794,0.85372 0.19854,1.2508 -2.52146,0.85372 -4.36787,3.21635 -4.36787,6.01576 0,3.35532 2.58102,6.05546 5.87677,6.33341 -0.0198,0.15884 -0.0397,0.31767 -0.0397,0.49636 0,2.89868 2.34276,5.24145 5.24145,5.24145 2.81926,0.0198 5.10247,-2.22365 5.22159,-5.00321 z"
       id="path17942-5"
       style="fill:#005822;stroke-width:1.12552;stroke-miterlimit:10" />
    <path
       class="st2"
       d="m 521.97131,277.66671 c 0.33752,0.0596 0.67504,0.0993 1.03241,0.0993 3.07736,0 5.55911,-2.48175 5.55911,-5.55911 0,-2.44203 -1.58831,-4.487 -3.77226,-5.24145 0.57578,-0.85372 0.91329,-1.90598 0.91329,-3.01781 0,-2.97809 -2.40233,-5.38042 -5.38043,-5.38042 -1.19124,0 -2.2832,0.39708 -3.17664,1.05226 -0.75445,-0.55591 -1.68758,-0.89343 -2.70013,-0.89343 -2.54131,0 -4.60612,2.06481 -4.60612,4.60613 0,0.43679 0.0794,0.85372 0.19853,1.25079 -2.52145,0.85373 -4.36787,3.21635 -4.36787,6.01576 0,3.35532 2.58102,6.05546 5.87678,6.33342 -0.0198,0.15883 -0.0397,0.31766 -0.0397,0.49634 0,2.89868 2.34277,5.24145 5.24145,5.24145 2.83912,0.0198 5.10247,-2.20378 5.22159,-5.0032 z"
       id="path17944-4"
       style="fill:#00b345;stroke-width:1.12552;stroke-miterlimit:10" />
    <path
       class="st2"
       d="m 506.11929,334.09427 c 0.33751,0.0596 0.67503,0.0993 1.0324,0.0993 3.07737,0 5.55912,-2.48175 5.55912,-5.55911 0,-2.44205 -1.58833,-4.487 -3.77226,-5.24145 0.57576,-0.85372 0.91328,-1.90599 0.91328,-3.01781 0,-2.97809 -2.40233,-5.38042 -5.38042,-5.38042 -1.19124,0 -2.28321,0.39707 -3.17664,1.05226 -0.75445,-0.55592 -1.68759,-0.89343 -2.70015,-0.89343 -2.5413,0 -4.60612,2.06481 -4.60612,4.60612 0,0.43679 0.0795,0.85373 0.19855,1.2508 -2.52146,0.85372 -4.36788,3.21634 -4.36788,6.01576 0,3.35532 2.58102,6.05546 5.87678,6.33342 -0.0198,0.15883 -0.0397,0.31766 -0.0397,0.49634 0,2.89868 2.34277,5.24145 5.24145,5.24145 2.83912,0.0198 5.10247,-2.20378 5.2216,-5.0032 z"
       id="path17944-4-9"
       style="fill:#008d36;stroke-width:1.12552;stroke-miterlimit:10" />
  </g>
  <g
     id="g16777"
     transform="translate(-16.082232,-81.434263)">
    <rect
       class="st0"
       width="127.96697"
       height="127.96697"
       id="rect32852"
       style="fill:#009fe3;stroke-width:1.99948"
       x="320"
       y="224.52223" />
    <path
       id="path32861"
       style="color:#000000;font-variation-settings:normal;opacity:1;vector-effect:none;fill:#72caf0;fill-opacity:1;stroke-width:1;stroke-linecap:butt;stroke-linejoin:miter;stroke-miterlimit:10;stroke-dasharray:none;stroke-dashoffset:0;stroke-opacity:1;-inkscape-stroke:none;stop-color:#000000;stop-opacity:1"
       d="m 348.91602,236.92188 c -0.008,0.0425 -0.01,0.18348 -0.01,0.42382 H 335.9861 323.06618 c 0,3.265 0.53599,4.83889 0.77343,5.80078 -3.16636,9.50618 -5.44041,17.98894 -6.00586,26.03125 -0.60341,8.58243 0.90625,17.80323 7.09375,24.74415 6.18751,6.94092 15.18217,9.71969 24.59766,10.375 6.73674,0.46886 14.16077,-0.003 22.69727,-1.24024 8.03322,-2.66085 11.32853,-1.11952 15.44336,-1.11328 V 237.3457 h -38.65625 c -0.0424,-0.24973 -0.084,-0.47789 -0.0937,-0.42382 z"
       transform="matrix(1.2380952,0,0,1.2380952,-32,-69.333333)"
       sodipodi:nodetypes="sccccsssccccs" />
    <path
       id="path32858"
       style="color:#000000;font-variation-settings:normal;opacity:1;vector-effect:none;fill:#b1e2f7;fill-opacity:1;stroke-width:1;stroke-linecap:butt;stroke-linejoin:miter;stroke-miterlimit:10;stroke-dasharray:none;stroke-dashoffset:0;stroke-opacity:1;-inkscape-stroke:none;stop-color:#000000;stop-opacity:1"
       d="m 329.52734,237.3457 c 0,2.55188 0.55333,4.31896 0.75977,5.38086 -1.76007,9.07094 -5.3513,18.50917 -6.00977,26.9043 -0.53474,7.60567 0.79978,14.75031 5.47266,19.99219 4.67289,5.24188 11.74788,7.64063 20.22266,8.23047 8.47478,0.58983 18.80814,-0.48476 25.23395,-1.71611 6.42581,-1.23135 8.37174,-0.65303 12.45941,-0.65303 V 237.3457 h -45.21875 -6.46094 z"
       transform="matrix(1.2380952,0,0,1.2380952,-32,-69.333333)"
       sodipodi:nodetypes="cccsscccccc" />
    <path
       id="path32855"
       style="color:#000000;font-variation-settings:normal;opacity:1;vector-effect:none;fill:#ecf8fd;fill-opacity:1;stroke-width:1;stroke-linecap:butt;stroke-linejoin:miter;stroke-miterlimit:10;stroke-dasharray:none;stroke-dashoffset:0;stroke-opacity:1;-inkscape-stroke:none;stop-color:#000000;stop-opacity:1"
       d="m 333.56445,237.3457 c 0,1.81996 0.44355,3.35643 0.6875,4.61133 0.24397,1.2549 0.28218,2.13002 0.0723,2.74414 -3.37259,9.88126 -5.52576,18.21963 -6.01758,25.21485 -0.49182,6.99521 0.73078,12.84346 4.45703,17.02343 3.72625,4.17998 9.6034,6.33585 17.49024,6.88477 7.88684,0.54891 17.95661,-0.45625 30.73047,-2.9043 l 0.004,-0.004 h 0.004 c 1.40488,-0.27313 3.62692,0.53125 6.67383,0.53125 V 237.3457 h -49.25586 -2.42383 z"
       transform="matrix(1.2380952,0,0,1.2380952,-32,-69.333333)"
       sodipodi:nodetypes="cscssscccccccc" />
    <path
       class="st1"
       d="m 383.98349,224.52223 c 0,3.41912 1.85952,6.91821 0.7798,10.0774 -16.53574,48.4475 -8.33785,65.32314 54.36597,53.30624 2.87925,-0.55985 5.83849,0.59985 8.83772,0.59985 v -63.98349 z"
       id="path32864"
       style="fill:#95c11f;stroke-width:0.399897;stroke-miterlimit:10" />
    <path
       class="st2"
       d="m 394.86068,252.05512 c 0.25993,13.31657 3.57908,16.63571 -0.25993,19.97485 -3.83901,3.33914 -3.83901,5.63854 -1.01974,7.67802 2.81927,2.03947 29.61236,0.97975 30.47214,-5.37861 3.05921,-22.79412 -29.4524,-35.59082 -29.19247,-22.27426 z"
       id="path32867"
       style="fill:#72caf0;stroke-width:0.399897;stroke-miterlimit:10" />
    <path
       class="st2"
       d="m 397.47001,253.53874 c 0.21794,11.613 3.00722,14.50826 -0.21795,17.41951 -3.22716,2.91324 -3.22716,4.91873 -0.85777,6.69627 2.36738,1.77954 24.87957,0.85578 25.60139,-4.69079 2.57133,-19.87887 -24.74362,-31.03999 -24.52567,-19.42499 z"
       id="path-1"
       style="fill:#009fe3;stroke-width:0.399897;stroke-miterlimit:10" />
  </g>
  <g
     id="g17033"
     transform="translate(-16.082232,-81.434263)">
    <rect
       class="st0"
       width="127.05331"
       height="127.05331"
       id="rect19633"
       style="fill:#009fe3;stroke-width:1.98521"
       x="63.999966"
       y="-767.05328"
       transform="rotate(90)" />
    <path
       id="path19642"
       style="color:#000000;font-variation-settings:normal;vector-effect:none;fill:#72caf0;fill-opacity:1;stroke-width:1.2381;stroke-linecap:butt;stroke-linejoin:miter;stroke-miterlimit:10;stroke-dasharray:none;stroke-dashoffset:0;stroke-opacity:1;-inkscape-stroke:none;stop-color:#000000"
       d="m 668.65065,105.05673 c -2.36816,-0.0144 -4.80771,0.10846 -7.3125,0.39899 -7.31864,0.84921 -13.10395,3.60896 -16.1968,5.21113 -1.35502,0.70192 -1.81285,0.86 -1.97322,0.93824 h -3.16778 v 15.92113 0.002 63.52492 h 127.05226 v -47.6449 -15.88244 -15.88244 h -13.23939 c -11.36798,0 -18.67998,4.00774 -25.09561,5.8326 -6.41561,1.82481 -11.19139,2.59311 -18.12648,0.46428 -0.62918,-0.19516 -7.33621,-3.82721 -15.85101,-7.32701 -6.92171,-2.84502 -15.82749,-5.49468 -26.08947,-5.55692 z" />
    <path
       id="path19639"
       style="color:#000000;font-variation-settings:normal;vector-effect:none;fill:#b1e2f7;fill-opacity:1;stroke-width:1.2381;stroke-linecap:butt;stroke-linejoin:miter;stroke-miterlimit:10;stroke-dasharray:none;stroke-dashoffset:0;stroke-opacity:1;-inkscape-stroke:none;stop-color:#000000"
       d="m 666.5396,113.02455 c -1.40319,0.0478 -2.83208,0.1528 -4.28739,0.32162 -6.01178,0.69756 -10.53578,2.8551 -13.45945,4.36959 -2.92367,1.51453 -3.89753,1.83055 -4.02864,1.83055 h -4.76377 v 7.97991 63.52734 h 127.05226 v -55.58611 -7.94123 -7.94122 h -13.23939 c -8.82558,0 -15.82915,3.51364 -22.91927,5.53032 -7.09013,2.01669 -13.89565,3.10072 -22.63393,0.41834 -2.50633,-0.77182 -8.72617,-4.36432 -16.54017,-7.57607 -6.83857,-2.81084 -15.35788,-5.26783 -25.18025,-4.93304 z" />
    <path
       id="path19636"
       style="color:#000000;font-variation-settings:normal;vector-effect:none;fill:#ecf8fd;fill-opacity:1;stroke-width:1.2381;stroke-linecap:butt;stroke-linejoin:miter;stroke-miterlimit:10;stroke-dasharray:none;stroke-dashoffset:0;stroke-opacity:1;-inkscape-stroke:none;stop-color:#000000"
       d="m 666.71854,117.98177 c -1.2738,0.044 -2.57202,0.13933 -3.89322,0.2926 -5.195,0.60279 -8.92947,2.39239 -11.7474,3.85211 -2.81793,1.45975 -4.58962,2.38431 -6.3138,2.38431 h -4.76377 v 3.01543 63.52734 h 127.05226 v -60.54818 -2.97916 -2.97674 h -13.23939 c -7.23658,0 -14.05098,3.20269 -21.56268,5.33928 -7.5117,2.1366 -15.58341,3.42006 -25.44866,0.39174 -3.68158,-1.1328 -9.58997,-4.7016 -16.96578,-7.73326 -6.45384,-2.65269 -14.20091,-4.87315 -23.11756,-4.56547 z" />
    <path
       id="path19636-9"
       style="color:#000000;font-variation-settings:normal;vector-effect:none;fill:#95c11f;fill-opacity:1;stroke-width:0.400836;stroke-linecap:butt;stroke-linejoin:miter;stroke-miterlimit:10;stroke-dasharray:none;stroke-dashoffset:0;stroke-opacity:1;-inkscape-stroke:none;stop-color:#000000"
       d="m 666.71854,120.98995 c -1.2738,0.044 -2.57203,0.13933 -3.89322,0.29259 -5.195,0.60279 -8.92947,2.3924 -11.7474,3.85212 -2.81793,1.45976 -4.58963,2.3843 -6.3138,2.3843 h -4.76377 v 3.01545 60.51915 h 127.05226 v -57.53999 -2.97916 -2.97676 h -13.23939 c -7.23658,0 -14.05098,3.2027 -21.56268,5.33929 -7.51171,2.13659 -15.58341,3.42006 -25.44866,0.39174 -3.68158,-1.13279 -9.58997,-4.70159 -16.96578,-7.73325 -6.45384,-2.65269 -14.20091,-4.87315 -23.11756,-4.56548 z" />
    <path
       class="st2"
       d="m 760.34329,127.52662 -6.55119,-0.61368 c -12.5116,-1.17201 -26.25482,12.07007 -47.33773,5.59829 -8.77462,-2.69988 -24.27303,-14.19424 -44.12511,-11.8914 -9.40988,1.09187 -12.36094,5.70792 -17.58463,6.86709 0,0 16.45737,3.95056 26.00622,8.69521 28.46788,14.15453 54.33514,13.04282 68.05293,6.2137 11.59361,-5.73725 15.62359,-13.30089 21.53951,-14.86921 z"
       id="path19649-4-8"
       style="fill:#ffd854;stroke-width:1.98521"
       sodipodi:nodetypes="cscccccc" />
    <path
       id="polygon19705-8-1-7"
       style="font-variation-settings:normal;vector-effect:none;fill:#dcc577;fill-opacity:1;stroke-width:1.98521;stroke-linecap:butt;stroke-linejoin:miter;stroke-miterlimit:4;stroke-dasharray:none;stroke-dashoffset:0;stroke-opacity:1;-inkscape-stroke:none;stop-color:#000000"
       class="st7"
       d="m 738.50029,131.55787 c -1.859,1.15291 -3.80175,1.93459 -5.78906,2.51004 -0.4146,1.94835 -1.15278,3.89633 -2.33836,5.84468 1.35299,1.93885 1.87087,3.87681 2.48102,5.81566 2.11624,0.51539 4.14073,1.18423 5.8737,2.33835 1.7445,-0.99481 3.59745,-1.89848 5.78907,-2.51004 0.43474,-2.14929 2.33593,-5.87128 2.33593,-5.87128 v -0.002 l -2.4786,-5.78665 c -1.79379,-0.56478 -3.30108,-0.75508 -5.8737,-2.33835 z"
       sodipodi:nodetypes="cccccccccc" />
    <path
       id="polygon19705-8-1-7-5"
       style="font-variation-settings:normal;vector-effect:none;fill:#dcc577;fill-opacity:1;stroke-width:1.98521;stroke-linecap:butt;stroke-linejoin:miter;stroke-miterlimit:4;stroke-dasharray:none;stroke-dashoffset:0;stroke-opacity:1;-inkscape-stroke:none;stop-color:#000000"
       class="st7"
       d="m 680.69547,127.41983 c -2.12714,0.51022 -4.21732,0.64172 -6.28478,0.56342 -1.00594,1.71932 -2.31739,3.33754 -4.05524,4.81455 3.08479,6.19088 23.28272,15.72276 23.28272,15.72276 0,0 1.26686,-0.73165 1.66054,-0.83176 0.43474,-2.1493 2.33594,-5.87129 2.33594,-5.87129 l -2.47861,-5.78664 c -1.79379,-0.56477 -3.30108,-0.75508 -5.87369,-2.33836 v -0.002 c -1.1102,0.68852 -2.25044,1.24352 -3.41202,1.70238 l -0.33371,-3.90532 c -1.52539,-1.09993 -2.89649,-1.75575 -4.84115,-4.06733 z"
       sodipodi:nodetypes="cccccccccccc" />
    <path
       class="st8"
       d="m 743.78665,173.54374 c 2.77753,0.60259 5.77246,-1.30464 6.41633,-4.06772 0.76673,-2.71249 -0.91571,-5.78245 -3.59733,-6.63251 1.65552,-2.34789 0.97952,-5.93256 -1.45587,-7.48035 -1.82079,-1.26747 -4.42354,-1.20933 -6.18718,0.13508 -2.04977,-1.60998 -5.35538,-0.93924 -6.63819,1.32528 -0.65726,1.07405 -0.85676,2.43289 -0.46886,3.63774 -3.00631,0.94124 -4.97061,4.31299 -4.21954,7.3868 0.54776,2.6791 3.01021,4.77788 5.7283,4.9612 -0.41013,2.95852 2.22491,5.83178 5.20125,5.73725 2.73063,0.0845 5.16962,-2.28196 5.22109,-5.00277 z"
       id="path19730"
       style="fill:#005822;stroke-width:1.12541;stroke-miterlimit:10" />
    <path
       class="st8"
       d="m 717.72087,180.49197 c 2.77753,0.60259 5.77246,-1.30464 6.41633,-4.06772 0.76673,-2.71249 -0.91571,-5.78245 -3.59733,-6.63251 1.65552,-2.34789 0.97952,-5.93256 -1.45587,-7.48036 -1.82079,-1.26745 -4.42354,-1.20933 -6.18718,0.13509 -2.04976,-1.60998 -5.35538,-0.93924 -6.63819,1.32527 -0.65726,1.07405 -0.85676,2.4329 -0.46886,3.63775 -3.00631,0.94124 -4.97061,4.31299 -4.21954,7.38679 0.54776,2.6791 3.01021,4.77789 5.7283,4.96121 -0.41013,2.95852 2.2249,5.83178 5.20124,5.73725 2.73066,0.0846 5.16962,-2.28197 5.2211,-5.00277 z"
       id="path19732"
       style="fill:#008d36;stroke-width:1.12541;stroke-miterlimit:10" />
    <path
       id="polygon19705-8"
       style="font-variation-settings:normal;vector-effect:none;fill:#7b9a28;fill-opacity:1;stroke-width:0.400836;stroke-linecap:butt;stroke-linejoin:miter;stroke-miterlimit:10;stroke-dasharray:none;stroke-dashoffset:0;stroke-opacity:1;-inkscape-stroke:none;stop-color:#000000"
       class="st7"
       d="m 746.11381,137.95331 c -2.07529,1.51393 -4.46192,3.0327 -7.31007,4.44215 -1.85743,0.92467 -3.9548,1.73407 -6.23401,2.4254 0.0942,0.30243 0.19016,0.60435 0.28535,0.90681 2.11623,0.51539 4.14072,1.18423 5.87369,2.33836 1.7445,-0.99481 3.59745,-1.89848 5.78906,-2.51005 0.43475,-2.14928 2.33594,-5.87127 2.33594,-5.87127 v -0.002 z" />
    <path
       d="m 737.10019,132.90925 c 2.57263,1.58327 4.07978,1.77323 5.87357,2.33802 l -5.75952,5.90209 z m 0.11404,8.24011 -8.24011,0.11403 c 1.18558,-1.94835 1.92342,-3.89671 2.33802,-5.84506 z m 0,0 0.11403,8.26861 c -1.73298,-1.15413 -3.75734,-1.82263 -5.87357,-2.33802 z m 0,0 8.2401,-0.11404 c -1.00828,1.83067 -1.90328,3.72427 -2.33802,5.87357 z"
       class="st7"
       id="polygon19705"
       style="fill:#3771c8;stroke-width:2.85125"
       sodipodi:nodetypes="cccccccccccccccc" />
    <path
       d="m 731.31216,135.41834 c 1.98732,-0.57545 3.92903,-1.35618 5.78803,-2.50909 l 0.11404,8.24011 z m 0.14262,11.66161 c -0.61016,-1.93885 -1.1276,-3.87769 -2.48059,-5.81654 l 8.24011,-0.11404 z m 11.6616,-0.17107 c -2.19162,0.61156 -4.04354,1.51428 -5.78803,2.50909 l -0.11404,-8.26861 z m -0.14262,-11.66161 2.48059,5.78803 -8.24011,0.11404 z"
       class="st3"
       id="polygon19717"
       style="fill:#ffffff;stroke-width:2.85125"
       sodipodi:nodetypes="cccccccccccccccc" />
    <path
       d="m 737.22218,141.70038 c 0.29049,0 0.54309,-0.23996 0.54309,-0.54308 0,-0.29049 -0.23997,-0.53046 -0.54309,-0.53046 -0.30311,0 -0.53046,0.23997 -0.53046,0.53046 0,0.30312 0.23997,0.54308 0.53046,0.54308 z"
       id="path19725"
       style="font-variation-settings:normal;vector-effect:none;fill:#3771c8;fill-opacity:1;stroke-width:1.85273;stroke-linecap:butt;stroke-linejoin:miter;stroke-miterlimit:4;stroke-dasharray:none;stroke-dashoffset:0;stroke-opacity:1;-inkscape-stroke:none;stop-color:#000000" />
    <path
       d="m 678.74614,128.20364 c 1.90071,2.34786 3.25921,3.02762 4.76357,4.15613 l -7.39287,3.65407 z m -2.62931,7.8102 -7.81019,-2.62932 c 1.7654,-1.44396 3.10848,-3.03664 4.14667,-4.73668 z m 0,0 -2.63878,7.83707 c -1.25126,-1.6642 -2.93866,-2.96712 -4.76357,-4.15613 z m 0,0 7.81019,2.6293 c -1.55908,1.39185 -3.03221,2.88069 -4.15614,4.76358 z"
       class="st7"
       id="polygon19705-5"
       style="font-variation-settings:normal;vector-effect:none;fill:#009640;fill-opacity:1;stroke-width:1.98521;stroke-linecap:butt;stroke-linejoin:miter;stroke-miterlimit:4;stroke-dasharray:none;stroke-dashoffset:0;stroke-opacity:1;-inkscape-stroke:none;stop-color:#000000"
       sodipodi:nodetypes="cccccccccccccccc" />
    <path
       d="m 672.45332,128.64785 c 2.06563,0.11729 4.15642,0.0258 6.29282,-0.44421 l -2.62931,7.8102 z m -3.73876,11.04696 c 0.0684,-2.03144 0.22435,-4.03208 -0.40786,-6.31024 l 7.8102,2.6293 z m 11.05639,3.71192 c -2.27032,-0.15108 -4.31694,0.0853 -6.29281,0.44421 l 2.63876,-7.83708 z m 3.73876,-11.04695 0.41734,6.28334 -7.8102,-2.6293 z"
       class="st3"
       id="polygon19717-4"
       style="fill:#ffffff;stroke-width:2.85125"
       sodipodi:nodetypes="cccccccccccccccc" />
    <path
       d="m 675.94132,136.53622 c 0.27399,0.0965 0.59196,-0.046 0.69263,-0.33187 0.0965,-0.274 -0.0502,-0.58005 -0.33607,-0.68073 -0.2859,-0.10067 -0.58005,0.0502 -0.67653,0.32416 -0.10068,0.28591 0.046,0.59195 0.31997,0.68844 z"
       id="path19725-1"
       style="font-variation-settings:normal;vector-effect:none;fill:#009640;fill-opacity:1;stroke-width:1.98521;stroke-linecap:butt;stroke-linejoin:miter;stroke-miterlimit:4;stroke-dasharray:none;stroke-dashoffset:0;stroke-opacity:1;-inkscape-stroke:none;stop-color:#000000" />
    <path
       style="font-variation-settings:normal;vector-effect:none;fill:#7b9a28;fill-opacity:1;stroke:none;stroke-width:0.400836;stroke-linecap:butt;stroke-linejoin:miter;stroke-miterlimit:10;stroke-dasharray:none;stroke-dashoffset:0;stroke-opacity:1;-inkscape-stroke:none;stop-color:#000000"
       d="m 694.26256,144.76365 1.83367,0.44919 c -0.29877,0.79629 -0.61492,1.5752 -0.80235,2.48283 -0.46818,0.13766 -0.83338,0.39889 -1.2444,0.60514 z"
       id="path9907"
       sodipodi:nodetypes="ccccc" />
    <path
       d="m 687.89688,135.05256 c 2.57263,1.58327 4.07978,1.77323 5.87357,2.33802 l -5.75952,5.90209 z m 0.11404,8.24011 -8.24011,0.11403 c 1.18558,-1.94835 1.92342,-3.89671 2.33802,-5.84506 z m 0,0 0.11403,8.26861 c -1.73298,-1.15413 -3.75734,-1.82263 -5.87357,-2.33802 z m 0,0 8.2401,-0.11404 c -1.00828,1.83067 -1.90328,3.72427 -2.33802,5.87357 z"
       class="st7"
       id="polygon19705-1"
       style="font-variation-settings:normal;vector-effect:none;fill:#e6332a;fill-opacity:1;stroke-width:1.98521;stroke-linecap:butt;stroke-linejoin:miter;stroke-miterlimit:4;stroke-dasharray:none;stroke-dashoffset:0;stroke-opacity:1;-inkscape-stroke:none;stop-color:#000000"
       sodipodi:nodetypes="cccccccccccccccc" />
    <path
       d="m 682.10885,137.56165 c 1.98732,-0.57545 3.92903,-1.35618 5.78803,-2.50909 l 0.11404,8.24011 z m 0.14262,11.66161 c -0.61016,-1.93885 -1.1276,-3.87769 -2.48059,-5.81654 l 8.24011,-0.11404 z m 11.6616,-0.17107 c -2.19162,0.61156 -4.04354,1.51428 -5.78803,2.50909 l -0.11404,-8.26861 z m -0.14262,-11.66161 2.48059,5.78803 -8.24011,0.11404 z"
       class="st3"
       id="polygon19717-6"
       style="fill:#ffffff;stroke-width:2.85125"
       sodipodi:nodetypes="cccccccccccccccc" />
    <path
       d="m 688.01887,143.84369 c 0.29049,0 0.54309,-0.23996 0.54309,-0.54308 0,-0.29049 -0.23997,-0.53046 -0.54309,-0.53046 -0.30311,0 -0.53046,0.23997 -0.53046,0.53046 0,0.30312 0.23997,0.54308 0.53046,0.54308 z"
       id="path19725-5"
       style="font-variation-settings:normal;vector-effect:none;fill:#e6332a;fill-opacity:1;stroke-width:1.98521;stroke-linecap:butt;stroke-linejoin:miter;stroke-miterlimit:4;stroke-dasharray:none;stroke-dashoffset:0;stroke-opacity:1;-inkscape-stroke:none;stop-color:#000000" />
  </g>
  <g
     id="g16753"
     transform="translate(-16.082232,-81.434263)">
    <rect
       class="st0"
       width="128.03123"
       height="128.03123"
       id="rect33003"
       style="fill:#009fe3;stroke-width:2.00049"
       x="479.96872"
       y="63.999947" />
    <path
       id="path33012"
       style="color:#000000;font-variation-settings:normal;opacity:1;vector-effect:none;fill:#72caf0;fill-opacity:1;stroke-width:1;stroke-linecap:butt;stroke-linejoin:miter;stroke-miterlimit:10;stroke-dasharray:none;stroke-dashoffset:0;stroke-opacity:1;-inkscape-stroke:none;stop-color:#000000;stop-opacity:1"
       d="m 413.51367,107.69141 v 64.63281 c 10.42838,0 19.73462,4.0491 26.71094,10.69726 l 1.99414,1.9004 1.75195,2.20312 c 0.84316,1.05965 1.66637,2.23788 2.46094,3.51172 l 2.85938,4.58594 4.46875,1.0039 c -1.32985,5.86532 -1.51338,10.87847 -1.5,13.56641 v 0.19141 l 0.008,0.18945 c 0.0166,0.47881 0.0254,0.78308 0.0254,0.92773 h 64.63086 V 107.69141 Z"
       transform="matrix(1.2380952,0,0,1.2380952,-32,-69.333333)"
       sodipodi:nodetypes="ccscccccccccccc" />
    <path
       id="path33009"
       style="color:#000000;font-variation-settings:normal;opacity:1;vector-effect:none;fill:#b1e2f7;fill-opacity:1;stroke-width:1;stroke-linecap:butt;stroke-linejoin:miter;stroke-miterlimit:10;stroke-dasharray:none;stroke-dashoffset:0;stroke-opacity:1;-inkscape-stroke:none;stop-color:#000000;stop-opacity:1"
       d="m 413.51367,107.69141 v 58.16797 c 12.12164,0 23.04448,4.74114 31.16992,12.48437 l 2.31641,2.21094 2.0293,2.54492 c 1.01942,1.28115 1.97851,2.66235 2.88476,4.11523 l 1.42969,2.29297 2.63477,0.5918 c 2.35387,0.52963 4.54693,0.65536 6.33398,0.68164 -3.25072,7.9243 -3.60652,15.62695 -3.58984,18.98047 v 0.0937 l 0.004,0.0957 c 0.0162,0.4737 0.0293,0.85185 0.0293,1.15039 h 58.16797 v -103.4101 z"
       transform="matrix(1.2380952,0,0,1.2380952,-32,-69.333333)"
       sodipodi:nodetypes="cccccccccccccccc" />
    <path
       id="path33006"
       style="color:#000000;font-variation-settings:normal;opacity:1;vector-effect:none;fill:#ecf8fd;fill-opacity:1;stroke-width:1;stroke-linecap:butt;stroke-linejoin:miter;stroke-miterlimit:10;stroke-dasharray:none;stroke-dashoffset:0;stroke-opacity:1;-inkscape-stroke:none;stop-color:#000000;stop-opacity:1"
       d="m 413.51367,107.69141 v 49.28125 2.42382 2.42383 c 13.17992,0 25.11339,5.17196 33.95703,13.59961 l 1.73828,1.65625 c 4.69796,-4.09701 6.43849,-10.36987 6.26954,-15.90234 0.0569,0.45223 0.11266,0.96841 0.1621,1.41015 0.49567,7.45084 -0.10339,11.45348 -4.76562,16.35352 l 1.3125,1.64844 c 1.12957,1.41961 2.17629,2.92935 3.15234,4.49414 l 0.53711,0.85742 0.98828,0.2207 c 3.62537,0.81571 7.78932,0.32276 9.98438,0.67969 0.78885,0.12827 1.06299,0.28815 1.13477,0.31836 -0.0109,0.11226 0.002,0.78763 -0.8125,2.35352 v 0.004 c -4.11098,7.90572 -4.4254,16.77469 -4.40821,20.22852 v 0.0352 0.0332 c 0.0162,0.47043 0.0312,0.8963 0.0312,1.29101 h 2.42383 2.42383 49.28125 V 107.69141 Z"
       transform="matrix(1.2380952,0,0,1.2380952,-32,-69.333333)"
       sodipodi:nodetypes="cccccccccccccscccccccccccc" />
    <path
       class="st1"
       d="m 479.96873,63.999947 v 64.015613 c 17.10417,0 32.62796,6.72164 44.11076,17.66431 0.62015,-0.64015 1.2403,-1.34032 1.80044,-2.16053 6.82166,-9.70236 0.30007,-20.48499 3.48085,-33.18809 3.48085,-13.943402 9.90021,-14.843622 30.66528,-16.984144 5.00127,-0.473098 5.17424,0.484579 1.77806,1.329342 -10.54233,2.622282 -25.2951,7.976582 -27.26208,17.675292 -2.76067,13.58332 5.04123,25.36619 -2.30056,37.36912 -0.60014,0.98024 -1.28031,1.86045 -2.0405,2.66065 1.48036,1.86045 2.8407,3.82093 4.101,5.84142 7.20176,1.6204 20.36497,-2.30056 14.76361,8.46207 -4.68115,9.00219 -5.14126,19.62478 -5.12125,23.64576 0.02,0.58015 0.04,1.14028 0.04,1.70042 h 64.01561 V 63.999947 Z"
       id="path33015"
       style="fill:#95c11f;stroke-width:0.400098;stroke-miterlimit:10"
       sodipodi:nodetypes="ccccccscccccccccc" />
    <rect
       x="546.64502"
       y="118.09315"
       class="st2"
       width="22.38546"
       height="10.512565"
       id="rect33019"
       style="fill:#7f0109;stroke-width:1.13408;stroke-miterlimit:10" />
    <rect
       x="546.64502"
       y="128.41566"
       class="st2"
       width="22.38546"
       height="10.302513"
       id="rect33021"
       style="fill:#be1622;stroke-width:1.13408;stroke-miterlimit:10" />
    <path
       class="st4"
       d="m 518.91823,82.804534 c 0.60715,-2.798923 -1.3147,-5.816889 -4.09906,-6.46572 -2.73338,-0.772634 -5.82696,0.922767 -6.68357,3.625027 -2.36431,-1.67116 -5.97871,-0.985265 -7.53793,1.467077 -1.27721,1.834798 -1.21864,4.45759 0.13613,6.234802 -1.62238,2.065536 -0.94647,5.396595 1.33547,6.689278 1.08232,0.662329 2.45162,0.863355 3.66575,0.472469 0.94848,3.029451 4.34618,5.008862 7.44364,4.252018 2.69972,-0.551976 4.81466,-3.033378 4.99939,-5.772389 2.9813,0.4133 5.87667,-2.242031 5.78141,-5.241278 0.0749,-2.764269 -2.28507,-5.198099 -5.04123,-5.261284 z"
       id="path33030"
       style="fill:#00b345;stroke-width:1.13408;stroke-miterlimit:10" />
    <path
       class="st4"
       d="m 597.27735,114.2122 c -1.26268,-1.7435 -1.51921,-4.06752 0.006,-5.41632 -0.31868,-2.9536 -3.24782,-7.06399 -6.56702,-5.70937 -3.24389,1.29881 -6.0813,-1.4953 -9.03319,0.47361 -2.88792,0.77657 -4.82917,-2.14211 -7.56803,-0.24947 -2.94521,0.98942 -5.07607,-2.08634 -7.79285,0.0724 -2.54105,1.06391 -4.27076,-2.28878 -6.75172,-0.25971 -2.90211,2.02329 -5.13072,-1.63343 -8.08925,-0.23237 -2.66942,0.50722 -5.84389,2.65947 -5.09153,5.74322 0.74619,2.79671 3.57662,4.47458 6.20411,5.19302 2.26827,-0.20873 4.87381,-3.6874 6.54832,-0.36297 2.54362,1.69396 5.67001,-3.19286 7.84116,0.28278 2.71927,0.4753 6.02314,-2.49571 11.02497,-0.68913 1.94204,0.75791 3.55996,-1.68216 5.06114,-1.47586 3.45501,0.47482 5.64962,3.75424 3.9161,7.22561 -1.8528,1.76787 -1.75217,4.14409 0.17449,5.70853 -10e-5,2.38984 -3.2149,4.81431 -0.28622,6.89086 0.74461,2.64201 -3.1245,5.82769 0.2589,7.76941 1.18665,2.79548 -3.27975,5.38371 -0.47967,7.85818 1.77241,2.56509 -2.9865,4.87778 -0.0373,7.33023 1.72217,1.45426 3.51199,4.65457 6.07639,3.18953 2.29661,-1.76987 6.09877,-3.95837 3.59689,-7.21365 -1.27612,-2.45834 1.95401,-4.35652 0.16668,-6.94276 -1.81308,-3.28511 1.94551,-5.89545 -0.19665,-9.04223 -1.20906,-2.73359 2.32425,-4.70511 0.023,-7.28405 -1.54318,-2.61207 2.48458,-4.5036 0.10222,-7.09117 -1.67821,-2.30298 0.13622,-3.71893 0.89316,-5.76827 z"
       id="path33032"
       style="fill:#008d36;stroke-width:1.13408;stroke-miterlimit:10"
       sodipodi:nodetypes="sccccccccccccsccccccccccccss" />
    <path
       class="st4"
       d="m 561.4286,169.62571 c 0.71564,-3.16123 -1.89863,-6.52796 -5.13589,-6.64262 -2.43933,-0.16149 -4.90811,1.45515 -5.64674,3.80193 -2.53109,-1.8225 -6.51449,-0.81291 -7.86196,2.00255 -0.93253,1.78222 -0.76476,4.09542 0.46016,5.69933 -1.80082,2.24863 -0.73908,6.0272 1.97163,7.01232 0.93383,0.5407 2.27755,0.21827 3.07583,0.29066 1.06973,3.21006 4.95719,5.12502 8.14017,3.90604 2.33919,-0.81409 4.09153,-3.09354 4.25662,-5.56764 3.06326,0.44109 6.03883,-2.42707 5.78189,-5.49803 -0.0572,-2.63383 -2.41097,-4.96089 -5.04171,-5.00454 z"
       id="path33034"
       style="fill:#005822;stroke-width:1.13408;stroke-miterlimit:10" />
  </g>
  <g
     id="g16768"
     transform="translate(-16.082232,-81.434263)">
    <rect
       y="-191.99998"
       class="st0"
       width="128.26744"
       height="128.26724"
       id="rect32702-0"
       style="fill:#009fe3;stroke-width:2.00418"
       x="-448"
       transform="scale(-1)" />
    <path
       id="path32711-5"
       style="color:#000000;font-variation-settings:normal;opacity:1;vector-effect:none;fill:#72caf0;fill-opacity:1;stroke-width:1.2381;stroke-linecap:butt;stroke-linejoin:miter;stroke-miterlimit:10;stroke-dasharray:none;stroke-dashoffset:0;stroke-opacity:1;-inkscape-stroke:none;stop-color:#000000;stop-opacity:1"
       d="m 366.41642,63.733557 c -6.27401,3.689659 -14.71205,8.993531 -22.70523,16.88005 -5.6461,5.565258 -10.21912,11.347305 -12.10019,19.182392 -1.88106,7.835091 0.51357,16.105721 3.57221,21.396831 6.11726,10.58221 13.38464,16.20141 20.31014,26.58966 l 0.002,0.002 v 0.001 c 7.58724,13.24993 12.33724,28.84481 12.33724,44.21362 H 447.9994 V 63.732487 Z"
       sodipodi:nodetypes="ccssccccccc" />
    <path
       id="path32708-3"
       style="color:#000000;font-variation-settings:normal;opacity:1;vector-effect:none;fill:#b1e2f7;fill-opacity:1;stroke-width:1.2381;stroke-linecap:butt;stroke-linejoin:miter;stroke-miterlimit:10;stroke-dasharray:none;stroke-dashoffset:0;stroke-opacity:1;-inkscape-stroke:none;stop-color:#000000;stop-opacity:1"
       d="m 375.861,63.732487 -0.0117,0.0012 v 2.472609 c -6.27695,3.280574 -15.53876,9.29105 -26.50986,20.116517 -5.09778,5.024798 -8.58944,9.750041 -9.93269,15.344977 -1.34324,5.59494 0.25294,11.25075 2.7167,15.51279 4.92753,8.52408 12.56914,14.94998 20.04024,26.15664 h 0.002 v 0.001 c 11.94115,17.90279 13.555,40.10415 13.68327,46.56418 v 2.09709 h 72.15047 V 63.732487 Z" />
    <path
       id="path32705-6"
       style="color:#000000;font-variation-settings:normal;opacity:1;vector-effect:none;fill:#ecf8fd;fill-opacity:1;stroke-width:1.2381;stroke-linecap:butt;stroke-linejoin:miter;stroke-miterlimit:10;stroke-dasharray:none;stroke-dashoffset:0;stroke-opacity:1;-inkscape-stroke:none;stop-color:#000000;stop-opacity:1"
       d="m 447.99975,63.732487 -67.13837,0.0012 v 5.636427 c -5.53688,2.521391 -15.43081,8.112286 -28.0061,20.521378 -4.7551,4.687016 -7.57017,8.751439 -8.57728,12.946298 -1.00711,4.19485 0.092,8.2161 2.18393,11.83497 4.18393,7.23776 12.06032,14.16624 19.87242,25.88438 12.86227,19.2838 14.39229,42.36722 14.52703,49.27737 v 2.16515 h 67.13837 z" />
    <path
       class="st1"
       d="m 368.83507,138.88935 c 13.40793,20.10188 14.89102,43.69102 15.03131,50.88601 V 192 H 448 V 63.732765 h -64.13362 v 7.535695 c -4.66972,1.924012 -15.25177,7.295207 -28.90021,20.763258 -18.17787,17.937372 -2.16451,22.807522 13.8689,46.857632 z"
       id="path32714-0"
       style="fill:#95c11f;stroke-width:0.400836;stroke-miterlimit:10" />
    <path
       d="m 435.17689,153.55408 c -0.4813,2.34975 -1.26679,4.3522 -3.2007,5.78686 0.22281,0.32014 0.0917,0.80108 -0.11658,1.35006 l 0.0161,0.6413 -0.4498,-0.42618 c -0.85475,-0.13192 -1.21592,-0.68113 -1.21247,-1.17416 l -1.49343,-0.18163 c -1.20569,-0.0874 -4.02563,-1.57862 -3.71626,-2.17642 1.44548,0.59292 2.89081,1.06405 4.3347,0.49195 0.47191,-0.89309 -0.0491,-2.31315 -0.59237,-3.57332 -0.65031,-1.48007 -1.03529,-2.77754 -1.2895,-3.98498 0.46477,1.03412 0.93085,2.02472 1.41079,2.55606 0.23466,-0.54179 0.0693,-1.70347 -0.0491,-2.79885 0.25446,1.10434 0.78108,1.90696 0.78462,3.16403 0.004,1.3136 0.95794,2.71246 1.59821,3.68812 2.17516,-0.38666 3.30652,-1.71307 3.97583,-3.36284 z"
       id="path26-2"
       style="clip-rule:evenodd;fill-rule:evenodd;stroke-width:0.0241999;stroke-miterlimit:10" />
    <path
       d="m 392.19849,127.33044 c 1.57947,1.93356 2.67868,3.8842 2.56454,6.3881 0.40484,0.0307 0.7067,0.45277 1.01268,0.98187 l 0.52803,0.40875 -0.63967,0.0827 c -0.66853,0.60293 -1.3492,0.53319 -1.74475,0.20619 l -1.12865,1.08559 c -0.86335,0.91541 -3.92106,2.21012 -4.19998,1.56737 1.42899,-0.77643 2.7596,-1.63283 3.2475,-3.17411 -0.4103,-0.96808 -1.89873,-1.48155 -3.27282,-1.87186 -1.62191,-0.44859 -2.92198,-0.99118 -4.06343,-1.58008 1.14006,0.30503 2.24586,0.58038 2.99021,0.54254 -0.28285,-0.54564 -1.32891,-1.17618 -2.29067,-1.80092 1.05842,0.52091 2.05235,0.62379 3.069,1.4476 1.06236,0.86085 2.8186,1.01079 4.0269,1.13576 1.11841,-2.00938 0.79214,-3.79452 -0.0989,-5.41948 z"
       id="path26-2-6"
       style="clip-rule:evenodd;fill-rule:evenodd;stroke-width:0.0251902;stroke-miterlimit:10" />
    <path
       d="m 417.74896,141.92845 c -0.18128,-0.0273 -0.6756,0.0773 -1.00274,0.0794 -0.28636,0.002 -0.53252,-0.29242 -0.6381,-0.58939 -0.60444,0.26131 -1.19572,0.33018 -1.76882,0.13325 -2.10013,-0.63245 -3.70197,-1.84072 -5.29759,-2.79521 2.35868,0.92603 4.63476,1.77747 5.87873,0.84879 -0.0405,-0.67159 -2.09426,-1.44874 -4.66197,-2.25285 l 3.26053,0.37089 c -0.99246,-1.00502 -1.77167,-2.06596 -2.2782,-3.19835 1.3768,1.48821 2.74915,3.00703 4.26358,3.54492 0.9016,-0.69916 -0.40235,-3.01301 -1.67249,-5.4094 0.29334,0.43894 0.80798,0.8043 1.13947,1.25556 1.67596,2.28046 3.34525,4.69947 2.31527,6.05304 0.26981,0.39115 0.30108,0.85362 0.32599,1.42374 0.008,0.17189 0.16206,0.3394 0.13634,0.53557 z"
       id="path34-2"
       style="clip-rule:evenodd;fill-rule:evenodd;stroke-width:0.0200093;stroke-miterlimit:10" />
    <path
       d="m 378.56194,126.88164 c -0.18128,-0.0273 -0.6756,0.0773 -1.00274,0.0794 -0.28636,0.002 -0.53252,-0.29242 -0.6381,-0.58939 -0.60444,0.26131 -1.19572,0.33018 -1.76882,0.13325 -2.10013,-0.63245 -3.70197,-1.84072 -5.29759,-2.79521 2.35868,0.92603 4.63476,1.77747 5.87873,0.84879 -0.0405,-0.67159 -2.09426,-1.44874 -4.66197,-2.25285 l 3.26053,0.37089 c -0.99246,-1.00502 -1.77167,-2.06596 -2.2782,-3.19835 1.3768,1.48821 2.74915,3.00703 4.26358,3.54492 0.9016,-0.69916 -0.40235,-3.01301 -1.67249,-5.4094 0.29334,0.43894 0.80798,0.8043 1.13947,1.25556 1.67596,2.28046 3.34525,4.69947 2.31527,6.05304 0.26981,0.39115 0.30108,0.85362 0.32599,1.42374 0.008,0.17189 0.16206,0.3394 0.13634,0.53557 z"
       id="path34-2-4"
       style="clip-rule:evenodd;fill-rule:evenodd;stroke-width:0.0200093;stroke-miterlimit:10" />
    <path
       d="m 360.43923,115.64859 c -0.13968,-0.11872 -0.38571,-0.56004 -0.59911,-0.808 -0.1868,-0.21706 -0.57037,-0.20921 -0.86359,-0.0936 -0.20027,-0.62732 -0.53693,-1.11825 -1.06199,-1.42079 -1.85686,-1.1673 -3.82027,-1.58062 -5.58832,-2.15601 2.24806,1.16925 4.38561,2.32525 4.50314,3.87318 -0.53283,0.41081 -2.46827,-0.62643 -4.7618,-2.03335 l 2.4223,2.21382 c -1.40974,-0.0876 -2.72148,0.0223 -3.90789,0.38474 2.02652,0.0597 4.07319,0.096 5.47387,0.88395 0.0655,1.13904 -2.53543,1.67682 -5.17638,2.29434 0.52362,-0.0674 1.13722,0.0804 1.69519,0.0337 2.82027,-0.23545 5.74059,-0.56696 6.08394,-2.23283 0.47214,-0.0537 0.84127,-0.33405 1.28736,-0.68995 0.1345,-0.1073 0.36231,-0.10089 0.49328,-0.2492 z"
       id="path30-7"
       style="clip-rule:evenodd;fill-rule:evenodd;stroke-width:0.0200093;stroke-miterlimit:10" />
    <path
       class="st2"
       d="m 387.29353,98.946127 c -0.71695,3.167053 1.90213,6.539983 5.14536,6.654863 2.44383,0.16179 4.91716,-1.45782 5.65714,-3.80893 2.53652,1.82343 6.52682,0.81563 7.87646,-2.006237 0.93425,-1.785508 0.76616,-4.102977 -0.46101,-5.709845 1.80414,-2.25278 0.74044,-6.038297 -1.97526,-7.02525 -0.93556,-0.541688 -2.28174,-0.218629 -3.08151,-0.291188 -1.0717,-3.215979 -4.96633,-5.134465 -8.15518,-3.913247 -2.3435,0.815594 -4.09906,3.099254 -4.26446,5.57791 -3.06926,-0.441982 -6.04966,2.431729 -5.79289,5.508443 0.0528,2.640675 2.41263,4.976651 5.05135,5.013481 z"
       id="path32718-3"
       style="fill:#005822;stroke-width:1.13616;stroke-miterlimit:10" />
    <path
       class="st2"
       d="m 414.32985,116.36241 c -0.71695,3.16706 1.90213,6.54 5.14537,6.65488 2.44383,0.16177 4.91715,-1.45785 5.65714,-3.80895 2.53652,1.82344 6.52682,0.81564 7.87645,-2.00623 0.93426,-1.78551 0.76617,-4.10298 -0.46101,-5.70984 1.80415,-2.25278 0.74045,-6.0383 -1.97525,-7.02526 -0.93556,-0.54169 -2.28175,-0.21863 -3.08152,-0.29119 -1.0717,-3.21597 -4.96633,-5.134466 -8.15517,-3.91324 -2.3435,0.81559 -4.09907,3.09925 -4.26446,5.57791 -3.06926,-0.44198 -6.04966,2.43172 -5.79289,5.50844 0.0528,2.64067 2.41262,4.97664 5.05134,5.01348 z"
       id="path32720-2"
       style="fill:#008d36;stroke-width:1.13616;stroke-miterlimit:10" />
    <path
       class="st2"
       d="m 399.17829,176.98872 c -0.71695,3.16705 1.90213,6.53999 5.14536,6.65487 2.44383,0.16178 4.91716,-1.45783 5.65714,-3.80894 2.53652,1.82342 6.52682,0.81564 7.87646,-2.00624 0.93425,-1.7855 0.76616,-4.10297 -0.46101,-5.70984 1.80414,-2.25278 0.74044,-6.0383 -1.97526,-7.02525 -0.93556,-0.54168 -2.28174,-0.21863 -3.08151,-0.29119 -1.07171,-3.21598 -4.96633,-5.13446 -8.15518,-3.91324 -2.3435,0.81559 -4.09906,3.09925 -4.26446,5.57791 -3.06926,-0.44198 -6.04966,2.43172 -5.79289,5.50844 0.0528,2.64067 2.41262,4.97665 5.05135,5.01348 z"
       id="path32722-7"
       style="fill:#00b345;stroke-width:1.13616;stroke-miterlimit:10" />
  </g>
  <g
     id="g16824"
     style="display:inline"
     transform="translate(-16.082232,-81.434263)">
    <rect
       x="-8.3605518"
       y="73.163261"
       width="272.76871"
       height="270.91156"
       style="fill:#ffeeaa;stroke-width:2.12373"
       id="container0-2"
       inkscape:label="rect003403" />
    <rect
       x="0.32441604"
       class="st0"
       width="126.96442"
       height="126.96442"
       id="rect16191-4"
       style="fill:#009fe3;stroke-width:1.98382"
       y="80.831711" />
    <rect
       x="128.79665"
       class="st0"
       width="127.04288"
       height="127.04288"
       id="rect17924-2"
       style="fill:#009fe3;stroke-width:1.98505"
       y="209.03693" />
    <path
       id="path17933-29"
       style="color:#000000;font-variation-settings:normal;opacity:1;vector-effect:none;fill:#72caf0;fill-opacity:1;stroke-width:1.2381;stroke-linecap:butt;stroke-linejoin:miter;stroke-miterlimit:10;stroke-dasharray:none;stroke-dashoffset:0;stroke-opacity:1;-inkscape-stroke:none;stop-color:#000000;stop-opacity:1"
       d="m 176.43693,209.03623 v 0.001 h -47.6403 v 127.04199 h 127.04315 v -47.64031 -15.88127 -15.87893 c -16.28362,0 -30.42,-8.04406 -39.05951,-20.38408 -4.76095,-5.3002 -7.10772,-11.63504 -7.78631,-18.68482 -0.51895,-2.85424 -0.79683,-5.70934 -0.79683,-8.57375 z"
       sodipodi:nodetypes="cccccccccccc" />
    <path
       id="path17930-9"
       style="color:#000000;font-variation-settings:normal;opacity:1;vector-effect:none;fill:#b1e2f7;fill-opacity:1;stroke-width:1.2381;stroke-linecap:butt;stroke-linejoin:miter;stroke-miterlimit:10;stroke-dasharray:none;stroke-dashoffset:0;stroke-opacity:1;-inkscape-stroke:none;stop-color:#000000;stop-opacity:1"
       d="m 184.37698,209.03623 v 0.001 h -55.58035 v 127.04199 h 127.04315 v -55.58036 -7.94122 -7.93888 c -18.92059,0 -35.49789,-9.39153 -45.56434,-23.76969 -3.24184,-5.68008 -7.2907,-9.63082 -8.64534,-19.3549 l -0.44829,-2.4644 c -0.59691,-3.28313 -0.92473,-6.61616 -0.92473,-9.99371 z"
       sodipodi:nodetypes="ccccccccccccc" />
    <path
       style="color:#000000;opacity:0.75;fill:#ffffff;stroke-width:1.00007;stroke-miterlimit:10;-inkscape-stroke:none"
       d="m 189.34098,209.03623 c 0,3.9e-4 0,6e-4 0,0.001 h -60.54435 v 127.04199 h 127.04315 v -60.54318 -2.9784 -2.97723 c -20.5687,0 -38.66995,-10.23354 -49.62825,-25.88555 l -5.16936,-7.38028 -0.24762,9.00561 c -0.17303,6.28654 -0.9943,11.88157 -2.11703,15.66769 -0.56137,1.89306 -1.22084,3.33283 -1.72743,4.07447 -0.0472,0.0691 -0.0377,0.0446 -0.0774,0.0974 -0.0777,-0.0979 -0.0885,-0.0836 -0.19949,-0.25817 -0.56741,-0.89167 -1.26402,-2.5532 -1.84361,-4.70465 -1.15917,-4.30289 -1.93631,-10.56448 -1.93631,-17.47375 0,-9.21826 1.4875,-17.3436 3.18259,-21.02716 l 0.39196,-0.85433 -0.16782,-0.92356 c -0.64566,-3.55119 -1.00336,-7.18381 -1.00336,-10.88207 z"
       id="path17927-20" />
    <path
       class="st1"
       d="m 203.7718,245.40295 c -0.35732,12.98219 -3.31504,23.12577 -6.90796,23.12577 -3.83114,0 -6.94766,-11.55296 -6.94766,-25.80558 0,-9.50837 1.38953,-17.78601 3.45397,-22.27221 -0.67491,-3.71203 -1.05207,-7.52332 -1.05207,-11.41401 h -63.52144 v 127.04289 h 127.04289 v -63.52144 c -21.5576,0 -40.57433,-10.7391 -52.06773,-27.15542 z"
       id="path17936-9"
       style="fill:#95c11f;stroke-width:0.397009;stroke-miterlimit:10"
       sodipodi:nodetypes="cssccccccc" />
    <path
       class="st2"
       d="m 163.65403,302.9097 c 0.60236,-2.77732 -1.30457,-5.77198 -4.06747,-6.4158 -2.71226,-0.76667 -5.78197,0.91565 -6.63196,3.59704 -2.3477,-1.6554 -5.93208,-0.97945 -7.47974,1.45575 -1.26736,1.82063 -1.20923,4.42318 0.13507,6.18668 -1.60985,2.04959 -0.93916,5.35493 1.32516,6.63763 1.07396,0.65722 2.43269,0.8567 3.63745,0.46883 0.94117,3.00607 4.31264,4.97018 7.3862,4.21919 2.67887,-0.54772 4.77748,-3.00996 4.96078,-5.72783 2.95828,0.41012 5.83131,-2.22473 5.73678,-5.20082 0.0846,-2.73043 -2.28187,-5.16919 -5.00227,-5.22067 z"
       id="path17940-77"
       style="fill:#008d36;stroke-width:1.12532;stroke-miterlimit:10" />
    <path
       class="st2"
       d="m 165.28176,288.93498 c 0.60237,-2.77732 -1.30457,-5.77198 -4.06747,-6.4158 -2.71226,-0.76667 -5.78197,0.91565 -6.63196,3.59704 -2.3477,-1.65539 -5.93208,-0.97946 -7.47974,1.45575 -1.26736,1.82064 -1.20923,4.42318 0.13507,6.18668 -1.60985,2.04959 -0.93916,5.35493 1.32516,6.63764 1.07396,0.65721 2.43269,0.85669 3.63745,0.46882 0.94116,3.00606 4.31263,4.9702 7.38618,4.2192 2.67888,-0.54772 4.7775,-3.00997 4.9608,-5.72784 2.95829,0.41011 5.8313,-2.22473 5.73678,-5.20081 0.0808,-2.72726 -2.28668,-5.16317 -5.00227,-5.22068 z"
       id="path17942-6"
       style="fill:#005822;stroke-width:1.12532;stroke-miterlimit:10" />
    <path
       class="st2"
       d="m 181.51944,294.11595 c 0.60235,-2.77732 -1.30457,-5.77197 -4.06747,-6.4158 -2.71226,-0.76667 -5.78198,0.91564 -6.63197,3.59704 -2.34769,-1.6554 -5.93207,-0.97945 -7.47974,1.45575 -1.26735,1.82064 -1.20923,4.42318 0.13508,6.18668 -1.60987,2.04959 -0.93917,5.35493 1.32516,6.63763 1.07397,0.65721 2.4327,0.85669 3.63745,0.46882 0.94116,3.00607 4.31263,4.9702 7.38619,4.2192 2.67888,-0.54772 4.77748,-3.00996 4.96078,-5.72783 2.95829,0.41011 5.8313,-2.22472 5.73679,-5.20081 0.09,-2.73473 -2.27836,-5.17284 -5.00227,-5.22068 z"
       id="path17944-3"
       style="fill:#00b345;stroke-width:1.12532;stroke-miterlimit:10" />
    <path
       style="color:#000000;font-variation-settings:normal;vector-effect:none;fill:#009fe3;fill-opacity:1;stroke-width:1.98505;stroke-linecap:butt;stroke-linejoin:miter;stroke-miterlimit:4;stroke-dasharray:none;stroke-dashoffset:0;stroke-opacity:1;-inkscape-stroke:none;stop-color:#000000"
       d="m 219.94291,273.88741 c 1.72468,0.0894 4.45844,4.52006 6.31942,10.38215 1.98505,6.23303 2.22369,11.71209 0.55625,12.24805 -1.68728,0.53596 -4.64545,-4.08925 -6.65035,-10.3223 -1.98504,-6.23304 -2.24353,-11.73087 -0.55625,-12.26683 0.10546,-0.0335 0.21596,-0.047 0.33093,-0.0411 z"
       id="path6226-8" />
    <path
       style="color:#000000;font-variation-settings:normal;vector-effect:none;fill:#009fe3;fill-opacity:1;stroke-width:1.98505;stroke-linecap:butt;stroke-linejoin:miter;stroke-miterlimit:4;stroke-dasharray:none;stroke-dashoffset:0;stroke-opacity:1;-inkscape-stroke:none;stop-color:#000000"
       d="m 207.36511,258.2068 c 2.22325,-0.33745 5.04204,6.03445 6.33232,14.27238 1.29027,8.23794 0.53572,15.1859 -1.68752,15.52335 -2.22326,0.33747 -5.04206,-6.03561 -6.33233,-14.27355 -1.27043,-8.21808 -0.51588,-15.18472 1.68753,-15.52218 z"
       id="path6224-9" />
    <path
       d="m 158.90186,227.10753 c 2.46124,-0.41918 4.70026,-0.41226 6.8215,0.92299 0.22654,-0.33693 0.74261,-0.39111 1.35379,-0.39604 l 0.61613,-0.25744 -0.24384,0.59712 c 0.19436,0.87903 -0.20229,1.43657 -0.68192,1.61915 l 0.38698,1.51743 c 0.36995,1.20271 -0.0134,4.50102 -0.71009,4.42632 0.0301,-1.62602 -0.0578,-3.20596 -1.15742,-4.39109 -1.04445,-0.12103 -2.22572,0.91996 -3.24344,1.92231 -1.19074,1.1891 -2.30436,2.05191 -3.37996,2.75391 0.82804,-0.84092 1.61335,-1.66669 1.94787,-2.33271 -0.61415,-0.0233 -1.67888,0.57514 -2.69694,1.10317 0.97548,-0.66335 1.55558,-1.47696 2.77386,-1.95447 1.27307,-0.49898 2.27039,-1.95232 2.97551,-2.94147 -1.19544,-1.96453 -2.90899,-2.56196 -4.76201,-2.58916 z"
       id="path26-2-6-4"
       style="clip-rule:evenodd;fill-rule:evenodd;stroke-width:0.0251902;stroke-miterlimit:10" />
    <path
       d="m 151.78026,238.74539 c -0.11323,0.14418 -0.26626,0.62571 -0.42592,0.91125 -0.13962,0.25003 -0.51718,0.31878 -0.82756,0.26401 -0.0711,0.65465 -0.30308,1.20287 -0.75724,1.60407 -1.5867,1.51425 -3.42821,2.3109 -5.04594,3.22742 1.96964,-1.59418 3.83364,-3.15335 3.64004,-4.69361 -0.60405,-0.29629 -2.2937,1.1062 -4.2605,2.94235 l 1.93203,-2.65253 c -1.36395,0.36702 -2.67126,0.52098 -3.9061,0.40252 1.97388,-0.46276 3.97218,-0.90653 5.18753,-1.95808 -0.163,-1.12923 -2.81896,-1.13738 -5.53001,-1.21567 0.52653,-0.0385 1.09832,-0.30567 1.6544,-0.3712 2.81055,-0.33186 5.7383,-0.58953 6.40705,0.97437 0.47336,-0.0416 0.891,0.15952 1.39911,0.41928 0.15344,0.0779 0.37517,0.0266 0.53308,0.1458 z"
       id="path34-2-4-0"
       style="clip-rule:evenodd;fill-rule:evenodd;stroke-width:0.0200093;stroke-miterlimit:10" />
    <path
       id="path16204-0"
       style="color:#000000;font-variation-settings:normal;opacity:1;vector-effect:none;fill:#72caf0;fill-opacity:1;stroke-width:1.2381;stroke-linecap:butt;stroke-linejoin:miter;stroke-miterlimit:10;stroke-dasharray:none;stroke-dashoffset:0;stroke-opacity:1;-inkscape-stroke:none;stop-color:#000000;stop-opacity:1"
       d="m 0.32411597,80.831283 v 79.352397 c 3.6531e-4,9e-5 7.811e-4,-1e-4 0.001202,0 4.31898203,0 11.51184103,4.45778 25.31639203,1.61946 l 0.0176,-0.005 0.01525,-0.002 c 10.370446,-2.1566 18.770663,-3.16975 24.108839,-3.02887 4.186599,0.11049 5.801485,0.85058 6.124613,0.98577 0.1371,0.41213 0.371243,1.63413 0.195977,4.7645 -0.293897,5.24921 -2.364895,14.41476 -6.94021,26.75043 -3.630836,9.79227 -2.725017,16.20648 -2.725017,16.52789 h 33.237765 47.612143 v -47.61197 -31.74026 c -23.4668,0 -38.459809,-1.93243 -46.182791,-4.29626 -7.722982,-2.36383 -6.709449,-2.96931 -6.834593,-3.35275 -0.125137,-0.38346 -0.200832,-4.74273 1.337814,-11.93707 1.538645,-7.19434 4.067427,-16.73454 4.067427,-28.024884 -7.2e-5,-3.54e-4 7.8e-5,-8.41e-4 0,-0.0012 z"
       sodipodi:nodetypes="ccccccscsccccccsssccc" />
    <path
       id="path16199-5"
       style="color:#000000;font-variation-settings:normal;opacity:1;vector-effect:none;fill:#b1e2f7;fill-opacity:1;stroke-width:1.2381;stroke-linecap:butt;stroke-linejoin:miter;stroke-miterlimit:10;stroke-dasharray:none;stroke-dashoffset:0;stroke-opacity:1;-inkscape-stroke:none;stop-color:#000000;stop-opacity:1"
       d="m 0.32411597,80.831283 v 71.397087 c 8.41e-6,0.007 0.001202,0.0142 0.001202,0.0211 6.36517683,0 13.62939303,3.85524 23.71570803,1.7814 l 0.01056,-0.002 0.007,-0.002 c 10.670476,-2.219 19.523532,-3.35997 25.933665,-3.19081 6.410136,0.16916 9.834781,1.59279 11.479391,3.20137 1.644622,1.60858 2.925686,4.34121 2.557105,10.92432 -0.368575,6.58309 -2.69712,16.31795 -7.424873,29.06461 v 0.002 c -2.469725,6.66078 -0.732771,11.84079 -0.732278,13.76776 h 71.417014 v -71.417 c -23.85452,0 -39.395273,-1.85411 -48.5052,-4.64245 -9.109914,-2.78834 -11.055667,-5.41596 -12.055591,-8.47988 -0.999923,-3.06392 -0.459561,-8.66283 1.121889,-16.0573 1.58145,-7.394477 3.892576,-16.339764 3.892576,-26.366694 H 55.871611 c -3.79e-4,-4.14e-4 -6.01e-4,-7.81e-4 -0.0012,-0.0012 z" />
    <path
       id="path16194-71"
       style="color:#000000;font-variation-settings:normal;opacity:1;vector-effect:none;fill:#ecf8fd;fill-opacity:1;stroke-width:1.2381;stroke-linecap:butt;stroke-linejoin:miter;stroke-miterlimit:10;stroke-dasharray:none;stroke-dashoffset:0;stroke-opacity:1;-inkscape-stroke:none;stop-color:#000000;stop-opacity:1"
       d="m 0.32411597,80.831283 v 60.506797 c 3.575e-4,1.4e-4 8.4118e-4,-1.2e-4 0.001202,0 v 5.95211 c 7.64405683,0 14.95581503,3.47835 22.71821503,1.88233 h 0.0035 l 0.0023,-0.001 c 10.857997,-2.25798 19.994223,-3.48209 27.074329,-3.29524 7.080105,0.18683 11.900545,1.76417 14.815716,4.61546 2.915172,2.85128 4.455692,7.3297 4.040437,14.74648 -0.415255,7.41676 -2.902271,17.5092 -7.725295,30.51275 -1.744398,4.70458 -0.423955,9.11565 -0.423642,12.04502 H 127.2887 v -62.44663 -4.0111 c -24.09686,0 -39.978899,-1.80589 -49.955668,-4.85955 -9.976764,-3.05366 -13.773667,-6.94555 -15.320328,-11.68476 -1.546667,-4.73922 -0.621272,-11.11246 0.986927,-18.63201 1.6082,-7.519564 3.783439,-16.092011 3.783439,-25.329304 -22.034939,0.02187 -44.33509,-0.0012 -66.45890476,-0.0012 z"
       sodipodi:nodetypes="cccccccssscccccssscc" />
    <path
       class="st1"
       d="M 63.806624,80.831712 H 0.32441604 v 126.964418 0 -63.48221 c 8.41139256,0 15.75152296,3.25347 22.11958196,1.94414 43.882076,-9.12556 61.121463,-2.10284 41.600685,50.52787 -1.309321,3.5312 -0.238059,7.479 -0.238059,11.0102 h 63.482206 v -63.48221 c -96.96907,0 -63.482206,-28.42812 -63.482206,-63.482208 z"
       id="path16209-2"
       style="fill:#95c11f;stroke-width:0.396764;stroke-miterlimit:10" />
    <path
       class="st2"
       d="m 35.656232,96.979999 c 0.602074,-2.775601 -1.303746,-5.76842 -4.064917,-6.411844 -2.710594,-0.766195 -5.778404,0.915076 -6.627871,3.594822 -2.34624,-1.654369 -5.928413,-0.978842 -7.475123,1.454852 -1.266572,1.81951 -1.208484,4.420441 0.134993,6.182851 -1.608863,2.04833 -0.938583,5.35163 1.324345,6.63354 1.073303,0.65683 2.431184,0.85614 3.635202,0.46853 0.940581,3.00421 4.309969,4.96713 7.381624,4.21659 2.677223,-0.54738 4.774535,-3.0081 4.95773,-5.72429 2.956454,0.40992 5.827704,-2.22334 5.733237,-5.19758 0.08993,-2.733045 -2.27689,-5.16959 -4.99922,-5.217471 z"
       id="path16213-5"
       style="fill:#008d36;stroke-width:1.12462;stroke-miterlimit:10" />
    <path
       class="st2"
       d="m 112.03327,163.55696 c 0.60211,-2.77559 -1.30374,-5.76841 -4.06489,-6.41184 -2.7106,-0.76619 -5.77841,0.91507 -6.62788,3.59482 -2.346244,-1.65437 -5.928415,-0.97884 -7.475124,1.45485 -1.266574,1.81952 -1.20848,4.42045 0.134993,6.18286 -1.608864,2.04832 -0.938582,5.35162 1.324345,6.63354 1.073297,0.65679 2.431204,0.85618 3.635203,0.46852 0.940575,3.00421 4.309963,4.96714 7.381623,4.2166 2.67722,-0.54738 4.77454,-3.00811 4.95773,-5.7243 2.95645,0.40992 5.8277,-2.22334 5.73323,-5.19758 0.0845,-2.72873 -2.28035,-5.16597 -4.99923,-5.21747 z"
       id="path16215-3"
       style="fill:#005822;stroke-width:1.12462;stroke-miterlimit:10" />
    <path
       class="st2"
       d="m 99.535204,177.56273 c 0.602076,-2.77561 -1.303747,-5.76842 -4.064916,-6.41185 -2.710595,-0.76619 -5.778404,0.91508 -6.627871,3.59483 -2.346239,-1.65437 -5.928413,-0.97884 -7.475124,1.45485 -1.266575,1.81951 -1.208479,4.42044 0.134993,6.18285 -1.608864,2.04832 -0.938582,5.35162 1.324345,6.63354 1.073298,0.65679 2.4312,0.85617 3.635203,0.46853 0.940582,3.00421 4.309969,4.96713 7.381624,4.21659 2.677227,-0.54738 4.774536,-3.00811 4.95773,-5.7243 2.956452,0.40992 5.827702,-2.22334 5.733232,-5.19758 0.0862,-2.72988 -2.28164,-5.16358 -4.999216,-5.21746 z"
       id="path16217-7"
       style="fill:#008d36;stroke-width:1.12462;stroke-miterlimit:10" />
  </g>
  <g
     id="g16718"
     transform="translate(-16.082232,-81.434263)">
    <line
       style="font-variation-settings:normal;vector-effect:none;fill:none;fill-opacity:1;stroke:#747474;stroke-width:3.73804px;stroke-linecap:round;stroke-linejoin:round;stroke-miterlimit:4;stroke-dasharray:none;stroke-dashoffset:0;stroke-opacity:1;-inkscape-stroke:none;stop-color:#000000"
       x1="-14.048748"
       y1="208.28006"
       x2="270.05698"
       y2="208.28006"
       id="line83" />
    <line
       style="font-variation-settings:normal;vector-effect:none;fill:none;fill-opacity:1;stroke:#747474;stroke-width:3.73804px;stroke-linecap:round;stroke-linejoin:round;stroke-miterlimit:4;stroke-dasharray:none;stroke-dashoffset:0;stroke-opacity:1;-inkscape-stroke:none;stop-color:#000000"
       x1="128.00412"
       y1="66.227211"
       x2="128.00412"
       y2="350.33292"
       id="line85" />
  </g>
</svg>
