<!--?xml version="1.0" encoding="UTF-8"?-->
<svg id="svg1305" width="348.51mm" height="185.3mm" version="1.1" viewBox="0 0 348.51 185.3" xmlns="http://www.w3.org/2000/svg">
 <g id="g2479" transform="translate(26.264,31.101)" class="csvg-ignore">
  <path id="path21-0" transform="matrix(.26458 0 0 .26458 -26.264 -31.101)" d="m778.98 128.98-3.2891 6.9961 339.43 157.37-3.291 6.9961 26.086-.6914-16.209-20.301-3.2929 6.998z" style="fill:#999999;stroke-width:.96896"></path>
  <path id="path21-4-4" transform="matrix(.26458 0 0 .26458 -26.264 -31.101)" d="m1110 399.76 3.293 6.998-339.44 157.37 3.2891 6.998 339.44-157.37 3.293 6.998 16.209-20.301z" style="fill:#999999;stroke-width:.96896"></path>
  <path id="path41367" transform="matrix(.26458 0 0 .26458 -26.264 -31.101)" d="m566.15 83.174v8.9766h-372.24v8.9785h372.24v8.9766l26.932-13.467z" style="-inkscape-stroke:none;fill:#999999;font-variation-settings:normal;stop-color:#000000;stroke-width:.96892"></path>
  <path id="path41369" transform="matrix(.26458 0 0 .26458 -26.264 -31.101)" d="m165.04 167.35-6.2012 5.7461 436.76 352.7-5.6309 6.9863 29.418 6.416-12.518-27.385-5.6387 6.9961z" style="-inkscape-stroke:none;fill:#999999;font-variation-settings:normal;stop-color:#000000;stroke-width:.96896"></path>
  <path id="path41371" transform="matrix(.26458 0 0 .26458 -26.264 -31.101)" d="m566.15 603.85v8.9766h-372.24v8.9785l372.24-.002v8.9785l26.932-13.467z" style="-inkscape-stroke:none;fill:#999999;font-variation-settings:normal;stop-color:#000000;stroke-width:.96892"></path>
  <path id="path41373-0" transform="matrix(.26458 0 0 .26458 -26.264 -31.101)" d="m619.36 163.53-29.418 6.416 5.6719 7.0391-430.41 357.33 6.1836 7.2598 429.87-357.6 5.5918 6.9375z" style="-inkscape-stroke:none;fill:#999999;font-variation-settings:normal;stop-color:#000000;stroke-width:.96892"></path>
  <path id="path17" d="m-24.668-5.0392c0-13.809 11.194-25.003 25.003-25.003s25.003 11.194 25.003 25.003-11.194 25.003-25.003 25.003-25.003-11.194-25.003-25.003z" fill="none" fill-rule="evenodd" stroke="#000000" stroke-miterlimit="8" stroke-width="2.1167"></path>
  <path id="path1474" d="m7.4271 2.2235q.10335.28422.10335.46509.012919.16795-.090434.25838-.10335.090434-.34882.11627-.23254.025838-.63304.025838-.40049 0-.64595-.025838-.23254-.012919-.36173-.051676-.11627-.051676-.18087-.12919-.051676-.077514-.10335-.19379l-1.434-4.0695h-6.9505l-1.3694 4.0178q-.038757.11627-.10335.20671-.064595.077514-.19379.14211-.11627.051676-.34882.077514-.21962.025838-.58136.025838-.37465 0-.62012-.038757-.23254-.025838-.3359-.11627-.090434-.090434-.090434-.25838.012919-.18087.11627-.46509l5.6069-15.529q.051676-.14211.12919-.23254.090434-.09043.24546-.14211.16795-.05168.41341-.0646.25838-.02584.64595-.02584.41341 0 .68471.02584.2713.01292.43925.0646t.25838.15503q.090434.09043.14211.23254zm-7.1959-13.707h-.012919l-2.881 8.3328h5.8136z" style="stroke-width:.26458"></path>
  <path id="path25" d="m-25.205 128.14c0-13.809 11.194-25.003 25.003-25.003s25.003 11.194 25.003 25.003-11.194 25.003-25.003 25.003-25.003-11.194-25.003-25.003z" fill="none" fill-rule="evenodd" stroke="#000000" stroke-miterlimit="8" stroke-width="2.1167"></path>
  <path id="path1479" d="m6.726 131.21q0 .78806-.20671 1.4599-.19379.65887-.55552 1.1886-.36173.52969-.8785.93018-.50384.40049-1.1498.67179-.63304.2713-1.3694.41341-.72347.12919-1.6666.12919h-4.3667q-.29714 0-.56844-.19378-.25838-.20671-.25838-.71055v-14.909q0-.50384.25838-.69763.2713-.2067.56844-.2067h3.7982q1.4986 0 2.4546.28422t1.589.82682q.64595.5426.96893 1.3307.32298.78806.32298 1.7828 0 .59428-.14211 1.1369t-.42633 1.0077q-.2713.45217-.69763.8139-.41341.36174-.95601.59428.68471.12919 1.279.47801.59428.33589 1.0335.86558.45217.52968.71055 1.2402t.25838 1.5632zm-3.346-7.4802q0-.60719-.16795-1.0981-.16795-.49092-.52968-.82682-.36173-.34882-.94309-.52968-.58136-.18087-1.5374-.18087h-2.2996v5.4131h2.5321q.86558 0 1.3953-.21963.52968-.23254.8785-.60719.34882-.38758.50384-.89142.16795-.51676.16795-1.0594zm1.0077 7.6094q0-.74931-.24546-1.3178-.23254-.56844-.69763-.95601-.45217-.38757-1.1498-.58136-.68471-.20671-1.7312-.20671h-2.6613v5.8911h3.2298q.76223 0 1.3307-.18087.56844-.18086.99477-.52968.43925-.36173.68471-.89142.24546-.52968.24546-1.2273z" style="stroke-width:.26458"></path>
  <path id="path17-3" d="m131.7-5.0392c0-13.809 11.194-25.003 25.003-25.003s25.003 11.194 25.003 25.003-11.194 25.003-25.003 25.003-25.003-11.194-25.003-25.003z" fill="none" fill-rule="evenodd" stroke="#000000" stroke-miterlimit="8" stroke-width="2.1167"></path>
  <path id="path25-4" d="m131.16 128.14c0-13.809 11.194-25.003 25.003-25.003s25.003 11.194 25.003 25.003-11.194 25.003-25.003 25.003-25.003-11.194-25.003-25.003z" fill="none" fill-rule="evenodd" stroke="#000000" stroke-miterlimit="8" stroke-width="2.1167"></path>
  <path id="path29-0" d="m271.45 61.107c0-13.809 11.135-25.003 24.871-25.003s24.871 11.194 24.871 25.003-11.135 25.003-24.871 25.003-24.871-11.194-24.871-25.003z" fill="none" fill-rule="evenodd" stroke="#000000" stroke-miterlimit="8" stroke-width="2.1167"></path>
  <path id="path1484" d="m301.86 69.04q0 .24546-.0258.42633-.0258.16795-.0904.28422-.0517.11627-.14211.16795-.0775.05168-.19379.05168h-9.8702q-.3359 0-.5426-.20671-.20671-.2067-.20671-.65887v-.47801q0-.16795.0129-.31006.0258-.14211.0904-.29714.0646-.16795.18087-.36174.11627-.2067.28422-.47801l7.7127-12.066h-7.6223q-.1292 0-.21963-.05168-.0904-.05168-.15503-.15503-.0517-.11627-.0775-.28422-.0258-.18087-.0258-.41341 0-.25838.0258-.43925t.0775-.29714q.0646-.11627.15503-.16795.0904-.05168.21963-.05168h9.3017q.34882 0 .5426.2067.20671.19379.20671.6072v.50384q0 .20671-.0258.37465-.0258.15503-.0904.32298t-.18087.36174q-.10335.19379-.28422.45217l-7.6739 12.015h8.1649q.21963 0 .3359.21962t.11627.72347z" style="stroke-width:.26458"></path>
 </g>
 <g id="g2463" transform="translate(26.264,31.101)" class="csvg-group">
  <g id="g2455" class="csvg-button">
   <circle id="path1051-8-1-5-6-5" cx="224.65" cy="98.117" r="10.197" style="fill:#d8dad9"></circle>
   <path id="path1504-3-3-0" d="m225.88 91.481v5.4157h5.395v2.4391h-5.395v5.4157h-2.4598v-5.4157h-5.395v-2.4391h5.395v-5.4157z" style="stroke-width:.26458"></path>
  </g>
  <g id="g2451" class="csvg-button">
   <circle id="path1051-8-2-9-34-0-1" cx="224.65" cy="98.117" r="10.197" style="fill:#d8dad9"></circle>
   <path id="path1519-2-2-8" d="m230.23 98.117q0 .47801-.12919.69763-.11627.21962-.34882.21962h-10.18q-.24546 0-.37465-.21962-.11628-.21962-.11628-.69763 0-.46509.11628-.68471.12919-.23254.37465-.23254h10.18q.23254 0 .34881.21962.12919.21962.12919.69763z" style="stroke-width:.26458"></path>
  </g>
 </g>
 <g id="g2447" transform="translate(26.264,31.101)" class="csvg-group">
  <g id="g2439" class="csvg-button">
   <circle id="path1051-8-1-5-6" cx="224.65" cy="23.934" r="10.197" style="fill:#d8dad9"></circle>
   <path id="path1504-3-3" d="m225.88 17.298v5.4157h5.395v2.4391h-5.395v5.4157h-2.4598v-5.4157h-5.395v-2.4391h5.395v-5.4157z" style="stroke-width:.26458"></path>
  </g>
  <g id="g2435" class="csvg-button">
   <circle id="path1051-8-2-9-34-0" cx="224.65" cy="23.934" r="10.197" style="fill:#d8dad9"></circle>
   <path id="path1519-2-2" d="m230.23 23.934q0 .47801-.12919.69763-.11627.21962-.34882.21962h-10.18q-.24546 0-.37465-.21962-.11628-.21962-.11628-.69763 0-.46509.11628-.68471.12919-.23254.37465-.23254h10.18q.23254 0 .34881.21962.12919.21962.12919.69763z" style="stroke-width:.26458"></path>
  </g>
 </g>
 <g id="g2431" transform="translate(26.264,31.101)" class="csvg-group">
  <g id="g2423" class="csvg-button">
   <circle id="path1051-8-1-5" cx="79.966" cy="132" r="10.197" style="fill:#d8dad9"></circle>
   <path id="path1504-3" d="m81.196 125.36v5.4157h5.395v2.4391h-5.395v5.4157h-2.4598v-5.4157h-5.395v-2.4391h5.395v-5.4157z" style="stroke-width:.26458"></path>
  </g>
  <g id="g2419" class="csvg-button">
   <circle id="path1051-8-2-9-34" cx="79.966" cy="132" r="10.197" style="fill:#d8dad9"></circle>
   <path id="path1519-2" d="m85.541 132q0 .47801-.12919.69763-.11627.21963-.34882.21963h-10.18q-.24546 0-.37465-.21963-.11627-.21962-.11627-.69763 0-.46509.11627-.68471.12919-.23255.37465-.23255h10.18q.23254 0 .34882.21963.12919.21962.12919.69763z" style="stroke-width:.26458"></path>
  </g>
 </g>
 <g id="g2415" transform="translate(26.264,31.101)" class="csvg-group">
  <g id="g2407" class="csvg-button">
   <circle id="path1051-8-62" cx="48.925" cy="85.728" r="10.197" style="fill:#d8dad9"></circle>
   <path id="path1509" d="m50.155 79.092v5.4157h5.395v2.4391h-5.395v5.4157h-2.4598v-5.4157h-5.395v-2.4391h5.395v-5.4157z" style="stroke-width:.26458"></path>
  </g>
  <g id="g2403" class="csvg-button">
   <circle id="path1051-8-2-9-3" cx="48.925" cy="85.728" r="10.197" style="fill:#d8dad9"></circle>
   <path id="path1519-1" d="m54.499 85.728q0 .47801-.12919.69763-.11627.21962-.34882.21962h-10.18q-.24546 0-.37465-.21962-.11627-.21962-.11627-.69763 0-.46509.11627-.68471.12919-.23254.37465-.23254h10.18q.23254 0 .34882.21962.12919.21962.12919.69763z" style="stroke-width:.26458"></path>
  </g>
 </g>
 <g id="g2399" transform="translate(26.264,31.101)" class="csvg-group">
  <g id="g2391" class="csvg-button">
   <circle id="path1051-8-1" cx="48.925" cy="38.556" r="10.197" style="fill:#d8dad9"></circle>
   <path id="path1504" d="m50.155 31.92v5.4157h5.395v2.4391h-5.395v5.4157h-2.4598v-5.4157h-5.395v-2.4391h5.395v-5.4157z" style="stroke-width:.26458"></path>
  </g>
  <g id="g2387" class="csvg-button">
   <circle id="path1051-8-2-9" cx="48.925" cy="38.556" r="10.197" style="fill:#d8dad9"></circle>
   <path id="path1519" d="m54.499 38.556q0 .47801-.12919.69763-.11627.21962-.34882.21962h-10.18q-.24546 0-.37465-.21962-.11627-.21962-.11627-.69763 0-.46509.11627-.68471.12919-.23254.37465-.23254h10.18q.23254 0 .34882.21962.12919.21962.12919.69763z" style="stroke-width:.26458"></path>
  </g>
 </g>
 <g id="g2383" transform="translate(26.264,31.101)" class="csvg-group">
  <g id="g2375" class="csvg-button">
   <circle id="path1051-8" cx="77.046" cy="-5.5672" r="10.197" style="fill:#d8dad9"></circle>
   <path id="path1499" d="m78.275-12.202v5.4157h5.395v2.4391h-5.395v5.4157h-2.4598v-5.4157h-5.395v-2.4391h5.395v-5.4157z" style="stroke-width:.26458"></path>
  </g>
  <g id="g2371" class="csvg-button">
   <circle id="path1051-8-2-6" cx="77.04" cy="-5.5014" r="10.197" style="fill:#d8dad9"></circle>
   <path id="path1524" d="m82.614-5.5014q0 .47801-.12919.69763-.11627.21962-.34882.21962h-10.18q-.24546 0-.37465-.21962-.11627-.21962-.11627-.69763 0-.46509.11627-.68471.12919-.23254.37465-.23254h10.18q.23254 0 .34882.21962.12919.21962.12919.69763z" style="stroke-width:.26458"></path>
  </g>
 </g>
</svg>
