<?xml version="1.0" encoding="UTF-8" standalone="no"?>
<!DOCTYPE svg PUBLIC "-//W3C//DTD SVG 1.1//EN" "http://www.w3.org/Graphics/SVG/1.1/DTD/svg11.dtd">
<svg width="100%" height="100%" viewBox="0 0 591 263" version="1.1" xmlns="http://www.w3.org/2000/svg" xmlns:xlink="http://www.w3.org/1999/xlink" xml:space="preserve" xmlns:serif="http://www.serif.com/" style="fill-rule:evenodd;clip-rule:evenodd;stroke-linejoin:round;stroke-miterlimit:2;">
    <g transform="matrix(1,0,0,1,-730.343,-249.186)">
        <path d="M850.493,431.091L818.924,431.091L818.924,380.474L894.85,380.474L894.85,431.091L863.282,431.091C863.282,427.562 860.416,424.697 856.887,424.697C853.358,424.697 850.493,427.562 850.493,431.091Z" style="fill:rgb(8,106,147);"/>
        <g transform="matrix(0.476117,0,0,0.476117,270.464,222.308)">
            <g>
                <path d="M1026.45,554.378L973.291,554.378L973.291,607.535L1026.45,607.535L1026.45,554.378ZM1026.45,607.535L1132.76,607.535L1132.76,554.378L1026.45,554.378L1026.45,607.535ZM1185.92,554.378L1132.76,554.378L1132.76,607.535L1185.92,607.535L1185.92,554.378Z" style="fill:rgb(8,106,147);"/>
                <g transform="matrix(0.607079,0,0,0.225668,879.443,512.538)">
                    <path d="M419.298,260L417.343,226.994L415.247,260L415.247,346.241L417.273,379.37L419.298,346.241L419.298,260Z" style="fill:rgb(90,177,214);"/>
                </g>
                <g transform="matrix(0.607079,0,0,0.225668,826.287,512.538)">
                    <path d="M419.298,260L417.343,226.994L415.247,260L415.247,346.241L417.273,379.37L419.298,346.241L419.298,260Z" style="fill:rgb(90,177,214);"/>
                </g>
                <g transform="matrix(0.607079,0,0,0.225668,773.13,512.538)">
                    <path d="M419.298,260L417.343,226.994L415.247,260L415.247,346.241L417.273,379.37L419.298,346.241L419.298,260Z" style="fill:rgb(90,177,214);"/>
                </g>
            </g>
        </g>
        <g transform="matrix(0.476117,0,0,0.476117,589.032,233.074)">
            <g transform="matrix(0.607079,0,0,0.225668,335.844,267.746)">
                <path d="M419.298,260L417.343,226.994L415.247,260L415.247,346.241L417.273,379.37L419.298,346.241L419.298,260Z" style="fill:rgb(90,177,214);"/>
            </g>
            <g transform="matrix(0.607079,0,0,0.225668,282.687,267.746)">
                <path d="M419.298,260L417.343,226.994L415.247,260L415.247,346.241L417.273,379.37L419.298,346.241L419.298,260Z" style="fill:rgb(90,177,214);"/>
            </g>
            <g transform="matrix(3.71729e-17,0.607079,-0.225668,1.38182e-17,577.845,109.425)">
                <path d="M419.298,260L417.343,226.994L415.247,260L415.247,346.241L417.273,379.37L419.298,346.241L419.298,260Z" style="fill:rgb(90,177,214);"/>
            </g>
            <g transform="matrix(3.71729e-17,0.607079,-0.225668,1.38182e-17,631.001,109.425)">
                <path d="M419.298,260L417.343,226.994L415.247,260L415.247,346.241L417.273,379.37L419.298,346.241L419.298,260Z" style="fill:rgb(90,177,214);"/>
            </g>
            <g transform="matrix(3.71729e-17,0.607079,-0.225668,1.38182e-17,684.158,109.425)">
                <path d="M419.298,260L417.343,226.994L415.247,260L415.247,346.241L417.273,379.37L419.298,346.241L419.298,260Z" style="fill:rgb(90,177,214);"/>
            </g>
            <g transform="matrix(0.607079,0,0,0.225668,282.687,320.903)">
                <path d="M419.298,260L417.343,226.994L415.247,260L415.247,346.241L417.273,379.37L419.298,346.241L419.298,260Z" style="fill:rgb(90,177,214);"/>
            </g>
            <g transform="matrix(0.607079,0,0,0.225668,335.844,320.903)">
                <path d="M419.298,260L417.343,226.994L415.247,260L415.247,346.241L417.273,379.37L419.298,346.241L419.298,260Z" style="fill:rgb(90,177,214);"/>
            </g>
        </g>
        <g transform="matrix(0.476117,0,0,0.476117,474.263,167.956)">
            <rect x="697.321" y="256.43" width="159.47" height="159.47" style="fill:rgb(8,106,147);"/>
            <g transform="matrix(0.607079,0,0,0.225668,550.317,267.746)">
                <path d="M419.298,260L417.343,226.994L415.247,260L415.247,346.241L417.273,379.37L419.298,346.241L419.298,260Z" style="fill:rgb(90,177,214);"/>
            </g>
            <g transform="matrix(0.607079,0,0,0.225668,550.317,214.59)">
                <path d="M419.298,260L417.343,226.994L415.247,260L415.247,346.241L417.273,379.37L419.298,346.241L419.298,260Z" style="fill:rgb(90,177,214);"/>
            </g>
            <g transform="matrix(0.607079,0,0,0.225668,497.16,267.746)">
                <path d="M419.298,260L417.343,226.994L415.247,260L415.247,346.241L417.273,379.37L419.298,346.241L419.298,260Z" style="fill:rgb(90,177,214);"/>
            </g>
            <g transform="matrix(0.607079,0,0,0.225668,497.16,214.59)">
                <path d="M419.298,260L417.343,226.994L415.247,260L415.247,346.241L417.273,379.37L419.298,346.241L419.298,260Z" style="fill:rgb(90,177,214);"/>
            </g>
            <g transform="matrix(3.71729e-17,0.607079,-0.225668,1.38182e-17,792.318,109.425)">
                <path d="M419.298,260L417.343,226.994L415.247,260L415.247,346.241L417.273,379.37L419.298,346.241L419.298,260Z" style="fill:rgb(90,177,214);"/>
            </g>
            <g transform="matrix(3.71729e-17,0.607079,-0.225668,1.38182e-17,793.547,56.2687)">
                <path d="M419.298,260L417.343,226.994L415.247,260L415.247,346.241L417.273,379.37L419.298,346.241L419.298,260Z" style="fill:rgb(90,177,214);"/>
            </g>
            <g transform="matrix(3.71729e-17,0.607079,-0.225668,1.38182e-17,845.475,109.425)">
                <path d="M419.298,260L417.343,226.994L415.247,260L415.247,346.241L417.273,379.37L419.298,346.241L419.298,260Z" style="fill:rgb(90,177,214);"/>
            </g>
            <g transform="matrix(3.71729e-17,0.607079,-0.225668,1.38182e-17,846.704,56.2687)">
                <path d="M419.298,260L417.343,226.994L415.247,260L415.247,346.241L417.273,379.37L419.298,346.241L419.298,260Z" style="fill:rgb(90,177,214);"/>
            </g>
            <g transform="matrix(3.71729e-17,0.607079,-0.225668,1.38182e-17,898.631,109.425)">
                <path d="M419.298,260L417.343,226.994L415.247,260L415.247,346.241L417.273,379.37L419.298,346.241L419.298,260Z" style="fill:rgb(90,177,214);"/>
            </g>
            <g transform="matrix(3.71729e-17,0.607079,-0.225668,1.38182e-17,899.861,56.2687)">
                <path d="M419.298,260L417.343,226.994L415.247,260L415.247,346.241L417.273,379.37L419.298,346.241L419.298,260Z" style="fill:rgb(90,177,214);"/>
            </g>
            <g transform="matrix(0.607079,0,0,0.225668,497.16,320.903)">
                <path d="M419.298,260L417.343,226.994L415.247,260L415.247,346.241L417.273,379.37L419.298,346.241L419.298,260Z" style="fill:rgb(90,177,214);"/>
            </g>
            <g transform="matrix(0.607079,0,0,0.225668,550.317,320.903)">
                <path d="M419.298,260L417.343,226.994L415.247,260L415.247,346.241L417.273,379.37L419.298,346.241L419.298,260Z" style="fill:rgb(90,177,214);"/>
            </g>
        </g>
        <g id="g4974">
        </g>
        <g id="g4964">
        </g>
        <g id="g4223">
        </g>
        <g id="g4219">
        </g>
        <g id="g4213">
        </g>
        <g id="g4228">
        </g>
        <g id="g4203">
        </g>
        <g id="g4985">
        </g>
        <g id="g4979">
        </g>
        <g transform="matrix(0.476117,0,0,0.476117,461.892,-8.36779)">
            <path d="M935.931,554.378L935.931,607.535L869.627,607.535C869.627,600.122 863.609,594.104 856.196,594.104C848.784,594.104 842.766,600.122 842.766,607.535L816.47,607.535C816.47,600.122 810.452,594.104 803.04,594.104C795.627,594.104 789.609,600.122 789.609,607.535L723.305,607.535L723.305,554.378L789.609,554.378C789.609,546.966 795.627,540.948 803.04,540.948C810.452,540.948 816.47,546.966 816.47,554.378L842.766,554.378C842.766,546.966 848.784,540.948 856.196,540.948C863.609,540.948 869.627,546.966 869.627,554.378L935.931,554.378Z" style="fill:rgb(8,106,147);"/>
            <g transform="matrix(0.607079,0,0,0.225668,629.567,512.538)">
                <path d="M419.298,260L417.343,226.994L415.247,260L415.247,346.241L417.273,379.37L419.298,346.241L419.298,260Z" style="fill:rgb(90,177,214);"/>
            </g>
            <g transform="matrix(0.607079,0,0,0.225668,576.411,512.538)">
                <path d="M419.298,260L417.343,226.994L415.247,260L415.247,346.241L417.273,379.37L419.298,346.241L419.298,260Z" style="fill:rgb(90,177,214);"/>
            </g>
            <g transform="matrix(0.607079,0,0,0.225668,523.254,512.538)">
                <path d="M419.298,260L417.343,226.994L415.247,260L415.247,346.241L417.273,379.37L419.298,346.241L419.298,260Z" style="fill:rgb(90,177,214);"/>
            </g>
        </g>
        <g transform="matrix(0.476117,0,0,0.476117,606.224,181.67)">
            <path d="M632.788,554.378L632.788,607.535L593.062,607.535C593.062,600.122 587.044,594.104 579.631,594.104L579.492,594.105C578.048,594.124 576.613,594.365 575.248,594.837C573.38,595.483 571.665,596.546 570.251,597.927C568.78,599.363 567.644,601.134 566.961,603.074C566.465,604.479 566.215,605.959 566.201,607.448L566.201,607.535L539.905,607.535C539.905,600.122 533.887,594.104 526.475,594.104C519.062,594.104 513.044,600.122 513.044,607.535L473.318,607.535L473.318,554.378L632.788,554.378Z" style="fill:rgb(8,106,147);"/>
            <g transform="matrix(0.607079,0,0,0.196057,326.314,514.386)">
                <path d="M419.298,260L417.343,226.994L415.247,260L415.247,346.241L417.273,379.37L419.298,346.241L419.298,260Z" style="fill:rgb(90,177,214);"/>
            </g>
            <g transform="matrix(0.607079,0,0,0.196057,273.157,514.386)">
                <path d="M419.298,260L417.343,226.994L415.247,260L415.247,346.241L417.273,379.37L419.298,346.241L419.298,260Z" style="fill:rgb(90,177,214);"/>
            </g>
        </g>
        <g transform="matrix(0.476117,0,0,0.476117,624.011,181.67)">
            <path d="M223.332,607.535L223.332,554.378L263.058,554.378C263.058,546.966 269.076,540.948 276.488,540.948C283.901,540.948 289.919,546.966 289.919,554.378L316.214,554.378C316.214,546.966 322.232,540.948 329.645,540.948C337.057,540.948 343.075,546.966 343.075,554.378L382.802,554.378L382.802,607.535L223.332,607.535Z" style="fill:rgb(8,106,147);"/>
            <g transform="matrix(0.607079,0,0,0.196057,76.3273,521.515)">
                <path d="M419.227,240.571L417.273,207.565L415.177,240.571L415.247,362.305L417.273,395.433L419.298,362.305L419.227,240.571Z" style="fill:rgb(90,177,214);"/>
            </g>
            <g transform="matrix(0.607079,0,0,0.196057,23.1707,521.515)">
                <path d="M419.227,240.571L417.273,207.565L415.177,240.571L415.247,362.305L417.273,395.433L419.298,362.305L419.227,240.571Z" style="fill:rgb(90,177,214);"/>
            </g>
        </g>
        <g transform="matrix(0.476117,0,0,0.476117,624.011,233.892)">
            <path d="M223.332,415.899L223.332,309.586L263.058,309.586C263.058,302.203 269.029,296.203 276.402,296.156L276.488,296.156L276.575,296.156C283.948,296.203 289.919,302.203 289.919,309.586L316.214,309.586C316.214,302.174 322.232,296.156 329.645,296.156L329.732,296.156C337.104,296.203 343.075,302.203 343.075,309.586L382.802,309.586L382.802,415.899L223.332,415.899Z" style="fill:rgb(8,106,147);"/>
            <g transform="matrix(0.607079,0,0,0.225668,76.3273,267.746)">
                <path d="M419.298,260L417.343,226.994L415.247,260L415.247,346.241L417.273,379.37L419.298,346.241L419.298,260Z" style="fill:rgb(90,177,214);"/>
            </g>
            <g transform="matrix(0.607079,0,0,0.225668,23.1707,267.746)">
                <path d="M419.298,260L417.343,226.994L415.247,260L415.247,346.241L417.273,379.37L419.298,346.241L419.298,260Z" style="fill:rgb(90,177,214);"/>
            </g>
            <g transform="matrix(3.71729e-17,0.607079,-0.225668,1.38182e-17,318.328,109.425)">
                <path d="M419.298,260L417.343,226.994L415.247,260L415.247,346.241L417.273,379.37L419.298,346.241L419.298,260Z" style="fill:rgb(90,177,214);"/>
            </g>
            <g transform="matrix(3.71729e-17,0.607079,-0.225668,1.38182e-17,371.485,109.425)">
                <path d="M419.298,260L417.343,226.994L415.247,260L415.247,346.241L417.273,379.37L419.298,346.241L419.298,260Z" style="fill:rgb(90,177,214);"/>
            </g>
            <g transform="matrix(3.71729e-17,0.607079,-0.225668,1.38182e-17,424.642,109.425)">
                <path d="M419.298,260L417.343,226.994L415.247,260L415.247,346.241L417.273,379.37L419.298,346.241L419.298,260Z" style="fill:rgb(90,177,214);"/>
            </g>
            <g transform="matrix(0.607079,0,0,0.225668,23.1707,320.903)">
                <path d="M419.298,260L417.343,226.994L415.247,260L415.247,346.241L417.273,379.37L419.298,346.241L419.298,260Z" style="fill:rgb(90,177,214);"/>
            </g>
            <g transform="matrix(0.607079,0,0,0.225668,76.3273,320.903)">
                <path d="M419.298,260L417.343,226.994L415.247,260L415.247,346.241L417.273,379.37L419.298,346.241L419.298,260Z" style="fill:rgb(90,177,214);"/>
            </g>
        </g>
        <g transform="matrix(0.476117,0,0,0.476117,308.877,167.956)">
            <path d="M911.795,415.899L911.795,256.43L951.521,256.43C951.521,249.017 957.539,242.999 964.951,242.999C972.364,242.999 978.382,249.017 978.382,256.43L1018.11,256.43L1018.11,415.899L911.795,415.899Z" style="fill:rgb(8,106,147);"/>
            <g transform="matrix(0.607079,0,0,0.225668,711.634,267.746)">
                <path d="M419.298,260L417.343,226.994L415.247,260L415.247,346.241L417.273,379.37L419.298,346.241L419.298,260Z" style="fill:rgb(90,177,214);"/>
            </g>
            <g transform="matrix(0.607079,0,0,0.225668,711.634,214.753)">
                <path d="M419.298,260L417.343,226.994L415.247,260L415.247,346.241L417.273,379.37L419.298,346.241L419.298,260Z" style="fill:rgb(90,177,214);"/>
            </g>
            <g transform="matrix(3.71729e-17,0.607079,-0.225668,1.38182e-17,1006.18,109.425)">
                <path d="M419.298,260L417.343,226.994L415.247,260L415.247,346.241L417.273,379.37L419.298,346.241L419.298,260Z" style="fill:rgb(90,177,214);"/>
            </g>
            <g transform="matrix(3.71729e-17,0.607079,-0.225668,1.38182e-17,1007.41,56.2687)">
                <path d="M419.298,260L417.343,226.994L415.247,260L415.247,346.241L417.273,379.37L419.298,346.241L419.298,260Z" style="fill:rgb(90,177,214);"/>
            </g>
            <g transform="matrix(3.71729e-17,0.607079,-0.225668,1.38182e-17,1059.33,109.425)">
                <path d="M419.298,260L417.343,226.994L415.247,260L415.247,346.241L417.273,379.37L419.298,346.241L419.298,260Z" style="fill:rgb(90,177,214);"/>
            </g>
            <g transform="matrix(3.71729e-17,0.607079,-0.225668,1.38182e-17,1060.56,56.2687)">
                <path d="M419.298,260L417.343,226.994L415.247,260L415.247,346.241L417.273,379.37L419.298,346.241L419.298,260Z" style="fill:rgb(90,177,214);"/>
            </g>
            <g transform="matrix(0.607079,0,0,0.225668,711.634,322.047)">
                <path d="M419.298,260L417.343,226.994L415.247,260L415.247,346.241L417.273,379.37L419.298,346.241L419.298,260Z" style="fill:rgb(90,177,214);"/>
            </g>
        </g>
        <g transform="matrix(0.476117,0,0,0.476117,320.426,313.549)">
            <path d="M1193.05,362.743C1193.05,355.33 1199.07,349.312 1206.48,349.312C1213.89,349.312 1219.91,355.33 1219.91,362.743L1233.06,362.743L1233.06,415.899L1193.81,415.899C1193.81,408.487 1187.79,402.469 1180.38,402.469C1180.22,402.469 1180.06,402.472 1179.9,402.477L1179.9,402.469C1172.49,402.469 1166.47,408.487 1166.47,415.899L1126.74,415.899L1126.74,362.743L1139.42,362.743C1139.42,355.33 1145.43,349.312 1152.85,349.312C1160.26,349.312 1166.28,355.33 1166.28,362.743L1193.05,362.743Z" style="fill:rgb(8,106,147);"/>
            <g transform="matrix(0.607079,0,0,0.197013,926.582,322.875)">
                <path d="M419.298,260L417.343,226.994L415.247,260L415.247,346.241L417.273,379.37L419.298,346.241L419.298,260Z" style="fill:rgb(90,177,214);"/>
            </g>
        </g>
        <g>
            <g transform="matrix(0.722919,0,0,1.55783,268.18,-178.044)">
                <path d="M1087.96,279.231C1087.96,276.48 1083.15,274.247 1077.22,274.247L929.941,274.247C924.013,274.247 919.201,276.48 919.201,279.231L919.201,438.022C919.201,440.773 924.013,443.007 929.941,443.007L1077.22,443.007C1083.15,443.007 1087.96,440.773 1087.96,438.022L1087.96,279.231Z" style="fill:rgb(255,212,138);"/>
            </g>
            <g transform="matrix(0.782826,0,0,0.766577,101.595,105.349)">
                <rect x="1074.92" y="196.174" width="129.32" height="107.387" style="fill:none;"/>
            </g>
            <g transform="matrix(0.782826,0,0,0.766577,101.595,187.67)">
                <rect x="1074.92" y="196.174" width="129.32" height="107.387" style="fill:none;"/>
            </g>
            <g transform="matrix(0.782826,0,0,0.766577,101.595,269.99)">
                <rect x="1074.92" y="196.174" width="129.32" height="107.387" style="fill:none;"/>
            </g>
        </g>
        <g transform="matrix(1,0,0,1,-21.3705,0)">
            <g transform="matrix(0.722919,0,0,1.55783,422.539,-178.044)">
                <path d="M1087.96,279.231C1087.96,276.48 1083.15,274.247 1077.22,274.247L929.941,274.247C924.013,274.247 919.201,276.48 919.201,279.231L919.201,438.022C919.201,440.773 924.013,443.007 929.941,443.007L1077.22,443.007C1083.15,443.007 1087.96,440.773 1087.96,438.022L1087.96,279.231Z" style="fill:rgb(255,212,138);"/>
            </g>
            <g transform="matrix(0.782826,0,0,0.766577,255.954,105.349)">
                <rect x="1074.92" y="196.174" width="129.32" height="107.387" style="fill:none;"/>
            </g>
            <g transform="matrix(0.782826,0,0,0.766577,255.954,187.67)">
                <rect x="1074.92" y="196.174" width="129.32" height="107.387" style="fill:none;"/>
            </g>
            <g transform="matrix(0.782826,0,0,0.766577,255.954,269.99)">
                <rect x="1074.92" y="196.174" width="129.32" height="107.387" style="fill:none;"/>
            </g>
        </g>
        <g transform="matrix(1,0,0,1,-26.899,0)">
            <g transform="matrix(0.722919,0,0,1.55783,561.055,-178.044)">
                <path d="M1087.96,279.231C1087.96,276.48 1083.15,274.247 1077.22,274.247L929.941,274.247C924.013,274.247 919.201,276.48 919.201,279.231L919.201,438.022C919.201,440.773 924.013,443.007 929.941,443.007L1077.22,443.007C1083.15,443.007 1087.96,440.773 1087.96,438.022L1087.96,279.231Z" style="fill:rgb(255,212,138);"/>
            </g>
            <g transform="matrix(0.782826,0,0,0.766577,394.47,105.349)">
                <rect x="1074.92" y="196.174" width="129.32" height="107.387" style="fill:none;"/>
            </g>
            <g transform="matrix(0.782826,0,0,0.766577,394.47,187.67)">
                <rect x="1074.92" y="196.174" width="129.32" height="107.387" style="fill:none;"/>
            </g>
            <g transform="matrix(0.782826,0,0,0.766577,394.47,269.99)">
                <rect x="1074.92" y="196.174" width="129.32" height="107.387" style="fill:none;"/>
            </g>
        </g>
    </g>
</svg>
