<?xml version="1.0" encoding="UTF-8" standalone="no"?>
<svg
   width="121.99908"
   height="262.89938"
   viewBox="0 0 121.99908 262.89938"
   version="1.1"
   xml:space="preserve"
   style="clip-rule:evenodd;fill-rule:evenodd;stroke-linejoin:round;stroke-miterlimit:2"
   id="svg81"
   sodipodi:docname="2023-AU-05_example.svg"
   inkscape:version="1.1.1 (3bf5ae0d25, 2021-09-20)"
   xmlns:inkscape="http://www.inkscape.org/namespaces/inkscape"
   xmlns:sodipodi="http://sodipodi.sourceforge.net/DTD/sodipodi-0.dtd"
   xmlns="http://www.w3.org/2000/svg"
   xmlns:svg="http://www.w3.org/2000/svg"><defs
   id="defs85">
        
        
        
        
        
        
        
        
        
        
    
            
            
            
        </defs><sodipodi:namedview
   id="namedview83"
   pagecolor="#ffffff"
   bordercolor="#666666"
   borderopacity="1.0"
   inkscape:pageshadow="2"
   inkscape:pageopacity="0.0"
   inkscape:pagecheckerboard="0"
   showgrid="false"
   inkscape:zoom="2.0548103"
   inkscape:cx="205.61509"
   inkscape:cy="16.789871"
   inkscape:window-width="1920"
   inkscape:window-height="1001"
   inkscape:window-x="-9"
   inkscape:window-y="-9"
   inkscape:window-maximized="1"
   inkscape:current-layer="svg81" />
    <g
   id="g241"
   style="clip-rule:evenodd;fill-rule:evenodd;stroke-linejoin:round;stroke-miterlimit:2"
   transform="translate(-932.68787,-249.1862)"><g
     transform="matrix(0.722919,0,0,1.55783,268.18,-178.044)"
     id="g227"><path
       d="m 1087.96,279.231 c 0,-2.751 -4.81,-4.984 -10.74,-4.984 H 929.941 c -5.928,0 -10.74,2.233 -10.74,4.984 v 158.791 c 0,2.751 4.812,4.985 10.74,4.985 h 147.279 c 5.93,0 10.74,-2.234 10.74,-4.985 z"
       style="fill:#ffd48a"
       id="path225" /></g><g
     transform="matrix(0.782826,0,0,0.766577,101.595,105.349)"
     id="g231"><rect
       x="1074.92"
       y="196.174"
       width="129.32001"
       height="107.387"
       style="fill:none"
       id="rect229" /></g><g
     transform="matrix(0.782826,0,0,0.766577,101.595,187.67)"
     id="g235"><rect
       x="1074.92"
       y="196.174"
       width="129.32001"
       height="107.387"
       style="fill:none"
       id="rect233" /></g><g
     transform="matrix(0.782826,0,0,0.766577,101.595,269.99)"
     id="g239"><rect
       x="1074.92"
       y="196.174"
       width="129.32001"
       height="107.387"
       style="fill:none"
       id="rect237" /></g></g><g
   transform="matrix(0.476117,0,0,0.476117,-634.84736,-279.9461)"
   id="g46">
                <g
   transform="translate(281.607,305.569)"
   id="g36">
                    <path
   id="path34"
   style="fill:#086a93;stroke-width:0.476117"
   d="m 60.998047,31.853516 c -3.52898,0 -6.394531,2.865076 -6.394531,6.394531 h -18.91211 -0.002 v 5.925781 h 0.002 v 19.382813 h 6.03711 c 0,-3.529455 2.859798,-6.394532 6.392578,-6.394532 3.52803,0 6.394531,2.865077 6.394531,6.394532 h 12.744141 c 0,-3.529455 2.866501,-6.394532 6.394531,-6.394532 3.52802,0 6.394531,2.865077 6.394531,6.394532 h 6.259766 V 44.173828 38.248047 H 67.392578 c 0,-3.529455 -2.865081,-6.394531 -6.394531,-6.394531 z"
   transform="matrix(2.1003241,0,0,2.1003241,1051.7782,282.40853)" />
                </g>
                <g
   transform="translate(282.083,305.569)"
   id="g40">
                    
                </g>
                <g
   transform="matrix(0.607079,0,0,0.197013,1208.19,628.444)"
   id="g44">
                    <path
   d="M 419.298,260 417.343,226.994 415.247,260 v 86.241 l 2.026,33.129 2.025,-33.129 z"
   style="fill:#5ab1d6"
   id="path42" />
                </g>
            </g><g
   transform="matrix(0.476117,0,0,0.476117,-641.75581,-226.25687)"
   id="g66">
                <path
   d="m 1529.17,801.294 h -39.25 c 0,-7.413 -6.02,-13.431 -13.43,-13.431 -0.16,0 -0.32,0.003 -0.47,0.008 v -0.008 c -7.41,0 -13.43,6.018 -13.43,13.431 h -39.73 V 695.327 h 106.31 z"
   style="fill:#086a93"
   id="path48" />
                <g
   transform="matrix(0.607079,0,0,0.225668,1222.7,655.572)"
   id="g52">
                    <path
   d="M 419.298,260 417.343,226.994 415.247,260 v 86.241 l 2.026,33.129 2.025,-33.129 z"
   style="fill:#5ab1d6"
   id="path50" />
                </g>
                <g
   transform="matrix(0.607079,0,0,0.197013,1222.7,710.447)"
   id="g56">
                    <path
   d="M 419.298,260 417.343,226.994 415.247,260 v 66.416 l 2.026,33.128 2.025,-33.128 z"
   style="fill:#5ab1d6"
   id="path54" />
                </g>
                <g
   transform="matrix(0,0.607079,-0.225668,0,1517.86,493.904)"
   id="g60">
                    <path
   d="M 419.298,260 417.343,226.994 415.247,260 v 86.241 l 2.026,33.129 2.025,-33.129 z"
   style="fill:#5ab1d6"
   id="path58" />
                </g>
                <g
   transform="matrix(0,0.607079,-0.225668,0,1571.01,493.904)"
   id="g64">
                    <path
   d="M 419.298,260 417.343,226.994 415.247,260 v 86.241 l 2.026,33.129 2.025,-33.129 z"
   style="fill:#5ab1d6"
   id="path62" />
                </g>
            </g><g
   transform="matrix(0.476117,0,0,0.476117,-802.80477,-83.831154)"
   id="g32"
   style="clip-rule:evenodd;fill-rule:evenodd;stroke-linejoin:round;stroke-miterlimit:2"><path
     d="M 1867.43,708.478 H 1761.11 V 549.091 h 12.68 c 0,-7.413 6.01,-13.431 13.43,-13.431 7.41,0 13.43,6.018 13.43,13.431 h 26.77 c 0,-7.413 6.02,-13.431 13.43,-13.431 7.41,0 13.43,6.018 13.43,13.431 h 13.15 z"
     style="fill:#086a93"
     id="path2" /><g
     transform="matrix(0.607079,0,0,0.197013,1560.95,509.223)"
     id="g6"><path
       d="M 419.298,260 417.343,226.994 415.247,260 v 86.241 l 2.026,33.129 2.025,-33.129 z"
       style="fill:#5ab1d6"
       id="path4" /></g><g
     transform="matrix(0.607079,0,0,0.225668,1560.95,560.325)"
     id="g10"><path
       d="M 419.298,260 417.343,226.994 415.247,260 v 86.241 l 2.026,33.129 2.025,-33.129 z"
       style="fill:#5ab1d6"
       id="path8" /></g><g
     transform="matrix(0,0.607079,-0.225668,0,1855.49,402.004)"
     id="g14"><path
       d="M 419.298,260 417.343,226.994 415.247,260 v 86.241 l 2.026,33.129 2.025,-33.129 z"
       style="fill:#5ab1d6"
       id="path12" /></g><g
     transform="matrix(0,0.607079,-0.225668,0,1856.72,348.847)"
     id="g18"><path
       d="M 419.298,260 417.343,226.994 415.247,260 v 86.241 l 2.026,33.129 2.025,-33.129 z"
       style="fill:#5ab1d6"
       id="path16" /></g><g
     transform="matrix(0,0.607079,-0.225668,0,1908.65,402.004)"
     id="g22"><path
       d="M 419.298,260 417.343,226.994 415.247,260 v 86.241 l 2.026,33.129 2.025,-33.129 z"
       style="fill:#5ab1d6"
       id="path20" /></g><g
     transform="matrix(0,0.607079,-0.225668,0,1909.88,348.847)"
     id="g26"><path
       d="M 419.298,260 417.343,226.994 415.247,260 v 86.241 l 2.026,33.129 2.025,-33.129 z"
       style="fill:#5ab1d6"
       id="path24" /></g><g
     transform="matrix(0.607079,0,0,0.225668,1560.95,614.626)"
     id="g30"><path
       d="M 419.298,260 417.343,226.994 415.247,260 v 86.241 l 2.026,33.129 2.025,-33.129 z"
       style="fill:#5ab1d6"
       id="path28" /></g></g><g
   id="g4974"
   transform="translate(-1185.3447,119.11906)">
        </g><g
   id="g4964"
   transform="translate(-1185.3447,119.11906)">
        </g><g
   id="g4223"
   transform="translate(-1185.3447,119.11906)">
        </g><g
   id="g4219"
   transform="translate(-1185.3447,119.11906)">
        </g><g
   id="g4213"
   transform="translate(-1185.3447,119.11906)">
        </g><g
   id="g4228"
   transform="translate(-1185.3447,119.11906)">
        </g><g
   id="g4203"
   transform="translate(-1185.3447,119.11906)">
        </g><g
   id="g4985"
   transform="translate(-1185.3447,119.11906)">
        </g><g
   id="g4979"
   transform="translate(-1185.3447,119.11906)">
        </g>
</svg>
