<?xml version="1.0" encoding="UTF-8" standalone="no"?>
<svg
   width="100%"
   height="100%"
   viewBox="0 0 680 535"
   version="1.1"
   xml:space="preserve"
   style="fill-rule:evenodd;clip-rule:evenodd;stroke-linejoin:round;stroke-miterlimit:2;"
   id="svg142"
   sodipodi:docname="2023-CH-01-A.svg"
   inkscape:version="1.1.1 (3bf5ae0d25, 2021-09-20)"
   xmlns:inkscape="http://www.inkscape.org/namespaces/inkscape"
   xmlns:sodipodi="http://sodipodi.sourceforge.net/DTD/sodipodi-0.dtd"
   xmlns="http://www.w3.org/2000/svg"
   xmlns:svg="http://www.w3.org/2000/svg"><defs
   id="defs146" /><sodipodi:namedview
   id="namedview144"
   pagecolor="#ffffff"
   bordercolor="#666666"
   borderopacity="1.0"
   inkscape:pageshadow="2"
   inkscape:pageopacity="0.0"
   inkscape:pagecheckerboard="0"
   showgrid="false"
   inkscape:zoom="0.95029865"
   inkscape:cx="326.73939"
   inkscape:cy="260.44444"
   inkscape:window-width="2048"
   inkscape:window-height="1017"
   inkscape:window-x="-8"
   inkscape:window-y="-8"
   inkscape:window-maximized="1"
   inkscape:current-layer="svg142" />
    <g
   transform="translate(-1389.4,-64.9171)"
   id="g140">
        <g
   id="g138">
            <g
   id="g52">
                <g
   transform="translate(40.9277,-237.354)"
   id="g4">
                    <path
   d="m 1672.92,629.543 c -2.89,-4.965 -0.93,21.872 -0.33,26.089 1.91,13.339 1.82,114.392 4.04,127.672 0.73,4.375 2.06,14.333 -0.43,18.487 -17.21,28.674 -19.1,-7.404 -22.79,-18.487 -1.32,-3.955 -12.75,2.123 -13.33,3.869 -9.67,29.003 3.26,40.096 30.96,44.713 12.99,2.165 20.57,-20.43 23.26,-29.862 6.05,-21.165 4.84,-134.677 2.42,-156.477 -0.59,-5.279 2.05,-15.148 -2.15,-19.347 -5.72,-5.722 -14.48,1.917 -20.69,1.917"
   style="fill:#959799"
   id="path2" />
                </g>
                <g
   transform="translate(40.9277,-237.354)"
   id="g8">
                    <path
   d="m 1667.73,337.467 c -0.23,0.012 -0.61,-8.146 -0.73,-9.012 -0.59,-4.132 -1.33,-25.601 7.74,-21.067 4.95,2.476 8.55,25.174 4.73,27.086 -1.66,0.829 -6.77,0 -8.6,0 -0.9,0 -3.44,0.9 -3.44,0.43"
   style="fill:#959799"
   id="path6" />
                </g>
                <g
   transform="translate(40.9277,-237.354)"
   id="g12">
                    <path
   d="m 1355.55,636.055 c 0,0 11.95,-66.93 19.97,-86.981 2.88,-7.216 7.83,-14.229 10.7,-21.399 20.5,-51.26 68.28,-107.395 114.43,-138.163 29.56,-19.703 61.03,-31.352 93.97,-42.333 11.32,-3.771 23.78,-7.634 35.82,-8.839 15.25,-1.525 61.29,-4.279 73.5,-3.721 86.2,3.932 189.85,59.45 247.72,129.896 60.12,73.19 72.81,161.317 72.81,161.317 -7.94,-8.37 -11.97,-17.623 -19.48,-21.947 -28.11,-16.175 -56.62,-2.446 -75.41,24.631 -5.05,7.29 -5.13,15.773 -9.78,25.227 -60.06,-46.587 -104.11,-24.033 -143.28,19.539 -71.59,-64.742 -127.72,-53.838 -176.78,-8.374 -59.13,-49.048 -105.15,-43.161 -141.9,1.643 -25.1,-50.18 -57.34,-65.299 -99.07,-33.741"
   style="fill:#cefffe;font-variation-settings:normal;opacity:1;vector-effect:none;fill-opacity:1;stroke-width:1;stroke-linecap:butt;stroke-linejoin:miter;stroke-miterlimit:2;stroke-dasharray:none;stroke-dashoffset:0;stroke-opacity:1;-inkscape-stroke:none;stop-color:#000000;stop-opacity:1"
   id="path10" />
                </g>
                <path
   d="m 1725.51,96.009 c 0.22,0.766 99.71,41.992 158.67,120.099 57.69,76.407 65.36,144.531 73.96,201.067 25.53,-59.597 70.26,-67.585 106.9,-34.081 0.6,-15.403 -35.75,-140.552 -118.52,-204.993 -83.07,-64.675 -141.28,-80.008 -221.01,-82.092 z"
   style="fill:#000344;font-variation-settings:normal;opacity:1;vector-effect:none;fill-opacity:1;stroke-width:1;stroke-linecap:butt;stroke-linejoin:miter;stroke-miterlimit:2;stroke-dasharray:none;stroke-dashoffset:0;stroke-opacity:1;-inkscape-stroke:none;stop-color:#000000;stop-opacity:1"
   id="path14" />
                <g
   transform="translate(40.9277,-237.354)"
   id="g50">
                    <g
   id="g30">
                        <path
   d="m 1354.45,643.366 c 24.88,-166.751 124.31,-263.542 239.68,-295.387 173.05,-47.766 381.68,50.484 427.47,277.077 0.32,1.578 1.86,2.6 3.44,2.281 1.58,-0.319 2.6,-1.858 2.28,-3.436 -46.56,-230.388 -258.79,-330.111 -434.74,-281.545 -117.3,32.377 -218.6,130.612 -243.9,300.149 -0.24,1.592 0.86,3.077 2.46,3.315 1.59,0.237 3.07,-0.862 3.31,-2.454 z"
   style="fill:#000344;font-variation-settings:normal;opacity:1;vector-effect:none;fill-opacity:1;stroke-width:1;stroke-linecap:butt;stroke-linejoin:miter;stroke-miterlimit:2;stroke-dasharray:none;stroke-dashoffset:0;stroke-opacity:1;-inkscape-stroke:none;stop-color:#000000;stop-opacity:1"
   id="path16" />
                        <path
   d="m 1592.37,675.605 c 10.18,-22.291 33.93,-37.816 61.99,-44.055 42.54,-9.456 95.12,2.443 126.83,45.239 0.96,1.293 2.79,1.565 4.08,0.607 1.29,-0.959 1.56,-2.787 0.61,-4.08 -33.21,-44.815 -88.24,-57.362 -132.78,-47.46 -29.98,6.665 -55.16,23.513 -66.04,47.326 -0.67,1.464 -0.02,3.196 1.44,3.864 1.47,0.669 3.2,0.024 3.87,-1.441 z"
   style="fill:#000344;font-variation-settings:normal;opacity:1;vector-effect:none;fill-opacity:1;stroke-width:1;stroke-linecap:butt;stroke-linejoin:miter;stroke-miterlimit:2;stroke-dasharray:none;stroke-dashoffset:0;stroke-opacity:1;-inkscape-stroke:none;stop-color:#000000;stop-opacity:1"
   id="path18" />
                        <path
   d="m 1788.38,672.128 c 13.89,-35.625 55.49,-46.424 87.27,-40.714 20.54,3.69 37.23,14.16 38.68,30.029 0.15,1.603 1.57,2.786 3.17,2.639 1.61,-0.146 2.79,-1.567 2.64,-3.17 -1.66,-18.131 -19.99,-31.023 -43.46,-35.239 -34.21,-6.148 -78.78,5.976 -93.74,44.335 -0.58,1.5 0.16,3.192 1.66,3.777 1.5,0.585 3.19,-0.157 3.78,-1.657 z"
   style="fill:#000344;font-variation-settings:normal;opacity:1;vector-effect:none;fill-opacity:1;stroke-width:1;stroke-linecap:butt;stroke-linejoin:miter;stroke-miterlimit:2;stroke-dasharray:none;stroke-dashoffset:0;stroke-opacity:1;-inkscape-stroke:none;stop-color:#000000;stop-opacity:1"
   id="path20" />
                        <g
   transform="translate(-326.847,13.8418)"
   id="g24">
                            <path
   d="m 1786.01,654.525 c 17.82,-34.806 57.15,-41.222 87.92,-31.281 20.3,6.558 37,20.216 41.02,37.888 0.36,1.569 1.92,2.554 3.49,2.197 1.57,-0.357 2.56,-1.921 2.2,-3.491 -4.43,-19.492 -22.53,-34.912 -44.92,-42.145 -33.25,-10.745 -75.64,-3.449 -94.91,34.173 -0.73,1.433 -0.16,3.192 1.27,3.926 1.43,0.733 3.19,0.166 3.93,-1.267 z"
   style="fill:#000344;font-variation-settings:normal;opacity:1;vector-effect:none;fill-opacity:1;stroke-width:1;stroke-linecap:butt;stroke-linejoin:miter;stroke-miterlimit:2;stroke-dasharray:none;stroke-dashoffset:0;stroke-opacity:1;-inkscape-stroke:none;stop-color:#000000;stop-opacity:1"
   id="path22" />
                        </g>
                        <path
   d="m 1354.13,644.703 c 10.41,-28.373 48.73,-37.481 74.87,-17.538 11.4,8.698 20.46,22.909 24.12,43.374 0.29,1.585 1.8,2.641 3.39,2.357 1.58,-0.283 2.64,-1.8 2.36,-3.384 -3.98,-22.208 -13.96,-37.546 -26.33,-46.984 -29.33,-22.376 -72.21,-11.667 -83.89,20.166 -0.55,1.511 0.23,3.188 1.74,3.743 1.51,0.554 3.19,-0.222 3.74,-1.734 z"
   style="fill:#000344;font-variation-settings:normal;opacity:1;vector-effect:none;fill-opacity:1;stroke-width:1;stroke-linecap:butt;stroke-linejoin:miter;stroke-miterlimit:2;stroke-dasharray:none;stroke-dashoffset:0;stroke-opacity:1;-inkscape-stroke:none;stop-color:#000000;stop-opacity:1"
   id="path26" />
                        <path
   d="m 1920.86,658.898 c 2.6,-34.386 33.08,-56.513 60.62,-57.919 17.9,-0.914 34.59,7.102 41.07,26.644 0.51,1.528 2.16,2.357 3.69,1.85 1.53,-0.507 2.36,-2.159 1.85,-3.687 -7.42,-22.362 -26.42,-31.679 -46.91,-30.633 -30.07,1.535 -63.3,25.756 -66.14,63.305 -0.12,1.605 1.09,3.007 2.69,3.128 1.61,0.122 3.01,-1.083 3.13,-2.688 z"
   style="fill:#000344;font-variation-settings:normal;opacity:1;vector-effect:none;fill-opacity:1;stroke-width:1;stroke-linecap:butt;stroke-linejoin:miter;stroke-miterlimit:2;stroke-dasharray:none;stroke-dashoffset:0;stroke-opacity:1;-inkscape-stroke:none;stop-color:#000000;stop-opacity:1"
   id="path28" />
                    </g>
                    <path
   d="m 1669.96,332.927 c -0.05,-1.142 -0.31,-7.809 -0.31,-9.008 0,-3.101 -0.49,-6.783 -0.21,-10.063 0.19,-2.297 0.69,-4.427 2.78,-5.471 0.38,-0.19 0.69,-0.33 0.99,-0.273 0.48,0.094 0.72,0.609 1.03,1.156 0.45,0.822 0.81,1.841 1.11,2.975 1.79,6.698 1.49,16.943 1.49,20.05 0,1.609 1.3,2.916 2.92,2.916 1.61,0 2.91,-1.307 2.91,-2.916 0,-3.965 0.24,-18.533 -2.99,-25.194 -1.23,-2.534 -2.98,-4.121 -5.02,-4.638 -1.45,-0.367 -3.13,-0.25 -5.05,0.707 -3.31,1.656 -4.97,4.483 -5.66,7.906 -0.81,3.964 -0.14,8.854 -0.14,12.845 0,1.469 0.17,8.951 0.42,10.271 0.31,1.594 1.37,2.128 1.7,2.282 0.97,0.454 1.97,0.435 2.96,-0.283 1.05,-0.76 1.45,-2.091 1.07,-3.262 z m -1.98,-1.904 c -0.78,-0.253 -1.58,-0.177 -2.37,0.349 0.72,-0.468 1.59,-0.573 2.37,-0.349 z"
   style="fill:#000344;font-variation-settings:normal;opacity:1;vector-effect:none;fill-opacity:1;stroke-width:1;stroke-linecap:butt;stroke-linejoin:miter;stroke-miterlimit:2;stroke-dasharray:none;stroke-dashoffset:0;stroke-opacity:1;-inkscape-stroke:none;stop-color:#000000;stop-opacity:1"
   id="path32" />
                    <path
   d="m 1593.53,669.419 c 2.34,-150.967 32.95,-280.919 79.88,-333.247 0.54,-0.599 0.49,-1.522 -0.11,-2.059 -0.6,-0.537 -1.52,-0.487 -2.06,0.112 -47.21,52.636 -78.27,183.29 -80.63,335.148 -0.01,0.805 0.64,1.469 1.44,1.481 0.8,0.013 1.47,-0.631 1.48,-1.435 z"
   style="fill:#000344;font-variation-settings:normal;opacity:1;vector-effect:none;fill-opacity:1;stroke-width:1;stroke-linecap:butt;stroke-linejoin:miter;stroke-miterlimit:2;stroke-dasharray:none;stroke-dashoffset:0;stroke-opacity:1;-inkscape-stroke:none;stop-color:#000000;stop-opacity:1"
   id="path34" />
                    <path
   d="m 1457.18,666.336 c 3.59,-126.479 61.61,-285.093 214.58,-331.754 0.77,-0.235 1.21,-1.051 0.97,-1.82 -0.23,-0.77 -1.05,-1.205 -1.82,-0.97 -154.29,47.062 -213.02,206.896 -216.65,334.461 -0.02,0.804 0.61,1.476 1.42,1.499 0.8,0.023 1.47,-0.612 1.5,-1.416 z"
   style="fill:#000344;font-variation-settings:normal;opacity:1;vector-effect:none;fill-opacity:1;stroke-width:1;stroke-linecap:butt;stroke-linejoin:miter;stroke-miterlimit:2;stroke-dasharray:none;stroke-dashoffset:0;stroke-opacity:1;-inkscape-stroke:none;stop-color:#000000;stop-opacity:1"
   id="path36" />
                    <path
   d="m 1785.94,672.008 c -0.83,-56.719 -16.85,-150.924 -43.62,-227.119 -17.92,-51.039 -40.73,-93.985 -66.92,-112.419 -0.65,-0.463 -1.56,-0.305 -2.03,0.353 -0.46,0.658 -0.3,1.568 0.36,2.032 25.83,18.185 48.16,60.651 65.84,111 26.66,75.887 42.63,169.707 43.46,226.196 0.01,0.805 0.67,1.449 1.48,1.437 0.8,-0.012 1.44,-0.675 1.43,-1.48 z"
   style="fill:#000344;font-variation-settings:normal;opacity:1;vector-effect:none;fill-opacity:1;stroke-width:1;stroke-linecap:butt;stroke-linejoin:miter;stroke-miterlimit:2;stroke-dasharray:none;stroke-dashoffset:0;stroke-opacity:1;-inkscape-stroke:none;stop-color:#000000;stop-opacity:1"
   id="path38" />
                    <path
   d="m 1920.23,660.817 c -8.69,-131.698 -97.09,-289.651 -238.96,-327.097 -0.78,-0.206 -1.58,0.259 -1.78,1.038 -0.21,0.778 0.26,1.576 1.03,1.782 140.68,37.132 228.18,193.877 236.8,324.469 0.06,0.803 0.75,1.412 1.56,1.359 0.8,-0.053 1.41,-0.748 1.35,-1.551 z"
   style="fill:#000344;font-variation-settings:normal;opacity:1;vector-effect:none;fill-opacity:1;stroke-width:1;stroke-linecap:butt;stroke-linejoin:miter;stroke-miterlimit:2;stroke-dasharray:none;stroke-dashoffset:0;stroke-opacity:1;-inkscape-stroke:none;stop-color:#000000;stop-opacity:1"
   id="path40" />
                    <path
   d="m 1647.79,779.874 c -5.13,-2.334 -9.33,0.135 -11.8,2.601 -0.63,0.633 -1.35,2.046 -1.81,3.904 -0.71,2.868 -1.14,7.057 -1.34,8.446 -1.62,11.339 -0.97,18.753 1.61,24.048 2.06,4.234 5.32,7.236 9.87,9.719 4.09,2.234 9.29,4.059 15.61,6.163 1.26,0.421 5.31,1.444 8.26,1.706 1.85,0.166 3.39,-0.067 4.2,-0.469 19.36,-9.68 26.22,-28.649 27.78,-50.272 1.71,-23.586 -2.61,-137.985 -2.61,-158.028 0,-1.609 -1.31,-2.916 -2.92,-2.916 -1.61,0 -2.91,1.307 -2.91,2.916 0,19.989 4.33,134.083 2.63,157.607 -1.41,19.381 -7.11,36.626 -24.37,45.371 -0.3,-0.003 -1.5,-0.025 -2.35,-0.144 -2.3,-0.328 -4.95,-1 -5.87,-1.305 -5.92,-1.974 -10.81,-3.653 -14.65,-5.749 -3.39,-1.847 -5.89,-4.001 -7.43,-7.15 -2.21,-4.548 -2.47,-10.933 -1.07,-20.672 0.16,-1.123 0.47,-4.19 0.97,-6.747 0.19,-0.913 0.59,-2.166 0.68,-2.455 1.16,-1.11 3.02,-2.312 5.32,-1.162 0.59,0.296 1.58,0.5 2.8,0.413 0.59,-0.042 1.55,-0.144 2.37,-0.237 0.03,3.91 0.3,13.858 2.05,19.769 1.28,4.328 3.58,7.516 6.85,8.615 2.23,0.749 5.04,0.634 8.54,-1.114 5.87,-2.934 8.55,-7.83 9.7,-13.488 1,-4.972 0.75,-10.565 0.75,-15.637 0,-22.97 -2.05,-133.847 -1.09,-156.974 0.07,-1.608 -1.18,-2.968 -2.79,-3.035 -1.61,-0.068 -2.97,1.184 -3.04,2.792 -0.96,23.163 1.09,134.211 1.09,157.217 0,4.696 0.29,9.877 -0.64,14.481 -0.79,3.917 -2.53,7.396 -6.59,9.427 -1.68,0.843 -3,1.162 -4.07,0.801 -1.69,-0.566 -2.46,-2.509 -3.12,-4.739 -1.88,-6.341 -1.48,-15.422 -1.73,-19.259 -0.08,-1.247 -0.28,-2.141 -0.47,-2.603 -0.21,-0.497 -0.48,-0.849 -0.73,-1.1 -0.68,-0.682 -2.04,-1.243 -3.81,-1.155 -1.11,0.056 -3.31,0.34 -3.87,0.414 z"
   style="fill:#000344;font-variation-settings:normal;opacity:1;vector-effect:none;fill-opacity:1;stroke-width:1;stroke-linecap:butt;stroke-linejoin:miter;stroke-miterlimit:2;stroke-dasharray:none;stroke-dashoffset:0;stroke-opacity:1;-inkscape-stroke:none;stop-color:#000000;stop-opacity:1"
   id="path42" />
                    <path
   d="m 1640.28,790.249 c 1.13,-1.429 2.76,-1.449 4.48,-1.345 2.36,0.144 4.9,0.591 7.17,0.024 0.78,-0.195 1.26,-0.987 1.06,-1.768 -0.19,-0.781 -0.99,-1.256 -1.77,-1.061 -1.98,0.497 -4.21,0.02 -6.28,-0.106 -2.71,-0.165 -5.17,0.197 -6.95,2.446 -0.5,0.631 -0.39,1.549 0.24,2.048 0.63,0.5 1.55,0.393 2.05,-0.238 z"
   style="fill:#000344;font-variation-settings:normal;opacity:1;vector-effect:none;fill-opacity:1;stroke-width:1;stroke-linecap:butt;stroke-linejoin:miter;stroke-miterlimit:2;stroke-dasharray:none;stroke-dashoffset:0;stroke-opacity:1;-inkscape-stroke:none;stop-color:#000000;stop-opacity:1"
   id="path44" />
                    <path
   d="m 1680.54,761.683 c 5.65,0.003 11.04,1.396 16.88,1.396 0.8,0 1.46,-0.654 1.46,-1.458 0,-0.805 -0.66,-1.459 -1.46,-1.459 -5.84,0 -11.23,-1.392 -16.88,-1.396 -0.8,0 -1.45,0.653 -1.45,1.458 0,0.805 0.65,1.459 1.45,1.459 z"
   style="fill:#000344;font-variation-settings:normal;opacity:1;vector-effect:none;fill-opacity:1;stroke-width:1;stroke-linecap:butt;stroke-linejoin:miter;stroke-miterlimit:2;stroke-dasharray:none;stroke-dashoffset:0;stroke-opacity:1;-inkscape-stroke:none;stop-color:#000000;stop-opacity:1"
   id="path46" />
                    <path
   d="m 1679.52,770.483 c 0.12,-0.057 0.4,-0.185 0.63,-0.252 0.5,-0.147 1.12,-0.263 1.82,-0.36 4.45,-0.616 11.78,-0.362 13.57,-0.362 0.81,0 1.46,-0.654 1.46,-1.458 0,-0.805 -0.65,-1.459 -1.46,-1.459 -2.13,0 -11.76,-0.304 -15.87,0.747 -0.81,0.207 -1.45,0.478 -1.87,0.774 -0.54,0.373 -0.84,0.824 -0.97,1.281 -0.23,0.773 0.22,1.583 0.99,1.808 0.68,0.196 1.38,-0.119 1.7,-0.719 z"
   style="fill:#000344;font-variation-settings:normal;opacity:1;vector-effect:none;fill-opacity:1;stroke-width:1;stroke-linecap:butt;stroke-linejoin:miter;stroke-miterlimit:2;stroke-dasharray:none;stroke-dashoffset:0;stroke-opacity:1;-inkscape-stroke:none;stop-color:#000000;stop-opacity:1"
   id="path48" />
                </g>
            </g>
            <g
   transform="matrix(0.932668,-0.105245,0.246912,2.18809,35.6339,-243.322)"
   id="g56">
                <path
   d="m 1857.7,354.492 c -0.91,-1.824 -6.35,-9.328 -17.98,-6.446 -10.32,2.558 -13.29,18.906 -1.08,25.013 10.86,5.427 25.16,-6.367 19.06,-18.567 z"
   style="fill:#000344;font-variation-settings:normal;opacity:1;vector-effect:none;fill-opacity:1;stroke-width:0.69559469;stroke-linecap:butt;stroke-linejoin:miter;stroke-miterlimit:2;stroke-dasharray:none;stroke-dashoffset:0;stroke-opacity:1;-inkscape-stroke:none;stop-color:#000000;stop-opacity:1"
   id="path54" />
            </g>
            <g
   transform="matrix(0.997929,-0.0643257,0.128523,1.99387,-49.5724,-250.834)"
   id="g60">
                <path
   d="m 1886.04,339.835 c -5.19,0.503 -7.63,1.075 -10.75,7.328 -5.21,10.409 4.97,22.067 15.14,20.033 16.29,-3.258 10.25,-27.361 -4.39,-27.361 z"
   style="fill:#000344;font-variation-settings:normal;opacity:1;vector-effect:none;fill-opacity:1;stroke-width:0.70745918;stroke-linecap:butt;stroke-linejoin:miter;stroke-miterlimit:2;stroke-dasharray:none;stroke-dashoffset:0;stroke-opacity:1;-inkscape-stroke:none;stop-color:#000000;stop-opacity:1"
   id="path58" />
            </g>
            <g
   transform="matrix(0.984352,-0.176211,0.346926,1.93801,-92.465,1.51247)"
   id="g64">
                <path
   d="m 1922.7,329.419 c -16.72,-5.751 -25.15,21.53 -6.86,27.516 7.5,2.455 21.91,-6.986 17.1,-16.612 -1.53,-3.068 -2.89,-8.378 -10.24,-10.904 z"
   style="fill:#000344;font-variation-settings:normal;opacity:1;vector-effect:none;fill-opacity:1;stroke-width:0.71268466;stroke-linecap:butt;stroke-linejoin:miter;stroke-miterlimit:2;stroke-dasharray:none;stroke-dashoffset:0;stroke-opacity:1;-inkscape-stroke:none;stop-color:#000000;stop-opacity:1"
   id="path62" />
            </g>
            <g
   transform="matrix(1.3075,0,0,1.31603,-561.614,-92.9075)"
   id="g68">
                <path
   d="m 1824.03,286.036 c 9.35,5.485 12.72,1.055 15.8,-0.972 7.78,-5.112 -1.07,-27.414 -9.77,-33.078 -16.83,-10.955 -13.75,29.52 -6.03,34.05 z"
   style="fill:#000344;font-variation-settings:normal;opacity:1;vector-effect:none;fill-opacity:1;stroke-width:0.7623357;stroke-linecap:butt;stroke-linejoin:miter;stroke-miterlimit:2;stroke-dasharray:none;stroke-dashoffset:0;stroke-opacity:1;-inkscape-stroke:none;stop-color:#000000;stop-opacity:1"
   id="path66" />
            </g>
            <g
   transform="matrix(1.10477,-0.224748,0.31507,1.54876,-276.95,276.458)"
   id="g72">
                <path
   d="m 1885.16,254.769 c -0.78,-3.131 -7.94,-16.445 -12.8,-17.255 -24.66,-4.111 -10.11,43.766 8.91,29.501 3.96,-2.972 5.11,-7.393 3.89,-12.246 z"
   style="fill:#000344;font-variation-settings:normal;opacity:1;vector-effect:none;fill-opacity:1;stroke-width:0.74914565;stroke-linecap:butt;stroke-linejoin:miter;stroke-miterlimit:2;stroke-dasharray:none;stroke-dashoffset:0;stroke-opacity:1;-inkscape-stroke:none;stop-color:#000000;stop-opacity:1"
   id="path70" />
            </g>
            <g
   transform="matrix(1.16721,0,0,1.37976,-304.254,-72.3195)"
   id="g76">
                <path
   d="m 1811.86,171.354 c -7.53,-10.195 -24.85,-7.877 -19.65,7.713 3.92,11.783 14.99,28.315 30.2,15.662 7.09,-5.903 -3.21,-18.006 -10.55,-23.375 z"
   style="fill:#000344;font-variation-settings:normal;opacity:1;vector-effect:none;fill-opacity:1;stroke-width:0.78799548;stroke-linecap:butt;stroke-linejoin:miter;stroke-miterlimit:2;stroke-dasharray:none;stroke-dashoffset:0;stroke-opacity:1;-inkscape-stroke:none;stop-color:#000000;stop-opacity:1"
   id="path74" />
            </g>
            <path
   d="m 1677.03,360.893 c 0.39,-0.043 2.14,-0.244 2.98,-0.505 1.3,-0.408 2.28,-1.178 2.84,-2.299 1.4,-2.796 0.99,-4.785 0.23,-6.597 -0.2,-0.486 -0.44,-0.953 -0.65,-1.428 -0.14,-0.3 -0.3,-0.594 -0.3,-0.947 0,-1.609 -1.3,-2.916 -2.91,-2.916 -1.61,0 -2.92,1.307 -2.92,2.916 0,1.228 0.34,2.309 0.82,3.352 0.32,0.728 0.95,1.397 0.73,2.405 -0.52,0.067 -1.42,0.186 -1.89,0.276 -0.78,0.147 -1.44,0.408 -1.94,0.741 -1.89,1.259 -3.46,2.036 -4.78,2.377 -0.79,0.204 -1.41,0.264 -1.91,0.05 -0.97,-0.42 -1.17,-1.636 -1.32,-2.91 -0.37,-2.934 0.34,-6.563 1.37,-8.799 0.33,-0.221 1.5,-1.004 2.56,-1.533 4.5,-2.252 12.29,-4.998 18.06,-5.762 1.25,-0.166 2.4,-0.239 3.37,-0.162 0.41,0.032 0.98,0.185 1.19,0.246 2.19,4.566 1.49,9.305 0.65,14.352 -0.39,2.349 -0.19,4.867 -0.05,7.361 0.11,1.894 0.22,3.774 -0.35,5.486 -0.26,0.761 -1.05,1.313 -1.99,1.899 -1.46,0.903 -3.35,1.668 -5.41,2.351 -6.87,2.271 -15.61,3.558 -19.26,4.602 -1.73,0.493 -10.12,3.948 -13.67,5.419 -0.15,-1.519 -0.33,-3.898 -0.25,-6.096 0.39,-12.18 3.3,-31.921 3.81,-35.465 0.75,-5.298 1.04,-10.724 2.48,-16.003 0.34,-1.262 1.39,-5.461 1.58,-6.214 0.37,-0.784 0.39,-1.725 -0.03,-2.561 -0.46,-0.922 -1.15,-1.304 -1.77,-1.489 -0.73,-0.222 -1.61,-0.233 -2.52,0.408 -0.19,0.136 -0.75,0.52 -1.1,1.444 -0.29,0.754 -1.38,5.367 -1.79,6.878 -1.51,5.515 -1.84,11.177 -2.63,16.712 -0.59,4.141 -4.36,29.916 -3.86,41.057 0.11,2.418 0.46,4.266 0.95,5.331 0.5,1.117 1.23,1.772 1.94,2.126 0.4,0.204 0.98,0.382 1.74,0.366 0.55,-0.012 1.4,-0.162 2.43,-0.479 3.98,-1.221 12.3,-5.256 14.29,-5.825 4.36,-1.245 15.77,-2.871 23,-5.992 3.97,-1.72 6.74,-4.064 7.59,-6.624 0.8,-2.397 0.8,-5.019 0.65,-7.671 -0.12,-2.054 -0.35,-4.127 -0.03,-6.063 1.07,-6.391 1.6,-12.365 -1.29,-18.141 -0.66,-1.322 -1.89,-2.343 -3.72,-2.866 -1.66,-0.477 -4.02,-0.528 -6.72,-0.17 -6.35,0.842 -14.95,3.847 -19.9,6.329 -1.69,0.845 -2.99,1.66 -3.76,2.313 -0.65,0.557 -1.05,1.107 -1.27,1.551 -1.51,3.013 -2.6,8.223 -2.08,12.406 0.44,3.563 2.08,6.37 4.8,7.543 2.49,1.075 6.42,0.884 12.01,-2.78 z m -19.67,-42.14 c -1.03,-0.038 -2,-0.621 -2.5,-1.605 0.63,1.255 1.58,1.604 2.5,1.605 z"
   style="fill:#000344;font-variation-settings:normal;opacity:1;vector-effect:none;fill-opacity:1;stroke-width:1;stroke-linecap:butt;stroke-linejoin:miter;stroke-miterlimit:2;stroke-dasharray:none;stroke-dashoffset:0;stroke-opacity:1;-inkscape-stroke:none;stop-color:#000000;stop-opacity:1"
   id="path78" />
            <path
   d="m 1720.07,231.592 v 0.026 c 0.06,0.863 -0.05,1.893 -0.25,2.967 -0.38,2.114 -1.13,4.382 -1.95,5.999 -0.25,0.471 -0.66,1.054 -0.78,1.225 -1.83,0.854 -4.24,1.093 -6.39,1.686 -2.11,0.585 -4.02,1.452 -5.43,2.861 -0.54,0.539 -1.11,1.594 -1.28,3.117 -0.31,2.718 0.42,8.129 0.42,9.68 0,4.848 -1.74,18.314 -1.03,27.721 0.36,4.878 1.55,8.767 3.42,10.634 0.36,0.362 0.95,0.769 1.86,0.955 0.58,0.118 1.55,0.158 2.85,0.049 5.32,-0.444 18.2,-3.237 29.15,-5.005 5.23,-0.844 9.99,-1.459 13.17,-1.403 0.65,0.012 1.4,0.117 1.81,0.185 1.32,2.809 1.72,4.953 1.12,6.648 -0.41,1.154 -1.32,1.99 -2.49,2.677 -1.58,0.923 -3.61,1.549 -5.89,2.022 -9.13,1.893 -22.04,1.234 -30.69,2.408 -4.53,0.614 -8.02,1.851 -9.87,3.696 -0.45,0.458 -0.93,1.16 -1.3,2.142 -0.53,1.349 -0.96,3.48 -1.25,6.163 -1.52,13.732 -0.05,43.424 0.84,48.634 0.27,1.587 1.78,2.654 3.37,2.383 1.59,-0.272 2.65,-1.78 2.38,-3.367 -0.75,-4.415 -1.91,-26.985 -1.21,-41.468 0.18,-3.591 0.46,-6.668 0.91,-8.798 0.14,-0.659 0.43,-1.464 0.5,-1.669 0.72,-0.647 1.88,-1.021 3.27,-1.363 1.96,-0.479 4.33,-0.762 6.95,-0.962 8.48,-0.651 19.3,-0.432 27.29,-2.087 6.45,-1.337 11.13,-4.076 12.69,-8.459 1.04,-2.937 0.81,-6.815 -1.71,-11.86 -0.51,-1.014 -1.63,-2.024 -3.6,-2.456 -2.16,-0.471 -6,-0.341 -10.65,0.227 -12.11,1.478 -30.36,5.748 -35.82,5.942 -0.22,-0.427 -0.39,-0.955 -0.56,-1.543 -0.37,-1.348 -0.59,-2.973 -0.73,-4.762 -0.69,-9.259 1.06,-22.512 1.06,-27.284 0,-1.036 -0.34,-3.814 -0.47,-6.337 -0.05,-0.914 0,-2.135 0.03,-2.694 0.96,-0.701 2.25,-0.98 3.55,-1.282 2.29,-0.533 4.66,-0.973 6.52,-1.902 0.79,-0.396 1.76,-1.278 2.6,-2.655 1.26,-2.063 2.5,-5.484 3.08,-8.649 0.36,-1.954 0.45,-3.817 0.24,-5.256 -0.23,-1.512 -0.81,-2.678 -1.58,-3.446 -0.36,-0.362 -0.98,-0.792 -1.95,-0.997 -0.7,-0.146 -1.89,-0.207 -3.47,-0.133 -7.1,0.331 -24.16,3.118 -35.67,4.069 -3.48,0.287 -7.33,0.135 -8.72,0.063 -0.16,-0.897 -0.03,-1.982 0.14,-3.101 0.46,-3.2 1.59,-6.623 1.92,-8.605 1.97,-11.819 4.66,-17.964 9.12,-20.914 3.25,-2.145 7.32,-2.49 12.34,-2.433 5.71,0.064 12.52,0.737 20.65,0.737 4,0 18.04,0.161 21.99,0.717 3.46,3.524 5.67,6.445 6.82,8.914 0.85,1.821 1.1,3.251 0.57,4.418 -0.57,1.234 -1.84,2.056 -3.43,2.779 -2.12,0.968 -4.79,1.635 -7.69,2.16 -8.51,1.539 -18.92,1.834 -25.1,3.38 -1.68,0.42 -3.41,0.104 -5.11,-0.325 -2.22,-0.559 -4.39,-1.35 -6.39,-1.75 -0.15,-0.029 -0.59,-0.08 -1.22,-0.047 -0.59,0.031 -2.04,0.091 -3.05,0.132 -0.83,-2.004 -0.99,-3.458 -0.34,-4.554 0.8,-1.339 2.55,-1.87 4.53,-2.271 5.6,-1.133 13.12,-0.262 16.88,-0.262 1.61,0 2.92,-1.307 2.92,-2.917 0,-1.61 -1.31,-2.917 -2.92,-2.917 -4.02,0 -12.05,-0.832 -18.03,0.379 -3.82,0.772 -6.85,2.421 -8.39,4.997 -1.53,2.57 -1.84,6.31 0.81,11.624 0.27,0.537 0.84,1.307 2.08,1.631 0.91,0.242 5.01,0.031 5.86,-0.017 1.83,0.398 3.81,1.119 5.83,1.628 2.64,0.666 5.34,0.981 7.95,0.328 7.72,-1.929 22.03,-1.909 30.99,-4.813 5.79,-1.876 9.49,-5.085 9.88,-9.66 0.35,-4.001 -2.12,-9.758 -9.87,-17.51 -0.24,-0.237 -0.63,-0.559 -1.28,-0.783 -0.45,-0.157 -1.44,-0.342 -2.82,-0.465 -5.23,-0.466 -17.69,-0.629 -21.47,-0.629 -9.79,0 -17.68,-0.968 -24.03,-0.69 -4.81,0.21 -8.81,1.129 -12.17,3.351 -5.37,3.546 -9.29,10.617 -11.66,24.823 -0.34,2.01 -1.48,5.484 -1.95,8.729 -0.4,2.808 -0.27,5.472 0.68,7.368 0.45,0.892 1.54,1.928 3.59,2.337 2.09,0.419 5.91,0.366 10.57,-0.019 12.14,-1.003 30.53,-4.129 36.46,-4.092 z"
   style="fill:#000344;font-variation-settings:normal;opacity:1;vector-effect:none;fill-opacity:1;stroke-width:1;stroke-linecap:butt;stroke-linejoin:miter;stroke-miterlimit:2;stroke-dasharray:none;stroke-dashoffset:0;stroke-opacity:1;-inkscape-stroke:none;stop-color:#000000;stop-opacity:1"
   id="path80" />
            <path
   d="m 1728.55,331.178 c 6.52,-3.836 25.23,-9.217 37.34,-7.921 4.28,0.457 7.77,1.536 8.67,4.682 1.28,4.503 5.71,26.907 6.86,41.332 0.29,3.535 0.38,6.567 0.15,8.677 -0.06,0.518 -0.23,1.185 -0.29,1.434 -0.34,0.222 -0.79,0.239 -1.28,0.25 -1.16,0.026 -2.48,-0.241 -3.86,-0.63 -5.1,-1.431 -10.86,-4.474 -13.41,-5.111 -6.29,-1.574 -11.86,-1.687 -16.29,-2.42 -2.5,-0.416 -4.58,-0.951 -5.97,-2.577 -1.49,-1.746 -2.11,-4.552 -2.11,-9.042 0,-2.189 -0.23,-4.91 -0.22,-7.574 0,-1.675 0.08,-3.331 0.48,-4.736 3.27,-0.69 11.16,-2.241 16.44,-2.628 1.07,-0.078 2.32,-0.036 2.98,-0.003 0.24,0.532 0.62,1.41 0.89,2.193 1.33,3.902 2.73,9.817 2.73,11.725 0,1.61 1.31,2.917 2.92,2.917 1.61,0 2.92,-1.307 2.92,-2.917 0,-2.209 -1.51,-9.086 -3.05,-13.603 -0.81,-2.387 -1.76,-4.172 -2.41,-4.816 -0.67,-0.678 -2.35,-1.393 -4.82,-1.412 -5.75,-0.044 -17.88,2.411 -20.77,3.041 -1.93,0.422 -2.58,1.664 -2.59,1.685 -0.95,1.894 -1.39,4.279 -1.51,6.812 -0.16,3.194 0.18,6.645 0.18,9.316 0,6.431 1.37,10.328 3.51,12.83 2.23,2.622 5.41,3.874 9.45,4.543 4.3,0.713 9.71,0.796 15.83,2.325 3,0.749 10.4,4.781 16.02,5.698 3.47,0.564 6.39,-0.038 8.22,-1.865 0.51,-0.51 0.99,-1.277 1.33,-2.341 0.43,-1.397 0.66,-3.585 0.64,-6.329 -0.11,-13.682 -5.85,-43.074 -7.37,-48.377 -1.48,-5.202 -6.58,-8.124 -13.65,-8.88 -13.86,-1.482 -35.53,5.061 -41.88,9.299 -0.39,0.257 -0.87,0.702 -1.24,1.477 -0.37,0.766 -0.79,2.501 -1.11,4.902 -1.33,10.003 -2.07,33.555 -1.83,35.86 0.16,1.601 1.59,2.769 3.19,2.605 1.61,-0.163 2.77,-1.596 2.61,-3.197 -0.22,-2.218 0.53,-24.876 1.81,-34.501 0.13,-0.999 0.36,-2.128 0.49,-2.723 z"
   style="fill:#000344;font-variation-settings:normal;opacity:1;vector-effect:none;fill-opacity:1;stroke-width:1;stroke-linecap:butt;stroke-linejoin:miter;stroke-miterlimit:2;stroke-dasharray:none;stroke-dashoffset:0;stroke-opacity:1;-inkscape-stroke:none;stop-color:#000000;stop-opacity:1"
   id="path82" />
            <path
   d="m 1782.25,278.056 c 1.06,3.146 3.13,12.806 3.78,16.874 -2.21,1.211 -7.02,3.967 -9.08,6.106 -1.33,1.384 -2.01,2.859 -2.07,4.157 -0.05,1.239 0.34,2.456 1.44,3.56 0.67,0.666 1.55,1.111 2.67,1.249 1.23,0.151 2.98,-0.174 4.86,-0.737 1.44,-0.427 2.99,-0.974 4.36,-1.229 0.27,-0.05 0.64,-0.073 0.9,-0.082 0.1,0.309 0.23,0.787 0.29,1.17 0.18,1.264 0.23,2.813 0.22,4.473 -0.04,5.822 -0.58,12.812 0.31,15.485 4.35,13.049 1.73,27.493 3.98,40.961 1.51,9.066 5.03,17.894 5.63,26.936 0.11,1.606 1.5,2.824 3.1,2.718 1.61,-0.107 2.83,-1.497 2.72,-3.104 -0.61,-9.231 -4.16,-18.253 -5.7,-27.509 -2.29,-13.763 0.25,-28.511 -4.2,-41.847 -0.32,-0.968 -0.3,-2.672 -0.27,-4.668 0.07,-3.68 0.38,-8.182 0.21,-11.709 -0.16,-3.422 -1,-6.072 -2.18,-7.254 -0.86,-0.863 -2.01,-1.374 -3.41,-1.488 -1.25,-0.102 -2.8,0.153 -4.42,0.594 -0.66,0.179 -1.33,0.387 -1.99,0.593 0.15,-0.114 0.3,-0.221 0.45,-0.316 2.44,-1.594 5.21,-2.966 6.32,-3.66 0.97,-0.611 1.41,-1.272 1.56,-1.557 0.11,-0.229 0.39,-0.877 0.3,-1.929 -0.15,-2 -1.85,-10.51 -3.22,-15.972 -0.57,-2.271 -1.11,-4.051 -1.45,-4.781 -0.41,-0.868 -0.93,-1.299 -1.23,-1.496 -3.24,-2.161 -7.51,-3.049 -12.34,-3.124 -6.42,-0.1 -13.91,1.208 -20.91,1.989 -4.32,0.483 -8.44,0.768 -11.93,0.264 -4.25,-0.613 -7.44,-2.534 -8.25,-7.405 -0.22,-1.298 -0.35,-2.342 -0.37,-3.199 -0.02,-0.572 -0.07,-0.985 0.16,-1.278 0.24,-0.298 0.64,-0.447 1.13,-0.66 0.97,-0.416 2.22,-0.81 3.77,-1.328 4.5,-1.501 8.41,-3.884 13.08,-5.049 5.08,-1.271 11.53,0.418 17.03,1.069 5.44,0.644 10.09,0.175 12.81,-2.619 2.6,-2.663 3.89,-7.92 1.41,-17.833 -0.82,-3.303 -2.46,-5.51 -4.59,-6.953 -2.91,-1.97 -6.91,-2.468 -11.41,-1.927 -5.73,0.688 -12.39,3.003 -18.12,4.765 -3.38,1.04 -6.39,1.906 -8.58,1.906 -1.61,0 -2.91,1.306 -2.91,2.916 0,1.61 1.3,2.917 2.91,2.917 2.62,0 6.25,-0.919 10.29,-2.163 5.42,-1.664 11.69,-3.899 17.1,-4.549 4.56,-0.548 8.51,-0.058 9.65,4.503 0.96,3.808 1.33,6.724 1.19,8.949 -0.1,1.564 -0.41,2.68 -1.12,3.399 -0.65,0.671 -1.58,0.925 -2.64,1.058 -1.56,0.196 -3.37,0.067 -5.3,-0.162 -6.18,-0.731 -13.44,-2.361 -19.14,-0.935 -4.81,1.202 -8.86,3.626 -13.5,5.174 -4.09,1.36 -6.39,2.35 -7.62,3.88 -1.33,1.665 -1.81,4.152 -0.99,9.078 1.7,10.169 9.5,12.829 19.69,12.515 7.68,-0.237 16.77,-2.171 24.65,-2.46 4.24,-0.156 8.09,0.111 10.97,1.724 z"
   style="fill:#000344;font-variation-settings:normal;opacity:1;vector-effect:none;fill-opacity:1;stroke-width:1;stroke-linecap:butt;stroke-linejoin:miter;stroke-miterlimit:2;stroke-dasharray:none;stroke-dashoffset:0;stroke-opacity:1;-inkscape-stroke:none;stop-color:#000000;stop-opacity:1"
   id="path84" />
            <path
   d="m 1679.72,249.85 c 0.15,-0.047 0.62,-0.192 0.94,-0.222 0.79,-0.075 1.69,-0.006 2.64,0.146 2.4,0.384 5.04,1.313 6.94,2.362 0.74,0.407 1.63,1.141 1.73,1.23 1.37,2.79 1.18,6.577 0.6,10.578 -1.04,7.091 -3.52,14.785 -3.99,19.992 -0.47,5.167 0.72,15.977 0.32,25.24 -0.13,2.862 -0.41,5.566 -0.98,7.862 -0.38,1.527 -0.85,2.86 -1.56,3.846 -2.13,0.262 -9.25,1.145 -10.27,1.349 -1.35,0.269 -2.27,0.42 -2.83,-0.033 -0.25,-0.201 -0.29,-0.547 -0.35,-0.922 -0.14,-0.924 -0.04,-2.028 0.16,-3.245 0.9,-5.368 3.91,-12.46 5.29,-17.576 0.77,-2.84 1,-5.223 0.62,-6.741 -0.98,-3.904 -2.44,-5.95 -3.99,-7.091 -1.73,-1.265 -3.72,-1.568 -6.01,-1.448 -2.45,0.129 -5.45,0.967 -8.82,-0.881 0.03,-4.683 0.7,-13.719 2.24,-21.49 0.98,-4.886 2.19,-9.275 4,-11.4 1.04,-1.225 0.9,-3.067 -0.33,-4.112 -1.22,-1.044 -3.06,-0.897 -4.11,0.328 -1.73,2.031 -3.23,5.611 -4.34,9.92 -2.36,9.089 -3.3,21.575 -3.3,27.169 0,1.145 0.07,1.884 0.5,2.614 0.26,0.436 0.64,0.899 1.31,1.346 4.21,2.805 7.99,2.747 11.27,2.478 0.9,-0.074 1.75,-0.166 2.54,-0.165 0.61,0 1.17,0.006 1.64,0.381 0.77,0.614 1.25,1.805 1.74,3.765 0.12,0.484 0,1.143 -0.15,1.934 -0.23,1.2 -0.62,2.592 -1.1,4.096 -1.57,5.003 -3.95,11.124 -4.75,15.915 -0.73,4.406 0.06,7.888 2.29,9.676 1.54,1.236 3.95,1.936 7.62,1.202 1.21,-0.242 9.14,-1.06 10.92,-1.432 1.1,-0.23 1.66,-0.739 1.82,-0.899 3.03,-3.032 4.45,-9.179 4.75,-16.191 0.4,-9.163 -0.8,-19.856 -0.33,-24.967 0.47,-5.127 2.93,-12.697 3.95,-19.678 0.78,-5.349 0.68,-10.384 -1.18,-14.094 -0.45,-0.908 -1.43,-1.98 -2.9,-2.944 -2.45,-1.61 -6.45,-3.16 -10.04,-3.734 -2.34,-0.374 -4.52,-0.315 -6.13,0.209 -1.65,0.537 -2.84,1.528 -3.53,2.891 -1.62,3.238 -2.18,7.027 -2.21,10.941 -0.03,5.184 0.88,10.596 0.88,14.899 0,1.61 1.31,2.917 2.92,2.917 1.61,0 2.92,-1.307 2.92,-2.917 0,-3.618 -0.64,-8.013 -0.83,-12.405 -0.17,-3.782 -0.04,-7.575 1.48,-10.699 z"
   style="fill:#000344;font-variation-settings:normal;opacity:1;vector-effect:none;fill-opacity:1;stroke-width:1;stroke-linecap:butt;stroke-linejoin:miter;stroke-miterlimit:2;stroke-dasharray:none;stroke-dashoffset:0;stroke-opacity:1;-inkscape-stroke:none;stop-color:#000000;stop-opacity:1"
   id="path86" />
            <path
   d="m 1707.33,162.335 c -1.44,0.594 -6.22,2.494 -9.76,3.082 -1.22,0.203 -2.39,0.322 -3.4,0.29 -0.4,-0.012 -0.96,-0.124 -1.23,-0.184 -0.41,-1.232 0.15,-2.741 0.77,-4.316 1.55,-3.914 4.3,-7.996 5.14,-10.521 1.67,-5.01 3.59,-8.058 6.38,-12.711 4.17,-6.954 7.56,-14.249 11.68,-21.169 0.82,-1.383 0.36,-3.175 -1.02,-3.997 -1.39,-0.822 -3.18,-0.366 -4,1.018 -4.11,6.912 -7.49,14.2 -11.66,21.146 -3.04,5.07 -5.09,8.41 -6.91,13.869 -0.82,2.455 -3.53,6.412 -5.03,10.219 -1.36,3.44 -1.73,6.804 -0.44,9.387 0.56,1.107 1.52,1.979 2.9,2.51 1.8,0.692 4.67,0.729 7.78,0.213 4.66,-0.776 9.91,-2.654 11.99,-3.87 1.37,-0.801 1.96,-1.776 2.13,-2.302 0.46,-1.367 0.68,-3.519 0.82,-6.048 0.17,-3.186 0.24,-7.077 0.9,-10.486 0.5,-2.559 1.16,-4.906 3.03,-5.855 1.18,-0.599 2.75,-0.493 4.86,0.209 0.29,0.097 0.36,0.365 0.4,0.65 0.12,0.647 0.05,1.395 -0.07,2.194 -0.68,4.206 -3.23,9.372 -3.78,11.572 -0.48,1.936 -0.18,4.23 0.22,6.395 0.14,0.784 0.29,1.545 0.36,2.241 0.03,0.324 0.08,0.619 0,0.861 -1.07,3.19 -4.33,5.25 -7.99,6.785 -6.33,2.655 -14.07,3.489 -17.36,3.489 -1.61,0 -2.92,1.307 -2.92,2.917 0,1.609 1.31,2.916 2.92,2.916 3.72,0 12.47,-0.943 19.62,-3.943 5.33,-2.237 9.71,-5.669 11.26,-10.319 0.44,-1.301 0.37,-3.042 0.04,-4.942 -0.29,-1.638 -0.86,-3.472 -0.49,-4.985 0.69,-2.753 4.14,-9.884 4.08,-14.606 -0.04,-3.303 -1.4,-5.743 -4.45,-6.759 -4.05,-1.35 -7.07,-1.028 -9.34,0.124 -2.34,1.19 -4,3.348 -5.06,6.13 -1.27,3.328 -1.68,7.632 -1.89,11.596 -0.15,2.841 -0.15,5.474 -0.48,7.2 z"
   style="fill:#000344;font-variation-settings:normal;opacity:1;vector-effect:none;fill-opacity:1;stroke-width:1;stroke-linecap:butt;stroke-linejoin:miter;stroke-miterlimit:2;stroke-dasharray:none;stroke-dashoffset:0;stroke-opacity:1;-inkscape-stroke:none;stop-color:#000000;stop-opacity:1"
   id="path88" />
            <path
   d="m 1726.88,123.746 c 0.24,0.332 0.86,1.181 1.33,1.985 1.88,3.218 4.39,8.576 6.65,14.044 1.95,4.695 3.72,9.472 4.75,13.058 0.26,0.925 0.47,1.924 0.61,2.707 -0.73,-0.077 -1.5,-0.205 -2.22,-0.299 -1.4,-0.18 -2.69,-0.203 -3.61,0.032 -0.84,0.212 -1.51,0.603 -2.03,1.118 -0.38,0.385 -0.91,1.191 -1.25,2.425 -0.69,2.452 -1.21,7.724 -1.17,11.41 0.02,1.586 0.16,2.913 0.37,3.719 0.25,0.935 0.67,1.548 1.03,1.906 0.96,0.958 2.24,1.506 3.83,1.592 1.46,0.08 3.3,-0.284 5.26,-0.889 2.33,-0.718 4.91,-1.774 7.13,-2.317 0.86,-0.209 1.63,-0.42 2.22,-0.259 0.1,0.116 0.71,0.802 1.03,1.376 0.73,1.285 1.41,3.003 2.04,4.984 3.21,9.987 5.24,26.272 5.24,31.277 0,1.609 1.3,2.916 2.91,2.916 1.61,0 2.92,-1.307 2.92,-2.916 0,-5.29 -2.12,-22.505 -5.51,-33.061 -0.95,-2.954 -2.02,-5.417 -3.14,-7.07 -1.1,-1.643 -2.37,-2.618 -3.57,-3.018 -1.25,-0.418 -2.85,-0.441 -4.64,-0.09 -1.95,0.382 -4.21,1.202 -6.41,1.962 -1.53,0.53 -3.02,1.034 -4.3,1.223 -0.1,0.015 -0.23,0.024 -0.35,0.03 l 0.76,-10.621 0.12,0.012 c 0.81,0.091 1.7,0.241 2.54,0.338 2.45,0.283 4.61,-0.173 5.75,-1.315 0.6,-0.596 1.26,-1.893 1.08,-3.93 -0.3,-3.401 -2.9,-11.076 -6,-18.534 -3.07,-7.417 -6.62,-14.617 -8.62,-17.217 -1.29,-1.667 -2.7,-2.1 -3.43,-2.109 -1.6,-0.018 -2.93,1.274 -2.94,2.884 -0.02,1.156 0.64,2.164 1.62,2.647 z"
   style="fill:#000344;font-variation-settings:normal;opacity:1;vector-effect:none;fill-opacity:1;stroke-width:1;stroke-linecap:butt;stroke-linejoin:miter;stroke-miterlimit:2;stroke-dasharray:none;stroke-dashoffset:0;stroke-opacity:1;-inkscape-stroke:none;stop-color:#000000;stop-opacity:1"
   id="path90" />
            <path
   d="m 1506.1,377.336 c 1.54,0.006 7.29,-0.028 9.55,-0.85 7.04,-2.559 13.93,-6.108 21.39,-7.041 20.21,-2.525 49.47,-3.473 68.68,2.93 1.69,0.562 8.26,1.782 13.25,3.438 1.23,0.41 2.77,1.154 3.41,1.477 0.63,1.502 2.11,2.558 3.84,2.558 2.3,0 4.17,-1.867 4.17,-4.167 0,-1.802 -1.04,-3.988 -3.75,-5.608 -4.5,-2.685 -15.93,-4.818 -18.28,-5.604 -20.24,-6.745 -51.06,-5.954 -72.35,-3.292 -8.08,1.009 -15.59,4.707 -23.21,7.477 -0.93,0.338 -2.47,0.346 -3.82,0.366 -2.16,0.031 -4.03,0.002 -4.33,0.054 -2.65,0.456 -3.21,2.44 -3.38,3.134 -0.27,1.106 -0.19,2.343 0.78,3.575 0.22,0.28 0.78,1.047 2.18,1.452 0.63,0.181 1.27,0.207 1.87,0.101 z m 0.65,-8.043 c 0.5,0.172 0.95,0.432 1.33,0.757 -0.29,-0.262 -0.71,-0.549 -1.33,-0.757 z"
   style="fill:#000344;font-variation-settings:normal;opacity:1;vector-effect:none;fill-opacity:1;stroke-width:1;stroke-linecap:butt;stroke-linejoin:miter;stroke-miterlimit:2;stroke-dasharray:none;stroke-dashoffset:0;stroke-opacity:1;-inkscape-stroke:none;stop-color:#000000;stop-opacity:1"
   id="path92" />
            <path
   d="m 1517.32,335.131 c 0.1,-0.026 0.2,-0.055 0.3,-0.089 4.49,-1.496 9.93,-1.891 14.67,-3.008 8.27,-1.945 15.76,-2.383 24.01,-3.56 21.4,-3.058 42.38,4.842 63.02,8.281 2.11,0.352 4.41,1.672 6.65,2.612 2.25,0.944 4.46,1.593 6.48,1.593 2.3,0 4.16,-1.867 4.16,-4.167 0,-2.299 -1.86,-4.167 -4.16,-4.167 -1.39,0 -2.89,-0.766 -4.45,-1.462 -2.47,-1.104 -5,-2.243 -7.31,-2.629 -21.46,-3.576 -43.32,-11.49 -65.57,-8.311 -8.5,1.214 -16.22,1.694 -24.74,3.699 -4.98,1.172 -10.68,1.642 -15.4,3.214 0.47,-0.156 0.97,-0.167 0.97,-0.167 0,0 -4.07,3.797 -4.07,3.912 0,0.047 -0.34,3.689 3.5,4.368 0.67,0.118 1.33,0.069 1.94,-0.119 z"
   style="fill:#000344;font-variation-settings:normal;opacity:1;vector-effect:none;fill-opacity:1;stroke-width:1;stroke-linecap:butt;stroke-linejoin:miter;stroke-miterlimit:2;stroke-dasharray:none;stroke-dashoffset:0;stroke-opacity:1;-inkscape-stroke:none;stop-color:#000000;stop-opacity:1"
   id="path94" />
            <g
   transform="translate(1047.11,-323.199)"
   id="g98">
                <path
   d="m 352.181,684.295 c 40.929,-19.719 75.238,-13.86 103.327,16.033 l 6.469,-39.773 c 2.82,-17.868 -73.853,-38.87 -99.366,-12.123 -3.154,3.307 -10.43,35.863 -10.43,35.863 z"
   style="fill:#000344;font-variation-settings:normal;opacity:1;vector-effect:none;fill-opacity:1;stroke-width:1;stroke-linecap:butt;stroke-linejoin:miter;stroke-miterlimit:2;stroke-dasharray:none;stroke-dashoffset:0;stroke-opacity:1;-inkscape-stroke:none;stop-color:#000000;stop-opacity:1"
   id="path96" />
            </g>
            <g
   transform="translate(1069.59,-386.767)"
   id="g102">
                <path
   d="m 352.181,684.295 c 26.428,-18.169 76.915,-17.514 97.216,8.756 l 10.235,-33.599 c 2.821,-17.869 -65.612,-37.647 -91.124,-10.9 -3.155,3.307 -16.327,35.743 -16.327,35.743 z"
   style="fill:#000344;font-variation-settings:normal;opacity:1;vector-effect:none;fill-opacity:1;stroke-width:1;stroke-linecap:butt;stroke-linejoin:miter;stroke-miterlimit:2;stroke-dasharray:none;stroke-dashoffset:0;stroke-opacity:1;-inkscape-stroke:none;stop-color:#000000;stop-opacity:1"
   id="path100" />
            </g>
            <g
   transform="translate(1092.07,-450.336)"
   id="g106">
                <path
   d="m 369.06,679.064 c 20.76,-12.335 61.076,-12.935 81.012,15.107 l 17.179,-29.42 c -2.722,-13.652 -54.864,-39.589 -76.951,-15.448 -3.085,3.371 -21.24,29.761 -21.24,29.761 z"
   style="fill:#000344;font-variation-settings:normal;opacity:1;vector-effect:none;fill-opacity:1;stroke-width:1;stroke-linecap:butt;stroke-linejoin:miter;stroke-miterlimit:2;stroke-dasharray:none;stroke-dashoffset:0;stroke-opacity:1;-inkscape-stroke:none;stop-color:#000000;stop-opacity:1"
   id="path104" />
            </g>
            <g
   transform="translate(1114.55,-513.905)"
   id="g110">
                <path
   d="m 402.919,682.805 c 16.002,-7.297 51.957,1.582 59.264,19.82 l 22.286,-25.891 c -15.14,-19.042 -42.387,-23.055 -55.802,-13.976 -3.784,2.562 -25.748,20.047 -25.748,20.047 z"
   style="fill:#000344;font-variation-settings:normal;opacity:1;vector-effect:none;fill-opacity:1;stroke-width:1;stroke-linecap:butt;stroke-linejoin:miter;stroke-miterlimit:2;stroke-dasharray:none;stroke-dashoffset:0;stroke-opacity:1;-inkscape-stroke:none;stop-color:#000000;stop-opacity:1"
   id="path108" />
            </g>
            <g
   transform="translate(1137.03,-577.474)"
   id="g114">
                <path
   d="m 440.507,707.304 c 9.534,-5.933 32.144,1.119 37.606,17.801 l 23.564,-16.238 c -3.673,-12.07 -10.659,-18.341 -28.237,-16.716 -4.55,0.421 -32.933,15.153 -32.933,15.153 z"
   style="fill:#000344;font-variation-settings:normal;opacity:1;vector-effect:none;fill-opacity:1;stroke-width:1;stroke-linecap:butt;stroke-linejoin:miter;stroke-miterlimit:2;stroke-dasharray:none;stroke-dashoffset:0;stroke-opacity:1;-inkscape-stroke:none;stop-color:#000000;stop-opacity:1"
   id="path112" />
            </g>
            <g
   transform="translate(1191.14,-596.451)"
   id="g118">
                <path
   d="m 444.972,703.226 c 8.012,0.402 16.484,4.029 18.767,14.566 l 23.411,-11.454 c 0.44,-5.026 -8.322,-9.701 -16.315,-9.337 -4.565,0.207 -25.863,6.225 -25.863,6.225 z"
   style="fill:#000344;font-variation-settings:normal;opacity:1;vector-effect:none;fill-opacity:1;stroke-width:1;stroke-linecap:butt;stroke-linejoin:miter;stroke-miterlimit:2;stroke-dasharray:none;stroke-dashoffset:0;stroke-opacity:1;-inkscape-stroke:none;stop-color:#000000;stop-opacity:1"
   id="path116" />
            </g>
            <path
   d="m 1634.94,297.166 c 0.68,1.371 2.09,2.313 3.73,2.313 2.3,0 4.17,-1.867 4.17,-4.166 0,-1.031 -0.3,-2.099 -1.05,-3.131 -0.68,-0.924 -1.98,-1.996 -3.91,-2.9 -6.58,-3.083 -23.28,-5.88 -25.95,-6.365 -28.38,-5.161 -57.84,-4.664 -86.16,0.746 -2.25,0.431 -3.74,2.615 -3.31,4.874 0.43,2.259 2.62,3.742 4.88,3.311 27.31,-5.218 55.72,-5.71 83.1,-0.732 2.18,0.396 14.42,2.372 21.56,4.795 1.09,0.371 2.36,0.972 2.94,1.255 z"
   style="fill:#000344;font-variation-settings:normal;opacity:1;vector-effect:none;fill-opacity:1;stroke-width:1;stroke-linecap:butt;stroke-linejoin:miter;stroke-miterlimit:2;stroke-dasharray:none;stroke-dashoffset:0;stroke-opacity:1;-inkscape-stroke:none;stop-color:#000000;stop-opacity:1"
   id="path120" />
            <path
   d="m 1547.94,247.781 c 0.42,0.032 0.85,0.071 1.21,0.113 1.86,0.215 3.74,0.378 5,0.221 6.84,-0.855 13.65,-2.909 20.47,-4.187 10,-1.874 28.56,-1.812 44.63,1.314 10.15,1.975 19.32,5.054 24.25,9.981 1.63,1.626 4.27,1.626 5.89,0 1.63,-1.626 1.63,-4.267 0,-5.893 -5.84,-5.838 -16.52,-9.928 -28.55,-12.268 -17.19,-3.345 -37.06,-3.33 -47.75,-1.325 -6.66,1.248 -13.3,3.275 -19.97,4.109 -0.97,0.121 -2.52,-0.182 -3.92,-0.334 -1.61,-0.174 -3.1,-0.222 -4.11,-0.055 -1.75,0.291 -2.87,1.162 -3.53,2.086 -0.83,1.165 -1.39,2.788 -0.38,5.029 0.95,2.094 3.42,3.025 5.52,2.076 0.48,-0.217 0.89,-0.513 1.24,-0.867 z m 0.94,-4.393 0.01,0.026 -0.01,-0.013 z"
   style="fill:#000344;font-variation-settings:normal;opacity:1;vector-effect:none;fill-opacity:1;stroke-width:1;stroke-linecap:butt;stroke-linejoin:miter;stroke-miterlimit:2;stroke-dasharray:none;stroke-dashoffset:0;stroke-opacity:1;-inkscape-stroke:none;stop-color:#000000;stop-opacity:1"
   id="path122" />
            <path
   d="m 1573.19,204.862 c 0.98,-0.206 3.52,-0.724 5.65,-0.995 5.31,-0.675 11.41,-1.17 12.62,-1.473 14.46,-3.616 33.24,-0.977 47.12,4.973 1.34,0.572 6.63,1.456 10.65,2.848 0.7,0.243 1.63,0.704 2.11,0.95 0.57,1.609 2.11,2.761 3.92,2.761 2.3,0 4.17,-1.867 4.17,-4.167 0,-2.3 -1.71,-4.919 -5.28,-6.55 -3.95,-1.805 -10.76,-2.847 -12.28,-3.502 -15.45,-6.618 -36.34,-9.42 -52.43,-5.397 -1.74,0.434 -13.84,1.211 -18.48,2.498 -2.36,0.655 -3.68,1.873 -4.16,2.638 -0.6,0.972 -0.78,1.979 -0.65,2.987 0.3,2.28 2.4,3.884 4.68,3.581 0.93,-0.124 1.74,-0.544 2.36,-1.152 z"
   style="fill:#000344;font-variation-settings:normal;opacity:1;vector-effect:none;fill-opacity:1;stroke-width:1;stroke-linecap:butt;stroke-linejoin:miter;stroke-miterlimit:2;stroke-dasharray:none;stroke-dashoffset:0;stroke-opacity:1;-inkscape-stroke:none;stop-color:#000000;stop-opacity:1"
   id="path124" />
            <path
   d="m 1600.71,172.997 c 2.01,-0.307 13.34,-2.044 14.11,-2.139 14.41,-1.802 23.77,-0.212 37.55,2.543 1.65,0.33 3.58,1.931 5.45,3.044 2.27,1.363 4.51,2.222 6.26,2.222 2.3,0 4.16,-1.867 4.16,-4.166 0,-2.259 -1.8,-4.101 -4.04,-4.164 -0.09,-0.029 -0.52,-0.181 -0.76,-0.301 -0.78,-0.374 -1.59,-0.886 -2.43,-1.408 -2.4,-1.5 -4.93,-2.982 -7.01,-3.398 -14.75,-2.951 -24.78,-4.57 -40.22,-2.641 -0.98,0.123 -14.37,1.726 -16.89,2.9 -2.8,1.305 -2.93,3.617 -2.72,4.83 0.39,2.267 2.54,3.793 4.81,3.405 0.65,-0.111 1.23,-0.366 1.73,-0.727 z m 1.66,-2.591 -0.02,0.079 0.01,-0.018 z m 0.04,-1.267 c 0.05,0.416 0.04,0.826 -0.03,1.22 0.08,-0.41 0.08,-0.818 0.03,-1.22 z m 0,-0.019 c -0.01,-0.069 -0.02,-0.137 -0.03,-0.205 z"
   style="fill:#000344;font-variation-settings:normal;opacity:1;vector-effect:none;fill-opacity:1;stroke-width:1;stroke-linecap:butt;stroke-linejoin:miter;stroke-miterlimit:2;stroke-dasharray:none;stroke-dashoffset:0;stroke-opacity:1;-inkscape-stroke:none;stop-color:#000000;stop-opacity:1"
   id="path126" />
            <path
   d="m 1672.44,145.531 c 0.31,0.475 1.18,1.799 1.67,2.38 1.27,1.504 2.81,2.239 4.48,2.239 2.3,0 4.17,-1.867 4.17,-4.167 0,-1.719 -1.04,-3.196 -2.53,-3.832 -0.39,-0.601 -1.17,-1.76 -1.68,-2.339 -0.75,-0.842 -1.62,-1.469 -2.56,-1.846 -5.88,-2.353 -23.52,-4.916 -35.84,-4.401 -6.16,0.258 -11.1,1.508 -13.4,3.338 -1.8,1.433 -2.09,4.056 -0.66,5.855 1.43,1.799 4.06,2.096 5.86,0.663 0.55,-0.437 1.46,-0.646 2.57,-0.878 1.68,-0.356 3.73,-0.558 5.98,-0.652 10.82,-0.453 26.22,1.571 31.94,3.64 z"
   style="fill:#000344;font-variation-settings:normal;opacity:1;vector-effect:none;fill-opacity:1;stroke-width:1;stroke-linecap:butt;stroke-linejoin:miter;stroke-miterlimit:2;stroke-dasharray:none;stroke-dashoffset:0;stroke-opacity:1;-inkscape-stroke:none;stop-color:#000000;stop-opacity:1"
   id="path128" />
            <path
   d="m 1663.3,121.808 c 0.49,0.205 5.58,2.342 6.72,2.721 4.72,1.574 11.2,2.903 15.03,6.351 0.08,0.177 0.17,0.335 0.26,0.453 0.43,0.551 1.14,1.706 3.65,1.706 2.3,0 4.17,-1.867 4.17,-4.167 0,-1.285 -0.58,-2.436 -1.5,-3.2 -0.07,-0.091 -0.15,-0.18 -0.24,-0.265 -4.61,-4.608 -12.73,-6.78 -18.74,-8.784 -1.12,-0.375 -5.49,-2.256 -6.35,-2.592 -1,-0.389 -1.66,-0.341 -1.76,-0.338 -1.79,0.039 -2.69,0.97 -3.18,1.583 -0.65,0.827 -0.99,1.805 -0.88,2.967 0.16,1.693 1.31,3.056 2.82,3.565 z m 21.53,8.507 c -0.24,-0.655 -0.39,-1.323 -0.39,-1.323 0,0 0.06,0.63 0.39,1.323 z m 4.69,-5.571 0.02,0.002 z m -0.33,-0.032 0.19,0.014 -0.02,-0.002 z m -0.01,-0.001 c -0.07,-0.004 -0.14,-0.005 -0.22,-0.005 z"
   style="fill:#000344;font-variation-settings:normal;opacity:1;vector-effect:none;fill-opacity:1;stroke-width:1;stroke-linecap:butt;stroke-linejoin:miter;stroke-miterlimit:2;stroke-dasharray:none;stroke-dashoffset:0;stroke-opacity:1;-inkscape-stroke:none;stop-color:#000000;stop-opacity:1"
   id="path130" />
            <path
   d="m 1680.18,112.282 c -5.11,2.547 -10.3,8.233 -15.05,15.585 -10.12,15.647 -18.8,38.935 -23.2,49.947 -23.3,58.249 -40.63,150.337 -40.63,212.437 0,2.299 1.87,4.166 4.17,4.166 2.3,0 4.17,-1.867 4.17,-4.166 0,-61.195 17.06,-151.942 40.02,-209.342 3.68,-9.196 10.38,-27.196 18.44,-41.749 4.94,-8.936 10.22,-16.64 15.8,-19.419 2.05,-1.026 2.89,-3.529 1.87,-5.588 -1.03,-2.058 -3.53,-2.897 -5.59,-1.871 z"
   style="fill:#000344;font-variation-settings:normal;opacity:1;vector-effect:none;fill-opacity:1;stroke-width:1;stroke-linecap:butt;stroke-linejoin:miter;stroke-miterlimit:2;stroke-dasharray:none;stroke-dashoffset:0;stroke-opacity:1;-inkscape-stroke:none;stop-color:#000000;stop-opacity:1"
   id="path132" />
            <path
   d="m 1632.18,139.669 c -6.29,16.986 -19.15,31.537 -26.2,48.444 -14.26,34.229 -23.51,72.361 -31.29,108.626 -4.12,19.253 -8.27,38.157 -11.47,57.406 -0.53,3.173 -0.51,9.958 -1.19,15.671 -0.2,1.635 -0.45,3.169 -0.82,4.45 -0.19,0.67 -0.32,1.266 -0.65,1.595 -1.62,1.626 -1.62,4.266 0,5.892 1.63,1.626 4.27,1.626 5.9,0 1.51,-1.517 2.75,-4.379 3.41,-7.986 1.1,-6.041 0.95,-14.584 1.56,-18.252 3.19,-19.123 7.31,-37.903 11.41,-57.03 7.67,-35.775 16.77,-73.401 30.84,-107.167 7.08,-17.009 19.99,-31.668 26.31,-48.757 0.8,-2.156 -0.3,-4.555 -2.46,-5.354 -2.16,-0.798 -4.55,0.305 -5.35,2.462 z"
   style="fill:#000344;font-variation-settings:normal;opacity:1;vector-effect:none;fill-opacity:1;stroke-width:1;stroke-linecap:butt;stroke-linejoin:miter;stroke-miterlimit:2;stroke-dasharray:none;stroke-dashoffset:0;stroke-opacity:1;-inkscape-stroke:none;stop-color:#000000;stop-opacity:1"
   id="path134" />
            <path
   d="m 1584.83,184.554 c -3.88,10.53 -14.01,19.759 -19.53,29.868 -7.43,13.627 -14.45,28.572 -20.36,42.913 -16.01,38.885 -23.74,86.974 -23.74,129.101 0,2.3 1.87,4.167 4.17,4.167 2.29,0 4.16,-1.867 4.16,-4.167 0,-41.089 7.5,-88.001 23.12,-125.928 5.79,-14.067 12.68,-28.729 19.97,-42.096 5.7,-10.449 16.02,-20.089 20.03,-30.973 0.8,-2.158 -0.31,-4.556 -2.46,-5.352 -2.16,-0.796 -4.56,0.31 -5.36,2.467 z"
   style="fill:#000344;font-variation-settings:normal;opacity:1;vector-effect:none;fill-opacity:1;stroke-width:1;stroke-linecap:butt;stroke-linejoin:miter;stroke-miterlimit:2;stroke-dasharray:none;stroke-dashoffset:0;stroke-opacity:1;-inkscape-stroke:none;stop-color:#000000;stop-opacity:1"
   id="path136" />
        </g>
    </g>
</svg>
