<?xml version="1.0" encoding="UTF-8" standalone="no"?>
<svg
   width="100%"
   height="100%"
   viewBox="0 0 680 535"
   version="1.1"
   xml:space="preserve"
   style="fill-rule:evenodd;clip-rule:evenodd;stroke-linejoin:round;stroke-miterlimit:2;"
   id="svg266"
   sodipodi:docname="2023-CH-01-C.svg"
   inkscape:version="1.1.1 (3bf5ae0d25, 2021-09-20)"
   xmlns:inkscape="http://www.inkscape.org/namespaces/inkscape"
   xmlns:sodipodi="http://sodipodi.sourceforge.net/DTD/sodipodi-0.dtd"
   xmlns="http://www.w3.org/2000/svg"
   xmlns:svg="http://www.w3.org/2000/svg"><defs
   id="defs270" /><sodipodi:namedview
   id="namedview268"
   pagecolor="#ffffff"
   bordercolor="#666666"
   borderopacity="1.0"
   inkscape:pageshadow="2"
   inkscape:pageopacity="0.0"
   inkscape:pagecheckerboard="0"
   showgrid="false"
   inkscape:zoom="0.95029865"
   inkscape:cx="-14.732211"
   inkscape:cy="307.79798"
   inkscape:window-width="2048"
   inkscape:window-height="1017"
   inkscape:window-x="-8"
   inkscape:window-y="-8"
   inkscape:window-maximized="1"
   inkscape:current-layer="g262" />
    <g
   transform="translate(-1455.27,-1394.48)"
   id="g264">
        <g
   transform="translate(1262.08,310.672)"
   id="g262">
            <g
   transform="translate(-1196.21,1018.89)"
   id="g120">
                <g
   id="g50">
                    <g
   transform="translate(40.9277,-237.354)"
   id="g4">
                        <path
   d="m 1672.92,629.543 c -2.89,-4.965 -0.93,21.872 -0.33,26.089 1.91,13.339 1.82,114.392 4.04,127.672 0.73,4.375 2.06,14.333 -0.43,18.487 -17.21,28.674 -19.1,-7.404 -22.79,-18.487 -1.32,-3.955 -12.75,2.123 -13.33,3.869 -9.67,29.003 3.26,40.096 30.96,44.713 12.99,2.165 20.57,-20.43 23.26,-29.862 6.05,-21.165 4.84,-134.677 2.42,-156.477 -0.59,-5.279 2.05,-15.148 -2.15,-19.347 -5.72,-5.722 -14.48,1.917 -20.69,1.917"
   style="fill:#959799"
   id="path2" />
                    </g>
                    <g
   transform="translate(40.9277,-237.354)"
   id="g8">
                        <path
   d="m 1667.73,337.467 c -0.23,0.012 -0.61,-8.146 -0.73,-9.012 -0.59,-4.132 -1.33,-25.601 7.74,-21.067 4.95,2.476 8.55,25.174 4.73,27.086 -1.66,0.829 -6.77,0 -8.6,0 -0.9,0 -3.44,0.9 -3.44,0.43"
   style="fill:#959799"
   id="path6" />
                    </g>
                    <g
   transform="translate(40.9277,-237.354)"
   id="g12">
                        <path
   d="m 1355.55,636.055 c 0,0 11.95,-66.93 19.97,-86.981 2.88,-7.216 7.83,-14.229 10.7,-21.399 20.5,-51.26 68.28,-107.395 114.43,-138.163 29.56,-19.703 61.03,-31.352 93.97,-42.333 11.32,-3.771 23.78,-7.634 35.82,-8.839 15.25,-1.525 61.29,-4.279 73.5,-3.721 86.2,3.932 189.85,59.45 247.72,129.896 60.12,73.19 72.81,161.317 72.81,161.317 -7.94,-8.37 -11.97,-17.623 -19.48,-21.947 -28.11,-16.175 -56.62,-2.446 -75.41,24.631 -5.05,7.29 -5.13,15.773 -9.78,25.227 -60.06,-46.587 -104.11,-24.033 -143.28,19.539 -71.59,-64.742 -127.72,-53.838 -176.78,-8.374 -59.13,-49.048 -105.15,-43.161 -141.9,1.643 -25.1,-50.18 -57.34,-65.299 -99.07,-33.741"
   style="fill:#cefffe;font-variation-settings:normal;opacity:1;vector-effect:none;fill-opacity:1;stroke-width:1;stroke-linecap:butt;stroke-linejoin:miter;stroke-miterlimit:2;stroke-dasharray:none;stroke-dashoffset:0;stroke-opacity:1;-inkscape-stroke:none;stop-color:#000000;stop-opacity:1"
   id="path10" />
                    </g>
                    <g
   transform="translate(40.9277,-237.354)"
   id="g48">
                        <g
   id="g28">
                            <path
   d="m 1354.45,643.366 c 24.88,-166.751 124.31,-263.542 239.68,-295.387 173.05,-47.766 381.68,50.484 427.47,277.077 0.32,1.578 1.86,2.6 3.44,2.281 1.58,-0.319 2.6,-1.858 2.28,-3.436 -46.56,-230.388 -258.79,-330.111 -434.74,-281.545 -117.3,32.377 -218.6,130.612 -243.9,300.149 -0.24,1.592 0.86,3.077 2.46,3.315 1.59,0.237 3.07,-0.862 3.31,-2.454 z"
   style="font-variation-settings:normal;opacity:1;vector-effect:none;fill:#000344;fill-opacity:1;stroke-width:1;stroke-linecap:butt;stroke-linejoin:miter;stroke-miterlimit:2;stroke-dasharray:none;stroke-dashoffset:0;stroke-opacity:1;-inkscape-stroke:none;stop-color:#000000;stop-opacity:1"
   id="path14" />
                            <path
   d="m 1592.37,675.605 c 10.18,-22.291 33.93,-37.816 61.99,-44.055 42.54,-9.456 95.12,2.443 126.83,45.239 0.96,1.293 2.79,1.565 4.08,0.607 1.29,-0.959 1.56,-2.787 0.61,-4.08 -33.21,-44.815 -88.24,-57.362 -132.78,-47.46 -29.98,6.665 -55.16,23.513 -66.04,47.326 -0.67,1.464 -0.02,3.196 1.44,3.864 1.47,0.669 3.2,0.024 3.87,-1.441 z"
   style="font-variation-settings:normal;opacity:1;vector-effect:none;fill:#000344;fill-opacity:1;stroke-width:1;stroke-linecap:butt;stroke-linejoin:miter;stroke-miterlimit:2;stroke-dasharray:none;stroke-dashoffset:0;stroke-opacity:1;-inkscape-stroke:none;stop-color:#000000;stop-opacity:1"
   id="path16" />
                            <path
   d="m 1788.38,672.128 c 13.89,-35.625 55.49,-46.424 87.27,-40.714 20.54,3.69 37.23,14.16 38.68,30.029 0.15,1.603 1.57,2.786 3.17,2.639 1.61,-0.146 2.79,-1.567 2.64,-3.17 -1.66,-18.131 -19.99,-31.023 -43.46,-35.239 -34.21,-6.148 -78.78,5.976 -93.74,44.335 -0.58,1.5 0.16,3.192 1.66,3.777 1.5,0.585 3.19,-0.157 3.78,-1.657 z"
   style="font-variation-settings:normal;opacity:1;vector-effect:none;fill:#000344;fill-opacity:1;stroke-width:1;stroke-linecap:butt;stroke-linejoin:miter;stroke-miterlimit:2;stroke-dasharray:none;stroke-dashoffset:0;stroke-opacity:1;-inkscape-stroke:none;stop-color:#000000;stop-opacity:1"
   id="path18" />
                            <g
   transform="translate(-326.847,13.8418)"
   id="g22">
                                <path
   d="m 1786.01,654.525 c 17.82,-34.806 57.15,-41.222 87.92,-31.281 20.3,6.558 37,20.216 41.02,37.888 0.36,1.569 1.92,2.554 3.49,2.197 1.57,-0.357 2.56,-1.921 2.2,-3.491 -4.43,-19.492 -22.53,-34.912 -44.92,-42.145 -33.25,-10.745 -75.64,-3.449 -94.91,34.173 -0.73,1.433 -0.16,3.192 1.27,3.926 1.43,0.733 3.19,0.166 3.93,-1.267 z"
   style="font-variation-settings:normal;opacity:1;vector-effect:none;fill:#000344;fill-opacity:1;stroke-width:1;stroke-linecap:butt;stroke-linejoin:miter;stroke-miterlimit:2;stroke-dasharray:none;stroke-dashoffset:0;stroke-opacity:1;-inkscape-stroke:none;stop-color:#000000;stop-opacity:1"
   id="path20" />
                            </g>
                            <path
   d="m 1354.13,644.703 c 10.41,-28.373 48.73,-37.481 74.87,-17.538 11.4,8.698 20.46,22.909 24.12,43.374 0.29,1.585 1.8,2.641 3.39,2.357 1.58,-0.283 2.64,-1.8 2.36,-3.384 -3.98,-22.208 -13.96,-37.546 -26.33,-46.984 -29.33,-22.376 -72.21,-11.667 -83.89,20.166 -0.55,1.511 0.23,3.188 1.74,3.743 1.51,0.554 3.19,-0.222 3.74,-1.734 z"
   style="font-variation-settings:normal;opacity:1;vector-effect:none;fill:#000344;fill-opacity:1;stroke-width:1;stroke-linecap:butt;stroke-linejoin:miter;stroke-miterlimit:2;stroke-dasharray:none;stroke-dashoffset:0;stroke-opacity:1;-inkscape-stroke:none;stop-color:#000000;stop-opacity:1"
   id="path24" />
                            <path
   d="m 1920.86,658.898 c 2.6,-34.386 33.08,-56.513 60.62,-57.919 17.9,-0.914 34.59,7.102 41.07,26.644 0.51,1.528 2.16,2.357 3.69,1.85 1.53,-0.507 2.36,-2.159 1.85,-3.687 -7.42,-22.362 -26.42,-31.679 -46.91,-30.633 -30.07,1.535 -63.3,25.756 -66.14,63.305 -0.12,1.605 1.09,3.007 2.69,3.128 1.61,0.122 3.01,-1.083 3.13,-2.688 z"
   style="font-variation-settings:normal;opacity:1;vector-effect:none;fill:#000344;fill-opacity:1;stroke-width:1;stroke-linecap:butt;stroke-linejoin:miter;stroke-miterlimit:2;stroke-dasharray:none;stroke-dashoffset:0;stroke-opacity:1;-inkscape-stroke:none;stop-color:#000000;stop-opacity:1"
   id="path26" />
                        </g>
                        <path
   d="m 1669.96,332.927 c -0.05,-1.142 -0.31,-7.809 -0.31,-9.008 0,-3.101 -0.49,-6.783 -0.21,-10.063 0.19,-2.297 0.69,-4.427 2.78,-5.471 0.38,-0.19 0.69,-0.33 0.99,-0.273 0.48,0.094 0.72,0.609 1.03,1.156 0.45,0.822 0.81,1.841 1.11,2.975 1.79,6.698 1.49,16.943 1.49,20.05 0,1.609 1.3,2.916 2.92,2.916 1.61,0 2.91,-1.307 2.91,-2.916 0,-3.965 0.24,-18.533 -2.99,-25.194 -1.23,-2.534 -2.98,-4.121 -5.02,-4.638 -1.45,-0.367 -3.13,-0.25 -5.05,0.707 -3.31,1.656 -4.97,4.483 -5.66,7.906 -0.81,3.964 -0.14,8.854 -0.14,12.845 0,1.469 0.17,8.951 0.42,10.271 0.31,1.594 1.37,2.128 1.7,2.282 0.97,0.454 1.97,0.435 2.96,-0.283 1.05,-0.76 1.45,-2.091 1.07,-3.262 z m -1.98,-1.904 c -0.78,-0.253 -1.58,-0.177 -2.37,0.349 0.72,-0.468 1.59,-0.573 2.37,-0.349 z"
   style="font-variation-settings:normal;opacity:1;vector-effect:none;fill:#000344;fill-opacity:1;stroke-width:1;stroke-linecap:butt;stroke-linejoin:miter;stroke-miterlimit:2;stroke-dasharray:none;stroke-dashoffset:0;stroke-opacity:1;-inkscape-stroke:none;stop-color:#000000;stop-opacity:1"
   id="path30" />
                        <path
   d="m 1593.53,669.419 c 2.34,-150.967 32.95,-280.919 79.88,-333.247 0.54,-0.599 0.49,-1.522 -0.11,-2.059 -0.6,-0.537 -1.52,-0.487 -2.06,0.112 -47.21,52.636 -78.27,183.29 -80.63,335.148 -0.01,0.805 0.64,1.469 1.44,1.481 0.8,0.013 1.47,-0.631 1.48,-1.435 z"
   style="font-variation-settings:normal;opacity:1;vector-effect:none;fill:#000344;fill-opacity:1;stroke-width:1;stroke-linecap:butt;stroke-linejoin:miter;stroke-miterlimit:2;stroke-dasharray:none;stroke-dashoffset:0;stroke-opacity:1;-inkscape-stroke:none;stop-color:#000000;stop-opacity:1"
   id="path32" />
                        <path
   d="m 1457.18,666.336 c 3.59,-126.479 61.61,-285.093 214.58,-331.754 0.77,-0.235 1.21,-1.051 0.97,-1.82 -0.23,-0.77 -1.05,-1.205 -1.82,-0.97 -154.29,47.062 -213.02,206.896 -216.65,334.461 -0.02,0.804 0.61,1.476 1.42,1.499 0.8,0.023 1.47,-0.612 1.5,-1.416 z"
   style="font-variation-settings:normal;opacity:1;vector-effect:none;fill:#000344;fill-opacity:1;stroke-width:1;stroke-linecap:butt;stroke-linejoin:miter;stroke-miterlimit:2;stroke-dasharray:none;stroke-dashoffset:0;stroke-opacity:1;-inkscape-stroke:none;stop-color:#000000;stop-opacity:1"
   id="path34" />
                        <path
   d="m 1785.94,672.008 c -0.83,-56.719 -16.85,-150.924 -43.62,-227.119 -17.92,-51.039 -40.73,-93.985 -66.92,-112.419 -0.65,-0.463 -1.56,-0.305 -2.03,0.353 -0.46,0.658 -0.3,1.568 0.36,2.032 25.83,18.185 48.16,60.651 65.84,111 26.66,75.887 42.63,169.707 43.46,226.196 0.01,0.805 0.67,1.449 1.48,1.437 0.8,-0.012 1.44,-0.675 1.43,-1.48 z"
   style="font-variation-settings:normal;opacity:1;vector-effect:none;fill:#000344;fill-opacity:1;stroke-width:1;stroke-linecap:butt;stroke-linejoin:miter;stroke-miterlimit:2;stroke-dasharray:none;stroke-dashoffset:0;stroke-opacity:1;-inkscape-stroke:none;stop-color:#000000;stop-opacity:1"
   id="path36" />
                        <path
   d="m 1920.23,660.817 c -8.69,-131.698 -97.09,-289.651 -238.96,-327.097 -0.78,-0.206 -1.58,0.259 -1.78,1.038 -0.21,0.778 0.26,1.576 1.03,1.782 140.68,37.132 228.18,193.877 236.8,324.469 0.06,0.803 0.75,1.412 1.56,1.359 0.8,-0.053 1.41,-0.748 1.35,-1.551 z"
   style="font-variation-settings:normal;opacity:1;vector-effect:none;fill:#000344;fill-opacity:1;stroke-width:1;stroke-linecap:butt;stroke-linejoin:miter;stroke-miterlimit:2;stroke-dasharray:none;stroke-dashoffset:0;stroke-opacity:1;-inkscape-stroke:none;stop-color:#000000;stop-opacity:1"
   id="path38" />
                        <path
   d="m 1647.79,779.874 c -5.13,-2.334 -9.33,0.135 -11.8,2.601 -0.63,0.633 -1.35,2.046 -1.81,3.904 -0.71,2.868 -1.14,7.057 -1.34,8.446 -1.62,11.339 -0.97,18.753 1.61,24.048 2.06,4.234 5.32,7.236 9.87,9.719 4.09,2.234 9.29,4.059 15.61,6.163 1.26,0.421 5.31,1.444 8.26,1.706 1.85,0.166 3.39,-0.067 4.2,-0.469 19.36,-9.68 26.22,-28.649 27.78,-50.272 1.71,-23.586 -2.61,-137.985 -2.61,-158.028 0,-1.609 -1.31,-2.916 -2.92,-2.916 -1.61,0 -2.91,1.307 -2.91,2.916 0,19.989 4.33,134.083 2.63,157.607 -1.41,19.381 -7.11,36.626 -24.37,45.371 -0.3,-0.003 -1.5,-0.025 -2.35,-0.144 -2.3,-0.328 -4.95,-1 -5.87,-1.305 -5.92,-1.974 -10.81,-3.653 -14.65,-5.749 -3.39,-1.847 -5.89,-4.001 -7.43,-7.15 -2.21,-4.548 -2.47,-10.933 -1.07,-20.672 0.16,-1.123 0.47,-4.19 0.97,-6.747 0.19,-0.913 0.59,-2.166 0.68,-2.455 1.16,-1.11 3.02,-2.312 5.32,-1.162 0.59,0.296 1.58,0.5 2.8,0.413 0.59,-0.042 1.55,-0.144 2.37,-0.237 0.03,3.91 0.3,13.858 2.05,19.769 1.28,4.328 3.58,7.516 6.85,8.615 2.23,0.749 5.04,0.634 8.54,-1.114 5.87,-2.934 8.55,-7.83 9.7,-13.488 1,-4.972 0.75,-10.565 0.75,-15.637 0,-22.97 -2.05,-133.847 -1.09,-156.974 0.07,-1.608 -1.18,-2.968 -2.79,-3.035 -1.61,-0.068 -2.97,1.184 -3.04,2.792 -0.96,23.163 1.09,134.211 1.09,157.217 0,4.696 0.29,9.877 -0.64,14.481 -0.79,3.917 -2.53,7.396 -6.59,9.427 -1.68,0.843 -3,1.162 -4.07,0.801 -1.69,-0.566 -2.46,-2.509 -3.12,-4.739 -1.88,-6.341 -1.48,-15.422 -1.73,-19.259 -0.08,-1.247 -0.28,-2.141 -0.47,-2.603 -0.21,-0.497 -0.48,-0.849 -0.73,-1.1 -0.68,-0.682 -2.04,-1.243 -3.81,-1.155 -1.11,0.056 -3.31,0.34 -3.87,0.414 z"
   style="font-variation-settings:normal;opacity:1;vector-effect:none;fill:#000344;fill-opacity:1;stroke-width:1;stroke-linecap:butt;stroke-linejoin:miter;stroke-miterlimit:2;stroke-dasharray:none;stroke-dashoffset:0;stroke-opacity:1;-inkscape-stroke:none;stop-color:#000000;stop-opacity:1"
   id="path40" />
                        <path
   d="m 1640.28,790.249 c 1.13,-1.429 2.76,-1.449 4.48,-1.345 2.36,0.144 4.9,0.591 7.17,0.024 0.78,-0.195 1.26,-0.987 1.06,-1.768 -0.19,-0.781 -0.99,-1.256 -1.77,-1.061 -1.98,0.497 -4.21,0.02 -6.28,-0.106 -2.71,-0.165 -5.17,0.197 -6.95,2.446 -0.5,0.631 -0.39,1.549 0.24,2.048 0.63,0.5 1.55,0.393 2.05,-0.238 z"
   style="font-variation-settings:normal;opacity:1;vector-effect:none;fill:#000344;fill-opacity:1;stroke-width:1;stroke-linecap:butt;stroke-linejoin:miter;stroke-miterlimit:2;stroke-dasharray:none;stroke-dashoffset:0;stroke-opacity:1;-inkscape-stroke:none;stop-color:#000000;stop-opacity:1"
   id="path42" />
                        <path
   d="m 1680.54,761.683 c 5.65,0.003 11.04,1.396 16.88,1.396 0.8,0 1.46,-0.654 1.46,-1.458 0,-0.805 -0.66,-1.459 -1.46,-1.459 -5.84,0 -11.23,-1.392 -16.88,-1.396 -0.8,0 -1.45,0.653 -1.45,1.458 0,0.805 0.65,1.459 1.45,1.459 z"
   style="font-variation-settings:normal;opacity:1;vector-effect:none;fill:#000344;fill-opacity:1;stroke-width:1;stroke-linecap:butt;stroke-linejoin:miter;stroke-miterlimit:2;stroke-dasharray:none;stroke-dashoffset:0;stroke-opacity:1;-inkscape-stroke:none;stop-color:#000000;stop-opacity:1"
   id="path44" />
                        <path
   d="m 1679.52,770.483 c 0.12,-0.057 0.4,-0.185 0.63,-0.252 0.5,-0.147 1.12,-0.263 1.82,-0.36 4.45,-0.616 11.78,-0.362 13.57,-0.362 0.81,0 1.46,-0.654 1.46,-1.458 0,-0.805 -0.65,-1.459 -1.46,-1.459 -2.13,0 -11.76,-0.304 -15.87,0.747 -0.81,0.207 -1.45,0.478 -1.87,0.774 -0.54,0.373 -0.84,0.824 -0.97,1.281 -0.23,0.773 0.22,1.583 0.99,1.808 0.68,0.196 1.38,-0.119 1.7,-0.719 z"
   style="font-variation-settings:normal;opacity:1;vector-effect:none;fill:#000344;fill-opacity:1;stroke-width:1;stroke-linecap:butt;stroke-linejoin:miter;stroke-miterlimit:2;stroke-dasharray:none;stroke-dashoffset:0;stroke-opacity:1;-inkscape-stroke:none;stop-color:#000000;stop-opacity:1"
   id="path46" />
                    </g>
                </g>
                <g
   transform="matrix(-0.938081,-0.0308231,-0.0723127,2.20079,3368.29,-389.586)"
   id="g54">
                    <path
   d="m 1857.7,354.492 c -0.91,-1.824 -6.35,-9.328 -17.98,-6.446 -10.32,2.558 -13.29,18.906 -1.08,25.013 10.86,5.427 25.16,-6.367 19.06,-18.567 z"
   style="font-variation-settings:normal;opacity:1;vector-effect:none;fill:#000344;fill-opacity:1;stroke-width:0.695595;stroke-linecap:butt;stroke-linejoin:miter;stroke-miterlimit:2;stroke-dasharray:none;stroke-dashoffset:0;stroke-opacity:1;-inkscape-stroke:none;stop-color:#000000;stop-opacity:1"
   id="path52" />
                </g>
                <g
   transform="matrix(-0.999885,0.0151515,0.0302728,1.99778,3452.63,-403.843)"
   id="g58">
                    <path
   d="m 1886.04,339.835 c -5.19,0.503 -7.63,1.075 -10.75,7.328 -5.21,10.409 4.97,22.067 15.14,20.033 16.29,-3.258 10.25,-27.361 -4.39,-27.361 z"
   style="font-variation-settings:normal;opacity:1;vector-effect:none;fill:#000344;fill-opacity:1;stroke-width:0.707459;stroke-linecap:butt;stroke-linejoin:miter;stroke-miterlimit:2;stroke-dasharray:none;stroke-dashoffset:0;stroke-opacity:1;-inkscape-stroke:none;stop-color:#000000;stop-opacity:1"
   id="path56" />
                </g>
                <g
   transform="matrix(-0.99524,-0.0974585,-0.191878,1.95944,3515.43,-155.701)"
   id="g62">
                    <path
   d="m 1922.7,329.419 c -16.72,-5.751 -25.15,21.53 -6.86,27.516 7.5,2.455 21.91,-6.986 17.1,-16.612 -1.53,-3.068 -2.89,-8.378 -10.24,-10.904 z"
   style="font-variation-settings:normal;opacity:1;vector-effect:none;fill:#000344;fill-opacity:1;stroke-width:0.712685;stroke-linecap:butt;stroke-linejoin:miter;stroke-miterlimit:2;stroke-dasharray:none;stroke-dashoffset:0;stroke-opacity:1;-inkscape-stroke:none;stop-color:#000000;stop-opacity:1"
   id="path60" />
                </g>
                <g
   transform="matrix(-1.30336,0.103865,0.104544,1.31188,3975.6,-287.091)"
   id="g66">
                    <path
   d="m 1824.03,286.036 c 9.35,5.485 12.72,1.055 15.8,-0.972 7.78,-5.112 -1.07,-27.414 -9.77,-33.078 -16.83,-10.955 -13.75,29.52 -6.03,34.05 z"
   style="font-variation-settings:normal;opacity:1;vector-effect:none;fill:#000344;fill-opacity:1;stroke-width:0.762335;stroke-linecap:butt;stroke-linejoin:miter;stroke-miterlimit:2;stroke-dasharray:none;stroke-dashoffset:0;stroke-opacity:1;-inkscape-stroke:none;stop-color:#000000;stop-opacity:1"
   id="path64" />
                </g>
                <g
   transform="matrix(-1.11914,-0.136276,-0.191043,1.56889,3721.18,103.72)"
   id="g70">
                    <path
   d="m 1885.16,254.769 c -0.78,-3.131 -7.94,-16.445 -12.8,-17.255 -24.66,-4.111 -10.11,43.766 8.91,29.501 3.96,-2.972 5.11,-7.393 3.89,-12.246 z"
   style="font-variation-settings:normal;opacity:1;vector-effect:none;fill:#000344;fill-opacity:1;stroke-width:0.749144;stroke-linecap:butt;stroke-linejoin:miter;stroke-miterlimit:2;stroke-dasharray:none;stroke-dashoffset:0;stroke-opacity:1;-inkscape-stroke:none;stop-color:#000000;stop-opacity:1"
   id="path68" />
                </g>
                <g
   transform="matrix(-1.16352,0.0927213,0.109606,1.3754,3720.69,-246.124)"
   id="g74">
                    <path
   d="m 1811.86,171.354 c -7.53,-10.195 -24.85,-7.877 -19.65,7.713 3.92,11.783 14.99,28.315 30.2,15.662 7.09,-5.903 -3.21,-18.006 -10.55,-23.375 z"
   style="font-variation-settings:normal;opacity:1;vector-effect:none;fill:#000344;fill-opacity:1;stroke-width:0.787996;stroke-linecap:butt;stroke-linejoin:miter;stroke-miterlimit:2;stroke-dasharray:none;stroke-dashoffset:0;stroke-opacity:1;-inkscape-stroke:none;stop-color:#000000;stop-opacity:1"
   id="path72" />
                </g>
                <path
   d="m 1720.07,231.592 v 0.026 c 0.06,0.863 -0.05,1.893 -0.25,2.967 -0.38,2.114 -1.13,4.382 -1.95,5.999 -0.25,0.471 -0.66,1.054 -0.78,1.225 -1.83,0.854 -4.24,1.093 -6.39,1.686 -2.11,0.585 -4.02,1.452 -5.43,2.861 -0.54,0.539 -1.11,1.594 -1.28,3.117 -0.31,2.718 0.42,8.129 0.42,9.68 0,4.848 -1.74,18.314 -1.03,27.721 0.36,4.878 1.55,8.767 3.42,10.634 0.36,0.362 0.95,0.769 1.86,0.955 0.58,0.118 1.55,0.158 2.85,0.049 5.32,-0.444 18.2,-3.237 29.15,-5.005 5.23,-0.844 9.99,-1.459 13.17,-1.403 0.65,0.012 1.4,0.117 1.81,0.185 1.32,2.809 1.72,4.953 1.12,6.648 -0.41,1.154 -1.32,1.99 -2.49,2.677 -1.58,0.923 -3.61,1.549 -5.89,2.022 -9.13,1.893 -22.04,1.234 -30.69,2.408 -4.53,0.614 -8.02,1.851 -9.87,3.696 -0.45,0.458 -0.93,1.16 -1.3,2.142 -0.53,1.349 -0.96,3.48 -1.25,6.163 -1.52,13.732 -0.05,43.424 0.84,48.634 0.27,1.587 1.78,2.654 3.37,2.383 1.59,-0.272 2.65,-1.78 2.38,-3.367 -0.75,-4.415 -1.91,-26.985 -1.21,-41.468 0.18,-3.591 0.46,-6.668 0.91,-8.798 0.14,-0.659 0.43,-1.464 0.5,-1.669 0.72,-0.647 1.88,-1.021 3.27,-1.363 1.96,-0.479 4.33,-0.762 6.95,-0.962 8.48,-0.651 19.3,-0.432 27.29,-2.087 6.45,-1.337 11.13,-4.076 12.69,-8.459 1.04,-2.937 0.81,-6.815 -1.71,-11.86 -0.51,-1.014 -1.63,-2.024 -3.6,-2.456 -2.16,-0.471 -6,-0.341 -10.65,0.227 -12.11,1.478 -30.36,5.748 -35.82,5.942 -0.22,-0.427 -0.39,-0.955 -0.56,-1.543 -0.37,-1.348 -0.59,-2.973 -0.73,-4.762 -0.69,-9.259 1.06,-22.512 1.06,-27.284 0,-1.036 -0.34,-3.814 -0.47,-6.337 -0.05,-0.914 0,-2.135 0.03,-2.694 0.96,-0.701 2.25,-0.98 3.55,-1.282 2.29,-0.533 4.66,-0.973 6.52,-1.902 0.79,-0.396 1.76,-1.278 2.6,-2.655 1.26,-2.063 2.5,-5.484 3.08,-8.649 0.36,-1.954 0.45,-3.817 0.24,-5.256 -0.23,-1.512 -0.81,-2.678 -1.58,-3.446 -0.36,-0.362 -0.98,-0.792 -1.95,-0.997 -0.7,-0.146 -1.89,-0.207 -3.47,-0.133 -7.1,0.331 -24.16,3.118 -35.67,4.069 -3.48,0.287 -7.33,0.135 -8.72,0.063 -0.16,-0.897 -0.03,-1.982 0.14,-3.101 0.46,-3.2 1.59,-6.623 1.92,-8.605 1.97,-11.819 4.66,-17.964 9.12,-20.914 3.25,-2.145 7.32,-2.49 12.34,-2.433 5.71,0.064 12.52,0.737 20.65,0.737 4,0 18.04,0.161 21.99,0.717 3.46,3.524 5.67,6.445 6.82,8.914 0.85,1.821 1.1,3.251 0.57,4.418 -0.57,1.234 -1.84,2.056 -3.43,2.779 -2.12,0.968 -4.79,1.635 -7.69,2.16 -8.51,1.539 -18.92,1.834 -25.1,3.38 -1.68,0.42 -3.41,0.104 -5.11,-0.325 -2.22,-0.559 -4.39,-1.35 -6.39,-1.75 -0.15,-0.029 -0.59,-0.08 -1.22,-0.047 -0.59,0.031 -2.04,0.091 -3.05,0.132 -0.83,-2.004 -0.99,-3.458 -0.34,-4.554 0.8,-1.339 2.55,-1.87 4.53,-2.271 5.6,-1.133 13.12,-0.262 16.88,-0.262 1.61,0 2.92,-1.307 2.92,-2.917 0,-1.61 -1.31,-2.917 -2.92,-2.917 -4.02,0 -12.05,-0.832 -18.03,0.379 -3.82,0.772 -6.85,2.421 -8.39,4.997 -1.53,2.57 -1.84,6.31 0.81,11.624 0.27,0.537 0.84,1.307 2.08,1.631 0.91,0.242 5.01,0.031 5.86,-0.017 1.83,0.398 3.81,1.119 5.83,1.628 2.64,0.666 5.34,0.981 7.95,0.328 7.72,-1.929 22.03,-1.909 30.99,-4.813 5.79,-1.876 9.49,-5.085 9.88,-9.66 0.35,-4.001 -2.12,-9.758 -9.87,-17.51 -0.24,-0.237 -0.63,-0.559 -1.28,-0.783 -0.45,-0.157 -1.44,-0.342 -2.82,-0.465 -5.23,-0.466 -17.69,-0.629 -21.47,-0.629 -9.79,0 -17.68,-0.968 -24.03,-0.69 -4.81,0.21 -8.81,1.129 -12.17,3.351 -5.37,3.546 -9.29,10.617 -11.66,24.823 -0.34,2.01 -1.48,5.484 -1.95,8.729 -0.4,2.808 -0.27,5.472 0.68,7.368 0.45,0.892 1.54,1.928 3.59,2.337 2.09,0.419 5.91,0.366 10.57,-0.019 12.14,-1.003 30.53,-4.129 36.46,-4.092 z"
   style="font-variation-settings:normal;opacity:1;vector-effect:none;fill:#000344;fill-opacity:1;stroke-width:1;stroke-linecap:butt;stroke-linejoin:miter;stroke-miterlimit:2;stroke-dasharray:none;stroke-dashoffset:0;stroke-opacity:1;-inkscape-stroke:none;stop-color:#000000;stop-opacity:1"
   id="path76" />
                <g
   transform="translate(1196.21,-1018.89)"
   id="g80">
                    <path
   d="m 492.461,1269.86 c 0.669,1.46 1.019,3.46 1.292,5.61 0.508,3.98 0.667,8.44 1.211,11.7 1.299,7.8 -0.401,16.63 -0.401,24.39 0,1.34 0.281,3.3 0.426,5.22 0.093,1.24 0.258,2.46 -0.118,3.21 -0.154,0.31 -0.519,0.49 -0.903,0.68 -0.723,0.37 -1.603,0.61 -2.508,0.73 -1.46,0.18 -3.05,0.17 -3.982,-0.56 -0.041,-0.3 -0.153,-1.18 -0.15,-1.76 0.01,-1.62 0.164,-3.29 0.083,-4.18 -0.86,-9.46 -0.348,-18.72 -0.348,-28.21 0,-1.61 -1.307,-2.91 -2.917,-2.91 -1.61,0 -2.917,1.3 -2.917,2.91 0,9.67 -0.504,19.1 0.373,28.74 0.108,1.19 -0.245,3.81 0.003,5.75 0.2,1.57 0.776,2.83 1.56,3.62 1.974,1.97 5.58,2.82 9.029,2.38 3.574,-0.45 6.75,-2.3 7.895,-4.58 0.619,-1.24 0.86,-3.07 0.786,-5.06 -0.079,-2.11 -0.478,-4.46 -0.478,-5.98 0,-8.07 1.671,-17.24 0.321,-25.35 -0.533,-3.19 -0.68,-7.57 -1.178,-11.48 -0.382,-3 -0.99,-5.75 -1.974,-7.72 -0.824,-1.65 -2.491,-2.72 -4.74,-3.06 -3.017,-0.45 -7.397,0.54 -9.042,0.75 -4.823,0.6 -7.924,1.75 -10.008,3.33 -2.213,1.66 -3.443,3.82 -4.161,6.62 -0.832,3.24 -0.898,7.52 -1.691,13.07 -0.684,4.79 -0.287,9.93 -0.107,15.03 0.161,4.55 0.161,9.07 -1.31,13.2 -0.54,1.52 0.254,3.19 1.77,3.73 1.517,0.54 3.186,-0.26 3.726,-1.77 1.713,-4.82 1.831,-10.07 1.644,-15.37 -0.168,-4.75 -0.585,-9.53 0.052,-13.99 0.64,-4.48 0.774,-8.12 1.268,-11.02 0.356,-2.09 0.831,-3.72 2.322,-4.85 1.491,-1.12 3.768,-1.76 7.219,-2.19 1.21,-0.15 4.137,-0.88 6.581,-0.84 0.458,0.01 1.123,0.15 1.372,0.21 z"
   style="font-variation-settings:normal;opacity:1;vector-effect:none;fill:#000344;fill-opacity:1;stroke-width:1;stroke-linecap:butt;stroke-linejoin:miter;stroke-miterlimit:2;stroke-dasharray:none;stroke-dashoffset:0;stroke-opacity:1;-inkscape-stroke:none;stop-color:#000000;stop-opacity:1"
   id="path78" />
                </g>
                <g
   transform="translate(1196.21,-1018.89)"
   id="g84">
                    <path
   d="m 454.734,1414.67 c 1.239,-0.91 2.539,-2.28 3.879,-3.61 0.977,-0.96 1.943,-1.95 3.03,-2.31 5.629,-1.88 12.35,-6.34 19.284,-9.83 6.075,-3.07 12.302,-5.5 18.03,-3.67 1.534,0.48 3.176,-0.37 3.664,-1.9 0.488,-1.53 -0.361,-3.18 -1.895,-3.66 -5.765,-1.84 -11.986,-0.58 -18.151,2.02 -8.151,3.45 -16.212,9.32 -22.777,11.5 -1.525,0.51 -3.019,1.58 -4.418,2.87 -1.359,1.26 -2.62,2.77 -3.848,3.7 0.044,-1.57 0.224,-3.36 0.438,-5.23 0.841,-7.35 2.714,-15.83 3.011,-19.98 0.837,-11.73 1.799,-24.32 4.605,-35.54 0.359,-1.44 -0.028,-5.11 0.03,-8.15 0.01,-0.52 0.105,-1.21 0.176,-1.65 0.779,-0.15 2.223,-0.42 3.57,-0.58 5.867,-0.7 15.01,-1.19 17.421,-0.79 2.249,0.38 5.36,-0.11 8.366,-0.53 1.209,-0.18 2.397,-0.33 3.47,-0.33 0.458,-0.01 0.888,0 1.262,0.07 0.129,0.59 0.405,1.93 0.468,2.95 0.232,3.78 -0.146,8.51 -0.146,10.1 0,3.87 1.815,11.25 1.712,17.3 -0.029,1.66 -0.198,3.19 -0.687,4.46 -0.326,0.84 -0.793,1.55 -1.575,1.94 -1.843,0.92 -4.009,1.22 -6.192,1.52 -2.72,0.37 -5.471,0.7 -7.916,1.59 -4.147,1.51 -7.843,4.27 -11.83,5.93 -0.37,-1.84 -0.323,-4.04 -0.148,-6.34 0.434,-5.73 1.877,-12.03 2.188,-16.08 0.072,-0.94 0.158,-2.76 0.513,-4.36 0.122,-0.55 0.168,-1.1 0.444,-1.37 0.844,-0.85 3.327,-2.01 5.787,-3.06 1.397,-0.59 3.099,-1.16 4.298,-1.54 1.134,4.35 0.371,10.44 0.263,11.23 -0.124,0.32 -0.191,0.67 -0.191,1.04 0,1.61 1.307,2.91 2.916,2.91 0.296,0 2.379,-0.16 2.94,-2.52 0.44,-1.86 1.481,-11.41 -1.412,-17.2 -0.299,-0.59 -0.789,-1.14 -1.596,-1.48 -0.495,-0.2 -1.597,-0.39 -3.098,-0.05 -3.609,0.82 -12.074,4.58 -14.032,6.54 -0.722,0.73 -1.337,1.84 -1.74,3.18 -0.634,2.11 -0.806,4.9 -0.908,6.23 -0.312,4.05 -1.754,10.35 -2.189,16.08 -0.335,4.42 -0.026,8.53 1.407,11.39 0.163,0.33 0.688,1.36 2.194,1.6 0.463,0.07 2.586,-0.07 2.779,-0.13 4.594,-1.53 8.721,-4.81 13.409,-6.52 2.068,-0.75 4.406,-0.98 6.707,-1.29 2.836,-0.38 5.622,-0.88 8.016,-2.08 3.767,-1.89 5.394,-6.22 5.485,-11.52 0.104,-6.09 -1.711,-13.51 -1.711,-17.4 0,-1.95 0.503,-8.38 -0.06,-12.51 -0.234,-1.71 -0.688,-3.1 -1.254,-3.99 -0.49,-0.76 -1.094,-1.28 -1.739,-1.6 -1.729,-0.87 -4.234,-0.99 -6.972,-0.69 -2.866,0.32 -6.067,1.15 -8.269,0.78 -2.638,-0.44 -12.647,-0.02 -19.067,0.74 -3.303,0.4 -5.77,1.05 -6.455,1.51 -1.179,0.79 -2.115,2.49 -2.349,4.84 -0.189,1.89 -0.026,4.32 0.059,6.32 0.038,0.89 0.107,1.65 -0.003,2.09 -2.886,11.54 -3.904,24.49 -4.765,36.54 -0.344,4.83 -2.83,15.5 -3.32,23.42 -0.25,4.02 0.089,7.43 1.098,9.45 0.675,1.35 1.763,1.89 3.247,1.65 0.461,-0.08 1.204,-0.34 1.954,-1.02 0.732,-0.65 2.205,-2.49 2.593,-2.98 z m 27.507,-54.77 -0.023,0.02 0.041,-0.03 z m 1.221,-0.42 c -0.375,0.03 -0.773,0.15 -1.172,0.39 0.35,-0.21 0.747,-0.35 1.172,-0.39 z m 0.115,-0.02 -0.062,0.01 0.097,-0.01 z"
   style="font-variation-settings:normal;opacity:1;vector-effect:none;fill:#000344;fill-opacity:1;stroke-width:1;stroke-linecap:butt;stroke-linejoin:miter;stroke-miterlimit:2;stroke-dasharray:none;stroke-dashoffset:0;stroke-opacity:1;-inkscape-stroke:none;stop-color:#000000;stop-opacity:1"
   id="path82" />
                </g>
                <path
   d="m 1728.55,331.178 c 6.52,-3.836 25.23,-9.217 37.34,-7.921 4.28,0.457 7.77,1.536 8.67,4.682 1.28,4.503 5.71,26.907 6.86,41.332 0.29,3.535 0.38,6.567 0.15,8.677 -0.06,0.518 -0.23,1.185 -0.29,1.434 -0.34,0.222 -0.79,0.239 -1.28,0.25 -1.16,0.026 -2.48,-0.241 -3.86,-0.63 -5.1,-1.431 -10.86,-4.474 -13.41,-5.111 -6.29,-1.574 -11.86,-1.687 -16.29,-2.42 -2.5,-0.416 -4.58,-0.951 -5.97,-2.577 -1.49,-1.746 -2.11,-4.552 -2.11,-9.042 0,-2.189 -0.23,-4.91 -0.22,-7.574 0,-1.675 0.08,-3.331 0.48,-4.736 3.27,-0.69 11.16,-2.241 16.44,-2.628 1.07,-0.078 2.32,-0.036 2.98,-0.003 0.24,0.532 0.62,1.41 0.89,2.193 1.33,3.902 2.73,9.817 2.73,11.725 0,1.61 1.31,2.917 2.92,2.917 1.61,0 2.92,-1.307 2.92,-2.917 0,-2.209 -1.51,-9.086 -3.05,-13.603 -0.81,-2.387 -1.76,-4.172 -2.41,-4.816 -0.67,-0.678 -2.35,-1.393 -4.82,-1.412 -5.75,-0.044 -17.88,2.411 -20.77,3.041 -1.93,0.422 -2.58,1.664 -2.59,1.685 -0.95,1.894 -1.39,4.279 -1.51,6.812 -0.16,3.194 0.18,6.645 0.18,9.316 0,6.431 1.37,10.328 3.51,12.83 2.23,2.622 5.41,3.874 9.45,4.543 4.3,0.713 9.71,0.796 15.83,2.325 3,0.749 10.4,4.781 16.02,5.698 3.47,0.564 6.39,-0.038 8.22,-1.865 0.51,-0.51 0.99,-1.277 1.33,-2.341 0.43,-1.397 0.66,-3.585 0.64,-6.329 -0.11,-13.682 -5.85,-43.074 -7.37,-48.377 -1.48,-5.202 -6.58,-8.124 -13.65,-8.88 -13.86,-1.482 -35.53,5.061 -41.88,9.299 -0.39,0.257 -0.87,0.702 -1.24,1.477 -0.37,0.766 -0.79,2.501 -1.11,4.902 -1.33,10.003 -2.07,33.555 -1.83,35.86 0.16,1.601 1.59,2.769 3.19,2.605 1.61,-0.163 2.77,-1.596 2.61,-3.197 -0.22,-2.218 0.53,-24.876 1.81,-34.501 0.13,-0.999 0.36,-2.128 0.49,-2.723 z"
   style="font-variation-settings:normal;opacity:1;vector-effect:none;fill:#000344;fill-opacity:1;stroke-width:1;stroke-linecap:butt;stroke-linejoin:miter;stroke-miterlimit:2;stroke-dasharray:none;stroke-dashoffset:0;stroke-opacity:1;-inkscape-stroke:none;stop-color:#000000;stop-opacity:1"
   id="path86" />
                <path
   d="m 1782.25,278.056 c 1.06,3.146 3.13,12.806 3.78,16.874 -2.21,1.211 -7.02,3.967 -9.08,6.106 -1.33,1.384 -2.01,2.859 -2.07,4.157 -0.05,1.239 0.34,2.456 1.44,3.56 0.67,0.666 1.55,1.111 2.67,1.249 1.23,0.151 2.98,-0.174 4.86,-0.737 1.44,-0.427 2.99,-0.974 4.36,-1.229 0.27,-0.05 0.64,-0.073 0.9,-0.082 0.1,0.309 0.23,0.787 0.29,1.17 0.18,1.264 0.23,2.813 0.22,4.473 -0.04,5.822 -0.58,12.812 0.31,15.485 4.35,13.049 1.73,27.493 3.98,40.961 1.51,9.066 5.03,17.894 5.63,26.936 0.11,1.606 1.5,2.824 3.1,2.718 1.61,-0.107 2.83,-1.497 2.72,-3.104 -0.61,-9.231 -4.16,-18.253 -5.7,-27.509 -2.29,-13.763 0.25,-28.511 -4.2,-41.847 -0.32,-0.968 -0.3,-2.672 -0.27,-4.668 0.07,-3.68 0.38,-8.182 0.21,-11.709 -0.16,-3.422 -1,-6.072 -2.18,-7.254 -0.86,-0.863 -2.01,-1.374 -3.41,-1.488 -1.25,-0.102 -2.8,0.153 -4.42,0.594 -0.66,0.179 -1.33,0.387 -1.99,0.593 0.15,-0.114 0.3,-0.221 0.45,-0.316 2.44,-1.594 5.21,-2.966 6.32,-3.66 0.97,-0.611 1.41,-1.272 1.56,-1.557 0.11,-0.229 0.39,-0.877 0.3,-1.929 -0.15,-2 -1.85,-10.51 -3.22,-15.972 -0.57,-2.271 -1.11,-4.051 -1.45,-4.781 -0.41,-0.868 -0.93,-1.299 -1.23,-1.496 -3.24,-2.161 -7.51,-3.049 -12.34,-3.124 -6.42,-0.1 -13.91,1.208 -20.91,1.989 -4.32,0.483 -8.44,0.768 -11.93,0.264 -4.25,-0.613 -7.44,-2.534 -8.25,-7.405 -0.22,-1.298 -0.35,-2.342 -0.37,-3.199 -0.02,-0.572 -0.07,-0.985 0.16,-1.278 0.24,-0.298 0.64,-0.447 1.13,-0.66 0.97,-0.416 2.22,-0.81 3.77,-1.328 4.5,-1.501 8.41,-3.884 13.08,-5.049 5.08,-1.271 11.53,0.418 17.03,1.069 5.44,0.644 10.09,0.175 12.81,-2.619 2.6,-2.663 3.89,-7.92 1.41,-17.833 -0.82,-3.303 -2.46,-5.51 -4.59,-6.953 -2.91,-1.97 -6.91,-2.468 -11.41,-1.927 -5.73,0.688 -12.39,3.003 -18.12,4.765 -3.38,1.04 -6.39,1.906 -8.58,1.906 -1.61,0 -2.91,1.306 -2.91,2.916 0,1.61 1.3,2.917 2.91,2.917 2.62,0 6.25,-0.919 10.29,-2.163 5.42,-1.664 11.69,-3.899 17.1,-4.549 4.56,-0.548 8.51,-0.058 9.65,4.503 0.96,3.808 1.33,6.724 1.19,8.949 -0.1,1.564 -0.41,2.68 -1.12,3.399 -0.65,0.671 -1.58,0.925 -2.64,1.058 -1.56,0.196 -3.37,0.067 -5.3,-0.162 -6.18,-0.731 -13.44,-2.361 -19.14,-0.935 -4.81,1.202 -8.86,3.626 -13.5,5.174 -4.09,1.36 -6.39,2.35 -7.62,3.88 -1.33,1.665 -1.81,4.152 -0.99,9.078 1.7,10.169 9.5,12.829 19.69,12.515 7.68,-0.237 16.77,-2.171 24.65,-2.46 4.24,-0.156 8.09,0.111 10.97,1.724 z"
   style="font-variation-settings:normal;opacity:1;vector-effect:none;fill:#000344;fill-opacity:1;stroke-width:1;stroke-linecap:butt;stroke-linejoin:miter;stroke-miterlimit:2;stroke-dasharray:none;stroke-dashoffset:0;stroke-opacity:1;-inkscape-stroke:none;stop-color:#000000;stop-opacity:1"
   id="path88" />
                <path
   d="m 1707.33,162.335 c -1.44,0.594 -6.22,2.494 -9.76,3.082 -1.22,0.203 -2.39,0.322 -3.4,0.29 -0.4,-0.012 -0.96,-0.124 -1.23,-0.184 -0.41,-1.232 0.15,-2.741 0.77,-4.316 1.55,-3.914 4.3,-7.996 5.14,-10.521 1.67,-5.01 3.59,-8.058 6.38,-12.711 4.17,-6.954 7.56,-14.249 11.68,-21.169 0.82,-1.383 0.36,-3.175 -1.02,-3.997 -1.39,-0.822 -3.18,-0.366 -4,1.018 -4.11,6.912 -7.49,14.2 -11.66,21.146 -3.04,5.07 -5.09,8.41 -6.91,13.869 -0.82,2.455 -3.53,6.412 -5.03,10.219 -1.36,3.44 -1.73,6.804 -0.44,9.387 0.56,1.107 1.52,1.979 2.9,2.51 1.8,0.692 4.67,0.729 7.78,0.213 4.66,-0.776 9.91,-2.654 11.99,-3.87 1.37,-0.801 1.96,-1.776 2.13,-2.302 0.46,-1.367 0.68,-3.519 0.82,-6.048 0.17,-3.186 0.24,-7.077 0.9,-10.486 0.5,-2.559 1.16,-4.906 3.03,-5.855 1.18,-0.599 2.75,-0.493 4.86,0.209 0.29,0.097 0.36,0.365 0.4,0.65 0.12,0.647 0.05,1.395 -0.07,2.194 -0.68,4.206 -3.23,9.372 -3.78,11.572 -0.48,1.936 -0.18,4.23 0.22,6.395 0.14,0.784 0.29,1.545 0.36,2.241 0.03,0.324 0.08,0.619 0,0.861 -1.07,3.19 -4.33,5.25 -7.99,6.785 -6.33,2.655 -14.07,3.489 -17.36,3.489 -1.61,0 -2.92,1.307 -2.92,2.917 0,1.609 1.31,2.916 2.92,2.916 3.72,0 12.47,-0.943 19.62,-3.943 5.33,-2.237 9.71,-5.669 11.26,-10.319 0.44,-1.301 0.37,-3.042 0.04,-4.942 -0.29,-1.638 -0.86,-3.472 -0.49,-4.985 0.69,-2.753 4.14,-9.884 4.08,-14.606 -0.04,-3.303 -1.4,-5.743 -4.45,-6.759 -4.05,-1.35 -7.07,-1.028 -9.34,0.124 -2.34,1.19 -4,3.348 -5.06,6.13 -1.27,3.328 -1.68,7.632 -1.89,11.596 -0.15,2.841 -0.15,5.474 -0.48,7.2 z"
   style="font-variation-settings:normal;opacity:1;vector-effect:none;fill:#000344;fill-opacity:1;stroke-width:1;stroke-linecap:butt;stroke-linejoin:miter;stroke-miterlimit:2;stroke-dasharray:none;stroke-dashoffset:0;stroke-opacity:1;-inkscape-stroke:none;stop-color:#000000;stop-opacity:1"
   id="path90" />
                <path
   d="m 1726.88,123.746 c 0.24,0.332 0.86,1.181 1.33,1.985 1.88,3.218 4.39,8.576 6.65,14.044 1.95,4.695 3.72,9.472 4.75,13.058 0.26,0.925 0.47,1.924 0.61,2.707 -0.73,-0.077 -1.5,-0.205 -2.22,-0.299 -1.4,-0.18 -2.69,-0.203 -3.61,0.032 -0.84,0.212 -1.51,0.603 -2.03,1.118 -0.38,0.385 -0.91,1.191 -1.25,2.425 -0.69,2.452 -1.21,7.724 -1.17,11.41 0.02,1.586 0.16,2.913 0.37,3.719 0.25,0.935 0.67,1.548 1.03,1.906 0.96,0.958 2.24,1.506 3.83,1.592 1.46,0.08 3.3,-0.284 5.26,-0.889 2.33,-0.718 4.91,-1.774 7.13,-2.317 0.86,-0.209 1.63,-0.42 2.22,-0.259 0.1,0.116 0.71,0.802 1.03,1.376 0.73,1.285 1.41,3.003 2.04,4.984 3.21,9.987 5.24,26.272 5.24,31.277 0,1.609 1.3,2.916 2.91,2.916 1.61,0 2.92,-1.307 2.92,-2.916 0,-5.29 -2.12,-22.505 -5.51,-33.061 -0.95,-2.954 -2.02,-5.417 -3.14,-7.07 -1.1,-1.643 -2.37,-2.618 -3.57,-3.018 -1.25,-0.418 -2.85,-0.441 -4.64,-0.09 -1.95,0.382 -4.21,1.202 -6.41,1.962 -1.53,0.53 -3.02,1.034 -4.3,1.223 -0.1,0.015 -0.23,0.024 -0.35,0.03 l 0.76,-10.621 0.12,0.012 c 0.81,0.091 1.7,0.241 2.54,0.338 2.45,0.283 4.61,-0.173 5.75,-1.315 0.6,-0.596 1.26,-1.893 1.08,-3.93 -0.3,-3.401 -2.9,-11.076 -6,-18.534 -3.07,-7.417 -6.62,-14.617 -8.62,-17.217 -1.29,-1.667 -2.7,-2.1 -3.43,-2.109 -1.6,-0.018 -2.93,1.274 -2.94,2.884 -0.02,1.156 0.64,2.164 1.62,2.647 z"
   style="font-variation-settings:normal;opacity:1;vector-effect:none;fill:#000344;fill-opacity:1;stroke-width:1;stroke-linecap:butt;stroke-linejoin:miter;stroke-miterlimit:2;stroke-dasharray:none;stroke-dashoffset:0;stroke-opacity:1;-inkscape-stroke:none;stop-color:#000000;stop-opacity:1"
   id="path92" />
                <g
   transform="matrix(1.02549,-0.0515394,0.051853,1.03173,-335.8,-70.0252)"
   id="g118">
                    <g
   transform="matrix(-1,0,0,1,2658.19,-156.251)"
   id="g96">
                        <path
   d="m 352.181,684.295 c 40.929,-19.719 73.397,-13.672 101.485,16.221 l 8.311,-39.961 c 2.82,-17.868 -73.853,-38.87 -99.366,-12.123 -3.154,3.307 -10.43,35.863 -10.43,35.863 z"
   style="font-variation-settings:normal;opacity:1;vector-effect:none;fill:#000344;fill-opacity:1;stroke-width:0.970965;stroke-linecap:butt;stroke-linejoin:miter;stroke-miterlimit:2;stroke-dasharray:none;stroke-dashoffset:0;stroke-opacity:1;-inkscape-stroke:none;stop-color:#000000;stop-opacity:1"
   id="path94" />
                    </g>
                    <g
   transform="matrix(-1,0,0,1,2635.71,-219.82)"
   id="g100">
                        <path
   d="m 350.514,683.479 c 26.427,-18.169 77.413,-18.15 97.714,8.12 l 11.404,-32.147 c 2.821,-17.869 -65.612,-37.647 -91.124,-10.9 -3.155,3.307 -17.994,34.927 -17.994,34.927 z"
   style="font-variation-settings:normal;opacity:1;vector-effect:none;fill:#000344;fill-opacity:1;stroke-width:0.970965;stroke-linecap:butt;stroke-linejoin:miter;stroke-miterlimit:2;stroke-dasharray:none;stroke-dashoffset:0;stroke-opacity:1;-inkscape-stroke:none;stop-color:#000000;stop-opacity:1"
   id="path98" />
                    </g>
                    <g
   transform="matrix(-1,0,0,1,2613.23,-283.388)"
   id="g104">
                        <path
   d="m 369.06,679.064 c 20.76,-12.335 61.65,-12.046 81.586,15.996 l 17.179,-29.421 c -2.722,-13.651 -55.438,-40.477 -77.525,-16.336 -3.085,3.371 -21.24,29.761 -21.24,29.761 z"
   style="font-variation-settings:normal;opacity:1;vector-effect:none;fill:#000344;fill-opacity:1;stroke-width:0.970965;stroke-linecap:butt;stroke-linejoin:miter;stroke-miterlimit:2;stroke-dasharray:none;stroke-dashoffset:0;stroke-opacity:1;-inkscape-stroke:none;stop-color:#000000;stop-opacity:1"
   id="path102" />
                    </g>
                    <g
   transform="matrix(-1,0,0,1,2590.75,-346.957)"
   id="g108">
                        <path
   d="m 402.919,682.805 c 16.002,-7.297 54.394,3.072 61.702,21.309 l 22.285,-25.89 c -15.14,-19.042 -44.824,-24.545 -58.239,-15.466 -3.784,2.562 -25.748,20.047 -25.748,20.047 z"
   style="font-variation-settings:normal;opacity:1;vector-effect:none;fill:#000344;fill-opacity:1;stroke-width:0.970965;stroke-linecap:butt;stroke-linejoin:miter;stroke-miterlimit:2;stroke-dasharray:none;stroke-dashoffset:0;stroke-opacity:1;-inkscape-stroke:none;stop-color:#000000;stop-opacity:1"
   id="path106" />
                    </g>
                    <g
   transform="matrix(-1,0,0,1,2568.27,-410.526)"
   id="g112">
                        <path
   d="m 440.507,707.304 c 9.534,-5.933 33.928,3.413 39.389,20.094 l 21.781,-18.531 c -3.673,-12.07 -10.659,-18.341 -28.237,-16.716 -4.55,0.421 -32.933,15.153 -32.933,15.153 z"
   style="font-variation-settings:normal;opacity:1;vector-effect:none;fill:#000344;fill-opacity:1;stroke-width:0.970965;stroke-linecap:butt;stroke-linejoin:miter;stroke-miterlimit:2;stroke-dasharray:none;stroke-dashoffset:0;stroke-opacity:1;-inkscape-stroke:none;stop-color:#000000;stop-opacity:1"
   id="path110" />
                    </g>
                    <g
   transform="matrix(-1,0,0,1,2514.16,-429.503)"
   id="g116">
                        <path
   d="m 444.972,703.226 c 8.012,0.402 16.484,4.029 18.767,14.566 l 23.411,-11.454 c 0.44,-5.026 -8.322,-9.701 -16.315,-9.337 -4.565,0.207 -25.863,6.225 -25.863,6.225 z"
   style="font-variation-settings:normal;opacity:1;vector-effect:none;fill:#000344;fill-opacity:1;stroke-width:0.970965;stroke-linecap:butt;stroke-linejoin:miter;stroke-miterlimit:2;stroke-dasharray:none;stroke-dashoffset:0;stroke-opacity:1;-inkscape-stroke:none;stop-color:#000000;stop-opacity:1"
   id="path114" />
                    </g>
                </g>
            </g>
            <path
   d="m 544.679,1132.6 c 24.871,25.71 46.955,73.55 61.748,112.55 15.732,41.47 31.262,110.65 37.684,167.29 0.259,2.29 2.324,3.93 4.609,3.67 2.285,-0.26 3.93,-2.32 3.671,-4.61 -6.5,-57.32 -22.25,-127.34 -38.172,-169.31 -15.18,-40.01 -38.029,-89 -63.551,-115.39 -1.598,-1.65 -4.238,-1.7 -5.891,-0.1 -1.653,1.6 -1.697,4.24 -0.098,5.9 z"
   style="font-variation-settings:normal;opacity:1;vector-effect:none;fill:#000344;fill-opacity:1;stroke-width:1;stroke-linecap:butt;stroke-linejoin:miter;stroke-miterlimit:2;stroke-dasharray:none;stroke-dashoffset:0;stroke-opacity:1;-inkscape-stroke:none;stop-color:#000000;stop-opacity:1"
   id="path122" />
            <g
   transform="matrix(1.06107,0,0,1,-38.4832,0)"
   id="g126">
                <path
   d="m 739.828,1399.92 c 0.719,0.96 1.83,1.58 3.075,1.58 2.168,0 3.927,-1.87 3.927,-4.17 0,-1.36 -0.517,-2.79 -1.894,-3.92 -0.81,-0.67 -3.355,-1.71 -4.013,-1.97 -5.736,-5.45 -16.671,-9.28 -25.401,-10.15 -29.173,-2.92 -58.752,1.26 -81.127,21.46 -1.651,1.49 -1.851,4.12 -0.447,5.87 1.404,1.75 3.884,1.97 5.535,0.48 20.744,-18.73 48.256,-22.22 75.302,-19.51 7.265,0.73 16.508,3.66 21.101,8.25 0.408,0.41 1.089,0.89 1.986,1.28 0.477,0.21 1.41,0.59 1.956,0.8 z"
   style="font-variation-settings:normal;opacity:1;vector-effect:none;fill:#000344;fill-opacity:1;stroke-width:0.970796;stroke-linecap:butt;stroke-linejoin:miter;stroke-miterlimit:2;stroke-dasharray:none;stroke-dashoffset:0;stroke-opacity:1;-inkscape-stroke:none;stop-color:#000000;stop-opacity:1"
   id="path124" />
            </g>
            <g
   transform="matrix(1.06107,0,0,1,-37.4404,-7.49541)"
   id="g130">
                <path
   d="m 633.598,1378.71 c 0.43,-0.38 1.456,-1.27 2.354,-1.87 5.671,-3.75 15.697,-7.95 17.803,-8.73 20.005,-7.51 47.777,-12.05 68.379,-4.33 1.704,0.64 7.998,2.24 12.757,4.37 1.301,0.58 2.946,1.69 3.476,2.06 0.417,1.82 1.968,3.18 3.816,3.18 2.167,0 3.926,-1.87 3.926,-4.17 0,-1.42 -0.472,-2.89 -1.555,-4.25 -0.868,-1.1 -2.262,-2.22 -4.034,-3.22 -5.016,-2.82 -13.674,-5.04 -15.769,-5.83 -22.173,-8.31 -52.082,-3.75 -73.613,4.33 -2.654,0.99 -16.676,6.97 -21.941,11.44 -2.692,2.29 -3.522,4.88 -3.322,6.59 0.266,2.29 2.228,3.91 4.379,3.63 1.681,-0.22 2.982,-1.54 3.344,-3.2 z"
   style="font-variation-settings:normal;opacity:1;vector-effect:none;fill:#000344;fill-opacity:1;stroke-width:0.970796;stroke-linecap:butt;stroke-linejoin:miter;stroke-miterlimit:2;stroke-dasharray:none;stroke-dashoffset:0;stroke-opacity:1;-inkscape-stroke:none;stop-color:#000000;stop-opacity:1"
   id="path128" />
            </g>
            <g
   transform="matrix(1.06107,0,0,1,-38.4832,0)"
   id="g134">
                <path
   d="m 723.94,1325.28 c 1.146,1.58 3.233,2.1 4.947,1.13 1.914,-1.07 2.644,-3.6 1.628,-5.63 -0.536,-1.07 -2.133,-2.65 -4.796,-3.91 -6.597,-3.12 -21.34,-6.59 -24.981,-6.59 -21.459,0 -41.662,3.83 -61.57,11.8 -6.967,2.78 -16.88,7.05 -20.582,11.96 -1.354,1.79 -1.08,4.42 0.612,5.85 1.692,1.44 4.165,1.15 5.519,-0.64 1.08,-1.43 2.95,-2.69 5.07,-3.89 3.831,-2.18 8.481,-4.02 12.152,-5.48 19.011,-7.61 38.305,-11.27 58.799,-11.27 2.797,0 13.026,2.46 19.423,4.88 1.546,0.59 3.363,1.56 3.779,1.79 z"
   style="font-variation-settings:normal;opacity:1;vector-effect:none;fill:#000344;fill-opacity:1;stroke-width:0.970796;stroke-linecap:butt;stroke-linejoin:miter;stroke-miterlimit:2;stroke-dasharray:none;stroke-dashoffset:0;stroke-opacity:1;-inkscape-stroke:none;stop-color:#000000;stop-opacity:1"
   id="path132" />
            </g>
            <g
   transform="matrix(1.06107,0,0,1,-38.4832,0)"
   id="g138">
                <path
   d="m 622.357,1304.09 c 1.605,-0.94 3.759,-2.19 4.121,-2.34 6.278,-2.59 13.26,-4.53 19.885,-5.92 9.732,-2.05 25.6,-4.65 40.183,-4.67 9.253,-0.01 17.978,0.95 24.051,3.99 1.96,0.98 4.302,0.09 5.226,-2 0.924,-2.07 0.082,-4.56 -1.879,-5.54 -6.929,-3.47 -16.85,-4.8 -27.409,-4.78 -15.133,0.02 -31.601,2.7 -41.7,4.82 -7.064,1.49 -14.505,3.58 -21.199,6.33 -0.885,0.37 -6.975,3.43 -8.758,5.41 -1.743,1.94 -1.697,3.98 -1.175,5.35 0.406,1.07 1.406,2.72 4.249,3.11 2.15,0.29 4.117,-1.33 4.391,-3.61 z"
   style="font-variation-settings:normal;opacity:1;vector-effect:none;fill:#000344;fill-opacity:1;stroke-width:0.970796;stroke-linecap:butt;stroke-linejoin:miter;stroke-miterlimit:2;stroke-dasharray:none;stroke-dashoffset:0;stroke-opacity:1;-inkscape-stroke:none;stop-color:#000000;stop-opacity:1"
   id="path136" />
            </g>
            <g
   transform="matrix(1.06107,0,0,1,-38.4832,0)"
   id="g142">
                <path
   d="m 611.803,1271.51 c 4.003,-2.25 14.519,-5.1 17.36,-6.08 23.434,-8.15 42.763,-5.08 64.908,0.45 2.11,0.53 4.226,-0.86 4.723,-3.1 0.497,-2.24 -0.812,-4.48 -2.921,-5.01 -23.595,-5.9 -44.19,-8.95 -69.156,-0.26 -3.178,1.1 -15.134,4.5 -19.179,6.98 -3.652,2.25 -3.584,5.51 -2.71,7.2 1.041,2.02 3.43,2.76 5.331,1.66 0.742,-0.44 1.301,-1.08 1.644,-1.84 z m 0.201,-3.11 0.009,0.02 h -0.001 z m -0.11,-0.32 0.065,0.18 -0.006,-0.02 z m -0.083,-0.19 0.08,0.18 -0.008,-0.02 z m -0.003,-0.01 c -0.029,-0.06 -0.059,-0.13 -0.092,-0.19 z"
   style="font-variation-settings:normal;opacity:1;vector-effect:none;fill:#000344;fill-opacity:1;stroke-width:0.970796;stroke-linecap:butt;stroke-linejoin:miter;stroke-miterlimit:2;stroke-dasharray:none;stroke-dashoffset:0;stroke-opacity:1;-inkscape-stroke:none;stop-color:#000000;stop-opacity:1"
   id="path140" />
            </g>
            <g
   transform="matrix(1.06107,0,0,1,-38.4832,0)"
   id="g146">
                <path
   d="m 603.891,1243.23 c 0.652,-0.23 2.034,-0.71 3.284,-1.06 5.22,-1.43 12.914,-2.99 15.576,-3.69 16.153,-4.21 36.195,-5.92 51.086,1.53 1.961,0.98 4.302,0.09 5.226,-1.99 0.924,-2.08 0.083,-4.57 -1.878,-5.55 -16.417,-8.21 -38.501,-6.72 -56.309,-2.08 -3.465,0.91 -15.241,3.26 -19.587,4.96 -2.12,0.82 -3.236,2.05 -3.597,2.71 -0.663,1.21 -0.711,2.39 -0.392,3.5 0.632,2.2 2.828,3.45 4.901,2.78 0.667,-0.22 1.24,-0.61 1.69,-1.11 z m 1.081,-3.2 0.003,0.06 v -0.02 z m -0.028,-0.27 -0.033,-0.2 c 0.024,0.12 0.042,0.25 0.053,0.38 z m -0.064,-0.36 0.027,0.14 -0.017,-0.1 z"
   style="font-variation-settings:normal;opacity:1;vector-effect:none;fill:#000344;fill-opacity:1;stroke-width:0.970796;stroke-linecap:butt;stroke-linejoin:miter;stroke-miterlimit:2;stroke-dasharray:none;stroke-dashoffset:0;stroke-opacity:1;-inkscape-stroke:none;stop-color:#000000;stop-opacity:1"
   id="path144" />
            </g>
            <g
   transform="matrix(1.06107,0,0,1,-38.4832,0)"
   id="g150">
                <path
   d="m 592.92,1218.72 c 11.395,-6.93 30.971,-6.78 44.39,-6.78 2.581,0 5.691,-0.32 8.66,-0.12 2.099,0.13 4.159,0.44 5.585,1.86 1.577,1.58 4.065,1.5 5.551,-0.17 1.486,-1.67 1.413,-4.31 -0.164,-5.89 -2.242,-2.24 -5.162,-3.42 -8.371,-3.9 -3.743,-0.56 -7.914,-0.12 -11.261,-0.12 -14.621,0 -35.88,0.34 -48.296,7.89 -1.88,1.15 -2.532,3.69 -1.454,5.69 1.078,1.99 3.48,2.69 5.36,1.54 z"
   style="font-variation-settings:normal;opacity:1;vector-effect:none;fill:#000344;fill-opacity:1;stroke-width:0.970796;stroke-linecap:butt;stroke-linejoin:miter;stroke-miterlimit:2;stroke-dasharray:none;stroke-dashoffset:0;stroke-opacity:1;-inkscape-stroke:none;stop-color:#000000;stop-opacity:1"
   id="path148" />
            </g>
            <g
   transform="matrix(1.06107,0,0,1,-38.4832,0)"
   id="g154">
                <path
   d="m 582.555,1189.43 c 1.82,-0.54 8.678,-2.6 9.603,-2.85 12.943,-3.53 27.21,-1.44 40.1,1.14 2.13,0.42 4.185,-1.07 4.586,-3.33 0.402,-2.26 -1.001,-4.44 -3.131,-4.86 -13.985,-2.8 -29.468,-4.85 -43.51,-1.02 -1.341,0.36 -9.581,2.06 -12.501,4.16 -2.395,1.73 -2.941,3.99 -2.502,5.93 0.508,2.24 2.631,3.62 4.738,3.08 1.191,-0.31 2.123,-1.16 2.617,-2.25 z"
   style="font-variation-settings:normal;opacity:1;vector-effect:none;fill:#000344;fill-opacity:1;stroke-width:0.970796;stroke-linecap:butt;stroke-linejoin:miter;stroke-miterlimit:2;stroke-dasharray:none;stroke-dashoffset:0;stroke-opacity:1;-inkscape-stroke:none;stop-color:#000000;stop-opacity:1"
   id="path152" />
            </g>
            <g
   transform="matrix(1.06107,0,0,1,-38.4832,0)"
   id="g158">
                <path
   d="m 567.803,1166.96 c 9.433,-6 24.405,-5.06 34.454,-1.71 2.068,0.69 4.274,-0.53 4.923,-2.72 0.65,-2.2 -0.502,-4.54 -2.569,-5.23 -11.92,-3.97 -29.655,-4.6 -40.844,2.51 -1.859,1.18 -2.464,3.74 -1.35,5.72 1.113,1.97 3.527,2.61 5.386,1.43 z"
   style="font-variation-settings:normal;opacity:1;vector-effect:none;fill:#000344;fill-opacity:1;stroke-width:0.970796;stroke-linecap:butt;stroke-linejoin:miter;stroke-miterlimit:2;stroke-dasharray:none;stroke-dashoffset:0;stroke-opacity:1;-inkscape-stroke:none;stop-color:#000000;stop-opacity:1"
   id="path156" />
            </g>
            <g
   transform="matrix(1.15886,0,0,1,-94.7542,0)"
   id="g162">
                <path
   d="m 574.999,1148.49 c 0.255,0.22 1.083,0.93 1.576,1.49 1.995,2.25 3.983,5.3 4.847,6.31 8.401,9.8 15.682,20.84 22.303,31.87 13.455,22.43 30.815,54.01 37.731,78.91 3.441,12.39 6.446,25.12 10.52,37.34 4.241,12.73 8.79,25.73 11.769,38.85 3.084,13.56 7.695,26.58 10.426,40.24 1.248,6.24 2.79,12.57 2.79,18.88 0,2.3 1.611,4.17 3.596,4.17 1.984,0 3.595,-1.87 3.595,-4.17 0,-6.94 -1.605,-13.91 -2.976,-20.76 -2.747,-13.74 -7.375,-26.84 -10.477,-40.49 -3.046,-13.4 -7.678,-26.71 -12.016,-39.72 -4.024,-12.07 -6.982,-24.66 -10.382,-36.89 -7.105,-25.58 -24.851,-58.08 -38.672,-81.11 -6.856,-11.43 -14.407,-22.85 -23.105,-33 -1.053,-1.22 -3.729,-5.33 -6.123,-7.66 -1.826,-1.78 -3.714,-2.61 -5.108,-2.56 -1.984,0.06 -3.547,1.98 -3.489,4.28 0.053,2.1 1.442,3.8 3.195,4.02 z"
   style="font-variation-settings:normal;opacity:1;vector-effect:none;fill:#000344;fill-opacity:1;stroke-width:0.928933;stroke-linecap:butt;stroke-linejoin:miter;stroke-miterlimit:2;stroke-dasharray:none;stroke-dashoffset:0;stroke-opacity:1;-inkscape-stroke:none;stop-color:#000000;stop-opacity:1"
   id="path160" />
            </g>
            <g
   transform="matrix(1.18086,0,0,1,-113.978,0)"
   id="g166">
                <path
   d="m 626.802,1187.6 c 0.65,2.75 2.344,5.63 4.503,8.41 2.527,3.25 5.718,6.4 7.509,9.22 7.423,11.66 14.115,23.95 20.324,36.37 20.611,41.22 37.92,79.62 44.976,125.48 0.836,5.44 2.876,11.33 4.736,17.14 1.621,5.06 3.136,10.05 3.136,14.55 0,2.3 1.581,4.17 3.528,4.17 1.947,0 3.529,-1.87 3.529,-4.17 0,-5.4 -1.649,-11.43 -3.592,-17.5 -1.704,-5.32 -3.628,-10.7 -4.394,-15.67 -7.208,-46.86 -24.789,-86.13 -45.842,-128.23 -6.341,-12.69 -13.178,-25.24 -20.759,-37.15 -1.619,-2.54 -4.263,-5.38 -6.691,-8.29 -1.844,-2.21 -3.644,-4.37 -4.167,-6.57 -0.524,-2.22 -2.473,-3.51 -4.348,-2.89 -1.876,0.62 -2.972,2.92 -2.448,5.13 z"
   style="font-variation-settings:normal;opacity:1;vector-effect:none;fill:#000344;fill-opacity:1;stroke-width:0.920239;stroke-linecap:butt;stroke-linejoin:miter;stroke-miterlimit:2;stroke-dasharray:none;stroke-dashoffset:0;stroke-opacity:1;-inkscape-stroke:none;stop-color:#000000;stop-opacity:1"
   id="path164" />
            </g>
            <path
   d="m 435.752,1136.49 c -0.831,-2.07 -5.774,2.35 -4.763,3.36 4.066,4.07 8.071,-4.46 4.7,-4.46"
   style="font-variation-settings:normal;opacity:1;vector-effect:none;fill:#000344;fill-opacity:1;stroke-width:1;stroke-linecap:butt;stroke-linejoin:miter;stroke-miterlimit:2;stroke-dasharray:none;stroke-dashoffset:0;stroke-opacity:1;-inkscape-stroke:none;stop-color:#000000;stop-opacity:1"
   id="path168" />
            <path
   d="m 423.727,1151.76 c -2.305,-3.52 -8.159,1.66 -6.836,4.31 1.505,3.01 10.017,-1.5 6.579,-4.94"
   style="font-variation-settings:normal;opacity:1;vector-effect:none;fill:#000344;fill-opacity:1;stroke-width:1;stroke-linecap:butt;stroke-linejoin:miter;stroke-miterlimit:2;stroke-dasharray:none;stroke-dashoffset:0;stroke-opacity:1;-inkscape-stroke:none;stop-color:#000000;stop-opacity:1"
   id="path170" />
            <path
   d="m 408.026,1146.23 c -0.809,-3.34 -9.603,3.21 -6.408,5.61 3.326,2.49 10.346,-2.58 7.284,-5.64"
   style="font-variation-settings:normal;opacity:1;vector-effect:none;fill:#000344;fill-opacity:1;stroke-width:1;stroke-linecap:butt;stroke-linejoin:miter;stroke-miterlimit:2;stroke-dasharray:none;stroke-dashoffset:0;stroke-opacity:1;-inkscape-stroke:none;stop-color:#000000;stop-opacity:1"
   id="path172" />
            <path
   d="m 403.665,1165.98 c -4.169,-1.83 -9.565,5.35 -5.572,8.18 4.214,2.99 10.307,-8.69 5.875,-8.69"
   style="font-variation-settings:normal;opacity:1;vector-effect:none;fill:#000344;fill-opacity:1;stroke-width:1;stroke-linecap:butt;stroke-linejoin:miter;stroke-miterlimit:2;stroke-dasharray:none;stroke-dashoffset:0;stroke-opacity:1;-inkscape-stroke:none;stop-color:#000000;stop-opacity:1"
   id="path174" />
            <path
   d="m 392.94,1158.89 c 2.498,-3.89 -8.084,0.56 -6.125,3.99 1.58,2.77 7.258,1.17 8.224,-1.41 0.409,-1.09 0.689,-3.52 -0.94,-3.52"
   style="font-variation-settings:normal;opacity:1;vector-effect:none;fill:#000344;fill-opacity:1;stroke-width:1;stroke-linecap:butt;stroke-linejoin:miter;stroke-miterlimit:2;stroke-dasharray:none;stroke-dashoffset:0;stroke-opacity:1;-inkscape-stroke:none;stop-color:#000000;stop-opacity:1"
   id="path176" />
            <path
   d="m 377.143,1160.63 c 0.141,-1.25 -1.618,-1.51 -2.547,-1.27 -1.973,0.49 -8.292,3.85 -6.814,6.81 2.78,5.56 13.474,-1.33 9.634,-5.17"
   style="font-variation-settings:normal;opacity:1;vector-effect:none;fill:#000344;fill-opacity:1;stroke-width:1;stroke-linecap:butt;stroke-linejoin:miter;stroke-miterlimit:2;stroke-dasharray:none;stroke-dashoffset:0;stroke-opacity:1;-inkscape-stroke:none;stop-color:#000000;stop-opacity:1"
   id="path178" />
            <path
   d="m 381.76,1174.66 c -1.248,-0.06 -3.06,0.77 -4.109,1.38 -0.855,0.5 -2.129,1.42 -2.82,2.11 -5.431,5.44 11.728,2.1 6.344,-3.28"
   style="font-variation-settings:normal;opacity:1;vector-effect:none;fill:#000344;fill-opacity:1;stroke-width:1;stroke-linecap:butt;stroke-linejoin:miter;stroke-miterlimit:2;stroke-dasharray:none;stroke-dashoffset:0;stroke-opacity:1;-inkscape-stroke:none;stop-color:#000000;stop-opacity:1"
   id="path180" />
            <path
   d="m 381.162,1190.81 c -3.652,-1.05 -12.058,7.89 -7.036,9.9 4.104,1.64 9.657,-5.86 4.934,-8.22"
   style="font-variation-settings:normal;opacity:1;vector-effect:none;fill:#000344;fill-opacity:1;stroke-width:1;stroke-linecap:butt;stroke-linejoin:miter;stroke-miterlimit:2;stroke-dasharray:none;stroke-dashoffset:0;stroke-opacity:1;-inkscape-stroke:none;stop-color:#000000;stop-opacity:1"
   id="path182" />
            <path
   d="m 362.503,1186.79 c 0.513,-1.94 -9.462,4.75 -6.94,8.05 1.816,2.37 7.537,-2.53 7.754,-4.7 0.065,-0.65 0.166,-2.82 -0.705,-2.82"
   style="font-variation-settings:normal;opacity:1;vector-effect:none;fill:#000344;fill-opacity:1;stroke-width:1;stroke-linecap:butt;stroke-linejoin:miter;stroke-miterlimit:2;stroke-dasharray:none;stroke-dashoffset:0;stroke-opacity:1;-inkscape-stroke:none;stop-color:#000000;stop-opacity:1"
   id="path184" />
            <path
   d="m 356.052,1174.44 c -2.962,-0.56 -12.494,5.57 -9.653,9.12 2.578,3.22 9.246,-1.23 10.104,-4.23 0.496,-1.74 0.352,-3.7 -1.88,-2.58"
   style="font-variation-settings:normal;opacity:1;vector-effect:none;fill:#000344;fill-opacity:1;stroke-width:1;stroke-linecap:butt;stroke-linejoin:miter;stroke-miterlimit:2;stroke-dasharray:none;stroke-dashoffset:0;stroke-opacity:1;-inkscape-stroke:none;stop-color:#000000;stop-opacity:1"
   id="path186" />
            <path
   d="m 335.081,1189.07 c -1.841,0.49 -14.393,8.42 -8.42,11.41 3.756,1.88 8.413,-2.73 8.929,-6.35 0.145,-1.01 -0.808,-6.18 -2.114,-3.52"
   style="font-variation-settings:normal;opacity:1;vector-effect:none;fill:#000344;fill-opacity:1;stroke-width:1;stroke-linecap:butt;stroke-linejoin:miter;stroke-miterlimit:2;stroke-dasharray:none;stroke-dashoffset:0;stroke-opacity:1;-inkscape-stroke:none;stop-color:#000000;stop-opacity:1"
   id="path188" />
            <path
   d="m 347.393,1193.98 c 0.937,-4.05 -11.312,6.18 -7.808,8.61 5.3,3.69 7.284,-4.51 7.284,-7.28"
   style="font-variation-settings:normal;opacity:1;vector-effect:none;fill:#000344;fill-opacity:1;stroke-width:1;stroke-linecap:butt;stroke-linejoin:miter;stroke-miterlimit:2;stroke-dasharray:none;stroke-dashoffset:0;stroke-opacity:1;-inkscape-stroke:none;stop-color:#000000;stop-opacity:1"
   id="path190" />
            <path
   d="m 354.027,1210.71 c -3.189,1.47 -6.746,4.24 -8.098,7.63 -0.721,1.8 -1.217,7.13 2.35,6.1 3.195,-0.91 4.998,-4.58 5.639,-7.52 0.424,-1.93 -0.435,-4.78 -2.819,-3.99"
   style="font-variation-settings:normal;opacity:1;vector-effect:none;fill:#000344;fill-opacity:1;stroke-width:1;stroke-linecap:butt;stroke-linejoin:miter;stroke-miterlimit:2;stroke-dasharray:none;stroke-dashoffset:0;stroke-opacity:1;-inkscape-stroke:none;stop-color:#000000;stop-opacity:1"
   id="path192" />
            <path
   d="m 344.865,1241.88 c -0.581,-2.75 -9.366,2.47 -6.22,6.06 4.623,5.29 11.302,-5.87 4.465,-5.87"
   style="font-variation-settings:normal;opacity:1;vector-effect:none;fill:#000344;fill-opacity:1;stroke-width:1;stroke-linecap:butt;stroke-linejoin:miter;stroke-miterlimit:2;stroke-dasharray:none;stroke-dashoffset:0;stroke-opacity:1;-inkscape-stroke:none;stop-color:#000000;stop-opacity:1"
   id="path194" />
            <path
   d="m 336.357,1215.48 c -4.164,-1.79 -10.792,4.31 -7.346,8.49 4.17,5.07 10.157,-4.35 7.989,-8.69"
   style="font-variation-settings:normal;opacity:1;vector-effect:none;fill:#000344;fill-opacity:1;stroke-width:1;stroke-linecap:butt;stroke-linejoin:miter;stroke-miterlimit:2;stroke-dasharray:none;stroke-dashoffset:0;stroke-opacity:1;-inkscape-stroke:none;stop-color:#000000;stop-opacity:1"
   id="path196" />
            <path
   d="m 318.471,1208.75 c -3.283,-4.93 -10.137,5.63 -9.902,8.88 0.156,2.17 3.774,1.44 4.934,0.94 3.362,-1.44 4.934,-4.77 4.934,-8.22"
   style="font-variation-settings:normal;opacity:1;vector-effect:none;fill:#000344;fill-opacity:1;stroke-width:1;stroke-linecap:butt;stroke-linejoin:miter;stroke-miterlimit:2;stroke-dasharray:none;stroke-dashoffset:0;stroke-opacity:1;-inkscape-stroke:none;stop-color:#000000;stop-opacity:1"
   id="path198" />
            <path
   d="m 318.351,1231.59 c -3.146,-2.74 -9.647,5.97 -6.258,8.6 3.722,2.89 8.305,-7.36 5.639,-8.7"
   style="font-variation-settings:normal;opacity:1;vector-effect:none;fill:#000344;fill-opacity:1;stroke-width:1;stroke-linecap:butt;stroke-linejoin:miter;stroke-miterlimit:2;stroke-dasharray:none;stroke-dashoffset:0;stroke-opacity:1;-inkscape-stroke:none;stop-color:#000000;stop-opacity:1"
   id="path200" />
            <path
   d="m 296.04,1234.64 c -3.88,-2 -11.032,6.78 -7.679,9.54 3.266,2.69 7.912,-3.33 8.694,-5.87 0.273,-0.89 -0.126,-5.31 -1.645,-3.29"
   style="font-variation-settings:normal;opacity:1;vector-effect:none;fill:#000344;fill-opacity:1;stroke-width:1;stroke-linecap:butt;stroke-linejoin:miter;stroke-miterlimit:2;stroke-dasharray:none;stroke-dashoffset:0;stroke-opacity:1;-inkscape-stroke:none;stop-color:#000000;stop-opacity:1"
   id="path202" />
            <path
   d="m 322.434,1249.92 c -2.674,-3.73 -11.731,9.01 -4.702,10.95 3.486,0.95 5.609,-5.35 5.64,-7.76 10e-4,-0.09 0.311,-4.54 -0.235,-3.99"
   style="font-variation-settings:normal;opacity:1;vector-effect:none;fill:#000344;fill-opacity:1;stroke-width:1;stroke-linecap:butt;stroke-linejoin:miter;stroke-miterlimit:2;stroke-dasharray:none;stroke-dashoffset:0;stroke-opacity:1;-inkscape-stroke:none;stop-color:#000000;stop-opacity:1"
   id="path204" />
            <path
   d="m 302.244,1250.16 c -3.87,-2.69 -9.654,7.33 -9.654,10.23 0,0.86 -0.351,2.89 0.705,3.53 3.705,2.25 11.844,-10.23 6.58,-11.98"
   style="font-variation-settings:normal;opacity:1;vector-effect:none;fill:#000344;fill-opacity:1;stroke-width:1;stroke-linecap:butt;stroke-linejoin:miter;stroke-miterlimit:2;stroke-dasharray:none;stroke-dashoffset:0;stroke-opacity:1;-inkscape-stroke:none;stop-color:#000000;stop-opacity:1"
   id="path206" />
            <path
   d="m 328.008,1268.58 c -3.492,1.09 -5.568,5.46 -6.751,8.5 -0.699,1.8 0.217,4.08 2.35,3.99 2.943,-0.13 10.492,-9.87 4.464,-9.87"
   style="font-variation-settings:normal;opacity:1;vector-effect:none;fill:#000344;fill-opacity:1;stroke-width:1;stroke-linecap:butt;stroke-linejoin:miter;stroke-miterlimit:2;stroke-dasharray:none;stroke-dashoffset:0;stroke-opacity:1;-inkscape-stroke:none;stop-color:#000000;stop-opacity:1"
   id="path208" />
            <path
   d="m 308.408,1269.73 c -3.176,-0.54 -7.839,8.88 -4.575,10.51 1.413,0.71 2.666,-1.02 3.561,-1.75 2.693,-2.21 6.326,-6.98 1.175,-8.7"
   style="font-variation-settings:normal;opacity:1;vector-effect:none;fill:#000344;fill-opacity:1;stroke-width:1;stroke-linecap:butt;stroke-linejoin:miter;stroke-miterlimit:2;stroke-dasharray:none;stroke-dashoffset:0;stroke-opacity:1;-inkscape-stroke:none;stop-color:#000000;stop-opacity:1"
   id="path210" />
            <path
   d="m 304.604,1295.99 c -0.93,-0.4 -2.77,2.43 -3.085,2.94 -1.011,1.66 -2.444,3.9 -2.444,5.97 0,3.11 2.059,5.04 4.324,2.02 0.589,-0.79 0.94,-1.72 1.41,-2.58 0.546,-1.01 0.676,-2.19 0.94,-3.29 0.682,-2.87 -0.47,-4.7 -0.47,-7.05"
   style="font-variation-settings:normal;opacity:1;vector-effect:none;fill:#000344;fill-opacity:1;stroke-width:1;stroke-linecap:butt;stroke-linejoin:miter;stroke-miterlimit:2;stroke-dasharray:none;stroke-dashoffset:0;stroke-opacity:1;-inkscape-stroke:none;stop-color:#000000;stop-opacity:1"
   id="path212" />
            <path
   d="m 320.784,1295.68 c -1.635,-0.09 -2.761,-0.83 -3.991,0.67 -1.802,2.19 -3.385,4.47 -3.995,7.28 -0.371,1.71 1.026,4.19 2.991,3.01 1.561,-0.93 2.418,-2.86 3.118,-4.42 0.347,-0.77 0.714,-1.54 0.94,-2.35 0.342,-1.23 0.235,-3.3 0.235,-4.46"
   style="font-variation-settings:normal;opacity:1;vector-effect:none;fill:#000344;fill-opacity:1;stroke-width:1;stroke-linecap:butt;stroke-linejoin:miter;stroke-miterlimit:2;stroke-dasharray:none;stroke-dashoffset:0;stroke-opacity:1;-inkscape-stroke:none;stop-color:#000000;stop-opacity:1"
   id="path214" />
            <path
   d="m 289.781,1281.52 c -0.735,-2.05 -2.284,1.55 -2.595,2.14 -1.155,2.19 -4.635,9.66 -0.47,11.28 3.873,1.5 7.278,-6.99 7.519,-9.64 0.228,-2.5 -0.651,-4.86 -3.289,-3.52"
   style="font-variation-settings:normal;opacity:1;vector-effect:none;fill:#000344;fill-opacity:1;stroke-width:1;stroke-linecap:butt;stroke-linejoin:miter;stroke-miterlimit:2;stroke-dasharray:none;stroke-dashoffset:0;stroke-opacity:1;-inkscape-stroke:none;stop-color:#000000;stop-opacity:1"
   id="path216" />
            <path
   d="m 283.641,1270.26 c 0.149,-3.41 -8.595,1.15 -6.559,5.64 0.671,1.48 3.728,0.2 4.465,-0.47 2.246,-2.03 3.565,-4.3 2.819,-7.28"
   style="font-variation-settings:normal;opacity:1;vector-effect:none;fill:#000344;fill-opacity:1;stroke-width:1;stroke-linecap:butt;stroke-linejoin:miter;stroke-miterlimit:2;stroke-dasharray:none;stroke-dashoffset:0;stroke-opacity:1;-inkscape-stroke:none;stop-color:#000000;stop-opacity:1"
   id="path218" />
            <path
   d="m 283.513,1253.46 c -3.168,-3.34 -11.18,6.93 -7.606,8.58 2.89,1.33 10.08,-8.56 6.345,-9.87"
   style="font-variation-settings:normal;opacity:1;vector-effect:none;fill:#000344;fill-opacity:1;stroke-width:1;stroke-linecap:butt;stroke-linejoin:miter;stroke-miterlimit:2;stroke-dasharray:none;stroke-dashoffset:0;stroke-opacity:1;-inkscape-stroke:none;stop-color:#000000;stop-opacity:1"
   id="path220" />
            <path
   d="m 265.692,1263.01 c -2.889,-0.16 -10.724,11.13 -5.528,11.72 4.5,0.51 10.482,-10.68 5.874,-12.22"
   style="font-variation-settings:normal;opacity:1;vector-effect:none;fill:#000344;fill-opacity:1;stroke-width:1;stroke-linecap:butt;stroke-linejoin:miter;stroke-miterlimit:2;stroke-dasharray:none;stroke-dashoffset:0;stroke-opacity:1;-inkscape-stroke:none;stop-color:#000000;stop-opacity:1"
   id="path222" />
            <path
   d="m 265.07,1290.33 c -4.201,-0.42 -7.772,5.41 -6.681,9.23 0.733,2.57 4.227,0.77 5.065,-0.63 0.323,-0.54 1.822,-2.84 2.114,-3.52 0.899,-2.1 0,-3.57 0,-5.64"
   style="font-variation-settings:normal;opacity:1;vector-effect:none;fill:#000344;fill-opacity:1;stroke-width:1;stroke-linecap:butt;stroke-linejoin:miter;stroke-miterlimit:2;stroke-dasharray:none;stroke-dashoffset:0;stroke-opacity:1;-inkscape-stroke:none;stop-color:#000000;stop-opacity:1"
   id="path224" />
            <path
   d="m 245.876,1307.47 c -5.143,0.82 -7,7.34 -7.564,11.67 -0.193,1.47 -0.352,3.39 1.409,3.99 3.844,1.33 7.113,-7.61 7.52,-10.1 0.257,-1.58 0.127,-4.51 -2.115,-3.76"
   style="font-variation-settings:normal;opacity:1;vector-effect:none;fill:#000344;fill-opacity:1;stroke-width:1;stroke-linecap:butt;stroke-linejoin:miter;stroke-miterlimit:2;stroke-dasharray:none;stroke-dashoffset:0;stroke-opacity:1;-inkscape-stroke:none;stop-color:#000000;stop-opacity:1"
   id="path226" />
            <path
   d="m 277.501,1304.11 c -3.739,-0.04 -10.002,10 -5.353,12.68 3.886,2.24 6.17,-4.8 6.579,-7.52 0.119,-0.8 0.509,-3.5 -0.94,-3.29"
   style="font-variation-settings:normal;opacity:1;vector-effect:none;fill:#000344;fill-opacity:1;stroke-width:1;stroke-linecap:butt;stroke-linejoin:miter;stroke-miterlimit:2;stroke-dasharray:none;stroke-dashoffset:0;stroke-opacity:1;-inkscape-stroke:none;stop-color:#000000;stop-opacity:1"
   id="path228" />
            <path
   d="m 258.148,1324.95 c -4.395,0.33 -4.855,5.87 -4.563,9.23 0.083,0.95 3.11,0.1 3.524,-0.24 2.773,-2.28 5.066,-6.73 3.055,-10.1"
   style="font-variation-settings:normal;opacity:1;vector-effect:none;fill:#000344;fill-opacity:1;stroke-width:1;stroke-linecap:butt;stroke-linejoin:miter;stroke-miterlimit:2;stroke-dasharray:none;stroke-dashoffset:0;stroke-opacity:1;-inkscape-stroke:none;stop-color:#000000;stop-opacity:1"
   id="path230" />
            <path
   d="m 290.897,1316.27 c -3.951,0.31 -6.531,6.59 -6.531,9.92 0,0.53 0.389,4.88 2.115,3.52 2.27,-1.78 3.659,-6.07 4.23,-8.69 0.007,-0.03 0.855,-4 -0.235,-4"
   style="font-variation-settings:normal;opacity:1;vector-effect:none;fill:#000344;fill-opacity:1;stroke-width:1;stroke-linecap:butt;stroke-linejoin:miter;stroke-miterlimit:2;stroke-dasharray:none;stroke-dashoffset:0;stroke-opacity:1;-inkscape-stroke:none;stop-color:#000000;stop-opacity:1"
   id="path232" />
            <path
   d="m 274.575,1339.79 c -2.951,0.7 -4.311,6.5 -3.064,9 0.594,1.18 2.436,3.72 4.161,2.78 2.572,-1.41 4.105,-6.09 4.105,-8.81 0,-1.55 -2.695,-5.25 -2.695,-3.41"
   style="font-variation-settings:normal;opacity:1;vector-effect:none;fill:#000344;fill-opacity:1;stroke-width:1;stroke-linecap:butt;stroke-linejoin:miter;stroke-miterlimit:2;stroke-dasharray:none;stroke-dashoffset:0;stroke-opacity:1;-inkscape-stroke:none;stop-color:#000000;stop-opacity:1"
   id="path234" />
            <path
   d="m 310.218,1322.3 c -2.837,-0.44 -5.524,6.76 -6.349,8.82 -0.276,0.69 -1.476,3.59 -0.304,4.47 1.799,1.35 3.394,-1.45 4.064,-2.59 1.23,-2.09 5.036,-9.06 2.819,-11.28"
   style="font-variation-settings:normal;opacity:1;vector-effect:none;fill:#000344;fill-opacity:1;stroke-width:1;stroke-linecap:butt;stroke-linejoin:miter;stroke-miterlimit:2;stroke-dasharray:none;stroke-dashoffset:0;stroke-opacity:1;-inkscape-stroke:none;stop-color:#000000;stop-opacity:1"
   id="path236" />
            <path
   d="m 298.313,1348.25 c -5.506,-1.96 -9.9,8.26 -6.897,12.24 2.378,3.16 5.404,-3.57 5.404,-5.4"
   style="font-variation-settings:normal;opacity:1;vector-effect:none;fill:#000344;fill-opacity:1;stroke-width:1;stroke-linecap:butt;stroke-linejoin:miter;stroke-miterlimit:2;stroke-dasharray:none;stroke-dashoffset:0;stroke-opacity:1;-inkscape-stroke:none;stop-color:#000000;stop-opacity:1"
   id="path238" />
            <path
   d="m 236.619,1335.71 c 0.165,-2.04 -2.646,-2.62 -4.182,-1.53 -2.021,1.43 -6.097,8.17 -3.289,10.34 3.216,2.47 6.214,-3.26 7.049,-5.41 0.285,-0.73 1.302,-3.52 -0.47,-3.52"
   style="font-variation-settings:normal;opacity:1;vector-effect:none;fill:#000344;fill-opacity:1;stroke-width:1;stroke-linecap:butt;stroke-linejoin:miter;stroke-miterlimit:2;stroke-dasharray:none;stroke-dashoffset:0;stroke-opacity:1;-inkscape-stroke:none;stop-color:#000000;stop-opacity:1"
   id="path240" />
            <path
   d="m 224.562,1356.68 c -3.299,2.73 -5.703,6.46 -5.988,10.86 -0.053,0.82 -0.403,4 1.41,4 3.055,0 4.057,-5.9 4.057,-8.4 0,-1.51 -1.444,-4.94 -0.768,-3.59"
   style="font-variation-settings:normal;opacity:1;vector-effect:none;fill:#000344;fill-opacity:1;stroke-width:1;stroke-linecap:butt;stroke-linejoin:miter;stroke-miterlimit:2;stroke-dasharray:none;stroke-dashoffset:0;stroke-opacity:1;-inkscape-stroke:none;stop-color:#000000;stop-opacity:1"
   id="path242" />
            <path
   d="m 248.651,1346.48 c -0.847,-2.83 -2.655,-0.98 -3.639,0.71 -1.343,2.3 -2.829,5.7 -2.489,8.42 0.31,2.48 2.785,1.62 3.695,0.19 1.674,-2.63 2.197,-5.4 2.197,-8.46"
   style="font-variation-settings:normal;opacity:1;vector-effect:none;fill:#000344;fill-opacity:1;stroke-width:1;stroke-linecap:butt;stroke-linejoin:miter;stroke-miterlimit:2;stroke-dasharray:none;stroke-dashoffset:0;stroke-opacity:1;-inkscape-stroke:none;stop-color:#000000;stop-opacity:1"
   id="path244" />
            <path
   d="m 238.772,1372.33 c -4.639,-0.59 -8.309,10.42 -4.135,11.61 3.988,1.14 8.619,-11.54 3.91,-13.11"
   style="font-variation-settings:normal;opacity:1;vector-effect:none;fill:#000344;fill-opacity:1;stroke-width:1;stroke-linecap:butt;stroke-linejoin:miter;stroke-miterlimit:2;stroke-dasharray:none;stroke-dashoffset:0;stroke-opacity:1;-inkscape-stroke:none;stop-color:#000000;stop-opacity:1"
   id="path246" />
            <path
   d="m 218.861,1381.91 c -5.859,-0.27 -4.256,15.91 -0.522,6.78 0.704,-1.72 1.175,-2.88 1.175,-4.7"
   style="font-variation-settings:normal;opacity:1;vector-effect:none;fill:#000344;fill-opacity:1;stroke-width:1;stroke-linecap:butt;stroke-linejoin:miter;stroke-miterlimit:2;stroke-dasharray:none;stroke-dashoffset:0;stroke-opacity:1;-inkscape-stroke:none;stop-color:#000000;stop-opacity:1"
   id="path248" />
            <path
   d="m 259.432,1375.82 c 0.063,-1.76 -1.352,-2.9 -2.822,-1.68 -2.328,1.94 -4.375,8.55 -0.675,10.09 4.109,1.7 5.349,-7.34 3.289,-9.4"
   style="font-variation-settings:normal;opacity:1;vector-effect:none;fill:#000344;fill-opacity:1;stroke-width:1;stroke-linecap:butt;stroke-linejoin:miter;stroke-miterlimit:2;stroke-dasharray:none;stroke-dashoffset:0;stroke-opacity:1;-inkscape-stroke:none;stop-color:#000000;stop-opacity:1"
   id="path250" />
            <path
   d="m 264.878,1354.85 c -3.023,-4.92 -6.645,4.69 -5.654,7.52 0.886,2.54 3.366,0.65 4.23,-0.7 1.615,-2.52 1.982,-5.4 1.175,-8.23"
   style="font-variation-settings:normal;opacity:1;vector-effect:none;fill:#000344;fill-opacity:1;stroke-width:1;stroke-linecap:butt;stroke-linejoin:miter;stroke-miterlimit:2;stroke-dasharray:none;stroke-dashoffset:0;stroke-opacity:1;-inkscape-stroke:none;stop-color:#000000;stop-opacity:1"
   id="path252" />
            <path
   d="m 282.333,1363.43 c -4.536,0.31 -7.625,6.35 -7.131,10.69 0.484,4.25 3.59,1.87 4.7,-0.47 0.33,-0.7 0.643,-1.4 0.94,-2.11 0.43,-1.03 0.48,-2.25 0.705,-3.29 0.42,-1.96 0.225,-3.55 -0.705,-5.41"
   style="font-variation-settings:normal;opacity:1;vector-effect:none;fill:#000344;fill-opacity:1;stroke-width:1;stroke-linecap:butt;stroke-linejoin:miter;stroke-miterlimit:2;stroke-dasharray:none;stroke-dashoffset:0;stroke-opacity:1;-inkscape-stroke:none;stop-color:#000000;stop-opacity:1"
   id="path254" />
            <path
   d="m 293.265,1392.24 c -3.452,-5.55 -6.739,3.4 -5.609,6.79 0.63,1.89 5.132,1.32 6.109,0.23 1.117,-1.24 0.705,-3.2 0.705,-4.69"
   style="font-variation-settings:normal;opacity:1;vector-effect:none;fill:#000344;fill-opacity:1;stroke-width:1;stroke-linecap:butt;stroke-linejoin:miter;stroke-miterlimit:2;stroke-dasharray:none;stroke-dashoffset:0;stroke-opacity:1;-inkscape-stroke:none;stop-color:#000000;stop-opacity:1"
   id="path256" />
            <path
   d="m 459.219,1130.02 c -0.06,-0.49 -1.404,-0.37 -1.678,-0.27 -3.063,1.07 -7.71,3.57 -8.929,6.81 -0.608,1.63 2.124,0.76 2.614,0.58 2.484,-0.9 4.901,-2.68 6.08,-5.04"
   style="font-variation-settings:normal;opacity:1;vector-effect:none;fill:#000344;fill-opacity:1;stroke-width:1;stroke-linecap:butt;stroke-linejoin:miter;stroke-miterlimit:2;stroke-dasharray:none;stroke-dashoffset:0;stroke-opacity:1;-inkscape-stroke:none;stop-color:#000000;stop-opacity:1"
   id="path258" />
            <path
   d="m 297.292,1369.8 c -0.621,1.27 -1.655,-0.44 -2.35,0.95 -0.423,0.85 -0.864,1.69 -1.175,2.59 -0.318,0.91 -0.574,1.86 -0.704,2.82 -0.106,0.77 -0.011,1.56 0,2.35 0.094,7.25 10.146,-7.29 3.759,-7.29"
   style="font-variation-settings:normal;opacity:1;vector-effect:none;fill:#000344;fill-opacity:1;stroke-width:1;stroke-linecap:butt;stroke-linejoin:miter;stroke-miterlimit:2;stroke-dasharray:none;stroke-dashoffset:0;stroke-opacity:1;-inkscape-stroke:none;stop-color:#000000;stop-opacity:1"
   id="path260" />
        </g>
    </g>
</svg>
