<?xml version="1.0" encoding="UTF-8" standalone="no"?>
<svg
   width="100%"
   height="100%"
   viewBox="0 0 939 800"
   version="1.1"
   xml:space="preserve"
   style="fill-rule:evenodd;clip-rule:evenodd;stroke-linejoin:round;stroke-miterlimit:2;"
   id="svg328"
   sodipodi:docname="2023-CH-01-taskbody.svg"
   inkscape:version="1.1.1 (3bf5ae0d25, 2021-09-20)"
   xmlns:inkscape="http://www.inkscape.org/namespaces/inkscape"
   xmlns:sodipodi="http://sodipodi.sourceforge.net/DTD/sodipodi-0.dtd"
   xmlns="http://www.w3.org/2000/svg"
   xmlns:svg="http://www.w3.org/2000/svg"><defs
   id="defs332" /><sodipodi:namedview
   id="namedview330"
   pagecolor="#ffffff"
   bordercolor="#666666"
   borderopacity="1.0"
   inkscape:pageshadow="2"
   inkscape:pageopacity="0.0"
   inkscape:pagecheckerboard="0"
   showgrid="false"
   inkscape:zoom="0.449375"
   inkscape:cx="42.280946"
   inkscape:cy="581.91933"
   inkscape:window-width="2048"
   inkscape:window-height="1017"
   inkscape:window-x="-8"
   inkscape:window-y="-8"
   inkscape:window-maximized="1"
   inkscape:current-layer="g324" />
    <g
   transform="translate(-302.015,-69.2059)"
   id="g326">
        <g
   id="g324">
            <g
   id="g72">
                <path
   d="m 942.547,714.384 c -6.171,3.335 -14.42,6.519 -19.077,11.176 -0.749,0.749 0.762,5.332 0.87,6.086 0.81,5.672 3.595,9.857 5.651,14.997 2.696,6.741 6.293,13.002 8.042,19.997 1.207,4.83 1.541,11.559 3.695,15.867 3.518,7.036 7.57,14.669 10.216,22.605 1.964,5.892 3.758,10.966 4.999,17.171 0.416,2.082 1.211,6.273 0.217,8.26 -1.878,3.757 -8.614,12.538 -14.128,9.781 -2.61,-1.305 -5.589,-2.105 -8.477,-3.26 -11.316,-4.527 -18.945,-13.512 -27.604,-22.171 -1.49,-1.49 -2.392,-3.913 -3.912,-5.434 -2.054,-2.053 -3.572,-6.15 -4.565,-9.129 -0.258,-0.774 -0.939,-3.078 -1.739,-3.477 -1.15,-0.575 -1.733,1.028 -2.391,1.521 -2.237,1.678 -5.661,4.15 -6.955,6.738 -4.517,9.034 5.094,18.447 8.694,25.648 3.153,6.306 8.749,12.9 14.128,17.606 2.052,1.795 3.361,4.358 5.434,6.086 9.426,7.855 25.212,14.191 37.82,12.39 14.093,-2.014 21.097,-17.607 22.605,-30.43 1.119,-9.506 -2.54,-18.931 -4.564,-28.039 -2.227,-10.021 -5.125,-19.848 -7.608,-29.778 -2.361,-9.448 -4.428,-19.97 -8.259,-28.909 -0.982,-2.29 -1.687,-4.955 -2.174,-7.39 -0.439,-2.198 -1.151,-4.302 -1.521,-6.521 -0.874,-5.243 -2.655,-19.996 -9.346,-19.996"
   style="fill:#959799"
   id="path2" />
                <path
   d="M 754.604,362.102 C 731.931,350.311 503.219,711.453 509.239,743.23 c 1.401,7.397 -6.27,13.455 -8.565,20.341 -0.055,0.165 -0.966,1.712 -0.536,2.142 0.275,0.275 16.818,-9.867 18.201,-10.706 70.614,-42.867 274.076,4.095 303.793,74.281 0.216,0.51 -60.398,-417.859 -67.528,-467.186 z"
   style="fill:#cefffe;fill-opacity:1"
   id="path4" />
                <path
   d="m 747.157,362.743 c -5.482,-0.459 -9.811,1.964 -15.234,2.566 -35.472,3.942 -66.579,15.697 -99.566,29.442 -8.664,3.61 -15.727,10.117 -24.088,13.917 -31.872,14.487 -64.861,28.963 -94.748,47.642 -12.041,7.526 -23.174,16.072 -35.33,23.018 -11.649,6.657 -25.4,13.575 -35.865,21.947 -13.033,10.427 -28.476,14.408 -42.477,23.742 -27.167,18.112 -51.321,51.321 -73.147,73.147 -0.077,0.077 9.29,-0.131 10.706,-0.535 6.023,-1.721 14.629,-1.072 20.341,1.07 6.894,2.586 17.091,4.079 23.018,8.03 8.566,5.711 11.988,16.228 19.806,22.482 3.967,3.174 13.498,7.19 15.524,11.242 13.841,27.682 38.955,49.508 51.924,78.689 5.414,12.181 13.139,20.828 19.27,31.047 1.057,1.761 7.508,17.913 9.1,15.524 16.002,-24.002 23.214,-61.163 38.007,-87.789 28.245,-50.842 60.866,-99.777 92.071,-148.813 21.643,-34.01 46.241,-65.849 69.054,-99.031 6.987,-10.163 16.248,-18.216 23.017,-28.37 3.154,-4.731 30.512,-31.881 30.512,-36.936"
   style="fill:#cefffe;fill-opacity:1"
   id="path6" />
                <path
   d="m 338.429,398.684 c 0.36,-5.296 18.315,-7.856 20.926,-11.428 20.484,-28.019 323.488,-76.031 386.486,-29.976 0,0 -309.493,122.296 -370.962,195.919 -12.766,15.29 -28.61,23.643 -39.613,40.147 -1.532,2.3 -9.437,11.073 -13.382,9.101 -4.349,-2.175 -8.34,-35.501 -9.635,-40.683 -8.79,-35.158 -11.855,-86.178 -4.283,-121.513 2.336,-10.9 11.055,-38.006 25.159,-38.006"
   style="fill:#cefffe;fill-opacity:1"
   id="path8" />
                <path
   d="m 367.185,388.397 c 1.6,-0.153 0.735,-14.879 0.735,-16.664 0,-14.878 -1.315,-33.158 3.211,-47.642 14.582,-46.66 38.081,-102.974 95.284,-107.06 46.23,-3.302 91.464,10.614 133.289,27.836 25.866,10.651 51.339,16.176 74.407,32.653 21.055,15.04 43.482,34.759 60.488,54.601 4.708,5.492 12.848,13.854 12.848,21.412 0,0.178 0.173,0.492 0,0.535 -14.082,3.52 -82.292,-8.584 -99.566,-11.241 -69.67,-10.719 -144.45,5.541 -211.443,23.018 -14.031,3.66 -56.422,11.992 -66.912,22.482"
   style="fill:#cefffe;fill-opacity:1"
   id="path10" />
                <path
   d="m 757.166,366.857 c -5.108,4.893 2.899,22.32 3.663,28.429 3.001,24.011 5.705,47.43 9.1,71.195 12.397,86.781 25.513,174.126 36.4,261.225 3.089,24.708 6.948,50.266 12.312,74.407 1.051,4.727 2.324,20.524 5.353,23.553 2.66,2.66 8.53,-13.562 9.1,-14.988 3.602,-9.005 13.167,-16.093 19.271,-23.553 18.69,-22.844 47.282,-43.655 71.73,-59.954 39.32,-26.213 84.845,-35.942 129.545,-48.712 7.46,-2.132 51.3,-2.596 55.13,-6.424 1.17,-1.169 -11.45,-15.676 -11.77,-16.059 -0.97,-1.163 -2.28,-2.021 -3.21,-3.211 -8.07,-10.265 -12.82,-22.527 -20.35,-33.189 -12.7,-17.991 -23.37,-36.808 -38,-53.53 -31.8,-36.335 -66.613,-71.351 -101.71,-104.383 -29.791,-28.039 -67.404,-40.855 -102.242,-61.024 -13.785,-7.981 -25.659,-19.15 -40.682,-25.159 -7.037,-2.815 -22.677,-10.816 -30.155,-12.062 -7.631,-1.272 -11.061,4.301 -18.022,0.821"
   style="fill:#cefffe;fill-opacity:1"
   id="path12" />
                <path
   d="m 753.896,356.789 c -1.081,-0.03 -1.165,-0.017 -1.097,-0.045 3.686,-1.474 96.194,49.869 182.337,119.312 83.434,67.258 160.644,152.334 160.794,171.891 0.06,8.135 8.7,22.018 16.06,25.694 0.81,0.407 2.38,1.399 2.67,0.536 3.59,-10.758 2.64,-25.503 4.82,-36.936 5.59,-29.336 16.05,-55.431 26.76,-82.971 5.11,-13.139 7.89,-27.09 13.92,-40.148 9.46,-20.499 19.24,-39.044 35.33,-55.136 9.83,-9.828 24.04,-5.016 23.02,-9.1 -2.16,-8.64 -15.1,-11.548 -21.41,-16.059 -15.22,-10.87 -29.32,-22.669 -46.57,-30.512 -39.59,-17.995 -130.2,-44.486 -209.932,-52.202 -86.889,-8.409 -190.496,9.47 -186.702,5.676 z"
   style="fill:#cefffe;fill-opacity:1"
   id="path14" />
                <path
   d="m 757.802,362.538 c -4.897,-5.897 31.659,-20.854 38.357,-23.458 23.758,-9.24 110.273,-56.978 207.191,-80.574 94.3,-22.96 191.36,-32.005 200.5,-27.167 44.74,23.7 42.51,177.883 22.78,215.122 -4.01,7.573 -35.23,-14.506 -42.38,-17.451 -24.87,-10.239 -48.39,-24.371 -73.34,-33.724 -19.24,-7.215 -37.85,-16.342 -57.27,-23.018 C 999.955,353.815 943,349.786 886.624,349.786 c -31.488,0 -67.332,-0.49 -98.495,5.353 -5.478,1.027 -28.582,7.607 -31.582,1.605"
   style="fill:#cefffe;fill-opacity:1"
   id="path16" />
                <path
   d="m 756.239,369.051 c -4.484,-5.526 8.372,-26.283 11.549,-31.577 17.325,-28.876 32.89,-59.304 52.994,-86.719 16.339,-22.28 33.126,-43.73 55.136,-61.024 47.625,-37.419 117.859,-74.772 180.392,-68.518 42.16,4.216 95.7166,35.612 113.3766,73.871 2.55,5.523 3.9534,43.041 -3.0966,46.571 -9.18,4.587 -23.8,1.457 -33.73,2.141 -23.56,1.626 -46.91,3.73 -70.12,8.565 -39.4,8.208 -79.028,18.313 -117.233,31.048 -41.198,13.732 -82.501,27.99 -123.119,43.359 -8.445,3.195 -51.093,24.623 -59.418,24.623"
   style="fill:#000344;fill-opacity:1"
   id="path18"
   sodipodi:nodetypes="cccccccccccc" />
                <path
   d="m 759.472,356.476 c -1.687,1.752 -2.136,-8.993 -2.658,-11.776 -2.129,-11.354 -2.736,-22.818 -4.282,-34.259 -3.88,-28.711 -6.25,-59.37 -9.271,-88.075 -3.066,-29.127 -13.272,-81.296 -1.435,-108.915 2.421,-5.649 28.96,-17.388 34.794,-21.412 42.405,-29.246 99.894,-20.208 144.219,-2.887 30.204,11.804 33.042,49.047 32.261,49.829 -14.789,14.788 -45.04,38.215 -61.39,52.088 -42.671,36.206 -82.871,69.947 -110.807,119.372 -6.612,11.698 -21.948,31.273 -21.948,45.5"
   style="fill:#cefffe;fill-opacity:1"
   id="path20" />
                <path
   d="m 755.003,359.514 c -1.563,1.282 -3.054,-11.744 -3.542,-13.208 -2.938,-8.816 -12.379,-21.457 -20.341,-26.765 -30.349,-20.232 -58.78,-41.289 -91.001,-58.347 -35.198,-18.635 -66.882,-23.169 -104.918,-32.118 -7.125,-1.677 -33.027,2.028 -29.977,-10.171 16.081,-64.325 69.88,-109.979 133.825,-124.189 26.891,-5.976 68.465,-10.598 87.253,14.453 16.087,21.449 13.716,68.037 15.695,93.765 2.48,32.232 1.675,65.203 7.466,97.051 3.132,17.23 9.492,34.729 9.492,52.209"
   style="fill:#cefffe;fill-opacity:1"
   id="path22" />
                <g
   id="g70">
                    <path
   d="m 733.497,119.319 19.792,239.641 c 0.005,0.056 0.011,0.111 0.019,0.166 l 66.126,470.339 c 0.224,1.594 1.701,2.706 3.295,2.482 1.594,-0.224 2.706,-1.7 2.482,-3.294 0,0 -65.115,-463.145 -66.115,-470.256 0,0 -19.785,-239.558 -19.785,-239.558 -0.133,-1.605 -1.543,-2.8 -3.147,-2.667 -1.604,0.132 -2.799,1.542 -2.667,3.147 z"
   style="fill:#000344;fill-opacity:1"
   id="path24" />
                    <path
   d="m 349.391,392.685 c 140.86,-47.108 277.065,-61.38 408.781,-36.558 0.293,0.055 0.594,0.065 0.89,0.029 179.767,-21.728 334.798,9.35 464.738,95.241 1.34,0.887 3.15,0.518 4.04,-0.825 0.89,-1.343 0.52,-3.154 -0.82,-4.042 C 1096.08,359.982 939.91,328.504 758.809,350.311 626.289,325.427 489.251,339.76 347.541,387.153 c -1.527,0.511 -2.352,2.165 -1.841,3.691 0.511,1.527 2.165,2.352 3.691,1.841 z"
   style="fill:#000344;fill-opacity:1"
   id="path26" />
                    <path
   d="m 500.378,222.959 c 110.047,10.312 194.003,55.205 252.914,135.1 0.272,0.368 0.626,0.667 1.034,0.873 159.349,80.414 277.794,187.805 356.514,320.861 0.82,1.386 2.61,1.845 3.99,1.026 1.39,-0.82 1.85,-2.61 1.03,-3.996 C 1036.7,543.031 917.699,434.966 757.574,354.037 697.705,273.164 612.541,227.61 500.922,217.151 c -1.603,-0.15 -3.026,1.029 -3.176,2.632 -0.15,1.603 1.029,3.026 2.632,3.176 z"
   style="fill:#000344;fill-opacity:1"
   id="path28" />
                    <path
   d="M 956.315,142.815 C 860.296,196.305 800.734,268.523 758.485,349.781 638.498,481.839 558.076,621.56 495.611,764.763 c -0.643,1.475 0.032,3.196 1.507,3.839 1.476,0.644 3.196,-0.031 3.84,-1.507 62.268,-142.752 142.434,-282.04 262.099,-413.671 0.169,-0.187 0.314,-0.395 0.43,-0.618 41.765,-80.442 100.641,-151.959 195.666,-204.895 1.407,-0.784 1.912,-2.561 1.129,-3.968 -0.783,-1.406 -2.561,-1.912 -3.967,-1.128 z"
   style="fill:#000344;fill-opacity:1"
   id="path30" />
                    <path
   d="M 321.369,606.185 C 444.976,486.041 586.515,398.514 757.511,359.166 c 0.257,-0.059 0.503,-0.153 0.735,-0.278 136.822,-74.044 281.794,-116.068 434.474,-124.623 1.6,-0.09 2.84,-1.468 2.75,-3.075 -0.09,-1.607 -1.47,-2.839 -3.08,-2.749 -153.4,8.596 -299.082,50.784 -436.573,125.129 -171.894,39.637 -314.226,127.626 -438.514,248.432 -1.154,1.122 -1.181,2.97 -0.059,4.125 1.122,1.154 2.97,1.18 4.125,0.058 z"
   style="fill:#000344;fill-opacity:1"
   id="path32" />
                    <g
   id="g54">
                        <path
   d="M 502.687,223.632 C 522.288,155.124 578.404,110.78 634.259,99.47 c 36.897,-7.472 73.696,-0.514 99.537,23.68 1.175,1.101 3.022,1.04 4.122,-0.135 1.101,-1.175 1.04,-3.023 -0.135,-4.123 -27.19,-25.458 -65.858,-33.002 -104.682,-25.14 -57.726,11.69 -115.764,57.473 -136.022,128.276 -0.443,1.547 0.454,3.163 2.002,3.606 1.547,0.443 3.163,-0.454 3.606,-2.002 z"
   style="fill:#000344;fill-opacity:1"
   id="path34" />
                        <path
   d="m 500.345,221.359 c -27.909,-14.641 -56.854,-7.927 -80.952,12.403 -35.297,29.777 -60.112,89.109 -54.973,151.623 0.132,1.604 1.541,2.8 3.146,2.668 1.604,-0.132 2.8,-1.542 2.668,-3.146 -4.969,-60.444 18.792,-117.895 52.92,-146.686 22.185,-18.716 48.788,-25.175 74.481,-11.697 1.425,0.748 3.19,0.198 3.938,-1.228 0.747,-1.425 0.197,-3.189 -1.228,-3.937 z"
   style="fill:#000344;fill-opacity:1"
   id="path36" />
                        <path
   d="m 737.386,122.36 c 36.176,-45.52 104.099,-56.211 154.551,-40.594 33.137,10.257 58.834,31.899 62.353,62.901 0.182,1.6 1.627,2.751 3.227,2.569 1.599,-0.181 2.751,-1.627 2.569,-3.227 -3.771,-33.228 -30.908,-56.822 -66.424,-67.816 -52.529,-16.259 -123.178,-4.857 -160.843,42.538 -1.001,1.26 -0.791,3.096 0.469,4.098 1.26,1.001 3.096,0.791 4.098,-0.469 z"
   style="fill:#000344;fill-opacity:1"
   id="path38" />
                        <path
   d="m 366.286,382.325 c -18.638,3.179 -32.56,9.699 -42.62,19.865 -10.059,10.166 -16.294,24.02 -19.348,42.081 -5.912,34.968 0.142,86.104 12.22,156.911 0.271,1.587 1.779,2.655 3.366,2.385 1.587,-0.271 2.655,-1.779 2.384,-3.366 C 310.36,530.27 304.231,479.778 310.07,445.243 c 2.822,-16.69 8.446,-29.555 17.743,-38.95 9.297,-9.396 22.228,-15.279 39.454,-18.218 1.587,-0.27 2.656,-1.778 2.385,-3.365 -0.271,-1.587 -1.779,-2.656 -3.366,-2.385 z"
   style="fill:#000344;fill-opacity:1"
   id="path40" />
                        <path
   d="m 958.519,148.37 c 51.471,-24.165 95.391,-27.294 129.561,-17.237 50.72,14.927 79.71,58.941 79.44,105.103 -0.01,1.61 1.29,2.924 2.9,2.933 1.61,0.01 2.93,-1.29 2.94,-2.899 0.28,-48.621 -30.21,-95.011 -83.63,-110.733 -35.25,-10.375 -80.6,-7.376 -133.691,17.552 -1.457,0.684 -2.084,2.423 -1.4,3.88 0.684,1.457 2.423,2.085 3.88,1.401 z"
   style="fill:#000344;fill-opacity:1"
   id="path42" />
                        <path
   d="m 321.343,604.953 c 19.247,-8.428 40.572,-1.083 63.104,16.83 35.133,27.931 72.809,81.475 109.408,144.849 0.806,1.394 2.591,1.872 3.985,1.067 1.394,-0.805 1.872,-2.59 1.067,-3.984 C 461.87,699.583 423.631,645.482 388.077,617.217 363.484,597.665 340.01,590.411 319.003,599.61 c -1.474,0.645 -2.147,2.367 -1.502,3.841 0.646,1.475 2.368,2.148 3.842,1.502 z"
   style="fill:#000344;fill-opacity:1"
   id="path44" />
                        <path
   d="m 498.155,771.681 c 7.433,-7.826 19.056,-13.889 33.529,-18.302 22.29,-6.796 51.252,-9.595 82.493,-8.369 78.121,3.066 170.612,31.199 208.683,86.196 0.916,1.324 2.735,1.655 4.058,0.738 1.324,-0.916 1.655,-2.734 0.738,-4.058 -38.944,-56.259 -133.337,-85.568 -213.25,-88.705 -31.974,-1.255 -61.61,1.663 -84.423,8.619 -15.597,4.755 -28.047,11.429 -36.058,19.863 -1.108,1.167 -1.061,3.015 0.106,4.124 1.168,1.108 3.015,1.061 4.124,-0.106 z"
   style="fill:#000344;fill-opacity:1"
   id="path46" />
                        <path
   d="m 825.91,829.335 c 40.108,-67.765 106.995,-115.2 171.852,-137.738 43.018,-14.95 85.138,-18.964 117.888,-10.528 1.56,0.402 3.15,-0.538 3.55,-2.097 0.4,-1.558 -0.54,-3.15 -2.09,-3.552 -33.69,-8.676 -77.02,-4.709 -121.263,10.667 -66.038,22.949 -134.119,71.277 -174.957,140.277 -0.82,1.385 -0.361,3.176 1.025,3.996 1.385,0.82 3.175,0.361 3.995,-1.025 z"
   style="fill:#000344;fill-opacity:1"
   id="path48" />
                        <path
   d="m 1117.24,678.515 c 18.04,-84.767 36.52,-158.235 58.85,-198.447 13.95,-25.139 29.04,-37.178 47.06,-28.519 1.45,0.697 3.2,0.085 3.89,-1.366 0.7,-1.451 0.09,-3.195 -1.36,-3.892 -20.58,-9.887 -38.76,2.24 -54.69,30.945 -22.51,40.547 -41.27,114.592 -59.45,200.065 -0.34,1.574 0.67,3.125 2.24,3.46 1.58,0.335 3.12,-0.672 3.46,-2.246 z"
   style="fill:#000344;fill-opacity:1"
   id="path50" />
                        <path
   d="m 1229.16,446.687 c 9.97,-66.521 16.66,-137.598 3.14,-179.253 -4.71,-14.524 -11.89,-25.561 -22,-31.93 -10.17,-6.411 -23.38,-8.202 -40.32,-3.756 -1.56,0.409 -2.49,2.005 -2.08,3.562 0.41,1.557 2,2.489 3.56,2.081 15,-3.938 26.73,-2.629 35.73,3.048 9.08,5.718 15.33,15.756 19.56,28.796 13.32,41.037 6.46,111.054 -3.36,176.588 -0.23,1.592 0.87,3.078 2.46,3.317 1.59,0.238 3.07,-0.861 3.31,-2.453 z"
   style="fill:#000344;fill-opacity:1"
   id="path52" />
                    </g>
                    <path
   d="m 940.519,718.091 c 0.093,0.074 0.409,0.331 0.584,0.535 0.697,0.816 1.336,1.993 1.966,3.384 3.549,7.836 6.239,21.656 8.408,26.715 5.643,13.167 18.91,49.232 19.504,77.803 0.367,17.706 -3.967,32.603 -19.614,35.733 -6.744,1.349 -14.438,0.121 -21.853,-2.666 -11.348,-4.266 -22.066,-12.212 -27.81,-20.827 -1.355,-2.033 -9.393,-14.522 -12.549,-23.373 -0.596,-1.67 -1.017,-3.188 -1.119,-4.441 -0.032,-0.39 0.033,-0.952 0.052,-1.099 1.884,-1.923 3.573,-4.767 5.181,-6.957 0.37,-0.502 0.926,-1.088 1.298,-1.463 0.267,0.355 0.638,0.887 0.906,1.425 8.006,16.011 25.667,32.932 40.399,38.178 6.6,2.349 12.68,2.384 17.353,-0.38 3.195,-1.89 5.823,-5.096 7.46,-10.007 0.368,-1.105 0.514,-2.689 0.341,-4.675 -0.314,-3.617 -1.655,-8.931 -3.612,-15.085 -6.259,-19.677 -18.827,-48.38 -21.413,-56.138 -2.321,-6.961 -5.551,-13.889 -8.159,-20.41 -0.367,-0.917 -1.647,-5.312 -1.971,-6.434 l 10e-4,-0.003 c 0.267,-1.588 -0.805,-3.093 -2.393,-3.361 -1.034,-0.174 -1.872,0.13 -2.556,0.779 -0.377,0.358 -0.831,0.951 -0.941,1.927 -0.043,0.379 -0.013,1.105 0.188,2.03 0.461,2.112 1.811,6.117 2.256,7.229 2.567,6.419 5.756,13.235 8.041,20.088 2.582,7.748 15.138,36.411 21.388,56.061 1.552,4.878 2.711,9.178 3.191,12.414 0.243,1.643 0.375,2.924 0.105,3.734 -1.102,3.306 -2.744,5.558 -4.895,6.83 -3.346,1.979 -7.702,1.588 -12.427,-0.095 -13.579,-4.834 -29.759,-20.533 -37.138,-35.291 -1.716,-3.432 -3.658,-4.639 -5.209,-4.91 -1.829,-0.319 -3.781,0.476 -5.56,2.426 -1.896,2.08 -3.805,5.811 -6.059,8.065 -1.015,1.015 -1.644,2.511 -1.679,4.469 -0.034,1.866 0.502,4.32 1.476,7.054 3.326,9.326 11.762,22.506 13.191,24.649 6.334,9.502 18.095,18.346 30.61,23.051 8.495,3.193 17.325,4.471 25.05,2.926 18.486,-3.697 24.736,-20.656 24.302,-41.575 -0.611,-29.363 -14.175,-66.446 -19.975,-79.979 -2.177,-5.08 -4.891,-18.955 -8.455,-26.823 -1.103,-2.436 -2.327,-4.359 -3.573,-5.535 -1.312,-1.239 -2.732,-1.808 -4.152,-1.808 -1.61,0 -2.917,1.307 -2.917,2.917 0,1.563 1.233,2.841 2.778,2.913 z m -16.332,11.992 c -0.464,0.209 -0.987,0.298 -1.523,0.236 0.569,0.071 1.074,-0.017 1.523,-0.236 z"
   style="fill:#000344;fill-opacity:1"
   id="path56" />
                    <path
   d="m 947.693,784.679 c 0.136,-0.74 -0.32,-1.474 -1.061,-1.67 -0.962,-0.255 -1.488,0.097 -1.749,0.334 -0.378,0.342 -0.612,0.836 -0.491,1.5 0.057,0.315 0.291,0.808 0.641,1.255 0.439,0.56 1.036,1.041 1.173,1.109 1.922,0.961 5.143,0.602 6.978,-0.315 3.008,-1.504 4.595,-3.258 5.933,-5.146 1.174,-1.655 2.122,-3.434 3.901,-5.213 0.569,-0.569 0.569,-1.493 0,-2.062 -0.569,-0.569 -1.493,-0.569 -2.062,0 -1.555,1.554 -2.543,3.097 -3.53,4.58 -1.28,1.924 -2.556,3.737 -5.547,5.232 -1.094,0.547 -2.969,0.884 -4.186,0.396 z"
   style="fill:#000344;fill-opacity:1"
   id="path58" />
                    <path
   d="m 940.178,768.215 c -0.18,-0.089 -0.381,-0.143 -0.594,-0.15 -0.665,-0.025 -1.001,0.014 -1.08,0.032 -0.377,0.086 -0.58,0.264 -0.69,0.369 -0.369,0.35 -0.47,0.746 -0.453,1.124 0.014,0.323 0.112,0.768 0.612,1.125 0.074,0.053 0.269,0.19 0.623,0.262 0.758,0.153 7.229,0.679 7.793,0.616 6.95,-0.772 11.043,-4.837 14.066,-10.883 0.36,-0.72 0.067,-1.596 -0.653,-1.956 -0.72,-0.36 -1.596,-0.068 -1.956,0.652 -2.55,5.1 -5.917,8.637 -11.779,9.288 -0.375,0.042 -4.07,-0.304 -5.889,-0.479 z"
   style="fill:#000344;fill-opacity:1"
   id="path60" />
                    <path
   d="m 887.277,810.205 c -0.015,-0.063 -0.035,-0.127 -0.059,-0.189 -0.388,-0.993 -0.924,-1.242 -1.049,-1.295 -0.379,-0.159 -0.714,-0.138 -0.998,-0.052 -0.4,0.121 -0.993,0.444 -1.048,1.34 -0.011,0.177 0.023,0.622 0.272,1.141 0.369,0.768 1.237,1.834 2.688,2.041 1.699,0.243 3.608,-0.438 5.142,-1.028 3.611,-1.389 5.889,-2.945 7.173,-5.065 0.889,-1.467 1.326,-3.219 1.326,-5.436 0,-0.805 -0.653,-1.459 -1.458,-1.459 -0.805,0 -1.458,0.654 -1.458,1.459 0,1.596 -0.264,2.869 -0.904,3.925 -1.009,1.666 -2.887,2.762 -5.726,3.854 -1.106,0.425 -2.457,1.038 -3.683,0.863 -0.082,-0.012 -0.155,-0.049 -0.218,-0.099 z"
   style="fill:#000344;fill-opacity:1"
   id="path62" />
                    <g
   transform="translate(-6.85432,-30.1142)"
   id="g68">
                        <path
   d="m 753.936,393.54 c -1.144,0.077 -1.648,-3.229 -1.973,-4.203 -2.144,-6.432 -17.625,-31.835 -6.362,-37.466 1.445,-0.722 4.15,1.763 4.949,2.828 8.505,11.34 31.656,41 6.362,41"
   style="fill:#959799"
   id="path64" />
                        <path
   d="m 754.362,392.146 c -0.09,-0.181 -0.252,-0.521 -0.334,-0.77 -0.311,-0.94 -0.518,-2.012 -0.681,-2.501 -1.28,-3.841 -7.351,-14.474 -9.573,-23.581 -0.69,-2.829 -1.009,-5.498 -0.607,-7.722 0.346,-1.91 1.256,-3.46 3.034,-4.369 0.042,0.005 0.141,0.019 0.202,0.037 0.2,0.059 0.407,0.158 0.615,0.276 0.981,0.556 1.962,1.521 2.365,2.058 5.01,6.68 15.255,19.802 17.239,29.258 0.567,2.704 0.468,5.072 -0.954,6.748 -1.49,1.756 -4.29,2.66 -8.756,2.66 -0.805,0 -1.459,0.654 -1.459,1.459 0,0.805 0.654,1.458 1.459,1.458 5.653,0 9.093,-1.468 10.98,-3.69 1.954,-2.303 2.364,-5.517 1.584,-9.234 -2.057,-9.806 -12.564,-23.482 -17.76,-30.409 -0.658,-0.878 -2.427,-2.564 -4.006,-3.211 -1.019,-0.418 -1.993,-0.431 -2.761,-0.046 -3.919,1.959 -5.208,5.912 -4.799,10.786 0.833,9.918 8.912,23.891 10.43,28.445 0.244,0.732 0.611,2.681 1.213,3.762 0.577,1.035 1.418,1.491 2.241,1.435 0.803,-0.054 1.411,-0.749 1.357,-1.552 -0.041,-0.621 -0.467,-1.125 -1.029,-1.297 z"
   style="fill:#000344;fill-opacity:1"
   id="path66" />
                    </g>
                </g>
            </g>
            <g
   id="g96">
                <path
   d="m 806.068,767.989 c 9.45561,12.19138 10.3649,-11.70514 -2.057,-11.69812 -64.1876,-40.00898 -140.76229,-61.59694 -216.53385,-55.59989 -23.57395,3.14779 -49.16215,4.15571 -69.60549,17.48779 0.25834,15.72118 21.14491,-5.51579 30.617,-3.3438 84.39619,-18.21946 174.54308,1.37582 247.38121,46.53963 3.54351,1.93153 7.47584,3.50251 10.19813,6.61439 z"
   style="fill:#000344;fill-opacity:1"
   id="path74" />
                <path
   d="m 539.583,682.453 c 30.16395,-11.90974 63.45524,-14.43189 95.65877,-13.46333 52.78599,2.63809 103.28317,21.10204 151.44603,41.55914 5.84401,4.7879 28.06554,20.03501 21.21137,4.04494 C 784.12057,696.40289 754.55501,689.047 726.88808,678.88801 666.94422,658.12839 600.09367,652.89875 539.314,673.219 c -9.78399,0.77511 -9.17791,16.30284 0.269,9.234 z m 263.147,33.678 c 4.65918,-2.73008 3.80701,-2.63939 0,0 z"
   style="fill:#000344;fill-opacity:1"
   id="path76" />
                <path
   d="m 563.017,638.395 c 56.87735,-10.62556 116.26894,-8.23266 171.56122,9.27054 20.72514,5.45522 39.93012,14.90236 58.04719,26.19888 14.78867,4.43879 3.91885,-12.14667 -5.04223,-12.3885 -31.02354,-19.24475 -67.41237,-27.41163 -102.93892,-33.82301 -41.14918,-6.6781 -83.37679,-4.55062 -124.25389,2.83459 -7.45901,1.16031 -3.70372,12.16837 2.62663,7.9075 z m 0.681,-0.71 c 1.4911,-3.76156 1.16064,-3.06239 0,0 z"
   style="fill:#000344;fill-opacity:1"
   id="path78" />
                <path
   d="m 577.536,604.486 c 32.21846,-4.29542 64.60576,-12.32085 97.2533,-6.78983 38.05295,5.42154 75.63908,16.92113 109.17045,35.76821 6.37992,11.37919 20.59754,-0.82811 6.82025,-5.01338 -13.92793,-9.56639 -30.15051,-15.94412 -45.93923,-22.01788 -44.66959,-15.75935 -93.37717,-24.72354 -140.30251,-14.24251 -7.81735,2.73757 -40.32479,0.13679 -28.43378,12.43661 z"
   style="fill:#000344;fill-opacity:1"
   id="path80" />
                <path
   d="m 781.202,600.955 c 10.05489,9.61516 9.57958,-10.81908 -0.97112,-11.93137 -25.66557,-17.20521 -56.56217,-24.61335 -86.32007,-31.54203 -23.78073,-5.43383 -48.28621,-4.39807 -72.13194,-0.0732 -6.84617,0.24826 -32.05255,0.89913 -17.72426,9.67667 25.52277,-0.61304 50.8754,-8.68944 76.46266,-3.42687 31.61471,5.40907 63.38794,13.93248 91.54273,29.61584 3.23286,2.32051 6.35076,4.8383 9.142,7.681 z m 0.888,-3.984 -0.637,0.943 z m 0.011,-0.012 0.144,-0.152 z"
   style="fill:#000344;fill-opacity:1"
   id="path82" />
                <path
   d="m 621.293,529.634 c -15.11049,6.86996 9.84629,11.05989 16.65421,6.30491 31.65111,-8.09106 64.79512,-2.65182 95.19637,7.84222 16.24762,5.78368 32.66494,11.95582 47.95142,19.63287 12.38998,-10.86123 -19.24245,-15.66908 -26.46537,-20.53589 -36.45073,-14.64617 -76.97982,-25.09771 -116.08294,-15.46283 -5.72456,0.92465 -11.45333,1.91756 -17.25369,2.21872 z"
   style="fill:#000344;fill-opacity:1"
   id="path84" />
                <path
   d="m 644.242,504.62 c 29.38196,-4.35317 59.29337,-2.90358 88.1887,3.98153 15.76397,0.0897 31.52951,14.0972 45.3043,12.45047 -4.29134,-16.10728 -32.21115,-15.46495 -46.45529,-21.03187 -29.45668,-6.7702 -60.06456,-8.28386 -89.87071,-3.17413 -4.50216,1.96559 -1.78675,9.00272 2.833,7.774 z m 2.01,-1.122 c -0.0226,0.0156 0.001,0.006 0,0 z m 0.179,-0.191 c 1.77684,-5.02995 1.48691,-4.20882 0,0 z"
   style="fill:#000344;fill-opacity:1"
   id="path86" />
                <path
   d="m 668.814,475.218 c 21.72574,-2.84295 44.13791,-1.75509 64.43412,7.19212 12.82865,3.1325 25.82572,14.45339 38.68843,12.23051 0.21757,-12.75067 -23.47613,-11.51261 -32.61999,-18.68763 -23.08243,-10.23546 -48.9089,-13.02799 -73.69856,-8.556 -6.16238,1.70357 -2.31354,11.19023 3.196,7.821 z m 1.41,-5.554 0.517,2.338 z"
   style="fill:#000344;fill-opacity:1"
   id="path88" />
                <path
   d="m 689.152,445.447 c 20.07713,-1.95495 41.3719,-0.96579 60.21492,6.81888 5.05931,5.47963 27.77891,16.61562 19.05308,1.17112 -14.46862,-8.51465 -29.78681,-15.81394 -47.04212,-16.32287 -11.96663,1.05252 -36.57321,-7.35459 -39.63138,7.99123 1.23607,3.01903 5.87067,3.27953 7.4055,0.34164 z m 73.672,12.936 -0.004,-0.174 z"
   style="fill:#000344;fill-opacity:1"
   id="path90" />
                <path
   d="m 706.188,420.364 c 18.54118,1.05492 40.44563,-3.65854 53.6945,12.91987 16.76628,-0.7769 -5.45622,-17.52399 -13.62314,-18.42986 -14.02586,-4.42272 -32.0463,-3.76732 -45.28986,-0.24026 -1.54648,3.22499 1.79869,7.108 5.2185,5.75025 z m 2.608,-2.808 0.015,-2.174 z"
   style="fill:#000344;fill-opacity:1"
   id="path92" />
                <path
   d="m 729.403,394.359 c 13.50451,-6.52763 25.62491,12.93064 35.52763,7.16291 -3.89561,-14.81988 -29.88941,-19.86548 -42.00963,-12.49491 -2.25978,3.98188 3.10706,8.40073 6.482,5.332 z m 0.926,-5.212 0.476,1.335 z"
   style="fill:#000344;fill-opacity:1"
   id="path94" />
            </g>
            <g
   id="g112">
                <g
   transform="matrix(1.04399,0,0,1.10994,-27.4586,-35.9823)"
   id="g100">
                    <path
   d="m 854.759,445.045 c -7.67433,-20.5733 -38.54952,-30.4887 -54.04927,-12.78231 -13.09849,15.19628 -6.19996,44.76397 14.78027,48.79169 14.4772,5.04078 33.53088,-0.86624 38.10388,-16.65963 2.09315,-6.20593 2.18012,-12.93019 1.16512,-19.34975 z m -7.815,1.635 c 2.5504,11.42172 -2.58055,26.39396 -15.58578,28.13573 -12.91325,2.42264 -28.58851,-4.8007 -28.96968,-19.49383 -3.01432,-12.14281 6.56605,-25.39976 19.34997,-24.80728 10.58922,-0.0234 20.53369,6.81366 25.20549,16.16538 z"
   style="fill:#000344;fill-opacity:1"
   id="path98" />
                </g>
                <path
   d="m 873.443,580.163 c 2.45708,-17.47847 -11.88228,-32.9031 -26.653,-39.851 -18.61943,-5.30114 -34.27921,13.11303 -35.62007,30.31244 -3.4927,17.21421 9.74031,36.35614 28.10748,35.55845 15.32363,0.14839 31.24329,-10.42291 34.16559,-26.01989 z m -8.195,-1.512 c -3.37697,19.13165 -34.31504,27.23405 -43.68115,8.46062 -6.40291,-13.97654 0.12386,-35.25074 16.12106,-39.06531 14.35151,-1.20029 28.9369,17.01198 27.56009,30.60469 z"
   style="fill:#000344;fill-opacity:1"
   id="path102" />
                <path
   d="m 938.215,504.399 c -12.30855,-9.22854 -31.37627,-5.93928 -39.19701,7.55443 -11.52641,15.78005 -6.79795,42.37307 13.16884,48.69719 14.04877,5.76566 34.7282,1.40936 38.86403,-15.02498 4.16458,-14.17817 1.50436,-33.78137 -12.83586,-41.22664 z m -4.248,7.175 c 13.23784,7.46699 14.684,30.95437 2.85513,40.30548 -13.98786,8.27495 -36.28664,-1.40885 -35.6606,-18.92121 -0.85076,-13.40201 10.92212,-29.48856 25.64084,-24.77212 2.54686,0.74695 4.9431,1.94732 7.16463,3.38785 z"
   style="fill:#000344;fill-opacity:1"
   id="path104" />
                <path
   d="m 872.342,665.746 c -13.03789,-14.34124 -39.21714,-7.3612 -44.64252,10.88237 -6.99681,16.22971 -3.68978,38.20206 11.09105,48.95755 15.83453,7.89315 35.14972,-1.38071 46.09054,-13.52361 12.6045,-15.69724 -0.70575,-35.05308 -12.53907,-46.31631 z m -6.093,5.686 c 9.77442,9.0126 22.64625,26.07819 9.82818,37.98677 -9.04514,7.82394 -24.01397,15.30547 -35.08696,7.46657 -11.94136,-13.01059 -11.74982,-37.66558 3.29791,-48.12409 6.87965,-3.61757 16.47654,-3.36358 21.96087,2.67075 z"
   style="fill:#000344;fill-opacity:1"
   id="path106" />
                <path
   d="m 958.808,645.408 c -3.29162,-18.06827 -23.78593,-26.97461 -40.50962,-26.43087 -14.42826,4.23251 -26.23775,17.74644 -24.86987,33.35326 -0.38864,11.87825 2.27173,25.78163 14.18759,31.34999 17.76403,10.63285 45.85585,3.21028 50.6184,-18.47851 1.68978,-6.44893 1.58708,-13.24541 0.5735,-19.79387 z m -39.041,-18.229 c 13.73956,0.28805 31.65932,7.74253 31.31566,23.91412 2.035,12.94374 -6.14772,27.5173 -20.03578,28.70738 -13.02902,2.35424 -30.04047,-5.39614 -28.92059,-20.61431 -2.9005,-13.82042 3.56781,-27.65548 17.64071,-32.00719 z"
   style="fill:#000344;fill-opacity:1"
   id="path108" />
                <path
   d="m 1028.17,592.759 c -5.6891,-12.16389 -22.2254,-8.82682 -32.47436,-5.23055 -22.02476,10.1846 -30.21583,45.01893 -11.59077,62.09951 16.99883,15.25644 44.73323,3.26427 52.06033,-16.43791 6.001,-13.90861 1.7362,-29.40496 -7.9952,-40.43105 z m -7.85,2.849 c 8.4713,10.14871 14.2106,24.7663 6.8055,37.2588 -6.925,14.19804 -29.10158,21.84284 -40.02986,7.8855 -10.387,-14.51883 -3.65665,-38.24027 12.28249,-45.79214 6.14107,-1.58427 16.22437,-5.10486 20.94187,0.64784 z"
   style="fill:#000344;fill-opacity:1"
   id="path110" />
            </g>
            <g
   id="g190">
                <path
   d="m 760.898,120.965 c -0.099,-0.311 -0.66,-0.169 -0.957,-0.169 -3.985,0 -6.055,7.593 -1.505,8.73 5.517,1.38 9.357,-9.031 2.709,-9.031"
   style="fill:#000344;fill-opacity:1"
   id="path114" />
                <path
   d="m 786.488,109.204 c -0.686,-5.462 -11.187,2.871 -6.98,7.077 3.823,3.823 12.896,-2.156 7.827,-7.225"
   style="fill:#000344;fill-opacity:1"
   id="path116" />
                <path
   d="m 816.777,99.642 c 0.345,-1.294 -3.288,-1.267 -4.156,-1.122 -3.733,0.622 -5.781,5.959 -3.01,8.73 6.119,6.119 7.225,-4.594 7.225,-7.225"
   style="fill:#000344;fill-opacity:1"
   id="path118" />
                <path
   d="m 845.402,96.846 c -4.97,-2.434 -11.303,3.284 -7.494,7.093 4.893,4.893 10.534,-2.112 8.128,-6.924"
   style="fill:#000344;fill-opacity:1"
   id="path120" />
                <path
   d="m 875.977,100.477 c -4.383,-4.753 -11.65,1.46 -7.665,6.773 3.428,4.57 11.179,-2.026 8.73,-6.924"
   style="fill:#000344;fill-opacity:1"
   id="path122" />
                <path
   d="m 899.534,110.874 c 0.461,-1.696 -3.074,-2.27 -4.129,-1.818 -2.914,1.249 -5.702,5.14 -3.311,8.128 2.3,2.876 7.548,2.038 8.729,-1.505 0.477,-1.429 -0.602,-2.89 -0.602,-4.215"
   style="fill:#000344;fill-opacity:1"
   id="path124" />
                <path
   d="m 920.609,128.014 c 0.676,-4.886 -12.214,-2.309 -9.249,3.62 1.015,2.03 5.221,4.411 7.224,2.408 0.847,-0.847 1.857,-2.661 2.108,-3.914 0.049,-0.246 0,-2.214 0,-1.505"
   style="fill:#000344;fill-opacity:1"
   id="path126" />
                <path
   d="m 930.549,145.513 c -2.267,-3.362 -9.275,0.754 -8.653,4.484 1.257,7.544 8.429,3.416 8.429,-3.613"
   style="fill:#000344;fill-opacity:1"
   id="path128" />
                <path
   d="m 902.048,150.616 c -0.295,-4.705 -6.165,0.39 -5.138,4.498 0.935,3.739 6.635,2.679 7.827,-0.301 0.718,-1.794 -0.789,-4.36 -1.204,-6.021"
   style="fill:#000344;fill-opacity:1"
   id="path130" />
                <path
   d="m 890.514,137.1 c -3.34,-4.116 -11.44,-2.125 -9.78,4.518 1.282,5.126 8.951,3.453 8.951,-3.061"
   style="fill:#000344;fill-opacity:1"
   id="path132" />
                <path
   d="m 870.471,125.347 c -0.466,-3.037 -3.309,-1.896 -5.169,-0.035 -3.477,3.476 -1.793,8.736 2.408,10.536 7.406,3.174 7.77,-6.68 4.214,-10.235"
   style="fill:#000344;fill-opacity:1"
   id="path134" />
                <path
   d="m 851.153,117.854 c -5.055,-1.143 -6.751,5.669 -3.01,8.662 3.153,2.523 7.702,-2.908 6.924,-6.021 -0.327,-1.305 -2.956,-1.149 -3.914,-2.107"
   style="fill:#000344;fill-opacity:1"
   id="path136" />
                <path
   d="m 827.841,118.613 c 1.294,-2.185 -3.237,-1.296 -4.082,-0.827 -3.027,1.682 -3.737,8.366 -0.602,9.934 8.023,4.012 9.879,-9.633 6.322,-9.633"
   style="fill:#000344;fill-opacity:1"
   id="path138" />
                <path
   d="m 803.773,123.233 c -2.081,-3.752 -13.391,4.656 -5.3,8.702 8.708,4.354 10.97,-9.934 5.719,-9.934"
   style="fill:#000344;fill-opacity:1"
   id="path140" />
                <path
   d="m 778.418,133.875 c -1.142,-4.362 -9.233,3.131 -7.038,6.79 3.076,5.127 8.625,-0.59 9.633,-3.613 0.568,-1.705 -2.709,-2.742 -2.709,-4.515"
   style="fill:#000344;fill-opacity:1"
   id="path142" />
                <path
   d="m 756.066,157.787 c -2.348,-1.833 -6.423,10.271 -0.34,10.271 3.279,0 6.414,-7.391 3.613,-9.633 -1.213,-0.97 -4.817,-1.982 -4.817,0.301"
   style="fill:#000344;fill-opacity:1"
   id="path144" />
                <path
   d="m 777.58,166.001 c -1.956,-10.391 -13.263,3.664 -6.2,8.078 6.648,4.155 8.785,-5.965 4.816,-9.934"
   style="fill:#000344;fill-opacity:1"
   id="path146" />
                <path
   d="m 801.29,159.664 c -1.603,-9.426 -15.984,7.567 -4.322,9.9 11.134,2.226 2.3,-10.601 3.01,-10.838"
   style="fill:#000344;fill-opacity:1"
   id="path148" />
                <path
   d="m 827.402,149.022 c -0.786,-6.05 -10.053,-2.137 -10.566,2.48 -0.366,3.289 3.474,5.696 6.622,4.515 2.752,-1.032 2.71,-4.272 2.71,-6.623"
   style="fill:#000344;fill-opacity:1"
   id="path150" />
                <path
   d="m 853.544,147.904 c 0.305,-5.353 -11.715,-1.506 -8.11,4.802 5.522,9.664 12.213,-3.613 7.827,-3.613"
   style="fill:#000344;fill-opacity:1"
   id="path152" />
                <path
   d="m 874.618,154.922 c -1.538,-0.586 -1.99,-2.543 -4.5,-1.915 -3.015,0.754 -7.577,5.779 -5.719,9.031 4.302,7.528 9.332,0.013 9.332,-5.419"
   style="fill:#000344;fill-opacity:1"
   id="path154" />
                <path
   d="m 883.128,174.406 c -2.339,-4.005 -10.965,3.115 -5.484,7.5 6.058,4.846 9.404,-6.623 5.419,-6.623"
   style="fill:#000344;fill-opacity:1"
   id="path156" />
                <path
   d="m 861.41,183.653 c -0.381,-9.747 -14.333,3.499 -5.139,7.585 7.177,3.19 12.927,-8.128 3.612,-8.128"
   style="fill:#000344;fill-opacity:1"
   id="path158" />
                <path
   d="m 841.571,170.023 c -0.976,-8.877 -13.813,3.056 -7.878,6.765 2.721,1.7 7.462,0.321 8.128,-3.01 0.489,-2.444 -2.107,-5.596 -2.107,-5.419"
   style="fill:#000344;fill-opacity:1"
   id="path160" />
                <path
   d="m 812.272,184.81 c 0.427,-9.761 -12.679,4.018 -4.166,7.632 6.363,2.701 8.681,-9.031 4.515,-9.031"
   style="fill:#000344;fill-opacity:1"
   id="path162" />
                <path
   d="m 835.625,195.728 c -1.556,-7.148 -9.537,1.385 -9.537,5.943 0,3.306 6.944,4.822 8.81,2.21 2.12,-2.969 -0.602,-4.947 -0.602,-7.526"
   style="fill:#000344;fill-opacity:1"
   id="path164" />
                <path
   d="m 826.646,228.413 c 1.092,-6.607 -11.47,-0.342 -7.703,4.367 4.98,6.225 11.301,-0.74 6.322,-5.719"
   style="fill:#000344;fill-opacity:1"
   id="path166" />
                <path
   d="m 808.002,214.86 c 1.166,-8.356 -8.434,-0.805 -5.014,3.471 3.655,4.568 9.004,-0.736 8.128,-5.118 -0.187,-0.936 -2.297,-1.695 -3.01,-2.408"
   style="fill:#000344;fill-opacity:1"
   id="path168" />
                <path
   d="m 787.836,193.46 c -2.746,-5.697 -10.593,1.045 -9.833,5.605 0.922,5.536 10.299,6.009 12.342,0.903 1.56,-3.9 -2.408,-5.136 -2.408,-7.827"
   style="fill:#000344;fill-opacity:1"
   id="path170" />
                <path
   d="m 764.013,188.48 c -2.035,-3.229 -10.605,6.254 -3.337,9.161 3.833,1.533 9.774,-8.209 2.275,-8.209"
   style="fill:#000344;fill-opacity:1"
   id="path172" />
                <path
   d="m 765.648,218.606 c -6.154,-5.875 -11.239,11.584 0.313,9.659 11.401,-1.9 -2.134,-11.495 -1.204,-9.633"
   style="fill:#000344;fill-opacity:1"
   id="path174" />
                <path
   d="m 789.359,231.922 c -2.562,-7.618 -12.841,6.325 -4.734,8.685 9.513,2.769 10.488,-10.536 3.914,-10.536"
   style="fill:#000344;fill-opacity:1"
   id="path176" />
                <path
   d="m 771.318,253.643 c 0.589,-3.717 -13.457,0.817 -8.882,6.917 6.456,8.608 12.009,-6.708 5.332,-6.708"
   style="fill:#000344;fill-opacity:1"
   id="path178" />
                <path
   d="m 798.696,254.639 c -5.34,-4.432 -9.772,4.863 -4.137,8.244 8.19,4.914 9.571,-7.224 6.021,-7.224"
   style="fill:#000344;fill-opacity:1"
   id="path180" />
                <path
   d="m 780.052,275.479 c 0.514,-2.254 -3.4,-0.709 -4.157,0.048 -2.697,2.697 -0.261,7.473 3.011,8.127 4.183,0.837 5.772,-6.445 2.408,-8.127"
   style="fill:#000344;fill-opacity:1"
   id="path182" />
                <path
   d="m 764.892,292.902 c -5.465,-2.719 -6.533,9.981 -0.135,9.115 2.534,-0.343 6.173,-6.191 3.914,-8.128 -0.573,-0.49 -4.516,-2.761 -4.516,-0.602"
   style="fill:#000344;fill-opacity:1"
   id="path184" />
                <path
   d="m 781.329,292.94 c -3.494,-2.82 -8.056,5.158 -4.92,7.51 4.982,3.737 7.475,-4.291 4.303,-7.464"
   style="fill:#000344;fill-opacity:1"
   id="path186" />
                <path
   d="m 767.998,312.309 c -1.662,-4.762 -8.461,1.712 -4.746,5.362 4.707,4.625 6.82,-4.817 5.118,-4.817"
   style="fill:#000344;fill-opacity:1"
   id="path188" />
            </g>
            <g
   id="g202">
                <path
   d="m 354.91,570.096 c 42.02356,2.26325 80.28074,25.98788 106.1257,58.40088 24.24157,28.5485 43.53694,61.30744 57.0623,96.21712 6.88867,-13.435 13.77733,-26.87 20.666,-40.305 -10.64603,-47.25046 -43.54202,-86.46902 -80.34475,-116.41856 -19.5592,-14.49689 -43.49757,-24.86643 -68.21425,-24.01944 -13.05607,6.52223 -23.84914,17.17471 -35.295,26.125 z"
   style="fill:#000344;fill-opacity:1"
   id="path192" />
                <path
   d="m 415.194,520.685 c 38.54481,4.86859 75.16973,23.66204 100.28538,53.52317 17.68023,19.35717 33.26722,41.00258 43.77962,65.11183 7.822,-13.52933 15.644,-27.05867 23.466,-40.588 -21.83211,-40.15199 -51.39726,-78.7965 -94.12185,-97.95094 -11.49054,-2.98588 -26.06596,-13.82086 -36.98697,-7.30173 -12.14073,9.06856 -24.28145,18.13711 -36.42218,27.20567 z"
   style="fill:#000344;fill-opacity:1"
   id="path194" />
                <path
   d="m 490.865,468.042 c 19.44784,3.28547 37.07217,14.3073 53.68159,24.65196 24.8366,18.33189 45.85539,42.65346 58.50041,70.93904 7.169,-11.11067 14.338,-22.22133 21.507,-33.332 -10.85273,-31.17639 -37.34054,-54.75334 -65.41304,-70.67865 -11.84563,-4.3602 -26.2506,-14.59074 -38.59474,-9.8102 -9.89374,6.07662 -19.78748,12.15323 -29.68122,18.22985 z"
   style="fill:#000344;fill-opacity:1"
   id="path196" />
                <path
   d="m 564.399,427.075 c 29.45897,4.03215 53.60176,25.33647 71.10592,48.18134 8.80623,5.78349 7.0378,32.6756 15.48602,15.06693 6.11902,-8.47042 12.23804,-16.94085 18.35706,-25.41127 -10.51015,-29.13946 -38.78909,-50.04986 -67.99832,-56.47887 -12.3169,6.21396 -24.63379,12.42791 -36.95068,18.64187 z"
   style="fill:#000344;fill-opacity:1"
   id="path198" />
                <path
   d="m 641.56,393.572 c 21.81837,4.12191 42.72305,20.58017 44.69022,43.90284 1.66319,3.4281 7.613,-8.71364 11.07719,-11.8271 3.28313,-6.14738 12.24132,-10.87709 9.30886,-18.61251 -3.19284,-14.89907 -19.97945,-27.33846 -34.56774,-25.82721 -10.16951,4.12132 -20.33902,8.24265 -30.50853,12.36398 z"
   style="fill:#000344;fill-opacity:1"
   id="path200" />
            </g>
            <g
   id="g228">
                <g
   transform="matrix(1.50651,0.819647,-0.591617,1.08739,-172.545,-474.848)"
   id="g206">
                    <path
   d="m 573.084,173.061 c -2.99844,-5.19176 -10.9913,-4.70813 -15.56399,-1.84909 -7.64411,4.38183 -11.88775,16.29022 -4.93989,23.1079 6.30823,5.0974 15.59614,1.62501 21.05132,-3.15081 5.1447,-3.82537 5.37475,-12.06282 0.65856,-16.282 -0.54843,-0.33284 -0.43641,-1.34079 -1.137,-1.516"
   style="fill:#000344;fill-opacity:1"
   id="path204" />
                </g>
                <g
   transform="matrix(0.936699,0,0,1.40172,46.1774,-57.0246)"
   id="g210">
                    <path
   d="m 712.603,149.119 c 3.07571,-7.54659 3.87395,-18.83431 -4.48278,-23.31456 -7.45482,-4.90564 -17.37591,-4.00429 -24.03911,1.85545 -8.13605,5.28671 -8.01889,17.00423 -0.62567,22.86456 7.25074,7.67865 23.38231,8.49547 29.14756,-1.40545 z"
   style="fill:#000344;fill-opacity:1"
   id="path208" />
                </g>
                <g
   transform="matrix(0.891017,1.06169,-0.76599,0.642852,188.385,-609.359)"
   id="g214">
                    <path
   d="m 632.25,134.029 c -11.3067,-7.62382 -27.15935,4.50326 -26.30861,17.12683 -0.98518,9.37594 9.94712,15.11711 18.07828,13.28507 6.01217,-1.59681 12.52726,-4.6061 16.07333,-9.8279 2.29174,-5.07865 1.94732,-10.6827 -1.519,-15.156"
   style="fill:#000344;fill-opacity:1"
   id="path212" />
                </g>
                <g
   transform="matrix(0.837035,1.07917,-0.790173,0.612883,278.782,-593.777)"
   id="g218">
                    <path
   d="m 642.956,196.14 c -10.80523,-7.56638 -26.58103,2.1827 -27.40661,14.64319 -2.30793,7.7903 4.69707,15.07025 12.27357,15.55674 11.01327,1.50752 24.67716,-7.34688 22.77518,-19.52117 -0.49209,-3.50583 -2.53835,-6.45379 -5.06714,-8.81676"
   style="fill:#000344;fill-opacity:1"
   id="path216" />
                </g>
                <g
   transform="matrix(0.838792,-0.544452,0.740131,1.14026,-18.1168,349.215)"
   id="g222">
                    <path
   d="m 697.584,182.167 c -4.40118,-8.06949 -16.92555,-8.04997 -23.56213,-2.72142 -6.73279,4.43182 -12.9708,13.63062 -8.03261,21.52552 7.12949,12.04404 28.7885,8.681 31.09997,-5.48121 1.2172,-4.23612 2.87171,-9.17441 0.49477,-13.32289 z"
   style="fill:#000344;fill-opacity:1"
   id="path220" />
                </g>
                <g
   transform="matrix(0.807803,-0.412682,0.551394,1.07933,7.6597,277.25)"
   id="g226">
                    <path
   d="m 715.112,241.831 c -2.37268,-7.89444 -13.2691,-12.776 -20.7078,-8.71936 -10.42314,4.13433 -18.68186,17.25556 -12.47014,27.9476 6.00557,11.55214 25.14457,15.41776 32.84369,3.60299 4.43718,-6.84053 4.53449,-15.85294 0.33425,-22.83123 z"
   style="fill:#000344;fill-opacity:1"
   id="path224" />
                </g>
            </g>
            <g
   id="g252">
                <path
   d="m 394.234,355.009 c -0.98933,-11.4666 -4.21448,-27.15866 12.55842,-25.37218 8.43841,-1.51517 24.4158,-7.57171 20.24117,7.51691 -3.03237,17.39911 19.382,10.22523 28.90041,7.68627 10.99867,-10.22107 0.40701,-30.3798 -13.89994,-20.85284 -12.26656,2.82037 2.92049,22.18927 1.53594,7.42784 4.78938,-10.9807 17.36599,2.99039 7.743,8.91275 -8.95507,1.87522 -23.31424,6.19261 -18.456,-8.46775 0.85854,-15.74109 -17.59268,-9.82844 -27.05587,-7.97016 -12.89735,-0.46092 -22.05316,8.66966 -17.7573,21.83505 -2.28424,4.62539 3.41847,22.0696 6.19017,9.28411 z m -1.777,-1.451 c -2.77871,0.0146 -2.8918,0.14122 0,0 z"
   style="fill:#000344;fill-opacity:1"
   id="path230" />
                <path
   d="m 405.759,341.984 c 7.60127,-8.13867 13.77047,2.98631 11.53363,9.03073 -2.17032,-5.00052 -11.27966,-5.29975 -6.45936,2.94983 11.6996,10.04929 17.21648,-7.9177 9.55078,-15.95272 -8.63453,-12.6487 -27.30806,2.71263 -19.80169,15.42535 3.88459,16.68229 7.53073,-6.09549 5.17664,-11.45319 z"
   style="fill:#000344;fill-opacity:1"
   id="path232" />
                <path
   d="m 604.775,281.146 c -9.57481,-1.46187 2.02204,9.67034 -7.34,12.281 -13.99427,2.89994 4.50754,-16.2576 1.11947,-23.61895 -1.26159,-15.8289 18.31148,3.18231 15.10897,11.47254 4.04844,14.06789 -9.36868,30.61386 -24.15547,26.85533 -11.45663,0.56248 -20.75395,-1.3349 -15.05577,-14.59754 1.38565,-12.59033 -24.78514,-11.6959 -24.97403,-0.70132 2.26144,8.30567 3.64747,20.18573 -9.33709,15.54335 -13.53138,0.63419 -1.04549,-17.61626 -4.92308,-25.12841 -8.36253,-9.17707 -21.7328,-11.41412 -33.64833,-11.77699 -17.29962,-2.02077 -35.30782,2.09429 -51.9501,-4.70265 -10.38612,-3.88945 -20.98922,3.68106 -23.22557,13.96064 -5.00748,14.1935 12.09651,18.7814 22.7809,16.73537 10.01163,-1.17593 21.47634,2.80665 16.71198,14.79232 1.46694,10.90317 -2.31218,22.19572 -0.66588,32.61931 9.28741,2.2866 4.66233,-16.00017 6.55525,-22.48975 -1.29369,-10.85316 5.59065,-28.15911 -10.82438,-29.68563 -9.14086,-3.86375 -27.61937,4.67633 -29.35404,-8.43532 1.53971,-16.59411 18.72644,-12.24397 29.47317,-8.4323 15.92818,1.89425 32.07989,-0.35514 47.96102,2.13808 10.65728,0.20614 26.16959,6.09952 19.63014,19.2571 -5.90028,14.96406 9.99723,19.75604 21.68817,16.88885 14.40365,-1.62337 -1.78692,-22.54014 9.27051,-22.47175 9.52809,-3.30048 10.62498,3.26085 7.49436,11.64628 0.10515,15.27953 20.68505,8.60451 30.84703,11.01236 14.27929,-3.01259 24.88301,-18.17031 21.59577,-32.71611 0.21465,-11.84133 -9.60748,-25.44956 -22.214,-23.90081 -7.85394,8.32484 -3.14579,22.51742 -11.14061,32.16907 -3.20356,16.07949 20.59185,11.06491 21.8765,-1.43451 1.88313,-2.98366 0.48453,-7.06095 -3.30489,-7.27956 z"
   style="fill:#000344;fill-opacity:1"
   id="path234" />
                <path
   d="m 483.776,344.538 c 3.11669,-17.04506 2.2257,-34.54044 2.59038,-51.73203 -4.13238,-14.57954 -21.07421,-6.1057 -30.99426,-11.85797 -9.74349,-5.53692 -15.28119,7.3031 -2.75723,5.43753 8.95288,6.07122 30.95934,-3.09462 27.94924,13.64184 -0.47276,14.83938 0.0976,29.83062 -2.50596,44.50713 0.5063,3.06179 5.20703,3.06682 5.71783,0.004 z"
   style="fill:#000344;fill-opacity:1"
   id="path236" />
                <path
   d="m 510.814,302.778 c -7.69765,10.62151 12.48783,4.99558 4.39887,-4.07225 -12.38899,-9.27751 -24.34904,12.02323 -15.05287,21.01052 10.04727,3.93475 30.51909,-1.41614 25.4854,-15.99419 1.00059,-12.41808 -6.66733,-21.58557 -19.40277,-18.59733 -18.61678,-2.11809 -13.62347,20.63248 -15.64501,32.22905 1.50677,6.92475 -4.99841,27.35636 5.45763,25.60307 0.7592,-12.22979 -0.60814,-25.20115 1.46502,-37.62706 -2.86197,-10.42311 4.26735,-17.67548 14.52411,-13.90018 8.9873,-2.01684 10.19887,17.2688 5.62762,21.32537 -6.99044,3.30888 -19.90075,4.79031 -13.41539,-6.97073 0.94354,-3.08021 3.65298,-3.99659 6.55739,-3.00627 z m 3.161,5.44 -0.081,0.084 z"
   style="fill:#000344;fill-opacity:1"
   id="path238" />
                <path
   d="m 631.675,325.696 c 11.47187,-13.75817 -18.85277,-26.2568 -19.04525,-6.62588 4.51075,12.01241 -18.58447,5.9196 -25.89105,8.31182 -8.04637,-1.64343 -25.16978,7.77894 -26.9057,1.96706 11.34044,-14.20025 -19.22266,-18.35147 -20.35392,-3.95416 -2.75178,13.17251 -19.69624,-0.0447 -29.01833,4.63129 -10.2746,-1.54109 -6.185,10.24414 2.15275,5.69237 12.8839,-1.91824 31.50034,8.31985 33.73313,-11.50325 6.31884,-4.88601 14.49396,-0.40706 5.85562,6.23513 1.22024,12.46584 18.86624,4.53164 27.07256,3.42329 12.9939,-2.2954 27.59878,1.15599 39.36519,-5.82592 3.17958,-4.13824 -3.70356,-16.25604 6.763,-13.01875 5.92365,6.00024 -6.90535,17.59302 9.0055,17.01284 20.33986,-0.72067 3.20786,-24.4904 5.60476,-36.18572 -1.52446,-6.63028 -3.89067,-24.97657 7.62374,-15.01012 8.3192,8.52461 -8.89976,31.00659 10.31665,26.90543 7.84275,-5.65856 22.04835,-1.85927 28.04035,4.03857 -3.84048,13.02492 -23.02946,-5.64298 -30.07108,6.02527 -8.00009,5.97394 6.69517,19.39361 4.83608,7.70473 -0.69775,-13.01682 19.2245,1.59847 26.69627,-4.28019 12.82025,-11.3387 -4.75013,-22.02807 -16.17927,-21.61681 -6.83215,-5.24798 -22.44151,10.19947 -15.451,-3.15 3.12309,-11.88731 -5.9207,-29.43061 -19.719,-22.938 -6.94225,12.52596 -0.43479,29.19543 1.14403,42.77792 2.62463,5.35819 3.46856,13.21282 -5.57503,9.38308 z m 26.873,-1.026 c -1.03625,-0.31094 -3.749,2.27316 0,0 z"
   style="fill:#000344;fill-opacity:1"
   id="path240" />
                <path
   d="m 683.229,332.988 c 10.35683,0.4561 28.13326,8.4232 31.8122,-6.14831 4.75591,-13.56958 -19.75722,-24.79514 -20.7412,-7.57969 -0.60604,10.75156 16.51966,4.85449 6.02875,0.23125 3.63036,-11.94098 16.74937,12.55803 2.64625,10.22375 -3.73672,0.89469 -30.90453,-7.46026 -19.746,3.273 z"
   style="fill:#000344;fill-opacity:1"
   id="path242" />
                <path
   d="m 583.594,255.098 c 4.9955,12.1459 -3.85412,18.25763 -15.37525,17.12317 -11.70309,5.91864 -14.89606,-19.57968 -1.53075,-10.76317 -2.59062,6.71767 8.39559,8.86933 6.64944,-1.01508 -7.09607,-12.58725 -30.67475,-4.92861 -19.70615,10.06538 3.83345,13.95187 27.43277,7.55598 35.43546,0.57108 5.75394,-14.38132 -4.20257,-26.45948 -18.60688,-28.5265 -11.78138,-8.157 -30.82551,-2.78761 -27.75109,13.86328 3.2984,6.72734 -3.99944,22.58082 4.84547,23.40359 6.03641,-10.08314 -3.61229,-24.1094 3.77675,-33.95475 10.05314,-3.56091 23.25633,4.75602 32.263,9.233 z"
   style="fill:#000344;fill-opacity:1"
   id="path244" />
                <path
   d="m 502.517,248.645 c 2.67533,9.22589 5.8797,-4.03707 12.33715,-0.62799 2.16601,8.30358 -3.90796,17.54524 -13.39515,10.49099 -15.88154,4.2663 -8.45041,-16.08535 -2.50975,-22.36975 9.01492,-4.34245 20.0009,1.86875 29.17775,2.70275 -0.65511,7.93027 -9.68891,26.13349 -0.0122,29.1305 2.98878,-9.86854 4.58103,-22.28682 5.13625,-32.8515 -10.68031,-4.09566 -24.40208,-8.05488 -35.96959,-5.00317 -8.68786,7.09439 -17.95362,27.32998 -5.00879,34.05179 12.92161,2.52325 30.56601,5.57843 28.72813,-14.01887 4.43998,-11.18111 -20.16611,-11.52166 -18.48375,-1.50475 z m 23.507,13.861 1.244,-0.059 z"
   style="fill:#000344;fill-opacity:1"
   id="path246" />
                <path
   d="m 443.85,238.868 c 10.79448,-1.10167 23.68871,-9.30381 33.6699,-2.6408 1.40689,8.92017 -0.45818,27.19476 -14.34749,21.7401 -5.81307,-0.55714 -24.47816,-1.41894 -15.14596,-8.46235 5.14144,-0.77952 27.83994,0.3162 18.58855,-7.67695 -9.06753,2.82156 -26.50045,-2.61901 -27.274,10.633 0.73697,13.38751 18.85756,9.49874 28.229,11.605 15.14952,3.2628 14.32389,-14.42695 16.952,-24.183 -1.09378,-16.95934 -21.33791,-12.04723 -32.257,-8.897 -7.94978,-3.7628 -21.99654,13.45555 -8.415,7.882 z"
   style="fill:#000344;fill-opacity:1"
   id="path248" />
                <path
   d="m 426.465,247.277 c 5.55632,8.5465 0.958,17.56855 -5.866,24.136 -6.36753,7.98234 -17.59736,25.14152 -2.97918,30.81905 8.175,6.17021 31.62326,-5.64218 28.85118,9.75195 -10.94103,-1.99936 -24.4019,1.15599 -36.37575,-0.53075 -6.94556,-2.1351 -27.80601,7.77051 -18.25788,-6.48475 8.94997,-15.03468 15.70401,-32.3449 29.03966,-44.01525 -4.15497,-11.01977 -14.68415,8.475 -18.28767,13.03178 -6.69553,11.59324 -13.69363,23.20318 -19.09436,35.42597 -1.74396,15.32132 16.95242,6.85153 25.55248,7.77412 12.54698,2.2812 25.65033,-2.44938 37.70352,1.55288 13.52524,-5.71002 3.06696,-26.44779 -10.92017,-20.50553 -12.72496,3.23266 -26.34868,-4.92102 -14.94583,-17.24959 5.42029,-9.44129 18.77624,-18.27664 12.77078,-30.54063 1.04143,-6.74504 -10.72326,-13.55909 -7.19078,-3.16525 z m 4.192,-0.675 0.479,-1.268 z"
   style="fill:#000344;fill-opacity:1"
   id="path250" />
            </g>
            <g
   id="g282">
                <path
   d="m 357.571,559.862 c -7.51887,-17.31754 -17.53478,-34.47557 -16.79648,-54.05144 -0.67349,-33.49024 -1.49215,-68.40689 10.49445,-100.22865 -0.0313,-9.20034 23.84956,-13.98156 9.95803,-20.00591 -19.30847,5.60307 -22.12706,29.41957 -25.56838,46.23503 -4.09644,30.2146 -5.22358,61.11931 -1.4765,91.40739 3.24212,15.39202 11.26974,29.18529 17.64388,43.36658 4.38414,5.22717 11.29594,-2.97276 5.745,-6.723 z"
   style="fill:#000344;fill-opacity:1"
   id="path254" />
                <path
   d="m 395.958,384.344 c 9.86774,-9.67206 -10.72476,-10.14025 -10.29794,1.31677 -11.78478,27.75104 -13.95389,58.70921 -13.32947,88.55973 1.21826,21.98736 5.19105,44.59676 16.03869,63.96709 15.47183,1.11147 -2.67708,-19.70397 -2.43919,-28.66903 -9.15485,-36.36651 -6.41438,-75.16281 3.478,-111.06114 1.65551,-4.92224 3.70895,-9.74938 6.54991,-14.11342 z"
   style="fill:#000344;fill-opacity:1"
   id="path256" />
                <path
   d="m 425.405,499.431 c -2.73087,13.05814 16.21594,12.39368 8.541,0.332 -7.45333,-17.83669 -12.85149,-36.97974 -11.91712,-56.58986 0.0528,-22.64545 7.01321,-44.37862 12.60824,-66.06039 2.79528,-3.99057 13.9536,-11.72105 1.76324,-13.21128 -15.72785,8.36066 -12.16269,31.09072 -18.71553,45.6996 -6.37822,29.70428 -5.95097,62.1333 7.72017,89.82993 z"
   style="fill:#000344;fill-opacity:1"
   id="path258" />
                <path
   d="m 476.027,356.537 c -11.02687,9.03468 -11.39655,25.5875 -15.61916,38.46405 -4.89933,23.55125 -2.7323,48.23501 6.26925,70.5397 0.30388,6.15623 4.02353,23.53731 10.49291,11.88925 -1.55208,-18.60701 -12.19371,-35.5142 -10.9895,-54.60136 -0.2955,-19.81702 4.47299,-39.58175 12.2295,-57.68264 5.32261,-2.14958 3.82034,-10.63474 -2.383,-8.609 z"
   style="fill:#000344;fill-opacity:1"
   id="path260" />
                <path
   d="m 519.825,347.393 c -16.64131,25.54767 -19.80602,58.12946 -14.79712,87.63375 2.85302,5.75174 3.74391,30.95943 12.69912,18.06825 -3.04269,-16.59129 -8.5699,-32.98795 -6.30093,-50.21651 0.82613,-18.41943 5.86192,-36.79578 15.92704,-52.31747 1.02757,-4.31175 -5.16113,-6.91983 -7.52811,-3.16802 z"
   style="fill:#000344;fill-opacity:1"
   id="path262" />
                <path
   d="m 557.394,344.143 c -9.70513,17.0031 -10.43258,37.66611 -12.14585,56.78051 -1.93868,8.29288 2.17811,36.14579 13.02757,24.04882 -8.68739,-14.23199 -3.68698,-33.05188 -2.04985,-49.01729 -2.41601,-10.95324 13.86578,-26.49695 4.10063,-33.06542 l -1.56469,0.3228 z"
   style="fill:#000344;fill-opacity:1"
   id="path264" />
                <path
   d="m 598.625,343.817 c -13.11925,11.77016 -11.47485,32.01855 -10.88192,48.09653 -2.6028,8.00715 9.82912,34.96895 12.83192,17.50247 -7.00556,-16.83433 -6.81732,-36.96647 -0.849,-54.138 4.12767,-3.47066 9.32063,-13.75286 -1.101,-11.461 z"
   style="fill:#000344;fill-opacity:1"
   id="path266" />
                <path
   d="m 632.343,392.316 c -2.75905,-14.40253 0.41975,-29.61743 5.2305,-43.3025 10.01528,-10.5168 -9.13506,-13.16902 -8.80976,-0.28821 -4.45609,15.05133 -8.2834,31.70246 -3.9459,47.16954 2.74848,9.61459 16.70267,1.93446 7.52516,-3.57883 z"
   style="fill:#000344;fill-opacity:1"
   id="path268" />
                <path
   d="m 670.994,353.748 c 8.95722,-12.04602 -13.04616,-7.01914 -11.49773,4.14529 -7.9201,10.03931 0.59916,36.72407 13.88532,23.84771 -4.29322,-5.59958 -12.34229,-8.83353 -6.58842,-19.47405 0.94784,-3.03689 2.18345,-6.02548 4.20083,-8.51895 z"
   style="fill:#000344;fill-opacity:1"
   id="path270" />
                <path
   d="m 700.834,365.374 c -0.66832,-6.9882 12.23055,-27.02426 -2.54287,-19.20524 -8.49135,7.1371 -8.22496,34.34975 6.48123,25.00007 1.22508,-2.68031 -1.00191,-5.93631 -3.93836,-5.79483 z"
   style="fill:#000344;fill-opacity:1"
   id="path272" />
                <path
   d="m 335.256,556.136 c 17.17328,-11.87908 -19.6805,-6.74865 -1.34059,0.70748 z"
   style="fill:#000344;fill-opacity:1"
   id="path274" />
                <path
   d="m 674.614,356.151 c -40.33948,12.38602 -81.65682,22.36527 -119.71771,41.11421 -72.34518,34.72239 -142.45929,75.98012 -202.11208,130.10984 -7.10184,8.34133 -31.75191,19.94716 -22.13608,30.61995 10.89405,-8.31387 20.94022,-20.03275 32.54493,-28.65113 57.7667,-51.54881 125.3389,-90.86877 194.82682,-124.35576 37.84032,-18.65973 78.93588,-28.55681 119.05212,-40.86411 6.50748,-1.17579 3.40417,-10.88738 -2.458,-7.973 z M 333.747,550.723 c 2.24061,3.92669 2.13876,3.43099 0,0 z m -0.622,-0.439 c -0.15206,-0.89745 -6.00581,-0.5618 0,0 z M 672.44,359.567 c -0.008,0.15789 0.0317,-0.42841 0,0 z m 0.021,-0.257 c -0.0257,0.27908 0.0552,-0.41848 0,0 z m 0.218,-0.909 -0.198,0.776 z m 0.071,-0.185 c -0.1432,0.36311 0.0636,-0.15082 0,0 z m 0.134,-0.288 c -0.0328,0.0675 0.0489,-0.0941 0,0 z"
   style="fill:#000344;fill-opacity:1"
   id="path276" />
                <path
   d="m 606.693,349.286 c -39.45046,15.56651 -80.04877,28.24171 -118.37368,46.60113 -46.42208,21.79953 -93.88643,42.3187 -135.67065,72.51735 -12.25688,8.02048 -23.07984,18.75022 -35.09326,26.54429 4.21503,15.53733 21.58843,-8.03747 29.67028,-12.39596 34.23508,-25.7196 72.23071,-45.71747 111.09858,-63.4304 40.61492,-19.8872 82.34487,-37.43893 125.17063,-51.96919 8.06224,-6.15335 34.9827,-6.34948 28.21251,-19.28956 -1.72531,-0.76425 -3.94713,-0.15244 -5.01441,1.42234 z m -281.717,145.293 0.55,1.979 z"
   style="fill:#000344;fill-opacity:1"
   id="path278" />
                <path
   d="m 332.769,448.571 c 26.42898,-26.58993 63.3143,-37.47511 95.61255,-54.88031 23.46348,-10.60358 46.94459,-23.70248 73.01028,-25.98233 8.05793,-13.89918 -19.07162,-5.66986 -25.59438,-3.1768 -37.29061,12.81721 -71.59486,32.67012 -107.44804,48.82001 -15.51195,9.06178 -32.95268,17.68181 -43.43291,32.64693 -0.77027,4.41546 5.75769,6.74537 7.8525,2.5725 z m -1.626,-5.594 -2.051,-0.539 z"
   style="fill:#000344;fill-opacity:1"
   id="path280" />
            </g>
            <g
   id="g302">
                <path
   d="m 877.6,360.995 c -5.99689,11.12968 -8.73564,25.35636 -15.23937,36.66113 10.74157,7.27834 26.66425,11.23033 37.1307,21.45085 14.02785,5.81374 14.7541,-19.45144 19.46377,-28.40993 0.95338,-8.89296 17.85243,-25.71426 -0.7888,-25.30352 -12.97311,-0.89066 -24.77665,-8.92913 -37.93802,-7.75187 -1.40002,0.52898 -2.45356,1.86418 -2.62828,3.35334 z m 5.879,4.751 c -1.14636,9.45099 -10.56952,23.87745 -7.99187,29.12212 9.67137,2.96383 21.54445,14.6837 28.28787,14.369 3.66721,-11.13529 11.03248,-28.31951 11.19931,-35.99725 -10.87785,-0.83161 -20.57628,-6.88649 -31.49531,-7.49387 z"
   style="fill:#000344;fill-opacity:1"
   id="path284" />
                <path
   d="m 939.132,415.198 c -4.59225,10.80254 -14.04641,22.62398 -12.276,34.086 13.94786,4.48305 27.49654,11.00587 39.7303,19.52248 15.96139,11.3999 13.61918,-19.8522 20.48922,-28.21179 4.17412,-10.09493 15.25998,-29.85389 -4.54165,-28.84057 -13.47699,0.74759 -26.97906,-11.66944 -38.16587,-8.37312 -2.24649,3.45601 -5.88373,7.40778 -5.236,11.817 z m 9.847,-3.86 c -1.96858,10.14471 -10.13811,19.58107 -12.74,30.312 0.48324,5.00627 16.02352,6.29167 21.317,12.27938 7.94366,3.12012 15.79185,12.67137 16.23437,-1.59701 0.46611,-9.75796 15.7598,-27.20548 8.64402,-32.2219 -11.3674,-1.64654 -22.69041,-4.78541 -33.45539,-8.77247 z m -8.438,5.855 c 3.35834,2.54617 6.17552,3.062 0,0 z m 4.07,1.747 c -0.3032,0.0377 -0.0488,0.013 0,0 z m 2.885,-1.872 c -3.7287,2.57287 -2.77764,2.2323 0,0 z"
   style="fill:#000344;fill-opacity:1"
   id="path286" />
                <path
   d="m 972.059,364.304 c -5.63067,9.31691 -16.74495,26.48252 -9.758,35.901 13.32187,0.93252 27.65338,3.36545 38.1117,12.36847 16.5584,3.03377 9.5084,-24.8606 17.652,-34.15358 5.374,-18.25246 -20.87952,-7.17553 -30.43495,-14.07714 -4.85958,-0.54249 -11.5677,-4.14606 -15.57075,-0.0388 z m 4.723,6.509 c -2.92784,8.737 -15.32323,25.71923 1.76625,22.75112 8.14881,1.19347 20.15736,9.06199 24.75675,8.55188 -2.0036,-8.3862 9.4808,-23.11574 3.9124,-26.18388 -10.48868,0.59869 -20.12889,-4.29701 -30.4354,-5.11912 z"
   style="fill:#000344;fill-opacity:1"
   id="path288" />
                <path
   d="m 1023.98,398.894 c -10.8558,8.58617 -13.3612,25.58711 -19.57,38.142 -9.82186,18.84747 17.3581,13.46993 26.6279,21.19549 9.1953,4.13892 23.3234,15.76338 22.7421,-2.87949 3.3034,-13.66847 10.4248,-25.97324 14.23,-39.419 -2.7361,-13.53934 -23.4191,-9.02749 -33.32,-14.334 -2.6653,-3.07644 -7.067,-3.44038 -10.71,-2.705 z m 2.44,8.151 c -4.222,11.17565 -15.0929,27.25685 -13.25,36.398 11.2275,-0.18144 24.8231,12.72381 32.63,9.514 3.3239,-12.70512 9.0733,-24.54249 13.61,-36.785 -10.7561,-3.91145 -23.1987,-3.73747 -32.99,-9.127 z m -6.57,-3.063 c 0,0.0791 -0.025,-0.14769 0,0 z m -0.03,-0.216 c 0.035,0.26456 -0.036,-0.29765 0,0 z m -0.02,-0.231 c 0.025,0.36704 -0.01,-0.25687 0,0 z m 0,-0.245 c 0,0.37282 0,-0.16611 0,0 z m 10.07,-2.119 0.24,1.394 z m -0.03,-0.091 v 0.006 z"
   style="fill:#000344;fill-opacity:1"
   id="path290" />
                <path
   d="m 1013.78,467.099 c -10.8223,4.59141 -17.94681,21.82635 -21.48525,33.04 9.27455,11.85832 17.36305,24.53303 30.79525,31.976 7.0618,17.70041 16.519,-12.91972 22.4964,-18.87697 7.8341,-10.42634 24.5885,-26.40667 2.3386,-31.22378 -12.3763,-1.71031 -21.2689,-19.99666 -34.145,-14.91525 z m 1.82,6.628 c -6.3288,11.38838 -21.22938,24.11287 -6.227,34.60238 5.7274,8.37173 21.0054,24.85163 24.563,7.52668 2.4372,-8.30777 18.0258,-19.61047 14.4852,-24.74981 -12.8934,-2.46327 -20.7017,-13.92916 -32.8212,-17.37925 z"
   style="fill:#000344;fill-opacity:1"
   id="path292" />
                <path
   d="m 1082.9,404.415 c -7.1679,14.09235 -9.0054,31.06975 -14.36,46.17463 -5.0435,15.65621 20.4046,4.62486 27.3,14.02737 12.6171,13.97426 20.4643,-3.95218 20.2456,-15.74456 -0.013,-12.50181 10.5067,-23.97557 9.67,-34.92053 -12.5314,-5.3587 -28.8014,-3.71504 -40.6744,-10.71803 z m 4.92,9.279 c -2.3991,11.47428 -11.3887,29.50636 -8.2347,37.60469 12.1531,-3.76197 28.6547,19.5604 28.0907,-1.62386 -0.552,-9.87763 9.3885,-25.28602 6.6179,-30.54697 -8.9462,-0.64985 -17.843,-3.02717 -26.4739,-5.43386 z"
   style="fill:#000344;fill-opacity:1"
   id="path294" />
                <path
   d="m 1091.07,480.147 c -11.8227,7.84044 -12.8247,25.84725 -19.1217,38.17877 -9.6311,12.29661 12.5156,11.99814 19.1014,20.56304 11.1185,3.57531 30.4695,15.28589 32.8159,-4.27709 5.298,-13.32689 9.3768,-27.15127 14.7344,-40.42272 -4.592,-12.98221 -24.6427,-7.85304 -34.9609,-15.77558 -3.805,-0.74531 -10.89,-3.78567 -12.5691,1.73358 z m 4.07,5.141 c -7.4178,11.37088 -10.8931,24.9596 -15.99,37.527 11.719,2.67331 26.3337,18.55512 35.88,11.823 2.843,-12.73509 15.2923,-31.77723 11.97,-40.559 -11.3503,-0.21195 -20.741,-7.77906 -31.86,-8.791 z m -5.37,3.04 c 0.084,0.023 -0.1327,-0.0432 0,0 z m -0.27,-0.099 c 0.1366,0.0583 -0.1129,-0.0487 0,0 z"
   style="fill:#000344;fill-opacity:1"
   id="path296" />
                <path
   d="m 1142.97,423.143 c -8.9921,5.48633 -10.0267,18.28769 -16.7341,26.16919 -13.4837,16.87823 13.5312,15.59583 20.4351,24.93988 13.0695,13.26727 17.7677,-11.24127 22.079,-20.07607 3.1316,-7.95905 15.3754,-20.09212 0.034,-22.79742 -8.3037,-1.38381 -18.247,-12.24455 -25.8136,-8.23558 z m 3.2,7.298 c -2.7755,8.31608 -15.9633,22.08455 -12.485,27.56237 8.2165,-0.75819 15.885,9.80865 20.562,9.56499 2.2873,-9.49807 12.2003,-22.08824 10.2183,-28.98337 -6.1235,-2.65108 -12.3643,-5.07345 -18.2953,-8.14399 z"
   style="fill:#000344;fill-opacity:1"
   id="path298" />
                <path
   d="m 1080.49,548.67 c -8.9828,8.3389 -20.4769,26.20136 -13.3225,38.991 12.7149,8.73567 29.3454,11.38437 41.9575,19.99931 9.2912,-8.64845 9.387,-24.21557 15.585,-35.31631 11.8813,-13.92346 -3.6186,-20.44102 -15.8948,-21.67305 -8.089,-0.76822 -22.5178,-10.26548 -28.3252,-2.00095 z m 4.04,5.011 c -3.5336,9.71135 -21.7557,28.98502 -2.7925,32.57727 11.5405,0.19478 27.3885,20.16974 28.8888,0.27073 1.0375,-10.83087 18.1786,-27.6442 -1.5668,-27.1161 -8.0491,-2.32814 -16.0737,-5.38729 -24.5295,-5.7319 z m -4.9,3.231 1.16,0.069 z m 1.27,0.058 c -0.1336,0.0138 -0.026,0.005 0,0 z m -1.45,-0.097 c 0.2375,0.0561 -0.1902,-0.048 0,0 z"
   style="fill:#000344;fill-opacity:1"
   id="path300" />
            </g>
            <g
   id="g322">
                <path
   d="m 930.265,297.822 c -5.69332,10.22773 -13.75645,18.86311 -19.612,28.968 -5.20249,8.46944 5.07564,9.72739 11.08721,8.812 9.59133,-0.38079 19.32124,1.30273 28.79004,-0.13863 4.85608,-9.30684 -7.25789,-20.6607 -9.4163,-30.67043 -0.74098,-6.66324 -5.09915,-19.9737 -10.84895,-6.97094 z m 3.262,10.377 c -0.67187,5.6511 -19.43058,19.25228 -9.3369,19.07 7.99338,-0.55351 22.8685,4.13331 14.46815,-7.81762 -1.71269,-3.74969 -3.6593,-7.39544 -5.13125,-11.25238 z"
   style="fill:#000344;fill-opacity:1"
   id="path304" />
                <path
   d="m 967.13,309.983 c 4.51583,10.41081 22.32667,2.8971 32.10621,7.4576 16.87909,-0.64419 -3.10173,-17.0322 -0.79611,-26.73177 0.73651,-11.82949 -12.41037,-16.79899 -16.98063,-4.55847 -3.75686,8.48718 -12.60914,14.72114 -14.32947,23.83264 z m 8.229,0.167 c -0.044,0.37681 0.14535,1.14842 0,0 z m 13.85,-20.601 c -2.53309,5.45387 -11.40245,14.43331 -9.84273,17.22944 6.36693,-0.38797 19.89837,5.81588 13.04167,-5.01939 -1.07272,-4.06834 -2.13579,-8.13921 -3.19894,-12.21005 z"
   style="fill:#000344;fill-opacity:1"
   id="path306" />
                <path
   d="m 1014.72,344.16 c 0.4444,10.78023 17.5748,6.89369 25.285,9.75729 6.475,1.44445 22.8088,12.07253 17.2088,-2.21566 -6.9621,-13.38299 -8.9189,-29.03283 -16.7163,-41.93882 -11.5929,-2.98418 -14.2898,16.3506 -21.1298,23.13637 -1.5002,3.54016 -6.3282,7.0746 -4.6477,11.26082 z m 6.18,5.156 c -4.8663,1.05491 -0.8438,0.91769 0,0 z m 15.71,-28.298 c -3.0116,6.82583 -13.3954,17.12108 -11.7523,22.12853 7.304,-0.20533 26.0604,8.92222 18.388,-3.8886 -1.8785,-6.19305 -3.7048,-12.44248 -6.6357,-18.23993 z m -14.81,18.817 c 1.3278,1.82538 0.9082,3.76928 0,0 z m -0.32,-0.378 c -4.143,-2.05928 -4.5303,-2.01713 0,0 z"
   style="fill:#000344;fill-opacity:1"
   id="path308" />
                <path
   d="m 1053.13,288.62 c -10.1768,6.8239 -5.9554,19.14664 6.465,15.86799 11.4085,0.81994 22.6939,5.07214 33.895,5.36501 5.246,-8.8804 -9.335,-18.65769 -10.0097,-28.99634 -1.9929,-8.36981 -10.083,-26.40342 -17.9395,-11.48725 -4.3695,6.26447 -8.2506,12.84958 -12.4108,19.25059 z m 19.05,-13.604 c -3.5246,6.65427 -12.6659,16.67039 -12.9678,21.06329 7.2056,-0.1057 19.4965,4.64332 22.932,2.51508 -3.6857,-7.69774 -6.7993,-15.65805 -9.9642,-23.57837 z"
   style="fill:#000344;fill-opacity:1"
   id="path310" />
                <path
   d="m 1093.6,329.475 c -3.7308,10.50242 -9.8732,19.69753 -16.07,28.857 -4.1153,16.11294 18.4241,7.3714 27.4262,10.54711 7.0376,-1.57893 24.1597,11.5675 22.9038,-1.83211 -9.1154,-8.11344 -13.5848,-20.07285 -18.225,-31.2789 -2.7133,-8.32337 -11.9691,-24.30162 -16.035,-6.2931 z m 6.55,5.641 c -1.8077,8.61015 -12.0314,19.6025 -12.0033,24.62842 6.9237,-1.05626 21.1889,2.86558 23.2926,0.15509 -4.8013,-7.75769 -6.9725,-16.76019 -11.2893,-24.78351 z"
   style="fill:#000344;fill-opacity:1"
   id="path312" />
                <path
   d="m 1110.71,291.189 c -5.282,13.23165 9.8528,12.41922 19.0759,10.08984 9.3958,-3.35993 24.2585,2.90021 29.5066,-6.52596 -4.0397,-11.5468 -12.023,-21.6086 -19.2355,-31.45104 -2.7895,-8.4165 -13.4691,-13.35256 -14.767,-0.72984 -4.2797,9.82628 -9.9799,18.94463 -14.58,28.617 z m 21.64,-23.964 c -2.0022,8.224 -15.1368,22.51069 -11.2425,26.60888 8.1652,-1.84435 22.7323,-0.58009 26.963,-3.83701 -4.7656,-7.87353 -9.6163,-15.86177 -15.7205,-22.77187 z m -16.31,22.323 c 3.2582,3.8906 3.8207,4.67725 0,0 z"
   style="fill:#000344;fill-opacity:1"
   id="path314" />
                <path
   d="m 1168.23,297.541 c -7.4079,13.67049 17.011,5.94959 24.4363,5.76562 7.6157,-3.90928 30.2042,5.96168 23.0218,-9.25286 -5.6685,-10.19387 -14.8766,-18.62116 -16.777,-30.6268 0.2848,-7.81788 -7.9042,-17.42523 -12.0516,-5.56224 -6.766,12.96485 -11.7489,26.78195 -18.6295,39.67628 z m 23.2,-30.154 c -3.114,8.90603 -12.6926,23.34796 -11.502,29.16002 7.3856,-1.78406 22.8792,-1.3453 24.925,-4.1851 -5.6324,-7.71681 -11.5254,-15.36168 -13.423,-24.97492 z m -19.67,28.603 -0.17,0.033 z"
   style="fill:#000344;fill-opacity:1"
   id="path316" />
                <path
   d="m 1145.27,354.82 c 6.0676,8.20118 19.2807,1.83984 28.2195,2.59709 7.7334,-2.16565 31.7367,6.40964 24.6256,-8.88616 -6.7552,-10.7086 -14.2401,-21.08845 -22.5251,-30.64593 -12.9293,-8.95015 -19.0623,10.47397 -25.0312,18.46671 -3.2567,4.86384 -11.4565,12.9609 -5.2888,18.46829 z m 24.07,-31.178 c -6.0192,7.56438 -13.7329,18.4718 -16.33,25.87575 9.818,2.23758 20.945,-2.00958 31.2825,-0.40605 10.208,1.11094 -6.3807,-12.33412 -8.2252,-17.52222 -2.1286,-2.69645 -3.8594,-5.94458 -6.7273,-7.94748 z"
   style="fill:#000344;fill-opacity:1"
   id="path318" />
                <path
   d="m 1170.91,403.185 c 8.96,3.39657 19.7313,5.09649 29.6438,6.51862 10.2683,8.25433 15.2442,-3.60964 9.4362,-11.96862 -6.4027,-10.07166 -5.7949,-22.22229 -10.2286,-32.85508 -10.3966,-7.88498 -16.5859,13.36113 -23.2829,19.60883 -2.413,5.21991 -12.3394,13.45778 -5.5685,18.69625 z m 23.37,-28.987 c -3.7764,6.82398 -17.1515,18.65485 -13.6545,23.30335 5.0889,-0.25147 22.3837,8.28066 20.8161,1.33781 -3.9802,-7.80579 -6.3768,-15.91606 -7.1616,-24.64116 z"
   style="fill:#000344;fill-opacity:1"
   id="path320" />
            </g>
        </g>
    </g>
</svg>
