<?xml version="1.0" encoding="UTF-8" standalone="no"?>
<svg
   width="100%"
   height="100%"
   viewBox="0 0 680 535"
   version="1.1"
   xml:space="preserve"
   style="fill-rule:evenodd;clip-rule:evenodd;stroke-linejoin:round;stroke-miterlimit:2;"
   id="svg258"
   sodipodi:docname="2023-CH-02-explanation-B.svg"
   inkscape:version="1.1.1 (3bf5ae0d25, 2021-09-20)"
   xmlns:inkscape="http://www.inkscape.org/namespaces/inkscape"
   xmlns:sodipodi="http://sodipodi.sourceforge.net/DTD/sodipodi-0.dtd"
   xmlns="http://www.w3.org/2000/svg"
   xmlns:svg="http://www.w3.org/2000/svg"><defs
   id="defs262" /><sodipodi:namedview
   id="namedview260"
   pagecolor="#ffffff"
   bordercolor="#666666"
   borderopacity="1.0"
   inkscape:pageshadow="2"
   inkscape:pageopacity="0.0"
   inkscape:pagecheckerboard="0"
   showgrid="false"
   inkscape:zoom="0.67196262"
   inkscape:cx="597.50348"
   inkscape:cy="155.5146"
   inkscape:window-width="2048"
   inkscape:window-height="1017"
   inkscape:window-x="-8"
   inkscape:window-y="-8"
   inkscape:window-maximized="1"
   inkscape:current-layer="svg258" />
    <g
   transform="translate(-849.392,-1814.02)"
   id="g256">
        <g
   transform="matrix(2.667,0,0,2.667,-3213.56,110.635)"
   id="g6">
            <g
   transform="matrix(43.7508,0,0,43.7508,1529.81,802.55)"
   id="g4">
                <path
   d="M 0.498,-0.541 0.41,-0.534 C 0.402,-0.568 0.391,-0.593 0.377,-0.609 0.353,-0.634 0.324,-0.646 0.289,-0.646 c -0.028,0 -0.053,0.007 -0.074,0.023 -0.027,0.02 -0.049,0.05 -0.065,0.088 -0.016,0.039 -0.024,0.094 -0.025,0.166 0.021,-0.032 0.047,-0.056 0.078,-0.072 0.03,-0.016 0.062,-0.023 0.096,-0.023 0.058,0 0.108,0.021 0.149,0.064 0.042,0.043 0.062,0.099 0.062,0.168 0,0.044 -0.009,0.086 -0.029,0.125 -0.019,0.038 -0.046,0.068 -0.08,0.088 C 0.368,0.002 0.329,0.012 0.286,0.012 0.213,0.012 0.153,-0.015 0.107,-0.069 0.061,-0.122 0.038,-0.211 0.038,-0.335 c 0,-0.138 0.025,-0.239 0.076,-0.302 0.045,-0.054 0.105,-0.082 0.18,-0.082 0.057,0 0.103,0.016 0.139,0.048 0.036,0.031 0.057,0.075 0.065,0.13 z m -0.359,0.309 c 0,0.03 0.006,0.059 0.019,0.087 0.013,0.028 0.031,0.049 0.054,0.063 0.023,0.015 0.047,0.022 0.073,0.022 0.037,0 0.069,-0.015 0.095,-0.045 0.027,-0.03 0.04,-0.071 0.04,-0.122 0,-0.05 -0.013,-0.089 -0.039,-0.117 -0.027,-0.028 -0.06,-0.043 -0.1,-0.043 -0.039,0 -0.073,0.015 -0.101,0.043 -0.027,0.028 -0.041,0.066 -0.041,0.112 z"
   style="fill:#000344;fill-rule:nonzero;font-variation-settings:normal;opacity:1;vector-effect:none;fill-opacity:1;stroke-width:0.0085702;stroke-linecap:butt;stroke-linejoin:miter;stroke-miterlimit:2;stroke-dasharray:none;stroke-dashoffset:0;stroke-opacity:1;-inkscape-stroke:none;stop-color:#000000;stop-opacity:1"
   id="path2" />
            </g>
        </g>
        <g
   transform="matrix(2.667,0,0,2.667,-3088.7,125.223)"
   id="g12">
            <g
   transform="matrix(43.7508,0,0,43.7508,1529.81,802.55)"
   id="g10">
                <path
   d="m 0.047,-0.622 v -0.085 h 0.464 v 0.069 C 0.465,-0.59 0.42,-0.525 0.375,-0.445 0.33,-0.364 0.296,-0.282 0.271,-0.197 0.254,-0.137 0.243,-0.071 0.238,0 H 0.147 c 0.001,-0.056 0.013,-0.124 0.034,-0.204 0.021,-0.08 0.051,-0.157 0.091,-0.231 0.039,-0.074 0.081,-0.136 0.126,-0.187 z"
   style="fill:#000344;fill-rule:nonzero;font-variation-settings:normal;opacity:1;vector-effect:none;fill-opacity:1;stroke-width:0.0085702;stroke-linecap:butt;stroke-linejoin:miter;stroke-miterlimit:2;stroke-dasharray:none;stroke-dashoffset:0;stroke-opacity:1;-inkscape-stroke:none;stop-color:#000000;stop-opacity:1"
   id="path8" />
            </g>
        </g>
        <g
   transform="matrix(2.667,0,0,2.667,-2876.48,118.256)"
   id="g18">
            <g
   transform="matrix(43.7508,0,0,43.7508,1529.81,802.55)"
   id="g16">
                <path
   d="M 0.177,-0.388 C 0.14,-0.402 0.113,-0.421 0.096,-0.445 0.078,-0.47 0.069,-0.5 0.069,-0.534 c 0,-0.052 0.019,-0.096 0.056,-0.132 0.038,-0.035 0.088,-0.053 0.15,-0.053 0.062,0 0.113,0.018 0.151,0.055 0.038,0.036 0.057,0.08 0.057,0.132 0,0.033 -0.009,0.062 -0.026,0.087 -0.018,0.025 -0.044,0.043 -0.08,0.057 0.044,0.014 0.078,0.037 0.101,0.069 0.023,0.032 0.034,0.07 0.034,0.114 0,0.062 -0.021,0.113 -0.065,0.155 -0.043,0.041 -0.1,0.062 -0.171,0.062 -0.07,0 -0.127,-0.021 -0.171,-0.063 -0.043,-0.041 -0.064,-0.094 -0.064,-0.156 0,-0.047 0.011,-0.086 0.035,-0.117 C 0.1,-0.355 0.133,-0.377 0.177,-0.388 Z M 0.159,-0.537 c 0,0.034 0.011,0.061 0.033,0.083 0.022,0.021 0.05,0.032 0.085,0.032 0.034,0 0.061,-0.011 0.083,-0.032 0.022,-0.021 0.033,-0.047 0.033,-0.078 0,-0.032 -0.012,-0.06 -0.034,-0.082 -0.022,-0.021 -0.05,-0.032 -0.083,-0.032 -0.034,0 -0.061,0.01 -0.084,0.032 -0.022,0.021 -0.033,0.047 -0.033,0.077 z m -0.028,0.33 c 0,0.026 0.006,0.05 0.018,0.073 0.012,0.024 0.029,0.042 0.053,0.055 0.023,0.013 0.048,0.019 0.075,0.019 0.042,0 0.077,-0.014 0.104,-0.041 0.028,-0.027 0.041,-0.061 0.041,-0.103 0,-0.042 -0.014,-0.077 -0.042,-0.105 C 0.352,-0.336 0.317,-0.35 0.274,-0.35 c -0.041,0 -0.075,0.014 -0.102,0.041 -0.028,0.027 -0.041,0.061 -0.041,0.102 z"
   style="fill:#000344;fill-rule:nonzero;font-variation-settings:normal;opacity:1;vector-effect:none;fill-opacity:1;stroke-width:0.0085702;stroke-linecap:butt;stroke-linejoin:miter;stroke-miterlimit:2;stroke-dasharray:none;stroke-dashoffset:0;stroke-opacity:1;-inkscape-stroke:none;stop-color:#000000;stop-opacity:1"
   id="path14" />
            </g>
        </g>
        <g
   transform="matrix(2.667,0,0,2.667,-2756.92,117.765)"
   id="g24">
            <g
   transform="matrix(43.7508,0,0,43.7508,1529.81,802.55)"
   id="g22">
                <path
   d="m 0.055,-0.166 0.084,-0.007 c 0.007,0.039 0.021,0.068 0.041,0.086 0.02,0.018 0.046,0.027 0.078,0.027 0.027,0 0.051,-0.006 0.071,-0.019 0.02,-0.012 0.037,-0.029 0.05,-0.049 0.013,-0.021 0.024,-0.049 0.033,-0.084 0.008,-0.035 0.013,-0.071 0.013,-0.107 0,-0.004 0,-0.01 -0.001,-0.018 -0.017,0.028 -0.041,0.051 -0.072,0.068 -0.03,0.018 -0.063,0.026 -0.099,0.026 -0.059,0 -0.109,-0.021 -0.15,-0.064 -0.041,-0.043 -0.061,-0.1 -0.061,-0.17 0,-0.073 0.021,-0.131 0.064,-0.175 0.043,-0.045 0.096,-0.067 0.161,-0.067 0.046,0 0.089,0.013 0.127,0.038 0.039,0.025 0.068,0.061 0.088,0.107 0.02,0.046 0.03,0.114 0.03,0.201 0,0.092 -0.01,0.165 -0.03,0.219 C 0.463,-0.1 0.433,-0.059 0.394,-0.03 0.355,-0.002 0.309,0.012 0.256,0.012 0.2,0.012 0.154,-0.003 0.119,-0.034 0.083,-0.066 0.062,-0.109 0.055,-0.166 Z m 0.36,-0.315 c 0,-0.051 -0.014,-0.091 -0.041,-0.121 -0.027,-0.029 -0.059,-0.044 -0.097,-0.044 -0.039,0 -0.073,0.016 -0.102,0.048 -0.029,0.032 -0.043,0.073 -0.043,0.124 0,0.045 0.014,0.082 0.041,0.111 0.028,0.028 0.062,0.043 0.102,0.043 0.041,0 0.074,-0.015 0.1,-0.043 0.026,-0.029 0.04,-0.068 0.04,-0.118 z"
   style="fill:#e30011;fill-rule:nonzero"
   id="path20" />
            </g>
        </g>
        <g
   transform="translate(788.426,625.324)"
   id="g38">
            <g
   transform="matrix(2.61041,0,0,2.61041,-3312.02,-480.105)"
   id="g30">
                <g
   transform="matrix(43.7508,0,0,43.7508,1529.81,802.55)"
   id="g28">
                    <path
   d="m 0.042,-0.353 c 0,-0.085 0.008,-0.153 0.026,-0.204 0.017,-0.052 0.043,-0.092 0.077,-0.12 0.035,-0.028 0.078,-0.042 0.13,-0.042 0.038,0 0.072,0.008 0.101,0.023 0.029,0.016 0.053,0.038 0.072,0.067 0.019,0.029 0.033,0.065 0.044,0.107 0.011,0.042 0.016,0.098 0.016,0.169 0,0.084 -0.008,0.152 -0.026,0.203 -0.017,0.052 -0.043,0.092 -0.077,0.12 -0.034,0.028 -0.078,0.042 -0.13,0.042 -0.069,0 -0.123,-0.025 -0.163,-0.074 -0.047,-0.06 -0.07,-0.157 -0.07,-0.291 z m 0.09,0 c 0,0.117 0.014,0.196 0.041,0.235 0.028,0.038 0.062,0.058 0.102,0.058 0.04,0 0.074,-0.02 0.102,-0.059 0.027,-0.039 0.041,-0.117 0.041,-0.234 0,-0.118 -0.014,-0.196 -0.041,-0.235 -0.028,-0.039 -0.062,-0.058 -0.103,-0.058 -0.04,0 -0.073,0.017 -0.097,0.051 -0.03,0.044 -0.045,0.124 -0.045,0.242 z"
   style="fill:#e30011;fill-rule:nonzero"
   id="path26" />
                </g>
            </g>
            <g
   transform="matrix(2.61041,0,0,2.61041,-3357.57,-479.34)"
   id="g36">
                <g
   transform="matrix(43.7508,0,0,43.7508,1529.81,802.55)"
   id="g34">
                    <path
   d="M 0.373,0 H 0.285 V -0.56 C 0.264,-0.54 0.236,-0.52 0.201,-0.5 0.167,-0.479 0.136,-0.464 0.109,-0.454 V -0.539 C 0.158,-0.562 0.201,-0.59 0.238,-0.623 0.275,-0.656 0.301,-0.688 0.316,-0.719 h 0.057 z"
   style="fill:#e30011;fill-rule:nonzero"
   id="path32" />
                </g>
            </g>
        </g>
        <g
   transform="translate(-540.011,1749.1)"
   id="g254">
            <g
   id="g96">
                <g
   transform="translate(40.9277,-237.354)"
   id="g42">
                    <path
   d="m 1672.92,629.543 c -2.89,-4.965 -0.93,21.872 -0.33,26.089 1.91,13.339 1.82,114.392 4.04,127.672 0.73,4.375 2.06,14.333 -0.43,18.487 -17.21,28.674 -19.1,-7.404 -22.79,-18.487 -1.32,-3.955 -12.75,2.123 -13.33,3.869 -9.67,29.003 3.26,40.096 30.96,44.713 12.99,2.165 20.57,-20.43 23.26,-29.862 6.05,-21.165 4.84,-134.677 2.42,-156.477 -0.59,-5.279 2.05,-15.148 -2.15,-19.347 -5.72,-5.722 -14.48,1.917 -20.69,1.917"
   style="fill:#959799"
   id="path40" />
                </g>
                <g
   transform="translate(40.9277,-237.354)"
   id="g46">
                    <path
   d="m 1667.73,337.467 c -0.23,0.012 -0.61,-8.146 -0.73,-9.012 -0.59,-4.132 -1.33,-25.601 7.74,-21.067 4.95,2.476 8.55,25.174 4.73,27.086 -1.66,0.829 -6.77,0 -8.6,0 -0.9,0 -3.44,0.9 -3.44,0.43"
   style="fill:#959799"
   id="path44" />
                </g>
                <g
   transform="translate(40.9277,-237.354)"
   id="g50">
                    <path
   d="m 1355.55,636.055 c 0,0 11.95,-66.93 19.97,-86.981 2.88,-7.216 7.83,-14.229 10.7,-21.399 20.5,-51.26 68.28,-107.395 114.43,-138.163 29.56,-19.703 61.03,-31.352 93.97,-42.333 11.32,-3.771 23.78,-7.634 35.82,-8.839 15.25,-1.525 61.29,-4.279 73.5,-3.721 86.2,3.932 189.85,59.45 247.72,129.896 60.12,73.19 72.81,161.317 72.81,161.317 -7.94,-8.37 -11.97,-17.623 -19.48,-21.947 -28.11,-16.175 -56.62,-2.446 -75.41,24.631 -5.05,7.29 -5.13,15.773 -9.78,25.227 -60.06,-46.587 -113.37,-22.989 -135.1,21.859 -64.82,-68.824 -152.37,-57.573 -193.95,-3.918 -30.74,-56.799 -96.16,-49.937 -132.91,-5.133 -25.1,-50.18 -57.34,-65.299 -99.07,-33.741"
   style="fill:#cefffe;font-variation-settings:normal;opacity:1;vector-effect:none;fill-opacity:1;stroke-width:1;stroke-linecap:butt;stroke-linejoin:miter;stroke-miterlimit:2;stroke-dasharray:none;stroke-dashoffset:0;stroke-opacity:1;-inkscape-stroke:none;stop-color:#000000;stop-opacity:1"
   id="path48" />
                </g>
                <g
   transform="translate(40.9277,-237.354)"
   id="g54">
                    <path
   d="m 1672.63,332.539 c 92.11,-6.159 223.44,50.173 279.03,131.976 53.23,78.343 72.81,161.317 72.81,161.317 -7.94,-8.37 -11.97,-17.623 -19.48,-21.947 -28.11,-16.175 -56.62,-2.446 -75.41,24.631 -5.05,7.29 -5.13,15.773 -9.78,25.227 -60.06,-46.587 -113.37,-22.989 -135.1,21.859 -1.02,-8.277 -4.62,1.321 -5.25,-6.987 -3.7916,-115.63339 -29.7904,-267.81074 -106.82,-336.076 z"
   style="fill:#e7410b"
   id="path52"
   sodipodi:nodetypes="ccccccccc" />
                </g>
                <g
   transform="translate(1.1226,-0.485059)"
   id="g58">
                    <path
   d="m 1725.51,96.009 c 0.22,0.766 99.71,41.992 158.67,120.099 57.69,76.407 65.36,144.531 73.96,201.067 25.53,-59.597 70.26,-67.585 106.9,-34.081 0.6,-15.403 -35.75,-140.552 -118.52,-204.993 -83.07,-64.675 -141.28,-80.008 -221.01,-82.092 z"
   style="fill:#000300"
   id="path56" />
                </g>
                <g
   transform="translate(40.9277,-237.354)"
   id="g94">
                    <g
   id="g74">
                        <path
   d="m 1354.45,643.366 c 24.88,-166.751 124.31,-263.542 239.68,-295.387 173.05,-47.766 381.68,50.484 427.47,277.077 0.32,1.578 1.86,2.6 3.44,2.281 1.58,-0.319 2.6,-1.858 2.28,-3.436 -46.56,-230.388 -258.79,-330.111 -434.74,-281.545 -117.3,32.377 -218.6,130.612 -243.9,300.149 -0.24,1.592 0.86,3.077 2.46,3.315 1.59,0.237 3.07,-0.862 3.31,-2.454 z"
   style="fill:#000344;font-variation-settings:normal;opacity:1;vector-effect:none;fill-opacity:1;stroke-width:1;stroke-linecap:butt;stroke-linejoin:miter;stroke-miterlimit:2;stroke-dasharray:none;stroke-dashoffset:0;stroke-opacity:1;-inkscape-stroke:none;stop-color:#000000;stop-opacity:1"
   id="path60" />
                        <path
   d="m 1592.37,675.605 c 10.18,-22.291 33.93,-37.816 61.99,-44.055 42.54,-9.456 95.12,2.443 126.83,45.239 0.96,1.293 2.79,1.565 4.08,0.607 1.29,-0.959 1.56,-2.787 0.61,-4.08 -33.21,-44.815 -88.24,-57.362 -132.78,-47.46 -29.98,6.665 -55.16,23.513 -66.04,47.326 -0.67,1.464 -0.02,3.196 1.44,3.864 1.47,0.669 3.2,0.024 3.87,-1.441 z"
   style="fill:#000344;font-variation-settings:normal;opacity:1;vector-effect:none;fill-opacity:1;stroke-width:1;stroke-linecap:butt;stroke-linejoin:miter;stroke-miterlimit:2;stroke-dasharray:none;stroke-dashoffset:0;stroke-opacity:1;-inkscape-stroke:none;stop-color:#000000;stop-opacity:1"
   id="path62" />
                        <path
   d="m 1788.38,672.128 c 13.89,-35.625 55.49,-46.424 87.27,-40.714 20.54,3.69 37.23,14.16 38.68,30.029 0.15,1.603 1.57,2.786 3.17,2.639 1.61,-0.146 2.79,-1.567 2.64,-3.17 -1.66,-18.131 -19.99,-31.023 -43.46,-35.239 -34.21,-6.148 -78.78,5.976 -93.74,44.335 -0.58,1.5 0.16,3.192 1.66,3.777 1.5,0.585 3.19,-0.157 3.78,-1.657 z"
   style="fill:#000344;font-variation-settings:normal;opacity:1;vector-effect:none;fill-opacity:1;stroke-width:1;stroke-linecap:butt;stroke-linejoin:miter;stroke-miterlimit:2;stroke-dasharray:none;stroke-dashoffset:0;stroke-opacity:1;-inkscape-stroke:none;stop-color:#000000;stop-opacity:1"
   id="path64" />
                        <g
   transform="translate(-326.847,13.8418)"
   id="g68">
                            <path
   d="m 1786.01,654.525 c 17.82,-34.806 57.15,-41.222 87.92,-31.281 20.3,6.558 37,20.216 41.02,37.888 0.36,1.569 1.92,2.554 3.49,2.197 1.57,-0.357 2.56,-1.921 2.2,-3.491 -4.43,-19.492 -22.53,-34.912 -44.92,-42.145 -33.25,-10.745 -75.64,-3.449 -94.91,34.173 -0.73,1.433 -0.16,3.192 1.27,3.926 1.43,0.733 3.19,0.166 3.93,-1.267 z"
   style="fill:#000344;font-variation-settings:normal;opacity:1;vector-effect:none;fill-opacity:1;stroke-width:1;stroke-linecap:butt;stroke-linejoin:miter;stroke-miterlimit:2;stroke-dasharray:none;stroke-dashoffset:0;stroke-opacity:1;-inkscape-stroke:none;stop-color:#000000;stop-opacity:1"
   id="path66" />
                        </g>
                        <path
   d="m 1354.13,644.703 c 10.41,-28.373 48.73,-37.481 74.87,-17.538 11.4,8.698 20.46,22.909 24.12,43.374 0.29,1.585 1.8,2.641 3.39,2.357 1.58,-0.283 2.64,-1.8 2.36,-3.384 -3.98,-22.208 -13.96,-37.546 -26.33,-46.984 -29.33,-22.376 -72.21,-11.667 -83.89,20.166 -0.55,1.511 0.23,3.188 1.74,3.743 1.51,0.554 3.19,-0.222 3.74,-1.734 z"
   style="fill:#000344;font-variation-settings:normal;opacity:1;vector-effect:none;fill-opacity:1;stroke-width:1;stroke-linecap:butt;stroke-linejoin:miter;stroke-miterlimit:2;stroke-dasharray:none;stroke-dashoffset:0;stroke-opacity:1;-inkscape-stroke:none;stop-color:#000000;stop-opacity:1"
   id="path70" />
                        <path
   d="m 1920.86,658.898 c 2.6,-34.386 33.08,-56.513 60.62,-57.919 17.9,-0.914 34.59,7.102 41.07,26.644 0.51,1.528 2.16,2.357 3.69,1.85 1.53,-0.507 2.36,-2.159 1.85,-3.687 -7.42,-22.362 -26.42,-31.679 -46.91,-30.633 -30.07,1.535 -63.3,25.756 -66.14,63.305 -0.12,1.605 1.09,3.007 2.69,3.128 1.61,0.122 3.01,-1.083 3.13,-2.688 z"
   style="fill:#000344;font-variation-settings:normal;opacity:1;vector-effect:none;fill-opacity:1;stroke-width:1;stroke-linecap:butt;stroke-linejoin:miter;stroke-miterlimit:2;stroke-dasharray:none;stroke-dashoffset:0;stroke-opacity:1;-inkscape-stroke:none;stop-color:#000000;stop-opacity:1"
   id="path72" />
                    </g>
                    <path
   d="m 1669.96,332.927 c -0.05,-1.142 -0.31,-7.809 -0.31,-9.008 0,-3.101 -0.49,-6.783 -0.21,-10.063 0.19,-2.297 0.69,-4.427 2.78,-5.471 0.38,-0.19 0.69,-0.33 0.99,-0.273 0.48,0.094 0.72,0.609 1.03,1.156 0.45,0.822 0.81,1.841 1.11,2.975 1.79,6.698 1.49,16.943 1.49,20.05 0,1.609 1.3,2.916 2.92,2.916 1.61,0 2.91,-1.307 2.91,-2.916 0,-3.965 0.24,-18.533 -2.99,-25.194 -1.23,-2.534 -2.98,-4.121 -5.02,-4.638 -1.45,-0.367 -3.13,-0.25 -5.05,0.707 -3.31,1.656 -4.97,4.483 -5.66,7.906 -0.81,3.964 -0.14,8.854 -0.14,12.845 0,1.469 0.17,8.951 0.42,10.271 0.31,1.594 1.37,2.128 1.7,2.282 0.97,0.454 1.97,0.435 2.96,-0.283 1.05,-0.76 1.45,-2.091 1.07,-3.262 z m -1.98,-1.904 c -0.78,-0.253 -1.58,-0.177 -2.37,0.349 0.72,-0.468 1.59,-0.573 2.37,-0.349 z"
   style="fill:#000344;font-variation-settings:normal;opacity:1;vector-effect:none;fill-opacity:1;stroke-width:1;stroke-linecap:butt;stroke-linejoin:miter;stroke-miterlimit:2;stroke-dasharray:none;stroke-dashoffset:0;stroke-opacity:1;-inkscape-stroke:none;stop-color:#000000;stop-opacity:1"
   id="path76" />
                    <path
   d="m 1593.53,669.419 c 2.34,-150.967 32.95,-280.919 79.88,-333.247 0.54,-0.599 0.49,-1.522 -0.11,-2.059 -0.6,-0.537 -1.52,-0.487 -2.06,0.112 -47.21,52.636 -78.27,183.29 -80.63,335.148 -0.01,0.805 0.64,1.469 1.44,1.481 0.8,0.013 1.47,-0.631 1.48,-1.435 z"
   style="fill:#000344;font-variation-settings:normal;opacity:1;vector-effect:none;fill-opacity:1;stroke-width:1;stroke-linecap:butt;stroke-linejoin:miter;stroke-miterlimit:2;stroke-dasharray:none;stroke-dashoffset:0;stroke-opacity:1;-inkscape-stroke:none;stop-color:#000000;stop-opacity:1"
   id="path78" />
                    <path
   d="m 1457.18,666.336 c 3.59,-126.479 61.61,-285.093 214.58,-331.754 0.77,-0.235 1.21,-1.051 0.97,-1.82 -0.23,-0.77 -1.05,-1.205 -1.82,-0.97 -154.29,47.062 -213.02,206.896 -216.65,334.461 -0.02,0.804 0.61,1.476 1.42,1.499 0.8,0.023 1.47,-0.612 1.5,-1.416 z"
   style="fill:#000344;font-variation-settings:normal;opacity:1;vector-effect:none;fill-opacity:1;stroke-width:1;stroke-linecap:butt;stroke-linejoin:miter;stroke-miterlimit:2;stroke-dasharray:none;stroke-dashoffset:0;stroke-opacity:1;-inkscape-stroke:none;stop-color:#000000;stop-opacity:1"
   id="path80" />
                    <path
   d="m 1785.94,672.008 c -0.83,-56.719 -16.85,-150.924 -43.62,-227.119 -17.92,-51.039 -40.73,-93.985 -66.92,-112.419 -0.65,-0.463 -1.56,-0.305 -2.03,0.353 -0.46,0.658 -0.3,1.568 0.36,2.032 25.83,18.185 48.16,60.651 65.84,111 26.66,75.887 42.63,169.707 43.46,226.196 0.01,0.805 0.67,1.449 1.48,1.437 0.8,-0.012 1.44,-0.675 1.43,-1.48 z"
   style="fill:#000344;font-variation-settings:normal;opacity:1;vector-effect:none;fill-opacity:1;stroke-width:1;stroke-linecap:butt;stroke-linejoin:miter;stroke-miterlimit:2;stroke-dasharray:none;stroke-dashoffset:0;stroke-opacity:1;-inkscape-stroke:none;stop-color:#000000;stop-opacity:1"
   id="path82" />
                    <path
   d="m 1920.23,660.817 c -8.69,-131.698 -97.09,-289.651 -238.96,-327.097 -0.78,-0.206 -1.58,0.259 -1.78,1.038 -0.21,0.778 0.26,1.576 1.03,1.782 140.68,37.132 228.18,193.877 236.8,324.469 0.06,0.803 0.75,1.412 1.56,1.359 0.8,-0.053 1.41,-0.748 1.35,-1.551 z"
   style="fill:#000344;font-variation-settings:normal;opacity:1;vector-effect:none;fill-opacity:1;stroke-width:1;stroke-linecap:butt;stroke-linejoin:miter;stroke-miterlimit:2;stroke-dasharray:none;stroke-dashoffset:0;stroke-opacity:1;-inkscape-stroke:none;stop-color:#000000;stop-opacity:1"
   id="path84" />
                    <path
   d="m 1647.79,779.874 c -5.13,-2.334 -9.33,0.135 -11.8,2.601 -0.63,0.633 -1.35,2.046 -1.81,3.904 -0.71,2.868 -1.14,7.057 -1.34,8.446 -1.62,11.339 -0.97,18.753 1.61,24.048 2.06,4.234 5.32,7.236 9.87,9.719 4.09,2.234 9.29,4.059 15.61,6.163 1.26,0.421 5.31,1.444 8.26,1.706 1.85,0.166 3.39,-0.067 4.2,-0.469 19.36,-9.68 26.22,-28.649 27.78,-50.272 1.71,-23.586 -2.61,-137.985 -2.61,-158.028 0,-1.609 -1.31,-2.916 -2.92,-2.916 -1.61,0 -2.91,1.307 -2.91,2.916 0,19.989 4.33,134.083 2.63,157.607 -1.41,19.381 -7.11,36.626 -24.37,45.371 -0.3,-0.003 -1.5,-0.025 -2.35,-0.144 -2.3,-0.328 -4.95,-1 -5.87,-1.305 -5.92,-1.974 -10.81,-3.653 -14.65,-5.749 -3.39,-1.847 -5.89,-4.001 -7.43,-7.15 -2.21,-4.548 -2.47,-10.933 -1.07,-20.672 0.16,-1.123 0.47,-4.19 0.97,-6.747 0.19,-0.913 0.59,-2.166 0.68,-2.455 1.16,-1.11 3.02,-2.312 5.32,-1.162 0.59,0.296 1.58,0.5 2.8,0.413 0.59,-0.042 1.55,-0.144 2.37,-0.237 0.03,3.91 0.3,13.858 2.05,19.769 1.28,4.328 3.58,7.516 6.85,8.615 2.23,0.749 5.04,0.634 8.54,-1.114 5.87,-2.934 8.55,-7.83 9.7,-13.488 1,-4.972 0.75,-10.565 0.75,-15.637 0,-22.97 -2.05,-133.847 -1.09,-156.974 0.07,-1.608 -1.18,-2.968 -2.79,-3.035 -1.61,-0.068 -2.97,1.184 -3.04,2.792 -0.96,23.163 1.09,134.211 1.09,157.217 0,4.696 0.29,9.877 -0.64,14.481 -0.79,3.917 -2.53,7.396 -6.59,9.427 -1.68,0.843 -3,1.162 -4.07,0.801 -1.69,-0.566 -2.46,-2.509 -3.12,-4.739 -1.88,-6.341 -1.48,-15.422 -1.73,-19.259 -0.08,-1.247 -0.28,-2.141 -0.47,-2.603 -0.21,-0.497 -0.48,-0.849 -0.73,-1.1 -0.68,-0.682 -2.04,-1.243 -3.81,-1.155 -1.11,0.056 -3.31,0.34 -3.87,0.414 z"
   style="fill:#000344;font-variation-settings:normal;opacity:1;vector-effect:none;fill-opacity:1;stroke-width:1;stroke-linecap:butt;stroke-linejoin:miter;stroke-miterlimit:2;stroke-dasharray:none;stroke-dashoffset:0;stroke-opacity:1;-inkscape-stroke:none;stop-color:#000000;stop-opacity:1"
   id="path86" />
                    <path
   d="m 1640.28,790.249 c 1.13,-1.429 2.76,-1.449 4.48,-1.345 2.36,0.144 4.9,0.591 7.17,0.024 0.78,-0.195 1.26,-0.987 1.06,-1.768 -0.19,-0.781 -0.99,-1.256 -1.77,-1.061 -1.98,0.497 -4.21,0.02 -6.28,-0.106 -2.71,-0.165 -5.17,0.197 -6.95,2.446 -0.5,0.631 -0.39,1.549 0.24,2.048 0.63,0.5 1.55,0.393 2.05,-0.238 z"
   style="fill:#000344;font-variation-settings:normal;opacity:1;vector-effect:none;fill-opacity:1;stroke-width:1;stroke-linecap:butt;stroke-linejoin:miter;stroke-miterlimit:2;stroke-dasharray:none;stroke-dashoffset:0;stroke-opacity:1;-inkscape-stroke:none;stop-color:#000000;stop-opacity:1"
   id="path88" />
                    <path
   d="m 1680.54,761.683 c 5.65,0.003 11.04,1.396 16.88,1.396 0.8,0 1.46,-0.654 1.46,-1.458 0,-0.805 -0.66,-1.459 -1.46,-1.459 -5.84,0 -11.23,-1.392 -16.88,-1.396 -0.8,0 -1.45,0.653 -1.45,1.458 0,0.805 0.65,1.459 1.45,1.459 z"
   style="fill:#000344;font-variation-settings:normal;opacity:1;vector-effect:none;fill-opacity:1;stroke-width:1;stroke-linecap:butt;stroke-linejoin:miter;stroke-miterlimit:2;stroke-dasharray:none;stroke-dashoffset:0;stroke-opacity:1;-inkscape-stroke:none;stop-color:#000000;stop-opacity:1"
   id="path90" />
                    <path
   d="m 1679.52,770.483 c 0.12,-0.057 0.4,-0.185 0.63,-0.252 0.5,-0.147 1.12,-0.263 1.82,-0.36 4.45,-0.616 11.78,-0.362 13.57,-0.362 0.81,0 1.46,-0.654 1.46,-1.458 0,-0.805 -0.65,-1.459 -1.46,-1.459 -2.13,0 -11.76,-0.304 -15.87,0.747 -0.81,0.207 -1.45,0.478 -1.87,0.774 -0.54,0.373 -0.84,0.824 -0.97,1.281 -0.23,0.773 0.22,1.583 0.99,1.808 0.68,0.196 1.38,-0.119 1.7,-0.719 z"
   style="fill:#000344;font-variation-settings:normal;opacity:1;vector-effect:none;fill-opacity:1;stroke-width:1;stroke-linecap:butt;stroke-linejoin:miter;stroke-miterlimit:2;stroke-dasharray:none;stroke-dashoffset:0;stroke-opacity:1;-inkscape-stroke:none;stop-color:#000000;stop-opacity:1"
   id="path92" />
                </g>
            </g>
            <g
   transform="matrix(-0.436852,-0.204718,-0.360836,0.938126,2164.56,-87.9376)"
   id="g100">
                <path
   d="m 859.239,444.935 c 0.103,0.212 0.171,0.427 0.205,0.642 2.277,14.391 -2.132,25.144 -9.95,31.059 -5.071,3.836 -11.68,5.91 -18.894,6.366 -7.154,0.452 -15.321,-0.65 -23.852,-3.967 -5.431,-2.112 -10.029,-6.058 -12.915,-11.057 -5.687,-9.85 -5.593,-24.014 -0.688,-31.679 6.016,-9.402 16.721,-13.333 26.638,-13.656 6.879,-0.224 14.125,1.104 20.739,4.183 7.576,3.527 14.635,9.672 18.717,18.109 z m -17.013,1.006 c -2.594,-5.216 -6.388,-9.32 -10.907,-12.07 -2.826,-1.719 -5.659,-2.911 -8.745,-2.94 -1.98,-0.018 -3.756,0.537 -5.499,1.422 -2.906,1.477 -5.35,3.777 -7.343,6.892 -3.598,5.623 -3.979,15.342 -0.986,23.311 0.952,2.536 2.246,4.89 3.956,6.85 1.239,1.419 2.548,2.616 4.356,3.319 3.687,1.433 7.002,2.23 10.093,2.035 3.03,-0.192 5.4,-1.312 7.53,-2.923 6.518,-4.931 9.36,-13.946 7.547,-25.889 z"
   style="fill:#000344;font-variation-settings:normal;opacity:1;vector-effect:none;fill-opacity:1;stroke-width:1.43785674;stroke-linecap:butt;stroke-linejoin:miter;stroke-miterlimit:2;stroke-dasharray:none;stroke-dashoffset:0;stroke-opacity:1;-inkscape-stroke:none;stop-color:#000000;stop-opacity:1"
   id="path98" />
            </g>
            <g
   transform="matrix(-0.445352,-0.101345,-0.17011,0.898571,2093.39,-178.272)"
   id="g104">
                <path
   d="m 878.436,579.99 c -1.626,8.807 -7.8,15.978 -15.477,20.498 -6.194,3.646 -13.529,5.662 -20.597,6.021 -11.766,0.598 -25.047,-3.052 -32.189,-14.478 -8.475,-13.561 -3.478,-36.138 9.221,-46.208 7.934,-6.292 18.682,-8.418 30.229,-5.531 1.959,0.49 6.748,2.637 11.559,6.428 8.675,6.836 19.782,19.573 17.254,33.27 z m -37.132,-31.692 c -1.571,-0.203 -2.842,0.366 -4.097,1.061 -2.351,1.303 -4.327,3.182 -6.06,5.398 -7.492,9.577 -9.708,25.017 -3.563,34.85 2.676,4.281 5.715,6.921 9.999,7.695 2.933,0.531 5.849,-0.283 8.664,-1.521 7.124,-3.133 12.59,-9.275 14.008,-16.957 v 0 c 2.626,-14.229 -12.688,-27.209 -18.951,-30.526 z"
   style="fill:#000344;font-variation-settings:normal;opacity:1;vector-effect:none;fill-opacity:1;stroke-width:1.54779441;stroke-linecap:butt;stroke-linejoin:miter;stroke-miterlimit:2;stroke-dasharray:none;stroke-dashoffset:0;stroke-opacity:1;-inkscape-stroke:none;stop-color:#000000;stop-opacity:1"
   id="path102" />
            </g>
            <g
   transform="matrix(0.279123,0.755114,-0.694994,0.232547,1739.31,-612.826)"
   id="g108">
                <path
   d="m 920.597,364.446 c -3.28,-0.929 -6.824,-0.994 -10.119,-1.818 -9.407,-2.352 -18.925,-6.787 -28.908,-6.787 -2.289,0 -4.186,1.635 -4.803,3.9 -0.386,0.213 -0.752,0.486 -1.087,0.818 -1.182,1.171 -1.731,2.83 -1.632,4.478 -0.512,1.332 -2.18,5.696 -2.394,6.552 -0.691,2.763 -1.907,7.257 -3.457,11.087 -0.784,1.938 -1.567,3.73 -2.523,4.686 -2.056,2.057 -4.075,7.692 -4.075,7.692 -0.534,1.666 -0.319,3.535 0.583,5.05 0.902,1.514 2.386,2.497 4.008,2.656 0,0 4.793,0.243 6.703,1.517 2.898,1.932 6.821,3.713 10.605,5.56 2.983,1.456 5.897,2.884 7.71,4.697 0.654,0.654 8.528,6.453 10.272,7.427 3.363,1.88 5.669,-0.266 6.079,-0.675 1.749,-1.749 3.847,-5.543 5.786,-10.391 3.731,-9.326 7.472,-22.899 9.211,-28.114 0.231,-0.694 0.808,-1.388 1.362,-2.153 1.023,-1.413 2.131,-2.863 2.947,-4.25 1.233,-2.094 1.862,-4.207 1.862,-6.074 0,-0.171 -0.574,-5.809 -5.376,-5.869 -0.358,-0.005 -1.947,0.005 -2.754,0.011 z m -45.783,28.709 c 1.255,0.406 2.411,0.888 3.248,1.446 3.135,2.09 7.627,3.92 11.604,5.969 3.313,1.707 6.31,3.588 8.382,5.66 -0.018,-0.018 -0.101,-0.107 -0.101,-0.107 l 4.517,3.237 c 0.444,-0.988 0.899,-2.112 1.379,-3.311 3.644,-9.11 7.276,-22.376 8.975,-27.471 0.401,-1.203 1.147,-2.52 2.033,-3.861 -2.132,-0.315 -4.306,-0.484 -6.37,-1 -7.896,-1.974 -15.843,-5.747 -24.148,-6.4 -0.437,2.221 -2.411,6.499 -2.686,7.601 -1.165,4.659 -3.784,13.189 -6.833,18.237 z"
   style="fill:#000344;font-variation-settings:normal;opacity:1;vector-effect:none;fill-opacity:1;stroke-width:1.30221038;stroke-linecap:butt;stroke-linejoin:miter;stroke-miterlimit:2;stroke-dasharray:none;stroke-dashoffset:0;stroke-opacity:1;-inkscape-stroke:none;stop-color:#000000;stop-opacity:1"
   id="path106" />
            </g>
            <g
   transform="matrix(0.279123,0.755114,-0.694994,0.232547,1738.17,-616.186)"
   id="g112">
                <path
   d="m 992.93,427.685 c 0.42,-0.796 2.736,-5.256 3.08,-7.115 0.551,-2.976 -0.457,-5.161 -1.819,-6.523 -1.096,-1.096 -3.172,-2.21 -5.838,-2.847 -3.508,-0.838 -8.499,-1.134 -10.653,-1.673 -4.809,-1.202 -19.423,-4.681 -24.243,-6.801 -1.173,-1.182 -3.349,-3.113 -5.056,-3.113 -1.004,0 -2.933,0.476 -4.689,2.51 -1.658,1.921 -4.113,6.192 -5.021,8.305 -0.656,1.528 -0.779,2.758 -0.779,3.294 0,0.366 0.032,0.724 0.093,1.073 -1.109,2.207 -2.55,5.035 -3.121,5.948 -2.574,4.118 -5.171,10.447 -6.431,15.23 -0.487,0.876 -3.028,5.501 -3.58,7.373 -1.028,3.488 0.331,5.965 1.51,7.144 1.001,1.001 2.724,1.998 4.891,2.645 2.678,0.8 6.39,1.195 8.111,1.768 5.866,1.956 11.189,6.83 17.311,9.279 4.982,1.993 11.68,7.68 13.163,8.688 2.696,1.832 4.786,0.751 5.2,0.544 1.009,-0.504 2.681,-2.084 3.911,-5.039 2.118,-5.086 4.729,-16.63 5.61,-18.833 2.802,-7.006 6.477,-14.615 8.35,-21.857 z m -55.994,15.209 c 2.044,0.394 4.005,0.743 5.171,1.132 6.042,2.014 11.557,6.958 17.862,9.48 3.09,1.236 7.286,4 10.475,6.271 1.543,-5.245 3.999,-13.496 4.633,-15.08 2.663,-6.66 6.245,-13.868 7.962,-20.737 0.081,-0.324 0.445,-1.152 0.889,-2.096 -0.408,-0.079 -0.802,-0.146 -1.158,-0.195 -2.798,-0.385 -5.567,-0.678 -7.067,-1.053 -5.188,-1.297 -20.87,-5.191 -26.167,-7.505 l -0.467,0.787 c 0.275,1.537 -0.04,3.046 -0.779,4.233 l 0.132,-0.215 c 0,0 -3.967,7.903 -4.941,9.463 -2.103,3.363 -4.211,8.602 -5.165,12.416 -0.12,0.48 -0.551,1.575 -1.271,2.894 z m 11.308,-24.688 0.027,-0.044 -0.079,0.119 z m -3.271,2.23 0.238,-0.048 c 1.189,-0.277 2.182,-0.988 2.875,-1.953 -1.288,1.834 -2.767,1.939 -3.098,1.999 z m -4.152,-1.229 0.067,0.061 c 1.034,0.885 2.306,1.426 3.893,1.197 -1.445,0.199 -2.867,-0.292 -3.96,-1.258 z m -0.762,-0.805 c 0.192,0.249 0.395,0.468 0.604,0.661 -0.204,-0.194 -0.396,-0.406 -0.573,-0.635 z"
   style="fill:#000344;font-variation-settings:normal;opacity:1;vector-effect:none;fill-opacity:1;stroke-width:1.30221038;stroke-linecap:butt;stroke-linejoin:miter;stroke-miterlimit:2;stroke-dasharray:none;stroke-dashoffset:0;stroke-opacity:1;-inkscape-stroke:none;stop-color:#000000;stop-opacity:1"
   id="path110" />
            </g>
            <g
   transform="matrix(0.279123,0.755114,-0.694994,0.232547,1745.61,-624.242)"
   id="g116">
                <path
   d="m 995.783,410.389 c 0.791,0.708 4.377,3.865 6.067,4.551 2.72,1.104 4.82,0.248 6.15,-1.08 2.14,-2.139 3.59,-5.591 4.42,-9.544 0.84,-4.035 1.03,-8.654 1.72,-11.42 0.87,-3.479 2.74,-7.448 4.08,-11.316 1.17,-3.375 1.96,-6.707 1.96,-9.712 0,-0.273 -0.68,-5.916 -5.67,-5.878 -1.63,0.012 -9.99,0.442 -14.521,-0.314 -7.604,-1.267 -17.449,-4.755 -24.621,-4.755 -1.568,0 -2.953,0.768 -3.867,1.982 -0.566,0.244 -1.098,0.607 -1.566,1.089 -0.765,0.788 -2.187,3.223 -3.57,6.513 -2.375,5.652 -5.288,14.141 -5.927,16.473 -0.054,0.144 -2.391,6.4 -2.562,7.694 -0.39,2.961 0.993,4.668 1.727,5.401 0.733,0.733 2.372,1.746 4.836,2.127 2.437,0.378 6.485,0.464 10.015,0.752 1.641,0.134 3.134,0.228 4.015,0.605 5.111,2.191 13.002,4.069 17.314,6.832 z m -18.505,-38.031 c -0.295,0.588 -0.994,2.007 -1.485,3.177 -2.22,5.282 -5,13.301 -5.429,15.016 -0.023,0.092 -0.106,0.343 -0.23,0.695 1.322,0.105 2.698,0.21 3.854,0.292 3.257,0.231 6.269,0.704 7.981,1.438 5.714,2.448 14.521,4.757 19.201,7.878 0.12,0.077 0.57,0.452 1.13,0.931 0.13,-0.693 0.23,-1.421 0.34,-2.141 0.6,-3.735 0.88,-7.594 1.5,-10.077 0.81,-3.222 2.35,-6.844 3.71,-10.446 0.21,-0.557 0.41,-1.112 0.61,-1.663 -3.35,-0.01 -7.25,-0.125 -9.711,-0.535 -6.582,-1.097 -14.937,-4.112 -21.471,-4.565 z"
   style="fill:#000344;font-variation-settings:normal;opacity:1;vector-effect:none;fill-opacity:1;stroke-width:1.30221038;stroke-linecap:butt;stroke-linejoin:miter;stroke-miterlimit:2;stroke-dasharray:none;stroke-dashoffset:0;stroke-opacity:1;-inkscape-stroke:none;stop-color:#000000;stop-opacity:1"
   id="path114" />
            </g>
            <g
   transform="matrix(-0.530518,-0.674471,0.402123,-0.316297,2142.25,869.747)"
   id="g120">
                <path
   d="m 949.216,320.515 c -1.338,-4.638 -3.792,-9.506 -6.056,-14.365 -1.442,-3.096 -3.03,-5.96 -3.03,-9.107 0,-4.88 -1.728,-6.605 -2.534,-7.356 -1.315,-1.225 -3.171,-1.974 -5.249,0.528 -0.31,0.374 -0.781,1.04 -1.246,2.115 -0.159,0.366 -0.576,1.455 -0.759,1.935 -1.744,2.411 -3.096,4.914 -4.673,7.437 -4.509,7.215 -11.24,14.496 -14.975,21.651 -0.42,0.804 -0.729,1.708 -0.927,2.66 -0.768,1.44 -1.235,3.34 -1.235,5.422 0,4.495 2.176,8.145 4.856,8.145 h 13.679 c 2.036,0 17.625,0.609 20.989,0.465 1.813,-0.077 2.815,-1.046 2.993,-1.224 1.046,-1.046 1.759,-2.538 2.142,-4.465 0.268,-1.348 0.506,-3.496 -0.205,-6.14 -0.168,-0.624 -0.52,-1.648 -1.092,-2.803 -0.626,-1.262 -2.154,-3.975 -2.678,-4.898 z m -10.135,3.126 c -1.45,-3.44 -3.42,-6.944 -4.954,-10.548 -0.211,-0.497 -0.416,-0.996 -0.612,-1.499 -0.372,0.631 -0.748,1.263 -1.143,1.894 -2.047,3.276 -4.586,6.543 -7.07,9.803 h 1.765 c 1.164,0 6.816,0.206 12.014,0.35 z"
   style="fill:#000344;font-variation-settings:normal;opacity:1;vector-effect:none;fill-opacity:1;stroke-width:1.50923573;stroke-linecap:butt;stroke-linejoin:miter;stroke-miterlimit:2;stroke-dasharray:none;stroke-dashoffset:0;stroke-opacity:1;-inkscape-stroke:none;stop-color:#000000;stop-opacity:1"
   id="path118" />
            </g>
            <g
   transform="matrix(0.401887,0.758187,-0.511325,0.271035,1550.67,-652.989)"
   id="g124">
                <path
   d="m 966.413,309.827 c -0.026,0.293 -0.039,0.591 -0.039,0.895 0,2.503 0.653,5.122 2.877,6.699 0.513,0.364 1.412,0.794 2.6,0.861 1.296,0.073 3.716,-0.361 4.46,-0.361 2.981,0 5.615,0.782 8.598,0.782 3.613,0 12.112,1.792 16.001,1.875 2.44,0.053 4.07,-0.923 4.69,-1.542 1.97,-1.964 2.45,-4.553 2.08,-7.391 -0.13,-1.022 -0.44,-2.306 -1.19,-3.555 -0.36,-0.591 -2.32,-2.406 -2.32,-2.406 0,0 0.2,0.182 0.26,0.241 -1.22,-1.216 -2.45,-4.042 -2.9,-5.719 -0.65,-2.373 -3.008,-13.905 -4.884,-18.923 -1.261,-3.372 -2.906,-5.01 -3.932,-5.523 -1.56,-0.78 -3.815,-0.656 -6.254,1.489 -3.858,3.391 -9.765,13.861 -10.867,15.514 -1.244,1.866 -5.867,7.201 -7.563,10.385 -1.348,2.531 -1.669,5.001 -1.617,6.679 z m 15.256,-5.77 c 1.055,0.137 2.123,0.246 3.24,0.246 1.555,0 4.474,0.286 7.446,0.636 -0.516,-2.132 -1.559,-7.052 -2.685,-11.474 -0.107,-0.417 -0.227,-0.861 -0.355,-1.308 -0.289,0.362 -0.566,0.73 -0.806,1.075 -2.712,3.912 -5.333,8.64 -6.009,9.654 -0.176,0.263 -0.466,0.672 -0.831,1.171 z"
   style="fill:#000344;font-variation-settings:normal;opacity:1;vector-effect:none;fill-opacity:1;stroke-width:1.41903882;stroke-linecap:butt;stroke-linejoin:miter;stroke-miterlimit:2;stroke-dasharray:none;stroke-dashoffset:0;stroke-opacity:1;-inkscape-stroke:none;stop-color:#000000;stop-opacity:1"
   id="path122" />
            </g>
            <g
   transform="matrix(0.697463,0.499905,-0.337139,0.470373,1222.88,-482.464)"
   id="g128">
                <path
   d="m 1013.75,343.974 c -0.4,1.827 -0.24,3.795 0.7,5.903 0.11,0.232 0.87,2.392 3.17,3.115 1.05,0.331 8.13,2.007 10.99,2.415 4.68,0.669 10.58,1.051 15.79,2.506 2.85,0.795 5.48,1.84 7.36,3.723 2.76,2.755 4.75,0.948 5.2,0.596 1.04,-0.8 1.78,-1.998 2.24,-3.589 0.32,-1.137 0.67,-2.957 0.08,-5.338 -0.11,-0.433 -0.39,-1.394 -1,-2.511 -0.4,-0.747 -1.36,-2.188 -1.66,-2.897 -1.22,-2.843 -2.67,-5.748 -3.65,-8.709 -2.86,-8.573 -4.53,-15.761 -8.47,-23.755 -0.35,-1.077 -1.91,-5.718 -3.04,-7.329 -1.32,-1.887 -2.81,-2.628 -4.18,-2.628 -0.57,0 -1.95,0.164 -3.51,1.984 -2.35,2.736 -10.75,16.516 -12.35,19.398 -0.67,1.207 -5.73,9.088 -6.59,10.628 -1.34,2.417 -1.37,4.777 -1.08,6.488 z m 43.25,5.537 0.19,0.186 c -0.07,-0.065 -0.13,-0.127 -0.19,-0.186 z m -20.42,-25.748 c -2.88,4.509 -6.8,10.681 -7.67,12.25 -0.27,0.495 -1.43,2.374 -2.7,4.416 1.32,0.288 2.54,0.533 3.33,0.645 4.13,0.591 9.17,1 13.92,2.021 -2.14,-6.794 -3.63,-12.786 -6.88,-19.332 z m -14.41,26.881 c -0.89,1.503 -2.2,2.452 -3.65,2.452 2.17,0 3.22,-1.634 3.65,-2.452 z m 1.23,-5.718 c 0.19,1.596 -0.07,3.099 -0.65,4.511 0.4,-1.045 0.63,-2.254 0.63,-3.541 0,-0.295 -0.02,-0.587 -0.04,-0.872 z m -1.21,-7.216 0.05,0.097 -0.02,-0.041 z m -3.95,-2.575 c 1.55,-0.108 2.99,0.891 3.93,2.549 -0.82,-1.493 -2.03,-2.721 -3.93,-2.549 z"
   style="fill:#000344;font-variation-settings:normal;opacity:1;vector-effect:none;fill-opacity:1;stroke-width:1.41903907;stroke-linecap:butt;stroke-linejoin:miter;stroke-miterlimit:2;stroke-dasharray:none;stroke-dashoffset:0;stroke-opacity:1;-inkscape-stroke:none;stop-color:#000000;stop-opacity:1"
   id="path126" />
            </g>
            <g
   transform="matrix(0.697463,0.499905,-0.337139,0.470373,1168.09,-439.623)"
   id="g132">
                <path
   d="m 1053.26,285.712 c -0.59,0.603 -3.17,3.304 -4.18,4.737 -0.83,1.165 -1.33,2.314 -1.58,3.105 -0.21,0.67 -0.35,1.313 -0.44,1.929 -0.6,1.199 -0.96,2.686 -0.96,4.295 0,3.974 2.18,7.2 4.86,7.2 8.72,0 19.66,2.122 28.27,3.844 2.5,0.5 5.18,0.909 7.66,1.528 0.29,0.071 3.47,0.939 4.37,0.989 0.93,0.051 1.58,-0.22 1.92,-0.39 2.29,-1.149 2.99,-3.6 3.23,-5.508 0.2,-1.549 0.47,-4.817 -2.09,-7.379 -1.75,-1.747 -3.49,-5.107 -5.22,-8.777 -3.12,-6.653 -5.98,-14.428 -7.86,-18.818 -0.22,-0.527 -2.51,-6.597 -3.96,-9.024 -1.61,-2.701 -3.45,-3.303 -4.44,-3.303 -0.88,0 -3.07,0.911 -5.45,3.973 -4.17,5.369 -12.19,18.754 -14.13,21.599 z m 14.6,-1.451 c -1.68,2.542 -3.36,5.082 -5.04,7.619 l -0.98,1.468 c 6.15,0.762 12.51,1.972 18.02,3.071 -2.72,-6.071 -5.15,-12.335 -6.81,-16.228 l -0.98,-2.325 z m -12.01,8.501 v 0 l -0.13,-0.244 z"
   style="fill:#000344;font-variation-settings:normal;opacity:1;vector-effect:none;fill-opacity:1;stroke-width:1.41903907;stroke-linecap:butt;stroke-linejoin:miter;stroke-miterlimit:2;stroke-dasharray:none;stroke-dashoffset:0;stroke-opacity:1;-inkscape-stroke:none;stop-color:#000000;stop-opacity:1"
   id="path130" />
            </g>
            <g
   transform="matrix(0.697463,0.499905,-0.337139,0.470373,1217.61,-469.835)"
   id="g136">
                <path
   d="m 1093.23,327.45 c -1.84,3.808 -3.35,8.077 -5.2,11.936 -1.82,3.819 -9.51,13.965 -10.73,16.65 -1.03,2.271 -1.13,4.312 -0.92,5.883 -0.12,0.621 -0.18,1.277 -0.18,1.955 0,3.973 2.17,7.2 4.85,7.2 10.24,0 21.66,0.101 31.87,1.903 3.32,0.587 8.46,3.568 11.12,3.568 3.52,0 4.45,-3.456 4.74,-4.488 0.59,-2.057 0.82,-4.842 -0.87,-7.654 -0.24,-0.396 -0.6,-0.913 -1.13,-1.411 -0.34,-0.317 -1.86,-1.321 -2.45,-1.712 -0.24,-0.444 -0.36,-0.923 -0.57,-1.349 -0.6,-1.248 -1.34,-2.451 -2.47,-3.59 -3.13,-3.121 -5.58,-8.322 -6.96,-12.463 -0.71,-2.125 -6.17,-14.502 -9.14,-20.163 -1.16,-2.206 -2.17,-3.621 -2.66,-4.111 -2.14,-2.137 -4.37,-2.081 -6.5,0.678 -0.57,0.738 -1.22,1.939 -1.75,3.461 -0.38,1.095 -0.85,2.914 -1.05,3.707 z m 6.94,10.446 c -1.43,3.222 -2.71,6.663 -4.21,9.82 -0.86,1.784 -3.29,5.557 -5.61,9.03 6.13,0.113 12.41,0.407 18.44,1.153 -1.29,-2.587 -2.37,-5.227 -3.17,-7.64 -0.45,-1.334 -3.06,-7.303 -5.45,-12.363 z"
   style="fill:#000344;font-variation-settings:normal;opacity:1;vector-effect:none;fill-opacity:1;stroke-width:1.41903907;stroke-linecap:butt;stroke-linejoin:miter;stroke-miterlimit:2;stroke-dasharray:none;stroke-dashoffset:0;stroke-opacity:1;-inkscape-stroke:none;stop-color:#000000;stop-opacity:1"
   id="path134" />
            </g>
            <g
   transform="matrix(0.697463,0.499905,-0.337139,0.470373,1142.31,-406.814)"
   id="g140">
                <path
   d="m 1124.96,260.51 c -2.84,6.584 -6.47,12.87 -9.82,19.19 -1.78,3.366 -4.24,8.321 -4.56,8.968 -0.63,1.093 -1.04,2.476 -1.13,4.015 -0.07,1.085 0.01,2.002 0.18,2.778 -0.27,0.852 -0.36,1.541 -0.38,1.695 -0.04,0.237 -0.16,8.65 5.41,8.65 0.37,0 0.74,-0.062 1.08,-0.182 2.15,-0.152 6.78,-0.49 7.9,-0.622 8.05,-0.947 16.25,-1.779 24.33,-2.321 0.37,0.041 3.43,0.37 5.19,0.253 1.89,-0.126 3.43,-0.874 4.26,-1.648 1.57,-1.465 2.3,-3.5 2.49,-5.681 0.15,-1.636 0.04,-3.714 -1.09,-5.977 -4.48,-8.95 -11.61,-19.708 -17.85,-28.033 -1.09,-1.447 -3.13,-3.039 -4.22,-4.421 -0.87,-2.231 -2.72,-6.023 -5.28,-6.023 -0.94,0 -2.18,0.357 -3.39,1.916 -0.77,1.003 -2.73,6.353 -3.12,7.443 z m 7.41,9.489 c -2.87,6.342 -6.34,12.464 -9.59,18.592 -0.37,0.696 -0.75,1.429 -1.13,2.167 0.53,-0.041 0.96,-0.08 1.23,-0.111 7.48,-0.881 15.09,-1.663 22.63,-2.207 -3.46,-5.618 -7.42,-11.312 -11.03,-16.137 -0.56,-0.735 -1.33,-1.521 -2.11,-2.304 z m -14.2,19.007 c 0.3,0.592 0.53,1.252 0.7,1.96 l 0.02,-0.002 c -0.19,-0.803 -0.46,-1.446 -0.72,-1.958 z m -0.16,-0.294 0.05,0.093 -0.05,-0.089 -0.01,-0.022 z m -0.29,-0.474 0.09,0.144 -0.04,-0.074 z m -1.25,-1.342 c 0.42,0.317 0.81,0.723 1.15,1.201 -0.34,-0.489 -0.73,-0.891 -1.15,-1.201 z m -0.24,-0.164 0.11,0.069 -0.05,-0.033 z"
   style="fill:#000344;font-variation-settings:normal;opacity:1;vector-effect:none;fill-opacity:1;stroke-width:1.41903907;stroke-linecap:butt;stroke-linejoin:miter;stroke-miterlimit:2;stroke-dasharray:none;stroke-dashoffset:0;stroke-opacity:1;-inkscape-stroke:none;stop-color:#000000;stop-opacity:1"
   id="path138" />
            </g>
            <g
   transform="matrix(0.697463,0.499905,-0.337139,0.470373,1176.01,-370.694)"
   id="g144">
                <path
   d="m 1168.34,294.553 c -0.74,0.433 -1.19,0.936 -1.44,1.243 -2.19,2.666 -2.04,5.67 -1.56,7.86 0.24,1.054 1.11,4.511 4.34,5.027 2.96,0.474 32.05,-3.659 32.14,-3.659 1.06,0 7.38,1.206 10.22,1.322 2.28,0.093 3.77,-0.93 4.22,-1.38 1.54,-1.544 2.04,-3.445 2.22,-5.112 0.18,-1.772 -0.02,-3.675 -0.85,-5.485 -0.24,-0.499 -0.82,-1.281 -1.3,-1.87 -3.45,-6.637 -8.79,-12.912 -12.91,-19.501 -2.58,-4.134 -3.14,-8.846 -4.74,-13.327 -0.27,-0.771 -0.81,-2.177 -1,-2.675 v -0.99 c 0,-3.976 -2.17,-7.2 -4.85,-7.2 -0.64,0 -2.36,0.226 -4.05,2.837 -2.47,3.808 -11.18,23.007 -12.93,27.047 -1.83,4.213 -3.63,8.395 -5.68,12.501 -0.41,0.811 -1.22,2.171 -1.83,3.362 z m 23.13,-23.921 c -2.98,6.235 -6.56,13.772 -7.45,15.842 -0.97,2.225 -1.93,4.439 -2.91,6.64 l 5.13,-0.619 15.48,-1.859 c -1.87,-2.59 -3.75,-5.185 -5.42,-7.85 -2.41,-3.855 -3.57,-7.981 -4.83,-12.154 z m -19.14,22.272 h 0.01 v 0 z m -0.29,0.023 0.07,-0.007 -0.05,0.003 z"
   style="fill:#000344;font-variation-settings:normal;opacity:1;vector-effect:none;fill-opacity:1;stroke-width:1.41903907;stroke-linecap:butt;stroke-linejoin:miter;stroke-miterlimit:2;stroke-dasharray:none;stroke-dashoffset:0;stroke-opacity:1;-inkscape-stroke:none;stop-color:#000000;stop-opacity:1"
   id="path142" />
            </g>
            <g
   transform="matrix(0.697463,0.499905,-0.337139,0.470373,1187.51,-441.142)"
   id="g148">
                <path
   d="m 1145.17,357.67 c 0.66,1.787 1.95,3.354 4.28,3.868 4.42,0.971 26.08,-1.595 29.93,-1.411 0.81,0.038 14.7,1.127 17.06,0.547 2.15,-0.529 3.12,-2.332 3.49,-3.132 1.24,-2.625 1.44,-5.469 -0.07,-8.508 -4.01,-8.009 -10.01,-15.451 -15.47,-22.898 -3.69,-5.038 -6.51,-9.1 -9.08,-11.32 -2.7,-2.328 -5.3,-3.102 -8.08,-2.256 -2.42,0.734 -5.14,2.887 -8.3,7.494 -3.32,4.857 -2.84,4.681 -5.78,9.883 -1.57,2.78 -5.94,7.607 -8.26,11.809 -2.08,3.78 -2.79,7.66 -2.48,10.524 0.26,2.46 1.34,4.429 2.76,5.4 z m 39.54,-11.693 c -2.26,-3.104 -4.63,-6.162 -6.89,-9.242 -2.64,-3.589 -4.7,-6.675 -6.59,-8.694 -0.75,-0.792 -1.31,-1.6 -2.05,-1.375 -1.05,0.319 -2.06,1.644 -3.43,3.644 -2.97,4.349 -2.52,4.218 -5.16,8.877 -1.09,1.932 -3.43,4.825 -5.63,7.831 7.28,-0.482 21.97,-1.415 24.74,-1.283 z"
   style="fill:#000344;font-variation-settings:normal;opacity:1;vector-effect:none;fill-opacity:1;stroke-width:1.41903907;stroke-linecap:butt;stroke-linejoin:miter;stroke-miterlimit:2;stroke-dasharray:none;stroke-dashoffset:0;stroke-opacity:1;-inkscape-stroke:none;stop-color:#000000;stop-opacity:1"
   id="path146" />
            </g>
            <g
   transform="matrix(0.456964,0.726323,-0.489836,0.308179,1499.11,-627.566)"
   id="g152">
                <path
   d="m 1171.13,406.239 c 0.87,1.217 2.04,1.963 3.33,1.963 7.4,0 15.83,3.805 23.64,4.293 2.04,0.128 3.28,0.258 5.12,0.911 0.61,0.318 3.3,1.706 3.82,1.924 2.03,0.843 3.31,-0.259 3.53,-0.418 2.06,-1.474 2.75,-3.87 2.75,-6.484 0,-3.52 -1.17,-8.126 -3.02,-12.801 -1.9,-4.811 -4.53,-9.888 -5.6,-13.527 -0.74,-2.524 -0.97,-7.186 -1.76,-11.167 -0.92,-4.629 -2.49,-8.507 -4.66,-10.683 -0.6,-0.603 -2.79,-2.5 -5.56,0.008 -1.68,1.518 -8.63,10.584 -9.21,11.451 -1.39,2.085 -10.19,14.158 -13.49,20.082 -1.22,2.189 -1.88,4.073 -2.09,5.118 -0.32,1.564 -0.28,2.886 -0.14,3.911 0.38,2.663 1.7,4.675 3.34,5.419 z m 10.7,-11.525 c 5.5,1.159 11.23,3.054 16.67,3.394 0.52,0.032 1,0.066 1.45,0.108 -1.66,-3.807 -3.31,-7.496 -4.15,-10.36 -0.72,-2.464 -1.17,-6.563 -1.79,-10.597 l -2.24,2.828 c -0.46,0.577 -0.91,1.144 -1.35,1.746 z"
   style="fill:#000344;font-variation-settings:normal;opacity:1;vector-effect:none;fill-opacity:1;stroke-width:1.41903818;stroke-linecap:butt;stroke-linejoin:miter;stroke-miterlimit:2;stroke-dasharray:none;stroke-dashoffset:0;stroke-opacity:1;-inkscape-stroke:none;stop-color:#000000;stop-opacity:1"
   id="path150" />
            </g>
            <g
   transform="matrix(0.279123,0.755114,-0.694994,0.232547,1757.54,-614.817)"
   id="g156">
                <path
   d="m 1011.59,453.128 c 6.08,1.356 12.19,2.992 17.8,5.8 3.81,1.904 8.61,4.308 12.83,5.549 0.66,0.772 2.15,2.473 2.47,2.739 3.15,2.597 5.66,0.832 6.69,-0.203 0.6,-0.597 1.37,-1.73 1.89,-3.425 0.64,-2.118 1.09,-6.336 1.44,-7.503 2.71,-9.045 6.33,-19.904 10.58,-28.386 0.53,-1.065 3.17,-8.021 3.71,-11.258 0.59,-3.532 -0.87,-5.842 -1.72,-6.694 -1.36,-1.352 -4.73,-3.003 -9.16,-4.222 -7.5,-2.063 -18.65,-3.796 -22.64,-4.9 -0.22,-0.191 -1.27,-1.085 -1.77,-1.489 -1.08,-0.875 -2.18,-1.458 -3.25,-1.724 -0.34,-0.087 -1.76,-0.1 -2.67,-0.097 -0.58,-0.26 -1.2,-0.413 -1.85,-0.435 -0.8,-0.028 -1.57,0.15 -2.25,0.49 -1,-0.013 -2.17,0.314 -3.34,1.435 -0.51,0.487 -2.32,3.796 -2.7,4.501 -2.12,3.426 -3.46,7.114 -5.02,10.81 -1.62,3.848 -6.4,14.385 -9.13,22.107 -1.45,4.117 -2.27,7.645 -2.27,9.547 0,2.217 0.93,4.542 3.55,5.964 1.51,0.82 5.93,1.306 6.81,1.394 z m 1.14,-11.253 c 0.2,0.026 0.35,0.047 0.41,0.061 6.93,1.541 13.89,3.46 20.3,6.663 3.31,1.657 7.48,3.836 11.13,4.892 0.12,-0.574 0.22,-1.029 0.29,-1.268 2.9,-9.641 6.79,-21.196 11.31,-30.237 0.21,-0.414 0.99,-2.78 1.65,-4.822 -0.63,-0.221 -1.29,-0.437 -1.92,-0.608 -7.64,-2.102 -19.04,-3.868 -22.9,-4.971 -1.55,-0.443 -3.75,-2.126 -4.76,-2.949 l -0.54,0.005 c -0.21,-0.002 -0.42,-0.005 -0.63,-0.007 l -0.13,-0.005 c -0.29,0.567 -0.55,1.069 -0.6,1.162 -1.85,2.952 -2.94,6.173 -4.28,9.363 -1.57,3.738 -6.24,13.969 -8.89,21.471 z m 17.71,-41.984 c 0.43,0.848 0.68,1.822 0.68,2.852 0,-1.057 -0.22,-2.013 -0.68,-2.852 z m -11.65,3.159 c -0.03,0.952 0.15,1.704 0.39,2.294 -0.27,-0.713 -0.41,-1.49 -0.39,-2.294 z"
   style="fill:#000344;font-variation-settings:normal;opacity:1;vector-effect:none;fill-opacity:1;stroke-width:1.30221038;stroke-linecap:butt;stroke-linejoin:miter;stroke-miterlimit:2;stroke-dasharray:none;stroke-dashoffset:0;stroke-opacity:1;-inkscape-stroke:none;stop-color:#000000;stop-opacity:1"
   id="path154" />
            </g>
            <g
   transform="matrix(0.448925,0.676973,-0.623074,0.374016,1538.94,-605.645)"
   id="g160">
                <path
   d="m 995.214,489.147 c -0.414,0.638 -2.476,3.836 -3.219,5.381 -0.526,1.093 -0.787,2.067 -0.88,2.719 -0.387,2.726 0.678,4.538 1.801,5.662 4.69,4.69 9.514,11.741 13.334,17.463 1.37,2.07 3.58,4.001 6.11,5.674 2.68,1.766 5.77,3.267 7.73,4.742 0.22,0.166 1.29,1.229 2.11,2.06 0.09,1.095 0.23,2.376 0.43,2.939 0.72,2.131 2.05,3.266 3.31,3.828 1.19,0.529 2.6,0.729 4.23,-0.084 0.37,-0.186 1.87,-1.375 3.39,-3.856 2.73,-4.478 8.59,-15.306 9.67,-16.75 4.1,-5.466 7.64,-12.652 12.42,-17.427 0.55,-0.556 2.06,-1.598 3.15,-2.674 0.98,-0.963 1.72,-2.004 2.15,-2.916 1.08,-2.323 0.9,-4.548 -0.06,-6.469 -1.58,-3.155 -5.15,-5.828 -9.64,-7.703 -4.18,-1.743 -9.32,-2.84 -11.95,-4.887 -2.87,-2.229 -9.21,-7.356 -14.57,-10.249 -3.05,-1.642 -5.9,-2.552 -8,-2.552 -1.29,0 -2.45,0.532 -3.31,1.412 -2.1,-0.606 -4.34,0.293 -5.49,2.405 -3.9,7.146 -9.658,13.891 -12.716,21.282 z m 20.856,-13.758 c -3.74,6.425 -8.92,12.496 -11.61,19.211 -0.1,0.266 -1,1.786 -1.85,3.202 4.21,4.86 8.37,10.88 11.77,15.981 0.86,1.292 2.52,2.241 4.16,3.24 2.55,1.554 5.2,2.966 7.01,4.322 0.3,0.226 1.35,1.187 2.43,2.227 2.89,-5.013 6.52,-11.265 7.26,-12.251 4.38,-5.841 8.27,-13.427 13.37,-18.529 l 0.06,-0.055 c -0.89,-0.396 -1.84,-0.761 -2.81,-1.118 -4.58,-1.691 -9.42,-3.306 -12.17,-5.444 -2.24,-1.742 -6.79,-5.456 -11.13,-8.139 -2.07,-1.283 -3.99,-2.509 -5.37,-2.509 -0.38,0 -0.76,-0.047 -1.12,-0.138 z"
   style="fill:#000344;font-variation-settings:normal;opacity:1;vector-effect:none;fill-opacity:1;stroke-width:1.30220984;stroke-linecap:butt;stroke-linejoin:miter;stroke-miterlimit:2;stroke-dasharray:none;stroke-dashoffset:0;stroke-opacity:1;-inkscape-stroke:none;stop-color:#000000;stop-opacity:1"
   id="path158" />
            </g>
            <g
   transform="matrix(0.279123,0.755114,-0.698224,0.223809,1768.12,-612.698)"
   id="g164">
                <path
   d="m 1079.79,408.091 c -2.59,6.713 -4.5,14.372 -6.42,21.088 -1.7,5.937 -2.96,11.899 -4.65,17.837 -0.15,0.349 -2,4.786 -2.27,5.587 -1.26,3.756 1.1,6.126 1.44,6.462 0.43,0.433 1.12,1.009 2.21,1.38 0.51,0.173 1.6,0.386 3.1,0.481 2.62,0.167 7.35,0.205 11.3,0.599 1.57,0.157 3.7,0.638 3.95,0.694 1.7,1.1 4.73,2.526 7.27,3.826 0.93,0.478 2.28,1.284 2.4,1.358 1.83,1.773 5.39,3.901 7.87,4.099 2.81,0.224 4.95,-0.992 6.2,-3.502 2.25,-4.487 3.46,-9.957 4.45,-15.561 0.84,-4.731 1.51,-9.562 2.9,-13.713 0.98,-2.958 1.76,-6.259 2.82,-9.356 0.79,-2.303 1.71,-4.513 3.31,-6.109 0.55,-0.556 2.03,-3.047 2.3,-4.593 0.31,-1.756 -0.09,-3.212 -0.58,-4.209 -0.97,-1.938 -3.27,-3.88 -6.69,-4.586 -3.22,-0.664 -8.1,-0.314 -9.79,-0.736 -6.21,-1.552 -14.33,-2.54 -20.8,-4.907 -0.49,-0.779 -1.15,-1.446 -1.97,-1.917 -1.98,-1.149 -4.28,-0.795 -5.8,0.698 -0.95,0.56 -1.72,1.459 -2.17,2.631 -0.3,0.793 -0.42,1.628 -0.38,2.449 z m 38.48,6.855 0.24,-0.247 c -0.06,0.058 -0.14,0.139 -0.24,0.247 z m -29.83,0.429 c -2.02,5.748 -3.58,12.05 -5.17,17.637 -1.6,5.573 -2.81,11.168 -4.35,16.744 2.54,0.135 5.33,0.329 7.41,0.591 3.13,0.394 5.7,1.212 7.04,2.106 1.71,1.141 5.22,2.663 7.66,3.991 1.47,0.798 2.67,1.612 3.42,2.276 0.9,-2.773 1.47,-5.831 2.01,-8.917 0.94,-5.318 1.77,-10.729 3.33,-15.395 1.47,-4.418 2.67,-9.43 4.7,-13.733 l -0.5,-0.024 c -2.11,-0.062 -3.96,-0.178 -4.95,-0.426 -6.14,-1.533 -13.95,-2.69 -20.6,-4.85 z"
   style="fill:#000344;font-variation-settings:normal;opacity:1;vector-effect:none;fill-opacity:1;stroke-width:1.30221034;stroke-linecap:butt;stroke-linejoin:miter;stroke-miterlimit:2;stroke-dasharray:none;stroke-dashoffset:0;stroke-opacity:1;-inkscape-stroke:none;stop-color:#000000;stop-opacity:1"
   id="path162" />
            </g>
            <g
   transform="matrix(0.27538,0.756357,-0.696138,0.229429,1771.39,-615.871)"
   id="g168">
                <path
   d="m 1090.4,478.634 c -1.03,0.08 -2.18,0.527 -3.33,1.648 -0.77,0.755 -2.04,2.65 -3.38,5.367 -2.28,4.639 -5.32,12.16 -7.44,17.791 -2.36,6.303 -4.53,12.492 -6.98,18.642 0.15,-0.398 0.7,-1.222 0.7,-1.222 0,0 -1.94,4.901 -0.87,7.043 0.06,0.114 0.83,1.969 3.31,2.889 1.76,0.647 10.39,3.573 11.19,3.839 2.02,0.674 3.66,2.714 5.47,4.268 2.21,1.897 4.53,3.425 7.01,4.045 3.22,0.805 7.53,0.771 9.91,1.965 0.87,0.432 5.37,2.897 7.71,3.318 2.5,0.449 4.29,-0.485 5.3,-1.488 1.8,-1.801 3.41,-4.838 4.72,-8.321 1.44,-3.812 2.57,-8.22 3.77,-10.808 3.83,-8.204 5.77,-16.377 8.8,-24.699 0.44,-1.212 3,-5.781 3.31,-8.303 0.34,-2.821 -0.6,-4.93 -1.97,-6.304 -1.76,-1.76 -4.51,-2.999 -7.62,-3.649 -2.97,-0.619 -6.36,-0.73 -8.48,-1.261 -4.45,-1.112 -9.71,-3.647 -14.84,-5.476 -4.08,-1.456 -8.11,-2.484 -11.73,-2.484 -2.04,0 -3.78,1.306 -4.56,3.2 z m -9.66,43.208 5.58,1.913 c 2.36,0.787 4.57,2.386 6.68,4.238 1.69,1.48 3.18,3.391 5.08,3.863 3.9,0.976 9.07,1.279 11.96,2.725 0.33,0.163 1.9,0.92 3.2,1.545 0.57,-1.224 1.05,-2.706 1.56,-4.183 1.24,-3.626 2.33,-7.383 3.45,-9.765 3.68,-7.886 5.49,-15.764 8.4,-23.764 0.14,-0.375 0.68,-1.534 1.24,-2.711 -0.27,-0.033 -0.54,-0.067 -0.82,-0.11 -2.76,-0.433 -5.63,-0.632 -7.55,-1.112 -3.99,-0.998 -8.6,-3.017 -13.23,-4.811 -3.62,-1.406 -7.24,-2.717 -10.48,-2.848 -0.41,1.017 -1.07,1.826 -1.87,2.381 -2.08,3.454 -5.7,12.479 -8.09,18.843 -1.74,4.65 -3.38,9.239 -5.11,13.796 z m 8.66,-32.151 c 0.36,0.151 0.73,0.26 1.13,0.315 -0.38,-0.056 -0.76,-0.16 -1.13,-0.315 z"
   style="fill:#000344;font-variation-settings:normal;opacity:1;vector-effect:none;fill-opacity:1;stroke-width:1.30221028;stroke-linecap:butt;stroke-linejoin:miter;stroke-miterlimit:2;stroke-dasharray:none;stroke-dashoffset:0;stroke-opacity:1;-inkscape-stroke:none;stop-color:#000000;stop-opacity:1"
   id="path166" />
            </g>
            <g
   transform="matrix(0.279123,0.755114,-0.694994,0.232547,1776.49,-611.892)"
   id="g172">
                <path
   d="m 1140.65,470.387 c 0.75,0.708 5.03,4.75 7.52,6.785 1.83,1.491 3.49,2.47 4.48,2.788 2.55,0.828 4.33,-0.126 5.43,-1.223 2.34,-2.339 4.32,-5.907 6,-9.9 1.99,-4.73 3.58,-10.114 5.48,-13.629 1.7,-3.164 2.98,-7.414 4.91,-10.091 0.51,-0.564 2.15,-2.394 2.74,-3.418 0.97,-1.675 1.07,-3.288 0.95,-4.301 -0.24,-2.157 -1.25,-3.826 -3.24,-4.823 -2.83,-1.413 -13.82,-5.839 -20.86,-9.062 -2.07,-0.945 -4.34,-2.163 -4.61,-2.31 -2.11,-1.838 -5.14,-1.662 -6.95,0.451 -1.21,0.169 -2.36,0.812 -3.2,1.909 -5.19,6.808 -7.99,15.978 -12.82,23.23 -1.05,1.575 -3.61,4.708 -4.56,7.518 -0.92,2.706 -0.77,5.321 0.34,7.542 0.59,1.19 2.02,2.822 4.46,3.987 3.62,1.731 11.3,3.312 13.93,4.547 z m -7.51,-14.068 c 1.13,0.404 2.4,0.838 3.47,1.147 3.69,1.073 7.33,2.143 8.8,2.962 0.36,0.199 1.51,1.087 2.97,2.448 1.12,1.04 3.16,2.825 4.78,4.22 0.9,-1.685 1.67,-3.655 2.44,-5.638 1.72,-4.451 3.27,-9.056 5,-12.265 1.47,-2.736 2.75,-6.126 4.25,-8.939 -5.51,-2.34 -13.09,-5.494 -17.37,-7.61 -0.34,-0.166 -0.66,-0.331 -0.97,-0.495 -4.54,6.496 -7.16,14.877 -11.61,21.55 z"
   style="fill:#000344;font-variation-settings:normal;opacity:1;vector-effect:none;fill-opacity:1;stroke-width:1.30221038;stroke-linecap:butt;stroke-linejoin:miter;stroke-miterlimit:2;stroke-dasharray:none;stroke-dashoffset:0;stroke-opacity:1;-inkscape-stroke:none;stop-color:#000000;stop-opacity:1"
   id="path170" />
            </g>
            <g
   transform="matrix(0.279123,0.755114,-0.694994,0.232547,1762.99,-613.331)"
   id="g176">
                <path
   d="m 1101.67,605.313 c 0.74,0.652 2.45,2.126 3.34,2.721 1.04,0.687 1.96,0.988 2.54,1.092 2.83,0.504 4.48,-0.951 5.42,-2.82 5.09,-10.195 7.81,-22.485 12.59,-33.019 0.58,-1.278 3.79,-7.634 4.42,-10.77 0.7,-3.455 -0.59,-5.843 -1.74,-6.992 -0.96,-0.961 -2.49,-1.883 -4.4,-2.496 -2.36,-0.756 -5.57,-1.135 -7.3,-1.606 -9.32,-2.543 -23.66,-7.596 -32.13,-7.596 -2.09,0 -3.86,1.367 -4.62,3.332 -1.13,0.107 -2.51,0.647 -3.75,2.288 -1.68,2.23 -7.46,14.329 -8.48,16.258 -4.04,7.679 -4.81,13.147 -3.97,17.042 0.96,4.442 3.82,7.748 8.61,10.174 4.64,2.346 11.59,3.974 19.43,6.917 3.57,1.338 6.57,3.897 10.04,5.475 z m -17.7,-48.202 c -0.9,1.783 -6.56,12.915 -7.4,14.516 -1.48,2.811 -2.42,5.087 -2.8,7.002 -0.17,0.829 -0.28,1.489 -0.04,2.036 0.25,0.564 0.78,0.895 1.38,1.277 1.33,0.863 3.03,1.548 4.99,2.245 4.08,1.457 9.12,2.84 14.6,4.896 3.91,1.467 7.17,4.351 11.05,5.902 0.12,0.048 0.29,0.122 0.51,0.241 3.6,-8.839 6.09,-18.656 10.01,-27.272 0.23,-0.512 1.19,-2.696 2.05,-4.685 -1.52,-0.294 -2.98,-0.539 -3.97,-0.809 -8.44,-2.3 -21.26,-7.057 -29.13,-7.247 -0.29,0.743 -0.72,1.385 -1.25,1.898 z"
   style="fill:#000344;font-variation-settings:normal;opacity:1;vector-effect:none;fill-opacity:1;stroke-width:1.30221038;stroke-linecap:butt;stroke-linejoin:miter;stroke-miterlimit:2;stroke-dasharray:none;stroke-dashoffset:0;stroke-opacity:1;-inkscape-stroke:none;stop-color:#000000;stop-opacity:1"
   id="path174" />
            </g>
            <g
   transform="matrix(-0.420638,-0.190291,-0.31561,0.849571,2134.54,-36.7347)"
   id="g180">
                <path
   d="m 942.644,505.035 c 5.125,2.473 9.481,7.062 11.982,12.815 5.259,12.101 3.53,29.556 -4.111,37.197 -5.316,5.316 -13.083,7.755 -20.84,8.321 -8.143,0.594 -16.683,-0.881 -23.608,-4.029 -8.949,-4.068 -14.678,-10.861 -16.932,-18.634 -3.064,-10.566 0.023,-22.922 6.947,-31.134 5.877,-6.972 15.166,-10.935 24.623,-10.968 6.609,-0.022 14.303,1.634 21.939,6.432 z m -11.947,6.484 c -0.526,-0.225 -1.006,-0.478 -1.43,-0.753 -2.749,-1.784 -4.811,-2.954 -7.192,-2.946 -1.331,0.005 -2.376,0.496 -3.484,1.068 -2.235,1.153 -4.136,2.825 -5.804,4.803 -5.844,6.932 -8.343,17.371 -5.756,26.29 1.513,5.218 4.543,9.94 10.552,12.671 2.468,1.122 5.425,1.801 8.328,1.59 3.292,-0.24 6.106,-1.562 8.362,-3.819 5.476,-5.475 6.68,-17.024 4.255,-26.574 -0.794,-3.129 -1.997,-6.046 -3.675,-8.453 -1.176,-1.688 -2.353,-3.104 -4.156,-3.877 z"
   style="fill:#000344;font-variation-settings:normal;opacity:1;vector-effect:none;fill-opacity:1;stroke-width:1.54779553;stroke-linecap:butt;stroke-linejoin:miter;stroke-miterlimit:2;stroke-dasharray:none;stroke-dashoffset:0;stroke-opacity:1;-inkscape-stroke:none;stop-color:#000000;stop-opacity:1"
   id="path178" />
            </g>
            <g
   transform="translate(-25.6718,-657.681)"
   id="g184">
                <path
   d="m 1426.05,1021.68 c -0.23,0.76 -0.25,1.59 0,2.41 0.67,2.2 3,3.44 5.2,2.77 0.99,-0.3 1.4,-0.64 1.64,-0.84 0.52,-0.42 0.88,-0.91 1.13,-1.45 0.24,-0.5 0.31,-2.76 0.31,-2.76 0,0 0.03,0.14 0.03,0.29 0,-2.3 -1.87,-4.17 -4.17,-4.17 -2.16,0 -3.93,1.65 -4.14,3.75 z"
   style="fill:#000344;font-variation-settings:normal;opacity:1;vector-effect:none;fill-opacity:1;stroke-width:1;stroke-linecap:butt;stroke-linejoin:miter;stroke-miterlimit:2;stroke-dasharray:none;stroke-dashoffset:0;stroke-opacity:1;-inkscape-stroke:none;stop-color:#000000;stop-opacity:1"
   id="path182" />
            </g>
            <g
   transform="translate(-25.6718,-657.681)"
   id="g188">
                <path
   d="m 1433.27,1022.43 c 7.81,-4.82 14.68,-5.95 23.93,-8.2 16.22,-3.95 36.56,-0.03 50.24,6.96 4.34,2.22 8,4.74 10.55,7.45 2,2.13 3.33,4.3 3.33,6.55 0,2.3 1.87,4.17 4.17,4.17 2.3,0 4.16,-1.87 4.16,-4.17 0,-5.88 -4.08,-12.04 -11.32,-17.16 -14.54,-10.3 -41.96,-17.04 -63.1,-11.9 -10.89,2.66 -18.73,4.08 -28.08,10.32 -2.09,1.39 -2.58,2.97 -2.65,3.32 -0.22,1.16 0.02,2.17 0.59,3.06 0.22,0.34 1.5,2.23 4.89,1.87 1.46,-0.15 2.67,-1.05 3.29,-2.27 z"
   style="fill:#000344;font-variation-settings:normal;opacity:1;vector-effect:none;fill-opacity:1;stroke-width:1;stroke-linecap:butt;stroke-linejoin:miter;stroke-miterlimit:2;stroke-dasharray:none;stroke-dashoffset:0;stroke-opacity:1;-inkscape-stroke:none;stop-color:#000000;stop-opacity:1"
   id="path186" />
            </g>
            <g
   transform="translate(-25.6718,-657.681)"
   id="g192">
                <path
   d="m 1438.96,988.579 c 13.56,-7.792 60.24,-17.832 89.28,16.231 1.49,1.75 4.12,1.96 5.87,0.47 1.76,-1.49 1.96,-4.13 0.47,-5.876 -32.44,-38.061 -84.62,-26.757 -99.77,-18.051 -1.99,1.146 -2.68,3.695 -1.54,5.689 1.15,1.994 3.7,2.682 5.69,1.537 z"
   style="fill:#000344;font-variation-settings:normal;opacity:1;vector-effect:none;fill-opacity:1;stroke-width:1;stroke-linecap:butt;stroke-linejoin:miter;stroke-miterlimit:2;stroke-dasharray:none;stroke-dashoffset:0;stroke-opacity:1;-inkscape-stroke:none;stop-color:#000000;stop-opacity:1"
   id="path190" />
            </g>
            <g
   transform="translate(-25.6718,-657.681)"
   id="g196">
                <path
   d="m 1453.67,956.692 c 0.87,-2.016 2.96,-3.349 5.64,-4.401 5.38,-2.109 13.01,-2.735 21.37,-2.21 13.01,0.819 27.76,4.507 38.98,10.561 6.94,3.739 12.54,8.322 15.14,13.84 0.98,2.081 3.46,2.975 5.54,1.995 2.08,-0.979 2.98,-3.464 2,-5.544 -3.77,-8.004 -12.28,-14.804 -22.98,-19.756 -15.18,-7.022 -34.71,-10.467 -49.51,-9.411 -6.79,0.485 -12.63,1.941 -16.8,4.282 -3.38,1.896 -5.76,4.391 -7.03,7.362 -0.91,2.113 0.07,4.565 2.18,5.471 2.12,0.905 4.57,-0.076 5.47,-2.189 z"
   style="fill:#000344;font-variation-settings:normal;opacity:1;vector-effect:none;fill-opacity:1;stroke-width:1;stroke-linecap:butt;stroke-linejoin:miter;stroke-miterlimit:2;stroke-dasharray:none;stroke-dashoffset:0;stroke-opacity:1;-inkscape-stroke:none;stop-color:#000000;stop-opacity:1"
   id="path194" />
            </g>
            <g
   transform="translate(-25.6718,-657.681)"
   id="g200">
                <path
   d="m 1465.32,930.004 c 36.32,-13.535 63.93,-3.761 79.92,14.115 1.53,1.714 4.16,1.861 5.88,0.328 1.71,-1.533 1.86,-4.169 0.33,-5.883 -17.84,-19.942 -48.52,-31.467 -89.04,-16.369 -2.15,0.803 -3.25,3.205 -2.45,5.36 0.81,2.155 3.21,3.252 5.36,2.449 z"
   style="fill:#000344;font-variation-settings:normal;opacity:1;vector-effect:none;fill-opacity:1;stroke-width:1;stroke-linecap:butt;stroke-linejoin:miter;stroke-miterlimit:2;stroke-dasharray:none;stroke-dashoffset:0;stroke-opacity:1;-inkscape-stroke:none;stop-color:#000000;stop-opacity:1"
   id="path198" />
            </g>
            <g
   transform="translate(-25.6718,-657.681)"
   id="g204">
                <path
   d="m 1479.66,902.689 c 8.11,-2.269 12.7,-4.776 21.17,-6.187 7.48,-1.247 30.68,2.783 43.95,10.387 2.56,1.466 4.73,3.053 6.24,4.813 1.07,1.255 1.8,2.562 1.8,4.008 0,2.3 1.86,4.167 4.17,4.167 2.3,0 4.16,-1.867 4.16,-4.167 0,-6.026 -4.63,-11.699 -12.23,-16.052 -14.91,-8.545 -41.05,-12.777 -49.46,-11.376 -8.81,1.469 -13.61,4.021 -22.04,6.382 -2.22,0.62 -3.51,2.921 -2.89,5.135 0.62,2.215 2.92,3.51 5.13,2.89 z"
   style="fill:#000344;font-variation-settings:normal;opacity:1;vector-effect:none;fill-opacity:1;stroke-width:1;stroke-linecap:butt;stroke-linejoin:miter;stroke-miterlimit:2;stroke-dasharray:none;stroke-dashoffset:0;stroke-opacity:1;-inkscape-stroke:none;stop-color:#000000;stop-opacity:1"
   id="path202" />
            </g>
            <g
   transform="translate(-25.6718,-657.681)"
   id="g208">
                <path
   d="m 1498.89,878.71 c 1.19,-1.61 3.32,-2.544 5.9,-3.21 3.33,-0.854 7.37,-1.129 11.77,-0.987 13.87,0.448 31.12,5.076 41.54,10.856 2.66,1.475 4.84,2.997 6.29,4.572 0.92,0.991 1.7,1.867 0.97,2.801 -1.42,1.812 -1.09,4.433 0.72,5.848 1.81,1.416 4.43,1.094 5.85,-0.718 2.92,-3.745 2.81,-7.735 0.08,-11.72 -1.86,-2.72 -5.29,-5.53 -9.87,-8.07 -13.3,-7.381 -36.78,-13.066 -52.71,-11.739 -7.96,0.665 -14.14,3.232 -17.23,7.403 -1.37,1.848 -0.99,4.459 0.86,5.829 1.85,1.37 4.46,0.982 5.83,-0.865 z"
   style="fill:#000344;font-variation-settings:normal;opacity:1;vector-effect:none;fill-opacity:1;stroke-width:1;stroke-linecap:butt;stroke-linejoin:miter;stroke-miterlimit:2;stroke-dasharray:none;stroke-dashoffset:0;stroke-opacity:1;-inkscape-stroke:none;stop-color:#000000;stop-opacity:1"
   id="path206" />
            </g>
            <g
   transform="translate(-25.6718,-657.681)"
   id="g212">
                <path
   d="m 1520.8,857.181 c 8.35,-4.174 28.45,-3.747 42.89,1.4 4.55,1.622 8.54,3.712 11.29,6.409 2.22,2.178 3.57,4.76 3.35,7.844 -0.16,2.295 1.57,4.287 3.87,4.446 2.29,0.16 4.29,-1.573 4.44,-3.867 0.73,-10.396 -7.77,-18.267 -20.15,-22.682 -16.64,-5.928 -39.79,-5.812 -49.41,-1.005 -2.06,1.027 -2.9,3.532 -1.87,5.589 1.03,2.057 3.53,2.893 5.59,1.866 z"
   style="fill:#000344;font-variation-settings:normal;opacity:1;vector-effect:none;fill-opacity:1;stroke-width:1;stroke-linecap:butt;stroke-linejoin:miter;stroke-miterlimit:2;stroke-dasharray:none;stroke-dashoffset:0;stroke-opacity:1;-inkscape-stroke:none;stop-color:#000000;stop-opacity:1"
   id="path210" />
            </g>
            <g
   transform="translate(-25.6718,-657.681)"
   id="g216">
                <path
   d="m 1541.06,837.473 c 3.03,-1.575 7.57,-2.24 12.67,-2.269 8.26,-0.047 17.92,1.704 25.62,5.08 3.96,1.733 7.39,3.874 9.7,6.496 1.86,2.106 2.93,4.525 2.62,7.294 -0.26,2.285 1.38,4.351 3.67,4.61 2.28,0.26 4.35,-1.385 4.61,-3.67 1.09,-9.62 -6.21,-17.525 -17.26,-22.363 -8.72,-3.823 -19.65,-5.834 -29.01,-5.78 -6.64,0.038 -12.51,1.156 -16.46,3.207 -2.04,1.061 -2.84,3.578 -1.78,5.619 1.06,2.04 3.58,2.836 5.62,1.776 z"
   style="fill:#000344;font-variation-settings:normal;opacity:1;vector-effect:none;fill-opacity:1;stroke-width:1;stroke-linecap:butt;stroke-linejoin:miter;stroke-miterlimit:2;stroke-dasharray:none;stroke-dashoffset:0;stroke-opacity:1;-inkscape-stroke:none;stop-color:#000000;stop-opacity:1"
   id="path214" />
            </g>
            <g
   transform="translate(-25.6718,-657.681)"
   id="g220">
                <path
   d="m 1568.04,816.81 c 6.88,-0.929 18.66,0.925 28.23,5.1 5.86,2.554 10.96,5.891 13.06,10.324 0.98,2.079 3.47,2.969 5.55,1.986 2.07,-0.983 2.96,-3.468 1.98,-5.548 -2.83,-5.985 -9.35,-10.952 -17.26,-14.4 -11.06,-4.828 -24.72,-6.795 -32.68,-5.72 -2.28,0.308 -3.88,2.408 -3.57,4.687 0.31,2.279 2.41,3.879 4.69,3.571 z"
   style="fill:#000344;font-variation-settings:normal;opacity:1;vector-effect:none;fill-opacity:1;stroke-width:1;stroke-linecap:butt;stroke-linejoin:miter;stroke-miterlimit:2;stroke-dasharray:none;stroke-dashoffset:0;stroke-opacity:1;-inkscape-stroke:none;stop-color:#000000;stop-opacity:1"
   id="path218" />
            </g>
            <g
   transform="translate(-25.6718,-657.681)"
   id="g224">
                <path
   d="m 1592.4,801.322 c 5.38,-0.646 15.82,1.652 23.74,5.518 2.51,1.226 4.77,2.611 6.47,4.156 1.22,1.106 2.18,2.231 2.43,3.508 0.45,2.256 2.64,3.724 4.9,3.276 2.25,-0.448 3.72,-2.643 3.27,-4.898 -0.79,-4.005 -4.04,-7.894 -8.92,-11.023 -9.56,-6.138 -25.38,-9.712 -32.89,-8.81 -2.28,0.274 -3.91,2.35 -3.64,4.633 0.28,2.284 2.35,3.915 4.64,3.64 z"
   style="fill:#000344;font-variation-settings:normal;opacity:1;vector-effect:none;fill-opacity:1;stroke-width:1;stroke-linecap:butt;stroke-linejoin:miter;stroke-miterlimit:2;stroke-dasharray:none;stroke-dashoffset:0;stroke-opacity:1;-inkscape-stroke:none;stop-color:#000000;stop-opacity:1"
   id="path222" />
            </g>
            <g
   transform="translate(-25.6718,-657.681)"
   id="g228">
                <path
   d="m 1616.9,780.388 c -0.85,-0.495 -1.89,-0.69 -2.93,-0.473 -2.25,0.467 -3.7,2.675 -3.23,4.927 0.09,0.424 0.66,2.474 3.41,3.412 2.27,0.776 9.95,2.687 17.32,5.699 4.44,1.81 8.8,3.982 11.47,6.655 1.63,1.626 4.27,1.626 5.89,0 1.63,-1.626 1.63,-4.266 0,-5.892 -3.33,-3.336 -8.67,-6.219 -14.21,-8.478 -7.51,-3.067 -15.32,-5.04 -17.72,-5.85 z m 1.69,1.841 c 0.14,0.287 0.24,0.594 0.31,0.918 -0.06,-0.29 -0.16,-0.6 -0.31,-0.918 z m -0.08,-0.165 0.03,0.061 -0.01,-0.027 z"
   style="fill:#000344;font-variation-settings:normal;opacity:1;vector-effect:none;fill-opacity:1;stroke-width:1;stroke-linecap:butt;stroke-linejoin:miter;stroke-miterlimit:2;stroke-dasharray:none;stroke-dashoffset:0;stroke-opacity:1;-inkscape-stroke:none;stop-color:#000000;stop-opacity:1"
   id="path226" />
            </g>
            <g
   transform="translate(-25.6718,-657.681)"
   id="g232">
                <path
   d="m 1644.8,775.54 c 0.29,0.002 0.68,0.016 0.98,0.061 1.1,0.164 2.35,0.522 3.67,1.002 3.72,1.359 7.89,3.686 10.85,6.073 1.37,1.111 2.57,2.069 2.85,3.025 0.66,2.205 2.98,3.462 5.18,2.807 2.21,-0.656 3.46,-2.977 2.81,-5.182 -0.5,-1.669 -1.8,-3.656 -3.84,-5.589 -3.6,-3.413 -9.66,-7.013 -14.99,-8.961 -3.54,-1.29 -6.81,-1.814 -9.08,-1.487 -2.95,0.424 -4.85,1.984 -5.7,4.36 -0.77,2.164 0.35,4.552 2.52,5.328 1.77,0.633 3.68,-0.003 4.75,-1.437 z"
   style="fill:#000344;font-variation-settings:normal;opacity:1;vector-effect:none;fill-opacity:1;stroke-width:1;stroke-linecap:butt;stroke-linejoin:miter;stroke-miterlimit:2;stroke-dasharray:none;stroke-dashoffset:0;stroke-opacity:1;-inkscape-stroke:none;stop-color:#000000;stop-opacity:1"
   id="path230" />
            </g>
            <g
   transform="translate(-25.6718,-657.681)"
   id="g236">
                <path
   d="m 1673.74,769.989 c 2.12,1.878 6.26,6.396 7.14,7.331 1.55,1.647 3.17,1.493 3.21,1.493 2.3,0 4.17,-1.867 4.17,-4.167 0,-1.15 -0.47,-2.192 -1.22,-2.946 l -0.13,-0.133 c -1.02,-1.086 -5.26,-5.664 -7.58,-7.746 -1.02,-0.919 -1.89,-1.476 -2.34,-1.678 -2.21,-0.978 -3.75,-0.096 -4.59,0.619 -0.8,0.683 -1.64,1.775 -1.48,3.654 0.16,1.693 1.3,3.06 2.82,3.573 z m 5.5,-4.09 c 0.02,0.552 -0.07,1.084 -0.25,1.576 0.17,-0.438 0.27,-0.956 0.25,-1.576 z"
   style="fill:#000344;font-variation-settings:normal;opacity:1;vector-effect:none;fill-opacity:1;stroke-width:1;stroke-linecap:butt;stroke-linejoin:miter;stroke-miterlimit:2;stroke-dasharray:none;stroke-dashoffset:0;stroke-opacity:1;-inkscape-stroke:none;stop-color:#000000;stop-opacity:1"
   id="path234" />
            </g>
            <g
   transform="translate(-25.6718,-657.681)"
   id="g240">
                <path
   d="m 1693.43,765.395 c 0.18,0.285 0.91,1.49 1.19,2.068 1.03,2.057 3.54,2.892 5.6,1.863 2.05,-1.028 2.89,-3.533 1.86,-5.59 -0.55,-1.089 -1.24,-2.442 -2.09,-3.508 -0.97,-1.208 -2.14,-2.099 -3.44,-2.551 -2.17,-0.757 -4.55,0.39 -5.31,2.562 -0.71,2.043 0.27,4.27 2.19,5.156 z"
   style="fill:#000344;font-variation-settings:normal;opacity:1;vector-effect:none;fill-opacity:1;stroke-width:1;stroke-linecap:butt;stroke-linejoin:miter;stroke-miterlimit:2;stroke-dasharray:none;stroke-dashoffset:0;stroke-opacity:1;-inkscape-stroke:none;stop-color:#000000;stop-opacity:1"
   id="path238" />
            </g>
            <g
   transform="matrix(-0.45492,-0.0110149,-0.022204,0.91703,2015.84,-271.159)"
   id="g244">
                <path
   d="m 877.604,666.68 c 10.406,10.422 23.906,27.522 13.522,43.098 -4.365,6.548 -14.807,13.593 -25.634,16.893 -7.152,2.18 -14.58,2.833 -21.19,1.786 -6.304,-0.998 -12.545,-3.607 -16.629,-9.053 -11.066,-14.754 -11.121,-34.478 -1.098,-49.512 5.708,-8.563 18.485,-12.737 29.644,-12.145 7.704,0.41 15.911,2.96 21.409,8.959 z m -16.477,3.965 c -0.049,-0.049 -0.096,-0.098 -0.142,-0.148 -1.968,-2.16 -3.95,-3.57 -6.715,-3.717 -1.534,-0.081 -2.967,0.365 -4.337,0.976 -2.503,1.114 -4.539,2.84 -5.971,4.988 -8.804,13.206 -8.846,30.532 0.874,43.492 1.452,1.937 2.795,3.212 5.036,3.567 1.932,0.306 3.942,-0.235 6.032,-0.872 7.637,-2.328 14.757,-7.388 17.835,-12.006 8.77,-13.154 -3.836,-27.504 -12.612,-36.28 z"
   style="fill:#000344;font-variation-settings:normal;opacity:1;vector-effect:none;fill-opacity:1;stroke-width:1.54779502;stroke-linecap:butt;stroke-linejoin:miter;stroke-miterlimit:2;stroke-dasharray:none;stroke-dashoffset:0;stroke-opacity:1;-inkscape-stroke:none;stop-color:#000000;stop-opacity:1"
   id="path242" />
            </g>
            <g
   transform="matrix(-0.448502,-0.0830314,-0.140135,0.904754,2082.07,-184.493)"
   id="g248">
                <path
   d="m 963.802,645.829 c 2.494,16.052 -1.951,26.814 -8.966,33.329 -5.756,5.348 -13.44,8.183 -21.122,9.208 -18.659,2.49 -41.469,-5.988 -43.974,-22.129 -3.597,-23.175 -0.331,-36.675 22.6,-46.503 1.787,-0.766 6.148,-1.722 12.402,-1.091 11.361,1.146 36.044,7.777 39.06,27.186 z m -41.52,-18.114 c -16.947,8.134 -17.2,19.527 -14.319,38.086 0.773,4.982 4.077,8.992 8.879,11.518 3.415,1.797 7.566,2.793 11.663,2.246 5.149,-0.687 9.409,-3.306 12.67,-7.689 4.253,-5.716 6.193,-14.096 4.404,-25.61 v 0 c -1.397,-8.989 -8.779,-14.205 -16.101,-16.825 -2.414,-0.864 -5.476,-1.444 -7.196,-1.726 z"
   style="fill:#000344;font-variation-settings:normal;opacity:1;vector-effect:none;fill-opacity:1;stroke-width:1.54779554;stroke-linecap:butt;stroke-linejoin:miter;stroke-miterlimit:2;stroke-dasharray:none;stroke-dashoffset:0;stroke-opacity:1;-inkscape-stroke:none;stop-color:#000000;stop-opacity:1"
   id="path246" />
            </g>
            <g
   transform="matrix(-0.442084,-0.117315,-0.196244,0.892131,2102.04,-96.1193)"
   id="g252">
                <path
   d="m 1033.27,593.706 c 8.81,11.15 13.07,21.139 9.12,35.622 -2.08,7.61 -7.27,14.532 -13.84,19.396 -7.29,5.399 -16.64,8.291 -25.43,8.283 -6.702,-0.006 -13.661,-1.478 -19.923,-5.305 -8.883,-5.428 -13.635,-14.513 -14.267,-24.371 -0.903,-14.103 6.348,-29.666 17.513,-37.11 3.999,-2.665 12.932,-5.526 21.567,-6.179 7.49,-0.568 14.61,0.403 19.59,3.201 2.62,1.47 4.79,3.544 5.67,6.463 z m -17.33,2.525 c -0.31,-0.393 -0.52,-0.804 -0.61,-1.22 -0.2,-0.876 -0.32,-1.533 -1.15,-1.878 -0.39,-0.161 -0.92,-0.117 -1.44,-0.115 -1.05,0.005 -2.13,0.116 -3.19,0.278 -3.42,0.519 -6.77,1.547 -8.36,2.606 -9.45,6.302 -14.798,19.587 -14.033,31.528 0.481,7.506 3.181,14.535 9.946,18.669 1.559,0.952 3.017,1.607 4.687,1.752 2.79,0.243 5.23,-0.793 7.77,-2.111 7.14,-3.708 12.7,-10.48 14.76,-18.025 3.49,-12.815 -0.46,-21.584 -8.38,-31.484 z"
   style="fill:#000344;font-variation-settings:normal;opacity:1;vector-effect:none;fill-opacity:1;stroke-width:1.54779624;stroke-linecap:butt;stroke-linejoin:miter;stroke-miterlimit:2;stroke-dasharray:none;stroke-dashoffset:0;stroke-opacity:1;-inkscape-stroke:none;stop-color:#000000;stop-opacity:1"
   id="path250" />
            </g>
        </g>
    </g>
</svg>
