<?xml version="1.0" encoding="UTF-8" standalone="no"?>
<svg
   width="100%"
   height="100%"
   viewBox="0 0 680 535"
   version="1.1"
   xml:space="preserve"
   style="fill-rule:evenodd;clip-rule:evenodd;stroke-linejoin:round;stroke-miterlimit:2;"
   id="svg196"
   sodipodi:docname="2023-CH-01-D.svg"
   inkscape:version="1.1.1 (3bf5ae0d25, 2021-09-20)"
   xmlns:inkscape="http://www.inkscape.org/namespaces/inkscape"
   xmlns:sodipodi="http://sodipodi.sourceforge.net/DTD/sodipodi-0.dtd"
   xmlns="http://www.w3.org/2000/svg"
   xmlns:svg="http://www.w3.org/2000/svg"><defs
   id="defs200" /><sodipodi:namedview
   id="namedview198"
   pagecolor="#ffffff"
   bordercolor="#666666"
   borderopacity="1.0"
   inkscape:pageshadow="2"
   inkscape:pageopacity="0.0"
   inkscape:pagecheckerboard="0"
   showgrid="false"
   inkscape:zoom="0.47514932"
   inkscape:cx="880.77575"
   inkscape:cy="182.04803"
   inkscape:window-width="2048"
   inkscape:window-height="1017"
   inkscape:window-x="-8"
   inkscape:window-y="-8"
   inkscape:window-maximized="1"
   inkscape:current-layer="svg196" />
    <g
   transform="translate(-1466.67,-1985.16)"
   id="g194">
        <g
   transform="translate(75.9578,1274.57)"
   id="g192">
            <g
   transform="translate(1.30451,645.666)"
   id="g52">
                <g
   transform="translate(40.9277,-237.354)"
   id="g4">
                    <path
   d="m 1672.92,629.543 c -2.89,-4.965 -0.93,21.872 -0.33,26.089 1.91,13.339 1.82,114.392 4.04,127.672 0.73,4.375 2.06,14.333 -0.43,18.487 -17.21,28.674 -19.1,-7.404 -22.79,-18.487 -1.32,-3.955 -12.75,2.123 -13.33,3.869 -9.67,29.003 3.26,40.096 30.96,44.713 12.99,2.165 20.57,-20.43 23.26,-29.862 6.05,-21.165 4.84,-134.677 2.42,-156.477 -0.59,-5.279 2.05,-15.148 -2.15,-19.347 -5.72,-5.722 -14.48,1.917 -20.69,1.917"
   style="fill:#959799"
   id="path2" />
                </g>
                <g
   transform="translate(40.9277,-237.354)"
   id="g8">
                    <path
   d="m 1667.73,337.467 c -0.23,0.012 -0.61,-8.146 -0.73,-9.012 -0.59,-4.132 -1.33,-25.601 7.74,-21.067 4.95,2.476 8.55,25.174 4.73,27.086 -1.66,0.829 -6.77,0 -8.6,0 -0.9,0 -3.44,0.9 -3.44,0.43"
   style="fill:#959799"
   id="path6" />
                </g>
                <g
   transform="translate(40.9277,-237.354)"
   id="g12">
                    <path
   d="m 1355.55,636.055 c 0,0 11.95,-66.93 19.97,-86.981 2.88,-7.216 7.83,-14.229 10.7,-21.399 20.5,-51.26 68.28,-107.395 114.43,-138.163 29.56,-19.703 61.03,-31.352 93.97,-42.333 11.32,-3.771 23.78,-7.634 35.82,-8.839 15.25,-1.525 61.29,-4.279 73.5,-3.721 86.2,3.932 189.85,59.45 247.72,129.896 60.12,73.19 72.81,161.317 72.81,161.317 -7.94,-8.37 -11.97,-17.623 -19.48,-21.947 -28.11,-16.175 -56.62,-2.446 -75.41,24.631 -5.05,7.29 -5.13,15.773 -9.78,25.227 -60.06,-46.587 -104.11,-24.033 -143.28,19.539 -71.59,-64.742 -127.72,-53.838 -176.78,-8.374 -59.13,-49.048 -105.15,-43.161 -141.9,1.643 -25.1,-50.18 -57.34,-65.299 -99.07,-33.741"
   style="fill:#cefffe;font-variation-settings:normal;opacity:1;vector-effect:none;fill-opacity:1;stroke-width:1;stroke-linecap:butt;stroke-linejoin:miter;stroke-miterlimit:2;stroke-dasharray:none;stroke-dashoffset:0;stroke-opacity:1;-inkscape-stroke:none;stop-color:#000000;stop-opacity:1"
   id="path10" />
                </g>
                <path
   d="m 1725.51,96.009 c 0.22,0.766 99.71,41.992 158.67,120.099 57.69,76.407 65.36,144.531 73.96,201.067 25.53,-59.597 70.26,-67.585 106.9,-34.081 0.6,-15.403 -35.75,-140.552 -118.52,-204.993 -83.07,-64.675 -141.28,-80.008 -221.01,-82.092 z"
   style="fill:#000344;font-variation-settings:normal;opacity:1;vector-effect:none;fill-opacity:1;stroke-width:1;stroke-linecap:butt;stroke-linejoin:miter;stroke-miterlimit:2;stroke-dasharray:none;stroke-dashoffset:0;stroke-opacity:1;-inkscape-stroke:none;stop-color:#000000;stop-opacity:1"
   id="path14" />
                <g
   transform="translate(40.9277,-237.354)"
   id="g50">
                    <g
   id="g30">
                        <path
   d="m 1354.45,643.366 c 24.88,-166.751 124.31,-263.542 239.68,-295.387 173.05,-47.766 381.68,50.484 427.47,277.077 0.32,1.578 1.86,2.6 3.44,2.281 1.58,-0.319 2.6,-1.858 2.28,-3.436 -46.56,-230.388 -258.79,-330.111 -434.74,-281.545 -117.3,32.377 -218.6,130.612 -243.9,300.149 -0.24,1.592 0.86,3.077 2.46,3.315 1.59,0.237 3.07,-0.862 3.31,-2.454 z"
   style="fill:#000344;font-variation-settings:normal;opacity:1;vector-effect:none;fill-opacity:1;stroke-width:1;stroke-linecap:butt;stroke-linejoin:miter;stroke-miterlimit:2;stroke-dasharray:none;stroke-dashoffset:0;stroke-opacity:1;-inkscape-stroke:none;stop-color:#000000;stop-opacity:1"
   id="path16" />
                        <path
   d="m 1592.37,675.605 c 10.18,-22.291 33.93,-37.816 61.99,-44.055 42.54,-9.456 95.12,2.443 126.83,45.239 0.96,1.293 2.79,1.565 4.08,0.607 1.29,-0.959 1.56,-2.787 0.61,-4.08 -33.21,-44.815 -88.24,-57.362 -132.78,-47.46 -29.98,6.665 -55.16,23.513 -66.04,47.326 -0.67,1.464 -0.02,3.196 1.44,3.864 1.47,0.669 3.2,0.024 3.87,-1.441 z"
   style="fill:#000344;font-variation-settings:normal;opacity:1;vector-effect:none;fill-opacity:1;stroke-width:1;stroke-linecap:butt;stroke-linejoin:miter;stroke-miterlimit:2;stroke-dasharray:none;stroke-dashoffset:0;stroke-opacity:1;-inkscape-stroke:none;stop-color:#000000;stop-opacity:1"
   id="path18" />
                        <path
   d="m 1788.38,672.128 c 13.89,-35.625 55.49,-46.424 87.27,-40.714 20.54,3.69 37.23,14.16 38.68,30.029 0.15,1.603 1.57,2.786 3.17,2.639 1.61,-0.146 2.79,-1.567 2.64,-3.17 -1.66,-18.131 -19.99,-31.023 -43.46,-35.239 -34.21,-6.148 -78.78,5.976 -93.74,44.335 -0.58,1.5 0.16,3.192 1.66,3.777 1.5,0.585 3.19,-0.157 3.78,-1.657 z"
   style="fill:#000344;font-variation-settings:normal;opacity:1;vector-effect:none;fill-opacity:1;stroke-width:1;stroke-linecap:butt;stroke-linejoin:miter;stroke-miterlimit:2;stroke-dasharray:none;stroke-dashoffset:0;stroke-opacity:1;-inkscape-stroke:none;stop-color:#000000;stop-opacity:1"
   id="path20" />
                        <g
   transform="translate(-326.847,13.8418)"
   id="g24">
                            <path
   d="m 1786.01,654.525 c 17.82,-34.806 57.15,-41.222 87.92,-31.281 20.3,6.558 37,20.216 41.02,37.888 0.36,1.569 1.92,2.554 3.49,2.197 1.57,-0.357 2.56,-1.921 2.2,-3.491 -4.43,-19.492 -22.53,-34.912 -44.92,-42.145 -33.25,-10.745 -75.64,-3.449 -94.91,34.173 -0.73,1.433 -0.16,3.192 1.27,3.926 1.43,0.733 3.19,0.166 3.93,-1.267 z"
   style="fill:#000344;font-variation-settings:normal;opacity:1;vector-effect:none;fill-opacity:1;stroke-width:1;stroke-linecap:butt;stroke-linejoin:miter;stroke-miterlimit:2;stroke-dasharray:none;stroke-dashoffset:0;stroke-opacity:1;-inkscape-stroke:none;stop-color:#000000;stop-opacity:1"
   id="path22" />
                        </g>
                        <path
   d="m 1354.13,644.703 c 10.41,-28.373 48.73,-37.481 74.87,-17.538 11.4,8.698 20.46,22.909 24.12,43.374 0.29,1.585 1.8,2.641 3.39,2.357 1.58,-0.283 2.64,-1.8 2.36,-3.384 -3.98,-22.208 -13.96,-37.546 -26.33,-46.984 -29.33,-22.376 -72.21,-11.667 -83.89,20.166 -0.55,1.511 0.23,3.188 1.74,3.743 1.51,0.554 3.19,-0.222 3.74,-1.734 z"
   style="fill:#000344;font-variation-settings:normal;opacity:1;vector-effect:none;fill-opacity:1;stroke-width:1;stroke-linecap:butt;stroke-linejoin:miter;stroke-miterlimit:2;stroke-dasharray:none;stroke-dashoffset:0;stroke-opacity:1;-inkscape-stroke:none;stop-color:#000000;stop-opacity:1"
   id="path26" />
                        <path
   d="m 1920.86,658.898 c 2.6,-34.386 33.08,-56.513 60.62,-57.919 17.9,-0.914 34.59,7.102 41.07,26.644 0.51,1.528 2.16,2.357 3.69,1.85 1.53,-0.507 2.36,-2.159 1.85,-3.687 -7.42,-22.362 -26.42,-31.679 -46.91,-30.633 -30.07,1.535 -63.3,25.756 -66.14,63.305 -0.12,1.605 1.09,3.007 2.69,3.128 1.61,0.122 3.01,-1.083 3.13,-2.688 z"
   style="fill:#000344;font-variation-settings:normal;opacity:1;vector-effect:none;fill-opacity:1;stroke-width:1;stroke-linecap:butt;stroke-linejoin:miter;stroke-miterlimit:2;stroke-dasharray:none;stroke-dashoffset:0;stroke-opacity:1;-inkscape-stroke:none;stop-color:#000000;stop-opacity:1"
   id="path28" />
                    </g>
                    <path
   d="m 1669.96,332.927 c -0.05,-1.142 -0.31,-7.809 -0.31,-9.008 0,-3.101 -0.49,-6.783 -0.21,-10.063 0.19,-2.297 0.69,-4.427 2.78,-5.471 0.38,-0.19 0.69,-0.33 0.99,-0.273 0.48,0.094 0.72,0.609 1.03,1.156 0.45,0.822 0.81,1.841 1.11,2.975 1.79,6.698 1.49,16.943 1.49,20.05 0,1.609 1.3,2.916 2.92,2.916 1.61,0 2.91,-1.307 2.91,-2.916 0,-3.965 0.24,-18.533 -2.99,-25.194 -1.23,-2.534 -2.98,-4.121 -5.02,-4.638 -1.45,-0.367 -3.13,-0.25 -5.05,0.707 -3.31,1.656 -4.97,4.483 -5.66,7.906 -0.81,3.964 -0.14,8.854 -0.14,12.845 0,1.469 0.17,8.951 0.42,10.271 0.31,1.594 1.37,2.128 1.7,2.282 0.97,0.454 1.97,0.435 2.96,-0.283 1.05,-0.76 1.45,-2.091 1.07,-3.262 z m -1.98,-1.904 c -0.78,-0.253 -1.58,-0.177 -2.37,0.349 0.72,-0.468 1.59,-0.573 2.37,-0.349 z"
   style="fill:#000344;font-variation-settings:normal;opacity:1;vector-effect:none;fill-opacity:1;stroke-width:1;stroke-linecap:butt;stroke-linejoin:miter;stroke-miterlimit:2;stroke-dasharray:none;stroke-dashoffset:0;stroke-opacity:1;-inkscape-stroke:none;stop-color:#000000;stop-opacity:1"
   id="path32" />
                    <path
   d="m 1593.53,669.419 c 2.34,-150.967 32.95,-280.919 79.88,-333.247 0.54,-0.599 0.49,-1.522 -0.11,-2.059 -0.6,-0.537 -1.52,-0.487 -2.06,0.112 -47.21,52.636 -78.27,183.29 -80.63,335.148 -0.01,0.805 0.64,1.469 1.44,1.481 0.8,0.013 1.47,-0.631 1.48,-1.435 z"
   style="fill:#000344;font-variation-settings:normal;opacity:1;vector-effect:none;fill-opacity:1;stroke-width:1;stroke-linecap:butt;stroke-linejoin:miter;stroke-miterlimit:2;stroke-dasharray:none;stroke-dashoffset:0;stroke-opacity:1;-inkscape-stroke:none;stop-color:#000000;stop-opacity:1"
   id="path34" />
                    <path
   d="m 1457.18,666.336 c 3.59,-126.479 61.61,-285.093 214.58,-331.754 0.77,-0.235 1.21,-1.051 0.97,-1.82 -0.23,-0.77 -1.05,-1.205 -1.82,-0.97 -154.29,47.062 -213.02,206.896 -216.65,334.461 -0.02,0.804 0.61,1.476 1.42,1.499 0.8,0.023 1.47,-0.612 1.5,-1.416 z"
   style="fill:#000344;font-variation-settings:normal;opacity:1;vector-effect:none;fill-opacity:1;stroke-width:1;stroke-linecap:butt;stroke-linejoin:miter;stroke-miterlimit:2;stroke-dasharray:none;stroke-dashoffset:0;stroke-opacity:1;-inkscape-stroke:none;stop-color:#000000;stop-opacity:1"
   id="path36" />
                    <path
   d="m 1785.94,672.008 c -0.83,-56.719 -16.85,-150.924 -43.62,-227.119 -17.92,-51.039 -40.73,-93.985 -66.92,-112.419 -0.65,-0.463 -1.56,-0.305 -2.03,0.353 -0.46,0.658 -0.3,1.568 0.36,2.032 25.83,18.185 48.16,60.651 65.84,111 26.66,75.887 42.63,169.707 43.46,226.196 0.01,0.805 0.67,1.449 1.48,1.437 0.8,-0.012 1.44,-0.675 1.43,-1.48 z"
   style="fill:#000344;font-variation-settings:normal;opacity:1;vector-effect:none;fill-opacity:1;stroke-width:1;stroke-linecap:butt;stroke-linejoin:miter;stroke-miterlimit:2;stroke-dasharray:none;stroke-dashoffset:0;stroke-opacity:1;-inkscape-stroke:none;stop-color:#000000;stop-opacity:1"
   id="path38" />
                    <path
   d="m 1920.23,660.817 c -8.69,-131.698 -97.09,-289.651 -238.96,-327.097 -0.78,-0.206 -1.58,0.259 -1.78,1.038 -0.21,0.778 0.26,1.576 1.03,1.782 140.68,37.132 228.18,193.877 236.8,324.469 0.06,0.803 0.75,1.412 1.56,1.359 0.8,-0.053 1.41,-0.748 1.35,-1.551 z"
   style="fill:#000344;font-variation-settings:normal;opacity:1;vector-effect:none;fill-opacity:1;stroke-width:1;stroke-linecap:butt;stroke-linejoin:miter;stroke-miterlimit:2;stroke-dasharray:none;stroke-dashoffset:0;stroke-opacity:1;-inkscape-stroke:none;stop-color:#000000;stop-opacity:1"
   id="path40" />
                    <path
   d="m 1647.79,779.874 c -5.13,-2.334 -9.33,0.135 -11.8,2.601 -0.63,0.633 -1.35,2.046 -1.81,3.904 -0.71,2.868 -1.14,7.057 -1.34,8.446 -1.62,11.339 -0.97,18.753 1.61,24.048 2.06,4.234 5.32,7.236 9.87,9.719 4.09,2.234 9.29,4.059 15.61,6.163 1.26,0.421 5.31,1.444 8.26,1.706 1.85,0.166 3.39,-0.067 4.2,-0.469 19.36,-9.68 26.22,-28.649 27.78,-50.272 1.71,-23.586 -2.61,-137.985 -2.61,-158.028 0,-1.609 -1.31,-2.916 -2.92,-2.916 -1.61,0 -2.91,1.307 -2.91,2.916 0,19.989 4.33,134.083 2.63,157.607 -1.41,19.381 -7.11,36.626 -24.37,45.371 -0.3,-0.003 -1.5,-0.025 -2.35,-0.144 -2.3,-0.328 -4.95,-1 -5.87,-1.305 -5.92,-1.974 -10.81,-3.653 -14.65,-5.749 -3.39,-1.847 -5.89,-4.001 -7.43,-7.15 -2.21,-4.548 -2.47,-10.933 -1.07,-20.672 0.16,-1.123 0.47,-4.19 0.97,-6.747 0.19,-0.913 0.59,-2.166 0.68,-2.455 1.16,-1.11 3.02,-2.312 5.32,-1.162 0.59,0.296 1.58,0.5 2.8,0.413 0.59,-0.042 1.55,-0.144 2.37,-0.237 0.03,3.91 0.3,13.858 2.05,19.769 1.28,4.328 3.58,7.516 6.85,8.615 2.23,0.749 5.04,0.634 8.54,-1.114 5.87,-2.934 8.55,-7.83 9.7,-13.488 1,-4.972 0.75,-10.565 0.75,-15.637 0,-22.97 -2.05,-133.847 -1.09,-156.974 0.07,-1.608 -1.18,-2.968 -2.79,-3.035 -1.61,-0.068 -2.97,1.184 -3.04,2.792 -0.96,23.163 1.09,134.211 1.09,157.217 0,4.696 0.29,9.877 -0.64,14.481 -0.79,3.917 -2.53,7.396 -6.59,9.427 -1.68,0.843 -3,1.162 -4.07,0.801 -1.69,-0.566 -2.46,-2.509 -3.12,-4.739 -1.88,-6.341 -1.48,-15.422 -1.73,-19.259 -0.08,-1.247 -0.28,-2.141 -0.47,-2.603 -0.21,-0.497 -0.48,-0.849 -0.73,-1.1 -0.68,-0.682 -2.04,-1.243 -3.81,-1.155 -1.11,0.056 -3.31,0.34 -3.87,0.414 z"
   style="fill:#000344;font-variation-settings:normal;opacity:1;vector-effect:none;fill-opacity:1;stroke-width:1;stroke-linecap:butt;stroke-linejoin:miter;stroke-miterlimit:2;stroke-dasharray:none;stroke-dashoffset:0;stroke-opacity:1;-inkscape-stroke:none;stop-color:#000000;stop-opacity:1"
   id="path42" />
                    <path
   d="m 1640.28,790.249 c 1.13,-1.429 2.76,-1.449 4.48,-1.345 2.36,0.144 4.9,0.591 7.17,0.024 0.78,-0.195 1.26,-0.987 1.06,-1.768 -0.19,-0.781 -0.99,-1.256 -1.77,-1.061 -1.98,0.497 -4.21,0.02 -6.28,-0.106 -2.71,-0.165 -5.17,0.197 -6.95,2.446 -0.5,0.631 -0.39,1.549 0.24,2.048 0.63,0.5 1.55,0.393 2.05,-0.238 z"
   style="fill:#000344;font-variation-settings:normal;opacity:1;vector-effect:none;fill-opacity:1;stroke-width:1;stroke-linecap:butt;stroke-linejoin:miter;stroke-miterlimit:2;stroke-dasharray:none;stroke-dashoffset:0;stroke-opacity:1;-inkscape-stroke:none;stop-color:#000000;stop-opacity:1"
   id="path44" />
                    <path
   d="m 1680.54,761.683 c 5.65,0.003 11.04,1.396 16.88,1.396 0.8,0 1.46,-0.654 1.46,-1.458 0,-0.805 -0.66,-1.459 -1.46,-1.459 -5.84,0 -11.23,-1.392 -16.88,-1.396 -0.8,0 -1.45,0.653 -1.45,1.458 0,0.805 0.65,1.459 1.45,1.459 z"
   style="fill:#000344;font-variation-settings:normal;opacity:1;vector-effect:none;fill-opacity:1;stroke-width:1;stroke-linecap:butt;stroke-linejoin:miter;stroke-miterlimit:2;stroke-dasharray:none;stroke-dashoffset:0;stroke-opacity:1;-inkscape-stroke:none;stop-color:#000000;stop-opacity:1"
   id="path46" />
                    <path
   d="m 1679.52,770.483 c 0.12,-0.057 0.4,-0.185 0.63,-0.252 0.5,-0.147 1.12,-0.263 1.82,-0.36 4.45,-0.616 11.78,-0.362 13.57,-0.362 0.81,0 1.46,-0.654 1.46,-1.458 0,-0.805 -0.65,-1.459 -1.46,-1.459 -2.13,0 -11.76,-0.304 -15.87,0.747 -0.81,0.207 -1.45,0.478 -1.87,0.774 -0.54,0.373 -0.84,0.824 -0.97,1.281 -0.23,0.773 0.22,1.583 0.99,1.808 0.68,0.196 1.38,-0.119 1.7,-0.719 z"
   style="fill:#000344;font-variation-settings:normal;opacity:1;vector-effect:none;fill-opacity:1;stroke-width:1;stroke-linecap:butt;stroke-linejoin:miter;stroke-miterlimit:2;stroke-dasharray:none;stroke-dashoffset:0;stroke-opacity:1;-inkscape-stroke:none;stop-color:#000000;stop-opacity:1"
   id="path48" />
                </g>
            </g>
            <g
   transform="matrix(1.29542,0.0182165,-0.0589955,2.20156,-694.799,158.627)"
   id="g56">
                <path
   d="m 1857.7,354.492 c -0.91,-1.824 -6.35,-9.328 -17.98,-6.446 -10.32,2.558 -13.29,18.906 -1.08,25.013 10.86,5.427 25.16,-6.367 19.06,-18.567 z"
   style="fill:#000344;font-variation-settings:normal;opacity:1;vector-effect:none;fill-opacity:1;stroke-width:0.59203533;stroke-linecap:butt;stroke-linejoin:miter;stroke-miterlimit:2;stroke-dasharray:none;stroke-dashoffset:0;stroke-opacity:1;-inkscape-stroke:none;stop-color:#000000;stop-opacity:1"
   id="path54" />
            </g>
            <g
   transform="matrix(1.37711,0.0693658,-0.191319,1.99319,-803.434,142.284)"
   id="g60">
                <path
   d="m 1886.04,339.835 c -5.19,0.503 -7.63,1.075 -10.75,7.328 -5.21,10.409 4.97,22.067 15.14,20.033 16.29,-3.258 10.25,-27.361 -4.39,-27.361 z"
   style="fill:#000344;font-variation-settings:normal;opacity:1;vector-effect:none;fill-opacity:1;stroke-width:0.60213515;stroke-linecap:butt;stroke-linejoin:miter;stroke-miterlimit:2;stroke-dasharray:none;stroke-dashoffset:0;stroke-opacity:1;-inkscape-stroke:none;stop-color:#000000;stop-opacity:1"
   id="path58" />
            </g>
            <g
   transform="matrix(1.38021,-0.0180367,0.0490205,1.96849,-887.321,345.251)"
   id="g64">
                <path
   d="m 1922.7,329.419 c -16.72,-5.751 -25.15,21.53 -6.86,27.516 7.5,2.455 21.91,-6.986 17.1,-16.612 -1.53,-3.068 -2.89,-8.378 -10.24,-10.904 z"
   style="fill:#000344;font-variation-settings:normal;opacity:1;vector-effect:none;fill-opacity:1;stroke-width:0.60658289;stroke-linecap:butt;stroke-linejoin:miter;stroke-miterlimit:2;stroke-dasharray:none;stroke-dashoffset:0;stroke-opacity:1;-inkscape-stroke:none;stop-color:#000000;stop-opacity:1"
   id="path62" />
            </g>
            <g
   transform="matrix(1.59975,0.392188,-0.506296,1.25544,-1093.32,-159.584)"
   id="g68">
                <path
   d="m 1824.03,286.036 c 9.35,5.485 12.72,1.055 15.8,-0.972 7.78,-5.112 -1.07,-27.414 -9.77,-33.078 -16.83,-10.955 -13.75,29.52 -6.03,34.05 z"
   style="fill:#000344;font-variation-settings:normal;opacity:1;vector-effect:none;fill-opacity:1;stroke-width:0.67313694;stroke-linecap:butt;stroke-linejoin:miter;stroke-miterlimit:2;stroke-dasharray:none;stroke-dashoffset:0;stroke-opacity:1;-inkscape-stroke:none;stop-color:#000000;stop-opacity:1"
   id="path66" />
            </g>
            <g
   transform="matrix(1.43818,0.116981,-0.210334,1.57195,-887.362,275.742)"
   id="g72">
                <path
   d="m 1885.16,254.769 c -0.78,-3.131 -7.94,-16.445 -12.8,-17.255 -24.66,-4.111 -10.11,43.766 8.91,29.501 3.96,-2.972 5.11,-7.393 3.89,-12.246 z"
   style="fill:#000344;font-variation-settings:normal;opacity:1;vector-effect:none;fill-opacity:1;stroke-width:0.66149023;stroke-linecap:butt;stroke-linejoin:miter;stroke-miterlimit:2;stroke-dasharray:none;stroke-dashoffset:0;stroke-opacity:1;-inkscape-stroke:none;stop-color:#000000;stop-opacity:1"
   id="path70" />
            </g>
            <g
   transform="matrix(1.29372,0.587305,-0.890435,1.19237,-455.391,-468.368)"
   id="g76">
                <path
   d="m 1811.86,171.354 c -7.53,-10.195 -24.85,-7.877 -19.65,7.713 3.92,11.783 14.99,28.315 30.2,15.662 7.09,-5.903 -3.21,-18.006 -10.55,-23.375 z"
   style="fill:#000344;font-variation-settings:normal;opacity:1;vector-effect:none;fill-opacity:1;stroke-width:0.69579637;stroke-linecap:butt;stroke-linejoin:miter;stroke-miterlimit:2;stroke-dasharray:none;stroke-dashoffset:0;stroke-opacity:1;-inkscape-stroke:none;stop-color:#000000;stop-opacity:1"
   id="path74" />
            </g>
            <path
   d="m 1664.22,750.57 c -40.86,23.033 -67.29,31.716 -103.16,67.596 -25.2,25.194 -45.52,60.713 -60.64,92.454 -4.56,9.575 -7.8,20.229 -12.92,29.452 -9.97,17.948 -13.36,38.712 -20.92,57.595 -2.6,6.523 -7.49,18.113 -7.49,24.033 0,2.3 1.87,4.17 4.17,4.17 2.3,0 4.16,-1.87 4.16,-4.17 0,-5.19 4.62,-15.23 6.9,-20.94 7.43,-18.558 10.66,-39 20.46,-56.641 5.21,-9.372 8.53,-20.186 13.17,-29.916 14.72,-30.93 34.45,-65.594 59,-90.145 35.22,-35.223 61.24,-43.617 101.36,-66.229 2,-1.129 2.71,-3.672 1.58,-5.676 -1.12,-2.003 -3.67,-2.712 -5.67,-1.583 z"
   style="fill:#000344;font-variation-settings:normal;opacity:1;vector-effect:none;fill-opacity:1;stroke-width:1;stroke-linecap:butt;stroke-linejoin:miter;stroke-miterlimit:2;stroke-dasharray:none;stroke-dashoffset:0;stroke-opacity:1;-inkscape-stroke:none;stop-color:#000000;stop-opacity:1"
   id="path78" />
            <path
   d="m 1592.99,767.904 c -2.84,0.486 -7.95,3.272 -13.85,7.372 -12.21,8.48 -28.67,22.433 -34.65,26.704 -49.12,35.088 -91.48,104.157 -110.37,160.836 -5.64,16.926 -14.61,38.684 -14.61,56.634 0,2.3 1.87,4.17 4.17,4.17 2.3,0 4.17,-1.87 4.17,-4.17 0,-17.14 8.79,-37.842 14.17,-53.999 18.4,-55.182 59.49,-122.528 107.31,-156.69 5.97,-4.26 22.38,-18.182 34.56,-26.642 4.55,-3.161 8.32,-5.627 10.51,-6.001 2.26,-0.39 3.79,-2.545 3.4,-4.812 -0.39,-2.266 -2.55,-3.791 -4.81,-3.402 z"
   style="fill:#000344;font-variation-settings:normal;opacity:1;vector-effect:none;fill-opacity:1;stroke-width:1;stroke-linecap:butt;stroke-linejoin:miter;stroke-miterlimit:2;stroke-dasharray:none;stroke-dashoffset:0;stroke-opacity:1;-inkscape-stroke:none;stop-color:#000000;stop-opacity:1"
   id="path80" />
            <path
   d="m 1409.32,1004.19 c 1.18,-0.72 2.94,-1.78 3.74,-2.21 6.53,-3.512 15.24,-6.433 22.55,-7.651 22.72,-3.787 45.27,3.667 58.88,17.281 1.63,1.62 4.27,1.62 5.89,0 1.63,-1.63 1.63,-4.27 0,-5.9 -15.3,-15.297 -40.6,-23.859 -66.14,-19.601 -8.15,1.357 -17.86,4.619 -25.13,8.537 -1.68,0.903 -5.1,2.744 -6.62,4.143 -1.05,0.955 -1.59,1.961 -1.82,2.731 -0.35,1.2 -0.22,2.3 0.25,3.3 0.44,0.92 1.26,1.99 3.07,2.56 2.19,0.68 4.53,-0.54 5.22,-2.74 0.04,-0.15 0.08,-0.3 0.11,-0.45 z m -2.25,-4.531 0.08,0.045 -0.06,-0.035 z m -0.19,-0.088 0.17,0.081 -0.11,-0.051 z m -0.19,-0.074 0.18,0.071 -0.07,-0.031 z m -0.02,-0.009 c -0.07,-0.023 -0.13,-0.045 -0.2,-0.066 z"
   style="fill:#000344;font-variation-settings:normal;opacity:1;vector-effect:none;fill-opacity:1;stroke-width:1;stroke-linecap:butt;stroke-linejoin:miter;stroke-miterlimit:2;stroke-dasharray:none;stroke-dashoffset:0;stroke-opacity:1;-inkscape-stroke:none;stop-color:#000000;stop-opacity:1"
   id="path82" />
            <path
   d="m 1420.56,960.151 c 2.16,-0.211 18.1,-1.746 25.16,-1.746 7,0 26.2,-0.188 40.43,4.124 4.27,1.295 8.08,2.972 10.79,5.309 2.15,1.859 3.53,4.158 3.53,7.089 0,2.3 1.86,4.167 4.16,4.167 2.3,0 4.17,-1.867 4.17,-4.167 0,-7.93 -4.97,-13.679 -12.79,-17.504 -15.1,-7.388 -41.56,-7.351 -50.29,-7.351 -8.19,0 -24.44,1.261 -27.45,2.026 -4,1.015 -3.69,4.595 -3.44,5.452 0.66,2.205 2.98,3.463 5.19,2.808 0.18,-0.057 0.37,-0.126 0.54,-0.207 z m 2.04,-2.022 c 0.5,-0.998 0.51,-1.997 0.22,-2.952 0.3,1.018 0.2,2.06 -0.22,2.952 z"
   style="fill:#000344;font-variation-settings:normal;opacity:1;vector-effect:none;fill-opacity:1;stroke-width:1;stroke-linecap:butt;stroke-linejoin:miter;stroke-miterlimit:2;stroke-dasharray:none;stroke-dashoffset:0;stroke-opacity:1;-inkscape-stroke:none;stop-color:#000000;stop-opacity:1"
   id="path84" />
            <path
   d="m 1439.29,921.277 c 2.29,-0.661 18.09,-5.21 20.08,-5.735 8.48,-2.231 18.47,-4.069 28.16,-3.827 9.12,0.229 17.98,2.282 24.78,7.946 1.45,1.21 4.29,2.923 6.77,4.897 0.95,0.754 1.85,1.542 2.49,2.375 0.21,0.275 0.49,0.485 0.49,0.77 0,2.3 1.86,4.167 4.16,4.167 2.3,0 4.17,-1.867 4.17,-4.167 0,-2.253 -1.04,-4.588 -2.94,-6.722 -2.78,-3.127 -7.69,-5.959 -9.81,-7.722 -16.02,-13.352 -41.56,-10.73 -60.39,-5.776 -2.4,0.631 -19.31,4.749 -22.6,6.774 -2.26,1.389 -2.57,3.306 -2.51,4.352 0.14,2.296 2.11,4.054 4.4,3.922 1.08,-0.062 2.05,-0.532 2.75,-1.254 z"
   style="fill:#000344;font-variation-settings:normal;opacity:1;vector-effect:none;fill-opacity:1;stroke-width:1;stroke-linecap:butt;stroke-linejoin:miter;stroke-miterlimit:2;stroke-dasharray:none;stroke-dashoffset:0;stroke-opacity:1;-inkscape-stroke:none;stop-color:#000000;stop-opacity:1"
   id="path86" />
            <path
   d="m 1462.46,872.926 c -0.16,-0.057 -0.33,-0.104 -0.5,-0.14 -2.25,-0.47 -4.46,0.975 -4.93,3.226 -0.26,1.212 -0.01,2.233 0.49,3.104 0.4,0.696 1.02,1.348 1.96,1.795 0.64,0.299 1.87,0.597 3.47,0.424 2.48,-0.267 7.17,-1.651 7.61,-1.761 3.83,-0.955 7.64,-1.674 11.59,-1.674 15.75,0 28.59,0.666 43.77,5.221 1.69,0.505 4.82,1.966 7.05,3.877 0.48,0.412 0.92,0.842 1.26,1.298 0.19,0.248 0.42,0.459 0.42,0.729 0,2.299 1.87,4.166 4.17,4.166 2.3,0 4.16,-1.867 4.16,-4.166 0,-2.343 -1.06,-4.712 -2.97,-6.803 -3.17,-3.462 -8.85,-6.229 -11.69,-7.083 -16.02,-4.805 -29.55,-5.572 -46.17,-5.572 -4.64,0 -9.12,0.801 -13.61,1.923 -0.32,0.079 -4.5,1.065 -6.08,1.436 z m 2.74,3.186 c 0.09,0.448 0.1,0.917 0.02,1.389 0.08,-0.499 0.07,-0.961 -0.02,-1.389 z"
   style="fill:#000344;font-variation-settings:normal;opacity:1;vector-effect:none;fill-opacity:1;stroke-width:1;stroke-linecap:butt;stroke-linejoin:miter;stroke-miterlimit:2;stroke-dasharray:none;stroke-dashoffset:0;stroke-opacity:1;-inkscape-stroke:none;stop-color:#000000;stop-opacity:1"
   id="path88" />
            <path
   d="m 1501.22,841.296 c 1.91,-0.087 6.03,-0.276 6.11,-0.276 4.48,0 9.14,-0.386 13.6,-0.014 7.38,0.615 19.02,5.165 24.83,9.525 1.37,1.029 2.09,3.197 2.99,4.878 1.28,2.353 2.8,4.162 4.39,4.96 2.06,1.029 4.56,0.194 5.59,-1.863 0.99,-1.978 0.26,-4.371 -1.63,-5.465 -0.16,-0.248 -1.08,-1.701 -1.58,-2.669 -1.3,-2.495 -2.82,-5.053 -4.76,-6.508 -6.82,-5.115 -20.48,-10.441 -29.14,-11.163 -4.69,-0.39 -9.58,-0.014 -14.29,-0.014 -0.15,0 -7.8,0.083 -9.81,0.785 -2.63,0.914 -3.18,2.934 -3.21,4.17 -0.02,1.036 0.21,2.54 2,3.777 1.53,1.054 3.51,0.949 4.91,-0.123 z m 0.18,-6.461 c 0.23,0.199 0.44,0.418 0.61,0.654 -0.16,-0.224 -0.36,-0.444 -0.61,-0.654 z m -0.14,-0.113 0.12,0.094 -0.06,-0.054 z"
   style="fill:#000344;font-variation-settings:normal;opacity:1;vector-effect:none;fill-opacity:1;stroke-width:1;stroke-linecap:butt;stroke-linejoin:miter;stroke-miterlimit:2;stroke-dasharray:none;stroke-dashoffset:0;stroke-opacity:1;-inkscape-stroke:none;stop-color:#000000;stop-opacity:1"
   id="path90" />
            <path
   d="m 1530.76,801.165 c -0.41,-0.052 -0.83,-0.045 -1.25,0.03 -0.3,0.053 -5.04,7.824 0.57,8.274 1.18,0.095 7.42,0.518 8.74,0.518 4.77,0 9.39,-0.667 14.15,-0.904 11.3,-0.566 14.78,1.94 18.61,5.624 3.23,3.103 6.71,6.739 13.5,10.132 2.05,1.028 4.56,0.193 5.58,-1.863 1.03,-2.057 0.2,-4.562 -1.86,-5.591 -5.78,-2.889 -8.7,-6.043 -11.44,-8.686 -5.14,-4.934 -9.67,-8.696 -24.81,-7.939 -4.62,0.23 -9.1,0.894 -13.73,0.894 -1.22,0 -8.07,-0.491 -8.07,-0.491 z m 3.09,6.187 c -0.59,1.043 -1.62,1.825 -2.9,2.05 1.96,-0.345 2.63,-1.573 2.9,-2.033 z m 0.4,-3.152 c 0.3,1.072 0.18,2.116 -0.38,3.127 0.45,-0.808 0.64,-1.771 0.46,-2.753 -0.02,-0.127 -0.05,-0.252 -0.08,-0.374 z m -0.06,-0.192 0.01,0.031 -0.01,-0.017 z m -2.69,-2.678 c 1.22,0.393 2.23,1.346 2.67,2.608 -0.18,-0.553 -0.68,-1.991 -2.67,-2.608 z"
   style="fill:#000344;font-variation-settings:normal;opacity:1;vector-effect:none;fill-opacity:1;stroke-width:1;stroke-linecap:butt;stroke-linejoin:miter;stroke-miterlimit:2;stroke-dasharray:none;stroke-dashoffset:0;stroke-opacity:1;-inkscape-stroke:none;stop-color:#000000;stop-opacity:1"
   id="path92" />
            <path
   d="m 1577.03,785.113 1.3,-0.391 c 3.55,-0.564 7.51,-0.198 11.06,-0.376 2.64,-0.132 5.7,-0.524 8.68,-0.41 2.19,0.084 4.36,0.398 6.05,1.751 1.47,1.175 2.06,3.166 3.06,4.708 1.34,2.089 3.02,3.735 5.43,4.537 2.18,0.727 4.54,-0.454 5.27,-2.636 0.72,-2.181 -0.46,-4.543 -2.64,-5.27 -0.42,-0.141 -0.64,-0.524 -0.88,-0.88 -0.44,-0.633 -0.82,-1.343 -1.21,-2.048 -1.03,-1.838 -2.19,-3.616 -3.82,-4.918 -2.53,-2.023 -5.56,-3.033 -8.78,-3.408 -3.88,-0.452 -8.06,0.076 -11.57,0.251 -3.92,0.196 -8.28,-0.147 -12.17,0.502 -0.14,0.022 -2.65,0.656 -3.91,1.169 -0.91,0.373 -1.53,0.845 -1.83,1.134 -0.79,0.771 -1.1,1.598 -1.23,2.265 -0.21,1.063 -0.03,2.065 0.54,3.003 0.34,0.548 1.16,1.858 3.49,2.069 1.2,0.109 2.33,-0.304 3.16,-1.052 z m -2.21,-7.224 c -0.06,-0.009 -0.13,-0.017 -0.2,-0.023 z"
   style="fill:#000344;font-variation-settings:normal;opacity:1;vector-effect:none;fill-opacity:1;stroke-width:1;stroke-linecap:butt;stroke-linejoin:miter;stroke-miterlimit:2;stroke-dasharray:none;stroke-dashoffset:0;stroke-opacity:1;-inkscape-stroke:none;stop-color:#000000;stop-opacity:1"
   id="path94" />
            <path
   d="m 1618.36,767.403 c 1.6,0.273 5.86,0.998 6.35,1.108 2.59,0.575 5.71,1.026 8.5,1.972 1.84,0.626 3.6,1.377 4.42,3.02 1.03,2.057 3.53,2.892 5.59,1.863 2.06,-1.028 2.89,-3.533 1.87,-5.59 -1.48,-2.956 -4.03,-5.002 -7.14,-6.384 -3.55,-1.575 -7.92,-2.236 -11.43,-3.016 -0.7,-0.156 -5.65,-1.279 -8.19,-1.397 -1.65,-0.077 -2.87,0.313 -3.47,0.652 -0.96,0.534 -1.53,1.265 -1.88,2.026 -0.41,0.911 -0.57,1.958 -0.18,3.164 0.7,2.191 3.05,3.4 5.24,2.699 0.11,-0.035 0.21,-0.073 0.32,-0.117 z m 2.44,-4.907 c 0.12,0.474 0.16,0.954 0.12,1.42 0.05,-0.443 0.01,-0.916 -0.12,-1.42 z"
   style="fill:#000344;font-variation-settings:normal;opacity:1;vector-effect:none;fill-opacity:1;stroke-width:1;stroke-linecap:butt;stroke-linejoin:miter;stroke-miterlimit:2;stroke-dasharray:none;stroke-dashoffset:0;stroke-opacity:1;-inkscape-stroke:none;stop-color:#000000;stop-opacity:1"
   id="path96" />
            <path
   d="m 1512.16,1003.76 c -0.19,0.37 -0.45,0.91 -0.51,1.27 -0.06,0.35 -0.05,0.89 -0.03,1.31 -0.18,0.24 -0.32,0.49 -0.37,0.71 -0.17,0.67 -0.09,1.37 -0.09,2.06 0,7.17 -2.7,14.12 -2.7,21.14 v 3.14 c 0,1.62 1.31,2.92 2.92,2.92 2.35,0 5.06,-1.24 7.81,-3.01 3,-1.93 6.11,-4.57 8.95,-5.14 7.96,-1.59 15.69,-2.13 23.47,-4.06 0.05,0 0.27,0.04 0.39,0.06 0.22,0.06 0.43,0.12 0.65,0.17 0.53,0.14 1.04,0.24 1.53,0.26 1.23,0.05 2.35,-0.28 3.34,-1.28 1.21,-1.21 2.14,-3.57 2.58,-6.53 0.76,-5.1 0.4,-12.34 0.92,-15.25 0.34,-1.845 1.91,-7.277 2.41,-11.211 0.31,-2.403 0.11,-4.402 -0.42,-5.452 -0.33,-0.666 -0.95,-1.37 -2.07,-1.818 -0.86,-0.346 -2.37,-0.586 -4.34,-0.604 -6.94,-0.06 -21.09,2.154 -26.8,3.368 -1.35,0.288 -2.29,0.55 -2.7,0.711 -0.61,0.244 -0.96,0.552 -1.14,0.733 -0.98,0.976 -1.9,3.305 -2.37,6.35 -0.81,5.246 -0.84,13.003 -1.16,15.593 -0.3,2.4 0.31,3.75 0.89,4.46 0.84,1.02 1.98,1.49 3.43,1.3 0.92,-0.12 2.19,-0.71 3.48,-1.67 1.72,-1.29 3.67,-3.41 4.49,-3.82 1.03,-0.51 2.39,-1.32 3.59,-1.78 0.6,0.34 1.53,0.85 1.93,0.91 0.74,0.11 1.4,-0.01 1.99,-0.32 0.54,-0.27 1.06,-0.71 1.44,-1.46 0.28,-0.56 0.48,-1.37 0.5,-2.3 0.02,-1.02 -0.19,-2.32 -0.19,-3.06 0,-1.607 -1.31,-2.914 -2.92,-2.914 -1.61,0 -2.91,1.307 -2.91,2.914 v 0.24 c -0.17,0.01 -0.33,0.04 -0.49,0.08 -1.71,0.43 -3.97,1.68 -5.55,2.47 -0.56,0.28 -1.56,1.08 -2.68,2.08 -0.32,0.29 -0.67,0.6 -1.02,0.91 0.18,-3.48 0.34,-8.821 0.94,-12.745 0.15,-0.981 0.48,-2.133 0.68,-2.756 3.73,-0.905 15.35,-2.838 23.1,-3.343 1.65,-0.107 3.45,-0.054 4.56,0.001 -0.05,0.793 -0.13,1.886 -0.29,2.78 -0.64,3.597 -1.83,7.752 -2.11,9.313 -0.47,2.56 -0.29,8.38 -0.71,13.29 -0.13,1.43 -0.3,2.77 -0.59,3.89 -0.09,0.33 -0.16,0.65 -0.25,0.91 -0.28,-0.07 -0.59,-0.14 -0.82,-0.18 -0.87,-0.17 -1.77,-0.2 -2.67,0.02 -7.7,1.93 -15.37,2.44 -23.25,4.02 -2.93,0.59 -6.2,2.76 -9.35,4.88 -1.13,0.77 -2.25,1.52 -3.34,2.11 0.19,-6.74 2.69,-13.43 2.69,-20.32 0,-0.11 -0.01,-0.25 -0.02,-0.4 0.2,-0.28 0.36,-0.57 0.41,-0.83 0.09,-0.46 0.07,-1.26 0.05,-1.7 0.17,-0.35 0.36,-0.78 0.42,-1.09 2.31,-13.911 4.5,-27.802 8.88,-40.934 0.22,-0.656 1.23,-3.787 2.44,-6.508 0.48,-1.085 1.29,-2.431 1.57,-2.891 1.06,-0.383 1.84,-1.367 1.92,-2.563 0.1,-1.607 -1.13,-2.992 -2.73,-3.091 -1.11,-0.068 -2.62,0.477 -3.88,2.152 -2.09,2.771 -4.49,9.96 -4.85,11.056 -4.44,13.302 -6.7,27.359 -9.05,41.449 z"
   style="fill:#000344;font-variation-settings:normal;opacity:1;vector-effect:none;fill-opacity:1;stroke-width:1;stroke-linecap:butt;stroke-linejoin:miter;stroke-miterlimit:2;stroke-dasharray:none;stroke-dashoffset:0;stroke-opacity:1;-inkscape-stroke:none;stop-color:#000000;stop-opacity:1"
   id="path98" />
            <path
   d="m 1584.93,1026.28 c -2.24,-0.56 -6.42,-1.66 -9.15,-2.73 -1.49,-0.58 -3.14,-1.36 -4.09,-1.83 0.06,-0.67 0.17,-1.65 0.32,-2.43 0.44,-2.28 1.08,-4.75 1.35,-5.28 1.52,-3.04 2.09,-7.31 2.18,-11.91 0.12,-6.092 -0.55,-12.819 -0.09,-17.438 0.09,-0.946 0.86,-4.534 0.91,-7.017 0.04,-2.059 -0.6,-3.625 -1.3,-4.33 -2.72,-2.72 -6.7,-4.127 -11.11,-4.606 -5.83,-0.632 -12.43,0.319 -17.07,1.093 -1.36,0.227 -10.04,1.141 -11.55,1.559 -1.57,0.435 -2.04,1.531 -2.17,1.87 -0.39,1.021 -0.29,2.021 0.52,2.961 0.86,0.995 2.24,1.271 3.39,0.768 1.33,-0.167 9.58,-1.206 10.77,-1.404 4.21,-0.702 10.19,-1.621 15.48,-1.048 2.77,0.3 5.34,0.973 7.18,2.529 0,0.445 -0.01,1.345 -0.08,2.003 -0.24,2.094 -0.7,4.332 -0.78,5.042 -0.47,4.742 0.19,11.648 0.07,17.898 -0.07,3.63 -0.37,7.02 -1.57,9.42 -0.51,1.02 -2.26,7.49 -2.36,10.62 -0.05,1.81 0.59,3.02 1.11,3.54 0.48,0.49 1.95,1.38 4.02,2.29 3.9,1.72 10.19,3.89 13.68,4.47 1.29,0.21 2.32,0.2 2.98,0.07 0.86,-0.18 1.47,-0.57 1.88,-0.98 0.57,-0.57 1.19,-1.78 1.33,-3.54 0.27,-3.45 -0.83,-10.38 -0.94,-11.44 -0.64,-5.72 0,-11.5 0.58,-17.251 0.62,-6.191 1.17,-12.349 0.31,-18.368 -0.25,-1.691 -1,-5.549 -0.72,-8.64 0.06,-0.612 0.15,-1.186 0.34,-1.675 0.04,-0.107 0.05,-0.227 0.08,-0.317 3.74,0.21 17.47,2.337 26.45,4.121 3.06,0.606 6.12,1.428 6.95,1.655 0.45,0.593 0.67,1.334 0.82,2.135 0.24,1.351 0.23,2.86 0.14,4.396 -0.22,3.818 -0.79,7.771 -0.23,10.554 0.2,1.039 1.84,8.58 2.52,11.71 l -0.08,-0.02 c -0.78,-0.16 -1.62,-0.49 -2.45,-0.86 -1.8,-0.79 -3.57,-1.8 -4.89,-2.37 -0.9,-0.4 -1.68,-0.62 -2.27,-0.69 -1.23,-0.13 -2.87,0.07 -4.72,0.52 -2.17,0.53 -4.74,1.39 -7.23,1.98 -1.42,0.33 -2.81,0.58 -4.06,0.57 -0.99,-0.01 -1.9,-0.13 -2.36,-0.97 -0.03,-0.14 -0.26,-1.22 -0.35,-2.1 -0.32,-3.17 -0.33,-8.064 0.2,-11.57 0.09,-0.557 0.25,-1.207 0.4,-1.726 0.6,0.148 1.31,0.333 1.85,0.502 1.67,0.523 3.17,1.011 3.4,1.043 0.48,0.069 5.14,-0.271 7.34,-0.011 0.46,0.309 1.02,0.49 1.61,0.49 1.61,0 2.92,-1.307 2.92,-2.917 0,-1.007 -0.4,-2.181 -1.9,-2.884 -0.59,-0.275 -1.86,-0.524 -3.41,-0.571 -1.86,-0.055 -4.91,0.058 -5.72,0.09 -0.89,-0.298 -4.46,-1.472 -6.09,-1.749 -1.35,-0.226 -2.36,0.015 -2.84,0.256 -0.67,0.334 -1.34,0.916 -1.88,1.827 -0.61,1.024 -1.13,2.713 -1.44,4.771 -0.6,3.952 -0.6,9.469 -0.24,13.039 0.2,1.93 0.56,3.39 0.9,4.07 1.86,3.7 5.7,4.71 10.3,4.04 2.99,-0.43 6.31,-1.54 9.15,-2.3 1.4,-0.37 2.63,-0.7 3.53,-0.6 0.37,0.04 0.89,0.37 1.54,0.69 1.66,0.82 3.7,1.93 5.65,2.61 3.25,1.14 6.28,0.97 8.24,-0.99 0.36,-0.36 0.74,-0.91 0.92,-1.73 0.1,-0.51 0.14,-1.32 0.03,-2.35 -0.38,-3.66 -2.6,-11.685 -2.85,-12.944 -0.6,-2.961 0.41,-7.412 0.4,-11.363 -0.02,-3.602 -0.82,-6.834 -3,-9.017 -0.26,-0.258 -0.77,-0.65 -1.62,-0.976 -1.3,-0.5 -4.28,-1.216 -8.04,-1.962 -8.33,-1.654 -20.63,-3.58 -25.77,-4.1 -1.94,-0.196 -3.21,-0.073 -3.53,0.037 -2.15,0.714 -3.58,2.538 -4.2,5.126 -0.91,3.809 0.1,9.655 0.43,11.995 0.8,5.559 0.23,11.244 -0.34,16.962 -0.61,6.162 -1.25,12.352 -0.57,18.482 0.07,0.67 0.58,3.86 0.83,6.85 0.06,0.73 0.07,1.6 0.06,2.35 z m 25.66,-39.239 v 0.004 -0.017 z m -0.02,-0.209 v 0.029 l -0.01,-0.052 z m -72.36,-14.318 c 0.52,0.682 0.7,1.531 0.55,2.325 0.18,-0.799 0.03,-1.581 -0.55,-2.325 z"
   style="fill:#000344;font-variation-settings:normal;opacity:1;vector-effect:none;fill-opacity:1;stroke-width:1;stroke-linecap:butt;stroke-linejoin:miter;stroke-miterlimit:2;stroke-dasharray:none;stroke-dashoffset:0;stroke-opacity:1;-inkscape-stroke:none;stop-color:#000000;stop-opacity:1"
   id="path100" />
            <path
   d="m 1621.59,1043.02 c -2.48,-2.75 -5.39,-7.2 -5.69,-7.64 -1.55,-2.33 -4.96,-3.88 -8.39,-5.2 -1.28,-0.49 -2.54,-0.97 -3.59,-1.54 -0.57,-0.32 -1.1,-0.59 -1.33,-1.05 -0.05,-0.11 0,-0.24 0.01,-0.39 0.02,-0.34 0.08,-0.7 0.15,-1.07 0.26,-1.34 0.65,-2.78 0.78,-4.08 0.31,-2.99 -0.49,-5.45 -3.59,-6.75 -1.48,-0.62 -3.19,0.08 -3.81,1.57 -0.62,1.49 0.08,3.2 1.56,3.82 0.13,0.05 0.07,0.19 0.07,0.3 0,0.21 -0.02,0.42 -0.05,0.64 -0.08,0.65 -0.24,1.35 -0.4,2.03 -0.55,2.46 -0.77,4.87 0.06,6.54 1,2.01 3.4,3.56 6.33,4.75 1.59,0.65 3.33,1.24 4.85,1.95 1.04,0.49 1.99,0.96 2.5,1.71 0.45,0.67 6.1,8.91 9.13,10.98 2.54,1.74 4.54,0.97 5.62,-0.64 1.1,-1.66 1.56,-3.81 1.6,-6.13 0.06,-2.54 -0.4,-5.3 -0.23,-7.38 0.42,-4.96 0.72,-8.69 0.36,-11.44 -0.33,-2.48 -1.19,-4.33 -2.63,-5.73 -2.04,-1.96 -5.61,-3.08 -11.88,-3.08 -1.61,0 -2.91,1.3 -2.91,2.91 0,1.61 1.3,2.92 2.91,2.92 2.32,0 4.15,0.13 5.59,0.46 0.98,0.22 1.73,0.5 2.24,0.99 0.79,0.76 0.92,1.92 0.99,3.43 0.11,2.33 -0.17,5.31 -0.48,9.05 -0.16,1.88 0.13,4.26 0.2,6.58 0.02,0.5 0.04,1 0.03,1.49 z"
   style="fill:#000344;font-variation-settings:normal;opacity:1;vector-effect:none;fill-opacity:1;stroke-width:1;stroke-linecap:butt;stroke-linejoin:miter;stroke-miterlimit:2;stroke-dasharray:none;stroke-dashoffset:0;stroke-opacity:1;-inkscape-stroke:none;stop-color:#000000;stop-opacity:1"
   id="path102" />
            <path
   d="m 1650.26,786.939 c 0.66,0.163 2.66,0.696 3.84,1.359 0.47,0.263 1.01,0.69 1.42,1.031 -6.91,6.794 -16.52,14.998 -22.74,22.765 -2.16,2.699 -4.84,5.357 -6.08,8.696 -0.84,-0.632 -1.59,-1.169 -2.03,-1.387 -5.78,-2.889 -10.6,-4.332 -15.08,-3.77 -4.61,0.578 -9.01,3.206 -13.69,9.054 -2.38,2.985 -3.39,6.824 -5.84,9.895 -1.37,1.705 -3.53,3.806 -5.24,5.992 -1.41,1.803 -2.51,3.683 -2.96,5.467 -0.5,2.002 0.16,3.647 2.09,4.864 1.28,0.8 3.57,1.394 6.51,1.724 5.47,0.614 13.6,0.587 19.89,1.793 1.83,0.352 3.5,0.805 4.83,1.456 0.58,0.282 1.09,0.581 1.48,0.952 -0.32,0.375 -0.75,0.878 -0.93,1.094 -3.37,4.043 -4.67,8.521 -5.88,13.321 -0.61,-0.245 -1.22,-0.494 -1.37,-0.57 -1.37,-0.688 -2.95,-0.846 -4.59,-0.791 -0.66,0.022 -1.33,0.076 -1.99,0.085 -0.53,0.008 -1.06,0.034 -1.51,-0.194 -1.24,-0.62 -2.61,-0.831 -4.03,-0.864 -1.19,-0.027 -2.43,0.179 -3.55,-0.194 -4.93,-1.644 -8.11,-3.641 -10.73,-4.851 -2.11,-0.971 -3.96,-1.494 -5.86,-1.4 -2.7,0.134 -5.69,1.509 -9.78,5.607 -4.17,4.165 -7.43,10.049 -10.21,16.477 -3.92,9.049 -6.9,19.196 -10.58,26.557 -1.16,2.323 -5.72,7.84 -7.64,12.365 -1.22,2.863 -1.38,5.488 -0.45,7.335 0.88,1.77 2.51,2.732 4.49,3.217 0.71,0.172 1.47,0.287 2.19,0.427 l 0.08,0.017 c -0.8,3.066 -3.07,11.71 -4.57,16.454 -0.93,2.962 -1.56,5.187 -1.6,5.686 -0.12,1.377 0.56,2.096 0.85,2.392 0.43,0.428 1.02,0.802 1.8,1.023 0.77,0.221 1.92,0.289 3.27,0.175 1.85,-0.157 4.26,-0.63 6.28,-0.857 0.8,-0.091 1.51,-0.23 1.94,-0.086 2.49,0.83 7.51,2.221 11.55,2.212 2.22,-0.005 4.18,-0.449 5.58,-1.327 1.36,-0.856 1.77,-2.657 0.92,-4.021 -0.86,-1.364 -2.66,-1.777 -4.02,-0.921 -0.92,0.573 -2.36,0.502 -3.88,0.374 -3.1,-0.261 -6.49,-1.245 -8.31,-1.851 -0.71,-0.238 -1.71,-0.354 -2.89,-0.304 -1.83,0.079 -4.29,0.542 -6.42,0.827 v 10e-4 c 1.54,-4.965 4.51,-14.024 5.35,-18.501 0.31,-1.688 0.29,-2.957 0.13,-3.592 -0.19,-0.716 -0.53,-1.214 -0.88,-1.564 -1.05,-1.05 -2.67,-1.611 -4.44,-1.934 -0.6,-0.108 -1.21,-0.197 -1.77,-0.356 -0.14,-0.041 -0.37,-0.139 -0.47,-0.184 -0.08,-0.265 0.06,-0.586 0.15,-0.946 0.24,-0.967 0.73,-2.031 1.33,-3.128 2.18,-4.027 5.66,-8.342 6.65,-10.324 3.12,-6.237 5.76,-14.434 8.85,-22.319 2.91,-7.399 6.18,-14.537 10.84,-19.199 2.59,-2.585 4.24,-3.821 5.95,-3.905 1.02,-0.051 1.99,0.346 3.12,0.869 2.77,1.277 6.13,3.356 11.33,5.089 1.22,0.408 2.53,0.494 3.85,0.492 1.03,-0.001 2.08,-0.194 2.97,0.25 1.38,0.693 2.97,0.853 4.6,0.799 0.67,-0.021 1.34,-0.075 2,-0.085 0.52,-0.009 1.05,-0.038 1.49,0.185 0.42,0.21 2.05,1.053 3.48,1.458 1.03,0.29 2,0.352 2.71,0.217 1.52,-0.284 2.52,-1.171 2.89,-2.677 1.2,-4.777 1.97,-9.287 5.26,-13.232 0.6,-0.716 1.85,-2.01 2.31,-3.259 0.44,-1.189 0.42,-2.385 -0.14,-3.511 -1.18,-2.353 -3.71,-4.145 -7.2,-5.264 -6.43,-2.062 -16.52,-2.049 -23.3,-2.712 -1.34,-0.131 -2.9,-0.467 -3.87,-0.698 0.54,-1.015 1.36,-2.031 2.21,-3.034 1.54,-1.807 3.25,-3.52 4.39,-4.954 2.46,-3.071 3.46,-6.91 5.85,-9.895 3.43,-4.29 6.47,-6.486 9.86,-6.91 3.51,-0.44 7.22,0.937 11.74,3.199 0.85,0.423 3.09,2.419 4.42,3.192 0.94,0.542 1.77,0.714 2.29,0.714 1.5,0 2.4,-0.701 2.97,-1.728 0.3,-0.546 0.51,-1.336 0.47,-2.279 -0.02,-0.394 -0.1,-1.197 -0.13,-1.449 0.91,-2.911 3.42,-5.034 5.26,-7.332 6.35,-7.943 16.35,-16.327 23.17,-23.147 2.35,-2.351 1.62,-5.729 -1.85,-8.29 -2.18,-1.605 -5.36,-2.895 -7.54,-3.179 -1.73,-0.224 -3.08,0.19 -3.87,0.777 -4.15,3.119 -9.45,7.586 -12.37,11.959 -3.12,4.682 -7.08,9.706 -10.88,13.498 -1.13,1.139 -1.13,2.987 0,4.125 1.14,1.138 2.99,1.138 4.13,0 4.04,-4.044 8.28,-9.395 11.61,-14.387 2.47,-3.702 6.91,-7.422 10.52,-10.155 z"
   style="fill:#000344;font-variation-settings:normal;opacity:1;vector-effect:none;fill-opacity:1;stroke-width:1;stroke-linecap:butt;stroke-linejoin:miter;stroke-miterlimit:2;stroke-dasharray:none;stroke-dashoffset:0;stroke-opacity:1;-inkscape-stroke:none;stop-color:#000000;stop-opacity:1"
   id="path104" />
            <path
   d="m 1563.2,928.988 c -0.11,0.32 -0.26,0.699 -0.41,0.986 -1.1,2.158 -2.87,4.653 -3.83,6.676 -1.37,2.864 -1.06,5.273 0.28,6.608 0.59,0.587 1.65,1.13 3.05,1.375 0.83,0.145 1.84,0.222 2.78,0.327 0.48,0.053 0.94,0.052 1.23,0.194 3.76,1.882 20.58,6.906 24.43,7.867 1.92,0.479 3.32,0.189 4.54,-0.238 0.25,-0.09 0.5,-0.187 0.74,-0.28 0.12,-0.047 0.33,-0.113 0.43,-0.146 0.1,0.051 0.45,0.24 1.08,0.295 0.3,0.027 1.7,0.09 2.36,0.05 1.24,-0.074 1.96,-0.692 2.16,-0.898 1.04,-1.038 1.95,-3.09 2.53,-5.682 0.97,-4.33 1.26,-10.496 2.18,-12.864 3.6,-9.265 6.25,-18.255 9.07,-27.654 1.62,-5.4 2.86,-9.822 2.98,-13.258 0.09,-2.999 -0.62,-5.395 -2.23,-7.262 -2.28,-2.645 -6.85,-4.373 -15.24,-4.373 -1.58,0 -4.57,-0.596 -6.87,-0.689 -1.5,-0.061 -2.8,0.104 -3.66,0.448 -4.16,1.663 -7.38,5.713 -9.73,10.717 -3.08,6.58 -4.75,14.78 -5.96,19.618 -0.32,1.278 -2.67,5.351 -3.4,8.334 -0.61,2.509 -0.1,4.555 1.02,5.68 1.53,1.526 5.51,6.97 8.76,9.094 2.75,1.793 5.27,1.687 7.06,-0.099 3.93,-3.933 5.35,-10.511 6.57,-17.198 1.01,-5.445 1.83,-10.989 5.13,-14.285 1.13,-1.138 1.13,-2.987 0,-4.125 -1.14,-1.138 -2.99,-1.138 -4.13,0 -4.04,4.044 -5.5,10.675 -6.73,17.355 -0.95,5.136 -1.68,10.32 -4.45,13.574 -0.37,-0.224 -0.92,-0.577 -1.3,-0.909 -2.43,-2.107 -4.97,-5.503 -6.35,-7.065 0.07,-0.377 0.22,-1.156 0.41,-1.704 0.99,-2.845 2.79,-6.106 3.07,-7.237 1.15,-4.572 2.67,-12.338 5.58,-18.557 1.66,-3.529 3.69,-6.604 6.62,-7.777 0.47,-0.19 1.28,-0.052 2.16,0.024 2.23,0.193 4.77,0.634 6.2,0.634 3.25,0 5.78,0.232 7.72,0.743 1.42,0.374 2.46,0.854 3.1,1.605 0.97,1.124 0.95,2.712 0.7,4.69 -0.37,2.834 -1.4,6.278 -2.62,10.346 -2.78,9.249 -5.37,18.098 -8.92,27.216 -0.86,2.204 -1.31,7.421 -2.06,11.831 -0.22,1.255 -0.46,2.433 -0.77,3.412 -0.06,0.154 -0.1,0.303 -0.14,0.443 -1.1,-0.403 -2.06,-0.396 -2.97,-0.214 -0.54,0.107 -1.07,0.294 -1.61,0.505 -0.43,0.166 -0.9,0.419 -1.62,0.24 -3.65,-0.913 -19.66,-5.636 -23.24,-7.425 -0.76,-0.382 -1.96,-0.64 -3.26,-0.783 -0.36,-0.039 -0.81,-0.093 -1.24,-0.148 0.4,-0.811 0.94,-1.873 1.43,-2.669 1.3,-2.128 2.63,-4.347 3.14,-6.09 0.38,-1.325 0.37,-2.506 0.05,-3.465 -0.35,-1.046 -1.68,-2.429 -3.88,-3.349 -1.78,-0.745 -4.78,-1.641 -6.58,-2.155 0.53,-2.809 2.1,-5.869 3.94,-8.969 3.93,-6.604 9.24,-13.265 11.36,-18.051 0.45,-1.007 3.79,-9.155 4.1,-9.919 1.06,-0.836 1.43,-2.327 0.81,-3.584 -0.72,-1.442 -2.47,-2.032 -3.91,-1.317 -0.59,0.295 -1.5,1.108 -2.27,2.499 -1.56,2.794 -3.6,8.928 -4.06,9.952 -2.06,4.632 -7.24,11.047 -11.04,17.438 -2.88,4.838 -4.95,9.7 -4.95,13.88 0,0.642 0.18,1.394 0.85,2.101 0.28,0.296 1.01,0.821 2.19,1.218 1.41,0.473 3.97,1.1 6.11,1.837 0.49,0.17 1.08,0.423 1.51,0.626 z m 33.25,23.366 c 0.03,-0.001 0.06,-0.018 0.06,-0.018 z"
   style="fill:#000344;font-variation-settings:normal;opacity:1;vector-effect:none;fill-opacity:1;stroke-width:1;stroke-linecap:butt;stroke-linejoin:miter;stroke-miterlimit:2;stroke-dasharray:none;stroke-dashoffset:0;stroke-opacity:1;-inkscape-stroke:none;stop-color:#000000;stop-opacity:1"
   id="path106" />
            <path
   d="m 1665.36,779.391 c 0.55,-0.594 8.07,-8.624 14.15,-12.319 2.24,-1.363 4.43,-2.446 6.35,-2.896 l 0.09,-0.023 c -2.08,2.382 -5.09,5.166 -5.49,5.664 -5.32,6.651 -9.25,14.672 -13.32,21.994 -1.34,2.415 -3.8,4.682 -5.83,7.018 -1.71,1.971 -3.14,3.997 -3.83,6.069 -1.71,5.146 -3.15,13.188 -5.39,20.167 -1.22,3.814 -2.64,7.31 -4.62,9.603 -4.36,0.123 -18.54,-2.65 -27.82,-3.674 -4.3,-0.475 -7.71,-0.495 -9.16,-0.027 -1.28,0.413 -1.97,1.174 -2.32,1.884 -0.81,1.609 -0.96,3.096 -0.7,4.45 0.35,1.857 1.56,3.553 3.51,4.929 5.29,3.73 17.1,5.186 20.93,5.186 2.88,0 5.62,0.964 8.41,1.879 2.82,0.925 5.69,1.819 8.69,2.087 -0.13,0.553 -0.28,1.143 -0.44,1.661 -0.98,3.114 -2.26,6.543 -2.44,7.618 -1.84,11.044 -6.42,23.907 -10.03,34.502 -1.66,-0.395 -6.96,-1.069 -9.37,-1.086 -1.8,-0.012 -2.89,0.697 -3.17,0.981 -0.29,0.281 -0.84,1.052 -1.01,2.313 -0.17,1.218 -0.26,4.526 -0.26,4.681 -0.7,3.539 -0.42,5.742 0.32,7.247 0.87,1.778 2.39,2.89 4.73,3.739 1.58,0.576 3.67,1.075 6.16,2.14 -0.18,0.977 -0.46,2.411 -0.77,3.616 -0.99,3.837 -2.26,8.122 -2.37,9.037 -0.31,2.87 -1.01,5.293 -1.73,8.16 -0.16,0.645 -0.35,1.283 -0.48,1.934 -0.39,1.978 -0.51,6.383 -1.2,9.921 -0.14,0.681 -0.29,1.325 -0.48,1.893 -0.28,-0.178 -0.56,-0.345 -0.79,-0.461 -1.03,-0.538 -2.12,-0.776 -3.17,-0.625 -1.98,0.282 -3.54,0.333 -4.76,0.142 -0.73,-0.113 -1.28,-0.274 -1.64,-0.618 -0.3,-0.287 -0.37,-0.7 -0.41,-1.155 -0.05,-0.592 0.01,-1.244 0.12,-1.944 0.57,-3.45 2.49,-7.748 3.99,-11.88 1.12,-3.071 1.91,-6.341 3.12,-9.359 0.12,-0.3 0.29,-1.073 0.38,-1.57 0.2,-0.269 0.34,-0.576 0.44,-0.912 0.42,-1.552 -0.49,-3.159 -2.04,-3.588 -1.29,-0.357 -2.58,-0.069 -3.48,1.421 -0.28,0.456 -0.7,2.323 -0.75,2.574 -1.21,3.048 -2.02,6.342 -3.15,9.44 -1.63,4.486 -3.64,9.174 -4.26,12.919 -0.59,3.518 0.04,6.382 2,8.264 1.81,1.73 5.15,2.853 10.93,2.085 0.31,0.212 1.37,0.914 1.86,1.196 1.44,0.822 2.79,0.816 3.86,0.28 1.47,-0.736 2.77,-2.521 3.5,-5.06 1.07,-3.752 1.18,-9.467 1.65,-11.819 0.12,-0.56 0.28,-1.108 0.42,-1.663 0.79,-3.137 1.52,-5.792 1.87,-8.931 0.15,-1.29 2.81,-9.604 3.28,-13.175 0.2,-1.535 -0.05,-2.648 -0.3,-3.165 -0.36,-0.714 -0.87,-1.157 -1.42,-1.432 -2.67,-1.334 -4.99,-2.049 -6.87,-2.645 -0.74,-0.234 -1.4,-0.443 -1.98,-0.679 -0.4,-0.168 -0.77,-0.286 -0.98,-0.573 -0.19,-0.259 -0.19,-0.627 -0.19,-1.12 0.01,-0.71 0.12,-1.561 0.33,-2.597 0.06,-0.288 0.14,-1.749 0.21,-3.016 1.9,0.156 4.67,0.404 5.87,0.609 0.57,0.506 1.48,1.264 2.01,1.495 1.13,0.487 2.12,0.321 2.84,-0.044 0.65,-0.332 1.25,-0.877 1.57,-1.842 3.8,-11.393 9.27,-26.175 11.35,-38.671 0.25,-1.522 2.88,-7.967 3.31,-11.089 0.29,-2.034 -0.36,-3.429 -0.97,-4.046 -0.9,-0.894 -3.66,-0.837 -3.66,-0.837 0,0 0.17,-0.018 0.24,-0.018 -3.04,0 -5.86,-0.961 -8.66,-1.878 -3.38,-1.11 -6.73,-2.169 -10.23,-2.169 -2.8,0 -10.62,-0.82 -15.65,-3.064 -1.06,-0.476 -1.99,-0.999 -2.62,-1.644 -0.11,-0.114 -0.21,-0.235 -0.27,-0.362 1.29,0.003 3.56,0.049 5.64,0.279 8.77,0.968 21.8,3.392 27.32,3.672 1.32,0.068 2.33,0 2.93,-0.14 0.88,-0.204 1.45,-0.602 1.81,-0.958 2.8,-2.801 4.93,-7.376 6.58,-12.519 2.23,-6.957 3.66,-14.974 5.37,-20.104 0.61,-1.84 2.17,-3.539 3.76,-5.282 2.04,-2.239 4.17,-4.493 5.46,-6.817 3.92,-7.044 7.65,-14.784 12.77,-21.182 0.57,-0.712 6.01,-5.823 7.58,-8.428 1.35,-2.255 0.67,-4.086 -0.15,-4.902 -1.54,-1.544 -3.7,-2.203 -6.31,-1.915 -2.76,0.303 -6.2,1.766 -9.66,3.872 -6.44,3.918 -13.05,9.995 -15.44,13.268 -1.09,1.482 -1.45,2.763 -1.45,3.479 0,1.609 1.31,2.916 2.92,2.916 1.42,0 2.6,-1.016 2.86,-2.361 z m -43.79,144.037 c -0.41,0.091 -0.84,0.095 -1.26,0 0.44,0.102 0.86,0.102 1.26,0 z"
   style="fill:#000344;font-variation-settings:normal;opacity:1;vector-effect:none;fill-opacity:1;stroke-width:1;stroke-linecap:butt;stroke-linejoin:miter;stroke-miterlimit:2;stroke-dasharray:none;stroke-dashoffset:0;stroke-opacity:1;-inkscape-stroke:none;stop-color:#000000;stop-opacity:1"
   id="path108" />
            <path
   d="m 1634.4,865.429 -3.86,10.912 -0.12,-0.06 c -0.46,-0.246 -0.81,-0.418 -0.97,-0.713 -0.09,-0.187 -0.02,-0.401 0.02,-0.649 0.09,-0.502 0.25,-1.052 0.45,-1.668 0.54,-1.687 1.35,-3.752 2.1,-6.362 0.21,-0.719 1.13,-5.2 1.29,-6.001 0.47,-0.683 0.64,-1.559 0.4,-2.417 -0.43,-1.551 -2.03,-2.463 -3.59,-2.034 -0.52,0.144 -1.4,0.533 -1.99,1.696 -0.57,1.127 -1.46,6.226 -1.72,7.153 -1.06,3.704 -2.24,6.327 -2.63,8.331 -0.44,2.258 -0.12,4.024 1.11,5.593 0.99,1.266 2.82,2.494 6.1,3.587 0.81,0.268 2.39,0.408 3.66,-1.319 1.51,-2.058 5.28,-13.693 5.58,-15.23 0.42,-2.202 -1.21,-3.128 -1.48,-3.271 -0.64,-0.343 -1.37,-0.474 -2.21,-0.226 -0.24,0.073 -1.19,0.287 -1.84,1.582 -0.17,0.353 -0.27,0.725 -0.3,1.096 z m 5.43,1.676 c -0.21,0.359 -0.48,0.658 -0.8,0.889 0.27,-0.179 0.56,-0.455 0.8,-0.889 z"
   style="fill:#000344;font-variation-settings:normal;opacity:1;vector-effect:none;fill-opacity:1;stroke-width:1;stroke-linecap:butt;stroke-linejoin:miter;stroke-miterlimit:2;stroke-dasharray:none;stroke-dashoffset:0;stroke-opacity:1;-inkscape-stroke:none;stop-color:#000000;stop-opacity:1"
   id="path110" />
            <path
   d="m 1764.32,774.21 c -0.28,-1.993 -6.23,4.758 -0.64,6.157 4.08,1.02 2.54,-7.857 0.2,-5.519"
   style="fill:#000344;font-variation-settings:normal;opacity:1;vector-effect:none;fill-opacity:1;stroke-width:1;stroke-linecap:butt;stroke-linejoin:miter;stroke-miterlimit:2;stroke-dasharray:none;stroke-dashoffset:0;stroke-opacity:1;-inkscape-stroke:none;stop-color:#000000;stop-opacity:1"
   id="path112" />
            <path
   d="m 1771.04,794.484 c -2.87,-2.954 -3.75,6.954 1.23,5.71 2.65,-0.662 2.81,-5.927 -0.21,-5.927"
   style="fill:#000344;font-variation-settings:normal;opacity:1;vector-effect:none;fill-opacity:1;stroke-width:1;stroke-linecap:butt;stroke-linejoin:miter;stroke-miterlimit:2;stroke-dasharray:none;stroke-dashoffset:0;stroke-opacity:1;-inkscape-stroke:none;stop-color:#000000;stop-opacity:1"
   id="path114" />
            <path
   d="m 1792.7,786.795 c -3.35,-5.074 -11.17,2.517 -5.72,7.063 2.3,1.911 5.73,0.64 5.73,-2.453 0,-0.776 -0.28,-3.68 -1.43,-3.68"
   style="fill:#000344;font-variation-settings:normal;opacity:1;vector-effect:none;fill-opacity:1;stroke-width:1;stroke-linecap:butt;stroke-linejoin:miter;stroke-miterlimit:2;stroke-dasharray:none;stroke-dashoffset:0;stroke-opacity:1;-inkscape-stroke:none;stop-color:#000000;stop-opacity:1"
   id="path116" />
            <path
   d="m 1790.58,808.745 c 0.44,-3.146 -2.41,-3.072 -3.19,0.035 -0.72,2.896 2.26,9.188 5.11,4.906 1.93,-2.892 -1.63,-4.433 -1.63,-6.542"
   style="fill:#000344;font-variation-settings:normal;opacity:1;vector-effect:none;fill-opacity:1;stroke-width:1;stroke-linecap:butt;stroke-linejoin:miter;stroke-miterlimit:2;stroke-dasharray:none;stroke-dashoffset:0;stroke-opacity:1;-inkscape-stroke:none;stop-color:#000000;stop-opacity:1"
   id="path118" />
            <path
   d="m 1786.43,828.936 c -2.4,-4.678 -4.07,9.033 1.17,6.417 1.95,-0.976 2.57,-7.359 -0.21,-7.359"
   style="fill:#000344;font-variation-settings:normal;opacity:1;vector-effect:none;fill-opacity:1;stroke-width:1;stroke-linecap:butt;stroke-linejoin:miter;stroke-miterlimit:2;stroke-dasharray:none;stroke-dashoffset:0;stroke-opacity:1;-inkscape-stroke:none;stop-color:#000000;stop-opacity:1"
   id="path120" />
            <path
   d="m 1811.89,820.841 c -1.14,-0.005 -1.68,-2.566 -3.85,-1.841 -1.61,0.534 -2.38,2.311 -3.07,3.68 -0.51,1.029 -0.66,1.367 -0.82,2.453 -1.18,8.306 11.92,1.697 6.34,-3.884"
   style="fill:#000344;font-variation-settings:normal;opacity:1;vector-effect:none;fill-opacity:1;stroke-width:1;stroke-linecap:butt;stroke-linejoin:miter;stroke-miterlimit:2;stroke-dasharray:none;stroke-dashoffset:0;stroke-opacity:1;-inkscape-stroke:none;stop-color:#000000;stop-opacity:1"
   id="path122" />
            <path
   d="m 1828.21,816.512 c -3.93,-4.296 -7,3.362 -5.05,6.781 3.16,5.524 10.26,-1.808 5.52,-6.541"
   style="fill:#000344;font-variation-settings:normal;opacity:1;vector-effect:none;fill-opacity:1;stroke-width:1;stroke-linecap:butt;stroke-linejoin:miter;stroke-miterlimit:2;stroke-dasharray:none;stroke-dashoffset:0;stroke-opacity:1;-inkscape-stroke:none;stop-color:#000000;stop-opacity:1"
   id="path124" />
            <path
   d="m 1808.56,801.383 c -1.24,-1.894 -5.29,2.975 -4.2,4.944 2.39,4.303 7.4,3.019 6.13,-2.044 -0.17,-0.665 -0.92,-0.619 -1.23,-1.227"
   style="fill:#000344;font-variation-settings:normal;opacity:1;vector-effect:none;fill-opacity:1;stroke-width:1;stroke-linecap:butt;stroke-linejoin:miter;stroke-miterlimit:2;stroke-dasharray:none;stroke-dashoffset:0;stroke-opacity:1;-inkscape-stroke:none;stop-color:#000000;stop-opacity:1"
   id="path126" />
            <path
   d="m 1808.17,850.854 c 0.27,-1.481 -0.53,-3.035 -2.38,-2.419 -3.95,1.316 -3.15,8.034 0,9.608 3.8,1.902 3.75,-5.422 3.27,-7.359"
   style="fill:#000344;font-variation-settings:normal;opacity:1;vector-effect:none;fill-opacity:1;stroke-width:1;stroke-linecap:butt;stroke-linejoin:miter;stroke-miterlimit:2;stroke-dasharray:none;stroke-dashoffset:0;stroke-opacity:1;-inkscape-stroke:none;stop-color:#000000;stop-opacity:1"
   id="path128" />
            <path
   d="m 1824.5,841.922 c -0.91,-1.991 -3.15,-0.596 -4.2,0.585 -1.38,1.552 -1.89,3.854 -1.43,5.928 0.98,4.39 5.13,2.827 6.34,-0.204 0.84,-2.096 -0.61,-3.756 -0.61,-5.724"
   style="fill:#000344;font-variation-settings:normal;opacity:1;vector-effect:none;fill-opacity:1;stroke-width:1;stroke-linecap:butt;stroke-linejoin:miter;stroke-miterlimit:2;stroke-dasharray:none;stroke-dashoffset:0;stroke-opacity:1;-inkscape-stroke:none;stop-color:#000000;stop-opacity:1"
   id="path130" />
            <path
   d="m 1845.53,836.729 c -2.8,-5.019 -6.91,2.752 -5.2,6.187 2.97,5.921 10.34,-0.295 5.52,-5.11"
   style="fill:#000344;font-variation-settings:normal;opacity:1;vector-effect:none;fill-opacity:1;stroke-width:1;stroke-linecap:butt;stroke-linejoin:miter;stroke-miterlimit:2;stroke-dasharray:none;stroke-dashoffset:0;stroke-opacity:1;-inkscape-stroke:none;stop-color:#000000;stop-opacity:1"
   id="path132" />
            <path
   d="m 1807.25,877.055 c -0.14,-0.943 -1.65,-0.641 -2.07,-0.002 -1.26,1.878 -1.45,6.535 1.43,7.359 5.82,1.665 2.04,-4.811 2.04,-6.337"
   style="fill:#000344;font-variation-settings:normal;opacity:1;vector-effect:none;fill-opacity:1;stroke-width:1;stroke-linecap:butt;stroke-linejoin:miter;stroke-miterlimit:2;stroke-dasharray:none;stroke-dashoffset:0;stroke-opacity:1;-inkscape-stroke:none;stop-color:#000000;stop-opacity:1"
   id="path134" />
            <path
   d="m 1824.25,866.499 c -0.2,-0.915 -1,-2.061 -2.11,-1.506 -2.9,1.451 -2.73,8.023 0.21,9.198 4.95,1.98 4.82,-4.86 3.47,-7.563"
   style="fill:#000344;font-variation-settings:normal;opacity:1;vector-effect:none;fill-opacity:1;stroke-width:1;stroke-linecap:butt;stroke-linejoin:miter;stroke-miterlimit:2;stroke-dasharray:none;stroke-dashoffset:0;stroke-opacity:1;-inkscape-stroke:none;stop-color:#000000;stop-opacity:1"
   id="path136" />
            <path
   d="m 1844.58,864.064 c -0.54,-1.039 -2.07,-1.337 -2.81,-0.298 -2.55,3.571 -1.84,8.413 3.06,8.79 0.72,0.055 2.14,0.207 2.86,0 4.31,-1.23 1.02,-10.832 -3.47,-8.585"
   style="fill:#000344;font-variation-settings:normal;opacity:1;vector-effect:none;fill-opacity:1;stroke-width:1;stroke-linecap:butt;stroke-linejoin:miter;stroke-miterlimit:2;stroke-dasharray:none;stroke-dashoffset:0;stroke-opacity:1;-inkscape-stroke:none;stop-color:#000000;stop-opacity:1"
   id="path138" />
            <path
   d="m 1865.31,857.54 c -0.35,-0.981 0.1,-2.07 -1.06,-2.768 -3.6,-2.163 -6.49,3.974 -5.11,6.746 1.28,2.565 8.05,2.782 8.59,-0.409 0.24,-1.457 -1.7,-3.737 -2.66,-4.702"
   style="fill:#000344;font-variation-settings:normal;opacity:1;vector-effect:none;fill-opacity:1;stroke-width:1;stroke-linecap:butt;stroke-linejoin:miter;stroke-miterlimit:2;stroke-dasharray:none;stroke-dashoffset:0;stroke-opacity:1;-inkscape-stroke:none;stop-color:#000000;stop-opacity:1"
   id="path140" />
            <path
   d="m 1841.32,890.529 c 0.14,-1.633 -0.96,-4.165 -3.03,-2.438 -3.02,2.518 -2.18,9.217 1.84,10.22 3.59,0.897 4.68,-6.949 1.64,-6.949"
   style="fill:#000344;font-variation-settings:normal;opacity:1;vector-effect:none;fill-opacity:1;stroke-width:1;stroke-linecap:butt;stroke-linejoin:miter;stroke-miterlimit:2;stroke-dasharray:none;stroke-dashoffset:0;stroke-opacity:1;-inkscape-stroke:none;stop-color:#000000;stop-opacity:1"
   id="path142" />
            <path
   d="m 1822.6,897.459 c -4.23,0.223 -5.03,9.051 -0.25,9.847 4.06,0.676 4.47,-3.743 2.65,-6.337 -0.44,-0.638 -0.99,-2.249 -1.84,-2.249"
   style="fill:#000344;font-variation-settings:normal;opacity:1;vector-effect:none;fill-opacity:1;stroke-width:1;stroke-linecap:butt;stroke-linejoin:miter;stroke-miterlimit:2;stroke-dasharray:none;stroke-dashoffset:0;stroke-opacity:1;-inkscape-stroke:none;stop-color:#000000;stop-opacity:1"
   id="path144" />
            <path
   d="m 1864.47,887.2 c -0.45,-3.342 -3.65,-2.617 -5.74,0.073 -1.7,2.185 -1.29,5.451 0.62,7.359 3.7,3.704 7.85,-6.132 4.08,-6.132"
   style="fill:#000344;font-variation-settings:normal;opacity:1;vector-effect:none;fill-opacity:1;stroke-width:1;stroke-linecap:butt;stroke-linejoin:miter;stroke-miterlimit:2;stroke-dasharray:none;stroke-dashoffset:0;stroke-opacity:1;-inkscape-stroke:none;stop-color:#000000;stop-opacity:1"
   id="path146" />
            <path
   d="m 1881.44,887.366 c -4.25,2.124 -0.87,9.789 3.66,7.879 3.33,-1.401 3.03,-9.96 -0.2,-11.038 -2.07,-0.688 -5.15,5.127 -6.75,5.928"
   style="fill:#000344;font-variation-settings:normal;opacity:1;vector-effect:none;fill-opacity:1;stroke-width:1;stroke-linecap:butt;stroke-linejoin:miter;stroke-miterlimit:2;stroke-dasharray:none;stroke-dashoffset:0;stroke-opacity:1;-inkscape-stroke:none;stop-color:#000000;stop-opacity:1"
   id="path148" />
            <path
   d="m 1821.16,928.703 c -0.02,-1.898 -1.44,-2.265 -2.66,-1.041 -2.29,2.29 -1.48,7.181 2.04,7.768 2.06,0.343 2.42,-5.643 2.05,-7.154 -0.13,-0.512 -1.23,-1.403 -1.23,-0.409"
   style="fill:#000344;font-variation-settings:normal;opacity:1;vector-effect:none;fill-opacity:1;stroke-width:1;stroke-linecap:butt;stroke-linejoin:miter;stroke-miterlimit:2;stroke-dasharray:none;stroke-dashoffset:0;stroke-opacity:1;-inkscape-stroke:none;stop-color:#000000;stop-opacity:1"
   id="path150" />
            <path
   d="m 1840.48,917.689 c -1.57,-0.13 -2.42,2.694 -2.77,3.841 -0.94,3.071 -0.99,8.257 3.27,8.79 4.02,0.502 5.02,-4.614 3.68,-7.563 -0.39,-0.863 -1.38,-3.271 -2.66,-3.271"
   style="fill:#000344;font-variation-settings:normal;opacity:1;vector-effect:none;fill-opacity:1;stroke-width:1;stroke-linecap:butt;stroke-linejoin:miter;stroke-miterlimit:2;stroke-dasharray:none;stroke-dashoffset:0;stroke-opacity:1;-inkscape-stroke:none;stop-color:#000000;stop-opacity:1"
   id="path152" />
            <path
   d="m 1862.12,914.682 c -5.23,-3.274 -5.84,5.645 -3.56,8.688 2.99,3.983 7.7,-0.389 6.13,-4.293 -0.45,-1.144 -2,-1.799 -2.86,-2.657"
   style="fill:#000344;font-variation-settings:normal;opacity:1;vector-effect:none;fill-opacity:1;stroke-width:1;stroke-linecap:butt;stroke-linejoin:miter;stroke-miterlimit:2;stroke-dasharray:none;stroke-dashoffset:0;stroke-opacity:1;-inkscape-stroke:none;stop-color:#000000;stop-opacity:1"
   id="path154" />
            <path
   d="m 1881.39,910.057 c -5.52,0.261 -4.14,9.72 -1.36,12.495 1.41,1.411 3.61,-0.826 4.29,-1.84 1.79,-2.695 0.77,-7.993 -2.05,-9.402"
   style="fill:#000344;font-variation-settings:normal;opacity:1;vector-effect:none;fill-opacity:1;stroke-width:1;stroke-linecap:butt;stroke-linejoin:miter;stroke-miterlimit:2;stroke-dasharray:none;stroke-dashoffset:0;stroke-opacity:1;-inkscape-stroke:none;stop-color:#000000;stop-opacity:1"
   id="path156" />
            <path
   d="m 1907.92,921.316 c -0.65,-0.421 -0.67,-1.402 -1.53,-1.83 -1.31,-0.658 -2.12,1.639 -2.45,2.453 -1.05,2.624 0.26,6.243 2.86,7.359 2.78,1.192 6.58,-6.337 2.46,-6.337"
   style="fill:#000344;font-variation-settings:normal;opacity:1;vector-effect:none;fill-opacity:1;stroke-width:1;stroke-linecap:butt;stroke-linejoin:miter;stroke-miterlimit:2;stroke-dasharray:none;stroke-dashoffset:0;stroke-opacity:1;-inkscape-stroke:none;stop-color:#000000;stop-opacity:1"
   id="path158" />
            <path
   d="m 1890.41,932.6 c -5.97,-0.16 -6.55,7.102 -1.39,9.167 3.13,1.254 3.94,-7.359 1.02,-7.359"
   style="fill:#000344;font-variation-settings:normal;opacity:1;vector-effect:none;fill-opacity:1;stroke-width:1;stroke-linecap:butt;stroke-linejoin:miter;stroke-miterlimit:2;stroke-dasharray:none;stroke-dashoffset:0;stroke-opacity:1;-inkscape-stroke:none;stop-color:#000000;stop-opacity:1"
   id="path160" />
            <path
   d="m 1868.1,941.366 c -2.65,1.511 -3.41,3.648 -3.41,6.737 0,1.567 1.7,4.016 3.68,3.271 3.44,-1.288 3.46,-9.198 -0.61,-9.198"
   style="fill:#000344;font-variation-settings:normal;opacity:1;vector-effect:none;fill-opacity:1;stroke-width:1;stroke-linecap:butt;stroke-linejoin:miter;stroke-miterlimit:2;stroke-dasharray:none;stroke-dashoffset:0;stroke-opacity:1;-inkscape-stroke:none;stop-color:#000000;stop-opacity:1"
   id="path162" />
            <path
   d="m 1847.34,947.349 c -0.53,-0.148 -1.2,-1.214 -1.86,-0.881 -1.95,0.976 -4.25,8.089 -2.86,9.812 2.52,3.135 6.42,-0.257 6.13,-3.475 -0.17,-1.827 -1.64,-3.652 -1.64,-5.315"
   style="fill:#000344;font-variation-settings:normal;opacity:1;vector-effect:none;fill-opacity:1;stroke-width:1;stroke-linecap:butt;stroke-linejoin:miter;stroke-miterlimit:2;stroke-dasharray:none;stroke-dashoffset:0;stroke-opacity:1;-inkscape-stroke:none;stop-color:#000000;stop-opacity:1"
   id="path164" />
            <path
   d="m 1828.83,960.288 c -3.53,-3.685 -6.92,7.105 -2.36,8.461 3.1,0.922 4.52,-4.013 3.88,-6.132 -0.19,-0.653 -0.49,-2.862 -1.43,-2.862"
   style="fill:#000344;font-variation-settings:normal;opacity:1;vector-effect:none;fill-opacity:1;stroke-width:1;stroke-linecap:butt;stroke-linejoin:miter;stroke-miterlimit:2;stroke-dasharray:none;stroke-dashoffset:0;stroke-opacity:1;-inkscape-stroke:none;stop-color:#000000;stop-opacity:1"
   id="path166" />
            <path
   d="m 1841.54,985.453 c 0.65,-1.818 -1.02,-2.466 -2.19,-0.965 -2.22,2.848 -3.09,8.958 1.63,9.403 7.22,0.681 1.27,-8.302 1.84,-10.016"
   style="fill:#000344;font-variation-settings:normal;opacity:1;vector-effect:none;fill-opacity:1;stroke-width:1;stroke-linecap:butt;stroke-linejoin:miter;stroke-miterlimit:2;stroke-dasharray:none;stroke-dashoffset:0;stroke-opacity:1;-inkscape-stroke:none;stop-color:#000000;stop-opacity:1"
   id="path168" />
            <path
   d="m 1863.17,971.245 c -1.49,-0.564 -2.39,0.975 -2.97,2.001 -1.75,3.047 -2.55,7.078 0.61,9.607 4.88,3.91 6.72,-5.543 3.68,-8.585"
   style="fill:#000344;font-variation-settings:normal;opacity:1;vector-effect:none;fill-opacity:1;stroke-width:1;stroke-linecap:butt;stroke-linejoin:miter;stroke-miterlimit:2;stroke-dasharray:none;stroke-dashoffset:0;stroke-opacity:1;-inkscape-stroke:none;stop-color:#000000;stop-opacity:1"
   id="path170" />
            <path
   d="m 1887.38,964.726 c -1.07,-2.517 -3.25,-0.868 -4.29,0.957 -1.28,2.25 -1.57,5.201 0.61,6.95 3.24,2.586 7.67,-4.345 4.09,-6.133"
   style="fill:#000344;font-variation-settings:normal;opacity:1;vector-effect:none;fill-opacity:1;stroke-width:1;stroke-linecap:butt;stroke-linejoin:miter;stroke-miterlimit:2;stroke-dasharray:none;stroke-dashoffset:0;stroke-opacity:1;-inkscape-stroke:none;stop-color:#000000;stop-opacity:1"
   id="path172" />
            <path
   d="m 1909.98,953.223 c -0.6,-0.051 -0.51,-1.53 -1.34,-1.031 -3.38,2.03 -4.56,8.38 -0.2,10.016 3.34,1.252 4.84,-6.133 3.27,-6.133"
   style="fill:#000344;font-variation-settings:normal;opacity:1;vector-effect:none;fill-opacity:1;stroke-width:1;stroke-linecap:butt;stroke-linejoin:miter;stroke-miterlimit:2;stroke-dasharray:none;stroke-dashoffset:0;stroke-opacity:1;-inkscape-stroke:none;stop-color:#000000;stop-opacity:1"
   id="path174" />
            <path
   d="m 1905.08,980.989 c -3.77,-4.542 -6.84,6.737 -4.21,8.405 3.74,2.364 7.7,-6.758 3.48,-7.358"
   style="fill:#000344;font-variation-settings:normal;opacity:1;vector-effect:none;fill-opacity:1;stroke-width:1;stroke-linecap:butt;stroke-linejoin:miter;stroke-miterlimit:2;stroke-dasharray:none;stroke-dashoffset:0;stroke-opacity:1;-inkscape-stroke:none;stop-color:#000000;stop-opacity:1"
   id="path176" />
            <path
   d="m 1881.5,992.274 c -0.14,-0.721 -2.34,-0.047 -2.72,0.33 -2.32,2.323 -0.91,7.092 2.06,8.036 3.78,1.19 2.25,-5.726 1.64,-6.953"
   style="fill:#000344;font-variation-settings:normal;opacity:1;vector-effect:none;fill-opacity:1;stroke-width:1;stroke-linecap:butt;stroke-linejoin:miter;stroke-miterlimit:2;stroke-dasharray:none;stroke-dashoffset:0;stroke-opacity:1;-inkscape-stroke:none;stop-color:#000000;stop-opacity:1"
   id="path178" />
            <path
   d="m 1860.06,1002.53 c -4.16,-0.49 -7.14,6.12 -4.23,9.03 4.24,4.25 7,-2.11 4.78,-5.81"
   style="fill:#000344;font-variation-settings:normal;opacity:1;vector-effect:none;fill-opacity:1;stroke-width:1;stroke-linecap:butt;stroke-linejoin:miter;stroke-miterlimit:2;stroke-dasharray:none;stroke-dashoffset:0;stroke-opacity:1;-inkscape-stroke:none;stop-color:#000000;stop-opacity:1"
   id="path180" />
            <path
   d="m 1836.88,1023.02 c -2.57,0.43 -5.37,9.04 -2.24,9.91 3.62,1.01 5.73,-4.04 5.73,-6.95 0,-0.52 -0.5,-2.97 -1.64,-1.84"
   style="fill:#000344;font-variation-settings:normal;opacity:1;vector-effect:none;fill-opacity:1;stroke-width:1;stroke-linecap:butt;stroke-linejoin:miter;stroke-miterlimit:2;stroke-dasharray:none;stroke-dashoffset:0;stroke-opacity:1;-inkscape-stroke:none;stop-color:#000000;stop-opacity:1"
   id="path182" />
            <path
   d="m 1932.48,982.503 c 0.26,-0.904 -1.62,-2.485 -2.58,-2.103 -2.29,0.916 -3.28,7.585 -1.02,8.994 3.88,2.428 3.93,-6.336 3.47,-6.336"
   style="fill:#000344;font-variation-settings:normal;opacity:1;vector-effect:none;fill-opacity:1;stroke-width:1;stroke-linecap:butt;stroke-linejoin:miter;stroke-miterlimit:2;stroke-dasharray:none;stroke-dashoffset:0;stroke-opacity:1;-inkscape-stroke:none;stop-color:#000000;stop-opacity:1"
   id="path184" />
            <path
   d="m 1903.59,1009.16 c -0.75,0.18 -1.39,-2.95 -3.12,-1.98 -2.42,1.34 -3.14,9.3 0.69,9.3 3.04,0 6.06,-6.5 2.58,-7.67"
   style="fill:#000344;font-variation-settings:normal;opacity:1;vector-effect:none;fill-opacity:1;stroke-width:1;stroke-linecap:butt;stroke-linejoin:miter;stroke-miterlimit:2;stroke-dasharray:none;stroke-dashoffset:0;stroke-opacity:1;-inkscape-stroke:none;stop-color:#000000;stop-opacity:1"
   id="path186" />
            <path
   d="m 1879.65,1015.25 c -4.43,-0.53 -6.9,7.03 -2.61,8.87 4.51,1.93 6.27,-5.08 2.58,-6.93"
   style="fill:#000344;font-variation-settings:normal;opacity:1;vector-effect:none;fill-opacity:1;stroke-width:1;stroke-linecap:butt;stroke-linejoin:miter;stroke-miterlimit:2;stroke-dasharray:none;stroke-dashoffset:0;stroke-opacity:1;-inkscape-stroke:none;stop-color:#000000;stop-opacity:1"
   id="path188" />
            <path
   d="m 1935.11,1015.44 c 0.77,-2.18 -0.44,-4.38 -2.99,-3.11 -2.04,1.02 -4.6,3.6 -5.08,5.89 -0.36,1.67 3.63,4.66 5.03,3.73 1.22,-0.81 1.92,-5.59 1.92,-7"
   style="fill:#000344;font-variation-settings:normal;opacity:1;vector-effect:none;fill-opacity:1;stroke-width:1;stroke-linecap:butt;stroke-linejoin:miter;stroke-miterlimit:2;stroke-dasharray:none;stroke-dashoffset:0;stroke-opacity:1;-inkscape-stroke:none;stop-color:#000000;stop-opacity:1"
   id="path190" />
        </g>
    </g>
</svg>
