<?xml version="1.0" encoding="UTF-8" standalone="no"?>
<svg
   width="100%"
   height="100%"
   viewBox="0 0 680 535"
   version="1.1"
   xml:space="preserve"
   style="fill-rule:evenodd;clip-rule:evenodd;stroke-linejoin:round;stroke-miterlimit:2;"
   id="svg232"
   sodipodi:docname="2023-CH-02-explanation-A.svg"
   inkscape:version="1.1.1 (3bf5ae0d25, 2021-09-20)"
   xmlns:inkscape="http://www.inkscape.org/namespaces/inkscape"
   xmlns:sodipodi="http://sodipodi.sourceforge.net/DTD/sodipodi-0.dtd"
   xmlns="http://www.w3.org/2000/svg"
   xmlns:svg="http://www.w3.org/2000/svg"><defs
   id="defs236" /><sodipodi:namedview
   id="namedview234"
   pagecolor="#ffffff"
   bordercolor="#666666"
   borderopacity="1.0"
   inkscape:pageshadow="2"
   inkscape:pageopacity="0.0"
   inkscape:pagecheckerboard="0"
   showgrid="false"
   inkscape:zoom="0.95029865"
   inkscape:cx="402.50505"
   inkscape:cy="266.75825"
   inkscape:window-width="2048"
   inkscape:window-height="1017"
   inkscape:window-x="-8"
   inkscape:window-y="-8"
   inkscape:window-maximized="1"
   inkscape:current-layer="svg232" />
    <g
   transform="translate(-70.5273,-1868.75)"
   id="g230">
        <g
   transform="matrix(2.667,0,0,2.667,-3991.25,163.658)"
   id="g6">
            <g
   transform="matrix(43.7508,0,0,43.7508,1529.81,802.55)"
   id="g4">
                <path
   d="m 0.042,-0.188 0.092,-0.007 c 0.007,0.045 0.022,0.078 0.047,0.101 0.025,0.023 0.055,0.034 0.09,0.034 0.043,0 0.079,-0.016 0.108,-0.048 0.029,-0.032 0.044,-0.074 0.044,-0.127 0,-0.05 -0.014,-0.09 -0.042,-0.119 -0.029,-0.028 -0.065,-0.043 -0.111,-0.043 -0.028,0 -0.054,0.006 -0.077,0.019 -0.022,0.013 -0.04,0.03 -0.053,0.05 l -0.083,-0.01 0.069,-0.368 h 0.356 v 0.084 H 0.197 L 0.158,-0.43 c 0.043,-0.03 0.088,-0.045 0.135,-0.045 0.063,0 0.116,0.022 0.159,0.065 0.043,0.044 0.064,0.099 0.064,0.167 0,0.065 -0.019,0.121 -0.057,0.168 C 0.414,-0.017 0.351,0.012 0.271,0.012 0.206,0.012 0.153,-0.006 0.112,-0.042 0.071,-0.079 0.047,-0.127 0.042,-0.188 Z"
   style="fill:#000344;fill-rule:nonzero;font-variation-settings:normal;opacity:1;vector-effect:none;fill-opacity:1;stroke-width:0.0085702;stroke-linecap:butt;stroke-linejoin:miter;stroke-miterlimit:2;stroke-dasharray:none;stroke-dashoffset:0;stroke-opacity:1;-inkscape-stroke:none;stop-color:#000000;stop-opacity:1"
   id="path2" />
            </g>
        </g>
        <g
   transform="matrix(2.667,0,0,2.667,-3865.48,177.166)"
   id="g12">
            <g
   transform="matrix(43.7508,0,0,43.7508,1529.81,802.55)"
   id="g10">
                <path
   d="M 0.498,-0.541 0.41,-0.534 C 0.402,-0.568 0.391,-0.593 0.377,-0.609 0.353,-0.634 0.324,-0.646 0.289,-0.646 c -0.028,0 -0.053,0.007 -0.074,0.023 -0.027,0.02 -0.049,0.05 -0.065,0.088 -0.016,0.039 -0.024,0.094 -0.025,0.166 0.021,-0.032 0.047,-0.056 0.078,-0.072 0.03,-0.016 0.062,-0.023 0.096,-0.023 0.058,0 0.108,0.021 0.149,0.064 0.042,0.043 0.062,0.099 0.062,0.168 0,0.044 -0.009,0.086 -0.029,0.125 -0.019,0.038 -0.046,0.068 -0.08,0.088 C 0.368,0.002 0.329,0.012 0.286,0.012 0.213,0.012 0.153,-0.015 0.107,-0.069 0.061,-0.122 0.038,-0.211 0.038,-0.335 c 0,-0.138 0.025,-0.239 0.076,-0.302 0.045,-0.054 0.105,-0.082 0.18,-0.082 0.057,0 0.103,0.016 0.139,0.048 0.036,0.031 0.057,0.075 0.065,0.13 z m -0.359,0.309 c 0,0.03 0.006,0.059 0.019,0.087 0.013,0.028 0.031,0.049 0.054,0.063 0.023,0.015 0.047,0.022 0.073,0.022 0.037,0 0.069,-0.015 0.095,-0.045 0.027,-0.03 0.04,-0.071 0.04,-0.122 0,-0.05 -0.013,-0.089 -0.039,-0.117 -0.027,-0.028 -0.06,-0.043 -0.1,-0.043 -0.039,0 -0.073,0.015 -0.101,0.043 -0.027,0.028 -0.041,0.066 -0.041,0.112 z"
   style="fill:#e30011;fill-rule:nonzero"
   id="path8" />
            </g>
        </g>
        <g
   transform="matrix(2.667,0,0,2.667,-3659.03,190.012)"
   id="g18">
            <g
   transform="matrix(43.7508,0,0,43.7508,1529.81,802.55)"
   id="g16">
                <path
   d="m 0.08526195,-0.66663894 v -0.085 h 0.464 v 0.069 c -0.046,0.048 -0.091,0.113 -0.136,0.193 -0.045,0.081 -0.079,0.163 -0.104,0.248 -0.017,0.06 -0.028,0.126 -0.033,0.197 h -0.091 c 0.001,-0.056 0.013,-0.124 0.034,-0.204 0.021,-0.08 0.051,-0.157 0.091,-0.231 0.039,-0.074 0.081,-0.136 0.126,-0.187 z"
   style="fill:#e30011;fill-rule:nonzero"
   id="path14" />
            </g>
        </g>
        <g
   transform="matrix(2.667,0,0,2.667,-3535.59,170.499)"
   id="g24">
            <g
   transform="matrix(43.7508,0,0,43.7508,1529.81,802.55)"
   id="g22">
                <path
   d="M 0.177,-0.388 C 0.14,-0.402 0.113,-0.421 0.096,-0.445 0.078,-0.47 0.069,-0.5 0.069,-0.534 c 0,-0.052 0.019,-0.096 0.056,-0.132 0.038,-0.035 0.088,-0.053 0.15,-0.053 0.062,0 0.113,0.018 0.151,0.055 0.038,0.036 0.057,0.08 0.057,0.132 0,0.033 -0.009,0.062 -0.026,0.087 -0.018,0.025 -0.044,0.043 -0.08,0.057 0.044,0.014 0.078,0.037 0.101,0.069 0.023,0.032 0.034,0.07 0.034,0.114 0,0.062 -0.021,0.113 -0.065,0.155 -0.043,0.041 -0.1,0.062 -0.171,0.062 -0.07,0 -0.127,-0.021 -0.171,-0.063 -0.043,-0.041 -0.064,-0.094 -0.064,-0.156 0,-0.047 0.011,-0.086 0.035,-0.117 C 0.1,-0.355 0.133,-0.377 0.177,-0.388 Z M 0.159,-0.537 c 0,0.034 0.011,0.061 0.033,0.083 0.022,0.021 0.05,0.032 0.085,0.032 0.034,0 0.061,-0.011 0.083,-0.032 0.022,-0.021 0.033,-0.047 0.033,-0.078 0,-0.032 -0.012,-0.06 -0.034,-0.082 -0.022,-0.021 -0.05,-0.032 -0.083,-0.032 -0.034,0 -0.061,0.01 -0.084,0.032 -0.022,0.021 -0.033,0.047 -0.033,0.077 z m -0.028,0.33 c 0,0.026 0.006,0.05 0.018,0.073 0.012,0.024 0.029,0.042 0.053,0.055 0.023,0.013 0.048,0.019 0.075,0.019 0.042,0 0.077,-0.014 0.104,-0.041 0.028,-0.027 0.041,-0.061 0.041,-0.103 0,-0.042 -0.014,-0.077 -0.042,-0.105 C 0.352,-0.336 0.317,-0.35 0.274,-0.35 c -0.041,0 -0.075,0.014 -0.102,0.041 -0.028,0.027 -0.041,0.061 -0.041,0.102 z"
   style="fill:#e30011;fill-rule:nonzero"
   id="path20" />
            </g>
        </g>
        <g
   transform="matrix(2.667,0,0,2.667,-3410.07,145.917)"
   id="g30">
            <g
   transform="matrix(43.7508,0,0,43.7508,1529.81,802.55)"
   id="g28">
                <path
   d="m 0.055,-0.166 0.084,-0.007 c 0.007,0.039 0.021,0.068 0.041,0.086 0.02,0.018 0.046,0.027 0.078,0.027 0.027,0 0.051,-0.006 0.071,-0.019 0.02,-0.012 0.037,-0.029 0.05,-0.049 0.013,-0.021 0.024,-0.049 0.033,-0.084 0.008,-0.035 0.013,-0.071 0.013,-0.107 0,-0.004 0,-0.01 -0.001,-0.018 -0.017,0.028 -0.041,0.051 -0.072,0.068 -0.03,0.018 -0.063,0.026 -0.099,0.026 -0.059,0 -0.109,-0.021 -0.15,-0.064 -0.041,-0.043 -0.061,-0.1 -0.061,-0.17 0,-0.073 0.021,-0.131 0.064,-0.175 0.043,-0.045 0.096,-0.067 0.161,-0.067 0.046,0 0.089,0.013 0.127,0.038 0.039,0.025 0.068,0.061 0.088,0.107 0.02,0.046 0.03,0.114 0.03,0.201 0,0.092 -0.01,0.165 -0.03,0.219 C 0.463,-0.1 0.433,-0.059 0.394,-0.03 0.355,-0.002 0.309,0.012 0.256,0.012 0.2,0.012 0.154,-0.003 0.119,-0.034 0.083,-0.066 0.062,-0.109 0.055,-0.166 Z m 0.36,-0.315 c 0,-0.051 -0.014,-0.091 -0.041,-0.121 -0.027,-0.029 -0.059,-0.044 -0.097,-0.044 -0.039,0 -0.073,0.016 -0.102,0.048 -0.029,0.032 -0.043,0.073 -0.043,0.124 0,0.045 0.014,0.082 0.041,0.111 0.028,0.028 0.062,0.043 0.102,0.043 0.041,0 0.074,-0.015 0.1,-0.043 0.026,-0.029 0.04,-0.068 0.04,-0.118 z"
   style="fill:#e30011;fill-rule:nonzero"
   id="path26" />
            </g>
        </g>
        <g
   transform="translate(-1318.88,1803.83)"
   id="g194">
            <g
   id="g124">
                <g
   transform="translate(40.9277,-237.354)"
   id="g34">
                    <path
   d="m 1672.92,629.543 c -2.89,-4.965 -0.93,21.872 -0.33,26.089 1.91,13.339 1.82,114.392 4.04,127.672 0.73,4.375 2.06,14.333 -0.43,18.487 -17.21,28.674 -19.1,-7.404 -22.79,-18.487 -1.32,-3.955 -12.75,2.123 -13.33,3.869 -9.67,29.003 3.26,40.096 30.96,44.713 12.99,2.165 20.57,-20.43 23.26,-29.862 6.05,-21.165 4.84,-134.677 2.42,-156.477 -0.59,-5.279 2.05,-15.148 -2.15,-19.347 -5.72,-5.722 -14.48,1.917 -20.69,1.917"
   style="fill:#959799"
   id="path32" />
                </g>
                <g
   transform="translate(40.9277,-237.354)"
   id="g38">
                    <path
   d="m 1667.73,337.467 c -0.23,0.012 -0.61,-8.146 -0.73,-9.012 -0.59,-4.132 -1.33,-25.601 7.74,-21.067 4.95,2.476 8.55,25.174 4.73,27.086 -1.66,0.829 -6.77,0 -8.6,0 -0.9,0 -3.44,0.9 -3.44,0.43"
   style="fill:#959799"
   id="path36" />
                </g>
                <g
   transform="translate(40.9277,-237.354)"
   id="g42">
                    <path
   d="m 1355.55,636.055 c 0,0 11.95,-66.93 19.97,-86.981 2.88,-7.216 7.83,-14.229 10.7,-21.399 20.5,-51.26 68.28,-107.395 114.43,-138.163 29.56,-19.703 61.03,-31.352 93.97,-42.333 11.32,-3.771 23.78,-7.634 35.82,-8.839 15.25,-1.525 61.29,-4.279 73.5,-3.721 86.2,3.932 189.85,59.45 247.72,129.896 60.12,73.19 72.81,161.317 72.81,161.317 -7.94,-8.37 -11.97,-17.623 -19.48,-21.947 -28.11,-16.175 -56.62,-2.446 -75.41,24.631 -5.05,7.29 -5.13,15.773 -9.78,25.227 -60.06,-46.587 -98.81,-23.014 -137.99,20.558 -46.33,-65.295 -148.01,-60.55 -190.93,0.211 -31.67,-57.529 -96.29,-52.765 -133.04,-7.961 -25.1,-50.18 -57.34,-65.299 -99.07,-33.741"
   style="fill:#cefffe;font-variation-settings:normal;opacity:1;vector-effect:none;fill-opacity:1;stroke-width:1;stroke-linecap:butt;stroke-linejoin:miter;stroke-miterlimit:2;stroke-dasharray:none;stroke-dashoffset:0;stroke-opacity:1;-inkscape-stroke:none;stop-color:#000000;stop-opacity:1"
   id="path40" />
                </g>
                <g
   transform="translate(40.9277,-237.354)"
   id="g46">
                    <path
   d="m 1457.84,666.551 c -4.55,-74.736 23.7,-150.987 58.91,-211.232 30.67,-52.476 90.27,-104.396 151.48,-121.575 19.67,-5.522 32.12,0.71 35.71,0.875 86.2,3.932 189.85,59.45 247.72,129.896 60.12,73.19 72.81,161.317 72.81,161.317 -7.94,-8.37 -11.97,-17.623 -19.48,-21.947 -28.11,-16.175 -56.62,-2.446 -75.41,24.631 -5.05,7.29 -5.13,15.773 -9.78,25.227 -60.06,-46.587 -97.44,-24.149 -136.61,19.423 -71.59,-64.742 -145.89,-58.891 -192.45,-2.55 -36.51,-55.829 -102.98,-49.486 -132.9,-4.065 z"
   style="fill:#e7410b"
   id="path44" />
                </g>
                <g
   transform="translate(1318.88,-1803.83)"
   id="g50">
                    <path
   d="m 490.906,1930.51 c -1.377,0.76 -2.212,2.22 -2.16,3.79 0.053,1.57 0.984,2.98 2.409,3.64 l 34.577,16.06 c 1.692,0.79 3.7,0.35 4.916,-1.06 1.216,-1.42 1.342,-3.47 0.31,-5.02 l -17.057,-25.68 c -1.197,-1.8 -3.577,-2.39 -5.475,-1.35 z m 11.229,3.34 6.944,-3.81 c 0,0 6.76,10.18 6.76,10.18 z"
   style="fill:#000344;font-variation-settings:normal;opacity:1;vector-effect:none;fill-opacity:1;stroke-width:1;stroke-linecap:butt;stroke-linejoin:miter;stroke-miterlimit:2;stroke-dasharray:none;stroke-dashoffset:0;stroke-opacity:1;-inkscape-stroke:none;stop-color:#000000;stop-opacity:1"
   id="path48" />
                </g>
                <g
   transform="translate(1318.88,-1803.83)"
   id="g54">
                    <path
   d="m 531.579,1967.69 c 4.422,3.67 22.876,18.9 26.954,20.87 2.027,0.98 3.556,0.53 4.211,0.24 1.512,-0.68 2.544,-1.88 2.544,-3.94 0,-1.04 -0.5,-3.35 -1.483,-6.33 -3.169,-9.61 -11.087,-28.26 -11.087,-28.26 -0.47,-1.11 -1.396,-1.96 -2.539,-2.34 -1.143,-0.37 -2.391,-0.23 -3.425,0.38 0,0 -13.941,8.41 -16.811,11.5 -2.555,2.75 -1.475,5.37 -0.556,6.46 0.394,0.47 1.068,1.11 2.193,1.42 z m 7.85,-4.47 7.562,-5.06 c 1.718,4.15 4.273,10.41 6.393,16.01 z m -6.185,-3.68 h 0.009 z"
   style="fill:#000344;font-variation-settings:normal;opacity:1;vector-effect:none;fill-opacity:1;stroke-width:1;stroke-linecap:butt;stroke-linejoin:miter;stroke-miterlimit:2;stroke-dasharray:none;stroke-dashoffset:0;stroke-opacity:1;-inkscape-stroke:none;stop-color:#000000;stop-opacity:1"
   id="path52" />
                </g>
                <g
   transform="translate(1318.88,-1803.83)"
   id="g58">
                    <path
   d="m 566.14,1973.64 c -1.022,1.02 -1.442,2.5 -1.107,3.91 0.335,1.41 1.375,2.54 2.749,3 6.37,2.09 18.835,11.21 24.313,14.01 2.159,1.11 3.873,1.37 4.716,1.28 1.228,-0.12 2.117,-0.64 2.772,-1.3 0.494,-0.49 1.095,-1.3 1.265,-2.63 0.084,-0.65 -0.002,-2.11 -0.448,-4.08 -1.045,-4.6 -3.91,-13.49 -6.184,-19.05 -1.243,-3.04 -2.513,-5.21 -3.233,-5.93 -1.153,-1.15 -2.672,-1.8 -4.553,-1.81 -1.488,0 -3.376,0.49 -5.411,1.47 -5.704,2.75 -13.37,9.62 -14.879,11.13 z m 19.355,-3.91 c 0.397,0.83 0.923,1.98 1.346,3.05 1.167,2.95 2.553,7.39 3.666,11.16 -0.53,-0.32 -1.057,-0.64 -1.566,-0.96 -3.933,-2.49 -8.409,-5.33 -12.339,-7.47 v 0 c 1.846,-1.51 4.005,-3.14 6.06,-4.4 0.869,-0.53 2.034,-1.05 2.833,-1.38 z"
   style="fill:#000344;font-variation-settings:normal;opacity:1;vector-effect:none;fill-opacity:1;stroke-width:1;stroke-linecap:butt;stroke-linejoin:miter;stroke-miterlimit:2;stroke-dasharray:none;stroke-dashoffset:0;stroke-opacity:1;-inkscape-stroke:none;stop-color:#000000;stop-opacity:1"
   id="path56" />
                </g>
                <g
   transform="translate(1318.88,-1803.83)"
   id="g62">
                    <path
   d="m 578.395,2011.04 c -0.925,0.41 -1.58,1.06 -2.017,1.89 -0.268,0.5 -1.133,2.9 1.023,5.47 3.928,4.68 27.732,26.23 27.732,26.23 1.304,1.18 3.208,1.42 4.759,0.59 1.55,-0.83 2.414,-2.54 2.158,-4.28 0,0 -3.111,-21.11 -5.527,-30.73 -0.871,-3.46 -2.036,-5.75 -2.697,-6.42 -0.64,-0.64 -1.52,-1.17 -2.717,-1.39 -0.939,-0.17 -2.369,-0.12 -4.105,0.33 -5.783,1.49 -17.681,7.9 -18.609,8.31 z m 19.689,0.12 c 0.384,1.38 0.881,3.26 1.24,4.96 0.914,4.33 1.856,9.65 2.639,14.35 -5.169,-4.74 -11.426,-10.56 -15.235,-14.34 2.603,-1.31 5.832,-2.87 8.696,-4.04 0.838,-0.35 1.824,-0.67 2.66,-0.93 z m -16.021,7.36 c -0.091,0.05 -0.186,0.09 -0.283,0.14 0.055,-0.03 0.151,-0.07 0.283,-0.14 z"
   style="fill:#000344;font-variation-settings:normal;opacity:1;vector-effect:none;fill-opacity:1;stroke-width:1;stroke-linecap:butt;stroke-linejoin:miter;stroke-miterlimit:2;stroke-dasharray:none;stroke-dashoffset:0;stroke-opacity:1;-inkscape-stroke:none;stop-color:#000000;stop-opacity:1"
   id="path60" />
                </g>
                <g
   transform="translate(1318.88,-1803.83)"
   id="g66">
                    <path
   d="m 622.145,2016.55 c -1.265,0.55 -2.176,1.69 -2.434,3.05 -0.258,1.35 0.172,2.75 1.147,3.72 l 20.507,20.51 c 1.257,1.26 3.172,1.58 4.77,0.8 1.598,-0.78 2.527,-2.49 2.313,-4.25 l -3.382,-27.94 c -0.158,-1.3 -0.924,-2.46 -2.065,-3.11 -1.141,-0.66 -2.524,-0.73 -3.731,-0.21 z m 8.936,5.21 6.383,-2.77 c 0,0 1.261,10.41 1.261,10.41 z"
   style="fill:#000344;font-variation-settings:normal;opacity:1;vector-effect:none;fill-opacity:1;stroke-width:1;stroke-linecap:butt;stroke-linejoin:miter;stroke-miterlimit:2;stroke-dasharray:none;stroke-dashoffset:0;stroke-opacity:1;-inkscape-stroke:none;stop-color:#000000;stop-opacity:1"
   id="path64" />
                </g>
                <g
   transform="translate(1318.88,-1803.83)"
   id="g70">
                    <path
   d="m 611.55,2065.99 c -1.125,0.58 -1.924,1.65 -2.172,2.89 -0.248,1.24 0.082,2.53 0.896,3.49 l 21.945,26.12 c 1.139,1.35 3.01,1.84 4.666,1.21 1.655,-0.62 2.734,-2.23 2.69,-4 l -0.928,-36.98 c -0.036,-1.44 -0.808,-2.75 -2.044,-3.48 -1.236,-0.74 -2.761,-0.78 -4.036,-0.12 z m 8.455,5.01 10.478,-5.42 c 0,0 0.463,18.44 0.463,18.44 z"
   style="fill:#000344;font-variation-settings:normal;opacity:1;vector-effect:none;fill-opacity:1;stroke-width:1;stroke-linecap:butt;stroke-linejoin:miter;stroke-miterlimit:2;stroke-dasharray:none;stroke-dashoffset:0;stroke-opacity:1;-inkscape-stroke:none;stop-color:#000000;stop-opacity:1"
   id="path68" />
                </g>
                <g
   transform="translate(1318.88,-1803.83)"
   id="g74">
                    <path
   d="m 649.397,2055.94 c -1.104,0.72 -1.8,1.93 -1.875,3.25 -0.075,1.32 0.479,2.59 1.494,3.44 l 23.724,19.74 c 1.355,1.13 3.272,1.29 4.789,0.39 1.516,-0.9 2.304,-2.66 1.966,-4.39 l -6.106,-31.29 c -0.266,-1.36 -1.193,-2.5 -2.471,-3.04 -1.279,-0.54 -2.743,-0.41 -3.903,0.35 z m 9.277,3.88 7.723,-5.06 c 0,0 2.677,13.72 2.677,13.72 z"
   style="fill:#000344;font-variation-settings:normal;opacity:1;vector-effect:none;fill-opacity:1;stroke-width:1;stroke-linecap:butt;stroke-linejoin:miter;stroke-miterlimit:2;stroke-dasharray:none;stroke-dashoffset:0;stroke-opacity:1;-inkscape-stroke:none;stop-color:#000000;stop-opacity:1"
   id="path72" />
                </g>
                <g
   transform="translate(1318.88,-1803.83)"
   id="g78">
                    <path
   d="m 628.403,2119.63 c -1.26,0.44 -2.237,1.45 -2.628,2.72 -0.391,1.27 -0.15,2.66 0.65,3.72 l 21.83,29.11 c 1.085,1.45 2.978,2.03 4.687,1.44 1.709,-0.59 2.845,-2.21 2.812,-4.01 l -0.661,-36.39 c -0.024,-1.33 -0.685,-2.57 -1.777,-3.34 -1.091,-0.76 -2.483,-0.96 -3.744,-0.52 z m 8.123,6.02 10.339,-3.55 c 0,0 0.323,17.77 0.323,17.77 z"
   style="fill:#000344;font-variation-settings:normal;opacity:1;vector-effect:none;fill-opacity:1;stroke-width:1;stroke-linecap:butt;stroke-linejoin:miter;stroke-miterlimit:2;stroke-dasharray:none;stroke-dashoffset:0;stroke-opacity:1;-inkscape-stroke:none;stop-color:#000000;stop-opacity:1"
   id="path76" />
                </g>
                <g
   transform="translate(1318.88,-1803.83)"
   id="g82">
                    <path
   d="m 663.621,2124.12 c -1.058,0.72 -1.728,1.88 -1.818,3.16 -0.09,1.27 0.41,2.52 1.356,3.38 l 22.612,20.51 c 1.3,1.18 3.201,1.42 4.752,0.6 1.551,-0.83 2.42,-2.53 2.173,-4.27 l -4.655,-32.69 c -0.203,-1.42 -1.125,-2.64 -2.439,-3.22 -1.314,-0.59 -2.835,-0.45 -4.025,0.36 z m 9.062,3.93 8.048,-5.46 c 0,0 2.086,14.65 2.086,14.65 z"
   style="fill:#000344;font-variation-settings:normal;opacity:1;vector-effect:none;fill-opacity:1;stroke-width:1;stroke-linecap:butt;stroke-linejoin:miter;stroke-miterlimit:2;stroke-dasharray:none;stroke-dashoffset:0;stroke-opacity:1;-inkscape-stroke:none;stop-color:#000000;stop-opacity:1"
   id="path80" />
                </g>
                <g
   transform="translate(1318.88,-1803.83)"
   id="g86">
                    <path
   d="m 678.585,2089.8 c -1.211,0.65 -2.024,1.86 -2.174,3.22 -0.15,1.37 0.382,2.72 1.423,3.61 l 23.823,20.51 c 1.347,1.16 3.28,1.34 4.816,0.44 1.535,-0.89 2.334,-2.66 1.99,-4.4 l -5.937,-30.09 c -0.256,-1.3 -1.112,-2.4 -2.306,-2.96 -1.194,-0.57 -2.585,-0.53 -3.75,0.09 z m 9.289,4.48 7.566,-4.06 c 0,0 2.513,12.73 2.513,12.73 z"
   style="fill:#000344;font-variation-settings:normal;opacity:1;vector-effect:none;fill-opacity:1;stroke-width:1;stroke-linecap:butt;stroke-linejoin:miter;stroke-miterlimit:2;stroke-dasharray:none;stroke-dashoffset:0;stroke-opacity:1;-inkscape-stroke:none;stop-color:#000000;stop-opacity:1"
   id="path84" />
                </g>
                <g
   transform="translate(40.9277,-237.354)"
   id="g122">
                    <g
   id="g102">
                        <path
   d="m 1354.45,643.366 c 24.88,-166.751 124.31,-263.542 239.68,-295.387 173.05,-47.766 381.68,50.484 427.47,277.077 0.32,1.578 1.86,2.6 3.44,2.281 1.58,-0.319 2.6,-1.858 2.28,-3.436 -46.56,-230.388 -258.79,-330.111 -434.74,-281.545 -117.3,32.377 -218.6,130.612 -243.9,300.149 -0.24,1.592 0.86,3.077 2.46,3.315 1.59,0.237 3.07,-0.862 3.31,-2.454 z"
   style="fill:#000344;font-variation-settings:normal;opacity:1;vector-effect:none;fill-opacity:1;stroke-width:1;stroke-linecap:butt;stroke-linejoin:miter;stroke-miterlimit:2;stroke-dasharray:none;stroke-dashoffset:0;stroke-opacity:1;-inkscape-stroke:none;stop-color:#000000;stop-opacity:1"
   id="path88" />
                        <path
   d="m 1592.37,675.605 c 10.18,-22.291 33.93,-37.816 61.99,-44.055 42.54,-9.456 95.12,2.443 126.83,45.239 0.96,1.293 2.79,1.565 4.08,0.607 1.29,-0.959 1.56,-2.787 0.61,-4.08 -33.21,-44.815 -88.24,-57.362 -132.78,-47.46 -29.98,6.665 -55.16,23.513 -66.04,47.326 -0.67,1.464 -0.02,3.196 1.44,3.864 1.47,0.669 3.2,0.024 3.87,-1.441 z"
   style="fill:#000344;font-variation-settings:normal;opacity:1;vector-effect:none;fill-opacity:1;stroke-width:1;stroke-linecap:butt;stroke-linejoin:miter;stroke-miterlimit:2;stroke-dasharray:none;stroke-dashoffset:0;stroke-opacity:1;-inkscape-stroke:none;stop-color:#000000;stop-opacity:1"
   id="path90" />
                        <path
   d="m 1788.38,672.128 c 13.89,-35.625 55.49,-46.424 87.27,-40.714 20.54,3.69 37.23,14.16 38.68,30.029 0.15,1.603 1.57,2.786 3.17,2.639 1.61,-0.146 2.79,-1.567 2.64,-3.17 -1.66,-18.131 -19.99,-31.023 -43.46,-35.239 -34.21,-6.148 -78.78,5.976 -93.74,44.335 -0.58,1.5 0.16,3.192 1.66,3.777 1.5,0.585 3.19,-0.157 3.78,-1.657 z"
   style="fill:#000344;font-variation-settings:normal;opacity:1;vector-effect:none;fill-opacity:1;stroke-width:1;stroke-linecap:butt;stroke-linejoin:miter;stroke-miterlimit:2;stroke-dasharray:none;stroke-dashoffset:0;stroke-opacity:1;-inkscape-stroke:none;stop-color:#000000;stop-opacity:1"
   id="path92" />
                        <g
   transform="translate(-326.847,13.8418)"
   id="g96">
                            <path
   d="m 1786.01,654.525 c 17.82,-34.806 57.15,-41.222 87.92,-31.281 20.3,6.558 37,20.216 41.02,37.888 0.36,1.569 1.92,2.554 3.49,2.197 1.57,-0.357 2.56,-1.921 2.2,-3.491 -4.43,-19.492 -22.53,-34.912 -44.92,-42.145 -33.25,-10.745 -75.64,-3.449 -94.91,34.173 -0.73,1.433 -0.16,3.192 1.27,3.926 1.43,0.733 3.19,0.166 3.93,-1.267 z"
   style="fill:#000344;font-variation-settings:normal;opacity:1;vector-effect:none;fill-opacity:1;stroke-width:1;stroke-linecap:butt;stroke-linejoin:miter;stroke-miterlimit:2;stroke-dasharray:none;stroke-dashoffset:0;stroke-opacity:1;-inkscape-stroke:none;stop-color:#000000;stop-opacity:1"
   id="path94" />
                        </g>
                        <path
   d="m 1354.13,644.703 c 10.41,-28.373 48.73,-37.481 74.87,-17.538 11.4,8.698 20.46,22.909 24.12,43.374 0.29,1.585 1.8,2.641 3.39,2.357 1.58,-0.283 2.64,-1.8 2.36,-3.384 -3.98,-22.208 -13.96,-37.546 -26.33,-46.984 -29.33,-22.376 -72.21,-11.667 -83.89,20.166 -0.55,1.511 0.23,3.188 1.74,3.743 1.51,0.554 3.19,-0.222 3.74,-1.734 z"
   style="fill:#000344;font-variation-settings:normal;opacity:1;vector-effect:none;fill-opacity:1;stroke-width:1;stroke-linecap:butt;stroke-linejoin:miter;stroke-miterlimit:2;stroke-dasharray:none;stroke-dashoffset:0;stroke-opacity:1;-inkscape-stroke:none;stop-color:#000000;stop-opacity:1"
   id="path98" />
                        <path
   d="m 1920.86,658.898 c 2.6,-34.386 33.08,-56.513 60.62,-57.919 17.9,-0.914 34.59,7.102 41.07,26.644 0.51,1.528 2.16,2.357 3.69,1.85 1.53,-0.507 2.36,-2.159 1.85,-3.687 -7.42,-22.362 -26.42,-31.679 -46.91,-30.633 -30.07,1.535 -63.3,25.756 -66.14,63.305 -0.12,1.605 1.09,3.007 2.69,3.128 1.61,0.122 3.01,-1.083 3.13,-2.688 z"
   style="fill:#000344;font-variation-settings:normal;opacity:1;vector-effect:none;fill-opacity:1;stroke-width:1;stroke-linecap:butt;stroke-linejoin:miter;stroke-miterlimit:2;stroke-dasharray:none;stroke-dashoffset:0;stroke-opacity:1;-inkscape-stroke:none;stop-color:#000000;stop-opacity:1"
   id="path100" />
                    </g>
                    <path
   d="m 1669.96,332.927 c -0.05,-1.142 -0.31,-7.809 -0.31,-9.008 0,-3.101 -0.49,-6.783 -0.21,-10.063 0.19,-2.297 0.69,-4.427 2.78,-5.471 0.38,-0.19 0.69,-0.33 0.99,-0.273 0.48,0.094 0.72,0.609 1.03,1.156 0.45,0.822 0.81,1.841 1.11,2.975 1.79,6.698 1.49,16.943 1.49,20.05 0,1.609 1.3,2.916 2.92,2.916 1.61,0 2.91,-1.307 2.91,-2.916 0,-3.965 0.24,-18.533 -2.99,-25.194 -1.23,-2.534 -2.98,-4.121 -5.02,-4.638 -1.45,-0.367 -3.13,-0.25 -5.05,0.707 -3.31,1.656 -4.97,4.483 -5.66,7.906 -0.81,3.964 -0.14,8.854 -0.14,12.845 0,1.469 0.17,8.951 0.42,10.271 0.31,1.594 1.37,2.128 1.7,2.282 0.97,0.454 1.97,0.435 2.96,-0.283 1.05,-0.76 1.45,-2.091 1.07,-3.262 z m -1.98,-1.904 c -0.78,-0.253 -1.58,-0.177 -2.37,0.349 0.72,-0.468 1.59,-0.573 2.37,-0.349 z"
   style="fill:#000344;font-variation-settings:normal;opacity:1;vector-effect:none;fill-opacity:1;stroke-width:1;stroke-linecap:butt;stroke-linejoin:miter;stroke-miterlimit:2;stroke-dasharray:none;stroke-dashoffset:0;stroke-opacity:1;-inkscape-stroke:none;stop-color:#000000;stop-opacity:1"
   id="path104" />
                    <path
   d="m 1593.53,669.419 c 2.34,-150.967 32.95,-280.919 79.88,-333.247 0.54,-0.599 0.49,-1.522 -0.11,-2.059 -0.6,-0.537 -1.52,-0.487 -2.06,0.112 -47.21,52.636 -78.27,183.29 -80.63,335.148 -0.01,0.805 0.64,1.469 1.44,1.481 0.8,0.013 1.47,-0.631 1.48,-1.435 z"
   style="fill:#000344;font-variation-settings:normal;opacity:1;vector-effect:none;fill-opacity:1;stroke-width:1;stroke-linecap:butt;stroke-linejoin:miter;stroke-miterlimit:2;stroke-dasharray:none;stroke-dashoffset:0;stroke-opacity:1;-inkscape-stroke:none;stop-color:#000000;stop-opacity:1"
   id="path106" />
                    <path
   d="m 1457.18,666.336 c 3.59,-126.479 61.61,-285.093 214.58,-331.754 0.77,-0.235 1.21,-1.051 0.97,-1.82 -0.23,-0.77 -1.05,-1.205 -1.82,-0.97 -154.29,47.062 -213.02,206.896 -216.65,334.461 -0.02,0.804 0.61,1.476 1.42,1.499 0.8,0.023 1.47,-0.612 1.5,-1.416 z"
   style="fill:#000344;font-variation-settings:normal;opacity:1;vector-effect:none;fill-opacity:1;stroke-width:1;stroke-linecap:butt;stroke-linejoin:miter;stroke-miterlimit:2;stroke-dasharray:none;stroke-dashoffset:0;stroke-opacity:1;-inkscape-stroke:none;stop-color:#000000;stop-opacity:1"
   id="path108" />
                    <path
   d="m 1785.94,672.008 c -0.83,-56.719 -16.85,-150.924 -43.62,-227.119 -17.92,-51.039 -40.73,-93.985 -66.92,-112.419 -0.65,-0.463 -1.56,-0.305 -2.03,0.353 -0.46,0.658 -0.3,1.568 0.36,2.032 25.83,18.185 48.16,60.651 65.84,111 26.66,75.887 42.63,169.707 43.46,226.196 0.01,0.805 0.67,1.449 1.48,1.437 0.8,-0.012 1.44,-0.675 1.43,-1.48 z"
   style="fill:#000344;font-variation-settings:normal;opacity:1;vector-effect:none;fill-opacity:1;stroke-width:1;stroke-linecap:butt;stroke-linejoin:miter;stroke-miterlimit:2;stroke-dasharray:none;stroke-dashoffset:0;stroke-opacity:1;-inkscape-stroke:none;stop-color:#000000;stop-opacity:1"
   id="path110" />
                    <path
   d="m 1920.23,660.817 c -8.69,-131.698 -97.09,-289.651 -238.96,-327.097 -0.78,-0.206 -1.58,0.259 -1.78,1.038 -0.21,0.778 0.26,1.576 1.03,1.782 140.68,37.132 228.18,193.877 236.8,324.469 0.06,0.803 0.75,1.412 1.56,1.359 0.8,-0.053 1.41,-0.748 1.35,-1.551 z"
   style="fill:#000344;font-variation-settings:normal;opacity:1;vector-effect:none;fill-opacity:1;stroke-width:1;stroke-linecap:butt;stroke-linejoin:miter;stroke-miterlimit:2;stroke-dasharray:none;stroke-dashoffset:0;stroke-opacity:1;-inkscape-stroke:none;stop-color:#000000;stop-opacity:1"
   id="path112" />
                    <path
   d="m 1647.79,779.874 c -5.13,-2.334 -9.33,0.135 -11.8,2.601 -0.63,0.633 -1.35,2.046 -1.81,3.904 -0.71,2.868 -1.14,7.057 -1.34,8.446 -1.62,11.339 -0.97,18.753 1.61,24.048 2.06,4.234 5.32,7.236 9.87,9.719 4.09,2.234 9.29,4.059 15.61,6.163 1.26,0.421 5.31,1.444 8.26,1.706 1.85,0.166 3.39,-0.067 4.2,-0.469 19.36,-9.68 26.22,-28.649 27.78,-50.272 1.71,-23.586 -2.61,-137.985 -2.61,-158.028 0,-1.609 -1.31,-2.916 -2.92,-2.916 -1.61,0 -2.91,1.307 -2.91,2.916 0,19.989 4.33,134.083 2.63,157.607 -1.41,19.381 -7.11,36.626 -24.37,45.371 -0.3,-0.003 -1.5,-0.025 -2.35,-0.144 -2.3,-0.328 -4.95,-1 -5.87,-1.305 -5.92,-1.974 -10.81,-3.653 -14.65,-5.749 -3.39,-1.847 -5.89,-4.001 -7.43,-7.15 -2.21,-4.548 -2.47,-10.933 -1.07,-20.672 0.16,-1.123 0.47,-4.19 0.97,-6.747 0.19,-0.913 0.59,-2.166 0.68,-2.455 1.16,-1.11 3.02,-2.312 5.32,-1.162 0.59,0.296 1.58,0.5 2.8,0.413 0.59,-0.042 1.55,-0.144 2.37,-0.237 0.03,3.91 0.3,13.858 2.05,19.769 1.28,4.328 3.58,7.516 6.85,8.615 2.23,0.749 5.04,0.634 8.54,-1.114 5.87,-2.934 8.55,-7.83 9.7,-13.488 1,-4.972 0.75,-10.565 0.75,-15.637 0,-22.97 -2.05,-133.847 -1.09,-156.974 0.07,-1.608 -1.18,-2.968 -2.79,-3.035 -1.61,-0.068 -2.97,1.184 -3.04,2.792 -0.96,23.163 1.09,134.211 1.09,157.217 0,4.696 0.29,9.877 -0.64,14.481 -0.79,3.917 -2.53,7.396 -6.59,9.427 -1.68,0.843 -3,1.162 -4.07,0.801 -1.69,-0.566 -2.46,-2.509 -3.12,-4.739 -1.88,-6.341 -1.48,-15.422 -1.73,-19.259 -0.08,-1.247 -0.28,-2.141 -0.47,-2.603 -0.21,-0.497 -0.48,-0.849 -0.73,-1.1 -0.68,-0.682 -2.04,-1.243 -3.81,-1.155 -1.11,0.056 -3.31,0.34 -3.87,0.414 z"
   style="fill:#000344;font-variation-settings:normal;opacity:1;vector-effect:none;fill-opacity:1;stroke-width:1;stroke-linecap:butt;stroke-linejoin:miter;stroke-miterlimit:2;stroke-dasharray:none;stroke-dashoffset:0;stroke-opacity:1;-inkscape-stroke:none;stop-color:#000000;stop-opacity:1"
   id="path114" />
                    <path
   d="m 1640.28,790.249 c 1.13,-1.429 2.76,-1.449 4.48,-1.345 2.36,0.144 4.9,0.591 7.17,0.024 0.78,-0.195 1.26,-0.987 1.06,-1.768 -0.19,-0.781 -0.99,-1.256 -1.77,-1.061 -1.98,0.497 -4.21,0.02 -6.28,-0.106 -2.71,-0.165 -5.17,0.197 -6.95,2.446 -0.5,0.631 -0.39,1.549 0.24,2.048 0.63,0.5 1.55,0.393 2.05,-0.238 z"
   style="fill:#000344;font-variation-settings:normal;opacity:1;vector-effect:none;fill-opacity:1;stroke-width:1;stroke-linecap:butt;stroke-linejoin:miter;stroke-miterlimit:2;stroke-dasharray:none;stroke-dashoffset:0;stroke-opacity:1;-inkscape-stroke:none;stop-color:#000000;stop-opacity:1"
   id="path116" />
                    <path
   d="m 1680.54,761.683 c 5.65,0.003 11.04,1.396 16.88,1.396 0.8,0 1.46,-0.654 1.46,-1.458 0,-0.805 -0.66,-1.459 -1.46,-1.459 -5.84,0 -11.23,-1.392 -16.88,-1.396 -0.8,0 -1.45,0.653 -1.45,1.458 0,0.805 0.65,1.459 1.45,1.459 z"
   style="fill:#000344;font-variation-settings:normal;opacity:1;vector-effect:none;fill-opacity:1;stroke-width:1;stroke-linecap:butt;stroke-linejoin:miter;stroke-miterlimit:2;stroke-dasharray:none;stroke-dashoffset:0;stroke-opacity:1;-inkscape-stroke:none;stop-color:#000000;stop-opacity:1"
   id="path118" />
                    <path
   d="m 1679.52,770.483 c 0.12,-0.057 0.4,-0.185 0.63,-0.252 0.5,-0.147 1.12,-0.263 1.82,-0.36 4.45,-0.616 11.78,-0.362 13.57,-0.362 0.81,0 1.46,-0.654 1.46,-1.458 0,-0.805 -0.65,-1.459 -1.46,-1.459 -2.13,0 -11.76,-0.304 -15.87,0.747 -0.81,0.207 -1.45,0.478 -1.87,0.774 -0.54,0.373 -0.84,0.824 -0.97,1.281 -0.23,0.773 0.22,1.583 0.99,1.808 0.68,0.196 1.38,-0.119 1.7,-0.719 z"
   style="fill:#000344;font-variation-settings:normal;opacity:1;vector-effect:none;fill-opacity:1;stroke-width:1;stroke-linecap:butt;stroke-linejoin:miter;stroke-miterlimit:2;stroke-dasharray:none;stroke-dashoffset:0;stroke-opacity:1;-inkscape-stroke:none;stop-color:#000000;stop-opacity:1"
   id="path120" />
                </g>
            </g>
            <g
   transform="translate(1318.88,-1803.83)"
   id="g128">
                <path
   d="m 311.749,2205.35 c -0.896,-1.08 -8.111,-9.74 -12.378,-14.36 -2.559,-2.76 -5.01,-4.77 -6.71,-5.44 -12.125,-4.85 -22.179,-11.73 -35.392,-14.37 -10.725,-2.14 -42.724,1.66 -61.887,10.15 -5.301,2.35 -9.653,5.08 -12.508,8.04 -2.358,2.45 -3.779,5.11 -4.218,7.87 -0.361,2.28 1.189,4.41 3.46,4.77 2.271,0.37 4.409,-1.18 4.77,-3.46 0.258,-1.62 1.458,-3.03 3.084,-4.42 2.226,-1.91 5.262,-3.62 8.786,-5.18 17.626,-7.81 47.014,-11.57 56.878,-9.6 12.689,2.54 22.289,9.27 33.932,13.93 1.232,0.5 2.856,2.41 4.761,4.56 3.715,4.2 7.81,9.57 10.456,12.37 1.115,1.18 2.094,2 2.788,2.41 1.023,0.61 1.944,0.77 2.642,0.77 2.3,0 4.167,-1.87 4.167,-4.17 0,-1.76 -1.09,-3.26 -2.631,-3.87 z"
   style="fill:#000344;font-variation-settings:normal;opacity:1;vector-effect:none;fill-opacity:1;stroke-width:1;stroke-linecap:butt;stroke-linejoin:miter;stroke-miterlimit:2;stroke-dasharray:none;stroke-dashoffset:0;stroke-opacity:1;-inkscape-stroke:none;stop-color:#000000;stop-opacity:1"
   id="path126" />
            </g>
            <g
   transform="translate(1318.88,-1803.83)"
   id="g132">
                <path
   d="m 189.583,2161.14 c -2.093,-0.02 -3.916,1.54 -4.178,3.66 -0.282,2.28 1.343,4.36 3.625,4.65 0.897,0.11 3.229,-0.26 6.341,-1.38 8.718,-3.13 26.911,-11.59 31.152,-12.86 17.546,-5.27 40.056,-5.26 58.34,1.76 11.759,4.52 21.773,11.97 27.283,22.99 1.028,2.06 3.533,2.89 5.59,1.86 2.057,-1.03 2.892,-3.53 1.863,-5.59 -6.44,-12.88 -18.001,-21.75 -31.746,-27.03 -19.972,-7.68 -44.558,-7.73 -63.724,-1.98 -3.781,1.14 -18.457,7.85 -28.014,11.65 -2.895,1.15 -6.118,2.15 -6.532,2.27 z"
   style="fill:#000344;font-variation-settings:normal;opacity:1;vector-effect:none;fill-opacity:1;stroke-width:1;stroke-linecap:butt;stroke-linejoin:miter;stroke-miterlimit:2;stroke-dasharray:none;stroke-dashoffset:0;stroke-opacity:1;-inkscape-stroke:none;stop-color:#000000;stop-opacity:1"
   id="path130" />
            </g>
            <g
   transform="translate(1318.88,-1803.83)"
   id="g136">
                <path
   d="m 197.711,2129.61 c 1.381,-1.08 3.07,-1.46 4.795,-1.71 2.886,-0.42 5.915,-0.41 8.65,-0.87 11.117,-1.85 22.537,-3.93 34.323,-4.91 20.798,-1.73 39.921,4.72 57.919,13.72 0.784,0.39 1.421,1.45 2.187,2.58 1.879,2.77 3.715,6.29 5.459,8.74 2.245,3.16 4.895,4.69 6.951,4.69 2.299,0 4.166,-1.87 4.166,-4.17 0,-1.98 -1.381,-3.64 -3.232,-4.06 -0.378,-0.46 -1.514,-1.87 -2.203,-2.97 -1.564,-2.51 -3.194,-5.49 -4.848,-7.77 -1.534,-2.12 -3.191,-3.71 -4.753,-4.49 -19.358,-9.68 -39.969,-16.44 -62.338,-14.57 -12.018,1 -23.665,3.1 -35.001,4.99 -2.68,0.45 -5.649,0.43 -8.476,0.84 -3.747,0.55 -7.253,1.76 -10.055,4.57 -0.442,0.44 -1.367,1.66 -1.51,2.05 -0.495,1.34 -0.249,2.45 0.164,3.3 0.461,0.94 1.239,1.83 2.709,2.22 0.349,0.09 1.292,0.39 2.91,-0.24 0.977,-0.37 1.731,-1.08 2.183,-1.94 z m -4.957,-5.91 h -0.01 l 0.06,-0.02 z"
   style="fill:#000344;font-variation-settings:normal;opacity:1;vector-effect:none;fill-opacity:1;stroke-width:1;stroke-linecap:butt;stroke-linejoin:miter;stroke-miterlimit:2;stroke-dasharray:none;stroke-dashoffset:0;stroke-opacity:1;-inkscape-stroke:none;stop-color:#000000;stop-opacity:1"
   id="path134" />
            </g>
            <g
   transform="translate(1318.88,-1803.83)"
   id="g140">
                <path
   d="m 208.185,2103.11 c 0.848,-0.29 2.76,-0.94 4.469,-1.38 6.452,-1.68 15.726,-3.41 17.55,-3.7 8.668,-1.33 47.82,-4.95 70.531,1.35 4.348,1.2 8.053,2.74 10.64,4.86 1.94,1.59 3.16,3.51 3.16,5.95 0,2.3 1.867,4.16 4.167,4.16 2.3,0 4.167,-1.86 4.167,-4.16 0,-9.09 -7.729,-15.47 -19.908,-18.84 -23.836,-6.61 -64.927,-2.95 -74.024,-1.55 -2.454,0.38 -17.636,3.27 -23.261,5.32 -2.458,0.89 -3.773,2.22 -4.17,2.91 -0.753,1.32 -0.756,2.59 -0.3,3.78 0.824,2.15 3.236,3.22 5.383,2.4 0.633,-0.25 1.172,-0.63 1.596,-1.1 z m 0.983,-3.68 -0.047,-0.19 c 0.052,0.19 0.089,0.38 0.111,0.57 l -0.024,-0.17 c -0.013,-0.07 -0.027,-0.14 -0.04,-0.21 z m -0.103,-0.38 0.051,0.17 -0.018,-0.07 z m -0.011,-0.04 c -0.021,-0.06 -0.044,-0.12 -0.068,-0.19 z"
   style="fill:#000344;font-variation-settings:normal;opacity:1;vector-effect:none;fill-opacity:1;stroke-width:1;stroke-linecap:butt;stroke-linejoin:miter;stroke-miterlimit:2;stroke-dasharray:none;stroke-dashoffset:0;stroke-opacity:1;-inkscape-stroke:none;stop-color:#000000;stop-opacity:1"
   id="path138" />
            </g>
            <g
   transform="translate(1318.88,-1803.83)"
   id="g144">
                <path
   d="m 218.171,2065.14 c -1.929,-0.88 -4.249,-0.16 -5.33,1.71 -1.149,1.99 -0.464,4.54 1.528,5.69 0.86,0.5 2.02,0.87 3.473,0.94 1.872,0.1 4.56,-0.31 7.648,-1.12 8.508,-2.23 20.776,-7.53 24.705,-8.31 25.771,-5.16 52.957,0.4 71.22,18.67 1.626,1.62 4.266,1.62 5.892,0 1.626,-1.63 1.626,-4.27 0,-5.9 -20.212,-20.21 -50.225,-26.65 -78.747,-20.94 -4.002,0.8 -16.516,6.15 -25.184,8.42 -2.041,0.54 -4.771,0.8 -5.205,0.84 z"
   style="fill:#000344;font-variation-settings:normal;opacity:1;vector-effect:none;fill-opacity:1;stroke-width:1;stroke-linecap:butt;stroke-linejoin:miter;stroke-miterlimit:2;stroke-dasharray:none;stroke-dashoffset:0;stroke-opacity:1;-inkscape-stroke:none;stop-color:#000000;stop-opacity:1"
   id="path142" />
            </g>
            <g
   transform="translate(1318.88,-1803.83)"
   id="g148">
                <path
   d="m 232.201,2043.11 c 1.721,-0.78 5.326,-2.39 5.761,-2.54 6.341,-2.11 11.807,-3.32 18.489,-3.32 24.638,0 47.359,3.1 64.964,20.71 0.512,0.51 1.231,1.01 2.096,1.45 0.533,0.27 1.495,0.71 2.063,0.97 0.679,1.38 2.099,2.33 3.739,2.33 2.299,0 4.166,-1.86 4.166,-4.16 0,-1.83 -0.847,-3.46 -2.572,-4.71 -0.97,-0.7 -3.425,-1.79 -3.77,-1.94 -19.219,-19.11 -43.829,-22.99 -70.686,-22.99 -7.631,0 -13.882,1.34 -21.124,3.75 -0.832,0.28 -8.004,3.26 -9.527,4.59 -1.598,1.4 -1.732,2.99 -1.634,3.92 0.138,1.33 0.743,3.41 3.841,3.89 1.712,0.26 3.343,-0.56 4.194,-1.95 z"
   style="fill:#000344;font-variation-settings:normal;opacity:1;vector-effect:none;fill-opacity:1;stroke-width:1;stroke-linecap:butt;stroke-linejoin:miter;stroke-miterlimit:2;stroke-dasharray:none;stroke-dashoffset:0;stroke-opacity:1;-inkscape-stroke:none;stop-color:#000000;stop-opacity:1"
   id="path146" />
            </g>
            <g
   transform="translate(1318.88,-1803.83)"
   id="g152">
                <path
   d="m 250.296,2012.32 c 13.925,-10.56 29.356,-11.05 43.779,-6.49 15.034,4.75 29.004,14.88 39.365,25.25 1.627,1.62 4.267,1.62 5.893,0 1.626,-1.63 1.626,-4.27 0,-5.9 -22.891,-22.89 -62.003,-43.82 -94.073,-19.5 -1.832,1.39 -2.191,4 -0.802,5.84 1.39,1.83 4.006,2.19 5.838,0.8 z"
   style="fill:#000344;font-variation-settings:normal;opacity:1;vector-effect:none;fill-opacity:1;stroke-width:1;stroke-linecap:butt;stroke-linejoin:miter;stroke-miterlimit:2;stroke-dasharray:none;stroke-dashoffset:0;stroke-opacity:1;-inkscape-stroke:none;stop-color:#000000;stop-opacity:1"
   id="path150" />
            </g>
            <g
   transform="translate(1318.88,-1803.83)"
   id="g156">
                <path
   d="m 272.417,1985.38 c 3.6,-0.62 6.876,-2.25 10.142,-3.91 2.482,-1.27 4.949,-2.58 7.729,-2.98 20.87,-2.98 38.857,0.19 53.763,15.09 1.626,1.63 4.267,1.63 5.893,0 1.626,-1.62 1.626,-4.26 0,-5.89 -16.894,-16.89 -37.182,-20.83 -60.834,-17.45 -3.696,0.53 -7.036,2.12 -10.336,3.8 -2.515,1.29 -4.995,2.65 -7.768,3.12 -2.266,0.39 -3.79,2.55 -3.401,4.82 0.39,2.26 2.546,3.79 4.812,3.4 z"
   style="fill:#000344;font-variation-settings:normal;opacity:1;vector-effect:none;fill-opacity:1;stroke-width:1;stroke-linecap:butt;stroke-linejoin:miter;stroke-miterlimit:2;stroke-dasharray:none;stroke-dashoffset:0;stroke-opacity:1;-inkscape-stroke:none;stop-color:#000000;stop-opacity:1"
   id="path154" />
            </g>
            <g
   transform="translate(1318.88,-1803.83)"
   id="g160">
                <path
   d="m 301.045,1954.08 c 1.715,-1.09 4.973,-1.05 8.885,-0.73 7.228,0.59 16.356,2.85 23.966,5.91 4.784,1.92 8.965,4.12 11.517,6.47 0.871,0.81 1.662,1.45 1.662,2.27 0,2.3 1.867,4.17 4.167,4.17 2.3,0 4.167,-1.87 4.167,-4.17 0,-2.19 -0.869,-4.48 -2.702,-6.67 -1.941,-2.33 -5.116,-4.67 -9.094,-6.77 -9.788,-5.18 -24.646,-9.18 -35.016,-9.64 -5.301,-0.24 -9.576,0.57 -12.013,2.12 -1.943,1.23 -2.52,3.81 -1.289,5.75 1.232,1.94 3.808,2.52 5.75,1.29 z"
   style="fill:#000344;font-variation-settings:normal;opacity:1;vector-effect:none;fill-opacity:1;stroke-width:1;stroke-linecap:butt;stroke-linejoin:miter;stroke-miterlimit:2;stroke-dasharray:none;stroke-dashoffset:0;stroke-opacity:1;-inkscape-stroke:none;stop-color:#000000;stop-opacity:1"
   id="path158" />
            </g>
            <g
   transform="translate(1318.88,-1803.83)"
   id="g164">
                <path
   d="m 338.731,1931.45 c 0.575,-1.01 1.682,-1.24 2.9,-1.27 1.454,-0.03 3.069,0.3 4.736,0.82 4.28,1.35 8.823,4.06 12.087,6.93 1.782,1.57 3.221,3.1 3.69,4.51 0.728,2.18 3.089,3.36 5.271,2.63 2.181,-0.72 3.362,-3.09 2.635,-5.27 -0.819,-2.45 -2.984,-5.39 -6.092,-8.13 -4.07,-3.58 -9.746,-6.93 -15.082,-8.61 -7.512,-2.38 -14.291,-1.17 -17.385,4.26 -1.139,2 -0.441,4.54 1.556,5.68 1.998,1.14 4.545,0.44 5.684,-1.55 z"
   style="fill:#000344;font-variation-settings:normal;opacity:1;vector-effect:none;fill-opacity:1;stroke-width:1;stroke-linecap:butt;stroke-linejoin:miter;stroke-miterlimit:2;stroke-dasharray:none;stroke-dashoffset:0;stroke-opacity:1;-inkscape-stroke:none;stop-color:#000000;stop-opacity:1"
   id="path162" />
            </g>
            <g
   transform="translate(1318.88,-1803.83)"
   id="g168">
                <path
   d="m 364.969,1920.2 c 0.535,-0.32 1.026,-0.15 1.486,0.1 0.88,0.49 1.697,1.22 2.495,1.97 2.094,1.96 4.097,3.99 5.895,4.89 2.057,1.03 4.561,0.2 5.59,-1.86 1.028,-2.06 0.193,-4.56 -1.864,-5.59 -0.827,-0.42 -1.642,-1.32 -2.569,-2.22 -1.473,-1.43 -3.054,-2.94 -4.716,-4 -3.269,-2.1 -6.815,-2.76 -10.676,-0.39 -1.96,1.21 -2.574,3.77 -1.372,5.73 1.203,1.96 3.771,2.58 5.731,1.37 z"
   style="fill:#000344;font-variation-settings:normal;opacity:1;vector-effect:none;fill-opacity:1;stroke-width:1;stroke-linecap:butt;stroke-linejoin:miter;stroke-miterlimit:2;stroke-dasharray:none;stroke-dashoffset:0;stroke-opacity:1;-inkscape-stroke:none;stop-color:#000000;stop-opacity:1"
   id="path166" />
            </g>
            <g
   transform="translate(1047.11,-323.199)"
   id="g172">
                <path
   d="m 352.181,684.295 c 40.929,-19.719 75.238,-13.86 103.327,16.033 l 6.469,-39.773 c 2.82,-17.868 -73.853,-38.87 -99.366,-12.123 -3.154,3.307 -10.43,35.863 -10.43,35.863 z"
   style="fill:#000344;font-variation-settings:normal;opacity:1;vector-effect:none;fill-opacity:1;stroke-width:1;stroke-linecap:butt;stroke-linejoin:miter;stroke-miterlimit:2;stroke-dasharray:none;stroke-dashoffset:0;stroke-opacity:1;-inkscape-stroke:none;stop-color:#000000;stop-opacity:1"
   id="path170" />
            </g>
            <g
   transform="translate(1069.59,-386.767)"
   id="g176">
                <path
   d="m 352.181,684.295 c 26.428,-18.169 76.915,-17.514 97.216,8.756 l 10.235,-33.599 c 2.821,-17.869 -65.612,-37.647 -91.124,-10.9 -3.155,3.307 -16.327,35.743 -16.327,35.743 z"
   style="fill:#000344;font-variation-settings:normal;opacity:1;vector-effect:none;fill-opacity:1;stroke-width:1;stroke-linecap:butt;stroke-linejoin:miter;stroke-miterlimit:2;stroke-dasharray:none;stroke-dashoffset:0;stroke-opacity:1;-inkscape-stroke:none;stop-color:#000000;stop-opacity:1"
   id="path174" />
            </g>
            <g
   transform="translate(1092.07,-450.336)"
   id="g180">
                <path
   d="m 369.06,679.064 c 20.76,-12.335 61.076,-12.935 81.012,15.107 l 17.179,-29.42 c -2.722,-13.652 -54.864,-39.589 -76.951,-15.448 -3.085,3.371 -21.24,29.761 -21.24,29.761 z"
   style="fill:#000344;font-variation-settings:normal;opacity:1;vector-effect:none;fill-opacity:1;stroke-width:1;stroke-linecap:butt;stroke-linejoin:miter;stroke-miterlimit:2;stroke-dasharray:none;stroke-dashoffset:0;stroke-opacity:1;-inkscape-stroke:none;stop-color:#000000;stop-opacity:1"
   id="path178" />
            </g>
            <g
   transform="translate(1114.55,-513.905)"
   id="g184">
                <path
   d="m 402.919,682.805 c 16.002,-7.297 51.957,1.582 59.264,19.82 l 22.286,-25.891 c -15.14,-19.042 -42.387,-23.055 -55.802,-13.976 -3.784,2.562 -25.748,20.047 -25.748,20.047 z"
   style="fill:#000344;font-variation-settings:normal;opacity:1;vector-effect:none;fill-opacity:1;stroke-width:1;stroke-linecap:butt;stroke-linejoin:miter;stroke-miterlimit:2;stroke-dasharray:none;stroke-dashoffset:0;stroke-opacity:1;-inkscape-stroke:none;stop-color:#000000;stop-opacity:1"
   id="path182" />
            </g>
            <g
   transform="translate(1137.03,-577.474)"
   id="g188">
                <path
   d="m 440.507,707.304 c 9.534,-5.933 32.144,1.119 37.606,17.801 l 23.564,-16.238 c -3.673,-12.07 -10.659,-18.341 -28.237,-16.716 -4.55,0.421 -32.933,15.153 -32.933,15.153 z"
   style="fill:#000344;font-variation-settings:normal;opacity:1;vector-effect:none;fill-opacity:1;stroke-width:1;stroke-linecap:butt;stroke-linejoin:miter;stroke-miterlimit:2;stroke-dasharray:none;stroke-dashoffset:0;stroke-opacity:1;-inkscape-stroke:none;stop-color:#000000;stop-opacity:1"
   id="path186" />
            </g>
            <g
   transform="translate(1191.14,-596.451)"
   id="g192">
                <path
   d="m 444.972,703.226 c 8.012,0.402 16.484,4.029 18.767,14.566 l 23.411,-11.454 c 0.44,-5.026 -8.322,-9.701 -16.315,-9.337 -4.565,0.207 -25.863,6.225 -25.863,6.225 z"
   style="fill:#000344;font-variation-settings:normal;opacity:1;vector-effect:none;fill-opacity:1;stroke-width:1;stroke-linecap:butt;stroke-linejoin:miter;stroke-miterlimit:2;stroke-dasharray:none;stroke-dashoffset:0;stroke-opacity:1;-inkscape-stroke:none;stop-color:#000000;stop-opacity:1"
   id="path190" />
            </g>
        </g>
        <path
   d="m 416.649,1954.55 c -3.277,-3.74 -7.002,-5.64 -10.779,-6.19 -5.46,-0.81 -11.188,1.26 -16.051,5.39 -11.217,9.52 -17.483,29.85 -4.886,43.74 7.302,8.05 17.661,6.74 25.99,-0.09 11.306,-9.26 18.149,-28.65 5.726,-42.85 z m -6.271,5.49 c 8.987,10.27 3.443,24.21 -4.737,30.92 -4.668,3.82 -10.443,5.44 -14.535,0.93 -9.175,-10.11 -4.063,-24.85 4.105,-31.79 2.893,-2.45 6.197,-3.98 9.446,-3.5 2.027,0.3 3.961,1.43 5.721,3.44 z"
   style="fill:#000344;font-variation-settings:normal;opacity:1;vector-effect:none;fill-opacity:1;stroke-width:1;stroke-linecap:butt;stroke-linejoin:miter;stroke-miterlimit:2;stroke-dasharray:none;stroke-dashoffset:0;stroke-opacity:1;-inkscape-stroke:none;stop-color:#000000;stop-opacity:1"
   id="path196" />
        <path
   d="m 364.256,2025.78 c -2.837,0.78 -5.423,2.92 -7.462,6.27 -3.057,5.03 -4.99,13.04 -5.117,20.98 -0.107,6.71 1.087,13.33 3.669,18.06 3.163,5.79 8.215,9.11 15.366,7.97 22.619,-3.62 27.252,-27.37 21.093,-42.74 -2.646,-6.61 -7.269,-11.56 -12.943,-13.23 -3.967,-1.18 -8.529,-0.86 -13.481,1.81 -0.436,0.23 -0.812,0.53 -1.125,0.88 z m 6.657,5.72 c -0.743,1.48 -2.333,2.43 -4.081,2.28 -0.497,-0.04 -0.912,0.25 -1.321,0.6 -0.587,0.51 -1.109,1.2 -1.598,2 -2.439,4.01 -3.802,10.45 -3.903,16.78 -0.083,5.17 0.662,10.3 2.65,13.94 1.407,2.57 3.555,4.24 6.737,3.73 16.453,-2.63 19.152,-20.23 14.672,-31.41 -1.61,-4.02 -4.116,-7.32 -7.568,-8.34 -1.688,-0.5 -3.56,-0.37 -5.588,0.42 z"
   style="fill:#000344;font-variation-settings:normal;opacity:1;vector-effect:none;fill-opacity:1;stroke-width:1;stroke-linecap:butt;stroke-linejoin:miter;stroke-miterlimit:2;stroke-dasharray:none;stroke-dashoffset:0;stroke-opacity:1;-inkscape-stroke:none;stop-color:#000000;stop-opacity:1"
   id="path198" />
        <path
   d="m 438.447,2023.01 c -6.013,-1.54 -11.187,0.37 -15.292,4.47 -5.153,5.16 -8.514,14.23 -9.25,23.37 -1.327,16.48 6.024,32.01 21.955,28.52 19.449,-4.26 26.231,-16.99 25.297,-29.15 -0.929,-12.1 -9.912,-23.95 -22.71,-27.21 z m -2.059,8.07 c 9.291,2.37 15.786,10.99 16.46,19.78 0.671,8.73 -4.813,17.31 -18.772,20.37 -2.129,0.47 -3.946,0.37 -5.461,-0.29 -2.361,-1.03 -3.889,-3.31 -4.927,-6.08 -1.436,-3.83 -1.859,-8.59 -1.477,-13.34 0.481,-5.97 2.231,-11.97 5.163,-16.13 2.249,-3.2 5.229,-5.27 9.014,-4.31 z"
   style="fill:#000344;font-variation-settings:normal;opacity:1;vector-effect:none;fill-opacity:1;stroke-width:1;stroke-linecap:butt;stroke-linejoin:miter;stroke-miterlimit:2;stroke-dasharray:none;stroke-dashoffset:0;stroke-opacity:1;-inkscape-stroke:none;stop-color:#000000;stop-opacity:1"
   id="path200" />
        <path
   d="m 342.853,2115.21 c -2.686,1.15 -5.374,3.98 -7.434,8.15 -2.49,5.03 -4.267,12.13 -4.707,19.32 -0.452,7.37 0.528,14.82 3.303,20.33 2.156,4.29 5.365,7.48 9.679,9.04 19.029,6.88 29.75,-11.01 29.773,-29.46 0.009,-7.31 -1.674,-14.54 -4.933,-19.89 -2.447,-4.02 -5.776,-7.03 -9.885,-8.55 -4.316,-1.59 -9.585,-1.59 -15.796,1.06 z m 3.27,7.67 c 3.8,-1.62 7.003,-1.88 9.645,-0.91 3.061,1.13 5.229,3.82 6.745,7.14 1.78,3.89 2.626,8.67 2.62,13.47 -0.015,12.57 -5.642,26.32 -18.607,21.64 -2.989,-1.08 -4.801,-3.79 -5.964,-7.07 -1.439,-4.07 -1.834,-9.04 -1.532,-13.96 0.367,-6 1.781,-11.94 3.858,-16.14 0.987,-1.99 1.949,-3.62 3.235,-4.17 z"
   style="fill:#000344;font-variation-settings:normal;opacity:1;vector-effect:none;fill-opacity:1;stroke-width:1;stroke-linecap:butt;stroke-linejoin:miter;stroke-miterlimit:2;stroke-dasharray:none;stroke-dashoffset:0;stroke-opacity:1;-inkscape-stroke:none;stop-color:#000000;stop-opacity:1"
   id="path202" />
        <path
   d="m 401.013,2095.99 c -0.208,0.01 -0.415,0.03 -0.62,0.07 -5.582,1.05 -9.865,4.51 -12.811,9.49 -3.86,6.52 -5.342,15.81 -4.514,24.74 0.84,9.06 4.075,17.66 9.07,22.7 3.914,3.95 8.856,5.93 14.679,4.97 17.154,-2.85 25.523,-18.55 24.6,-33.51 -0.929,-15.06 -11.078,-29.15 -30.404,-28.46 z m 0.633,8.32 c 13.709,-0.33 20.789,9.88 21.453,20.65 0.676,10.95 -5.095,22.69 -17.648,24.78 -3.812,0.63 -6.788,-1.41 -9.017,-4.57 -2.834,-4.02 -4.52,-9.74 -5.068,-15.65 -0.556,-5.99 0.068,-12.2 2.105,-17.14 1.659,-4.02 4.241,-7.2 8.168,-8.07 z"
   style="fill:#000344;font-variation-settings:normal;opacity:1;vector-effect:none;fill-opacity:1;stroke-width:1;stroke-linecap:butt;stroke-linejoin:miter;stroke-miterlimit:2;stroke-dasharray:none;stroke-dashoffset:0;stroke-opacity:1;-inkscape-stroke:none;stop-color:#000000;stop-opacity:1"
   id="path204" />
        <path
   d="m 446.367,2126.64 c -0.173,0.23 -0.322,0.47 -0.445,0.73 -2.997,6.3 -5.068,23.32 -1.981,36.02 2.4,9.87 7.941,16.99 16.902,17.18 9.714,0.21 16.335,-2.87 20.617,-7.51 4.019,-4.35 6.027,-10.22 6.319,-16.59 0.405,-8.85 -2.524,-18.67 -7.287,-26.1 -5,-7.8 -12.068,-12.82 -19.197,-12.62 -4.93,0.13 -10.156,2.6 -14.928,8.89 z m 6.912,4.68 c 2.71,-3.45 5.445,-5.16 8.243,-5.24 4.604,-0.13 8.726,3.75 11.955,8.79 3.875,6.04 6.307,14.02 5.977,21.22 -0.198,4.32 -1.391,8.37 -4.119,11.32 -2.948,3.2 -7.626,4.98 -14.314,4.83 -5.228,-0.11 -7.582,-5.06 -8.983,-10.82 -2.55,-10.5 -1.19,-24.49 1.239,-30.1 z"
   style="fill:#000344;font-variation-settings:normal;opacity:1;vector-effect:none;fill-opacity:1;stroke-width:1;stroke-linecap:butt;stroke-linejoin:miter;stroke-miterlimit:2;stroke-dasharray:none;stroke-dashoffset:0;stroke-opacity:1;-inkscape-stroke:none;stop-color:#000000;stop-opacity:1"
   id="path206" />
        <path
   d="m 453.414,1942.3 c -0.666,-0.16 -1.381,-0.16 -2.089,0.03 -2.218,0.61 -3.525,2.91 -2.916,5.12 2.697,9.84 5.56,17.45 8.958,22.25 2.886,4.08 6.247,6.38 10.038,7.01 5.512,0.91 12.7,-2.02 21.719,-11.04 1.188,-1.19 2.113,-3.45 0.406,-6.21 -1.323,-2.13 -6.086,-6.15 -6.722,-6.79 -4.196,-4.19 -6.703,-8.9 -9.278,-11.87 -2.755,-3.18 -5.712,-4.8 -9.355,-4.48 -2.727,0.24 -6.228,1.84 -10.761,5.98 z m 27.291,19.89 c -1.502,-1.43 -3.48,-3.32 -3.79,-3.62 -3.238,-3.24 -5.574,-6.74 -7.648,-9.65 -0.802,-1.13 -1.553,-2.15 -2.325,-2.99 -0.578,-0.63 -1.064,-1.21 -1.768,-1.3 -0.603,-0.09 -1.242,0.21 -2.06,0.67 -1.525,0.86 -3.273,2.3 -5.39,4.4 1.597,5.31 3.251,9.72 5.13,13.09 1.749,3.12 3.477,5.29 5.912,5.7 1.56,0.26 3.276,-0.27 5.274,-1.35 2.029,-1.09 4.233,-2.74 6.665,-4.95 z"
   style="fill:#000344;font-variation-settings:normal;opacity:1;vector-effect:none;fill-opacity:1;stroke-width:1;stroke-linecap:butt;stroke-linejoin:miter;stroke-miterlimit:2;stroke-dasharray:none;stroke-dashoffset:0;stroke-opacity:1;-inkscape-stroke:none;stop-color:#000000;stop-opacity:1"
   id="path208" />
        <path
   d="m 470.501,1990.19 c -0.403,0.07 -0.803,0.19 -1.187,0.39 -2.743,1.37 -2.7,3.56 -2.709,3.71 -0.01,0.18 -0.011,0.35 -0.003,0.52 -0.893,1.09 -1.218,2.6 -0.725,4.02 1.476,4.27 2.68,15.21 4.887,22.99 1.195,4.21 2.8,7.6 4.572,9.37 0.108,0.11 1.713,1.83 4.501,0.95 1.764,-0.55 10.585,-3.7 16.092,-5.88 3.036,-1.2 5.204,-2.36 5.624,-2.74 1.284,-1.16 1.422,-2.42 1.422,-3.17 0,-2.19 -4.994,-20.89 -8.033,-29.26 -1.041,-2.86 -2.133,-4.73 -2.661,-5.26 -0.741,-0.74 -2.738,-1.76 -5.733,-1.19 -4.099,0.77 -12.776,4.26 -16.047,5.55 z m 16.296,3.03 c -1.312,0.36 -3.107,0.87 -4.559,1.39 -2.928,1.04 -5.955,2.22 -8.031,3.03 1.13,4.3 2.204,11.95 3.728,18.57 0.621,2.7 1.215,5.23 2.016,7.06 3.87,-1.43 10.723,-4.06 14.234,-5.41 -1.067,-4.6 -3.806,-14.1 -5.953,-20.65 -0.466,-1.42 -1.006,-2.88 -1.435,-3.99 z"
   style="fill:#000344;font-variation-settings:normal;opacity:1;vector-effect:none;fill-opacity:1;stroke-width:1;stroke-linecap:butt;stroke-linejoin:miter;stroke-miterlimit:2;stroke-dasharray:none;stroke-dashoffset:0;stroke-opacity:1;-inkscape-stroke:none;stop-color:#000000;stop-opacity:1"
   id="path210" />
        <path
   d="m 500.189,1978.39 c -1.021,-0.27 -2.144,-0.15 -3.132,0.41 -1.997,1.14 -2.692,3.69 -1.552,5.68 2.872,5.04 4.653,12.89 6.945,19.62 1.82,5.36 4.012,10.06 6.833,12.89 1.096,1.09 3.07,1.97 5.658,0.72 1.165,-0.57 4.349,-2.92 5.077,-3.47 3.906,-0.14 6.461,-1.57 8.115,-3.51 2.37,-2.78 2.975,-7.19 1.845,-12.21 -1.501,-6.67 -5.864,-14.63 -9.076,-19.14 -1.85,-2.61 -3.609,-4.18 -4.441,-4.59 -2.607,-1.31 -5.467,-1.02 -8.315,0.17 -1.321,0.56 -2.646,1.31 -3.906,1.93 -0.546,0.27 -1.018,0.61 -1.484,0.61 -0.968,0 -1.86,0.34 -2.567,0.89 z m 12.337,3.8 c -0.26,0 -0.521,0.21 -0.806,0.32 -0.84,0.31 -1.679,0.77 -2.502,1.2 -1.406,0.73 -2.802,1.37 -4.111,1.75 1.492,3.82 2.777,8.22 4.108,12.49 1.25,4.01 2.467,7.9 4.146,10.73 0.732,-0.53 1.514,-1.08 2.078,-1.43 1.478,-0.93 2.898,-1.33 3.896,-1.33 1.146,0 1.991,-0.05 2.458,-0.6 0.3,-0.35 0.367,-0.84 0.413,-1.37 0.096,-1.08 -0.066,-2.3 -0.358,-3.6 -1.568,-6.97 -6.908,-15.64 -9.322,-18.16 z"
   style="fill:#000344;font-variation-settings:normal;opacity:1;vector-effect:none;fill-opacity:1;stroke-width:1;stroke-linecap:butt;stroke-linejoin:miter;stroke-miterlimit:2;stroke-dasharray:none;stroke-dashoffset:0;stroke-opacity:1;-inkscape-stroke:none;stop-color:#000000;stop-opacity:1"
   id="path212" />
        <path
   d="m 503.158,2035.75 c -1.028,1.13 -1.386,2.8 -0.781,4.33 2.807,7.07 4.156,13.15 5.688,17.29 1.769,4.78 4.2,7.46 7.339,8.26 2.702,0.69 6.619,-0.02 12.265,-3.72 0.499,-0.12 3.007,-0.7 4.268,-1.16 1.954,-0.71 3.217,-1.93 3.756,-3.01 0.86,-1.72 1.018,-3.92 0.564,-6.2 -0.44,-2.2 -1.445,-4.5 -2.001,-5.89 -1.194,-2.99 -2.514,-9.34 -4.081,-13.76 -0.94,-2.65 -2.086,-4.73 -3.157,-5.8 -0.765,-0.76 -2.504,-1.69 -5.124,-1.44 -4.019,0.38 -12.515,3.41 -15.762,5.48 -2.897,1.84 -3.22,4.4 -2.987,5.56 z m 18.656,-2.63 c -0.788,0.15 -1.87,0.38 -2.778,0.64 -1.945,0.57 -4.081,1.33 -5.827,2.08 -0.165,1.43 -1.054,2.64 -2.29,3.25 2.313,6.25 3.566,11.62 4.961,15.39 0.526,1.42 0.83,2.59 1.631,3.09 0.095,0.06 0.21,-0.02 0.351,-0.04 0.32,-0.06 0.665,-0.16 1.043,-0.3 1.237,-0.47 2.686,-1.28 4.434,-2.45 0.504,-0.33 1.388,-0.73 2.514,-1.02 0.546,-0.15 1.457,-0.39 2.203,-0.59 -0.036,-0.24 -0.081,-0.48 -0.134,-0.67 -0.399,-1.45 -1.039,-2.84 -1.404,-3.76 -1.063,-2.65 -2.249,-7.88 -3.586,-12.21 -0.401,-1.29 -0.733,-2.51 -1.118,-3.41 z"
   style="fill:#000344;font-variation-settings:normal;opacity:1;vector-effect:none;fill-opacity:1;stroke-width:1;stroke-linecap:butt;stroke-linejoin:miter;stroke-miterlimit:2;stroke-dasharray:none;stroke-dashoffset:0;stroke-opacity:1;-inkscape-stroke:none;stop-color:#000000;stop-opacity:1"
   id="path214" />
        <path
   d="m 545.856,2025.67 c -1.524,0.12 -2.82,1.06 -3.445,2.37 -0.8,-0.11 -1.641,0.01 -2.42,0.39 -2.064,1.01 -2.917,3.51 -1.904,5.58 4.836,9.85 9.557,19.39 13.694,29.73 0.525,1.31 1.013,3.27 1.855,4.36 1.095,1.43 2.542,2.21 4.382,2.21 2.13,0 3.773,-0.96 5.04,-2.69 0.462,-0.63 0.874,-1.39 1.263,-2.2 0.17,-0.35 0.477,-0.92 0.632,-1.21 0.555,-0.18 1.255,-0.23 1.971,-0.32 1.503,-0.17 3.08,-0.28 4.404,-0.53 2.034,-0.39 3.64,-1.17 4.636,-2.16 0.845,-0.85 1.711,-2.57 1.361,-5.05 -0.44,-3.11 -3.192,-9.31 -3.512,-10.27 -1.387,-4.16 -3.887,-11.89 -6.463,-17.37 -1.327,-2.82 -2.748,-5.1 -4.017,-6.37 -1.986,-1.98 -4.84,-2.47 -8.149,-1.33 -2.048,0.7 -4.389,2.1 -6.505,3.37 -1.005,0.6 -2.551,1.36 -2.823,1.49 z m 12.153,3.05 c -0.668,0.26 -1.891,0.76 -2.676,1.2 -2.072,1.18 -4.153,2.53 -5.776,3.25 -0.808,0.36 -1.566,0.59 -2.246,0.71 4.003,8.17 7.885,16.22 11.394,24.76 0.632,-0.74 1.362,-1.34 2.186,-1.75 1.735,-0.87 4.409,-1.21 6.952,-1.47 0.222,-0.02 0.478,-0.06 0.741,-0.1 -0.855,-2.73 -2.46,-6.15 -2.677,-6.81 -1.133,-3.4 -3.033,-9.3 -5.1,-14.2 -0.954,-2.27 -1.872,-4.32 -2.798,-5.59 z"
   style="fill:#000344;font-variation-settings:normal;opacity:1;vector-effect:none;fill-opacity:1;stroke-width:1;stroke-linecap:butt;stroke-linejoin:miter;stroke-miterlimit:2;stroke-dasharray:none;stroke-dashoffset:0;stroke-opacity:1;-inkscape-stroke:none;stop-color:#000000;stop-opacity:1"
   id="path216" />
        <path
   d="m 491.606,2072.67 c -0.266,0.46 -0.473,1.02 -0.587,1.67 -0.251,1.44 0.3,4.62 0.679,5.75 2.15,6.45 2.951,11.96 4.149,15.82 1.385,4.46 3.505,7.18 6.7,8.31 2.71,0.97 6.74,0.76 12.903,-1.88 0.557,-0.24 1.376,-0.19 2.122,-0.28 1.225,-0.14 2.372,-0.38 3.245,-0.76 2.223,-0.97 3.474,-2.62 3.474,-5.16 0,-6.99 -5.321,-22.61 -11.644,-29.8 -3.989,-4.53 -8.541,-5.93 -12.544,-3.92 -1.208,0.6 -5.425,3.73 -7.058,5.6 -1.255,1.45 -1.561,2.88 -1.561,3.65 0,0.34 0.042,0.68 0.122,1 z m 24.172,21.21 c -0.742,-5.35 -3.731,-13.67 -7.366,-19.31 -0.999,-1.55 -2.037,-2.89 -3.12,-3.83 -0.337,-0.29 -0.67,-0.54 -1.011,-0.72 -0.16,-0.08 -0.296,-0.23 -0.451,-0.15 -0.696,0.35 -3.775,3 -4.39,3.53 l -0.034,0.07 -0.015,0.04 c 0.226,0.81 0.188,1.66 -0.073,2.43 0.074,0.49 0.202,1.27 0.286,1.52 2.172,6.51 2.99,12.08 4.201,15.98 0.395,1.27 0.642,2.33 1.397,2.86 0.49,0.35 1.163,0.19 2.092,0.01 1.34,-0.25 2.937,-0.8 4.873,-1.63 0.794,-0.34 2.376,-0.62 3.611,-0.8 z"
   style="fill:#000344;font-variation-settings:normal;opacity:1;vector-effect:none;fill-opacity:1;stroke-width:1;stroke-linecap:butt;stroke-linejoin:miter;stroke-miterlimit:2;stroke-dasharray:none;stroke-dashoffset:0;stroke-opacity:1;-inkscape-stroke:none;stop-color:#000000;stop-opacity:1"
   id="path218" />
        <path
   d="m 541.035,2089.94 c -1.071,-0.2 -2.219,0.02 -3.177,0.7 -1.843,1.31 -2.298,3.85 -1.042,5.72 0.151,0.34 0.356,0.67 0.616,0.96 2.114,3.64 2.509,8.84 2.964,14.05 0.611,7.01 1.173,14.08 3.632,19 0.369,0.74 1.811,2.94 4.947,2.19 1.082,-0.26 6.274,-2.52 7.56,-3.09 1.692,0 6.553,0.71 9.094,0.47 1.985,-0.18 3.338,-0.96 4.019,-1.64 0.554,-0.56 1.136,-1.42 1.43,-2.71 0.233,-1.02 0.31,-2.68 0.136,-4.77 -0.531,-6.39 -3.224,-18.12 -5.701,-25.48 -1.311,-3.9 -2.788,-6.7 -3.759,-7.67 -1.596,-1.6 -4.658,-2.41 -8.425,-1.78 -3.839,0.64 -9.546,2.9 -12.294,4.05 z m 14.97,4.1 c -0.749,0.06 -2.149,0.21 -3.136,0.47 -2.26,0.59 -4.667,1.5 -6.629,2.3 1.404,4.07 2.029,8.92 2.458,13.84 0.38,4.36 0.592,8.77 1.516,12.44 l 2.963,-1.26 c 1.002,-0.42 1.737,-0.59 1.956,-0.61 0.795,-0.1 3.217,0.1 5.764,0.3 0.615,0.05 1.365,0.08 2.053,0.1 -0.352,-5.31 -2.754,-15.58 -4.97,-22.51 -0.616,-1.93 -1.519,-4.04 -1.975,-5.07 z m -12.079,-2.05 c 0.202,0.25 0.366,0.51 0.495,0.79 l -0.02,-0.03 c -0.129,-0.27 -0.287,-0.52 -0.475,-0.76 z"
   style="fill:#000344;font-variation-settings:normal;opacity:1;vector-effect:none;fill-opacity:1;stroke-width:1;stroke-linecap:butt;stroke-linejoin:miter;stroke-miterlimit:2;stroke-dasharray:none;stroke-dashoffset:0;stroke-opacity:1;-inkscape-stroke:none;stop-color:#000000;stop-opacity:1"
   id="path220" />
        <path
   d="m 577.754,2092.44 c -2.052,0.36 -3.558,2.21 -3.437,4.34 0.438,7.72 5.365,16.36 7.29,24.06 1.707,6.82 1.74,12.74 3.028,15.75 0.957,2.23 2.421,3.57 4.301,4.19 1.503,0.5 3.505,0.55 6.155,-0.51 2.196,-0.88 7.748,-1.05 11.313,-2 3.069,-0.82 5.095,-2.41 5.866,-3.95 0.015,-0.03 0.769,-1.3 0.158,-3.45 -0.749,-2.63 -4.74,-16.21 -8.328,-27.44 -2.194,-6.88 -4.264,-12.89 -5.382,-15.22 -0.893,-1.86 -2.039,-2.66 -2.521,-2.9 -1.265,-0.63 -3.675,-0.8 -6.482,0.13 -3.56,1.18 -8.415,3.88 -9.877,4.61 -1.024,0.51 -1.745,1.39 -2.084,2.39 z m 14.181,1.1 c -0.564,0.18 -1.186,0.41 -1.693,0.63 -2.763,1.2 -5.642,2.81 -6.677,3.33 -0.255,0.13 -0.518,0.23 -0.783,0.3 0.91,6.84 5.226,14.28 6.909,21.02 1.127,4.5 1.49,8.61 1.976,11.74 0.097,0.62 0.277,1.36 0.429,1.94 2.163,-0.82 6.932,-1.23 10.744,-1.97 0.237,-0.04 0.498,-0.1 0.76,-0.17 -2.378,-8.13 -8.685,-29.25 -11.665,-36.82 z"
   style="fill:#000344;font-variation-settings:normal;opacity:1;vector-effect:none;fill-opacity:1;stroke-width:1;stroke-linecap:butt;stroke-linejoin:miter;stroke-miterlimit:2;stroke-dasharray:none;stroke-dashoffset:0;stroke-opacity:1;-inkscape-stroke:none;stop-color:#000000;stop-opacity:1"
   id="path222" />
        <path
   d="m 540.804,2165.62 c -0.827,-6.64 -1.675,-14.24 -4.18,-20.5 -1.736,-4.34 -3.148,-6.66 -5.295,-7.85 -2.033,-1.12 -5.171,-1.43 -11.233,-0.21 -0.677,0.13 -1.892,0.46 -3.229,0.9 -0.457,-0.71 -1.132,-1.28 -1.974,-1.61 -2.142,-0.84 -4.56,0.22 -5.398,2.36 -1.387,3.55 -1.498,8.41 -0.931,13.58 0.716,6.51 2.458,13.58 2.661,18.24 0.087,2.02 -0.843,4.86 -1.482,7.5 -0.602,2.49 -1.012,4.85 -0.907,6.61 0.139,2.32 1.057,4.02 2.441,5.11 0.997,0.79 2.314,1.35 4.11,1.35 0.017,0 0.799,0.04 1.989,-0.49 1.468,-0.67 8.765,-4.05 10.074,-4.37 1.763,-0.44 8.499,-0.91 11.747,-1.71 1.836,-0.44 3.059,-1.21 3.61,-1.76 0.279,-0.28 1.513,-1.58 1.161,-3.99 -0.317,-2.18 -2.679,-11.3 -3.154,-13.12 z m -13.57,-21.04 c -0.206,-0.02 -0.638,-0.05 -0.959,-0.03 -1.16,0.05 -2.629,0.29 -4.544,0.68 -0.867,0.17 -3.828,1.32 -5.195,1.86 0.024,1.36 0.149,2.81 0.311,4.29 0.738,6.71 2.494,13.99 2.703,18.79 0.11,2.52 -0.784,6.07 -1.605,9.4 -0.136,0.55 -0.262,1.19 -0.369,1.82 3.038,-1.34 6.888,-3 7.853,-3.24 1.266,-0.31 6.274,-1.03 9.495,-1.47 l -2.356,-9.76 c -0.753,-6.03 -1.398,-13 -3.681,-18.7 -0.609,-1.53 -1.445,-3.22 -1.653,-3.64 z"
   style="fill:#000344;font-variation-settings:normal;opacity:1;vector-effect:none;fill-opacity:1;stroke-width:1;stroke-linecap:butt;stroke-linejoin:miter;stroke-miterlimit:2;stroke-dasharray:none;stroke-dashoffset:0;stroke-opacity:1;-inkscape-stroke:none;stop-color:#000000;stop-opacity:1"
   id="path224" />
        <path
   d="m 561.759,2143.26 c -1.032,-0.4 -2.219,-0.39 -3.295,0.12 -0.848,0.41 -1.762,1.15 -2.396,2.48 -0.431,0.91 -0.812,2.48 -0.946,4.55 -0.428,6.6 1.075,20.11 2.562,26.11 0.622,2.51 1.559,4.11 2.125,4.67 0.311,0.31 1.397,1.32 3.473,1.26 2.073,-0.06 11.222,-1.62 12.104,-1.62 1.283,0 7.095,0.8 10.042,0.46 1.932,-0.22 3.266,-0.99 3.957,-1.68 0.583,-0.58 1.605,-2.27 1.237,-4.86 -0.402,-2.82 -2.408,-8.89 -2.478,-9.22 -0.777,-3.63 -0.493,-12.2 -1.575,-18.32 -0.648,-3.68 -1.893,-6.62 -3.5,-8.22 -2.522,-2.53 -6.088,-3.09 -10.103,-1.91 -3.712,1.09 -7.962,3.89 -11.207,6.18 z m 19.938,29.74 c -0.732,-2.68 -1.654,-5.5 -1.701,-5.72 -0.69,-3.22 -0.619,-10.19 -1.28,-16.11 -0.186,-1.67 -0.433,-3.24 -0.812,-4.56 -0.208,-0.72 -0.361,-1.37 -0.727,-1.73 -0.247,-0.25 -0.612,-0.07 -0.987,-0.01 -0.867,0.14 -1.791,0.49 -2.736,0.92 -3.663,1.67 -7.481,4.59 -9.927,6.37 -0.055,1.91 -0.075,4.47 0.08,6.64 0.384,5.38 1.163,11.4 1.976,14.97 3.423,-0.48 9.177,-1.27 9.803,-1.27 0.842,0 3.662,0.36 6.311,0.5 z"
   style="fill:#000344;font-variation-settings:normal;opacity:1;vector-effect:none;fill-opacity:1;stroke-width:1;stroke-linecap:butt;stroke-linejoin:miter;stroke-miterlimit:2;stroke-dasharray:none;stroke-dashoffset:0;stroke-opacity:1;-inkscape-stroke:none;stop-color:#000000;stop-opacity:1"
   id="path226" />
        <path
   d="m 615.259,2148.91 c 1.676,3.8 1.803,10.69 2.638,14.45 1.076,4.84 2.429,8.94 3.351,12.32 0.368,1.34 0.664,2.55 0.808,3.62 0.093,0.7 0.283,1.28 0.005,1.72 -0.26,0.4 -0.858,0.42 -1.635,0.58 -1.249,0.26 -2.822,0.37 -4.777,0.37 -3.074,0 -5.22,-0.5 -6.642,-1.8 -1.43,-1.3 -2.037,-3.28 -2.467,-5.65 -0.792,-4.36 -0.736,-9.87 -0.966,-16.14 -0.084,-2.3 -2.019,-4.1 -4.317,-4.01 -2.298,0.08 -4.095,2.02 -4.011,4.32 0.248,6.72 0.245,12.64 1.094,17.32 0.802,4.42 2.381,7.88 5.041,10.31 2.666,2.44 6.506,3.99 12.268,3.99 6.521,0 10.185,-1.39 12.154,-3.26 2.303,-2.18 3.111,-5.28 2.413,-9.51 -0.641,-3.9 -2.681,-9.22 -4.184,-15.99 -0.979,-4.4 -1.404,-12.56 -3.499,-16.75 -1.575,-3.15 -4.341,-4.41 -7.878,-4.22 -2.384,0.12 -5.277,1.08 -7.982,2.09 -1.746,0.64 -3.341,1.41 -4.445,1.41 -2.3,0 -4.167,1.87 -4.167,4.17 0,2.3 1.867,4.16 4.167,4.16 2.35,0 6.375,-1.73 10.126,-2.91 0.769,-0.24 1.522,-0.44 2.23,-0.55 0.193,-0.02 0.468,-0.03 0.675,-0.04 z"
   style="fill:#000344;font-variation-settings:normal;opacity:1;vector-effect:none;fill-opacity:1;stroke-width:1;stroke-linecap:butt;stroke-linejoin:miter;stroke-miterlimit:2;stroke-dasharray:none;stroke-dashoffset:0;stroke-opacity:1;-inkscape-stroke:none;stop-color:#000000;stop-opacity:1"
   id="path228" />
    </g>
</svg>
