<?xml version="1.0" encoding="UTF-8" standalone="no"?>
<svg
   width="100%"
   height="100%"
   viewBox="0 0 680 535"
   version="1.1"
   xml:space="preserve"
   style="fill-rule:evenodd;clip-rule:evenodd;stroke-linejoin:round;stroke-miterlimit:2;"
   id="svg212"
   sodipodi:docname="2023-CH-02-explanation-D.svg"
   inkscape:version="1.1.1 (3bf5ae0d25, 2021-09-20)"
   xmlns:inkscape="http://www.inkscape.org/namespaces/inkscape"
   xmlns:sodipodi="http://sodipodi.sourceforge.net/DTD/sodipodi-0.dtd"
   xmlns="http://www.w3.org/2000/svg"
   xmlns:svg="http://www.w3.org/2000/svg"><defs
   id="defs216" /><sodipodi:namedview
   id="namedview214"
   pagecolor="#ffffff"
   bordercolor="#666666"
   borderopacity="1.0"
   inkscape:pageshadow="2"
   inkscape:pageopacity="0.0"
   inkscape:pagecheckerboard="0"
   showgrid="false"
   inkscape:zoom="0.67196262"
   inkscape:cx="698.69958"
   inkscape:cy="407.01669"
   inkscape:window-width="2048"
   inkscape:window-height="1017"
   inkscape:window-x="-8"
   inkscape:window-y="-8"
   inkscape:window-maximized="1"
   inkscape:current-layer="svg212" />
    <g
   transform="translate(-2473.01,-1775.71)"
   id="g210">
        <g
   transform="matrix(2.667,0,0,2.667,-1588.11,66.5048)"
   id="g6">
            <g
   transform="matrix(43.7508,0,0,43.7508,1529.81,802.55)"
   id="g4">
                <path
   d="m 0.323,0 v -0.171 h -0.31 v -0.081 l 0.326,-0.464 h 0.072 v 0.464 h 0.097 v 0.081 H 0.411 V 0 Z m 0,-0.252 v -0.323 l -0.224,0.323 z"
   style="fill:#000344;fill-rule:nonzero;font-variation-settings:normal;opacity:1;vector-effect:none;fill-opacity:1;stroke-width:0.0085702;stroke-linecap:butt;stroke-linejoin:miter;stroke-miterlimit:2;stroke-dasharray:none;stroke-dashoffset:0;stroke-opacity:1;-inkscape-stroke:none;stop-color:#000000;stop-opacity:1"
   id="path2" />
            </g>
        </g>
        <g
   transform="matrix(2.667,0,0,2.667,-1462.34,80.0119)"
   id="g12">
            <g
   transform="matrix(43.7508,0,0,43.7508,1529.81,802.55)"
   id="g10">
                <path
   d="m 0.042,-0.188 0.092,-0.007 c 0.007,0.045 0.022,0.078 0.047,0.101 0.025,0.023 0.055,0.034 0.09,0.034 0.043,0 0.079,-0.016 0.108,-0.048 0.029,-0.032 0.044,-0.074 0.044,-0.127 0,-0.05 -0.014,-0.09 -0.042,-0.119 -0.029,-0.028 -0.065,-0.043 -0.111,-0.043 -0.028,0 -0.054,0.006 -0.077,0.019 -0.022,0.013 -0.04,0.03 -0.053,0.05 l -0.083,-0.01 0.069,-0.368 h 0.356 v 0.084 H 0.197 L 0.158,-0.43 c 0.043,-0.03 0.088,-0.045 0.135,-0.045 0.063,0 0.116,0.022 0.159,0.065 0.043,0.044 0.064,0.099 0.064,0.167 0,0.065 -0.019,0.121 -0.057,0.168 C 0.414,-0.017 0.351,0.012 0.271,0.012 0.206,0.012 0.153,-0.006 0.112,-0.042 0.071,-0.079 0.047,-0.127 0.042,-0.188 Z"
   style="fill:#e30011;fill-rule:nonzero"
   id="path8" />
            </g>
        </g>
        <g
   transform="matrix(2.667,0,0,2.667,-1251.16,80.3551)"
   id="g18">
            <g
   transform="matrix(43.7508,0,0,43.7508,1529.81,802.55)"
   id="g16">
                <path
   d="M 0.498,-0.541 0.41,-0.534 C 0.402,-0.568 0.391,-0.593 0.377,-0.609 0.353,-0.634 0.324,-0.646 0.289,-0.646 c -0.028,0 -0.053,0.007 -0.074,0.023 -0.027,0.02 -0.049,0.05 -0.065,0.088 -0.016,0.039 -0.024,0.094 -0.025,0.166 0.021,-0.032 0.047,-0.056 0.078,-0.072 0.03,-0.016 0.062,-0.023 0.096,-0.023 0.058,0 0.108,0.021 0.149,0.064 0.042,0.043 0.062,0.099 0.062,0.168 0,0.044 -0.009,0.086 -0.029,0.125 -0.019,0.038 -0.046,0.068 -0.08,0.088 C 0.368,0.002 0.329,0.012 0.286,0.012 0.213,0.012 0.153,-0.015 0.107,-0.069 0.061,-0.122 0.038,-0.211 0.038,-0.335 c 0,-0.138 0.025,-0.239 0.076,-0.302 0.045,-0.054 0.105,-0.082 0.18,-0.082 0.057,0 0.103,0.016 0.139,0.048 0.036,0.031 0.057,0.075 0.065,0.13 z m -0.359,0.309 c 0,0.03 0.006,0.059 0.019,0.087 0.013,0.028 0.031,0.049 0.054,0.063 0.023,0.015 0.047,0.022 0.073,0.022 0.037,0 0.069,-0.015 0.095,-0.045 0.027,-0.03 0.04,-0.071 0.04,-0.122 0,-0.05 -0.013,-0.089 -0.039,-0.117 -0.027,-0.028 -0.06,-0.043 -0.1,-0.043 -0.039,0 -0.073,0.015 -0.101,0.043 -0.027,0.028 -0.041,0.066 -0.041,0.112 z"
   style="fill:#e30011;fill-rule:nonzero"
   id="path14" />
            </g>
        </g>
        <g
   transform="matrix(2.667,0,0,2.667,-1012.03,55.5023)"
   id="g24">
            <g
   transform="matrix(43.7508,0,0,43.7508,1529.81,802.55)"
   id="g22">
                <path
   d="M 0.177,-0.388 C 0.14,-0.402 0.113,-0.421 0.096,-0.445 0.078,-0.47 0.069,-0.5 0.069,-0.534 c 0,-0.052 0.019,-0.096 0.056,-0.132 0.038,-0.035 0.088,-0.053 0.15,-0.053 0.062,0 0.113,0.018 0.151,0.055 0.038,0.036 0.057,0.08 0.057,0.132 0,0.033 -0.009,0.062 -0.026,0.087 -0.018,0.025 -0.044,0.043 -0.08,0.057 0.044,0.014 0.078,0.037 0.101,0.069 0.023,0.032 0.034,0.07 0.034,0.114 0,0.062 -0.021,0.113 -0.065,0.155 -0.043,0.041 -0.1,0.062 -0.171,0.062 -0.07,0 -0.127,-0.021 -0.171,-0.063 -0.043,-0.041 -0.064,-0.094 -0.064,-0.156 0,-0.047 0.011,-0.086 0.035,-0.117 C 0.1,-0.355 0.133,-0.377 0.177,-0.388 Z M 0.159,-0.537 c 0,0.034 0.011,0.061 0.033,0.083 0.022,0.021 0.05,0.032 0.085,0.032 0.034,0 0.061,-0.011 0.083,-0.032 0.022,-0.021 0.033,-0.047 0.033,-0.078 0,-0.032 -0.012,-0.06 -0.034,-0.082 -0.022,-0.021 -0.05,-0.032 -0.083,-0.032 -0.034,0 -0.061,0.01 -0.084,0.032 -0.022,0.021 -0.033,0.047 -0.033,0.077 z m -0.028,0.33 c 0,0.026 0.006,0.05 0.018,0.073 0.012,0.024 0.029,0.042 0.053,0.055 0.023,0.013 0.048,0.019 0.075,0.019 0.042,0 0.077,-0.014 0.104,-0.041 0.028,-0.027 0.041,-0.061 0.041,-0.103 0,-0.042 -0.014,-0.077 -0.042,-0.105 C 0.352,-0.336 0.317,-0.35 0.274,-0.35 c -0.041,0 -0.075,0.014 -0.102,0.041 -0.028,0.027 -0.041,0.061 -0.041,0.102 z"
   style="fill:#e30011;fill-rule:nonzero"
   id="path20" />
            </g>
        </g>
        <g
   transform="matrix(2.667,0,0,2.667,-1132.45,73.3454)"
   id="g30">
            <g
   transform="matrix(43.7508,0,0,43.7508,1529.81,802.55)"
   id="g28">
                <path
   d="m 0.047,-0.622 v -0.085 h 0.464 v 0.069 C 0.465,-0.59 0.42,-0.525 0.375,-0.445 0.33,-0.364 0.296,-0.282 0.271,-0.197 0.254,-0.137 0.243,-0.071 0.238,0 H 0.147 c 0.001,-0.056 0.013,-0.124 0.034,-0.204 0.021,-0.08 0.051,-0.157 0.091,-0.231 0.039,-0.074 0.081,-0.136 0.126,-0.187 z"
   style="fill:#e30011;fill-rule:nonzero"
   id="path26" />
            </g>
        </g>
        <g
   transform="translate(1082.31,1065.12)"
   id="g190">
            <g
   transform="translate(1.30451,645.666)"
   id="g168">
                <g
   transform="translate(40.9277,-237.354)"
   id="g34">
                    <path
   d="m 1672.92,629.543 c -2.89,-4.965 -0.93,21.872 -0.33,26.089 1.91,13.339 1.82,114.392 4.04,127.672 0.73,4.375 2.06,14.333 -0.43,18.487 -17.21,28.674 -19.1,-7.404 -22.79,-18.487 -1.32,-3.955 -12.75,2.123 -13.33,3.869 -9.67,29.003 3.26,40.096 30.96,44.713 12.99,2.165 20.57,-20.43 23.26,-29.862 6.05,-21.165 4.84,-134.677 2.42,-156.477 -0.59,-5.279 2.05,-15.148 -2.15,-19.347 -5.72,-5.722 -14.48,1.917 -20.69,1.917"
   style="fill:#959799"
   id="path32" />
                </g>
                <g
   transform="translate(40.9277,-237.354)"
   id="g38">
                    <path
   d="m 1667.73,337.467 c -0.23,0.012 -0.61,-8.146 -0.73,-9.012 -0.59,-4.132 -1.33,-25.601 7.74,-21.067 4.95,2.476 8.55,25.174 4.73,27.086 -1.66,0.829 -6.77,0 -8.6,0 -0.9,0 -3.44,0.9 -3.44,0.43"
   style="fill:#959799"
   id="path36" />
                </g>
                <g
   transform="translate(40.9277,-237.354)"
   id="g42">
                    <path
   d="m 1355.55,636.055 c 0,0 11.95,-66.93 19.97,-86.981 2.88,-7.216 7.83,-14.229 10.7,-21.399 20.5,-51.26 68.28,-107.395 114.43,-138.163 29.56,-19.703 61.03,-31.352 93.97,-42.333 11.32,-3.771 23.78,-7.634 35.82,-8.839 15.25,-1.525 61.29,-4.279 73.5,-3.721 86.2,3.932 189.85,59.45 247.72,129.896 60.12,73.19 72.81,161.317 72.81,161.317 -7.94,-8.37 -11.97,-17.623 -19.48,-21.947 -28.11,-16.175 -56.62,-2.446 -75.41,24.631 -5.05,7.29 -5.13,15.773 -9.78,25.227 -60.06,-46.587 -97.89,-25.255 -137.07,18.317 -68.22,-66.2 -139.74,-55.738 -191.05,-3.831 -46.53,-56.268 -97.09,-46.482 -133.84,-1.678 -25.1,-50.18 -57.34,-65.299 -99.07,-33.741"
   style="fill:#cefffe;font-variation-settings:normal;opacity:1;vector-effect:none;fill-opacity:1;stroke-width:1;stroke-linecap:butt;stroke-linejoin:miter;stroke-miterlimit:2;stroke-dasharray:none;stroke-dashoffset:0;stroke-opacity:1;-inkscape-stroke:none;stop-color:#000000;stop-opacity:1"
   id="path40" />
                </g>
                <g
   transform="translate(40.9277,-237.354)"
   id="g46">
                    <path
   d="m 1457.84,666.551 c -4.91,-44.835 14.29,-159.195 70.47,-230.392 38.96,-49.368 80.28,-85.82 142.56,-104.825 19.85,-6.057 30.97,3.189 33.07,3.285 86.2,3.932 189.85,59.45 247.72,129.896 60.12,73.19 72.81,161.317 72.81,161.317 -7.94,-8.37 -11.97,-17.623 -19.48,-21.947 -28.11,-16.175 -56.62,-2.446 -75.41,24.631 -5.05,7.29 -5.13,15.773 -9.78,25.227 -60.06,-46.587 -111.88,-23.866 -137.16,21.006 -65.2,-71.225 -144.56,-57.241 -192.28,-4.025 -39.62,-53.348 -95.77,-48.977 -132.52,-4.173 z"
   style="fill:#e7410b"
   id="path44" />
                </g>
                <g
   transform="matrix(0.422242,-0.23337,0.422539,0.911999,1263.09,-50.8848)"
   id="g50">
                    <path
   d="m 859.444,445.577 c -0.034,-0.215 -0.102,-0.43 -0.205,-0.642 -4.082,-8.437 -11.141,-14.582 -18.717,-18.109 -6.614,-3.079 -13.86,-4.407 -20.739,-4.183 -9.917,0.323 -20.622,4.254 -26.638,13.656 -4.905,7.665 -4.999,21.829 0.688,31.679 2.886,4.999 7.484,8.945 12.915,11.057 8.531,3.317 16.698,4.419 23.852,3.967 7.214,-0.456 13.823,-2.53 18.894,-6.366 7.818,-5.915 12.227,-16.668 9.95,-31.059 z m -17.216,0.37 c 1.813,11.943 -1.029,20.959 -7.547,25.89 -2.13,1.611 -4.5,2.731 -7.53,2.923 -3.091,0.195 -6.406,-0.602 -10.093,-2.035 -1.808,-0.703 -3.117,-1.9 -4.356,-3.319 -1.71,-1.96 -3.004,-4.314 -3.956,-6.85 -2.993,-7.969 -2.612,-17.688 0.986,-23.311 1.91,-2.985 4.242,-5.223 6.996,-6.71 1.722,-0.93 3.474,-1.535 5.443,-1.599 3.221,-0.105 6.185,1.133 9.148,2.935 4.519,2.75 8.313,6.854 10.907,12.07 z"
   style="fill:#000344;font-variation-settings:normal;opacity:1;vector-effect:none;fill-opacity:1;stroke-width:1.4378566;stroke-linecap:butt;stroke-linejoin:miter;stroke-miterlimit:2;stroke-dasharray:none;stroke-dashoffset:0;stroke-opacity:1;-inkscape-stroke:none;stop-color:#000000;stop-opacity:1"
   id="path48" />
                </g>
                <g
   transform="matrix(0.43761,-0.130792,0.229602,0.88524,1328.07,-145.76)"
   id="g54">
                    <path
   d="m 878.436,579.99 c 2.528,-13.697 -8.579,-26.434 -17.254,-33.27 -4.811,-3.791 -9.6,-5.938 -11.559,-6.428 -11.547,-2.887 -22.295,-0.761 -30.229,5.531 -12.699,10.07 -17.696,32.647 -9.221,46.208 7.142,11.426 20.423,15.076 32.189,14.478 7.068,-0.359 14.403,-2.375 20.597,-6.021 7.677,-4.52 13.851,-11.691 15.477,-20.498 z m -37.132,-31.692 c 6.263,3.317 21.577,16.297 18.951,30.526 v 0 c -1.418,7.682 -6.884,13.824 -14.008,16.957 -2.815,1.238 -5.731,2.052 -8.664,1.521 -4.284,-0.774 -7.323,-3.414 -9.999,-7.695 -6.145,-9.833 -3.929,-25.273 3.563,-34.85 1.733,-2.216 3.709,-4.095 6.06,-5.398 1.255,-0.695 2.526,-1.264 4.097,-1.061 z"
   style="fill:#000344;font-variation-settings:normal;opacity:1;vector-effect:none;fill-opacity:1;stroke-width:1.54779523;stroke-linecap:butt;stroke-linejoin:miter;stroke-miterlimit:2;stroke-dasharray:none;stroke-dashoffset:0;stroke-opacity:1;-inkscape-stroke:none;stop-color:#000000;stop-opacity:1"
   id="path52" />
                </g>
                <g
   transform="matrix(0.407025,-0.217894,0.371514,0.826655,1296.45,-1.79552)"
   id="g58">
                    <path
   d="m 942.644,505.035 c -7.635,-4.798 -15.33,-6.454 -21.939,-6.432 -9.457,0.033 -18.746,3.996 -24.623,10.968 -6.924,8.212 -10.011,20.568 -6.947,31.134 2.254,7.773 7.983,14.566 16.932,18.634 6.925,3.148 15.465,4.623 23.608,4.029 7.757,-0.566 15.524,-3.005 20.84,-8.321 7.641,-7.641 9.37,-25.096 4.111,-37.197 -2.501,-5.753 -6.857,-10.342 -11.982,-12.815 z m -13.377,5.731 c 0.424,0.275 0.904,0.528 1.43,0.753 1.803,0.773 2.98,2.189 4.156,3.877 1.678,2.407 2.881,5.324 3.675,8.453 2.425,9.55 1.221,21.099 -4.255,26.574 -2.256,2.257 -5.07,3.579 -8.362,3.819 -2.903,0.211 -5.86,-0.468 -8.328,-1.59 -6.009,-2.731 -9.039,-7.453 -10.552,-12.671 -2.587,-8.919 -0.088,-19.358 5.756,-26.29 1.668,-1.978 3.569,-3.65 5.804,-4.803 1.108,-0.572 2.153,-1.063 3.484,-1.068 2.381,-0.008 4.443,1.162 7.192,2.946 z"
   style="fill:#000344;font-variation-settings:normal;opacity:1;vector-effect:none;fill-opacity:1;stroke-width:1.54779534;stroke-linecap:butt;stroke-linejoin:miter;stroke-miterlimit:2;stroke-dasharray:none;stroke-dashoffset:0;stroke-opacity:1;-inkscape-stroke:none;stop-color:#000000;stop-opacity:1"
   id="path56" />
                </g>
                <g
   transform="matrix(0.453175,-0.0413008,0.0832544,0.913513,1399.26,-243.608)"
   id="g62">
                    <path
   d="m 877.604,666.68 c -5.497,-5.981 -13.692,-8.524 -21.385,-8.933 -11.159,-0.592 -23.936,3.582 -29.644,12.145 -10.023,15.034 -9.968,34.758 1.098,49.512 4.084,5.446 10.325,8.055 16.629,9.053 6.61,1.047 14.038,0.394 21.19,-1.786 10.827,-3.3 21.269,-10.345 25.634,-16.893 10.384,-15.576 -3.117,-32.677 -13.522,-43.098 z m -16.619,3.817 c 0.046,0.05 0.093,0.099 0.142,0.148 8.776,8.776 21.382,23.126 12.612,36.28 -3.078,4.618 -10.198,9.678 -17.835,12.006 -2.09,0.637 -4.1,1.178 -6.032,0.872 -2.241,-0.355 -3.584,-1.63 -5.036,-3.567 -9.72,-12.96 -9.678,-30.286 -0.874,-43.492 1.432,-2.148 3.468,-3.874 5.971,-4.988 1.37,-0.611 2.803,-1.057 4.337,-0.976 2.765,0.147 4.747,1.557 6.715,3.717 z"
   style="fill:#000344;font-variation-settings:normal;opacity:1;vector-effect:none;fill-opacity:1;stroke-width:1.5477957;stroke-linecap:butt;stroke-linejoin:miter;stroke-miterlimit:2;stroke-dasharray:none;stroke-dashoffset:0;stroke-opacity:1;-inkscape-stroke:none;stop-color:#000000;stop-opacity:1"
   id="path60" />
                </g>
                <g
   transform="matrix(0.441973,-0.11273,0.200105,0.893406,1338.96,-152.721)"
   id="g66">
                    <path
   d="m 963.802,645.829 c -1.082,-6.963 -5.024,-12.247 -9.973,-16.207 -10.285,-8.23 -25.296,-10.972 -32.271,-11.196 -4.56,-0.146 -7.636,0.63 -9.218,1.308 -22.931,9.828 -26.197,23.328 -22.6,46.503 2.505,16.141 25.315,24.619 43.974,22.129 7.682,-1.025 15.366,-3.86 21.122,-9.208 7.015,-6.515 11.46,-17.277 8.966,-33.329 z m -41.52,-18.114 c 1.72,0.282 4.782,0.862 7.196,1.726 7.322,2.62 14.704,7.836 16.101,16.825 1.789,11.514 -0.151,19.894 -4.404,25.61 -3.261,4.383 -7.521,7.002 -12.67,7.689 -4.097,0.547 -8.248,-0.449 -11.663,-2.246 -4.802,-2.526 -8.106,-6.536 -8.879,-11.518 -2.881,-18.559 -2.628,-29.952 14.319,-38.086 z"
   style="fill:#000344;font-variation-settings:normal;opacity:1;vector-effect:none;fill-opacity:1;stroke-width:1.54779674;stroke-linecap:butt;stroke-linejoin:miter;stroke-miterlimit:2;stroke-dasharray:none;stroke-dashoffset:0;stroke-opacity:1;-inkscape-stroke:none;stop-color:#000000;stop-opacity:1"
   id="path64" />
                </g>
                <g
   transform="matrix(0.433286,-0.146509,0.255249,0.877073,1324.92,-63.2138)"
   id="g70">
                    <path
   d="m 1033.27,593.706 c -0.88,-2.919 -3.05,-4.993 -5.67,-6.463 -4.98,-2.798 -12.1,-3.769 -19.59,-3.201 -8.635,0.653 -17.568,3.514 -21.567,6.179 -11.165,7.444 -18.416,23.007 -17.513,37.11 0.632,9.858 5.384,18.943 14.267,24.371 5.123,3.131 10.742,4.666 16.221,5.143 5.672,0.494 11.462,-0.132 16.942,-1.882 11.83,-3.782 22.81,-13.834 26.03,-25.635 3.95,-14.484 -0.32,-24.473 -9.12,-35.622 z m -17.94,1.305 c 0.09,0.416 0.3,0.827 0.61,1.22 7.92,9.9 11.87,18.669 8.38,31.484 -2.06,7.545 -7.62,14.317 -14.76,18.025 -2.54,1.318 -4.98,2.354 -7.77,2.111 -1.67,-0.145 -3.128,-0.8 -4.687,-1.752 -6.765,-4.134 -9.465,-11.163 -9.946,-18.669 -0.765,-11.941 4.583,-25.226 14.033,-31.528 1.17,-0.776 3.33,-1.522 5.7,-2.087 1.67,-0.398 3.47,-0.704 5.22,-0.781 0.73,-0.032 1.46,-0.084 2.05,0.092 0.95,0.284 0.96,0.965 1.17,1.885 z"
   style="fill:#000344;font-variation-settings:normal;opacity:1;vector-effect:none;fill-opacity:1;stroke-width:1.5477957;stroke-linecap:butt;stroke-linejoin:miter;stroke-miterlimit:2;stroke-dasharray:none;stroke-dashoffset:0;stroke-opacity:1;-inkscape-stroke:none;stop-color:#000000;stop-opacity:1"
   id="path68" />
                </g>
                <g
   transform="translate(-1083.61,-1710.79)"
   id="g74">
                    <path
   d="m 2583.59,2088.73 c 27.44,-37.49 143.48,-16.69 135.1,11 -0.49,1.61 2.95,-53.48 2.15,-58.09 -4.22,-24.36 -114.34,-34.62 -127.22,0"
   style="fill:#000344;font-variation-settings:normal;opacity:1;vector-effect:none;fill-opacity:1;stroke-width:1.00000028;stroke-linecap:butt;stroke-linejoin:miter;stroke-miterlimit:2;stroke-dasharray:none;stroke-dashoffset:0;stroke-opacity:1;-inkscape-stroke:none;stop-color:#000000;stop-opacity:1"
   id="path72" />
                </g>
                <g
   transform="translate(-1083.61,-1710.79)"
   id="g78">
                    <path
   d="m 2896.78,2098.12 c 0.24,0.45 1.73,3.13 2.43,3.93 1.2,1.38 2.61,1.84 3.82,1.84 2.3,0 4.16,-1.87 4.16,-4.17 0,-1.45 -0.74,-2.73 -1.87,-3.48 -0.35,-0.64 -1.15,-2.1 -1.66,-2.83 -0.61,-0.89 -1.3,-1.58 -1.98,-2.03 -3.04,-2.03 -4.98,-4.51 -7.23,-6.73 -2.9,-2.85 -6.16,-5.38 -11.46,-6.83 -45.98,-12.54 -79.91,-20.84 -127.09,-0.62 -12.57,5.39 -22.78,10.17 -32.19,19.57 -1.47,1.47 -4.18,3.38 -6.11,5.49 -2.04,2.25 -3.26,4.77 -3.23,7.22 0.04,2.3 1.94,4.14 4.24,4.1 2.3,-0.03 4.13,-1.93 4.1,-4.23 -0.01,-0.28 0.26,-0.49 0.46,-0.76 0.38,-0.52 0.87,-1.03 1.38,-1.52 1.77,-1.68 3.84,-3.19 5.05,-4.4 8.62,-8.63 18.06,-12.87 29.58,-17.81 45.15,-19.35 77.62,-11 121.62,1 4.46,1.21 6.78,3.64 9.15,6.11 2.03,2.11 4.07,4.26 6.83,6.15 z"
   style="fill:#000344;font-variation-settings:normal;opacity:1;vector-effect:none;fill-opacity:1;stroke-width:1.00000028;stroke-linecap:butt;stroke-linejoin:miter;stroke-miterlimit:2;stroke-dasharray:none;stroke-dashoffset:0;stroke-opacity:1;-inkscape-stroke:none;stop-color:#000000;stop-opacity:1"
   id="path76" />
                </g>
                <g
   transform="translate(-1083.61,-1710.79)"
   id="g82">
                    <path
   d="m 2719.22,2067.69 c -2.06,0.5 -3.45,2.5 -3.14,4.64 0.32,2.28 2.44,3.86 4.71,3.54 1.35,-0.2 3.32,-1.21 5.32,-2.98 2.76,-2.43 6.1,-6.51 8.01,-7.87 7.06,-5.04 14.89,-8.14 23.02,-11.1 29.38,-10.68 61.48,-11.1 92.05,-6 5.67,0.94 10.73,4.66 16.03,6.43 4.12,1.37 16.02,5.16 23.79,9.31 1.48,0.8 2.8,1.6 3.84,2.4 0.6,0.47 1.12,0.86 1.35,1.31 1.02,2.05 3.53,2.89 5.59,1.86 2.05,-1.03 2.89,-3.53 1.86,-5.59 -1.15,-2.3 -4.33,-4.98 -8.71,-7.32 -8.19,-4.39 -20.73,-8.43 -25.08,-9.88 -5.7,-1.9 -11.2,-5.73 -17.3,-6.74 -31.97,-5.33 -65.54,-4.78 -96.26,6.39 -8.86,3.22 -17.35,6.66 -25.02,12.15 -1.81,1.29 -4.83,4.71 -7.57,7.36 -0.86,0.84 -2.22,1.88 -2.49,2.09 z"
   style="fill:#000344;font-variation-settings:normal;opacity:1;vector-effect:none;fill-opacity:1;stroke-width:1.00000028;stroke-linecap:butt;stroke-linejoin:miter;stroke-miterlimit:2;stroke-dasharray:none;stroke-dashoffset:0;stroke-opacity:1;-inkscape-stroke:none;stop-color:#000000;stop-opacity:1"
   id="path80" />
                </g>
                <g
   transform="translate(-1083.61,-1710.79)"
   id="g86">
                    <path
   d="m 2728.01,2038.05 c 0.21,-0.23 1.07,-1.11 1.67,-1.55 1.51,-1.11 3.26,-2.02 4.27,-2.53 10.39,-5.19 20.65,-9.06 32.01,-11.68 33.32,-7.69 56.35,-10.65 90.38,-3.09 6.64,1.48 14.16,2.79 20,6.44 2.15,1.34 6.74,5.18 10.28,7.36 2.37,1.46 4.54,2.19 5.88,2.19 2.3,0 4.16,-1.87 4.16,-4.17 0,-2.19 -1.68,-3.98 -3.82,-4.15 -0.29,-0.15 -2.08,-1.08 -3.25,-1.88 -3.28,-2.23 -6.97,-5.25 -8.83,-6.42 -6.62,-4.13 -15.08,-5.83 -22.62,-7.5 -35.41,-7.87 -59.38,-4.9 -94.06,3.1 -12.01,2.77 -22.87,6.85 -33.86,12.35 -1.9,0.95 -5.67,3.04 -7.88,5.33 -1.57,1.64 -2.45,3.46 -2.58,5.14 -0.19,2.29 1.52,4.3 3.81,4.49 2.16,0.17 4.07,-1.34 4.44,-3.43 z"
   style="fill:#000344;font-variation-settings:normal;opacity:1;vector-effect:none;fill-opacity:1;stroke-width:1.00000028;stroke-linecap:butt;stroke-linejoin:miter;stroke-miterlimit:2;stroke-dasharray:none;stroke-dashoffset:0;stroke-opacity:1;-inkscape-stroke:none;stop-color:#000000;stop-opacity:1"
   id="path84" />
                </g>
                <g
   transform="translate(-1083.61,-1710.79)"
   id="g90">
                    <path
   d="m 2884.37,1996.26 c -0.25,-0.13 -1.26,-0.67 -1.9,-1.12 -2.44,-1.66 -5.13,-3.87 -6.71,-4.66 -7.55,-3.78 -14.34,-8.32 -22.8,-10.74 -32.18,-9.19 -61.95,-9.67 -94.22,0.42 -5.41,1.69 -16.78,6.03 -24.49,10.63 -3.87,2.31 -6.85,4.79 -8.25,6.99 -1.24,1.94 -0.67,4.52 1.27,5.76 1.93,1.24 4.51,0.67 5.75,-1.27 1.29,-2.01 4.74,-4.03 8.67,-6.08 6.83,-3.57 15.22,-6.73 19.54,-8.08 30.63,-9.57 58.89,-9.08 89.44,-0.36 7.94,2.27 14.27,6.64 21.37,10.19 1.64,0.82 4.59,3.44 7,4.91 1.89,1.16 3.68,1.73 4.93,1.73 2.3,0 4.17,-1.87 4.17,-4.17 0,-2.17 -1.66,-3.95 -3.77,-4.15 z"
   style="fill:#000344;font-variation-settings:normal;opacity:1;vector-effect:none;fill-opacity:1;stroke-width:1.00000028;stroke-linecap:butt;stroke-linejoin:miter;stroke-miterlimit:2;stroke-dasharray:none;stroke-dashoffset:0;stroke-opacity:1;-inkscape-stroke:none;stop-color:#000000;stop-opacity:1"
   id="path88" />
                </g>
                <g
   transform="translate(-1083.61,-1710.79)"
   id="g94">
                    <path
   d="m 2736.7,1976.31 c 3.54,-6.84 10.36,-12.45 19.04,-16.88 13.83,-7.06 32.31,-11.05 50.95,-11.58 18.61,-0.54 37.4,2.36 51.89,9.27 9.17,4.37 16.6,10.33 20.9,18.17 1.1,2.02 3.64,2.76 5.65,1.65 2.02,-1.1 2.76,-3.64 1.65,-5.66 -5.09,-9.28 -13.75,-16.51 -24.62,-21.69 -15.56,-7.42 -35.72,-10.65 -55.71,-10.07 -19.95,0.57 -39.71,4.93 -54.5,12.49 -10.41,5.32 -18.4,12.26 -22.65,20.46 -1.06,2.04 -0.26,4.56 1.78,5.62 2.04,1.05 4.56,0.26 5.62,-1.78 z"
   style="fill:#000344;font-variation-settings:normal;opacity:1;vector-effect:none;fill-opacity:1;stroke-width:1.00000028;stroke-linecap:butt;stroke-linejoin:miter;stroke-miterlimit:2;stroke-dasharray:none;stroke-dashoffset:0;stroke-opacity:1;-inkscape-stroke:none;stop-color:#000000;stop-opacity:1"
   id="path92" />
                </g>
                <g
   transform="translate(-1083.61,-1710.79)"
   id="g98">
                    <path
   d="m 2744.32,1940.73 c 8.86,-18.59 34.7,-27.37 60.51,-27.71 25.86,-0.34 52.15,7.81 61.9,25.15 1.13,2.01 3.67,2.72 5.67,1.59 2.01,-1.13 2.72,-3.67 1.59,-5.67 -10.97,-19.53 -40.14,-29.78 -69.27,-29.4 -29.19,0.38 -57.9,11.43 -67.92,32.45 -0.99,2.07 -0.11,4.56 1.97,5.55 2.07,0.99 4.56,0.11 5.55,-1.96 z"
   style="fill:#000344;font-variation-settings:normal;opacity:1;vector-effect:none;fill-opacity:1;stroke-width:1.00000028;stroke-linecap:butt;stroke-linejoin:miter;stroke-miterlimit:2;stroke-dasharray:none;stroke-dashoffset:0;stroke-opacity:1;-inkscape-stroke:none;stop-color:#000000;stop-opacity:1"
   id="path96" />
                </g>
                <g
   transform="translate(-1083.61,-1710.79)"
   id="g102">
                    <path
   d="m 2753.63,1904.9 c 2.68,-6.29 9.32,-10.94 17.74,-14.34 13.81,-5.59 32.38,-7.55 48.79,-5.88 10.66,1.08 20.41,3.68 27.2,7.97 3.9,2.46 6.79,5.46 7.93,9.16 0.67,2.2 3.01,3.44 5.2,2.76 2.2,-0.68 3.44,-3.01 2.76,-5.21 -1.68,-5.47 -5.67,-10.12 -11.43,-13.76 -7.71,-4.86 -18.72,-7.98 -30.82,-9.21 -17.74,-1.81 -37.82,0.4 -52.76,6.44 -10.75,4.35 -18.86,10.77 -22.28,18.81 -0.89,2.12 0.09,4.57 2.21,5.47 2.12,0.9 4.57,-0.09 5.46,-2.21 z"
   style="fill:#000344;font-variation-settings:normal;opacity:1;vector-effect:none;fill-opacity:1;stroke-width:1.00000028;stroke-linecap:butt;stroke-linejoin:miter;stroke-miterlimit:2;stroke-dasharray:none;stroke-dashoffset:0;stroke-opacity:1;-inkscape-stroke:none;stop-color:#000000;stop-opacity:1"
   id="path100" />
                </g>
                <g
   transform="translate(-1083.61,-1710.79)"
   id="g106">
                    <path
   d="m 2764.86,1872.98 c 5.82,-11.18 22.04,-17.4 38.13,-18.25 15.92,-0.84 32.13,3.52 38.19,15.35 1.05,2.05 3.56,2.86 5.61,1.81 2.04,-1.05 2.85,-3.56 1.81,-5.61 -7.39,-14.41 -26.66,-20.89 -46.05,-19.87 -19.22,1.02 -38.13,9.36 -45.09,22.72 -1.06,2.04 -0.26,4.56 1.78,5.62 2.04,1.06 4.55,0.27 5.62,-1.77 z"
   style="fill:#000344;font-variation-settings:normal;opacity:1;vector-effect:none;fill-opacity:1;stroke-width:1.00000028;stroke-linecap:butt;stroke-linejoin:miter;stroke-miterlimit:2;stroke-dasharray:none;stroke-dashoffset:0;stroke-opacity:1;-inkscape-stroke:none;stop-color:#000000;stop-opacity:1"
   id="path104" />
                </g>
                <g
   transform="translate(-1083.61,-1710.79)"
   id="g110">
                    <path
   d="m 2781.76,1841.68 c 0.07,-1.64 1.31,-2.97 2.93,-4.23 2.36,-1.82 5.61,-3.27 9.23,-4.3 6.77,-1.93 14.8,-2.39 21.06,-0.56 3.42,1.01 6.31,2.66 7.69,5.46 1.02,2.06 3.52,2.91 5.59,1.89 2.06,-1.02 2.9,-3.52 1.89,-5.58 -2.37,-4.79 -6.98,-8.05 -12.82,-9.76 -7.64,-2.24 -17.44,-1.81 -25.7,0.54 -5.76,1.64 -10.75,4.24 -13.92,7.35 -2.66,2.63 -4.14,5.65 -4.28,8.85 -0.09,2.29 1.7,4.24 3.99,4.33 2.3,0.1 4.24,-1.69 4.34,-3.99 z"
   style="fill:#000344;font-variation-settings:normal;opacity:1;vector-effect:none;fill-opacity:1;stroke-width:1.00000028;stroke-linecap:butt;stroke-linejoin:miter;stroke-miterlimit:2;stroke-dasharray:none;stroke-dashoffset:0;stroke-opacity:1;-inkscape-stroke:none;stop-color:#000000;stop-opacity:1"
   id="path108" />
                </g>
                <g
   transform="translate(-1083.61,-1710.79)"
   id="g114">
                    <path
   d="m 2618.2,1968.33 c -0.53,3.86 -13.21,36.06 -12.98,35.88 25.89,-20.62 94.32,-16.23 117.88,13.34 0.22,0.28 0.39,0.75 0.75,0.75 0.62,0 10.04,-39.96 9.87,-40.15 -26.59,-29.58 -113.26,-26.31 -115.52,-9.82 z"
   style="fill:#000344;font-variation-settings:normal;opacity:1;vector-effect:none;fill-opacity:1;stroke-width:1.00000028;stroke-linecap:butt;stroke-linejoin:miter;stroke-miterlimit:2;stroke-dasharray:none;stroke-dashoffset:0;stroke-opacity:1;-inkscape-stroke:none;stop-color:#000000;stop-opacity:1"
   id="path112" />
                </g>
                <g
   transform="translate(-1083.61,-1710.79)"
   id="g118">
                    <path
   d="m 2637.88,1937.62 c -2.16,0.48 -0.24,0.42 0,0 9.36,-15.79 107.96,-5.35 98.01,19.71 -1.12,2.82 11.08,-38.82 9.04,-42.91 -9.71,-19.41 -77.24,-19.87 -88.83,-8.28 -3.96,3.96 -19.45,31.48 -18.22,31.48 z"
   style="fill:#000344;font-variation-settings:normal;opacity:1;vector-effect:none;fill-opacity:1;stroke-width:1.00000028;stroke-linecap:butt;stroke-linejoin:miter;stroke-miterlimit:2;stroke-dasharray:none;stroke-dashoffset:0;stroke-opacity:1;-inkscape-stroke:none;stop-color:#000000;stop-opacity:1"
   id="path116" />
                </g>
                <g
   transform="translate(-1083.61,-1710.79)"
   id="g122">
                    <path
   d="m 2671.37,1886.8 c 19.58,-15.74 78.9,-9.2 81.23,6.4 0.12,0.79 9.13,-25.89 8.31,-27.85 -2.14,-5.07 -36.94,-13.1 -58.9,-5.53 -14.25,4.91 -22.98,19.31 -30.64,26.98 z"
   style="fill:#000344;font-variation-settings:normal;opacity:1;vector-effect:none;fill-opacity:1;stroke-width:1.00000028;stroke-linecap:butt;stroke-linejoin:miter;stroke-miterlimit:2;stroke-dasharray:none;stroke-dashoffset:0;stroke-opacity:1;-inkscape-stroke:none;stop-color:#000000;stop-opacity:1"
   id="path120" />
                </g>
                <g
   transform="matrix(0.8897,0,0,0.786796,-773.739,-1325.39)"
   id="g126">
                    <path
   d="m 2740.5,1831.98 c 6.76,-6.89 37.9,1.43 36.14,5.59 l 9.9,-15.15 c 0,0 -12.65,-8.43 -25.6,-2.66 -8.02,3.58 -15.1,6.88 -20.44,12.22 z"
   style="fill:#000344;font-variation-settings:normal;opacity:1;vector-effect:none;fill-opacity:1;stroke-width:1.19521836;stroke-linecap:butt;stroke-linejoin:miter;stroke-miterlimit:2;stroke-dasharray:none;stroke-dashoffset:0;stroke-opacity:1;-inkscape-stroke:none;stop-color:#000000;stop-opacity:1"
   id="path124" />
                </g>
                <g
   transform="translate(-1083.61,-1710.79)"
   id="g130">
                    <path
   d="m 2775.25,1842.9 c -8.01,-9.03 -37.73,-13.73 -46.8,-4.98 -3.06,2.95 -15.67,11.85 -15.51,11.68 6.92,-7.16 60.13,0.05 54.19,6.29 -1.03,1.09 8.12,-11.44 8.12,-12.99 z"
   style="fill:#000344;font-variation-settings:normal;opacity:1;vector-effect:none;fill-opacity:1;stroke-width:1.00000028;stroke-linecap:butt;stroke-linejoin:miter;stroke-miterlimit:2;stroke-dasharray:none;stroke-dashoffset:0;stroke-opacity:1;-inkscape-stroke:none;stop-color:#000000;stop-opacity:1"
   id="path128" />
                </g>
                <g
   transform="translate(40.9277,-237.354)"
   id="g166">
                    <g
   id="g146">
                        <path
   d="m 1354.45,643.366 c 24.88,-166.751 124.31,-263.542 239.68,-295.387 173.05,-47.766 381.68,50.484 427.47,277.077 0.32,1.578 1.86,2.6 3.44,2.281 1.58,-0.319 2.6,-1.858 2.28,-3.436 -46.56,-230.388 -258.79,-330.111 -434.74,-281.545 -117.3,32.377 -218.6,130.612 -243.9,300.149 -0.24,1.592 0.86,3.077 2.46,3.315 1.59,0.237 3.07,-0.862 3.31,-2.454 z"
   style="fill:#000344;font-variation-settings:normal;opacity:1;vector-effect:none;fill-opacity:1;stroke-width:1.00000028;stroke-linecap:butt;stroke-linejoin:miter;stroke-miterlimit:2;stroke-dasharray:none;stroke-dashoffset:0;stroke-opacity:1;-inkscape-stroke:none;stop-color:#000000;stop-opacity:1"
   id="path132" />
                        <path
   d="m 1592.37,675.605 c 10.18,-22.291 33.93,-37.816 61.99,-44.055 42.54,-9.456 95.12,2.443 126.83,45.239 0.96,1.293 2.79,1.565 4.08,0.607 1.29,-0.959 1.56,-2.787 0.61,-4.08 -33.21,-44.815 -88.24,-57.362 -132.78,-47.46 -29.98,6.665 -55.16,23.513 -66.04,47.326 -0.67,1.464 -0.02,3.196 1.44,3.864 1.47,0.669 3.2,0.024 3.87,-1.441 z"
   style="fill:#000344;font-variation-settings:normal;opacity:1;vector-effect:none;fill-opacity:1;stroke-width:1.00000028;stroke-linecap:butt;stroke-linejoin:miter;stroke-miterlimit:2;stroke-dasharray:none;stroke-dashoffset:0;stroke-opacity:1;-inkscape-stroke:none;stop-color:#000000;stop-opacity:1"
   id="path134" />
                        <path
   d="m 1788.38,672.128 c 13.89,-35.625 55.49,-46.424 87.27,-40.714 20.54,3.69 37.23,14.16 38.68,30.029 0.15,1.603 1.57,2.786 3.17,2.639 1.61,-0.146 2.79,-1.567 2.64,-3.17 -1.66,-18.131 -19.99,-31.023 -43.46,-35.239 -34.21,-6.148 -78.78,5.976 -93.74,44.335 -0.58,1.5 0.16,3.192 1.66,3.777 1.5,0.585 3.19,-0.157 3.78,-1.657 z"
   style="fill:#000344;font-variation-settings:normal;opacity:1;vector-effect:none;fill-opacity:1;stroke-width:1.00000028;stroke-linecap:butt;stroke-linejoin:miter;stroke-miterlimit:2;stroke-dasharray:none;stroke-dashoffset:0;stroke-opacity:1;-inkscape-stroke:none;stop-color:#000000;stop-opacity:1"
   id="path136" />
                        <g
   transform="translate(-326.847,13.8418)"
   id="g140">
                            <path
   d="m 1786.01,654.525 c 17.82,-34.806 57.15,-41.222 87.92,-31.281 20.3,6.558 37,20.216 41.02,37.888 0.36,1.569 1.92,2.554 3.49,2.197 1.57,-0.357 2.56,-1.921 2.2,-3.491 -4.43,-19.492 -22.53,-34.912 -44.92,-42.145 -33.25,-10.745 -75.64,-3.449 -94.91,34.173 -0.73,1.433 -0.16,3.192 1.27,3.926 1.43,0.733 3.19,0.166 3.93,-1.267 z"
   style="fill:#000344;font-variation-settings:normal;opacity:1;vector-effect:none;fill-opacity:1;stroke-width:1.00000028;stroke-linecap:butt;stroke-linejoin:miter;stroke-miterlimit:2;stroke-dasharray:none;stroke-dashoffset:0;stroke-opacity:1;-inkscape-stroke:none;stop-color:#000000;stop-opacity:1"
   id="path138" />
                        </g>
                        <path
   d="m 1354.13,644.703 c 10.41,-28.373 48.73,-37.481 74.87,-17.538 11.4,8.698 20.46,22.909 24.12,43.374 0.29,1.585 1.8,2.641 3.39,2.357 1.58,-0.283 2.64,-1.8 2.36,-3.384 -3.98,-22.208 -13.96,-37.546 -26.33,-46.984 -29.33,-22.376 -72.21,-11.667 -83.89,20.166 -0.55,1.511 0.23,3.188 1.74,3.743 1.51,0.554 3.19,-0.222 3.74,-1.734 z"
   style="fill:#000344;font-variation-settings:normal;opacity:1;vector-effect:none;fill-opacity:1;stroke-width:1.00000028;stroke-linecap:butt;stroke-linejoin:miter;stroke-miterlimit:2;stroke-dasharray:none;stroke-dashoffset:0;stroke-opacity:1;-inkscape-stroke:none;stop-color:#000000;stop-opacity:1"
   id="path142" />
                        <path
   d="m 1920.86,658.898 c 2.6,-34.386 33.08,-56.513 60.62,-57.919 17.9,-0.914 34.59,7.102 41.07,26.644 0.51,1.528 2.16,2.357 3.69,1.85 1.53,-0.507 2.36,-2.159 1.85,-3.687 -7.42,-22.362 -26.42,-31.679 -46.91,-30.633 -30.07,1.535 -63.3,25.756 -66.14,63.305 -0.12,1.605 1.09,3.007 2.69,3.128 1.61,0.122 3.01,-1.083 3.13,-2.688 z"
   style="fill:#000344;font-variation-settings:normal;opacity:1;vector-effect:none;fill-opacity:1;stroke-width:1.00000028;stroke-linecap:butt;stroke-linejoin:miter;stroke-miterlimit:2;stroke-dasharray:none;stroke-dashoffset:0;stroke-opacity:1;-inkscape-stroke:none;stop-color:#000000;stop-opacity:1"
   id="path144" />
                    </g>
                    <path
   d="m 1669.96,332.927 c -0.05,-1.142 -0.31,-7.809 -0.31,-9.008 0,-3.101 -0.49,-6.783 -0.21,-10.063 0.19,-2.297 0.69,-4.427 2.78,-5.471 0.38,-0.19 0.69,-0.33 0.99,-0.273 0.48,0.094 0.72,0.609 1.03,1.156 0.45,0.822 0.81,1.841 1.11,2.975 1.79,6.698 1.49,16.943 1.49,20.05 0,1.609 1.3,2.916 2.92,2.916 1.61,0 2.91,-1.307 2.91,-2.916 0,-3.965 0.24,-18.533 -2.99,-25.194 -1.23,-2.534 -2.98,-4.121 -5.02,-4.638 -1.45,-0.367 -3.13,-0.25 -5.05,0.707 -3.31,1.656 -4.97,4.483 -5.66,7.906 -0.81,3.964 -0.14,8.854 -0.14,12.845 0,1.469 0.17,8.951 0.42,10.271 0.31,1.594 1.37,2.128 1.7,2.282 0.97,0.454 1.97,0.435 2.96,-0.283 1.05,-0.76 1.45,-2.091 1.07,-3.262 z m -1.98,-1.904 c -0.78,-0.253 -1.58,-0.177 -2.37,0.349 0.72,-0.468 1.59,-0.573 2.37,-0.349 z"
   style="fill:#000344;font-variation-settings:normal;opacity:1;vector-effect:none;fill-opacity:1;stroke-width:1.00000028;stroke-linecap:butt;stroke-linejoin:miter;stroke-miterlimit:2;stroke-dasharray:none;stroke-dashoffset:0;stroke-opacity:1;-inkscape-stroke:none;stop-color:#000000;stop-opacity:1"
   id="path148" />
                    <path
   d="m 1593.53,669.419 c 2.34,-150.967 32.95,-280.919 79.88,-333.247 0.54,-0.599 0.49,-1.522 -0.11,-2.059 -0.6,-0.537 -1.52,-0.487 -2.06,0.112 -47.21,52.636 -78.27,183.29 -80.63,335.148 -0.01,0.805 0.64,1.469 1.44,1.481 0.8,0.013 1.47,-0.631 1.48,-1.435 z"
   style="fill:#000344;font-variation-settings:normal;opacity:1;vector-effect:none;fill-opacity:1;stroke-width:1.00000028;stroke-linecap:butt;stroke-linejoin:miter;stroke-miterlimit:2;stroke-dasharray:none;stroke-dashoffset:0;stroke-opacity:1;-inkscape-stroke:none;stop-color:#000000;stop-opacity:1"
   id="path150" />
                    <path
   d="m 1457.18,666.336 c 3.59,-126.479 61.61,-285.093 214.58,-331.754 0.77,-0.235 1.21,-1.051 0.97,-1.82 -0.23,-0.77 -1.05,-1.205 -1.82,-0.97 -154.29,47.062 -213.02,206.896 -216.65,334.461 -0.02,0.804 0.61,1.476 1.42,1.499 0.8,0.023 1.47,-0.612 1.5,-1.416 z"
   style="fill:#000344;font-variation-settings:normal;opacity:1;vector-effect:none;fill-opacity:1;stroke-width:1.00000028;stroke-linecap:butt;stroke-linejoin:miter;stroke-miterlimit:2;stroke-dasharray:none;stroke-dashoffset:0;stroke-opacity:1;-inkscape-stroke:none;stop-color:#000000;stop-opacity:1"
   id="path152" />
                    <path
   d="m 1785.94,672.008 c -0.83,-56.719 -16.85,-150.924 -43.62,-227.119 -17.92,-51.039 -40.73,-93.985 -66.92,-112.419 -0.65,-0.463 -1.56,-0.305 -2.03,0.353 -0.46,0.658 -0.3,1.568 0.36,2.032 25.83,18.185 48.16,60.651 65.84,111 26.66,75.887 42.63,169.707 43.46,226.196 0.01,0.805 0.67,1.449 1.48,1.437 0.8,-0.012 1.44,-0.675 1.43,-1.48 z"
   style="fill:#000344;font-variation-settings:normal;opacity:1;vector-effect:none;fill-opacity:1;stroke-width:1.00000028;stroke-linecap:butt;stroke-linejoin:miter;stroke-miterlimit:2;stroke-dasharray:none;stroke-dashoffset:0;stroke-opacity:1;-inkscape-stroke:none;stop-color:#000000;stop-opacity:1"
   id="path154" />
                    <path
   d="m 1920.23,660.817 c -8.69,-131.698 -97.09,-289.651 -238.96,-327.097 -0.78,-0.206 -1.58,0.259 -1.78,1.038 -0.21,0.778 0.26,1.576 1.03,1.782 140.68,37.132 228.18,193.877 236.8,324.469 0.06,0.803 0.75,1.412 1.56,1.359 0.8,-0.053 1.41,-0.748 1.35,-1.551 z"
   style="fill:#000344;font-variation-settings:normal;opacity:1;vector-effect:none;fill-opacity:1;stroke-width:1.00000028;stroke-linecap:butt;stroke-linejoin:miter;stroke-miterlimit:2;stroke-dasharray:none;stroke-dashoffset:0;stroke-opacity:1;-inkscape-stroke:none;stop-color:#000000;stop-opacity:1"
   id="path156" />
                    <path
   d="m 1647.79,779.874 c -5.13,-2.334 -9.33,0.135 -11.8,2.601 -0.63,0.633 -1.35,2.046 -1.81,3.904 -0.71,2.868 -1.14,7.057 -1.34,8.446 -1.62,11.339 -0.97,18.753 1.61,24.048 2.06,4.234 5.32,7.236 9.87,9.719 4.09,2.234 9.29,4.059 15.61,6.163 1.26,0.421 5.31,1.444 8.26,1.706 1.85,0.166 3.39,-0.067 4.2,-0.469 19.36,-9.68 26.22,-28.649 27.78,-50.272 1.71,-23.586 -2.61,-137.985 -2.61,-158.028 0,-1.609 -1.31,-2.916 -2.92,-2.916 -1.61,0 -2.91,1.307 -2.91,2.916 0,19.989 4.33,134.083 2.63,157.607 -1.41,19.381 -7.11,36.626 -24.37,45.371 -0.3,-0.003 -1.5,-0.025 -2.35,-0.144 -2.3,-0.328 -4.95,-1 -5.87,-1.305 -5.92,-1.974 -10.81,-3.653 -14.65,-5.749 -3.39,-1.847 -5.89,-4.001 -7.43,-7.15 -2.21,-4.548 -2.47,-10.933 -1.07,-20.672 0.16,-1.123 0.47,-4.19 0.97,-6.747 0.19,-0.913 0.59,-2.166 0.68,-2.455 1.16,-1.11 3.02,-2.312 5.32,-1.162 0.59,0.296 1.58,0.5 2.8,0.413 0.59,-0.042 1.55,-0.144 2.37,-0.237 0.03,3.91 0.3,13.858 2.05,19.769 1.28,4.328 3.58,7.516 6.85,8.615 2.23,0.749 5.04,0.634 8.54,-1.114 5.87,-2.934 8.55,-7.83 9.7,-13.488 1,-4.972 0.75,-10.565 0.75,-15.637 0,-22.97 -2.05,-133.847 -1.09,-156.974 0.07,-1.608 -1.18,-2.968 -2.79,-3.035 -1.61,-0.068 -2.97,1.184 -3.04,2.792 -0.96,23.163 1.09,134.211 1.09,157.217 0,4.696 0.29,9.877 -0.64,14.481 -0.79,3.917 -2.53,7.396 -6.59,9.427 -1.68,0.843 -3,1.162 -4.07,0.801 -1.69,-0.566 -2.46,-2.509 -3.12,-4.739 -1.88,-6.341 -1.48,-15.422 -1.73,-19.259 -0.08,-1.247 -0.28,-2.141 -0.47,-2.603 -0.21,-0.497 -0.48,-0.849 -0.73,-1.1 -0.68,-0.682 -2.04,-1.243 -3.81,-1.155 -1.11,0.056 -3.31,0.34 -3.87,0.414 z"
   style="fill:#000344;font-variation-settings:normal;opacity:1;vector-effect:none;fill-opacity:1;stroke-width:1.00000028;stroke-linecap:butt;stroke-linejoin:miter;stroke-miterlimit:2;stroke-dasharray:none;stroke-dashoffset:0;stroke-opacity:1;-inkscape-stroke:none;stop-color:#000000;stop-opacity:1"
   id="path158" />
                    <path
   d="m 1640.28,790.249 c 1.13,-1.429 2.76,-1.449 4.48,-1.345 2.36,0.144 4.9,0.591 7.17,0.024 0.78,-0.195 1.26,-0.987 1.06,-1.768 -0.19,-0.781 -0.99,-1.256 -1.77,-1.061 -1.98,0.497 -4.21,0.02 -6.28,-0.106 -2.71,-0.165 -5.17,0.197 -6.95,2.446 -0.5,0.631 -0.39,1.549 0.24,2.048 0.63,0.5 1.55,0.393 2.05,-0.238 z"
   style="fill:#000344;font-variation-settings:normal;opacity:1;vector-effect:none;fill-opacity:1;stroke-width:1.00000028;stroke-linecap:butt;stroke-linejoin:miter;stroke-miterlimit:2;stroke-dasharray:none;stroke-dashoffset:0;stroke-opacity:1;-inkscape-stroke:none;stop-color:#000000;stop-opacity:1"
   id="path160" />
                    <path
   d="m 1680.54,761.683 c 5.65,0.003 11.04,1.396 16.88,1.396 0.8,0 1.46,-0.654 1.46,-1.458 0,-0.805 -0.66,-1.459 -1.46,-1.459 -5.84,0 -11.23,-1.392 -16.88,-1.396 -0.8,0 -1.45,0.653 -1.45,1.458 0,0.805 0.65,1.459 1.45,1.459 z"
   style="fill:#000344;font-variation-settings:normal;opacity:1;vector-effect:none;fill-opacity:1;stroke-width:1.00000028;stroke-linecap:butt;stroke-linejoin:miter;stroke-miterlimit:2;stroke-dasharray:none;stroke-dashoffset:0;stroke-opacity:1;-inkscape-stroke:none;stop-color:#000000;stop-opacity:1"
   id="path162" />
                    <path
   d="m 1679.52,770.483 c 0.12,-0.057 0.4,-0.185 0.63,-0.252 0.5,-0.147 1.12,-0.263 1.82,-0.36 4.45,-0.616 11.78,-0.362 13.57,-0.362 0.81,0 1.46,-0.654 1.46,-1.458 0,-0.805 -0.65,-1.459 -1.46,-1.459 -2.13,0 -11.76,-0.304 -15.87,0.747 -0.81,0.207 -1.45,0.478 -1.87,0.774 -0.54,0.373 -0.84,0.824 -0.97,1.281 -0.23,0.773 0.22,1.583 0.99,1.808 0.68,0.196 1.38,-0.119 1.7,-0.719 z"
   style="fill:#000344;font-variation-settings:normal;opacity:1;vector-effect:none;fill-opacity:1;stroke-width:1.00000028;stroke-linecap:butt;stroke-linejoin:miter;stroke-miterlimit:2;stroke-dasharray:none;stroke-dashoffset:0;stroke-opacity:1;-inkscape-stroke:none;stop-color:#000000;stop-opacity:1"
   id="path164" />
                </g>
            </g>
            <path
   d="m 1664.22,750.57 c -40.86,23.033 -67.29,31.716 -103.16,67.596 -25.2,25.194 -45.52,60.713 -60.64,92.454 -4.56,9.575 -7.8,20.229 -12.92,29.452 -9.97,17.948 -13.36,38.712 -20.92,57.595 -2.6,6.523 -7.49,18.113 -7.49,24.033 0,2.3 1.87,4.17 4.17,4.17 2.3,0 4.16,-1.87 4.16,-4.17 0,-5.19 4.62,-15.23 6.9,-20.94 7.43,-18.558 10.66,-39 20.46,-56.641 5.21,-9.372 8.53,-20.186 13.17,-29.916 14.72,-30.93 34.45,-65.594 59,-90.145 35.22,-35.223 61.24,-43.617 101.36,-66.229 2,-1.129 2.71,-3.672 1.58,-5.676 -1.12,-2.003 -3.67,-2.712 -5.67,-1.583 z"
   style="fill:#000344;font-variation-settings:normal;opacity:1;vector-effect:none;fill-opacity:1;stroke-width:1.00000028;stroke-linecap:butt;stroke-linejoin:miter;stroke-miterlimit:2;stroke-dasharray:none;stroke-dashoffset:0;stroke-opacity:1;-inkscape-stroke:none;stop-color:#000000;stop-opacity:1"
   id="path170" />
            <path
   d="m 1592.99,767.904 c -2.84,0.486 -7.95,3.272 -13.85,7.372 -12.21,8.48 -28.67,22.433 -34.65,26.704 -49.12,35.088 -91.48,104.157 -110.37,160.836 -5.64,16.926 -14.61,38.684 -14.61,56.634 0,2.3 1.87,4.17 4.17,4.17 2.3,0 4.17,-1.87 4.17,-4.17 0,-17.14 8.79,-37.842 14.17,-53.999 18.4,-55.182 59.49,-122.528 107.31,-156.69 5.97,-4.26 22.38,-18.182 34.56,-26.642 4.55,-3.161 8.32,-5.627 10.51,-6.001 2.26,-0.39 3.79,-2.545 3.4,-4.812 -0.39,-2.266 -2.55,-3.791 -4.81,-3.402 z"
   style="fill:#000344;font-variation-settings:normal;opacity:1;vector-effect:none;fill-opacity:1;stroke-width:1.00000028;stroke-linecap:butt;stroke-linejoin:miter;stroke-miterlimit:2;stroke-dasharray:none;stroke-dashoffset:0;stroke-opacity:1;-inkscape-stroke:none;stop-color:#000000;stop-opacity:1"
   id="path172" />
            <path
   d="m 1409.32,1004.19 c 1.18,-0.72 2.94,-1.78 3.74,-2.21 6.53,-3.512 15.24,-6.433 22.55,-7.651 22.72,-3.787 45.27,3.667 58.88,17.281 1.63,1.62 4.27,1.62 5.89,0 1.63,-1.63 1.63,-4.27 0,-5.9 -15.3,-15.297 -40.6,-23.859 -66.14,-19.601 -8.15,1.357 -17.86,4.619 -25.13,8.537 -1.68,0.903 -5.1,2.744 -6.62,4.143 -1.05,0.955 -1.59,1.961 -1.82,2.731 -0.35,1.2 -0.22,2.3 0.25,3.3 0.44,0.92 1.26,1.99 3.07,2.56 2.19,0.68 4.53,-0.54 5.22,-2.74 0.04,-0.15 0.08,-0.3 0.11,-0.45 z m -2.25,-4.531 0.08,0.045 -0.06,-0.035 z m -0.19,-0.088 0.17,0.081 -0.11,-0.051 z m -0.19,-0.074 0.18,0.071 -0.07,-0.031 z m -0.02,-0.009 c -0.07,-0.023 -0.13,-0.045 -0.2,-0.066 z"
   style="fill:#000344;font-variation-settings:normal;opacity:1;vector-effect:none;fill-opacity:1;stroke-width:1.00000028;stroke-linecap:butt;stroke-linejoin:miter;stroke-miterlimit:2;stroke-dasharray:none;stroke-dashoffset:0;stroke-opacity:1;-inkscape-stroke:none;stop-color:#000000;stop-opacity:1"
   id="path174" />
            <path
   d="m 1420.56,960.151 c 2.16,-0.211 18.1,-1.746 25.16,-1.746 7,0 26.2,-0.188 40.43,4.124 4.27,1.295 8.08,2.972 10.79,5.309 2.15,1.859 3.53,4.158 3.53,7.089 0,2.3 1.86,4.167 4.16,4.167 2.3,0 4.17,-1.867 4.17,-4.167 0,-7.93 -4.97,-13.679 -12.79,-17.504 -15.1,-7.388 -41.56,-7.351 -50.29,-7.351 -8.19,0 -24.44,1.261 -27.45,2.026 -4,1.015 -3.69,4.595 -3.44,5.452 0.66,2.205 2.98,3.463 5.19,2.808 0.18,-0.057 0.37,-0.126 0.54,-0.207 z m 2.04,-2.022 c 0.5,-0.998 0.51,-1.997 0.22,-2.952 0.3,1.018 0.2,2.06 -0.22,2.952 z"
   style="fill:#000344;font-variation-settings:normal;opacity:1;vector-effect:none;fill-opacity:1;stroke-width:1.00000028;stroke-linecap:butt;stroke-linejoin:miter;stroke-miterlimit:2;stroke-dasharray:none;stroke-dashoffset:0;stroke-opacity:1;-inkscape-stroke:none;stop-color:#000000;stop-opacity:1"
   id="path176" />
            <path
   d="m 1439.29,921.277 c 2.29,-0.661 18.09,-5.21 20.08,-5.735 8.48,-2.231 18.47,-4.069 28.16,-3.827 9.12,0.229 17.98,2.282 24.78,7.946 1.45,1.21 4.29,2.923 6.77,4.897 0.95,0.754 1.85,1.542 2.49,2.375 0.21,0.275 0.49,0.485 0.49,0.77 0,2.3 1.86,4.167 4.16,4.167 2.3,0 4.17,-1.867 4.17,-4.167 0,-2.253 -1.04,-4.588 -2.94,-6.722 -2.78,-3.127 -7.69,-5.959 -9.81,-7.722 -16.02,-13.352 -41.56,-10.73 -60.39,-5.776 -2.4,0.631 -19.31,4.749 -22.6,6.774 -2.26,1.389 -2.57,3.306 -2.51,4.352 0.14,2.296 2.11,4.054 4.4,3.922 1.08,-0.062 2.05,-0.532 2.75,-1.254 z"
   style="fill:#000344;font-variation-settings:normal;opacity:1;vector-effect:none;fill-opacity:1;stroke-width:1.00000028;stroke-linecap:butt;stroke-linejoin:miter;stroke-miterlimit:2;stroke-dasharray:none;stroke-dashoffset:0;stroke-opacity:1;-inkscape-stroke:none;stop-color:#000000;stop-opacity:1"
   id="path178" />
            <path
   d="m 1462.46,872.926 c -0.16,-0.057 -0.33,-0.104 -0.5,-0.14 -2.25,-0.47 -4.46,0.975 -4.93,3.226 -0.26,1.212 -0.01,2.233 0.49,3.104 0.4,0.696 1.02,1.348 1.96,1.795 0.64,0.299 1.87,0.597 3.47,0.424 2.48,-0.267 7.17,-1.651 7.61,-1.761 3.83,-0.955 7.64,-1.674 11.59,-1.674 15.75,0 28.59,0.666 43.77,5.221 1.69,0.505 4.82,1.966 7.05,3.877 0.48,0.412 0.92,0.842 1.26,1.298 0.19,0.248 0.42,0.459 0.42,0.729 0,2.299 1.87,4.166 4.17,4.166 2.3,0 4.16,-1.867 4.16,-4.166 0,-2.343 -1.06,-4.712 -2.97,-6.803 -3.17,-3.462 -8.85,-6.229 -11.69,-7.083 -16.02,-4.805 -29.55,-5.572 -46.17,-5.572 -4.64,0 -9.12,0.801 -13.61,1.923 -0.32,0.079 -4.5,1.065 -6.08,1.436 z m 2.74,3.186 c 0.09,0.448 0.1,0.917 0.02,1.389 0.08,-0.499 0.07,-0.961 -0.02,-1.389 z"
   style="fill:#000344;font-variation-settings:normal;opacity:1;vector-effect:none;fill-opacity:1;stroke-width:1.00000028;stroke-linecap:butt;stroke-linejoin:miter;stroke-miterlimit:2;stroke-dasharray:none;stroke-dashoffset:0;stroke-opacity:1;-inkscape-stroke:none;stop-color:#000000;stop-opacity:1"
   id="path180" />
            <path
   d="m 1501.22,841.296 c 1.91,-0.087 6.03,-0.276 6.11,-0.276 4.48,0 9.14,-0.386 13.6,-0.014 7.38,0.615 19.02,5.165 24.83,9.525 1.37,1.029 2.09,3.197 2.99,4.878 1.28,2.353 2.8,4.162 4.39,4.96 2.06,1.029 4.56,0.194 5.59,-1.863 0.99,-1.978 0.26,-4.371 -1.63,-5.465 -0.16,-0.248 -1.08,-1.701 -1.58,-2.669 -1.3,-2.495 -2.82,-5.053 -4.76,-6.508 -6.82,-5.115 -20.48,-10.441 -29.14,-11.163 -4.69,-0.39 -9.58,-0.014 -14.29,-0.014 -0.15,0 -7.8,0.083 -9.81,0.785 -2.63,0.914 -3.18,2.934 -3.21,4.17 -0.02,1.036 0.21,2.54 2,3.777 1.53,1.054 3.51,0.949 4.91,-0.123 z m 0.18,-6.461 c 0.23,0.199 0.44,0.418 0.61,0.654 -0.16,-0.224 -0.36,-0.444 -0.61,-0.654 z m -0.14,-0.113 0.12,0.094 -0.06,-0.054 z"
   style="fill:#000344;font-variation-settings:normal;opacity:1;vector-effect:none;fill-opacity:1;stroke-width:1.00000028;stroke-linecap:butt;stroke-linejoin:miter;stroke-miterlimit:2;stroke-dasharray:none;stroke-dashoffset:0;stroke-opacity:1;-inkscape-stroke:none;stop-color:#000000;stop-opacity:1"
   id="path182" />
            <path
   d="m 1530.76,801.165 c -0.41,-0.052 -0.83,-0.045 -1.25,0.03 -0.3,0.053 -5.04,7.824 0.57,8.274 1.18,0.095 7.42,0.518 8.74,0.518 4.77,0 9.39,-0.667 14.15,-0.904 11.3,-0.566 14.78,1.94 18.61,5.624 3.23,3.103 6.71,6.739 13.5,10.132 2.05,1.028 4.56,0.193 5.58,-1.863 1.03,-2.057 0.2,-4.562 -1.86,-5.591 -5.78,-2.889 -8.7,-6.043 -11.44,-8.686 -5.14,-4.934 -9.67,-8.696 -24.81,-7.939 -4.62,0.23 -9.1,0.894 -13.73,0.894 -1.22,0 -8.07,-0.491 -8.07,-0.491 z m 3.09,6.187 c -0.59,1.043 -1.62,1.825 -2.9,2.05 1.96,-0.345 2.63,-1.573 2.9,-2.033 z m 0.4,-3.152 c 0.3,1.072 0.18,2.116 -0.38,3.127 0.45,-0.808 0.64,-1.771 0.46,-2.753 -0.02,-0.127 -0.05,-0.252 -0.08,-0.374 z m -0.06,-0.192 0.01,0.031 -0.01,-0.017 z m -2.69,-2.678 c 1.22,0.393 2.23,1.346 2.67,2.608 -0.18,-0.553 -0.68,-1.991 -2.67,-2.608 z"
   style="fill:#000344;font-variation-settings:normal;opacity:1;vector-effect:none;fill-opacity:1;stroke-width:1.00000028;stroke-linecap:butt;stroke-linejoin:miter;stroke-miterlimit:2;stroke-dasharray:none;stroke-dashoffset:0;stroke-opacity:1;-inkscape-stroke:none;stop-color:#000000;stop-opacity:1"
   id="path184" />
            <path
   d="m 1577.03,785.113 1.3,-0.391 c 3.55,-0.564 7.51,-0.198 11.06,-0.376 2.64,-0.132 5.7,-0.524 8.68,-0.41 2.19,0.084 4.36,0.398 6.05,1.751 1.47,1.175 2.06,3.166 3.06,4.708 1.34,2.089 3.02,3.735 5.43,4.537 2.18,0.727 4.54,-0.454 5.27,-2.636 0.72,-2.181 -0.46,-4.543 -2.64,-5.27 -0.42,-0.141 -0.64,-0.524 -0.88,-0.88 -0.44,-0.633 -0.82,-1.343 -1.21,-2.048 -1.03,-1.838 -2.19,-3.616 -3.82,-4.918 -2.53,-2.023 -5.56,-3.033 -8.78,-3.408 -3.88,-0.452 -8.06,0.076 -11.57,0.251 -3.92,0.196 -8.28,-0.147 -12.17,0.502 -0.14,0.022 -2.65,0.656 -3.91,1.169 -0.91,0.373 -1.53,0.845 -1.83,1.134 -0.79,0.771 -1.1,1.598 -1.23,2.265 -0.21,1.063 -0.03,2.065 0.54,3.003 0.34,0.548 1.16,1.858 3.49,2.069 1.2,0.109 2.33,-0.304 3.16,-1.052 z m -2.21,-7.224 c -0.06,-0.009 -0.13,-0.017 -0.2,-0.023 z"
   style="fill:#000344;font-variation-settings:normal;opacity:1;vector-effect:none;fill-opacity:1;stroke-width:1.00000028;stroke-linecap:butt;stroke-linejoin:miter;stroke-miterlimit:2;stroke-dasharray:none;stroke-dashoffset:0;stroke-opacity:1;-inkscape-stroke:none;stop-color:#000000;stop-opacity:1"
   id="path186" />
            <path
   d="m 1618.36,767.403 c 1.6,0.273 5.86,0.998 6.35,1.108 2.59,0.575 5.71,1.026 8.5,1.972 1.84,0.626 3.6,1.377 4.42,3.02 1.03,2.057 3.53,2.892 5.59,1.863 2.06,-1.028 2.89,-3.533 1.87,-5.59 -1.48,-2.956 -4.03,-5.002 -7.14,-6.384 -3.55,-1.575 -7.92,-2.236 -11.43,-3.016 -0.7,-0.156 -5.65,-1.279 -8.19,-1.397 -1.65,-0.077 -2.87,0.313 -3.47,0.652 -0.96,0.534 -1.53,1.265 -1.88,2.026 -0.41,0.911 -0.57,1.958 -0.18,3.164 0.7,2.191 3.05,3.4 5.24,2.699 0.11,-0.035 0.21,-0.073 0.32,-0.117 z m 2.44,-4.907 c 0.12,0.474 0.16,0.954 0.12,1.42 0.05,-0.443 0.01,-0.916 -0.12,-1.42 z"
   style="fill:#000344;font-variation-settings:normal;opacity:1;vector-effect:none;fill-opacity:1;stroke-width:1.00000028;stroke-linecap:butt;stroke-linejoin:miter;stroke-miterlimit:2;stroke-dasharray:none;stroke-dashoffset:0;stroke-opacity:1;-inkscape-stroke:none;stop-color:#000000;stop-opacity:1"
   id="path188" />
        </g>
        <path
   d="m 2911.89,1847.56 c -0.35,0.25 -0.68,0.56 -0.95,0.93 -1.37,1.85 -0.98,4.46 0.87,5.83 9.45,7 22.24,13.84 30.06,21.66 1.2,1.2 2.43,1.56 3.5,1.61 1.52,0.07 3.18,-0.52 4.5,-2.3 0.65,-0.87 1.31,-2.28 1.88,-3.86 0.51,-1.38 0.93,-2.95 1.51,-3.82 0.82,-1.23 5.77,-8.41 7.01,-11.95 1.03,-2.94 0.06,-5.07 -0.9,-6.02 -0.79,-0.79 -2.79,-1.77 -5.51,-2.26 -3.48,-0.63 -8.71,-0.87 -10.38,-1.47 -4.61,-1.68 -8.18,-5.49 -11.51,-7.59 -2.71,-1.7 -5.36,-2.52 -7.96,-2.14 -2.55,0.37 -5.31,1.85 -8.03,5.73 -0.78,1.11 -2.01,2.19 -2.86,3.41 -0.51,0.71 -0.93,1.46 -1.23,2.24 z m 39.3,7.89 c -1,-0.17 -2.09,-0.35 -3,-0.45 -3.17,-0.38 -6.25,-0.79 -7.56,-1.26 -4.32,-1.57 -7.95,-4.61 -11.21,-7.04 -0.89,-0.67 -1.74,-1.28 -2.58,-1.73 -0.58,-0.32 -1.1,-0.64 -1.67,-0.54 -0.83,0.16 -1.47,0.99 -2.36,2.25 -0.61,0.87 -1.43,1.73 -2.22,2.63 -0.16,0.17 -0.35,0.43 -0.52,0.67 7.95,5.53 17.34,11.07 24.4,17.08 0.58,-1.58 1.21,-3.1 1.86,-4.07 0.53,-0.8 3.17,-4.49 4.86,-7.54 z"
   style="fill:#000344;font-variation-settings:normal;opacity:1;vector-effect:none;fill-opacity:1;stroke-width:1.00000028;stroke-linecap:butt;stroke-linejoin:miter;stroke-miterlimit:2;stroke-dasharray:none;stroke-dashoffset:0;stroke-opacity:1;-inkscape-stroke:none;stop-color:#000000;stop-opacity:1"
   id="path192" />
        <path
   d="m 2951.88,1883.63 c -0.11,0.08 -0.18,0.14 -0.21,0.17 -0.35,0.35 -2.31,2.46 -0.53,5.28 0.51,0.8 4.8,5.99 6.14,8.21 3.39,5.65 5.84,11.71 9.25,17.44 0.21,0.5 0.82,1.9 1.29,2.54 0.49,0.67 1.05,1.14 1.56,1.43 0.92,0.54 1.88,0.7 2.8,0.59 0.88,-0.1 1.81,-0.44 2.67,-1.3 0.79,-0.8 1.45,-2.04 1.79,-3.61 0.19,-0.93 0.47,-2.83 0.53,-3.3 0.41,-0.47 1.07,-0.85 1.77,-1.28 1.32,-0.81 2.83,-1.57 4.19,-2.32 2.78,-1.54 4.95,-3.32 5.76,-4.95 0.33,-0.65 0.61,-1.6 0.5,-2.86 -0.07,-0.93 -0.44,-2.37 -1.13,-4.13 -2.99,-7.61 -12.51,-23.45 -15.07,-26 -0.53,-0.53 -2.46,-2.05 -5.27,-0.66 -2.42,1.19 -12.79,9.04 -14.36,10.08 -1.56,1.05 -2.19,2.96 -1.68,4.67 z m 17.39,-5.61 c -3.09,2.21 -8.36,5.98 -10.4,7.4 l 0.03,0.07 0.04,0.1 c 1.43,1.81 4.46,5.7 5.48,7.41 2.44,4.06 4.39,8.34 6.57,12.55 1.59,-1.66 4.14,-3.22 6.7,-4.6 0.95,-0.51 2.22,-1.3 3.04,-1.83 -1.7,-4.97 -7.91,-15.88 -11.46,-21.1 z"
   style="fill:#000344;font-variation-settings:normal;opacity:1;vector-effect:none;fill-opacity:1;stroke-width:1.00000028;stroke-linecap:butt;stroke-linejoin:miter;stroke-miterlimit:2;stroke-dasharray:none;stroke-dashoffset:0;stroke-opacity:1;-inkscape-stroke:none;stop-color:#000000;stop-opacity:1"
   id="path194" />
        <path
   d="m 2998.73,1888.77 c -2.18,0.13 -3.91,1.95 -3.91,4.16 0,1.85 1.4,4.46 4.2,4.45 -0.53,0.48 -0.96,1.17 -1.19,2.14 -0.04,0.17 -0.36,1.38 0.45,3.11 1.3,2.79 9.91,18.95 11.66,22.16 1.48,2.69 3.92,2.71 3.97,2.71 0.77,0 2.42,-0.4 4.46,-1.46 5.05,-2.62 14.76,-9.41 16.72,-11.37 1.14,-1.14 1.81,-2.84 0.96,-5.01 -0.4,-1 -2.18,-3.07 -2.71,-3.68 -4.48,-7.43 -12.12,-18.81 -17.59,-24.28 -0.92,-0.92 -3.18,-2.04 -6.2,-0.53 -2.62,1.31 -7.97,5.76 -10.82,7.6 z m 12.96,0.8 c -2.9,1.92 -7.12,5.45 -9.25,6.71 0.83,0.08 1.84,0.47 2.76,1.64 0.34,0.42 0.58,0.89 0.72,1.38 1.26,2.62 6.89,13.23 9.83,18.71 3.22,-1.8 7.88,-4.92 10.86,-7.14 -0.13,-0.16 -0.22,-0.27 -0.25,-0.32 -3.68,-6.13 -9.73,-15.36 -14.67,-20.98 z m -12.88,13.68 c 0.53,0.62 1.06,0.92 1.47,1.08 -0.55,-0.24 -1.06,-0.6 -1.47,-1.08 z m 4.21,-11.33 c 0.07,0.25 0.11,0.52 0.12,0.79 -0.01,-0.28 -0.05,-0.55 -0.12,-0.79 z m -0.03,-0.13 0.02,0.08 -0.01,-0.04 z"
   style="fill:#000344;font-variation-settings:normal;opacity:1;vector-effect:none;fill-opacity:1;stroke-width:1.00000028;stroke-linecap:butt;stroke-linejoin:miter;stroke-miterlimit:2;stroke-dasharray:none;stroke-dashoffset:0;stroke-opacity:1;-inkscape-stroke:none;stop-color:#000000;stop-opacity:1"
   id="path196" />
        <path
   d="m 2991.09,1941.53 c -0.45,0.3 -0.86,0.71 -1.25,1.24 -1.35,1.86 -0.94,4.47 0.92,5.82 0.46,0.33 0.97,0.56 1.49,0.69 l 0.56,0.76 c 2.94,4.2 5.31,8.56 6.55,13.54 0.14,0.57 0.59,4.08 1.13,6.6 0.38,1.72 0.9,3.12 1.31,3.77 1.13,1.8 2.69,2.18 3.82,2.18 0.8,0 2.25,-0.34 3.78,-1.55 2.06,-1.62 5.57,-5.76 6.55,-6.55 2.3,-1.83 6.87,-4.89 10.02,-7.78 1.76,-1.62 3.12,-3.25 3.82,-4.66 0.42,-0.83 0.69,-1.98 0.22,-3.39 -0.15,-0.46 -0.48,-1.12 -1.01,-1.82 -0.84,-1.11 -2.56,-2.72 -2.75,-2.91 -4.2,-4.2 -9.61,-6.72 -13.6,-11.38 -1.69,-1.96 -2.89,-3.49 -3.98,-4.46 -1.43,-1.28 -2.85,-1.89 -4.34,-2.03 -1.86,-0.16 -4.25,0.48 -7.51,3.28 -0.65,0.56 -2.76,1.92 -3.99,3.26 -1.3,1.43 -1.88,3.02 -1.88,4.32 0,0.37 0.04,0.73 0.14,1.07 z m 12.39,-3.25 c -0.37,0.25 -0.84,0.59 -1.23,0.92 -0.46,0.4 -2.55,2.02 -3.15,2.5 -0.19,0.6 -0.51,1.14 -0.92,1.59 0.56,0.68 1.09,1.45 1.45,1.97 3.54,5.05 6.32,10.32 7.82,16.3 0.06,0.26 0.28,1.41 0.53,2.77 1.22,-1.29 2.29,-2.42 2.77,-2.8 1.91,-1.53 5.44,-3.91 8.33,-6.33 0.59,-0.5 1.16,-0.97 1.67,-1.44 l -0.39,-0.4 c -4.35,-4.35 -9.91,-7.02 -14.04,-11.84 -1,-1.18 -2.2,-2.52 -2.84,-3.24 z m -7.03,9.57 z"
   style="fill:#000344;font-variation-settings:normal;opacity:1;vector-effect:none;fill-opacity:1;stroke-width:1.00000028;stroke-linecap:butt;stroke-linejoin:miter;stroke-miterlimit:2;stroke-dasharray:none;stroke-dashoffset:0;stroke-opacity:1;-inkscape-stroke:none;stop-color:#000000;stop-opacity:1"
   id="path198" />
        <path
   d="m 3036.07,1928.04 c -2.07,0.24 -3.67,2 -3.67,4.13 0,0.15 0.01,0.3 0.02,0.45 -0.39,0.09 -0.73,0.23 -0.99,0.35 -0.87,0.4 -2.16,1.22 -2.41,3.36 -0.14,1.25 0.28,2.43 1.07,3.29 0.64,1.47 3.25,7.39 3.75,8.56 1.18,2.76 2.9,7.94 4.82,12.39 1.53,3.53 3.27,6.62 4.91,8.26 0.06,0.07 2.61,2.38 5.52,0.35 l 6.43,-4.51 c 1.8,-0.76 5.14,-1.23 7.47,-1.93 1.9,-0.58 3.37,-1.41 4.16,-2.2 1.21,-1.22 1.94,-3.2 1.13,-5.77 -0.96,-3.08 -5.61,-8.62 -6.1,-9.38 -1.97,-3.05 -3.38,-7.88 -5.04,-12.04 -1.41,-3.55 -3.03,-6.66 -4.92,-8.54 -1.4,-1.41 -4.17,-2.12 -7.56,-0.89 -2.73,0.99 -8.01,3.81 -8.59,4.12 z m 11.25,3.92 c -1.55,0.72 -4.77,2.24 -6.42,3.05 -1.21,0.6 -2.32,0.99 -3.19,1.18 1.18,2.41 3.24,7.43 3.79,8.71 1.18,2.76 2.89,7.93 4.81,12.36 0.42,0.99 0.85,1.94 1.27,2.79 1.9,-1.32 3.99,-2.75 4.43,-2.95 1.39,-0.62 3.62,-1.14 5.82,-1.65 0.32,-0.07 0.68,-0.16 1.04,-0.26 -1.44,-2.04 -3.45,-4.9 -3.7,-5.29 -1.87,-2.91 -3.4,-7.19 -4.93,-11.3 -0.93,-2.48 -1.8,-4.92 -2.92,-6.64 z m -10.05,5.56 c -0.13,0.73 -0.44,1.39 -0.89,1.93 0.39,-0.44 0.74,-1.05 0.89,-1.93 z"
   style="fill:#000344;font-variation-settings:normal;opacity:1;vector-effect:none;fill-opacity:1;stroke-width:1.00000028;stroke-linecap:butt;stroke-linejoin:miter;stroke-miterlimit:2;stroke-dasharray:none;stroke-dashoffset:0;stroke-opacity:1;-inkscape-stroke:none;stop-color:#000000;stop-opacity:1"
   id="path200" />
        <path
   d="m 3021.42,1992.39 c -0.43,0.14 -0.85,0.35 -1.24,0.64 -1.84,1.37 -2.22,3.99 -0.84,5.83 2.46,3.3 3.7,6.99 4.78,10.75 1.26,4.42 2.3,8.93 4.22,13.24 1.28,2.88 2.88,4.32 4.34,5.03 1.96,0.94 4.05,0.89 6.28,-0.16 1.42,-0.68 2.99,-1.9 4.66,-3.34 1.75,-1.53 3.67,-3.38 5.86,-4.47 1.64,-0.82 5.12,-1.06 7.61,-1.76 2.01,-0.56 3.6,-1.41 4.53,-2.34 0.51,-0.51 1.78,-2.08 0.99,-4.62 -0.69,-2.23 -5.94,-11.6 -6.24,-12.25 -1.07,-2.29 -2.84,-8.92 -4.69,-13.56 -1.07,-2.7 -2.29,-4.82 -3.33,-5.86 -0.02,-0.03 -1.8,-1.83 -4.74,-0.86 -2.85,0.95 -17.17,5.86 -20.01,7.13 -2.78,1.24 -2.94,3.63 -2.95,4 -0.02,0.92 0.18,1.83 0.77,2.6 z m 22.19,-4.9 c -4.11,1.43 -11.33,4.02 -14.73,5.24 -0.5,0.45 -1.11,0.79 -1.8,0.96 -0.38,0.1 -0.72,0.16 -1.05,0.21 3.09,4.14 4.75,8.71 6.1,13.41 1.16,4.05 2.07,8.21 3.82,12.15 0.04,0.08 0.07,0.16 0.11,0.23 0.58,-0.4 1.37,-0.98 1.93,-1.47 0.39,-0.33 0.78,-0.67 1.18,-1.02 1.99,-1.74 4.19,-3.55 6.59,-4.75 1.52,-0.76 4.24,-1.3 6.86,-1.82 l 0.4,-0.08 c -1.66,-3.18 -4.03,-7.7 -4.2,-8.08 -0.96,-2.07 -2.5,-7.45 -4.13,-12.02 -0.39,-1.07 -0.74,-2.1 -1.08,-2.96 z"
   style="fill:#000344;font-variation-settings:normal;opacity:1;vector-effect:none;fill-opacity:1;stroke-width:1.00000028;stroke-linecap:butt;stroke-linejoin:miter;stroke-miterlimit:2;stroke-dasharray:none;stroke-dashoffset:0;stroke-opacity:1;-inkscape-stroke:none;stop-color:#000000;stop-opacity:1"
   id="path202" />
        <path
   d="m 3070.29,1982.04 c -1.57,-0.62 -2.86,-0.04 -3.76,0.6 -0.62,0.44 -1.91,1.49 -1.75,3.77 0.05,0.69 1.71,5.48 3.72,12.18 2.5,8.34 3.09,19.57 6.89,27.19 0.57,1.12 1.33,1.72 2.04,2.08 1.03,0.53 2.16,0.66 3.38,0.28 0.52,-0.16 1.12,-0.46 1.73,-0.95 0.33,-0.28 1,-1 1.41,-1.46 2.34,-0.22 4.63,-0.01 6.88,0.01 3.35,0.03 6.63,-0.29 9.89,-1.89 l 1.35,-0.2 c 1.3,-0.09 2.48,-0.78 3.19,-1.86 0.72,-1.09 0.88,-2.44 0.45,-3.67 0,0 -3.93,-11.23 -6.14,-16.75 -0.82,-2.04 -2.26,-10.41 -4.06,-15.73 -0.71,-2.12 -1.52,-3.85 -2.31,-4.92 -0.72,-0.98 -1.52,-1.61 -2.27,-1.98 -0.88,-0.44 -2.71,-0.85 -5.02,-0.89 -3.96,-0.06 -9.72,0.69 -12.48,1.8 -1.52,0.61 -2.52,1.48 -3.14,2.39 z m 16.48,4.28 c -1.98,0.04 -7.58,0.21 -9.92,0.95 -0.65,0.82 -1.6,1.39 -2.69,1.53 0.66,2.01 1.51,4.69 2.32,7.39 1.94,6.46 2.55,14.78 4.67,21.55 0.23,-0.07 0.47,-0.12 0.7,-0.16 3.09,-0.44 6.1,-0.2 9.06,-0.17 1.83,0.02 3.65,-0.04 5.45,-0.74 -1.32,-3.68 -3.23,-8.96 -4.53,-12.21 -0.73,-1.83 -1.99,-8.5 -3.51,-13.88 -0.42,-1.49 -1.15,-3.3 -1.55,-4.26 z m -16.04,3.5 c -1.31,0.61 -2.9,0.51 -4.16,-0.38 1.69,1.19 3.11,0.94 4.16,0.38 z"
   style="fill:#000344;font-variation-settings:normal;opacity:1;vector-effect:none;fill-opacity:1;stroke-width:1.00000028;stroke-linecap:butt;stroke-linejoin:miter;stroke-miterlimit:2;stroke-dasharray:none;stroke-dashoffset:0;stroke-opacity:1;-inkscape-stroke:none;stop-color:#000000;stop-opacity:1"
   id="path204" />
        <path
   d="m 3047.36,2043.26 c -0.49,0.15 -0.94,0.39 -1.34,0.68 -0.9,0.65 -1.72,1.7 -2.03,3.3 -0.19,1.02 -0.16,2.57 0.13,4.27 0.47,2.73 1.52,6.03 1.69,6.67 0.87,3.18 0.91,11.09 2.5,16.37 1.07,3.56 2.92,6.13 5.18,7.26 0.53,0.26 2.31,1.03 4.45,-0.38 1.36,-0.9 6.88,-6.1 7.54,-6.57 1.39,-0.97 4.1,-1.11 6.33,-1.58 2.84,-0.59 5.21,-1.57 6.39,-2.75 1.05,-1.05 1.15,-4.19 1.15,-4.19 0,0 0.07,0.47 0.07,0.69 0,-3.16 -0.95,-6.48 -2.32,-9.81 -1.66,-4.04 -3.97,-8.09 -5.03,-11.79 -0.23,-0.83 -1.29,-7.85 -2.51,-11.04 -0.81,-2.11 -2.09,-3.27 -2.94,-3.7 -0.4,-0.2 -0.95,-0.4 -1.67,-0.44 -0.38,-0.02 -1.55,0.09 -3.14,0.69 -2.45,0.93 -7.16,3.1 -10.17,4.93 -1.91,1.16 -3.23,2.38 -3.75,3.16 -1.04,1.6 -1.02,3.04 -0.53,4.23 z m 15.1,-3.47 c -1.78,0.79 -4.01,1.83 -5.72,2.77 -0.19,1.98 -1.77,3.56 -3.76,3.74 0.1,0.45 0.13,0.92 0.07,1.4 -0.08,0.74 -0.35,1.41 -0.77,1.97 0.07,0.44 0.15,0.97 0.24,1.39 0.47,2.18 1.2,4.43 1.33,4.92 0.75,2.77 0.91,9.05 1.95,14.16 0.12,0.62 0.26,1.22 0.42,1.78 1.91,-1.68 4.12,-3.63 4.48,-3.89 1.82,-1.27 4.97,-2.04 8.04,-2.64 0.63,-0.12 1.43,-0.31 2.13,-0.5 -0.41,-2.11 -1.34,-4.29 -2.33,-6.47 -1.65,-3.68 -3.52,-7.33 -4.48,-10.7 -0.16,-0.56 -0.69,-3.95 -1.39,-7.08 -0.06,-0.27 -0.13,-0.56 -0.21,-0.85 z m -13.83,11.58 -0.19,-0.01 c 0.06,0 0.12,0.01 0.19,0.01 z"
   style="fill:#000344;font-variation-settings:normal;opacity:1;vector-effect:none;fill-opacity:1;stroke-width:1.00000028;stroke-linecap:butt;stroke-linejoin:miter;stroke-miterlimit:2;stroke-dasharray:none;stroke-dashoffset:0;stroke-opacity:1;-inkscape-stroke:none;stop-color:#000000;stop-opacity:1"
   id="path206" />
        <path
   d="m 3088.3,2035.25 c -0.96,0.45 -2.02,1.36 -2.61,3.11 -0.63,1.87 -0.85,6.63 -0.57,11.31 0.28,4.74 1.1,9.36 1.88,10.93 0.4,0.79 1.3,2.01 3.31,2.42 2.17,0.44 11.41,-0.67 13.68,-0.67 0.76,0 5.68,0.22 9.22,0.1 2.11,-0.07 3.85,-0.34 4.64,-0.64 2.51,-0.95 3.02,-2.86 3.02,-4.18 0,-3.99 -2.64,-10.1 -3.37,-14.5 -0.88,-5.26 -2.28,-8.35 -3.97,-10.23 -2,-2.21 -4.49,-3.17 -7.85,-3.3 -3.16,-0.12 -7.44,0.65 -13.29,0.65 -2.3,0 -4.17,1.87 -4.17,4.17 0,0.28 0.03,0.56 0.08,0.83 z m 23.71,18.91 c -0.79,-3.17 -2.25,-6.8 -2.73,-9.66 -0.34,-2.02 -0.72,-3.58 -1.22,-4.77 -0.26,-0.62 -0.5,-1.11 -0.88,-1.4 -0.41,-0.31 -0.92,-0.35 -1.51,-0.39 -0.84,-0.06 -1.78,-0.01 -2.83,0.06 -2.21,0.15 -4.83,0.43 -7.94,0.54 0.34,1.5 -0.17,3.11 -1.41,4.13 -0.08,1.7 -0.18,4.38 -0.05,6.5 0.12,2.02 0.27,4.02 0.49,5.53 3.02,-0.25 8.62,-0.68 10.06,-0.68 0.67,0 4.78,0.2 8.02,0.14 z"
   style="fill:#000344;font-variation-settings:normal;opacity:1;vector-effect:none;fill-opacity:1;stroke-width:1.00000028;stroke-linecap:butt;stroke-linejoin:miter;stroke-miterlimit:2;stroke-dasharray:none;stroke-dashoffset:0;stroke-opacity:1;-inkscape-stroke:none;stop-color:#000000;stop-opacity:1"
   id="path208" />
    </g>
</svg>
