<?xml version="1.0" encoding="UTF-8" standalone="no"?>
<!-- Generator: Adobe Illustrator 26.1.0, SVG Export Plug-In . SVG Version: 6.00 Build 0)  -->

<svg
   version="1.1"
   id="Layer_1"
   x="0px"
   y="0px"
   viewBox="0 0 122.9 99.9"
   style="enable-background:new 0 0 122.9 99.9;"
   xml:space="preserve"
   sodipodi:docname="2023-CA-01-bird.svg"
   inkscape:version="1.1.1 (3bf5ae0d25, 2021-09-20)"
   xmlns:inkscape="http://www.inkscape.org/namespaces/inkscape"
   xmlns:sodipodi="http://sodipodi.sourceforge.net/DTD/sodipodi-0.dtd"
   xmlns="http://www.w3.org/2000/svg"
   xmlns:svg="http://www.w3.org/2000/svg"><defs
   id="defs20">
	

		
		
	
		
			
			
			
		</defs><sodipodi:namedview
   id="namedview18"
   pagecolor="#ffffff"
   bordercolor="#666666"
   borderopacity="1.0"
   inkscape:pageshadow="2"
   inkscape:pageopacity="0.0"
   inkscape:pagecheckerboard="0"
   showgrid="false"
   inkscape:zoom="5.7474544"
   inkscape:cx="40.104711"
   inkscape:cy="44.280473"
   inkscape:window-width="1920"
   inkscape:window-height="1001"
   inkscape:window-x="-9"
   inkscape:window-y="-9"
   inkscape:window-maximized="1"
   inkscape:current-layer="Layer_1" />
<style
   type="text/css"
   id="style2">
	.st0{fill:#7EC7EE;}
</style>
<path
   style="fill:#00ffff;stroke:none;stroke-width:1px;stroke-linecap:butt;stroke-linejoin:miter;stroke-opacity:1"
   d="M 109.86539,10.580542 C 110.1667,41.02072 106.97925,58.466897 95.716997,63.97537 80.218558,72.436539 62.529918,72.136908 45.520937,74.555912 31.394793,78.471424 22.397288,88.248238 12.672045,97.193351 7.2805731,99.336939 4.1555284,94.11464 1.3533251,87.843105 26.216213,75.005615 50.529914,44.597724 62.189157,33.265502 75.849474,19.988333 79.615591,17.440928 84.052709,8.6624384 102.07038,-6.3658669 109.40671,6.4109991 109.86539,10.580542 Z"
   id="path1258"
   sodipodi:nodetypes="cccccscc" /><path
   id="path1258-3"
   style="fill:#00dede;fill-opacity:1;stroke:none;stroke-width:1px;stroke-linecap:butt;stroke-linejoin:miter;stroke-opacity:1"
   d="M 99.001953,1.5429688 C 95.178178,1.61684 90.246309,3.4961294 84.052734,8.6621094 79.615616,17.440599 75.84977,19.988456 62.189453,33.265625 50.53021,44.597847 26.216404,75.00626 1.3535156,87.84375 2.8459279,92.391546 -0.82655438,93.149786 5.1184579,91.420088 23.63679,83.047514 43.971029,61.888535 61.050285,44.687158 93.158197,7.5294916 90.60404,1.1127071 108.45117,6.8789062 106.83676,4.2031444 103.80333,1.4502111 99.001953,1.5429688 Z"
   sodipodi:nodetypes="scsccccs" /><path
   style="fill:#bdffff;stroke:none;stroke-width:1px;stroke-linecap:butt;stroke-linejoin:miter;stroke-opacity:1;font-variation-settings:normal;opacity:1;vector-effect:none;fill-opacity:1;stroke-miterlimit:4;stroke-dasharray:none;stroke-dashoffset:0;-inkscape-stroke:none;stop-color:#000000;stop-opacity:1"
   d="M 65.574755,70.249878 C 83.330078,60.766835 108.27539,58.721709 108.4,31 111.12101,41.734684 106.67046,50.187512 102.36059,58.685099 72.657223,77.673024 75.166721,68.711551 65.574755,70.249878 Z"
   id="path3368"
   sodipodi:nodetypes="cccc" /><path
   d="m 121.1,12.6 c 1.9,0.9 2.37441,2.088609 -0.42559,2.988609 -6.15096,1.672703 -5.94997,0.32027 -8.57441,1.611391 -0.1,0.5 -0.2,1 -0.3,1.4 -0.4,1.9 -0.8,4 -0.8,6.1 0,1 0.1,2 0.2,3 0.2,1 0.3,2 0.6,3 V 31 c 0.1,1.1 0.1,2.2 0.1,3.3 0,10.6 -3.1,19.1 -8.9,25.5 -6,6.6 -15,11.1 -26.6,13.5 l 1.7,9.9 h 8.2 c 1.2,0 2.2,1 2.2,2.2 0,1.2 -1,2.2 -2.2,2.2 H 69.9 c -1.2,0 -2.2,-1 -2.2,-2.2 0,-1.2 1,-2.2 2.2,-2.2 h 3.8 l -1.6,-9.6 c -4.5,-0.1 -8.7,0 -12.8,0.4 -4.6,0.5 -8.9,1.2 -12.9,2.4 -13.3,3.7 -19.6,10.1 -28.1,18.7 l -0.1,0.1 c -0.5,0.5 -1,1.1 -1.4,1.5 C 9.8547867,103.13583 0.06120514,96.994195 0,87.5 0,86.7 0.4,86.1 1,85.8 7.5,82.4 13.6,78.5 19.2,73.9 24.8,69.4 30,64.2 34.8,58.5 v 0 C 41,50.4 50.2,42.1 59,34.1 68.5,25.4 77.5,17.3 81.1,11 82.6,6.5 85.4,3.5 88.7,1.8 90.8,0.7 93,0.2 95.3,0.1 97.5,0 99.8,0.3 102,1 c 3.9,1.2 7.4,3.8 9.3,7.2 z m -13,5.2 c 0.6,-2.9 1.1,-5.5 -0.1,-7.7 C 106.6,7.5 103.9,5.5 100.8,4.5 99.1,4 97.3,3.7 95.5,3.8 93.7,3.9 92,4.3 90.5,5.1 84.92728,7.2115674 83.351223,15.050561 79.04355,19.968137 74.429127,25.159349 68.097808,30.868637 61.5,36.8 53,44.7 43.9,53 37.9,60.7 l -0.1,0.1 c -0.2,0.3 -0.4,0.5 -0.6,0.7 6.1,-0.3 13.2,-1.2 18,-3.1 8.4,-3.3 14.6,-11.4 20.7,-18.7 0.9,-1.1 6.2,-7.5 7.7,-6.3 0.4,0.3 0.2,1.2 -0.7,3 -7.4,10 -12.7,19 -22.1,24.2 -8.6,4.8 -18.3,5 -27.7,5.5 -3.6,3.8 -7.3,7.3 -11.3,10.5 C 16.3,81.1 10.4,85 4,88.3 c 0.1,0.9 0.3,1.8 0.6,2.6 1.5810985,3.828852 6.669281,6.000856 9.4,3.1 0.4,-0.5 0.9,-1 1.6,-1.7 l 0.1,-0.1 c 8.9,-9 15.5,-15.7 29.8,-19.7 4.2,-1.2 8.7,-2 13.6,-2.5 4.7,-0.5 9.8,-0.6 15.1,-0.4 11.6,-2.2 20.5,-6.3 26.3,-12.7 5.7,-6.3 8.4,-14.8 7.9,-25.9 -0.2,-1.1 -0.5,-2.1 -0.6,-3.2 -0.2,-1.1 -0.3,-2.3 -0.3,-3.5 -0.2,-2.1 0.2,-4.4 0.6,-6.5 z"
   id="path6"
   sodipodi:nodetypes="ccccscccscccsssssscccccsccccssccccccccccsccccccccccccccccsccccccccc" /><circle
   cx="101.13757"
   cy="11.707574"
   r="2.9000001"
   id="circle8" />
</svg>
