<?xml version="1.0" encoding="UTF-8" standalone="no"?>
<!-- Generator: Adobe Illustrator 26.1.0, SVG Export Plug-In . SVG Version: 6.00 Build 0)  -->

<svg
   version="1.1"
   id="Layer_1"
   x="0px"
   y="0px"
   viewBox="0 0 122.9 121.7"
   style="enable-background:new 0 0 122.9 121.7;"
   xml:space="preserve"
   sodipodi:docname="2023-CA-01-squirrel.svg"
   inkscape:version="1.1.1 (3bf5ae0d25, 2021-09-20)"
   xmlns:inkscape="http://www.inkscape.org/namespaces/inkscape"
   xmlns:sodipodi="http://sodipodi.sourceforge.net/DTD/sodipodi-0.dtd"
   xmlns="http://www.w3.org/2000/svg"
   xmlns:svg="http://www.w3.org/2000/svg"><defs
   id="defs20">
	

		
		
	
			
			
			
		
		</defs><sodipodi:namedview
   id="namedview18"
   pagecolor="#ffffff"
   bordercolor="#666666"
   borderopacity="1.0"
   inkscape:pageshadow="2"
   inkscape:pageopacity="0.0"
   inkscape:pagecheckerboard="0"
   showgrid="false"
   inkscape:snap-nodes="false"
   inkscape:zoom="2.3589594"
   inkscape:cx="-49.810098"
   inkscape:cy="68.038475"
   inkscape:window-width="1920"
   inkscape:window-height="1001"
   inkscape:window-x="-9"
   inkscape:window-y="-9"
   inkscape:window-maximized="1"
   inkscape:current-layer="Layer_1" />
<style
   type="text/css"
   id="style2">
	.st0{fill:#A97E2C;}
</style>
<path
   class="st0"
   d="m 28.923095,114.5136 c -7.6,-4.5 -14.147832,-12.02989 -17.547832,-20.029895 -3.5999997,-8.3 -5.4358733,-19.018758 -3.8358733,-27.918758 1.9,-11.3 6.0350523,-15.911137 10.6350523,-21.611137 C 29.661724,27.022777 28.766203,19.825885 24.34581,22.029456 15.258105,26.559688 -6.3973479,26.29544 4.3701053,10.910316 8.0755995,6.3378498 14.318115,3.139074 20.058147,2.1043371 47.104867,-1.1051195 58.334389,22.019211 46.138918,53.036187 c 0,0 9.388029,-4.713947 19.811698,-12.835448 C 78.633717,24.590768 81.132146,26.93159 82.304988,21.440734 82.815152,19.05232 80.486634,12.697378 81.857327,7.0649473 c 0.5,-1.7 1.611957,-5.0845259 3.411957,-4.5845259 1,0.3 4.3801,1.1213028 5.4801,2.0213028 4.733166,5.2291909 6.35895,9.6365288 9.971346,11.3477938 9.29103,4.401345 12.88978,6.805721 16.07779,11.600851 3.2,4.9 4.71508,12.827357 3.41508,19.527357 -2.8,2.5 -8.05381,4.182884 -13.05381,4.182884 -6.25729,1.535892 -12.156442,-5.582339 -14.879754,-1.581265 -2.515224,3.695351 -0.681788,6.136891 0.561817,10.38396 0.8,0.5 2.2,0.4 4.3,0.3 4.399997,-0.3 13.936697,-0.74701 20.236697,3.35299 7.0487,7.659373 3.81115,11.802164 -3.47855,10.756273 -0.2,-0.7 -1.93669,-2.3068 -2.93669,-2.8068 -7.08333,-0.802205 -15.652244,1.577666 -21.728257,4.011958 3.408064,9.504493 1.678881,19.308872 1.519578,21.24619 -3.422383,10.665304 -3.66163,6.220874 -9.680421,11.381244 1.078585,2.60732 11.18026,0.86461 15.778779,0.85217 8.761381,0.94737 7.676061,10.37984 0.164948,10.77339 l -43.005979,0.21195 c -7.411522,-0.45275 -19.426276,-2.37609 -25.088863,-5.52907 z"
   id="path4"
   sodipodi:nodetypes="ccccsccccscccscccscccccccccccc"
   style="fill:#684025;fill-opacity:1" /><path
   id="path4-5"
   style="fill:#885430;fill-opacity:1"
   class="st0"
   d="m 24.941406,1.8066406 c -1.564991,-6.394e-4 -3.192392,0.096284 -4.882812,0.296875 -2.33423,0.420784 -4.744999,1.2174104 -7.041016,2.3007813 C 45.43336,2.3014012 47.83437,41.429936 30.877855,71.900834 c 0,0 10.114484,-18.858928 16.874098,-23.377396 C 56.553555,21.700998 47.184088,1.8157288 24.941406,1.8066406 Z m 59.685547,0.6582032 c -1.425531,0.3361006 -2.332031,3.1121093 -2.769531,4.5996093 -0.09945,0.408654 -0.142078,0.8257646 -0.205078,1.2402344 3.908205,4.6647535 5.383207,9.0229905 8.894531,10.0878905 10.668755,3.235577 18.718955,5.322728 21.906965,10.117858 3.50471,5.034073 4.85344,16.937067 -2.41478,21.011048 -0.66163,0.590742 -1.46921,1.129118 -2.36914,1.617188 4.84421,-0.109211 9.83784,-1.744858 12.54297,-4.160156 1.3,-6.7 -0.21406,-14.627344 -3.41406,-19.527344 -3.18801,-4.79513 -6.7871,-7.200218 -16.07813,-11.601563 C 97.108307,14.138344 95.483166,9.731144 90.75,4.5019531 c -1.1,-0.9 -4.480469,-1.7214844 -5.480469,-2.0214843 -0.225,-0.0625 -0.438931,-0.063639 -0.642578,-0.015625 z M 15.646484,24.189453 c -0.364813,-0.01796 -0.791465,0.09629 -1.251953,0.296875 0.595605,-0.0422 1.188406,-0.0901 1.78125,-0.166016 -0.161703,-0.07154 -0.336055,-0.121348 -0.529297,-0.130859 z m 69.052735,26.708985 c -1.033781,-0.08068 -1.912923,0.22434 -2.59375,1.224609 -2.515223,3.695351 -0.68111,6.135743 0.5625,10.382812 0.8,0.5 2.200781,0.400782 4.300781,0.300782 4.39999,-0.3 13.93633,-0.746485 20.23633,3.353515 1.90445,2.069444 3.03688,3.871486 3.5625,5.394532 0.0639,0.0067 0.13165,0.0045 0.19531,0.01172 1,0.5 2.7375,2.106641 2.9375,2.806641 7.2897,1.045891 10.52722,-3.096487 3.47852,-10.755859 -6.3,-4.1 -15.83633,-3.653516 -20.236332,-3.353516 -2.1,0.1 -3.500781,0.199219 -4.300781,-0.300781 -0.81302,-2.776567 -1.855667,-4.783066 -1.792969,-6.871094 -2.410089,-0.849774 -4.606665,-2.057326 -6.349609,-2.193359 z m -4.119141,48.46875 c -3.422383,10.665302 -3.660896,6.220492 -9.679687,11.380862 1.078585,2.60732 11.180777,0.86595 15.779297,0.85351 5.999679,0.64875 7.376925,5.27457 5.240234,8.25391 l 5.097656,-0.0254 c 7.511112,-0.39355 8.597322,-9.82607 -0.164062,-10.77344 -4.598519,0.0124 -14.700712,1.75576 -15.779297,-0.85156 6.018791,-5.16037 6.257304,-0.71556 9.679687,-11.380861 0.159303,-1.937318 1.888533,-11.741601 -1.519531,-21.246094 -8.088196,-9.914351 -14.816342,-8.588178 -13.912541,-0.672962 0.570435,4.9957 9.337134,10.34865 5.258244,24.462035 z"
   sodipodi:nodetypes="sccccssccscccccsccssccscsccccccccccsccccccccccsc" /><path
   id="path4-84"
   style="fill:#513726;fill-opacity:1"
   class="st0"
   d="m 81.857422,7.0644531 c -1.370693,5.6324309 0.95743,11.9885389 0.447266,14.3769529 -0.243417,1.139593 -0.551469,1.935466 -0.988282,2.63086 2.854229,-2.507519 3.953239,-3.244861 4.591797,-6.234375 -0.73946,-0.284319 0.2625,-26.6086231 -4.050781,-10.7734379 z M 7.7773438,7.6054688 C 6.5054636,8.6044731 5.3447575,9.706275 4.3691406,10.910156 -6.3983126,26.29528 15.257998,26.559529 24.345703,22.029297 c 4.420393,-2.203571 5.315407,4.992795 -6.171875,22.923828 -16.9681727,21.710142 -14.1777362,54.346484 10.75,69.560545 5.662587,3.15298 17.676369,5.07655 25.087891,5.5293 l 43.005859,-0.21289 c 3.187882,-0.16703 5.203112,-1.96513 5.814452,-4.04883 -0.66227,0.23553 -1.39112,0.40236 -2.21094,0.44531 l -43.005856,0.21289 C 41.250696,114.40566 34.443581,114.69205 25.091811,102.15143 10.97142,83.110911 9.191361,62.802983 25.674142,42.848377 37.161424,24.917344 32.369612,16.22221 27.949219,18.425781 c -9.02706,4.5 -30.4396137,4.262132 -20.1718752,-10.8203122 z M 89.998247,42.526395 c -1.033781,-0.08069 -1.912921,0.224341 -2.59375,1.224609 -0.577245,0.848085 -0.903182,1.625919 -1.082031,2.378907 3.103682,0.186775 16.106744,6.191487 20.837694,5.030245 5,0 10.25273,-1.68164 13.05273,-4.18164 0.0941,-0.485174 0.14394,-0.987945 0.20899,-1.484375 -2.77953,1.277445 -6.26808,2.0625 -9.65821,2.0625 C 106.0707,48.70856 93.099595,42.76845 89.998247,42.526395 Z m 2.839644,29.448214 c 0.247599,0.690512 0.460309,1.38172 0.65625,2.072266 2.668038,-1.468709 9.043779,-2.938281 14.601159,-2.472746 5.10282,0.427457 9.53231,2.91873 9.40861,-0.804597 -5.5793,-6.893742 -18.295778,-1.309162 -24.666019,1.205077 z m -3.960938,29.865231 c -1.027263,0.49139 -2.311168,1.14295 -4.199219,2.76172 0.129976,0.3142 0.397055,0.56127 0.763672,0.75977 1.428154,-0.67919 2.33109,-1.17461 3.435547,-3.52149 z"
   sodipodi:nodetypes="cscccccscccccccccscsscccccsccscccccc" /><path
   d="m 122.9,69.1 c 0,1.1 -0.1,2 -0.3,2.8 -0.2,0.9 -0.5,1.7 -0.9,2.3 -2.6,4.5 -5.3,3.1 -8.4,1.5 -0.4,-0.2 -0.7,-0.4 -1.1,-0.6 v 0 c -1,-0.4 -1.2,-1.1 -1.4,-1.8 -2.9,-1.1 -4.7,-0.7 -8.2,0.2 -0.8,0.2 -1.7,0.4 -2.9,0.7 -2.5,0.6 -5.2,1.7 -7.8,2.7 l -0.7,0.3 c 2.1,7.8 2.5,14.5 1,19.9 -1.2,4 -3.4,7.3 -6.7,9.9 H 97 v 0 c 3.4,0 5.9,1.7 7.1,4 0.5,1 0.8,2 0.8,3.1 v 0 c 0.1,1.1 -0.1,2.2 -0.6,3.2 -1,2.3 -3.3,4.1 -7.1,4.4 H 97 53.8 v 0 c -5,0.1 -9.7,-0.3 -14,-1.4 -4.4,-1 -8.5,-2.6 -12.2,-4.8 C 19.4,110.6 13.2,103.1 9.4,94.4 5.5,85.4 4.2,75.3 6,65.7 8.2,53.5 12.9,47.8 17.8,41.8 c 2.6,-3.2 5.4,-6.6 7.8,-11.1 0.4,-0.8 0.7,-1.5 0.9,-2.2 0.2,-0.6 0.3,-1.1 0.3,-1.6 0,-0.3 0,-0.5 -0.1,-0.7 -0.1,-0.6 -0.5,-1 -1.1,-1.3 -0.8,-0.4 -1.8,-0.5 -2.8,-0.5 -1.7,0 -3.5,0.3 -4.8,0.6 -1.1,0.2 -2.1,0.6 -3,1 -2.5,0.9 -4.8,1.7 -8.2,0.7 C 4.6,26.1 2.9,24.8 1.7,23.1 0.5,21.4 0,19.3 0.1,17.1 0.2,15 0.8,12.7 2.1,10.7 3.8,7.9 6.6,5.4 10.6,3.9 c 3.2,-1.7 6.4,-3 9.7,-3.5 3.4,-0.6 6.9,-0.5 10.5,0.5 5,1.4 9.2,3.6 12.6,6.5 4.7,4 7.7,9.2 9.2,14.9 1.5,5.7 1.3,11.9 -0.3,17.9 -0.9,3.2 -2.1,6.3 -3.8,9.3 5.8,-3.6 11.4,-7.3 16.3,-11.2 6.6,-5.2 12.2,-10.7 16,-16.7 0,-0.2 -0.1,-0.5 -0.1,-0.7 C 80.2,17.3 79.2,10.5 80.5,6 c 1,-3.6 3.2,-5.8 7.5,-4.6 1.5,0.4 3.1,1.5 4.6,2.7 2,1.7 3.8,3.7 5,5.1 0.7,0.9 1.4,1.8 2,2.8 0.5,0.8 1,1.6 1.5,2.3 7.3,1.8 13.3,6 17.1,11.8 3.8,5.7 5.3,13 3.7,20.8 -0.1,0.3 -0.2,0.6 -0.5,0.9 -3.5,3.4 -8.8,4.9 -14.9,4.9 -3.9,0 -8.1,-0.6 -12.2,-1.8 -0.4,2.8 -0.9,7.1 0,7.7 0.1,0.1 0.8,-0.1 2.2,-0.2 4.8,-0.3 13.6,-0.8 20.8,3.9 1.2,0.8 2.4,1.7 3.3,2.7 0.9,1 1.7,2.2 2.3,3.5 -0.1,0.1 0,0.3 0,0.6 z m -3.7,2 c 0.1,-0.5 0.2,-1.1 0.2,-1.7 -0.4,-0.8 -0.9,-1.5 -1.5,-2.2 -0.7,-0.8 -1.6,-1.5 -2.6,-2.2 C 109.1,61 101,61.4 96.6,61.7 94.5,61.8 93.2,61.9 92.3,61.4 89.4,59.6 90.2,53.6 90.7,50 V 49.7 L 90,49.4 C 88.8,49 87.6,48.5 86.4,48 v 0 c -0.9,-0.4 -1.3,-1.4 -1,-2.3 0.4,-0.9 1.4,-1.3 2.3,-1 l 3.6,1.5 c 5.1,1.8 10.3,2.9 15,2.9 4.9,0 9.2,-1.1 12.1,-3.6 1.3,-6.7 -0.1,-12.8 -3.2,-17.7 -3.4,-5.2 -9,-9 -15.7,-10.5 -0.5,-0.1 -1,-0.5 -1.2,-0.9 -0.6,-1 -1.1,-1.9 -1.7,-2.7 C 96,12.8 95.4,12 94.7,11.2 93.7,10 92,8.1 90.2,6.7 89,5.7 87.8,4.9 86.9,4.7 85.1,4.2 84.1,5.2 83.7,6.9 c -0.9,3.4 -0.3,8.8 0.2,12.3 0.3,-0.2 0.7,-0.4 1,-0.5 1.2,-0.6 2.4,-1 3.6,-1.3 0.9,-0.2 1.9,0.4 2,1.4 0.2,0.9 -0.4,1.9 -1.3,2.1 -0.9,0.2 -1.9,0.5 -2.8,1 -0.9,0.5 -1.9,1.1 -2.8,1.8 v 0 c -4,6.4 -9.8,12.1 -16.7,17.5 -7,5.5 -15.2,10.6 -23.6,15.7 -5.2,5.6 -8.6,11.3 -10.4,17 -1.9,5.6 -2.1,11.6 -0.9,17.7 0.2,0.9 -0.4,1.9 -1.4,2 -0.9,0.2 -1.9,-0.4 -2,-1.4 C 27.3,85.6 27.4,79 29.4,72.6 31.4,66.2 35.1,60 40.8,53.9 l 0.1,-0.1 C 44.7,49.4 47.3,44.3 48.7,39.2 50.2,33.7 50.3,28.1 49,23 47.7,17.9 45,13.4 41,9.9 38,7.3 34.3,5.3 29.8,4.1 26.7,3.3 23.7,3.2 20.8,3.7 17.8,4.2 14.9,5.3 12.1,6.9 12,7 11.9,7 11.7,7.1 8.5,8.3 6.3,10.2 4.9,12.4 4,14 3.5,15.7 3.5,17.2 c 0,1.5 0.3,2.8 1,3.9 0.7,1 1.7,1.8 3.2,2.2 2.4,0.7 4.1,0.1 6.1,-0.6 1,-0.4 2.1,-0.8 3.5,-1 1.4,-0.3 3.5,-0.7 5.6,-0.7 1.5,0 3,0.2 4.3,0.8 1.5,0.7 2.6,1.9 3,3.6 0.1,0.5 0.2,1 0.1,1.5 0,0.8 -0.2,1.7 -0.5,2.6 -0.3,0.9 -0.7,1.8 -1.2,2.8 C 26,37.1 23.047011,42.189684 20.347011,45.589684 15.747011,51.289684 11.5,55 9.4,66.4 7.8,75.3 9,84.7 12.6,93.1 c 3.5,8 9.2,15 16.7,19.5 3.4,2 7.2,3.5 11.2,4.4 4.1,0.9 8.5,1.4 13.2,1.3 v 0 0 h 43.2 c 2.3,-0.2 3.7,-1.2 4.2,-2.4 0.2,-0.5 0.3,-1 0.3,-1.6 0,-0.6 -0.2,-1.1 -0.4,-1.6 -0.7,-1.2 -2,-2.2 -4,-2.1 v 0 0 H 79 c -1,0 -1.7,-0.8 -1.7,-1.7 0,-0.8 0.5,-1.4 1.2,-1.6 5.8,-2.4 9.2,-6.1 10.6,-11 C 90.6,91.2 90,84.8 87.8,77.2 85,75.5 82.4,73.8 80,72 77.7,70.8 75.5,69.8 73.4,69.1 69,67.8 65.1,67.8 61.6,69.8 60.8,70.3 59.7,70 59.2,69.1 58.7,68.3 59,67.2 59.8,66.7 c 3.8,-2.1 7.9,-2.5 12.3,-1.6 -1.9,-2.2 -3.4,-4.4 -4.1,-6.6 -0.3,-0.9 0.2,-1.9 1.1,-2.2 0.9,-0.3 1.9,0.2 2.2,1.1 1,2.8 3.3,5.6 6.5,8.4 1.2,1 2.5,2.1 3.9,3.1 2.6,1.4 5.2,3.2 8,5.2 l 0.9,-0.4 c 2.7,-1.1 5.5,-2.3 8.3,-2.9 1,-0.2 1.9,-0.5 2.8,-0.7 4.4,-1.1 6.6,-1.7 11,0.2 1,0.4 1.2,1.1 1.4,1.8 0.3,0.1 0.5,0.3 0.8,0.4 1.5,0.8 2.8,1.5 3.8,-0.1 0.2,-0.3 0.4,-0.7 0.5,-1.3 z"
   id="path6"
   sodipodi:nodetypes="scccssccccccccscssccccscccccccscsscccsccccccsccccccccccccccsccccscscccccccccsscccscccccccccccccssssccccccscccsccccccsccccscccsccccccsccccscsccssccccccccccscccccccccccc" /><path
   style="stroke-width:0.867756"
   d="m 111.59777,30.823593 c 0,1.214858 -0.52065,2.342939 -1.30163,3.123919 v 0 c -0.78099,0.780981 -1.90907,1.301634 -3.12392,1.301634 -1.21486,0 -2.34294,-0.520653 -3.12393,-1.301634 0,0 -0.0867,-0.08678 -0.0867,-0.08678 -0.78099,-0.78098 -1.21486,-1.822286 -1.21486,-3.037144 0,-1.214858 0.52065,-2.342941 1.30162,-3.123921 0.78098,-0.78098 1.90906,-1.301634 3.12392,-1.301634 1.21486,0 2.34294,0.520654 3.12392,1.301634 0.78099,0.78098 1.30164,1.909063 1.30164,3.123921 z"
   id="path4020" /><path
   style="fill:#f9f9f9;stroke-width:0.6558"
   d="m 109.80395,29.138533 c 0,-0.39348 -0.19675,-0.78696 -0.45906,-1.04928 -0.26232,-0.26232 -0.59022,-0.39348 -1.04928,-0.39348 -0.45907,0 -0.78697,0.13116 -1.04928,0.39348 -0.26232,0.26232 -0.39349,0.6558 -0.39349,1.04928 0,0.39348 0.13117,0.72138 0.39349,0.983699 0,0 0,0 0.0656,0.06558 0.26233,0.26232 0.6558,0.39348 1.04928,0.39348 0.39348,0 0.78696,-0.13116 1.04928,-0.39348 v 0 c 0.19674,-0.3279 0.39348,-0.6558 0.39348,-1.049279 z"
   id="path8" />
</svg>
