<?xml version="1.0" encoding="UTF-8"?>
<!--?xml version="1.0" encoding="UTF-8"?-->
<svg id="svg73" style="clip-rule:evenodd;fill-rule:evenodd" version="1.1" viewBox="0 0 367 364" xml:space="preserve" xmlns="http://www.w3.org/2000/svg" xmlns:serif="http://www.serif.com/">
    <g id="g1100" class="csvg-ignore" transform="translate(-.1 -.1)"><path id="path2" d="m360.1 3.7341-357.87 354.24c122 .793 246.12.796 364.02 5.958-4.554-120.16-5.261-240.24-6.154-360.19z" style="fill-rule:nonzero;fill:#c4b8b8"/><path id="path9971" d="m.1.1v360l360.36-.345c-2.009-118.23-.526-239.52-.356-359.66z" style="fill-rule:nonzero" serif:id="path997"/><rect id="path999" x="2.23" y="2.23" width="355.74" height="355.74" style="fill-rule:nonzero;fill:#ffffff"/><path id="path833-5" d="m305.17 9.8812v11.305h1.4336v-8.8828l5.9375 8.8828h1.5352v-11.305h-1.4336v8.875l-5.9375-8.875zm4.7656 13.465-6.5 11.111 1.4922.87305 4.1426-7.084v27.336h-24.061v1.7285h24.061v24.447h1.7285v-24.447h24.531v-1.7285h-24.531v-27.338l4.1426 7.0859 1.4922-.87305zm32.584 27.846c-1.5936 0-2.8948.53159-3.9024 1.5957-1.0076 1.059-1.5117 2.526-1.5117 4.4023 0 .99214.21662 1.9329.64843 2.8223.43182.88933 1.0664 1.5914 1.9043 2.1055.83792.51406 1.7894.77148 2.8535.77148.98185 0 1.8959-.23266 2.7441-.69531.8482-.4678 1.5041-1.1538 1.9668-2.0586.46266-.90475.69336-1.9298.69336-3.0762 0-1.1309-.22001-2.1419-.66211-3.0312-.43695-.89447-1.0761-1.5912-1.9141-2.0898-.83792-.49864-1.7768-.74609-2.8203-.74609zm-73.756.19922 3 11.305h1.5254l2.3984-8.6133c.10281-.36498.21379-.80697.33203-1.3262.036.1645.15303.60648.35351 1.3262l2.3828 8.6133h1.4434l3.0996-11.305h-1.5039l-1.7734 7.2637c-.23133.92531-.41856 1.7464-.5625 2.4609-.17992-1.2492-.4728-2.5831-.8789-4.002l-1.6192-5.7227h-1.8047l-2.1524 7.6348c-.0514.18506-.21993.8818-.50781 2.0898-.13366-.76595-.29345-1.5382-.47851-2.3145l-1.7207-7.4102zm73.762 1.0879c.74539 0 1.4174.18991 2.0137.57031.60145.37526 1.0568.90686 1.3652 1.5957.31358.6837.47071 1.4861.47071 2.4062 0 1.4548-.36574 2.5775-1.0957 3.3691-.72482.79166-1.6496 1.1875-2.7754 1.1875-1.1052 1e-6-2.0266-.3905-2.7617-1.1719-.72996-.78652-1.0938-1.8604-1.0938-3.2227 0-1.7015.37982-2.9158 1.1406-3.6406.76595-.72997 1.6774-1.0938 2.7363-1.0938zm-32.953 32.174c-.76081 0-1.4522.12969-2.0742.38672-.62201.25703-1.0941.63417-1.418 1.1328-.32386.4935-.48633 1.0251-.48633 1.5957 0 .5192.13236.99058.39453 1.4121.26731.41639.66922.76609 1.209 1.0488.41639.22105 1.1452.45709 2.1836.70898 1.0384.24675 1.7084.42864 2.0117.54688.47293.17992.81195.40456 1.0176.67188.20563.26217.3086.56912.3086.92383 0 .34956-.10832.6745-.32422.97266-.21077.29302-.53375.52372-.97071.69336-.43695.16964-.9411.25391-1.5117.25391-.64258 0-1.2203-.10903-1.7344-.33008-.51406-.22619-.89583-.51906-1.1426-.87891-.24161-.36498-.39411-.83102-.46093-1.3965l-1.4121.12305c.0206.75567.2265 1.4337.61718 2.0352.39583.59631.93811 1.0436 1.627 1.3418.69398.29816 1.5532.44727 2.5762.44727.80708 0 1.5312-.14644 2.1738-.43945.64772-.29816 1.1439-.71075 1.4883-1.2402.34442-.53462.51562-1.1036.51562-1.7051 0-.60659-.15517-1.1409-.46875-1.6035-.31358-.4678-.80098-.85295-1.459-1.1562-.45238-.20562-1.2875-.44434-2.5059-.7168-1.2132-.27759-1.9621-.54838-2.25-.81055-.29302-.26217-.44141-.59584-.44141-1.002 0-.4678.20594-.86631.61719-1.1953.41639-.33414 1.0777-.50195 1.9824-.50195.86877 0 1.5247.18384 1.9668.54883.44723.36498.70805.90459.78516 1.6191l1.4355-.10937c-.0257-.66314-.21222-1.2569-.55664-1.7812-.34442-.52434-.83789-.92019-1.4805-1.1875-.63743-.27245-1.375-.4082-2.2129-.4082z" style="-inkscape-stroke:none;clip-rule:nonzero;color:#000000;fill-rule:nonzero;fill:#000000;stroke-width:.4"/></g>
	<g id="g1161" class="csvg-group" transform="translate(-.1 -.1)">
	<g id="g863" class="csvg-button"><rect id="path1003" x="20.124" y="11.603" width="20.876" height="20.876" style="fill-rule:nonzero"/><rect id="rect1089" x="10.562" y="2.041" width="40" height="40" style="opacity:0;stroke-width:1.9161"/></g>
	<g id="g860" class="csvg-button"><circle id="circle1001" cx="30.562" cy="22.041" r="18.307" style="clip-rule:evenodd;fill-rule:evenodd;fill:#ffcb34"/><rect id="path10031" x="20.124" y="11.603" width="20.876" height="20.876" style="clip-rule:evenodd;fill-rule:nonzero;fill:#e62121" serif:id="path1003"/></g>
	</g>
	<g id="g1165" class="csvg-group" transform="translate(-.1 -.1)"><g id="g870" class="csvg-button"><rect id="rect28" x="111.72" y="173.92" width="19.598" height="19.598"/><rect id="rect989" x="101.52" y="163.72" width="40" height="40" style="opacity:0;stroke-width:2.041"/></g><g id="g867" class="csvg-button"><circle id="circle9" cx="121.52" cy="183.72" r="18.307" style="clip-rule:evenodd;fill-rule:evenodd;fill:#ffcb34"/><rect id="rect30" x="111.72" y="173.92" width="19.598" height="19.598" style="clip-rule:evenodd;fill-rule:evenodd;fill:#e62121"/></g></g><g id="g1169" class="csvg-group" transform="translate(-.1 -.1)"><g id="g877" class="csvg-button"><rect id="rect24" x="225.05" y="174.77" width="22.154" height="22.154"/><rect id="rect950" x="216.13" y="165.85" width="35.887" height="40" style="opacity:0;stroke-width:1.8055"/></g><g id="g874" class="csvg-button"><circle id="circle12" cx="236.12" cy="185.85" r="18.307" style="clip-rule:evenodd;fill-rule:evenodd;fill:#ffcb34"/><rect id="rect26" x="225.05" y="174.77" width="22.154" height="22.154" style="clip-rule:evenodd;fill-rule:evenodd;fill:#e62121"/></g></g><g id="g1173" class="csvg-group" transform="translate(-.1 -.1)"><g id="g884" class="csvg-button"><rect id="path1011" x="257" y="180.31" width="20.876" height="20.876" style="fill-rule:nonzero"/><rect id="rect930" x="252.08" y="174.64" width="35.361" height="36.105" style="opacity:0;stroke-width:1.9161"/></g><g id="g881" class="csvg-button"><circle id="circle15" cx="267.44" cy="190.75" r="18.307" style="clip-rule:evenodd;fill-rule:evenodd;fill:#ffcb34"/><rect id="path10111" x="257" y="180.31" width="20.876" height="20.876" style="clip-rule:evenodd;fill-rule:nonzero;fill:#e62121" serif:id="path1011"/></g></g><g id="g1181" class="csvg-group" transform="translate(-.1 -.1)"><g id="g891" class="csvg-button"><rect id="path1015" x="294.7" y="304.74" width="39.2" height="40" style="opacity:0;stroke-width:1.8778"/><rect id="rect892" x="303.86" y="314.09" width="20.876" height="21.302" style="fill-rule:nonzero"/></g><g id="g888" class="csvg-button"><circle id="circle21" cx="314.3" cy="324.74" r="18.307" style="clip-rule:evenodd;fill-rule:evenodd;fill:#ffcb34"/><rect id="path10151" x="303.86" y="314.09" width="20.876" height="21.302" style="clip-rule:evenodd;fill-rule:nonzero;fill:#e62121" serif:id="path1015"/></g></g><g id="g1177" class="csvg-group" transform="translate(-.1 -.1)"><g id="g898" class="csvg-button"><rect id="rect36" x="11.943" y="317.75" width="40" height="40" style="opacity:0;stroke-width:1.8778"/><rect id="rect890" x="21.292" y="327.1" width="21.302" height="21.302" style="fill-rule:nonzero"/></g><g id="g895" class="csvg-button"><circle id="circle18" cx="31.943" cy="337.75" r="18.307" style="clip-rule:evenodd;fill-rule:evenodd;fill:#ffcb34"/><rect id="rect39" x="21.264" y="327.07" width="21.358" height="21.358" style="clip-rule:evenodd;fill-rule:nonzero;fill:#e62121;stroke-width:1.0026"/></g></g>
</svg>
