<?xml version="1.0" encoding="UTF-8"?>
<!--?xml version="1.0" encoding="UTF-8"?-->
<svg id="svg73" style="clip-rule:evenodd;fill-rule:evenodd" version="1.1" viewBox="0 0 367 364" xml:space="preserve" xmlns="http://www.w3.org/2000/svg" xmlns:serif="http://www.serif.com/">
    <g id="g1100" class="csvg-ignore" transform="translate(-.1 -.1)"><path id="path2" d="m360.1 3.7341-357.87 354.24c122 .793 246.12.796 364.02 5.958-4.554-120.16-5.261-240.24-6.154-360.19z" style="fill-rule:nonzero;fill:#c4b8b8"/><path id="path9971" d="m.1.1v360l360.36-.345c-2.009-118.23-.526-239.52-.356-359.66z" style="fill-rule:nonzero" serif:id="path997"/><rect id="path999" x="2.23" y="2.23" width="355.74" height="355.74" style="fill-rule:nonzero;fill:#ffffff"/><path id="path40" d="m305.58 7.6723v11.514h1.5117v-9.6309l5.1035 9.6309h2.0976v-11.514h-1.5117v9.6309l-5.1035-9.6309zm4.3574 15.674-6.5 11.111 1.4922.87305 4.1426-7.084v27.854h-24.061v1.7285h24.061v23.93h1.7285v-23.93h24.531v-1.7285h-24.531v-27.855l4.1426 7.0859 1.4922-.87305zm-40.84 27.861 2.8828 11.514h1.959l2.4512-9.9941 2.4297 9.9941h1.959l2.8906-11.514h-1.5801l-2.4141 9.7324-2.4199-9.7324h-1.752l-2.4121 9.7324-2.4219-9.7324zm70.797 0v11.514h7.418v-1.3105h-5.8613v-4.1719h5.4824v-1.3105h-5.4824v-3.4082h5.7226v-1.3125zm-29.969 33.223c-1.2594 0-2.2491.29288-2.9687.87891-.71455.58603-1.0723 1.3865-1.0723 2.4043 0 .87905.26009 1.567.7793 2.0605.5192.4935 1.3597.85461 2.5215 1.0859l.94727.18555c.79165.15936 1.3606.39808 1.7051.7168.34957.31872.52344.7607.52344 1.3262 0 .64772-.24139 1.1465-.72461 1.4961-.48322.34956-1.1693.52539-2.0586.52539-.58603 0-1.1825-.09156-1.7891-.27148s-1.2271-.44608-1.8594-.80078v1.6035c.658.24161 1.2945.4235 1.9062.54688.61688.12338 1.1973.18555 1.7422.18555 1.4445 0 2.5398-.28753 3.2852-.86328.75054-.57575 1.125-1.4216 1.125-2.5371 0-.93559-.27684-1.6811-.83203-2.2363-.55004-.56033-1.4066-.95083-2.5684-1.1719l-.9414-.19336c-.85335-.15936-1.4338-.36602-1.7422-.62305-.3033-.26217-.45508-.64928-.45508-1.1582 0-.60659.22999-1.0733.6875-1.4023.46266-.329 1.1166-.49414 1.9648-.49414.48836 0 .99518.07019 1.5195.20898.52434.1388 1.0826.34812 1.6738.63086v-1.5176c-.58604-.19534-1.1604-.34178-1.7207-.43945-.56033-.09767-1.1087-.14648-1.6484-.14648z" style="-inkscape-stroke:none;clip-rule:evenodd;color:#000000;fill-rule:nonzero;fill:#000000;stroke-width:.4"/></g>
	<g id="g1161" class="csvg-group" transform="translate(-.1 -.1)">
	<g id="g863" class="csvg-button"><rect id="path1003" x="20.124" y="11.603" width="20.876" height="20.876" style="fill-rule:nonzero"/><rect id="rect1089" x="10.562" y="2.041" width="40" height="40" style="opacity:0;stroke-width:1.9161"/></g>
	<g id="g860" class="csvg-button"><circle id="circle1001" cx="30.562" cy="22.041" r="18.307" style="clip-rule:evenodd;fill-rule:evenodd;fill:#ffcb34"/><rect id="path10031" x="20.124" y="11.603" width="20.876" height="20.876" style="clip-rule:evenodd;fill-rule:nonzero;fill:#e62121" serif:id="path1003"/></g>
	</g>
	<g id="g1165" class="csvg-group" transform="translate(-.1 -.1)"><g id="g870" class="csvg-button"><rect id="rect28" x="111.72" y="173.92" width="19.598" height="19.598"/><rect id="rect989" x="101.52" y="163.72" width="40" height="40" style="opacity:0;stroke-width:2.041"/></g><g id="g867" class="csvg-button"><circle id="circle9" cx="121.52" cy="183.72" r="18.307" style="clip-rule:evenodd;fill-rule:evenodd;fill:#ffcb34"/><rect id="rect30" x="111.72" y="173.92" width="19.598" height="19.598" style="clip-rule:evenodd;fill-rule:evenodd;fill:#e62121"/></g></g><g id="g1169" class="csvg-group" transform="translate(-.1 -.1)"><g id="g877" class="csvg-button"><rect id="rect24" x="225.05" y="174.77" width="22.154" height="22.154"/><rect id="rect950" x="216.13" y="165.85" width="35.887" height="40" style="opacity:0;stroke-width:1.8055"/></g><g id="g874" class="csvg-button"><circle id="circle12" cx="236.12" cy="185.85" r="18.307" style="clip-rule:evenodd;fill-rule:evenodd;fill:#ffcb34"/><rect id="rect26" x="225.05" y="174.77" width="22.154" height="22.154" style="clip-rule:evenodd;fill-rule:evenodd;fill:#e62121"/></g></g><g id="g1173" class="csvg-group" transform="translate(-.1 -.1)"><g id="g884" class="csvg-button"><rect id="path1011" x="257" y="180.31" width="20.876" height="20.876" style="fill-rule:nonzero"/><rect id="rect930" x="252.08" y="174.64" width="35.361" height="36.105" style="opacity:0;stroke-width:1.9161"/></g><g id="g881" class="csvg-button"><circle id="circle15" cx="267.44" cy="190.75" r="18.307" style="clip-rule:evenodd;fill-rule:evenodd;fill:#ffcb34"/><rect id="path10111" x="257" y="180.31" width="20.876" height="20.876" style="clip-rule:evenodd;fill-rule:nonzero;fill:#e62121" serif:id="path1011"/></g></g><g id="g1181" class="csvg-group" transform="translate(-.1 -.1)"><g id="g891" class="csvg-button"><rect id="path1015" x="294.7" y="304.74" width="39.2" height="40" style="opacity:0;stroke-width:1.8778"/><rect id="rect892" x="303.86" y="314.09" width="20.876" height="21.302" style="fill-rule:nonzero"/></g><g id="g888" class="csvg-button"><circle id="circle21" cx="314.3" cy="324.74" r="18.307" style="clip-rule:evenodd;fill-rule:evenodd;fill:#ffcb34"/><rect id="path10151" x="303.86" y="314.09" width="20.876" height="21.302" style="clip-rule:evenodd;fill-rule:nonzero;fill:#e62121" serif:id="path1015"/></g></g><g id="g1177" class="csvg-group" transform="translate(-.1 -.1)"><g id="g898" class="csvg-button"><rect id="rect36" x="11.943" y="317.75" width="40" height="40" style="opacity:0;stroke-width:1.8778"/><rect id="rect890" x="21.292" y="327.1" width="21.302" height="21.302" style="fill-rule:nonzero"/></g><g id="g895" class="csvg-button"><circle id="circle18" cx="31.943" cy="337.75" r="18.307" style="clip-rule:evenodd;fill-rule:evenodd;fill:#ffcb34"/><rect id="rect39" x="21.264" y="327.07" width="21.358" height="21.358" style="clip-rule:evenodd;fill-rule:nonzero;fill:#e62121;stroke-width:1.0026"/></g></g>
</svg>
