<?xml version="1.0" encoding="UTF-8" standalone="no"?>
<svg
   height="320px"
   width="320px"
   version="1.1"
   viewBox="-32 -32 320 320"
   id="svg12"
   sodipodi:docname="solution.svg"
   inkscape:version="1.2.2 (732a01da63, 2022-12-09)"
   xmlns:inkscape="http://www.inkscape.org/namespaces/inkscape"
   xmlns:sodipodi="http://sodipodi.sourceforge.net/DTD/sodipodi-0.dtd"
   xmlns="http://www.w3.org/2000/svg"
   xmlns:svg="http://www.w3.org/2000/svg"
   xmlns:bx="https://boxy-svg.com">
  <sodipodi:namedview
     id="namedview14"
     pagecolor="#ffffff"
     bordercolor="#666666"
     borderopacity="1.0"
     inkscape:showpageshadow="2"
     inkscape:pageopacity="0.0"
     inkscape:pagecheckerboard="0"
     inkscape:deskcolor="#d1d1d1"
     showgrid="false"
     inkscape:zoom="2.59375"
     inkscape:cx="160.19277"
     inkscape:cy="160.19277"
     inkscape:window-width="1920"
     inkscape:window-height="991"
     inkscape:window-x="-9"
     inkscape:window-y="-9"
     inkscape:window-maximized="1"
     inkscape:current-layer="svg12" />
  <defs
     id="defs2">
    <bx:grid
       x="0"
       y="0"
       width="32"
       height="32" />
  </defs>
  <g
     id="g24339"
     transform="matrix(-1.9970549,0,0,-1.9970549,802.71209,378.22806)">
    <g
       id="Wasser-7"
       transform="translate(273.66747,125.29157)">
      <rect
         class="st0"
         width="64"
         height="64"
         id="rect1777"
         style="fill:#009fe3"
         x="0"
         y="0" />
    </g>
    <g
       id="Linie_1-1"
       transform="translate(273.66747,125.29157)">
      <path
         class="Linie_x0020_1"
         d="m 32,0 c 0,4.62 0.98,9 2.74,12.96 l 7.13,-7.13 16.79,16.79 -6.93,6.94 C 55.51,31.13 59.65,32 64,32 V 0 Z"
         id="path1780"
         style="opacity:0.75;fill:none;stroke:#ffffff;stroke-width:3;stroke-miterlimit:10" />
    </g>
    <g
       id="Linie_2-5"
       transform="translate(273.66747,125.29157)">
      <path
         class="Linie_x0020_2"
         d="m 32,0 c 0,4.62 0.98,9 2.74,12.96 l 7.13,-7.13 16.79,16.79 -6.93,6.94 C 55.51,31.13 59.65,32 64,32 V 0 Z"
         id="path1783"
         style="opacity:0.45;fill:none;stroke:#ffffff;stroke-width:8;stroke-miterlimit:10" />
    </g>
    <g
       id="Linie_3-3"
       transform="translate(273.66747,125.29157)">
      <path
         class="Linie_x0020_3"
         d="m 32,0 c 0,4.62 0.98,9 2.74,12.96 l 7.13,-7.13 16.79,16.79 -6.93,6.94 C 55.51,31.13 59.65,32 64,32 V 0 Z"
         id="path1786"
         style="opacity:0.45;fill:none;stroke:#ffffff;stroke-width:16;stroke-miterlimit:10" />
    </g>
    <g
       id="Land-2"
       transform="translate(273.66747,125.29157)">
      <path
         class="st1"
         d="m 32,0 c 0,4.62 0.98,9 2.74,12.96 l 7.13,-7.13 16.79,16.79 -6.93,6.94 C 55.51,31.13 59.65,32 64,32 V 0 Z"
         id="path1789"
         style="fill:#95c11f;stroke:#95c11f;stroke-width:0.2;stroke-miterlimit:10" />
    </g>
    <g
       id="Seen-8"
       transform="translate(273.66747,125.29157)" />
    <g
       id="Utensilien-0"
       transform="translate(273.66747,125.29157)">
      <g
         id="g1801">
        <path
           class="st2"
           d="m 42.32,13.68 c -1.8,1.24 -3.6,2.71 -5.31,4.4 -6.13,6.05 -9.51,13.16 -9.12,18.17 5.01,0.45 12.15,-2.83 18.29,-8.89 1.71,-1.69 3.21,-3.47 4.47,-5.26 z"
           id="path1793"
           style="fill:#c6c6c6;stroke:#000000;stroke-width:0.5669;stroke-miterlimit:10" />
        <rect
           x="33.689999"
           y="19.209999"
           transform="matrix(0.7116,-0.7026,0.7026,0.7116,-5.4163,35.1557)"
           class="st3"
           width="12.84"
           height="9.9300003"
           id="rect1795"
           style="fill:#ffffff;stroke:#000000;stroke-width:0.5669;stroke-miterlimit:10" />
        <path
           class="st4"
           d="m 31.35,31.05 c -0.5,0.49 -0.5,1.29 -0.01,1.79 0.49,0.5 1.29,0.5 1.79,0.01 0.5,-0.49 0.5,-1.29 0.01,-1.79 -0.5,-0.49 -1.3,-0.49 -1.79,-0.01 z"
           id="path1797"
           style="fill:#e6332a;stroke:#ffffff;stroke-width:0.5669;stroke-miterlimit:10" />
        <line
           class="st5"
           x1="28.93"
           y1="35.209999"
           x2="25.51"
           y2="38.59"
           id="line1799"
           style="fill:none;stroke:#000000;stroke-width:0.5669;stroke-linecap:round;stroke-miterlimit:10" />
      </g>
      <rect
         x="42"
         y="12.06"
         transform="matrix(0.7071,-0.7071,0.7071,0.7071,4.0502,36.7252)"
         class="st6"
         width="8.7200003"
         height="2.8299999"
         id="rect1803"
         style="fill:#936037" />
    </g>
    <g
       id="Bäume-9"
       transform="translate(273.66747,125.29157)">
      <path
         class="st3"
         d="m 25.7,49.08 c -0.21,0.46 -0.48,0.84 -0.77,1.07 -0.16,-0.33 -0.22,-0.79 -0.21,-1.3 -0.41,-0.61 -2.64,-3.63 -6.44,-3.2 3.73,-0.88 6.26,0.8 6.92,1.3 0.2,-0.41 0.45,-0.75 0.71,-0.96 0.14,0.31 0.21,0.72 0.21,1.18 0.81,-0.15 3.82,-0.52 6.76,1.94 -3.2,-2.1 -6.54,-0.4 -7.18,-0.03 z m -0.57,2.5 c 0.04,-0.56 -0.03,-1.07 -0.2,-1.44 -0.31,0.25 -0.6,0.67 -0.82,1.19 z"
         id="path1806"
         style="fill:#ffffff;stroke:#000000;stroke-width:0.5669;stroke-miterlimit:10" />
    </g>
  </g>
  <g
     id="g39562"
     transform="matrix(-1.9859843,0,0,-1.9859843,587.68595,915.08865)">
    <g
       id="Wasser-75"
       transform="translate(231.83795,332.18824)">
      <rect
         y="0"
         class="st0"
         width="64"
         height="64"
         id="rect32702"
         style="fill:#009fe3"
         x="0" />
    </g>
    <g
       id="Linie_1-16"
       transform="translate(231.83795,332.18824)">
      <path
         class="Linie_x0020_1"
         d="M 32,64 V 60.24 C 34.33,59.28 39.61,56.6 46.42,49.88 55.5,40.93 47.5,38.5 39.5,26.5 32.81,16.47 32.07,4.7 32,1.11 V 0"
         id="path32705"
         style="opacity:0.75;fill:none;stroke:#ffffff;stroke-width:3;stroke-miterlimit:10" />
    </g>
    <g
       id="Linie_2-57"
       transform="translate(231.83795,332.18824)">
      <path
         class="Linie_x0020_2"
         d="M 32,64 V 60.24 C 34.33,59.28 39.61,56.6 46.42,49.88 55.5,40.93 47.5,38.5 39.5,26.5 32.81,16.47 32.07,4.7 32,1.11 V 0"
         id="path32708"
         style="opacity:0.45;fill:none;stroke:#ffffff;stroke-width:8;stroke-miterlimit:10" />
    </g>
    <g
       id="Linie_3-31"
       transform="translate(231.83795,332.18824)">
      <path
         class="Linie_x0020_3"
         d="M 32,64 V 60.24 C 34.33,59.28 39.61,56.6 46.42,49.88 55.5,40.93 47.5,38.5 39.5,26.5 32.81,16.47 32.07,4.7 32,1.11 V 0"
         id="path32711"
         style="opacity:0.45;fill:none;stroke:#ffffff;stroke-width:16;stroke-miterlimit:10" />
    </g>
    <g
       id="Land-9"
       transform="translate(231.83795,332.18824)">
      <path
         class="st1"
         d="M 39.5,26.5 C 32.81,16.47 32.07,4.7 32,1.11 V 0 H 0 V 64 H 32 V 60.24 C 34.33,59.28 39.61,56.6 46.42,49.88 55.49,40.93 47.5,38.5 39.5,26.5 Z"
         id="path32714"
         style="fill:#95c11f;stroke:#95c11f;stroke-width:0.2;stroke-miterlimit:10" />
    </g>
    <g
       id="Utensilien-1"
       transform="translate(231.83795,332.18824)" />
    <g
       id="Bäume-24"
       transform="translate(231.83795,332.18824)">
      <path
         class="st2"
         d="m 30.29,46.43 c 0.03,-0.17 0.05,-0.34 0.05,-0.52 0,-1.55 -1.25,-2.8 -2.8,-2.8 -1.23,0 -2.26,0.8 -2.64,1.9 -0.43,-0.29 -0.96,-0.46 -1.52,-0.46 -1.5,0 -2.71,1.21 -2.71,2.71 0,0.6 0.2,1.15 0.53,1.6 -0.28,0.38 -0.45,0.85 -0.45,1.36 0,1.28 1.04,2.32 2.32,2.32 0.22,0 0.43,-0.04 0.63,-0.1 0.43,1.27 1.62,2.2 3.03,2.2 1.69,0 3.05,-1.3 3.19,-2.96 0.08,0.01 0.16,0.02 0.25,0.02 1.46,0 2.64,-1.18 2.64,-2.64 0.01,-1.42 -1.11,-2.57 -2.52,-2.63 z"
         id="path32718"
         style="fill:#008d36;stroke:#000000;stroke-width:0.5669;stroke-miterlimit:10" />
      <path
         class="st2"
         d="m 16.8,37.74 c 0.03,-0.17 0.05,-0.34 0.05,-0.52 0,-1.55 -1.25,-2.8 -2.8,-2.8 -1.23,0 -2.26,0.8 -2.64,1.9 -0.43,-0.29 -0.96,-0.46 -1.52,-0.46 -1.5,0 -2.71,1.21 -2.71,2.71 0,0.6 0.2,1.15 0.53,1.6 -0.28,0.38 -0.45,0.85 -0.45,1.36 0,1.28 1.04,2.32 2.32,2.32 0.22,0 0.43,-0.04 0.63,-0.1 0.43,1.27 1.62,2.2 3.03,2.2 1.69,0 3.05,-1.3 3.19,-2.96 0.08,0.01 0.16,0.02 0.25,0.02 1.46,0 2.64,-1.18 2.64,-2.64 0.01,-1.42 -1.11,-2.57 -2.52,-2.63 z"
         id="path32720"
         style="fill:#008d36;stroke:#000000;stroke-width:0.5669;stroke-miterlimit:10" />
      <path
         class="st2"
         d="m 24.36,7.49 c 0.03,-0.17 0.05,-0.34 0.05,-0.52 0,-1.55 -1.25,-2.8 -2.8,-2.8 -1.23,0 -2.26,0.8 -2.64,1.9 -0.43,-0.29 -0.96,-0.46 -1.52,-0.46 -1.5,0 -2.71,1.21 -2.71,2.71 0,0.6 0.2,1.15 0.53,1.6 -0.28,0.38 -0.45,0.85 -0.45,1.36 0,1.28 1.04,2.32 2.32,2.32 0.22,0 0.43,-0.04 0.63,-0.1 0.43,1.27 1.62,2.2 3.03,2.2 1.69,0 3.05,-1.3 3.19,-2.96 0.08,0.01 0.16,0.02 0.25,0.02 1.46,0 2.64,-1.18 2.64,-2.64 C 26.89,8.7 25.77,7.55 24.36,7.49 Z"
         id="path32722"
         style="fill:#008d36;stroke:#000000;stroke-width:0.5669;stroke-miterlimit:10" />
      <path
         class="st3"
         d="m 34.62,24.61 c 0.15,0.48 0.21,0.94 0.15,1.31 -0.34,-0.14 -0.69,-0.44 -1.02,-0.82 -0.71,-0.18 -4.39,-0.93 -6.92,1.94 2.18,-3.15 5.18,-3.6 6,-3.67 -0.12,-0.44 -0.17,-0.86 -0.11,-1.19 0.31,0.13 0.64,0.39 0.94,0.73 0.5,-0.66 2.49,-2.94 6.32,-3.09 -3.78,0.59 -5.13,4.1 -5.36,4.79 z m 1.26,2.24 c -0.35,-0.44 -0.74,-0.77 -1.11,-0.93 -0.07,0.39 0,0.9 0.19,1.44 z"
         id="path32724"
         style="fill:#ffffff;stroke:#000000;stroke-width:0.5669;stroke-miterlimit:10" />
    </g>
  </g>
  <g
     id="g6043"
     transform="translate(-131.08434,-18.891566)">
    <rect
       x="259.78281"
       class="st0"
       width="127.03354"
       height="127.03354"
       id="rect17924"
       style="fill:#009fe3;stroke-width:1.9849"
       y="147.36989" />
    <path
       class="Linie_x0020_1"
       d="m 386.81636,210.88666 c -21.556,0 -40.57134,-10.7383 -52.0639,-27.15342 -0.35728,12.98124 -3.31478,23.12408 -6.90745,23.12408 -3.83086,0 -6.94715,-11.55212 -6.94715,-25.80369 0,-9.50767 1.38943,-17.7847 3.45373,-22.27057 -0.67487,-3.71176 -1.052,-7.52277 -1.052,-11.41317"
       id="path17927"
       style="opacity:0.75;fill:none;stroke:#ffffff;stroke-width:5.9547;stroke-miterlimit:10" />
    <path
       class="Linie_x0020_2"
       d="m 386.81636,210.88666 c -21.556,0 -40.57134,-10.7383 -52.0639,-27.15342 -0.35728,12.98124 -3.31478,23.12408 -6.90745,23.12408 -3.83086,0 -6.94715,-11.55212 -6.94715,-25.80369 0,-9.50767 1.38943,-17.7847 3.45373,-22.27057 -0.67487,-3.71176 -1.052,-7.52277 -1.052,-11.41317"
       id="path17930"
       style="opacity:0.45;fill:none;stroke:#ffffff;stroke-width:15.8792;stroke-miterlimit:10" />
    <path
       class="Linie_x0020_3"
       d="m 386.81636,210.88666 c -21.556,0 -40.57134,-10.7383 -52.0639,-27.15342 -0.35728,12.98124 -3.31478,23.12408 -6.90745,23.12408 -3.83086,0 -6.94715,-11.55212 -6.94715,-25.80369 0,-9.50767 1.38943,-17.7847 3.45373,-22.27057 -0.67487,-3.71176 -1.052,-7.52277 -1.052,-11.41317"
       id="path17933"
       style="opacity:0.45;fill:none;stroke:#ffffff;stroke-width:31.7584;stroke-miterlimit:10" />
    <path
       class="st1"
       d="m 334.75246,183.73324 c -0.35728,12.98124 -3.31478,23.12408 -6.90745,23.12408 -3.83086,0 -6.94715,-11.55212 -6.94715,-25.80369 0,-9.50767 1.38943,-17.7847 3.45373,-22.27057 -0.67487,-3.71176 -1.052,-7.52277 -1.052,-11.41317 h -63.51677 v 127.03354 h 127.03354 v -63.51677 c -21.556,0 -40.57134,-10.7383 -52.0639,-27.15342 z m 8.23733,42.59594 c -2.22309,0.33743 -5.04164,-6.0341 -6.33183,-14.27143 -1.27033,-8.21748 -0.51607,-15.18448 1.68717,-15.52191 2.22308,-0.33743 5.04164,6.03409 6.33182,14.27143 1.29019,8.23733 0.53593,15.18447 -1.68716,15.52191 z m 14.80735,8.51521 c -1.68717,0.53593 -4.64467,-4.08889 -6.64941,-10.32147 -1.9849,-6.23259 -2.24294,-11.73076 -0.55578,-12.26668 1.68717,-0.53592 4.66452,4.08889 6.64942,10.34133 1.98489,6.23258 2.22308,11.7109 0.55577,12.24682 z"
       id="path17936"
       style="fill:#95c11f;stroke:#95c11f;stroke-width:0.39698;stroke-miterlimit:10" />
    <path
       class="st2"
       d="m 294.63765,241.23577 c 0.0596,-0.33743 0.0992,-0.67487 0.0992,-1.03215 0,-3.07659 -2.48112,-5.55772 -5.55771,-5.55772 -2.44143,0 -4.48588,1.58792 -5.24014,3.77131 -0.8535,-0.57562 -1.9055,-0.91305 -3.01704,-0.91305 -2.97735,0 -5.37908,2.40173 -5.37908,5.37907 0,1.19094 0.39698,2.28264 1.052,3.17584 -0.55578,0.75426 -0.89321,1.68717 -0.89321,2.69947 0,2.54067 2.0643,4.60496 4.60497,4.60496 0.43667,0 0.8535,-0.0794 1.25048,-0.19849 0.85351,2.52082 3.21554,4.36678 6.01425,4.36678 3.35448,0 6.05394,-2.58037 6.33183,-5.8753 0.15879,0.0199 0.31758,0.0397 0.49622,0.0397 2.89795,0 5.24013,-2.34218 5.24013,-5.24014 0.0199,-2.81855 -2.20323,-5.10119 -5.00194,-5.22028 z"
       id="path17940"
       style="fill:#008d36;stroke:#000000;stroke-width:1.12524;stroke-miterlimit:10" />
    <path
       class="st2"
       d="m 296.26527,227.26208 c 0.0595,-0.33743 0.0992,-0.67487 0.0992,-1.03215 0,-3.07659 -2.48112,-5.55772 -5.55772,-5.55772 -2.44142,0 -4.48587,1.58792 -5.24013,3.77131 -0.85351,-0.57562 -1.9055,-0.91305 -3.01705,-0.91305 -2.97735,0 -5.37907,2.40173 -5.37907,5.37908 0,1.19093 0.39698,2.28263 1.05199,3.17583 -0.55577,0.75427 -0.8932,1.68717 -0.8932,2.69947 0,2.54067 2.06429,4.60496 4.60496,4.60496 0.43668,0 0.85351,-0.0794 1.25049,-0.19849 0.85351,2.52082 3.21554,4.36678 6.01424,4.36678 3.35448,0 6.05395,-2.58037 6.33183,-5.8753 0.15879,0.0199 0.31759,0.0397 0.49623,0.0397 2.89795,0 5.24013,-2.34218 5.24013,-5.24014 0.0199,-2.81855 -2.22309,-5.10119 -5.00194,-5.22028 z"
       id="path17942"
       style="fill:#008d36;stroke:#000000;stroke-width:1.12524;stroke-miterlimit:10" />
    <path
       class="st2"
       d="m 312.50174,232.44267 c 0.0596,-0.33744 0.0993,-0.67487 0.0993,-1.03215 0,-3.0766 -2.48113,-5.55772 -5.55772,-5.55772 -2.44143,0 -4.48587,1.58792 -5.24014,3.77131 -0.8535,-0.57562 -1.9055,-0.91305 -3.01704,-0.91305 -2.97735,0 -5.37908,2.40172 -5.37908,5.37907 0,1.19094 0.39698,2.28264 1.052,3.17584 -0.55577,0.75426 -0.89321,1.68716 -0.89321,2.69946 0,2.54067 2.0643,4.60497 4.60497,4.60497 0.43668,0 0.85351,-0.0794 1.25049,-0.19849 0.8535,2.52082 3.21553,4.36678 6.01424,4.36678 3.35448,0 6.05394,-2.58037 6.33183,-5.8753 0.15879,0.0198 0.31758,0.0397 0.49622,0.0397 2.89795,0 5.24014,-2.34218 5.24014,-5.24013 0.0198,-2.83841 -2.20324,-5.10119 -5.00195,-5.22028 z"
       id="path17944"
       style="fill:#008d36;stroke:#000000;stroke-width:1.12524;stroke-miterlimit:10" />
  </g>
  <g
     id="g17557"
     transform="matrix(1.983673,0,0,1.983673,94.285665,-180.12083)">
    <g
       id="Wasser"
       transform="translate(-47.26747,91.06506)">
      <rect
         x="0"
         class="st0"
         width="64"
         height="64"
         id="rect16191"
         style="fill:#009fe3"
         y="0" />
    </g>
    <g
       id="Linie_1"
       transform="translate(-47.26747,91.06506)">
      <path
         class="Linie_x0020_1"
         d="M 64,32 C 15.12,32 32,17.67 32,0"
         id="path16194"
         style="opacity:0.75;fill:none;stroke:#ffffff;stroke-width:3;stroke-miterlimit:10" />
      <path
         class="Linie_x0020_1"
         d="m 0,32 c 4.24,0 7.94,1.64 11.15,0.98 22.12,-4.6 30.81,-1.06 20.97,25.47 C 31.46,60.23 32,62.22 32,64"
         id="path16196"
         style="opacity:0.75;fill:none;stroke:#ffffff;stroke-width:3;stroke-miterlimit:10" />
    </g>
    <g
       id="Linie_2"
       transform="translate(-47.26747,91.06506)">
      <path
         class="Linie_x0020_2"
         d="M 64,32 C 15.12,32 32,17.67 32,0"
         id="path16199"
         style="opacity:0.45;fill:none;stroke:#ffffff;stroke-width:8;stroke-miterlimit:10" />
      <path
         class="Linie_x0020_2"
         d="m 0,32 c 4.24,0 7.94,1.64 11.15,0.98 22.12,-4.6 30.81,-1.06 20.97,25.47 C 31.46,60.23 32,62.22 32,64"
         id="path16201"
         style="opacity:0.45;fill:none;stroke:#ffffff;stroke-width:8;stroke-miterlimit:10" />
    </g>
    <g
       id="Linie_3"
       transform="translate(-47.26747,91.06506)">
      <path
         class="Linie_x0020_3"
         d="M 64,32 C 15.12,32 32,17.67 32,0"
         id="path16204"
         style="opacity:0.45;fill:none;stroke:#ffffff;stroke-width:16;stroke-miterlimit:10" />
      <path
         class="Linie_x0020_3"
         d="m 0,32 c 4.24,0 7.94,1.64 11.15,0.98 22.12,-4.6 30.81,-1.06 20.97,25.47 C 31.46,60.23 32,62.22 32,64"
         id="path16206"
         style="opacity:0.45;fill:none;stroke:#ffffff;stroke-width:16;stroke-miterlimit:10" />
    </g>
    <g
       id="Land"
       transform="translate(-47.26747,91.06506)">
      <path
         class="st1"
         d="M 32,0 H 0 v 64 0 -32 c 4.24,0 7.94,1.64 11.15,0.98 22.12,-4.6 30.81,-1.06 20.97,25.47 C 31.46,60.23 32,62.22 32,64 H 64 V 32 C 15.12,32 32,17.67 32,0 Z"
         id="path16209"
         style="fill:#95c11f;stroke:#95c11f;stroke-width:0.2;stroke-miterlimit:10" />
    </g>
    <g
       id="Utensilien"
       transform="translate(-47.26747,91.06506)" />
    <g
       id="Bäume"
       transform="translate(-47.26747,91.06506)">
      <path
         class="st2"
         d="m 17.81,8.14 c 0.03,-0.17 0.05,-0.34 0.05,-0.52 0,-1.55 -1.25,-2.8 -2.8,-2.8 -1.23,0 -2.26,0.8 -2.64,1.9 -0.43,-0.29 -0.96,-0.46 -1.52,-0.46 -1.5,0 -2.71,1.21 -2.71,2.71 0,0.6 0.2,1.15 0.53,1.6 -0.28,0.38 -0.45,0.85 -0.45,1.36 0,1.28 1.04,2.32 2.32,2.32 0.22,0 0.43,-0.04 0.63,-0.1 0.43,1.27 1.62,2.2 3.03,2.2 1.69,0 3.05,-1.3 3.19,-2.96 0.08,0.01 0.16,0.02 0.25,0.02 1.46,0 2.64,-1.18 2.64,-2.64 C 20.34,9.34 19.22,8.2 17.81,8.14 Z"
         id="path16213"
         style="fill:#008d36;stroke:#000000;stroke-width:0.5669;stroke-miterlimit:10" />
      <path
         class="st2"
         d="m 56.31,41.7 c 0.03,-0.17 0.05,-0.34 0.05,-0.52 0,-1.55 -1.25,-2.8 -2.8,-2.8 -1.23,0 -2.26,0.8 -2.64,1.9 -0.43,-0.29 -0.96,-0.46 -1.52,-0.46 -1.5,0 -2.71,1.21 -2.71,2.71 0,0.6 0.2,1.15 0.53,1.6 -0.28,0.38 -0.45,0.85 -0.45,1.36 0,1.28 1.04,2.32 2.32,2.32 0.22,0 0.43,-0.04 0.63,-0.1 0.43,1.27 1.62,2.2 3.03,2.2 1.69,0 3.05,-1.3 3.19,-2.96 0.08,0.01 0.16,0.02 0.25,0.02 1.46,0 2.64,-1.18 2.64,-2.64 0.01,-1.42 -1.11,-2.57 -2.52,-2.63 z"
         id="path16215"
         style="fill:#008d36;stroke:#000000;stroke-width:0.5669;stroke-miterlimit:10" />
      <path
         class="st2"
         d="m 50.01,48.76 c 0.03,-0.17 0.05,-0.34 0.05,-0.52 0,-1.55 -1.25,-2.8 -2.8,-2.8 -1.23,0 -2.26,0.8 -2.64,1.9 -0.43,-0.29 -0.96,-0.46 -1.52,-0.46 -1.5,0 -2.71,1.21 -2.71,2.71 0,0.6 0.2,1.15 0.53,1.6 -0.28,0.38 -0.45,0.85 -0.45,1.36 0,1.28 1.04,2.32 2.32,2.32 0.22,0 0.43,-0.04 0.63,-0.1 0.43,1.27 1.62,2.2 3.03,2.2 1.69,0 3.05,-1.3 3.19,-2.96 0.08,0.01 0.16,0.02 0.25,0.02 1.46,0 2.64,-1.18 2.64,-2.64 0.01,-1.43 -1.12,-2.57 -2.52,-2.63 z"
         id="path16217"
         style="fill:#008d36;stroke:#000000;stroke-width:0.5669;stroke-miterlimit:10" />
    </g>
  </g>
  <line
     style="fill: rgb(216, 216, 216); vector-effect: non-scaling-stroke; stroke: rgb(102, 102, 102); stroke-width: 2px;"
     x1="128"
     y1="-32"
     x2="128"
     y2="288"
     id="line8" />
  <line
     style="fill: rgb(216, 216, 216); vector-effect: non-scaling-stroke; stroke: rgb(102, 102, 102); stroke-width: 2px;"
     x1="128"
     y1="-32"
     x2="128"
     y2="288"
     transform="matrix(0, -1, 1, 0, 0, 256)"
     id="line10" />
</svg>
