<?xml version="1.0" encoding="UTF-8" standalone="no"?>
<!-- Created with Inkscape (http://www.inkscape.org/) -->

<svg
   width="23.182791mm"
   height="19.725216mm"
   viewBox="0 0 23.182791 19.725216"
   version="1.1"
   id="svg6851"
   inkscape:version="1.1.1 (3bf5ae0d25, 2021-09-20)"
   sodipodi:docname="2023-BE-01-inline-kiosk.svg"
   xmlns:inkscape="http://www.inkscape.org/namespaces/inkscape"
   xmlns:sodipodi="http://sodipodi.sourceforge.net/DTD/sodipodi-0.dtd"
   xmlns="http://www.w3.org/2000/svg"
   xmlns:svg="http://www.w3.org/2000/svg"
   xmlns:serif="http://www.serif.com/">
  <sodipodi:namedview
     id="namedview6853"
     pagecolor="#ffffff"
     bordercolor="#666666"
     borderopacity="1.0"
     inkscape:pageshadow="2"
     inkscape:pageopacity="0.0"
     inkscape:pagecheckerboard="0"
     inkscape:document-units="mm"
     showgrid="false"
     inkscape:zoom="0.72337262"
     inkscape:cx="181.78736"
     inkscape:cy="351.82421"
     inkscape:window-width="1920"
     inkscape:window-height="1001"
     inkscape:window-x="-9"
     inkscape:window-y="-9"
     inkscape:window-maximized="1"
     inkscape:current-layer="layer1" />
  <defs
     id="defs6848" />
  <g
     inkscape:label="Ebene 1"
     inkscape:groupmode="layer"
     id="layer1"
     transform="translate(-57.172151,-55.609066)">
    <g
       id="g849664"
       serif:id="g84966"
       transform="matrix(0.52916666,0,0,0.52916666,-12.101586,-70.390807)"
       style="clip-rule:evenodd;fill-rule:evenodd;stroke-linecap:round">
      <path
         id="path863-0-84"
         serif:id="path863-0-8"
         d="m 137.473,246.614 v 14.173 l 24.549,14.174 v -14.174 z"
         style="fill:#ffefbf;fill-rule:nonzero" />
      <path
         id="path684034"
         serif:id="path68403"
         d="m 137.473,260.787 -6.137,3.544 14.729,8.504 6.137,-3.544 z"
         style="fill:#c8b7b7;fill-rule:nonzero" />
      <path
         id="path71557-04"
         serif:id="path71557-0"
         d="m 137.473,246.614 v 14.173"
         style="fill:none;fill-rule:nonzero;stroke:#784421;stroke-width:0.85px;stroke-linejoin:round" />
      <path
         id="path865-3-44"
         serif:id="path865-3-4"
         d="m 174.296,253.701 -6.137,-0.709 -6.137,7.795 v 14.174 l 12.274,-7.087 z"
         style="fill:#bfb38f;fill-rule:nonzero" />
      <path
         id="path12928-3-3-5-14"
         serif:id="path12928-3-3-5-1"
         d="m 170.614,265.748 v -2.835 c 0,-1.417 -0.919,-2.025 -2.455,-1.417 -1.62,0.641 -2.455,2.835 -2.455,4.252 v 2.835 z"
         style="fill:#afdde9;fill-rule:nonzero;stroke:#784421;stroke-width:0.57px;stroke-linecap:butt" />
      <path
         id="path12928-3-3-54"
         serif:id="path12928-3-3-5"
         d="m 154.657,270.709 v -7.087 c 0,-1.417 0.919,-2.026 2.455,-1.417 1.62,0.641 2.455,2.834 2.455,4.252 v 7.086 z"
         style="fill:#a05a2c;fill-rule:nonzero" />
      <path
         id="path12928-3-3-5-34"
         serif:id="path12928-3-3-5-3"
         d="m 154.657,270.709 v -7.087 c 0,-1.417 0.919,-2.026 2.455,-1.417 1.62,0.641 2.455,2.834 2.455,4.252 v 7.086"
         style="fill:none;fill-rule:nonzero;stroke:#784421;stroke-width:0.85px" />
      <path
         id="path411264"
         serif:id="path41126"
         d="m 168.159,252.992 -6.137,7.795 -9.82,-5.669 -6.137,6.378 -14.729,-8.504 12.274,-14.173 z"
         style="fill:#bf3030;fill-rule:nonzero" />
      <path
         id="path44958-94"
         serif:id="path44958-9"
         d="M 131.336,264.331 V 252.992 L 143.61,238.819"
         style="fill:none;fill-rule:nonzero;stroke:#784421;stroke-width:0.85px;stroke-linejoin:round" />
      <path
         id="path431454"
         serif:id="path43145"
         d="m 174.296,253.701 -6.137,-0.709 -24.549,-14.173 6.137,0.709 z"
         style="fill:#802020;fill-rule:nonzero" />
      <path
         id="path449584"
         serif:id="path44958"
         d="m 162.022,274.961 v -14.174 l 6.137,-7.795 6.137,0.709 v 14.173"
         style="fill:none;fill-rule:nonzero;stroke:#784421;stroke-width:0.85px;stroke-linejoin:round" />
      <path
         id="path451254"
         serif:id="path45125"
         d="m 162.022,260.787 12.274,-7.086"
         style="fill:none;fill-rule:nonzero;stroke:#784421;stroke-width:0.75px;stroke-linecap:butt" />
      <path
         id="path467534"
         serif:id="path46753"
         d="m 168.159,252.992 v 4.252"
         style="fill:none;fill-rule:nonzero;stroke:#784421;stroke-width:0.75px;stroke-linecap:butt" />
      <path
         id="path486214"
         serif:id="path48621"
         d="m 143.61,238.819 24.549,14.173"
         style="fill:none;fill-rule:nonzero;stroke:#784421;stroke-width:1.13px;stroke-linejoin:round" />
      <path
         id="path508354"
         serif:id="path50835"
         d="m 162.022,265.039 3.682,-6.378"
         style="fill:none;fill-rule:nonzero;stroke:#784421;stroke-width:0.85px;stroke-linecap:butt" />
      <path
         id="path530584"
         serif:id="path53058"
         d="m 170.614,255.827 3.682,2.126"
         style="fill:none;fill-rule:nonzero;stroke:#784421;stroke-width:0.85px;stroke-linecap:butt" />
      <path
         id="path604664"
         serif:id="path60466"
         d="m 168.159,261.496 v 5.669"
         style="fill:none;fill-rule:nonzero;stroke:#784421;stroke-width:0.43px;stroke-linecap:butt" />
      <path
         id="path60466-44"
         serif:id="path60466-4"
         d="m 170.614,262.913 -4.91,2.835"
         style="fill:none;fill-rule:nonzero;stroke:#784421;stroke-width:0.43px;stroke-linecap:butt" />
      <path
         id="path631284"
         serif:id="path63128"
         d="m 131.336,252.992 14.729,8.504 v 11.339"
         style="fill:none;fill-rule:nonzero;stroke:#784421;stroke-width:0.85px" />
      <path
         id="path63128-24"
         serif:id="path63128-2"
         d="m 138.7,257.244 v 11.339"
         style="fill:none;fill-rule:nonzero;stroke:#784421;stroke-width:0.85px" />
      <path
         id="path685044"
         serif:id="path68504"
         d="m 162.022,260.787 -9.82,-5.669 -6.137,6.378"
         style="fill:none;fill-rule:nonzero;stroke:#784421;stroke-width:0.85px;stroke-linejoin:round" />
      <path
         id="path715574"
         serif:id="path71557"
         d="m 152.202,255.118 v 14.173"
         style="fill:none;fill-rule:nonzero;stroke:#784421;stroke-width:0.85px;stroke-linejoin:round" />
      <path
         id="path764814"
         serif:id="path76481"
         d="m 143.61,247.323 3.683,2.126 v -7.087 l -3.683,-2.126 z"
         style="fill:#ffefbf;fill-rule:nonzero" />
      <path
         id="path764834"
         serif:id="path76483"
         d="m 147.293,249.449 3.682,-4.052 v -5.161 l -3.682,2.126 v 7.087"
         style="fill:#bfb38f;fill-rule:nonzero" />
      <path
         id="path803054"
         serif:id="path80305"
         d="m 143.61,240.236 3.683,-2.126 3.682,2.126 -3.682,2.126 z"
         style="fill:#80775f;fill-rule:nonzero" />
      <path
         id="path80305-64"
         serif:id="path80305-6"
         d="m 144.838,240.236 2.455,-1.417 v 2.835 z"
         style="fill:#bfb28e;fill-rule:nonzero" />
      <path
         id="path80305-6-84"
         serif:id="path80305-6-8"
         d="m 149.759,240.198 -2.455,-1.417 v 2.835 z"
         style="fill:#ffefbf;fill-rule:nonzero" />
    </g>
  </g>
</svg>
