<?xml version="1.0" encoding="UTF-8" standalone="no"?>
<!-- Created with Inkscape (http://www.inkscape.org/) -->

<svg
   width="14.374558mm"
   height="21.152184mm"
   viewBox="0 0 14.374559 21.152184"
   version="1.1"
   id="svg6851"
   inkscape:version="1.1.1 (3bf5ae0d25, 2021-09-20)"
   sodipodi:docname="2023-BE-01-inline-markt.svg"
   xmlns:inkscape="http://www.inkscape.org/namespaces/inkscape"
   xmlns:sodipodi="http://sodipodi.sourceforge.net/DTD/sodipodi-0.dtd"
   xmlns="http://www.w3.org/2000/svg"
   xmlns:svg="http://www.w3.org/2000/svg"
   xmlns:serif="http://www.serif.com/">
  <sodipodi:namedview
     id="namedview6853"
     pagecolor="#ffffff"
     bordercolor="#666666"
     borderopacity="1.0"
     inkscape:pageshadow="2"
     inkscape:pageopacity="0.0"
     inkscape:pagecheckerboard="0"
     inkscape:document-units="mm"
     showgrid="false"
     inkscape:zoom="0.72337262"
     inkscape:cx="434.76902"
     inkscape:cy="132.02048"
     inkscape:window-width="1920"
     inkscape:window-height="1001"
     inkscape:window-x="-9"
     inkscape:window-y="-9"
     inkscape:window-maximized="1"
     inkscape:current-layer="layer1" />
  <defs
     id="defs6848" />
  <g
     inkscape:label="Ebene 1"
     inkscape:groupmode="layer"
     id="layer1"
     transform="translate(9.6345864,-113.79652)">
    <g
       id="g210355"
       serif:id="g21035"
       transform="matrix(0.44217166,0,0,0.44533343,-88.398182,4.505645)"
       style="clip-rule:evenodd;fill-rule:evenodd;stroke-linecap:round">
      <path
         id="path398315"
         serif:id="path39831"
         d="M 178.594,284.982 V 274.41 l 1.526,0.881 12.207,14.096 v 3.524 z"
         style="fill:#803300;fill-rule:nonzero" />
      <path
         id="path398335"
         serif:id="path39833"
         d="m 192.327,292.911 18.311,-10.572 v -3.524 l -18.311,10.572 z"
         style="fill:#993d00;fill-rule:nonzero" />
      <path
         id="path40366-75"
         serif:id="path40366-7"
         d="m 196.905,276.172 v -29.953 l -18.311,10.572 v 28.191"
         style="fill:none;fill-rule:nonzero;stroke:#803300;stroke-width:0.93px" />
      <path
         id="path399945"
         serif:id="path39994"
         d="m 180.12,275.291 18.311,-10.571 12.207,14.095 -18.311,10.572 -12.207,-14.096"
         style="fill:#662900;fill-rule:nonzero" />
      <path
         id="path407385"
         serif:id="path40738"
         d="m 181.842,275.67 3.624,-2.092 4.833,5.58 -3.625,2.093 z"
         style="fill:#ff7041;fill-rule:nonzero" />
      <path
         id="path40738-15"
         serif:id="path40738-1"
         d="m 186.162,273.174 3.625,-2.092 4.832,5.58 -3.624,2.093 z"
         style="fill:#ffcd40;fill-rule:nonzero" />
      <path
         id="path40738-75"
         serif:id="path40738-7"
         d="m 190.482,270.678 3.625,-2.093 4.833,5.581 -3.625,2.093 z"
         style="fill:#401a00;fill-rule:nonzero" />
      <path
         id="path40738-1-95"
         serif:id="path40738-1-9"
         d="m 194.803,268.182 3.624,-2.093 4.833,5.581 -3.624,2.092 z"
         style="fill:#30bf37;fill-rule:nonzero" />
      <path
         id="path40738-25"
         serif:id="path40738-2"
         d="m 187.397,281.956 3.625,-2.093 4.833,5.581 -3.625,2.092 z"
         style="fill:#ff9f80;fill-rule:nonzero" />
      <path
         id="path40738-1-65"
         serif:id="path40738-1-6"
         d="m 191.718,279.46 3.624,-2.093 4.833,5.581 -3.625,2.092 z"
         style="fill:#30bf37;fill-rule:nonzero" />
      <path
         id="path40738-7-15"
         serif:id="path40738-7-1"
         d="m 196.038,276.964 3.624,-2.093 4.833,5.58 -3.624,2.093 z"
         style="fill:#ffdd80;fill-rule:nonzero" />
      <path
         id="path40738-1-9-85"
         serif:id="path40738-1-9-8"
         d="m 200.358,274.468 3.625,-2.093 4.833,5.58 -3.625,2.093 z"
         style="fill:#ffcd40;fill-rule:nonzero" />
      <path
         id="path19035"
         serif:id="path1903"
         d="m 178.594,274.41 1.526,0.881 18.311,-10.571 -1.526,-0.881 -18.311,10.571"
         style="fill:#662900;fill-rule:nonzero" />
      <path
         id="path8915"
         serif:id="path891"
         d="m 178.526,257.247 9.155,7.048 18.311,-10.572 -9.155,-7.048 -18.311,10.572"
         style="fill:#e50000;fill-rule:nonzero" />
      <path
         id="path12715"
         serif:id="path1271"
         d="m 181.578,255.485 9.155,7.048 3.052,-1.762 -9.156,-7.048 -3.051,1.762"
         style="fill:#cccc33;fill-rule:nonzero" />
      <path
         id="path1271-35"
         serif:id="path1271-3"
         d="m 187.681,251.961 9.156,7.048 3.051,-1.762 -9.155,-7.048 -3.052,1.762"
         style="fill:#cccc33;fill-rule:nonzero" />
      <path
         id="path1271-3-65"
         serif:id="path1271-3-6"
         d="m 193.785,248.437 9.155,7.048 3.052,-1.762 -9.155,-7.048 -3.052,1.762"
         style="fill:#cccc33;fill-rule:nonzero" />
      <path
         id="path55735"
         serif:id="path5573"
         d="m 187.689,264.294 c -0.012,0.891 0.221,1.639 1.526,0.881 1.305,-0.758 1.511,-1.667 1.526,-2.643 z"
         style="fill:#ff0000;fill-rule:nonzero" />
      <path
         id="path5573-75"
         serif:id="path5573-7"
         d="m 190.733,262.533 c -0.012,0.891 0.221,1.638 1.526,0.881 1.305,-0.758 1.511,-1.667 1.526,-2.643 z"
         style="fill:#e5e500;fill-rule:nonzero" />
      <path
         id="path5573-55"
         serif:id="path5573-5"
         d="m 193.793,260.77 c -0.012,0.892 0.221,1.639 1.526,0.881 1.305,-0.757 1.51,-1.667 1.526,-2.643 z"
         style="fill:#ff0000;fill-rule:nonzero" />
      <path
         id="path5573-7-35"
         serif:id="path5573-7-3"
         d="m 196.837,259.009 c -0.012,0.891 0.22,1.638 1.525,0.881 1.306,-0.758 1.511,-1.667 1.526,-2.643 z"
         style="fill:#e5e500;fill-rule:nonzero" />
      <path
         id="path5573-565"
         serif:id="path5573-56"
         d="m 199.896,257.246 c -0.011,0.892 0.221,1.639 1.526,0.881 1.305,-0.757 1.511,-1.666 1.526,-2.643 z"
         style="fill:#ff0000;fill-rule:nonzero" />
      <path
         id="path5573-7-25"
         serif:id="path5573-7-2"
         d="m 202.94,255.485 c -0.012,0.891 0.221,1.638 1.526,0.881 1.305,-0.758 1.511,-1.667 1.526,-2.643 z"
         style="fill:#e5e500;fill-rule:nonzero" />
    </g>
  </g>
</svg>
