<?xml version="1.0" encoding="UTF-8" standalone="no"?>
<!-- Created with Inkscape (http://www.inkscape.org/) -->

<svg
   width="125.7397mm"
   height="126.80863mm"
   viewBox="0 0 125.7397 126.80863"
   version="1.1"
   id="svg2082"
   sodipodi:docname="graph1-abstract-compatible.svg"
   inkscape:version="1.1.1 (3bf5ae0d25, 2021-09-20)"
   xmlns:inkscape="http://www.inkscape.org/namespaces/inkscape"
   xmlns:sodipodi="http://sodipodi.sourceforge.net/DTD/sodipodi-0.dtd"
   xmlns="http://www.w3.org/2000/svg"
   xmlns:svg="http://www.w3.org/2000/svg">
  <sodipodi:namedview
     id="namedview22725"
     pagecolor="#ffffff"
     bordercolor="#000000"
     borderopacity="0.25"
     inkscape:showpageshadow="2"
     inkscape:pageopacity="0.0"
     inkscape:pagecheckerboard="0"
     inkscape:deskcolor="#d1d1d1"
     inkscape:document-units="mm"
     showgrid="false"
     inkscape:zoom="1.1893044"
     inkscape:cx="118.97711"
     inkscape:cy="182.03918"
     inkscape:window-width="2048"
     inkscape:window-height="1017"
     inkscape:window-x="-8"
     inkscape:window-y="-8"
     inkscape:window-maximized="1"
     inkscape:current-layer="svg2082"
     inkscape:pageshadow="2"
     fit-margin-top="5"
     lock-margins="true"
     fit-margin-left="5"
     fit-margin-right="5"
     fit-margin-bottom="5"
     showguides="true" />
  <defs
     id="defs2079">
    <rect
       x="289.9061"
       y="542.09064"
       width="167.07532"
       height="102.8103"
       id="rect13036" />
  </defs>
  <circle
     style="fill:#ffffff;fill-opacity:1;stroke:#000000;stroke-width:1.265;stroke-dasharray:none;stroke-opacity:1"
     id="path2140-3"
     cx="63.946346"
     cy="15.252038"
     r="5.9777541" />
  <circle
     style="fill:none;fill-opacity:1;stroke:#ffa52d;stroke-width:1.12923186px;stroke-dasharray:none;stroke-opacity:1;font-variation-settings:normal;opacity:1;vector-effect:none;stroke-linecap:butt;stroke-linejoin:round;stroke-miterlimit:1.5;stroke-dashoffset:0;-inkscape-stroke:none;stop-color:#000000;stop-opacity:1"
     id="path2140-3-2"
     cx="114.12944"
     cy="15.252038"
     r="5.9777541" />
  <circle
     style="fill:#ffffff;fill-opacity:1;stroke:#000000;stroke-width:1.265;stroke-dasharray:none;stroke-opacity:1"
     id="path2140-0"
     cx="13.763248"
     cy="65.225204"
     r="5.9777541" />
  <circle
     style="fill:#ffffff;fill-opacity:1;stroke:#000000;stroke-width:1.265;stroke-dasharray:none;stroke-opacity:1"
     id="path2140-3-1"
     cx="63.946346"
     cy="65.225204"
     r="5.9777541" />
  <circle
     style="fill:#ffffff;fill-opacity:1;stroke:#000000;stroke-width:1.265;stroke-dasharray:none;stroke-opacity:1"
     id="path2140-3-2-7"
     cx="114.12944"
     cy="65.225204"
     r="5.9777541" />
  <circle
     style="fill:none;fill-opacity:1;stroke:#ffa52d;stroke-width:1.12923186px;stroke-dasharray:none;stroke-opacity:1;font-variation-settings:normal;opacity:1;vector-effect:none;stroke-linecap:butt;stroke-linejoin:round;stroke-miterlimit:1.5;stroke-dashoffset:0;-inkscape-stroke:none;stop-color:#000000;stop-opacity:1"
     id="path2140-7"
     cx="13.76325"
     cy="115.19837"
     r="5.9777541" />
  <circle
     style="fill:#008000;fill-opacity:1.0;stroke:#000000;stroke-width:1.265;stroke-dasharray:none;stroke-opacity:1"
     id="path2140-3-4"
     cx="63.946346"
     cy="115.19837"
     r="5.9777541" />
  <path
     style="fill:#ffffff;fill-opacity:1;stroke:#000000;stroke-width:1.265;stroke-dasharray:none;stroke-opacity:1"
     d="M 13.763249,26.637677 V 53.839569"
     id="path5446" />
  <path
     style="fill:#ffffff;fill-opacity:1;stroke:#000000;stroke-width:1.265;stroke-dasharray:none;stroke-opacity:1"
     d="M 52.455742,15.252038 H 25.25385"
     id="path5446-47" />
  <path
     style="fill:#ffffff;fill-opacity:1;stroke:#000000;stroke-width:1.265;stroke-dasharray:none;stroke-opacity:1"
     d="M 102.63883,15.252038 H 75.436947"
     id="path5446-47-5" />
  <path
     style="fill:#ffffff;fill-opacity:1;stroke:#000000;stroke-width:1.265;stroke-dasharray:none;stroke-opacity:1"
     d="M 51.690643,65.225207 H 24.488747"
     id="path5446-47-9" />
  <path
     style="fill:#ffffff;fill-opacity:1;stroke:#000000;stroke-width:1.265;stroke-dasharray:none;stroke-opacity:1"
     d="M 102.63883,65.225207 H 75.436945"
     id="path5446-47-4" />
  <path
     style="fill:#ffffff;fill-opacity:1;stroke:#000000;stroke-width:1.265;stroke-dasharray:none;stroke-opacity:1"
     d="M 51.690635,114.82057 H 24.488747"
     id="path5446-47-97" />
  <path
     style="fill:#ffffff;fill-opacity:1;stroke:#000000;stroke-width:1.265;stroke-dasharray:none;stroke-opacity:1"
     d="M 53.401186,75.940171 24.308405,104.48342"
     id="path5446-47-97-0" />
  <path
     style="fill:#ffffff;fill-opacity:1;stroke:#000000;stroke-width:1.265;stroke-dasharray:none;stroke-opacity:1"
     d="M 103.58428,25.966997 74.4915,54.510249"
     id="path5446-47-97-0-0" />
  <path
     style="fill:#ffffff;fill-opacity:1;stroke:#000000;stroke-width:1.265;stroke-dasharray:none;stroke-opacity:1"
     d="M 103.58428,75.940169 74.491499,104.48342"
     id="path5446-47-97-0-8" />
  <path
     style="fill:#ffffff;fill-opacity:1;stroke:#000000;stroke-width:1.265;stroke-dasharray:none;stroke-opacity:1"
     d="M 63.946344,26.637677 V 53.839569"
     id="path5446-3" />
  <path
     style="fill:#ffffff;fill-opacity:1;stroke:#000000;stroke-width:1.265;stroke-dasharray:none;stroke-opacity:1"
     d="M 114.12944,26.637677 V 53.839569"
     id="path5446-0" />
  <path
     style="fill:#ffffff;fill-opacity:1;stroke:#000000;stroke-width:1.265;stroke-dasharray:none;stroke-opacity:1"
     d="M 13.763249,76.610846 V 103.81274"
     id="path5446-5" />
  <path
     style="fill:#ffffff;fill-opacity:1;stroke:#000000;stroke-width:1.265;stroke-dasharray:none;stroke-opacity:1"
     d="M 63.946344,76.610847 V 103.81274"
     id="path5446-4" />
  <g
     aria-label="9"
     id="text13042"
     style="font-size:8.46667px;-inkscape-font-specification:'sans-serif, Normal';text-align:center;text-anchor:middle;fill:#ffffff;stroke-width:1.265">
    <path
       d="m 37.1043,11.155699 v -0.760678 q 0.314193,0.148829 0.636654,0.227377 0.322461,0.07855 0.632519,0.07855 0.826824,0 1.260906,-0.553972 0.438216,-0.5581053 0.500228,-1.6908531 -0.239779,0.355534 -0.607715,0.5457033 -0.367937,0.1901694 -0.814421,0.1901694 -0.926042,0 -1.467611,-0.5581057 -0.537435,-0.5622398 -0.537435,-1.5337571 0,-0.9508468 0.562239,-1.5254889 0.56224,-0.5746422 1.49655,-0.5746422 1.070737,0 1.632976,0.8226892 0.566374,0.818555 0.566374,2.3812509 0,1.459343 -0.694531,2.3316412 -0.690398,0.868165 -1.860353,0.868165 -0.314192,0 -0.636653,-0.06201 -0.322462,-0.06201 -0.669727,-0.186035 z m 1.661914,-2.6168958 q 0.56224,0 0.888835,-0.3844728 0.33073,-0.3844728 0.33073,-1.0541996 0,-0.6655927 -0.33073,-1.0500656 -0.326595,-0.3886069 -0.888835,-0.3886069 -0.562239,0 -0.892969,0.3886069 -0.326595,0.3844729 -0.326595,1.0500656 0,0.6697268 0.326595,1.0541996 0.33073,0.3844728 0.892969,0.3844728 z"
       style="fill:#000000"
       id="path1114" />
  </g>
  <g
     aria-label="3"
     id="text13046"
     style="font-size:8.46667px;-inkscape-font-specification:'sans-serif, Normal';text-align:center;text-anchor:middle;stroke-width:1.265">
    <path
       d="m 7.9712718,41.444558 q 0.5994469,0.128158 0.9343103,0.533301 0.3389975,0.405144 0.3389975,1.000457 0,0.913639 -0.6283856,1.413867 -0.6283857,0.500228 -1.7859382,0.500228 -0.388607,0 -0.8020186,-0.07855 -0.4092775,-0.07441 -0.8474938,-0.227376 v -0.806153 q 0.3472658,0.202572 0.7606774,0.305925 0.4134116,0.103353 0.8640303,0.103353 0.785482,0 1.1947596,-0.310059 0.4134116,-0.310059 0.4134116,-0.901237 0,-0.545704 -0.3844728,-0.851628 Q 7.6488108,41.816629 6.9666816,41.816629 H 6.2473454 v -0.686263 h 0.7524091 q 0.6159833,0 0.9425785,-0.243913 0.3265952,-0.248047 0.3265952,-0.711068 0,-0.475424 -0.3389975,-0.727605 -0.3348634,-0.256315 -0.9632491,-0.256315 -0.3431316,0 -0.7358727,0.07441 -0.392741,0.07441 -0.8640303,0.231511 v -0.744141 q 0.4754234,-0.132292 0.888835,-0.198438 0.4175457,-0.06615 0.7854821,-0.06615 0.9508467,0 1.5048183,0.434083 0.5539716,0.429948 0.5539716,1.16582 0,0.512631 -0.2935223,0.868165 -0.2935222,0.3514 -0.8350915,0.487825 z"
       id="path1117" />
  </g>
  <g
     aria-label="3"
     id="text13046-8"
     style="font-size:8.46667px;-inkscape-font-specification:'sans-serif, Normal';text-align:center;text-anchor:middle;stroke-width:1.265">
    <path
       d="m 109.39581,41.444558 q 0.59944,0.128158 0.93431,0.533301 0.33899,0.405144 0.33899,1.000457 0,0.913639 -0.62838,1.413867 -0.62839,0.500228 -1.78594,0.500228 -0.38861,0 -0.80202,-0.07855 -0.40928,-0.07441 -0.84749,-0.227376 v -0.806153 q 0.34726,0.202572 0.76068,0.305925 0.41341,0.103353 0.86403,0.103353 0.78548,0 1.19475,-0.310059 0.41342,-0.310059 0.41342,-0.901237 0,-0.545704 -0.38448,-0.851628 -0.38033,-0.310059 -1.06246,-0.310059 h -0.71934 v -0.686263 h 0.75241 q 0.61598,0 0.94258,-0.243913 0.32659,-0.248047 0.32659,-0.711068 0,-0.475424 -0.33899,-0.727605 -0.33487,-0.256315 -0.96325,-0.256315 -0.34314,0 -0.73588,0.07441 -0.39274,0.07441 -0.86403,0.231511 v -0.744141 q 0.47543,-0.132292 0.88884,-0.198438 0.41754,-0.06615 0.78548,-0.06615 0.95085,0 1.50482,0.434083 0.55397,0.429948 0.55397,1.16582 0,0.512631 -0.29352,0.868165 -0.29352,0.3514 -0.83509,0.487825 z"
       id="path1120" />
  </g>
  <g
     aria-label="7"
     id="text13776"
     style="font-size:8.46667px;-inkscape-font-specification:'sans-serif, Normal';text-align:center;text-anchor:middle;stroke-width:1.265">
    <path
       d="m 87.127948,5.1116209 h 3.968751 v 0.355534 L 88.856008,11.283856 H 87.98371 l 2.108399,-5.4694354 h -2.964161 z"
       id="path1123" />
  </g>
  <g
     aria-label="6"
     id="text13780"
     style="font-size:8.46667px;-inkscape-font-specification:'sans-serif, Normal';text-align:center;text-anchor:middle;stroke-width:1.265">
    <path
       d="m 57.386579,41.353608 q -0.562239,0 -0.892969,0.384473 -0.326595,0.384472 -0.326595,1.054199 0,0.665593 0.326595,1.0542 0.33073,0.384473 0.892969,0.384473 0.56224,0 0.888835,-0.384473 0.33073,-0.388607 0.33073,-1.0542 0,-0.669727 -0.33073,-1.054199 -0.326595,-0.384473 -0.888835,-0.384473 z m 1.657781,-2.616896 v 0.760678 q -0.314193,-0.148829 -0.636654,-0.227377 -0.318327,-0.07855 -0.63252,-0.07855 -0.826823,0 -1.265039,0.558106 -0.434082,0.558105 -0.496094,1.686719 0.243913,-0.359668 0.611849,-0.549837 0.367936,-0.194304 0.810287,-0.194304 0.930176,0 1.467611,0.566374 0.541569,0.56224 0.541569,1.533757 0,0.950847 -0.562239,1.525489 -0.56224,0.574642 -1.496551,0.574642 -1.070736,0 -1.63711,-0.818555 -0.566374,-0.822689 -0.566374,-2.381251 0,-1.463477 0.694532,-2.331641 0.694532,-0.872299 1.864486,-0.872299 0.314193,0 0.63252,0.06201 0.322461,0.06201 0.669727,0.186035 z"
       id="path1126" />
  </g>
  <g
     aria-label="6"
     id="text13780-1"
     style="font-size:8.46667px;-inkscape-font-specification:'sans-serif, Normal';text-align:center;text-anchor:middle;stroke-width:1.265">
    <path
       d="m 85.045545,85.909714 q -0.562239,0 -0.892969,0.384473 -0.326595,0.384473 -0.326595,1.0542 0,0.665593 0.326595,1.0542 0.33073,0.384472 0.892969,0.384472 0.56224,0 0.888835,-0.384472 0.33073,-0.388607 0.33073,-1.0542 0,-0.669727 -0.33073,-1.0542 -0.326595,-0.384473 -0.888835,-0.384473 z m 1.657781,-2.616895 v 0.760677 q -0.314193,-0.148828 -0.636654,-0.227376 -0.318327,-0.07855 -0.63252,-0.07855 -0.826823,0 -1.265039,0.558105 -0.434082,0.558106 -0.496094,1.68672 0.243913,-0.359668 0.611849,-0.549838 0.367936,-0.194303 0.810287,-0.194303 0.930176,0 1.467611,0.566374 0.541569,0.56224 0.541569,1.533757 0,0.950847 -0.562239,1.525489 -0.56224,0.574642 -1.496551,0.574642 -1.070736,0 -1.63711,-0.818555 -0.566373,-0.822689 -0.566373,-2.381251 0,-1.463477 0.694531,-2.331642 0.694532,-0.872298 1.864486,-0.872298 0.314193,0 0.63252,0.06201 0.322461,0.06201 0.669727,0.186035 z"
       id="path1129" />
  </g>
  <g
     aria-label="6"
     id="text13780-1-3"
     style="font-size:8.46667px;-inkscape-font-specification:'sans-serif, Normal';text-align:center;text-anchor:middle;stroke-width:1.265">
    <path
       d="m 7.203484,89.699815 q -0.5622398,0 -0.8929691,0.384472 -0.3265952,0.384473 -0.3265952,1.0542 0,0.665593 0.3265952,1.0542 0.3307293,0.384472 0.8929691,0.384472 0.5622398,0 0.888835,-0.384472 0.3307293,-0.388607 0.3307293,-1.0542 0,-0.669727 -0.3307293,-1.0542 -0.3265952,-0.384472 -0.888835,-0.384472 z m 1.6577806,-2.616896 v 0.760677 Q 8.5470717,87.694768 8.2246107,87.61622 7.9062837,87.53767 7.5920909,87.53767 q -0.8268232,0 -1.2650396,0.558105 -0.4340822,0.558106 -0.4960939,1.68672 0.2439128,-0.359668 0.6118492,-0.549838 0.3679363,-0.194303 0.8102868,-0.194303 0.9301761,0 1.4676112,0.566374 0.5415693,0.56224 0.5415693,1.533757 0,0.950847 -0.5622399,1.525489 -0.5622398,0.574642 -1.49655,0.574642 -1.0707361,0 -1.6371101,-0.818555 Q 5,91.597374 5,90.038812 5,88.575335 5.6945315,87.70717 6.3890631,86.834872 7.559018,86.834872 q 0.3141928,0 0.6325198,0.06201 0.322461,0.06201 0.6697268,0.186035 z"
       id="path1132" />
  </g>
  <g
     aria-label="8"
     id="text13784"
     style="font-size:8.46667px;-inkscape-font-specification:'sans-serif, Normal';text-align:center;text-anchor:middle;stroke-width:1.265">
    <path
       d="m 85.528512,35.641761 q -0.595313,0 -0.938445,0.318327 -0.338997,0.318327 -0.338997,0.876432 0,0.558106 0.338997,0.876433 0.343132,0.318327 0.938445,0.318327 0.595312,0 0.938444,-0.318327 0.343132,-0.322461 0.343132,-0.876433 0,-0.558105 -0.343132,-0.876432 -0.338998,-0.318327 -0.938444,-0.318327 z M 84.69342,35.286227 q -0.537435,-0.132292 -0.839226,-0.500228 -0.297656,-0.367937 -0.297656,-0.897103 0,-0.740007 0.525033,-1.169955 0.529167,-0.429948 1.446941,-0.429948 0.921907,0 1.44694,0.429948 0.525033,0.429948 0.525033,1.169955 0,0.529166 -0.30179,0.897103 -0.297657,0.367936 -0.830958,0.500228 0.603581,0.14056 0.938445,0.549837 0.338997,0.409278 0.338997,1.000456 0,0.897104 -0.549837,1.376661 -0.545704,0.479558 -1.56683,0.479558 -1.021127,0 -1.570965,-0.479558 -0.545703,-0.479557 -0.545703,-1.376661 0,-0.591178 0.338998,-1.000456 0.338997,-0.409277 0.942578,-0.549837 z m -0.305925,-1.318783 q 0,0.479557 0.297657,0.748275 0.30179,0.268717 0.84336,0.268717 0.537435,0 0.839225,-0.268717 0.305925,-0.268718 0.305925,-0.748275 0,-0.479558 -0.305925,-0.748275 -0.30179,-0.268718 -0.839225,-0.268718 -0.54157,0 -0.84336,0.268718 -0.297657,0.268717 -0.297657,0.748275 z"
       id="path1135" />
  </g>
  <g
     aria-label="4"
     id="text13788"
     style="font-size:8.46667px;-inkscape-font-specification:'sans-serif, Normal';text-align:center;text-anchor:middle;stroke-width:1.265">
    <path
       d="m 39.742231,57.521353 -2.108399,3.294891 h 2.108399 z m -0.219108,-0.727604 h 1.050065 v 4.022495 h 0.880567 v 0.694531 h -0.880567 v 1.455209 h -0.830957 v -1.455209 h -2.786394 v -0.806152 z"
       id="path1092" />
  </g>
  <g
     aria-label="4"
     id="text13788-00"
     style="font-size:8.46667px;-inkscape-font-specification:'sans-serif, Normal';text-align:center;text-anchor:middle;stroke-width:1.265">
    <path
       d="m 39.654455,107.25929 -2.1084,3.29489 h 2.1084 z m -0.219108,-0.72761 h 1.050065 v 4.0225 h 0.880567 v 0.69453 h -0.880567 v 1.45521 h -0.830957 v -1.45521 H 36.86806 v -0.80615 z"
       id="path1138" />
  </g>
  <g
     aria-label="4"
     id="text13788-0"
     style="font-size:8.46667px;-inkscape-font-specification:'sans-serif, Normal';text-align:center;text-anchor:middle;stroke-width:1.265">
    <path
       d="m 90.323255,57.521353 -2.108399,3.294891 h 2.108399 z m -0.219108,-0.727604 h 1.050065 v 4.022495 h 0.880567 v 0.694531 h -0.880567 v 1.455209 h -0.830957 v -1.455209 h -2.786394 v -0.806152 z"
       id="path1141" />
  </g>
  <g
     aria-label="10"
     id="text14518"
     style="font-size:8.46667px;-inkscape-font-specification:'sans-serif, Normal';text-align:center;text-anchor:middle;stroke-width:1.265">
    <path
       d="m 28.792527,87.76138 h 1.364259 v -4.708758 l -1.484148,0.297656 v -0.760677 l 1.475879,-0.297657 h 0.835092 v 5.469436 h 1.364258 v 0.7028 h -3.55534 z"
       id="path1144" />
    <path
       d="m 35.820525,82.841782 q -0.644922,0 -0.971517,0.636654 -0.322461,0.63252 -0.322461,1.905827 0,1.269174 0.322461,1.905828 0.326595,0.63252 0.971517,0.63252 0.649056,0 0.971517,-0.63252 0.326596,-0.636654 0.326596,-1.905828 0,-1.273307 -0.326596,-1.905827 -0.322461,-0.636654 -0.971517,-0.636654 z m 0,-0.661459 q 1.037663,0 1.583367,0.822689 0.549837,0.818555 0.549837,2.381251 0,1.558562 -0.549837,2.381251 -0.545704,0.818555 -1.583367,0.818555 -1.037663,0 -1.587501,-0.818555 -0.545703,-0.822689 -0.545703,-2.381251 0,-1.562696 0.545703,-2.381251 0.549838,-0.822689 1.587501,-0.822689 z"
       id="path1146" />
  </g>
  <g
     aria-label="5"
     id="text14522"
     style="font-size:8.46667px;-inkscape-font-specification:'sans-serif, Normal';text-align:center;text-anchor:middle;stroke-width:1.265">
    <path
       d="m 56.76116,88.446455 h 3.278355 v 0.7028 h -2.513543 v 1.513086 q 0.181901,-0.06201 0.363802,-0.09095 0.181901,-0.03307 0.363802,-0.03307 1.033529,0 1.63711,0.566374 0.603581,0.566374 0.603581,1.533757 0,0.996322 -0.620117,1.550293 -0.620118,0.549838 -1.748731,0.549838 -0.388607,0 -0.793751,-0.06615 -0.401009,-0.06615 -0.830957,-0.198438 V 93.63477 q 0.37207,0.202572 0.768946,0.30179 0.396875,0.09922 0.839225,0.09922 0.715202,0 1.132748,-0.376204 0.417546,-0.376205 0.417546,-1.021127 0,-0.644922 -0.417546,-1.021127 -0.417546,-0.376204 -1.132748,-0.376204 -0.334863,0 -0.669727,0.07441 -0.330729,0.07441 -0.677995,0.23151 z"
       id="path1149" />
  </g>
  <circle
     style="fill:none;fill-opacity:1;stroke:#ffa52d;stroke-width:1.12923186px;stroke-dasharray:none;stroke-opacity:1;font-variation-settings:normal;opacity:1;vector-effect:none;stroke-linecap:butt;stroke-linejoin:round;stroke-miterlimit:1.5;stroke-dashoffset:0;-inkscape-stroke:none;stop-color:#000000;stop-opacity:1"
     id="path2140-7-3"
     cx="13.486379"
     cy="15.21212"
     r="5.9777541" />
</svg>
