<?xml version="1.0" encoding="UTF-8"?>
<!-- Created with Inkscape (http://www.inkscape.org/) -->
<svg width="43.18mm" height="37.835mm" version="1.1" viewBox="0 0 43.18 37.835" xmlns="http://www.w3.org/2000/svg">
 <g transform="translate(-125.46 -45.522)">
  <g transform="matrix(.32466 0 0 .32466 -160.57 -94.3)" style="clip-rule:evenodd;fill-rule:evenodd;stroke-linecap:round;stroke-linejoin:round;stroke-miterlimit:1.5">
   <g transform="matrix(1.1327 0 0 1.2253 -129.05 -116.71)" style="-inkscape-stroke:none;fill:#825c44;font-variation-settings:normal;stop-color:#000000">
    <path d="m987.89 482.41c7.002 1.199 15.888 8.673 18.948 14.787 1.68 3.364 4.37 7.627-.39 10.342-6.4 3.661-15.249-3.76-22.161-2.315-6.9 1.442-13.214 5.346-20.259 6.307-5.471.746-11.081.875-16.436 2.293-6.972 1.846-27.118 4.0026-34.308 3.6246-9.8387-2.3012-13.513-3.2934-6.4966-10.804 0 0-3.7036-1.3412-6.9236-2.3072-2.201-.66-7.0829-1.8585-7.8879-4.2745-1.781-5.341 5.968-6.909 9.364-9.173 2.561-1.708 3.6206-.72567 6.2296-2.2907 7.945-4.768 18.93-1.6057 28.301-1.6057z" style="-inkscape-stroke:none;fill:#7c553d;font-variation-settings:normal;stop-color:#000000"/>
   </g>
   <g transform="translate(-37.613 27.609)">
    <path d="m941.4 461.53c1.177-.24229 4.7608 4.4543 4.6632 6.413-.0954 1.9739-.49263 4.5871-2.1025 5.9603-2.1436 1.8275-6.4771 1.346-8.8963.58393-1.4201-.44752-3.4627-2.5246-4.0038-3.8545-1.961-4.8322 1.9048-9.3576 7.6392-9.7847 1.2724-.0926 1.5247-.2267 2.7003.68188z" style="-inkscape-stroke:none;fill:#03b402;font-variation-settings:normal;stop-color:#000000;stroke-linecap:butt;stroke-linejoin:miter;stroke-miterlimit:1.5;stroke-width:.48156"/>
    <path d="m935.17 461.71c-2.0666 1.8586-2.9187 4.5914-1.7722 7.4277.5411 1.33 2.5838 3.407 4.0038 3.8545 1.8636.58689 4.8547 1.0068 7.11.33832-.16796.2077-.35026.40023-.55186.57332-2.1436 1.8275-6.4771 1.346-8.8963.58393-1.4201-.44752-3.4627-2.5246-4.0038-3.8545-1.5208-3.7492.46423-7.3145 4.1103-8.9233z" style="-inkscape-stroke:none;fill:#85c96b;font-variation-settings:normal;stop-color:#000000;stroke-linecap:butt;stroke-linejoin:miter;stroke-miterlimit:1.5;stroke-width:.66467"/>
    <path d="m988.13 438.47c-8.4329 3.0863-17.665 1.8549-26.25 4.2705-7.5984 1.2914-14.824 4.2506-21.526 7.9998-4.1067 3.3009.29627 7.3961 4.0843 7.7579 4.5277 1.0164 8.7486 2.81 13.002 4.5618 5.9723 1.943 12.489 2.2838 18.594.75128 5.0958-.0457-1.2612 2.612-2.9637 3.1054-3.6342 1.4102-7.1567 3.0632-10.383 5.1809-3.5256 1.9961-3.4159 8.523 1.6888 7.2231 4.8912.58639 9.9297 1.576 14.936.94387 5.0074-.24177 9.6702-2.2262 14.618-2.7441 6.5178-1.5473 12.979-3.5484 19.091-6.3094 4.0397-1.8014 7.5099-4.6058 10.664-7.6369 1.7571-1.1764 7.7851-5.4085 2.8969-5.8956-2.401 1.0416-4.9629-1.5631-1.7541-2.7727 3.6484-2.3433 8.2529-3.1803 11.409-6.2426 1.834-4.1421-5.1953-3.8953-7.7387-5.0202-3.4335-1.2346-6.6501-3.2282-10.491-2.9271-3.8653-.15307-7.9848.0537-11.478-1.8989-6.1093.6532-12.351.93871-18.401-.34699z" style="-inkscape-stroke:none;clip-rule:evenodd;fill-rule:evenodd;fill:#473124;font-variation-settings:normal;stop-color:#000000"/>
    <path d="m946.16 446.16c-1.5221.83749-1.5753 2.89.0266 3.564 40.682 7.5163 64.693 2.9341 100.14-8.3071l-1.0036-1.4364c-36.715-4.3584-63.986-4.3767-99.163 6.1795z" style="fill:#2b5041;stroke-width:.66467"/>
    <path d="m984.86 441.15c1.1342-.55043 5.9913 3.2989 6.3981 5.3158.41298 2.0316.68419 4.7912-.5979 6.6034-1.7074 2.4119-6.2379 3.0419-8.8945 2.8921-1.5595-.0881-4.173-1.6723-5.0667-2.8847-3.2422-4.4066-.48078-10.006 5.2393-11.922 1.2698-.42284 1.4917-.6244 2.9217-.004z" style="-inkscape-stroke:none;fill:#03b402;font-variation-settings:normal;stop-color:#000000;stroke-linecap:butt;stroke-linejoin:miter;stroke-miterlimit:1.5;stroke-width:.48156"/>
    <path d="m978.57 442.94c-1.6211 2.4236-1.7814 5.4224.11712 8.01.89376 1.2124 3.5072 2.7966 5.0667 2.8847 2.0464.11527 5.1962-.23052 7.3165-1.4929-.11711.25457-.25272.49743-.41298.72549-1.7074 2.4119-6.2379 3.0419-8.8945 2.8921-1.5595-.0881-4.173-1.6723-5.0667-2.8847-2.5149-3.4191-1.4177-7.5569 1.8738-10.135z" style="-inkscape-stroke:none;fill:#85c96b;font-variation-settings:normal;stop-color:#000000;stroke-linecap:butt;stroke-linejoin:miter;stroke-miterlimit:1.5;stroke-width:.66467"/>
    <path d="m985 442.75c.83212-.0764-.19108 1.1921-.4623 1.3468-.70268.4025-2.0402-.31374-2.0402-1.128 0-.43333.32668-.4925.56091-.72549" style="fill:none;stroke-width:.62872px;stroke:#ffffff"/>
    <path d="m971.13 443.65c.88607-.43003 4.6807 2.5773 4.9986 4.1529.32264 1.5872.53453 3.7431-.46711 5.1589-1.3339 1.8843-4.8733 2.3765-6.9488 2.2595-1.2183-.0689-3.2601-1.3065-3.9584-2.2537-2.533-3.4426-.37562-7.8176 4.0932-9.3142.992-.33035 1.1654-.48782 2.2826-.003z" style="fill:#03b402;stroke-width:.48156"/>
    <path d="m966.22 445.05c-1.2665 1.8935-1.3917 4.2362.0915 6.2578.69826.94722 2.74 2.1848 3.9584 2.2537 1.5988.09 4.0595-.1801 5.7161-1.1663-.0915.19888-.19743.38862-.32264.56679-1.3339 1.8843-4.8733 2.3765-6.9488 2.2595-1.2183-.0689-3.2601-1.3065-3.9584-2.2537-1.9648-2.6712-1.1076-5.9039 1.4639-7.9177z" style="-inkscape-stroke:none;fill:#85c96b;font-variation-settings:normal;stop-color:#000000;stroke-linecap:butt;stroke-linejoin:miter;stroke-miterlimit:1.5;stroke-width:.66467"/>
    <path d="m970.88 445.96c-.54897.31445-1.5939-.24512-1.5939-.88125 0-.33853.25522-.38476.43821-.56679" style="fill:none;stroke-width:.63084px;stroke:#ffffff"/>
    <path d="m959.56 444.67c.69223-.33596 3.6568 2.0135 3.9051 3.2445.25207 1.24.4176 2.9243-.36493 4.0304-1.0421 1.4721-3.8073 1.8566-5.4288 1.7652-.95182-.0538-2.547-1.0207-3.0925-1.7607-1.9789-2.6896-.29345-6.1075 3.1978-7.2768.77501-.25808.91045-.3811 1.7833-.003z" style="-inkscape-stroke:none;fill:#03b402;font-variation-settings:normal;stop-color:#000000;stroke-linecap:butt;stroke-linejoin:miter;stroke-miterlimit:1.5;stroke-width:.48156"/>
    <path d="m955.72 445.77c-.98945 1.4793-1.0873 3.3096.0715 4.8889.54551.74002 2.1407 1.7069 3.0925 1.7607 1.249.0703 3.1715-.14071 4.4657-.9112-.0715.15538-.15425.30361-.25207.44281-1.0421 1.4721-3.8073 1.8566-5.4288 1.7652-.95182-.0538-2.547-1.0207-3.0925-1.7607-1.535-2.0869-.86529-4.6124 1.1437-6.1857z" style="-inkscape-stroke:none;fill:#85c96b;font-variation-settings:normal;stop-color:#000000;stroke-linecap:butt;stroke-linejoin:miter;stroke-miterlimit:1.5;stroke-width:.66467"/>
    <path d="m959.36 446.47c-.42888.24567-1.2453-.19149-1.2453-.68847" style="fill:none;stroke-width:.62828px;stroke:#ffffff"/>
    <path d="m1002.4 439.71c1.3315-.27409 5.3856 5.0388 5.2752 7.2547-.1079 2.233-.5573 5.1891-2.3785 6.7426-2.425 2.0674-7.3272 1.5226-10.064.66057-1.6064-.50625-3.9172-2.8559-4.5293-4.3604-2.2183-5.4664 2.1548-10.586 8.6418-11.069 1.4394-.10472 1.7248-.25645 3.0547.77138z" style="-inkscape-stroke:none;fill:#03b402;font-variation-settings:normal;stop-color:#000000;stroke-linecap:butt;stroke-linejoin:miter;stroke-miterlimit:1.5;stroke-width:.48156"/>
    <path d="m995.39 439.91c-2.3379 2.1025-3.3017 5.194-2.0047 8.4025.61211 1.5045 2.9228 3.8541 4.5293 4.3604 2.1082.66391 5.4919 1.139 8.0432.38273-.19.23495-.3963.45276-.6243.64855-2.425 2.0674-7.3272 1.5226-10.064.66057-1.6064-.50625-3.9172-2.8559-4.5293-4.3604-1.7204-4.2412.52515-8.2744 4.6497-10.094z" style="-inkscape-stroke:none;fill:#85c96b;font-variation-settings:normal;stop-color:#000000;stroke-linecap:butt;stroke-linejoin:miter;stroke-miterlimit:1.5;stroke-width:.66467"/>
    <path d="m1002.2 441.42c.89.1411-.5162 1.1952-.8408 1.2848-.8412.23406-2.049-.86971-1.8327-1.7207.11508-.45287.47222-.42796.77893-.60927" style="fill:none;stroke-width:.63144px;stroke:#ffffff"/>
    <path d="m941.15 463.05c.78672.12473-.45638 1.0565-.74327 1.1358-.74368.20691-1.8113-.76881-1.6201-1.5211.10172-.40034.41743-.37832.68852-.53859" style="fill:none;stroke-width:.62869px;stroke:#ffffff"/>
    <path d="m951.74 470.57c1.3315-.27408 5.3856 5.0388 5.2752 7.2547-.1079 2.233-.55728 5.1891-2.3785 6.7426-2.425 2.0674-7.3271 1.5226-10.064.66057-1.6064-.50625-3.9172-2.8559-4.5293-4.3604-2.2183-5.4664 2.1548-10.586 8.6418-11.069 1.4394-.10472 1.7248-.25645 3.0547.77137z" style="-inkscape-stroke:none;fill:#03b402;font-variation-settings:normal;stop-color:#000000;stroke-linecap:butt;stroke-linejoin:miter;stroke-miterlimit:1.5;stroke-width:.48156"/>
    <path d="m944.7 470.77c-2.3379 2.1025-3.3017 5.194-2.0047 8.4025.61211 1.5045 2.9228 3.8541 4.5293 4.3604 2.1081.66391 5.4918 1.139 8.0431.38273-.19.23495-.39622.45275-.62428.64855-2.425 2.0674-7.3271 1.5226-10.064.66057-1.6064-.50625-3.9172-2.8559-4.5293-4.3604-1.7204-4.2412.52515-8.2744 4.6497-10.094z" style="-inkscape-stroke:none;fill:#85c96b;font-variation-settings:normal;stop-color:#000000;stroke-linecap:butt;stroke-linejoin:miter;stroke-miterlimit:1.5;stroke-width:.66467"/>
    <path d="m951.46 472.29c.88997.1411-.51628 1.1952-.84081 1.2848-.84128.23406-2.049-.86971-1.8328-1.7207.11508-.45287.47222-.42796.77889-.60927" style="fill:none;stroke-width:.63144px;stroke:#ffffff"/>
    <path d="m1016.4 438.06c1.1771-.24228 4.7608 4.4543 4.6632 6.413-.095 1.9739-.4926 4.5871-2.1025 5.9603-2.1436 1.8275-6.4771 1.346-8.8963.58393-1.4201-.44752-3.4628-2.5246-4.0039-3.8545-1.9609-4.8322 1.9049-9.3576 7.6393-9.7847 1.2723-.0926 1.5246-.2267 2.7002.68188z" style="-inkscape-stroke:none;fill:#03b402;font-variation-settings:normal;stop-color:#000000;stroke-linecap:butt;stroke-linejoin:miter;stroke-miterlimit:1.5;stroke-width:.48156"/>
    <path d="m1010.2 438.24c-2.0666 1.8586-2.9186 4.5914-1.7721 7.4277.5411 1.33 2.5838 3.407 4.0038 3.8545 1.8636.58689 4.8547 1.0068 7.11.33832-.1679.2077-.3502.40024-.5518.57332-2.1436 1.8275-6.4771 1.346-8.8963.58393-1.4201-.44752-3.4628-2.5246-4.0039-3.8545-1.5207-3.7492.4643-7.3145 4.1103-8.9233z" style="-inkscape-stroke:none;fill:#85c96b;font-variation-settings:normal;stop-color:#000000;stroke-linecap:butt;stroke-linejoin:miter;stroke-miterlimit:1.5;stroke-width:.66467"/>
    <path d="m1027.4 438.67c.9168-.18873 3.7083 3.4695 3.6323 4.9952-.074 1.5375-.3838 3.5729-1.6377 4.6426-1.6697 1.4235-5.0451 1.0484-6.9295.45484-1.1061-.34858-2.6972-1.9664-3.1187-3.0024-1.5274-3.7639 1.4838-7.2888 5.9503-7.6214.9911-.0721 1.1877-.17658 2.1033.53113z" style="-inkscape-stroke:none;fill:#03b402;font-variation-settings:normal;stop-color:#000000;stroke-linecap:butt;stroke-linejoin:miter;stroke-miterlimit:1.5;stroke-width:.48156"/>
    <path d="m1022.6 438.8c-1.6097 1.4477-2.2734 3.5763-1.3803 5.7856.4214 1.0359 2.0125 2.6538 3.1186 3.0023 1.4516.45714 3.7814.78424 5.5381.26353-.1308.16178-.2728.31175-.4298.44656-1.6697 1.4235-5.0451 1.0484-6.9295.45484-1.1061-.34858-2.6972-1.9664-3.1187-3.0024-1.1845-2.9203.3616-5.6973 3.2016-6.9505z" style="-inkscape-stroke:none;fill:#85c96b;font-variation-settings:normal;stop-color:#000000;stroke-linecap:butt;stroke-linejoin:miter;stroke-miterlimit:1.5;stroke-width:.66467"/>
    <path d="m955.42 459.1c.91681-.18873 3.7082 3.4695 3.6322 4.9952-.0743 1.5375-.38372 3.5729-1.6377 4.6426-1.6697 1.4235-5.0451 1.0484-6.9295.45484-1.1061-.34858-2.6972-1.9664-3.1186-3.0024-1.5274-3.7639 1.4837-7.2888 5.9503-7.6214.99106-.0721 1.1876-.17658 2.1033.53113z" style="-inkscape-stroke:none;fill:#03b402;font-variation-settings:normal;stop-color:#000000;stroke-linecap:butt;stroke-linejoin:miter;stroke-miterlimit:1.5;stroke-width:.48156"/>
    <path d="m950.56 459.24c-1.6097 1.4477-2.2734 3.5763-1.3804 5.7856.42147 1.0359 2.0125 2.6538 3.1186 3.0023 1.4516.45714 3.7814.78424 5.5381.26353-.13082.16178-.27281.31175-.42984.44656-1.6697 1.4235-5.0451 1.0484-6.9295.45484-1.1061-.34858-2.6972-1.9664-3.1186-3.0024-1.1846-2.9203.3616-5.6973 3.2016-6.9505z" style="-inkscape-stroke:none;fill:#85c96b;font-variation-settings:normal;stop-color:#000000;stroke-linecap:butt;stroke-linejoin:miter;stroke-miterlimit:1.5;stroke-width:.66467"/>
    <path d="m955.22 460.28c.61279.0971-.35549.82291-.57894.88466-.57927.16116-1.4108-.59884-1.262-1.1848.0792-.31183.32514-.29467.5363-.41951" style="fill:none;stroke-width:.627px;stroke:#ffffff"/>
    <path d="m946.16 446.16c-1.5221.83749-1.5753 2.89.0266 3.564 3.8684 1.6265 8.8402 3.6298 11 4.5244.83084.3443 1.9276.25989 2.7717.61017 2.1668.89798 4.7458 1.9708 6.9724 2.7079 5.8691 1.9435 17.129.84015 17.288-.0326.0798-.40412 1.5753-.53971 1.9874-.36955 1.6883.69857 3.7155 1.4224 5.7295 1.683 1.0768.13958 8.3217-.99635 8.9864-1.3107.6048-.28847.6314-.81156 1.316-.7225 1.6351.21203 3.3699 1.2556 5.0383.9352 2.7783-.53108 5.5433-1.2828 7.9362-2.6693.771-.44866 2.8248.3762 3.7022.22998 2.6122-.43404 5.1578-.89798 7.5041-1.8478.339-.13692 1.5687-1.4636 1.7282-1.7813.086-.15819 18.219-10.263 18.179-10.264l-1.0036-1.4364c.046-.003-9.3786-1.9541-9.4849-2.1263-.2061-.34696-1.6684-1.7521-2.0605-1.881-2.6853-.89598-5.57-1.2283-8.5078-1.5221-.9904-.0997-3.2237.98505-4.121.53706-2.7717-1.3858-5.909-2.0259-9.0462-2.4181-1.8877-.23596-3.7355 1.0708-5.55 1.433-.7578.15155-.8242-.43735-1.5221-.71652-.7644-.30508-1.7016-.19541-2.5059-.26852-1.3094-.11965-2.7384.12562-4.0345-.0897-1.1432-.19143-2.3862-.68595-3.576-.44799-2.2266.44533-4.44 1.4138-6.2745 2.329-.44534.222-1.7813-.22333-2.2333-.26919-1.2629-.12562-3.2237-.49319-4.4799-.1788-4.9385 1.235-9.9236 1.5427-14.869 2.9551-2.5258.72117-5.1712.88402-7.5241 2.0598-.9106.45796-2.1402.44467-3.0442.89598-2.1469 1.0754-6.8528 3.9694-10.329 5.8877zm2.7584 2.4294c2.1602.28581 4.2074.57893 5.0515.7132 6.5603 1.0462 53.307 1.5879 57.873 1.0003 3.1837-.41077 6.3941-1.3493 9.5912-1.8278 2.4659-.36823 4.8654-2.4945 7.338-2.3722 1.6351.0811 10.322-4.4334 8.5012-4.2187-2.7518.32303-5.9156.32103-8.6873.0897-3.6092-.30044-7.2516-1.1193-10.841-1.3433-5.1313-.32104-57.235 3.7913-64.48 5.463-1.8744.43271-3.3765 1.8465-4.347 2.4958z" style="fill:#007d4a;stroke-width:.66467"/>
    <path d="m1033.3 444.43c-3.1429 1.8998-6.9555 1.5189-10.072 3.506-3.7371 1.0304-7.6067 1.6826-11.43 2.371-14.329.54118-28.682.0952-43.014-.2022-6.7725-.20707-13.579-.33206-20.249-1.6429 3.1553 1.8184 6.8748 1.6449 10.43 1.9616 17.271 1.07 34.563 2.113 51.87 2.2387 4.0281-.39643 7.9819-1.4446 11.936-2.2554 2.6899-1.7222 5.9666-1.6119 8.6297-3.2207 1.9173-1.437 5.3461-3.137 5.8816-5.0785-1.5529.3297-2.3652 2.146-3.9814 2.3224zm-87.185 1.7341c-2.3591 2.0254 2.7392-.96948 3.8146-1.1265 4.4159-1.5734 8.7319-3.3624 13.256-4.5638 6.2062-.95993 11.877-4.1394 18.106-4.866 2.6995-.77299 5.4958 1.3188 7.5593 1.1732 3.4882-2.7964 8.4049-2.8267 12.676-2.6469 3.041-.3798 3.9692 3.8853 7.0359 1.492 3.7128-1.672 7.8687-.0213 11.485 1.1742 3.1584 1.1227 6.7054-.80797 10.058.57446 3.7279-.23678 5.4079 3.9644 9.1514 2.7817 1.6019-.0972 5.4191-.01 5.6307-.25702-3.0838-.91536-6.6968-.91656-9.4487-2.4633-2.2247-2.5886-6.0283-2.3013-9.1156-2.868-3.5907.69215-6.7666.12326-10.179-1.2953-3.6248-1.9169-7.4714.88101-10.733.2688-3.0582-1.0871-6.5056-.0718-9.6422-1.1146-3.2052-.20691-5.8355 2.8141-8.9307 2.2098-3.2337-.9148-6.4206.0921-9.5978.67671-5.543.7893-10.989 2.1056-16.4 3.5019-3.7529 1.0716-7.2082 2.795-10.495 4.9262-1.4034.81871-2.8078 1.6364-4.2297 2.4223z" style="fill:#46bc5b;stroke-width:.66467"/>
    <path d="m1051.3 443.36c0 .0339-2.8049-2.4034-2.9312-2.5151-.2127-.19076-.432-.37355-.6514-.55899-.5317-.45198-1.0967-.93852-1.675-1.328-.7178-.47458-1.5819-1.1107-2.446-1.235-.6779-.0964-1.3825.0206-2.0538.0931-.565.0611-1.2097.11566-1.7016.44268-.1196.0804-.1661.13625-.2127.25656-.013.0425-.113.11499-.113.0698 0-.10369.2194.0126.3058.0698.2393.16019.4653.33898.6248.58225.3855.57561 1.0834.93188 1.7015 1.1884.226.0937.4786.24527.7245.27983.113.0166.3457.0233.3457.0233s-.2127.001-.3257 0c-.1595-.002-.3124-.005-.4719.0279-.6846.13626-1.3161.38418-1.9941.50781-.1794.0332-.4652.11432-.5849.2333-.06.0585-.1661.18611-.1661.18611s.1728.0758.2592.0937c.1861.0372.3855.14623.5583.23263.452.22333.9306.32569 1.4224.39615.1728.0246.3656 0 .5384 0 .093 0 .3722-.0698.2792-.0698-.339 0-1.0037.63144-1.2629.76902-.9239.49519-1.6816.87006-2.5125 1.4909-.113.0817-.3656.0625-.4453.14024-.04.0379.5317.46195.5384.46594.1794.12496.3655.19874.5782.23264 1.0702.16882 2.1935-.48788 3.0575-1.0249.6514-.40745 1.1233-.87936 1.7215-1.3513.3257-.25923.7179-.43802 1.0236-.7225 1.0835-1.007 2.333-1.1732 2.4793-1.0887.7843.46062 2.1269 2.7704 2.5922 2.9578" style="fill:#2b5041;stroke-width:.66467"/>
    <path d="m1051.5 443.37c-.3057-.19475-1.1033.57827-.9571.7996.033.0452.013.0897.06.12496.1928.14357.3789.17814.5717.0811.3323-.16284.6979-.75772.3256-1.0056" style="fill:#348f6a;stroke-width:.66467"/>
    <path d="m966.74 469.81c-.97337.77319-.74151 2.1542.48725 2.3814 2.9672.54777 6.7693 1.1936 8.4245 1.4903.63663.11429 1.4062-.0955 2.053.021 1.6603.29809 3.637.65556 5.3188.83765 4.433.48033 12.302-1.8318 12.301-2.4381.004-.28159 1.0504-.58135 1.366-.52508 1.2935.23154 2.8316.43259 4.2994.32548.7848-.0571 5.7924-1.8299 6.2242-2.1332.3926-.27758.3428-.63136.8418-.66744 1.1917-.0866 2.5637.36925 3.7091-.0783 1.9078-.74371 3.7772-1.6332 5.2982-2.8956.4898-.40801 2.0601-.14306 2.6654-.36354 1.8023-.65555 3.5533-1.3218 5.0986-2.2854.2233-.139.9242-1.1987.996-1.4336.041-.11794 11.619-9.4146 11.591-9.4095l-.9032-.82096c.033-.009-6.9324.003-7.0307-.0973-.1922-.20339-1.4177-.93934-1.7138-.97082-2.0291-.2243-4.1261-.0435-6.2558.17048-.718.0717-2.1651 1.1098-2.8627.93537-2.155-.54004-4.4722-.52991-6.7568-.35386-1.3746.10592-2.5182 1.2387-3.7621 1.7347-.5195.20732-.6442-.17749-1.1776-.26677-.5842-.0973-1.2369.10705-1.8189.17053-.9478.10294-1.9327.46681-2.8836.50384-.8389.0317-1.7886-.12554-2.6042.19999-1.5264.60923-2.9746 1.5667-4.1601 2.4356-.28781.21081-1.2973.0995-1.625.13199-.91542.0924-2.3594.12051-3.2123.50648-3.3529 1.5167-6.8608 2.4194-10.195 4.0558-1.703.83563-3.5646 1.3143-5.0849 2.4301-.58798.43374-1.465.5967-2.0491 1.0251-1.3868 1.0198-4.3562 3.6142-6.5785 5.3838z" style="-inkscape-stroke:none;fill:#007d4a;font-variation-settings:normal;stop-color:#000000;stroke-linecap:butt;stroke-linejoin:miter;stroke-miterlimit:1.5;stroke-width:.66467"/>
    <path d="m966.74 469.81c-1.4069 1.6852 1.8358-1.0431 2.5672-1.287 2.8252-1.6313 5.5983-3.3168 8.5113-4.7686 4.2972-1.515 7.9954-4.3477 12.28-5.8568 1.8926-.90869 4.2542-.0275 5.8272-.33982 2.1623-2.3901 5.6197-3.0587 8.675-3.543 2.2167-.46118 3.7053 2.0274 5.6617-.25964 2.5122-1.3211 5.5727-.84381 8.2809-.46209 2.3468-.20996 4.6804-1.442 7.2149-1.112 2.5294-.46816 4.3212 1.9559 6.7961.52363 1.0325-.26929 3.6474-.71932 3.6679-.89216-2.247-.0266-4.4984.0329-6.7421-.0947-1.9794-1.7293-4.7953-.93328-7.1726-.8783-2.4497.96038-4.8014 1.031-7.4156.55586-2.8269-.7739-5.1814 1.622-7.6046 1.68-2.3319-.29862-4.6338.86054-7.0097.60174-2.2922.30161-3.7928 2.702-6.0664 2.727-3.008-.17843-5.5708 1.5294-8.3473 2.3781-3.3849 1.2065-6.6799 2.6717-9.9116 4.2284-2.3139 1.1363-4.3834 2.6412-6.2906 4.3951-.96804.80862-1.936 1.6176-2.9221 2.4042z" style="fill:#46bc5b;stroke-width:.4675"/>
    <path d="m1041.2 451.64c0 .0222-1.9954.44816-2.0999.39108-.1765-.0979-.3566-.1896-.5371-.28304-.4379-.22815-.904-.47479-1.3668-.65463-.5733-.21726-1.2719-.52217-1.9033-.48459-.4952.0303-.9813.20702-1.4497.34933-.3941.11989-.8458.24647-1.153.53406-.075.0706-.1003.11441-.1176.20143 0 .0303-.065.0927-.071.0625-.014-.0694.1578-.0222.2268.004.1914.0737.3757.16182.5212.30233.3501.33132.8937.47219 1.3674.55749.1731.0311.3728.0973.5524.086.083-.005.2491-.0327.2491-.0327s-.1512.0306-.2318.0455c-.1138.021-.223.0405-.3323.0846-.4694.18687-.8862.44104-1.3526.61853-.1233.0473-.3161.14153-.3856.23788-.035.0475-.094.14777-.094.14777s.133.0265.1969.0265c.1373-.001.2936.044.4279.0777.3511.0863.7052.0879 1.0645.0663.1263-.008.2603-.0511.3833-.0752.066-.013.2557-.0987.1895-.0857-.2413.0474-.6314.56284-.7979.69115-.5925.46051-1.0826.81728-1.5924 1.3489-.07.0705-.252.0929-.2986.15609-.023.0309.4392.23483.4445.23657.1441.0585.2863.0819.4422.0749.7839-.0366 1.4971-.63306 2.0416-1.1132.4101-.36371.684-.74548 1.0478-1.1449.1977-.219.4534-.39346.6336-.62657.6389-.82531 1.5065-1.1112 1.6217-1.0751.6188.19864 1.5561-.10738 1.9167-.0479" style="fill:#2b5041;stroke-width:.4675"/>
   </g>
  </g>
 </g>
</svg>
