<?xml version="1.0" encoding="UTF-8"?>
<!-- Created with Inkscape (http://www.inkscape.org/) -->
<svg width="43.18mm" height="37.835mm" version="1.1" viewBox="0 0 43.18 37.835" xmlns="http://www.w3.org/2000/svg">
 <g transform="translate(-125.46 -45.522)">
  <g transform="matrix(.26458 0 0 .26458 -89.606 -136.41)" style="clip-rule:evenodd;fill-rule:evenodd;stroke-linecap:round;stroke-linejoin:round;stroke-miterlimit:1.5">
   <g transform="translate(111.04 118.7)" style="-inkscape-stroke:none;fill:#7c553d;font-variation-settings:normal;stop-color:#000000">
    <path d="m804.81 684.69c1.245.016 9.75 2.073 10.89 1.617 1.557-.623 11.597 2.3499 11.679 4.0219 15.255 17.458-46.942 32.785-79.594 9.7194-2.623-2.033-7.2077-10.452 3.6798-11.509z" style="-inkscape-stroke:none;fill:#7c553d;font-variation-settings:normal;stop-color:#000000"/>
   </g>
   <g transform="matrix(1.4202 0 0 1.4202 -231.75 -177.59)">
    <path d="m780.19 653.56c0-.537.71-.817.966-1.288 1.502-2.764 2.889-5.295 3.511-8.356 1.723-8.462-.882-16.907-1.819-25.235-.043-.385.368.695.644.967.613.603 1.266 1.188 2.014 1.611.511.288 1.11.406 1.692.483.326.043.977-.133.837.696.952.213 2.102 16.913 4.238 21.778.553 1.26 2.083 4.35 4.027 4.35-2.156 25.114-7.904 24.02-16.11 4.994z" style="fill:#a8f6b0"/>
   </g>
   <g transform="translate(111.04 118.7)">
    <path d="m774.55 587.64c-.427-.056-.153-1.017.673-.908.463.061 1.082-.357 1.488 1.15 1.231 1.471 2.686 23.859 5.72 30.769.785 1.789 2.959 6.178 5.72 6.178-.174 2.026-.364 3.932-.571 5.719-2.999-1.149-8.769-10.222-9.505-11.897-3.033-6.91-3.063-30.95-3.525-31.011z" style="fill:#71d67b"/>
   </g>
   <g transform="matrix(1.4202 0 0 1.4202 -231.75 -177.59)">
    <path d="m774.9 699.94c-5.92-5.196-11.519-16.04-2.739-33.506.52-1.036.292-2.312.472-3.485.427-2.777-.43-5.815-.118-8.622.317-2.858.065-5.762-.059-8.622-.108-2.487.225-5.023 0-7.5-.308-3.391-.629-6.781-1.004-10.158-.298-2.678-1.388-12.646-1.399-12.649l.376.057c-.539-.659 6.398-2.336 7.067-1.704.325.306.322 1.652.322 2.014 0 2.359-.322 4.763-.322 7.169 0 6.151 1.171 12.421 2.175 18.447.361 2.168 1.107 4.426 1.611 6.444.136.545 1.616 2.661 1.128 2.336 4.217 19.348-.078 34.816-7.51 49.779z" style="fill:#c0f9c6"/>
   </g>
   <g transform="matrix(1.4202 0 0 1.4202 -231.75 -177.59)">
    <path d="m775.44 699.63c-.286-.153-1.123.316-1.448.308-3.358-.083-9.523-17.191-5.343-24.525 4.171-7.318 7.144-13.191 16.844-15.528 2.044-.493 10.683-7.611 11.781-14.949.309-2.064 2.397-19.567 2.9-26.099.165-2.141.644-4.214.644-6.444 0-.214.157-2.681.157-2.681l6.046 1.472s-.046.968-.081 1.45c-.065.914-.209 1.835-.322 2.739-.48 3.842-3.132 27.134-2.9 28.758.312 2.179.402 4.419.645 6.605.054.488.805 7.044-1.168 11.088-6.679 13.697-26.162 38.659-27.755 37.806z" style="fill:#a0ffa4"/>
   </g>
   <g transform="matrix(1.4202 0 0 1.4202 -231.75 -177.59)">
    <path d="m770.43 615.46c1.4924 5.3823 3.6028 10.671 3.749 16.332.60431 4.3889.66766 8.8019.53897 13.22.37441 3.769.0705 7.5405.0348 11.306.29588 3.126.44216 6.3733-.3298 9.423-1.9357 3.8666-3.4133 7.9683-4.5805 12.11-.79 6.6695-.31194 14.048 4.1669 19.432 1.1657 1.1101 3.1428 3.13.1557 2.5603-3.0007-1.3144-4.3978-4.7794-5.6071-7.6358-1.5997-4.6274-1.5377-9.6884-.80881-14.471 1.1928-3.2628 1.6879-6.7329 2.9055-10.014 1.6798-7.0577 2.4119-14.406 1.8648-21.646-.61891-3.4468.41969-6.9539-.29653-10.41-.63168-6.7641-1.4294-13.511-2.1689-20.264l.19224.0291zm5.89 83.813c-.0219.0416-.0121-.0165 0 0zm9.799-39.636c5.0858-3.2162 9.5064-8.1441 11.036-14.064 1.5068-10.883 2.5503-21.831 3.6512-32.757.0435-1.9512-.82646-4.0492 1.7486-2.7113 1.3133 1.4902.007 4.7139-.005 6.8422-.85866 9.3469-1.8696 18.686-3.1444 27.985-1.485 5.7665-5.7685 10.501-10.608 13.779-.8008.54658-1.7856.61343-2.678.92691z" style="fill:#8ee592"/>
   </g>
   <g transform="matrix(1.4202 0 0 1.4202 -231.75 -177.59)">
    <path d="m815.7 631.21c-1.4402-1.8472-4.8129-4.948-6.267-4.744-.87924 3.2457-1.4297 6.5988-1.9736 9.9454-1.4746 7.5654-2.637 15.302-5.5449 22.481-3.1477 6.4272-11.079 7.293-16.04 11.729-5.6019 5.062-10.617 11.529-11.828 19.165-.27124 3.3306.0647 6.7842 1.0824 9.9671 2.8032 2.9769 7.2975 3.9367 11.212 4.7978 7.8449 1.1959 16.366.19528 23.194-4.0488 3.6978-2.6494 4.3218-7.6284 4.8075-11.824.47997-5.6989-.45312-11.462-2.4619-16.8-.2802-2.8659-.16245-5.7686-.24977-8.6453.86383-10.607 2.2925-21.168 3.9703-31.674z" style="fill:#baf6b4"/>
   </g>
   <g transform="matrix(1.4202 0 0 1.4202 -231.75 -177.59)">
    <path d="m812.13 627.9c.27.335.494.615.494.615-.292 0-4.628 31.134-4.074 34.46.387 2.321-.345 4.849.504 7.049 4.195 10.872 2.175 23.903-1.747 27.145-5.216 4.313-20.218 8.072-32.401 2.003.231.704.524 1.252.895 1.482 12.509 7.737 29.05 3.785 34.583-.788 3.922-3.243 5.942-16.274 1.746-27.146-.849-2.2-.116-4.728-.503-7.049-.555-3.326 3.782-34.46 4.074-34.46 0 0-1.252-1.566-1.41-1.712-.678-.626-1.46-1.088-2.161-1.599z" style="fill:#9ce69e"/>
   </g>
   <g transform="matrix(1.4202 0 0 1.4202 -231.75 -177.59)">
    <path d="m800.9 610.38c.641.957 7.002 1.894 6.122.421-.924-1.548-6.097-1.926-6.389-1.342-.056.112.256.904.267.921z" style="fill:#94ebab"/>
   </g>
   <g transform="matrix(1.0734 0 0 1.4202 46.429 -152.74)">
    <path d="m786.77 615.6c-.83062-1.4353-1.2834-3.0543-1.817-4.6148-.44525-1.4375.53512-2.7378.84419-4.0941.32626-1.0763.37395-2.4008-.41276-3.2898.20015.69143.66392 1.8936.25515 2.8177-.36106 1.5847-1.6288 3.0426-1.1603 4.7399.0852.56208.55601 1.5437.4826 1.8682-.50345-1.0829-1.4585-2.0258-1.4215-3.2907.0306-1.7084 1.5779-3.3099.78288-5.0379-.63017-.18369.46952.87084.0174 1.2372-.18367 1.6602-1.6098 3.1628-1.0154 4.8908.59316 1.3032 1.3104 2.5452 1.9118 3.8444-1.2991-.57218-2.5505-1.4331-3.116-2.7866-.61563-1.1927-1.1982-2.4129-1.6793-3.6633-.12756-.91971-.25353-2.687-.84847-2.9299.55746 1.0355.42032 2.2269.6579 3.3326.45846 1.2485.94752 2.4952 1.5253 3.6933.31722.53205.90619 1.4824-.10145.81337-1.5263-.80502-2.5532-2.345-4.194-2.9646-.39537-.22079-.93175-1.8765-.66174-.65084.59004 1.283 2.2304 1.5361 2.9836 2.7226.95773 1.0457 2.2695 1.5806 3.4552 2.2935 1.0669.69529 2.2369 1.3987 2.9279 2.4898.44416 1.3197.60624 2.7474.3745 4.1256 1.1198.57029.39889 2.4451 1.2982 2.8227.4209-.26717.18434 1.048.83767.44452.48045-1.0559.99198-2.0962 1.6265-3.0785.44501-1.0616 1.5727-.85092 2.4915-.83447 1.3855-.0388 2.7604.18214 4.1405.17926.53964-.34226-1.1393-.18476-1.4869-.34713-.64991-.021-1.674-.34982-.50896-.51766 1.2106-.36559 2.4433-.71905 3.5414-1.3635-1.324.29204-2.6094.74665-3.9544.95775-1.0295.20407-2.0738.36527-3.1259.3615.30729-1.3666 1.701-.82664 2.6607-.81902 1.6154-.0129 3.2601-.17513 4.7716-.78006.80013-.70763-.95371.30777-1.362.10392-.77949.0324-2.303.27218-2.6186-.0754 1.3108-.75586 2.5675-1.6504 3.5475-2.8151-1.0083.52532-1.7639 1.4479-2.8508 1.8503-.8144.41117-2.3582 1.4837-3.0404.63707.3063-1.2934 1.6255-1.9363 2.5376-2.7697 1.1124-.87619 2.3625-1.5868 3.7122-2.0171.57107-.28709 1.1659-1.0104.18148-.33203-1.4397.60474-2.9619 1.0733-4.1893 2.0812-.74733.71647-2.1404 1.6676-1.465-.0175.33079-1.4064.99299-2.7456 1.8997-3.8614.34773-.37343 1.646-1.268.47468-.67339-1.039.75967-1.6442 1.9674-2.2614 3.067-.67885 1.4551-.61419 3.1571-1.3732 4.5734-.20325.60528-1.158.93876-.89064-.0347-.26777-.92437-.0965-2.6464-.0378-3.0686-.82532 1.2885-.25355 2.9226-.58845 4.3412-.23925 1.3779-1.3516 2.2746-1.8369 3.5475-.26267.56202-.53092.80255-.57024-.005-.4699-1.3396-.81344-2.8471.22211-4.0174.25491-.6085.96151-1.8115.87252-2.085-.73967.53758-.86697 1.8073-1.7256 2.1106.0814-1.3979 1.2248-2.4836 2.0715-3.4982.62557-.60928 1.9099-1.6442 2.0392-2.0802-.74921.29889-1.58 1.5351-2.0922 1.4949.0244-1.6979 1.1119-3.2752 2.6616-3.9524 1.4186-.7801 3.1321-1.4845 3.7683-3.1044-.73089.76584-1.3773 1.6594-2.4538 2.0127-.67548.26702-1.8817.96885-2.2225.98304.66119-1.2426 1.4484-2.5234 1.4432-3.9786-.42818 1.5182-1.1447 2.9292-2.0875 4.1932-.9474 1.1044-1.735 2.3281-1.9493 3.797-.18711.38441-.65003 1.9488-.94995 1.5558-.27647-1.3174.19391-2.6532 1.1716-3.5681 1.4049-2.4413 2.2667-5.1648 2.7448-7.932-.44925.506-.61895 2.2-1.1005 3.0913-.63876 1.7188-1.424 3.402-2.5259 4.8766.6056-1.9409 1.4615-3.8832 1.2916-5.9639.0773-.48392.11225-1.9508-.12789-.68983-.14029 1.6052-.22227 3.269-.99111 4.7248-.20071.38758-.66081 1.9917-.70172 1.5635.29632-2.6956.62205-5.3997 1.1698-8.0543.17076-.36855.73487-1.6175.3546-1.5471-.4639 1.4205-1.0002 2.8325-1.1244 4.3342-.50947 2.8551-1.0435 5.722-1.1089 8.6297z" style="fill:#188747"/>
   </g>
   <g transform="matrix(1.4202 0 0 1.4202 -231.75 -177.59)">
    <path d="m805.56 666.47c3.891 1.845-.466 33.319-7.543 31.559" style="fill:none;stroke-width:1.29px;stroke:#ffffff"/>
   </g>
   <g transform="matrix(1.4202 0 0 1.4202 -231.75 -177.59)">
    <path d="m798.55 670.01c1.605 1.259-4.789 23.718-10.768 25.631" style="fill:none;stroke-width:1.29px;stroke:#ffffff"/>
   </g>
   <g transform="matrix(1.4202 0 0 1.4202 -231.75 -177.59)">
    <path d="m794.47 669.92c-2.348 1.607-14.307 17.595-15.25 21.93" style="fill:none;stroke-width:1.29px;stroke:#ffffff"/>
   </g>
   <g transform="matrix(1.4202 0 0 1.4202 -242.09 -187.3)">
    <path d="m794.47 669.92c-2.348 1.607-14.307 17.595-15.25 21.93" style="fill:none;stroke-width:1.29px;stroke:#ffffff"/>
   </g>
   <g transform="translate(111.04 118.7)">
    <path d="m776.29 586.73c-3.398.169-7.978-2.938-7.267-4.454 3.104-.302 5.684 1.23 7.267 4.454z" style="fill:#b1f9ca"/>
   </g>
  </g>
 </g>
</svg>
