<?xml version="1.0" encoding="UTF-8"?>
<!-- Created with Inkscape (http://www.inkscape.org/) -->
<svg width="43.18mm" height="37.835mm" version="1.1" viewBox="0 0 43.18 37.835" xmlns="http://www.w3.org/2000/svg">
 <g transform="translate(-125.46 -45.522)">
  <g transform="matrix(.34905 0 0 .34697 -182.6 -101.52)" style="clip-rule:evenodd;fill-rule:evenodd;stroke-linecap:round;stroke-linejoin:round;stroke-miterlimit:1.5">
   <g>
    <g transform="matrix(1.1868 0 0 1.1868 -172.86 -95.593)" style="-inkscape-stroke:none;fill:#7c553d;font-variation-settings:normal;stop-color:#000000">
     <path d="m909.89 486.45c1.197-.708-8.262 2.371-10.119 5.019-17.139 24.434 34.202 23.745 42.533 22.191.744-.139.982-2.527 1.321-1.849 1.57 3.141 2.238 2.364 5.547 4.491 6.1 3.921 10.956 8.718 18.757 8.718 7.779 0 20.172-8.006 14.002-16.643-1.335-1.869-3.691-1.45-5.548-2.378-4.073-2.036-6.192-3.93-11.096-5.019z" style="-inkscape-stroke:none;fill:#7c553d;font-variation-settings:normal;stop-color:#000000"/>
    </g>
    <g transform="matrix(.56307 0 0 .56307 241.14 286.85)">
     <path d="m1208.9 274.34c-.01-1.094 28.89-4.716 31.25-4.436 4.95.587 10.36-.157 15.29.938 15.49 3.441 30.54 20.755 39.53 33.594 7.42 10.599 5.42 27.251 1.07 38.579-1.15 2.993-1.8 5.85-3.22 8.841-9.28 19.553-48.12 40.042-58.86 38.513-13.45-1.915-30.92-5.639-37.94-11.188-21.5-16.991-27.16-29.352-31.77-47.94-4.18-16.871 9.43-66.007 40.7-57.882 5.8 1.508 3.95.981 3.95.981z" style="fill:#ce2424"/>
    </g>
    <path d="m951.72 500.33c-5.6241 8.3204-29.242 7.1099-37.133.0261-11.361-10.198-16.712-15.085-17.885-26.994-.9589-9.7398 5.3084-37.166 22.915-32.591.44267.11512.80582.20887 1.1025.28482-23.303-.62423-25.257 46.431-3.0346 54.633 3.8166 1.4087 27.458 3.4535 34.034 4.6414z" style="fill:#a62525;stroke-width:1.1868"/>
    <g transform="matrix(.56307 0 0 .56307 241.14 286.85)">
     <path d="m1256.8 290.24c8.83-.994 22.26 2.045 28.52 11.299" style="fill:none;stroke-width:2.93px;stroke:#ffffff"/>
    </g>
    <g transform="matrix(.56307 0 0 .56307 241.14 286.85)">
     <path d="m1227.6 301.54c-4.76-1.603-12.33-.049-17.47 3.056-5.6 3.385-8.18 11.754-6.6 13.552" style="fill:none;stroke-width:2.93px;stroke:#ffffff"/>
    </g>
    <g transform="matrix(.56307 0 0 .56307 241.14 286.85)">
     <path d="m1236.3 288.28c.8254-3.9087 1.2046-8.0067 2.8583-11.672 2.9636-4.938 8.0122-8.4257 10.049-13.964 1.1223-3.2248 3.5661-6.3484 3.2442-9.8563 2.298 1.2583 2.1827 5.0906 2.0946 7.6105-.2899 4.4036-3.1974 7.935-6.3888 10.696-3.4255 3.2756-2.3072 8.5128-4.6372 12.345-.6892 1.5257 1.8085-2.5517 2.5678-3.1759 3.877-4.7575 9.6281-9.1632 16.134-8.0941 3.5171.54985 7.1876 1.3166 10.199 3.2807 1.7575 2.4733-4.3199-.61521-5.856.81391-4.6502.67777-8.6887 3.5071-11.466 7.214-3.8259 3.5932-7.746 7.0859-11.529 10.725 3.4193 1.6187 6.6484-1.1792 10.152-.2063 7.8247.66904 15.739 4.4321 20.498 10.597-2.6776-2.0206-5.5848-3.6232-9.0683-3.9092-4.5756-1.0205-9.2962-1.4932-13.937-.59941-4.6479.64736-9.9845 1.2776-13.925-1.8697-3.5994-1.1645-7.7328-.86188-10.953-3.015-2.62-4.4528-6.674-7.7708-10.443-11.205-3.2092-1.3133-6.5294.93413-9.1987 2.5686-2.9648 2.1889-6.3152 4.7371-7.1677 8.5136.024 1.5875-1.2538 3.1304-.7637.49612-.2447-4.3966 2.51-8.1306 5.0147-11.469 4.2476-4.6012 11.404-4.1255 16.767-1.9839 2.4898.61187 5.6408 3.4836 7.0384 3.902-.3674-5.0063-.02-10.91-3.9667-14.668-3.3786-2.9552-8.9326-3.7414-12.671-1.0146-.8322-.43089 1.9558-4.0228 3.4439-4.7423 6.4748-.59147 12.279 4.191 15.258 9.6025 2.5433 4.2211 3.008 9.5352 6.6519 13.081z" style="fill:#133024"/>
    </g>
    <g transform="matrix(.56307 0 0 .56307 241.14 286.85)">
     <path d="m1250.1 293.87c7.2338.28768 14.479 2.9638 19.78 7.969 1.3551.261 5.6955 4.3408 2.9639 1.0774-5.8232-6.1015-14.375-9.2516-22.744-9.0464zm-5.75 6.72c3.9388.16907 7.7984-.83904 11.72-.992-3.938-.16936-7.7999.83902-11.72.992zm-45.12-8.864c3.3687-3.9854 7.8949-7.7037 13.273-8.1531-1.7187.78273-4.9718 2.131-6.9349 3.8249-3.0607 2.1597-5.8836 5.2086-6.3298 9.0584-1.0998 2.1472-.2448-3.8915-.01-4.7301zm46.44 2.965c-1.9671.62483-5.3554-.80246-2.0566-2.3062 4.3905-4.0902 8.9331-8.0382 12.992-12.46 3.3221-2.7667 7.7255-4.1119 12.025-3.9123-5.2969.23355-10.301 3.0638-13.401 7.3275-3.838 3.6684-7.8327 7.1692-11.649 10.861.6904.18792 1.3828.37548 2.09.49zm-30.87-29.147c7.61-.25892 13.68 6.0061 16.336 12.64 1.4813 3.2728 2.049 7.3729 5.1142 9.6112-3.1654-1.7279-5.5984-4.3394-6.362-7.968-2.2536-6.8042-7.6366-13.259-15.088-14.283zm-2.97 15.03c4.9308-.20257 9.8257 1.4851 13.84 4.298 2.6862 2.8599-2.9953-1.589-4.5175-1.793-2.9454-1.3227-6.0883-2.284-9.3225-2.505zm40.47-25.31c-.2457-2.1023.9574-3.26 1.6356-.71277 2.0826 5.9134-.6017 12.708-5.5953 16.277-3.5963 3.5062-2.5237 9.0387-5.113 13.054.8067-3.6401.2897-7.5833 1.7579-11.094 2.4757-3.343 6.419-5.791 7.2897-10.139.6617-2.403.6322-4.9743.025-7.385zm6.94 16.81c4.5752-.0264 9.3133.98236 13.212 3.4183 1.518 2.1298-2.754.0279-3.1071-.78989-3.1595-1.5143-6.6243-2.3256-10.104-2.6284zm-48.12-2.876c1.4698-.69103 5.5743-.62212 1.8959.007-.7554.34017-3.715 2.3658-1.8959-.007z" style="fill:#464646"/>
    </g>
    <g transform="matrix(.78513 0 0 .56307 -35.335 285.98)">
     <path d="m1236.9 295.68c1.67 1.108 3.86-3.965 3.82-4.493-.33-4.097-.22-8.19-1.47-12.138-.24-.752-1.64-3.799-2.35-3.085-.01.009-.36.659-.74.939-.57.419-1.42.625-1.81 1.207-.18.265.31.095.47.134.39.096.83.564 1.07.872.87 1.088 1.38 2.851 1.81 4.157.78 2.34.35 4.764.2 7.176-.11 1.97-.18 3.437-1 5.231z" style="fill:#133024"/>
    </g>
    <g transform="matrix(.56307 0 0 .56307 241.14 286.85)">
     <path d="m1233.4 274.78c.88.762 2.41 2.076 2.63 2.567 1.75 3.948.97 8.198 1.43 12.294.06.529.2 3.867 1.58 3.502 1.5.346.06-2.973 0-3.502-.46-4.096-.3-8.19-2.05-12.138-.34-.751-2.28-3.798-3.28-3.084 0 .004-.13.165-.31.361z" style="fill:#255c46"/>
    </g>
    <g transform="matrix(.40594 0 0 .36597 470.31 373.98)">
     <path d="m1208.9 274.34c-.01-1.094 28.89-4.716 31.25-4.436 4.95.587 10.36-.157 15.29.938 15.49 3.441 30.54 20.755 39.53 33.594 7.42 10.599 5.42 27.251 1.07 38.579-1.15 2.993-31.12 37.5-34.08 38.317-20.31 5.615-58.92 3.398-65.94-2.151-21.5-16.991-27.16-29.352-31.77-47.94-4.18-16.871 9.43-66.007 40.7-57.882 5.8 1.508 3.95.981 3.95.981z" style="fill:#ce2424"/>
    </g>
    <g transform="matrix(.40594 0 0 .36597 470.31 373.98)">
     <path d="m1208.9 274.34c-.01-1.094 28.89-4.716 31.25-4.436 4.95.587 10.36-.157 15.29.938 15.49 3.441 30.54 20.755 39.53 33.594 7.42 10.599 5.42 27.251 1.07 38.579-1.15 2.993-31.12 37.5-34.08 38.317-20.31 5.615-58.92 3.398-65.94-2.151-21.5-16.991-27.16-29.352-31.77-47.94-4.18-16.871 9.43-66.007 40.7-57.882 5.8 1.508 3.95.981 3.95.981z" style="fill:#ce2424"/>
    </g>
    <g transform="matrix(.40594 0 0 .36597 470.31 373.98)">
     <path d="m1208.9 274.34c-.01-1.094 28.89-4.716 31.25-4.436 4.95.587 10.36-.157 15.29.938 15.49 3.441 30.54 20.755 39.53 33.594 7.42 10.599.17 26.475 1.07 38.579.72 9.733-28.5 35.817-34.08 38.317-4.85 2.181-13.8 6.924-19.59 6.328-19.07-1.959-40.97-4.222-46.35-8.479-21.5-16.991-27.16-29.352-31.77-47.94-4.18-16.871 9.43-66.007 40.7-57.882 5.8 1.508 3.95.981 3.95.981z" style="fill:#ce2424"/>
    </g>
    <g transform="matrix(.85558 0 0 .77135 169.3 129.48)">
     <path d="m953.74 495.1c-4.739 7.012-27.802 7.75-34.451 1.781-9.573-8.593-14.082-12.711-15.07-22.746-.808-8.207 4.473-31.317 19.309-27.462.373.097.679.176.929.24-19.636-.526-20.048 26.188-8.638 40.3 2.937 3.633 31.202 9.096 37.921 7.887z" style="fill:#a62525"/>
    </g>
    <g transform="matrix(.31802 0 0 .47418 576.08 339.56)">
     <path d="m1227.6 301.54c-9.9-4.021-19.51 3.149-21.43 8.879" style="fill:none;stroke-width:4.09px;stroke:#ffffff"/>
    </g>
    <g transform="matrix(-.2669 -.04375 -.035713 .21787 1309.7 469.27)">
     <path d="m1236.3 288.28c1.1158-5.1833 1.3311-11.029 5.2911-15.033 3.2915-3.7627 6.8589-7.5105 8.3595-12.409 1.1634-2.5448 2.7535-5.1386 2.5005-8.0498 3.4588 3.2571 2.3096 8.9073.5502 12.771-2.2143 3.9092-7.0551 6.1768-7.4946 11.058-.1746 2.0636-1.5497 6.4083-1.8652 6.8016 3.8793-5.2436 8.8495-11.01 15.875-11.333 4.0263-.25136 7.9561 1.1133 11.659 2.5207 2.2681 1.0787 1.474 2.5572-.7186 1.4936-5.8525-.62126-11.555 2.5107-15.116 7.0244-3.2359 3.6394-7.2672 6.4532-10.575 10.003-1.3606 2.9902 4.5415.93762 6.2297.75478 4.4266-.15234 8.9007 1.0491 12.963 2.7962 3.5942 1.3674 9.0215 5.7577 9.8322 7.584-2.8398-2.2162-6.2255-3.4445-9.779-3.8217-4.9461-1.1098-10.058-.99993-15.018-.0674-3.9635.47824-8.4361.48005-11.704-2.1576-3.8068-1.4703-9.2612-.42414-11.726-4.2385-2.6174-3.8663-6.2482-6.8633-9.6694-9.9818-4.1511-1.4075-8.0122 1.7644-11.163 4.0632-3.3814 1.7657-4.7781 6.2992-6.051 8.7722-.2982-4.2389 1.5778-8.2422 4.1894-11.485 3.3302-5.2166 10.535-5.627 15.911-3.8436 3.1216.79204 5.7534 2.6043 8.3622 4.3924.8559-1.7838-.025-6.1563-.446-8.86-.7806-4.5816-4.8718-8.1081-9.4864-8.3348-2.1333-.69761-5.2577 1.4136-6.306 1.1567.9931-4.0321 5.4439-5.5586 8.9242-3.5137 6.6744 2.475 10.679 9.0253 12.7 15.533.8758 2.3241 1.9251 4.6781 3.7708 6.405z" style="fill:#133024"/>
    </g>
    <g transform="matrix(-.32289 .094672 .049765 .16973 1355.4 311.08)">
     <path d="m1236.9 295.68c1.67 1.108 3.86-3.965 3.82-4.493-.33-4.097-.22-8.19-1.47-12.138-.24-.752-1.64-3.799-2.35-3.085-.01.009-.36.659-.74.939-.57.419-1.42.625-1.81 1.207-.18.265.31.095.47.134.39.096.83.564 1.07.872.87 1.088 1.38 2.851 1.81 4.157.78 2.34.35 4.764.2 7.176-.11 1.97-.18 3.437-1 5.231z" style="fill:#133024"/>
    </g>
    <g transform="matrix(-.23157 .067895 .049765 .16973 1241.7 344.68)">
     <path d="m1233.4 274.78c.8808.79413 1.8443 1.5227 2.5739 2.4656 1.2479 2.6523 1.2705 5.6512 1.3031 8.5242.021 1.9099.088 3.8308.4218 5.7147.1573.61713.3121 1.4232.9848 1.6689.7168.25143 1.2514-.33809 1.0094-1.0447-.1344-1.1055-.7135-2.1117-.7326-3.2356-.3428-3.6627-.3564-7.4504-1.7739-10.907-.4858-1.179-1.2388-2.2534-2.1521-3.141-.4033-.42802-1.2179-.80562-1.5694-.11692z" style="fill:#255c46"/>
    </g>
   </g>
  </g>
 </g>
</svg>
