<?xml version="1.0" encoding="UTF-8"?>
<!-- Created with Inkscape (http://www.inkscape.org/) -->
<svg width="43.18mm" height="37.835mm" version="1.1" viewBox="0 0 43.18 37.835" xmlns="http://www.w3.org/2000/svg">
 <g transform="translate(-125.46 -45.522)">
  <g transform="matrix(.30192 0 0 .30192 -125.84 -115.79)" style="clip-rule:evenodd;fill-rule:evenodd;stroke-linecap:round;stroke-linejoin:round;stroke-miterlimit:1.5">
   <g transform="matrix(1.1291 0 0 1.1291 -154.55 -161.28)">
    <path d="m972.14 669.28c6.6618.58926 13.307 1.5318 19.895 2.6134 3.9596.91298 4.1547 5.6808 3.7684 8.9548.051 5.0441 1.8823 10.099 1.0054 15.154-2.5725 3.613-7.1258 4.965-10.391 7.7859-3.4552 4.7634-9.3502 7.017-14.628 9.2656-11.923 4.4139-24.698 7.3967-37.478 6.5929-4.9186-.32935-9.3284-2.7735-14.203-3.4009-9.0255-2.0704-18.575-3.4-26.608-8.2919-2.2903-2.3959-6.8968-6.298-5.6551-9.6914 6.2844-4.2995 13.779-6.3829 20.818-9.1196 20.928-7.3295 42.188-13.678 63.478-19.862z" style="-inkscape-stroke:none;fill:#7c553d;font-variation-settings:normal;stop-color:#000000"/>
   </g>
   <g transform="matrix(.94632 0 0 .94632 27.713 -23.626)">
    <path d="m911.4 611.08c.69598-3.2171-2.9706-7.2101-6.0082-8.6358-5.3862-.88329-10.613 2.6878-13.567 6.9818-2.7113 2.8932-1.2022 7.1581-3.1113 10.323-3.2958 4.5461-9.4 3.1442-14.202 3.4302-4.1599-.0603-7.7075 3.6355-7.5616 7.7676-.53319 4.0932-.3611 8.3192-1.3223 12.33-2.5556 2.1352-6.4544 2.7419-7.8876 6.4808-2.2724 3.3191-4.8652 8.157-1.9897 11.862 3.4953 2.5938 8.4019-.2224 12.056 2.043 2.3912 3.3273-1.2118 7.2233-2.8216 10.217-1.7234 3.0228-4.9094 6.7649-2.722 10.275 3.5098 3.4479 8.9374 3.0149 13.361 4.4451 3.3626.42323 5.3969 3.3612 8.3428 4.6244 9.1443-27.381 18.289-54.763 27.433-82.144z" style="fill:#34954c"/>
   </g>
   <g transform="matrix(.94632 0 0 .94632 25.972 -15.724)">
    <path d="m904.69 616.74c.86312-3.1536 3.4288-6.8365 3.7072-10.534 3.489-1.9453 3.7432-7.5795 8.8257-7.6411 4.0487-.74692 7.1004-4.1359 11.362-4.2121 4.2719-.99174 8.6593 4.4119 11.912-.70696 3.3168-3.1629 8.8625-3.2244 12.166-.0114 3.11 1.9027 5.9735 7.1272 10.036 5.4614 3.714-2.0549 10.036 3.5759 7.2569 7.4576.55682 4.743 6.8762 6.1395 10.725 7.1788 4.1522 5.029 1.3274 11.788 2.1786 17.611 2.8787 2.7362 6.5426 7.1416 4.6147 11.442-2.52 3.8263-.75474 8.2017.86037 11.964 1.9176 4.2645.32876 10.437-4.6511 11.633-5.9093 1.6391-11.218 5.0466-15.779 9.0781-21.071-19.573-42.143-39.147-63.214-58.72z" style="fill:#32a14d"/>
   </g>
   <g transform="matrix(.94632 0 0 .94632 27.713 -23.626)">
    <path d="m971.55 669.3c-.21988-3.3537 4.3169-6.0981 7.9492-5.829 4.9896.62796 3.4303 6.6511 1.1354 9.388-2.7872 3.6665.9697 9.158-4.4667 11.234-4.1674 3.1282-9.5312 4.5978-13.156 8.4186-1.4951 4.0238-1.6108 9.4719-7.1386 10.309-4.8032 2.1502-9.402-1.7291-14.14-.63094-4.5447-.97618-9.1934.90955-11.713 4.7922-2.1318 2.8573-5.4572 5.8796-9.3217 4.5689-8.7174-2.0459-12.829-12.449-22.094-13.21-6.6154-.99729-12.737 5.0431-19.254 2.0588-4.4483-1.4899-7.7132-6.586-5.1188-11.063 2.3734-4.5877 6.737-7.7284 10.508-11.108 4.5606-3.8614 10.463-5.8592 16.421-5.6526 23.463-1.092 46.926-2.184 70.389-3.276z" style="fill:#1ba03c"/>
   </g>
   <g transform="matrix(.94632 0 0 .94632 24.851 -20.911)">
    <path d="m966.64 623.77c.861-.928-1.223-2.905-1.462-3.169-.987-1.09-1.901-2.265-3.033-3.204-5.137-4.26-10.932-4.809-15.12.969-2.925 4.036-2.545 9.579-5.302 13.754-1.275 1.93-5.605 5.417-4.778 8.538 1.49 5.623 5.686 11.946 8.335 17.059.68 1.31 3.102 4.354 3.102 6.009z" style="fill:#51c440"/>
   </g>
   <g transform="matrix(.94632 0 0 .94632 27.713 -23.626)">
    <path d="m946.25 686.99c3.745 5.47 20.497-3.448 23.261-10.467 2.412-6.125.731-12.519 2.52-18.803.538-1.889.505-8.799 1.475-10.381 3.224-5.259-9.964-20.447-11.83-17.728-2.319 3.378-7.263 8.806-9.805 12.02-6.859 8.67-5.747 21.076-5.815 31.209-.032 4.717.012 9.436.194 14.15z" style="fill:#36bd2f"/>
   </g>
   <g transform="matrix(.94632 0 0 .94632 27.713 -23.626)">
    <path d="m961.87 629.41c4.208 4.102 9.287 11.956 7.149 15.442-.97 1.582-.937 8.493-1.475 10.381-1.789 6.284-.108 12.679-2.52 18.803-2.764 7.019-17.379 10.875-23.986 13.608-.037.016 3.007 6.57 4.982 3.415.194 1.02 20.72-7.519 23.484-14.538 2.412-6.125.731-12.519 2.52-18.803.538-1.889.505-8.799 1.475-10.381 3.126-5.099-9.177-19.533-11.629-17.927z" style="fill:#58ad47"/>
   </g>
   <g transform="matrix(.94632 0 0 .94632 27.713 -23.626)">
    <path d="m944.5 625.84c1.6384-1.4816-1.8886-.90167-2.714-1.073-3.0336-1.3623-4.9545-4.3856-5.7628-7.5209-.68557-1.9139-2.0986-4.006-4.3563-4.0396-2.136-.136-4.6267.14055-6.2017-1.6458-1.3873-1.2591-3.0513-3.1836-5.1441-2.3483-2.1905.72781-2.8307 3.0663-4.1221 4.6997-1.7335 1.8511-4.1519 3.2395-4.8823 5.8356-3.973 9.6109-5.1056 20.333-3.6467 30.607.47329 1.7196 1.3739 4.2434 1.9044 5.355l27.3-5.542c4.156-3.8272 6.8365-9.1798 7.273-14.827.33444-3.1561.23254-6.3346.35302-9.5012z" style="fill:#2cbe3d"/>
   </g>
   <g transform="matrix(.94632 0 0 .94632 27.713 -23.626)">
    <path d="m938.08 640.2c.174-.825-2.665-2.75-3.075-3.031-3.151-2.156-6.443-4.11-9.499-6.397-1.292-.967-4.647-5.85-7.366-4.652-2.13.939-3.366 2.953-4.458 4.846-3.749 6.496-8.511 13.173-7.366 21.129.527 3.664 3.371 13.313 5.427 16.477 1.895 2.916 4.749 5.085 6.979 7.754 4.032 4.826 5.869 8.607 10.661 12.794 2.606 2.275 4.146 4.219 8.067 2.942 1.82-.593 5.571 1.104 6.435-.344 2.187-3.665 9.304-5.583 10.202-9.869 1.372-6.549-4.738-9.621-4.738-16.185z" style="fill:#59df21"/>
   </g>
   <g transform="matrix(.94632 0 0 .94632 27.713 -23.626)">
    <path d="m938.08 640.2c-1.0982-2.2914-3.7892-3.3228-5.7587-4.8141-3.3149-2.2169-6.8973-4.1685-9.4696-7.2946-1.8769-2.6038-5.6175-2.7402-7.3299.0939-2.5168 3.6604-4.7147 7.5583-6.7625 11.503-2.4504 4.7461-3.4293 10.364-1.7973 15.54 1.4068 4.9246 2.5507 10.15 5.5335 14.405 3.0091 3.5739 6.6325 6.6169 9.2222 10.549 3.1219 4.4295 6.6497 8.7303 11.206 11.741 2.7613 1.3933 5.7001-.7736 8.5733.34471 2.9677.59968 3.7707-3.3123 6.3406-4.1528 2.8392-1.9085 6.6794-4.0472 6.4495-8.0219.0627-5.3333-5.1493-9.0424-4.9378-14.429-3.7563-8.488-7.5127-16.976-11.269-25.464z" style="fill:#59df21"/>
   </g>
   <g transform="matrix(.94632 0 0 .94632 27.713 -23.626)">
    <path d="m912.61 629.72c.139.369-.423-.692-.478-1.082-.172-1.217-.181-2.454-.194-3.683-.013-1.199 1.405-10.986-1.877-10.117-5.751 1.524-10.032 5.386-14.212 9.342-4.305 4.074-7.564 6.609-10.855 11.63-2.923 4.459-.978 9.723 1.461 13.867 2.366 4.021 7.526 9.397 10.945 12.496 4.417 4.004 7.291 6.397 13.181 6.397z" style="fill:#2fbb51"/>
   </g>
   <g transform="matrix(.94632 0 0 .94632 27.713 -23.626)">
    <path d="m913.42 693.38c10.283 5.809 26.477-.63 23.711-4.255-.696-.912-11.818-11.366-15.701-14.345-.909-.697-2.307-.392-3.296-.969-2.448-1.429-1.255-6.293-.387-7.948.395-.754 4.844-3.749 3.876-5.427-1.748-3.032-6.377-.107-8.529-.388-2.924-.383-8.206-3.423-10.274-5.428-5.045-4.893-4.511-12.76-11.63-15.895-1.987-.875-6.53-1.349-7.754 1.357-2.524 5.578-2.807 9.042-4.265 14.926-1.582 6.39-5.003 14.617.118 20.434 5.542 6.295 12.596 9.638 20.042 13.101 1.993.927 3.931 2 6.009 2.714 2.634.904 5.656.753 8.08 2.123z" style="fill:#5bd041"/>
   </g>
   <g transform="matrix(.94632 0 0 .94632 27.713 -23.626)">
    <path d="m935.77 691.65c-5.033.682-11.407-3.815-15.194-1.588-10.483 6.165-51.843-20.24-35.469-39.455 3.557-4.173 2.896-7.581 4.82-12.299-2.229-.531-5.483-.457-6.49 1.769-2.524 5.578-2.807 9.042-4.265 14.926-1.582 6.39-5.003 14.617.118 20.434 5.542 6.295 12.596 9.638 20.042 13.101 1.993.927 3.931 2 6.009 2.714 2.634.904 5.367 1.498 8.08 2.123 6.649 1.531 17.152 3.781 22.349-1.725z" style="fill:#66b654"/>
   </g>
   <g transform="matrix(.94632 0 0 .94632 27.713 -23.626)">
    <path d="m892.72 639.34c-.358-1.701 4.966 1.067 5.658 1.759 1.919 1.919 2.165 4.8 2.778 7.253 2.372 9.487 11.614 9.722 19.907 9.722" style="fill:none;stroke-width:1.91px;stroke:#ffffff"/>
   </g>
   <g transform="matrix(.94632 0 0 .94632 27.713 -23.626)">
    <path d="m925.02 627.42c-.878-1.875-5.104-1.547-7.042-1.289-5.551.741-12.528 8.768-7.252 14.043" style="fill:none;stroke-width:1.91px;stroke:#ffffff"/>
   </g>
   <g transform="matrix(.94632 0 0 .94632 27.713 -23.626)">
    <path d="m931.68 634.9c1.721-.684.381 2.044-.279 2.952-1.183 1.627-3.651 3.014-5.555 3.395-2.139.427-4.094-.264-5.401-2.007-.565-.753-1.017-2.932.308-2.932" style="fill:none;stroke-width:1.91px;stroke:#ffffff"/>
   </g>
  </g>
 </g>
</svg>
