<?xml version="1.0" encoding="UTF-8"?>
<!-- Created with Inkscape (http://www.inkscape.org/) -->
<svg width="43.18mm" height="37.835mm" version="1.1" viewBox="0 0 43.18 37.835" xmlns="http://www.w3.org/2000/svg">
 <g transform="translate(-125.46 -45.522)">
  <g transform="matrix(.26458 0 0 .26458 43.141 -66.969)" style="clip-rule:evenodd;fill-rule:evenodd;stroke-linecap:round;stroke-linejoin:round;stroke-miterlimit:1.5">
   <g transform="matrix(2.4118 0 0 1.6706 -3866.5 -620.23)" style="-inkscape-stroke:none;fill:#7c553d;font-variation-settings:normal;stop-color:#000000">
    <path d="m1747.4 687.66c4.18 1.569 14.35 10.439 17.42 14.202 7.63 9.337-18.71 8.754-26.07 1.355-1.12-1.133-.57-5.082-1.45-6.354-1.44-2.091 3.44-3.089 3.44-3.206z" style="-inkscape-stroke:none;fill:#7c553d;font-variation-settings:normal;stop-color:#000000"/>
   </g>
   <g transform="matrix(.77991 .57696 -.57696 .77991 -626.7 -1000.4)">
    <path d="m1771.7 596.49c1.9906.88479 4.0011 2.0365 6.2207 2.1217 1.457-1.4289 1.9956-3.8134 3.0826-5.6175 4.209-8.6039 8.2038-17.31 12.427-25.906 1.0143-2.4436 1.6483-5.0842 3.3273-7.1967 1.4962-2.8345 3.0335-5.6436 4.6939-8.3855 1.1436-1.7497.7466-4.0793-.7508-5.4913-1.363-1.7315-3.441-2.6712-5.1883-3.8245-.9353 1.6497-.7998 3.74-1.9528 5.3185-1.6842 2.9119-3.0049 6.0016-4.0991 9.177-3.2127 7.628-8.2212 14.331-11.512 21.925-2.1313 4.2726-3.8672 8.7548-4.7523 13.46-.3657 1.5128-.7981 3.0223-1.4963 4.4195z" style="fill:#66db22"/>
   </g>
   <g transform="matrix(.77991 .57696 -.57696 .77991 -621.23 -1004)">
    <path d="m1756.3 700.08c1.18.151-1.44 5.037-1.44 4.747 0-.704-1.84-3.716-2.61-3.331-.34.171-.92 4.34-1.88 3.621-.98-.732-.37-2.803-1.16-3.331-.6-.4-1.04 1.535-1.45 1.738-1.25.626-.77-3.483-1.51-3.114-.47.232-1.31 4.434-1.38 3.404-.22-2.903-.67-4.998-1.51-3.94-.63.796-1.68 1.255-2.9 1.419-.9.12 1.91-2.464.93-2.649-1.11-.207-2.83 1.669-3.78 1.124-.78-.45 1.23-4.243.63-3.187-1.36 2.404-4.33 1.088-1.65-1.19" style="fill:#50a71d"/>
   </g>
   <g transform="matrix(.77991 .57696 -.57696 .77991 -625.39 -993.48)">
    <path d="m1770.4 599.73c2.3792-5.9036 4.0706-12.076 6.0908-18.113 3.1314-9.6199 5.9895-19.334 9.3592-28.874 1.346-2.9594 2.4612-6.1334 4.7274-8.544-1.1332-2.2809-4.0989-2.6127-6.416-2.6824-2.5242-.33179-5.9568.0785-6.1051 3.3155-.6623 3.3668-1.0178 6.7924-2.0922 10.071-3.4783 13.354-7.3289 26.641-9.8438 40.221-.6241 3.5326-.2334 7.1323-.2816 10.701-.2768 1.2522.6695 6.5145 1.7828 3.5385.9262-3.2113 1.8523-6.4226 2.7785-9.6339z" style="fill:#50a71d"/>
   </g>
   <g transform="matrix(.77991 .57696 -.57696 .77991 -621.23 -1004)">
    <path d="m1777.2 612.13c-5.8558 8.1675-5.8822 18.585-7.67 28.098-1.9176 10.986-.5608 22.815-6.124 32.914-4.0977 7.5634-1.4235 16.413-3.296 24.442-3.2874 4.8384-10.197 4.9664-15.152 2.6325-4.8563-2.7047-12.894-5.6156-9.9278-12.782 1.38-9.3145 9.3806-15.949 10.634-25.327 2.3587-10.282 5.5845-20.497 5.7419-31.129-.442-5.9004 5.0403-8.4959 8.5727-12.007 2.8971-5.8691 7.3623-10.59 12.139-14.984 5.2913-5.1866 7.316-12.608 10.626-19.05 3.342-6.8269 5.8334-14.196 10.095-20.499 4.523 1.1957 5.2212 8.1839 10.733 9.0214-1.9504 4.5058-5.5681 8.6894-8.271 12.984-5.9623 8.6116-11.978 17.188-18.102 25.685z" style="fill:#dbff8e"/>
   </g>
   <g transform="matrix(.77991 .57696 -.57696 .77991 -621.23 -1004)">
    <path d="m1799.5 571.17c5.0867 1.0473 4.146 4.4071 1.0872 7.4971-8.138 12.401-17.178 24.201-25.284 36.608-4.1393 7.8846-4.2285 17.094-5.8924 25.687-1.7493 10.759-.5612 22.309-6.0053 32.177-4.0977 7.5634-1.4235 16.413-3.296 24.442-3.2874 4.8384-10.197 4.9664-15.152 2.6325-3.3333-2.3584-7.9488-3.3088-9.9884-7.0015 4.6622 3.309 11.257 7.1208 17.049 4.1943 5.9484-.95544 4.8803-8.259 5.1018-12.779-.024-5.3561.1492-10.87 2.8963-15.651 4.5776-9.0239 4.251-19.41 5.9747-29.172 1.2073-10.398 4.1101-20.495 7.1997-30.461 8.7364-12.723 18.012-25.136 26.309-38.173zm-6.54-6.786c2.8216-.40407 6.2324 6.9745 1.75 2.843-.7299-.84798-1.1689-1.8971-1.75-2.843z" style="fill:#c3e776"/>
   </g>
   <g transform="matrix(.77991 .57696 -.57696 .77991 -621.23 -1004)">
    <path d="m1775.2 582.12c-.14.123-.03.137-.03.464" style="fill:none"/>
   </g>
   <g transform="matrix(-.61642 -.74912 -.74912 .61642 1950.8 1444.2)">
    <path d="m1773.3 589.5c1.8742-4.249 3.1163-8.7652 4.6506-13.15 2.6975-7.9481 5.0831-16.01 8.0376-23.866 1.2895-2.8805 2.414-5.9466 4.6092-8.2833-.9236-1.9571-3.4577-2.5583-5.4895-2.6099-2.0393-.0573-4.6057-.59847-6.1621 1.0453-1.7005 3.1654-1.2467 6.9586-2.4382 10.301-2.7295 10.662-5.8134 21.264-7.6143 32.135-.4881 2.9332-.087 5.8993-.2 8.8561.1578 2.0845-.177 4.4237.9133 6.2786 1.0438.0714.8616-1.4691 1.2391-2.196.8181-2.8369 1.6362-5.6737 2.4543-8.5106z" style="fill:#5ab126"/>
   </g>
   <g transform="matrix(.77991 .57696 -.57696 .77991 -621.23 -1004)">
    <path d="m1771.1 605.61c.1453-4.6436-.6572-9.2619-.4731-13.914-.2623-9.2382-1.068-18.69-4.7919-27.262-2.0309-4.7352-3.7594-9.5884-5.6355-14.382-1.5418-3.4106-3.1762-6.8424-3.6056-10.607-1.5144-1.7276-2.5153 3.2972-3.6149 4.2705-.7593 3.1017-5.3431 5.559-2.8282 8.8324 1.8002 3.6868 2.4826 7.8129 3.7069 11.714 1.8772 7.4673 3.3051 15.072 4.0979 22.734.7955 7.788-1.09 15.483-2.4421 23.099-1.0781 5.5344-2.6418 11.046-2.7378 16.714 2.6315-1.4229 4.5826-4.0105 6.7596-6.0818 4.0477-4.4759 8.4355-8.8394 11.306-14.2l.179-.50016z" style="fill:#66db22"/>
   </g>
   <g transform="matrix(.77991 .57696 -.57696 .77991 -621.23 -1004)">
    <path d="m1751.6 546.33c-1.7338 2.1318-3.2904 4.5029-1.0505 6.9809 1.5483 3.8847 2.4369 8.0227 3.6029 12.04 1.697 7.1266 3.0783 14.356 3.8132 21.65.7902 7.6408-1.0371 15.194-2.3556 22.668-1.0793 5.6851-2.7488 11.344-2.8074 17.16 2.3927-1.3756 4.6102-3.0429 3.9985-6.0667 1.1037-8.9775 3.5293-17.734 4.6314-26.717 1.3736-9.6032-1.0201-19.185-2.7797-28.573-1.1259-4.8372-2.5216-9.614-3.9784-14.357-.908-1.6665-2.0834-3.169-3.0744-4.785z" style="fill:#4ec309"/>
   </g>
   <g transform="matrix(.77991 .57696 -.57696 .77991 -621.23 -1004)">
    <path d="m1760.5 681.73c.74 1.36-5.54 3.333-6.35 3.435-2.86.358-6.88-3.543-8.7-5.36" style="fill:none;stroke-width:1.89px;stroke:#ffffff"/>
   </g>
   <g transform="matrix(.77991 .57696 -.57696 .77991 -621.23 -1004)">
    <path d="m1762.7 669.41c1.19.987-2.26 2.653-3.35 3.286-3.17 1.851-5.54 1.328-8.13-.872" style="fill:none;stroke-width:1.89px;stroke:#ffffff"/>
   </g>
   <g transform="matrix(.77991 .57696 -.57696 .77991 -621.23 -1004)">
    <path d="m1768 643.12c.87.487-1.19 1.281-1.58 1.543-1.99 1.328-4.03 1.701-6.39 1.598" style="fill:none;stroke-width:1.89px;stroke:#ffffff"/>
   </g>
  </g>
 </g>
</svg>
