<?xml version="1.0" encoding="UTF-8" standalone="no"?>
<!-- Created with Inkscape (http://www.inkscape.org/) -->

<svg
   width="4.2139449mm"
   height="4.0819139mm"
   viewBox="0 0 4.2139449 4.0819139"
   version="1.1"
   id="svg3295"
   inkscape:version="1.1.1 (3bf5ae0d25, 2021-09-20)"
   sodipodi:docname="2023-AT-01 sheduled not.svg"
   xmlns:inkscape="http://www.inkscape.org/namespaces/inkscape"
   xmlns:sodipodi="http://sodipodi.sourceforge.net/DTD/sodipodi-0.dtd"
   xmlns="http://www.w3.org/2000/svg"
   xmlns:svg="http://www.w3.org/2000/svg">
  <sodipodi:namedview
     id="namedview3297"
     pagecolor="#ffffff"
     bordercolor="#666666"
     borderopacity="1.0"
     inkscape:pageshadow="2"
     inkscape:pageopacity="0.0"
     inkscape:pagecheckerboard="0"
     inkscape:document-units="mm"
     showgrid="false"
     inkscape:zoom="24.857875"
     inkscape:cx="12.088724"
     inkscape:cy="11.28415"
     inkscape:window-width="2048"
     inkscape:window-height="1017"
     inkscape:window-x="-8"
     inkscape:window-y="-8"
     inkscape:window-maximized="1"
     inkscape:current-layer="layer1" />
  <defs
     id="defs3292" />
  <g
     inkscape:label="Ebene 1"
     inkscape:groupmode="layer"
     id="layer1"
     transform="translate(5.37712e-5,9.424325e-5)">
    <g
       transform="matrix(0.01635895,0,0,0.01635895,-11.538741,-6.9291729)"
       id="g10"
       style="clip-rule:evenodd;fill-rule:evenodd;stroke-linejoin:round;stroke-miterlimit:2">
      <path
         d="m 893.698,455.337 v 22.016 c 0,8.898 -7.224,16.122 -16.121,16.122 -8.898,0 -16.122,-7.224 -16.122,-16.122 v -22.016 h -91.907 v 22.016 c 0,8.898 -7.224,16.122 -16.122,16.122 -8.898,0 -16.122,-7.224 -16.122,-16.122 v -22.016 h -3.117 c -15.919,0 -28.843,12.924 -28.843,28.843 v 151.266 c 0,15.919 12.924,28.843 28.843,28.843 h 162.629 c 15.919,0 28.843,-12.924 28.843,-28.843 V 484.18 c 0,-15.919 -12.924,-28.843 -28.843,-28.843 z m -6.365,22.016 v -44.032 c 0,-5.385 -4.372,-9.756 -9.756,-9.756 -5.385,0 -9.757,4.371 -9.757,9.756 v 44.032 c 0,5.385 4.372,9.757 9.757,9.757 5.384,0 9.756,-4.372 9.756,-9.757 z m -124.151,0 v -44.032 c 0,-5.385 -4.371,-9.756 -9.756,-9.756 -5.385,0 -9.756,4.371 -9.756,9.756 v 44.032 c 0,5.385 4.371,9.757 9.756,9.757 5.385,0 9.756,-4.372 9.756,-9.757 z"
         style="fill:#484848"
         id="path8" />
    </g>
    <g
       transform="matrix(0.01635895,0,0,0.01635895,-11.538741,-6.9291729)"
       id="g14"
       style="clip-rule:evenodd;fill-rule:evenodd;stroke-linejoin:round;stroke-miterlimit:2">
      <path
         d="M 925.659,499.778 H 705.344 V 635.78 c 0,15.762 12.797,28.558 28.558,28.558 H 897.1 c 15.762,0 28.559,-12.796 28.559,-28.558 z"
         style="fill:#b9b9b9"
         id="path12" />
    </g>
    <g
       transform="matrix(0.01635895,0,0,0.01635895,-11.538741,-6.9291729)"
       id="g18"
       style="clip-rule:evenodd;fill-rule:evenodd;stroke-linejoin:round;stroke-miterlimit:2">
      <path
         d="m 776.983,589.229 h -55.97 v 52.591 h 55.97 z m 67.601,0 h -55.97 v 52.591 h 55.97 z m 67.601,0 h -55.97 v 52.591 h 55.97 z M 776.983,526.481 h -55.97 v 52.591 h 55.97 z m 67.601,0 h -55.97 v 52.591 h 55.97 z m 67.601,0 h -55.97 v 52.591 h 55.97 z"
         style="fill:#ffffff"
         id="path16" />
    </g>
    <path
       id="path1128"
       style="color:#000000;clip-rule:nonzero;fill:#d40000;fill-rule:nonzero;stroke-width:0.264583;stroke-linecap:round;stroke-linejoin:round;stroke-miterlimit:2;-inkscape-stroke:none"
       d="M 1.6074332,1.5476536 C 1.4307338,1.5230209 1.3426884,1.7754043 1.4562,1.8926914 1.7480645,2.2050797 2.0405323,2.5186718 2.3665598,2.7961562 2.0459298,3.0725214 1.6665146,3.2741366 1.3621538,3.570327 1.2646522,3.7359721 1.4908816,3.9385344 1.6490706,3.8424113 1.8646478,3.643307 2.1171238,3.4858853 2.352394,3.3099056 2.4650536,3.227181 2.5759087,3.1417999 2.6812711,3.049889 3.0157652,3.3017697 3.3764611,3.5162039 3.7127412,3.7655789 3.8867074,3.8539127 4.0721459,3.5879086 3.9421006,3.4495553 3.6402401,3.2050433 3.2990149,3.0148899 2.9871955,2.7837552 3.3211632,2.4791986 3.6580201,2.1772244 3.9742766,1.8540305 4.0827557,1.6907562 3.8397307,1.4760838 3.6865819,1.5892329 3.3510082,1.9075637 3.0167918,2.2278577 2.6704179,2.5346738 2.3208318,2.246569 2.0201223,1.9063043 1.7050274,1.5823669 1.675738,1.5632111 1.6413607,1.5542682 1.6074332,1.5476536 Z" />
    <g
       id="path1128-3"
       style="clip-rule:evenodd;fill-rule:evenodd;stroke-linejoin:round;stroke-miterlimit:2"
       transform="matrix(0.26458333,0,0,0.26458333,-228.55237,-108.74613)">
      <path
         id="path2843"
         style="color:#000000;clip-rule:nonzero;fill:#ffffff;fill-rule:nonzero;stroke-linecap:round;-inkscape-stroke:none"
         d="m 869.87273,416.05392 c -1.2157,-0.0659 -2.02929,1.57593 -1.24299,2.50654 0.90133,1.04667 1.92175,1.99031 2.92464,2.94073 -1.10011,0.82914 -2.31237,1.54094 -3.2515,2.56075 -0.74706,1.09197 0.48066,2.65881 1.72008,2.32993 0.77927,-0.23811 1.26676,-0.97672 1.96865,-1.37189 0.67324,-0.48394 1.36035,-0.95141 1.99245,-1.48949 1.21286,0.83664 2.42448,1.68495 3.65244,2.4935 1.26192,0.49334 2.56569,-1.1481 1.85344,-2.2813 -0.48151,-0.62525 -1.21982,-0.99735 -1.84726,-1.46429 -0.35864,-0.39687 -1.75938,-0.71146 -0.86945,-1.20654 0.95631,-0.89732 1.98768,-1.73732 2.82051,-2.75106 0.63236,-1.18916 -0.82637,-2.66634 -2.03326,-2.11312 -0.71353,0.42449 -1.22964,1.12116 -1.86866,1.65052 -0.61736,0.45789 -1.23789,1.38747 -1.86536,1.5327 -1.08012,-0.96294 -2.05855,-2.033 -3.09057,-3.04389 -0.24913,-0.1833 -0.55712,-0.2732 -0.86316,-0.29309 z" />
      <path
         style="color:#000000;clip-rule:nonzero;fill:#d40000;fill-rule:nonzero;stroke-width:1.6;stroke-linecap:round;-inkscape-stroke:none"
         d="m 869.89533,416.8584 c -0.66784,-0.0931 -1.00061,0.86079 -0.57159,1.30408 1.10311,1.18068 2.2085,2.36591 3.44073,3.41467 -1.21183,1.04453 -2.64584,1.80654 -3.79618,2.926 -0.36851,0.62606 0.48653,1.39165 1.08441,1.02835 0.81478,-0.75252 1.76902,-1.3475 2.65823,-2.01262 0.4258,-0.31266 0.84478,-0.63536 1.243,-0.98274 1.26423,0.95199 2.62749,1.76245 3.89847,2.70497 0.65751,0.33386 1.35838,-0.67151 0.86687,-1.19442 -1.14089,-0.92414 -2.43056,-1.64283 -3.60909,-2.51641 1.26224,-1.15108 2.5354,-2.2924 3.7307,-3.51392 0.41,-0.6171 -0.50852,-1.42846 -1.08735,-1.00081 -1.26831,1.20314 -2.53149,2.4137 -3.84062,3.57332 -1.32127,-1.0889 -2.45781,-2.37494 -3.64872,-3.59927 -0.1107,-0.0724 -0.24063,-0.1062 -0.36886,-0.1312 z"
         id="path2798" />
    </g>
  </g>
</svg>
