<?xml version="1.0" encoding="UTF-8" standalone="no"?>
<!DOCTYPE svg PUBLIC "-//W3C//DTD SVG 1.1//EN" "http://www.w3.org/Graphics/SVG/1.1/DTD/svg11.dtd">
<svg width="100%" height="100%" viewBox="0 0 17 15" version="1.1" xmlns="http://www.w3.org/2000/svg" xmlns:xlink="http://www.w3.org/1999/xlink" xml:space="preserve" xmlns:serif="http://www.serif.com/" style="fill-rule:evenodd;clip-rule:evenodd;stroke-linejoin:round;stroke-miterlimit:2;">
    <g transform="matrix(1,0,0,1,-863.82,-411.009)">
        <g id="path1070-5-9-7" transform="matrix(2,0,0,2.06041,63.7524,746.285)">
            <path d="M403.479,-166.651C403.479,-166.651 403.514,-121.302 403.514,-88.356C403.514,-84.835 403.513,-81.456 403.51,-78.289C403.498,-64.548 403.479,-54.8 403.479,-54.8C403.479,-54.667 403.591,-54.558 403.729,-54.558C403.867,-54.558 403.979,-54.667 403.979,-54.8C403.979,-54.8 403.96,-64.548 403.948,-78.289C403.945,-81.456 403.943,-84.835 403.943,-88.356C403.943,-121.302 403.979,-166.651 403.979,-166.651C403.979,-166.785 403.867,-166.893 403.729,-166.893C403.591,-166.893 403.479,-166.785 403.479,-166.651Z" style="fill:rgb(247,199,159);"/>
        </g>
        <g transform="matrix(2.13334,0,0,4.22849,-31.2284,1088.03)">
            <rect id="rect833-8" x="383.843" y="-160.662" width="48.967" height="5.031" style="fill:rgb(219,255,90);"/>
        </g>
        <g transform="matrix(0.0618291,0,0,0.0618291,820.209,384.82)">
            <path d="M893.698,455.337L893.698,477.353C893.698,486.251 886.474,493.475 877.577,493.475C868.679,493.475 861.455,486.251 861.455,477.353L861.455,455.337L769.548,455.337L769.548,477.353C769.548,486.251 762.324,493.475 753.426,493.475C744.528,493.475 737.304,486.251 737.304,477.353L737.304,455.337L734.187,455.337C718.268,455.337 705.344,468.261 705.344,484.18L705.344,635.446C705.344,651.365 718.268,664.289 734.187,664.289L896.816,664.289C912.735,664.289 925.659,651.365 925.659,635.446L925.659,484.18C925.659,468.261 912.735,455.337 896.816,455.337L893.698,455.337ZM887.333,477.353L887.333,433.321C887.333,427.936 882.961,423.565 877.577,423.565C872.192,423.565 867.82,427.936 867.82,433.321L867.82,477.353C867.82,482.738 872.192,487.11 877.577,487.11C882.961,487.11 887.333,482.738 887.333,477.353ZM763.182,477.353L763.182,433.321C763.182,427.936 758.811,423.565 753.426,423.565C748.041,423.565 743.67,427.936 743.67,433.321L743.67,477.353C743.67,482.738 748.041,487.11 753.426,487.11C758.811,487.11 763.182,482.738 763.182,477.353Z" style="fill:rgb(72,72,72);"/>
        </g>
        <g transform="matrix(0.0618291,0,0,0.0618291,820.209,384.82)">
            <path d="M925.659,499.778L705.344,499.778L705.344,635.78C705.344,651.542 718.141,664.338 733.902,664.338L897.1,664.338C912.862,664.338 925.659,651.542 925.659,635.78L925.659,499.778Z" style="fill:rgb(185,185,185);"/>
        </g>
        <g transform="matrix(0.0374579,0,0,0.0374579,842.32,396.998)">
            <path d="M799.814,616.457C795.103,610.46 796.147,601.767 802.144,597.057C808.141,592.346 816.834,593.39 821.545,599.387C834.995,616.509 841.913,630.845 850.092,647.304C851.727,650.593 855.05,652.707 858.723,652.794C862.396,652.88 865.814,650.926 867.603,647.717C897.971,593.224 929.197,545.146 974.61,511.806C980.757,507.294 989.412,508.62 993.925,514.768C998.438,520.915 997.111,529.569 990.964,534.082C938.296,572.747 906.319,622.567 870.808,690.86C868.439,695.415 863.74,698.281 858.606,698.302C853.472,698.324 848.749,695.496 846.343,690.961C825.194,651.093 821.281,643.786 799.814,616.457Z" style="fill:rgb(0,141,41);"/>
        </g>
        <path d="M868.249,421.252L864.789,421.252L864.789,424.503L868.249,424.503L868.249,421.252ZM872.429,421.252L868.968,421.252L868.968,424.503L872.429,424.503L872.429,421.252ZM876.609,417.611L876.609,417.372L873.148,417.372L873.148,418.86C872.927,418.748 872.67,418.72 872.429,418.783L872.429,417.372L868.968,417.372L868.968,420.624L872.059,420.624C872.542,421.249 872.759,421.591 873.148,422.309L873.148,424.503L876.609,424.503L876.609,421.252L876.408,421.252C877.345,419.684 878.337,418.436 879.736,417.408C880.19,417.075 880.288,416.436 879.955,415.983C879.622,415.529 878.983,415.431 878.529,415.764C877.81,416.292 877.181,416.915 876.609,417.611ZM868.249,417.372L864.789,417.372L864.789,420.624L868.249,420.624L868.249,417.372Z" style="fill:white;"/>
        <g transform="matrix(0.0374579,0,0,0.0374579,842.32,396.998)">
            <path d="M799.814,616.457C795.103,610.46 796.147,601.767 802.144,597.057C808.141,592.346 816.834,593.39 821.545,599.387C834.995,616.509 841.913,630.845 850.092,647.304C851.727,650.593 855.05,652.707 858.723,652.794C862.396,652.88 865.814,650.926 867.603,647.717C897.971,593.224 929.197,545.146 974.61,511.806C980.757,507.294 989.412,508.62 993.925,514.768C998.438,520.915 997.111,529.569 990.964,534.082C938.296,572.747 906.319,622.567 870.808,690.86C868.439,695.415 863.74,698.281 858.606,698.302C853.472,698.324 848.749,695.496 846.343,690.961C825.194,651.093 821.281,643.786 799.814,616.457Z" style="fill:rgb(0,141,41);"/>
        </g>
    </g>
</svg>
