<?xml version="1.0" encoding="UTF-8" standalone="no"?>
<svg
   width="124.44"
   height="129.98"
   style="clip-rule:evenodd;fill-rule:evenodd;stroke-linecap:round;stroke-linejoin:round;stroke-miterlimit:1.5"
   version="1.1"
   viewBox="0 0 124.44 129.98"
   xml:space="preserve"
   id="svg1100"
   sodipodi:docname="2023-AU-05-taskbody_compatible-fra.svg"
   inkscape:version="1.1.1 (3bf5ae0d25, 2021-09-20)"
   xmlns:inkscape="http://www.inkscape.org/namespaces/inkscape"
   xmlns:sodipodi="http://sodipodi.sourceforge.net/DTD/sodipodi-0.dtd"
   xmlns="http://www.w3.org/2000/svg"
   xmlns:svg="http://www.w3.org/2000/svg"><defs
   id="defs1104" /><sodipodi:namedview
   id="namedview1102"
   pagecolor="#ffffff"
   bordercolor="#666666"
   borderopacity="1.0"
   inkscape:pageshadow="2"
   inkscape:pageopacity="0.0"
   inkscape:pagecheckerboard="0"
   showgrid="false"
   inkscape:zoom="5.5316204"
   inkscape:cx="52.968204"
   inkscape:cy="64.989998"
   inkscape:window-width="2048"
   inkscape:window-height="1017"
   inkscape:window-x="-8"
   inkscape:window-y="-8"
   inkscape:window-maximized="1"
   inkscape:current-layer="g1098" />
    <g
   transform="translate(-461.76,-1130.7)"
   id="g1098">
        
        
        
        
        
        
        
        
        
        <path
   transform="translate(461.76,1130.7)"
   d="m 25.354,23.424 c -3.53,0 -6.3945,2.8704 -6.3945,6.4004 H 0.0455 v 75.92 h 31.434 c 0,-3.53 2.8655,-6.3906 6.3945,-6.3906 3.53,0 6.3945,2.8606 6.3945,6.3906 h 31.703 v -75.92 h -18.914 c 0,-3.53 -2.8645,-6.4004 -6.3945,-6.4004 -3.529,0 -6.3945,2.8704 -6.3945,6.4004 h -12.52 c 0,-3.53 -2.8655,-6.4004 -6.3945,-6.4004 z"
   style="fill:#086a93;stroke-width:0.1201"
   id="path988" />
        
        <path
   d="m 513,1193.9 -0.56507,-3.5463 -0.60583,3.5463 v 9.2661 l 0.5856,3.5595 0.5853,-3.5595 z"
   style="fill:#5ab1d6;stroke-width:0.17623"
   id="path990" />
        <path
   d="m 513,1168.6 -0.56507,-3.5463 -0.60583,3.5463 v 9.2661 l 0.5856,3.5595 0.5853,-3.5595 z"
   style="fill:#5ab1d6;stroke-width:0.17623"
   id="path992" />
        <path
   d="m 487.7,1193.9 -0.56507,-3.5463 -0.60583,3.5463 v 9.2661 l 0.5856,3.5595 0.5853,-3.5595 z"
   style="fill:#5ab1d6;stroke-width:0.17623"
   id="path994" />
        <path
   d="m 487.7,1168.6 -0.56507,-3.5463 -0.60583,3.5463 v 9.2661 l 0.5856,3.5595 0.5853,-3.5595 z"
   style="fill:#5ab1d6;stroke-width:0.17623"
   id="path996" />
        <path
   d="m 479.1,1211.7 3.5463,-0.5651 -3.5463,-0.6058 h -9.2661 l -3.5595,0.5856 3.5595,0.5853 z"
   style="fill:#5ab1d6;stroke-width:0.17623"
   id="path998" />
        <path
   d="m 479.68,1186.4 3.5463,-0.5651 -3.5463,-0.6058 h -9.2661 l -3.5595,0.5856 3.5595,0.5853 z"
   style="fill:#5ab1d6;stroke-width:0.17623"
   id="path1000" />
        <path
   d="m 504.4,1211.7 3.5463,-0.5651 -3.5463,-0.6058 h -9.2661 l -3.5595,0.5856 3.5595,0.5853 z"
   style="fill:#5ab1d6;stroke-width:0.17623"
   id="path1002" />
        <path
   d="m 504.99,1186.4 3.5463,-0.5651 -3.5463,-0.6058 h -9.2661 l -3.5595,0.5856 3.5595,0.5853 z"
   style="fill:#5ab1d6;stroke-width:0.17623"
   id="path1004" />
        <path
   d="m 529.71,1211.7 3.5463,-0.5651 -3.5463,-0.6058 h -9.2661 l -3.5595,0.5856 3.5595,0.5853 z"
   style="fill:#5ab1d6;stroke-width:0.17623"
   id="path1006" />
        <path
   d="m 530.3,1186.4 3.5463,-0.5651 -3.5463,-0.6058 h -9.2661 l -3.5595,0.5856 3.5595,0.5853 z"
   style="fill:#5ab1d6;stroke-width:0.17623"
   id="path1008" />
        <path
   d="m 487.7,1219.2 -0.56507,-3.5463 -0.60583,3.5463 v 9.2661 l 0.5856,3.5595 0.5853,-3.5595 z"
   style="fill:#5ab1d6;stroke-width:0.17623"
   id="path1010" />
        <path
   d="m 513,1219.2 -0.56507,-3.5463 -0.60583,3.5463 v 9.2661 l 0.5856,3.5595 0.5853,-3.5595 z"
   style="fill:#5ab1d6;stroke-width:0.17623"
   id="path1012" />
        <path
   d="m 538.28,1160.5 9.421,0.05"
   style="fill:none;stroke:#000000;stroke-width:0.4px"
   id="path1014" />
        <path
   d="m 461.96,1260.2 0.0497,-22.851"
   style="fill:none;stroke:#000000;stroke-width:0.39872px"
   id="path1016" />
        <path
   d="m 538.28,1236.4 9.421,0.05"
   style="fill:none;stroke:#000000;stroke-width:0.4px"
   id="path1018" />
        <path
   d="m 537.37,1260.2 0.0497,-22.851"
   style="fill:none;stroke:#000000;stroke-width:0.39872px"
   id="path1020" />
        <path
   d="m 543,1236.5 v -75.89"
   style="fill:none;stroke:#000000;stroke-width:0.4px"
   id="path1022" />
        <path
   d="M 537.41,1255.5 H 523.965"
   style="fill:none;stroke:#000000;stroke-width:0.39872px"
   id="path1024" />
        <path
   d="M 476.66,1255.5 H 462.003"
   style="fill:none;stroke:#000000;stroke-width:0.39872px"
   id="path1026" />
        
        
        <g
   aria-label="bosses"
   id="g1040"><path
     d="m 488.06,1135.9 q 0,-1.0573 -0.4375,-1.6563 -0.4323,-0.6042 -1.1927,-0.6042 -0.76041,0 -1.1979,0.6042 -0.43229,0.599 -0.43229,1.6563 0,1.0572 0.43229,1.6614 0.43751,0.599 1.1979,0.599 0.76042,0 1.1927,-0.599 0.4375,-0.6042 0.4375,-1.6614 z m -3.2604,-2.0365 q 0.30209,-0.5208 0.76042,-0.7708 0.46354,-0.2553 1.1042,-0.2553 1.0625,0 1.724,0.8438 0.66667,0.8437 0.66667,2.2188 0,1.375 -0.66667,2.2187 -0.66146,0.8438 -1.724,0.8438 -0.64063,0 -1.1042,-0.25 -0.45833,-0.2552 -0.76042,-0.7761 v 0.875 h -0.96354 v -8.1042 h 0.96354 z"
     id="path1028" /><path
     d="m 492.9,1133.7 q -0.77083,0 -1.2188,0.6042 -0.44792,0.599 -0.44792,1.6459 0,1.0468 0.44271,1.651 0.44792,0.599 1.224,0.599 0.76563,0 1.2136,-0.6042 0.44797,-0.6042 0.44792,-1.6458 0,-1.0365 -0.44792,-1.6407 -0.44792,-0.6094 -1.2136,-0.6094 z m 0,-0.8125 q 1.25,0 1.9636,0.8125 0.71355,0.8125 0.71355,2.2501 0,1.4322 -0.71355,2.25 -0.71354,0.8125 -1.9636,0.8125 -1.2552,0 -1.9688,-0.8125 -0.70834,-0.8178 -0.70834,-2.25 0,-1.4376 0.70834,-2.2501 0.71354,-0.8125 1.9688,-0.8125 z"
     id="path1030" /><path
     d="m 500.88,1133.2 v 0.9063 q -0.40625,-0.2083 -0.84375,-0.3125 -0.4375,-0.1042 -0.90625,-0.1042 -0.71355,0 -1.0729,0.2188 -0.35417,0.2187 -0.35417,0.6562 0,0.3334 0.25521,0.5261 0.25521,0.1875 1.026,0.3593 l 0.32813,0.073 q 1.0208,0.2187 1.4479,0.6198 0.43229,0.3958 0.43229,1.1093 0,0.8125 -0.64583,1.2865 -0.64063,0.474 -1.7656,0.474 -0.46875,0 -0.97917,-0.094 -0.50521,-0.089 -1.0677,-0.2708 v -0.9896 q 0.53125,0.276 1.0469,0.4167 0.51562,0.1354 1.0208,0.1354 0.67709,0 1.0417,-0.2292 0.36459,-0.2344 0.36459,-0.6562 0,-0.3907 -0.26563,-0.599 -0.26042,-0.2083 -1.151,-0.401 l -0.33334,-0.078 q -0.89063,-0.1875 -1.2865,-0.5729 -0.39584,-0.3906 -0.39584,-1.0677 0,-0.8229 0.58334,-1.2708 0.58333,-0.448 1.6562,-0.448 0.53126,0 1,0.078 0.46874,0.078 0.86458,0.2343 z"
     id="path1032" /><path
     d="m 506.44,1133.2 v 0.9063 q -0.40625,-0.2083 -0.84375,-0.3125 -0.4375,-0.1042 -0.90625,-0.1042 -0.71355,0 -1.0729,0.2188 -0.35417,0.2187 -0.35417,0.6562 0,0.3334 0.25521,0.5261 0.25521,0.1875 1.026,0.3593 l 0.32813,0.073 q 1.0208,0.2187 1.4479,0.6198 0.43229,0.3958 0.43229,1.1093 0,0.8125 -0.64583,1.2865 -0.64063,0.474 -1.7656,0.474 -0.46875,0 -0.97917,-0.094 -0.50521,-0.089 -1.0677,-0.2708 v -0.9896 q 0.53125,0.276 1.0469,0.4167 0.51562,0.1354 1.0208,0.1354 0.67709,0 1.0417,-0.2292 0.36459,-0.2344 0.36459,-0.6562 0,-0.3907 -0.26563,-0.599 -0.26042,-0.2083 -1.151,-0.401 l -0.33334,-0.078 q -0.89063,-0.1875 -1.2865,-0.5729 -0.39584,-0.3906 -0.39584,-1.0677 0,-0.8229 0.58334,-1.2708 0.58333,-0.448 1.6562,-0.448 0.53126,0 1,0.078 0.46874,0.078 0.86458,0.2343 z"
     id="path1034" /><path
     d="m 513.27,1135.7 v 0.4687 h -4.4063 q 0.0625,0.9896 0.59375,1.5104 0.53646,0.5157 1.4896,0.5157 0.55208,0 1.0677,-0.1355 0.52083,-0.1354 1.0312,-0.4062 v 0.9062 q -0.51563,0.2188 -1.0573,0.3334 -0.54167,0.1146 -1.099,0.1146 -1.3958,0 -2.2136,-0.8125 -0.8125,-0.8125 -0.8125,-2.198 0,-1.4323 0.77084,-2.2708 0.77604,-0.8438 2.0886,-0.8438 1.1771,0 1.8594,0.7605 0.6875,0.7552 0.6875,2.0573 z m -0.95834,-0.2813 q -0.0104,-0.7865 -0.44271,-1.2552 -0.42708,-0.4688 -1.1354,-0.4688 -0.80208,0 -1.2865,0.4532 -0.47917,0.4531 -0.55208,1.276 z"
     id="path1036" /><path
     d="m 518.56,1133.2 v 0.9063 q -0.40625,-0.2083 -0.84375,-0.3125 -0.4375,-0.1042 -0.90625,-0.1042 -0.71355,0 -1.0729,0.2188 -0.35417,0.2187 -0.35417,0.6562 0,0.3334 0.25521,0.5261 0.25521,0.1875 1.026,0.3593 l 0.32813,0.073 q 1.0208,0.2187 1.4479,0.6198 0.43229,0.3958 0.43229,1.1093 0,0.8125 -0.64583,1.2865 -0.64063,0.474 -1.7656,0.474 -0.46875,0 -0.97917,-0.094 -0.50521,-0.089 -1.0677,-0.2708 v -0.9896 q 0.53125,0.276 1.0469,0.4167 0.51563,0.1354 1.0208,0.1354 0.67709,0 1.0417,-0.2292 0.36459,-0.2344 0.36459,-0.6562 0,-0.3907 -0.26563,-0.599 -0.26042,-0.2083 -1.151,-0.401 l -0.33333,-0.078 q -0.89063,-0.1875 -1.2865,-0.5729 -0.39584,-0.3906 -0.39584,-1.0677 0,-0.8229 0.58334,-1.2708 0.58333,-0.448 1.6562,-0.448 0.53126,0 1,0.078 0.46874,0.078 0.86458,0.2343 z"
     id="path1038" /></g><g
   transform="matrix(10.112,0,0,10.112,-6588,-10822)"
   style="stroke-width:0.098888;stroke-linecap:butt;stroke-linejoin:miter;stop-color:#000000"
   aria-label="hauteur"
   id="g1056"><path
     d="m 705.88,1188.6 v 0.3481 h -0.0948 v -0.345 q 0,-0.082 -0.0319,-0.1226 -0.0319,-0.041 -0.0958,-0.041 -0.0767,0 -0.12104,0.049 -0.0443,0.049 -0.0443,0.1334 v 0.326 h -0.0953 v -0.8014 h 0.0953 v 0.3142 q 0.034,-0.052 0.0798,-0.078 0.0463,-0.026 0.10662,-0.026 0.0994,0 0.15039,0.062 0.051,0.061 0.051,0.1808 z"
     style="stop-color:#000000"
     id="path1042" /><path
     d="m 706.33,1188.643 q -0.11486,0 -0.15915,0.026 -0.0443,0.026 -0.0443,0.09 0,0.05 0.033,0.08 0.0335,0.029 0.0906,0.029 0.0788,0 0.12619,-0.056 0.0479,-0.056 0.0479,-0.1488 v -0.021 z m 0.18902,-0.039 v 0.3291 h -0.0948 v -0.088 q -0.0325,0.053 -0.0809,0.078 -0.0484,0.025 -0.11846,0.025 -0.0886,0 -0.14113,-0.05 -0.052,-0.05 -0.052,-0.1334 0,-0.097 0.0649,-0.1467 0.0654,-0.05 0.19469,-0.05 h 0.13288 v -0.01 q 0,-0.065 -0.0433,-0.1009 -0.0428,-0.036 -0.12053,-0.036 -0.0494,0 -0.0963,0.012 -0.0469,0.012 -0.0901,0.035 v -0.088 q 0.052,-0.02 0.10095,-0.03 0.0489,-0.01 0.0953,-0.01 0.12516,0 0.18696,0.065 0.0618,0.065 0.0618,0.1967 z"
     style="stop-color:#000000"
     id="path1044" /><path
     d="m 706.7,1188.7062 v -0.3492 h 0.0948 v 0.3456 q 0,0.082 0.0319,0.1231 0.0319,0.041 0.0958,0.041 0.0767,0 0.12104,-0.049 0.0448,-0.049 0.0448,-0.1333 v -0.3271 h 0.0948 v 0.5768 h -0.0948 v -0.089 q -0.0345,0.053 -0.0803,0.078 -0.0453,0.025 -0.10558,0.025 -0.0994,0 -0.15091,-0.062 -0.0515,-0.062 -0.0515,-0.1808 z"
     style="stop-color:#000000"
     id="path1046" /><path
     d="m 707.48,1188.2072 v 0.1638 h 0.19521 v 0.074 H 707.48 v 0.3131 q 0,0.071 0.0191,0.091 0.0196,0.02 0.0788,0.02 h 0.0974 v 0.079 h -0.0974 q -0.1097,0 -0.15142,-0.041 -0.0417,-0.041 -0.0417,-0.1494 v -0.3131 h -0.0695 v -0.074 h 0.0695 v -0.1638 z"
     style="stop-color:#000000"
     id="path1048" /><path
     d="m 708.29,1188.6208 v 0.046 h -0.43573 q 0.006,0.098 0.0587,0.1493 0.053,0.051 0.1473,0.051 0.0546,0 0.10558,-0.013 0.0515,-0.013 0.10198,-0.04 v 0.09 q -0.051,0.022 -0.10455,0.033 -0.0536,0.011 -0.10868,0.011 -0.13803,0 -0.21889,-0.08 -0.0804,-0.08 -0.0804,-0.2173 0,-0.1416 0.0762,-0.2246 0.0767,-0.083 0.20653,-0.083 0.1164,0 0.18387,0.075 0.068,0.075 0.068,0.2034 z m -0.0948,-0.028 q -10e-4,-0.078 -0.0438,-0.1241 -0.0422,-0.046 -0.11228,-0.046 -0.0793,0 -0.12721,0.045 -0.0474,0.045 -0.0546,0.1262 z"
     style="stop-color:#000000"
     id="path1050" /><path
     d="m 708.44,1188.7062 v -0.3492 h 0.0948 v 0.3456 q 0,0.082 0.0319,0.1231 0.0319,0.041 0.0958,0.041 0.0768,0 0.12104,-0.049 0.0448,-0.049 0.0448,-0.1333 v -0.3271 h 0.0948 v 0.5768 h -0.0948 v -0.089 q -0.0345,0.053 -0.0804,0.078 -0.0453,0.025 -0.10558,0.025 -0.0994,0 -0.15091,-0.062 -0.0515,-0.062 -0.0515,-0.1808 z"
     style="stop-color:#000000"
     id="path1052" /><path
     d="m 709.45,1188.4544 q -0.016,-0.01 -0.035,-0.013 -0.0185,0 -0.0412,0 -0.0804,0 -0.12362,0.053 -0.0427,0.052 -0.0427,0.1499 v 0.3038 h -0.0953 v -0.5768 h 0.0953 v 0.09 q 0.0299,-0.053 0.0778,-0.078 0.0479,-0.026 0.1164,-0.026 0.01,0 0.0216,0 0.0118,0 0.0263,0 z"
     style="stop-color:#000000"
     id="path1054" /></g><path
   d="m 510.73008,1238.6272 v 0.9 q -0.4065,-0.2225 -0.81806,-0.3337 -0.4065,-0.1113 -0.82312,-0.1113 -0.93232,0 -1.44783,0.5966 -0.51572,0.5865 -0.51572,1.6564 0,1.0668 0.51572,1.6614 0.51571,0.5865 1.44783,0.5865 0.41662,0 0.82312,-0.1112 0.41156,-0.1113 0.81806,-0.3337 v 0.8797 q -0.40145,0.1921 -0.83323,0.2831 -0.42673,0.1012 -0.91109,0.1012 -1.31769,0 -2.09369,-0.8292 -0.77559,-0.8292 -0.77559,-2.2338 0,-1.4278 0.78166,-2.2448 0.78671,-0.8191 2.15092,-0.8191 0.44291,0 0.86458,0.1011 0.42167,0.1011 0.81806,0.273 z"
   style="stroke-width:0.999955;stroke-linecap:butt;stroke-linejoin:miter;stop-color:#000000"
   id="path1058" /><path
   d="m 515.78608,1239.4089 q -0.16179,-0.1011 -0.35392,-0.1315 -0.18707,0 -0.41661,0 -0.812,0 -1.24995,0.536 -0.43178,0.5258 -0.43178,1.5158 v 3.073 h -0.96367 v -5.8336 h 0.96266 v 0.9101 q 0.30235,-0.536 0.78671,-0.7888 0.48437,-0.2629 1.17704,-0.2629 0.10112,0 0.21842,0 0.11932,0 0.26594,0 z"
   style="stroke-width:0.999955;stroke-linecap:butt;stroke-linejoin:miter;stop-color:#000000"
   id="path1060" /><path
   d="m 521.54992,1241.0915 v 0.4652 h -4.406 q 0.0607,0.9909 0.59357,1.5107 0.53594,0.5157 1.4896,0.5157 0.55212,0 1.06763,-0.1315 0.52077,-0.1314 1.03122,-0.4044 v 0.91 q -0.51571,0.2225 -1.05731,0.3337 -0.542,0.1113 -1.09887,0.1113 -1.39576,0 -2.21342,-0.809 -0.81199,-0.809 -0.81199,-2.1983 0,-1.4319 0.77053,-2.2712 0.77559,-0.8393 2.08843,-0.8393 1.17704,0 1.8593,0.7584 0.68761,0.7584 0.68761,2.0578 z m -0.95862,-0.2831 q -0.0101,-0.7888 -0.4429,-1.2549 -0.42673,-0.4652 -1.13538,-0.4652 -0.80188,0 -1.28645,0.4551 -0.47931,0.455 -0.55211,1.2761 z"
   style="stroke-width:0.999955;stroke-linecap:butt;stroke-linejoin:miter;stop-color:#000000"
   id="path1062" /><path
   d="m 523.06672,1241.9561 v -3.5311 h 0.95862 v 3.4947 q 0,0.8292 0.32257,1.2448 0.32257,0.4146 0.96873,0.4146 0.77559,0 1.22396,-0.4955 0.45301,-0.4955 0.45301,-1.349 v -3.3076 h 0.95862 v 5.8336 h -0.95862 v -0.8999 q -0.34886,0.5359 -0.81199,0.7887 -0.45807,0.2528 -1.06773,0.2528 -1.00513,0 -1.5259,-0.627 -0.52076,-0.6269 -0.52076,-1.8282 z"
   style="stroke-width:0.999955;stroke-linecap:butt;stroke-linejoin:miter;stop-color:#000000"
   id="path1064" /><path
   d="m 534.79664,1238.5686 -2.10926,2.8384 2.21867,2.9952 h -1.13022 l -1.6978,-2.2924 -1.69791,2.2924 h -1.13011 l 2.26549,-3.0518 -2.07276,-2.7818 h 1.13012 l 1.54683,2.078 1.54683,-2.078 z"
   style="stroke-width:0.999955;stroke-linecap:butt;stroke-linejoin:miter;stop-color:#000000"
   id="path1066" /><path
   d="m 482.01216,1249.7285 h 0.95862 v 8.1038 h -0.95862 z"
   style="stroke-width:0.999955;stroke-linecap:butt;stroke-linejoin:miter;stop-color:#000000"
   id="path1070" /><path
   d="m 487.57376,1254.7471 q -1.16146,0 -1.60932,0.2629 -0.44797,0.2629 -0.44797,0.9101 0,0.5157 0.3337,0.809 0.33875,0.2932 0.91615,0.2932 0.79682,0 1.27603,-0.5663 0.48436,-0.5662 0.48436,-1.5046 v -0.2124 z m 1.91137,-0.3944 v 3.3279 h -0.95862 v -0.8899 q -0.32864,0.536 -0.81806,0.7888 -0.48942,0.2528 -1.19787,0.2528 -0.89592,0 -1.427,-0.5056 -0.52583,-0.5056 -0.52583,-1.349 0,-0.9808 0.65627,-1.4844 0.66133,-0.4955 1.96871,-0.4955 h 1.34368 v -0.1011 q 0,-0.6573 -0.43785,-1.0203 -0.43178,-0.3641 -1.2187,-0.3641 -0.49953,0 -0.97378,0.1214 -0.47425,0.1213 -0.91109,0.3539 v -0.8898 q 0.52582,-0.2023 1.0208,-0.3034 0.49448,-0.1011 0.96368,-0.1011 1.26561,0 1.89054,0.6573 0.62492,0.6572 0.62492,1.989 z"
   style="stroke-width:0.999955;stroke-linecap:butt;stroke-linejoin:miter;stop-color:#000000"
   id="path1072" /><path
   d="m 494.8544,1252.84 q -0.16179,-0.1011 -0.35392,-0.1315 -0.18707,0 -0.41661,0 -0.812,0 -1.24995,0.536 -0.43178,0.5258 -0.43178,1.5158 v 3.072 h -0.96367 v -5.8326 h 0.96367 v 0.9101 q 0.30235,-0.536 0.78671,-0.7888 0.48437,-0.2629 1.17704,-0.2629 0.10112,0 0.21842,0 0.11932,0 0.26594,0 z"
   style="stroke-width:0.999955;stroke-linecap:butt;stroke-linejoin:miter;stop-color:#000000"
   id="path1074" /><path
   d="m 499.50592,1254.8624 q 0,-1.0415 -0.43279,-1.6149 -0.42673,-0.5764 -1.20303,-0.5764 -0.77053,0 -1.20312,0.5764 -0.42673,0.5764 -0.42673,1.6149 0,1.0365 0.42673,1.6098 0.43178,0.5764 1.20312,0.5764 0.77559,0 1.20303,-0.5764 0.43279,-0.5764 0.43279,-1.6098 z m 0.95862,2.26 q 0,1.4895 -0.66133,2.2135 -0.66132,0.7281 -2.02594,0.7281 -0.5056,0 -0.95356,-0.1011 -0.44796,-0.1011 -0.86963,-0.2326 V 1258.8 q 0.42167,0.2326 0.83323,0.3337 0.41156,0.1112 0.83828,0.1112 0.94244,0 1.41144,-0.4954 0.46919,-0.4854 0.46919,-1.4845 v -0.4753 q -0.29729,0.5158 -0.76042,0.7686 -0.46313,0.2528 -1.10939,0.2528 -1.07288,0 -1.72905,-0.8191 -0.65627,-0.8191 -0.65627,-2.167 0,-1.354 0.65627,-2.1721 0.65627,-0.819 1.72905,-0.819 0.64616,0 1.10939,0.2528 0.46313,0.2528 0.76042,0.7685 v -0.8899 h 0.95862 z"
   style="stroke-width:0.999955;stroke-linecap:butt;stroke-linejoin:miter;stop-color:#000000"
   id="path1076" /><path
   d="m 507.4944,1254.5226 v 0.4652 h -4.406 q 0.0607,0.9909 0.59357,1.5097 0.53594,0.5157 1.4895,0.5157 0.55212,0 1.06773,-0.1315 0.52077,-0.1314 1.03122,-0.4045 v 0.9101 q -0.51571,0.2225 -1.05731,0.3337 -0.542,0.1113 -1.09887,0.1113 -1.39576,0 -2.21342,-0.809 -0.813,-0.809 -0.813,-2.1973 0,-1.4329 0.77053,-2.2712 0.7766,-0.8393 2.08853,-0.8393 1.17704,0 1.8593,0.7584 0.68761,0.7584 0.68761,2.0568 z m -0.95862,-0.2831 q -0.0101,-0.7888 -0.4429,-1.2549 -0.42673,-0.4652 -1.13538,-0.4652 -0.80188,0 -1.28645,0.4551 -0.47931,0.455 -0.55211,1.2761 z"
   style="stroke-width:0.999955;stroke-linecap:butt;stroke-linejoin:miter;stop-color:#000000"
   id="path1078" /><path
   d="m 508.91008,1255.3862 v -3.5311 h 0.95862 v 3.4947 q 0,0.8292 0.32257,1.2448 0.32257,0.4146 0.96873,0.4146 0.77559,0 1.22396,-0.4955 0.45301,-0.4955 0.45301,-1.349 v -3.3066 h 0.95862 v 5.8326 h -0.95862 v -0.8999 q -0.34886,0.5359 -0.81199,0.7887 -0.45807,0.2528 -1.06773,0.2528 -1.00513,0 -1.5259,-0.627 -0.52076,-0.6269 -0.52076,-1.8282 z"
   style="stroke-width:0.999955;stroke-linecap:butt;stroke-linejoin:miter;stop-color:#000000"
   id="path1080" /><path
   d="m 519.1232,1252.84 q -0.16179,-0.1011 -0.35392,-0.1315 -0.18707,0 -0.41661,0 -0.812,0 -1.24995,0.536 -0.43178,0.5258 -0.43178,1.5158 v 3.072 h -0.96367 v -5.8326 h 0.96367 v 0.9101 q 0.30235,-0.536 0.78671,-0.7888 0.48437,-0.2629 1.17704,-0.2629 0.10112,0 0.21842,0 0.11932,0 0.26594,0 z"
   style="stroke-width:0.999955;stroke-linecap:butt;stroke-linejoin:miter;stop-color:#000000"
   id="path1082" />
        
        <path
   d="m 492.26,1143.1 -4.4883,9.8669"
   style="fill:none;stroke:#000000;stroke-width:0.43056px"
   id="path1086" />
        <path
   d="m 504.49,1240.7 c -3.9364,-0.9043 -4.9574,-4.1897 -4.7645,-8.4143"
   style="fill:none;stroke:#000000;stroke-width:0.43056px"
   id="path1088" />
        <path
   d="m 508.01,1143.1 4.4883,9.8669"
   style="fill:none;stroke:#000000;stroke-width:0.43056px"
   id="path1090" />
        <path
   d="m 491.68,1151.1 c -1.1996,0.2689 -2.4965,0.9029 -3.8791,1.8603 -0.0783,-1.372 -0.1072,-2.474 -0.20723,-4.1016"
   style="fill:none;stroke:#000000;stroke-width:0.40032px"
   id="path1092" />
        <path
   d="m 497.89,1236.2 c 0.75871,-0.9673 1.3617,-2.279 1.8264,-3.8952 0.92881,1.0128 1.7707,2.1556 2.2648,3.7921"
   style="fill:none;stroke:#000000;stroke-width:0.40032px"
   id="path1094" />
        <path
   d="m 512.88,1148.9 c -0.37775,1.1305 -0.49402,2.5071 -0.37852,4.1012 -1.2068,-0.551 -2.3768,-1.2486 -3.3908,-2.5086"
   style="fill:none;stroke:#000000;stroke-width:0.39879px"
   id="path1096" />
    </g>
</svg>
